<?xml version="1.0" encoding="UTF-8" standalone="no"?>
<!-- Created with Inkscape (http://www.inkscape.org/) -->

<svg
   xmlns:dc="http://purl.org/dc/elements/1.1/"
   xmlns:cc="http://creativecommons.org/ns#"
   xmlns:rdf="http://www.w3.org/1999/02/22-rdf-syntax-ns#"
   xmlns:svg="http://www.w3.org/2000/svg"
   xmlns="http://www.w3.org/2000/svg"
   xmlns:sodipodi="http://sodipodi.sourceforge.net/DTD/sodipodi-0.dtd"
   xmlns:inkscape="http://www.inkscape.org/namespaces/inkscape"
   width="61.937489"
   height="46.125"
   id="svg3034"
   version="1.1"
   inkscape:version="0.48.5 r10040"
   sodipodi:docname="machine.svg">
  <defs
     id="defs3036" />
  <sodipodi:namedview
     id="base"
     pagecolor="#ffffff"
     bordercolor="#666666"
     borderopacity="1.0"
     inkscape:pageopacity="0.0"
     inkscape:pageshadow="2"
     inkscape:zoom="5.6"
     inkscape:cx="85.976657"
     inkscape:cy="40.385137"
     inkscape:document-units="px"
     inkscape:current-layer="layer1"
     showgrid="false"
     inkscape:window-width="1920"
     inkscape:window-height="1027"
     inkscape:window-x="1912"
     inkscape:window-y="-8"
     inkscape:window-maximized="1"
     fit-margin-top="0"
     fit-margin-left="0"
     fit-margin-right="0"
     fit-margin-bottom="0" />
  <metadata
     id="metadata3039">
    <rdf:RDF>
      <cc:Work
         rdf:about="">
        <dc:format>image/svg+xml</dc:format>
        <dc:type
           rdf:resource="http://purl.org/dc/dcmitype/StillImage" />
        <dc:title />
      </cc:Work>
    </rdf:RDF>
  </metadata>
  <g
     inkscape:label="Ebene 1"
     inkscape:groupmode="layer"
     id="layer1"
     transform="translate(-283.31697,-446.44254)">
    <rect
       style="fill:#ffffff;stroke:#000000;stroke-width:1.00000012;stroke-linecap:round;stroke-linejoin:round;stroke-miterlimit:4;stroke-dasharray:none;display:inline"
       id="rect5294"
       width="26.000002"
       height="30"
       x="303.00446"
       y="457.06754" />
    <rect
       style="color:#000000;fill:#ffffff;stroke:#000000;stroke-width:1;stroke-linecap:round;stroke-linejoin:round;stroke-miterlimit:4;stroke-opacity:1;stroke-dasharray:none;marker:none;visibility:visible;display:inline;overflow:visible;enable-background:accumulate"
       id="rect5382-7-0-2"
       width="7.1427693"
       height="19.047384"
       x="309.34579"
       y="455.64661" />
    <rect
       style="color:#000000;fill:#ffffff;stroke:#000000;stroke-width:1;stroke-linecap:round;stroke-linejoin:round;stroke-miterlimit:4;stroke-opacity:1;stroke-dasharray:none;marker:none;visibility:visible;display:inline;overflow:visible;enable-background:accumulate"
       id="rect5382-7-0-2-7"
       width="7.1427693"
       height="19.047384"
       x="322.83768"
       y="455.64661" />
    <path
       style="fill:#ffffff;stroke:#000000;stroke-width:1;stroke-linejoin:round;display:inline"
       d="m 330.33802,469.1703 -2.61629,0 0,1.58728 0.76884,0 0,1.58729 -3.17455,0 0,-1.58729 0.84323,0 0,-1.58728 -3.49697,0 0,1.58728 0.76884,0 0,1.58729 -3.17456,0 0,-1.58729 0.84324,0 0,-1.58728 -3.52178,0 0,1.58728 0.76884,0 0,1.58729 -3.17457,0 0,-1.58729 0.84325,0 0,-1.58728 -3.52179,0 0,1.58728 0.76884,0 0,1.58729 -3.17456,0 0,-1.58729 0.84324,0 0,-1.58728 -2.7682,0 0,7.1297 22.2451,0 -0.0351,-3.56485 z"
       id="rect5292"
       inkscape:connector-curvature="0"
       sodipodi:nodetypes="cccccccccccccccccccccccccccccccccccccc" />
    <path
       inkscape:connector-curvature="0"
       style="color:#000000;fill:#000000;stroke:#000000;stroke-width:1.00000012;stroke-linecap:round;stroke-linejoin:round;stroke-miterlimit:4;stroke-opacity:1;stroke-dasharray:none;marker:none;visibility:visible;display:inline;overflow:visible;enable-background:accumulate"
       d="m 308.00447,453.06754 0,29 23,0 0,-29 -23,0 z m 1.53333,3.13513 6.9,0 0,18.81082 -6.9,0 0,-18.81082 z m 13.03334,0 6.9,0 0,18.81082 -6.9,0 0,-18.81082 z"
       id="rect5382-7" />
    <rect
       style="fill:#ffffff;stroke:none;display:inline"
       id="rect5296"
       width="22.221949"
       height="0.79364103"
       x="-479.05902"
       y="317.67905"
       transform="matrix(0,-1,1,0,0,0)" />
    <rect
       style="color:#000000;fill:#000000;stroke:#000000;stroke-width:1;stroke-linecap:round;stroke-linejoin:round;stroke-miterlimit:4;stroke-opacity:1;stroke-dasharray:none;marker:none;visibility:visible;display:inline;overflow:visible;enable-background:accumulate"
       id="rect5382-7-4"
       width="8.9982185"
       height="10.035851"
       x="296.9942"
       y="461.04962" />
    <rect
       style="color:#000000;fill:#ffffff;stroke:#000000;stroke-width:1.00000012;stroke-linecap:round;stroke-linejoin:round;stroke-miterlimit:4;stroke-opacity:1;stroke-dasharray:none;marker:none;visibility:visible;display:inline;overflow:visible;enable-background:accumulate"
       id="rect5382-7-0-9"
       width="8.9982176"
       height="5.0179257"
       x="296.9942"
       y="462.08148" />
    <rect
       style="fill:#ffffff;stroke:none;display:inline"
       id="rect5296-7"
       width="22.221949"
       height="0.79364103"
       x="-479.05902"
       y="320.85361"
       transform="matrix(0,-1,1,0,0,0)" />
    <rect
       style="color:#000000;fill:#ffffff;fill-opacity:1;fill-rule:evenodd;stroke:#ffffff;stroke-width:3.00000024;stroke-linecap:square;stroke-linejoin:round;stroke-miterlimit:4;stroke-opacity:1;stroke-dasharray:none;stroke-dashoffset:0;marker:none;visibility:visible;display:inline;overflow:visible;enable-background:accumulate"
       id="rect3341"
       width="0.16658247"
       height="0.19222009"
       x="303.89908"
       y="469.04172" />
    <path
       style="fill:none;stroke:#000000;stroke-width:1px;stroke-linecap:butt;stroke-linejoin:miter;stroke-opacity:1;display:inline;opacity:0"
       d="m 286.81697,447.06754 h -3 v 45 h 3"
       id="path5708"
       inkscape:connector-curvature="0"
       sodipodi:nodetypes="cccc" />
    <path
       style="fill:none;stroke:#000000;stroke-width:1px;stroke-linecap:butt;stroke-linejoin:miter;stroke-opacity:1;display:inline;opacity:0"
       d="m 341.75446,446.94254 h 3 v 45 h -3"
       id="path5708-8"
       inkscape:connector-curvature="0"
       sodipodi:nodetypes="cccc" />
  </g>
</svg>
