<?xml version="1.0" encoding="UTF-8" standalone="no"?>
<!-- Created with Inkscape (http://www.inkscape.org/) -->

<svg
   xmlns:dc="http://purl.org/dc/elements/1.1/"
   xmlns:cc="http://creativecommons.org/ns#"
   xmlns:rdf="http://www.w3.org/1999/02/22-rdf-syntax-ns#"
   xmlns:svg="http://www.w3.org/2000/svg"
   xmlns="http://www.w3.org/2000/svg"
   xmlns:xlink="http://www.w3.org/1999/xlink"
   xmlns:sodipodi="http://sodipodi.sourceforge.net/DTD/sodipodi-0.dtd"
   xmlns:inkscape="http://www.inkscape.org/namespaces/inkscape"
   width="48"
   height="48"
   id="svg2"
   version="1.1"
   inkscape:version="0.48.5 r10040"
   sodipodi:docname="removal.svg"
   viewBox="0 0 13.546666 13.546666"
   inkscape:export-filename="C:\_data\SVN\Dokumentation\hyperCAD-S TRUNK\media\icons\svg\omgview_manual2.png"
   inkscape:export-xdpi="90"
   inkscape:export-ydpi="90">
  <title
     id="title4142">Icon</title>
  <defs
     id="defs4">
    <linearGradient
       id="linearGradient4365-3">
      <stop
         style="stop-color:#ffffff;stop-opacity:1;"
         offset="0"
         id="stop4367-6" />
      <stop
         style="stop-color:#000000;stop-opacity:1;"
         offset="1"
         id="stop4369-2" />
    </linearGradient>
    <linearGradient
       id="linearGradient4365-3-1">
      <stop
         style="stop-color:#ffffff;stop-opacity:1;"
         offset="0"
         id="stop4367-6-6" />
      <stop
         style="stop-color:#000000;stop-opacity:1;"
         offset="1"
         id="stop4369-2-88" />
    </linearGradient>
    <radialGradient
       inkscape:collect="always"
       xlink:href="#linearGradient4365-3"
       id="radialGradient4032"
       gradientUnits="userSpaceOnUse"
       gradientTransform="matrix(0.82864209,-0.00835991,0.00911895,0.87859669,4.3053384,3.700133)"
       cx="26.649088"
       cy="28.64295"
       fx="26.649088"
       fy="28.64295"
       r="3.4397202" />
    <radialGradient
       inkscape:collect="always"
       xlink:href="#linearGradient4365-3-1"
       id="radialGradient4034"
       gradientUnits="userSpaceOnUse"
       gradientTransform="matrix(0.82864209,-0.00835991,0.00911895,0.87859669,4.3053384,3.700133)"
       cx="26.649088"
       cy="28.64295"
       fx="26.649088"
       fy="28.64295"
       r="3.4397202" />
  </defs>
  <sodipodi:namedview
     id="base"
     pagecolor="#ffffff"
     bordercolor="#666666"
     borderopacity="1.0"
     inkscape:pageopacity="0.0"
     inkscape:pageshadow="2"
     inkscape:zoom="6.4813686"
     inkscape:cx="-4.8407762"
     inkscape:cy="19.581665"
     inkscape:document-units="px"
     inkscape:current-layer="layer2"
     showgrid="true"
     units="px"
     showguides="true"
     inkscape:guide-bbox="true"
     inkscape:window-width="1680"
     inkscape:window-height="988"
     inkscape:window-x="-8"
     inkscape:window-y="-8"
     inkscape:window-maximized="1"
     inkscape:snap-global="false">
    <inkscape:grid
       type="xygrid"
       id="grid4144"
       empspacing="5"
       visible="true"
       enabled="true"
       snapvisiblegridlinesonly="true" />
  </sodipodi:namedview>
  <metadata
     id="metadata7">
    <rdf:RDF>
      <cc:Work
         rdf:about="">
        <dc:format>image/svg+xml</dc:format>
        <dc:type
           rdf:resource="http://purl.org/dc/dcmitype/StillImage" />
        <dc:title>Icon</dc:title>
        <dc:publisher>
          <cc:Agent>
            <dc:title>OPEN MIND</dc:title>
          </cc:Agent>
        </dc:publisher>
        <dc:creator>
          <cc:Agent>
            <dc:title>Technische Redaktion</dc:title>
          </cc:Agent>
        </dc:creator>
      </cc:Work>
    </rdf:RDF>
  </metadata>
  <g
     inkscape:groupmode="layer"
     id="layer2"
     inkscape:label="Ebene 2"
     transform="translate(0,9.031111)"
     style="display:inline">
    <g
       id="g3244">
      <rect
         y="-8.748889"
         x="0.28222221"
         height="12.7"
         width="12.982222"
         id="rect4319"
         style="color:#000000;fill:#ffffff;fill-opacity:1;fill-rule:evenodd;stroke:none;stroke-width:1;marker:none;visibility:visible;display:inline;overflow:visible;enable-background:accumulate" />
      <path
         sodipodi:nodetypes="cccccssssssssssssccccccccccczcccccccsc"
         inkscape:connector-curvature="0"
         id="rect4117"
         transform="matrix(0.28222221,0,0,0.28222221,0,-9.031111)"
         d="M 1,1 1,2 1,3 1,46 2,46 2,8 C 2,5.2385766 4.2385759,3.9257304 7,3.9257304 l 32.997125,0 c 2.761423,0 5,2.2385731 5,5 l 0,27.9999996 c 0,2.761423 -2.238577,5 -5,5 l -18.147135,0 c -2.761423,0 -5.848586,-2.238576 -5.848586,-5 l 0,-14.928605 c 0,-2.761423 2.238576,-5 5,-5 l 5,0 c 2.761423,0 5,2.238576 5,5 0,2.761423 -2.238576,5 -5,5 l 0,4.928605 5,0 2.997125,0 0,-3 0,-10 0,-5 -2.997125,0 -15,0 -4.001404,0 0,5 c 0,0 0,17.407603 0,22.07427 0,4.666667 0,5 0,5 l 5,0 29,0 1,0 0,-5 0,-38 0,-2 C 47,1 46.333333,1 46,1 31,1 1,1 1,1 z"
         style="color:#000000;fill:#000000;fill-opacity:1;fill-rule:evenodd;stroke:none;stroke-width:1;marker:none;visibility:visible;display:inline;overflow:visible;enable-background:accumulate" />
      <path
         transform="matrix(0.3228856,0,0,0.2902709,-5.3158167,-8.4561383)"
         d="m 43.929009,19.40637 c 0,2.416369 -1.76099,4.375223 -3.933281,4.375223 -2.172292,0 -3.933282,-1.958854 -3.933282,-4.375223 0,-2.416369 1.76099,-4.375223 3.933282,-4.375223 2.172291,0 3.933281,1.958854 3.933281,4.375223 z"
         sodipodi:ry="4.3752232"
         sodipodi:rx="3.9332814"
         sodipodi:cy="19.40637"
         sodipodi:cx="39.995728"
         id="path3236-4"
         style="color:#000000;fill:#000000;fill-opacity:1;fill-rule:evenodd;stroke:#ffffff;stroke-width:0.92186028;stroke-linecap:round;stroke-linejoin:round;stroke-miterlimit:4;stroke-opacity:1;stroke-dasharray:none;stroke-dashoffset:0;marker:none;visibility:visible;display:inline;overflow:visible;enable-background:accumulate"
         sodipodi:type="arc" />
    </g>
  </g>
</svg>
