<?xml version="1.0" encoding="UTF-8" standalone="no"?>
<!-- Created with Inkscape (http://www.inkscape.org/) -->

<svg
   xmlns:dc="http://purl.org/dc/elements/1.1/"
   xmlns:cc="http://creativecommons.org/ns#"
   xmlns:rdf="http://www.w3.org/1999/02/22-rdf-syntax-ns#"
   xmlns:svg="http://www.w3.org/2000/svg"
   xmlns="http://www.w3.org/2000/svg"
   xmlns:sodipodi="http://sodipodi.sourceforge.net/DTD/sodipodi-0.dtd"
   xmlns:inkscape="http://www.inkscape.org/namespaces/inkscape"
   width="102.6875"
   height="64"
   id="svg2"
   version="1.1"
   inkscape:version="0.48.5 r10040"
   sodipodi:docname="grob_siemens.svg">
  <defs
     id="defs4" />
  <sodipodi:namedview
     id="base"
     pagecolor="#ffffff"
     bordercolor="#666666"
     borderopacity="1.0"
     inkscape:pageopacity="0.0"
     inkscape:pageshadow="2"
     inkscape:zoom="3.959798"
     inkscape:cx="160.8392"
     inkscape:cy="50.662035"
     inkscape:document-units="px"
     inkscape:current-layer="layer1"
     showgrid="false"
     fit-margin-top="0"
     fit-margin-left="0"
     fit-margin-right="0"
     fit-margin-bottom="0"
     inkscape:window-width="1920"
     inkscape:window-height="1027"
     inkscape:window-x="1912"
     inkscape:window-y="-8"
     inkscape:window-maximized="1" />
  <metadata
     id="metadata7">
    <rdf:RDF>
      <cc:Work
         rdf:about="">
        <dc:format>image/svg+xml</dc:format>
        <dc:type
           rdf:resource="http://purl.org/dc/dcmitype/StillImage" />
        <dc:title></dc:title>
      </cc:Work>
    </rdf:RDF>
  </metadata>
  <g
     inkscape:label="Ebene 1"
     inkscape:groupmode="layer"
     id="layer1"
     transform="translate(1667.3438,-192.21875)">
    <rect
       style="fill:#b6b6b6;fill-opacity:1;fill-rule:evenodd;stroke:#f7f6f4;stroke-width:0.07938873;stroke-linecap:butt;stroke-linejoin:miter;stroke-miterlimit:4;stroke-opacity:1;stroke-dasharray:none;stroke-dashoffset:0"
       id="rect3789"
       width="102.57739"
       height="63.882721"
       x="-1667.2883"
       y="192.27942"
       rx="6.9358373"
       ry="6.9358373" />
    <rect
       style="fill:#b0cc22;fill-opacity:1;fill-rule:evenodd;stroke:none"
       id="rect3935"
       width="61.366764"
       height="62.250648"
       x="-1645.5209"
       y="193.25381"
       rx="0"
       ry="0" />
    <path
       style="fill:#fbffd8;fill-opacity:1;fill-rule:evenodd"
       id="path3875-8"
       d="m -1643.7445,224.29245 c 0,-15.95407 12.918,-28.87209 28.8721,-28.87209 15.954,0 28.8719,12.91802 28.8719,28.87209 0,15.95406 -12.9179,28.87208 -28.8719,28.87208 -15.9541,0 -28.8721,-12.91802 -28.8721,-28.87208 m 52.3268,14.10862 -46.8501,0 c 4.8219,7.9175 13.5134,13.21567 23.3954,13.21567 9.882,0 18.6329,-5.29817 23.4547,-13.21567 m -47.6834,-1.54778 48.5169,0 c 1.9645,-3.75039 3.0955,-8.03656 3.0955,-12.62038 0,-15.12064 -12.2631,-27.32429 -27.3242,-27.32429 -15.1207,0 -27.3244,12.26319 -27.3244,27.32429 -0.059,4.58382 1.0716,8.86999 3.0362,12.62038 m 19.8829,-6.7269 -3.8694,6.60784 -3.8099,-6.60784 z m -3.8694,4.40522 -1.905,-3.33368 3.81,0 z m 13.1562,-20.53786 -3.81,6.60783 -3.8099,-6.60783 z m -3.81,4.46474 -1.905,-3.33368 3.81,0 z m 9.2868,-13.98956 -7.6199,0 3.8098,-6.60784 1.905,3.33369 -0.5952,1.07153 -1.2501,-2.2026 -1.9051,3.27415 5.0601,0.0596 0.5954,1.07155 z m -6.0722,6.19113 -2.5598,-4.40522 0.6548,-1.13108 3.8101,6.60784 -7.6199,0 0.5952,-1.07154 z m -9.2866,11.66789 5.06,0 0.6549,-1.13107 -7.6794,0 3.8099,6.60784 0.5952,-1.07154 z m -4.822,3.86945 0.5358,-0.95247 5.7149,3.33369 -0.5358,0.95247 z m 39.4685,27.74101 -59.4111,0 z m 1.5477,1.54779 -62.447,0 z"
       class="st1"
       inkscape:connector-curvature="0"
       sodipodi:nodetypes="cssscccscccssccccccccccccccccccccccccccccccccccccccccccccccccccccc" />
  </g>
</svg>
