<?xml version="1.0" encoding="UTF-8"?>
<svg width="18cm" height="4.5cm" version="1.1" viewBox="0 0 180 45" xmlns="http://www.w3.org/2000/svg" xmlns:cc="http://creativecommons.org/ns#" xmlns:dc="http://purl.org/dc/elements/1.1/" xmlns:rdf="http://www.w3.org/1999/02/22-rdf-syntax-ns#" xmlns:xlink="http://www.w3.org/1999/xlink">
 <defs>
  <linearGradient id="linearGradient7747-2-1">
   <stop stop-color="#fff" offset="0"/>
   <stop stop-color="#808080" offset="1"/>
  </linearGradient>
  <linearGradient id="linearGradient17447-2" x1="191.34" x2="188.23" y1="20.682" y2="176.73" gradientTransform="matrix(.36296 0 0 .76108 -120.99 70.278)" gradientUnits="userSpaceOnUse" xlink:href="#linearGradient7747-2-1"/>
  <linearGradient id="linearGradient17447-1-3" x1="191.34" x2="188.23" y1="20.682" y2="176.73" gradientTransform="matrix(.24513 0 0 .43513 -97.806 94.478)" gradientUnits="userSpaceOnUse" xlink:href="#linearGradient7747-2-1"/>
  <linearGradient id="linearGradient17447-1-4-3" x1="191.34" x2="188.23" y1="20.682" y2="176.73" gradientTransform="matrix(.091661 0 0 .14407 -62.708 110.47)" gradientUnits="userSpaceOnUse" xlink:href="#linearGradient7747-2-1"/>
  <linearGradient id="linearGradient17447-1-4-6-6" x1="191.34" x2="188.23" y1="20.682" y2="176.73" gradientTransform="matrix(.091661 0 0 .14407 -66.114 120.54)" gradientUnits="userSpaceOnUse" xlink:href="#linearGradient7747-2-1"/>
  <linearGradient id="linearGradient17447-1-4-7-3" x1="191.34" x2="188.23" y1="20.682" y2="176.73" gradientTransform="matrix(.091661 0 0 .14407 -73.21 111.54)" gradientUnits="userSpaceOnUse" xlink:href="#linearGradient7747-2-1"/>
  <linearGradient id="linearGradient2968" x1="78.845" x2="92.01" y1="39.192" y2="39.192" gradientTransform="matrix(.3553 0 0 .52359 80.847 17.4)" gradientUnits="userSpaceOnUse" xlink:href="#linearGradient7747-2-1"/>
  <linearGradient id="linearGradient2970" x1="78.845" x2="92.01" y1="39.192" y2="39.192" gradientTransform="matrix(.3553 0 0 .52359 81.699 40.416)" gradientUnits="userSpaceOnUse" xlink:href="#linearGradient7747-2-1"/>
  <linearGradient id="linearGradient2972" x1="78.845" x2="92.01" y1="39.192" y2="39.192" gradientTransform="matrix(.3553 0 0 .52359 109.94 16.894)" gradientUnits="userSpaceOnUse" xlink:href="#linearGradient7747-2-1"/>
  <linearGradient id="linearGradient2974" x1="78.845" x2="92.01" y1="39.192" y2="39.192" gradientTransform="matrix(.3553 0 0 .52359 110.2 41.385)" gradientUnits="userSpaceOnUse" xlink:href="#linearGradient7747-2-1"/>
 </defs>
 <metadata>
  <rdf:RDF>
   <cc:Work rdf:about="">
    <dc:format>image/svg+xml</dc:format>
    <dc:type rdf:resource="http://purl.org/dc/dcmitype/StillImage"/>
    <dc:title/>
   </cc:Work>
  </rdf:RDF>
 </metadata>
 <g transform="translate(0 -96.413)" stroke-linecap="round" stroke-linejoin="round">
  <rect transform="matrix(-.0012486 -1 1 -.0031529 0 0)" x="-131.65" y="62.389" width="25.047" height="8.5247" fill="#00f" stroke="#000080" stroke-width=".5"/>
  <g transform="translate(-35.813 69.321)" stroke="#7d7d7d">
   <rect transform="matrix(-.0041603 -.99999 1 -.0009462 0 0)" x="-65.817" y="107.34" width="32.213" height="36.532" fill="url(#linearGradient17447-2)" stroke-width=".5"/>
   <rect transform="matrix(-.003522 -.99999 1 -.0011177 0 0)" x="-60.546" y="115.67" width="21.755" height="20.886" fill="url(#linearGradient17447-1-3)" stroke-width=".5"/>
   <rect transform="matrix(-.0031184 -1 1 -.0012624 0 0)" x="-48.776" y="117.49" width="8.1349" height="6.9151" fill="url(#linearGradient17447-1-4-3)" stroke-width=".5"/>
   <rect transform="matrix(-.0031184 -1 1 -.0012624 0 0)" x="-52.181" y="127.56" width="8.1349" height="6.9151" fill="url(#linearGradient17447-1-4-6-6)" stroke-width=".5"/>
   <rect transform="matrix(-.0031184 -1 1 -.0012624 0 0)" x="-59.278" y="118.55" width="8.1349" height="6.9151" fill="url(#linearGradient17447-1-4-7-3)" stroke-width=".5"/>
   <circle cx="111.2" cy="37.92" r="2.25" fill="url(#linearGradient2968)" fill-rule="evenodd" stop-color="#000000" stroke-width=".5" style="font-variation-settings:normal"/>
   <circle cx="112.05" cy="60.937" r="2.25" fill="url(#linearGradient2970)" fill-rule="evenodd" stop-color="#000000" stroke-width=".5" style="font-variation-settings:normal"/>
   <circle cx="140.29" cy="37.415" r="2.25" fill="url(#linearGradient2972)" fill-rule="evenodd" stop-color="#000000" stroke-width=".5" style="font-variation-settings:normal"/>
   <circle cx="140.55" cy="61.906" r="2.25" fill="url(#linearGradient2974)" fill-rule="evenodd" stop-color="#000000" stroke-width=".5" style="font-variation-settings:normal"/>
  </g>
  <rect transform="matrix(-.0012486 -1 1 -.0031529 0 0)" x="-131.96" y="161.29" width="25.047" height="8.5247" fill="#ff0" stroke="#fc0" stroke-width=".5"/>
  <g transform="matrix(-1 0 0 1 180.61 56.186)" stroke="#000">
   <path d="m13.842 62.677 3.3262-1.1087v2.3183z" stroke-width=".282"/>
   <path d="m14.225 62.727h57.507" stroke-width=".25"/>
   <path d="m76.137 62.727h57.507" stroke-dasharray="0.75, 0.75" stroke-width=".25"/>
   <path d="m137.13 62.677-3.3262-1.1087v2.3183z" fill="#fff" stroke-dasharray="0.846003, 0.846003" stroke-width=".282"/>
  </g>
  <rect transform="matrix(-.0012486 -1 1 -.0031529 0 0)" x="-131.79" y="108.54" width="25.047" height="8.5247" fill="none" stroke="#fc0" stroke-dasharray="2, 0.999998" stroke-width=".5"/>
  <g transform="matrix(-1 0 0 1 185.32 95.537)" fill="#f00" stroke="#f00">
   <path d="m59.948 18.333-28.069 0.05623" stroke-width=".25"/>
   <path d="m61.767 18.33-3.3086 1.1602-0.03595-2.318z" stroke-width=".282"/>
   <ellipse transform="matrix(.9993 -.037301 .032652 .99947 0 0)" cx="31.158" cy="19.548" rx=".33696" ry=".33685" stroke-width=".32619"/>
  </g>
 </g>
</svg>
