<?xml version="1.0" encoding="UTF-8" standalone="no"?>
<!-- Created with Inkscape (http://www.inkscape.org/) -->

<svg
   width="48"
   height="48"
   viewBox="0 0 32 32"
   version="1.1"
   id="svg8"
   inkscape:version="1.2.2 (732a01da63, 2022-12-09)"
   sodipodi:docname="Toolbar_Customer01.svg"
   inkscape:export-filename="Toolbar_Customer01.png"
   inkscape:export-xdpi="96"
   inkscape:export-ydpi="96"
   xmlns:inkscape="http://www.inkscape.org/namespaces/inkscape"
   xmlns:sodipodi="http://sodipodi.sourceforge.net/DTD/sodipodi-0.dtd"
   xmlns="http://www.w3.org/2000/svg"
   xmlns:svg="http://www.w3.org/2000/svg"
   xmlns:rdf="http://www.w3.org/1999/02/22-rdf-syntax-ns#"
   xmlns:cc="http://creativecommons.org/ns#"
   xmlns:dc="http://purl.org/dc/elements/1.1/">
  <defs
     id="defs2" />
  <sodipodi:namedview
     id="base"
     pagecolor="#ffffff"
     bordercolor="#666666"
     borderopacity="1.0"
     inkscape:pageopacity="0.0"
     inkscape:pageshadow="2"
     inkscape:zoom="15.839192"
     inkscape:cx="4.8929264"
     inkscape:cy="28.000166"
     inkscape:document-units="px"
     inkscape:current-layer="layer1"
     showgrid="true"
     fit-margin-top="0"
     fit-margin-left="0"
     fit-margin-right="0"
     fit-margin-bottom="0"
     units="px"
     inkscape:window-width="2400"
     inkscape:window-height="1261"
     inkscape:window-x="-9"
     inkscape:window-y="-9"
     inkscape:window-maximized="1"
     inkscape:showpageshadow="2"
     inkscape:pagecheckerboard="true"
     inkscape:deskcolor="#d1d1d1">
    <inkscape:grid
       type="xygrid"
       id="grid291"
       originx="0"
       originy="0" />
  </sodipodi:namedview>
  <metadata
     id="metadata5">
    <rdf:RDF>
      <cc:Work
         rdf:about="">
        <dc:format>image/svg+xml</dc:format>
        <dc:type
           rdf:resource="http://purl.org/dc/dcmitype/StillImage" />
      </cc:Work>
    </rdf:RDF>
  </metadata>
  <g
     inkscape:label="Ebene 1"
     inkscape:groupmode="layer"
     id="layer1"
     transform="translate(428.17142,115.29642)">
    <path
       id="rect345"
       style="fill:#ffffff;fill-opacity:1;stroke:#000000;stroke-width:0.999999;stroke-linecap:round;stroke-linejoin:round;stroke-dasharray:none;paint-order:markers fill stroke"
       d="m -426.67142,-113.7964 v 9.21182 l 1.9174,-1.96697 2.01265,2.06738 v -5.38215 h 4.3639 l 2.0352,-1.92191 -2.12788,-2.00817 z m 11.35645,0 2.06352,2.00879 -1.96955,1.92126 h 13.61949 v 4.21071 l 1.96505,2.34416 1.96504,-2.34416 v -8.1408 z m 13.71346,19.728956 v 5.340953 h -4.4347 l -2.1562,2.033914 2.00945,1.896174 h 8.51154 v -9.271041 l -1.96504,2.066658 z m -23.15314,-1.485529 -1.91677,2.031339 v 8.725231 h 17.33203 l -1.94251,-1.895529 2.09055,-2.034557 h -13.54998 v -4.693447 z"
       sodipodi:nodetypes="cccccccccccccccccccccccccccccccccccc" />
    <path
       style="fill:#ffffff;fill-opacity:1;stroke:#000000;stroke-width:0.999999;stroke-linecap:round;stroke-linejoin:round;stroke-dasharray:none;stroke-opacity:1"
       d="m -426.67142,-101.93277 1.97727,-1.97727 1.97728,1.97727 v 5.931821 l -1.97728,-1.977273 -1.97727,1.977273 z"
       id="path1809"
       sodipodi:nodetypes="ccccccc" />
    <path
       style="fill:#ffffff;fill-opacity:1;stroke:#000000;stroke-width:0.999999;stroke-linecap:round;stroke-linejoin:round;stroke-dasharray:none;stroke-opacity:1"
       d="m -401.62596,-96.725799 1.97727,1.977273 1.97727,-1.977273 v -5.931821 l -1.97727,1.97728 -1.97727,-1.97728 z"
       id="path1809-5"
       sodipodi:nodetypes="ccccccc" />
    <g
       aria-label="C1"
       id="text2114"
       style="font-weight:bold;font-size:21.3333px;font-family:'Yu Gothic UI';-inkscape-font-specification:'Yu Gothic UI Bold';stroke:#000000;stroke-width:1.5;stroke-linecap:round;stroke-linejoin:round"
       transform="matrix(0.66666667,0,0,0.66666667,-120.24105,-40.758659)">
      <g
         id="path2143"
         style="stroke-width:1.5">
        <path
           style="color:#000000;-inkscape-font-specification:'Yu Gothic UI Bold';fill:#000000;stroke:none;stroke-width:1.5;stroke-linecap:butt;stroke-linejoin:miter;-inkscape-stroke:none"
           d="m -435.91102,-80.921416 q -1.6875,0.874998 -4.19791,0.874998 -3.24999,0 -5.20833,-2.05208 -1.95833,-2.05208 -1.95833,-5.385408 0,-3.583328 2.19792,-5.791657 2.20833,-2.20833 5.57291,-2.20833 2.16666,0 3.59374,0.614582 v 2.45833 q -1.51041,-0.895832 -3.33333,-0.895832 -2.42708,0 -3.93749,1.552081 -1.5,1.55208 -1.5,4.145826 0,2.468746 1.40625,3.937494 1.40625,1.458331 3.69791,1.458331 2.11458,0 3.66666,-0.999998 z"
           id="path2150" />
        <path
           style="color:#000000;-inkscape-font-specification:'Yu Gothic UI Bold';fill:#000000;stroke:none;stroke-width:1.5;stroke-linecap:butt;stroke-linejoin:miter;-inkscape-stroke:none"
           d="m -439.50391,-95.984375 c -2.35244,0 -4.36573,0.793472 -5.92773,2.355469 -1.56067,1.568057 -2.34375,3.653419 -2.34375,6.144531 0,2.320133 0.6968,4.264596 2.0957,5.730469 1.40094,1.467992 3.29842,2.207031 5.57032,2.207031 1.73169,0 3.21278,-0.299716 4.42773,-0.929687 a 0.50005,0.50005 0 0 0 0.27148,-0.445313 v -2.291016 a 0.50005,0.50005 0 0 0 -0.77148,-0.419921 c -0.94781,0.61067 -2.06558,0.919921 -3.39648,0.919921 -1.42106,0 -2.49282,-0.430972 -3.33594,-1.304687 -0.84072,-0.878086 -1.26758,-2.040905 -1.26758,-3.591797 0,-1.632777 0.4561,-2.864189 1.35937,-3.798828 0.91328,-0.93743 2.06774,-1.398438 3.57813,-1.398438 1.13337,0 2.14709,0.273974 3.07812,0.826172 a 0.50005,0.50005 0 0 0 0.75586,-0.429687 v -2.458985 a 0.50005,0.50005 0 0 0 -0.30273,-0.458984 c -1.03581,-0.446081 -2.2993,-0.65625 -3.79102,-0.65625 z m 0,1 c 1.27337,0 2.26083,0.211281 3.09375,0.523438 v 1.300781 c -0.88621,-0.391289 -1.82231,-0.646485 -2.83398,-0.646485 -1.72463,0 -3.19658,0.572474 -4.29688,1.703125 a 0.50005,0.50005 0 0 0 0,0.002 c -1.09672,1.134799 -1.64062,2.666639 -1.64062,4.492187 0,1.740766 0.51064,3.20296 1.54492,4.283203 a 0.50005,0.50005 0 0 0 0.002,0.002 c 1.03171,1.069912 2.42281,1.611328 4.05665,1.611328 1.17543,0 2.21549,-0.288791 3.16796,-0.738281 v 1.140625 c -1.00057,0.467946 -2.19334,0.763672 -3.69921,0.763672 -2.06143,0 -3.63552,-0.628372 -4.84571,-1.896484 -1.2122,-1.270232 -1.82031,-2.916716 -1.82031,-5.041016 0,-2.286654 0.68284,-4.061122 2.05273,-5.4375 1.38223,-1.38163 3.08571,-2.0625 5.21875,-2.0625 z"
           id="path2152" />
      </g>
      <g
         id="path2145"
         style="stroke-width:1.5">
        <path
           style="color:#000000;-inkscape-font-specification:'Yu Gothic UI Bold';fill:#000000;stroke:none;stroke-width:1.5;stroke-linecap:butt;stroke-linejoin:miter;-inkscape-stroke:none"
           d="m -428.5152,-95.567226 v 15.270809 h -2.41666 v -12.312481 q -0.65625,0.468749 -1.41667,0.802082 -0.74999,0.322916 -1.71874,0.572916 v -2.062497 q 0.60416,-0.197916 1.16666,-0.416666 0.5625,-0.218749 1.10417,-0.489582 0.55208,-0.270833 1.10416,-0.604166 0.5625,-0.333333 1.15625,-0.760415 z"
           id="path2156" />
        <path
           style="color:#000000;-inkscape-font-specification:'Yu Gothic UI Bold';fill:#000000;stroke:none;stroke-width:1.5;stroke-linecap:butt;stroke-linejoin:miter;-inkscape-stroke:none"
           d="m -429.53516,-96.066406 a 0.50005,0.50005 0 0 0 -0.29296,0.09375 c -0.38513,0.277022 -0.75834,0.522516 -1.11915,0.736328 a 0.50005,0.50005 0 0 0 -0.004,0.002 c -0.35622,0.215075 -0.71201,0.408174 -1.06641,0.582031 a 0.50005,0.50005 0 0 0 -0.002,0.002 c -0.34735,0.173676 -0.70194,0.330485 -1.0625,0.470704 -0.36612,0.142378 -0.74602,0.278933 -1.14063,0.408203 a 0.50005,0.50005 0 0 0 -0.34375,0.474609 v 2.0625 a 0.50005,0.50005 0 0 0 0.625,0.484375 c 0.66604,-0.171881 1.26225,-0.36999 1.79102,-0.597656 a 0.50005,0.50005 0 0 0 0.002,-0.002 c 0.25541,-0.111961 0.47722,-0.270274 0.7168,-0.404297 v 11.457031 a 0.50005,0.50005 0 0 0 0.5,0.5 h 2.41602 a 0.50005,0.50005 0 0 0 0.5,-0.5 v -15.269531 a 0.50005,0.50005 0 0 0 -0.5,-0.5 z m 0.14649,1 h 0.37305 v 14.269531 h -1.41602 v -11.8125 a 0.50005,0.50005 0 0 0 -0.79102,-0.40625 c -0.40878,0.29199 -0.84971,0.541144 -1.32617,0.75 -0.2918,0.125569 -0.66641,0.229716 -1.01758,0.339844 v -1.017578 c 0.28636,-0.09864 0.57495,-0.196682 0.84766,-0.302735 0.38808,-0.15092 0.76896,-0.321153 1.14258,-0.507812 l 0.004,-0.002 c 0.37915,-0.186139 0.75742,-0.393402 1.13477,-0.621094 l 0.004,-0.002 c 0.34082,-0.20211 0.69084,-0.438003 1.04492,-0.6875 z"
           id="path2158" />
      </g>
    </g>
  </g>
</svg>
