<?xml version="1.0" encoding="UTF-8"?>
<svg width="18cm" height="12cm" version="1.1" viewBox="0 0 180 120" xmlns="http://www.w3.org/2000/svg" xmlns:cc="http://creativecommons.org/ns#" xmlns:dc="http://purl.org/dc/elements/1.1/" xmlns:rdf="http://www.w3.org/1999/02/22-rdf-syntax-ns#">
 <metadata>
  <rdf:RDF>
   <cc:Work rdf:about="">
    <dc:format>image/svg+xml</dc:format>
    <dc:type rdf:resource="http://purl.org/dc/dcmitype/StillImage"/>
    <dc:title/>
   </cc:Work>
  </rdf:RDF>
 </metadata>
 <path d="m31.991 5.3964c11.424 31.759 36.953 23.518 63.977 12.74s55.542-24.093 72.943-2.4817" fill="none" stroke="#b3b3b3" stroke-dasharray="0.264583, 0.529167" stroke-width=".26458"/>
 <path d="m31.991 3.8354h137.37v23.861h-137.37z" fill="none" stroke="#b3b3b3" stroke-dasharray="0.264583, 0.529167" stroke-width=".26458"/>
 <path d="m31.991 35.559c11.424 31.759 36.953 23.518 63.977 12.74s55.542-24.093 72.943-2.4817" fill="none" stroke="#b3b3b3" stroke-dasharray="0.264583, 0.529167" stroke-width=".26458"/>
 <path d="m31.991 33.998h137.37v23.861h-137.37z" fill="none" stroke="#b3b3b3" stroke-dasharray="0.264583, 0.529167" stroke-width=".26458"/>
 <path d="m31.991 65.721c11.424 31.759 36.953 23.518 63.977 12.74s55.542-24.093 72.943-2.4817" fill="none" stroke="#b3b3b3" stroke-dasharray="0.264583, 0.529167" stroke-width=".26458"/>
 <path d="m31.991 64.16h137.37v23.861h-137.37z" fill="none" stroke="#b3b3b3" stroke-dasharray="0.264583, 0.529167" stroke-width=".26458"/>
 <path d="m31.991 94.296c11.424 31.759 36.953 23.518 63.977 12.74s55.542-24.094 72.943-2.4818" fill="none" stroke="#b3b3b3" stroke-dasharray="0.264583, 0.529167" stroke-width=".26458"/>
 <path d="m31.991 92.735h137.37v23.861h-137.37z" fill="none" stroke="#b3b3b3" stroke-dasharray="0.264583, 0.529167" stroke-width=".26458"/>
 <ellipse transform="matrix(.9993 -.037301 .032652 .99947 0 0)" cx="31.728" cy="5.0451" rx="1.4002" ry="1.3998" fill="#fff" stroke="#000" stroke-linecap="round" stroke-linejoin="round" stroke-width=".2"/>
 <ellipse transform="matrix(.9993 -.037301 .032652 .99947 0 0)" cx="29.918" cy="58.994" rx="1.4002" ry="1.3998" fill="#fff" stroke="#000" stroke-linecap="round" stroke-linejoin="round" stroke-width=".2"/>
 <ellipse transform="matrix(.9993 -.037301 .032652 .99947 0 0)" cx="167.42" cy="70.376" rx="1.4002" ry="1.3998" fill="#fff" stroke="#000" stroke-linecap="round" stroke-linejoin="round" stroke-width=".2"/>
 <ellipse transform="matrix(.9993 -.037301 .032652 .99947 0 0)" cx="165.47" cy="122.92" rx="1.4002" ry="1.3998" fill="#fff" stroke="#000" stroke-linecap="round" stroke-linejoin="round" stroke-width=".2"/>
 <g transform="matrix(.26458 0 0 .26458 -30.4 22.011)" stroke-linecap="round" stroke-linejoin="round" stroke-width="1.8898">
  <g transform="rotate(-59.09 134.78 172.55)" fill="#0f0" stroke="#0f0">
   <path d="m185 157.63-20.618 6.4323 5.206 8.707z"/>
   <path d="m174.2 164.03-29.443 17.393"/>
  </g>
  <g transform="rotate(-28.115 122.25 169.14)" fill="#f00" stroke="#f00">
   <path d="m183.96 202.91-21.046-5.4965 4.778-8.9428c8.316 6.877 16.268 14.439 16.268 14.439z"/>
   <path d="m173.54 197.43-28.882-15.871"/>
  </g>
 </g>
</svg>
