<?xml version="1.0" encoding="UTF-8"?>
<svg width="18cm" height="5.5cm" overflow="visible" version="1.0" viewBox="11 -95.238 680.31 207.87" xmlns="http://www.w3.org/2000/svg" xmlns:cc="http://creativecommons.org/ns#" xmlns:dc="http://purl.org/dc/elements/1.1/" xmlns:rdf="http://www.w3.org/1999/02/22-rdf-syntax-ns#" xmlns:xlink="http://www.w3.org/1999/xlink">
 <metadata>
  <rdf:RDF>
   <cc:Work rdf:about="">
    <dc:format>image/svg+xml</dc:format>
    <dc:type rdf:resource="http://purl.org/dc/dcmitype/StillImage"/>
    <dc:title/>
   </cc:Work>
  </rdf:RDF>
 </metadata>
 <defs>
  <linearGradient id="linearGradient7747-2-1">
   <stop stop-color="#fff" offset="0"/>
   <stop stop-color="#808080" offset="1"/>
  </linearGradient>
  <linearGradient id="linearGradient1178" x1="120.59" x2="240.57" y1="-61.441" y2="131.74" gradientTransform="matrix(.79271 0 0 .79271 4.3968 -13.275)" gradientUnits="userSpaceOnUse" xlink:href="#linearGradient7747-2-1"/>
  <linearGradient id="linearGradient2249" x1="118.89" x2="118.89" y1="111.82" y2="-54.94" gradientUnits="userSpaceOnUse">
   <stop stop-color="#008080" offset="0"/>
   <stop stop-color="#008080" stop-opacity="0" offset="1"/>
  </linearGradient>
 </defs>
 <g transform="matrix(.2917 0 0 .28875 182.71 -41.795)" fill="#1f638a" stroke="#1f638a" stroke-linecap="round" stroke-linejoin="round" stroke-width="1.3023">
  <path d="m207.49 126.25 34.17 21.614-34.17 21.614z"/>
  <rect x="172.19" y="137.99" width="39.213" height="19.761"/>
 </g>
 <path d="m118.6 63.554 0.0388 18.9c31.511-23.617 63.022-47.235 94.531-70.852-0.0133-6.3-0.0259-12.6-0.0388-18.9-31.511 23.617-63.022 47.235-94.531 70.852z" color="#260000" fill="url(#linearGradient1178)" stroke="#7d7d7d" stroke-linecap="round" stroke-linejoin="round" stroke-width=".75591"/>
 <path d="m118.6 63.554 0.0388 18.9c-31.392-23.651-62.784-47.301-94.174-70.951-0.013-6.3-0.025842-12.6-0.038763-18.9 31.392 23.651 62.784 47.301 94.174 70.951z" color="#260000" fill="url(#linearGradient1178)" stroke="#7d7d7d" stroke-linecap="round" stroke-linejoin="round" stroke-width=".75591"/>
 <g fill="url(#linearGradient2249)" stroke="#008080" stroke-linecap="round" stroke-linejoin="round" stroke-width=".75591">
  <path d="m105.4-45.35c5e-3 2.52 0.0103 5.04 0.0155 7.56l-40.514 30.366c-0.0052-2.52-0.0103-5.04-0.01548-7.56 13.505-10.122 27.009-20.243 40.514-30.366z" color="#260000"/>
  <path d="m132.36-45.336c13.454 10.136 26.908 20.272 40.362 30.408 6e-3 2.52 0.01 5.04 0.0155 7.56-13.454-10.136-26.908-20.272-40.362-30.408-6e-3 -2.52-0.0107-5.04-0.0155-7.56z" color="#260000"/>
  <path d="m118.96-78.25c-31.511 23.617-63.023 47.236-94.531 70.853 31.392 23.651 62.784 47.3 94.174 70.951 31.511-23.617 63.023-47.234 94.531-70.852-31.392-23.651-62.784-47.302-94.174-70.952zm-0.065 23.31c5.7803 0.0017 11.558 1.6881 16.168 5.0597 13.454 10.136 26.906 20.27 40.36 30.406 1.6788 1.2666 3.1765 2.7915 4.3305 4.555 4.608 6.3772 1.8993 15.588-4.3909 19.754-13.505 10.122-27.008 20.244-40.513 30.366-9.2303 6.7189-23.124 6.7306-32.351-0.01703-13.454-10.136-26.908-20.272-40.362-30.408-1.6788-1.2667-3.1749-2.7915-4.3289-4.555-4.608-6.3773-1.8993-15.588 4.3909-19.754 13.505-10.122 27.008-20.243 40.513-30.365 4.6189-3.3617 10.402-5.0445 16.182-5.0427z" color="#260000"/>
  <path id="AA" d="m67.605-2.8778c-2.05 1.5274-3.7125 3.6878-4.275 6.2175"/>
  <path id="AC" d="m64.909-7.425c0.11638 1.7973 1.3331 3.4544 2.6958 4.5472"/>
  <path id="AF" d="m174.27 3.3204c-0.56434-2.494-2.206-4.6323-4.2262-6.1445"/>
  <path d="m177.56-1.2203c-0.94443-2.4741-2.7149-4.5696-4.8163-6.1487"/>
  <path d="m172.74-7.3686c-0.10995 1.7981-1.3309 3.4557-2.6958 4.5444"/>
  <path d="m105.42-37.79c0.11636 1.7974 1.333 3.4543 2.6958 4.5472 6.1684-4.4844 15.409-4.4863 21.566 0.01136 1.365-1.0887 2.5859-2.7464 2.6958-4.5444-7.6823-5.6196-19.262-5.6175-26.958-0.01421z"/>
  <path d="m64.909-7.425c-0.0048-2.52-0.01031-5.04-0.01546-7.56-3.2146 2.3678-5.6425 6.0771-5.6088 10.175-4e-3 1.2733 0.27073 2.4972 0.74525 3.6322 0.94475-2.5251 2.7421-4.6493 4.879-6.2472z" color="#260000"/>
  <path d="m172.73-14.929c3.175 2.3481 5.5777 6.0329 5.5578 10.082 8e-3 1.1815-0.31432 2.5529-0.72611 3.6261-0.94443-2.4741-2.7149-4.5696-4.8162-6.1487-6e-3 -2.52-0.0103-5.04-0.0155-7.56z" color="#260000"/>
  <path d="m105.42-37.79c-13.505 10.122-27.009 20.243-40.514 30.366 0.11638 1.7973 1.3331 3.4544 2.6958 4.5472l40.514-30.366c-1.3628-1.0929-2.5795-2.7498-2.6958-4.5472z" color="#260000"/>
  <path d="m170.05-2.8239c1.365-1.0887 2.5858-2.7463 2.6958-4.5444-13.454-10.136-26.908-20.272-40.362-30.408-0.10994 1.7981-1.3309 3.4557-2.6958 4.5444 13.454 10.136 26.908 20.272 40.362 30.408z" color="#260000"/>
  <path d="m105.42-37.79c-6e-3 -2.52-0.0107-5.04-0.0155-7.56 7.6967-5.6033 19.276-5.6053 26.958 0.01422 5e-3 2.5199 0.0103 5.0399 0.0155 7.56-7.6823-5.6196-19.262-5.6175-26.958-0.01422z"/>
  <path d="m67.607-2.8731c-1.3627-1.0928-2.5795-2.7498-2.6958-4.5472-2.137 1.5979-3.9342 3.7222-4.881 6.2424 0.72273 1.7306 1.9089 3.2755 3.3055 4.5283 0.55889-2.5357 2.2214-4.6962 4.2714-6.2235z"/>
  <path d="m173.09 4.3002c-13.505 10.121-27.009 20.243-40.514 30.365-7.9063 5.7053-19.867 5.7203-27.772-0.01078-13.454-10.136-26.908-20.272-40.362-30.408-0.38011-0.2821-0.75045-0.58451-1.1058-0.90726 0.56358-2.5315 2.2261-4.6919 4.2761-6.2193 13.505-10.122 27.009-20.243 40.514-30.366 6.1683-4.4843 15.409-4.4862 21.566 0.01134 13.454 10.136 26.908 20.272 40.362 30.408 2.0203 1.5122 3.6619 3.6504 4.2325 6.1415-0.38025 0.3489-0.78346 0.67897-1.1979 0.98502z"/>
  <path d="m169.99-2.9151c1.3628-1.0928 2.5795-2.7498 2.6958-4.5472 2.137 1.5979 3.9342 3.7222 4.881 6.2424-0.72273 1.7306-1.9089 3.2755-3.3055 4.5283-0.55889-2.5357-2.2214-4.6962-4.2714-6.2235z"/>
  <path d="m105.41-45.35c-0.11636-1.7974-1.3331-3.4543-2.6958-4.5472 9.2374-6.7234 23.13-6.7262 32.35 0.01695-1.3649 1.0886-2.5859 2.7463-2.6958 4.5444-7.6823-5.6195-19.262-5.6175-26.958-0.01421z"/>
  <path d="m64.437 4.2487c13.454 10.136 26.908 20.272 40.362 30.408-0.7349-0.48599-1.6941 0.09481-2.2982 0.52851-13.454-10.136-26.908-20.272-40.362-30.408 0.60404-0.43366 1.5633-1.0145 2.2981-0.52852z" color="#260000"/>
  <path d="m64.437 4.2487c-2.8554-2.1194-5.1601-5.3835-5.1498-9.0583-0.03369-4.0979 2.3941-7.8072 5.6087-10.175-0.11638-1.7974-1.333-3.4543-2.6958-4.5472-6.2902 4.1666-8.9988 13.378-4.3907 19.755 1.154 1.7635 2.6507 3.2876 4.3295 4.5545 0.60406-0.43366 1.5633-1.0145 2.2982-0.52848z"/>
  <path id="ID_9E" d="m179.75-14.919c-1.154-1.7635-2.6507-3.2876-4.3294-4.5543-1.365 1.0887-2.5859 2.7463-2.6958 4.5444 3.175 2.3481 5.5777 6.0329 5.5578 10.082 0.0251 3.7154-2.3139 7.0147-5.2035 9.1487 0.73116-0.4806 1.6819 0.10309 2.2803 0.53414 6.2902-4.1667 8.9988-13.378 4.3906-19.755z"/>
  <path d="m104.79 34.656c-0.73489-0.48599-1.6941 0.09482-2.2981 0.52852 9.2271 6.7474 23.119 6.7356 32.35 0.01692-0.59836-0.43108-1.5492-1.0147-2.2802-0.53467-7.9062 5.7053-19.867 5.7203-27.772-0.01076z"/>
  <path d="m102.71-49.897c1.3627 1.0928 2.5795 2.7498 2.6958 4.5472-13.505 10.122-27.009 20.243-40.514 30.366-0.11637-1.7974-1.333-3.4543-2.6958-4.5471 13.505-10.122 27.009-20.243 40.514-30.366z" color="#260000"/>
  <path d="m135.06-49.881c-1.3649 1.0887-2.5859 2.7463-2.6958 4.5444l40.362 30.408c0.10995-1.7981 1.3309-3.4557 2.6958-4.5444-13.454-10.136-26.908-20.272-40.362-30.408z" color="#260000"/>
  <path d="m173.09 4.3026c-13.505 10.122-27.009 20.243-40.514 30.366 0.73109-0.48057 1.6819 0.10313 2.2802 0.53417l40.514-30.366c-0.59838-0.43104-1.5491-1.0147-2.2802-0.53418z" color="#260000"/>
 </g>
 <path d="m639.2 4.3002c-13.505 10.121-27.009 20.243-40.514 30.365-7.9063 5.7053-19.867 5.7203-27.772-0.01078-13.454-10.136-26.908-20.272-40.362-30.408-0.38011-0.2821-0.75045-0.58451-1.1058-0.90726 0.56358-2.5315 2.2261-4.6919 4.2761-6.2193 13.505-10.122 27.009-20.243 40.514-30.366 6.1683-4.4843 15.409-4.4862 21.566 0.01134 13.454 10.136 26.908 20.272 40.362 30.408 2.0203 1.5122 3.6619 3.6504 4.2325 6.1415-0.38025 0.3489-0.78346 0.67897-1.1979 0.98502z" fill="#00f" stroke="#000080" stroke-linecap="round" stroke-linejoin="round" stroke-width=".75591"/>
 <path d="m571.52-45.35c5e-3 2.52 0.0103 5.04 0.0155 7.56l-40.514 30.366c-5e-3 -2.52-0.0103-5.04-0.0154-7.56 13.505-10.122 27.009-20.243 40.514-30.366z" color="#260000" fill="#00f" stroke="#000080" stroke-linecap="round" stroke-linejoin="round" stroke-width=".75591"/>
 <path d="m598.48-45.336c13.454 10.136 26.908 20.272 40.362 30.408 6e-3 2.52 0.01 5.04 0.0155 7.56-13.454-10.136-26.908-20.272-40.362-30.408-6e-3 -2.52-0.0107-5.04-0.0155-7.56z" color="#260000" fill="#00f" stroke="#000080" stroke-linecap="round" stroke-linejoin="round" stroke-width=".75591"/>
 <path d="m585.07-78.25c-31.511 23.617-63.023 47.236-94.531 70.853 31.392 23.651 62.784 47.3 94.174 70.951 31.511-23.617 63.023-47.234 94.531-70.852-31.392-23.651-62.784-47.302-94.174-70.952zm-0.065 23.31c5.7803 0.0017 11.558 1.6881 16.168 5.0597 13.454 10.136 26.906 20.27 40.36 30.406 1.6788 1.2666 3.1765 2.7915 4.3305 4.555 4.608 6.3772 1.8993 15.588-4.3909 19.754-13.505 10.122-27.008 20.244-40.513 30.366-9.2303 6.7189-23.124 6.7306-32.351-0.01703-13.454-10.136-26.908-20.272-40.362-30.408-1.6788-1.2667-3.1749-2.7915-4.3289-4.555-4.608-6.3773-1.8992-15.588 4.3909-19.754 13.505-10.122 27.008-20.243 40.513-30.365 4.6189-3.3617 10.402-5.0445 16.182-5.0427z" color="#260000" fill="#ff0" stroke="#fc0" stroke-linecap="round" stroke-linejoin="round" stroke-width=".75591"/>
 <path d="m533.72-2.8778c-2.05 1.5274-3.7125 3.6878-4.275 6.2175" fill="#00f" stroke="#000080" stroke-linecap="round" stroke-linejoin="round" stroke-width=".75591"/>
 <path d="m531.03-7.425c0.11638 1.7973 1.3331 3.4544 2.6958 4.5472" fill="#00f" stroke="#000080" stroke-linecap="round" stroke-linejoin="round" stroke-width=".75591"/>
 <path d="m640.39 3.3204c-0.56434-2.494-2.206-4.6323-4.2262-6.1445" fill="#00f" stroke="#000080" stroke-linecap="round" stroke-linejoin="round" stroke-width=".75591"/>
 <path d="m643.67-1.2203c-0.94443-2.4741-2.7149-4.5696-4.8163-6.1487" fill="#00f" stroke="#000080" stroke-linecap="round" stroke-linejoin="round" stroke-width=".75591"/>
 <path d="m638.86-7.3686c-0.10995 1.7981-1.3309 3.4557-2.6958 4.5444" fill="#00f" stroke="#000080" stroke-linecap="round" stroke-linejoin="round" stroke-width=".75591"/>
 <path d="m531.03-7.425c-5e-3 -2.52-0.0103-5.04-0.0155-7.56-3.2146 2.3678-5.6425 6.0771-5.6088 10.175-4e-3 1.2733 0.27073 2.4972 0.74525 3.6322 0.94476-2.5251 2.7421-4.6493 4.8791-6.2472z" color="#260000" fill="#00f" stroke="#000080" stroke-linecap="round" stroke-linejoin="round" stroke-width=".75591"/>
 <path d="m638.84-14.929c3.175 2.3481 5.5777 6.0329 5.5578 10.082 8e-3 1.1815-0.31432 2.5529-0.72611 3.6261-0.94443-2.4741-2.7149-4.5696-4.8162-6.1487-6e-3 -2.52-0.0103-5.04-0.0155-7.56z" color="#260000" fill="#00f" stroke="#000080" stroke-linecap="round" stroke-linejoin="round" stroke-width=".75591"/>
 <path d="m571.53-37.79c-13.505 10.122-27.009 20.243-40.514 30.366 0.11638 1.7973 1.3331 3.4544 2.6958 4.5472l40.514-30.366c-1.3628-1.0929-2.5795-2.7498-2.6958-4.5472z" color="#260000" fill="#f00" stroke="#800000" stroke-linecap="round" stroke-linejoin="round" stroke-width=".75591"/>
 <path d="m636.16-2.8239c1.365-1.0887 2.5858-2.7463 2.6958-4.5444-13.454-10.136-26.908-20.272-40.362-30.408-0.10994 1.7981-1.3309 3.4557-2.6958 4.5444 13.454 10.136 26.908 20.272 40.362 30.408z" color="#260000" fill="#f00" stroke="#800000" stroke-linecap="round" stroke-linejoin="round" stroke-width=".75591"/>
 <path d="m571.53-37.79c-6e-3 -2.52-0.0107-5.04-0.0155-7.56 7.6967-5.6033 19.276-5.6053 26.958 0.01422 5e-3 2.5199 0.0103 5.0399 0.0154 7.56-7.6823-5.6196-19.262-5.6175-26.958-0.01422z" fill="#00f" stroke="#000080" stroke-linecap="round" stroke-linejoin="round" stroke-width=".75591"/>
 <path d="m584.72 63.554 0.0388 18.9c31.511-23.617 63.022-47.235 94.531-70.852-0.01332-6.3-0.02592-12.6-0.03884-18.9-31.511 23.617-63.022 47.235-94.531 70.852z" color="#260000" fill="#0f0" stroke="#008000" stroke-linecap="round" stroke-linejoin="round" stroke-width=".75591"/>
 <path d="m584.72 63.554 0.0388 18.9c-31.392-23.651-62.784-47.301-94.174-70.951-0.013-6.3-0.0258-12.6-0.0388-18.9 31.392 23.651 62.784 47.301 94.174 70.951z" color="#260000" fill="#0f0" stroke="#008000" stroke-linecap="round" stroke-linejoin="round" stroke-width=".75591"/>
 <path d="m533.72-2.8731c-1.3628-1.0928-2.5795-2.7498-2.6958-4.5472-2.137 1.5979-3.9342 3.7222-4.881 6.2424 0.72273 1.7306 1.9089 3.2755 3.3055 4.5283 0.55889-2.5357 2.2214-4.6962 4.2714-6.2235z" fill="#f00" stroke="#800000" stroke-linecap="round" stroke-linejoin="round" stroke-width=".75591"/>
 <path d="m636.1-2.9151c1.3628-1.0928 2.5795-2.7498 2.6958-4.5472 2.137 1.5979 3.9342 3.7222 4.881 6.2424-0.72273 1.7306-1.9089 3.2755-3.3055 4.5283-0.55889-2.5357-2.2214-4.6962-4.2714-6.2235z" fill="#f00" stroke="#800000" stroke-linecap="round" stroke-linejoin="round" stroke-width=".75591"/>
 <path d="m461.95 30.203 28.036 28.571-28.036 28.571v-18.286c-32.595 1.8768-62.93-29.426-63.393-52.357 0.26843 16.607 33.942 36.758 63.393 31.786z" fill="#1f638a" stroke="#1f638a" stroke-width="1px"/>
 <path d="m435.29-76.019v118.07" fill="none" stroke="#000" stroke-width="1.0016"/>
 <path d="m435.29 66.87v27.449" fill="none" stroke="#000"/>
 <g transform="matrix(.79271 0 0 .79271 300.02 -15.682)" fill="#ff0" stroke="#fc0" stroke-linecap="round" stroke-linejoin="round" stroke-width=".95358">
  <path d="m342.49-37.426c-0.14679-2.2674-1.6817-4.3576-3.4008-5.7363 11.653-8.4816 29.178-8.4851 40.81 0.02138-1.7218 1.3733-3.2621 3.4644-3.4008 5.7328-9.6912-7.089-24.299-7.0864-34.008-0.01792z"/>
  <path d="m290.8 25.143c16.972 12.786 33.944 25.573 50.916 38.359-0.92707-0.61308-2.1371 0.1196-2.8991 0.66671-16.972-12.787-33.944-25.573-50.916-38.359 0.76199-0.54706 1.9721-1.2798 2.8991-0.66672z" color="#260000"/>
  <path d="m290.8 25.143c-3.6021-2.6736-6.5095-6.7912-6.4965-11.427-0.0425-5.1695 3.0202-9.8487 7.0754-12.836-0.14681-2.2674-1.6816-4.3576-3.4008-5.7363-7.9351 5.2561-11.352 16.876-5.5389 24.921 1.4558 2.2246 3.3438 4.1473 5.4616 5.7455 0.76202-0.54706 1.9721-1.2798 2.8992-0.66668z"/>
  <path d="m436.27 0.9634c-1.4558-2.2246-3.3438-4.1473-5.4615-5.7452-1.7219 1.3734-3.2621 3.4644-3.4008 5.7327 4.0052 2.9621 7.0363 7.6105 7.0112 12.719 0.0317 4.687-2.919 8.849-6.5642 11.541 0.92235-0.60628 2.1217 0.13005 2.8766 0.67381 7.935-5.2563 11.352-16.876 5.5387-24.921z"/>
  <path d="m341.71 63.502c-0.92706-0.61307-2.1371 0.11961-2.8991 0.66672 11.64 8.5118 29.165 8.4969 40.81 0.02135-0.75483-0.5438-1.9543-1.2801-2.8764-0.67448-9.9737 7.1972-25.062 7.2161-35.034-0.01358z"/>
  <path d="m339.08-43.162c1.7191 1.3786 3.254 3.4689 3.4008 5.7363-17.036 12.769-34.072 25.537-51.108 38.306-0.1468-2.2674-1.6816-4.3576-3.4008-5.7362 17.036-12.769 34.072-25.537 51.108-38.306z" color="#260000"/>
  <path d="m379.89-43.141c-1.7218 1.3734-3.2621 3.4644-3.4008 5.7327l50.916 38.359c0.13871-2.2683 1.6789-4.3593 3.4008-5.7327-16.972-12.786-33.944-25.573-50.916-38.359z" color="#260000"/>
  <path d="m427.86 25.211c-17.036 12.769-34.072 25.537-51.108 38.306 0.92227-0.60624 2.1217 0.1301 2.8765 0.67385l51.108-38.306c-0.75486-0.54376-1.9542-1.2801-2.8765-0.67386z" color="#260000"/>
 </g>
 <path d="m571.53-37.79c0.11636 1.7974 1.333 3.4543 2.6958 4.5472 6.1684-4.4844 15.409-4.4863 21.566 0.01136 1.365-1.0887 2.5859-2.7464 2.6958-4.5444-7.6823-5.6196-19.262-5.6175-26.958-0.01421z" fill="#f00" stroke="#800000" stroke-linecap="round" stroke-linejoin="round" stroke-width=".75591"/>
 <rect x="282.46" y="-12.302" width="8.9984" height="8.9984" fill="#008080" fill-rule="evenodd" stroke="#008080" stroke-linecap="round" stroke-linejoin="round" stroke-width="1.0016" style="paint-order:markers fill stroke"/>
 <rect x="282.46" y="-72.862" width="8.9984" height="8.9984" fill="#999" fill-rule="evenodd" stroke="#999" stroke-linecap="round" stroke-linejoin="round" stroke-width="1.0016" style="paint-order:markers fill stroke"/>
 <rect x="282.46" y="-32.326" width="8.9984" height="8.9984" fill="#999" fill-rule="evenodd" stroke="#999" stroke-linecap="round" stroke-linejoin="round" stroke-width="1.0016" style="paint-order:markers fill stroke"/>
 <rect x="282.46" y="86.34" width="8.9984" height="8.9984" fill="#008080" fill-rule="evenodd" stroke="#008080" stroke-linecap="round" stroke-linejoin="round" stroke-width="1.0016" style="paint-order:markers fill stroke"/>
 <text x="293.42688" y="-63.52607" fill="#000000" font-family="'Arial Nova', 'Arial Unicode MS', 'Yu Gothic UI', sans-serif" font-size="13.333px" letter-spacing="0px" stroke-width=".99999" word-spacing="0px" style="line-height:1.25" xml:space="preserve"><tspan x="293.42688" y="-63.52607" stroke-width=".99999">Face ID01</tspan></text>
 <text x="293.42688" y="-22.989178" fill="#000000" font-family="'Arial Nova', 'Arial Unicode MS', 'Yu Gothic UI', sans-serif" font-size="13.333px" letter-spacing="0px" stroke-width=".99999" word-spacing="0px" style="line-height:1.25" xml:space="preserve"><tspan x="293.42688" y="-22.989178" stroke-width=".99999">Face ID05</tspan></text>
 <text x="293.42688" y="-2.9657993" fill="#000000" font-family="'Arial Nova', 'Arial Unicode MS', 'Yu Gothic UI', sans-serif" font-size="13.333px" letter-spacing="0px" stroke-width=".99999" word-spacing="0px" style="line-height:1.25" xml:space="preserve"><tspan x="293.42688" y="-2.9657993" stroke-width=".99999">Face ID06</tspan></text>
 <text x="293.42688" y="95.676331" fill="#000000" font-family="'Arial Nova', 'Arial Unicode MS', 'Yu Gothic UI', sans-serif" font-size="13.333px" letter-spacing="0px" stroke-width=".99999" word-spacing="0px" style="line-height:1.25" xml:space="preserve"><tspan x="293.42688" y="95.676331" stroke-width=".99999">Face ID30</tspan></text>
 <text x="292.60657" y="37.682556" fill="#000000" font-family="'Arial Nova', 'Arial Unicode MS', 'Yu Gothic UI', sans-serif" font-size="26.666px" letter-spacing="0px" stroke-width=".99999" word-spacing="0px" style="line-height:1.25" xml:space="preserve"><tspan x="292.60657" y="37.682556" font-size="26.666px" stroke-width=".99999">...</tspan></text>
 <text x="292.60657" y="-46.316818" fill="#000000" font-family="'Arial Nova', 'Arial Unicode MS', 'Yu Gothic UI', sans-serif" font-size="26.666px" letter-spacing="0px" stroke-width=".99999" word-spacing="0px" style="line-height:1.25" xml:space="preserve"><tspan x="292.60657" y="-46.316818" font-size="26.666px" stroke-width=".99999">...</tspan></text>
 <rect x="275.27" y="-78.843" width="86.874" height="181.33" rx="9.9999" ry="9.9999" fill="none" stroke="#999" stroke-linecap="round" stroke-linejoin="round" stroke-width="1.0016" style="paint-order:markers fill stroke"/>
</svg>
