<?xml version="1.0" encoding="UTF-8"?>
<svg width="18cm" height="5.5cm" version="1.1" viewBox="0 0 180 55" xmlns="http://www.w3.org/2000/svg" xmlns:cc="http://creativecommons.org/ns#" xmlns:dc="http://purl.org/dc/elements/1.1/" xmlns:rdf="http://www.w3.org/1999/02/22-rdf-syntax-ns#">
 <metadata>
  <rdf:RDF>
   <cc:Work rdf:about="">
    <dc:format>image/svg+xml</dc:format>
    <dc:type rdf:resource="http://purl.org/dc/dcmitype/StillImage"/>
    <dc:title/>
   </cc:Work>
  </rdf:RDF>
 </metadata>
 <path d="m25.405 10.016h24.936c11.08 0 20 8.92 20 20v3.6562c0 11.08-8.92 20-20 20h-24.936c-11.08 0-20-8.92-20-20v-3.6562c0-11.08 8.92-20 20-20z" fill="none" stroke="#000" stroke-linecap="round" stroke-linejoin="round" style="paint-order:markers fill stroke"/>
 <text x="6.1604929" y="5.3615823" fill="#000000" font-family="'Arial Nova', 'Arial Unicode MS', 'Yu Gothic UI', sans-serif" font-size="3.3867px" letter-spacing="0px" stroke="#000000" stroke-width=".28222" word-spacing="0px" style="line-height:0%" xml:space="preserve"><tspan x="6.1604929" y="5.3615823" fill="#000000" font-family="'Arial Nova', 'Arial Unicode MS', 'Yu Gothic UI', sans-serif" font-size="2.8222px" stroke="#000000" stroke-width=".28222" style="line-height:1.25">R MIN = 8 mm</tspan></text>
 <text x="5.2427149" y="8.6572561" fill="#000000" font-family="'Arial Nova', 'Arial Unicode MS', 'Yu Gothic UI', sans-serif" font-size="3.3867px" letter-spacing="0px" stroke="#000000" stroke-width=".28222" word-spacing="0px" style="line-height:0%" xml:space="preserve"><tspan x="5.2427149" y="8.6572561" fill="#000000" font-family="'Arial Nova', 'Arial Unicode MS', 'Yu Gothic UI', sans-serif" font-size="2.8222px" stroke="#000000" stroke-width=".28222" style="line-height:1.25">R MAX = 9 mm</tspan></text>
 <g transform="translate(0 -151.34)" stroke-linecap="round" stroke-linejoin="round">
  <g transform="translate(-2.2679 .94494)" fill="none" stroke="#000" stroke-linecap="round" stroke-linejoin="round">
   <ellipse cx="19.98" cy="172.13" rx="4.5" ry="4.5" style="paint-order:markers fill stroke"/>
   <path d="m25.48 172.13a5.5 5.5 0 0 1-3.3952 5.0813 5.5 5.5 0 0 1-5.9938-1.1922 5.5 5.5 0 0 1-1.1922-5.9938 5.5 5.5 0 0 1 5.0813-3.3952" stroke-width=".5" style="paint-order:markers fill stroke"/>
  </g>
  <circle cx="17.713" cy="173.07" r=".39687"/>
 </g>
 <g transform="translate(.052227 -129.66)" stroke-linecap="round" stroke-linejoin="round">
  <g transform="translate(-2.2679 .94494)" fill="none" stroke="#000" stroke-linecap="round" stroke-linejoin="round">
   <ellipse cx="19.98" cy="172.13" rx="4.5" ry="4.5" style="paint-order:markers fill stroke"/>
   <path d="m25.48 172.13a5.5 5.5 0 0 1-3.3952 5.0813 5.5 5.5 0 0 1-5.9938-1.1922 5.5 5.5 0 0 1-1.1922-5.9938 5.5 5.5 0 0 1 5.0813-3.3952" stroke-width=".5" style="paint-order:markers fill stroke"/>
  </g>
  <circle cx="17.713" cy="173.07" r=".39687"/>
 </g>
 <g transform="translate(40.307 -129.19)" stroke-linecap="round" stroke-linejoin="round">
  <g transform="translate(-2.2679 .94494)" fill="none" stroke="#000" stroke-linecap="round" stroke-linejoin="round">
   <ellipse cx="19.98" cy="172.13" rx="4.5" ry="4.5" style="paint-order:markers fill stroke"/>
   <path d="m25.48 172.13a5.5 5.5 0 0 1-3.3952 5.0813 5.5 5.5 0 0 1-5.9938-1.1922 5.5 5.5 0 0 1-1.1922-5.9938 5.5 5.5 0 0 1 5.0813-3.3952" stroke-width=".5" style="paint-order:markers fill stroke"/>
  </g>
  <circle cx="17.713" cy="173.07" r=".39687"/>
 </g>
 <g transform="translate(39.456 -152.44)" stroke-linecap="round" stroke-linejoin="round">
  <g transform="translate(-2.2679 .94494)" fill="none" stroke="#000" stroke-linecap="round" stroke-linejoin="round">
   <ellipse cx="19.98" cy="172.13" rx="4.5" ry="4.5" style="paint-order:markers fill stroke"/>
   <path d="m25.48 172.13a5.5 5.5 0 0 1-3.3952 5.0813 5.5 5.5 0 0 1-5.9938-1.1922 5.5 5.5 0 0 1-1.1922-5.9938 5.5 5.5 0 0 1 5.0813-3.3952" stroke-width=".5" style="paint-order:markers fill stroke"/>
  </g>
  <circle cx="17.713" cy="173.07" r=".39687"/>
 </g>
 <circle cx="37.873" cy="31.846" r="12.25" fill="none" stroke="#000" stroke-linecap="round" stroke-linejoin="round" style="paint-order:markers fill stroke"/>
 <circle cx="37.873" cy="31.846" r="11" fill="none" stroke="#000" stroke-linecap="round" stroke-linejoin="round" style="paint-order:markers fill stroke"/>
 <path d="m57.197 20.604v-16.85" fill="none" stroke="#000" stroke-linecap="round" stroke-linejoin="round" stroke-width=".26458px"/>
 <path d="m130.18 10.016h24.936c11.08 0 20 8.92 20 20v3.6562c0 11.08-8.92 20-20 20h-24.936c-11.08 0-20-8.92-20-20v-3.6562c0-11.08 8.92-20 20-20z" fill="none" stroke="#000" stroke-linecap="round" stroke-linejoin="round" style="paint-order:markers fill stroke"/>
 <ellipse cx="122.49" cy="21.733" rx="4.5" ry="4.5" fill="none" stroke="#000" stroke-linecap="round" stroke-linejoin="round" style="paint-order:markers fill stroke"/>
 <path d="m127.99 21.733a5.5 5.5 0 0 1-3.3952 5.0813 5.5 5.5 0 0 1-5.9938-1.1923 5.5 5.5 0 0 1-1.1922-5.9938 5.5 5.5 0 0 1 5.0813-3.3952" fill="none" stroke="#00f" stroke-linecap="round" stroke-linejoin="round" stroke-width=".5" style="paint-order:markers fill stroke"/>
 <circle cx="122.49" cy="21.733" r=".39687"/>
 <ellipse cx="122.54" cy="43.411" rx="4.5" ry="4.5" fill="none" stroke="#000" stroke-linecap="round" stroke-linejoin="round" style="paint-order:markers fill stroke"/>
 <path d="m128.04 43.411a5.5 5.5 0 0 1-3.3952 5.0813 5.5 5.5 0 0 1-5.9938-1.1922 5.5 5.5 0 0 1-1.1922-5.9938 5.5 5.5 0 0 1 5.0813-3.3952" fill="none" stroke="#00f" stroke-linecap="round" stroke-linejoin="round" stroke-width=".5" style="paint-order:markers fill stroke"/>
 <circle cx="122.54" cy="43.411" r=".39687"/>
 <ellipse cx="162.79" cy="43.884" rx="4.5" ry="4.5" fill="none" stroke="#000" stroke-linecap="round" stroke-linejoin="round" style="paint-order:markers fill stroke"/>
 <path d="m168.29 43.884a5.5 5.5 0 0 1-3.3952 5.0813 5.5 5.5 0 0 1-5.9938-1.1922 5.5 5.5 0 0 1-1.1922-5.9938 5.5 5.5 0 0 1 5.0813-3.3952" fill="none" stroke="#00f" stroke-linecap="round" stroke-linejoin="round" stroke-width=".5" style="paint-order:markers fill stroke"/>
 <circle cx="162.79" cy="43.884" r=".39687"/>
 <ellipse cx="161.94" cy="20.638" rx="4.5" ry="4.5" fill="none" stroke="#000" stroke-linecap="round" stroke-linejoin="round" style="paint-order:markers fill stroke"/>
 <path d="m167.44 20.638a5.5 5.5 0 0 1-3.3952 5.0813 5.5 5.5 0 0 1-5.9938-1.1923 5.5 5.5 0 0 1-1.1922-5.9938 5.5 5.5 0 0 1 5.0813-3.3952" fill="none" stroke="#00f" stroke-linecap="round" stroke-linejoin="round" stroke-width=".5" style="paint-order:markers fill stroke"/>
 <circle cx="161.94" cy="20.638" r=".39687"/>
 <circle cx="142.65" cy="31.846" r="12.25" fill="none" stroke="#000" stroke-linecap="round" stroke-linejoin="round" style="paint-order:markers fill stroke"/>
 <circle cx="142.65" cy="31.846" r="11" fill="none" stroke="#000" stroke-linecap="round" stroke-linejoin="round" style="paint-order:markers fill stroke"/>
 <path d="m57.197 20.604h17.348" fill="none" stroke="#000" stroke-linecap="round" stroke-linejoin="round" stroke-width=".26458px"/>
 <path d="m73.048 19.342a15.903 15.903 0 0 1-9.1709 15.691 15.903 15.903 0 0 1-17.898-3.1577 15.903 15.903 0 0 1-3.2477-17.882 15.903 15.903 0 0 1 15.645-9.2497" fill="none" stroke="#000" stroke-linecap="round" stroke-linejoin="round" stroke-width=".265" style="paint-order:markers fill stroke"/>
 <text x="58.382065" y="3.5718417" fill="#000000" font-family="'Arial Nova', 'Arial Unicode MS', 'Yu Gothic UI', sans-serif" font-size="3.3867px" letter-spacing="0px" stroke="#000000" stroke-width=".28222" word-spacing="0px" style="line-height:0%" xml:space="preserve"><tspan x="58.382065" y="3.5718417" fill="#000000" font-family="'Arial Nova', 'Arial Unicode MS', 'Yu Gothic UI', sans-serif" font-size="2.8222px" stroke="#000000" stroke-width=".28222" style="line-height:1.25">MIN = 90°</tspan></text>
 <text x="75.250221" y="19.474571" fill="#000000" font-family="'Arial Nova', 'Arial Unicode MS', 'Yu Gothic UI', sans-serif" font-size="3.3867px" letter-spacing="0px" stroke="#000000" stroke-width=".28222" word-spacing="0px" style="line-height:0%" xml:space="preserve"><tspan x="75.250221" y="19.474571" fill="#000000" font-family="'Arial Nova', 'Arial Unicode MS', 'Yu Gothic UI', sans-serif" font-size="2.8222px" stroke="#000000" stroke-width=".28222" style="line-height:1.25">MAX = 360°</tspan></text>
 <text fill="none" font-family="'Arial Nova', 'Arial Unicode MS', 'Yu Gothic UI', sans-serif" font-size="2.8222px" letter-spacing="0px" stroke="#000000" stroke-width=".26458px" word-spacing="0px" style="line-height:0;shape-inside:url(#rect10353);white-space:pre" xml:space="preserve"/>
 <text fill="none" font-family="'Arial Nova', 'Arial Unicode MS', 'Yu Gothic UI', sans-serif" font-size="2.8222px" letter-spacing="0px" stroke="#000000" stroke-width=".26458px" word-spacing="0px" style="line-height:0;shape-inside:url(#rect10359);white-space:pre" xml:space="preserve"/>
</svg>
