<?xml version="1.0" encoding="UTF-8" standalone="no"?>
<!-- Created with Inkscape (http://www.inkscape.org/) -->

<svg
   width="48.0px"
   height="48.0px"
   viewBox="0 0 48.0 48.0"
   version="1.1"
   id="SVGRoot"
   sodipodi:docname="Parameterdefinition_on_off.svg"
   inkscape:version="1.2.2 (732a01da63, 2022-12-09)"
   inkscape:export-filename="Parameterdefinition_on_off.png"
   inkscape:export-xdpi="96"
   inkscape:export-ydpi="96"
   xmlns:inkscape="http://www.inkscape.org/namespaces/inkscape"
   xmlns:sodipodi="http://sodipodi.sourceforge.net/DTD/sodipodi-0.dtd"
   xmlns="http://www.w3.org/2000/svg"
   xmlns:svg="http://www.w3.org/2000/svg">
  <sodipodi:namedview
     id="namedview3854"
     pagecolor="#ffffff"
     bordercolor="#000000"
     borderopacity="0.25"
     inkscape:showpageshadow="2"
     inkscape:pageopacity="0.0"
     inkscape:pagecheckerboard="false"
     inkscape:deskcolor="#d1d1d1"
     inkscape:document-units="px"
     showgrid="true"
     inkscape:zoom="11.816274"
     inkscape:cx="14.894712"
     inkscape:cy="25.388714"
     inkscape:window-width="1920"
     inkscape:window-height="1009"
     inkscape:window-x="1912"
     inkscape:window-y="-8"
     inkscape:window-maximized="1"
     inkscape:current-layer="layer1">
    <inkscape:grid
       type="xygrid"
       id="grid4340" />
  </sodipodi:namedview>
  <defs
     id="defs3849" />
  <g
     inkscape:label="Ebene 1"
     inkscape:groupmode="layer"
     id="layer1">
    <path
       d="M 18.225454,2.5923492 16.642398,8.2122065 A 14.949314,14.220917 0 0 0 11.907939,10.811375 L 5.963132,9.2960689 2.5817065,14.867346 6.9105037,18.98535 a 14.949314,14.220917 0 0 0 -0.2806978,2.632094 14.949314,14.220917 0 0 0 0.2590487,2.579903 l -4.3352135,4.124107 3.3814254,5.571278 5.9085805,-1.506047 a 14.949314,14.220917 0 0 0 4.734458,2.606352 l 1.591393,5.649752 6.762763,4e-6 1.583056,-5.619857 a 14.949314,14.220917 0 0 0 4.734459,-2.599168 l 5.944806,1.515306 3.381426,-5.571278 -4.328797,-4.118003 a 14.949314,14.220917 0 0 0 0.280711,-2.63222 14.949314,14.220917 0 0 0 -0.261602,-2.577328 L 40.604109,14.913687 37.222682,9.3424103 31.2997,10.852111 A 14.949314,14.220917 0 0 0 26.57659,8.230978 L 24.988296,2.5924363 Z m 3.35336,10.2743528 a 9.1991742,8.7509502 0 0 1 9.199611,8.751365 9.1991742,8.7509502 0 0 1 -9.199611,8.750951 9.1991742,8.7509502 0 0 1 -9.199175,-8.750951 9.1991742,8.7509502 0 0 1 9.199175,-8.751365 z"
       style="fill:#000000;fill-opacity:1;stroke:#ffffff;stroke-width:1;stroke-linecap:round;stroke-linejoin:round;stroke-dasharray:none;stroke-opacity:1"
       id="path1626" />
    <circle
       style="fill:#ffffff;fill-opacity:1;stroke:#000000;stroke-linecap:butt;stroke-opacity:1;paint-order:fill markers stroke"
       id="path1775"
       cx="21.578875"
       cy="21.5"
       r="0.5" />
    <rect
       transform="matrix(0.83620496,0.54841706,-0.5303425,0.84778348,0,0)"
       x="33.602055"
       y="18.810808"
       width="8.5737362"
       height="2.4233387"
       style="fill:#fffffb;fill-opacity:1;stroke:#ffffff;stroke-width:0.0158661;stroke-opacity:1"
       id="rect1628" />
    <path
       d="m 23.91924,40.619317 -2.376456,1.48669 -1.450934,0.907692 -3.827323,2.39443 1.146184,-8.960424"
       style="fill:#ffffff;fill-opacity:1;stroke:#000000;stroke-width:1;stroke-linecap:round;stroke-linejoin:round;stroke-dasharray:none;stroke-opacity:1"
       id="path1630"
       sodipodi:nodetypes="ccccc" />
    <path
       d="m 16.657424,44.958865 0.843401,-4.85931 1.607526,1.030337 1.607526,1.030338 -2.029229,1.399287 z"
       style="fill:#000000;fill-opacity:1;stroke:#000000;stroke-width:1;stroke-linejoin:round;stroke-dasharray:none;stroke-opacity:1"
       id="path1634" />
    <path
       d="m 18.15068,35.193069 2.023663,1.297056 2.424731,1.554122 2.067419,1.325102 20.74658,-32.9198757 -6.054132,-3.8803738 z"
       style="fill:#ffffff;fill-opacity:1;stroke:#000000;stroke-width:1;stroke-linecap:round;stroke-linejoin:round;stroke-dasharray:none;stroke-opacity:1"
       id="path1636"
       sodipodi:nodetypes="ccccccc" />
    <path
       style="fill:#ffffff;fill-opacity:1;stroke:#000000;stroke-width:1;stroke-linecap:round;stroke-linejoin:round;stroke-dasharray:none;stroke-opacity:1"
       d="M 20.210021,36.378231 41.254243,3.7521968"
       id="path3031" />
    <path
       style="fill:#ffffff;fill-opacity:1;stroke:#000000;stroke-width:1;stroke-linecap:round;stroke-linejoin:round;stroke-dasharray:none;stroke-opacity:1"
       d="M 22.623093,38.06288 43.667314,5.4368456"
       id="path3031-9" />
  </g>
</svg>
