<?xml version="1.0" encoding="UTF-8"?>
<!-- Created with Inkscape (http://www.inkscape.org/) -->
<svg width="15cm" height="10.382cm" version="1.1" viewBox="0 0 150 103.82" xml:space="preserve" xmlns="http://www.w3.org/2000/svg"><g transform="translate(-56.186 -12.338)" stroke-linecap="round" stroke-linejoin="round"><g transform="matrix(.26458 0 0 .26458 105.74 13.013)" stroke-width="1.8898"><g transform="rotate(-59.09 134.78 172.55)" fill="#0f0" stroke="#0f0"><path d="m185 157.64-20.624 6.4215 5.206 8.707c8.2105-7.0026 15.418-15.128 15.418-15.128z"/><path d="m174.2 164.03-29.443 17.393"/></g><g transform="rotate(-28.115 122.25 169.14)" fill="#f00" stroke="#f00"><path d="m183.63 203.52-20.719-6.1073 5.0731-8.7851c8.316 6.877 15.646 14.892 15.646 14.892z"/><path d="m173.54 197.43-28.882-15.871"/></g></g><ellipse transform="rotate(-2)" cx="167.84" cy="85.075" rx="1.0691" ry="1" fill="#800080" stroke="#800080" stroke-width="1.0011"/><ellipse transform="rotate(-2)" cx="103.19" cy="97.298" rx="1.0691" ry="1" fill="#0f0" stroke="#0f0" stroke-width="1.0011"/><path d="m79.153 18.129 27.215-2.045 4.562 61.036 64.969-4.562 2.8316 33.035-91.869 7.2362z" fill="none" stroke="#000" stroke-width=".5"/><ellipse transform="rotate(-2)" cx="84.406" cy="26.754" rx="1.0691" ry="1" fill="#800000" stroke="#800000" stroke-width="1.0011"/></g></svg>
