<?xml version="1.0" encoding="UTF-8"?>
<!-- Created with Inkscape (http://www.inkscape.org/) -->
<svg width="18cm" height="8cm" version="1.1" viewBox="0 0 180 80" xmlns="http://www.w3.org/2000/svg">
 <path d="m2.104 19.242 19.085-10.951 19.085 10.951-19.085 10.951z" fill="none" stop-color="#000000" stroke="#7d7d7d" stroke-linecap="round" stroke-linejoin="round" stroke-width=".379"/>
 <path d="m2.2211 37.832-0.1171-18.591 19.124 10.883-0.1171 18.591z" fill="#f0f" fill-rule="evenodd" stop-color="#000000" stroke="#7d7d7d" stroke-linecap="round" stroke-linejoin="round" stroke-width=".379"/>
 <path d="m40.235 37.832 0.03862-18.591-19.045 10.883-0.1171 18.591z" fill="#784421" fill-rule="evenodd" stop-color="#000000" stroke="#7d7d7d" stroke-linecap="round" stroke-linejoin="round" stroke-width=".379"/>
 <g transform="matrix(.69753 0 0 .69606 -9.8728 -15.671)" fill="none" stroke="#7d7d7d" stroke-linecap="round" stroke-linejoin="round">
  <path transform="matrix(.86689 -.49851 .86689 .49851 0 0)" d="m0.60201 101.22h31.562v31.562h-31.562z" stop-color="#000000" stroke-width=".58506"/>
  <path transform="matrix(.86509 -.50161 .86867 .49539 0 0)" d="m-26.567 128.26 26.748-26.831 4e-8 31.562-26.94 26.636z" stop-color="#000000" stroke-width=".58506"/>
  <path d="m142.93 76.867 0.0554-26.709-27.304 15.635-0.16788 26.709z" stop-color="#000000" stroke-width=".54392"/>
 </g>
 <g transform="matrix(.69753 0 0 .69606 33.899 -15.671)" fill="none" stroke="#7d7d7d" stroke-linecap="round" stroke-linejoin="round">
  <path transform="matrix(.86689 -.49851 .86689 .49851 0 0)" d="m0.60201 101.22h31.562v31.562h-31.562z" stop-color="#000000" stroke-width=".58506"/>
  <path transform="matrix(.86509 -.50161 .86867 .49539 0 0)" d="m-26.567 128.26 26.748-26.831 4e-8 31.562-26.94 26.636z" stop-color="#000000" stroke-width=".58506"/>
  <path d="m142.93 76.867 0.0554-26.709-27.304 15.635-0.16788 26.709z" stop-color="#000000" stroke-width=".54392"/>
 </g>
 <g transform="matrix(.69753 0 0 .69606 77.142 -15.671)" fill="none" stroke="#7d7d7d" stroke-linecap="round" stroke-linejoin="round">
  <path transform="matrix(.86689 -.49851 .86689 .49851 0 0)" d="m0.60201 101.22h31.562v31.562h-31.562z" stop-color="#000000" stroke-width=".58506"/>
  <path transform="matrix(.86509 -.50161 .86867 .49539 0 0)" d="m-26.567 128.26 26.748-26.831 4e-8 31.562-26.94 26.636z" stop-color="#000000" stroke-width=".58506"/>
  <path d="m142.93 76.867 0.0554-26.709-27.304 15.635-0.16788 26.709z" stop-color="#000000" stroke-width=".54392"/>
 </g>
 <g transform="matrix(-.06595 -.25623 .25623 -.06595 31.427 322.56)" fill="#0f0" stroke="#0f0" stroke-linecap="round" stroke-linejoin="round" stroke-width="1.8898">
  <path d="m1000.8 180.46-20.624 6.4215 5.206 8.707z"/>
  <path d="m989.97 186.85-29.443 17.393"/>
 </g>
 <g transform="matrix(.068665 -.25552 .25552 .068665 -97.661 294.4)" fill="#f00" stroke="#f00" stroke-linecap="round" stroke-linejoin="round" stroke-width="1.8898">
  <path d="m999.4 226.34-20.719-6.1073 5.073-8.7851z"/>
  <path d="m989.3 220.25-28.882-15.871"/>
 </g>
 <g transform="rotate(44.627 33.844 65.461)" fill="#00f" stroke="#00f" stroke-linecap="round" stroke-linejoin="round" stroke-width=".5">
  <path d="m22.58 60.039 1.3421 5.5554h-2.6841z"/>
  <path d="m22.567 62.567 0.04629 10.511"/>
 </g>
 <g transform="translate(2.6458 -10.054)" fill="#ccc" stroke="#ccc" stroke-linecap="round" stroke-linejoin="round" stroke-width=".279">
  <path d="m58.369 64.23 3.0056 4.8611 1.8877-1.9082z"/>
  <path d="m60.718 66.577 6.3985 6.3971"/>
  <path d="m75.499 64.586-2.9832 4.8748-1.8964-1.8995c2.3282-1.6527 4.8796-2.9753 4.8796-2.9753z"/>
  <path d="m73.25 66.747-6.0386 6.29"/>
  <path d="m76.339 63.693-2.9475 4.8965-1.9103-1.8856c2.3161-1.6697 4.8577-3.0109 4.8577-3.0109z"/>
  <path d="m74.554 65.483-7.3512 7.5133"/>
 </g>
 <g transform="translate(46.699 -12.46)" fill="#ccc" stroke="#ccc" stroke-linecap="round" stroke-linejoin="round" stroke-width=".279">
  <path d="m58.369 64.23 3.0056 4.8611 1.8877-1.9082z"/>
  <path d="m60.718 66.577 6.3985 6.3971"/>
  <path d="m75.499 64.586-2.9832 4.8748-1.8964-1.8995c2.3282-1.6527 4.8796-2.9753 4.8796-2.9753z"/>
  <path d="m73.25 66.747-6.0386 6.29"/>
  <path d="m76.339 63.693-2.9475 4.8965-1.9103-1.8856c2.3161-1.6697 4.8577-3.0109 4.8577-3.0109z"/>
  <path d="m74.554 65.483-7.3512 7.5133"/>
 </g>
 <g transform="matrix(-.25585 .067426 -.067426 -.25585 329.38 50.519)" fill="#0f0" stroke="#0f0" stroke-linecap="round" stroke-linejoin="round" stroke-width="1.8898">
  <path d="m1000.8 180.46-20.624 6.4215 5.206 8.707z"/>
  <path d="m989.97 186.85-29.443 17.393"/>
 </g>
 <g transform="matrix(.26458 .00047005 -.00047005 .26458 -184.12 8.4021)" fill="#f00" stroke="#f00" stroke-linecap="round" stroke-linejoin="round" stroke-width="1.8898">
  <path d="m999.4 226.34-20.719-6.1073 5.073-8.7851z"/>
  <path d="m989.3 220.25-28.882-15.871"/>
 </g>
 <g transform="rotate(180.67 46.262 67.851)" fill="#00f" stroke="#00f" stroke-linecap="round" stroke-linejoin="round" stroke-width=".5">
  <path d="m22.58 60.039 1.3421 5.5554h-2.6841z"/>
  <path d="m22.567 62.567 0.04629 10.511"/>
 </g>
 <g transform="matrix(-.13405 .22811 -.22811 -.13405 289.3 -131.05)" fill="#0f0" stroke="#0f0" stroke-linecap="round" stroke-linejoin="round" stroke-width="1.8898">
  <path d="m1000.8 180.46-20.624 6.4215 5.206 8.707z"/>
  <path d="m989.97 186.85-29.443 17.393"/>
 </g>
 <g transform="matrix(-.07012 .25512 -.25512 -.07012 233.39 -170.13)" fill="#f00" stroke="#f00" stroke-linecap="round" stroke-linejoin="round" stroke-width="1.8898">
  <path d="m999.4 226.34-20.719-6.1073 5.073-8.7851z"/>
  <path d="m989.3 220.25-28.882-15.871"/>
 </g>
 <g transform="rotate(120.14 71.896 93.082)" fill="#00f" stroke="#00f" stroke-linecap="round" stroke-linejoin="round" stroke-width=".5">
  <path d="m22.58 60.039 1.3421 5.5554h-2.6841z"/>
  <path d="m22.567 62.567 0.04629 10.511"/>
 </g>
 <g transform="matrix(.12714 .23204 -.23204 .12714 79.724 -185.23)" fill="#0f0" stroke="#0f0" stroke-linecap="round" stroke-linejoin="round" stroke-width="1.8898">
  <path d="m1000.8 180.46-20.624 6.4215 5.206 8.707z"/>
  <path d="m989.97 186.85-29.443 17.393"/>
 </g>
 <g transform="matrix(.12984 .23054 -.23054 .12984 76.737 -184.36)" fill="#f00" stroke="#f00" stroke-linecap="round" stroke-linejoin="round" stroke-width="1.8898">
  <path d="m999.4 226.34-20.719-6.1073 5.073-8.7851z"/>
  <path d="m989.3 220.25-28.882-15.871"/>
 </g>
 <g transform="rotate(224.57 86.559 41.339)" fill="#00f" stroke="#00f" stroke-linecap="round" stroke-linejoin="round" stroke-width=".5">
  <path d="m22.58 60.039 1.3421 5.5554h-2.6841z"/>
  <path d="m22.567 62.567 0.04629 10.511"/>
 </g>
 <text x="102.04247" y="72.502739" fill="#000000" font-family="'Arial Nova', 'Arial Unicode MS', 'Yu Gothic UI', sans-serif" font-size="3.3867px" letter-spacing="0px" stroke-width=".28222" word-spacing="0px" style="line-height:0%" xml:space="preserve"><tspan x="102.04247" y="72.502739" fill="#ff0000" font-family="'Arial Nova', 'Arial Unicode MS', 'Yu Gothic UI', sans-serif" font-size="2.8222px" stroke="#ff0000" stroke-width=".28222" style="line-height:1.25">X</tspan></text>
 <text x="81.801994" y="70.629234" fill="#000000" font-family="'Arial Nova', 'Arial Unicode MS', 'Yu Gothic UI', sans-serif" font-size="3.3867px" letter-spacing="0px" stroke-width=".28222" word-spacing="0px" style="line-height:0%" xml:space="preserve"><tspan x="81.801994" y="70.629234" fill="#ff0000" font-family="'Arial Nova', 'Arial Unicode MS', 'Yu Gothic UI', sans-serif" font-size="2.8222px" stroke="#ff0000" stroke-width=".28222" style="line-height:1.25">X</tspan></text>
 <text x="26.652035" y="53.669079" fill="#000000" font-family="'Arial Nova', 'Arial Unicode MS', 'Yu Gothic UI', sans-serif" font-size="3.3867px" letter-spacing="0px" stroke-width=".28222" word-spacing="0px" style="line-height:0%" xml:space="preserve"><tspan x="26.652035" y="53.669079" fill="#ff0000" font-family="'Arial Nova', 'Arial Unicode MS', 'Yu Gothic UI', sans-serif" font-size="2.8222px" stroke="#ff0000" stroke-width=".28222" style="line-height:1.25">X</tspan></text>
 <text x="30.990681" y="53.96489" fill="#000000" font-family="'Arial Nova', 'Arial Unicode MS', 'Yu Gothic UI', sans-serif" font-size="3.3867px" letter-spacing="0px" stroke-width=".28222" word-spacing="0px" style="line-height:0%" xml:space="preserve"><tspan x="30.990681" y="53.96489" fill="#0000ff" font-family="'Arial Nova', 'Arial Unicode MS', 'Yu Gothic UI', sans-serif" font-size="2.8222px" stroke="#0000ff" stroke-width=".28222" style="line-height:1.25">Z</tspan></text>
 <text x="126.48693" y="69.150154" fill="#000000" font-family="'Arial Nova', 'Arial Unicode MS', 'Yu Gothic UI', sans-serif" font-size="3.3867px" letter-spacing="0px" stroke-width=".28222" word-spacing="0px" style="line-height:0%" xml:space="preserve"><tspan x="126.48693" y="69.150154" fill="#0000ff" font-family="'Arial Nova', 'Arial Unicode MS', 'Yu Gothic UI', sans-serif" font-size="2.8222px" stroke="#0000ff" stroke-width=".28222" style="line-height:1.25">Z</tspan></text>
 <text x="142.64842" y="75.855331" fill="#000000" font-family="'Arial Nova', 'Arial Unicode MS', 'Yu Gothic UI', sans-serif" font-size="3.3867px" letter-spacing="0px" stroke-width=".28222" word-spacing="0px" style="line-height:0%" xml:space="preserve"><tspan x="142.64842" y="75.855331" fill="#0000ff" font-family="'Arial Nova', 'Arial Unicode MS', 'Yu Gothic UI', sans-serif" font-size="2.8222px" stroke="#0000ff" stroke-width=".28222" style="line-height:1.25">Z</tspan></text>
 <text x="166.21515" y="71.516678" fill="#000000" font-family="'Arial Nova', 'Arial Unicode MS', 'Yu Gothic UI', sans-serif" font-size="3.3867px" letter-spacing="0px" stroke-width=".28222" word-spacing="0px" style="line-height:0%" xml:space="preserve"><tspan x="166.21515" y="71.516678" fill="#0000ff" font-family="'Arial Nova', 'Arial Unicode MS', 'Yu Gothic UI', sans-serif" font-size="2.8222px" stroke="#00ff00" stroke-width=".28222" style="line-height:1.25">Y</tspan></text>
 <text x="58.144917" y="74.672066" fill="#000000" font-family="'Arial Nova', 'Arial Unicode MS', 'Yu Gothic UI', sans-serif" font-size="3.3867px" letter-spacing="0px" stroke-width=".28222" word-spacing="0px" style="line-height:0%" xml:space="preserve"><tspan x="58.144917" y="74.672066" fill="#0000ff" font-family="'Arial Nova', 'Arial Unicode MS', 'Yu Gothic UI', sans-serif" font-size="2.8222px" stroke="#00ff00" stroke-width=".28222" style="line-height:1.25">Y</tspan></text>
 <text x="8.8126955" y="53.176048" fill="#000000" font-family="'Arial Nova', 'Arial Unicode MS', 'Yu Gothic UI', sans-serif" font-size="3.3867px" letter-spacing="0px" stroke-width=".28222" word-spacing="0px" style="line-height:0%" xml:space="preserve"><tspan x="8.8126955" y="53.176048" fill="#0000ff" font-family="'Arial Nova', 'Arial Unicode MS', 'Yu Gothic UI', sans-serif" font-size="2.8222px" stroke="#00ff00" stroke-width=".28222" style="line-height:1.25">Y</tspan></text>
 <g transform="translate(87.156 -9.5312)" fill="#ccc" stroke="#ccc" stroke-linecap="round" stroke-linejoin="round" stroke-width=".279">
  <path d="m58.369 64.23 3.0056 4.8611 1.8877-1.9082z"/>
  <path d="m60.718 66.577 6.3985 6.3971"/>
  <path d="m75.499 64.586-2.9832 4.8748-1.8964-1.8995c2.3282-1.6527 4.8796-2.9753 4.8796-2.9753z"/>
  <path d="m73.25 66.747-6.0386 6.29"/>
  <path d="m76.339 63.693-2.9475 4.8965-1.9103-1.8856c2.3161-1.6697 4.8577-3.0109 4.8577-3.0109z"/>
  <path d="m74.554 65.483-7.3512 7.5133"/>
 </g>
 <g transform="matrix(.07718 0 0 .076397 30.374 18.797)" fill="#1f638a" stroke="#1f638a" stroke-linecap="round" stroke-linejoin="round" stroke-width="4.9357">
  <path d="m207.49 126.25 34.17 21.614-34.17 21.614z"/>
  <rect x="172.19" y="137.99" width="39.213" height="19.761"/>
 </g>
 <text x="68.432266" y="5.2064734" fill="none" font-family="'Arial Nova', 'Arial Unicode MS', 'Yu Gothic UI', sans-serif" font-size="2.8222px" letter-spacing="0px" stroke="#000000" stroke-width=".26458px" word-spacing="0px" style="line-height:0" xml:space="preserve"><tspan x="68.432266" y="5.2064734" stroke-width=".26458px">XY</tspan></text>
 <text x="112.80477" y="5.2064734" fill="none" font-family="'Arial Nova', 'Arial Unicode MS', 'Yu Gothic UI', sans-serif" font-size="2.8222px" letter-spacing="0px" stroke="#000000" stroke-width=".26458px" word-spacing="0px" style="line-height:0" xml:space="preserve"><tspan x="112.80477" y="5.2064734" stroke-width=".26458px">XZ</tspan></text>
 <text x="155.99403" y="5.2064734" fill="none" font-family="'Arial Nova', 'Arial Unicode MS', 'Yu Gothic UI', sans-serif" font-size="2.8222px" letter-spacing="0px" stroke="#000000" stroke-width=".26458px" word-spacing="0px" style="line-height:0" xml:space="preserve"><tspan x="155.99403" y="5.2064734" stroke-width=".26458px">YZ</tspan></text>
</svg>
