<?xml version="1.0" encoding="UTF-8"?>
<svg width="13cm" height="4.5cm" version="1.1" xmlns="http://www.w3.org/2000/svg" xmlns:cc="http://creativecommons.org/ns#" xmlns:dc="http://purl.org/dc/elements/1.1/" xmlns:rdf="http://www.w3.org/1999/02/22-rdf-syntax-ns#" xmlns:xlink="http://www.w3.org/1999/xlink">
 <title>Abbildung für OPEN MIND Softwaredokumentation</title>
 <defs>
  <linearGradient id="linearGradient17780-7-0">
   <stop stop-color="#fff" offset="0"/>
   <stop stop-color="#00385e" offset="1"/>
  </linearGradient>
  <linearGradient id="linearGradient20942" x1="233.85" x2="800.67" y1="976.56" y2="1027.1" gradientTransform="matrix(1.0667 0 0 1.0667 .96495 -952.11)" gradientUnits="userSpaceOnUse" xlink:href="#linearGradient17780-7-0"/>
  <linearGradient id="linearGradient21527" x1="71.539" x2="83.098" y1="72.473" y2="73.288" gradientUnits="userSpaceOnUse">
   <stop stop-color="#ff8500" offset="0"/>
   <stop stop-color="#fff" offset="1"/>
  </linearGradient>
  <linearGradient id="linearGradient21529" x1="10.331" x2="283.54" y1="17.066" y2="33.364" gradientUnits="userSpaceOnUse" xlink:href="#linearGradient17780-7-0"/>
  <linearGradient id="linearGradient21531" x1="-14.343" x2="70.298" y1="35.863" y2="54.335" gradientUnits="userSpaceOnUse" xlink:href="#linearGradient17780-7-0"/>
  <linearGradient id="linearGradient21533" x1="24.216" x2="30.759" y1="24.198" y2="25.285" gradientUnits="userSpaceOnUse" xlink:href="#linearGradient17780-7-0"/>
  <linearGradient id="linearGradient21535" x1="27.032" x2="207.3" y1="23.147" y2="46.812" gradientUnits="userSpaceOnUse" xlink:href="#linearGradient17780-7-0"/>
  <linearGradient id="linearGradient21537" x1="40.17" x2="228.58" y1="38.63" y2="63.508" gradientUnits="userSpaceOnUse" xlink:href="#linearGradient17780-7-0"/>
  <linearGradient id="linearGradient21539" x1="30.513" x2="126.05" y1="53.603" y2="65.281" gradientUnits="userSpaceOnUse" xlink:href="#linearGradient17780-7-0"/>
  <linearGradient id="linearGradient21541" x1="39.1" x2="148.79" y1="823.62" y2="833.47" gradientTransform="matrix(1.0667,0,0,1.0667,250.1,1.722)" gradientUnits="userSpaceOnUse" xlink:href="#linearGradient17780-7-0"/>
  <linearGradient id="linearGradient21543" x1="84.117" x2="97.366" y1="55.065" y2="57.226" gradientUnits="userSpaceOnUse" xlink:href="#linearGradient17780-7-0"/>
  <linearGradient id="linearGradient21545" x1="77.084" x2="108.61" y1="84.699" y2="88.285" gradientUnits="userSpaceOnUse" xlink:href="#linearGradient17780-7-0"/>
  <linearGradient id="linearGradient21547" x1="-15.334" x2="83.37" y1="72.469" y2="89.637" gradientUnits="userSpaceOnUse" xlink:href="#linearGradient17780-7-0"/>
  <linearGradient id="linearGradient21549" x1="20.994" x2="167.61" y1="58.429" y2="82.134" gradientUnits="userSpaceOnUse" xlink:href="#linearGradient21553"/>
  <linearGradient id="linearGradient21551" x1="75.535" x2="91.96" y1="82.466" y2="85.118" gradientUnits="userSpaceOnUse" xlink:href="#linearGradient17780-7-0"/>
  <linearGradient id="linearGradient21553" x1="18.581" x2="46.945" y1="66.192" y2="73.054" gradientUnits="userSpaceOnUse">
   <stop stop-color="#ff8500" offset="0"/>
   <stop stop-color="#fff" offset="1"/>
  </linearGradient>
  <linearGradient id="linearGradient21555" x1="-13.16" x2="483.79" y1="37.452" y2="92.301" gradientTransform="matrix(1.7474,0,0,1.753,24.381,3.198)" gradientUnits="userSpaceOnUse" xlink:href="#linearGradient17780-7-0"/>
  <linearGradient id="linearGradient2085" x1="25.005" x2="275.99" y1="84.966" y2="86.96" gradientTransform="translate(-.28037 -12.708)" gradientUnits="userSpaceOnUse" xlink:href="#linearGradient17780-7-0"/>
  <linearGradient id="linearGradient1641" x1="75.451" x2="102.92" y1="81.271" y2="83.102" gradientUnits="userSpaceOnUse" xlink:href="#linearGradient17780-7-0"/>
 </defs>
 <metadata>
  <rdf:RDF>
   <cc:Work rdf:about="">
    <dc:format>image/svg+xml</dc:format>
    <dc:type rdf:resource="http://purl.org/dc/dcmitype/StillImage"/>
    <dc:title>Abbildung für OPEN MIND Softwaredokumentation</dc:title>
    <dc:creator>
     <cc:Agent>
      <dc:title>OPEN MIND Technologies AG</dc:title>
     </cc:Agent>
    </dc:creator>
    <dc:rights>
     <cc:Agent>
      <dc:title>Alle Rechte vorbehalten.</dc:title>
     </cc:Agent>
    </dc:rights>
    <dc:publisher>
     <cc:Agent>
      <dc:title>Technische Redaktion</dc:title>
     </cc:Agent>
    </dc:publisher>
   </cc:Work>
  </rdf:RDF>
 </metadata>
 <path d="m250.62 28.502h167.05v121.7l-10.985-0.076-10.987-11.502v-21.753h-103.3v33.727h-41.694l-0.0858-122.1zm35.834 13.752h79.383l28.649 56.613h-81.921c-16.44-0.8942-26.109-10.682-26.113-27.052v-29.56h2e-3" clip-rule="evenodd" fill="url(#linearGradient20942)" fill-rule="evenodd" stroke="#4d4d4d" stroke-miterlimit="10" stroke-width=".67654"/>
 <path d="m292.33 149.79v-32.982l103.19 0.203v20.84" fill="none" stroke="#ee7f00" stroke-linecap="round" stroke-linejoin="round" stroke-miterlimit="10" stroke-width="2.2677"/>
 <g transform="translate(-224.04,-797.23)" stroke="#4d4d4d">
  <polygon transform="matrix(1.753,0,0,1.753,248.88,800.79)" points="77.418 58.185 78.681 75.628 76.73 86.761 75.467 69.318" fill="url(#linearGradient21527)" opacity=".69" stroke-width=".25"/>
  <g stroke-miterlimit="10">
   <g stroke-width=".25">
    <polygon transform="matrix(1.753,0,0,1.753,248.69,801.17)" points="11.716 18.6 10.456 1.053 96.092 15.125 97.391 33.078" clip-rule="evenodd" fill="url(#linearGradient21529)" fill-rule="evenodd" opacity=".68"/>
    <polygon transform="matrix(1.753,0,0,1.753,248.69,801.17)" points="11.716 18.6 10.456 1.053 0.125 62.717 1.377 80.67" clip-rule="evenodd" fill="url(#linearGradient21531)" fill-rule="evenodd" opacity=".68" stroke-linecap="round" stroke-linejoin="round"/>
    <polygon transform="matrix(1.753,0,0,1.753,248.69,801.17)" points="28.352 28.6 27.157 10.973 24.721 30.724 24.769 31.857 25.077 33.311 25.429 34.366 26.134 35.818 26.969 36.831 27.365 37.315" fill="url(#linearGradient21533)"/>
    <polygon transform="matrix(1.753,0,0,1.753,248.69,801.17)" points="68.876 17.583 68.876 35.322 28.352 28.6 27.157 10.973" fill="url(#linearGradient21535)"/>
   </g>
   <polygon transform="matrix(1.753,0,0,1.753,248.69,801.17)" points="78.858 48.732 79.602 66.439 68.876 35.322 68.876 17.583" fill="url(#linearGradient21537)" stroke-linecap="round" stroke-linejoin="round" stroke-width=".2501"/>
   <polygon transform="matrix(1.753,0,0,1.753,248.69,801.17)" points="78.858 48.732 79.52 66.957 37.607 59.541 36.477 41.478" fill="url(#linearGradient21539)" opacity=".5" stroke-width=".25"/>
   <path d="m292.02 855.03c0 10.385 8.1883 16.731 20.521 18.805l1.7635 31.638c-12.411-0.45402-20.519-8.4197-20.519-18.808z" fill="url(#linearGradient21541)" stroke-width=".43825"/>
  </g>
 </g>
 <polygon transform="matrix(1.753,0,0,1.753,24.65,3.94)" points="85.948 76.893 96.092 15.125 97.351 32.672 87.208 94.44" clip-rule="evenodd" fill="url(#linearGradient21543)" fill-rule="evenodd"/>
 <polygon transform="matrix(1.753,0,0,1.753,24.46,4.21)" points="87.208 94.44 81.604 93.373 80.344 75.827 85.948 76.893" clip-rule="evenodd" fill="url(#linearGradient21545)" fill-rule="evenodd" opacity=".65"/>
 <polygon transform="matrix(1.753,0,0,1.753,24.2,4.3)" points="22.957 84.082 1.573 80.561 0.313 63.03 21.697 66.536" clip-rule="evenodd" fill="url(#linearGradient21547)" fill-rule="evenodd"/>
 <polyline transform="matrix(1.753,0,0,1.753,24.65,3.94)" points="77.469 58.118 24.508 49.426 25.768 66.975 78.813 75.7 77.469 58.118" clip-rule="evenodd" fill="url(#linearGradient21549)" fill-rule="evenodd"/>
 <polygon transform="matrix(1.753,0,0,1.753,24.36,3.27)" points="81.604 93.373 76.903 86.716 75.644 69.169 80.344 75.827" clip-rule="evenodd" fill="url(#linearGradient21551)" fill-rule="evenodd" opacity=".65"/>
 <polygon transform="matrix(1.753,0,0,1.753,24.65,3.94)" points="25.768 66.975 22.957 84.082 21.697 66.536 24.508 49.426" clip-rule="evenodd" fill="#b3b3b3" fill-rule="evenodd" opacity=".65"/>
 <g transform="translate(-224.04,-797.23)" clip-rule="evenodd" fill="none" stroke="#4d4d4d" stroke-linecap="round" stroke-linejoin="round" stroke-miterlimit="10">
  <polygon transform="matrix(1.753,0,0,1.753,248.69,801.17)" points="85.948 76.893 96.092 15.125 97.351 32.672 87.208 94.44" stroke-width=".38593"/>
  <polygon transform="matrix(1.753,0,0,1.753,248.69,801.17)" points="80.344 75.827 85.948 76.893 87.208 94.44 81.604 93.373" stroke-width=".38593"/>
  <polygon transform="matrix(1.753,0,0,1.753,248.69,801.17)" points="21.697 66.536 22.957 84.082 1.573 80.561 0.313 63.03" stroke-width=".25"/>
 </g>
 <polyline transform="matrix(1.753,0,0,1.753,24.65,3.94)" points="77.469 58.118 77.469 58.118 78.729 75.664 76.046 75.225" clip-rule="evenodd" fill="none" opacity=".53" stroke="#4d4d4d" stroke-miterlimit="10" stroke-width=".25"/>
 <polyline transform="matrix(1.753,0,0,1.753,24.65,3.94)" points="76.046 75.225 25.768 66.975 24.508 49.426 77.469 58.118" clip-rule="evenodd" fill="none" stroke="#4d4d4d" stroke-miterlimit="10" stroke-width=".25"/>
 <polygon transform="matrix(1.753,0,0,1.753,24.65,3.94)" points="75.644 69.169 80.344 75.827 81.604 93.373 76.903 86.716" clip-rule="evenodd" fill="url(#linearGradient1641)" stroke="#4d4d4d" stroke-linecap="round" stroke-linejoin="round" stroke-miterlimit="10" stroke-width=".38593"/>
 <polygon transform="matrix(1.753,0,0,1.753,24.51,3.94)" points="21.697 66.536 0.313 63.03 10.456 1.053 96.092 15.125 85.948 76.893 80.344 75.827 75.644 69.169 77.469 58.118 24.508 49.426" clip-rule="evenodd" fill="none" stroke="#4d4d4d" stroke-linecap="round" stroke-linejoin="round" stroke-miterlimit="10" stroke-width=".38593"/>
 <polygon transform="matrix(1.753,0,0,1.753,24.65,3.94)" points="25.768 66.975 22.957 84.082 21.697 66.536 24.508 49.426" clip-rule="evenodd" fill="url(#linearGradient21553)" stroke="#4d4d4d" stroke-linecap="round" stroke-linejoin="round" stroke-miterlimit="10" stroke-width=".2501"/>
 <path d="m42.651 5.038 149.64 24.668-17.725 108.28-9.7924-1.8687-8.2127-11.672 3.189-19.373-92.543-15.237-4.9119 29.994-37.366-6.146z" fill="url(#linearGradient21555)" fill-rule="evenodd" opacity=".24242" stroke-miterlimit="10" stroke-width=".41166"/>
 <path d="m42.845 5.784-17.781 108.65 37.486 6.1465 4.9277-29.994 92.842 15.236-3.1992 19.373 8.2383 11.672 9.8242 1.8672 17.783-108.28zm29.412 17.391 73.133 11.588 17.498 54.604-74.381-12.771c-12.039-2.2361-20.262-7.431-20.521-18.797z" clip-rule="evenodd" fill="url(#linearGradient2085)" stroke="#4d4d4d" stroke-linecap="round" stroke-linejoin="round" stroke-miterlimit="10" stroke-width=".67654"/>
</svg>
