<?xml version="1.0" encoding="UTF-8"?>
<svg width="18cm" height="8cm" version="1.1" viewBox="0 0 180 80" xmlns="http://www.w3.org/2000/svg" xmlns:cc="http://creativecommons.org/ns#" xmlns:dc="http://purl.org/dc/elements/1.1/" xmlns:rdf="http://www.w3.org/1999/02/22-rdf-syntax-ns#">
 <metadata>
  <rdf:RDF>
   <cc:Work rdf:about="">
    <dc:format>image/svg+xml</dc:format>
    <dc:type rdf:resource="http://purl.org/dc/dcmitype/StillImage"/>
    <dc:title/>
   </cc:Work>
  </rdf:RDF>
 </metadata>
 <g transform="translate(2.6727 -308.12)">
  <ellipse cx="34.396" cy="324.11" rx="4.5" ry="4.5" fill="none" stroke="#000" stroke-linecap="round" stroke-linejoin="round" style="paint-order:markers fill stroke"/>
  <circle cx="34.396" cy="324.11" r=".39687"/>
 </g>
 <g transform="translate(2.6727 -261.55)">
  <ellipse cx="34.396" cy="324.11" rx="4.5" ry="4.5" fill="none" stroke="#000" stroke-linecap="round" stroke-linejoin="round" style="paint-order:markers fill stroke"/>
  <circle cx="34.396" cy="324.11" r=".39687"/>
 </g>
 <g transform="translate(2.6727 -273.19)">
  <ellipse cx="34.396" cy="324.11" rx="4.5" ry="4.5" fill="none" stroke="#000" stroke-linecap="round" stroke-linejoin="round" style="paint-order:markers fill stroke"/>
  <circle cx="34.396" cy="324.11" r=".39687"/>
 </g>
 <g transform="translate(2.6727 -284.83)">
  <ellipse cx="34.396" cy="324.11" rx="4.5" ry="4.5" fill="none" stroke="#000" stroke-linecap="round" stroke-linejoin="round" style="paint-order:markers fill stroke"/>
  <circle cx="34.396" cy="324.11" r=".39687"/>
 </g>
 <g transform="translate(2.6727 -296.48)">
  <ellipse cx="34.396" cy="324.11" rx="4.5" ry="4.5" fill="none" stroke="#000" stroke-linecap="round" stroke-linejoin="round" style="paint-order:markers fill stroke"/>
  <circle cx="34.396" cy="324.11" r=".39687"/>
 </g>
 <circle cx="48.181" cy="22.87" r="4.5" fill="none" stroke="#f0f" stroke-linecap="round" stroke-linejoin="round" style="paint-order:markers fill stroke"/>
 <circle cx="48.181" cy="22.87" r=".39687" fill="#f0f"/>
 <circle cx="48.181" cy="11.23" r="4.5" fill="none" stroke="#f0f" stroke-linecap="round" stroke-linejoin="round" style="paint-order:markers fill stroke"/>
 <circle cx="48.181" cy="11.23" r=".39687" fill="#f0f"/>
 <g transform="translate(13.785 -254.67)">
  <ellipse cx="34.396" cy="324.11" rx="4.5" ry="4.5" fill="none" stroke="#000" stroke-linecap="round" stroke-linejoin="round" style="paint-order:markers fill stroke"/>
  <circle cx="34.396" cy="324.11" r=".39687"/>
 </g>
 <g transform="translate(13.785 -266.31)">
  <ellipse cx="34.396" cy="324.11" rx="4.5" ry="4.5" fill="none" stroke="#000" stroke-linecap="round" stroke-linejoin="round" style="paint-order:markers fill stroke"/>
  <circle cx="34.396" cy="324.11" r=".39687"/>
 </g>
 <g transform="translate(13.785 -277.96)">
  <ellipse cx="34.396" cy="324.11" rx="4.5" ry="4.5" fill="none" stroke="#000" stroke-linecap="round" stroke-linejoin="round" style="paint-order:markers fill stroke"/>
  <circle cx="34.396" cy="324.11" r=".39687"/>
 </g>
 <circle cx="48.181" cy="34.51" r="4.5" fill="none" stroke="#f0f" stroke-linecap="round" stroke-linejoin="round" style="paint-order:markers fill stroke"/>
 <circle cx="48.181" cy="34.51" r=".39687" fill="#f0f"/>
 <g transform="translate(-7.9106 -301.77)">
  <ellipse cx="34.396" cy="324.11" rx="4.5" ry="4.5" fill="none" stroke="#000" stroke-linecap="round" stroke-linejoin="round" style="paint-order:markers fill stroke"/>
  <circle cx="34.396" cy="324.11" r=".39687"/>
 </g>
 <g transform="translate(-7.9106 -313.41)">
  <ellipse cx="34.396" cy="324.11" rx="4.5" ry="4.5" fill="none" stroke="#000" stroke-linecap="round" stroke-linejoin="round" style="paint-order:markers fill stroke"/>
  <circle cx="34.396" cy="324.11" r=".39687"/>
 </g>
 <g transform="translate(-7.9106 -255.2)">
  <ellipse cx="34.396" cy="324.11" rx="4.5" ry="4.5" fill="none" stroke="#000" stroke-linecap="round" stroke-linejoin="round" style="paint-order:markers fill stroke"/>
  <circle cx="34.396" cy="324.11" r=".39687"/>
 </g>
 <g transform="translate(-7.9106 -266.84)">
  <ellipse cx="34.396" cy="324.11" rx="4.5" ry="4.5" fill="none" stroke="#000" stroke-linecap="round" stroke-linejoin="round" style="paint-order:markers fill stroke"/>
  <circle cx="34.396" cy="324.11" r=".39687"/>
 </g>
 <g transform="translate(-7.9106 -278.48)">
  <ellipse cx="34.396" cy="324.11" rx="4.5" ry="4.5" fill="none" stroke="#000" stroke-linecap="round" stroke-linejoin="round" style="paint-order:markers fill stroke"/>
  <circle cx="34.396" cy="324.11" r=".39687"/>
 </g>
 <g transform="translate(-7.9106 -290.13)">
  <ellipse cx="34.396" cy="324.11" rx="4.5" ry="4.5" fill="none" stroke="#000" stroke-linecap="round" stroke-linejoin="round" style="paint-order:markers fill stroke"/>
  <circle cx="34.396" cy="324.11" r=".39687"/>
 </g>
 <circle cx="59.294" cy="28.69" r="4.5" fill="none" stroke="#f0f" stroke-linecap="round" stroke-linejoin="round" style="paint-order:markers fill stroke"/>
 <circle cx="59.294" cy="28.69" r=".39687" fill="#f0f"/>
 <circle cx="59.294" cy="17.05" r="4.5" fill="none" stroke="#f0f" stroke-linecap="round" stroke-linejoin="round" style="paint-order:markers fill stroke"/>
 <circle cx="59.294" cy="17.05" r=".39687" fill="#f0f"/>
 <g transform="translate(24.898 -260.49)">
  <ellipse cx="34.396" cy="324.11" rx="4.5" ry="4.5" fill="none" stroke="#000" stroke-linecap="round" stroke-linejoin="round" style="paint-order:markers fill stroke"/>
  <circle cx="34.396" cy="324.11" r=".39687"/>
 </g>
 <g transform="translate(24.898 -272.13)">
  <ellipse cx="34.396" cy="324.11" rx="4.5" ry="4.5" fill="none" stroke="#000" stroke-linecap="round" stroke-linejoin="round" style="paint-order:markers fill stroke"/>
  <circle cx="34.396" cy="324.11" r=".39687"/>
 </g>
 <g transform="translate(24.898 -283.78)">
  <ellipse cx="34.396" cy="324.11" rx="4.5" ry="4.5" fill="none" stroke="#000" stroke-linecap="round" stroke-linejoin="round" style="paint-order:markers fill stroke"/>
  <circle cx="34.396" cy="324.11" r=".39687"/>
 </g>
 <g transform="translate(-18.494 -295.95)">
  <ellipse cx="34.396" cy="324.11" rx="4.5" ry="4.5" fill="none" stroke="#000" stroke-linecap="round" stroke-linejoin="round" style="paint-order:markers fill stroke"/>
  <circle cx="34.396" cy="324.11" r=".39687"/>
 </g>
 <g transform="translate(-18.494 -307.59)">
  <ellipse cx="34.396" cy="324.11" rx="4.5" ry="4.5" fill="none" stroke="#000" stroke-linecap="round" stroke-linejoin="round" style="paint-order:markers fill stroke"/>
  <circle cx="34.396" cy="324.11" r=".39687"/>
 </g>
 <g transform="translate(-18.494 -261.02)">
  <ellipse cx="34.396" cy="324.11" rx="4.5" ry="4.5" fill="none" stroke="#000" stroke-linecap="round" stroke-linejoin="round" style="paint-order:markers fill stroke"/>
  <circle cx="34.396" cy="324.11" r=".39687"/>
 </g>
 <g transform="translate(-18.494 -272.66)">
  <ellipse cx="34.396" cy="324.11" rx="4.5" ry="4.5" fill="none" stroke="#000" stroke-linecap="round" stroke-linejoin="round" style="paint-order:markers fill stroke"/>
  <circle cx="34.396" cy="324.11" r=".39687"/>
 </g>
 <g transform="translate(-18.494 -284.31)">
  <ellipse cx="34.396" cy="324.11" rx="4.5" ry="4.5" fill="none" stroke="#000" stroke-linecap="round" stroke-linejoin="round" style="paint-order:markers fill stroke"/>
  <circle cx="34.396" cy="324.11" r=".39687"/>
 </g>
 <g transform="matrix(.26458 0 0 .26458 -1.9461 -5.4794)" stroke-linecap="round" stroke-linejoin="round" stroke-width="1.8898">
  <g transform="rotate(-59.09 134.78 172.55)" fill="#0f0" stroke="#0f0">
   <path d="m185 157.64-20.624 6.4215 5.206 8.707c8.2105-7.0026 15.418-15.128 15.418-15.128z"/>
   <path d="m174.2 164.03-29.443 17.393"/>
  </g>
  <g transform="rotate(-28.115 122.25 169.14)" fill="#f00" stroke="#f00">
   <path d="m183.63 203.52-20.719-6.1073 5.0731-8.7851c8.316 6.877 15.646 14.892 15.646 14.892z"/>
   <path d="m173.54 197.43-28.882-15.871"/>
  </g>
 </g>
 <g transform="translate(105.86 -308.12)">
  <ellipse cx="34.396" cy="324.11" rx="4.5" ry="4.5" fill="none" stroke="#000" stroke-linecap="round" stroke-linejoin="round" style="paint-order:markers fill stroke"/>
  <circle cx="34.396" cy="324.11" r=".39687"/>
 </g>
 <g transform="translate(105.86 -261.55)">
  <ellipse cx="34.396" cy="324.11" rx="4.5" ry="4.5" fill="none" stroke="#000" stroke-linecap="round" stroke-linejoin="round" style="paint-order:markers fill stroke"/>
  <circle cx="34.396" cy="324.11" r=".39687"/>
 </g>
 <g transform="translate(105.86 -273.19)">
  <ellipse cx="34.396" cy="324.11" rx="4.5" ry="4.5" fill="none" stroke="#000" stroke-linecap="round" stroke-linejoin="round" style="paint-order:markers fill stroke"/>
  <circle cx="34.396" cy="324.11" r=".39687"/>
 </g>
 <g transform="translate(105.86 -284.83)">
  <ellipse cx="34.396" cy="324.11" rx="4.5" ry="4.5" fill="none" stroke="#000" stroke-linecap="round" stroke-linejoin="round" style="paint-order:markers fill stroke"/>
  <circle cx="34.396" cy="324.11" r=".39687"/>
 </g>
 <g transform="translate(105.86 -296.48)">
  <ellipse cx="34.396" cy="324.11" rx="4.5" ry="4.5" fill="none" stroke="#000" stroke-linecap="round" stroke-linejoin="round" style="paint-order:markers fill stroke"/>
  <circle cx="34.396" cy="324.11" r=".39687"/>
 </g>
 <g transform="translate(116.97 -301.24)" stroke="#f0f" stroke-linecap="round" stroke-linejoin="round">
  <ellipse cx="34.396" cy="324.11" rx="4.5" ry="4.5" fill="none" style="paint-order:markers fill stroke"/>
  <circle cx="34.396" cy="324.11" r=".39687" stroke-width=".26458"/>
 </g>
 <g transform="translate(116.97 -312.88)" stroke="#f0f" stroke-linecap="round" stroke-linejoin="round">
  <ellipse cx="34.396" cy="324.11" rx="4.5" ry="4.5" fill="none" style="paint-order:markers fill stroke"/>
  <circle cx="34.396" cy="324.11" r=".39687" stroke-width=".26458"/>
 </g>
 <g transform="translate(116.97 -254.67)">
  <ellipse cx="34.396" cy="324.11" rx="4.5" ry="4.5" fill="none" stroke="#000" stroke-linecap="round" stroke-linejoin="round" style="paint-order:markers fill stroke"/>
  <circle cx="34.396" cy="324.11" r=".39687"/>
 </g>
 <g transform="translate(116.97 -266.31)">
  <ellipse cx="34.396" cy="324.11" rx="4.5" ry="4.5" fill="none" stroke="#000" stroke-linecap="round" stroke-linejoin="round" style="paint-order:markers fill stroke"/>
  <circle cx="34.396" cy="324.11" r=".39687"/>
 </g>
 <g transform="translate(116.97 -277.96)">
  <ellipse cx="34.396" cy="324.11" rx="4.5" ry="4.5" fill="none" stroke="#000" stroke-linecap="round" stroke-linejoin="round" style="paint-order:markers fill stroke"/>
  <circle cx="34.396" cy="324.11" r=".39687"/>
 </g>
 <g transform="translate(116.97 -289.6)" stroke="#f0f" stroke-linecap="round" stroke-linejoin="round">
  <ellipse cx="34.396" cy="324.11" rx="4.5" ry="4.5" fill="none" style="paint-order:markers fill stroke"/>
  <circle cx="34.396" cy="324.11" r=".39687" stroke-width=".26458"/>
 </g>
 <g transform="translate(95.277 -301.77)">
  <ellipse cx="34.396" cy="324.11" rx="4.5" ry="4.5" fill="none" stroke="#000" stroke-linecap="round" stroke-linejoin="round" style="paint-order:markers fill stroke"/>
  <circle cx="34.396" cy="324.11" r=".39687"/>
 </g>
 <g transform="translate(95.277 -313.41)">
  <ellipse cx="34.396" cy="324.11" rx="4.5" ry="4.5" fill="none" stroke="#000" stroke-linecap="round" stroke-linejoin="round" style="paint-order:markers fill stroke"/>
  <circle cx="34.396" cy="324.11" r=".39687"/>
 </g>
 <circle cx="129.67" cy="68.91" r="4.5" fill="none" stroke="#008000" stroke-linecap="round" stroke-linejoin="round" style="paint-order:markers fill stroke"/>
 <circle cx="129.67" cy="68.91" r=".39687"/>
 <circle cx="129.67" cy="57.27" r="4.5" fill="none" stroke="#008000" stroke-linecap="round" stroke-linejoin="round" style="paint-order:markers fill stroke"/>
 <circle cx="129.67" cy="57.27" r=".39687"/>
 <circle cx="129.67" cy="45.63" r="4.5" fill="none" stroke="#008000" stroke-linecap="round" stroke-linejoin="round" style="paint-order:markers fill stroke"/>
 <circle cx="129.67" cy="45.63" r=".39687"/>
 <g transform="translate(95.277 -290.13)">
  <ellipse cx="34.396" cy="324.11" rx="4.5" ry="4.5" fill="none" stroke="#000" stroke-linecap="round" stroke-linejoin="round" style="paint-order:markers fill stroke"/>
  <circle cx="34.396" cy="324.11" r=".39687"/>
 </g>
 <g transform="translate(128.09 -295.42)" stroke="#f0f" stroke-linecap="round" stroke-linejoin="round">
  <ellipse cx="34.396" cy="324.11" rx="4.5" ry="4.5" fill="none" style="paint-order:markers fill stroke"/>
  <circle cx="34.396" cy="324.11" r=".39687" stroke-width=".26458"/>
 </g>
 <g transform="translate(128.09 -307.06)" stroke="#f0f" stroke-linecap="round" stroke-linejoin="round">
  <ellipse cx="34.396" cy="324.11" rx="4.5" ry="4.5" fill="none" style="paint-order:markers fill stroke"/>
  <circle cx="34.396" cy="324.11" r=".39687" stroke-width=".26458"/>
 </g>
 <g transform="translate(128.09 -260.49)">
  <ellipse cx="34.396" cy="324.11" rx="4.5" ry="4.5" fill="none" stroke="#000" stroke-linecap="round" stroke-linejoin="round" style="paint-order:markers fill stroke"/>
  <circle cx="34.396" cy="324.11" r=".39687"/>
 </g>
 <g transform="translate(128.09 -272.13)">
  <ellipse cx="34.396" cy="324.11" rx="4.5" ry="4.5" fill="none" stroke="#000" stroke-linecap="round" stroke-linejoin="round" style="paint-order:markers fill stroke"/>
  <circle cx="34.396" cy="324.11" r=".39687"/>
 </g>
 <g transform="translate(128.09 -283.78)">
  <ellipse cx="34.396" cy="324.11" rx="4.5" ry="4.5" fill="none" stroke="#000" stroke-linecap="round" stroke-linejoin="round" style="paint-order:markers fill stroke"/>
  <circle cx="34.396" cy="324.11" r=".39687"/>
 </g>
 <g transform="translate(84.694 -295.95)">
  <ellipse cx="34.396" cy="324.11" rx="4.5" ry="4.5" fill="none" stroke="#000" stroke-linecap="round" stroke-linejoin="round" style="paint-order:markers fill stroke"/>
  <circle cx="34.396" cy="324.11" r=".39687"/>
 </g>
 <g transform="translate(84.694 -307.59)">
  <ellipse cx="34.396" cy="324.11" rx="4.5" ry="4.5" fill="none" stroke="#000" stroke-linecap="round" stroke-linejoin="round" style="paint-order:markers fill stroke"/>
  <circle cx="34.396" cy="324.11" r=".39687"/>
 </g>
 <circle cx="119.09" cy="63.09" r="4.5" fill="none" stroke="#008000" stroke-linecap="round" stroke-linejoin="round" style="paint-order:markers fill stroke"/>
 <circle cx="119.09" cy="63.09" r=".39687"/>
 <circle cx="119.09" cy="51.45" r="4.5" fill="none" stroke="#008000" stroke-linecap="round" stroke-linejoin="round" style="paint-order:markers fill stroke"/>
 <circle cx="119.09" cy="51.45" r=".39687"/>
 <g transform="translate(84.694 -284.31)">
  <ellipse cx="34.396" cy="324.11" rx="4.5" ry="4.5" fill="none" stroke="#000" stroke-linecap="round" stroke-linejoin="round" style="paint-order:markers fill stroke"/>
  <circle cx="34.396" cy="324.11" r=".39687"/>
 </g>
 <g transform="matrix(.26458 0 0 .26458 101.24 -5.4795)" stroke-linecap="round" stroke-linejoin="round" stroke-width="1.8898">
  <g transform="rotate(-59.09 134.78 172.55)" fill="#0f0" stroke="#0f0">
   <path d="m185 157.64-20.624 6.4215 5.206 8.707c8.2105-7.0026 15.418-15.128 15.418-15.128z"/>
   <path d="m174.2 164.03-29.443 17.393"/>
  </g>
  <g transform="rotate(-28.115 122.25 169.14)" fill="#f00" stroke="#f00">
   <path d="m183.63 203.52-20.719-6.1073 5.0731-8.7851c8.316 6.877 15.646 14.892 15.646 14.892z"/>
   <path d="m173.54 197.43-28.882-15.871"/>
  </g>
 </g>
 <g transform="matrix(.07718 0 0 .076397 74.204 28.134)" fill="#1f638a" stroke="#1f638a" stroke-linecap="round" stroke-linejoin="round" stroke-width="1.3023">
  <path d="m207.49 126.25 34.17 21.614-34.17 21.614z"/>
  <rect x="172.19" y="137.99" width="39.213" height="19.761"/>
 </g>
</svg>
