<?xml version="1.0" encoding="UTF-8"?>
<svg width="18cm" height="4.5cm" version="1.1" viewBox="0 0 180 45" xmlns="http://www.w3.org/2000/svg" xmlns:cc="http://creativecommons.org/ns#" xmlns:dc="http://purl.org/dc/elements/1.1/" xmlns:rdf="http://www.w3.org/1999/02/22-rdf-syntax-ns#">
 <metadata>
  <rdf:RDF>
   <cc:Work rdf:about="">
    <dc:format>image/svg+xml</dc:format>
    <dc:type rdf:resource="http://purl.org/dc/dcmitype/StillImage"/>
    <dc:title/>
   </cc:Work>
  </rdf:RDF>
 </metadata>
 <text x="47.767609" y="4.9088688" fill="#000000" font-family="'Arial Nova', 'Arial Unicode MS', 'Yu Gothic UI', sans-serif" font-size="3.3867px" letter-spacing="0px" stroke="#000000" stroke-width=".28222" word-spacing="0px" style="line-height:0%" xml:space="preserve"><tspan x="47.767609" y="4.9088688" fill="#000000" font-family="'Arial Nova', 'Arial Unicode MS', 'Yu Gothic UI', sans-serif" font-size="2.8222px" stroke="#000000" stroke-width=".28222" style="line-height:1.25">MAX LENGTH = 50 mm </tspan></text>
 <path d="m46.682 24.701h29.328" fill="none" stroke="#000" stroke-linecap="round" stroke-width=".5"/>
 <path d="m46.682 23.669 29.328-5.161" fill="none" stroke="#000" stroke-linecap="round" stroke-width=".5"/>
 <path d="m46.682 22.57 29.328-10.653" fill="none" stroke="#000" stroke-linecap="round" stroke-width=".5"/>
 <path d="m45.896 21.774 25.399-14.635" fill="none" stroke="#000" stroke-linecap="round" stroke-width=".5"/>
 <path d="m44.311 21.774 17.476-14.635" fill="none" stroke="#000" stroke-linecap="round" stroke-width=".5"/>
 <path d="m43.277 21.774 12.305-14.635" fill="none" stroke="#000" stroke-linecap="round" stroke-width=".5"/>
 <path d="m42.509 21.774 8.4663-14.635" fill="none" stroke="#000" stroke-linecap="round" stroke-width=".5"/>
 <path d="m41.883 21.774 5.3373-14.635" fill="none" stroke="#000" stroke-linecap="round" stroke-width=".5"/>
 <path d="m41.333 21.774 2.5857-14.635" fill="none" stroke="#000" stroke-linecap="round" stroke-width=".5"/>
 <path d="m40.816 21.774v-14.635" fill="none" stroke="#000" stroke-linecap="round" stroke-width=".5"/>
 <path d="m40.299 21.774-2.5857-14.635" fill="none" stroke="#000" stroke-linecap="round" stroke-width=".5"/>
 <path d="m39.748 21.774-5.3373-14.635" fill="none" stroke="#000" stroke-linecap="round" stroke-width=".5"/>
 <path d="m39.123 21.774-8.4663-14.635" fill="none" stroke="#000" stroke-linecap="round" stroke-width=".5"/>
 <path d="m38.355 21.774-12.305-14.635" fill="none" stroke="#000" stroke-linecap="round" stroke-width=".5"/>
 <path d="m37.321 21.774-17.476-14.635" fill="none" stroke="#000" stroke-linecap="round" stroke-width=".5"/>
 <path d="m35.736 21.774-25.399-14.635" fill="none" stroke="#000" stroke-linecap="round" stroke-width=".5"/>
 <path d="m34.95 22.57-29.328-10.653" fill="none" stroke="#000" stroke-linecap="round" stroke-width=".5"/>
 <path d="m34.95 23.669-29.328-5.161" fill="none" stroke="#000" stroke-linecap="round" stroke-width=".5"/>
 <path d="m34.95 24.701h-29.328" fill="none" stroke="#000" stroke-linecap="round" stroke-width=".5"/>
 <path d="m34.95 25.733-29.328 5.161" fill="none" stroke="#000" stroke-linecap="round" stroke-width=".5"/>
 <path d="m34.95 26.831-29.328 10.653" fill="none" stroke="#000" stroke-linecap="round" stroke-width=".5"/>
 <path d="m35.736 27.628-25.399 14.635" fill="none" stroke="#000" stroke-linecap="round" stroke-width=".5"/>
 <path d="m37.321 27.628-17.476 14.635" fill="none" stroke="#000" stroke-linecap="round" stroke-width=".5"/>
 <path d="m38.355 27.628-12.305 14.635" fill="none" stroke="#000" stroke-linecap="round" stroke-width=".5"/>
 <path d="m39.123 27.628-8.4663 14.635" fill="none" stroke="#000" stroke-linecap="round" stroke-width=".5"/>
 <path d="m39.748 27.628-5.3373 14.635" fill="none" stroke="#000" stroke-linecap="round" stroke-width=".5"/>
 <path d="m40.299 27.628-2.5857 14.635" fill="none" stroke="#000" stroke-linecap="round" stroke-width=".5"/>
 <path d="m40.816 27.628v14.635" fill="none" stroke="#000" stroke-linecap="round" stroke-width=".5"/>
 <path d="m41.333 27.628 2.5857 14.635" fill="none" stroke="#000" stroke-linecap="round" stroke-width=".5"/>
 <path d="m41.883 27.628 5.3373 14.635" fill="none" stroke="#000" stroke-linecap="round" stroke-width=".5"/>
 <path d="m42.509 27.628 8.4663 14.635" fill="none" stroke="#000" stroke-linecap="round" stroke-width=".5"/>
 <path d="m43.277 27.628 12.305 14.635" fill="none" stroke="#000" stroke-linecap="round" stroke-width=".5"/>
 <path d="m44.311 27.628 17.476 14.635" fill="none" stroke="#000" stroke-linecap="round" stroke-width=".5"/>
 <path d="m45.896 27.628 25.399 14.635" fill="none" stroke="#000" stroke-linecap="round" stroke-width=".5"/>
 <path d="m46.682 26.831 29.328 10.653" fill="none" stroke="#000" stroke-linecap="round" stroke-width=".5"/>
 <path d="m46.682 25.733 29.328 5.161" fill="none" stroke="#000" stroke-linecap="round" stroke-width=".5"/>
 <path d="m148.28 24.701h29.328" fill="none" stroke="#000" stroke-linecap="round" stroke-width=".5"/>
 <path d="m148.28 23.669 29.328-5.161" fill="none" stroke="#000" stroke-linecap="round" stroke-width=".5"/>
 <path d="m148.28 22.57 29.328-10.653" fill="none" stroke="#000" stroke-linecap="round" stroke-width=".5"/>
 <path d="m147.5 21.774 25.399-14.635" fill="none" stroke="#000" stroke-linecap="round" stroke-width=".5"/>
 <path d="m145.91 21.774 17.476-14.635" fill="none" stroke="#f00" stroke-linecap="round" stroke-width=".5"/>
 <path d="m144.88 21.774 12.305-14.635" fill="none" stroke="#f00" stroke-linecap="round" stroke-width=".5"/>
 <path d="m144.11 21.774 8.4663-14.635" fill="none" stroke="#f00" stroke-linecap="round" stroke-width=".5"/>
 <path d="m143.48 21.774 5.3373-14.635" fill="none" stroke="#f00" stroke-linecap="round" stroke-width=".5"/>
 <path d="m142.93 21.774 2.5857-14.635" fill="none" stroke="#f00" stroke-linecap="round" stroke-width=".5"/>
 <path d="m142.42 21.774v-14.635" fill="none" stroke="#f00" stroke-linecap="round" stroke-width=".5"/>
 <path d="m141.9 21.774-2.5857-14.635" fill="none" stroke="#f00" stroke-linecap="round" stroke-width=".5"/>
 <path d="m141.35 21.774-5.3373-14.635" fill="none" stroke="#f00" stroke-linecap="round" stroke-width=".5"/>
 <path d="m140.72 21.774-8.4663-14.635" fill="none" stroke="#f00" stroke-linecap="round" stroke-width=".5"/>
 <path d="m139.96 21.774-12.305-14.635" fill="none" stroke="#f00" stroke-linecap="round" stroke-width=".5"/>
 <path d="m138.92 21.774-17.476-14.635" fill="none" stroke="#f00" stroke-linecap="round" stroke-width=".5"/>
 <path d="m137.34 21.774-25.399-14.635" fill="none" stroke="#000" stroke-linecap="round" stroke-width=".5"/>
 <path d="m136.55 22.57-29.328-10.653" fill="none" stroke="#000" stroke-linecap="round" stroke-width=".5"/>
 <path d="m136.55 23.669-29.328-5.161" fill="none" stroke="#000" stroke-linecap="round" stroke-width=".5"/>
 <path d="m136.55 24.701h-29.328" fill="none" stroke="#000" stroke-linecap="round" stroke-width=".5"/>
 <path d="m136.55 25.733-29.328 5.161" fill="none" stroke="#000" stroke-linecap="round" stroke-width=".5"/>
 <path d="m136.55 26.831-29.328 10.653" fill="none" stroke="#000" stroke-linecap="round" stroke-width=".5"/>
 <path d="m137.34 27.628-25.399 14.635" fill="none" stroke="#000" stroke-linecap="round" stroke-width=".5"/>
 <path d="m138.92 27.628-17.476 14.635" fill="none" stroke="#f00" stroke-linecap="round" stroke-width=".5"/>
 <path d="m139.96 27.628-12.305 14.635" fill="none" stroke="#f00" stroke-linecap="round" stroke-width=".5"/>
 <path d="m140.72 27.628-8.4663 14.635" fill="none" stroke="#f00" stroke-linecap="round" stroke-width=".5"/>
 <path d="m141.35 27.628-5.3373 14.635" fill="none" stroke="#f00" stroke-linecap="round" stroke-width=".5"/>
 <path d="m141.9 27.628-2.5857 14.635" fill="none" stroke="#f00" stroke-linecap="round" stroke-width=".5"/>
 <path d="m142.42 27.628v14.635" fill="none" stroke="#f00" stroke-linecap="round" stroke-width=".5"/>
 <path d="m142.93 27.628 2.5857 14.635" fill="none" stroke="#f00" stroke-linecap="round" stroke-width=".5"/>
 <path d="m143.48 27.628 5.3373 14.635" fill="none" stroke="#f00" stroke-linecap="round" stroke-width=".5"/>
 <path d="m144.11 27.628 8.4663 14.635" fill="none" stroke="#f00" stroke-linecap="round" stroke-width=".5"/>
 <path d="m144.88 27.628 12.305 14.635" fill="none" stroke="#f00" stroke-linecap="round" stroke-width=".5"/>
 <path d="m145.91 27.628 17.476 14.635" fill="none" stroke="#f00" stroke-linecap="round" stroke-width=".5"/>
 <path d="m147.5 27.628 25.399 14.635" fill="none" stroke="#000" stroke-linecap="round" stroke-width=".5"/>
 <path d="m148.28 26.831 29.328 10.653" fill="none" stroke="#000" stroke-linecap="round" stroke-width=".5"/>
 <path d="m148.28 25.733 29.328 5.161" fill="none" stroke="#000" stroke-linecap="round" stroke-width=".5"/>
 <g transform="matrix(.07718 0 0 .076397 82.096 13.245)" fill="#1f638a" stroke="#1f638a" stroke-linecap="round" stroke-linejoin="round" stroke-width="1.3023">
  <path d="m207.49 126.25 34.17 21.614-34.17 21.614z"/>
  <rect x="172.19" y="137.99" width="39.213" height="19.761"/>
 </g>
 <text fill="none" font-family="'Arial Nova', 'Arial Unicode MS', 'Yu Gothic UI', sans-serif" font-size="2.8222px" letter-spacing="0px" stroke="#000000" stroke-width=".26458px" word-spacing="0px" style="line-height:0;shape-inside:url(#rect4652);white-space:pre" xml:space="preserve"/>
</svg>
