<?xml version="1.0" encoding="UTF-8" standalone="no"?>
<!-- Created with Inkscape (http://www.inkscape.org/) -->

<svg
   width="32"
   height="32"
   version="1.1"
   viewBox="0 0 32 32"
   id="svg18"
   sodipodi:docname="Manuell_bewegen_um_Z2.svg"
   inkscape:version="1.2.2 (732a01da63, 2022-12-09)"
   xmlns:inkscape="http://www.inkscape.org/namespaces/inkscape"
   xmlns:sodipodi="http://sodipodi.sourceforge.net/DTD/sodipodi-0.dtd"
   xmlns="http://www.w3.org/2000/svg"
   xmlns:svg="http://www.w3.org/2000/svg"
   xmlns:rdf="http://www.w3.org/1999/02/22-rdf-syntax-ns#"
   xmlns:cc="http://creativecommons.org/ns#"
   xmlns:dc="http://purl.org/dc/elements/1.1/">
  <defs
     id="defs22" />
  <sodipodi:namedview
     id="namedview20"
     pagecolor="#ffffff"
     bordercolor="#000000"
     borderopacity="0.25"
     inkscape:showpageshadow="2"
     inkscape:pageopacity="0.0"
     inkscape:pagecheckerboard="0"
     inkscape:deskcolor="#d1d1d1"
     showgrid="false"
     inkscape:zoom="20.85965"
     inkscape:cx="10.762405"
     inkscape:cy="18.624474"
     inkscape:window-width="1920"
     inkscape:window-height="1111"
     inkscape:window-x="2391"
     inkscape:window-y="-9"
     inkscape:window-maximized="1"
     inkscape:current-layer="svg18" />
  <metadata
     id="metadata2">
    <rdf:RDF>
      <cc:Work
         rdf:about="">
        <dc:format>image/svg+xml</dc:format>
        <dc:type
           rdf:resource="http://purl.org/dc/dcmitype/StillImage" />
      </cc:Work>
    </rdf:RDF>
  </metadata>
  <g
     fill="#0000ff"
     style="stroke:#000000;stroke-linejoin:round;paint-order:fill markers stroke"
     aria-label="C"
     id="g8"
     transform="translate(-18,-284.3)">
    <path
       d="m 25.51,302.6 c -1.3245,-0.0643 -2.5407,0.84936 -2.9938,2.0696 -0.5874,1.5193 -0.57737,3.2532 -0.08994,4.798 0.37606,1.2237 1.4593,2.275 2.7854,2.3111 1.3294,0.14503 2.6142,-0.71347 3.1262,-1.9235 0.18703,-0.37026 0.16296,-0.97469 0.69308,-0.67537 0.74955,0.17651 1.4991,0.35303 2.2487,0.52954 -0.39299,1.8472 -1.7517,3.4806 -3.5693,4.0594 -1.7105,0.53883 -3.6549,0.45071 -5.2681,-0.35489 -1.7946,-0.89797 -2.8061,-2.8479 -3.0445,-4.7791 -0.30158,-2.2522 -0.01803,-4.7907 1.5801,-6.5293 1.4825,-1.6381 3.8805,-2.0726 5.9811,-1.7032 1.6961,0.25224 3.2393,1.3916 3.878,2.9983 0.19253,0.41187 0.47592,0.93751 -0.17204,0.9138 -0.73388,0.17593 -1.4678,0.35186 -2.2016,0.52779 -0.2748,-1.1295 -1.2143,-2.1072 -2.4065,-2.2072 -0.1811,-0.0243 -0.36391,-0.035 -0.54659,-0.035 z"
       id="path6" />
  </g>
  <g
     id="g330"
     transform="matrix(-1,0,0,1,31.874622,-0.09587889)">
    <path
       d="M 6.6169,8.38 0.96,2.7231 l 1.4143,15.556 15.556,1.4143 -5.6569,-5.6569 1.1081,-1.072"
       fill="none"
       style="stroke:#000000;stroke-linejoin:round;paint-order:fill markers stroke"
       id="path4" />
    <path
       d="m 6.3857,8.01 a 15.216,15.216 0 0 1 11.999,-5.307 15.216,15.216 0 0 1 11.667,6.0019"
       fill="none"
       stroke-linecap="round"
       id="path10"
       style="stroke:#000000;stroke-linejoin:round" />
    <path
       d="m 12.408,14.06 a 6.7811,6.7811 0 0 1 4.4033,-2.8706 6.7811,6.7811 0 0 1 5.1317,1.1383"
       fill="none"
       stroke-linecap="round"
       id="path12"
       style="stroke:#000000;stroke-linejoin:round" />
  </g>
</svg>
