<?xml version="1.0" encoding="UTF-8" standalone="no"?>
<!-- Created with Inkscape (http://www.inkscape.org/) -->

<svg
   width="48.0px"
   height="48.0px"
   viewBox="0 0 48.0 48.0"
   version="1.1"
   id="SVGRoot"
   sodipodi:docname="Skripte_stoppen.svg"
   inkscape:version="1.2.2 (732a01da63, 2022-12-09)"
   xmlns:inkscape="http://www.inkscape.org/namespaces/inkscape"
   xmlns:sodipodi="http://sodipodi.sourceforge.net/DTD/sodipodi-0.dtd"
   xmlns="http://www.w3.org/2000/svg"
   xmlns:svg="http://www.w3.org/2000/svg">
  <sodipodi:namedview
     id="namedview3854"
     pagecolor="#ffffff"
     bordercolor="#000000"
     borderopacity="0.25"
     inkscape:showpageshadow="2"
     inkscape:pageopacity="0.0"
     inkscape:pagecheckerboard="false"
     inkscape:deskcolor="#d1d1d1"
     inkscape:document-units="px"
     showgrid="true"
     inkscape:zoom="11.816274"
     inkscape:cx="28.519989"
     inkscape:cy="21.918923"
     inkscape:window-width="1680"
     inkscape:window-height="979"
     inkscape:window-x="3832"
     inkscape:window-y="19"
     inkscape:window-maximized="1"
     inkscape:current-layer="layer1">
    <inkscape:grid
       type="xygrid"
       id="grid4340" />
  </sodipodi:namedview>
  <defs
     id="defs3849" />
  <g
     inkscape:label="Ebene 1"
     inkscape:groupmode="layer"
     id="layer1">
    <path
       style="vector-effect:none;fill:#ffffff;fill-opacity:1;fill-rule:nonzero;stroke:#000000;stroke-width:1.02272;stroke-linecap:round;stroke-linejoin:round;stroke-miterlimit:4;stroke-dasharray:none;stroke-dashoffset:0;stroke-opacity:1;paint-order:markers fill stroke"
       d="M 47.488642,33.831734 33.65672,47.488638 H 14.198106 L 0.51136392,33.584495 V 14.168268 L 14.445872,0.51136392 H 33.904499 L 47.488642,14.415507 Z"
       id="path2406"
       inkscape:connector-curvature="0"
       sodipodi:nodetypes="ccccccccc" />
    <g
       aria-label="STOP"
       style="font-style:normal;font-variant:normal;font-weight:normal;font-stretch:normal;font-size:2.13228px;line-height:125%;font-family:sans-serif;-inkscape-font-specification:sans-serif;font-variant-ligatures:normal;font-variant-caps:normal;font-variant-numeric:normal;font-feature-settings:normal;text-align:start;letter-spacing:0px;word-spacing:0px;writing-mode:lr-tb;text-anchor:start;fill:#000000;fill-opacity:1;stroke:none;stroke-width:0.0863071px;stroke-linecap:butt;stroke-linejoin:miter;stroke-opacity:1"
       id="text2411"
       transform="matrix(11.112156,0,0,11.600621,-367.65313,-574.16863)">
      <path
         d="m 34.093983,51.230859 h -0.407092 v -0.124938 q 0,-0.08746 -0.01562,-0.111404 -0.01562,-0.02395 -0.05206,-0.02395 -0.03956,0 -0.06039,0.03227 -0.01978,0.03228 -0.01978,0.09787 0,0.08433 0.02291,0.127021 0.02186,0.04269 0.123897,0.103074 0.292565,0.173873 0.368569,0.285276 0.076,0.111404 0.076,0.359199 0,0.180119 -0.04269,0.265494 -0.04165,0.08537 -0.16242,0.143679 -0.120774,0.05726 -0.281112,0.05726 -0.175955,0 -0.300894,-0.06663 -0.123897,-0.06663 -0.16242,-0.169708 -0.03852,-0.103075 -0.03852,-0.292565 v -0.110362 h 0.407091 v 0.205107 q 0,0.09475 0.01666,0.121815 0.0177,0.02707 0.06143,0.02707 0.04373,0 0.06455,-0.03436 0.02186,-0.03436 0.02186,-0.102033 0,-0.148885 -0.0406,-0.194696 -0.04165,-0.04581 -0.205107,-0.153049 -0.163461,-0.10828 -0.21656,-0.157215 -0.0531,-0.04893 -0.0885,-0.13535 -0.03436,-0.08642 -0.03436,-0.220724 0,-0.193655 0.04893,-0.283194 0.04997,-0.08954 0.160338,-0.139515 0.110362,-0.05102 0.266535,-0.05102 0.170749,0 0.290482,0.05518 0.120774,0.05518 0.159297,0.139515 0.03956,0.08329 0.03956,0.284235 z"
         style="font-style:normal;font-variant:normal;font-weight:normal;font-stretch:normal;font-family:Impact;-inkscape-font-specification:Impact;fill:#000000;fill-opacity:1;stroke:none;stroke-width:0.0863071px;stroke-opacity:1"
         id="path2413" />
      <path
         d="m 35.151796,50.720694 v 0.337334 h -0.260289 v 1.348294 h -0.438326 v -1.348294 h -0.259248 v -0.337334 z"
         style="font-style:normal;font-variant:normal;font-weight:normal;font-stretch:normal;font-family:Impact;-inkscape-font-specification:Impact;fill:#000000;fill-opacity:1;stroke:none;stroke-width:0.0863071px;stroke-opacity:1"
         id="path2415" />
      <path
         d="m 36.253337,51.707708 q 0,0.254042 -0.01249,0.360239 -0.01145,0.105157 -0.07496,0.192614 -0.06247,0.08746 -0.169708,0.134309 -0.107239,0.04685 -0.249877,0.04685 -0.13535,0 -0.24363,-0.04373 -0.107239,-0.04477 -0.172832,-0.133268 -0.06559,-0.0885 -0.07809,-0.192613 -0.01249,-0.104116 -0.01249,-0.364404 v -0.2884 q 0,-0.254042 0.01145,-0.359198 0.01249,-0.106198 0.07496,-0.193655 0.06351,-0.08746 0.17075,-0.134309 0.107239,-0.04685 0.249877,-0.04685 0.13535,0 0.242589,0.04477 0.10828,0.04373 0.173873,0.132227 0.06559,0.0885 0.07809,0.192613 0.01249,0.104116 0.01249,0.364404 z m -0.438326,-0.553894 q 0,-0.117651 -0.01353,-0.149926 -0.01249,-0.03332 -0.0531,-0.03332 -0.03436,0 -0.0531,0.02707 -0.0177,0.02603 -0.0177,0.156173 v 0.787112 q 0,0.146803 0.01145,0.181161 0.01249,0.03436 0.05622,0.03436 0.04477,0 0.05726,-0.03956 0.01249,-0.03956 0.01249,-0.188449 z"
         style="font-style:normal;font-variant:normal;font-weight:normal;font-stretch:normal;font-family:Impact;-inkscape-font-specification:Impact;fill:#000000;fill-opacity:1;stroke:none;stroke-width:0.0863071px;stroke-opacity:1"
         id="path2417" />
      <path
         d="m 36.417839,50.720694 h 0.44145 q 0.179078,0 0.274865,0.02811 0.09683,0.02811 0.14472,0.08121 0.04893,0.0531 0.06559,0.129103 0.0177,0.07496 0.0177,0.233218 v 0.146803 q 0,0.161379 -0.03332,0.235301 -0.03332,0.07392 -0.122856,0.113486 -0.0885,0.03956 -0.232177,0.03956 H 36.85616 v 0.678832 h -0.438326 z m 0.438326,0.288399 v 0.428956 q 0.01874,10e-4 0.03228,10e-4 0.06039,0 0.08329,-0.02915 0.02395,-0.03019 0.02395,-0.123898 v -0.138473 q 0,-0.08642 -0.02707,-0.112445 -0.02707,-0.02603 -0.112445,-0.02603 z"
         style="font-style:normal;font-variant:normal;font-weight:normal;font-stretch:normal;font-family:Impact;-inkscape-font-specification:Impact;fill:#000000;fill-opacity:1;stroke:none;stroke-width:0.0863071px;stroke-opacity:1"
         id="path2419" />
    </g>
  </g>
</svg>
