<?xml version="1.0" encoding="UTF-8"?>
<svg width="13cm" height="7.5cm" version="1.1" xmlns="http://www.w3.org/2000/svg" xmlns:cc="http://creativecommons.org/ns#" xmlns:dc="http://purl.org/dc/elements/1.1/" xmlns:rdf="http://www.w3.org/1999/02/22-rdf-syntax-ns#" xmlns:xlink="http://www.w3.org/1999/xlink">
 <title>Abbildung für OPEN MIND Softwaredokumentation</title>
 <defs>
  <pattern id="Strips1_64" width="65" height="1" patternTransform="translate(0) scale(10)" patternUnits="userSpaceOnUse">
   <rect y="-.5" width="1" height="2"/>
  </pattern>
  <pattern id="pattern5376" patternTransform="matrix(.054574 .055284 -26.121 25.785 0 0)" xlink:href="#Strips1_64"/>
  <linearGradient id="linearGradient28204" x1="-50.22" x2="756.51" y1="75.801" y2="74.854" gradientUnits="userSpaceOnUse">
   <stop stop-color="#fff" offset="0"/>
   <stop stop-color="#00385e" offset="1"/>
  </linearGradient>
 </defs>
 <metadata>
  <rdf:RDF>
   <cc:Work rdf:about="">
    <dc:format>image/svg+xml</dc:format>
    <dc:type rdf:resource="http://purl.org/dc/dcmitype/StillImage"/>
    <dc:title>Abbildung für OPEN MIND Softwaredokumentation</dc:title>
    <dc:creator>
     <cc:Agent>
      <dc:title>OPEN MIND Technologies AG</dc:title>
     </cc:Agent>
    </dc:creator>
    <dc:rights>
     <cc:Agent>
      <dc:title>Alle Rechte vorbehalten.</dc:title>
     </cc:Agent>
    </dc:rights>
    <dc:publisher>
     <cc:Agent>
      <dc:title>Technische Redaktion</dc:title>
     </cc:Agent>
    </dc:publisher>
   </cc:Work>
  </rdf:RDF>
 </metadata>
 <g transform="translate(0 -839.06)">
  <polygon transform="matrix(1.8561 0 0 1.9684 .60137 830.47)" points="0.125 138.37 0.125 11.339 254.65 11.339 254.65 138.37" clip-rule="evenodd" fill="url(#linearGradient28204)" fill-rule="evenodd" stroke="#4d4d4d" stroke-miterlimit="10" stroke-width=".35394"/>
  <polygon transform="matrix(1.8561 0 0 1.9684 .13578 830.01)" points="0.125 11.339 254.65 11.339 254.65 138.37 0.125 138.37" clip-rule="evenodd" fill="url(#pattern5376)" fill-rule="evenodd" opacity=".5" stroke-miterlimit="10"/>
  <line x1="126.73" x2="150.71" y1="920.99" y2="941.96" fill="none" stroke="#4d4d4d" stroke-width=".44089"/>
  <line x1="126.57" x2="126.57" y1="878.27" y2="920.82" fill="none" stroke="#34679b" stroke-width=".88178"/>
  <g fill-rule="evenodd" stroke="#16434a" stroke-linecap="round" stroke-linejoin="round" stroke-miterlimit="10" stroke-width="1.4324">
   <path d="m125.65 852.84v70.562l222.8-2.2e-4v-70.562z" fill="#45656c"/>
   <path d="m168.57 1038.4 0.0169 30.273h136.77v-30.255z" fill="#b8cdd1"/>
   <path d="m125.65 923.4 24.329 22.077 174.11-0.0134 24.357-22.064z" fill="#59808a"/>
   <path d="m150.05 1007.3 18.267 31.136h137.43l18.3-31.136z" color="#000000" fill="#92afb8"/>
   <path d="m150.05 945.47v61.812h174v-61.812z" fill="#6c95a0"/>
   <path d="m168.58 1068.7 7.9 16.507h120.67l8.2-16.507z" fill="#f1f5f6"/>
  </g>
  <path d="m237.05 844.23v226.57" fill="none" stroke="#16434a" stroke-dasharray="6.04724, 1.51181, 0.755905, 1.51181" stroke-linejoin="round" stroke-width=".7559"/>
  <g fill="#000000" font-family="Arial" font-size="12.8px" font-weight="bold" letter-spacing="0px" stroke-width="1.0667" word-spacing="0px">
   <text x="272.82843" y="888.54022" style="line-height:0%" xml:space="preserve"><tspan x="272.82843" y="888.54022" font-size="12.8px" stroke-width="1.0667" style="line-height:1.25">1</tspan></text>
   <text x="273.40656" y="938.36725" style="line-height:0%" xml:space="preserve"><tspan x="273.40656" y="938.36725" font-size="12.8px" stroke-width="1.0667" style="line-height:1.25">2</tspan></text>
   <text x="273.27112" y="982.63293" style="line-height:0%" xml:space="preserve"><tspan x="273.27112" y="982.63293" font-size="12.8px" stroke-width="1.0667" style="line-height:1.25">3</tspan></text>
   <text x="273.47424" y="1026.0616" style="line-height:0%" xml:space="preserve"><tspan x="273.47424" y="1026.0616" font-size="12.8px" stroke-width="1.0667" style="line-height:1.25">4</tspan></text>
   <text x="273.39096" y="1057.1628" style="line-height:0%" xml:space="preserve"><tspan x="273.39096" y="1057.1628" font-size="12.8px" stroke-width="1.0667" style="line-height:1.25">5</tspan></text>
   <text transform="scale(1.1065 .90376)" x="246.92357" y="1194.4193" style="line-height:0%" xml:space="preserve"><tspan x="246.92357" y="1194.4193" font-size="12.8px" stroke-width="1.0667" style="line-height:1.25">6</tspan></text>
  </g>
 </g>
</svg>
