<?xml version="1.0" encoding="UTF-8" standalone="no"?>
<svg
   width="13cm"
   height="6.5cm"
   version="1.1"
   id="svg9100"
   sodipodi:docname="drehen_schruppen_MAXX_Machining_werkzeug.svg"
   inkscape:version="1.2.1 (9c6d41e410, 2022-07-14)"
   xmlns:inkscape="http://www.inkscape.org/namespaces/inkscape"
   xmlns:sodipodi="http://sodipodi.sourceforge.net/DTD/sodipodi-0.dtd"
   xmlns:xlink="http://www.w3.org/1999/xlink"
   xmlns="http://www.w3.org/2000/svg"
   xmlns:svg="http://www.w3.org/2000/svg"
   xmlns:rdf="http://www.w3.org/1999/02/22-rdf-syntax-ns#"
   xmlns:cc="http://creativecommons.org/ns#"
   xmlns:dc="http://purl.org/dc/elements/1.1/">
  <sodipodi:namedview
     id="namedview9102"
     pagecolor="#ffffff"
     bordercolor="#666666"
     borderopacity="1.0"
     inkscape:showpageshadow="2"
     inkscape:pageopacity="0.0"
     inkscape:pagecheckerboard="0"
     inkscape:deskcolor="#d1d1d1"
     inkscape:document-units="cm"
     showgrid="false"
     inkscape:zoom="1.2455769"
     inkscape:cx="43.754825"
     inkscape:cy="261.72611"
     inkscape:window-width="1920"
     inkscape:window-height="1027"
     inkscape:window-x="1912"
     inkscape:window-y="-8"
     inkscape:window-maximized="1"
     inkscape:current-layer="svg9100" />
  <defs
     id="defs9056">
    <pattern
       id="pattern10020"
       patternTransform="matrix(0.040386,0.073924,-14.795,8.0825,-27.11,777.54)"
       xlink:href="#pattern5542" />
    <pattern
       id="pattern5542"
       patternTransform="matrix(.067835 .071971 -10.396 9.7984 -11.429 657.14)"
       xlink:href="#Strips1_64" />
    <pattern
       id="Strips1_64"
       width="65"
       height="1"
       patternTransform="translate(0) scale(10)"
       patternUnits="userSpaceOnUse">
      <rect
         y="-.5"
         width="1"
         height="2"
         id="rect8995" />
    </pattern>
    <linearGradient
       id="linearGradient25348"
       x1="904.23"
       x2="897.75"
       y1="404.51"
       y2="-252.9"
       gradientTransform="matrix(0.39183,0,0,0.39183,-277.13,1130.9)"
       gradientUnits="userSpaceOnUse">
      <stop
         stop-color="#fff"
         offset="0"
         id="stop8998" />
      <stop
         stop-color="#00385e"
         offset="1"
         id="stop9000" />
    </linearGradient>
    <filter
       id="filter25324-6-7"
       color-interpolation-filters="sRGB"
       x="-0.0062339475"
       y="-0.010805437"
       width="1.0124679"
       height="1.0208973">
      <feBlend
         in2="BackgroundImage"
         mode="multiply"
         id="feBlend9003" />
    </filter>
    <filter
       id="filter25324-6-7-3"
       color-interpolation-filters="sRGB"
       x="-0.0062339475"
       y="-0.010805437"
       width="1.0124679"
       height="1.0208973">
      <feBlend
         in2="BackgroundImage"
         mode="multiply"
         id="feBlend9006" />
    </filter>
    <linearGradient
       id="linearGradient26780"
       x1="1245"
       x2="1241.2"
       y1="-500.03"
       y2="-334.22"
       gradientTransform="matrix(-0.28879,0.47872,0.61997,0.374,845.04,309.52)"
       gradientUnits="userSpaceOnUse">
      <stop
         stop-color="#404040"
         offset="0"
         id="stop9009" />
      <stop
         stop-color="#4e4e4e"
         offset=".048529"
         id="stop9011" />
      <stop
         stop-color="#7c7c7c"
         offset=".097059"
         id="stop9013" />
      <stop
         stop-color="#848484"
         offset=".14568"
         id="stop9015" />
      <stop
         stop-color="#efefef"
         offset=".49321"
         id="stop9017" />
      <stop
         stop-color="#7b7b7b"
         offset=".68686"
         id="stop9019" />
      <stop
         stop-color="#616161"
         offset=".87372"
         id="stop9021" />
      <stop
         stop-color="#4c4c4c"
         offset=".91753"
         id="stop9023" />
      <stop
         stop-color="#292929"
         offset=".96833"
         id="stop9025" />
      <stop
         offset="1"
         id="stop9027" />
    </linearGradient>
    <linearGradient
       id="linearGradient26782"
       x1="1121"
       x2="1400.1"
       y1="-312.76"
       y2="-309.08"
       gradientTransform="matrix(0.45873,0.27735,0.38916,-0.60735,-260.48,276.68)"
       gradientUnits="userSpaceOnUse">
      <stop
         stop-color="#404040"
         offset="0"
         id="stop9030" />
      <stop
         stop-color="#4e4e4e"
         offset=".048529"
         id="stop9032" />
      <stop
         stop-color="#7c7c7c"
         offset=".097059"
         id="stop9034" />
      <stop
         stop-color="#848484"
         offset=".14568"
         id="stop9036" />
      <stop
         stop-color="#efefef"
         offset=".49686"
         id="stop9038" />
      <stop
         stop-color="#7b7b7b"
         offset=".68686"
         id="stop9040" />
      <stop
         stop-color="#616161"
         offset=".87372"
         id="stop9042" />
      <stop
         stop-color="#4c4c4c"
         offset=".91753"
         id="stop9044" />
      <stop
         stop-color="#292929"
         offset=".96833"
         id="stop9046" />
      <stop
         offset="1"
         id="stop9048" />
    </linearGradient>
    <linearGradient
       id="linearGradient26784"
       x1="859.12"
       x2="858.98"
       y1="-527.05"
       y2="-514.55"
       gradientTransform="matrix(0.90633232,0,0,0.63517183,-682.27435,410.33931)"
       gradientUnits="userSpaceOnUse">
      <stop
         stop-color="#626262"
         offset="0"
         id="stop9051" />
      <stop
         stop-color="#c8c8c8"
         offset="1"
         id="stop9053" />
    </linearGradient>
  </defs>
  <metadata
     id="metadata9058">
    <rdf:RDF>
      <cc:Work
         rdf:about="">
        <dc:format>image/svg+xml</dc:format>
        <dc:type
           rdf:resource="http://purl.org/dc/dcmitype/StillImage" />
        <dc:title />
      </cc:Work>
    </rdf:RDF>
  </metadata>
  <g
     transform="matrix(0.84966,0,0,0.84966,8.0253,-854.415)"
     id="g9064">
    <path
       d="m 15.631,1137.8 h 35.265 l -0.27989,58.215 c 0.48498,9.9679 7.7949,18.724 19.592,21.271 h 15.953 c 6.9781,0.1739 7.5254,3.2993 7.4169,6.7171 v 28.268 c -0.25237,3.9148 1.8335,6.5436 6.8571,7.5568 h 60.734 l 17.772,-18.752 v -35.769 l 3.4985,-3.8343 h 30.507 c 18.405,-3.1262 28.519,-14.1 32.152,-31.207 l 0.0341,-32.046 h 14.554 v 148.48 l -244.06,0.8396 z"
       fill="url(#linearGradient25348)"
       stroke="#000000"
       stroke-width="0.39184px"
       id="path9060"
       style="fill:url(#linearGradient25348)" />
  </g>
  <path
     transform="matrix(1.3825668,-0.60167823,0.80719399,1.0367551,-810.64098,-608.51348)"
     d="m 183.99,703.58 -20.819,35.343 104.37,60.737 20.643,-35.545 z"
     fill="url(#linearGradient26780)"
     filter="url(#filter25324-6-7)"
     stroke="#000000"
     stroke-linecap="round"
     stroke-linejoin="round"
     stroke-width="0.38379"
     id="path9066"
     style="fill:url(#linearGradient26780)" />
  <path
     transform="matrix(1.0923229,-0.40606951,0.67059415,0.66142632,-654.14211,-384.90846)"
     d="m 113.09,933.16 16.696,10.25 32.739,-52.479 c 4.1075,-6.3692 5.113,-6.1807 10.957,-8.1466 l 86.418,-25.308 12.558,-20.538 -128.35,-79.273 -12.554,20.223 16.489,88.785 c 0.94593,5.5264 0.71079,8.1202 -2.4397,13.24 z"
     fill="url(#linearGradient26782)"
     filter="url(#filter25324-6-7)"
     stroke="#000000"
     stroke-linecap="round"
     stroke-linejoin="round"
     stroke-width="0.63428"
     id="path9068"
     style="fill:url(#linearGradient26782)" />
  <g
     transform="matrix(0.81671868,0,0,2.0282234,-191.64014,-372.85178)"
     stroke="#000000"
     stroke-width="0.49603"
     id="g9076">
    <path
       transform="matrix(1.5791,-0.55653,0.92194,0.95892,-698.55,-391.33)"
       d="m 181.2,722.11 -2.9901,4.9567 36.793,22.195 2.9901,-4.9567 z"
       fill="#b1b1b1"
       filter="url(#filter25324-6-7)"
       opacity="0.78106"
       stroke-linecap="round"
       stroke-linejoin="round"
       id="path9070" />
    <path
       transform="matrix(1.5791,-0.55653,0.92194,0.95892,-698.55,-391.33)"
       d="m 181.43,722.09 c 12.947,3.758 29.681,16.353 36.363,22.043 z"
       fill="#a4a4a4"
       filter="url(#filter25324-6-7)"
       opacity="0.78106"
       id="path9072" />
    <path
       transform="matrix(1.5791,-0.55653,0.92194,0.95892,-698.55,-391.33)"
       d="m 178.21,727.07 36.455,21.991 c -5.8996,-2.9432 -26.817,-10.564 -36.455,-21.991 z"
       fill="#505050"
       filter="url(#filter25324-6-7)"
       opacity="0.78106"
       id="path9074" />
  </g>
  <circle
     cx="107.97743"
     cy="196.83675"
     r="16.707714"
     fill="#ffff00"
     fill-rule="evenodd"
     stroke="#000000"
     stroke-width="0.574829"
     id="circle9078" />
  <path
     d="M 11.821399,75.717716 C 18.463956,61.244607 200.91323,66.283091 204.2439,75.461509 Z"
     fill="#222222"
     stroke="#000000"
     stroke-width="0.901744px"
     id="path9080" />
  <g
     transform="matrix(-0.81671868,0,0,2.0282234,407.22767,-372.79231)"
     stroke="#000000"
     stroke-width="0.49603"
     id="g9088">
    <path
       transform="matrix(1.5791,-0.55653,0.92194,0.95892,-698.55,-391.33)"
       d="m 181.2,722.11 -2.9901,4.9567 36.793,22.195 2.9901,-4.9567 z"
       fill="#b1b1b1"
       filter="url(#filter25324-6-7-3)"
       opacity="0.78106"
       stroke-linecap="round"
       stroke-linejoin="round"
       id="path9082" />
    <path
       transform="matrix(1.5791,-0.55653,0.92194,0.95892,-698.55,-391.33)"
       d="m 181.43,722.09 c 12.947,3.758 29.681,16.353 36.363,22.043 z"
       fill="#a4a4a4"
       filter="url(#filter25324-6-7-3)"
       opacity="0.78106"
       id="path9084" />
    <path
       transform="matrix(1.5791,-0.55653,0.92194,0.95892,-698.55,-391.33)"
       d="m 178.21,727.07 36.455,21.991 c -5.8996,-2.9432 -26.817,-10.564 -36.455,-21.991 z"
       fill="#505050"
       filter="url(#filter25324-6-7-3)"
       opacity="0.78106"
       id="path9086" />
  </g>
  <path
     d="m 11.541012,75.98111 192.414008,0.260234 0.58214,0.381217 -10.98016,7.443277 H 23.540038 C 18.561625,80.805437 11.557283,76.241319 11.557283,76.241319 Z"
     fill="url(#linearGradient26784)"
     id="path9090"
     style="fill:url(#linearGradient26784);stroke-width:0.84966" />
  <path
     d="M 107.97742,5.3233848 V 178.93441"
     color="#000000"
     fill="#4d748f"
     fill-rule="evenodd"
     stroke="#666666"
     stroke-dasharray="11.4595, 2.86489, 1.43244, 2.86489"
     stroke-linecap="round"
     stroke-linejoin="round"
     stroke-width="1.21705"
     id="path9092" />
  <path
     d="m 51.175,112.36 -0.2916,48.551 c 0.9848,12.581 9.9432,17.628 17.134,18.968 l 14.266,-0.011 c 3.4963,0.043 5.187,1.5062 5.263,5.6438 l -0.0074,25.54 c 0.66397,3.4448 3.3176,4.3314 6.168,4.965 l 51.225,-0.011 15.184,-16.001 -0.038,-30.323 2.9613,-3.261 25.869,-0.03 c 16.414,-1.7035 25.178,-14.533 27.3,-26.447 l 0.0633,-27.261"
     fill="none"
     stroke="#800080"
     stroke-linecap="round"
     stroke-width="1.8898"
     id="path9096" />
</svg>
