<?xml version="1.0" encoding="UTF-8"?>
<svg width="13cm" height="5.5cm" version="1.1" xmlns="http://www.w3.org/2000/svg" xmlns:cc="http://creativecommons.org/ns#" xmlns:dc="http://purl.org/dc/elements/1.1/" xmlns:rdf="http://www.w3.org/1999/02/22-rdf-syntax-ns#" xmlns:xlink="http://www.w3.org/1999/xlink">
 <title>Abbildung für OPEN MIND Softwaredokumentation</title>
 <defs>
  <linearGradient id="linearGradient8249" x1="-1.1039" x2="484.94" y1="27.824" y2="28.959" gradientTransform="matrix(1.3325 0 0 1.3433 30.236 926.27)" gradientUnits="userSpaceOnUse">
   <stop stop-color="#fff" offset="0"/>
   <stop stop-color="#00385e" offset="1"/>
  </linearGradient>
  <linearGradient id="linearGradient8249-9" x1="-1.1039" x2="484.94" y1="27.824" y2="28.959" gradientTransform="matrix(1.3325 0 0 1.3433 247.52 926.07)" gradientUnits="userSpaceOnUse">
   <stop stop-color="#fff" offset="0"/>
   <stop stop-color="#00385e" offset="1"/>
  </linearGradient>
  <linearGradient id="linearGradient8284" x1="8.5382" x2="140.93" y1="62.175" y2="63.309" gradientTransform="matrix(1.3433 0 0 1.332 28.307 926.45)" gradientUnits="userSpaceOnUse">
   <stop stop-color="#fff" offset="0"/>
   <stop stop-color="#00385e" stop-opacity=".5" offset="1"/>
  </linearGradient>
  <linearGradient id="linearGradient8319" x1="8.5382" x2="140.93" y1="62.175" y2="63.309" gradientTransform="matrix(1.3473 0 0 1.3377 245.58 926.18)" gradientUnits="userSpaceOnUse">
   <stop stop-color="#fff" offset="0"/>
   <stop stop-color="#00385e" stop-opacity=".5" offset="1"/>
  </linearGradient>
  <linearGradient id="linearGradient8353" x1="79.74" x2="260.91" y1="70.462" y2="68.76" gradientTransform="matrix(1.3433 0 0 1.3433 245.68 926.14)" gradientUnits="userSpaceOnUse">
   <stop stop-color="#fff" offset="0"/>
   <stop stop-color="#00385e" offset="1"/>
  </linearGradient>
  <linearGradient id="linearGradient8406" x1="79.74" x2="260.91" y1="70.462" y2="68.76" gradientTransform="matrix(1.3433 0 0 1.3433 27.638 926.38)" gradientUnits="userSpaceOnUse">
   <stop stop-color="#fff" offset="0"/>
   <stop stop-color="#00385e" offset="1"/>
  </linearGradient>
 </defs>
 <metadata>
  <rdf:RDF>
   <cc:Work rdf:about="">
    <dc:format>image/svg+xml</dc:format>
    <dc:type rdf:resource="http://purl.org/dc/dcmitype/StillImage"/>
    <dc:title>Abbildung für OPEN MIND Softwaredokumentation</dc:title>
    <dc:creator>
     <cc:Agent>
      <dc:title>OPEN MIND Technologies AG</dc:title>
     </cc:Agent>
    </dc:creator>
    <dc:rights>
     <cc:Agent>
      <dc:title>Alle Rechte vorbehalten.</dc:title>
     </cc:Agent>
    </dc:rights>
    <dc:publisher>
     <cc:Agent>
      <dc:title>Technische Redaktion</dc:title>
     </cc:Agent>
    </dc:publisher>
   </cc:Work>
  </rdf:RDF>
 </metadata>
 <g transform="translate(0 -914.65)">
  <g fill="#b2cacf" stroke="#16434a" stroke-linecap="square" stroke-linejoin="round" stroke-miterlimit="10" stroke-width="1.4324">
   <path d="m105.74 998.83v19.352c0 8.3272 15.36 15.079 34.306 15.079s34.304-6.7502 34.304-15.079v-19.352"/>
   <ellipse cx="140.05" cy="1000.3" rx="34.304" ry="15.079"/>
   <path d="m121.87 987.18v12.899c0 3.6068 8.2023 6.5299 18.322 6.5299 10.118 0 18.322-2.9244 18.322-6.5299v-12.802"/>
   <path d="m105.74 955.1v19.352c0 8.3272 15.36 15.079 34.306 15.079s34.304-6.7502 34.304-15.079v-19.352"/>
  </g>
  <polyline transform="matrix(1.3433 0 0 1.3433 27.978 925.83)" points="79.992 56.65 157.99 36.678 157.99 83.211 79.992 104.24 79.992 56.65" fill="none" stroke="#4d4d4d" stroke-linecap="round" stroke-linejoin="round" stroke-miterlimit="10" stroke-width=".50363"/>
  <polyline transform="matrix(1.3433 0 0 1.3433 27.86 925.93)" points="79.992 104.24 8.79 67.699 8.79 20.105 79.992 56.65 79.992 104.24" fill="none" stroke="#4d4d4d" stroke-linecap="round" stroke-linejoin="round" stroke-miterlimit="10" stroke-width=".50363"/>
  <g stroke="#16434a" stroke-linejoin="round" stroke-miterlimit="10" stroke-width="1.4324">
   <ellipse cx="140.05" cy="952.8" rx="34.304" ry="15.079" fill="#739ba5" stroke-linecap="square"/>
   <path d="m320.94 999.41v19.38c0 8.3393 15.382 15.101 34.354 15.101s34.354-6.76 34.354-15.101v-19.38" fill="#4a6a72" stroke-linecap="round"/>
   <ellipse cx="355.29" cy="1000.9" rx="34.354" ry="15.101" fill="#4a6a72" stroke-linecap="round"/>
   <g stroke-linecap="square">
    <path d="m337.08 987.75v12.917c0 3.6107 8.2156 6.5393 18.349 6.5393 10.134 0 18.348-2.93 18.348-6.5393v-12.823" fill="#b2cacf"/>
    <path d="m320.94 955.62v19.38c0 8.3393 15.382 15.101 34.354 15.101s34.354-6.76 34.354-15.101v-19.38" fill="#b2cacf"/>
    <ellipse cx="355.29" cy="952.56" rx="34.354" ry="15.101" fill="#739ba5"/>
   </g>
  </g>
  <path d="m331.59 963.5c6.163-2.5791 14.503-4.1622 23.684-4.1622 9.1345 0 17.436 1.567 23.59 4.1229" fill="none" stroke="#16434a" stroke-linecap="round" stroke-linejoin="round" stroke-miterlimit="10" stroke-width="1.4324"/>
  <path d="m117.03 963.5c6.163-2.5791 14.503-4.1622 23.684-4.1622 9.1345 0 17.436 1.567 23.59 4.1229" fill="none" stroke="#16434a" stroke-linecap="round" stroke-linejoin="round" stroke-miterlimit="10" stroke-width="1.4324"/>
  <g stroke="#000" stroke-linecap="round" stroke-linejoin="round">
   <path d="m13.044 997.05v39.464" stroke-width=".94488"/>
   <path d="m13.315 1036.5 4.1905-12.571h-8.7619z" stroke-width="1.0658"/>
   <path d="m13.044 1024.9v-39.464" stroke-width=".94488"/>
  </g>
  <path d="m135.76 1065.3-95.647-48.679v-63.395l94.839 48.678-0.0673 63.06" fill="url(#linearGradient8284)" opacity=".50168"/>
  <polyline transform="matrix(1.3433 0 0 1.3433 27.918 925.85)" points="79.992 56.65 8.79 20.105 86.58 0.133 157.99 36.678 79.992 56.65" fill="none" stroke="#4d4d4d" stroke-linecap="round" stroke-linejoin="round" stroke-miterlimit="10" stroke-width=".50363"/>
  <path d="m135.55 1001.4-94.472-48.418 103.18-26.492 94.754 48.553-103.53 26.357" fill="url(#linearGradient8249)" opacity=".52"/>
  <path d="m135.09 1002.5 104.78-26.829v61.699l-104.07 27.97 0.0477-62.65" fill="url(#linearGradient8406)" opacity=".55556"/>
  <polyline transform="matrix(1.3433 0 0 1.3433 245.13 925.61)" points="79.992 56.65 8.79 20.105 86.58 0.133 157.99 36.678 79.992 56.65" fill="none" stroke="#4d4d4d" stroke-linecap="round" stroke-linejoin="round" stroke-miterlimit="10" stroke-width=".50363"/>
  <path d="m352.83 1001.4-94.853-48.454 103.56-26.659 94.754 48.553-103.33 26.559" fill="url(#linearGradient8249-9)" opacity=".52"/>
  <polyline transform="matrix(1.3433 0 0 1.3433 245.3 925.73)" points="79.992 104.24 8.79 67.699 8.79 20.105 79.992 56.65 79.992 104.24" fill="none" stroke="#4d4d4d" stroke-linecap="round" stroke-linejoin="round" stroke-miterlimit="10" stroke-width=".50363"/>
  <path d="m353.36 1065.6-95.933-48.886v-63.665l95.122 48.885-0.0675 63.328" fill="url(#linearGradient8319)" opacity=".50168"/>
  <path d="m353.13 1002.2 104.78-26.829v61.699l-104.07 27.97-0.6932-62.919" fill="url(#linearGradient8353)" opacity=".55556"/>
  <polyline transform="matrix(1.3433 0 0 1.3433 245.3 925.83)" points="79.992 56.65 157.99 36.678 157.99 83.211 79.992 104.24 79.992 56.65" fill="none" stroke="#4d4d4d" stroke-linecap="round" stroke-linejoin="round" stroke-miterlimit="10" stroke-width=".50363"/>
  <g transform="translate(239.78 1063.5)">
   <ellipse cx="-44.92" cy="-98.798" rx="13.199" ry="13.469" fill="#1f638a" stroke-linecap="round" stroke-linejoin="round" stroke-width="1.0658"/>
   <text x="-50.761276" y="-91.125885" fill="#000000" font-family="'Arial Nova', 'Arial Unicode MS', 'Yu Gothic UI', sans-serif" font-size="12.8px" letter-spacing="0px" stroke-width="1.0667" word-spacing="0px" style="line-height:0%" xml:space="preserve"><tspan x="-50.761276" y="-91.125885" fill="#ffffff" font-family="'Arial Nova', 'Arial Unicode MS', 'Yu Gothic UI', sans-serif" font-size="21.333px" stroke="#ffffff" stroke-width="1.0667" style="line-height:1.25">1</tspan></text>
  </g>
  <g transform="translate(421.74 1065.7)">
   <ellipse cx="-13.718" cy="-98.798" rx="13.199" ry="13.469" fill="#1f638a" stroke-linecap="round" stroke-linejoin="round" stroke-width="1.0658"/>
   <text x="-19.559933" y="-91.125885" fill="#000000" font-family="'Arial Nova', 'Arial Unicode MS', 'Yu Gothic UI', sans-serif" font-size="12.8px" letter-spacing="0px" stroke-width="1.0667" word-spacing="0px" style="line-height:0%" xml:space="preserve"><tspan x="-19.559933" y="-91.125885" fill="#ffffff" font-family="'Arial Nova', 'Arial Unicode MS', 'Yu Gothic UI', sans-serif" font-size="21.333px" stroke="#ffffff" stroke-width="1.0667" style="line-height:1.25">2</tspan></text>
  </g>
  <g transform="translate(390.54 1111.4)">
   <ellipse cx="17.483" cy="-98.798" rx="13.199" ry="13.469" fill="#1f638a" stroke-linecap="round" stroke-linejoin="round" stroke-width="1.0658"/>
   <text x="11.641406" y="-91.256096" fill="#000000" font-family="'Arial Nova', 'Arial Unicode MS', 'Yu Gothic UI', sans-serif" font-size="12.8px" letter-spacing="0px" stroke-width="1.0667" word-spacing="0px" style="line-height:0%" xml:space="preserve"><tspan x="11.641406" y="-91.256096" fill="#ffffff" font-family="'Arial Nova', 'Arial Unicode MS', 'Yu Gothic UI', sans-serif" font-size="21.333px" stroke="#ffffff" stroke-width="1.0667" style="line-height:1.25">3</tspan></text>
  </g>
  <g transform="translate(-388.48 816.2)">
   <g transform="translate(354.56 247.34)">
    <ellipse cx="48.684" cy="-98.798" rx="13.199" ry="13.469" fill="#1f638a" stroke-linecap="round" stroke-linejoin="round" stroke-width="1.0658"/>
    <text x="42.842751" y="-91.162346" fill="#000000" font-family="'Arial Nova', 'Arial Unicode MS', 'Yu Gothic UI', sans-serif" font-size="12.8px" letter-spacing="0px" stroke-width="1.0667" word-spacing="0px" style="line-height:0%" xml:space="preserve"><tspan x="42.842751" y="-91.162346" fill="#ffffff" font-family="'Arial Nova', 'Arial Unicode MS', 'Yu Gothic UI', sans-serif" font-size="21.333px" stroke="#ffffff" stroke-width="1.0667" style="line-height:1.25">4</tspan></text>
   </g>
  </g>
  <g transform="translate(172.85 1139.1)">
   <ellipse cx="-36.9" cy="-49.598" rx="13.199" ry="13.469" fill="#1f638a" stroke-linecap="round" stroke-linejoin="round" stroke-width="1.0658"/>
   <text x="-44.014687" y="-41.962215" fill="#000000" font-family="'Arial Nova', 'Arial Unicode MS', 'Yu Gothic UI', sans-serif" font-size="12.8px" letter-spacing="0px" stroke-width="1.0667" word-spacing="0px" style="line-height:0%" xml:space="preserve"><tspan x="-44.014687" y="-41.962215" fill="#ffffff" font-family="'Arial Nova', 'Arial Unicode MS', 'Yu Gothic UI', sans-serif" font-size="21.333px" stroke="#ffffff" stroke-width="1.0667" style="line-height:1.25">A</tspan></text>
  </g>
  <g transform="translate(389.53 1109.9)">
   <ellipse cx="-36.668" cy="-19.66" rx="13.199" ry="13.469" fill="#1f638a" stroke-linecap="round" stroke-linejoin="round" stroke-width="1.0658"/>
   <text x="-43.09388" y="-12.024389" fill="#000000" font-family="'Arial Nova', 'Arial Unicode MS', 'Yu Gothic UI', sans-serif" font-size="12.8px" letter-spacing="0px" stroke-width="1.0667" word-spacing="0px" style="line-height:0%" xml:space="preserve"><tspan x="-43.09388" y="-12.024389" fill="#ffffff" font-family="'Arial Nova', 'Arial Unicode MS', 'Yu Gothic UI', sans-serif" font-size="21.333px" stroke="#ffffff" stroke-width="1.0667" style="line-height:1.25">B</tspan></text>
  </g>
 </g>
</svg>
