<?xml version="1.0"?>
<svg xmlns="http://www.w3.org/2000/svg" version="1.1" viewBox="0 0 637.8 354.33">
 <g transform="translate(0 -698.03)">
  <g>
   <g>
    <path d="m229.04 812.15 37.032-0.11382-0.50716 230.74h-255.19l0.32191-72.052 30.997-0.18594c15.107 0.3713 30.435 11.301 31.634 33.009 7.1207 51.662 78.575 34.057 94.569-12.538l59.211-163.04c1.5027-7.7852 1.8688-11.654 1.9356-15.817z" fill="#cad6de" fill-rule="evenodd" stroke="#000000" stroke-linecap="round" stroke-linejoin="round" stroke-width=".73062"/>
    <path transform="matrix(1.8888 0 0 1.8888 -1415.6 1646.6)" d="m802.59-361.87a11.528 11.528 0 1 1-23.056 0 11.528 11.528 0 1 1 23.056 0z" fill="#cfcdcd" fill-rule="evenodd" stroke="#000000" stroke-width=".27077"/>
    <path d="m107.81 723.81-26.492 217.62" fill="#527ca5" stroke="#527ca5" stroke-linecap="round" stroke-linejoin="round" stroke-width="1.7717"/>
   </g>
   <path transform="matrix(.36531 0 0 .36531 -214.96 1132.2)" d="m802.59-361.87a11.528 11.528 0 1 1-23.056 0 11.528 11.528 0 1 1 23.056 0z" fill="#22ff4c" fill-rule="evenodd"/>
   <g>
    <path d="m112.13 721.73 82.178 63.649" fill="#527ca5" stroke="#527ca5" stroke-linecap="round" stroke-linejoin="round" stroke-width="1.7717"/>
    <path transform="matrix(1.8888 0 0 1.8888 -1282.3 1482.2)" d="m802.59-361.87a11.528 11.528 0 1 1-23.056 0 11.528 11.528 0 1 1 23.056 0z" fill="#cfcdcd" fill-rule="evenodd" stroke="#000000" stroke-width=".27077"/>
    <path d="m226.63 810.34 2.8476 2.156" fill="#527ca5" stroke="#527ca5" stroke-linecap="round" stroke-linejoin="round" stroke-width="1.0959"/>
   </g>
   <path d="m80.875 942.45-6.9474 57.535" fill="#527ca5" opacity=".47213" stroke="#527ca5" stroke-dasharray="1.77165354,3.54330709" stroke-linecap="round" stroke-linejoin="round" stroke-width="1.7717"/>
  </g>
  <g transform="matrix(.36531 0 0 .36531 250.05 835.91)" fill="none" stroke="#000000" stroke-linecap="round" stroke-linejoin="round" stroke-width="1.2">
   <path d="m-470.15 344.76v8.6483"/>
   <path d="m-465.82 349.09h-8.6483"/>
  </g>
  <g transform="matrix(.36531 0 0 .36531 383.61 671.42)" fill="none" stroke="#000000" stroke-linecap="round" stroke-linejoin="round" stroke-width="1.2">
   <path d="m-470.15 344.76v8.6483"/>
   <path d="m-465.82 349.09h-8.6483"/>
  </g>
  <g>
   <path transform="matrix(.36531 0 0 .36531 -59.075 945.26)" d="m802.59-361.87a11.528 11.528 0 1 1-23.056 0 11.528 11.528 0 1 1 23.056 0z" fill="#22ff4c" fill-rule="evenodd"/>
   <path d="m195.01 785.94 34.555 26.754" fill="#527ca5" opacity=".48525" stroke="#527ca5" stroke-dasharray="1.77165354,3.54330709" stroke-linecap="round" stroke-linejoin="round" stroke-width="1.7717"/>
   <g>
    <path d="m494.03 812.07 37.032-0.11382-0.50716 230.74h-255.19l0.32191-72.052 30.997-0.18594c15.107 0.3713 30.435 11.301 31.634 33.009 7.1207 51.662 78.575 34.057 94.569-12.538l59.211-163.04c1.5027-7.7852 1.8688-11.654 1.9356-15.817z" fill="#cad6de" fill-rule="evenodd" stroke="#000000" stroke-linecap="round" stroke-linejoin="round" stroke-width=".73062"/>
    <path transform="matrix(1.8888 0 0 1.8888 -1133.8 1681.8)" d="m802.59-361.87a11.528 11.528 0 1 1-23.056 0 11.528 11.528 0 1 1 23.056 0z" fill="#cfcdcd" fill-rule="evenodd" stroke="#000000" stroke-width=".27077"/>
    <path d="m373.02 723.44-34.54 276.21" fill="#527ca5" stroke="#527ca5" stroke-linecap="round" stroke-linejoin="round" stroke-width="1.7717"/>
    <path transform="matrix(1.8888 0 0 1.8888 -1022.4 1494.5)" d="m802.59-361.87a11.528 11.528 0 1 1-23.056 0 11.528 11.528 0 1 1 23.056 0z" fill="#cfcdcd" fill-rule="evenodd" stroke="#000000" stroke-width=".27077"/>
   </g>
   <path transform="matrix(.36531 0 0 .36531 205.55 944.68)" d="m802.59-361.87a11.528 11.528 0 1 1-23.056 0 11.528 11.528 0 1 1 23.056 0z" fill="#22ff4c" fill-rule="evenodd"/>
   <path d="m378.23 722 87.325 67.671" fill="#527ca5" stroke="#527ca5" stroke-linecap="round" stroke-linejoin="round" stroke-width="1.7717"/>
   <path d="m466.02 789.78 28.156 22.103" fill="#527ca5" stroke="#527ca5" stroke-dasharray="1.77165354,3.54330709" stroke-linecap="round" stroke-linejoin="round" stroke-width="1.7717"/>
  </g>
  <g transform="matrix(.36531 0 0 .36531 532.23 870.9)" fill="none" stroke="#000000" stroke-linecap="round" stroke-linejoin="round" stroke-width="1.2">
   <path d="m-470.15 344.76v8.6483"/>
   <path d="m-465.82 349.09h-8.6483"/>
  </g>
  <g transform="matrix(.36531 0 0 .36531 643.67 683.52)" fill="none" stroke="#000000" stroke-linecap="round" stroke-linejoin="round" stroke-width="1.2">
   <path d="m-470.15 344.76v8.6483"/>
   <path d="m-465.82 349.09h-8.6483"/>
  </g>
  <g transform="translate(62.557 818.05)">
   <ellipse cx="17.483" cy="-98.798" rx="13.199" ry="13.469" d="m 30.682402,-98.79776 c 0,7.438558 -5.909541,13.4687 -13.199328,13.4687 -7.289787,0 -13.1993273,-6.030142 -13.1993273,-13.4687 0,-7.43856 5.9095403,-13.4687 13.1993273,-13.4687 7.289787,0 13.199328,6.03014 13.199328,13.4687 z" fill="#1f638a" stroke-linecap="round" stroke-linejoin="round" stroke-width="1.0658"/>
   <text x="11.641406" y="-91.256096" fill="#000000" font-family="'Arial Nova', 'Arial Unicode MS', 'Yu Gothic UI', sans-serif" letter-spacing="0px" word-spacing="0px" style="line-height:0%" xml:space="preserve"><tspan x="11.641406" y="-91.256096" fill="#ffffff" font-family="Arial" font-size="20px" stroke="#ffffff" stroke-width="1.0667" style="line-height:1.25">1</tspan></text>
  </g>
  <g transform="translate(288.54 1078.8)">
   <ellipse cx="-36.9" cy="-49.598" rx="13.199" ry="13.469" d="m -23.700773,-49.59763 c 0,7.438558 -5.90954,13.468701 -13.199328,13.468701 -7.289787,0 -13.199327,-6.030143 -13.199327,-13.468701 0,-7.438557 5.90954,-13.4687 13.199327,-13.4687 7.289788,0 13.199328,6.030143 13.199328,13.4687 z" fill="#1f638a" stroke-linecap="round" stroke-linejoin="round" stroke-width="1.0658"/>
   <text x="-44.014687" y="-41.962215" fill="#000000" letter-spacing="0px" word-spacing="0px" style="line-height:0%" xml:space="preserve"><tspan x="-44.014687" y="-41.962215" fill="#ffffff" font-family="Arial" font-size="20px" stroke="#ffffff" stroke-width="1.0667" style="line-height:1.25">A</tspan></text>
  </g>
  <g transform="translate(553.32 1048.4)">
   <ellipse cx="-36.668" cy="-19.66" rx="13.199" ry="13.469" d="m -23.468687,-19.659805 c 0,7.438558 -5.90954,13.4687001 -13.199328,13.4687001 -7.289787,0 -13.199327,-6.0301421 -13.199327,-13.4687001 0,-7.438558 5.90954,-13.468701 13.199327,-13.468701 7.289788,0 13.199328,6.030143 13.199328,13.468701 z" fill="#1f638a" stroke-linecap="round" stroke-linejoin="round" stroke-width="1.0658"/>
   <text x="-43.09388" y="-12.024389" fill="#000000" letter-spacing="0px" word-spacing="0px" style="line-height:0%" xml:space="preserve"><tspan x="-43.09388" y="-12.024389" fill="#ffffff" font-family="Arial" font-size="20px" stroke="#ffffff" stroke-width="1.0667" style="line-height:1.25">B</tspan></text>
  </g>
  <g transform="translate(556.64 890.7)">
   <ellipse cx="-44.92" cy="-98.798" rx="13.199" ry="13.469" d="m -31.720282,-98.79776 c 0,7.438558 -5.90954,13.4687 -13.199327,13.4687 -7.289787,0 -13.199328,-6.030142 -13.199328,-13.4687 0,-7.43856 5.909541,-13.4687 13.199328,-13.4687 7.289787,0 13.199327,6.03014 13.199327,13.4687 z" fill="#1f638a" stroke-linecap="round" stroke-linejoin="round" stroke-width="1.0658"/>
   <text x="-50.761276" y="-91.125885" fill="#000000" letter-spacing="0px" word-spacing="0px" style="line-height:0%" xml:space="preserve"><tspan x="-50.761276" y="-91.125885" fill="#ffffff" font-family="Arial" font-size="20px" stroke="#ffffff" stroke-width="1.0667" style="line-height:1.25">2</tspan></text>
  </g>
  <g transform="translate(327.41 817.61)">
   <ellipse cx="17.483" cy="-98.798" rx="13.199" ry="13.469" d="m 30.682402,-98.79776 c 0,7.438558 -5.909541,13.4687 -13.199328,13.4687 -7.289787,0 -13.1993273,-6.030142 -13.1993273,-13.4687 0,-7.43856 5.9095403,-13.4687 13.1993273,-13.4687 7.289787,0 13.199328,6.03014 13.199328,13.4687 z" fill="#1f638a" stroke-linecap="round" stroke-linejoin="round" stroke-width="1.0658"/>
   <text x="11.641406" y="-91.256096" fill="#000000" font-family="'Arial Nova', 'Arial Unicode MS', 'Yu Gothic UI', sans-serif" letter-spacing="0px" word-spacing="0px" style="line-height:0%" xml:space="preserve"><tspan x="11.641406" y="-91.256096" fill="#ffffff" font-family="Arial" font-size="20px" stroke="#ffffff" stroke-width="1.0667" style="line-height:1.25">1</tspan></text>
  </g>
  <g fill="none" stroke="#000000" stroke-linecap="round" stroke-linejoin="round" stroke-width="1px">
   <path d="m93.709 719.92h11.372"/>
   <path d="m358.49 719.8h11.372"/>
   <path d="m497.38 808.75 5.8644-6.2788"/>
   <path d="m232.66 809.08 11.592-13.108"/>
  </g>
  <g transform="translate(294.16 887.66)">
   <ellipse cx="-44.92" cy="-98.798" rx="13.199" ry="13.469" d="m -31.720282,-98.79776 c 0,7.438558 -5.90954,13.4687 -13.199327,13.4687 -7.289787,0 -13.199328,-6.030142 -13.199328,-13.4687 0,-7.43856 5.909541,-13.4687 13.199328,-13.4687 7.289787,0 13.199327,6.03014 13.199327,13.4687 z" fill="#1f638a" stroke-linecap="round" stroke-linejoin="round" stroke-width="1.0658"/>
   <text x="-50.761276" y="-91.125885" fill="#000000" letter-spacing="0px" word-spacing="0px" style="line-height:0%" xml:space="preserve"><tspan x="-50.761276" y="-91.125885" fill="#ffffff" font-family="Arial" font-size="20px" stroke="#ffffff" stroke-width="1.0667" style="line-height:1.25">2</tspan></text>
  </g>
  <path d="m57.983 1000.1h11.372" fill="none" stroke="#000000" stroke-linecap="round" stroke-linejoin="round" stroke-width="1px"/>
  <g transform="translate(60.204 1097.2)">
   <ellipse cx="-13.718" cy="-98.798" rx="13.199" ry="13.469" d="m -0.51893806,-98.79776 c 0,7.438558 -5.90954024,13.4687 -13.19932794,13.4687 -7.289787,0 -13.199327,-6.030142 -13.199327,-13.4687 0,-7.43856 5.90954,-13.4687 13.199327,-13.4687 7.2897877,0 13.19932794,6.03014 13.19932794,13.4687 z" fill="#1f638a" stroke-linecap="round" stroke-linejoin="round" stroke-width="1.0658"/>
   <text x="-19.559933" y="-91.125885" fill="#000000" letter-spacing="0px" word-spacing="0px" style="line-height:0%" xml:space="preserve"><tspan x="-19.559933" y="-91.125885" fill="#ffffff" font-family="Arial" font-size="20px" stroke="#ffffff" stroke-width="1.0667" style="line-height:1.25">2</tspan></text>
  </g>
  <path d="m323.4 999.54h11.372" fill="none" stroke="#000000" stroke-linecap="round" stroke-linejoin="round" stroke-width="1px"/>
  <g transform="translate(326.12 1097.8)">
   <ellipse cx="-13.718" cy="-98.798" rx="13.199" ry="13.469" d="m -0.51893806,-98.79776 c 0,7.438558 -5.90954024,13.4687 -13.19932794,13.4687 -7.289787,0 -13.199327,-6.030142 -13.199327,-13.4687 0,-7.43856 5.90954,-13.4687 13.199327,-13.4687 7.2897877,0 13.19932794,6.03014 13.19932794,13.4687 z" fill="#1f638a" stroke-linecap="round" stroke-linejoin="round" stroke-width="1.0658"/>
   <text x="-19.559933" y="-91.125885" fill="#000000" letter-spacing="0px" word-spacing="0px" style="line-height:0%" xml:space="preserve"><tspan x="-19.559933" y="-91.125885" fill="#ffffff" font-family="Arial" font-size="20px" stroke="#ffffff" stroke-width="1.0667" style="line-height:1.25">2</tspan></text>
  </g>
  <g fill-rule="evenodd">
   <path transform="matrix(.36531 0 0 .36531 85.53 852.66)" d="m802.59-361.87a11.528 11.528 0 1 1-23.056 0 11.528 11.528 0 1 1 23.056 0z" fill="#cf49ff"/>
   <path transform="matrix(.36531 0 0 .36531 48.958 1131.6)" d="m802.59-361.87a11.528 11.528 0 1 1-23.056 0 11.528 11.528 0 1 1 23.056 0z" fill="#22ff4c"/>
   <path transform="matrix(.36531 0 0 .36531 -179.48 851.89)" d="m802.59-361.87a11.528 11.528 0 1 1-23.056 0 11.528 11.528 0 1 1 23.056 0z" fill="#cf49ff"/>
  </g>
 </g>
</svg>
