<?xml version="1.0" encoding="UTF-8"?>
<svg width="13cm" height="7cm" version="1.1" xmlns="http://www.w3.org/2000/svg" xmlns:cc="http://creativecommons.org/ns#" xmlns:dc="http://purl.org/dc/elements/1.1/" xmlns:rdf="http://www.w3.org/1999/02/22-rdf-syntax-ns#" xmlns:xlink="http://www.w3.org/1999/xlink">
 <title>Abbildung für OPEN MIND Softwaredokumentation</title>
 <defs>
  <pattern id="pattern35902" patternTransform="matrix(.070848 -.067645 12.15 12.725 -90.736 1123.9)" xlink:href="#pattern28286"/>
  <pattern id="pattern28286" patternTransform="matrix(.06642 -.063417 11.391 11.93 -85.317 1053.7)" xlink:href="#pattern6666"/>
  <pattern id="pattern6666" patternTransform="matrix(.047422 -.045278 8.1327 8.5178 -49.563 1006.3)" xlink:href="#pattern9529"/>
  <pattern id="pattern9529" patternTransform="matrix(.047422 -.045278 8.1327 8.5178 -49.563 1006.3)" xlink:href="#pattern9496"/>
  <pattern id="pattern9496" patternTransform="matrix(.047355 -.045348 8.1452 8.5058 396.14 -51.594)" xlink:href="#pattern9487"/>
  <pattern id="pattern9487" patternTransform="matrix(.056516 -.039102 6.9938 10.109 354.71 164.31)" xlink:href="#Strips1_64"/>
  <pattern id="Strips1_64" width="65" height="1" patternTransform="translate(0) scale(10)" patternUnits="userSpaceOnUse">
   <rect y="-.5" width="1" height="2"/>
  </pattern>
  <linearGradient id="linearGradient17780-7-9-9-6">
   <stop stop-color="#fff" offset="0"/>
   <stop stop-color="#00385e" offset="1"/>
  </linearGradient>
  <linearGradient id="linearGradient35887" x1="33.666" x2="33.943" y1="73.428" y2="-18.843" gradientTransform="matrix(2.7886 0 0 2.7886 -28.583 900.83)" gradientUnits="userSpaceOnUse" xlink:href="#linearGradient17780-7-9-9-6"/>
  <linearGradient id="linearGradient35890" x1="140.33" x2="140.12" y1="1008" y2="830.71" gradientTransform="matrix(1.5174 0 0 .9874 -19.895 109.93)" gradientUnits="userSpaceOnUse" xlink:href="#linearGradient17780-7-9-9-6"/>
  <linearGradient id="linearGradient35893" x1="73.108" x2="73.471" y1="73.128" y2="-20.227" gradientTransform="matrix(2.8212 0 0 1.8292 -30.983 971.29)" gradientUnits="userSpaceOnUse" xlink:href="#linearGradient17780-7-9-9-6"/>
  <linearGradient id="linearGradient35896" x1="103.67" x2="105.19" y1="1006.7" y2="830.98" gradientTransform="matrix(1.494 0 0 1.494 -16.662 -400.92)" gradientUnits="userSpaceOnUse" xlink:href="#linearGradient17780-7-9-9-6"/>
  <linearGradient id="linearGradient35899" x1="27.086" x2="26.953" y1="1006.2" y2="829.15" gradientTransform="matrix(1.4636 0 0 1.494 -15.557 -400.92)" gradientUnits="userSpaceOnUse" xlink:href="#linearGradient17780-7-9-9-6"/>
  <linearGradient id="linearGradient35905" x1="24.288" x2="22.322" y1="918.57" y2="1189.3" gradientTransform="matrix(1.494 0 0 1.494 -3.9639 -443.01)" gradientUnits="userSpaceOnUse" xlink:href="#linearGradient17780-7-9-9-6"/>
  <linearGradient id="linearGradient35887-1" x1="33.666" x2="33.943" y1="73.428" y2="-18.843" gradientTransform="matrix(2.7886 0 0 2.7886 211.56 899.03)" gradientUnits="userSpaceOnUse" xlink:href="#linearGradient17780-7-9-9-6"/>
  <linearGradient id="linearGradient35890-8" x1="140.33" x2="140.12" y1="1008" y2="830.71" gradientTransform="matrix(1.5174 0 0 .9874 220.25 108.13)" gradientUnits="userSpaceOnUse" xlink:href="#linearGradient17780-7-9-9-6"/>
  <linearGradient id="linearGradient35893-2" x1="73.108" x2="73.471" y1="73.128" y2="-20.227" gradientTransform="matrix(2.8212 0 0 1.8292 209.16 969.49)" gradientUnits="userSpaceOnUse" xlink:href="#linearGradient17780-7-9-9-6"/>
  <linearGradient id="linearGradient35896-4" x1="103.67" x2="105.19" y1="1006.7" y2="830.98" gradientTransform="matrix(1.494 0 0 1.494 223.49 -402.72)" gradientUnits="userSpaceOnUse" xlink:href="#linearGradient17780-7-9-9-6"/>
  <linearGradient id="linearGradient35899-5" x1="27.086" x2="26.953" y1="1006.2" y2="829.15" gradientTransform="matrix(1.4636 0 0 1.494 224.59 -402.72)" gradientUnits="userSpaceOnUse" xlink:href="#linearGradient17780-7-9-9-6"/>
  <pattern id="pattern35902-5" patternTransform="matrix(.070848 -.067645 12.15 12.725 149.28 1122.1)" xlink:href="#pattern28286-1"/>
  <pattern id="pattern28286-1" patternTransform="matrix(.06642 -.063417 11.391 11.93 -85.317 1053.7)" xlink:href="#pattern6666-7"/>
  <pattern id="pattern6666-7" patternTransform="matrix(.047422 -.045278 8.1327 8.5178 -49.563 1006.3)" xlink:href="#pattern9529-1"/>
  <pattern id="pattern9529-1" patternTransform="matrix(.047422 -.045278 8.1327 8.5178 -49.563 1006.3)" xlink:href="#pattern9496-1"/>
  <pattern id="pattern9496-1" patternTransform="matrix(.047355 -.045348 8.1452 8.5058 396.14 -51.594)" xlink:href="#pattern9487-5"/>
  <pattern id="pattern9487-5" patternTransform="matrix(.056516 -.039102 6.9938 10.109 354.71 164.31)" xlink:href="#Strips1_64-2"/>
  <pattern id="Strips1_64-2" width="65" height="1" patternTransform="translate(0) scale(10)" patternUnits="userSpaceOnUse">
   <rect y="-.5" width="1" height="2"/>
  </pattern>
  <linearGradient id="linearGradient4380" x1="24.288" x2="22.322" y1="918.57" y2="1189.3" gradientTransform="matrix(1.494 0 0 1.494 236.18 -444.81)" gradientUnits="userSpaceOnUse" xlink:href="#linearGradient17780-7-9-9-6"/>
 </defs>
 <metadata>
  <rdf:RDF>
   <cc:Work rdf:about="">
    <dc:format>image/svg+xml</dc:format>
    <dc:type rdf:resource="http://purl.org/dc/dcmitype/StillImage"/>
    <dc:title>Abbildung für OPEN MIND Softwaredokumentation</dc:title>
    <dc:creator>
     <cc:Agent>
      <dc:title>OPEN MIND Technologies AG</dc:title>
     </cc:Agent>
    </dc:creator>
    <dc:rights>
     <cc:Agent>
      <dc:title>Alle Rechte vorbehalten.</dc:title>
     </cc:Agent>
    </dc:rights>
    <dc:publisher>
     <cc:Agent>
      <dc:title>Technische Redaktion</dc:title>
     </cc:Agent>
    </dc:publisher>
   </cc:Work>
  </rdf:RDF>
 </metadata>
 <g transform="translate(0 -857.95)">
  <g>
   <path d="m168.92 1061.5 15.228 9.0265 17.22-0.2692v-142.25h-18.026l-14.423 13.66v0l-0.39877 54.437h-79.323l-58.921-68.254-20 0.20635v143.7h26.439l52.881-54.838h79.323z" fill="url(#linearGradient35905)" fill-rule="evenodd" stroke="#4d4d4d" stroke-linecap="round" stroke-linejoin="round" stroke-miterlimit="5" stroke-width=".67654"/>
   <path d="m10.44 928.23 19.685-0.44317 58.998 68.308 79.437-0.0139 0.56613-54.324 14.243-13.648 18.002-0.0559 0.13266 141.77-17.15 0.4706-15.037-9.0652-0.28509-44.356-79.325 0.2198-53.034 54.652-26.384 0.068z" fill="url(#pattern35902)" opacity=".5" stroke="#000" stroke-width=".37795"/>
   <g fill-rule="evenodd" stroke="#4d4d4d" stroke-linecap="round" stroke-linejoin="round" stroke-miterlimit="5">
    <path d="m10.382 1105.4v-34.024h27.212v34.024" fill="url(#linearGradient35899)" stroke-width=".94757"/>
    <g stroke-width=".67654">
     <path d="m89.518 1105.4v-88.932h79.68v88.932" fill="url(#linearGradient35896)"/>
     <path d="m169.13 1105.4v-44.345l15.206 9.2977v35.047" fill="url(#linearGradient35893)"/>
     <path d="m184.19 1105.4v-35.364h17.365v35.364" fill="url(#linearGradient35890)"/>
     <path d="m36.974 1105.4v-34.024l52.518-54.54v88.564" fill="url(#linearGradient35887)"/>
    </g>
   </g>
  </g>
  <line x1="200.73" x2="10.575" y1="1105.4" y2="1105.4" fill="#34679b" stroke="#4d4d4d" stroke-dasharray="8.02521, 4.01261, 2.0063, 4.01261" stroke-linecap="round" stroke-linejoin="round" stroke-width="2.0063"/>
  <g>
   <polyline transform="matrix(2.8657 0 0 2.8591 -213.41 877.76)" points="87.23 41.839 91.62 46.442 91.62 43.445 100.64 43.445 100.64 40.234 91.62 40.234 91.62 37.344 87.23 41.839" fill="#d4aa00" stroke="#000" stroke-linecap="square" stroke-miterlimit="10" stroke-width=".33104"/>
   <path d="m409.06 1059.7 15.228 9.0265 17.22-0.2692v-142.25h-18.026l-14.423 13.66v0l-0.39877 54.437h-79.323l-58.921-68.254-20 0.20635v143.7h26.439l52.881-54.838h79.323z" fill="url(#linearGradient4380)" fill-rule="evenodd" stroke="#4d4d4d" stroke-linecap="round" stroke-linejoin="round" stroke-miterlimit="5" stroke-width=".67654"/>
   <path d="m250.45 926.43 19.685-0.44317 58.998 68.308 79.437-0.0134 0.56613-54.324 14.243-13.648 18.002-0.0559 0.13266 141.77-17.15 0.4706-15.037-9.0651-0.28509-44.356-79.325 0.2199-53.034 54.652-26.384 0.068z" fill="url(#pattern35902-5)" opacity=".5" stroke="#000" stroke-width=".37795"/>
   <g fill-rule="evenodd" stroke="#4d4d4d" stroke-linecap="round" stroke-linejoin="round" stroke-miterlimit="5" stroke-width=".67654">
    <path d="m250.53 1103.6v-34.024h27.212v34.024" fill="url(#linearGradient35899-5)"/>
    <path d="m329.67 1103.6v-88.932h79.68v88.932" fill="url(#linearGradient35896-4)"/>
    <path d="m409.28 1103.6v-44.345l15.206 9.2978v35.047" fill="url(#linearGradient35893-2)"/>
    <path d="m424.34 1103.6v-35.364h17.365v35.364" fill="url(#linearGradient35890-8)"/>
    <path d="m277.12 1103.6v-34.024l52.518-54.54v88.564" fill="url(#linearGradient35887-1)"/>
   </g>
  </g>
  <line x1="440.87" x2="250.72" y1="1103.6" y2="1103.6" fill="#34679b" stroke="#4d4d4d" stroke-dasharray="8.02521, 4.01261, 2.0063, 4.01261" stroke-linecap="round" stroke-linejoin="round" stroke-width="2.0063"/>
  <polyline transform="matrix(2.8657 0 0 2.8591 26.733 875.96)" points="87.23 41.839 91.62 46.442 91.62 43.445 100.64 43.445 100.64 40.234 91.62 40.234 91.62 37.344 87.23 41.839" fill="#d4aa00" stroke="#000" stroke-linecap="square" stroke-miterlimit="10" stroke-width=".33104"/>
  <g fill="none" stroke="#d4aa00" stroke-linecap="round" stroke-linejoin="round" stroke-width="2.2677">
   <path d="m156.67 991.8 0.0673 2.5943-66.698-1e-5"/>
   <path d="m85.489 989.13 71.288 0.0789v-4.934"/>
   <path d="m78.963 981.56 77.829 0.0163v-4.934"/>
   <path d="m65.53 966.01 91.155 0.0721v-4.934"/>
   <path d="m58.926 958.38 97.787 0.049v-4.934"/>
   <path d="m52.343 950.56 104.32 0.0721v-4.934"/>
   <path d="m45.702 942.81 111.09 0.0163v-4.934"/>
   <path d="m72.49 973.96 84.163-0.0789v-4.934"/>
   <path d="m38.931 935.09 124.33-0.10443v-4.934"/>
  </g>
  <g fill="none" stroke="#d4aa00" stroke-linecap="round" stroke-linejoin="round" stroke-width="2.2677">
   <path d="m347.17 984.14-0.0781 2.8516 50.114 5.2648-66.698-1e-5"/>
   <path d="m325.96 986.99 71.288 0.0789-50.008-7.4354-0.0961-3.1555"/>
   <path d="m319.03 979.43 78.233 0.0163-50.083-7.6145-0.0204-3.9191"/>
   <path d="m306 963.87 91.155 0.0721-49.915-7.6126-0.0542-3.9211"/>
   <path d="m299.4 956.24 97.787 0.049-50.113-7.5424 0.14419-3.3178"/>
   <path d="m292.81 948.43 104.32 0.0721-50.196-7.5323 0.0919-3.7319"/>
   <path d="m286.17 940.67 111.09 0.0163-50.156-7.7979 0.0524-4.2745"/>
   <path d="m312.96 971.83 84.163-0.0789-49.911-8.0939 0.0768-3.8438"/>
   <path d="m279.02 932.96 127.02 0.16495-48.084-10.595 6e-4 -4.8451"/>
  </g>
  <g transform="translate(158.79 989.46)">
   <ellipse cx="-44.92" cy="-98.798" rx="13.199" ry="13.469" fill="#1f638a" stroke-linecap="round" stroke-linejoin="round" stroke-width="1.0658"/>
   <text x="-50.761276" y="-91.125885" fill="#000000" font-family="'Arial Nova', 'Arial Unicode MS', 'Yu Gothic UI', sans-serif" font-size="12.8px" letter-spacing="0px" stroke-width="1.0667" word-spacing="0px" style="line-height:0%" xml:space="preserve"><tspan x="-50.761276" y="-91.125885" fill="#ffffff" font-family="'Arial Nova', 'Arial Unicode MS', 'Yu Gothic UI', sans-serif" font-size="21.333px" stroke="#ffffff" stroke-width="1.0667" style="line-height:1.25">1</tspan></text>
  </g>
  <g transform="translate(362.99 989.46)">
   <ellipse cx="-13.718" cy="-98.798" rx="13.199" ry="13.469" fill="#1f638a" stroke-linecap="round" stroke-linejoin="round" stroke-width="1.0658"/>
   <text x="-19.559933" y="-91.125885" fill="#000000" font-family="'Arial Nova', 'Arial Unicode MS', 'Yu Gothic UI', sans-serif" font-size="12.8px" letter-spacing="0px" stroke-width="1.0667" word-spacing="0px" style="line-height:0%" xml:space="preserve"><tspan x="-19.559933" y="-91.125885" fill="#ffffff" font-family="'Arial Nova', 'Arial Unicode MS', 'Yu Gothic UI', sans-serif" font-size="21.333px" stroke="#ffffff" stroke-width="1.0667" style="line-height:1.25">2</tspan></text>
  </g>
 </g>
</svg>
