<svg width="460" height="354" version="1.1" viewBox="0 0 121.71 93.663" xmlns="http://www.w3.org/2000/svg" xmlns:xlink="http://www.w3.org/1999/xlink">
 <defs>
  <linearGradient id="linearGradient34026-0" x1="1029.7" x2="1553.2" y1="1216.7" y2="943.94" gradientTransform="translate(-630.5 -1646.6)" gradientUnits="userSpaceOnUse" xlink:href="#linearGradient8517-45-9-8"/>
  <linearGradient id="linearGradient8517-45-9-8" x1="54.983" x2="54.983" y1="34.986" y2="34.986" gradientUnits="userSpaceOnUse">
   <stop stop-color="#FFFFFF" offset="0"/>
   <stop stop-color="#FCFCFC" offset=".2264"/>
   <stop stop-color="#F4F4F4" offset=".3626"/>
   <stop stop-color="#E6E6E6" offset=".475"/>
   <stop stop-color="#D1D1D1" offset=".5744"/>
   <stop stop-color="#B7B7B7" offset=".6652"/>
   <stop stop-color="#979797" offset=".7498"/>
   <stop stop-color="#707070" offset=".8297"/>
   <stop stop-color="#444444" offset=".9057"/>
   <stop stop-color="#121212" offset=".9761"/>
   <stop stop-color="#000000" offset="1"/>
  </linearGradient>
  <linearGradient id="linearGradient34028-8" x1="597.68" x2="1159.7" y1="918.07" y2="1191" gradientTransform="translate(-522.38 -1665.2)" gradientUnits="userSpaceOnUse" xlink:href="#linearGradient8517-45-9-8"/>
  <linearGradient id="linearGradient34030-9" x1="775.76" x2="823.23" y1="735.08" y2="794.99" gradientTransform="translate(-522.38 -1665.2)" gradientUnits="userSpaceOnUse" xlink:href="#linearGradient8517-45-9-8"/>
  <linearGradient id="linearGradient34032-8" x1="728.76" x2="785.73" y1="793.39" y2="858.54" gradientTransform="translate(-526.69 -1665.5)" gradientUnits="userSpaceOnUse" xlink:href="#linearGradient8517-45-9-8"/>
  <linearGradient id="linearGradient34034-8" x1="782.43" x2="844.94" y1="761.41" y2="838.55" gradientTransform="translate(-522.38 -1665.2)" gradientUnits="userSpaceOnUse" xlink:href="#linearGradient8517-45-9-8"/>
  <linearGradient id="linearGradient34036-2" x1="769.67" x2="879.58" y1="761.99" y2="880.21" gradientTransform="translate(-522.38 -1665.2)" gradientUnits="userSpaceOnUse" xlink:href="#linearGradient8517-45-9-8"/>
  <linearGradient id="linearGradient34038-5" x1="788.91" x2="894.69" y1="802.05" y2="937.83" gradientTransform="translate(-539.87 -1662.5)" gradientUnits="userSpaceOnUse" xlink:href="#linearGradient8517-45-9-8"/>
  <linearGradient id="linearGradient34040-6" x1="828.49" x2="856.11" y1="844.54" y2="877.89" gradientTransform="translate(-522.38 -1665.2)" gradientUnits="userSpaceOnUse" xlink:href="#linearGradient8517-45-9-8"/>
  <linearGradient id="linearGradient34042-9" x1="756.34" x2="831.49" y1="895.69" y2="978.82" gradientTransform="translate(-522.38 -1665.2)" gradientUnits="userSpaceOnUse" xlink:href="#linearGradient8517-45-9-8"/>
  <linearGradient id="linearGradient34044-9" x1="882.23" x2="949.5" y1="821.57" y2="897.33" gradientTransform="translate(-532.61 -1663.7)" gradientUnits="userSpaceOnUse" xlink:href="#linearGradient8517-45-9-8"/>
  <linearGradient id="linearGradient34046-0" x1="902.29" x2="940.51" y1="857.3" y2="904.39" gradientTransform="translate(-533.96 -1637.1)" gradientUnits="userSpaceOnUse" xlink:href="#linearGradient8517-45-9-8"/>
  <linearGradient id="linearGradient34048-9" x1="839.48" x2="940.12" y1="864.97" y2="978.62" gradientTransform="translate(-525.01 -1644.6)" gradientUnits="userSpaceOnUse" xlink:href="#linearGradient8517-45-9-8"/>
  <linearGradient id="linearGradient34050-1" x1="926.82" x2="974.88" y1="874.8" y2="932.12" gradientTransform="translate(-530.14 -1639.2)" gradientUnits="userSpaceOnUse" xlink:href="#linearGradient8517-45-9-8"/>
  <linearGradient id="linearGradient34052-3" x1="961.34" x2="1024.7" y1="856.46" y2="936.47" gradientTransform="translate(-525.59 -1647)" gradientUnits="userSpaceOnUse" xlink:href="#linearGradient8517-45-9-8"/>
  <linearGradient id="linearGradient34054-2" x1="990.72" x2="1037.8" y1="880.35" y2="938.69" gradientTransform="translate(-532.23 -1641.8)" gradientUnits="userSpaceOnUse" xlink:href="#linearGradient8517-45-9-8"/>
  <linearGradient id="linearGradient34056-5" x1="954.13" x2="1068.9" y1="858.91" y2="989.22" gradientTransform="translate(-520.06 -1651.3)" gradientUnits="userSpaceOnUse" xlink:href="#linearGradient8517-45-9-8"/>
  <linearGradient id="linearGradient34058-2" x1="1048.2" x2="1089.9" y1="894.24" y2="944.57" gradientTransform="translate(-525 -1641.1)" gradientUnits="userSpaceOnUse" xlink:href="#linearGradient8517-45-9-8"/>
  <linearGradient id="linearGradient34060-5" x1="1039.5" x2="1107" y1="895.78" y2="973.43" gradientTransform="translate(-510.13 -1651.5)" gradientUnits="userSpaceOnUse" xlink:href="#linearGradient8517-45-9-8"/>
  <linearGradient id="linearGradient34062-8" x1="1039.9" x2="1091.4" y1="884.9" y2="949.11" gradientTransform="translate(-463.56 -1636.7)" gradientUnits="userSpaceOnUse" xlink:href="#linearGradient8517-45-9-8"/>
  <linearGradient id="linearGradient34064-6" x1="1039.5" x2="1099.9" y1="895.78" y2="973.78" gradientTransform="translate(-443.64 -1650.2)" gradientUnits="userSpaceOnUse" xlink:href="#linearGradient8517-45-9-8"/>
  <linearGradient id="linearGradient8907" x1="31.756" x2="1438" y1="506.53" y2="934.53" gradientTransform="translate(-523.49 -1665.3)" gradientUnits="userSpaceOnUse">
   <stop stop-color="#000000" offset="0"/>
   <stop stop-color="#000000" stop-opacity="0" offset="1"/>
  </linearGradient>
  <linearGradient id="linearGradient14840" x1="56.251" x2="212.18" y1="113.08" y2="216.76" gradientTransform="matrix(1.0732 0 0 1.0732 66.585 -16.312)" gradientUnits="userSpaceOnUse" xlink:href="#linearGradient17780-7-5-4-9-3"/>
  <linearGradient id="linearGradient17780-7-5-4-9-3">
   <stop stop-color="#ffffff" offset="0"/>
   <stop stop-color="#00385e" offset="1"/>
  </linearGradient>
  <linearGradient id="linearGradient14837" x1="-9.8107" x2="149.22" y1="848.02" y2="1014.6" gradientTransform="matrix(1.0732 0 0 1.0732 67.856 -745.39)" gradientUnits="userSpaceOnUse" xlink:href="#linearGradient17780-7-5-4-9-3"/>
  <linearGradient id="linearGradient14834" x1="6.061" x2="310.16" y1="97.905" y2="340.37" gradientTransform="matrix(1.0732 0 0 1.0732 69.55 42.441)" gradientUnits="userSpaceOnUse" xlink:href="#linearGradient17780-7-5-4-9-3"/>
  <linearGradient id="linearGradient14831" x1="57.063" x2="855.58" y1="91.186" y2="804.47" gradientTransform="matrix(1.0732 0 0 1.0732 64.241 -14.575)" gradientUnits="userSpaceOnUse" xlink:href="#linearGradient4901-5-0-9"/>
  <linearGradient id="linearGradient4901-5-0-9">
   <stop stop-color="#ffffff" offset="0"/>
   <stop stop-color="#00385e" stop-opacity=".6229" offset="1"/>
  </linearGradient>
  <linearGradient id="linearGradient14827" x1="-79.818" x2="472.91" y1="818.9" y2="1070" gradientTransform="matrix(1.0732 0 0 1.0732 66.735 -743.9)" gradientUnits="userSpaceOnUse" xlink:href="#linearGradient17780-7-5-4-9-3"/>
  <radialGradient id="radialGradient18197" cx="426.93" cy="139.14" r="7.6407" gradientTransform="matrix(1.0603 -.16907 .18359 1.1513 -51.348 51.159)" gradientUnits="userSpaceOnUse" xlink:href="#linearGradient8517-45-9-8"/>
  <filter id="filter17167-9-7-0-3-0-7" x="-.024" y="-.024" width="1.048" height="1.048" color-interpolation-filters="sRGB">
   <feGaussianBlur stdDeviation="0.14647215"/>
  </filter>
  <filter id="filter17167-9-9-8-0" x="-.024" y="-.024" width="1.048" height="1.048" color-interpolation-filters="sRGB">
   <feGaussianBlur stdDeviation="0.14647215"/>
  </filter>
  <linearGradient id="linearGradient14800" x1="57.063" x2="855.58" y1="91.186" y2="804.47" gradientTransform="matrix(1.0732 0 0 1.0732 173.04 44.148)" gradientUnits="userSpaceOnUse" xlink:href="#linearGradient4901-5-0-9"/>
  <radialGradient id="radialGradient7805" cx="413.94" cy="230.95" r="6.0405" gradientTransform="matrix(1 0 0 .9026 -181.52 -64.838)" gradientUnits="userSpaceOnUse">
   <stop stop-color="#f8f8f8" offset="0"/>
   <stop stop-color="#F4F4F4" offset=".3626"/>
   <stop stop-color="#E6E6E6" offset=".475"/>
   <stop stop-color="#D1D1D1" offset=".5744"/>
   <stop stop-color="#B7B7B7" offset=".6652"/>
   <stop stop-color="#979797" offset=".7498"/>
   <stop stop-color="#707070" offset=".8297"/>
   <stop stop-color="#444444" offset=".9057"/>
   <stop stop-color="#121212" offset=".9761"/>
   <stop stop-color="#000000" offset="1"/>
  </radialGradient>
  <linearGradient id="linearGradient7807" x1="103.96" x2="118.4" y1="339.4" y2="339.32" gradientTransform="matrix(.18388 .0009385 -.00062039 .17511 213.28 53.055)" gradientUnits="userSpaceOnUse">
   <stop stop-color="#FFFFFF" offset="0"/>
   <stop stop-color="#FCFCFC" offset=".2264"/>
   <stop stop-color="#F4F4F4" offset=".3626"/>
   <stop stop-color="#E6E6E6" offset=".475"/>
   <stop stop-color="#D1D1D1" offset=".5744"/>
   <stop stop-color="#B7B7B7" offset=".6652"/>
   <stop stop-color="#979797" offset=".7498"/>
   <stop stop-color="#707070" offset=".81114"/>
   <stop stop-color="#444444" offset=".86548"/>
   <stop stop-color="#121212" offset=".9761"/>
   <stop stop-color="#000000" offset="1"/>
  </linearGradient>
  <linearGradient id="linearGradient7809" x1="559.24" x2="567.73" y1="32.557" y2="34.578" gradientTransform="matrix(.7364 0 0 .7364 -179.82 19.585)" gradientUnits="userSpaceOnUse" xlink:href="#linearGradient8517-45-9-8"/>
  <linearGradient id="linearGradient7811" x1="559.15" x2="573.22" y1="-40.896" y2="-40.539" gradientTransform="matrix(.7364 0 0 .7364 -179.83 19.577)" gradientUnits="userSpaceOnUse" xlink:href="#linearGradient8517-45-9-8"/>
 </defs>
 <g>
  <g transform="matrix(.26458 0 0 .26458 -.93951 -2.5243)">
   <g transform="matrix(.53975 .086501 -.086501 .53975 -119.41 586.9)" opacity=".55556" stroke="#000000">
    <path d="m568.65-595.81-2.8571 59.09 18.995-0.884 182.71-151.96 23.836-37.657 2.2549-55.007z" fill="url(#linearGradient34026-0)" stroke-width="1px"/>
    <g stroke-linecap="round" stroke-linejoin="round" stroke-width="1px">
     <path d="m138.05-795.93-2.6576 63.466c7.6255 40.38 22.909 105.65 162.14 170.43 72.524 25.518 164.3 44.211 268.26 25.646l2.984-58.864c-15.127 3.8983-63.858 5.625-63.858 5.625v7.4787c-7.321-0.1465-21.791-0.364-21.448-0.089l0.1785-7.6172c-16.42 0.2636-41.586-1.5655-41.586-1.5655l0.0683 7.2317-20.283-1.1514-0.10488-8.088c-18.88-2.3005-37.023-5.5953-37.023-5.5953l-0.0893 5.538c-8.4041-1.0154-18.571-3.7347-18.571-3.7347l0.14589-5.6603c-10.963-2.4716-22.097-5.1471-34.236-9.03l-8e-3 4.8848c-8.3107-1.3804-14.237-4.169-14.237-4.169l3e-4 -5.2715s-16.698-6.1101-31.186-12.604l-0.0657 0.1039-14.074-1.7531 6e-4 -4.8456-27.721-15.435-3e-4 4.7199c-1.8758-1.3547-10.225-6.9871-10.225-6.9871l-2e-5 -4.4018c-8.0557-5.0745-20.353-15.085-25.357-19.836l0.10017 5.3046-9.7431-7.033 0.12189-6.4139c-7.4656-7.0544-14.186-15.756-20.988-23.032l0.17857 5.4034c-3.1643-3.5155-8.0024-8.0692-9.062-10.054l0.33482-6.9741s-11.284-17.006-15.769-25.461c-0.52309-0.98618 0 5.6411 0 5.6411l-5.4296-10.376-2.5e-4 -7.8822c-4.8388-10.741-7.6444-25.341-10.792-37.548z" fill="url(#linearGradient34028-8)"/>
     <path d="m430.04-995.08v7.8918s-187.79 157.75-281.1 236.22l-0.0992-7.1996z" fill="url(#linearGradient34030-9)"/>
     <path d="m430.04-986.32 9.5013-0.24289-285.27 240.61v5.9061l-5.4611-10.799 5e-3 -0.0183z" fill="url(#linearGradient34032-8)"/>
     <path d="m495.67-990.83-0.1769 7.164s-232.52 191.65-325.84 270.11l0.26791-7.028z" fill="url(#linearGradient34034-8)"/>
     <path d="m495.71-983.54 7.3199 0.12627-324.26 274.3v5.8366c-4.366-3.067-8.1045-8.3346-9.0174-10.367z" fill="url(#linearGradient34036-2)"/>
     <path d="m552.78-974.69 6.6231 0.36611-350.2 296.54v6.0332l-9.654-7.157v-3.9516z" fill="url(#linearGradient34038-5)"/>
     <path d="m552.78-983.66v9.0637s-260.02 216.95-353.33 295.42l0.0983-5.9343z" fill="url(#linearGradient34040-6)"/>
     <path d="m597.49-973.31-0.07 7.1577s-269.66 234.56-362.97 313.02v-4.3213z" fill="url(#linearGradient34042-9)"/>
     <path d="m597.49-966.44 9.2657 3.5411-362.08 311.9v4.6093l-10.225-6.8664c94.27-79.673 269.14-233.05 363.04-313.18z" fill="url(#linearGradient34044-9)"/>
     <path d="m649.46-951.7 0.1694 6.81s-283.92 237.76-377.23 316.23l0.0983-6.4254z" fill="url(#linearGradient34046-0)"/>
     <path d="m649.73-945.25 5.3732 2.509-368.63 313.78v5.7437l-14.074-5.4431s377.28-316.72 377.33-316.59z" fill="url(#linearGradient34048-9)"/>
     <path d="m690.13-930.35-0.098 8.06s-279 232.67-372.31 311.14v-5.3093z" fill="url(#linearGradient34050-1)"/>
     <path d="m690.48-922.41 3.8554 3.134-362.37 307.29v4.8023c-5.6522-1.3433-14.237-3.7355-14.237-3.7355 95.158-80.245 277.44-231.43 372.75-311.49z" fill="url(#linearGradient34052-3)"/>
     <path d="m726.51-904.16-0.3662 7.3457-360.08 299.89 0.0893-6.0288z" fill="url(#linearGradient34054-2)"/>
     <path d="m726.73-896.43 4.8375 3.759-346.84 293.65-0.0708 5.6182c-8.2725-0.9886-13.139-2.1982-18.501-3.5102 97.268-78.749 263.92-219.99 360.57-299.51z" fill="url(#linearGradient34056-5)"/>
     <path d="m757.53-872.95 0.026 7.635s-242.38 201.45-335.69 279.91v-8.1664z" fill="url(#linearGradient34058-2)"/>
     <path d="m757.53-865.2 2.8732 2.8661-318.27 270.99v7.1927l-20.268-0.999c96.98-81.789 238.31-198.7 335.66-280.05z" fill="url(#linearGradient34060-5)"/>
     <path d="m780.93-836.24-0.022 6.3647s-204.12 169.31-297.43 247.78v-7.4094z" fill="url(#linearGradient34062-8)"/>
     <path d="m780.77-829.6 2.0879 5.765-277.94 234.31v7.3812l-21.448-0.1785v-0.06z" fill="url(#linearGradient34064-6)"/>
     <path d="m565.26-535.99 19.554-1.5178c-77.706 21.903-163.93 12.12-217.41-4.1964 66.802 13.795 132.96 18.523 197.86 5.7143z" fill="#000000"/>
    </g>
    <path d="m137.02-796.46 228.03-191.81c9.1258-3.0142 63.891-6.566 63.891-6.566l5e-5 7.5287 9.5878-0.016s6.9619-7.0669 8.6835-7.0555c16.088 0.1064 47.78 2.0845 47.78 2.0845l-0.1645 8.4969h6.9372l8.245-6.9739s28.307 4.6102 41.664 7.0984c-0.153 0.1061 0 8.8895 0 8.8895s3.9417 0.296 6.5576 0.1851c0 0 6.3174-6.7771 7.2555-6.5739 11.631 2.1431 30.901 7.732 30.901 7.732v7.1298s9.4276 3.7002 9.2657 3.295c0 0.091 0.023-7.5293 0.023-7.5293l42.82 18.354-0.1444 7.164s2.0129 0.9781 5.3824 2.4923c0.8045 0.3712 4.9959-4.8597 5.7955-4.4852 10.794 5.0549 20.09 10.302 29.745 16.19l-0.1195 8.1997 4.6897 3.2423s5.3596-5.0083 5.9715-4.6035c9.3489 6.1845 17.322 11.917 25.471 18.933 0.028 0.3675 0.028 8.4757 0.028 8.4757l4.5384 3.3207 4.4697-4.229c8.4264 7.8485 22.221 24.391 22.221 24.391l5e-4 7.8218 2.7621 2.9207 3.4734-3.5553c5.8685 8.416 17.187 29.333 17.187 29.333v7.8502l1.8523 4.8376s2.4303-3.726 2.5898-3.3496c5.582 13.169 8.0622 27.892 8.6829 41.927l-225.75 189.87c-201.5 26.405-368.23-46.601-417.79-159.42-5.8616-13.343-10.084-27.243-12.532-41.601z" fill="url(#linearGradient8907)" stroke-width=".5"/>
   </g>
   <g>
    <g stroke="#4d4d4d" stroke-linecap="round" stroke-linejoin="round">
     <path d="m77.279 137.5 137.89-80.754 106.99 62.527-137.74 77.865z" fill="url(#linearGradient14840)" stroke-width=".85444"/>
     <path d="m77.271 137.41 1.0769 89.161 105.84 61.248 0.14478-90.647z" fill="url(#linearGradient14837)" stroke-width=".68068"/>
     <path d="m183.76 196.96 138.27-77.671 0.0301 86.663-137.93 81.899z" fill="url(#linearGradient14834)" stroke-width=".68068"/>
    </g>
    <path d="m77.113 137.97 154.38-78.733 99.175 64.794-147.07 72.567z" fill="url(#linearGradient14831)" opacity=".502"/>
   </g>
   <path d="m183.91 196.82-106.39-59.259 154.01-78.839 99.689 65.419" fill="none" opacity=".7" stroke="#4d4d4d" stroke-linecap="round" stroke-linejoin="round" stroke-width=".63425"/>
   <path d="m76.798 138.3 2.394 87.975 103.85 61.266 0.80769-90.521z" fill="url(#linearGradient14827)" opacity=".5"/>
   <path d="m77.316 137.5 1.0548 89.314 105.78 61-0.1894-91.026z" fill="none" stroke="#4d4d4d" stroke-linecap="round" stroke-linejoin="round" stroke-width=".85444"/>
   <g transform="translate(76.471 -695.78)">
    <g stroke="#000000">
     <g>
      <g transform="rotate(209.8 144.2 902.12)" stroke-linecap="round" stroke-linejoin="round" stroke-width=".70866">
       <path d="m256.8 891.39-22.523-0.0967" fill="#800080"/>
       <path d="m264.86 891.4-14.355 3.4439 0.011-6.9332z" fill="#ffffff"/>
      </g>
      <text x="32.577194" y="847.78369" fill="#000000" font-family="'Arial Nova', 'Arial Unicode MS', 'Yu Gothic UI', sans-serif" letter-spacing="0px" word-spacing="0px" style="line-height:0%" xml:space="preserve"><tspan x="32.577194" y="847.78369" fill="#ff0000" font-family="'Arial Nova', 'Arial Unicode MS', 'Yu Gothic UI', sans-serif" font-size="10px" stroke="#000000" style="line-height:1.25">Y</tspan></text>
     </g>
     <g>
      <g transform="rotate(-30.831 103.15 1193)" stroke-linecap="round" stroke-linejoin="round" stroke-width=".70866">
       <path d="m256.8 891.39-22.523-0.0967" fill="#800080"/>
       <path d="m264.86 891.4-14.355 3.4439 0.011-6.9332z" fill="#ffffff"/>
      </g>
      <text x="80.219353" y="846.76166" fill="#000000" font-family="'Arial Nova', 'Arial Unicode MS', 'Yu Gothic UI', sans-serif" letter-spacing="0px" word-spacing="0px" style="line-height:0%" xml:space="preserve"><tspan x="80.219353" y="846.76166" fill="#ff0000" font-family="'Arial Nova', 'Arial Unicode MS', 'Yu Gothic UI', sans-serif" font-size="10px" stroke="#000000" style="line-height:1.25">X</tspan></text>
     </g>
     <g>
      <g stroke-linecap="round" stroke-linejoin="round" stroke-width=".70866">
       <path d="m60.835 839.55 0.11958 27.151" fill="#800080"/>
       <path d="m60.867 833.02 3.4666 14.35h-6.9332c1.228-7.2721 3.4666-14.35 3.4666-14.35z" fill="#ffffff"/>
      </g>
      <text x="60.862762" y="830.25275" fill="#000000" font-family="'Arial Nova', 'Arial Unicode MS', 'Yu Gothic UI', sans-serif" letter-spacing="0px" word-spacing="0px" style="line-height:0%" xml:space="preserve"><tspan x="60.862762" y="830.25275" fill="#ff0000" font-family="'Arial Nova', 'Arial Unicode MS', 'Yu Gothic UI', sans-serif" font-size="10px" stroke="#000000" style="line-height:1.25">Z</tspan></text>
     </g>
    </g>
    <g transform="translate(-203.35 1055.9)">
     <path transform="matrix(.9071 0 0 .90186 24.872 -1.1139)" d="m267.68-208.61c0 2.1113-1.7016 3.8228-3.8007 3.8228s-3.8007-1.7115-3.8007-3.8228c0-2.1113 1.7016-3.8228 3.8007-3.8228s3.8007 1.7115 3.8007 3.8228z" color="#000000" fill="#ffffff" stroke="#000000" stroke-linecap="round" stroke-linejoin="round" stroke-width=".7835"/>
     <path transform="matrix(.81605 0 0 .73445 48.612 -50.299)" d="m264.67-189.2c0 0.26645-0.1944 0.48245-0.4342 0.48245-0.23981 0-0.4342-0.216-0.4342-0.48245s0.19439-0.48244 0.4342-0.48244c0.2398 0 0.4342 0.21599 0.4342 0.48244z" color="#000000" fill="#000000"/>
    </g>
   </g>
   <g stroke-linecap="round">
    <path d="m184.04 196.87 147.26-72.73 0.9108 87.144-148.18 76.603z" fill="none" opacity=".7" stroke="#4d4d4d" stroke-linejoin="round" stroke-width=".63425"/>
    <path d="m203.99 205.97 95.216-52.554" fill="none" stroke="#800080" stroke-linejoin="round" stroke-width="1.3429"/>
    <path d="m241.61 151.01 92.805-51.62" fill="#ff0000" stroke="#ff0000" stroke-width="2.4803"/>
   </g>
   <path transform="matrix(.54631 0 0 .54631 66.143 78.218)" d="m433.36 137.91c0 4.0447-3.2789 7.3236-7.3236 7.3236s-7.3236-3.2789-7.3236-7.3236c0-4.0447 3.2789-7.3236 7.3236-7.3236s7.3236 3.2789 7.3236 7.3236z" fill="url(#radialGradient18197)" filter="url(#filter17167-9-7-0-3-0-7)"/>
   <path d="m303.02 153.61a4.1044 4.1044 0 1 1-8.2088 0 4.1044 4.1044 0 1 1 8.2088 0z" fill="none" stroke="#000000" stroke-linecap="round" stroke-linejoin="round" stroke-miterlimit="10" stroke-width=".35433"/>
   <path transform="matrix(.54631 0 0 .54631 -28.917 129.42)" d="m433.36 137.91c0 4.0447-3.2789 7.3236-7.3236 7.3236s-7.3236-3.2789-7.3236-7.3236c0-4.0447 3.2789-7.3236 7.3236-7.3236s7.3236 3.2789 7.3236 7.3236z" fill="url(#radialGradient18197)" filter="url(#filter17167-9-9-8-0)"/>
   <path d="m207.96 204.81a4.1044 4.1044 0 1 1-8.2088 0 4.1044 4.1044 0 1 1 8.2088 0z" fill="none" stroke="#000000" stroke-linecap="round" stroke-linejoin="round" stroke-miterlimit="10" stroke-width=".35433"/>
   <g>
    <path d="m184.64 196.97 146.23-72.025 0.87931 85.899-147.11 76.136z" fill="url(#linearGradient14800)" opacity=".502"/>
    <path d="m322.45 213.53 11.23 6.0487" fill="#1f638a" stroke="#1f638a" stroke-linecap="round" stroke-linejoin="round" stroke-opacity=".9594" stroke-width="1.1339"/>
    <path d="m240.93 229.86-31.219-19.624" fill="#d4aa00" stroke="#ffcc00" stroke-linecap="round" stroke-width="2.4803"/>
   </g>
   <g stroke-linecap="round" stroke-width="2.4803">
    <path d="m241.42 229.57v-78.489" fill="#ff0000" stroke="#ff0000"/>
    <path d="m333.8 175.88-14.406-9.7019" fill="#d4aa00" stroke="#ffcc00"/>
    <path d="m319.91 166.54-16.371-10.684" fill="#d4aa00" opacity=".42088" stroke="#ffcc00"/>
    <path d="m334 175.65 0.30205-75.274" fill="#ff0000" stroke="#ff0000"/>
    <path d="m211.07 211.09-3.6255-2.3069" fill="#d4aa00" opacity=".41751" stroke="#ffcc00"/>
   </g>
   <g transform="translate(-18.658 69.137)" stroke-linecap="round" stroke-linejoin="round">
    <g transform="translate(15.405 8.3338)" stroke-width=".63425">
     <path d="m238.14 143.33c-0.0107 3.01-2.5817 5.4371-5.7426 5.421-3.1609-0.0161-5.7147-2.4694-5.704-5.4794 7e-3 -2.0796 1.2368-3.8809 3.0386-4.7905l5.3828 0.0169c1.8066 0.92469 3.0327 2.7444 3.0253 4.832z" color="#000000" fill="url(#radialGradient7805)" fill-rule="evenodd" opacity=".76431" stroke="#000000" stroke-miterlimit="10"/>
     <g>
      <path d="m229.49 55.811c1.6133 0.70544 3.553 0.78821 5.3662 0l0.13302 82.694-5.3894-0.0275z" fill="url(#linearGradient7807)" opacity=".72727" stroke="#000000" stroke-miterlimit="10"/>
      <g stroke="#464646">
       <path d="m229.56 55.971-6.2436-24.805c3.353 3.4825 13.722 3.6684 17.268 0l-5.6907 24.687" fill="url(#linearGradient7809)"/>
       <path d="m240.92-29.454v60.611c-2.2078 3.3712-14.855 3.6644-17.817 0v-60.611" fill="url(#linearGradient7811)"/>
      </g>
     </g>
    </g>
    <path d="m256.43-21.212c-5.2135-2.3668-10.949-3.2163-18.073 0.14765 7.1415 3.3639 12.877 2.5145 18.09 0.14765l-9e-3 -0.14765z" fill="#ffffff" stroke="#464646" stroke-width=".46707"/>
   </g>
   <path d="m193.99 191.45 129.02-72.28 7.6235 4.956z" fill="#ff0000" fill-opacity=".23291" fill-rule="evenodd"/>
   <path d="m200.88 277.95 121.19-71.775 9.7069 5.1454z" fill="#ff0000" fill-opacity=".23291" fill-rule="evenodd"/>
   <g transform="translate(390.39 323.3)">
    <ellipse cx="-44.92" cy="-98.798" rx="13.199" ry="13.469" fill="#1f638a" stroke-linecap="round" stroke-linejoin="round" stroke-width="1.0658"/>
    <text x="-50.761276" y="-91.125885" fill="#000000" letter-spacing="0px" word-spacing="0px" style="line-height:0%" xml:space="preserve"><tspan x="-50.761276" y="-91.125885" fill="#ffffff" font-family="'Arial Nova', 'Arial Unicode MS', 'Yu Gothic UI', sans-serif" font-size="20px" stroke="#ffffff" stroke-width="1.0667" style="line-height:1.25">1</tspan></text>
   </g>
  </g>
 </g>
</svg>
