<?xml version="1.0"?>
<svg xmlns="http://www.w3.org/2000/svg" xmlns:xlink="http://www.w3.org/1999/xlink" width="637.8" height="230.31" version="1.1" viewBox="0 0 180 65">
 <path d="m91.988 18.342h-32.225c-5.7437-0.35427-8.4548 2.5235-6.7095 6.2525 0.4994 1.067 1.658 3.6795 1.8518 7.8401-0.03834 8.704-6.8231 15.489-15.251 15.489s-15.212-6.7847-15.212-15.212c0-4.0533 1.5694-7.7266 4.1418-10.461 5.6802-5.2344 3.2833-9.9348-4.1038-9.4791h-19.165" fill="none" stroke="#d4aa00" stroke-linecap="round" stroke-linejoin="round" stroke-width=".6"/>
 <path d="m13.901 17.529v42.017h51.578v-36.731h-9.2499a19.319 19.319 0 0 1 2.7695 9.9345 19.319 19.319 0 0 1-19.32 19.319 19.319 19.319 0 0 1-19.319-19.319 19.319 19.319 0 0 1 7.4318-15.22z" fill="#cad6de" fill-rule="evenodd" stroke="#050503" stroke-linecap="round" stroke-linejoin="round" stroke-width=".4"/>
 <g fill="none" stroke-linecap="round" stroke-linejoin="round">
  <path d="m48.542 11.513-14.771 39.459" stroke="#ff0000" stroke-width=".4"/>
  <path d="m92.318 18.457c-3.8666 20.467-21.738 35.843-43.329 35.843-23.607 0-42.891-18.505-44.139-41.801" stroke="#ff9d00" stroke-dasharray="1.2, 1.2" stroke-width=".4"/>
  <path d="m92.808 4.6939c0.24929 1.9 0.37791 3.8381 0.37791 5.8062 0 2.5424-0.21464 5.0347-0.62681 7.4598m-87.832-6.2227c-0.013758-0.44751 0.17171-4.9828 0.40105-6.8072" stroke="#d4aa00" stroke-width=".6"/>
 </g>
 <g stroke-linecap="round" stroke-linejoin="round">
  <path d="m98.56 17.607v41.83h53.597v-36.568h-9.612a20.075 19.233 0 0 1 2.8779 9.89 20.075 19.233 0 0 1-20.076 19.233 20.075 19.233 0 0 1-20.075-19.233 20.075 19.233 0 0 1 7.7226-15.152z" fill="#cad6de" fill-rule="evenodd" stroke="#050503" stroke-width=".4"/>
  <path d="m138.71 22.383s0.19677 1.277 0.56708 2.069c0.50472 1.078 1.6757 3.719 1.8716 7.924-0.0388 8.797-6.896 15.654-15.414 15.654s-15.375-6.857-15.375-15.375c0-4.097 1.5862-7.809 4.1861-10.573 1.4699-1.355 2.4046-2.674 2.8566-3.879" fill="none" opacity=".94458" stroke="#d4aa00" stroke-width=".6"/>
  <path d="m131.3 6.024-8.8611 45.091" fill="none" stroke="#f50808" stroke-width=".4"/>
 </g>
 <g transform="matrix(.26458 0 0 .26458 125.91 86.721)">
  <ellipse cx="-13.718" cy="-98.798" rx="13.199" ry="13.469" fill="#1f638a" stroke-linecap="round" stroke-linejoin="round" stroke-width="1.0658"/>
  <text x="-19.559933" y="-91.125885" fill="#000000" letter-spacing="0px" word-spacing="0px" style="line-height:0%" xml:space="preserve"><tspan x="-19.559933" y="-91.125885" fill="#ffffff" font-family="Arial" font-size="20px" stroke="#ffffff" stroke-width="1.0667" style="line-height:1.25">3</tspan></text>
 </g>
 <path d="m122.2 52.958v4.58" fill="#1f638a" fill-rule="evenodd" stroke="#1f638a" stroke-width=".26458px"/>
 <g transform="translate(146.3 36.729)">
  <g transform="matrix(.26458 0 0 .26458 13.375 5.0404)">
   <ellipse cx="-44.92" cy="-98.798" rx="13.199" ry="13.469" fill="#1f638a" stroke-linecap="round" stroke-linejoin="round" stroke-width="1.0658"/>
   <text x="-50.761276" y="-91.125885" fill="#000000" letter-spacing="0px" word-spacing="0px" style="line-height:0%" xml:space="preserve"><tspan x="-50.761276" y="-91.125885" fill="#ffffff" font-family="Arial" font-size="20px" stroke="#ffffff" stroke-width="1.0667" style="line-height:1.25">2</tspan></text>
  </g>
  <path d="m-0.57198-18.391-3.0693 3.451" fill="#1f638a" fill-rule="evenodd" stroke="#1f638a" stroke-width=".26458px"/>
 </g>
 <g transform="translate(133.06 34.14)">
  <g transform="matrix(.26458 0 0 .26458 13.375 5.0404)">
   <ellipse cx="-44.92" cy="-98.798" rx="13.199" ry="13.469" fill="#1f638a" stroke-linecap="round" stroke-linejoin="round" stroke-width="1.0658"/>
   <text x="-50.761276" y="-91.125885" fill="#000000" letter-spacing="0px" word-spacing="0px" style="line-height:0%" xml:space="preserve"><tspan x="-50.761276" y="-91.125885" fill="#ffffff" font-family="Arial" font-size="20px" stroke="#ffffff" stroke-width="1.0667" style="line-height:1.25">1</tspan></text>
  </g>
  <path d="m-0.57198-18.391-3.0693 3.451" fill="#1f638a" fill-rule="evenodd" stroke="#1f638a" stroke-width=".26458px"/>
 </g>
 <g transform="translate(118.29 31.648)">
  <g transform="matrix(.26458 0 0 .26458 13.375 5.0404)">
   <ellipse cx="-44.92" cy="-98.798" rx="13.199" ry="13.469" fill="#1f638a" stroke-linecap="round" stroke-linejoin="round" stroke-width="1.0658"/>
   <text x="-50.761276" y="-91.125885" fill="#000000" letter-spacing="0px" word-spacing="0px" style="line-height:0%" xml:space="preserve"><tspan x="-50.761276" y="-91.125885" fill="#ffffff" font-family="Arial" font-size="20px" stroke="#ffffff" stroke-width="1.0667" style="line-height:1.25">2</tspan></text>
  </g>
  <path d="m-0.57198-18.391-3.0693 3.451" fill="#1f638a" fill-rule="evenodd" stroke="#1f638a" stroke-width=".26458px"/>
 </g>
 <path d="m143.25 22.372a1.1885 1.1885 0 1 1-2.377 0 1.1885 1.1885 0 1 1 2.377 0z" fill="#22ff4c" fill-rule="evenodd" stroke-width=".1031"/>
 <path d="m114.91 17.182a1.1885 1.1885 0 1 1-2.377 0 1.1885 1.1885 0 1 1 2.377 0z" fill="#22ff4c" fill-rule="evenodd" stroke-width=".1031"/>
 <g fill="#cf49ff" fill-rule="evenodd">
  <path d="m50.965 9.6403a1.7539 1.7539 0 1 1-3.5078 0 1.7539 1.7539 0 1 1 3.5078 0z" stroke-width=".15214"/>
  <path d="m130.12 20.003a1.471 1.471 0 1 1-2.9421 0 1.471 1.471 0 1 1 2.9421 0z" stroke-width=".12761"/>
  <path d="m123.76 51.583a1.471 1.471 0 1 1-2.9421 0 1.471 1.471 0 1 1 2.9421 0z" stroke-width=".12761"/>
 </g>
</svg>
