<?xml version="1.0" encoding="UTF-8" standalone="no"?>
<svg xmlns:inkscape="http://www.inkscape.org/namespaces/inkscape" xmlns:sodipodi="http://sodipodi.sourceforge.net/DTD/sodipodi-0.dtd" xmlns:xlink="http://www.w3.org/1999/xlink" xmlns="http://www.w3.org/2000/svg" xmlns:svg="http://www.w3.org/2000/svg" width="130mm" height="70mm" version="1.1" viewBox="0 0 138.67 74.667" id="svg64882" sodipodi:docname="5X_Formnuten_Schlichten_SyncLinien_einfach.svg" inkscape:version="1.2.2 (732a01da63, 2022-12-09)">
  <sodipodi:namedview id="namedview64884" pagecolor="#ffffff" bordercolor="#666666" borderopacity="1.0" inkscape:showpageshadow="2" inkscape:pageopacity="0.0" inkscape:pagecheckerboard="0" inkscape:deskcolor="#d1d1d1" inkscape:document-units="mm" showgrid="false" inkscape:zoom="0.89202381" inkscape:cx="84.078473" inkscape:cy="132.84399" inkscape:window-width="1920" inkscape:window-height="1010" inkscape:window-x="953" inkscape:window-y="-6" inkscape:window-maximized="1" inkscape:current-layer="svg64882"/>
  <defs id="defs64564">
    <linearGradient id="linearGradient32444">
      <stop stop-color="#00385e" offset="0" id="stop64545"/>
      <stop stop-color="#1f5072" offset=".1698" id="stop64547"/>
      <stop stop-color="#3f6986" offset=".26221" id="stop64549"/>
      <stop stop-color="#5f829a" offset=".42429" id="stop64551"/>
      <stop stop-color="#5f829a" offset=".52743" id="stop64553"/>
      <stop stop-color="#3f6986" offset=".63807" id="stop64555"/>
      <stop stop-color="#1f5072" offset=".79021" id="stop64557"/>
      <stop stop-color="#00385e" offset="1" id="stop64559"/>
    </linearGradient>
    <linearGradient id="linearGradient31007" x1="23.088" x2="33.666" y1="34.622" y2="30.382" gradientTransform="translate(-5.8853 -31.978)" gradientUnits="userSpaceOnUse" xlink:href="#linearGradient32444"/>
    <linearGradient id="linearGradient33723" x1="23.088" x2="33.666" y1="34.622" y2="30.382" gradientTransform="matrix(-1 0 0 1 74.378 -31.899)" gradientUnits="userSpaceOnUse" xlink:href="#linearGradient32444"/>
  </defs>
  <g id="g64574">
    <rect x="2.9662" y="8.6424" width="115.89" height="63.137" fill="#cad6de" stroke="#7c7f7f" stroke-linecap="round" stroke-linejoin="round" stroke-width=".4" id="rect64566"/>
    <path d="m3.0493 18.153v42.51h63.694v10.883h42.933v-10.918h0.0353c0.40281-20.974-18.456-42.509-42.845-42.43v-0.0441" fill="#426c88" fill-rule="evenodd" stroke="#000000" stroke-linecap="round" stroke-linejoin="round" stroke-width=".19093" id="path64568"/>
    <path d="m2.8647 39.127h64.553c10.227-0.30339 22.241 8.1605 22.154 22.002v10.39" fill="none" stroke="#f304f9" stroke-width=".85333" id="path64570"/>
    <path d="m66.677 17.938h-63.813v42.823h63.689v10.969h42.93v-11.005h0.0353c0.40278-21.14-18.455-42.867-42.842-42.787v0" fill="none" stroke="#00fe1d" stroke-linecap="round" stroke-linejoin="round" stroke-width=".6425" id="path64572" style="stroke:#7ab51d;stroke-opacity:1"/>
  </g>
  <g id="g64600">
    <g transform="translate(.38739 -.1172)" id="g64586">
      <g transform="matrix(.28222 0 0 .28222 45.738 97.606)" id="g64582">
        <ellipse cx="-44.92" cy="-98.798" rx="13.199" ry="13.469" fill="#1f638a" stroke-linecap="round" stroke-linejoin="round" stroke-width="1.0658" id="ellipse64576"/>
        <text x="-50.761276" y="-91.125885" fill="#000000" letter-spacing="0px" word-spacing="0px" style="line-height:0%" xml:space="preserve" id="text64580"><tspan x="-50.761276" y="-91.125885" fill="#ffffff" font-family="Arial" font-size="20px" stroke="#ffffff" stroke-width="1.0667" style="line-height:1.25" id="tspan64578">1</tspan></text>
      </g>
      <path d="m33.109 61.15v4.8168" fill="#1f638a" fill-rule="evenodd" stroke="#1f638a" stroke-width=".42667" id="path64584"/>
    </g>
    <g transform="translate(.38739 .93149)" id="g64598">
      <g transform="matrix(.28222 0 0 .28222 115.16 51.912)" id="g64594">
        <ellipse cx="-44.92" cy="-98.798" rx="13.199" ry="13.469" fill="#1f638a" stroke-linecap="round" stroke-linejoin="round" stroke-width="1.0658" id="ellipse64588"/>
        <text x="-50.761276" y="-91.125885" fill="#000000" letter-spacing="0px" word-spacing="0px" style="line-height:0%" xml:space="preserve" id="text64592"><tspan x="-50.761276" y="-91.125885" fill="#ffffff" font-family="Arial" font-size="20px" stroke="#ffffff" stroke-width="1.0667" style="line-height:1.25" id="tspan64590">1</tspan></text>
      </g>
      <path d="m100.21 26.829-3.3899 3.2278" fill="#1f638a" fill-rule="evenodd" stroke="#1f638a" stroke-width=".42667" id="path64596"/>
    </g>
  </g>
  <g display="none" id="g64638">
    <g transform="translate(1.0112 25.805)" fill-rule="evenodd" id="g64606">
      <path d="m23.702-7.561c-1.5381 1.0272-1.3363 2.7418-4.1986 3.5668-3.5148 1.0019-3.9887-2.3748-6.0675-3.5668z" display="inline" fill="#cad6de" id="path64602"/>
      <path d="m11.582-7.4862 10.496 18.773c2.5113 3.5547 6.6807 0.72415 5.7678-2.1723-1.8109-6.0748-3.1455-11.923-2.0225-16.601h-2.0936c-1.5381 1.0272-1.3363 2.7418-4.1986 3.5668-3.5148 1.0019-3.9887-2.3748-6.0675-3.5668z" fill="url(#linearGradient31007)" stroke="#000000" stroke-width=".19093" id="path64604"/>
    </g>
    <g transform="translate(.29963 25.768)" fill-rule="evenodd" id="g64612">
      <path d="m44.724-7.4985c1.5381 1.0272 1.3363 2.7418 4.1986 3.5668 3.5148 1.0019 3.9887-2.3748 6.0675-3.5668z" display="inline" fill="#cad6de" id="path64608"/>
      <path d="m56.91-7.4077-10.496 18.773c-2.5113 3.5547-6.6807 0.72415-5.7678-2.1723 1.8109-6.0748 3.1455-11.923 2.0225-16.601h2.0936c1.5381 1.0272 1.3363 2.7418 4.1986 3.5668 3.5148 1.0019 3.9887-2.3748 6.0675-3.5668z" fill="url(#linearGradient33723)" stroke="#000000" stroke-width=".19093" id="path64610"/>
    </g>
    <path d="m19.297 18.28 6.8187 20.037" fill="none" stroke="#fffdff" stroke-linecap="round" stroke-linejoin="round" stroke-width=".64" id="path64614"/>
    <path d="m50.699 18.24-6.9663 20.187" fill="none" stroke="#fffdff" stroke-linecap="round" stroke-linejoin="round" stroke-width=".64" id="path64616"/>
    <g transform="translate(3.7336 -18.098)" id="g64624">
      <ellipse cx="47.044" cy="27.514" rx="3.7251" ry="3.8012" fill="#1f638a" stroke-linecap="round" stroke-linejoin="round" stroke-width=".3008" id="ellipse64618"/>
      <text x="45.395557" y="29.695885" fill="#000000" font-family="'Arial Nova', 'Arial Unicode MS', 'Yu Gothic UI', sans-serif" font-size="3.3867px" letter-spacing="0px" stroke-width=".28222" word-spacing="0px" style="line-height:0%" xml:space="preserve" id="text64622"><tspan x="45.395557" y="29.695885" fill="#ffffff" font-family="'Arial Nova', 'Arial Unicode MS', 'Yu Gothic UI', sans-serif" font-size="5.6444px" stroke="#ffffff" stroke-width=".30104" style="line-height:1.25" id="tspan64620">2</tspan></text>
    </g>
    <g transform="translate(-2.7922 -16.96)" id="g64632">
      <ellipse cx="22.044" cy="26.349" rx="3.7251" ry="3.8012" fill="#1f638a" stroke-linecap="round" stroke-linejoin="round" stroke-width=".3008" id="ellipse64626"/>
      <text x="20.469954" y="28.47764" fill="#000000" font-family="'Arial Nova', 'Arial Unicode MS', 'Yu Gothic UI', sans-serif" font-size="3.3867px" letter-spacing="0px" stroke-width=".28222" word-spacing="0px" style="line-height:0%" xml:space="preserve" id="text64630"><tspan x="20.469954" y="28.47764" fill="#ffffff" font-family="'Arial Nova', 'Arial Unicode MS', 'Yu Gothic UI', sans-serif" font-size="5.6444px" stroke="#ffffff" stroke-width=".30104" style="line-height:1.25" id="tspan64628">2</tspan></text>
    </g>
    <path d="m50.719 13.163v4.8168" display="inline" fill="#1f638a" fill-rule="evenodd" stroke="#1f638a" stroke-width=".42667" id="path64634"/>
    <path d="m19.243 13.155v4.8168" display="inline" fill="#1f638a" fill-rule="evenodd" stroke="#1f638a" stroke-width=".42667" id="path64636"/>
  </g>
  <g id="g64666">
    <path d="m66.601 18.167 0.14981 41.97h42.627" fill="none" stroke="#fffdff" stroke-linecap="round" stroke-linejoin="round" stroke-width=".64" id="path64640"/>
    <g id="g64652">
      <g transform="matrix(.28222 0 0 .28222 70.665 37.261)" id="g64648">
        <ellipse cx="-13.718" cy="-98.798" rx="13.199" ry="13.469" fill="#1f638a" stroke-linecap="round" stroke-linejoin="round" stroke-width="1.0658" id="ellipse64642"/>
        <text x="-19.559933" y="-91.125885" fill="#000000" letter-spacing="0px" word-spacing="0px" style="line-height:0%" xml:space="preserve" id="text64646"><tspan x="-19.559933" y="-91.125885" fill="#ffffff" font-family="Arial" font-size="20px" stroke="#ffffff" stroke-width="1.0667" style="line-height:1.25" id="tspan64644">2</tspan></text>
      </g>
      <path d="m66.603 13.069v4.8168" fill="#1f638a" fill-rule="evenodd" stroke="#1f638a" stroke-width=".42667" id="path64650"/>
    </g>
    <g id="g64664">
      <g transform="matrix(.28222 0 0 .28222 112.98 87.9)" id="g64660">
        <ellipse cx="17.483" cy="-98.798" rx="13.199" ry="13.469" fill="#1f638a" stroke-linecap="round" stroke-linejoin="round" stroke-width="1.0658" id="ellipse64654"/>
        <text x="11.641406" y="-91.256096" fill="#000000" font-family="'Arial Nova', 'Arial Unicode MS', 'Yu Gothic UI', sans-serif" letter-spacing="0px" word-spacing="0px" style="line-height:0%" xml:space="preserve" id="text64658"><tspan x="11.641406" y="-91.256096" fill="#ffffff" font-family="Arial" font-size="20px" stroke="#ffffff" stroke-width="1.0667" style="line-height:1.25" id="tspan64656">2</tspan></text>
      </g>
      <path d="m114.6 60.247h-4.8168" fill="#1f638a" fill-rule="evenodd" stroke="#1f638a" stroke-width=".42667" id="path64662"/>
    </g>
  </g>
  <g id="g64802">
    <g display="none" fill="none" stroke="#ffcc00" stroke-linecap="round" stroke-linejoin="round" stroke-width=".40427" id="g64672">
      <path d="m4.0543 54.472c-0.0247 0.05728-0.11879-29.378-0.11879-29.378h4.1948l-0.89888 14.42c0.14024 2.78 3.0979 2.4672 3.4339 0.22719l1.3602-14.647h4.1199l-2.2472 14.588c-0.0557 1.835 2.019 2.97 3.2959-5.54e-4l2.8465-14.588h3.7454l-3.2585 14.588c-0.013 2.1239 1.9147 2.7122 3.221 0.13109l4.1573-14.719h3.8952l-5.0188 14.984c-0.30201 1.2426 2.2004 2.375 3.7454-0.41465l5.1686-14.569h3.8952l-6.2173 14.644c-0.60474 1.4623 1.9727 3.0232 3.5206-0.22472l6.8165-14.42c0.0353 0.11325 3.8952 0 3.8952 0l-7.7154 14.719c-0.66461 1.5481 1.9264 2.2003 3.4457 0l8.3147-14.719h3.8202l-8.9888 14.719c-0.69388 1.9624 1.7732 2.1268 3.4083-1e-6l9.4757-14.719h3.9701l-10.393 14.813c-0.6494 1.0842 0.74682 2.6777 3.4928-0.25254l11.17-14.56h4.1199l-11.91 14.569c-0.92244 1.4915 0.88526 2.4745 3.2589 0.21777l12.546-14.001 3.8202 1.2734-13.127 12.303c-2.0439 1.8599 0.17715 2.2771 3.1461-0.09363l13.577-10.862 3.221 1.8727-13.446 9.7004c-0.94696 0.89735-1.0426 2.5699 2.6592 1.2734l14.157-8.6517 3.0712 2.7716-14.157 7.1536c-1.6941 0.87778-0.41195 2.7527 2.8465 1.985l13.708-6.3671 2.3221 3.0712-14.008 5.5431c-2.1275 1.2372 0.0873 3.3282 2.0225 2.7716l14.008-5.1686 1.7228 3.9701-14.382 3.8952c-1.7353 1.1236-0.5743 3.6829 1.573 3.2959l14.082-3.7453 0.89888 3.8203-14.607 2.7716c-2.2993 0.79514-1.5931 3.6615 0.59924 3.8952l14.008-2.4719 0.37453 3.9701-14.757 1.2734c-1.2466 0.14529-2.7208 2.86 0.22473 3.3708l14.457-0.74907v3.9701l-14.906-0.22472" id="path64668"/>
      <path d="m4.0029 54.663h3.4535l0.92307-14.288c0.58968-3.2294 4.4462-3.2162 4.4077-0.3021l-2.0613 14.591h3.5206l2.8971-15.431c0.0941-1.835 4.416-2.3708 4.1199 0.07547l-3.4964 15.355h3.2959l4.7323-15.356c1.2383-2.058 3.633-2.4562 4.3446 0.09363l-6.3054 15.262h3.8952l7.1668-15.677c0.93206-1.8938 4.693-1.3238 3.8203 0.41465l-7.6163 15.262h3.3708l9.2642-15.412c0.61491-1.5153 4.5427-2.2817 3.1498 0.64846l-8.9684 14.764c0.0353-0.11324 3.2959 0 3.2959 0l10.514-15.063c1.4304-1.8099 4.4986-2.4623 4.2932-0.42374l-11.437 15.487h3.4083l11.449-14.269c2.696-3.1277 6.0106-2.9213 5.1032-0.79451l-13.069 15.063h3.2959l14.006-14.852c2.9781-2.7946 5.8782-1.1572 3.9101 0.39589l-14.433 14.456h3.7341l14.682-12.678c2.5167-1.6632 5.9906-0.23087 4.2697 2.3221l-14.832 10.356 4.4157 0.60166 13.412-8.6355c2.0711-0.71524 5.0669 2.4183 2.3221 3.8952l-13.724 6.3558 0.88525 2.4114 14.508-4.8502c2.0571-0.55359 4.1326 2.764 0.82398 4.3446l-15.187 2.5204 0.31703 3.4851 15.073-1.8326c2.4717-0.18926 3.5234 3.616 0.14982 4.4195l-14.946 0.72713-0.0795 3.3178h14.688" id="path64670"/>
    </g>
    <g id="g64740">
      <g transform="translate(-5.5086 -6.3561)" fill="none" stroke="#ffcc00" stroke-linecap="round" stroke-linejoin="round" stroke-width=".40427" id="g64738">
        <g id="g64716">
          <path d="m9.5253 31.397h4.2555v29.632h-4.2555z" style="paint-order:markers stroke fill" id="path64674"/>
          <path d="m22.479 46.575-0.03746 14.454h-4.2555v-29.632h4.2555l-0.01873 14.28" style="paint-order:markers stroke fill" id="path64676"/>
          <path d="m31.018 46.557-0.18727 14.473h-4.2555l0.16854-14.341m-0.13469-1.3674-0.03385-13.923h4.2556l0.20599 14.336" style="paint-order:markers stroke fill" id="path64678"/>
          <path d="m39.684 46.819-0.01873 14.21h-4.5364l0.14981-14.341m-0.07491-1.2921-0.0749-13.999h4.2555l0.09363 14.504" style="paint-order:markers stroke fill" id="path64680"/>
          <path d="m48.27 46.07-0.22472 14.959h-4.2555l0.03745-14.903m-0.05618-0.74907 0.01872-13.98h4.2555l-0.20599 14.298" style="paint-order:markers stroke fill" id="path64682"/>
          <path d="m56.882 46.514 0.07733 14.515h-4.2556l-0.1192-14.979m-0.33481 0.10684-0.1816-14.76h4.2555l0.51385 14.244" style="paint-order:markers stroke fill" id="path64684"/>
          <path d="m65.449 46.127 0.02648 14.902h-4.2555l-0.14532-14.631m-1.62e-4 -0.78386-0.36014-14.218h4.2555l0.13109 14.392" style="paint-order:markers stroke fill" id="path64686"/>
          <rect transform="rotate(90)" x="73.586" y="-109.16" width="4.2555" height="29.525" style="paint-order:markers stroke fill" id="rect64688"/>
          <path d="m69.228 45.839 0.12787-14.442h4.2555l-0.11635 14.289c-0.03392 2.05 1.8786 1.9471 2.0217 0.29128l1.5611-14.34 3.6405 0.52998-3.0177 14.268c-0.31555 1.7344 1.5929 1.6993 1.92 0.83272" style="paint-order:markers stroke fill" id="path64690"/>
          <path d="m82.11 48.665c1.9641-3.3493 5.4502-0.28977 4.1926 1.5397l-0.67052 1.0376" style="paint-order:markers stroke fill" id="path64692"/>
          <path d="m88.518 53.991c2.9673-2.8051 5.3694 1.0543 3.765 2.4542l-1.5643 1.0406" style="paint-order:markers stroke fill" id="path64694"/>
          <path d="m92.652 61.1c3.3519-1.8044 4.5065 2.8096 2.7562 3.6643l-1.3969 0.34264" style="paint-order:markers stroke fill" id="path64696"/>
          <path d="m82.127 48.682-6.162 13.1-1.2967-0.44945 3.5339-13.637" style="paint-order:markers stroke fill" id="path64698"/>
          <path d="m88.322 54.258-10.307 9.177-1.0203-0.91786 8.5752-11.16" style="paint-order:markers stroke fill" id="path64700"/>
          <path d="m92.6 61.102-13.543 4.5649-0.59098-1.2386 12.253-6.9805" style="paint-order:markers stroke fill" id="path64702"/>
          <path d="m94.405 69.219h-15.164l-0.06175-2.4156 14.833-1.6749" style="paint-order:markers stroke fill" id="path64704"/>
          <path d="m79.66 47.151 4.5509-13.978 3.4733 1.2126-5.8037 13.007c-0.70567 1.4955 0.81747 2.7994 1.956 1.1886l7.1222-12.584 3.1776 1.854-8.4034 11.757c-1.0679 1.5022 0.35414 2.8023 1.6403 1.478l9.3009-10.907 2.7608 2.4315-10.556 10.105c-1.4524 1.2742 0.33137 2.4895 1.2946 1.6414" style="paint-order:markers stroke fill" id="path64706"/>
          <path d="m90.245 54.326 11.16-8.8927 2.2026 2.9467-11.924 7.5468c-1.8118 1.1451-0.37875 2.7286 0.69996 2.1374" style="paint-order:markers stroke fill" id="path64708"/>
          <path d="m92.474 58.022 13.036-6.4808 1.5591 3.3322-13.391 5.0337c-1.992 0.7962-0.91287 2.6362 0.34363 2.2664" style="paint-order:markers stroke fill" id="path64710"/>
          <path d="m94.05 62.169 14.166-3.7971 0.85871 3.5773-14.502 2.2272c-1.6437 0.28251-1.5866 2.278-0.0074 2.2206" style="paint-order:markers stroke fill" id="path64712"/>
          <path d="m94.723 66.415 14.297-0.72417 0.10014 3.6223h-13.779l-1.0196-0.06844" style="paint-order:markers stroke fill" id="path64714"/>
        </g>
        <g id="g64726">
          <circle cx="16.006" cy="46.126" r="2.1348" style="paint-order:markers stroke fill" id="circle64718"/>
          <circle cx="24.583" cy="46.163" r="2.1348" style="paint-order:markers stroke fill" id="circle64720"/>
          <circle cx="33.16" cy="46.126" r="2.1348" style="paint-order:markers stroke fill" id="circle64722"/>
          <ellipse cx="41.699" cy="46.126" rx="2.191" ry="2.1348" style="paint-order:markers stroke fill" id="ellipse64724"/>
        </g>
        <g id="g64736">
          <path d="m52.239 46.176c2e-6 1.179-0.93708 2.0974-2.1161 2.0974-1.179 0-2.2659-1.3678-2.2659-2.5468m0.41199 0.29959c4e-6 -1.179 0.91835-2.0974 2.0974-2.0974 1.179 0 2.2097 0.8809 2.2098 2.0599" style="paint-order:markers stroke fill" id="path64728"/>
          <path d="m61.1 46.126c2e-6 1.179-0.9558 2.1348-2.1348 2.1348-1.179 0-2.1348-0.95581-2.1348-2.1348 4e-6 -1.179 0.95581-2.1348 2.1348-2.1348 1.179 0 2.1348 0.9558 2.1348 2.1348" style="paint-order:markers stroke fill" id="path64730"/>
          <path d="m65.447 46.056c-2e-6 -1.179 1.135-2.1068 2.3141-2.1068 1.179 0 2.1348 1.1147 2.1285 2.3224l-0.10002 14.982h3.5627l0.73677-14.857c0.73551-3.735 4.9168-1.7911 4.4652 0.10371l-0.29963 1.1985m-9.0206-1.7475c-0.02648 1.7352-0.7969 2.3467-1.9759 2.3467-1.179 0-2.1613-0.61152-2.1613-2.4262" style="paint-order:markers stroke fill" id="path64732"/>
          <circle cx="94.71" cy="71.496" r="2.1452" style="paint-order:markers stroke fill" id="circle64734"/>
        </g>
      </g>
    </g>
    <g display="none" id="g64800">
      <g transform="translate(-5.5086 -6.3561)" fill="none" stroke="#ffcc00" stroke-width=".40427" id="g64798">
        <g stroke-linecap="round" stroke-linejoin="round" id="g64794">
          <path d="m21.3 46.506 0.05618 14.555h-4.2555l0.02184-14.879-2.344-14.72h3.5065l2.8891 14.59" style="paint-order:markers stroke fill" id="path64742"/>
          <path d="m29.79 46.463-0.04294 14.578h-4.2555l0.06852-15.023m-0.05967-0.55887-4.0557-14.072h2.6451l5.3658 14.084c0.47289 1.4803 1.5684 2.2218 2.4884 1.9769 1.1659-0.31042 0.93813-1.0846 0.60004-2.2918l-4.4182-13.769h3.469l3.2397 14.696" style="paint-order:markers stroke fill" id="path64744"/>
          <path d="m38.537 46.707 0.0045 14.323h-4.4305l0.0207-14.743c-0.0016-1.2226-0.82369-2.152-2.0338-2.152s-2.3764 1.0882-2.3764 2.2673" style="paint-order:markers stroke fill" id="path64746"/>
          <path d="m34.807 45.931c0.10943 0.86135 0.79836 1.5397 1.4829 1.4612 0.86754-0.0995 0.88067-0.88834 0.74299-1.7641l-1.9196-14.185h3.633l0.50562 14.582c-0.03528 1.8911 2.1766 1.7479 2.3099 0.11365l0.93633-14.696h3.3941l-2.1723 14.509c-0.22356 2.1589 1.9568 1.6614 2.1423-0.0103l3.9546-14.504h3.3192l-5.1772 14.959c-0.49786 2.1058 2.4597 2.9008 3.9911 0.14596l4.486-15.105h3.1783l-3.4228 14.975c-0.32671 2.6891 3.256 2.6352 3.7348 0.32369" style="paint-order:markers stroke fill" id="path64748"/>
          <path d="m55.69 46.476 0.1723 14.474h-4.2555l-0.32265-14.343c-0.0092-1.3292-0.82162-2.3787-2.0317-2.3787-1.2101 0-2.191 1.1244-2.1855 2.4164l-0.01263 14.385h-4.2555l-0.025-14.488c-0.0057-1.2446-0.76195-2.2191-1.972-2.2191s-2.2659 1.1056-2.2659 2.2847" style="paint-order:markers stroke fill" id="path64750"/>
          <path d="m60.03 45.841 2.9155-14.455-2.919 15.204m-0.02508-0.62053 0.20056 15.061h4.2555l-0.3178-14.676 0.06063-0.12869 1.8803-14.839h-3.1515" style="paint-order:markers stroke fill" id="path64752"/>
          <rect transform="rotate(90)" x="73.654" y="-108.99" width="4.1715" height="29.395" style="paint-order:markers stroke fill" id="rect64754"/>
          <path d="m68.555 46.171 0.05296-14.794h3.7259l-0.02781 14.546c-0.03392 2.05 2.0504 1.8567 2.1935 0.20086l1.9848-14.662 3.5611 0.6624-3.4149 14.298c-0.35842 1.7487 1.0711 2.0763 1.7346 1.0976" style="paint-order:markers stroke fill" id="path64756"/>
          <path d="m80.748 48.838c1.9641-3.3493 5.4502-0.28977 4.1926 1.5397l-0.67052 1.0376" style="paint-order:markers stroke fill" id="path64758"/>
          <path d="m87.13 54.006c2.9673-2.8051 5.3694 1.0543 3.765 2.4542l-1.5643 1.0406" style="paint-order:markers stroke fill" id="path64760"/>
          <path d="m91.502 61.234c3.4181-1.1556 3.8974 3.2068 2.0014 3.7173l-1.4631 0.31616" style="paint-order:markers stroke fill" id="path64762"/>
          <path d="m80.765 48.961-5.8972 12.571-1.2967-0.44945 3.0307-13.928" style="paint-order:markers stroke fill" id="path64764"/>
          <path d="m87.039 54.06-9.7507 8.7798-1.0203-0.91786 7.9661-10.604" style="paint-order:markers stroke fill" id="path64766"/>
          <path d="m91.582 61.196-12.781 3.9978-0.51153-1.1592 11.226-6.6782" style="paint-order:markers stroke fill" id="path64768"/>
          <path d="m93.731 69.563-14.608-0.50019-0.06175-2.4039 12.926-1.3836" style="paint-order:markers stroke fill" id="path64770"/>
          <path d="m78.378 47.403 4.8596-14.563 3.4733 1.2126-6.1654 13.725c-0.70567 1.4955 0.81747 2.7994 1.956 1.1886l7.5671-13.443 3.1776 1.854-8.7424 12.378c-1.2173 1.6516 0.08709 3.0694 1.6403 1.478l9.955-11.607 2.7608 2.4315-11.29 10.963c-1.4524 1.2742 0.01357 2.516 1.1357 1.6017" style="paint-order:markers stroke fill" id="path64772"/>
          <path d="m88.804 54.552 12.144-9.714 2.2026 2.9467-12.882 8.474c-1.8118 1.1451-0.8636 2.6167 0.69996 2.1374" style="paint-order:markers stroke fill" id="path64774"/>
          <path d="m91.019 58.38 13.999-7.5204 1.4267 3.3322-14.407 5.835c-1.992 0.7962-0.91287 2.6362 0.34363 2.2664" style="paint-order:markers stroke fill" id="path64776"/>
          <path d="m92.37 62.315 15.558-4.5964 0.85871 3.5773-15.708 3.0266c-1.6437 0.28251-1.5866 2.278-0.0074 2.2206" style="paint-order:markers stroke fill" id="path64778"/>
          <path d="m93.136 66.561 15.839-0.93792 0.10014 3.6775-14.408 0.28865-1.0196-0.0132" style="paint-order:markers stroke fill" id="path64780"/>
          <circle cx="14.958" cy="45.934" r="2.1348" style="paint-order:markers stroke fill" id="circle64782"/>
          <path d="m21.181 45.97c-2e-6 -1.179 0.98095-2.1348 2.191-2.1348s2.191 0.95581 2.191 2.1348" display="inline" style="paint-order:markers stroke fill" id="path64784"/>
          <path d="m21.148 45.699c-2e-6 1.1834 1.1966 2.3723 2.3364 2.3723s2.0968-0.7972 2.0968-1.9806" display="inline" style="paint-order:markers stroke fill" id="path64786"/>
          <path d="m64.27 46.044c0.39725-1.232 1.1358-1.6928 2.3141-1.736 1.4439-0.053 1.9495 1.6974 1.9431 2.905l0.1913 13.87h3.5627l0.33951-14.433c0.68254-3.3377 4.6785-2.4267 3.9355 0.52742m-7.9961-0.89323c-0.02648 1.7352-0.82338 2.2408-2.0289 2.2938-1.1779 0.0518-2.1084-0.55855-2.1084-2.3732" style="paint-order:markers stroke fill" id="path64788"/>
          <circle cx="93.004" cy="71.536" r="2.1452" style="paint-order:markers stroke fill" id="circle64790"/>
          <path d="m55.675 46.494c-2e-6 -1.179 1.1682-2.3221 2.2285-2.3221 0.89172 0 2.0787 0.65618 2.0787 1.8352" display="inline" style="paint-order:markers stroke fill" id="path64792"/>
        </g>
        <path d="m8.152 31.376h3.2959l1.3665 14.749-0.24289 14.972-4.4195-0.07036z" id="path64796"/>
      </g>
    </g>
  </g>
  <g display="none" id="g64880">
    <g display="none" id="g64810">
      <g transform="matrix(.97578 0 0 1.0143 -188.88 -2.6731)" display="inline" fill="none" stroke="#ffcc00" stroke-linecap="round" stroke-linejoin="round" id="g64808">
        <path d="m197.68 56.473c2e-3 -0.0015 0.10692-29.104 0.10692-29.104h4.1948l-0.9821 14.302c0.14024 2.78 3.0979 2.4672 3.4339 0.22719l1.6316-14.595 3.5955 2.7716-1.7228 11.817c-0.0557 1.835 2.019 2.97 3.2959-5.54e-4l2.3221-11.217h3.7454l-2.7341 11.217c-0.013 2.1239 1.9147 2.7122 3.221 0.13109l4.1573-14.195 4.3904-0.93792-5.514 15.398c-0.30201 1.2426 2.2004 2.375 3.7454-0.41465l5.7294-14.505h3.8952l-6.4327 14.174c-0.60474 1.4623 1.9727 3.4294 3.5206 0.18144l7.2079-14.645 2.7622 2.3221-6.7436 12.401c-0.66461 1.5481 1.9264 2.4219 3.4457 0.22154l6.457-11.007 3.7435-0.11077-6.8241 11.044c-0.69388 1.9624 1.6197 2.1637 3.2547 0.03692l8.9276-13.162 5.3326-1.9758-11.054 15.195c-0.6494 1.0842 0.7852 2.7515 3.5312-0.1787l11.549-14.504h4.1199l-12.097 14.328c-0.92244 1.4915 0.88526 2.4745 3.2589 0.21777l13.012-13.75 3.8202 1.2734-13.439 12.127c-2.0439 1.8599 0.17715 2.2771 3.1461-0.09363l14.014-10.932 3.221 1.8727-13.691 9.7341c-0.94696 0.89735-1.0426 2.5699 2.6592 1.2734l14.672-8.528 3.0712 2.7716-14.557 7.0668c-1.6941 0.87778-0.41195 2.7527 2.8465 1.985l14.123-6.4168 2.3221 3.0712-14.346 5.4451c-2.1275 1.2372 0.0873 3.3282 2.0225 2.7716l14.403-5.1813 1.7228 3.9701-14.739 3.9079c-1.7353 1.1236-0.5743 3.6829 1.573 3.2959l14.545-3.8192 0.89888 3.8203-15.031 2.7346c-2.2993 0.79514-1.5931 3.6615 0.59924 3.8952l14.485-2.6357 0.37453 3.9701-15.119 1.2895c-1.2466 0.14529-2.7208 2.86 0.22473 3.3708l14.786-0.60774v3.5639l-15.543 0.0032" stroke-width=".28267" id="path64804"/>
        <path d="m197.67 56.554h3.4964l1.016-14.047c0.59701-3.1396 4.5016-3.1267 4.4625-0.29369l-2.0327 14.237h3.5644l3.1775-15.054c0.0953-1.784 4.471-2.3048 4.1711 0.07337l-3.5399 14.928h3.3369l4.7912-14.928c1.2537-2.0008 3.6782-2.3878 4.3986 0.09103l-6.3838 14.837h3.9436l7.256-15.241c0.94365-1.8411 4.7513-1.287 3.8678 0.40311l-7.711 14.837h3.4128l9.3795-14.983c0.62256-1.4731 4.5992-2.2182 3.189 0.63041l-9.0799 14.353c0.0357-0.11009 3.3369 0 3.3369 0l10.645-14.644c1.4482-1.7595 4.5546-2.3937 4.3466-0.41194l-11.579 15.056h3.4507l11.898-13.872c2.7296-3.0406 6.0854-2.84 5.1667-0.77239l-13.539 14.644h3.3369l14.181-14.439c3.0151-2.7169 5.9514-1.125 3.9588 0.38487l-14.613 14.054h3.7806l15.133-12.177c2.548-1.6169 6.0651-0.22444 4.3228 2.2575l-14.747 10.068 4.4707 0.58491 13.771-8.5059c2.0969-0.69534 5.13 2.351 2.351 3.7867l-14.043 6.3781 0.8342 2.4707 14.861-4.8561c2.0827-0.53818 4.184 2.687 0.83423 4.2237l-15.502 2.4783 0.32098 3.3881 15.348-1.7728c2.5025-0.184 3.5672 3.5154 0.15168 4.2965l-15.25 0.8458-0.0805 3.2255 14.414 0.0088" stroke-width=".28043" id="path64806"/>
      </g>
    </g>
    <g display="none" id="g64878">
      <g transform="translate(-8.0149 178.19)" display="inline" fill="none" stroke="#ffcc00" stroke-linecap="round" stroke-linejoin="round" stroke-width=".28266" id="g64876">
        <g id="g64854">
          <path d="m11.983-153.13h4.2555v29.607h-4.2555z" style="paint-order:markers stroke fill" id="path64812"/>
          <path d="m24.862-137.94 0.03745 14.416h-4.2555l0.05297-28.389 4.0437 2.3835 0.14017 10.653" style="paint-order:markers stroke fill" id="path64814"/>
          <path d="m33.439-137.59-0.14981 14.061h-4.2555l0.16854-14.341m-0.13469-1.3674 0.12505-9.6079 4.1496-1.589 0.04066 11.497" style="paint-order:markers stroke fill" id="path64816"/>
          <path d="m42.142-137.74-0.01873 14.21h-4.5364l0.29963-14.341m-0.26218-1.0862-0.03745-14.18h4.2555l0.09363 14.479" style="paint-order:markers stroke fill" id="path64818"/>
          <path d="m50.728-138.48-0.22472 14.959h-4.2555l0.03745-14.903m-0.05618-0.74907 0.01872-13.955h4.2555l-0.20599 14.273" style="paint-order:markers stroke fill" id="path64820"/>
          <path d="m59.393-137.96 0.02436 14.436h-4.2555l-0.1192-14.979m-0.37453 0.0936 0.01703-11.703 4.0437 1.1123 0.19604 10.047" style="paint-order:markers stroke fill" id="path64822"/>
          <path d="m67.907-138.43 0.02648 14.902h-4.2555l0.02682-14.472m-0.54308-1.0487 0.04808-10.624 4.0308-2.6592 0.31835 13.564" style="paint-order:markers stroke fill" id="path64824"/>
          <rect transform="rotate(90)" x="-110.97" y="-111.62" width="4.2555" height="29.525" style="paint-order:markers stroke fill" id="rect64826"/>
          <path d="m71.687-138.71 0.12787-14.371h4.2555l-0.34107 14.256c-0.03392 2.05 2.1034 1.9096 2.2465 0.25383l1.5611-14.34 3.6405 0.52998-3.0177 14.268c-0.31555 1.7344 1.5929 1.6993 1.92 0.83272" style="paint-order:markers stroke fill" id="path64828"/>
          <path d="m84.568-135.89c1.9641-3.3493 5.4502-0.28977 4.1926 1.5397l-0.67052 1.0376" style="paint-order:markers stroke fill" id="path64830"/>
          <path d="m90.976-130.56c2.9673-2.8051 5.3694 1.0543 3.765 2.4542l-1.5643 1.0406" style="paint-order:markers stroke fill" id="path64832"/>
          <path d="m95.11-123.45c3.3519-1.8044 4.5065 2.8096 2.7562 3.6643l-1.3969 0.34264" style="paint-order:markers stroke fill" id="path64834"/>
          <path d="m84.585-135.87-6.162 13.1-1.2967-0.44945 3.5339-13.637" style="paint-order:markers stroke fill" id="path64836"/>
          <path d="m90.78-130.3-10.307 9.177-1.0203-0.91786 8.5752-11.16" style="paint-order:markers stroke fill" id="path64838"/>
          <path d="m95.058-123.45-13.543 4.5649-0.59098-1.2386 12.253-6.9805" style="paint-order:markers stroke fill" id="path64840"/>
          <path d="m96.863-115.32-15.164-0.0235-0.06175-2.4039 14.833-1.6749" style="paint-order:markers stroke fill" id="path64842"/>
          <path d="m82.118-137.4 4.5509-13.978 3.4733 1.2126-5.8037 13.007c-0.70567 1.4955 0.81747 2.7994 1.956 1.1886l7.1222-12.584 3.1776 1.854-8.4034 11.757c-1.0679 1.5022 0.35414 2.8023 1.6403 1.478l9.3009-10.907 2.7608 2.4315-10.556 10.105c-1.4524 1.2742 0.33137 2.4895 1.2946 1.6414" style="paint-order:markers stroke fill" id="path64844"/>
          <path d="m92.704-130.23 11.16-8.8927 2.2026 2.9467-11.924 7.5468c-1.8118 1.1451-0.37875 2.7286 0.69996 2.1374" style="paint-order:markers stroke fill" id="path64846"/>
          <path d="m94.932-126.53 13.036-6.4808 1.5591 3.3322-13.391 5.0337c-1.992 0.7962-0.91287 2.6362 0.34363 2.2664" style="paint-order:markers stroke fill" id="path64848"/>
          <path d="m96.508-122.39 14.166-3.7971 0.85871 3.5773-14.502 2.2272c-1.6437 0.28251-1.5866 2.278-0.0074 2.2206" style="paint-order:markers stroke fill" id="path64850"/>
          <path d="m97.181-118.14 14.297-0.72417 0.10014 3.6775-13.779-0.11049-1.0196-0.0132" style="paint-order:markers stroke fill" id="path64852"/>
        </g>
        <g id="g64864">
          <circle cx="18.465" cy="-138.43" r="2.1348" style="paint-order:markers stroke fill" id="circle64856"/>
          <circle cx="27.041" cy="-138.39" r="2.1348" style="paint-order:markers stroke fill" id="circle64858"/>
          <circle cx="35.618" cy="-138.43" r="2.1348" style="paint-order:markers stroke fill" id="circle64860"/>
          <ellipse cx="44.158" cy="-138.43" rx="2.191" ry="2.1348" style="paint-order:markers stroke fill" id="ellipse64862"/>
        </g>
        <g id="g64874">
          <path d="m54.698-138.38c2e-6 1.179-0.93708 2.0974-2.1161 2.0974-1.179 0-2.2659-1.3678-2.2659-2.5468m0.41199 0.29959c4e-6 -1.179 0.91835-2.0974 2.0974-2.0974 1.179 0 2.2097 0.8809 2.2098 2.0599" style="paint-order:markers stroke fill" id="path64866"/>
          <path d="m63.559-138.43c2e-6 1.179-0.9558 2.1348-2.1348 2.1348-1.179 0-2.1348-0.95581-2.1348-2.1348 4e-6 -1.179 0.95581-2.1348 2.1348-2.1348 1.179 0 2.1348 0.9558 2.1348 2.1348" style="paint-order:markers stroke fill" id="path64868"/>
          <path d="m67.905-138.5c-2e-6 -1.179 1.135-2.1068 2.3141-2.1068 1.179 0 2.1348 1.1147 2.1285 2.3224l-0.10002 14.982h3.5627l0.73677-14.857c0.73551-3.735 4.9168-1.7911 4.4652 0.10371l-0.29963 1.1985m-9.0206-1.7475c-0.02648 1.7352-0.7969 2.3467-1.9759 2.3467-1.179 0-2.1613-0.61152-2.1613-2.4262" style="paint-order:markers stroke fill" id="path64870"/>
          <circle cx="97.168" cy="-113.06" r="2.1452" style="paint-order:markers stroke fill" id="circle64872"/>
        </g>
      </g>
    </g>
  </g>
</svg>
