<?xml version="1.0" encoding="UTF-8" standalone="no"?>
<!-- Created with Inkscape (http://www.inkscape.org/) -->

<svg
   xmlns:dc="http://purl.org/dc/elements/1.1/"
   xmlns:cc="http://creativecommons.org/ns#"
   xmlns:rdf="http://www.w3.org/1999/02/22-rdf-syntax-ns#"
   xmlns:svg="http://www.w3.org/2000/svg"
   xmlns="http://www.w3.org/2000/svg"
   xmlns:xlink="http://www.w3.org/1999/xlink"
   xmlns:sodipodi="http://sodipodi.sourceforge.net/DTD/sodipodi-0.dtd"
   xmlns:inkscape="http://www.inkscape.org/namespaces/inkscape"
   width="637.79529"
   height="283.46457"
   id="svg4253"
   version="1.1"
   inkscape:version="0.48.4 r9939"
   sodipodi:docname="5X_iso_stirnen_strategie.svg"
   inkscape:export-filename="E:\_data\Dokumentation\hyperMILL\trunk\Grafiken\hm\models\5X_iso_stirnen_strategie.png"
   inkscape:export-xdpi="200"
   inkscape:export-ydpi="200">
  <title
     id="title2986">Abbildung für OPEN MIND Softwaredokumentation</title>
  <defs
     id="defs4255">
    <linearGradient
       inkscape:collect="always"
       xlink:href="#linearGradient17780-7"
       id="linearGradient7103"
       gradientUnits="userSpaceOnUse"
       gradientTransform="translate(161.06113,115.1603)"
       x1="186.3752"
       y1="20.21563"
       x2="183.6095"
       y2="155.32921" />
    <linearGradient
       id="linearGradient17780-7">
      <stop
         id="stop17782-4"
         offset="0"
         style="stop-color:#ffffff;stop-opacity:1;" />
      <stop
         id="stop17784-0"
         offset="1"
         style="stop-color:#00385e;stop-opacity:1;" />
    </linearGradient>
    <linearGradient
       y2="155.32921"
       x2="183.6095"
       y1="20.21563"
       x1="186.3752"
       gradientTransform="translate(-103.72212,995.32525)"
       gradientUnits="userSpaceOnUse"
       id="linearGradient15375"
       xlink:href="#linearGradient17780-7"
       inkscape:collect="always" />
    <linearGradient
       inkscape:collect="always"
       xlink:href="#linearGradient17780-7"
       id="linearGradient15400"
       x1="51.88298"
       y1="979.66949"
       x2="449.92062"
       y2="1091.098"
       gradientUnits="userSpaceOnUse" />
    <linearGradient
       inkscape:collect="always"
       xlink:href="#linearGradient17780-7-0"
       id="linearGradient15400-7"
       x1="51.88298"
       y1="979.66949"
       x2="449.92062"
       y2="1091.098"
       gradientUnits="userSpaceOnUse" />
    <linearGradient
       id="linearGradient17780-7-0">
      <stop
         id="stop17782-4-5"
         offset="0"
         style="stop-color:#ffffff;stop-opacity:1;" />
      <stop
         id="stop17784-0-2"
         offset="1"
         style="stop-color:#00385e;stop-opacity:1;" />
    </linearGradient>
    <linearGradient
       inkscape:collect="always"
       xlink:href="#linearGradient17780-7-0"
       id="linearGradient16251"
       gradientUnits="userSpaceOnUse"
       x1="51.88298"
       y1="979.66949"
       x2="449.92062"
       y2="1091.098"
       gradientTransform="translate(317.19862,284.06438)" />
    <linearGradient
       inkscape:collect="always"
       xlink:href="#linearGradient17780-7-0"
       id="linearGradient16288"
       gradientUnits="userSpaceOnUse"
       gradientTransform="translate(317.19862,284.06438)"
       x1="51.88298"
       y1="979.66949"
       x2="449.92062"
       y2="1091.098" />
  </defs>
  <sodipodi:namedview
     id="base"
     pagecolor="#ffffff"
     bordercolor="#666666"
     borderopacity="1.0"
     inkscape:pageopacity="0.0"
     inkscape:pageshadow="2"
     inkscape:zoom="0.9899495"
     inkscape:cx="325.3525"
     inkscape:cy="85.595302"
     inkscape:document-units="mm"
     inkscape:current-layer="layer1"
     showgrid="false"
     width="180px"
     units="mm"
     inkscape:window-width="1600"
     inkscape:window-height="1148"
     inkscape:window-x="1272"
     inkscape:window-y="-8"
     inkscape:window-maximized="1"
     showguides="true"
     inkscape:guide-bbox="true"
     inkscape:snap-global="false">
    <sodipodi:guide
       orientation="1,0"
       position="177.17129,177.50274"
       id="guide2982" />
    <sodipodi:guide
       orientation="0,1"
       position="-22.539029,17.740804"
       id="guide2986" />
    <sodipodi:guide
       orientation="1,0"
       position="17.723214,270.22321"
       id="guide2985" />
    <sodipodi:guide
       orientation="1,0"
       position="620.07583,270.72088"
       id="guide2987" />
    <sodipodi:guide
       orientation="0,1"
       position="50.065686,301.15173"
       id="guide2988" />
  </sodipodi:namedview>
  <metadata
     id="metadata4258">
    <rdf:RDF>
      <cc:Work
         rdf:about="">
        <dc:format>image/svg+xml</dc:format>
        <dc:type
           rdf:resource="http://purl.org/dc/dcmitype/StillImage" />
        <dc:title>Abbildung für OPEN MIND Softwaredokumentation</dc:title>
        <dc:creator>
          <cc:Agent>
            <dc:title>OPEN MIND Technologies AG</dc:title>
          </cc:Agent>
        </dc:creator>
        <dc:rights>
          <cc:Agent>
            <dc:title>Alle Rechte vorbehalten.</dc:title>
          </cc:Agent>
        </dc:rights>
        <dc:publisher>
          <cc:Agent>
            <dc:title>Technische Redaktion</dc:title>
          </cc:Agent>
        </dc:publisher>
      </cc:Work>
    </rdf:RDF>
  </metadata>
  <g
     inkscape:label="Ebene 1"
     inkscape:groupmode="layer"
     id="layer1"
     transform="translate(0,-768.89765)">
    <path
       style="fill:none;stroke:#e2001a;stroke-width:1.73942077"
       d="m 359.2041,997.70142 0.55176,-136.39925"
       id="line273"
       inkscape:connector-curvature="0"
       sodipodi:nodetypes="cc" />
    <line
       id="line310"
       y2="997.70142"
       x2="359.2041"
       y1="1000.9211"
       x1="377.27322"
       style="fill:none;stroke:#ffdd00;stroke-width:1.73942077" />
    <g
       id="g16025">
      <path
         sodipodi:nodetypes="csccc"
         style="fill:#d2dadd;stroke:#4d4d4d;stroke-width:0.63425195;stroke-linejoin:round;stroke-miterlimit:4;stroke-dasharray:none"
         inkscape:connector-curvature="0"
         d="m 52.650739,988.03956 c -1.468071,-38.96477 52.314821,-96.44219 120.910621,-99.02523 68.5958,-2.58304 125.62142,50.50511 127.08601,89.46988 L 174.95985,965.46014 z"
         id="path313" />
      <path
         style="fill:url(#linearGradient15400);stroke:#4d4d4d;stroke-width:0.17716535000000000;fill-opacity:1;stroke-miterlimit:4;stroke-dasharray:none;stroke-opacity:1;stroke-linejoin:round;stroke-linecap:round"
         inkscape:connector-curvature="0"
         d="m 301.17744,974.9939 c -1.10105,-29.21183 -57.59918,-50.80152 -126.19672,-48.22022 -68.59579,2.5813 -123.312754,28.35778 -122.211701,57.56961 1.101054,29.21881 57.597441,50.80331 126.193241,48.22201 68.59928,-2.5831 123.31624,-28.3543 122.21518,-57.5714 z"
         id="path315" />
      <path
         style="fill:none;stroke:#4d4d4d;stroke-width:0.63425197000000000;stroke-opacity:1;stroke-miterlimit:4;stroke-dasharray:none;stroke-linejoin:round;stroke-linecap:round"
         inkscape:connector-curvature="0"
         d="M 128.52601,920.66135 C 97.00249,938.65218 75.990287,968.87636 60.253747,1001.1096"
         id="path317" />
      <path
         style="fill:none;stroke:#4d4d4d;stroke-width:0.63425197000000000;stroke-miterlimit:4;stroke-dasharray:none;stroke-opacity:1"
         inkscape:connector-curvature="0"
         d="m 122.8729,913.26882 c -21.65057,9.76163 -40.618959,23.68917 -57.618318,40.44153"
         id="path321" />
      <path
         style="fill:none;stroke:#4d4d4d;stroke-width:0.63425197;stroke-opacity:1;stroke-miterlimit:4;stroke-dasharray:none"
         inkscape:connector-curvature="0"
         d="m 127.87373,901.3103 c -22.39156,9.22241 -43.720341,25.54513 -58.270596,44.79008"
         id="path323" />
      <path
         style="fill:none;stroke:#4d4d4d;stroke-width:0.63425197000000000;stroke-miterlimit:4;stroke-dasharray:none;stroke-opacity:1"
         inkscape:connector-curvature="0"
         d="m 149.18164,893.91776 c -9.69206,7.48473 -15.5626,17.74035 -16.5245,29.57015"
         id="path325" />
      <path
         style="fill:none;stroke:#4d4d4d;stroke-width:0.63425197;stroke-opacity:1;stroke-miterlimit:4;stroke-dasharray:none"
         inkscape:connector-curvature="0"
         d="m 193.75429,931.31531 c 16.00094,28.47084 26.12263,62.767 29.66235,95.37589"
         id="path327" />
      <path
         style="fill:none;stroke:#4d4d4d;stroke-width:0.63425197;stroke-opacity:1;stroke-miterlimit:4;stroke-dasharray:none"
         inkscape:connector-curvature="0"
         d="m 211.36593,926.96676 c 23.21431,24.15185 43.12198,55.24574 51.85909,87.76244"
         id="path329" />
      <path
         style="fill:none;stroke:#4d4d4d;stroke-width:0.63425197;stroke-opacity:1;stroke-miterlimit:4;stroke-dasharray:none"
         inkscape:connector-curvature="0"
         d="m 224.19416,919.13936 c 30.53553,16.33142 53.45762,44.34132 68.05484,75.44738"
         id="path331" />
      <path
         style="fill:none;stroke:#4d4d4d;stroke-width:0.63425197000000000;stroke-miterlimit:4;stroke-dasharray:none;stroke-linejoin:round;stroke-linecap:round;stroke-opacity:1"
         inkscape:connector-curvature="0"
         d="m 228.2731,910.89103 c 29.27967,11.26797 55.51014,31.68529 72.02072,58.47411"
         id="path333" />
      <path
         style="fill:none;stroke:#4d4d4d;stroke-width:0.63425197000000000;stroke-opacity:1;stroke-miterlimit:4;stroke-dasharray:none;stroke-linejoin:round;stroke-linecap:round"
         inkscape:connector-curvature="0"
         d="m 220.06303,899.13602 c 37.18012,11.30624 67.05294,36.4687 81.06049,71.98767"
         id="path335" />
      <path
         style="fill:none;stroke:#4d4d4d;stroke-width:0.63425197000000000;stroke-miterlimit:4;stroke-dasharray:none;stroke-opacity:1"
         inkscape:connector-curvature="0"
         d="m 273.1432,928.7027 c 1.54982,2.87004 2.36387,5.85489 2.36387,8.91801 0,22.3359 -43.4142,40.44153 -96.97271,40.44153 -53.55503,0 -96.972708,-18.10563 -96.972708,-40.44153 0,-2.32039 0.469643,-4.59555 1.368924,-6.8081"
         id="path337" />
      <path
         style="fill:none;stroke:#ffdd00;stroke-width:1.73942077"
         inkscape:connector-curvature="0"
         d="m 228.2731,910.89103 c 0,12.12376 -23.59003,21.95323 -52.68706,21.95323 -29.09703,0 -52.68705,-9.82947 -52.68705,-21.95323 0,-12.12376 23.59002,-21.95323 52.68705,-21.95323 29.09703,0 52.68706,9.82947 52.68706,21.95323"
         id="path339" />
      <path
         sodipodi:nodetypes="ccc"
         inkscape:connector-curvature="0"
         id="polyline342"
         d="M 202.238,115.784 194.44815,113.08689 193.676,24.489"
         style="fill:none;stroke:#e2001a;stroke-width:0.77204633;stroke-linecap:round;stroke-linejoin:round;stroke-miterlimit:4"
         transform="matrix(1.7394208,0,0,1.7394208,-300.31253,797.2164)" />
      <path
         sodipodi:nodetypes="ccccc"
         inkscape:connector-curvature="0"
         id="polyline344"
         d="m 193.676,31.481 -3.973,4.45 161.299,-30.829 -3.655,-3.814 -0.2017,84.224"
         style="fill:none;stroke:#e2001a;stroke-width:0.77204633;stroke-linecap:round;stroke-linejoin:round;stroke-miterlimit:4"
         transform="matrix(1.7394208,0,0,1.7394208,-300.31253,797.2164)" />
      <line
         style="fill:none;stroke:#e2001a;stroke-width:1.34291339;stroke-linejoin:round;stroke-linecap:round;stroke-miterlimit:4;stroke-dasharray:none"
         x1="61.450474"
         y1="959.77917"
         x2="61.173912"
         y2="854.73907"
         id="line346" />
      <polyline
         transform="matrix(1.7394208,0,0,1.7394208,-300.31253,797.2164)"
         style="fill:none;stroke:#e2001a;stroke-linejoin:round;stroke-linecap:round;stroke-width:0.7720463;stroke-miterlimit:4;stroke-dasharray:none"
         points="212.588,86.465 213.223,31.481 232.61,31.799  "
         id="polyline348" />
      <path
         style="fill:none;stroke:#ffcc00;stroke-width:1.34291339000000010;stroke-miterlimit:4;stroke-dasharray:none;stroke-linejoin:round;stroke-linecap:round;stroke-opacity:1"
         inkscape:connector-curvature="0"
         d="m 93.551479,920.32043 c -0.655761,7.88131 -0.781,16.18357 2.723933,23.2404 6.234088,12.54818 38.756038,22.10282 83.746158,22.10282 46.69649,0 81.69885,-19.10406 84.54802,-27.09322 2.24907,-6.30888 -0.24526,-14.592 -4.00936,-19.51282"
         id="path355" />
      <path
         style="fill:none;stroke:#ffcc00;stroke-width:1.34291339000000010;stroke-miterlimit:4;stroke-dasharray:none;stroke-linejoin:round;stroke-linecap:round;stroke-opacity:1"
         inkscape:connector-curvature="0"
         d="m 228.2731,930.57257 c 0,7.73173 -23.59003,13.99886 -52.68706,13.99886 -26.82534,0 -49.15951,-3.25793 -52.23306,-9.88339 -0.25918,-0.56183 -0.28875,-1.13236 -0.28875,-1.73768 l 5.14347,-2.19863 6.54718,-2.18123 c 30.30071,-5.64442 66.55894,-6.87593 93.51822,2.00207"
         id="path357" />
      <path
         style="fill:none;stroke:#ffcc00;stroke-width:1.34291339000000010;stroke-miterlimit:4;stroke-dasharray:none;stroke-linejoin:round;stroke-linecap:round;stroke-opacity:1"
         inkscape:connector-curvature="0"
         d="m 100.19433,914.13853 c -0.19308,8.7719 2.49259,16.99588 7.81522,24.02662 6.6585,9.26415 33.64387,16.86194 69.28808,16.86194 38.55948,0 69.81861,-9.82773 69.81861,-21.95323 1.02278,-7.316 0.66794,-14.88944 -1.02625,-22.11847"
         id="path359" />
      <path
         style="fill:none;stroke:#ffcc00;stroke-width:1.34291339000000010;stroke-miterlimit:4;stroke-dasharray:none;stroke-linejoin:round;stroke-linecap:round;stroke-opacity:1"
         inkscape:connector-curvature="0"
         d="m 275.36444,943.90523 c -4.88603,19.91985 -46.6043,35.48419 -97.33973,35.48419 -48.4046,0 -87.073665,-12.21769 -94.908016,-30.81732"
         id="path361" />
      <path
         style="fill:none;stroke:#ffcc00;stroke-width:1.34291339000000010;stroke-miterlimit:4;stroke-dasharray:none;stroke-linejoin:round;stroke-linecap:round;stroke-opacity:1"
         inkscape:connector-curvature="0"
         d="m 294.46676,959.53219 c -16.44275,31.58614 -63.77065,47.13131 -117.28045,47.13131 -51.71124,0 -102.799769,-14.09101 -115.365345,-44.38824"
         id="path365" />
      <path
         style="fill:none;stroke:#ffcc00;stroke-width:1.34291339000000010;stroke-miterlimit:4;stroke-dasharray:none;stroke-linejoin:round;stroke-linecap:round;stroke-opacity:1"
         inkscape:connector-curvature="0"
         d="m 300.20511,970.75493 c -16.43927,31.58617 -69.509,48.63417 -123.0188,48.63417 -51.71124,0 -115.527111,-10.4521 -119.889578,-50.08832"
         id="path367" />
      <path
         sodipodi:nodetypes="cccc"
         style="fill:none;stroke:#4d4d4d;stroke-width:0.17716534;stroke-linecap:round;stroke-linejoin:round;stroke-miterlimit:4;stroke-opacity:1;stroke-dasharray:none"
         inkscape:connector-curvature="0"
         d="m 301.1357,973.97634 c -1.06975,-28.42909 -57.54352,-49.38389 -126.14106,-46.80085 -68.5958,2.5813 -123.333632,27.72288 -122.263888,56.15024 1.730541,75.44597 250.977638,64.41407 248.404948,-9.34939"
         id="path369" />
      <path
         style="fill:none;stroke:#ffcc00;stroke-width:1.34291339;stroke-miterlimit:4;stroke-dasharray:none;stroke-linejoin:round;stroke-linecap:round;stroke-opacity:1"
         inkscape:connector-curvature="0"
         d="m 54.751959,972.20909 c 40.36326,-84.36365 96.108221,-75.2717 162.181861,-75.2717"
         id="path371" />
      <line
         style="fill:none;stroke:#ffcc00;stroke-width:1.34291339;stroke-miterlimit:4;stroke-dasharray:none;stroke-linejoin:round;stroke-linecap:round;stroke-opacity:1"
         x1="142.75273"
         y1="894.02734"
         x2="209.6613"
         y2="894.02734"
         id="line373" />
      <line
         style="fill:none;stroke:#ffcc00;stroke-width:1.34291339;stroke-miterlimit:4;stroke-dasharray:none;stroke-linejoin:round;stroke-linecap:round;stroke-opacity:1"
         x1="152.57005"
         y1="891.11731"
         x2="199.84224"
         y2="891.11731"
         id="line375" />
      <path
         sodipodi:nodetypes="cc"
         style="fill:none;stroke:#ffcc00;stroke-width:1.34291339;stroke-linecap:round;stroke-linejoin:round;stroke-miterlimit:4;stroke-opacity:1;stroke-dasharray:none"
         inkscape:connector-curvature="0"
         d="m 100.93358,915.11782 c 58.1384,-19.14406 133.62211,-26.56031 179.57587,21.59556"
         id="path377" />
      <path
         sodipodi:nodetypes="ccc"
         style="fill:none;stroke:#ffcc00;stroke-width:1.34291339;stroke-linecap:round;stroke-linejoin:round;stroke-miterlimit:4;stroke-opacity:1;stroke-dasharray:none"
         inkscape:connector-curvature="0"
         d="M 83.116694,948.5721 C 80.784131,943.41994 80.307529,937.50069 81.660799,931.84583 139.82007,900.86849 227.73394,894.8977 281.02979,938.16927"
         id="path379" />
      <path
         style="fill:none;stroke:#ffdd00;stroke-width:1.73942077"
         inkscape:connector-curvature="0"
         d="m 122.77375,933.82181 c -7.33514,-5.61485 -11.86633,-15.33647 -12.4473,-24.60584"
         id="path381" />
      <path
         style="fill:none;stroke:#ffcc00;stroke-width:1.34291339000000010;stroke-miterlimit:4;stroke-dasharray:none;stroke-opacity:1;stroke-linejoin:round;stroke-linecap:round"
         inkscape:connector-curvature="0"
         d="m 228.72187,931.50664 c 4.88777,-8.54577 5.93142,-21.3079 3.28055,-30.32854"
         id="path383" />
      <path
         sodipodi:nodetypes="cc"
         style="fill:none;stroke:#ffcc00;stroke-width:1.34291339;stroke-linecap:round;stroke-linejoin:round;stroke-miterlimit:4;stroke-opacity:1;stroke-dasharray:none"
         inkscape:connector-curvature="0"
         d="m 275.36444,943.90523 c 0.32179,-5.02866 -0.0386,-8.4673 -0.57955,-13.48727"
         id="path385" />
      <line
         style="fill:none;stroke:#ffcc00;stroke-width:1.34291339000000010;stroke-miterlimit:4;stroke-dasharray:none;stroke-linejoin:round;stroke-linecap:round;stroke-opacity:1"
         x1="59.239651"
         y1="1000.6886"
         x2="51.464466"
         y2="998.61346"
         id="line387" />
      <path
         sodipodi:nodetypes="cc"
         inkscape:connector-curvature="0"
         id="line389"
         d="m 303.51925,946.2103 -11.97765,7.32974"
         style="fill:none;stroke:#ffcc00;stroke-width:1.34291339;stroke-linecap:round;stroke-linejoin:round;stroke-miterlimit:4;stroke-opacity:1" />
      <path
         sodipodi:nodetypes="cccccc"
         inkscape:connector-curvature="0"
         id="polyline391"
         d="M 267.07315,67.89963 266.936,37.679 l 16.845,-1.271 0,31.623 1.271,-0.476 0,-43.225"
         style="fill:none;stroke:#e2001a;stroke-width:0.77204633;stroke-linecap:round;stroke-linejoin:round;stroke-miterlimit:4"
         transform="matrix(1.7394208,0,0,1.7394208,-300.31253,797.2164)" />
      <ellipse
         transform="matrix(1.7394208,0,0,1.7394208,-300.31253,797.2164)"
         style="fill:none;stroke:#4d4d4d;stroke-width:0.36463400000000001;stroke-miterlimit:4;stroke-dasharray:none;stroke-opacity:1"
         sodipodi:ry="12.621"
         sodipodi:rx="30.290001"
         sodipodi:cy="65.351997"
         sodipodi:cx="273.59601"
         d="m 303.88601,65.351997 c 0,6.970386 -13.5613,12.621001 -30.29,12.621001 -16.72871,0 -30.29,-5.650615 -30.29,-12.621001 0,-6.970386 13.56129,-12.621 30.29,-12.621 16.7287,0 30.29,5.650614 30.29,12.621 z"
         cx="273.59601"
         cy="65.351997"
         rx="30.290001"
         ry="12.621"
         id="ellipse393" />
      <path
         sodipodi:nodetypes="cccc"
         inkscape:connector-curvature="0"
         id="polyline350"
         d="M 238.014,71.527 232.71266,64.902079 232.61,31.799 346.394,5.896"
         style="fill:none;stroke:#e2001a;stroke-width:0.77204633;stroke-linecap:round;stroke-linejoin:round;stroke-miterlimit:4"
         transform="matrix(1.7394208,0,0,1.7394208,-300.31253,797.2164)" />
      <path
         sodipodi:nodetypes="cccccc"
         inkscape:connector-curvature="0"
         id="polyline352"
         d="M 242.781,67.873 239.48306,63.423 239.126,30.21 249.55766,35.69563 250.25,68.19 l 1.271,2.702"
         style="fill:none;stroke:#e2001a;stroke-width:0.77204633;stroke-linecap:round;stroke-linejoin:round;stroke-miterlimit:4"
         transform="matrix(1.7394208,0,0,1.7394208,-300.31253,797.2164)" />
      <path
         sodipodi:nodetypes="csccc"
         style="fill:none;stroke:#ffcc00;stroke-width:1.34291339;stroke-linecap:round;stroke-linejoin:round;stroke-miterlimit:4;stroke-opacity:1;stroke-dasharray:none"
         inkscape:connector-curvature="0"
         d="m 285.66181,950.39154 c -9.09195,22.54463 -54.06468,42.18095 -107.27356,42.18095 -51.09896,0 -97.882427,-12.84562 -108.162404,-38.08288 -0.92885,-2.28212 -0.283525,-4.57642 -1.292389,-6.64459 55.635373,-39.63618 179.633993,-51.8138 228.725663,15.09476"
         id="path363" />
    </g>
    <g
       id="g16254"
       transform="translate(0,-283.57143)">
      <path
         sodipodi:nodetypes="csccc"
         style="fill:#d2dadd;stroke:#4d4d4d;stroke-width:0.63425195;stroke-linejoin:round;stroke-miterlimit:4;stroke-dasharray:none"
         inkscape:connector-curvature="0"
         d="m 369.84936,1272.1039 c -1.46807,-38.9647 52.31482,-96.4421 120.91062,-99.0252 68.5958,-2.583 125.62142,50.5051 127.08601,89.4699 l -125.68752,-13.0241 z"
         id="path313-7" />
      <path
         style="fill:url(#linearGradient16288);fill-opacity:1;stroke:#4d4d4d;stroke-width:0.17716534;stroke-linecap:round;stroke-linejoin:round;stroke-miterlimit:4;stroke-opacity:1;stroke-dasharray:none"
         inkscape:connector-curvature="0"
         d="m 618.37606,1259.0583 c -1.10105,-29.2118 -57.59918,-50.8015 -126.19672,-48.2202 -68.59579,2.5813 -123.31275,28.3577 -122.2117,57.5696 1.10105,29.2188 57.59744,50.8033 126.19324,48.222 68.59928,-2.5831 123.31624,-28.3543 122.21518,-57.5714 z"
         id="path315-5" />
      <path
         style="fill:none;stroke:#4d4d4d;stroke-width:0.63425195;stroke-linecap:round;stroke-linejoin:round;stroke-miterlimit:4;stroke-opacity:1;stroke-dasharray:none"
         inkscape:connector-curvature="0"
         d="m 445.72463,1204.7257 c -31.52352,17.9909 -52.53572,48.215 -68.27226,80.4483"
         id="path317-6" />
      <path
         style="fill:none;stroke:#4d4d4d;stroke-width:0.63425195;stroke-miterlimit:4;stroke-opacity:1;stroke-dasharray:none"
         inkscape:connector-curvature="0"
         d="m 440.07152,1197.3332 c -21.65057,9.7616 -40.61896,23.6892 -57.61832,40.4415"
         id="path321-1" />
      <path
         style="fill:none;stroke:#4d4d4d;stroke-width:0.63425195;stroke-miterlimit:4;stroke-opacity:1;stroke-dasharray:none"
         inkscape:connector-curvature="0"
         d="m 445.07235,1185.3747 c -22.39156,9.2224 -43.72034,25.5451 -58.2706,44.7901"
         id="path323-8" />
      <path
         style="fill:none;stroke:#4d4d4d;stroke-width:0.63425195;stroke-miterlimit:4;stroke-opacity:1;stroke-dasharray:none"
         inkscape:connector-curvature="0"
         d="m 466.38026,1177.9821 c -9.69206,7.4848 -15.5626,17.7404 -16.5245,29.5702"
         id="path325-1" />
      <path
         style="fill:none;stroke:#4d4d4d;stroke-width:0.63425195;stroke-miterlimit:4;stroke-opacity:1;stroke-dasharray:none"
         inkscape:connector-curvature="0"
         d="m 510.95291,1215.3797 c 16.00094,28.4708 26.12263,62.767 29.66235,95.3759"
         id="path327-8" />
      <path
         style="fill:none;stroke:#4d4d4d;stroke-width:0.63425195;stroke-miterlimit:4;stroke-opacity:1;stroke-dasharray:none"
         inkscape:connector-curvature="0"
         d="m 528.56455,1211.0311 c 23.21431,24.1519 43.12198,55.2458 51.85909,87.7625"
         id="path329-5" />
      <path
         style="fill:none;stroke:#4d4d4d;stroke-width:0.63425195;stroke-miterlimit:4;stroke-opacity:1;stroke-dasharray:none"
         inkscape:connector-curvature="0"
         d="m 541.39278,1203.2037 c 30.53553,16.3315 53.45762,44.3414 68.05484,75.4474"
         id="path331-6" />
      <path
         style="fill:none;stroke:#4d4d4d;stroke-width:0.63425195;stroke-linecap:round;stroke-linejoin:round;stroke-miterlimit:4;stroke-opacity:1;stroke-dasharray:none"
         inkscape:connector-curvature="0"
         d="m 545.47172,1194.9554 c 29.27967,11.268 55.51014,31.6853 72.02072,58.4741"
         id="path333-5" />
      <path
         style="fill:none;stroke:#4d4d4d;stroke-width:0.63425195;stroke-linecap:round;stroke-linejoin:round;stroke-miterlimit:4;stroke-opacity:1;stroke-dasharray:none"
         inkscape:connector-curvature="0"
         d="m 537.26165,1183.2004 c 37.18012,11.3062 67.05294,36.4687 81.06049,71.9877"
         id="path335-9" />
      <path
         style="fill:none;stroke:#4d4d4d;stroke-width:0.63425195;stroke-miterlimit:4;stroke-opacity:1;stroke-dasharray:none"
         inkscape:connector-curvature="0"
         d="m 590.34182,1212.7671 c 1.54982,2.87 2.36387,5.8549 2.36387,8.918 0,22.3359 -43.4142,40.4415 -96.97271,40.4415 -53.55503,0 -96.97271,-18.1056 -96.97271,-40.4415 0,-2.3204 0.46964,-4.5956 1.36893,-6.8081"
         id="path337-2" />
      <path
         style="fill:none;stroke:#ffdd00;stroke-width:1.73942077"
         inkscape:connector-curvature="0"
         d="m 545.47172,1194.9554 c 0,12.1238 -23.59003,21.9532 -52.68706,21.9532 -29.09703,0 -52.68705,-9.8294 -52.68705,-21.9532 0,-12.1237 23.59002,-21.9532 52.68705,-21.9532 29.09703,0 52.68706,9.8295 52.68706,21.9532"
         id="path339-6" />
      <path
         style="fill:none;stroke:#ffcc00;stroke-width:1.34291339;stroke-linecap:round;stroke-linejoin:round;stroke-miterlimit:4;stroke-opacity:1;stroke-dasharray:none"
         inkscape:connector-curvature="0"
         d="m 410.7501,1204.3848 c -0.65576,7.8813 -0.781,16.1836 2.72393,23.2404 6.23409,12.5482 38.75604,22.1028 83.74616,22.1028 46.69649,0 81.69885,-19.104 84.54802,-27.0932 2.24907,-6.3089 -0.24526,-14.592 -4.00936,-19.5128"
         id="path355-1" />
      <path
         style="fill:none;stroke:#ffcc00;stroke-width:1.34291339;stroke-linecap:round;stroke-linejoin:round;stroke-miterlimit:4;stroke-opacity:1;stroke-dasharray:none"
         inkscape:connector-curvature="0"
         d="m 545.47172,1214.637 c 0,7.7317 -23.59003,13.9988 -52.68706,13.9988 -26.82534,0 -49.15951,-3.2579 -52.23306,-9.8834 -0.25918,-0.5618 -0.28875,-1.1323 -0.28875,-1.7377 l 5.14347,-2.1986 6.54718,-2.1812 c 30.30071,-5.6444 66.55894,-6.8759 93.51822,2.0021"
         id="path357-2" />
      <path
         style="fill:none;stroke:#ffcc00;stroke-width:1.34291339;stroke-linecap:round;stroke-linejoin:round;stroke-miterlimit:4;stroke-opacity:1;stroke-dasharray:none"
         inkscape:connector-curvature="0"
         d="m 417.39295,1198.2029 c -0.19308,8.7719 2.49259,16.9959 7.81522,24.0266 6.6585,9.2642 33.64387,16.862 69.28808,16.862 38.55948,0 69.81861,-9.8278 69.81861,-21.9533 1.02278,-7.316 0.66794,-14.8894 -1.02625,-22.1184"
         id="path359-2" />
      <path
         style="fill:none;stroke:#ffcc00;stroke-width:1.34291339;stroke-linecap:round;stroke-linejoin:round;stroke-miterlimit:4;stroke-opacity:1;stroke-dasharray:none"
         inkscape:connector-curvature="0"
         d="m 592.56306,1227.9696 c -4.88603,19.9199 -46.6043,35.4842 -97.33973,35.4842 -48.4046,0 -87.07366,-12.2177 -94.90802,-30.8173"
         id="path361-8" />
      <path
         style="fill:none;stroke:#ffcc00;stroke-width:1.34291339;stroke-linecap:round;stroke-linejoin:round;stroke-miterlimit:4;stroke-opacity:1;stroke-dasharray:none"
         inkscape:connector-curvature="0"
         d="m 611.66538,1243.5966 c -16.44275,31.5861 -63.77065,47.1313 -117.28045,47.1313 -51.71124,0 -102.79977,-14.091 -115.36535,-44.3883"
         id="path365-8" />
      <path
         style="fill:none;stroke:#ffcc00;stroke-width:1.34291339;stroke-linecap:round;stroke-linejoin:round;stroke-miterlimit:4;stroke-opacity:1;stroke-dasharray:none"
         inkscape:connector-curvature="0"
         d="m 617.40373,1254.8193 c -16.43927,31.5862 -69.509,48.6342 -123.0188,48.6342 -51.71124,0 -115.52711,-10.4521 -119.88958,-50.0883"
         id="path367-8" />
      <path
         sodipodi:nodetypes="cccc"
         style="fill:none;stroke:#4d4d4d;stroke-width:0.17716534;stroke-linecap:round;stroke-linejoin:round;stroke-miterlimit:4;stroke-opacity:1;stroke-dasharray:none"
         inkscape:connector-curvature="0"
         d="m 618.33432,1258.0407 c -1.06975,-28.4291 -57.54352,-49.3839 -126.14106,-46.8008 -68.5958,2.5813 -123.33363,27.7229 -122.26389,56.1502 1.73054,75.446 250.97764,64.4141 248.40495,-9.3494"
         id="path369-7" />
      <path
         style="fill:none;stroke:#ffcc00;stroke-width:1.34291339;stroke-linecap:round;stroke-linejoin:round;stroke-miterlimit:4;stroke-opacity:1;stroke-dasharray:none"
         inkscape:connector-curvature="0"
         d="m 371.95058,1256.2735 c 40.36326,-84.3637 96.10822,-75.2717 162.18186,-75.2717"
         id="path371-4" />
      <line
         style="fill:none;stroke:#ffcc00;stroke-width:1.34291339;stroke-linecap:round;stroke-linejoin:round;stroke-miterlimit:4;stroke-opacity:1;stroke-dasharray:none"
         x1="459.95135"
         y1="1178.0917"
         x2="526.85992"
         y2="1178.0917"
         id="line373-0" />
      <line
         style="fill:none;stroke:#ffcc00;stroke-width:1.34291339;stroke-linecap:round;stroke-linejoin:round;stroke-miterlimit:4;stroke-opacity:1;stroke-dasharray:none"
         x1="469.76868"
         y1="1175.1816"
         x2="517.04083"
         y2="1175.1816"
         id="line375-0" />
      <path
         sodipodi:nodetypes="cc"
         style="fill:none;stroke:#ffcc00;stroke-width:1.34291339;stroke-linecap:round;stroke-linejoin:round;stroke-miterlimit:4;stroke-opacity:1;stroke-dasharray:none"
         inkscape:connector-curvature="0"
         d="m 418.1322,1199.1822 c 58.1384,-19.1441 133.62211,-26.5603 179.57587,21.5956"
         id="path377-5" />
      <path
         sodipodi:nodetypes="ccc"
         style="fill:none;stroke:#ffcc00;stroke-width:1.34291339;stroke-linecap:round;stroke-linejoin:round;stroke-miterlimit:4;stroke-opacity:1;stroke-dasharray:none"
         inkscape:connector-curvature="0"
         d="m 400.31531,1232.6365 c -2.33256,-5.1522 -2.80916,-11.0714 -1.45589,-16.7263 58.15927,-30.9773 146.07314,-36.9481 199.36899,6.3235"
         id="path379-9" />
      <path
         style="fill:none;stroke:#ffdd00;stroke-width:1.73942077"
         inkscape:connector-curvature="0"
         d="m 439.97237,1217.8862 c -7.33514,-5.6149 -11.86633,-15.3365 -12.4473,-24.6058"
         id="path381-9" />
      <path
         style="fill:none;stroke:#ffcc00;stroke-width:1.34291339;stroke-linecap:round;stroke-linejoin:round;stroke-miterlimit:4;stroke-opacity:1;stroke-dasharray:none"
         inkscape:connector-curvature="0"
         d="m 545.92049,1215.571 c 4.88777,-8.5457 5.93142,-21.3079 3.28055,-30.3285"
         id="path383-5" />
      <path
         sodipodi:nodetypes="cc"
         style="fill:none;stroke:#ffcc00;stroke-width:1.34291339;stroke-linecap:round;stroke-linejoin:round;stroke-miterlimit:4;stroke-opacity:1;stroke-dasharray:none"
         inkscape:connector-curvature="0"
         d="m 592.56306,1227.9696 c 0.32179,-5.0286 -0.0386,-8.4673 -0.57955,-13.4873"
         id="path385-3" />
      <line
         style="fill:none;stroke:#ffcc00;stroke-width:1.34291339;stroke-linecap:round;stroke-linejoin:round;stroke-miterlimit:4;stroke-opacity:1;stroke-dasharray:none"
         x1="376.43826"
         y1="1284.7529"
         x2="368.66309"
         y2="1282.6779"
         id="line387-0" />
      <ellipse
         transform="matrix(1.7394208,0,0,1.7394208,16.88609,1081.2808)"
         style="fill:none;stroke:#4d4d4d;stroke-width:0.36463401;stroke-miterlimit:4;stroke-opacity:1;stroke-dasharray:none"
         sodipodi:ry="12.621"
         sodipodi:rx="30.290001"
         sodipodi:cy="65.351997"
         sodipodi:cx="273.59601"
         d="m 303.88601,65.351997 c 0,6.970386 -13.5613,12.621001 -30.29,12.621001 -16.72871,0 -30.29,-5.650615 -30.29,-12.621001 0,-6.970386 13.56129,-12.621 30.29,-12.621 16.7287,0 30.29,5.650614 30.29,12.621 z"
         cx="273.59601"
         cy="65.351997"
         rx="30.290001"
         ry="12.621"
         id="ellipse393-5" />
      <path
         sodipodi:nodetypes="csccc"
         style="fill:none;stroke:#ffcc00;stroke-width:1.34291339;stroke-linecap:round;stroke-linejoin:round;stroke-miterlimit:4;stroke-opacity:1;stroke-dasharray:none"
         inkscape:connector-curvature="0"
         d="m 602.86043,1234.4559 c -9.09195,22.5447 -54.06468,42.181 -107.27356,42.181 -51.09896,0 -97.88243,-12.8456 -108.1624,-38.0829 -0.92885,-2.2821 -0.28353,-4.5764 -1.29239,-6.6446 55.63537,-39.6362 179.63399,-51.8138 228.72566,15.0948"
         id="path363-1" />
    </g>
    <path
       id="path271"
       d="m 440.74294,911.9149 c -4.12069,-1.79508 -4.39204,-5.77314 -4.49466,-10.44 V 800.73634"
       inkscape:connector-curvature="0"
       style="fill:none;stroke:#e2001a;stroke-width:1.73942077" />
  </g>
</svg>
