<?xml version="1.0" encoding="UTF-8"?>
<svg width="491.34" height="283.46" version="1.1" xmlns="http://www.w3.org/2000/svg" xmlns:cc="http://creativecommons.org/ns#" xmlns:dc="http://purl.org/dc/elements/1.1/" xmlns:rdf="http://www.w3.org/1999/02/22-rdf-syntax-ns#" xmlns:xlink="http://www.w3.org/1999/xlink">
 <title>Abbildung fuer OPEN MIND Softwaredokumentation</title>
 <defs>
  <linearGradient id="linearGradient17780-7">
   <stop stop-color="#fff" offset="0"/>
   <stop stop-color="#00385e" offset="1"/>
  </linearGradient>
  <linearGradient id="linearGradient13942" x1="365.25" x2="916.11" y1="982.31" y2="1112.5" gradientTransform="matrix(.86312 0 0 .99766 -287.61 77.797)" gradientUnits="userSpaceOnUse">
   <stop stop-color="#fff" offset="0"/>
   <stop stop-color="#00385e" offset="1"/>
  </linearGradient>
  <linearGradient id="linearGradient13945" x1="38.806" x2="41.534" y1="1164.1" y2="692.98" gradientTransform="matrix(0 .68649 -.41282 0 518.6 1014.8)" gradientUnits="userSpaceOnUse">
   <stop stop-color="#00385e" offset="0"/>
   <stop stop-color="#1f5072" offset=".043817"/>
   <stop stop-color="#3f6986" offset=".097059"/>
   <stop stop-color="#5f829a" offset=".14568"/>
   <stop stop-color="#fff" offset=".5"/>
   <stop stop-color="#5f829a" offset=".87372"/>
   <stop stop-color="#3f6986" offset=".91753"/>
   <stop stop-color="#1f5072" offset=".96833"/>
   <stop stop-color="#00385e" offset="1"/>
  </linearGradient>
  <linearGradient id="linearGradient14012" x1="437.18" x2="543.04" y1="111.19" y2="162.84" gradientTransform="matrix(1.2083 0 0 1.2083 -193.67 808.65)" gradientUnits="userSpaceOnUse" xlink:href="#linearGradient17780-7"/>
  <linearGradient id="linearGradient14015" x1="334.31" x2="809.64" y1="108.67" y2="249.2" gradientTransform="matrix(.8317 0 0 .9574 -3.7143 849.45)" gradientUnits="userSpaceOnUse" xlink:href="#linearGradient17780-7"/>
  <linearGradient id="linearGradient14027" x1="437.18" x2="543.04" y1="111.19" y2="162.84" gradientTransform="matrix(1.2083 0 0 1.2083 -436.26 808.52)" gradientUnits="userSpaceOnUse" xlink:href="#linearGradient17780-7"/>
  <linearGradient id="linearGradient14030" x1="334.31" x2="809.64" y1="108.67" y2="249.2" gradientTransform="matrix(.8317 0 0 .9574 -246.31 849.32)" gradientUnits="userSpaceOnUse" xlink:href="#linearGradient17780-7"/>
  <linearGradient id="linearGradient14046" x1="38.806" x2="41.534" y1="1164.1" y2="692.98" gradientTransform="matrix(0 .68649 -.41282 0 762.18 1021)" gradientUnits="userSpaceOnUse">
   <stop stop-color="#00385e" offset="0"/>
   <stop stop-color="#1f5072" offset=".043817"/>
   <stop stop-color="#3f6986" offset=".097059"/>
   <stop stop-color="#5f829a" offset=".14568"/>
   <stop stop-color="#fff" offset=".5"/>
   <stop stop-color="#5f829a" offset=".87372"/>
   <stop stop-color="#3f6986" offset=".91753"/>
   <stop stop-color="#1f5072" offset=".96833"/>
   <stop stop-color="#00385e" offset="1"/>
  </linearGradient>
  <linearGradient id="linearGradient14048" x1="365.25" x2="916.11" y1="982.31" y2="1112.5" gradientTransform="matrix(.86312 0 0 .99766 -44.025 84.016)" gradientUnits="userSpaceOnUse" xlink:href="#linearGradient17780-7"/>
 </defs>
 <metadata>
  <rdf:RDF>
   <cc:Work rdf:about="">
    <dc:format>image/svg+xml</dc:format>
    <dc:type rdf:resource="http://purl.org/dc/dcmitype/StillImage"/>
    <dc:title>Abbildung fuer OPEN MIND Softwaredokumentation</dc:title>
    <dc:creator>
     <cc:Agent>
      <dc:title>OPEN MIND Technologies AG</dc:title>
     </cc:Agent>
    </dc:creator>
    <dc:rights>
     <cc:Agent>
      <dc:title>Alle Rechte vorbehalten.</dc:title>
     </cc:Agent>
    </dc:rights>
    <dc:publisher>
     <cc:Agent>
      <dc:title>Technische Redaktion</dc:title>
     </cc:Agent>
    </dc:publisher>
   </cc:Work>
  </rdf:RDF>
 </metadata>
 <g transform="translate(0 -839.06)">
  <g transform="translate(4.7807e-8 -5.9262)">
   <path d="m423.02 1053.7v16.391h-87.951v-16.391z" fill="url(#linearGradient14046)" stroke="#4d4d4d" stroke-width=".63192"/>
   <path d="m471.75 1101.7-185.49 0.2521 0.0373-32.073c-0.22464-0.028 131.74-0.2463 185.53-0.5123z" fill="url(#linearGradient14048)" fill-rule="evenodd" stroke="#4d4d4d" stroke-width=".63192"/>
   <g fill="#f00" stroke="#fc0" stroke-linecap="round" stroke-width="1.8626">
    <path d="m277.3 1068.1 203.49-0.5722"/>
    <g stroke-linejoin="round">
     <path d="m277.38 1063.2 203.32 0.092"/>
     <path d="m277.73 1054.1 202.63 0.019"/>
     <path d="m277.49 1058.6 203.1 0.092"/>
     <path d="m277.67 1049.6 202.74-0.092"/>
    </g>
   </g>
   <path d="m275.87 1068.3v-16.103" fill="none" stroke="#fc0" stroke-linecap="round" stroke-linejoin="round" stroke-width="2.1182"/>
   <path d="m275.57 1051.2v-11.322l5.7826-0.1606 0.25607 29.348" fill="none" stroke="#f00" stroke-linecap="round" stroke-linejoin="round" stroke-width="2.1182"/>
  </g>
  <path d="m179.43 1047.5v16.391h-87.951v-16.391z" fill="url(#linearGradient13945)" stroke="#4d4d4d" stroke-width=".63192"/>
  <path d="m228.17 1095.5-185.49 0.2521 0.03737-32.073c-0.22464-0.028 131.74-0.2463 185.53-0.5124z" fill="url(#linearGradient13942)" fill-rule="evenodd" stroke="#4d4d4d" stroke-width=".63192"/>
  <g fill="#f00" stroke="#fc0" stroke-linecap="round" stroke-width="1.9172">
   <path d="m20.931 1061.8 216.25-0.5706"/>
   <g stroke-linejoin="round">
    <path d="m21.02 1056.9 216.07 0.092"/>
    <path d="m21.39 1047.9 215.33 0.019"/>
    <path d="m21.137 1052.4 215.83 0.092"/>
    <path d="m21.331 1043.4 215.45-0.091"/>
   </g>
  </g>
  <g fill="none" stroke-linecap="round" stroke-linejoin="round">
   <path d="m20.877 1061.7-0.09524-13.734" stroke="#fc0" stroke-width="2.1182"/>
   <path d="m20.842 1047.8 4e-6 -13.064 4.8302 0.03 0.09011 26.966" stroke="#f00" stroke-width="2.1182"/>
   <path d="m39.233 881.67h193.37c4.2803 3e-3 10.3 5.5099 10.346 9.1135v104.61c-0.0404 4.216-4.6683 8.6816-10.108 8.6816h-193.31c-4.9616 0.031-10.162-5.2299-10.162-8.8257v-105.07c0.05828-3.7204 5.2966-8.6525 9.8581-8.5169z" stroke="#fc0" stroke-width="2.2415"/>
  </g>
  <path d="m43.538 894.18 185.25 0.68386v96.704h-185.25z" fill="url(#linearGradient14030)" stroke="#4d4d4d" stroke-linecap="round" stroke-linejoin="round" stroke-width=".63192"/>
  <path d="m180.1 942.87c0 24.267-19.672 43.939-43.939 43.939s-43.939-19.672-43.939-43.939c0-24.267 19.672-43.939 43.939-43.939 24.267 0 43.939 19.672 43.939 43.939z" fill="url(#linearGradient14027)" stroke="#4d4d4d" stroke-linecap="round" stroke-linejoin="round" stroke-width=".67654"/>
  <g fill="none" stroke="#fc0" stroke-linecap="round" stroke-linejoin="round">
   <g stroke-width="2.1182">
    <path d="m166.39 894.79c16.134 10.008 26.523 27.703 26.523 48.086 0 20.828-11.22 39.036-27.946 48.909m-59.674-0.98355c-16.473-9.9331-25.889-27.287-25.889-47.926 0-20.369 12.688-38.232 28.804-48.244"/>
    <path d="m187.5 895.43c12.011 12.489 18.149 28.749 18.149 47.445 0 18.949-9.0089 36.127-21.309 48.662m-97.225-0.52619c-12.202-12.52-20.431-29.272-20.431-48.136 0-18.792 7.4601-35.842 19.58-48.349"/>
    <path d="m202.17 895.32c9.9488 13.509 15.472 29.489 15.472 47.553 0 18.273-6.0153 35.141-16.174 48.731m-130.39-0.18845c-10.073-13.558-16.389-30.354-16.389-48.543 0-18.196 5.9651-35 16.047-48.561"/>
    <path d="m218.39 894.96c4.7996 8.2494 8.3933 17.349 10.54 26.984m-0.10838 45.12c-2.2579 9.8424-6.0437 16.255-11.094 24.669m-163.94-0.88502c-5.0478-8.4492-8.1099-17.036-10.344-26.918m0.03946-42.284c2.2488-9.8589 6.0303-19.134 11.08-27.562"/>
   </g>
   <path d="m108.05 894.96-15.997-13.474" stroke-width="2.1182"/>
   <path d="m18.335 1015.5 13.386-14.479" stroke-width="2.1182"/>
   <path d="m281.83 881.79h193.37c4.2803 3e-3 10.3 5.51 10.346 9.1136v104.61c-0.0404 4.216-4.6683 8.6815-10.108 8.6815h-193.31c-4.9617 0.031-10.162-5.2299-10.162-8.8257v-105.07c0.0582-3.7204 5.2966-8.6525 9.8581-8.5169z" stroke-width="2.2415"/>
  </g>
  <path d="m286.14 894.3 185.25 0.68386v96.704h-185.25z" fill="url(#linearGradient14015)" stroke="#4d4d4d" stroke-linecap="round" stroke-linejoin="round" stroke-width=".63192"/>
  <path d="m422.7 943c0 24.267-19.672 43.939-43.939 43.939-24.267 0-43.939-19.672-43.939-43.939s19.672-43.939 43.939-43.939c24.267 0 43.939 19.672 43.939 43.939z" fill="url(#linearGradient14012)" stroke="#4d4d4d" stroke-linecap="round" stroke-linejoin="round" stroke-width=".67654"/>
  <g fill="none" stroke="#fc0" stroke-linecap="round" stroke-linejoin="round">
   <g stroke-width="2.1182">
    <path d="m409.56 895.77c16.134 10.008 25.952 26.846 25.952 47.229 0 20.829-9.7914 37.608-26.517 47.481m-61.293 0.0641c-16.473-9.9331-25.698-26.906-25.698-47.545 0-20.369 11.449-37.375 27.566-47.387"/>
    <path d="m430.48 896.03c12.011 12.489 17.768 28.273 17.768 46.969 0 18.949-8.247 35.175-20.547 47.71m-98.749-0.62144c-12.202-12.52-19.669-28.225-19.669-47.088 0-18.792 6.6982-34.984 18.818-47.492"/>
    <path d="m445.24 896.02c9.9488 13.509 14.996 28.917 14.996 46.982 0 18.273-5.6344 34.093-15.793 47.684m-131.44-0.37893c-10.073-13.558-15.722-29.116-15.722-47.305 0-18.196 5.6794-34.238 15.761-47.799"/>
    <path d="m461.27 896.04c4.7996 8.2494 6.9647 16.682 9.111 26.317m-0.0131 44.167c-2.2579 9.8424-4.3294 15.779-9.3802 24.192m-164.7-0.31359c-5.0478-8.4492-6.9671-16.464-9.2016-26.346m0.0395-42.189c2.2488-9.8589 4.316-17.611 9.3662-26.039"/>
   </g>
   <path d="m349.82 895.5-15.905-12.787" stroke-width="2.1182"/>
   <path d="m267.4 1026.7c9.176-6.2161 11.048-14.646 7.9745-24.574" stroke-width="1.6587"/>
  </g>
  <g stroke="#000" stroke-linecap="round" stroke-linejoin="round">
   <path d="m31.777 1001.2 5.5466-12.035 6.3894 5.9956z" stroke-width="1.0658"/>
   <g transform="translate(-3.1429 -2.4762)">
    <path d="m34.786 1004.1 12.93-12.526" stroke-width=".67654"/>
    <path d="m20.176 1019.4-4.9634 12.287-6.6694-5.6825z" stroke-width="1.0658"/>
    <g stroke-width=".67654">
     <path d="m8.74 1031.8 11.355-12.572"/>
     <path d="m23.751 1021.6-5.4069-4.8571"/>
     <path d="m37.465 1007.3-5.4069-4.8571"/>
    </g>
   </g>
  </g>
  <path d="m277.93 1017.4 13.251-0.1145-2.6988 8.3359z" stroke="#000" stroke-linecap="round" stroke-linejoin="round" stroke-width="1.0658"/>
  <path d="m278.25 1017.2 16.843 6.3542" stroke="#000" stroke-linecap="round" stroke-linejoin="round" stroke-width=".67654"/>
  <g transform="translate(87.809 1121.2)">
   <ellipse cx="-44.92" cy="-98.798" rx="13.199" ry="13.469" fill="#1f638a" stroke-linecap="round" stroke-linejoin="round" stroke-width="1.0658"/>
   <text x="-50.761276" y="-91.125885" fill="#000000" font-family="'Arial Nova', 'Arial Unicode MS', 'Yu Gothic UI', sans-serif" font-size="12.8px" letter-spacing="0px" stroke-width="1.0667" word-spacing="0px" style="line-height:0%" xml:space="preserve"><tspan x="-50.761276" y="-91.125885" fill="#ffffff" font-family="'Arial Nova', 'Arial Unicode MS', 'Yu Gothic UI', sans-serif" font-size="21.333px" stroke="#ffffff" stroke-width="1.0667" style="line-height:1.25">1</tspan></text>
  </g>
  <g transform="translate(321.86 1125.2)">
   <ellipse cx="-13.718" cy="-98.798" rx="13.199" ry="13.469" fill="#1f638a" stroke-linecap="round" stroke-linejoin="round" stroke-width="1.0658"/>
   <text x="-19.559933" y="-91.125885" fill="#000000" font-family="'Arial Nova', 'Arial Unicode MS', 'Yu Gothic UI', sans-serif" font-size="12.8px" letter-spacing="0px" stroke-width="1.0667" word-spacing="0px" style="line-height:0%" xml:space="preserve"><tspan x="-19.559933" y="-91.125885" fill="#ffffff" font-family="'Arial Nova', 'Arial Unicode MS', 'Yu Gothic UI', sans-serif" font-size="21.333px" stroke="#ffffff" stroke-width="1.0667" style="line-height:1.25">2</tspan></text>
  </g>
 </g>
</svg>
