<?xml version="1.0" encoding="UTF-8"?>
<svg width="47.991" height="47.982" version="1.1" viewBox="0 0 12.698 12.695" xml:space="preserve" xmlns="http://www.w3.org/2000/svg" xmlns:xlink="http://www.w3.org/1999/xlink"><defs><linearGradient id="linearGradient2" x1="3.1658" x2="7.2891" y1="4.0056" y2="4.0496" gradientUnits="userSpaceOnUse"><stop stop-color="#000000" offset="0"/><stop stop-color="#b9b9b9" stop-opacity="0" offset="1"/></linearGradient></defs><g fill-rule="evenodd" stroke="#000000"><rect x="1.0591" y="2.3542" width="7.8557" height="6.7928" rx=".40222" ry=".40222" fill="#808059" stroke-linecap="square" stroke-width=".56624"/><rect x="2.7785" y="2.4285" width="4.2224" height="3.2422" fill="url(#linearGradient2)" stroke-linecap="round" stroke-linejoin="round" stroke-width=".57637"/><rect x="3.0764" y="6.869" width="2.8495" height="2.188" fill="#000000" stroke-linecap="round" stroke-linejoin="round" stroke-width=".38897"/></g><path d="m5.161 5.6589h3.5935l1.9382 2.6719 0.06282 3.2726h-5.5945z" fill="#ffffff" fill-rule="evenodd" stroke="#000087" stroke-linecap="round" stroke-linejoin="round" stroke-width=".66847"/><g fill="none"><g stroke="#000000" stroke-width=".9337"><path d="m5.8768 8.8431h2.0635"/><path d="m5.8559 10.291h3.4785"/><path d="m5.8768 7.186h2.0635"/></g><path d="m8.5305 5.8623 0.020942 3.0153 1.9842 0.024742" stroke="#000089" stroke-linecap="round" stroke-linejoin="round" stroke-width=".66693"/></g><g transform="matrix(2.479 0 0 2.479 16.821 -2.8315)"><path d="m-4.2054 2.0923c0.9151-1.0146 1.5641-0.13648 1.8276 0.29075" fill="none" stroke="#00008a" stroke-linecap="round" stroke-linejoin="round" stroke-width=".3202"/><path d="m-2.6728 2.7081 0.70039-0.52103-0.089684 0.61071z" fill="#000077" fill-rule="evenodd" stroke="#000089" stroke-linecap="square" stroke-width=".42693"/></g></svg>
