<svg version="1.1" viewBox="0 0 460.63 276.38" xmlns="http://www.w3.org/2000/svg" xmlns:xlink="http://www.w3.org/1999/xlink">
 <title>Abbildung für OPEN MIND Softwaredokumentation</title>
 <defs>
  <linearGradient id="linearGradient17780-7-4">
   <stop stop-color="#ffffff" offset="0"/>
   <stop stop-color="#00385e" offset="1"/>
  </linearGradient>
  <linearGradient id="linearGradient36722" x1="-33.479" x2="596.39" y1="105.29" y2="261.58" gradientUnits="userSpaceOnUse" xlink:href="#linearGradient17780-7-4"/>
  <linearGradient id="linearGradient36730" x1="-25.057" x2="576.18" y1="242.71" y2="425.37" gradientUnits="userSpaceOnUse" xlink:href="#linearGradient17780-7-4"/>
  <pattern id="pattern3072" patternTransform="matrix(.042431 -.00088993 .45873 66.679 60.842 780.5)" xlink:href="#pattern3123"/>
  <pattern id="pattern3123" patternTransform="matrix(.073903 -.00088773 .79897 66.514 111.05 1002.9)" xlink:href="#pattern33167"/>
  <pattern id="pattern33167" patternTransform="matrix(.0331 .032869 -29.519 29.726 69.26 882.21)" xlink:href="#pattern30710"/>
  <pattern id="pattern30710" patternTransform="matrix(.0331 .032869 -29.519 29.726 57.159 870.02)" xlink:href="#pattern5376"/>
  <pattern id="pattern5376" patternTransform="matrix(.054574 .055284 -26.121 25.785 0 0)" xlink:href="#Strips1_64-5"/>
  <pattern id="Strips1_64-5" width="65" height="1" patternTransform="translate(0) scale(10)" patternUnits="userSpaceOnUse">
   <rect y="-.5" width="1" height="2" fill="black"/>
  </pattern>
 </defs>
 <g transform="translate(0 -775.98)">
  <g stroke-miterlimit="10">
   <path transform="matrix(.77101 0 0 .77101 4.6512 809.07)" d="m354.6 293.35v-82.453h-345.88v82.453z" clip-rule="evenodd" fill="url(#linearGradient36730)" fill-rule="evenodd" stroke="#4d4d4d" stroke-width=".82262"/>
   <path d="m199.13 920.57" fill="none" stroke="#e2001a" stroke-linecap="round" stroke-linejoin="round" stroke-width=".70866"/>
   <path d="m192.81 916.92" fill="none" stroke="#e2001a" stroke-linecap="round" stroke-linejoin="round" stroke-width=".70866"/>
  </g>
  <g clip-rule="evenodd" stroke-miterlimit="10">
   <g fill="none" stroke-linecap="round" stroke-linejoin="round" stroke-width="3.0012">
    <line x1="197.64" x2="197.67" y1="973.46" y2="1033.8" stroke="#800080"/>
    <line x1="85.127" x2="85.127" y1="972.76" y2="1033.8" stroke="#800080"/>
    <g stroke="#ffcc00">
     <line x1="200.68" x2="200.68" y1="972.96" y2="1033.8"/>
     <line x1="81.735" x2="81.735" y1="973.02" y2="1033.6"/>
     <line x1="206.11" x2="206.11" y1="972.96" y2="1033.8"/>
     <line x1="211.43" x2="211.43" y1="972.96" y2="1033.8"/>
     <line x1="217.1" x2="217.1" y1="972.96" y2="1033.8"/>
     <line x1="58.375" x2="58.375" y1="973.02" y2="1033.6"/>
     <line x1="49.719" x2="49.719" y1="973.1" y2="1033.6"/>
     <line x1="45.779" x2="45.779" y1="973.1" y2="1033.6"/>
     <line x1="41.102" x2="41.102" y1="973.45" y2="1033.6"/>
     <line x1="36.334" x2="36.334" y1="973.02" y2="1033.6"/>
     <line x1="32.206" x2="32.206" y1="973.54" y2="1033.6"/>
     <line x1="27.347" x2="27.347" y1="973.11" y2="1033.6"/>
     <line x1="66.33" x2="66.33" y1="973.02" y2="1033.6"/>
     <line x1="74.066" x2="74.066" y1="973.02" y2="1033.6"/>
     <line x1="222.65" x2="222.65" y1="972.96" y2="1033.8"/>
     <line x1="228.54" x2="228.54" y1="972.96" y2="1033.8"/>
     <line x1="233.63" x2="233.63" y1="972.96" y2="1033.8"/>
     <line x1="239" x2="239.18" y1="972.54" y2="1033.8"/>
     <line x1="244.9" x2="245.08" y1="972.43" y2="1033.8"/>
    </g>
   </g>
   <path transform="matrix(.77101 0 0 .77101 4.6512 809.07)" d="m106.38 145.17-45.499-43.69-30.746-67.686h-21.521v159.13h345.32l0.249-159.13h-41.199l-60.874 111.38z" fill="url(#linearGradient36722)" fill-rule="evenodd" stroke="#4d4d4d" stroke-width=".82262"/>
  </g>
  <path d="m26.169 1034.9-0.031567-199.76" fill="none" stroke="#000000" stroke-linecap="round" stroke-linejoin="round" stroke-miterlimit="10" stroke-width=".63425"/>
  <line x1="246.79" x2="246.79" y1="1034.7" y2="837.13" fill="none" stroke="#000000" stroke-linecap="round" stroke-linejoin="round" stroke-miterlimit="10" stroke-width=".63425"/>
  <g fill="#000000" stroke="#000000" stroke-linecap="round" stroke-linejoin="round">
   <path d="m30.49 814.46 8.9927 16" stroke-width=".88583"/>
   <path d="m39.727 830.81-2.0994-12.245-7.2417 3.8772z" stroke-width=".99921"/>
   <path d="m54.758 858.6-8.9927-16" stroke-miterlimit="10" stroke-width=".63425"/>
   <path d="m45.522 842.25 2.0994 12.245 7.2417-3.8772z" stroke-miterlimit="10" stroke-width=".63425"/>
  </g>
  <g fill="none" stroke-linecap="round" stroke-linejoin="round" stroke-miterlimit="10">
   <path d="m67.537 883.03" stroke="#e2001a" stroke-width=".70866"/>
   <g stroke="#000000">
    <line x1="34.073" x2="39.656" y1="835.17" y2="832.24" stroke-width=".63425"/>
    <line x1="38.891" x2="44.474" y1="845.52" y2="842.67" stroke-width=".63425"/>
    <line x1="43.516" x2="49.099" y1="855.22" y2="852.37" stroke-width=".70866"/>
    <g stroke-width=".63425">
     <line x1="48.276" x2="53.858" y1="865.63" y2="862.79"/>
     <line x1="52.997" x2="58.471" y1="875.79" y2="872.8"/>
     <line x1="56.506" x2="62.089" y1="883.95" y2="880.66"/>
     <line x1="64.617" x2="70.199" y1="891.58" y2="887.64"/>
     <line x1="72.854" x2="78.437" y1="899.83" y2="895.56"/>
     <line x1="81" x2="86.583" y1="907.42" y2="903.13"/>
     <line x1="89.479" x2="95.062" y1="915.69" y2="911.42"/>
    </g>
   </g>
   <path d="m253.11 892.63" stroke="#e2001a" stroke-width=".70866"/>
   <path d="m246.8 888.98" stroke="#e2001a" stroke-width=".70866"/>
  </g>
  <path d="m56.219 884.39 33.397 32.139 105.43-0.22576 45.098-81.167 5.835-0.0316-46.846 86.066-112.67-0.0574-35.02-33.82-23.747-52.056h5.7189z" fill="#fcd6a4" stroke="#7d7d7d" stroke-linecap="round" stroke-linejoin="round" stroke-width=".63425"/>
  <path d="m33.437 835.12 22.77 49.269 33.367 32.031 105.31 0.11181 45.313-81.306 5.3632-0.0186-47.128 85.901-111.87-0.11366-35.087-33.784-23.963-51.962z" fill="url(#pattern3072)" fill-rule="evenodd" opacity=".5"/>
  <g fill="none" stroke="#000000" stroke-linecap="round" stroke-linejoin="round" stroke-miterlimit="10" stroke-width=".63425">
   <line x1="234.46" x2="227.21" y1="844.01" y2="840.82"/>
   <line x1="194.65" x2="187.5" y1="915.52" y2="912.18"/>
   <line x1="199.85" x2="193.4" y1="905.86" y2="902.24"/>
   <line x1="205.19" x2="198.72" y1="896.13" y2="892.18"/>
   <line x1="211.36" x2="204.57" y1="885.33" y2="881.79"/>
   <line x1="216.75" x2="210.02" y1="875.39" y2="872"/>
   <line x1="222.27" x2="215.59" y1="865.11" y2="861.62"/>
   <line x1="227.68" x2="220.75" y1="854.84" y2="851.29"/>
  </g>
  <g fill="#000000" stroke="#000000" stroke-linecap="round" stroke-linejoin="round">
   <path d="m220.38 825.71 18.349-0.4297" stroke-width=".88583"/>
   <path d="m239.15 825.23-11.797-3.8942 0.024 8.2143z" stroke-width=".99921"/>
   <path d="m265.77 825.13-18.354 0.0562" stroke-miterlimit="10" stroke-width=".63425"/>
   <path d="m246.99 825.23 11.715 4.1334 0.14319-8.213z" stroke-miterlimit="10" stroke-width=".63425"/>
  </g>
  <g fill="none" stroke="#000000" stroke-linecap="round" stroke-linejoin="round" stroke-miterlimit="10" stroke-width=".63425">
   <path d="m240.02 834.58v-9.2394"/>
   <path d="m246.25 834.58v-9.2394"/>
   <line x1="239.43" x2="232.18" y1="834.8" y2="831.62"/>
  </g>
  <g>
   <ellipse cx="63.586" cy="823.79" rx="13.199" ry="13.469" fill="#1f638a" stroke-linecap="round" stroke-linejoin="round" stroke-width="1.0658"/>
   <text x="57.744724" y="831.46265" fill="#000000" letter-spacing="0px" word-spacing="0px" style="line-height:0%" xml:space="preserve"><tspan x="57.744724" y="831.46265" fill="#ffffff" font-family="'Arial Nova', 'Arial Unicode MS', 'Yu Gothic UI', sans-serif" font-size="20px" stroke="#ffffff" stroke-width="1.0667" style="line-height:1.25">1</tspan></text>
   <ellipse cx="244.99" cy="801.65" rx="13.199" ry="13.469" fill="#1f638a" stroke-linecap="round" stroke-linejoin="round" stroke-width="1.0658"/>
   <text x="239.14337" y="809.31982" fill="#000000" letter-spacing="0px" word-spacing="0px" style="line-height:0%" xml:space="preserve"><tspan x="239.14337" y="809.31982" fill="#ffffff" font-family="'Arial Nova', 'Arial Unicode MS', 'Yu Gothic UI', sans-serif" font-size="20px" stroke="#ffffff" stroke-width="1.0667" style="line-height:1.25">2</tspan></text>
  </g>
 </g>
</svg>
