<?xml version="1.0" encoding="UTF-8"?>
<svg width="18cm" height="6cm" version="1.1" xmlns="http://www.w3.org/2000/svg" xmlns:cc="http://creativecommons.org/ns#" xmlns:dc="http://purl.org/dc/elements/1.1/" xmlns:rdf="http://www.w3.org/1999/02/22-rdf-syntax-ns#" xmlns:xlink="http://www.w3.org/1999/xlink">
 <defs>
  <linearGradient id="linearGradient17780-7">
   <stop stop-color="#fff" offset="0"/>
   <stop stop-color="#00385e" offset="1"/>
  </linearGradient>
  <linearGradient id="linearGradient8407" x1="163.92" x2="167.59" y1="117.74" y2="399.58" gradientUnits="userSpaceOnUse" xlink:href="#linearGradient17780-7"/>
  <linearGradient id="linearGradient8561" x1="163.92" x2="167.59" y1="117.74" y2="399.58" gradientTransform="scale(1.0667)" gradientUnits="userSpaceOnUse" xlink:href="#linearGradient17780-7"/>
  <linearGradient id="linearGradient8392-0" x1="-77.243" x2="560.49" y1="400.83" y2="400.83" gradientUnits="userSpaceOnUse" xlink:href="#linearGradient17780-7"/>
  <linearGradient id="linearGradient8551-5" x1="-77.243" x2="560.49" y1="400.83" y2="400.83" gradientTransform="scale(1.0667)" gradientUnits="userSpaceOnUse" xlink:href="#linearGradient17780-7"/>
 </defs>
 <metadata>
  <rdf:RDF>
   <cc:Work rdf:about="">
    <dc:format>image/svg+xml</dc:format>
    <dc:type rdf:resource="http://purl.org/dc/dcmitype/StillImage"/>
    <dc:title/>
   </cc:Work>
  </rdf:RDF>
 </metadata>
 <g transform="translate(0 -895.75)">
  <g transform="matrix(.35849 0 0 .35849 96.826 872.99)" fill="url(#linearGradient8551-5)" stroke="#7d7d7d" stroke-linecap="round" stroke-linejoin="round" stroke-width="3.9958">
   <path d="m436.92 664.05v-338.87l-360.96-135.09-1.2968 340.25z"/>
   <path d="m7.6772 527.88c22.571-3.5685 44.996-3.338 67.209 2.4244l1.0775-340.08c-26.143-9.2284-48.788-6.2153-67.748 9.6975z"/>
   <path d="m-80.762 391.85c-6.3272 72.169 19.897 143.08 88 136.76l1.1429-328.76c-49.846 46.182-80.306 110.78-89.143 192z"/>
   <path d="m436.92 664.05c27.931 6.1901 56.093 14.823 80.543-15.893l0.26937-318.4c-27.815 2.2518-54.879 1.5011-80.543-4.8487z"/>
   <path d="m596.39 476.56c5.9632-108.21-24.372-149.15-78.691-146.84l-0.2357 318.6c44.536-48.532 70.192-108.13 78.927-171.76z"/>
  </g>
  <g transform="matrix(.35849 0 0 .35849 96.826 872.99)" fill="url(#linearGradient8561)" stroke="#7d7d7d" stroke-linecap="round" stroke-linejoin="round" stroke-width="3.9958">
   <path d="m-73.682 126.98c-55.071 8.3214-115.5 76.062-137.37 174.97-14.556 95.225 7.4497 136.62 45.524 156.95l36.381 11.048c-19.5-37.09-29.342-79.681-10.463-156.57 22.653-88.826 76.289-145.52 121.77-165.33z"/>
   <path d="m7.0037 141.46c1.6162 2.6937 511.15 188.4 511.15 188.4-27.167 2.0681-55.067 1.776-81.226-5.2297l-360.42-134.15c-25.277-9.543-48.223-7.199-68.421 9.1587-105 99.588-120.48 296.88-33.92 325.83l-75.065-27.616c-44.188-48.089-49.352-95.451-31.09-187.77 24.759-80.397 66.906-141.3 139-168.63z"/>
   <path d="m31.247 141.46 521.77 194.45c-6.411-2.5777-19.108-7.0397-35.111-6.1564l-510.9-188.3c6.7097-1.8612 13.473-3.4351 24.244 0z"/>
   <path d="m-103.71 495.15-25.321-25.052c-20.419-37.628-30.547-78.157-8.3506-169.17 21.955-64.527 54.954-120.63 119.06-153l25.86-6.7344c-64.257 24.436-110.18 78.2-137.38 161.89-26.86 110-4.0945 158.17 26.129 192.06z"/>
   <path d="m-73.472 126.98c6.8772-0.60811 14.048-0.48279 21.281-0.20204l46.4 17.913c-4.2775 1.312-8.6311 1.8072-12.257 3.2998z"/>
  </g>
  <path d="m99.615 1062.2c-19.888 1.8877-36.24-13.472-31.481-55.622 3.8698-34.276 26.587-56.174 31.674-61.803 6.6458-5.6374 15.241-5.8366 25.494-1.9314l128.24 47.511c8.502 1.8282 17.19 3.284 28.223 0.0517 11.745-2.0108 33.174 8.2206 28.559 56.343-5.3728 31.224-16.301 46.399-28.149 58.919" fill="none" stroke="#f00" stroke-linecap="round" stroke-linejoin="round" stroke-width="3.7795"/>
  <g stroke-linecap="round" stroke-linejoin="round">
   <path d="m621.18 962.67v22.631" color="#000000" fill="#1f638a" fill-rule="evenodd" stroke="#1f638a" stroke-width="1.8898"/>
   <g transform="matrix(.35849 0 0 .35849 435.17 871.11)" fill="url(#linearGradient8551-5)" stroke="#7d7d7d" stroke-width="3.9958">
    <path d="m436.92 664.05v-338.87l-360.96-135.09-1.2968 340.25z"/>
    <path d="m7.6772 527.88c22.571-3.5685 44.996-3.338 67.209 2.4244l1.0775-340.08c-26.143-9.2284-48.788-6.2153-67.748 9.6975z"/>
    <path d="m-80.762 391.85c-6.3272 72.169 19.897 143.08 88 136.76l1.1429-328.76c-49.846 46.182-80.306 110.78-89.143 192z"/>
    <path d="m436.92 664.05c27.931 6.1901 56.093 14.823 80.543-15.893l0.26937-318.4c-27.815 2.2518-54.879 1.5011-80.543-4.8487z"/>
    <path d="m596.39 476.56c5.9632-108.21-24.372-149.15-78.691-146.84l-0.2357 318.6c44.536-48.532 70.192-108.13 78.927-171.76z"/>
   </g>
   <g transform="matrix(.35849 0 0 .35849 435.17 871.11)" fill="url(#linearGradient8561)" stroke="#7d7d7d" stroke-width="3.9958">
    <path d="m-73.682 126.98c-55.071 8.3214-115.5 76.062-137.37 174.97-14.556 95.225 7.4497 136.62 45.524 156.95l36.381 11.048c-19.5-37.09-29.342-79.681-10.463-156.57 22.653-88.826 76.289-145.52 121.77-165.33z"/>
    <path d="m7.0037 141.46c1.6162 2.6937 511.15 188.4 511.15 188.4-27.167 2.0681-55.067 1.776-81.226-5.2297l-360.42-134.15c-25.277-9.543-48.223-7.199-68.421 9.1587-105 99.588-120.48 296.88-33.92 325.83l-75.065-27.616c-44.188-48.089-49.352-95.451-31.09-187.77 24.759-80.397 66.906-141.3 139-168.63z"/>
    <path d="m31.247 141.46 521.77 194.45c-6.411-2.5777-19.108-7.0397-35.111-6.1564l-510.9-188.3c6.7097-1.8612 13.473-3.4351 24.244 0z"/>
    <path d="m-103.71 495.15-25.321-25.052c-20.419-37.628-30.547-78.157-8.3506-169.17 21.955-64.527 54.954-120.63 119.06-153l25.86-6.7344c-64.257 24.436-110.18 78.2-137.38 161.89-26.86 110-4.0945 158.17 26.129 192.06z"/>
    <path d="m-73.472 126.98c6.8772-0.60811 14.048-0.48279 21.281-0.20204l46.4 17.913c-4.2775 1.312-8.6311 1.8072-12.257 3.2998z"/>
   </g>
  </g>
  <path d="m412.41 956.41 27.076-15.633c8.7077-3.8011 16.868-3.9064 24.546-0.75539l129.46 48.071c9.9549 2.5035 19.496 2.3886 28.679 0 0 0 13.69-6.1142 26.778-12.016" fill="none" stroke="#800080" stroke-linecap="round" stroke-linejoin="round" stroke-width="3.7795"/>
  <path d="m412.41 1078 27.076-15.633c8.7077-3.8011 16.868-3.9064 24.546-0.7554l129.46 48.071c9.9549 2.5034 19.496 2.3886 28.679 0 0 0 13.34-5.9575 26.272-11.787" fill="none" stroke="#008000" stroke-linecap="round" stroke-linejoin="round" stroke-width="3.7795"/>
  <g transform="translate(-173.71 153.9)">
   <path d="m273.53 844.66 0.12755 28.962" fill="#800080" stroke="#000" stroke-linecap="round" stroke-linejoin="round" stroke-width=".7559"/>
   <path d="m273.56 837.7 3.6977 15.307h-7.3955c1.3098-7.7569 3.6977-15.307 3.6977-15.307z" fill="#fff" stroke="#000" stroke-linecap="round" stroke-linejoin="round" stroke-width=".7559"/>
   <g transform="rotate(20.193 -119.88 803.52)" stroke="#000" stroke-linecap="round" stroke-linejoin="round" stroke-width=".7559">
    <path d="m297.84 733.49-24.024-0.10314" fill="#800080"/>
    <path d="m306.43 733.51-15.312 3.6735 0.0117-7.3955z" fill="#fff"/>
   </g>
   <text x="260.77234" y="895.88153" fill="#000000" font-family="'Arial Nova', 'Arial Unicode MS', 'Yu Gothic UI', sans-serif" font-size="12.8px" letter-spacing="0px" stroke="#000000" stroke-width="1.0667" word-spacing="0px" style="line-height:0%" xml:space="preserve"><tspan x="260.77234" y="895.88153" fill="#ff0000" font-family="'Arial Nova', 'Arial Unicode MS', 'Yu Gothic UI', sans-serif" font-size="10.667px" stroke="#000000" stroke-width="1.0667" style="line-height:1.25">X</tspan></text>
   <text x="304.31967" y="896.86536" fill="#000000" font-family="'Arial Nova', 'Arial Unicode MS', 'Yu Gothic UI', sans-serif" font-size="12.8px" letter-spacing="0px" stroke="#000000" stroke-width="1.0667" word-spacing="0px" style="line-height:0%" xml:space="preserve"><tspan x="304.31967" y="896.86536" fill="#ff0000" font-family="'Arial Nova', 'Arial Unicode MS', 'Yu Gothic UI', sans-serif" font-size="10.667px" stroke="#000000" stroke-width="1.0667" style="line-height:1.25">Y</tspan></text>
   <g transform="rotate(148.56 253.72 803.52)">
    <g transform="translate(-.27775 .066984)" stroke="#000" stroke-linecap="round" stroke-linejoin="round" stroke-width=".7559">
     <path d="m297.84 733.49-24.024-0.10314" fill="#800080"/>
     <path d="m306.43 733.51-15.312 3.6735 0.0117-7.3955z" fill="#fff"/>
    </g>
   </g>
   <text x="278.50336" y="846.99512" fill="#000000" font-family="'Arial Nova', 'Arial Unicode MS', 'Yu Gothic UI', sans-serif" font-size="12.8px" letter-spacing="0px" stroke="#000000" stroke-width="1.0667" word-spacing="0px" style="line-height:0%" xml:space="preserve"><tspan x="278.50336" y="846.99512" fill="#ff0000" font-family="'Arial Nova', 'Arial Unicode MS', 'Yu Gothic UI', sans-serif" font-size="10.667px" stroke="#000000" stroke-width="1.0667" style="line-height:1.25">Z</tspan></text>
  </g>
  <g stroke-linecap="round" stroke-linejoin="round">
   <path d="m270.69 1018.8 6.2254-5.1469 6.9023 14.13 6.2932-3.0742-6.9023-14.13 7.4286-1.523-19.542-14.716z" fill="#fff" stroke="#000" stroke-width=".7559"/>
   <path d="m100.65 1086.1 6.2254-5.1469 6.9023 14.13 6.2932-3.0743-6.9023-14.13 7.4286-1.523-19.542-14.716z" fill="#fff" stroke="#000" stroke-width=".7559"/>
   <g transform="matrix(.68716 0 0 -.64432 206.59 1171.1)" fill="#1f638a" stroke="#1f638a" stroke-width="1.3023">
    <path d="m207.49 126.25 34.17 21.614-34.17 21.614z"/>
    <rect x="172.19" y="137.99" width="39.213" height="19.761"/>
   </g>
   <path d="m438.62 1062.6v22.631" color="#000000" fill="#1f638a" fill-rule="evenodd" stroke="#1f638a" stroke-width="1.8898"/>
  </g>
  <g transform="translate(665.88 1055.1)">
   <ellipse cx="-44.92" cy="-98.798" rx="13.199" ry="13.469" fill="#1f638a" stroke-linecap="round" stroke-linejoin="round" stroke-width="1.0658"/>
   <text x="-50.761276" y="-91.125885" fill="#000000" font-family="'Arial Nova', 'Arial Unicode MS', 'Yu Gothic UI', sans-serif" font-size="12.8px" letter-spacing="0px" stroke-width="1.0667" word-spacing="0px" style="line-height:0%" xml:space="preserve"><tspan x="-50.761276" y="-91.125885" fill="#ffffff" font-family="'Arial Nova', 'Arial Unicode MS', 'Yu Gothic UI', sans-serif" font-size="21.333px" stroke="#ffffff" stroke-width="1.0667" style="line-height:1.25">1</tspan></text>
  </g>
  <g transform="translate(452.31 1193)">
   <ellipse cx="-13.718" cy="-98.798" rx="13.199" ry="13.469" fill="#1f638a" stroke-linecap="round" stroke-linejoin="round" stroke-width="1.0658"/>
   <text x="-19.559933" y="-91.125885" fill="#000000" font-family="'Arial Nova', 'Arial Unicode MS', 'Yu Gothic UI', sans-serif" font-size="12.8px" letter-spacing="0px" stroke-width="1.0667" word-spacing="0px" style="line-height:0%" xml:space="preserve"><tspan x="-19.559933" y="-91.125885" fill="#ffffff" font-family="'Arial Nova', 'Arial Unicode MS', 'Yu Gothic UI', sans-serif" font-size="21.333px" stroke="#ffffff" stroke-width="1.0667" style="line-height:1.25">2</tspan></text>
  </g>
 </g>
</svg>
