<?xml version="1.0" encoding="UTF-8"?>
<svg version="1.1" viewBox="0 0 491.34 264.57" xmlns="http://www.w3.org/2000/svg">
 <defs>
  <linearGradient id="a" x1="6.4819" x2="424.39" y1="50.647" y2="50.142" gradientTransform="matrix(.85432 0 0 -.85432 -1.169 179.84)" gradientUnits="userSpaceOnUse">
   <stop stop-color="#ffffff" offset="0"/>
   <stop stop-color="#00385e" offset="1"/>
  </linearGradient>
  <linearGradient id="f" x1="172.59" x2="594.03" y1="139.53" y2="140.03" gradientTransform="matrix(.85312 0 0 -.99182 -143.22 191.74)" gradientUnits="userSpaceOnUse">
   <stop stop-color="#ffffff" offset="0"/>
   <stop stop-color="#00385e" offset="1"/>
  </linearGradient>
  <linearGradient id="e" x1="6.3159" x2="396.97" y1="139.61" y2="138.6" gradientTransform="matrix(.85402 0 0 -.98785 140.95 191.13)" gradientUnits="userSpaceOnUse">
   <stop stop-color="#ffffff" offset="0"/>
   <stop stop-color="#00385e" offset="1"/>
  </linearGradient>
  <clipPath id="h">
   <path d="m135.8 184.17v-42.356h-107.91v42.356" clip-rule="evenodd"/>
  </clipPath>
  <linearGradient id="d" x1="-23.3" x2="300.75" y1="159.84" y2="205.96" gradientTransform="matrix(.81202 0 0 1.146 5.0103 -20.182)" gradientUnits="userSpaceOnUse">
   <stop stop-color="#ffffff" offset="0"/>
   <stop stop-color="#00385e" offset="1"/>
  </linearGradient>
  <clipPath id="g">
   <path d="m278.22 184.14v-43.602h-110.48v43.602" clip-rule="evenodd"/>
  </clipPath>
  <linearGradient id="c" x1="125.58" x2="429.39" y1="160.4" y2="200.46" gradientTransform="matrix(.83062 0 0 1.155 6.4167 -21.758)" gradientUnits="userSpaceOnUse">
   <stop stop-color="#ffffff" offset="0"/>
   <stop stop-color="#00385e" offset="1"/>
  </linearGradient>
  <linearGradient id="b" x1="6.4819" x2="424.39" y1="50.647" y2="50.142" gradientTransform="matrix(.85432 0 0 -.85432 140.55 179.58)" gradientUnits="userSpaceOnUse">
   <stop stop-color="#ffffff" offset="0"/>
   <stop stop-color="#00385e" offset="1"/>
  </linearGradient>
 </defs>
 <g transform="matrix(1.3333 0 0 1.3333 0 1.9475e-6)">
  <g>
   <g>
    <g transform="scale(1 .94531)">
     <path d="m4.559 34.091h132.02v78.496h-132.02z" fill="url(#a)" fill-rule="evenodd" stroke="#4d4d4d" stroke-width=".52188"/>
    </g>
   </g>
   <g>
    <g transform="scale(.90993 1)">
     <path d="m4.623 111.53h144.89v72.918h-144.89z" fill="url(#f)" fill-rule="evenodd" stroke="#4d4d4d" stroke-width=".53192"/>
    </g>
   </g>
   <g>
    <g transform="scale(.91454 1)">
     <path d="m160.22 111.83h144.3v72.586h-144.3z" fill="url(#e)" fill-rule="evenodd" stroke="#4d4d4d" stroke-width=".53058"/>
    </g>
   </g>
   <g>
    <g clip-path="url(#h)">
     <g>
      <path d="m135.8 184.17v-42.356h-107.91v42.356" fill="url(#d)" fill-rule="evenodd"/>
     </g>
    </g>
   </g>
   <g>
    <g clip-path="url(#g)">
     <g>
      <path d="m278.22 184.14v-43.602h-110.48v43.602" fill="url(#c)" fill-rule="evenodd"/>
     </g>
    </g>
   </g>
   <g>
    <path d="m166.76 183.04v-42.781h110.3" fill="none" stroke="#800080" stroke-linecap="round" stroke-linejoin="round" stroke-width="2.2677"/>
   </g>
   <g transform="scale(1 .93673)">
    <path d="m22.93 112.04v-64.32h112.33" fill="none" stroke="#800080" stroke-linecap="round" stroke-linejoin="round" stroke-width="2.3431"/>
   </g>
   <g>
    <path d="m36.063 105.15v-17.421l0.562-4.688c2.895-15.512 16.711-25.863 33.508-25.684h64.816" fill="none" stroke="#ffcc00" stroke-linecap="round" stroke-linejoin="round" stroke-width="2.2677"/>
   </g>
   <g>
    <path d="m44.945 182.51 0.039-21.817c0.981-7.269 4.438-11.109 9.696-11.222h80.179" fill="none" stroke="#ffcc00" stroke-linecap="round" stroke-linejoin="round" stroke-width="2.2677"/>
   </g>
   <g>
    <path d="m193 148.16c3.024-1.25 7.66-1.258 7.809-1.367l76.562 0.141" fill="none" stroke="#ffcc00" stroke-linecap="round" stroke-linejoin="round" stroke-width="2.2677"/>
   </g>
   <g>
    <path d="m177.52 146.36v-25.211l15.484-6.261 0.082 33.191" fill="none" stroke="#e2001a" stroke-linecap="round" stroke-linejoin="round" stroke-width="2.2677"/>
   </g>
   <g>
    <path d="m175.01 183.04-0.231-23.488c0.465-2.008 1.407-3.899 2.735-5.465v-8.652" fill="none" stroke="#ffcc00" stroke-linecap="round" stroke-linejoin="round" stroke-width="2.2677"/>
   </g>
   <g transform="scale(.72823 1)">
    <path d="m38.24 182.9v-40.925h147.41" fill="none" stroke="#800080" stroke-linecap="round" stroke-linejoin="round" stroke-width="2.6574"/>
   </g>
   <g>
    <g transform="scale(1 .94531)">
     <path d="m146.28 34.347h132.02v78.492h-132.02z" fill="url(#b)" fill-rule="evenodd" stroke="#4d4d4d" stroke-width=".52188"/>
    </g>
   </g>
   <g transform="scale(1 .91676)">
    <path d="m164.93 114.9v-64.319h112.34" fill="none" stroke="#800080" stroke-linecap="round" stroke-linejoin="round" stroke-width="2.3684"/>
   </g>
   <g>
    <path d="m175.34 105.22 0.273-21.078c0.411-1.504 0.231-2.887 1.825-4.407" fill="none" stroke="#ffcc00" stroke-linecap="round" stroke-linejoin="round" stroke-width="2.2677"/>
   </g>
   <g>
    <path d="m191.34 64.695c2.937-2.683 6.301-4.156 9.933-4.324l75.422 0.289" fill="none" stroke="#ffcc00" stroke-linecap="round" stroke-linejoin="round" stroke-width="2.2677"/>
   </g>
   <g>
    <path d="m177.15 80.309 15.332-16.477" fill="none" stroke="#e2001a" stroke-linecap="round" stroke-linejoin="round" stroke-width="2.2677"/>
   </g>
   <path d="m80.465 15.535c0 5.578-4.43 10.102-9.899 10.102-5.464 0-9.898-4.524-9.898-10.102 0-5.582 4.434-10.101 9.898-10.101 5.469 0 9.899 4.519 9.899 10.101z" fill="#1f638a"/>
   <text transform="translate(66.187 21.288)" fill="#ffffff" font-family="'Arial Nova', 'Arial Unicode MS', 'Yu Gothic UI', sans-serif" font-size="16px"><tspan x="0" y="0">1</tspan></text>
   <g>
    <path d="m72.188 21.289h-1.407v-8.969c-0.699 0.668-1.636 1.235-2.812 1.703v-1.359c1.613-0.781 2.719-1.742 3.312-2.891h0.907z" fill="none" stroke="#ffffff" stroke-width=".80002"/>
   </g>
   <path d="m222.19 15.535c0 5.578-4.43 10.102-9.899 10.102s-9.898-4.524-9.898-10.102c0-5.582 4.429-10.101 9.898-10.101s9.899 4.519 9.899 10.101z" fill="#1f638a"/>
   <text transform="translate(207.91 21.288)" fill="#ffffff" font-family="'Arial Nova', 'Arial Unicode MS', 'Yu Gothic UI', sans-serif" font-size="16px"><tspan x="0" y="0">2</tspan></text>
   <g>
    <path d="m215.98 21.289h-7.578c0-0.644 0.223-1.297 0.672-1.953 0.445-0.664 1.289-1.5 2.531-2.5 0.75-0.602 1.422-1.234 2.016-1.891 0.594-0.664 0.891-1.336 0.891-2.015 0-0.571-0.203-1.047-0.61-1.422-0.406-0.383-0.922-0.578-1.547-0.578-0.636 0-1.168 0.199-1.593 0.593-0.43 0.387-0.641 0.965-0.641 1.735l-1.453-0.172c0.094-1.07 0.473-1.891 1.141-2.453 0.675-0.57 1.535-0.86 2.578-0.86 1.125 0 2 0.313 2.625 0.938s0.937 1.375 0.937 2.25c0 0.742-0.265 1.484-0.797 2.234-0.523 0.75-1.574 1.758-3.156 3.016-0.824 0.668-1.371 1.242-1.641 1.719h5.625z" fill="none" stroke="#ffffff" stroke-width=".80002"/>
   </g>
  </g>
 </g>
</svg>
