<svg version="1.1" viewBox="0 0 637.8 318.9" xmlns="http://www.w3.org/2000/svg" xmlns:xlink="http://www.w3.org/1999/xlink">
 <defs>
  <linearGradient id="linearGradient9027" x1="457.54" x2="303.69" y1="-437.09" y2="319.08" gradientUnits="userSpaceOnUse">
   <stop stop-color="#00385e" offset="0"/>
   <stop stop-color="#1f5072" offset=".043817"/>
   <stop stop-color="#3f6986" offset=".097059"/>
   <stop stop-color="#5f829a" offset=".14568"/>
   <stop stop-color="#ffffff" offset=".5"/>
   <stop stop-color="#5f829a" offset=".87372"/>
   <stop stop-color="#3f6986" offset=".91753"/>
   <stop stop-color="#1f5072" offset=".96833"/>
   <stop stop-color="#00385e" offset="1"/>
  </linearGradient>
  <linearGradient id="linearGradient9201" x1="446.82" x2="286.61" y1="-427.91" y2="310.75" gradientUnits="userSpaceOnUse">
   <stop stop-color="#00385e" offset="0"/>
   <stop stop-color="#1f5072" offset=".043817"/>
   <stop stop-color="#3f6986" offset=".097059"/>
   <stop stop-color="#5f829a" offset=".14568"/>
   <stop stop-color="#ffffff" offset=".5"/>
   <stop stop-color="#5f829a" offset=".87372"/>
   <stop stop-color="#3f6986" offset=".91753"/>
   <stop stop-color="#1f5072" offset=".96833"/>
   <stop stop-color="#00385e" offset="1"/>
  </linearGradient>
 </defs>
 <g>
  <g transform="matrix(.54167 0 0 .54167 -21.496 -281.15)">
   <path transform="translate(0 733.46)" d="m101.17 204.04 403.97 69.453-6.7379 46.44-404.48-68.416 7.2562-47.477" fill="#c6d2db" stroke="#000000" stroke-width="1px"/>
   <g>
    <path transform="translate(0 733.46)" d="m101.59 204.04c85.526-7.8757 128.06-217.45 138.25-251.35l404.65 69.283c-22.843 87.425-62.449 245.14-139.45 251.52l-403.45-69.453" fill="url(#linearGradient9027)" stroke="#000000" stroke-width="1px"/>
    <path transform="translate(0 733.46)" d="m498.3 319.93c72.262-4.1046 120.63-124.6 160.98-290.46l-15.049-7.7064c-21.904 94.764-62.267 238.99-139.16 251.65z" fill="#295878" stroke="#000000" stroke-width="1px"/>
    <g fill="none" stroke-linecap="round" stroke-linejoin="round" stroke-miterlimit="7" stroke-width="3.5433">
     <path d="m269.52 665.92 296.05 50.586" stroke="#fc00fb"/>
     <path d="m291.91 891.07 296.05 50.586" stroke="#fc00fb"/>
     <path d="m630.36 842.89-292.74-50.424z" stroke="#7ab51d"/>
     <path d="m543.91 997.96-292.74-50.424z" stroke="#7ab51d"/>
    </g>
   </g>
  </g>
  <g transform="matrix(.54167 0 0 .54167 545.74 -220.23)" stroke="#ffcc00" stroke-linecap="round" stroke-linejoin="round" stroke-width="4.252">
   <path transform="translate(0 733.46)" d="m-781.38-106.38c8.762 9.9933 24.366 21.122 48.547 26.83l300.63 50.791c4.3303 0.59581 7.0735 1.1478 11.092 0.19537 1.586-0.75467 1.6637-2.0209 1.6717-2.7577-0.26344-1.3442-1.619-1.4433-2.0652-0.42367l-6.7467 19.102c-0.3592 1.6302-0.43903 4.4249 0.16258 6.1506 0.69795 3.8097-3.4596 4.6372-6.7859 4.4172l-289.74-49.464-8.9127-1.6203c-7.0333-1.2732-11.987-4.3214-13.518-7.4604-0.86889-1.8925-1.3542-2.3386-2.2828-0.77322l-5.5966 14.065c-3.6001 9.6645 3.5208 14.728 14.249 16.385l11.93 1.9883c1.6258-0.16901 275.63 47.467 275.63 47.467 4.7612 0.79232 12.548 3.2063 14.233 1.4165 1.5977-0.69351 2.0649-4.2518 2.0863-4.9582-0.23854-1.294-2.3234-0.90172-2.7877 0.06755l-6.9472 16.255c-0.38848 1.5564-0.51922 4.2348 0.0501 5.9011 0.62746 3.6665-3.5396 4.381-6.8574 4.1067l-290.2-49.981-11.656-2.4563c-7.0006-1.3547-8.0803-5.2514-9.5524-8.2906-0.83317-1.8312-1.3097-2.2683-2.2656-0.78486l-6.5788 11.915c-3.7716 9.1991 3.9801 15.655 14.664 17.449l11.877 2.1334 274.15 46.37c4.0334 0.64712 10.208 0.78885 14.238-0.0481 3.4705-1.2713 3.342-5.9645 3.0392-6.5708-0.23854-1.294-1.5904-1.4148-2.0547-0.44554l-6.7932 9.4666c-1.5613 2.6558-1.2522 5.6274-1.4159 10.079-0.69192 4.9859-7.791 4.5276-13.601 3.5203l-282.14-47.957-12.683-2.3096c-7.0006-1.3547-8.9599-9.9426-10.432-12.982-0.83317-1.8312-1.3097-2.2683-2.2656-0.78486l-6.139 7.6636c-3.7716 9.1991 3.6869 18.587 14.371 20.381l14.809 1.547c2.5519-0.0247 272.48 46.667 272.48 46.667 4.6291 1.0256 8.6514 1.3421 11.984 0 6.3466-3.1809 6.9181-9.5725 3.2252-10.189-4.4772-0.71849-5.7065 2.217-7.7697 5.8639-1.9629 4.0258-0.68712 10.05-3.9581 12.314-2.5561 3.0292-11.436 2.912-15.979 1.466l-90.304-15.686-199.96-34.304c-31.338-8.0704-43.108-34.203-41.634-53.948l1.9628-43.711" fill="none" stroke="#ffcc00" stroke-linecap="round" stroke-linejoin="round" stroke-width="4.252"/>
  </g>
 </g>
 <g>
  <g transform="matrix(.54167 0 0 .54167 275.33 -281.61)">
   <path transform="translate(0 733.46)" d="m101.17 204.04 403.97 69.453-6.7379 46.44-404.48-68.416z" fill="#c6d2db" stroke="#000000" stroke-width="1px"/>
   <g>
    <path transform="translate(0 733.46)" d="m101.59 204.04c85.526-7.8757 128.06-217.45 138.25-251.35l404.65 69.283c-22.843 87.425-62.449 245.14-139.45 251.52l-403.45-69.453" fill="url(#linearGradient9201)" stroke="#000000" stroke-width="1px"/>
    <path transform="translate(0 733.46)" d="m498.3 319.93c72.262-4.1046 120.63-124.6 160.98-290.46l-15.049-7.7064c-21.904 94.764-62.267 238.99-139.16 251.65z" fill="#295878" stroke="#000000" stroke-width="1px"/>
    <g fill="none" stroke-linecap="round" stroke-linejoin="round" stroke-miterlimit="7" stroke-width="3.5433">
     <path d="m269.52 665.92 296.05 50.586" stroke="#fc00fb"/>
     <path d="m291.91 891.07 296.05 50.586" stroke="#fc00fb"/>
     <path d="m630.36 842.89-292.74-50.424z" stroke="#7ab51d"/>
     <path d="m543.91 997.96-292.74-50.424z" stroke="#7ab51d"/>
    </g>
   </g>
  </g>
  <path d="m405.97 160.16-1.6676 28.984c-0.0749 4.765 0.42795 7.2799 1.747 10.561 2.0117 5.1465 6.1757 4.2803 10.641-0.87349 14.389-17.797 23.804-36.902 30.156-56.813 1.7321-5.2627 2.6828-6.6685 3.1236-11.842 0.1199-1.094 0.0884-2.1446-0.23019-3.1742-0.21524-0.68099-0.79685-1.3441 1.0858-1.286 4.0994 0.57924 6.9757 1.0119 10.892 1.8257 1.5334 0.37731 2.6523 1.0782 2.891 2.5415 0.47571 2.8228 0.23748 5.9489-1.2014 9.5766 0 0-9.3197 32.419-27.25 55.927-2.3768 3.1876-5.3337 6.4289-8.8054 9.2152-1.014 0.88626-1.9815 0.93027-2.3778-1.3952-0.0872-1.1774-0.0901-2.1305-0.0198-2.8887 0.45312-2.2062 1.829-2.1015 2.7118-1.9651 1.4467 0.22345 3.7537 0.68662 5.1791 0.93572 1.4254 0.24909 2.8933 0.46287 4.4106 0.7346 1.4651 0.26762 2.3825 1.2285 2.2992 4.0088 0.0276 1.6972 0.22506 2.3813 0.45198 2.8887 0.48258 0.9696 0.84593 0.77069 1.9062 0.17686 1.8296-1.1334 3.143-2.4486 4.9626-4.4587 16.197-18.864 29.833-50.074 32.104-67.204 0.12096-1.1036 0.0891-2.1634-0.23222-3.2021-0.2171-0.68699-0.80384-1.3559 1.0954-1.2973 4.1354 0.58431 7.037 1.0208 10.988 1.8418 1.5468 0.38064 2.6756 1.0877 2.9164 2.5639 0.47986 2.8476 0.23958 6.0012-1.2119 9.6608-7.4863 22.021-16.312 40.985-27.444 55.835-2.3675 3.177-5.0465 6.061-8.5182 8.8472-1.014 0.88626-1.9815 0.93027-2.3778-1.3952-0.0872-1.1774-0.09-2.1305-0.0198-2.8887 0.45312-2.2062 1.829-2.1015 2.7118-1.9651 1.4466 0.22347 3.7537 0.68664 5.1791 0.93574 1.4254 0.24909 2.8933 0.46287 4.4106 0.73461 1.4651 0.26762 2.3825 1.2285 2.2992 4.0088 0.0276 1.6972 0.22506 2.3813 0.45197 2.8887 0.48264 0.96961 0.96505 0.96922 1.9062 0.17686 1.631-1.2525 2.865-2.1707 4.7343-4.3421 12.952-15.387 22.437-34.16 29.363-55.6 1.7631-5.4823 2.728-6.9091 3.1754-12.16 0.12172-1.1103 0.0897-2.1766-0.23362-3.2216-0.21846-0.69116-0.80872-1.3642 1.1021-1.3052 4.1605 0.58789 7.0798 1.027 11.055 1.853 1.5563 0.38295 2.6919 1.0943 2.9342 2.5795 0.4828 2.865-2.2333 11.958-2.2333 11.958-6.3854 17.82-12.928 35.585-26.903 53.635-2.319 3.1531-4.9979 6.0371-8.4696 8.8234-1.014 0.88625-1.9816 0.93026-2.3778-1.3952-0.0872-1.1774-0.09-2.1305-0.0201-2.8887 0.4531-2.2062 1.829-2.1015 2.7118-1.9651 1.4467 0.22346 3.7537 0.68664 5.1791 0.93573 1.4254 0.24909 2.8933 0.46287 4.4106 0.73462 1.4651 0.26761 2.3824 1.2285 2.2992 4.0088 0.0276 1.6972 0.22507 2.3813 0.45198 2.8887 0.48258 0.96961 0.96505 0.96922 1.9062 0.17687 1.631-1.2525 3.2621-2.806 4.8932-4.4215 7.6899-8.3584 15.293-16.674 29.423-54.97 1.76-5.4284 2.7248-6.8552 3.1722-12.106 0.12171-1.1103 0.0897-2.1766-0.23363-3.2216-0.21846-0.69116-0.80871-1.3642 1.1021-1.3052 4.1606 0.58788 7.0799 1.027 11.055 1.853 1.5563 0.38295 2.6919 1.0943 2.9342 2.5795 0.4828 2.865 0.0823 5.5613-1.3781 9.2432-6.706 19.368-14.727 40.025-27.585 56.02-2.3704 3.2169-5.0494 6.1009-8.521 8.8872-1.014 0.88624-1.9816 0.93025-2.3778-1.3952-0.0872-1.1774-0.09-2.1305-0.0201-2.8887 0.45316-2.2062 1.829-2.1015 2.7119-1.9651 1.4466 0.22346 3.7537 0.68664 5.1791 0.93574 1.4254 0.24909 2.8933 0.46286 4.4106 0.7346 1.4651 0.26762 2.3825 1.2285 2.2992 4.0088 0.0276 1.6972 0.22505 2.3813 0.45197 2.8887 0.48258 0.96961 0.96505 0.96923 1.9062 0.17687 1.6311-1.2525 3.2621-2.806 4.8932-4.4215 20.873-24.817 25.348-46.195 29.35-55.668 1.7429-5.2555 2.7078-6.6823 3.1551-11.933 0.12172-1.1103 0.0897-2.1766-0.23362-3.2216-0.21841-0.69117-0.80872-1.3642 1.1021-1.3052 4.1606 0.58788 7.0799 1.027 11.055 1.853 1.5562 0.38294 2.6919 1.0943 2.9342 2.5794 0.48284 2.865 0.24109 6.0378-1.2193 9.7197l-0.95036 2.4375c-6.9814 17.247-11.773 34.029-26.847 53.694-2.3189 3.1531-5.3553 6.0371-8.8269 8.8234-1.014 0.88625-1.9816 0.93025-2.3778-1.3952-0.0873-1.1774-0.09-2.1305-0.0201-2.8887 0.45311-2.2062 1.829-2.1015 2.7118-1.9651 1.4466 0.22345 3.7537 0.68663 5.1791 0.93572 1.4254 0.2491 2.8933 0.46287 4.4106 0.73461 1.4651 0.26762 2.3824 1.2285 2.2992 4.0088 0.0276 1.6972 0.22502 2.3813 0.45198 2.8887 0.48257 0.9696 0.96499 0.96921 1.9062 0.17686 1.631-1.2525 3.2621-2.806 4.8931-4.4215 15.722-17.108 23.222-36.454 29.654-55.674 1.7754-5.3615 2.7403-6.7883 3.1876-12.039 0.12171-1.1103 0.0897-2.1766-0.23363-3.2216-0.21845-0.69116-0.80872-1.3642 1.1021-1.3052 4.1606 0.58787 7.0798 1.027 11.055 1.853 1.5563 0.38295 2.692 1.0943 2.9342 2.5795 0.48284 2.865-0.43275 6.8239-1.8931 10.506-11.388 33.882-22.233 52.646-34.971 63.763-2.8458 2.2142-6.0447 2.0907-7.0188-0.61765-2.6589-6.6066-2.0086-12.013-2.0776-16.003" fill="none" stroke="#ffcc00" stroke-width="2.3032"/>
  <path d="m93.403 148.26h-50.248" fill="#000000" stroke="#000000" stroke-linecap="round" stroke-linejoin="round" stroke-width=".70866"/>
  <g transform="matrix(-.00016721 1 -1 -.00016721 190.59 -635)" fill="#000000" stroke="#000000" stroke-linecap="round" stroke-linejoin="round">
   <path d="m754.43 147.85 27.348-0.0293" stroke-width=".63425"/>
   <path d="m782.01 147.64-11.786-3.9285v8.2142z" stroke-width=".99921"/>
  </g>
  <g transform="matrix(.00016721 -1 1 .00016721 -104.92 958.47)" fill="#000000" stroke="#000000" stroke-linecap="round" stroke-linejoin="round">
   <path d="m754.43 147.85 27.348-0.0293" stroke-width=".63425"/>
   <path d="m782.01 147.64-11.786-3.9285v8.2142z" stroke-width=".99921"/>
  </g>
  <path d="m91.443 175.23h-48.248" fill="#000000" stroke="#000000" stroke-linecap="round" stroke-linejoin="round" stroke-width=".70866"/>
  <g transform="matrix(.84326 -.53751 .53751 .84326 -641.73 487.91)" fill="#000000" stroke="#000000" stroke-linecap="round" stroke-linejoin="round">
   <path d="m754.43 147.85 27.348-0.0293" stroke-width=".63425"/>
   <path d="m782.01 147.64-11.786-3.9285v8.2142z" stroke-width=".99921"/>
  </g>
  <g transform="translate(108.14 309.82)">
   <ellipse cx="-44.92" cy="-98.798" rx="13.199" ry="13.469" fill="#1f638a" stroke-linecap="round" stroke-linejoin="round" stroke-width="1.0658"/>
   <text x="-51.39423" y="-91.055557" fill="#000000" font-family="'Arial Nova', 'Arial Unicode MS', 'Yu Gothic UI', sans-serif" font-size="12.8px" letter-spacing="0px" stroke-width="1.0667" word-spacing="0px" style="line-height:0%" xml:space="preserve"><tspan x="-51.39423" y="-91.055557" fill="#ffffff" font-family="'Arial Nova', 'Arial Unicode MS', 'Yu Gothic UI', sans-serif" font-size="21.333px" stroke="#ffffff" stroke-width="1.0667" style="line-height:1.25">1</tspan></text>
  </g>
  <g transform="translate(40.035 260.82)">
   <ellipse cx="-13.718" cy="-98.798" rx="13.199" ry="13.469" fill="#1f638a" stroke-linecap="round" stroke-linejoin="round" stroke-width="1.0658"/>
   <text x="-19.559933" y="-91.125885" fill="#000000" font-family="'Arial Nova', 'Arial Unicode MS', 'Yu Gothic UI', sans-serif" font-size="12.8px" letter-spacing="0px" stroke-width="1.0667" word-spacing="0px" style="line-height:0%" xml:space="preserve"><tspan x="-19.559933" y="-91.125885" fill="#ffffff" font-family="'Arial Nova', 'Arial Unicode MS', 'Yu Gothic UI', sans-serif" font-size="21.333px" stroke="#ffffff" stroke-width="1.0667" style="line-height:1.25">2</tspan></text>
  </g>
  <g transform="translate(246.85 141.63)">
   <ellipse cx="-44.92" cy="-98.798" rx="13.199" ry="13.469" fill="#1f638a" stroke-linecap="round" stroke-linejoin="round" stroke-width="1.0658"/>
   <text x="-51.953754" y="-91.710579" fill="#000000" font-family="'Arial Nova', 'Arial Unicode MS', 'Yu Gothic UI', sans-serif" font-size="12.8px" letter-spacing="0px" stroke-width="1.0667" word-spacing="0px" style="line-height:0%" xml:space="preserve"><tspan x="-51.953754" y="-91.710579" fill="#ffffff" font-family="'Arial Nova', 'Arial Unicode MS', 'Yu Gothic UI', sans-serif" font-size="21.333px" stroke="#ffffff" stroke-width="1.0667" style="line-height:1.25">A</tspan></text>
  </g>
  <g transform="translate(539 140.92)">
   <ellipse cx="-44.92" cy="-98.798" rx="13.199" ry="13.469" fill="#1f638a" stroke-linecap="round" stroke-linejoin="round" stroke-width="1.0658"/>
   <text x="-51.566948" y="-91.358932" fill="#000000" font-family="'Arial Nova', 'Arial Unicode MS', 'Yu Gothic UI', sans-serif" font-size="12.8px" letter-spacing="0px" stroke-width="1.0667" word-spacing="0px" style="line-height:0%" xml:space="preserve"><tspan x="-51.566948" y="-91.358932" fill="#ffffff" font-family="'Arial Nova', 'Arial Unicode MS', 'Yu Gothic UI', sans-serif" font-size="21.333px" stroke="#ffffff" stroke-width="1.0667" style="line-height:1.25">B</tspan></text>
  </g>
 </g>
</svg>
