<?xml version="1.0" encoding="UTF-8" standalone="no"?>
<!-- Created with Inkscape (http://www.inkscape.org/) -->

<svg
   width="637.79529"
   height="283.46457"
   id="svg4253"
   version="1.1"
   inkscape:version="1.2.2 (732a01da63, 2022-12-09)"
   sodipodi:docname="3D_iso_bearbeitung_globale_ausrichtung2.svg"
   inkscape:export-filename="D:\_data\Dokumentation\hyperMILL\trunk\Grafiken\hm\models\3D_iso_bearbeitung_globale_ausrichtung3.png"
   inkscape:export-xdpi="200"
   inkscape:export-ydpi="200"
   xmlns:inkscape="http://www.inkscape.org/namespaces/inkscape"
   xmlns:sodipodi="http://sodipodi.sourceforge.net/DTD/sodipodi-0.dtd"
   xmlns:xlink="http://www.w3.org/1999/xlink"
   xmlns="http://www.w3.org/2000/svg"
   xmlns:svg="http://www.w3.org/2000/svg"
   xmlns:rdf="http://www.w3.org/1999/02/22-rdf-syntax-ns#"
   xmlns:cc="http://creativecommons.org/ns#"
   xmlns:dc="http://purl.org/dc/elements/1.1/">
  <title
     id="title2986">Abbildung für OPEN MIND Softwaredokumentation</title>
  <defs
     id="defs4255">
    <linearGradient
       id="SVGID_1_"
       gradientUnits="userSpaceOnUse"
       x1="343.35989"
       y1="79.807098"
       x2="330.49521"
       y2="115.1524">
      <stop
         offset="0"
         style="stop-color:#99B2CC"
         id="stop247" />
      <stop
         offset="0.5055"
         style="stop-color:#D2DADD"
         id="stop249" />
      <stop
         offset="1"
         style="stop-color:#99B2CC"
         id="stop251" />
    </linearGradient>
    <linearGradient
       id="SVGID_2_"
       gradientUnits="userSpaceOnUse"
       x1="125.5581"
       y1="82.424301"
       x2="112.6936"
       y2="117.7692">
      <stop
         offset="0"
         style="stop-color:#99B2CC"
         id="stop264" />
      <stop
         offset="0.5055"
         style="stop-color:#D2DADD"
         id="stop266" />
      <stop
         offset="1"
         style="stop-color:#99B2CC"
         id="stop268" />
    </linearGradient>
    <linearGradient
       y2="115.1524"
       x2="330.49521"
       y1="79.807098"
       x1="343.35989"
       gradientUnits="userSpaceOnUse"
       id="linearGradient3338">
      <stop
         id="stop3340"
         style="stop-color:#99B2CC"
         offset="0" />
      <stop
         id="stop3342"
         style="stop-color:#D2DADD"
         offset="0.5055" />
      <stop
         id="stop3344"
         style="stop-color:#99B2CC"
         offset="1" />
    </linearGradient>
    <linearGradient
       y2="117.7692"
       x2="112.6936"
       y1="82.424301"
       x1="125.5581"
       gradientUnits="userSpaceOnUse"
       id="linearGradient3351">
      <stop
         id="stop3353"
         style="stop-color:#99B2CC"
         offset="0" />
      <stop
         id="stop3355"
         style="stop-color:#D2DADD"
         offset="0.5055" />
      <stop
         id="stop3357"
         style="stop-color:#99B2CC"
         offset="1" />
    </linearGradient>
    <linearGradient
       inkscape:collect="always"
       xlink:href="#SVGID_2_"
       id="linearGradient3542"
       gradientUnits="userSpaceOnUse"
       x1="125.5581"
       y1="82.424301"
       x2="112.6936"
       y2="117.7692"
       gradientTransform="translate(0,869.9592)" />
    <linearGradient
       inkscape:collect="always"
       xlink:href="#SVGID_1_"
       id="linearGradient3549"
       gradientUnits="userSpaceOnUse"
       x1="343.35989"
       y1="79.807098"
       x2="330.49521"
       y2="115.1524"
       gradientTransform="translate(0,869.9592)" />
    <linearGradient
       inkscape:collect="always"
       xlink:href="#SVGID_1_"
       id="linearGradient4912"
       gradientUnits="userSpaceOnUse"
       gradientTransform="translate(0,869.9592)"
       x1="343.35989"
       y1="79.807098"
       x2="330.49521"
       y2="115.1524" />
    <linearGradient
       inkscape:collect="always"
       xlink:href="#SVGID_2_"
       id="linearGradient4914"
       gradientUnits="userSpaceOnUse"
       gradientTransform="translate(0,869.9592)"
       x1="125.5581"
       y1="82.424301"
       x2="112.6936"
       y2="117.7692" />
    <linearGradient
       inkscape:collect="always"
       xlink:href="#SVGID_1_"
       id="linearGradient4961"
       gradientUnits="userSpaceOnUse"
       gradientTransform="translate(0,869.9592)"
       x1="343.35989"
       y1="79.807098"
       x2="330.49521"
       y2="115.1524" />
    <linearGradient
       inkscape:collect="always"
       xlink:href="#SVGID_2_"
       id="linearGradient4963"
       gradientUnits="userSpaceOnUse"
       gradientTransform="translate(0,869.9592)"
       x1="125.5581"
       y1="82.424301"
       x2="112.6936"
       y2="117.7692" />
    <linearGradient
       inkscape:collect="always"
       xlink:href="#linearGradient17780-7"
       id="linearGradient4996"
       gradientUnits="userSpaceOnUse"
       gradientTransform="matrix(1.2714045,0,0,1.2714045,14.0846,807.08605)"
       x1="26.398916"
       y1="45.064045"
       x2="334.32703"
       y2="224.23189" />
    <linearGradient
       inkscape:collect="always"
       xlink:href="#SVGID_1_"
       id="linearGradient5003"
       gradientUnits="userSpaceOnUse"
       gradientTransform="matrix(1.2714045,0,0,1.2714045,-20.260587,752.53781)"
       x1="343.35989"
       y1="79.807098"
       x2="330.49521"
       y2="115.1524" />
    <linearGradient
       inkscape:collect="always"
       xlink:href="#linearGradient17780-7"
       id="linearGradient5184"
       gradientUnits="userSpaceOnUse"
       gradientTransform="matrix(1.2714045,0,0,1.2714045,72.0846,807.08605)"
       x1="233.52635"
       y1="57.896572"
       x2="622.07379"
       y2="246.05376" />
    <linearGradient
       inkscape:collect="always"
       xlink:href="#linearGradient17780-7"
       id="linearGradient7103"
       gradientUnits="userSpaceOnUse"
       gradientTransform="translate(161.06113,115.1603)"
       x1="186.3752"
       y1="20.21563"
       x2="183.6095"
       y2="155.32921" />
    <linearGradient
       id="linearGradient17780-7">
      <stop
         id="stop17782-4"
         offset="0"
         style="stop-color:#ffffff;stop-opacity:1;" />
      <stop
         id="stop17784-0"
         offset="1"
         style="stop-color:#00385e;stop-opacity:1;" />
    </linearGradient>
    <linearGradient
       y2="155.32921"
       x2="183.6095"
       y1="20.21563"
       x1="186.3752"
       gradientTransform="translate(-73.410288,723.84759)"
       gradientUnits="userSpaceOnUse"
       id="linearGradient24782"
       xlink:href="#linearGradient17780-7"
       inkscape:collect="always" />
  </defs>
  <sodipodi:namedview
     id="base"
     pagecolor="#ffffff"
     bordercolor="#666666"
     borderopacity="1.0"
     inkscape:pageopacity="0.0"
     inkscape:pageshadow="2"
     inkscape:zoom="1.4"
     inkscape:cx="417.14286"
     inkscape:cy="83.571429"
     inkscape:document-units="mm"
     inkscape:current-layer="layer1"
     showgrid="false"
     width="180px"
     units="mm"
     inkscape:window-width="1920"
     inkscape:window-height="1017"
     inkscape:window-x="1912"
     inkscape:window-y="-8"
     inkscape:window-maximized="1"
     showguides="true"
     inkscape:guide-bbox="true"
     inkscape:snap-global="false"
     inkscape:showpageshadow="2"
     inkscape:pagecheckerboard="0"
     inkscape:deskcolor="#d1d1d1">
    <sodipodi:guide
       orientation="1,0"
       position="125.25892,280.82241"
       id="guide2982"
       inkscape:locked="false" />
    <sodipodi:guide
       orientation="0,1"
       position="-22.539029,17.740804"
       id="guide2986"
       inkscape:locked="false" />
    <sodipodi:guide
       orientation="1,0"
       position="445.35714,240"
       id="guide2985"
       inkscape:locked="false" />
    <sodipodi:guide
       orientation="1,0"
       position="620.07583,270.72088"
       id="guide2987"
       inkscape:locked="false" />
    <sodipodi:guide
       orientation="0,1"
       position="450,235.71429"
       id="guide11516"
       inkscape:locked="false" />
  </sodipodi:namedview>
  <metadata
     id="metadata4258">
    <rdf:RDF>
      <cc:Work
         rdf:about="">
        <dc:format>image/svg+xml</dc:format>
        <dc:type
           rdf:resource="http://purl.org/dc/dcmitype/StillImage" />
        <dc:title>Abbildung für OPEN MIND Softwaredokumentation</dc:title>
        <dc:creator>
          <cc:Agent>
            <dc:title>OPEN MIND Technologies AG</dc:title>
          </cc:Agent>
        </dc:creator>
        <dc:rights>
          <cc:Agent>
            <dc:title>Alle Rechte vorbehalten.</dc:title>
          </cc:Agent>
        </dc:rights>
        <dc:publisher>
          <cc:Agent>
            <dc:title>Technische Redaktion</dc:title>
          </cc:Agent>
        </dc:publisher>
      </cc:Work>
    </rdf:RDF>
  </metadata>
  <g
     inkscape:label="Ebene 1"
     inkscape:groupmode="layer"
     id="layer1"
     transform="translate(0,-768.89767)">
    <path
       id="path270"
       d="m 36.673644,947.40461 c -2.302514,-51.98646 30.952342,-96.79965 64.737376,-132.79439 3.56502,22.54073 19.17151,43.38795 38.92914,61.21304 3.66625,3.20661 6.4254,6.89545 10.51404,8.81163 4.35183,3.84618 8.8952,6.84936 13.98463,10.6008 4.86439,3.34507 10.07963,6.3571 16.30795,10.16576 4.6698,2.85946 10.73484,4.59208 15.67043,6.81831 26.35495,11.88763 51.87585,18.09972 73.90675,16.92621 l 0,84.10343 c -41.89532,0 -82.16452,-6.3049 -117.99015,-29.77632 -15.60141,-10.22082 -34.24783,-28.04337 -52.03605,-33.70239 -17.451298,-5.55476 -47.09028,-12.96705 -64.024116,-2.36608"
       inkscape:connector-curvature="0"
       style="fill:url(#linearGradient4996);fill-opacity:1;stroke:#4d4d4d;stroke-width:0.63425195;stroke-miterlimit:4;stroke-opacity:1;stroke-dasharray:none"
       sodipodi:nodetypes="ccccccsccccc" />
    <g
       id="g276"
       transform="matrix(1.2714045,0,0,1.2714045,14.0846,807.08605)" />
    <path
       id="path281"
       d="M 128.3282,912.33816 C 110.11787,894.60588 81.2649,879.85142 57.33961,871.32157"
       inkscape:connector-curvature="0"
       style="fill:none;stroke:#4d4d4d;stroke-width:0.25966173"
       sodipodi:nodetypes="cc" />
    <path
       id="path283"
       d="m 120.30791,854.79551 c -8.12606,16.55599 -19.72933,28.21594 -29.525834,42.12163 -10.593342,15.48316 -16.024782,26.92707 -17.92426,46.23335"
       inkscape:connector-curvature="0"
       style="fill:none;stroke:#4d4d4d;stroke-width:0.25966173"
       sodipodi:nodetypes="ccc" />
    <path
       id="path285"
       d="m 151.18954,883.71484 c -11.65751,21.933 -43.78176,42.66907 -42.4684,70.01952"
       inkscape:connector-curvature="0"
       style="fill:none;stroke:#4d4d4d;stroke-width:0.25966173"
       sodipodi:nodetypes="cc" />
    <path
       id="path287"
       d="m 173.85523,899.75787 c -25.94531,11.15236 -47.74514,43.65879 -47.18929,65.94044"
       inkscape:connector-curvature="0"
       style="fill:none;stroke:#4d4d4d;stroke-width:0.25966173"
       sodipodi:nodetypes="cc" />
    <path
       id="path289"
       d="m 201.03062,914.27526 c -25.60482,17.25423 -43.36758,38.51248 -47.77935,69.38853"
       inkscape:connector-curvature="0"
       style="fill:none;stroke:#4d4d4d;stroke-width:0.25966173"
       sodipodi:nodetypes="cc" />
    <path
       id="path291"
       d="m 233.64345,927.95975 c -13.00647,25.59337 -19.37239,51.27066 -20.88918,80.07565"
       inkscape:connector-curvature="0"
       style="fill:none;stroke:#4d4d4d;stroke-width:0.25966173" />
    <path
       id="path293"
       d="m 169.90408,940.9914 c 12.66064,8.86169 33.1263,16.3666 46.65023,18.67675 18.3629,3.13528 35.12909,4.37533 54.11879,2.158"
       inkscape:connector-curvature="0"
       style="fill:none;stroke:#4d4d4d;stroke-width:0.25966173"
       sodipodi:nodetypes="ccc" />
    <path
       id="path295"
       d="m 128.93566,912.24519 c 10.76498,11.73633 28.02811,19.23762 40.7358,28.75663"
       inkscape:connector-curvature="0"
       style="fill:none;stroke:#4d4d4d;stroke-width:0.25966173" />
    <line
       id="line322"
       y2="809.65936"
       x2="266.97205"
       y1="871.69238"
       x1="266.97205"
       style="fill:none;stroke:#e2001a;stroke-width:2.83464575;stroke-linecap:round;stroke-linejoin:round;stroke-miterlimit:4;stroke-dasharray:none" />
    <path
       sodipodi:nodetypes="ccccccccccccccccccccccccc"
       id="path314"
       d="m 124.28604,806.89032 c -3.61079,9.09817 -10.19158,16.3884 -17.72338,22.73271 -36.681283,32.11568 -64.564455,83.1829 -66.657187,132.1574 l 11.174374,-2.3114 c 3.542133,-44.4381 24.722501,-91.35065 58.905483,-120.27002 2.22386,2.19946 6.5896,7.70459 6.86887,10.62864 -27.017345,29.45463 -52.464019,68.10458 -53.059037,109.25488 l 11.174374,0.3865 c 2.696649,-40.8426 26.169773,-67.9246 50.238723,-98.58065 4.18674,2.41185 7.27325,6.38221 10.25216,10.34645 -21.56048,25.5768 -48.577822,54.3831 -49.31778,89.7739 l 8.86169,5.008 c 4.624095,-37.3742 27.59066,-57.7696 49.25158,-86.54148 4.85421,1.96566 8.53287,5.07438 11.53151,8.15738 -21.28331,24.3576 -50.15415,48.9778 -50.7657,83.7787 l 9.24693,5.7785 c 1.0578,-32.2352 26.52444,-63.4318 49.75046,-83.6001 1.77944,0.7854 6.9789,4.3812 10.04548,7.2365 -26.03963,21.8224 -48.40543,48.5453 -50.16378,84.0696 l 10.0174,5.7798 c 2.70046,-34.9191 22.38299,-65.779 51.56426,-84.0796 3.63228,0.7918 7.78235,2.8407 10.0836,5.4788 -30.86335,19.5339 -47.18437,48.9135 -52.01443,84.7659 l 11.55834,7.70587 c 0.99932,-35.35897 21.87324,-68.64437 50.08825,-89.00337"
       inkscape:connector-curvature="0"
       style="fill:none;stroke:#ffcc00;stroke-width:2.83464567;stroke-linecap:round;stroke-linejoin:round;stroke-miterlimit:4;stroke-opacity:1;stroke-dasharray:none" />
    <g
       style="stroke:#ffcc00;stroke-width:2.83464575;stroke-linecap:round;stroke-linejoin:round;stroke-miterlimit:4;stroke-opacity:1;stroke-dasharray:none"
       id="g5186"
       transform="translate(34.092646,54.548241)">
      <path
         style="fill:none;stroke:#ffcc00;stroke-width:2.83464575;stroke-linecap:round;stroke-linejoin:round;stroke-miterlimit:4;stroke-opacity:1;stroke-dasharray:none"
         inkscape:connector-curvature="0"
         d="m 178.1815,864.12136 c -27.56787,22.57251 -42.04662,58.01037 -45.30269,92.92949 l 12.71405,4.6241 c 5.55349,-31.5054 13.52139,-73.57109 39.86743,-95.16971"
         id="path316" />
      <path
         style="fill:none;stroke:#ffcc00;stroke-width:2.83464575;stroke-linecap:round;stroke-linejoin:round;stroke-miterlimit:4;stroke-opacity:1;stroke-dasharray:none"
         inkscape:connector-curvature="0"
         d="m 192.74162,868.88658 c -23.74475,23.9914 -29.1978,65.95157 -32.506,97.79643 l 15.79721,3.4684 c 1.02602,-34.34191 7.70216,-68.78807 24.65126,-99.14667"
         id="path318" />
      <path
         style="fill:none;stroke:#ffcc00;stroke-width:2.83464575;stroke-linecap:round;stroke-linejoin:round;stroke-miterlimit:4;stroke-opacity:1;stroke-dasharray:none"
         inkscape:connector-curvature="0"
         d="m 207.03602,872.32827 c -7.79752,32.00888 -17.13344,67.38317 -15.5925,100.90375 l 14.25626,1.54221 c 1.1557,-36.2185 5.54332,-67.79764 10.60097,-100.85797"
         id="path320" />
      <polyline
         transform="matrix(1.2714045,0,0,1.2714045,-20.260587,752.53781)"
         style="fill:none;stroke:#ffcc00;stroke-width:2.22953892;stroke-linecap:round;stroke-linejoin:round;stroke-miterlimit:4;stroke-opacity:1;stroke-dasharray:none"
         points="193.248,96.197 192.878,105.095 191.666,137.521    190.757,174.796 201.9,175.041 201.631,97.787 198.904,50.815  "
         id="polyline324" />
    </g>
    <path
       id="path253"
       d="m 371.58682,944.07734 c -2.30252,-51.98773 30.95361,-96.80092 64.73737,-132.79438 3.56502,22.54073 21.13329,42.85142 40.89091,60.67523 1.78887,1.61596 2.41059,2.14614 4.58215,3.05392 2.61273,1.09213 3.96678,3.24717 6.5401,4.43084 5.61452,2.5835 9.7059,6.28201 14.79533,9.78092 4.8644,3.34506 10.42044,6.47908 15.45393,9.56605 4.8415,2.96872 8.42305,7.14529 13.35864,9.37152 26.35495,11.8889 51.66225,18.83204 73.69442,17.65726 v 84.1034 c -41.89532,0 -82.16578,-6.3061 -117.99142,-29.77755 -15.60141,-10.21955 -34.24782,-28.0421 -52.03604,-33.70239 -17.4513,-5.5535 -47.09156,-12.96579 -64.02539,-2.36482"
       inkscape:connector-curvature="0"
       style="fill:url(#linearGradient5184);fill-opacity:1;stroke:#4d4d4d;stroke-width:0.63425195;stroke-linecap:round;stroke-linejoin:round;stroke-miterlimit:4;stroke-dasharray:none" />
    <path
       id="path297"
       d="M 464.11088,909.48691 C 436.08039,892.6475 413.77051,880.87204 394.3095,868.59219"
       inkscape:connector-curvature="0"
       style="fill:none;stroke:#4d4d4d;stroke-width:0.25966173"
       sodipodi:nodetypes="cc" />
    <path
       id="path299"
       d="m 455.88729,851.46824 c -4.01763,15.8417 -20.62091,29.10881 -29.52582,42.12163 -10.59335,15.48317 -16.02479,26.92581 -17.92426,46.23335"
       inkscape:connector-curvature="0"
       style="fill:none;stroke:#4d4d4d;stroke-width:0.25966173" />
    <path
       id="path301"
       d="m 487.54908,879.19249 c -11.65751,21.933 -44.0262,44.04018 -42.71283,71.3919"
       inkscape:connector-curvature="0"
       style="fill:none;stroke:#4d4d4d;stroke-width:0.25966173" />
    <path
       id="path303"
       d="m 511.93589,893.93061 c -25.23229,8.11664 -46.138,45.62181 -44.86787,70.58329"
       inkscape:connector-curvature="0"
       style="fill:none;stroke:#4d4d4d;stroke-width:0.25966173" />
    <path
       id="path305"
       d="m 535.03604,909.6261 c -25.60482,17.25423 -41.55967,40.46244 -45.97145,71.3385"
       inkscape:connector-curvature="0"
       style="fill:none;stroke:#4d4d4d;stroke-width:0.25966173" />
    <path
       id="path307"
       d="m 571.31557,922.213 c -13.00647,25.59464 -21.4664,53.68887 -22.98191,82.4938"
       inkscape:connector-curvature="0"
       style="fill:none;stroke:#4d4d4d;stroke-width:0.25966173" />
    <path
       id="path309"
       d="m 508.01742,934.53164 c 12.66065,8.86296 50.67085,18.95608 50.67085,18.95608 0,0 14.03011,4.98974 46.55091,4.92598"
       inkscape:connector-curvature="0"
       style="fill:none;stroke:#4d4d4d;stroke-width:0.25966173"
       sodipodi:nodetypes="ccc" />
    <path
       id="path311"
       d="m 463.62218,909.60157 c 14.67689,9.38972 29.11351,17.56889 44.31992,24.78599"
       inkscape:connector-curvature="0"
       style="fill:none;stroke:#4d4d4d;stroke-width:0.25966173"
       sodipodi:nodetypes="cc" />
    <g
       id="g4505"
       transform="translate(-0.02166484,0.65300632)">
      <path
         style="fill:none;stroke:#ffcc00;stroke-width:2.83464575;stroke-miterlimit:4;stroke-opacity:1;stroke-dasharray:none"
         inkscape:connector-curvature="0"
         d="m 604.81764,924.93994 c -23.81924,1.08012 -31.52862,0.81171 -74.42497,-18.7774 -36.84576,-22.92078 -82.96469,-49.16778 -86.22112,-85.05247 -3.93939,7.50665 -7.02712,10.97278 -10.00875,16.40705 7.39576,12.39874 14.32365,22.57251 25.61753,31.80164 11.22396,9.16937 23.82612,16.45452 36.21723,23.85028 25.45479,15.19201 47.99679,29.44572 78.03118,32.68526 11.64416,0.94571 21.39792,0.001 32.09534,0 l 0,-12.36822"
         id="path329"
         sodipodi:nodetypes="ccccccccc" />
      <path
         style="fill:none;stroke:#ffcc00;stroke-width:2.83464575;stroke-miterlimit:4;stroke-opacity:1;stroke-dasharray:none"
         inkscape:connector-curvature="0"
         d="m 604.40052,926.01712 -0.0851,10.43688 -32.64258,-0.29369 c -34.45252,-3.53324 -52.35898,-18.02852 -77.74511,-32.83784 -12.95816,-7.55977 -26.57236,-13.92442 -39.15418,-22.07921 -12.58817,-8.15987 -22.84205,-19.14862 -33.56762,-29.59321 -4.64317,5.66029 -8.63411,11.62318 -13.54427,17.07878 5.18224,5.02332 12.31482,6.89864 18.40994,10.50561 7.41737,4.38762 14.75083,8.95323 22.32077,13.07386 15.0636,8.19928 29.39488,18.19888 44.73946,25.71924 14.25498,6.98764 27.641,15.90681 42.68613,21.50835 13.86084,5.16061 19.89402,6.74709 42.11746,9.79014 l 26.04362,1.76828 0.12627,16.36462 -30.58163,-2.27284 c -39.67096,-3.61616 -60.95429,-18.87042 -90.71405,-35.67457 -27.49031,-15.52258 -55.25939,-35.3724 -86.63257,-41.64424 l -8.24506,17.37247 c 5.59418,0.58866 17.83527,3.15436 21.84528,3.95661 7.80006,1.56001 15.37509,5.43144 22.79755,8.25396 14.6237,5.56112 28.66763,14.18506 42.32124,21.77153 31.15861,21.44554 53.41494,32.96574 83.94487,36.09951 l 45.51538,4.67196 -0.12627,14.13394 -46.5286,-5.55584 c -45.89342,-9.25752 -52.38575,-14.90595 -82.90455,-32.68527 -14.02995,-8.17386 -27.93275,-16.83085 -42.99,-22.96665 -17.57335,-7.16055 -30.80613,-8.87568 -49.76404,-9.12869 -2.46398,5.29413 -5.28269,12.03893 -4.12189,17.96241 17.38645,-2.85431 34.31012,-2.68394 50.74556,3.25098 15.34331,4.7819 29.27663,12.57843 43.06629,21.03073 30.60953,21.44133 44.6905,26.84554 89.61582,36.29427 l 43.12255,4.244 0.0836,11.5351 -33.41764,-1.4286 c -27.92422,-2.0714 -34.85765,-6.6521 -52.28352,-12.0594 -15.1615,-4.70541 -30.94068,-13.86308 -43.79607,-23.18805 -30.90163,-22.41524 -60.16403,-42.71128 -100.33496,-30.26126 l 0.16947,10.18587 c 18.65786,-2.66995 34.82928,-6.64803 52.88831,1.52328 18.98843,8.59216 36.10535,20.62981 52.86373,33.01329 32.72595,24.18467 71.88903,29.78007 112.52311,31.54737 l 12.74448,-0.1641"
         id="path333"
         sodipodi:nodetypes="ccccccccccsccccscccccsccccccccccccccscccccc" />
    </g>
    <polyline
       id="polyline331"
       points="423.051,172.889 424.208,172.852 424.208,0.542  "
       style="fill:none;stroke:#e2001a;stroke-width:2.22953892;stroke-linejoin:round;stroke-miterlimit:4;stroke-dasharray:none"
       transform="matrix(1.2714045,0,0,1.2714045,66.684129,808.51462)" />
    <path
       style="fill:none;stroke:#ffcc00;stroke-width:2.83464575;stroke-linecap:round;stroke-linejoin:round;stroke-miterlimit:4;stroke-opacity:1;stroke-dasharray:none"
       d="m 205.62918,146.36793 c 3.24216,0.44372 4.88995,1.96088 6.65264,3.33901"
       id="path3729"
       inkscape:connector-curvature="0"
       transform="translate(0,768.89767)"
       sodipodi:nodetypes="cc" />
    <path
       style="fill:none;stroke:#ffcc00;stroke-width:2.83464575;stroke-linecap:round;stroke-linejoin:round;stroke-miterlimit:4;stroke-opacity:1;stroke-dasharray:none"
       d="m 219.61348,152.14473 c 2.51116,0.41692 4.96834,1.03179 7.22891,2.36755"
       id="path3731"
       inkscape:connector-curvature="0"
       transform="translate(0,768.89767)"
       sodipodi:nodetypes="cc" />
    <path
       style="fill:none;stroke:#ffcc00;stroke-width:2.83464575;stroke-linecap:round;stroke-linejoin:round;stroke-miterlimit:4;stroke-opacity:1;stroke-dasharray:none"
       d="m 234.8289,156.62729 c 2.1872,0.13665 4.41848,0.11905 6.28189,1.38896"
       id="path3733"
       inkscape:connector-curvature="0"
       transform="translate(0,768.89767)"
       sodipodi:nodetypes="cc" />
    <path
       style="fill:none;stroke:#ffcc00;stroke-width:2.83464575;stroke-linecap:round;stroke-linejoin:round;stroke-miterlimit:4;stroke-opacity:1;stroke-dasharray:none"
       d="m 250.35999,159.46834 c 3.00803,-0.2353 6.03153,-0.19235 9.12294,1.07329"
       id="path3735"
       inkscape:connector-curvature="0"
       transform="translate(0,768.89767)"
       sodipodi:nodetypes="cc" />
    <g
       transform="translate(229.6846,900.66063)"
       id="g4349"
       style="display:inline">
      <ellipse
         cx="-44.919998"
         cy="-98.797997"
         rx="13.199"
         ry="13.469"
         fill="#1f638a"
         stroke-linecap="round"
         stroke-linejoin="round"
         stroke-width="1.0658"
         id="ellipse4343" />
      <text
         x="-51.39423"
         y="-91.055557"
         fill="#000000"
         font-family="'Arial Nova', 'Arial Unicode MS', 'Yu Gothic UI', sans-serif"
         font-size="12.8px"
         letter-spacing="0px"
         stroke-width="1.0667"
         word-spacing="0px"
         style="line-height:0%"
         xml:space="preserve"
         id="text4347"><tspan
           x="-51.39423"
           y="-91.055557"
           fill="#ffffff"
           font-family="'Arial Nova', 'Arial Unicode MS', 'Yu Gothic UI', sans-serif"
           font-size="21.333px"
           stroke="#ffffff"
           stroke-width="1.0667"
           style="line-height:1.25"
           id="tspan4345">1</tspan></text>
    </g>
    <g
       transform="translate(513.95341,901.15927)"
       id="g4357"
       style="display:inline">
      <ellipse
         cx="-13.718"
         cy="-98.797997"
         rx="13.199"
         ry="13.469"
         fill="#1f638a"
         stroke-linecap="round"
         stroke-linejoin="round"
         stroke-width="1.0658"
         id="ellipse4351" />
      <text
         x="-19.559933"
         y="-91.125885"
         fill="#000000"
         font-family="'Arial Nova', 'Arial Unicode MS', 'Yu Gothic UI', sans-serif"
         font-size="12.8px"
         letter-spacing="0px"
         stroke-width="1.0667"
         word-spacing="0px"
         style="line-height:0%"
         xml:space="preserve"
         id="text4355"><tspan
           x="-19.559933"
           y="-91.125885"
           fill="#ffffff"
           font-family="'Arial Nova', 'Arial Unicode MS', 'Yu Gothic UI', sans-serif"
           font-size="21.333px"
           stroke="#ffffff"
           stroke-width="1.0667"
           style="line-height:1.25"
           id="tspan4353">2</tspan></text>
    </g>
  </g>
</svg>
