<svg version="1.1" viewBox="0 0 460.63 194.88" xmlns="http://www.w3.org/2000/svg" xmlns:xlink="http://www.w3.org/1999/xlink">
 <title>Abbildung für OPEN MIND Softwaredokumentation</title>
 <defs>
  <linearGradient id="linearGradient18908" x1="103.19" x2="335.14" y1="44.022" y2="93.721" gradientUnits="userSpaceOnUse">
   <stop stop-color="#ffffff" offset="0"/>
   <stop stop-color="#00385e" offset="1"/>
  </linearGradient>
  <linearGradient id="linearGradient3995" x1="42.862" x2="762.65" y1="969.51" y2="973.92" gradientTransform="matrix(.37426 0 0 1.2723 87.814 -266.02)" gradientUnits="userSpaceOnUse">
   <stop stop-color="#ffffff" offset="0"/>
   <stop stop-color="#00385e" offset="1"/>
  </linearGradient>
  <linearGradient id="linearGradient4030" x1="144.26" x2="362.12" y1="49.468" y2="49.468" gradientTransform="matrix(1.7247 0 0 1.7247 -204.49 881.91)" gradientUnits="userSpaceOnUse">
   <stop stop-color="#ffffff" offset="0"/>
   <stop stop-color="#ffffff" stop-opacity="0" offset="1"/>
  </linearGradient>
  <linearGradient id="linearGradient4030-4" x1="144.26" x2="362.12" y1="49.468" y2="49.468" gradientTransform="matrix(1.7247 0 0 1.7247 -1.1747 882.87)" gradientUnits="userSpaceOnUse">
   <stop stop-color="#ffffff" offset="0"/>
   <stop stop-color="#ffffff" stop-opacity="0" offset="1"/>
  </linearGradient>
  <linearGradient id="linearGradient13147" x1="42.862" x2="762.65" y1="969.51" y2="973.92" gradientTransform="matrix(.37429 0 0 1.2658 291.13 -258.94)" gradientUnits="userSpaceOnUse">
   <stop stop-color="#ffffff" offset="0"/>
   <stop stop-color="#00385e" offset="1"/>
  </linearGradient>
 </defs>
 <g transform="translate(0 -857.48)">
  <g fill-rule="evenodd">
   <path transform="matrix(1.7247 0 0 1.7247 -204.49 881.91)" d="m231.83 87.999h-106.51v-78.843h106.51z" clip-rule="evenodd" fill="url(#linearGradient18908)" stroke="#4d4d4d" stroke-linecap="round" stroke-linejoin="round" stroke-miterlimit="10" stroke-width=".36776"/>
   <path d="m44.524 924.02h115.3v86.409h-115.3v-86.409z" fill="url(#linearGradient4030)" stroke="#4d4d4d" stroke-miterlimit="10" stroke-width=".43116"/>
   <rect x="104.25" y="924.48" width="57.632" height="86.058" clip-rule="evenodd" fill="url(#linearGradient3995)" stroke="#800080" stroke-linecap="round" stroke-linejoin="round" stroke-width="1.532"/>
  </g>
  <g stroke-linecap="round" stroke-linejoin="round">
   <rect x="104.39" y="934.06" width="47.641" height="66.472" clip-rule="evenodd" fill="none" stroke="#d4aa00" stroke-dasharray="3.31749571, 3.31749571" stroke-width="1.6587"/>
   <path transform="matrix(.93628 0 0 .93614 -36.459 860.75)" d="m159.64 110.77c0 5.1777-4.1973 9.375-9.375 9.375s-9.375-4.1973-9.375-9.375 4.1973-9.375 9.375-9.375 9.375 4.1973 9.375 9.375z" color="#000000" fill="#b3b3b3" fill-rule="evenodd" stroke="#000000" stroke-width=".53524"/>
   <path transform="matrix(.93628 0 0 .93614 11.012 877.85)" d="m159.64 110.77c0 5.1777-4.1973 9.375-9.375 9.375s-9.375-4.1973-9.375-9.375 4.1973-9.375 9.375-9.375 9.375 4.1973 9.375 9.375z" color="#000000" fill="#b3b3b3" fill-rule="evenodd" stroke="#000000" stroke-width=".53524"/>
  </g>
  <g transform="translate(-9.4895 854.13)">
   <g stroke="#000000">
    <g stroke-linecap="round" stroke-linejoin="round" stroke-width=".70866">
     <path d="m21.117 152.54 0.11958 27.151" fill="#800080"/>
     <path d="m21.149 146.01 3.4666 14.35h-6.9332c1.228-7.2721 3.4666-14.35 3.4666-14.35z" fill="#ffffff"/>
     <path d="m43.911 179.63-22.523-0.0967" fill="#800080"/>
     <path d="m51.965 179.65-14.355 3.4439 0.011-6.9332z" fill="#ffffff"/>
    </g>
    <text x="45.019936" y="175.30176" fill="#000000" font-family="'Arial Nova', 'Arial Unicode MS', 'Yu Gothic UI', sans-serif" letter-spacing="0px" word-spacing="0px" style="line-height:0%" xml:space="preserve"><tspan x="45.019936" y="175.30176" fill="#ff0000" font-family="'Arial Nova', 'Arial Unicode MS', 'Yu Gothic UI', sans-serif" font-size="10px" stroke="#000000" style="line-height:1.25">X</tspan></text>
    <text x="24.983866" y="153.24313" fill="#000000" font-family="'Arial Nova', 'Arial Unicode MS', 'Yu Gothic UI', sans-serif" letter-spacing="0px" word-spacing="0px" style="line-height:0%" xml:space="preserve"><tspan x="24.983866" y="153.24313" fill="#ff0000" font-family="'Arial Nova', 'Arial Unicode MS', 'Yu Gothic UI', sans-serif" font-size="10px" stroke="#000000" style="line-height:1.25">Y</tspan></text>
   </g>
   <g transform="translate(-243.07 368.71)">
    <path transform="matrix(.9071 0 0 .90186 24.872 -1.1139)" d="m267.68-208.61c0 2.1113-1.7016 3.8228-3.8007 3.8228s-3.8007-1.7115-3.8007-3.8228c0-2.1113 1.7016-3.8228 3.8007-3.8228s3.8007 1.7115 3.8007 3.8228z" color="#000000" fill="#ffffff" stroke="#000000" stroke-linecap="round" stroke-linejoin="round" stroke-width=".7835"/>
    <path transform="matrix(.81605 0 0 .73445 48.612 -50.299)" d="m264.67-189.2c0 0.26645-0.1944 0.48245-0.4342 0.48245-0.23981 0-0.4342-0.216-0.4342-0.48245s0.19439-0.48244 0.4342-0.48244c0.2398 0 0.4342 0.21599 0.4342 0.48244z" color="#000000" fill="#000000"/>
   </g>
  </g>
  <g fill-rule="evenodd">
   <path transform="matrix(1.7247 0 0 1.7247 -1.1747 882.87)" d="m125.32 9.156v0h106.51v78.843h-106.51z" clip-rule="evenodd" fill="url(#linearGradient18908)" stroke="#4d4d4d" stroke-linecap="round" stroke-linejoin="round" stroke-miterlimit="10" stroke-width=".36776"/>
   <path d="m247.84 924.98h115.3v86.409h-115.3v-86.409z" fill="url(#linearGradient4030-4)" stroke="#4d4d4d" stroke-miterlimit="10" stroke-width=".43116"/>
   <path d="m307.57 925.44h57.636v85.615h-57.636" fill="url(#linearGradient13147)" stroke="#800080" stroke-linecap="round" stroke-linejoin="round" stroke-width="1.5281"/>
   <path transform="matrix(.93628 0 0 .93614 214.33 878.81)" d="m159.64 110.77c0 5.1777-4.1973 9.375-9.375 9.375s-9.375-4.1973-9.375-9.375 4.1973-9.375 9.375-9.375 9.375 4.1973 9.375 9.375z" color="#000000" fill="#b3b3b3" stroke="#000000" stroke-linecap="round" stroke-linejoin="round" stroke-width=".53524"/>
  </g>
  <g fill="none" stroke-linecap="round" stroke-linejoin="round">
   <path d="m307.84 925.44h-7.573v85.601h7.935" stroke="#800080" stroke-width="1.5233"/>
   <path d="m315.24 925.73v85.11" stroke="#800080" stroke-width="1.5189"/>
   <rect x="315.23" y="934.97" width="39.702" height="66.615" clip-rule="evenodd" stroke="#d4aa00" stroke-dasharray="3.03176615, 3.03176615" stroke-width="1.5159"/>
   <path d="m307.84 925.67v85.296" opacity=".3" stroke="#800080" stroke-width="1.5206"/>
  </g>
  <g stroke-linecap="round" stroke-linejoin="round">
   <path transform="matrix(.93628 0 0 .93614 174.5 848.83)" d="m159.64 110.77c0 5.1777-4.1973 9.375-9.375 9.375s-9.375-4.1973-9.375-9.375 4.1973-9.375 9.375-9.375 9.375 4.1973 9.375 9.375z" color="#000000" fill="#b3b3b3" fill-rule="evenodd" stroke="#000000" stroke-width=".53524"/>
   <path d="m321.95 1001.6h-21.7v-66.836h19.7" fill="none" stroke="#d4aa00" stroke-dasharray="3.03661656, 3.03661656" stroke-width="1.5183"/>
   <path transform="matrix(.93628 0 0 .93614 159.5 883.29)" d="m159.64 110.77c0 5.1777-4.1973 9.375-9.375 9.375s-9.375-4.1973-9.375-9.375 4.1973-9.375 9.375-9.375 9.375 4.1973 9.375 9.375z" color="#000000" fill="#b3b3b3" fill-rule="evenodd" stroke="#000000" stroke-width=".53524"/>
  </g>
  <g transform="translate(19.951 53.791)" fill="#000000" stroke="#000000" stroke-linecap="round" stroke-linejoin="round">
   <path d="m290.32 862.71h17.164" stroke-width=".63425"/>
   <path d="m307.71 862.53-11.786-3.9286v8.2143z" stroke-width=".99921"/>
  </g>
  <text x="315.05267" y="911.19336" fill="#000000" font-family="'Arial Nova', 'Arial Unicode MS', 'Yu Gothic UI', sans-serif" letter-spacing="0px" word-spacing="0px" style="line-height:0%" xml:space="preserve"><tspan x="315.05267" y="911.19336" font-family="'Arial Nova', 'Arial Unicode MS', 'Yu Gothic UI', sans-serif" font-size="24px" style="line-height:1.25">-</tspan></text>
  <text x="289.72449" y="913.52936" fill="#000000" font-family="'Arial Nova', 'Arial Unicode MS', 'Yu Gothic UI', sans-serif" letter-spacing="0px" word-spacing="0px" style="line-height:0%" xml:space="preserve"><tspan x="289.72449" y="913.52936" font-family="'Arial Nova', 'Arial Unicode MS', 'Yu Gothic UI', sans-serif" font-size="24px" style="line-height:1.25">+</tspan></text>
  <g transform="matrix(-1 0 0 -1 595.84 1779.2)" fill="#000000" stroke="#000000" stroke-linecap="round" stroke-linejoin="round">
   <path d="m290.32 862.71h17.164" stroke-width=".63425"/>
   <path d="m307.71 862.53-11.786-3.9286v8.2143z" stroke-width=".99921"/>
  </g>
  <g transform="translate(144.38 973.88)">
   <ellipse cx="-44.92" cy="-98.798" rx="13.199" ry="13.469" d="m -31.720282,-98.79776 c 0,7.438558 -5.90954,13.4687 -13.199327,13.4687 -7.289787,0 -13.199328,-6.030142 -13.199328,-13.4687 0,-7.43856 5.909541,-13.4687 13.199328,-13.4687 7.289787,0 13.199327,6.03014 13.199327,13.4687 z" fill="#1f638a" stroke-linecap="round" stroke-linejoin="round" stroke-width="1.0658"/>
   <text x="-50.761276" y="-91.125885" fill="#000000" letter-spacing="0px" word-spacing="0px" style="line-height:0%" xml:space="preserve"><tspan x="-50.761276" y="-91.125885" fill="#ffffff" font-family="'Arial Nova', 'Arial Unicode MS', 'Yu Gothic UI', sans-serif" font-size="20px" stroke="#ffffff" stroke-width="1.0667" style="line-height:1.25">1</tspan></text>
  </g>
  <g transform="translate(326.4 974.38)">
   <ellipse cx="-13.718" cy="-98.798" rx="13.199" ry="13.469" d="m -0.51893806,-98.79776 c 0,7.438558 -5.90954024,13.4687 -13.19932794,13.4687 -7.289787,0 -13.199327,-6.030142 -13.199327,-13.4687 0,-7.43856 5.90954,-13.4687 13.199327,-13.4687 7.2897877,0 13.19932794,6.03014 13.19932794,13.4687 z" fill="#1f638a" stroke-linecap="round" stroke-linejoin="round" stroke-width="1.0658"/>
   <text x="-19.559933" y="-91.125885" fill="#000000" letter-spacing="0px" word-spacing="0px" style="line-height:0%" xml:space="preserve"><tspan x="-19.559933" y="-91.125885" fill="#ffffff" font-family="'Arial Nova', 'Arial Unicode MS', 'Yu Gothic UI', sans-serif" font-size="20px" stroke="#ffffff" stroke-width="1.0667" style="line-height:1.25">2</tspan></text>
  </g>
 </g>
</svg>
