<?xml version="1.0" encoding="UTF-8" standalone="no"?>
<!-- Created with Inkscape (http://www.inkscape.org/) -->

<svg
   xmlns:dc="http://purl.org/dc/elements/1.1/"
   xmlns:cc="http://creativecommons.org/ns#"
   xmlns:rdf="http://www.w3.org/1999/02/22-rdf-syntax-ns#"
   xmlns:svg="http://www.w3.org/2000/svg"
   xmlns="http://www.w3.org/2000/svg"
   version="1.1"
   width="460.62991"
   height="212.59842"
   id="svg8514"
   xml:space="preserve"><metadata
     id="metadata8520"><rdf:RDF><cc:Work
         rdf:about=""><dc:format>image/svg+xml</dc:format><dc:type
           rdf:resource="http://purl.org/dc/dcmitype/StillImage" /><dc:title></dc:title></cc:Work></rdf:RDF></metadata><defs
     id="defs8518"><linearGradient
       x1="90.012001"
       y1="112.98"
       x2="321.82999"
       y2="111.66"
       id="linearGradient8530"
       gradientUnits="userSpaceOnUse"
       gradientTransform="matrix(0.96816,0,0,-0.96816,-72.16,169.22273)"
       spreadMethod="pad"><stop
         id="stop8532"
         style="stop-color:#ffffff;stop-opacity:1"
         offset="0" /><stop
         id="stop8534"
         style="stop-color:#00385e;stop-opacity:1"
         offset="1" /></linearGradient><linearGradient
       x1="90.012001"
       y1="112.98"
       x2="318.29999"
       y2="112.1"
       id="linearGradient8570"
       gradientUnits="userSpaceOnUse"
       gradientTransform="matrix(0.96816,0,0,-0.96816,106.344,170.07873)"
       spreadMethod="pad"><stop
         id="stop8572"
         style="stop-color:#ffffff;stop-opacity:1"
         offset="0" /><stop
         id="stop8574"
         style="stop-color:#00385e;stop-opacity:1"
         offset="1" /></linearGradient></defs><g
     transform="matrix(1.25,0,0,-1.25,0,212.59842)"
     id="g8522"><g
       id="g8524"><g
         id="g8526"><g
           transform="matrix(1,0,0,-1,0,170.07873)"
           id="g8528"><path
             d="m 184.539,167.148 0,-113.824 -169.281,0 0,113.824 169.281,0 z"
             id="path8536"
             style="fill:url(#linearGradient8530);fill-opacity:1;fill-rule:evenodd;stroke:#4d4d4d;stroke-width:0.54123998;stroke-linecap:butt;stroke-linejoin:miter;stroke-miterlimit:4;stroke-opacity:1;stroke-dasharray:none" /></g></g><g
         transform="matrix(1,0,0,-1,0,170.07873)"
         id="g8538"><path
           d="m 80.879,100.625 0,-36.977 77.18,0 0,91.028 -122.125,0 0.183,-54.051 44.762,0 z"
           id="path8540"
           style="fill:none;stroke:#800080;stroke-width:1.51187897;stroke-linecap:round;stroke-linejoin:round;stroke-miterlimit:4;stroke-opacity:1;stroke-dasharray:none" /></g><g
         transform="matrix(1,0,0,-1,0,170.07873)"
         id="g8542"><path
           d="m 92.824,110.113 0,-34.707 54.235,0 0,66.559 -99.739,0 -0.007,-31.852 45.511,0 z"
           id="path8544"
           style="fill:none;stroke:#ffcc00;stroke-width:2.21243906;stroke-linecap:round;stroke-linejoin:round;stroke-miterlimit:4;stroke-opacity:1;stroke-dasharray:none" /></g><path
         d="m 83.332,69.719 c 0,-1.511 -1.223,-2.734 -2.73,-2.734 -1.512,0 -2.735,1.223 -2.735,2.734 0,1.508 1.223,2.731 2.735,2.731 1.507,0 2.73,-1.223 2.73,-2.731 z"
         id="path8546"
         style="fill:#800080;fill-opacity:1;fill-rule:evenodd;stroke:none" /><g
         transform="matrix(1,0,0,-1,0,170.07873)"
         id="g8548"><path
           d="M 14.855,53.816 14.879,35.145"
           id="path8550"
           style="fill:none;stroke:#7ab51d;stroke-width:1.14592004;stroke-linecap:butt;stroke-linejoin:miter;stroke-miterlimit:10;stroke-opacity:1;stroke-dasharray:none" /></g><g
         transform="matrix(1,0,0,-1,0,170.07873)"
         id="g8552"><path
           d="m 14.902,53.313 18.672,0.023"
           id="path8554"
           style="fill:none;stroke:#e2001a;stroke-width:1.14592004;stroke-linecap:butt;stroke-linejoin:miter;stroke-miterlimit:10;stroke-opacity:1;stroke-dasharray:none" /></g><text
         transform="matrix(1,0,0,-1,1.403532,129.6675)"
         id="text8556"><tspan
           x="0"
           y="0"
           id="tspan8558"
           style="font-size:15.12800026px;font-variant:normal;font-weight:normal;writing-mode:lr-tb;fill:#7ab51d;fill-opacity:1;fill-rule:nonzero;stroke:none;font-family:Arial;-inkscape-font-specification:ArialMT">Y</tspan></text>
<text
         transform="matrix(1,0,0,-1,29.693112,121.10969)"
         id="text8560"><tspan
           x="0"
           y="0"
           id="tspan8562"
           style="font-size:15.12800026px;font-variant:normal;font-weight:normal;writing-mode:lr-tb;fill:#e2001a;fill-opacity:1;fill-rule:nonzero;stroke:none;font-family:Arial;-inkscape-font-specification:ArialMT">X</tspan></text>
<path
         d="m 17.555,116.919 c 0,-1.508 -1.223,-2.735 -2.735,-2.735 -1.507,0 -2.73,1.227 -2.73,2.735 0,1.507 1.223,2.734 2.73,2.734 1.512,0 2.735,-1.227 2.735,-2.734 z"
         id="path8564"
         style="fill:#34679b;fill-opacity:1;fill-rule:evenodd;stroke:none" /><g
         id="g8566"><g
           transform="matrix(1,0,0,-1,0,170.07873)"
           id="g8568"><path
             d="m 193.762,52.469 169.281,0 0,113.824 -169.281,0 0,-113.824 z"
             id="path8576"
             style="fill:url(#linearGradient8570);fill-opacity:1;fill-rule:evenodd;stroke:#4d4d4d;stroke-width:0.54123998;stroke-linecap:butt;stroke-linejoin:miter;stroke-miterlimit:4;stroke-opacity:1;stroke-dasharray:none" /></g></g><g
         transform="matrix(1,0,0,-1,0,170.07873)"
         id="g8578"><path
           d="m 259.383,99.77 0,-36.977 77.18,0 0,91.027 -122.125,0 0.183,-54.05 44.762,0 z"
           id="path8580"
           style="fill:none;stroke:#800080;stroke-width:1.51187897;stroke-linecap:round;stroke-linejoin:round;stroke-miterlimit:4;stroke-opacity:1;stroke-dasharray:none" /></g><g
         transform="matrix(1,0,0,-1,0,170.07873)"
         id="g8582"><path
           d="m 271.328,109.258 0,-34.707 54.238,0 0,66.558 -99.742,0 -0.008,-31.851 45.512,0 z"
           id="path8584"
           style="fill:none;stroke:#ffcc00;stroke-width:2.21243906;stroke-linecap:round;stroke-linejoin:round;stroke-miterlimit:4;stroke-opacity:1;stroke-dasharray:none" /></g><path
         d="m 283.844,16.278 c 0,-1.508 -1.223,-2.731 -2.731,-2.731 -1.511,0 -2.734,1.223 -2.734,2.731 0,1.512 1.223,2.734 2.734,2.734 1.508,0 2.731,-1.222 2.731,-2.734 z"
         id="path8586"
         style="fill:#800080;fill-opacity:1;fill-rule:evenodd;stroke:none" /><g
         transform="matrix(1,0,0,-1,0,170.07873)"
         id="g8588"><path
           d="m 193.352,52.961 0.023,-18.672"
           id="path8590"
           style="fill:none;stroke:#7ab51d;stroke-width:1.14592004;stroke-linecap:butt;stroke-linejoin:miter;stroke-miterlimit:10;stroke-opacity:1;stroke-dasharray:none" /></g><g
         transform="matrix(1,0,0,-1,0,170.07873)"
         id="g8592"><path
           d="M 193.406,52.457 212.07,52.48"
           id="path8594"
           style="fill:none;stroke:#e2001a;stroke-width:1.14592004;stroke-linecap:butt;stroke-linejoin:miter;stroke-miterlimit:10;stroke-opacity:1;stroke-dasharray:none" /></g><text
         transform="matrix(1,0,0,-1,209.40212,121.66135)"
         id="text8596"><tspan
           x="0"
           y="0"
           id="tspan8598"
           style="font-size:15.12800026px;font-variant:normal;font-weight:normal;writing-mode:lr-tb;fill:#e2001a;fill-opacity:1;fill-rule:nonzero;stroke:none;font-family:Arial;-inkscape-font-specification:ArialMT">X</tspan></text>
<path
         d="m 196.055,117.774 c 0,-1.508 -1.227,-2.73 -2.735,-2.73 -1.507,0 -2.734,1.222 -2.734,2.73 0,1.512 1.227,2.734 2.734,2.734 1.508,0 2.735,-1.222 2.735,-2.734 z"
         id="path8600"
         style="fill:#34679b;fill-opacity:1;fill-rule:evenodd;stroke:none" /><g
         transform="matrix(1,0,0,-1,0,170.07873)"
         id="g8602"><path
           d="m 17.957,40.672 -2.973,-10.758 -2.82,10.754 5.793,0.004 z"
           id="path8604"
           style="fill:#7ab51d;fill-opacity:1;fill-rule:evenodd;stroke:#7ab51d;stroke-width:0.85263997;stroke-linecap:round;stroke-linejoin:round;stroke-miterlimit:4;stroke-opacity:1;stroke-dasharray:none" /></g><g
         transform="matrix(1,0,0,-1,0,170.07873)"
         id="g8606"><path
           d="m 28.711,56.391 10.758,-2.977 -10.758,-2.816 0,5.793 z"
           id="path8608"
           style="fill:#e2001a;fill-opacity:1;fill-rule:evenodd;stroke:#e2001a;stroke-width:0.85263997;stroke-linecap:round;stroke-linejoin:round;stroke-miterlimit:4;stroke-opacity:1;stroke-dasharray:none" /></g><text
         transform="matrix(1,0,0,-1,177.74393,131.90779)"
         id="text8610"><tspan
           x="0"
           y="0"
           id="tspan8612"
           style="font-size:15.12800026px;font-variant:normal;font-weight:normal;writing-mode:lr-tb;fill:#7ab51d;fill-opacity:1;fill-rule:nonzero;stroke:none;font-family:Arial;-inkscape-font-specification:ArialMT">Y</tspan></text>
<g
         transform="matrix(1,0,0,-1,0,170.07873)"
         id="g8614"><path
           d="m 196.105,37.832 -2.976,-10.758 -2.816,10.754 5.792,0.004 z"
           id="path8616"
           style="fill:#7ab51d;fill-opacity:1;fill-rule:evenodd;stroke:#7ab51d;stroke-width:0.85263997;stroke-linecap:round;stroke-linejoin:round;stroke-miterlimit:4;stroke-opacity:1;stroke-dasharray:none" /></g><g
         transform="matrix(1,0,0,-1,0,170.07873)"
         id="g8618"><path
           d="m 208.121,55.184 10.758,-2.977 -10.758,-2.816 0,5.793 z"
           id="path8620"
           style="fill:#e2001a;fill-opacity:1;fill-rule:evenodd;stroke:#e2001a;stroke-width:0.85263997;stroke-linecap:round;stroke-linejoin:round;stroke-miterlimit:4;stroke-opacity:1;stroke-dasharray:none" /></g><path
         d="m 75.598,86.118 c 0,-5.953 -4.727,-10.778 -10.559,-10.778 -5.832,0 -10.559,4.825 -10.559,10.778 0,5.949 4.727,10.773 10.559,10.773 5.832,0 10.559,-4.824 10.559,-10.773 z"
         id="path8622"
         style="fill:#1f638a;fill-opacity:1;fill-rule:nonzero;stroke:none" /><text
         transform="matrix(1,0,0,-1,60.36698,79.979449)"
         id="text8624"><tspan
           x="0"
           y="0"
           id="tspan8626"
           style="font-size:17.06640053px;font-variant:normal;font-weight:normal;writing-mode:lr-tb;fill:#ffffff;fill-opacity:1;fill-rule:nonzero;stroke:none;font-family:Arial;-inkscape-font-specification:ArialMT">1</tspan></text>
<g
         transform="matrix(1,0,0,-1,0,170.07873)"
         id="g8628"><path
           d="m 66.727,90.098 -1.5,0 0,-9.559 c -0.368,0.348 -0.84,0.691 -1.422,1.035 -0.59,0.348 -1.117,0.606 -1.578,0.774 l 0,-1.45 c 0.836,-0.394 1.57,-0.871 2.199,-1.433 0.625,-0.559 1.07,-1.102 1.332,-1.633 l 0.969,0 0,12.266 z"
           id="path8630"
           style="fill:none;stroke:#ffffff;stroke-width:0.85336;stroke-linecap:butt;stroke-linejoin:miter;stroke-miterlimit:4;stroke-opacity:1;stroke-dasharray:none" /></g><path
         d="m 291.121,35.317 c 0,-5.949 -4.726,-10.773 -10.558,-10.773 -5.833,0 -10.559,4.824 -10.559,10.773 0,5.949 4.726,10.773 10.559,10.773 5.832,0 10.558,-4.824 10.558,-10.773 z"
         id="path8632"
         style="fill:#1f638a;fill-opacity:1;fill-rule:nonzero;stroke:none" /><text
         transform="matrix(1,0,0,-1,275.88806,29.179443)"
         id="text8634"><tspan
           x="0"
           y="0"
           id="tspan8636"
           style="font-size:17.06640053px;font-variant:normal;font-weight:normal;writing-mode:lr-tb;fill:#ffffff;fill-opacity:1;fill-rule:nonzero;stroke:none;font-family:Arial;-inkscape-font-specification:ArialMT">2</tspan></text>
<g
         transform="matrix(1,0,0,-1,0,170.07873)"
         id="g8638"><path
           d="m 284.477,139.457 0,1.441 -8.075,0 c -0.011,-0.359 0.047,-0.707 0.176,-1.043 0.203,-0.546 0.531,-1.085 0.988,-1.621 0.45,-0.531 1.102,-1.148 1.961,-1.851 1.325,-1.086 2.223,-1.949 2.692,-2.586 0.465,-0.637 0.699,-1.238 0.703,-1.805 -0.004,-0.594 -0.219,-1.094 -0.641,-1.504 -0.429,-0.406 -0.98,-0.609 -1.66,-0.613 -0.726,0.004 -1.305,0.219 -1.734,0.648 -0.434,0.434 -0.657,1.036 -0.66,1.801 l -1.539,-0.16 c 0.101,-1.144 0.496,-2.019 1.187,-2.625 0.688,-0.601 1.613,-0.902 2.777,-0.906 1.168,0.004 2.098,0.328 2.782,0.976 0.683,0.653 1.023,1.457 1.027,2.414 -0.004,0.493 -0.102,0.973 -0.301,1.442 -0.199,0.473 -0.531,0.969 -0.996,1.492 -0.465,0.523 -1.238,1.242 -2.312,2.148 -0.903,0.758 -1.477,1.27 -1.731,1.54 -0.258,0.269 -0.469,0.539 -0.633,0.812 l 5.989,0 z"
           id="path8640"
           style="fill:none;stroke:#ffffff;stroke-width:0.85336;stroke-linecap:butt;stroke-linejoin:miter;stroke-miterlimit:4;stroke-opacity:1;stroke-dasharray:none" /></g></g></g></svg>