<?xml version="1.0" encoding="UTF-8"?>
<svg width="13cm" height="5.5cm" version="1.1" xmlns="http://www.w3.org/2000/svg" xmlns:cc="http://creativecommons.org/ns#" xmlns:dc="http://purl.org/dc/elements/1.1/" xmlns:rdf="http://www.w3.org/1999/02/22-rdf-syntax-ns#" xmlns:xlink="http://www.w3.org/1999/xlink">
 <title>Abbildung fuer OPEN MIND Softwaredokumentation</title>
 <defs>
  <linearGradient id="linearGradient7548" x1="366.15" x2="500.03" y1="1037" y2="1037" gradientTransform="matrix(3.1203 0 0 3.1203 -1212.9 -2132)" gradientUnits="userSpaceOnUse">
   <stop stop-color="#fff" offset="0"/>
   <stop stop-color="#00385e" offset="1"/>
  </linearGradient>
 </defs>
 <metadata>
  <rdf:RDF>
   <cc:Work rdf:about="">
    <dc:format>image/svg+xml</dc:format>
    <dc:type rdf:resource="http://purl.org/dc/dcmitype/StillImage"/>
    <dc:title>Abbildung fuer OPEN MIND Softwaredokumentation</dc:title>
    <dc:creator>
     <cc:Agent>
      <dc:title>OPEN MIND Technologies AG</dc:title>
     </cc:Agent>
    </dc:creator>
    <dc:rights>
     <cc:Agent>
      <dc:title>Alle Rechte vorbehalten.</dc:title>
     </cc:Agent>
    </dc:rights>
    <dc:publisher>
     <cc:Agent>
      <dc:title>Technische Redaktion</dc:title>
     </cc:Agent>
    </dc:publisher>
   </cc:Work>
  </rdf:RDF>
 </metadata>
 <g transform="translate(0 -914.65)">
  <g stroke-linecap="round" stroke-linejoin="round">
   <g stroke-width=".67654">
    <path d="m299.78 1103.3v-160.71" color="#000000" fill-rule="evenodd" stroke="#000"/>
    <path d="m124.5 1094-51.056-147.52s3.6719 18.458-2.1061 24.068c-6.437 6.2499-21.445-5.591-26.871 1.5546-6.0099 7.9152 11.705 20.77 6.3365 29.134-8.8945 13.858-45.487-5.672-48.259 10.56-2.8686 16.798 45.342 9.943 43.484 26.882-1.2294 11.206-29.976 0.031-31.937 11.123-2.4127 13.658 32.227 26.32 32.227 26.32l-16.74 17.877z" color="#000000" fill="url(#linearGradient7548)" stroke="#4d4d4d"/>
    <path d="m100.78 1093.9h197.15" color="#000000" fill="none" stroke="#000"/>
   </g>
   <g stroke-width="1.4324">
    <path d="m49.337 988.01h37.979l19.51 56.834h-73.248s14.324-1.5365 12.775-8.4376c-3.6051-16.056-43.896-6.7073-43.896-23.163 0-16.456 38.752 1.3841 48.572-11.821 2.8263-3.8004-1.6914-13.412-1.6914-13.412z" color="#000000" fill="#739ba5" stroke="#16434a"/>
    <path d="m5.3837 1016.8h294.52" color="#000000" fill="none" stroke="#fc0"/>
    <path d="m98.098 1016.8 201.81 0.3941" color="#000000" fill="none" stroke="#f00"/>
   </g>
  </g>
  <g stroke="#000" stroke-linecap="round" stroke-linejoin="round" stroke-width="1.0658">
   <path d="m298.27 1094-12.571 4.1904v-8.7618z"/>
   <path d="m154.7 1093.9 12.571 4.1904v-8.7619z"/>
   <path d="m124.3 1093.9-12.571 4.1904v-8.7619z"/>
  </g>
  <g>
   <g stroke-linecap="round" stroke-linejoin="round">
    <path d="m17.038 1103.2v-160.64" color="#000000" fill="#ff8080" fill-rule="evenodd" stroke="#ff8080" stroke-width="1.4324"/>
    <circle transform="scale(-1)" cx="-18.39" cy="-943.38" r=".95094" color="#000000" fill-rule="evenodd" stroke="#000" stroke-miterlimit="10" stroke-width=".7559"/>
    <g stroke-miterlimit="8.9091">
     <g transform="matrix(.94139 0 0 -.94139 -164.18 1218.3)" fill="#e2001a" stroke="#e2001a" stroke-width=".80297">
      <path d="m192.71 242.14-5.0723 20.997h10.145z"/>
      <path d="m192.75 251.69-0.17497 39.728"/>
     </g>
     <g transform="matrix(-.81619 -.46908 -.46908 .81619 310.9 796.26)" fill="#34679b" stroke="#34679b" stroke-width=".80297">
      <path d="m152.19 267.59 20.624 6.4215-5.206 8.707z"/>
      <path d="m163 273.98 29.443 17.394"/>
     </g>
     <ellipse transform="matrix(.99939 .0349 .0349 -.99939 0 0)" cx="50.144" cy="-942.81" rx="3.8038" ry="3.558" fill="#7ab51d" stroke="#7ab51d" stroke-width=".75591"/>
    </g>
   </g>
   <text transform="scale(-1)" x="-61.092216" y="-949.29498" fill="#34679b" font-family="'Arial Nova', 'Arial Unicode MS', 'Yu Gothic UI', sans-serif" font-size="12.8px" letter-spacing="0px" stroke="#34679b" stroke-width="1.0667" word-spacing="0px" style="line-height:0%" xml:space="preserve"><tspan x="-61.092216" y="-949.29498" fill="#34679b" font-family="'Arial Nova', 'Arial Unicode MS', 'Yu Gothic UI', sans-serif" font-size="10.042px" stroke="#34679b" stroke-width="1.0667" style="line-height:1.25">Z</tspan></text>
   <path d="m124.85 1103.3v-160.71" color="#000000" fill-rule="evenodd" stroke="#000" stroke-linecap="round" stroke-linejoin="round" stroke-width=".67654"/>
  </g>
  <g transform="translate(270.14 1176.1)">
   <ellipse cx="-44.92" cy="-98.798" rx="13.199" ry="13.469" fill="#1f638a" stroke-linecap="round" stroke-linejoin="round" stroke-width="1.0658"/>
   <text x="-50.761276" y="-91.125885" fill="#000000" font-family="'Arial Nova', 'Arial Unicode MS', 'Yu Gothic UI', sans-serif" font-size="12.8px" letter-spacing="0px" stroke-width="1.0667" word-spacing="0px" style="line-height:0%" xml:space="preserve"><tspan x="-50.761276" y="-91.125885" fill="#ffffff" font-family="'Arial Nova', 'Arial Unicode MS', 'Yu Gothic UI', sans-serif" font-size="21.333px" stroke="#ffffff" stroke-width="1.0667" style="line-height:1.25">1</tspan></text>
  </g>
  <g transform="translate(155.18 1176.1)">
   <ellipse cx="-13.718" cy="-98.798" rx="13.199" ry="13.469" fill="#1f638a" stroke-linecap="round" stroke-linejoin="round" stroke-width="1.0658"/>
   <text x="-19.559933" y="-91.125885" fill="#000000" font-family="'Arial Nova', 'Arial Unicode MS', 'Yu Gothic UI', sans-serif" font-size="12.8px" letter-spacing="0px" stroke-width="1.0667" word-spacing="0px" style="line-height:0%" xml:space="preserve"><tspan x="-19.559933" y="-91.125885" fill="#ffffff" font-family="'Arial Nova', 'Arial Unicode MS', 'Yu Gothic UI', sans-serif" font-size="21.333px" stroke="#ffffff" stroke-width="1.0667" style="line-height:1.25">2</tspan></text>
  </g>
 </g>
</svg>
