<svg version="1.1" viewBox="0 0 637.8 248.03" xmlns="http://www.w3.org/2000/svg" xmlns:xlink="http://www.w3.org/1999/xlink">
 <defs>
  <linearGradient id="linearGradient4861" x1="363.22" x2="582.49" y1="302.6" y2="300.46" gradientTransform="matrix(1.1832 0 0 1.1709 -407.21 -210.72)" gradientUnits="userSpaceOnUse">
   <stop stop-color="#ffffff" offset="0"/>
   <stop stop-color="#00385e" offset="1"/>
  </linearGradient>
  <linearGradient id="linearGradient4856" x1="364.68" x2="578.89" y1="1219.5" y2="1219.5" gradientTransform="matrix(1.1814 0 0 1.1708 -407.07 -1194.8)" gradientUnits="userSpaceOnUse">
   <stop stop-color="#ffffff" offset="0"/>
   <stop stop-color="#00385e" offset="1"/>
  </linearGradient>
  <linearGradient id="linearGradient4858" x1="364.68" x2="578.89" y1="1219.5" y2="1219.5" gradientTransform="matrix(1.1814 0 0 1.1708 -407.07 -1194.8)" gradientUnits="userSpaceOnUse">
   <stop stop-color="#5f6892" offset="0"/>
   <stop stop-color="#5f6892" stop-opacity="0" offset="1"/>
  </linearGradient>
  <linearGradient id="linearGradient4853" x1="324.97" x2="516.08" y1="345.45" y2="343.93" gradientTransform="matrix(1.1814 0 0 1.1708 -407.07 -211.13)" gradientUnits="userSpaceOnUse">
   <stop stop-color="#0a4065" offset="0"/>
   <stop stop-color="#e6ebef" offset=".5"/>
   <stop stop-color="#00385e" offset="1"/>
  </linearGradient>
 </defs>
 <g transform="translate(0 -804.33)">
  <g transform="translate(-7.5278 62.854)">
   <g transform="translate(-.0625 .40625)">
    <path d="m163.42 903.63c0 38.882-31.206 70.117-70.053 70.117-38.847 0-69.91-30.239-69.91-69.12 0-38.882 31.349-71.397 70.196-71.397 38.847 0 69.767 31.52 69.767 70.401z" fill="#739ba5"/>
    <path transform="matrix(.91954 0 0 .91954 -187.77 727.56)" d="m382.34 191.11c0 42.121-34.146 76.267-76.267 76.267-42.121 0-76.267-34.146-76.267-76.267 0-42.121 34.146-76.267 76.267-76.267 42.121 0 76.267 34.146 76.267 76.267z" fill="none" stroke="#2c474b" stroke-linecap="round" stroke-linejoin="round" stroke-width="1.0211"/>
   </g>
   <g transform="translate(-1.5423 .088237)" fill="none" stroke="#ffcc00" stroke-linecap="round" stroke-linejoin="round">
    <path transform="matrix(2.2138 0 0 2.2138 -461.74 775.36)" d="m251.94 37.987c11.075 0.17197 19.944 9.0205 19.944 19.945 0 10.903-8.8893 19.766-19.935 19.972" stroke-width=".80027"/>
    <path transform="matrix(2.7181 0 0 2.7181 -588.59 746.15)" d="m251.4 77.936c-11.045-0.21531-20.179-9.1066-20.179-20.004 0-10.962 8.9863-19.862 20.115-19.975" stroke-width=".6518"/>
   </g>
   <g transform="translate(-1.9445 .35355)" fill="#000000" stroke="#000000" stroke-linecap="round" stroke-linejoin="round">
    <path d="m96.987 849.32h77.537" opacity=".8" stroke-width=".80977"/>
    <g>
     <path d="m175.36 808.72 0.0359 39.063" stroke-width=".80977"/>
     <path d="m175.43 847.71-7.8578-23.098 16.178-0.0837z" stroke-width="1.9649"/>
    </g>
   </g>
   <g transform="translate(-1.7678 -3.182)" fill="#000000" stroke="#000000" stroke-linecap="round" stroke-linejoin="round">
    <g transform="matrix(2.289 0 0 2.2817 -1736.3 -1047.3)">
     <path d="m835.1 837.88 3.4329 10.123-7.0679 0.0367z" stroke-width=".85977"/>
     <path d="m835.12 854.97-0.0157-17.12" stroke-width=".35433"/>
    </g>
    <path d="m96.828 863h77.537" opacity=".8" stroke-width=".80977"/>
   </g>
   <path d="m93.834 833.51v140.01" fill="none" stroke="#000000" stroke-linecap="round" stroke-linejoin="round" stroke-width="1.1093px"/>
   <path d="m98.764 886.88-0.14237 12.079-29.612 0.12526-0.122 9.6859 29.847 0.11751 0.03525 11.179 24.756-16.09z" fill="#ffffff" stroke="#000000" stroke-linecap="round" stroke-linejoin="round" stroke-width=".87813"/>
  </g>
  <g transform="translate(442.01 62.544)">
   <g transform="translate(.60355 2.8107)">
    <path d="m103.82 830.94c33.546 5.3538 59.285 34.794 59.285 69.942 0 38.949-31.486 70.523-70.325 70.523-38.84 0-70.325-31.574-70.325-70.523 0-36.181 27.17-65.998 62.166-70.053" fill="#739ba5"/>
    <path transform="matrix(.91954 0 0 .91954 -188.47 725.3)" d="m382.34 191.11c0 42.121-34.146 76.267-76.267 76.267-42.121 0-76.267-34.146-76.267-76.267 0-42.121 34.146-76.267 76.267-76.267 42.121 0 76.267 34.146 76.267 76.267z" fill="none" stroke="#2c474b" stroke-linecap="round" stroke-linejoin="round" stroke-width="1.0211"/>
   </g>
   <path transform="matrix(.99722 0 0 .99722 124 773.72)" d="m-21.846 76.683c25.987 4.1464 45.846 26.662 45.846 53.817 0 30.1-24.4 54.375-54.5 54.375-30.1 0-55.386-24.275-55.386-54.375 0-27.997 21.997-51.064 49.169-54.149" fill="none" stroke="#ffcc00" stroke-linecap="round" stroke-linejoin="round" stroke-width="1.7766"/>
   <g transform="translate(.25 -.33395)" fill="#000000" stroke="#000000" stroke-linecap="round" stroke-linejoin="round">
    <g transform="matrix(.0099497 1.9182 -1.9182 .0099497 1807.6 361.74)">
     <path d="m233.65 889.38-3.9286-11.786h8.2143z" stroke-width=".99921"/>
     <path d="m233.72 869.52-0.085 19.897" stroke-width=".4118"/>
    </g>
    <g transform="matrix(-.0099497 -1.9182 1.9182 -.0099497 -1618.2 1275.9)">
     <path d="m233.65 889.38-3.9286-11.786h8.2143z" stroke-width=".99921"/>
     <path d="m233.72 869.52-0.085 19.897" stroke-width=".4118"/>
    </g>
    <path d="m102.07 818.67v32.052" stroke-width=".81142"/>
    <path d="m87.299 818.63v32.077" stroke-width=".81142"/>
   </g>
  </g>
  <g transform="translate(222.31 790.95)" stroke-linecap="round" stroke-linejoin="round">
   <g>
    <path d="m162.4 143.58c0 7.3903-31.027 13.381-69.3 13.381-38.273 0-69.3-5.991-69.3-13.381s31.027-13.381 69.3-13.381c38.273 0 69.3 5.991 69.3 13.381z" fill="url(#linearGradient4861)" fill-rule="evenodd" stroke="#000000" stroke-width=".74317"/>
    <path d="m162.55 232.99c0 7.3899-30.981 13.38-69.198 13.38-38.217 0-69.198-5.9905-69.198-13.38 0-7.3898 30.981-13.38 69.198-13.38 38.217 0 69.198 5.9906 69.198 13.38z" fill="url(#linearGradient4856)" fill-rule="evenodd" stroke="url(#linearGradient4858)" stroke-width=".74594"/>
    <path d="m23.826 142.91c-0.16008 19.012 138.78 17.984 138.55-0.0908l0.083 90.692c-0.10189 17.276-138.66 17.341-138.63-0.0609z" fill="url(#linearGradient4853)" stroke="#000000" stroke-width=".747"/>
   </g>
   <g fill="none" stroke="#ffcc00" stroke-width="2.4891">
    <path d="m139.43 135.34c0 4.6581-21.137 8.4342-47.21 8.4342-26.073 0-47.21-3.7761-47.21-8.4342 0-4.6582 21.137-8.4345 47.21-8.4345 26.074 0 47.21 3.7762 47.21 8.4345z"/>
    <path d="m139.2 130.72c0 4.6581-21.137 8.4344-47.21 8.4344-26.074 0-47.21-3.7762-47.21-8.4344 0-4.6581 21.137-8.4344 47.21-8.4344 26.073 0 47.21 3.7763 47.21 8.4344z"/>
    <path d="m139.29 126.14c0 4.6581-21.137 8.4343-47.21 8.4343-26.074 0-47.21-3.7761-47.21-8.4343 0-4.6582 21.137-8.4345 47.21-8.4345 26.074 0 47.21 3.7762 47.21 8.4345z"/>
    <path d="m139.06 121.52c0 4.6581-21.137 8.4344-47.21 8.4344-26.074 0-47.21-3.7763-47.21-8.4344 0-4.6581 21.137-8.4344 47.21-8.4344 26.074 0 47.21 3.7763 47.21 8.4344z"/>
    <path d="m139.35 140.34c0 4.6581-21.137 8.4344-47.21 8.4344-26.074 0-47.21-3.7762-47.21-8.4344 0-4.6581 21.137-8.4344 47.21-8.4344 26.073 0 47.21 3.7763 47.21 8.4344z"/>
   </g>
   <g fill="#fa0000" stroke="#f80000" stroke-width="2.4891">
    <path d="m89.146 148.58v-52.478"/>
    <path d="m96.7 143.5 0.0112-6.0652"/>
    <path d="m104.26 138.16 0.0111-6.0652"/>
    <path d="m111.81 133.43 0.0112-6.0652"/>
    <path d="m119.38 127.37v-31.232"/>
   </g>
   <path d="m96.46 68.58v66.483" fill="#000000" stroke="#000000" stroke-width=".78999"/>
   <path d="m104.19 68.639v61.159" fill="#000000" stroke="#000000" stroke-width=".78999"/>
   <g transform="matrix(-.0099505 -1.9184 1.9184 -.0099505 -1609.2 525.63)" fill="#000000" stroke="#000000">
    <path d="m233.65 889.38-3.9286-11.786h8.2143z" stroke-width=".99921"/>
    <path d="m233.72 869.52-0.085 19.897" stroke-width=".4118"/>
   </g>
   <g transform="matrix(.0099505 1.9184 -1.9184 .0099505 1809.7 -388.42)" fill="#000000" stroke="#000000">
    <path d="m233.65 889.38-3.9286-11.786h8.2143z" stroke-width=".99921"/>
    <path d="m233.72 869.52-0.085 19.897" stroke-width=".4118"/>
   </g>
  </g>
  <g transform="translate(233.64 1015)">
   <ellipse cx="-44.92" cy="-98.798" rx="13.199" ry="13.469" fill="#1f638a" stroke-linecap="round" stroke-linejoin="round" stroke-width="1.0658"/>
   <text x="-51.39423" y="-91.055557" fill="#000000" font-family="'Arial Nova', 'Arial Unicode MS', 'Yu Gothic UI', sans-serif" font-size="12.8px" letter-spacing="0px" stroke-width="1.0667" word-spacing="0px" style="line-height:0%" xml:space="preserve"><tspan x="-51.39423" y="-91.055557" fill="#ffffff" font-family="'Arial Nova', 'Arial Unicode MS', 'Yu Gothic UI', sans-serif" font-size="21.333px" stroke="#ffffff" stroke-width="1.0667" style="line-height:1.25">1</tspan></text>
  </g>
  <g transform="translate(337.35 935.01)">
   <ellipse cx="-13.718" cy="-98.798" rx="13.199" ry="13.469" fill="#1f638a" stroke-linecap="round" stroke-linejoin="round" stroke-width="1.0658"/>
   <text x="-19.559933" y="-91.125885" fill="#000000" font-family="'Arial Nova', 'Arial Unicode MS', 'Yu Gothic UI', sans-serif" font-size="12.8px" letter-spacing="0px" stroke-width="1.0667" word-spacing="0px" style="line-height:0%" xml:space="preserve"><tspan x="-19.559933" y="-91.125885" fill="#ffffff" font-family="'Arial Nova', 'Arial Unicode MS', 'Yu Gothic UI', sans-serif" font-size="21.333px" stroke="#ffffff" stroke-width="1.0667" style="line-height:1.25">2</tspan></text>
  </g>
  <g transform="translate(519.08 955.45)">
   <ellipse cx="17.483" cy="-98.798" rx="13.199" ry="13.469" fill="#1f638a" stroke-linecap="round" stroke-linejoin="round" stroke-width="1.0658"/>
   <text x="11.641406" y="-91.256096" fill="#000000" font-family="'Arial Nova', 'Arial Unicode MS', 'Yu Gothic UI', sans-serif" font-size="12.8px" letter-spacing="0px" stroke-width="1.0667" word-spacing="0px" style="line-height:0%" xml:space="preserve"><tspan x="11.641406" y="-91.256096" fill="#ffffff" font-family="'Arial Nova', 'Arial Unicode MS', 'Yu Gothic UI', sans-serif" font-size="21.333px" stroke="#ffffff" stroke-width="1.0667" style="line-height:1.25">3</tspan></text>
  </g>
 </g>
</svg>
