<svg width="180mm" height="96mm" version="1.1" viewBox="0 0 680.31 362.83" xml:space="preserve" xmlns="http://www.w3.org/2000/svg" xmlns:xlink="http://www.w3.org/1999/xlink"><defs><linearGradient id="linearGradient5988" x1="-611.81" x2="-26.883" y1="-41.626" y2="105.16" gradientTransform="matrix(.49191 0 0 .49191 243.48 169.73)" gradientUnits="userSpaceOnUse"><stop stop-color="#ffffff" offset="0"/><stop stop-color="#8ba5b6" offset="1"/></linearGradient><radialGradient id="radialGradient6011" cx="331.83" cy="-168.94" r="89.533" gradientTransform="matrix(.4927 -.25346 .49588 .96393 309.09 261.07)" gradientUnits="userSpaceOnUse"><stop stop-color="#94abbb" offset="0"/><stop stop-color="#547993" offset="1"/></radialGradient><radialGradient id="radialGradient6014" cx="250.13" cy="-81.288" r="119.01" gradientTransform="matrix(.42682 -.64066 .72264 .48144 326.17 265.74)" gradientUnits="userSpaceOnUse"><stop stop-color="#a2b6c4" offset="0"/><stop stop-color="#466e8a" offset="1"/></radialGradient><radialGradient id="radialGradient6017" cx="52.735" cy="40.584" r="150.2" gradientTransform="matrix(.85503 -.27445 .25642 .79884 257.7 154.52)" gradientUnits="userSpaceOnUse"><stop stop-color="#cad6de" offset="0"/><stop stop-color="#456d89" offset="1"/></radialGradient><linearGradient id="linearGradient6020" x1="-222.07" x2="843.84" y1="356.44" y2="-123.56" gradientTransform="matrix(.49191 0 0 .49191 264.02 162.09)" gradientUnits="userSpaceOnUse"><stop stop-color="#ffffff" offset="0"/><stop stop-color="#00385e" offset="1"/></linearGradient><linearGradient id="linearGradient6024" x1="110.32" x2="208.33" y1="-75.466" y2="-75.466" gradientTransform="matrix(.36362 .32668 -.32445 .36944 18.288 835.54)" gradientUnits="userSpaceOnUse"><stop stop-color="#7392a7" offset="0"/><stop stop-color="#86a0b2" offset="1"/></linearGradient><linearGradient id="linearGradient6026" x1="104.4" x2="152.84" y1="666.68" y2="630.99" gradientTransform="matrix(.49191 0 0 .49191 36.602 538.84)" gradientUnits="userSpaceOnUse"><stop stop-color="#95adbc" offset="0"/><stop stop-color="#325f7e" offset="1"/></linearGradient><linearGradient id="linearGradient6028" x1="8.4851" x2="81.872" y1="662.36" y2="734.51" gradientTransform="matrix(.49191 0 0 .49191 36.602 538.84)" gradientUnits="userSpaceOnUse" xlink:href="#linearGradient6030"><stop stop-color="#7f9bae" offset="0"/><stop stop-color="#000000" stop-opacity="0" offset="1"/></linearGradient><linearGradient id="linearGradient6030" x1="14.4" x2="67.355" y1="708.16" y2="674.95" gradientTransform="matrix(.49191 0 0 .49191 36.602 538.84)" gradientUnits="userSpaceOnUse"><stop stop-color="#99b0bf" offset="0"/><stop stop-color="#295878" offset="1"/></linearGradient><linearGradient id="linearGradient6040" x1="288.93" x2="328.13" y1="-254.6" y2="-217.56" gradientTransform="matrix(.5127 -.33029 .35444 .98269 126.34 359.6)" gradientUnits="userSpaceOnUse"><stop stop-color="#5c7f98" offset="0"/><stop stop-color="#88a1b3" offset="1"/></linearGradient><linearGradient id="linearGradient6042" x1="303.22" x2="357.28" y1="559.87" y2="496.74" gradientTransform="matrix(.38789 -.24989 .18698 .5184 -26.866 -160.87)" gradientUnits="userSpaceOnUse"><stop stop-color="#bbcad4" offset="0"/><stop stop-color="#3a6683" offset="1"/></linearGradient><linearGradient id="linearGradient6044" x1="370.76" x2="423.34" y1="583.75" y2="561.82" gradientTransform="matrix(.49191 0 0 .49191 36.602 538.84)" gradientUnits="userSpaceOnUse"><stop stop-color="#98afbe" offset="0"/><stop stop-color="#48718c" offset="1"/></linearGradient><linearGradient id="linearGradient6042-5" x1="303.22" x2="357.28" y1="559.87" y2="496.74" gradientTransform="matrix(.48304 .15199 -.40498 .39794 285.79 -213.02)" gradientUnits="userSpaceOnUse"><stop stop-color="#bbcad4" offset="0"/><stop stop-color="#3a6683" offset="1"/></linearGradient><linearGradient id="linearGradient14053" x1="-222.07" x2="843.84" y1="356.44" y2="-123.56" gradientTransform="matrix(.49191 0 0 .49191 264.02 162.09)" gradientUnits="userSpaceOnUse" xlink:href="#linearGradient6020"/><radialGradient id="radialGradient14055" cx="250.13" cy="-81.288" r="119.01" gradientTransform="matrix(.42682 -.64066 .72264 .48144 326.17 265.74)" gradientUnits="userSpaceOnUse" xlink:href="#radialGradient6014"/><radialGradient id="radialGradient14057" cx="52.735" cy="40.584" r="150.2" gradientTransform="matrix(.85503 -.27445 .25642 .79884 257.7 154.52)" gradientUnits="userSpaceOnUse" xlink:href="#radialGradient6017"/><radialGradient id="radialGradient14059" cx="331.83" cy="-168.94" r="89.533" gradientTransform="matrix(.4927 -.25346 .49588 .96393 309.09 261.07)" gradientUnits="userSpaceOnUse" xlink:href="#radialGradient6011"/><linearGradient id="linearGradient14061" x1="803.7" x2="815.16" y1="-1025.7" y2="-1025.7" gradientUnits="userSpaceOnUse" xlink:href="#linearGradient6030"/><linearGradient id="linearGradient14063" x1="110.32" x2="208.33" y1="-75.466" y2="-75.466" gradientTransform="matrix(.36362 .32668 -.32445 .36944 18.288 835.54)" gradientUnits="userSpaceOnUse" xlink:href="#linearGradient6024"/><linearGradient id="linearGradient14065" x1="104.4" x2="152.84" y1="666.68" y2="630.99" gradientTransform="matrix(.49191 0 0 .49191 36.602 538.84)" gradientUnits="userSpaceOnUse" xlink:href="#linearGradient6026"/><linearGradient id="linearGradient14067" x1="8.4851" x2="81.872" y1="662.36" y2="734.51" gradientTransform="matrix(.49191 0 0 .49191 36.602 538.84)" gradientUnits="userSpaceOnUse" xlink:href="#linearGradient6028"/><linearGradient id="linearGradient14069" x1="14.4" x2="67.355" y1="708.16" y2="674.95" gradientTransform="matrix(.49191 0 0 .49191 36.602 538.84)" gradientUnits="userSpaceOnUse" xlink:href="#linearGradient6030"/><linearGradient id="linearGradient14071" x1="288.93" x2="328.13" y1="-254.6" y2="-217.56" gradientTransform="matrix(.5127 -.33029 .35444 .98269 126.34 359.6)" gradientUnits="userSpaceOnUse" xlink:href="#linearGradient6040"/><linearGradient id="linearGradient14073" x1="303.22" x2="357.28" y1="559.87" y2="496.74" gradientTransform="matrix(.38789 -.24989 .18698 .5184 -26.866 -160.87)" gradientUnits="userSpaceOnUse" xlink:href="#linearGradient6042"/><linearGradient id="linearGradient14075" x1="303.22" x2="357.28" y1="559.87" y2="496.74" gradientTransform="matrix(.48304 .15199 -.40498 .39794 285.79 -213.02)" gradientUnits="userSpaceOnUse" xlink:href="#linearGradient6042-5"/><linearGradient id="linearGradient14077" x1="370.76" x2="423.34" y1="583.75" y2="561.82" gradientTransform="matrix(.49191 0 0 .49191 36.602 538.84)" gradientUnits="userSpaceOnUse" xlink:href="#linearGradient6044"/><linearGradient id="linearGradient14079" x1="126.43" x2="176.58" y1="188.5" y2="188.5" gradientUnits="userSpaceOnUse" xlink:href="#linearGradient6030"/><linearGradient id="linearGradient14081" x1="126.43" x2="176.58" y1="188.5" y2="188.5" gradientTransform="translate(29.322 -39.201)" gradientUnits="userSpaceOnUse" xlink:href="#linearGradient6030"/><linearGradient id="linearGradient14083" x1="130.02" x2="172.62" y1="188.11" y2="188.11" gradientUnits="userSpaceOnUse" xlink:href="#linearGradient6030"/><linearGradient id="linearGradient14085" x1="130.02" x2="172.62" y1="188.11" y2="188.11" gradientTransform="rotate(1.4896 1652.4 1295)" gradientUnits="userSpaceOnUse" xlink:href="#linearGradient6030"/><linearGradient id="linearGradient14087" x1="303.22" x2="357.28" y1="559.87" y2="496.74" gradientTransform="matrix(.48304 .15199 -.40498 .39794 287.7 -212.18)" gradientUnits="userSpaceOnUse" xlink:href="#linearGradient6042-5"/><linearGradient id="linearGradient14089" x1="-611.81" x2="-26.883" y1="-41.626" y2="105.16" gradientTransform="matrix(.49191 0 0 .49191 243.48 169.73)" gradientUnits="userSpaceOnUse" xlink:href="#linearGradient5988"/></defs><g transform="translate(-189.54 49.99)"><path d="m445.84 25.828c1.5165 5.6407 2.9425 10.503 4.5386 16.96 0.55629 4.1024-0.53737 5.9228-1.2541 6.8676 1.2358-6.9483-1.7136-12.898-7.4648-14.87 2.5256-2.4308 4.6518-6.0899 4.1803-8.9577z" fill="#597d96" fill-rule="evenodd"/><g stroke="#000000" stroke-linecap="round" stroke-linejoin="round"><path d="m214.14 102.83 112.93-150.07 37.877 5.5813-28.002 35.628c-6.5251 11.35-48.963 22.555-57.065 34.475l-57.132 75.791z" fill="#295878" stroke-width=".6606"/><path d="m398.75 130.28 114.44-149.47 0.90181 180.55-114.69 150.44z" fill="url(#linearGradient14053)" stroke-width=".6606"/><path d="m279.56 29.194c12.916-15.923 36.995-18.612 56.817-34.293-0.11192 37.711 64.604 92.493 105.53 39.832 5.1965 2.4071 8.1197 6.9032 7.431 14.718l-51.723 69.906c-45.059 12.191-111.93-21.066-118.05-90.163z" fill="url(#radialGradient14055)" stroke-width=".84869"/><path d="m279.76 28.547c3.135 45.513 48.359 101.73 116.44 90.606-0.52679 36.133-28.949 65.435-50.707 73.177-41.051 14.607-127.68-17.571-122.46-88.09z" fill="url(#radialGradient14057)" stroke-width=".6606"/><path d="m364.77-41.546c-0.36525 26.648 31.47 69.505 80.329 58.521-0.0443 11.003 3.1196 10.006-3.8138 18.604-45.664 56.122-109.44-13.287-104.79-40.645z" fill="url(#radialGradient14059)" opacity=".86015" stroke-width=".74407"/><path d="m513.2-19.265-37.731-6.07-28.661 38.188c-6.5537 7.806 7.5943 30.419 2.3841 36.55l-59.44 79.583 8.9048 1.3951z" fill="#235474" stroke-width=".6606"/></g><g transform="translate(170.25 -11.668)" stroke="#000000" stroke-linecap="round" stroke-linejoin="round"><path transform="matrix(.69142 .72246 -.70869 .70552 -1082.8 316.83)" d="m813.63-1023.6c0.73694 9.9684-1.3348 16.013-4.2 16.013s-5.1879-8.1148-5.1879-18.125 2.1278-19.376 4.5548-17.9c1.7977 1.0931 4.1913 11.33 4.8331 20.012z" fill="url(#linearGradient14061)" opacity=".63793" stroke-width=".6766"/><g fill-rule="evenodd"><g transform="rotate(6.8641 6301.8 671.23)" opacity=".7567" stroke-width=".67654"><path d="m90.244 874.58c-9.5436-8.5741-11.199-25.986-5.583-32.381s16.826-2.8567 26.369 5.7174 13.034 22.269 7.887 27.969c-8.5184 8.748-21.467 4.7525-28.673-1.306z" fill="url(#linearGradient14063)"/><path d="m90.818 871.59c-7.7935-7.0017-8.0406-21.296-3.4542-26.519 4.5864-5.2224 14.915-2.8784 22.709 4.1233 7.7935 7.0017 9.8459 19.897 5.2596 25.12-9.6188 8.6052-19.463 1.4981-24.514-2.7244z" fill="url(#linearGradient14065)"/></g><g transform="matrix(.96147 .13887 -.12696 1.0517 148.62 -780.57)" opacity=".76344" stroke-width=".667"><path d="m77.308 897.86c-5.6164 6.3952-21.384 5.4984-30.928-3.0757-9.5436-8.5741-9.4974-22.448-3.8811-28.843s17.285-3.635 26.828 4.9391c9.5436 8.574 13.597 20.585 7.9805 26.98z" fill="url(#linearGradient14067)"/><path d="m75.111 894.75c-4.5864 5.2224-20.071 5.1112-27.865-1.8905-7.7935-7.0017-6.6377-18.828-2.0513-24.051 4.5864-5.2224 15.233-3.4653 23.027 3.5364 7.7935 7.0017 11.476 17.182 6.8897 22.405z" fill="url(#linearGradient14069)"/></g><g stroke-width=".67654"><path d="m219.17 21.196c3.476 9.8681 1.5563 17.301-7.899 23.392s-22.809 1.7461-26.687-9.0079c-3.8786-10.753-2.5213-25.01 6.9343-31.101 9.4556-6.0914 23.949 6.2056 27.652 16.718z" fill="url(#linearGradient14071)" opacity=".7318"/><path d="m217.05 21.363c3.4955 9.6912 1.7408 16.263-6.6638 21.677-8.4043 5.4142-20.645 1.1909-24.14-8.5006-3.4955-9.6912-2.1199-21.422 6.2848-26.836 8.4043-5.4142 21.024 3.9683 24.519 13.659z" fill="url(#linearGradient14073)" opacity=".7318"/><path d="m257.88 48.942c-7.3884 7.6207-21.638 17.042-32.104 13.748-10.466-3.2931-14.336-15.677-6.7652-23.116 7.5709-7.4393 23.813-10.023 34.28-6.7296 10.466 3.2931 11.802 8.6581 4.5898 16.097z" fill="url(#linearGradient14075)" opacity=".7318"/></g></g><g transform="matrix(.68966 -.33244 .33244 .68966 -161.05 -439.86)" opacity=".7318" stroke-width=".88366"><path d="m228.32 819.93c-7.8225 2.9969-16.642 2.9118-16.464-0.12608 0.37456-6.3739 11.227-12.464 25.675-14.408 5.2752-0.77789 7.1401 2.3777 3.4098 6.656-4.2665 4.5223-7.0933 5.3143-12.621 7.8779z" fill="url(#linearGradient14077)" stroke-width=".88366"/></g><g stroke-width=".67654"><path d="m176.05 183.81c0 7.8496-11.49 16.96-26.634 18.752-12.905 1.5266-22.215-5.7662-22.454-13.616 0.0954-19.639 48.317-17.824 49.088-5.1358z" fill="url(#linearGradient14079)" opacity=".62644"/><path d="m205.37 144.61c0 7.8496-11.49 16.96-26.634 18.752-12.905 1.5266-22.215-5.7662-22.454-13.616 0.0954-19.639 48.317-17.824 49.088-5.1358z" fill="url(#linearGradient14081)" opacity=".55364"/><path d="m172.05 181.72c0.53746 6.2969-4.0847 13.974-21.319 18.334-12.598 3.1866-20.185-3.4969-20.185-11.346 0.75227-18.265 40.972-14.898 41.504-6.987z" fill="url(#linearGradient14083)" opacity=".46507"/><path d="m201.3 144.29c1.8374 5.2486-4.3314 12.683-21.674 16.593-12.677 2.858-20.087-4.0204-19.883-11.867 1.2268-18.239 38.544-13.309 41.557-4.726z" fill="url(#linearGradient14085)" opacity=".55364"/></g><path d="m253.02 51.389c-6.7972 5.4248-16.303 13.32-26.769 10.026-10.466-3.2931-12.901-13.565-5.3294-21.005 7.5709-7.4393 22.44-9.784 32.906-6.4907 10.466 3.2931 7.2911 11.006-0.80752 17.469z" fill="url(#linearGradient14087)" fill-rule="evenodd" opacity=".7318" stroke-width=".67654"/></g><path d="m214.25 102.64 9e-3 180.91 185.1 28.34-0.64701-181.59-8.8694-1.3592c-5.6501 104.3-164.95 73.827-167.08-24.989z" fill="url(#linearGradient14089)" stroke="#000000" stroke-linecap="round" stroke-linejoin="round" stroke-width=".6606"/></g><g transform="translate(129.36 49.99)"><path d="m445.84 25.828c1.5165 5.6407 2.9425 10.503 4.5386 16.96 0.55629 4.1024-0.53737 5.9228-1.2541 6.8676 1.2358-6.9483-1.7136-12.898-7.4648-14.87 2.5256-2.4308 4.6518-6.0899 4.1803-8.9577z" fill="#597d96" fill-rule="evenodd"/><g stroke="#000000" stroke-linecap="round" stroke-linejoin="round"><path d="m214.14 102.83 112.93-150.07 37.877 5.5813-28.002 35.628c-6.5251 11.35-48.963 22.555-57.065 34.475l-57.132 75.791z" fill="#295878" stroke-width=".6606"/><path d="m398.75 130.28 114.44-149.47 0.90181 180.55-114.69 150.44z" fill="url(#linearGradient14053)" stroke-width=".6606"/><path d="m279.56 29.194c12.916-15.923 36.995-18.612 56.817-34.293-0.11192 37.711 64.604 92.493 105.53 39.832 5.1965 2.4071 8.1197 6.9032 7.431 14.718l-51.723 69.906c-45.059 12.191-111.93-21.066-118.05-90.163z" fill="url(#radialGradient14055)" stroke-width=".84869"/><path d="m279.76 28.547c3.135 45.513 48.359 101.73 116.44 90.606-0.52679 36.133-28.949 65.435-50.707 73.177-41.051 14.607-127.68-17.571-122.46-88.09z" fill="url(#radialGradient14057)" stroke-width=".6606"/><path d="m364.77-41.546c-0.36525 26.648 31.47 69.505 80.329 58.521-0.0443 11.003 3.1196 10.006-3.8138 18.604-45.664 56.122-109.44-13.287-104.79-40.645z" fill="url(#radialGradient14059)" opacity=".86015" stroke-width=".74407"/><path d="m513.2-19.265-37.731-6.07-28.661 38.188c-6.5537 7.806 7.5943 30.419 2.3841 36.55l-59.44 79.583 8.9048 1.3951z" fill="#235474" stroke-width=".6606"/></g><g transform="translate(170.25 -11.668)" stroke="#000000" stroke-linecap="round" stroke-linejoin="round"><path transform="matrix(.69142 .72246 -.70869 .70552 -1082.8 316.83)" d="m813.63-1023.6c0.73694 9.9684-1.3348 16.013-4.2 16.013s-5.1879-8.1148-5.1879-18.125 2.1278-19.376 4.5548-17.9c1.7977 1.0931 4.1913 11.33 4.8331 20.012z" fill="url(#linearGradient14061)" opacity=".63793" stroke-width=".6766"/><g fill-rule="evenodd"><g transform="rotate(6.8641 6301.8 671.23)" opacity=".7567" stroke-width=".67654"><path d="m90.244 874.58c-9.5436-8.5741-11.199-25.986-5.583-32.381s16.826-2.8567 26.369 5.7174 13.034 22.269 7.887 27.969c-8.5184 8.748-21.467 4.7525-28.673-1.306z" fill="url(#linearGradient14063)"/><path d="m90.818 871.59c-7.7935-7.0017-8.0406-21.296-3.4542-26.519 4.5864-5.2224 14.915-2.8784 22.709 4.1233 7.7935 7.0017 9.8459 19.897 5.2596 25.12-9.6188 8.6052-19.463 1.4981-24.514-2.7244z" fill="url(#linearGradient14065)"/></g><g transform="matrix(.96147 .13887 -.12696 1.0517 148.62 -780.57)" opacity=".76344" stroke-width=".667"><path d="m77.308 897.86c-5.6164 6.3952-21.384 5.4984-30.928-3.0757-9.5436-8.5741-9.4974-22.448-3.8811-28.843s17.285-3.635 26.828 4.9391c9.5436 8.574 13.597 20.585 7.9805 26.98z" fill="url(#linearGradient14067)"/><path d="m75.111 894.75c-4.5864 5.2224-20.071 5.1112-27.865-1.8905-7.7935-7.0017-6.6377-18.828-2.0513-24.051 4.5864-5.2224 15.233-3.4653 23.027 3.5364 7.7935 7.0017 11.476 17.182 6.8897 22.405z" fill="url(#linearGradient14069)"/></g><g stroke-width=".67654"><path d="m219.17 21.196c3.476 9.8681 1.5563 17.301-7.899 23.392s-22.809 1.7461-26.687-9.0079c-3.8786-10.753-2.5213-25.01 6.9343-31.101 9.4556-6.0914 23.949 6.2056 27.652 16.718z" fill="url(#linearGradient14071)" opacity=".7318"/><path d="m217.05 21.363c3.4955 9.6912 1.7408 16.263-6.6638 21.677-8.4043 5.4142-20.645 1.1909-24.14-8.5006-3.4955-9.6912-2.1199-21.422 6.2848-26.836 8.4043-5.4142 21.024 3.9683 24.519 13.659z" fill="url(#linearGradient14073)" opacity=".7318"/><path d="m257.88 48.942c-7.3884 7.6207-21.638 17.042-32.104 13.748-10.466-3.2931-14.336-15.677-6.7652-23.116 7.5709-7.4393 23.813-10.023 34.28-6.7296 10.466 3.2931 11.802 8.6581 4.5898 16.097z" fill="url(#linearGradient14075)" opacity=".7318"/></g></g><g transform="matrix(.68966 -.33244 .33244 .68966 -161.05 -439.86)" opacity=".7318" stroke-width=".88366"><path d="m228.32 819.93c-7.8225 2.9969-16.642 2.9118-16.464-0.12608 0.37456-6.3739 11.227-12.464 25.675-14.408 5.2752-0.77789 7.1401 2.3777 3.4098 6.656-4.2665 4.5223-7.0933 5.3143-12.621 7.8779z" fill="url(#linearGradient14077)" stroke-width=".88366"/></g><g stroke-width=".67654"><path d="m176.05 183.81c0 7.8496-11.49 16.96-26.634 18.752-12.905 1.5266-22.215-5.7662-22.454-13.616 0.0954-19.639 48.317-17.824 49.088-5.1358z" fill="url(#linearGradient14079)" opacity=".62644"/><path d="m205.37 144.61c0 7.8496-11.49 16.96-26.634 18.752-12.905 1.5266-22.215-5.7662-22.454-13.616 0.0954-19.639 48.317-17.824 49.088-5.1358z" fill="url(#linearGradient14081)" opacity=".55364"/><path d="m172.05 181.72c0.53746 6.2969-4.0847 13.974-21.319 18.334-12.598 3.1866-20.185-3.4969-20.185-11.346 0.75227-18.265 40.972-14.898 41.504-6.987z" fill="url(#linearGradient14083)" opacity=".46507"/><path d="m201.3 144.29c1.8374 5.2486-4.3314 12.683-21.674 16.593-12.677 2.858-20.087-4.0204-19.883-11.867 1.2268-18.239 38.544-13.309 41.557-4.726z" fill="url(#linearGradient14085)" opacity=".55364"/></g><path d="m253.02 51.389c-6.7972 5.4248-16.303 13.32-26.769 10.026-10.466-3.2931-12.901-13.565-5.3294-21.005 7.5709-7.4393 22.44-9.784 32.906-6.4907 10.466 3.2931 7.2911 11.006-0.80752 17.469z" fill="url(#linearGradient14087)" fill-rule="evenodd" opacity=".7318" stroke-width=".67654"/></g><path d="m214.25 102.64 9e-3 180.91 185.1 28.34-0.64701-181.59-8.8694-1.3592c-5.6501 104.3-164.95 73.827-167.08-24.989z" fill="url(#linearGradient14089)" stroke="#000000" stroke-linecap="round" stroke-linejoin="round" stroke-width=".6606"/></g><g transform="translate(486.12 375.58)"><ellipse cx="-44.92" cy="-98.798" rx="13.199" ry="13.469" fill="#1f638a" stroke-linecap="round" stroke-linejoin="round" stroke-width="1.0658"/><text x="-51.39423" y="-91.055557" fill="#000000" font-family="'Arial Nova', 'Arial Unicode MS', 'Yu Gothic UI', sans-serif" font-size="12.8px" letter-spacing="0px" stroke-width="1.0667" word-spacing="0px" style="line-height:0%" xml:space="preserve"><tspan x="-51.39423" y="-91.055557" fill="#ffffff" font-family="'Arial Nova', 'Arial Unicode MS', 'Yu Gothic UI', sans-serif" font-size="21.333px" stroke="#ffffff" stroke-width="1.0667" style="line-height:1.25">2</tspan></text></g><g transform="translate(138 375.29)"><ellipse cx="-13.718" cy="-98.798" rx="13.199" ry="13.469" fill="#1f638a" stroke-linecap="round" stroke-linejoin="round" stroke-width="1.0658"/><text x="-19.559933" y="-91.125885" fill="#000000" font-family="'Arial Nova', 'Arial Unicode MS', 'Yu Gothic UI', sans-serif" font-size="12.8px" letter-spacing="0px" stroke-width="1.0667" word-spacing="0px" style="line-height:0%" xml:space="preserve"><tspan x="-19.559933" y="-91.125885" fill="#ffffff" font-family="'Arial Nova', 'Arial Unicode MS', 'Yu Gothic UI', sans-serif" font-size="21.333px" stroke="#ffffff" stroke-width="1.0667" style="line-height:1.25">1</tspan></text></g><g transform="translate(-1090.8 348.83)"><g transform="translate(317.2 -.23596)" stroke-linecap="round" stroke-linejoin="round" stroke-width="2.2677"><g fill="none"><g stroke="#ffcc00"><path d="m1346.8-280.73c-8.491 11.963-2.3925 24.787 0.4778 35.01m-162.64-5.76c8.9825-15.843 34.707-19.79 53.264-35.769l6.8759-6.9935c2.7864-3.2965 7.1314 6.9003 3.4695 11.728-20.473 22.016-46.402 32.649-57.846 47.236-4.4897 6.8132 6.0194 22.77 10.929 16.172"/><path d="m1341.8-237.84c-2.7276-12.821-5.9015-21.617 2.2936-33.361"/><path d="m1333.7-227.32c-0.847-14.705-3.8619-26.528 9.2301-42.089m-141.57 50.342c9.4648-14.074 37.295-33.107 53.149-52.576 4.2411-4.338 11.896 4.5984 8.4654 9.2635"/><path d="m1323.6-214.48c-0.4256-8.9308-0.9778-22.583 1.6437-30.632 1.7774-4.1383 3.1139-6.1298 4.6084-8.4036m-66.962-8.9518c-17.178 20.827-32.857 35.546-49.318 58.657-3.7607 7.4711 12.934 17.359 16.797 10.491"/><path d="m1230.3-193.11c15.777-23.583 26.656-40.98 43.216-62.301 3.4466-4.2785 14.44 1.7469 10.861 5.8117m22.69 56.385c5.7761-18.581-0.066-38.646 13.149-56.519 2.9382-4.6941 12.02-7.6924 9.5469-3.6525"/><path d="m1284.6-249.74c-14.53 21.082-21.495 42.876-37.199 65.969-4.2981 6.6516 13.9 9.781 18.771 4.5369m42.082-66.829c-15.001 22.443-10.804 50.088-23.265 66.519-4.7415 6.2542 13.79 1.0901 14.044-1.9902m-32.789 2.2248c4.4819-5.1512 8.1089-13.99 11.489-24.479 7.1337-19.781 10.935-31.878 18.385-42.804 4.2295-6.0472 15.115-4.3553 12.059 0.58593"/></g><path d="m1189.1-302.02-3.3618 48.512" stroke="#fd0000"/><path d="m1347.2-327.58-0.5665 43.111" stroke="#fd0000"/></g><path d="m1189.2-304.03-2.5974-6.8985c2.6871-1.4281 4.632-1.1856 6.0937 0.14469z" fill="#ff0000" fill-rule="evenodd" stroke="#ff0000"/></g></g><g transform="translate(-1082.8 316.83)"><g transform="translate(-191.91 49.99)" stroke-linecap="round" stroke-linejoin="round" stroke-width="2.2677"><g fill="none"><g stroke="#ffcc00"><path d="m1528.4-296.02c-8.491 11.963-2.3925 24.787 0.4778 35.01m-161.81-5.9093c8.9227-14.051 38.051-21.073 53.264-36.038l6.2787-5.8588 3.8635 11.572"/><path d="m1523.4-253.12c-2.3257-8.5966-3.9193-20.405-0.4297-27.244l2.85-4.8922m-95.726-12.087c-19.618 23.807-44.799 28.812-57.172 47.752-0.07 0.10745 0.029 0.0464-0.04 0.1548l9.8297 16.179"/><path d="m1515.2-242.61c-0.847-14.705-2.1728-26.782 5.7675-36.178m-138.4 45.528c9.4648-14.074 38.1-33.699 53.954-53.167l8.9721 9.0102"/><path d="m1505.2-229.77c-0.4256-8.9308-1.0375-23.837 2.3006-30.751l3.9515-8.2842m-66.328-8.7406c-17.178 20.827-32.893 35.573-49.354 58.684 4.8089 3.679 5.4991 6.1623 16.558 11.656"/><path d="m1412.3-207.35c15.777-23.583 26.745-41.645 43.305-62.966l10.819 4.9672m22.942 56.85c5.7761-18.581 0.053-38.706 13.269-56.579l9.1753-3.6151"/><path d="m1466.5-265.11c-14.53 21.082-21.25 43.551-36.954 66.645 5.277 1.6512 11.443 3.105 18.746 4.3059m42.242-67.548c-15.001 22.443-11.64 53.313-24.042 68.012 6.4051-0.18969 10.355-1.6072 14.104-3.1248m-32.431 2.7025c4.4819-5.1512 6.0785-12.736 9.459-23.225 7.1337-19.781 13.563-33.669 21.013-44.595l11.867 0.23"/></g><path d="m1371.6-317.07-4.1804 49.447" stroke="#fd0000"/><path d="m1528.7-342.87-0.2679 46.515" stroke="#fd0000"/></g><path d="m1371.6-318.49-2.5974-6.8985c2.6871-1.4281 4.632-1.1856 6.0937 0.14469z" fill="#ff0000" fill-rule="evenodd" stroke="#ff0000"/></g></g><g transform="translate(-1082.8 316.83)" display="none"><g transform="translate(-181.54 15.288)" display="inline" fill="none" stroke-linecap="round" stroke-linejoin="round" stroke-width="2.2677"><g stroke="#ffcc00"><path d="m1430.7-326.29-64.016 39.862"/><path d="m1427.5-314.3c-7.8788 19.376-52.695 31.822-60.807 45.268"/><path d="m1437.1-292.34c-1.8187 10.001-42.059 40.301-56.5 59.034"/><path d="m1445.3-283.64c-0.011 0.82127-0.4371 2.3106-1.0467 3.3557-7.7279 13.249-38.84 43.751-50.639 61.379"/><path d="m1455.4-276.2s0.3906 1.924-0.6999 3.4547c-8.8183 12.377-34.989 49.608-45.849 66.167"/><path d="m1466.7-270.53c0.1903 0.74283-0.6303 2.7519-1.5373 4.0703-9.5854 13.934-29.458 55.078-38.206 68.323"/><path d="m1477.9-267.82c0.1481 1.1018-0.319 4.9118-2.4825 7.861-10.321 14.069-20.447 54.328-29.871 66.391"/><path d="m1489.8-267.11c0.5281 0.78505-1.248 5.4185-3.4115 8.3678-10.321 14.069-9.6372 46.812-22.354 65.631"/><path d="m1500.6-270.95c1.0058 5.025-1.5419 8.389-3.4115 11.533-8.9696 15.083-4.401 34.65-11.038 50.767"/><path d="m1510.2-275.17c1.0058 5.025-1.5419 8.389-3.4115 11.533-6.1401 10.325-3.7199 20.931-4.1985 33.281"/><path d="m1523.2-291.72c1.0058 5.025-2.378 10.897-4.2476 14.041-6.1401 10.325-7.11 22.476-5.5582 34.827"/><path d="m1436.4-300.95s-44.699 27.685-64.861 39.947" display="inline"/><path d="m1445.2-287.44s-44.699 27.685-64.861 39.947" display="inline"/><path d="m1455.1-278.15s-41.701 28.023-61.863 40.285" display="inline"/><path d="m1466.4-272.7s-37.837 26.123-56.986 41.087" display="inline"/><path d="m1477.7-269.85s-32.179 26.82-51.327 41.784" display="inline"/><path d="m1489.3-269.2s-26.541 25.405-44.676 42.396" display="inline"/><path d="m1500.4-271.56s-20.545 24.898-37.329 43.325" display="inline"/><path d="m1510.4-276.8s-16.069 23.378-30.572 44.761" display="inline"/><path d="m1520.1-287.82s-12.199 27.347-25.393 50.124" display="inline"/><path d="m1526.1-313.24s-7.7226 36.553-19.397 59.582" display="inline"/><path d="m1526.2-295.17s-5.7491 3.8645-4.2711 12.426c1.2994 7.5262 3.1342 14.985 4.9397 21" display="inline"/></g><g stroke="#fb0300"><path d="m1430.8-358.6-3.1496 44.013"/><path d="m1431.2-326.08-0.025 22.646"/><path d="m1437-300.24 0.1439 7.7822"/><path d="m1445.4-286.89 0.059 3.1372"/><path d="m1455.5-278.06 0.089 2.1519"/><path d="m1466.6-272.48 0.089 2.1519"/><path d="m1477.8-269.92 0.089 2.1519"/><path d="m1489.7-269.08 0.089 2.1519"/><path d="m1500.7-271.91 0.089 2.1519"/><path d="m1510.2-276.64 0.089 2.1519"/><path d="m1366-286.43 0.3128 15.657-1.987 3.8536 2.4732-2.279"/><path d="m1371.1-261.09 0.3128 8.141-1.987 3.8536 2.4732-2.279"/><path d="m1380.6-246.99 0.3128 10.928-1.987 3.8536 2.4732-2.279"/><path d="m1393.4-237.61 0.3128 15.911-1.2269 3.4313 1.7131-1.8567"/><path d="m1408.8-231.76 0.2706 22.414-0.8225 3.3758 1.3087-1.8012"/><path d="m1426.1-227.7-0.028 26.415 0.1032 3.4953 1.3982-1.9804"/><path d="m1444.6-226.27 0.091 29.401 0.1032 3.4953 1.3982-1.9804"/><path d="m1462.8-227.94 0.6882 31.67 0.1032 3.4953 1.3982-1.9804"/><path d="m1479.6-231.76 0.091 31.909"/><path d="m1494.7-237.73-0.028 18.652"/><path d="m1506.5-253.86-0.028 18.652"/><path d="m1515.3-265.32-0.028 18.652"/><path d="m1519.4-294.7 0.2109 43.614"/><path d="m1523.5-299.72 0.091 6.7079"/><path d="m1526.3-312.92-0.2076 11.426"/></g><path d="m1431.3-303.23c-4.9547 14.442-42.841 33.513-60.554 52.953" display="inline" stroke="#ffcc00"/></g></g><g transform="translate(-1082.8 316.83)" display="none"><g transform="translate(137.36 15.964)" stroke-linecap="round" stroke-linejoin="round" stroke-width="2.2677"><g fill="none"><g stroke="#ffcc00"><path d="m1527-297.57-3.716 7.7698c-1.8174 11.497 1.8066 19.603 4.1323 28.199m-101.19-49.598-6.3981 7.5309c-15.974 14.458-46.45 22.596-54.327 36.604 45.003 8.6234 99.388 13.963 150.11 20.586"/><path d="m1521.7-254.44c-2.3257-8.5966-3.4416-19.569 0.048-26.408l3.8934-7.8857m0.8361-8.8383c-33.923-0.84717-78.272-1.1138-96.815-2.2192-14.063 21.414-46.028 31.295-58.558 50.844 35.619 3.8165 85.683 13.568 132.4 16.781"/><path d="m1513.8-244.4c-1.5006-9.0502-1.0446-21.875 2.2939-28.789l3.7126-6.9704m4.658-7.5245c-33.879-0.68829-88.495-1.1631-88.495-1.1631-15.558 21.962-46.682 40.945-55.167 56.554 35.92 5.1488 101.31 14.096 113.06 14.974"/><path d="m1503.5-230.23c-0.1572-17.647-0.5003-26.44 7.0762-40.665m8.1217-8.0022c-30.774-0.56886-59.719 0.29488-73.972-1.1564-17.178 20.827-34.504 38.938-50.965 62.049l91.363 12.728"/><path d="m1487.5-208.62c3.1333-5.2864 1.5158-38.74 13.584-58.043m9.598-4.6874c-7.0263-0.11387-53.369-1.0094-55.928-1.3564-16.56 21.321-29.262 42.958-45.039 66.541l68.462 9.423"/><path d="m1501.2-266.51c-9.075-0.81352-33.899-0.45335-34.966-0.40091-16.56 19.41-21.801 47.241-38.772 69.152 10.279 2.0387 23.557 4.1641 36.405 4.8845m26.405-71.068c-16.076 22.443-12.985 56.351-26.4 71.05l-17.714-2.0652c4.6508-4.1377 8.0632-11.891 11.444-22.38 7.1337-19.781 13.324-35.879 20.774-46.805z"/></g><path d="m1427-311.33c0-0.9555 2.8954-47.032 2.8954-47.032" display="inline" stroke="#fd0000"/><path d="m1445.1-194.05-0.7166-111.79" display="inline" stroke="#fd0000"/></g><path d="m1430-359.31-2.5336-7.7698c1.6746-1.1093 3.4039-1.9271 5.7429 0.50673z" display="inline" fill="#ff0000" fill-rule="evenodd" stroke="#fc0000"/></g></g><g transform="translate(-1082.8 316.83)" display="none"><g transform="translate(-181.54 15.288)" stroke-linecap="round" stroke-linejoin="round" stroke-width="2.2677"><g fill="none" stroke="#ffcc00"><path d="m1366.1-268.17c9.6385-15.113 39.16-22.713 55.133-37.171l6.7564-7.7698c33.114 6.2412 66.43 10.874 99.994 13.513l-4.7295 9.7967c-1.8174 11.497 2.4038 18.767 4.7295 27.363"/><path d="m1522.3-255.27c-2.3257-8.5966-4.0388-18.733-0.5492-25.572l3.8934-7.8857c-33.142-3.9055-61.007-7.35-94.797-12.24-22.548 26.323-46.483 31.521-59.234 50.506 41.871 2.805 95.331 2.49 144.73 3.2682"/><path d="m1514.7-245.36c-1.5006-9.0502-2.0001-20.92 1.3384-27.834l3.7126-6.9704c-36.148-3.6742-48.802-5.3254-82.045-10.838l-6.5841 7.9164c-15.854 16.482-40.551 35.161-50.016 49.234 36.636 1.6852 81.704 1.8564 123.91 2.2567"/><path d="m1504.7-231.92c-1.5006-9.0502-0.082-26.584 3.2561-33.498l3.7126-6.9704c-31.69-4.703-31.352-3.6742-65.492-8.9795-17.178 20.827-34.982 39.057-51.443 62.169l98.648 1.8592"/><path d="m1488.2-210.89c3.1333-5.2864 4.5017-43.876 10.001-50.04l3.5068-7.0762c-31.511-3.4581-14.432-1.8454-46.134-5.5367-16.56 21.321-29.262 42.599-45.039 66.183l74.315 1.4208"/><path d="m1479.1-198.04-51.514-0.67438c16.971-21.911 23.407-50.16 39.967-69.57 0 0 13.172 1.3789 22.724 3.148-15.001 22.443-12.33 56.747-25.745 71.446l-18.749-0.59118c4.6508-4.1377 8.4432-12.567 11.824-23.056 7.1337-19.781 14.339-37.551 21.789-48.477l-0.1282-3.2956"/></g><g><path d="m1478.9-353.74-3.1248-7.0942c1.8463-1.6059 3.7568-2.1217 5.8274 0.0845z" display="inline" fill="#ff0000" fill-rule="evenodd" stroke="#ff0000"/><path d="m1479.3-269.24-0.6364-83.402" display="inline" fill="none" stroke="#fc0000"/><path d="m1366-267.86 1.6721-2.3887-0.4778-49.198" display="inline" fill="none" stroke="#ff0000"/></g></g></g></svg>
