<?xml version="1.0" encoding="UTF-8"?>
<svg version="1.1" viewBox="0 0 460.63 212.6" xmlns="http://www.w3.org/2000/svg">
 <defs>
  <clipPath id="be">
   <path d="m0 0h346v160h-346z"/>
  </clipPath>
  <linearGradient id="g" x1="-5.9594" x2="353.96" y1="76.446" y2="76.446" gradientTransform="matrix(.62166 0 0 .62166 176.21 49.678)" gradientUnits="userSpaceOnUse">
   <stop stop-color="#ffffff" offset="0"/>
   <stop stop-color="#00385e" offset="1"/>
  </linearGradient>
  <clipPath id="bd">
   <path d="m0 0h346v160h-346z"/>
  </clipPath>
  <linearGradient id="f" x1="-.1076" x2="540.9" y1="76.341" y2="76.646" gradientTransform="matrix(.62166 0 0 .62166 176.16 49.541)" gradientUnits="userSpaceOnUse">
   <stop stop-color="#ffffff" offset="0"/>
   <stop stop-color="#00385e" offset="1"/>
  </linearGradient>
  <clipPath id="bc">
   <path d="m0 0h346v160h-346z"/>
  </clipPath>
  <clipPath id="bb">
   <path d="m0 0h346v160h-346z"/>
  </clipPath>
  <clipPath id="ba">
   <path d="m0 0h346v160h-346z"/>
  </clipPath>
  <clipPath id="az">
   <path d="m0 0h346v160h-346z"/>
  </clipPath>
  <clipPath id="ay">
   <path d="m0 0h346v160h-346z"/>
  </clipPath>
  <linearGradient id="e" x1="151.57" x2="310.05" y1="73.896" y2="74.327" gradientTransform="matrix(.62166 0 0 .62166 181.01 51.65)" gradientUnits="userSpaceOnUse">
   <stop stop-color="#ffffff" offset="0"/>
   <stop stop-color="#00385e" offset="1"/>
  </linearGradient>
  <clipPath id="ax">
   <path d="m0 0h346v160h-346z"/>
  </clipPath>
  <clipPath id="aw">
   <path d="m0 0h346v160h-346z"/>
  </clipPath>
  <linearGradient id="d" x1="83.365" x2="206.58" y1="67.193" y2="70.088" gradientTransform="matrix(.62166 0 0 .62166 181.14 51.572)" gradientUnits="userSpaceOnUse">
   <stop stop-color="#ffffff" offset="0"/>
   <stop stop-color="#00385e" offset="1"/>
  </linearGradient>
  <clipPath id="av">
   <path d="m0 0h346v160h-346z"/>
  </clipPath>
  <linearGradient id="c" x1="99.981" x2="265.8" y1="81.631" y2="88.094" gradientTransform="matrix(.62166 0 0 .62166 181.14 51.572)" gradientUnits="userSpaceOnUse">
   <stop stop-color="#ffffff" offset="0"/>
   <stop stop-color="#00385e" offset="1"/>
  </linearGradient>
  <clipPath id="au">
   <path d="m0 0h346v160h-346z"/>
  </clipPath>
  <clipPath id="at">
   <path d="m0 0h346v160h-346z"/>
  </clipPath>
  <clipPath id="as">
   <path d="m0 0h346v160h-346z"/>
  </clipPath>
  <clipPath id="ar">
   <path d="m0 0h346v160h-346z"/>
  </clipPath>
  <clipPath id="aq">
   <path d="m0 0h346v160h-346z"/>
  </clipPath>
  <clipPath id="ap">
   <path d="m0 0h346v160h-346z"/>
  </clipPath>
  <clipPath id="ao">
   <path d="m0 0h346v160h-346z"/>
  </clipPath>
  <clipPath id="an">
   <path d="m0 0h346v160h-346z"/>
  </clipPath>
  <clipPath id="am">
   <path d="m0 0h346v160h-346z"/>
  </clipPath>
  <clipPath id="al">
   <path d="m0 0h346v160h-346z"/>
  </clipPath>
  <clipPath id="ak">
   <path d="m0 0h346v160h-346z"/>
  </clipPath>
  <clipPath id="aj">
   <path d="m0 0h346v160h-346z"/>
  </clipPath>
  <clipPath id="ai">
   <path d="m0 0h346v160h-346z"/>
  </clipPath>
  <clipPath id="ah">
   <path d="m0 0h346v160h-346z"/>
  </clipPath>
  <clipPath id="ag">
   <path d="m0 0h346v160h-346z"/>
  </clipPath>
  <clipPath id="af">
   <path d="m0 0h346v160h-346z"/>
  </clipPath>
  <clipPath id="ae">
   <path d="m0 0h346v160h-346z"/>
  </clipPath>
  <clipPath id="ad">
   <path d="m0 0h346v160h-346z"/>
  </clipPath>
  <clipPath id="ac">
   <path d="m0 0h346v160h-346z"/>
  </clipPath>
  <clipPath id="ab">
   <path d="m0 0h346v160h-346z"/>
  </clipPath>
  <clipPath id="aa">
   <path d="m0 0h346v160h-346z"/>
  </clipPath>
  <clipPath id="z">
   <path d="m0 0h346v160h-346z"/>
  </clipPath>
  <clipPath id="y">
   <path d="m0 0h346v160h-346z"/>
  </clipPath>
  <clipPath id="x">
   <path d="m0 0h346v160h-346z"/>
  </clipPath>
  <clipPath id="w">
   <path d="m0 0h346v160h-346z"/>
  </clipPath>
  <clipPath id="v">
   <path d="m0 0h346v160h-346z"/>
  </clipPath>
  <clipPath id="u">
   <path d="m0 0h346v160h-346z"/>
  </clipPath>
  <clipPath id="t">
   <path d="m0 0h346v160h-346z"/>
  </clipPath>
  <clipPath id="s">
   <path d="m0 0h346v160h-346z"/>
  </clipPath>
  <clipPath id="r">
   <path d="m0 0h346v160h-346z"/>
  </clipPath>
  <clipPath id="q">
   <path d="m0 0h346v160h-346z"/>
  </clipPath>
  <clipPath id="p">
   <path d="m0 0h346v160h-346z"/>
  </clipPath>
  <clipPath id="o">
   <path d="m0 0h346v160h-346z"/>
  </clipPath>
  <clipPath id="n">
   <path d="m0 0h346v160h-346z"/>
  </clipPath>
  <clipPath id="m">
   <path d="m0 0h346v160h-346z"/>
  </clipPath>
  <clipPath id="l">
   <path d="m0 0h346v160h-346z"/>
  </clipPath>
  <clipPath id="k">
   <path d="m0 0h346v160h-346z"/>
  </clipPath>
  <linearGradient id="b" x1="230.64" x2="245.04" y1="958.6" y2="958.64" gradientTransform="matrix(.59444 .029056 .029056 -.59444 -142.72 637.65)" gradientUnits="userSpaceOnUse">
   <stop stop-color="#ffffff" offset="0"/>
   <stop stop-color="#fcfcfc" offset=".2264"/>
   <stop stop-color="#f4f4f4" offset=".3626"/>
   <stop stop-color="#e6e6e6" offset=".475"/>
   <stop stop-color="#d1d1d1" offset=".5744"/>
   <stop stop-color="#b7b7b7" offset=".6652"/>
   <stop stop-color="#979797" offset=".7498"/>
   <stop stop-color="#707070" offset=".8297"/>
   <stop stop-color="#444444" offset=".9057"/>
   <stop stop-color="#121212" offset=".9761"/>
   <stop stop-color="#000000" offset="1"/>
  </linearGradient>
  <linearGradient id="a" x1="56.443" x2="441.5" y1="1001.1" y2="1004.8" gradientTransform="matrix(.75 0 0 -.75 1.7165 788.39)" gradientUnits="userSpaceOnUse">
   <stop stop-color="#ffffff" offset="0"/>
   <stop stop-color="#00385e" offset="1"/>
  </linearGradient>
  <clipPath id="j">
   <path d="m0 0h346v160h-346z"/>
  </clipPath>
  <clipPath id="i">
   <path d="m0 0h346v160h-346z"/>
  </clipPath>
  <clipPath id="h">
   <path d="m0 0h346v160h-346z"/>
  </clipPath>
 </defs>
 <g transform="matrix(1.3333 0 0 1.3333 0 5.9816e-6)">
  <g>
   <g>
    <g>
     <g clip-path="url(#be)" opacity=".99306">
      <g>
       <g>
        <g>
         <path d="m176.39 50.188h159.93v94.027h-159.93z" fill="url(#g)" fill-rule="evenodd" stroke="#4d4d4d" stroke-width=".47569"/>
        </g>
       </g>
      </g>
     </g>
    </g>
   </g>
   <g>
    <g>
     <g clip-path="url(#bd)" opacity=".99306">
      <g>
       <g>
        <g>
         <path d="m336.26 144.08-0.094-64.433-53.809-29.622-30.793-0.121-75.234 50.887 0.082 14.492 54.664 28.813z" fill="url(#f)" fill-rule="evenodd" stroke="#4d4d4d" stroke-linecap="round" stroke-linejoin="round" stroke-miterlimit="10" stroke-width=".47569"/>
        </g>
       </g>
      </g>
     </g>
    </g>
   </g>
   <g>
    <g>
     <g clip-path="url(#bc)" opacity=".99306">
      <g>
       <g>
        <path d="m248.62 57.293 87.602 43.984" fill="none" stroke="#4d4d4d" stroke-linecap="square" stroke-miterlimit="10" stroke-width=".18264"/>
       </g>
      </g>
     </g>
    </g>
   </g>
   <g>
    <g>
     <g clip-path="url(#bb)" opacity=".99306">
      <g>
       <g>
        <path d="m218.91 74.078 117.41 64.863" fill="none" stroke="#4d4d4d" stroke-linecap="square" stroke-miterlimit="10" stroke-width=".18264"/>
       </g>
      </g>
     </g>
    </g>
   </g>
   <g>
    <g>
     <g clip-path="url(#ba)" opacity=".99306">
      <g>
       <path d="m243.53 123.69-10.476-22.864 11.547-37.828 6.629 14.106z" fill="#13385e" fill-rule="evenodd"/>
      </g>
     </g>
    </g>
   </g>
   <g>
    <g>
     <g clip-path="url(#az)" opacity=".99306">
      <g>
       <path d="m243.53 123.69 7.7-46.586 24.375 1.921 7.054 48.512z" fill="#34679b" fill-rule="evenodd"/>
      </g>
     </g>
    </g>
   </g>
   <g>
    <g>
     <g clip-path="url(#ay)" opacity=".99306">
      <g>
       <g>
        <g>
         <path d="m282.51 127.61-7.031-48.511 16.976-11.414 0.242-0.125 18.145 41.246-3.996 2.914z" fill="url(#e)" fill-rule="evenodd" stroke="#4d4d4d" stroke-width=".47569"/>
        </g>
       </g>
      </g>
     </g>
    </g>
   </g>
   <g>
    <g>
     <g clip-path="url(#ax)" opacity=".99306">
      <g>
       <g>
        <path d="m259.99 52.738-15.394 10.258 6.629 14.106 24.375 1.921 17.101-11.539-6.84-13.675-8.98-1.071h-16.891" fill="#d2dadd" stroke="#4d4d4d" stroke-linecap="square" stroke-miterlimit="10" stroke-width=".18264"/>
       </g>
      </g>
     </g>
    </g>
   </g>
   <g>
    <g>
     <g clip-path="url(#aw)" opacity=".99306">
      <g>
       <g>
        <g>
         <path d="m244.6 62.996 6.629 14.106-7.7 46.586-10.476-22.864 11.547-37.828" fill="url(#d)" stroke="#4d4d4d" stroke-linecap="round" stroke-linejoin="round" stroke-miterlimit="10" stroke-width=".47569"/>
        </g>
       </g>
      </g>
     </g>
    </g>
   </g>
   <g>
    <g>
     <g clip-path="url(#av)" opacity=".99306">
      <g>
       <g>
        <g>
         <path d="m275.6 79.023 7.054 48.512-39.129-3.847 7.7-46.586 24.375 1.921" fill="url(#c)" stroke="#4d4d4d" stroke-linecap="square" stroke-linejoin="round" stroke-miterlimit="10" stroke-width=".47569"/>
        </g>
       </g>
      </g>
     </g>
    </g>
   </g>
   <g>
    <g>
     <g clip-path="url(#au)" opacity=".99306">
      <g>
       <g>
        <path d="m292.82 67.484 18.172 41.246-3.847 2.778-24.371 16.027-7.059-48.512 17.105-11.539" fill="none" stroke="#4d4d4d" stroke-linecap="square" stroke-miterlimit="10" stroke-width=".18264"/>
       </g>
      </g>
     </g>
    </g>
   </g>
   <g>
    <g>
     <g clip-path="url(#at)" opacity=".99306">
      <g>
       <g>
        <path d="m246.09 66.844-10.805 38.894" fill="none" stroke="#4d4d4d" stroke-linecap="square" stroke-miterlimit="10" stroke-width=".18264"/>
       </g>
      </g>
     </g>
    </g>
   </g>
   <g>
    <g>
     <g clip-path="url(#as)" opacity=".99306">
      <g>
       <g>
        <path d="m247.8 70.477-9.489 41.886" fill="none" stroke="#4d4d4d" stroke-linecap="square" stroke-miterlimit="10" stroke-width=".18264"/>
       </g>
      </g>
     </g>
    </g>
   </g>
   <g>
    <g>
     <g clip-path="url(#ar)" opacity=".99306">
      <g>
       <g>
        <path d="m249.3 73.898-8.481 43.875" fill="none" stroke="#4d4d4d" stroke-linecap="square" stroke-miterlimit="10" stroke-width=".18264"/>
       </g>
      </g>
     </g>
    </g>
   </g>
   <g>
    <g>
     <g clip-path="url(#aq)" opacity=".99306">
      <g>
       <g>
        <path d="m253.58 124.64 3.844-46.895" fill="none" stroke="#4d4d4d" stroke-linecap="square" stroke-miterlimit="10" stroke-width=".18264"/>
       </g>
      </g>
     </g>
    </g>
   </g>
   <g>
    <g>
     <g clip-path="url(#ap)" opacity=".99306">
      <g>
       <g>
        <path d="m263.84 78.172-0.637 47.465" fill="none" stroke="#4d4d4d" stroke-linecap="square" stroke-miterlimit="10" stroke-width=".18264"/>
       </g>
      </g>
     </g>
    </g>
   </g>
   <g>
    <g>
     <g clip-path="url(#ao)" opacity=".99306">
      <g>
       <g>
        <path d="m269.61 78.813 3.235 47.734" fill="none" stroke="#4d4d4d" stroke-linecap="square" stroke-miterlimit="10" stroke-width=".18264"/>
       </g>
      </g>
     </g>
    </g>
   </g>
   <g>
    <g>
     <g clip-path="url(#an)" opacity=".99306">
      <g>
       <g>
        <path d="m279.88 76.461 10.477 45.945" fill="none" stroke="#4d4d4d" stroke-linecap="square" stroke-miterlimit="10" stroke-width=".18264"/>
       </g>
      </g>
     </g>
    </g>
   </g>
   <g>
    <g>
     <g clip-path="url(#am)" opacity=".99306">
      <g>
       <g>
        <path d="m283.94 73.684 13.226 44.332" fill="none" stroke="#4d4d4d" stroke-linecap="square" stroke-miterlimit="10" stroke-width=".18264"/>
       </g>
      </g>
     </g>
    </g>
   </g>
   <g>
    <g>
     <g clip-path="url(#al)" opacity=".99306">
      <g>
       <g>
        <path d="m288.43 70.477 15.25 43.359" fill="none" stroke="#4d4d4d" stroke-miterlimit="10" stroke-width=".18264"/>
       </g>
      </g>
     </g>
    </g>
   </g>
   <g>
    <g>
     <g clip-path="url(#ak)" opacity=".99306">
      <g>
       <g>
        <path d="m241.71 72.543 7.59 16.098 28.222 2.992 19.938-13.649" fill="none" stroke="#4d4d4d" stroke-miterlimit="10" stroke-width=".18264"/>
       </g>
      </g>
     </g>
    </g>
   </g>
   <g>
    <g>
     <g clip-path="url(#aj)" opacity=".99306">
      <g>
       <g>
        <path d="m238.82 82.016 8.555 18.168 31.855 3.203 22.739-15.102" fill="none" stroke="#4d4d4d" stroke-linecap="square" stroke-miterlimit="10" stroke-width=".18264"/>
       </g>
      </g>
     </g>
    </g>
   </g>
   <g>
    <g>
     <g clip-path="url(#ai)" opacity=".99306">
      <g>
       <g>
        <path d="m235.83 91.633 9.621 20.09 35.5 3.875 25.555-17.071" fill="none" stroke="#4d4d4d" stroke-linecap="square" stroke-miterlimit="10" stroke-width=".18264"/>
       </g>
      </g>
     </g>
    </g>
   </g>
   <g>
    <g>
     <g clip-path="url(#ah)" opacity=".99306">
      <g>
       <g>
        <path d="m259.99 52.738-15.394 10.258 6.629 14.106 24.375 1.921 17.101-11.539-6.84-13.675-8.98-1.071h-16.891" fill="#d2dadd" stroke="#4d4d4d" stroke-linecap="round" stroke-linejoin="round" stroke-miterlimit="10" stroke-width=".47569"/>
       </g>
      </g>
     </g>
    </g>
   </g>
   <g>
    <g>
     <g clip-path="url(#ag)" opacity=".99306">
      <g>
       <g>
        <path d="m253.58 57.016 30.149 16.668" fill="none" stroke="#4d4d4d" stroke-linecap="square" stroke-miterlimit="10" stroke-width=".18264"/>
       </g>
      </g>
     </g>
    </g>
   </g>
   <g>
    <g>
     <g clip-path="url(#af)" opacity=".99306">
      <g>
       <g>
        <path d="m251.23 77.102 34.636-23.293" fill="none" stroke="#4d4d4d" stroke-linecap="square" stroke-miterlimit="10" stroke-width=".18264"/>
       </g>
      </g>
     </g>
    </g>
   </g>
   <g>
    <g>
     <g clip-path="url(#ae)" opacity=".99306">
      <g>
       <g>
        <path d="m236.18 90.707-46.125 31.125" fill="none" stroke="#4d4d4d" stroke-linecap="square" stroke-miterlimit="10" stroke-width=".18264"/>
       </g>
      </g>
     </g>
    </g>
   </g>
   <g>
    <g>
     <g clip-path="url(#ad)" opacity=".99306">
      <g>
       <g>
        <path d="m188.16 93.5 89.285 50.617" fill="none" stroke="#4d4d4d" stroke-linecap="square" stroke-miterlimit="10" stroke-width=".18264"/>
       </g>
      </g>
     </g>
    </g>
   </g>
   <g>
    <g>
     <g clip-path="url(#ac)" opacity=".99306">
      <g>
       <g>
        <path d="m320.78 144.15 15.278-11.281" fill="none" stroke="#4d4d4d" stroke-linecap="square" stroke-miterlimit="10" stroke-width=".18264"/>
       </g>
      </g>
     </g>
    </g>
   </g>
   <g>
    <g>
     <g clip-path="url(#ab)" opacity=".99306">
      <g>
       <g>
        <path d="m320.87 70.527-20.039 15.161" fill="none" stroke="#4d4d4d" stroke-linecap="square" stroke-miterlimit="10" stroke-width=".18264"/>
       </g>
      </g>
     </g>
    </g>
   </g>
   <g>
    <g>
     <g clip-path="url(#aa)" opacity=".99306">
      <g>
       <g>
        <path d="m221.38 138.37 22.144-14.683" fill="none" stroke="#4d4d4d" stroke-linecap="square" stroke-miterlimit="10" stroke-width=".18264"/>
       </g>
      </g>
     </g>
    </g>
   </g>
   <g>
    <g>
     <g clip-path="url(#z)" opacity=".99306">
      <g>
       <g>
        <path d="m244.48 64.215c-7.921 5.117-8.621 5.703-16.699 11.012-6.59 4.332-9.289 7.671-5.801 14.976 3.743 7.844 5.957 17.059 14.153 20.961 7.207 3.434 17.176 2.719 24.879 3.453 7.601 0.723 16.379 2.731 23.98 0.891 8.449-2.047 15.926-8.684 22.871-13.481 7.031-4.851 8.938-9.082 5.176-17.004-3.352-7.054-7.867-14.457-10.105-21.925-1.567-5.219-10.208-5.438-14.543-5.395" fill="none" stroke="#ffcc00" stroke-linecap="round" stroke-linejoin="round" stroke-width="2.126"/>
       </g>
      </g>
     </g>
    </g>
   </g>
   <g>
    <g>
     <g clip-path="url(#y)" opacity=".99306">
      <g>
       <g>
        <path d="m269.2 144.22 66.934-44.039" fill="none" stroke="#4d4d4d" stroke-linecap="square" stroke-miterlimit="10" stroke-width=".18264"/>
       </g>
      </g>
     </g>
    </g>
   </g>
   <g>
    <g>
     <g clip-path="url(#x)" opacity=".99306">
      <g>
       <path d="m262.56 114.72h1.281l-1.711-25.004-0.641 0.641 0.215-1.282h-0.855v0.641l0.855-0.641-0.855 0.641z" fill="#e42522" fill-rule="evenodd"/>
      </g>
     </g>
    </g>
   </g>
   <g>
    <g>
     <g clip-path="url(#w)" opacity=".99306">
      <g>
       <path d="m261.7 89.07-0.215 1.282 35.707 4.488-0.644-0.641h1.285v-0.64h-0.641l0.641 0.64-0.641-0.64z" fill="#e42522" fill-rule="evenodd"/>
      </g>
     </g>
    </g>
   </g>
   <g>
    <g>
     <g clip-path="url(#v)" opacity=".99306">
      <g>
       <g>
        <path d="m248.18 52.344-65.367 43.945 17.515 11.66 22.957-14.336-1.355-19.859" fill="none" stroke="#ffcc00" stroke-linecap="round" stroke-linejoin="round" stroke-width="2.126"/>
       </g>
      </g>
     </g>
    </g>
   </g>
   <g>
    <g>
     <g clip-path="url(#u)" opacity=".99306">
      <g>
       <g>
        <path d="m229.58 52.539 0.871 11.43" fill="none" stroke="#ffcc00" stroke-linecap="round" stroke-linejoin="round" stroke-width="2.126"/>
       </g>
      </g>
     </g>
    </g>
   </g>
   <g>
    <g>
     <g clip-path="url(#t)" opacity=".99306">
      <g>
       <g>
        <path d="m221.93 73.074-0.289-5.422 113.61-9.996" fill="none" stroke="#e2001a" stroke-linecap="round" stroke-linejoin="round" stroke-width="2.1916"/>
       </g>
      </g>
     </g>
    </g>
   </g>
   <g>
    <g>
     <g clip-path="url(#s)" opacity=".99306">
      <g>
       <g>
        <path d="m226.23 111.2 12.883 1.118" fill="none" stroke="#ffcc00" stroke-linecap="round" stroke-linejoin="round" stroke-width="2.126"/>
       </g>
      </g>
     </g>
    </g>
   </g>
   <g>
    <g>
     <g clip-path="url(#r)" opacity=".99306">
      <g>
       <g>
        <path d="m233.75 109.9-13.789 9.868 19.879 11.132 22.934-15.972" fill="none" stroke="#ffcc00" stroke-linecap="round" stroke-linejoin="round" stroke-width="2.126"/>
       </g>
      </g>
     </g>
    </g>
   </g>
   <g>
    <g>
     <g clip-path="url(#q)" opacity=".99306">
      <g>
       <g>
        <path d="m273.04 116 26.512 4.195" fill="none" stroke="#ffcc00" stroke-linecap="round" stroke-linejoin="round" stroke-width="2.126"/>
       </g>
      </g>
     </g>
    </g>
   </g>
   <g>
    <g>
     <g clip-path="url(#p)" opacity=".99306">
      <g>
       <g>
        <path d="m335.4 90.172-71.847 48.066 7.625 4.731" fill="none" stroke="#ffcc00" stroke-linecap="round" stroke-linejoin="round" stroke-miterlimit="10" stroke-width="2.126"/>
       </g>
      </g>
     </g>
    </g>
   </g>
   <g>
    <g>
     <g clip-path="url(#o)" opacity=".99306">
      <g>
       <g>
        <path d="m278.43 143.31 57.136-38.348" fill="none" stroke="#ffcc00" stroke-linecap="round" stroke-linejoin="round" stroke-miterlimit="10" stroke-width="2.126"/>
       </g>
      </g>
     </g>
    </g>
   </g>
   <g>
    <g>
     <g clip-path="url(#n)" opacity=".99306">
      <g>
       <g>
        <path d="m224.95 85.863 1.938 25.86" fill="none" stroke="#e2001a" stroke-linecap="round" stroke-linejoin="round" stroke-width="2.1916"/>
       </g>
      </g>
     </g>
    </g>
   </g>
   <g>
    <g>
     <g clip-path="url(#m)" opacity=".99306">
      <g>
       <path d="m226.16 111.62 0.02 0.277 1.441 0.129-0.098-1.097z" fill="#e2001a" fill-rule="evenodd"/>
      </g>
     </g>
    </g>
   </g>
   <g>
    <g>
     <g clip-path="url(#l)" opacity=".99306">
      <g>
       <path d="m299 120.83 1.234 0.149-0.308-3.516-1.41 0.109 0.152 2.082 0.062 1.137z" fill="#e2001a" fill-rule="evenodd"/>
      </g>
     </g>
    </g>
   </g>
   <g transform="matrix(-.076421 -1 -.88106 .067331 0 0)">
    <path d="m-107.31-246.54-6.187-6.486v4.225l-10.297-2e-3v4.522l10.297 2e-3v4.07l6.187-6.331" fill="#e2001a" stroke="#000000" stroke-linecap="square" stroke-miterlimit="10" stroke-width=".50531"/>
   </g>
   <g>
    <g>
     <g clip-path="url(#k)" opacity=".99306">
      <g>
       <g>
        <path d="m263.08 114.52-1.609-25.059 35.629 4.758 2.308 25.41" fill="none" stroke="#e2001a" stroke-linecap="round" stroke-linejoin="round" stroke-miterlimit="10" stroke-width="2.1916"/>
       </g>
      </g>
     </g>
    </g>
   </g>
   <g transform="matrix(.080611 1 -.88106 .071023 0 0)">
    <path d="m139.05-326.61-6.183-6.484 1e-3 4.221-10.294 2e-3v4.518l10.293 2e-3v4.07l6.183-6.329" fill="#e2001a" stroke="#000000" stroke-linecap="square" stroke-miterlimit="10" stroke-width=".50514"/>
   </g>
   <g>
    <path d="m29.754 67.816c0.226 4.641-1.902 7.461-6.539 7.688-4.641 0.23-10.027-2.227-10.254-6.863l-0.402-8.274c1.254 0.805 3.464 3.141 8.398-0.41 3.754-2.699 6.176-1.121 8.395-0.41z" fill="none" stroke="#000000" stroke-linecap="round" stroke-linejoin="round" stroke-width=".56258"/>
   </g>
   <g>
    <g>
     <path d="m14.68 105.3c0.226 4.637 4.172 8.215 8.808 7.988 4.641-0.226 8.211-4.172 7.985-8.809l-2.118-44.839c-1.171 0.922-3.144 3.464-8.402 0.41-3.996-2.321-6.254-0.512-8.39 0.41z" fill="url(#b)" stroke="#000000" stroke-linecap="round" stroke-linejoin="round" stroke-width=".47569"/>
    </g>
   </g>
   <g>
    <g>
     <path d="m167.09 105.63c-10.266-2.945-22.231-3.973-32.817-4.91-9.8-0.867-27.043-2.453-36.859-3.098-3.461-0.226-2.328-0.258-4.855 1.746-5.18 4.102-9.961 7.903-15.137 12.016-10.688 8.5-22.449 16.976-33.141 25.476 3.922 0.145 7.942-0.625 12.051-0.582 5.644 0.059 11.402 0.946 16.801 1.422 9.98 0.883 19.758 3.235 29.539 5.379 2.426 0.531 5.015 1.457 7.554 2.188 1.036 0.297 2.063 0.914 3.071 0.91 5.691-0.031 41.832-0.063 53.797-0.016 0-13.324-0.012-27.148-0.012-40.472" fill="url(#a)" fill-rule="evenodd" stroke="#4d4d4d" stroke-width=".47569"/>
    </g>
   </g>
   <g>
    <path d="m20.848 55.766 3.293 57.82" fill="none" stroke="#e2001a" stroke-linecap="round" stroke-linejoin="round" stroke-miterlimit="10" stroke-width="2.126"/>
   </g>
   <g>
    <path d="m166.01 137.04c-17.992-5.57-33.426-11.23-52.067-13.652-9.191-1.195-18.199-2.11-27.445-2.801-4.762-0.355-9.543-0.375-14.316-0.375-0.926 0-2.739-0.055-3.508-0.078 0 0-0.879 0.234-1.621 0.949-1.918 1.832-5.973 4.36-8.481 6.676 17.074 0.773 34.395 1.851 51.223 5.574 15.945 3.524 29.168 6.246 44.641 11.719" fill="none" stroke="#ffcc00" stroke-linecap="round" stroke-linejoin="round" stroke-miterlimit="10" stroke-width="2.126"/>
   </g>
   <g>
    <path d="m165.9 116.98c-17.993-5.57-15.219-4.898-33.743-8.132-9.14-1.594-18.324-2.055-27.57-2.75-4.766-0.356-9.422-0.426-14.191-0.426-0.926 0-2.743-0.051-3.508-0.078 0 0-0.457 0.304-1.199 1.019-1.922 1.832-5.907 4.641-8.411 6.961 17.071 0.77 33.899 1.496 50.727 5.219 15.945 3.527 22.711 4.406 38.184 9.879" fill="none" stroke="#ffcc00" stroke-linecap="round" stroke-linejoin="round" stroke-miterlimit="10" stroke-width="2.126"/>
   </g>
   <g transform="matrix(.064049 1 -.88106 .056431 0 0)">
    <path d="m94.581-19.362-6.192-6.494v4.226h-10.305l-2e-3 4.526 10.309 1e-3 -4e-3 4.078 6.194-6.337" fill="#e2001a" stroke="#000000" stroke-linecap="square" stroke-miterlimit="10" stroke-width=".50575"/>
   </g>
   <g>
    <g>
     <g clip-path="url(#j)" opacity=".99306">
      <g>
       <g>
        <path d="m23.918 109.57c0.508 8.867 0.641 18.489 1.148 27.352 25.18-1.426 56.184-1.188 80.188 6.25" fill="none" stroke="#ffcc00" stroke-linecap="round" stroke-linejoin="round" stroke-miterlimit="10" stroke-width="2.126"/>
       </g>
      </g>
     </g>
    </g>
   </g>
   <g>
    <g>
     <g clip-path="url(#i)" opacity=".99306">
      <g>
       <g>
        <path d="m165.74 106.69c-13.297-3.394-54.09-6.543-80.906-8.32l-9.215 0.094" fill="none" stroke="#ffcc00" stroke-linecap="round" stroke-linejoin="round" stroke-miterlimit="10" stroke-width="2.6078"/>
       </g>
      </g>
     </g>
    </g>
   </g>
   <g>
    <g>
     <g clip-path="url(#h)" opacity=".99306">
      <g>
       <g>
        <path d="m72.328 53.375 3.106 44.664" fill="none" stroke="#e2001a" stroke-linecap="round" stroke-linejoin="round" stroke-miterlimit="10" stroke-width="2.126"/>
       </g>
      </g>
     </g>
    </g>
   </g>
   <g transform="matrix(-.076421 -1 -.88106 .067331 0 0)">
    <path d="m-70.271-77.19-6.187-6.486-1e-3 4.225-10.297-2e-3v4.522l10.297 2e-3 1e-3 4.07 6.187-6.331" fill="#e2001a" stroke="#000000" stroke-linecap="square" stroke-miterlimit="10" stroke-width=".50531"/>
   </g>
   <path d="m37.078 14.531c0 5.578-4.433 10.102-9.898 10.102-5.469 0-9.903-4.524-9.903-10.102s4.434-10.101 9.903-10.101c5.465 0 9.898 4.523 9.898 10.101z" fill="#1f638a"/>
   <text transform="translate(22.797 20.286)" fill="#ffffff" font-family="'Arial Nova', 'Arial Unicode MS', 'Yu Gothic UI', sans-serif" font-size="15px"><tspan x="0" y="0">1</tspan></text>
   <g>
    <path d="m28.422 20.285h-1.313v-8.406c-0.668 0.625-1.554 1.156-2.656 1.594v-1.282c1.52-0.718 2.555-1.613 3.11-2.687h0.859z" fill="none" stroke="#ffffff" stroke-width=".8"/>
   </g>
   <path d="m191.75 14.809c0 5.578-4.434 10.101-9.899 10.101-5.468 0-9.902-4.523-9.902-10.101 0-5.582 4.434-10.102 9.902-10.102 5.465 0 9.899 4.52 9.899 10.102z" fill="#1f638a"/>
   <text transform="translate(177.47 20.561)" fill="#ffffff" font-family="'Arial Nova', 'Arial Unicode MS', 'Yu Gothic UI', sans-serif" font-size="15px"><tspan x="0" y="0">2</tspan></text>
   <g>
    <path d="m185.05 20.563h-7.11c0-0.602 0.207-1.211 0.625-1.829 0.426-0.625 1.219-1.406 2.375-2.343 0.707-0.563 1.336-1.157 1.891-1.782 0.563-0.625 0.844-1.25 0.844-1.875 0-0.539-0.196-0.988-0.578-1.343-0.387-0.352-0.871-0.532-1.453-0.532-0.594 0-1.094 0.184-1.5 0.547-0.399 0.367-0.594 0.907-0.594 1.625l-1.36-0.156c0.082-1 0.438-1.766 1.063-2.297 0.633-0.531 1.441-0.797 2.422-0.797 1.051 0 1.867 0.293 2.453 0.875 0.594 0.586 0.891 1.289 0.891 2.11 0 0.687-0.25 1.386-0.75 2.093-0.493 0.7-1.477 1.641-2.954 2.829-0.781 0.617-1.296 1.148-1.546 1.593h5.281z" fill="none" stroke="#ffffff" stroke-width=".8"/>
   </g>
  </g>
 </g>
</svg>
