<?xml version="1.0" encoding="UTF-8" standalone="no"?>
<svg xmlns:inkscape="http://www.inkscape.org/namespaces/inkscape" xmlns:sodipodi="http://sodipodi.sourceforge.net/DTD/sodipodi-0.dtd" xmlns:xlink="http://www.w3.org/1999/xlink" xmlns="http://www.w3.org/2000/svg" xmlns:svg="http://www.w3.org/2000/svg" xmlns:rdf="http://www.w3.org/1999/02/22-rdf-syntax-ns#" xmlns:cc="http://creativecommons.org/ns#" xmlns:dc="http://purl.org/dc/elements/1.1/" width="130mm" height="70.312492mm" id="svg4253" version="1.1" inkscape:version="1.2.2 (732a01da63, 2022-12-09)" sodipodi:docname="3D_restmaterialbearbeitung_mehrere_aufmasse.svg" inkscape:export-filename="C:\_data\Dokumentation\hyperMILL\trunk\Grafiken\hm\models\3D_restmaterialbearbeitung_mehrere_aufmasse.png" inkscape:export-xdpi="200" inkscape:export-ydpi="200">
  <title id="title2986">Abbildung für OPEN MIND Softwaredokumentation</title>
  <defs id="defs4255">
    <linearGradient id="linearGradient17780-7">
      <stop id="stop17782-4" offset="0" style="stop-color:#ffffff;stop-opacity:1;"/>
      <stop id="stop17784-0" offset="1" style="stop-color:#00385e;stop-opacity:1;"/>
    </linearGradient>
    <linearGradient inkscape:collect="always" xlink:href="#linearGradient17780-7" id="linearGradient22766" x1="177.1713" y1="910.83313" x2="294.095" y2="956.9046" gradientUnits="userSpaceOnUse"/>
    <linearGradient inkscape:collect="always" xlink:href="#linearGradient17780-7" id="linearGradient1002" gradientUnits="userSpaceOnUse" gradientTransform="matrix(1.8984174,0,0,1.8984174,-399.97482,-681.78995)" x1="273.96741" y1="835.15369" x2="332.04196" y2="839.25946"/>
    <linearGradient id="linearGradient16653" x1="237.03999" x2="385.35001" y1="481.70999" y2="483.5" gradientTransform="matrix(1.0667,0,0,1.0667,-198.13,450.01)" gradientUnits="userSpaceOnUse">
      <stop stop-color="#fff" offset="0" id="stop10884"/>
      <stop stop-color="#00385e" offset="1" id="stop10886"/>
    </linearGradient>
    <linearGradient id="linearGradient16655" x1="237.03999" x2="385.03" y1="481.70999" y2="483.5" gradientTransform="matrix(1.0667,0,0,1.0667,-198.13,450.01)" gradientUnits="userSpaceOnUse">
      <stop offset="0" id="stop10889"/>
      <stop stop-opacity="0" offset="1" id="stop10891"/>
    </linearGradient>
    <linearGradient id="linearGradient16659" x1="94.102997" x2="139.94" y1="918.76001" y2="918.76001" gradientTransform="matrix(1.6361,0,0,1.6352,6.4864,-567.7)" gradientUnits="userSpaceOnUse">
      <stop stop-color="#fff" offset="0" id="stop10894"/>
      <stop stop-color="#FCFCFC" offset=".2264" id="stop10896"/>
      <stop stop-color="#F4F4F4" offset=".3626" id="stop10898"/>
      <stop stop-color="#E6E6E6" offset=".475" id="stop10900"/>
      <stop stop-color="#D1D1D1" offset=".5744" id="stop10902"/>
      <stop stop-color="#B7B7B7" offset=".6652" id="stop10904"/>
      <stop stop-color="#979797" offset=".7498" id="stop10906"/>
      <stop stop-color="#707070" offset=".8297" id="stop10908"/>
      <stop stop-color="#444" offset=".9057" id="stop10910"/>
      <stop stop-color="#121212" offset=".9761" id="stop10912"/>
      <stop offset="1" id="stop10914"/>
    </linearGradient>
  </defs>
  <sodipodi:namedview id="base" pagecolor="#ffffff" bordercolor="#666666" borderopacity="1.0" inkscape:pageopacity="0.0" inkscape:pageshadow="2" inkscape:zoom="0.96459445" inkscape:cx="441.63638" inkscape:cy="165.35447" inkscape:document-units="mm" inkscape:current-layer="layer1" showgrid="false" width="180px" units="mm" inkscape:window-width="1920" inkscape:window-height="1010" inkscape:window-x="953" inkscape:window-y="-6" inkscape:window-maximized="1" showguides="true" inkscape:guide-bbox="true" inkscape:document-rotation="0" inkscape:snap-global="false" inkscape:showpageshadow="2" inkscape:pagecheckerboard="0" inkscape:deskcolor="#d1d1d1">
    <sodipodi:guide orientation="1,0" position="177.17129,177.50273" id="guide2982" inkscape:locked="false"/>
    <sodipodi:guide orientation="0,1" position="-22.539029,17.74079" id="guide2986" inkscape:locked="false"/>
    <sodipodi:guide orientation="1,0" position="17.723214,270.2232" id="guide2985" inkscape:locked="false"/>
    <sodipodi:guide orientation="1,0" position="620.07583,270.72087" id="guide2987" inkscape:locked="false"/>
    <sodipodi:guide orientation="0,1" position="50.065686,301.15172" id="guide2988" inkscape:locked="false"/>
  </sodipodi:namedview>
  <metadata id="metadata4258">
    <rdf:RDF>
      <cc:Work rdf:about="">
        <dc:format>image/svg+xml</dc:format>
        <dc:type rdf:resource="http://purl.org/dc/dcmitype/StillImage"/>
        <dc:title>Abbildung für OPEN MIND Softwaredokumentation</dc:title>
        <dc:creator>
          <cc:Agent>
            <dc:title>OPEN MIND Technologies AG</dc:title>
          </cc:Agent>
        </dc:creator>
        <dc:rights>
          <cc:Agent>
            <dc:title>Alle Rechte vorbehalten.</dc:title>
          </cc:Agent>
        </dc:rights>
        <dc:publisher>
          <cc:Agent>
            <dc:title>Technische Redaktion</dc:title>
          </cc:Agent>
        </dc:publisher>
      </cc:Work>
    </rdf:RDF>
  </metadata>
  <g inkscape:label="Ebene 1" inkscape:groupmode="layer" id="layer1" transform="translate(0,-786.6142)">
    <line id="line505" y2="997.38892" x2="358.99432" y1="989.77393" x1="291.42059" stroke-miterlimit="10" style="fill:none;stroke:#4d4d4d;stroke-width:0.634252;stroke-linecap:square;stroke-miterlimit:4;stroke-dasharray:none"/>
    <path transform="matrix(1.6130077,0,0,1.6130077,-14.36696,794.38706)" style="fill:#6e8ea4;fill-opacity:1;stroke:#4d4d4d;stroke-width:0.393211;stroke-linecap:round;stroke-linejoin:round;stroke-miterlimit:4" d="m 232.036,125.886 -70.40527,23.04965 0.15827,-18.76765 70.279,-22.862 v 0 z" id="polygon507" inkscape:connector-curvature="0" sodipodi:nodetypes="cccccc"/>
    <path id="polygon509" style="opacity:1;fill:#c1cfd8;fill-opacity:1;stroke:#4d4d4d;stroke-width:0.393211;stroke-linecap:square;stroke-miterlimit:4;stroke-dasharray:none" transform="matrix(1.6130077,0,0,1.6130077,-14.36696,794.38706)" d="M 10.219,113.323 161.877,130.38 154.525,107.165 19.698,91.947 v 0 z"/>
    <path id="path513" d="m 17.472199,942.42891 156.977911,17.91245 60.43456,6.73269 98.39992,-32.44565 -40.86716,-4.63094 -58.84091,19.43351 c -9.56675,2.89858 -19.87871,2.55823 -29.71967,1.50494 L 46.272451,932.6686 17.472199,942.42891" stroke-miterlimit="10" inkscape:connector-curvature="0" style="opacity:0.6;fill:#99b2cc;stroke:#4d4d4d;stroke-width:0.634252;stroke-linecap:square;stroke-miterlimit:4;stroke-dasharray:none"/>
    <polyline id="polyline515" points="   56.195,42.946 37.672,85.683 135.606,97.054 120.355,50.255 56.195,42.946 56.195,42.946  " stroke-miterlimit="10" style="opacity:1;fill:#547a93;fill-opacity:0.639216;stroke:#4d4d4d;stroke-width:0.393211;stroke-linecap:square;stroke-miterlimit:4;stroke-dasharray:none" transform="matrix(1.6130077,0,0,1.6130077,-14.36696,794.38706)"/>
    <path id="polyline517" style="opacity:1;fill:#537a93;fill-opacity:0.639216;stroke:#4d4d4d;stroke-width:0.393211;stroke-linecap:square;stroke-miterlimit:4;stroke-dasharray:none" transform="matrix(1.6130077,0,0,1.6130077,-14.36696,794.38706)" d="m 157.382,43.175 32.917,40.917 -36.867,12.136 -15.039,-46.871 18.989,-6.182 v 0"/>
    <path id="path519" d="m 179.73916,875.39231 c 9.72644,1.65656 19.76257,1.11136 29.32125,-1.27751 l 24.00317,75.37424 c -9.45545,2.66308 -19.29963,2.93729 -28.97929,1.44526 l -24.34513,-75.54199 v 0" stroke-miterlimit="10" inkscape:connector-curvature="0" style="opacity:1;fill:url(#linearGradient22766);fill-opacity:1;stroke:#4d4d4d;stroke-width:0.634252;stroke-linecap:square;stroke-miterlimit:4;stroke-dasharray:none"/>
    <path id="path521" d="M 2.7599558,977.24568" stroke-miterlimit="10" inkscape:connector-curvature="0" style="fill:none;stroke:#4d4d4d;stroke-width:0.634252;stroke-linecap:square;stroke-miterlimit:4;stroke-dasharray:none"/>
    <path id="polygon523" style="opacity:1;fill:#c1cfd8;fill-opacity:1;stroke:#4d4d4d;stroke-width:0.393211;stroke-linecap:square;stroke-miterlimit:4;stroke-dasharray:none" transform="matrix(1.6130077,0,0,1.6130077,-14.36696,794.38706)" d="m 161.877,130.38 -7.352,-23.32 61.004,-20.116 16.539,20.362 z"/>
    <path transform="matrix(1.6130077,0,0,1.6130077,-14.36696,794.38706)" style="fill:#6e8ea4;fill-opacity:1;stroke:#4d4d4d;stroke-width:0.393211;stroke-linecap:round;stroke-linejoin:round;stroke-miterlimit:4" d="m 161.754,130.38 -151.488,-16.979 -0.054,18.74 151.43888,16.79465 z" id="polygon526" inkscape:connector-curvature="0" sodipodi:nodetypes="ccccc"/>
    <path transform="matrix(1.6130077,0,0,1.6130077,-14.36696,794.38706)" style="fill:none;stroke:#4d4d4d;stroke-width:0.393211;stroke-linecap:round;stroke-linejoin:round;stroke-miterlimit:4;stroke-dasharray:none" d="m 232.036,125.886 -70.40863,23.04965 0.16163,-18.76765 70.279,-22.862 v 0 z" id="polygon530" inkscape:connector-curvature="0" sodipodi:nodetypes="cccccc"/>
    <polygon id="polygon532" points="161.877,130.38 154.525,107.165 19.698,91.947 10.219,113.323 " stroke-miterlimit="10" style="fill:none;stroke:#4d4d4d;stroke-width:0.393211;stroke-linecap:square;stroke-miterlimit:4;stroke-dasharray:none" transform="matrix(1.6130077,0,0,1.6130077,-14.36696,794.38706)"/>
    <path id="path534" d="m 76.645386,863.48831 40.383264,-13.32506 122.00629,13.86542 -29.7487,9.77321 c -9.7458,2.73889 -20.01098,3.38087 -29.97453,1.47752 L 76.645386,863.48831 v 0" stroke-miterlimit="10" inkscape:connector-curvature="0" style="fill:#547a93;fill-opacity:0.639216;stroke:#4d4d4d;stroke-width:0.634961;stroke-linecap:square;stroke-miterlimit:4;stroke-dasharray:none"/>
    <path id="path536" d="m 17.472199,942.42891 156.977911,17.91245 60.43456,6.73269 98.39992,-32.44565 -40.86716,-4.63094 -58.84091,19.43351 c -9.56675,2.89858 -19.87871,2.55823 -29.71967,1.50494 L 46.272451,932.6686 17.472199,942.42891" stroke-miterlimit="10" inkscape:connector-curvature="0" style="fill:none;stroke:#4d4d4d;stroke-width:0.634252;stroke-linecap:square;stroke-miterlimit:4;stroke-dasharray:none"/>
    <polyline id="polyline538" points="   56.195,42.946 37.672,85.683 135.606,97.054 120.355,50.255 56.195,42.946 56.195,42.946  " stroke-miterlimit="10" style="fill:none;stroke:#4d4d4d;stroke-width:0.393211;stroke-linecap:square;stroke-miterlimit:4;stroke-dasharray:none" transform="matrix(1.6130077,0,0,1.6130077,-14.36696,794.38706)"/>
    <polyline id="polyline540" points="   157.382,43.175 190.299,84.092 153.432,96.228 138.393,49.357 157.382,43.175 157.382,43.175  " stroke-miterlimit="10" style="fill:none;stroke:#4d4d4d;stroke-width:0.393211;stroke-linecap:square;stroke-miterlimit:4;stroke-dasharray:none" transform="matrix(1.6130077,0,0,1.6130077,-14.36696,794.38706)"/>
    <path id="path542" d="m 179.73916,875.39231 c 9.72644,1.65656 19.76257,1.11136 29.32125,-1.27751 l 24.00317,75.37424 c -9.45545,2.66308 -19.29963,2.93729 -28.97929,1.44526 l -24.34513,-75.54199 v 0" stroke-miterlimit="10" inkscape:connector-curvature="0" style="fill:none;stroke:#4d4d4d;stroke-width:0.634252;stroke-linecap:square;stroke-miterlimit:4;stroke-dasharray:none"/>
    <path id="path544" d="M 2.7599558,977.24568" stroke-miterlimit="10" inkscape:connector-curvature="0" style="fill:none;stroke:#4d4d4d;stroke-width:0.634252;stroke-linecap:square;stroke-miterlimit:4;stroke-dasharray:none"/>
    <polygon id="polygon546" points="215.529,86.944 232.068,107.306 161.877,130.38 154.525,107.06 " stroke-miterlimit="10" style="fill:none;stroke:#4d4d4d;stroke-width:0.393211;stroke-linecap:square;stroke-miterlimit:4;stroke-dasharray:none" transform="matrix(1.6130077,0,0,1.6130077,-14.36696,794.38706)"/>
    <line id="line549" y2="854.35547" x2="291.75772" y1="913.30927" x1="291.75772" stroke-miterlimit="10" style="fill:none;stroke:#e2001a;stroke-width:2.12598;stroke-linecap:square;stroke-miterlimit:4;stroke-dasharray:none"/>
    <path id="path2343-1-7" d="m 179.97603,875.89103 c 9.00715,1.53616 20.17829,0.57745 29.03261,-1.63743 l 23.77366,74.60812 c -8.75587,2.46874 -19.82285,2.91061 -28.78857,1.52988 l -23.95291,-74.50057" stroke-miterlimit="10" inkscape:connector-curvature="0" style="opacity:0.799622;fill:url(#linearGradient1002);fill-opacity:1;stroke:#4d4d4d;stroke-width:0.634961;stroke-linecap:square;stroke-miterlimit:10;stroke-dasharray:none" sodipodi:nodetypes="ccccc"/>
    <path id="path551" d="m 43.298065,928.75705 2.04852,4.92774 158.386065,18.20279 c 8.68766,1.1646 21.36429,1.40493 30.96975,-2.17433 l 58.67768,-19.14786 c -0.0835,-0.71046 11.80873,-3.17745 -1.84623,-2.26436 l -58.18477,18.6943 c -8.61346,3.17117 -21.28363,3.47765 -30.96168,1.78883 l -154.866481,-16.72851 1.630751,-2.99051 152.95184,16.84302 c 10.02162,0.82425 20.20776,2.27273 29.8842,-1.08555 l 54.4981,-17.56136 c 6.22243,-2.41957 5.06173,-10.5837 5.2719,-13.95358" stroke-miterlimit="10" inkscape:connector-curvature="0" style="fill:none;stroke:#ffcc00;stroke-width:2.12598;stroke-linecap:round;stroke-linejoin:round;stroke-miterlimit:4;stroke-dasharray:none;stroke-opacity:1" sodipodi:nodetypes="cccccccccccccc"/>
    <line id="line553" y2="928.75708" x2="43.298065" y1="858.50732" x1="43.298065" stroke-miterlimit="10" style="fill:none;stroke:#e2001a;stroke-width:1.34291;stroke-linecap:square;stroke-miterlimit:4;stroke-dasharray:none"/>
    <path id="path558" d="m 485.1697,851.21249 c 0,31.98433 -25.92587,57.90697 -57.90859,57.90697 -31.97949,0 -57.90536,-25.92264 -57.90536,-57.90697 0,-31.98595 25.92587,-57.90859 57.90536,-57.90859 31.98272,0 57.90859,25.92264 57.90859,57.90859 z" stroke-miterlimit="10" inkscape:connector-curvature="0" style="fill:#ffffff;stroke:#ffffff;stroke-width:0.634252;stroke-miterlimit:4;stroke-dasharray:none"/>
    <path sodipodi:nodetypes="cccccccccccccccccccccccccccccccccccc" inkscape:connector-curvature="0" id="polygon561" d="m 370.24897,858.52625 -0.36938,-3.04052 -0.22743,-2.98245 0.14952,-3.99742 0.1113,-2.86954 0.25808,-2.78567 0.39841,-2.75501 0.53875,-2.67114 0.6823,-2.58404 0.79683,-2.5292 0.91135,-2.47113 1.05168,-2.35983 1.27242,-2.55268 1.25169,-2.21628 1.33719,-2.13078 1.45009,-2.04529 1.37291,-2.21556 1.59204,-1.87432 1.67753,-1.73398 1.70656,-1.67592 1.79205,-1.53397 2.74137,-0.91276 v 0 l 53.4083,65.43004 -55.73909,19.46255 -3.71837,-2.36911 -2.41629,-3.40829 -2.16143,-3.38086 -1.96142,-3.35183 -1.73559,-3.32441 -1.50817,-3.29538 -1.33557,-3.23892 -1.10975,-3.20988 -0.90812,-3.18408 -0.74037,-3.12439 z" style="opacity:1;fill:#537a93;fill-opacity:0.639216;stroke:#4d4d4d;stroke-width:0.634252;stroke-linecap:square;stroke-miterlimit:4;stroke-dasharray:none"/>
    <path sodipodi:nodetypes="cccccccc" inkscape:connector-curvature="0" id="polygon563" d="m 444.36198,906.9907 2.72138,-1.91827 c 13.70801,-4.58344 25.33495,-15.24695 31.34074,-26.36623 v 0 l -34.6103,-4.37609 -55.63259,19.18648 2.62966,2.47042 c 21.06852,12.08855 23.28337,16.18943 53.55111,11.00369 z" style="opacity:1;fill:#99b2cb;fill-opacity:0.6;stroke:#4d4d4d;stroke-width:0.634252;stroke-linecap:square;stroke-miterlimit:4;stroke-dasharray:none;stroke-opacity:1"/>
    <line id="line566" y2="796.67993" x2="444.63321" y1="823.34296" x1="444.63321" stroke-miterlimit="10" style="fill:none;stroke:#e2001a;stroke-width:2.12598;stroke-linecap:round;stroke-linejoin:round;stroke-miterlimit:4;stroke-dasharray:none"/>
    <path id="path568" d="m 374.47182,874.23902 55.24752,-14.89375 c 15.72682,-3.40667 14.10898,-23.63218 14.91387,-36.00233" stroke-miterlimit="10" inkscape:connector-curvature="0" style="fill:none;stroke:#ffcc00;stroke-width:2.12598;stroke-linecap:round;stroke-linejoin:round;stroke-miterlimit:4;stroke-dasharray:none;stroke-opacity:1" sodipodi:nodetypes="ccc"/>
    <path id="path570" d="m 376.0121,877.31365 44.47965,-12.58407 c 15.453,-3.98718 28.77079,2.40329 37.54878,7.72138 l -4.81967,-0.45164" stroke-miterlimit="10" inkscape:connector-curvature="0" style="fill:none;stroke:#ffcc00;stroke-width:2.12598;stroke-linecap:round;stroke-linejoin:round;stroke-miterlimit:4;stroke-dasharray:none;stroke-opacity:1" sodipodi:nodetypes="cccc"/>
    <path id="path572" d="m 379.45222,882.87078 43.75867,-12.61072 c 7.82863,-1.42612 15.48984,-0.66227 23.53213,1.58763" stroke-miterlimit="10" inkscape:connector-curvature="0" style="fill:none;stroke:#ffcc00;stroke-width:2.12598;stroke-linecap:square;stroke-miterlimit:4;stroke-dasharray:none;stroke-opacity:1" sodipodi:nodetypes="ccc"/>
    <path id="path574" d="m 381.08758,885.46703 43.3911,-12.15141 c 4.6261,-1.50978 13.00406,-2.94222 17.59307,-1.3163" stroke-miterlimit="10" inkscape:connector-curvature="0" style="fill:none;stroke:#ffcc00;stroke-width:2.12598;stroke-linecap:round;stroke-linejoin:round;stroke-miterlimit:4;stroke-dasharray:none;stroke-opacity:1" sodipodi:nodetypes="ccc"/>
    <path id="path576" d="m 382.95222,888.07565 57.46297,-15.47468 c 4.24866,-0.4952 8.52797,-0.70005 12.80406,-0.60327 -10.85571,-5.62372 -22.31558,-6.89414 -32.04541,-4.45294 l -43.5716,12.5816" stroke-miterlimit="10" inkscape:connector-curvature="0" style="fill:none;stroke:#ffcc00;stroke-width:2.12598;stroke-linecap:round;stroke-linejoin:round;stroke-miterlimit:4;stroke-dasharray:none;stroke-opacity:1" sodipodi:nodetypes="ccccc"/>
    <path id="path579" d="M 361.09876,895.09436" inkscape:connector-curvature="0" style="fill:#165489;stroke-width:0.393211;stroke-miterlimit:4;stroke-dasharray:none"/>
    <path id="path581" d="m 485.1697,851.21249 c 0,31.98433 -25.92587,57.90697 -57.90859,57.90697 -31.97949,0 -57.90536,-25.92264 -57.90536,-57.90697 0,-31.98595 25.92587,-57.90859 57.90536,-57.90859 31.98272,0 57.90859,25.92264 57.90859,57.90859 z" stroke-miterlimit="10" inkscape:connector-curvature="0" style="fill:none;stroke:#4d4d4d;stroke-width:1.65543307;stroke-linecap:round;stroke-linejoin:round;stroke-miterlimit:4;stroke-dasharray:none;stroke-opacity:1"/>
    <circle id="circle583" r="12.915" cy="78.955002" cx="187.08501" stroke-miterlimit="10" style="fill:none;stroke:#4d4d4d;stroke-width:0.46863106;stroke-linecap:round;stroke-linejoin:round;stroke-miterlimit:4;stroke-dasharray:none;stroke-opacity:1" transform="matrix(1.6130077,0,0,1.6130077,-14.36696,794.38706)"/>
    <path d="M 305.51054,912.07442 370.95915,861.369 c -2.2022,4.92809 6.02439,20.48577 10.30515,25.48709 z" fill="#4d4d4d" stroke="#4d4d4d" stroke-width="1.4394" id="path110-1" style="opacity:0.477663;stroke:none" sodipodi:nodetypes="cccc"/>
  </g>
</svg>
