<?xml version="1.0" encoding="UTF-8" standalone="no"?>
<svg
   version="1.1"
   viewBox="0 0 460.63 212.6"
   id="svg122"
   sodipodi:docname="WDB_drehwerkzeuge_werkzeugwinkel.svg"
   inkscape:version="1.3.2 (091e20e, 2023-11-25, custom)"
   xmlns:inkscape="http://www.inkscape.org/namespaces/inkscape"
   xmlns:sodipodi="http://sodipodi.sourceforge.net/DTD/sodipodi-0.dtd"
   xmlns="http://www.w3.org/2000/svg"
   xmlns:svg="http://www.w3.org/2000/svg"
   xmlns:rdf="http://www.w3.org/1999/02/22-rdf-syntax-ns#"
   xmlns:cc="http://creativecommons.org/ns#"
   xmlns:dc="http://purl.org/dc/elements/1.1/">
  <sodipodi:namedview
     id="namedview1"
     pagecolor="#ffffff"
     bordercolor="#666666"
     borderopacity="1.0"
     inkscape:showpageshadow="2"
     inkscape:pageopacity="0.0"
     inkscape:pagecheckerboard="0"
     inkscape:deskcolor="#d1d1d1"
     inkscape:zoom="3.3572336"
     inkscape:cx="340.30995"
     inkscape:cy="148.18748"
     inkscape:window-width="3840"
     inkscape:window-height="2036"
     inkscape:window-x="3348"
     inkscape:window-y="-12"
     inkscape:window-maximized="1"
     inkscape:current-layer="svg122" />
  <title
     id="title2">Abbildung f체r OPEN MIND Softwaredokumentation</title>
  <defs
     id="defs50">
    <linearGradient
       id="a"
       x1="209.09"
       x2="239.85"
       y1="100.81"
       y2="100.46"
       gradientTransform="matrix(0.41331,0.60546,-0.63811,0.4356,124.06,-29.287)"
       gradientUnits="userSpaceOnUse">
      <stop
         stop-color="#ffffff"
         offset="0"
         id="stop4" />
      <stop
         stop-color="#fcfcfc"
         offset=".2264"
         id="stop6" />
      <stop
         stop-color="#f4f4f4"
         offset=".3626"
         id="stop8" />
      <stop
         stop-color="#e6e6e6"
         offset=".475"
         id="stop10" />
      <stop
         stop-color="#d1d1d1"
         offset=".5744"
         id="stop12" />
      <stop
         stop-color="#b7b7b7"
         offset=".6652"
         id="stop14" />
      <stop
         stop-color="#979797"
         offset=".7498"
         id="stop16" />
      <stop
         stop-color="#707070"
         offset=".8297"
         id="stop18" />
      <stop
         stop-color="#444444"
         offset=".9057"
         id="stop20" />
      <stop
         stop-color="#121212"
         offset=".9761"
         id="stop22" />
      <stop
         stop-color="#000000"
         offset="1"
         id="stop24" />
    </linearGradient>
    <linearGradient
       id="b"
       x1="209.09"
       x2="239.85"
       y1="100.81"
       y2="100.46"
       gradientTransform="matrix(0.73308,-3.3301e-5,3.5094e-5,0.77262,171.11,60.085)"
       gradientUnits="userSpaceOnUse">
      <stop
         stop-color="#ffffff"
         offset="0"
         id="stop27" />
      <stop
         stop-color="#fcfcfc"
         offset=".2264"
         id="stop29" />
      <stop
         stop-color="#f4f4f4"
         offset=".3626"
         id="stop31" />
      <stop
         stop-color="#e6e6e6"
         offset=".475"
         id="stop33" />
      <stop
         stop-color="#d1d1d1"
         offset=".5744"
         id="stop35" />
      <stop
         stop-color="#b7b7b7"
         offset=".6652"
         id="stop37" />
      <stop
         stop-color="#979797"
         offset=".7498"
         id="stop39" />
      <stop
         stop-color="#707070"
         offset=".8297"
         id="stop41" />
      <stop
         stop-color="#444444"
         offset=".9057"
         id="stop43" />
      <stop
         stop-color="#121212"
         offset=".9761"
         id="stop45" />
      <stop
         stop-color="#000000"
         offset="1"
         id="stop47" />
    </linearGradient>
  </defs>
  <metadata
     id="metadata52">
    <rdf:RDF>
      <cc:Work
         rdf:about="">
        <dc:format>image/svg+xml</dc:format>
        <dc:type
           rdf:resource="http://purl.org/dc/dcmitype/StillImage" />
        <dc:title>Abbildung f체r OPEN MIND Softwaredokumentation</dc:title>
        <dc:creator>
          <cc:Agent>
            <dc:title>OPEN MIND Technologies AG</dc:title>
          </cc:Agent>
        </dc:creator>
        <dc:rights>
          <cc:Agent>
            <dc:title>Alle Rechte vorbehalten.</dc:title>
          </cc:Agent>
        </dc:rights>
        <dc:publisher>
          <cc:Agent>
            <dc:title>Technische Redaktion</dc:title>
          </cc:Agent>
        </dc:publisher>
      </cc:Work>
    </rdf:RDF>
  </metadata>
  <g
     stroke="#000000"
     stroke-width="0.63425"
     id="g62"
     transform="translate(0,-70.866)">
    <path
       d="m 189.68,191.92 c -2.3048,-3.0984 -5.8156,-5.4246 -11.024,-6.6921 -11.986,-2.9168 -14.822,-11.639 -14.934,-21.876 l -72.953,50.367 29.794,43.5 73.046,-50.086 c 0.0111,-5.952 -0.96569,-11.229 -3.929,-15.212 z"
       color="#000000"
       fill="#ffffff"
       stroke-linecap="round"
       stroke-linejoin="round"
       id="path54" />
    <path
       d="m 178.72,185.33 c 1.6187,-12.171 -5.1197,-18.11 -15,-21.974"
       color="#000000"
       fill="none"
       stroke-linecap="round"
       stroke-linejoin="round"
       id="path56" />
    <path
       d="m 90.741,213.56 29.868,43.658 -15.54,10.719 c 0,0 -32.085,-2.2201 -47.339,-6.3849 -8.8045,-2.4038 -25.044,-10.612 -25.044,-10.612 -2.3674,-1.7869 -4.0787,-3.7316 -2.6968,-6.4211 l 29.91,-20.42 11.099,3.0465 z"
       fill="none"
       id="path58" />
    <path
       d="m 63.489,244.42 c -0.033,0.53332 -1.2494,1.0872 -1.2494,1.0872 l -21.12,12.792 c 0,0 -0.54659,0.33937 -0.85158,0.37436 -0.28473,0.0326 -0.83078,-0.16303 -0.83078,-0.16303 l -21.922,-10.087 c 0,0 -1.1846,-0.44617 -1.2034,-0.96531 -0.0205,-0.56586 1.2279,-1.2621 1.2279,-1.2621 l 21.6,-12.688 c 0,0 0.75097,-0.41424 1.1579,-0.43401 0.3685,-0.0179 1.0492,0.29101 1.0492,0.29101 l 21.121,10.033 c 0,0 1.0517,0.53331 1.0215,1.0226 z"
       fill="#ffdd00"
       stroke-linecap="round"
       stroke-linejoin="round"
       id="path60" />
  </g>
  <path
     d="m 182.55,116.234 c 0.85365,0.54364 5.6772,2.9208 8.0488,7.2403 2.7844,5.0714 2.5147,12.513 2.4856,12.701 l -72.249,49.828 -12.396,-18.985 z"
     fill="url(#a)"
     id="path64"
     style="fill:url(#a)" />
  <path
     d="M 198.16,100.714 55.28,197.76"
     fill="none"
     stroke="#000000"
     stroke-dasharray="5.07402, 1.2685, 0.634252, 1.2685"
     stroke-width="0.63425"
     id="path66" />
  <path
     d="M 204.71,174.974 H 0.77"
     fill="none"
     stroke="#000000"
     stroke-dasharray="5.07402, 1.2685, 0.634252, 1.2685"
     stroke-linecap="round"
     stroke-linejoin="round"
     stroke-width="0.63425"
     id="path68" />
  <path
     d="m 175.31345,168.27519 h -1.2156 v 1.8719 h -1.00443 v -1.8719 h -3.85225 v -0.90742 l 3.78376,-5.61001 h 1.07292 v 5.57006 h 1.2156 z m -2.22003,-0.94737 v -2.0317 q 0,-0.3196 0.006,-0.66772 0.0114,-0.35384 0.0228,-0.68485 0.0114,-0.33671 0.0228,-0.62777 0.0171,-0.29106 0.0228,-0.4851 h -0.0514 q -0.0399,0.11414 -0.10272,0.25682 -0.0571,0.13697 -0.13126,0.27964 -0.0685,0.13697 -0.14268,0.26823 -0.0742,0.13126 -0.13697,0.22258 l -2.34559,3.46987 z m 5.56435,-2.29993 q 0.565,0 1.0501,0.15979 0.4908,0.15409 0.85034,0.46227 0.36525,0.30818 0.57071,0.76475 0.20545,0.45656 0.20545,1.0558 0,0.6506 -0.19404,1.16994 -0.19404,0.51934 -0.57641,0.87888 -0.38237,0.35954 -0.94737,0.55358 -0.55929,0.18834 -1.28979,0.18834 -0.29105,0 -0.57641,-0.0285 -0.27964,-0.0285 -0.54216,-0.0856 -0.25682,-0.0514 -0.49081,-0.13696 -0.23399,-0.0856 -0.42232,-0.19975 v -0.98161 q 0.18833,0.13126 0.43944,0.23399 0.25682,0.10273 0.53646,0.17121 0.27965,0.0685 0.55929,0.10843 0.28535,0.0343 0.52505,0.0343 0.45085,0 0.80469,-0.10273 0.35384,-0.10843 0.59924,-0.33101 0.2454,-0.22257 0.37666,-0.55929 0.13126,-0.33671 0.13126,-0.79898 0,-0.81611 -0.50221,-1.24414 -0.50222,-0.43373 -1.461,-0.43373 -0.15409,0 -0.33672,0.0171 -0.17692,0.0114 -0.35954,0.0342 -0.17692,0.0228 -0.34242,0.0514 -0.1598,0.0228 -0.27965,0.0456 l -0.51363,-0.3253 0.31389,-3.92643 h 3.93785 v 0.94736 h -3.03614 l -0.22258,2.39125 q 0.18263,-0.0342 0.47939,-0.0742 0.30248,-0.0399 0.71338,-0.0399 z m 4.02917,-1.5409 q 0,-0.77045 0.52504,-1.28408 0.52505,-0.51934 1.27267,-0.51934 0.75904,0 1.27838,0.52504 0.52504,0.52505 0.52504,1.27838 0,0.74762 -0.52504,1.26696 -0.52505,0.51934 -1.27838,0.51934 -0.74191,0 -1.27267,-0.50793 -0.52504,-0.51363 -0.52504,-1.27837 z m 0.70196,0 q 0,0.45085 0.3253,0.77616 0.33101,0.31959 0.78186,0.31959 0.46227,0 0.77616,-0.3253 0.31389,-0.3253 0.31389,-0.77045 0,-0.45656 -0.31389,-0.77616 -0.31389,-0.3253 -0.77616,-0.3253 -0.45656,0 -0.78186,0.3196 -0.3253,0.31959 -0.3253,0.78186 z"
     id="text72"
     aria-label="45째" />
  <g
     stroke="#000000"
     id="g84"
     transform="translate(0,-70.866)">
    <g
       stroke-linecap="round"
       stroke-linejoin="round"
       id="g80">
      <path
         transform="matrix(0.030705,-0.045449,0.045449,0.030705,43.251,248.38)"
         d="m 33.965,-82.693 a 30.474,30.474 0 1 1 -60.948,0 30.474,30.474 0 1 1 60.948,0 z"
         fill="#fa0000"
         stroke-miterlimit="9.25"
         stroke-width="6.0748"
         id="path74" />
      <path
         d="m 332.28,90.645 c -3.8584,0.15686 -7.759,1.7451 -11.742,5.3322 -9.1665,8.2554 -17.969,5.6804 -26.488,0.001 l 0.47175,88.65 52.725,-0.0845 -0.18729,-88.568 c -4.9097,-3.3647 -9.8185,-5.5327 -14.779,-5.331 z"
         color="#000000"
         fill="#ffffff"
         stroke-width="0.63425"
         id="path76" />
      <path
         d="m 320.65,95.986 c -9.1396,-8.1984 -17.844,-5.9813 -26.605,10e-4"
         color="#000000"
         fill="none"
         stroke-width="0.63425"
         id="path78" />
    </g>
    <path
       d="m 294.37,184.56 52.898,-0.0559 0.0925,18.878 c 0,0 -19.922,25.248 -31.962,35.5 -6.9491,5.9167 -22.884,14.702 -22.884,14.702 -2.8105,0.94795 -5.3815,1.265 -6.8238,-1.3926 l -0.003,-36.216 8.7736,-7.4498 z"
       fill="none"
       stroke-width="0.63425"
       id="path82" />
  </g>
  <g
     id="g94"
     transform="translate(0,-70.866)">
    <g
       id="path86">
      <path
         style="color:#000000;fill:#ffdd00;stroke-linecap:round;stroke-linejoin:round;-inkscape-stroke:none"
         d="m 304.49,224.47 c 0.42189,0.32792 0.19356,1.6448 0.19356,1.6448 l -1.3417,24.656 c 0,0 -0.0279,0.64278 -0.17089,0.91441 -0.13357,0.25357 -0.60302,0.59426 -0.60302,0.59426 l -20.69,12.419 c 0,0 -1.0363,0.72684 -1.4757,0.44969 -0.47892,-0.30209 -0.35012,-1.7257 -0.35012,-1.7257 l 1.6973,-24.993 c 0,0 0.0812,-0.85379 0.2943,-1.201 0.19297,-0.31445 0.83187,-0.70253 0.83187,-0.70253 l 20.194,-11.788 c 0,0 1.0334,-0.56802 1.4205,-0.26716 z"
         id="path1" />
      <path
         style="color:#000000;fill:#000000;stroke-linecap:round;stroke-linejoin:round;-inkscape-stroke:none"
         d="m 304.08203,224.06836 c -0.19406,0.014 -0.37965,0.0655 -0.54883,0.12305 -0.33836,0.11516 -0.61718,0.26953 -0.61718,0.26953 a 0.31715671,0.31715671 0 0 0 -0.006,0.004 l -20.19532,11.78711 a 0.31715671,0.31715671 0 0 0 -0.004,0.004 c 0,0 -0.17058,0.10225 -0.36719,0.24805 -0.19661,0.14579 -0.42264,0.31796 -0.57031,0.55859 -0.15778,0.25707 -0.21992,0.56834 -0.26953,0.83984 -0.0496,0.27151 -0.0703,0.49805 -0.0703,0.49805 a 0.31715671,0.31715671 0 0 0 0,0.008 l -1.69726,24.99219 c -5e-4,0.005 -0.0355,0.37192 -0.006,0.79297 0.0149,0.21208 0.0462,0.43883 0.11328,0.65234 0.0671,0.21351 0.16846,0.43141 0.38867,0.57032 0.21033,0.13266 0.44118,0.1268 0.64258,0.0898 0.2014,-0.037 0.39236,-0.1108 0.56445,-0.19141 0.33324,-0.15607 0.58473,-0.33195 0.60157,-0.34375 l 0.0195,-0.0117 20.66992,-12.4082 a 0.31715671,0.31715671 0 0 0 0.0234,-0.0156 c 0,0 0.1278,-0.0918 0.27343,-0.21875 0.14564,-0.12697 0.31294,-0.27387 0.42383,-0.48438 0.11557,-0.21953 0.14715,-0.45701 0.17383,-0.66601 0.0265,-0.20794 0.0331,-0.37716 0.0332,-0.37891 v -0.002 L 305,226.13281 c 0.005,-0.0322 0.058,-0.33214 0.0625,-0.71289 0.002,-0.2003 -0.008,-0.41561 -0.0547,-0.62305 -0.0293,-0.13097 -0.12615,-0.24544 -0.20312,-0.36523 a 0.31715671,0.31715671 0 0 0 0,-0.002 h -0.002 c -0.0444,-0.0686 -0.0459,-0.15327 -0.11718,-0.20899 -5.1e-4,-3.9e-4 5.1e-4,-0.002 0,-0.002 a 0.31715671,0.31715671 0 0 0 -0.01,0 c -0.18687,-0.14047 -0.40279,-0.1642 -0.59375,-0.15039 z m 0.0449,0.63281 c 0.10858,-0.008 0.16335,0.0159 0.16797,0.0195 0.0133,0.0104 0.0643,0.0812 0.0937,0.21289 0.0295,0.13171 0.0411,0.30861 0.0391,0.47852 -0.004,0.33982 -0.0566,0.64844 -0.0566,0.64844 a 0.31715671,0.31715671 0 0 0 -0.004,0.0371 l -1.3418,24.65625 a 0.31715671,0.31715671 0 0 0 0,0.004 c 0,0 -0.006,0.14783 -0.0293,0.32813 -0.023,0.18029 -0.078,0.39907 -0.10547,0.45117 -0.0227,0.0431 -0.15681,0.194 -0.27929,0.30078 -0.11844,0.10325 -0.21594,0.17479 -0.22266,0.17969 -2.3e-4,1.7e-4 -0.008,0.006 -0.008,0.006 l -20.66602,12.40234 a 0.31715671,0.31715671 0 0 0 -0.0195,0.0137 c 0,0 -0.24158,0.16786 -0.52539,0.30078 -0.1419,0.0665 -0.29171,0.12121 -0.4082,0.14258 -0.11649,0.0214 -0.18008,0.004 -0.18945,-0.002 -0.0192,-0.0121 -0.0815,-0.0862 -0.125,-0.22461 -0.0435,-0.13838 -0.0712,-0.32428 -0.084,-0.50586 -0.0255,-0.36316 0.004,-0.69922 0.004,-0.69922 a 0.31715671,0.31715671 0 0 0 0.002,-0.008 l 1.69727,-24.99219 c 6.7e-4,-0.007 0.019,-0.19768 0.0625,-0.43555 0.0443,-0.24219 0.13022,-0.53094 0.18554,-0.62109 0.0453,-0.0738 0.23517,-0.254 0.40625,-0.38086 0.17108,-0.12686 0.32032,-0.2168 0.32032,-0.2168 l 20.18164,-11.78125 0.006,-0.004 c 0.006,-0.003 0.23609,-0.12823 0.50781,-0.2207 0.13756,-0.0468 0.28205,-0.082 0.39062,-0.0899 z"
         id="path2" />
    </g>
    <path
       d="m 324.27,93.817 c 0.93027,-0.39857 5.6131,-3.0424 10.518,-2.5659 5.7584,0.55938 11.753,4.9776 11.892,5.1076 l 0.42352,87.764 -22.669,-0.46514 z"
       fill="url(#b)"
       id="path88"
       style="fill:url(#b)" />
    <path
       d="m 357.34153,236.01536 q 0,0.59924 -0.0628,1.19848 -0.0571,0.59353 -0.21116,1.1357 -0.14838,0.54216 -0.4109,1.01585 -0.26253,0.46797 -0.66773,0.8104 -0.4052,0.34242 -0.97019,0.54216 -0.565,0.19404 -1.32403,0.19404 -0.10844,0 -0.2397,-0.006 -0.13126,-0.006 -0.26252,-0.0228 -0.13126,-0.0114 -0.25682,-0.0285 -0.12555,-0.0171 -0.22257,-0.0456 v -0.8903 q 0.19974,0.0742 0.45085,0.10843 0.25111,0.0342 0.49651,0.0342 0.77045,0 1.26696,-0.26823 0.49652,-0.26823 0.78758,-0.72479 0.29105,-0.46227 0.4109,-1.07292 0.12556,-0.61065 0.15409,-1.28979 h -0.0742 q -0.11414,0.20545 -0.27394,0.38237 -0.15979,0.17692 -0.37666,0.30818 -0.21687,0.13126 -0.49081,0.20545 -0.27393,0.0742 -0.61065,0.0742 -0.54217,0 -0.98161,-0.16551 -0.43944,-0.17121 -0.74762,-0.49651 -0.30818,-0.3253 -0.47939,-0.79328 -0.1655,-0.47368 -0.1655,-1.07863 0,-0.6506 0.17691,-1.16994 0.18263,-0.52504 0.50793,-0.88459 0.33101,-0.36525 0.79898,-0.55929 0.47369,-0.19404 1.05581,-0.19404 0.57641,0 1.07292,0.22258 0.49651,0.22257 0.86176,0.67914 0.36525,0.45656 0.57641,1.15282 0.21116,0.69055 0.21116,1.6265 z m -2.71084,-2.80215 q -0.34242,0 -0.62777,0.11414 -0.27965,0.11414 -0.4851,0.35383 -0.20546,0.2397 -0.3196,0.60495 -0.10843,0.35954 -0.10843,0.85605 0,0.3995 0.0913,0.71909 0.097,0.31389 0.28535,0.53646 0.18834,0.22257 0.46798,0.34242 0.28535,0.11985 0.66202,0.11985 0.38808,0 0.70196,-0.13126 0.31389,-0.13697 0.53646,-0.34813 0.22258,-0.21687 0.34242,-0.49081 0.12556,-0.27393 0.12556,-0.54787 0,-0.38237 -0.10843,-0.75904 -0.10273,-0.38237 -0.31389,-0.68484 -0.20545,-0.30818 -0.51934,-0.49651 -0.31389,-0.18833 -0.7305,-0.18833 z m 9.1712,3.40139 q 0,1.01014 -0.14838,1.80913 -0.14268,0.79898 -0.46798,1.35256 -0.3196,0.55359 -0.82752,0.84464 -0.50793,0.29106 -1.23272,0.29106 -0.67343,0 -1.17565,-0.29106 -0.49651,-0.29105 -0.82752,-0.84464 -0.3253,-0.55358 -0.4908,-1.35256 -0.1598,-0.79899 -0.1598,-1.80913 0,-1.01015 0.14268,-1.80913 0.14838,-0.79899 0.46227,-1.34686 0.31959,-0.55358 0.82181,-0.84464 0.50792,-0.29106 1.22701,-0.29106 0.67914,0 1.18136,0.29106 0.50221,0.28535 0.83322,0.83893 0.33101,0.54788 0.49651,1.34686 0.16551,0.79899 0.16551,1.81484 z m -4.27457,0 q 0,0.85605 0.0856,1.49524 0.0856,0.63919 0.27393,1.06721 0.18834,0.42233 0.49081,0.63919 0.30818,0.21116 0.74762,0.21116 0.43944,0 0.74762,-0.21116 0.30818,-0.21116 0.50222,-0.63348 0.19975,-0.42232 0.28535,-1.06151 0.0913,-0.64489 0.0913,-1.50665 0,-0.85606 -0.0913,-1.49524 -0.0856,-0.63919 -0.28535,-1.06151 -0.19404,-0.42232 -0.50222,-0.63348 -0.30818,-0.21116 -0.74762,-0.21116 -0.43944,0 -0.74762,0.21116 -0.30247,0.21116 -0.49081,0.63348 -0.18833,0.42232 -0.27393,1.06151 -0.0856,0.63918 -0.0856,1.49524 z m 5.52441,-2.47685 q 0,-0.77045 0.52504,-1.28409 0.52505,-0.51934 1.27267,-0.51934 0.75904,0 1.27838,0.52505 0.52504,0.52505 0.52504,1.27838 0,0.74762 -0.52504,1.26696 -0.52505,0.51934 -1.27838,0.51934 -0.74191,0 -1.27267,-0.50793 -0.52504,-0.51363 -0.52504,-1.27837 z m 0.70196,0 q 0,0.45085 0.3253,0.77615 0.33101,0.3196 0.78187,0.3196 0.46227,0 0.77615,-0.3253 0.31389,-0.32531 0.31389,-0.77045 0,-0.45657 -0.31389,-0.77616 -0.31388,-0.3253 -0.77615,-0.3253 -0.45657,0 -0.78187,0.31959 -0.3253,0.3196 -0.3253,0.78187 z"
       id="text92"
       aria-label="90째" />
  </g>
  <g
     stroke="#000000"
     id="g102"
     transform="translate(0,-70.866)">
    <path
       d="m 319.41,90.253 -0.0592,165.55"
       fill="none"
       stroke-dasharray="5.07402, 1.2685, 0.634252, 1.2685"
       stroke-width="0.63425"
       id="path96" />
    <path
       d="M 435.8,245.79 H 231.86"
       fill="none"
       stroke-dasharray="5.07402, 1.2685, 0.634252, 1.2685"
       stroke-linecap="round"
       stroke-linejoin="round"
       stroke-width="0.63425"
       id="path98" />
    <path
       transform="matrix(0.030705,-0.045449,0.045449,0.030705,295.08,248.45)"
       d="m 33.965,-82.693 a 30.474,30.474 0 1 1 -60.948,0 30.474,30.474 0 1 1 60.948,0 z"
       fill="#fa0000"
       stroke-linecap="round"
       stroke-linejoin="round"
       stroke-miterlimit="9.25"
       stroke-width="6.0748"
       id="path100" />
  </g>
  <g
     transform="translate(121.51,171.764)"
     id="g110">
    <ellipse
       cx="-44.919998"
       cy="-98.797997"
       rx="13.199"
       ry="13.469"
       fill="#1f638a"
       stroke-linecap="round"
       stroke-linejoin="round"
       stroke-width="1.0658"
       id="ellipse104" />
    <text
       x="-50.761276"
       y="-91.125885"
       fill="#000000"
       font-size="12.8px"
       letter-spacing="0px"
       word-spacing="0px"
       style="line-height:0%"
       xml:space="preserve"
       id="text108"><tspan
         x="-50.761276"
         y="-91.125885"
         fill="#ffffff"
         font-family="'Arial Unicode MS'"
         font-size="20px"
         stroke="#ffffff"
         stroke-width="1.0667"
         style="line-height:1.25"
         id="tspan106">1</tspan></text>
  </g>
  <g
     transform="translate(276.16,172.464)"
     id="g118">
    <ellipse
       cx="-13.718"
       cy="-98.797997"
       rx="13.199"
       ry="13.469"
       fill="#1f638a"
       stroke-linecap="round"
       stroke-linejoin="round"
       stroke-width="1.0658"
       id="ellipse112" />
    <text
       x="-19.559933"
       y="-91.125885"
       fill="#000000"
       font-size="12.8px"
       letter-spacing="0px"
       word-spacing="0px"
       style="line-height:0%"
       xml:space="preserve"
       id="text116"><tspan
         x="-19.559933"
         y="-91.125885"
         fill="#ffffff"
         font-family="'Arial Unicode MS'"
         font-size="20px"
         stroke="#ffffff"
         stroke-width="1.0667"
         style="line-height:1.25"
         id="tspan114">2</tspan></text>
  </g>
</svg>
