<?xml version="1.0" encoding="UTF-8"?>
<svg width="13cm" height="8cm" version="1.1" xmlns="http://www.w3.org/2000/svg" xmlns:cc="http://creativecommons.org/ns#" xmlns:dc="http://purl.org/dc/elements/1.1/" xmlns:rdf="http://www.w3.org/1999/02/22-rdf-syntax-ns#" xmlns:xlink="http://www.w3.org/1999/xlink">
 <title>Abbildung für OPEN MIND Softwaredokumentation</title>
 <defs>
  <linearGradient id="linearGradient4657" x1="-68.435" x2="614.52" y1="56.982" y2="301.47" gradientTransform="matrix(1.0667 0 0 1.0667 345.9 897.41)" gradientUnits="userSpaceOnUse">
   <stop stop-color="#fff" offset="0"/>
   <stop stop-color="#00385e" offset="1"/>
  </linearGradient>
  <linearGradient id="linearGradient4659" x1="112.2" x2="958.52" y1="912.36" y2="917.36" gradientTransform="matrix(1.0667 0 0 1.0667 346.67 115.81)" gradientUnits="userSpaceOnUse">
   <stop stop-color="#fff" offset="0"/>
   <stop stop-color="#808080" offset="1"/>
  </linearGradient>
 </defs>
 <metadata>
  <rdf:RDF>
   <cc:Work rdf:about="">
    <dc:format>image/svg+xml</dc:format>
    <dc:type rdf:resource="http://purl.org/dc/dcmitype/StillImage"/>
    <dc:title>Abbildung für OPEN MIND Softwaredokumentation</dc:title>
    <dc:creator>
     <cc:Agent>
      <dc:title>OPEN MIND Technologies AG</dc:title>
     </cc:Agent>
    </dc:creator>
    <dc:rights>
     <cc:Agent>
      <dc:title>Alle Rechte vorbehalten.</dc:title>
     </cc:Agent>
    </dc:rights>
    <dc:publisher>
     <cc:Agent>
      <dc:title>Technische Redaktion</dc:title>
     </cc:Agent>
    </dc:publisher>
   </cc:Work>
  </rdf:RDF>
 </metadata>
 <g transform="translate(0 -820.16)">
  <g transform="translate(6.4)">
   <g transform="translate(-346.29 -114.67)" stroke-linecap="round" stroke-linejoin="round" stroke-miterlimit="10">
    <path d="m347.07 957.98v261h462.07v-261zm131.27 18.833h200.6c6.2302 0 11.333 5.0698 11.333 11.3v199.8c0 6.2302-5.1032 11.333-11.333 11.333h-200.6c-6.2302 0-11.3-5.1031-11.3-11.333v-199.8c0-6.2302 5.0698-11.3 11.3-11.3z" fill="url(#linearGradient4657)" stroke="#7d7d7d" stroke-width="1.4324"/>
    <path d="m478.85 977.45h201.17c6.2483 0 11.367 5.1184 11.367 11.367v200.4c0 6.2483-5.1184 11.333-11.367 11.333h-201.17c-6.2483 0-11.367-5.085-11.367-11.333v-200.4c0-6.2483 5.1184-11.367 11.367-11.367z" fill="url(#linearGradient4659)" stroke="#800080" stroke-width="2.2677"/>
   </g>
   <path d="m235.59 948.63-5.9901 23.863" fill="none" stroke="#d4aa00" stroke-linecap="round" stroke-linejoin="round" stroke-width="3.0236"/>
   <ellipse cx="232.57" cy="974.33" rx="12.48" ry="12.478" color="#000000" fill="#b3b3b3" fill-rule="evenodd" stroke="#4d4d4d" stroke-linecap="round" stroke-linejoin="round" stroke-width=".67654"/>
   <g fill="none">
    <g stroke="#d4aa00" stroke-linecap="round" stroke-linejoin="round" stroke-width="3.0236">
     <path d="m134.19 874.86h196.13v196.84h-196.13z"/>
     <path d="m157.99 899.12h148.27v149.24h-148.27z"/>
     <path d="m223.21 899.53-5.9901 23.863"/>
     <path d="m183.95 924.1h97.061v100.46h-97.061z"/>
     <path d="m207.75 948.62h48.74v49.711h-48.74z"/>
     <path d="m228.72 924.2-5.9901 23.863"/>
    </g>
    <path d="m175.75 877.31v46.632h-31.387v-46.337c-7e-3 -0.13587-0.016-0.28373 0.0999-0.29572h31.287zm-3.2669 25.049c0.27374-1.111-1.8543-4.1961-3.169-4.0562-0.40762-1.111-0.62142-2.4137-1.1869-3.3668 0.19981-1.4566 1.3048-2.114 2.6715-2.3758-0.56946-1.1449-4.258-1.3567-5.347-0.69535-0.79125-0.79126-2.068-1.095-3.0691-1.6784-0.78127-1.069-0.26175-2.7554 0-3.5666-0.81324-0.0279-3.9483 2.104-4.254 3.167-1.2408 0.016-2.0541 0.45557-2.9692 0.79725-0.91914-0.76528-1.6784-1.6964-2.6755-2.3778-0.85121 0.89516-1.5066 4.314-0.99107 5.345-0.56947 0.88317-0.94911 1.9562-1.4866 2.8713-1.3148 0.70134-2.2539 0.82123-3.3648 0.19782 6e-3 1.051 1.9862 4.0842 3.169 4.1601 0.0579 1.3168 0.6414 2.1999 0.98906 3.4628-0.22778 1.059-0.96709 2.0401-2.2779 2.5776 0.77927 0.83323 4.1521 1.3448 5.1512 0.79127 0.82323 0.65938 1.9821 0.97908 2.8693 1.5845 0.82323 1.097 0.82323 2.2439 0.0999 3.2669 1.033-0.03 4.228-2.0461 4.5517-3.0711 1.113-0.21181 2.0261-0.61943 2.9712-0.99307 1.2528 0.0959 2.2799 0.90914 2.6715 2.2799 0.8592-0.82922 1.1649-4.296 0.49554-5.347 0.73331-0.85321 1.049-2.122 1.6824-3.0691 0.90914-0.88918 2.2978-0.56149 3.4688 0.0959z" stroke-width="1.0667"/>
   </g>
   <ellipse cx="157.75" cy="898.3" rx="12.48" ry="12.478" color="#000000" fill="#b3b3b3" fill-rule="evenodd" stroke="#4d4d4d" stroke-linecap="round" stroke-linejoin="round" stroke-width=".67654"/>
   <path d="m248.57 952.13v46.632h-31.387v-46.337c-7e-3 -0.13588-0.016-0.28374 0.1-0.29573h31.287zm-3.2689 25.049c0.27374-1.111-1.8543-4.1961-3.169-4.0562-0.40761-1.111-0.62142-2.4137-1.1869-3.3668 0.19982-1.4566 1.3048-2.114 2.6715-2.3758-0.56947-1.1449-4.258-1.3567-5.347-0.69535-0.79125-0.79125-2.0681-1.095-3.0691-1.6784-0.78127-1.069-0.26176-2.7554 0-3.5667-0.81323-0.0279-3.9483 2.104-4.254 3.167-1.2408 0.016-2.0541 0.45557-2.9692 0.79725-0.91914-0.76528-1.6784-1.6964-2.6755-2.3778-0.8512 0.89517-1.5066 4.314-0.99107 5.345-0.56946 0.88317-0.94911 1.9562-1.4866 2.8713-1.3148 0.70134-2.2539 0.82122-3.3648 0.19781 6e-3 1.051 1.9861 4.0842 3.169 4.1581 0.0579 1.3188 0.6414 2.2019 0.98908 3.4628-0.22779 1.059-0.9671 2.0401-2.2779 2.5776 0.77926 0.83521 4.1521 1.3467 5.1512 0.79126 0.82323 0.65938 1.9821 0.97708 2.8693 1.5845 0.82322 1.097 0.82322 2.2419 0.1 3.2669 1.033-0.03 4.228-2.0441 4.5517-3.0711 1.113-0.20981 2.0261-0.61742 2.9712-0.99107 1.2528 0.0979 2.2799 0.90915 2.6715 2.2799 0.85919-0.82722 1.1649-4.296 0.49553-5.347 0.73331-0.85319 1.049-2.12 1.6824-3.0671 0.91115-0.89316 2.2978-0.56546 3.4688 0.0939z" fill="none" stroke-width="1.0667"/>
   <g>
    <path d="m157.31 898.4 21.51 30.199 7.9585-6.366 17.813 29.354 8.3562-6.7657 7.2572 10.043" fill="none" stroke="#f60" stroke-linecap="round" stroke-linejoin="round" stroke-width="2.9972"/>
    <path d="m213.19 952.41 12.382 12.476-4.4298-16.94z" fill="#f60" fill-rule="evenodd" stroke="#f60" stroke-width="1.9981"/>
    <path d="m217.69 875.16-5.9901 23.863" fill="none" stroke="#d4aa00" stroke-linecap="round" stroke-linejoin="round" stroke-width="3.0236"/>
   </g>
   <ellipse transform="rotate(-2)" cx="126.21" cy="903.27" rx="4.0406" ry="3.7795" fill="#f00" stroke="#f00" stroke-linecap="round" stroke-linejoin="round" stroke-width="3.7837"/>
   <g fill="#fc0" stroke="#4d4d4d" stroke-linecap="square" stroke-miterlimit="10" stroke-width=".3288">
    <polyline transform="matrix(2.1921 0 0 1.9313 -44.602 807.55)" points="136.68 35.104 132.1 30.301 132.1 33.428 124.47 33.428 124.47 36.777 132.1 36.777 132.1 39.792 136.68 35.104"/>
    <polyline transform="matrix(-2.1921 0 0 1.9313 527.86 1004.2)" points="136.68 35.104 132.1 30.301 132.1 33.428 124.47 33.428 124.47 36.777 132.1 36.777 132.1 39.792 136.68 35.104"/>
    <polyline transform="matrix(0 -2.1921 -1.9313 0 202.1 1252)" points="136.68 35.104 132.1 30.301 132.1 33.428 124.47 33.428 124.47 36.777 132.1 36.777 132.1 39.792 136.68 35.104"/>
    <polyline transform="matrix(0 2.1921 -1.9313 0 397.94 685.44)" points="136.68 35.104 132.1 30.301 132.1 33.428 124.47 33.428 124.47 36.777 132.1 36.777 132.1 39.792 136.68 35.104"/>
   </g>
  </g>
 </g>
</svg>
