<svg version="1.1" viewBox="0 0 460.63 230.31" xmlns="http://www.w3.org/2000/svg" xmlns:xlink="http://www.w3.org/1999/xlink">
 <title>Abbildung für OPEN MIND Softwaredokumentation</title>
 <defs>
  <linearGradient id="linearGradient4187" x1="90.431" x2="90.431" y1="17.217" y2="114.25" gradientTransform="matrix(1.535 0 0 1.535 17.275 858.21)" gradientUnits="userSpaceOnUse">
   <stop stop-color="#FFFFFF" offset="0"/>
   <stop stop-color="#F7F8FA" offset=".118"/>
   <stop stop-color="#E1E7EC" offset=".3026"/>
   <stop stop-color="#BCCAD6" offset=".5305"/>
   <stop stop-color="#8AA2B8" offset=".7904"/>
   <stop stop-color="#5D7D9C" offset="1"/>
  </linearGradient>
  <linearGradient id="linearGradient4190" x1="173.82" x2="173.82" y1="21.116" y2="114.04" gradientTransform="matrix(1.535 0 0 1.535 17.537 858.21)" gradientUnits="userSpaceOnUse">
   <stop stop-color="#FFFFFF" offset="0"/>
   <stop stop-color="#cad1de" offset=".118"/>
   <stop stop-color="#9fb2c2" offset=".3026"/>
   <stop stop-color="#6b8aa4" offset=".5305"/>
   <stop stop-color="#536f89" offset=".7904"/>
   <stop stop-color="#3e5368" offset="1"/>
  </linearGradient>
 </defs>
 <g transform="translate(0 -822.05)">
  <path d="m267.8 892.65c-1.5212-1.2848-3.3448-2.0032-5.2682-2.0262h-2.4315c-2.2008 0.68023-2.4496 2.197-2.2216 3.9182 5.0208 9.0196 7.0782 15.965 9.6861 23.377 3.1806 10.592 5.7617 22.693 6.7656 33.785 1.9832 21.908 0.6453 42.409-2.9574 64.045-0.96247 8.6314 0.98454 18.508 11.82 17.43 7.7212-0.769 12.141-6.5622 16.609-12.15 13.929-23.669 13.654-45.24 3.6211-70.329-8.5409-21.36-21.47-40.132-35.623-58.05" fill="url(#linearGradient4190)" stroke="#4d4d4d" stroke-linecap="round" stroke-linejoin="round" stroke-miterlimit="10" stroke-width=".63425"/>
  <path d="m68.855 992.65 211.57 40.532c-12.273-3.0594-9.3588-15.564-7.6273-28.552 5.0241-37.716 3.1698-76.005-14.99-110.36-0.21797-2.0155 0.79976-3.2619 2.8367-3.6457l1.8296 1e-3 -210.47-2.8031c-5.1442-0.18492-4.3434 2.9848-3.5958 8.253 13.399 41.807 14.918 51.287 12.975 71.176-4.29 17.938-0.83725 22.854 7.4681 25.398z" fill="url(#linearGradient4187)" stroke="#4d4d4d" stroke-linecap="round" stroke-linejoin="round" stroke-miterlimit="10" stroke-width=".63425"/>
  <g fill="none" stroke-linecap="round" stroke-linejoin="round" stroke-miterlimit="10" stroke-width="1.7717">
   <path d="m21.69 933.78 39.598 5.1965" stroke="#4d4d4d" stroke-dasharray="7.08661417, 7.08661417"/>
   <line x1="299.16" x2="338.66" y1="969.46" y2="932.1" stroke="#7ab51d"/>
   <line x1="299.43" x2="362.48" y1="969.75" y2="977.9" stroke="#e2001a"/>
  </g>
  <g stroke-linecap="round" stroke-linejoin="round" stroke-miterlimit="10" stroke-width="1.7717">
   <line x1="299.36" x2="278.33" y1="969.57" y2="884.56" fill="#34679b" stroke="#34679b"/>
   <path d="m61.047 938.95 223.22 29.294" fill="#ff0000" stroke="#b3b3b3" stroke-dasharray="7.08661417, 7.08661417"/>
   <path d="m284.97 968.33 13.404 1.7591" fill="none" stroke="#4d4d4d" stroke-dasharray="7.08661417, 7.08661417"/>
  </g>
  <g fill-rule="evenodd" stroke-linecap="round" stroke-linejoin="round">
   <path d="m286.81 888.3-14.31-24.47 0.0839 28.236z" fill="#34679b" stroke="#34679b" stroke-width="2.1654"/>
   <path d="m334.85 945.99 13.497-24.02-23.641 13.945z" fill="#7ab51d" stroke="#7ab51d" stroke-width="2.1046"/>
   <path d="m336.79 982.11 26.925-3.6588-25.027-10.313z" fill="#e2001a" stroke="#e2001a" stroke-width="2.0756"/>
  </g>
  <g fill="#000000" font-family="'Arial Nova', 'Arial Unicode MS', 'Yu Gothic UI', sans-serif" font-size="24px" letter-spacing="0px" stroke="#7ab51d" stroke-width="1.0667" word-spacing="0px">
   <text x="350.81244" y="930.14417" style="line-height:0%" xml:space="preserve"><tspan x="350.81244" y="930.14417" fill="#7ab51d" font-family="'Arial Nova', 'Arial Unicode MS', 'Yu Gothic UI', sans-serif" font-size="24px" stroke="#7ab51d" stroke-width="1.0667" style="line-height:1.25">Y</tspan></text>
   <text x="282.66153" y="869.69507" style="line-height:0%" xml:space="preserve"><tspan x="282.66153" y="869.69507" fill="#34679b" font-family="'Arial Nova', 'Arial Unicode MS', 'Yu Gothic UI', sans-serif" font-size="24px" stroke="#34679b" stroke-width="1.0667" style="line-height:1.25">Z</tspan></text>
   <text x="367.62585" y="987.5152" style="line-height:0%" xml:space="preserve"><tspan x="367.62585" y="987.5152" fill="#e2001a" font-family="'Arial Nova', 'Arial Unicode MS', 'Yu Gothic UI', sans-serif" font-size="24px" stroke="#e2001a" stroke-width="1.0667" style="line-height:1.25">X</tspan></text>
  </g>
 </g>
</svg>
