<svg version="1.1" viewBox="0 0 460.63 283.46" xmlns="http://www.w3.org/2000/svg" xmlns:xlink="http://www.w3.org/1999/xlink">
 <title>Abbildung</title>
 <defs>
  <linearGradient id="linearGradient17780-7">
   <stop stop-color="#ffffff" offset="0"/>
   <stop stop-color="#00385e" offset="1"/>
  </linearGradient>
  <linearGradient id="linearGradient3266" x1="56.841" x2="56.46" y1="331.17" y2="294.9" gradientTransform="matrix(1.3517 0 0 1.3517 2.804 -207.14)" gradientUnits="userSpaceOnUse" xlink:href="#linearGradient17780-7"/>
  <linearGradient id="linearGradient3269" x1="204" x2="206.47" y1="1001.9" y2="784.87" gradientTransform="matrix(.78861 0 0 .78989 5.928 -548.33)" gradientUnits="userSpaceOnUse" xlink:href="#linearGradient17780-7"/>
  <linearGradient id="linearGradient3309" x1="-64.041" x2="400.63" y1="820.57" y2="1202.3" gradientTransform="matrix(.78989 0 0 .78989 5.723 -549.13)" gradientUnits="userSpaceOnUse" xlink:href="#linearGradient17780-7"/>
  <linearGradient id="linearGradient3312" x1="-1.9169" x2="202.12" y1="217.36" y2="434.29" gradientTransform="matrix(1.3517 0 0 1.3517 2.914 -208.25)" gradientUnits="userSpaceOnUse" xlink:href="#linearGradient17780-7"/>
  <linearGradient id="linearGradient3357" x1="-2.8787" x2="222.31" y1="223.62" y2="335.7" gradientTransform="matrix(1.3753 0 0 1.3753 233.81 -213.83)" gradientUnits="userSpaceOnUse" xlink:href="#linearGradient17780-7"/>
  <linearGradient id="linearGradient3359" x1="232.19" x2="850.03" y1="862.94" y2="1044.3" gradientTransform="matrix(.80371 0 0 .80371 -14.387 -560.67)" gradientUnits="userSpaceOnUse" xlink:href="#linearGradient17780-7"/>
  <linearGradient id="linearGradient3361" x1="199.88" x2="197.41" y1="1005.6" y2="778.29" gradientTransform="matrix(.80242 0 0 .80371 236.88 -559.87)" gradientUnits="userSpaceOnUse" xlink:href="#linearGradient17780-7"/>
  <linearGradient id="linearGradient3363" x1="53.95" x2="53.739" y1="333.21" y2="284.7" gradientTransform="matrix(1.3753 0 0 1.3753 233.7 -212.71)" gradientUnits="userSpaceOnUse" xlink:href="#linearGradient17780-7"/>
 </defs>
 <g stroke="#4d4d4d">
  <g stroke-linecap="round" stroke-linejoin="round">
   <path d="m78.523 87.88 0.12706 67.198c-29.346 2.525-11.065-18.09-0.12706-67.198z" fill="url(#linearGradient3312)" stroke-miterlimit="10" stroke-width=".57242"/>
   <g stroke-miterlimit="8" stroke-width=".57242">
    <path d="m210.12 87.04-13.329 0.0494-12.737 11.207v56.724l-108.24 0.17277c-11.519-0.44064-14.37-3.2034-12.465-12.243l15.131-55.07h-69.51l0.12342 147.81 87.381-0.027 13.255-15.748-7.8002-38.828c-0.91373-5.6093 1.5921-8.6616 8.4666-8.59l99.723 0.17279v-85.629z" fill="url(#linearGradient3309)" fill-rule="evenodd"/>
    <path d="m9.028 240.34 0.07692-4.6902 87.013-0.014 13.242-15.747-7.7878-38.832c-0.91224-5.6094 1.5964-8.6614 8.4598-8.5898l100.06 0.16221v68.199" fill="url(#linearGradient3269)"/>
    <path d="m9.023 240.44-0.0041-4.6902 87.187-0.048 13.264-15.756v20.506" fill="url(#linearGradient3266)"/>
   </g>
   <path d="m9.059 240.84 201-0.046" fill="none" stroke-dasharray="11.1953, 2.79882, 1.39941, 2.79882" stroke-width="1.3994"/>
  </g>
  <path d="m114.22 77.13 39.425-3.4393c5.9922-0.67026 7.9273 1.5938 5.0069 7.0115l-25.871 44.534c-1.2448 2.4988-3.3698 3.8378-6.142 3.8718l-41.26 3.6386c-4.5992-0.2054-5.776-2.5451-3.5057-6.6439l26.004-45.468c1.4023-2.2872 3.6355-3.5088 6.3428-3.5042" fill="#ffdd00" fill-rule="evenodd" stroke-width=".3861"/>
 </g>
 <g fill="none" stroke="#000000" stroke-width=".57242">
  <g stroke-linecap="round" stroke-linejoin="round">
   <path d="m120.62 44.07 0.2626 120.56" stroke-dasharray="1.14484, 2.28968"/>
   <path d="m183.23 102.96h-121.61" stroke-dasharray="1.14484, 2.28968"/>
   <path d="m124.25 63.16a42.444 42.444 0 0 1 23.923 9.4348" color="#000000"/>
  </g>
  <path d="m120.62 102.46-32.41-46.1"/>
  <path d="m120.62 102.46 37.996-40.792"/>
 </g>
 <g stroke="#000000" stroke-linecap="round" stroke-linejoin="round">
  <polygon transform="matrix(1.5444 0 0 1.5444 3.643 -247.46)" points="95.555 201.69 99.238 205.34 104.12 196.62" fill-rule="evenodd"/>
  <polygon transform="matrix(1.5444 0 0 1.5444 .3604 -244.57)" points="58.109 201.03 62.455 198.2 54.974 191.58" fill-rule="evenodd"/>
  <text id="SVGID_13_" x="100.96033" y="56.634567" fill="#000000" font-family="ArialUnicodeMS" font-size="21.621px" stroke-width=".57242" style="line-height:0%">+</text>
  <text id="SVGID_14_" x="135.09555" y="54.431931" fill="#000000" font-family="ArialUnicodeMS" font-size="21.621px" stroke-width=".6076" style="line-height:0%">-</text>
  <path d="m97.82 70.2a42.444 42.444 0 0 1 19.014-6.8931" color="#000000" fill="none" stroke-width=".57242"/>
  <g stroke-width=".539">
   <path d="m120.29 62.98-6.5018-1.6234 0.34113 4.4178z"/>
   <path d="m98.2 69.75 6.6422-0.88891-1.9464-3.9806z"/>
   <path d="m121.68 62.99 5.9906 3.0035 0.63142-4.3858z"/>
   <path d="m147.91 72.3-3.9523-5.4118-2.5683 3.6108z"/>
  </g>
 </g>
 <g stroke="#4d4d4d">
  <g stroke-linecap="round" stroke-linejoin="round">
   <path d="m310.74 87.48 0.12928 68.374c-29.86 2.5692-11.259-18.406-0.12928-68.374z" fill="url(#linearGradient3357)" stroke-miterlimit="10" stroke-width=".58244"/>
   <g stroke-miterlimit="8" stroke-width=".58244">
    <path d="m444.64 86.63-13.563 0.0502-12.96 11.403v57.717l-110.13 0.1758c-11.72-0.44836-14.621-3.2595-12.684-12.458l15.396-56.034h-70.727l0.12558 150.4 88.911-0.028 13.487-16.024-7.9367-39.508c-0.92972-5.7075 1.62-8.8132 8.6148-8.7403l101.47 0.17582v-87.127z" fill="url(#linearGradient3359)" fill-rule="evenodd"/>
    <path d="m240.03 242.54 0.0783-4.7723 88.535-0.014 13.474-16.022-7.9241-39.511c-0.92822-5.7075 1.6244-8.813 8.6079-8.7401l101.81 0.16503v69.393" fill="url(#linearGradient3361)"/>
    <path d="m240.03 242.64-3e-3 -4.7724 88.713-0.049 13.496-16.032v20.865" fill="url(#linearGradient3363)"/>
   </g>
   <path d="m240.06 243.04 204.52-0.047" fill="none" stroke-dasharray="11.3913, 2.8478, 1.4239, 2.8478" stroke-width="1.4239"/>
  </g>
  <path d="m412.79 210.44 11.379 38.655c1.8574 5.833-6e-3 8.2264-5.9792 6.4208l-49.623-16.849c-2.7358-0.7465-4.5068-2.607-5.0961-5.368l-11.889-40.421c-0.7857-4.6357 1.3121-6.2715 5.8786-4.8589l50.574 16.816c2.5472 0.9444 4.2129 2.9196 4.7566 5.6051" fill="#ffdd00" fill-rule="evenodd" stroke-width=".39285"/>
 </g>
 <g fill="none" stroke="#000000" stroke-width=".58244">
  <g stroke-linecap="round" stroke-linejoin="round">
   <path d="m387.26 162.14 0.26719 122.67" stroke-dasharray="1.16487, 2.32974"/>
   <path d="m450.96 222.06h-123.74" stroke-dasharray="1.16487, 2.32974"/>
   <path d="m383.75 261.64a43.187 43.187 0 0 1-24.342-9.5999" color="#000000"/>
  </g>
  <path d="m387.45 221.64 32.978 46.906"/>
  <path d="m387.45 221.64-38.661 41.506"/>
 </g>
 <g stroke="#000000" stroke-linecap="round" stroke-linejoin="round">
  <polygon transform="matrix(-1.5714 0 0 -1.5714 506.47 577.64)" points="99.238 205.34 104.12 196.62 95.555 201.69" fill-rule="evenodd"/>
  <polygon transform="matrix(-1.5714 0 0 -1.5714 509.81 574.74)" points="58.109 201.03 62.455 198.2 54.974 191.58" fill-rule="evenodd"/>
  <text transform="scale(-1)" x="-407.44696" y="-268.26334" fill="#000000" font-family="ArialUnicodeMS" font-size="22px" stroke-width=".58244" style="line-height:0%">+</text>
  <text transform="scale(-1)" x="-372.71432" y="-270.50455" fill="#000000" font-family="ArialUnicodeMS" font-size="22px" stroke-width=".61823" style="line-height:0%">-</text>
  <path d="m410.64 254.44a43.187 43.187 0 0 1-19.347 7.0137" color="#000000" fill="none" stroke-width=".58244"/>
  <g stroke-width=".54843">
   <path d="m387.78 261.84 6.6156 1.6518-0.34711-4.4951z"/>
   <path d="m410.26 254.94-6.7584 0.9045 1.9805 4.0503z"/>
   <path d="m386.37 261.84-6.0955-3.0561-0.64247 4.4626z"/>
   <path d="m359.67 252.34 4.0215 5.5065 2.6132-3.6739z"/>
  </g>
 </g>
 <g transform="translate(82.794 129.79)">
  <ellipse cx="-44.92" cy="-98.798" rx="13.199" ry="13.469" fill="#1f638a" stroke-linecap="round" stroke-linejoin="round" stroke-width="1.0658"/>
  <text x="-51.39423" y="-91.055557" fill="#000000" font-family="'Arial Nova', 'Arial Unicode MS', 'Yu Gothic UI', sans-serif" font-size="12.8px" letter-spacing="0px" stroke-width="1.0667" word-spacing="0px" style="line-height:0%" xml:space="preserve"><tspan x="-51.39423" y="-91.055557" fill="#ffffff" font-family="'Arial Nova', 'Arial Unicode MS', 'Yu Gothic UI', sans-serif" font-size="21.333px" stroke="#ffffff" stroke-width="1.0667" style="line-height:1.25">1</tspan></text>
 </g>
 <g transform="translate(286.88 130.51)">
  <ellipse cx="-13.718" cy="-98.798" rx="13.199" ry="13.469" fill="#1f638a" stroke-linecap="round" stroke-linejoin="round" stroke-width="1.0658"/>
  <text x="-19.559933" y="-91.125885" fill="#000000" font-family="'Arial Nova', 'Arial Unicode MS', 'Yu Gothic UI', sans-serif" font-size="12.8px" letter-spacing="0px" stroke-width="1.0667" word-spacing="0px" style="line-height:0%" xml:space="preserve"><tspan x="-19.559933" y="-91.125885" fill="#ffffff" font-family="'Arial Nova', 'Arial Unicode MS', 'Yu Gothic UI', sans-serif" font-size="21.333px" stroke="#ffffff" stroke-width="1.0667" style="line-height:1.25">2</tspan></text>
 </g>
</svg>
