<svg version="1.1" viewBox="0 0 460.63 248.03" xmlns="http://www.w3.org/2000/svg" xmlns:xlink="http://www.w3.org/1999/xlink">
 <title>Abbildung für OPEN MIND Softwaredokumentation</title>
 <defs>
  <linearGradient id="linearGradient17780-7-4">
   <stop stop-color="#ffffff" offset="0"/>
   <stop stop-color="#00385e" offset="1"/>
  </linearGradient>
  <linearGradient id="linearGradient23751" x1="32.382" x2="371" y1="918" y2="946.57" gradientUnits="userSpaceOnUse" xlink:href="#linearGradient17780-7-4"/>
  <linearGradient id="linearGradient23754" x1="6.6907" x2="504.18" y1="929.38" y2="1094" gradientUnits="userSpaceOnUse" xlink:href="#linearGradient17780-7-4"/>
 </defs>
 <g transform="translate(0 -804.33)">
  <g>
   <path d="m191.43 826.88v0l82.229 59.494c-74.491 18.561-133.44 86.923-180.01 145.52l-85.361-67.674c45.965-55.443 109.39-123.81 183.14-137.34v0z" clip-rule="evenodd" fill="url(#linearGradient23754)" fill-rule="evenodd" stroke="#800080" stroke-linecap="round" stroke-linejoin="round" stroke-width="3.189"/>
   <path d="m193.4 836.06c-68.528 15.931-125.38 72.958-167.84 126.4l68.624 52.484c42.627-52.482 97.303-115.45 165.08-132.35l-65.857-46.536" fill="url(#linearGradient23751)" stroke="#4d4d4d" stroke-linecap="square" stroke-miterlimit="10" stroke-width=".63425"/>
   <path d="m204.25 843.29c-68.123 13.156-127.7 74.3-168.66 126.62l15.63 11.858c40.241-52.741 100.99-111.46 167.31-127.9l16.167 11.858c-70.869 19.477-122.07 75.214-169.46 127.9l16.708 12.395c40.092-54.79 101.47-110.61 168.32-129.16" clip-rule="evenodd" fill="none" stroke="#ffcc00" stroke-linecap="round" stroke-linejoin="round" stroke-width="3.189"/>
  </g>
  <path d="m44.754 1003.9c53.395-65.615 124.09-138 211.27-153.06" fill="none"/>
  <text id="SVGID_4_" x="10.91922" y="1018.2769" fill="#ffffff" font-family="ArialUnicodeMS" font-size="19.512px" style="line-height:0%">1</text>
  <path d="m26.568 961.94c44.669-60.128 101.93-108.71 167.42-126.32" fill="none" stroke="#800080" stroke-linecap="round" stroke-width="3.5433"/>
  <g stroke-linecap="round" stroke-linejoin="round">
   <g>
    <path d="m201.27 923.69 10.607 10.863" color="#000000" fill="#1f638a" fill-rule="evenodd" stroke="#1f638a" stroke-width="1.7717"/>
    <polyline transform="matrix(1.5796 -1.0881 1.0856 1.576 -65.327 901.02)" points="87.23 41.839 91.62 46.442 91.62 43.445 100.64 43.445 100.64 40.234 91.62 40.234 91.62 37.344 87.23 41.839" fill="#800080" stroke="#000000" stroke-miterlimit="10" stroke-width=".33104"/>
    <polyline transform="matrix(1.4058 -1.305 1.302 1.4025 -79.183 958.28)" points="87.23 41.839 91.62 46.442 91.62 43.445 100.64 43.445 100.64 40.234 91.62 40.234 91.62 37.344 87.23 41.839" fill="#ffcc00" stroke="#000000" stroke-miterlimit="10" stroke-width=".33104"/>
    <path d="m57.911 894.79 12.374 12.883" color="#000000" fill="#1f638a" fill-rule="evenodd" stroke="#1f638a" stroke-width="1.7717"/>
   </g>
   <path d="m51.788 982.55-0.79976-12.16-3.6825 4.3971-9.1018-6.8193-3.9455 4.7111 9.1018 6.8193-3.5511 4.2401 11.979-1.1884" fill="#ffcc00" stroke="#000000" stroke-miterlimit="10" stroke-width=".63425"/>
  </g>
  <g transform="translate(96.233 984.55)">
   <ellipse cx="-44.92" cy="-98.798" rx="13.199" ry="13.469" fill="#1f638a" stroke-linecap="round" stroke-linejoin="round" stroke-width="1.0658"/>
   <text x="-51.39423" y="-91.055557" fill="#000000" font-family="'Arial Nova', 'Arial Unicode MS', 'Yu Gothic UI', sans-serif" font-size="12.8px" letter-spacing="0px" stroke-width="1.0667" word-spacing="0px" style="line-height:0%" xml:space="preserve"><tspan x="-51.39423" y="-91.055557" fill="#ffffff" font-family="'Arial Nova', 'Arial Unicode MS', 'Yu Gothic UI', sans-serif" font-size="21.333px" stroke="#ffffff" stroke-width="1.0667" style="line-height:1.25">1</tspan></text>
  </g>
  <g transform="translate(233.21 1038.9)">
   <ellipse cx="-13.718" cy="-98.798" rx="13.199" ry="13.469" fill="#1f638a" stroke-linecap="round" stroke-linejoin="round" stroke-width="1.0658"/>
   <text x="-19.559933" y="-91.125885" fill="#000000" font-family="'Arial Nova', 'Arial Unicode MS', 'Yu Gothic UI', sans-serif" font-size="12.8px" letter-spacing="0px" stroke-width="1.0667" word-spacing="0px" style="line-height:0%" xml:space="preserve"><tspan x="-19.559933" y="-91.125885" fill="#ffffff" font-family="'Arial Nova', 'Arial Unicode MS', 'Yu Gothic UI', sans-serif" font-size="21.333px" stroke="#ffffff" stroke-width="1.0667" style="line-height:1.25">2</tspan></text>
  </g>
 </g>
</svg>
