<?xml version="1.0" encoding="UTF-8"?>
<svg version="1.1" viewBox="0 0 680.31 283.46" xmlns="http://www.w3.org/2000/svg">
 <defs>
  <linearGradient id="s" x1="19.093" x2="281.61" y1="77.958" y2="77.585" gradientTransform="matrix(1.4243 0 0 -1.4243 13.864 204.86)" gradientUnits="userSpaceOnUse">
   <stop stop-color="#ffffff" offset="0"/>
   <stop stop-color="#00385e" offset="1"/>
  </linearGradient>
  <linearGradient id="r" x1="-23.976" x2="136.71" y1="74.727" y2="77.535" gradientTransform="matrix(1.4243 0 0 -1.4243 13.864 204.86)" gradientUnits="userSpaceOnUse">
   <stop stop-color="#ffffff" offset="0"/>
   <stop stop-color="#00385e" offset="1"/>
  </linearGradient>
  <clipPath id="x">
   <path d="m14.18 55.883 62.691 70.453 173.39-62.391-86.512-56.011z" clip-rule="evenodd"/>
  </clipPath>
  <linearGradient id="q" x1="-22.772" x2="238.31" y1="40.899" y2="40.096" gradientTransform="matrix(1.4243 0 0 1.4243 13.864 7.74)" gradientUnits="userSpaceOnUse">
   <stop stop-color="#ffffff" offset="0"/>
   <stop stop-color="#00385e" offset="1"/>
  </linearGradient>
  <clipPath id="w">
   <path d="m13 7h238v120h-238z"/>
  </clipPath>
  <linearGradient id="p" x1="-22.772" x2="238.31" y1="40.899" y2="40.096" gradientTransform="matrix(1.4243 0 0 1.4243 13.864 7.74)" gradientUnits="userSpaceOnUse">
   <stop stop-color="#ffffff" offset="0"/>
   <stop stop-color="#ffffff" stop-opacity="0" offset="1"/>
  </linearGradient>
  <mask id="a" x="0" y="0" width="1" height="1" maskUnits="userSpaceOnUse">
   <g>
    <g clip-path="url(#w)">
     <g>
      <path d="m0 0h510.24v212.6h-510.24z" fill="url(#p)"/>
     </g>
    </g>
   </g>
  </mask>
  <clipPath id="v">
   <path d="m13 7h238v120h-238z"/>
  </clipPath>
  <linearGradient id="o" x1="-22.772" x2="238.31" y1="40.899" y2="40.096" gradientTransform="matrix(1.4243 0 0 -1.4243 13.864 204.86)" gradientUnits="userSpaceOnUse">
   <stop stop-color="#4d4d4d" offset="0"/>
   <stop stop-color="#4d4d4d" offset="1"/>
  </linearGradient>
  <linearGradient id="n" x1="78.718" x2="307.67" y1="872.31" y2="871.3" gradientTransform="matrix(.80002 0 0 -.80002 0 824.29)" gradientUnits="userSpaceOnUse">
   <stop stop-color="#ffffff" offset="0"/>
   <stop stop-color="#00385e" offset="1"/>
  </linearGradient>
  <linearGradient id="m" x1="154.93" x2="334.65" y1="844.68" y2="845.16" gradientTransform="matrix(.80002 0 0 -.80002 0 824.29)" gradientUnits="userSpaceOnUse">
   <stop stop-color="#ffffff" offset="0"/>
   <stop stop-color="#00385e" offset="1"/>
  </linearGradient>
  <linearGradient id="l" x1="68.704" x2="314.96" y1="847.14" y2="842.85" gradientTransform="matrix(.80002 0 0 -.80002 0 824.29)" gradientUnits="userSpaceOnUse">
   <stop stop-color="#ffffff" offset="0"/>
   <stop stop-color="#00385e" offset="1"/>
  </linearGradient>
  <clipPath id="u">
   <path d="m176.61 68.578c0 4.262-6.605 7.715-14.754 7.715-8.152 0-14.757-3.453-14.757-7.715 0-4.258 6.605-7.711 14.757-7.711 8.149 0 14.754 3.453 14.754 7.711z" clip-rule="evenodd"/>
  </clipPath>
  <linearGradient id="k" x1="93.545" x2="114.26" y1="42.715" y2="42.715" gradientTransform="matrix(1.4243 0 0 1.4243 13.864 7.74)" gradientUnits="userSpaceOnUse">
   <stop stop-color="#13385e" offset="0"/>
   <stop stop-color="#13385e" offset=".0054"/>
   <stop stop-color="#1c3f64" offset=".0949"/>
   <stop stop-color="#335374" offset=".2388"/>
   <stop stop-color="#5a748e" offset=".4193"/>
   <stop stop-color="#8fa1b3" offset=".6292"/>
   <stop stop-color="#d3dae1" offset=".8611"/>
   <stop stop-color="#13385e" offset="1"/>
  </linearGradient>
  <clipPath id="t">
   <path d="m102.73 98.594c7.223-0.547 12.864-4.403 12.864-8.668 0-4.649-6.606-8.418-14.754-8.418-4.375 0-8.395 1.508-11.098 3.23" clip-rule="evenodd"/>
  </clipPath>
  <linearGradient id="j" x1="53.277" x2="71.426" y1="57.791" y2="57.791" gradientTransform="matrix(1.4243 0 0 1.4243 13.864 7.74)" gradientUnits="userSpaceOnUse">
   <stop stop-color="#13385e" offset="0"/>
   <stop stop-color="#13385e" offset=".0054"/>
   <stop stop-color="#1c3f64" offset=".0949"/>
   <stop stop-color="#335374" offset=".2388"/>
   <stop stop-color="#5a748e" offset=".4193"/>
   <stop stop-color="#8fa1b3" offset=".6292"/>
   <stop stop-color="#d3dae1" offset=".8611"/>
   <stop stop-color="#13385e" offset="1"/>
  </linearGradient>
  <linearGradient id="i" x1="82.659" x2="91.204" y1="57.113" y2="57.113" gradientTransform="matrix(1.4243 0 0 -1.4243 13.864 204.86)" gradientUnits="userSpaceOnUse">
   <stop stop-color="#13385e" offset="0"/>
   <stop stop-color="#13385e" offset=".0054"/>
   <stop stop-color="#1c3f64" offset=".0949"/>
   <stop stop-color="#335374" offset=".2388"/>
   <stop stop-color="#5a748e" offset=".4193"/>
   <stop stop-color="#8fa1b3" offset=".6292"/>
   <stop stop-color="#d3dae1" offset=".8611"/>
   <stop stop-color="#13385e" offset="1"/>
  </linearGradient>
  <linearGradient id="h" x1="90.502" x2="99.046" y1="65.54" y2="65.54" gradientTransform="matrix(1.4243 0 0 -1.4243 13.864 204.86)" gradientUnits="userSpaceOnUse">
   <stop stop-color="#13385e" offset="0"/>
   <stop stop-color="#13385e" offset=".0054"/>
   <stop stop-color="#1c3f64" offset=".0949"/>
   <stop stop-color="#335374" offset=".2388"/>
   <stop stop-color="#5a748e" offset=".4193"/>
   <stop stop-color="#8fa1b3" offset=".6292"/>
   <stop stop-color="#d3dae1" offset=".8611"/>
   <stop stop-color="#13385e" offset="1"/>
  </linearGradient>
  <linearGradient id="g" x1="183.73" x2="489.65" y1="79.211" y2="82.048" gradientTransform="matrix(1.4243 0 0 -1.4243 13.864 204.86)" gradientUnits="userSpaceOnUse">
   <stop stop-color="#ffffff" offset="0"/>
   <stop stop-color="#00385e" offset="1"/>
  </linearGradient>
  <linearGradient id="f" x1="142.99" x2="291.4" y1="76.45" y2="77.252" gradientTransform="matrix(1.4243 0 0 -1.4243 13.864 204.86)" gradientUnits="userSpaceOnUse">
   <stop stop-color="#ffffff" offset="0"/>
   <stop stop-color="#00385e" offset="1"/>
  </linearGradient>
  <linearGradient id="e" x1="140.58" x2="409.29" y1="41.3" y2="42.905" gradientTransform="matrix(1.4243 0 0 -1.4243 13.864 204.86)" gradientUnits="userSpaceOnUse">
   <stop stop-color="#ffffff" offset="0"/>
   <stop stop-color="#00385e" offset="1"/>
  </linearGradient>
  <linearGradient id="d" x1="173.22" x2="277.56" y1="34.845" y2="33.994" gradientTransform="matrix(1.4243 0 0 -1.4243 13.864 204.86)" gradientUnits="userSpaceOnUse">
   <stop stop-color="#ffffff" offset="0"/>
   <stop stop-color="#00385e" offset="1"/>
  </linearGradient>
  <linearGradient id="c" x1="204.55" x2="288.52" y1="55.511" y2="54.508" gradientTransform="matrix(1.4243 0 0 -1.4243 13.46 203.85)" gradientUnits="userSpaceOnUse">
   <stop stop-color="#ffffff" offset="0"/>
   <stop stop-color="#00385e" offset="1"/>
  </linearGradient>
  <linearGradient id="b" x1="261.72" x2="327.98" y1="37.513" y2="36.059" gradientTransform="matrix(1.4243 0 0 -1.4243 14.234 204.26)" gradientUnits="userSpaceOnUse">
   <stop stop-color="#ffffff" offset="0"/>
   <stop stop-color="#00385e" offset="1"/>
  </linearGradient>
 </defs>
 <g transform="matrix(1.3333 0 0 1.3333 0 1.042e-5)">
  <g>
   <g>
    <g>
     <path d="m76.871 126.34 173.72-62.391v39.243l-173.38 70.429z" fill="url(#s)" fill-rule="evenodd" stroke="#4d4d4d" stroke-linecap="round" stroke-linejoin="round" stroke-width=".50742"/>
    </g>
   </g>
   <g>
    <g>
     <path d="m77.207 126 0.336 47.617-63.027-73.453-0.336-44.281z" fill="url(#r)" fill-rule="evenodd" stroke="#4d4d4d" stroke-linecap="round" stroke-linejoin="round" stroke-width=".50742"/>
    </g>
   </g>
   <g>
    <g clip-path="url(#x)">
     <g>
      <path d="m14.18 55.883 62.691 70.453 173.39-62.391-86.512-56.011z" fill="url(#q)" fill-rule="evenodd"/>
     </g>
    </g>
   </g>
   <g>
    <g mask="url(#a)">
     <g>
      <g clip-path="url(#v)">
       <g>
        <g>
         <path d="m14.18 55.883 62.691 70.453 173.39-62.391-86.512-56.011z" fill="none" stroke="url(#o)" stroke-linecap="round" stroke-linejoin="round" stroke-width=".50742"/>
        </g>
       </g>
      </g>
     </g>
    </g>
   </g>
   <g>
    <g>
     <path d="m214.04 77.016v15.761l-97.59 34.903-1.09-15.336-31.546-33.699c-2.168-3.594-0.887-6.692 2.804-8.313l70.75-23.824h0.672l0.336-0.336h0.336l0.672-0.336h8.062l0.672 0.336h0.672l0.336 0.336h0.332l0.645 0.34h0.668l0.336 0.336 42.933 29.832" fill="url(#n)" fill-rule="evenodd" stroke="#00385e" stroke-miterlimit="10" stroke-width=".35608"/>
    </g>
   </g>
   <g>
    <path d="m214.04 77.355v15.422l-43.269-30.507c-2.317-0.872-4.778-1.454-7.274-1.739" fill="none" stroke="#4d4d4d" stroke-linecap="square" stroke-miterlimit="10" stroke-width=".31078"/>
   </g>
   <g>
    <g>
     <path d="m214.04 77.355v15.422l-43.269-30.507c-2.489-0.934-4.653-1.446-7.336-1.707l-0.055-15.321c2.418-0.031 4.82 0.504 7.055 1.606l43.605 30.507" fill="url(#m)" stroke="#4d4d4d" stroke-linecap="square" stroke-miterlimit="10" stroke-width=".5074"/>
    </g>
   </g>
   <g>
    <g>
     <path d="m163.43 60.563c-2.496-0.286-4.961-0.301-7.414 0.027l-66.469 24.191-5.961-6.422c-1.953-3.773-0.606-6.222 3.023-8.031l70.75-23.82c1.957-0.82 3.992-1.242 6.016-1.27z" fill="url(#l)" stroke="#4d4d4d" stroke-linecap="square" stroke-miterlimit="10" stroke-width=".5074"/>
    </g>
   </g>
   <g>
    <g clip-path="url(#u)">
     <g>
      <path d="m176.61 68.578c0 4.262-6.605 7.715-14.754 7.715-8.152 0-14.757-3.453-14.757-7.715 0-4.258 6.605-7.711 14.757-7.711 8.149 0 14.754 3.453 14.754 7.711z" fill="url(#k)" fill-rule="evenodd"/>
     </g>
    </g>
   </g>
   <g>
    <g clip-path="url(#t)">
     <g>
      <path d="m102.73 98.594c7.223-0.547 12.864-4.403 12.864-8.668 0-4.649-6.606-8.418-14.754-8.418-4.375 0-8.395 1.508-11.098 3.23" fill="url(#j)" fill-rule="evenodd"/>
     </g>
    </g>
   </g>
   <g>
    <path d="m171.23 62.488c3.05 1.453 4.976 3.59 4.976 5.973 0 4.367-6.48 7.906-14.476 7.906-8 0-14.481-3.539-14.481-7.906 0-2.922 2.899-5.477 7.211-6.844" fill="none" stroke="#800080" stroke-miterlimit="10" stroke-width="1.4243"/>
   </g>
   <g>
    <path d="m172.72 63.289 40.922 29.149-96.868 34.863" fill="none" stroke="#800080" stroke-miterlimit="10" stroke-width="1.4243"/>
   </g>
   <g>
    <path d="m154.45 61.613c2.137-0.679 4.621-1.066 7.27-1.066 3.632 0 6.957 0.73 9.5 1.937" fill="none" stroke="#ffffff" stroke-miterlimit="10" stroke-width="1.4243"/>
   </g>
   <g>
    <path d="m97.313 82.109 54.457-19.437" fill="none" stroke="#800080" stroke-miterlimit="10" stroke-width="1.4243"/>
   </g>
   <g>
    <g>
     <path d="m143.76 89.086c0 1.609-2.723 2.918-6.086 2.918-3.36 0-6.082-1.309-6.082-2.918 0-1.613 2.722-2.918 6.082-2.918 3.363 0 6.086 1.305 6.086 2.918z" fill="url(#i)" fill-rule="evenodd" stroke="#4d4d4d" stroke-miterlimit="10" stroke-width=".35607"/>
    </g>
   </g>
   <g>
    <g>
     <path d="m154.94 101.09c0 1.609-2.723 2.914-6.086 2.914-3.36 0-6.082-1.305-6.082-2.914 0-1.614 2.722-2.918 6.082-2.918 3.363 0 6.086 1.304 6.086 2.918z" fill="url(#h)" fill-rule="evenodd" stroke="#4d4d4d" stroke-miterlimit="10" stroke-width=".35607"/>
    </g>
   </g>
   <g>
    <path d="m89.609 84.316c2.153-1.187 4.754-1.961 7.883-2.261" fill="none" stroke="#ffffff" stroke-miterlimit="10" stroke-width="1.4243"/>
   </g>
   <path d="m89.504 83.605-0.602 0.266 1.024 1.047z" fill="#ffffff" fill-rule="evenodd"/>
   <g>
    <path d="m97.492 82.059c0.848-0.082 1.723-0.071 2.61-0.071 8.351 0 15.121 3.731 15.121 8.332 0 4.09-4.977 7.453-12.039 8.153" fill="none" stroke="#800080" stroke-miterlimit="10" stroke-width="1.4243"/>
   </g>
   <path d="m103.37 97.715-1.023 0.019-0.422-0.019 1.379 1.445z" fill="#ee7f00" fill-rule="evenodd"/>
   <path d="m116.24 128.15 0.828-0.195-0.293-1.391-0.511 0.075z" fill="#ee7f00" fill-rule="evenodd"/>
   <g>
    <path d="m73.492 104.27h7.93l-4.078-14.727z" fill="#34679b" fill-rule="evenodd" stroke="#34679b" stroke-linecap="round" stroke-linejoin="round" stroke-width="1.423"/>
   </g>
   <g>
    <path d="m77.438 126.63-14.778-16.328" fill="none" stroke="#7ab51d" stroke-miterlimit="10" stroke-width="1.4243"/>
   </g>
   <g>
    <path d="m54.848 101.49 6.89 13.571 5.934-5.262z" fill="#7ab51d" fill-rule="evenodd" stroke="#7ab51d" stroke-width="1.4243"/>
   </g>
   <g>
    <path d="m77.258 126.41 18.414-6.511" fill="none" stroke="#e2001a" stroke-miterlimit="10" stroke-width="1.4243"/>
   </g>
   <g>
    <path d="m103.87 116.66-15.156 1.391 2.699 7.453z" fill="#e2001a" fill-rule="evenodd" stroke="#e2001a" stroke-linecap="round" stroke-linejoin="round" stroke-width="1.423"/>
   </g>
   <text transform="translate(73.976 88.521)" fill="#34679b" font-family="'Arial Nova', 'Arial Unicode MS', 'Yu Gothic UI', sans-serif" font-size="12.819px" xml:space="preserve"><tspan x="0" y="0">Z</tspan></text>
   <g>
    <path d="m77.316 126.56 0.024-25.239" fill="#34679b" stroke="#34679b" stroke-linecap="square" stroke-miterlimit="10" stroke-width="1.0682"/>
   </g>
   <text transform="translate(45.807 112.7)" fill="#7ab51d" font-family="'Arial Nova', 'Arial Unicode MS', 'Yu Gothic UI', sans-serif" font-size="12.819px" xml:space="preserve"><tspan x="0" y="0">Y</tspan></text>
   <text transform="translate(103.59 126.87)" fill="#e2001a" font-family="'Arial Nova', 'Arial Unicode MS', 'Yu Gothic UI', sans-serif" font-size="12.819px" xml:space="preserve"><tspan x="0" y="0">X</tspan></text>
   <g>
    <g>
     <path d="m322.69 126.67 173.38-62.391v39.242l-173.06 70.094z" fill="url(#g)" fill-rule="evenodd" stroke="#4d4d4d" stroke-linecap="round" stroke-linejoin="round" stroke-width=".50742"/>
    </g>
   </g>
   <g>
    <g>
     <path d="m323.01 126.34v47.281l-62.684-73.453-0.328-43.945z" fill="url(#f)" fill-rule="evenodd" stroke="#4d4d4d" stroke-linecap="round" stroke-linejoin="round" stroke-width=".50742"/>
    </g>
   </g>
   <g>
    <g>
     <path d="m260 55.883 62.688 70.453 173.38-62.055-86.843-56.347z" fill="url(#e)" fill-rule="evenodd" stroke="#4d4d4d" stroke-linecap="round" stroke-linejoin="round" stroke-width=".50742"/>
    </g>
   </g>
   <g>
    <g>
     <path d="m414.82 43.676 11.582-1.231 8.074 3.336 4.032 5.965v4.738l-1.227 3.332-116.17 27.024-0.34-5.438 3.86-7.195 9.117-5.09z" fill="url(#d)" stroke="#800080" stroke-miterlimit="10" stroke-width=".35718"/>
    </g>
   </g>
   <g>
    <path d="m342.54 95.625-3.785 0.941-3.379 0.274-2.633-0.676-2.562-0.406-2.567-1.149-1.949-1.418-1.355-1.214-2.094-1.961-0.738-1.618-0.301-3.125 3.375-3.589 6.324-2.954 82.91-28.265 9.699-0.215 6.754 1.48 5.27 2.743 2.961 2.953-1.637 3.863-3.375 4.309-4.504 2.996-4.301 1.219-5.894 1.589-10.668 3.321-62.656 19.832z" fill="#d2dadd" stroke="#4d4d4d" stroke-miterlimit="10" stroke-width=".35608"/>
   </g>
   <g>
    <g>
     <path d="m322.43 90.129 4.402 4.289 4.965 1.844 6.051 0.609 8.297-2.891 6.269-1.031 7.981-2.523c-1.157-7.762-10.047-13.305-20.84-13.305-8.684 0-16.137 3.914-19.317 9.484z" fill="url(#c)" stroke="#4d4d4d" stroke-miterlimit="10" stroke-width=".35608"/>
    </g>
   </g>
   <g>
    <g>
     <path d="m414.46 72.797 2.984-0.867 6.266-1.821 5.91-1.785 6.598-5.398 2.379-5.043c-3.09-4.723-10.039-8.016-18.117-8.016-10.95 0-19.829 6.047-19.829 13.508 0 4.82 4.204 9.48 9.278 11.445z" fill="url(#b)" stroke="#787878" stroke-miterlimit="10" stroke-width=".35716"/>
    </g>
   </g>
   <g>
    <path d="m411.48 44.879s-78.601 24.726-79.957 25.258" fill="none" stroke="#800080" stroke-miterlimit="10" stroke-width="1.4243"/>
   </g>
   <g>
    <path d="m428.6 68.34c6.738-2.957 10.949-9.004 9.898-15.106-1.297-7.543-9.41-11.546-19.012-9.898l-8 1.543" fill="none" stroke="#ffffff" stroke-miterlimit="10" stroke-width="1.423"/>
   </g>
   <g>
    <path d="m428.6 68.34c-1.586 0.695-3.309 1.223-5.137 1.535l-74.047 23.555" fill="none" stroke="#800080" stroke-miterlimit="10" stroke-width="1.4243"/>
   </g>
   <g>
    <path d="m331.52 70.141c-7.199 2.816-12.285 9.453-11.199 15.797 1.297 7.542 10.629 11.96 20.231 10.312l8.859-2.82" fill="none" stroke="#ffffff" stroke-miterlimit="10" stroke-width="1.423"/>
   </g>
   <g>
    <path d="m319.64 107.95h7.922l-4.075-14.726z" fill="#34679b" fill-rule="evenodd" stroke="#34679b" stroke-linecap="round" stroke-linejoin="round" stroke-width="1.423"/>
   </g>
   <g>
    <path d="m323.15 126.78-14.707-16.402" fill="none" stroke="#7ab51d" stroke-miterlimit="10" stroke-width="1.4243"/>
   </g>
   <g>
    <path d="m307.5 115.14 5.953-5.239-12.793-8.363z" fill="#7ab51d" fill-rule="evenodd" stroke="#7ab51d" stroke-linecap="round" stroke-linejoin="round" stroke-width="1.423"/>
   </g>
   <g>
    <path d="m323.45 126.33 18.449-6.402" fill="none" stroke="#e2001a" stroke-miterlimit="10" stroke-width="1.4243"/>
   </g>
   <g>
    <path d="m334.96 118.04 2.648 7.469 12.504-8.778z" fill="#e2001a" fill-rule="evenodd" stroke="#e2001a" stroke-linecap="round" stroke-linejoin="round" stroke-width="1.423"/>
   </g>
   <text transform="translate(310.55 99.221)" fill="#34679b" font-family="'Arial Nova', 'Arial Unicode MS', 'Yu Gothic UI', sans-serif" font-size="12.819px" xml:space="preserve"><tspan x="0" y="0">Z</tspan></text>
   <g>
    <path d="m323.45 126.86 0.024-25.246" fill="#34679b" stroke="#34679b" stroke-linecap="square" stroke-miterlimit="10" stroke-width="1.0682"/>
   </g>
   <text transform="translate(291.17 111.21)" fill="#7ab51d" font-family="'Arial Nova', 'Arial Unicode MS', 'Yu Gothic UI', sans-serif" font-size="12.819px" xml:space="preserve"><tspan x="0" y="0">Y</tspan></text>
   <text transform="translate(350.87 125.96)" fill="#e2001a" font-family="'Arial Nova', 'Arial Unicode MS', 'Yu Gothic UI', sans-serif" font-size="12.819px" xml:space="preserve"><tspan x="0" y="0">X</tspan></text>
   <g>
    <path d="m154.95 40.184 6.524 19.562" fill="#000000" stroke="#000000" stroke-linecap="round" stroke-linejoin="round" stroke-width=".70866"/>
   </g>
   <g>
    <path d="m161.63 59.895v-9.938l-6.235 2.078z" fill="#000000" stroke="#000000" stroke-linecap="round" stroke-linejoin="round" stroke-width=".79935"/>
   </g>
   <g>
    <path d="m190.68 122.2-11.172-15.683" fill="#000000" stroke="#000000" stroke-linecap="round" stroke-linejoin="round" stroke-width=".70866"/>
   </g>
   <g>
    <path d="m179.16 106.12 3.11 9.441 5.269-3.925z" fill="#000000" stroke="#000000" stroke-linecap="round" stroke-linejoin="round" stroke-width=".79935"/>
   </g>
   <g>
    <path d="m86.676 61.934 6.523 19.562" fill="#000000" stroke="#000000" stroke-linecap="round" stroke-linejoin="round" stroke-width=".70866"/>
   </g>
   <g>
    <path d="m93.359 81.645v-9.938l-6.234 2.078z" fill="#000000" stroke="#000000" stroke-linecap="round" stroke-linejoin="round" stroke-width=".79935"/>
   </g>
   <g>
    <path d="m359.1 46.656 19.308 7.231" fill="#000000" stroke="#000000" stroke-linecap="round" stroke-linejoin="round" stroke-width=".70866"/>
   </g>
   <g>
    <path d="m378.63 53.859-7.727-6.25-2.304 6.153z" fill="#000000" stroke="#000000" stroke-linecap="round" stroke-linejoin="round" stroke-width=".79935"/>
   </g>
   <g>
    <path d="m389.3 100.44 6.418-19.597" fill="#000000" stroke="#000000" stroke-linecap="round" stroke-linejoin="round" stroke-width=".70866"/>
   </g>
   <g>
    <path d="m395.88 80.691 0.055 9.938-6.246-2.043z" fill="#000000" stroke="#000000" stroke-linecap="round" stroke-linejoin="round" stroke-width=".79935"/>
   </g>
   <g>
    <path d="m300.21 70.574 19.309 7.231" fill="#000000" stroke="#000000" stroke-linecap="round" stroke-linejoin="round" stroke-width=".70866"/>
   </g>
   <g>
    <path d="m319.74 77.773-7.726-6.246-2.305 6.153z" fill="#000000" stroke="#000000" stroke-linecap="round" stroke-linejoin="round" stroke-width=".79935"/>
   </g>
   <g>
    <path d="m452.07 32.242-17.179 11.403" fill="#000000" stroke="#000000" stroke-linecap="round" stroke-linejoin="round" stroke-width=".70866"/>
   </g>
   <g>
    <path d="m434.78 43.836 9.594-2.594-3.633-5.476z" fill="#000000" stroke="#000000" stroke-linecap="round" stroke-linejoin="round" stroke-width=".79935"/>
   </g>
   <path d="m203.16 128.13c0 5.578-4.433 10.101-9.898 10.101-5.469 0-9.903-4.523-9.903-10.101 0-5.582 4.434-10.102 9.903-10.102 5.465 0 9.898 4.52 9.898 10.102z" fill="#1f638a"/>
   <text transform="translate(188.88 133.89)" fill="#ffffff" font-family="'Arial Nova', 'Arial Unicode MS', 'Yu Gothic UI', sans-serif" font-size="16px" xml:space="preserve"><tspan x="0" y="0">1</tspan></text>
   <g>
    <path d="m194.88 133.89h-1.406v-8.969c-0.7 0.668-1.637 1.234-2.813 1.703v-1.359c1.613-0.782 2.719-1.742 3.313-2.891h0.906z" fill="none" stroke="#ffffff" stroke-width=".80002"/>
   </g>
   <path d="m96 52.605c0 5.579-4.43 10.102-9.898 10.102-5.469 0-9.899-4.523-9.899-10.102 0-5.578 4.43-10.101 9.899-10.101 5.468 0 9.898 4.523 9.898 10.101z" fill="#1f638a"/>
   <text transform="translate(81.72 58.361)" fill="#ffffff" font-family="'Arial Nova', 'Arial Unicode MS', 'Yu Gothic UI', sans-serif" font-size="16px" xml:space="preserve"><tspan x="0" y="0">2</tspan></text>
   <g>
    <path d="m89.797 58.359h-7.578c0-0.644 0.222-1.296 0.672-1.953 0.445-0.664 1.289-1.5 2.531-2.5 0.75-0.601 1.422-1.234 2.016-1.89 0.593-0.664 0.89-1.336 0.89-2.016 0-0.57-0.203-1.047-0.609-1.422-0.406-0.383-0.922-0.578-1.547-0.578-0.637 0-1.168 0.199-1.594 0.594-0.43 0.386-0.64 0.965-0.64 1.734l-1.454-0.172c0.094-1.07 0.473-1.89 1.141-2.453 0.676-0.57 1.535-0.859 2.578-0.859 1.125 0 2 0.312 2.625 0.937s0.938 1.375 0.938 2.25c0 0.742-0.266 1.485-0.797 2.235-0.524 0.75-1.574 1.757-3.156 3.015-0.825 0.668-1.372 1.242-1.641 1.719h5.625z" fill="none" stroke="#ffffff" stroke-width=".80002"/>
   </g>
   <path d="m162.05 31.605c0 5.579-4.434 10.102-9.899 10.102-5.468 0-9.902-4.523-9.902-10.102 0-5.578 4.434-10.101 9.902-10.101 5.465 0 9.899 4.523 9.899 10.101z" fill="#1f638a"/>
   <text transform="translate(147.77 37.361)" fill="#ffffff" font-family="'Arial Nova', 'Arial Unicode MS', 'Yu Gothic UI', sans-serif" font-size="16px" xml:space="preserve"><tspan x="0" y="0">2</tspan></text>
   <g>
    <path d="m155.84 37.359h-7.578c0-0.644 0.222-1.296 0.672-1.953 0.445-0.664 1.289-1.5 2.531-2.5 0.75-0.601 1.422-1.234 2.015-1.89 0.594-0.664 0.891-1.336 0.891-2.016 0-0.57-0.203-1.047-0.609-1.422-0.407-0.383-0.922-0.578-1.547-0.578-0.637 0-1.168 0.199-1.594 0.594-0.43 0.386-0.641 0.965-0.641 1.734l-1.453-0.172c0.094-1.07 0.473-1.89 1.141-2.453 0.676-0.57 1.535-0.859 2.578-0.859 1.125 0 2 0.312 2.625 0.937s0.938 1.375 0.938 2.25c0 0.742-0.266 1.485-0.797 2.235-0.524 0.75-1.575 1.757-3.157 3.015-0.824 0.668-1.371 1.242-1.64 1.719h5.625z" fill="none" stroke="#ffffff" stroke-width=".80002"/>
   </g>
   <path d="m301.33 67.531c0 5.578-4.433 10.102-9.898 10.102-5.469 0-9.899-4.524-9.899-10.102s4.43-10.101 9.899-10.101c5.465 0 9.898 4.523 9.898 10.101z" fill="#1f638a"/>
   <text transform="translate(287.05 73.286)" fill="#ffffff" font-family="'Arial Nova', 'Arial Unicode MS', 'Yu Gothic UI', sans-serif" font-size="16px" xml:space="preserve"><tspan x="0" y="0">2</tspan></text>
   <g>
    <path d="m295.12 73.285h-7.578c0-0.644 0.223-1.297 0.672-1.953 0.445-0.664 1.289-1.5 2.531-2.5 0.75-0.602 1.422-1.234 2.016-1.891 0.593-0.664 0.89-1.336 0.89-2.015 0-0.571-0.203-1.047-0.609-1.422-0.406-0.383-0.922-0.578-1.547-0.578-0.637 0-1.168 0.199-1.594 0.594-0.429 0.386-0.64 0.964-0.64 1.734l-1.453-0.172c0.093-1.07 0.472-1.891 1.14-2.453 0.676-0.57 1.535-0.859 2.578-0.859 1.125 0 2 0.312 2.625 0.937s0.938 1.375 0.938 2.25c0 0.742-0.266 1.484-0.797 2.234-0.524 0.75-1.574 1.758-3.156 3.016-0.825 0.668-1.371 1.242-1.641 1.719h5.625z" fill="none" stroke="#ffffff" stroke-width=".80002"/>
   </g>
   <path d="m469 26.242c0 5.582-4.43 10.106-9.899 10.106-5.464 0-9.898-4.524-9.898-10.106 0-5.578 4.434-10.101 9.898-10.101 5.469 0 9.899 4.523 9.899 10.101z" fill="#1f638a"/>
   <text transform="translate(454.73 31.998)" fill="#ffffff" font-family="'Arial Nova', 'Arial Unicode MS', 'Yu Gothic UI', sans-serif" font-size="16px" xml:space="preserve"><tspan x="0" y="0">2</tspan></text>
   <g>
    <path d="m462.8 32h-7.578c0-0.645 0.222-1.297 0.671-1.953 0.446-0.664 1.29-1.5 2.532-2.5 0.75-0.602 1.422-1.234 2.015-1.891 0.594-0.664 0.891-1.336 0.891-2.015 0-0.571-0.203-1.047-0.609-1.422-0.407-0.383-0.922-0.578-1.547-0.578-0.637 0-1.168 0.199-1.594 0.593-0.43 0.387-0.641 0.965-0.641 1.735l-1.453-0.172c0.094-1.07 0.473-1.891 1.141-2.453 0.676-0.571 1.535-0.86 2.578-0.86 1.125 0 2 0.313 2.625 0.938s0.937 1.375 0.937 2.25c0 0.742-0.265 1.484-0.796 2.234-0.524 0.75-1.575 1.758-3.157 3.016-0.824 0.668-1.371 1.242-1.64 1.719h5.625z" fill="none" stroke="#ffffff" stroke-width=".80002"/>
   </g>
   <path d="m360.25 44.992c0 5.582-4.434 10.106-9.899 10.106-5.468 0-9.898-4.524-9.898-10.106 0-5.578 4.43-10.101 9.898-10.101 5.465 0 9.899 4.523 9.899 10.101z" fill="#1f638a"/>
   <text transform="translate(345.97 50.748)" fill="#ffffff" font-family="'Arial Nova', 'Arial Unicode MS', 'Yu Gothic UI', sans-serif" font-size="16px" xml:space="preserve"><tspan x="0" y="0">1</tspan></text>
   <g>
    <path d="m351.97 50.75h-1.407v-8.969c-0.699 0.668-1.636 1.235-2.812 1.703v-1.359c1.613-0.781 2.719-1.742 3.312-2.891h0.907z" fill="none" stroke="#ffffff" stroke-width=".80002"/>
   </g>
   <path d="m396.15 108.18c0 5.582-4.429 10.105-9.898 10.105s-9.898-4.523-9.898-10.105c0-5.578 4.429-10.102 9.898-10.102s9.898 4.524 9.898 10.102z" fill="#1f638a"/>
   <text transform="translate(381.87 113.94)" fill="#ffffff" font-family="'Arial Nova', 'Arial Unicode MS', 'Yu Gothic UI', sans-serif" font-size="16px" xml:space="preserve"><tspan x="0" y="0">1</tspan></text>
   <g>
    <path d="m387.87 113.94h-1.406v-8.969c-0.699 0.668-1.637 1.234-2.813 1.703v-1.359c1.614-0.782 2.719-1.743 3.313-2.891h0.906z" fill="none" stroke="#ffffff" stroke-width=".80002"/>
   </g>
   <path d="m142.22 189.1c0 5.579-4.434 10.102-9.899 10.102-5.469 0-9.902-4.523-9.902-10.102 0-5.578 4.433-10.101 9.902-10.101 5.465 0 9.899 4.523 9.899 10.101z" fill="#1f638a"/>
   <text transform="translate(126.99 194.83)" fill="#ffffff" font-family="'Arial Nova', 'Arial Unicode MS', 'Yu Gothic UI', sans-serif" font-size="16px" xml:space="preserve"><tspan x="0" y="0">A</tspan></text>
   <g>
    <path d="m137.68 194.83h-1.703l-1.344-3.484h-4.781l-1.266 3.484h-1.609l4.406-11.453h1.625zm-3.516-4.687c-0.937-2.477-1.469-3.883-1.594-4.219-0.117-0.344-0.246-0.797-0.39-1.36h-0.031c-0.149 0.774-0.344 1.485-0.594 2.141l-1.281 3.438z" fill="none" stroke="#ffffff" stroke-width=".80002"/>
   </g>
   <path d="m388.65 189.14c0 5.578-4.433 10.101-9.902 10.101-5.465 0-9.898-4.523-9.898-10.101 0-5.582 4.433-10.102 9.898-10.102 5.469 0 9.902 4.52 9.902 10.102z" fill="#1f638a"/>
   <text transform="translate(373.93 194.86)" fill="#ffffff" font-family="'Arial Nova', 'Arial Unicode MS', 'Yu Gothic UI', sans-serif" font-size="16px" xml:space="preserve"><tspan x="0" y="0">B</tspan></text>
   <g>
    <path d="m381.64 188.77c0.718 0.218 1.254 0.574 1.609 1.062 0.352 0.492 0.531 1.059 0.531 1.703 0 0.637-0.164 1.227-0.484 1.766-0.324 0.531-0.781 0.929-1.375 1.187-0.594 0.25-1.398 0.375-2.406 0.375h-4.391v-11.453h4.297c1.395 0 2.375 0.305 2.937 0.906 0.571 0.606 0.86 1.278 0.86 2.016 0 0.5-0.133 0.965-0.391 1.391-0.261 0.418-0.656 0.765-1.187 1.047zm-5-0.563h2.484c0.508 0 0.938-0.023 1.281-0.078 0.352-0.063 0.661-0.211 0.922-0.453 0.27-0.25 0.406-0.633 0.406-1.156 0-0.54-0.136-0.938-0.406-1.188-0.273-0.258-0.594-0.414-0.969-0.469-0.367-0.062-0.839-0.093-1.421-0.093h-2.297zm0 5.297h2.859c1.02 0 1.727-0.172 2.125-0.516 0.395-0.351 0.594-0.836 0.594-1.453 0-0.625-0.215-1.109-0.641-1.453-0.418-0.344-1.179-0.516-2.281-0.516h-2.656z" fill="none" stroke="#ffffff" stroke-width=".80002"/>
   </g>
  </g>
 </g>
</svg>
