<?xml version="1.0" encoding="UTF-8" standalone="no"?>
<svg xmlns:inkscape="http://www.inkscape.org/namespaces/inkscape" xmlns:sodipodi="http://sodipodi.sourceforge.net/DTD/sodipodi-0.dtd" xmlns:xlink="http://www.w3.org/1999/xlink" xmlns="http://www.w3.org/2000/svg" xmlns:svg="http://www.w3.org/2000/svg" xmlns:rdf="http://www.w3.org/1999/02/22-rdf-syntax-ns#" xmlns:cc="http://creativecommons.org/ns#" xmlns:dc="http://purl.org/dc/elements/1.1/" width="491.34" height="264.57" version="1.1" id="svg20286" sodipodi:docname="2D_fasenfraesen_3DModell_beispiel3.svg" inkscape:version="1.2.2 (732a01da63, 2022-12-09)">
  <sodipodi:namedview id="namedview20288" pagecolor="#ffffff" bordercolor="#666666" borderopacity="1.0" inkscape:showpageshadow="2" inkscape:pageopacity="0.0" inkscape:pagecheckerboard="0" inkscape:deskcolor="#d1d1d1" showgrid="false" showguides="false" inkscape:zoom="1.7840269" inkscape:cx="302.68603" inkscape:cy="67.543826" inkscape:window-width="1920" inkscape:window-height="1010" inkscape:window-x="953" inkscape:window-y="-6" inkscape:window-maximized="1" inkscape:current-layer="svg20286"/>
  <title id="title20115">Abbildung für OPEN MIND Softwaredokumentation</title>
  <defs id="defs20154">
    <linearGradient id="linearGradient20539-7-11" x1="54.983" x2="54.983" y1="34.986" y2="34.986" gradientUnits="userSpaceOnUse">
      <stop stop-color="#fff" offset="0" id="stop20117"/>
      <stop stop-color="#FCFCFC" offset=".2264" id="stop20119"/>
      <stop stop-color="#F4F4F4" offset=".3626" id="stop20121"/>
      <stop stop-color="#E6E6E6" offset=".475" id="stop20123"/>
      <stop stop-color="#D1D1D1" offset=".5744" id="stop20125"/>
      <stop stop-color="#B7B7B7" offset=".6652" id="stop20127"/>
      <stop stop-color="#979797" offset=".7498" id="stop20129"/>
      <stop stop-color="#707070" offset=".8297" id="stop20131"/>
      <stop stop-color="#444" offset=".9057" id="stop20133"/>
      <stop stop-color="#121212" offset=".9761" id="stop20135"/>
      <stop offset="1" id="stop20137"/>
    </linearGradient>
    <linearGradient id="linearGradient17780-7">
      <stop stop-color="#fff" offset="0" id="stop20140"/>
      <stop stop-color="#00385e" offset="1" id="stop20142"/>
    </linearGradient>
    <linearGradient id="linearGradient29090" x1="280.84" x2="522.17" y1="50.916" y2="54.319" gradientUnits="userSpaceOnUse" xlink:href="#linearGradient17780-7"/>
    <linearGradient id="linearGradient6959" x1="264.8" x2="790.72" y1="93.017" y2="96.884" gradientTransform="matrix(1.2135,0,0,1.2135,-40.994,856.62)" gradientUnits="userSpaceOnUse" xlink:href="#linearGradient17780-7"/>
    <linearGradient id="linearGradient6966" x1="60.022" x2="80.232" y1="151.61" y2="151.34" gradientTransform="matrix(2.67,0,0,0.76377,19.787,815.14)" gradientUnits="userSpaceOnUse" xlink:href="#linearGradient20539-7-11"/>
    <linearGradient id="linearGradient6969" x1="94.103" x2="139.94" y1="918.76" y2="918.76" gradientTransform="matrix(1.5265,0,0,1.5257,23.016,-368.38)" gradientUnits="userSpaceOnUse" xlink:href="#linearGradient20539-7-11"/>
    <linearGradient id="linearGradient6972" x1="13.689" x2="147.43" y1="1009.2" y2="1009.2" gradientTransform="matrix(1.0667,0,0,1.0667,-12.8,0)" gradientUnits="userSpaceOnUse" xlink:href="#linearGradient17780-7"/>
    <linearGradient id="linearGradient6982" x1="10.264" x2="565.54" y1="147.04" y2="147.48" gradientTransform="matrix(1.2374,0,0,1.2366,-10.528,894.99)" gradientUnits="userSpaceOnUse" xlink:href="#linearGradient17780-7"/>
    <linearGradient id="linearGradient6985" x1="19.757" x2="419.38" y1="996.08" y2="1052.1" gradientTransform="matrix(1.0667,0,0,1.0667,-12.8,0)" gradientUnits="userSpaceOnUse" xlink:href="#linearGradient17780-7"/>
    <linearGradient id="linearGradient6988" x1="10.146" x2="641.36" y1="89.516" y2="251.58" gradientTransform="matrix(1.2374,0,0,1.2366,-10.528,894.99)" gradientUnits="userSpaceOnUse" xlink:href="#linearGradient17780-7"/>
    <linearGradient id="linearGradient6991" x1="13.761" x2="468.37" y1="942.44" y2="1026.8" gradientTransform="matrix(1.0667,0,0,1.0667,-12.8,0)" gradientUnits="userSpaceOnUse" xlink:href="#linearGradient17780-7"/>
  </defs>
  <metadata id="metadata20156">
    <rdf:RDF>
      <cc:Work rdf:about="">
        <dc:format>image/svg+xml</dc:format>
        <dc:type rdf:resource="http://purl.org/dc/dcmitype/StillImage"/>
        <dc:title>Abbildung für OPEN MIND Softwaredokumentation</dc:title>
        <dc:creator>
          <cc:Agent>
            <dc:title>OPEN MIND Technologies AG</dc:title>
          </cc:Agent>
        </dc:creator>
        <dc:rights>
          <cc:Agent>
            <dc:title>Alle Rechte vorbehalten.</dc:title>
          </cc:Agent>
        </dc:rights>
        <dc:publisher>
          <cc:Agent>
            <dc:title>Technische Redaktion</dc:title>
          </cc:Agent>
        </dc:publisher>
      </cc:Work>
    </rdf:RDF>
  </metadata>
  <g stroke="#4d4d4d" id="g20166" transform="translate(0,-857.95)">
    <rect x="2.0752001" y="915.89001" width="280.88" height="178.75999" fill="url(#linearGradient6991)" stroke-width="0.67654" id="rect20158" style="fill:url(#linearGradient6991)"/>
    <path d="m 283.14,970.71 c -35.99,-14.92 -85.413,-24.296 -139.02,-24.296 -55.518,0 -105.77,9.8224 -142.09,25.697 l 0.060629,86.048 2.6456,2.2668 2.8349,1.6991 1.6099,1.265 c 35.635,-14.117 82.982,-22.723 134.940001,-22.723 53.848,0 102.74,9.2412 138.78,24.282 z" fill="url(#linearGradient6988)" stroke-width="0.67654" id="path20160" style="fill:url(#linearGradient6988)"/>
    <path d="m 8.4713,1063.3 c 35.714,-14.285 83.345,-23.005 135.65,-23.005 53.86,0 102.76,9.2461 138.8,24.293 l 0.0334,20.085 c -36.043,-15.056 -84.961,-24.307 -138.84,-24.307 -40.199,0 -77.638,5.1505 -109.03,14.019 l -1.8054,-0.7655 -2.6963,-0.9979 -5.791,-2.2951 -5.5918,-2.7935 -5.791,-2.0948 -2.9957,-1.4976 -1.9501,-0.6418 z" fill="url(#linearGradient6985)" stroke-width="0.39402" id="path20162" style="fill:url(#linearGradient6985)"/>
    <path d="m 283.06,1083.5 c -36.053,-15.081 -84.821,-25.492 -138.75,-25.492 -55.443,0 -105.82,10.939 -142.14,26.777 v 9.6554 h 280.86 l 0.0272,-10.94 z" fill="url(#linearGradient6982)" stroke-width="0.67654" id="path20164" style="fill:url(#linearGradient6982)"/>
  </g>
  <path id="polyline20184" transform="matrix(1.5761,0,0,1.5761,-52.638,-15.41)" style="opacity:0.65460526;fill:#4d4d4d" d="m 152.51,130.2 71.08618,-34.242692 10.62321,17.282002" sodipodi:nodetypes="ccc"/>
  <g fill="none" id="g20182" transform="translate(0,-857.95)">
    <g id="g20178">
      <path d="m 33.666,1073.2 c 117.86,-28.99 175.67,-14.307 247.84,9.9425" stroke="#7ab51d" stroke-linecap="round" stroke-linejoin="round" stroke-width="3.1521" id="path20168"/>
      <path d="m 30.31,1071.9 c 112.78,-29.146 172.75,-20.327 251.85,7.3875" stroke="#800080" stroke-linecap="round" stroke-linejoin="round" stroke-width="3.0236" id="path20170"/>
      <polyline transform="matrix(1.2374,0,0,1.2366,-10.528,894.99)" points="136.92 134.35 137.43 139.94 139.72 141.46 217.26 155.96 217.65 148.86" stroke="#d4aa00" stroke-linecap="round" stroke-linejoin="round" stroke-width="2.4443" id="polyline20174"/>
      <polyline transform="matrix(1.2374,0,0,1.2366,-10.528,894.99)" points="58.117 152.14 86.335 142.48 97.013 142.48 97.013 134.35" stroke="#d4aa00" stroke-linecap="round" stroke-linejoin="round" stroke-width="2.4443" id="polyline20176"/>
      <path d="M 258.79,1079.1 258.58882,916.46" stroke="#e2001a" stroke-width="3.0236" id="path20172"/>
    </g>
    <rect x="2.0752001" y="915.89001" width="280.88" height="178.75999" stroke="#4d4d4d" stroke-width="0.39402" id="rect20180"/>
  </g>
  <g stroke-width="0.67654" id="g20192" transform="translate(0,-857.95)">
    <path d="m 144.12,1094.7 c -55.403,0 -106.18,-16.793 -141.98,-36.426 v 36.226 h 141.98" fill="url(#linearGradient6972)" stroke="#4d4d4d" id="path20186" style="fill:url(#linearGradient6972)"/>
    <path d="m 98.911,1008.6 119.81,-0.085 -53.294,49.713 -14.025,0.09 z" fill="url(#linearGradient6969)" stroke="#000000" stroke-linecap="round" stroke-linejoin="round" id="path20188" style="fill:url(#linearGradient6969)"/>
    <path d="m 152.23,929.92 c -21.92,6.254 -34.354,1.9274 -53.757,-2.5109 l 0.32452,81.358 120.1,-0.065 0.32267,-81.294 c -22.84,-9.419 -44.864,-3.8057 -66.784,2.4483 z" color="#000000" fill="url(#linearGradient6966)" stroke="#000000" stroke-linecap="round" stroke-linejoin="round" id="path20190" style="fill:url(#linearGradient6966)"/>
  </g>
  <g fill="none" id="g20202" transform="translate(0,-857.95)">
    <path d="m 159.19,927.36 c -20.638,-10.452 -40.294,-7.6262 -60.078,0" color="#000000" stroke="#000000" stroke-linecap="round" stroke-linejoin="round" stroke-width="0.67654" id="path20196"/>
    <line x1="109.52" x2="158.89999" y1="1061.1" y2="1061.1" stroke="#e2001a" stroke-linecap="round" stroke-linejoin="round" stroke-width="3.0236" id="line20198"/>
    <ellipse cx="164.08" cy="1057.1" rx="24.396" ry="24.379999" stroke="#4d4d4d" stroke-miterlimit="10" stroke-width="3.0236" id="ellipse20200" style="stroke-width:1.51181102;stroke-dasharray:none"/>
  </g>
  <g id="g20210" transform="translate(0,-857.95)">
    <path d="m 99.669,927.42 c 8.0677,-2.8028 15.136,-5.6245 31.094,-6.5156 14.447,-0.48339 20.888,3.6737 28.595,6.8014 -8.9403,2.6541 -17.895,5.1239 -29.452,5.1034 -19.002,-1.7093 -20.487,-3.2932 -30.237,-5.3891 z" fill="#ffffff" stroke="#000000" stroke-width="0.30992" id="path20204"/>
    <path d="m 465.68,964.22 c 0,46.804 -37.943,84.742 -84.747,84.742 -46.799,0 -84.742,-37.938 -84.742,-84.742 0,-46.809 37.66274,-82.50488 84.46174,-82.50488 46.804,0 85.02726,35.69588 85.02726,82.50488 z" fill="url(#linearGradient6959)" stroke-width="1.0667" id="path20206" style="fill:url(#linearGradient6959)" sodipodi:nodetypes="sssss"/>
    <path id="polygon20208" style="fill:url(#linearGradient29090)" transform="matrix(1.2135,0,0,1.2038,-41.288,857.1)" d="m 417.43165,81.319613 0.0822,2.814083 L 400.29,80.083 368.94,74.67 l -47.97,-5.599 -19.22,-1.68 -20.91,-1.493 2.24,-3.737 10.53,-17.952 17.33,-13.935874 24.69643,-8.908958 26.8207,0.163508 L 380.89,27.496 399.46,41.527 c 4.27559,6.378179 8.55119,11.535847 12.82678,19.867204 2.05678,6.400603 4.53849,12.501351 5.14487,19.925409 z" sodipodi:nodetypes="cccccccccccccccc"/>
  </g>
  <path d="m 407.01,145.35 v 15.849" id="path20236" style="stroke:#000000;stroke-width:0.676535;stroke-linecap:round;stroke-linejoin:round;stroke-dasharray:none" sodipodi:nodetypes="cc"/>
  <g id="g20218" transform="translate(0,-857.95)" style="fill:none;stroke-linecap:round;stroke-linejoin:round">
    <path d="m 382.54,971.84 v 23.687 c 0,5.7461 8.0118,11.495 21.073,7.4888 l 4.7025,-0.6966 c 14.583,2.154 27.37041,4.8028 41.58341,8.6837" stroke="#d4aa00" stroke-width="4.5354" id="path20212" style="stroke-width:3.77953;stroke-dasharray:none" sodipodi:nodetypes="csccc"/>
    <path id="line20214" style="stroke:#e2001a;stroke-width:3.77953" d="m 297.63107,971.84003 h 84.90894" sodipodi:nodetypes="cc"/>
    <path d="m 310.76,921.86 c 53.294,1.6622 94.7116,0.71367 149.5306,20.37407" stroke="#800080" stroke-width="6.0472" id="path20216" style="stroke-width:3.77953;stroke-dasharray:none" sodipodi:nodetypes="cc"/>
  </g>
  <path d="M 301.66132,81.3 C 358.52032,78.9478 415.17,85.6936 463.28,101.352" stroke="#7ab51d" stroke-width="6.0472" id="path20220" style="fill:none;stroke-width:3.77953;stroke-linecap:round;stroke-linejoin:round;stroke-dasharray:none" sodipodi:nodetypes="cc"/>
  <path d="m 313.8564,55.00704 45.487,55.97718 c 0.0888,0.0676 42.509,0 42.509,0 l 50.813,-47.965 C 424.92161,13.666055 351.8406,8.3929218 313.8564,55.00704 Z" fill="#ffffff" stroke="#000000" stroke-width="1.4324" id="path20224" sodipodi:nodetypes="ccccc"/>
  <path d="M 384.61954,116.87993 429.761,116.95" stroke-width="0.94488" id="path20228" style="stroke:#000000;stroke-linecap:round;stroke-linejoin:round;stroke-width:0.67653543;stroke-dasharray:none" sodipodi:nodetypes="cc"/>
  <path d="m 383.23434,161.24782 -12.571,-4.1904 v 8.7619 z" stroke-width="1.0658" id="path20230" style="stroke:#000000;stroke-linecap:round;stroke-linejoin:round"/>
  <path d="m 385.05921,135.81 h 45.14146" id="path20232" sodipodi:nodetypes="cc" style="stroke:#000000;stroke-width:0.676535;stroke-linecap:round;stroke-linejoin:round;stroke-dasharray:none"/>
  <path d="m 384.15,144.95 v 15.849" id="path20234" style="stroke:#000000;stroke-width:0.676535;stroke-linecap:round;stroke-linejoin:round;stroke-dasharray:none" sodipodi:nodetypes="cc"/>
  <path d="m 407.9351,161.2398 12.571,4.1905 v -8.7619 z" stroke-width="1.0658" id="path20240" style="stroke:#000000;stroke-linecap:round;stroke-linejoin:round"/>
  <path d="M 378.6,161.15 H 364.751" id="path20242" style="stroke:#000000;stroke-width:0.94488;stroke-linecap:round;stroke-linejoin:round"/>
  <path d="M 427.49,160.95 H 413.641" id="path20244" style="stroke:#000000;stroke-width:0.94488;stroke-linecap:round;stroke-linejoin:round"/>
  <path d="M 407.8,161.25 H 383.647" id="path20246" style="stroke:#000000;stroke-width:0.67653543;stroke-linecap:round;stroke-linejoin:round;stroke-dasharray:none"/>
  <path d="m 430.38,96.29 v 60.127" id="path20248" sodipodi:nodetypes="cc" style="stroke:#000000;stroke-width:0.67653543;stroke-linecap:round;stroke-linejoin:round;stroke-dasharray:none"/>
  <path d="m 430.4002,115.93947 4.1905,-12.571 h -8.7619 z" stroke-width="1.0658" id="path20252" style="stroke:#000000;stroke-linecap:round;stroke-linejoin:round"/>
  <path d="m 430.34399,136.79575 -4.1905,12.571 h 8.7619 z" stroke-width="1.0658" id="path20254" style="stroke:#000000;stroke-linecap:round;stroke-linejoin:round"/>
  <path d="M 303.75,221.35 H 283.615" fill="#165489" stroke="#165489" stroke-linecap="round" stroke-linejoin="round" stroke-width="0.94488" id="path20258"/>
  <g transform="translate(358.49,320.05)" id="g20266">
    <ellipse cx="-44.919998" cy="-98.797997" rx="13.199" ry="13.469" fill="#1f638a" stroke-linecap="round" stroke-linejoin="round" stroke-width="1.0658" id="ellipse20260"/>
    <text x="-50.761276" y="-91.125885" fill="#000000" font-family="'Arial Nova', 'Arial Unicode MS', 'Yu Gothic UI', sans-serif" font-size="12.8px" letter-spacing="0px" stroke-width="1.0667" word-spacing="0px" style="line-height:0%" xml:space="preserve" id="text20264"><tspan x="-50.761276" y="-91.125885" fill="#ffffff" font-family="'Arial Nova', 'Arial Unicode MS', 'Yu Gothic UI', sans-serif" font-size="21.333px" stroke="#ffffff" stroke-width="1.0667" style="line-height:1.25" id="tspan20262">1</tspan></text>
  </g>
  <g transform="translate(460.71,224.05)" id="g20274">
    <ellipse cx="-13.718" cy="-98.797997" rx="13.199" ry="13.469" fill="#1f638a" stroke-linecap="round" stroke-linejoin="round" stroke-width="1.0658" id="ellipse20268"/>
    <text x="-19.559933" y="-91.125885" fill="#000000" font-family="'Arial Nova', 'Arial Unicode MS', 'Yu Gothic UI', sans-serif" font-size="12.8px" letter-spacing="0px" stroke-width="1.0667" word-spacing="0px" style="line-height:0%" xml:space="preserve" id="text20272"><tspan x="-19.559933" y="-91.125885" fill="#ffffff" font-family="'Arial Nova', 'Arial Unicode MS', 'Yu Gothic UI', sans-serif" font-size="21.333px" stroke="#ffffff" stroke-width="1.0667" style="line-height:1.25" id="tspan20270">2</tspan></text>
  </g>
  <rect style="opacity:1;fill:#800080;fill-opacity:1;stroke:none;stroke-width:3.77953;stroke-linecap:round;stroke-linejoin:round;stroke-dasharray:none" id="rect23975" width="3.6434276" height="2.2421141" x="308.00201" y="63.551777"/>
  <rect style="fill:#800080;fill-opacity:1;stroke:none;stroke-width:3.77953;stroke-linecap:round;stroke-linejoin:round;stroke-dasharray:none" id="rect23975-1" width="3.6434276" height="2.2421141" x="461.49738" y="-73.295311" transform="rotate(19.343668)"/>
  <rect style="fill:#7ab51d;fill-opacity:1;stroke:none;stroke-width:3.77953;stroke-linecap:round;stroke-linejoin:round;stroke-dasharray:none" id="rect23975-0" width="3.6434276" height="2.2421141" x="469.94421" y="-55.888672" transform="rotate(19.064703)"/>
  <path d="m 465.67266,107.37575 c 0,46.804 -37.943,84.742 -84.747,84.742 -46.799,0 -84.742,-37.938 -84.742,-84.742 0,-46.809002 37.943,-84.747002 84.742,-84.747002 46.804,0 84.747,37.938 84.747,84.747002 z" fill="none" stroke="#4d4d4d" stroke-miterlimit="10" stroke-width="3.7795" id="path20226" style="stroke-width:1.88976;stroke-dasharray:none"/>
  <g transform="translate(378.08,279.15)" id="g20282">
    <ellipse cx="17.483" cy="-98.797997" rx="13.199" ry="13.469" fill="#1f638a" stroke-linecap="round" stroke-linejoin="round" stroke-width="1.0658" id="ellipse20276"/>
    <text x="11.641406" y="-91.256096" fill="#000000" font-family="'Arial Nova', 'Arial Unicode MS', 'Yu Gothic UI', sans-serif" font-size="12.8px" letter-spacing="0px" stroke-width="1.0667" word-spacing="0px" style="line-height:0%" xml:space="preserve" id="text20280"><tspan x="11.641406" y="-91.256096" fill="#ffffff" font-family="'Arial Nova', 'Arial Unicode MS', 'Yu Gothic UI', sans-serif" font-size="21.333px" stroke="#ffffff" stroke-width="1.0667" style="line-height:1.25" id="tspan20278">3</tspan></text>
  </g>
</svg>
