<svg width="130mm" height="65mm" version="1.1" viewBox="0 0 130 65" xmlns="http://www.w3.org/2000/svg" xmlns:xlink="http://www.w3.org/1999/xlink">
 <defs>
  <linearGradient id="linearGradient13623-2" x1="23.331" x2="21.541" y1="8.7803" y2="148.54" gradientTransform="matrix(1.0966 0 0 1.0966 -10.272 -31.276)" gradientUnits="userSpaceOnUse">
   <stop stop-color="#fff" offset="0"/>
   <stop stop-color="#00385e" offset="1"/>
  </linearGradient>
 </defs>
 <g>
  <path d="m1.297 62.079v-56.336h86.006l-0.14174 56.288" fill="none" stroke="#5a5a5a" stroke-linecap="round" stroke-linejoin="round" stroke-width=".179" style="paint-order:markers fill stroke"/>
  <rect x="1.2831" y="5.7145" width="86.029" height="56.321" fill="#000000" fill-rule="evenodd" opacity=".076037" style="paint-order:markers fill stroke"/>
  <path d="m1.3447 62.143 0.047739-56.31 9.9417-0.18085-0.082477 7.0869h17.336l0.01536-7.0055h8.5992l1.1599 1.132 0.05181 10.183 9.7688-0.05745c-1.0159 6.6016-1.5936 10.095 2.175 10.521l4.321-0.01009 15.733-10.451 13.501 0.07078-0.0071 11.98h-2.6556v1.6108l-2.1784 0.017v3.3544h2.4983v6.2845l-2.5275-4e-3 0.02918 3.1344 4.834-4e-5 -0.02645 3.0318-1.7588 1.1996-40.898 0.24614c0.04438-2.9551-1.8743-7.1107-7.1301-7.1261-4.8532 0.06061-6.9036 4.2219-6.9579 7.1178l-13.642-8.16e-4 0.09449 14.268" fill="url(#linearGradient13623-2)" fill-rule="evenodd" opacity=".63825" stroke="#000000" stroke-linecap="round" stroke-linejoin="round" stroke-width=".179" style="paint-order:markers fill stroke"/>
  <g transform="matrix(.26458 0 0 .26458 31.761 46.807)">
   <ellipse cx="-44.92" cy="-98.798" rx="13.199" ry="13.469" fill="#1f638a" stroke-linecap="round" stroke-linejoin="round" stroke-width="1.0658"/>
   <text x="-50.761276" y="-91.125885" fill="#000000" letter-spacing="0px" word-spacing="0px" style="line-height:0%" xml:space="preserve"><tspan x="-50.761276" y="-91.125885" fill="#ffffff" font-family="'Arial Nova', 'Arial Unicode MS', 'Yu Gothic UI', sans-serif" font-size="20px" stroke="#ffffff" stroke-width="1.0667" style="line-height:1.25">A</tspan></text>
  </g>
  <path d="m19.998 17.239v-4.37" fill="none" stroke="#000000" stroke-width=".26458px"/>
  <path d="m1.4643 5.7846 9.9354 0.033409-0.05904 6.8058 17.302 0.06682-0.01801-6.9386h8.9333l1.1599 1.0652 0.0518 10.183 9.4558 0.02051c-0.0819 3.3408-2.1661 7.0042 0.24375 9.7494 0.3705 0.30175 0.73548 0.61709 1.849 0.72986h4.2804l16.119-10.477 12.984-0.06361" fill="none" stroke="#ff00ff" stroke-linecap="round" stroke-linejoin="round" stroke-width=".64" style="paint-order:markers fill stroke"/>
  <g transform="matrix(.26458 0 0 .26458 59.838 65.852)">
   <ellipse cx="-44.92" cy="-98.798" rx="13.199" ry="13.469" fill="#1f638a" stroke-linecap="round" stroke-linejoin="round" stroke-width="1.0658"/>
   <text x="-50.003662" y="-91.252151" fill="#000000" letter-spacing="0px" word-spacing="0px" style="line-height:0%" xml:space="preserve"><tspan x="-50.003662" y="-91.252151" fill="#ffffff" font-family="'Arial Nova', 'Arial Unicode MS', 'Yu Gothic UI', sans-serif" font-size="20px" stroke="#ffffff" stroke-width="1.0667" style="line-height:1.25">B</tspan></text>
  </g>
  <path d="m47.86 47.653v-4.37" fill="none" stroke="#000000" stroke-width=".26458px"/>
  <g stroke-linecap="round" stroke-linejoin="round">
   <path d="m87.001 62.083-85.657 0.015145" fill="#34679b" stroke="#4d4d4d" stroke-dasharray="2.112, 1.056, 0.528, 1.056" stroke-width=".528"/>
   <path d="m83.898 17.284v11.583h-2.6828v1.6108l-2.1784 0.017v3.3544h2.4983v6.2845l-2.5275-4e-3 0.02918 3.1344 4.8612-4e-5v2.9566" fill="none" stroke="#ff00ff" stroke-width=".646" style="paint-order:markers fill stroke"/>
   <path d="m83.831 46.31-1.6495 1.5379h-40.898c0.0444-2.9551-1.8743-7.0349-7.1301-7.0502-4.8531 0.0606-6.9036 4.1544-6.9579 7.0502h-13.642v14.287" fill="none" stroke="#2c0094" stroke-width=".579" style="paint-order:markers fill stroke"/>
  </g>
  <g transform="matrix(.26458 0 0 .26458 103.87 72.186)">
   <ellipse cx="-44.92" cy="-98.798" rx="13.199" ry="13.469" fill="#1f638a" stroke-linecap="round" stroke-linejoin="round" stroke-width="1.0658"/>
   <text x="-50.761276" y="-91.125885" fill="#000000" letter-spacing="0px" word-spacing="0px" style="line-height:0%" xml:space="preserve"><tspan x="-50.761276" y="-91.125885" fill="#ffffff" font-family="'Arial Nova', 'Arial Unicode MS', 'Yu Gothic UI', sans-serif" font-size="20px" stroke="#ffffff" stroke-width="1.0667" style="line-height:1.25">1</tspan></text>
  </g>
  <path d="m84.19 46.241h4.37" fill="none" stroke="#000000" stroke-width=".26458px"/>
 </g>
</svg>
