<svg version="1.1" viewBox="0 0 637.8 354.33" xmlns="http://www.w3.org/2000/svg" xmlns:xlink="http://www.w3.org/1999/xlink">
 <title>Abbildung fuer OPEN MIND Softwaredokumentation</title>
 <defs>
  <pattern id="pattern3475" patternTransform="matrix(.039058 .03791 -6.5842 6.7835 327.41 87.202)" xlink:href="#pattern35824"/>
  <pattern id="pattern3467" patternTransform="matrix(.060358 -.04423 5.2511 7.1658 327.26 87.202)" xlink:href="#pattern35816"/>
  <pattern id="pattern3454" patternTransform="matrix(.031154 .029986 -3.4604 3.5951 -236.19 87.202)" xlink:href="#pattern34244"/>
  <pattern id="pattern3444" patternTransform="matrix(.060358 -.04423 5.2511 7.1658 12.624 86.834)" xlink:href="#pattern34234"/>
  <pattern id="pattern35824" patternTransform="matrix(.039058 .03791 -6.5842 6.7835 349.41 87.202)" xlink:href="#pattern11378"/>
  <pattern id="pattern35816" patternTransform="matrix(.060358 -.04423 5.2511 7.1658 349.26 87.202)" xlink:href="#pattern11253"/>
  <pattern id="pattern34244" patternTransform="matrix(.031154 .029986 -3.4604 3.5951 -180.19 87.202)" xlink:href="#pattern11308"/>
  <pattern id="pattern34234" patternTransform="matrix(.060358 -.04423 5.2511 7.1658 68.624 86.834)" xlink:href="#pattern11269"/>
  <pattern id="pattern11378" patternTransform="matrix(.048222 .046804 -8.1288 8.375 0 0)" xlink:href="#Strips1_64"/>
  <pattern id="pattern11308" patternTransform="matrix(.038462 .037021 -4.2722 4.4385 0 0)" xlink:href="#Strips1_64"/>
  <pattern id="pattern11253" patternTransform="matrix(.074518 -.054607 6.483 8.8469 -.1894 -2.4831e-8)" xlink:href="#Strips1_64"/>
  <pattern id="Strips1_64" width="65" height="1" patternTransform="translate(0) scale(10)" patternUnits="userSpaceOnUse">
   <rect y="-.5" width="1" height="2" fill="black"/>
  </pattern>
  <linearGradient id="linearGradient17780">
   <stop stop-color="#ffffff" offset="0"/>
   <stop stop-color="#00385e" offset="1"/>
  </linearGradient>
  <linearGradient id="linearGradient8664" x1="186.38" x2="183.61" y1="20.216" y2="155.33" gradientTransform="translate(97.402 616.17)" gradientUnits="userSpaceOnUse" xlink:href="#linearGradient17780"/>
  <linearGradient id="linearGradient8672" x1="515.63" x2="518.55" y1=".36225" y2="715.55" gradientUnits="userSpaceOnUse" xlink:href="#linearGradient17780"/>
  <linearGradient id="linearGradient9253" x1="515.63" x2="518.55" y1=".36225" y2="715.55" gradientTransform="translate(0 -4.0478e-6)" gradientUnits="userSpaceOnUse">
   <stop stop-color="#ffffff" offset="0"/>
   <stop stop-color="#00385e" offset="1"/>
  </linearGradient>
  <pattern id="pattern11269" patternTransform="matrix(.074518 -.054607 6.483 8.8469 307.19 -.45377)" xlink:href="#pattern11253-8"/>
  <pattern id="pattern11253-8" patternTransform="matrix(.074518 -.054607 6.483 8.8469 0 0)" xlink:href="#Strips1_64-5"/>
  <pattern id="Strips1_64-5" width="65" height="1" patternTransform="translate(0) scale(10)" patternUnits="userSpaceOnUse">
   <rect y="-.5" width="1" height="2" fill="black"/>
  </pattern>
  <linearGradient id="linearGradient3432" x1="167.91" x2="499.04" y1="32.899" y2="147.55" gradientTransform="translate(-56)" gradientUnits="userSpaceOnUse" xlink:href="#linearGradient17780"/>
  <linearGradient id="linearGradient3451" x1="515.63" x2="518.55" y1=".36225" y2="715.55" gradientTransform="matrix(.50794 0 0 .50794 4.8074 138.41)" gradientUnits="userSpaceOnUse">
   <stop stop-color="#ffffff" offset="0"/>
   <stop stop-color="#00385e" offset="1"/>
  </linearGradient>
  <linearGradient id="linearGradient3521" x1="515.63" x2="518.55" y1=".36225" y2="715.55" gradientTransform="matrix(.50794 0 0 .50794 319.45 138.66)" gradientUnits="userSpaceOnUse">
   <stop stop-color="#ffffff" offset="0"/>
   <stop stop-color="#00385e" offset="1"/>
  </linearGradient>
  <linearGradient id="linearGradient3527" x1="2.258" x2="303.73" y1="70.499" y2="136.25" gradientTransform="matrix(1.0448 0 0 1.0448 426.05 -40.868)" gradientUnits="userSpaceOnUse" xlink:href="#linearGradient17780"/>
  <linearGradient id="linearGradient1675" x1="203.76" x2="466.51" y1="56.568" y2="186.58" gradientTransform="matrix(.69113 .0010163 -.0010163 .69113 -107.62 87.91)" gradientUnits="userSpaceOnUse">
   <stop stop-color="#ffffff" offset="0"/>
   <stop stop-color="#00385e" offset="1"/>
  </linearGradient>
  <linearGradient id="linearGradient1196" x1="203.76" x2="466.51" y1="56.568" y2="186.58" gradientTransform="matrix(.92151 .001355 -.001355 .92151 299.35 1.1626)" gradientUnits="userSpaceOnUse" xlink:href="#linearGradient1675"/>
  <linearGradient id="linearGradient1242" x1="203.76" x2="466.51" y1="56.568" y2="186.58" gradientTransform="matrix(.69113 .0010163 -.0010163 .69113 -127.76 96.775)" gradientUnits="userSpaceOnUse" xlink:href="#linearGradient1675"/>
  <linearGradient id="linearGradient1274" x1="203.76" x2="466.51" y1="56.568" y2="186.58" gradientTransform="matrix(.92151 .001355 -.001355 .92151 247.6 -40.575)" gradientUnits="userSpaceOnUse" xlink:href="#linearGradient1675"/>
 </defs>
 <g transform="translate(0 -698.03)" display="none" fill="none" stroke="#000000" stroke-linecap="round" stroke-linejoin="round" stroke-width=".35433">
  <path d="m17.723 787.04h602.35" color="#000000" display="inline"/>
  <path d="m17.723 822.41h602.35" color="#000000" display="inline"/>
  <path d="m17.723 857.78h602.35" color="#000000" display="inline"/>
  <path d="m17.723 893.15h602.35" color="#000000" display="inline"/>
  <path d="m17.723 928.52h602.35" color="#000000" display="inline"/>
  <path d="m17.723 963.88h602.35" color="#000000" display="inline"/>
  <path d="m17.723 999.25h602.35" color="#000000" display="inline"/>
  <path d="m17.723 1034.6h602.35" color="#000000" display="inline"/>
  <path d="m17.723 751.67h602.35" color="#000000" display="inline"/>
 </g>
 <g transform="translate(0 35.433)" display="none" stroke-linecap="round" stroke-linejoin="round">
  <path transform="matrix(.70578 0 0 .85801 -531.82 -10.406)" d="m388.91 81.512c0 56.905-56.08 103.04-125.26 103.04s-125.26-46.131-125.26-103.04c0-56.905 56.08-103.04 125.26-103.04s125.26 46.131 125.26 103.04z" color="#000000" display="inline" fill="none" stroke="#000000" stroke-width=".45533"/>
  <g transform="translate(-99.035 133.9)" fill="#000000" stroke="#000000" stroke-width=".35433">
   <path d="m-159.13 33.354c0 48.825-39.587 88.406-88.412 88.406-48.825 0-88.31-39.581-88.31-88.406v-87.054h176.72z" color="#000000" display="inline" fill-opacity=".053719"/>
   <path d="m-247.49-53.65v175.37" color="#000000" display="inline" fill-rule="evenodd"/>
  </g>
  <g transform="translate(265.4 179.25)" fill="#000000" stroke="#000000" stroke-width=".35433">
   <path d="m-159.13 33.354c0 48.825-39.587 88.406-88.412 88.406-48.825 0-88.31-39.581-88.31-88.406v-87.054h176.72z" color="#000000" display="inline" fill-opacity=".053719"/>
   <path d="m-247.49-53.65v175.37" color="#000000" display="inline" fill-rule="evenodd"/>
  </g>
  <path d="m5.7228 313.64 320.11-320.11" color="#000000" display="inline" fill="#000000" fill-rule="evenodd" stroke="#000000" stroke-width=".35433"/>
  <g transform="translate(61.909 -230.28)" fill="#000000" stroke="#000000" stroke-width=".35433">
   <path d="m-159.13 33.354c0 48.825-39.587 88.406-88.412 88.406-48.825 0-88.31-39.581-88.31-88.406v-87.054h176.72z" color="#000000" display="inline" fill-opacity=".053719"/>
   <path d="m-247.49-53.65v175.37" color="#000000" display="inline" fill-rule="evenodd"/>
  </g>
  <g transform="translate(336.62 108.6)" fill="#000000" stroke="#000000" stroke-width=".35433">
   <path d="m-159.13 33.354c0 48.825-39.587 88.406-88.412 88.406-48.825 0-88.31-39.581-88.31-88.406v-87.054h176.72z" color="#000000" display="inline" fill-opacity=".053719"/>
   <path d="m-247.49-53.65v175.37" color="#000000" display="inline" fill-rule="evenodd"/>
  </g>
  <g transform="translate(99.704 -255.27)" fill="#000000" stroke="#000000" stroke-width=".35433">
   <path d="m-159.13 33.354c0 48.825-39.587 88.406-88.412 88.406-48.825 0-88.31-39.581-88.31-88.406v-87.054h176.72z" color="#000000" display="inline" fill-opacity=".053719"/>
   <path d="m-247.49-53.65v175.37" color="#000000" display="inline" fill-rule="evenodd"/>
  </g>
  <g transform="translate(93.132 -305.36)" fill="#000000" stroke="#000000" stroke-width=".35433">
   <path d="m-159.13 33.354c0 48.825-39.587 88.406-88.412 88.406-48.825 0-88.31-39.581-88.31-88.406v-87.054h176.72z" color="#000000" display="inline" fill-opacity=".053719"/>
   <path d="m-247.49-53.65v175.37" color="#000000" display="inline" fill-rule="evenodd"/>
  </g>
  <g transform="translate(407.22 37.984)" fill="#000000" stroke="#000000" stroke-width=".35433">
   <path d="m-159.13 33.354c0 48.825-39.587 88.406-88.412 88.406-48.825 0-88.31-39.581-88.31-88.406v-87.054h176.72z" color="#000000" display="inline" fill-opacity=".053719"/>
   <path d="m-247.49-53.65v175.37" color="#000000" display="inline" fill-rule="evenodd"/>
  </g>
  <g transform="translate(477.98 -32.884)" fill="#000000" stroke="#000000" stroke-width=".35433">
   <path d="m-159.13 33.354c0 48.825-39.587 88.406-88.412 88.406-48.825 0-88.31-39.581-88.31-88.406v-87.054h176.72z" color="#000000" display="inline" fill-opacity=".053719"/>
   <path d="m-247.49-53.65v175.37" color="#000000" display="inline" fill-rule="evenodd"/>
  </g>
  <g transform="translate(68.296 -310.38)" fill="#000000" stroke="#000000" stroke-width=".35433">
   <path d="m-159.13 33.354c0 48.825-39.587 88.406-88.412 88.406-48.825 0-88.31-39.581-88.31-88.406v-87.054h176.72z" color="#000000" display="inline" fill-opacity=".053719"/>
   <path d="m-247.49-53.65v175.37" color="#000000" display="inline" fill-rule="evenodd"/>
  </g>
  <g transform="translate(548.72 -103.56)" fill="#000000" stroke="#000000" stroke-width=".35433">
   <path d="m-159.13 33.354c0 48.825-39.587 88.406-88.412 88.406-48.825 0-88.31-39.581-88.31-88.406v-87.054h176.72z" color="#000000" display="inline" fill-opacity=".053719"/>
   <path d="m-247.49-53.65v175.37" color="#000000" display="inline" fill-rule="evenodd"/>
  </g>
  <path d="m41.976 313.88 320.11-320.11" color="#000000" display="inline" fill="#000000" fill-rule="evenodd" stroke="#000000" stroke-width=".35433"/>
  <path d="m108.84 301.18-90.259-0.16518c43.23 0 79.195-31.03 86.875-72.031 36.071-6.4431 64.551-34.769 71.25-70.75 35.834-6.6837 64.076-34.974 70.656-70.844 35.81-6.6344 64.026-34.856 70.688-70.656 41.113-7.5901 72.25-43.629 72.25-86.938l49.286 0.08036z" color="#000000" display="inline" fill="#000080" fill-opacity=".16116" stroke="#000080" stroke-width=".35433"/>
 </g>
 <g transform="translate(0 35.433)" display="none">
  <path d="m98.165 301.2c390.14 10.312 337.38-110.11 391.03-283.03" color="#000000" display="inline" fill="none" stroke="#000000" stroke-linecap="round" stroke-linejoin="round" stroke-width=".35433"/>
  <g transform="translate(-660.89 -.94766)">
   <g transform="translate(1079.4 179.25)" fill="#000000" stroke="#000000" stroke-linecap="round" stroke-linejoin="round" stroke-width=".35433">
    <path d="m-159.13 34.306c0 48.825-39.587 88.406-88.412 88.406-48.825 0-88.31-39.581-88.31-88.406v-87.054h176.72z" color="#000000" display="inline" fill-opacity=".053719"/>
    <path d="m-247.49-52.766v175.37" color="#000000" display="inline" fill-rule="evenodd"/>
   </g>
  </g>
  <path transform="matrix(.70578 0 0 .85801 -531.82 -10.406)" d="m388.91 81.512c0 56.905-56.08 103.04-125.26 103.04s-125.26-46.131-125.26-103.04c0-56.905 56.08-103.04 125.26-103.04s125.26 46.131 125.26 103.04z" color="#000000" display="inline" fill="none" stroke="#000000" stroke-linecap="round" stroke-linejoin="round" stroke-width=".45533"/>
  <g transform="translate(-99.035 133.9)" fill="#000000" stroke="#000000" stroke-linecap="round" stroke-linejoin="round" stroke-width=".35433">
   <path d="m-159.13 33.354c0 48.825-39.587 88.406-88.412 88.406-48.825 0-88.31-39.581-88.31-88.406v-87.054h176.72z" color="#000000" display="inline" fill-opacity=".053719"/>
   <path d="m-247.49-53.65v175.37" color="#000000" display="inline" fill-rule="evenodd"/>
  </g>
  <path d="m-612.55 405.49c404.77 0.53585 499.16-122.79 501.03-283.03" color="#000000" display="inline" fill="none" stroke="#000000" stroke-linecap="round" stroke-linejoin="round" stroke-width=".35433"/>
  <g transform="translate(624.09 73.294)" fill="#000000" stroke="#000000" stroke-linecap="round" stroke-linejoin="round" stroke-width=".35433">
   <path d="m-159.13 33.354c0 48.825-39.587 88.406-88.412 88.406-48.825 0-88.31-39.581-88.31-88.406v-87.054h176.72z" color="#000000" display="inline" fill-opacity=".053719"/>
   <path d="m-247.49-53.65v175.37" color="#000000" display="inline" fill-rule="evenodd"/>
  </g>
  <g transform="translate(-536.12 .007434)">
   <g transform="translate(1150.6 108.6)" fill="#000000" stroke="#000000" stroke-linecap="round" stroke-linejoin="round" stroke-width=".35433">
    <path d="m-159.13 33.354c0 48.825-39.587 88.406-88.412 88.406-48.825 0-88.31-39.581-88.31-88.406v-87.054h176.72z" color="#000000" display="inline" fill-opacity=".053719"/>
    <path d="m-247.49-53.65v175.37" color="#000000" display="inline" fill-rule="evenodd"/>
   </g>
  </g>
  <g transform="translate(639.99 2.5834)" fill="#000000" stroke="#000000" stroke-linecap="round" stroke-linejoin="round" stroke-width=".35433">
   <path d="m-159.13 33.354c0 48.825-39.587 88.406-88.412 88.406-48.825 0-88.31-39.581-88.31-88.406v-87.054h176.72z" color="#000000" display="inline" fill-opacity=".053719"/>
   <path d="m-247.49-53.65v175.37" color="#000000" display="inline" fill-rule="evenodd"/>
  </g>
  <g transform="translate(93.132 -305.36)" fill="#000000" stroke="#000000" stroke-linecap="round" stroke-linejoin="round" stroke-width=".35433">
   <path d="m-159.13 33.354c0 48.825-39.587 88.406-88.412 88.406-48.825 0-88.31-39.581-88.31-88.406v-87.054h176.72z" color="#000000" display="inline" fill-opacity=".053719"/>
   <path d="m-247.49-53.65v175.37" color="#000000" display="inline" fill-rule="evenodd"/>
  </g>
  <g transform="translate(631.85 38.106)" fill="#000000" stroke="#000000" stroke-linecap="round" stroke-linejoin="round" stroke-width=".35433">
   <path d="m-159.13 33.354c0 48.825-39.587 88.406-88.412 88.406-48.825 0-88.31-39.581-88.31-88.406v-87.054h176.72z" color="#000000" display="inline" fill-opacity=".053719"/>
   <path d="m-247.49-53.65v175.37" color="#000000" display="inline" fill-rule="evenodd"/>
  </g>
  <g transform="translate(649.66 -32.884)" fill="#000000" stroke="#000000" stroke-linecap="round" stroke-linejoin="round" stroke-width=".35433">
   <path d="m-159.13 33.354c0 48.825-39.587 88.406-88.412 88.406-48.825 0-88.31-39.581-88.31-88.406v-87.054h176.72z" color="#000000" display="inline" fill-opacity=".053719"/>
   <path d="m-247.49-53.65v175.37" color="#000000" display="inline" fill-rule="evenodd"/>
  </g>
  <g transform="translate(68.296 -310.38)" fill="#000000" stroke="#000000" stroke-linecap="round" stroke-linejoin="round" stroke-width=".35433">
   <path d="m-159.13 33.354c0 48.825-39.587 88.406-88.412 88.406-48.825 0-88.31-39.581-88.31-88.406v-87.054h176.72z" color="#000000" display="inline" fill-opacity=".053719"/>
   <path d="m-247.49-53.65v175.37" color="#000000" display="inline" fill-rule="evenodd"/>
  </g>
  <g transform="translate(594.13 144.09)" fill="#000000" stroke="#000000" stroke-linecap="round" stroke-linejoin="round" stroke-width=".35433">
   <path d="m-159.48 33.354c0 48.825-39.587 88.406-88.412 88.406-48.825 0-88.31-39.581-88.31-88.406v-87.054h176.72z" color="#000000" display="inline" fill-opacity=".053719"/>
   <path d="m-247.49-53.65v175.37" color="#000000" display="inline" fill-rule="evenodd"/>
  </g>
  <path d="m82.55 319.4v-106.86c0 48.825 39.488 88.406 88.313 88.406 48.825 0 88.406-39.581 88.406-88.406v-19.188c7.5106 41.189 43.48 72.406 86.844 72.406 39.933 0 73.686-26.457 84.656-62.812 14.071-14.727 23.115-34.331 24.344-56 6.0629-11.789 9.5422-25.123 9.7187-39.25 4.7976-10.632 7.5353-22.379 7.75-34.75 4.5597-9.8473 7.3927-20.657 8.0313-32.062 6.2631-12.132 9.8124-25.906 9.8124-40.5v319.02" color="#000000" display="inline" fill="#000080" fill-opacity=".053719" stroke="#000080" stroke-linecap="round" stroke-linejoin="round" stroke-width=".35433"/>
 </g>
 <g transform="translate(0 -698.03)" display="none" fill="none" stroke-linecap="round" stroke-linejoin="round">
  <g stroke="#d4aa00" stroke-width="1.3429">
   <path d="m17.659 787.04h383.55" color="#000000" display="inline"/>
   <path d="m17.659 822.41h384.54" color="#000000" display="inline"/>
   <path d="m17.656 857.78h374.82" color="#000000" display="inline"/>
   <path d="m17.654 893.15h366.61" color="#000000" display="inline"/>
   <path d="m17.652 928.52h358.95" color="#000000" display="inline"/>
   <path d="m17.649 963.88h349.25" color="#000000" display="inline"/>
   <path d="m17.644 999.25h328.83" color="#000000" display="inline"/>
   <path d="m17.59 1034.6h153.51" color="#000000" display="inline"/>
  </g>
  <path d="m17.723 751.67h602.35" color="#000000" display="inline" stroke="#000000" stroke-width=".35433"/>
 </g>
 <g transform="translate(0 35.433)" display="none" stroke-linecap="round" stroke-linejoin="round">
  <g>
   <path d="m82.55 319.4v-106.86c0 48.825 39.488 88.406 88.313 88.406 48.825 0 88.406-39.581 88.406-88.406v-19.188c7.5106 41.189 43.48 72.406 86.844 72.406 39.933 0 73.686-26.457 84.656-62.812 14.071-14.727 23.115-34.331 24.344-56 6.0629-11.789 9.5422-25.123 9.7187-39.25 4.7976-10.632 7.5353-22.379 7.75-34.75 4.5597-9.8473 7.3927-20.657 8.0313-32.062 3.6687-7.1066 6.4063-14.598 8.0448-22.666l1.7676 0.02737v301.15" color="#000000" display="inline" fill="#ff00ff" fill-opacity=".54132" stroke="#800080" stroke-width=".63425"/>
   <path d="m489.2 18.17c-53.656 172.92-0.89207 293.34-391.03 283.03h-15.711v18.41h433.9l-0.16799-301.36z" color="#000000" display="inline" fill="url(#linearGradient8672)" stroke="#000000" stroke-width=".35433"/>
   <path transform="matrix(.70578 0 0 .85801 -531.82 -10.406)" d="m388.91 81.512c0 56.905-56.08 103.04-125.26 103.04s-125.26-46.131-125.26-103.04c0-56.905 56.08-103.04 125.26-103.04s125.26 46.131 125.26 103.04z" color="#000000" display="inline" fill="none" stroke="#000000" stroke-width=".45533"/>
  </g>
  <g transform="translate(-99.035 133.9)" fill="#000000" stroke="#000000" stroke-width=".35433">
   <path d="m-159.13 33.354c0 48.825-39.587 88.406-88.412 88.406-48.825 0-88.31-39.581-88.31-88.406v-87.054h176.72z" color="#000000" display="inline" fill-opacity=".053719"/>
   <path d="m-247.49-53.65v175.37" color="#000000" display="inline" fill-rule="evenodd"/>
  </g>
  <path d="m-612.55 405.49c404.77 0.53585 499.16-122.79 501.03-283.03" color="#000000" display="inline" fill="none" stroke="#000000" stroke-width=".35433"/>
  <g transform="translate(93.132 -305.36)" fill="#000000" stroke="#000000" stroke-width=".35433">
   <path d="m-159.13 33.354c0 48.825-39.587 88.406-88.412 88.406-48.825 0-88.31-39.581-88.31-88.406v-87.054h176.72z" color="#000000" display="inline" fill-opacity=".053719"/>
   <path d="m-247.49-53.65v175.37" color="#000000" display="inline" fill-rule="evenodd"/>
  </g>
  <g transform="translate(68.296 -310.38)" fill="#000000" stroke="#000000" stroke-width=".35433">
   <path d="m-159.13 33.354c0 48.825-39.587 88.406-88.412 88.406-48.825 0-88.31-39.581-88.31-88.406v-87.054h176.72z" color="#000000" display="inline" fill-opacity=".053719"/>
   <path d="m-247.49-53.65v175.37" color="#000000" display="inline" fill-rule="evenodd"/>
  </g>
  <path d="m259.2 212.43c0 48.825-39.587 88.406-88.412 88.406s-88.31-39.581-88.31-88.406v-87.054c12.753 9.0753 34.799 34.737 88.41 0 40.765-26.414 65.406-8.6086 88.312 0z" color="#000000" display="inline" fill="#666666" stroke="#666666" stroke-width="1.3429"/>
  <path d="m82.483 212.43c0 48.825 39.587 88.406 88.412 88.406s88.31-39.581 88.31-88.406v-87.054c-12.753 9.0752-34.799 34.737-88.41 0-40.765-26.414-65.406-8.6086-88.312 0z" color="#000000" display="inline" fill="#b3b3b3" stroke="#666666" stroke-width="1.3429"/>
  <g transform="translate(-372.93 -159.54)" display="inline" stroke="#7d7d7d">
   <rect transform="matrix(.81801 -.5752 .5752 .81801 0 0)" x="53.713" y="351.39" width="88.75" height="48" display="inline" fill="url(#linearGradient8664)" stroke-width="1.7717"/>
   <path d="m259.66 276.32 72.803-51.193" display="inline" fill="none" stroke-width=".70866"/>
   <path d="m282.07 230.61 28.041 39.878" display="inline" fill="none" stroke-width=".70866"/>
  </g>
 </g>
 <g transform="translate(0 -698.03)" display="none" fill="none" stroke="#000000" stroke-linecap="round" stroke-linejoin="round" stroke-width=".35433">
  <path d="m17.723 843.04h602.35" color="#000000" display="inline"/>
  <path d="m17.723 908.41h602.35" color="#000000" display="inline"/>
  <path d="m17.723 963.78h602.35" color="#000000" display="inline"/>
  <path d="m17.723 999.15h602.35" color="#000000" display="inline"/>
  <path d="m17.723 1018.5h602.35" color="#000000" display="inline"/>
  <path d="m17.723 1029.9h602.35" color="#000000" display="inline"/>
  <path d="m17.723 1033.3h602.35" color="#000000" display="inline"/>
  <path d="m17.723 1034.6h602.35" color="#000000" display="inline"/>
  <path d="m17.723 772.96h602.35" color="#000000" display="inline"/>
 </g>
 <g transform="translate(0 35.433)" display="none">
  <path d="m98.165 301.2c390.14 10.312 337.38-110.11 391.03-283.03" color="#000000" display="inline" fill="none" stroke="#008000" stroke-linecap="round" stroke-linejoin="round" stroke-width=".35433"/>
  <g transform="translate(-526.64 -16.568)">
   <g transform="translate(1079.4 179.25)" fill="#000000" stroke="#000000" stroke-linecap="round" stroke-linejoin="round" stroke-width=".35433">
    <path d="m-159.13 34.306c0 48.825-39.587 88.406-88.412 88.406-48.825 0-88.31-39.581-88.31-88.406v-87.054h176.72z" color="#000000" display="inline" fill-opacity=".053719"/>
    <path d="m-247.49-52.766v175.37" color="#000000" display="inline" fill-rule="evenodd"/>
   </g>
  </g>
  <path transform="matrix(.70578 0 0 .85801 -531.82 -10.406)" d="m388.91 81.512c0 56.905-56.08 103.04-125.26 103.04s-125.26-46.131-125.26-103.04c0-56.905 56.08-103.04 125.26-103.04s125.26 46.131 125.26 103.04z" color="#000000" display="inline" fill="none" stroke="#000000" stroke-linecap="round" stroke-linejoin="round" stroke-width=".45533"/>
  <g transform="translate(-99.035 133.9)" fill="#000000" stroke="#000000" stroke-linecap="round" stroke-linejoin="round" stroke-width=".35433">
   <path d="m-159.13 33.354c0 48.825-39.587 88.406-88.412 88.406-48.825 0-88.31-39.581-88.31-88.406v-87.054h176.72z" color="#000000" display="inline" fill-opacity=".053719"/>
   <path d="m-247.49-53.65v175.37" color="#000000" display="inline" fill-rule="evenodd"/>
  </g>
  <path d="m-612.55 405.49c404.77 0.53585 499.16-122.79 501.03-283.03" color="#000000" display="inline" fill="none" stroke="#000000" stroke-linecap="round" stroke-linejoin="round" stroke-width=".35433"/>
  <g transform="translate(499.01 174.34)" fill="#000000" stroke="#000000" stroke-linecap="round" stroke-linejoin="round" stroke-width=".35433">
   <path d="m-159.13 33.354c0 48.825-39.587 88.406-88.412 88.406-48.825 0-88.31-39.581-88.31-88.406v-87.054h176.72z" color="#000000" display="inline" fill-opacity=".053719"/>
   <path d="m-247.49-53.65v175.37" color="#000000" display="inline" fill-rule="evenodd"/>
  </g>
  <g transform="translate(-536.12 .007434)">
   <g transform="translate(1150.6 108.6)" fill="#000000" stroke="#000000" stroke-linecap="round" stroke-linejoin="round" stroke-width=".35433">
    <path d="m-159.13 33.354c0 48.825-39.587 88.406-88.412 88.406-48.825 0-88.31-39.581-88.31-88.406v-87.054h176.72z" color="#000000" display="inline" fill-opacity=".053719"/>
    <path d="m-247.49-53.65v175.37" color="#000000" display="inline" fill-rule="evenodd"/>
   </g>
  </g>
  <g transform="translate(628.42 53.15)" fill="#000000" stroke="#000000" stroke-linecap="round" stroke-linejoin="round" stroke-width=".35433">
   <path d="m-159.13 33.354c0 48.825-39.587 88.406-88.412 88.406-48.825 0-88.31-39.581-88.31-88.406v-87.054h176.72z" color="#000000" display="inline" fill-opacity=".053719"/>
   <path d="m-247.49-53.65v175.37" color="#000000" display="inline" fill-rule="evenodd"/>
  </g>
  <g transform="translate(93.132 -305.36)" fill="#000000" stroke="#000000" stroke-linecap="round" stroke-linejoin="round" stroke-width=".35433">
   <path d="m-159.13 33.354c0 48.825-39.587 88.406-88.412 88.406-48.825 0-88.31-39.581-88.31-88.406v-87.054h176.72z" color="#000000" display="inline" fill-opacity=".053719"/>
   <path d="m-247.49-53.65v175.37" color="#000000" display="inline" fill-rule="evenodd"/>
  </g>
  <g transform="translate(442.06 178.91)" fill="#000000" stroke="#000000" stroke-linecap="round" stroke-linejoin="round" stroke-width=".35433">
   <path d="m-159.13 33.354c0 48.825-39.587 88.406-88.412 88.406-48.825 0-88.31-39.581-88.31-88.406v-87.054h176.72z" color="#000000" display="inline" fill-opacity=".053719"/>
   <path d="m-247.49-53.65v175.37" color="#000000" display="inline" fill-rule="evenodd"/>
  </g>
  <g transform="translate(381.54 179.49)" fill="#000000" stroke="#000000" stroke-linecap="round" stroke-linejoin="round" stroke-width=".35433">
   <path d="m-159.13 33.354c0 48.825-39.587 88.406-88.412 88.406-48.825 0-88.31-39.581-88.31-88.406v-87.054h176.72z" color="#000000" display="inline" fill-opacity=".053719"/>
   <path d="m-247.49-53.65v175.37" color="#000000" display="inline" fill-rule="evenodd"/>
  </g>
  <g transform="translate(68.296 -310.38)" fill="#000000" stroke="#000000" stroke-linecap="round" stroke-linejoin="round" stroke-width=".35433">
   <path d="m-159.13 33.354c0 48.825-39.587 88.406-88.412 88.406-48.825 0-88.31-39.581-88.31-88.406v-87.054h176.72z" color="#000000" display="inline" fill-opacity=".053719"/>
   <path d="m-247.49-53.65v175.37" color="#000000" display="inline" fill-rule="evenodd"/>
  </g>
  <g transform="translate(594.13 144.09)" fill="#000000" stroke="#000000" stroke-linecap="round" stroke-linejoin="round" stroke-width=".35433">
   <path d="m-159.48 33.354c0 48.825-39.587 88.406-88.412 88.406-48.825 0-88.31-39.581-88.31-88.406v-87.054h176.72z" color="#000000" display="inline" fill-opacity=".053719"/>
   <path d="m-247.49-53.65v175.37" color="#000000" display="inline" fill-rule="evenodd"/>
  </g>
  <g fill="#666666" fill-rule="evenodd" stroke="#ff0000" stroke-linejoin="round" stroke-width="1.3429">
   <path d="m430.89 203.09 4.1964 2.7679" color="#000000" display="inline"/>
   <path d="m455.73 133.65 4.7993 1.496" color="#000000" display="inline"/>
   <path d="m469.55 72.167 4.9021 1.1139" color="#000000" display="inline"/>
  </g>
  <g transform="translate(644.45 -12.543)" display="inline" fill="#000000" stroke="#000000" stroke-linecap="round" stroke-linejoin="round" stroke-width=".35433">
   <path d="m-159.13 33.354c0 48.825-39.587 88.406-88.412 88.406-48.825 0-88.31-39.581-88.31-88.406v-87.054h176.72z" color="#000000" display="inline" fill-opacity=".053719"/>
   <path d="m-247.49-53.65v175.37" color="#000000" display="inline" fill-rule="evenodd"/>
  </g>
  <g fill="#666666" fill-rule="evenodd" stroke="#ff0000" stroke-linejoin="round" stroke-width="1.3429">
   <path d="m362.38 264.52 2.1278 4.5545" color="#000000" display="inline"/>
   <path d="m294.81 284.97 0.86848 4.9514" color="#000000" display="inline"/>
   <path d="m103.27 295.97-0.0479 5.0268" color="#000000" display="inline"/>
   <path d="m165.18 295.8-0.0479 5.0268" color="#000000" display="inline"/>
   <path d="m229.77 293.55 0.20836 5.0227" color="#000000" display="inline"/>
  </g>
  <g transform="translate(667.07 -82.421)" display="inline" fill="#000000" stroke="#000000" stroke-linecap="round" stroke-linejoin="round" stroke-width=".35433">
   <path d="m-159.13 33.354c0 48.825-39.587 88.406-88.412 88.406-48.825 0-88.31-39.581-88.31-88.406v-87.054h176.72z" color="#000000" display="inline" fill-opacity=".053719"/>
   <path d="m-247.49-53.65v175.37" color="#000000" display="inline" fill-rule="evenodd"/>
  </g>
  <path d="m485.5 11.974 4.8154 1.4432" color="#000000" display="inline" fill="#666666" fill-rule="evenodd" stroke="#ff0000" stroke-linejoin="round" stroke-width="1.3429"/>
 </g>
 <g transform="translate(0 -698.03)" display="none" fill="none" stroke="#d4aa00" stroke-linecap="round" stroke-linejoin="round" stroke-width="1.3429">
  <path d="m17.658 843.04h379.45" color="#000000" display="inline"/>
  <path d="m17.653 908.41h363.21" color="#000000" display="inline"/>
  <path d="m17.649 963.78h349.32" color="#000000" display="inline"/>
  <path d="m17.642 999.15h328.98" color="#000000" display="inline"/>
  <path d="m17.63 1018.7h287.63" color="#000000" display="inline"/>
  <path d="m17.614 1029.6h233.97" color="#000000" display="inline"/>
  <path d="m17.597 1033.6h176.98" color="#000000" display="inline"/>
  <path d="m17.554 1035h116.49" color="#000000" display="inline"/>
  <path d="m17.664 772.96h402.11" color="#000000" display="inline"/>
 </g>
 <g transform="translate(0 35.433)" display="none" stroke-linejoin="round">
  <path d="m98.165 301.2c390.14 10.312 337.38-110.11 391.03-283.03" color="#000000" display="inline" fill="none" stroke="#008000" stroke-linecap="round" stroke-width=".35433"/>
  <path transform="matrix(.70578 0 0 .85801 -531.82 -10.406)" d="m388.91 81.512c0 56.905-56.08 103.04-125.26 103.04s-125.26-46.131-125.26-103.04c0-56.905 56.08-103.04 125.26-103.04s125.26 46.131 125.26 103.04z" color="#000000" display="inline" fill="none" stroke="#000000" stroke-linecap="round" stroke-width=".45533"/>
  <g transform="translate(-99.035 133.9)" fill="#000000" stroke="#000000" stroke-linecap="round" stroke-width=".35433">
   <path d="m-159.13 33.354c0 48.825-39.587 88.406-88.412 88.406-48.825 0-88.31-39.581-88.31-88.406v-87.054h176.72z" color="#000000" display="inline" fill-opacity=".053719"/>
   <path d="m-247.49-53.65v175.37" color="#000000" display="inline" fill-rule="evenodd"/>
  </g>
  <path d="m-612.55 405.49c404.77 0.53585 499.16-122.79 501.03-283.03" color="#000000" display="inline" fill="none" stroke="#000000" stroke-linecap="round" stroke-width=".35433"/>
  <g transform="translate(93.132 -305.36)" fill="#000000" stroke="#000000" stroke-linecap="round" stroke-width=".35433">
   <path d="m-159.13 33.354c0 48.825-39.587 88.406-88.412 88.406-48.825 0-88.31-39.581-88.31-88.406v-87.054h176.72z" color="#000000" display="inline" fill-opacity=".053719"/>
   <path d="m-247.49-53.65v175.37" color="#000000" display="inline" fill-rule="evenodd"/>
  </g>
  <g transform="translate(68.296 -310.38)" fill="#000000" stroke="#000000" stroke-linecap="round" stroke-width=".35433">
   <path d="m-159.13 33.354c0 48.825-39.587 88.406-88.412 88.406-48.825 0-88.31-39.581-88.31-88.406v-87.054h176.72z" color="#000000" display="inline" fill-opacity=".053719"/>
   <path d="m-247.49-53.65v175.37" color="#000000" display="inline" fill-rule="evenodd"/>
  </g>
  <g fill="#666666" fill-rule="evenodd" stroke="#ff0000" stroke-width="1.3429">
   <path d="m430.89 203.09 4.1964 2.7679" color="#000000" display="inline"/>
   <path d="m455.73 133.65 4.7993 1.496" color="#000000" display="inline"/>
   <path d="m469.55 72.167 4.9021 1.1139" color="#000000" display="inline"/>
   <path d="m362.38 264.52 2.1278 4.5545" color="#000000" display="inline"/>
   <path d="m294.81 284.97 0.86848 4.9514" color="#000000" display="inline"/>
   <path d="m103.27 295.97-0.0479 5.0268" color="#000000" display="inline"/>
   <path d="m165.18 295.8-0.0479 5.0268" color="#000000" display="inline"/>
   <path d="m229.77 293.55 0.20836 5.0227" color="#000000" display="inline"/>
  </g>
  <path d="m82.988 315.36-0.05067-30.452c14.387 10.194 31.963 16.184 50.956 16.184 10.928 0 21.4-1.9996 31.062-5.625 9.2167 3.2628 19.128 5.0312 29.469 5.0312 12.498 0 24.378-2.6029 35.156-7.2812 6.9739 1.7709 14.253 2.7188 21.781 2.7188 15.728 0 30.516-4.1118 43.312-11.312 3.4256 0.40345 6.9025 0.59375 10.438 0.59375 21.821 0 41.797-7.9274 57.219-21.031 32.655-6.0427 59.018-30.022 68.469-61.344 15.163-15.87 24.469-37.381 24.469-61.062v-7.7812c8.8167-13.751 13.937-30.11 13.937-47.656v-14.938c10.099-14.368 16.031-31.854 16.031-50.75v-2.83l22.594 0.06218v297.47z" color="#000000" display="inline" fill="#ff75ff" stroke="#800080" stroke-linecap="round" stroke-width=".35433"/>
  <path d="m489.2 17.886c-53.656 172.92-0.89207 293.63-391.03 283.32h-15.711v18.41h433.9l-0.1682-301.74z" color="#000000" display="inline" fill="url(#linearGradient9253)" stroke="#000000" stroke-linecap="round" stroke-width=".35433"/>
  <g transform="translate(-.50508 .50508)" stroke="#666666" stroke-linecap="round" stroke-width="1.3429">
   <path d="m222.78 211.71c0 48.825-39.587 88.406-88.412 88.406-48.825 0-88.31-39.581-88.31-88.406v-87.054c12.753 9.0753 34.799 34.737 88.41 0 40.765-26.414 65.406-8.6086 88.312 0z" color="#000000" display="inline" fill="#666666"/>
   <path d="m46.054 211.71c0 48.825 39.587 88.406 88.412 88.406 48.825 0 88.31-39.581 88.31-88.406v-87.054c-12.753 9.0752-34.799 34.737-88.41 0-40.765-26.414-65.406-8.6086-88.312 0z" color="#000000" display="inline" fill="#b3b3b3"/>
  </g>
 </g>
 <g transform="translate(0 35.433)">
  <path d="m581.69 89.31-100.98 38.837-0.38497-31.239c56.749-4.4278 41.394-74.392 101.33-86.469z" fill="url(#linearGradient1196)" stroke="#4d4d4d" stroke-linecap="round" stroke-linejoin="round" stroke-width=".54772"/>
  <g fill="none" stroke="#d4aa00" stroke-linecap="round" stroke-linejoin="round" stroke-width="1.0877">
   <path d="m47.607 165.62h164.83" color="#000000"/>
   <path d="m47.599 183.59h162.35" color="#000000"/>
   <path d="m47.601 201.55h159.3" color="#000000"/>
   <path d="m47.6 219.52h155.83" color="#000000"/>
   <path d="m47.6 237.48h152.86" color="#000000"/>
  </g>
  <g stroke-linecap="round" stroke-linejoin="round">
   <path d="m46.738 300.64v-54.278c0 24.8 20.057 44.905 44.857 44.905 24.8 0 44.905-20.105 44.905-44.905v-9.746c3.8149 20.922 22.085 36.778 44.111 36.778 20.283 0 37.428-13.438 43-31.905 7.1471-7.4806 11.741-17.438 12.365-28.444 3.0796-5.9882 4.8468-12.761 4.9365-19.937 2.4369-5.4005 3.8275-11.367 3.9365-17.651 2.316-5.0018 3.755-10.493 4.0794-16.286 1.8635-3.6097 3.254-7.4149 4.0863-11.513l0.89782 0.0139v152.97" color="#000000" fill="#ff00ff" fill-opacity=".54132" stroke="#800080" stroke-width=".51373"/>
   <path d="m47.593 255.45h147.18" color="#000000" fill="none" stroke="#d4aa00" stroke-width="1.0877"/>
   <path d="m47.592 273.41h138.82" color="#000000" fill="none" stroke="#d4aa00" stroke-width="1.0877"/>
  </g>
  <path d="m46.738 300.64v-54.278c0 24.8 20.057 44.905 44.857 44.905 24.8 0 44.905-20.105 44.905-44.905v-9.746c3.8149 20.922 22.085 36.778 44.111 36.778 20.283 0 37.428-13.438 43-31.905 7.1471-7.4806 11.741-17.438 12.365-28.444 3.0796-5.9882 4.8468-12.761 4.9365-19.937 2.4369-5.4005 3.8275-11.367 3.9365-17.651 2.316-5.0018 3.755-10.493 4.0794-16.286 1.8635-3.6097 3.254-7.4149 4.0863-11.513l0.89782 0.0139v152.97" color="#000000" fill="url(#pattern3454)" opacity=".49462"/>
  <g>
   <g stroke-linecap="round" stroke-linejoin="round">
    <path d="m253.29 147.64c-27.254 87.834-0.45307 149-198.62 143.76h-7.9802v9.3511h220.4l-0.0854-153.07z" color="#000000" fill="url(#linearGradient3451)" stroke="#000000" stroke-width=".287"/>
    <path d="m47.569 290.66h64.811" color="#000000" fill="none" stroke="#d4aa00" stroke-width="1.0877"/>
    <path d="m136.47 246.31c0 24.8-20.108 44.904-44.908 44.904-24.8 0-44.856-20.104-44.856-44.904v-44.218c6.4777 4.6097 17.676 17.644 44.907 0 20.706-13.416 33.222-4.3726 44.857 0z" color="#000000" fill="#666666" stroke="#666666" stroke-width="1.0877"/>
    <path d="m46.703 246.31c0 24.8 20.108 44.904 44.908 44.904 24.8 0 44.856-20.104 44.856-44.904v-44.218c-6.4777 4.6096-17.676 17.644-44.907 0-20.706-13.416-33.222-4.3726-44.857 0z" color="#000000" fill="#cccccc" stroke="#000000" stroke-width=".63425"/>
    <path d="m47.693 147.77h166.41" color="#000000" fill="none" stroke="#d4aa00" stroke-width="1.0877"/>
   </g>
   <path d="m253.15 147.37c-27.254 87.834-0.45312 149.14-198.62 143.91h-7.9802v9.3511h220.4l-0.0855-153.26z" color="#000000" fill="url(#pattern3444)" opacity=".50179" stroke="#4d4d4d" stroke-width=".35433"/>
  </g>
  <g fill="none" stroke="#d4aa00" stroke-linecap="round" stroke-linejoin="round" stroke-width="1.0877">
   <path d="m362.47 194.31h160.61" color="#000000"/>
   <path d="m362.46 227.52h153.74" color="#000000"/>
   <path d="m362.46 255.64h147.86" color="#000000"/>
   <path d="m362.46 273.61h139.25" color="#000000"/>
   <path d="m362.45 283.53h121.75" color="#000000"/>
  </g>
  <g stroke-linecap="round" stroke-linejoin="round">
   <path d="m361.61 298.84-0.0257-15.468c7.3076 5.1778 16.235 8.2204 25.883 8.2204 5.5507 0 10.87-1.0157 15.778-2.8572 4.6815 1.6573 9.7156 2.5556 14.968 2.5556 6.3484 0 12.382-1.3221 17.857-3.6984 3.5423 0.89952 7.2394 1.381 11.064 1.381 7.9891 0 15.5-2.0885 22-5.746 1.74 0.20492 3.506 0.30157 5.3016 0.30157 11.084 0 21.23-4.0266 29.064-10.683 16.586-3.0693 29.977-15.249 34.778-31.159 7.7017-8.0612 12.429-18.987 12.429-31.016v-3.9524c4.4783-6.9845 7.0793-15.294 7.0793-24.206v-7.5873c5.1297-7.298 8.1429-16.18 8.1429-25.778v-1.4375l11.476 0.0316v151.1z" color="#000000" fill="#ff75ff" stroke="#800080" stroke-width=".287"/>
   <path d="m362.01 288.34h99.036" color="#000000" fill="none" stroke="#d4aa00" stroke-width="1.0877"/>
   <path d="m362.01 290.39h74.912" color="#000000" fill="none" stroke="#d4aa00" stroke-width="1.0877"/>
  </g>
  <g>
   <path d="m361.61 298.84-0.0257-15.468c7.3076 5.1778 16.235 8.2204 25.883 8.2204 5.5507 0 10.87-1.0157 15.778-2.8572 4.6815 1.6573 9.7156 2.5556 14.968 2.5556 6.3484 0 12.382-1.3221 17.857-3.6984 3.5423 0.89952 7.2394 1.381 11.064 1.381 7.9891 0 15.5-2.0885 22-5.746 1.74 0.20492 3.506 0.30158 5.3016 0.30158 11.084 0 21.23-4.0266 29.064-10.683 16.586-3.0693 29.977-15.249 34.778-31.159 7.7017-8.0612 12.429-18.987 12.429-31.016v-3.9524c4.4783-6.9845 7.0793-15.294 7.0793-24.206v-7.5873c5.1297-7.298 8.1429-16.18 8.1429-25.778v-1.4375l11.476 0.0316v151.1z" color="#000000" fill="url(#pattern3475)" opacity=".50896"/>
   <path d="m362.47 158.72h170.2" color="#000000" fill="none" stroke="#d4aa00" stroke-linecap="round" stroke-linejoin="round" stroke-width="1.0877"/>
   <path d="m361.99 291.1h49.306" color="#000000" fill="none" stroke="#d4aa00" stroke-linecap="round" stroke-linejoin="round" stroke-width="1.0877"/>
  </g>
  <g>
   <path d="m567.93 147.74c-27.254 87.834-0.45311 149.14-198.62 143.91h-7.7501v9.3511h220.17l-0.0855-153.26z" color="#000000" fill="url(#linearGradient3521)" stroke="#000000" stroke-linecap="round" stroke-linejoin="round" stroke-width=".287"/>
   <path d="m567.78 147.74c-27.254 87.834-0.45312 149.14-198.62 143.91h-7.4853v9.3511h219.9l-0.0855-153.26z" color="#000000" fill="url(#pattern3467)" opacity=".50179"/>
   <g stroke-linecap="round" stroke-linejoin="round">
    <path d="m432.35 246.45c0 24.8-20.108 44.904-44.908 44.904-24.8 0-44.856-20.104-44.856-44.904v-44.218c6.4777 4.6097 17.676 17.644 44.907 0 20.706-13.416 33.222-4.3726 44.857 0z" color="#000000" fill="#666666" stroke="#666666" stroke-width="1.0877"/>
    <path d="m342.59 246.45c0 24.8 20.108 44.904 44.908 44.904s44.856-20.104 44.856-44.904v-44.218c-6.4777 4.6097-17.676 17.644-44.907 0-20.706-13.416-33.222-4.3726-44.857 0z" color="#000000" fill="#cccccc" stroke="#000000" stroke-width=".63425"/>
    <path d="m529.78-31.16c-66.833 17.26-34.289 66.225-101.23 86.271l51.854 41.626c58.682-5.2407 38.678-70.928 101.23-86.27l-51.855-41.628" fill="url(#linearGradient3527)" stroke="#4d4d4d" stroke-miterlimit="10" stroke-width=".63425"/>
   </g>
  </g>
  <g fill="none" stroke-linecap="round" stroke-linejoin="round" stroke-width="2.126">
   <path d="m450.19 45.725 51.303 44.476 3.9829-2.4656-50.639-44.096 3.6036-2.6553 50.165 44.381 4.0777-3.5087-50.829-44.286 4.0777-3.7932 50.45 43.717 5.4053-7.2071-51.493-42.01 5.1208-8.3451 50.829 41.915 4.457-8.4399-51.588-40.872 3.6036-6.9226 51.872 41.156 3.3191-5.595-52.346-40.398 3.6984-5.7847 52.346 41.346 3.6036-4.1725-52.915-41.156 3.6036-3.6984 53.2 40.73 2.3708-2.7738-52.963-40.647 3.1531-2.4478 52.939 40.51" stroke="#ffcc00"/>
   <line x1="554.45" x2="554.45" y1="22.859" y2="-32.302" stroke="#e2001a" stroke-miterlimit="10"/>
   <line x1="450.45" x2="450.45" y1="-32.881" y2="46.342" stroke="#e2001a" stroke-miterlimit="10"/>
  </g>
  <path d="m213.6-31.257c-67.052 17.316-34.402 66.442-101.56 86.552l52.023 41.762c58.873-5.2578 38.804-71.158 101.57-86.552l-52.024-41.762v0" fill="url(#linearGradient3432)" stroke="#4d4d4d" stroke-linecap="round" stroke-linejoin="round" stroke-miterlimit="10" stroke-width=".63425"/>
  <g fill="none" stroke-linecap="round" stroke-linejoin="round" stroke-width="2.126">
   <path d="m185.11 89.645-51.777-43.243 8.5347-5.6898 51.398 43.053 5.6898-6.2588-52.536-42.484 5.6898-6.6381 51.398 43.243 3.9829-6.4485-51.967-42.105 2.6552-5.5002 52.157 42.105 2.8449-5.1208-51.967-42.294 2.8449-5.5002 52.157 42.484 3.0346-5.6898-51.777-41.536 3.6036-6.2588 51.398 42.674 4.7415-6.8278-52.915-40.967 6.0691-5.3105 52.157 40.777" stroke="#ffcc00"/>
   <line x1="231.87" x2="231.87" y1="26.366" y2="-28.6" stroke="#e2001a" stroke-miterlimit="10"/>
   <line x1="184.77" x2="184.77" y1="-28.068" y2="90.046" stroke="#e2001a" stroke-miterlimit="10"/>
  </g>
  <g transform="translate(164.58 102.76)">
   <ellipse cx="-44.92" cy="-98.798" rx="13.199" ry="13.469" fill="#1f638a" stroke-linecap="round" stroke-linejoin="round" stroke-width="1.0658"/>
   <text x="-50.761276" y="-91.125885" fill="#000000" letter-spacing="0px" word-spacing="0px" style="line-height:0%" xml:space="preserve"><tspan x="-50.761276" y="-91.125885" fill="#ffffff" font-family="'Arial Nova', 'Arial Unicode MS', 'Yu Gothic UI', sans-serif" font-size="20px" stroke="#ffffff" stroke-width="1.0667" style="line-height:1.25">1</tspan></text>
  </g>
  <g transform="translate(421.99 103.77)">
   <ellipse cx="-13.718" cy="-98.798" rx="13.199" ry="13.469" fill="#1f638a" stroke-linecap="round" stroke-linejoin="round" stroke-width="1.0658"/>
   <text x="-19.559933" y="-91.125885" fill="#000000" letter-spacing="0px" word-spacing="0px" style="line-height:0%" xml:space="preserve"><tspan x="-19.559933" y="-91.125885" fill="#ffffff" font-family="'Arial Nova', 'Arial Unicode MS', 'Yu Gothic UI', sans-serif" font-size="20px" stroke="#ffffff" stroke-width="1.0667" style="line-height:1.25">2</tspan></text>
  </g>
  <g transform="matrix(1.3333 0 0 1.3333 127.04 -115.98)">
   <g>
    <path d="m104.13 154.02-76.144 29.54 0.12362-23.842c42.562-3.3209 30.977-55.846 75.927-64.903z" fill="url(#linearGradient1675)" stroke="#4d4d4d" stroke-linecap="round" stroke-linejoin="round" stroke-width=".41079"/>
   </g>
  </g>
  <g transform="matrix(1.3333 0 0 1.3333 101.4 -169.46)">
   <g>
    <path d="m47.254 223.66-39.341-31.785v-23.292l39.341 31.365z" fill="url(#linearGradient1242)" stroke="#4d4d4d" stroke-linecap="round" stroke-linejoin="round" stroke-width=".41079"/>
   </g>
  </g>
  <path d="m480.7 128.18-52.195-41.958v-31.056l52.454 41.819z" fill="url(#linearGradient1274)" stroke="#4d4d4d" stroke-linecap="round" stroke-linejoin="round" stroke-width=".54772"/>
 </g>
</svg>
