<svg version="1.1" viewBox="0 0 460.63 265.75" xmlns="http://www.w3.org/2000/svg" xmlns:xlink="http://www.w3.org/1999/xlink">
 <title>Abbildung fuer OPEN MIND Softwaredokumentation</title>
 <defs>
  <linearGradient id="linearGradient8230" x1="-406.95" x2="-248.67" y1="-26.415" y2="135.44" gradientTransform="matrix(1.0021 0 0 .51427 -161.58 601)" gradientUnits="userSpaceOnUse">
   <stop stop-color="#cccccc" offset="0"/>
   <stop stop-color="#cccccc" stop-opacity="0" offset="1"/>
  </linearGradient>
  <linearGradient id="linearGradient6190-7-4-7-1" x1="136.02" x2="136.02" y1="22.107" y2="22.107" gradientUnits="userSpaceOnUse">
   <stop stop-color="#FFFFFF" offset="0"/>
   <stop stop-color="#FCFCFC" offset=".2264"/>
   <stop stop-color="#F4F4F4" offset=".3626"/>
   <stop stop-color="#E6E6E6" offset=".475"/>
   <stop stop-color="#D1D1D1" offset=".5744"/>
   <stop stop-color="#B7B7B7" offset=".6652"/>
   <stop stop-color="#979797" offset=".7498"/>
   <stop stop-color="#707070" offset=".8297"/>
   <stop stop-color="#444444" offset=".9057"/>
   <stop stop-color="#121212" offset=".9761"/>
   <stop stop-color="#000000" offset="1"/>
  </linearGradient>
  <linearGradient id="linearGradient19437" x1="73.088" x2="87.051" y1="128.77" y2="128.73" gradientTransform="matrix(1.0398 0 0 1.9502 5.4915 713.81)" gradientUnits="userSpaceOnUse" xlink:href="#linearGradient6190-7-4-7-1"/>
  <linearGradient id="linearGradient19440" x1="131.11" x2="139.5" y1="262.74" y2="262.74" gradientTransform="translate(-49.641 732.63)" gradientUnits="userSpaceOnUse" xlink:href="#linearGradient6190-7-4-7-1"/>
  <linearGradient id="linearGradient19446" x1="130.92" x2="145.67" y1="193.19" y2="193.09" gradientTransform="matrix(1.0029 0 0 .74637 -49.938 774.19)" gradientUnits="userSpaceOnUse" xlink:href="#linearGradient6190-7-4-7-1"/>
  <linearGradient id="linearGradient36905" x1="73.088" x2="87.051" y1="128.77" y2="128.73" gradientTransform="matrix(1.0399 0 0 1.9328 170.33 716.19)" gradientUnits="userSpaceOnUse" xlink:href="#linearGradient6190-7-4-7-1"/>
  <linearGradient id="linearGradient36908" x1="131.11" x2="139.5" y1="262.74" y2="262.74" gradientTransform="translate(115.3 732.24)" gradientUnits="userSpaceOnUse" xlink:href="#linearGradient6190-7-4-7-1"/>
  <linearGradient id="linearGradient36912" x1="130.92" x2="145.67" y1="193.19" y2="193.09" gradientTransform="matrix(1.0032 0 0 .7334 114.88 777.5)" gradientUnits="userSpaceOnUse" xlink:href="#linearGradient6190-7-4-7-1"/>
  <linearGradient id="linearGradient36960" x1="73.088" x2="87.051" y1="128.77" y2="128.73" gradientTransform="matrix(1.0403 0 0 1.8906 315.49 721.73)" gradientUnits="userSpaceOnUse" xlink:href="#linearGradient6190-7-4-7-1"/>
  <linearGradient id="linearGradient36963" x1="131.11" x2="139.5" y1="262.74" y2="262.74" gradientTransform="translate(260.42 732.12)" gradientUnits="userSpaceOnUse" xlink:href="#linearGradient6190-7-4-7-1"/>
  <linearGradient id="linearGradient36967" x1="130.92" x2="145.67" y1="193.19" y2="193.09" gradientTransform="matrix(1.0029 0 0 .74637 260.04 775.2)" gradientUnits="userSpaceOnUse" xlink:href="#linearGradient6190-7-4-7-1"/>
  <pattern id="pattern27788" patternTransform="matrix(-.087386 -.083614 -14.986 15.73 458.65 644.03)" xlink:href="#pattern27768-0"/>
  <pattern id="pattern27768-0" patternTransform="matrix(-.087386 -.083436 -14.986 15.696 190.88 -190.65)" xlink:href="#pattern26301-3"/>
  <pattern id="pattern26301-3" patternTransform="matrix(.087263 -.083564 15.01 15.674 -196.77 -188.49)" xlink:href="#pattern9529-5"/>
  <pattern id="pattern9529-5" patternTransform="matrix(.047355 -.045348 8.1452 8.5058 330.84 89.752)" xlink:href="#pattern9496-0"/>
  <pattern id="pattern9496-0" patternTransform="matrix(.047355 -.045348 8.1452 8.5058 396.14 -51.594)" xlink:href="#pattern9487-7"/>
  <pattern id="pattern9487-7" patternTransform="matrix(.056516 -.039102 6.9938 10.109 354.71 164.31)" xlink:href="#Strips1_64-2-6"/>
  <pattern id="Strips1_64-2-6" width="65" height="1" patternTransform="translate(0) scale(10)" patternUnits="userSpaceOnUse">
   <rect y="-.5" width="1" height="2" fill="black"/>
  </pattern>
  <pattern id="pattern27788-5" patternTransform="matrix(-.087386 -.083614 -14.986 15.73 458.65 644.03)" xlink:href="#pattern27768-0-6"/>
  <pattern id="pattern27768-0-6" patternTransform="matrix(-.087386 -.083436 -14.986 15.696 190.88 -190.65)" xlink:href="#pattern26301-3-2"/>
  <pattern id="pattern26301-3-2" patternTransform="matrix(.087263 -.083564 15.01 15.674 -196.77 -188.49)" xlink:href="#pattern9529-5-7"/>
  <pattern id="pattern9529-5-7" patternTransform="matrix(.047355 -.045348 8.1452 8.5058 330.84 89.752)" xlink:href="#pattern9496-0-1"/>
  <pattern id="pattern9496-0-1" patternTransform="matrix(.047355 -.045348 8.1452 8.5058 396.14 -51.594)" xlink:href="#pattern9487-7-2"/>
  <pattern id="pattern9487-7-2" patternTransform="matrix(.056516 -.039102 6.9938 10.109 354.71 164.31)" xlink:href="#Strips1_64-2-6-1"/>
  <pattern id="Strips1_64-2-6-1" width="65" height="1" patternTransform="translate(0) scale(10)" patternUnits="userSpaceOnUse">
   <rect y="-.5" width="1" height="2" fill="black"/>
  </pattern>
  <pattern id="pattern27788-7" patternTransform="matrix(-.087386 -.083614 -14.986 15.73 458.65 644.03)" xlink:href="#pattern27768-0-1"/>
  <pattern id="pattern27768-0-1" patternTransform="matrix(-.087386 -.083436 -14.986 15.696 190.88 -190.65)" xlink:href="#pattern26301-3-9"/>
  <pattern id="pattern26301-3-9" patternTransform="matrix(.087263 -.083564 15.01 15.674 -196.77 -188.49)" xlink:href="#pattern9529-5-8"/>
  <pattern id="pattern9529-5-8" patternTransform="matrix(.047355 -.045348 8.1452 8.5058 330.84 89.752)" xlink:href="#pattern9496-0-7"/>
  <pattern id="pattern9496-0-7" patternTransform="matrix(.047355 -.045348 8.1452 8.5058 396.14 -51.594)" xlink:href="#pattern9487-7-1"/>
  <pattern id="pattern9487-7-1" patternTransform="matrix(.056516 -.039102 6.9938 10.109 354.71 164.31)" xlink:href="#Strips1_64-2-6-9"/>
  <pattern id="Strips1_64-2-6-9" width="65" height="1" patternTransform="translate(0) scale(10)" patternUnits="userSpaceOnUse">
   <rect y="-.5" width="1" height="2" fill="black"/>
  </pattern>
 </defs>
 <g transform="translate(0 -786.61)">
  <path d="m-568.71 757.58v-169.34h388.72" color="#000000" fill="none" stroke="url(#linearGradient8230)" stroke-linecap="round" stroke-linejoin="round" stroke-miterlimit="7" stroke-width=".96726"/>
  <text transform="translate(0 733.46)" x="226.07143" y="119.25479" fill="#000000" font-family="'Arial Nova', 'Arial Unicode MS', 'Yu Gothic UI', sans-serif" letter-spacing="0px" word-spacing="0px" style="line-height:0%" xml:space="preserve"><tspan x="226.07143" y="119.25479" font-family="'Arial Nova', 'Arial Unicode MS', 'Yu Gothic UI', sans-serif" font-size="13px" style="line-height:1.25"> </tspan></text>
  <path d="m19.395 843.28h124.16l-0.0231 8.6246-17.803 3e-3c-5.4915-3e-3 -7.1096 3.3127-8.2969 8.5401l-9.5545 62.104h-53.046l-9.5304-62.104c-1.223-5.241-3.1691-8.5694-8.5621-8.5401l-17.343 0.022v-8.6496" fill="none" stroke="#4d4d4d" stroke-linecap="round" stroke-linejoin="round" stroke-miterlimit="10" stroke-width=".63425"/>
  <path d="m66.738 899.58h29.111v37.441h-29.111v-37.441" fill="url(#linearGradient19446)" stroke="#000000" stroke-linecap="round" stroke-linejoin="round" stroke-miterlimit="8.8" stroke-width=".63425"/>
  <g fill="none" stroke="#000000" stroke-linecap="round" stroke-linejoin="round" stroke-miterlimit="6">
   <line x1="66.889" x2="66.889" y1="875.21" y2="900.21" stroke-width=".63425"/>
   <line x1="95.743" x2="95.743" y1="875.21" y2="900.21" stroke-width=".63425"/>
   <path d="m53.031 1034.2 88.873-0.023" stroke-width=".63425"/>
  </g>
  <path d="m72.629 956.52h16.907c1e-5 29.198 0 50.587 0 77.699v0h-16.907v0 0z" fill="url(#linearGradient19440)" stroke="#000000" stroke-linecap="round" stroke-linejoin="round" stroke-miterlimit="8.8" stroke-width=".63425"/>
  <path d="m95.692 936.87-6.1038 33.353h-16.839l-5.9341-33.291z" fill="url(#linearGradient19437)" stroke="#000000" stroke-linecap="round" stroke-linejoin="round" stroke-miterlimit="8.8" stroke-width=".63425"/>
  <g fill="none" stroke="#000000">
   <path d="m81.063 839.51 0.35714 196.36" stroke-dasharray="4.19195747, 1.04798937, 0.52399469, 1.04798937" stroke-width=".52399"/>
   <g stroke-linecap="round" stroke-linejoin="round" stroke-miterlimit="6">
    <path d="m88.682 899.48 53.215 0.0373" stroke-width=".63425"/>
    <path d="m111.07 878.69h-59.25" stroke-width=".63425"/>
    <path d="m141.93 1023.1-0.0943-122.24" stroke-width=".63425"/>
   </g>
  </g>
  <g fill="#000000">
   <g stroke="#000000" stroke-linecap="round" stroke-linejoin="round" stroke-width=".99921">
    <path d="m141.87 900.63 4.1054 11.786h-8.2143z"/>
    <path d="m141.78 1033.1 4.1054-11.786h-8.2143z"/>
    <path d="m66.241 878.84-11.786-4.1054v8.2143z"/>
    <path d="m96.528 878.85 11.786 4.1054v-8.2143z"/>
   </g>
   <text x="77.119484" y="872.79108" font-family="'Arial Nova', 'Arial Unicode MS', 'Yu Gothic UI', sans-serif" letter-spacing="0px" word-spacing="0px" style="line-height:0%" xml:space="preserve"><tspan x="77.119484" y="872.79108" fill="#ffffff" font-family="'Arial Nova', 'Arial Unicode MS', 'Yu Gothic UI', sans-serif" font-size="14.45px" font-weight="bold" style="line-height:1.25">1</tspan></text>
   <text x="83.088356" y="872.70288" font-family="'Arial Nova', 'Arial Unicode MS', 'Yu Gothic UI', sans-serif" letter-spacing="0px" word-spacing="0px" style="line-height:0%" xml:space="preserve"><tspan x="83.088356" y="872.70288" fill="#ffffff" font-family="'Arial Nova', 'Arial Unicode MS', 'Yu Gothic UI', sans-serif" font-size="14.45px" font-weight="bold" style="line-height:1.25"> </tspan></text>
  </g>
  <g stroke-linecap="round" stroke-linejoin="round">
   <path d="m52.862 937.06 13.175-0.0273" fill="none" stroke="#000000" stroke-miterlimit="6" stroke-width=".63425"/>
   <path d="m64.529 938.03-11.431 16.906-6.2458-7.0248c-0.26358 0.0316 17.676-9.8812 17.676-9.8812z" fill="#ee7f00" stroke="#ee7f00" stroke-width="1.7717"/>
   <path d="m55.314 947.26-19.469 17.382" fill="none" stroke="#ee7f00" stroke-width="1.3429"/>
  </g>
  <g stroke="#000000" stroke-linecap="round" stroke-linejoin="round">
   <path d="m103.46 1033.1 4.1054-11.786h-8.2143z" fill="#000000" stroke-width=".99921"/>
   <path d="m103.44 971.49 4.1054 11.786h-8.2143z" fill="#000000" stroke-width=".99921"/>
   <path d="m103.42 1029.7-0.0803-57.164" fill="none" stroke-miterlimit="6" stroke-width=".63425"/>
  </g>
  <text x="487.58612" y="993.13623" fill="#ffffff" font-family="'Arial Nova', 'Arial Unicode MS', 'Yu Gothic UI', sans-serif" font-size="12.624px" style="line-height:0%">2</text>
  <text x="397.06482" y="873.71307" fill="#000000" font-family="'Arial Nova', 'Arial Unicode MS', 'Yu Gothic UI', sans-serif" letter-spacing="0px" word-spacing="0px" style="line-height:0%" xml:space="preserve"><tspan x="397.06482" y="873.71307" fill="#ffffff" font-family="'Arial Nova', 'Arial Unicode MS', 'Yu Gothic UI', sans-serif" font-size="14.45px" font-weight="bold" style="line-height:1.25"> </tspan></text>
  <text x="343.67999" y="965.35699" fill="#ffffff" font-family="'Arial Nova', 'Arial Unicode MS', 'Yu Gothic UI', sans-serif" font-size="12.624px" style="line-height:0%">2</text>
  <path d="m329.54 843.37h124.16l-0.0231 8.6246-17.803 3e-3c-5.4915-3e-3 -7.1096 3.3127-8.2969 8.5401l-9.5545 62.104h-53.046l-9.5304-62.104c-1.223-5.241-3.1691-8.5694-8.5621-8.5401l-17.343 0.022v-8.6496" fill="none" stroke="#4d4d4d" stroke-linecap="round" stroke-linejoin="round" stroke-miterlimit="10" stroke-width=".63425"/>
  <g>
   <g stroke="#000000" stroke-linecap="round" stroke-linejoin="round" stroke-miterlimit="8.8">
    <path d="m376.71 900.6h29.111v37.441h-29.111v-37.441" fill="url(#linearGradient36967)" stroke-width=".63425"/>
    <path d="m382.7 956.02h16.907c1e-5 29.198 0 50.587 0 77.699h-16.907z" fill="url(#linearGradient36963)" stroke-width=".63425"/>
    <path d="m405.74 937.98-6.107 32.334h-16.848l-5.9372-32.274z" fill="url(#linearGradient36960)" stroke-width=".63425"/>
   </g>
   <text x="387.09595" y="873.80127" fill="#000000" font-family="'Arial Nova', 'Arial Unicode MS', 'Yu Gothic UI', sans-serif" letter-spacing="0px" word-spacing="0px" style="line-height:0%" xml:space="preserve"><tspan x="387.09595" y="873.80127" fill="#ffffff" font-family="'Arial Nova', 'Arial Unicode MS', 'Yu Gothic UI', sans-serif" font-size="14.45px" font-weight="bold" style="line-height:1.25">1</tspan></text>
  </g>
  <g stroke="#000000" stroke-linecap="round" stroke-linejoin="round">
   <path d="m399.75 970.04 18.11-92.781" fill="none" stroke-miterlimit="6" stroke-width=".63425"/>
   <g>
    <path d="m416.4 888.5 12.422-0.14691-2.5053 7.8229z" fill="#000000" stroke-width=".99921"/>
    <path d="m389.92 887.1-10.83 6.0874-1.5541-8.066z" fill="#000000" stroke-width=".99921"/>
    <path d="m373.47 890.18c7.6995-2.2727 15.851-3.4924 24.287-3.4924 13.239 0 25.777 3.0041 36.968 8.3678" fill="none" stroke-miterlimit="8.8" stroke-width=".63425"/>
   </g>
  </g>
  <g transform="translate(51.306 -73.741)">
   <path transform="matrix(.7225 0 0 .7225 325.2 815.05)" d="m53.538 184.28c0 6.9736-5.5402 12.627-12.374 12.627s-12.374-5.6533-12.374-12.627 5.5402-12.627 12.374-12.627 12.374 5.6532 12.374 12.627z" fill="#1f638a" stroke-linecap="round" stroke-linejoin="round" stroke-width=".99921"/>
   <text x="350.50003" y="953.46973" fill="#000000" font-family="'Arial Nova', 'Arial Unicode MS', 'Yu Gothic UI', sans-serif" letter-spacing="0px" word-spacing="0px" style="line-height:0%" xml:space="preserve"><tspan x="350.50003" y="953.46973" fill="#ffffff" font-family="'Arial Nova', 'Arial Unicode MS', 'Yu Gothic UI', sans-serif" font-size="14.45px" font-weight="bold" style="line-height:1.25">1</tspan></text>
  </g>
  <text x="179.03822" y="994.26892" fill="#ffffff" font-family="'Arial Nova', 'Arial Unicode MS', 'Yu Gothic UI', sans-serif" font-size="12.624px" style="line-height:0%">2</text>
  <path d="m184.25 843.34h124.16l-0.0231 8.6246-17.803 3e-3c-5.4915-3e-3 -7.1096 3.3127-8.2969 8.5401l-9.5545 62.104h-53.046l-9.5304-62.104c-1.223-5.241-3.1691-8.5694-8.5621-8.5401l-17.343 0.022v-8.6496" fill="none" stroke="#4d4d4d" stroke-linecap="round" stroke-linejoin="round" stroke-miterlimit="10" stroke-width=".63425"/>
  <g stroke="#000000" stroke-linecap="round" stroke-linejoin="round" stroke-miterlimit="8.8" stroke-width=".63425">
   <path d="m231.59 900.71h29.117v36.79h-29.117v-36.79" fill="url(#linearGradient36912)"/>
   <path d="m237.57 956.14h16.907c1e-5 29.198 0 50.587 0 77.699h-16.907z" fill="url(#linearGradient36908)"/>
   <path d="m260.55 937.27-6.1046 33.057h-16.842l-5.9349-32.995z" fill="url(#linearGradient36905)"/>
  </g>
  <g transform="matrix(.7225 0 0 .7225 -241.65 690.22)" fill="#000000" font-family="'Arial Nova', 'Arial Unicode MS', 'Yu Gothic UI', sans-serif" letter-spacing="0px" word-spacing="0px">
   <text x="669.37006" y="254.25912" style="line-height:0%" xml:space="preserve"><tspan x="669.37006" y="254.25912" fill="#ffffff" font-family="'Arial Nova', 'Arial Unicode MS', 'Yu Gothic UI', sans-serif" font-size="20px" font-weight="bold" style="line-height:1.25">1</tspan></text>
   <text x="677.63147" y="254.13705" style="line-height:0%" xml:space="preserve"><tspan x="677.63147" y="254.13705" fill="#ffffff" font-family="'Arial Nova', 'Arial Unicode MS', 'Yu Gothic UI', sans-serif" font-size="20px" font-weight="bold" style="line-height:1.25"> </tspan></text>
  </g>
  <g stroke="#000000" stroke-linecap="round" stroke-linejoin="round">
   <path d="m206.35 937.41 24.782-0.20587" fill="none" stroke-miterlimit="6" stroke-width=".63425"/>
   <path d="m206.38 970.56 31.066-0.0385" fill="none" stroke-miterlimit="6" stroke-width=".63425"/>
   <path d="m206.03 936.58-4.1054-11.786h8.2143z" fill="#000000" stroke-width=".99921"/>
   <path d="m206.11 921.4-0.15127 11.389" fill="none" stroke-miterlimit="6" stroke-width=".63425"/>
   <path d="m206.12 971.25 4.1054 11.786h-8.2143z" fill="#000000" stroke-width=".99921"/>
  </g>
  <g fill="none" stroke="#000000">
   <path d="m205.8 977.37 0.0273 9.7823" stroke-linecap="round" stroke-linejoin="round" stroke-miterlimit="6" stroke-width=".63425"/>
   <path d="m246.14 839.27 0.35715 196.36" stroke-dasharray="4.19195747, 1.04798937, 0.52399469, 1.04798937" stroke-width=".52399"/>
   <g stroke-linecap="round" stroke-linejoin="round" stroke-miterlimit="6" stroke-width=".63425">
    <path d="m89.796 970.32 27.416-0.0589"/>
    <path d="m206.14 1033.9h76.931"/>
    <path d="m350.92 1033.8h76.931"/>
   </g>
   <path d="m390.71 838.11 0.35715 196.36" stroke-dasharray="4.19195747, 1.04798937, 0.52399469, 1.04798937" stroke-width=".52399"/>
  </g>
  <g stroke="#000000" stroke-linecap="round" stroke-linejoin="round">
   <path d="m117.55 900.84 4.1054 11.786h-8.2143z" fill="#000000" stroke-width=".99921"/>
   <path d="m117.48 969.31 4.1054-11.786h-8.2143z" fill="#000000" stroke-width=".99921"/>
   <path d="m117.53 961.3 9e-3 -59.575" fill="none" stroke-miterlimit="6" stroke-width=".63425"/>
  </g>
  <g transform="translate(68.063 1076.4)">
   <ellipse cx="-44.92" cy="-98.798" rx="13.199" ry="13.469" d="m -31.720282,-98.79776 c 0,7.438558 -5.90954,13.4687 -13.199327,13.4687 -7.289787,0 -13.199328,-6.030142 -13.199328,-13.4687 0,-7.43856 5.909541,-13.4687 13.199328,-13.4687 7.289787,0 13.199327,6.03014 13.199327,13.4687 z" fill="#1f638a" stroke-linecap="round" stroke-linejoin="round" stroke-width="1.0658"/>
   <text x="-50.761276" y="-91.125885" fill="#000000" letter-spacing="0px" word-spacing="0px" style="line-height:0%" xml:space="preserve"><tspan x="-50.761276" y="-91.125885" fill="#ffffff" font-family="'Arial Nova', 'Arial Unicode MS', 'Yu Gothic UI', sans-serif" font-size="20px" stroke="#ffffff" stroke-width="1.0667" style="line-height:1.25">1</tspan></text>
  </g>
  <g transform="translate(96.042 961.91)">
   <ellipse cx="-13.718" cy="-98.798" rx="13.199" ry="13.469" d="m -0.51893806,-98.79776 c 0,7.438558 -5.90954024,13.4687 -13.19932794,13.4687 -7.289787,0 -13.199327,-6.030142 -13.199327,-13.4687 0,-7.43856 5.90954,-13.4687 13.199327,-13.4687 7.2897877,0 13.19932794,6.03014 13.19932794,13.4687 z" fill="#1f638a" stroke-linecap="round" stroke-linejoin="round" stroke-width="1.0658"/>
   <text x="-19.559933" y="-91.125885" fill="#000000" letter-spacing="0px" word-spacing="0px" style="line-height:0%" xml:space="preserve"><tspan x="-19.559933" y="-91.125885" fill="#ffffff" font-family="'Arial Nova', 'Arial Unicode MS', 'Yu Gothic UI', sans-serif" font-size="20px" stroke="#ffffff" stroke-width="1.0667" style="line-height:1.25">2</tspan></text>
  </g>
  <g transform="translate(102.06 1100.5)">
   <ellipse cx="17.483" cy="-98.798" rx="13.199" ry="13.469" d="m 30.682402,-98.79776 c 0,7.438558 -5.909541,13.4687 -13.199328,13.4687 -7.289787,0 -13.1993273,-6.030142 -13.1993273,-13.4687 0,-7.43856 5.9095403,-13.4687 13.1993273,-13.4687 7.289787,0 13.199328,6.03014 13.199328,13.4687 z" fill="#1f638a" stroke-linecap="round" stroke-linejoin="round" stroke-width="1.0658"/>
   <text x="11.641406" y="-91.256096" fill="#000000" font-family="'Arial Nova', 'Arial Unicode MS', 'Yu Gothic UI', sans-serif" letter-spacing="0px" word-spacing="0px" style="line-height:0%" xml:space="preserve"><tspan x="11.641406" y="-91.256096" fill="#ffffff" font-family="'Arial Nova', 'Arial Unicode MS', 'Yu Gothic UI', sans-serif" font-size="20px" stroke="#ffffff" stroke-width="1.0667" style="line-height:1.25">3</tspan></text>
  </g>
  <g transform="translate(-285.38 786.86)">
   <g transform="translate(354.56 247.34)">
    <ellipse cx="48.684" cy="-98.798" rx="13.199" ry="13.469" d="m 61.883745,-98.79776 c 0,7.438558 -5.90954,13.4687 -13.199327,13.4687 -7.289788,0 -13.199328,-6.030142 -13.199328,-13.4687 0,-7.43856 5.90954,-13.4687 13.199328,-13.4687 7.289787,0 13.199327,6.03014 13.199327,13.4687 z" fill="#1f638a" stroke-linecap="round" stroke-linejoin="round" stroke-width="1.0658"/>
    <text x="42.842751" y="-91.162346" fill="#000000" letter-spacing="0px" word-spacing="0px" style="line-height:0%" xml:space="preserve"><tspan x="42.842751" y="-91.162346" fill="#ffffff" font-family="'Arial Nova', 'Arial Unicode MS', 'Yu Gothic UI', sans-serif" font-size="20px" stroke="#ffffff" stroke-width="1.0667" style="line-height:1.25">4</tspan></text>
   </g>
  </g>
  <g transform="translate(-117.9 781.25)">
   <g transform="translate(197.02 281.84)">
    <ellipse cx="79.886" cy="-98.798" rx="13.199" ry="13.469" d="m 93.085085,-98.79776 c 0,7.438558 -5.90954,13.4687 -13.199328,13.4687 -7.289787,0 -13.199327,-6.030142 -13.199327,-13.4687 0,-7.43856 5.90954,-13.4687 13.199327,-13.4687 7.289788,0 13.199328,6.03014 13.199328,13.4687 z" fill="#1f638a" stroke-linecap="round" stroke-linejoin="round" stroke-width="1.0658"/>
    <text x="74.04409" y="-91.396721" fill="#000000" letter-spacing="0px" word-spacing="0px" style="line-height:0%" xml:space="preserve"><tspan x="74.04409" y="-91.396721" fill="#ffffff" font-family="'Arial Nova', 'Arial Unicode MS', 'Yu Gothic UI', sans-serif" font-size="20px" stroke="#ffffff" stroke-width="1.0667" style="line-height:1.25">5</tspan></text>
   </g>
  </g>
  <g transform="translate(120.02 863.98)">
   <ellipse cx="-36.9" cy="-49.598" rx="13.199" ry="13.469" d="m -23.700773,-49.59763 c 0,7.438558 -5.90954,13.468701 -13.199328,13.468701 -7.289787,0 -13.199327,-6.030143 -13.199327,-13.468701 0,-7.438557 5.90954,-13.4687 13.199327,-13.4687 7.289788,0 13.199328,6.030143 13.199328,13.4687 z" fill="#1f638a" stroke-linecap="round" stroke-linejoin="round" stroke-width="1.0658"/>
   <text x="-44.014687" y="-41.962215" fill="#000000" letter-spacing="0px" word-spacing="0px" style="line-height:0%" xml:space="preserve"><tspan x="-44.014687" y="-41.962215" fill="#ffffff" font-family="'Arial Nova', 'Arial Unicode MS', 'Yu Gothic UI', sans-serif" font-size="20px" stroke="#ffffff" stroke-width="1.0667" style="line-height:1.25">A</tspan></text>
  </g>
  <g transform="translate(282.11 834.07)">
   <ellipse cx="-36.668" cy="-19.66" rx="13.199" ry="13.469" d="m -23.468687,-19.659805 c 0,7.438558 -5.90954,13.4687001 -13.199328,13.4687001 -7.289787,0 -13.199327,-6.0301421 -13.199327,-13.4687001 0,-7.438558 5.90954,-13.468701 13.199327,-13.468701 7.289788,0 13.199328,6.030143 13.199328,13.468701 z" fill="#1f638a" stroke-linecap="round" stroke-linejoin="round" stroke-width="1.0658"/>
   <text x="-43.09388" y="-12.024389" fill="#000000" letter-spacing="0px" word-spacing="0px" style="line-height:0%" xml:space="preserve"><tspan x="-43.09388" y="-12.024389" fill="#ffffff" font-family="'Arial Nova', 'Arial Unicode MS', 'Yu Gothic UI', sans-serif" font-size="20px" stroke="#ffffff" stroke-width="1.0667" style="line-height:1.25">B</tspan></text>
  </g>
  <g transform="translate(407.19 881.87)">
   <ellipse cx="-16.245" cy="-67.7" rx="13.199" ry="13.469" d="m -3.0459976,-67.699562 c 0,7.438558 -5.9095402,13.4687 -13.1993274,13.4687 -7.289787,0 -13.199328,-6.030142 -13.199328,-13.4687 0,-7.438558 5.909541,-13.4687 13.199328,-13.4687 7.2897872,0 13.1993274,6.030142 13.1993274,13.4687 z" fill="#1f638a" stroke-linecap="round" stroke-linejoin="round" stroke-width="1.0658"/>
   <text x="-24.07345" y="-60.064144" fill="#000000" letter-spacing="0px" word-spacing="0px" style="line-height:0%" xml:space="preserve"><tspan x="-24.07345" y="-60.064144" fill="#ffffff" font-family="'Arial Nova', 'Arial Unicode MS', 'Yu Gothic UI', sans-serif" font-size="20px" stroke="#ffffff" stroke-linecap="round" stroke-linejoin="round" stroke-width="1.0658" style="line-height:1.25">C</tspan></text>
  </g>
  <g transform="translate(251.1 1052.8)">
   <ellipse cx="-44.92" cy="-98.798" rx="13.199" ry="13.469" d="m -31.720282,-98.79776 c 0,7.438558 -5.90954,13.4687 -13.199327,13.4687 -7.289787,0 -13.199328,-6.030142 -13.199328,-13.4687 0,-7.43856 5.909541,-13.4687 13.199328,-13.4687 7.289787,0 13.199327,6.03014 13.199327,13.4687 z" fill="#1f638a" stroke-linecap="round" stroke-linejoin="round" stroke-width="1.0658"/>
   <text x="-50.761276" y="-91.125885" fill="#000000" letter-spacing="0px" word-spacing="0px" style="line-height:0%" xml:space="preserve"><tspan x="-50.761276" y="-91.125885" fill="#ffffff" font-family="'Arial Nova', 'Arial Unicode MS', 'Yu Gothic UI', sans-serif" font-size="20px" stroke="#ffffff" stroke-width="1.0667" style="line-height:1.25">1</tspan></text>
  </g>
  <g>
   <path d="m143.56 843.41-124.22 0.15817 0.29899 8.3871 17.936-0.0819c7.2113 0.63326 7.6758 8.1916 8.1867 11.968l9.0907 58.685 53.018-0.0261 9.5613-62.05c1.0332-7.0281 4.8826-8.1875 7.3819-8.5954l18.605 0.0698z" fill="url(#pattern27788)" opacity=".5"/>
   <path d="m308.47 843.4-124.22 0.15817 0.299 8.3871 17.936-0.0819c7.2113 0.63326 7.6758 8.1916 8.1867 11.968l9.0907 58.685 53.018-0.0261 9.5613-62.05c1.0332-7.0281 4.8826-8.1875 7.3819-8.5954l18.605 0.0698z" fill="url(#pattern27788-5)" opacity=".5"/>
   <path d="m453.85 843.28-124.22 0.15817-0.0898 8.3871 18.325-0.0819c7.2113 0.63326 7.6758 8.1916 8.1867 11.968l9.0907 58.685 53.018-0.0261 9.5613-62.05c1.0332-7.0281 4.8367-7.9355 7.3361-8.3435l18.65-0.18219z" fill="url(#pattern27788-7)" opacity=".5"/>
  </g>
 </g>
</svg>
