<?xml version="1.0" encoding="UTF-8"?>
<svg xmlns="http://www.w3.org/2000/svg" xmlns:xlink="http://www.w3.org/1999/xlink" version="1.1" viewBox="0 0 354.33 304.72">
 <defs>
  <radialGradient id="radialGradient3306" cx="-101.18" cy="-61.822" r="325.36" gradientTransform="matrix(1.7389 -.29197 .077398 .46097 176.05 204.86)" gradientUnits="userSpaceOnUse">
   <stop stop-color="#00385e" offset="0"/>
   <stop stop-color="#1f5072" offset=".1698"/>
   <stop stop-color="#3f6986" offset=".26221"/>
   <stop stop-color="#5f829a" offset=".42429"/>
   <stop stop-color="#5f829a" offset=".52743"/>
   <stop stop-color="#3f6986" offset=".63807"/>
   <stop stop-color="#1f5072" offset=".79021"/>
   <stop stop-color="#00385e" offset="1"/>
  </radialGradient>
 </defs>
 <g transform="matrix(.42249 0 0 .42249 143.86 127.16)" opacity=".59344" stroke-linecap="round" stroke-linejoin="round">
  <path d="m-256.7 131.79 285.42-61.713c178.48-30.515 270.37 1.1414 337.94 49.101-7.35 37.248-16.532 95.561-89.325 122.69-68.547 16.229-103.88-32.941-103.61-78.993 0 0-17.713-12.262-27.668-20.012l-286.62 63.473c-3.5925 21.269-3.8904 42.335-20.333 64.556-28.457 25.738-60.974-10.953-81.423-59.172-14.14-41.679-13.248-59.396-14.372-79.928" fill="url(#radialGradient3306)" stroke="#010001" stroke-width="1px"/>
  <g fill="#8fa8b8" stroke-width="1.5012">
   <path transform="translate(0 733.46)" d="m-286.93-464.68 171.85 110.15 2.2953-154.2-28.196-19.074c-11.15 146.68-116.04 49.165-115.69-71.733l-29.076-19.191z" stroke="#010001"/>
   <path transform="translate(0 733.46)" d="m-112.59-508.5 286.16-62.158c4.0938 124.09 178.98 106.7 192.34-43.979l46.911-11.141-1.1728 155.98-526.58 114.93 2.3456-153.63" stroke="#010001"/>
   <path transform="translate(0 733.46)" d="m-285.57-618.82 525.99-116.62 171.81 109.66-46.032 11.435-29.026-19.058c-70.058-38.845-198.22-53.604-307.86-29.906l-286.09 63.641-28.804-19.149" stroke="#000000"/>
   <path transform="translate(0 733.46)" d="m-140.94-527.71 286.95-62.883 28.733 19.937-287.3 62.158-28.39-19.212" stroke="#010001"/>
  </g>
  <path transform="translate(0 733.46)" d="m29.854-662.56c0.33054 30.96 7.5481 61.92 21.147 92.88" fill="none" stroke="#010001" stroke-width="1.5012"/>
  <path transform="translate(0 733.46)" d="m337.93-631.88c-4.5752 78.852-74.78 141.02-139.73 121.9" fill="none" stroke="#010001" stroke-width="1.5012"/>
 </g>
 <g fill="none" stroke-linecap="round" stroke-linejoin="round" stroke-width="1.4173">
  <path d="m260.72 186.88c-29.632-24.164-63.672-17.342-98.739-9.421l-99.175 22.569" stroke="#fc00f7"/>
  <path d="m251.19 219.9c-10.267-8.3725-21.064-13.025-32.249-15.201m-137.46 21.79-29.312 6.8985" stroke="#fc00f7"/>
  <path d="m298.41 177.25c-35.785-25.274-89.223-30.893-142.38-20.474l-50.788 10.831c-1.4442 0.7221-70.043 15.645-70.043 15.645" stroke="#7af61d"/>
  <path d="m84.69 213.73 120.86-26.469 11.391 8.2693" stroke="#00fc00"/>
 </g>
 <g id="SVGID_5_" fill="#000000">
  <path d="m110.63 191.73h-1.4851l-2.7499-4.5121-2.7925 4.5121h-1.3856l3.4534-5.4145-3.2331-4.974h1.4567l2.5438 4.0716 2.5651-4.0716h1.3785l-3.2118 4.9455z" color="#000000" style="-inkscape-stroke:none"/>
  <path d="m101.51 180.84 3.5606 5.4766-3.7715 5.9121h2.5762l2.5117-4.0566 2.4726 4.0566h2.6758l-3.7773-5.9394 3.5391-5.4492h-2.5762l-2.2871 3.6309-2.2676-3.6309zm1.8438 1h0.25781l2.7715 4.4375-3.0644 4.9512h-0.19532l3.1367-4.916zm5.9199 0h0.18164l-2.8848 4.4434 3.1445 4.9453h-0.29492l-2.9805-4.8906z" color="#000000" style="-inkscape-stroke:none"/>
 </g>
 <g id="SVGID_6_" fill="#000000">
  <path d="m52.071 166.51h-7.2051v-0.98769l5.4714-8.2355h-5.3008v-1.1653h6.8854v0.98769l-5.4714 8.2355h5.6206z" color="#000000" style="-inkscape-stroke:none"/>
  <path d="m44.537 155.62v2.166h4.8691l-5.041 7.584v1.6387h8.2051v-2.166h-5.1875l5.0391-7.584v-1.6387zm1 1h5.8848v0.33789l-5.9043 8.8848h6.0527v0.16602h-6.2051v-0.33594l5.9043-8.8867h-5.7324z" color="#000000" style="-inkscape-stroke:none"/>
 </g>
 <g fill="#000000">
  <path d="m14.662 171.59 2.7073-5.109h1.4069l-3.4605 6.3596v4.0289h-1.3145v-3.9721l-3.4605-6.4164h1.4282z" color="#000000" style="-inkscape-stroke:none"/>
  <path d="m9.7031 165.98 3.7988 7.043v4.3457h2.3145v-4.4023l3.8008-6.9863h-2.5488l-2.8477 5.375h0.88477l-0.44336 1.3047 0.44141-0.83594 2.5664-4.8438h0.26562l-3.1191 5.7324v3.6562h-0.31445v-3.5977l-3.123-5.791h0.28906l2.9941 5.6797-2.3906-6.6797z" color="#000000" style="-inkscape-stroke:none"/>
 </g>
 <g>
  <g stroke-linecap="round" stroke-linejoin="round">
   <path d="m60.687 200.16-30.566-19.844" fill="none" stroke="#000000" stroke-miterlimit="8" stroke-width=".70866"/>
   <path d="m36.325 180.29-12.458-3.989 8.7384 9.6672z" fill="#ffffff" fill-rule="evenodd" stroke="#000000" stroke-width=".99921"/>
   <path d="m61.439 200.29 27.741-6.4136" fill="none" stroke="#00001a" stroke-miterlimit="8" stroke-width=".70866"/>
   <path d="m86.45 197.93 11.434-6.3548-13.029-0.2432z" fill="#fffdff" fill-rule="evenodd" stroke="#000000" stroke-width=".99921"/>
  </g>
  <path d="m169.05 115.49-114.19 25.996-36.471-23.649 112.2-24.771z" fill="#940000" stroke="#000000" stroke-width=".63425"/>
  <path d="m67.525 199.02 0.0075-59.535" fill="none" stroke="#ff0000" stroke-width="1.3075"/>
 </g>
 <g fill="#000000" stroke="#000000" stroke-linecap="round" stroke-linejoin="round">
  <path d="m73.554 189.6 0.38358-41.055" stroke-width=".63425"/>
  <path d="m74.148 138.45-4.0378 11.749 8.2139 0.0762z" stroke-width=".99921"/>
  <path d="m74.003 195.26 4.0378-11.749-8.2139-0.0762z" stroke-width=".99921"/>
 </g>
 <path d="m64.641 170.53v0l-3.494-12.606-3.2967 12.606z" fill="#fffdff" fill-rule="evenodd" stroke="#000000" stroke-linecap="round" stroke-linejoin="round" stroke-width=".99921"/>
 <path d="m61.103 200.34 0.23999-29.756" fill="none" stroke="#000000" stroke-linecap="round" stroke-linejoin="round" stroke-miterlimit="8" stroke-width=".70866"/>
 <g transform="translate(139.47 261.65)">
  <ellipse cx="-44.92" cy="-98.798" rx="13.199" ry="13.469" fill="#1f638a" stroke-linecap="round" stroke-linejoin="round" stroke-width="1.0658"/>
  <text x="-50.761276" y="-91.125885" fill="#000000" font-family="'Arial Nova', 'Arial Unicode MS', 'Yu Gothic UI', sans-serif" font-size="12.8px" letter-spacing="0px" stroke-width="1.0667" word-spacing="0px" style="line-height:0%" xml:space="preserve"><tspan x="-50.761276" y="-91.125885" fill="#ffffff" font-family="'Arial Nova', 'Arial Unicode MS', 'Yu Gothic UI', sans-serif" font-size="21.333px" stroke="#ffffff" stroke-width="1.0667" style="line-height:1.25">1</tspan></text>
 </g>
 <g transform="translate(224.44 127.44)">
  <ellipse cx="-44.92" cy="-98.798" rx="13.199" ry="13.469" fill="#1f638a" stroke-linecap="round" stroke-linejoin="round" stroke-width="1.0658"/>
  <text x="-52.551544" y="-91.921562" fill="#000000" font-family="'Arial Nova', 'Arial Unicode MS', 'Yu Gothic UI', sans-serif" font-size="12.8px" letter-spacing="0px" stroke-width="1.0667" word-spacing="0px" style="line-height:0%" xml:space="preserve"><tspan x="-52.551544" y="-91.921562" fill="#ffffff" font-family="'Arial Nova', 'Arial Unicode MS', 'Yu Gothic UI', sans-serif" font-size="21.333px" stroke="#ffffff" stroke-width="1.0667" style="line-height:1.25">A</tspan></text>
 </g>
</svg>
