<?xml version="1.0" encoding="UTF-8"?>
<svg version="1.1" viewBox="0 0 637.8 425.2" xmlns="http://www.w3.org/2000/svg" xmlns:cc="http://creativecommons.org/ns#" xmlns:dc="http://purl.org/dc/elements/1.1/" xmlns:rdf="http://www.w3.org/1999/02/22-rdf-syntax-ns#">
 <title>Abbildung für OPEN MIND Softwaredokumentation</title>
 <metadata>
  <rdf:RDF>
   <cc:Work rdf:about="">
    <dc:format>image/svg+xml</dc:format>
    <dc:type rdf:resource="http://purl.org/dc/dcmitype/StillImage"/>
    <dc:title>Abbildung für OPEN MIND Softwaredokumentation</dc:title>
    <dc:creator>
     <cc:Agent>
      <dc:title>OPEN MIND Technologies AG</dc:title>
     </cc:Agent>
    </dc:creator>
    <dc:rights>
     <cc:Agent>
      <dc:title>Alle Rechte vorbehalten.</dc:title>
     </cc:Agent>
    </dc:rights>
    <dc:publisher>
     <cc:Agent>
      <dc:title>Technische Redaktion</dc:title>
     </cc:Agent>
    </dc:publisher>
   </cc:Work>
  </rdf:RDF>
 </metadata>
 <g transform="translate(0,106.3)">
  <g stroke="#000">
   <g transform="translate(-37.5,-137.11)" stroke-linecap="round" stroke-linejoin="round" stroke-miterlimit="10" stroke-width="1.3429">
    <path d="m55.941 85.508c10.309 6.3125 21.355 8.9661 31.789 0 9.8372-8.4536 19.54-11.2 31.789 0v60.346h-63.577z" fill="#fff"/>
    <path d="m87.73 85.508c-9.8372-8.4536-19.54-11.2-31.789 0" fill="none"/>
   </g>
   <path d="m18.53 8.2388 15.434 41.749h32.535l15.434-41.749z" fill="#fff" stroke-linecap="round" stroke-linejoin="round" stroke-miterlimit="10" stroke-width="1.3429"/>
   <g fill="none" stroke-width=".35433">
    <g stroke-linecap="round" stroke-linejoin="round">
     <g stroke-miterlimit="7">
      <line x1="25.181" x2="25.181" y1="89.199" y2="21.346"/>
      <line x1="34.067" x2="34.067" y1="68.189" y2="49.382"/>
      <line x1="66.251" x2="66.251" y1="67.76" y2="49.38"/>
     </g>
     <line x1="74.342" x2="74.342" y1="89.199" y2="21.346"/>
     <line x1="25.317" x2="73.378" y1="86.018" y2="86.018" stroke-miterlimit="7"/>
     <line x1="19.515" x2="95.242" y1="62.872" y2="62.872" stroke-miterlimit="7"/>
    </g>
    <line x1="50.105" x2="50.105" y1="-58.851" y2="53.68" stroke-dasharray="2.83465, 0.708661, 0.354331, 0.708661"/>
    <line x1="25.259" x2="74.18" y1="27.786" y2="27.786" stroke-dasharray="0.354331, 0.708661" stroke-linecap="round" stroke-linejoin="round" stroke-miterlimit="7"/>
   </g>
   <g stroke-linecap="round" stroke-linejoin="round">
    <path d="m19.285-9.1015 11.786-3.9286v8.2143z" stroke-width=".99921"/>
    <path d="m81.512-9.0462-11.786-3.9286v8.2143z" stroke-width=".99921"/>
    <path d="m18.47-8.8934h52.75" color="#000000" fill="#59f" fill-rule="evenodd" stroke-width=".35433"/>
    <g stroke-width=".99921">
     <path d="m73.143 85.875-11.786-3.9286v8.2143z"/>
     <path d="m25.68 85.842 11.786-3.9286v8.2143z"/>
     <path d="m33.643 62.933-11.786-3.9286v8.2143z"/>
     <path d="m66.857 62.933 11.786-3.9286v8.2143z"/>
    </g>
    <g transform="translate(-57.5,-195.29)">
     <path d="m163.87 137.58-39.125 106.26" fill="none" stroke-miterlimit="7" stroke-width=".35433"/>
     <path transform="matrix(-.90584 0 0 .90584 187.98 44.895)" d="m7.0686 133.38a154 154 0 0 1 80.461-22.98" color="#000000" fill="none" stroke-width=".39116"/>
     <path d="m108.27 145.06 11.786-3.9286v8.2143z" stroke-width=".99921"/>
     <path d="m157.12 153.83-9.8035-7.6307-2.7367 7.745z" stroke-width=".99921"/>
    </g>
    <g fill="none" stroke-width=".35433">
     <line x1="396.04" x2="370.24" y1="12.998" y2="12.998" stroke-miterlimit="6.5714"/>
     <line x1="260.55" x2="292.1" y1="13.049" y2="-20.711"/>
     <path d="m260.59 98.036v-127.72"/>
     <line x1="414.6" x2="370.29" y1="30.429" y2="30.429" stroke-miterlimit="6.5714"/>
     <line x1="428.89" x2="319.9" y1="49.815" y2="49.815" stroke-miterlimit="6.5714"/>
    </g>
    <g transform="matrix(1 0 0 .99288 46.5 -194.41)" stroke-miterlimit="10" stroke-width="1.3477">
     <path d="m252.09 141.84c6.1542 5.1871 12.156 7.7194 21.66 0 6.7234-5.4608 14.44-8.7753 21.66 0v51.407h-43.32z" fill="#fff"/>
     <path d="m273.75 141.84c-6.7234-5.4608-14.44-8.7753-21.66 0" fill="none"/>
    </g>
    <line x1="428.89" x2="319.9" y1="-2.297" y2="-2.297" fill="none" stroke-miterlimit="6.5714" stroke-width=".35433"/>
    <polyline transform="matrix(1.1235,0,0,1.1235,245.07,-369.8)" points="26.965 326.92 108.38 326.92 119.83 340.64 119.83 355.58 97.471 373.32 39.616 373.32 13.995 355.87 14.201 340.54 26.965 326.92" fill="#fff" stroke-miterlimit="10" stroke-width="1.1953"/>
    <polyline transform="matrix(1.1235,0,0,1.1235,245.07,-369.8)" points="14.123 340.64 119.82 340.64 119.82 356.12 14.123 356.12 14.123 340.64" fill="#fff" stroke-miterlimit="10" stroke-width="1.1953"/>
   </g>
   <g fill="none" stroke-linejoin="round" stroke-width=".35433">
    <g stroke-linecap="round">
     <line x1="411.89" x2="411.89" y1="81.127" y2="16.554" stroke-miterlimit="6.5714"/>
     <line x1="320.11" x2="320.11" y1="-58.127" y2="54.182" stroke-dasharray="2.83465, 0.708661, 0.354331, 0.708661"/>
     <line x1="391.93" x2="391.93" y1="-30.309" y2="27.164" stroke-miterlimit="6.5714"/>
     <line x1="425.65" x2="425.65" y1=".55503" y2="48.768" stroke-miterlimit="6.5714"/>
     <path d="m379.79 98.574v-67.261"/>
    </g>
    <line x1="339.28" x2="300.62" y1="-20.389" y2="-20.389" stroke-linecap="square" stroke-miterlimit="10"/>
   </g>
   <g stroke-linecap="round" stroke-linejoin="round" stroke-width=".99921">
    <path d="m425.8-1.6564 3.9286 11.786h-8.2143z"/>
    <path d="m411.8 50.542 3.9286 11.786h-8.2143z"/>
    <path d="m391.91 13.719 3.9286 11.786h-8.2143z"/>
    <path d="m425.8 49.067 3.9286-11.786h-8.2143z"/>
    <path d="m411.85 29.739 3.9286-11.786h-8.2143z"/>
    <path d="m391.86-2.9956 3.9286-11.786h-8.2143z"/>
    <path d="m299.11-20.567 11.786-3.9286v8.2143z"/>
    <path d="m342.04-20.567-11.786-3.9286v8.2143z"/>
   </g>
   <g transform="translate(0,8)">
    <line x1="372.93" x2="265.9" y1="86.612" y2="86.612" fill="none" stroke-linecap="square" stroke-miterlimit="10" stroke-width=".35433"/>
    <path d="m260.86 86.433 11.786-3.9286v8.2143z" stroke-linecap="round" stroke-linejoin="round" stroke-width=".99921"/>
    <path d="m379.02 86.495-11.786-3.9286v8.2143z" stroke-linecap="round" stroke-linejoin="round" stroke-width=".99921"/>
   </g>
   <g stroke-linecap="round" stroke-linejoin="round">
    <path transform="matrix(1.052,0,0,1.0265,13.67,-200.96)" d="m262.8 227.22a28.461 29.168 0 0 1-43.731 22.559" color="#000000" fill="none" stroke-width=".34098"/>
    <path d="m259.99 60.036-10.552-6.5573-1.9069 7.9899z" stroke-width=".99921"/>
    <path d="m285.72 45.702 7.9184-9.5727-7.6603-2.9654z" stroke-width=".99921"/>
    <g transform="matrix(1,0,0,-1,26.5,207.35)">
     <path transform="matrix(1.052,0,0,1.0265,-12.83,-25.679)" d="m262.8 227.22a28.461 29.168 0 0 1-42.997 23.025" color="#000000" fill="none" stroke-width=".34098"/>
     <path d="m233.49 235.32-10.552-6.5573-1.9069 7.9899z" stroke-width=".99921"/>
     <path d="m259.22 220.99 7.9184-9.5727-7.6603-2.9654z" stroke-width=".99921"/>
    </g>
    <g transform="translate(0,-195.29)" stroke-miterlimit="10" stroke-width="1.3429">
     <path d="m620.15 231.69v-88.977c-9.4673-7.0863-17.766-5.7134-27.389 0-8.3247 4.9426-17.786 10.894-27.389 0v88.977l0.1024 7.8997c0 2.9002 12.141 4.7757 27.662 4.7757 15.522 0 26.975-1.9907 26.975-4.8908l0.04-7.7846z" fill="#fff"/>
     <path d="m565.37 142.71c9.4673-7.0863 17.766-5.7134 27.389 0" fill="none"/>
    </g>
    <line x1="592.85" x2="592.85" y1="-58.213" y2="51.991" fill="none" stroke-dasharray="2.83465, 0.708661, 0.354331, 0.708661" stroke-width=".35433"/>
    <g transform="matrix(.99715 -.075401 .075401 .99715 -92.782 -155.25)">
     <path d="m675.61 256.54v35.472" fill="none" stroke-miterlimit="6.5714" stroke-width=".35433"/>
     <path d="m675.68 256.89 3.9286 11.786h-8.2143z" stroke-width=".99921"/>
    </g>
    <path d="m564.59 45.336-25.44 14.078" fill="none" stroke-miterlimit="6.5714" stroke-width=".35433"/>
    <path d="m564.32 45.568-8.41 9.1438-3.9772-7.1872z" stroke-width=".99921"/>
    <g transform="translate(-410.45,19.489)" stroke-miterlimit="7" stroke-width="1.3429">
     <path d="m511.5 131.11c8.6937 6.574 17.146 6.7146 27.02 0 8.3589-5.6838 17.561-11.77 27.02 0v64.314h-54.041z" fill="#fff"/>
     <path d="m538.52 131.11c-8.3589-5.6838-17.561-11.77-27.02 0" fill="none"/>
    </g>
    <path d="m64.614 202.96v42.953h127.01v-42.953z" fill="#fff" stroke-miterlimit="7" stroke-width="1.3429"/>
   </g>
  </g>
  <g fill="none">
   <path d="m174.22 202.96-2.6196 0.90669-7.0632 48.463 2.8853 0.93048c2.8443-7.5826 2.0368-16.149 3.1285-23.976 1.2213-8.7735 2.4478-17.548 3.6691-26.324"/>
   <path d="m127.71 136.47v131.76" stroke="#000" stroke-dasharray="2.83465, 0.708661, 0.354331, 0.708661" stroke-linecap="round" stroke-linejoin="round" stroke-width=".35433"/>
   <line x1="142.93" x2="142.93" y1="202.77" y2="238.99" stroke="#000" stroke-linecap="round" stroke-linejoin="round" stroke-miterlimit="6.5714" stroke-width=".35433"/>
  </g>
  <g stroke="#000" stroke-linecap="round" stroke-linejoin="round">
   <g stroke-width=".99921">
    <path d="m143 203.16 3.9286 11.786h-8.2143z"/>
    <path d="m143.17 245.68 3.9286-11.786h-8.2143z"/>
    <path d="m65.01 268.36 11.786-3.9286v8.2143z"/>
    <path d="m190.53 268.06-11.786-3.9286v8.2143z"/>
   </g>
   <g fill="#59f" fill-rule="evenodd" stroke-width=".35433">
    <path d="m191.17 243.84v30.658" color="#000000"/>
    <path d="m66.644 268.21h112.13" color="#000000"/>
    <path d="m64.422 243.84v30.658" color="#000000"/>
   </g>
   <path d="m102.19 190.51 11.786-3.9286v8.2143z" stroke-width=".99921"/>
   <path d="m153.92 190.56-11.786-3.9286v8.2143z" stroke-width=".99921"/>
   <path d="m111.92 190.71h30.543" color="#000000" fill="#59f" fill-rule="evenodd" stroke-width=".35433"/>
   <g transform="translate(-216.99,19.427)" stroke-miterlimit="7" stroke-width="1.3429">
    <path d="m511.5 143.11c8.6937 6.574 17.146 6.7146 27.02 0 8.3589-5.6838 17.561-11.77 27.02 0v52.314h-54.041z" fill="#fff"/>
    <path d="m538.52 143.11c-8.3589-5.6838-17.561-11.77-27.02 0" fill="none"/>
   </g>
   <path d="m262.08 202.9-4 4.7193v33.263l4 4.9705h119.01l4-4.9233v-33.116l-4-4.914z" fill="#fff" stroke-miterlimit="7" stroke-width="1.3429"/>
   <polyline transform="matrix(1.2003,0,0,2.1478,241.12,-523.88)" points="14.123 340.64 119.82 340.64 119.82 356.12 14.123 356.12 14.123 340.64" fill="#fff" stroke-miterlimit="10" stroke-width=".83639"/>
   <g fill="none">
    <line x1="321.17" x2="321.17" y1="156.41" y2="268.16" stroke-dasharray="2.83465, 0.708661, 0.354331, 0.708661" stroke-width=".35433"/>
    <line x1="257.98" x2="289.53" y1="207.3" y2="173.54" stroke-width=".35433"/>
    <line x1="258.03" x2="258.03" y1="284.29" y2="164.57" stroke-width=".35433"/>
    <path transform="matrix(1.052,0,0,1.0265,11.107,20.488)" d="m262.8 227.22a28.461 29.168 0 0 1-43.731 22.559" color="#000000" stroke-width=".34098"/>
   </g>
   <path d="m257.43 281.49-10.552-6.5573-1.9069 7.9899z" stroke-width=".99921"/>
   <path d="m283.16 267.15 7.9184-9.5727-7.6603-2.9654z" stroke-width=".99921"/>
   <g transform="matrix(1,0,0,-1,23.937,401.6)">
    <path transform="matrix(1.052,0,0,1.0265,-12.83,-25.679)" d="m262.8 227.22a28.461 29.168 0 0 1-42.997 23.025" color="#000000" fill="none" stroke-width=".34098"/>
    <path d="m233.49 235.32-10.552-6.5573-1.9069 7.9899z" stroke-width=".99921"/>
    <path d="m259.22 220.99 7.9184-9.5727-7.6603-2.9654z" stroke-width=".99921"/>
   </g>
   <g fill="none" stroke-width=".35433">
    <line x1="257.98" x2="289.53" y1="241.28" y2="275.04"/>
    <g stroke-miterlimit="6.5714">
     <line x1="411.2" x2="386.06" y1="207.81" y2="207.81"/>
     <line x1="412.06" x2="376.34" y1="240.98" y2="240.98"/>
     <line x1="412.2" x2="335.7" y1="245.82" y2="245.82"/>
     <line x1="411.42" x2="335.67" y1="202.51" y2="202.51"/>
     <line x1="407.64" x2="407.64" y1="278.9" y2="226.13"/>
     <line x1="407.76" x2="407.76" y1="174.47" y2="222"/>
    </g>
   </g>
   <g stroke-width=".99921">
    <path d="m407.65 246.55 4.1071 11.786h-8.2143z"/>
    <path d="m407.74 208.53 3.9286 11.786h-8.2143z"/>
    <path d="m407.66 240.29 4.1071-11.786h-8.2143z"/>
    <path d="m407.68 201.81 3.9286-11.786h-8.2143z"/>
   </g>
   <g transform="translate(16.349,19.066)" stroke-miterlimit="7" stroke-width="1.3429">
    <path d="m511.5 143.11c8.6937 6.574 17.146 6.7146 27.02 0 8.3589-5.6838 17.561-11.77 27.02 0v52.314h-54.041z" fill="#fff"/>
    <path d="m538.52 143.11c-8.3589-5.6838-17.561-11.77-27.02 0" fill="none"/>
   </g>
   <path d="m495.42 202.54c-3.7467-0.25232-4.0456 2.4698-4 4.7193v33.263c0.33278 2.2822-0.16442 5.0831 4 4.9705h119.01c2.3526-0.28201 3.9071-1.6283 4-4.9233v-33.116c-0.18719-2.2412 0.722-5.0595-4-4.914z" fill="#fff" stroke-miterlimit="7" stroke-width="1.3429"/>
   <g transform="matrix(-1,0,0,1,1091.6,7.892)">
    <path d="m595.97 233.93 39.043 25.622" color="#000000" fill="#59f" fill-rule="evenodd" stroke-width=".35433"/>
    <ellipse transform="matrix(.17374 0 0 .15444 524.88 190.27)" cx="409.75" cy="283.9" rx="4" ry="4.5" color="#000000" stroke-width="10.816"/>
    <path d="m600.22 236.94 11.962 3.3552-4.6057 6.8016z" stroke-width=".99921"/>
   </g>
   <line x1="554.51" x2="554.51" y1="156.05" y2="267.8" fill="none" stroke-dasharray="2.83465, 0.708661, 0.354331, 0.708661" stroke-width=".35433"/>
   <g transform="rotate(180 545.75 220.06)">
    <path d="m595.97 233.93 38.594 25.328" color="#000000" fill="#59f" fill-rule="evenodd" stroke-width=".35433"/>
    <ellipse transform="matrix(.17374 0 0 .15444 524.88 190.27)" cx="409.75" cy="283.9" rx="4" ry="4.5" color="#000000" stroke-width="10.816"/>
    <path d="m600.22 236.94 11.962 3.3552-4.6057 6.8016z" stroke-width=".99921"/>
   </g>
  </g>
  <g transform="translate(2.5469,-1109.6)">
   <ellipse cx="44.177" cy="1028.2" rx="13.199" ry="13.469" fill="#1f638a" stroke-linecap="round" stroke-linejoin="round" stroke-width="1.0658"/>
   <text x="36.010674" y="1035.8727" fill="#000000" font-size="12.8px" letter-spacing="0px" word-spacing="0px" style="line-height:0%" xml:space="preserve"><tspan x="36.010674" y="1035.8727" fill="#ffffff" font-family="'Arial Nova', 'Arial Unicode MS', 'Yu Gothic UI', sans-serif" font-size="20px" stroke="#ffffff" stroke-linecap="round" stroke-linejoin="round" stroke-width="1.0658" style="line-height:1.25">G</tspan></text>
  </g>
  <g transform="translate(276.77,-1109.5)">
   <ellipse cx="45.199" cy="1028.6" rx="13.199" ry="13.469" fill="#1f638a" stroke-linecap="round" stroke-linejoin="round" stroke-width="1.0658"/>
   <text x="37.496201" y="1036.2295" fill="#000000" font-size="12.8px" letter-spacing="0px" word-spacing="0px" style="line-height:0%" xml:space="preserve"><tspan x="37.496201" y="1036.2295" fill="#ffffff" font-family="'Arial Nova', 'Arial Unicode MS', 'Yu Gothic UI', sans-serif" font-size="20px" stroke="#ffffff" stroke-width="1.0667" style="line-height:1.25">H</tspan></text>
  </g>
  <g transform="translate(548.59,-1109.5)">
   <ellipse cx="45.199" cy="1028.6" rx="13.199" ry="13.469" fill="#1f638a" stroke-linecap="round" stroke-linejoin="round" stroke-width="1.0658"/>
   <text x="37.496201" y="1036.2295" fill="#000000" font-size="12.8px" letter-spacing="0px" word-spacing="0px" style="line-height:0%" xml:space="preserve"><tspan x="37.496201" y="1036.2295" fill="#ffffff" font-family="'Arial Nova', 'Arial Unicode MS', 'Yu Gothic UI', sans-serif" font-size="20px" stroke="#ffffff" stroke-width="1.0667" style="line-height:1.25">K</tspan></text>
  </g>
  <g transform="translate(-8.2156,-817.29)">
   <ellipse cx="45.199" cy="1028.6" rx="13.199" ry="13.469" fill="#1f638a" stroke-linecap="round" stroke-linejoin="round" stroke-width="1.0658"/>
   <text x="39.194431" y="1035.8521" fill="#000000" font-size="12.8px" letter-spacing="0px" word-spacing="0px" style="line-height:0%" xml:space="preserve"><tspan x="39.194431" y="1035.8521" fill="#ffffff" font-family="'Arial Nova', 'Arial Unicode MS', 'Yu Gothic UI', sans-serif" font-size="20px" stroke="#ffffff" stroke-width="1.0667" style="line-height:1.25">J</tspan></text>
  </g>
  <g transform="translate(94.796,108.99)">
   <ellipse cx="-45.487" cy="-137.32" rx="13.199" ry="13.469" fill="#1f638a" stroke-linecap="round" stroke-linejoin="round" stroke-width="1.0658"/>
   <g transform="translate(-.13452)" font-size="12.8px" letter-spacing="0px" word-spacing="0px">
    <text x="-55.273815" y="-129.65053" style="line-height:0%" xml:space="preserve"><tspan x="-55.273815" y="-129.65053" fill="#ffffff" font-family="'Arial Nova', 'Arial Unicode MS', 'Yu Gothic UI', sans-serif" font-size="20px" stroke="#ffffff" stroke-width="1.0667" style="line-height:1.25">1</tspan></text>
    <text x="-47.652157" y="-129.65053" style="line-height:0%" xml:space="preserve"><tspan x="-47.652157" y="-129.65053" fill="#ffffff" font-family="'Arial Nova', 'Arial Unicode MS', 'Yu Gothic UI', sans-serif" font-size="20px" stroke="#ffffff" stroke-width="1.0667" style="line-height:1.25">1</tspan></text>
   </g>
  </g>
  <g transform="translate(107.09,307.38)">
   <ellipse cx="21.351" cy="-135.7" rx="13.199" ry="13.469" fill="#1f638a" stroke-linecap="round" stroke-linejoin="round" stroke-width="1.0658"/>
   <g transform="translate(-.46415)" font-size="12.8px" letter-spacing="0px" word-spacing="0px">
    <text x="10.40366" y="-128.02597" style="line-height:0%" xml:space="preserve"><tspan x="10.40366" y="-128.02597" fill="#ffffff" font-family="'Arial Nova', 'Arial Unicode MS', 'Yu Gothic UI', sans-serif" font-size="20px" stroke="#ffffff" stroke-width="1.0667" style="line-height:1.25">1</tspan></text>
    <text x="19.417776" y="-128.02597" style="line-height:0%" xml:space="preserve"><tspan x="19.417776" y="-128.02597" fill="#ffffff" font-family="'Arial Nova', 'Arial Unicode MS', 'Yu Gothic UI', sans-serif" font-size="20px" stroke="#ffffff" stroke-width="1.0667" style="line-height:1.25">3</tspan></text>
   </g>
  </g>
  <g transform="translate(-1.4646,182.77)">
   <ellipse cx="51.985" cy="-133.61" rx="13.199" ry="13.469" fill="#1f638a" stroke-linecap="round" stroke-linejoin="round" stroke-width="1.0658"/>
   <text x="40.341476" y="-125.93729" fill="#000000" font-size="12.8px" letter-spacing="0px" word-spacing="0px" style="line-height:0%" xml:space="preserve"><tspan x="40.341476" y="-125.93729" fill="#ffffff" font-family="'Arial Nova', 'Arial Unicode MS', 'Yu Gothic UI', sans-serif" font-size="20px" stroke="#ffffff" stroke-width="1.0667" style="line-height:1.25">1</tspan></text>
   <text x="49.819744" y="-125.93729" fill="#000000" font-size="12.8px" letter-spacing="0px" word-spacing="0px" style="line-height:0%" xml:space="preserve"><tspan x="49.819744" y="-125.93729" fill="#ffffff" font-family="'Arial Nova', 'Arial Unicode MS', 'Yu Gothic UI', sans-serif" font-size="20px" stroke="#ffffff" stroke-width="1.0667" style="line-height:1.25">4</tspan></text>
  </g>
  <g transform="translate(168.71,86.773)">
   <ellipse cx="-45.487" cy="-137.32" rx="13.199" ry="13.469" fill="#1f638a" stroke-linecap="round" stroke-linejoin="round" stroke-width="1.0658"/>
   <g transform="translate(-.13452)" font-size="12.8px" letter-spacing="0px" word-spacing="0px">
    <text x="-55.273815" y="-129.65053" style="line-height:0%" xml:space="preserve"><tspan x="-55.273815" y="-129.65053" fill="#ffffff" font-family="'Arial Nova', 'Arial Unicode MS', 'Yu Gothic UI', sans-serif" font-size="20px" stroke="#ffffff" stroke-width="1.0667" style="line-height:1.25">2</tspan></text>
    <text x="-45.670887" y="-129.74487" style="line-height:0%" xml:space="preserve"><tspan x="-45.670887" y="-129.74487" fill="#ffffff" font-family="'Arial Nova', 'Arial Unicode MS', 'Yu Gothic UI', sans-serif" font-size="20px" stroke="#ffffff" stroke-width="1.0667" style="line-height:1.25">1</tspan></text>
   </g>
  </g>
  <g transform="translate(-1.2833,240.25)">
   <ellipse cx="51.985" cy="-133.61" rx="13.199" ry="13.469" fill="#1f638a" stroke-linecap="round" stroke-linejoin="round" stroke-width="1.0658"/>
   <text x="40.341476" y="-125.93729" fill="#000000" font-size="12.8px" letter-spacing="0px" word-spacing="0px" style="line-height:0%" xml:space="preserve"><tspan x="40.341476" y="-125.93729" fill="#ffffff" font-family="'Arial Nova', 'Arial Unicode MS', 'Yu Gothic UI', sans-serif" font-size="20px" stroke="#ffffff" stroke-width="1.0667" style="line-height:1.25">1</tspan></text>
   <text x="49.819744" y="-125.93729" fill="#000000" font-size="12.8px" letter-spacing="0px" word-spacing="0px" style="line-height:0%" xml:space="preserve"><tspan x="49.819744" y="-125.93729" fill="#ffffff" font-family="'Arial Nova', 'Arial Unicode MS', 'Yu Gothic UI', sans-serif" font-size="20px" stroke="#ffffff" stroke-width="1.0667" style="line-height:1.25">5</tspan></text>
  </g>
  <g transform="translate(170.78,425.62)">
   <ellipse cx="-45.487" cy="-137.32" rx="13.199" ry="13.469" fill="#1f638a" stroke-linecap="round" stroke-linejoin="round" stroke-width="1.0658"/>
   <g transform="translate(-.13452)" font-size="12.8px" letter-spacing="0px" word-spacing="0px">
    <text x="-55.273815" y="-129.65053" style="line-height:0%" xml:space="preserve"><tspan x="-55.273815" y="-129.65053" fill="#ffffff" font-family="'Arial Nova', 'Arial Unicode MS', 'Yu Gothic UI', sans-serif" font-size="20px" stroke="#ffffff" stroke-width="1.0667" style="line-height:1.25">1</tspan></text>
    <text x="-47.652157" y="-129.65053" style="line-height:0%" xml:space="preserve"><tspan x="-47.652157" y="-129.65053" fill="#ffffff" font-family="'Arial Nova', 'Arial Unicode MS', 'Yu Gothic UI', sans-serif" font-size="20px" stroke="#ffffff" stroke-width="1.0667" style="line-height:1.25">1</tspan></text>
   </g>
  </g>
  <g transform="translate(21.558,323.11)">
   <ellipse cx="142.29" cy="-98.798" rx="13.199" ry="13.469" fill="#1f638a" stroke-linecap="round" stroke-linejoin="round" stroke-width="1.0658"/>
   <text x="136.44678" y="-91.26651" fill="#000000" font-size="12.8px" letter-spacing="0px" word-spacing="0px" style="line-height:0%" xml:space="preserve"><tspan x="136.44678" y="-91.26651" fill="#ffffff" font-family="'Arial Nova', 'Arial Unicode MS', 'Yu Gothic UI', sans-serif" font-size="20px" stroke="#ffffff" stroke-width="1.0667" style="line-height:1.25">7</tspan></text>
  </g>
  <g transform="translate(327.36,431.17)">
   <ellipse cx="-45.487" cy="-137.32" rx="13.199" ry="13.469" fill="#1f638a" stroke-linecap="round" stroke-linejoin="round" stroke-width="1.0658"/>
   <g transform="translate(-.13452)" font-size="12.8px" letter-spacing="0px" word-spacing="0px">
    <text x="-56.028584" y="-129.74487" style="line-height:0%" xml:space="preserve"><tspan x="-56.028584" y="-129.74487" fill="#ffffff" font-family="'Arial Nova', 'Arial Unicode MS', 'Yu Gothic UI', sans-serif" font-size="20px" stroke="#ffffff" stroke-width="1.0667" style="line-height:1.25">2</tspan></text>
    <text x="-45.104809" y="-129.74487" style="line-height:0%" xml:space="preserve"><tspan x="-45.104809" y="-129.74487" fill="#ffffff" font-family="'Arial Nova', 'Arial Unicode MS', 'Yu Gothic UI', sans-serif" font-size="20px" stroke="#ffffff" stroke-width="1.0667" style="line-height:1.25">2</tspan></text>
   </g>
  </g>
  <g transform="translate(326.51,289.28)">
   <ellipse cx="-45.487" cy="-137.32" rx="13.199" ry="13.469" fill="#1f638a" stroke-linecap="round" stroke-linejoin="round" stroke-width="1.0658"/>
   <g transform="translate(-.13452)" font-size="12.8px" letter-spacing="0px" word-spacing="0px">
    <text x="-56.028584" y="-129.74487" style="line-height:0%" xml:space="preserve"><tspan x="-56.028584" y="-129.74487" fill="#ffffff" font-family="'Arial Nova', 'Arial Unicode MS', 'Yu Gothic UI', sans-serif" font-size="20px" stroke="#ffffff" stroke-width="1.0667" style="line-height:1.25">2</tspan></text>
    <text x="-45.104809" y="-129.74487" style="line-height:0%" xml:space="preserve"><tspan x="-45.104809" y="-129.74487" fill="#ffffff" font-family="'Arial Nova', 'Arial Unicode MS', 'Yu Gothic UI', sans-serif" font-size="20px" stroke="#ffffff" stroke-width="1.0667" style="line-height:1.25">3</tspan></text>
   </g>
  </g>
  <g transform="translate(225.35,343.79)">
   <ellipse cx="204.69" cy="-98.798" rx="13.199" ry="13.469" fill="#1f638a" stroke-linecap="round" stroke-linejoin="round" stroke-width="1.0658"/>
   <text x="198.84944" y="-91.256096" fill="#000000" font-size="12.8px" letter-spacing="0px" word-spacing="0px" style="line-height:0%" xml:space="preserve"><tspan x="198.84944" y="-91.256096" fill="#ffffff" font-family="'Arial Nova', 'Arial Unicode MS', 'Yu Gothic UI', sans-serif" font-size="20px" stroke="#ffffff" stroke-width="1.0667" style="line-height:1.25">9</tspan></text>
  </g>
  <g transform="translate(503.88,343.11)">
   <ellipse cx="-75.193" cy="-138.95" rx="13.199" ry="13.469" fill="#1f638a" stroke-linecap="round" stroke-linejoin="round" stroke-width="1.0658"/>
   <g transform="translate(-1.2434)" font-size="12.8px" letter-spacing="0px" word-spacing="0px">
    <text x="-85.114067" y="-131.27504" style="line-height:0%" xml:space="preserve"><tspan x="-85.114067" y="-131.27504" fill="#ffffff" font-family="'Arial Nova', 'Arial Unicode MS', 'Yu Gothic UI', sans-serif" font-size="20px" stroke="#ffffff" stroke-width="1.0667" style="line-height:1.25">1</tspan></text>
    <text x="-76.055321" y="-131.27504" style="line-height:0%" xml:space="preserve"><tspan x="-76.055321" y="-131.27504" fill="#ffffff" font-family="'Arial Nova', 'Arial Unicode MS', 'Yu Gothic UI', sans-serif" font-size="20px" stroke="#ffffff" stroke-width="1.0667" style="line-height:1.25">0</tspan></text>
   </g>
  </g>
  <g transform="translate(526.96,308.01)">
   <ellipse cx="-45.487" cy="-137.32" rx="13.199" ry="13.469" fill="#1f638a" stroke-linecap="round" stroke-linejoin="round" stroke-width="1.0658"/>
   <g transform="translate(-.13452)" font-size="12.8px" letter-spacing="0px" word-spacing="0px">
    <text x="-55.273815" y="-129.65053" style="line-height:0%" xml:space="preserve"><tspan x="-55.273815" y="-129.65053" fill="#ffffff" font-family="'Arial Nova', 'Arial Unicode MS', 'Yu Gothic UI', sans-serif" font-size="20px" stroke="#ffffff" stroke-width="1.0667" style="line-height:1.25">1</tspan></text>
    <text x="-45.652157" y="-129.65053" style="line-height:0%" xml:space="preserve"><tspan x="-45.652157" y="-129.65053" fill="#ffffff" font-family="'Arial Nova', 'Arial Unicode MS', 'Yu Gothic UI', sans-serif" font-size="20px" stroke="#ffffff" stroke-width="1.0667" style="line-height:1.25">7</tspan></text>
   </g>
  </g>
  <g transform="translate(527.12,413.93)">
   <ellipse cx="-45.487" cy="-137.32" rx="13.199" ry="13.469" fill="#1f638a" stroke-linecap="round" stroke-linejoin="round" stroke-width="1.0658"/>
   <g transform="translate(-.13452)" font-size="12.8px" letter-spacing="0px" word-spacing="0px">
    <text x="-55.273815" y="-129.65053" style="line-height:0%" xml:space="preserve"><tspan x="-55.273815" y="-129.65053" fill="#ffffff" font-family="'Arial Nova', 'Arial Unicode MS', 'Yu Gothic UI', sans-serif" font-size="20px" stroke="#ffffff" stroke-width="1.0667" style="line-height:1.25">1</tspan></text>
    <text x="-45.652157" y="-129.65053" style="line-height:0%" xml:space="preserve"><tspan x="-45.652157" y="-129.65053" fill="#ffffff" font-family="'Arial Nova', 'Arial Unicode MS', 'Yu Gothic UI', sans-serif" font-size="20px" stroke="#ffffff" stroke-width="1.0667" style="line-height:1.25">7</tspan></text>
   </g>
  </g>
  <g transform="translate(573.45,179.56)">
   <ellipse cx="-45.487" cy="-137.32" rx="13.199" ry="13.469" fill="#1f638a" stroke-linecap="round" stroke-linejoin="round" stroke-width="1.0658"/>
   <g transform="translate(-.13452)" font-size="12.8px" letter-spacing="0px" word-spacing="0px">
    <text x="-57.16074" y="-129.65053" style="line-height:0%" xml:space="preserve"><tspan x="-57.16074" y="-129.65053" fill="#ffffff" font-family="'Arial Nova', 'Arial Unicode MS', 'Yu Gothic UI', sans-serif" font-size="20px" stroke="#ffffff" stroke-width="1.0667" style="line-height:1.25">1</tspan></text>
    <text x="-47.350388" y="-129.46184" style="line-height:0%" xml:space="preserve"><tspan x="-47.350388" y="-129.46184" fill="#ffffff" font-family="'Arial Nova', 'Arial Unicode MS', 'Yu Gothic UI', sans-serif" font-size="20px" stroke="#ffffff" stroke-width="1.0667" style="line-height:1.25">7</tspan></text>
   </g>
  </g>
  <g transform="translate(630.43,224.85)">
   <ellipse cx="-45.487" cy="-137.32" rx="13.199" ry="13.469" fill="#1f638a" stroke-linecap="round" stroke-linejoin="round" stroke-width="1.0658"/>
   <g transform="translate(-.13452)" font-size="12.8px" letter-spacing="0px" word-spacing="0px">
    <text x="-57.16074" y="-129.65053" style="line-height:0%" xml:space="preserve"><tspan x="-57.16074" y="-129.65053" fill="#ffffff" font-family="'Arial Nova', 'Arial Unicode MS', 'Yu Gothic UI', sans-serif" font-size="20px" stroke="#ffffff" stroke-width="1.0667" style="line-height:1.25">1</tspan></text>
    <text x="-47.350388" y="-129.46184" style="line-height:0%" xml:space="preserve"><tspan x="-47.350388" y="-129.46184" fill="#ffffff" font-family="'Arial Nova', 'Arial Unicode MS', 'Yu Gothic UI', sans-serif" font-size="20px" stroke="#ffffff" stroke-width="1.0667" style="line-height:1.25">8</tspan></text>
   </g>
  </g>
  <g transform="translate(324.37,94.65)">
   <ellipse cx="-45.487" cy="-137.32" rx="13.199" ry="13.469" fill="#1f638a" stroke-linecap="round" stroke-linejoin="round" stroke-width="1.0658"/>
   <g transform="translate(-.13452)" font-size="12.8px" letter-spacing="0px" word-spacing="0px">
    <text x="-56.207794" y="-129.91737" style="line-height:0%" xml:space="preserve"><tspan x="-56.207794" y="-129.91737" fill="#ffffff" font-family="'Arial Nova', 'Arial Unicode MS', 'Yu Gothic UI', sans-serif" font-size="20px" stroke="#ffffff" stroke-width="1.0667" style="line-height:1.25">2</tspan></text>
    <text x="-44.937046" y="-129.47803" style="line-height:0%" xml:space="preserve"><tspan x="-44.937046" y="-129.47803" fill="#ffffff" font-family="'Arial Nova', 'Arial Unicode MS', 'Yu Gothic UI', sans-serif" font-size="20px" stroke="#ffffff" stroke-width="1.0667" style="line-height:1.25">3</tspan></text>
   </g>
  </g>
  <g transform="translate(332.62,208.21)">
   <ellipse cx="-45.487" cy="-137.32" rx="13.199" ry="13.469" fill="#1f638a" stroke-linecap="round" stroke-linejoin="round" stroke-width="1.0658"/>
   <g transform="translate(-.13452)" font-size="12.8px" letter-spacing="0px" word-spacing="0px">
    <text x="-56.207794" y="-129.91737" style="line-height:0%" xml:space="preserve"><tspan x="-56.207794" y="-129.91737" fill="#ffffff" font-family="'Arial Nova', 'Arial Unicode MS', 'Yu Gothic UI', sans-serif" font-size="20px" stroke="#ffffff" stroke-width="1.0667" style="line-height:1.25">2</tspan></text>
    <text x="-45.031391" y="-129.94975" style="line-height:0%" xml:space="preserve"><tspan x="-45.031391" y="-129.94975" fill="#ffffff" font-family="'Arial Nova', 'Arial Unicode MS', 'Yu Gothic UI', sans-serif" font-size="20px" stroke="#ffffff" stroke-width="1.0667" style="line-height:1.25">2</tspan></text>
   </g>
  </g>
  <g transform="translate(366.78,214.6)">
   <ellipse cx="-45.487" cy="-137.32" rx="13.199" ry="13.469" fill="#1f638a" stroke-linecap="round" stroke-linejoin="round" stroke-width="1.0658"/>
   <g transform="translate(-.13452)" font-size="12.8px" letter-spacing="0px" word-spacing="0px">
    <text x="-55.273815" y="-129.65053" style="line-height:0%" xml:space="preserve"><tspan x="-55.273815" y="-129.65053" fill="#ffffff" font-family="'Arial Nova', 'Arial Unicode MS', 'Yu Gothic UI', sans-serif" font-size="20px" stroke="#ffffff" stroke-width="1.0667" style="line-height:1.25">1</tspan></text>
    <text x="-47.652157" y="-129.65053" style="line-height:0%" xml:space="preserve"><tspan x="-47.652157" y="-129.65053" fill="#ffffff" font-family="'Arial Nova', 'Arial Unicode MS', 'Yu Gothic UI', sans-serif" font-size="20px" stroke="#ffffff" stroke-width="1.0667" style="line-height:1.25">1</tspan></text>
   </g>
  </g>
  <g transform="translate(336.8,96.262)">
   <ellipse cx="21.351" cy="-135.7" rx="13.199" ry="13.469" fill="#1f638a" stroke-linecap="round" stroke-linejoin="round" stroke-width="1.0658"/>
   <g transform="translate(-.46415)" font-size="12.8px" letter-spacing="0px" word-spacing="0px">
    <text x="10.40366" y="-128.02597" style="line-height:0%" xml:space="preserve"><tspan x="10.40366" y="-128.02597" fill="#ffffff" font-family="'Arial Nova', 'Arial Unicode MS', 'Yu Gothic UI', sans-serif" font-size="20px" stroke="#ffffff" stroke-width="1.0667" style="line-height:1.25">1</tspan></text>
    <text x="19.417776" y="-128.02597" style="line-height:0%" xml:space="preserve"><tspan x="19.417776" y="-128.02597" fill="#ffffff" font-family="'Arial Nova', 'Arial Unicode MS', 'Yu Gothic UI', sans-serif" font-size="20px" stroke="#ffffff" stroke-width="1.0667" style="line-height:1.25">3</tspan></text>
   </g>
  </g>
  <g transform="translate(483.9,109.52)">
   <ellipse cx="-75.193" cy="-138.95" rx="13.199" ry="13.469" fill="#1f638a" stroke-linecap="round" stroke-linejoin="round" stroke-width="1.0658"/>
   <g transform="translate(-1.2434)" font-size="12.8px" letter-spacing="0px" word-spacing="0px">
    <text x="-85.114067" y="-131.27504" style="line-height:0%" xml:space="preserve"><tspan x="-85.114067" y="-131.27504" fill="#ffffff" font-family="'Arial Nova', 'Arial Unicode MS', 'Yu Gothic UI', sans-serif" font-size="20px" stroke="#ffffff" stroke-width="1.0667" style="line-height:1.25">1</tspan></text>
    <text x="-76.055321" y="-131.27504" style="line-height:0%" xml:space="preserve"><tspan x="-76.055321" y="-131.27504" fill="#ffffff" font-family="'Arial Nova', 'Arial Unicode MS', 'Yu Gothic UI', sans-serif" font-size="20px" stroke="#ffffff" stroke-width="1.0667" style="line-height:1.25">0</tspan></text>
   </g>
  </g>
  <g transform="translate(304.08,121.07)">
   <ellipse cx="142.29" cy="-98.798" rx="13.199" ry="13.469" fill="#1f638a" stroke-linecap="round" stroke-linejoin="round" stroke-width="1.0658"/>
   <text x="136.44678" y="-91.26651" fill="#000000" font-size="12.8px" letter-spacing="0px" word-spacing="0px" style="line-height:0%" xml:space="preserve"><tspan x="136.44678" y="-91.26651" fill="#ffffff" font-family="'Arial Nova', 'Arial Unicode MS', 'Yu Gothic UI', sans-serif" font-size="20px" stroke="#ffffff" stroke-width="1.0667" style="line-height:1.25">7</tspan></text>
  </g>
  <g transform="translate(226.74,177.3)">
   <ellipse cx="204.69" cy="-98.798" rx="13.199" ry="13.469" fill="#1f638a" stroke-linecap="round" stroke-linejoin="round" stroke-width="1.0658"/>
   <text x="198.84944" y="-91.256096" fill="#000000" font-size="12.8px" letter-spacing="0px" word-spacing="0px" style="line-height:0%" xml:space="preserve"><tspan x="198.84944" y="-91.256096" fill="#ffffff" font-family="'Arial Nova', 'Arial Unicode MS', 'Yu Gothic UI', sans-serif" font-size="20px" stroke="#ffffff" stroke-width="1.0667" style="line-height:1.25">9</tspan></text>
  </g>
 </g>
</svg>
