<?xml version="1.0" encoding="UTF-8"?>
<svg width="48" height="48" version="1.1" viewBox="0 0 12.7 12.7" xml:space="preserve" xmlns="http://www.w3.org/2000/svg" xmlns:xlink="http://www.w3.org/1999/xlink"><g fill="none"><g transform="matrix(1.612 0 0 1.612 -66.725 117.96)"><g stroke-linejoin="round"><path d="m44.614-71.361h3.0547l-1.5875 1.7178h-3.0547z" stroke="#000000" stroke-linecap="round" stroke-width=".2"/><path d="m46.138-69.617 1.5285-1.7239v2.4922l-1.5285 1.7239z" stroke="#000000" stroke-linecap="round" stroke-width=".2"/><path d="m45.427-70.522h1.481l-0.7254 0.86644-1.5512-0.0171z" stroke="#000100" stroke-linecap="square" stroke-width=".1"/><path d="m44.603-69.563 1.4813-0.0234 0.0023 1.2057-1.4746-2e-3z" stroke="#000100" stroke-linecap="round" stroke-width=".1"/></g><g stroke="#000000" stroke-linecap="round" stroke-linejoin="round"><path d="m43.016-69.64v2.5337h3.1134c0.01804-0.018 0.01892-2.5266 0.01757-2.5316 0 0-3.1233-0.01-3.131-2e-3z" stroke-width=".2"/><path d="m46.24-69.75 0.68654-0.80111 0.0093 1.2819-0.72499 0.87274" stroke-width=".1"/><path d="m47.005-70.627-0.8599 1.0211" stroke-width=".22"/></g><path d="m44.659-68.412 0.81833-0.87526 0.52777-2e-3m0.28009-1e-3 0.60647-4e-3" stroke="#000100" stroke-linecap="square" stroke-width=".1"/><rect x="43.118" y="-69.547" width="1.448" height="2.3373"/></g><rect x=".58861" y=".64839" width="11.554" height="11.421" stroke="#000000" stroke-linecap="square" stroke-width=".001"/></g></svg>
