<?xml version="1.0" encoding="UTF-8"?>
<svg version="1.1" viewBox="0 0 680.31 283.46" xmlns="http://www.w3.org/2000/svg">
 <defs>
  <linearGradient id="e" x1="-529.99" x2="1540.1" y1="187.11" y2="198.41" gradientTransform="matrix(.80002 0 0 -.80002 87.117 172.68)" gradientUnits="userSpaceOnUse">
   <stop stop-color="#ffffff" offset="0"/>
   <stop stop-color="#00385e" offset="1"/>
  </linearGradient>
  <linearGradient id="d" x1="-263.85" x2="1218" y1="51.691" y2="56.122" gradientTransform="matrix(.80412 0 0 -.80002 87.211 172.68)" gradientUnits="userSpaceOnUse">
   <stop stop-color="#ffffff" offset="0"/>
   <stop stop-color="#00385e" offset="1"/>
  </linearGradient>
  <linearGradient id="c" x1="-449.78" x2="1263.3" y1="199.8" y2="206.35" gradientTransform="matrix(.72835 0 0 -.80002 351.26 180.74)" gradientUnits="userSpaceOnUse">
   <stop stop-color="#ffffff" offset="0"/>
   <stop stop-color="#00385e" offset="1"/>
  </linearGradient>
  <linearGradient id="b" x1="-394.26" x2="1129.3" y1="60.5" y2="59.528" gradientTransform="matrix(.7293 0 0 -.80002 351.41 180.74)" gradientUnits="userSpaceOnUse">
   <stop stop-color="#ffffff" offset="0"/>
   <stop stop-color="#00385e" offset="1"/>
  </linearGradient>
  <linearGradient id="a" x1="-303.8" x2="1104.1" y1="138.79" y2="144.31" gradientTransform="matrix(.72861 0 0 -.80002 351.5 180.74)" gradientUnits="userSpaceOnUse">
   <stop stop-color="#ffffff" offset="0"/>
   <stop stop-color="#00385e" offset="1"/>
  </linearGradient>
 </defs>
 <g transform="matrix(1.3333 0 0 1.3333 0 1.042e-5)">
  <g>
   <g>
    <g transform="scale(.85436 1)">
     <path d="m87.219 172.68h229.84v25.535h-229.84z" fill="url(#e)" fill-rule="evenodd" stroke="#4d4d4d" stroke-width=".24228"/>
    </g>
   </g>
   <g>
    <g transform="scale(.85872 1)">
     <path d="m87.435 66.75h228.85v52.398h-228.85z" fill="url(#d)" fill-rule="evenodd" stroke="#4d4d4d" stroke-width=".24166"/>
    </g>
   </g>
   <g>
    <path d="m127.29 52.559c0 6.925-5.613 12.535-12.535 12.535s-12.535-5.61-12.535-12.535c0-6.922 5.613-12.536 12.535-12.536s12.535 5.614 12.535 12.536z" fill="none" stroke="#4d4d4d" stroke-width=".20126"/>
   </g>
   <g>
    <path d="m222.78 52.559c0 6.925-5.609 12.535-12.535 12.535-6.922 0-12.535-5.61-12.535-12.535 0-6.922 5.613-12.536 12.535-12.536 6.926 0 12.535 5.614 12.535 12.536z" fill="none" stroke="#4d4d4d" stroke-width=".2"/>
   </g>
   <g>
    <path d="m190.93 52.559c0 6.925-5.614 12.535-12.535 12.535-6.922 0-12.536-5.61-12.536-12.535 0-6.922 5.614-12.536 12.536-12.536 6.921 0 12.535 5.614 12.535 12.536z" fill="none" stroke="#4d4d4d" stroke-width=".2"/>
   </g>
   <g>
    <path d="m159.14 52.559c0 6.925-5.614 12.535-12.536 12.535-6.921 0-12.535-5.61-12.535-12.535 0-6.922 5.614-12.536 12.535-12.536 6.922 0 12.536 5.614 12.536 12.536z" fill="none" stroke="#4d4d4d" stroke-width=".2"/>
   </g>
   <g>
    <path d="m253.79 52.559c0 6.925-5.613 12.535-12.535 12.535-6.926 0-12.535-5.61-12.535-12.535 0-6.922 5.609-12.536 12.535-12.536 6.922 0 12.535 5.614 12.535 12.536z" fill="none" stroke="#4d4d4d" stroke-width=".2"/>
   </g>
   <g>
    <path d="m143.34 133c0 6.926-5.614 12.535-12.535 12.535-6.926 0-12.536-5.609-12.536-12.535 0-6.922 5.61-12.535 12.536-12.535 6.921 0 12.535 5.613 12.535 12.535z" fill="none" stroke="#800080" stroke-width=".5074"/>
   </g>
   <g>
    <path d="m238.82 79.598c0 6.922-5.613 12.535-12.535 12.535s-12.535-5.613-12.535-12.535 5.613-12.535 12.535-12.535 12.535 5.613 12.535 12.535z" fill="none" stroke="#4d4d4d" stroke-width=".2"/>
   </g>
   <g>
    <path d="m206.98 79.598c0 6.922-5.613 12.535-12.535 12.535s-12.535-5.613-12.535-12.535 5.613-12.535 12.535-12.535 12.535 5.613 12.535 12.535z" fill="none" stroke="#800080" stroke-width=".5074"/>
   </g>
   <g>
    <path d="m175.2 79.598c0 6.922-5.613 12.535-12.535 12.535s-12.535-5.613-12.535-12.535 5.613-12.535 12.535-12.535 12.535 5.613 12.535 12.535z" fill="none" stroke="#800080" stroke-width=".5074"/>
   </g>
   <g>
    <path d="m269.84 79.598c0 6.922-5.609 12.535-12.535 12.535-6.922 0-12.531-5.613-12.531-12.535s5.609-12.535 12.531-12.535c6.926 0 12.535 5.613 12.535 12.535z" fill="none" stroke="#4d4d4d" stroke-width=".2"/>
   </g>
   <g>
    <path d="m126.43 106.43c0 6.922-5.614 12.535-12.535 12.535-6.922 0-12.536-5.613-12.536-12.535s5.614-12.535 12.536-12.535c6.921 0 12.535 5.613 12.535 12.535z" fill="none" stroke="#800080" stroke-width=".5074"/>
   </g>
   <g>
    <path d="m221.92 106.43c0 6.922-5.609 12.535-12.531 12.535-6.926 0-12.535-5.613-12.535-12.535s5.609-12.535 12.535-12.535c6.922 0 12.531 5.613 12.531 12.535z" fill="none" stroke="#800080" stroke-width=".5074"/>
   </g>
   <g>
    <path d="m190.07 106.43c0 6.922-5.609 12.535-12.535 12.535-6.922 0-12.535-5.613-12.535-12.535s5.613-12.535 12.535-12.535c6.926 0 12.535 5.613 12.535 12.535z" fill="none" stroke="#800080" stroke-width=".5074"/>
   </g>
   <g>
    <path d="m158.28 106.43c0 6.922-5.609 12.535-12.535 12.535-6.922 0-12.535-5.613-12.535-12.535s5.613-12.535 12.535-12.535c6.926 0 12.535 5.613 12.535 12.535z" fill="none" stroke="#800080" stroke-width=".5074"/>
   </g>
   <g>
    <path d="m252.93 106.43c0 6.922-5.613 12.535-12.535 12.535s-12.536-5.613-12.536-12.535 5.614-12.535 12.536-12.535 12.535 5.613 12.535 12.535z" fill="none" stroke="#4d4d4d" stroke-width=".2"/>
   </g>
   <g>
    <path d="m238.82 133c0 6.926-5.613 12.535-12.535 12.535s-12.535-5.609-12.535-12.535c0-6.922 5.613-12.535 12.535-12.535s12.535 5.613 12.535 12.535z" fill="none" stroke="#4d4d4d" stroke-width=".2"/>
   </g>
   <g>
    <path d="m206.98 133c0 6.926-5.613 12.535-12.535 12.535s-12.535-5.609-12.535-12.535c0-6.922 5.613-12.535 12.535-12.535s12.535 5.613 12.535 12.535z" fill="none" stroke="#800080" stroke-width=".5074"/>
   </g>
   <g>
    <path d="m175.2 133c0 6.926-5.613 12.535-12.535 12.535s-12.535-5.609-12.535-12.535c0-6.922 5.613-12.535 12.535-12.535s12.535 5.613 12.535 12.535z" fill="none" stroke="#800080" stroke-width=".5074"/>
   </g>
   <g>
    <path d="m269.84 133c0 6.926-5.609 12.535-12.535 12.535-6.922 0-12.531-5.609-12.531-12.535 0-6.922 5.609-12.535 12.531-12.535 6.926 0 12.535 5.613 12.535 12.535z" fill="none" stroke="#4d4d4d" stroke-width=".2"/>
   </g>
   <g>
    <path d="m126.43 159.86c0 6.922-5.614 12.536-12.535 12.536-6.922 0-12.536-5.614-12.536-12.536 0-6.921 5.614-12.535 12.536-12.535 6.921 0 12.535 5.614 12.535 12.535z" fill="none" stroke="#800080" stroke-width=".5074"/>
   </g>
   <g>
    <path d="m221.92 159.86c0 6.922-5.609 12.536-12.531 12.536-6.926 0-12.535-5.614-12.535-12.536 0-6.921 5.609-12.535 12.535-12.535 6.922 0 12.531 5.614 12.531 12.535z" fill="none" stroke="#800080" stroke-width=".5074"/>
   </g>
   <g>
    <path d="m190.07 159.86c0 6.922-5.609 12.536-12.535 12.536-6.922 0-12.535-5.614-12.535-12.536 0-6.921 5.613-12.535 12.535-12.535 6.926 0 12.535 5.614 12.535 12.535z" fill="none" stroke="#800080" stroke-width=".5074"/>
   </g>
   <g>
    <path d="m158.28 159.86c0 6.922-5.609 12.536-12.535 12.536-6.922 0-12.535-5.614-12.535-12.536 0-6.921 5.613-12.535 12.535-12.535 6.926 0 12.535 5.614 12.535 12.535z" fill="none" stroke="#800080" stroke-width=".5074"/>
   </g>
   <g>
    <path d="m252.93 159.86c0 6.922-5.613 12.536-12.535 12.536s-12.536-5.614-12.536-12.536c0-6.921 5.614-12.535 12.536-12.535s12.535 5.614 12.535 12.535z" fill="none" stroke="#4d4d4d" stroke-width=".2"/>
   </g>
   <g>
    <path d="m143.34 79.598c0 6.922-5.614 12.535-12.535 12.535-6.926 0-12.536-5.613-12.536-12.535s5.61-12.535 12.536-12.535c6.921 0 12.535 5.613 12.535 12.535z" fill="none" stroke="#800080" stroke-width=".5074"/>
   </g>
   <g>
    <path d="m209.36 106.17-14.882-25.469-16.887 24.664-14.883-24.933-17.019 24.933-14.879-24.933-16.887 26.004 0.266 52.004 16.355-24.657 15.277 24.793 16.887-24.793 15.02 25.067 16.617-25.067 15.015 25.731" fill="none" stroke="#e2001a" stroke-linecap="round" stroke-linejoin="round" stroke-miterlimit="10" stroke-width="1.0744"/>
   </g>
   <g>
    <path d="m15.207 184.98h25.297" fill="none" stroke="#e2001a" stroke-linecap="round" stroke-linejoin="round" stroke-miterlimit="10" stroke-width="1.0743"/>
   </g>
   <text transform="translate(36.152 198.66)" fill="#e2001a" font-family="'Arial Nova', 'Arial Unicode MS', 'Yu Gothic UI', sans-serif" font-size="11.63px" xml:space="preserve"><tspan x="0" y="0">X</tspan></text>
   <g>
    <path d="m15.094 184.92-0.055-20.695" fill="none" stroke="#7ab51d" stroke-linecap="round" stroke-linejoin="round" stroke-width="1.0743"/>
   </g>
   <g>
    <path d="m18.82 169.78-3.55-13.004-3.442 12.953z" fill="#7ab51d" fill-rule="evenodd" stroke="#7ab51d" stroke-linecap="round" stroke-linejoin="round" stroke-width=".79937"/>
   </g>
   <g>
    <path d="m30.117 188.74 12.953-3.73-13-3.266z" fill="#e2001a" fill-rule="evenodd" stroke="#e2001a" stroke-linecap="round" stroke-linejoin="round" stroke-width=".79937"/>
   </g>
   <text transform="translate(3.0758 165.15)" fill="#7ab51d" font-family="'Arial Nova', 'Arial Unicode MS', 'Yu Gothic UI', sans-serif" font-size="11.63px" xml:space="preserve"><tspan x="0" y="0">X</tspan></text>
   <g>
    <path d="m75.219 52.156 0.16 84.203" fill="#000000" stroke="#000000" stroke-linecap="round" stroke-linejoin="round" stroke-width=".5074"/>
   </g>
   <g>
    <path d="m75.422 66.609-3.145-9.429h6.571z" fill="#000000" stroke="#000000" stroke-linecap="round" stroke-linejoin="round" stroke-width=".79935"/>
   </g>
   <g>
    <path d="m75.227 119.8-3.145 9.43h6.57z" fill="#000000" stroke="#000000" stroke-linecap="round" stroke-linejoin="round" stroke-width=".79935"/>
   </g>
   <g>
    <g transform="scale(.77781 1)">
     <path d="m390.56 172.24h229.84v25.59h-229.84z" fill="url(#c)" fill-rule="evenodd" stroke="#4d4d4d" stroke-width=".22678"/>
    </g>
   </g>
   <g>
    <g transform="scale(.77882 1)">
     <path d="m390.78 66.215h228.85v25.59h-228.85z" fill="url(#b)" fill-rule="evenodd" stroke="#4d4d4d" stroke-width=".22663"/>
    </g>
   </g>
   <g>
    <g transform="scale(.77809 1)">
     <path d="m391.61 119.91h228.85v25.113h-228.85z" fill="url(#a)" fill-rule="evenodd" stroke="#4d4d4d" stroke-width=".22674"/>
    </g>
   </g>
   <g>
    <path d="m356.56 52.02c0 6.921-5.61 12.535-12.536 12.535-6.921 0-12.531-5.614-12.531-12.535 0-6.922 5.61-12.536 12.531-12.536 6.926 0 12.536 5.614 12.536 12.536z" fill="none" stroke="#4d4d4d" stroke-width=".2"/>
   </g>
   <g>
    <path d="m452.05 52.02c0 6.921-5.613 12.535-12.535 12.535s-12.536-5.614-12.536-12.535c0-6.922 5.614-12.536 12.536-12.536s12.535 5.614 12.535 12.536z" fill="none" stroke="#4d4d4d" stroke-width=".20126"/>
   </g>
   <g>
    <path d="m420.2 52.02c0 6.921-5.609 12.535-12.531 12.535-6.926 0-12.535-5.614-12.535-12.535 0-6.922 5.609-12.536 12.535-12.536 6.922 0 12.531 5.614 12.531 12.536z" fill="none" stroke="#4d4d4d" stroke-width=".2"/>
   </g>
   <g>
    <path d="m388.41 52.02c0 6.921-5.613 12.535-12.535 12.535-6.926 0-12.535-5.614-12.535-12.535 0-6.922 5.609-12.536 12.535-12.536 6.922 0 12.535 5.614 12.535 12.536z" fill="none" stroke="#4d4d4d" stroke-width=".2"/>
   </g>
   <g>
    <path d="m483.06 52.02c0 6.921-5.614 12.535-12.535 12.535-6.922 0-12.536-5.614-12.536-12.535 0-6.922 5.614-12.536 12.536-12.536 6.921 0 12.535 5.614 12.535 12.536z" fill="none" stroke="#4d4d4d" stroke-width=".2"/>
   </g>
   <g>
    <path d="m372.61 132.48c0 6.922-5.613 12.536-12.535 12.536s-12.535-5.614-12.535-12.536c0-6.921 5.613-12.535 12.535-12.535s12.535 5.614 12.535 12.535z" fill="none" stroke="#800080" stroke-width=".5074"/>
   </g>
   <g>
    <path d="m468.09 79.066c0 6.922-5.614 12.536-12.535 12.536-6.926 0-12.536-5.614-12.536-12.536 0-6.925 5.61-12.535 12.536-12.535 6.921 0 12.535 5.61 12.535 12.535z" fill="none" stroke="#4d4d4d" stroke-width=".2"/>
   </g>
   <g>
    <path d="m436.24 79.066c0 6.922-5.609 12.536-12.535 12.536-6.922 0-12.531-5.614-12.531-12.536 0-6.925 5.609-12.535 12.531-12.535 6.926 0 12.535 5.61 12.535 12.535z" fill="none" stroke="#800080" stroke-width=".5074"/>
   </g>
   <g>
    <path d="m404.45 79.066c0 6.922-5.609 12.536-12.531 12.536-6.926 0-12.535-5.614-12.535-12.536 0-6.925 5.609-12.535 12.535-12.535 6.922 0 12.531 5.61 12.531 12.535z" fill="none" stroke="#800080" stroke-width=".5074"/>
   </g>
   <g>
    <path d="m355.7 105.89c0 6.922-5.609 12.531-12.531 12.531-6.926 0-12.535-5.609-12.535-12.531 0-6.926 5.609-12.535 12.535-12.535 6.922 0 12.531 5.609 12.531 12.535z" fill="none" stroke="#800080" stroke-width=".5074"/>
   </g>
   <g>
    <path d="m451.18 105.89c0 6.922-5.614 12.531-12.535 12.531-6.922 0-12.536-5.609-12.536-12.531 0-6.926 5.614-12.535 12.536-12.535 6.921 0 12.535 5.609 12.535 12.535z" fill="none" stroke="#800080" stroke-width=".5074"/>
   </g>
   <g>
    <path d="m419.34 105.89c0 6.922-5.613 12.531-12.535 12.531s-12.535-5.609-12.535-12.531c0-6.926 5.613-12.535 12.535-12.535s12.535 5.609 12.535 12.535z" fill="none" stroke="#800080" stroke-width=".5074"/>
   </g>
   <g>
    <path d="m387.55 105.89c0 6.922-5.613 12.531-12.535 12.531s-12.536-5.609-12.536-12.531c0-6.926 5.614-12.535 12.536-12.535s12.535 5.609 12.535 12.535z" fill="none" stroke="#800080" stroke-width=".5074"/>
   </g>
   <g>
    <path d="m482.18 105.89c0 6.922-5.61 12.531-12.536 12.531-6.921 0-12.531-5.609-12.531-12.531 0-6.926 5.61-12.535 12.531-12.535 6.926 0 12.536 5.609 12.536 12.535z" fill="none" stroke="#4d4d4d" stroke-width=".2"/>
   </g>
   <g>
    <path d="m468.09 132.48c0 6.922-5.614 12.536-12.535 12.536-6.926 0-12.536-5.614-12.536-12.536 0-6.921 5.61-12.535 12.536-12.535 6.921 0 12.535 5.614 12.535 12.535z" fill="none" stroke="#4d4d4d" stroke-width=".2"/>
   </g>
   <g>
    <path d="m436.24 132.48c0 6.922-5.609 12.536-12.535 12.536-6.922 0-12.531-5.614-12.531-12.536 0-6.921 5.609-12.535 12.531-12.535 6.926 0 12.535 5.614 12.535 12.535z" fill="none" stroke="#800080" stroke-width=".5074"/>
   </g>
   <g>
    <path d="m404.45 132.48c0 6.922-5.609 12.536-12.531 12.536-6.926 0-12.535-5.614-12.535-12.536 0-6.921 5.609-12.535 12.535-12.535 6.922 0 12.531 5.614 12.531 12.535z" fill="none" stroke="#800080" stroke-width=".5074"/>
   </g>
   <g>
    <path d="m355.7 159.33c0 6.926-5.609 12.535-12.531 12.535-6.926 0-12.535-5.609-12.535-12.535 0-6.922 5.609-12.531 12.535-12.531 6.922 0 12.531 5.609 12.531 12.531z" fill="none" stroke="#800080" stroke-width=".5074"/>
   </g>
   <g>
    <path d="m451.18 159.33c0 6.926-5.614 12.535-12.535 12.535-6.922 0-12.536-5.609-12.536-12.535 0-6.922 5.614-12.531 12.536-12.531 6.921 0 12.535 5.609 12.535 12.531z" fill="none" stroke="#800080" stroke-width=".2"/>
   </g>
   <g>
    <path d="m419.34 159.33c0 6.926-5.613 12.535-12.535 12.535s-12.535-5.609-12.535-12.535c0-6.922 5.613-12.531 12.535-12.531s12.535 5.609 12.535 12.531z" fill="none" stroke="#800080" stroke-width=".5074"/>
   </g>
   <g>
    <path d="m387.55 159.33c0 6.926-5.613 12.535-12.535 12.535s-12.536-5.609-12.536-12.535c0-6.922 5.614-12.531 12.536-12.531s12.535 5.609 12.535 12.531z" fill="none" stroke="#800080" stroke-width=".5074"/>
   </g>
   <g>
    <path d="m482.18 159.33c0 6.926-5.61 12.535-12.536 12.535-6.921 0-12.531-5.609-12.531-12.535 0-6.922 5.61-12.531 12.531-12.531 6.926 0 12.536 5.609 12.536 12.531z" fill="none" stroke="#4d4d4d" stroke-width=".2"/>
   </g>
   <g>
    <path d="m372.61 79.066c0 6.922-5.613 12.536-12.535 12.536s-12.535-5.614-12.535-12.536c0-6.925 5.613-12.535 12.535-12.535s12.535 5.61 12.535 12.535z" fill="none" stroke="#800080" stroke-width=".5074"/>
   </g>
   <g>
    <path d="m379.33 79.141h25.266" fill="none" stroke="#b51621" stroke-width=".2"/>
   </g>
   <g>
    <path d="m362.44 105.88h25.274" fill="none" stroke="#b51621" stroke-width=".2"/>
   </g>
   <g>
    <path d="m394.3 105.88h25.277" fill="none" stroke="#b51621" stroke-width=".2"/>
   </g>
   <g>
    <path d="m379.33 132.56h25.266" fill="none" stroke="#b51621" stroke-width=".2"/>
   </g>
   <g>
    <path d="m362.44 159.33h25.274" fill="none" stroke="#b51621" stroke-width=".2"/>
   </g>
   <g>
    <path d="m394.3 159.33h25.277" fill="none" stroke="#b51621" stroke-width=".2"/>
   </g>
   <g>
    <path d="m423.72 78.512h-63.563l-16.48 26.961 94.461-0.035-14.531 27.035h-63.715l-17.137 27.023h95.813" fill="none" stroke="#e2001a" stroke-linecap="round" stroke-linejoin="round" stroke-miterlimit="10" stroke-width="1.0744"/>
   </g>
   <g>
    <path d="m304.26 50.355 0.156 57.915" fill="#000000" stroke="#000000" stroke-linecap="round" stroke-linejoin="round" stroke-width=".5074"/>
   </g>
   <g>
    <path d="m304.31 65.398-3.145-9.425h6.574z" fill="#000000" stroke="#000000" stroke-linecap="round" stroke-linejoin="round" stroke-width=".79935"/>
   </g>
   <g>
    <path d="m304.41 92.273-3.144 9.43h6.574z" fill="#000000" stroke="#000000" stroke-linecap="round" stroke-linejoin="round" stroke-width=".79935"/>
   </g>
   <path d="m190.3 14.32c0 5.578-4.434 10.102-9.899 10.102-5.468 0-9.902-4.524-9.902-10.102 0-5.582 4.434-10.101 9.902-10.101 5.465 0 9.899 4.519 9.899 10.101z" fill="#1f638a"/>
   <text transform="translate(176.02 20.073)" fill="#ffffff" font-family="'Arial Nova', 'Arial Unicode MS', 'Yu Gothic UI', sans-serif" font-size="16px" xml:space="preserve"><tspan x="0" y="0">1</tspan></text>
   <g>
    <path d="m182.02 20.074h-1.406v-8.969c-0.699 0.668-1.637 1.235-2.812 1.704v-1.36c1.613-0.781 2.718-1.742 3.312-2.89h0.906z" fill="none" stroke="#ffffff" stroke-width=".80002"/>
   </g>
   <path d="m403.5 15.391c0 5.578-4.43 10.101-9.898 10.101-5.469 0-9.899-4.523-9.899-10.101s4.43-10.102 9.899-10.102c5.468 0 9.898 4.524 9.898 10.102z" fill="#1f638a"/>
   <text transform="translate(389.22 21.146)" fill="#ffffff" font-family="'Arial Nova', 'Arial Unicode MS', 'Yu Gothic UI', sans-serif" font-size="16px" xml:space="preserve"><tspan x="0" y="0">2</tspan></text>
   <g>
    <path d="m397.3 21.145h-7.578c0-0.645 0.222-1.297 0.672-1.954 0.445-0.664 1.289-1.5 2.531-2.5 0.75-0.601 1.422-1.234 2.016-1.89 0.593-0.664 0.89-1.336 0.89-2.016 0-0.57-0.203-1.047-0.609-1.422-0.406-0.383-0.922-0.578-1.547-0.578-0.637 0-1.168 0.199-1.594 0.594-0.43 0.387-0.64 0.965-0.64 1.734l-1.454-0.172c0.094-1.07 0.473-1.89 1.141-2.453 0.676-0.57 1.535-0.859 2.578-0.859 1.125 0 2 0.312 2.625 0.937s0.938 1.375 0.938 2.25c0 0.743-0.266 1.485-0.797 2.235-0.524 0.75-1.574 1.758-3.156 3.015-0.825 0.668-1.372 1.243-1.641 1.719h5.625z" fill="none" stroke="#ffffff" stroke-width=".80002"/>
   </g>
   <path d="m70.051 91.23c0 5.579-4.434 10.102-9.903 10.102-5.464 0-9.898-4.523-9.898-10.102 0-5.578 4.434-10.101 9.898-10.101 5.469 0 9.903 4.523 9.903 10.101z" fill="#1f638a"/>
   <text transform="translate(54.814 96.958)" fill="#ffffff" font-family="'Arial Nova', 'Arial Unicode MS', 'Yu Gothic UI', sans-serif" font-size="16px" xml:space="preserve"><tspan x="0" y="0">A</tspan></text>
   <g>
    <path d="m65.5 96.957h-1.703l-1.344-3.484h-4.781l-1.266 3.484h-1.609l4.406-11.453h1.625zm-3.516-4.687c-0.937-2.477-1.468-3.883-1.593-4.219-0.118-0.344-0.246-0.797-0.391-1.36h-0.031c-0.149 0.774-0.344 1.485-0.594 2.141l-1.281 3.438z" fill="none" stroke="#ffffff" stroke-width=".80002"/>
   </g>
   <path d="m301.43 78.742c0 5.582-4.434 10.106-9.903 10.106-5.465 0-9.898-4.524-9.898-10.106 0-5.578 4.433-10.101 9.898-10.101 5.469 0 9.903 4.523 9.903 10.101z" fill="#1f638a"/>
   <text transform="translate(286.2 84.471)" fill="#ffffff" font-family="'Arial Nova', 'Arial Unicode MS', 'Yu Gothic UI', sans-serif" font-size="16px" xml:space="preserve"><tspan x="0" y="0">A</tspan></text>
   <g>
    <path d="m296.88 84.473h-1.703l-1.344-3.485h-4.781l-1.266 3.485h-1.609l4.406-11.453h1.625zm-3.516-4.688c-0.937-2.476-1.469-3.883-1.594-4.219-0.117-0.343-0.246-0.796-0.39-1.359h-0.031c-0.149 0.773-0.344 1.484-0.594 2.141l-1.281 3.437z" fill="none" stroke="#ffffff" stroke-width=".80002"/>
   </g>
  </g>
 </g>
</svg>
