<?xml version="1.0" encoding="UTF-8"?>
<svg width="13cm" height="6cm" version="1.1" xmlns="http://www.w3.org/2000/svg" xmlns:cc="http://creativecommons.org/ns#" xmlns:dc="http://purl.org/dc/elements/1.1/" xmlns:rdf="http://www.w3.org/1999/02/22-rdf-syntax-ns#" xmlns:xlink="http://www.w3.org/1999/xlink">
 <title>Abbildung f체r OPEN MIND Softwaredokumentation</title>
 <defs>
  <radialGradient id="radialGradient39693" cx="105.62" cy="89.903" r="76.814" gradientTransform="matrix(1.0591 .12715 -.12715 1.0591 -19.739 898.12)" gradientUnits="userSpaceOnUse">
   <stop stop-color="#28282A" offset="0"/>
   <stop stop-color="#2C2C2D" offset=".2103"/>
   <stop stop-color="#333" offset=".3503"/>
   <stop stop-color="#666" offset=".6701"/>
   <stop stop-color="#868686" offset=".7621"/>
   <stop stop-color="#D6D6D6" offset=".9631"/>
   <stop stop-color="#E6E6E6" offset="1"/>
  </radialGradient>
  <radialGradient id="radialGradient39726" cx="130.64" cy="70.107" r="51.347" gradientTransform="matrix(1.9429 -.022704 .012034 1.0298 -166.21 915.16)" gradientUnits="userSpaceOnUse">
   <stop stop-color="#fd0" offset="0"/>
   <stop stop-color="#fd0" offset=".00076815"/>
   <stop stop-color="#fd0" offset=".00076811"/>
   <stop stop-color="#FFDA00" offset=".1736"/>
   <stop stop-color="#FFD200" offset=".3516"/>
   <stop stop-color="#FDC300" offset=".5342"/>
   <stop stop-color="#F8AF00" offset=".7198"/>
   <stop stop-color="#F29200" offset=".9061"/>
   <stop stop-color="#EE7F00" offset="1"/>
  </radialGradient>
  <radialGradient id="radialGradient39729" cx="577.43" cy="292.42" r="83.095" gradientTransform="matrix(1.0028 .36363 -.36363 1.0028 -419.73 527.06)" gradientUnits="userSpaceOnUse">
   <stop stop-color="#1A1A1A" offset=".0051"/>
   <stop stop-color="#333" offset=".3756"/>
   <stop stop-color="#414141" offset=".4639"/>
   <stop stop-color="#676767" offset=".632"/>
   <stop stop-color="#A4A4A4" offset=".8603"/>
   <stop stop-color="#ccc" offset="1"/>
  </radialGradient>
  <radialGradient id="radialGradient39735" cx="96.294" cy="118.88" r="91.603" gradientTransform="matrix(1.0591 .12715 -.12715 1.0591 -19.739 898.12)" gradientUnits="userSpaceOnUse">
   <stop stop-color="#28282A" offset=".0051"/>
   <stop stop-color="#333" offset=".37802"/>
   <stop stop-color="#414141" offset=".5835"/>
   <stop stop-color="#676767" offset=".6892"/>
   <stop stop-color="#A4A4A4" offset=".8341"/>
   <stop stop-color="#F2F2F2" offset="1"/>
  </radialGradient>
  <radialGradient id="radialGradient39738" cx="98.377" cy="81.587" r="78.499" gradientTransform="matrix(1.0591 .12715 -.12715 1.0591 -17.834 896.4)" gradientUnits="userSpaceOnUse">
   <stop stop-color="#28282A" offset="0"/>
   <stop stop-color="#2E2E2F" offset=".095"/>
   <stop stop-color="#333" offset=".264"/>
   <stop stop-color="#808080" offset=".663"/>
   <stop stop-color="#A0A0A0" offset=".7574"/>
   <stop stop-color="#F0F0F0" offset=".9634"/>
   <stop stop-color="#fff" offset="1"/>
  </radialGradient>
  <radialGradient id="radialGradient39741" cx="351.05" cy="238.15" r="75.906" gradientTransform="matrix(-1.0922 -.02912 .029828 -1.0662 458.43 1289.8)" gradientUnits="userSpaceOnUse">
   <stop stop-color="#ccc" offset="0"/>
   <stop stop-color="#C8C8C8" offset=".0811"/>
   <stop stop-color="#BCBCBC" offset=".16"/>
   <stop stop-color="#A9A9A9" offset=".2378"/>
   <stop stop-color="#8E8E8E" offset=".3147"/>
   <stop stop-color="#808080" offset=".3478"/>
   <stop stop-color="#4D4D4D" offset=".7143"/>
   <stop stop-color="#2D2D2D" offset=".8981"/>
   <stop stop-color="#1A1A1A" offset="1"/>
  </radialGradient>
  <linearGradient id="linearGradient39759" x1="129.14" x2="139.01" y1="922.56" y2="922.56" gradientTransform="scale(1.0667)" gradientUnits="userSpaceOnUse">
   <stop stop-color="#e6e6e6" offset="0"/>
   <stop stop-color="#e6e6e6" stop-opacity="0" offset="1"/>
  </linearGradient>
  <linearGradient id="linearGradient39767" x1="129.27" x2="141.92" y1="947.4" y2="947.4" gradientTransform="scale(1.0667)" gradientUnits="userSpaceOnUse">
   <stop stop-color="#e6e6e6" offset="0"/>
   <stop stop-color="#e6e6e6" stop-opacity="0" offset="1"/>
  </linearGradient>
  <linearGradient id="linearGradient39789" x1="9.8194" x2="21.038" y1="903.4" y2="957.33" gradientTransform="scale(1.0667)" gradientUnits="userSpaceOnUse">
   <stop stop-color="#b3b3b3" offset="0"/>
   <stop stop-color="#b3b3b3" stop-opacity="0" offset="1"/>
  </linearGradient>
 </defs>
 <metadata>
  <rdf:RDF>
   <cc:Work rdf:about="">
    <dc:format>image/svg+xml</dc:format>
    <dc:type rdf:resource="http://purl.org/dc/dcmitype/StillImage"/>
    <dc:title>Abbildung f체r OPEN MIND Softwaredokumentation</dc:title>
    <dc:creator>
     <cc:Agent>
      <dc:title>OPEN MIND Technologies AG</dc:title>
     </cc:Agent>
    </dc:creator>
    <dc:rights>
     <cc:Agent>
      <dc:title>Alle Rechte vorbehalten.</dc:title>
     </cc:Agent>
    </dc:rights>
    <dc:publisher>
     <cc:Agent>
      <dc:title>Technische Redaktion</dc:title>
     </cc:Agent>
    </dc:publisher>
   </cc:Work>
  </rdf:RDF>
 </metadata>
 <g transform="translate(0 -895.75)">
  <g stroke-width="1.0667">
   <circle cx="77.706" cy="1006.4" r="75.956" fill="url(#radialGradient39693)"/>
   <path d="m151.22 1015.2c-5.0016 41.649-40.921 71.608-82.569 66.606-41.651-5.0016-70.753-43.147-65.753-84.797" fill="#4d4d4d"/>
   <path d="m1.6925 1003.4c1.1494-41.264 125.57 56.212 152.23 4.0768 2.6354 40.836-35.514 73.797-77.781 72.672-42.269-1.1221-75.6-35.486-74.449-76.749z" fill="url(#radialGradient39741)"/>
  </g>
  <path d="m153.53 1017.4c-3.1029 32.34-149.03 16.039-148.18-21.178 0.94507-41.27 42.135-70.221 83.12-65.299 40.986 4.9205 69.001 45.387 65.056 86.477z" fill="url(#radialGradient39738)" stroke="#7d7d7d" stroke-width=".67654"/>
  <path d="m137.63 1013.2c-4.4651 40.491-139.2 21.028-134.73-16.179 4.4683-37.202 38.253-63.743 75.457-59.275 37.204 4.4683 63.38 38.208 59.277 75.454z" fill="url(#radialGradient39735)" stroke-width="1.0667"/>
  <g stroke-width="1.0667">
   <path d="m4.3901 1000.2s-1.1435-19.775 19.574-39.329c-14.284 23.57-11.107 43.102-7.4859 54.343-9.8453-5.9477-12.089-15.014-12.089-15.014z" fill="url(#linearGradient39789)"/>
   <path d="m142.62 994.97s5.952 0.48427 6.752-4.3925c1.6064 4.6229 3.1349 22.597 0.86826 28.214-3.0763 7.6245-10.595 10.831-12.213 11.717-1.6181 0.8853 11.664-9.8368 4.5931-35.539z" fill="url(#linearGradient39767)"/>
   <path d="m148.25 987.55c-0.16-1.6704-1.8581-7.0293-4.1664-11.197-2.3104-4.1685-1.0613 6.1397-4.9483 6.1056-3.8859-0.0331 1.5616 8.9376 2.1067 10.05 0.37547 0.7648 7.4848 0.0704 7.008-4.9589z" fill="url(#linearGradient39759)"/>
  </g>
  <path d="m133.04 1017.2c-12.385 31.144-54.881-72.07-107.19-37.707 10.493-28.94 37.405-45.808 71.396-33.401 16.919 6.176 47.045 42.815 35.795 71.107z" fill="url(#radialGradient39729)" stroke-width="1.0667"/>
  <path d="m86.761 931.58c-36.501 13.339-57.215 52.043-54.781 92.519 0.0384 0.6347 1.2533 0.9205 1.8261 1.2181 16.103 8.3126 77.573 18.315 110.17 6.3904 10.652-82.171-57.215-100.13-57.215-100.13" fill="url(#radialGradient39726)" stroke-width="1.0667"/>
  <g>
   <line x1="87.979" x2="66.433" y1="927.32" y2="1084.4" fill="none" stroke="#34679b" stroke-width="1.1339"/>
   <polygon transform="matrix(1.4862 0 0 1.4638 -104.99 902.67)" points="126.21 16.944 134.2 17.956 131.97 2.608" clip-rule="evenodd" fill="#34679b" fill-rule="evenodd" stroke="#34679b" stroke-linecap="round" stroke-linejoin="round" stroke-width=".72262"/>
   <line x1="28.024" x2="66.676" y1="1092" y2="1084.1" fill="none" stroke="#e2001a" stroke-width="1.1339"/>
  </g>
  <polygon transform="matrix(1.0667 0 0 1.0667 -50.898 909.61)" points="75.555 166.96 61.905 174.33 77.345 174.81" clip-rule="evenodd" fill="#e2001a" fill-rule="evenodd"/>
  <g fill="none">
   <line x1="112.41" x2="66.676" y1="1096.4" y2="1084.1" stroke="#7ab51d" stroke-width="1.1339"/>
   <path d="m142.88 1028.1c7.2373-78.953-55.163-94.104-55.163-94.104" stroke="#34679b" stroke-width="1.1339"/>
   <path d="m142.3 1029.6" stroke="#34679b" stroke-width="2.1333"/>
   <path d="m31.883 1024.6c17.593 11.068 81.084 17.709 109.11 8.0704" stroke="#e2001a" stroke-width="1.1339"/>
  </g>
  <g font-family="'Arial Nova', 'Arial Unicode MS', 'Yu Gothic UI', sans-serif" stroke-width="1.0667">
   <g font-size="16.891px">
    <text id="SVGID_8_" x="98.17543" y="921.07507" fill="#34679b" style="line-height:0%"><tspan font-family="'Arial Nova', 'Arial Unicode MS', 'Yu Gothic UI', sans-serif" font-size="19.2px" font-weight="bold" stroke-width="1.0667" style="line-height:125%">Z</tspan></text>
    <text id="SVGID_10_" x="7.2005277" y="1087.4456" fill="#e2001a" style="line-height:0%"><tspan font-family="'Arial Nova', 'Arial Unicode MS', 'Yu Gothic UI', sans-serif" font-size="19.2px" font-weight="bold" stroke-width="1.0667" style="line-height:125%">X</tspan></text>
    <text id="SVGID_11_" x="127.10206" y="1098.8741" fill="#7ab51d" style="line-height:0%"><tspan font-family="'Arial Nova', 'Arial Unicode MS', 'Yu Gothic UI', sans-serif" font-size="19.2px" font-weight="bold" stroke-width="1.0667" style="line-height:125%">Y</tspan></text>
   </g>
   <text id="SVGID_12_" x="152.19368" y="1037.5834" fill="#e2001a" font-size="11.26px" style="line-height:0%"><tspan font-size="19.2px" stroke-width="1.0667">+ 90째</tspan></text>
   <text id="SVGID_13_" x="156.45416" y="1015.3668" fill="#34679b" font-size="19.2px" style="line-height:0%"><tspan>+ 90</tspan><tspan font-family="'Arial Nova', 'Arial Unicode MS', 'Yu Gothic UI', sans-serif" style="line-height:125%">째</tspan></text>
  </g>
  <g clip-rule="evenodd" fill-rule="evenodd" stroke-linecap="round" stroke-linejoin="round" stroke-width=".72262">
   <polygon transform="matrix(-1.476 .17415 -.17153 -1.4537 338.47 1012.2)" points="134.2 17.956 131.97 2.608 126.21 16.944" fill="#34679b" stroke="#34679b"/>
   <g>
    <polygon transform="matrix(-.046527 -1.4855 -1.4631 .045826 151.64 1228.5)" points="126.21 16.944 134.2 17.956 131.97 2.608" fill="#f00" stroke="#f00"/>
    <polygon transform="matrix(.53443 -1.3868 -1.3659 -.52638 63.034 1285.2)" points="131.97 2.608 126.21 16.944 134.2 17.956" fill="#7ab51d" stroke="#7ab51d"/>
    <polygon transform="matrix(.045352 1.4855 1.4631 -.044668 -.9217 900.22)" points="126.21 16.944 134.2 17.956 131.97 2.608" fill="#e2001a" stroke="#e2001a"/>
   </g>
  </g>
 </g>
</svg>
