<?xml version="1.0" encoding="UTF-8"?>
<svg version="1.1" viewBox="0 0 680.31 226.77" xmlns="http://www.w3.org/2000/svg">
 <defs>
  <linearGradient id="p" x1="-12.703" x2="141.89" y1="51.508" y2="114.96" gradientTransform="matrix(1.0499 0 0 -1.0499 353.09 120.95)" gradientUnits="userSpaceOnUse">
   <stop stop-color="#ffffff" offset="0"/>
   <stop stop-color="#00385e" offset="1"/>
  </linearGradient>
  <linearGradient id="o" x1="9.4536" x2="267.87" y1="7.0602" y2="117.84" gradientTransform="matrix(1.0499 0 0 -1.0499 353.01 120.89)" gradientUnits="userSpaceOnUse">
   <stop stop-color="#ffffff" offset="0"/>
   <stop stop-color="#00385e" offset="1"/>
  </linearGradient>
  <linearGradient id="n" x1="67.244" x2="264.33" y1="-5.561" y2="119.32" gradientTransform="matrix(1.0499 0 0 -1.0499 353.09 121.7)" gradientUnits="userSpaceOnUse">
   <stop stop-color="#ffffff" offset="0"/>
   <stop stop-color="#00385e" offset="1"/>
  </linearGradient>
  <linearGradient id="m" x1="-97.228" x2="294.26" y1="80.045" y2="81.981" gradientTransform="matrix(.93676 0 0 -.93676 39.561 124.45)" gradientUnits="userSpaceOnUse">
   <stop stop-color="#ffffff" offset="0"/>
   <stop stop-color="#00385e" offset="1"/>
  </linearGradient>
  <clipPath id="v">
   <path d="m489.98 118.72-53.504 16.031v-21.223l-58.418-35.508 52.031-13.515v19z"/>
  </clipPath>
  <clipPath id="u">
   <path d="m23.724 14.876h106.68v67.628h-106.68z"/>
  </clipPath>
  <linearGradient id="l" x1="823.67" x2="10.964" y1="396.94" y2="-22.691" gradientUnits="userSpaceOnUse">
   <stop stop-color="#ffffff" offset="0"/>
   <stop stop-color="#ffffff" stop-opacity="0" offset="1"/>
  </linearGradient>
  <mask id="a" x="0" y="0" width="1" height="1" maskUnits="userSpaceOnUse">
   <g>
    <g clip-path="url(#u)">
     <path d="m23.724 14.876h106.68v67.628h-106.68z" fill="url(#l)"/>
    </g>
   </g>
  </mask>
  <linearGradient id="k" x1="823.67" x2="10.964" y1="396.94" y2="-22.691" gradientUnits="userSpaceOnUse">
   <stop stop-color="#13385e" offset="0"/>
   <stop stop-color="#13385e" offset="1"/>
  </linearGradient>
  <linearGradient id="j" x1="-16.611" x2="209.11" y1="-24.961" y2="62.799" gradientTransform="matrix(1.0601 .45972 .45972 -1.0601 162.94 104.18)" gradientUnits="userSpaceOnUse">
   <stop stop-color="#ffffff" offset="0"/>
   <stop stop-color="#00385e" offset="1"/>
  </linearGradient>
  <linearGradient id="i" x1="-63.724" x2="100.3" y1="62.282" y2="127.14" gradientTransform="matrix(1.0601 .45972 .45972 -1.0601 162.94 104.18)" gradientUnits="userSpaceOnUse">
   <stop stop-color="#ffffff" offset="0"/>
   <stop stop-color="#00385e" offset="1"/>
  </linearGradient>
  <clipPath id="t">
   <path d="m343.08 31.109-76.687 102.96 10.515 24.254 76.684-102.97z"/>
  </clipPath>
  <linearGradient id="h" x1="33.724" x2="281.83" y1="-16.688" y2="175.51" gradientTransform="matrix(1.0601 -.45972 .45972 1.0601 162.94 65.897)" gradientUnits="userSpaceOnUse">
   <stop stop-color="#ffffff" offset="0"/>
   <stop stop-color="#00385e" offset="1"/>
  </linearGradient>
  <linearGradient id="g" x1="92.198" x2="67.599" y1="35.36" y2="35.36" gradientTransform="matrix(1.0601 .45972 .45972 -1.0601 162.93 104.18)" gradientUnits="userSpaceOnUse">
   <stop stop-color="#f6aa42" offset="0"/>
   <stop stop-color="#f49c2e" offset=".0629"/>
   <stop stop-color="#f08b18" offset=".1489"/>
   <stop stop-color="#ef8305" offset=".2393"/>
   <stop stop-color="#ee7f00" offset=".3407"/>
   <stop stop-color="#e37006" offset=".4331"/>
   <stop stop-color="#d25810" offset=".6291"/>
   <stop stop-color="#c84a12" offset=".8204"/>
   <stop stop-color="#c54613" offset="1"/>
  </linearGradient>
  <linearGradient id="f" x1="6.5244" x2="193.21" y1="14.238" y2="128.9" gradientTransform="matrix(1.0601 .45972 .45972 -1.0601 162.94 104.18)" gradientUnits="userSpaceOnUse">
   <stop stop-color="#ffffff" offset="0"/>
   <stop stop-color="#00385e" offset="1"/>
  </linearGradient>
  <clipPath id="s">
   <path d="m308.06 54.359 4.246 9.789-0.742 1.028-10.301 6.383-2.149-4.954z"/>
  </clipPath>
  <linearGradient id="e" x1="106.85" x2="123.67" y1="33.887" y2="68.356" gradientTransform="matrix(1.0601 -.45972 .45972 1.0601 162.94 65.897)" gradientUnits="userSpaceOnUse">
   <stop stop-color="#ffffff" offset="0"/>
   <stop stop-color="#00385e" offset="1"/>
  </linearGradient>
  <clipPath id="r">
   <path d="m314.21 61.48 5.359-7.5-5.543-12.789-5.48 7.227z"/>
  </clipPath>
  <linearGradient id="d" x1="113.94" x2="134.85" y1="31.01" y2="57.226" gradientTransform="matrix(1.0601 -.45972 .45972 1.0601 162.94 65.897)" gradientUnits="userSpaceOnUse">
   <stop stop-color="#ffffff" offset="0"/>
   <stop stop-color="#00385e" offset="1"/>
  </linearGradient>
  <clipPath id="q">
   <path d="m297.37 53.262 10.871 1.019-8.945 12.246-10.715-1.316z"/>
  </clipPath>
  <linearGradient id="c" x1="92.386" x2="133.23" y1="20.526" y2="58.287" gradientTransform="matrix(1.0601 -.45972 .45972 1.0601 163.11 65.818)" gradientUnits="userSpaceOnUse">
   <stop stop-color="#ffffff" offset="0"/>
   <stop stop-color="#00385e" offset="1"/>
  </linearGradient>
  <linearGradient id="b" x1="92.386" x2="133.23" y1="20.526" y2="58.287" gradientTransform="matrix(1.0601 .45972 .45972 -1.0601 139.06 119.81)" gradientUnits="userSpaceOnUse">
   <stop stop-color="#ffffff" offset="0"/>
   <stop stop-color="#00385e" offset="1"/>
  </linearGradient>
 </defs>
 <g transform="matrix(1.3333 0 0 1.3333 0 2.336e-6)">
  <g>
   <text transform="translate(121.2 145.59)" fill="#ffffff" font-family="'Arial Nova', 'Arial Unicode MS', 'Yu Gothic UI', sans-serif" font-size="12.004px" xml:space="preserve"><tspan x="0" y="0">1</tspan></text>
   <g>
    <path d="m48.238 89.965-8.527 8.797" fill="none" stroke="#165489" stroke-miterlimit="10" stroke-width=".2"/>
   </g>
   <g>
    <path d="m54.305 96.887-14.504 14.91" fill="none" stroke="#165489" stroke-linecap="square" stroke-miterlimit="10" stroke-width=".2"/>
   </g>
   <g>
    <path d="m54.414 109.96-14.75 15.234" fill="none" stroke="#165489" stroke-miterlimit="10" stroke-width=".2"/>
   </g>
   <g>
    <path d="m54.285 123.28-14.574 14.973" fill="none" stroke="#165489" stroke-miterlimit="10" stroke-width=".2"/>
   </g>
   <g>
    <path d="m57.738 132.78-18.008 18.575" fill="none" stroke="#165489" stroke-miterlimit="10" stroke-width=".2"/>
   </g>
   <g>
    <path d="m83.328 132.7-22.394 23.067" fill="none" stroke="#165489" stroke-miterlimit="10" stroke-width=".2"/>
   </g>
   <g>
    <path d="m70.637 132.6-22.446 23.195" fill="none" stroke="#165489" stroke-miterlimit="10" stroke-width=".2"/>
   </g>
   <g>
    <path d="m96.145 132.72-22.379 23.031" fill="none" stroke="#165489" stroke-miterlimit="10" stroke-width=".2"/>
   </g>
   <g>
    <path d="m108.84 132.73-22.344 23.008" fill="none" stroke="#165489" stroke-linecap="square" stroke-miterlimit="10" stroke-width=".2"/>
   </g>
   <g>
    <path d="m146.42 94.145-13.777 14.078" fill="none" stroke="#165489" stroke-linecap="square" stroke-miterlimit="10" stroke-width=".2"/>
   </g>
   <g>
    <path d="m138.96 90.016-6.207 6.347" fill="none" stroke="#165489" stroke-linecap="square" stroke-miterlimit="10" stroke-width=".2"/>
   </g>
   <g>
    <path d="m121.59 132.75-22.258 22.918" fill="none" stroke="#165489" stroke-linecap="square" stroke-miterlimit="10" stroke-width=".2"/>
   </g>
   <g>
    <path d="m146.35 107.25-13.653 14.059" fill="none" stroke="#165489" stroke-linecap="square" stroke-miterlimit="10" stroke-width=".2"/>
   </g>
   <g>
    <path d="m146.47 120.28-34.395 35.414" fill="none" stroke="#165489" stroke-miterlimit="10" stroke-width=".2"/>
   </g>
   <g>
    <path d="m146.5 133.4-21.625 22.265" fill="none" stroke="#165489" stroke-miterlimit="10" stroke-width=".2"/>
   </g>
   <g>
    <path d="m146.46 146.59-8.738 9.004" fill="none" stroke="#165489" stroke-linecap="square" stroke-miterlimit="10" stroke-width=".2"/>
   </g>
   <g>
    <path d="m54.383 132.73h78.308z" fill="none" stroke="#4d4d4d" stroke-width=".2"/>
   </g>
   <text transform="translate(121.24 145.59)" fill="#ffffff" font-family="'Arial Nova', 'Arial Unicode MS', 'Yu Gothic UI', sans-serif" font-size="12.004px" xml:space="preserve"><tspan x="0" y="0">1</tspan></text>
   <g>
    <g>
     <path d="m355.72 74.168 70.465 43.414v42.152l-70.465-42.785z" fill="url(#p)" stroke="#4d4d4d" stroke-linecap="round" stroke-linejoin="round" stroke-width=".5074"/>
    </g>
   </g>
   <g>
    <g>
     <path d="m355.63 74.23 72.859-19.257 70.656 42.437v39.731l-73.144 21.898 0.094-41.394z" fill="url(#o)" stroke="#4d4d4d" stroke-linecap="round" stroke-linejoin="round" stroke-width=".5074"/>
    </g>
   </g>
   <g>
    <path d="m489.98 99.344v19.449" fill="none" stroke="#4d4d4d" stroke-width=".2"/>
   </g>
   <g>
    <path d="m425.97 117.38 10.308-3.289" fill="none" stroke="#4d4d4d" stroke-linecap="round" stroke-linejoin="round" stroke-width=".5074"/>
   </g>
   <g>
    <path d="m489.98 99.344 9.207-1.996" fill="none" stroke="#4d4d4d" stroke-width=".2"/>
   </g>
   <g>
    <g>
     <path d="m489.98 118.72v-19.414l-59.903-34.965-0.039 19.219z" fill="url(#n)" stroke="#4d4d4d" stroke-width=".5074"/>
    </g>
   </g>
   <g>
    <g>
     <path d="m146.43 81.25-13.512-0.137v51.621l-78.137-0.156 0.047-51.328h-15.133v74.539l106.74-0.141z" fill="url(#m)" stroke="#4d4d4d" stroke-width=".50741"/>
    </g>
   </g>
   <g>
    <g clip-path="url(#v)">
     <g transform="matrix(1.0499 0 0 1.0499 353.09 48.382)">
      <g mask="url(#a)">
       <path d="m489.98 118.72-53.504 16.031v-21.223l-58.418-35.508 52.031-13.515v19z" fill="url(#k)"/>
      </g>
     </g>
    </g>
   </g>
   <g>
    <path d="m489.98 118.72-53.504 16.031v-21.223l-58.418-35.508 52.031-13.515v19z" fill="none" stroke="#4d4d4d" stroke-width=".5074"/>
   </g>
   <g>
    <path d="m407.43 89.809 57.496 36.722" fill="none" stroke="#000000" stroke-linecap="round" stroke-linejoin="round" stroke-width=".5074"/>
   </g>
   <g>
    <path d="m430.02 83.559-29.82 7.851" fill="none" stroke="#4d4d4d" stroke-width=".2"/>
   </g>
   <g>
    <path d="m378.52 77.855 69.73-18.105" fill="none" stroke="#000000" stroke-linecap="round" stroke-linejoin="round" stroke-width=".5074"/>
   </g>
   <g>
    <path d="m490.12 99.492 15.777-4.465" fill="none" stroke="#000000" stroke-linecap="round" stroke-linejoin="round" stroke-width=".5074"/>
   </g>
   <g>
    <path d="m379.2 78.434-18.445-11.289" fill="none" stroke="#000000" stroke-width=".5074"/>
   </g>
   <g>
    <path d="m369.42 64.992 34.109-8.211" fill="none" stroke="#000000" stroke-linecap="round" stroke-linejoin="round" stroke-miterlimit="6" stroke-width=".5074"/>
   </g>
   <g>
    <path d="m412.02 54.504-9.046 5.394-6.774-4.019z" fill="#000000" stroke="#000000" stroke-linecap="round" stroke-linejoin="round" stroke-width=".79937"/>
   </g>
   <g>
    <path d="m361.26 67.031 16.445-0.613-6.84-4.117z" fill="#000000" stroke="#000000" stroke-linecap="round" stroke-linejoin="round" stroke-width=".79937"/>
   </g>
   <g>
    <path d="m412.51 54.379 17.246 9.883" fill="none" stroke="#000000" stroke-linecap="round" stroke-linejoin="round" stroke-miterlimit="6" stroke-width=".5074"/>
   </g>
   <g>
    <path d="m448.9 60.242 57.09 34.434" fill="none" stroke="#000000" stroke-linecap="round" stroke-linejoin="round" stroke-miterlimit="10" stroke-width=".5074"/>
   </g>
   <g>
    <path d="m448.65 60.059 13.543 4.773-8.125 2.27z" fill="#000000" stroke="#000000" stroke-linecap="round" stroke-linejoin="round" stroke-width=".79937"/>
   </g>
   <g>
    <path d="m506.08 94.777-15.035-4.648 8.121-2.266z" fill="#000000" stroke="#000000" stroke-linecap="round" stroke-linejoin="round" stroke-width=".79937"/>
   </g>
   <path d="m218.3 140.55 6.457-8.492 4.367 10.066z" fill="#f6aa42"/>
   <path d="m199.19 138.6 5.265-7.657 3.68 8.661z" fill="#f6aa42"/>
   <g transform="matrix(1 -.43367 .43367 1 0 0)">
    <path d="m215.48 115.1 3.877 2.482-102.13 58.982-3.88-2.331z" fill="#99b2cc" stroke="#99b2cc" stroke-width=".18349"/>
   </g>
   <g>
    <g transform="matrix(1 -.43367 .43367 1 0 0)">
     <path d="m226.5 121.62 50.756 29.8-101.97 58.669-34.304-19.556 43.462-25.296-8.227-4.97-43.771 25.142-8.228-4.806z" fill="url(#j)" stroke="#99b2cc" stroke-width=".18349"/>
    </g>
   </g>
   <g>
    <g transform="matrix(1 -.43367 .43367 1 0 0)">
     <path d="m175.29 210.09-1e-3 24.25-61.928-35.7 1e-3 -24.402 3.878 2.326-0.154 12.883 7.138 4.033 0.03-12.843 8.199 4.775v12.574l8.536 5.276 2e-3 -12.73z" fill="url(#i)" stroke="#4d4d4d" stroke-linecap="round" stroke-linejoin="round" stroke-width=".46552"/>
    </g>
   </g>
   <g>
    <g clip-path="url(#t)">
     <g>
      <path d="m343.08 31.109-76.687 102.96 10.515 24.254 76.684-102.97z" fill="url(#h)"/>
     </g>
    </g>
   </g>
   <path d="m273.96 30.523-71.461 96.297 2.012 4.567-5.274 7.394-5.445-12.941 76.641-103.45z" fill="#c54613"/>
   <g transform="matrix(1 -.43367 .43367 1 0 0)">
    <path d="m177.46 180.59v16.304l-8.691 4.962-14.126-8.384z" fill="#c54613" stroke="#4d4d4d" stroke-width=".18349"/>
   </g>
   <g transform="matrix(1 -.43367 .43367 1 0 0)">
    <path d="m205.08 164.76 2e-3 12.57-14.439 8.227-10.709-6.515z" fill="#c54613" stroke="#4d4d4d" stroke-width=".18349"/>
   </g>
   <g>
    <g transform="matrix(1 -.43367 .43367 1 0 0)">
     <path d="m210.82 152.43c0 4.242-5.838 7.679-13.038 7.681-7.199-1e-3 -13.039-3.44-13.04-7.682 0-4.242 5.84-7.682 13.039-7.682 7.203-1e-3 13.039 3.44 13.039 7.683z" fill="url(#g)" stroke="#4d4d4d" stroke-width=".18349"/>
    </g>
   </g>
   <g>
    <path d="m273.53 70.277c-1.746-0.601-4.894-0.269-8.004 1.078-2.949 1.278-5.281 3.208-6.152 4.829l0.652-0.012 0.606-0.027 1.023-0.215 1.332-0.231 0.883-0.191 1.207-0.332 1.445-0.586 1.442-0.59 1.109-0.555 0.805-0.465 1.328-0.847 0.813-0.621 0.894-0.696z" fill="#99b2cc" stroke="#4d4d4d" stroke-width=".2"/>
   </g>
   <g transform="matrix(1 -.43367 .43367 1 0 0)">
    <path d="m219.21 172.88-14.131-8.12 2e-3 12.57 3.125 1.954z" fill="#ee7f00" stroke="#4d4d4d" stroke-width=".18349"/>
   </g>
   <g transform="matrix(1 -.43367 .43367 1 0 0)">
    <path d="m191.71 188.67-14.252 8.229v-16.304z" fill="#ee7f00" stroke="#4d4d4d" stroke-width=".18349"/>
   </g>
   <path d="m245.73 83.918 4.195 9.719 6.176-8.391z" fill="#ee7f00"/>
   <path d="m223.57 129.38 1.184 2.703-6.441 8.406-5.442-12.547 32.77-43.972 4.187 9.648z" fill="#c54613"/>
   <g>
    <g transform="matrix(1 -.43367 .43367 1 0 0)">
     <path d="m215.48 115.1 3.877 2.482-102.13 58.982-3.88-2.331z" fill="url(#f)" stroke="#4d4d4d" stroke-width=".46552"/>
    </g>
   </g>
   <g transform="matrix(1 -.43367 .43367 1 0 0)">
    <path d="m226.5 121.62 50.756 29.8-101.97 58.669-34.25-19.564 43.408-25.288-8.227-4.97-43.771 25.142-8.241-4.839z" fill="none" stroke="#4d4d4d" stroke-width=".46552"/>
   </g>
   <g transform="matrix(1 -.43367 .43367 1 0 0)">
    <path d="m117.23 176.56-0.152 12.88 7.136 4.036v-12.879l8.228 4.806-2e-3 12.578 8.536 5.276 2e-3 -12.73 34.304 19.556-3e-3 24.253-61.929-35.705v-24.402z" fill="none" stroke="#4d4d4d" stroke-width=".46552"/>
   </g>
   <g transform="matrix(1 -.43367 .43367 1 0 0)">
    <path d="m277.41 151.42-102.13 58.669-1e-3 24.367 102.13-58.666z" fill="none" stroke="#4d4d4d" stroke-width=".46552"/>
   </g>
   <g>
    <path d="m245.72 83.902 4.223 9.731" fill="none" stroke="#4d4d4d" stroke-width=".2"/>
   </g>
   <g>
    <path d="m199.23 138.67 5.266-7.34" fill="none" stroke="#4d4d4d" stroke-width=".2"/>
   </g>
   <g>
    <path d="m218.32 140.56 6.508-8.426" fill="none" stroke="#4d4d4d" stroke-width=".2"/>
   </g>
   <g transform="matrix(1 -.43367 .43367 1 0 0)">
    <path d="m190.65 185.49 3.402 2.108 14.15-8.316-3.134-1.996" fill="none" stroke="#4d4d4d" stroke-width=".18349"/>
   </g>
   <g>
    <path d="m270.42 22.41 3.516 8.11" fill="#041128" stroke="#4d4d4d" stroke-width=".2"/>
   </g>
   <g>
    <path d="m297.13 73.969-18.41-2.227 12.144-16.605-16.547-2.344 15.731-21.18 32.125 3.797 1.41 12.723-12.129 16.984z" fill="#cccccc"/>
    <path d="m318.53 55.531-5.882-13.57-19.325-1.898-3.117-8.379 32.125 3.8 1.399 12.664z" fill="#ee7f00"/>
    <path d="m285.1 45.805 3.98 9.113-14.871-2.043 15.887-21.285 3.257 7.512-2.929-0.309z" fill="#c54613"/>
    <path d="m290.91 55.078 1.992 4.59-4.508 5.621 3.532 8.141-13.18-1.614z" fill="#c54613"/>
   </g>
   <g>
    <g clip-path="url(#s)">
     <g>
      <path d="m308.06 54.359 4.246 9.789-0.742 1.028-10.301 6.383-2.149-4.954z" fill="url(#e)"/>
     </g>
    </g>
   </g>
   <g>
    <g clip-path="url(#r)">
     <g>
      <path d="m314.21 61.48 5.359-7.5-5.543-12.789-5.48 7.227z" fill="url(#d)"/>
     </g>
    </g>
   </g>
   <g>
    <g clip-path="url(#q)">
     <g>
      <path d="m297.37 53.262 10.871 1.019-8.945 12.246-10.715-1.316z" fill="url(#c)"/>
     </g>
    </g>
   </g>
   <g transform="matrix(1 -.43367 .43367 1 0 0)">
    <path d="m223.3 142.47 7.292-4.33 18.733 11.081-7.24 4.004z" fill="none" stroke="#4d4d4d" stroke-width=".18349"/>
   </g>
   <g>
    <path d="m297.18 53.344 10.871 1.019-8.918 12.09-10.629-1.23z" fill="none" stroke="#4d4d4d" stroke-linecap="round" stroke-linejoin="round" stroke-width=".22394"/>
   </g>
   <g transform="matrix(1 -.43367 .43367 1 0 0)">
    <path d="m232.64 132.48 25.719 14.962-3.457 11.251-16.454 9.891-15.328 2.224-14.714-8.611 16.327-9.564-13.109-8.037z" fill="none" stroke="#4d4d4d" stroke-width=".18349"/>
   </g>
   <g transform="matrix(1 -.43367 .43367 1 0 0)">
    <path d="m208.41 162.2 16.348-9.649 0.012 4.279-5.857 3.397 1e-3 8.141z" fill="none" stroke="#4d4d4d" stroke-width=".18349"/>
   </g>
   <g transform="matrix(1 -.43367 .43367 1 0 0)">
    <path d="m227.45 165.24 12-7.043 1e-3 9.79-1 0.593-11 1.613z" fill="none" stroke="#4d4d4d" stroke-linecap="round" stroke-linejoin="round" stroke-width=".18349"/>
   </g>
   <g transform="matrix(1 -.43367 .43367 1 0 0)">
    <path d="m242.03 166.44 7.248-4.356 3e-3 -12.788-7.251 4.082z" fill="none" stroke="#4d4d4d" stroke-width=".18349"/>
   </g>
   <g>
    <path d="m290.1 31.59 3.047 7.019" fill="none" stroke="#4d4d4d" stroke-width=".2"/>
   </g>
   <g>
    <path d="m285.08 45.766 3.953 9.121" fill="none" stroke="#4d4d4d" stroke-width=".2"/>
   </g>
   <g>
    <path d="m320.85 30.969-19.278 6.613" fill="#000000" stroke="#000000" stroke-linecap="round" stroke-linejoin="round" stroke-miterlimit="10" stroke-width=".85041"/>
   </g>
   <g>
    <path d="m301.74 37.508 9.985 0.012-2.153-6.207z" fill="#000000" stroke="#000000" stroke-linecap="round" stroke-linejoin="round" stroke-width=".79934"/>
   </g>
   <g>
    <path d="m294.24 100.45-18.949-4.433" fill="#000000" stroke="#000000" stroke-linecap="round" stroke-linejoin="round" stroke-miterlimit="10" stroke-width=".85041"/>
   </g>
   <g>
    <path d="m274.6 95.805 8.433 5.343 1.496-6.398z" fill="#000000" stroke="#000000" stroke-linecap="round" stroke-linejoin="round" stroke-width=".79934"/>
   </g>
   <g>
    <path d="m293.49 104.36-36.051 5.977" fill="#000000" stroke="#000000" stroke-linecap="round" stroke-linejoin="round" stroke-miterlimit="10" stroke-width=".85041"/>
   </g>
   <g>
    <path d="m252.63 110.65 9.75 2.141-0.781-6.523z" fill="#000000" stroke="#000000" stroke-linecap="round" stroke-linejoin="round" stroke-width=".79934"/>
   </g>
   <g>
    <path d="m220.55 100.23 3.32-9.417-6.57-0.024z" fill="#000000" stroke="#000000" stroke-linecap="round" stroke-linejoin="round" stroke-width=".79934"/>
   </g>
   <g>
    <path d="m220.62 81.328-0.133 18.25" fill="#000000" stroke="#000000" stroke-linecap="round" stroke-linejoin="round" stroke-miterlimit="10" stroke-width=".85041"/>
   </g>
   <g>
    <path d="m227.55 79.23 9.414 11.336" fill="#000000" stroke="#000000" stroke-linecap="round" stroke-linejoin="round" stroke-miterlimit="10" stroke-width=".85041"/>
   </g>
   <g>
    <path d="m241.55 95.953-3.367-9.398-5.114 4.125z" fill="#000000" stroke="#000000" stroke-linecap="round" stroke-linejoin="round" stroke-width=".79934"/>
   </g>
   <g>
    <path d="m254.06 49.07 4.39 9.301" fill="#000000" stroke="#000000" stroke-linecap="round" stroke-linejoin="round" stroke-miterlimit="10" stroke-width=".85039"/>
   </g>
   <g>
    <path d="m261.19 64.637-0.894-9.242-5.598 2.55z" fill="#000000" stroke="#000000" stroke-linecap="round" stroke-linejoin="round" stroke-width=".79937"/>
   </g>
   <g>
    <g>
     <path d="m269.55 38.156 23.359 2.973-5.293 7.094-23.472-2.461z" fill="url(#b)" stroke="#4d4d4d" stroke-width=".22394"/>
    </g>
   </g>
   <g>
    <path d="m444.33 99.203-29.109 8.184" fill="none" stroke="#000000" stroke-linecap="round" stroke-linejoin="round" stroke-width=".5074"/>
   </g>
   <g>
    <path d="m423.61 105.99c0 1.395-1.39 2.528-3.109 2.532-1.719 3e-3 -3.113-1.125-3.121-2.524-8e-3 -1.394 1.379-2.531 3.098-2.543 1.714-8e-3 3.117 1.117 3.132 2.512l-3.113 0.023z" fill="none" stroke="#000000" stroke-linecap="round" stroke-linejoin="round" stroke-width=".5074"/>
   </g>
   <path d="m230.92 69.945c0 5.578-4.434 10.102-9.898 10.102-5.469 0-9.899-4.524-9.899-10.102s4.43-10.101 9.899-10.101c5.464 0 9.898 4.523 9.898 10.101z" fill="#1f638a"/>
   <text transform="translate(216.64 75.593)" fill="#ffffff" font-family="'Arial Nova', 'Arial Unicode MS', 'Yu Gothic UI', sans-serif" font-size="16px" xml:space="preserve"><tspan x="0" y="0">7</tspan></text>
   <g>
    <path d="m224.82 65.375c-1.125 1.242-2.101 2.773-2.922 4.594-0.824 1.812-1.308 3.687-1.453 5.625h-1.437c0.031-1.563 0.41-3.27 1.14-5.125 0.739-1.864 1.692-3.469 2.86-4.813h-5.61v-1.359h7.422z" fill="none" stroke="#ffffff" stroke-width=".80002"/>
   </g>
   <path d="m89.73 105.19c0 5.579-4.429 10.102-9.898 10.102s-9.898-4.523-9.898-10.102c0-5.582 4.429-10.101 9.898-10.101s9.898 4.519 9.898 10.101z" fill="#1f638a"/>
   <text transform="translate(75.451 110.94)" fill="#ffffff" font-family="'Arial Nova', 'Arial Unicode MS', 'Yu Gothic UI', sans-serif" font-size="16px" xml:space="preserve"><tspan x="0" y="0">1</tspan></text>
   <g>
    <path d="m81.449 110.94h-1.406v-8.968c-0.699 0.668-1.637 1.234-2.813 1.703v-1.36c1.614-0.781 2.719-1.742 3.313-2.89h0.906z" fill="none" stroke="#ffffff" stroke-width=".80002"/>
   </g>
   <path d="m342.47 29.586c0 5.578-4.434 10.102-9.899 10.102-5.468 0-9.898-4.524-9.898-10.102s4.43-10.102 9.898-10.102c5.465 0 9.899 4.524 9.899 10.102z" fill="#1f638a"/>
   <text transform="translate(328.19 35.313)" fill="#ffffff" font-family="'Arial Nova', 'Arial Unicode MS', 'Yu Gothic UI', sans-serif" font-size="16px" xml:space="preserve"><tspan x="0" y="0">4</tspan></text>
   <g>
    <path d="m336.34 32.578h-1.547v2.735h-1.406v-2.735h-4.953v-1.297l5.203-7.422h1.156v7.422h1.547zm-2.953-1.297v-5.172h-0.032l-3.546 5.172z" fill="none" stroke="#ffffff" stroke-width=".80002"/>
   </g>
   <path d="m316.88 102.66c0 5.582-4.434 10.102-9.898 10.102-5.469 0-9.899-4.52-9.899-10.102 0-5.578 4.43-10.101 9.899-10.101 5.464 0 9.898 4.523 9.898 10.101z" fill="#1f638a"/>
   <text transform="translate(302.59 108.21)" fill="#ffffff" font-family="'Arial Nova', 'Arial Unicode MS', 'Yu Gothic UI', sans-serif" font-size="16px" xml:space="preserve"><tspan x="0" y="0">5</tspan></text>
   <g>
    <path d="m305.12 101.32c0.695-0.476 1.422-0.718 2.172-0.718 0.957 0 1.789 0.34 2.5 1.015 0.707 0.68 1.062 1.578 1.062 2.703 0 1.137-0.359 2.106-1.078 2.907-0.718 0.793-1.664 1.187-2.828 1.187-0.961 0-1.789-0.269-2.484-0.812-0.699-0.539-1.102-1.344-1.203-2.407l1.468-0.109c0.125 0.731 0.379 1.273 0.766 1.625 0.395 0.356 0.879 0.531 1.453 0.531 0.707 0 1.281-0.265 1.719-0.797 0.445-0.539 0.672-1.207 0.672-2 0-0.8-0.231-1.429-0.688-1.89-0.449-0.469-1.027-0.703-1.734-0.703-0.906 0-1.602 0.371-2.078 1.109l-1.328-0.156 1.109-5.891h5.688v1.36h-4.563z" fill="none" stroke="#ffffff" stroke-width=".80002"/>
   </g>
   <path d="m258.66 37.703c0 5.578-4.433 10.102-9.902 10.102-5.465 0-9.899-4.524-9.899-10.102s4.434-10.101 9.899-10.101c5.469 0 9.902 4.523 9.902 10.101z" fill="#1f638a"/>
   <text transform="translate(244.37 43.36)" fill="#ffffff" font-family="'Arial Nova', 'Arial Unicode MS', 'Yu Gothic UI', sans-serif" font-size="16px" xml:space="preserve"><tspan x="0" y="0">6</tspan></text>
   <g>
    <path d="m246.46 37.453c0.644-1.008 1.566-1.515 2.765-1.515 0.938 0 1.735 0.351 2.391 1.046 0.656 0.688 0.984 1.571 0.984 2.641 0 1.094-0.328 2.027-0.984 2.797-0.656 0.762-1.527 1.141-2.609 1.141-1.094 0-2.032-0.407-2.813-1.219-0.773-0.821-1.156-2.27-1.156-4.344 0-2.039 0.348-3.578 1.047-4.609 0.707-1.032 1.723-1.547 3.047-1.547 0.863 0 1.593 0.242 2.187 0.719 0.594 0.48 0.953 1.195 1.078 2.14l-1.406 0.125c-0.25-1.219-0.898-1.828-1.937-1.828-0.719 0-1.34 0.359-1.86 1.078-0.511 0.711-0.765 1.836-0.765 3.375zm2.515 4.938c0.645 0 1.165-0.258 1.563-0.782 0.406-0.519 0.609-1.148 0.609-1.89 0-0.739-0.203-1.348-0.609-1.828-0.398-0.489-0.934-0.735-1.609-0.735-0.618 0-1.149 0.231-1.594 0.688-0.449 0.461-0.672 1.058-0.672 1.797 0 0.761 0.219 1.414 0.656 1.953 0.438 0.531 0.989 0.797 1.656 0.797z" fill="none" stroke="#ffffff" stroke-width=".80002"/>
   </g>
   <path d="m444.07 88.168c0 5.578-4.433 10.102-9.902 10.102-5.465 0-9.898-4.524-9.898-10.102s4.433-10.102 9.898-10.102c5.469 0 9.902 4.524 9.902 10.102z" fill="#1f638a"/>
   <text transform="translate(429.79 93.825)" fill="#ffffff" font-family="'Arial Nova', 'Arial Unicode MS', 'Yu Gothic UI', sans-serif" font-size="16px" xml:space="preserve"><tspan x="0" y="0">8</tspan></text>
   <g>
    <path d="m435.85 87.621c1.437 0.461 2.156 1.438 2.156 2.938 0 0.98-0.356 1.804-1.063 2.468-0.699 0.668-1.601 1-2.703 1-1.117 0-2.027-0.332-2.734-1-0.699-0.675-1.047-1.515-1.047-2.515 0-0.727 0.195-1.364 0.594-1.907 0.394-0.539 0.925-0.867 1.593-0.984v-0.031c-1.148-0.352-1.718-1.125-1.718-2.313 0-0.843 0.3-1.547 0.906-2.109 0.602-0.57 1.394-0.859 2.375-0.859 0.988 0 1.789 0.293 2.406 0.875 0.613 0.586 0.922 1.293 0.922 2.125 0 1.125-0.562 1.886-1.687 2.281zm-1.61-0.547c0.52 0 0.957-0.164 1.313-0.5 0.363-0.344 0.547-0.765 0.547-1.265 0-0.52-0.184-0.957-0.547-1.313-0.367-0.351-0.809-0.531-1.328-0.531-0.543 0-0.993 0.18-1.344 0.531-0.344 0.344-0.516 0.758-0.516 1.234 0 0.563 0.176 1.012 0.531 1.344 0.364 0.336 0.813 0.5 1.344 0.5zm0 5.781c0.656 0 1.203-0.21 1.641-0.64 0.445-0.426 0.672-0.977 0.672-1.656 0-0.688-0.231-1.25-0.688-1.688-0.449-0.437-1-0.656-1.656-0.656-0.688 0-1.246 0.23-1.672 0.687-0.43 0.45-0.641 0.993-0.641 1.625 0 0.657 0.219 1.211 0.657 1.657 0.445 0.449 1.008 0.671 1.687 0.671z" fill="none" stroke="#ffffff" stroke-width=".80002"/>
   </g>
   <path d="m493.32 66.207c0 5.578-4.433 10.102-9.898 10.102-5.469 0-9.899-4.524-9.899-10.102s4.43-10.102 9.899-10.102c5.465 0 9.898 4.524 9.898 10.102z" fill="#1f638a"/>
   <text transform="translate(479.04 71.862)" fill="#ffffff" font-family="'Arial Nova', 'Arial Unicode MS', 'Yu Gothic UI', sans-serif" font-size="16px" xml:space="preserve"><tspan x="0" y="0">9</tspan></text>
   <g>
    <path d="m485.82 66.473c-0.273 0.449-0.652 0.812-1.14 1.093-0.481 0.274-1 0.407-1.563 0.407-0.937 0-1.742-0.344-2.406-1.032-0.656-0.695-0.984-1.601-0.984-2.718 0-1.133 0.332-2.063 1-2.782 0.675-0.726 1.546-1.093 2.609-1.093 1.062 0 1.977 0.418 2.75 1.25 0.781 0.824 1.172 2.257 1.172 4.297 0 2.062-0.356 3.609-1.063 4.64-0.711 1.024-1.726 1.531-3.047 1.531-0.855 0-1.574-0.234-2.156-0.703-0.574-0.476-0.922-1.195-1.047-2.156l1.344-0.109c0.207 1.199 0.836 1.797 1.891 1.797 0.863 0 1.523-0.391 1.984-1.172 0.457-0.789 0.688-1.875 0.688-3.25zm-2.359 0.265c0.687 0 1.227-0.238 1.625-0.718 0.406-0.489 0.609-1.11 0.609-1.86s-0.211-1.379-0.625-1.89c-0.406-0.508-0.933-0.766-1.578-0.766-0.656 0-1.211 0.273-1.656 0.812-0.449 0.543-0.672 1.196-0.672 1.954 0 0.73 0.219 1.324 0.656 1.781 0.446 0.461 0.993 0.687 1.641 0.687z" fill="none" stroke="#ffffff" stroke-width=".80002"/>
   </g>
   <path d="m391.52 49.063c0 5.582-4.429 10.101-9.898 10.101s-9.898-4.519-9.898-10.101c0-5.579 4.429-10.102 9.898-10.102s9.898 4.523 9.898 10.102z" fill="#1f638a"/>
   <text transform="translate(373.25 54.82)" fill="#ffffff" font-family="'Arial Nova', 'Arial Unicode MS', 'Yu Gothic UI', sans-serif" font-size="16px" xml:space="preserve"><tspan x="0" y="0">1</tspan></text>
   <g>
    <path d="m379.25 54.82h-1.406v-8.968c-0.699 0.668-1.637 1.234-2.813 1.703v-1.36c1.614-0.781 2.719-1.742 3.313-2.89h0.906z" fill="none" stroke="#ffffff" stroke-width=".80002"/>
   </g>
   <text transform="translate(380.05 54.82)" fill="#ffffff" font-family="'Arial Nova', 'Arial Unicode MS', 'Yu Gothic UI', sans-serif" font-size="16px" xml:space="preserve"><tspan x="0" y="0">0</tspan></text>
   <g>
    <path d="m384.5 43.305c2.488 0 3.734 1.953 3.734 5.859 0 1.981-0.324 3.453-0.968 4.422-0.649 0.961-1.571 1.437-2.766 1.437-2.492 0-3.734-1.953-3.734-5.859 0-1.969 0.32-3.437 0.968-4.406 0.645-0.969 1.567-1.453 2.766-1.453zm0 10.547c0.75 0 1.316-0.364 1.703-1.094 0.383-0.727 0.578-1.926 0.578-3.594 0-1.156-0.086-2.062-0.25-2.719-0.168-0.664-0.422-1.16-0.765-1.484-0.344-0.332-0.774-0.5-1.282-0.5-0.761 0-1.336 0.375-1.718 1.125-0.375 0.742-0.563 1.934-0.563 3.578 0 1.149 0.082 2.055 0.25 2.719 0.176 0.668 0.43 1.164 0.766 1.484 0.344 0.324 0.769 0.485 1.281 0.485z" fill="none" stroke="#ffffff" stroke-width=".80002"/>
   </g>
   <g>
    <path d="m154.12 162.74v-11.14" fill="none" stroke="#000000" stroke-linecap="round" stroke-linejoin="round" stroke-miterlimit="6" stroke-width=".5074"/>
   </g>
   <g>
    <path d="m153.94 143.1 3.285 9.425h-6.575z" fill="#000000" stroke="#000000" stroke-linecap="round" stroke-linejoin="round" stroke-width=".79937"/>
   </g>
   <g>
    <path d="m153.96 132.13 3.281-9.43h-6.57z" fill="#000000" stroke="#000000" stroke-linecap="round" stroke-linejoin="round" stroke-width=".79937"/>
   </g>
   <g>
    <path d="m153.84 128.43v-14.141" fill="none" stroke="#000000" stroke-linecap="round" stroke-linejoin="round" stroke-miterlimit="6" stroke-width=".5074"/>
   </g>
   <path d="m177.9 138.39c0 5.578-4.433 10.101-9.898 10.101-5.469 0-9.902-4.523-9.902-10.101s4.433-10.102 9.902-10.102c5.465 0 9.898 4.524 9.898 10.102z" fill="#1f638a"/>
   <text transform="translate(163.62 144.14)" fill="#ffffff" font-family="'Arial Nova', 'Arial Unicode MS', 'Yu Gothic UI', sans-serif" font-size="16px" xml:space="preserve"><tspan x="0" y="0">2</tspan></text>
   <g>
    <path d="m171.7 144.14h-7.578c0-0.645 0.223-1.297 0.672-1.954 0.445-0.664 1.289-1.5 2.531-2.5 0.75-0.601 1.422-1.234 2.016-1.89 0.594-0.664 0.89-1.336 0.89-2.016 0-0.57-0.203-1.047-0.609-1.422-0.406-0.383-0.922-0.578-1.547-0.578-0.636 0-1.168 0.199-1.594 0.594-0.429 0.387-0.64 0.965-0.64 1.734l-1.453-0.172c0.093-1.07 0.472-1.89 1.14-2.453 0.676-0.57 1.536-0.859 2.578-0.859 1.125 0 2 0.312 2.625 0.937s0.938 1.375 0.938 2.25c0 0.743-0.266 1.485-0.797 2.235-0.523 0.75-1.574 1.758-3.156 3.015-0.824 0.668-1.371 1.243-1.641 1.719h5.625z" fill="none" stroke="#ffffff" stroke-width=".80002"/>
   </g>
   <g>
    <path d="m132.75 132.78 21.496 8e-3" fill="#000000" stroke="#4d4d4d" stroke-width=".50775"/>
   </g>
   <g>
    <path d="m133.12 142.45h21.086" fill="none" stroke="#4d4d4d" stroke-width=".50775"/>
   </g>
   <g>
    <path d="m34.035 158.28v-11.144" fill="none" stroke="#000000" stroke-linecap="round" stroke-linejoin="round" stroke-miterlimit="6" stroke-width=".5074"/>
   </g>
   <g>
    <path d="m33.848 138.64 3.285 9.429h-6.574z" fill="#000000" stroke="#000000" stroke-linecap="round" stroke-linejoin="round" stroke-width=".79937"/>
   </g>
   <g>
    <path d="m34.008 132.06 3.285-9.426h-6.574z" fill="#000000" stroke="#000000" stroke-linecap="round" stroke-linejoin="round" stroke-width=".79937"/>
   </g>
   <g>
    <path d="m33.887 128.36v-14.14" fill="none" stroke="#000000" stroke-linecap="round" stroke-linejoin="round" stroke-miterlimit="6" stroke-width=".5074"/>
   </g>
   <path d="m28.496 135.49c0 5.578-4.433 10.102-9.898 10.102-5.469 0-9.903-4.524-9.903-10.102 0-5.582 4.434-10.101 9.903-10.101 5.465 0 9.898 4.519 9.898 10.101z" fill="#1f638a"/>
   <text transform="translate(14.214 141.24)" fill="#ffffff" font-family="'Arial Nova', 'Arial Unicode MS', 'Yu Gothic UI', sans-serif" font-size="16px" xml:space="preserve"><tspan x="0" y="0">3</tspan></text>
   <g>
    <path d="m20.277 135.04c0.707 0.137 1.243 0.481 1.61 1.031 0.363 0.555 0.547 1.153 0.547 1.797 0 1.043-0.383 1.903-1.141 2.578-0.762 0.668-1.668 1-2.719 1-1.011 0-1.844-0.297-2.5-0.89-0.656-0.594-1.043-1.375-1.156-2.344l1.406-0.188c0.145 0.75 0.399 1.313 0.766 1.688 0.375 0.375 0.867 0.562 1.484 0.562 0.656 0 1.207-0.226 1.656-0.687 0.458-0.457 0.688-1.02 0.688-1.688 0-0.644-0.211-1.175-0.625-1.593-0.406-0.426-0.945-0.641-1.609-0.641-0.274 0-0.606 0.055-1 0.156l0.171-1.234c0.375 0 0.672-0.016 0.891-0.047 0.219-0.039 0.461-0.129 0.734-0.266 0.27-0.144 0.493-0.347 0.672-0.609 0.176-0.269 0.266-0.598 0.266-0.984 0-0.571-0.195-1.016-0.578-1.328-0.375-0.313-0.809-0.469-1.297-0.469-0.574 0-1.039 0.183-1.391 0.547-0.355 0.355-0.578 0.867-0.672 1.531l-1.406-0.25c0.176-1 0.578-1.742 1.203-2.234 0.625-0.5 1.368-0.75 2.235-0.75 0.945 0 1.738 0.293 2.375 0.875 0.644 0.574 0.968 1.277 0.968 2.109 0 1.062-0.527 1.828-1.578 2.297z" fill="none" stroke="#ffffff" stroke-width=".80002"/>
   </g>
   <g>
    <path d="m33.559 138.14h21.246" fill="none" stroke="#4d4d4d" stroke-width=".50775"/>
   </g>
   <g>
    <path d="m93.508 124.15v-32.902" fill="none" stroke="#000000" stroke-linecap="round" stroke-linejoin="round" stroke-miterlimit="6" stroke-width=".5074"/>
   </g>
   <g>
    <path d="m93.555 81.93 3.285 9.429h-6.57z" fill="#000000" stroke="#000000" stroke-linecap="round" stroke-linejoin="round" stroke-width=".79937"/>
   </g>
   <g>
    <path d="m93.531 132.01-3.281-9.43h6.57z" fill="#000000" stroke="#000000" stroke-linecap="round" stroke-linejoin="round" stroke-width=".79937"/>
   </g>
   <g>
    <path d="m55.039 81.164h78.649" fill="none" stroke="#4d4d4d" stroke-dasharray="2.02961, 2.02961" stroke-width=".5074"/>
   </g>
   <path d="m54.988 132.86h78.074v9.695h-78.074z" fill="#fcd6a4"/>
   <g>
    <path d="m54.852 138.1 78.031-0.024" fill="none" stroke="#4d4d4d" stroke-width=".5074"/>
   </g>
   <g>
    <path d="m54.984 142.46h78.141" fill="none" stroke="#4d4d4d" stroke-width=".5074"/>
   </g>
   <g>
    <path d="m33.684 132.61 21.5 8e-3" fill="#000000" stroke="#4d4d4d" stroke-width=".50775"/>
   </g>
  </g>
 </g>
</svg>
