<?xml version="1.0" encoding="UTF-8" standalone="no"?>
<!-- Created with Inkscape (http://www.inkscape.org/) -->

<svg
   id="svg2993"
   version="1.1"
   inkscape:version="1.2.2 (732a01da63, 2022-12-09)"
   width="460.62991"
   height="230.31496"
   sodipodi:docname="3D_Schneidkante_Boundary_An_Rohteil_Trimmen.svg"
   inkscape:export-filename="D:\_data\Dokumentation\hyperMILL\trunk\Grafiken\hm\models\3D_Schneidkante_Boundary_An_Rohteil_Trimmen.png"
   inkscape:export-xdpi="200"
   inkscape:export-ydpi="200"
   xmlns:inkscape="http://www.inkscape.org/namespaces/inkscape"
   xmlns:sodipodi="http://sodipodi.sourceforge.net/DTD/sodipodi-0.dtd"
   xmlns:xlink="http://www.w3.org/1999/xlink"
   xmlns="http://www.w3.org/2000/svg"
   xmlns:svg="http://www.w3.org/2000/svg"
   xmlns:rdf="http://www.w3.org/1999/02/22-rdf-syntax-ns#"
   xmlns:cc="http://creativecommons.org/ns#"
   xmlns:dc="http://purl.org/dc/elements/1.1/">
  <metadata
     id="metadata2999">
    <rdf:RDF>
      <cc:Work
         rdf:about="">
        <dc:format>image/svg+xml</dc:format>
        <dc:type
           rdf:resource="http://purl.org/dc/dcmitype/StillImage" />
      </cc:Work>
    </rdf:RDF>
  </metadata>
  <defs
     id="defs2997">
    <linearGradient
       id="linearGradient17780-7">
      <stop
         id="stop17782-4"
         offset="0"
         style="stop-color:#ffffff;stop-opacity:1;" />
      <stop
         id="stop17784-0"
         offset="1"
         style="stop-color:#00385e;stop-opacity:1;" />
    </linearGradient>
    <linearGradient
       inkscape:collect="always"
       xlink:href="#linearGradient17780-7"
       id="linearGradient12327"
       x1="-10.554714"
       y1="184.01685"
       x2="676.4325"
       y2="194.15604"
       gradientUnits="userSpaceOnUse"
       gradientTransform="matrix(0.40231515,0,0,0.40231515,41.300301,181.20035)" />
    <linearGradient
       inkscape:collect="always"
       xlink:href="#linearGradient17780-7"
       id="linearGradient12335"
       x1="224.01971"
       y1="242.57657"
       x2="331.24301"
       y2="243.77148"
       gradientUnits="userSpaceOnUse"
       gradientTransform="matrix(0.40231515,0,0,0.40231515,41.300301,181.20035)" />
    <linearGradient
       inkscape:collect="always"
       xlink:href="#linearGradient17780-7"
       id="linearGradient12343"
       x1="273.87845"
       y1="115.45858"
       x2="1045.0868"
       y2="112.07885"
       gradientUnits="userSpaceOnUse"
       gradientTransform="matrix(0.40231515,0,0,0.40231515,41.300301,181.20035)" />
    <linearGradient
       inkscape:collect="always"
       xlink:href="#linearGradient17780-7"
       id="linearGradient12351"
       x1="297.5271"
       y1="16.997227"
       x2="1095.7993"
       y2="32.206017"
       gradientUnits="userSpaceOnUse"
       gradientTransform="matrix(0.40231515,0,0,0.40231515,41.300301,181.20035)" />
    <linearGradient
       inkscape:collect="always"
       xlink:href="#linearGradient17780-7"
       id="linearGradient12359"
       x1="357.83594"
       y1="-75.434967"
       x2="867.06293"
       y2="-68.675507"
       gradientUnits="userSpaceOnUse"
       gradientTransform="matrix(0.40231515,0,0,0.40231515,41.300301,181.20035)" />
    <linearGradient
       inkscape:collect="always"
       xlink:href="#linearGradient17780-7"
       id="linearGradient12367"
       x1="332.91043"
       y1="-26.428871"
       x2="866.21802"
       y2="-23.049141"
       gradientUnits="userSpaceOnUse"
       gradientTransform="matrix(0.40231515,0,0,0.40231515,41.300301,181.20035)" />
    <linearGradient
       inkscape:collect="always"
       xlink:href="#linearGradient17780-7"
       id="linearGradient12375"
       x1="5.07654"
       y1="64.190155"
       x2="840.9469"
       y2="87.003334"
       gradientUnits="userSpaceOnUse"
       gradientTransform="matrix(0.40231515,0,0,0.40231515,41.300301,181.20035)" />
    <linearGradient
       inkscape:collect="always"
       xlink:href="#linearGradient17780-7"
       id="linearGradient12383"
       x1="621.08527"
       y1="-131.6758"
       x2="696.86548"
       y2="-131.6758"
       gradientUnits="userSpaceOnUse"
       gradientTransform="matrix(0.40231515,0,0,0.40231515,41.300301,181.20035)" />
    <linearGradient
       inkscape:collect="always"
       xlink:href="#linearGradient17780-7"
       id="linearGradient12391"
       x1="214.24699"
       y1="73.880112"
       x2="291.85068"
       y2="74.091347"
       gradientUnits="userSpaceOnUse"
       gradientTransform="matrix(0.40231515,0,0,0.40231515,41.300301,181.20035)" />
    <linearGradient
       inkscape:collect="always"
       xlink:href="#linearGradient17780-7"
       id="linearGradient12401"
       x1="248.63983"
       y1="138.18077"
       x2="382.08231"
       y2="135.19348"
       gradientUnits="userSpaceOnUse"
       gradientTransform="matrix(0.40231515,0,0,0.40231515,41.300301,181.20035)" />
    <linearGradient
       inkscape:collect="always"
       xlink:href="#linearGradient17780-7"
       id="linearGradient12460"
       x1="150.64482"
       y1="49.36412"
       x2="270.12338"
       y2="52.018181"
       gradientUnits="userSpaceOnUse" />
    <linearGradient
       id="linearGradient17780-7-2">
      <stop
         id="stop17782-4-6"
         offset="0"
         style="stop-color:#ffffff;stop-opacity:1;" />
      <stop
         id="stop17784-0-2"
         offset="1"
         style="stop-color:#00385e;stop-opacity:1;" />
    </linearGradient>
    <linearGradient
       y2="52.018181"
       x2="270.12338"
       y1="49.36412"
       x1="150.64482"
       gradientUnits="userSpaceOnUse"
       id="linearGradient12477"
       xlink:href="#linearGradient17780-7-2"
       inkscape:collect="always" />
    <linearGradient
       id="linearGradient17780-7-7">
      <stop
         id="stop17782-4-8"
         offset="0"
         style="stop-color:#ffffff;stop-opacity:1;" />
      <stop
         id="stop17784-0-27"
         offset="1"
         style="stop-color:#00385e;stop-opacity:1;" />
    </linearGradient>
    <linearGradient
       y2="52.018181"
       x2="270.12338"
       y1="49.36412"
       x1="150.64482"
       gradientUnits="userSpaceOnUse"
       id="linearGradient12511"
       xlink:href="#linearGradient17780-7-7"
       inkscape:collect="always" />
    <linearGradient
       id="linearGradient17780-7-7-2">
      <stop
         id="stop17782-4-8-0"
         offset="0"
         style="stop-color:#ffffff;stop-opacity:1;" />
      <stop
         id="stop17784-0-27-8"
         offset="1"
         style="stop-color:#00385e;stop-opacity:1;" />
    </linearGradient>
    <linearGradient
       y2="52.018181"
       x2="270.12338"
       y1="49.36412"
       x1="150.64482"
       gradientUnits="userSpaceOnUse"
       id="linearGradient12545"
       xlink:href="#linearGradient17780-7-7-2"
       inkscape:collect="always" />
    <linearGradient
       id="linearGradient17780-7-2-8">
      <stop
         id="stop17782-4-6-2"
         offset="0"
         style="stop-color:#ffffff;stop-opacity:1;" />
      <stop
         id="stop17784-0-2-0"
         offset="1"
         style="stop-color:#00385e;stop-opacity:1;" />
    </linearGradient>
    <linearGradient
       y2="52.018181"
       x2="270.12338"
       y1="49.36412"
       x1="150.64482"
       gradientUnits="userSpaceOnUse"
       id="linearGradient12579"
       xlink:href="#linearGradient17780-7-2-8"
       inkscape:collect="always" />
    <linearGradient
       id="linearGradient17780-7-2-8-2">
      <stop
         id="stop17782-4-6-2-7"
         offset="0"
         style="stop-color:#ffffff;stop-opacity:1;" />
      <stop
         id="stop17784-0-2-0-6"
         offset="1"
         style="stop-color:#00385e;stop-opacity:1;" />
    </linearGradient>
    <linearGradient
       y2="52.018181"
       x2="270.12338"
       y1="49.36412"
       x1="150.64482"
       gradientUnits="userSpaceOnUse"
       id="linearGradient12613"
       xlink:href="#linearGradient17780-7-2-8-2"
       inkscape:collect="always" />
    <linearGradient
       id="linearGradient17780-7-2-8-2-7">
      <stop
         id="stop17782-4-6-2-7-8"
         offset="0"
         style="stop-color:#ffffff;stop-opacity:1;" />
      <stop
         id="stop17784-0-2-0-6-1"
         offset="1"
         style="stop-color:#00385e;stop-opacity:1;" />
    </linearGradient>
    <linearGradient
       y2="52.018181"
       x2="270.12338"
       y1="49.36412"
       x1="150.64482"
       gradientUnits="userSpaceOnUse"
       id="linearGradient12647"
       xlink:href="#linearGradient17780-7-2-8-2-7"
       inkscape:collect="always" />
    <linearGradient
       id="linearGradient17780-7-5-0">
      <stop
         id="stop17782-4-89-6"
         offset="0"
         style="stop-color:#ffffff;stop-opacity:1;" />
      <stop
         id="stop17784-0-0-6"
         offset="1"
         style="stop-color:#00385e;stop-opacity:1;" />
    </linearGradient>
    <linearGradient
       inkscape:collect="always"
       xlink:href="#linearGradient17780-7-5-0"
       id="linearGradient4077"
       x1="132.16664"
       y1="176.43497"
       x2="462.98587"
       y2="139.99005"
       gradientUnits="userSpaceOnUse"
       gradientTransform="translate(29.275422,-10.156779)" />
    <linearGradient
       inkscape:collect="always"
       xlink:href="#linearGradient17780-7-5-0"
       id="linearGradient4085"
       x1="92.984818"
       y1="217.6067"
       x2="182.53264"
       y2="214.4382"
       gradientUnits="userSpaceOnUse"
       gradientTransform="translate(29.275422,-10.156779)" />
    <filter
       inkscape:collect="always"
       id="filter12295-8"
       color-interpolation-filters="sRGB"
       x="-inf"
       y="-0.041751392"
       width="inf"
       height="1.0835028">
      <feBlend
         inkscape:collect="always"
         mode="screen"
         in2="BackgroundImage"
         id="feBlend12297-9" />
    </filter>
  </defs>
  <sodipodi:namedview
     pagecolor="#ffffff"
     bordercolor="#666666"
     borderopacity="1"
     objecttolerance="10"
     gridtolerance="10"
     guidetolerance="10"
     inkscape:pageopacity="0"
     inkscape:pageshadow="2"
     inkscape:window-width="1920"
     inkscape:window-height="1017"
     id="namedview2995"
     showgrid="false"
     inkscape:zoom="2.3670525"
     inkscape:cx="118.71304"
     inkscape:cy="118.71304"
     inkscape:window-x="1912"
     inkscape:window-y="-8"
     inkscape:window-maximized="1"
     inkscape:current-layer="layer2"
     units="mm"
     showguides="false"
     inkscape:guide-bbox="true"
     inkscape:document-units="mm"
     inkscape:snap-global="false"
     inkscape:showpageshadow="2"
     inkscape:pagecheckerboard="0"
     inkscape:deskcolor="#d1d1d1">
    <sodipodi:guide
       orientation="1,0"
       position="8.9618644,87.826271"
       id="guide13134"
       inkscape:locked="false" />
    <sodipodi:guide
       orientation="-0.19370119,0.98106057"
       position="154.62268,6.1257618"
       id="guide13136"
       inkscape:locked="false" />
    <sodipodi:guide
       orientation="1,0"
       position="282.62998,43.936499"
       id="guide14968"
       inkscape:locked="false" />
    <sodipodi:guide
       orientation="1,0"
       position="257.17638,119.34674"
       id="guide15421"
       inkscape:locked="false" />
    <sodipodi:guide
       orientation="0.25229189,0.96765118"
       position="271.84321,-18.819915"
       id="guide15374"
       inkscape:locked="false" />
    <sodipodi:guide
       orientation="1,0"
       position="292.75423,10.455508"
       id="guide4132"
       inkscape:locked="false" />
  </sodipodi:namedview>
  <g
     inkscape:groupmode="layer"
     id="layer2"
     inkscape:label="Modell"
     style="display:inline"
     transform="translate(0,-88.582785)">
    <path
       style="fill:url(#linearGradient12335);fill-opacity:1;stroke:#4d4d4d;stroke-width:0.63425195;stroke-linecap:round;stroke-linejoin:round;stroke-miterlimit:4;stroke-opacity:1;stroke-dasharray:none"
       d="m 131.62799,257.07958 c 2.72681,1.372 5.05256,2.87767 10.31503,3.40446 4.66833,-0.37631 7.13716,-1.21611 9.82577,-1.95975 l 0,40.45158 -20.11693,1.31479 z"
       id="path3025"
       inkscape:connector-curvature="0"
       sodipodi:nodetypes="cccccc" />
    <path
       style="fill:url(#linearGradient12343);fill-opacity:1;stroke:#4d4d4d;stroke-width:0.63425195;stroke-linecap:round;stroke-linejoin:round;stroke-miterlimit:4;stroke-opacity:1;stroke-dasharray:none"
       d="m 310.96476,172.92985 0,80.48936 c -6.64954,14.90427 -73.09344,21.90583 -89.88241,23.42466 -24.34325,1.41349 -50.91693,1.99079 -69.36168,5.49466 l -0.0338,-23.7625 c 8.6425,-2.74844 11.80806,-5.18613 16.02809,-7.93458 l 0.67014,-13.76785 c 20.15332,-3.51339 84.03461,-1.17929 110.34012,-31.76329 9.60392,-12.16833 21.50425,-21.36972 32.2395,-32.18046 z"
       id="path3027"
       inkscape:connector-curvature="0"
       sodipodi:nodetypes="cccccccccc" />
    <path
       style="fill:url(#linearGradient12391);fill-opacity:1;stroke:#000000;stroke-width:0.63425195;stroke-linecap:round;stroke-linejoin:round;stroke-miterlimit:4;stroke-opacity:1;stroke-dasharray:none"
       d="m 127.70006,203.65234 0.12019,14.54217 15.56798,-2.37513 c -11.7573,-4.41939 -15.83466,-8.48527 -15.68817,-12.16704 z"
       id="path3029"
       inkscape:connector-curvature="0"
       sodipodi:nodetypes="cccc" />
    <path
       style="fill:none;stroke:#000000;stroke-width:0.63425195;stroke-linecap:round;stroke-linejoin:round;stroke-miterlimit:4;stroke-opacity:1;stroke-dasharray:none"
       d="m 152.83106,194.70257 c 1.6185,3.41296 5.53543,8.91196 11.00308,13.00746 -5.45085,-3.19931 -16.82965,-5.61297 -11.00308,-13.00746 z"
       id="path3031"
       inkscape:connector-curvature="0"
       sodipodi:nodetypes="ccc" />
    <path
       style="fill:url(#linearGradient4085);fill-opacity:1;stroke:#4d4d4d;stroke-width:0.63425195;stroke-linecap:round;stroke-linejoin:round;stroke-miterlimit:4;stroke-opacity:1;stroke-dasharray:none"
       d="m 137.70422,190.53844 15.08435,4.1004 c -5.03431,6.26041 3.28204,10.12657 10.81401,12.98104 18.08434,8.06566 -18.33615,15.6486 -22.14884,16.74152 l -18.87637,-5.43886 21.41554,-3.05936 c -12.51584,-4.35166 -16.18984,-8.494 -16.35909,-12.02502 0.18825,-4.52523 3.99218,-10.20865 10.0704,-13.29972 z"
       id="path3033"
       inkscape:connector-curvature="0"
       sodipodi:nodetypes="cccccccc" />
    <path
       style="fill:url(#linearGradient12351);fill-opacity:1;stroke:#4d4d4d;stroke-width:0.63425195;stroke-linecap:round;stroke-linejoin:round;stroke-miterlimit:4;stroke-opacity:1;stroke-dasharray:none"
       d="m 323.20885,129.06716 0.0765,34.5387 c -15.76079,40.21519 -96.28186,89.7995 -154.68423,73.99621 l -0.15899,-23.97452 c 1.63295,-3.35179 -4.2492,-5.59035 -7.24102,-7.51146 5.64362,2.08941 28.62266,12.84317 93.77287,-13.64078 19.40141,-10.38357 29.98544,-27.17979 42.7852,-42.36453 5.6483,-6.73958 15.45065,-17.75347 25.44966,-21.04362 z"
       id="path3039"
       inkscape:connector-curvature="0"
       sodipodi:nodetypes="ccccccccc" />
    <path
       style="fill:url(#linearGradient12383);fill-opacity:1;stroke:#4d4d4d;stroke-width:0.63425195;stroke-linecap:round;stroke-linejoin:round;stroke-miterlimit:4;stroke-opacity:1;stroke-dasharray:none"
       d="m 291.37346,120.42805 0,15.59424 c 2.69717,-2.56141 5.23891,-5.21607 7.37222,-8.1158 0.80354,-1.65308 1.67467,-3.31782 -0.72234,-4.41907 z"
       id="path3041"
       inkscape:connector-curvature="0"
       sodipodi:nodetypes="ccccc" />
    <path
       style="fill:url(#linearGradient12375);fill-opacity:1;stroke:#4d4d4d;stroke-width:0.63425195;stroke-linecap:round;stroke-linejoin:round;stroke-miterlimit:4;stroke-opacity:1;stroke-dasharray:none"
       d="M 42.475832,213.31378 172.377,181.36035 c 1.20051,-0.35947 2.5254,-0.61044 2.8894,-1.69965 l 50.17049,14.57749 c -20.02163,7.2137 -41.93063,9.67671 -63.83505,11.86961 -15.03481,-5.54785 -8.79432,-9.47485 -8.79567,-11.47262 l -15.16934,-4.16412 c -7.47279,4.05666 -9.93077,10.46979 -9.98328,13.40357 l 0.1721,14.32769 -5.07831,0.72022 0.33992,15.46677 z"
       id="path3043"
       inkscape:connector-curvature="0"
       sodipodi:nodetypes="cccccccccccc" />
    <path
       sodipodi:type="arc"
       style="fill:url(#linearGradient12460);fill-opacity:1;stroke:#4d4d4d;stroke-width:1.37128007;stroke-linecap:round;stroke-linejoin:round;stroke-miterlimit:4;stroke-opacity:1;stroke-dasharray:none;stroke-dashoffset:0"
       id="path3045"
       sodipodi:cx="187.99753"
       sodipodi:cy="49.36412"
       sodipodi:rx="37.177036"
       sodipodi:ry="5.9145288"
       d="m 225.17456,49.36412 c 0,3.266505 -16.64472,5.914529 -37.17703,5.914529 -20.53231,0 -37.17704,-2.648024 -37.17704,-5.914529 0,-3.266504 16.64473,-5.914528 37.17704,-5.914528 20.53231,0 37.17703,2.648024 37.17703,5.914528 z"
       transform="matrix(0.33405917,0,0,0.64039502,8.8765813,179.61318)" />
    <path
       style="fill:url(#linearGradient12359);fill-opacity:1;stroke:#4d4d4d;stroke-width:0.63425195;stroke-linecap:round;stroke-linejoin:round;stroke-miterlimit:4;stroke-opacity:1;stroke-dasharray:none"
       d="m 185.46427,146.85755 61.52718,-14.44701 37.56219,10.53783 c -7.36725,7.93167 -15.04941,19.9425 -21.75547,26.3445 z"
       id="path3093"
       inkscape:connector-curvature="0"
       sodipodi:nodetypes="ccccc" />
    <path
       style="fill:url(#linearGradient12367);fill-opacity:1;stroke:#4d4d4d;stroke-width:0.63425195;stroke-linecap:round;stroke-linejoin:round;stroke-miterlimit:4;stroke-opacity:1;stroke-dasharray:none"
       d="m 175.43636,179.83068 c 1.20837,-1.27818 2.30903,-2.84092 2.8894,-5.77881 l -0.33993,-20.73568 c 0.89129,-4.59716 3.93592,-5.36615 6.79858,-6.45864 l 78.01376,22.43532 c -7.54821,7.09189 -14.22665,13.19393 -22.30277,18.14078 -6.51499,3.55236 -15.59933,6.84402 -15.59933,6.84402 z"
       id="path3091"
       inkscape:connector-curvature="0"
       sodipodi:nodetypes="cccccccc" />
    <path
       style="fill:url(#linearGradient12401);fill-opacity:1;stroke:#4d4d4d;stroke-width:0.63425195;stroke-linecap:round;stroke-linejoin:round;stroke-miterlimit:4;stroke-opacity:1;stroke-dasharray:none"
       d="m 141.69571,260.16553 -0.16268,-35.75749 c 20.16402,-4.97974 24.74952,-8.36655 26.87308,-11.1308 l -0.27012,37.39383 c -14.35327,9.3525 -24.23819,10.00388 -26.44028,9.49446 z"
       id="path12393"
       inkscape:connector-curvature="0"
       sodipodi:nodetypes="ccccc" />
    <path
       sodipodi:type="arc"
       style="fill:url(#linearGradient12477);fill-opacity:1;stroke:#4d4d4d;stroke-width:1.37128007;stroke-linecap:round;stroke-linejoin:round;stroke-miterlimit:4;stroke-opacity:1;stroke-dasharray:none;stroke-dashoffset:0;display:inline"
       id="path3045-7"
       sodipodi:cx="187.99753"
       sodipodi:cy="49.36412"
       sodipodi:rx="37.177036"
       sodipodi:ry="5.9145288"
       d="m 225.17456,49.36412 c 0,3.266505 -16.64472,5.914529 -37.17703,5.914529 -20.53231,0 -37.17704,-2.648024 -37.17704,-5.914529 0,-3.266504 16.64473,-5.914528 37.17704,-5.914528 20.53231,0 37.17703,2.648024 37.17703,5.914528 z"
       transform="matrix(0.33405917,0,0,0.64039502,50.562995,192.22299)" />
    <path
       style="fill:url(#linearGradient12327);fill-opacity:1;stroke:#4d4d4d;stroke-width:0.63425195;stroke-linecap:round;stroke-linejoin:round;stroke-miterlimit:4;stroke-opacity:1;stroke-dasharray:none"
       d="m 122.9173,219.0925 18.76135,5.2689 0,36.08316 c -3.19438,0.16636 -8.69096,-2.39 -10.09316,-3.44996 l 0.12873,43.21725 -93.57852,-24.65473 -0.211233,-56.25674 c -0.01217,-3.24 2.310765,-5.65527 4.896596,-6.11873 l 80.096237,21.20766 z"
       id="path3023"
       inkscape:connector-curvature="0"
       sodipodi:nodetypes="ccccccsccc" />
    <path
       sodipodi:type="arc"
       style="fill:url(#linearGradient12511);fill-opacity:1;stroke:#4d4d4d;stroke-width:2.87001038;stroke-linecap:round;stroke-linejoin:round;stroke-miterlimit:4;stroke-opacity:1;stroke-dasharray:none;stroke-dashoffset:0;display:inline"
       id="path3045-8"
       sodipodi:cx="187.99753"
       sodipodi:cy="49.36412"
       sodipodi:rx="37.177036"
       sodipodi:ry="5.9145288"
       d="m 225.17456,49.36412 c 0,3.266505 -16.64472,5.914529 -37.17703,5.914529 -20.53231,0 -37.17704,-2.648024 -37.17704,-5.914529 0,-3.266504 16.64473,-5.914528 37.17704,-5.914528 20.53231,0 37.17703,2.648024 37.17703,5.914528 z"
       transform="matrix(0.13239029,0,0,0.36889312,86.989923,192.65111)" />
    <path
       sodipodi:type="arc"
       style="fill:url(#linearGradient12545);fill-opacity:1;stroke:#4d4d4d;stroke-width:2.87001038;stroke-linecap:round;stroke-linejoin:round;stroke-miterlimit:4;stroke-opacity:1;stroke-dasharray:none;stroke-dashoffset:0;display:inline"
       id="path3045-8-9"
       sodipodi:cx="187.99753"
       sodipodi:cy="49.36412"
       sodipodi:rx="37.177036"
       sodipodi:ry="5.9145288"
       d="m 225.17456,49.36412 c 0,3.266505 -16.64472,5.914529 -37.17703,5.914529 -20.53231,0 -37.17704,-2.648024 -37.17704,-5.914529 0,-3.266504 16.64473,-5.914528 37.17704,-5.914528 20.53231,0 37.17703,2.648024 37.17703,5.914528 z"
       transform="matrix(0.13239029,0,0,0.36889312,141.76225,180.9595)" />
    <path
       sodipodi:type="arc"
       style="fill:url(#linearGradient12579);fill-opacity:1;stroke:#4d4d4d;stroke-width:1.37128007;stroke-linecap:round;stroke-linejoin:round;stroke-miterlimit:4;stroke-opacity:1;stroke-dasharray:none;stroke-dashoffset:0;display:inline"
       id="path3045-7-5"
       sodipodi:cx="187.99753"
       sodipodi:cy="49.36412"
       sodipodi:rx="37.177036"
       sodipodi:ry="5.9145288"
       d="m 225.17456,49.36412 c 0,3.266505 -16.64472,5.914529 -37.17703,5.914529 -20.53231,0 -37.17704,-2.648024 -37.17704,-5.914529 0,-3.266504 16.64473,-5.914528 37.17704,-5.914528 20.53231,0 37.17703,2.648024 37.17703,5.914528 z"
       transform="matrix(0.33405917,0,0,0.64039502,109.49761,156.86075)" />
    <path
       sodipodi:type="arc"
       style="fill:url(#linearGradient12613);fill-opacity:1;stroke:#4d4d4d;stroke-width:1.37128007;stroke-linecap:round;stroke-linejoin:round;stroke-miterlimit:4;stroke-opacity:1;stroke-dasharray:none;stroke-dashoffset:0;display:inline"
       id="path3045-7-5-7"
       sodipodi:cx="187.99753"
       sodipodi:cy="49.36412"
       sodipodi:rx="37.177036"
       sodipodi:ry="5.9145288"
       d="m 225.17456,49.36412 c 0,3.266505 -16.64472,5.914529 -37.17703,5.914529 -20.53231,0 -37.17704,-2.648024 -37.17704,-5.914529 0,-3.266504 16.64473,-5.914528 37.17704,-5.914528 20.53231,0 37.17703,2.648024 37.17703,5.914528 z"
       transform="matrix(0.33405917,0,0,0.64039502,182.79545,110.63998)" />
    <path
       sodipodi:type="arc"
       style="fill:url(#linearGradient12647);fill-opacity:1;stroke:#4d4d4d;stroke-width:1.37128007;stroke-linecap:round;stroke-linejoin:round;stroke-miterlimit:4;stroke-opacity:1;stroke-dasharray:none;stroke-dashoffset:0;display:inline"
       id="path3045-7-5-7-6"
       sodipodi:cx="187.99753"
       sodipodi:cy="49.36412"
       sodipodi:rx="37.177036"
       sodipodi:ry="5.9145288"
       d="m 225.17456,49.36412 c 0,3.266505 -16.64472,5.914529 -37.17703,5.914529 -20.53231,0 -37.17704,-2.648024 -37.17704,-5.914529 0,-3.266504 16.64473,-5.914528 37.17704,-5.914528 20.53231,0 37.17703,2.648024 37.17703,5.914528 z"
       transform="matrix(0.33405917,0,0,0.64039502,200.81171,128.82621)" />
    <path
       style="fill:url(#linearGradient4077);fill-opacity:1;stroke:#4d4d4d;stroke-width:0.63425195;stroke-linecap:round;stroke-linejoin:round;stroke-miterlimit:4;stroke-opacity:1;stroke-dasharray:none"
       d="m 322.86366,129.03118 -31.23382,-8.54555 7.03071,3.36512 c 4.38477,1.78885 -6.54169,11.34088 -10.34043,15.04645 -17.47271,17.58488 -16.10005,26.70106 -47.69629,48.56126 -25.76749,12.87744 -48.35373,15.30025 -78.86464,18.74431 93.33939,28.56752 132.30842,-55.30012 161.10447,-77.17159 z"
       id="path3035"
       inkscape:connector-curvature="0"
       sodipodi:nodetypes="ccccccc" />
    <g
       id="g15210"
       transform="matrix(0.39086359,0,0,0.43825744,270.34183,133.95847)"
       style="stroke:#4d4d4d;stroke-width:1.53244388;stroke-miterlimit:4;stroke-opacity:1;stroke-dasharray:none" />
    <path
       style="fill:none;stroke:#ffcc00;stroke-width:1.77165353;stroke-linecap:round;stroke-linejoin:round;stroke-miterlimit:4;stroke-opacity:1;stroke-dasharray:none;display:inline"
       d="m 239.83456,218.23257 c -18.86467,7.93649 -37.17637,10.32293 -54.48113,4.6619 -5.58509,-0.3117 -11.61815,-2.41027 -16.56236,-6.72757 m 0.16647,-6.23041 c 26.96155,2.20716 9.20404,19.12775 -4.35104,25.41884 -11.73346,5.42415 -21.32322,3.74581 -21.2866,3.72488 0,0 -3.06167,-1.13312 -4.8277,-2.10322 -1.9365,0.77461 -1.95846,6.69691 3.46753,7.06672"
       id="path13094-7-6"
       inkscape:connector-curvature="0"
       sodipodi:nodetypes="cccccccc" />
    <path
       style="fill:none;stroke:#ffcc00;stroke-width:1.77165353;stroke-linecap:round;stroke-linejoin:round;stroke-miterlimit:4;stroke-opacity:1;stroke-dasharray:none;display:inline"
       d="m 238.55758,228.49078 c -18.93411,8.00963 -35.24606,9.24891 -52.62166,3.5647 -5.58509,-0.3117 -11.61815,-2.41026 -16.56236,-6.72756 m 0.16647,-6.23041 c 26.96155,2.20716 9.20404,19.12775 -4.35104,25.41884 -11.73346,5.42415 -21.32322,3.74581 -21.2866,3.72488 0,0 -3.06167,-1.13312 -4.8277,-2.10322 -1.9365,0.77461 -2.8173,6.58489 2.90741,6.61863"
       id="path13094-7-6-5"
       inkscape:connector-curvature="0"
       sodipodi:nodetypes="cccccccc" />
    <path
       style="fill:none;stroke:#ffcc00;stroke-width:1.77165353;stroke-linecap:round;stroke-linejoin:round;stroke-miterlimit:4;stroke-opacity:1;stroke-dasharray:none;display:inline"
       d="m 239.40657,237.11284 c -18.81496,7.88436 -36.51523,9.74813 -53.76938,4.10365 -5.58509,-0.3117 -11.61815,-2.41025 -16.56236,-6.72755 m 0.16647,-6.23041 c 26.96155,2.20716 9.20404,19.12775 -4.35104,25.41884 -11.73346,5.42415 -21.32322,3.74581 -21.2866,3.72488 0,0 -3.06167,-1.13312 -4.8277,-2.10322 -1.9365,0.77461 -2.29453,6.24882 3.3555,6.54395"
       id="path13094-7-6-5-1"
       inkscape:connector-curvature="0"
       sodipodi:nodetypes="cccccccc" />
    <path
       style="fill:none;stroke:#ffcc00;stroke-width:1.77165353;stroke-linecap:round;stroke-linejoin:round;stroke-miterlimit:4;stroke-opacity:1;stroke-dasharray:none;display:inline"
       d="m 239.54717,246.07577 c -19.42708,8.54056 -36.02596,10.15227 -53.90999,4.30173 -5.58509,-0.3117 -11.61815,-2.41024 -16.56236,-6.72754 m 0.16647,-6.23041 c 26.96155,2.20716 9.20404,19.12775 -4.35104,25.41884 -11.73346,5.42415 -21.32322,3.74581 -21.2866,3.72488 0,0 -3.06167,-1.13312 -4.8277,-2.10322 -1.9365,0.77461 -2.74262,6.58489 3.24348,6.88002"
       id="path13094-7-6-5-1-5"
       inkscape:connector-curvature="0"
       sodipodi:nodetypes="cccccccc" />
    <path
       style="fill:none;stroke:#ffcc00;stroke-width:1.77165353;stroke-linecap:round;stroke-linejoin:round;stroke-miterlimit:4;stroke-opacity:1;stroke-dasharray:none;display:inline"
       d="m 239.66365,206.2118 -0.0528,39.79341"
       id="path14816-1-6-1-7"
       inkscape:connector-curvature="0"
       sodipodi:nodetypes="cc" />
    <path
       style="opacity:0.68867929;fill:#e3e9ee;fill-opacity:1;stroke:#4d4d4d;stroke-width:0.63425195;stroke-linecap:round;stroke-linejoin:round;stroke-miterlimit:4;stroke-opacity:1;stroke-dasharray:none;display:inline"
       d="M 19.077195,195.73213 154.76086,231.08833 257.08207,210.48062 123.59345,175.28474 z"
       id="path36992"
       inkscape:connector-curvature="0"
       sodipodi:nodetypes="ccccc" />
    <path
       style="opacity:0.7;fill:none;stroke:#4d4d4d;stroke-width:0.63425195;stroke-linecap:round;stroke-linejoin:round;stroke-miterlimit:4;stroke-opacity:1;stroke-dasharray:none;display:inline"
       d="m 154.63087,313.07328 c 0,0 -135.558868,-36.25863 -135.558868,-36.28551 l 0.0132,-81.03974"
       id="path36982"
       inkscape:connector-curvature="0"
       sodipodi:nodetypes="ccc" />
    <path
       style="fill:none;stroke:#800080;stroke-width:1.69724405;stroke-linecap:round;stroke-linejoin:round;stroke-miterlimit:4;stroke-opacity:1;stroke-dasharray:none;display:inline"
       d="m 236.64206,204.5462 c 24.13198,-9.80734 44.30605,-29.57244 67.74248,-57.57831 6.1206,-6.69474 10.17558,-11.97528 18.42953,-17.30951"
       id="path3039-1"
       inkscape:connector-curvature="0"
       sodipodi:nodetypes="ccc" />
    <path
       style="opacity:0.41935485;fill:none;stroke:#800080;stroke-width:1.69724405;stroke-linecap:round;stroke-linejoin:round;stroke-miterlimit:4;stroke-opacity:1;stroke-dasharray:none"
       d="m 152.74987,194.90507 c -4.02035,5.64877 1.79856,8.86124 10.39739,12.41381 16.7858,7.90043 -11.66288,14.67804 -21.52505,16.76351"
       id="path15354"
       inkscape:connector-curvature="0"
       sodipodi:nodetypes="ccc" />
    <path
       style="fill:none;stroke:#ff0000;stroke-width:1.77165353;stroke-linecap:round;stroke-linejoin:round;stroke-miterlimit:4;stroke-opacity:1;stroke-dasharray:none;display:inline"
       d="m 141.90957,183.10882 -0.14936,43.08658"
       id="path14816-1"
       inkscape:connector-curvature="0"
       sodipodi:nodetypes="cc" />
    <path
       style="opacity:0.42652331;fill:none;stroke:#ff0000;stroke-width:1.77165353;stroke-linecap:round;stroke-linejoin:round;stroke-miterlimit:4;stroke-opacity:1;stroke-dasharray:none;display:inline"
       d="m 141.69244,227.78158 0.27311,43.61466"
       id="path14816-1-2"
       inkscape:connector-curvature="0"
       sodipodi:nodetypes="cc" />
    <path
       style="opacity:0.81362007;fill:none;stroke:#ff0000;stroke-width:1.77165353000000000;stroke-linecap:round;stroke-linejoin:round;stroke-miterlimit:4;stroke-opacity:1;stroke-dasharray:none;display:inline"
       d="m 239.6327,204.76393 0.0619,41.18548"
       id="path14816-1-2-7"
       inkscape:connector-curvature="0"
       sodipodi:nodetypes="cc" />
    <path
       style="opacity:0.59856627;fill:none;stroke:#800080;stroke-width:1.69724405;stroke-linecap:round;stroke-linejoin:round;stroke-miterlimit:4;stroke-opacity:1;stroke-dasharray:none;display:inline"
       d="m 165.94113,208.33837 c 25.86235,5.63037 47.65346,5.14095 69.55489,-3.1906"
       id="path3039-1-6"
       inkscape:connector-curvature="0"
       sodipodi:nodetypes="cc" />
    <path
       style="fill:none;stroke:#ff0000;stroke-width:1.77165353;stroke-linecap:round;stroke-linejoin:round;stroke-miterlimit:4;stroke-opacity:1;stroke-dasharray:none;display:inline"
       d="m 239.66365,144.18984 -0.10561,59.99121"
       id="path14816-1-6-1"
       inkscape:connector-curvature="0"
       sodipodi:nodetypes="cc" />
    <path
       style="opacity:0.35483871;fill:none;stroke:#000000;stroke-width:0.63425195;stroke-linecap:round;stroke-linejoin:round;stroke-miterlimit:4;stroke-opacity:1;stroke-dasharray:none"
       d="m 123.15095,175.20918 0,16.87818"
       id="path16586"
       inkscape:connector-curvature="0"
       sodipodi:nodetypes="cc" />
    <path
       style="color:#000000;fill:#1f638a;fill-opacity:1;fill-rule:evenodd;stroke:#1f638a;stroke-width:1.77165353;stroke-linecap:round;stroke-linejoin:round;stroke-miterlimit:4;stroke-opacity:1;stroke-dasharray:none;stroke-dashoffset:0;marker:none;visibility:visible;display:inline;overflow:visible;filter:url(#filter12295-8);enable-background:accumulate"
       d="m 47.796608,174.45889 0,21.2167"
       id="path13002-3"
       inkscape:connector-curvature="0" />
    <path
       style="opacity:0.60215053;fill:#e3e9ee;fill-opacity:1;stroke:none;display:inline"
       d="m 154.20756,231.4136 0,81.24263 -134.868041,-36.0708 -0.05711,-80.43205 z"
       id="path36982-1"
       inkscape:connector-curvature="0"
       sodipodi:nodetypes="ccccc" />
    <path
       style="opacity:0.7;fill:none;stroke:#4d4d4d;stroke-width:0.63425201;stroke-linecap:round;stroke-linejoin:round;stroke-miterlimit:4;stroke-opacity:1;stroke-dasharray:none;display:inline"
       d="m 256.94157,210.54216 0,82.5418 -102.28998,19.97276 0.0153,-81.9479"
       id="path36982-5-7"
       inkscape:connector-curvature="0"
       sodipodi:nodetypes="cccc" />
    <path
       style="opacity:0.68000034;fill:#e3e9ee;fill-opacity:1;stroke:none;display:inline"
       d="m 256.61913,210.94485 -0.0747,81.88833 -101.58067,19.86117 -0.0177,-81.33611 z"
       id="path36982-5-4"
       inkscape:connector-curvature="0"
       sodipodi:nodetypes="ccccc" />
    <g
       transform="translate(83.786897,268.49432)"
       id="g4349"
       style="display:inline">
      <ellipse
         cx="-44.919998"
         cy="-98.797997"
         rx="13.199"
         ry="13.469"
         fill="#1f638a"
         stroke-linecap="round"
         stroke-linejoin="round"
         stroke-width="1.0658"
         id="ellipse4343" />
      <text
         x="-51.39423"
         y="-91.055557"
         fill="#000000"
         font-family="'Arial Nova', 'Arial Unicode MS', 'Yu Gothic UI', sans-serif"
         font-size="12.8px"
         letter-spacing="0px"
         stroke-width="1.0667"
         word-spacing="0px"
         style="line-height:0%"
         xml:space="preserve"
         id="text4347"><tspan
           x="-51.39423"
           y="-91.055557"
           fill="#ffffff"
           font-family="'Arial Nova', 'Arial Unicode MS', 'Yu Gothic UI', sans-serif"
           font-size="21.333px"
           stroke="#ffffff"
           stroke-width="1.0667"
           style="line-height:1.25"
           id="tspan4345">1</tspan></text>
    </g>
  </g>
</svg>
