<svg version="1.1" viewBox="0 0 460.63 265.75" xmlns="http://www.w3.org/2000/svg" xmlns:xlink="http://www.w3.org/1999/xlink">
 <title>Abbildung für OPEN MIND Softwaredokumentation</title>
 <defs>
  <linearGradient id="linearGradient5041" x1="46.525" x2="204.32" y1="110.83" y2="191.61" gradientTransform="matrix(1.3174 0 0 1.3174 -10.866 822.69)" gradientUnits="userSpaceOnUse" xlink:href="#linearGradient17780-7"/>
  <linearGradient id="linearGradient5144" x1="207.48" x2="408.17" y1="104.34" y2="152.12" gradientTransform="matrix(1.3174 0 0 1.3174 28.966 822.69)" gradientUnits="userSpaceOnUse" xlink:href="#linearGradient17780-7"/>
  <linearGradient id="linearGradient17780-7">
   <stop stop-color="#ffffff" offset="0"/>
   <stop stop-color="#00385e" offset="1"/>
  </linearGradient>
  <linearGradient id="linearGradient12662" x1="90.654" x2="243.42" y1="966.62" y2="1003.5" gradientTransform="translate(-18)" gradientUnits="userSpaceOnUse" xlink:href="#linearGradient17780-7"/>
  <linearGradient id="linearGradient12702" x1="327.4" x2="496.43" y1="966.46" y2="1005.4" gradientUnits="userSpaceOnUse" xlink:href="#linearGradient17780-7"/>
 </defs>
 <g transform="translate(0 -786.61)">
  <g clip-rule="evenodd" fill-rule="evenodd" stroke="#4d4d4d" stroke-miterlimit="10">
   <g stroke-linecap="round" stroke-linejoin="round">
    <path d="m329.34 1033.6 115.26-43.906-0.0158-90.416c-11.468 4.1077-23.84 5.3646-34.28 11.665-13.314 8.035-19.335 25.906-25.895 39.029-6.5252 13.05-14.054 25.031-26.384 34.127-8.6199 6.3579-19.42 7.5568-29.059 11.682l-1.2502 0.32672 1.6244 37.494" fill="url(#linearGradient12702)" stroke-width=".63425"/>
    <polygon transform="matrix(1.3174 0 0 1.3174 28.966 822.69)" points="271.62 9.02 263 0.625 174.05 24.837 182.44 33.231" fill="#b9c8d3" stroke-width=".48143"/>
    <polyline transform="matrix(1.3174 0 0 1.3174 28.966 822.69)" points="182.44 33.231 174.05 24.837 174.05 115.02 182.44 123.42" fill="#dae2e7" stroke-width=".48143"/>
   </g>
   <polyline transform="matrix(1.3174 0 0 1.3174 28.966 822.69)" points="182.44 123.42 271.62 89.121 271.62 9.02 182.44 33.231 182.44 123.42 182.44 123.42" fill="#bbcad4" stroke-width=".48143"/>
   <polyline transform="matrix(1.3174 0 0 1.3174 28.966 822.69)" points="182.44 123.52 228.16 160.34 228.16 133.49 228.16 133.49 182.6 96.461" fill="#dae2e7" stroke-linecap="round" stroke-linejoin="round" stroke-width=".48143"/>
  </g>
  <path d="m385.55 851.31c-13.529 4.0656-26.374 8.2761-37.423 17.374-10.485 8.6331-14.448 21.074-20.396 32.898-5.4673 10.866-11.445 22.907-20.802 31-10.792 9.3327-24.058 12.886-37.289 17.299l59.975 48.699c13.616-4.0906 24.914-8.2208 36.063-17.531 10.202-8.5185 15.301-20.743 21.47-32.107 6.5028-11.981 11.006-24.274 21.485-33.372 9.8623-8.5633 23.65-12.091 35.661-16.551l-58.744-47.709" fill="url(#linearGradient5144)" stroke="#4d4d4d" stroke-linecap="round" stroke-linejoin="round" stroke-miterlimit="10" stroke-width=".63425"/>
  <path d="m315.26 958.41c19.531-11.818 3.79-35.957-24.486-28.413l5.2463-12.07c18.075-7.0414 39.935 1.5091 33.231 21.876l1.7494 0.75535c18.364-19.613 4.0794-43-25.651-33.696v-0.75373l6.9957-12.574c23.028-6.2876 40.227 4.2744 31.773 24.392l1.7494-0.25124c15.962-24.1-0.41038-43.872-25.407-35.558-0.56358 0.18763-1.6075 0.0718-1.7021 0.60528 5.2463-29.169 48.098-17.351 39.06 7.7951" clip-rule="evenodd" fill="none" stroke="#ffcc00" stroke-linecap="round" stroke-linejoin="round" stroke-miterlimit="10" stroke-width="2.8346"/>
  <text x="5.94771" y="818.57751" fill="#000000" font-family="'Arial Nova', 'Arial Unicode MS', 'Yu Gothic UI', sans-serif" letter-spacing="0px" word-spacing="0px" style="line-height:0%" xml:space="preserve"><tspan x="5.94771" y="818.57751" fill="#ffffff" font-family="'Arial Nova', 'Arial Unicode MS', 'Yu Gothic UI', sans-serif" font-size="18.193px" font-weight="bold" style="line-height:1.25">1</tspan></text>
  <g clip-rule="evenodd" fill-rule="evenodd" stroke="#4d4d4d" stroke-linecap="round" stroke-linejoin="round">
   <path d="m73.227 1033.9 115-44.22-0.0145-90.416c-11.47 4.1077-22.021 5.3646-32.46 11.665-13.314 8.035-19.333 25.906-25.895 39.029-6.5252 13.05-14.054 25.031-26.384 34.127-8.6199 6.3579-19.422 7.5568-29.06 11.682l-1.2489 0.32672-0.19624 37.494" fill="url(#linearGradient12662)" stroke-miterlimit="10" stroke-width=".63425"/>
   <g stroke-width=".48143">
    <polygon transform="matrix(1.3174 0 0 1.3174 -10.866 822.69)" points="98.641 0.625 9.689 24.837 18.079 33.231 107.26 9.02 107.26 9.02" fill="#b9c8d3"/>
    <polyline transform="matrix(1.3174 0 0 1.3174 -10.866 822.69)" points="18.079 33.231 9.689 24.837 9.689 115.02 18.079 123.42" fill="#dae2e7"/>
    <polyline transform="matrix(1.3174 0 0 1.3174 -10.866 822.69)" points="18.079 123.42 107.26 89.121 107.26 9.02 18.079 33.231 18.079 123.42 18.079 123.42" fill="#bbcad4"/>
    <polyline transform="matrix(1.3174 0 0 1.3174 -10.866 822.69)" points="18.079 123.52 63.795 160.34 63.795 133.49 63.795 133.49 18.237 96.461" fill="#dae2e7"/>
   </g>
  </g>
  <path d="m129.19 851.31c-13.529 4.0656-26.374 8.2748-37.424 17.374-10.484 8.6331-14.447 21.074-20.396 32.898-5.4673 10.866-11.444 22.907-20.802 31-10.792 9.3327-24.058 12.886-37.287 17.299l59.975 48.699c13.616-4.0906 24.915-8.2208 36.065-17.531 10.201-8.5185 15.301-20.743 21.469-32.107 6.5028-11.981 11.006-24.274 21.485-33.372 9.8623-8.5633 23.652-12.091 35.661-16.551l-58.744-47.709" fill="url(#linearGradient5041)" stroke="#4d4d4d" stroke-linecap="round" stroke-linejoin="round" stroke-miterlimit="10" stroke-width=".63425"/>
  <path d="m96.647 883.3c1.1491-19.871-12.077-26.93-34.148-17.203l29.547 31.693c5.1801-18.087-14.283-26.308-33.982-16.152l29.141 30.947c9.0414-17.355-12.426-30.919-32.35-18.568l28.734 30.203c1.9634-18.383-12.203-27.718-34.514-17.683l28.86 30.992c2.6788-19.304-12.132-29.077-34.205-19.35l27.766 29.548c4.6461-19.62-13.65-27.757-32.828-17.952l28.704 31.827" fill="none" stroke="#ffcc00" stroke-linecap="round" stroke-linejoin="round" stroke-miterlimit="10" stroke-width="2.8346"/>
  <g fill="#ffcc00" stroke="#000000" stroke-linecap="square" stroke-miterlimit="10">
   <polyline transform="matrix(-2.1184 -2.0897 2.2407 -1.9667 189.58 1191.1)" points="87.23 41.839 91.62 46.442 91.62 43.445 100.64 43.445 100.64 40.234 91.62 40.234 91.62 37.344 87.23 41.839" stroke-width=".33104"/>
   <polyline transform="matrix(-2.1184 -2.0897 2.2407 -1.9667 166.04 1236.5)" points="87.23 41.839 91.62 46.442 91.62 43.445 100.64 43.445 100.64 40.234 91.62 40.234 91.62 37.344 87.23 41.839" stroke-width=".33104"/>
   <g stroke-width=".98474">
    <path d="m336.73 855.43 6.6647 14.209 4.3894-8.2526c10.406 4.6045 13.803 11.693 17.78 18.893l5.5066-6.2971c-4.0778-7.2463-10.159-14.076-19.861-18.041l5.3391-6.159-19.729 5.6485"/>
    <path d="m308.63 882.36 17.874-3.7114-7.424-4.972c1.2846-6.2373 4.6537-11.243 13.296-13.133l-5.228-7.1564c-8.9087 3.3105-14.222 8.311-16.023 14.962l-7.1589-4.7945 4.6635 18.805"/>
    <path d="m346.3 910.73-15.63-1.423 6.2625-6.9393c-7.8753-8.2134-15.697-8.991-23.821-10.276l4.0433-7.3231c8.2022 1.364 16.696 4.7528 23.73 12.523l3.9705-7.1186 1.4138 20.473"/>
   </g>
  </g>
  <g transform="translate(76.363 901.16)">
   <ellipse cx="-44.92" cy="-98.798" rx="13.199" ry="13.469" d="m -31.720282,-98.79776 c 0,7.438558 -5.90954,13.4687 -13.199327,13.4687 -7.289787,0 -13.199328,-6.030142 -13.199328,-13.4687 0,-7.43856 5.909541,-13.4687 13.199328,-13.4687 7.289787,0 13.199327,6.03014 13.199327,13.4687 z" fill="#1f638a" stroke-linecap="round" stroke-linejoin="round" stroke-width="1.0658"/>
   <text x="-50.761276" y="-91.125885" fill="#000000" letter-spacing="0px" word-spacing="0px" style="line-height:0%" xml:space="preserve"><tspan x="-50.761276" y="-91.125885" fill="#ffffff" font-family="'Arial Nova', 'Arial Unicode MS', 'Yu Gothic UI', sans-serif" font-size="20px" stroke="#ffffff" stroke-width="1.0667" style="line-height:1.25">1</tspan></text>
  </g>
  <g transform="translate(300.13 901.87)">
   <ellipse cx="-13.718" cy="-98.798" rx="13.199" ry="13.469" d="m -0.51893806,-98.79776 c 0,7.438558 -5.90954024,13.4687 -13.19932794,13.4687 -7.289787,0 -13.199327,-6.030142 -13.199327,-13.4687 0,-7.43856 5.90954,-13.4687 13.199327,-13.4687 7.2897877,0 13.19932794,6.03014 13.19932794,13.4687 z" fill="#1f638a" stroke-linecap="round" stroke-linejoin="round" stroke-width="1.0658"/>
   <text x="-19.559933" y="-91.125885" fill="#000000" letter-spacing="0px" word-spacing="0px" style="line-height:0%" xml:space="preserve"><tspan x="-19.559933" y="-91.125885" fill="#ffffff" font-family="'Arial Nova', 'Arial Unicode MS', 'Yu Gothic UI', sans-serif" font-size="20px" stroke="#ffffff" stroke-width="1.0667" style="line-height:1.25">2</tspan></text>
  </g>
 </g>
</svg>
