<?xml version="1.0" encoding="UTF-8"?>
<svg width="18cm" height="8.3cm" version="1.1" xmlns="http://www.w3.org/2000/svg" xmlns:cc="http://creativecommons.org/ns#" xmlns:dc="http://purl.org/dc/elements/1.1/" xmlns:rdf="http://www.w3.org/1999/02/22-rdf-syntax-ns#" xmlns:xlink="http://www.w3.org/1999/xlink">
 <title>Abbildung für OPEN MIND Softwaredokumentation</title>
 <defs>
  <pattern id="pattern15154" patternTransform="matrix(.091239 -.040262 15.612 7.6789 360.18 927.8)" xlink:href="#pattern39779"/>
  <pattern id="pattern43819" patternTransform="matrix(.087533 .089051 -10.8 9.4887 445.7 876.43)" xlink:href="#pattern5669"/>
  <pattern id="pattern5669" patternTransform="matrix(.098888 .096147 -12.201 10.245 349.28 789.48)" xlink:href="#pattern5243-2"/>
  <pattern id="pattern5243-2" patternTransform="matrix(.098888 .096147 -12.201 10.245 4.7843 773.88)" xlink:href="#Strips1_64-1"/>
  <pattern id="Strips1_64-1" width="65" height="1" patternTransform="translate(0) scale(10)" patternUnits="userSpaceOnUse">
   <rect y="-.5" width="1" height="2"/>
  </pattern>
  <linearGradient id="linearGradient17780-7-4-4">
   <stop stop-color="#fff" offset="0"/>
   <stop stop-color="#00385e" offset="1"/>
  </linearGradient>
  <linearGradient id="linearGradient43747" x1="-28.968" x2="490.73" y1="917.82" y2="915.71" gradientTransform="matrix(.87984 0 0 .93161 3.5099 139.76)" gradientUnits="userSpaceOnUse" xlink:href="#linearGradient17780-7-4-4"/>
  <linearGradient id="linearGradient43803" x1="221.32" x2="708.71" y1="919.96" y2="916.39" gradientTransform="matrix(.93018 0 0 .93018 -56.158 140.48)" gradientUnits="userSpaceOnUse" xlink:href="#linearGradient17780-7-4-4"/>
  <linearGradient id="linearGradient43832" x1="439.53" x2="1086.9" y1="919.25" y2="919.25" gradientTransform="matrix(.93018 0 0 .93018 -83.877 141.24)" gradientUnits="userSpaceOnUse" xlink:href="#linearGradient17780-7-4-4"/>
  <pattern id="pattern39779" patternTransform="matrix(.094734 -.036834 16.247 6.9292 685.93 4.2645)" xlink:href="#pattern15014"/>
  <pattern id="pattern15014" patternTransform="matrix(.094734 -.036834 16.247 6.9292 705.67 -38.214)" xlink:href="#pattern14992"/>
  <pattern id="pattern14992" patternTransform="matrix(.094601 -.045348 16.272 8.5058 705.5 -57.205)" xlink:href="#pattern9529-8"/>
  <pattern id="pattern9529-8" patternTransform="matrix(.047355 -.045348 8.1452 8.5058 491.2 -118.79)" xlink:href="#pattern9496-5"/>
  <pattern id="pattern9496-5" patternTransform="matrix(.047355 -.045348 8.1452 8.5058 396.14 -51.594)" xlink:href="#pattern9487-8"/>
  <pattern id="pattern9487-8" patternTransform="matrix(.056516 -.039102 6.9938 10.109 354.71 164.31)" xlink:href="#Strips1_64-5"/>
  <pattern id="Strips1_64-5" width="65" height="1" patternTransform="translate(0) scale(10)" patternUnits="userSpaceOnUse">
   <rect y="-.5" width="1" height="2"/>
  </pattern>
  <pattern id="pattern15231" patternTransform="matrix(.091239 -.034016 15.612 6.4876 185.86 780.84)" xlink:href="#pattern15154-7"/>
  <pattern id="pattern15154-7" patternTransform="matrix(.098088 -.036569 16.784 6.9746 -7.5992 672.1)" xlink:href="#pattern39779-0"/>
  <pattern id="pattern39779-0" patternTransform="matrix(.094734 -.036834 16.247 6.9292 685.93 4.2645)" xlink:href="#pattern15014-5"/>
  <pattern id="pattern15014-5" patternTransform="matrix(.094734 -.036834 16.247 6.9292 705.67 -38.214)" xlink:href="#pattern14992-6"/>
  <pattern id="pattern14992-6" patternTransform="matrix(.094601 -.045348 16.272 8.5058 705.5 -57.205)" xlink:href="#pattern9529-8-7"/>
  <pattern id="pattern9529-8-7" patternTransform="matrix(.047355 -.045348 8.1452 8.5058 491.2 -118.79)" xlink:href="#pattern9496-5-3"/>
  <pattern id="pattern9496-5-3" patternTransform="matrix(.047355 -.045348 8.1452 8.5058 396.14 -51.594)" xlink:href="#pattern9487-8-8"/>
  <pattern id="pattern9487-8-8" patternTransform="matrix(.056516 -.039102 6.9938 10.109 354.71 164.31)" xlink:href="#Strips1_64-5-4"/>
  <pattern id="Strips1_64-5-4" width="65" height="1" patternTransform="translate(0) scale(10)" patternUnits="userSpaceOnUse">
   <rect y="-.5" width="1" height="2"/>
  </pattern>
  <pattern id="pattern15333" patternTransform="matrix(.091239 -.034016 15.612 6.4876 252.95 780.54)" xlink:href="#pattern15231-2"/>
  <pattern id="pattern15231-2" patternTransform="matrix(.098088 -.036569 16.784 6.9746 260.63 688.22)" xlink:href="#pattern15154-7-2"/>
  <pattern id="pattern15154-7-2" patternTransform="matrix(.098088 -.036569 16.784 6.9746 -7.5992 672.1)" xlink:href="#pattern39779-0-3"/>
  <pattern id="pattern39779-0-3" patternTransform="matrix(.094734 -.036834 16.247 6.9292 685.93 4.2645)" xlink:href="#pattern15014-5-6"/>
  <pattern id="pattern15014-5-6" patternTransform="matrix(.094734 -.036834 16.247 6.9292 705.67 -38.214)" xlink:href="#pattern14992-6-7"/>
  <pattern id="pattern14992-6-7" patternTransform="matrix(.094601 -.045348 16.272 8.5058 705.5 -57.205)" xlink:href="#pattern9529-8-7-1"/>
  <pattern id="pattern9529-8-7-1" patternTransform="matrix(.047355 -.045348 8.1452 8.5058 491.2 -118.79)" xlink:href="#pattern9496-5-3-5"/>
  <pattern id="pattern9496-5-3-5" patternTransform="matrix(.047355 -.045348 8.1452 8.5058 396.14 -51.594)" xlink:href="#pattern9487-8-8-5"/>
  <pattern id="pattern9487-8-8-5" patternTransform="matrix(.056516 -.039102 6.9938 10.109 354.71 164.31)" xlink:href="#Strips1_64-5-4-4"/>
  <pattern id="Strips1_64-5-4-4" width="65" height="1" patternTransform="translate(0) scale(10)" patternUnits="userSpaceOnUse">
   <rect y="-.5" width="1" height="2"/>
  </pattern>
  <linearGradient id="linearGradient13060" x1="439.53" x2="1086.9" y1="919.25" y2="919.25" gradientTransform="matrix(.93018 0 0 .93018 89.315 141.7)" gradientUnits="userSpaceOnUse">
   <stop stop-color="#fff" offset="0"/>
   <stop stop-color="#00385e" offset="1"/>
  </linearGradient>
  <pattern id="pattern13380" patternTransform="matrix(.087533 .089051 -10.8 9.4887 272.39 876.51)" xlink:href="#pattern43819-1"/>
  <pattern id="pattern43819-1" patternTransform="matrix(.082062 .083485 -10.125 8.8956 417.84 821.65)" xlink:href="#pattern5669-4"/>
  <pattern id="pattern5669-4" patternTransform="matrix(.098888 .096147 -12.201 10.245 349.28 789.48)" xlink:href="#pattern5243-2-6"/>
  <pattern id="pattern5243-2-6" patternTransform="matrix(.098888 .096147 -12.201 10.245 4.7843 773.88)" xlink:href="#Strips1_64-1-0"/>
  <pattern id="Strips1_64-1-0" width="65" height="1" patternTransform="translate(0) scale(10)" patternUnits="userSpaceOnUse">
   <rect y="-.5" width="1" height="2"/>
  </pattern>
  <pattern id="pattern13418" patternTransform="matrix(.087533 .089051 -10.8 9.4887 96.39 875.36)" xlink:href="#pattern13380-7"/>
  <pattern id="pattern13380-7" patternTransform="matrix(.082062 .083485 -10.125 8.8956 255.37 821.72)" xlink:href="#pattern43819-1-7"/>
  <pattern id="pattern43819-1-7" patternTransform="matrix(.082062 .083485 -10.125 8.8956 417.84 821.65)" xlink:href="#pattern5669-4-7"/>
  <pattern id="pattern5669-4-7" patternTransform="matrix(.098888 .096147 -12.201 10.245 349.28 789.48)" xlink:href="#pattern5243-2-6-7"/>
  <pattern id="pattern5243-2-6-7" patternTransform="matrix(.098888 .096147 -12.201 10.245 4.7843 773.88)" xlink:href="#Strips1_64-1-0-3"/>
  <pattern id="Strips1_64-1-0-3" width="65" height="1" patternTransform="translate(0) scale(10)" patternUnits="userSpaceOnUse">
   <rect y="-.5" width="1" height="2"/>
  </pattern>
  <pattern id="pattern13459" patternTransform="matrix(.087533 .089051 -10.8 9.4887 -70.086 875.74)" xlink:href="#pattern13418-9"/>
  <pattern id="pattern13418-9" patternTransform="matrix(.082062 .083485 -10.125 8.8956 90.366 820.65)" xlink:href="#pattern13380-7-9"/>
  <pattern id="pattern13380-7-9" patternTransform="matrix(.082062 .083485 -10.125 8.8956 255.37 821.72)" xlink:href="#pattern43819-1-7-8"/>
  <pattern id="pattern43819-1-7-8" patternTransform="matrix(.082062 .083485 -10.125 8.8956 417.84 821.65)" xlink:href="#pattern5669-4-7-1"/>
  <pattern id="pattern5669-4-7-1" patternTransform="matrix(.098888 .096147 -12.201 10.245 349.28 789.48)" xlink:href="#pattern5243-2-6-7-8"/>
  <pattern id="pattern5243-2-6-7-8" patternTransform="matrix(.098888 .096147 -12.201 10.245 4.7843 773.88)" xlink:href="#Strips1_64-1-0-3-2"/>
  <pattern id="Strips1_64-1-0-3-2" width="65" height="1" patternTransform="translate(0) scale(10)" patternUnits="userSpaceOnUse">
   <rect y="-.5" width="1" height="2"/>
  </pattern>
 </defs>
 <metadata>
  <rdf:RDF>
   <cc:Work rdf:about="">
    <dc:format>image/svg+xml</dc:format>
    <dc:type rdf:resource="http://purl.org/dc/dcmitype/StillImage"/>
    <dc:title>Abbildung für OPEN MIND Softwaredokumentation</dc:title>
    <dc:creator>
     <cc:Agent>
      <dc:title>OPEN MIND Technologies AG</dc:title>
     </cc:Agent>
    </dc:creator>
    <dc:rights>
     <cc:Agent>
      <dc:title>Alle Rechte vorbehalten.</dc:title>
     </cc:Agent>
    </dc:rights>
    <dc:publisher>
     <cc:Agent>
      <dc:title>Technische Redaktion</dc:title>
     </cc:Agent>
    </dc:publisher>
   </cc:Work>
  </rdf:RDF>
 </metadata>
 <g transform="translate(0 -808.82)">
  <g>
   <path d="m155.47 887.45v216.07h-135.19v-215.7z" fill="url(#linearGradient43747)" stroke="#4d4d4d" stroke-linecap="round" stroke-linejoin="round" stroke-width=".67654"/>
   <path d="m146.6 887.77v215.02l-126.34-0.2338 0.22354-214.42z" fill="url(#pattern13459)" opacity=".5"/>
   <g transform="matrix(1.1071 0 0 1.1806 -107.13 840.44)" fill="#739ba5" stroke="#16434a" stroke-width="1.1746">
    <path d="m144.2 195.26v-154.87l65.859 0.03438-0.0709 154.55" fill="#739ba5" stroke="#16434a" stroke-width="1.2529"/>
   </g>
  </g>
  <path d="m130.4 1070.7v-183.09h-82.389l0.09789 183.09z" fill="none" stroke="#16434a" stroke-linecap="round" stroke-linejoin="round" stroke-miterlimit="10" stroke-width=".64412"/>
  <g stroke-linecap="round" stroke-linejoin="round">
   <path d="m48.383 1070.8h81.743" color="#000000" fill="none" stroke="#16434a" stroke-width="1.1817"/>
   <g transform="matrix(1.1077 0 0 1.1077 -107.23 854.7)" fill="#a7b3b7" stroke="#8f9ea1" stroke-width="1.0001">
    <path d="m144.2 195.26v2e-5" fill="#a7b3b7" stroke="#8f9ea1" stroke-linecap="round" stroke-linejoin="round" stroke-width="1.0668"/>
   </g>
   <path d="m52.313 1070.7h72.869" color="#000000" fill="none" stroke="#16434a" stroke-width="1.1692"/>
  </g>
  <g clip-rule="evenodd" fill="none" stroke="#fc0" stroke-width="1.4324">
   <path d="m89.517 899.56-30.429 1.6581c-2.5265 0.0382-1.3208 0.72523 0.71379 0.85868l58.921 4.2078c1.7306 0.21029 1.328 1.198-1.0209 1.331l-56.877 3.2635c-2.4546 0.2103-3.0575 1.0259-0.30708 1.245l58.227 3.9505c1.7357 0.20984 1.8363 1.1115-0.61316 1.288l-58.798 3.2148c-1.3054 0.0861-1.0055 0.94471 0.94486 1.1221l58.341 4.379c1.632 0.0816 1.632 0.8973 0.61316 0.98773l-59.633 3.7359c-1.1287 0.0369-1.6309 0.85252 0.17768 0.98115l58.467 4.3368c2.4105 0.25418 2.2102 0.98774 0.16949 1.2072l-58.335 3.3017c-2.1106 0.21467-1.8086 1.1164 0.50221 1.2885l58.755 4.2556c1.3187 0.12379 1.5467 0.93594-0.59054 1.069l-58.566 2.9628c-2.0099 0.0856-2.1106 0.85871 0.44266 0.81963l28.271 2.0427"/>
   <path d="m89.517 1006.5-30.429 1.658c-2.5265 0.038-1.3208 0.7252 0.71379 0.8587l58.921 4.2078c1.7306 0.2103 1.328 1.198-1.0209 1.331l-56.877 3.2635c-2.4546 0.2103-3.0575 1.0259-0.30708 1.245l58.227 3.9505c1.7357 0.2099 1.8363 1.1116-0.61316 1.288l-58.798 3.2148c-1.3054 0.086-1.0055 0.9447 0.94486 1.1221l58.341 4.3789c1.632 0.082 1.632 0.8974 0.61316 0.9878l-59.633 3.7358c-1.1287 0.037-1.6309 0.8526 0.17768 0.9812l58.467 4.3368c2.4105 0.2542 2.2102 0.9878 0.16949 1.2073l-58.335 3.3016c-2.1106 0.2147-1.8086 1.1164 0.50221 1.2885l58.755 4.2556c1.3187 0.1238 1.5467 0.936-0.59054 1.069l-58.566 2.9628c-2.0099 0.086-2.1106 0.8587 0.44266 0.8196l28.322 2.4444"/>
   <path d="m88.484 953.1 30.429 1.6581c2.5265 0.0382 1.3208 0.72522-0.71379 0.85867l-58.921 4.2078c-1.7306 0.21028-1.328 1.198 1.0209 1.331l56.877 3.2635c2.4546 0.21028 3.0575 1.0259 0.30709 1.245l-58.227 3.9505c-1.7357 0.20983-1.8363 1.1115 0.61315 1.288l58.798 3.2148c1.3054 0.0861 1.0055 0.94471-0.94487 1.1221l-58.341 4.379c-1.632 0.0816-1.632 0.8973-0.61315 0.98773l59.633 3.7359c1.1287 0.0369 1.631 0.85252-0.17767 0.98115l-58.467 4.3368c-2.4105 0.25418-2.2102 0.98775-0.16949 1.2072l58.335 3.3017c2.1106 0.21468 1.8086 1.1164-0.50221 1.2885l-58.755 4.2556c-1.3187 0.12378-1.5467 0.93597 0.59054 1.069l58.566 2.9628c2.0099 0.086 2.1106 0.8587-0.44266 0.8196l-28.271 2.0427"/>
   <path d="m88.82 1060.5 30.429 1.6581c2.5265 0.038 1.3208 0.7252-0.71379 0.8587l-58.921 4.2078c-1.7306 0.2102-1.328 1.1979 1.0209 1.3309l28.367 1.6277"/>
  </g>
  <g>
   <path d="m312.57 887.01v215.74h-125.88v-215.37z" fill="url(#linearGradient43803)" stroke="#4d4d4d" stroke-linecap="round" stroke-linejoin="round" stroke-width=".67654"/>
   <path d="m313.08 887.39v215.02l-126.34-0.2338 0.22354-214.42z" fill="url(#pattern13418)" opacity=".5"/>
   <g>
    <path d="m210.91 1068.3v-181.34l77.115 0.0403-0.0831 180.96" fill="#739ba5" stroke="#16434a" stroke-width="1.249"/>
    <rect x="211.13" y="887.46" width="8.1967" height="180.47" color="#000000" fill="#fcd6a4" stroke="#7d7d7d" stroke-linejoin="round" stroke-width=".53311"/>
    <rect x="278.66" y="887.55" width="8.7854" height="180.45" color="#000000" fill="#fcd6a4" stroke="#7d7d7d" stroke-linejoin="round" stroke-width=".55189"/>
   </g>
  </g>
  <g fill="none" stroke="#16434a" stroke-linecap="round" stroke-linejoin="round">
   <path d="m278.7 1068.4v-181.35h-58.63l0.0695 181.35z" stroke-miterlimit="10" stroke-width=".65918"/>
   <g>
    <path d="m210.86 1068.3 77.108-0.2492" color="#000000" stroke-width="1.2491"/>
    <path d="m211.13 1068.2 76.613-0.083" color="#000000" stroke-width="1.4324"/>
    <path d="m249.63 876.08v192.48" stroke-dasharray="5.27344, 1.31836, 0.65918, 1.31836" stroke-width=".65918"/>
   </g>
  </g>
  <g clip-rule="evenodd" fill="none" stroke="#fc0" stroke-width="1.4324">
   <path d="m249.92 887.14-21.649 1.7527c-1.7975 0.0403-0.93967 0.76662 0.50781 0.9077l41.919 4.448c1.2312 0.22228 0.94479 1.2664-0.72632 1.407l-40.465 3.4498c-1.7464 0.22229-2.1753 1.0845-0.21847 1.3161l41.426 4.176c1.2349 0.22182 1.3065 1.175-0.43622 1.3616l-41.832 3.3983c-0.92872 0.091-0.71537 0.99865 0.67221 1.1861l41.507 4.629c1.1611 0.0863 1.1611 0.94852 0.43623 1.0441l-42.426 3.9491c-0.80304 0.0389-1.1603 0.9012 0.1264 1.0372l41.596 4.5844c1.7149 0.2687 1.5724 1.0441 0.12057 1.2762l-41.502 3.4902c-1.5016 0.22693-1.2868 1.1801 0.3573 1.362l41.801 4.4986c0.93821 0.13086 1.1004 0.98937-0.42014 1.13l-41.667 3.1319c-1.43 0.0906-1.5016 0.90774 0.31492 0.86643l20.114 2.1593"/>
   <path d="m249.92 1000.1-21.649 1.7528c-1.7975 0.04-0.93967 0.7666 0.50781 0.9076l41.919 4.448c1.2312 0.2223 0.94479 1.2664-0.72632 1.407l-40.465 3.4498c-1.7464 0.2223-2.1753 1.0845-0.21847 1.3161l41.426 4.1761c1.2349 0.2218 1.3065 1.1749-0.43622 1.3615l-41.832 3.3983c-0.92872 0.091-0.71537 0.9986 0.67221 1.1861l41.507 4.629c1.1611 0.086 1.1611 0.9485 0.43623 1.0441l-42.426 3.9491c-0.80304 0.039-1.1603 0.9012 0.1264 1.0372l41.596 4.5844c1.7149 0.2687 1.5724 1.0441 0.12057 1.2762l-41.502 3.4901c-1.5016 0.227-1.2868 1.1801 0.3573 1.362l41.801 4.4986c0.93821 0.1309 1.1004 0.9894-0.42014 1.13l-41.667 3.1319c-1.43 0.091-1.5016 0.9077 0.31492 0.8664l20.149 2.584"/>
   <path d="m249.19 943.73 21.649 1.7527c1.7975 0.0403 0.93967 0.76663-0.50783 0.90769l-41.919 4.448c-1.2312 0.22229-0.94479 1.2664 0.72631 1.407l40.465 3.4498c1.7464 0.2223 2.1753 1.0845 0.21847 1.3161l-41.426 4.176c-1.2349 0.22183-1.3065 1.175 0.43622 1.3616l41.832 3.3983c0.92871 0.091 0.71536 0.99865-0.67222 1.1861l-41.507 4.629c-1.1611 0.0863-1.1611 0.94854-0.43623 1.0441l42.426 3.9491c0.80304 0.0389 1.1603 0.90119-0.12641 1.0372l-41.596 4.5844c-1.7149 0.26869-1.5724 1.0441-0.12058 1.2762l41.502 3.4902c1.5016 0.22693 1.2867 1.1801-0.3573 1.362l-41.801 4.4986c-0.93821 0.13086-1.1004 0.98937 0.42014 1.13l41.667 3.1319c1.43 0.0905 1.5016 0.90773-0.31492 0.86643l-20.114 2.1594"/>
   <path d="m249.42 1057.2 21.649 1.7528c1.7975 0.04 0.93967 0.7666-0.50783 0.9076l-41.919 4.448c-1.2312 0.2223-0.94478 1.2664 0.7263 1.407l20.182 1.7205" stroke-linecap="round" stroke-linejoin="round"/>
  </g>
  <g>
   <path d="m488.49 887.77v215.74h-125.88v-215.37z" fill="url(#linearGradient43832)" stroke="#4d4d4d" stroke-linecap="round" stroke-linejoin="round" stroke-width=".67654"/>
   <path d="m489.08 888.53v215.02l-126.34-0.2338 0.22354-214.42z" fill="url(#pattern13380)" opacity=".5"/>
   <path d="m386.84 1069.1v-181.34l77.173 0.0403v181.08" fill="#739ba5" stroke="#16434a" stroke-width="1.4324"/>
  </g>
  <g fill="none" stroke="#16434a" stroke-linecap="round" stroke-linejoin="round">
   <path d="m469.16 1068.8v-181.2h-87.048l0.10336 181.2z" stroke-miterlimit="10" stroke-width=".72474"/>
   <g>
    <path d="m382.42 887.79h86.445" color="#000000" stroke-width="1.236"/>
    <path d="m386.63 1068.9 77.039-0.3841" color="#000000" stroke-width="1.236"/>
    <path d="m425.55 876.84v191.33" stroke-dasharray="5.27344, 1.31836, 0.65918, 1.31836" stroke-width=".65918"/>
   </g>
  </g>
  <g clip-rule="evenodd" fill="none" stroke="#fc0" stroke-width="1.4324">
   <path d="m425.61 887.66-31.554 1.7524c-1.3797 0.0924-1.0627 1.0142 0.99867 1.2046l61.663 4.7013c1.7249 0.0876 1.7249 0.96334 0.64807 1.0604l-63.028 4.0108c-1.193 0.0396-1.7238 0.91527 0.18779 1.0534l61.795 4.656c2.5477 0.27289 2.3361 1.0604 0.17914 1.2961l-61.656 3.5447c-2.2307 0.23048-1.9116 1.1985 0.53081 1.3833l62.1 4.5688c1.3938 0.1329 1.6348 1.0048-0.62415 1.1476l-61.901 3.1808c-2.1244 0.0918-2.2307 0.92191 0.46786 0.87997l29.881 2.1931"/>
   <path d="m425.96 981.62-32.162 1.7801c-2.6704 0.0411-1.396 0.7786 0.75442 0.92187l62.275 4.5175c1.8291 0.22576 1.4036 1.2862-1.079 1.429l-60.115 3.5037c-2.5944 0.22576-3.2316 1.1014-0.32456 1.3366l61.542 4.2413c1.8345 0.22528 1.9409 1.1934-0.64806 1.3829l-62.146 3.4513c-1.3797 0.092-1.0627 1.0143 0.99867 1.2047l61.663 4.7013c1.7249 0.088 1.7249 0.9633 0.64807 1.0604l-63.028 4.0108c-1.193 0.04-1.7238 0.9153 0.18779 1.0534l61.795 4.656c2.5477 0.2729 2.3361 1.0605 0.17914 1.2961l-61.656 3.5447c-2.2307 0.2305-1.9116 1.1985 0.53081 1.3833l62.1 4.5688c1.3938 0.1329 1.6348 1.0048-0.62415 1.1476l-61.901 3.1809c-2.1244 0.092-2.2307 0.9219 0.46786 0.88l29.934 2.6243"/>
   <path d="m424.87 924.33 32.162 1.7801c2.6704 0.0411 1.396 0.77861-0.75443 0.92188l-62.275 4.5175c-1.8291 0.22575-1.4036 1.2862 1.079 1.429l60.115 3.5037c2.5944 0.22577 3.2316 1.1014 0.32456 1.3366l-61.542 4.2413c-1.8345 0.22528-1.9409 1.1934 0.64807 1.3828l62.146 3.4514c1.3797 0.0924 1.0627 1.0143-0.99867 1.2047l-61.663 4.7013c-1.7249 0.0877-1.7249 0.96335-0.64806 1.0604l63.028 4.0108c1.193 0.0396 1.7238 0.91527-0.1878 1.0534l-61.795 4.656c-2.5477 0.27288-2.336 1.0604-0.17912 1.2961l61.656 3.5447c2.2307 0.23046 1.9116 1.1985-0.5308 1.3833l-62.1 4.5688c-1.3938 0.1329-1.6348 1.0048 0.62416 1.1476l61.901 3.1809c2.1244 0.0919 2.2307 0.92191-0.46786 0.87996l-29.881 2.1931"/>
  </g>
  <g>
   <path d="m211.76 888.03 6.8592 0.30244-0.0643 178.66-6.7336-0.041z" fill="url(#pattern15231)" opacity=".5"/>
   <path d="m278.85 887.73 8.8525 0.63464-0.0643 178.66-8.7268-0.3732z" fill="url(#pattern15333)" opacity=".5"/>
   <path d="m463.49 1060.5v7.9872l-76.188 0.2452v-8.2324z" fill="#fcd6a4" stroke="#4d4d4d" stroke-linecap="round" stroke-linejoin="round" stroke-width=".3959"/>
  </g>
  <path d="m407.52 1038.3 48.116 3.3342c1.8299 0.2158 1.4042 1.2292-1.0795 1.3657l-58.926 3.408c-2.5955 0.2157-3.233 1.0526-0.3247 1.2773l60.354 3.9936c1.8353 0.2153 1.9417 1.1405-0.64834 1.3216l-59.707 2.9913c-2.4196 0.012-3.025 1.4759-0.10187 1.9038l30.424 1.9111" clip-rule="evenodd" fill="none" stroke="#fc0" stroke-width="1.4324"/>
  <path d="m387.57 1060.9 75.528-0.1543-0.10985 7.5401-75.313 0.064z" fill="url(#pattern15154)" opacity=".5"/>
  <g fill="none">
   <path d="m89.128 882.05v189.8" stroke="#16434a" stroke-dasharray="4.98865, 1.24717, 0.623582, 1.24717" stroke-linecap="round" stroke-linejoin="round" stroke-width=".62358"/>
   <path d="m88.124 874.74 29.224 1.9828c1.7357 0.20985 1.8363 1.1115-0.61315 1.288l-58.798 3.2148c-1.3054 0.0861-1.0055 0.94471 0.94486 1.1221l58.341 4.379c1.632 0.0817 1.632 0.89731 0.61315 0.98775l-59.633 3.7358c-1.1287 0.0369-1.6309 0.85252 0.17768 0.98115l58.467 4.3368c2.4105 0.25419 2.2102 0.98775 0.16949 1.2072l-28.222 1.5973" clip-rule="evenodd" stroke="#fc0" stroke-width="1.4324"/>
   <path d="m163.93 874.6h-20.593" stroke="#000" stroke-linecap="round" stroke-linejoin="round" stroke-width=".67654"/>
  </g>
  <g transform="translate(-46.388 32.89)" stroke="#000" stroke-linecap="round" stroke-linejoin="round">
   <line x1="210.72" x2="210.72" y1="819.23" y2="838.4" fill="none" stroke-miterlimit="9" stroke-width=".67654"/>
   <path d="m210.66 840.45-4.1905-12.571h8.7619z" stroke-width="1.0658"/>
  </g>
  <g fill="none" stroke="#000" stroke-linecap="round" stroke-linejoin="round">
   <path d="m164.09 887.48h-10.057" stroke-width=".67654"/>
   <path d="m288.1 872.29v12.974" stroke-width=".7559"/>
   <path d="m279.05 872.25v13.105" stroke-width=".7559"/>
  </g>
  <g transform="translate(-13.586 11.044)" stroke="#000" stroke-linecap="round" stroke-linejoin="round">
   <path d="m303.84 860.93 12.571-4.1905v8.7619z" stroke-width="1.0658"/>
   <line x1="268.7" x2="286.11" y1="861.4" y2="861.4" fill="none" stroke-miterlimit="9" stroke-width=".7559"/>
   <path d="m290.83 860.95-12.571-4.1905v8.7619z" stroke-width="1.0658"/>
   <line x1="306.45" x2="322.72" y1="861.11" y2="861.11" fill="none" stroke-miterlimit="9" stroke-width=".7559"/>
  </g>
  <path d="m135.25 874.42h-90.185z" fill="none" stroke="#34679b" stroke-linecap="round" stroke-linejoin="round" stroke-miterlimit="10" stroke-width="1.5118"/>
  <g>
   <path d="m661.68 888.24v215.74h-125.88v-215.37z" fill="url(#linearGradient13060)" stroke="#4d4d4d" stroke-linecap="round" stroke-linejoin="round" stroke-width=".67654"/>
   <path d="m662.38 888.46v215.02l-126.34-0.2338 0.22355-214.42z" fill="url(#pattern43819)" opacity=".5"/>
   <path d="m560.03 1069.6v-181.34l77.173 0.0403v181.08" fill="#739ba5" stroke="#16434a" stroke-width="1.4324"/>
  </g>
  <g fill="none" stroke="#16434a" stroke-linecap="round" stroke-linejoin="round">
   <path d="m642.35 1069.2v-181.2h-87.048l0.10336 181.2z" stroke-miterlimit="10" stroke-width=".72474"/>
   <g>
    <path d="m555.62 888.25h86.445" color="#000000" stroke-width="1.236"/>
    <path d="m559.83 1069.3 77.039-0.3841" color="#000000" stroke-width="1.236"/>
    <path d="m598.74 877.3v191.33" stroke-dasharray="5.27344, 1.31836, 0.65918, 1.31836" stroke-width=".65918"/>
   </g>
  </g>
  <g clip-rule="evenodd" fill="none" stroke-width="1.4324">
   <g stroke="#fc0">
    <path d="m598.81 888.12-31.554 1.7524c-1.3797 0.0924-1.0627 1.0142 0.99866 1.2047l61.663 4.7013c1.7249 0.0876 1.7249 0.96333 0.64806 1.0604l-63.028 4.0108c-1.193 0.0396-1.7238 0.91527 0.1878 1.0534l61.795 4.656c2.5477 0.27288 2.3361 1.0604 0.17914 1.2961l-61.656 3.5447c-2.2307 0.23048-1.9116 1.1985 0.53081 1.3833l62.1 4.5688c1.3938 0.1329 1.6348 1.0048-0.62415 1.1476l-61.901 3.1808c-2.1244 0.0918-2.2307 0.92191 0.46786 0.87997l29.881 2.1931"/>
    <path d="m599.15 982.08-32.162 1.7801c-2.6704 0.0411-1.396 0.7786 0.75442 0.92188l62.275 4.5175c1.8291 0.22576 1.4036 1.2862-1.079 1.429l-60.115 3.5037c-2.5944 0.22576-3.2316 1.1014-0.32457 1.3366l61.542 4.2413c1.8345 0.22533 1.9409 1.1933-0.64806 1.3828l-62.146 3.4514c-1.3797 0.092-1.0627 1.0142 0.99866 1.2046l61.663 4.7013c1.7249 0.088 1.7249 0.9633 0.64806 1.0604l-63.028 4.0108c-1.193 0.04-1.7238 0.9153 0.1878 1.0534l61.795 4.656c2.5477 0.2729 2.3361 1.0605 0.17914 1.2961l-61.656 3.5447c-2.2307 0.2305-1.9116 1.1986 0.53081 1.3833l62.1 4.5688c1.3938 0.1329 1.6348 1.0049-0.62415 1.1477l-61.901 3.1808c-2.1244 0.092-2.2307 0.9219 0.46786 0.88l29.934 2.6243"/>
    <path d="m598.06 924.79 32.162 1.7801c2.6704 0.0411 1.396 0.77862-0.75444 0.92188l-62.275 4.5175c-1.8291 0.22575-1.4036 1.2862 1.079 1.429l60.115 3.5037c2.5944 0.22577 3.2316 1.1014 0.32457 1.3366l-61.542 4.2413c-1.8345 0.22528-1.9409 1.1934 0.64807 1.3828l62.146 3.4514c1.3797 0.0924 1.0627 1.0143-0.99867 1.2047l-61.663 4.7013c-1.7249 0.0877-1.7249 0.96335-0.64806 1.0604l63.028 4.0108c1.193 0.0396 1.7238 0.91527-0.1878 1.0534l-61.795 4.656c-2.5477 0.27289-2.336 1.0604-0.17912 1.2961l61.656 3.5447c2.2307 0.23046 1.9116 1.1985-0.5308 1.3833l-62.1 4.5688c-1.3938 0.1329-1.6348 1.0048 0.62416 1.1476l61.901 3.1808c2.1244 0.0919 2.2307 0.92191-0.46787 0.87997l-29.881 2.1931"/>
    <path d="m580.71 1038.8 48.116 3.3342c1.8299 0.2158 1.4042 1.2292-1.0795 1.3657l-58.926 3.408c-2.5955 0.2158-3.233 1.0526-0.32471 1.2774l60.354 3.9936c1.8353 0.2153 1.9417 1.1404-0.64835 1.3215l-59.707 2.9913c-2.4196 0.012-3.025 1.476-0.10187 1.9039l30.424 1.911"/>
    <path d="m597.76 1060.3 30.429 1.6581c2.5265 0.038 1.3208 0.7252-0.71379 0.8587l-58.921 4.2078c-1.7306 0.2103-1.328 1.198 1.0209 1.331l28.367 1.6276"/>
   </g>
   <path d="m597.49 1070 30.429 1.6581c2.5265 0.038 1.3208 0.7252-0.7138 0.8587l-58.921 4.2078c-1.7306 0.2103-1.328 1.198 1.0209 1.331l28.367 1.6276" stroke="#d4aa00"/>
  </g>
  <g transform="rotate(180 187.65 864.64)" stroke="#000" stroke-linecap="round" stroke-linejoin="round">
   <line x1="210.72" x2="210.72" y1="819.23" y2="838.4" fill="none" stroke-miterlimit="9" stroke-width=".67654"/>
   <path d="m210.66 840.45-4.1905-12.571h8.7619z" stroke-width="1.0658"/>
  </g>
  <g stroke="#000" stroke-linecap="round" stroke-linejoin="round">
   <path d="m354.74 1060.9h25.188" fill="none" stroke-width=".67654"/>
   <line x1="354.52" x2="354.52" y1="1041.9" y2="1057.9" fill="none" stroke-miterlimit="9" stroke-width=".7559"/>
   <g>
    <path d="m354.65 1059.6 4.1905-12.571h-8.7619z" stroke-width="1.0658"/>
    <path d="m355.05 1068.6h24.662" fill="none" stroke-width=".67654"/>
    <path d="m354.97 1069.9 4.1905 12.571h-8.7619z" stroke-width="1.0658"/>
   </g>
   <line x1="355.01" x2="355.01" y1="1073.5" y2="1089.4" fill="none" stroke-miterlimit="9" stroke-width=".7559"/>
   <path d="m525.06 1069.2h33.722" fill="none" stroke-width=".67654"/>
  </g>
  <g transform="translate(-8.381 -.047619)" stroke="#000" stroke-linecap="round" stroke-linejoin="round">
   <path d="m533.36 1048.1v18.075" fill="none" stroke-miterlimit="9" stroke-width=".7559"/>
   <path d="m533.5 1067.9 4.1905-12.571h-8.7619z" stroke-width="1.0658"/>
  </g>
  <path d="m525.56 1078h33.195" fill="none" stroke="#000" stroke-linecap="round" stroke-linejoin="round" stroke-width=".67654"/>
  <g transform="translate(-8.4762 .90476)" stroke="#000" stroke-linecap="round" stroke-linejoin="round">
   <path d="m533.82 1078.2 4.1905 12.572h-8.7619z" stroke-width="1.0658"/>
   <line x1="533.66" x2="533.66" y1="1081.4" y2="1097.4" fill="none" stroke-miterlimit="9" stroke-width=".7559"/>
  </g>
  <g transform="translate(226.39 943.33)">
   <ellipse cx="-44.92" cy="-98.798" rx="13.199" ry="13.469" fill="#1f638a" stroke-linecap="round" stroke-linejoin="round" stroke-width="1.0658"/>
   <text x="-50.761276" y="-91.125885" fill="#000000" font-family="'Arial Nova', 'Arial Unicode MS', 'Yu Gothic UI', sans-serif" font-size="12.8px" letter-spacing="0px" stroke-width="1.0667" word-spacing="0px" style="line-height:0%" xml:space="preserve"><tspan x="-50.761276" y="-91.125885" fill="#ffffff" font-family="'Arial Nova', 'Arial Unicode MS', 'Yu Gothic UI', sans-serif" font-size="21.333px" stroke="#ffffff" stroke-width="1.0667" style="line-height:1.25">1</tspan></text>
  </g>
  <g transform="translate(296.59 951.9)">
   <ellipse cx="-13.718" cy="-98.798" rx="13.199" ry="13.469" fill="#1f638a" stroke-linecap="round" stroke-linejoin="round" stroke-width="1.0658"/>
   <text x="-19.559933" y="-91.125885" fill="#000000" font-family="'Arial Nova', 'Arial Unicode MS', 'Yu Gothic UI', sans-serif" font-size="12.8px" letter-spacing="0px" stroke-width="1.0667" word-spacing="0px" style="line-height:0%" xml:space="preserve"><tspan x="-19.559933" y="-91.125885" fill="#ffffff" font-family="'Arial Nova', 'Arial Unicode MS', 'Yu Gothic UI', sans-serif" font-size="21.333px" stroke="#ffffff" stroke-width="1.0667" style="line-height:1.25">2</tspan></text>
  </g>
  <g transform="translate(317.5 1163.3)">
   <ellipse cx="17.483" cy="-98.798" rx="13.199" ry="13.469" fill="#1f638a" stroke-linecap="round" stroke-linejoin="round" stroke-width="1.0658"/>
   <text x="11.641406" y="-91.256096" fill="#000000" font-family="'Arial Nova', 'Arial Unicode MS', 'Yu Gothic UI', sans-serif" font-size="12.8px" letter-spacing="0px" stroke-width="1.0667" word-spacing="0px" style="line-height:0%" xml:space="preserve"><tspan x="11.641406" y="-91.256096" fill="#ffffff" font-family="'Arial Nova', 'Arial Unicode MS', 'Yu Gothic UI', sans-serif" font-size="21.333px" stroke="#ffffff" stroke-width="1.0667" style="line-height:1.25">3</tspan></text>
  </g>
  <g transform="translate(103.85 923.85)">
   <g transform="translate(354.56 247.34)">
    <ellipse cx="48.684" cy="-98.798" rx="13.199" ry="13.469" fill="#1f638a" stroke-linecap="round" stroke-linejoin="round" stroke-width="1.0658"/>
    <text x="42.842751" y="-91.162346" fill="#000000" font-family="'Arial Nova', 'Arial Unicode MS', 'Yu Gothic UI', sans-serif" font-size="12.8px" letter-spacing="0px" stroke-width="1.0667" word-spacing="0px" style="line-height:0%" xml:space="preserve"><tspan x="42.842751" y="-91.162346" fill="#ffffff" font-family="'Arial Nova', 'Arial Unicode MS', 'Yu Gothic UI', sans-serif" font-size="21.333px" stroke="#ffffff" stroke-width="1.0667" style="line-height:1.25">4</tspan></text>
   </g>
  </g>
 </g>
</svg>
