<?xml version="1.0" encoding="UTF-8"?>
<svg width="13cm" height="9cm" version="1.1" xmlns="http://www.w3.org/2000/svg" xmlns:cc="http://creativecommons.org/ns#" xmlns:dc="http://purl.org/dc/elements/1.1/" xmlns:rdf="http://www.w3.org/1999/02/22-rdf-syntax-ns#" xmlns:xlink="http://www.w3.org/1999/xlink">
 <title>Abbildung für OPEN MIND Softwaredokumentation</title>
 <defs>
  <linearGradient id="linearGradient14289" x1="124.59" x2="139.9" y1="43.042" y2="47.152" gradientTransform="matrix(2.182 -.10206 .10206 2.182 2.5823 744.3)" gradientUnits="userSpaceOnUse" xlink:href="#linearGradient20539-5"/>
  <linearGradient id="linearGradient20539-5" x1="54.983" x2="54.983" y1="34.986" y2="34.986" gradientUnits="userSpaceOnUse">
   <stop stop-color="#fff" offset="0"/>
   <stop stop-color="#FCFCFC" offset=".2264"/>
   <stop stop-color="#F4F4F4" offset=".3626"/>
   <stop stop-color="#E6E6E6" offset=".475"/>
   <stop stop-color="#D1D1D1" offset=".5744"/>
   <stop stop-color="#B7B7B7" offset=".6652"/>
   <stop stop-color="#979797" offset=".7498"/>
   <stop stop-color="#707070" offset=".8297"/>
   <stop stop-color="#444" offset=".9057"/>
   <stop stop-color="#121212" offset=".9761"/>
   <stop offset="1"/>
  </linearGradient>
  <linearGradient id="linearGradient14878" x1="254.3" x2="276.48" y1="808.05" y2="813.35" gradientTransform="scale(1.0667)" gradientUnits="userSpaceOnUse" xlink:href="#linearGradient20539-5"/>
  <linearGradient id="linearGradient14898" x1="227.84" x2="250.73" y1="28.504" y2="30.683" gradientTransform="matrix(1.7066 0 0 .54518 459.79 794.69)" gradientUnits="userSpaceOnUse" xlink:href="#linearGradient20539-5"/>
 </defs>
 <metadata>
  <rdf:RDF>
   <cc:Work rdf:about="">
    <dc:format>image/svg+xml</dc:format>
    <dc:type rdf:resource="http://purl.org/dc/dcmitype/StillImage"/>
    <dc:title>Abbildung für OPEN MIND Softwaredokumentation</dc:title>
    <dc:creator>
     <cc:Agent>
      <dc:title>OPEN MIND Technologies AG</dc:title>
     </cc:Agent>
    </dc:creator>
    <dc:rights>
     <cc:Agent>
      <dc:title>Alle Rechte vorbehalten.</dc:title>
     </cc:Agent>
    </dc:rights>
    <dc:publisher>
     <cc:Agent>
      <dc:title>Technische Redaktion</dc:title>
     </cc:Agent>
    </dc:publisher>
   </cc:Work>
  </rdf:RDF>
 </metadata>
 <g transform="translate(0 -782.36)">
  <g>
   <path d="m452.49 1074-20.997 5.0723v-10.145z" fill="#00f" stroke="#00f" stroke-linecap="round" stroke-linejoin="round" stroke-width="1.8898"/>
   <text x="445.3624" y="1088.0996" fill="#0000ff" font-family="'Arial Nova', 'Arial Unicode MS', 'Yu Gothic UI', sans-serif" font-size="12.8px" letter-spacing="0px" stroke="#0000ff" stroke-width="1.0667" word-spacing="0px" style="line-height:0%" xml:space="preserve"><tspan x="445.3624" y="1088.0996" fill="#0000ff" font-family="'Arial Nova', 'Arial Unicode MS', 'Yu Gothic UI', sans-serif" font-size="10.667px" stroke="#0000ff" stroke-width="1.0667" style="line-height:1.25">Z</tspan></text>
   <text x="360.12167" y="978.96832" fill="#000000" font-family="'Arial Nova', 'Arial Unicode MS', 'Yu Gothic UI', sans-serif" font-size="12.8px" letter-spacing="0px" stroke-width="1.0667" word-spacing="0px" style="line-height:0%" xml:space="preserve"><tspan x="360.12167" y="978.96832" fill="#ff0000" font-family="'Arial Nova', 'Arial Unicode MS', 'Yu Gothic UI', sans-serif" font-size="10.667px" stroke="#ff0000" stroke-width="1.0667" style="line-height:1.25">X</tspan></text>
   <path d="m249.01 829.35-15.935 63.206c16.225 14.76 35.258 16.809 53.778 5.357l13.649-57.656-51.492-10.907" fill="url(#linearGradient14878)" stroke="#4d4d4d" stroke-linecap="round" stroke-linejoin="round" stroke-miterlimit="10" stroke-width=".67654"/>
   <path d="m247.66 799.91-22.237 86.172 7.6254 5.9412 15.96-62.682c17.112 9.5846 60.751 15.434 63.339 8.0413l6.5073-23.976c-7.7283 9.4326-66.457-2.7063-70.879-14.761" fill="url(#linearGradient14289)" stroke="#4d4d4d" stroke-linecap="round" stroke-linejoin="round" stroke-miterlimit="10" stroke-width=".67654"/>
  </g>
  <path d="m234.01 895.48-22.719 2.7989-11.525-5.2449 0.0338-5.4969 25.38-1.4758 9.297 7.0832z" fill="#fd0" stroke="#4d4d4d" stroke-linecap="round" stroke-linejoin="round" stroke-width=".67654"/>
  <path d="m180.6 986.96 4.8425 3.6148-20.555 81.373-32.649-27.284 27.417-113.96 27.538 0.49272-5.6818 23.234-22.499-0.73271-7.8115 32.861z" fill="#ffd5d5" stroke="#ffd5d5" stroke-width=".63295"/>
  <path d="m173.19 877.53 67.856 57.785-41.33 165.43-67.884-56.416z" color="#000000" fill="#f00" fill-opacity=".05098" stroke="#f00" stroke-dasharray="2.02961, 2.02961" stroke-linecap="round" stroke-linejoin="round" stroke-width=".67654"/>
  <path d="m181.16 954.1-7.9899 32.063-22.509-0.0393 7.7443-31.957z" fill="#7ab51d"/>
  <path d="m209.05 893.76 53.209-0.17515-1.9892 13.106-52.972-0.99052 1.7529-11.941" fill="#e08a00" stroke="#4d4d4d" stroke-linecap="round" stroke-linejoin="round" stroke-width=".67654"/>
  <path d="m209.05 893.76-1.7529 11.941-9.0596-7.9078 1.5581-10.252z" fill="#fabb00" stroke="#4d4d4d" stroke-linecap="round" stroke-linejoin="round" stroke-width=".67654"/>
  <g fill="none">
   <path d="m19.676 1074 34.897-143.16 132.89 0.20226-6.1782 23.679-22.066-0.5402-7.9101 32.314 29.015 0.13278 10.726 8.5773 56.7 0.49912 14.817-8.5697 7.8343-0.34456 13.783-55.664 81.166 0.0165-35.352 142.89" stroke="#800080" stroke-linecap="round" stroke-linejoin="round" stroke-width="2.6457"/>
   <g stroke-width="1.4102">
    <path d="m191.27 968.42h-10.315" stroke="#e2001a"/>
    <path d="m329.95 1074.3-310.22-0.2309" stroke="#800080" stroke-dasharray="8.22598, 4.70056, 2.35028, 4.70056"/>
    <path d="m178.58 977.63 10.687 0.0558" stroke="#e2001a"/>
    <path d="m160.29 983.09-4.0007-5.4645h22.29" stroke="#fd0"/>
    <path d="m374.19 905.85-166.72-0.31263-19.572 78.412-27.187-0.21648-0.42339-0.63622" stroke="#e2001a"/>
    <path d="m161.3 972.64 1.1736 1.4973h27.214" stroke="#e2001a"/>
    <path d="m181.3 968.42-22.696-0.0558 2.7492 4.3906" stroke="#fd0"/>
    <path d="m164.74 963.09 1.1042 1.3311h26.769" stroke="#e2001a"/>
    <path d="m182.25 958.04h-21.032l3.9068 5.5745" stroke="#fd0"/>
    <path d="m194.01 958.09-11.76-0.0558" stroke="#e2001a"/>
   </g>
  </g>
  <g>
   <g stroke-linecap="round" stroke-linejoin="round">
    <g stroke-width="1.8898">
     <path d="m450.61 1074-121.63 0.2052" fill="#00f" stroke="#00f"/>
     <path d="m355.53 970.22-25.666 103.14" fill="#00f" stroke="#f00"/>
     <path d="m355.81 969.75-0.18997 21.6-9.8397-2.4688z" fill="#f00" stroke="#f00"/>
     <path d="m329.86 1074.2 30.548 25.975" fill="#7ab51d" stroke="#7ab51d"/>
    </g>
    <ellipse transform="matrix(.97104 .23893 -.66928 .74301 0 0)" cx="851.09" cy="811.42" rx="35.961" ry="9.93" color="#000000" fill="url(#linearGradient14898)" stroke="#4d4d4d" stroke-width=".72062"/>
    <path d="m371.43 1109.4-12.553-17.579-6.6405 7.6693z" fill="#7ab51d" stroke="#7ab51d" stroke-width="1.8898"/>
   </g>
   <text x="370.98749" y="1101.7755" fill="#00ff00" font-family="'Arial Nova', 'Arial Unicode MS', 'Yu Gothic UI', sans-serif" font-size="12.8px" letter-spacing="0px" stroke="#7ab51d" stroke-width="1.0667" word-spacing="0px" style="line-height:0%" xml:space="preserve"><tspan x="370.98749" y="1101.7755" fill="#00ff00" font-family="'Arial Nova', 'Arial Unicode MS', 'Yu Gothic UI', sans-serif" font-size="10.667px" stroke="#7ab51d" stroke-width="1.0667" style="line-height:1.25">Y</tspan></text>
  </g>
  <g stroke="#000" stroke-linecap="round" stroke-linejoin="round">
   <path d="m169.5 1052.8 12.571-4.1905v8.7619z" stroke-width="1.0658"/>
   <path d="m169.84 1053h156.23" stroke-width=".94488"/>
   <path d="m332 1052.8-12.571-4.1905v8.7619z" stroke-width="1.0658"/>
  </g>
  <g transform="matrix(1.0258 -.020446 -.2043 .97891 281.46 1130.2)">
   <ellipse cx="-44.92" cy="-98.798" rx="13.199" ry="13.469" fill="#1f638a" stroke-linecap="round" stroke-linejoin="round" stroke-width="1.0658"/>
   <text x="-50.761276" y="-91.125885" fill="#000000" font-family="'Arial Nova', 'Arial Unicode MS', 'Yu Gothic UI', sans-serif" font-size="12.8px" letter-spacing="0px" stroke-width="1.0667" word-spacing="0px" style="line-height:0%" xml:space="preserve"><tspan x="-50.761276" y="-91.125885" fill="#ffffff" font-family="'Arial Nova', 'Arial Unicode MS', 'Yu Gothic UI', sans-serif" font-size="21.333px" stroke="#ffffff" stroke-width="1.0667" style="line-height:1.25">1</tspan></text>
  </g>
 </g>
</svg>
