<?xml version="1.0" encoding="UTF-8"?>
<svg width="18cm" height="6cm" version="1.1" xmlns="http://www.w3.org/2000/svg" xmlns:cc="http://creativecommons.org/ns#" xmlns:dc="http://purl.org/dc/elements/1.1/" xmlns:rdf="http://www.w3.org/1999/02/22-rdf-syntax-ns#" xmlns:xlink="http://www.w3.org/1999/xlink">
 <title>Abbildung fuer OPEN MIND Softwaredokumentation</title>
 <defs>
  <linearGradient id="linearGradient23411" x1="-514.32" x2="380.53" y1="-828.31" y2="-823.26" gradientTransform="matrix(.29853 0 0 .29129 133.09 483.01)" gradientUnits="userSpaceOnUse">
   <stop stop-color="#fff" offset="0"/>
   <stop stop-color="#00385e" offset="1"/>
  </linearGradient>
  <linearGradient id="linearGradient23526" x1="-514.32" x2="380.53" y1="-828.31" y2="-823.26" gradientTransform="matrix(.29853 0 0 .29129 351.91 483.08)" gradientUnits="userSpaceOnUse">
   <stop stop-color="#fff" offset="0"/>
   <stop stop-color="#00385e" offset="1"/>
  </linearGradient>
  <linearGradient id="linearGradient23594" x1="-514.32" x2="380.53" y1="-828.31" y2="-823.26" gradientTransform="matrix(.29853 0 0 .29129 577.97 483.57)" gradientUnits="userSpaceOnUse">
   <stop stop-color="#fff" offset="0"/>
   <stop stop-color="#00385e" offset="1"/>
  </linearGradient>
 </defs>
 <metadata>
  <rdf:RDF>
   <cc:Work rdf:about="">
    <dc:format>image/svg+xml</dc:format>
    <dc:type rdf:resource="http://purl.org/dc/dcmitype/StillImage"/>
    <dc:title>Abbildung fuer OPEN MIND Softwaredokumentation</dc:title>
    <dc:creator>
     <cc:Agent>
      <dc:title>OPEN MIND Technologies AG</dc:title>
     </cc:Agent>
    </dc:creator>
    <dc:rights>
     <cc:Agent>
      <dc:title>Alle Rechte vorbehalten.</dc:title>
     </cc:Agent>
    </dc:rights>
    <dc:publisher>
     <cc:Agent>
      <dc:title>Technische Redaktion</dc:title>
     </cc:Agent>
    </dc:publisher>
   </cc:Work>
  </rdf:RDF>
 </metadata>
 <g transform="translate(0 -94.488)">
  <g>
   <path d="m50.833 203.96h97.57l32.762 33.054-0.308 32.593h-162.91v-32.758c0.0917-0.21237 32.889-32.889 32.889-32.889z" fill="url(#linearGradient23411)" opacity=".69697" stroke="#000" stroke-linecap="round" stroke-linejoin="round" stroke-width=".67654"/>
   <path d="m83.723 203.98h32.032v23.562h-32.186z" fill="#739ba5" stroke="#4d4d4d" stroke-width=".3049px"/>
   <path d="m148.38 204.02h77.616" fill="none" stroke="#000" stroke-linecap="round" stroke-linejoin="round" stroke-width=".67654"/>
   <path d="m22.278 232.54 22.609-22.691 16.691 16.631-22.718 22.8z" fill="#739ba5" stroke="#4d4d4d" stroke-width=".3049px"/>
  </g>
  <g fill="none" stroke="#0100fc" stroke-linecap="round" stroke-linejoin="round" stroke-width="1.0772">
   <path d="m33.764 222.12 6.884 2.3856"/>
   <path d="m48.328 236.31s-14.103-13.648-14.653-14.288l2.746 6.7113"/>
   <path d="m46.573 237.14 4.4291-0.66247"/>
   <path d="m49.014 234.67-0.65684 4.3348"/>
  </g>
  <path d="m154.13 209.84 22.549 22.751-16.735 16.586-22.657-22.86z" fill="#739ba5" stroke="#4d4d4d" stroke-width=".3049px"/>
  <path d="m269.65 204.04h97.57l32.762 33.054-0.308 32.593h-162.91v-32.758c0.0917-0.21237 32.889-32.889 32.889-32.889z" fill="url(#linearGradient23526)" opacity=".69697" stroke="#000" stroke-linecap="round" stroke-linejoin="round" stroke-width=".67654"/>
  <g fill="#739ba5" stroke="#4d4d4d" stroke-width=".3049px">
   <path d="m302.54 204.06h32.032v23.562h-32.186z"/>
   <path d="m241.1 232.61 22.609-22.691 16.691 16.631-22.718 22.8z"/>
   <path d="m372.94 209.91 22.549 22.751-16.735 16.586-22.657-22.86z"/>
  </g>
  <path d="m495.71 204.53h97.57l32.762 33.054-0.308 32.593h-162.91v-32.758c0.0917-0.21238 32.889-32.889 32.889-32.889z" fill="url(#linearGradient23594)" opacity=".69697" stroke="#000" stroke-linecap="round" stroke-linejoin="round" stroke-width=".67654"/>
  <g fill="#739ba5" stroke="#4d4d4d" stroke-width=".67654">
   <path d="m528.6 204.55h32.032v23.562h-32.186z"/>
   <path d="m467.16 233.1 22.609-22.691 16.691 16.631-22.718 22.8z"/>
   <path d="m599.01 210.41 22.549 22.751-16.735 16.586-22.657-22.86z"/>
  </g>
  <g transform="translate(-.53875 -25.869)">
   <path d="m224.63 230.59 1.5493 9.7182-6.4199-1.0602z" stroke="#000" stroke-linecap="round" stroke-linejoin="round" stroke-width=".79151"/>
   <text x="206.43883" y="261.45764" fill="#000000" font-family="'Arial Nova', 'Arial Unicode MS', 'Yu Gothic UI', sans-serif" font-size="12.8px" letter-spacing="0px" stroke-width="1.0667" word-spacing="0px" style="line-height:0%" xml:space="preserve"><tspan x="206.43883" y="261.45764" font-family="'Arial Nova', 'Arial Unicode MS', 'Yu Gothic UI', sans-serif" font-size="12.8px" stroke-width="1.0667" style="line-height:1.25">45°</tspan></text>
   <g stroke="#000" stroke-linecap="round" stroke-linejoin="round">
    <path d="m181.06 262.51 17.737 16.939" fill="none" stroke-width=".67654"/>
    <path d="m224.7 230.03c-1.1192 7.7626-3.2956 13.979-6.6905 20.906m-7.1132 11.669c-4.0776 5.4866-8.5717 10.151-14.087 14.383" fill="none" stroke-width=".67654"/>
    <path d="m196.93 276.7 4.758-8.6142 4.4086 4.7857z" stroke-width=".79151"/>
   </g>
  </g>
  <g transform="translate(218.44 -25.746)">
   <path d="m224.63 230.59 1.5493 9.7182-6.4199-1.0602z" stroke="#000" stroke-linecap="round" stroke-linejoin="round" stroke-width=".79151"/>
   <text x="206.43883" y="261.45764" fill="#000000" font-family="'Arial Nova', 'Arial Unicode MS', 'Yu Gothic UI', sans-serif" font-size="12.8px" letter-spacing="0px" stroke-width="1.0667" word-spacing="0px" style="line-height:0%" xml:space="preserve"><tspan x="206.43883" y="261.45764" font-family="'Arial Nova', 'Arial Unicode MS', 'Yu Gothic UI', sans-serif" font-size="12.8px" stroke-width="1.0667" style="line-height:1.25">45°</tspan></text>
   <g stroke="#000" stroke-linecap="round" stroke-linejoin="round">
    <path d="m181.06 262.51 17.737 16.939" fill="none" stroke-width=".67654"/>
    <path d="m224.7 230.03c-1.1192 7.7626-3.2956 13.979-6.6905 20.906m-7.1132 11.669c-4.0776 5.4866-8.5717 10.151-14.087 14.383" fill="none" stroke-width=".67654"/>
    <path d="m196.93 276.7 4.758-8.6142 4.4086 4.7857z" stroke-width=".79151"/>
   </g>
  </g>
  <path d="m367.48 203.85h77.616" fill="none" stroke="#000" stroke-linecap="round" stroke-linejoin="round" stroke-width=".67654"/>
  <path d="m593.76 204.42h77.616" fill="none" stroke="#000" stroke-linecap="round" stroke-linejoin="round" stroke-width=".67654"/>
  <g transform="translate(444.54 -25.175)">
   <path d="m224.63 230.59 1.5493 9.7182-6.4199-1.0602z" stroke="#000" stroke-linecap="round" stroke-linejoin="round" stroke-width=".79151"/>
   <text x="206.43883" y="261.45764" fill="#000000" font-family="'Arial Nova', 'Arial Unicode MS', 'Yu Gothic UI', sans-serif" font-size="12.8px" letter-spacing="0px" stroke-width="1.0667" word-spacing="0px" style="line-height:0%" xml:space="preserve"><tspan x="206.43883" y="261.45764" font-family="'Arial Nova', 'Arial Unicode MS', 'Yu Gothic UI', sans-serif" font-size="12.8px" stroke-width="1.0667" style="line-height:1.25">45°</tspan></text>
   <g stroke="#000" stroke-linecap="round" stroke-linejoin="round">
    <path d="m181.06 262.51 17.737 16.939" fill="none" stroke-width=".67654"/>
    <path d="m224.7 230.03c-1.1192 7.7626-3.2956 13.979-6.6905 20.906m-7.1132 11.669c-4.0776 5.4866-8.5717 10.151-14.087 14.383" fill="none" stroke-width=".67654"/>
    <path d="m196.93 276.7 4.758-8.6142 4.4086 4.7857z" stroke-width=".79151"/>
   </g>
  </g>
  <g fill="none" stroke="#0100fc" stroke-linecap="round" stroke-linejoin="round" stroke-width="2.2677">
   <path d="m20.455 147.57s0.03808 33.159-0.09099 34.578l4.909-11.225"/>
   <path d="m20.236 181.93-5.2048-11.155"/>
   <path d="m24.993 150.6-8.7748-6.8819"/>
   <path d="m24.935 143.86-8.7748 6.8819"/>
  </g>
  <g transform="matrix(-1 0 0 1 198.34 -.87481)" fill="none" stroke="#0100fc" stroke-linecap="round" stroke-linejoin="round" stroke-width="1.0772">
   <path d="m33.764 222.12 6.884 2.3856"/>
   <path d="m48.328 236.31s-14.103-13.648-14.653-14.288l2.746 6.7113"/>
   <path d="m46.573 237.14 4.4291-0.66247"/>
   <path d="m49.014 234.67-0.65684 4.3348"/>
  </g>
  <g transform="matrix(-.69606 .71798 .71798 .69606 -36.225 25.745)" fill="none" stroke="#0100fc" stroke-linecap="round" stroke-linejoin="round" stroke-width="1.0772">
   <path d="m33.764 222.12 6.884 2.3856"/>
   <path d="m48.328 236.31s-14.103-13.648-14.653-14.288l2.746 6.7113"/>
   <path d="m46.573 237.14 4.4291-0.66247"/>
   <path d="m49.014 234.67-0.65684 4.3348"/>
  </g>
  <g transform="matrix(-1 0 0 1 417.56 -.36161)" fill="none" stroke="#0100fc" stroke-linecap="round" stroke-linejoin="round" stroke-width="1.0772">
   <path d="m33.764 222.12 6.884 2.3856"/>
   <path d="m48.328 236.31s-14.103-13.648-14.653-14.288l2.746 6.7113"/>
   <path d="m46.573 237.14 4.4291-0.66247"/>
   <path d="m49.014 234.67-0.65684 4.3348"/>
  </g>
  <g transform="translate(218.95 .23457)" fill="none" stroke="#0100fc" stroke-linecap="round" stroke-linejoin="round" stroke-width="1.0772">
   <path d="m33.764 222.12 6.884 2.3856"/>
   <path d="m48.328 236.31s-14.103-13.648-14.653-14.288l2.746 6.7113"/>
   <path d="m46.573 237.14 4.4291-0.66247"/>
   <path d="m49.014 234.67-0.65684 4.3348"/>
  </g>
  <g transform="matrix(.69606 -.71798 -.71798 -.69606 454.37 405.7)" fill="none" stroke="#0100fc" stroke-linecap="round" stroke-linejoin="round" stroke-width="1.0772">
   <path d="m33.764 222.12 6.884 2.3856"/>
   <path d="m48.328 236.31s-14.103-13.648-14.653-14.288l2.746 6.7113"/>
   <path d="m46.573 237.14 4.4291-0.66247"/>
   <path d="m49.014 234.67-0.65684 4.3348"/>
  </g>
  <g transform="matrix(0 -1 -1 0 716.64 271.94)" fill="none" stroke="#0100fc" stroke-linecap="round" stroke-linejoin="round" stroke-width="1.0772">
   <path d="m33.764 222.12 6.884 2.3856"/>
   <path d="m48.328 236.31s-14.103-13.648-14.653-14.288l2.746 6.7113"/>
   <path d="m46.573 237.14 4.4291-0.66247"/>
   <path d="m49.014 234.67-0.65684 4.3348"/>
  </g>
  <g transform="matrix(.69417 -.70858 -.71999 -.70563 680.96 407.9)" fill="none" stroke="#0100fc" stroke-linecap="round" stroke-linejoin="round" stroke-width="1.0772">
   <path d="m33.764 222.12 6.884 2.3856"/>
   <path d="m48.328 236.31s-14.103-13.648-14.653-14.288l2.746 6.7113"/>
   <path d="m46.573 237.14 4.4291-0.66247"/>
   <path d="m49.014 234.67-0.65684 4.3348"/>
  </g>
  <g transform="rotate(-90 321.45 -50.324)" fill="none" stroke="#0100fc" stroke-linecap="round" stroke-linejoin="round" stroke-width="1.0772">
   <path d="m33.764 222.12 6.884 2.3856"/>
   <path d="m48.328 236.31s-14.103-13.648-14.653-14.288l2.746 6.7113"/>
   <path d="m46.573 237.14 4.4291-0.66247"/>
   <path d="m49.014 234.67-0.65684 4.3348"/>
  </g>
  <g transform="translate(144.76 269.17)">
   <ellipse cx="-44.92" cy="-98.798" rx="13.199" ry="13.469" fill="#1f638a" stroke-linecap="round" stroke-linejoin="round" stroke-width="1.0658"/>
   <text x="-50.761276" y="-91.125885" fill="#000000" font-family="'Arial Nova', 'Arial Unicode MS', 'Yu Gothic UI', sans-serif" font-size="12.8px" letter-spacing="0px" stroke-width="1.0667" word-spacing="0px" style="line-height:0%" xml:space="preserve"><tspan x="-50.761276" y="-91.125885" fill="#ffffff" font-family="'Arial Nova', 'Arial Unicode MS', 'Yu Gothic UI', sans-serif" font-size="21.333px" stroke="#ffffff" stroke-width="1.0667" style="line-height:1.25">1</tspan></text>
  </g>
  <g transform="translate(334.24 269.17)">
   <ellipse cx="-13.718" cy="-98.798" rx="13.199" ry="13.469" fill="#1f638a" stroke-linecap="round" stroke-linejoin="round" stroke-width="1.0658"/>
   <text x="-19.559933" y="-91.125885" fill="#000000" font-family="'Arial Nova', 'Arial Unicode MS', 'Yu Gothic UI', sans-serif" font-size="12.8px" letter-spacing="0px" stroke-width="1.0667" word-spacing="0px" style="line-height:0%" xml:space="preserve"><tspan x="-19.559933" y="-91.125885" fill="#ffffff" font-family="'Arial Nova', 'Arial Unicode MS', 'Yu Gothic UI', sans-serif" font-size="21.333px" stroke="#ffffff" stroke-width="1.0667" style="line-height:1.25">2</tspan></text>
  </g>
  <g transform="translate(529.44 269.17)">
   <ellipse cx="17.483" cy="-98.798" rx="13.199" ry="13.469" fill="#1f638a" stroke-linecap="round" stroke-linejoin="round" stroke-width="1.0658"/>
   <text x="11.641406" y="-91.256096" fill="#000000" font-family="'Arial Nova', 'Arial Unicode MS', 'Yu Gothic UI', sans-serif" font-size="12.8px" letter-spacing="0px" stroke-width="1.0667" word-spacing="0px" style="line-height:0%" xml:space="preserve"><tspan x="11.641406" y="-91.256096" fill="#ffffff" font-family="'Arial Nova', 'Arial Unicode MS', 'Yu Gothic UI', sans-serif" font-size="21.333px" stroke="#ffffff" stroke-width="1.0667" style="line-height:1.25">3</tspan></text>
  </g>
  <g transform="translate(56.403 173.56)">
   <ellipse cx="-36.9" cy="-49.598" rx="13.199" ry="13.469" fill="#1f638a" stroke-linecap="round" stroke-linejoin="round" stroke-width="1.0658"/>
   <text x="-44.014687" y="-41.962215" fill="#000000" font-family="'Arial Nova', 'Arial Unicode MS', 'Yu Gothic UI', sans-serif" font-size="12.8px" letter-spacing="0px" stroke-width="1.0667" word-spacing="0px" style="line-height:0%" xml:space="preserve"><tspan x="-44.014687" y="-41.962215" fill="#ffffff" font-family="'Arial Nova', 'Arial Unicode MS', 'Yu Gothic UI', sans-serif" font-size="21.333px" stroke="#ffffff" stroke-width="1.0667" style="line-height:1.25">A</tspan></text>
  </g>
  <g fill="none" stroke="#808080" stroke-width="1px">
   <path d="m35.383 268.77v-15.714l26.151-25.393h76.252l27.431 27.179v14.643"/>
   <path d="m253.3 268.51v-15.714l26.151-25.393h76.252l27.431 27.179v14.643"/>
   <path d="m481.15 268.86v-15.714l26.151-25.393h76.252l27.431 27.179v14.643"/>
  </g>
 </g>
</svg>
