<?xml version="1.0" encoding="UTF-8"?>
<svg width="460.63" height="248.03" version="1.1" xmlns="http://www.w3.org/2000/svg" xmlns:cc="http://creativecommons.org/ns#" xmlns:dc="http://purl.org/dc/elements/1.1/" xmlns:rdf="http://www.w3.org/1999/02/22-rdf-syntax-ns#" xmlns:xlink="http://www.w3.org/1999/xlink">
 <defs>
  <linearGradient id="linearGradient17780-7-22">
   <stop stop-color="#fff" offset="0"/>
   <stop stop-color="#00385e" offset="1"/>
  </linearGradient>
  <linearGradient id="linearGradient12529" x1="40.411" x2="304.05" y1="96.159" y2="96.159" gradientTransform="translate(443.11 725.36)" gradientUnits="userSpaceOnUse" xlink:href="#linearGradient17780-7-22"/>
  <linearGradient id="linearGradient12531" x1="39.527" x2="162.12" y1="194.52" y2="194.52" gradientTransform="translate(444.09 725.87)" gradientUnits="userSpaceOnUse" xlink:href="#linearGradient17780-7-22"/>
  <linearGradient id="linearGradient12533" x1="128.07" x2="337.47" y1="199.61" y2="192.39" gradientTransform="translate(443.78 726.53)" gradientUnits="userSpaceOnUse" xlink:href="#linearGradient17780-7-22"/>
  <linearGradient id="linearGradient12535" x1="-237.95" x2="154.07" y1="477.05" y2="477.67" gradientUnits="userSpaceOnUse">
   <stop stop-color="#366280" offset="0"/>
   <stop stop-color="#366280" stop-opacity="0" offset="1"/>
  </linearGradient>
 </defs>
 <metadata>
  <rdf:RDF>
   <cc:Work rdf:about="">
    <dc:format>image/svg+xml</dc:format>
    <dc:type rdf:resource="http://purl.org/dc/dcmitype/StillImage"/>
    <dc:title/>
   </cc:Work>
  </rdf:RDF>
 </metadata>
 <g transform="translate(0 -804.33)">
  <g transform="translate(-28.571 27.857)" fill="none" stroke="#d4aa00" stroke-linecap="round" stroke-linejoin="round" stroke-width="1.3429">
   <path d="m85.933 848.98 66.466-27.035 58.899 33.004-66.317 27.863z"/>
   <path d="m110.63 850.63 41.224-16.679 36.531 20.362-41.131 17.19z"/>
   <path d="m128.94 852.36 23.137-9.2591 20.503 11.303-23.085 9.5428z"/>
   <path d="m116.4 866.51 20.843-8.8137v-14.191"/>
   <path d="m95.959 870.68 56.073-22.819 49.689 27.857-55.947 23.518z"/>
   <path d="m116.87 872.18 34.778-14.078 30.819 17.186-34.7 14.509z"/>
   <path d="m131.82 873.3 19.519-7.815 17.297 9.5404-19.475 8.0544z"/>
   <path d="m121.66 885.48 17.583-7.4391v-11.977"/>
   <path d="m106.26 890.64 46.196-18.759 40.937 22.901-46.092 19.334z"/>
   <path d="m123.49 891.88 28.652-11.574 25.39 14.129-28.588 11.928z"/>
   <path d="m135.81 892.8 16.081-6.4248 14.25 7.8433-16.045 6.6216z"/>
   <path d="m127.44 902.81 14.486-6.1157v-9.8467"/>
   <path d="m112.92 907.44 39.097-15.786 34.646 19.272-39.009 16.27z"/>
   <path d="m127.45 908.41 24.249-9.7394 21.488 11.89-24.195 10.038z"/>
   <path d="m138.22 909.42 13.61-5.4066 12.06 6.6003-13.579 5.5722z"/>
   <path d="m130.84 917.68 12.26-5.1465v-8.2862"/>
   <path d="m122.11 920.86 30.281-12.317 26.834 15.036-30.213 12.694z"/>
   <path d="m132.96 921.65 18.781-7.5988 16.643 9.2766-18.739 7.8316z"/>
   <path d="m140.73 922.27 10.541-4.2183 9.3408 5.1496-10.517 4.3475z"/>
   <path d="m135.99 928.84 9.4955-4.0154v-6.465"/>
   <path d="m130.08 931.41 22.188-9.0249 19.662 11.018-22.138 9.3014z"/>
   <path d="m138.02 932 13.761-5.5679 12.195 6.7973-13.731 5.7385z"/>
   <path d="m143.72 932.45 7.7236-3.0909 6.8443 3.7733-7.7063 3.1856z"/>
   <path d="m140.25 937.27 6.9577-2.9422v-4.7372"/>
   <path d="m136.75 939.24 15.459-6.3 13.699 7.691-15.424 6.493z"/>
   <path d="m142.29 939.65 9.5881-3.8868 8.4965 4.745-9.5666 4.0059z"/>
   <path d="m146.26 939.97 5.3813-2.1576 4.7687 2.634-5.3693 2.2237z"/>
   <path d="m143.84 943.33 4.8477-2.0539v-3.3068"/>
  </g>
  <g transform="translate(56.974 -402.25)">
   <g transform="translate(-221.43 341.43)">
    <path d="m289.24 897.85-0.12164 72.847" fill="none" opacity=".6" stroke="#000" stroke-linecap="round" stroke-linejoin="round" stroke-width="1px"/>
    <g transform="translate(158.09 63.64)">
     <g stroke-linecap="round" stroke-linejoin="round">
      <g transform="matrix(.83209 0 0 .8321 -387.37 191.36)" stroke="#000" stroke-width="1.2018px">
       <path d="m627.96 756.86-143.94 59.875 121.17 70.062 140.87-59.469zm-4.9422 15.428s94.843 54.158 94.681 54.229l-108.48 43.948-93.91-52.938z" fill="url(#linearGradient12529)" opacity=".54839"/>
       <path d="m605.71 887.18-0.50508 136.88-121.09-72.226v-135.18" fill="url(#linearGradient12531)" opacity=".54839"/>
       <path d="m746.15 827.49v135l-140.67 61.569 0.26825-136.82" fill="url(#linearGradient12533)" opacity=".5914"/>
      </g>
      <path d="m15.348 870.92 16.886 78.273 83.929 48.344 92.974-41.618 24.184-75.292-116.65 48.705z" fill="none" stroke="#4d4d4d" stroke-width=".63425"/>
     </g>
     <path transform="translate(0 804.33)" d="m32.947 144.75 98.296-41.485 78.103 48.37-92.649 41.544z" fill="none" stroke="#4d4d4d" stroke-width=".63425"/>
    </g>
   </g>
   <path transform="translate(0 804.33)" d="m-21.964 472.41 89.821-37.679 78.661 44.821-90.089 37.054z" fill="url(#linearGradient12535)"/>
  </g>
 </g>
</svg>
