<svg version="1.1" viewBox="0 0 460.63 318.9" xmlns="http://www.w3.org/2000/svg" xmlns:xlink="http://www.w3.org/1999/xlink">
 <title>Abbildung fuer OPEN MIND Softwaredokumentation</title>
 <defs>
  <linearGradient id="linearGradient8230" x1="-406.95" x2="-248.67" y1="-26.415" y2="135.44" gradientTransform="matrix(1.0021 0 0 .51427 -161.58 601)" gradientUnits="userSpaceOnUse">
   <stop stop-color="#cccccc" offset="0"/>
   <stop stop-color="#cccccc" stop-opacity="0" offset="1"/>
  </linearGradient>
  <linearGradient id="linearGradient3519">
   <stop stop-color="#ffffff" offset="0"/>
   <stop stop-color="#00385e" offset="1"/>
  </linearGradient>
  <linearGradient id="linearGradient6218-7-4-0-5-2-09-1">
   <stop stop-color="#ff8500" offset="0"/>
   <stop stop-color="#ffffff" offset="1"/>
  </linearGradient>
  <linearGradient id="linearGradient14079-4" x1="42.614" x2="136.69" y1="98.053" y2="98.053" gradientTransform="matrix(1.3203 0 0 1.3203 -52.036 587.95)" gradientUnits="userSpaceOnUse" xlink:href="#linearGradient6218-7-4-0-5-2-09-1"/>
  <linearGradient id="linearGradient14788" x1="26.452" x2="403.57" y1="143.51" y2="155.65" gradientTransform="matrix(1.1688 0 0 1.1688 -4.5614 683.5)" gradientUnits="userSpaceOnUse" xlink:href="#linearGradient3519"/>
  <linearGradient id="linearGradient14801" x1="179.26" x2="311.97" y1="180.38" y2="195.94" gradientTransform="matrix(1.1688 0 0 1.1688 -4.5507 682.85)" gradientUnits="userSpaceOnUse" xlink:href="#linearGradient3519"/>
  <linearGradient id="linearGradient14804" x1="151.3" x2="272.98" y1="139.72" y2="160.03" gradientTransform="matrix(1.1688 0 0 1.1688 -4.5507 682.92)" gradientUnits="userSpaceOnUse" xlink:href="#linearGradient3519"/>
  <linearGradient id="linearGradient14807" x1="164.16" x2="205.77" y1="889.52" y2="895.21" gradientTransform="matrix(1.1688 0 0 1.1688 -3.1487 -174.68)" gradientUnits="userSpaceOnUse" xlink:href="#linearGradient3519"/>
  <linearGradient id="linearGradient14810" x1="163.67" x2="311.57" y1="184.09" y2="199.91" gradientTransform="matrix(1.1688 0 0 1.1688 -4.4031 682.7)" gradientUnits="userSpaceOnUse" xlink:href="#linearGradient3519"/>
  <linearGradient id="linearGradient14813" x1="80.413" x2="223.64" y1="169.78" y2="204.95" gradientTransform="matrix(1.1688 0 0 1.1688 -4.4031 682.7)" gradientUnits="userSpaceOnUse" xlink:href="#linearGradient3519"/>
  <linearGradient id="linearGradient14816" x1="37.839" x2="220.92" y1="207.49" y2="239.63" gradientTransform="matrix(1.1688 0 0 1.1688 -3.8046 683.23)" gradientUnits="userSpaceOnUse" xlink:href="#linearGradient3519"/>
  <linearGradient id="linearGradient14819" x1="31.469" x2="151.34" y1="168.74" y2="183.38" gradientTransform="matrix(1.1688 0 0 1.1688 -3.9432 683.08)" gradientUnits="userSpaceOnUse">
   <stop stop-color="#ffffff" offset="0"/>
   <stop stop-color="#00385e" offset="1"/>
  </linearGradient>
  <linearGradient id="linearGradient14822" x1="69.131" x2="379.62" y1="232.66" y2="263.37" gradientTransform="matrix(1.1688 0 0 1.1688 -3.4438 682.77)" gradientUnits="userSpaceOnUse" xlink:href="#linearGradient3519"/>
  <linearGradient id="linearGradient14825" x1="276.97" x2="321.54" y1="901.7" y2="901.7" gradientTransform="matrix(1.1688 0 0 1.1688 -70.518 -149.74)" gradientUnits="userSpaceOnUse" xlink:href="#linearGradient3519"/>
  <linearGradient id="linearGradient14828" x1="25.442" x2="132.56" y1="226.34" y2="256.7" gradientTransform="matrix(1.1688 0 0 1.1688 -4.0215 683.1)" gradientUnits="userSpaceOnUse" xlink:href="#linearGradient3519"/>
  <linearGradient id="linearGradient14831" x1="26.111" x2="264.96" y1="264.61" y2="264.61" gradientTransform="matrix(1.1688 0 0 1.1688 -4.4092 682.51)" gradientUnits="userSpaceOnUse" xlink:href="#linearGradient3519"/>
  <linearGradient id="linearGradient14834" x1="25.929" x2="221.93" y1="189.25" y2="189.25" gradientTransform="matrix(1.1688 0 0 1.1688 -3.9827 682.61)" gradientUnits="userSpaceOnUse" xlink:href="#linearGradient3519"/>
  <linearGradient id="linearGradient14922" x1="180.5" x2="245.53" y1="90.477" y2="90.477" gradientTransform="matrix(1.3203 0 0 1.3203 -54.509 -70.866)" gradientUnits="userSpaceOnUse" xlink:href="#linearGradient6218-7-4-0-5-2-09-1"/>
  <radialGradient id="radialGradient6233-1" cx="101.31" cy="47.276" r="53.629" gradientUnits="userSpaceOnUse">
   <stop stop-color="#DAE6B0" offset="0"/>
   <stop stop-color="#DAE6AF" offset=".0011"/>
   <stop stop-color="#BCD47E" offset=".0823"/>
   <stop stop-color="#A1C658" offset=".1579"/>
   <stop stop-color="#8DBD3B" offset=".2258"/>
   <stop stop-color="#7FB727" offset=".2835"/>
   <stop stop-color="#7AB51D" offset=".3242"/>
   <stop stop-color="#76B01D" offset=".3458"/>
   <stop stop-color="#60921C" offset=".4761"/>
   <stop stop-color="#4C7819" offset=".602"/>
   <stop stop-color="#3C6115" offset=".7204"/>
   <stop stop-color="#2E5011" offset=".8296"/>
   <stop stop-color="#26460E" offset=".9261"/>
   <stop stop-color="#23420D" offset="1"/>
  </radialGradient>
  <radialGradient id="radialGradient24598" cx="111.19" cy="40.784" r="27.322" gradientTransform="matrix(1.1365 0 0 1.1365 491.94 225.16)" gradientUnits="userSpaceOnUse">
   <stop stop-color="#FFFFFF" offset="0"/>
   <stop stop-color="#FFFDFB" offset=".0082"/>
   <stop stop-color="#FEEDD7" offset=".1014"/>
   <stop stop-color="#FDE1BB" offset=".1856"/>
   <stop stop-color="#FCD8AA" offset=".2572"/>
   <stop stop-color="#FCD6A4" offset=".3077"/>
   <stop stop-color="#FCD19A" offset=".3805"/>
   <stop stop-color="#FAC57F" offset=".5075"/>
   <stop stop-color="#F7B151" offset=".6725"/>
   <stop stop-color="#F6AA42" offset=".7253"/>
   <stop stop-color="#E2781B" offset=".905"/>
   <stop stop-color="#DA620D" offset="1"/>
  </radialGradient>
 </defs>
 <g transform="translate(0 -733.46)">
  <path d="m-568.71 757.58v-169.34h388.72" color="#000000" fill="none" stroke="url(#linearGradient8230)" stroke-linecap="round" stroke-linejoin="round" stroke-miterlimit="7" stroke-width=".96726"/>
  <g transform="translate(-7.0711 7.4949)" stroke="#4d4d4d">
   <g stroke-linecap="round" stroke-linejoin="round" stroke-width=".74128">
    <path d="m26.463 859.88 0.44273 132.83 227.91-42.576-1.6212-133.25z" fill="url(#linearGradient14834)" opacity=".58249"/>
    <path d="m26.479 992.19c1.6696-0.41736 227.07-42.993 227.07-42.993l51.342 41.324-227.18 43.306z" fill="url(#linearGradient14831)" opacity=".7"/>
    <path d="m26.527 859.83 0.10436 132.63 50.86 41.375 0.24451-91.948c-0.60766-3.4434-0.68307-6.9577-3.2631-10.138l-34.812-28.822c-2.0893-2.6123-2.961-6.3484-3.2467-10.626l-0.29515-16.824c-0.17917-4.7215-0.57374-7.3812-2.7607-10.052z" fill="url(#linearGradient14828)" opacity=".7"/>
    <path d="m253.56 817.29 19.224 15.935c2.9648 2.6403 3.5303 5.82 3.314 9.6214l-0.0716 20.797c-0.14239 3.1718 0.54281 6.7884 3.4825 9.476l20.699 16.721c2.9393 2.3592 4.6463 7.1118 4.5461 10.78l0.0901 89.871-51.268-40.62z" fill="url(#linearGradient14825)" opacity=".7"/>
    <path d="m77.871 941.56 68.808 5.3497c14.643-2.0533 16.559-9.0559 17.267-16.529l-0.32462-46.142 45.922-9.0812 26.679 46.922c3.9812 5.278 10.27 4.5308 15.643 2.804l52.906-24.498-0.0369 90.17-227.28 43.37z" fill="url(#linearGradient14822)" opacity=".7"/>
    <path d="m33.206 864.93 72.63-13.775c2.8479 2.7168 2.9506 6.4025 3.548 9.9135l-0.31306 38.35c-0.0522 6.1998-0.0919 8.7552 2.1392 10.018l-70.595-5.5829c-2.2525-2.247-3.6601-5.5804-3.9654-10.331l-0.41741-19.097c-0.06015-3.2153-0.36425-6.4178-3.0262-9.4961z" fill="url(#linearGradient14819)" opacity=".7"/>
    <path d="m40.79 904.02 70.094 5.1744 35.205 27.942c0.72052 0.52742 0.64578 1.79 0.89094 3.2572l-0.0264 6.4644-69.298-4.7675c-0.48375-5.8097-1.3602-8.0904-3.3519-10.383z" fill="url(#linearGradient14816)" opacity=".7"/>
    <path d="m105.39 850.72c6.8938-0.84425 13.78-2.0212 20.808 2.804l37.371 31.224 0.36894 45.565c-0.18787 12.956-8.9162 15.082-16.931 16.627l-0.14759-7.5264c-0.052-1.6135-0.61987-2.2036-1.2175-2.5088l-34.847-27.8c-2.873-0.92988-2.1583-9.8323-2.1583-9.8323l0.21612-38.752c-0.87564-5.2899-1.3871-7.7854-3.4628-9.8012z" fill="url(#linearGradient14813)" opacity=".7"/>
    <path d="m209.1 875.19 6.6786-1.2522 23.479 41.219c2.0193 1.2451 4.3115 1.3985 6.8873 0.41742l53.846-25.827c3.2099 1.8891 4.991 6.3359 4.6437 10.331l-53.168 24.679c-5.3474 1.5186-11.27 3.4257-15.757-3.7567z" fill="url(#linearGradient14810)" opacity=".7"/>
    <path d="m215.51 873.87-22.018-18.366c-2.5343-1.3516-3.462-0.70531-4.4089-0.46959 0.59328 0.78383 0.83038 1.499 1.5445 2.2537 5.4299 5.7383 12.606 12.002 18.413 17.939l6.6786-1.3566" fill="url(#linearGradient14807)" opacity=".7"/>
    <path d="m272.89 833.38-74.674 13.43c-6.6513 1.8338-11.337 3.9993-9.2974 8.4119 1.1088-0.11903 1.7434-0.79507 3.9332 0.36076l1.7612 1.3669 20.738 17.614 13.118 22.865 51.252-24.081c-2.3559-2.3762-3.6604-4.259-3.6589-10.009v-21.104c-0.25153-2.7461-0.19-5.7504-3.1729-8.8546z" fill="url(#linearGradient14804)" opacity=".7"/>
    <path d="m279.7 873.36 20.461 16.485-53.614 25.882c-3.2166 1.1952-5.243 0.86053-7.4526-0.44273l-10.57-17.811 3.6246-1.7061z" fill="url(#linearGradient14801)" opacity=".7"/>
   </g>
   <g fill="none" stroke-width=".74128">
    <g>
     <path d="m36.32 874.32 72.951-14.301c4.0907-0.4553 7.1106 0.33855 10.041 1.2371l34.906 28.326" opacity=".7" stroke-linecap="round" stroke-linejoin="round"/>
     <path d="m125.46 853.23c-3.2495 1.6272-6.2499 3.5391-6.7886 8.2643l0.18185 38.142c-0.27377 8.154-5.6858 8.8802-8.0034 9.2304" opacity=".7" stroke-linecap="round" stroke-linejoin="round"/>
     <path d="m36.771 893.52c0.59031-0.14757 81.61 6.0507 81.61 6.0507l35.56 29.525c3.0978 1.4281 6.1231 1.3784 10.043 1.2638" opacity=".7"/>
    </g>
    <g stroke-linecap="round" stroke-linejoin="round">
     <path d="m163.62 884.52c-3.5829 0.67919-6.5387 2.7918-9.4449 5.0176l0.25826 40.03c-0.88099 5.2584-4.0541 6.9113-7.839 7.508l-72.001-5.6893" opacity=".7"/>
     <path d="m206.45 867.16 13.124 22.624c3.7543 6.5569 6.2064 8.396 9.0636 7.7268" opacity=".37374"/>
     <path d="m276.14 842.16-74.084 14.02-8.1167 0.29515" opacity=".7"/>
     <path d="m275.85 863.64-52.479 24.339" opacity=".7"/>
     <path d="m251.27 924.81c-1.2399-3.1094-2.7611-6.1625-4.9807-9.076" opacity=".7"/>
    </g>
    <path d="m239.32 915.27c-0.81864 1.9215-1.8095 3.843-3.5925 5.7645" opacity=".7"/>
    <path d="m223.42 888.06c-3.7256 1.8882-6.7378 3.0571-7.1206 5.9769 0.072 2.7746 1.756 4.8474 4.4273 5.1652 2.2475 6e-3 5.3271-0.56546 8.1167-1.9554" opacity=".3165"/>
   </g>
   <path d="m26.49 859.85 226.62-43.006 20.366 16.824-75.855 13.872c-8.0426 1.8509-10.467 5.1064-7.3789 9.7401l18.724 18.121-45.809 9.2742-37.309-31.234c-4.9422-3.1061-11.69-3.7937-20.02-2.3597l-72.738 13.885c-2.0193-1.8114-3.5815-3.1223-6.5977-5.1167z" fill="url(#linearGradient14788)" opacity=".7" stroke-linecap="round" stroke-linejoin="round" stroke-width=".73978"/>
   <path d="m199.18 847.4c2.5596 3.1763 2.7144 5.6816 2.804 8.5595l4.5011 11.068" fill="none" opacity=".7" stroke-linecap="round" stroke-linejoin="round" stroke-width=".74128"/>
  </g>
 </g>
 <g transform="translate(0 -2.3266e-5)">
  <g transform="translate(0,8)">
   <g>
    <path d="m184.23 57.429 68.02-32.01 17.005 14.671-67.353 31.676z" fill="url(#linearGradient14922)" stroke="#4d4d4d" stroke-width=".83742"/>
    <path d="m226.16 49.652 14.463 30.146" fill="#34679b" stroke="#34679b" stroke-linecap="round" stroke-linejoin="round" stroke-width=".83742"/>
    <path d="m240.8 80.091-2.7354-16.173-9.573 5.0975z" fill="#34679b" stroke="#34679b" stroke-linecap="round" stroke-linejoin="round" stroke-width=".83742"/>
   </g>
   <g transform="translate(13.956 -646.67)" stroke-width=".83742">
    <path d="m4.6473 700.57 93.028 7.669 30.342 26.008-93.028-8.0024z" fill="url(#linearGradient14079-4)" stroke="#4d4d4d"/>
    <path d="m54.541 758.33 8.6031-13.966-10.559-2.4764z" fill="#34679b" stroke="#34679b" stroke-linecap="round" stroke-linejoin="round"/>
    <path d="m64.732 717.96-9.5028 36.177" fill="#0000fb" stroke="#34679b" stroke-linecap="round" stroke-linejoin="round"/>
   </g>
  </g>
 </g>
 <g transform="translate(0 17.717)" display="none">
  <g transform="translate(-5.6776 -749.92)" display="inline" stroke="#4d4d4d">
   <g stroke-linecap="round" stroke-linejoin="round" stroke-width=".74128">
    <path d="m26.463 859.88 0.44273 132.83 227.91-42.576-1.6212-133.25z" fill="url(#linearGradient14834)" opacity=".58249"/>
    <path d="m26.479 992.19c1.6696-0.41736 227.07-42.993 227.07-42.993l51.342 41.324-227.18 43.306z" fill="url(#linearGradient14831)" opacity=".7"/>
    <path d="m26.527 859.83 0.10436 132.63 50.86 41.375 0.24451-91.948c-0.60766-3.4434-0.68307-6.9577-3.2631-10.138l-34.812-28.822c-2.0893-2.6123-2.961-6.3484-3.2467-10.626l-0.29515-16.824c-0.17917-4.7215-0.57374-7.3812-2.7607-10.052z" fill="url(#linearGradient14828)" opacity=".7"/>
    <path d="m253.56 817.29 19.224 15.935c2.9648 2.6403 3.5303 5.82 3.314 9.6214l-0.0716 20.797c-0.14239 3.1718 0.54281 6.7884 3.4825 9.476l20.699 16.721c2.9393 2.3592 4.6463 7.1118 4.5461 10.78l0.0901 89.871-51.268-40.62z" fill="url(#linearGradient14825)" opacity=".7"/>
    <path d="m77.871 941.56 68.808 5.3497c14.643-2.0533 16.559-9.0559 17.267-16.529l-0.32462-46.142 45.922-9.0812 26.679 46.922c3.9812 5.278 10.27 4.5308 15.643 2.804l52.906-24.498-0.0369 90.17-227.28 43.37z" fill="url(#linearGradient14822)" opacity=".7"/>
    <path d="m33.206 864.93 72.63-13.775c2.8479 2.7168 2.9506 6.4025 3.548 9.9135l-0.31306 38.35c-0.0522 6.1998-0.0919 8.7552 2.1392 10.018l-70.595-5.5829c-2.2525-2.247-3.6601-5.5804-3.9654-10.331l-0.41741-19.097c-0.06015-3.2153-0.36425-6.4178-3.0262-9.4961z" fill="url(#linearGradient14819)" opacity=".7"/>
    <path d="m40.79 904.02 70.094 5.1744 35.205 27.942c0.72052 0.52742 0.64578 1.79 0.89094 3.2572l-0.0264 6.4644-69.298-4.7675c-0.48375-5.8097-1.3602-8.0904-3.3519-10.383z" fill="url(#linearGradient14816)" opacity=".7"/>
    <path d="m105.39 850.72c6.8938-0.84425 13.78-2.0212 20.808 2.804l37.371 31.224 0.36894 45.565c-0.18787 12.956-8.9162 15.082-16.931 16.627l-0.14759-7.5264c-0.052-1.6135-0.61987-2.2036-1.2175-2.5088l-34.847-27.8c-2.873-0.92988-2.1583-9.8323-2.1583-9.8323l0.21612-38.752c-0.87564-5.2899-1.3871-7.7854-3.4628-9.8012z" fill="url(#linearGradient14813)" opacity=".7"/>
    <path d="m209.1 875.19 6.6786-1.2522 23.479 41.219c2.0193 1.2451 4.3115 1.3985 6.8873 0.41742l53.846-25.827c3.2099 1.8891 4.991 6.3359 4.6437 10.331l-53.168 24.679c-5.3474 1.5186-11.27 3.4257-15.757-3.7567z" fill="url(#linearGradient14810)" opacity=".7"/>
    <path d="m215.51 873.87-22.018-18.366c-2.5343-1.3516-3.462-0.70531-4.4089-0.46959 0.59328 0.78383 0.83038 1.499 1.5445 2.2537 5.4299 5.7383 12.606 12.002 18.413 17.939l6.6786-1.3566" fill="url(#linearGradient14807)" opacity=".7"/>
    <path d="m272.89 833.38-74.674 13.43c-6.6513 1.8338-11.337 3.9993-9.2974 8.4119 1.1088-0.11903 1.7434-0.79507 3.9332 0.36076l1.7612 1.3669 20.738 17.614 13.118 22.865 51.252-24.081c-2.3559-2.3762-3.6604-4.259-3.6589-10.009v-21.104c-0.25153-2.7461-0.19-5.7504-3.1729-8.8546z" fill="url(#linearGradient14804)" opacity=".7"/>
    <path d="m279.7 873.36 20.461 16.485-53.614 25.882c-3.2166 1.1952-5.243 0.86053-7.4526-0.44273l-10.57-17.811 3.6246-1.7061z" fill="url(#linearGradient14801)" opacity=".7"/>
   </g>
   <g fill="none" stroke-width=".74128">
    <g>
     <path d="m36.32 874.32 72.951-14.301c4.0907-0.4553 7.1106 0.33855 10.041 1.2371l34.906 28.326" opacity=".7" stroke-linecap="round" stroke-linejoin="round"/>
     <path d="m125.46 853.23c-3.2495 1.6272-6.2499 3.5391-6.7886 8.2643l0.18185 38.142c-0.27377 8.154-5.6858 8.8802-8.0034 9.2304" opacity=".7" stroke-linecap="round" stroke-linejoin="round"/>
     <path d="m36.771 893.52c0.59031-0.14757 81.61 6.0507 81.61 6.0507l35.56 29.525c3.0978 1.4281 6.1231 1.3784 10.043 1.2638" opacity=".7"/>
    </g>
    <g stroke-linecap="round" stroke-linejoin="round">
     <path d="m163.62 884.52c-3.5829 0.67919-6.5387 2.7918-9.4449 5.0176l0.25826 40.03c-0.88099 5.2584-4.0541 6.9113-7.839 7.508l-72.001-5.6893" opacity=".7"/>
     <path d="m206.45 867.16 13.124 22.624c3.7543 6.5569 6.2064 8.396 9.0636 7.7268" opacity=".37374"/>
     <path d="m276.14 842.16-74.084 14.02-8.1167 0.29515" opacity=".7"/>
     <path d="m275.85 863.64-52.479 24.339" opacity=".7"/>
     <path d="m251.27 924.81c-1.2399-3.1094-2.7611-6.1625-4.9807-9.076" opacity=".7"/>
    </g>
    <path d="m239.32 915.27c-0.81864 1.9215-1.8095 3.843-3.5925 5.7645" opacity=".7"/>
    <path d="m223.42 888.06c-3.7256 1.8882-6.7378 3.0571-7.1206 5.9769 0.072 2.7746 1.756 4.8474 4.4273 5.1652 2.2475 6e-3 5.3271-0.56546 8.1167-1.9554" opacity=".3165"/>
   </g>
   <path d="m26.49 859.85 226.62-43.006 20.366 16.824-75.855 13.872c-8.0426 1.8509-10.467 5.1064-7.3789 9.7401l18.724 18.121-45.809 9.2742-37.309-31.234c-4.9422-3.1061-11.69-3.7937-20.02-2.3597l-72.738 13.885c-2.0193-1.8114-3.5815-3.1223-6.5977-5.1167z" fill="url(#linearGradient14788)" opacity=".7" stroke-linecap="round" stroke-linejoin="round" stroke-width=".73978"/>
   <path d="m199.18 847.4c2.5596 3.1763 2.7144 5.6816 2.804 8.5595l4.5011 11.068" fill="none" opacity=".7" stroke-linecap="round" stroke-linejoin="round" stroke-width=".74128"/>
  </g>
  <g transform="translate(560.42 -864.06)" display="inline" stroke="#4d4d4d">
   <g stroke-linecap="round" stroke-linejoin="round" stroke-width=".74128">
    <path d="m26.463 859.88 0.44273 132.83 227.91-42.576-1.6212-133.25z" fill="url(#linearGradient14834)" opacity=".58249"/>
    <path d="m26.479 992.19c1.6696-0.41736 227.07-42.993 227.07-42.993l51.342 41.324-227.18 43.306z" fill="url(#linearGradient14831)" opacity=".7"/>
    <path d="m26.527 859.83 0.10436 132.63 50.86 41.375 0.24451-91.948c-0.60766-3.4434-0.68307-6.9577-3.2631-10.138l-34.812-28.822c-2.0893-2.6123-2.961-6.3484-3.2467-10.626l-0.29515-16.824c-0.17917-4.7215-0.57374-7.3812-2.7607-10.052z" fill="url(#linearGradient14828)" opacity=".7"/>
    <path d="m253.56 817.29 19.224 15.935c2.9648 2.6403 3.5303 5.82 3.314 9.6214l-0.0716 20.797c-0.14239 3.1718 0.54281 6.7884 3.4825 9.476l20.699 16.721c2.9393 2.3592 4.6463 7.1118 4.5461 10.78l0.0901 89.871-51.268-40.62z" fill="url(#linearGradient14825)" opacity=".7"/>
    <path d="m77.871 941.56 68.808 5.3497c14.643-2.0533 16.559-9.0559 17.267-16.529l-0.32462-46.142 45.922-9.0812 26.679 46.922c3.9812 5.278 10.27 4.5308 15.643 2.804l52.906-24.498-0.0369 90.17-227.28 43.37z" fill="url(#linearGradient14822)" opacity=".7"/>
    <path d="m33.206 864.93 72.63-13.775c2.8479 2.7168 2.9506 6.4025 3.548 9.9135l-0.31306 38.35c-0.0522 6.1998-0.0919 8.7552 2.1392 10.018l-70.595-5.5829c-2.2525-2.247-3.6601-5.5804-3.9654-10.331l-0.41741-19.097c-0.06015-3.2153-0.36425-6.4178-3.0262-9.4961z" fill="url(#linearGradient14819)" opacity=".7"/>
    <path d="m40.79 904.02 70.094 5.1744 35.205 27.942c0.72052 0.52742 0.64578 1.79 0.89094 3.2572l-0.0264 6.4644-69.298-4.7675c-0.48375-5.8097-1.3602-8.0904-3.3519-10.383z" fill="url(#linearGradient14816)" opacity=".7"/>
    <path d="m105.39 850.72c6.8938-0.84425 13.78-2.0212 20.808 2.804l37.371 31.224 0.36894 45.565c-0.18787 12.956-8.9162 15.082-16.931 16.627l-0.14759-7.5264c-0.052-1.6135-0.61987-2.2036-1.2175-2.5088l-34.847-27.8c-2.873-0.92988-2.1583-9.8323-2.1583-9.8323l0.21612-38.752c-0.87564-5.2899-1.3871-7.7854-3.4628-9.8012z" fill="url(#linearGradient14813)" opacity=".7"/>
    <path d="m209.1 875.19 6.6786-1.2522 23.479 41.219c2.0193 1.2451 4.3115 1.3985 6.8873 0.41742l53.846-25.827c3.2099 1.8891 4.991 6.3359 4.6437 10.331l-53.168 24.679c-5.3474 1.5186-11.27 3.4257-15.757-3.7567z" fill="url(#linearGradient14810)" opacity=".7"/>
    <path d="m215.51 873.87-22.018-18.366c-2.5343-1.3516-3.462-0.70531-4.4089-0.46959 0.59328 0.78383 0.83038 1.499 1.5445 2.2537 5.4299 5.7383 12.606 12.002 18.413 17.939l6.6786-1.3566" fill="url(#linearGradient14807)" opacity=".7"/>
    <path d="m272.89 833.38-74.674 13.43c-6.6513 1.8338-11.337 3.9993-9.2974 8.4119 1.1088-0.11903 1.7434-0.79507 3.9332 0.36076l1.7612 1.3669 20.738 17.614 13.118 22.865 51.252-24.081c-2.3559-2.3762-3.6604-4.259-3.6589-10.009v-21.104c-0.25153-2.7461-0.19-5.7504-3.1729-8.8546z" fill="url(#linearGradient14804)" opacity=".7"/>
    <path d="m279.7 873.36 20.461 16.485-53.614 25.882c-3.2166 1.1952-5.243 0.86053-7.4526-0.44273l-10.57-17.811 3.6246-1.7061z" fill="url(#linearGradient14801)" opacity=".7"/>
   </g>
   <g fill="none" stroke-width=".74128">
    <g>
     <path d="m36.32 874.32 72.951-14.301c4.0907-0.4553 7.1106 0.33855 10.041 1.2371l34.906 28.326" opacity=".7" stroke-linecap="round" stroke-linejoin="round"/>
     <path d="m125.46 853.23c-3.2495 1.6272-6.2499 3.5391-6.7886 8.2643l0.18185 38.142c-0.27377 8.154-5.6858 8.8802-8.0034 9.2304" opacity=".7" stroke-linecap="round" stroke-linejoin="round"/>
     <path d="m36.771 893.52c0.59031-0.14757 81.61 6.0507 81.61 6.0507l35.56 29.525c3.0978 1.4281 6.1231 1.3784 10.043 1.2638" opacity=".7"/>
    </g>
    <g stroke-linecap="round" stroke-linejoin="round">
     <path d="m163.62 884.52c-3.5829 0.67919-6.5387 2.7918-9.4449 5.0176l0.25826 40.03c-0.88099 5.2584-4.0541 6.9113-7.839 7.508l-72.001-5.6893" opacity=".7"/>
     <path d="m206.45 867.16 13.124 22.624c3.7543 6.5569 6.2064 8.396 9.0636 7.7268" opacity=".37374"/>
     <path d="m276.14 842.16-74.084 14.02-8.1167 0.29515" opacity=".7"/>
     <path d="m275.85 863.64-52.479 24.339" opacity=".7"/>
     <path d="m251.27 924.81c-1.2399-3.1094-2.7611-6.1625-4.9807-9.076" opacity=".7"/>
    </g>
    <path d="m239.32 915.27c-0.81864 1.9215-1.8095 3.843-3.5925 5.7645" opacity=".7"/>
    <path d="m223.42 888.06c-3.7256 1.8882-6.7378 3.0571-7.1206 5.9769 0.072 2.7746 1.756 4.8474 4.4273 5.1652 2.2475 6e-3 5.3271-0.56546 8.1167-1.9554" opacity=".3165"/>
   </g>
   <path d="m26.49 859.85 226.62-43.006 20.366 16.824-75.855 13.872c-8.0426 1.8509-10.467 5.1064-7.3789 9.7401l18.724 18.121-45.809 9.2742-37.309-31.234c-4.9422-3.1061-11.69-3.7937-20.02-2.3597l-72.738 13.885c-2.0193-1.8114-3.5815-3.1223-6.5977-5.1167z" fill="url(#linearGradient14788)" opacity=".7" stroke-linecap="round" stroke-linejoin="round" stroke-width=".73978"/>
   <path d="m199.18 847.4c2.5596 3.1763 2.7144 5.6816 2.804 8.5595l4.5011 11.068" fill="none" opacity=".7" stroke-linecap="round" stroke-linejoin="round" stroke-width=".74128"/>
  </g>
  <g transform="translate(322.12 1.3954)" display="inline">
   <g stroke="#d4aa00">
    <g fill="none" stroke-width=".88583">
     <path d="m41.045 104.11-2.8551 8.6991 3.9355 5.8777 6.7906 5.1724 3.1638-3.4483"/>
     <path d="m28.081 103.88 0.30867 3.2915c5.8181 2.3616 8.0224 5.2475 9.5686 8.2288-0.26978 2.6455-0.69478 4.2315-1.6977 6.5831 0.86266 2.3453 1.4885 5.0381 5.9418 2.116l4.5528-14.812c0.04859-2.1614-1.6456-3.3494-5.7103-3.2132-1.0985 0.71553-1.3922 1.5054-0.2315 2.4295 3.8443 2.4042 5.5686 4.754 4.167 9.0909-3.2855 8.1816 5.8132 6.6054 5.4788 3.0564l3.8583-12.696c0.37386-1.5818-0.47719-3.1138-3.4339-3.4091-4.2619-0.0331-3.4775 1.0777-2.5079 2.2335 3.3484 2.0358 5.3846 4.6046 4.63 8.3072-4.5218 8.9856 4.7671 7.276 4.7843 4.4671l4.0126-12.461c0.48007-2.0289-0.04657-3.5072-2.2378-4.0752-5.5606-0.27884-4.9732 0.92112-2.778 2.5078 2.719 1.9188 5.0745 4.0822 3.5496 8.464-3.6451 6.874 4.5295 8.6135 6.0961 1.8025l2.9323-10.658c0.55746-1.4971 0.33211-2.8107-1.7748-3.6834-3.6477-0.49389-5.7875-0.22204-3.704 2.1944 1.9438 1.1233 2.5669 2.2466 3.7811 3.3699 1.5502 3.5808 2.1587 3.8596 5.093 6.1129l1.6205 3.7618 3.6268-3.4483"/>
     <path d="m93.055 110.3-3.8969 4.036c0.08385-2.438-1.3357-4.2017-2.1992-5.1332-2.4163-1.35-2.9568-1.8684-4.5528-4.0752-0.09341-1.4107-0.07834-2.8213 0.54016-4.232l2.1607-5.721"/>
     <path d="m56.093 101.21-2.9323 6.9749c-0.61949 3.7604 1.0284 4.725 2.3696 6.3519 3.9589 1.937 5.7051 3.7519 7.9746 5.8318l3.6229-3.563"/>
     <path d="m56.92 97.622c2.7591 4.0084 5.7572 8.0168 7.6936 12.025-3.2255 11.314 3.4365 7.5395 6.1658 3.7683l9.6034-12.967c1.9788-4.0612-1.9067-3.7897-2.2917-4.267l1.3641 3.1033-1.5824-0.22166c-0.74932 0.23541-1.4608 0.49274-0.21826 1.8841 2.815 2.7381 3.7684 5.6113 2.51 8.6449-0.72083 2.484-0.62666 4.3472-0.81847 6.4282"/>
     <path d="m70.179 98.287-2.5645 8.4786c0.41177 1.5994 1.7666 4.6255-0.27282 7.3703-1.8523 4.3254 4.5373 6.1238 5.7293 2.4383l4.3106-14.131c-0.27843-2.6903-2.5282-2.4684-4.3106-2.937-4.2422 0.29078-2.2109 1.9248 0.60021 3.8237 4.9659 5.9615 0.99464 7.5011 0.9276 10.972 0.27128 2.0337 3.9872 4.3656 6.3295 0.33249l3.7104-12.192c1.3586-4.2762-1.5724-3.817-3.3284-4.6549-3.9137 0.07433-3.8513 1.4408-0.49108 3.8791 5.0906 4.1299 1.9274 6.5833 1.7461 9.6424-1.3761 3.376 3.3998 4.9098 5.6202 2.5491l4.5289-14.02c0.40018-2.9925-2.0224-3.1182-3.9832-3.7129-3.8265 0.27007-3.59 1.4858-0.43652 3.3804 4.0451 4.1984 2.9926 5.1834 3.0556 6.8716l-1.8552 6.2066"/>
     <path d="m97.299 88.516c0 0.70533 0.463 3.605 0.77166 3.6834 0.30866 0.07837 6.482 4.7022 6.482 4.7022l6.5591-5.094 0.61733 0.15674"/>
     <path d="m89.44 90.917c1.8069 3.6408 5.9378 6.8062 7.3117 10.695 0.7246 2.1759-0.90785 7.2243-1.4732 10.972"/>
     <path d="m102.62 88.594c0.38583 1.3323 4.8615 8.9342 4.8615 8.9342l4.5528-2.8997c1.6208-4.286-1.6043-4.0974-3.7811-4.4671l-7.7938 1.489c-1.994 1.2077-3.2023 2.8006 0.69449 6.8966 1.6891 1.745 0.80179 4.4743 0.31356 7.4394-0.28728 1.7447-0.0832 3.6734-0.0821 5.2565"/>
     <path d="m146.45 138.36-0.16838-7.8085 4.5856-5.611c3.0346-2.0275 1.1722-5.7553-3.7227-4.4489l-4.5115 5.0322-2.5106 9.3095 4.0126-3.9969"/>
     <path d="m143.95 132.98 2.2372-7.7582 2.8374-2.4937c2.7876-4.262-2.238-4.8422-4.0924-3.602l-5.2928 4.9874"/>
     <path d="m135.06 121.12 0.16369 6.2066c-0.27642 4.2615 3.8174 4.1453 3.9832 1.9396l0.21827-6.8716"/>
     <path d="m132.76 119.51 0.16369 6.2066c-0.27642 4.2615 3.8174 4.1453 3.9832 1.9396l0.21827-6.8716" display="inline"/>
     <path d="m130.31 117.73 0.1637 6.2066c-0.27642 4.2615 3.8174 4.1453 3.9832 1.9396l0.21827-6.8716" display="inline"/>
     <path d="m128.02 116.18 0.1637 6.2066c-0.27642 4.2615 3.8174 4.1453 3.9832 1.9396l0.21827-6.8716" display="inline"/>
     <path d="m125.51 114.63 0.16369 6.2066c-0.27642 4.2615 3.8174 4.1453 3.9832 1.9396l0.21827-6.8716" display="inline"/>
     <path d="m123.3 112.64 0.24555 6.3728c-0.27642 4.2615 3.8174 4.1453 3.9832 1.9396l0.21826-6.8716" display="inline"/>
     <path d="m120.98 111.25 0.1637 6.2066c-0.27642 4.2615 3.8174 4.1453 3.9832 1.9396l0.21827-6.8716" display="inline"/>
     <path d="m118.61 109.23 0.19098 6.6222c-0.27642 4.2615 3.8174 4.1453 3.9832 1.9396l0.21826-6.8716" display="inline"/>
     <path d="m116.41 107.48 0.20462 6.7053c-0.27642 4.2615 3.8174 4.1453 3.9832 1.9396l0.21826-6.8716" display="inline"/>
     <path d="m113.89 106.48 0.16369 6.2066c-0.27642 4.2615 3.8174 4.1453 3.9832 1.9396l0.21826-6.8716" display="inline"/>
     <path d="m109.57 102.99 0.16369 6.2066c-0.27642 4.2615 3.8174 4.1453 3.9832 1.9396l0.27282-5.3199" display="inline"/>
     <path d="m107.01 101.28 0.1637 6.2066c-0.27642 4.2615 3.8174 4.1453 3.9832 1.9396l0.21827-6.8716" display="inline"/>
     <path d="m104.99 99.834 0.16369 6.2066c-0.27642 4.2615 3.8174 4.1453 3.9832 1.9396l0.21826-6.8716" display="inline"/>
     <path d="m141.57 131.44 2.2372-7.7582 2.8374-2.4937c2.7876-4.262-2.238-4.8422-4.0924-3.602l-7.3662 6.7884" display="inline"/>
     <path d="m139.12 129.72 2.2372-7.7582 2.8374-2.4937c2.7876-4.262-2.238-4.8422-4.0924-3.602l-4.9927 5.2368" display="inline"/>
     <path d="m136.88 128.06 2.2372-7.7582 2.8374-2.4937c2.7876-4.262-2.238-4.8422-4.0924-3.602l-5.2928 4.9874" display="inline"/>
    </g>
    <g fill="none" stroke-width="5.7533">
     <g transform="matrix(.15278 0 0 .15516 -33.167 10.768)">
      <path d="m1098.3 745.68 14.643-50 18.571-16.071c18.246-27.468-14.649-31.207-26.786-23.214l-35 33.393" display="inline"/>
      <path d="m1082.7 735.74 14.643-50 18.571-16.071c18.246-27.468-14.649-31.207-26.786-23.214l-34.643 32.143" display="inline"/>
      <path d="m1066.7 724.67 14.643-50 18.571-16.071c18.246-27.468-14.649-31.207-26.786-23.214l-34.464 33.393" display="inline"/>
      <path d="m1052 713.96 14.643-50 18.571-16.071c18.246-27.468-14.649-31.207-26.786-23.214l-34.643 32.143" display="inline"/>
     </g>
     <g transform="matrix(.15278 0 0 .15516 -42.279 3.9519)" display="inline">
      <path d="m1098.3 745.68 14.643-50 18.571-16.071c18.246-27.468-14.649-31.207-26.786-23.214l-35.893 34.286" display="inline"/>
      <path d="m1082.7 735.74 14.643-50 18.571-16.071c18.246-27.468-14.649-31.207-26.786-23.214l-36.429 32.143" display="inline"/>
      <path d="m1066.7 724.67 14.643-50 18.571-16.071c18.246-27.468-14.649-31.207-26.786-23.214l-34.643 32.143" display="inline"/>
      <path d="m1052 713.96 14.643-50 18.571-16.071c18.246-27.468-15.542-31.386-27.679-23.393l-34.643 32.143" display="inline"/>
     </g>
     <g transform="matrix(.15278 0 0 .15516 -51.773 -2.5317)" display="inline">
      <path d="m1098.3 745.68 14.643-50 18.571-16.071c18.246-27.468-14.649-31.207-26.786-23.214l-34.643 32.143" display="inline"/>
      <path d="m1082.7 735.74 14.643-50 18.571-16.071c18.246-27.468-14.649-31.207-26.786-23.214l-34.643 32.143" display="inline"/>
      <path d="m1066.7 724.67 14.643-50 18.571-16.071c18.246-27.468-14.649-31.207-26.786-23.214l-34.643 32.143" display="inline"/>
      <path d="m1052 713.96 14.643-50 18.571-16.071c18.246-27.468-14.649-31.207-26.786-23.214l-34.643 32.143" display="inline"/>
     </g>
    </g>
    <g fill="none" stroke-width=".88583">
     <path d="m139.45 122.37 1.6915-2.66c0.75443-1.8125-1.3953-2.7909-2.4281-2.2166l-1.8552 1.4685 0.32738 1.9673"/>
     <path d="m135.05 121.14 1.6915-2.66c0.75443-1.8125-1.3953-2.7909-2.4281-2.2166l-1.8552 1.4685 0.32738 1.9673" display="inline"/>
     <path d="m134.64 119.18 1.6915-2.66c0.75443-1.8125-1.3953-2.7909-2.4281-2.2166l-1.8552 1.4685 0.32738 1.9673" display="inline"/>
     <path d="m129.89 116.02 1.6915-2.66c0.75444-1.8125-1.3953-2.7909-2.4281-2.2166l-1.8552 1.4685 0.49107 1.5516" display="inline"/>
     <path d="m125.36 112.69 1.6915-2.66c0.75443-1.8125-1.3953-2.7909-2.4281-2.2166l-1.8552 1.4685 0.19096 1.6348" display="inline"/>
     <path d="m120.75 109.42 1.6915-2.66c0.75443-1.8125-1.3953-2.7909-2.4281-2.2166l-1.8552 1.4685 0.0818 1.801" display="inline"/>
     <path d="m137.35 122.55 0.16369 6.2066c-0.27642 4.2615 3.8174 4.1453 3.9832 1.9396l0.43652-8.7557" display="inline"/>
     <path d="m139.31 124.05 0.16369 6.2066c-0.27641 4.2615 3.8174 4.1453 3.9832 1.9396l0.24555-7.9245" display="inline"/>
     <path d="m111.31 102.77 1.6915-2.66c0.75444-1.8125-1.3953-2.7909-2.4281-2.2166l-1.1731 1.3577-0.0819 1.801" display="inline"/>
     <path d="m106.97 101.58 1.6915-2.66c0.75444-1.8125-1.3953-2.7909-2.4281-2.2166l-1.1731 1.3577-0.0819 1.801" display="inline"/>
     <path d="m96.528 98.547c-0.92928-0.93743-3.4017-2.0356-0.61733-2.5862 0.82524-0.16323 1.6865-0.43615 2.315 0 0.35715 0.87455-0.13744 2.1198-0.463 3.2915-0.14448 1.1563-0.04636 2.2071 1.2347 2.7429 2.1606 0.76465 4.3213 0.69242 6.482 0.31348l3.241-9.0909"/>
     <path d="m96.991 99.056 1.6205 6.4263-1.6977 5.29c-0.21506 2.8525 1.3801 3.4235 3.704 4.7414l3.4339 0.86207c2.2896-0.30917 1.9923-1.6932 2.1221-2.8997l-1.9677-5.0549-4.2441 4.7806c-0.54831 1.6956-0.23225 3.5821 1.5819 5.7994 1.138 0.99536 4.5672 1.7884 4.4371-1.6066l-1.5433-3.7226-4.437 3.5658c-1.3501 2.9178 0.94975 4.0563 1.9292 5.8386 1.6616 0.94176 3.1808 1.3878 4.1284-0.15674 0.22956-1.2999 0.0784-2.5139-0.61734-3.605"/>
     <path d="m105.29 119.08-0.84883-1.4107-2.1992 1.6458-2.2764 3.9185"/>
     <path d="m105.32 126.05c0.42891-0.0622 1.206 3.1074 1.4662 2.978 0.21107-0.10498-0.039-5.4075-0.27008-5.4075l-1.1961-1.6458c-2.0502 1.2931-2.5782 2.5862-3.5882 3.8793-0.9228 1.9947 0.50243 3.081 1.6591 4.2712 2.5053 1.7866 2.797 0.49672 3.4339-0.31348v-0.68573"/>
     <path d="m105.29 125.9c-1.259 1.2452-2.986 2.3966-3.8583 4.8198-0.13518 1.6213 1.1592 2.6377 2.1992 3.7618 0.87232 0.17895 2.2245 2.1568 3.5882-1.489-0.32104-1.2368-0.87588-2.3154-1.8134-3.1348-1.8997 1.5423-3.2447 3.2383-4.0126 5.094 0.13238 1.5075 1.2186 2.5746 2.4693 3.5658 1.8313 0.95218 3.026 0.47729 3.1638-1.3323-0.0278-1.4148-0.80227-2.0847-1.3118-2.9781-1.2896 0.45773-2.1183 1.2666-2.5851 2.3511l-1.6591 3.7618"/>
     <path d="m131.51 191.94-3.6558 3.5466c-0.80537-1.4813-0.49165-3.2657-3.2739-4.2116l-31.266-0.77581c-1.4605 0.2161-1.6817 1.6909-2.1826 2.8816"/>
    </g>
    <g transform="matrix(.15278 0 0 .15516 -16.906 -.53675)" fill="none" stroke-width="5.7533">
     <path d="m461.95 983.71-141.95-31.097c-18.901 0.10133-23.414 9.2613-24.286 20.714-0.77347 39.041 15.107 22.932 15.75 9.2783 0.63765-6.7156 2.1518-21.408 26.53-17.9l107.14 8.4055"/>
     <path d="m477.6 993.05-141.95-31.097c-18.901 0.10133-23.414 9.2613-24.286 20.714-0.77347 39.042 15.107 22.932 15.75 9.2783 0.63765-6.7156 2.1518-21.408 26.53-17.9l107.14 8.4055" display="inline"/>
     <path d="m492.5 1005.4-141.95-31.097c-18.901 0.10133-23.414 9.2613-24.286 20.714-0.77347 39.042 15.107 22.932 15.75 9.2783 0.63765-6.7156 2.1518-21.408 26.53-17.9l107.14 8.4055" display="inline"/>
     <path d="m508.15 1015-141.95-31.097c-18.901 0.10133-23.414 9.2613-24.286 20.714-0.77347 39.042 15.107 22.932 15.75 9.2782 0.63765-6.7156 2.1518-21.408 26.53-17.9l107.14 8.4055" display="inline"/>
    </g>
    <g transform="matrix(.15278 0 0 .15516 -7.7052 6.1637)" display="inline" fill="none" stroke-width="5.7533">
     <path d="m461.95 983.71-141.95-31.097c-18.901 0.10133-23.414 9.2613-24.286 20.714-0.77347 39.041 15.107 22.932 15.75 9.2783 0.63765-6.7156 2.1518-21.408 26.53-17.9l107.14 8.4055"/>
     <path d="m477.6 993.05-141.95-31.097c-18.901 0.10133-23.414 9.2613-24.286 20.714-0.77347 39.042 15.107 22.932 15.75 9.2783 0.63765-6.7156 2.1518-21.408 26.53-17.9l107.14 8.4055" display="inline"/>
     <path d="m492.5 1005.4-141.95-31.097c-18.901 0.10133-23.414 9.2613-24.286 20.714-0.77347 39.042 15.107 22.932 15.75 9.2783 0.63765-6.7156 2.1518-21.408 26.53-17.9l107.14 8.4055" display="inline"/>
     <path d="m508.15 1015-141.95-31.097c-18.901 0.10133-23.414 9.2613-24.286 20.714-0.77347 39.042 15.107 22.932 15.75 9.2782 0.63765-6.7156 2.1518-21.408 26.53-17.9l107.14 8.4055" display="inline"/>
    </g>
    <g fill="none" stroke-width=".88583">
     <path d="m72.286 165.46-21.687-4.8251c-2.8877 0.0157-3.5772 1.437-3.7104 3.2141-0.11817 6.0578 2.3081 3.5583 2.4063 1.4397 0.09742-1.042 0.32876-3.3218 4.0533-2.7775l16.368 1.3042"/>
     <path d="m74.677 166.91-21.687-4.8251c-2.8877 0.0157-3.5772 1.437-3.7104 3.2141-0.11817 6.0579 2.3081 3.5583 2.4063 1.4397 0.09742-1.042 0.32876-3.3218 4.0533-2.7775l16.368 1.3042" display="inline"/>
     <path d="m76.953 168.83-21.687-4.8251c-2.8877 0.0157-3.5772 1.437-3.7104 3.2141-0.11817 6.0579 2.3081 3.5583 2.4063 1.4397 0.09742-1.042 0.32876-3.3218 4.0533-2.7775l16.368 1.3042" display="inline"/>
     <path d="m79.345 170.32-21.687-4.8251c-2.8877 0.0157-3.5772 1.437-3.7104 3.2141-0.11817 6.0579 2.3081 3.5583 2.4063 1.4396 0.09742-1.042 0.32876-3.3218 4.0533-2.7775l16.368 1.3042" display="inline"/>
     <path d="m81.449 171.93-21.687-4.8251c-2.8877 0.0157-3.5772 1.437-3.7104 3.2141-0.11817 6.0579 2.3081 3.5583 2.4063 1.4397 0.09742-1.042 0.32876-3.3218 4.0533-2.7775l16.368 1.3042" display="inline"/>
     <path d="m83.705 173.42-21.687-4.8251c-2.8877 0.0157-3.5772 1.437-3.7104 3.2141-0.11817 6.0579 2.3081 3.5583 2.4063 1.4396 0.09742-1.042 0.32876-3.3218 4.0533-2.7775l16.368 1.3042" display="inline"/>
     <path d="m105.29 170.92c10.149 2.8287 20.239 4.8856 30.481 8.9342 1.955 1.3729 5.2558 4.397 5.1316 6.779-1.6688 2.6642-4.0164 3.3271-5.8646 0.82289-1.3516-3.7577-2.5802-5.4027-4.2441-7.9546-7.9958-3.4903-15.824-4.7677-23.729-7.0533"/>
     <path d="m100.67 171.04c10.149 2.8287 20.239 4.8856 30.481 8.9342 1.955 1.3729 5.2558 4.397 5.1316 6.779-1.6688 2.6642-4.1707 3.2096-5.3245 1.5282 0.42325-3.1307-1.1526-6.6958-4.3599-8.6599-7.9958-3.4903-16.248-4.7677-24.153-7.0533" display="inline"/>
     <path d="m94.886 171.54c10.149 2.8287 22.323 3.0047 32.564 7.0533 1.955 1.3729 4.1368 8.9424 4.0126 11.324-1.2058 2.3507-4.4408 2.9745-5.5945 1.2931-0.65708-2.4254 1.0081-5.3243-1.3118-7.2884-9.1147-7.6439-19.181-8.647-27.085-10.933" display="inline"/>
     <path d="m106.44 174.64c1.7224 2.0684 3.15 1.2041 2.6236 6.152 0.22709 1.6596 2.0094 2.2568 1.902 3.4102-0.37296 4.0058 1.4585 5.035 3.6926 3.2121 2.5031-2.3925 1.4985-3.0651 1.0803-4.3104-6.8414-6.5997-0.84177-5.0627-16.051-15.909"/>
     <path d="m116.56 178.45c1.7224 2.0684 5.3106 3.8295 4.7843 8.7774-1.7444 5.8373 1.5066 5.3418 2.8937 3.9185 2.5031-2.3925 3.2733-3.1435 2.8552-4.3887-1.4762-5.9679-5.2516-7.1297-7.0993-9.7962" display="inline"/>
     <path d="m100.66 175.58 9.9544 8.6991c0.66444 1.8337 1.6896 3.1688-0.0386 5.4075-1.6513 1.5745-4.9683 1.4546-5.0544-0.19593 0.33313-3.3792 0.97429-5.9536-0.30866-7.21l-6.752-7.4451"/>
     <path d="m78.419 162.82 26.738 20.141c2.1306 1.7162 1.5739 3.4823-0.15433 5.721-1.6513 1.5745-4.3509 2.3951-4.4371 0.74451 0.33313-3.3792 0.97429-5.9536-0.30866-7.21l-21.336-18.809" display="inline"/>
     <path d="m78.359 163.14 18.906 16.85c2.1306 1.7162 5.085 3.7958 2.778 6.0345-1.6513 1.5745-4.2352 2.7477-4.3213 1.0972 0.33312-3.3792-0.53045-6.3846-1.8134-7.6411l-10.186-9.9922" display="inline"/>
     <path d="m85.326 171.32 7.9481 7.1708c3.7511 3.0093 3.696 4.697 1.9677 6.9357-1.6513 1.5745-4.0808 1.6114-4.167-0.0392 0.33312-3.3792-2.884-6.9332-4.167-8.1897l-12.964-6.8573" display="inline"/>
     <path d="m77.854 174.45c6.2599 2.9576 9.7414 8.1928 7.9481 12.696-1.3904 3.016 4.7452 2.0451 5.1316 0.58778 1.4044-5.6702-2.5478-9.8684-4.2056-14.538"/>
     <path d="m111.27 176.68 7.9481 6.348c0.87152 0.77707 2.8413 3.1259 0.18161 5.5357-1.2348 0.44956-2.3514 0.11928-3.4421-0.38234l0.28767-4.3563-6.4414-7.772"/>
     <path d="m81.692 179.53c-1.6451-2.6717-0.09982-3.1832 1.9098-3.3804 4.2271 0.53125 2.6966 2.0578 2.3463 3.3804l-2.7282 9.3653c-1.6641 2.9643-3.9642 2.4852-5.3341 1.48-1.7568-1.4931-0.40325-2.5311 0.20502-3.5304 1.5693-3.0325 0.91226-5.6302-0.1637-8.1461l-3.6558-6.927"/>
     <path d="m79.474 175.66c-3.1923-1.331-5.5468-2.9536-12.154-3.0956-3.2539 0.41277-4.8728 5.0406-6.8678 8.6991-1.7453 2.9345-2.7396 3.6254-0.47236 4.8399l8.5362 5.4657c8.4468 3.9684 9.3822 0.82234 11.232-1.9506 2.8192-6.6706 1.0003-9.2256-1.3551-11.568-5.3208-5.565-9.701-4.1214-11.614-2.2727-1.8226 2.4425-2.3628 4.8851-3.3181 7.3276l-0.34725-3.174"/>
    </g>
    <g stroke-width="5.7533">
     <g transform="matrix(.15278 0 0 .15516 -16.906 -.53675)" fill="none">
      <g>
       <path d="m454.06 962.83c15.09 4.0369 9.2389 37.664-3.0305 35.86-5.3184-1.2624-12.005-12.535-10.228-20.708 0.21742-3.6057 5.9887-15.223 13.258-15.152z"/>
       <path d="m470.1 974.16c15.09 4.0369 9.2389 37.664-3.0305 35.86-5.3184-1.2624-12.005-12.535-10.228-20.708 0.21742-3.6057 5.9887-15.223 13.258-15.152z" display="inline"/>
       <path d="m485.12 985.02c15.09 4.0369 9.2389 37.664-3.0305 35.86-5.3184-1.2624-12.005-12.534-10.228-20.708 0.21742-3.6057 5.9887-15.223 13.258-15.152z" display="inline"/>
       <path d="m500.28 996c15.09 4.0369 9.2389 37.664-3.0305 35.86-5.3184-1.2624-12.005-12.535-10.228-20.708 0.21742-3.6057 5.9887-15.223 13.258-15.152z" display="inline"/>
       <path d="m515.66 1004.8c15.09 4.0369 9.2389 37.664-3.0305 35.86-5.3184-1.2624-12.005-12.535-10.228-20.708 0.21742-3.6057 5.9887-15.223 13.258-15.152z" display="inline"/>
      </g>
      <g>
       <path d="m531.65 1016.9c15.09 4.0369 9.2389 37.664-3.0305 35.86-5.3184-1.2624-12.005-12.534-10.228-20.708 0.21742-3.6057 5.9887-15.223 13.258-15.152z"/>
       <path d="m547.68 1028.2c15.09 4.0369 9.2389 37.664-3.0305 35.86-5.3184-1.2624-12.005-12.534-10.228-20.708 0.21742-3.6058 5.9887-15.223 13.258-15.152z" display="inline"/>
       <path d="m562.71 1039.1c15.09 4.0369 9.2389 37.664-3.0305 35.86-5.3184-1.2624-12.005-12.534-10.228-20.708 0.21742-3.6057 5.9887-15.223 13.258-15.152z" display="inline"/>
       <path d="m577.86 1050c15.09 4.0369 9.2389 37.664-3.0305 35.86-5.3184-1.2624-12.005-12.535-10.228-20.708 0.21742-3.6057 5.9887-15.223 13.258-15.152z" display="inline"/>
       <path d="m593.25 1058.9c15.09 4.0369 9.2389 37.664-3.0305 35.86-5.3184-1.2624-12.005-12.535-10.228-20.708 0.21742-3.6057 5.9887-15.223 13.258-15.152z" display="inline"/>
       <path d="m603.97 1069.9c15.09 4.0369 9.2389 37.664-3.0305 35.86-5.3184-1.2624-12.005-12.534-10.228-20.708 0.21742-3.6057 5.9887-15.223 13.258-15.152z" display="inline"/>
       <path d="m619.12 1080.9c15.09 4.0369 9.2389 37.664-3.0305 35.86-5.3184-1.2624-12.005-12.535-10.228-20.708 0.21742-3.6057 5.9887-15.223 13.258-15.152z" display="inline"/>
       <path d="m634.51 1089.7c15.09 4.0369 9.2389 37.664-3.0305 35.86-5.3184-1.2624-12.005-12.535-10.228-20.708 0.21742-3.6057 5.9887-15.223 13.258-15.152z" display="inline"/>
      </g>
     </g>
     <g transform="matrix(.15278 0 0 .15516 -.4081 -2.231)" display="inline" fill="none">
      <g>
       <path d="m454.06 962.83c15.09 4.0369 9.2389 37.664-3.0305 35.86-5.3184-1.2624-12.005-12.535-10.228-20.708 0.21742-3.6057 5.9887-15.223 13.258-15.152z"/>
       <path d="m470.1 974.16c15.09 4.0369 9.2389 37.664-3.0305 35.86-5.3184-1.2624-12.005-12.535-10.228-20.708 0.21742-3.6057 5.9887-15.223 13.258-15.152z" display="inline"/>
       <path d="m485.12 985.02c15.09 4.0369 9.2389 37.664-3.0305 35.86-5.3184-1.2624-12.005-12.534-10.228-20.708 0.21742-3.6057 5.9887-15.223 13.258-15.152z" display="inline"/>
       <path d="m500.28 996c15.09 4.0369 9.2389 37.664-3.0305 35.86-5.3184-1.2624-12.005-12.535-10.228-20.708 0.21742-3.6057 5.9887-15.223 13.258-15.152z" display="inline"/>
       <path d="m515.66 1004.8c15.09 4.0369 9.2389 37.664-3.0305 35.86-5.3184-1.2624-12.005-12.535-10.228-20.708 0.21742-3.6057 5.9887-15.223 13.258-15.152z" display="inline"/>
      </g>
      <g>
       <path d="m531.65 1016.9c15.09 4.0369 9.2389 37.664-3.0305 35.86-5.3184-1.2624-12.005-12.534-10.228-20.708 0.21742-3.6057 5.9887-15.223 13.258-15.152z"/>
       <path d="m547.68 1028.2c15.09 4.0369 9.2389 37.664-3.0305 35.86-5.3184-1.2624-12.005-12.534-10.228-20.708 0.21742-3.6058 5.9887-15.223 13.258-15.152z" display="inline"/>
       <path d="m562.71 1039.1c15.09 4.0369 9.2389 37.664-3.0305 35.86-5.3184-1.2624-12.005-12.534-10.228-20.708 0.21742-3.6057 5.9887-15.223 13.258-15.152z" display="inline"/>
       <path d="m577.86 1050c15.09 4.0369 9.2389 37.664-3.0305 35.86-5.3184-1.2624-12.005-12.535-10.228-20.708 0.21742-3.6057 5.9887-15.223 13.258-15.152z" display="inline"/>
       <path d="m593.25 1058.9c15.09 4.0369 9.2389 37.664-3.0305 35.86-5.3184-1.2624-12.005-12.535-10.228-20.708 0.21742-3.6057 5.9887-15.223 13.258-15.152z" display="inline"/>
       <path d="m603.97 1069.9c15.09 4.0369 9.2389 37.664-3.0305 35.86-5.3184-1.2624-12.005-12.534-10.228-20.708 0.21742-3.6057 5.9887-15.223 13.258-15.152z" display="inline"/>
       <path d="m619.12 1080.9c15.09 4.0369 9.2389 37.664-3.0305 35.86-5.3184-1.2624-12.005-12.535-10.228-20.708 0.21742-3.6057 5.9887-15.223 13.258-15.152z" display="inline"/>
       <path d="m634.51 1089.7c15.09 4.0369 9.2389 37.664-3.0305 35.86-5.3184-1.2624-12.005-12.535-10.228-20.708 0.21742-3.6057 5.9887-15.223 13.258-15.152z" display="inline"/>
      </g>
     </g>
     <g transform="matrix(.15278 0 0 .15516 -16.906 -.53675)">
      <g fill="none" stroke="#d4aa00" stroke-width="5.7533">
       <path d="m707.11 966.37c5.6514 17.559 5.6663 32.202-27.274 29.8"/>
       <path d="m715.29 975.08c5.6514 17.559 5.6663 32.202-27.274 29.8" display="inline"/>
       <path d="m722.61 981.89c19.319 15.182 13.31 37.45-19.951 35.103" display="inline"/>
       <path d="m735.24 990.48c23.076 8.7198 17.03 39.526-15.91 37.123" display="inline"/>
       <path d="m748.62 1001.1c26.107 10.74 18.293 38.01-14.647 35.608" display="inline"/>
       <path d="m764.28 1011.4c23.834 11.245 18.293 38.768-14.647 36.365" display="inline"/>
      </g>
     </g>
     <g transform="matrix(.15278 0 0 .15516 -3.7805 8.7988)" display="inline">
      <g fill="none" stroke="#d4aa00" stroke-width="5.7533">
       <path d="m693.47 962.07c27.622 16.043 19.303 36.495-13.637 34.093"/>
       <path d="m707.97 973.06c31.915 13.266 12.485 44.324-19.951 31.82" display="inline"/>
       <path d="m723.88 983.41c31.41 16.296 11.727 44.324-21.213 33.588" display="inline"/>
       <path d="m739.03 993.01c30.4 15.791 14.505 45.839-19.698 34.598" display="inline"/>
       <path d="m754.43 1004.6c28.38 12.003 16.778 41.798-20.456 32.072" display="inline"/>
       <path d="m769.58 1015c32.925 14.528 14 46.092-19.951 32.83" display="inline"/>
      </g>
     </g>
    </g>
    <g fill="none" stroke-width=".88583">
     <path d="m116.29 167.99c4.143 2.0583 2.1775 6.6816-3.241 5.1724"/>
     <path d="m118.2 169.58c5.3005 2.1759 2.3319 7.3085-3.8969 4.9373" display="inline"/>
     <path d="m121.24 171.42c3.9886 2.8812 0.44129 6.2113-4.7071 4.5063" display="inline"/>
     <path d="m42.678 147.94c0.84843-0.81836 8.082-5.7124 9.9308-5.4308 4.9843 0.92072 9.3853 4.2107 14.078 6.3174"/>
     <path d="m47.262 148.61c0.84843-0.81837 8.082-5.7124 9.9308-5.4308 4.9843 0.92072 9.3853 4.2107 14.078 6.3174" display="inline"/>
     <path d="m53.046 148.44c0.43652-0.16624 6.9297-5.3199 6.9297-5.3199 1.4909-0.78475 2.9826-1.5673 5.1836-0.3325l6.9843 6.4837"/>
     <path d="m56.92 149.34c0.43652-0.16625 6.9297-5.3199 6.9297-5.3199 1.4909-0.78474 2.9826-1.5673 5.1836-0.33249l6.9843 6.4837" display="inline"/>
     <path d="m62.322 149.79c0.43652-0.16625 6.9297-5.3199 6.9297-5.3199 1.4909-0.78474 2.9826-1.5673 5.1836-0.3325l18.497 8.2016" display="inline"/>
     <path d="m67.123 150.59c0.43652-0.16625 6.9297-5.3199 6.9297-5.3199 1.4909-0.78474 2.9826-1.5673 5.1836-0.3325l14.078 6.8716" display="inline"/>
     <path d="m73.234 149.7c0.43652-0.16624 6.9297-5.3199 6.9297-5.3199 1.4909-0.78474 2.9826-1.5673 5.1836-0.33249l7.148 7.0932" display="inline"/>
     <path d="m76.972 150.59c0.43652-0.16625 6.9297-5.3199 6.9297-5.3199 1.4909-0.78474 2.9826-1.5673 5.1836-0.33249l2.7282 5.9295" display="inline"/>
     <path d="m109.25 167.56c-0.25374-2.6118 1.3414-5.0132 4.6926-3.8791l12.986 5.6524c4.0889 1.86 2.1901 5.3414-0.10913 5.6524l-4.0378-1.2192"/>
     <path d="m113.85 171.55c-1.7517-1.1134-1.6723-3.5981 1.9292-4.9373 4.8087-0.89536 13.07-0.6595 20.951-0.5486 5.395 1.318 4.6894 5.9995 6.8678 9.0909 1.9596 3.876 3.8843 5.2594 5.9418 7.4452 1.1426 7.7147-0.32706 6.6294 0.42441 11.991-3.4016 0.0559-8.5137 1.0068-8.8355-0.54858-1.2243-0.57588-0.78314-3.1103-0.0772-5.9561 0.15433-1.2886 0.40296-4.4389-2.9709-5.4467-1.4302-0.20781-0.40033 2.2076 0.11575 4.0752-0.30395 1.8245-0.68423 3.6102-0.19292 5.8386 1.4264 1.397 3.0838 0.44671 4.7071-0.15673 2.8721-1.5125 4.6015-3.9807 9.0284-4.1928 8.7889-1.02 4.3732-4.1932 3.2024-3.7618-3.1593 0.50481-4.6556-0.52255-6.3276-1.5282l1.5819 3.8401-3.7711 7.0587c-0.74968 0.45347-2.7687 1.1054-4.2542 0.77829"/>
     <path d="m131.44 176.81 11.463 4.846 3.241 5.721c-0.28138 1.8302-0.57421 3.6488-0.65592 5.6818 0.40444 1.9252 1.4228 3.4051 6.0961 2.2336 6.0097-1.8173 8.3478-3.9698 5.2087-6.6223-1.7494-0.0654-3.399-0.0874-4.4371 0.15674-1.3444-0.47977-1.6416 2.8038-1.6591 7.0925"/>
     <path d="m49.456 144.39 18.597 6.0345"/>
     <path d="m49.302 145.41 19.677 6.2696"/>
     <path d="m52.852 148.63 19.369 5.9561"/>
     <path d="m55.553 150.43 19.214 6.6614"/>
     <path d="m57.173 152.7 21.452 7.21"/>
     <path d="m61.803 155.52 21.221 7.2884"/>
     <path d="m66.973 158.74 18.674 6.1129"/>
     <path d="m71.526 162.03 17.594 5.4859"/>
     <path d="m74.072 164.22 16.899 5.094"/>
     <path d="m78.471 167.36 17.054 5.0157"/>
     <path d="m81.326 169.39 15.742 4.5454"/>
     <path d="m81.943 171.35 16.359 3.8401"/>
     <path d="m68.516 145.41 26.236 8.0721"/>
     <path d="m69.983 147.06 29.555 9.0909"/>
     <path d="m75.616 149.8 25.079 7.7586 0.463 0.15673"/>
     <path d="m73.764 150.27 31.098 10.658"/>
     <path d="m76.002 151.92 32.641 11.129"/>
     <path d="m79.628 154.9 31.715 9.7962"/>
     <path d="m83.641 157.25 29.092 9.1693"/>
     <path d="m86.342 159.21 30.172 9.7179"/>
     <path d="m89.892 161.79 30.095 9.5611"/>
     <path d="m92.284 163.75 30.481 9.6395"/>
     <path d="m94.676 165.71 14.044 4.0752-11.498-1.8809 26.931 7.2884"/>
     <path d="m97.762 169.08 8.3339 1.9592"/>
     <path d="m97.608 170.41 5.556 1.2539"/>
     <path d="m38.19 148.16 14.739 0.54859"/>
     <path d="m35.104 147.84 7.5623 0.0784"/>
     <path d="m115.58 173.32c-1.4551-2.1058-0.72752-3.7683 2.1826-4.9874l20.898 12.358"/>
     <path d="m138.98 180.75c3.4881 2.1172 0.58752 4.7312 0.38195 5.0983-1.7857 1.3874-3.1222 1.3555-3.6013-1.3854l-8.8395-9.6424"/>
     <path d="m146.3 181.24-28.21-8.3124"/>
    </g>
   </g>
   <g fill="none" stroke="#ff0000" stroke-linecap="round" stroke-linejoin="round" stroke-width="1.3429">
    <path d="m45.357 142.61-0.35624-4.4574-22.932 3.0301 0.08414 5.0094 62.847-61.621-43.214-3.7471 0.89286 62.857"/>
    <path d="m48.992 140.57 171.22-120.71 31.82 57.579"/>
    <path d="m46.467 139.3c0-1.0102 2.7779-13.132 2.7779-13.132l26.517 45.709"/>
    <path d="m63.135 178.95 38.386-89.398 45.457 96.975"/>
    <path d="m132.08 191.83 15.152-14.9-4.0406-80.055"/>
    <path d="m34.85 144.61 22.476-19.193 30.557 25.759"/>
    <path d="m89.651 147.64c0-1.7678-0.50508-17.678-0.50508-17.678l23.739 37.881"/>
    <path d="m148.49 133.24-4.0406-42.931"/>
   </g>
   <g fill="none" stroke-linecap="round" stroke-linejoin="round">
    <g stroke="#d4aa00">
     <g stroke-width=".88583">
      <path d="m234.96 140.76 29.455-25.773c3.6375 0.29838 3.9775 2.1123 4.1421 4.668l-35.043 31.756"/>
      <path d="m237.3 142.4 29.159-25.839c3.1773 0.23264 4.1419 1.2904 4.3393 4.2736l-38.292 34.122" display="inline"/>
      <path d="m239.58 143.88 29.159-25.839c3.1773 0.23263 4.1419 1.2904 4.3393 4.2736l-39.268 34.959" display="inline"/>
      <path d="m241.42 145.18 29.455-25.773c3.6375 0.29838 3.9775 2.1122 4.1421 4.668l-38.902 34.313"/>
      <path d="m243.75 146.82 29.159-25.839c3.1773 0.23263 4.1419 1.2904 4.3393 4.2736-12.95 11.684-26.55 20.507-38.85 35.052" display="inline"/>
      <path d="m246.03 148.3 29.159-25.839c3.1773 0.23263 4.1419 1.2904 4.3393 4.2736l-34.945 32.216" display="inline"/>
      <path d="m247.27 149.06 29.455-25.773c3.6375 0.29838 3.9775 2.1122 4.1421 4.668l-35.043 31.756"/>
      <path d="m249.6 150.7 29.159-25.839c3.1773 0.23263 4.1419 1.2904 4.3393 4.2736l-34.945 32.216" display="inline"/>
      <path d="m251.89 152.18 29.159-25.839c3.1773 0.23264 4.1419 1.2904 4.3393 4.2736-11.093 11.215-23.289 21.484-34.945 32.216" display="inline"/>
      <path d="m217.08 86.45-3.2874 6.4432c-0.94111 2.8765 0.15426 5.4512 3.9448 7.6267 3.4723 1.3761 5.0671 2.8919 7.0349 4.6023l3.4846-3.5503"/>
      <path d="m219.71 83.36c2.2829 2.5542 5.6053 6.9418 7.6267 9.9278-0.70652 3.4863-1.6121 7.039-1.3149 10.191"/>
      <path d="m231.81 83.557c-2.0794 2.4706-2.9281 5.117-3.8133 7.7582-0.35298 1.959 1.5847 4.8572 6.1802 6.9034l5.0625 3.6818 2.8271-2.9586 3.5504-12.623c0.31447-1.3706 0.69082-2.6489-2.1039-3.1559-2.011 0.16831-3.7734-0.0687-3.0244 2.1697 1.4862 2.1697 2.4346 3.7476 2.8929 5.9172 2.2366 2.6518 5.8323 3.9229 10.059 7.3637l3.2216-3.2216"/>
      <path d="m230.17 80.204c1.0942 2.5571 3.8277 5.606 6.6405 8.6786 2.1632 2.3753 1.2457 5.264 0.32874 8.1526-0.27483 2.5969 3.1037 3.2065 4.2736 1.9067l2.0382-6.8377c-0.26369-1.1396 9e-3 -2.2792-1.3807-3.4189l4.2736-8.6129"/>
      <path d="m246.6 76.982c0.609 2.4771 3.557 5.4939 6.3775 8.4814 1.9567 4.0143 0.39861 5.9197-0.0658 8.4814-0.6496 2.4656 2.6003 3.561 4.7996 2.3012l4.0763-12.032c0.39511-1.2711 1.9718-2.5422-1.2492-3.8133-2.3163-0.44343-4.7116 0.52231-3.4846 2.0382l2.0382 3.4189c0.6782 2.345-0.10954 4.69-0.78896 7.0349l-0.65748 4.5366"/>
      <path d="m262.25 75.93 6.5747 5.5228c1.491 2.5645 1.2618 4.3471 0.85471 6.0487l-1.315 7.8239-1.7094-0.13149c-2.0482-2.7713-5.2234-4.19-8.0869-5.983-1.5613-1.9515-1.5436-3.5873-1.3807-5.194l3.4846-7.0349"/>
      <path d="m253.67 153.77 29.159-25.839c3.1773 0.23264 4.1419 1.2904 4.3393 4.2736l-34.945 32.216" display="inline"/>
      <path d="m285.46 130.33c1.8489-0.15019 3.172 0.69274 3.9052 2.6499l6.5086 9.3445-0.23245 3.7192 0.79034 3.5798"/>
      <path d="m286.62 137.81c-1.125 2.8466-0.52086 5.0266 0.093 6.7411 1.7584 3.1925 3.4817 4.1965 5.7183 5.8113 3.3496 3.8856 10.247 1.3455 7.4849-3.5333l-6.9736-7.02 1.9061 0.18596"/>
      <path d="m286.58 137.95 2.371-3.8587 0.37192-1.0693"/>
      <path d="m293.18 153.06c0-0.18596 0.83682-15.388 0.83682-15.388-0.17502-1.7619 1.0504-4.1561-3.0547-4.1841-2.626-0.0826-3.2888 0.73683-4.7885 1.3947-0.73924 0.60328-2.1423 1.5131 0.12585 1.9061l4.843-0.0249 5.013 4.6739"/>
      <path d="m285.27 130.51-2.0921 1.3482-4.2771 18.829c0.274 1.8285 1.9556 2.8831 4.3236 3.603 1.7146 0.16533 2.3573-0.255 0.79035-1.5574-2.181-1.8974-4.7606-3.4103-4.835-7.5314 0.09-2.0491-0.20056-3.9406 1.4412-5.3929 2.7695-4.9169 6.9388-8.434 10.414-12.645"/>
      <path d="m293.18 153.15c-0.75437 2.5509-2.6293 2.9728-4.6025 3.2078-2.6778-0.15806-3.3178-1.2631-3.4403-2.6499-0.25371-1.669 2.4689-4.5995 3.3473-2.2315 0.11701 1.04 1.1414 3.7333-2.4175 4.4631l-4.2306 0.13947c-1.2411-0.0751-2.5132-0.0959-2.7894-1.8596-0.30862-1.9448-0.13541-3.8895-1.6647-5.8342-0.61934-1.5426-2.2102-2.8946-4.3382-3.0999-4.7091 0.28123-5.1382-0.5529-0.36628-2.5025 1.6797-0.59741 2.9608-0.6238 4.649-0.23245 1.9967 0.98669 1.0542 3.1696 0.81359 4.9977l-1.7899 11.413c-0.57996 3.915-1.1172 6.0574-4.928 6.2762-2.2153-0.26527-4.2415-0.75452-3.1148-3.7425l1.6039-3.789c0.73394-1.3327-0.11702-3.1304-0.69734-4.4631-0.27257-1.7607 1.0242-1.6216 3.1381-1.0228 2.0213 1.0006 2.5642 2.1454 2.0456 3.3938-2.7546 3.8935-5.6356 7.6606-8.7402 11.204-2.6646 2.403-5.7556 1.2272-5.6718-1.2088 0.83592-2.5304 2.3892-4.8167 0.79034-7.9033-0.57516-0.84098-1.1736-2.35-1.9911-3.7564-0.4766-4.3505-1.2741-4.0642-2.0071-5.6812"/>
      <path d="m276.95 135.44-11.53 13.203c-0.58512 1.6184-0.53007 3.8059 0 6.4156 1.484 2.0906 1.788 3.2296-0.55788 2.2315-2.2244-1.0538-2.6702-2.1076-3.3473-3.1613-0.70026-1.6624 0.75038-2.9666 1.5807-3.9982l14.273-19.247"/>
      <path d="m264.63 142.93-6.4621 8.8796c-0.062 2.1961-0.46163 3.9098 0.27894 7.2525 1.242 1.9188 2.9183 3.2947 4.649 4.6025 1.363 1.2708 2.9282 3.144-1.7201 1.4412l-4.5096-3.0684c-2.7515-2.4699-0.84002-4.3322-0.13945-5.8113l9.6235-16.458"/>
      <path d="m261.1 139.16-10.832 22.036c-0.6685 1.407-1.6296 2.0403 0.48814 4.2306 0.5457 0.43841 1.213 0.94024 2.6035 1.6039 1.7352 0.4724 2.681 0.15502 0.86006-1.325-2.1841-1.8263-2.845-3.2814-3.2543-4.8815-0.13891-1.9378-0.22436-3.7806 0.18596-4.742 0.85475-2.0599 2.1586-4.0877 3.2078-5.3464l19.619-19.107"/>
      <path d="m255.28 136.42-11.243 22.551c-0.1408 2.2802-0.57059 3.874 0.26299 7.2322l2.0382 2.4984c1.7479 2.6445-1.8022 2.8927-2.8271 2.2354-2.036-1.1102-2.224-2.015-2.7614-2.9586-0.65256-1.3206-0.0855-2.2347 0.26299-3.2216l9.0731-17.85"/>
      <path d="m237 150.88 5.2926 14.892c0.44722 1.7064 1.5515 3.6757-1.3478 4.0434-0.92074 0.0102-1.7166 0.37723-3.2216-1.2821-0.61165-0.99716 0.74767-2.586 0.55884-3.8791 0.0424-1.9537-0.64939-3.6626-1.3807-5.3584l-18.234-22.834"/>
      <path d="m238.09 161.06-1.8596-2.6035-0.60438 0.37192-15.667-19.386"/>
      <path d="m232.74 155.01-1.4412 1.0693-6.8806-8.9261"/>
      <path d="m233.72 157.48-11.623-14.18"/>
      <path d="m234.8 145.43 17.832-16.103c5.6987-1.967 4.8327 1.4583 4.1421 4.668l-19.423 17.437"/>
      <path d="m236.95 146.98 17.722-16.076c6.4995-2.0929 6.7376 0.53336 4.3393 4.2736l-20.533 18.13" display="inline"/>
      <path d="m235.23 150.97 21.72-18.586c4.4062-0.99626 7.2024-1.7701 4.3393 4.2736-7.8928 6.6191-15.061 10.885-23.833 20.361" display="inline"/>
      <path d="m199.51 110.33c-0.27895-0.37193-5.4258-5.6549-5.4258-5.6549-0.7845-3.0374 2.2804-4.4157 4.1287-3.9493l12.827 12.022" display="inline"/>
      <path d="m193.01 103.25c-0.27895-0.37193-5.4258-5.6549-5.4258-5.6549-0.78448-3.0373 2.2804-4.4157 4.1287-3.9493l12.827 12.022" display="inline"/>
      <path d="m210.28 118.4c-0.27894-0.37192-5.4257-5.6549-5.4257-5.6549-0.78451-3.0374 2.2804-4.4157 4.1287-3.9493l12.827 12.022"/>
      <path d="m214.94 121.91c-0.27895-0.37192-5.4258-5.6549-5.4258-5.6549-0.7845-3.0374 2.2804-4.4157 4.1287-3.9493l5.6671 5.6526" display="inline"/>
      <path d="m203.66 113.63c-0.27895-0.37192-5.4258-5.6549-5.4258-5.6549-0.7845-3.0373 2.2804-4.4157 4.1287-3.9493l12.827 12.022" display="inline"/>
      <path d="m212.79 119.91c-0.27894-0.37193-5.4257-5.6549-5.4257-5.6549-0.78451-3.0374 2.2804-4.4157 4.1287-3.9493l8.2241 8.349" display="inline"/>
      <path d="m205.87 115.32c-0.27894-0.37192-5.4257-5.6549-5.4257-5.6549-0.78451-3.0374 2.2804-4.4157 4.1287-3.9493l12.827 12.022"/>
      <path d="m201.42 111.63c-0.27895-0.37192-5.4258-5.6549-5.4258-5.6549-0.7845-3.0374 2.2804-4.4157 4.1287-3.9493l12.827 12.022" display="inline"/>
      <path d="m197.24 107.71c-0.27895-0.37193-5.4258-5.6549-5.4258-5.6549-0.7845-3.0373 2.2804-4.4157 4.1287-3.9493l12.827 12.022" display="inline"/>
      <path d="m207.68 116.47c-0.27894-0.37192-5.4257-5.6549-5.4257-5.6549-0.78451-3.0373 2.2804-4.4157 4.1287-3.9493l12.827 12.022" display="inline"/>
      <path d="m222 121.21c1.9341 3.0032 0.32042 4.4321-2.8824 5.2534l-2.7429-3.4403-2.185-2.557"/>
      <path d="m217.24 117.7s8.1794 8.5351 8.2928 8.7653c1.2398 2.516-0.36069 3.7785-3.2951 4.5309l-2.7429-3.4403-2.1851-2.557" display="inline"/>
      <path d="m211.31 112.78c0.19823 0.24522 14.735 15.249 15.158 15.687 0.84237 0.87261 1.8515 1.8747 1.9165 1.9982 1.3749 2.6134-0.23009 3.91-3.2207 4.6769l-2.7429-3.4403-2.185-2.557" display="inline"/>
      <path d="m213.07 117.89c0.19822 0.24522 14.735 15.249 15.158 15.687 0.84236 0.8726 1.8515 1.8747 1.9165 1.9982 1.3749 2.6134-0.23009 3.91-3.2207 4.6769l-2.7429-3.4403-2.185-2.557" display="inline"/>
      <path d="m193.83 106.29c0.093 0.32543 8.9261 11.576 8.9261 11.576"/>
      <path d="m195.13 106.99 10.274 12.645"/>
      <path d="m198.34 109.73 8.7867 11.344"/>
      <path d="m201.82 112.33 7.5314 9.9954"/>
      <path d="m208.01 116.89c0.37191 0.37192 15.481 17.201 15.481 17.201"/>
      <path d="m210.01 118.33 12.645 13.901"/>
      <path d="m225.95 134.37 7.392 10.46c1.5748 4.619-1.6353 3.7288-2.371 3.4868l-6.8806-9.4375"/>
      <path d="m227.62 137.93 7.392 10.46c1.2421 4.4111-1.7826 3.6367-2.371 3.4868l-6.8806-9.4375" display="inline"/>
      <path d="m229.43 140.6 7.392 10.46c1.2421 4.4111-1.7826 3.6367-2.371 3.4868l-6.8806-9.4375" display="inline"/>
      <path d="m230.43 143.25 7.392 10.46c1.2421 4.4111-1.7826 3.6367-2.371 3.4868l-14.993-19.689" display="inline"/>
     </g>
     <g>
      <g stroke-width="7.1418">
       <path transform="matrix(.11802 0 0 .13036 69.983 141.62)" d="m1136.4-221.57c-0.1799 9.0646-9.5959 16.297-21.031 16.155-11.435-0.14256-20.56-7.6064-20.38-16.671 0.1799-9.0646 9.5959-16.297 21.031-16.155 10.255 0.12784 18.847 6.1866 20.201 14.245"/>
       <path transform="matrix(.11802 0 0 .13036 71.802 143.23)" d="m1136.4-221.57c-0.1799 9.0646-9.5959 16.297-21.031 16.155-11.435-0.14256-20.56-7.6064-20.38-16.671 0.1799-9.0646 9.5959-16.297 21.031-16.155 10.255 0.12784 18.847 6.1866 20.201 14.245" display="inline"/>
       <path transform="matrix(.11802 0 0 .13036 73.708 145.37)" d="m1136.4-221.57c-0.1799 9.0646-9.5959 16.297-21.031 16.155-11.435-0.14256-20.56-7.6064-20.38-16.671 0.1799-9.0646 9.5959-16.297 21.031-16.155 10.255 0.12784 18.847 6.1866 20.201 14.245" display="inline"/>
       <path transform="matrix(.11802 0 0 .13036 75.661 147.25)" d="m1136.4-221.57c-0.1799 9.0646-9.5959 16.297-21.031 16.155-11.435-0.14256-20.56-7.6064-20.38-16.671 0.1799-9.0646 9.5959-16.297 21.031-16.155 10.255 0.12784 18.847 6.1866 20.201 14.245" display="inline"/>
       <path transform="matrix(.11802 0 0 .13036 78.101 148.97)" d="m1136.4-221.57c-0.1799 9.0646-9.5959 16.297-21.031 16.155-11.435-0.14256-20.56-7.6064-20.38-16.671 0.1799-9.0646 9.5959-16.297 21.031-16.155 10.255 0.12784 18.847 6.1866 20.201 14.245" display="inline"/>
       <path transform="matrix(.11802 0 0 .13036 82.385 153.43)" d="m1136.4-221.57c-0.1799 9.0646-9.5959 16.297-21.031 16.155-11.435-0.14256-20.56-7.6064-20.38-16.671 0.1799-9.0646 9.5959-16.297 21.031-16.155 10.255 0.12784 18.847 6.1866 20.201 14.245" display="inline"/>
       <path transform="matrix(.11802 0 0 .13036 85.015 158.37)" d="m1136.4-221.57c-0.1799 9.0646-9.5959 16.297-21.031 16.155-11.435-0.14256-20.56-7.6064-20.38-16.671 0.1799-9.0646 9.5959-16.297 21.031-16.155 10.255 0.12784 18.847 6.1866 20.201 14.245" display="inline"/>
      </g>
      <g stroke-width="6.8415">
       <path transform="matrix(.11789 0 0 .14221 88.513 166.12)" d="m1136.4-221.57c-0.1799 9.0646-9.5959 16.297-21.031 16.155-11.435-0.14256-20.56-7.6064-20.38-16.671 0.1799-9.0646 9.5959-16.297 21.031-16.155 10.255 0.12784 18.847 6.1866 20.201 14.245" display="inline"/>
       <path transform="matrix(.11789 0 0 .14221 90.354 169.67)" d="m1136.4-221.57c-0.1799 9.0646-9.5959 16.297-21.031 16.155-11.435-0.14256-20.56-7.6064-20.38-16.671 0.1799-9.0646 9.5959-16.297 21.031-16.155 10.255 0.12784 18.847 6.1866 20.201 14.245" display="inline"/>
       <path transform="matrix(.11789 0 0 .14221 92.984 173.09)" d="m1136.4-221.57c-0.1799 9.0646-9.5959 16.297-21.031 16.155-11.435-0.14256-20.56-7.6064-20.38-16.671 0.1799-9.0646 9.5959-16.297 21.031-16.155 10.255 0.12784 18.847 6.1866 20.201 14.245" display="inline"/>
      </g>
     </g>
     <g stroke-width=".88583">
      <path d="m193.27 103.46c0.23245 0.23245 19.665 14.18 19.665 14.18"/>
      <path d="m204.89 112.43 7.9498 5.7648"/>
      <path d="m206.33 113.96 6.6481 5.2999"/>
      <path d="m214.19 119.63 11.669 17.387"/>
      <path d="m228.74 142.32 4.0446 5.4394c1.0967 2.6691-0.22439 3.1178-2.1386 3.0219l-5.1139-6.0437"/>
      <path d="m233.53 151.53 1.9526 6.2297 1.3017 7.4384"/>
      <path d="m279.8 129.12-9.5005 22.025c-0.36061 1.47-0.62518 2.9475 2.4655 5.194 3.83 1.5424 6.2018 2.1063 3.4188-0.78897-2.8657-1.7177-3.3854-3.5224-3.9448-5.3255-0.75935-9.8515 4.821-13.544 7.2322-20.316"/>
     </g>
    </g>
    <g stroke="#ff0000" stroke-width="1.3429">
     <path d="m182.89 94.077 35.503-4.4708 7.2322 13.544"/>
     <path d="m217.48 85.792 3.1559-3.9448 17.752 10.914 3.4188 6.9692"/>
     <path d="m228.52 101.18 3.1559-3.5503 5.5228-19.987-4.8653 5.1283"/>
     <path d="m242.46 98.416 3.5503-3.8133 5.3913-20.25-4.7338 5.2598"/>
     <path d="m267.97 94.471-4.8653-7.7582-16.831-10.783"/>
     <path d="m257.45 96.969-4.9968-8.6786-22.091-8.9416"/>
     <path d="m235.49 150.62-3.2874-37.213 13.412-8.8101 0.65746 40.5"/>
     <path d="m237.46 164.82 30.112-25.773"/>
     <path d="m257.19 147.99-7.3637-13.675-49.179-28.929 1.7094 2.8929"/>
     <path d="m296.5 149.04-46.154-73.9"/>
     <path d="m272.83 115.51-23.406-40.369"/>
    </g>
   </g>
  </g>
  <g transform="translate(-.55609 .85874)" display="inline" fill="none" opacity=".99205" stroke-linecap="round" stroke-linejoin="round">
   <g>
    <g>
     <g stroke-width="1.3429">
      <path d="m20.645 117.28 17.368 5.1488-12.762-6.0689 0.09036-0.50585 9.9993 3.3929 6.6858 0.79862 0.71378 0.29968-12.776-5.6559 24.668 4.9341-14.561-6.3148 0.89313-1.3312 23.829 5.3302c-4.3761 0.82521-10.474-3.5325-14.75-6.206-0.47508-0.29705 17.248 3.0476 25.084 4.5364 1.4783 0.28088-7.6869-3.7222-13.948-6.4163-2.3105-0.99423 14.187 2.2738 22.909 4.0376 2.2281 0.4506-6.4431-3.3872-11.313-5.503-1.4024-0.60932 15.946 2.4756 22.85 3.6475 1.5045 0.25537-15.854-5.9116-15.128-6.3249 0.35832-0.20416 14.709 1.0379 28.127 4.4722 0.82276 0.21058 1.9033-3.912 2.7403-7.8521 0.66305-3.1213 139.22-16.779 168.9-22.093l-1.8415 12.038-23.664-4.811c-1.6277 0.17613-1.2062 0.55057-0.24547 0.97719l10.572 4.4444-20.232-3.6479c-1.434-0.17742-2.8855 0.27442-0.28294 1.5025l10.588 4.0063-20.165-3.2704c-1.192-0.31453-3.411-0.10729-0.0271 1.042l9.0825 3.8555-20.9-4.5376c-2.2542-0.2754-1.2243 0.33028-0.1009 0.96106l11.805 6.2603-22.341-5.356c-1.138-0.29155-3.061-0.22185-0.16177 0.9867l12.48 5.836-21.434-4.5938c-0.85653-0.26509-3.5576-0.37058 0.0208 0.8211l10.44 5.1905-21.661-1.4792c-2.4056-0.24266-4.5488-0.32915-1.5272 1.2224l8.0677 2.8047" display="inline" stroke="#d4aa00"/>
      <path d="m109 118.3c-1.2864-0.11906-2.4606 0.77141-3.6769 1.284-1.1215 0.94669-0.538 1.4671 0.17509 1.9552 0.88559 1.04 1.7214 2.0876 3.5893 2.9765 3.3361-1.0119 1.5348-1.8886-0.35017-3.0349-0.91571 0.34986-1.7262 0.2385-4.6107 2.3053-0.54771 0.39246 1.4043 0.79532 2.3637 1.1673 0.0928 0.81708 0.45878 1.5466 0.99216 2.4512l2.3053 0.0584c2.5098-1.2481 0.15249-2.2126-1.4007-2.4512l-4.6982 2.3345c-1.0571 0.97837 0.0728 1.1468 1.0505 1.3715l4.8149 2.3637c1.7564-0.16157 1.5365-0.81718 1.4883-1.4299-0.59006-0.5883-1.1833-1.1748-2.3053-1.4591-2.3759 0.80687-3.2286 1.5122-4.5231 2.247-0.59695 0.52953-1.8322 1.1364 0 1.3715 1.7517 0.86455 3.1055 1.7733 5.4861 2.568 0.83337-0.18151 1.6444-0.38192 1.4882-1.4007-0.53505-0.49824-0.9799-1.0065-2.1886-1.4299-1.2388 0.21897-2.0751 0.66794-2.7722 1.1964-0.75059-0.13445-1.0139 2.1677-1.4882 3.4142" stroke="#d4aa00"/>
      <path d="m96.776 106.78c0.24761 3.384 8.5839 29.383 8.5839 29.383" stroke="#ff0000"/>
      <path d="m109.03 114.71 2.146 7.2633" stroke="#d4aa00"/>
      <path d="m34.852 57.278-14.214 60.116" display="inline" opacity=".99205" stroke="#ff0000"/>
     </g>
     <path d="m39.81 149.45 3.93-4.4281-10.878 5.6598c-5.5277 0.71953-8.5884 1.6718-1.6071 3.5714l19.643-10c3.4822-1.5476 3.9583 0.80357 2.8571 1.6071l-11.161 5.8929 35.045 24.911c2.2782 2.5897 0.37234 5.2722-0.66964 7.5893l4.1964-0.625c2.6285-4.9398 6.2331-6.6053 8.0357-5.7143 0.47392 2.351-5.7106 5.3192-7.6786 6.9643-2.9927 2.4372-6.3295 4.7219-10.312 5" display="inline" stroke="#d4aa00" stroke-width="1.3535"/>
     <path d="m33.51 124.31 8.715 35.886" display="inline" opacity=".99205" stroke="#ff0000" stroke-width="1.3429"/>
    </g>
    <g stroke="#d4aa00">
     <path d="m42.548 152.66 32.193 23.842" display="inline" stroke-width="1.3535"/>
     <path d="m42.297 152.83 30.72 24.691c1.1597 1.3288 3.4501 0.62847 1.7123-0.96607" display="inline" stroke-width="1.3535"/>
     <path d="m53.475 164.05-9.4702 4.0406-1.5152-7.0711" display="inline" stroke-width="1.3181"/>
    </g>
    <g stroke-width="1.3535">
     <path d="m280.36 78.592 3.5714-19.286" stroke="#fe0000"/>
     <path d="m279.87 84.919-2.9124 2.9042-13.763-2.7779c-0.56666 0.28239-1.7463 0.28188-0.25254 1.5152l25.128 4.9245-6.0609 26.769c-4.4139-0.48677-8.2015-1.2867-14.395-0.88388 1.7079 2.8938 8.3048 3.6923 13.006 5.3033l-15.152-1.894" stroke="#d4aa00"/>
     <path d="m280.54 83.86-6.6071-0.17857-8.5714 36.786" stroke="#fe0000"/>
    </g>
    <g stroke="#d4aa00" stroke-width="1.3535">
     <path d="m225.36 132.43 7.1429-1.6071-22.321-16.071h-6.0714"/>
     <path d="m227.68 134.75 5.3011-1.4394-22.444-15.703-3.0357 0.53572"/>
     <path d="m234.82 153.5c-1.8742-2.0906-3.4587-4.1087-2.6786-5.5357 1.555-1.6055 3.1424-1.8234 6.6071 0.53571l-13.571-15.536-8.5931-7.042"/>
     <path d="m195.89 105.29 29.506 26.387"/>
     <path d="m214.31 107-3.4795 8.162"/>
     <path d="m195.89 105.29c2.6097-0.95824 4.183-2.5642 9.2857-1.9643 2.041 0.60432 2.2181 2.5378 0.35714 3.5714-1.2987 0.4455-1.3756 0.67409-3.5498 1.1021-1.7828-0.53358-2.9316-1.6202-3.373-2.4892"/>
    </g>
    <path d="m230.71 146.72-6.0714-24.821-8.5714-21.964-1.6072 7.1429" stroke="#f80000" stroke-width="1.3535"/>
    <path d="m223.93 118.86c0-1.4286-12.857-46.071-12.857-46.071v31.429" stroke="#f80000" stroke-width="1.3535"/>
   </g>
   <g transform="translate(-.66278 -749.7)" display="inline" stroke="#d4aa00" stroke-width="1.3535">
    <path transform="translate(0 751.18)" d="m158.09 130.47-2.2728 9.0914-37.313-29.886-10.417-6.2266-11.617-2.3991"/>
    <path transform="translate(0 751.18)" d="m153.29 132.11-8.46 30.178-40.911-30.936-7.4499-0.75762"/>
    <path transform="translate(0 751.18)" d="m150.89 138.29-44.194-31.694-20.961-3.4093"/>
    <path transform="translate(0 751.18)" d="m149.88 141.96-42.174-31.315-5.9346-0.25254"/>
    <path transform="translate(0 751.18)" d="m148.74 144.23-41.29-30.557-6.3135-0.25254"/>
    <path transform="translate(0 751.18)" d="m148.11 148.14-41.669-31.567-6.1872-0.25253"/>
    <path transform="translate(0 751.18)" d="m147.61 150.29-41.795-30.557-6.1872-0.50507"/>
    <path transform="translate(0 751.18)" d="m146.6 152.94-41.416-30.936-6.6923 0.12627"/>
    <path transform="translate(0 751.18)" d="m146.09 155.72-41.037-30.052-7.1973-0.88389"/>
    <path transform="translate(0 751.18)" d="m144.83 157.99-40.911-29.926-6.3135-0.63135"/>
   </g>
   <g>
    <path d="m201.61 94.395-4.8214-19.286-99.643 31.607" stroke="#f80000" stroke-width="1.3535"/>
    <path d="m109.08 114.76-0.90791-2.311-40.287 65.537 3.1793 11.778" stroke="#ff0000" stroke-width="1.3429"/>
    <path d="m96.975 101.17 0.88388-7.3236 56.063 34.598-1.1364 4.0406-65.281-37.123-1.1364 7.9549" stroke="#fd0000" stroke-width="1.3535"/>
    <path d="m235.8 153.28 9.1013-33.198-82.574-6.822-4.5501 17.439" display="inline" opacity=".99205" stroke="#ff0000" stroke-width="1.3429"/>
    <path d="m96.25 132.43 8.0357-34.464" stroke="#fd0000" stroke-width="1.3535"/>
   </g>
  </g>
  <g transform="translate(253.73 -273.44)" display="inline">
   <path transform="translate(174.86 107.48)" d="m53.538 184.28c0 6.9736-5.5402 12.627-12.374 12.627s-12.374-5.6533-12.374-12.627 5.5402-12.627 12.374-12.627 12.374 5.6532 12.374 12.627z" fill="#1f638a" stroke-linecap="round" stroke-linejoin="round" stroke-width=".99921"/>
   <text x="210.79456" y="298.94318" fill="#000000" font-family="sans-serif" letter-spacing="0px" word-spacing="0px" style="line-height:0%" xml:space="preserve"><tspan x="210.79456" y="298.94318" fill="#ffffff" font-family="sans-serif" font-size="20px" font-weight="bold" style="line-height:1.25">2</tspan></text>
  </g>
  <g transform="translate(.52324 -17.877)" display="inline">
   <g>
    <path d="m184.23 57.429 68.02-32.01 17.005 14.671-67.353 31.676z" fill="url(#linearGradient14922)" stroke="#4d4d4d" stroke-width=".83742"/>
    <path d="m226.16 49.652 14.463 30.146" display="inline" fill="#34679b" stroke="#34679b" stroke-linecap="round" stroke-linejoin="round" stroke-width=".83742"/>
    <path d="m240.8 80.091-2.7354-16.173-9.573 5.0975z" display="inline" fill="#34679b" stroke="#34679b" stroke-linecap="round" stroke-linejoin="round" stroke-width=".83742"/>
   </g>
   <g transform="translate(13.956 -646.67)" display="inline" stroke-width=".83742">
    <path d="m4.6473 700.57 93.028 7.669 30.342 26.008-93.028-8.0024z" fill="url(#linearGradient14079-4)" stroke="#4d4d4d"/>
    <path d="m54.541 758.33 8.6031-13.966-10.559-2.4764z" display="inline" fill="#34679b" stroke="#34679b" stroke-linecap="round" stroke-linejoin="round"/>
    <path d="m64.732 717.96-9.5028 36.177" display="inline" fill="#0000fb" stroke="#34679b" stroke-linecap="round" stroke-linejoin="round"/>
   </g>
  </g>
  <g transform="translate(-73.878 -273.43)" display="inline">
   <path transform="translate(174.86 107.48)" d="m53.538 184.28c0 6.9736-5.5402 12.627-12.374 12.627s-12.374-5.6533-12.374-12.627 5.5402-12.627 12.374-12.627 12.374 5.6532 12.374 12.627z" fill="#1f638a" stroke-linecap="round" stroke-linejoin="round" stroke-width=".99921"/>
   <text x="210.79456" y="298.94318" fill="#000000" font-family="sans-serif" letter-spacing="0px" word-spacing="0px" style="line-height:0%" xml:space="preserve"><tspan x="210.79456" y="298.94318" fill="#ffffff" font-family="sans-serif" font-size="20px" font-weight="bold" style="line-height:1.25">1</tspan></text>
  </g>
  <g>
   <ellipse transform="matrix(1.0802 0 0 1.0802 498.01 226.98)" cx="116.88" cy="62.899" rx="32.287" ry="31.575" d="m 149.164,62.898998 c 0,17.438392 -14.45538,31.575001 -32.287,31.575001 -17.831618,0 -32.287,-14.136609 -32.287,-31.575001 0,-17.438391 14.455382,-31.575001 32.287,-31.575001 17.83162,0 32.287,14.13661 32.287,31.575001 z" display="inline" fill="url(#radialGradient6233-1)" opacity=".52525" stroke="#4d4d4d" stroke-linecap="square" stroke-miterlimit="10" stroke-width=".29582"/>
   <path d="m625.43 261.22c-34.604 5.6857-46.724 59.75-7.4889 67.451" display="inline" fill="none" opacity=".79798" stroke="#4d4d4d" stroke-linecap="square" stroke-miterlimit="10" stroke-width=".41986"/>
   <path d="m625.69 329.31 0.0182 1.4075 9.0424 6.381v-4.8111l-4.6134-3.3416c-1.7793 0.3474-3.1578 0.3696-4.4472 0.3642z" display="inline" fill="#7ab51d" stroke="#000000" stroke-linecap="round" stroke-linejoin="round" stroke-width=".39498px"/>
   <path d="m630.06 328.91c1.5567-0.1446 3.2626-0.6117 4.5846-0.9547l3.8868 3.2132-3.8697 1.0167z" display="inline" fill="#52801a" stroke="#000000" stroke-linecap="round" stroke-linejoin="round" stroke-width=".39498px"/>
   <g transform="translate(114.15 73.741)" stroke="#000000" stroke-linecap="round" stroke-linejoin="round" stroke-width=".39467">
    <path d="m485.92 251.83c0.0826 0.1851 0 17.915 0 17.915l-44.153-3.5267z" display="inline" fill="#e2001a"/>
    <path d="m485.83 251.7-8.746-6.0659-35.125 20.454z" display="inline" fill="#802625"/>
   </g>
   <g>
    <g stroke="#000000" stroke-linecap="round" stroke-linejoin="round" stroke-width=".39498px">
     <path d="m600.16 330.93 14.107-2.9452c2.4294 0.7257 8.0458 1.3134 11.336 1.3771v1.1769l-25.442 5.6277z" display="inline" fill="#e2001a"/>
     <path d="m600.16 329.62 11.222-2.5935 2.9675 0.9726-14.189 2.9425z" display="inline" fill="#802625"/>
     <path d="m622.63 262.22c-0.9239-0.9947-1.5584-0.8635-2.4812-0.8852l5.561-24.787z" display="inline" fill="#34679b"/>
    </g>
    <text x="629.17957" y="240.13672" display="inline" fill="#13385e" font-family="ArialUnicodeMS" font-size="18px" style="line-height:0%"><tspan font-weight="bold">C</tspan></text>
    <text x="667.0058" y="352.23401" display="inline" fill="#52801a" font-family="ArialUnicodeMS" font-size="14.552px" style="line-height:0%"><tspan fill="#52801a" font-size="18px" font-weight="bold">B</tspan></text>
    <polygon transform="matrix(.46238 .093377 -.093377 .46238 606.72 157.22)" points="109.72 187.78 112.56 178.42 112.56 178.42 93.718 177.97" clip-rule="evenodd" display="inline" fill="#4d4d4d" fill-rule="evenodd" stroke="#4d4d4d" stroke-linecap="round" stroke-linejoin="round" stroke-width="1.0011"/>
   </g>
   <g stroke-linecap="round" stroke-linejoin="round">
    <path transform="matrix(-1.8012 .54359 -.54359 -1.8012 1306.4 687.51)" d="m295.89 286.8c-0.0768 4.8812-4.096 8.776-8.9772 8.6992-4.8812-0.0768-8.776-4.096-8.6992-8.9772 7e-3 -0.47622 0.0534-0.95105 0.13745-1.4199" display="inline" fill="none" opacity=".79798" stroke="#4d4d4d" stroke-width=".3371"/>
    <path d="m634.78 332.25v15.81l29.55 4.9874z" display="inline" fill="#7ab51d" stroke="#000000" stroke-width=".39498px"/>
    <polygon transform="matrix(-.28679 -.37452 .37452 -.28679 610.33 411.64)" points="93.718 177.97 109.72 187.78 112.56 178.42 112.56 178.42" clip-rule="evenodd" display="inline" fill="#4d4d4d" fill-opacity=".99608" fill-rule="evenodd" stroke="#4d4d4d" stroke-width="1.0011"/>
    <path d="m634.66 332.09c0.39899-0.1 16.558-4.1395 16.558-4.1395l13.067 25.236z" display="inline" fill="#52801a" stroke="#000000" stroke-width=".39498px"/>
   </g>
   <path d="m614.97 280.86c12.91 1.1874 25.851-1.455 30.983-8.0458 0 0-8.5726-10.713-18.271-12.046l-6.2554 0.56109c-0.23055-0.10468-2.0583 2.9025-3.7015 7.5996-1.2595 3.6004-2.3845 8.493-2.7557 11.932z" display="inline" fill="url(#radialGradient24598)" stroke="#4d4d4d" stroke-linecap="square" stroke-miterlimit="10" stroke-width=".3362"/>
   <g transform="translate(415.57 -680.2)" display="inline" fill="none" stroke="#ee7f00" stroke-linecap="round" stroke-linejoin="round" stroke-miterlimit="10">
    <path d="m199.75 959.21c10.408 1.0712 21.792-0.17044 29.589-6.8015" stroke-width=".26032"/>
    <path d="m202.53 948.11c6.2017 1.501 12.536 0.47265 18.375-3.2293" display="inline" stroke-width=".26032"/>
    <path d="m203.89 944.59c5.2114 1.7153 8.4756 1.1986 13.361-1.7124" display="inline" stroke-width=".25052"/>
    <path d="m200.61 955.01c8.9727 1.4065 16.746 1.2873 26.135-5.3613" display="inline" stroke-width=".26032"/>
   </g>
   <g fill="none">
    <path d="m616.53 248.88c-19.856 10.317-7.8677 23.574 8.1828 23.276 10.101 0.21425 34.752-11.249 12.355-22.168" display="inline" stroke="#4d4d4d" stroke-width=".63425"/>
    <path d="m589.38 294.36c10.978 7.8604 24.027 11.144 37.079 10.527 11.344-0.5366 28.078-6.3151 32.566-13.855" display="inline" opacity=".79798" stroke="#4d4d4d" stroke-linecap="round" stroke-linejoin="round" stroke-miterlimit="10" stroke-width=".25052"/>
    <g stroke="#ee7f00" stroke-linecap="round" stroke-linejoin="round" stroke-miterlimit="10" stroke-width=".26026">
     <path d="m623.14 264.08c-1.1545 5.3021-2.5174 13.328-2.7854 16.774" display="inline"/>
     <path d="m624.61 262.76c2.0028 5.689 3.4946 10.068 4.9986 17.457" display="inline"/>
     <path d="m625.73 262.62c5.9079 4.1676 9.1876 9.2904 10.553 15.975" display="inline"/>
     <path d="m626.88 262.19c8.5494 2.8752 13.137 7.4822 14.498 14.108" display="inline"/>
    </g>
   </g>
   <path d="m625.76 236.5 7.1359 25.649c-3.4693-0.4567-6.7936-0.2242-9.7335 1.8338-0.17453-1.3529-0.58128-2.0968-1.2468-2.3902z" display="inline" fill="#13385e" stroke="#000000" stroke-linecap="round" stroke-linejoin="round" stroke-width=".39498px"/>
  </g>
 </g>
 <g transform="translate(0 17.717)">
  <g>
   <g transform="matrix(.22506 0 0 .22506 -98.079 -36.696)" stroke-width="5.9668">
    <g transform="translate(506.17 286.93)" fill="none" stroke="#d4aa00" stroke-linecap="round" stroke-linejoin="round">
     <path d="m618.61 483.44 0.5188 31.337-23.419-10.022-165.54-116.34c-15.854-15.504-28.984-14.976-51.393-11.133l-319.49 69.617c-40.657-4.8999-42.916 2.7739-28.066 24.949l87.735 162.7c9.6877 8.7478 14.449 7.6437 20.332 8.7806l27.857-4.2857c11.958-4.4461-10.426-7.7635-12.861-5.7106l-11.926 1.3382-23.784-60.628 27.143-12.857-71.602 17.056-28.441 0.17332c-17.775 3.311-10.981 12.448-4.2424 14.783 11.587 2.76 27.591 3.3115 44.51 3.4055l21.919-9.7041 35.714-12.143-29.286 15 26.681 59.491c5.6229-2.2547 11.203-4.682 17.478-4.3253 6.9934 1.3972 8.3463 3.4995 10.126 5.5484-6.2047 2.9531-15.979 4.3761-24.286 6.4286-13.275 3.084-20.556 1.1175-29.156-2.1429l-77.082-61.347"/>
     <path d="m591.44 485.53-7.0711 32.83c-17.981-20.133-111.12-81.149-166.68-121.72-10.953-1.7022-12.406 5.0594-20.642 8.7902l-70.951 1.2194-50.461-6.0953 14.268 6.566-8.3338 11.617-53.286-8.8388-49.497 11.49 67.68 8.3338-50.255-3.6618-7.1973 13.385-52.528-8.5863 13.006 6.6923c-0.083 2.5353-0.43832 5.2068-6.124 10.543l-3.9143-0.56821-51.581-7.1974c5.0675 1.6585 10.803 2.315 14.647 5.8084-0.94784 7.0897-3.6037 9.0552-5.8084 12.374l-53.791-7.3236"/>
     <path d="m414.67 377.2c0 2.0203 0.2985 29.871 0.2985 29.871-2.3105-17.074-10.57-15.094-11.663-15.476-12.868-0.095-22.445 2.3417-32.325 4.5457-6.9496 3.2405-3.6845 6.3787 3.4029 10.709 9.0134 3.8734 16.954 8.1885 29.787 10.489 13.627-0.13097 4.2336-6.4339-4.6529-11.601l-22.476 4.5457c-6.5698 2.2458-3.7356 5.1328 0 8.0812 7.1111 3.5229 12.79 7.2661 22.728 10.354 22.596 0.13618-0.10915-9.9456-5.298-9.2853-10.776 0.61197-24.689 4.817-12.632 9.5378"/>
     <path d="m382.59 429.22 16.964 10.268c7.512 2.0934 11.812 1.9786 7.9464-3.75-5.6664-4.1599-9.0626-4.7275-14.196-4.2857-29.674 1.7555-9.3892 14 5.8036 20.625 11.496 2.5341 10.649-0.25229 10.054-1.9887-0.40359-1.1795-7.1404-5.8741-8.0901-5.7791"/>
     <path d="m382.74 454.96 17.768 10.536c7.512 2.0934 11.812 1.9786 7.9464-3.75-5.6664-4.1599-9.0626-4.7275-14.196-4.2857-29.674 1.7555-9.3892 14 5.8036 20.625 11.496 2.5341 10.649-0.25229 10.054-1.9887-0.40359-1.1795-7.1404-5.8741-8.0901-5.7791"/>
     <path d="m384.35 480.32 16.964 10.268c7.512 2.0934 11.812 1.9786 7.9464-3.75-5.6664-4.1599-9.0626-4.7275-14.196-4.2857-29.674 1.7555-9.3892 14 5.8036 20.625 11.496 2.5341 10.649-0.25229 10.054-1.9887-0.40359-1.1795-8.0333-5.8741-8.9829-5.7791"/>
     <path d="m383.81 505.49 16.964 10.268c7.512 2.0934 11.812 1.9786 7.9464-3.75-5.6664-4.1599-9.0626-4.7275-14.196-4.2857-29.674 1.7555-9.3892 14 5.8036 20.625 11.496 2.5341 10.649-0.25229 10.054-1.9887-0.40359-1.1795-7.1404-5.8741-8.0901-5.7791"/>
     <path d="m401.37 444.16c-7.8868-0.32731-16.853 1.9174-20.117 3.4452-4.2504 1.9257-5.9556 4.1568 1.6071 7.5"/>
     <path d="m402.09 470.3c-7.8868-0.32731-16.296 1.1509-19.56 2.6786-4.2504 1.9257-5.9556 4.1568 1.6071 7.5"/>
     <path d="m401.9 495.31c-7.8868-0.32731-15.665 1.1509-18.929 2.6786-4.2504 1.9257-5.9556 4.1568 1.6071 7.5"/>
     <path d="m402.35 520.67c-12.016-2.3918-25.167 6.0423-27.857 7.8571"/>
     <path d="m490 732.25 21.429 7.1429c5.4956 4.2204 3.8539 7.4213-7.1428 9.2857l-104.29 15.545c-28.073-2.9585-24.385-7.3607-8.2106-12.33l44.286-16.071c10.074-7.0669 14.228-13.542 7.5-18.929l-116.07-82.5c-4.0084-4.4679-0.73962-7.6515 3.2143-10.714l15-6.7857-65.357 13.929 116.79 80c5.9028 4.7593 7.2674 10.729-1.0714 19.286l-43.571 17.857 26.071 0.35714"/>
     <path d="m490.05 732.14c-14.538 8.3325-29.698 15.111-45.583 20.077-14.516 5.7166-2.4448 10.354-3.0305 10.859 22.792 0.57439 44.684 0.17856 67.933-3.5355 12.942-4.1774 2.7944-9.7405-6.1807-8.6585-10.584 1.276-25.376 7.8214-29.175 8.9111-5.9069 3.4194-7.0042 5.4646-8.3338 7.5761"/>
     <path d="m426.79 625.47 0.35714 33.214c-2.2344-1.9887-13.195-2.5231-23.214-3.2143-40.563 10.234-66.419 5.6327-74.286-24.643l39.304-1.4719 0.69634-30.671"/>
     <path d="m436.07 702.61v8.2143l-8.2143 2.8571-110.36-79.643 19.643-3.2143z"/>
     <path d="m328.57 615.82 1.0714 33.214-46.071 8.5714c5.1231 2.9129 11.151 4.9855 22.857 1.7857l-25.357-43.214c-3.9522-6.2477-10.652-10.847-26.429-10l-69.286 15.714 123.21 85.714c3.6445 8.3374 0.69996 16.062-16.071 22.5l-16.786 8.9286"/>
     <path d="m275.27 585.79-0.50508 32.83-40.406 8.8388 123.24 86.873c-0.14182 9.6015-11.544 15.262-25.001 20.203l-39.143 13.132-9.849 7.5761"/>
     <path d="m235.11 622.91-12.627 3.5355 114.15 80.56 7.5761-6.3135-2.2728-3.5355z"/>
     <path d="m307.09 669.89 8.3338 28.789-13.637 9.0914-0.25253 8.8388-23.486 26.264-34.345 12.879"/>
     <path d="m252.14 709.75-148.93-104.64 6.7857-3.5714 146.43 101.79c0.79305 4.0227 1.014 7.5612-4.2857 6.4286z"/>
     <path d="m95.714 586.18c-0.35714-1.3095 0.71429-2.381 3.2143-3.2143l154.11 108.57c2.3393 2.1893 1.934 5.4818-1.6071 5z"/>
    </g>
    <g>
     <g transform="translate(486.01 251.59)" fill="none" stroke="#ff0000" stroke-linecap="round" stroke-linejoin="round" stroke-width="5.9668">
      <path d="m97.985 346.64-33.335 139.4"/>
      <path d="m434.37 399.17-378.81 59.599 2.0203 169.71"/>
      <path d="m296.18 434.3 4.0406-14.142-57.788-4.834-7.0711 31.315"/>
      <path d="m5 536.18 270-17.143 53.096 188.89"/>
      <path d="m390.71 344.75 3.5714 220"/>
      <path d="m736.02 417.71-387.35 44.592 2.7558 191.74"/>
      <path d="m656.43 346.18-41.429 174.29"/>
      <path d="m732.14 470.47-246.23 99.483-0.2026 231.95"/>
      <path d="m446.51 661.5 0.0791-29.047-142.3 114.44 0.71428 45"/>
      <path d="m735.41 348.69-467.77 373.1-3.3585 72.249"/>
      <path d="m297.86 600.47v175"/>
     </g>
    </g>
   </g>
   <g transform="matrix(.19343 0 0 .19903 173.73 -12.528)" fill="none" stroke="#d4aa00" stroke-linecap="round" stroke-linejoin="round" stroke-width="6.8444">
    <path d="m518.57 476.18v40c-4.1297 4.7821-3.1171 12.361-30.714 19.286l-370.71 78.571c-20.347 3.3994-32.493 7.7738-12.814 21.847l177.81 127.44c16.92 6.862 17.271 20.29-16.089 16.176l-65.47-65.976"/>
    <path d="m105.06 591.09c0.50507 2.0203 10.354 30.81 10.354 30.81l0.50507 13.132c4.7586-1.852 10.011-2.4412 20.708-4.2932l20.456-0.25254-0.50507-34.85"/>
    <path d="m115.35 635.18c-4.3474 1.1205-11.114 2.4329-8.2777 6.1655 6.2648 5.0152 12.852 9.7076 20.456 13.385l25.254-3.7881c7.1274-0.73625 11.801-3.2196 8.3338-5.8084-3.8871-1.8222-7.7777-3.6375-13.637-1.5152-15.166 2.3809-22.263 5.5688-31.062 8.5863l120.46 86.621-1.7678 19.698c-0.56646 2.1568 1.0983 5.457 5.3033 5.3033l17.173-1.2627c8.4882-2.3211 9.8357-5.0884 7.5761-8.0812l-74.246-51.265c-8.773 0.35253-14.963 2.4274-17.678 6.8185"/>
    <path d="m130.56 679.23c10.763-3.4861 19.522-6.3703 35.455-7.9766 10.167 0.28761 12.511 3.377 3.1836 5.9563-8.115 2.3777-17.178 2.6224-26.874 2.593l-15.3-9.159c-7.4084-3.8674-3.4974-5.0715 0.25254-6.3135l28.789-6.0609c14.389-1.7299 20.485 7.0951 27.779 14.395l67.175 68.943"/>
    <path d="m117.14 636.9 157.5 104.64c8.2469 7.603 1.3605 12.15-4.6429 14.821l-18.214 2.3214c-3.8298-4.0557-8.5697-8.4755-7.8572-10.714-0.90636-5.6479 4.1404-6.2585 9.2857-6.7857l-7.8572-36.429-14.643 13.929-20-18.571"/>
    <path d="m197.14 730.47 10-3.9286c-5.4096-5.1574-8.686-3.9151-12.143-3.2143-1.4436 3.5998 6.5868 6.9526 10.983 10.026 17.023 11.901 33.433 24.403 49.374 36.76 1.1547 6.6833-1.931 12.519-7.5 17.857l22.857 1.4286c13.973-2.3461 12.916-6.7653 7.5-11.786l-46.071-45.357"/>
    <path d="m208.86 750.79 59.604 42.605c2.2531 4.6914 2.2433 9.1566-0.26523 13.372-4.0284 16.472 27.933 9.0897 32.529-1.2141 1.3159-3.2364-3.0261-5.2321-4.7496-3.8367-2.6218 6.2044-7.6848 9.9675-14.8 8.6423-3.1907-1.4754-3.9652-6.575-5.3786-10.716l-56.529-56.568"/>
    <path d="m235.36 769.93 87.5 85.536c1.5331 2.6902 15.268 7.7445-10 11.607-10.454 0.66778-19.773 0.57372-14.643-8.3929 3.42-5.3362 2.4086-9.8415-1.7857-13.75l-57.5-41.25"/>
    <path d="m293.75 804.4-55.357-53.036"/>
    <path d="m273.93 797.25 34.107 32.5c3.9759 4.5145 7.048 8.8281-1.6072 10.536-18.17 3.4346-31.426 2.9564-21.429-10.536 1.3744-3.631-0.85886-7.2619-3.2143-10.893l-57.143-40.893"/>
    <path d="m533.57 629.75c-0.2381 12.679 3.9536 25.99-0.71429 38.036-11.504 20.491-39.83 21.007-63.189 25.702-7.406 0.61334-17.221 7.9722-2.1862 12.77l65.876-2.9797c13.575-0.65061 19.96-7.7134-1.4966-8.3981-13.773 2.0026-16.922 5.9368-24.005 9.1557l-36.068 4.4157-13.261 7.893"/>
    <path d="m454.03 762.88 0.23984 36.575 48.783-9.3566c3.9405-1.8519 4.5866-3.7039-0.50508-5.5558-9.483-0.0478-10.345 1.7517-13.637 3.0304-8.8468 7.118-5.2965 11.305 7.7547 15.091 56.004 6.1654 111.47 11.631 168.01 12.984 16.87-4.8363 9.5091-10.638-2.7959-13.724-2.4822 4.6742-6.0567 8.2139-8.9076 8.4331-20.134 3.1666-37.955-0.67904-55.977-2.5814l-66.598-47.481-78.974 16.961c-10.482 2.5243-25.152 11.575-1.9643 20.893l210.89 44.821c9.7148-0.90012 18.776-2.726 22.857-11.607 2.0247-4.7634 0.29014-13.44-9.4643-4.6429-16.699 12.309-40.668 8.6256-61.607 11.607-37.91 3.0643-65.354-2.1185-78.571-12.5l-53.214-37.143-46.429 11.429"/>
    <path d="m499.11 779.75 17.5-3.5714 57.679 39.821-20.714 0.35715c-19.477-11.464-39.011-22.909-55.536-35.357"/>
    <path d="m354.56 816.86 0.4438 36.212 48.549-8.4331c5.8734 0.24015 10.999-5.1602-5.5558-5.0508-7.5711 1.6185-8.4821 6.2341-6.566 12.122l49.497 32.83c9.5932 4.2536 22.981 5.851 37.294 6.8006 33.838-1.912 68.423-3.3486 97.232-8.4611 9.6629 0.36481 11.443 6.4099-8.2318 10.987-74.27-14.608-143.95-30.744-215.69-46.197-11.571-4.3907-16.726-9.6065 1.6124-15.867l76.169-17.468 68.813 47.477 73.287 1.8111 36.697-4.8416c-3.08 5.3084-5.8545 10.753-17.27 12.356l-189.81-15.892"/>
    <path d="m400 955.11-8.2143-12.709 84.643 0.20921c14.723-1.5139 8.778-8.0257 0.35715-8.171l-69.747 6.847c-10.72 1.1496-15.423-1.2107-18.11-4.7475-10.825-22.518-52.018-45.61-80.253-65.653l19.434-3.8419 58.319 40.923c37.289 14.408 72.475 7.2709 112.14 3.2143 24.733-4.587 20.135 5.9323 10.714 9.2857-14.666 5.1014-29.708 7.9432-45.714 5l-122.92-52.038c-16.923-7.773-13.436-16.556-0.1046-22.561l36.237-9.329 14.643 10.714"/>
    <path d="m399.26 835.55 17.93-4.7982 54.043 37.123-23.234 0.25254z"/>
   </g>
   <g transform="matrix(.1907 0 0 .19317 169.4 -24.192)" fill="none" stroke="#ff0000" stroke-linecap="round" stroke-linejoin="round" stroke-width="6.9969">
    <path d="m544.47 468.87 4.0406 90.914"/>
    <path d="m563.67 711.3c0-6.0609-3.0305-158.59-3.0305-158.59l-319.21 109.1-0.32071 166.13"/>
    <path d="m39.396 634.53 61.594-47.529 28.826 86.634"/>
    <path d="m181.97 673.17 0.14751-28.952 58.294 141.83-0.1475 41.793"/>
    <path d="m482.66 845.42-1.9447-187.61-555.49 177.42"/>
    <path d="m489.29 797.61-4.2857-210-449.79 188"/>
    <path d="m335 909.75-115-392.14"/>
    <path d="m462.44 883.7-0.24609-40.168-80.048 40.504-0.22212 16.555"/>
    <path d="m429.29 1045.5c0-5 1.5171-383.58 1.5171-383.58"/>
    <path d="m459.29 517.61 3.5714 148.57-427.86 50"/>
   </g>
   <path d="m98.341 113.2 0.8038 49.514" fill="none" stroke="#ff0000" stroke-linecap="round" stroke-linejoin="round" stroke-width="1.3429"/>
  </g>
  <g transform="translate(151.79 126.52)">
   <g transform="translate(-14.219 4.5638)">
    <ellipse cx="17.483" cy="-98.798" rx="13.199" ry="13.469" fill="#1f638a" stroke-linecap="round" stroke-linejoin="round" stroke-width="1.0658"/>
    <text x="11.641406" y="-91.256096" fill="#000000" font-family="'Arial Nova', 'Arial Unicode MS', 'Yu Gothic UI', sans-serif" font-size="12.8px" letter-spacing="0px" stroke-width="1.0667" word-spacing="0px" style="line-height:0%" xml:space="preserve"><tspan x="11.641406" y="-91.256096" fill="#ffffff" font-family="'Arial Nova', 'Arial Unicode MS', 'Yu Gothic UI', sans-serif" font-size="21.333px" stroke="#ffffff" stroke-width="1.0667" style="line-height:1.25">3</tspan></text>
   </g>
  </g>
 </g>
</svg>
