<?xml version="1.0" encoding="UTF-8" standalone="no"?>
<!-- Created with Inkscape (http://www.inkscape.org/) -->
<svg xmlns:inkscape="http://www.inkscape.org/namespaces/inkscape" xmlns:sodipodi="http://sodipodi.sourceforge.net/DTD/sodipodi-0.dtd" xmlns:xlink="http://www.w3.org/1999/xlink" xmlns="http://www.w3.org/2000/svg" xmlns:svg="http://www.w3.org/2000/svg" xmlns:rdf="http://www.w3.org/1999/02/22-rdf-syntax-ns#" xmlns:cc="http://creativecommons.org/ns#" xmlns:dc="http://purl.org/dc/elements/1.1/" version="1.1" width="637.79529" height="248.03149" id="svg8642" xml:space="preserve" sodipodi:docname="2D_konturfraesen_3DModell_kantenverhalten.svg" inkscape:version="1.2.2 (732a01da63, 2022-12-09)"><sodipodi:namedview id="namedview4242" pagecolor="#ffffff" bordercolor="#666666" borderopacity="1.0" inkscape:showpageshadow="2" inkscape:pageopacity="0.0" inkscape:pagecheckerboard="0" inkscape:deskcolor="#d1d1d1" showgrid="false" showguides="true" inkscape:zoom="0.95149205" inkscape:cx="351.02763" inkscape:cy="159.22361" inkscape:window-width="1920" inkscape:window-height="1010" inkscape:window-x="953" inkscape:window-y="-6" inkscape:window-maximized="1" inkscape:current-layer="svg8642"><sodipodi:guide position="487.91789,89.727495" orientation="0.25488129,-0.96697235" id="guide8586" inkscape:locked="false"/></sodipodi:namedview><metadata id="metadata8648"><rdf:RDF><cc:Work rdf:about=""><dc:format>image/svg+xml</dc:format><dc:type rdf:resource="http://purl.org/dc/dcmitype/StillImage"/></cc:Work></rdf:RDF></metadata><defs id="defs8646"><linearGradient x1="98.670998" y1="61.299999" x2="375.76001" y2="58.938" id="linearGradient8682" gradientUnits="userSpaceOnUse" gradientTransform="matrix(0.550576,0,0,-0.547616,-26.687128,91.760481)" spreadMethod="pad"><stop id="stop8684" style="stop-color:#ffffff;stop-opacity:1" offset="0"/><stop id="stop8686" style="stop-color:#00385e;stop-opacity:1" offset="1"/></linearGradient><linearGradient x1="98.441002" y1="106.29" x2="246.14" y2="109.44" id="linearGradient8694" gradientUnits="userSpaceOnUse" gradientTransform="matrix(0.550576,0,0,-0.547616,-26.687128,91.760481)" spreadMethod="pad"><stop id="stop8696" style="stop-color:#ffffff;stop-opacity:1" offset="0"/><stop id="stop8698" style="stop-color:#00385e;stop-opacity:1" offset="1"/></linearGradient><linearGradient x1="200.60001" y1="119.37" x2="365.81" y2="115.44" id="linearGradient8706" gradientUnits="userSpaceOnUse" gradientTransform="matrix(0.550576,0,0,-0.547616,-26.687128,91.760481)" spreadMethod="pad"><stop id="stop8708" style="stop-color:#ffffff;stop-opacity:1" offset="0"/><stop id="stop8710" style="stop-color:#00385e;stop-opacity:1" offset="1"/></linearGradient><linearGradient x1="97.230003" y1="63.007999" x2="352.95001" y2="61.439999" id="linearGradient8734" gradientUnits="userSpaceOnUse" gradientTransform="matrix(0.549568,0,0,-0.549568,145.24327,95.000481)" spreadMethod="pad"><stop id="stop8736" style="stop-color:#ffffff;stop-opacity:1" offset="0"/><stop id="stop8738" style="stop-color:#00385e;stop-opacity:1" offset="1"/></linearGradient><linearGradient x1="97.230003" y1="108" x2="237.17" y2="118.19" id="linearGradient8746" gradientUnits="userSpaceOnUse" gradientTransform="matrix(0.549568,0,0,-0.549568,145.24327,95.000481)" spreadMethod="pad"><stop id="stop8748" style="stop-color:#ffffff;stop-opacity:1" offset="0"/><stop id="stop8750" style="stop-color:#00385e;stop-opacity:1" offset="1"/></linearGradient><linearGradient x1="199.39" y1="121.08" x2="354.51999" y2="118.73" id="linearGradient8758" gradientUnits="userSpaceOnUse" gradientTransform="matrix(0.549568,0,0,-0.549568,145.24327,95.000481)" spreadMethod="pad"><stop id="stop8760" style="stop-color:#ffffff;stop-opacity:1" offset="0"/><stop id="stop8762" style="stop-color:#00385e;stop-opacity:1" offset="1"/></linearGradient><linearGradient x1="101.94" y1="108.2" x2="257.20001" y2="112.16" id="linearGradient8778" gradientUnits="userSpaceOnUse" gradientTransform="matrix(0.545088,0,0,-0.545088,321.72327,91.632481)" spreadMethod="pad"><stop id="stop8780" style="stop-color:#ffffff;stop-opacity:1" offset="0"/><stop id="stop8782" style="stop-color:#00385e;stop-opacity:1" offset="1"/></linearGradient><linearGradient x1="102.17" y1="63.215" x2="364.14999" y2="65.586998" id="linearGradient8790" gradientUnits="userSpaceOnUse" gradientTransform="matrix(0.545088,0,0,-0.545088,321.72327,91.632481)" spreadMethod="pad"><stop id="stop8792" style="stop-color:#ffffff;stop-opacity:1" offset="0"/><stop id="stop8794" style="stop-color:#00385e;stop-opacity:1" offset="1"/></linearGradient><linearGradient x1="204.10001" y1="121.29" x2="349.37" y2="120.5" id="linearGradient8802" gradientUnits="userSpaceOnUse" gradientTransform="matrix(0.545088,0,0,-0.545088,321.72327,91.632481)" spreadMethod="pad"><stop id="stop8804" style="stop-color:#ffffff;stop-opacity:1" offset="0"/><stop id="stop8806" style="stop-color:#00385e;stop-opacity:1" offset="1"/></linearGradient><linearGradient id="linearGradient4792" x1="131.17" x2="131.77" y1="-42.207001" y2="381.04999" gradientTransform="matrix(1.0667,0,0,1.0667,40.674,863.82)" gradientUnits="userSpaceOnUse"><stop stop-color="#fff" offset="0" id="stop47"/><stop stop-color="#00385e" offset="1" id="stop49"/></linearGradient><pattern id="pattern4248" patternTransform="matrix(.070848 -.067645 12.15 12.725 95.224 980.62)" xlink:href="#pattern4187"/><pattern id="pattern4187" patternTransform="matrix(.06642 -.063417 11.391 11.93 168.82 864.84)" xlink:href="#pattern25747"/><pattern id="pattern25747" patternTransform="matrix(.06642 -.063417 11.391 11.93 190.04 1080)" xlink:href="#pattern24950"/><pattern id="pattern24950" patternTransform="matrix(.06642 -.063417 11.391 11.93 132.96 1051.2)" xlink:href="#pattern35902-2"/><pattern id="pattern35902-2" patternTransform="matrix(.06642 -.063417 11.391 11.93 -85.065 1053.7)" xlink:href="#pattern28286-6"/><pattern id="pattern28286-6" patternTransform="matrix(.06642 -.063417 11.391 11.93 -85.317 1053.7)" xlink:href="#pattern6666-3"/><pattern id="pattern6666-3" patternTransform="matrix(.047422 -.045278 8.1327 8.5178 -49.563 1006.3)" xlink:href="#pattern9529-15"/><pattern id="pattern9529-15" patternTransform="matrix(.047422 -.045278 8.1327 8.5178 -49.563 1006.3)" xlink:href="#pattern9496-9"/><pattern id="pattern9496-9" patternTransform="matrix(.047355 -.045348 8.1452 8.5058 396.14 -51.594)" xlink:href="#pattern9487-7"/><pattern id="pattern9487-7" patternTransform="matrix(.056516 -.039102 6.9938 10.109 354.71 164.31)" xlink:href="#Strips1_64-0"/><pattern id="Strips1_64-0" width="65" height="1" patternTransform="translate(0) scale(10)" patternUnits="userSpaceOnUse"><rect y="-.5" width="1" height="2" id="rect35"/></pattern>


</defs><rect style="opacity:1;fill:#d4aa00;fill-opacity:1;stroke:none;stroke-width:1.77295;stroke-linecap:square;stroke-linejoin:miter;stroke-dasharray:none" id="rect8002" width="4.1867204" height="2.3811285" x="338.84778" y="29.283741"/><rect style="fill:#d4aa00;fill-opacity:1;stroke:none;stroke-width:1.77295;stroke-linecap:square;stroke-linejoin:miter;stroke-dasharray:none" id="rect8002-1" width="4.1867204" height="2.3811285" x="104.00176" y="-275.65253" transform="rotate(90)"/><rect style="fill:#d4aa00;fill-opacity:1;stroke:none;stroke-width:1.77295;stroke-linecap:square;stroke-linejoin:miter;stroke-dasharray:none" id="rect8002-9" width="4.1867204" height="2.3811285" x="107.04443" y="-506.38397" transform="rotate(90)"/><rect style="fill:#d4aa00;fill-opacity:1;stroke:none;stroke-width:1.77295;stroke-linecap:square;stroke-linejoin:miter;stroke-dasharray:none" id="rect8002-6" width="4.1867204" height="2.3811285" x="566.94794" y="39.94841"/><g transform="scale(1.25)" id="g8654"><path d="M 459.03871,46.861137 420.734,46.941 v 42.724687 c 21.043,-2.648942 37.72971,-20.03955 38.30471,-42.80455 z" id="path8656" style="fill:#99b2cc;fill-opacity:1;fill-rule:evenodd;stroke:#800080;stroke-width:1.20945;stroke-linecap:round;stroke-linejoin:miter;stroke-miterlimit:10;stroke-dasharray:none;stroke-opacity:1" sodipodi:nodetypes="cccc"/></g><g transform="scale(1.25)" id="g8658"><path d="M 104.76675,46.605 66.559,46.699 66.532725,88.898196 C 87.387804,86.433176 104.69647,68.58303 104.76675,46.605 Z" id="path8660" style="fill:#99b2cc;fill-opacity:1;fill-rule:evenodd;stroke:#800080;stroke-width:1.20945;stroke-linecap:round;stroke-linejoin:miter;stroke-miterlimit:10;stroke-dasharray:none;stroke-opacity:1" sodipodi:nodetypes="cccc"/></g><g transform="scale(1.25)" id="g8662"><path d="M 43.895,85.926 V 43.133 C 44.02,33.969 49.176,25.082 58.453,24.938 h 41.348" id="path8664" style="fill:none;stroke:#d4aa00;stroke-width:3.02362;stroke-linecap:butt;stroke-linejoin:miter;stroke-miterlimit:8;stroke-dasharray:none;stroke-opacity:1"/></g><g transform="scale(1.25)" id="g8666"><path d="m 104.965,45.473 c 0,24.218 -19.738,43.847 -44.09,43.847 -24.344,0 -44.082,-19.629 -44.082,-43.847 0,-24.219 19.738,-43.848 44.082,-43.848 24.352,0 44.09,19.629 44.09,43.848 z" id="path8668" style="fill:none;stroke:#4d4d4d;stroke-width:1.20945;stroke-linecap:butt;stroke-linejoin:miter;stroke-miterlimit:8;stroke-dasharray:none;stroke-opacity:1"/></g><g transform="scale(1.25)" id="g8670"><path d="M 455.50163,32.362894 396.43,32.27 c -3.985,-0.0063 -7.211,-3.227 -7.211,-7.211 0,-3.981 3.226,-7.211 7.211,-7.211 3.984,0 7.21476,3.230002 7.211,7.211 l -0.0589,62.356829" id="path8672" style="fill:none;stroke:#d4aa00;stroke-width:3.02362;stroke-linecap:round;stroke-linejoin:round;stroke-miterlimit:4;stroke-dasharray:none;stroke-opacity:1" sodipodi:nodetypes="cssssc"/></g><g transform="scale(1.25)" id="g8674"><path d="m 459.047,46.188 c 0,24.21 -19.625,43.832 -43.832,43.832 -24.207,0 -43.828,-19.625 -43.828,-43.832 0,-24.208 19.625,-43.829 43.828,-43.829 24.211,0 43.832,19.621 43.832,43.829 z" id="path8676" style="fill:none;stroke:#4d4d4d;stroke-width:1.20945;stroke-linecap:round;stroke-linejoin:round;stroke-miterlimit:10;stroke-dasharray:none;stroke-opacity:1"/></g><g id="g8678" transform="matrix(1.25,0,0,-1.25,0,248.0315)"><g transform="matrix(1,0,0,-0.994624,0,198.4252)" id="g8680"><path d="M 141.262,148.293 84.027,162.899 27.785,133.888 85.211,119.082 Z" id="path8688" style="fill:url(#linearGradient8682);fill-opacity:1;fill-rule:evenodd;stroke:#800080;stroke-width:0.289686;stroke-linecap:butt;stroke-linejoin:miter;stroke-miterlimit:4;stroke-dasharray:none;stroke-opacity:1"/></g></g><g id="g8690" transform="matrix(1.25,0,0,-1.25,0,248.0315)"><g transform="matrix(1,0,0,-0.994624,0,198.4252)" id="g8692"><path d="M 84.426,197.637 27.785,168.822 v -34.934 l 56.242,29.011 z" id="path8700" style="fill:url(#linearGradient8694);fill-opacity:1;fill-rule:evenodd;stroke:#4d4d4d;stroke-width:0.542692;stroke-linecap:round;stroke-linejoin:round;stroke-miterlimit:4;stroke-dasharray:none;stroke-opacity:1"/></g></g><g id="g8702" transform="matrix(1.25,0,0,-1.25,0,248.0315)"><g transform="matrix(1,0,0,-0.994624,0,198.4252)" id="g8704"><path d="m 84.027,197.637 v -34.738 l 57.235,-14.606 v 34.542 z" id="path8712" style="fill:url(#linearGradient8706);fill-opacity:1;fill-rule:evenodd;stroke:#4d4d4d;stroke-width:0.542692;stroke-linecap:round;stroke-linejoin:round;stroke-miterlimit:4;stroke-dasharray:none;stroke-opacity:1"/></g></g><g transform="scale(1.25)" id="g8714"><path d="m 84.027,162.023 -56.242,-28.855 57.426,-14.727 56.051,29.055 z" id="path8716" style="fill:none;stroke:#800080;stroke-width:1.51182;stroke-linecap:round;stroke-linejoin:round;stroke-miterlimit:4;stroke-dasharray:none;stroke-opacity:1"/></g><g transform="scale(1.25)" id="g8718"><path d="m 19.816,134.688 c -5.355,-3.473 1.754,-6.051 5.934,-6.86 l 53.871,-14.191 c 4.18,-0.973 12.035,-0.426 15.875,1.48 l 53.527,29.442 c 3.84,1.906 5.903,5.367 1.786,6.582 l -59,15.781 c -4.114,1.211 -10.563,0.527 -14.329,-1.52 z" id="path8720" style="fill:none;stroke:#d4aa00;stroke-width:1.51181;stroke-linecap:butt;stroke-linejoin:miter;stroke-miterlimit:4;stroke-dasharray:none;stroke-opacity:1"/></g><g transform="scale(1.25)" id="g8722"><path d="m 153.453,137.648 v 7.786 c 0.117,2.296 0.492,4.953 -1.93,5.488" id="path8724" style="fill:none;stroke:#d4aa00;stroke-width:1.51181;stroke-linecap:butt;stroke-linejoin:miter;stroke-miterlimit:4;stroke-dasharray:none;stroke-opacity:1"/></g><g transform="scale(1.25)" id="g8726"><path d="m 153.453,115.969 v 21.679" id="path8728" style="fill:none;stroke:#e2001a;stroke-width:1.51181;stroke-linecap:round;stroke-linejoin:round;stroke-miterlimit:4;stroke-dasharray:none;stroke-opacity:1"/></g><g id="g8730" transform="matrix(1.25,0,0,-1.25,0,248.0315)"><g transform="matrix(1,0,0,-1,0,198.4252)" id="g8732"><path d="m 312.219,145.34 -57.129,14.582 -56.141,-28.961 57.324,-14.777 z" id="path8740" style="fill:url(#linearGradient8734);fill-opacity:1;fill-rule:evenodd;stroke:#4d4d4d;stroke-width:0.541226;stroke-linecap:round;stroke-linejoin:round;stroke-miterlimit:4;stroke-dasharray:none;stroke-opacity:1"/></g></g><g id="g8742" transform="matrix(1.25,0,0,-1.25,0,248.0315)"><g transform="matrix(1,0,0,-1,0,198.4252)" id="g8744"><path d="m 255.488,194.594 -56.539,-28.762 v -34.871 l 56.141,28.961 z" id="path8752" style="fill:url(#linearGradient8746);fill-opacity:1;fill-rule:evenodd;stroke:#4d4d4d;stroke-width:0.541226;stroke-linecap:round;stroke-linejoin:round;stroke-miterlimit:4;stroke-dasharray:none;stroke-opacity:1"/></g></g><g id="g8754" transform="matrix(1.25,0,0,-1.25,0,248.0315)"><g transform="matrix(1,0,0,-1,0,198.4252)" id="g8756"><path d="m 255.09,194.594 v -34.672 l 57.129,-14.582 v 34.48 z" id="path8764" style="fill:url(#linearGradient8758);fill-opacity:1;fill-rule:evenodd;stroke:#4d4d4d;stroke-width:0.541226;stroke-linecap:round;stroke-linejoin:round;stroke-miterlimit:4;stroke-dasharray:none;stroke-opacity:1"/></g></g><g transform="scale(1.25)" id="g8766"><path d="m 326.5,147.809 -69.848,17.546 0.051,0.051 -68.574,-35.754 68.312,-18.121 z" id="path8768" style="fill:none;stroke:#d4aa00;stroke-width:1.51181;stroke-linecap:round;stroke-linejoin:round;stroke-miterlimit:4;stroke-dasharray:none;stroke-opacity:1"/></g><g transform="scale(1.25)" id="g8770"><path d="m 256.273,116.184 55.946,29.156 -57.129,14.582 -56.141,-28.961 z" id="path8772" style="fill:none;stroke:#800080;stroke-width:1.51181;stroke-linecap:round;stroke-linejoin:round;stroke-miterlimit:4;stroke-dasharray:none;stroke-opacity:1"/></g><g id="g8774" transform="matrix(1.25,0,0,-1.25,0,248.0315)"><g transform="matrix(1,0,0,-1,0,198.4252)" id="g8776"><path d="m 377.555,134.215 55.687,28.726 0.395,34.391 -56.082,-28.531 z" id="path8784" style="fill:url(#linearGradient8778);fill-opacity:1;fill-rule:evenodd;stroke:#4d4d4d;stroke-width:0.541234;stroke-linecap:round;stroke-linejoin:round;stroke-miterlimit:4;stroke-dasharray:none;stroke-opacity:1"/></g></g><g id="g8786" transform="matrix(1.25,0,0,-1.25,0,248.0315)"><g transform="matrix(1,0,0,-1,0,198.4252)" id="g8788"><path d="m 377.555,134.215 56.859,-14.652 55.492,28.917 -56.664,14.461 z" id="path8796" style="fill:url(#linearGradient8790);fill-opacity:1;fill-rule:evenodd;stroke:#4d4d4d;stroke-width:0.28344;stroke-linecap:butt;stroke-linejoin:miter;stroke-miterlimit:4;stroke-dasharray:none;stroke-opacity:1"/></g></g><g id="g8798" transform="matrix(1.25,0,0,-1.25,0,248.0315)"><g transform="matrix(1,0,0,-1,0,198.4252)" id="g8800"><path d="m 489.906,148.48 v 34.196 l -56.664,14.656 v -34.391 z" id="path8808" style="fill:url(#linearGradient8802);fill-opacity:1;fill-rule:evenodd;stroke:#4d4d4d;stroke-width:0.541234;stroke-linecap:round;stroke-linejoin:round;stroke-miterlimit:4;stroke-dasharray:none;stroke-opacity:1"/></g></g><g transform="scale(1.25)" id="g8810"><path d="m 372.602,135.57 57.984,30.227 c 3.812,1.937 7.934,6.203 1.367,5.879 m 0,0 c -2.078,-0.071 -4.476,-0.828 -3.308,-3.125 0.851,-1.68 4.261,-1.645 7.046,-2.473 l 64.301,-17.023 -63.719,-32.805 c -1.789,-0.707 -3.636,-1.406 -2.703,-3.523 0.563,-1.282 2.133,-1.762 3.793,-1.633 3,0.226 4.895,1.48 3.266,2.691 -1.332,0.992 -5.274,1.801 -6.832,1.988 l -58.68943,15.6879 c -6.79608,1.77955 -12.45161,7.35458 -12.14655,1.87908 0.30506,-5.4755 8.00064,1.53373 9.55546,2.17847" id="path8812" style="fill:none;stroke:#d4aa00;stroke-width:1.51181;stroke-linecap:round;stroke-linejoin:round;stroke-miterlimit:4;stroke-dasharray:none;stroke-opacity:1" sodipodi:nodetypes="ccccccccccccczc"/></g><g transform="scale(1.25)" id="g8814"><path d="m 434.414,119.563 55.492,28.917 -56.664,14.461 -55.687,-28.726 z" id="path8816" style="fill:none;stroke:#800080;stroke-width:1.51182;stroke-linecap:round;stroke-linejoin:round;stroke-miterlimit:4;stroke-dasharray:none;stroke-opacity:1"/></g><g transform="scale(1.25)" id="g8820"/><g transform="scale(1.25)" id="g8824"><path d="M 279.86876,47.028431 241.703,47.129 v 42.15521 c 21.26595,-2.770525 37.55061,-20.340408 38.16576,-42.255779 z" id="path8826" style="fill:#99b2cc;fill-opacity:1;fill-rule:evenodd;stroke:#800080;stroke-width:1.20945;stroke-linecap:round;stroke-linejoin:miter;stroke-miterlimit:10;stroke-dasharray:none;stroke-opacity:1" sodipodi:nodetypes="cccc"/></g><g transform="scale(1.25)" id="g8828"><path d="M 272.68731,23.821697 219.074,23.957 218.9997,84.599789" id="path8830" style="fill:none;stroke:#d4aa00;stroke-width:3.02362;stroke-linecap:round;stroke-linejoin:round;stroke-miterlimit:10;stroke-dasharray:none;stroke-opacity:1" sodipodi:nodetypes="ccc"/></g><g transform="scale(1.25)" id="g8832"><path d="m 279.895,45.824 c 0,24.203 -19.618,43.824 -43.825,43.824 -24.199,0 -43.82,-19.621 -43.82,-43.824 C 192.25,21.617 211.871,2 236.07,2 c 24.207,0 43.825,19.617 43.825,43.824 z" id="path8834" style="fill:none;stroke:#4d4d4d;stroke-width:1.20945;stroke-linecap:round;stroke-linejoin:round;stroke-miterlimit:10;stroke-dasharray:none;stroke-opacity:1"/></g><path d="m 172.87625,63.799 c 0,7.44125 -5.90875,13.47125 -13.19875,13.47125 -7.29,0 -13.1975,-6.03 -13.1975,-13.47125 0,-7.43625 5.9075,-13.4675 13.1975,-13.4675 7.29,0 13.19875,6.03125 13.19875,13.4675 z" id="path8836" style="fill:#1f638a;fill-opacity:1;fill-rule:nonzero;stroke:none;stroke-width:1.25"/><text id="text8838" x="153.83688" y="71.471878" style="font-size:15px;stroke-width:1.25"><tspan x="153.83688" y="71.471878" id="tspan8840" style="font-variant:normal;font-weight:normal;font-size:21.333px;font-family:Arial;-inkscape-font-specification:ArialMT;writing-mode:lr-tb;fill:#ffffff;fill-opacity:1;fill-rule:nonzero;stroke:none;stroke-width:1.25">1</tspan></text><g transform="scale(1.25)" id="g8842"><path d="m 129.43,57.176 h -1.5 v -9.559 c -0.367,0.348 -0.84,0.692 -1.422,1.035 -0.59,0.348 -1.117,0.606 -1.578,0.774 v -1.449 c 0.836,-0.395 1.57,-0.872 2.199,-1.434 0.625,-0.559 1.07,-1.102 1.332,-1.633 h 0.969 z" id="path8844" style="fill:none;stroke:#ffffff;stroke-width:0.85336;stroke-linecap:butt;stroke-linejoin:miter;stroke-miterlimit:4;stroke-dasharray:none;stroke-opacity:1"/></g><path d="m 391.675,63.76525 c 0,7.43625 -5.90875,13.46625 -13.19875,13.46625 -7.29,0 -13.1975,-6.03 -13.1975,-13.46625 0,-7.4425 5.9075,-13.4725 13.1975,-13.4725 7.29,0 13.19875,6.03 13.19875,13.4725 z" id="path8846" style="fill:#1f638a;fill-opacity:1;fill-rule:nonzero;stroke:none;stroke-width:1.25"/><text id="text8848" x="372.63397" y="71.434685" style="font-size:15px;stroke-width:1.25"><tspan x="372.63397" y="71.434685" id="tspan8850" style="font-variant:normal;font-weight:normal;font-size:21.333px;font-family:Arial;-inkscape-font-specification:ArialMT;writing-mode:lr-tb;fill:#ffffff;fill-opacity:1;fill-rule:nonzero;stroke:none;stroke-width:1.25">2</tspan></text><g transform="scale(1.25)" id="g8852"><path d="m 306.695,55.707 v 1.441 h -8.074 c -0.012,-0.359 0.047,-0.707 0.176,-1.043 0.203,-0.546 0.531,-1.085 0.988,-1.621 0.449,-0.531 1.102,-1.148 1.961,-1.851 1.324,-1.086 2.223,-1.949 2.692,-2.586 0.464,-0.637 0.699,-1.238 0.703,-1.805 -0.004,-0.594 -0.219,-1.094 -0.641,-1.504 -0.43,-0.406 -0.98,-0.609 -1.66,-0.613 -0.727,0.004 -1.305,0.219 -1.735,0.648 -0.433,0.434 -0.656,1.036 -0.66,1.801 l -1.539,-0.16 c 0.102,-1.144 0.496,-2.019 1.188,-2.625 0.687,-0.601 1.613,-0.902 2.777,-0.906 1.168,0.004 2.098,0.328 2.781,0.976 0.684,0.653 1.024,1.457 1.028,2.414 -0.004,0.493 -0.102,0.973 -0.301,1.442 -0.199,0.473 -0.531,0.969 -0.996,1.492 -0.465,0.523 -1.238,1.242 -2.313,2.148 -0.902,0.758 -1.476,1.27 -1.73,1.54 -0.258,0.269 -0.469,0.539 -0.633,0.812 z" id="path8854" style="fill:none;stroke:#ffffff;stroke-width:0.85336;stroke-linecap:butt;stroke-linejoin:miter;stroke-miterlimit:4;stroke-dasharray:none;stroke-opacity:1"/></g><path d="m 613.13,64.39025 c 0,7.44125 -5.90875,13.47125 -13.19875,13.47125 -7.29,0 -13.1975,-6.03 -13.1975,-13.47125 0,-7.4375 5.9075,-13.4675 13.1975,-13.4675 7.29,0 13.19875,6.03 13.19875,13.4675 z" id="path8856" style="fill:#1f638a;fill-opacity:1;fill-rule:nonzero;stroke:none;stroke-width:1.25"/><text id="text8858" x="594.0896" y="71.932823" style="font-size:15px;stroke-width:1.25"><tspan x="594.0896" y="71.932823" id="tspan8860" style="font-variant:normal;font-weight:normal;font-size:21.333px;font-family:Arial;-inkscape-font-specification:ArialMT;writing-mode:lr-tb;fill:#ffffff;fill-opacity:1;fill-rule:nonzero;stroke:none;stroke-width:1.25">3</tspan></text><g transform="scale(1.25)" id="g8862"><path d="m 475.988,54.32 1.5,-0.199 c 0.172,0.856 0.465,1.469 0.879,1.84 0.414,0.379 0.918,0.566 1.516,0.562 0.703,0.004 1.297,-0.242 1.785,-0.734 0.484,-0.488 0.73,-1.094 0.73,-1.816 0,-0.688 -0.226,-1.254 -0.675,-1.703 -0.453,-0.446 -1.024,-0.668 -1.715,-0.672 -0.285,0.004 -0.641,0.058 -1.059,0.164 l 0.164,-1.317 c 0.098,0.016 0.18,0.024 0.242,0.02 0.637,0.004 1.211,-0.164 1.727,-0.5 0.508,-0.332 0.766,-0.844 0.766,-1.543 0,-0.547 -0.188,-1.004 -0.559,-1.363 -0.375,-0.36 -0.855,-0.539 -1.441,-0.543 -0.586,0.004 -1.071,0.187 -1.457,0.55 -0.391,0.368 -0.641,0.918 -0.75,1.649 l -1.5,-0.27 c 0.179,-1 0.593,-1.781 1.246,-2.336 0.648,-0.55 1.457,-0.824 2.429,-0.828 0.664,0.004 1.278,0.145 1.84,0.43 0.559,0.289 0.989,0.68 1.289,1.172 0.293,0.492 0.442,1.019 0.446,1.574 -0.004,0.531 -0.145,1.012 -0.426,1.441 -0.285,0.438 -0.703,0.782 -1.258,1.032 0.719,0.172 1.277,0.515 1.68,1.039 0.398,0.523 0.597,1.179 0.601,1.969 -0.004,1.07 -0.39,1.976 -1.168,2.714 -0.777,0.739 -1.761,1.106 -2.945,1.11 -1.078,-0.004 -1.969,-0.321 -2.672,-0.957 -0.711,-0.637 -1.113,-1.465 -1.215,-2.485 z" id="path8864" style="fill:none;stroke:#ffffff;stroke-width:0.85336;stroke-linecap:butt;stroke-linejoin:miter;stroke-miterlimit:4;stroke-dasharray:none;stroke-opacity:1"/></g><g transform="scale(1.25)" id="g8878"><path d="m 327.988,134.566 v 7.786 c 0.121,2.293 0.492,4.949 -1.929,5.484" id="path8880" style="fill:none;stroke:#d4aa00;stroke-width:1.51181;stroke-linecap:butt;stroke-linejoin:miter;stroke-miterlimit:4;stroke-dasharray:none;stroke-opacity:1"/></g><g transform="scale(1.25)" id="g8882"><path d="m 327.988,112.887 v 21.679" id="path8884" style="fill:#000000;fill-opacity:1;fill-rule:nonzero;stroke:#e2001a;stroke-width:1.51181;stroke-linecap:round;stroke-linejoin:round;stroke-miterlimit:4;stroke-dasharray:none;stroke-opacity:1"/></g><g transform="scale(1.25)" id="g8886"><path d="m 501.563,135.762 v 7.785 c 0.117,2.293 0.492,4.949 -1.93,5.484" id="path8888" style="fill:none;stroke:#d4aa00;stroke-width:1.51181;stroke-linecap:butt;stroke-linejoin:miter;stroke-miterlimit:4;stroke-dasharray:none;stroke-opacity:1"/></g><g transform="scale(1.25)" id="g8890"><path d="m 501.563,114.082 v 21.68" id="path8892" style="fill:#000000;fill-opacity:1;fill-rule:nonzero;stroke:#e2001a;stroke-width:1.51181;stroke-linecap:round;stroke-linejoin:round;stroke-miterlimit:4;stroke-dasharray:none;stroke-opacity:1"/></g><path d="m 40.5425,163.56 c 0,8.2075 -6.69,14.8625 -14.9425,14.8625 -8.25125,0 -14.94125,-6.655 -14.94125,-14.8625 0,-8.20875 6.69,-14.85875 14.94125,-14.85875 8.2525,0 14.9425,6.65 14.9425,14.85875 z" id="path8822" style="fill:none;stroke:#4d4d4d;stroke-width:0.755905;stroke-linecap:round;stroke-linejoin:round;stroke-miterlimit:10;stroke-dasharray:none;stroke-opacity:1"/><path d="M 30.651197,149.43401 41.699931,99.964727 c 4.27317,2.978033 8.914705,6.079783 16.027632,8.264423 z" fill="#4d4d4d" stroke="#4d4d4d" stroke-width="1.4394" id="path110" style="opacity:0.496564;stroke:none" sodipodi:nodetypes="cccc" inkscape:transform-center-x="-12.726542" inkscape:transform-center-y="-23.966773"/><path d="m 246.06339,147.15634 11.04873,-49.469276 c 4.27317,2.978026 7.79804,6.999386 14.91096,9.184026 z" fill="#4d4d4d" stroke="#4d4d4d" stroke-width="1.4394" id="path110-8" style="opacity:0.496564;stroke:none" sodipodi:nodetypes="cccc" inkscape:transform-center-x="-12.726542" inkscape:transform-center-y="-23.966773"/><path d="m 469.59098,148.86419 11.5132,-51.048485 c 4.27317,2.978025 8.16962,7.881885 15.28254,10.066525 z" fill="#4d4d4d" stroke="#4d4d4d" stroke-width="1.4394" id="path110-8-1" style="opacity:0.496564;stroke:none" sodipodi:nodetypes="cccc" inkscape:transform-center-x="-12.726542" inkscape:transform-center-y="-23.966773"/><path d="m 255.20058,161.29238 c 0,8.2075 -6.69,14.8625 -14.9425,14.8625 -8.25125,0 -14.94125,-6.655 -14.94125,-14.8625 0,-8.20875 6.69,-14.85875 14.94125,-14.85875 8.2525,0 14.9425,6.65 14.9425,14.85875 z" id="path8822-4" style="fill:none;stroke:#4d4d4d;stroke-width:0.755905;stroke-linecap:round;stroke-linejoin:round;stroke-miterlimit:10;stroke-dasharray:none;stroke-opacity:1"/><path d="m 477.34939,162.22132 c 0,8.2075 -6.69,14.8625 -14.9425,14.8625 -8.25125,0 -14.94125,-6.655 -14.94125,-14.8625 0,-8.20875 6.69,-14.85875 14.94125,-14.85875 8.2525,0 14.9425,6.65 14.9425,14.85875 z" id="path8822-4-8" style="fill:none;stroke:#4d4d4d;stroke-width:0.755905;stroke-linecap:round;stroke-linejoin:round;stroke-miterlimit:10;stroke-dasharray:none;stroke-opacity:1"/></svg>
