<?xml version="1.0" encoding="UTF-8"?>
<svg width="48" height="48" version="1.1" viewBox="0 0 12.7 12.7" xml:space="preserve" xmlns="http://www.w3.org/2000/svg" xmlns:xlink="http://www.w3.org/1999/xlink"><defs><linearGradient id="linearGradient5725-1" x1="916.03" x2="1203" y1="105.67" y2="106.12" gradientTransform="matrix(.97921 0 0 .98144 22.884 5.1097)" gradientUnits="userSpaceOnUse"><stop stop-color="#ffffff" offset="0"/><stop stop-color="#444444" offset=".024702"/><stop stop-color="#979797" offset=".2172"/><stop stop-color="#d1d1d1" offset=".31073"/><stop stop-color="#e6e6e6" offset=".39165"/><stop stop-color="#f4f4f4" offset=".45311"/><stop stop-color="#ffffff" offset=".49245"/><stop stop-color="#f4f4f4" offset=".53204"/><stop stop-color="#e6e6e6" offset=".59705"/><stop stop-color="#d1d1d1" offset=".67757"/><stop stop-color="#979797" offset=".75803"/><stop stop-color="#444444" offset=".92484"/><stop stop-color="#000000" offset="1"/></linearGradient><linearGradient id="linearGradient66" x1="18.724" x2="19.372" y1="-12.657" y2="-12.687" gradientTransform="matrix(1.8779 0 0 .94204 -13.072 -1.5062)" gradientUnits="userSpaceOnUse"><stop stop-color="#feffff" offset="0"/><stop stop-color="#000000" stop-opacity="0" offset="1"/></linearGradient></defs><g><path d="m-29.755 23.317" fill="none" stroke="#000000" stroke-width=".29377px"/><g transform="matrix(1.114 0 0 1.114 -19.712 28.99)"><g transform="translate(-.79197 -10.403)"><rect x="23.581" y="-8.6065" width=".68404" height=".63727" fill="#ffff33" fill-rule="evenodd" stroke="#ffff00" stroke-linecap="square" stroke-width=".565"/><g stroke="#000000"><g><g transform="matrix(.015733 0 0 .01502 5.5566 -11.509)" fill="#ffffff" stroke-width="23.468"><path d="m958.98 210.27 2e-5 -233.21 207.5 0.33579v232.88z" color="#000000" fill="url(#linearGradient5725-1)" stroke="#000000" stroke-linecap="square" stroke-width="30.338"/></g><g fill="none" stroke-linecap="round" stroke-width=".46638"><path d="m23.901-9.9524-1.4906 1.5952" stroke-linejoin="round"/><path d="m22.054-11.822-1.4022 1.601"/><path d="m23.612-11.634-2.6856 2.9457"/></g></g><rect x="21.219" y="-13.353" width="2.1159" height="1.4266" rx="0" ry="0" fill="url(#linearGradient66)" fill-rule="evenodd" stroke-linecap="square" stroke-opacity=".96078" stroke-width=".39901"/></g><g transform="translate(15.081 -.74414)" fill="none" stroke="#ff0000" stroke-linecap="round" stroke-linejoin="round" stroke-width=".565"><path d="m9.8111-8.1495 0.011522 1.5514h-1.3064"/><path d="m10.297-8.4175-0.01169-0.97516 0.57878-0.24805"/><path d="m10.451-8.3178c-1.1181 0.088483 0.59531 0 0.89297 0l0.34727-0.51263"/><path d="m10.246-7.5065 1.0984-0.01754"/><path d="m10.082-6.744 1.2292 0.046772 0.44648 0.64492"/><path d="m9.7796-6.4631 1.1014 0.82416"/><path d="m8.8545-6.1514v0.67799"/><path d="m8.4501-6.1369h-0.91618l-0.38034 0.71107"/><path d="m9.8222-7.887 0.64896 0.029236"/><path d="m9.8572-7.0626 0.73666 0.01754"/><path d="m9.4403-6.3302v0.45018"/></g></g><g transform="matrix(.30626 0 0 .30626 15.513 -14.069)"><circle cx="30.169" cy="-25.526" r="8.0097" fill="#339933" fill-rule="evenodd" style="paint-order:markers stroke fill"/><path transform="matrix(5.007 0 0 5.007 -119.54 -532.55)" d="m29.052 101.36 0.63061 0.57208 1.0665-1.3381" fill="none" stroke="#faf7f9" stroke-linecap="round" stroke-linejoin="round" stroke-width=".5"/></g></g><rect x=".58861" y=".64839" width="11.554" height="11.421" fill="none" stroke="#000000" stroke-linecap="square" stroke-width=".001"/></g></svg>
