<?xml version="1.0" encoding="UTF-8"?>
<svg width="18cm" height="8cm" version="1.1" xmlns="http://www.w3.org/2000/svg" xmlns:cc="http://creativecommons.org/ns#" xmlns:dc="http://purl.org/dc/elements/1.1/" xmlns:rdf="http://www.w3.org/1999/02/22-rdf-syntax-ns#" xmlns:xlink="http://www.w3.org/1999/xlink">
 <title>Abbildung für OPEN MIND Softwaredokumentation</title>
 <defs>
  <pattern id="pattern34456" patternTransform="matrix(-.08676 .066349 -1.0208 -.9286 151.84 1104)" xlink:href="#pattern34107"/>
  <linearGradient id="linearGradient17780-7">
   <stop stop-color="#fff" offset="0"/>
   <stop stop-color="#00385e" offset="1"/>
  </linearGradient>
  <pattern id="pattern34107" patternTransform="matrix(-.081337 .062202 -.95704 -.87056 146.28 987.81)" xlink:href="#pattern33365"/>
  <pattern id="pattern33365" patternTransform="matrix(-.081337 .062202 -.95704 -.87056 152.55 1001.5)" xlink:href="#pattern33197"/>
  <pattern id="pattern33197" patternTransform="matrix(-.067839 .062202 -.79822 -.87056 104 983.87)" xlink:href="#pattern33144"/>
  <pattern id="pattern33144" patternTransform="matrix(-.067839 .062202 -.79822 -.87056 102.74 910.44)" xlink:href="#pattern31800"/>
  <pattern id="pattern31800" patternTransform="matrix(-.067839 .062202 -.79822 -.87056 95.914 888.16)" xlink:href="#pattern31776"/>
  <pattern id="pattern31776" patternTransform="matrix(-.12143 .074248 -.57465 -.53719 90.2 880.3)" xlink:href="#pattern24556"/>
  <pattern id="pattern24556" patternTransform="matrix(.091467 -.084652 -1.5934 -1.7217 -311.44 741.67)" xlink:href="#pattern11719-5"/>
  <pattern id="pattern11719-5" patternTransform="matrix(.096089 -.08893 -1.6739 -1.8087 -782.55 -147.16)" xlink:href="#pattern32529-2"/>
  <pattern id="pattern32529-2" patternTransform="matrix(.096089 -.08893 -1.6739 -1.8087 0 0)" xlink:href="#Strips1_64-7"/>
  <pattern id="Strips1_64-7" width="65" height="1" patternTransform="translate(0) scale(10)" patternUnits="userSpaceOnUse">
   <rect y="-.5" width="1" height="2"/>
  </pattern>
  <linearGradient id="linearGradient34484" x1="58.399" x2="314.8" y1="94.649" y2="94.649" gradientTransform="matrix(2.2131 0 0 2.2131 -134.41 846.68)" gradientUnits="userSpaceOnUse" xlink:href="#linearGradient17780-7"/>
  <pattern id="pattern34509" patternTransform="matrix(-.08676 .066349 -1.0208 -.9286 504.05 1162)" xlink:href="#pattern34456-8"/>
  <pattern id="pattern34456-8" patternTransform="matrix(-.081337 .062202 -.95704 -.87056 142.35 1035)" xlink:href="#pattern34107-4"/>
  <pattern id="pattern34107-4" patternTransform="matrix(-.081337 .062202 -.95704 -.87056 146.28 987.81)" xlink:href="#pattern33365-4"/>
  <pattern id="pattern33365-4" patternTransform="matrix(-.081337 .062202 -.95704 -.87056 152.55 1001.5)" xlink:href="#pattern33197-3"/>
  <pattern id="pattern33197-3" patternTransform="matrix(-.067839 .062202 -.79822 -.87056 104 983.87)" xlink:href="#pattern33144-9"/>
  <pattern id="pattern33144-9" patternTransform="matrix(-.067839 .062202 -.79822 -.87056 102.74 910.44)" xlink:href="#pattern31800-6"/>
  <pattern id="pattern31800-6" patternTransform="matrix(-.067839 .062202 -.79822 -.87056 95.914 888.16)" xlink:href="#pattern31776-3"/>
  <pattern id="pattern31776-3" patternTransform="matrix(-.12143 .074248 -.57465 -.53719 90.2 880.3)" xlink:href="#pattern24556-6"/>
  <pattern id="pattern24556-6" patternTransform="matrix(.091467 -.084652 -1.5934 -1.7217 -311.44 741.67)" xlink:href="#pattern11719-5-8"/>
  <pattern id="pattern11719-5-8" patternTransform="matrix(.096089 -.08893 -1.6739 -1.8087 -782.55 -147.16)" xlink:href="#pattern32529-2-4"/>
  <pattern id="pattern32529-2-4" patternTransform="matrix(.096089 -.08893 -1.6739 -1.8087 0 0)" xlink:href="#Strips1_64-7-1"/>
  <pattern id="Strips1_64-7-1" width="65" height="1" patternTransform="translate(0) scale(10)" patternUnits="userSpaceOnUse">
   <rect y="-.5" width="1" height="2"/>
  </pattern>
  <linearGradient id="linearGradient34561" x1="70.029" x2="294.25" y1="87.227" y2="87.915" gradientTransform="matrix(2.0975 0 0 2.2128 197.07 805.81)" gradientUnits="userSpaceOnUse" xlink:href="#linearGradient17780-7"/>
  <linearGradient id="linearGradient34627" x1="58.399" x2="314.8" y1="94.649" y2="94.649" gradientUnits="userSpaceOnUse" xlink:href="#linearGradient17780-7"/>
 </defs>
 <metadata>
  <rdf:RDF>
   <cc:Work rdf:about="">
    <dc:format>image/svg+xml</dc:format>
    <dc:type rdf:resource="http://purl.org/dc/dcmitype/StillImage"/>
    <dc:title>Abbildung für OPEN MIND Softwaredokumentation</dc:title>
    <dc:creator>
     <cc:Agent>
      <dc:title>OPEN MIND Technologies AG</dc:title>
     </cc:Agent>
    </dc:creator>
    <dc:rights>
     <cc:Agent>
      <dc:title>Alle Rechte vorbehalten.</dc:title>
     </cc:Agent>
    </dc:rights>
    <dc:publisher>
     <cc:Agent>
      <dc:title>Technische Redaktion</dc:title>
     </cc:Agent>
    </dc:publisher>
   </cc:Work>
  </rdf:RDF>
 </metadata>
 <g transform="translate(0 -820.16)">
  <g fill="none" stroke="#4d4d4d" stroke-width=".67654">
   <line x1="84.079" x2="272.72" y1="960.94" y2="960.94" stroke-linecap="round" stroke-linejoin="round"/>
   <line x1="28.514" x2="335.42" y1="987.61" y2="987.61"/>
   <line x1="25.139" x2="335.42" y1="1014.2" y2="1014.2"/>
  </g>
  <path d="m273.22 1044.7v0l-0.0531-83.893h62.683v144.29l-313.67-0.5388-0.53875-143.75h62.099v83.893" fill="url(#linearGradient34484)" fill-rule="evenodd" stroke="#4d4d4d" stroke-linecap="round" stroke-linejoin="round" stroke-width=".67654"/>
  <line x1="82.918" x2="274.38" y1="1044.7" y2="1044.7" fill="url(#linearGradient34627)" stroke="#4d4d4d" stroke-linecap="round" stroke-linejoin="round" stroke-width=".67654"/>
  <g fill="#e2001a" stroke="#000" stroke-linecap="square" stroke-linejoin="round" stroke-miterlimit="10">
   <polyline transform="matrix(2.2131 0 0 2.2653 -134.41 845.84)" points="163.14 67.58 163.14 15.998 159.82 15.998 159.82 67.58" stroke-width=".30216"/>
   <g stroke-width=".3057">
    <polyline transform="matrix(2.2131 0 0 2.2131 -134.41 846.68)" points="121.29 16.097 116.52 20.638 119.62 20.638 119.62 63.884 122.95 63.884 122.95 20.638 125.94 20.638 121.29 16.097"/>
    <polyline transform="matrix(2.2131 0 0 2.2131 -134.41 846.68)" points="147.81 16.097 143.05 20.638 146.15 20.638 146.15 75.924 149.47 75.924 149.47 20.638 152.46 20.638 147.81 16.097"/>
    <polyline transform="matrix(2.2131 0 0 2.2131 -134.41 846.68)" points="174.69 16.097 169.93 20.638 173.03 20.638 173.03 87.903 176.35 87.903 176.35 20.638 179.34 20.638 174.69 16.097"/>
    <polyline transform="matrix(2.2131 0 0 2.2131 -134.41 846.68)" points="136.31 55.139 136.31 16.083 132.98 16.083 132.98 55.139"/>
   </g>
  </g>
  <polyline transform="matrix(2.2131 0 0 2.2131 -134.41 846.68)" points="108.12 63.477 112.88 58.936 109.78 58.936 109.78 42.774 106.46 42.774 106.46 58.936 103.47 58.936 108.12 63.477" fill="#d4aa00" stroke="#000" stroke-linecap="square" stroke-linejoin="round" stroke-miterlimit="10" stroke-width=".3057"/>
  <polyline transform="matrix(2.2131 0 0 2.2131 -134.41 846.68)" points="109.78 42.932 109.78 15.942 106.46 15.942 106.46 42.932" fill="#e2001a" stroke="#000" stroke-linecap="square" stroke-linejoin="round" stroke-miterlimit="10" stroke-width=".3057"/>
  <path d="m21.547 961.22 60.723 0.60359-0.14471 83.037 192.2 0.096-0.67495-82.28 61.233-1.0041-0.88121 141.19-310.65 0.8138z" color="#000000" fill="url(#pattern34456)" opacity=".5"/>
  <path d="m419.9 956.84v87.442l178.15 0.5698s0.18886-66.805 0.18886-88.034h58.631l0.12246 146.95h-283.45l-0.38095-146.92z" fill="url(#linearGradient34561)" fill-rule="evenodd" stroke="#4d4d4d" stroke-linecap="round" stroke-linejoin="round" stroke-width=".67654"/>
  <g fill="none" stroke="#000" stroke-linecap="round" stroke-linejoin="round" stroke-width=".67654">
   <line x1="419.94" x2="598.58" y1="1014.8" y2="1014.8"/>
   <line x1="419.94" x2="598.58" y1="985.03" y2="985.03"/>
   <line x1="420.34" x2="597.64" y1="957.15" y2="957.15"/>
  </g>
  <path d="m453.29 984.73 10.54-10.048h-6.862v-35.62h-7.3532v35.62h-6.6142l10.29 10.048" fill="#d4aa00" stroke="#000" stroke-linecap="square" stroke-miterlimit="10" stroke-width=".55321"/>
  <path d="m374.13 957.44 44.927 0.86507 0.775 86.789 177.6 0.1507 1.48-87.937 56.384 0.61219 1.1622 145.09-282-0.2913z" color="#000000" fill="url(#pattern34509)" opacity=".5"/>
  <g fill="none" stroke="#4d4d4d" stroke-dasharray="4.29732, 4.29732" stroke-linecap="round" stroke-width="1.4324">
   <path d="m21.371 878.69h314.02"/>
   <path d="m22.009 939.88h313.3"/>
   <path d="m372.73 879.01h272.77"/>
   <path d="m373.27 938.27h272.77"/>
  </g>
  <path d="m163.57 1014.1 10.52-11.458h-6.8501l-0.26937-63.001h-7.3381l0.26937 63.001h-6.6006l10.269 11.458" fill="#d4aa00" stroke="#000" stroke-linecap="square" stroke-linejoin="round" stroke-miterlimit="10" stroke-width=".7216"/>
  <path d="m222.96 1044.1 10.504-12.397h-6.9059v-91.933h-7.3303v91.933h-6.5242l10.257 12.397" fill="#d4aa00" stroke="#000" stroke-linecap="square" stroke-linejoin="round" stroke-miterlimit="10" stroke-width=".75008"/>
  <g fill="#e2001a" stroke="#000" stroke-linecap="square" stroke-linejoin="round" stroke-miterlimit="10" stroke-width=".67654">
   <path d="m476.46 937.84-10.541 10.05h6.8627l-0.0238 36.962h7.3563l0.0238-36.962h6.6149l-10.293-10.05"/>
   <path d="m525.32 938.48-10.541 10.05h6.8627l0.11492 66.164h7.3563l-0.11492-66.164h6.6149l-10.293-10.05"/>
   <path d="m575.93 938.38-10.541 10.05h6.8627l-0.0506 96.354h7.3562l0.0505-96.354h6.6149l-10.293-10.05"/>
  </g>
  <path d="m502.21 1014.3 10.542-10.048h-6.862l-0.26938-65.681h-7.3577l0.26937 65.681h-6.612l10.29 10.048" fill="#d4aa00" stroke="#000" stroke-linecap="square" stroke-miterlimit="10" stroke-width=".55321"/>
  <path d="m551.63 1043.9 10.54-10.048h-6.9572v-95.518h-7.3555v95.518h-6.5189l10.292 10.048" fill="#d4aa00" stroke="#13385e" stroke-linecap="square" stroke-miterlimit="10" stroke-width=".55321"/>
  <g transform="translate(95.649 945.74)">
   <ellipse cx="-44.92" cy="-98.798" rx="13.199" ry="13.469" fill="#1f638a" stroke-linecap="round" stroke-linejoin="round" stroke-width="1.0658"/>
   <text x="-50.761276" y="-91.125885" fill="#000000" font-family="'Arial Nova', 'Arial Unicode MS', 'Yu Gothic UI', sans-serif" font-size="12.8px" letter-spacing="0px" stroke-width="1.0667" word-spacing="0px" style="line-height:0%" xml:space="preserve"><tspan x="-50.761276" y="-91.125885" fill="#ffffff" font-family="'Arial Nova', 'Arial Unicode MS', 'Yu Gothic UI', sans-serif" font-size="21.333px" stroke="#ffffff" stroke-width="1.0667" style="line-height:1.25">1</tspan></text>
  </g>
  <g transform="translate(418.7 945.74)">
   <ellipse cx="-13.718" cy="-98.798" rx="13.199" ry="13.469" fill="#1f638a" stroke-linecap="round" stroke-linejoin="round" stroke-width="1.0658"/>
   <text x="-19.559933" y="-91.125885" fill="#000000" font-family="'Arial Nova', 'Arial Unicode MS', 'Yu Gothic UI', sans-serif" font-size="12.8px" letter-spacing="0px" stroke-width="1.0667" word-spacing="0px" style="line-height:0%" xml:space="preserve"><tspan x="-19.559933" y="-91.125885" fill="#ffffff" font-family="'Arial Nova', 'Arial Unicode MS', 'Yu Gothic UI', sans-serif" font-size="21.333px" stroke="#ffffff" stroke-width="1.0667" style="line-height:1.25">2</tspan></text>
  </g>
 </g>
</svg>
