<svg version="1.1" viewBox="0 0 637.8 372.05" xmlns="http://www.w3.org/2000/svg" xmlns:xlink="http://www.w3.org/1999/xlink">
 <defs>
  <linearGradient id="linearGradient6311" x1="-200.23" x2="-201.11" y1="-359.77" y2="-246.47" gradientTransform="matrix(.41413 0 0 .41443 12.299 1030.3)" gradientUnits="userSpaceOnUse">
   <stop stop-color="#333333" offset="0"/>
   <stop stop-color="#353535" offset=".1432"/>
   <stop stop-color="#7C7C7C" offset=".1432"/>
   <stop stop-color="#B4B4B4" offset=".2686"/>
   <stop stop-color="#DDDDDD" offset=".3755"/>
   <stop stop-color="#F6F6F6" offset=".4598"/>
   <stop stop-color="#FFFFFF" offset=".511"/>
   <stop stop-color="#F5F5F5" offset=".5659"/>
   <stop stop-color="#DADADA" offset=".6597"/>
   <stop stop-color="#ADADAD" offset=".7813"/>
   <stop stop-color="#707070" offset=".9242"/>
   <stop stop-color="#4D4D4D" offset="1"/>
  </linearGradient>
  <linearGradient id="linearGradient6314" x1="-200.23" x2="-201.11" y1="-359.77" y2="-246.47" gradientTransform="matrix(.41413 0 0 .41443 268.65 1030.2)" gradientUnits="userSpaceOnUse">
   <stop stop-color="#333333" offset="0"/>
   <stop stop-color="#353535" offset=".1432"/>
   <stop stop-color="#7C7C7C" offset=".1432"/>
   <stop stop-color="#B4B4B4" offset=".2686"/>
   <stop stop-color="#DDDDDD" offset=".3755"/>
   <stop stop-color="#F6F6F6" offset=".4598"/>
   <stop stop-color="#FFFFFF" offset=".511"/>
   <stop stop-color="#F5F5F5" offset=".5659"/>
   <stop stop-color="#DADADA" offset=".6597"/>
   <stop stop-color="#ADADAD" offset=".7813"/>
   <stop stop-color="#707070" offset=".9242"/>
   <stop stop-color="#4D4D4D" offset="1"/>
  </linearGradient>
  <linearGradient id="linearGradient6754" x1="-200.23" x2="-201.11" y1="-359.77" y2="-246.47" gradientTransform="matrix(.41413 0 0 .41443 6.1082 1017.7)" gradientUnits="userSpaceOnUse">
   <stop stop-color="#333333" offset="0"/>
   <stop stop-color="#353535" offset=".1432"/>
   <stop stop-color="#7C7C7C" offset=".1432"/>
   <stop stop-color="#B4B4B4" offset=".2686"/>
   <stop stop-color="#DDDDDD" offset=".3755"/>
   <stop stop-color="#F6F6F6" offset=".4598"/>
   <stop stop-color="#FFFFFF" offset=".511"/>
   <stop stop-color="#F5F5F5" offset=".5659"/>
   <stop stop-color="#DADADA" offset=".6597"/>
   <stop stop-color="#ADADAD" offset=".7813"/>
   <stop stop-color="#707070" offset=".9242"/>
   <stop stop-color="#4D4D4D" offset="1"/>
  </linearGradient>
  <linearGradient id="linearGradient7187" x1="956.11" x2="1078.2" y1="-181.11" y2="-181.11" gradientTransform="matrix(.48436 0 0 .25071 -423.74 901.26)" gradientUnits="userSpaceOnUse">
   <stop stop-color="#ffffff" offset="0"/>
   <stop stop-color="#00385e" offset="1"/>
  </linearGradient>
  <linearGradient id="linearGradient7613" x1="956.11" x2="1078.2" y1="-181.11" y2="-181.11" gradientTransform="matrix(.48436 0 0 .77502 -100.57 1240.9)" gradientUnits="userSpaceOnUse">
   <stop stop-color="#ffffff" offset="0"/>
   <stop stop-color="#00385e" offset="1"/>
  </linearGradient>
  <linearGradient id="linearGradient7615" x1="504.95" x2="509.06" y1="520.15" y2="520.15" gradientTransform="matrix(.92929 0 0 .60664 -69.977 785.26)" gradientUnits="userSpaceOnUse">
   <stop stop-color="#ffffff" offset="0"/>
   <stop stop-color="#00385e" offset="1"/>
  </linearGradient>
  <linearGradient id="linearGradient7617" x1="504.95" x2="509.06" y1="520.15" y2="520.15" gradientTransform="matrix(.92929 0 0 .60664 -61.903 785.37)" gradientUnits="userSpaceOnUse">
   <stop stop-color="#ffffff" offset="0"/>
   <stop stop-color="#00385e" offset="1"/>
  </linearGradient>
  <linearGradient id="linearGradient15900" x1="45.78" x2="91.766" y1="57.679" y2="57.679" gradientUnits="userSpaceOnUse">
   <stop stop-color="#333333" offset="0"/>
   <stop stop-color="#727272" offset=".1124"/>
   <stop stop-color="#AEAEAE" offset=".2308"/>
   <stop stop-color="#F5F5F5" offset=".41"/>
   <stop stop-color="#FFFFFF" offset=".456"/>
   <stop stop-color="#F1F1F1" offset=".5105"/>
   <stop stop-color="#919191" offset=".754"/>
   <stop stop-color="#3F3F3F" offset=".9248"/>
   <stop stop-color="#1A1A1A" offset="1"/>
  </linearGradient>
  <linearGradient id="SVGID_4_-2-1-3-0" x1="45.78" x2="91.766" y1="57.679" y2="57.679" gradientUnits="userSpaceOnUse">
   <stop stop-color="#333333" offset="0"/>
   <stop stop-color="#727272" offset=".1124"/>
   <stop stop-color="#AEAEAE" offset=".2308"/>
   <stop stop-color="#DADADA" offset=".3318"/>
   <stop stop-color="#F5F5F5" offset=".41"/>
   <stop stop-color="#FFFFFF" offset=".456"/>
   <stop stop-color="#F1F1F1" offset=".5105"/>
   <stop stop-color="#CCCCCC" offset=".6135"/>
   <stop stop-color="#919191" offset=".754"/>
   <stop stop-color="#3F3F3F" offset=".9248"/>
   <stop stop-color="#1A1A1A" offset="1"/>
  </linearGradient>
  <linearGradient id="linearGradient8304" x1="-30.001" x2="246.59" y1="34.795" y2="33.787" gradientUnits="userSpaceOnUse" xlink:href="#linearGradient15900"/>
  <linearGradient id="linearGradient8306" x1="-42.67" x2="271.37" y1="72.319" y2="74.184" gradientUnits="userSpaceOnUse" xlink:href="#SVGID_4_-2-1-3-0"/>
  <linearGradient id="linearGradient8308" x1="-23.17" x2="242.86" y1="87.283" y2="88.128" gradientUnits="userSpaceOnUse" xlink:href="#linearGradient15900"/>
  <linearGradient id="linearGradient8310" x1=".66803" x2="215.15" y1="97.851" y2="97.452" gradientUnits="userSpaceOnUse" xlink:href="#SVGID_4_-2-1-3-0"/>
  <linearGradient id="linearGradient8347" x1="-1.0434" x2="115.52" y1="109.35" y2="110.11" gradientUnits="userSpaceOnUse" xlink:href="#linearGradient15900"/>
  <linearGradient id="linearGradient8349" x1="27.733" x2="82.745" y1="148.78" y2="148.32" gradientTransform="matrix(.52229 0 0 .52229 141.9 453.16)" gradientUnits="userSpaceOnUse" xlink:href="#linearGradient15900"/>
  <linearGradient id="linearGradient8351" x1="23.769" x2="94.379" y1="153.42" y2="152.92" gradientTransform="matrix(.52229 0 0 .52229 141.86 452.28)" gradientUnits="userSpaceOnUse" xlink:href="#SVGID_4_-2-1-3-0"/>
  <linearGradient id="linearGradient8353" x1="32.099" x2="80.36" y1="157.45" y2="157.2" gradientUnits="userSpaceOnUse" xlink:href="#linearGradient15900"/>
  <linearGradient id="linearGradient8355" x1="32.291" x2="79.937" y1="166.73" y2="166.48" gradientTransform="matrix(.52229 0 0 .52229 141.8 448.3)" gradientUnits="userSpaceOnUse" xlink:href="#linearGradient15900"/>
  <linearGradient id="linearGradient8357" x1="230.01" x2="294.5" y1="836.59" y2="836.59" gradientTransform="matrix(.21567 0 0 .21567 113.99 365.75)" gradientUnits="userSpaceOnUse" xlink:href="#linearGradient15900"/>
  <linearGradient id="linearGradient8378" x1="-29.178" x2="151.76" y1="54.605" y2="55.146" gradientUnits="userSpaceOnUse" xlink:href="#linearGradient15900"/>
  <linearGradient id="linearGradient8380" x1="6.0084" x2="116.12" y1="65.442" y2="65.18" gradientUnits="userSpaceOnUse" xlink:href="#linearGradient15900"/>
  <linearGradient id="linearGradient8382" x1="4.2505" x2="113.95" y1="68.746" y2="68.175" gradientUnits="userSpaceOnUse" xlink:href="#SVGID_4_-2-1-3-0"/>
  <linearGradient id="linearGradient8384" x1="10.822" x2="103.59" y1="72.956" y2="72.148" gradientTransform="matrix(.62548 0 0 .62548 710.33 850.98)" gradientUnits="userSpaceOnUse" xlink:href="#SVGID_4_-2-1-3-0"/>
  <linearGradient id="linearGradient8386" x1="1.6771" x2="118.76" y1="75.799" y2="75.228" gradientTransform="matrix(.55923 0 0 .62548 713.87 850.98)" gradientUnits="userSpaceOnUse" xlink:href="#linearGradient15900"/>
 </defs>
 <g transform="translate(120.5 -642.81)">
  <path d="m-30.439 879.58c61.079 0.051 120.06 0.66113 183.81 0v12.616h-183.81z" fill="#8b2209" fill-rule="evenodd" stroke="#000000" stroke-linecap="round" stroke-linejoin="round" stroke-miterlimit="4.4" stroke-width=".63425"/>
  <path d="m2.1256 893.36h113.95v6.1918h-113.95z" fill="#8b2209" fill-rule="evenodd" stroke="#000000" stroke-miterlimit="6" stroke-width=".63425"/>
  <g transform="matrix(1.3913 0 0 1.3924 38.666 -433.85)" fill="#afafaf" stroke="#000000" stroke-width=".25458">
   <path d="m-49.668 943.63v3.3046h0.4931v-1.2064h-0.20642v-2.0983z"/>
   <path d="m-46.681 943.64v2.1154h-0.13761v1.1835l0.99399 6e-3v-1.1892h-0.20642v-2.1154z"/>
   <g stroke-linecap="round" stroke-linejoin="round">
    <path d="m-41.211 943.63v2.1154h-0.49768v1.1835l2.0125-0.0109v-1.1892l-0.49833 0.0161v-2.1154z"/>
    <path d="m-32.875 943.64v2.1235h-0.49768v1.1754l3.1802 6e-3v-1.1811h-0.49833v-2.1073z"/>
    <g stroke-miterlimit="4.4">
     <path d="m72.417 943.39v2.1154h0.49768v1.1835l-2.0125-0.0109v-1.1892l0.49833 0.0161v-2.1154z"/>
     <path d="m64.137 943.39v2.1235h0.49768v1.1754l-3.2937 6e-3v-1.1811h0.61186v-2.1074z"/>
     <path d="m81.084 943.38v3.3047h-0.4931v-1.2064h0.20641v-2.0983z"/>
     <path d="m77.889 943.4v2.1154h0.13761v1.1835l-0.994 6e-3v-1.1892h0.20642v-2.1154z"/>
    </g>
   </g>
  </g>
  <g transform="matrix(1.3913 0 0 1.3924 37.261 -433.42)" stroke="#000000">
   <text x="8.6554422" y="1013.8427" fill="#000000" font-family="'Arial Nova', 'Arial Unicode MS', 'Yu Gothic UI', sans-serif" letter-spacing="0px" stroke-width=".71847" word-spacing="0px" style="line-height:0%" xml:space="preserve"><tspan x="8.6554422" y="1013.8427" font-size="11.496px" stroke-width=".71847" style="line-height:1.25">C</tspan></text>
   <g transform="matrix(.49415 0 0 -.49415 -181.73 1433.3)" stroke-linecap="round" stroke-linejoin="round">
    <path d="m361.82 882.12c7.8723-1.1624 17.753-1.8608 28.482-1.8746 25.718-0.0331 46.571 3.8802 46.577 8.7406 6e-3 4.8604-20.837 8.8275-46.555 8.8606-4.8584 6e-3 -9.5611-0.16198-13.965-0.41721" fill="none" stroke-width=".92217"/>
    <path d="m357.57 895.86 20.755-5.6137-0.81833 14.193z" fill="#000000" stroke-width="1.4528"/>
   </g>
  </g>
  <text transform="scale(.99963 1.0004)" x="-111.84898" y="915.70276" fill="#000000" font-family="'Arial Nova', 'Arial Unicode MS', 'Yu Gothic UI', sans-serif" letter-spacing="0px" stroke="#000000" word-spacing="0px" style="line-height:0%" xml:space="preserve"><tspan x="-111.84898" y="915.70276" fill="#000000" font-size="16px" stroke="#000000" style="line-height:1.25">B</tspan></text>
  <path d="m-82.631 883.59c0.79915 5.4165 1.2794 12.215 1.2889 19.597 0.0228 17.695-2.6678 32.043-6.0095 32.047-3.3417 4e-3 -6.0692-14.337-6.0919-32.031-4e-3 -3.3428 0.1113-6.5784 0.28683-9.6081" fill="none" stroke="#000000" stroke-linecap="round" stroke-linejoin="round" stroke-width=".63425"/>
  <g stroke="#000000" stroke-linecap="round" stroke-linejoin="round">
   <path d="m-92.082 880.67 3.8596 14.28-9.758-0.56304z" fill="#000000" stroke-width=".99921"/>
   <g stroke-width=".63425">
    <path d="m-56.113 883.89h10.704l7.691 16.725h197.12l9.17-16.133h10.408v47.512h-235.09z" fill="#dcdcdc"/>
    <path d="m179.02 887.92h15.678v39.371h-15.678z" fill="url(#linearGradient6314)" fill-rule="evenodd"/>
    <path d="m-71.765 888.04h15.678v39.371h-15.678z" fill="url(#linearGradient6311)" fill-rule="evenodd"/>
   </g>
  </g>
  <path d="m-85.346 909.05h12.209m269.27-0.0305 10.332-0.0622" fill="none" opacity=".50179" stroke="#000000" stroke-linecap="round" stroke-linejoin="round" stroke-width="1.3429"/>
  <path d="m-70.402 909.1 263.58-0.13561" fill="none" opacity=".58781" stroke="#000000" stroke-dasharray="0.63400001, 1.90200005" stroke-linecap="round" stroke-linejoin="round" stroke-width=".634"/>
  <g stroke="#000000" stroke-linecap="round" stroke-linejoin="round">
   <path d="m58.19 933.41v6.9402" fill="#a37f84" opacity=".46595" stroke-width="1.6972"/>
   <g fill-rule="evenodd" stroke-width=".63425">
    <rect x="33.675" y="861.52" width="22.051" height="6.5328" fill="#dcdcdc"/>
    <rect x="82.97" y="861.55" width="22.051" height="6.5328" fill="#dcdcdc"/>
    <path d="m43.517 848.51h32.64l0.03157 3.752 2.8423 3e-3 -0.0012-3.7552h5.3664l0.03157 3.7678 2.9358-0.0158-0.01578-3.7678 6.9848 0.0158v14.685h-50.815z" fill="url(#linearGradient7187)"/>
    <rect x="6.7548" y="867.72" width="102.92" height="11.907" fill="#dcdcdc"/>
   </g>
  </g>
  <g transform="translate(-1.0508 168.37)" fill-rule="evenodd" stroke="#000000" stroke-linecap="round" stroke-linejoin="round">
   <g transform="matrix(.30505 0 0 .30449 -198.13 487.33)">
    <path transform="matrix(.68924 0 0 .6884 405.72 261.91)" d="m457.5 659.42c0 9.3691-7.5952 16.964-16.964 16.964-9.3691 0-16.964-7.5952-16.964-16.964 0-9.3691 7.5952-16.964 16.964-16.964 9.3691 0 16.964 7.5952 16.964 16.964z" fill="#e1e1e1" stroke-width="1.6878"/>
    <path d="m716.21 715.85c0 3.7838-3.0712 6.8512-6.8597 6.8512-3.7885 0-6.8597-3.0674-6.8597-6.8512 0-3.784 3.0712-6.8514 6.8597-6.8514 3.7885 0 6.8597 3.0674 6.8597 6.8514z" fill="#c8c8c8" stroke-width="1.1626"/>
   </g>
   <g transform="matrix(.30505 0 0 .30449 -186.47 487.33)">
    <path transform="matrix(.68924 0 0 .6884 405.72 261.91)" d="m457.5 659.42c0 9.3691-7.5952 16.964-16.964 16.964-9.3691 0-16.964-7.5952-16.964-16.964 0-9.3691 7.5952-16.964 16.964-16.964 9.3691 0 16.964 7.5952 16.964 16.964z" fill="#e1e1e1" stroke-width="1.6878"/>
    <path d="m716.21 715.85c0 3.7838-3.0712 6.8512-6.8597 6.8512-3.7885 0-6.8597-3.0674-6.8597-6.8512 0-3.784 3.0712-6.8514 6.8597-6.8514 3.7885 0 6.8597 3.0674 6.8597 6.8514z" fill="#c8c8c8" stroke-width="1.1626"/>
   </g>
   <g transform="matrix(.30505 0 0 .30449 -174.81 487.33)">
    <path transform="matrix(.68924 0 0 .6884 405.72 261.91)" d="m457.5 659.42c0 9.3691-7.5952 16.964-16.964 16.964-9.3691 0-16.964-7.5952-16.964-16.964 0-9.3691 7.5952-16.964 16.964-16.964 9.3691 0 16.964 7.5952 16.964 16.964z" fill="#e1e1e1" stroke-width="1.6878"/>
    <path d="m716.21 715.85c0 3.7838-3.0712 6.8512-6.8597 6.8512-3.7885 0-6.8597-3.0674-6.8597-6.8512 0-3.784 3.0712-6.8514 6.8597-6.8514 3.7885 0 6.8597 3.0674 6.8597 6.8514z" fill="#c8c8c8" stroke-width="1.1626"/>
   </g>
   <g transform="matrix(.30505 0 0 .30449 -163.16 487.33)">
    <path transform="matrix(.68924 0 0 .6884 405.72 261.91)" d="m457.5 659.42c0 9.3691-7.5952 16.964-16.964 16.964-9.3691 0-16.964-7.5952-16.964-16.964 0-9.3691 7.5952-16.964 16.964-16.964 9.3691 0 16.964 7.5952 16.964 16.964z" fill="#e1e1e1" stroke-width="1.6878"/>
    <path d="m716.21 715.85c0 3.7838-3.0712 6.8512-6.8597 6.8512-3.7885 0-6.8597-3.0674-6.8597-6.8512 0-3.784 3.0712-6.8514 6.8597-6.8514 3.7885 0 6.8597 3.0674 6.8597 6.8514z" fill="#c8c8c8" stroke-width="1.1626"/>
   </g>
  </g>
  <path d="m58.438 839.63v4.9402" fill="#a37f84" opacity=".46595" stroke="#000000" stroke-linecap="round" stroke-linejoin="round" stroke-width="1.3429"/>
  <path d="m58.453 845.44-0.35767 86.498" fill="#ffffff" opacity=".46595" stroke="#000000" stroke-dasharray="1.34291339, 5.37165354" stroke-linecap="round" stroke-linejoin="round" stroke-width="1.3429"/>
  <g transform="translate(297.93 .67177)" fill-rule="evenodd" stroke="#000000" stroke-linecap="round" stroke-linejoin="round">
   <g transform="translate(10.714 11.786)" stroke-width=".63425">
    <path d="m-62.211 846.71h10.713v97.143h-10.713z" fill="#dcdcdc"/>
    <path d="m-77.956 875.47h15.678v39.371h-15.678z" fill="url(#linearGradient6754)"/>
   </g>
   <g transform="matrix(-1 0 0 1 121.07 12.07)" stroke-width=".63425">
    <path d="m-62.211 846.71h10.713v97.143h-10.713z" fill="#dcdcdc"/>
    <path d="m-77.956 875.47h15.678v39.371h-15.678z" fill="url(#linearGradient6754)"/>
   </g>
   <path d="m-40.787 867.07h213.38v80h-213.38z" fill="#dcdcdc" stroke-width=".63425"/>
  </g>
  <path transform="matrix(.90592 0 0 .90592 479.7 752.29)" d="m-25 175.27c0 56.609-45.891 102.5-102.5 102.5-56.609 0-102.5-45.891-102.5-102.5 0-56.609 45.891-102.5 102.5-102.5 56.609 0 102.5 45.891 102.5 102.5z" fill="#8b2209" fill-rule="evenodd" stroke="#000000" stroke-linecap="round" stroke-linejoin="round" stroke-width=".70012"/>
  <g fill="#afafaf" fill-rule="evenodd" stroke="#000000" stroke-linecap="round" stroke-linejoin="round" stroke-width=".63425">
   <path d="m307.54 837.37 113.26 0.0316s3.4528 2.4304 6.4359 5.6827h-126.19s2.3983-2.5576 6.4904-5.7143z" opacity=".7133"/>
   <path d="m300.9 979.03 126.62 0.0315-6.8839 5.7143-112.92 0.0316z" opacity=".7133"/>
   <path d="m280.24 950.82 167.96-0.1282c-0.53213 1.4833-1.7369 3.949-2.9732 5.7366l-162.09-0.0204z" opacity=".7133"/>
   <path d="m272.02 922.34 184.32 0.0474c-0.129 1.7936-0.37764 3.6828-0.80399 5.7143h-182.56z" opacity=".7133"/>
   <path d="m272.96 894.02 182.44 0.0335 0.95679 5.7645-184.32-0.0837s0.92318-5.7031 0.9231-5.7143z" opacity=".7133"/>
   <path d="m283.18 865.74 162.07-0.0632 2.9788 5.7459-168.06-0.0158z" opacity=".7133"/>
  </g>
  <path d="m217.86 908.76h12.209m269.27-0.0305 10.332-0.0622" fill="none" opacity=".50179" stroke="#000000" stroke-linecap="round" stroke-linejoin="round" stroke-width="1.3429"/>
  <g transform="translate(-.6066 -189.23)">
   <g fill="#dcdcdc" fill-rule="evenodd" stroke="#000000" stroke-linecap="round" stroke-linejoin="round" stroke-width=".63425">
    <path d="m326.03 1067.6h106.32v66.043h-106.32z"/>
    <rect transform="rotate(90)" x="1081.5" y="-377.59" width="41.788" height="22.148"/>
    <rect transform="rotate(90)" x="1081.7" y="-426.92" width="41.536" height="14.95"/>
   </g>
   <g transform="matrix(0 .68026 -.68026 0 839.91 1082.5)" fill-rule="evenodd" stroke="#000000" stroke-linecap="round" stroke-linejoin="round">
    <g transform="matrix(.30505 0 0 .30449 -198.13 487.33)">
     <path transform="matrix(.68924 0 0 .6884 405.72 261.91)" d="m457.5 659.42c0 9.3691-7.5952 16.964-16.964 16.964-9.3691 0-16.964-7.5952-16.964-16.964 0-9.3691 7.5952-16.964 16.964-16.964 9.3691 0 16.964 7.5952 16.964 16.964z" fill="#e1e1e1" stroke-width="2.4812"/>
     <path d="m716.21 715.85c0 3.7838-3.0712 6.8512-6.8597 6.8512-3.7885 0-6.8597-3.0674-6.8597-6.8512 0-3.784 3.0712-6.8514 6.8597-6.8514 3.7885 0 6.8597 3.0674 6.8597 6.8514z" fill="#c8c8c8" stroke-width="1.7091"/>
    </g>
    <g transform="matrix(.30505 0 0 .30449 -186.47 487.33)">
     <path transform="matrix(.68924 0 0 .6884 405.72 261.91)" d="m457.5 659.42c0 9.3691-7.5952 16.964-16.964 16.964-9.3691 0-16.964-7.5952-16.964-16.964 0-9.3691 7.5952-16.964 16.964-16.964 9.3691 0 16.964 7.5952 16.964 16.964z" fill="#e1e1e1" stroke-width="2.4812"/>
     <path d="m716.21 715.85c0 3.7838-3.0712 6.8512-6.8597 6.8512-3.7885 0-6.8597-3.0674-6.8597-6.8512 0-3.784 3.0712-6.8514 6.8597-6.8514 3.7885 0 6.8597 3.0674 6.8597 6.8514z" fill="#c8c8c8" stroke-width="1.7091"/>
    </g>
    <g transform="matrix(.30505 0 0 .30449 -174.81 487.33)">
     <path transform="matrix(.68924 0 0 .6884 405.72 261.91)" d="m457.5 659.42c0 9.3691-7.5952 16.964-16.964 16.964-9.3691 0-16.964-7.5952-16.964-16.964 0-9.3691 7.5952-16.964 16.964-16.964 9.3691 0 16.964 7.5952 16.964 16.964z" fill="#e1e1e1" stroke-width="2.4812"/>
     <path d="m716.21 715.85c0 3.7838-3.0712 6.8512-6.8597 6.8512-3.7885 0-6.8597-3.0674-6.8597-6.8512 0-3.784 3.0712-6.8514 6.8597-6.8514 3.7885 0 6.8597 3.0674 6.8597 6.8514z" fill="#c8c8c8" stroke-width="1.7091"/>
    </g>
    <g transform="matrix(.30505 0 0 .30449 -163.16 487.33)">
     <path transform="matrix(.68924 0 0 .6884 405.72 261.91)" d="m457.5 659.42c0 9.3691-7.5952 16.964-16.964 16.964-9.3691 0-16.964-7.5952-16.964-16.964 0-9.3691 7.5952-16.964 16.964-16.964 9.3691 0 16.964 7.5952 16.964 16.964z" fill="#e1e1e1" stroke-width="2.4812"/>
     <path d="m716.21 715.85c0 3.7838-3.0712 6.8512-6.8597 6.8512-3.7885 0-6.8597-3.0674-6.8597-6.8512 0-3.784 3.0712-6.8514 6.8597-6.8514 3.7885 0 6.8597 3.0674 6.8597 6.8514z" fill="#c8c8c8" stroke-width="1.7091"/>
    </g>
   </g>
   <g transform="matrix(0 .68026 -.68026 0 902.03 1082.5)" fill-rule="evenodd" stroke="#000000" stroke-linecap="round" stroke-linejoin="round">
    <g transform="matrix(.30505 0 0 .30449 -198.13 487.33)">
     <path transform="matrix(.68924 0 0 .6884 405.72 261.91)" d="m457.5 659.42c0 9.3691-7.5952 16.964-16.964 16.964-9.3691 0-16.964-7.5952-16.964-16.964 0-9.3691 7.5952-16.964 16.964-16.964 9.3691 0 16.964 7.5952 16.964 16.964z" fill="#e1e1e1" stroke-width="2.4812"/>
     <path d="m716.21 715.85c0 3.7838-3.0712 6.8512-6.8597 6.8512-3.7885 0-6.8597-3.0674-6.8597-6.8512 0-3.784 3.0712-6.8514 6.8597-6.8514 3.7885 0 6.8597 3.0674 6.8597 6.8514z" fill="#c8c8c8" stroke-width="1.7091"/>
    </g>
    <g transform="matrix(.30505 0 0 .30449 -186.47 487.33)">
     <path transform="matrix(.68924 0 0 .6884 405.72 261.91)" d="m457.5 659.42c0 9.3691-7.5952 16.964-16.964 16.964-9.3691 0-16.964-7.5952-16.964-16.964 0-9.3691 7.5952-16.964 16.964-16.964 9.3691 0 16.964 7.5952 16.964 16.964z" fill="#e1e1e1" stroke-width="2.4812"/>
     <path d="m716.21 715.85c0 3.7838-3.0712 6.8512-6.8597 6.8512-3.7885 0-6.8597-3.0674-6.8597-6.8512 0-3.784 3.0712-6.8514 6.8597-6.8514 3.7885 0 6.8597 3.0674 6.8597 6.8514z" fill="#c8c8c8" stroke-width="1.7091"/>
    </g>
    <g transform="matrix(.30505 0 0 .30449 -174.81 487.33)">
     <path transform="matrix(.68924 0 0 .6884 405.72 261.91)" d="m457.5 659.42c0 9.3691-7.5952 16.964-16.964 16.964-9.3691 0-16.964-7.5952-16.964-16.964 0-9.3691 7.5952-16.964 16.964-16.964 9.3691 0 16.964 7.5952 16.964 16.964z" fill="#e1e1e1" stroke-width="2.4812"/>
     <path d="m716.21 715.85c0 3.7838-3.0712 6.8512-6.8597 6.8512-3.7885 0-6.8597-3.0674-6.8597-6.8512 0-3.784 3.0712-6.8514 6.8597-6.8514 3.7885 0 6.8597 3.0674 6.8597 6.8514z" fill="#c8c8c8" stroke-width="1.7091"/>
    </g>
    <g transform="matrix(.30505 0 0 .30449 -163.16 487.33)">
     <path transform="matrix(.68924 0 0 .6884 405.72 261.91)" d="m457.5 659.42c0 9.3691-7.5952 16.964-16.964 16.964-9.3691 0-16.964-7.5952-16.964-16.964 0-9.3691 7.5952-16.964 16.964-16.964 9.3691 0 16.964 7.5952 16.964 16.964z" fill="#e1e1e1" stroke-width="2.4812"/>
     <path d="m716.21 715.85c0 3.7838-3.0712 6.8512-6.8597 6.8512-3.7885 0-6.8597-3.0674-6.8597-6.8512 0-3.784 3.0712-6.8514 6.8597-6.8514 3.7885 0 6.8597 3.0674 6.8597 6.8514z" fill="#c8c8c8" stroke-width="1.7091"/>
    </g>
   </g>
   <path d="m402.6 1071.8s4.812 0.034 4.8148 0.023m3.1398 0.011h6.9483v57.394h-6.7904m-11.301-0.1263-32.724 0.1263v-57.394l32.755-0.1263" fill="url(#linearGradient7613)" fill-rule="evenodd" stroke="#000000" stroke-linecap="round" stroke-linejoin="round" stroke-width=".63425"/>
   <g transform="translate(-15.656 53.018)">
    <path d="m415.07 1076.1v-57.363m3.0915 0.048-0.067 57.478 5.0125-0.026" fill="none" stroke="#000000" stroke-linecap="round" stroke-linejoin="round" stroke-width=".63425"/>
   </g>
   <g transform="translate(-7.6449 53.226)">
    <path d="m415.07 1075.8v-57.129m3.1196 0.1263v57.192" fill="none" stroke="#000000" stroke-linecap="round" stroke-linejoin="round" stroke-width=".63425"/>
   </g>
   <g>
    <path d="m399.65 1071.7h2.4892v57.714h-2.4892z" fill="url(#linearGradient7615)"/>
    <path d="m402.76 1072h4.436v56.916h-4.436z" fill="#65879e"/>
    <path d="m407.72 1071.8h2.4892v57.714h-2.4892z" fill="url(#linearGradient7617)"/>
   </g>
  </g>
  <g fill="#000000" stroke="#000000" stroke-linecap="round" stroke-linejoin="round">
   <path d="m-11.256 878.7-3.9286-11.786h8.2143z" stroke-width=".99921"/>
   <path d="m-11.275 810.55v65.164" stroke-width=".63425"/>
   <path d="m-11.263 802.67 3.9286 11.786h-8.2143z" stroke-width=".99921"/>
   <path d="m93.082 801.43h-105.16" stroke-width=".63425"/>
   <path d="m419.9 802.31h-105.16" stroke-width=".63425"/>
  </g>
  <path d="m94.056 801.64h219.71" fill="none" stroke="#000000" stroke-dasharray="1, 3"/>
  <g transform="translate(-115.74 253.76)">
   <g transform="translate(3.8439 -17.366)" stroke="#000000" stroke-linecap="round" stroke-linejoin="round" stroke-miterlimit="9.7273">
    <polygon transform="matrix(.52229 0 0 .52229 142.03 456.45)" points="32.782 79.165 32.782 79.165 74.862 79.165 68.617 140.96 39.4 140.96" fill="url(#linearGradient8347)" stroke-width="1.2144"/>
    <path d="m177.35 531.63h-14.359l-0.19534-1.5669h14.682z" fill="url(#linearGradient8349)" stroke-width=".63425"/>
    <path d="m177.06 532.94h-13.79l-0.18019-1.3193h14.089z" fill="url(#linearGradient8351)" stroke-width=".63425"/>
    <polygon transform="matrix(.52229 0 0 .52229 141.83 451.38)" points="41.022 156.19 41.022 156.19 67.368 156.19 67.153 158.73 41.367 158.73" fill="url(#linearGradient8353)" stroke-width="1.2144"/>
    <path d="m176.17 536.4h-12.005l-0.15721-2.1064h12.267z" fill="url(#linearGradient8355)" stroke-width=".63425"/>
    <path d="m166.59 562.08c0 1.6833 1.7611 2.9436 3.4444 2.9436 1.6833 0 3.427-1.2603 3.427-2.9436l0.0272-25.61c0.0488 0.0253-6.8715 0-6.8715 0z" color="#000000" fill="url(#linearGradient8357)" stroke-width=".63425"/>
   </g>
   <g transform="translate(4.4504e-8 -6.1421)">
    <g transform="translate(2.7907)">
     <g transform="matrix(.83501 0 0 .83501 -450.46 -264.65)" stroke="#000000" stroke-linecap="round" stroke-linejoin="round" stroke-miterlimit="9.7273">
      <g stroke-width="1.2144">
       <polygon transform="matrix(.62548 0 0 .62548 710.71 850.98)" points="16.458 47.047 16.458 47.047 92.407 47.047 92.407 64.053 16.458 64.053" fill="url(#linearGradient8378)"/>
       <path transform="matrix(.62548 0 0 .62548 710.61 850.98)" d="m19.616 66.306-2.871-2.11h75.675l-1.492 2.11z" fill="url(#linearGradient8380)"/>
       <polygon transform="matrix(.62548 0 0 .62548 710.49 850.98)" points="21.87 66.435 87.683 66.435 87.683 71.056 21.87 71.056" fill="url(#linearGradient8382)"/>
      </g>
      <path d="m724.14 895.4 1.1184 1.7095 38.676 0.0828 1.39-1.8145z" fill="url(#linearGradient8384)" stroke-width=".75957"/>
      <path d="m725.23 897.07h38.816v2.6477h-38.816z" fill="url(#linearGradient8386)" stroke-width=".75957"/>
     </g>
    </g>
   </g>
   <g transform="matrix(.68382 0 0 .68382 -336.41 -113.75)" stroke="#000000" stroke-linecap="round" stroke-linejoin="round" stroke-miterlimit="9.4">
    <polygon transform="matrix(.70077 0 0 .31146 679.42 803.26)" points="9.988 1.303 9.988 1.303 182.07 1.303 182.07 68.959 9.988 68.959" fill="url(#linearGradient8304)" stroke-width="1.9853"/>
    <g stroke-width="1.3236">
     <path transform="matrix(.70077 0 0 .70077 679.42 776.41)" d="m177.59 68.959-2.854 10.45h-156.92l-2.854-10.45z" fill="url(#linearGradient8306)"/>
     <polygon transform="matrix(.70077 0 0 .70077 679.42 776.41)" points="26.353 79.409 26.353 79.409 165.9 79.409 160.15 95.778 31.349 95.829" fill="url(#linearGradient8308)"/>
     <path transform="matrix(.70077 0 0 .70077 679.42 776.41)" d="m159.98 95.661-128.6 0.185 3.99 2.615 121.71 0.018z" fill="url(#linearGradient8310)"/>
    </g>
   </g>
  </g>
  <g transform="translate(192.31 254.55)">
   <g transform="translate(3.8439 -17.366)" stroke="#000000" stroke-linecap="round" stroke-linejoin="round" stroke-miterlimit="9.7273">
    <polygon transform="matrix(.52229 0 0 .52229 142.03 456.45)" points="74.862 79.165 68.617 140.96 39.4 140.96 32.782 79.165 32.782 79.165" fill="url(#linearGradient8347)" stroke-width="1.2144"/>
    <path d="m177.35 531.63h-14.359l-0.19534-1.5669h14.682z" fill="url(#linearGradient8349)" stroke-width=".63425"/>
    <path d="m177.06 532.94h-13.79l-0.18019-1.3193h14.089z" fill="url(#linearGradient8351)" stroke-width=".63425"/>
    <polygon transform="matrix(.52229 0 0 .52229 141.83 451.38)" points="67.368 156.19 67.153 158.73 41.367 158.73 41.022 156.19 41.022 156.19" fill="url(#linearGradient8353)" stroke-width="1.2144"/>
    <path d="m176.17 536.4h-12.005l-0.15721-2.1064h12.267z" fill="url(#linearGradient8355)" stroke-width=".63425"/>
    <path d="m166.59 562.08c0 1.6833 1.7611 2.9436 3.4444 2.9436 1.6833 0 3.427-1.2603 3.427-2.9436l0.0272-25.61c0.0488 0.0253-6.8715 0-6.8715 0z" color="#000000" fill="url(#linearGradient8357)" stroke-width=".63425"/>
   </g>
   <g transform="translate(4.4504e-8 -6.1421)">
    <g transform="translate(2.7907)">
     <g transform="matrix(.83501 0 0 .83501 -450.46 -264.65)" stroke="#000000" stroke-linecap="round" stroke-linejoin="round" stroke-miterlimit="9.7273">
      <g stroke-width="1.2144">
       <polygon transform="matrix(.62548 0 0 .62548 710.71 850.98)" points="92.407 47.047 92.407 64.053 16.458 64.053 16.458 47.047 16.458 47.047" fill="url(#linearGradient8378)"/>
       <path transform="matrix(.62548 0 0 .62548 710.61 850.98)" d="m19.616 66.306-2.871-2.11h75.675l-1.492 2.11z" fill="url(#linearGradient8380)"/>
       <polygon transform="matrix(.62548 0 0 .62548 710.49 850.98)" points="87.683 71.056 21.87 71.056 21.87 66.435 21.87 66.435 87.683 66.435" fill="url(#linearGradient8382)"/>
      </g>
      <path d="m724.14 895.4 1.1184 1.7095 38.676 0.0828 1.39-1.8145z" fill="url(#linearGradient8384)" stroke-width=".75957"/>
      <path d="m725.23 897.07h38.816v2.6477h-38.816z" fill="url(#linearGradient8386)" stroke-width=".75957"/>
     </g>
    </g>
   </g>
   <g transform="matrix(.68382 0 0 .68382 -336.41 -113.75)" stroke="#000000" stroke-linecap="round" stroke-linejoin="round" stroke-miterlimit="9.4">
    <polygon transform="matrix(.70077 0 0 .31146 679.42 803.26)" points="182.07 1.303 182.07 68.959 9.988 68.959 9.988 1.303 9.988 1.303" fill="url(#linearGradient8304)" stroke-width="1.9853"/>
    <g stroke-width="1.3236">
     <path transform="matrix(.70077 0 0 .70077 679.42 776.41)" d="m177.59 68.959-2.854 10.45h-156.92l-2.854-10.45z" fill="url(#linearGradient8306)"/>
     <polygon transform="matrix(.70077 0 0 .70077 679.42 776.41)" points="165.9 79.409 160.15 95.778 31.349 95.829 26.353 79.409 26.353 79.409" fill="url(#linearGradient8308)"/>
     <path transform="matrix(.70077 0 0 .70077 679.42 776.41)" d="m159.98 95.661-128.6 0.185 3.99 2.615 121.71 0.018z" fill="url(#linearGradient8310)"/>
    </g>
   </g>
  </g>
  <g transform="translate(103.22 763.64)">
   <ellipse cx="-44.92" cy="-98.798" rx="13.199" ry="13.469" d="m -31.720282,-98.79776 c 0,7.438558 -5.90954,13.4687 -13.199327,13.4687 -7.289787,0 -13.199328,-6.030142 -13.199328,-13.4687 0,-7.43856 5.909541,-13.4687 13.199328,-13.4687 7.289787,0 13.199327,6.03014 13.199327,13.4687 z" fill="#1f638a" stroke-linecap="round" stroke-linejoin="round" stroke-width="1.0658"/>
   <text x="-50.761276" y="-91.125885" fill="#000000" letter-spacing="0px" word-spacing="0px" style="line-height:0%" xml:space="preserve"><tspan x="-50.761276" y="-91.125885" fill="#ffffff" font-family="'Arial Nova', 'Arial Unicode MS', 'Yu Gothic UI', sans-serif" font-size="20px" stroke="#ffffff" stroke-width="1.0667" style="line-height:1.25">1</tspan></text>
  </g>
  <g transform="translate(380.2 763.64)">
   <ellipse cx="-13.718" cy="-98.798" rx="13.199" ry="13.469" d="m -0.51893806,-98.79776 c 0,7.438558 -5.90954024,13.4687 -13.19932794,13.4687 -7.289787,0 -13.199327,-6.030142 -13.199327,-13.4687 0,-7.43856 5.90954,-13.4687 13.199327,-13.4687 7.2897877,0 13.19932794,6.03014 13.19932794,13.4687 z" fill="#1f638a" stroke-linecap="round" stroke-linejoin="round" stroke-width="1.0658"/>
   <text x="-19.559933" y="-91.125885" fill="#000000" letter-spacing="0px" word-spacing="0px" style="line-height:0%" xml:space="preserve"><tspan x="-19.559933" y="-91.125885" fill="#ffffff" font-family="'Arial Nova', 'Arial Unicode MS', 'Yu Gothic UI', sans-serif" font-size="20px" stroke="#ffffff" stroke-width="1.0667" style="line-height:1.25">2</tspan></text>
  </g>
  <g transform="translate(-50.1 936.38)">
   <ellipse cx="17.483" cy="-98.798" rx="13.199" ry="13.469" d="m 30.682402,-98.79776 c 0,7.438558 -5.909541,13.4687 -13.199328,13.4687 -7.289787,0 -13.1993273,-6.030142 -13.1993273,-13.4687 0,-7.43856 5.9095403,-13.4687 13.1993273,-13.4687 7.289787,0 13.199328,6.03014 13.199328,13.4687 z" fill="#1f638a" stroke-linecap="round" stroke-linejoin="round" stroke-width="1.0658"/>
   <text x="11.641406" y="-91.256096" fill="#000000" font-family="'Arial Nova', 'Arial Unicode MS', 'Yu Gothic UI', sans-serif" letter-spacing="0px" word-spacing="0px" style="line-height:0%" xml:space="preserve"><tspan x="11.641406" y="-91.256096" fill="#ffffff" font-family="'Arial Nova', 'Arial Unicode MS', 'Yu Gothic UI', sans-serif" font-size="20px" stroke="#ffffff" stroke-width="1.0667" style="line-height:1.25">3</tspan></text>
  </g>
 </g>
</svg>
