<?xml version="1.0" encoding="UTF-8"?>
<svg width="18cm" height="7cm" version="1.1" xmlns="http://www.w3.org/2000/svg" xmlns:cc="http://creativecommons.org/ns#" xmlns:dc="http://purl.org/dc/elements/1.1/" xmlns:rdf="http://www.w3.org/1999/02/22-rdf-syntax-ns#" xmlns:xlink="http://www.w3.org/1999/xlink">
 <title>Abbildung für OPEN MIND Softwaredokumentation</title>
 <defs>
  <pattern id="pattern34184" patternTransform="matrix(.0708 -.067599 12.142 12.717 -790.53 1124.2)" xlink:href="#pattern28308"/>
  <pattern id="pattern28308" patternTransform="matrix(.047422 -.045278 8.1327 8.5178 -48.185 1053.2)" xlink:href="#pattern28057"/>
  <pattern id="pattern28057" patternTransform="matrix(.047422 -.045278 8.1327 8.5178 -49.563 1006.3)" xlink:href="#pattern6597"/>
  <pattern id="pattern6597" patternTransform="matrix(.047422 -.045278 8.1327 8.5178 -765.8 1013)" xlink:href="#pattern5942-3"/>
  <pattern id="pattern5942-3" patternTransform="matrix(.047422 -.045278 8.1327 8.5178 -751.8 1013)" xlink:href="#pattern5787-1"/>
  <pattern id="pattern5787-1" patternTransform="matrix(.047422 -.045278 8.1327 8.5178 -49.563 1006.3)" xlink:href="#pattern9529-8-1"/>
  <pattern id="pattern9529-8-1" patternTransform="matrix(.047373 -.045374 8.1418 8.5012 -48.49 1006.4)" xlink:href="#pattern9496-6-9"/>
  <pattern id="pattern9496-6-9" patternTransform="matrix(.047355 -.045348 8.1452 8.5058 396.14 -51.594)" xlink:href="#pattern9487-6-9"/>
  <pattern id="pattern9487-6-9" patternTransform="matrix(.056516 -.039102 6.9938 10.109 354.71 164.31)" xlink:href="#Strips1_64-2-5"/>
  <pattern id="Strips1_64-2-5" width="65" height="1" patternTransform="translate(0) scale(10)" patternUnits="userSpaceOnUse">
   <rect y="-.5" width="1" height="2"/>
  </pattern>
  <linearGradient id="linearGradient17780-7-9-9-6-9-1">
   <stop stop-color="#fff" offset="0"/>
   <stop stop-color="#00385e" offset="1"/>
  </linearGradient>
  <linearGradient id="linearGradient34187" x1="24.288" x2="22.322" y1="918.57" y2="1189.3" gradientTransform="matrix(1.493 0 0 1.493 3.0603 -442.16)" gradientUnits="userSpaceOnUse">
   <stop stop-color="#fff" offset="0"/>
   <stop stop-color="#00385e" offset="1"/>
  </linearGradient>
  <linearGradient id="linearGradient34201" x1="33.666" x2="33.943" y1="73.428" y2="-18.843" gradientTransform="matrix(2.7867 0 0 2.7867 -21.7 900.26)" gradientUnits="userSpaceOnUse" xlink:href="#linearGradient17780-7-9-9-6-9-1"/>
  <linearGradient id="linearGradient34204" x1="140.33" x2="140.12" y1="1008" y2="830.71" gradientTransform="matrix(1.5012 0 0 1.493 -10.895 -400.6)" gradientUnits="userSpaceOnUse" xlink:href="#linearGradient17780-7-9-9-6-9-1"/>
  <linearGradient id="linearGradient34207" x1="73.108" x2="73.471" y1="73.128" y2="-20.227" gradientTransform="matrix(2.7867 0 0 2.7867 -21.7 900.26)" gradientUnits="userSpaceOnUse" xlink:href="#linearGradient17780-7-9-9-6-9-1"/>
  <linearGradient id="linearGradient34210" x1="103.67" x2="105.19" y1="1006.7" y2="830.98" gradientTransform="matrix(1.493 0 0 1.493 -9.7869 -400.6)" gradientUnits="userSpaceOnUse" xlink:href="#linearGradient17780-7-9-9-6-9-1"/>
  <linearGradient id="linearGradient34213" x1="27.086" x2="26.953" y1="1006.2" y2="829.15" gradientTransform="matrix(1.4626 0 0 1.493 -8.6822 -400.6)" gradientUnits="userSpaceOnUse" xlink:href="#linearGradient17780-7-9-9-6-9-1"/>
  <linearGradient id="linearGradient34201-1" x1="33.666" x2="33.943" y1="73.428" y2="-18.843" gradientTransform="matrix(2.7867 0 0 2.7867 209.34 900.69)" gradientUnits="userSpaceOnUse" xlink:href="#linearGradient17780-7-9-9-6-9-1"/>
  <linearGradient id="linearGradient34204-9" x1="140.33" x2="140.12" y1="1008" y2="830.71" gradientTransform="matrix(1.5012 0 0 1.493 220.14 -400.18)" gradientUnits="userSpaceOnUse" xlink:href="#linearGradient17780-7-9-9-6-9-1"/>
  <linearGradient id="linearGradient34207-8" x1="73.108" x2="73.471" y1="73.128" y2="-20.227" gradientTransform="matrix(2.7867 0 0 2.7867 209.34 900.69)" gradientUnits="userSpaceOnUse" xlink:href="#linearGradient17780-7-9-9-6-9-1"/>
  <linearGradient id="linearGradient34210-8" x1="103.67" x2="105.19" y1="1006.7" y2="830.98" gradientTransform="matrix(1.493 0 0 1.493 221.25 -400.18)" gradientUnits="userSpaceOnUse" xlink:href="#linearGradient17780-7-9-9-6-9-1"/>
  <linearGradient id="linearGradient34213-5" x1="27.086" x2="26.953" y1="1006.2" y2="829.15" gradientTransform="matrix(1.4626 0 0 1.493 222.36 -400.18)" gradientUnits="userSpaceOnUse" xlink:href="#linearGradient17780-7-9-9-6-9-1"/>
  <pattern id="pattern34184-5" patternTransform="matrix(.0708 -.067599 12.142 12.717 -559.49 1124.6)" xlink:href="#pattern28308-1"/>
  <pattern id="pattern28308-1" patternTransform="matrix(.047422 -.045278 8.1327 8.5178 -48.185 1053.2)" xlink:href="#pattern28057-7"/>
  <pattern id="pattern28057-7" patternTransform="matrix(.047422 -.045278 8.1327 8.5178 -49.563 1006.3)" xlink:href="#pattern6597-1"/>
  <pattern id="pattern6597-1" patternTransform="matrix(.047422 -.045278 8.1327 8.5178 -765.8 1013)" xlink:href="#pattern5942-3-1"/>
  <pattern id="pattern5942-3-1" patternTransform="matrix(.047422 -.045278 8.1327 8.5178 -751.8 1013)" xlink:href="#pattern5787-1-5"/>
  <pattern id="pattern5787-1-5" patternTransform="matrix(.047422 -.045278 8.1327 8.5178 -49.563 1006.3)" xlink:href="#pattern9529-8-1-2"/>
  <pattern id="pattern9529-8-1-2" patternTransform="matrix(.047373 -.045374 8.1418 8.5012 -48.49 1006.4)" xlink:href="#pattern9496-6-9-7"/>
  <pattern id="pattern9496-6-9-7" patternTransform="matrix(.047355 -.045348 8.1452 8.5058 396.14 -51.594)" xlink:href="#pattern9487-6-9-6"/>
  <pattern id="pattern9487-6-9-6" patternTransform="matrix(.056516 -.039102 6.9938 10.109 354.71 164.31)" xlink:href="#Strips1_64-2-5-1"/>
  <pattern id="Strips1_64-2-5-1" width="65" height="1" patternTransform="translate(0) scale(10)" patternUnits="userSpaceOnUse">
   <rect y="-.5" width="1" height="2"/>
  </pattern>
  <linearGradient id="linearGradient4999" x1="24.288" x2="22.322" y1="918.57" y2="1189.3" gradientTransform="matrix(1.493 0 0 1.493 234.1 -441.74)" gradientUnits="userSpaceOnUse">
   <stop stop-color="#fff" offset="0"/>
   <stop stop-color="#00385e" offset="1"/>
  </linearGradient>
 </defs>
 <metadata>
  <rdf:RDF>
   <cc:Work rdf:about="">
    <dc:format>image/svg+xml</dc:format>
    <dc:type rdf:resource="http://purl.org/dc/dcmitype/StillImage"/>
    <dc:title>Abbildung für OPEN MIND Softwaredokumentation</dc:title>
    <dc:creator>
     <cc:Agent>
      <dc:title>OPEN MIND Technologies AG</dc:title>
     </cc:Agent>
    </dc:creator>
    <dc:rights>
     <cc:Agent>
      <dc:title>Alle Rechte vorbehalten.</dc:title>
     </cc:Agent>
    </dc:rights>
    <dc:publisher>
     <cc:Agent>
      <dc:title>Technische Redaktion</dc:title>
     </cc:Agent>
    </dc:publisher>
   </cc:Work>
  </rdf:RDF>
 </metadata>
 <g transform="translate(0 -857.95)">
  <path d="m175.82 1037.9 14.814 14h17.612v-124.05h-18.013l-14.413 13.651v0l-0.3985 54.4h-79.269l-58.881-68.208-19.986 0.20621v143.61h26.421l52.845-54.801h79.269z" fill="url(#linearGradient34187)" fill-rule="evenodd" stroke="#4d4d4d" stroke-linecap="round" stroke-linejoin="round" stroke-miterlimit="5" stroke-width=".67654"/>
  <path d="m17.931 928.46 19.672-0.44286 58.958 68.261 79.383-0.0149 0.56573-54.287 14.233-13.639 17.99-0.056-0.0578 124.25-17.084-0.036-15.082-13.978-0.0945-21.484-79.271 0.2198-52.998 54.615-26.366 0.068z" fill="url(#pattern34184)" opacity=".5"/>
  <path d="m36.925 912.99v8.0034l61.404 70.783 73.003-0.18851 0.37705-51.831 16.697-14.782-0.18851-11.401" fill="none" stroke="#d4aa00" stroke-linecap="round" stroke-linejoin="round" stroke-miterlimit="10" stroke-width="3.174"/>
  <g>
   <polyline transform="matrix(2.8637 0 0 2.8572 -205.63 872.07)" points="87.23 41.839 91.62 46.442 91.62 43.445 100.64 43.445 100.64 40.234 91.62 40.234 91.62 37.344 87.23 41.839" fill="#d4aa00" stroke="#000" stroke-linecap="square" stroke-miterlimit="10" stroke-width=".33104"/>
   <g fill-rule="evenodd" stroke="#4d4d4d" stroke-linecap="round" stroke-linejoin="round" stroke-miterlimit="5" stroke-width=".67654">
    <path d="m17.239 1104.7v-34.001h27.193v34.001" fill="url(#linearGradient34213)"/>
    <path d="m96.321 1104.7v-88.872h79.625v88.872" fill="url(#linearGradient34210)"/>
    <path d="m175.97 1104.7v-67.559l15.02 14.165v53.394" fill="url(#linearGradient34207)"/>
    <path d="m191.02 1104.7v-53.472h17.18v53.472" fill="url(#linearGradient34204)"/>
    <path d="m43.813 1104.7v-34.001l52.483-54.503v88.504" fill="url(#linearGradient34201)"/>
   </g>
  </g>
  <line x1="207.45" x2="17.431" y1="1104.7" y2="1104.7" fill="#34679b" stroke="#4d4d4d" stroke-dasharray="8.01975, 4.00988, 2.00494, 4.00988" stroke-linecap="round" stroke-linejoin="round" stroke-width="2.0049"/>
  <path d="m406.86 1038.4 14.814 14h17.612v-124.05h-18.013l-14.413 13.651v0l-0.39851 54.4h-79.269l-58.881-68.208-19.986 0.20621v143.61h26.421l52.845-54.801h79.269z" fill="url(#linearGradient4999)" fill-rule="evenodd" stroke="#4d4d4d" stroke-linecap="round" stroke-linejoin="round" stroke-miterlimit="5" stroke-width=".67654"/>
  <path d="m248.97 928.88 19.672-0.44286 58.958 68.261 79.383-0.0149 0.56572-54.287 14.233-13.639 17.99-0.056-0.0578 124.25-17.084-0.036-15.082-13.978-0.0945-21.484-79.271 0.2198-52.998 54.615-26.366 0.068z" fill="url(#pattern34184-5)" opacity=".5"/>
  <path d="m267.96 913.42v8.0035l61.404 70.783 73.003-0.18851 0.37705-51.831 16.697-14.782-0.18851-11.401" fill="none" stroke="#d4aa00" stroke-linecap="round" stroke-linejoin="round" stroke-miterlimit="10" stroke-width="3.174"/>
  <g>
   <polyline transform="matrix(-2.8637 0 0 -2.8572 563.42 1111.9)" points="87.23 41.839 91.62 46.442 91.62 43.445 100.64 43.445 100.64 40.234 91.62 40.234 91.62 37.344 87.23 41.839" fill="#d4aa00" stroke="#000" stroke-linecap="square" stroke-miterlimit="10" stroke-width=".33104"/>
   <g fill-rule="evenodd" stroke="#4d4d4d" stroke-linecap="round" stroke-linejoin="round" stroke-miterlimit="5" stroke-width=".67654">
    <path d="m248.28 1105.1v-34.001h27.193v34.001" fill="url(#linearGradient34213-5)"/>
    <path d="m327.36 1105.1v-88.872h79.625v88.872" fill="url(#linearGradient34210-8)"/>
    <path d="m407.01 1105.1v-67.559l15.02 14.165v53.394" fill="url(#linearGradient34207-8)"/>
    <path d="m422.06 1105.1v-53.472h17.18v53.472" fill="url(#linearGradient34204-9)"/>
    <path d="m274.85 1105.1v-34.001l52.483-54.503v88.504" fill="url(#linearGradient34201-1)"/>
   </g>
  </g>
  <line x1="438.49" x2="248.47" y1="1105.2" y2="1105.2" fill="#34679b" stroke="#4d4d4d" stroke-dasharray="8.01975, 4.00988, 2.00494, 4.00988" stroke-linecap="round" stroke-linejoin="round" stroke-width="2.0049"/>
  <g transform="translate(170.02 981.5)">
   <ellipse cx="-44.92" cy="-98.798" rx="13.199" ry="13.469" fill="#1f638a" stroke-linecap="round" stroke-linejoin="round" stroke-width="1.0658"/>
   <text x="-50.761276" y="-91.125885" fill="#000000" font-family="'Arial Nova', 'Arial Unicode MS', 'Yu Gothic UI', sans-serif" font-size="12.8px" letter-spacing="0px" stroke-width="1.0667" word-spacing="0px" style="line-height:0%" xml:space="preserve"><tspan x="-50.761276" y="-91.125885" fill="#ffffff" font-family="'Arial Nova', 'Arial Unicode MS', 'Yu Gothic UI', sans-serif" font-size="21.333px" stroke="#ffffff" stroke-width="1.0667" style="line-height:1.25">1</tspan></text>
  </g>
  <g transform="translate(374.22 981.5)">
   <ellipse cx="-13.718" cy="-98.798" rx="13.199" ry="13.469" fill="#1f638a" stroke-linecap="round" stroke-linejoin="round" stroke-width="1.0658"/>
   <text x="-19.559933" y="-91.125885" fill="#000000" font-family="'Arial Nova', 'Arial Unicode MS', 'Yu Gothic UI', sans-serif" font-size="12.8px" letter-spacing="0px" stroke-width="1.0667" word-spacing="0px" style="line-height:0%" xml:space="preserve"><tspan x="-19.559933" y="-91.125885" fill="#ffffff" font-family="'Arial Nova', 'Arial Unicode MS', 'Yu Gothic UI', sans-serif" font-size="21.333px" stroke="#ffffff" stroke-width="1.0667" style="line-height:1.25">2</tspan></text>
  </g>
 </g>
</svg>
