<svg version="1.1" viewBox="0 0 637.8 265.75" xmlns="http://www.w3.org/2000/svg" xmlns:xlink="http://www.w3.org/1999/xlink">
 <title>Abbildung für OPEN MIND Softwaredokumentation</title>
 <g transform="translate(0 -786.61)">
  <path transform="matrix(1.3554 0 0 1.3918 2.1812 801.33)" d="m238.11 108.27 92.595 52.333 108.48-61.649 2.916-2.916-91.743-50.907z" clip-rule="evenodd" fill="#7c99ac" fill-rule="evenodd" stroke="#4d4d4d" stroke-width=".25"/>
  <path transform="matrix(1.3554 0 0 1.3918 2.1812 801.33)" d="m16.646 114.39 88.82 49.936 109.38-61.264-87.086-49.687z" clip-rule="evenodd" fill="#7c99ac" fill-rule="evenodd" stroke="#4d4d4d" stroke-width=".25"/>
  <g fill="none">
   <path d="m320.92 944.41c1e-3 10.358 4.9784 12.572 15.3 6.9842l148.73-87.462c9.5665-4.7684 20.504 8.013 12.484 12.493l-151.3 90.341c-9.2196 4.4065 1.6729 14.862 10.915 10.582l155.25-94.82c6.8937-4.4789 19.016 3.4667 9.729 9.6784l-147.79 89.331c-9.4306 5.3014 0.3316 12.096 5.4698 8.2033l156.39-93.882c8.3006-4.9145 15.961 0.76133 7.0967 6.5402l-150.63 89.356c-7.6174 5.4074-2.5658 11.284 6.6504 5.9612l156.65-91.742c8.5825-5.9222 15.052 2.6724 8.2984 7.008l-153.41 89.896c-9.0928 7.3498 1.4786 12.113 9.9626 7.3601l155.06-91.463c9.5679-6.2145 20.738 2.7461 11.873 8.6697l-151.72 90.641c-8.3087 5.559 1.4801 13.054 11.398 8.3816l149.48-85.308c7.2867-5.7134 11.201-14.028 11.257-23.551" stroke="#ffdd00" stroke-width="3.4337"/>
   <g stroke="#e2001a" stroke-linecap="round" stroke-linejoin="round" stroke-width="3.4335">
    <line x1="320.95" x2="320.95" y1="910.78" y2="945.43"/>
    <line x1="608.07" x2="608.07" y1="884.55" y2="918.12"/>
    <line x1="181.24" x2="181.24" y1="860.47" y2="822.87"/>
   </g>
   <path d="m300.63 928.37c-1.2388 7.2514-4.9188 13.541-10.79 18.144l-149.48 85.309c-9.9176 4.6695-19.706-2.8241-11.398-8.383l148.7-85.692c10.107-6.5833 2.9833-19.307-13.743-9.129l-148.75 89.473c-8.6204 4.4344-21.955-5.5896-12.082-11.118l148.44-85.035c7.4331-5.4086 2.4777-16.222-13.629-7.9529l-149.71 86.429c-10.574 6.003-19.03-1.8344-9.4283-8.234l146.39-88.683c8.8644-5.7775-0.56386-13.726-8.8644-8.813l-159.16 90.579c-7.8845 5.79-18.004-3.7482-9.0054-9.971l149.35-84.912c9.2873-6.2117-0.5625-13.147-7.4562-8.6683l-158.07 89.391c-9.2426 4.2785-18.367-4.4093-9.1477-8.8158l152.56-86.672c3.5783-1.8177 5.7402-7.7385 5.8852-12.475v-2.6653" stroke="#ffdd00" stroke-width="3.4337"/>
   <path d="m301.09 922.96c-0.0108 1.8511-0.16671 3.6563-0.46626 5.4058" stroke="#e2001a" stroke-width="3.4337"/>
   <line x1="301.09" x2="301.09" y1="889.9" y2="923.47" stroke="#e2001a" stroke-linecap="round" stroke-linejoin="round" stroke-width="3.4335"/>
  </g>
  <g transform="translate(175.65 921.16)">
   <ellipse cx="-44.92" cy="-98.798" rx="13.199" ry="13.469" d="m -31.720282,-98.79776 c 0,7.438558 -5.90954,13.4687 -13.199327,13.4687 -7.289787,0 -13.199328,-6.030142 -13.199328,-13.4687 0,-7.43856 5.909541,-13.4687 13.199328,-13.4687 7.289787,0 13.199327,6.03014 13.199327,13.4687 z" fill="#1f638a" stroke-linecap="round" stroke-linejoin="round" stroke-width="1.0658"/>
   <text x="-50.761276" y="-91.125885" fill="#000000" letter-spacing="0px" word-spacing="0px" style="line-height:0%" xml:space="preserve"><tspan x="-50.761276" y="-91.125885" fill="#ffffff" font-family="'Arial Nova', 'Arial Unicode MS', 'Yu Gothic UI', sans-serif" font-size="20px" stroke="#ffffff" stroke-width="1.0667" style="line-height:1.25">1</tspan></text>
  </g>
  <g transform="translate(462.27 922.59)">
   <ellipse cx="-13.718" cy="-98.798" rx="13.199" ry="13.469" d="m -0.51893806,-98.79776 c 0,7.438558 -5.90954024,13.4687 -13.19932794,13.4687 -7.289787,0 -13.199327,-6.030142 -13.199327,-13.4687 0,-7.43856 5.90954,-13.4687 13.199327,-13.4687 7.2897877,0 13.19932794,6.03014 13.19932794,13.4687 z" fill="#1f638a" stroke-linecap="round" stroke-linejoin="round" stroke-width="1.0658"/>
   <text x="-19.559933" y="-91.125885" fill="#000000" letter-spacing="0px" word-spacing="0px" style="line-height:0%" xml:space="preserve"><tspan x="-19.559933" y="-91.125885" fill="#ffffff" font-family="'Arial Nova', 'Arial Unicode MS', 'Yu Gothic UI', sans-serif" font-size="20px" stroke="#ffffff" stroke-width="1.0667" style="line-height:1.25">2</tspan></text>
  </g>
 </g>
</svg>
