<?xml version="1.0" encoding="UTF-8"?>
<svg width="18cm" height="5cm" version="1.1" xmlns="http://www.w3.org/2000/svg" xmlns:cc="http://creativecommons.org/ns#" xmlns:dc="http://purl.org/dc/elements/1.1/" xmlns:rdf="http://www.w3.org/1999/02/22-rdf-syntax-ns#" xmlns:xlink="http://www.w3.org/1999/xlink">
 <title>Abbildung für OPEN MIND Softwaredokumentation</title>
 <defs>
  <linearGradient id="linearGradient8278-9">
   <stop stop-color="#00385e" offset="0"/>
   <stop stop-color="#1f5072" offset=".043817"/>
   <stop stop-color="#3f6986" offset=".097059"/>
   <stop stop-color="#5f829a" offset=".14568"/>
   <stop stop-color="#fff" offset=".5"/>
   <stop stop-color="#5f829a" offset=".87372"/>
   <stop stop-color="#3f6986" offset=".91753"/>
   <stop stop-color="#1f5072" offset=".96833"/>
   <stop stop-color="#00385e" offset="1"/>
  </linearGradient>
  <linearGradient id="linearGradient4785" x1="104.58" x2="122.65" y1="21.239" y2="21.239" gradientUnits="userSpaceOnUse">
   <stop stop-color="#F29400" offset="0"/>
   <stop stop-color="#fff" offset=".3077"/>
   <stop stop-color="#E5D2B5" offset=".3497"/>
   <stop stop-color="#D0AD76" offset=".3898"/>
   <stop stop-color="#BE8F45" offset=".426"/>
   <stop stop-color="#B27A21" offset=".4576"/>
   <stop stop-color="#AB6D0C" offset=".4833"/>
   <stop stop-color="#A86804" offset=".5"/>
   <stop stop-color="#FABB00" offset=".8736"/>
   <stop stop-color="#FABB00" offset="1"/>
  </linearGradient>
  <linearGradient id="linearGradient5912" x1="546.54" x2="548.86" y1="906.54" y2="1085.5" gradientTransform="matrix(1.0667 0 0 1.0667 1.5238 39.619)" gradientUnits="userSpaceOnUse">
   <stop stop-color="#00385e" offset="0"/>
   <stop stop-color="#1f5072" offset=".043817"/>
   <stop stop-color="#3f6986" offset=".097059"/>
   <stop stop-color="#5f829a" offset=".14568"/>
   <stop stop-color="#fff" offset=".5"/>
   <stop stop-color="#5f829a" offset=".87372"/>
   <stop stop-color="#3f6986" offset=".91753"/>
   <stop stop-color="#1f5072" offset=".96833"/>
   <stop stop-color="#fff" offset="1"/>
  </linearGradient>
  <linearGradient id="linearGradient5915" x1="402.65" x2="404.27" y1="906.54" y2="1084.4" gradientTransform="matrix(1.0667 0 0 1.0667 1.5238 39.619)" gradientUnits="userSpaceOnUse" xlink:href="#linearGradient8278-9"/>
  <linearGradient id="linearGradient5917" x1="252.7" x2="252.17" y1="910.68" y2="1081" gradientTransform="matrix(1.0667 0 0 1.0667 1.5238 39.619)" gradientUnits="userSpaceOnUse" xlink:href="#linearGradient8278-9"/>
  <linearGradient id="linearGradient5919" x1="92.591" x2="90.99" y1="909.97" y2="1082.1" gradientTransform="matrix(1.0667 0 0 1.0667 1.5238 39.619)" gradientUnits="userSpaceOnUse" xlink:href="#linearGradient8278-9"/>
  <linearGradient id="linearGradient21072" x1="30.444" x2="47.627" y1="16.455" y2="16.455" gradientTransform="matrix(1.7538 0 0 1.6522 3.042 971.51)" gradientUnits="userSpaceOnUse">
   <stop stop-color="#fff" offset="0"/>
   <stop stop-color="#FCFCFC" offset=".65994"/>
   <stop stop-color="#F4F4F4" offset=".69781"/>
   <stop stop-color="#E6E6E6" offset=".73647"/>
   <stop stop-color="#D1D1D1" offset=".78"/>
   <stop stop-color="#B7B7B7" offset=".8194"/>
   <stop stop-color="#979797" offset=".86154"/>
   <stop stop-color="#707070" offset=".89898"/>
   <stop stop-color="#444" offset=".93699"/>
   <stop stop-color="#121212" offset=".9761"/>
   <stop offset="1"/>
  </linearGradient>
  <linearGradient id="linearGradient21262" x1="30.444" x2="47.627" y1="16.455" y2="16.455" gradientTransform="matrix(1.7538 0 0 1.6522 -183.21 907.01)" gradientUnits="userSpaceOnUse">
   <stop stop-color="#fff" offset="0"/>
   <stop stop-color="#FCFCFC" offset=".50452"/>
   <stop stop-color="#F4F4F4" offset=".69444"/>
   <stop stop-color="#E6E6E6" offset=".7468"/>
   <stop stop-color="#D1D1D1" offset=".78615"/>
   <stop stop-color="#B7B7B7" offset=".8327"/>
   <stop stop-color="#979797" offset=".87622"/>
   <stop stop-color="#707070" offset=".91503"/>
   <stop stop-color="#444" offset=".94679"/>
   <stop stop-color="#121212" offset=".9761"/>
   <stop offset="1"/>
  </linearGradient>
  <linearGradient id="linearGradient21312" x1="30.444" x2="47.627" y1="16.455" y2="16.455" gradientTransform="matrix(1.7362 .24827 -.23388 1.6356 476.73 909.5)" gradientUnits="userSpaceOnUse">
   <stop stop-color="#fff" offset="0"/>
   <stop stop-color="#FCFCFC" offset=".69825"/>
   <stop stop-color="#F4F4F4" offset=".75481"/>
   <stop stop-color="#E6E6E6" offset=".79009"/>
   <stop stop-color="#D1D1D1" offset=".82313"/>
   <stop stop-color="#B7B7B7" offset=".85862"/>
   <stop stop-color="#979797" offset=".89202"/>
   <stop stop-color="#707070" offset=".9204"/>
   <stop stop-color="#444" offset=".95058"/>
   <stop stop-color="#121212" offset=".9761"/>
   <stop offset="1"/>
  </linearGradient>
  <pattern id="pattern26175" patternTransform="matrix(.050583 -.048297 8.6749 9.0856 525.66 941.71)" xlink:href="#pattern9529"/>
  <pattern id="pattern9529" patternTransform="matrix(.047355 -.045348 8.1452 8.5058 491.3 -47.923)" xlink:href="#pattern9496"/>
  <pattern id="pattern9496" patternTransform="matrix(.047355 -.045348 8.1452 8.5058 396.14 -51.594)" xlink:href="#pattern9487"/>
  <pattern id="pattern9487" patternTransform="matrix(.056516 -.039102 6.9938 10.109 354.71 164.31)" xlink:href="#Strips1_64"/>
  <pattern id="Strips1_64" width="65" height="1" patternTransform="translate(0) scale(10)" patternUnits="userSpaceOnUse">
   <rect y="-.5" width="1" height="2"/>
  </pattern>
  <pattern id="pattern26214" patternTransform="matrix(.050583 -.048297 8.6749 9.0856 525.66 941.71)" xlink:href="#pattern26175-0"/>
  <pattern id="pattern26175-0" patternTransform="matrix(.047355 -.045348 8.1452 8.5058 492.62 844.99)" xlink:href="#pattern9529-8"/>
  <pattern id="pattern9529-8" patternTransform="matrix(.047355 -.045348 8.1452 8.5058 491.3 -47.923)" xlink:href="#pattern9496-9"/>
  <pattern id="pattern9496-9" patternTransform="matrix(.047355 -.045348 8.1452 8.5058 396.14 -51.594)" xlink:href="#pattern9487-2"/>
  <pattern id="pattern9487-2" patternTransform="matrix(.056516 -.039102 6.9938 10.109 354.71 164.31)" xlink:href="#Strips1_64-8"/>
  <pattern id="Strips1_64-8" width="65" height="1" patternTransform="translate(0) scale(10)" patternUnits="userSpaceOnUse">
   <rect y="-.5" width="1" height="2"/>
  </pattern>
  <pattern id="pattern26254" patternTransform="matrix(.050583 -.048297 8.6749 9.0856 525.66 941.71)" xlink:href="#pattern26175-5"/>
  <pattern id="pattern26175-5" patternTransform="matrix(.047422 -.045278 8.1327 8.5178 491.37 845.71)" xlink:href="#pattern9529-5"/>
  <pattern id="pattern9529-5" patternTransform="matrix(.047355 -.045348 8.1452 8.5058 491.3 -47.923)" xlink:href="#pattern9496-2"/>
  <pattern id="pattern9496-2" patternTransform="matrix(.047355 -.045348 8.1452 8.5058 396.14 -51.594)" xlink:href="#pattern9487-7"/>
  <pattern id="pattern9487-7" patternTransform="matrix(.056516 -.039102 6.9938 10.109 354.71 164.31)" xlink:href="#Strips1_64-6"/>
  <pattern id="Strips1_64-6" width="65" height="1" patternTransform="translate(0) scale(10)" patternUnits="userSpaceOnUse">
   <rect y="-.5" width="1" height="2"/>
  </pattern>
  <pattern id="pattern26254-7" patternTransform="matrix(.050583 -.048297 8.6749 9.0856 525.66 941.71)" xlink:href="#pattern26175-8"/>
  <pattern id="pattern26175-8" patternTransform="matrix(.047422 -.045278 8.1327 8.5178 491.37 845.71)" xlink:href="#pattern9529-1"/>
  <pattern id="pattern9529-1" patternTransform="matrix(.047355 -.045348 8.1452 8.5058 491.3 -47.923)" xlink:href="#pattern9496-6"/>
  <pattern id="pattern9496-6" patternTransform="matrix(.047355 -.045348 8.1452 8.5058 396.14 -51.594)" xlink:href="#pattern9487-0"/>
  <pattern id="pattern9487-0" patternTransform="matrix(.056516 -.039102 6.9938 10.109 354.71 164.31)" xlink:href="#Strips1_64-9"/>
  <pattern id="Strips1_64-9" width="65" height="1" patternTransform="translate(0) scale(10)" patternUnits="userSpaceOnUse">
   <rect y="-.5" width="1" height="2"/>
  </pattern>
  <pattern id="pattern26316" patternTransform="matrix(.050583 -.048297 8.6749 9.0856 525.66 941.71)" xlink:href="#pattern26254-0"/>
  <pattern id="pattern26254-0" patternTransform="matrix(.047422 -.045278 8.1327 8.5178 491.37 845.71)" xlink:href="#pattern26175-5-0"/>
  <pattern id="pattern26175-5-0" patternTransform="matrix(.047422 -.045278 8.1327 8.5178 491.37 845.71)" xlink:href="#pattern9529-5-0"/>
  <pattern id="pattern9529-5-0" patternTransform="matrix(.047355 -.045348 8.1452 8.5058 491.3 -47.923)" xlink:href="#pattern9496-2-7"/>
  <pattern id="pattern9496-2-7" patternTransform="matrix(.047355 -.045348 8.1452 8.5058 396.14 -51.594)" xlink:href="#pattern9487-7-2"/>
  <pattern id="pattern9487-7-2" patternTransform="matrix(.056516 -.039102 6.9938 10.109 354.71 164.31)" xlink:href="#Strips1_64-6-5"/>
  <pattern id="Strips1_64-6-5" width="65" height="1" patternTransform="translate(0) scale(10)" patternUnits="userSpaceOnUse">
   <rect y="-.5" width="1" height="2"/>
  </pattern>
  <pattern id="pattern26316-1" patternTransform="matrix(.050583 -.048297 8.6749 9.0856 525.66 941.71)" xlink:href="#pattern26254-4"/>
  <pattern id="pattern26254-4" patternTransform="matrix(.047422 -.045278 8.1327 8.5178 491.37 845.71)" xlink:href="#pattern26175-5-8"/>
  <pattern id="pattern26175-5-8" patternTransform="matrix(.047422 -.045278 8.1327 8.5178 491.37 845.71)" xlink:href="#pattern9529-5-6"/>
  <pattern id="pattern9529-5-6" patternTransform="matrix(.047355 -.045348 8.1452 8.5058 491.3 -47.923)" xlink:href="#pattern9496-2-4"/>
  <pattern id="pattern9496-2-4" patternTransform="matrix(.047355 -.045348 8.1452 8.5058 396.14 -51.594)" xlink:href="#pattern9487-7-6"/>
  <pattern id="pattern9487-7-6" patternTransform="matrix(.056516 -.039102 6.9938 10.109 354.71 164.31)" xlink:href="#Strips1_64-6-8"/>
  <pattern id="Strips1_64-6-8" width="65" height="1" patternTransform="translate(0) scale(10)" patternUnits="userSpaceOnUse">
   <rect y="-.5" width="1" height="2"/>
  </pattern>
  <pattern id="pattern26316-3" patternTransform="matrix(.050583 -.048297 8.6749 9.0856 525.66 941.71)" xlink:href="#pattern26254-5"/>
  <pattern id="pattern26254-5" patternTransform="matrix(.047422 -.045278 8.1327 8.5178 491.37 845.71)" xlink:href="#pattern26175-5-5"/>
  <pattern id="pattern26175-5-5" patternTransform="matrix(.047422 -.045278 8.1327 8.5178 491.37 845.71)" xlink:href="#pattern9529-5-1"/>
  <pattern id="pattern9529-5-1" patternTransform="matrix(.047355 -.045348 8.1452 8.5058 491.3 -47.923)" xlink:href="#pattern9496-2-5"/>
  <pattern id="pattern9496-2-5" patternTransform="matrix(.047355 -.045348 8.1452 8.5058 396.14 -51.594)" xlink:href="#pattern9487-7-5"/>
  <pattern id="pattern9487-7-5" patternTransform="matrix(.056516 -.039102 6.9938 10.109 354.71 164.31)" xlink:href="#Strips1_64-6-84"/>
  <pattern id="Strips1_64-6-84" width="65" height="1" patternTransform="translate(0) scale(10)" patternUnits="userSpaceOnUse">
   <rect y="-.5" width="1" height="2"/>
  </pattern>
 </defs>
 <metadata>
  <rdf:RDF>
   <cc:Work rdf:about="">
    <dc:format>image/svg+xml</dc:format>
    <dc:type rdf:resource="http://purl.org/dc/dcmitype/StillImage"/>
    <dc:title>Abbildung für OPEN MIND Softwaredokumentation</dc:title>
    <dc:creator>
     <cc:Agent>
      <dc:title>OPEN MIND Technologies AG</dc:title>
     </cc:Agent>
    </dc:creator>
    <dc:rights>
     <cc:Agent>
      <dc:title>Alle Rechte vorbehalten.</dc:title>
     </cc:Agent>
    </dc:rights>
    <dc:publisher>
     <cc:Agent>
      <dc:title>Technische Redaktion</dc:title>
     </cc:Agent>
    </dc:publisher>
   </cc:Work>
  </rdf:RDF>
 </metadata>
 <g transform="translate(0 -933.54)">
  <polygon transform="matrix(1.9325 0 0 1.9325 -1.1642 970.14)" points="311.63 50.322 310.45 47.128 290.37 44.755 290.28 49.775" clip-rule="evenodd" fill="#e2001a" fill-rule="evenodd" stroke="#e2001a" stroke-miterlimit="10" stroke-width=".25"/>
  <path d="m599.41 1037h63.46v24.089h-66.965z" fill="#b3b3b3" fill-rule="evenodd" stroke="#9d9d9d" stroke-linecap="round" stroke-linejoin="round" stroke-width="1.4324"/>
  <g clip-rule="evenodd" fill-rule="evenodd">
   <polygon transform="matrix(1.9325 0 0 1.9214 -4.2118 971.67)" points="116.86 52.045 100.28 52.045 102.7 20.631 109.36 20.646 109.36 34.181 116.86 34.181" fill="#b3b3b3" stroke="#9d9d9d" stroke-linecap="round" stroke-linejoin="round" stroke-width=".74339"/>
   <rect x="363.91" y="1052.6" width="16.988" height="24.666" fill="#4d4d4d" stroke-width="1.0667"/>
   <rect x="416.49" y="1037.1" width="82.348" height="37.652" fill="#b3b3b3" stroke="#9d9d9d" stroke-linecap="round" stroke-linejoin="round" stroke-width="1.4324"/>
  </g>
  <path d="m86.072 973.99c-5.0298 3.996-9.1975 3.3382-14.568 0-4.4943-2.7935-10.241-6.6157-14.568 0v49.415h29.136v-49.415" fill="#fff" stroke="#000" stroke-linecap="round" stroke-linejoin="round" stroke-miterlimit="10" stroke-width="1.0998"/>
  <path d="m44.136 1037.1 0.01155-25.671-11.754-0.085-0.82583 49.119 22.95 1.1653h116.58v-24.529z" fill="#b3b3b3" fill-rule="evenodd" stroke="#9d9d9d" stroke-width="1.9324"/>
  <rect x="256.53" y="1037.1" width="78.056" height="41.337" clip-rule="evenodd" fill="#b3b3b3" fill-rule="evenodd" stroke="#9d9d9d" stroke-linecap="round" stroke-linejoin="round" stroke-width="1.4324"/>
  <g stroke="#000" stroke-linecap="round" stroke-linejoin="round" stroke-miterlimit="10">
   <path d="m56.935 973.99c5.0298 3.996 9.1975 3.3382 14.568 0 4.4943-2.7935 10.241-6.6157 14.568 0v49.415h-29.136v-49.415" fill="url(#linearGradient21072)" stroke-width="1.0998"/>
   <g>
    <polyline transform="matrix(1.5262 0 0 .22841 42.014 973.65)" points="105.26 1.501 121.88 1.501 121.88 19.721 105.26 19.721 105.26 1.501" fill="#fff" stroke-width="1.8628"/>
    <path d="m88.965 1060.5v-32.411h-34.923v32.411h34.921z" fill="#fd0" stroke-width="1.0998"/>
    <path d="m232.81 1012.1v-34.159h-34.923v34.159z" fill="#fd0" stroke-width="1.0998"/>
   </g>
  </g>
  <line x1="197.89" x2="232.81" y1="1012.1" y2="1012.1" fill="url(#linearGradient4785)" stroke="#4d4d4d" stroke-linecap="square" stroke-miterlimit="10" stroke-width=".48311"/>
  <g stroke="#7d7d7d" stroke-linecap="round" stroke-linejoin="round" stroke-miterlimit="10" stroke-width="1.4324">
   <path d="m171.48 1102.2v-40.554l-116.31-0.015-5.6331-0.5643c-10.599-3.104-16.631-10.919-17.179-21.992v-27.91h-11.829v90.781" fill="url(#linearGradient5919)"/>
   <path d="m334.65 1102.2v-40.554l-116.31-0.015-5.6331-0.5643c-10.6-3.1035-16.633-10.918-17.18-21.991v-27.91h-11.829v90.781" fill="url(#linearGradient5917)"/>
   <path d="m498.78 1102.2v-40.554l-116.31-0.015-5.6312-0.5643c-10.601-3.1035-16.633-10.918-17.179-21.991v-32.162h-11.829v95.032" fill="url(#linearGradient5915)"/>
   <path d="m662.92 1102.2v-40.554l-116.31-0.015-5.6312-0.5643c-10.601-3.1035-16.633-10.918-17.18-21.991v-32.162h-11.829v95.032" fill="url(#linearGradient5912)"/>
  </g>
  <path d="m71.584 973.33-0.16029 49.618" fill="none" stroke="#000" stroke-dasharray="4.3307, 1.08268, 0.541338, 1.08268" stroke-width=".54134"/>
  <g stroke="#13385e" stroke-miterlimit="10">
   <polyline transform="matrix(1.9325 0 0 1.9325 -4.2118 964.69)" points="39.169 22.737 42.641 19.428 40.379 19.428 40.379 2.016 37.958 2.016 37.958 19.428 35.778 19.428 39.169 22.737" fill="#e2001a" stroke-linecap="square" stroke-width=".25"/>
   <g stroke-linecap="round" stroke-linejoin="round">
    <polyline transform="matrix(1.9325 0 0 1.9325 -4.2118 971.09)" points="127 25.137 123.53 28.447 125.79 28.447 125.79 45.859 128.21 45.859 128.21 28.447 130.39 28.447 127 25.137" fill="#34679b" stroke-width=".25"/>
    <polyline transform="matrix(1.9325 0 0 1.9325 -4.2118 971.09)" points="134.23 7.186 137.54 10.657 137.54 8.396 154.95 8.396 154.95 5.974 137.54 5.974 137.54 3.794 134.23 7.186" fill="#34679b" stroke-width=".25"/>
    <polyline transform="matrix(1.9325 0 0 1.9325 -4.2118 971.09)" points="341.43 16.145 338.12 12.673 338.12 14.934 320.71 14.934 320.71 17.356 338.12 17.356 338.12 19.536 341.43 16.145" fill="#e2001a" stroke-width=".25034"/>
    <polyline transform="matrix(1.9325 0 0 1.9325 -4.2118 971.09)" points="131.28 22.997 134.76 19.687 132.5 19.687 132.5 6.898 130.07 6.898 130.07 19.687 127.89 19.687 131.28 22.997" fill="#e2001a" stroke-width=".25"/>
   </g>
  </g>
  <polyline transform="matrix(1.7537 0 0 .22841 -127.66 1023.3)" points="105.26 1.501 121.88 1.501 121.88 19.721 105.26 19.721 105.26 1.501" fill="#fff" stroke="#000" stroke-linecap="round" stroke-linejoin="round" stroke-miterlimit="10" stroke-width="1.7378"/>
  <g transform="translate(497.25 55.845)" stroke="#000">
   <g stroke-linecap="round" stroke-linejoin="round" stroke-miterlimit="10" stroke-width="1.0998">
    <path d="m-100.19 909.49c-5.0298 3.996-9.1974 3.3382-14.568 0-4.4944-2.7935-10.241-6.6157-14.568 0v49.415h29.136v-49.415" fill="#fff"/>
    <path d="m-129.32 909.49c5.0298 3.996 9.1974 3.3382 14.568 0 4.4943-2.7935 10.241-6.6157 14.568 0v49.415h-29.136v-49.415" fill="url(#linearGradient21262)"/>
    <path d="m-97.292 996.03v-32.411h-34.923v32.411h34.921z" fill="#fd0"/>
   </g>
   <path d="m-114.67 908.83-0.16029 49.618" fill="none" stroke-dasharray="4.3307, 1.08268, 0.541338, 1.08268" stroke-width=".54134"/>
   <polyline transform="matrix(1.7537 0 0 .22841 -313.92 958.83)" points="105.26 1.501 121.88 1.501 121.88 19.721 105.26 19.721 105.26 1.501" fill="#fff" stroke-linecap="round" stroke-linejoin="round" stroke-miterlimit="10" stroke-width="1.7378"/>
  </g>
  <path d="m409.7 1000.5-6.3984-6.7094v4.3693c-7.4708 1.3315-14.064-1.1228-18.892-7.0187v5.521c3.7064 5.1268 11.363 7.2216 18.892 6.1761v4.2127l6.3984-6.551" fill="#e2001a" stroke="#13385e" stroke-linecap="round" stroke-linejoin="round" stroke-miterlimit="10" stroke-width=".48311"/>
  <g transform="translate(45.714 51.048)" stroke="#000">
   <g stroke-linecap="round" stroke-linejoin="round" stroke-miterlimit="10" stroke-width="1.0998">
    <path d="m558.57 923.71c-5.5448 3.2438-9.5774 2.0026-14.421-2.0622-4.0537-3.4016-9.2018-7.9988-14.422-2.0622l-6.995 48.917 28.843 4.1245 6.995-48.917" fill="#fff"/>
    <path d="m529.73 919.59c4.4135 4.6678 8.6323 4.6066 14.422 2.0622 4.8445-2.1292 11.075-5.0993 14.421 2.0622l-6.995 48.917-28.843-4.1245 6.995-48.917" fill="url(#linearGradient21312)"/>
    <path d="m549.18 1009.8 4.588-32.085-34.572-4.9436-4.588 32.085 34.57 4.9434z" fill="#fd0"/>
   </g>
   <path d="m544.32 921.01-7.1825 49.096" fill="none" stroke-dasharray="4.3307, 1.08268, 0.541338, 1.08268" stroke-width=".54134"/>
   <polyline transform="matrix(1.7361 .24825 -.032333 .22611 340 942.3)" points="105.26 1.501 121.88 1.501 121.88 19.721 105.26 19.721 105.26 1.501" fill="#fff" stroke-linecap="round" stroke-linejoin="round" stroke-miterlimit="10" stroke-width="1.7378"/>
  </g>
  <path d="m610.29 1000.5-6.3983-6.7094v4.3693c-7.4709 1.3315-14.064-1.1228-18.894-7.0187v5.521c3.7084 5.1268 11.365 7.2216 18.894 6.1761v4.2127l6.3983-6.551" fill="#34679b" stroke="#13385e" stroke-linecap="round" stroke-linejoin="round" stroke-miterlimit="10" stroke-width=".48378"/>
  <g>
   <path d="m89.308 1036.6 81.534 0.067-0.0649 24.606-81.534-0.067z" fill="url(#pattern26175)" opacity=".5"/>
   <path d="m32.074 1011.5 12.117 0.077-0.05808 25.39 8.9438 0.2017-0.0081 23.955c-3.8028 0.4378-20.058-2.9761-21.003-23.003z" fill="url(#pattern26214)" opacity=".5"/>
   <path d="m256.6 1037 77.918 0.067-0.062 24.606-77.918-0.067z" fill="url(#pattern26254)" opacity=".5"/>
   <path d="m195.41 1011.7 12.018 0.062-0.1543 25.215 14.085 0.2018-0.01 24.146c-5.8279 0.6187-25.769 0.4269-25.949-24.336z" fill="url(#pattern26254-7)" opacity=".5"/>
   <path d="m416.5 1036.9 82.105 0.067-0.0653 24.606-82.105-0.067z" fill="url(#pattern26316)" opacity=".5"/>
   <path d="m364.45 1052.9 16.253 0.023-0.0129 8.4589c-8.8269-0.2444-14.357-4.9224-16.24-8.482z" fill="url(#pattern26316-1)" opacity=".5"/>
   <path d="m599.35 1037.2 63.072 0.067-0.0503 24.606-66.882-0.067z" fill="url(#pattern26316-3)" opacity=".5"/>
  </g>
  <g fill="#fff" fill-rule="evenodd" stroke="#4d4d4d" stroke-dasharray="2.70614, 1.35307, 0.676535, 1.35307" stroke-linecap="round" stroke-linejoin="round" stroke-width=".67654">
   <path d="m20.429 1102.3h151.07" color="#000000"/>
   <path d="m184.27 1102.3h151.07" color="#000000"/>
   <path d="m348.08 1102.3h151.07" color="#000000"/>
   <path d="m512.66 1102.3h151.07" color="#000000"/>
  </g>
 </g>
</svg>
