<svg version="1.1" viewBox="0 0 637.8 283.46" xmlns="http://www.w3.org/2000/svg" xmlns:xlink="http://www.w3.org/1999/xlink">
 <title>Abbildung fuer OPEN MIND Softwaredokumentation</title>
 <defs>
  <linearGradient id="linearGradient17780-7">
   <stop stop-color="#ffffff" offset="0"/>
   <stop stop-color="#00385e" offset="1"/>
  </linearGradient>
  <linearGradient id="linearGradient20539" x1="54.983" x2="54.983" y1="34.986" y2="34.986" gradientUnits="userSpaceOnUse">
   <stop stop-color="#FFFFFF" offset="0"/>
   <stop stop-color="#FCFCFC" offset=".2264"/>
   <stop stop-color="#F4F4F4" offset=".3626"/>
   <stop stop-color="#E6E6E6" offset=".475"/>
   <stop stop-color="#D1D1D1" offset=".5744"/>
   <stop stop-color="#B7B7B7" offset=".6652"/>
   <stop stop-color="#979797" offset=".7498"/>
   <stop stop-color="#707070" offset=".8297"/>
   <stop stop-color="#444444" offset=".9057"/>
   <stop stop-color="#121212" offset=".9761"/>
   <stop stop-color="#000000" offset="1"/>
  </linearGradient>
  <linearGradient id="linearGradient13718" x1="107.52" x2="310.16" y1="184.66" y2="340.37" gradientTransform="matrix(1.6147 0 0 1.3714 237.1 -75.941)" gradientUnits="userSpaceOnUse">
   <stop stop-color="#ffffff" offset="0"/>
   <stop stop-color="#00385e" offset="1"/>
  </linearGradient>
  <linearGradient id="linearGradient13756" x1="104.76" x2="120.38" y1="466.35" y2="466.41" gradientTransform="matrix(.72738 0 0 .72738 225.67 554.03)" gradientUnits="userSpaceOnUse" xlink:href="#linearGradient20539"/>
  <linearGradient id="linearGradient13764" x1="104.15" x2="136.5" y1="516.42" y2="516.24" gradientTransform="matrix(.81697 0 0 .81697 258.43 -267.52)" gradientUnits="userSpaceOnUse" xlink:href="#linearGradient20539"/>
  <linearGradient id="linearGradient13843" x1="107.52" x2="310.16" y1="184.66" y2="340.37" gradientTransform="matrix(1.4574 0 0 1.4574 -63.356 -102.56)" gradientUnits="userSpaceOnUse" xlink:href="#linearGradient17780-7"/>
  <linearGradient id="linearGradient13846" x1="56.356" x2="230.09" y1="904.87" y2="1053.8" gradientTransform="matrix(1.4574 0 0 1.4574 -63.356 -1171.5)" gradientUnits="userSpaceOnUse" xlink:href="#linearGradient17780-7"/>
  <linearGradient id="linearGradient13849" x1="56.251" x2="357.75" y1="113.08" y2="363.79" gradientTransform="matrix(1.4574 0 0 1.4574 -63.356 -102.56)" gradientUnits="userSpaceOnUse" xlink:href="#linearGradient17780-7"/>
 </defs>
 <g transform="translate(0 35.433)">
  <path d="m369.68 152.61c0 14.044-11.385 25.428-25.428 25.428s-25.428-11.385-25.428-25.428c0-9.7024 5.434-18.136 13.425-22.422l23.915-0.0493c8.041 4.2712 13.517 12.732 13.517 22.472z" color="#000000" fill="url(#linearGradient13764)" fill-rule="evenodd" opacity=".32323" stroke="#000000" stroke-linecap="round" stroke-linejoin="round" stroke-miterlimit="10" stroke-width="1.0971"/>
  <g transform="matrix(1.1232 0 0 1.1232 4.8443 -890.22)" opacity=".32323" stroke="#000000" stroke-linecap="round" stroke-linejoin="round">
   <path d="m291.42 829.86c3.5531 3.2176 7.0799 3.2685 10.659 0 4.498-4.1071 7.8429-3.0937 10.659 0v78.663h-21.319z" fill="url(#linearGradient13756)" stroke-miterlimit="10" stroke-width=".9768"/>
   <path d="m302.31 829.26c-4.498-4.1071-7.8429-3.0937-10.659 0" fill="none" stroke-miterlimit="10" stroke-width=".9768"/>
   <path d="m302.17 822.87-0.0893 131.18" fill="none" stroke-dasharray="2.83464585, 0.70866146, 0.35433073, 0.70866146" stroke-width=".35433"/>
  </g>
  <path d="m369.02 152.5-50.461 0.1003" fill="none" opacity=".73401" stroke="#000000" stroke-dasharray="3.18382263, 0.79595565, 0.39797783, 0.79595565" stroke-linecap="round" stroke-linejoin="round" stroke-width=".39798"/>
  <path d="m409.33 97.472 212.65-0.11134-0.47559 130.01-211.84-0.04226z" fill="url(#linearGradient13718)" stroke="#4d4d4d" stroke-linecap="round" stroke-linejoin="round" stroke-width=".94384"/>
  <g fill="none" stroke-linecap="round" stroke-linejoin="round" stroke-width="2.5819">
   <path d="m440.28 33.714-95.359-0.79923-0.43117 145.76" stroke="#ff0000"/>
   <path d="m344.19 179.04h28.063" stroke="#d4aa00"/>
   <path d="m440.52 34.003-0.73608 143.48" stroke="#ff0000"/>
  </g>
  <g fill="#000000" stroke="#000000" stroke-linecap="round" stroke-linejoin="round">
   <path d="m374.79 97.966 31.436 0.18398" stroke-width=".92433"/>
   <path d="m372.41 95.999 5.7253-17.176h-11.971z" stroke-width="1.4562"/>
   <path d="m372.36 153.45-5.7253 17.176h11.971z" stroke-width="1.4562"/>
   <path d="m372.49 72.558 0.0704 103.63" stroke-width=".92433"/>
   <path d="m374.93 152.97 18.923 0.18397" stroke-width=".92433"/>
  </g>
  <g transform="matrix(1.4574 0 0 1.4574 -86.142 -1211.1)" fill="#000000" stroke="#000000" stroke-linecap="round" stroke-linejoin="round">
   <path d="m316.25 954.1 11.837 3.77-0.10997-8.2136z" stroke-width=".99921"/>
   <path d="m332.3 954.22-10.487-0.13837" stroke-width=".63425"/>
  </g>
  <g transform="matrix(1.4574 0 0 1.4574 -86.142 -1211.1)" fill="#000000" stroke="#000000" stroke-linecap="round" stroke-linejoin="round">
   <path d="m293.66 954.12-11.737-4.0727-0.10067 8.2137z" stroke-width=".99921"/>
   <path d="m288.55 954.22-10.487-0.13837" stroke-width=".63425"/>
  </g>
  <g fill="#000000" stroke="#000000" stroke-linecap="round" stroke-linejoin="round">
   <path d="m443.09 77.908 31.436 0.18398" stroke-width=".92433"/>
   <path d="m474.34 98.861-5.4942 17.251 11.97-0.16026z" stroke-width="1.4562"/>
   <path d="m474.45 76.876 5.9354-17.105-11.97-0.14671z" stroke-width="1.4562"/>
   <path d="m474.3 122.12 0.20166-67.853" stroke-width=".92433"/>
  </g>
  <g transform="translate(-36)" opacity=".54209" stroke="#000000" stroke-linecap="round" stroke-linejoin="round">
   <path d="m555.15 63.809-3.3463-12.073-3.1573 12.073z" fill="#000000" fill-rule="evenodd" stroke-width=".95696"/>
   <path d="m551.58 96.374 0.0668-37.402" fill="none" stroke-miterlimit="10" stroke-width="1.2861"/>
  </g>
  <text x="522.67194" y="63.667645" fill="#000000" font-family="'Arial Nova', 'Arial Unicode MS', 'Yu Gothic UI', sans-serif" font-size="11.652px" font-weight="bold" opacity=".51" stroke="#000000" stroke-width=".61462" style="line-height:0%">Z</text>
  <text x="530.5484" y="65.875145" fill="#000000" font-family="'Arial Nova', 'Arial Unicode MS', 'Yu Gothic UI', sans-serif" letter-spacing="0px" opacity=".51" word-spacing="0px" style="line-height:0%" xml:space="preserve"><tspan x="530.5484" y="65.875145" font-family="'Arial Nova', 'Arial Unicode MS', 'Yu Gothic UI', sans-serif" font-size="17.488px" style="line-height:1.25">+</tspan></text>
  <path d="m87.539 75.854 6.9927 6.6247" fill="none" stroke="#ffcc00" stroke-linecap="round" stroke-linejoin="round" stroke-width="2.5819"/>
  <path d="m207.56 182.88 6.8964 6.6362" fill="none" stroke="#ffcc00" stroke-linecap="round" stroke-linejoin="round" stroke-width="2.5819"/>
  <g stroke="#4d4d4d" stroke-linecap="round" stroke-linejoin="round" stroke-width=".92433">
   <path d="m19.084 42.73 190.64-27.235 73.976 66.063-189.54 27.419z" fill="url(#linearGradient13849)"/>
   <path d="m19.237 42.942 0.58363 121.89 74.356 62.19-0.16064-118.09z" fill="url(#linearGradient13846)"/>
   <path d="m94.026 108.95 189.52-27.353 0.04086 117.68-189.65 27.645z" fill="url(#linearGradient13843)"/>
  </g>
  <g transform="matrix(.85948 0 0 .85948 -53.291 -809.51)">
   <g fill="none" stroke="#800080" stroke-linecap="round" stroke-linejoin="round" stroke-miterlimit="6" stroke-width="1.3429">
    <path d="m152.25 1106.9-9.6009-8.8896"/>
    <path d="m142.93 1107.3 8.8896-9.6008"/>
    <path d="m147.44 1108 0.177-11.621"/>
   </g>
  </g>
  <g transform="matrix(-.92027 1.13 -1.13 -.92027 1293.1 878.53)" fill="none" stroke="#002aff" stroke-linecap="round" stroke-linejoin="round" stroke-miterlimit="6" stroke-width="1.3429">
   <path d="m143.75 978.11-8.2114-6.8051"/>
   <path d="m135.4 971.11 1.4414 4.3589"/>
   <path d="m135.41 971.13 4.4928 0.55217"/>
  </g>
  <g transform="matrix(.91889 0 0 .91889 -93.289 -900.74)" fill="#30ffa9" stroke="#30cb20" stroke-linecap="round" stroke-linejoin="round" stroke-miterlimit="6" stroke-width="1.3429">
   <path d="m208.85 1103-9.6009-8.8896"/>
   <g transform="translate(-1.7678 -3.5355)">
    <path d="m201.31 1106.9 8.8896-9.6008"/>
    <path d="m205.81 1107.7 0.177-11.621"/>
   </g>
  </g>
  <g transform="matrix(1.4542 -.095967 .095967 1.4542 -59.022 -1311.5)">
   <path d="m48.84 958.14 12.232 2.1706-1.1961-8.1267z" fill="#000000" stroke="#000000" stroke-linecap="round" stroke-linejoin="round" stroke-width=".99921"/>
  </g>
  <g transform="matrix(1.4574 0 0 1.4574 -63.272 -1244.4)">
   <g transform="matrix(.99998 .0062653 -.0062653 .99998 60.36 -50.723)">
    <path d="m32.866 961.08-12.232-2.1706 1.1961 8.1268z" fill="#000000" stroke="#000000" stroke-linecap="round" stroke-linejoin="round" stroke-width=".99921"/>
   </g>
   <path d="m70.698 913.17 9.1145-1.3938" fill="none" stroke="#000000" stroke-linecap="round" stroke-linejoin="round" stroke-width=".63425"/>
  </g>
  <path d="m113 74.395 13.283-2.0313" fill="none" stroke="#000000" stroke-linecap="round" stroke-linejoin="round" stroke-width=".92433"/>
  <g transform="matrix(-.94961 -1.1055 1.1055 -.94961 -790.9 1065.2)">
   <g transform="matrix(.99998 .0062653 -.0062653 .99998 60.36 -50.723)">
    <path d="m32.866 961.08-12.232-2.1706 1.1961 8.1268z" fill="#000000" stroke="#000000" stroke-linecap="round" stroke-linejoin="round" stroke-width=".99921"/>
   </g>
   <path d="m70.698 913.17 9.1145-1.3938" fill="none" stroke="#000000" stroke-linecap="round" stroke-linejoin="round" stroke-width=".63425"/>
  </g>
  <g transform="matrix(.94961 1.1055 -1.1055 .94961 1023.8 -885.19)">
   <g transform="matrix(.99998 .0062653 -.0062653 .99998 60.36 -50.723)">
    <path d="m32.866 961.08-12.232-2.1706 1.1961 8.1268z" fill="#000000" stroke="#000000" stroke-linecap="round" stroke-linejoin="round" stroke-width=".99921"/>
   </g>
   <path d="m70.698 913.17 9.1145-1.3938" fill="none" stroke="#000000" stroke-linecap="round" stroke-linejoin="round" stroke-width=".63425"/>
  </g>
  <path d="m63.779 82.323 38.351-5.5386" fill="none" opacity=".52" stroke="#000000" stroke-dasharray="0.92433198, 0.92433198" stroke-linecap="round" stroke-linejoin="round" stroke-width=".92433"/>
  <g transform="matrix(1.3445 0 0 1.3445 -49.334 -23.759)" opacity=".559" stroke="#000000" stroke-linecap="round" stroke-linejoin="round">
   <path d="m170.86 42.716-2.3505-8.48-2.2178 8.48z" fill="#000000" fill-rule="evenodd" stroke-width=".67218"/>
   <path d="m168.35 65.591 0.0469-26.272" fill="none" stroke-miterlimit="10" stroke-width=".9034"/>
  </g>
  <g transform="matrix(1.4574 0 0 1.4574 -30.917 -75.375)" fill="#000000">
   <text id="SVGID_6_" x="146.27452" y="79.583237" font-family="'Arial Nova', 'Arial Unicode MS', 'Yu Gothic UI', sans-serif" font-size="7.9953px" font-weight="bold" opacity=".51" stroke="#000000" stroke-width=".42174" style="line-height:0%">Z</text>
   <text x="150.79691" y="81.343025" font-family="'Arial Nova', 'Arial Unicode MS', 'Yu Gothic UI', sans-serif" letter-spacing="0px" opacity=".51" word-spacing="0px" style="line-height:0%" xml:space="preserve"><tspan x="150.79691" y="81.343025" font-family="'Arial Nova', 'Arial Unicode MS', 'Yu Gothic UI', sans-serif" font-size="12px" style="line-height:1.25">+</tspan></text>
  </g>
  <g transform="matrix(1.4574 0 0 1.4574 -15.154 -58.375)" fill="#000000">
   <text x="111.55858" y="96.705811" font-family="'Arial Nova', 'Arial Unicode MS', 'Yu Gothic UI', sans-serif" font-size="7.9953px" font-weight="bold" opacity=".51" stroke="#000000" stroke-width=".42174" style="line-height:0%">Y</text>
   <text x="116.08096" y="98.465599" font-family="'Arial Nova', 'Arial Unicode MS', 'Yu Gothic UI', sans-serif" letter-spacing="0px" opacity=".51" word-spacing="0px" style="line-height:0%" xml:space="preserve"><tspan x="116.08096" y="98.465599" font-family="'Arial Nova', 'Arial Unicode MS', 'Yu Gothic UI', sans-serif" font-size="12px" style="line-height:1.25">+</tspan></text>
  </g>
  <g transform="matrix(1.4574 0 0 1.4574 43.494 -57.76)" fill="#000000">
   <text x="111.55858" y="96.705811" font-family="'Arial Nova', 'Arial Unicode MS', 'Yu Gothic UI', sans-serif" font-size="7.9953px" font-weight="bold" opacity=".51" stroke="#000000" stroke-width=".42174" style="line-height:0%">X</text>
   <text x="116.08096" y="98.465599" font-family="'Arial Nova', 'Arial Unicode MS', 'Yu Gothic UI', sans-serif" letter-spacing="0px" opacity=".51" word-spacing="0px" style="line-height:0%" xml:space="preserve"><tspan x="116.08096" y="98.465599" font-family="'Arial Nova', 'Arial Unicode MS', 'Yu Gothic UI', sans-serif" font-size="12px" style="line-height:1.25">+</tspan></text>
  </g>
  <g fill="none" stroke-linecap="round" stroke-linejoin="round">
   <path d="m103.11 77.563 29.054 25.893" opacity=".52" stroke="#000000" stroke-dasharray="0.92433198, 0.92433198" stroke-width=".92433"/>
   <g stroke-width="2.5819">
    <path d="m128.17 180.57-11.324-9.5096" stroke="#ffcc00"/>
    <path d="m129.07 37.941-98.004-10.531 0.15246 141.57" stroke="#ff0000"/>
    <path d="m49.682 166.52-18.402 2.5763" stroke="#ffcc00"/>
   </g>
  </g>
  <path d="m69.215 114.36 23.343-5.2129" color="#000000" fill="#1f638a" fill-rule="evenodd" stroke="#1f638a" stroke-linecap="round" stroke-linejoin="round" stroke-width="2.2807"/>
  <path d="m212.08 49.191-32.875 14.272" color="#000000" fill="#1f638a" fill-rule="evenodd" stroke="#1f638a" stroke-linecap="round" stroke-linejoin="round" stroke-width="1.7716"/>
  <g transform="matrix(-.88673 1.0106 -1.0106 -.88673 392.61 -47.604)" opacity=".559" stroke="#000000" stroke-linecap="round" stroke-linejoin="round">
   <path d="m170.86 42.716-2.3505-8.48-2.2178 8.48z" fill="#000000" fill-rule="evenodd" stroke-width=".67218"/>
   <path d="m168.35 65.591 0.0469-26.272" fill="none" stroke-miterlimit="10" stroke-width=".9034"/>
  </g>
  <g transform="matrix(-.21067 -1.3278 1.3278 -.21067 125.5 301.73)" opacity=".559" stroke="#000000" stroke-linecap="round" stroke-linejoin="round">
   <path d="m170.86 42.716-2.3505-8.48-2.2178 8.48z" fill="#000000" fill-rule="evenodd" stroke-width=".67218"/>
   <path d="m168.35 65.591 0.0469-26.272" fill="none" stroke-miterlimit="10" stroke-width=".9034"/>
  </g>
  <g transform="matrix(-.92598 -1.1254 1.1254 -.92598 -865.48 1126.3)" fill="none" stroke="#002aff" stroke-linecap="round" stroke-linejoin="round" stroke-miterlimit="6" stroke-width="1.3429">
   <path d="m143.75 978.11-8.2114-6.8051"/>
   <path d="m135.4 971.11 1.4414 4.3589"/>
   <path d="m135.41 971.13 4.4928 0.55217"/>
  </g>
  <g transform="matrix(.86892 0 0 .86892 -26.084 -880.36)" fill="none" stroke="#800080" stroke-linecap="round" stroke-linejoin="round" stroke-miterlimit="6" stroke-width="1.3429">
   <path d="m152.25 1106.9-9.6009-8.8896"/>
   <path d="m142.93 1107.3 8.8896-9.6008"/>
   <path d="m147.44 1108 0.177-11.621"/>
  </g>
  <g transform="matrix(.85948 0 0 .85948 -20.052 -803.77)">
   <g fill="none" stroke="#800080" stroke-linecap="round" stroke-linejoin="round" stroke-miterlimit="6" stroke-width="1.3429">
    <path d="m152.25 1106.9-9.6009-8.8896"/>
    <path d="m142.93 1107.3 8.8896-9.6008"/>
    <path d="m147.44 1108 0.177-11.621"/>
   </g>
  </g>
  <g transform="matrix(1.4574 0 0 1.4574 -88.845 -1270.7)" fill="none" stroke="#002aff" stroke-linecap="round" stroke-linejoin="round" stroke-miterlimit="6" stroke-width="1.3429">
   <path d="m143.75 978.11-8.2114-6.8051"/>
   <path d="m135.4 971.11 1.4414 4.3589"/>
   <path d="m135.41 971.13 4.4928 0.55217"/>
  </g>
  <g transform="matrix(.85948 0 0 .85948 313.45 -868.75)">
   <g fill="none" stroke="#800080" stroke-linecap="round" stroke-linejoin="round" stroke-miterlimit="6" stroke-width="1.3429">
    <path d="m152.25 1106.9-9.6009-8.8896"/>
    <path d="m142.93 1107.3 8.8896-9.6008"/>
    <path d="m147.44 1108 0.177-11.621"/>
   </g>
  </g>
  <g transform="matrix(.85948 0 0 .85948 312.94 -795.01)">
   <g fill="none" stroke="#800080" stroke-linecap="round" stroke-linejoin="round" stroke-miterlimit="6" stroke-width="1.3429">
    <path d="m152.25 1106.9-9.6009-8.8896"/>
    <path d="m142.93 1107.3 8.8896-9.6008"/>
    <path d="m147.44 1108 0.177-11.621"/>
   </g>
  </g>
  <g transform="matrix(.85948 0 0 .85948 269.35 -794.52)">
   <g fill="none" stroke="#800080" stroke-linecap="round" stroke-linejoin="round" stroke-miterlimit="6" stroke-width="1.3429">
    <path d="m152.25 1106.9-9.6009-8.8896"/>
    <path d="m142.93 1107.3 8.8896-9.6008"/>
    <path d="m147.44 1108 0.177-11.621"/>
   </g>
  </g>
  <g transform="matrix(.91889 0 0 .91889 221.96 -912.28)" fill="#30ffa9" stroke="#30cb20" stroke-linecap="round" stroke-linejoin="round" stroke-miterlimit="6" stroke-width="1.3429">
   <path d="m208.85 1103-9.6009-8.8896"/>
   <g transform="translate(-1.7678 -3.5355)">
    <path d="m201.31 1106.9 8.8896-9.6008"/>
    <path d="m205.81 1107.7 0.177-11.621"/>
   </g>
  </g>
  <path d="m102.3 58.741-0.0631-44.285 26.455 22.931 0.24861 143.03" fill="none" stroke="#ff0000" stroke-linecap="round" stroke-linejoin="round" stroke-width="2.5819"/>
  <g transform="translate(102.82 215.05)">
   <ellipse cx="-44.92" cy="-98.798" rx="13.199" ry="13.469" fill="#1f638a" stroke-linecap="round" stroke-linejoin="round" stroke-width="1.0658"/>
   <text x="-50.761276" y="-91.125885" fill="#000000" letter-spacing="0px" word-spacing="0px" style="line-height:0%" xml:space="preserve"><tspan x="-50.761276" y="-91.125885" fill="#ffffff" font-family="'Arial Nova', 'Arial Unicode MS', 'Yu Gothic UI', sans-serif" font-size="20px" stroke="#ffffff" stroke-width="1.0667" style="line-height:1.25">1</tspan></text>
  </g>
  <g transform="translate(233.38 143.26)">
   <ellipse cx="-13.718" cy="-98.798" rx="13.199" ry="13.469" fill="#1f638a" stroke-linecap="round" stroke-linejoin="round" stroke-width="1.0658"/>
   <text x="-19.559933" y="-91.125885" fill="#000000" letter-spacing="0px" word-spacing="0px" style="line-height:0%" xml:space="preserve"><tspan x="-19.559933" y="-91.125885" fill="#ffffff" font-family="'Arial Nova', 'Arial Unicode MS', 'Yu Gothic UI', sans-serif" font-size="20px" stroke="#ffffff" stroke-width="1.0667" style="line-height:1.25">2</tspan></text>
  </g>
  <g transform="translate(373.53 225.44)">
   <ellipse cx="17.483" cy="-98.798" rx="13.199" ry="13.469" fill="#1f638a" stroke-linecap="round" stroke-linejoin="round" stroke-width="1.0658"/>
   <text x="11.641406" y="-91.256096" fill="#000000" font-family="'Arial Nova', 'Arial Unicode MS', 'Yu Gothic UI', sans-serif" letter-spacing="0px" word-spacing="0px" style="line-height:0%" xml:space="preserve"><tspan x="11.641406" y="-91.256096" fill="#ffffff" font-family="'Arial Nova', 'Arial Unicode MS', 'Yu Gothic UI', sans-serif" font-size="20px" stroke="#ffffff" stroke-width="1.0667" style="line-height:1.25">3</tspan></text>
  </g>
  <g transform="translate(-339.44 -87.565)">
   <g transform="translate(354.56 247.34)">
    <ellipse cx="48.684" cy="-98.798" rx="13.199" ry="13.469" fill="#1f638a" stroke-linecap="round" stroke-linejoin="round" stroke-width="1.0658"/>
    <text x="42.842751" y="-91.162346" fill="#000000" letter-spacing="0px" word-spacing="0px" style="line-height:0%" xml:space="preserve"><tspan x="42.842751" y="-91.162346" fill="#ffffff" font-family="'Arial Nova', 'Arial Unicode MS', 'Yu Gothic UI', sans-serif" font-size="20px" stroke="#ffffff" stroke-width="1.0667" style="line-height:1.25">4</tspan></text>
   </g>
  </g>
  <g transform="translate(214.12 -95.141)">
   <g transform="translate(197.02 281.84)">
    <ellipse cx="79.886" cy="-98.798" rx="13.199" ry="13.469" fill="#1f638a" stroke-linecap="round" stroke-linejoin="round" stroke-width="1.0658"/>
    <text x="74.04409" y="-91.396721" fill="#000000" letter-spacing="0px" word-spacing="0px" style="line-height:0%" xml:space="preserve"><tspan x="74.04409" y="-91.396721" fill="#ffffff" font-family="'Arial Nova', 'Arial Unicode MS', 'Yu Gothic UI', sans-serif" font-size="20px" stroke="#ffffff" stroke-width="1.0667" style="line-height:1.25">5</tspan></text>
   </g>
  </g>
  <g transform="translate(248.21 298.32)">
   <ellipse cx="111.09" cy="-98.798" rx="13.199" ry="13.469" fill="#1f638a" stroke-linecap="round" stroke-linejoin="round" stroke-width="1.0658"/>
   <text x="105.24544" y="-91.256096" fill="#000000" letter-spacing="0px" word-spacing="0px" style="line-height:0%" xml:space="preserve"><tspan x="105.24544" y="-91.256096" fill="#ffffff" font-family="'Arial Nova', 'Arial Unicode MS', 'Yu Gothic UI', sans-serif" font-size="20px" stroke="#ffffff" stroke-width="1.0667" style="line-height:1.25">6</tspan></text>
  </g>
 </g>
</svg>
