<svg version="1.1" viewBox="0 0 460.63 318.9" xmlns="http://www.w3.org/2000/svg" xmlns:xlink="http://www.w3.org/1999/xlink">
 <title>Abbildung für OPEN MIND Softwaredokumentation</title>
 <defs>
  <linearGradient id="linearGradient17780-7">
   <stop stop-color="#ffffff" offset="0"/>
   <stop stop-color="#00385e" offset="1"/>
  </linearGradient>
  <linearGradient id="linearGradient55542" x1="37.995" x2="289.11" y1="82.013" y2="162.75" gradientTransform="matrix(1.3212 0 0 1.3212 -.41911 753.52)" gradientUnits="userSpaceOnUse" xlink:href="#linearGradient17780-7"/>
  <linearGradient id="linearGradient55545" x1="1.234" x2="127.61" y1="167.99" y2="232.59" gradientTransform="matrix(1.3212 0 0 1.3212 -4.0772 752.81)" gradientUnits="userSpaceOnUse" xlink:href="#linearGradient17780-7"/>
  <linearGradient id="linearGradient55548" x1="125.18" x2="400.15" y1="937.14" y2="1068.5" gradientTransform="translate(-40.26 1.9336)" gradientUnits="userSpaceOnUse" xlink:href="#linearGradient17780-7"/>
 </defs>
 <g transform="translate(0 -733.46)">
  <g stroke="#4d4d4d" stroke-linecap="round" stroke-linejoin="round">
   <path d="m87.417 1035.3 165.23-62.939-0.0211-129.62c-16.442 5.8901-34.177 7.6896-49.141 16.723-19.087 11.519-27.717 37.138-37.123 55.948-9.3557 18.711-20.148 35.884-37.825 48.926-12.358 9.1153-27.84 10.832-41.656 16.747l0.34993 4.3963 0.18517 49.818" clip-rule="evenodd" fill="url(#linearGradient55548)" fill-rule="evenodd" stroke-width=".63425"/>
   <path d="m1.8255 915.54 0.24611 51.336 85.397 68.527s-0.36287-50.424-0.25257-50.525l-85.284-69.432" fill="url(#linearGradient55545)" fill-rule="evenodd" stroke-width=".63425"/>
   <path d="m168.01 774c-19.395 5.828-37.807 11.863-53.648 24.908-15.032 12.377-20.712 30.21-29.24 47.16-7.8403 15.577-16.406 32.838-29.822 44.441-15.472 13.379-34.49 18.474-53.454 24.8l85.409 69.498c19.517-5.865 36.284-11.47 52.266-24.816 14.626-12.21 21.935-29.737 30.78-46.028 9.3214-17.175 15.777-34.798 30.8-47.84 14.139-12.277 33.904-17.333 51.123-23.727l-84.213-68.397" fill="url(#linearGradient55542)" stroke-miterlimit="10" stroke-width=".63425"/>
  </g>
  <g clip-rule="evenodd" fill="none">
   <g stroke="#ffcc00">
    <path d="m120.65 920.94c-0.36202 17.22-38.485 33.552-53.446 35.711-18.149 2.62-7.3223 9.7508 3.3071 7.0832 1.6066-0.40298 3.2212-0.6593 4.6019-1.0913 34.56-10.822 36.077-13.671 50.091-27.323 2.9503-2.875-6.8044-15.526-14.38-9.1073-15.97 13.532-35.765 22.362-56.082 27.322-17.872 3.3335 0.32238 19.982 16.298 15.579l9.3465-2.1576 10.306-2.3954 13.901-6.2323 9.3465-4.3139 7.909-4.3152 6.4701-4.553c13.001-12.269-7.358-37.6-24.686-21.81-8.8471 8.4176-58.507 37.626-63.992 18.088" stroke-linecap="round" stroke-linejoin="round" stroke-width="2.4803"/>
    <path d="m228.98 809.49c-0.0119 3.4088-1.4098 7.1387-3.8343 7.909-22.007 6.992-46.931 14.742-61.295 33.109-7.8059 9.9807-0.88656 13.885 8.2366 5.4396 13.802-11.804 31.797-23.356 48.982-29.201 27.635-7.0092 12.352-18.762-7.4294-12.942-19.598 7.5694-40.159 14.849-54.405 30.678-16.054 17.837 0.10702 31.669 17.016 19.652l8.6277-9.1073c14.774-11.893 31.864-20.45 50.33-24.686 21.732-6.5639 0.9077-31.584-22.768-21.81-19.858 6.486-39.067 15.489-55.363 28.761-5.351 4.3575-8.4586 7.6223-8.8682 2.6359" stroke-linecap="round" stroke-linejoin="round" stroke-width="2.4803"/>
    <path d="m98.835 910.02v8.7506c4.3958-1.929 9.032-1.9726 12.186 2.0598l24.031 19.396c4.9388 4.6098-0.35937 8.5286-5.1489 6.1795l5.4924-8.7532c4.8952 0.35674 8.8153-1.5128 7.3805-6.523l-29.007-22.141c-2.0651-1.3701-5.0551-0.44923-7.5536 0.17176l1.7176-3.7761c2.4166-4.7314 6.3089-9.4139 12.015-7.0383l28.835 23c2.953 4.8318-2.3664 7.8416-6.8652 5.4924l5.8359-9.6107c5.0075 0.47564 10.81-3.2582 6.0037-7.0383l-28.491-20.94c-2.3056-1.7256-4.8952-1.9383-7.5536-0.68705l6.3512-10.813c1.8894-2.916 6.1332-1.0253 8.7546 1.201l26.433 20.769c5.6377 4.6481 0.27481 8.341-5.1489 6.523l5.6642-9.9556c3.611 0.47169 6.0566-0.89051 6.6934-4.2914l-29.523-23.687c-2.3888-0.79538-4.9071-1.1521-7.3805-1.0292l5.3206-9.6107c1.3728-1.8867 4.6349-1.8867 6.8652-0.34352l30.552 23.342c3.2608 2.5764-4.1196 7.0396-7.724 4.2914l6.0077-9.7838c4.4618 2.5764 9.4403-3.4313 7.724-5.1489l-29.695-23.342c-3.0626-2.2131-6.1623-1.9409-8.925 0.68705v-7.72" stroke-width="2.4803"/>
   </g>
   <g stroke="#e2001a" stroke-linecap="round" stroke-linejoin="round">
    <polyline transform="matrix(1.3212 0 0 1.3212 -.41911 753.52)" points="30.323 142.21 30.323 141.4 30.323 8.075" stroke-width="1.8773"/>
    <polyline transform="matrix(1.3212 0 0 1.3212 -.41911 753.52)" points="112.5 65.396 112.5 48.345 91.635 56.146 91.635 126.71" stroke-width="1.8773"/>
    <g stroke-width="2.4803">
     <line x1="228.98" x2="228.98" y1="753.65" y2="809.49"/>
     <line x1="139.68" x2="139.68" y1="839.65" y2="758.29"/>
     <line x1="98.835" x2="98.835" y1="759.83" y2="910.02"/>
    </g>
   </g>
  </g>
  <g fill="#1f638a" fill-rule="evenodd" stroke="#1f638a" stroke-linecap="round" stroke-linejoin="round" stroke-width="1.7717">
   <path d="m189.54 938.26-27.645-31.071" color="#000000"/>
   <path d="m233.11 876.47-27.645-31.071" color="#000000"/>
   <path d="m132.39 993.61-27.645-31.071" color="#000000"/>
  </g>
  <g transform="translate(237.72 1038.9)">
   <ellipse cx="-44.92" cy="-98.798" rx="13.199" ry="13.469" fill="#1f638a" stroke-linecap="round" stroke-linejoin="round" stroke-width="1.0658"/>
   <text x="-51.39423" y="-91.055557" fill="#000000" font-family="'Arial Nova', 'Arial Unicode MS', 'Yu Gothic UI', sans-serif" font-size="12.8px" letter-spacing="0px" stroke-width="1.0667" word-spacing="0px" style="line-height:0%" xml:space="preserve"><tspan x="-51.39423" y="-91.055557" fill="#ffffff" font-family="'Arial Nova', 'Arial Unicode MS', 'Yu Gothic UI', sans-serif" font-size="21.333px" stroke="#ffffff" stroke-width="1.0667" style="line-height:1.25">1</tspan></text>
  </g>
  <g transform="translate(249.94 980.13)">
   <ellipse cx="-13.718" cy="-98.798" rx="13.199" ry="13.469" fill="#1f638a" stroke-linecap="round" stroke-linejoin="round" stroke-width="1.0658"/>
   <text x="-19.559933" y="-91.125885" fill="#000000" font-family="'Arial Nova', 'Arial Unicode MS', 'Yu Gothic UI', sans-serif" font-size="12.8px" letter-spacing="0px" stroke-width="1.0667" word-spacing="0px" style="line-height:0%" xml:space="preserve"><tspan x="-19.559933" y="-91.125885" fill="#ffffff" font-family="'Arial Nova', 'Arial Unicode MS', 'Yu Gothic UI', sans-serif" font-size="21.333px" stroke="#ffffff" stroke-width="1.0667" style="line-height:1.25">2</tspan></text>
  </g>
  <g transform="translate(150.09 1095.9)">
   <ellipse cx="-13.718" cy="-98.798" rx="13.199" ry="13.469" fill="#1f638a" stroke-linecap="round" stroke-linejoin="round" stroke-width="1.0658"/>
   <text x="-19.559933" y="-91.125885" fill="#000000" font-family="'Arial Nova', 'Arial Unicode MS', 'Yu Gothic UI', sans-serif" font-size="12.8px" letter-spacing="0px" stroke-width="1.0667" word-spacing="0px" style="line-height:0%" xml:space="preserve"><tspan x="-19.559933" y="-91.125885" fill="#ffffff" font-family="'Arial Nova', 'Arial Unicode MS', 'Yu Gothic UI', sans-serif" font-size="21.333px" stroke="#ffffff" stroke-width="1.0667" style="line-height:1.25">2</tspan></text>
  </g>
 </g>
</svg>
