<?xml version="1.0" encoding="UTF-8"?>
<svg width="18cm" height="7cm" version="1.1" xmlns="http://www.w3.org/2000/svg" xmlns:cc="http://creativecommons.org/ns#" xmlns:dc="http://purl.org/dc/elements/1.1/" xmlns:rdf="http://www.w3.org/1999/02/22-rdf-syntax-ns#" xmlns:xlink="http://www.w3.org/1999/xlink">
 <title>Abbildung für OPEN MIND Softwaredokumentation</title>
 <defs>
  <linearGradient id="linearGradient43386" x1="45.914" x2="46.385" y1="217.15" y2="123.53" gradientTransform="matrix(2.4278 0 0 2.1605 -82.304 628.35)" gradientUnits="userSpaceOnUse" xlink:href="#linearGradient17780-7"/>
  <linearGradient id="linearGradient43389" x1="64.521" x2="64.741" y1="217.9" y2="135.72" gradientTransform="matrix(2.4071 0 0 2.3127 -81.237 595.28)" gradientUnits="userSpaceOnUse" xlink:href="#linearGradient17780-7"/>
  <linearGradient id="linearGradient43392" x1="53.017" x2="53.577" y1="217.05" y2="126.29" gradientTransform="matrix(2.4092 0 0 2.1652 -81.271 627.33)" gradientUnits="userSpaceOnUse" xlink:href="#linearGradient17780-7"/>
  <linearGradient id="linearGradient43395" x1="90.119" x2="89.802" y1="216.86" y2="154.85" gradientTransform="matrix(2.4053 0 0 2.3444 -81.176 588.38)" gradientUnits="userSpaceOnUse" xlink:href="#linearGradient17780-7"/>
  <linearGradient id="linearGradient17780-7">
   <stop stop-color="#fff" offset="0"/>
   <stop stop-color="#00385e" offset="1"/>
  </linearGradient>
  <linearGradient id="linearGradient34160" x1="44.815" x2="45.443" y1="216.8" y2="145.74" gradientTransform="matrix(2.4278 0 0 2.1605 171.93 628.39)" gradientUnits="userSpaceOnUse" xlink:href="#linearGradient17780-7"/>
  <linearGradient id="linearGradient34163" x1="60.406" x2="61.418" y1="217.9" y2="155.16" gradientTransform="matrix(2.4071 0 0 2.3127 173 595.31)" gradientUnits="userSpaceOnUse" xlink:href="#linearGradient17780-7"/>
  <linearGradient id="linearGradient34166" x1="53.334" x2="53.577" y1="216.35" y2="146" gradientTransform="matrix(2.4092 0 0 2.1652 172.97 627.36)" gradientUnits="userSpaceOnUse" xlink:href="#linearGradient17780-7"/>
  <linearGradient id="linearGradient34169" x1="90.119" x2="90.752" y1="216.86" y2="159.73" gradientTransform="matrix(2.4053 0 0 2.3444 173.06 588.41)" gradientUnits="userSpaceOnUse" xlink:href="#linearGradient17780-7"/>
  <linearGradient id="linearGradient34175" x1="44.815" x2="45.443" y1="217.5" y2="145.21" gradientTransform="matrix(2.4278 0 0 2.1605 367.68 627.94)" gradientUnits="userSpaceOnUse" xlink:href="#linearGradient17780-7"/>
  <linearGradient id="linearGradient34178" x1="61.672" x2="62.209" y1="216.92" y2="149.23" gradientTransform="matrix(2.4071 0 0 2.3127 368.74 594.87)" gradientUnits="userSpaceOnUse" xlink:href="#linearGradient17780-7"/>
  <linearGradient id="linearGradient34181" x1="53.966" x2="55.158" y1="218.46" y2="142.13" gradientTransform="matrix(2.4092 0 0 2.1652 368.71 626.92)" gradientUnits="userSpaceOnUse" xlink:href="#linearGradient17780-7"/>
  <linearGradient id="linearGradient34184" x1="91.069" x2="91.069" y1="217.84" y2="152.58" gradientTransform="matrix(2.4053 0 0 2.3444 368.81 587.97)" gradientUnits="userSpaceOnUse" xlink:href="#linearGradient17780-7"/>
  <linearGradient id="linearGradient20539-5" x1="54.983" x2="54.983" y1="34.986" y2="34.986" gradientUnits="userSpaceOnUse">
   <stop stop-color="#fff" offset="0"/>
   <stop stop-color="#FCFCFC" offset=".2264"/>
   <stop stop-color="#F4F4F4" offset=".3626"/>
   <stop stop-color="#E6E6E6" offset=".475"/>
   <stop stop-color="#D1D1D1" offset=".5744"/>
   <stop stop-color="#B7B7B7" offset=".6652"/>
   <stop stop-color="#979797" offset=".7498"/>
   <stop stop-color="#707070" offset=".8297"/>
   <stop stop-color="#444" offset=".9057"/>
   <stop stop-color="#121212" offset=".9761"/>
   <stop offset="1"/>
  </linearGradient>
  <linearGradient id="linearGradient34253" x1="161.17" x2="207.09" y1="907.11" y2="908.63" gradientTransform="scale(1.0667)" gradientUnits="userSpaceOnUse" xlink:href="#linearGradient20539-5"/>
  <linearGradient id="linearGradient34266" x1="223.46" x2="274.65" y1="874.99" y2="874.99" gradientTransform="scale(1.0667)" gradientUnits="userSpaceOnUse" xlink:href="#linearGradient20539-5"/>
  <linearGradient id="linearGradient34274" x1="424.47" x2="444.2" y1="881.12" y2="881.12" gradientTransform="matrix(1.0667 0 0 1.0667 -.14286 -.095238)" gradientUnits="userSpaceOnUse" xlink:href="#linearGradient20539-5"/>
  <linearGradient id="linearGradient34284" x1="582.41" x2="596.79" y1="861.23" y2="861.32" gradientTransform="scale(1.0667)" gradientUnits="userSpaceOnUse" xlink:href="#linearGradient20539-5"/>
 </defs>
 <metadata>
  <rdf:RDF>
   <cc:Work rdf:about="">
    <dc:format>image/svg+xml</dc:format>
    <dc:type rdf:resource="http://purl.org/dc/dcmitype/StillImage"/>
    <dc:title>Abbildung für OPEN MIND Softwaredokumentation</dc:title>
    <dc:creator>
     <cc:Agent>
      <dc:title>OPEN MIND Technologies AG</dc:title>
     </cc:Agent>
    </dc:creator>
    <dc:rights>
     <cc:Agent>
      <dc:title>Alle Rechte vorbehalten.</dc:title>
     </cc:Agent>
    </dc:rights>
    <dc:publisher>
     <cc:Agent>
      <dc:title>Technische Redaktion</dc:title>
     </cc:Agent>
    </dc:publisher>
   </cc:Work>
  </rdf:RDF>
 </metadata>
 <g transform="translate(0 -857.95)">
  <g>
   <g stroke="#000" stroke-width=".67654">
    <path d="m238.83 916.74 18.852 41.25-0.0535 27.398 11.596 0.0523 0.22638-104.23-30.757 0.15542z" fill="url(#linearGradient34266)" stroke-linecap="square"/>
    <path d="m257.6 985.26 12.084 0.0352 2.8256 4.2272 0.0245 28.596-18.111-7.7641-0.0217-20.832z" fill="#fd0"/>
    <path d="m203.3 951.01-18.852 41.25 0.0535 27.398-11.596 0.052-0.22638-104.23 30.757 0.15541z" fill="url(#linearGradient34253)" stroke-linecap="square" stroke-miterlimit="10"/>
   </g>
   <g stroke="#4d4d4d" stroke-linecap="round" stroke-linejoin="round">
    <g stroke-miterlimit="10" stroke-width=".67654">
     <path d="m105.72 1097.8v-43.487h62.772v43.487" fill="url(#linearGradient43395)"/>
     <path d="m29.391 1097.8v-88.041h35.31v88.041" fill="url(#linearGradient43392)"/>
     <path d="m64.63 1097.8v-80.564l41.191 37.387v43.178" fill="url(#linearGradient43389)"/>
     <path d="m19.509 1097.8v-78.384l9.6989-9.465 0.02913 87.849" fill="url(#linearGradient43386)"/>
    </g>
    <path d="m19.547 1098.5 149.33-0.5388" color="#000000" fill-rule="evenodd" stroke-dasharray="11.4595, 2.86489, 1.43244, 2.86489" stroke-width="1.4324"/>
   </g>
  </g>
  <path d="m168.91 1055.4-0.26938 42.83" fill="none" stroke="#800080" stroke-linecap="round" stroke-linejoin="round" stroke-width="3.0236"/>
  <g>
   <path d="m184.53 1019.5-12.084 0.035-2.8256 4.2272-0.0245 28.596 18.111-7.7641 0.0217-20.832z" fill="#fd0" stroke="#000" stroke-width=".67654"/>
   <polygon transform="matrix(1.5898 0 0 1.5898 203.25 923.3)" points="270.32 87.5 268.92 92.85 271.81 92.85" clip-rule="evenodd" fill="#e2001a" fill-rule="evenodd" stroke="#e2001a" stroke-linecap="round" stroke-linejoin="round"/>
   <path d="m632.79 1098.6 0.0476-27.304" fill="#e2001a" stroke="#e2001a" stroke-linecap="round" stroke-linejoin="round" stroke-miterlimit="10" stroke-width=".79489"/>
  </g>
  <g fill="#34679b">
   <polygon transform="matrix(1.5898 0 0 1.5898 189.21 929.88)" points="304.55 106.31 299.2 104.91 299.2 107.79" clip-rule="evenodd" fill-rule="evenodd" stroke="#34679b" stroke-linecap="round" stroke-linejoin="round"/>
   <path d="m632.88 1098.8 40.719 0.022" stroke="#34679b" stroke-linecap="round" stroke-linejoin="round" stroke-miterlimit="10" stroke-width=".79489"/>
   <text x="668.98621" y="1108.9202" font-family="'Arial Nova', 'Arial Unicode MS', 'Yu Gothic UI', sans-serif" font-size="8.7965px" stroke-width="1.0667" style="line-height:0%">Z</text>
  </g>
  <text x="637.97522" y="1067.9235" fill="#e2001a" font-family="'Arial Nova', 'Arial Unicode MS', 'Yu Gothic UI', sans-serif" font-size="8.7965px" stroke-width="1.0667" style="line-height:0%">X</text>
  <g stroke="#4d4d4d" stroke-linecap="round" stroke-linejoin="round">
   <g stroke-miterlimit="10" stroke-width=".67654">
    <path d="m555.7 1097.4v-43.487h62.772v43.487" fill="url(#linearGradient34184)"/>
    <path d="m479.37 1097.4v-88.041h35.31v88.041" fill="url(#linearGradient34181)"/>
    <path d="m514.61 1097.3v-80.564l41.191 37.387v43.178" fill="url(#linearGradient34178)"/>
    <path d="m469.49 1097.4v-78.384l9.6989-9.4651 0.0291 87.849" fill="url(#linearGradient34175)"/>
   </g>
   <path d="m469.8 1098.1 148.67-0.2694" color="#000000" fill-rule="evenodd" stroke-dasharray="11.4595, 2.86489, 1.43244, 2.86489" stroke-width="1.4324"/>
  </g>
  <g>
   <path d="m618.53 1054.6 0.26937 42.831" fill="none" stroke="#800080" stroke-linecap="round" stroke-linejoin="round" stroke-width="3.0236"/>
   <path d="m469.34 1019.4 0.53875 78.119" fill="none" stroke="#800080" stroke-linecap="round" stroke-linejoin="round" stroke-width="3.0236"/>
   <path d="m464.51 988.57-10.872 0.032-2.5421 3.8423-0.022 25.992 16.35-0.1005-0.037-25.892z" fill="#fd0" stroke="#000" stroke-width=".67654"/>
   <path d="m453.69 988.61 0.18392-97.618 11.31 0.0508-0.60894 97.597z" fill="url(#linearGradient34274)" stroke="#000" stroke-width=".67654"/>
   <g transform="translate(.38095 69.333)" stroke="#000" stroke-width=".67654">
    <path d="m632.31 953.4-10.872 0.032-2.5422 3.8423-0.022 25.992 16.35-0.10048-0.037-25.892z" fill="#fd0"/>
    <path d="m621.58 953.43-6e-3 -69.563 10.625-0.0527 0.0448 69.673z" fill="url(#linearGradient34284)" stroke-linecap="round" stroke-linejoin="round"/>
   </g>
  </g>
  <g stroke="#4d4d4d" stroke-linecap="round" stroke-linejoin="round">
   <g stroke-miterlimit="10" stroke-width=".67654">
    <path d="m359.96 1097.8v-43.487h62.772v43.487" fill="url(#linearGradient34169)"/>
    <path d="m283.63 1097.8v-88.041h35.31v88.041" fill="url(#linearGradient34166)"/>
    <path d="m318.87 1097.8v-80.564l41.191 37.387v43.178" fill="url(#linearGradient34163)"/>
    <path d="m273.75 1097.8v-78.384l9.6989-9.465 0.0291 87.849" fill="url(#linearGradient34160)"/>
   </g>
   <path d="m273.78 1098.5 149.33-0.5388" color="#000000" fill-rule="evenodd" stroke-dasharray="11.4595, 2.86489, 1.43244, 2.86489" stroke-width="1.4324"/>
  </g>
  <path d="m273.91 1020.1-0.26937 77.878" fill="none" stroke="#800080" stroke-linecap="round" stroke-linejoin="round" stroke-width="3.0236"/>
  <g transform="translate(136.38 1062.8)">
   <ellipse cx="-44.92" cy="-98.798" rx="13.199" ry="13.469" fill="#1f638a" stroke-linecap="round" stroke-linejoin="round" stroke-width="1.0658"/>
   <text x="-50.761276" y="-91.125885" fill="#000000" font-family="'Arial Nova', 'Arial Unicode MS', 'Yu Gothic UI', sans-serif" font-size="12.8px" letter-spacing="0px" stroke-width="1.0667" word-spacing="0px" style="line-height:0%" xml:space="preserve"><tspan x="-50.761276" y="-91.125885" fill="#ffffff" font-family="'Arial Nova', 'Arial Unicode MS', 'Yu Gothic UI', sans-serif" font-size="21.333px" stroke="#ffffff" stroke-width="1.0667" style="line-height:1.25">1</tspan></text>
  </g>
  <g transform="translate(372.29 1062.8)">
   <ellipse cx="-13.718" cy="-98.798" rx="13.199" ry="13.469" fill="#1f638a" stroke-linecap="round" stroke-linejoin="round" stroke-width="1.0658"/>
   <text x="-19.559933" y="-91.125885" fill="#000000" font-family="'Arial Nova', 'Arial Unicode MS', 'Yu Gothic UI', sans-serif" font-size="12.8px" letter-spacing="0px" stroke-width="1.0667" word-spacing="0px" style="line-height:0%" xml:space="preserve"><tspan x="-19.559933" y="-91.125885" fill="#ffffff" font-family="'Arial Nova', 'Arial Unicode MS', 'Yu Gothic UI', sans-serif" font-size="21.333px" stroke="#ffffff" stroke-width="1.0667" style="line-height:1.25">2</tspan></text>
  </g>
  <g transform="translate(547.49 1062.8)">
   <ellipse cx="17.483" cy="-98.798" rx="13.199" ry="13.469" fill="#1f638a" stroke-linecap="round" stroke-linejoin="round" stroke-width="1.0658"/>
   <text x="11.641406" y="-91.256096" fill="#000000" font-family="'Arial Nova', 'Arial Unicode MS', 'Yu Gothic UI', sans-serif" font-size="12.8px" letter-spacing="0px" stroke-width="1.0667" word-spacing="0px" style="line-height:0%" xml:space="preserve"><tspan x="11.641406" y="-91.256096" fill="#ffffff" font-family="'Arial Nova', 'Arial Unicode MS', 'Yu Gothic UI', sans-serif" font-size="21.333px" stroke="#ffffff" stroke-width="1.0667" style="line-height:1.25">3</tspan></text>
  </g>
 </g>
</svg>
