<?xml version="1.0" encoding="UTF-8" standalone="no"?>
<svg
   xmlns:dc="http://purl.org/dc/elements/1.1/"
   xmlns:cc="http://creativecommons.org/ns#"
   xmlns:rdf="http://www.w3.org/1999/02/22-rdf-syntax-ns#"
   xmlns:svg="http://www.w3.org/2000/svg"
   xmlns="http://www.w3.org/2000/svg"
   xmlns:xlink="http://www.w3.org/1999/xlink"
   xmlns:sodipodi="http://sodipodi.sourceforge.net/DTD/sodipodi-0.dtd"
   xmlns:inkscape="http://www.inkscape.org/namespaces/inkscape"
   version="1.1"
   viewBox="0 0 680.31 245.67"
   id="svg253"
   sodipodi:docname="2D_konturfraesen_3DModell_werkzeugposition.svg"
   inkscape:version="1.0.2-2 (e86c870879, 2021-01-15)">
  <metadata
     id="metadata257">
    <rdf:RDF>
      <cc:Work
         rdf:about="">
        <dc:format>image/svg+xml</dc:format>
        <dc:type
           rdf:resource="http://purl.org/dc/dcmitype/StillImage" />
        <dc:title></dc:title>
      </cc:Work>
    </rdf:RDF>
  </metadata>
  <sodipodi:namedview
     pagecolor="#ffffff"
     bordercolor="#666666"
     borderopacity="1"
     objecttolerance="10"
     gridtolerance="10"
     guidetolerance="10"
     inkscape:pageopacity="0"
     inkscape:pageshadow="2"
     inkscape:window-width="1920"
     inkscape:window-height="1027"
     id="namedview255"
     showgrid="false"
     inkscape:zoom="1.4766703"
     inkscape:cx="321.15157"
     inkscape:cy="122.1578"
     inkscape:window-x="1912"
     inkscape:window-y="-8"
     inkscape:window-maximized="1"
     inkscape:current-layer="svg253" />
  <defs
     id="defs27">
    <linearGradient
       id="e"
       x1="-70.850998"
       x2="867.67999"
       y1="-78.905998"
       y2="127.05"
       gradientTransform="matrix(0.83505,0,0,-0.83505,226.76,189.48)"
       gradientUnits="userSpaceOnUse"
       xlink:href="#d">
      <stop
         stop-color="#ffffff"
         offset="0"
         id="stop2" />
      <stop
         stop-color="#00385e"
         offset="1"
         id="stop4" />
    </linearGradient>
    <linearGradient
       id="d"
       x1="-22.681"
       x2="891.92999"
       y1="26.829"
       y2="360.29001"
       gradientTransform="matrix(0.83505,0,0,-0.83844,-17.51,189.85)"
       gradientUnits="userSpaceOnUse"
       spreadMethod="pad">
      <stop
         stop-color="#ffffff"
         offset="0"
         id="stop7" />
      <stop
         stop-color="#00385e"
         offset="1"
         id="stop9" />
    </linearGradient>
    <linearGradient
       id="c"
       x1="230.92"
       x2="286.71"
       y1="976.02"
       y2="976.02"
       gradientTransform="matrix(0.89865,0,0,-0.90165,-23.33,939.54)"
       gradientUnits="userSpaceOnUse">
      <stop
         stop-color="#ffffff"
         offset="0"
         id="stop12" />
      <stop
         stop-color="#00385e"
         offset="1"
         id="stop14" />
    </linearGradient>
    <linearGradient
       id="b"
       x1="39.915"
       x2="77.696"
       y1="989.2"
       y2="989.2"
       gradientTransform="matrix(1.5458,0,0,-1.0434,-10.718,1082)"
       gradientUnits="userSpaceOnUse">
      <stop
         stop-color="#ffffff"
         offset="0"
         id="stop17" />
      <stop
         stop-color="#00385e"
         offset="1"
         id="stop19" />
    </linearGradient>
    <linearGradient
       id="a"
       x1="53.519"
       x2="271.79"
       y1="901.42"
       y2="901.42"
       gradientTransform="matrix(0.80002,0,0,-0.80363,10.058,843.97)"
       gradientUnits="userSpaceOnUse">
      <stop
         stop-color="#ffffff"
         offset="0"
         id="stop22" />
      <stop
         stop-color="#00385e"
         offset="1"
         id="stop24" />
    </linearGradient>
  </defs>
  <g
     transform="matrix(1.3333,0,0,1.3273135,0,5.4751e-6)"
     id="g31">
    <path
       d="m 255.3,6.933 h 239.23 v 164.06 H 255.3 Z"
       fill="url(#e)"
       fill-rule="evenodd"
       stroke="#4d4d4d"
       stroke-width="0.50854"
       id="path29"
       style="fill:url(#e);fill-opacity:1.0" />
  </g>
  <path
     d="m 551.17289,43.848243 c -24.20873,12.207694 -32.1032,34.723131 -36.64575,65.545027 -2.69727,18.31688 -11.51038,62.6331 -49.10278,99.71084"
     fill="none"
     stroke="#800080"
     stroke-linecap="round"
     stroke-linejoin="round"
     stroke-miterlimit="10"
     stroke-width="3.02352"
     id="path35" />
  <path
     d="m 553.81282,44.550892 c 0,2.765264 -2.24394,5.010541 -5.01054,5.010541 -2.7706,0 -5.01454,-2.245277 -5.01454,-5.010541 0,-2.770598 2.24394,-5.015875 5.01454,-5.015875 2.7666,0 5.01054,2.245277 5.01054,5.015875 z"
     fill="#800080"
     stroke="#800080"
     stroke-linecap="square"
     stroke-miterlimit="10"
     stroke-width="0.431363"
     id="path39" />
  <path
     d="m 517.70706,82.800602 c 0,7.426481 -6.02119,13.447664 -13.44767,13.447664 -7.42648,0 -13.45299,-6.021183 -13.45299,-13.447664 0,-7.433147 6.02651,-13.452997 13.45299,-13.452997 7.42648,0 13.44767,6.01985 13.44767,13.452997 z"
     fill="#b3b3b3"
     fill-rule="evenodd"
     stroke="#4d4d4d"
     stroke-linecap="round"
     stroke-linejoin="round"
     stroke-width="1.61716"
     id="path43" />
  <path
     d="m 551.22622,94.216317 c 0,7.426483 -6.02118,13.447663 -13.44766,13.447663 -7.43182,0 -13.453,-6.02118 -13.453,-13.447663 0,-7.426481 6.02118,-13.447664 13.453,-13.447664 7.42648,0 13.44766,6.021183 13.44766,13.447664 z"
     fill="#b3b3b3"
     fill-rule="evenodd"
     stroke="#4d4d4d"
     stroke-linecap="round"
     stroke-linejoin="round"
     stroke-width="1.61716"
     id="path47" />
  <path
     d="m 482.79389,188.54971 -4.75524,-16.83839 7.09849,4.19868 12.62494,-21.3537 7.60993,4.4994 -12.63082,21.34842 6.84492,4.0523 -16.79222,4.09329"
     fill="#800080"
     stroke="#000000"
     stroke-linecap="square"
     stroke-miterlimit="10"
     stroke-width="0.676514"
     id="path51" />
  <path
     d="m 626.70433,90.409745 c 0,7.426481 -6.02118,13.447665 -13.44766,13.447665 -7.42648,0 -13.453,-6.021184 -13.453,-13.447665 0,-7.427814 6.02652,-13.447664 13.453,-13.447664 7.42648,0 13.44766,6.01985 13.44766,13.447664 z"
     fill="#b3b3b3"
     fill-rule="evenodd"
     stroke="#4d4d4d"
     stroke-linecap="round"
     stroke-linejoin="round"
     stroke-width="1.61716"
     id="path55" />
  <path
     d="m 646.79716,44.108236 c -25.23803,12.859679 -34.53513,37.597727 -39.26968,70.066244 -2.8066,19.29152 -4.16656,58.46654 -43.34692,97.5229"
     fill="none"
     stroke="#800080"
     stroke-linecap="round"
     stroke-linejoin="round"
     stroke-miterlimit="10"
     stroke-width="3.02352"
     id="path59" />
  <path
     d="m 649.82375,44.586891 c 0,2.77193 -2.24527,5.015874 -5.01587,5.015874 -2.76526,0 -5.01054,-2.243944 -5.01054,-5.015874 0,-2.765264 2.24528,-5.014542 5.01054,-5.014542 2.7706,0 5.01587,2.249278 5.01587,5.014542 z"
     fill="#800080"
     stroke="#800080"
     stroke-linecap="square"
     stroke-miterlimit="10"
     stroke-width="0.431363"
     id="path63" />
  <path
     d="m 576.08163,199.20746 16.93623,-4.39087 -7.20308,-4.0099 12.0567,-21.6767 -7.71773,-4.29628 -12.06219,21.67714 -6.94767,-3.86952 4.93774,16.56613"
     fill="#800080"
     stroke="#000000"
     stroke-linecap="square"
     stroke-miterlimit="10"
     stroke-width="0.676508"
     id="path67" />
  <path
     d="m 385.04371,201.34164 c 0,2.7706 -2.25061,5.01454 -5.01588,5.01454 -2.77059,0 -5.01454,-2.24394 -5.01454,-5.01454 0,-2.7706 2.24394,-5.01588 5.01454,-5.01588 2.76527,0 5.01588,2.24528 5.01588,5.01588 z"
     fill="#800080"
     stroke="#800080"
     stroke-linecap="square"
     stroke-miterlimit="10"
     stroke-width="0.431363"
     id="path71" />
  <path
     d="m 460.05516,40.920316 c -23.07808,12.037032 -31.78587,35.307117 -36.11376,65.702354 -2.56793,18.05689 -6.25051,56.87325 -42.07761,93.42967"
     fill="none"
     stroke="#800080"
     stroke-linecap="round"
     stroke-linejoin="round"
     stroke-miterlimit="10"
     stroke-width="3.02352"
     id="path75" />
  <path
     d="m 391.28355,173.94232 c 0,7.43182 -6.02118,13.453 -13.453,13.453 -7.42648,0 -13.44766,-6.02118 -13.44766,-13.453 0,-7.42648 6.02118,-13.44766 13.44766,-13.44766 7.43182,0 13.453,6.02118 13.453,13.44766 z"
     fill="#b3b3b3"
     fill-rule="evenodd"
     stroke="#4d4d4d"
     stroke-linecap="round"
     stroke-linejoin="round"
     stroke-width="1.61716"
     id="path79" />
  <path
     d="m 429.08261,188.64862 c 0,7.42782 -6.01985,13.44767 -13.44767,13.44767 -7.42648,0 -13.45166,-6.01985 -13.45166,-13.44767 0,-7.42648 6.02518,-13.44766 13.45166,-13.44766 7.42782,0 13.44767,6.02118 13.44767,13.44766 z"
     fill="#b3b3b3"
     fill-rule="evenodd"
     stroke="#4d4d4d"
     stroke-linecap="round"
     stroke-linejoin="round"
     stroke-width="1.61716"
     id="path83" />
  <path
     d="m 428.85009,83.785251 -14.7232,9.458764 8.09795,1.562591 -4.69201,24.358704 8.67712,1.67138 4.69201,-24.358698 7.8118,1.50471 -9.86367,-14.197451"
     fill="#800080"
     stroke="#000000"
     stroke-linecap="square"
     stroke-miterlimit="10"
     stroke-width="0.676505"
     id="path87" />
  <g
     transform="matrix(1.3333,0,0,1.3327,0,5.4751e-6)"
     id="g93">
    <path
       d="m 11.031,6.581 h 239.23 v 164.06 H 11.031 Z"
       fill="url(#d)"
       fill-rule="evenodd"
       stroke="#4d4d4d"
       stroke-width="0.50751"
       id="path91"
       style="fill:url(#d);fill-opacity:1.0" />
  </g>
  <g
     id="g99"
     transform="matrix(1.3333,0,0,1.3333,0,5.4751e-6)">
    <path
       d="m 184.98,160.54 v -42.551 c 6.696,-21.168 28.043,-28.863 48.536,-28.355 v 70.902 H 184.98 Z"
       fill="url(#c)"
       fill-rule="evenodd"
       stroke="#800080"
       stroke-linecap="round"
       stroke-linejoin="round"
       stroke-width="1.4174"
       id="path97"
       style="fill:url(#c)" />
  </g>
  <g
     id="g105"
     transform="matrix(1.3333,0,0,1.3333,0,5.4751e-6)">
    <path
       d="M 108.02,161.96 V 135.987 C 99.45,119.472 78.063,108.522 52.356,107.257 v 54.703 z"
       fill="url(#b)"
       fill-rule="evenodd"
       stroke="#800080"
       stroke-linecap="round"
       stroke-linejoin="round"
       stroke-width="1.4174"
       id="path103"
       style="fill:url(#b)" />
  </g>
  <g
     id="g111"
     transform="matrix(1.3333,0,0,1.3333,0,5.4751e-6)">
    <path
       d="m 53.582,35.73 v 27.024 c 3.004,5.703 8.047,10.078 14.047,14.055 l 17.922,11.929 c 7.637,4.766 14.41,5.375 25.285,5.969 h 35.828 c 10.844,-0.57 20.813,-4.59 28.809,-11.934 L 226.777,35.73 Z"
       fill="url(#a)"
       fill-rule="evenodd"
       stroke="#800080"
       stroke-linecap="round"
       stroke-linejoin="round"
       stroke-width="1.4174"
       id="path109"
       style="fill:url(#a)" />
  </g>
  <path
     d="m 70.206245,47.400154 c 0,6.343841 -5.145205,11.483713 -11.49438,11.483713 -6.349174,0 -11.494379,-5.139872 -11.494379,-11.483713 0,-6.343842 5.145205,-11.489046 11.494379,-11.489046 6.349175,0 11.49438,5.145204 11.49438,11.489046 z"
     fill="#b3b3b3"
     fill-rule="evenodd"
     stroke="#333333"
     stroke-linecap="round"
     stroke-linejoin="round"
     stroke-width="0.676516"
     id="path115" />
  <path
     d="m 72.092015,85.53918 9.374771,-9.004257 -6.120408,0.01548 -0.05201,-18.452868 -6.551407,0.01533 0.04669,18.452883 -5.895579,0.02152 9.197944,8.951915"
     fill="#800080"
     stroke="#000000"
     stroke-linecap="square"
     stroke-miterlimit="10"
     stroke-width="0.676513"
     id="path119" />
  <path
     d="m 82.320609,129.94476 c 0,6.34384 -5.145205,11.48904 -11.49438,11.48904 -6.343841,0 -11.489046,-5.1452 -11.489046,-11.48904 0,-6.34384 5.145205,-11.48372 11.489046,-11.48372 6.349175,0 11.49438,5.13988 11.49438,11.48372 z"
     fill="#b3b3b3"
     fill-rule="evenodd"
     stroke="#333333"
     stroke-linecap="round"
     stroke-linejoin="round"
     stroke-width="0.676516"
     id="path123" />
  <path
     d="m 245.3672,214.34131 c 0,6.34384 -5.14521,11.48905 -11.49438,11.48905 -6.34917,0 -11.49438,-5.14521 -11.49438,-11.48905 0,-6.34384 5.14521,-11.48504 11.49438,-11.48504 6.34917,0 11.49438,5.1412 11.49438,11.48504 z"
     fill="#b3b3b3"
     fill-rule="evenodd"
     stroke="#333333"
     stroke-linecap="round"
     stroke-linejoin="round"
     stroke-width="0.676516"
     id="path127" />
  <path
     d="m 107.1958,149.79781 -7.12488,-10.87551 -1.110142,6.01587 -18.144388,-3.35928 -1.192784,6.4477 18.144387,3.35928 -1.072448,5.79722 10.500255,-7.38528"
     fill="#800080"
     stroke="#000000"
     stroke-linecap="square"
     stroke-miterlimit="10"
     stroke-width="0.676534"
     id="path131" />
  <path
     d="m 246.80982,173.07913 -9.36944,9.00557 6.11907,-0.0168 0.0467,18.45288 6.55806,-0.0153 -0.052,-18.45287 5.90092,-0.0149 -9.20329,-8.95857"
     fill="#800080"
     stroke="#000000"
     stroke-linecap="square"
     stroke-miterlimit="10"
     stroke-width="0.676513"
     id="path135" />
  <path
     d="m 43.285584,47.95214 c 0,7.437147 -5.911852,13.467663 -13.198336,13.467663 -7.290485,0 -13.202337,-6.030516 -13.202337,-13.467663 0,-7.437147 5.911852,-13.468997 13.202337,-13.468997 7.286484,0 13.198336,6.03185 13.198336,13.468997 z"
     fill="#1f638a"
     id="path139"
     style="stroke-width:1.3333" />
  <text
     fill="#ffffff"
     font-family="'Arial Nova', 'Arial Unicode MS', 'Yu Gothic UI', sans-serif"
     font-size="21.3328px"
     id="text143"
     x="24.244726"
     y="55.622616"
     style="stroke-width:1.3333"><tspan
       x="24.244726"
       y="55.622616"
       id="tspan141"
       style="stroke-width:1.3333">1</tspan></text>
  <path
     d="M 32.244527,55.623948 H 30.368574 V 43.66558 c -0.931977,0.890645 -2.181279,1.645293 -3.74924,2.27061 v -1.811954 c 2.150613,-1.041308 3.625243,-2.322609 4.41589,-3.854571 h 1.209303 z"
     fill="none"
     stroke="#ffffff"
     stroke-width="1.06667"
     id="path145" />
  <path
     d="m 399.93667,144.84972 c 0,7.43714 -5.91185,13.46766 -13.20234,13.46766 -7.28648,0 -13.19834,-6.03052 -13.19834,-13.46766 0,-7.44248 5.91186,-13.469 13.19834,-13.469 7.29049,0 13.20234,6.02652 13.20234,13.469 z"
     fill="#1f638a"
     id="path149"
     style="stroke-width:1.3333" />
  <text
     fill="#ffffff"
     font-family="'Arial Nova', 'Arial Unicode MS', 'Yu Gothic UI', sans-serif"
     font-size="21.3328px"
     id="text153"
     x="380.89713"
     y="152.51619"
     style="stroke-width:1.3333"><tspan
       x="380.89713"
       y="152.51619"
       id="tspan151"
       style="stroke-width:1.3333">2</tspan></text>
  <path
     d="m 391.67021,152.52953 h -10.10375 c 0,-0.85998 0.29599,-1.72929 0.89464,-2.60527 0.59466,-0.88531 1.71996,-1.99995 3.37592,-3.33325 0.99998,-0.80132 1.89595,-1.64529 2.6866,-2.51994 0.79198,-0.88531 1.18797,-1.78129 1.18797,-2.68793 0,-0.75998 -0.27066,-1.39597 -0.81198,-1.89596 -0.54265,-0.51065 -1.2293,-0.77064 -2.06261,-0.77064 -0.84932,0 -1.5573,0.26532 -2.12528,0.79198 -0.57332,0.51598 -0.85465,1.28663 -0.85465,2.31194 l -1.93728,-0.22933 c 0.12533,-1.42663 0.63065,-2.51993 1.52129,-3.27058 0.90131,-0.75998 2.04662,-1.14531 3.43725,-1.14531 1.49996,0 2.6666,0.41599 3.49991,1.2493 0.83331,0.83332 1.2493,1.83329 1.2493,2.99993 0,0.99064 -0.35332,1.97995 -1.0613,2.97993 -0.69865,0.99997 -2.09995,2.34394 -4.20923,4.01989 -1.09864,0.89065 -1.82796,1.6573 -2.18661,2.29195 h 7.49981 z"
     fill="none"
     stroke="#ffffff"
     stroke-width="1.06667"
     id="path155" />
  <path
     d="m 449.01544,164.04924 c 0,7.43714 -5.90518,13.46899 -13.197,13.46899 -7.29182,0 -13.19701,-6.03185 -13.19701,-13.46899 0,-7.43715 5.90519,-13.46767 13.19701,-13.46767 7.29182,0 13.197,6.03052 13.197,13.46767 z"
     fill="#1f638a"
     id="path159"
     style="stroke-width:1.3333" />
  <text
     fill="#ffffff"
     font-family="'Arial Nova', 'Arial Unicode MS', 'Yu Gothic UI', sans-serif"
     font-size="21.3328px"
     id="text163"
     x="429.97592"
     y="171.59572"
     style="stroke-width:1.3333"><tspan
       x="429.97592"
       y="171.59572"
       id="tspan161"
       style="stroke-width:1.3333">3</tspan></text>
  <path
     d="m 438.06905,163.31592 c 0.94264,0.18266 1.65596,0.64132 2.14528,1.37463 0.48399,0.73999 0.72931,1.5373 0.72931,2.39594 0,1.39064 -0.51065,2.53727 -1.52129,3.43725 -1.01464,0.89065 -2.22395,1.3333 -3.62391,1.3333 -1.3493,0 -2.45861,-0.39465 -3.33325,-1.18663 -0.87598,-0.79198 -1.39063,-1.83329 -1.54263,-3.12526 l 1.87595,-0.24933 c 0.192,0.99998 0.53066,1.74929 1.01998,2.24928 0.49999,0.49999 1.15597,0.75065 1.97995,0.75065 0.87464,0 1.60929,-0.30266 2.20794,-0.91731 0.60932,-0.60932 0.91598,-1.35864 0.91598,-2.24928 0,-0.85998 -0.28133,-1.56796 -0.83331,-2.12528 -0.54132,-0.56799 -1.25997,-0.85465 -2.14528,-0.85465 -0.36399,0 -0.80798,0.0733 -1.3333,0.208 l 0.22933,-1.64529 c 0.49998,0 0.89597,-0.0213 1.18663,-0.0627 0.292,-0.052 0.61465,-0.17199 0.97998,-0.35332 0.35866,-0.19333 0.65598,-0.46399 0.89598,-0.81332 0.23332,-0.35865 0.35332,-0.79598 0.35332,-1.31196 0,-0.75998 -0.25999,-1.35464 -0.77065,-1.77062 -0.49998,-0.41733 -1.0773,-0.62532 -1.72929,-0.62532 -0.76531,0 -1.3853,0.24532 -1.85328,0.72931 -0.47466,0.47332 -0.77065,1.15597 -0.89598,2.04129 l -1.87462,-0.33333 c 0.23333,-1.3333 0.77065,-2.32261 1.60396,-2.97859 0.83331,-0.66665 1.82262,-0.99998 2.97859,-0.99998 1.25997,0 2.31728,0.39066 3.16659,1.16664 0.85998,0.76531 1.29197,1.70262 1.29197,2.81193 0,1.4173 -0.70399,2.43727 -2.10395,3.06259 z"
     fill="none"
     stroke="#ffffff"
     stroke-width="1.06667"
     id="path165" />
  <path
     d="m 639.50401,123.15826 c 0,7.43715 -5.90652,13.469 -13.19833,13.469 -7.28649,0 -13.19701,-6.03185 -13.19701,-13.469 0,-7.43715 5.91052,-13.46766 13.19701,-13.46766 7.29181,0 13.19833,6.03051 13.19833,13.46766 z"
     fill="#1f638a"
     id="path169"
     style="stroke-width:1.3333" />
  <text
     fill="#ffffff"
     font-family="'Arial Nova', 'Arial Unicode MS', 'Yu Gothic UI', sans-serif"
     font-size="21.3328px"
     id="text173"
     x="620.46448"
     y="130.79407"
     style="stroke-width:1.3333"><tspan
       x="620.46448"
       y="130.79407"
       id="tspan171"
       style="stroke-width:1.3333">4</tspan></text>
  <path
     d="m 631.34422,127.14749 h -2.06262 v 3.64658 h -1.87595 v -3.64658 h -6.60384 v -1.72929 l 6.93716,-9.89442 h 1.54263 v 9.89442 h 2.06262 z m -3.93857,-1.72929 v -6.89449 h -0.0413 l -4.72922,6.89449 z"
     fill="none"
     stroke="#ffffff"
     stroke-width="1.06667"
     id="path175" />
  <path
     d="m 410.64307,83.919241 c 0,7.43848 -5.91052,13.468996 -13.19701,13.468996 -7.29181,0 -13.20367,-6.030516 -13.20367,-13.468996 0,-7.437148 5.91186,-13.467664 13.20367,-13.467664 7.28649,0 13.19701,6.030516 13.19701,13.467664 z"
     fill="#1f638a"
     id="path179"
     style="stroke-width:1.3333" />
  <text
     fill="#ffffff"
     font-family="'Arial Nova', 'Arial Unicode MS', 'Yu Gothic UI', sans-serif"
     font-size="21.3328px"
     id="text183"
     x="391.60355"
     y="91.320389"
     style="stroke-width:1.3333"><tspan
       x="391.60355"
       y="91.320389"
       id="tspan181"
       style="stroke-width:1.3333">5</tspan></text>
  <path
     d="m 394.97679,82.133952 c 0.92798,-0.635984 1.89595,-0.958643 2.89593,-0.958643 1.27597,0 2.38527,0.453322 3.33325,1.3533 0.94264,0.906644 1.4173,2.105281 1.4173,3.605243 0,1.514629 -0.47999,2.806597 -1.43863,3.87457 -0.95731,1.057307 -2.21861,1.582627 -3.77058,1.582627 -1.2813,0 -2.38527,-0.358658 -3.31191,-1.08264 -0.93198,-0.718648 -1.4693,-1.791955 -1.60396,-3.207919 l 1.95862,-0.146663 c 0.16666,0.974642 0.50398,1.698624 1.01997,2.166612 0.52665,0.474655 1.17197,0.707982 1.93728,0.707982 0.94265,0 1.70929,-0.353324 2.29195,-1.061306 0.59332,-0.718649 0.89597,-1.609294 0.89597,-2.6666 0,-1.067974 -0.30799,-1.906619 -0.91731,-2.521271 -0.59865,-0.625317 -1.36929,-0.93731 -2.31194,-0.93731 -1.20797,0 -2.13461,0.494655 -2.7706,1.47863 l -1.77062,-0.207995 1.47863,-7.85447 h 7.58381 v 1.813288 h -6.08385 z"
     fill="none"
     stroke="#ffffff"
     stroke-width="1.06667"
     id="path185" />
  <path
     d="m 56.129263,127.24749 c 0,7.44248 -5.911852,13.46766 -13.198336,13.46766 -7.291818,0 -13.197004,-6.02518 -13.197004,-13.46766 0,-7.43848 5.905186,-13.469 13.197004,-13.469 7.286484,0 13.198336,6.03052 13.198336,13.469 z"
     fill="#1f638a"
     id="path189"
     style="stroke-width:1.3333" />
  <text
     fill="#ffffff"
     font-family="'Arial Nova', 'Arial Unicode MS', 'Yu Gothic UI', sans-serif"
     font-size="21.3328px"
     id="text193"
     x="37.088406"
     y="134.91663"
     style="stroke-width:1.3333"><tspan
       x="37.088406"
       y="134.91663"
       id="tspan191"
       style="stroke-width:1.3333">1</tspan></text>
  <path
     d="m 45.086873,134.91663 h -1.87462 V 122.9596 c -0.931977,0.89064 -2.182612,1.64529 -3.74924,2.27061 v -1.81329 c 2.150613,-1.04131 3.62391,-2.32261 4.41589,-3.85324 h 1.20797 z"
     fill="none"
     stroke="#ffffff"
     stroke-width="1.06667"
     id="path195" />
  <path
     d="m 217.75456,213.648 c 0,7.43714 -5.91052,13.46899 -13.19701,13.46899 -7.29182,0 -13.20233,-6.03185 -13.20233,-13.46899 0,-7.43715 5.91051,-13.46767 13.20233,-13.46767 7.28649,0 13.19701,6.03052 13.19701,13.46767 z"
     fill="#1f638a"
     id="path199"
     style="stroke-width:1.3333" />
  <text
     fill="#ffffff"
     font-family="'Arial Nova', 'Arial Unicode MS', 'Yu Gothic UI', sans-serif"
     font-size="21.3328px"
     id="text203"
     x="198.71503"
     y="221.31447"
     style="stroke-width:1.3333"><tspan
       x="198.71503"
       y="221.31447"
       id="tspan201"
       style="stroke-width:1.3333">1</tspan></text>
  <path
     d="m 206.71483,221.31447 h -1.87462 V 209.3561 c -0.93197,0.89065 -2.18261,1.64663 -3.75057,2.27195 v -1.81329 c 2.15195,-1.04131 3.62524,-2.32261 4.41722,-3.85324 h 1.20797 z"
     fill="none"
     stroke="#ffffff"
     stroke-width="1.06667"
     id="path205" />
  <path
     d="m 547.55964,125.24754 c 0,7.44248 -5.91185,13.46766 -13.20367,13.46766 -7.28515,0 -13.197,-6.02518 -13.197,-13.46766 0,-7.43848 5.91185,-13.469 13.197,-13.469 7.29182,0 13.20367,6.03052 13.20367,13.469 z"
     fill="#1f638a"
     id="path209"
     style="stroke-width:1.3333" />
  <text
     fill="#ffffff"
     font-family="'Arial Nova', 'Arial Unicode MS', 'Yu Gothic UI', sans-serif"
     font-size="21.3328px"
     id="text213"
     x="528.52014"
     y="132.92068"
     style="stroke-width:1.3333"><tspan
       x="528.52014"
       y="132.92068"
       id="tspan211"
       style="stroke-width:1.3333">2</tspan></text>
  <path
     d="M 539.29318,132.91802 H 529.1881 c 0,-0.85865 0.29733,-1.72796 0.89598,-2.60394 0.59465,-0.88531 1.71862,-1.99995 3.37592,-3.33325 0.99997,-0.80131 1.89462,-1.64529 2.6866,-2.51994 0.79198,-0.88531 1.18797,-1.78128 1.18797,-2.68793 0,-0.75998 -0.27066,-1.39596 -0.81332,-1.89595 -0.54132,-0.51066 -1.22797,-0.77065 -2.06128,-0.77065 -0.84931,0 -1.55729,0.26533 -2.12528,0.79198 -0.57332,0.51599 -0.85464,1.28664 -0.85464,2.31194 l -1.93729,-0.22932 c 0.12533,-1.42664 0.63065,-2.51994 1.5213,-3.27059 0.89997,-0.75998 2.04661,-1.1453 3.43724,-1.1453 1.49997,0 2.6666,0.41599 3.49992,1.2493 0.83331,0.83331 1.2493,1.83329 1.2493,2.99992 0,0.98931 -0.35333,1.97995 -1.06264,2.97993 -0.69732,0.99997 -2.09862,2.34261 -4.2079,4.0199 -1.09864,0.89064 -1.82795,1.65596 -2.18661,2.29194 h 7.49981 z"
     fill="none"
     stroke="#ffffff"
     stroke-width="1.06667"
     id="path215" />
  <path
     d="m 501.60079,110.14792 c 0,7.43715 -5.91185,13.46899 -13.20233,13.46899 -7.28649,0 -13.19834,-6.03184 -13.19834,-13.46899 0,-7.43715 5.91185,-13.467665 13.19834,-13.467665 7.29048,0 13.20233,6.030515 13.20233,13.467665 z"
     fill="#1f638a"
     id="path219"
     style="stroke-width:1.3333" />
  <text
     fill="#ffffff"
     font-family="'Arial Nova', 'Arial Unicode MS', 'Yu Gothic UI', sans-serif"
     font-size="21.3328px"
     id="text223"
     x="482.56128"
     y="117.6904"
     style="stroke-width:1.3333"><tspan
       x="482.56128"
       y="117.6904"
       id="tspan221"
       style="stroke-width:1.3333">3</tspan></text>
  <path
     d="m 490.64107,109.4186 c 0.94264,0.18267 1.65596,0.64132 2.14661,1.37597 0.48399,0.73865 0.72798,1.53596 0.72798,2.39594 0,1.39063 -0.50932,2.53594 -1.51996,3.43725 -1.01597,0.89064 -2.22394,1.3333 -3.62524,1.3333 -1.3493,0 -2.45861,-0.39599 -3.33325,-1.18797 -0.87465,-0.79198 -1.39063,-1.83329 -1.5413,-3.12526 l 1.87462,-0.24933 c 0.19333,0.99998 0.53199,1.74929 1.02131,2.24928 0.49999,0.49999 1.15597,0.75065 1.97862,0.75065 0.87464,0 1.60929,-0.30266 2.20794,-0.91731 0.60932,-0.60932 0.91731,-1.35863 0.91731,-2.24928 0,-0.85998 -0.28132,-1.56796 -0.83331,-2.12528 -0.54132,-0.56798 -1.25997,-0.85464 -2.14661,-0.85464 -0.36399,0 -0.80665,0.0733 -1.3333,0.20932 l 0.22932,-1.64662 c 0.49999,0 0.89598,-0.02 1.18797,-0.0627 0.292,-0.052 0.61466,-0.17066 0.97865,-0.35332 0.35999,-0.19333 0.65731,-0.46399 0.89597,-0.81331 0.23467,-0.35866 0.35466,-0.79598 0.35466,-1.31197 0,-0.75998 -0.25999,-1.35463 -0.77065,-1.77062 -0.49998,-0.41733 -1.07863,-0.62532 -1.72929,-0.62532 -0.76531,0 -1.38529,0.24533 -1.85462,0.72931 -0.47332,0.47466 -0.77064,1.15597 -0.89597,2.04129 l -1.87462,-0.33333 c 0.23466,-1.3333 0.77064,-2.32261 1.60396,-2.97859 0.83331,-0.66665 1.82262,-0.99998 2.97992,-0.99998 1.25997,0 2.31728,0.39066 3.16659,1.16664 0.85865,0.76532 1.29063,1.70263 1.29063,2.81193 0,1.4173 -0.70264,2.43727 -2.10394,3.06259 z"
     fill="none"
     stroke="#ffffff"
     stroke-width="1.06667"
     id="path225" />
  <path
     d="m 531.40005,196.47509 c 0,7.43715 -5.91185,13.469 -13.19834,13.469 -7.29048,0 -13.20234,-6.03185 -13.20234,-13.469 0,-7.44248 5.91186,-13.47299 13.20234,-13.47299 7.28649,0 13.19834,6.03051 13.19834,13.47299 z"
     fill="#1f638a"
     id="path229"
     style="stroke-width:1.3333" />
  <text
     fill="#ffffff"
     font-family="'Arial Nova', 'Arial Unicode MS', 'Yu Gothic UI', sans-serif"
     font-size="21.3328px"
     id="text233"
     x="512.34717"
     y="203.87491"
     style="stroke-width:1.3333"><tspan
       x="512.34717"
       y="203.87491"
       id="tspan231"
       style="stroke-width:1.3333">5</tspan></text>
  <path
     d="m 515.72044,194.68847 c 0.92664,-0.63465 1.89595,-0.95731 2.89593,-0.95731 1.27597,0 2.38527,0.45332 3.33325,1.3533 0.94264,0.90665 1.41596,2.10395 1.41596,3.60391 0,1.51596 -0.47865,2.80793 -1.4373,3.8759 -0.95864,1.05731 -2.21861,1.58263 -3.77057,1.58263 -1.2813,0 -2.38527,-0.35866 -3.31325,-1.08264 -0.93197,-0.71865 -1.46796,-1.79195 -1.60396,-3.20925 l 1.95862,-0.14533 c 0.16666,0.97464 0.50532,1.69862 1.02131,2.16661 0.52532,0.47466 1.17197,0.70798 1.93728,0.70798 0.94265,0 1.70796,-0.35332 2.29195,-1.06264 0.59331,-0.71864 0.89464,-1.60929 0.89464,-2.6666 0,-1.06664 -0.30666,-1.90528 -0.91598,-2.51993 -0.59865,-0.62532 -1.3693,-0.93731 -2.31194,-0.93731 -1.2093,0 -2.13595,0.49465 -2.77193,1.47863 l -1.77062,-0.208 1.47996,-7.85447 h 7.58248 v 1.81329 h -6.08252 z"
     fill="none"
     stroke="#ffffff"
     stroke-width="1.06667"
     id="path235" />
  <path
     d="m 620.78448,204.55489 c 0,7.43715 -5.91052,13.46766 -13.20234,13.46766 -7.28648,0 -13.197,-6.03051 -13.197,-13.46766 0,-7.43715 5.91052,-13.469 13.197,-13.469 7.29182,0 13.20234,6.03185 13.20234,13.469 z"
     fill="#1f638a"
     id="path239"
     style="stroke-width:1.3333" />
  <text
     fill="#ffffff"
     font-family="'Arial Nova', 'Arial Unicode MS', 'Yu Gothic UI', sans-serif"
     font-size="21.3328px"
     id="text243"
     x="601.74493"
     y="211.95471"
     style="stroke-width:1.3333"><tspan
       x="601.74493"
       y="211.95471"
       id="tspan241"
       style="stroke-width:1.3333">5</tspan></text>
  <path
     d="m 605.13154,202.76827 c 0.92797,-0.63598 1.89595,-0.95864 2.89593,-0.95864 1.27596,0 2.38527,0.45332 3.33325,1.35463 0.94264,0.90664 1.41729,2.10395 1.41729,3.60391 0,1.51596 -0.47998,2.80793 -1.43729,3.87457 -0.95865,1.05731 -2.21862,1.58396 -3.77058,1.58396 -1.2813,0 -2.38527,-0.35999 -3.31325,-1.08397 -0.93197,-0.71865 -1.46796,-1.79063 -1.60396,-3.20792 l 1.95862,-0.14533 c 0.16666,0.97331 0.50532,1.69729 1.01998,2.16661 0.52665,0.47332 1.17197,0.70798 1.93861,0.70798 0.94265,0 1.70796,-0.35466 2.29061,-1.06264 0.59465,-0.71865 0.89598,-1.60929 0.89598,-2.6666 0,-1.06797 -0.30666,-1.90662 -0.91598,-2.52127 -0.59865,-0.62398 -1.37063,-0.93731 -2.31327,-0.93731 -1.20797,0 -2.13462,0.49466 -2.7706,1.47996 l -1.77062,-0.20932 1.47863,-7.85314 h 7.58381 v 1.81195 h -6.08385 z"
     fill="none"
     stroke="#ffffff"
     stroke-width="1.06667"
     id="path245" />
</svg>
