<?xml version="1.0" encoding="UTF-8"?>
<svg width="491.34" height="245.67" version="1.1" xmlns="http://www.w3.org/2000/svg" xmlns:cc="http://creativecommons.org/ns#" xmlns:dc="http://purl.org/dc/elements/1.1/" xmlns:rdf="http://www.w3.org/1999/02/22-rdf-syntax-ns#" xmlns:xlink="http://www.w3.org/1999/xlink">
 <title>Abbildung für OPEN MIND Softwaredokumentation</title>
 <defs>
  <linearGradient id="linearGradient8284" x1="103.67" x2="105.19" y1="1006.7" y2="830.98" gradientTransform="matrix(1.2254 0 0 1.2254 -68.039 -99.546)" gradientUnits="userSpaceOnUse" xlink:href="#linearGradient17780-7-9-9-6-98"/>
  <linearGradient id="linearGradient17780-7-9-9-6-98">
   <stop stop-color="#fff" offset="0"/>
   <stop stop-color="#00385e" offset="1"/>
  </linearGradient>
  <pattern id="pattern8287" patternTransform="matrix(.055485 .058112 -10.438 9.9661 29.788 822.83)" xlink:href="#pattern5756"/>
  <pattern id="pattern5756" patternTransform="matrix(.052017 .05448 -9.7855 9.3432 10.418 990.52)" xlink:href="#pattern5686-4"/>
  <pattern id="pattern5686-4" patternTransform="matrix(.052017 .05448 -9.7855 9.3432 27.433 771.9)" xlink:href="#pattern4864-3"/>
  <pattern id="pattern4864-3" patternTransform="matrix(.063417 .06642 -11.93 11.391 27.06 765.72)" xlink:href="#pattern35902-9"/>
  <pattern id="pattern35902-9" patternTransform="matrix(.06642 -.063417 11.391 11.93 -85.065 1053.7)" xlink:href="#pattern28286-8-5"/>
  <pattern id="pattern28286-8-5" patternTransform="matrix(.06642 -.063417 11.391 11.93 -85.317 1053.7)" xlink:href="#pattern6666-8-3"/>
  <pattern id="pattern6666-8-3" patternTransform="matrix(.047422 -.045278 8.1327 8.5178 -49.563 1006.3)" xlink:href="#pattern9529-08"/>
  <pattern id="pattern9529-08" patternTransform="matrix(.047422 -.045278 8.1327 8.5178 -49.563 1006.3)" xlink:href="#pattern9496-7-5"/>
  <pattern id="pattern9496-7-5" patternTransform="matrix(.047355 -.045348 8.1452 8.5058 396.14 -51.594)" xlink:href="#pattern9487-78"/>
  <pattern id="pattern9487-78" patternTransform="matrix(.056516 -.039102 6.9938 10.109 354.71 164.31)" xlink:href="#Strips1_64-3"/>
  <pattern id="Strips1_64-3" width="65" height="1" patternTransform="translate(0) scale(10)" patternUnits="userSpaceOnUse">
   <rect y="-.5" width="1" height="2"/>
  </pattern>
  <linearGradient id="linearGradient8290" x1="24.288" x2="22.322" y1="918.57" y2="1189.3" gradientTransform="matrix(0 1.2254 -1.2254 0 1313 891.47)" gradientUnits="userSpaceOnUse" xlink:href="#linearGradient17780-7-9-9-6-98"/>
 </defs>
 <metadata>
  <rdf:RDF>
   <cc:Work rdf:about="">
    <dc:format>image/svg+xml</dc:format>
    <dc:type rdf:resource="http://purl.org/dc/dcmitype/StillImage"/>
    <dc:title>Abbildung für OPEN MIND Softwaredokumentation</dc:title>
    <dc:creator>
     <cc:Agent>
      <dc:title>OPEN MIND Technologies AG</dc:title>
     </cc:Agent>
    </dc:creator>
    <dc:rights>
     <cc:Agent>
      <dc:title>Alle Rechte vorbehalten.</dc:title>
     </cc:Agent>
    </dc:rights>
    <dc:publisher>
     <cc:Agent>
      <dc:title>Technische Redaktion</dc:title>
     </cc:Agent>
    </dc:publisher>
   </cc:Work>
  </rdf:RDF>
 </metadata>
 <g transform="translate(0 -876.85)">
  <g>
   <path d="m187.76 1069.6-0.0232-12.609-10.158-12.978s-44.96 0.021-44.94-0.021v-76.108l55.107-48.308 0.0177-14.658-168.87-0.0344s-0.78778 113.87 0.0073 164.72z" fill="url(#linearGradient8290)" fill-rule="evenodd" stroke="#4d4d4d" stroke-linecap="round" stroke-linejoin="round" stroke-miterlimit="5" stroke-width=".55492"/>
   <path d="m186.61 907.12 1.0704 12.436-55.005 48.337-0.04 76.161 44.893 0.1163 10.197 12.865-0.99363 11.654-166.55 0.7259-1.0299-164.03z" fill="url(#pattern8287)" opacity=".5"/>
   <path d="m18.911 1106-7.59e-4 -36.469 168.85 0.037-0.09 36.562" fill="url(#linearGradient8284)" fill-rule="evenodd" stroke="#4d4d4d" stroke-linecap="round" stroke-linejoin="round" stroke-miterlimit="5" stroke-width=".55492"/>
  </g>
  <path d="m19.459 1105.8 167.7 0.1284" fill="#34679b" stroke="#4d4d4d" stroke-dasharray="6.58257, 3.29129, 1.64564, 3.29129" stroke-linecap="round" stroke-linejoin="round" stroke-width="1.6456"/>
  <polyline transform="matrix(0 -2.8657 2.8591 0 -25.585 1262.1)" points="87.23 41.839 91.62 46.442 91.62 43.445 100.64 43.445 100.64 40.234 91.62 40.234 91.62 37.344 87.23 41.839" fill="#d4aa00" stroke="#000" stroke-linecap="square" stroke-miterlimit="10" stroke-width=".33104"/>
  <g transform="rotate(-90 156.85 940.74)" fill="none" stroke="#d4aa00" stroke-linecap="round" stroke-linejoin="round" stroke-width="3.1589">
   <path d="m129.05 921.14v50.42"/>
   <path d="m57.122 921.13 0.09524 50.034"/>
   <path d="m69.11 921.08-0.19048 50.685"/>
   <path d="m81.098 920.89v50.741"/>
   <path d="m93.086 921.1v50.437"/>
   <path d="m105.07 921.14 0.28571 50.42"/>
   <path d="m117.06 921.14-0.19047 50.324"/>
   <path d="m141.04 934.86 0.0953 36.801"/>
   <path d="m152.74 948.1 0.0952 23.372"/>
   <path d="m164.63 960.57 0.0952 10.991"/>
  </g>
 </g>
</svg>
