<svg version="1.1" viewBox="0 0 460.63 318.9" xmlns="http://www.w3.org/2000/svg">
 <title>Abbildung für OPEN MIND Softwaredokumentation</title>
 <g transform="translate(0 -733.46)">
  <text x="393.36346" y="859.45233" fill="#cfe4c4" font-family="'Arial Nova', 'Arial Unicode MS', 'Yu Gothic UI', sans-serif" font-size="22.966px" letter-spacing="0px" stroke="#cfe4c4" stroke-width=".72881" word-spacing="0px" style="line-height:0%" xml:space="preserve"><tspan x="393.36346" y="859.45233" fill="#cfe4c4" font-family="'Arial Nova', 'Arial Unicode MS', 'Yu Gothic UI', sans-serif" font-size="22.966px" stroke="#cfe4c4" stroke-width=".72881" style="line-height:1.25">Y</tspan></text>
  <line x1="31.809" x2="290.09" y1="985.53" y2="868.51" fill="none" stroke="#4d4d4d" stroke-linecap="square" stroke-miterlimit="10" stroke-width="1.4917"/>
  <g clip-rule="evenodd" fill-rule="evenodd">
   <polygon transform="matrix(2.4293 0 0 2.4293 -179.7 672.53)" points="201.01 77.271 181.89 80.6 186.02 89.713 186.02 89.713" fill="#4d4d4d"/>
   <g stroke="#4d4d4d" stroke-width=".25">
    <polyline transform="matrix(1.455 0 0 1.455 17.533 747.05)" points="32.743 159.38 55.009 159.35 32.853 169.83" fill="#087323"/>
    <polyline transform="matrix(1.455 0 0 1.455 17.533 747.05)" points="32.743 159.38 55.116 159.38 27.762 153.9" fill="#7ab51d"/>
    <polygon transform="matrix(1.455 0 0 1.455 17.533 747.05)" points="27.813 154.07 27.813 154.07 32.743 159.38 32.743 169.63 28.193 163.93" fill="#52801a"/>
    <polygon transform="matrix(1.455 0 0 1.455 17.533 747.05)" points="29.33 159.38 29.33 159.38 8.095 162.42 9.611 163.93 30.847 160.9" fill="#7ab51d"/>
    <polygon transform="matrix(1.455 0 0 1.455 17.533 747.05)" points="30.847 160.9 30.847 160.9 9.611 163.93 9.611 166.97 30.847 163.93" fill="#087323"/>
    <polygon transform="matrix(1.455 0 0 1.455 17.533 747.05)" points="6.577 166.59 6.577 166.59 5.06 164.79 5.06 151.3 6.577 151.75" fill="#13385e"/>
    <polyline transform="matrix(1.455 0 0 1.455 17.533 747.05)" points="8.474 122.52 0.131 149.08 0.131 149.08 1.6 153.76" fill="#13385e"/>
    <polygon transform="matrix(1.455 0 0 1.455 17.533 747.05)" points="9.232 153.69 9.232 153.69 9.232 166.97 6.577 166.97 6.577 153.69" fill="#34679b"/>
    <polygon transform="matrix(1.455 0 0 1.455 17.533 747.05)" points="8.474 122.19 14.541 153.69 14.541 153.69 1.648 153.69" fill="#34679b"/>
    <polyline transform="matrix(1.455 0 0 1.455 17.533 747.05)" points="6.59 163.99 6.577 166.97 12.266 171.52 12.266 168.27" fill="#b51621"/>
    <polygon transform="matrix(1.455 0 0 1.455 17.533 747.05)" points="15.678 168.87 15.678 168.87 9.611 163.93 6.577 163.93 12.646 168.87" fill="#e2001a"/>
    <polyline transform="matrix(1.455 0 0 1.455 17.533 747.05)" points="28.193 184.04 9.232 175.7 9.232 175.7 9.232 167.35" fill="#b51621"/>
    <polygon transform="matrix(1.455 0 0 1.455 17.533 747.05)" points="28.193 184.05 21.367 166.21 21.367 166.21 9.232 167.35" fill="#e2001a"/>
   </g>
  </g>
  <g stroke="#4d4d4d">
   <g stroke-width=".25">
    <polyline transform="matrix(1.455 0 0 1.455 17.533 747.05)" points="226.48 66.557 230.69 70.963 230.69 81.208 225.76 75.136 225.72 66.666" fill="#cfe4c4" stroke-linecap="square" stroke-miterlimit="10"/>
    <polygon transform="matrix(1.455 0 0 1.455 17.533 747.05)" points="253.98 69.394 230.7 81.232 230.7 81.232 230.68 70.987" clip-rule="evenodd" fill="#cfe4c4" fill-rule="evenodd"/>
    <polygon transform="matrix(1.455 0 0 1.455 17.533 747.05)" points="227.28 70.582 227.28 70.582 206.04 73.618 207.18 75.516 228.42 72.1" clip-rule="evenodd" fill="#cfe4c3" fill-rule="evenodd"/>
    <polyline transform="matrix(1.455 0 0 1.455 17.533 747.05)" points="227.28 70.582 206.04 73.618 207.18 75.516 228.42 72.1 227.28 70.582" fill="none" stroke-linecap="square" stroke-miterlimit="10"/>
    <polygon transform="matrix(1.455 0 0 1.455 17.533 747.05)" points="228.42 72.1 228.42 72.1 207.18 75.516 207.18 78.171 228.42 75.136" clip-rule="evenodd" fill="#cfe4c4" fill-rule="evenodd"/>
    <polygon transform="matrix(1.455 0 0 1.455 17.533 747.05)" points="206.04 73.618 206.04 73.618 207.18 75.136 207.18 78.171 206.04 76.653" clip-rule="evenodd" fill="#cfe4c3" fill-rule="evenodd"/>
   </g>
   <g stroke-linecap="square" stroke-miterlimit="10" stroke-width=".25">
    <polyline transform="matrix(1.455 0 0 1.455 17.533 747.05)" points="206.04 73.618 207.18 75.136 207.18 78.171 206.04 76.653 206.04 73.618" fill="none"/>
    <polyline transform="matrix(1.455 0 0 1.455 17.533 747.05)" points="183.29 47.433 209.08 72.858 207.56 77.793 181.77 51.607 183.29 47.433" fill="#34679b"/>
    <polyline transform="matrix(1.455 0 0 1.455 17.533 747.05)" points="207.56 77.793 202.25 77.413 176.84 51.988 182.15 51.988 207.56 77.793" fill="#13385e"/>
   </g>
   <polygon transform="matrix(1.455 0 0 1.455 17.533 747.05)" points="150.68 17.835 196.19 39.845 196.19 39.845 189.36 60.336" clip-rule="evenodd" fill="#34679b" fill-rule="evenodd" stroke-width=".25"/>
   <polygon transform="matrix(1.455 0 0 1.455 17.533 747.05)" points="150.64 17.775 167.7 63.313 167.7 63.313 189.36 60.336" clip-rule="evenodd" fill="#13385e" fill-rule="evenodd" stroke-width=".25"/>
   <g stroke-linecap="square" stroke-miterlimit="10">
    <path d="m292.5 834.84" fill="none" stroke-width=".36376"/>
    <path d="m262.16 838.15" fill="none" stroke-width=".36376"/>
    <g stroke-width=".25">
     <polyline transform="matrix(1.455 0 0 1.455 17.533 747.05)" points="198.84 107.39 209.46 78.931 206.95 76.815 196.56 103.98 198.84 107.39" fill="#e2001a"/>
     <polyline transform="matrix(1.455 0 0 1.455 17.533 747.05)" points="207.18 76.653 202.92 75.99 190.88 104.36 196.19 104.36 207.18 76.653" fill="#b51621"/>
     <polyline transform="matrix(1.455 0 0 1.455 17.533 747.05)" points="212.49 111.56 197.32 97.905 179.88 146.86 212.49 111.56" fill="#e2001a"/>
     <polyline transform="matrix(1.455 0 0 1.455 17.533 747.05)" points="181.02 100.56 197.32 97.905 179.88 146.48 181.02 100.56" fill="#b51621"/>
     <polyline transform="matrix(1.455 0 0 1.455 17.533 747.05)" points="242.45 59.957 206.62 72.013 206.8 76.274 241.31 64.511 242.45 59.957" fill="#7ab51d"/>
     <polyline transform="matrix(1.455 0 0 1.455 17.533 747.05)" points="206.8 76.274 210.21 78.931 245.1 67.547 241.31 64.511 206.8 76.274" fill="#087323"/>
     <polyline transform="matrix(1.455 0 0 1.455 17.533 747.05)" points="236.76 48.193 231.83 66.787 279.61 53.506 236.76 48.193" fill="#7ab51d"/>
     <polyline transform="matrix(1.455 0 0 1.455 17.533 747.05)" points="246.24 79.689 232.21 66.787 279.23 53.506 246.24 79.689" fill="#087323"/>
     <polyline transform="matrix(1.455 0 0 1.455 17.533 747.05)" points="207.18 65.271 207.18 78.082 204.15 78.082 204.15 65.271 207.18 65.271" fill="#d2dadd"/>
    </g>
   </g>
   <g stroke-width=".25">
    <polygon transform="matrix(1.455 0 0 1.455 17.533 747.05)" points="204.15 78.171 204.15 78.171 203.01 76.653 203.01 64.891 204.15 65.271" clip-rule="evenodd" fill="#d2dadd" fill-rule="evenodd"/>
    <polyline transform="matrix(1.455 0 0 1.455 17.533 747.05)" points="204.18 75.324 204.16 78.334 210.21 83.105 210.21 80.069" fill="#f5b3b3" stroke-linecap="square" stroke-miterlimit="10"/>
    <polyline transform="matrix(1.455 0 0 1.455 17.533 747.05)" points="212.11 65.271 199.6 65.271 206.42 33.773 212.11 65.271" fill="#d2dadd" stroke-linecap="square" stroke-miterlimit="10"/>
    <polygon transform="matrix(1.455 0 0 1.455 17.533 747.05)" points="206.42 34.152 197.7 60.336 197.7 60.336 199.6 65.271" clip-rule="evenodd" fill="#d2dadd" fill-rule="evenodd"/>
   </g>
  </g>
  <g fill="#f5b3b3" stroke="#4d4d4d" stroke-width=".25">
   <polygon transform="matrix(1.455 0 0 1.455 17.533 747.05)" points="213.25 80.069 213.25 80.069 207.06 75.391 204.4 75.391 210.21 80.069" clip-rule="evenodd" fill-rule="evenodd"/>
   <polyline transform="matrix(1.455 0 0 1.455 17.533 747.05)" points="218.94 77.793 206.8 78.931 225.76 95.628 218.94 77.793" stroke-linecap="square" stroke-miterlimit="10"/>
   <polygon transform="matrix(1.455 0 0 1.455 17.533 747.05)" points="225.76 95.628 207.18 87.658 207.18 87.658 206.8 78.931" clip-rule="evenodd" fill-rule="evenodd"/>
  </g>
  <path d="m303.54 821.04c30.944-2.3222-30.141 51.405-24.827 22.087" fill="none" stroke="#0080b6" stroke-linecap="square" stroke-miterlimit="10" stroke-width="1.0913"/>
  <path d="m291.4 885.64c-17.732-26.511 60.2 3.4077 30.899 11.597" fill="none" stroke="#e85236" stroke-linecap="square" stroke-miterlimit="10" stroke-width="1.0913"/>
  <g clip-rule="evenodd" fill-rule="evenodd">
   <polygon transform="matrix(1.455 0 0 1.455 17.533 747.05)" points="177.52 66.917 181.27 68.071 181.27 68.071 181.51 60.441" fill="#0080b6"/>
   <polygon transform="matrix(1.455 0 0 1.455 17.533 747.05)" points="198.91 52.575 198.27 48.707 198.27 48.707 191.33 51.89" fill="#0080b6"/>
   <polygon transform="matrix(1.455 0 0 1.455 17.533 747.05)" points="211.22 104.55 210.44 100.71 210.44 100.71 203.63 104.15" fill="#e85236"/>
   <polygon transform="matrix(1.455 0 0 1.455 17.533 747.05)" points="188.72 92.375 185.56 94.691 185.56 94.691 191.54 99.437" fill="#e85236"/>
  </g>
  <g font-family="'Arial Nova', 'Arial Unicode MS', 'Yu Gothic UI', sans-serif" font-size="22.966px" letter-spacing="0px" stroke-width=".72881" word-spacing="0px">
   <text x="22.923162" y="920.93799" fill="#34679b" stroke="#34679b" style="line-height:0%" xml:space="preserve"><tspan x="22.923162" y="920.93799" fill="#34679b" font-family="'Arial Nova', 'Arial Unicode MS', 'Yu Gothic UI', sans-serif" font-size="22.966px" stroke="#34679b" stroke-width=".72881" style="line-height:1.25">Z</tspan></text>
   <text x="219.37662" y="770.61304" fill="#34679b" stroke="#34679b" style="line-height:0%" xml:space="preserve"><tspan x="219.37662" y="770.61304" fill="#34679b" font-family="'Arial Nova', 'Arial Unicode MS', 'Yu Gothic UI', sans-serif" font-size="22.966px" stroke="#34679b" stroke-width=".72881" style="line-height:1.25">Z</tspan></text>
   <text x="310.42004" y="790.12592" fill="#d2dadd" stroke="#d2dadd" style="line-height:0%" xml:space="preserve"><tspan x="310.42004" y="790.12592" fill="#d2dadd" font-family="'Arial Nova', 'Arial Unicode MS', 'Yu Gothic UI', sans-serif" font-size="22.966px" stroke="#d2dadd" stroke-width=".72881" style="line-height:1.25">Z</tspan></text>
   <text x="345.84845" y="907.34949" fill="#f5b3b3" stroke="#f5b3b3" style="line-height:0%" xml:space="preserve"><tspan x="345.84845" y="907.34949" fill="#f5b3b3" font-family="'Arial Nova', 'Arial Unicode MS', 'Yu Gothic UI', sans-serif" font-size="22.966px" stroke="#f5b3b3" stroke-width=".72881" style="line-height:1.25">X</tspan></text>
   <text x="100.00145" y="988.80566" fill="#34679b" stroke="#34679b" style="line-height:0%" xml:space="preserve"><tspan x="100.00145" y="988.80566" fill="#7ab51d" font-family="'Arial Nova', 'Arial Unicode MS', 'Yu Gothic UI', sans-serif" font-size="22.966px" stroke="#7ab51d" stroke-width=".72881" style="line-height:1.25">Y</tspan></text>
   <text x="428.40372" y="827.46753" fill="#34679b" stroke="#34679b" style="line-height:0%" xml:space="preserve"><tspan x="428.40372" y="827.46753" fill="#7ab51d" font-family="'Arial Nova', 'Arial Unicode MS', 'Yu Gothic UI', sans-serif" font-size="22.966px" stroke="#7ab51d" stroke-width=".72881" style="line-height:1.25">Y</tspan></text>
   <text x="57.87199" y="1033.9626" fill="#ff001a" stroke="#f90000" style="line-height:0%" xml:space="preserve"><tspan x="57.87199" y="1033.9626" fill="#ff001a" font-family="'Arial Nova', 'Arial Unicode MS', 'Yu Gothic UI', sans-serif" font-size="22.966px" stroke="#f90000" stroke-width=".72881" style="line-height:1.25">X</tspan></text>
   <text x="270.79617" y="980.6131" fill="#ff001a" stroke="#f90000" style="line-height:0%" xml:space="preserve"><tspan x="270.79617" y="980.6131" fill="#ff001a" font-family="'Arial Nova', 'Arial Unicode MS', 'Yu Gothic UI', sans-serif" font-size="22.966px" stroke="#f90000" stroke-width=".72881" style="line-height:1.25">X</tspan></text>
  </g>
 </g>
</svg>
