<svg version="1.1" viewBox="0 0 637.8 318.9" xmlns="http://www.w3.org/2000/svg" xmlns:xlink="http://www.w3.org/1999/xlink">
 <title>Abbildung fuer OPEN MIND Softwaredokumentation</title>
 <defs>
  <linearGradient id="linearGradient8230" x1="-406.95" x2="-248.67" y1="-26.415" y2="135.44" gradientTransform="matrix(1.0021 0 0 .51427 -161.58 601)" gradientUnits="userSpaceOnUse">
   <stop stop-color="#cccccc" offset="0"/>
   <stop stop-color="#cccccc" stop-opacity="0" offset="1"/>
  </linearGradient>
  <linearGradient id="linearGradient4361" x1="230.4" x2="450.01" y1="216.75" y2="255.28" gradientTransform="matrix(1.2125 0 0 1.4477 -179.84 -27.102)" gradientUnits="userSpaceOnUse">
   <stop stop-color="#ffffff" offset="0"/>
   <stop stop-color="#00385e" offset="1"/>
  </linearGradient>
  <linearGradient id="linearGradient16393" x1="253.14" x2="974.56" y1="-173.55" y2="79.669" gradientUnits="userSpaceOnUse">
   <stop stop-color="#ffffff" offset="0"/>
   <stop stop-color="#00385e" offset="1"/>
  </linearGradient>
  <linearGradient id="linearGradient13869" x1="458.71" x2="568.27" y1="943.56" y2="944.04" gradientTransform="matrix(1.5868 0 0 1 -681.96 -663.54)" gradientUnits="userSpaceOnUse">
   <stop stop-color="#ffffff" offset="0"/>
   <stop stop-color="#00385e" offset="1"/>
  </linearGradient>
  <linearGradient id="linearGradient13872" x1="458.71" x2="568.27" y1="943.56" y2="944.04" gradientTransform="matrix(1.5848 0 0 1 -680.99 -668.54)" gradientUnits="userSpaceOnUse">
   <stop stop-color="#ffffff" offset="0"/>
   <stop stop-color="#00385e" offset="1"/>
  </linearGradient>
  <linearGradient id="linearGradient13875" x1="458.71" x2="568.27" y1="943.56" y2="944.04" gradientTransform="matrix(1.5865 0 0 1 -682.14 -674.25)" gradientUnits="userSpaceOnUse">
   <stop stop-color="#ffffff" offset="0"/>
   <stop stop-color="#00385e" offset="1"/>
  </linearGradient>
  <linearGradient id="linearGradient13900" x1="458.71" x2="568.27" y1="943.56" y2="944.04" gradientTransform="matrix(1.5889 0 0 1 -683.27 -711.39)" gradientUnits="userSpaceOnUse">
   <stop stop-color="#ffffff" offset="0"/>
   <stop stop-color="#00385e" offset="1"/>
  </linearGradient>
  <linearGradient id="linearGradient13903" x1="458.71" x2="568.27" y1="943.56" y2="944.04" gradientTransform="matrix(1.5909 0 0 1 -684.4 -716.22)" gradientUnits="userSpaceOnUse">
   <stop stop-color="#ffffff" offset="0"/>
   <stop stop-color="#00385e" offset="1"/>
  </linearGradient>
  <linearGradient id="linearGradient13906" x1="458.71" x2="568.27" y1="943.56" y2="944.04" gradientTransform="matrix(1.5826 0 0 1 -680.07 -721.93)" gradientUnits="userSpaceOnUse">
   <stop stop-color="#ffffff" offset="0"/>
   <stop stop-color="#00385e" offset="1"/>
  </linearGradient>
  <linearGradient id="linearGradient13909" x1="458.71" x2="568.27" y1="943.56" y2="944.04" gradientTransform="matrix(1.5886 0 0 1 -683.12 -727.11)" gradientUnits="userSpaceOnUse">
   <stop stop-color="#ffffff" offset="0"/>
   <stop stop-color="#00385e" offset="1"/>
  </linearGradient>
  <linearGradient id="linearGradient13912" x1="458.71" x2="568.27" y1="943.56" y2="944.04" gradientTransform="matrix(1.5841 0 0 1 -680.94 -732.64)" gradientUnits="userSpaceOnUse">
   <stop stop-color="#ffffff" offset="0"/>
   <stop stop-color="#00385e" offset="1"/>
  </linearGradient>
  <linearGradient id="linearGradient13929" x1="458.71" x2="568.27" y1="943.56" y2="944.04" gradientTransform="matrix(1.5869 0 0 1 -682.33 -706.22)" gradientUnits="userSpaceOnUse">
   <stop stop-color="#ffffff" offset="0"/>
   <stop stop-color="#00385e" offset="1"/>
  </linearGradient>
  <linearGradient id="linearGradient13959" x1="458.71" x2="568.27" y1="943.56" y2="944.04" gradientTransform="matrix(1.5866 0 0 1 -682.19 -679.43)" gradientUnits="userSpaceOnUse">
   <stop stop-color="#ffffff" offset="0"/>
   <stop stop-color="#00385e" offset="1"/>
  </linearGradient>
  <linearGradient id="linearGradient13962" x1="458.71" x2="568.27" y1="943.56" y2="944.04" gradientTransform="matrix(1.5825 0 0 1 -680.07 -684.72)" gradientUnits="userSpaceOnUse">
   <stop stop-color="#ffffff" offset="0"/>
   <stop stop-color="#00385e" offset="1"/>
  </linearGradient>
  <linearGradient id="linearGradient13965" x1="458.71" x2="568.27" y1="943.56" y2="944.04" gradientTransform="matrix(1.5823 0 0 1 -679.76 -690.22)" gradientUnits="userSpaceOnUse">
   <stop stop-color="#ffffff" offset="0"/>
   <stop stop-color="#00385e" offset="1"/>
  </linearGradient>
  <linearGradient id="linearGradient13968" x1="458.71" x2="568.27" y1="943.56" y2="944.04" gradientTransform="matrix(1.5802 0 0 1 -678.79 -695.36)" gradientUnits="userSpaceOnUse">
   <stop stop-color="#ffffff" offset="0"/>
   <stop stop-color="#00385e" offset="1"/>
  </linearGradient>
  <linearGradient id="linearGradient13971" x1="458.71" x2="568.27" y1="943.56" y2="944.04" gradientTransform="matrix(1.582 0 0 1 -679.6 -700.32)" gradientUnits="userSpaceOnUse">
   <stop stop-color="#ffffff" offset="0"/>
   <stop stop-color="#00385e" offset="1"/>
  </linearGradient>
  <linearGradient id="linearGradient13988" x1="458.71" x2="568.27" y1="943.56" y2="944.04" gradientTransform="matrix(1.5868 0 0 1 -681.85 -658.18)" gradientUnits="userSpaceOnUse">
   <stop stop-color="#ffffff" offset="0"/>
   <stop stop-color="#00385e" offset="1"/>
  </linearGradient>
  <linearGradient id="linearGradient14022" x1="458.71" x2="568.27" y1="943.56" y2="944.04" gradientTransform="matrix(1.5868 0 0 1 -682.02 -652.82)" gradientUnits="userSpaceOnUse">
   <stop stop-color="#ffffff" offset="0"/>
   <stop stop-color="#00385e" offset="1"/>
  </linearGradient>
  <linearGradient id="linearGradient14056" x1="458.71" x2="568.27" y1="943.56" y2="944.04" gradientTransform="matrix(1.5868 0 0 1 -682.02 -647.47)" gradientUnits="userSpaceOnUse">
   <stop stop-color="#ffffff" offset="0"/>
   <stop stop-color="#00385e" offset="1"/>
  </linearGradient>
  <linearGradient id="linearGradient15807" x1="458.71" x2="568.27" y1="943.56" y2="944.04" gradientTransform="matrix(2.0308 0 0 1 -702.53 -663.36)" gradientUnits="userSpaceOnUse">
   <stop stop-color="#ffffff" offset="0"/>
   <stop stop-color="#00385e" offset="1"/>
  </linearGradient>
  <linearGradient id="linearGradient15810" x1="458.71" x2="568.27" y1="943.56" y2="944.04" gradientTransform="matrix(1.9638 0 0 1 -667.03 -668.54)" gradientUnits="userSpaceOnUse">
   <stop stop-color="#ffffff" offset="0"/>
   <stop stop-color="#00385e" offset="1"/>
  </linearGradient>
  <linearGradient id="linearGradient15813" x1="458.71" x2="568.27" y1="943.56" y2="944.04" gradientTransform="matrix(1.9049 0 0 1 -636.34 -673.89)" gradientUnits="userSpaceOnUse">
   <stop stop-color="#ffffff" offset="0"/>
   <stop stop-color="#00385e" offset="1"/>
  </linearGradient>
  <linearGradient id="linearGradient15816" x1="458.71" x2="568.27" y1="943.56" y2="944.04" gradientTransform="matrix(1.84 0 0 1 -602.3 -679.07)" gradientUnits="userSpaceOnUse">
   <stop stop-color="#ffffff" offset="0"/>
   <stop stop-color="#00385e" offset="1"/>
  </linearGradient>
  <linearGradient id="linearGradient15819" x1="458.71" x2="568.27" y1="943.56" y2="944.04" gradientTransform="matrix(1.7852 0 0 1 -573.36 -684.64)" gradientUnits="userSpaceOnUse">
   <stop stop-color="#ffffff" offset="0"/>
   <stop stop-color="#00385e" offset="1"/>
  </linearGradient>
  <linearGradient id="linearGradient15822" x1="458.71" x2="568.27" y1="943.56" y2="944.04" gradientTransform="matrix(1.7207 0 0 1 -539.54 -690)" gradientUnits="userSpaceOnUse">
   <stop stop-color="#ffffff" offset="0"/>
   <stop stop-color="#00385e" offset="1"/>
  </linearGradient>
  <linearGradient id="linearGradient15825" x1="458.71" x2="568.27" y1="943.56" y2="944.04" gradientTransform="matrix(1.6529 0 0 1 -504.21 -695.71)" gradientUnits="userSpaceOnUse">
   <stop stop-color="#ffffff" offset="0"/>
   <stop stop-color="#00385e" offset="1"/>
  </linearGradient>
  <linearGradient id="linearGradient15843" x1="458.71" x2="568.27" y1="943.56" y2="944.04" gradientTransform="matrix(1.3968 0 0 1 -370.74 -727.14)" gradientUnits="userSpaceOnUse">
   <stop stop-color="#ffffff" offset="0"/>
   <stop stop-color="#00385e" offset="1"/>
  </linearGradient>
  <linearGradient id="linearGradient15846" x1="458.71" x2="568.27" y1="943.56" y2="944.04" gradientTransform="matrix(1.4019 0 0 1 -373.11 -732.32)" gradientUnits="userSpaceOnUse">
   <stop stop-color="#ffffff" offset="0"/>
   <stop stop-color="#00385e" offset="1"/>
  </linearGradient>
  <linearGradient id="linearGradient15850" x1="230.4" x2="450.01" y1="216.75" y2="255.28" gradientTransform="matrix(1.2125 0 0 1.4477 32.444 -26.533)" gradientUnits="userSpaceOnUse">
   <stop stop-color="#ffffff" offset="0"/>
   <stop stop-color="#00385e" offset="1"/>
  </linearGradient>
  <linearGradient id="linearGradient19056" x1="458.71" x2="568.27" y1="943.56" y2="944.04" gradientTransform="matrix(1.5929 0 0 1 -472.73 -700.71)" gradientUnits="userSpaceOnUse">
   <stop stop-color="#ffffff" offset="0"/>
   <stop stop-color="#00385e" offset="1"/>
  </linearGradient>
  <linearGradient id="linearGradient19059" x1="458.71" x2="568.27" y1="943.56" y2="944.04" gradientTransform="matrix(1.5276 0 0 1 -438.64 -706.07)" gradientUnits="userSpaceOnUse">
   <stop stop-color="#ffffff" offset="0"/>
   <stop stop-color="#00385e" offset="1"/>
  </linearGradient>
  <linearGradient id="linearGradient19062" x1="458.71" x2="568.27" y1="943.56" y2="944.04" gradientTransform="matrix(1.4725 0 0 1 -410.03 -711.25)" gradientUnits="userSpaceOnUse">
   <stop stop-color="#ffffff" offset="0"/>
   <stop stop-color="#00385e" offset="1"/>
  </linearGradient>
  <linearGradient id="linearGradient19065" x1="458.71" x2="568.27" y1="943.56" y2="944.04" gradientTransform="matrix(1.4062 0 0 1 -375.74 -716.93)" gradientUnits="userSpaceOnUse">
   <stop stop-color="#ffffff" offset="0"/>
   <stop stop-color="#00385e" offset="1"/>
  </linearGradient>
  <linearGradient id="linearGradient19068" x1="458.71" x2="568.27" y1="943.56" y2="944.04" gradientTransform="matrix(1.3983 0 0 1 -371.45 -722.19)" gradientUnits="userSpaceOnUse">
   <stop stop-color="#ffffff" offset="0"/>
   <stop stop-color="#00385e" offset="1"/>
  </linearGradient>
 </defs>
 <g transform="translate(0 -733.46)" fill="none">
  <path d="m-568.71 757.58v-169.34h388.72" color="#000000" stroke="url(#linearGradient8230)" stroke-linecap="round" stroke-linejoin="round" stroke-miterlimit="7" stroke-width=".96726"/>
  <path transform="matrix(1.7104 0 0 1.7104 -521.87 624.98)" d="m375.36 86.755c0 3.0573-2.6383 5.5357-5.8929 5.5357-3.2545 0-5.8928-2.4784-5.8928-5.5357 0-3.0573 2.6383-5.5357 5.8928-5.5357 3.2545 0 5.8929 2.4784 5.8929 5.5357z" opacity=".46128"/>
  <path transform="matrix(1.7104 0 0 1.7104 -521.87 624.98)" d="m376.07 92.737c0 1.2328-0.99937 2.2321-2.2322 2.2321-1.2328 0-2.2321-0.99936-2.2321-2.2321 0-1.2328 0.99937-2.2321 2.2321-2.2321 1.2328 0 2.2322 0.99936 2.2322 2.2321z" opacity=".46128"/>
  <path transform="matrix(1.7104 0 0 1.7104 -521.87 624.98)" d="m460.89 104.49c0 2.7926-1.3991 5.0564-3.125 5.0564s-3.125-2.2638-3.125-5.0564 1.3991-5.0564 3.125-5.0564 3.125 2.2638 3.125 5.0564z" opacity=".46128"/>
 </g>
 <g transform="translate(0 -4.2135e-5)">
  <g stroke-linecap="round">
   <path d="m80.3 202.73h138.41" fill="#ff0000" stroke="#800080" stroke-width="3.3465"/>
   <g stroke-linejoin="round">
    <path transform="matrix(.77572 0 0 .77572 -141.78 239.22)" d="m499.02-173.55c0 67.784-54.95 122.73-122.73 122.73s-122.73-54.95-122.73-122.73c0-67.784 54.95-122.73 122.73-122.73s122.73 54.95 122.73 122.73z" fill="url(#linearGradient16393)" stroke="#4d4d4d" stroke-width=".81763"/>
    <path transform="matrix(.55743 0 0 .55743 -60.907 200.08)" d="m499.02-173.55c0 67.784-54.95 122.73-122.73 122.73s-122.73-54.95-122.73-122.73c0-67.784 54.95-122.73 122.73-122.73s122.73 54.95 122.73 122.73z" fill="none" stroke="#ffcc00" stroke-width="4.5317"/>
    <path d="m313.63 206.52 97.352-0.22812 47.008 93.828-191.77 0.073z" fill="url(#linearGradient15850)" stroke="#4d4d4d" stroke-width=".63425"/>
   </g>
   <path d="m294.12 203.59h135.61" fill="#ff0000" stroke="#800080" stroke-width="3.3126"/>
  </g>
  <g stroke="#d4aa00" stroke-linecap="round" stroke-linejoin="round">
   <g stroke-width="1.7717">
    <path d="m301.21 211.73h121.49" color="#000000" fill="url(#linearGradient15846)"/>
    <path d="m301.15 216.9h121.05" color="#000000" fill="url(#linearGradient15843)"/>
    <path d="m301.12 221.85h121.18" color="#000000" fill="url(#linearGradient19068)"/>
   </g>
   <path d="m300.64 227.11h121.86" color="#000000" fill="url(#linearGradient19065)" stroke-width="1.7768"/>
   <g stroke-width="1.7717">
    <path d="m298.24 232.8h127.61" color="#000000" fill="url(#linearGradient19062)"/>
    <path d="m296.14 237.98h132.38" color="#000000" fill="url(#linearGradient19059)"/>
    <path d="m293.44 243.33h138.04" color="#000000" fill="url(#linearGradient19056)"/>
    <path d="m290.84 248.33h143.24" color="#000000" fill="url(#linearGradient15825)"/>
    <path d="m288.13 254.05h149.12" color="#000000" fill="url(#linearGradient15822)"/>
    <path d="m285.36 259.4h154.71" color="#000000" fill="url(#linearGradient15819)"/>
    <path d="m282.75 264.97h159.46" color="#000000" fill="url(#linearGradient15816)"/>
    <path d="m279.94 270.15h165.08" color="#000000" fill="url(#linearGradient15813)"/>
    <path d="m277.57 275.5h170.19" color="#000000" fill="url(#linearGradient15810)"/>
    <path d="m274.31 280.68h175.99" color="#000000" fill="url(#linearGradient15807)"/>
   </g>
  </g>
  <g fill="none" stroke="#d4aa00" stroke-linecap="round" stroke-linejoin="round">
   <path transform="matrix(.4882 0 0 .4882 178.13 189.63)" d="m499.02-173.55c0 67.784-54.95 122.73-122.73 122.73s-122.73-54.95-122.73-122.73c0-67.784 54.95-122.73 122.73-122.73s122.73 54.95 122.73 122.73z" stroke-width="1.2992"/>
   <path transform="matrix(.45949 0 0 .45949 189.32 185.07)" d="m499.02-173.55c0 67.784-54.95 122.73-122.73 122.73s-122.73-54.95-122.73-122.73c0-67.784 54.95-122.73 122.73-122.73s122.73 54.95 122.73 122.73z" stroke-width="1.3803"/>
   <path transform="matrix(.43063 0 0 .43063 200.18 181.13)" d="m499.02-173.55c0 67.784-54.95 122.73-122.73 122.73s-122.73-54.95-122.73-122.73c0-67.784 54.95-122.73 122.73-122.73s122.73 54.95 122.73 122.73z" stroke-width="1.4729"/>
   <path transform="matrix(.40177 0 0 .40177 211.04 177.2)" d="m499.02-173.55c0 67.784-54.95 122.73-122.73 122.73s-122.73-54.95-122.73-122.73c0-67.784 54.95-122.73 122.73-122.73s122.73 54.95 122.73 122.73z" stroke-width="1.5787"/>
   <path transform="matrix(.40177 0 0 .40177 202.11 166.13)" d="m499.02-173.55c0 67.784-54.95 122.73-122.73 122.73s-122.73-54.95-122.73-122.73c0-67.784 54.95-122.73 122.73-122.73s122.73 54.95 122.73 122.73z" stroke-width="1.5787"/>
  </g>
  <g transform="translate(212 .65301)" stroke-linecap="round" stroke-linejoin="round">
   <path transform="matrix(.77572 0 0 .77572 -141.78 239.22)" d="m499.02-173.55c0 67.784-54.95 122.73-122.73 122.73s-122.73-54.95-122.73-122.73c0-67.784 54.95-122.73 122.73-122.73s122.73 54.95 122.73 122.73z" fill="url(#linearGradient16393)" stroke="#4d4d4d" stroke-width=".81763"/>
   <path transform="matrix(.54733 0 0 .54733 -56.863 199.69)" d="m499.02-173.55c0 67.784-54.95 122.73-122.73 122.73s-122.73-54.95-122.73-122.73c0-67.784 54.95-122.73 122.73-122.73s122.73 54.95 122.73 122.73z" fill="none" stroke="#ffcc00" stroke-width="4.5317"/>
  </g>
  <g fill="none" stroke="#d4aa00" stroke-linecap="round" stroke-linejoin="round">
   <path transform="matrix(.50794 0 0 .50794 170.09 193.7)" d="m499.02-173.55c0 67.784-54.95 122.73-122.73 122.73s-122.73-54.95-122.73-122.73c0-67.784 54.95-122.73 122.73-122.73s122.73 54.95 122.73 122.73z" stroke-width="1.2613"/>
   <path transform="matrix(.56141 0 0 .56141 149.97 202.98)" d="m499.02-173.55c0 67.784-54.95 122.73-122.73 122.73s-122.73-54.95-122.73-122.73c0-67.784 54.95-122.73 122.73-122.73s122.73 54.95 122.73 122.73z" stroke-width="1.1412"/>
   <path transform="matrix(.58948 0 0 .58948 139.4 207.85)" d="m499.02-173.55c0 67.784-54.95 122.73-122.73 122.73s-122.73-54.95-122.73-122.73c0-67.784 54.95-122.73 122.73-122.73s122.73 54.95 122.73 122.73z" stroke-width="1.0868"/>
   <path transform="matrix(.61895 0 0 .61895 128.31 212.96)" d="m499.02-173.55c0 67.784-54.95 122.73-122.73 122.73s-122.73-54.95-122.73-122.73c0-67.784 54.95-122.73 122.73-122.73s122.73 54.95 122.73 122.73z" stroke-width="1.0351"/>
   <path transform="matrix(.6499 0 0 .6499 116.67 218.34)" d="m499.02-173.55c0 67.784-54.95 122.73-122.73 122.73s-122.73-54.95-122.73-122.73c0-67.784 54.95-122.73 122.73-122.73s122.73 54.95 122.73 122.73z" stroke-width=".98579"/>
   <path transform="matrix(.6824 0 0 .6824 104.44 223.97)" d="m499.02-173.55c0 67.784-54.95 122.73-122.73 122.73s-122.73-54.95-122.73-122.73c0-67.784 54.95-122.73 122.73-122.73s122.73 54.95 122.73 122.73z" stroke-width=".93885"/>
   <path transform="matrix(.71652 0 0 .71652 91.602 229.9)" d="m499.02-173.55c0 67.784-54.95 122.73-122.73 122.73s-122.73-54.95-122.73-122.73c0-67.784 54.95-122.73 122.73-122.73s122.73 54.95 122.73 122.73z" stroke-width=".89414"/>
  </g>
  <g transform="translate(-94.082 -739.13)">
   <text x="136.19841" y="847.70477" fill="#000000" font-family="sans-serif" letter-spacing="0px" stroke="#000000" word-spacing="0px" style="line-height:0%" xml:space="preserve"><tspan x="136.19841" y="847.70477" fill="#ff0000" font-family="sans-serif" font-size="10px" stroke="#000000" style="line-height:1.25">X</tspan></text>
   <text x="107.01142" y="817.10535" fill="#000000" font-family="sans-serif" letter-spacing="0px" stroke="#000000" word-spacing="0px" style="line-height:0%" xml:space="preserve"><tspan x="107.01142" y="817.10535" fill="#ff0000" font-family="sans-serif" font-size="10px" stroke="#000000" style="line-height:1.25">Y</tspan></text>
   <g transform="translate(.75761)">
    <g stroke="#000000" stroke-linecap="round" stroke-linejoin="round" stroke-width=".70866">
     <path d="m103.14 816.4 0.11958 27.151" fill="#800080"/>
     <path d="m103.18 809.87 3.4666 14.35h-6.9332c1.228-7.2721 3.4666-14.35 3.4666-14.35z" fill="#ffffff"/>
     <path d="m125.94 843.5-22.523-0.0967" fill="#800080"/>
     <path d="m133.99 843.51-14.355 3.4439 0.011-6.9332z" fill="#ffffff"/>
    </g>
    <g transform="translate(-161.04 1032.6)">
     <path transform="matrix(.9071 0 0 .90186 24.872 -1.1139)" d="m267.68-208.61c0 2.1113-1.7016 3.8228-3.8007 3.8228s-3.8007-1.7115-3.8007-3.8228c0-2.1113 1.7016-3.8228 3.8007-3.8228s3.8007 1.7115 3.8007 3.8228z" color="#000000" fill="#ffffff" stroke="#000000" stroke-linecap="round" stroke-linejoin="round" stroke-width=".7835"/>
     <path transform="matrix(.81605 0 0 .73445 48.612 -50.299)" d="m264.67-189.2c0 0.26645-0.1944 0.48245-0.4342 0.48245-0.23981 0-0.4342-0.216-0.4342-0.48245s0.19439-0.48244 0.4342-0.48244c0.2398 0 0.4342 0.21599 0.4342 0.48244z" color="#000000" fill="#000000"/>
    </g>
   </g>
  </g>
  <path transform="matrix(.173 0 0 .17908 388.52 214.74)" d="m387.22-120.25c0 57.201-48.002 103.57-107.22 103.57s-107.22-46.371-107.22-103.57c0-57.201 48.002-103.57 107.22-103.57s107.22 46.371 107.22 103.57z" fill="none" stroke="#4d4d4d" stroke-linecap="round" stroke-linejoin="round" stroke-width="5.4727"/>
  <path d="m450.56 179 42.965-45.212c-1.7583 7.4258-1.3665 11.624-2.5936 22.801z" fill="#c8c8c8" stroke="#4d4d4d" stroke-width="1px"/>
  <path transform="matrix(1.7104 0 0 1.7104 -307.88 -338.3)" d="m460.89 104.49c0 2.7926-1.3991 5.0564-3.125 5.0564s-3.125-2.2638-3.125-5.0564 1.3991-5.0564 3.125-5.0564 3.125 2.2638 3.125 5.0564z" fill="none" opacity=".46128"/>
  <g stroke-linecap="round" stroke-linejoin="round">
   <path d="m51.441 53.066 37.123 16.924" color="#000000" fill="#1f638a" fill-rule="evenodd" stroke="#1f638a" stroke-width="1.7717"/>
   <path d="m256.73 48.524 39.396 17.176" color="#000000" fill="#1f638a" fill-rule="evenodd" stroke="#1f638a" stroke-width="1.7717"/>
   <path d="m430.23 102.33 0.25477 177.18" fill="#000000" stroke="#000000" stroke-width="1.063"/>
  </g>
  <path d="m292.82 102.37 0.25471 177.27" fill="#ff0000" stroke="#000000" stroke-linecap="round" stroke-linejoin="round" stroke-width="1.063"/>
  <path d="m539.83 90.373 0.37822 121.81" fill="#ff0000" stroke="#000000" stroke-linecap="round" stroke-linejoin="round" stroke-width="1.5545"/>
  <g fill="none" stroke-linecap="round" stroke-linejoin="round">
   <path d="m588.78 97.416 1.6775 105.29" stroke="#000000" stroke-dasharray="1.60924545, 6.43698183" stroke-width="1.6092"/>
   <path d="m520.56 97.454 1.3292 108.31" stroke="#000000" stroke-dasharray="1.54691685, 6.18766742" stroke-width="1.5469"/>
   <path transform="matrix(.59359 0 0 .61447 388.66 225.52)" d="m387.22-120.25c0 57.201-48.002 103.57-107.22 103.57s-107.22-46.371-107.22-103.57c0-57.201 48.002-103.57 107.22-103.57s107.22 46.371 107.22 103.57z" stroke="#4d4d4d" stroke-width="2.9335"/>
  </g>
  <g fill="#000000">
   <g stroke="#000000" stroke-linecap="round" stroke-linejoin="round">
    <path d="m504.07 153.9 107.06 0.57013" stroke-width=".82123"/>
    <path d="m520.14 153.91-11.786-3.9286v8.2143z" stroke-width=".99921"/>
    <path d="m590.94 154.65 11.786-3.9286v8.2143z" stroke-width=".99921"/>
    <path d="m528.52 138.84h27.378" stroke-width=".70866"/>
   </g>
   <g>
    <text x="544.41785" y="137.83182" font-family="'Century Gothic'" font-weight="bold" letter-spacing="0px" word-spacing="0px" style="line-height:0%" xml:space="preserve"><tspan x="544.41785" y="137.83182" font-size="16px" style="line-height:1.25">+</tspan></text>
    <text transform="scale(1.3765 .72648)" x="383.45322" y="188.39775" font-family="'Century Gothic'" font-weight="bold" letter-spacing="0px" word-spacing="0px" style="line-height:0%" xml:space="preserve"><tspan x="383.45322" y="188.39775" font-size="22.024px" style="line-height:1.25">-</tspan></text>
    <path d="m522.71 138.75 7.0545 2.3081 6e-3 -4.8069z" stroke="#000000" stroke-linecap="round" stroke-linejoin="round" stroke-width=".99921"/>
    <path d="m563.06 138.76-7.4335 2.3081-6e-3 -4.8069z" stroke="#000000" stroke-linecap="round" stroke-linejoin="round" stroke-width=".99921"/>
   </g>
  </g>
  <g transform="translate(586.18 208.69)">
   <ellipse cx="-44.92" cy="-98.798" rx="13.199" ry="13.469" fill="#1f638a" stroke-linecap="round" stroke-linejoin="round" stroke-width="1.0658"/>
   <text x="-51.39423" y="-91.055557" fill="#000000" font-family="'Arial Nova', 'Arial Unicode MS', 'Yu Gothic UI', sans-serif" font-size="12.8px" letter-spacing="0px" stroke-width="1.0667" word-spacing="0px" style="line-height:0%" xml:space="preserve"><tspan x="-51.39423" y="-91.055557" fill="#ffffff" font-family="'Arial Nova', 'Arial Unicode MS', 'Yu Gothic UI', sans-serif" font-size="21.333px" stroke="#ffffff" stroke-width="1.0667" style="line-height:1.25">1</tspan></text>
  </g>
  <g transform="translate(578.71 278.17)">
   <ellipse cx="-13.718" cy="-98.798" rx="13.199" ry="13.469" fill="#1f638a" stroke-linecap="round" stroke-linejoin="round" stroke-width="1.0658"/>
   <text x="-19.559933" y="-91.125885" fill="#000000" font-family="'Arial Nova', 'Arial Unicode MS', 'Yu Gothic UI', sans-serif" font-size="12.8px" letter-spacing="0px" stroke-width="1.0667" word-spacing="0px" style="line-height:0%" xml:space="preserve"><tspan x="-19.559933" y="-91.125885" fill="#ffffff" font-family="'Arial Nova', 'Arial Unicode MS', 'Yu Gothic UI', sans-serif" font-size="21.333px" stroke="#ffffff" stroke-width="1.0667" style="line-height:1.25">2</tspan></text>
  </g>
  <g transform="translate(93.509 147.57)">
   <ellipse cx="-44.92" cy="-98.798" rx="13.199" ry="13.469" fill="#1f638a" stroke-linecap="round" stroke-linejoin="round" stroke-width="1.0658"/>
   <text x="-51.953754" y="-91.710579" fill="#000000" font-family="'Arial Nova', 'Arial Unicode MS', 'Yu Gothic UI', sans-serif" font-size="12.8px" letter-spacing="0px" stroke-width="1.0667" word-spacing="0px" style="line-height:0%" xml:space="preserve"><tspan x="-51.953754" y="-91.710579" fill="#ffffff" font-family="'Arial Nova', 'Arial Unicode MS', 'Yu Gothic UI', sans-serif" font-size="21.333px" stroke="#ffffff" stroke-width="1.0667" style="line-height:1.25">A</tspan></text>
  </g>
  <g transform="translate(302.07 145.94)">
   <ellipse cx="-44.92" cy="-98.798" rx="13.199" ry="13.469" fill="#1f638a" stroke-linecap="round" stroke-linejoin="round" stroke-width="1.0658"/>
   <text x="-51.566948" y="-91.358932" fill="#000000" font-family="'Arial Nova', 'Arial Unicode MS', 'Yu Gothic UI', sans-serif" font-size="12.8px" letter-spacing="0px" stroke-width="1.0667" word-spacing="0px" style="line-height:0%" xml:space="preserve"><tspan x="-51.566948" y="-91.358932" fill="#ffffff" font-family="'Arial Nova', 'Arial Unicode MS', 'Yu Gothic UI', sans-serif" font-size="21.333px" stroke="#ffffff" stroke-width="1.0667" style="line-height:1.25">B</tspan></text>
  </g>
  <g transform="translate(92.93 284.59)">
   <ellipse cx="-44.92" cy="-98.798" rx="13.199" ry="13.469" fill="#1f638a" stroke-linecap="round" stroke-linejoin="round" stroke-width="1.0658"/>
   <text x="-52.832855" y="-91.640251" fill="#000000" font-family="'Arial Nova', 'Arial Unicode MS', 'Yu Gothic UI', sans-serif" font-size="12.8px" letter-spacing="0px" stroke-width="1.0667" word-spacing="0px" style="line-height:0%" xml:space="preserve"><tspan x="-52.832855" y="-91.640251" fill="#ffffff" font-family="'Arial Nova', 'Arial Unicode MS', 'Yu Gothic UI', sans-serif" font-size="21.333px" stroke="#ffffff" stroke-width="1.0667" style="line-height:1.25">C</tspan></text>
  </g>
 </g>
 <g transform="translate(0 -4.2135e-5)" stroke-linecap="round" stroke-linejoin="round">
  <g stroke="#ffcc00" stroke-width="2.4803">
   <path d="m81.016 211.4h137.28" color="#000000" fill="url(#linearGradient13912)"/>
   <path d="m80.992 216.93h137.67" color="#000000" fill="url(#linearGradient13909)"/>
   <path d="m81.163 222.11h137.15" color="#000000" fill="url(#linearGradient13906)"/>
   <path d="m80.818 227.83h137.87" color="#000000" fill="url(#linearGradient13903)"/>
   <path d="m80.992 232.65h137.7" color="#000000" fill="url(#linearGradient13900)"/>
   <path d="m81.348 243.72h137.1" color="#000000" fill="url(#linearGradient13971)"/>
   <path d="m81.322 248.68h136.95" color="#000000" fill="url(#linearGradient13968)"/>
   <path d="m81.324 253.83h137.12" color="#000000" fill="url(#linearGradient13965)"/>
   <path d="m81.145 259.33h137.15" color="#000000" fill="url(#linearGradient13962)"/>
   <path d="m80.97 264.61h137.5" color="#000000" fill="url(#linearGradient13959)"/>
   <path d="m80.975 269.79h137.49" color="#000000" fill="url(#linearGradient13875)"/>
   <path d="m81.302 275.5h137.34" color="#000000" fill="url(#linearGradient13872)"/>
   <path d="m81.304 280.5h137.52" color="#000000" fill="url(#linearGradient13869)"/>
   <path d="m80.976 237.83h137.52" color="#000000" fill="url(#linearGradient13929)"/>
   <path d="m81.421 285.86h137.52" color="#000000" fill="url(#linearGradient13988)"/>
   <path d="m81.242 291.22h137.52" color="#000000" fill="url(#linearGradient14022)"/>
   <path d="m81.242 296.58h137.52" color="#000000" fill="url(#linearGradient14056)"/>
  </g>
  <path d="m101.34 205.95 97.352-0.22812 47.008 93.828-191.77 0.0729z" fill="url(#linearGradient4361)" opacity=".63435" stroke="#4d4d4d" stroke-width=".63425"/>
 </g>
 <g transform="translate(0 -4.2135e-5)">
  <g transform="translate(-291.53 -736.3)">
   <g stroke="#000000">
    <g stroke-linecap="round" stroke-linejoin="round" stroke-width=".70866">
     <path d="m304.15 1005.4 0.11958 27.151" fill="#800080"/>
     <path d="m304.18 998.86 3.4666 14.35h-6.9332c1.228-7.2721 3.4666-14.35 3.4666-14.35z" fill="#ffffff"/>
     <path d="m326.94 1032.5-22.523-0.097" fill="#800080"/>
     <path d="m335 1032.5-14.355 3.4438 0.011-6.9332z" fill="#ffffff"/>
    </g>
    <text x="308.01736" y="1006.0894" fill="#000000" font-family="sans-serif" letter-spacing="0px" word-spacing="0px" style="line-height:0%" xml:space="preserve"><tspan x="308.01736" y="1006.0894" fill="#ff0000" font-family="sans-serif" font-size="10px" stroke="#000000" style="line-height:1.25">Z</tspan></text>
   </g>
   <g transform="translate(39.963 1221.6)">
    <path transform="matrix(.9071 0 0 .90186 24.872 -1.1139)" d="m267.68-208.61c0 2.1113-1.7016 3.8228-3.8007 3.8228s-3.8007-1.7115-3.8007-3.8228c0-2.1113 1.7016-3.8228 3.8007-3.8228s3.8007 1.7115 3.8007 3.8228z" color="#000000" fill="#ffffff" stroke="#000000" stroke-linecap="round" stroke-linejoin="round" stroke-width=".7835"/>
    <path transform="matrix(.81605 0 0 .73445 48.612 -50.299)" d="m264.67-189.2c0 0.26645-0.1944 0.48245-0.4342 0.48245-0.23981 0-0.4342-0.216-0.4342-0.48245s0.19439-0.48244 0.4342-0.48244c0.2398 0 0.4342 0.21599 0.4342 0.48244z" color="#000000" fill="#000000"/>
   </g>
  </g>
  <g fill="none" stroke="#000000" stroke-linecap="round" stroke-linejoin="round">
   <path d="m79.238 103.33 0.99438 145.2" stroke-dasharray="0.71130481, 2.84521925" stroke-width=".7113"/>
   <path d="m218.71 101.85 0.99437 145.2" stroke-dasharray="0.71130481, 2.84521925" stroke-width=".7113"/>
   <path d="m272.65 103.17 0.94257 176.31" stroke-dasharray="0.76311661, 3.05246643" stroke-width=".76312"/>
   <path d="m450.18 101.7 0.93847 178.98" stroke-dasharray="0.767211, 3.068844" stroke-width=".76721"/>
   <path d="m423.29 102.13 0.93847 178.98" stroke-dasharray="0.767211, 3.068844" stroke-width=".76721"/>
   <path d="m298.94 102.83 0.94215 176.58" stroke-dasharray="0.76352837, 3.05411348" stroke-width=".76353"/>
  </g>
  <path d="m42.457 184.75 37.123 16.924" color="#000000" fill="#1f638a" fill-rule="evenodd" stroke="#1f638a" stroke-linecap="round" stroke-linejoin="round" stroke-width="1.7717"/>
 </g>
</svg>
