<svg version="1.1" viewBox="0 0 460.63 318.9" xmlns="http://www.w3.org/2000/svg" xmlns:xlink="http://www.w3.org/1999/xlink">
 <defs>
  <linearGradient id="linearGradient5988" x1="-611.81" x2="-26.883" y1="-41.626" y2="105.16" gradientTransform="matrix(.49191 0 0 .49191 39.125 336.97)" gradientUnits="userSpaceOnUse">
   <stop stop-color="#ffffff" offset="0"/>
   <stop stop-color="#8ba5b6" offset="1"/>
  </linearGradient>
  <radialGradient id="radialGradient6011" cx="360.24" cy="-140.97" r="89.533" gradientTransform="matrix(.49175 -.012765 .024975 .96207 42.762 407.78)" gradientUnits="userSpaceOnUse">
   <stop stop-color="#94abbb" offset="0"/>
   <stop stop-color="#547993" offset="1"/>
  </radialGradient>
  <radialGradient id="radialGradient6014" cx="250.13" cy="-81.288" r="119.01" gradientTransform="matrix(.48358 -.35384 .39912 .54546 72.675 408.77)" gradientUnits="userSpaceOnUse">
   <stop stop-color="#a2b6c4" offset="0"/>
   <stop stop-color="#466e8a" offset="1"/>
  </radialGradient>
  <radialGradient id="radialGradient6017" cx="52.735" cy="40.584" r="150.2" gradientTransform="matrix(.89785 -.016128 .015068 .83885 37.03 329.38)" gradientUnits="userSpaceOnUse">
   <stop stop-color="#cad6de" offset="0"/>
   <stop stop-color="#456d89" offset="1"/>
  </radialGradient>
  <linearGradient id="linearGradient6020" x1="-222.07" x2="843.84" y1="356.44" y2="-123.56" gradientTransform="matrix(.49191 0 0 .49191 39.125 336.97)" gradientUnits="userSpaceOnUse">
   <stop stop-color="#ffffff" offset="0"/>
   <stop stop-color="#00385e" offset="1"/>
  </linearGradient>
  <linearGradient id="linearGradient6024" x1="110.32" x2="208.33" y1="-75.466" y2="-75.466" gradientTransform="matrix(.36362 .32668 -.32445 .36944 18.288 835.54)" gradientUnits="userSpaceOnUse">
   <stop stop-color="#7392a7" offset="0"/>
   <stop stop-color="#86a0b2" offset="1"/>
  </linearGradient>
  <linearGradient id="linearGradient6026" x1="104.4" x2="152.84" y1="666.68" y2="630.99" gradientTransform="matrix(.49191 0 0 .49191 36.602 538.84)" gradientUnits="userSpaceOnUse">
   <stop stop-color="#95adbc" offset="0"/>
   <stop stop-color="#325f7e" offset="1"/>
  </linearGradient>
  <linearGradient id="linearGradient6028" x1="8.4851" x2="81.872" y1="662.36" y2="734.51" gradientTransform="matrix(.49191 0 0 .49191 36.602 538.84)" gradientUnits="userSpaceOnUse">
   <stop stop-color="#7f9bae" offset="0"/>
   <stop stop-color="#000000" stop-opacity="0" offset="1"/>
  </linearGradient>
  <linearGradient id="linearGradient6030" x1="14.4" x2="67.355" y1="708.16" y2="674.95" gradientTransform="matrix(.49191 0 0 .49191 36.602 538.84)" gradientUnits="userSpaceOnUse">
   <stop stop-color="#99b0bf" offset="0"/>
   <stop stop-color="#295878" offset="1"/>
  </linearGradient>
  <linearGradient id="linearGradient6032" x1="160.25" x2="214.9" y1="-24.01" y2="-.22308" gradientTransform="matrix(.49007 -.072637 .036597 .38765 51.752 909.17)" gradientUnits="userSpaceOnUse">
   <stop stop-color="#90a9b9" offset="0"/>
   <stop stop-color="#96adbd" offset="1"/>
  </linearGradient>
  <linearGradient id="linearGradient6034" x1="223.12" x2="222.55" y1="733.17" y2="703.17" gradientTransform="matrix(.49191 0 0 .49191 36.602 538.84)" gradientUnits="userSpaceOnUse">
   <stop stop-color="#bccbd5" offset="0"/>
   <stop stop-color="#34617f" offset="1"/>
  </linearGradient>
  <linearGradient id="linearGradient6036" x1="113.05" x2="193.96" y1="16.354" y2="38.111" gradientTransform="matrix(.47547 -.032596 .03273 .50168 36.691 904.53)" gradientUnits="userSpaceOnUse">
   <stop stop-color="#b7c7d2" offset="0"/>
   <stop stop-color="#9cb1c0" offset="1"/>
  </linearGradient>
  <linearGradient id="linearGradient6038" x1="139.14" x2="149.93" y1="779.21" y2="747.78" gradientTransform="matrix(.49191 0 0 .49191 36.602 538.84)" gradientUnits="userSpaceOnUse">
   <stop stop-color="#bdccd6" offset="0"/>
   <stop stop-color="#34617f" offset="1"/>
  </linearGradient>
  <linearGradient id="linearGradient6040" x1="288.93" x2="328.13" y1="-254.6" y2="-217.56" gradientTransform="matrix(.65019 0 0 .93248 1.0799 1015.6)" gradientUnits="userSpaceOnUse">
   <stop stop-color="#5c7f98" offset="0"/>
   <stop stop-color="#88a1b3" offset="1"/>
  </linearGradient>
  <linearGradient id="linearGradient6042" x1="303.22" x2="357.28" y1="559.87" y2="496.74" gradientTransform="matrix(.49191 0 0 .49191 36.602 538.84)" gradientUnits="userSpaceOnUse">
   <stop stop-color="#bbcad4" offset="0"/>
   <stop stop-color="#3a6683" offset="1"/>
  </linearGradient>
  <linearGradient id="linearGradient6044" x1="370.76" x2="416.6" y1="583.75" y2="546.37" gradientTransform="matrix(.49191 0 0 .49191 36.602 538.84)" gradientUnits="userSpaceOnUse">
   <stop stop-color="#98afbe" offset="0"/>
   <stop stop-color="#48718c" offset="1"/>
  </linearGradient>
 </defs>
 <g transform="translate(0 -170.08)">
  <g stroke="#000000" stroke-linecap="round" stroke-linejoin="round" stroke-width=".6606">
   <path d="m9.8871 269.88 164.64-92.566 33.634 6.0871-40.622 22.004c-10.374 7.9868-55.499 12.199-67.548 20.108l-81.848 45.686z" fill="#295878"/>
   <path d="m340 203.9-33.044-5.9629-40.656 23.442c-12.648 6.8982-4.5227 21.837-16.664 27.651l-81.978 46.087 7.9395 1.2424z" fill="#235474"/>
   <path d="m175.23 296.26 164.77-92.363 2.2361 188.08-165.4 91.716z" fill="url(#linearGradient6020)"/>
   <path d="m100.99 225.02c3.8332 47.928 28.358 75.164 64.598 90.685-10.928 34.445-32.214 49.052-55.281 50.188-43.52 2.144-93.378-43.662-91.973-94.661z" fill="url(#radialGradient6017)"/>
   <path d="m101.03 224.94c13.705-8.1758 49.138-10.753 66.49-19.471 0.80224 21.253 13.253 54.886 49.838 61.96l-49.716 27.741-0.81051 21.965c-31.347-13.983-63.687-40.933-65.801-92.194z" fill="url(#radialGradient6014)"/>
   <path d="m208.13 183.41c0.25811 31.685 23.134 55.385 46.835 60.693-0.97413 2.3321-4.0592 4.1576-4.0592 4.1576l-33.816 19.477c-34.787-7.9017-47.931-35.701-49.806-62.236z" fill="url(#radialGradient6011)"/>
  </g>
  <g transform="translate(2.5228 -562.67)" stroke="#000000" stroke-linecap="round" stroke-linejoin="round" stroke-width=".6606">
   <g fill-rule="evenodd" opacity=".76344">
    <path d="m119.47 874.12c-5.6164 6.3952-21.384 5.4984-30.928-3.0757-9.5436-8.5741-9.4974-22.448-3.8811-28.843s17.285-3.635 26.828 4.9391 13.597 20.585 7.9805 26.98z" fill="url(#linearGradient6024)"/>
    <path d="m117.28 871.01c-4.5864 5.2224-20.071 5.1112-27.865-1.8905-7.7935-7.0017-6.6377-18.828-2.0513-24.051 4.5864-5.2224 15.233-3.4653 23.027 3.5364 7.7935 7.0017 11.476 17.182 6.8897 22.405z" fill="url(#linearGradient6026)"/>
   </g>
   <g fill-rule="evenodd" opacity=".76344">
    <path d="m77.308 897.86c-5.6164 6.3952-21.384 5.4984-30.928-3.0757-9.5436-8.5741-9.4974-22.448-3.8811-28.843s17.285-3.635 26.828 4.9391c9.5436 8.574 13.597 20.585 7.9805 26.98z" fill="url(#linearGradient6028)"/>
    <path d="m75.111 894.75c-4.5864 5.2224-20.071 5.1112-27.865-1.8905-7.7935-7.0017-6.6377-18.828-2.0513-24.051 4.5864-5.2224 15.233-3.4653 23.027 3.5364 7.7935 7.0017 11.476 17.182 6.8897 22.405z" fill="url(#linearGradient6030)"/>
   </g>
   <g fill-rule="evenodd" opacity=".76344">
    <path d="m153.92 899.28s0.17162 0.402-6.131 0.89419c-9.7336 0.86458-19.203-2.2564-19.676-7.2645s5.9581-9.5329 15.68-10.52c11.511-1.1692 17.568 0.41292 17.568 0.41292-1.7249 5.538-4.4467 10.947-7.4408 16.478z" fill="url(#linearGradient6032)"/>
    <path d="m154.16 898.36s0.14992 0.36012-5.356 0.80103c-8.5032 0.77451-16.776-2.0213-17.189-6.5077-0.41305-4.4864 5.205-8.5397 13.698-9.4243 10.056-1.0474 15.347 0.3699 15.347 0.3699-1.5068 4.961-3.8846 9.8062-6.5002 14.761z" fill="url(#linearGradient6034)"/>
   </g>
   <g fill-rule="evenodd" opacity=".76344">
    <path d="m136.25 911.31c0.35966 3.7509-15.739 10.602-29.112 12.369-13.634 1.801-20.826-3.6961-21.117-8.149-0.29051-4.4529 7.7486-9.5134 21.207-10.436 13.458-0.92262 28.613 1.9482 29.022 6.2165z" fill="url(#linearGradient6036)"/>
    <path d="m132.31 911.37c0.33071 3.1316-13.239 9.1469-24.539 10.719-11.52 1.6023-17.907-2.2368-18.184-5.9555-0.27717-3.7187 6.7511-8.7073 18.129-9.5744 11.378-0.86709 24.218 1.2477 24.594 4.8113z" fill="url(#linearGradient6038)"/>
   </g>
   <g>
    <g fill-rule="evenodd" opacity=".76">
     <path d="m223.83 799.59c0 10.204-9.4722 14.004-21.463 14.004s-21.091-8.3964-21.091-18.601c0-10.204 6.4908-19.47 18.482-19.47s24.072 13.862 24.072 24.067z" fill="url(#linearGradient6040)"/>
     <path d="m221.2 799.16c0 9.196-8.4196 12.62-19.078 12.62-10.658 0-18.747-7.5667-18.747-16.763 0-9.196 5.7695-17.546 16.428-17.546 10.658 0 21.397 12.493 21.397 21.689z" fill="url(#linearGradient6042)"/>
    </g>
    <g opacity=".76">
     <path d="m220.06 826.74c-5.1615-1.011-7.9529-4.1619-7.7618-7.4146 0.40105-6.8246 10.603-12.503 26.212-12.503 3.9386 0 9.7388 0.47712 13.145 1.1146l-3.305 3.0989z" fill="none"/>
     <path d="m221.62 826.35c-4.8206-0.94425-7.4277-3.8871-7.2492-6.925 0.37456-6.3739 9.9031-11.677 24.481-11.677 3.6785 0 9.0957 0.44561 12.277 1.041l-3.0867 2.8943z" fill="url(#linearGradient6044)"/>
    </g>
   </g>
  </g>
  <path d="m9.9003 269.88 2.036 187.33 164.92 26.482-1.576-187.5-7.687-1.0214c-4.9336 107.41-143.94 78.185-149.18-23.976z" fill="url(#linearGradient5988)" stroke="#000000" stroke-linecap="round" stroke-linejoin="round" stroke-width=".6606"/>
  <path d="m256.83 191.57-164.15 92.934 0.08666 77.032" fill="none" stroke="#ff00ff" stroke-width="2.0622"/>
  <g transform="matrix(1.349 0 0 1.349 -88.346 162.83)" fill="none" stroke="#f804ff" stroke-linecap="round" stroke-linejoin="round" stroke-width="1.7717">
   <path d="m250.94 19.708 8.0353 4.9831"/>
   <path d="m258.42 18.362-7.2127 7.4282"/>
   <path d="m253.83 17.694 2.2422 8.5123"/>
  </g>
  <g transform="matrix(1.349 0 0 1.349 -251.27 254.64)" fill="none" stroke="#f804ff" stroke-linecap="round" stroke-linejoin="round" stroke-width="1.7717">
   <path d="m250.94 19.708 8.0353 4.9831"/>
   <path d="m258.42 18.362-7.2127 7.4282"/>
   <path d="m253.83 17.694 2.2422 8.5123"/>
  </g>
  <g transform="translate(192.07 330.45)">
   <ellipse cx="-44.92" cy="-98.798" rx="13.199" ry="13.469" fill="#1f638a" stroke-linecap="round" stroke-linejoin="round" stroke-width="1.0658"/>
   <text x="-51.39423" y="-91.055557" fill="#000000" font-family="'Arial Nova', 'Arial Unicode MS', 'Yu Gothic UI', sans-serif" font-size="12.8px" letter-spacing="0px" stroke-width="1.0667" word-spacing="0px" style="line-height:0%" xml:space="preserve"><tspan x="-51.39423" y="-91.055557" fill="#ffffff" font-family="'Arial Nova', 'Arial Unicode MS', 'Yu Gothic UI', sans-serif" font-size="21.333px" stroke="#ffffff" stroke-width="1.0667" style="line-height:1.25">1</tspan></text>
  </g>
  <g transform="translate(105.85 479.18)">
   <ellipse cx="-13.718" cy="-98.798" rx="13.199" ry="13.469" fill="#1f638a" stroke-linecap="round" stroke-linejoin="round" stroke-width="1.0658"/>
   <text x="-19.559933" y="-91.125885" fill="#000000" font-family="'Arial Nova', 'Arial Unicode MS', 'Yu Gothic UI', sans-serif" font-size="12.8px" letter-spacing="0px" stroke-width="1.0667" word-spacing="0px" style="line-height:0%" xml:space="preserve"><tspan x="-19.559933" y="-91.125885" fill="#ffffff" font-family="'Arial Nova', 'Arial Unicode MS', 'Yu Gothic UI', sans-serif" font-size="21.333px" stroke="#ffffff" stroke-width="1.0667" style="line-height:1.25">2</tspan></text>
  </g>
 </g>
</svg>
