<?xml version="1.0" encoding="UTF-8"?>
<svg width="18cm" height="9cm" version="1.1" xmlns="http://www.w3.org/2000/svg" xmlns:cc="http://creativecommons.org/ns#" xmlns:dc="http://purl.org/dc/elements/1.1/" xmlns:rdf="http://www.w3.org/1999/02/22-rdf-syntax-ns#" xmlns:xlink="http://www.w3.org/1999/xlink">
 <title>Abbildung für OPEN MIND Softwaredokumentation</title>
 <defs>
  <linearGradient id="linearGradient17780-7">
   <stop stop-color="#fff" offset="0"/>
   <stop stop-color="#00385e" offset="1"/>
  </linearGradient>
  <linearGradient id="linearGradient8784" x1="586.83" x2="547.88" y1="941.22" y2="846.22" gradientTransform="matrix(1.0667 0 0 1.0667 -356.27 0)" gradientUnits="userSpaceOnUse" xlink:href="#linearGradient17780-7"/>
  <linearGradient id="linearGradient13619" x1="444.17" x2="529.24" y1="803.72" y2="988.87" gradientTransform="matrix(1.0667 0 0 1.0667 -356.27 0)" gradientUnits="userSpaceOnUse" xlink:href="#linearGradient17780-7"/>
  <linearGradient id="linearGradient13622" x1="444.17" x2="581.77" y1="803.72" y2="1069.9" gradientTransform="matrix(1.0667 0 0 1.0667 -356.27 0)" gradientUnits="userSpaceOnUse" xlink:href="#linearGradient17780-7"/>
  <linearGradient id="linearGradient13625" x1="444.17" x2="492.37" y1="803.72" y2="970.93" gradientTransform="matrix(1.0667 0 0 1.0667 -356.27 0)" gradientUnits="userSpaceOnUse" xlink:href="#linearGradient17780-7"/>
  <linearGradient id="linearGradient13628" x1="444.17" x2="566.62" y1="803.72" y2="1062.3" gradientTransform="matrix(1.0667 0 0 1.0667 -356.27 0)" gradientUnits="userSpaceOnUse" xlink:href="#linearGradient17780-7"/>
  <linearGradient id="linearGradient13631" x1="444.17" x2="618.64" y1="803.72" y2="1058.3" gradientTransform="matrix(1.0667 0 0 1.0667 -356.27 0)" gradientUnits="userSpaceOnUse" xlink:href="#linearGradient17780-7"/>
  <linearGradient id="linearGradient13634" x1="444.17" x2="517.63" y1="803.72" y2="971.94" gradientTransform="matrix(1.0667 0 0 1.0667 -356.27 0)" gradientUnits="userSpaceOnUse" xlink:href="#linearGradient17780-7"/>
 </defs>
 <metadata>
  <rdf:RDF>
   <cc:Work rdf:about="">
    <dc:format>image/svg+xml</dc:format>
    <dc:type rdf:resource="http://purl.org/dc/dcmitype/StillImage"/>
    <dc:title>Abbildung für OPEN MIND Softwaredokumentation</dc:title>
    <dc:creator>
     <cc:Agent>
      <dc:title>OPEN MIND Technologies AG</dc:title>
     </cc:Agent>
    </dc:creator>
    <dc:rights>
     <cc:Agent>
      <dc:title>Alle Rechte vorbehalten.</dc:title>
     </cc:Agent>
    </dc:rights>
    <dc:publisher>
     <cc:Agent>
      <dc:title>Technische Redaktion</dc:title>
     </cc:Agent>
    </dc:publisher>
   </cc:Work>
  </rdf:RDF>
 </metadata>
 <g transform="translate(0 -782.36)">
  <g stroke-linecap="round" stroke-linejoin="round" stroke-width=".67654">
   <path d="m228.12 1003.8c6.6879 0 12.109-22.96 12.109-51.282 0-28.322-5.4216-51.282-12.109-51.282h29.867c6.6879 0 12.109 22.96 12.109 51.282 0 28.322-5.4216 51.282-12.109 51.282h-29.867z" color="#000000" fill="url(#linearGradient8784)" stroke="#a1ff00"/>
   <path d="m75.709 801.96c19.638 0 35.557 67.417 35.557 150.58 0 83.163-15.92 150.58-35.557 150.58" color="#000000" fill="none" stroke="#f00" stroke-dasharray="2.02961, 2.02961" stroke-dashoffset="2.3002"/>
   <path d="m257.97 892.73c-7.8004 0-14.1 26.766-14.1 59.8s6.2996 59.833 14.1 59.833c7.8004 0 14.133-26.8 14.133-59.833s-6.3329-59.8-14.133-59.8zm0 8.5333c6.6879 0 12.133 22.945 12.133 51.267 0 28.322-5.4454 51.3-12.133 51.3-6.6879 0-12.1-22.978-12.1-51.3 0-28.322 5.4121-51.267 12.1-51.267z" color="#000000" fill="url(#linearGradient13634)" stroke="#4d4d4d"/>
  </g>
  <g transform="translate(.38095 84.952)" stroke="#000" stroke-linecap="round" stroke-linejoin="round">
   <path d="m416.31 900.48-12.571 4.1905v-8.7619z" stroke-width="1.0658"/>
   <path d="m405.09 900.29h-146.16" stroke-width=".94488"/>
   <path d="m258.51 900.48 12.571 4.1905v-8.7619z" stroke-width="1.0658"/>
  </g>
  <g stroke="#4d4d4d" stroke-linecap="round" stroke-linejoin="round" stroke-width=".67654">
   <path d="m87.315 1047.4c-12.377 0-22.41-42.49-22.41-94.903 0-52.413 10.033-94.903 22.41-94.903h19.2c-12.377 0-22.41 42.49-22.41 94.903 0 52.414 10.033 94.903 22.41 94.903h-19.2z" color="#000000" fill="url(#linearGradient13631)"/>
   <path d="m126.97 1026.2c-1.7424 2.3399-3.5981 3.6023-5.5235 3.6023-10.081 0-18.253-34.608-18.253-77.299s8.1722-77.299 18.253-77.299c1.8287 0 3.5946 1.1389 5.2604 3.2583l-13.342-16.344c-2.1598-2.9341-4.4623-4.5184-6.8522-4.5184-12.377 0-22.41 42.49-22.41 94.903 0 52.414 10.033 94.903 22.41 94.903 2.3449 0 4.6057-1.5252 6.7301-4.3541z" color="#000000" fill="url(#linearGradient13628)"/>
   <path d="m189.7 875.26c-10.081 0-18.233 34.576-18.233 77.267 0 42.691 8.1524 77.3 18.233 77.3s18.267-34.609 18.267-77.3c0-42.691-8.1858-77.267-18.267-77.267zm0 17.467c7.8004 0 14.133 26.766 14.133 59.8 0 33.034-6.3329 59.833-14.133 59.833s-14.1-26.8-14.1-59.833c0-33.034 6.2996-59.8 14.1-59.8z" color="#000000" fill="url(#linearGradient13625)"/>
   <path d="m189.72 1029.8c-10.081 0-18.253-34.608-18.253-77.299s8.1722-77.299 18.253-77.299h-68.267c-10.081 0-18.253 34.608-18.253 77.299 0 42.691 8.1722 77.299 18.253 77.299h68.267z" color="#000000" fill="url(#linearGradient13622)"/>
   <path d="m257.98 892.73c-7.8004 0-14.124 26.779-14.124 59.813 0 33.034 6.3235 59.813 14.124 59.813h-68.267c-7.8004 0-14.124-26.779-14.124-59.813 0-33.034 6.3235-59.813 14.124-59.813z" color="#000000" fill="url(#linearGradient13619)"/>
  </g>
  <g stroke-linecap="round" stroke-linejoin="round">
   <path d="m310.37 1103.2c-19.638 0-35.557-67.417-35.557-150.58 0-83.163 15.92-150.58 35.557-150.58h-234.67c-19.638 0-35.557 67.417-35.557 150.58 0 83.163 15.92 150.58 35.557 150.58z" color="#000000" fill="#f00" fill-opacity=".049587" stroke="#f00" stroke-dasharray="2.02961, 2.02961" stroke-width=".67654"/>
   <path d="m257.4 951.62-34.195 0.30679" fill="#7ab51d" stroke="#7ab51d" stroke-width="1.8898"/>
   <path d="m345.93 952.54c0 83.163-15.92 150.58-35.557 150.58s-35.557-67.417-35.557-150.58c0-83.163 15.92-150.58 35.557-150.58s35.557 67.417 35.557 150.58z" color="#000000" fill="#f00" fill-opacity=".05098" stroke="#f00" stroke-dasharray="2.02961, 2.02961" stroke-dashoffset="2.3002" stroke-width=".67654"/>
   <path d="m257.87 951.86 0.0813-60-67.977-0.0476v-17.353l-67.587 0.0476-14.285-17.585h-23.573v0.43135" color="#000000" fill="none" stroke="#800080" stroke-dashoffset="4.5659" stroke-width="1.4324"/>
  </g>
  <g fill="#00f" stroke-linecap="round" stroke-linejoin="round" stroke-width="1.8898">
   <path d="m382.03 951.61-20.997 5.0723v-10.145z" stroke="#00f"/>
   <path d="m362.05 951.47-103.73 0.17497" stroke="#00f"/>
   <path d="m257.82 861.12 0.17497 90.639" stroke="#f00"/>
  </g>
  <path d="m258.48 841.92 5.0723 20.997h-10.145z" fill="#f00" stroke="#f00" stroke-linecap="round" stroke-linejoin="round" stroke-width="1.8898"/>
  <path d="m202.88 952.5 20.997 5.0723v-10.145z" fill="#7ab51d" stroke="#7ab51d" stroke-linecap="round" stroke-linejoin="round" stroke-width="1.8898"/>
  <g transform="translate(-356.42 .070784)" stroke="#000" stroke-linecap="round" stroke-linejoin="round">
   <path d="m666.72 802.81 4.1905 12.571h-8.7619z" stroke-width="1.0658"/>
   <path d="m666.53 814.19v135.94" stroke-width=".94488"/>
   <path d="m666.72 950.52 4.1905-12.571h-8.7619z" stroke-width="1.0658"/>
  </g>
  <g font-family="'Arial Nova', 'Arial Unicode MS', 'Yu Gothic UI', sans-serif" font-size="12.8px" letter-spacing="0px" stroke-width="1.0667" word-spacing="0px">
   <text x="374.89871" y="965.7254" fill="#0000ff" stroke="#0000ff" style="line-height:0%" xml:space="preserve"><tspan x="374.89871" y="965.7254" fill="#0000ff" font-family="'Arial Nova', 'Arial Unicode MS', 'Yu Gothic UI', sans-serif" font-size="10.667px" stroke="#0000ff" stroke-width="1.0667" style="line-height:1.25">Z</tspan></text>
   <text x="266.61038" y="849.35583" fill="#000000" style="line-height:0%" xml:space="preserve"><tspan x="266.61038" y="849.35583" fill="#ff0000" font-family="'Arial Nova', 'Arial Unicode MS', 'Yu Gothic UI', sans-serif" font-size="10.667px" stroke="#ff0000" stroke-width="1.0667" style="line-height:1.25">X</tspan></text>
   <text x="203.57684" y="968.41913" fill="#00ff00" stroke="#7ab51d" style="line-height:0%" xml:space="preserve"><tspan x="203.57684" y="968.41913" fill="#00ff00" font-family="'Arial Nova', 'Arial Unicode MS', 'Yu Gothic UI', sans-serif" font-size="10.667px" stroke="#7ab51d" stroke-width="1.0667" style="line-height:1.25">Y</tspan></text>
  </g>
  <path d="m388.95 844.5 44.19 6.4v202.67l-44.19 6.4z" color="#000000" fill="#f00" fill-opacity=".05098" stroke="#f00" stroke-dasharray="2.02961, 2.02961" stroke-linecap="round" stroke-linejoin="round" stroke-width=".67654"/>
  <path d="m257.97 952.85v32.305" fill="none" stroke="#000" stroke-dasharray="0.676535, 0.676535" stroke-width=".67654"/>
  <g transform="translate(375.7 983.19)">
   <ellipse cx="-44.92" cy="-98.798" rx="13.199" ry="13.469" fill="#1f638a" stroke-linecap="round" stroke-linejoin="round" stroke-width="1.0658"/>
   <text x="-50.761276" y="-91.125885" fill="#000000" font-family="'Arial Nova', 'Arial Unicode MS', 'Yu Gothic UI', sans-serif" font-size="12.8px" letter-spacing="0px" stroke-width="1.0667" word-spacing="0px" style="line-height:0%" xml:space="preserve"><tspan x="-50.761276" y="-91.125885" fill="#ffffff" font-family="'Arial Nova', 'Arial Unicode MS', 'Yu Gothic UI', sans-serif" font-size="21.333px" stroke="#ffffff" stroke-width="1.0667" style="line-height:1.25">1</tspan></text>
  </g>
  <g transform="translate(350.65 1068.5)">
   <ellipse cx="-13.718" cy="-98.798" rx="13.199" ry="13.469" fill="#1f638a" stroke-linecap="round" stroke-linejoin="round" stroke-width="1.0658"/>
   <text x="-19.559933" y="-91.125885" fill="#000000" font-family="'Arial Nova', 'Arial Unicode MS', 'Yu Gothic UI', sans-serif" font-size="12.8px" letter-spacing="0px" stroke-width="1.0667" word-spacing="0px" style="line-height:0%" xml:space="preserve"><tspan x="-19.559933" y="-91.125885" fill="#ffffff" font-family="'Arial Nova', 'Arial Unicode MS', 'Yu Gothic UI', sans-serif" font-size="21.333px" stroke="#ffffff" stroke-width="1.0667" style="line-height:1.25">2</tspan></text>
  </g>
 </g>
</svg>
