<?xml version="1.0" encoding="UTF-8"?>
<svg width="18cm" height="5.5cm" version="1.1" xmlns="http://www.w3.org/2000/svg" xmlns:cc="http://creativecommons.org/ns#" xmlns:dc="http://purl.org/dc/elements/1.1/" xmlns:rdf="http://www.w3.org/1999/02/22-rdf-syntax-ns#" xmlns:xlink="http://www.w3.org/1999/xlink">
 <title>Abbildung für OPEN MIND Softwaredokumentation</title>
 <defs>
  <pattern id="pattern3968" patternTransform="matrix(.050583 -.048297 8.6749 9.0856 -225.02 1118.3)" xlink:href="#pattern28308-3"/>
  <pattern id="pattern31292" patternTransform="matrix(.050583 -.048297 8.6749 9.0856 -551.48 1118.9)" xlink:href="#pattern28308"/>
  <pattern id="pattern30702" patternTransform="matrix(.050583 -.048297 8.6749 9.0856 -386.55 1118.3)" xlink:href="#pattern28308-4"/>
  <pattern id="pattern30659" patternTransform="matrix(.050583 -.048297 8.6749 9.0856 -63.501 1117.5)" xlink:href="#pattern28308-1"/>
  <pattern id="pattern28308" patternTransform="matrix(.047422 -.045278 8.1327 8.5178 -48.185 1053.2)" xlink:href="#pattern28057"/>
  <pattern id="pattern28057" patternTransform="matrix(.047422 -.045278 8.1327 8.5178 -49.563 1006.3)" xlink:href="#pattern6597"/>
  <pattern id="pattern6597" patternTransform="matrix(.047422 -.045278 8.1327 8.5178 -765.8 1013)" xlink:href="#pattern5942-3"/>
  <pattern id="pattern5942-3" patternTransform="matrix(.047422 -.045278 8.1327 8.5178 -751.8 1013)" xlink:href="#pattern5787-1"/>
  <pattern id="pattern5787-1" patternTransform="matrix(.047422 -.045278 8.1327 8.5178 -49.563 1006.3)" xlink:href="#pattern9529-8-1"/>
  <pattern id="pattern9529-8-1" patternTransform="matrix(.047373 -.045374 8.1418 8.5012 -48.49 1006.4)" xlink:href="#pattern9496-6-9"/>
  <pattern id="pattern9496-6-9" patternTransform="matrix(.047355 -.045348 8.1452 8.5058 396.14 -51.594)" xlink:href="#pattern9487-6-9"/>
  <pattern id="pattern9487-6-9" patternTransform="matrix(.056516 -.039102 6.9938 10.109 354.71 164.31)" xlink:href="#Strips1_64-2-5"/>
  <pattern id="Strips1_64-2-5" width="65" height="1" patternTransform="translate(0) scale(10)" patternUnits="userSpaceOnUse">
   <rect y="-.5" width="1" height="2"/>
  </pattern>
  <pattern id="pattern17293" patternTransform="matrix(.096354 .10223 -14.766 13.918 224.01 1233.3)" xlink:href="#pattern19408-8-7"/>
  <pattern id="pattern19408-8-7" patternTransform="matrix(.090332 .09584 -13.844 13.048 -311.95 545.74)" xlink:href="#pattern19165-4-0"/>
  <pattern id="pattern19165-4-0" patternTransform="matrix(.092105 .097721 -14.115 13.304 -352.46 225.83)" xlink:href="#pattern10008-0-03-4"/>
  <pattern id="pattern10008-0-03-4" patternTransform="matrix(.092105 .097721 -14.115 13.304 -5.9783 321.8)" xlink:href="#pattern5542-4-2-7-9"/>
  <pattern id="pattern5542-4-2-7-9" patternTransform="matrix(.067835 .071971 -10.396 9.7984 -11.429 657.14)" xlink:href="#Strips1_64-9-86-8-8"/>
  <pattern id="Strips1_64-9-86-8-8" width="65" height="1" patternTransform="translate(0) scale(10)" patternUnits="userSpaceOnUse">
   <rect y="-.5" width="1" height="2"/>
  </pattern>
  <linearGradient id="linearGradient17277" x1="99.461" x2="99.771" y1="1033.1" y2="831.78" gradientTransform="matrix(1.4204 0 0 1.4204 19.078 299.82)" gradientUnits="userSpaceOnUse" xlink:href="#linearGradient17780-7-9-9-6"/>
  <linearGradient id="linearGradient17780-7-9-9-6">
   <stop stop-color="#fff" offset="0"/>
   <stop stop-color="#00385e" offset="1"/>
  </linearGradient>
  <pattern id="pattern17280" patternTransform="matrix(.096354 .10223 -14.766 13.918 38.295 1308.3)" xlink:href="#pattern19408-8"/>
  <pattern id="pattern19408-8" patternTransform="matrix(.090332 .09584 -13.844 13.048 -311.95 545.74)" xlink:href="#pattern19165-4"/>
  <pattern id="pattern19165-4" patternTransform="matrix(.092105 .097721 -14.115 13.304 -352.46 225.83)" xlink:href="#pattern10008-0-03"/>
  <pattern id="pattern10008-0-03" patternTransform="matrix(.092105 .097721 -14.115 13.304 -5.9783 321.8)" xlink:href="#pattern5542-4-2-7"/>
  <pattern id="pattern5542-4-2-7" patternTransform="matrix(.067835 .071971 -10.396 9.7984 -11.429 657.14)" xlink:href="#Strips1_64-9-86-8"/>
  <pattern id="Strips1_64-9-86-8" width="65" height="1" patternTransform="translate(0) scale(10)" patternUnits="userSpaceOnUse">
   <rect y="-.5" width="1" height="2"/>
  </pattern>
  <linearGradient id="linearGradient17283" x1="183.05" x2="179.46" y1="913.61" y2="1236.8" gradientTransform="matrix(1.4204 0 0 1.4204 -201.24 297.59)" gradientUnits="userSpaceOnUse" xlink:href="#linearGradient17780-7-9-9-6"/>
  <pattern id="pattern23509" patternTransform="matrix(.098529 .10454 -15.1 14.232 430.32 1198.4)" xlink:href="#pattern19492-6"/>
  <pattern id="pattern19492-6" patternTransform="matrix(.078239 .083009 -11.99 11.301 432.45 588.32)" xlink:href="#pattern18430-4"/>
  <pattern id="pattern18430-4" patternTransform="matrix(.092105 .097721 -14.115 13.304 -40.52 504.8)" xlink:href="#pattern18271-98"/>
  <pattern id="pattern18271-98" patternTransform="matrix(.092105 .097721 -14.115 13.304 -40.52 504.8)" xlink:href="#pattern18192-4"/>
  <pattern id="pattern18192-4" patternTransform="matrix(.092105 .097721 -14.115 13.304 387.34 503.73)" xlink:href="#pattern10008-5-4-3"/>
  <pattern id="pattern10008-5-4-3" patternTransform="matrix(.092105 .097721 -14.115 13.304 193.96 524.8)" xlink:href="#pattern5542-4-7-9-25"/>
  <pattern id="pattern5542-4-7-9-25" patternTransform="matrix(.067835 .071971 -10.396 9.7984 -11.429 657.14)" xlink:href="#Strips1_64-9-8-9-3"/>
  <pattern id="Strips1_64-9-8-9-3" width="65" height="1" patternTransform="translate(0) scale(10)" patternUnits="userSpaceOnUse">
   <rect y="-.5" width="1" height="2"/>
  </pattern>
  <linearGradient id="linearGradient19502-2" x1="215.56" x2="216.59" y1="902.81" y2="1258" gradientTransform="matrix(1.2533 0 0 1.2533 261.6 465.7)" gradientUnits="userSpaceOnUse">
   <stop stop-color="#fff" offset="0"/>
   <stop stop-color="#00385e" offset="1"/>
  </linearGradient>
  <linearGradient id="linearGradient15855" x1="38.033" x2="38.965" y1="1032.8" y2="862.11" gradientTransform="matrix(1.2694 0 0 1.4544 454.96 264.93)" gradientUnits="userSpaceOnUse">
   <stop stop-color="#fff" offset="0"/>
   <stop stop-color="#00385e" offset="1"/>
  </linearGradient>
  <linearGradient id="linearGradient22523" x1="79.338" x2="79.461" y1="1058.3" y2="903.46" gradientTransform="matrix(1.3304 0 0 1.5243 531.64 110.66)" gradientUnits="userSpaceOnUse">
   <stop stop-color="#fff" offset="0"/>
   <stop stop-color="#00385e" offset="1"/>
  </linearGradient>
  <linearGradient id="linearGradient17290" x1="99.461" x2="99.771" y1="1033.1" y2="831.78" gradientTransform="matrix(1.4204 0 0 1.4204 240.44 300.21)" gradientUnits="userSpaceOnUse" xlink:href="#linearGradient17780-7-9-9-6"/>
  <linearGradient id="linearGradient17296" x1="183.05" x2="179.46" y1="913.61" y2="1236.8" gradientTransform="matrix(1.4204 0 0 1.4204 20.129 297.98)" gradientUnits="userSpaceOnUse" xlink:href="#linearGradient17780-7-9-9-6"/>
  <linearGradient id="linearGradient30699" x1="27.086" x2="26.953" y1="1006.2" y2="829.15" gradientTransform="matrix(1.0449 0 0 1.0667 -8.3695 30.322)" gradientUnits="userSpaceOnUse" xlink:href="#linearGradient17780-7-9-9-6"/>
  <linearGradient id="linearGradient30701" x1="103.67" x2="105.19" y1="1006.7" y2="830.98" gradientTransform="matrix(1.0667 0 0 1.0667 -9.1587 30.322)" gradientUnits="userSpaceOnUse" xlink:href="#linearGradient17780-7-9-9-6"/>
  <linearGradient id="linearGradient30703" x1="73.108" x2="73.471" y1="73.128" y2="-20.227" gradientTransform="matrix(1.991 0 0 1.991 -17.67 959.73)" gradientUnits="userSpaceOnUse" xlink:href="#linearGradient17780-7-9-9-6"/>
  <linearGradient id="linearGradient30705" x1="140.33" x2="140.12" y1="1008" y2="830.71" gradientTransform="matrix(1.0726 0 0 1.0667 -9.9502 30.322)" gradientUnits="userSpaceOnUse" xlink:href="#linearGradient17780-7-9-9-6"/>
  <linearGradient id="linearGradient30707" x1="33.666" x2="33.943" y1="73.428" y2="-18.843" gradientTransform="matrix(1.991 0 0 1.991 -17.67 959.73)" gradientUnits="userSpaceOnUse" xlink:href="#linearGradient17780-7-9-9-6"/>
  <pattern id="pattern28308-4" patternTransform="matrix(.047422 -.045278 8.1327 8.5178 -48.185 1053.2)" xlink:href="#pattern28057-7"/>
  <pattern id="pattern28057-7" patternTransform="matrix(.047422 -.045278 8.1327 8.5178 -49.563 1006.3)" xlink:href="#pattern6597-4"/>
  <pattern id="pattern6597-4" patternTransform="matrix(.047422 -.045278 8.1327 8.5178 -765.8 1013)" xlink:href="#pattern5942-3-2"/>
  <pattern id="pattern5942-3-2" patternTransform="matrix(.047422 -.045278 8.1327 8.5178 -751.8 1013)" xlink:href="#pattern5787-1-7"/>
  <pattern id="pattern5787-1-7" patternTransform="matrix(.047422 -.045278 8.1327 8.5178 -49.563 1006.3)" xlink:href="#pattern9529-8-1-1"/>
  <pattern id="pattern9529-8-1-1" patternTransform="matrix(.047373 -.045374 8.1418 8.5012 -48.49 1006.4)" xlink:href="#pattern9496-6-9-5"/>
  <pattern id="pattern9496-6-9-5" patternTransform="matrix(.047355 -.045348 8.1452 8.5058 396.14 -51.594)" xlink:href="#pattern9487-6-9-7"/>
  <pattern id="pattern9487-6-9-7" patternTransform="matrix(.056516 -.039102 6.9938 10.109 354.71 164.31)" xlink:href="#Strips1_64-2-5-2"/>
  <pattern id="Strips1_64-2-5-2" width="65" height="1" patternTransform="translate(0) scale(10)" patternUnits="userSpaceOnUse">
   <rect y="-.5" width="1" height="2"/>
  </pattern>
  <pattern id="pattern28308-3" patternTransform="matrix(.047422 -.045278 8.1327 8.5178 -48.185 1053.2)" xlink:href="#pattern28057-3"/>
  <pattern id="pattern28057-3" patternTransform="matrix(.047422 -.045278 8.1327 8.5178 -49.563 1006.3)" xlink:href="#pattern6597-43"/>
  <pattern id="pattern6597-43" patternTransform="matrix(.047422 -.045278 8.1327 8.5178 -765.8 1013)" xlink:href="#pattern5942-3-5"/>
  <pattern id="pattern5942-3-5" patternTransform="matrix(.047422 -.045278 8.1327 8.5178 -751.8 1013)" xlink:href="#pattern5787-1-2"/>
  <pattern id="pattern5787-1-2" patternTransform="matrix(.047422 -.045278 8.1327 8.5178 -49.563 1006.3)" xlink:href="#pattern9529-8-1-16"/>
  <pattern id="pattern9529-8-1-16" patternTransform="matrix(.047373 -.045374 8.1418 8.5012 -48.49 1006.4)" xlink:href="#pattern9496-6-9-9"/>
  <pattern id="pattern9496-6-9-9" patternTransform="matrix(.047355 -.045348 8.1452 8.5058 396.14 -51.594)" xlink:href="#pattern9487-6-9-8"/>
  <pattern id="pattern9487-6-9-8" patternTransform="matrix(.056516 -.039102 6.9938 10.109 354.71 164.31)" xlink:href="#Strips1_64-2-5-8"/>
  <pattern id="Strips1_64-2-5-8" width="65" height="1" patternTransform="translate(0) scale(10)" patternUnits="userSpaceOnUse">
   <rect y="-.5" width="1" height="2"/>
  </pattern>
  <pattern id="pattern28308-1" patternTransform="matrix(.047422 -.045278 8.1327 8.5178 -48.185 1053.2)" xlink:href="#pattern28057-0"/>
  <pattern id="pattern28057-0" patternTransform="matrix(.047422 -.045278 8.1327 8.5178 -49.563 1006.3)" xlink:href="#pattern6597-2"/>
  <pattern id="pattern6597-2" patternTransform="matrix(.047422 -.045278 8.1327 8.5178 -765.8 1013)" xlink:href="#pattern5942-3-51"/>
  <pattern id="pattern5942-3-51" patternTransform="matrix(.047422 -.045278 8.1327 8.5178 -751.8 1013)" xlink:href="#pattern5787-1-0"/>
  <pattern id="pattern5787-1-0" patternTransform="matrix(.047422 -.045278 8.1327 8.5178 -49.563 1006.3)" xlink:href="#pattern9529-8-1-4"/>
  <pattern id="pattern9529-8-1-4" patternTransform="matrix(.047373 -.045374 8.1418 8.5012 -48.49 1006.4)" xlink:href="#pattern9496-6-9-0"/>
  <pattern id="pattern9496-6-9-0" patternTransform="matrix(.047355 -.045348 8.1452 8.5058 396.14 -51.594)" xlink:href="#pattern9487-6-9-6"/>
  <pattern id="pattern9487-6-9-6" patternTransform="matrix(.056516 -.039102 6.9938 10.109 354.71 164.31)" xlink:href="#Strips1_64-2-5-4"/>
  <pattern id="Strips1_64-2-5-4" width="65" height="1" patternTransform="translate(0) scale(10)" patternUnits="userSpaceOnUse">
   <rect y="-.5" width="1" height="2"/>
  </pattern>
  <linearGradient id="linearGradient30662" x1="24.288" x2="22.322" y1="918.57" y2="1189.3" gradientTransform="matrix(1.0667 0 0 1.0667 503.85 -1.5854)" gradientUnits="userSpaceOnUse">
   <stop stop-color="#fff" offset="0"/>
   <stop stop-color="#00385e" offset="1"/>
  </linearGradient>
  <linearGradient id="linearGradient30677" x1="33.666" x2="33.943" y1="73.428" y2="-18.843" gradientTransform="matrix(1.991 0 0 1.991 486.16 957.52)" gradientUnits="userSpaceOnUse" xlink:href="#linearGradient17780-7-9-9-6"/>
  <linearGradient id="linearGradient30681" x1="140.33" x2="140.12" y1="1008" y2="830.71" gradientTransform="matrix(1.0726 0 0 1.0667 493.88 28.106)" gradientUnits="userSpaceOnUse" xlink:href="#linearGradient17780-7-9-9-6"/>
  <linearGradient id="linearGradient30684" x1="73.108" x2="73.471" y1="73.128" y2="-20.227" gradientTransform="matrix(1.991 0 0 1.991 486.16 957.52)" gradientUnits="userSpaceOnUse" xlink:href="#linearGradient17780-7-9-9-6"/>
  <linearGradient id="linearGradient30687" x1="103.67" x2="105.19" y1="1006.7" y2="830.98" gradientTransform="matrix(1.0667 0 0 1.0667 494.67 28.106)" gradientUnits="userSpaceOnUse" xlink:href="#linearGradient17780-7-9-9-6"/>
  <linearGradient id="linearGradient30690" x1="27.086" x2="26.953" y1="1006.2" y2="829.15" gradientTransform="matrix(1.0449 0 0 1.0667 495.46 28.106)" gradientUnits="userSpaceOnUse" xlink:href="#linearGradient17780-7-9-9-6"/>
  <linearGradient id="linearGradient30706" x1="24.288" x2="22.322" y1="918.57" y2="1189.3" gradientTransform="matrix(1.0667 0 0 1.0667 180.8 -.82347)" gradientUnits="userSpaceOnUse">
   <stop stop-color="#fff" offset="0"/>
   <stop stop-color="#00385e" offset="1"/>
  </linearGradient>
  <linearGradient id="linearGradient30720" x1="33.666" x2="33.943" y1="73.428" y2="-18.843" gradientTransform="matrix(1.991 0 0 1.991 163.11 958.28)" gradientUnits="userSpaceOnUse" xlink:href="#linearGradient17780-7-9-9-6"/>
  <linearGradient id="linearGradient30723" x1="140.33" x2="140.12" y1="1008" y2="830.71" gradientTransform="matrix(1.0726 0 0 1.0667 170.83 28.868)" gradientUnits="userSpaceOnUse" xlink:href="#linearGradient17780-7-9-9-6"/>
  <linearGradient id="linearGradient30726" x1="73.108" x2="73.471" y1="73.128" y2="-20.227" gradientTransform="matrix(1.991 0 0 1.991 163.11 958.28)" gradientUnits="userSpaceOnUse" xlink:href="#linearGradient17780-7-9-9-6"/>
  <linearGradient id="linearGradient30729" x1="103.67" x2="105.19" y1="1006.7" y2="830.98" gradientTransform="matrix(1.0667 0 0 1.0667 171.62 28.868)" gradientUnits="userSpaceOnUse" xlink:href="#linearGradient17780-7-9-9-6"/>
  <linearGradient id="linearGradient30732" x1="27.086" x2="26.953" y1="1006.2" y2="829.15" gradientTransform="matrix(1.0449 0 0 1.0667 172.41 28.868)" gradientUnits="userSpaceOnUse" xlink:href="#linearGradient17780-7-9-9-6"/>
  <linearGradient id="linearGradient31295" x1="24.288" x2="22.322" y1="918.57" y2="1189.3" gradientTransform="matrix(1.0667 0 0 1.0667 15.875 -.20528)" gradientUnits="userSpaceOnUse">
   <stop stop-color="#fff" offset="0"/>
   <stop stop-color="#00385e" offset="1"/>
  </linearGradient>
  <linearGradient id="linearGradient3971" x1="24.288" x2="22.322" y1="918.57" y2="1189.3" gradientTransform="matrix(1.0667 0 0 1.0667 342.33 -.82347)" gradientUnits="userSpaceOnUse">
   <stop stop-color="#fff" offset="0"/>
   <stop stop-color="#00385e" offset="1"/>
  </linearGradient>
  <linearGradient id="linearGradient3985" x1="33.666" x2="33.943" y1="73.428" y2="-18.843" gradientTransform="matrix(1.991 0 0 1.991 324.64 958.28)" gradientUnits="userSpaceOnUse" xlink:href="#linearGradient17780-7-9-9-6"/>
  <linearGradient id="linearGradient3988" x1="140.33" x2="140.12" y1="1008" y2="830.71" gradientTransform="matrix(1.0726 0 0 1.0667 332.36 28.868)" gradientUnits="userSpaceOnUse" xlink:href="#linearGradient17780-7-9-9-6"/>
  <linearGradient id="linearGradient3991" x1="73.108" x2="73.471" y1="73.128" y2="-20.227" gradientTransform="matrix(1.991 0 0 1.991 324.64 958.28)" gradientUnits="userSpaceOnUse" xlink:href="#linearGradient17780-7-9-9-6"/>
  <linearGradient id="linearGradient3994" x1="103.67" x2="105.19" y1="1006.7" y2="830.98" gradientTransform="matrix(1.0667 0 0 1.0667 333.15 28.868)" gradientUnits="userSpaceOnUse" xlink:href="#linearGradient17780-7-9-9-6"/>
  <linearGradient id="linearGradient3997" x1="27.086" x2="26.953" y1="1006.2" y2="829.15" gradientTransform="matrix(1.0449 0 0 1.0667 333.94 28.868)" gradientUnits="userSpaceOnUse" xlink:href="#linearGradient17780-7-9-9-6"/>
 </defs>
 <metadata>
  <rdf:RDF>
   <cc:Work rdf:about="">
    <dc:format>image/svg+xml</dc:format>
    <dc:type rdf:resource="http://purl.org/dc/dcmitype/StillImage"/>
    <dc:title>Abbildung für OPEN MIND Softwaredokumentation</dc:title>
    <dc:creator>
     <cc:Agent>
      <dc:title>OPEN MIND Technologies AG</dc:title>
     </cc:Agent>
    </dc:creator>
    <dc:rights>
     <cc:Agent>
      <dc:title>Alle Rechte vorbehalten.</dc:title>
     </cc:Agent>
    </dc:rights>
    <dc:publisher>
     <cc:Agent>
      <dc:title>Technische Redaktion</dc:title>
     </cc:Agent>
    </dc:publisher>
   </cc:Work>
  </rdf:RDF>
 </metadata>
 <g transform="translate(0 -914.65)">
  <text x="461.03415" y="1787.968" fill="#ffffff" font-family="'Arial Nova', 'Arial Unicode MS', 'Yu Gothic UI', sans-serif" font-size="20.122px" stroke-width="1.0667" style="line-height:0%">1</text>
  <g>
   <g stroke-linecap="round" stroke-linejoin="round">
    <path d="m449.55 1657h-55.743c-6.0248 0.054-11.809-1.1753-16.917-4.2356l-87.268-58.534h-24.166l-0.0518 139.01h53.053l44.98-45.822c6.729-6.61 13.499-10.52 22.683-10.786h63.432v-19.636z" fill="url(#linearGradient17296)" stroke="#4d4d4d" stroke-miterlimit="10" stroke-width=".67654"/>
    <path d="m449.55 1766.6v-90.17l-0.93964-2e-4 -58.948 0.035c-11.446 0.321-14.761-0.9283-28.353 13.032l-42.811 43.628-53.195-0.078-0.01 33.001" fill="url(#linearGradient17290)" stroke="#4d4d4d" stroke-miterlimit="9.25" stroke-width=".66351"/>
    <path d="m265.49 1766.6h183.66" color="#000000" fill="#4d748f" fill-rule="evenodd" stroke="#666" stroke-dasharray="11.2388, 2.80972, 1.40486, 2.80972" stroke-width="1.4049"/>
   </g>
   <polyline transform="matrix(2.7245 0 0 2.7183 164.51 1585.6)" points="87.23 41.839 91.62 46.442 91.62 43.445 100.64 43.445 100.64 40.234 91.62 40.234 91.62 37.344 87.23 41.839" fill="#d4aa00" stroke="#000" stroke-linecap="square" stroke-miterlimit="10" stroke-width=".33104"/>
  </g>
  <path d="m318.4 1733.6v32.874" fill="none" stroke="#4d4d4d" stroke-linecap="round" stroke-linejoin="round" stroke-width=".67654"/>
  <path d="m615.51 1644.4 24.26-21.869 0.0713 97.786-24.699-25.528z" fill="url(#linearGradient22523)"/>
  <path d="m641.87 1731.6 0.0152-12.463-24.746-25.678 0.38987-48.263 24.103-22.035 0.25695-29.857 2.3625-0.024" fill="none" stroke="#fc0" stroke-linecap="round" stroke-linejoin="round" stroke-miterlimit="4.8571" stroke-width="2.8132"/>
  <polyline transform="matrix(0 -2.9199 2.9133 0 463.48 1943.8)" points="87.23 41.839 91.62 46.442 91.62 43.445 100.64 43.445 100.64 40.234 91.62 40.234 91.62 37.344 87.23 41.839" fill="#d4aa00" stroke="#000" stroke-linecap="square" stroke-miterlimit="10" stroke-width=".33104"/>
  <text x="124.76606" y="1808.6749" fill="#ffffff" font-family="'Arial Nova', 'Arial Unicode MS', 'Yu Gothic UI', sans-serif" font-size="24.898px" stroke-width="1.0667" style="line-height:0%">1</text>
  <path d="m65.328 1583.7v3.3253l88.54 59.76c5.7539 3.849 12.43 5.7957 19.398 6.0218l63.624 0.1116v-3.353" fill="none" stroke="#d4aa00" stroke-linecap="round" stroke-linejoin="round" stroke-width="3.0236"/>
  <text x="338.81488" y="1808.1086" fill="#ffffff" font-family="'Arial Nova', 'Arial Unicode MS', 'Yu Gothic UI', sans-serif" font-size="24.898px" stroke-width="1.0667" style="line-height:0%">1</text>
  <path d="m320.29 1736.1 47.622-49.143c5.4135-4.5476 6.546-8.2119 23.249-8.0074l63.974 0.7899-0.0395 2.9527" fill="none" stroke="#fc0" stroke-linecap="round" stroke-linejoin="round" stroke-width="3.0236"/>
  <g>
   <path d="m486.85 1766.2 0.0231-33.256 152.62 0.091v32.974" fill="url(#linearGradient15855)" stroke="#4d4d4d" stroke-linecap="round" stroke-linejoin="round" stroke-miterlimit="9.25" stroke-width=".67654"/>
   <path d="m486.98 1766.3 152.25-0.5388" color="#000000" fill="#4d748f" fill-rule="evenodd" stroke="#666" stroke-dasharray="11.4926, 2.87314, 1.43657, 2.87314" stroke-linecap="round" stroke-linejoin="round" stroke-width="1.4366"/>
   <g stroke-miterlimit="10">
    <path d="m639.52 1732.7 0.0155-12.501s-24.711-25.641-24.684-25.547l0.29999-50.341 24.332-22.174 0.14343-26.893s-99.042-0.047-152.83-0.1208l0.13383 137.35" fill="url(#linearGradient19502-2)" stroke="#4d4d4d" stroke-width=".67654"/>
    <path d="m638.88 1621.4-0.0893-26.772-152.33 0.5807-0.0311 136.43 152.24 0.8597 0.38349-12.882-24.766-25.652 0.27551-50.319z" fill="url(#pattern23509)" opacity=".33333"/>
    <polyline transform="matrix(0 2.786 -2.7797 0 685.86 1412.9)" points="87.23 41.839 91.62 46.442 91.62 43.445 100.64 43.445 100.64 40.234 91.62 40.234 91.62 37.344 87.23 41.839" fill="#d4aa00" stroke="#000" stroke-linecap="square" stroke-width=".33104"/>
   </g>
  </g>
  <text x="239.66908" y="1787.5779" fill="#ffffff" font-family="'Arial Nova', 'Arial Unicode MS', 'Yu Gothic UI', sans-serif" font-size="20.122px" stroke-width="1.0667" style="line-height:0%">1</text>
  <g>
   <path d="m228.18 1656.7h-55.743c-6.0248 0.054-11.809-1.1755-16.917-4.2358l-87.267-58.534h-24.166l-0.05184 139.01h53.053l44.98-45.822c6.729-6.6099 13.499-10.519 22.683-10.786h63.432v-19.636z" fill="url(#linearGradient17283)" stroke="#4d4d4d" stroke-miterlimit="10" stroke-width=".67654"/>
   <path d="m264.1 1732.3h-55.743c-6.0248 0.054-11.809-1.1755-16.917-4.2358l-87.267-58.534h-24.166l-0.05184 139.01h53.053l44.98-45.822c6.729-6.6098 13.499-10.519 22.683-10.786h63.432v-19.636z" fill="url(#pattern17280)" opacity=".48387" stroke-miterlimit="10"/>
   <path d="m228.18 1766.2v-90.17l-0.93963-2e-4 -58.948 0.035c-11.446 0.3211-14.761-0.9283-28.353 13.032l-42.811 43.628-53.195-0.078-0.0096 33.001" fill="url(#linearGradient17277)" stroke="#4d4d4d" stroke-linecap="round" stroke-linejoin="round" stroke-miterlimit="9.25" stroke-width=".66351"/>
   <path d="m44.121 1766.2h183.66" color="#000000" fill="#4d748f" fill-rule="evenodd" stroke="#666" stroke-dasharray="11.2388, 2.80972, 1.40486, 2.80972" stroke-linecap="round" stroke-linejoin="round" stroke-width="1.4049"/>
   <polyline transform="matrix(2.7245 0 0 2.7183 -56.851 1585.2)" points="87.23 41.839 91.62 46.442 91.62 43.445 100.64 43.445 100.64 40.234 91.62 40.234 91.62 37.344 87.23 41.839" fill="#d4aa00" stroke="#000" stroke-linecap="square" stroke-miterlimit="10" stroke-width=".33104"/>
  </g>
  <path d="m97.038 1733.2v32.874" fill="none" stroke="#4d4d4d" stroke-linecap="round" stroke-linejoin="round" stroke-width=".67654"/>
  <g>
   <path d="m449.82 1657.3h-55.743c-6.0248 0.053-11.809-1.1755-16.917-4.2358l-87.267-58.534h-24.166l-0.0518 139.01h53.053l44.409-46.393c6.729-6.6098 13.404-10.424 22.588-10.691l64.099 0.4763v-19.636z" fill="url(#pattern17293)" opacity=".48387" stroke-miterlimit="10"/>
   <path d="m139.31 1057.3 10.584 10.003h12.583v-88.63h-12.87l-10.297 9.7527v0l-0.28471 38.866h-56.634l-42.068-48.732-14.279 0.14733v102.6h18.877l37.755-39.153h56.634z" fill="url(#linearGradient31295)" fill-rule="evenodd" stroke="#4d4d4d" stroke-linecap="round" stroke-linejoin="round" stroke-miterlimit="5" stroke-width=".67654"/>
   <path d="m26.137 979.08 14.055-0.31641 42.123 48.77 56.716-0.011 0.4042-38.785 10.169-9.7446 12.853-0.04-0.0413 88.774-12.205-0.026-10.775-9.9866-0.0675-15.349-56.636 0.157-37.865 39.02-18.838 0.049z" fill="url(#pattern31292)" opacity=".5"/>
  </g>
  <path d="m40.261 961.33-0.19048 12.385 43.871 50.571 52.158-0.1347 0.26937-37.031 11.929-10.561 0.43673-15.193" fill="none" stroke="#d4aa00" stroke-linecap="round" stroke-linejoin="round" stroke-miterlimit="10" stroke-width="2.2677"/>
  <polyline transform="matrix(2.046 0 0 2.0413 -133.23 938.76)" points="87.23 41.839 91.62 46.442 91.62 43.445 100.64 43.445 100.64 40.234 91.62 40.234 91.62 37.344 87.23 41.839" fill="#d4aa00" stroke="#000" stroke-linecap="square" stroke-miterlimit="10" stroke-width=".33104"/>
  <g transform="translate(15.855 -.83554)" stroke="#4d4d4d" stroke-linecap="round" stroke-linejoin="round">
   <g fill-rule="evenodd" stroke-miterlimit="5" stroke-width=".67654">
    <path d="m10.15 1105.8v-24.292h19.428v24.292" fill="url(#linearGradient30699)"/>
    <path d="m66.651 1105.8v-63.495h56.889v63.495" fill="url(#linearGradient30701)"/>
    <path d="m123.56 1105.8v-48.268l10.731 10.12v38.148" fill="url(#linearGradient30703)"/>
    <path d="m134.31 1105.8v-38.203h12.274v38.203" fill="url(#linearGradient30705)"/>
    <path d="m29.136 1105.8v-24.292l37.496-38.94v63.232" fill="url(#linearGradient30707)"/>
   </g>
   <line x1="146.05" x2="10.288" y1="1105.8" y2="1105.8" fill="#34679b" stroke-dasharray="5.72976, 2.86489, 1.43244, 2.86489" stroke-width="1.4324"/>
  </g>
  <g>
   <path d="m304.24 1056.6 10.584 10.003h12.583v-88.63h-12.87l-10.297 9.7527v0l-0.28471 38.866h-56.634l-42.068-48.732-14.279 0.14733v102.6h18.877l37.755-39.153h56.634z" fill="url(#linearGradient30706)" fill-rule="evenodd" stroke="#4d4d4d" stroke-linecap="round" stroke-linejoin="round" stroke-miterlimit="5" stroke-width=".67654"/>
   <path d="m191.06 978.46 14.055-0.31641 42.123 48.77 56.716-0.011 0.4042-38.786 10.169-9.7446 12.853-0.04-0.0413 88.774-12.205-0.026-10.775-9.9866-0.0675-15.349-56.636 0.157-37.865 39.02-18.838 0.049z" fill="url(#pattern30702)" opacity=".5"/>
   <polyline transform="matrix(2.046 0 0 2.0413 31.701 938.14)" points="87.23 41.839 91.62 46.442 91.62 43.445 100.64 43.445 100.64 40.234 91.62 40.234 91.62 37.344 87.23 41.839" fill="#d4aa00" stroke="#000" stroke-linecap="square" stroke-miterlimit="10" stroke-width=".33104"/>
   <g fill-rule="evenodd" stroke="#4d4d4d" stroke-linecap="round" stroke-linejoin="round" stroke-miterlimit="5" stroke-width=".67654">
    <path d="m190.93 1104.3v-24.292h19.428v24.292" fill="url(#linearGradient30732)"/>
    <path d="m247.43 1104.3v-63.495h56.889v63.495" fill="url(#linearGradient30729)"/>
    <path d="m304.34 1104.3v-48.268l10.731 10.12v38.148" fill="url(#linearGradient30726)"/>
    <path d="m315.09 1104.3v-38.203h12.274v38.203" fill="url(#linearGradient30723)"/>
    <path d="m209.92 1104.3v-24.292l37.496-38.94v63.232" fill="url(#linearGradient30720)"/>
   </g>
  </g>
  <line x1="326.83" x2="191.07" y1="1104.4" y2="1104.4" fill="#34679b" stroke="#4d4d4d" stroke-dasharray="5.72976, 2.86489, 1.43244, 2.86489" stroke-linecap="round" stroke-linejoin="round" stroke-width="1.4324"/>
  <path d="m465.76 1056.6 10.584 10.003h12.583v-88.63h-12.87l-10.297 9.7527v0l-0.28471 38.866h-56.634l-42.068-48.732-14.279 0.14733v102.6h18.877l37.755-39.153h56.634z" fill="url(#linearGradient3971)" fill-rule="evenodd" stroke="#4d4d4d" stroke-linecap="round" stroke-linejoin="round" stroke-miterlimit="5" stroke-width=".67654"/>
  <path d="m352.59 978.46 14.055-0.31641 42.123 48.77 56.716-0.011 0.40419-38.786 10.169-9.7446 12.853-0.04-0.0413 88.774-12.205-0.026-10.775-9.9866-0.0675-15.349-56.636 0.157-37.865 39.02-18.838 0.049z" fill="url(#pattern3968)" opacity=".5"/>
  <path d="m366.25 962.53c-0.33711 6.0425-0.44074 9.7483 3.3545 14.123l40.785 47.015 52.158-0.1347 0.26937-37.031 8.4783-7.5057c4.9903-3.64 3.8552-10.238 3.8552-16.319" fill="none" stroke="#d4aa00" stroke-linecap="round" stroke-linejoin="round" stroke-miterlimit="10" stroke-width="2.2677"/>
  <g>
   <polyline transform="matrix(2.046 0 0 2.0413 193.23 938.14)" points="87.23 41.839 91.62 46.442 91.62 43.445 100.64 43.445 100.64 40.234 91.62 40.234 91.62 37.344 87.23 41.839" fill="#d4aa00" stroke="#000" stroke-linecap="square" stroke-miterlimit="10" stroke-width=".33104"/>
   <g fill-rule="evenodd" stroke="#4d4d4d" stroke-linecap="round" stroke-linejoin="round" stroke-miterlimit="5" stroke-width=".67654">
    <path d="m352.46 1104.3v-24.292h19.428v24.292" fill="url(#linearGradient3997)"/>
    <path d="m408.96 1104.3v-63.495h56.889v63.495" fill="url(#linearGradient3994)"/>
    <path d="m465.86 1104.3v-48.268l10.731 10.12v38.148" fill="url(#linearGradient3991)"/>
    <path d="m476.61 1104.3v-38.203h12.274v38.203" fill="url(#linearGradient3988)"/>
    <path d="m371.44 1104.3v-24.292l37.496-38.94v63.232" fill="url(#linearGradient3985)"/>
   </g>
  </g>
  <line x1="488.36" x2="352.59" y1="1104.4" y2="1104.4" fill="#34679b" stroke="#4d4d4d" stroke-dasharray="5.72976, 2.86489, 1.43244, 2.86489" stroke-linecap="round" stroke-linejoin="round" stroke-width="1.4324"/>
  <path d="m627.28 1055.9 10.584 10.003h12.583v-88.63h-12.87l-10.297 9.7527v0l-0.28472 38.866h-56.634l-42.068-48.732-14.279 0.14733v102.6h18.877l37.755-39.153h56.634z" fill="url(#linearGradient30662)" fill-rule="evenodd" stroke="#4d4d4d" stroke-linecap="round" stroke-linejoin="round" stroke-miterlimit="5" stroke-width=".67654"/>
  <path d="m514.11 977.7 14.055-0.3164 42.123 48.77 56.716-0.011 0.40419-38.786 10.169-9.7446 12.853-0.04-0.0413 88.774-12.205-0.026-10.775-9.9866-0.0675-15.349-56.636 0.157-37.865 39.02-18.838 0.049z" fill="url(#pattern30659)" opacity=".5"/>
  <path d="m538.21 962.3-10.164 10.033 43.871 50.571 52.696-0.1347 0.26937-37.031 11.391-10.561-11.825-12.13" fill="none" stroke="#d4aa00" stroke-linecap="round" stroke-linejoin="round" stroke-miterlimit="10" stroke-width="2.2677"/>
  <g>
   <polyline transform="matrix(2.046 0 0 2.0413 354.75 937.37)" points="87.23 41.839 91.62 46.442 91.62 43.445 100.64 43.445 100.64 40.234 91.62 40.234 91.62 37.344 87.23 41.839" fill="#d4aa00" stroke="#000" stroke-linecap="square" stroke-miterlimit="10" stroke-width=".33104"/>
   <g fill-rule="evenodd" stroke="#4d4d4d" stroke-linecap="round" stroke-linejoin="round" stroke-miterlimit="5" stroke-width=".67654">
    <path d="m513.98 1103.5v-24.292h19.428v24.292" fill="url(#linearGradient30690)"/>
    <path d="m570.48 1103.5v-63.495h56.889v63.495" fill="url(#linearGradient30687)"/>
    <path d="m627.39 1103.5v-48.268l10.731 10.12v38.148" fill="url(#linearGradient30684)"/>
    <path d="m638.14 1103.5v-38.203h12.274v38.203" fill="url(#linearGradient30681)"/>
    <path d="m532.97 1103.5v-24.292l37.496-38.94v63.232" fill="url(#linearGradient30677)"/>
   </g>
  </g>
  <line x1="649.88" x2="514.12" y1="1103.6" y2="1103.6" fill="#34679b" stroke="#4d4d4d" stroke-dasharray="5.72976, 2.86489, 1.43244, 2.86489" stroke-linecap="round" stroke-linejoin="round" stroke-width="1.4324"/>
  <path d="m194.65 961.9 54.78 62.154 52.158-0.1347 0.26938-37.031 23.513-22.817" fill="none" stroke="#d4aa00" stroke-linecap="round" stroke-linejoin="round" stroke-miterlimit="10" stroke-width="2.2677"/>
  <g transform="translate(139.96 1043.4)">
   <ellipse cx="-44.92" cy="-98.798" rx="13.199" ry="13.469" fill="#1f638a" stroke-linecap="round" stroke-linejoin="round" stroke-width="1.0658"/>
   <text x="-50.761276" y="-91.125885" fill="#000000" font-family="'Arial Nova', 'Arial Unicode MS', 'Yu Gothic UI', sans-serif" font-size="12.8px" letter-spacing="0px" stroke-width="1.0667" word-spacing="0px" style="line-height:0%" xml:space="preserve"><tspan x="-50.761276" y="-91.125885" fill="#ffffff" font-family="'Arial Nova', 'Arial Unicode MS', 'Yu Gothic UI', sans-serif" font-size="21.333px" stroke="#ffffff" stroke-width="1.0667" style="line-height:1.25">1</tspan></text>
  </g>
  <g transform="translate(280.16 1043.4)">
   <ellipse cx="-13.718" cy="-98.798" rx="13.199" ry="13.469" fill="#1f638a" stroke-linecap="round" stroke-linejoin="round" stroke-width="1.0658"/>
   <text x="-19.559933" y="-91.125885" fill="#000000" font-family="'Arial Nova', 'Arial Unicode MS', 'Yu Gothic UI', sans-serif" font-size="12.8px" letter-spacing="0px" stroke-width="1.0667" word-spacing="0px" style="line-height:0%" xml:space="preserve"><tspan x="-19.559933" y="-91.125885" fill="#ffffff" font-family="'Arial Nova', 'Arial Unicode MS', 'Yu Gothic UI', sans-serif" font-size="21.333px" stroke="#ffffff" stroke-width="1.0667" style="line-height:1.25">2</tspan></text>
  </g>
  <g transform="translate(408.36 1043.4)">
   <ellipse cx="17.483" cy="-98.798" rx="13.199" ry="13.469" fill="#1f638a" stroke-linecap="round" stroke-linejoin="round" stroke-width="1.0658"/>
   <text x="11.641406" y="-91.256096" fill="#000000" font-family="'Arial Nova', 'Arial Unicode MS', 'Yu Gothic UI', sans-serif" font-size="12.8px" letter-spacing="0px" stroke-width="1.0667" word-spacing="0px" style="line-height:0%" xml:space="preserve"><tspan x="11.641406" y="-91.256096" fill="#ffffff" font-family="'Arial Nova', 'Arial Unicode MS', 'Yu Gothic UI', sans-serif" font-size="21.333px" stroke="#ffffff" stroke-width="1.0667" style="line-height:1.25">3</tspan></text>
  </g>
  <g transform="translate(183.99 796.1)">
   <g transform="translate(354.56 247.34)">
    <ellipse cx="48.684" cy="-98.798" rx="13.199" ry="13.469" fill="#1f638a" stroke-linecap="round" stroke-linejoin="round" stroke-width="1.0658"/>
    <text x="42.842751" y="-91.162346" fill="#000000" font-family="'Arial Nova', 'Arial Unicode MS', 'Yu Gothic UI', sans-serif" font-size="12.8px" letter-spacing="0px" stroke-width="1.0667" word-spacing="0px" style="line-height:0%" xml:space="preserve"><tspan x="42.842751" y="-91.162346" fill="#ffffff" font-family="'Arial Nova', 'Arial Unicode MS', 'Yu Gothic UI', sans-serif" font-size="21.333px" stroke="#ffffff" stroke-width="1.0667" style="line-height:1.25">4</tspan></text>
   </g>
  </g>
 </g>
</svg>
