<svg version="1.1" viewBox="0 0 460.63 283.46" xmlns="http://www.w3.org/2000/svg">
 <title>Abbildung fuer OPEN MIND Softwaredokumentation</title>
 <defs>
  <linearGradient id="linearGradient10378" x1="282.99" x2="368.07" y1="109.11" y2="108.18" gradientTransform="matrix(2.1109 0 0 2.106 -578.44 -148.73)" gradientUnits="userSpaceOnUse">
   <stop stop-color="#ffffff" offset="0"/>
   <stop stop-color="#00385e" offset="1"/>
  </linearGradient>
 </defs>
 <g transform="matrix(1.5926 0 0 1.5906 8.3579 -133.22)" opacity=".69254" stroke="#464646" stroke-linecap="round" stroke-linejoin="round" stroke-width=".22263">
  <path d="m27.825 101.66h47.982v125.01h-47.982z" fill="#dde5ea" fill-rule="evenodd" opacity=".61791"/>
  <path d="m34.888 209.43h40.58" fill="none" opacity=".78507"/>
  <path d="m44.286 102 0.02232 116.94" fill="none" opacity=".78507"/>
 </g>
 <path d="m20.803 28.685v246.34h108.22v-59.831l-45.92 0.0489c-11.321 0.35018-19.855-11.268-19.774-22.135v-164.43z" fill="url(#linearGradient10378)" stroke="#4d4d4d" stroke-width=".63425"/>
 <g fill="none">
  <g transform="translate(0,17.717)" stroke="#d4aa00" stroke-linecap="round" stroke-linejoin="round" stroke-width="1.7717">
   <path d="m80.161 120.8 24.411 3.5246c3.0249 0.57923 2.724 1.8976 0.60907 2.6278-6.7815 2.0098-14.368 2.633-24.784 2.2948-0.51122-0.0165-0.31165-3.1244-0.31116-3.4438"/>
   <path d="m80.09 125.79 24.395 3.6382c3.0249 0.57923 2.724 1.8976 0.60905 2.6278-6.7815 2.0098-14.368 2.633-24.784 2.2948-0.51122-0.0165-0.22512-3.0191-0.22465-3.3385"/>
   <path d="m80.087 131.03 24.441 3.4626c3.0249 0.57923 2.724 1.8976 0.60905 2.6278-6.7815 2.0098-14.368 2.633-24.784 2.2948-0.51122-0.0165-0.38814-2.7815-0.38765-3.1009"/>
   <path d="m79.954 136.18 24.441 3.4626c3.0249 0.57923 2.724 1.8976 0.60907 2.6278-6.7815 2.0098-14.368 2.633-24.784 2.2948-0.51124-0.0167-0.39821-2.8786-0.39772-3.198"/>
   <path d="m79.832 141.32 24.38 3.4378c3.0249 0.57921 2.724 1.8976 0.60907 2.6278-6.7815 2.0098-14.368 2.633-24.784 2.2948-0.51122-0.0165-0.37547-2.8786-0.37498-3.198"/>
   <path d="m79.71 146.36 24.441 3.4626c3.0249 0.57923 2.724 1.8976 0.60905 2.6278-6.7815 2.0098-14.368 2.633-24.784 2.2948-0.51122-0.0165-0.31694-2.9013-0.31643-3.2207"/>
   <path d="m79.71 151.42 24.441 3.4626c3.0249 0.57923 2.724 1.8976 0.60905 2.6278-6.7815 2.0098-14.368 2.633-24.784 2.2948-0.51122-0.0165-0.22514-2.8787-0.22463-3.198"/>
   <path d="m79.777 156.51 24.441 3.4626c3.0249 0.57922 2.724 1.8976 0.60905 2.6278-6.7815 2.0098-14.368 2.633-24.784 2.2948-0.51122-0.0165-0.38816-2.8269-0.38767-3.1462"/>
   <path d="m79.644 161.67 24.441 3.4626c3.0249 0.57921 2.724 1.8976 0.60907 2.6278-6.7815 2.0098-14.368 2.633-24.784 2.2948-0.51122-0.0165-0.43404-2.7836-0.43355-3.103"/>
   <path d="m79.461 166.78 24.441 3.4626c3.0249 0.57921 2.724 1.8976 0.60905 2.6278-6.7815 2.0098-14.368 2.633-24.784 2.2948-0.51122-0.0165-0.31167-2.8084-0.31116-3.1278"/>
   <path d="m79.4 171.84 24.441 3.4626c3.0249 0.57922 2.724 1.8976 0.60905 2.6278-6.7815 2.0098-14.368 2.633-24.784 2.2948-0.51124-0.0165-0.31167-2.9488-0.31118-3.2682"/>
   <path d="m79.4 176.9 24.441 3.4626c3.0249 0.57922 2.724 1.8976 0.60905 2.6278-6.7815 2.0098-14.368 2.633-24.784 2.2948-0.51124-0.0165-0.31167-3.1244-0.31118-3.4438"/>
  </g>
  <g transform="translate(0,17.717)" stroke-linecap="round" stroke-linejoin="round">
   <g transform="matrix(1.9582,0,0,1.5889,-685.05,-129.82)" stroke="#d4aa00" stroke-width="1.0044">
    <path d="m390.35 196.2c0.0916-0.0985 9.6951 1.5936 13.467 2.5142 0.0105 0.1622-4.2413 3.5542-4.2413 3.5542l-8.4828-0.0795c-0.63904 0.63734-0.7883 1.359-0.62944 2.1335l12.51 0.12797c0.81168-0.31634 0.91323-1.8546-0.17927-2.1709h-3.1148"/>
    <path d="m392.53 202.21c-0.58735 0.69969-0.90823 1.3645-0.86189 2.1089"/>
    <path d="m394.08 202.23c-0.58737 0.69968-0.88614 1.3866-0.8398 2.131"/>
    <path d="m395.62 202.25c-0.58736 0.6997-0.88613 1.3424-0.83979 2.0868"/>
    <path d="m397.25 202.27c-0.58735 0.69968-0.88613 1.4198-0.8398 2.1642"/>
    <path d="m398.53 202.3c-0.58735 0.69969-0.88614 1.3535-0.8398 2.0979"/>
    <path d="m399.99 202.27c-0.58736 0.69968-0.88614 1.4198-0.83979 2.1642"/>
    <path d="m403.6 203.46-0.0336-1.5422 2.5882-10.036"/>
   </g>
   <path d="m99.577 128.7 5.0006 0.81766c3.0249 0.57922 2.724 1.697 0.60905 2.4271-2.7551 0.81651-3.0023 0.94918-6.1587 1.3365" stroke="#7afc1d" stroke-width="1.7717"/>
   <path d="m99.741 123.51 5.0338 0.80769c2.7583 0.65159 2.6351 1.9285 0.52019 2.6157-2.0436 0.57006-3.6626 0.87973-5.9078 1.2237" stroke="#7afc1d" stroke-width="1.7717"/>
  </g>
  <g transform="translate(3.7603e-6 17.654)">
   <g transform="matrix(1.5926,0,0,1.5889,-267.73,-176.71)" stroke-linecap="round" stroke-linejoin="round">
    <g transform="matrix(.76987 0 0 .76987 585.36 20.726)" stroke-width="1.4467">
     <path d="m-465.49 230.83c2.7808-0.76187 4.2805-3.205 4.231-8.6833v-91.609" stroke="#7afc1d"/>
     <g stroke="#d4aa00">
      <path d="m-477.18 129.14c0.20865-4.3611 4.537-3.4135 4.3486 0.2177v92.492c-0.12641 1.7867-0.55688 3.2348-2.2874 3.1284-1.2481-0.0517-1.5139-0.64951-1.8545-1.2058l-0.19187-1.662"/>
      <path d="m-476.96 129.07c0.43328-8.1598 7.9014-6.7048 7.5032 1.2488v92.251c-0.28689 2.6324-0.69589 5.1803-4.154 4.9208-1.7253-0.0232-2.6297-1.0026-3.1654-2.4115l-0.31974-1.4665"/>
      <path d="m-476.92 128.38c0.46065-9.4291 10.992-8.5494 10.529 1.9984 0.0101 0.031 0 91.413 0 91.413-0.13813 1.4229 0.10609 7.0868-4.7584 7.8537-2.0694-0.0648-3.9632-0.44268-5.0199-2.3138l-0.60751-2.3138"/>
      <path d="m-476.91 129.03c-0.25924-11.062 12.513-12.62 13.026 0.24505v92.315c-0.36223 1.032 0.80738 9.9072-6.6928 9.809-2.6942-0.0479-4.1688-0.95276-5.4676-3.0307"/>
      <path d="m-476.84 219.44 3.982 8.5529c1.0058 3.3613-3.5948 3.0177-4.2595 0.10922l-0.0158-8.8678"/>
     </g>
    </g>
    <g stroke-width="1.1137">
     <path d="m234.88 124.09 3.256-7.5854 1.6918-10.965" stroke="#d4aa00"/>
     <g stroke="#7afc1d">
      <path d="m231 198.62c0.69204-1.2471 1.123-2.8759 1.196-4.9348v-70.527"/>
      <path d="m227.05 198.63c3.3721-0.0847 3.2606 0.0463 6.6094-0.33684 0.56471-1.464 0.8966-3.2911 0.90835-5.5593l0.13392-68.259"/>
      <path d="m218.14 118.89c0.0214-8.3904 12.127-11.326 12.112 2.0827"/>
      <path d="m218.23 116.85c-0.37185-7.6218 14.002-10.565 13.96 2.1628-5e-3 1.5245-0.0173 4.1164-0.0173 4.1164"/>
     </g>
    </g>
   </g>
   <path d="m79.566 14.018v110.09" stroke="#d4aa00" stroke-width="1.7717"/>
  </g>
  <g transform="translate(0,17.717)" stroke-linecap="round" stroke-linejoin="round">
   <g stroke="#7afc1d">
    <g stroke-width="1.7717">
     <path d="m98.148 133.63 6.4793 0.96812c3.0249 0.57923 2.724 1.697 0.60904 2.4271-2.7551 0.81651-3.571 0.94918-6.7275 1.3365"/>
     <path d="m98.192 138.71 6.2093 1.0304c3.0249 0.57923 2.724 1.697 0.60904 2.4271-2.7551 0.81651-4.2109 1.162-7.3674 1.5493"/>
     <path d="m98.041 143.78 6.2093 1.0304c3.0249 0.57923 2.724 1.697 0.60905 2.4272-2.7551 0.81651-4.2109 1.162-7.3674 1.5493"/>
     <path d="m98.079 148.87 6.2093 1.0304c3.0249 0.57922 2.724 1.697 0.60905 2.4271-2.7551 0.81651-4.2109 1.162-7.3674 1.5493"/>
     <path d="m98.129 153.95 6.2093 1.0304c3.0249 0.57923 2.724 1.697 0.60904 2.4271-2.7551 0.81651-4.2109 1.162-7.3674 1.5493"/>
     <path d="m98.054 159.07 6.2093 1.0304c3.0249 0.57923 2.724 1.697 0.60904 2.4271-2.7551 0.81651-4.2109 1.162-7.3674 1.5493"/>
     <path d="m97.878 164.19 6.2093 1.0305c3.0249 0.57922 2.724 1.697 0.60904 2.4271-2.7551 0.81651-4.2109 1.162-7.3674 1.5493"/>
     <path d="m97.787 169.26 6.2093 1.0305c3.0249 0.57922 2.724 1.697 0.60904 2.4271-2.7551 0.81651-4.2109 1.162-7.3674 1.5493"/>
     <path d="m97.637 174.35 6.2093 1.0305c3.0249 0.57922 2.724 1.697 0.60904 2.4271-2.7551 0.81651-4.2109 1.162-7.3674 1.5493"/>
     <path d="m97.687 179.52 6.2093 1.0304c3.0249 0.57923 2.724 1.697 0.60904 2.4272-2.7551 0.81651-4.2109 1.162-7.3674 1.5493"/>
    </g>
    <path d="m273.62 80.043h-46.663z" stroke-miterlimit="10" stroke-width="2.126"/>
   </g>
   <path d="m273.35 45.976h-46.931z" stroke="#d4aa00" stroke-miterlimit="10" stroke-width="2.126"/>
  </g>
 </g>
 <g transform="matrix(.98599 .16678 -.16678 .98599 234.43 -515.09)">
  <g transform="translate(6.5926,617.13)">
   <g stroke="#000000">
    <g stroke-linecap="round" stroke-linejoin="round" stroke-width=".70866">
     <path d="m21.117 152.54 0.11958 27.151" fill="#800080"/>
     <path d="m21.149 146.01 3.4666 14.35h-6.9332c1.228-7.2721 3.4666-14.35 3.4666-14.35z" fill="#ffffff"/>
     <path d="m43.911 179.63-22.523-0.0967" fill="#800080"/>
     <path d="m51.965 179.65-14.355 3.4439 0.011-6.9332z" fill="#ffffff"/>
    </g>
    <text x="45.019936" y="175.30176" fill="#000000" font-family="'Arial Nova', 'Arial Unicode MS', 'Yu Gothic UI', sans-serif" letter-spacing="0px" word-spacing="0px" style="line-height:0%" xml:space="preserve"><tspan x="45.019936" y="175.30176" fill="#ff0000" font-family="'Arial Nova', 'Arial Unicode MS', 'Yu Gothic UI', sans-serif" font-size="10px" stroke="#000000" style="line-height:1.25">X</tspan></text>
    <text x="24.983866" y="153.24313" fill="#000000" font-family="'Arial Nova', 'Arial Unicode MS', 'Yu Gothic UI', sans-serif" letter-spacing="0px" word-spacing="0px" style="line-height:0%" xml:space="preserve"><tspan x="24.983866" y="153.24313" fill="#ff0000" font-family="'Arial Nova', 'Arial Unicode MS', 'Yu Gothic UI', sans-serif" font-size="10px" stroke="#000000" style="line-height:1.25"> </tspan></text>
   </g>
   <g transform="translate(-243.07,368.71)">
    <path transform="matrix(.9071 0 0 .90186 24.872 -1.1139)" d="m267.68-208.61c0 2.1113-1.7016 3.8228-3.8007 3.8228s-3.8007-1.7115-3.8007-3.8228 1.7016-3.8228 3.8007-3.8228 3.8007 1.7115 3.8007 3.8228z" color="#000000" fill="#ffffff" stroke="#000000" stroke-linecap="round" stroke-linejoin="round" stroke-width=".7835"/>
    <path transform="matrix(.81605 0 0 .73445 48.612 -50.299)" d="m264.67-189.2c0 0.26645-0.1944 0.48245-0.4342 0.48245-0.23981 0-0.4342-0.216-0.4342-0.48245s0.19439-0.48244 0.4342-0.48244c0.2398 0 0.4342 0.21599 0.4342 0.48244z" color="#000000" fill="#000000"/>
   </g>
  </g>
  <text x="33.941635" y="771.28723" fill="#000000" font-family="'Arial Nova', 'Arial Unicode MS', 'Yu Gothic UI', sans-serif" letter-spacing="0px" word-spacing="0px" style="line-height:0%" xml:space="preserve"><tspan x="33.941635" y="771.28723" font-family="'Arial Nova', 'Arial Unicode MS', 'Yu Gothic UI', sans-serif" font-size="12px" font-weight="bold" style="line-height:1.25">Z</tspan></text>
 </g>
 <g transform="translate(0,17.717)" fill="none" stroke-linecap="round" stroke-linejoin="round">
  <path d="m97.479 191.66 5.9997-0.0311c2.4049 5e-3 2.158 3.5322 5e-3 3.4072l-6.2104-0.0747" stroke="#7afc1d" stroke-miterlimit="10" stroke-width="1.7717"/>
  <g>
   <path d="m80.012 186.04 19.376 3.7929" stroke="#d4aa00" stroke-width="1.6107"/>
   <path d="m100.69 186.13c-3.6109 2.6268-12.288 4.8476-20.826 3.318-0.78468-0.14061-0.49571-2.9129-0.46466-3.1715" stroke="#d4aa00" stroke-width="1.6107"/>
   <path d="m97.79 184.71 5.8538 0.6758c3.0249 0.57922 1.9775 0.52658 0.53794 1.6824-2.2218 1.7032-5.4551 3.6091-6.6209 4.4575" stroke="#7afc1d" stroke-width="1.7717"/>
  </g>
 </g>
 <g transform="translate(262.04 160.71)">
  <ellipse cx="-44.92" cy="-98.798" rx="13.199" ry="13.469" fill="#1f638a" stroke-linecap="round" stroke-linejoin="round" stroke-width="1.0658"/>
  <text x="-51.953754" y="-91.710579" fill="#000000" font-family="'Arial Nova', 'Arial Unicode MS', 'Yu Gothic UI', sans-serif" font-size="12.8px" letter-spacing="0px" stroke-width="1.0667" word-spacing="0px" style="line-height:0%" xml:space="preserve"><tspan x="-51.953754" y="-91.710579" fill="#ffffff" font-family="'Arial Nova', 'Arial Unicode MS', 'Yu Gothic UI', sans-serif" font-size="21.333px" stroke="#ffffff" stroke-width="1.0667" style="line-height:1.25">A</tspan></text>
 </g>
 <g transform="translate(262 194.83)">
  <ellipse cx="-44.92" cy="-98.798" rx="13.199" ry="13.469" fill="#1f638a" stroke-linecap="round" stroke-linejoin="round" stroke-width="1.0658"/>
  <text x="-51.566948" y="-91.358932" fill="#000000" font-family="'Arial Nova', 'Arial Unicode MS', 'Yu Gothic UI', sans-serif" font-size="12.8px" letter-spacing="0px" stroke-width="1.0667" word-spacing="0px" style="line-height:0%" xml:space="preserve"><tspan x="-51.566948" y="-91.358932" fill="#ffffff" font-family="'Arial Nova', 'Arial Unicode MS', 'Yu Gothic UI', sans-serif" font-size="21.333px" stroke="#ffffff" stroke-width="1.0667" style="line-height:1.25">B</tspan></text>
 </g>
</svg>
