<?xml version="1.0" encoding="UTF-8"?>
<svg width="18cm" height="6.5cm" version="1.1" xmlns="http://www.w3.org/2000/svg" xmlns:cc="http://creativecommons.org/ns#" xmlns:dc="http://purl.org/dc/elements/1.1/" xmlns:rdf="http://www.w3.org/1999/02/22-rdf-syntax-ns#" xmlns:xlink="http://www.w3.org/1999/xlink">
 <defs>
  <linearGradient id="linearGradient17780-7-86-5">
   <stop stop-color="#fff" offset="0"/>
   <stop stop-color="#00385e" offset="1"/>
  </linearGradient>
  <linearGradient id="linearGradient23557" x1="732.45" x2="1248.3" y1="-150.07" y2="-148.23" gradientTransform="matrix(.10912 0 0 .069296 427.12 965.29)" gradientUnits="userSpaceOnUse" xlink:href="#linearGradient17780-7-86-5"/>
  <linearGradient id="linearGradient23565" x1="715.24" x2="795.54" y1="879.77" y2="881.03" gradientTransform="scale(1.0667)" gradientUnits="userSpaceOnUse">
   <stop stop-color="#fff" offset="0"/>
   <stop stop-color="#00385e" offset="1"/>
  </linearGradient>
  <linearGradient id="linearGradient23567" x1="726.82" x2="1488.8" y1="-150.07" y2="-134.06" gradientTransform="matrix(.059073 0 0 .075756 728.9 929.02)" gradientUnits="userSpaceOnUse" xlink:href="#linearGradient17780-7-86-5"/>
  <linearGradient id="linearGradient23571" x1="726.82" x2="1488.8" y1="-150.07" y2="-134.06" gradientTransform="matrix(.059073 0 0 .075756 728.9 929.02)" gradientUnits="userSpaceOnUse">
   <stop stop-color="#fff" offset="0"/>
   <stop stop-color="#00385e" offset="1"/>
  </linearGradient>
  <linearGradient id="linearGradient23583" x1="732.45" x2="1248.3" y1="-150.07" y2="-148.23" gradientTransform="matrix(.10912 0 0 .069296 500.66 965.49)" gradientUnits="userSpaceOnUse" xlink:href="#linearGradient17780-7-86-5"/>
  <linearGradient id="linearGradient23712" x1="908.05" x2="1774.6" y1="778.11" y2="787.59" gradientTransform="matrix(.5763 0 0 .5763 -59.18 566.04)" gradientUnits="userSpaceOnUse">
   <stop stop-color="#fff" offset="0"/>
   <stop stop-color="#00385e" offset="1"/>
  </linearGradient>
  <linearGradient id="linearGradient23726" x1="172.43" x2="639.56" y1="28.378" y2="25.177" gradientTransform="matrix(1.5221 0 0 1.5221 172.67 902.15)" gradientUnits="userSpaceOnUse">
   <stop stop-color="#fff" offset="0"/>
   <stop stop-color="#00385e" offset="1"/>
  </linearGradient>
  <linearGradient id="linearGradient23729" x1="908.05" x2="1253.3" y1="778.11" y2="758.91" gradientTransform="matrix(.57799 0 0 .57799 76.421 575.47)" gradientUnits="userSpaceOnUse">
   <stop stop-color="#fff" offset="0"/>
   <stop stop-color="#00385e" offset="1"/>
  </linearGradient>
  <linearGradient id="linearGradient23732" x1="752.39" x2="855.08" y1="725.91" y2="727.69" gradientTransform="matrix(.71196 0 0 .71196 44.37 485.5)" gradientUnits="userSpaceOnUse" xlink:href="#linearGradient17780-7-86-5"/>
  <linearGradient id="linearGradient23735" x1="750.71" x2="857.77" y1="660.65" y2="661.66" gradientTransform="matrix(.71196 0 0 .71196 44.37 485.5)" gradientUnits="userSpaceOnUse" xlink:href="#linearGradient17780-7-86-5"/>
  <linearGradient id="linearGradient23738" x1="750.77" x2="853.98" y1="657.82" y2="656.1" gradientTransform="matrix(.71196 0 0 .71196 44.37 485.5)" gradientUnits="userSpaceOnUse" xlink:href="#linearGradient17780-7-86-5"/>
  <linearGradient id="linearGradient23742" x1="752.45" x2="866.93" y1="691.55" y2="697.08" gradientTransform="matrix(.71196 0 0 .71196 44.37 485.5)" gradientUnits="userSpaceOnUse" xlink:href="#linearGradient17780-7-86-5"/>
  <linearGradient id="linearGradient23764" x1="752.39" x2="855.08" y1="725.91" y2="727.69" gradientTransform="matrix(.71196 0 0 .71196 -29.176 485.29)" gradientUnits="userSpaceOnUse" xlink:href="#linearGradient17780-7-86-5"/>
  <linearGradient id="linearGradient23767" x1="750.71" x2="857.77" y1="660.65" y2="661.66" gradientTransform="matrix(.71196 0 0 .71196 -29.176 485.29)" gradientUnits="userSpaceOnUse" xlink:href="#linearGradient17780-7-86-5"/>
  <linearGradient id="linearGradient23770" x1="750.77" x2="853.98" y1="657.82" y2="656.1" gradientTransform="matrix(.71196 0 0 .71196 -29.176 485.29)" gradientUnits="userSpaceOnUse" xlink:href="#linearGradient17780-7-86-5"/>
  <linearGradient id="linearGradient23774" x1="752.45" x2="866.93" y1="691.55" y2="697.08" gradientTransform="matrix(.71196 0 0 .71196 -29.176 485.29)" gradientUnits="userSpaceOnUse" xlink:href="#linearGradient17780-7-86-5"/>
  <linearGradient id="linearGradient23784" x1="908.05" x2="1253.3" y1="778.11" y2="758.91" gradientTransform="matrix(.57799 0 0 .57799 -56.9 565.72)" gradientUnits="userSpaceOnUse" xlink:href="#linearGradient17780-7-86-5"/>
  <linearGradient id="linearGradient23788" x1="908.05" x2="1587.6" y1="778.11" y2="788.91" gradientTransform="matrix(.57799 0 0 .57799 5.1083 533.12)" gradientUnits="userSpaceOnUse">
   <stop stop-color="#fff" offset="0"/>
   <stop stop-color="#00385e" offset="1"/>
  </linearGradient>
  <linearGradient id="linearGradient23791" x1="172.43" x2="639.56" y1="28.378" y2="25.177" gradientTransform="matrix(1.5221 0 0 1.5221 173.03 1036)" gradientUnits="userSpaceOnUse" xlink:href="#linearGradient17780-7-86-5"/>
  <linearGradient id="linearGradient24200" x1="732.45" x2="1248.3" y1="-150.07" y2="-148.23" gradientTransform="matrix(.10912 0 0 .069296 201.86 964.66)" gradientUnits="userSpaceOnUse" xlink:href="#linearGradient17780-7-86-5"/>
  <linearGradient id="linearGradient24228" x1="732.45" x2="1248.3" y1="-150.07" y2="-148.23" gradientTransform="matrix(.10912 0 0 .069296 275.41 964.87)" gradientUnits="userSpaceOnUse" xlink:href="#linearGradient17780-7-86-5"/>
  <linearGradient id="linearGradient4217" x1="908.05" x2="1774.6" y1="778.11" y2="787.59" gradientTransform="matrix(.57608 0 0 .5763 -513.24 561.53)" gradientUnits="userSpaceOnUse" xlink:href="#linearGradient17780-7-86-5"/>
  <linearGradient id="linearGradient4223" x1="345.33" x2="348.09" y1="962.53" y2="962.53" gradientTransform="matrix(.7564 0 0 .75669 -216.35 318.74)" gradientUnits="userSpaceOnUse">
   <stop stop-color="#9d0c0c" offset="0"/>
   <stop stop-color="#9d0c0c" stop-opacity="0" offset="1"/>
  </linearGradient>
  <linearGradient id="linearGradient4226" x1="346.97" x2="347.39" y1="948.46" y2="948.46" gradientTransform="matrix(.7564 0 0 .75669 -216.35 318.74)" gradientUnits="userSpaceOnUse">
   <stop stop-color="#9d0c0c" offset="0"/>
   <stop stop-color="#9d0c0c" stop-opacity="0" offset="1"/>
  </linearGradient>
  <linearGradient id="linearGradient4229" x1="321.5" x2="404.41" y1="953.46" y2="954.71" gradientTransform="matrix(.7564 0 0 .75669 -216.35 318.74)" gradientUnits="userSpaceOnUse" xlink:href="#linearGradient17780-7-86-5"/>
  <linearGradient id="linearGradient4232" x1="339.74" x2="384.4" y1="955.3" y2="954.94" gradientTransform="matrix(.7564 0 0 .75669 -216.35 318.74)" gradientUnits="userSpaceOnUse" xlink:href="#linearGradient17780-7-86-5"/>
  <linearGradient id="linearGradient4235" x1="345.35" x2="539.57" y1="962.35" y2="960.57" gradientTransform="matrix(.7564 0 0 .75669 -216.35 318.74)" gradientUnits="userSpaceOnUse" xlink:href="#linearGradient17780-7-86-5"/>
  <linearGradient id="linearGradient4238" x1="172.43" x2="639.56" y1="28.378" y2="25.177" gradientTransform="matrix(1.5215 0 0 1.5221 -281.8 897.88)" gradientUnits="userSpaceOnUse">
   <stop stop-color="#fff" offset="0"/>
   <stop stop-color="#00385e" offset="1"/>
  </linearGradient>
  <linearGradient id="linearGradient4241" x1="908.05" x2="1253.3" y1="778.11" y2="758.91" gradientTransform="matrix(.57776 0 0 .57799 -377.11 571.05)" gradientUnits="userSpaceOnUse">
   <stop stop-color="#fff" offset="0"/>
   <stop stop-color="#00385e" offset="1"/>
  </linearGradient>
  <linearGradient id="linearGradient4244" x1="752.39" x2="855.08" y1="725.91" y2="727.69" gradientTransform="matrix(.71169 0 0 .71196 -409.8 480.93)" gradientUnits="userSpaceOnUse" xlink:href="#linearGradient17780-7-86-5"/>
  <linearGradient id="linearGradient4247" x1="750.71" x2="857.77" y1="660.65" y2="661.66" gradientTransform="matrix(.71169 0 0 .71196 -409.83 480.99)" gradientUnits="userSpaceOnUse" xlink:href="#linearGradient17780-7-86-5"/>
  <linearGradient id="linearGradient4250" x1="750.77" x2="853.98" y1="657.82" y2="656.1" gradientTransform="matrix(.71169 0 0 .71196 -409.8 480.93)" gradientUnits="userSpaceOnUse" xlink:href="#linearGradient17780-7-86-5"/>
  <linearGradient id="linearGradient4254" x1="752.45" x2="866.93" y1="691.55" y2="697.08" gradientTransform="matrix(.71169 0 0 .71196 -409.8 480.93)" gradientUnits="userSpaceOnUse" xlink:href="#linearGradient17780-7-86-5"/>
  <linearGradient id="linearGradient4257" x1="390.07" x2="523.19" y1="930.17" y2="929.63" gradientTransform="matrix(.7564 0 0 .75669 -216.35 318.74)" gradientUnits="userSpaceOnUse" xlink:href="#linearGradient17780-7-86-5"/>
  <linearGradient id="linearGradient4279" x1="752.39" x2="855.08" y1="725.91" y2="727.69" gradientTransform="matrix(.71169 0 0 .71196 -483.31 480.72)" gradientUnits="userSpaceOnUse" xlink:href="#linearGradient17780-7-86-5"/>
  <linearGradient id="linearGradient4282" x1="750.71" x2="857.77" y1="660.65" y2="661.66" gradientTransform="matrix(.71169 0 0 .71196 -483.31 480.72)" gradientUnits="userSpaceOnUse" xlink:href="#linearGradient17780-7-86-5"/>
  <linearGradient id="linearGradient4285" x1="750.77" x2="853.98" y1="657.82" y2="656.1" gradientTransform="matrix(.71169 0 0 .71196 -483.31 480.72)" gradientUnits="userSpaceOnUse" xlink:href="#linearGradient17780-7-86-5"/>
  <linearGradient id="linearGradient4289" x1="752.45" x2="866.93" y1="691.55" y2="697.08" gradientTransform="matrix(.71169 0 0 .71196 -483.31 480.72)" gradientUnits="userSpaceOnUse" xlink:href="#linearGradient17780-7-86-5"/>
  <linearGradient id="linearGradient4295" x1="421.43" x2="524.36" y1="925.25" y2="925.96" gradientTransform="matrix(.7564 0 0 .75669 -216.56 318.74)" gradientUnits="userSpaceOnUse" xlink:href="#linearGradient17780-7-86-5"/>
  <linearGradient id="linearGradient4298" x1="395.43" x2="474.71" y1="930.78" y2="934.06" gradientTransform="matrix(.7564 0 0 .75669 -216.55 318.46)" gradientUnits="userSpaceOnUse" xlink:href="#linearGradient17780-7-86-5"/>
  <linearGradient id="linearGradient4302" x1="434.5" x2="539.95" y1="922.9" y2="921.11" gradientTransform="matrix(.7564 0 0 .75669 -216.35 318.74)" gradientUnits="userSpaceOnUse">
   <stop stop-color="#fff" offset="0"/>
   <stop stop-color="#00385e" offset="1"/>
  </linearGradient>
  <linearGradient id="linearGradient4305" x1="908.05" x2="1253.3" y1="778.11" y2="758.91" gradientTransform="matrix(.57776 0 0 .57799 -511.09 561.36)" gradientUnits="userSpaceOnUse" xlink:href="#linearGradient17780-7-86-5"/>
  <linearGradient id="linearGradient4309" x1="908.05" x2="1587.6" y1="778.11" y2="788.91" gradientTransform="matrix(.57776 0 0 .57799 -449.04 528.55)" gradientUnits="userSpaceOnUse" xlink:href="#linearGradient17780-7-86-5"/>
  <linearGradient id="linearGradient4312" x1="172.43" x2="639.56" y1="28.378" y2="25.177" gradientTransform="matrix(1.5215 0 0 1.5221 -281.18 1031.4)" gradientUnits="userSpaceOnUse" xlink:href="#linearGradient17780-7-86-5"/>
  <linearGradient id="linearGradient4320" x1="726.82" x2="1488.8" y1="-150.07" y2="-134.06" gradientTransform="matrix(.031997 0 0 .041049 24.431 1067.8)" gradientUnits="userSpaceOnUse">
   <stop stop-color="#fff" offset="0"/>
   <stop stop-color="#00385e" offset="1"/>
  </linearGradient>
  <linearGradient id="linearGradient4323" x1="715.24" x2="795.54" y1="879.77" y2="881.03" gradientTransform="matrix(.57776 0 0 .57799 -370.38 564.36)" gradientUnits="userSpaceOnUse">
   <stop stop-color="#fff" offset="0"/>
   <stop stop-color="#00385e" offset="1"/>
  </linearGradient>
  <linearGradient id="linearGradient4330" x1="726.82" x2="1488.8" y1="-150.07" y2="-134.06" gradientTransform="matrix(.031997 0 0 .041049 129.13 1070.9)" gradientUnits="userSpaceOnUse">
   <stop stop-color="#fff" offset="0"/>
   <stop stop-color="#00385e" offset="1"/>
  </linearGradient>
  <linearGradient id="linearGradient4333" x1="715.24" x2="795.54" y1="879.77" y2="881.03" gradientTransform="matrix(.57776 0 0 .57799 -265.69 567.52)" gradientUnits="userSpaceOnUse">
   <stop stop-color="#fff" offset="0"/>
   <stop stop-color="#00385e" offset="1"/>
  </linearGradient>
  <linearGradient id="linearGradient4340" x1="726.82" x2="1488.8" y1="-150.07" y2="-134.06" gradientTransform="matrix(.031997 0 0 .041049 110.98 1082.4)" gradientUnits="userSpaceOnUse">
   <stop stop-color="#fff" offset="0"/>
   <stop stop-color="#00385e" offset="1"/>
  </linearGradient>
  <linearGradient id="linearGradient4343" x1="715.24" x2="795.54" y1="879.77" y2="881.03" gradientTransform="matrix(.57776 0 0 .57799 -283.83 579.04)" gradientUnits="userSpaceOnUse">
   <stop stop-color="#fff" offset="0"/>
   <stop stop-color="#00385e" offset="1"/>
  </linearGradient>
  <linearGradient id="linearGradient4350" x1="726.82" x2="1488.8" y1="-150.07" y2="-134.06" gradientTransform="matrix(.031997 0 0 .041049 40.2 1059.7)" gradientUnits="userSpaceOnUse">
   <stop stop-color="#fff" offset="0"/>
   <stop stop-color="#00385e" offset="1"/>
  </linearGradient>
  <linearGradient id="linearGradient4353" x1="715.24" x2="795.54" y1="879.77" y2="881.03" gradientTransform="matrix(.57776 0 0 .57799 -354.61 556.26)" gradientUnits="userSpaceOnUse">
   <stop stop-color="#fff" offset="0"/>
   <stop stop-color="#00385e" offset="1"/>
  </linearGradient>
  <linearGradient id="linearGradient4365" x1="726.82" x2="1488.8" y1="-150.07" y2="-134.06" gradientTransform="matrix(.031997 0 0 .041049 6.6049 1076.7)" gradientUnits="userSpaceOnUse" xlink:href="#linearGradient17780-7-86-5"/>
  <linearGradient id="linearGradient4368" x1="715.24" x2="795.54" y1="879.77" y2="881.03" gradientTransform="matrix(.57776 0 0 .57799 -388.21 573.27)" gradientUnits="userSpaceOnUse">
   <stop stop-color="#fff" offset="0"/>
   <stop stop-color="#00385e" offset="1"/>
  </linearGradient>
  <linearGradient id="linearGradient4379" x1="732.45" x2="1248.3" y1="-150.07" y2="-148.23" gradientTransform="matrix(.10908 0 0 .069296 -27.194 960.72)" gradientUnits="userSpaceOnUse" xlink:href="#linearGradient17780-7-86-5"/>
  <linearGradient id="linearGradient4381" x1="732.45" x2="1248.3" y1="-150.07" y2="-148.23" gradientTransform="matrix(.10908 0 0 .069296 46.323 960.92)" gradientUnits="userSpaceOnUse" xlink:href="#linearGradient17780-7-86-5"/>
  <linearGradient id="linearGradient5157" x1="-182.36" x2="-52.331" y1="865.59" y2="863.06" gradientTransform="matrix(.75669 0 0 .75669 226.6 319.88)" gradientUnits="userSpaceOnUse" xlink:href="#linearGradient17780-7-86-5"/>
  <linearGradient id="linearGradient5165" x1="-182.82" x2="-61.018" y1="950.48" y2="950.48" gradientTransform="matrix(.75669 0 0 .75669 226.6 319.88)" gradientUnits="userSpaceOnUse" xlink:href="#linearGradient17780-7-86-5"/>
  <linearGradient id="linearGradient5181" x1="-184.24" x2="-65.698" y1="839.56" y2="839.73" gradientTransform="matrix(.75669 0 0 .75669 226.6 319.88)" gradientUnits="userSpaceOnUse" xlink:href="#linearGradient17780-7-86-5"/>
  <linearGradient id="linearGradient5189" x1="-182.41" x2="-70.663" y1="842.1" y2="841.92" gradientTransform="matrix(.75669 0 0 .75669 226.6 319.88)" gradientUnits="userSpaceOnUse" xlink:href="#linearGradient17780-7-86-5"/>
  <linearGradient id="linearGradient5197" x1="-184.26" x2="-81.051" y1="843.93" y2="843.62" gradientTransform="matrix(.75669 0 0 .75669 226.6 319.88)" gradientUnits="userSpaceOnUse" xlink:href="#linearGradient17780-7-86-5"/>
  <linearGradient id="linearGradient5201" x1="908.05" x2="1774.6" y1="778.11" y2="787.59" gradientTransform="matrix(.5763 0 0 .5763 -284.34 565.3)" gradientUnits="userSpaceOnUse">
   <stop stop-color="#fff" offset="0"/>
   <stop stop-color="#00385e" offset="1"/>
  </linearGradient>
  <linearGradient id="linearGradient5213" x1="321.5" x2="404.41" y1="953.46" y2="954.71" gradientTransform="matrix(.75669 0 0 .75669 12.627 322.69)" gradientUnits="userSpaceOnUse" xlink:href="#linearGradient17780-7-86-5"/>
  <linearGradient id="linearGradient5216" x1="339.74" x2="384.4" y1="955.3" y2="954.94" gradientTransform="matrix(.75669 0 0 .75669 12.627 322.69)" gradientUnits="userSpaceOnUse" xlink:href="#linearGradient17780-7-86-5"/>
  <linearGradient id="linearGradient5219" x1="345.35" x2="539.57" y1="962.35" y2="960.57" gradientTransform="matrix(.75669 0 0 .75669 12.627 322.69)" gradientUnits="userSpaceOnUse" xlink:href="#linearGradient17780-7-86-5"/>
  <linearGradient id="linearGradient5222" x1="172.43" x2="639.56" y1="28.378" y2="25.177" gradientTransform="matrix(1.5221 0 0 1.5221 -52.515 901.48)" gradientUnits="userSpaceOnUse">
   <stop stop-color="#fff" offset="0"/>
   <stop stop-color="#00385e" offset="1"/>
  </linearGradient>
  <linearGradient id="linearGradient5225" x1="908.05" x2="1253.3" y1="778.11" y2="758.91" gradientTransform="matrix(.57799 0 0 .57799 -148.56 574.67)" gradientUnits="userSpaceOnUse">
   <stop stop-color="#fff" offset="0"/>
   <stop stop-color="#00385e" offset="1"/>
  </linearGradient>
  <linearGradient id="linearGradient5228" x1="752.39" x2="855.08" y1="725.91" y2="727.69" gradientTransform="matrix(.71196 0 0 .71196 -180.89 484.87)" gradientUnits="userSpaceOnUse" xlink:href="#linearGradient17780-7-86-5"/>
  <linearGradient id="linearGradient5231" x1="750.71" x2="857.77" y1="660.65" y2="661.66" gradientTransform="matrix(.71196 0 0 .71196 -180.89 484.87)" gradientUnits="userSpaceOnUse" xlink:href="#linearGradient17780-7-86-5"/>
  <linearGradient id="linearGradient5234" x1="750.77" x2="853.98" y1="657.82" y2="656.1" gradientTransform="matrix(.71196 0 0 .71196 -180.89 484.87)" gradientUnits="userSpaceOnUse" xlink:href="#linearGradient17780-7-86-5"/>
  <linearGradient id="linearGradient5238" x1="752.45" x2="866.93" y1="691.55" y2="697.08" gradientTransform="matrix(.71196 0 0 .71196 -180.89 484.87)" gradientUnits="userSpaceOnUse" xlink:href="#linearGradient17780-7-86-5"/>
  <linearGradient id="linearGradient5241" x1="390.07" x2="523.19" y1="930.17" y2="929.63" gradientTransform="matrix(.75669 0 0 .75669 12.627 322.69)" gradientUnits="userSpaceOnUse" xlink:href="#linearGradient17780-7-86-5"/>
  <linearGradient id="linearGradient5263" x1="752.39" x2="855.08" y1="725.91" y2="727.69" gradientTransform="matrix(.71196 0 0 .71196 -254.43 484.67)" gradientUnits="userSpaceOnUse" xlink:href="#linearGradient17780-7-86-5"/>
  <linearGradient id="linearGradient5266" x1="750.71" x2="857.77" y1="660.65" y2="661.66" gradientTransform="matrix(.71196 0 0 .71196 -254.43 484.67)" gradientUnits="userSpaceOnUse" xlink:href="#linearGradient17780-7-86-5"/>
  <linearGradient id="linearGradient5269" x1="750.77" x2="853.98" y1="657.82" y2="656.1" gradientTransform="matrix(.71196 0 0 .71196 -254.43 484.67)" gradientUnits="userSpaceOnUse" xlink:href="#linearGradient17780-7-86-5"/>
  <linearGradient id="linearGradient5273" x1="752.45" x2="866.93" y1="691.55" y2="697.08" gradientTransform="matrix(.71196 0 0 .71196 -254.43 484.67)" gradientUnits="userSpaceOnUse" xlink:href="#linearGradient17780-7-86-5"/>
  <linearGradient id="linearGradient5279" x1="421.43" x2="524.36" y1="925.25" y2="925.96" gradientTransform="matrix(.75669 0 0 .75669 12.627 322.69)" gradientUnits="userSpaceOnUse" xlink:href="#linearGradient17780-7-86-5"/>
  <linearGradient id="linearGradient5282" x1="395.43" x2="476.14" y1="930.78" y2="930.4" gradientTransform="matrix(.75669 0 0 .75669 12.627 322.69)" gradientUnits="userSpaceOnUse" xlink:href="#linearGradient17780-7-86-5"/>
  <linearGradient id="linearGradient5286" x1="434.5" x2="539.95" y1="922.9" y2="921.11" gradientTransform="matrix(.75669 0 0 .75669 12.627 322.69)" gradientUnits="userSpaceOnUse">
   <stop stop-color="#fff" offset="0"/>
   <stop stop-color="#00385e" offset="1"/>
  </linearGradient>
  <linearGradient id="linearGradient5289" x1="908.05" x2="1253.3" y1="778.11" y2="758.91" gradientTransform="matrix(.57799 0 0 .57799 -282.16 565.1)" gradientUnits="userSpaceOnUse" xlink:href="#linearGradient17780-7-86-5"/>
  <linearGradient id="linearGradient5293" x1="908.05" x2="1587.6" y1="778.11" y2="788.91" gradientTransform="matrix(.57799 0 0 .57799 -220.15 532.49)" gradientUnits="userSpaceOnUse" xlink:href="#linearGradient17780-7-86-5"/>
  <linearGradient id="linearGradient5296" x1="172.43" x2="639.56" y1="28.378" y2="25.177" gradientTransform="matrix(1.5221 0 0 1.5221 -52.224 1035.4)" gradientUnits="userSpaceOnUse" xlink:href="#linearGradient17780-7-86-5"/>
 </defs>
 <metadata>
  <rdf:RDF>
   <cc:Work rdf:about="">
    <dc:format>image/svg+xml</dc:format>
    <dc:type rdf:resource="http://purl.org/dc/dcmitype/StillImage"/>
    <dc:title/>
   </cc:Work>
  </rdf:RDF>
 </metadata>
 <g transform="translate(0 -876.85)">
  <g>
   <path d="m243.21 1097.9 60.891-33.512 134.47 10.561-61.948 32.876z" fill="url(#linearGradient5296)" opacity=".6" stroke="#4d4d4d" stroke-linecap="round" stroke-linejoin="round" stroke-miterlimit="10" stroke-width=".36659"/>
   <path d="m438.09 941.49-133.73-9.7997v132.66l133.95 10.408z" fill="url(#linearGradient5293)" opacity=".33728" stroke="#000" stroke-linecap="round" stroke-linejoin="round" stroke-width=".36659"/>
   <path d="m347.38 960.92c0 1.5178-6.6131 2.8212-14.817 2.8212-8.2039 0-14.892-1.3034-14.892-2.8212 0-1.5178 6.6373-2.5934 14.841-2.5934 8.2039 0 14.868 1.0756 14.868 2.5934z" fill="#800080" opacity=".65089"/>
   <g>
    <path d="m304.45 931.62-61.664 32.57c0.65518 13.15 0.45668 133.96 0.10992 133.85l61.425-33.808z" fill="url(#linearGradient5289)" opacity=".6" stroke="#000" stroke-linecap="round" stroke-linejoin="round" stroke-width=".2048"/>
    <g>
     <path d="m342.83 1003.9c9.084 0.024 18.392 6.4808 18.464 17.88-0.0948 13.366-14.813 18.905-19.705 15.248l-1e-5 -0.5057c8.2106-1.3339 14.593-5.0756 15.253-14.158-0.38354-10.409-6.4959-13.569-14.012-14.304z" fill="url(#linearGradient5286)" stroke="#4d4d4d" stroke-width=".36659"/>
     <path d="m321.67 984.13 0.0677 113.39c2.7131 5.1619 18.414 4.6514 21.194-0.011l-0.0888-112.89c-1.2856 1.3862-2.2049 2.9126-11.067 3.5768-11.086-1.5395-9.2562-2.6012-10.106-4.0746z" fill="#800080" stroke="#000" stroke-width=".20635"/>
     <path d="m321.91 1013.4 0.44792 22.18c0.4714 1.9917 2.6066 3.9701 6.3022 4.0002-7.7048 2.3998-15.74-2.6354-16.63-12.132 0.0876-8.4425 5.7498-13.313 9.8795-14.048z" fill="url(#linearGradient5282)" stroke="#4d4d4d" stroke-width=".36659"/>
     <path d="m343.08 1008c4.8337-0.4978 14.052 4.0526 14.112 14.14-1.1675 10.067-7.0845 12.903-15.585 14.346v-2.6835l-1.2385 0.4128-4.9542 3.406c2.2422-3.3464 3.9819-6.8087 3.7156-10.734-0.73395-9.1826-5.3422-11.042-7.4312-13.418 2.8915 1.0586 4.3569 1.4555 8.0505 4.1285 0.81806 0.1729 1.0846 0.5149 2.6319 0.4644 0.71891 0.1316 0.79918-0.8012 0.6985-2.0355z" fill="url(#linearGradient5279)" stroke="#4d4d4d" stroke-width=".36659"/>
    </g>
   </g>
  </g>
  <g fill="#800080" stroke="#000">
   <path d="m317.83 962.08-0.0584 30.63c2.8457 1.6436 8.4242 2.717 14.585 2.8225 6.6346 0.078 13.682-1.7857 15.271-2.7617l-0.12441-30.529c-1.8017 0.45209-3.09 0.9499-15.509 1.1665-15.536-0.50208-12.972-0.84833-14.163-1.3289z" stroke-width=".13951"/>
   <path d="m316.39 959.9c3.8178-3.1332 9.8252-3.046 16.151-3.224 6.0339 0.19341 14.445 0.32321 16.192 3.5095l-1.8094 1.3561c-0.51664-0.90406-0.68557-2.3128-14.43-2.7122-12.127 0.25566-13.384 1.6266-14.34 2.7122z" stroke-width=".21366"/>
   <path d="m316.37 959.79 1.8258 1.6931c2.5606 1.3273 7.7532 1.8607 14.407 1.9533 4.7453-0.11089 9.4885-0.2032 14.41-1.8913l1.8708-1.3892-2.335 3.129c-4.3506 1.7594-9.1119 1.774-13.993 1.7664-3.8821-0.24167-6.588 0.19468-13.835-1.8169-0.61582-0.94953-1.5046-2.222-2.351-3.4445z" stroke-width=".21366"/>
  </g>
  <g stroke="#4d4d4d" stroke-width=".36659">
   <path d="m281.42 954.69-0.0548 42.817c2.676 2.2976 7.8615 1.6816 13.654 1.8291 6.2388 0.10907 12.926-0.37964 14.42-1.744l-0.11697-42.675c-1.6942 0.63198-2.9057 1.3278-14.584 1.6307-14.61-0.70187-12.198-1.1859-13.318-1.8577z" fill="url(#linearGradient5273)"/>
   <g stroke-linecap="round" stroke-linejoin="round">
    <ellipse cx="295.5" cy="954.27" rx="13.613" ry="1.3825" fill="url(#linearGradient24200)"/>
    <path d="m280.17 953.48c2.7109-1.6294 21.767-3.6146 30.414 0.17015l-1.7015 0.80819c-6.8036-2.3087-20.458-1.81-27.053 0z" fill="url(#linearGradient5269)"/>
    <path d="m280.13 953.46 1.7169 1.009c2.4078 0.79105 7.2906 1.109 13.548 1.1641 4.4622-0.066 8.9224-0.1211 13.55-1.1272l1.7592-0.8279-2.1957 1.8648c-4.091 1.0485-8.5682 1.0573-13.158 1.0527-3.6505-0.14403-6.195 0.11601-13.01-1.0828-0.57907-0.56589-1.4148-1.3243-2.2107-2.0528z" fill="url(#linearGradient5266)"/>
   </g>
   <path d="m281.32 997.47 14.122 8.0395 14.08-7.9119c-2.3237 1.0416-5.6652 1.8622-14.335 1.7139-9.3286 0.22326-12.503-0.63123-13.867-1.8415z" fill="url(#linearGradient5263)"/>
  </g>
  <g transform="matrix(.54186 0 0 .54186 -159.29 577.22)" stroke="#4d4d4d" stroke-linecap="round" stroke-linejoin="round" stroke-width=".67654">
   <path d="m772.27 917.35-0.0289 38.851c1.4057 2.0848 4.1297 1.5259 7.1727 1.6596 3.2772 0.0981 6.7901-0.34447 7.5749-1.5824l-0.0614-38.722c-0.88996 0.57352-1.5264 1.2048-7.661 1.4797-7.6745-0.63695-6.4078-1.0761-6.9962-1.6856z" fill="url(#linearGradient23565)"/>
   <path d="m786.97 917.65c0 0.8347-3.2995 1.5114-7.3696 1.5114s-7.3696-0.67666-7.3696-1.5114c0-0.83471 3.2995-1.5114 7.3696-1.5114s7.3696 0.67666 7.3696 1.5114z" fill="url(#linearGradient23567)"/>
  </g>
  <g transform="matrix(.7094 0 0 .7094 12.627 322.69)">
   <path d="m465.23 1047.2 66.827-12.731c6.2-0.711 6.2158 10.469 1.7459 10.766l-68.236 14.04c-5.7248-1.5094-6.399-8.4624-0.33659-12.076z" fill="#00fd00" stroke="#4d4d4d" stroke-linecap="round" stroke-linejoin="round" stroke-width=".51676"/>
   <g transform="matrix(.76383 0 0 .76383 -225.66 357.91)">
    <path d="m996.15 879.65c11.23 1.4019 15.489 21.765 2.1427 24.966l-1.6052-2.012-1.4803-2.5823c0.66179-0.27357 3.6434-1.6156 3.5692-7.3068-0.28431-2.6857-1.1883-6.8196-5.8926-7.3404-0.20355-2.7817 0.49915-4.6897 3.2662-5.7242z" fill="#00fd00"/>
    <path d="m996.16 879.77 26.093-4.993c10.847 2.6422 12.078 18.595 5.1902 24.218l-28.241 5.3412c8.9232-7.3274 7.3397-22.825-3.042-24.566z" fill="#00fd00" stroke="#000" stroke-width=".67654"/>
    <path d="m996.15 879.81c-2.9526 1.1506-3.6319 4.6199-3.5019 5.5222" fill="none" stroke="#000" stroke-width=".67654"/>
   </g>
  </g>
  <path d="m391.6 1064.1c0.20624 0.4721 1.0903 2.603 2.219 2.5932" fill="none" stroke="#000" stroke-width=".36659"/>
  <g transform="matrix(.54186 0 0 .54186 -125.68 560.2)" stroke="#4d4d4d" stroke-linecap="round" stroke-linejoin="round" stroke-width=".67654">
   <path d="m772.27 917.35-0.0289 38.851c1.4057 2.0848 4.1297 1.5259 7.1727 1.6596 3.2772 0.0981 6.7901-0.34447 7.5749-1.5824l-0.0614-38.722c-0.88996 0.57352-1.5264 1.2048-7.661 1.4797-7.6745-0.63695-6.4078-1.0761-6.9962-1.6856z" fill="url(#linearGradient23565)"/>
   <path d="m786.97 917.65c0 0.8347-3.2995 1.5114-7.3696 1.5114s-7.3696-0.67666-7.3696-1.5114c0-0.83471 3.2995-1.5114 7.3696-1.5114s7.3696 0.67666 7.3696 1.5114z" fill="url(#linearGradient23571)"/>
  </g>
  <g transform="matrix(.54186 0 0 .54186 -54.872 582.99)" stroke="#4d4d4d" stroke-linecap="round" stroke-linejoin="round" stroke-width=".67654">
   <path d="m772.27 917.35-0.0289 38.851c1.4057 2.0848 4.1297 1.5259 7.1727 1.6596 3.2772 0.0981 6.7901-0.34447 7.5749-1.5824l-0.0614-38.722c-0.88996 0.57352-1.5264 1.2048-7.661 1.4797-7.6745-0.63695-6.4078-1.0761-6.9962-1.6856z" fill="url(#linearGradient23565)"/>
   <path d="m786.97 917.65c0 0.8347-3.2995 1.5114-7.3696 1.5114s-7.3696-0.67666-7.3696-1.5114c0-0.83471 3.2995-1.5114 7.3696-1.5114s7.3696 0.67666 7.3696 1.5114z" fill="url(#linearGradient23571)"/>
  </g>
  <g transform="matrix(.54186 0 0 .54186 -36.724 571.47)" stroke="#4d4d4d" stroke-linecap="round" stroke-linejoin="round" stroke-width=".67654">
   <path d="m772.27 917.35-0.0289 38.851c1.4057 2.0848 4.1297 1.5259 7.1727 1.6596 3.2772 0.0981 6.7901-0.34447 7.5749-1.5824l-0.0614-38.722c-0.88996 0.57352-1.5264 1.2048-7.661 1.4797-7.6745-0.63695-6.4078-1.0761-6.9962-1.6856z" fill="url(#linearGradient23565)"/>
   <path d="m786.97 917.65c0 0.8347-3.2995 1.5114-7.3696 1.5114s-7.3696-0.67666-7.3696-1.5114c0-0.83471 3.2995-1.5114 7.3696-1.5114s7.3696 0.67666 7.3696 1.5114z" fill="url(#linearGradient23571)"/>
  </g>
  <g>
   <g stroke="#4d4d4d" stroke-width=".36659">
    <g>
     <path d="m324.1 1010.4c-8.9112 0-16.129 7.2334-16.129 16.148 0 8.914 7.2182 16.129 16.129 16.129 8.9112 0 16.129-7.2154 16.129-16.129v-0.3974c-0.21236-8.7591-7.3706-15.75-16.129-15.75zm0.92115 2.5829c6.8913 0 12.531 5.7831 12.698 13.041v0.3252c0 7.386-5.6864 13.384-12.698 13.384-7.0112 0-12.68-5.9979-12.68-13.384 0-7.3861 5.6683-13.366 12.68-13.366z" fill="url(#linearGradient5241)" stroke-linecap="round" stroke-linejoin="round"/>
     <path d="m354.96 954.9-0.0549 42.817c2.676 2.2977 7.8615 1.6816 13.654 1.8291 6.2388 0.10905 12.926-0.37966 14.42-1.744l-0.11697-42.675c-1.6942 0.63199-2.9057 1.3279-14.584 1.6307-14.61-0.70186-12.198-1.1859-13.318-1.8577z" fill="url(#linearGradient5238)"/>
     <ellipse cx="369.04" cy="954.47" rx="13.613" ry="1.3825" fill="url(#linearGradient24228)" stroke-linecap="round" stroke-linejoin="round"/>
    </g>
    <g>
     <path d="m353.72 953.69c3.59-1.8673 9.239-1.8153 15.188-1.9215 5.6739 0.11528 13.584 0.19264 15.226 2.0916l-1.7015 0.80821c-0.48583-0.5388-0.64468-1.3784-13.569-1.6164-11.403 0.15236-12.586 0.96942-13.484 1.6164z" fill="url(#linearGradient5234)"/>
     <path d="m353.67 953.67 1.7168 1.009c2.4078 0.79105 7.2906 1.109 13.548 1.1641 4.4622-0.066 8.9224-0.12111 13.55-1.1272l1.7592-0.82789-2.1957 1.8648c-4.091 1.0485-8.5682 1.0573-13.158 1.0528-3.6505-0.14405-6.195 0.11601-13.01-1.0828-0.57905-0.5659-1.4148-1.3243-2.2107-2.0528z" fill="url(#linearGradient5231)"/>
     <path d="m354.86 997.67 14.122 8.0395 14.08-7.9119c-2.3237 1.0416-5.6652 1.8622-14.335 1.7139-9.3286 0.22327-12.503-0.63122-13.867-1.8415z" fill="url(#linearGradient5228)"/>
    </g>
    <g stroke-linecap="round" stroke-linejoin="round">
     <path d="m438.13 941.19-62.128 32.68s0.47498 133.64 0.43789 133.74l61.69-32.786z" fill="url(#linearGradient5225)" opacity=".6"/>
     <path d="m304.62 931.44-61.705 32.556 133.41 9.916 62.099-32.654zm44.257 28.51c-2.5141 4.0976-29.797 4.3072-32.259-0.2993 2.2038-3.4235 28.144-5.0523 32.259 0.2993z" fill="url(#linearGradient5222)" opacity=".6" stroke-miterlimit="10"/>
     <path d="m325.01 1051.1-47.406-9.0312c-4.3983-0.5044-4.4094 7.4266-1.2386 7.6377l48.406 9.9599c4.0612-1.0708 4.5394-6.0032 0.23876-8.5664z" fill="url(#linearGradient5219)"/>
    </g>
   </g>
   <path d="m275.36 1038.8c-6.0852 0.7596-8.3928 11.794-1.1611 13.528l0.86982-1.0903 0.80212-1.3992c-0.35861-0.1482-1.9742-0.8755-1.934-3.9593 0.15405-1.4553 0.64389-3.6953 3.1929-3.9775 0.1103-1.5073-0.27047-2.5411-1.7698-3.1017z" fill="url(#linearGradient5216)"/>
   <path d="m275.35 1038.9-14.139-2.7055c-5.8778 1.4317-6.5448 10.076-2.8124 13.123l15.303 2.8943c-4.8351-3.9705-3.9771-12.368 1.6484-13.311z" fill="url(#linearGradient5213)" stroke="#4d4d4d" stroke-width=".36732"/>
  </g>
  <path d="m275.24 1038.8c1.5999 0.6235 2.0754 2.6586 2.005 3.1475" fill="none" stroke="#4d4d4d" stroke-width=".36732"/>
  <path d="m275.84 1049.8c-0.25882 1.1235-0.8889 1.917-1.7198 2.532" fill="none" stroke="#4d4d4d" stroke-linecap="round" stroke-linejoin="round" stroke-width=".36732"/>
  <g transform="matrix(.54186 0 0 .54186 -141.46 568.3)" stroke="#4d4d4d" stroke-linecap="round" stroke-linejoin="round" stroke-width=".67654">
   <path d="m772.27 917.35-0.0289 38.851c1.4057 2.0848 4.1297 1.5259 7.1727 1.6596 3.2772 0.0981 6.7901-0.34447 7.5749-1.5824l-0.0614-38.722c-0.88996 0.57352-1.5264 1.2048-7.661 1.4797-7.6745-0.63695-6.4078-1.0761-6.9962-1.6856z" fill="url(#linearGradient23565)"/>
   <path d="m786.97 917.65c0 0.8347-3.2995 1.5114-7.3696 1.5114s-7.3696-0.67666-7.3696-1.5114c0-0.83471 3.2995-1.5114 7.3696-1.5114s7.3696 0.67666 7.3696 1.5114z" fill="url(#linearGradient23571)"/>
  </g>
  <g>
   <g stroke-linecap="round" stroke-linejoin="round">
    <path d="m376.08 973.7-133.16-9.7181 0.0452 133.91 133.57 9.7053z" fill="url(#linearGradient5201)" opacity=".28402" stroke="#4d4d4d" stroke-width=".20431"/>
    <path d="m468.47 1098.5 60.891-33.512 134.47 10.561-61.949 32.876z" fill="url(#linearGradient23791)" opacity=".6" stroke="#4d4d4d" stroke-miterlimit="10" stroke-width=".36659"/>
    <path d="m663.35 942.12-133.73-9.7997v132.66l133.95 10.408z" fill="url(#linearGradient23788)" opacity=".33728" stroke="#000" stroke-width=".36659"/>
   </g>
   <path d="m572.63 961.54c0 1.5178-6.6131 2.8212-14.817 2.8212s-14.892-1.3034-14.892-2.8212c0-1.5178 6.6374-2.5934 14.841-2.5934 8.2039 0 14.868 1.0756 14.868 2.5934z" fill="#800080" opacity=".65089"/>
   <g stroke="#000">
    <path d="m529.71 932.25-61.664 32.57s0.0526 133.86 0.10992 133.85l61.425-33.808z" fill="url(#linearGradient23784)" opacity=".6" stroke-linecap="round" stroke-linejoin="round" stroke-width=".2048"/>
    <path d="m568.09 1004.5c9.0841 0.024 18.392 6.4807 18.464 17.88-0.0948 13.366-14.813 18.905-19.705 15.248l-1e-5 -0.5057c8.2107-1.3339 14.593-5.0756 15.253-14.158-0.38356-10.409-6.496-13.569-14.012-14.304z" fill="#9d0c0c" stroke-width=".36659"/>
    <path d="m546.93 984.75 0.0677 113.39c2.7131 5.1619 18.414 4.6514 21.194-0.011l-0.0888-112.89c-1.2856 1.3862-2.2049 2.9125-11.067 3.5768-11.086-1.5395-9.2562-2.6012-10.106-4.0746z" fill="#800080" stroke-width=".20635"/>
   </g>
   <path d="m547.26 1014.4 0.35239 21.845c0.47141 1.9917 2.6066 3.9701 6.3022 4.0002-7.7048 2.3998-15.74-2.6354-16.63-12.132 0.0876-8.4425 5.8453-12.978 9.975-13.713z" fill="#9d0c0c" stroke="#4d4d4d" stroke-width=".36659"/>
   <path d="m568.34 1008.6c4.8337-0.4978 14.052 4.0526 14.112 14.14-1.1675 10.067-7.0845 12.903-15.585 14.346v-2.6835l-1.2385 0.4128-4.9542 3.406c2.2422-3.3464 3.9819-6.8087 3.7156-10.734-0.73397-9.1826-5.3422-11.042-7.4312-13.418 2.8915 1.0586 4.3569 1.4554 8.0505 4.1284 0.81805 0.173 1.0846 0.515 2.6319 0.4645 0.71893 0.1316 0.79919-0.8012 0.69852-2.0355z" fill="#9d0c0c" stroke="#000" stroke-width=".36659"/>
  </g>
  <g fill="#800080" stroke="#000">
   <path d="m543.09 962.7-0.0585 30.63c2.8457 1.6436 8.4243 2.717 14.585 2.8225 6.6346 0.0781 13.682-1.7856 15.271-2.7617l-0.12443-30.529c-1.8017 0.4521-3.09 0.9499-15.509 1.1665-15.536-0.50207-12.972-0.84833-14.163-1.3289z" stroke-width=".13951"/>
   <path d="m541.65 960.52c3.8178-3.1332 9.8252-3.046 16.151-3.224 6.0339 0.1934 14.445 0.32322 16.192 3.5095l-1.8094 1.3561c-0.51664-0.90406-0.68557-2.3128-14.43-2.7122-12.127 0.25566-13.384 1.6266-14.34 2.7122z" stroke-width=".21366"/>
   <path d="m541.63 960.41 1.8258 1.6931c2.5606 1.3273 7.7532 1.8607 14.407 1.9533 4.7453-0.11089 9.4885-0.2032 14.41-1.8913l1.8708-1.3892-2.335 3.1291c-4.3506 1.7594-9.1119 1.774-13.993 1.7664-3.8821-0.2417-6.588 0.19466-13.835-1.8169-0.61581-0.94953-1.5046-2.222-2.351-3.4445z" stroke-width=".21366"/>
  </g>
  <g stroke="#4d4d4d" stroke-width=".36659">
   <path d="m506.67 955.32-0.0549 42.817c2.676 2.2976 7.8615 1.6816 13.654 1.8291 6.2388 0.10905 12.926-0.37967 14.42-1.744l-0.11697-42.675c-1.6942 0.63199-2.9057 1.3278-14.584 1.6307-14.61-0.70186-12.198-1.1859-13.318-1.8577z" fill="url(#linearGradient23774)"/>
   <g stroke-linecap="round" stroke-linejoin="round">
    <ellipse cx="520.76" cy="954.89" rx="13.613" ry="1.3825" fill="url(#linearGradient23557)"/>
    <path d="m505.43 954.11c2.7109-1.6294 21.767-3.6147 30.414 0.17013l-1.7015 0.80821c-6.8036-2.3087-20.458-1.81-27.053 0z" fill="url(#linearGradient23770)"/>
    <path d="m505.38 954.08 1.7168 1.009c2.4078 0.79104 7.2906 1.109 13.548 1.1641 4.4622-0.066 8.9224-0.1211 13.55-1.1272l1.7592-0.8279-2.1957 1.8648c-4.091 1.0486-8.5682 1.0573-13.158 1.0527-3.6505-0.14403-6.195 0.11602-13.01-1.0828-0.57906-0.56588-1.4148-1.3243-2.2107-2.0528z" fill="url(#linearGradient23767)"/>
   </g>
   <path d="m506.58 998.09 14.122 8.0395 14.08-7.9119c-2.3237 1.0416-5.6652 1.8623-14.335 1.7139-9.3286 0.22323-12.503-0.63123-13.867-1.8416z" fill="url(#linearGradient23764)"/>
   <path d="m567.92 1066.2 47.406-9.0312c4.3983-0.5043 4.4094 7.4267 1.2386 7.6377l-48.406 9.9599c-4.0612-1.0708-4.5394-6.0032-0.23878-8.5664z" fill="#00fd00" stroke-linecap="round" stroke-linejoin="round"/>
  </g>
  <g transform="matrix(.54186 0 0 .54186 65.966 577.84)" stroke="#4d4d4d" stroke-linecap="round" stroke-linejoin="round" stroke-width=".67654">
   <path d="m772.27 917.35-0.0289 38.851c1.4057 2.0848 4.1297 1.5259 7.1727 1.6596 3.2772 0.0981 6.7901-0.34447 7.5749-1.5824l-0.0614-38.722c-0.88996 0.57352-1.5264 1.2048-7.661 1.4797-7.6745-0.63695-6.4078-1.0761-6.9962-1.6856z" fill="url(#linearGradient23565)"/>
   <path d="m786.97 917.65c0 0.8347-3.2995 1.5114-7.3696 1.5114s-7.3696-0.67666-7.3696-1.5114c0-0.83471 3.2995-1.5114 7.3696-1.5114s7.3696 0.67666 7.3696 1.5114z" fill="url(#linearGradient23567)"/>
  </g>
  <g transform="matrix(.54186 0 0 .54186 77.689 577.2)" fill="#00fd00" stroke="#4d4d4d" stroke-linecap="round" stroke-linejoin="round" stroke-width=".59377">
   <path d="m996.15 879.65c11.23 1.4019 15.489 21.765 2.1427 24.966-1.8875-1.2464-2.7367-2.8645-3.0856-4.5943 0.66179-0.27357 3.6434-1.6156 3.5692-7.3068-0.28431-2.6857-1.1883-6.8196-5.8926-7.3404-0.20355-2.7817 0.49915-4.6897 3.2662-5.7242z"/>
   <path d="m996.16 879.77 26.093-4.993c10.847 2.6422 12.078 18.595 5.1902 24.218l-28.241 5.3412c8.9232-7.3274 7.3397-22.825-3.042-24.566z"/>
  </g>
  <g transform="matrix(.54186 0 0 .54186 99.574 560.83)" stroke="#4d4d4d" stroke-linecap="round" stroke-linejoin="round" stroke-width=".67654">
   <path d="m772.27 917.35-0.0289 38.851c1.4057 2.0848 4.1297 1.5259 7.1727 1.6596 3.2772 0.0981 6.7901-0.34447 7.5749-1.5824l-0.0614-38.722c-0.88996 0.57352-1.5264 1.2048-7.661 1.4797-7.6745-0.63695-6.4078-1.0761-6.9962-1.6856z" fill="url(#linearGradient23565)"/>
   <path d="m786.97 917.65c0 0.8347-3.2995 1.5114-7.3696 1.5114s-7.3696-0.67666-7.3696-1.5114c0-0.83471 3.2995-1.5114 7.3696-1.5114s7.3696 0.67666 7.3696 1.5114z" fill="url(#linearGradient23571)"/>
  </g>
  <g transform="matrix(.54186 0 0 .54186 170.39 583.61)" stroke="#4d4d4d" stroke-linecap="round" stroke-linejoin="round" stroke-width=".67654">
   <path d="m772.27 917.35-0.0289 38.851c1.4057 2.0848 4.1297 1.5259 7.1727 1.6596 3.2772 0.0981 6.7901-0.34447 7.5749-1.5824l-0.0614-38.722c-0.88996 0.57352-1.5264 1.2048-7.661 1.4797-7.6745-0.63695-6.4078-1.0761-6.9962-1.6856z" fill="url(#linearGradient23565)"/>
   <path d="m786.97 917.65c0 0.8347-3.2995 1.5114-7.3696 1.5114s-7.3696-0.67666-7.3696-1.5114c0-0.83471 3.2995-1.5114 7.3696-1.5114s7.3696 0.67666 7.3696 1.5114z" fill="url(#linearGradient23571)"/>
  </g>
  <g transform="matrix(.54186 0 0 .54186 189.68 572.09)" stroke="#4d4d4d" stroke-linecap="round" stroke-linejoin="round" stroke-width=".67654">
   <path d="m772.27 917.35-0.0289 38.851c1.4057 2.0848 4.1297 1.5259 7.1727 1.6596 3.2772 0.0981 6.7901-0.34447 7.5749-1.5824l-0.0614-38.722c-0.88996 0.57352-1.5264 1.2048-7.661 1.4797-7.6745-0.63695-6.4078-1.0761-6.9962-1.6856z" fill="url(#linearGradient23565)"/>
   <path d="m786.97 917.65c0 0.8347-3.2995 1.5114-7.3696 1.5114s-7.3696-0.67666-7.3696-1.5114c0-0.83471 3.2995-1.5114 7.3696-1.5114s7.3696 0.67666 7.3696 1.5114z" fill="url(#linearGradient23571)"/>
  </g>
  <g>
   <path d="m549.36 1011c-8.9112 0-16.129 7.2334-16.129 16.147 0 8.9141 7.2182 16.129 16.129 16.129 8.9112 0 16.129-7.2153 16.129-16.129v-0.3973c-0.21235-8.7591-7.3706-15.75-16.129-15.75zm0.92116 2.5829c6.8913 0 12.531 5.7831 12.698 13.041v0.3251c0 7.386-5.6864 13.384-12.698 13.384s-12.68-5.9979-12.68-13.384c0-7.3861 5.6683-13.366 12.68-13.366z" fill="#9d0c0c" opacity=".77811" stroke="#000" stroke-linecap="round" stroke-linejoin="round" stroke-width=".36659"/>
   <g stroke="#4d4d4d" stroke-width=".36659">
    <path d="m580.22 955.52-0.0549 42.817c2.676 2.2976 7.8615 1.6816 13.654 1.8291 6.2388 0.1091 12.926-0.37965 14.42-1.744l-0.11699-42.675c-1.6942 0.63198-2.9057 1.3278-14.584 1.6307-14.61-0.70187-12.198-1.1859-13.318-1.8577z" fill="url(#linearGradient23742)"/>
    <ellipse cx="594.3" cy="955.1" rx="13.613" ry="1.3825" fill="url(#linearGradient23583)" stroke-linecap="round" stroke-linejoin="round"/>
    <g>
     <path d="m578.97 954.31c3.59-1.8673 9.239-1.8153 15.188-1.9215 5.6739 0.11528 13.584 0.19264 15.226 2.0916l-1.7015 0.80819c-0.48583-0.53879-0.64467-1.3784-13.569-1.6164-11.403 0.15236-12.586 0.96943-13.484 1.6164z" fill="url(#linearGradient23738)"/>
     <path d="m578.93 954.29 1.7168 1.009c2.4078 0.79105 7.2906 1.109 13.548 1.1641 4.4622-0.066 8.9224-0.1211 13.55-1.1272l1.7592-0.82791-2.1957 1.8648c-4.091 1.0486-8.5682 1.0573-13.158 1.0527-3.6505-0.14404-6.195 0.11601-13.01-1.0828-0.57906-0.56589-1.4148-1.3243-2.2107-2.0528z" fill="url(#linearGradient23735)"/>
     <path d="m580.12 998.3 14.122 8.0395 14.08-7.9119c-2.3237 1.0416-5.6652 1.8622-14.335 1.7139-9.3286 0.2233-12.503-0.63121-13.867-1.8415z" fill="url(#linearGradient23732)"/>
    </g>
    <path d="m663.11 941.99-62.128 32.68s0.47499 133.64 0.43788 133.74l61.69-32.786z" fill="url(#linearGradient23729)" opacity=".6" stroke-linecap="round" stroke-linejoin="round"/>
    <path d="m529.81 932.11-61.705 32.556 133.41 9.916 62.099-32.654zm44.257 28.51c-2.514 4.0976-29.797 4.3072-32.259-0.2993 2.2038-3.4235 28.144-5.0523 32.259 0.2993z" fill="url(#linearGradient23726)" opacity=".6" stroke-linecap="round" stroke-linejoin="round" stroke-miterlimit="10"/>
   </g>
   <g transform="matrix(-.7094 0 0 .7094 880.07 307.02)" fill="#d1d126">
    <path d="m465.23 1047.2 66.827-12.731c6.2-0.711 6.2158 10.469 1.7459 10.766l-68.236 14.04c-5.7248-1.5094-6.399-8.4624-0.33659-12.076z" stroke="#000" stroke-linecap="round" stroke-linejoin="round" stroke-width=".51676"/>
    <g transform="matrix(.76383 0 0 .76383 -225.66 357.91)">
     <path d="m996.15 879.65c11.23 1.4019 15.489 21.765 2.1427 24.966l-1.6052-2.012-1.4803-2.5823c0.66179-0.27357 3.6434-1.6156 3.5692-7.3068-0.28431-2.6857-1.1883-6.8196-5.8926-7.3404-0.20355-2.7817 0.49915-4.6897 3.2662-5.7242z"/>
     <path d="m996.16 879.77 26.093-4.993c10.847 2.6422 12.078 18.595 5.1902 24.218l-28.241 5.3412c8.9232-7.3274 7.3397-22.825-3.042-24.566z" stroke="#000" stroke-width=".67789"/>
     <path d="m996.15 879.81c-2.9526 1.1506-3.6319 4.6199-3.5019 5.5222" stroke="#000" stroke-width=".67654"/>
    </g>
   </g>
   <path d="m500.86 1048.5c-0.25883 1.1235-0.88891 1.917-1.7198 2.532" fill="#d1d126" stroke="#000" stroke-linecap="round" stroke-linejoin="round" stroke-width=".36732"/>
  </g>
  <g transform="matrix(.54186 0 0 .54186 83.016 568.63)" stroke="#4d4d4d" stroke-linecap="round" stroke-linejoin="round" stroke-width=".67654">
   <path d="m772.27 917.35-0.0289 38.851c1.4057 2.0848 4.1297 1.5259 7.1727 1.6596 3.2772 0.0981 6.7901-0.34447 7.5749-1.5824l-0.0614-38.722c-0.88996 0.57352-1.5264 1.2048-7.661 1.4797-7.6745-0.63695-6.4078-1.0761-6.9962-1.6856z" fill="url(#linearGradient23565)"/>
   <path d="m786.97 917.65c0 0.8347-3.2995 1.5114-7.3696 1.5114s-7.3696-0.67666-7.3696-1.5114c0-0.83471 3.2995-1.5114 7.3696-1.5114s7.3696 0.67666 7.3696 1.5114z" fill="url(#linearGradient23571)"/>
  </g>
  <g>
   <g stroke-linecap="round" stroke-linejoin="round">
    <path d="m601.24 974.44-133.16-9.7181 0.0452 133.91 133.57 9.7054z" fill="url(#linearGradient23712)" opacity=".28402" stroke="#4d4d4d" stroke-width=".20431"/>
    <path d="m14.141 1094 60.868-33.512 134.42 10.561-61.925 32.876z" fill="url(#linearGradient4312)" opacity=".6" stroke="#4d4d4d" stroke-miterlimit="10" stroke-width=".36652"/>
    <path d="m208.95 937.54-133.68-9.7997v132.66l133.9 10.408z" fill="url(#linearGradient4309)" opacity=".33728" stroke="#000" stroke-width=".36652"/>
   </g>
   <path d="m118.27 956.97c0 1.5178-6.6106 2.8212-14.811 2.8212-8.2007 0-14.886-1.3034-14.886-2.8212 0-1.5178 6.6348-2.5934 14.836-2.5934 8.2007 0 14.862 1.0756 14.862 2.5934z" fill="url(#linearGradient5189)" opacity=".65089"/>
   <path d="m75.289 927.88-61.64 32.57c0.65493 13.149 0.4565 133.96 0.10987 133.85l61.401-33.808z" fill="url(#linearGradient4305)" opacity=".6" stroke="#000" stroke-linecap="round" stroke-linejoin="round" stroke-width=".20476"/>
   <g stroke="#4d4d4d">
    <g>
     <path d="m113.72 999.97c9.0806 0.0241 18.385 6.4807 18.457 17.88-0.0948 13.366-14.807 18.905-19.697 15.248l-1e-5 -0.5057c8.2075-1.3339 14.588-5.0756 15.247-14.158-0.3834-10.409-6.4934-13.569-14.007-14.304z" fill="url(#linearGradient4302)" stroke-width=".32174"/>
     <path d="m92.569 980.18 0.06772 113.39c2.712 5.1621 18.407 4.6516 21.186-0.011l-0.0887-112.89c-1.2851 1.3862-2.204 2.9126-11.062 3.5768-11.082-1.5395-9.2526-2.6012-10.102-4.0746z" fill="url(#linearGradient5165)" stroke-linejoin="round" stroke-width=".32174"/>
     <path d="m92.71 1009.5 0.35225 21.846c0.47123 1.9917 2.6056 3.97 6.2997 4.0002-7.7019 2.3998-15.734-2.6354-16.623-12.132 0.08754-8.4425 5.8431-12.978 9.9712-13.713z" fill="url(#linearGradient4298)" stroke-width=".36652"/>
     <path d="m113.77 1004.1c4.8318-0.4978 14.047 4.0526 14.107 14.14-1.167 10.067-7.0817 12.903-15.579 14.346v-2.6835l-1.2381 0.4128-4.9522 3.406c2.2413-3.3464 3.9803-6.8087 3.7142-10.734-0.73368-9.1826-5.3401-11.042-7.4284-13.418 2.8904 1.0586 4.3552 1.4555 8.0474 4.1285 0.81774 0.1729 1.0841 0.5149 2.6309 0.4644 0.71863 0.1316 0.79888-0.8012 0.69824-2.0355z" fill="url(#linearGradient4295)" stroke-width=".36652"/>
    </g>
    <path d="m88.732 958.13-0.0585 30.63c2.8446 1.6436 8.421 2.717 14.579 2.8225 6.632 0.0781 13.677-1.7856 15.265-2.7617l-0.12437-30.529c-1.801 0.4521-3.0888 0.9499-15.503 1.1665-15.531-0.50208-12.967-0.84834-14.158-1.3289z" fill="url(#linearGradient5157)" stroke-linecap="round" stroke-linejoin="round" stroke-width=".32174"/>
    <g stroke-width=".32174">
     <path d="m87.289 955.95c3.8163-3.1332 9.8214-3.046 16.145-3.224 6.0316 0.1934 14.44 0.32322 16.186 3.5095l-1.8087 1.3561c-0.51643-0.90407-0.6853-2.3128-14.425-2.7122-12.122 0.25567-13.379 1.6266-14.334 2.7122z" fill="url(#linearGradient5181)" stroke-linejoin="round"/>
     <path d="m87.273 955.84 1.8251 1.6931c2.5596 1.3273 7.7502 1.8608 14.402 1.9533 4.7434-0.11089 9.4848-0.2032 14.405-1.8913l1.8701-1.3892-2.3341 3.129c-4.3489 1.7594-9.1084 1.774-13.988 1.7664-3.8806-0.24169-6.5855 0.19467-13.83-1.8169-0.61558-0.94952-1.504-2.222-2.3501-3.4445z" fill="url(#linearGradient5197)"/>
     <path d="m52.332 950.75-0.05493 42.817c2.6749 2.2976 7.8585 1.6815 13.649 1.8291 6.2363 0.10905 12.921-0.37967 14.414-1.744l-0.11692-42.675c-1.6935 0.63197-2.9046 1.3278-14.578 1.6307-14.604-0.70185-12.194-1.1859-13.313-1.8577z" fill="url(#linearGradient4289)"/>
    </g>
    <g stroke-linecap="round" stroke-linejoin="round">
     <ellipse cx="66.409" cy="950.32" rx="13.608" ry="1.3825" fill="url(#linearGradient4379)" stroke-width=".36652"/>
     <path d="m51.087 949.54c2.7098-1.6294 21.758-3.6147 30.402 0.17014l-1.7008 0.8082c-6.8009-2.3087-20.45-1.81-27.043 0z" fill="url(#linearGradient4285)" stroke-width=".32174"/>
     <path d="m51.043 949.51 1.7162 1.009c2.4069 0.79106 7.2878 1.109 13.543 1.1641 4.4605-0.066 8.919-0.1211 13.545-1.1272l1.7586-0.8279-2.1949 1.8648c-4.0894 1.0486-8.5649 1.0573-13.153 1.0527-3.6491-0.14403-6.1926 0.11601-13.005-1.0828-0.57885-0.5659-1.4143-1.3243-2.2099-2.0528z" fill="url(#linearGradient4282)" stroke-width=".32174"/>
    </g>
    <path d="m52.235 993.52 14.117 8.0395 14.074-7.9118c-2.3228 1.0416-5.663 1.8622-14.329 1.7139-9.325 0.22325-12.498-0.63123-13.862-1.8416z" fill="url(#linearGradient4279)" stroke-width=".32174"/>
    <path d="m30.097 1070.3-0.01566 21.052c0.7614 1.1297 2.2369 0.8267 3.8851 0.8993 1.7751 0.053 3.6779-0.1867 4.1029-0.8575l-0.0333-20.982c-0.48206 0.3107-0.82677 0.6528-4.1496 0.8018-4.1569-0.3452-3.4708-0.5831-3.7895-0.9134z" fill="url(#linearGradient4368)" stroke-linecap="round" stroke-linejoin="round" stroke-width=".36652"/>
    <path d="m38.054 1070.5c0 0.4523-1.7872 0.819-3.9918 0.819-2.2046 0-3.9918-0.3667-3.9918-0.819s1.7872-0.8189 3.9918-0.8189c2.2046 0 3.9918 0.3666 3.9918 0.8189z" fill="url(#linearGradient4365)" stroke-linecap="round" stroke-linejoin="round" stroke-width=".36652"/>
   </g>
  </g>
  <g fill="#00fd00">
   <path d="m113.55 1061.6 47.388-9.0312c4.3966-0.5044 4.4077 7.4266 1.2381 7.6376l-48.388 9.9599c-4.0596-1.0706-4.5376-6.0031-0.23867-8.5663z" stroke="#4d4d4d" stroke-linecap="round" stroke-linejoin="round" stroke-width=".36732"/>
   <path d="m163.19 1049.3c6.0828 0.7596 8.3896 11.794 1.1606 13.528l-0.86949-1.0902-0.8018-1.3992c0.35846-0.1483 1.9734-0.8755 1.9333-3.9593-0.154-1.4553-0.64365-3.6953-3.1917-3.9775-0.11025-1.5073 0.27037-2.5412 1.7691-3.1017z"/>
   <path d="m163.19 1049.4 14.133-2.7055c5.8755 1.4317 6.5423 10.076 2.8113 13.123l-15.297 2.8942c4.8333-3.9704 3.9756-12.368-1.6477-13.311z" stroke="#4d4d4d" stroke-width=".36652"/>
  </g>
  <path d="m163.19 1049.4c-1.5993 0.6235-1.9672 2.5034-1.8968 2.9923" fill="none" stroke="#4d4d4d" stroke-width=".32174"/>
  <path d="m162.48 1060.2c0.20615 0.4721 1.0898 2.6031 2.2182 2.5932" fill="none" stroke="#4d4d4d" stroke-linecap="round" stroke-linejoin="round" stroke-width=".32174"/>
  <g>
   <g stroke="#4d4d4d">
    <g>
     <g stroke-linecap="round" stroke-linejoin="round">
      <g stroke-width=".36652">
       <path d="m63.692 1053.3-0.01566 21.052c0.76141 1.1297 2.2369 0.8269 3.8851 0.8993 1.7751 0.053 3.6779-0.1867 4.1029-0.8574l-0.03329-20.982c-0.48205 0.3108-0.82676 0.6529-4.1496 0.8018-4.1569-0.3451-3.4708-0.5831-3.7895-0.9134z" fill="url(#linearGradient4353)"/>
       <path d="m71.65 1053.5c0 0.4523-1.7872 0.8189-3.9918 0.8189-2.2046 0-3.9918-0.3666-3.9918-0.8189s1.7872-0.819 3.9918-0.819c2.2046 0 3.9918 0.3667 3.9918 0.819z" fill="url(#linearGradient4350)"/>
       <path d="m134.48 1076.1-0.0157 21.052c0.7614 1.1296 2.2369 0.8267 3.8851 0.8992 1.7751 0.053 3.6779-0.1867 4.103-0.8573l-0.0333-20.982c-0.48205 0.3107-0.82677 0.6529-4.1496 0.8018-4.1569-0.3452-3.4708-0.5832-3.7895-0.9134z" fill="url(#linearGradient4343)"/>
       <path d="m142.43 1076.3c0 0.4523-1.7872 0.819-3.9918 0.819-2.2046 0-3.9918-0.3667-3.9918-0.819s1.7872-0.8189 3.9918-0.8189c2.2046 0 3.9918 0.3666 3.9918 0.8189z" fill="url(#linearGradient4340)"/>
       <path d="m152.62 1064.6-0.0157 21.052c0.76141 1.1298 2.2369 0.8269 3.8851 0.8994 1.7751 0.053 3.6779-0.1868 4.103-0.8574l-0.0333-20.982c-0.48206 0.3108-0.82676 0.6529-4.1496 0.8018-4.1569-0.3451-3.4708-0.5831-3.7895-0.9134z" fill="url(#linearGradient4333)"/>
       <path d="m160.58 1064.8c0 0.4523-1.7872 0.819-3.9918 0.819-2.2046 0-3.9918-0.3667-3.9918-0.819 0-0.4522 1.7872-0.8189 3.9918-0.8189 2.2046 0 3.9918 0.3667 3.9918 0.8189z" fill="url(#linearGradient4330)"/>
      </g>
      <path d="m95.002 1006.5c-8.9078 0-16.123 7.2334-16.123 16.147 0 8.9142 7.2154 16.13 16.123 16.13 8.9077 0 16.123-7.2153 16.123-16.13v-0.3973c-0.21227-8.7591-7.3678-15.75-16.123-15.75zm0.9208 2.5829c6.8887 0 12.526 5.7831 12.693 13.041v0.3251c0 7.3861-5.6842 13.384-12.693 13.384-7.0085 0-12.675-5.9978-12.675-13.384s5.6661-13.366 12.675-13.366z" fill="url(#linearGradient4257)" stroke-width=".36732"/>
     </g>
     <path d="m125.85 950.95-0.0549 42.817c2.6749 2.2976 7.8585 1.6815 13.649 1.8291 6.2364 0.10904 12.921-0.37968 14.414-1.744l-0.11694-42.675c-1.6935 0.63199-2.9046 1.3278-14.578 1.6307-14.604-0.70187-12.194-1.1859-13.313-1.8577z" fill="url(#linearGradient4254)" stroke-width=".36652"/>
    </g>
    <path d="m153.53 950.53c0 0.76353-6.0925 1.7169-13.608 1.7169-7.5155 0-13.608-0.95338-13.608-1.7169 0-0.76352 6.0925-1.3825 13.608-1.3825 7.5155 0 13.608 0.61897 13.608 1.3825z" fill="url(#linearGradient4381)" stroke-linecap="round" stroke-linejoin="round" stroke-width=".36652"/>
    <g>
     <path d="m124.6 949.74c3.5886-1.8673 9.2355-1.8153 15.182-1.9215 5.6717 0.11528 13.578 0.19263 15.22 2.0916l-1.7008 0.8082c-0.48564-0.5388-0.64443-1.3784-13.564-1.6164-11.399 0.15236-12.581 0.96941-13.479 1.6164z" fill="url(#linearGradient4250)" stroke-linecap="round" stroke-linejoin="round" stroke-width=".32174"/>
     <path d="m124.53 949.79 1.7162 1.009c7.5015 1.7858 18.697 1.9451 27.088 0.0369l1.7586-0.82791-2.1948 1.8648c-9.0592 2.0826-19.226 1.8515-25.967 0.23268-0.57884-0.56589-1.6053-1.587-2.401-2.3156z" fill="url(#linearGradient4247)" stroke-linecap="round" stroke-linejoin="round" stroke-width=".32174"/>
     <path d="m125.75 993.73 14.117 8.0395 14.074-7.9119c-2.3228 1.0416-5.663 1.8622-14.329 1.7139-9.325 0.22327-12.498-0.63123-13.862-1.8415z" fill="url(#linearGradient4244)" stroke-width=".36652"/>
    </g>
   </g>
   <g stroke-linecap="round" stroke-linejoin="round">
    <path d="m209.35 937.57-62.104 32.68s0.4748 133.64 0.43772 133.74l61.667-32.786z" fill="url(#linearGradient4241)" opacity=".6" stroke="#000" stroke-width=".36652"/>
    <path d="m75.204 927.83-61.681 32.556 133.35 9.916 62.075-32.654zm44.24 28.51c-2.5131 4.0976-29.785 4.3072-32.246-0.29932 2.2029-3.4235 28.133-5.0523 32.246 0.29932z" fill="url(#linearGradient4238)" opacity=".6" stroke="#4d4d4d" stroke-miterlimit="10" stroke-width=".36652"/>
    <path d="m95.912 1047.2-47.388-9.0312c-4.3966-0.5043-4.4077 7.4266-1.2381 7.6377l48.388 9.9599c4.0596-1.0707 4.5377-6.0032 0.23868-8.5664z" fill="url(#linearGradient4235)" stroke="#4d4d4d" stroke-width=".32174"/>
   </g>
   <path d="m46.278 1034.8c-6.0828 0.7596-8.3896 11.794-1.1606 13.528l0.86949-1.0902 0.8018-1.3993c-0.35847-0.1482-1.9734-0.8755-1.9333-3.9592 0.154-1.4554 0.64365-3.6954 3.1917-3.9776 0.11025-1.5072-0.27036-2.5411-1.7691-3.1017z" fill="url(#linearGradient4232)"/>
   <g stroke="#4d4d4d">
    <path d="m46.272 1034.9-14.133-2.7055c-5.8755 1.4317-6.5423 10.076-2.8113 13.123l15.297 2.8943c-4.8333-3.9705-3.9756-12.368 1.6477-13.311z" fill="url(#linearGradient4229)" stroke-width=".32174"/>
    <path d="m46.278 1034.9c1.5993 0.6234 1.9672 2.5511 1.8968 3.04" fill="url(#linearGradient4226)" stroke-width=".36652"/>
    <g stroke-linecap="round" stroke-linejoin="round">
     <path d="m46.754 1045.8c-0.25873 1.1235-0.88857 1.917-1.7192 2.532" fill="url(#linearGradient4223)" stroke-width=".36725"/>
     <path d="m47.923 1061.4-0.01566 21.052c0.7614 1.1296 2.2369 0.8266 3.8851 0.8993 1.7751 0.053 3.6779-0.1867 4.1029-0.8576l-0.03329-20.982c-0.48205 0.3107-0.82676 0.6528-4.1496 0.8018-4.1569-0.3452-3.4708-0.5831-3.7895-0.9134z" fill="url(#linearGradient4323)" stroke-width=".36652"/>
     <path d="m55.88 1061.6c0 0.4523-1.7872 0.819-3.9918 0.819s-3.9918-0.3667-3.9918-0.819 1.7872-0.8189 3.9918-0.8189 3.9918 0.3666 3.9918 0.8189z" fill="url(#linearGradient4320)" stroke-width=".36652"/>
     <path d="m146.93 969.94-133.11-9.7181 0.04523 133.91 133.52 9.7054z" fill="url(#linearGradient4217)" opacity=".28402" stroke-width=".20427"/>
    </g>
   </g>
  </g>
  <g fill="none" stroke="#000" stroke-width=".37795">
   <path d="m13.866 960.84v132.95" opacity=".55"/>
   <path d="m242.85 964.27v133.62" opacity=".55" stroke-linecap="round" stroke-linejoin="round"/>
   <path d="m468.1 964.73v133.62" opacity=".55325" stroke-linecap="round" stroke-linejoin="round"/>
  </g>
  <g transform="translate(215.66 1121.4)">
   <ellipse cx="-44.92" cy="-98.798" rx="13.199" ry="13.469" fill="#1f638a" stroke-linecap="round" stroke-linejoin="round" stroke-width="1.0658"/>
   <text x="-50.761276" y="-91.125885" fill="#000000" font-family="'Arial Nova', 'Arial Unicode MS', 'Yu Gothic UI', sans-serif" font-size="12.8px" letter-spacing="0px" stroke-width="1.0667" word-spacing="0px" style="line-height:0%" xml:space="preserve"><tspan x="-50.761276" y="-91.125885" fill="#ffffff" font-family="'Arial Nova', 'Arial Unicode MS', 'Yu Gothic UI', sans-serif" font-size="21.333px" stroke="#ffffff" stroke-width="1.0667" style="line-height:1.25">1</tspan></text>
  </g>
  <g transform="translate(349.43 1008.4)">
   <ellipse cx="-13.718" cy="-98.798" rx="13.199" ry="13.469" fill="#1f638a" stroke-linecap="round" stroke-linejoin="round" stroke-width="1.0658"/>
   <text x="-19.559933" y="-91.125885" fill="#000000" font-family="'Arial Nova', 'Arial Unicode MS', 'Yu Gothic UI', sans-serif" font-size="12.8px" letter-spacing="0px" stroke-width="1.0667" word-spacing="0px" style="line-height:0%" xml:space="preserve"><tspan x="-19.559933" y="-91.125885" fill="#ffffff" font-family="'Arial Nova', 'Arial Unicode MS', 'Yu Gothic UI', sans-serif" font-size="21.333px" stroke="#ffffff" stroke-width="1.0667" style="line-height:1.25">2</tspan></text>
  </g>
  <g transform="translate(549.63 1008.4)">
   <ellipse cx="17.483" cy="-98.798" rx="13.199" ry="13.469" fill="#1f638a" stroke-linecap="round" stroke-linejoin="round" stroke-width="1.0658"/>
   <text x="11.641406" y="-91.256096" fill="#000000" font-family="'Arial Nova', 'Arial Unicode MS', 'Yu Gothic UI', sans-serif" font-size="12.8px" letter-spacing="0px" stroke-width="1.0667" word-spacing="0px" style="line-height:0%" xml:space="preserve"><tspan x="11.641406" y="-91.256096" fill="#ffffff" font-family="'Arial Nova', 'Arial Unicode MS', 'Yu Gothic UI', sans-serif" font-size="21.333px" stroke="#ffffff" stroke-width="1.0667" style="line-height:1.25">3</tspan></text>
  </g>
 </g>
</svg>
