<?xml version="1.0" encoding="UTF-8"?>
<svg width="13cm" height="7.5cm" version="1.1" xmlns="http://www.w3.org/2000/svg" xmlns:cc="http://creativecommons.org/ns#" xmlns:dc="http://purl.org/dc/elements/1.1/" xmlns:rdf="http://www.w3.org/1999/02/22-rdf-syntax-ns#" xmlns:xlink="http://www.w3.org/1999/xlink">
 <defs>
  <linearGradient id="linearGradient17780-7-22">
   <stop stop-color="#fff" offset="0"/>
   <stop stop-color="#00385e" offset="1"/>
  </linearGradient>
  <linearGradient id="linearGradient13108" x1="128.07" x2="337.47" y1="199.61" y2="192.39" gradientTransform="matrix(.98874 0 0 .98864 -27.645 823.82)" gradientUnits="userSpaceOnUse" xlink:href="#linearGradient17780-7-22"/>
  <linearGradient id="linearGradient13111" x1="39.527" x2="162.12" y1="194.52" y2="194.52" gradientTransform="matrix(.98874 0 0 .98864 -27.06 823.32)" gradientUnits="userSpaceOnUse" xlink:href="#linearGradient17780-7-22"/>
  <linearGradient id="linearGradient13114" x1="40.411" x2="304.05" y1="96.159" y2="96.159" gradientTransform="matrix(.98874 0 0 .98864 -28.063 823.03)" gradientUnits="userSpaceOnUse" xlink:href="#linearGradient17780-7-22"/>
  <linearGradient id="linearGradient13206" x1="-237.95" x2="154.07" y1="477.05" y2="477.67" gradientTransform="matrix(1.1883 0 0 1.1881 69.188 353.4)" gradientUnits="userSpaceOnUse">
   <stop stop-color="#366280" offset="0"/>
   <stop stop-color="#366280" stop-opacity="0" offset="1"/>
  </linearGradient>
 </defs>
 <metadata>
  <rdf:RDF>
   <cc:Work rdf:about="">
    <dc:format>image/svg+xml</dc:format>
    <dc:type rdf:resource="http://purl.org/dc/dcmitype/StillImage"/>
    <dc:title/>
   </cc:Work>
  </rdf:RDF>
 </metadata>
 <g transform="translate(0 -839.06)">
  <g transform="matrix(1.0779 0 0 1.0779 6.8214 -85.45)" fill="none" stroke-linecap="round" stroke-linejoin="round" stroke-width=".62764">
   <path d="m34.086 1007.9 98.754-41.269 85.498 49.457-97.76 40.047z" stroke="#4d4d4d"/>
   <g stroke="#000">
    <path d="m133.05 886.35-0.13407 80.295" opacity=".6"/>
    <path d="m217.86 935.47 0.14407 80.891" opacity=".6"/>
    <path d="m34.174 927.41-0.13407 80.296" opacity=".6"/>
   </g>
  </g>
  <path d="m43.089 914.68 106.73-44.766 93.469 53.253-107.05 44.024z" fill="url(#linearGradient13206)"/>
  <g stroke-linejoin="round">
   <g fill="none" stroke="#d4aa00" stroke-width=".73798">
    <g transform="matrix(1.9411 0 0 1.9409 -389.38 -1085.5)">
     <g>
      <path d="m278.59 1028.8 35.285 20.958-39.796 16.429-35.475-20.904z"/>
      <path d="m278.65 1034.2 23.837 14.087-28.728 12.295-23.627-14.687z"/>
      <path d="m278.48 1041.3 12.057 7.4301-15.958 6.541-12.174-7.3333z"/>
      <path d="m275.9 1047.8-11.532-6.9957-8.0369 0.5697c-2.6329 0.2815-2.353-2.067-1.0578-2.3681 1.4662-0.7269 2.835-0.5897 3.6696-0.116"/>
     </g>
     <path d="m277.98 1048.3c0 0.3253-0.43467 0.589-0.97088 0.589s-0.97089-0.2637-0.97089-0.589c0-0.3252 0.43468-0.589 0.97089-0.589s0.97088 0.2638 0.97088 0.589z" stroke-linecap="round"/>
    </g>
    <g transform="matrix(1.9411 0 0 1.9409 -389.51 -1068.1)">
     <g>
      <path d="m278.59 1028.8 35.285 20.958-39.796 16.429-35.475-20.904z"/>
      <path d="m278.65 1034.2 23.837 14.087-28.728 12.295-23.627-14.687z"/>
      <path d="m278.48 1041.3 12.057 7.4301-15.958 6.541-12.174-7.3333z"/>
      <path d="m275.9 1047.8-11.532-6.9957-8.0369 0.5697c-2.6329 0.2815-2.353-2.067-1.0578-2.3681 1.4662-0.7269 2.835-0.5897 3.6696-0.116"/>
     </g>
     <path d="m277.98 1048.3c0 0.3253-0.43467 0.589-0.97088 0.589s-0.97089-0.2637-0.97089-0.589c0-0.3252 0.43468-0.589 0.97089-0.589s0.97088 0.2638 0.97088 0.589z" stroke-linecap="round"/>
    </g>
    <g transform="matrix(1.9411 0 0 1.9409 -390.04 -1051.2)">
     <g>
      <path d="m278.59 1028.8 35.285 20.958-39.796 16.429-35.475-20.904z"/>
      <path d="m278.65 1034.2 23.837 14.087-28.728 12.295-23.627-14.687z"/>
      <path d="m278.48 1041.3 12.057 7.4301-15.958 6.541-12.174-7.3333z"/>
      <path d="m275.9 1047.8-11.532-6.9957-8.0369 0.5697c-2.6329 0.2815-2.353-2.067-1.0578-2.3681 1.4662-0.7269 2.835-0.5897 3.6696-0.116"/>
     </g>
     <path d="m277.98 1048.3c0 0.3253-0.43467 0.589-0.97088 0.589s-0.97089-0.2637-0.97089-0.589c0-0.3252 0.43468-0.589 0.97089-0.589s0.97088 0.2638 0.97088 0.589z" stroke-linecap="round"/>
    </g>
    <g transform="matrix(1.9411 0 0 1.9409 -389.64 -1033.7)">
     <g>
      <path d="m278.59 1028.8 35.285 20.958-39.796 16.429-35.475-20.904z"/>
      <path d="m278.65 1034.2 23.837 14.087-28.728 12.295-23.627-14.687z"/>
      <path d="m278.48 1041.3 12.057 7.4301-15.958 6.541-12.174-7.3333z"/>
      <path d="m275.9 1047.8-11.532-6.9957-8.0369 0.5697c-2.6329 0.2815-2.353-2.067-1.0578-2.3681 1.4662-0.7269 2.835-0.5897 3.6696-0.116"/>
     </g>
     <path d="m277.98 1048.3c0 0.3253-0.43467 0.589-0.97088 0.589s-0.97089-0.2637-0.97089-0.589c0-0.3252 0.43468-0.589 0.97089-0.589s0.97088 0.2638 0.97088 0.589z" stroke-linecap="round"/>
    </g>
   </g>
   <g stroke-linecap="round">
    <path d="m113.17 980.97-0.0529-27.45" fill="none" stroke="#fa0000" stroke-width="1.4324"/>
    <path d="m154.7 854.17-142.32 59.195 119.8 69.267 139.28-58.793zm-4.8865 15.252s91.925 53.543 91.765 53.613l-105.41 43.449-92.852-52.337z" fill="url(#linearGradient13114)" opacity=".54839" stroke="#000" stroke-width=".67654"/>
    <path d="m148.76 1000.9-0.1849-83.256" fill="none" stroke="#d4aa00" stroke-width="1.4324"/>
    <path d="m132.74 982.8-0.49939 135.32-119.73-71.406v-133.65" fill="url(#linearGradient13111)" opacity=".54839" stroke="#000" stroke-width=".67654"/>
    <path d="m271.32 923.62v133.47l-139.09 60.869 0.26522-135.27" fill="url(#linearGradient13108)" opacity=".5914" stroke="#000" stroke-width=".67654"/>
    <path d="m148.55 916.96-0.18489-54.271" fill="none" stroke="#fa0000" stroke-width="1.4324"/>
   </g>
   <g transform="matrix(1.9411 0 0 1.9409 -389.18 -1106.8)" fill="none" stroke="#d4aa00" stroke-width=".73798">
    <g>
     <path d="m278.59 1028.8 35.285 20.958-39.796 16.429-35.475-20.904z"/>
     <path d="m278.65 1034.2 23.837 14.087-28.728 12.295-23.627-14.687z"/>
     <path d="m278.48 1041.3 12.057 7.4301-15.958 6.541-12.174-7.3333z"/>
     <path d="m275.9 1047.8-11.532-6.9957-8.0369 0.5697c-2.6329 0.2815-2.353-2.067-1.0578-2.3681 1.4662-0.7269 2.835-0.5897 3.6696-0.116"/>
    </g>
    <path d="m277.98 1048.3c0 0.3253-0.43467 0.589-0.97088 0.589s-0.97089-0.2637-0.97089-0.589c0-0.3252 0.43468-0.589 0.97089-0.589s0.97088 0.2638 0.97088 0.589z" stroke-linecap="round"/>
   </g>
   <path d="m113.23 952.56-0.1849-54.271" fill="none" stroke="#fa0000" stroke-linecap="round" stroke-width="1.4324"/>
  </g>
 </g>
</svg>
