<svg version="1.1" viewBox="0 0 460.63 265.75" xmlns="http://www.w3.org/2000/svg" xmlns:xlink="http://www.w3.org/1999/xlink">
 <title>Abbildung für OPEN MIND Softwaredokumentation</title>
 <defs>
  <linearGradient id="linearGradient17780-7-6-2">
   <stop stop-color="#ffffff" offset="0"/>
   <stop stop-color="#00385e" offset="1"/>
  </linearGradient>
  <linearGradient id="linearGradient20424" x1="-28.881" x2="-1.5473" y1="-7.5976" y2="-8.1333" gradientTransform="matrix(1.1074 .18488 -.22694 1.3593 76.15 911.83)" gradientUnits="userSpaceOnUse">
   <stop stop-color="#FFFFFF" offset="0"/>
   <stop stop-color="#FCFCFC" offset=".2264"/>
   <stop stop-color="#F4F4F4" offset=".3626"/>
   <stop stop-color="#E6E6E6" offset=".475"/>
   <stop stop-color="#D1D1D1" offset=".5744"/>
   <stop stop-color="#B7B7B7" offset=".6652"/>
   <stop stop-color="#979797" offset=".7498"/>
   <stop stop-color="#707070" offset=".8297"/>
   <stop stop-color="#444444" offset=".9057"/>
   <stop stop-color="#121212" offset=".9761"/>
   <stop stop-color="#000000" offset="1"/>
  </linearGradient>
  <linearGradient id="linearGradient20428" x1="76.245" x2="220.75" y1="80.297" y2="221.24" gradientTransform="matrix(1.5457 0 0 1.5457 119.6 949.23)" gradientUnits="userSpaceOnUse" xlink:href="#linearGradient17780-7-6-2"/>
  <linearGradient id="linearGradient20430" x1="17.739" x2="69.977" y1="105.99" y2="149.94" gradientUnits="userSpaceOnUse" xlink:href="#linearGradient17780-7-6-2"/>
  <linearGradient id="linearGradient20432" x1="130.99" x2="179.16" y1="114.63" y2="148.45" gradientUnits="userSpaceOnUse" xlink:href="#linearGradient17780-7-6-2"/>
  <linearGradient id="linearGradient20434" x1="33.194" x2="270.4" y1="135.39" y2="211.52" gradientUnits="userSpaceOnUse" xlink:href="#linearGradient17780-7-6-2"/>
  <linearGradient id="linearGradient20493" x1="76.245" x2="220.75" y1="80.297" y2="221.24" gradientTransform="matrix(1.5219 .032477 -.032477 1.5219 -20.61 795.99)" gradientUnits="userSpaceOnUse" xlink:href="#linearGradient17780-7-6-2"/>
  <linearGradient id="linearGradient20528" x1="-28.881" x2="-1.5473" y1="-7.5976" y2="-8.1333" gradientTransform="matrix(.90033 -.64177 .7878 1.1052 151.73 884.06)" gradientUnits="userSpaceOnUse">
   <stop stop-color="#FFFFFF" offset="0"/>
   <stop stop-color="#FCFCFC" offset=".2264"/>
   <stop stop-color="#F4F4F4" offset=".3626"/>
   <stop stop-color="#E6E6E6" offset=".475"/>
   <stop stop-color="#D1D1D1" offset=".5744"/>
   <stop stop-color="#B7B7B7" offset=".6652"/>
   <stop stop-color="#979797" offset=".7498"/>
   <stop stop-color="#707070" offset=".8297"/>
   <stop stop-color="#444444" offset=".9057"/>
   <stop stop-color="#121212" offset=".9761"/>
   <stop stop-color="#000000" offset="1"/>
  </linearGradient>
 </defs>
 <g transform="translate(0 -786.61)">
  <g transform="matrix(.97744 .12035 -.12035 .97744 335.75 19.077)" stroke="#000000" stroke-linecap="round" stroke-linejoin="round" stroke-width=".63425">
   <path d="m55.8 838.84c-11.839 13.032-23.938 4.9213-30.996-6.583l-18.357 110.59-0.0071 0.0425c-0.10918 0.43581-0.22047 0.89464-0.29613 1.3478-1.2482 7.4763 2.6863 14.377 8.7768 15.394l38.204 6.3782c6.0789 1.0149 11.996-4.2177 13.26-11.671l0.13842 0.0231 18.702-112.02c-4.6226-8.6594-20.729-11.913-29.425-3.5043z" color="#000000" fill="url(#linearGradient20424)"/>
   <path d="m55.078 838.38c-7.0198-10.785-19.512-12.201-30.288-6.1429" color="#000000" fill="none"/>
  </g>
  <g transform="matrix(.7741 -.60879 .60879 .7741 -238.45 227.21)" stroke="#000000" stroke-linecap="round" stroke-linejoin="round" stroke-width=".63425">
   <path d="m55.8 838.84c-11.839 13.032-23.938 4.9213-30.996-6.583l-18.357 110.59-0.0071 0.0425c-0.10918 0.43581-0.22047 0.89464-0.29613 1.3478-1.2482 7.4763 2.6863 14.377 8.7768 15.394l38.204 6.3782c6.0789 1.0149 11.996-4.2177 13.26-11.671l0.13842 0.0231 18.702-112.02c-4.6226-8.6594-20.729-11.913-29.425-3.5043z" color="#000000" fill="url(#linearGradient20424)"/>
   <path d="m55.078 838.38c-7.0198-10.785-19.512-12.201-30.288-6.1429" color="#000000" fill="none"/>
  </g>
  <g transform="matrix(.98482 0 0 .98482 79.066 -137.45)" stroke="#4d4d4d">
   <path d="m357.49 1161.6c0.1623 0.6569-0.0155 1.1469-0.40962 1.6307-23.479 34.205-72.248 22.928-104.46 11.009-33.411-12.364-71.264-26.32-96.705-51.775-2.7344-2.9724-7.8909-5.6759-6.5291-8.1521 3.1285-4.8196 8.0857-1.4051 13.873 0.408 54.539 20.53 109.61 14.468 156.28-21.2l2.4484-1.2226c0.77285-0.1293 27.167 51.532 33.051 64.413l2.45 4.8891v0" fill="url(#linearGradient20428)" stroke-linecap="round" stroke-linejoin="round" stroke-miterlimit="10" stroke-width=".63425"/>
   <g transform="matrix(1.5457 0 0 1.5457 119.6 949.23)">
    <path d="m37.586 118.97c-2.486-1.968-12.12-12.534-13.245-13.301-1.784-1.217-3.797-0.821-5.072 1.143-0.881 1.603 2.936 3.453 4.953 5.114 3.522 2.9 7.345 5.028 10.981 7.666l2.383-0.622z" fill="url(#linearGradient20430)" stroke-linecap="square" stroke-miterlimit="10" stroke-width=".25"/>
    <path d="m150.47 135.83 2.298 1.208 0.86 0.215 9e-3 -0.63 0.14445-0.60969c-6.768-14.301-13.408-28.72-19.678-43.17-0.727-0.942-1.7033-0.95631-2.8223-0.44731l19.189 43.434v0" clip-rule="evenodd" fill="url(#linearGradient20432)" fill-rule="evenodd" stroke-linecap="round" stroke-linejoin="round" stroke-width=".41033"/>
    <path d="m36.957 118.42c-4.032-2.76-5.171-0.066-1.056 2.374 30.705 16.556 91.105 50.952 116.34 19.983 3.943-4.839 2.1867-6.3192-4.9403-4.9502-36.095 6.934-72.987 0.184-106.91-15.823l-3.431-1.584" fill="url(#linearGradient20434)" stroke-linecap="square" stroke-miterlimit="10" stroke-width=".25"/>
   </g>
  </g>
  <path d="m301.31 823.67 72.242 127.78" fill="none" stroke="#000000" stroke-dasharray="3.76878557, 1.88439279, 0.9421964, 1.88439279" stroke-linecap="round" stroke-linejoin="round" stroke-width=".9422"/>
  <path d="m182.54 945.93-2.6404-1.0613" fill="#99b2cc" stroke="#4d4d4d" stroke-linecap="round" stroke-linejoin="round" stroke-miterlimit="10" stroke-width=".62462"/>
  <g transform="matrix(1.5219 .032477 -.032477 1.5219 84.39 805.99)">
   <path d="m-16.79 103.79c-4.0752-1.0248-27.531-3.2636-27.531-3.2636-0.0092 0.46975 26.357 10.926 26.843 7.7538z" fill="#f6aa42" stroke="#4d4d4d" stroke-linecap="square" stroke-miterlimit="10" stroke-width=".25"/>
  </g>
  <g transform="matrix(1.0186 -.91012 .91012 1.0186 97.864 816.33)">
   <path d="m-17.418 103.32c-4.0752-1.0248-26.903-2.7898-26.903-2.7898-0.0092 0.46975 24.985 10.513 25.759 7.3982z" fill="#f6aa42" stroke="#4d4d4d" stroke-linecap="square" stroke-miterlimit="10" stroke-width=".25"/>
  </g>
  <path d="m209.15 1010.1c0.146 0.6502-0.0394 1.1289-0.43757 1.597-23.836 33.185-71.617 21.056-103.08 8.6442-32.636-12.876-69.613-27.412-94.127-53.009-2.6298-2.9841-7.6501-5.7542-6.2572-8.1637 3.1816-4.6796 7.9906-1.2135 13.651 0.69327 53.268 21.36 107.62 16.548 154.32-17.589l2.4364-1.1524c0.76366-0.11111 25.665 51.308 31.188 64.115l2.3095 4.8652v0" fill="url(#linearGradient20493)" stroke="#4d4d4d" stroke-linecap="round" stroke-linejoin="round" stroke-miterlimit="10" stroke-width=".62462"/>
  <g transform="matrix(1.5219 .032477 -.032477 1.5219 -20.61 795.99)" stroke="#4d4d4d">
   <path d="m37.586 118.97c-2.486-1.968-12.12-12.534-13.245-13.301-1.784-1.217-3.797-0.821-5.072 1.143-0.881 1.603 2.936 3.453 4.953 5.114 3.522 2.9 7.345 5.028 10.981 7.666l2.383-0.622z" fill="url(#linearGradient20430)" stroke-linecap="square" stroke-miterlimit="10" stroke-width=".25"/>
   <path d="m150.47 135.83 2.298 1.208 0.86 0.215 9e-3 -0.63 0.14445-0.60969c-6.768-14.301-13.408-28.72-19.678-43.17-0.727-0.942-1.7033-0.95631-2.8223-0.44731l19.189 43.434v0" clip-rule="evenodd" fill="url(#linearGradient20432)" fill-rule="evenodd" stroke-linecap="round" stroke-linejoin="round" stroke-width=".41033"/>
   <path d="m36.957 118.42c-4.032-2.76-5.171-0.066-1.056 2.374 30.705 16.556 91.105 50.952 116.34 19.983 3.943-4.839 2.1867-6.3192-4.9403-4.9502-36.095 6.934-72.987 0.184-106.91-15.823l-3.431-1.584" fill="url(#linearGradient20434)" stroke-linecap="square" stroke-miterlimit="10" stroke-width=".25"/>
  </g>
  <g transform="matrix(1.5219 .032477 -.032477 1.5219 -20.61 795.99)">
   <circle cx="41.193" cy="103.09" r="15.651" d="m 56.844001,103.094 c 0,8.64381 -7.007192,15.651 -15.651,15.651 -8.643809,0 -15.651,-7.00719 -15.651,-15.651 0,-8.643807 7.007191,-15.650998 15.651,-15.650998 8.643808,0 15.651,7.007191 15.651,15.650998 z" fill="none" stroke-miterlimit="10"/>
  </g>
  <g transform="matrix(.98455 -.022816 .022816 .98455 -21.292 13.19)" stroke="#000000" stroke-linecap="round" stroke-linejoin="round" stroke-width=".63425">
   <path d="m55.8 838.84c-11.839 13.032-23.938 4.9213-30.996-6.583l-18.357 110.59-0.0071 0.0425c-0.10918 0.43581-0.22047 0.89464-0.29613 1.3478-1.2482 7.4763 2.6863 14.377 8.7768 15.394l38.204 6.3782c6.0789 1.0149 11.996-4.2177 13.26-11.671l0.13842 0.0231 18.702-112.02c-4.6226-8.6594-20.729-11.913-29.425-3.5043z" color="#000000" fill="url(#linearGradient20424)"/>
   <path d="m55.078 838.38c-7.0198-10.785-19.512-12.201-30.288-6.1429" color="#000000" fill="none"/>
  </g>
  <path d="m85.81 847.67c-12.397-2.6309-22.088 5.0755-25.381 16.796" color="#000000" fill="none" stroke="#000000" stroke-linecap="round" stroke-linejoin="round" stroke-width=".62462"/>
  <g transform="matrix(1.5219 .032477 -.032477 1.5219 68.256 747.32)">
   <circle cx="41.193" cy="103.09" r="15.651" d="m 56.844001,103.094 c 0,8.64381 -7.007192,15.651 -15.651,15.651 -8.643809,0 -15.651,-7.00719 -15.651,-15.651 0,-8.643807 7.007191,-15.650998 15.651,-15.650998 8.643808,0 15.651,7.007191 15.651,15.650998 z" fill="none" stroke-miterlimit="10"/>
  </g>
  <path d="m55.262 817.22-20.366 148.14" fill="none" stroke="#000000" stroke-dasharray="3.76878556, 1.88439278, 0.9421964, 1.88439278" stroke-linecap="round" stroke-linejoin="round" stroke-width=".9422"/>
  <path d="m34.748 965.25 15.649-46.626" fill="none" stroke="#000000" stroke-linecap="round" stroke-linejoin="round" stroke-width=".9422"/>
  <g>
   <path d="m86.759 847.36c0.81837 17.32-13.256 20.087-26.181 16.982l64.167 89.841 0.0246 0.035c0.22719 0.3796 0.46893 0.7768 0.73156 1.1453 4.3328 6.0784 11.877 8.1494 16.829 4.6198l31.061-22.141c4.9424-3.523 5.4246-11.287 1.1183-17.361l0.11254-0.0802-64.92-91.075c-9.2472-2.8175-22.735 6.1236-22.943 18.034z" color="#000000" fill="url(#linearGradient20528)" stroke="#000000" stroke-linecap="round" stroke-linejoin="round" stroke-width=".62462"/>
   <path d="m60.685 864.21c2.4515-4.8311 2.0966-8.4592 10.966-14.283 7.582-3.8377 11.07-2.0963 14.302-1.6744 1.1881 1.6735-3.2721 9.3505-6.2397 14.421-7.545 4.7861-18.348 0.9834-19.028 1.5366z" fill="#ffffff"/>
  </g>
  <g fill="none" stroke="#000000" stroke-linecap="round" stroke-linejoin="round" stroke-width=".9422">
   <path d="m71.955 827.84c-0.13308 0.0673 85.76 123.26 85.76 123.26" stroke-dasharray="3.76878556, 1.88439278, 0.9421964, 1.88439278"/>
   <path d="m157.77 951.61-30.043-55.096"/>
   <path d="m293.47 825.92-41.054 137.72" stroke-dasharray="3.76878557, 1.88439279, 0.9421964, 1.88439279"/>
  </g>
  <g stroke="#000000" stroke-linecap="round" stroke-linejoin="round">
   <path d="m40.928 917.68-8.7442-2.9328-0.01135 6.0983z" fill="#000000" stroke-width=".74181"/>
   <path d="m37.968 918.35c-4.1778-0.43201-7.0775-1.738-12.544 0.88466" fill="none" stroke-width=".63425"/>
  </g>
  <g stroke="#000000">
   <path d="m50.615 918.55 9.2225-0.0964-1.8679 5.8052z" fill="#000000" stroke-linecap="round" stroke-linejoin="round" stroke-width=".74181"/>
   <path d="m56.432 920.48c3.6862 0.2153 6.9009 2.5282 7.9206 4.9232" fill="none" stroke-width=".63425"/>
  </g>
  <g transform="matrix(.097805 .99521 -.99521 .097805 1001.2 808.16)" stroke="#000000" stroke-linecap="round" stroke-linejoin="round">
   <path d="m61.389 956.53-8.7442-2.9328-0.01135 6.0983z" fill="#000000" stroke-width=".74181"/>
   <path d="m58.43 957.2c-4.1778-0.43201-7.0775-1.738-12.544 0.88466" fill="none" stroke-width=".63425"/>
  </g>
  <g transform="matrix(-.041274 .99915 -.99915 -.041274 973.87 958.25)" stroke="#000000">
   <path d="m50.615 918.55 9.2225-0.0964-1.8679 5.8052z" fill="#000000" stroke-linecap="round" stroke-linejoin="round" stroke-width=".74181"/>
   <path d="m56.432 920.48c3.6862 0.2153 6.9009 2.5282 7.9206 4.9232" fill="none" stroke-width=".63425"/>
  </g>
  <g transform="matrix(.75275 -.65831 .65831 .75275 -513.87 236.07)" stroke="#000000" stroke-linecap="round" stroke-linejoin="round">
   <path d="m40.928 917.68-8.7442-2.9328-0.01135 6.0983z" fill="#000000" stroke-width=".74181"/>
   <path d="m37.968 918.35c-4.1778-0.43201-7.0775-1.738-12.544 0.88466" fill="none" stroke-width=".63425"/>
  </g>
  <g transform="matrix(.65534 -.75534 .75534 .65534 -599.19 332.41)" stroke="#000000">
   <path d="m50.615 918.55 9.2225-0.0964-1.8679 5.8052z" fill="#000000" stroke-linecap="round" stroke-linejoin="round" stroke-width=".74181"/>
   <path d="m56.432 920.48c3.6862 0.2153 6.9009 2.5282 7.9206 4.9232" fill="none" stroke-width=".63425"/>
  </g>
  <g transform="matrix(.65499 .75564 -.75564 .65499 856.14 264.11)" stroke="#000000" stroke-linecap="round" stroke-linejoin="round">
   <path d="m61.389 956.53-8.7442-2.9328-0.01135 6.0983z" fill="#000000" stroke-width=".74181"/>
   <path d="m58.43 957.2c-4.1778-0.43201-7.0775-1.738-12.544 0.88466" fill="none" stroke-width=".63425"/>
  </g>
  <g transform="matrix(.54377 .83924 -.83924 .54377 919.65 399.37)" stroke="#000000">
   <path d="m50.615 918.55 9.2225-0.0964-1.8679 5.8052z" fill="#000000" stroke-linecap="round" stroke-linejoin="round" stroke-width=".74181"/>
   <path d="m56.432 920.48c3.6862 0.2153 6.9009 2.5282 7.9206 4.9232" fill="none" stroke-width=".63425"/>
  </g>
  <g transform="translate(115.48 903.37)">
   <ellipse cx="-44.92" cy="-98.798" rx="13.199" ry="13.469" d="m -31.720282,-98.79776 c 0,7.438558 -5.90954,13.4687 -13.199327,13.4687 -7.289787,0 -13.199328,-6.030142 -13.199328,-13.4687 0,-7.43856 5.909541,-13.4687 13.199328,-13.4687 7.289787,0 13.199327,6.03014 13.199327,13.4687 z" fill="#1f638a" stroke-linecap="round" stroke-linejoin="round" stroke-width="1.0658"/>
   <text x="-50.761276" y="-91.125885" fill="#000000" letter-spacing="0px" word-spacing="0px" style="line-height:0%" xml:space="preserve"><tspan x="-50.761276" y="-91.125885" fill="#ffffff" font-family="'Arial Nova', 'Arial Unicode MS', 'Yu Gothic UI', sans-serif" font-size="20px" stroke="#ffffff" stroke-width="1.0667" style="line-height:1.25">1</tspan></text>
  </g>
  <g transform="translate(310.94 904.14)">
   <ellipse cx="-13.718" cy="-98.798" rx="13.199" ry="13.469" d="m -0.51893806,-98.79776 c 0,7.438558 -5.90954024,13.4687 -13.19932794,13.4687 -7.289787,0 -13.199327,-6.030142 -13.199327,-13.4687 0,-7.43856 5.90954,-13.4687 13.199327,-13.4687 7.2897877,0 13.19932794,6.03014 13.19932794,13.4687 z" fill="#1f638a" stroke-linecap="round" stroke-linejoin="round" stroke-width="1.0658"/>
   <text x="-19.559933" y="-91.125885" fill="#000000" letter-spacing="0px" word-spacing="0px" style="line-height:0%" xml:space="preserve"><tspan x="-19.559933" y="-91.125885" fill="#ffffff" font-family="'Arial Nova', 'Arial Unicode MS', 'Yu Gothic UI', sans-serif" font-size="20px" stroke="#ffffff" stroke-width="1.0667" style="line-height:1.25">2</tspan></text>
  </g>
  <g transform="translate(58.064 1067.8)">
   <ellipse cx="17.483" cy="-98.798" rx="13.199" ry="13.469" d="m 30.682402,-98.79776 c 0,7.438558 -5.909541,13.4687 -13.199328,13.4687 -7.289787,0 -13.1993273,-6.030142 -13.1993273,-13.4687 0,-7.43856 5.9095403,-13.4687 13.1993273,-13.4687 7.289787,0 13.199328,6.03014 13.199328,13.4687 z" fill="#1f638a" stroke-linecap="round" stroke-linejoin="round" stroke-width="1.0658"/>
   <text x="11.641406" y="-91.256096" fill="#000000" font-family="'Arial Nova', 'Arial Unicode MS', 'Yu Gothic UI', sans-serif" letter-spacing="0px" word-spacing="0px" style="line-height:0%" xml:space="preserve"><tspan x="11.641406" y="-91.256096" fill="#ffffff" font-family="'Arial Nova', 'Arial Unicode MS', 'Yu Gothic UI', sans-serif" font-size="20px" stroke="#ffffff" stroke-width="1.0667" style="line-height:1.25">3</tspan></text>
  </g>
 </g>
</svg>
