<?xml version="1.0" encoding="UTF-8" standalone="no"?>
<svg
   xmlns:i="http://ns.adobe.com/AdobeIllustrator/10.0/"
   xmlns:dc="http://purl.org/dc/elements/1.1/"
   xmlns:cc="http://creativecommons.org/ns#"
   xmlns:rdf="http://www.w3.org/1999/02/22-rdf-syntax-ns#"
   xmlns:svg="http://www.w3.org/2000/svg"
   xmlns="http://www.w3.org/2000/svg"
   xmlns:xlink="http://www.w3.org/1999/xlink"
   xmlns:sodipodi="http://sodipodi.sourceforge.net/DTD/sodipodi-0.dtd"
   xmlns:inkscape="http://www.inkscape.org/namespaces/inkscape"
   width="637.79529"
   height="230.31496"
   id="svg4253"
   version="1.1"
   inkscape:version="1.0.2-2 (e86c870879, 2021-01-15)"
   sodipodi:docname="3D_profilschlichten_zustellmodus_zickzack3.svg"
   inkscape:export-filename="C:\_data\Dokumentation\hyperMILL\trunk\Grafiken\hm\models\3D_profilschlichten_zustellmodus_zickzack3.png"
   inkscape:export-xdpi="200"
   inkscape:export-ydpi="200">
  <title
     id="title2986">Abbildung für OPEN MIND Softwaredokumentation</title>
  <defs
     id="defs4255">
    <linearGradient
       inkscape:collect="always"
       xlink:href="#linearGradient17780-7-4"
       id="linearGradient12058"
       x1="-0.10171782"
       y1="97.305496"
       x2="490.53561"
       y2="228.33437"
       gradientUnits="userSpaceOnUse" />
    <linearGradient
       id="linearGradient17780-7-4">
      <stop
         id="stop17782-4-5"
         offset="0"
         style="stop-color:#ffffff;stop-opacity:1;" />
      <stop
         id="stop17784-0-5"
         offset="1"
         style="stop-color:#00385e;stop-opacity:1;" />
    </linearGradient>
    <linearGradient
       y2="228.33437"
       x2="490.53561"
       y1="97.305496"
       x1="-0.10171782"
       gradientUnits="userSpaceOnUse"
       id="linearGradient12763-9"
       xlink:href="#linearGradient17780-7-4-4"
       inkscape:collect="always" />
    <linearGradient
       id="linearGradient17780-7-4-4">
      <stop
         id="stop17782-4-5-4"
         offset="0"
         style="stop-color:#ffffff;stop-opacity:1;" />
      <stop
         id="stop17784-0-5-6"
         offset="1"
         style="stop-color:#00385e;stop-opacity:1;" />
    </linearGradient>
    <linearGradient
       inkscape:collect="always"
       xlink:href="#linearGradient17780-7-4"
       id="linearGradient9532-0"
       gradientUnits="userSpaceOnUse"
       gradientTransform="matrix(1.0666655,0.00156849,-0.00156849,1.0666655,-156.35763,852.22322)"
       x1="146.03345"
       y1="68.101707"
       x2="663.71613"
       y2="190.52559" />
    <linearGradient
       inkscape:collect="always"
       xlink:href="#linearGradient17780-7-4"
       id="linearGradient1014"
       gradientUnits="userSpaceOnUse"
       gradientTransform="matrix(1.0666655,0.00156849,-0.00156849,1.0666655,144.01425,852.22317)"
       x1="146.03345"
       y1="68.101707"
       x2="663.71613"
       y2="190.52559" />
  </defs>
  <sodipodi:namedview
     id="base"
     pagecolor="#ffffff"
     bordercolor="#666666"
     borderopacity="1.0"
     inkscape:pageopacity="0.0"
     inkscape:pageshadow="2"
     inkscape:zoom="1.3641425"
     inkscape:cx="328.08399"
     inkscape:cy="167.25054"
     inkscape:document-units="mm"
     inkscape:current-layer="layer1"
     showgrid="false"
     width="180px"
     units="mm"
     inkscape:window-width="1920"
     inkscape:window-height="1027"
     inkscape:window-x="1912"
     inkscape:window-y="-8"
     inkscape:window-maximized="1"
     showguides="true"
     inkscape:guide-bbox="true"
     inkscape:document-rotation="0">
    <sodipodi:guide
       orientation="0,1"
       position="-152.78557,17.425131"
       id="guide2986" />
    <sodipodi:guide
       orientation="0,1"
       position="18.509753,89.445522"
       id="guide3196" />
    <sodipodi:guide
       orientation="1,0"
       position="17.67767,121.72338"
       id="guide12906" />
    <sodipodi:guide
       position="318.88163,121.8219"
       orientation="1,0"
       id="guide985" />
  </sodipodi:namedview>
  <metadata
     id="metadata4258">
    <rdf:RDF>
      <cc:Work
         rdf:about="">
        <dc:format>image/svg+xml</dc:format>
        <dc:type
           rdf:resource="http://purl.org/dc/dcmitype/StillImage" />
        <dc:title>Abbildung für OPEN MIND Softwaredokumentation</dc:title>
        <dc:creator>
          <cc:Agent>
            <dc:title>OPEN MIND Technologies AG</dc:title>
          </cc:Agent>
        </dc:creator>
        <dc:rights>
          <cc:Agent>
            <dc:title>Alle Rechte vorbehalten.</dc:title>
          </cc:Agent>
        </dc:rights>
        <dc:publisher>
          <cc:Agent>
            <dc:title>Technische Redaktion</dc:title>
          </cc:Agent>
        </dc:publisher>
      </cc:Work>
    </rdf:RDF>
  </metadata>
  <g
     inkscape:label="Ebene 1"
     inkscape:groupmode="layer"
     id="layer1"
     transform="translate(0,-822.04724)">
    <path
       id="rect5802-6-4-4-1-4"
       style="display:inline;opacity:1;fill:url(#linearGradient1014);fill-opacity:1;stroke:#4d4d4d;stroke-width:0.634;stroke-linecap:round;stroke-linejoin:round;stroke-miterlimit:4;stroke-dasharray:none;stroke-dashoffset:0;stroke-opacity:1"
       d="m 468.60678,877.99607 127.56753,72.1654 -149.02566,85.41113 -128.26702,-72.65593 z"
       sodipodi:nodetypes="ccccc" />
    <path
       id="rect5802-6-4-4-1"
       style="display:inline;opacity:1;fill:url(#linearGradient9532-0);fill-opacity:1;stroke:#4d4d4d;stroke-width:0.634;stroke-linecap:round;stroke-linejoin:round;stroke-miterlimit:4;stroke-dasharray:none;stroke-dashoffset:0;stroke-opacity:1"
       d="M 168.2349,877.99613 295.80243,950.16145 146.77677,1035.5726 18.509753,962.91667 Z"
       sodipodi:nodetypes="ccccc" />
    <line
       style="fill:none;stroke:#e2001a;stroke-width:3.18898;stroke-linecap:round;stroke-linejoin:round;stroke-miterlimit:4;stroke-dasharray:none"
       i:knockout="Off"
       x1="270.71713"
       y1="892.25647"
       x2="270.71713"
       y2="928.22784"
       id="line517" />
    <g
       id="g12816"
       transform="translate(-10.343911,50.218641)">
      <path
         style="fill:none;stroke:#ffcc00;stroke-width:3.46549;stroke-opacity:1"
         inkscape:connector-curvature="0"
         i:knockout="Off"
         d="m 350.42129,902.92407 c 0.32714,6.19701 3.42565,9.45909 9.29551,6.68505 l 120.19278,-68.82007 c 5.8712,-3.75146 6.81778,-9.90691 6.81778,-16.10392"
         id="path492" />
      <path
         style="fill:none;stroke:#ffcc00;stroke-width:3.46549;stroke-opacity:1"
         inkscape:connector-curvature="0"
         i:knockout="Off"
         d="m 360.43679,909.4804 c 0.32715,6.19701 3.68442,9.75138 9.55428,6.97868 l 120.19278,-68.82007 c 5.87121,-3.75145 7.02963,-10.03025 7.02963,-16.22726"
         id="path494" />
      <path
         style="fill:none;stroke:#ffcc00;stroke-width:3.46549;stroke-opacity:1"
         inkscape:connector-curvature="0"
         i:knockout="Off"
         d="m 370.80224,915.72837 c 0.32714,6.19701 3.10252,9.70042 8.97239,6.92772 l 120.19278,-68.82007 c 6.1407,-3.6509 5.72104,-10.20321 5.72104,-16.40022"
         id="path496" />
      <path
         style="fill:none;stroke:#ffcc00;stroke-width:3.46549;stroke-opacity:1"
         inkscape:connector-curvature="0"
         i:knockout="Off"
         d="m 379.47028,921.27108 c 0.32714,6.19701 3.89358,10.02892 9.76344,7.25622 L 509.4265,859.70723 c 5.8712,-3.75146 6.84728,-9.94847 6.84728,-16.14548"
         id="path498" />
      <path
         style="fill:none;stroke:#ffcc00;stroke-width:3.46549;stroke-opacity:1"
         inkscape:connector-curvature="0"
         i:knockout="Off"
         d="m 389.91483,927.8073 c 0.32714,6.19702 4.37625,9.52614 10.24612,6.75343 l 120.19411,-68.82007 c 7.26024,-3.85737 5.64864,-9.91896 5.64864,-16.11598"
         id="path500" />
      <path
         style="fill:none;stroke:#ffcc00;stroke-width:3.46549;stroke-opacity:1"
         inkscape:connector-curvature="0"
         i:knockout="Off"
         d="m 399.68229,934.07002 c 0.32715,6.19701 3.74073,9.95114 9.6106,7.17845 L 529.48701,872.4284 c 5.8712,-3.75146 6.84728,-9.94847 6.84728,-16.14548"
         id="path502" />
      <path
         style="fill:none;stroke:#ffcc00;stroke-width:3.46549;stroke-opacity:1"
         inkscape:connector-curvature="0"
         i:knockout="Off"
         d="m 409.95523,940.80333 c 0.32714,6.19702 3.72866,10.06645 9.59852,7.29242 l 120.19412,-68.82007 c 5.87121,-3.75146 6.72527,-9.94847 6.72527,-16.14548"
         id="path504" />
      <path
         style="fill:none;stroke:#ffcc00;stroke-width:3.46549;stroke-opacity:1"
         inkscape:connector-curvature="0"
         i:knockout="Off"
         d="m 420.38234,947.11833 c 0.32715,6.19701 3.42565,9.45906 9.29552,6.68505 l 120.19412,-68.82007 c 5.8712,-3.75146 7.16772,-9.61864 7.16772,-15.81566"
         id="path506" />
      <path
         style="fill:none;stroke:#ffcc00;stroke-width:3.46549;stroke-opacity:1"
         inkscape:connector-curvature="0"
         i:knockout="Off"
         d="m 430.79472,953.75109 c -0.0228,6.44774 2.63594,9.02204 8.5058,6.24927 l 120.19413,-68.82004 c 5.8712,-3.75146 6.84728,-9.94847 6.84728,-16.14548"
         id="path508" />
      <path
         style="fill:none;stroke:#ffcc00;stroke-width:3.46549;stroke-opacity:1"
         inkscape:connector-curvature="0"
         i:knockout="Off"
         d="m 440.27794,959.34876 c 0.0161,6.24929 3.42565,9.45908 9.29551,6.68508 l 120.19413,-68.82008 c 5.8712,-3.75146 7.09397,-9.52077 7.09397,-15.71778"
         id="path510" />
      <path
         style="fill:none;stroke:#ffcc00;stroke-width:3.46549;stroke-opacity:1"
         inkscape:connector-curvature="0"
         i:knockout="Off"
         d="m 450.67288,965.74151 c 0,6.11124 3.14141,9.58915 9.01127,6.81646 l 120.19413,-68.82006 c 5.8712,-3.75145 7.00146,-9.87874 7.00146,-16.07575"
         id="path512" />
      <line
         style="fill:none;stroke:#e2001a;stroke-width:3.46549"
         i:knockout="Off"
         x1="586.89319"
         y1="855.14056"
         x2="586.89319"
         y2="888.2467"
         id="line519" />
      <line
         style="fill:none;stroke:#e2001a;stroke-width:3.46549"
         i:knockout="Off"
         x1="350.45749"
         y1="870.07941"
         x2="350.45749"
         y2="903.18689"
         id="line521" />
      <path
         style="fill:none;stroke:#e2001a;stroke-width:3.46549"
         inkscape:connector-curvature="0"
         i:knockout="Off"
         d="m 576.86022,881.49732 0.0845,-16.5705 c -0.16223,-12.8834 -10.76231,-14.67734 -10.60008,-3.09985 v 13.29636"
         id="path523" />
      <path
         style="fill:none;stroke:#e2001a;stroke-width:3.46549"
         inkscape:connector-curvature="0"
         i:knockout="Off"
         d="m 557.03569,869.65838 0.0845,-16.5705 c -0.16223,-12.8834 -10.76231,-14.67734 -10.60008,-3.09985 v 13.29636"
         id="path525" />
      <path
         style="fill:none;stroke:#e2001a;stroke-width:3.46549"
         inkscape:connector-curvature="0"
         i:knockout="Off"
         d="m 536.44021,856.34861 0.0845,-16.57049 c -0.16224,-12.88341 -10.76232,-14.67735 -10.60008,-3.09986 v 13.29636"
         id="path527" />
      <path
         style="fill:none;stroke:#e2001a;stroke-width:3.46549"
         inkscape:connector-curvature="0"
         i:knockout="Off"
         d="m 516.24831,844.01895 0.0845,-16.5705 c -0.16223,-12.8834 -10.76231,-14.67735 -10.60008,-3.09985 v 13.29636"
         id="path529" />
      <path
         style="fill:none;stroke:#e2001a;stroke-width:3.46549"
         inkscape:connector-curvature="0"
         i:knockout="Off"
         d="m 497.19471,831.76034 0.0845,-16.5705 C 497.11694,802.30644 486.51687,800.5125 486.6791,812.09 v 13.29636"
         id="path531" />
      <path
         style="fill:none;stroke:#e2001a;stroke-width:3.46549"
         inkscape:connector-curvature="0"
         i:knockout="Off"
         d="m 450.61925,965.59139 0.0845,-16.57052 c -0.16223,-12.8834 -10.76231,-14.67734 -10.60008,-3.0985 v 13.295"
         id="path533" />
      <path
         style="fill:none;stroke:#e2001a;stroke-width:3.46549"
         inkscape:connector-curvature="0"
         i:knockout="Off"
         d="m 430.79472,953.75109 0.0845,-16.56916 c -0.16223,-12.8834 -10.76231,-14.67735 -10.60008,-3.09985 v 13.29636"
         id="path535" />
      <path
         style="fill:none;stroke:#e2001a;stroke-width:3.46549"
         inkscape:connector-curvature="0"
         i:knockout="Off"
         d="m 410.19925,940.44267 0.0845,-16.56917 c -0.16223,-12.8834 -10.76231,-14.67734 -10.60008,-3.10118 v 13.2977"
         id="path537" />
      <path
         style="fill:none;stroke:#e2001a;stroke-width:3.46549"
         inkscape:connector-curvature="0"
         i:knockout="Off"
         d="m 390.00734,928.113 0.0845,-16.56915 c -0.16224,-12.88341 -10.76231,-14.67735 -10.60008,-3.10119 v 13.29769"
         id="path539" />
      <path
         style="fill:none;stroke:#e2001a;stroke-width:3.46549"
         inkscape:connector-curvature="0"
         i:knockout="Off"
         d="m 370.95374,915.8544 0.0845,-16.5705 c -0.16223,-12.8834 -10.76231,-14.67734 -10.60008,-3.09851 v 13.29501"
         id="path541" />
    </g>
    <path
       style="fill:none;stroke:#ffcc00;stroke-width:3.18898;stroke-linecap:round;stroke-linejoin:round;stroke-miterlimit:4;stroke-dasharray:none;stroke-opacity:1"
       inkscape:connector-curvature="0"
       i:knockout="Off"
       d="m 39.476928,955.67281 c 0,8.00838 3.952572,9.72054 12.150003,5.39925 L 168.25998,894.13442 c 7.5981,-3.68709 13.07245,3.4632 6.70381,6.92773 L 60.104581,966.20183 c -7.321912,3.40822 -0.07643,10.12545 7.262917,6.8151 L 187.36586,905.19707 c 5.47434,-3.4632 13.29636,1.89986 5.92216,6.70382 L 80.21738,976.25756 c -7.14627,4.812 0.89026,12.19022 7.15029,7.70939 l 118.0985,-68.26768 c 6.59254,-3.79838 14.07803,2.34634 7.03901,6.81511 L 98.875439,987.31886 c -7.62626,4.94741 -0.9077,11.00767 7.485491,6.36863 l 118.21113,-67.0382 c 6.8151,-4.58139 13.74283,2.45763 8.37977,5.80953 l -115.41698,65.80871 c -7.84212,4.27437 0.19308,10.46737 7.03902,7.03897 l 119.2167,-67.93244 c 7.59811,-4.80396 13.63154,2.12244 6.59254,6.70382 l -114.85923,65.36222 c -6.59789,4.2985 1.17451,10.0946 9.05016,6.4799 L 261.7796,948.54664 c 5.7854,-4.41915 8.89329,-10.84677 8.93887,-18.21159"
       id="path490" />
    <line
       style="fill:none;stroke:#e2001a;stroke-width:3.18898;stroke-linecap:round;stroke-linejoin:round;stroke-miterlimit:4;stroke-dasharray:none"
       i:knockout="Off"
       x1="39.139904"
       y1="917.02173"
       x2="39.139904"
       y2="953.96112"
       id="line515" />
  </g>
</svg>
