<?xml version="1.0" encoding="UTF-8"?>
<svg width="48" height="48" version="1.1" viewBox="0 0 12.7 12.7" xml:space="preserve" xmlns="http://www.w3.org/2000/svg" xmlns:xlink="http://www.w3.org/1999/xlink"><g fill="none"><g transform="matrix(1.257 0 0 1.257 -28.548 23.537)" stroke-linecap="round" stroke-linejoin="round" stroke-width=".4"><g transform="rotate(180 22.735 -10.53)"><g stroke="#0000ff"><path d="m14.663-7.1266 2.0836-2.1828h4.068l-2.1663 2.1663z"/><path d="m14.492-7.957 2.0836-2.1828h4.068l-2.1663 2.1663z"/><path d="m15.619-7.0462v-0.8419"/><path d="m19.932-8.4964v-0.8419"/></g><path d="m14.384-7.8613v-1.9002" stroke="#fe0200"/><path d="m16.676-10.083v-0.8419" stroke="#fe0200"/></g><g><g stroke="#ffff00"><path d="m24.717-12.418 2.0836-2.1828h4.068l-2.1663 2.1663z"/><path d="m24.546-13.249 2.0836-2.1828h4.068l-2.1663 2.1663z"/><path d="m25.527-12.326v-0.8419"/></g><g><path d="m24.464-13.17v-1.9002" stroke="#fe0200"/><path d="m26.505-15.298v-1.9002" stroke="#fe0200"/><path d="m30.244-13.87v-0.8419" stroke="#ffff00"/></g></g></g><rect x=".58861" y=".64839" width="11.554" height="11.421" stroke="#000000" stroke-linecap="square" stroke-width=".001"/></g></svg>
