<?xml version="1.0" encoding="UTF-8"?>
<svg xmlns="http://www.w3.org/2000/svg" width="150mm" height="50mm" version="1.1">
 <title>Abbildung für OPEN MIND Softwaredokumentation</title>
 <rect x="46.975" y="8.4472" width="380.45" height="138.88" fill="#13476a"/>
 <g stroke-linecap="round" stroke-linejoin="round" stroke-width="1.6036">
  <rect x="264.26" y="27.809" width="140.33" height="103.3" fill="#537892" stroke="#800080" stroke-miterlimit="7"/>
  <path d="m253.27 33.406h156.26c7.6571 0 8.7186 18.226 0 18.226l-151.13-0.25997c-7.6589 0-7.6589 18.947 0.73786 18.947h150.39c8.4021 0 9.3878 17.97 0 17.97h-151.87c-8.1526 0-7.1616 18.294 0 18.294h151.87c7.413 0 6.3369 17.5 0 17.639l-160 0.32868" fill="none" stroke="#d4aa00" stroke-miterlimit="10"/>
  <rect x="70.812" y="27.809" width="140.33" height="103.3" fill="#537892" stroke="#800080" stroke-miterlimit="7"/>
  <path d="m70.353 33.406h140.65v18.226l-140.65-0.25997v18.947h140.65v17.97h-140.65v18.294h140.65v17.639l-140.65 0.32868" fill="none" stroke="#d4aa00" stroke-miterlimit="10"/>
 </g>
 <g fill="#ffcc00" stroke="#d4aa00" stroke-linecap="square" stroke-miterlimit="10" stroke-width=".31633">
  <polyline transform="matrix(-1.6266 0 0 1.6229 294.05 56.423)" points="87.23 41.839 91.62 46.442 91.62 43.445 100.64 43.445 100.64 40.234 91.62 40.234 91.62 37.344 87.23 41.839"/>
  <polyline transform="matrix(1.6266 0 0 1.6229 -11.549 38.623)" points="87.23 41.839 91.62 46.442 91.62 43.445 100.64 43.445 100.64 40.234 91.62 40.234 91.62 37.344 87.23 41.839"/>
  <polyline transform="matrix(-1.6266 0 0 1.6229 294.05 20.174)" points="87.23 41.839 91.62 46.442 91.62 43.445 100.64 43.445 100.64 40.234 91.62 40.234 91.62 37.344 87.23 41.839"/>
  <polyline transform="matrix(1.6266 0 0 1.6229 -11.549 2.2173)" points="87.23 41.839 91.62 46.442 91.62 43.445 100.64 43.445 100.64 40.234 91.62 40.234 91.62 37.344 87.23 41.839"/>
  <polyline transform="matrix(-1.6266 0 0 1.6229 294.05 -16.557)" points="87.23 41.839 91.62 46.442 91.62 43.445 100.64 43.445 100.64 40.234 91.62 40.234 91.62 37.344 87.23 41.839"/>
  <polyline transform="matrix(1.6266 0 0 1.6229 -11.549 -34.513)" points="87.23 41.839 91.62 46.442 91.62 43.445 100.64 43.445 100.64 40.234 91.62 40.234 91.62 37.344 87.23 41.839"/>
  <polyline transform="matrix(-1.6266 0 0 1.6229 492.83 56.334)" points="87.23 41.839 91.62 46.442 91.62 43.445 100.64 43.445 100.64 40.234 91.62 40.234 91.62 37.344 87.23 41.839"/>
  <polyline transform="matrix(1.6266 0 0 1.6229 187.23 38.69)" points="87.23 41.839 91.62 46.442 91.62 43.445 100.64 43.445 100.64 40.234 91.62 40.234 91.62 37.344 87.23 41.839"/>
  <polyline transform="matrix(-1.6266 0 0 1.6229 492.83 20.297)" points="87.23 41.839 91.62 46.442 91.62 43.445 100.64 43.445 100.64 40.234 91.62 40.234 91.62 37.344 87.23 41.839"/>
  <polyline transform="matrix(1.6266 0 0 1.6229 187.23 2.2844)" points="87.23 41.839 91.62 46.442 91.62 43.445 100.64 43.445 100.64 40.234 91.62 40.234 91.62 37.344 87.23 41.839"/>
  <polyline transform="matrix(-1.6266 0 0 1.6229 492.83 -16.59)" points="87.23 41.839 91.62 46.442 91.62 43.445 100.64 43.445 100.64 40.234 91.62 40.234 91.62 37.344 87.23 41.839"/>
  <polyline transform="matrix(1.6266 0 0 1.6229 187.23 -34.502)" points="87.23 41.839 91.62 46.442 91.62 43.445 100.64 43.445 100.64 40.234 91.62 40.234 91.62 37.344 87.23 41.839"/>
 </g>
 <g transform="translate(185.43 269.38)">
  <ellipse cx="-44.92" cy="-98.798" rx="13.199" ry="13.469" fill="#1f638a" stroke-linecap="round" stroke-linejoin="round" stroke-width="1.0658"/>
  <text x="-50.761276" y="-91.125885" fill="#000000" font-family="'Arial Nova', 'Arial Unicode MS', 'Yu Gothic UI', sans-serif" font-size="12.8px" letter-spacing="0px" stroke-width="1.0667" word-spacing="0px" style="line-height:0%" xml:space="preserve"><tspan x="-50.761276" y="-91.125885" fill="#ffffff" font-family="'Arial Nova', 'Arial Unicode MS', 'Yu Gothic UI', sans-serif" font-size="21.333px" stroke="#ffffff" stroke-width="1.0667" style="line-height:1.25">1</tspan></text>
 </g>
 <g transform="translate(352.34 266.55)">
  <ellipse cx="-13.718" cy="-98.798" rx="13.199" ry="13.469" fill="#1f638a" stroke-linecap="round" stroke-linejoin="round" stroke-width="1.0658"/>
  <text x="-19.559933" y="-91.125885" fill="#000000" font-family="'Arial Nova', 'Arial Unicode MS', 'Yu Gothic UI', sans-serif" font-size="12.8px" letter-spacing="0px" stroke-width="1.0667" word-spacing="0px" style="line-height:0%" xml:space="preserve"><tspan x="-19.559933" y="-91.125885" fill="#ffffff" font-family="'Arial Nova', 'Arial Unicode MS', 'Yu Gothic UI', sans-serif" font-size="21.333px" stroke="#ffffff" stroke-width="1.0667" style="line-height:1.25">2</tspan></text>
 </g>
 <g transform="translate(-24.035 60.087)">
  <line x1="42.331" x2="42.417" y1="108.84" y2="73.244" fill="none" stroke="#e2001a" stroke-linecap="square" stroke-miterlimit="10" stroke-width="1.6261"/>
  <path d="m46.404 77.608v0l-4.2261-15.266-3.9936 15.266z" fill="#e2001a" fill-rule="evenodd" stroke="#e2001a" stroke-linecap="round" stroke-linejoin="round" stroke-width="1.21"/>
  <text x="48.583721" y="73.319725" fill="#000000" font-family="'Arial Nova', 'Arial Unicode MS', 'Yu Gothic UI', sans-serif" font-size="16.145px" letter-spacing="0px" stroke="#7ab51d" stroke-width="1.2917" word-spacing="0px" style="line-height:0%" xml:space="preserve"><tspan x="48.583721" y="73.319725" fill="#e2001a" font-family="'Arial Nova', 'Arial Unicode MS', 'Yu Gothic UI', sans-serif" font-size="16.145px" stroke="#e2001a" stroke-width="1.2917" style="line-height:1.25">X</tspan></text>
  <g transform="rotate(38.512 41.716 109.92)" stroke="#7ab51d" stroke-linecap="round" stroke-linejoin="round">
   <path d="m42.309 109.48 27.689-22.212" fill="none" stroke-width="1.3429"/>
   <path d="m68.095 93.171 7.6619-10.602-11.904 5.3028z" fill="#7ab51d" fill-rule="evenodd" stroke-width=".99921"/>
  </g>
  <text x="86.763054" y="112.43574" fill="#000000" font-family="'Arial Nova', 'Arial Unicode MS', 'Yu Gothic UI', sans-serif" font-size="16.299px" letter-spacing="0px" stroke="#7ab51d" stroke-width="1.304" word-spacing="0px" style="line-height:0%" xml:space="preserve"><tspan x="86.763054" y="112.43574" fill="#7ab51d" font-family="'Arial Nova', 'Arial Unicode MS', 'Yu Gothic UI', sans-serif" font-size="16.299px" stroke="#7ab51d" stroke-width="1.304" style="line-height:1.25">Y</tspan></text>
 </g>
</svg>
