<svg version="1.1" viewBox="0 0 637.8 248.03" xmlns="http://www.w3.org/2000/svg" xmlns:xlink="http://www.w3.org/1999/xlink">
 <defs>
  <linearGradient id="linearGradient17780-7">
   <stop stop-color="#ffffff" offset="0"/>
   <stop stop-color="#00385e" offset="1"/>
  </linearGradient>
  <linearGradient id="linearGradient14769">
   <stop stop-color="#ff8500" offset="0"/>
   <stop stop-color="#ffffff" offset="1"/>
  </linearGradient>
  <linearGradient id="linearGradient5043" x1="5.953" x2="308.69" y1="881.54" y2="880.11" gradientTransform="matrix(.75708 0 0 .75659 -14.375 254.21)" gradientUnits="userSpaceOnUse" xlink:href="#linearGradient17780-7"/>
  <linearGradient id="linearGradient5045" x1="4.3016" x2="156.54" y1="951.08" y2="894.65" gradientTransform="matrix(.75708 0 0 .75659 -14.375 254.21)" gradientUnits="userSpaceOnUse" xlink:href="#linearGradient17780-7"/>
  <linearGradient id="linearGradient5047" x1="97.689" x2="158.22" y1="895.12" y2="895.12" gradientTransform="matrix(.75708 0 0 .75659 -14.375 254.21)" gradientUnits="userSpaceOnUse">
   <stop stop-color="#416b87" offset="0"/>
   <stop stop-color="#f0f3f6" offset="1"/>
  </linearGradient>
  <linearGradient id="linearGradient5049" x1="118.24" x2="832.14" y1="929.58" y2="959.56" gradientTransform="matrix(.75708 0 0 .75659 -14.417 254.2)" gradientUnits="userSpaceOnUse" xlink:href="#linearGradient17780-7"/>
  <linearGradient id="linearGradient5051" x1="283.92" x2="435.02" y1="973.01" y2="935.87" gradientTransform="matrix(.75708 0 0 .75659 -14.375 254.21)" gradientUnits="userSpaceOnUse" xlink:href="#linearGradient17780-7"/>
  <linearGradient id="linearGradient5053" x1="595.24" x2="-367.82" y1="892.12" y2="717.84" gradientTransform="matrix(.75708 0 0 .75659 -14.375 254.21)" gradientUnits="userSpaceOnUse" xlink:href="#linearGradient17780-7"/>
  <linearGradient id="linearGradient5055" x1="-35.564" x2="157.52" y1="858.49" y2="799.21" gradientTransform="matrix(.75708 0 0 .75659 -14.375 254.21)" gradientUnits="userSpaceOnUse" xlink:href="#linearGradient17780-7"/>
  <linearGradient id="linearGradient5057" x1="154.39" x2="111.23" y1="815.81" y2="813.67" gradientTransform="matrix(.75708 0 0 .75659 -14.375 254.21)" gradientUnits="userSpaceOnUse">
   <stop stop-color="#ffffff" offset="0"/>
   <stop stop-color="#416b87" offset="1"/>
  </linearGradient>
  <linearGradient id="linearGradient5059" x1="141.32" x2="366.05" y1="813.52" y2="913.52" gradientTransform="matrix(.75708 0 0 .75659 -14.375 254.21)" gradientUnits="userSpaceOnUse">
   <stop stop-color="#ebeff2" offset="0"/>
   <stop stop-color="#a8bbc8" offset="1"/>
  </linearGradient>
  <linearGradient id="linearGradient3446" x1="5.953" x2="308.69" y1="881.54" y2="880.11" gradientTransform="matrix(.51651 0 0 .5159 -.77016 708.54)" gradientUnits="userSpaceOnUse" xlink:href="#linearGradient17780-7"/>
  <linearGradient id="linearGradient3448" x1="4.3016" x2="156.54" y1="951.08" y2="894.65" gradientTransform="matrix(.51651 0 0 .5159 -.77016 708.54)" gradientUnits="userSpaceOnUse" xlink:href="#linearGradient17780-7"/>
  <linearGradient id="linearGradient3450" x1="97.689" x2="158.22" y1="895.12" y2="895.12" gradientTransform="matrix(.51651 0 0 .5159 -.77016 708.54)" gradientUnits="userSpaceOnUse">
   <stop stop-color="#416b87" offset="0"/>
   <stop stop-color="#f0f3f6" offset="1"/>
  </linearGradient>
  <linearGradient id="linearGradient3452" x1="118.24" x2="832.14" y1="929.58" y2="959.56" gradientTransform="matrix(.51651 0 0 .5159 -.77016 708.54)" gradientUnits="userSpaceOnUse" xlink:href="#linearGradient17780-7"/>
  <linearGradient id="linearGradient3454" x1="283.92" x2="435.02" y1="973.01" y2="935.87" gradientTransform="matrix(.51651 0 0 .5159 -.77016 708.54)" gradientUnits="userSpaceOnUse" xlink:href="#linearGradient17780-7"/>
  <linearGradient id="linearGradient3456" x1="595.24" x2="-367.82" y1="892.12" y2="717.84" gradientTransform="matrix(.51651 0 0 .5159 -.77016 708.54)" gradientUnits="userSpaceOnUse" xlink:href="#linearGradient17780-7"/>
  <linearGradient id="linearGradient3458" x1="71.945" x2="333.22" y1="812.91" y2="791.49" gradientTransform="matrix(.51651 0 0 .5159 -.77016 708.54)" gradientUnits="userSpaceOnUse" xlink:href="#linearGradient14769"/>
  <linearGradient id="linearGradient3460" x1="114.97" x2="207.17" y1="822.66" y2="834.38" gradientTransform="matrix(.51651 0 0 .5159 -.78398 708.51)" gradientUnits="userSpaceOnUse">
   <stop stop-color="#ff8500" offset="0"/>
   <stop stop-color="#ffffff" offset="1"/>
  </linearGradient>
  <linearGradient id="linearGradient3462" x1="133.18" x2="571.62" y1="811.56" y2="999.95" gradientTransform="matrix(.51651 0 0 .5159 -.77016 708.54)" gradientUnits="userSpaceOnUse" xlink:href="#linearGradient14769"/>
 </defs>
 <g transform="translate(0 -804.33)">
  <g transform="matrix(.96651 0 0 .96651 -3.0806 44.063)" stroke-linecap="round" stroke-linejoin="round">
   <g stroke="#4d4d4d" stroke-width=".65623">
    <path d="m9.2213 844.05 33.116 13.067-0.19434 29.432-6.6464-2.4843-0.49306 114.23-26.87-9.1264z" fill="url(#linearGradient5043)"/>
    <path d="m35.531 884.04 6.606 2.5077 22.371-3.2097-0.17561 97.055-29.329 17.902z" fill="url(#linearGradient5045)"/>
    <path d="m64.489 883.37c18.719-5.247 29.883-0.99121 40.763 4.3623l-0.35125 90.561c-16.263-4.1284-29.452-2.655-40.572 2.0943z" fill="url(#linearGradient5047)"/>
    <path d="m105.22 887.74 150.09 70.281 4.907-3.0812 0.35087 76.458-155.72-53.115z" fill="url(#linearGradient5049)"/>
    <path d="m255.58 929.15 27.871-20.862-0.29874 111.07-22.537 12.038-0.34956-76.442-4.9172 3.0658z" fill="url(#linearGradient5051)"/>
    <path d="m9.22 844.04 20.846-4.4508c6.8738-1.4622 10.337-2.8324 18.341-7.5374 22.477-14.669 44.665-4.5878 54.081-0.24819 64.283 32.21 120.85 51.312 180.97 76.457l-27.863 20.868-155.47-72.629c-7.7366-4.6778-17.954-4.7888-28.81-3.723l-28.997 4.3436z" fill="url(#linearGradient5053)"/>
    <path d="m42.347 857.13 28.697-4.3069 0.6944 28.916c-2.4848 0.36839-4.8084 0.99716-7.1526 1.5926l-22.449 3.2268z" fill="url(#linearGradient5055)"/>
    <path d="m71.029 852.81c10.841-1.1033 21.006-1.2028 29.05 3.5909l0.15137 28.891c-7.2174-3.04-16.091-5.7028-28.497-3.5704z" fill="url(#linearGradient5057)"/>
    <path d="m100.08 856.49 155.49 72.64-0.21508 28.897-155.16-72.69z" fill="url(#linearGradient5059)"/>
   </g>
   <path d="m42.476 857.05 28.437-4.2752c12.242-1.4966 20.311-1.4387 29.15 3.7161l155.43 72.499" fill="none" stroke="#ff9521" stroke-width="2.9329"/>
   <path d="m35.86 928.01c8.0085-1.7357 18.685-3.4714 29.089-5.2071 10.528-1.9411 26.711-1.9088 40.239 4.4616l154.12 71.753" fill="none" stroke="#ff9521" stroke-dasharray="4.39930473, 4.39930473" stroke-width="2.1997"/>
  </g>
  <g transform="matrix(.87637 0 0 .87637 -94.006 295.52)">
   <path d="m429.12 814.65 3.9286-11.786h-8.2143z" fill="#000000" stroke="#000000" stroke-linecap="round" stroke-linejoin="round" stroke-width=".99921"/>
  </g>
  <path d="m245.34 942.17h36.248" fill="#000000" stroke="#000000" stroke-linecap="round" stroke-linejoin="round" stroke-width=".63425"/>
  <path d="m249.17 1010.2 32.626 0.032" fill="#000000" stroke="#000000" stroke-linecap="round" stroke-linejoin="round" stroke-width=".63425"/>
  <g transform="matrix(-.87637 0 0 -.87637 657.89 1658.6)" fill="#000000" stroke="#000000" stroke-linecap="round" stroke-linejoin="round">
   <path d="m429.01 814.49 0.01-73.221" stroke-width=".63425"/>
   <path d="m429.12 816.38 3.9286-11.786h-8.2143z" stroke-width=".99921"/>
  </g>
  <g transform="matrix(1.4196 0 0 1.4196 306.29 -720.52)" stroke-linecap="round" stroke-linejoin="round">
   <g stroke="#4d4d4d" stroke-width=".39156">
    <path d="m15.328 1110.7 22.593 8.9097-0.13259 20.069-4.5345-1.694-0.33638 77.894-18.332-6.223z" fill="url(#linearGradient3446)"/>
    <path d="m33.277 1138 4.5069 1.7099 15.263-2.1886-0.11981 66.179-20.009 12.207z" fill="url(#linearGradient3448)"/>
    <path d="m53.034 1137.5c12.771-3.5778 20.388-0.6759 27.81 2.9745l-0.23964 61.751c-11.095-2.8151-20.094-1.8104-27.68 1.428z" fill="url(#linearGradient3450)"/>
    <path d="m80.851 1140.5 102.4 47.923 3.3478-2.101 0.23937 52.135-106.24-36.218z" fill="url(#linearGradient3452)"/>
    <path d="m183.41 1168.8 19.015-14.226-0.20381 75.738-15.376 8.208-0.23849-52.123-3.3547 2.0905z" fill="url(#linearGradient3454)"/>
    <path d="m15.327 1110.7 14.222-3.0349c4.6896-0.9971 7.0526-1.9314 12.513-5.1395 15.335-10.002 30.472-3.1283 36.897-0.1693 43.856 21.963 82.449 34.988 123.47 52.134l-19.009 14.229-106.07-49.524c-5.2782-3.1896-12.249-3.2653-19.656-2.5386l-19.783 2.9617z" fill="url(#linearGradient3456)"/>
    <path d="m37.927 1119.7 19.578-2.9367 0.47375 19.717c-1.6953 0.2512-3.2805 0.6799-4.8798 1.086l-15.316 2.2002z" fill="url(#linearGradient3458)"/>
    <path d="m57.482 1116.7c7.396-0.7522 14.331-0.8201 19.819 2.4486l0.10327 19.7c-4.924-2.0729-10.978-3.8886-19.442-2.4346z" fill="url(#linearGradient3460)"/>
    <path d="m77.313 1119.2 106.08 49.531-0.14675 19.704-105.86-49.565z" fill="url(#linearGradient3462)"/>
   </g>
   <path d="m33.502 1172c5.4637-1.1835 12.747-2.367 19.846-3.5506 7.1825-1.3236 18.223-1.3015 27.453 3.0423l105.15 48.927" fill-opacity="0" stroke="#ff9521" stroke-dasharray="2.99528389, 2.99528389" stroke-width="1.4976"/>
  </g>
  <g fill="#000000" stroke="#000000" stroke-linecap="round" stroke-linejoin="round">
   <path d="m566.75 966.55h38.248" stroke-width=".63425"/>
   <path d="m571.82 1012.7 33.676 0.045" stroke-width=".63425"/>
   <path d="m605.42 968.32-9e-3 42.169" stroke-width=".55584"/>
   <path d="m605.23 967.47-3.4429 10.329h7.1988z" stroke-width=".87568"/>
  </g>
  <g transform="matrix(.87637 0 0 .87637 229.42 297.8)">
   <path d="m429.12 814.65 3.9286-11.786h-8.2143z" fill="#000000" stroke="#000000" stroke-linecap="round" stroke-linejoin="round" stroke-width=".99921"/>
  </g>
  <g transform="translate(314.87 1072.8)">
   <ellipse cx="-13.718" cy="-98.798" rx="13.199" ry="13.469" d="m -0.51893806,-98.79776 c 0,7.438558 -5.90954024,13.4687 -13.19932794,13.4687 -7.289787,0 -13.199327,-6.030142 -13.199327,-13.4687 0,-7.43856 5.90954,-13.4687 13.199327,-13.4687 7.2897877,0 13.19932794,6.03014 13.19932794,13.4687 z" fill="#1f638a" stroke-linecap="round" stroke-linejoin="round" stroke-width="1.0658"/>
   <text x="-19.559933" y="-91.125885" fill="#000000" letter-spacing="0px" word-spacing="0px" style="line-height:0%" xml:space="preserve"><tspan x="-19.559933" y="-91.125885" fill="#ffffff" font-family="'Arial Nova', 'Arial Unicode MS', 'Yu Gothic UI', sans-serif" font-size="20px" stroke="#ffffff" stroke-width="1.0667" style="line-height:1.25">2</tspan></text>
  </g>
  <g transform="translate(199.82 879.8)">
   <ellipse cx="-36.9" cy="-49.598" rx="13.199" ry="13.469" d="m -23.700773,-49.59763 c 0,7.438558 -5.90954,13.468701 -13.199328,13.468701 -7.289787,0 -13.199327,-6.030143 -13.199327,-13.468701 0,-7.438557 5.90954,-13.4687 13.199327,-13.4687 7.289788,0 13.199328,6.030143 13.199328,13.4687 z" fill="#1f638a" stroke-linecap="round" stroke-linejoin="round" stroke-width="1.0658"/>
   <text x="-44.014687" y="-41.962215" fill="#000000" letter-spacing="0px" word-spacing="0px" style="line-height:0%" xml:space="preserve"><tspan x="-44.014687" y="-41.962215" fill="#ffffff" font-family="'Arial Nova', 'Arial Unicode MS', 'Yu Gothic UI', sans-serif" font-size="20px" stroke="#ffffff" stroke-width="1.0667" style="line-height:1.25">A</tspan></text>
  </g>
  <g transform="translate(529.09 850.36)">
   <ellipse cx="-36.668" cy="-19.66" rx="13.199" ry="13.469" d="m -23.468687,-19.659805 c 0,7.438558 -5.90954,13.4687001 -13.199328,13.4687001 -7.289787,0 -13.199327,-6.0301421 -13.199327,-13.4687001 0,-7.438558 5.90954,-13.468701 13.199327,-13.468701 7.289788,0 13.199328,6.030143 13.199328,13.468701 z" fill="#1f638a" stroke-linecap="round" stroke-linejoin="round" stroke-width="1.0658"/>
   <text x="-43.09388" y="-12.024389" fill="#000000" letter-spacing="0px" word-spacing="0px" style="line-height:0%" xml:space="preserve"><tspan x="-43.09388" y="-12.024389" fill="#ffffff" font-family="'Arial Nova', 'Arial Unicode MS', 'Yu Gothic UI', sans-serif" font-size="20px" stroke="#ffffff" stroke-width="1.0667" style="line-height:1.25">B</tspan></text>
  </g>
  <g transform="translate(637.7 1084)">
   <ellipse cx="-13.718" cy="-98.798" rx="13.199" ry="13.469" d="m -0.51893806,-98.79776 c 0,7.438558 -5.90954024,13.4687 -13.19932794,13.4687 -7.289787,0 -13.199327,-6.030142 -13.199327,-13.4687 0,-7.43856 5.90954,-13.4687 13.199327,-13.4687 7.2897877,0 13.19932794,6.03014 13.19932794,13.4687 z" fill="#1f638a" stroke-linecap="round" stroke-linejoin="round" stroke-width="1.0658"/>
   <text x="-19.559933" y="-91.125885" fill="#000000" letter-spacing="0px" word-spacing="0px" style="line-height:0%" xml:space="preserve"><tspan x="-19.559933" y="-91.125885" fill="#ffffff" font-family="'Arial Nova', 'Arial Unicode MS', 'Yu Gothic UI', sans-serif" font-size="20px" stroke="#ffffff" stroke-width="1.0667" style="line-height:1.25">2</tspan></text>
  </g>
  <path d="m169.09 905.47 41.786-22.5" fill="none" stroke="#000000" stroke-width="1px"/>
  <g transform="translate(264.91 977.66)">
   <ellipse cx="-44.92" cy="-98.798" rx="13.199" ry="13.469" fill="#1f638a" stroke-linecap="round" stroke-linejoin="round" stroke-width="1.0658"/>
   <text x="-50.761276" y="-91.125885" fill="#000000" letter-spacing="0px" word-spacing="0px" style="line-height:0%" xml:space="preserve"><tspan x="-50.761276" y="-91.125885" fill="#ffffff" font-family="'Arial Nova', 'Arial Unicode MS', 'Yu Gothic UI', sans-serif" font-size="20px" stroke="#ffffff" stroke-width="1.0667" style="line-height:1.25">1</tspan></text>
  </g>
  <path d="m508.5 910.01 41.786-22.5" fill="none" stroke="#000000" stroke-width="1px"/>
  <g transform="translate(543.37 980.88)">
   <ellipse cx="17.483" cy="-98.798" rx="13.199" ry="13.469" fill="#1f638a" stroke-linecap="round" stroke-linejoin="round" stroke-width="1.0658"/>
   <text x="11.641406" y="-91.256096" fill="#000000" font-family="'Arial Nova', 'Arial Unicode MS', 'Yu Gothic UI', sans-serif" letter-spacing="0px" word-spacing="0px" style="line-height:0%" xml:space="preserve"><tspan x="11.641406" y="-91.256096" fill="#ffffff" font-family="'Arial Nova', 'Arial Unicode MS', 'Yu Gothic UI', sans-serif" font-size="20px" stroke="#ffffff" stroke-width="1.0667" style="line-height:1.25">3</tspan></text>
  </g>
 </g>
</svg>
