<?xml version="1.0" encoding="UTF-8"?>
<svg width="13cm" height="7cm" version="1.1" xmlns="http://www.w3.org/2000/svg" xmlns:cc="http://creativecommons.org/ns#" xmlns:dc="http://purl.org/dc/elements/1.1/" xmlns:rdf="http://www.w3.org/1999/02/22-rdf-syntax-ns#">
 <metadata>
  <rdf:RDF>
   <cc:Work rdf:about="">
    <dc:format>image/svg+xml</dc:format>
    <dc:type rdf:resource="http://purl.org/dc/dcmitype/StillImage"/>
    <dc:title/>
   </cc:Work>
  </rdf:RDF>
 </metadata>
 <g transform="translate(0 -857.95)">
  <g clip-rule="evenodd" fill="none" stroke-linecap="round" stroke-linejoin="round" stroke-width="3.0236">
   <path d="m141.74 1079.7h-78.832c-19.83-0.3667-26.179-23.969-6.2053-32.32 37.579-11.568 43.695-64.423 0.02592-80.017-18.171-6.4162-13.032-34.502 6.0504-34.888h125.07v96.066l-46.111 51.159" stroke="#800080"/>
   <path d="m101.15 914.43 104.16-0.20809v120.34l-58.964 64.082h-0.18831l-92.939-0.2905c-12.35-0.223-24.505-11.565-28.12-24.641-3.808-13.772 1.5324-29.41 12.916-33.612 30.916-11.412 45.924-38.824 11.359-59.613" stroke="#b3b3b3"/>
   <path d="m63.108 992.09c0.35733-1.2242-10.031-11.545-27.152-18.22-23.236-8.0534-15.508-61.415 12.465-61.111l27.527-0.44177" stroke="#d4aa00"/>
  </g>
  <circle cx="101.85" cy="933.24" r="5.2295" fill="#800080" stroke="#800080" stroke-linecap="square" stroke-miterlimit="10" stroke-width=".35936"/>
  <circle cx="86.472" cy="1010.4" r="5.2295" fill="#800080" stroke="#800080" stroke-linecap="square" stroke-miterlimit="10" stroke-width=".35936"/>
  <g fill="#b3b3b3">
   <polyline transform="matrix(2.3131 -.021046 -.017864 -1.9661 -380.37 985.19)" points="238.65 33.819 234.07 29.017 234.07 32.144 226.45 32.144 226.45 35.493 234.07 35.493 234.07 38.508 238.65 33.819" stroke="#000" stroke-linecap="square" stroke-miterlimit="10" stroke-width=".31723"/>
   <ellipse cx="103.29" cy="911.97" rx="15.725" ry="15.722" color="#000000" fill-rule="evenodd" stroke="#333" stroke-linecap="round" stroke-linejoin="round" stroke-width="1.1456"/>
   <polyline transform="matrix(.021046 2.3131 1.9661 -.017864 134.48 444.04)" points="238.65 33.819 234.07 29.017 234.07 32.144 226.45 32.144 226.45 35.493 234.07 35.493 234.07 38.508 238.65 33.819" stroke="#000" stroke-linecap="square" stroke-miterlimit="10" stroke-width=".31723"/>
   <polyline transform="matrix(-1.5621 1.706 1.4501 1.3278 480.56 635.5)" points="238.65 33.819 234.07 29.017 234.07 32.144 226.45 32.144 226.45 35.493 234.07 35.493 234.07 38.508 238.65 33.819" stroke="#000" stroke-linecap="square" stroke-miterlimit="10" stroke-width=".31723"/>
  </g>
  <polyline transform="matrix(-2.046 .0063129 .0062984 2.0413 262.65 826.07)" points="87.23 41.839 91.62 46.442 91.62 43.445 100.64 43.445 100.64 40.234 91.62 40.234 91.62 37.344 87.23 41.839" fill="#d4aa00" stroke="#000" stroke-linecap="square" stroke-miterlimit="10" stroke-width=".33104"/>
  <ellipse cx="64.16" cy="1008.7" rx="15.725" ry="15.722" color="#000000" fill="#b3b3b3" fill-rule="evenodd" stroke="#333" stroke-linecap="round" stroke-linejoin="round" stroke-width="1.1456"/>
  <g transform="translate(154.93 1109.6)">
   <ellipse cx="-44.92" cy="-98.798" rx="13.199" ry="13.469" fill="#1f638a" stroke-linecap="round" stroke-linejoin="round" stroke-width="1.0658"/>
   <text x="-50.761276" y="-91.125885" fill="#000000" font-family="'Arial Nova', 'Arial Unicode MS', 'Yu Gothic UI', sans-serif" font-size="12.8px" letter-spacing="0px" stroke-width="1.0667" word-spacing="0px" style="line-height:0%" xml:space="preserve"><tspan x="-50.761276" y="-91.125885" fill="#ffffff" font-family="'Arial Nova', 'Arial Unicode MS', 'Yu Gothic UI', sans-serif" font-size="21.333px" stroke="#ffffff" stroke-width="1.0667" style="line-height:1.25">1</tspan></text>
  </g>
  <g transform="translate(130.85 1052.5)">
   <ellipse cx="-13.718" cy="-98.798" rx="13.199" ry="13.469" fill="#1f638a" stroke-linecap="round" stroke-linejoin="round" stroke-width="1.0658"/>
   <text x="-19.559933" y="-91.125885" fill="#000000" font-family="'Arial Nova', 'Arial Unicode MS', 'Yu Gothic UI', sans-serif" font-size="12.8px" letter-spacing="0px" stroke-width="1.0667" word-spacing="0px" style="line-height:0%" xml:space="preserve"><tspan x="-19.559933" y="-91.125885" fill="#ffffff" font-family="'Arial Nova', 'Arial Unicode MS', 'Yu Gothic UI', sans-serif" font-size="21.333px" stroke="#ffffff" stroke-width="1.0667" style="line-height:1.25">2</tspan></text>
  </g>
 </g>
</svg>
