<svg version="1.1" viewBox="0 0 496.06 283.46" xmlns="http://www.w3.org/2000/svg" xmlns:xlink="http://www.w3.org/1999/xlink">
 <title>Abbildung für OPEN MIND Softwaredokumentation</title>
 <defs>
  <linearGradient id="linearGradient39774" x1="-28.522" x2="317.44" y1="53.344" y2="215.13" gradientTransform="matrix(1.7451 0 0 1.7451 256.87 782.79)" gradientUnits="userSpaceOnUse" xlink:href="#linearGradient17780-7"/>
  <linearGradient id="linearGradient40418" x1="-33.668" x2="327.99" y1="65.388" y2="198.56" gradientTransform="matrix(1.7164 0 0 1.7164 17.245 795.59)" gradientUnits="userSpaceOnUse" xlink:href="#linearGradient17780-7"/>
  <linearGradient id="linearGradient17780-7">
   <stop stop-color="#ffffff" offset="0"/>
   <stop stop-color="#00385e" offset="1"/>
  </linearGradient>
  <linearGradient id="linearGradient43555" x1="17.294" x2="525.61" y1="958.43" y2="1225.1" gradientUnits="userSpaceOnUse" xlink:href="#linearGradient17780-7"/>
  <linearGradient id="linearGradient43563" x1="257.08" x2="741.72" y1="930.36" y2="1158.1" gradientUnits="userSpaceOnUse" xlink:href="#linearGradient17780-7"/>
  <linearGradient id="linearGradient43676" x1="529.15" x2="568.81" y1="788.89" y2="797.79" gradientTransform="matrix(.81527 -.68371 .68371 .81527 -860.41 592.44)" gradientUnits="userSpaceOnUse">
   <stop stop-color="#FFFFFF" offset="0"/>
   <stop stop-color="#FCFCFC" offset=".2264"/>
   <stop stop-color="#F4F4F4" offset=".3626"/>
   <stop stop-color="#E6E6E6" offset=".475"/>
   <stop stop-color="#D1D1D1" offset=".5744"/>
   <stop stop-color="#B7B7B7" offset=".6652"/>
   <stop stop-color="#979797" offset=".7498"/>
   <stop stop-color="#707070" offset=".8297"/>
   <stop stop-color="#444444" offset=".9057"/>
   <stop stop-color="#121212" offset=".9761"/>
   <stop stop-color="#000000" stop-opacity="0" offset="1"/>
  </linearGradient>
  <linearGradient id="linearGradient43679" x1="260.26" x2="272.44" y1="835.21" y2="835.21" gradientTransform="matrix(.54371 -.45632 .45632 .54371 -383.24 572.86)" gradientUnits="userSpaceOnUse">
   <stop stop-color="#FFFFFF" offset="0"/>
   <stop stop-color="#FCFCFC" offset=".2264"/>
   <stop stop-color="#F4F4F4" offset=".3626"/>
   <stop stop-color="#E6E6E6" offset=".475"/>
   <stop stop-color="#D1D1D1" offset=".5744"/>
   <stop stop-color="#B7B7B7" offset=".6652"/>
   <stop stop-color="#979797" offset=".7498"/>
   <stop stop-color="#707070" offset=".8297"/>
   <stop stop-color="#444444" offset=".9057"/>
   <stop stop-color="#121212" offset=".9761"/>
   <stop stop-color="#000000" offset="1"/>
  </linearGradient>
 </defs>
 <g transform="translate(0 -768.9)">
  <path d="m199.42 876.19h-18.58c-6.6236 0-9.5706 4.2841-9.3784 10.604l-1.3731 39.474c-0.78267 6.2889-5.2007 7.6362-11.694 8.9733-38.447 7.9091-51.693 5.8872-91.098 0.7861-7.2535-0.93886-10.573-2.8183-11.69-8.836l-1.8674-41.132c-0.20082-5.822-2.7771-10.051-9.5157-10.051h-17.356l-9.1982 26.487 10.302 83.516 103.2 7.9091 66.225-1.471 34.584-90.14-32.56-26.12z" clip-rule="evenodd" fill="url(#linearGradient40418)" fill-rule="evenodd"/>
  <g fill="none" stroke="#ffffff" stroke-linecap="square" stroke-miterlimit="10" stroke-width=".4291">
   <line x1="45.657" x2="40.899" y1="876.12" y2="901.67"/>
   <line x1="50.415" x2="53.35" y1="912.28" y2="883.47"/>
   <line x1="55.717" x2="53.405" y1="928.05" y2="966.52"/>
   <line x1="61.425" x2="62.105" y1="974.54" y2="934.44"/>
   <line x1="112.27" x2="124.09" y1="940.14" y2="981.61"/>
   <line x1="188.39" x2="163.34" y1="974.54" y2="934.07"/>
   <line x1="169.9" x2="196.28" y1="928.05" y2="966.52"/>
   <line x1="199.05" x2="171.63" y1="911.98" y2="883.8"/>
  </g>
  <g transform="translate(112.13 74.692)" opacity=".495">
   <g transform="translate(-104.98 -119.22)">
    <path d="m176.58 970.59c3.5618 4.2437 9.8898 4.7962 14.134 1.2346 4.2437-3.5618 4.7884-9.8822 1.2267-14.126l-47.324-56.645c-0.14807-0.13922-15.706 13.736-15.706 13.736-0.0145 0.0952 23.362 27.093 47.669 55.801z" color="#000000" fill="url(#linearGradient43679)" stroke="#333333" stroke-linecap="round" stroke-linejoin="round" stroke-width=".47194"/>
    <path d="m65.483 880.09c0.15642 0.2478 53.794-46.477 53.76-46.327l20.402 42.393 5.0394 24.748-15.179 13.103-24.673-7.0949-39.402-26.953" fill="url(#linearGradient43676)" stroke-miterlimit="10"/>
    <path d="m81.585 841.18 109.63 130.77" fill="none" stroke="#000000" stroke-dasharray="2.00078312, 1.00039157, 0.50019578, 1.00039157" stroke-linecap="round" stroke-linejoin="round" stroke-miterlimit="10" stroke-width=".5002"/>
   </g>
   <g>
    <path d="m-40.012 761.08 39.406 27.244 24.399 7.262 15.819-13.706-4.9302-25.114-20.387-42.087" fill="none" stroke="#4d4d4d" stroke-linecap="round" stroke-linejoin="round" stroke-width=".47194"/>
   </g>
  </g>
  <g fill="none" stroke="#ffffff" stroke-linecap="square" stroke-miterlimit="10" stroke-width=".4291">
   <line x1="179.96" x2="208.78" y1="876.12" y2="901.67"/>
   <path d="m218.71 891.07h-21.072l-2.3103 0.27119-1.9018 0.5441-1.6306 0.95088-1.2255 1.2238-0.81529 1.495-0.5441 1.6306-0.40507 1.9035v2.0391l-2.1764 50.299c-0.82216 5.3534-4.418 7.4972-9.7886 8.8343-36.578 9.1158-78.748 9.5346-115.27-1.9018-4.3459-1.023-6.651-4.2464-6.6613-8.836l-3.5341-48.256c-0.43596-5.1217-3.4397-8.6901-8.4292-10.06h-20.12"/>
   <path d="m208.37 882.91h-19.711c-5.9645 0.46342-9.0969 4.0524-8.9716 10.058l-2.5849 46.219c-1.3817 6.409-5.6864 7.9744-13.051 9.653-33.144 7.5521-69.263 6.5326-101.82-3.3967-4.8625-1.483-7.1608-3.6388-7.4766-8.2936l-2.0391-45.404c-0.44798-4.7939-3.3676-7.9143-8.1563-8.8343h-19.709"/>
   <line x1="128.85" x2="145.84" y1="940.01" y2="981.61"/>
   <line x1="147.64" x2="168.27" y1="937.5" y2="979.57"/>
   <line x1="96.244" x2="100.4" y1="939.48" y2="980.72"/>
   <line x1="77.885" x2="77.968" y1="937.45" y2="977.64"/>
   <line x1="198.18" x2="170.86" y1="938.65" y2="904.8"/>
   <line x1="52.045" x2="54.764" y1="937.29" y2="911.46"/>
  </g>
  <g clip-rule="evenodd">
   <path d="m232.16 902.08h-23.381c-6.4159 0.0446-9.5706 4.2841-9.3784 10.604l-3.1273 54.24c-0.78268 6.2889-5.223 7.5332-11.694 8.9733-39.13 8.7038-79.562 7.5487-119.49-0.1356-7.1831-1.3834-10.573-2.8183-11.69-8.836l-2.99-54.24c-0.18194-5.0393-3.8619-10.558-9.5157-10.604h-23.245" fill="none" stroke="#ffffff" stroke-width="1.2873"/>
   <path d="m199.42 876.19h-18.58c-6.6236 0-9.5706 4.2841-9.3784 10.604l-1.3731 39.474c-0.78267 6.2889-5.2007 7.6362-11.694 8.9733-38.447 7.9091-51.693 5.8872-91.098 0.7861-7.2535-0.93886-10.573-2.8183-11.69-8.836l-1.8674-41.132c-0.20082-5.822-2.7771-10.051-9.5157-10.051h-17.356l-9.1982 26.487 10.302 83.516 103.2 7.9091 66.225-1.471 34.584-90.14-32.56-26.12z" fill="none" stroke="#4d4d4d" stroke-width=".4291"/>
   <path d="m232.16 902.08h-23.381c-6.4159 0.0446-9.5706 4.2841-9.3784 10.604l-3.1273 54.24c-0.78268 6.2889-5.223 7.5332-11.694 8.9733-39.13 8.7038-79.562 7.5487-119.49-0.1356-7.1831-1.3834-10.573-2.8183-11.69-8.836l-2.99-54.24c-0.18194-5.0393-3.8619-10.558-9.5157-10.604h-23.245l-0.04291 111.65 214.74 1.0453-0.18881-112.7" fill="url(#linearGradient43555)" fill-rule="evenodd" stroke="#4d4d4d" stroke-width=".63425"/>
  </g>
  <polygon transform="matrix(1.7164 0 0 1.7164 17.245 795.59)" points="64.311 102.36 79.754 139.26 80.784 138.87 80.784 138.87 81.813 138.47 66.369 101.56" fill="#7ab51d" stroke="#7ab51d" stroke-linecap="round" stroke-linejoin="round" stroke-width="1.0322"/>
  <path d="m442.03 823.08h-18.889c-6.7342 0-9.7305 4.3557-9.5351 10.781l-0.99295 105.97c-0.79575 6.394-5.2876 7.7638-11.889 9.1232-39.09 8.0413-52.556 5.9856-92.62 0.79925-7.3747-0.95456-9.3763-2.7537-10.512-8.8737l-1.9039-107.22c-0.20417-5.9193-2.8235-10.219-9.6747-10.219h-17.648l-10.5 15.678 9.5159 164.87 104.92 8.0413 67.332-1.4955 36.247-170.76-33.854-16.695z" clip-rule="evenodd" fill="url(#linearGradient39774)" fill-rule="evenodd"/>
  <path d="m475.54 921.69h-23.771c-6.5231 0.0454-9.7305 4.3557-9.5351 10.781l-3.1795 55.146c-0.79575 6.394-5.3103 7.6591-11.889 9.1233-39.784 8.8493-80.891 7.6748-121.49-0.13786-7.3031-1.4065-10.75-2.8654-11.886-8.9836l-3.0399-55.146c-0.18498-5.1236-3.9264-10.734-9.6747-10.781h-23.634" clip-rule="evenodd" fill="none" stroke="#ffffff" stroke-width="1.3088"/>
  <line x1="413.68" x2="442.31" y1="829.28" y2="850.36" fill="none" stroke="#ffffff" stroke-linecap="square" stroke-miterlimit="10" stroke-width=".43627"/>
  <g transform="matrix(.92516 -.37957 .37957 .92516 -149.24 184.64)" opacity=".495">
   <g transform="matrix(.98285 .18438 -.18438 .98285 272.18 -118.12)">
    <path d="m176.58 970.59c3.5618 4.2437 9.8898 4.7962 14.134 1.2346 4.2437-3.5618 4.7884-9.8822 1.2267-14.126l-47.324-56.645c-0.14807-0.13922-15.706 13.736-15.706 13.736-0.0145 0.0952 23.362 27.093 47.669 55.801z" color="#000000" fill="url(#linearGradient43679)" stroke="#333333" stroke-linecap="round" stroke-linejoin="round" stroke-width=".47194"/>
    <path d="m65.483 880.09c0.15642 0.2478 53.794-46.477 53.76-46.327l20.402 42.393 5.0394 24.748-15.179 13.103-24.673-7.0949-39.402-26.953" fill="url(#linearGradient43676)" stroke-miterlimit="10"/>
    <path d="m81.585 841.18 109.63 130.77" fill="none" stroke="#000000" stroke-dasharray="2.00078312, 1.00039157, 0.50019578, 1.00039157" stroke-linecap="round" stroke-linejoin="round" stroke-miterlimit="10" stroke-width=".5002"/>
   </g>
   <path d="m173.73 759.19 33.74 34.01 22.653 11.614 18.065-10.572-0.23966-25.592-12.321-45.112" fill="none" stroke="#4d4d4d" stroke-linecap="round" stroke-linejoin="round" stroke-width=".47194"/>
  </g>
  <g fill="none" stroke="#ffffff" stroke-linecap="square" stroke-miterlimit="10">
   <g stroke-width=".43627">
    <line x1="451.44" x2="424.21" y1="839.38" y2="822.8"/>
    <line x1="412.32" x2="436.71" y1="938.83" y2="984.61"/>
    <path d="m441.76 850.16"/>
    <path d="m438.31 987.68"/>
    <line x1="430.29" x2="406.84" y1="995.83" y2="946.89"/>
    <line x1="364.92" x2="354.97" y1="1003" y2="953.82"/>
    <line x1="301.2" x2="303.97" y1="995.83" y2="948.01"/>
    <line x1="295.4" x2="290.42" y1="831.5" y2="850.16"/>
    <line x1="293.05" x2="297.47" y1="987.68" y2="941.52"/>
    <line x1="287.52" x2="280.61" y1="822.8" y2="839.38"/>
    <line x1="290.42" x2="295.4" y1="850.16" y2="831.5"/>
   </g>
   <polyline transform="matrix(1.7451 0 0 1.7451 256.69 782.53)" points="13.705 32.58 17.665 23.076 6.894 23.076 0.24 32.58 13.705 32.58" stroke-width=".25"/>
   <g stroke-width=".43627">
    <line x1="370.86" x2="388.14" y1="953.54" y2="1002.6"/>
    <line x1="387.93" x2="412.32" y1="950.92" y2="999.84"/>
    <line x1="338.22" x2="343.22" y1="953.15" y2="1001.2"/>
    <line x1="321.11" x2="320.41" y1="951.67" y2="999.15"/>
    <line x1="439.79" x2="412.53" y1="958.61" y2="917.76"/>
    <line x1="292.63" x2="296.78" y1="950.78" y2="920.24"/>
    <line x1="291.25" x2="296.78" y1="924.38" y2="898.81"/>
    <line x1="291.25" x2="296.09" y1="897.43" y2="872.55"/>
    <line x1="291.25" x2="296.09" y1="869.78" y2="846.29"/>
    <line x1="440.72" x2="412.75" y1="928.75" y2="895.03"/>
    <line x1="441.66" x2="411.38" y1="902.22" y2="869.71"/>
    <line x1="441.73" x2="412.03" y1="874.09" y2="849.43"/>
    <path d="m462.48 831.51h-21.285c-6.1112 0.42929-9.3047 4.0887-9.1215 10.226l-3.5931 129.78c-0.86381 5.4359-4.3889 8.5579-9.9522 8.9871-37.512 8.7044-80.216 9.1791-117.2-1.9388-4.4185-1.0366-6.7622-4.3121-6.7726-8.9802l-3.4552-127.15c-0.2827-5.2823-3.2476-10.467-8.2926-10.504l-21.869-0.19021"/>
    <path d="m451.3 825.7h-20.04c-6.1113 0.42928-9.3065 4.0904-9.1215 10.228l-1.6596 121.9c-0.32633 3.9421-2.3175 7.0763-6.2194 8.1565-35.366 9.7899-74.331 7.359-110.57-1.7992-4.532-1.1448-6.3259-4.1271-6.6452-8.8597l-3.0417-120.93c-0.3368-4.7187-4.0311-8.3938-9.2472-8.6905h-20.042"/>
   </g>
  </g>
  <g clip-rule="evenodd" stroke="#4d4d4d">
   <path d="m441.85 822.81h-18.889c-6.7342 0-9.7305 4.3557-9.5351 10.781l-0.99295 105.97c-0.79575 6.394-5.2876 7.7638-11.889 9.1232-39.09 8.0413-52.556 5.9856-92.62 0.79925-7.3747-0.95456-9.3763-2.7537-10.512-8.8737l-1.9039-107.22c-0.20417-5.9193-2.8235-10.219-9.6747-10.219h-17.648l-10.5 15.678 9.5159 164.87 104.92 8.0413 67.332-1.4955 36.247-170.76-33.854-16.695z" fill="none" stroke-miterlimit="10" stroke-width=".43627"/>
   <g fill-rule="evenodd">
    <path d="m475.54 907.01" fill="#99b2cc" stroke-width=".43627"/>
    <path d="m475.54 839.12h-23.771c-6.5231 0.0454-9.7305 4.3557-9.5351 10.781l-3.1795 138.34c-0.79575 6.394-5.3103 7.6591-11.889 9.1233-39.784 8.8493-80.891 7.6748-121.49-0.13786-7.3031-1.4065-10.75-2.8654-11.886-8.9836l-3.0399-138.34c-0.18498-5.1235-3.9264-10.734-9.6747-10.781h-23.634l-0.0436 181.4 218.33 1.0627v-182.09" fill="url(#linearGradient43563)" stroke-width=".63425"/>
    <path d="m475.7 839.5" fill="#99b2cc" stroke-width=".43627"/>
   </g>
  </g>
  <g>
   <path d="m176.58 970.59c3.5618 4.2437 9.8898 4.7962 14.134 1.2346 4.2437-3.5618 4.7884-9.8822 1.2267-14.126l-47.324-56.645c-0.14807-0.13922-15.706 13.736-15.706 13.736-0.0145 0.0952 23.362 27.093 47.669 55.801z" color="#000000" fill="url(#linearGradient43679)" stroke="#333333" stroke-linecap="round" stroke-linejoin="round" stroke-width=".47194"/>
   <path d="m65.483 880.09c0.15642 0.2478 53.794-46.477 53.76-46.327l20.402 42.393 5.0394 24.748-15.179 13.103-24.673-7.0949-39.402-26.953" fill="url(#linearGradient43676)" stroke-miterlimit="10"/>
   <path d="m81.585 841.18 109.63 130.77" fill="none" stroke="#000000" stroke-dasharray="2.00078312, 1.00039157, 0.50019578, 1.00039157" stroke-linecap="round" stroke-linejoin="round" stroke-miterlimit="10" stroke-width=".5002"/>
  </g>
  <path d="m65.044 880.19 39.406 27.244 24.399 7.262 15.819-13.706-4.9302-25.114-20.387-42.087" fill="none" stroke="#4d4d4d" stroke-linecap="round" stroke-linejoin="round" stroke-width=".47194"/>
  <g transform="matrix(.95712 -.28968 .28968 .95712 -83.022 178.53)" opacity=".495">
   <g transform="matrix(.98285 .18438 -.18438 .98285 272.18 -118.12)">
    <path d="m176.58 970.59c3.5618 4.2437 9.8898 4.7962 14.134 1.2346 4.2437-3.5618 4.7884-9.8822 1.2267-14.126l-47.324-56.645c-0.14807-0.13922-15.706 13.736-15.706 13.736-0.0145 0.0952 23.362 27.093 47.669 55.801z" color="#000000" fill="url(#linearGradient43679)" stroke="#333333" stroke-linecap="round" stroke-linejoin="round" stroke-width=".47194"/>
    <path d="m65.483 880.09c0.15642 0.2478 53.794-46.477 53.76-46.327l20.402 42.393 5.0394 24.748-15.179 13.103-24.673-7.0949-39.402-26.953" fill="url(#linearGradient43676)" stroke-miterlimit="10"/>
    <path d="m81.585 841.18 109.63 130.77" fill="none" stroke="#000000" stroke-dasharray="2.00078312, 1.00039157, 0.50019578, 1.00039157" stroke-linecap="round" stroke-linejoin="round" stroke-miterlimit="10" stroke-width=".5002"/>
   </g>
   <path d="m173.73 759.19 33.74 34.01 22.653 11.614 18.065-10.572-0.23966-25.592-12.321-45.112" fill="none" stroke="#4d4d4d" stroke-linecap="round" stroke-linejoin="round" stroke-width=".47194"/>
  </g>
  <g transform="translate(151.4 122.45)">
   <g transform="matrix(.98285 .18438 -.18438 .98285 272.18 -118.12)">
    <path d="m176.58 970.59c3.5618 4.2437 9.8898 4.7962 14.134 1.2346 4.2437-3.5618 4.7884-9.8822 1.2267-14.126l-47.324-56.645c-0.14807-0.13922-15.706 13.736-15.706 13.736-0.0145 0.0952 23.362 27.093 47.669 55.801z" color="#000000" fill="url(#linearGradient43679)" stroke="#333333" stroke-linecap="round" stroke-linejoin="round" stroke-width=".47194"/>
    <path d="m65.483 880.09c0.15642 0.2478 53.794-46.477 53.76-46.327l20.402 42.393 5.0394 24.748-15.179 13.103-24.673-7.0949-39.402-26.953" fill="url(#linearGradient43676)" stroke-miterlimit="10"/>
    <path d="m81.585 841.18 109.63 130.77" fill="none" stroke="#000000" stroke-dasharray="2.00078312, 1.00039157, 0.50019578, 1.00039157" stroke-linecap="round" stroke-linejoin="round" stroke-miterlimit="10" stroke-width=".5002"/>
   </g>
   <path d="m173.73 759.19 33.74 34.01 22.653 11.614 18.065-10.572-0.23966-25.592-12.321-45.112" fill="none" stroke="#4d4d4d" stroke-linecap="round" stroke-linejoin="round" stroke-width=".47194"/>
  </g>
  <polygon transform="matrix(1.7451 0 0 1.7451 256.69 782.53)" points="73.738 78.121 73.738 78.121 74.767 77.802 54.968 10.087 52.908 10.721 72.708 78.435" fill="#7ab51d" stroke="#7ab51d" stroke-linecap="round" stroke-linejoin="round" stroke-width="1.0152"/>
  <g transform="translate(75.498 902.93)">
   <ellipse cx="-44.92" cy="-98.798" rx="13.199" ry="13.469" fill="#1f638a" stroke-linecap="round" stroke-linejoin="round" stroke-width="1.0658"/>
   <text x="-51.39423" y="-91.055557" fill="#000000" font-family="'Arial Nova', 'Arial Unicode MS', 'Yu Gothic UI', sans-serif" font-size="12.8px" letter-spacing="0px" stroke-width="1.0667" word-spacing="0px" style="line-height:0%" xml:space="preserve"><tspan x="-51.39423" y="-91.055557" fill="#ffffff" font-family="'Arial Nova', 'Arial Unicode MS', 'Yu Gothic UI', sans-serif" font-size="21.333px" stroke="#ffffff" stroke-width="1.0667" style="line-height:1.25">1</tspan></text>
  </g>
  <g transform="translate(282.12 902.21)">
   <ellipse cx="-13.718" cy="-98.798" rx="13.199" ry="13.469" fill="#1f638a" stroke-linecap="round" stroke-linejoin="round" stroke-width="1.0658"/>
   <text x="-19.559933" y="-91.125885" fill="#000000" font-family="'Arial Nova', 'Arial Unicode MS', 'Yu Gothic UI', sans-serif" font-size="12.8px" letter-spacing="0px" stroke-width="1.0667" word-spacing="0px" style="line-height:0%" xml:space="preserve"><tspan x="-19.559933" y="-91.125885" fill="#ffffff" font-family="'Arial Nova', 'Arial Unicode MS', 'Yu Gothic UI', sans-serif" font-size="21.333px" stroke="#ffffff" stroke-width="1.0667" style="line-height:1.25">2</tspan></text>
  </g>
 </g>
</svg>
