<svg version="1.1" viewBox="0 0 637.8 301.18" xmlns="http://www.w3.org/2000/svg" xmlns:xlink="http://www.w3.org/1999/xlink">
 <title>Abbildung für OPEN MIND Softwaredokumentation</title>
 <defs>
  <linearGradient id="linearGradient6018" x1="272.47" x2="354.42" y1="262.19" y2="262.19" gradientTransform="matrix(1.648 0 0 1 -326.38 699.36)" gradientUnits="userSpaceOnUse">
   <stop stop-color="#ff8500" offset="0"/>
   <stop stop-color="#ffffff" offset="1"/>
  </linearGradient>
  <linearGradient id="linearGradient3988" x1="230.65" x2="244.88" y1="958.74" y2="958.69" gradientTransform="matrix(1.5022 0 0 1.5022 -255.52 -533.42)" gradientUnits="userSpaceOnUse">
   <stop stop-color="#FFFFFF" offset="0"/>
   <stop stop-color="#FCFCFC" offset=".2264"/>
   <stop stop-color="#F4F4F4" offset=".3626"/>
   <stop stop-color="#E6E6E6" offset=".475"/>
   <stop stop-color="#D1D1D1" offset=".5744"/>
   <stop stop-color="#B7B7B7" offset=".6652"/>
   <stop stop-color="#979797" offset=".7498"/>
   <stop stop-color="#707070" offset=".8297"/>
   <stop stop-color="#444444" offset=".9057"/>
   <stop stop-color="#121212" offset=".9761"/>
   <stop stop-color="#000000" offset="1"/>
  </linearGradient>
  <linearGradient id="linearGradient12837" x1="112.71" x2="501.96" y1="847.78" y2="997.68" gradientUnits="userSpaceOnUse">
   <stop stop-color="#ffffff" offset="0"/>
   <stop stop-color="#00385e" offset="1"/>
  </linearGradient>
  <pattern id="pattern12855" patternTransform="matrix(.047422 -.045278 8.1327 8.5178 100.1 737.28)" xlink:href="#pattern9529"/>
  <pattern id="pattern9529" patternTransform="matrix(.047355 -.045348 8.1452 8.5058 123.08 94.709)" xlink:href="#pattern9496"/>
  <pattern id="pattern9496" patternTransform="matrix(.047355 -.045348 8.1452 8.5058 396.14 -51.594)" xlink:href="#pattern9487"/>
  <pattern id="pattern9487" patternTransform="matrix(.056516 -.039102 6.9938 10.109 354.71 164.31)" xlink:href="#Strips1_64-8"/>
  <pattern id="Strips1_64-8" width="65" height="1" patternTransform="translate(0) scale(10)" patternUnits="userSpaceOnUse">
   <rect y="-.5" width="1" height="2" fill="black"/>
  </pattern>
  <linearGradient id="linearGradient3988-2" x1="230.65" x2="244.88" y1="958.74" y2="958.69" gradientTransform="matrix(1.5022 0 0 1.5022 41.562 -597.09)" gradientUnits="userSpaceOnUse">
   <stop stop-color="#FFFFFF" offset="0"/>
   <stop stop-color="#FCFCFC" offset=".2264"/>
   <stop stop-color="#F4F4F4" offset=".3626"/>
   <stop stop-color="#E6E6E6" offset=".475"/>
   <stop stop-color="#D1D1D1" offset=".5744"/>
   <stop stop-color="#B7B7B7" offset=".6652"/>
   <stop stop-color="#979797" offset=".7498"/>
   <stop stop-color="#707070" offset=".8297"/>
   <stop stop-color="#444444" offset=".9057"/>
   <stop stop-color="#121212" offset=".9761"/>
   <stop stop-color="#000000" offset="1"/>
  </linearGradient>
  <pattern id="pattern12855-1" patternTransform="matrix(.047422 -.045278 8.1327 8.5178 373.87 736.64)" xlink:href="#pattern9529-2"/>
  <pattern id="pattern9529-2" patternTransform="matrix(.047355 -.045348 8.1452 8.5058 123.08 94.709)" xlink:href="#pattern9496-1"/>
  <pattern id="pattern9496-1" patternTransform="matrix(.047355 -.045348 8.1452 8.5058 396.14 -51.594)" xlink:href="#pattern9487-4"/>
  <pattern id="pattern9487-4" patternTransform="matrix(.056516 -.039102 6.9938 10.109 354.71 164.31)" xlink:href="#Strips1_64-8-9"/>
  <pattern id="Strips1_64-8-9" width="65" height="1" patternTransform="translate(0) scale(10)" patternUnits="userSpaceOnUse">
   <rect y="-.5" width="1" height="2" fill="black"/>
  </pattern>
  <linearGradient id="linearGradient12959" x1="112.71" x2="501.96" y1="847.78" y2="997.68" gradientTransform="translate(274.17 .069457)" gradientUnits="userSpaceOnUse">
   <stop stop-color="#ffffff" offset="0"/>
   <stop stop-color="#00385e" offset="1"/>
  </linearGradient>
  <linearGradient id="linearGradient13002" x1="317.95" x2="402.91" y1="262.19" y2="262.19" gradientTransform="matrix(1.648 0 0 1 -1055.4 699.2)" gradientUnits="userSpaceOnUse">
   <stop stop-color="#ffffff" offset="0"/>
   <stop stop-color="#808080" offset="1"/>
  </linearGradient>
 </defs>
 <g transform="translate(0 -751.18)">
  <g stroke-linecap="round" stroke-linejoin="round" stroke-width=".63425">
   <path d="m112.02 864.38c0 11.725-5.7128 18.574-17.438 18.574-11.725 0-25.001-6.8494-25.001-18.574v-20.905c3.0625 2.1794 8.3567 8.3419 21.231 0 9.7895-6.3431 15.707-2.0673 21.207 0z" color="#000000" fill="none" stroke="#000000"/>
   <path d="m69.642 887.27c0 11.725 9.5065 21.23 21.231 21.23 11.725 0 21.207-9.5049 21.207-21.23l-0.0603-43.55c-3.0625 2.1793-8.3567 8.3419-21.231 0-9.7895-6.3431-15.707-2.0673-21.207 0z" color="#000000" fill="url(#linearGradient3988)" stroke="#333333"/>
   <rect x="113.87" y="922.27" width="228.97" height="78.57" color="#000000" fill="url(#linearGradient6018)" fill-rule="evenodd" stroke="#4d4d4d" stroke-miterlimit="10"/>
  </g>
  <g fill="#99b2cc" fill-rule="evenodd" stroke-linecap="round" stroke-linejoin="round" stroke-miterlimit="10">
   <g stroke="#4d4d4d" stroke-width=".63425">
    <path d="m183.34 922.37v78.365" color="#000000"/>
    <path d="m114.38 961.55h228.08" color="#000000"/>
    <path d="m257.34 922.37v78.365" color="#000000"/>
    <path d="m123.93 922.37v78.365" color="#000000"/>
    <path d="m133.34 922.37v78.365" color="#000000"/>
    <path d="m145.34 922.37v78.365" color="#000000"/>
    <path d="m161.34 922.37v78.365" color="#000000"/>
   </g>
   <path d="m113.48 887.35v113.42" color="#000000" stroke="#000000" stroke-width="1.3429"/>
  </g>
  <g>
   <g stroke-linecap="round" stroke-linejoin="round">
    <path d="m21.041 859.87 0.11958 27.151" fill="#800080" stroke="#000000" stroke-width=".70866"/>
    <g>
     <path d="m21.073 853.35 3.4666 14.35h-6.9332c1.228-7.2721 3.4666-14.35 3.4666-14.35z" fill="#ffffff" stroke="#000000" stroke-width=".70866"/>
     <path d="m113.38 887.22c0-21.823 8.8453-41.579 23.146-55.88 14.301-14.301 34.058-23.146 55.88-23.146l150.49 0.26319-7e-3 78.908z" color="#000000" fill="url(#linearGradient12837)" stroke="#4d4d4d" stroke-width=".63425"/>
     <path d="m117.34 922.37v78.365" color="#000000" fill="#99b2cc" fill-rule="evenodd" stroke="#4d4d4d" stroke-miterlimit="10" stroke-width=".63425"/>
    </g>
   </g>
   <g stroke="#000000">
    <path d="m43.835 886.97-22.523-0.0967" fill="#800080" stroke-linecap="round" stroke-linejoin="round" stroke-width=".70866"/>
    <path d="m51.889 886.98-14.355 3.4439 0.011-6.9332z" fill="#ffffff" stroke-linecap="round" stroke-linejoin="round" stroke-width=".70866"/>
    <text x="26.585594" y="866.94159" fill="#000000" font-family="sans-serif" letter-spacing="0px" word-spacing="0px" style="line-height:0%" xml:space="preserve"><tspan x="26.585594" y="866.94159" fill="#ff0000" font-family="sans-serif" font-size="10px" stroke="#000000" style="line-height:1.25">Z</tspan></text>
   </g>
   <rect transform="scale(-1,1)" x="-615.14" y="922.1" width="228.97" height="78.57" color="#000000" fill="url(#linearGradient13002)" fill-rule="evenodd" stroke="#4d4d4d" stroke-linecap="round" stroke-linejoin="round" stroke-miterlimit="10" stroke-width=".63425"/>
  </g>
  <g fill="#99b2cc" fill-rule="evenodd" stroke-linecap="round" stroke-linejoin="round" stroke-miterlimit="10">
   <g stroke="#4d4d4d" stroke-width=".63425">
    <path d="m457.34 922.12v78.365" color="#000000"/>
    <path d="m388.38 961.3h228.08" color="#000000"/>
    <path d="m531.34 922.12v78.365" color="#000000"/>
    <path d="m397.93 922.12v78.365" color="#000000"/>
    <path d="m407.34 922.12v78.365" color="#000000"/>
    <path d="m419.34 922.12v78.365" color="#000000"/>
    <path d="m435.34 922.12v78.365" color="#000000"/>
   </g>
   <path d="m386.75 785.62v212.8" color="#000000" stroke="#000000" stroke-width="1.3429"/>
  </g>
  <g fill-rule="evenodd">
   <path d="m387.4 845.06c6.2486-0.22418 11.444-2.5977 15.246-5.7444 1.2624-1.0451 1.6904-1.0814 2.6509-2.3293-9.4316 11.024-16.811 28.549-18.303 50.129z" color="#000000" fill="#274376"/>
   <g stroke-linecap="round" stroke-linejoin="round" stroke-miterlimit="10">
    <path d="m342.95 923.13v76.728" color="#000000" fill="#99b2cc" stroke="#800080" stroke-width="3.5433"/>
    <path d="m113.62 923.13v76.728" color="#000000" fill="#99b2cc" stroke="#800080" stroke-width="3.5433"/>
    <path d="m70.208 887.36h42.957" color="#000000" fill="#000000" stroke="#000000" stroke-width=".70866"/>
    <path d="m615.3 923.13v76.478" color="#000000" fill="#99b2cc" stroke="#800080" stroke-width="3.5433"/>
   </g>
  </g>
  <g transform="translate(.15107 821.65)">
   <g stroke="#000000">
    <g stroke-linecap="round" stroke-linejoin="round" stroke-width=".70866">
     <path d="m21.117 152.54 0.11958 27.151" fill="#800080"/>
     <path d="m21.149 146.01 3.4666 14.35h-6.9332c1.228-7.2721 3.4666-14.35 3.4666-14.35z" fill="#ffffff"/>
     <path d="m43.911 179.63-22.523-0.0967" fill="#800080"/>
     <path d="m51.965 179.65-14.355 3.4439 0.011-6.9332z" fill="#ffffff"/>
    </g>
    <text x="45.019936" y="175.30176" fill="#000000" font-family="sans-serif" letter-spacing="0px" word-spacing="0px" style="line-height:0%" xml:space="preserve"><tspan x="45.019936" y="175.30176" fill="#ff0000" font-family="sans-serif" font-size="10px" stroke="#000000" style="line-height:1.25">X</tspan></text>
    <text x="24.983866" y="153.24313" fill="#000000" font-family="sans-serif" letter-spacing="0px" word-spacing="0px" style="line-height:0%" xml:space="preserve"><tspan x="24.983866" y="153.24313" fill="#ff0000" font-family="sans-serif" font-size="10px" stroke="#000000" style="line-height:1.25">Y</tspan></text>
   </g>
   <g transform="translate(-243.07 368.71)">
    <path transform="matrix(.9071 0 0 .90186 24.872 -1.1139)" d="m267.68-208.61c0 2.1113-1.7016 3.8228-3.8007 3.8228s-3.8007-1.7115-3.8007-3.8228c0-2.1113 1.7016-3.8228 3.8007-3.8228s3.8007 1.7115 3.8007 3.8228z" color="#000000" fill="#ffffff" stroke="#000000" stroke-linecap="round" stroke-linejoin="round" stroke-width=".7835"/>
    <path transform="matrix(.81605 0 0 .73445 48.612 -50.299)" d="m264.67-189.2c0 0.26645-0.1944 0.48245-0.4342 0.48245-0.23981 0-0.4342-0.216-0.4342-0.48245s0.19439-0.48244 0.4342-0.48244c0.2398 0 0.4342 0.21599 0.4342 0.48244z" color="#000000" fill="#000000"/>
   </g>
  </g>
  <path d="m387.3 923.13v76.478" color="#000000" fill="#99b2cc" fill-rule="evenodd" stroke="#800080" stroke-linecap="round" stroke-linejoin="round" stroke-miterlimit="10" stroke-width="3.5433"/>
  <path d="m190.46 809.49 151.7-0.0316 0.1794 77.25-228.75-0.13051c6.7128-56.581 44.992-76.922 76.869-77.088z" fill="url(#pattern12855)" opacity=".5"/>
  <path d="m409.1 801.19c0 11.725-5.7128 18.574-17.438 18.574-11.725 0-25.001-6.8494-25.001-18.574v-20.905c3.0625 2.1794 8.3567 8.3419 21.231 0 9.7895-6.3431 15.707-2.0673 21.207 0z" color="#000000" fill="none" stroke="#000000" stroke-linecap="round" stroke-linejoin="round" stroke-width=".63425"/>
  <g>
   <path d="m366.73 823.6c0 11.725 9.5065 21.23 21.231 21.23 11.725 0 21.207-9.5049 21.207-21.23l-0.0603-43.55c-3.0625 2.1793-8.3567 8.3419-21.231 0-9.7895-6.3431-15.707-2.0673-21.207 0z" color="#000000" fill="url(#linearGradient3988-2)" stroke="#333333" stroke-linecap="round" stroke-linejoin="round" stroke-width=".63425"/>
   <path d="m387.55 887.29c0-21.823 8.8453-41.579 23.146-55.88 14.301-14.301 34.058-23.146 55.88-23.146l150.49 0.26319-7e-3 78.908z" color="#000000" fill="url(#linearGradient12959)" stroke="#4d4d4d" stroke-linecap="round" stroke-linejoin="round" stroke-width=".63425"/>
   <path d="m464.24 808.85 151.7-0.0316 0.1794 77.25-228.75-0.13051c6.7128-56.581 44.992-76.922 76.869-77.088z" fill="url(#pattern12855-1)" opacity=".5"/>
   <path d="m389.11 858.61h-21.217" color="#000000" fill="#1f638a" fill-rule="evenodd" stroke="#1f638a" stroke-linecap="round" stroke-linejoin="round" stroke-width="1.7717"/>
  </g>
  <g transform="translate(160.43 1120.1)">
   <ellipse cx="-44.92" cy="-98.798" rx="13.199" ry="13.469" fill="#1f638a" stroke-linecap="round" stroke-linejoin="round" stroke-width="1.0658"/>
   <text x="-51.39423" y="-91.055557" fill="#000000" font-family="'Arial Nova', 'Arial Unicode MS', 'Yu Gothic UI', sans-serif" font-size="12.8px" letter-spacing="0px" stroke-width="1.0667" word-spacing="0px" style="line-height:0%" xml:space="preserve"><tspan x="-51.39423" y="-91.055557" fill="#ffffff" font-family="'Arial Nova', 'Arial Unicode MS', 'Yu Gothic UI', sans-serif" font-size="21.333px" stroke="#ffffff" stroke-width="1.0667" style="line-height:1.25">1</tspan></text>
  </g>
  <g transform="translate(432.77 1120.1)">
   <ellipse cx="-44.92" cy="-98.798" rx="13.199" ry="13.469" fill="#1f638a" stroke-linecap="round" stroke-linejoin="round" stroke-width="1.0658"/>
   <text x="-51.39423" y="-91.055557" fill="#000000" font-family="'Arial Nova', 'Arial Unicode MS', 'Yu Gothic UI', sans-serif" font-size="12.8px" letter-spacing="0px" stroke-width="1.0667" word-spacing="0px" style="line-height:0%" xml:space="preserve"><tspan x="-51.39423" y="-91.055557" fill="#ffffff" font-family="'Arial Nova', 'Arial Unicode MS', 'Yu Gothic UI', sans-serif" font-size="21.333px" stroke="#ffffff" stroke-width="1.0667" style="line-height:1.25">1</tspan></text>
  </g>
  <g transform="translate(356.65 1119.5)">
   <ellipse cx="-13.718" cy="-98.798" rx="13.199" ry="13.469" fill="#1f638a" stroke-linecap="round" stroke-linejoin="round" stroke-width="1.0658"/>
   <text x="-19.559933" y="-91.125885" fill="#000000" font-family="'Arial Nova', 'Arial Unicode MS', 'Yu Gothic UI', sans-serif" font-size="12.8px" letter-spacing="0px" stroke-width="1.0667" word-spacing="0px" style="line-height:0%" xml:space="preserve"><tspan x="-19.559933" y="-91.125885" fill="#ffffff" font-family="'Arial Nova', 'Arial Unicode MS', 'Yu Gothic UI', sans-serif" font-size="21.333px" stroke="#ffffff" stroke-width="1.0667" style="line-height:1.25">2</tspan></text>
  </g>
  <g transform="translate(628.55 1120.4)">
   <ellipse cx="-13.718" cy="-98.798" rx="13.199" ry="13.469" fill="#1f638a" stroke-linecap="round" stroke-linejoin="round" stroke-width="1.0658"/>
   <text x="-19.559933" y="-91.125885" fill="#000000" font-family="'Arial Nova', 'Arial Unicode MS', 'Yu Gothic UI', sans-serif" font-size="12.8px" letter-spacing="0px" stroke-width="1.0667" word-spacing="0px" style="line-height:0%" xml:space="preserve"><tspan x="-19.559933" y="-91.125885" fill="#ffffff" font-family="'Arial Nova', 'Arial Unicode MS', 'Yu Gothic UI', sans-serif" font-size="21.333px" stroke="#ffffff" stroke-width="1.0667" style="line-height:1.25">2</tspan></text>
  </g>
  <g transform="translate(298.57 1041.3)">
   <ellipse cx="17.483" cy="-98.798" rx="13.199" ry="13.469" fill="#1f638a" stroke-linecap="round" stroke-linejoin="round" stroke-width="1.0658"/>
   <text x="11.641406" y="-91.256096" fill="#000000" font-family="'Arial Nova', 'Arial Unicode MS', 'Yu Gothic UI', sans-serif" font-size="12.8px" letter-spacing="0px" stroke-width="1.0667" word-spacing="0px" style="line-height:0%" xml:space="preserve"><tspan x="11.641406" y="-91.256096" fill="#ffffff" font-family="'Arial Nova', 'Arial Unicode MS', 'Yu Gothic UI', sans-serif" font-size="21.333px" stroke="#ffffff" stroke-width="1.0667" style="line-height:1.25">3</tspan></text>
  </g>
  <g transform="translate(402.82 956.19)">
   <ellipse cx="-44.92" cy="-98.798" rx="13.199" ry="13.469" fill="#1f638a" stroke-linecap="round" stroke-linejoin="round" stroke-width="1.0658"/>
   <text x="-51.605217" y="-90.739082" fill="#000000" font-family="'Arial Nova', 'Arial Unicode MS', 'Yu Gothic UI', sans-serif" font-size="12.8px" letter-spacing="0px" stroke-width="1.0667" word-spacing="0px" style="line-height:0%" xml:space="preserve"><tspan x="-51.605217" y="-90.739082" fill="#ffffff" font-family="'Arial Nova', 'Arial Unicode MS', 'Yu Gothic UI', sans-serif" font-size="21.333px" stroke="#ffffff" stroke-width="1.0667" style="line-height:1.25">4</tspan></text>
  </g>
  <g transform="translate(278.95 869.51)">
   <ellipse cx="-44.92" cy="-98.798" rx="13.199" ry="13.469" fill="#1f638a" stroke-linecap="round" stroke-linejoin="round" stroke-width="1.0658"/>
   <text x="-51.953754" y="-91.710579" fill="#000000" font-family="'Arial Nova', 'Arial Unicode MS', 'Yu Gothic UI', sans-serif" font-size="12.8px" letter-spacing="0px" stroke-width="1.0667" word-spacing="0px" style="line-height:0%" xml:space="preserve"><tspan x="-51.953754" y="-91.710579" fill="#ffffff" font-family="'Arial Nova', 'Arial Unicode MS', 'Yu Gothic UI', sans-serif" font-size="21.333px" stroke="#ffffff" stroke-width="1.0667" style="line-height:1.25">A</tspan></text>
  </g>
  <g transform="translate(566 870.81)">
   <ellipse cx="-44.92" cy="-98.798" rx="13.199" ry="13.469" fill="#1f638a" stroke-linecap="round" stroke-linejoin="round" stroke-width="1.0658"/>
   <text x="-51.566948" y="-91.358932" fill="#000000" font-family="'Arial Nova', 'Arial Unicode MS', 'Yu Gothic UI', sans-serif" font-size="12.8px" letter-spacing="0px" stroke-width="1.0667" word-spacing="0px" style="line-height:0%" xml:space="preserve"><tspan x="-51.566948" y="-91.358932" fill="#ffffff" font-family="'Arial Nova', 'Arial Unicode MS', 'Yu Gothic UI', sans-serif" font-size="21.333px" stroke="#ffffff" stroke-width="1.0667" style="line-height:1.25">B</tspan></text>
  </g>
 </g>
</svg>
