<?xml version="1.0" encoding="UTF-8"?>
<svg width="680.32" height="188.98" version="1.1" xmlns="http://www.w3.org/2000/svg" xmlns:cc="http://creativecommons.org/ns#" xmlns:dc="http://purl.org/dc/elements/1.1/" xmlns:rdf="http://www.w3.org/1999/02/22-rdf-syntax-ns#" xmlns:xlink="http://www.w3.org/1999/xlink">
 <title>Abbildung für OPEN MIND Softwaredokumentation</title>
 <defs>
  <pattern id="pattern26908" patternTransform="matrix(.058149 -.05552 71.487 74.872 23.427 833.69)" xlink:href="#pattern26675"/>
  <pattern id="pattern26675" patternTransform="matrix(.035656 -.034144 43.964 45.91 19.205 715.68)" xlink:href="#pattern9529"/>
  <pattern id="pattern9529" patternTransform="matrix(.047355 -.045348 8.1452 8.5058 482.74 -114.43)" xlink:href="#pattern9496"/>
  <pattern id="pattern9496" patternTransform="matrix(.047355 -.045348 8.1452 8.5058 396.14 -51.594)" xlink:href="#pattern9487"/>
  <pattern id="pattern9487" patternTransform="matrix(.056516 -.039102 6.9938 10.109 354.71 164.31)" xlink:href="#Strips1_64"/>
  <pattern id="Strips1_64" width="65" height="1" patternTransform="translate(0) scale(10)" patternUnits="userSpaceOnUse">
   <rect y="-.5" width="1" height="2"/>
  </pattern>
  <linearGradient id="linearGradient26911" x1="141.68" x2="396.76" y1="83.928" y2="81.317" gradientTransform="matrix(2.0656 .0098124 -.0098011 2.068 -269.24 890.11)" gradientUnits="userSpaceOnUse">
   <stop stop-color="#fff" offset="0"/>
   <stop stop-color="#00385e" offset="1"/>
  </linearGradient>
  <linearGradient id="linearGradient4285" x1="50.521" x2="525.29" y1="289.21" y2="291.78" gradientTransform="matrix(1.2101 0 0 1.2429 263.16 681.34)" gradientUnits="userSpaceOnUse">
   <stop stop-color="#fff" offset="0"/>
   <stop stop-color="#00385e" offset="1"/>
  </linearGradient>
  <linearGradient id="linearGradient12776" x1="5.565" x2="525.29" y1="290.49" y2="291.78" gradientTransform="matrix(1.2101 0 0 1.2429 58.525 682.11)" gradientUnits="userSpaceOnUse">
   <stop stop-color="#fff" offset="0"/>
   <stop stop-color="#00385e" offset="1"/>
  </linearGradient>
 </defs>
 <metadata>
  <rdf:RDF>
   <cc:Work rdf:about="">
    <dc:format>image/svg+xml</dc:format>
    <dc:type rdf:resource="http://purl.org/dc/dcmitype/StillImage"/>
    <dc:title>Abbildung für OPEN MIND Softwaredokumentation</dc:title>
    <dc:creator>
     <cc:Agent>
      <dc:title>OPEN MIND Technologies AG</dc:title>
     </cc:Agent>
    </dc:creator>
    <dc:rights>
     <cc:Agent>
      <dc:title>Alle Rechte vorbehalten.</dc:title>
     </cc:Agent>
    </dc:rights>
    <dc:publisher>
     <cc:Agent>
      <dc:title>Technische Redaktion</dc:title>
     </cc:Agent>
    </dc:publisher>
   </cc:Work>
  </rdf:RDF>
 </metadata>
 <g transform="translate(0 -933.54)">
  <path d="m242.37 1093.7" fill="#1f8ac7" stroke="#1f8ac7" stroke-linecap="square" stroke-miterlimit="10" stroke-width=".77786"/>
  <circle cx="242.52" cy="1087.6" r="6.3126" fill="#fff" stroke-width="1.3975"/>
  <path d="m44.26 992.31 27.534 0.1792 12.705 56.814 102.8-0.042 12.789-57.191 27.68 0.0132-0.28784 101.09-183.32-0.3223z" fill="url(#linearGradient26911)" stroke="#4d4d4d" stroke-linecap="round" stroke-linejoin="round" stroke-width=".67654"/>
  <path d="m123.26 963.44-8.4215 8.0275h5.484v20.424h5.874v-20.424h5.2875l-8.224-8.0275" fill="#e2001a" stroke="#000" stroke-linecap="square" stroke-miterlimit="10" stroke-width=".67654"/>
  <path d="m44.381 992.5 27.397-0.0579 12.906 57.078 102.49-0.3975 12.794-56.944 27.532 0.23494-0.0188 100.55-182.94 0.1519z" fill="url(#pattern26908)" opacity=".5"/>
  <g transform="translate(21.568 900.99)">
   <g stroke="#000" stroke-linecap="round" stroke-linejoin="round" stroke-width=".7559">
    <path d="m22.525 162.71 0.12755 28.961" fill="#800080"/>
    <path d="m22.559 155.75 3.6977 15.307h-7.3955c1.3098-7.7569 3.6977-15.307 3.6977-15.307z" fill="#fff"/>
    <path d="m46.839 191.61-24.024-0.10314" fill="#800080"/>
    <path d="m55.429 191.63-15.312 3.6735 0.01173-7.3955z" fill="#fff"/>
   </g>
   <text x="48.021263" y="186.98854" fill="#000000" font-family="'Arial Nova', 'Arial Unicode MS', 'Yu Gothic UI', sans-serif" font-size="12.8px" letter-spacing="0px" stroke="#000000" stroke-width="1.0667" word-spacing="0px" style="line-height:0%" xml:space="preserve"><tspan x="48.021263" y="186.98854" fill="#ff0000" font-family="'Arial Nova', 'Arial Unicode MS', 'Yu Gothic UI', sans-serif" font-size="10.667px" stroke="#000000" stroke-width="1.0667" style="line-height:1.25">X</tspan></text>
   <text x="26.649456" y="163.45934" fill="#000000" font-family="'Arial Nova', 'Arial Unicode MS', 'Yu Gothic UI', sans-serif" font-size="12.8px" letter-spacing="0px" stroke="#000000" stroke-width="1.0667" word-spacing="0px" style="line-height:0%" xml:space="preserve"><tspan x="26.649456" y="163.45934" fill="#ff0000" font-family="'Arial Nova', 'Arial Unicode MS', 'Yu Gothic UI', sans-serif" font-size="10.667px" stroke="#000000" stroke-width="1.0667" style="line-height:1.25">Z</tspan></text>
   <g transform="translate(-259.28 393.29)">
    <circle cx="281.86" cy="-201.87" r="3.6775" color="#000000" fill="#fff" stroke="#000" stroke-linecap="round" stroke-linejoin="round" stroke-width=".75591"/>
    <circle cx="281.86" cy="-201.87" r=".37795" color="#000000"/>
   </g>
  </g>
  <g fill="#d4aa00" stroke="#d4aa00" stroke-linecap="round" stroke-width="2.2677">
   <path d="m93.094 993.59 85.052-0.0471"/>
   <path d="m95.178 1024.3 80.678-0.028"/>
   <path d="m93.012 1008.9 83.864-0.019"/>
   <path d="m97.311 1039.7 77.669-0.085"/>
   <path d="m97.768 1048.1 76.678-0.1813"/>
  </g>
  <g stroke-linecap="round" stroke-linejoin="round">
   <path d="m136.12 1048.1-0.0169-75.638" fill="none" stroke="#e2001a" stroke-width="2.2677"/>
   <g>
    <rect x="452.83" y="993.35" width="182.42" height="101.3" fill="url(#linearGradient4285)" stroke="#4d4d4d" stroke-width=".39238"/>
    <path d="m541.17 1082.7-0.0168-3.1044" fill="none" stroke="#fd0" stroke-width="2.2677"/>
    <rect x="248.2" y="994.12" width="182.42" height="101.3" fill="url(#linearGradient12776)" stroke="#4d4d4d" stroke-width=".39238"/>
   </g>
  </g>
  <g fill="none" stroke="#fd0" stroke-linecap="round" stroke-linejoin="round">
   <path d="m259.46 1006.1h159.91v78.358h-159.91z" stroke-width="2.2677"/>
   <path d="m272.81 1019.3h133.58v52.747h-133.58z" stroke-width="2.1918"/>
   <path d="m285.65 1032.5h108.04v26.791h-108.04z" stroke-width="1.9706"/>
   <path d="m336.54 1083.5 0.0303-23.342" stroke-width="2.2677"/>
  </g>
  <g transform="rotate(-47.725 171.76 1165.3)" stroke="#000" stroke-linecap="round" stroke-linejoin="round">
   <path d="m351.7 1239.5-4.1905 12.571h8.7619z" stroke-width="1.0658"/>
   <path d="m351.57 1243.5v16.174" stroke-width=".67654"/>
  </g>
  <g stroke-linecap="round" stroke-linejoin="round">
   <path d="m336.41 1084.3c5.3239-0.081 11.071-3.0582 11.23-8.7867" fill="none" stroke="#fd0" stroke-width="2.2639"/>
   <path d="m347.39 1074.4-10.566-13.403" fill="none" stroke="#e2001a" stroke-width="2.2677"/>
   <path d="m315.08 1076.4 3.5165 2.9511c-2.7453 5.6133-7.1779 6.4306-13.148 6.0589 0.0397 9e-4 0.83936 3.9081 0.83936 3.9081 5.3925-0.011 12.584-1.5889 15.289-7.1102l3.1415 2.5198-0.39724-9.6705z" fill="#e2001a" stroke="#000" stroke-miterlimit="10" stroke-width=".67654"/>
  </g>
  <g transform="translate(225.69 903.61)">
   <g stroke="#000" stroke-linecap="round" stroke-linejoin="round" stroke-width=".7559">
    <path d="m22.525 162.71 0.12755 28.961" fill="#800080"/>
    <path d="m22.559 155.75 3.6977 15.307h-7.3955c1.3098-7.7569 3.6977-15.307 3.6977-15.307z" fill="#fff"/>
    <path d="m46.839 191.61-24.024-0.10314" fill="#800080"/>
    <path d="m55.429 191.63-15.312 3.6735 0.01173-7.3955z" fill="#fff"/>
   </g>
   <text x="48.021263" y="186.98854" fill="#000000" font-family="'Arial Nova', 'Arial Unicode MS', 'Yu Gothic UI', sans-serif" font-size="12.8px" letter-spacing="0px" stroke="#000000" stroke-width="1.0667" word-spacing="0px" style="line-height:0%" xml:space="preserve"><tspan x="48.021263" y="186.98854" fill="#ff0000" font-family="'Arial Nova', 'Arial Unicode MS', 'Yu Gothic UI', sans-serif" font-size="10.667px" stroke="#000000" stroke-width="1.0667" style="line-height:1.25">X</tspan></text>
   <text x="26.649456" y="163.45934" fill="#000000" font-family="'Arial Nova', 'Arial Unicode MS', 'Yu Gothic UI', sans-serif" font-size="12.8px" letter-spacing="0px" stroke="#000000" stroke-width="1.0667" word-spacing="0px" style="line-height:0%" xml:space="preserve"><tspan x="26.649456" y="163.45934" fill="#ff0000" font-family="'Arial Nova', 'Arial Unicode MS', 'Yu Gothic UI', sans-serif" font-size="10.667px" stroke="#000000" stroke-width="1.0667" style="line-height:1.25">Y</tspan></text>
   <g transform="translate(-259.28 393.29)">
    <circle cx="281.86" cy="-201.87" r="3.6775" color="#000000" fill="#fff" stroke="#000" stroke-linecap="round" stroke-linejoin="round" stroke-width=".75591"/>
    <circle cx="281.86" cy="-201.87" r=".37795" color="#000000"/>
   </g>
  </g>
  <circle cx="378.41" cy="1059.2" r="11.602" fill="#fff" stroke="#000" stroke-linecap="round" stroke-linejoin="round" stroke-width=".29916"/>
  <g fill="none" stroke-linecap="round" stroke-linejoin="round">
   <g stroke="#fd0">
    <path d="m464.23 1005.7h159.91v78.357h-159.91z" stroke-width="2.2677"/>
    <path d="m477.59 1018.8h133.58v52.747h-133.58z" stroke-width="2.1918"/>
    <path d="m490.43 1032h108.04v26.791h-108.04z" stroke-width="1.9706"/>
   </g>
   <path d="m541.31 1078-0.0168-15.904" stroke="#e2001a" stroke-width="2.2677"/>
  </g>
  <g transform="translate(205.44 -158.05)" stroke="#000" stroke-linecap="round" stroke-linejoin="round">
   <path d="m352.06 1218 4.1905-12.571h-8.7619z" stroke-width="1.0658"/>
   <path d="m351.93 1198.6v16.174" stroke-width=".67654"/>
  </g>
  <g transform="translate(205.84 -159.39)" stroke="#000" stroke-linecap="round" stroke-linejoin="round">
   <path d="m351.7 1239.5-4.1905 12.571h8.7619z" stroke-width="1.0658"/>
   <path d="m351.57 1243.5v16.174" stroke-width=".67654"/>
  </g>
  <path d="m526.76 1083.5 7.2998-6.961h-4.7536v-15.635c-0.0202 0.034-5.0925 0-5.0925 0v15.635h-4.5826l7.1288 6.961" fill="#e2001a" stroke="#000" stroke-linecap="round" stroke-linejoin="round" stroke-miterlimit="10" stroke-width=".67654"/>
  <g transform="translate(430.2 902.95)">
   <g stroke="#000" stroke-linecap="round" stroke-linejoin="round" stroke-width=".7559">
    <path d="m22.525 162.71 0.12755 28.961" fill="#800080"/>
    <path d="m22.559 155.75 3.6977 15.307h-7.3955c1.3098-7.7569 3.6977-15.307 3.6977-15.307z" fill="#fff"/>
    <path d="m46.839 191.61-24.024-0.10314" fill="#800080"/>
    <path d="m55.429 191.63-15.312 3.6735 0.01173-7.3955z" fill="#fff"/>
   </g>
   <text x="48.021263" y="186.98854" fill="#000000" font-family="'Arial Nova', 'Arial Unicode MS', 'Yu Gothic UI', sans-serif" font-size="12.8px" letter-spacing="0px" stroke="#000000" stroke-width="1.0667" word-spacing="0px" style="line-height:0%" xml:space="preserve"><tspan x="48.021263" y="186.98854" fill="#ff0000" font-family="'Arial Nova', 'Arial Unicode MS', 'Yu Gothic UI', sans-serif" font-size="10.667px" stroke="#000000" stroke-width="1.0667" style="line-height:1.25">X</tspan></text>
   <text x="26.649456" y="163.45934" fill="#000000" font-family="'Arial Nova', 'Arial Unicode MS', 'Yu Gothic UI', sans-serif" font-size="12.8px" letter-spacing="0px" stroke="#000000" stroke-width="1.0667" word-spacing="0px" style="line-height:0%" xml:space="preserve"><tspan x="26.649456" y="163.45934" fill="#ff0000" font-family="'Arial Nova', 'Arial Unicode MS', 'Yu Gothic UI', sans-serif" font-size="10.667px" stroke="#000000" stroke-width="1.0667" style="line-height:1.25">Y</tspan></text>
   <g transform="translate(-259.28 393.29)">
    <circle cx="281.86" cy="-201.87" r="3.6775" color="#000000" fill="#fff" stroke="#000" stroke-linecap="round" stroke-linejoin="round" stroke-width=".75591"/>
    <circle cx="281.86" cy="-201.87" r=".37795" color="#000000"/>
   </g>
  </g>
  <g stroke="#000" stroke-linecap="round" stroke-linejoin="round">
   <path d="m541.23 1079h16.175" stroke-width=".67654"/>
   <path d="m541.14 1061.1h16.175" stroke-width=".67654"/>
   <circle cx="515.93" cy="1031.9" r="11.602" fill="#fff" stroke-width=".29916"/>
  </g>
  <g transform="translate(203.02 1070.3)">
   <ellipse cx="-44.92" cy="-98.798" rx="13.199" ry="13.469" fill="#1f638a" stroke-linecap="round" stroke-linejoin="round" stroke-width="1.0658"/>
   <text x="-50.761276" y="-91.125885" fill="#000000" font-family="'Arial Nova', 'Arial Unicode MS', 'Yu Gothic UI', sans-serif" font-size="12.8px" letter-spacing="0px" stroke-width="1.0667" word-spacing="0px" style="line-height:0%" xml:space="preserve"><tspan x="-50.761276" y="-91.125885" fill="#ffffff" font-family="'Arial Nova', 'Arial Unicode MS', 'Yu Gothic UI', sans-serif" font-size="21.333px" stroke="#ffffff" stroke-width="1.0667" style="line-height:1.25">1</tspan></text>
  </g>
  <g transform="translate(388.72 1198.3)">
   <ellipse cx="-13.718" cy="-98.798" rx="13.199" ry="13.469" fill="#1f638a" stroke-linecap="round" stroke-linejoin="round" stroke-width="1.0658"/>
   <text x="-19.559933" y="-91.125885" fill="#000000" font-family="'Arial Nova', 'Arial Unicode MS', 'Yu Gothic UI', sans-serif" font-size="12.8px" letter-spacing="0px" stroke-width="1.0667" word-spacing="0px" style="line-height:0%" xml:space="preserve"><tspan x="-19.559933" y="-91.125885" fill="#ffffff" font-family="'Arial Nova', 'Arial Unicode MS', 'Yu Gothic UI', sans-serif" font-size="21.333px" stroke="#ffffff" stroke-width="1.0667" style="line-height:1.25">2</tspan></text>
  </g>
  <g transform="translate(557.42 1167.8)">
   <ellipse cx="17.483" cy="-98.798" rx="13.199" ry="13.469" fill="#1f638a" stroke-linecap="round" stroke-linejoin="round" stroke-width="1.0658"/>
   <text x="11.641406" y="-91.256096" fill="#000000" font-family="'Arial Nova', 'Arial Unicode MS', 'Yu Gothic UI', sans-serif" font-size="12.8px" letter-spacing="0px" stroke-width="1.0667" word-spacing="0px" style="line-height:0%" xml:space="preserve"><tspan x="11.641406" y="-91.256096" fill="#ffffff" font-family="'Arial Nova', 'Arial Unicode MS', 'Yu Gothic UI', sans-serif" font-size="21.333px" stroke="#ffffff" stroke-width="1.0667" style="line-height:1.25">3</tspan></text>
  </g>
 </g>
</svg>
