<?xml version="1.0" encoding="UTF-8"?>
<svg width="13cm" height="7.5cm" version="1.1" xmlns="http://www.w3.org/2000/svg" xmlns:cc="http://creativecommons.org/ns#" xmlns:dc="http://purl.org/dc/elements/1.1/" xmlns:rdf="http://www.w3.org/1999/02/22-rdf-syntax-ns#" xmlns:xlink="http://www.w3.org/1999/xlink">
 <defs>
  <linearGradient id="linearGradient3139" x1="239.19" x2="32.895" y1="1096.8" y2="1097.8" gradientTransform="matrix(.92354 0 0 .92354 -14.686 -61.271)" gradientUnits="userSpaceOnUse">
   <stop stop-color="#808080" offset="0"/>
   <stop stop-color="#808080" stop-opacity="0" offset="1"/>
  </linearGradient>
 </defs>
 <metadata>
  <rdf:RDF>
   <cc:Work rdf:about="">
    <dc:format>image/svg+xml</dc:format>
    <dc:type rdf:resource="http://purl.org/dc/dcmitype/StillImage"/>
    <dc:title/>
   </cc:Work>
  </rdf:RDF>
 </metadata>
 <g transform="translate(0 -839.06)">
  <g>
   <rect x="61.632" y="898.69" width="60.406" height="120.32" color="#000000" fill="#b3b3b3" stroke="#b3b3b3" stroke-linecap="round" stroke-linejoin="round" stroke-width=".92281"/>
   <path d="m211.21 1070.2v-50.075h-150.38v-122.4h61.651v-36.496c-32.506-0.56392-9.0157 5.4717-82.363 18.057-19.99 3.4297-26.9 61.199-15.29 84.647 25.137 50.771 10.993 86.198 47.103 73.006 19.29-7.0472 55.033-21.882 78.586 13.369 15.132 22.649 38.299 19.427 60.694 19.894z" fill="none" stroke="url(#linearGradient3139)" stroke-width="1.4324"/>
   <g transform="matrix(2.6324 0 0 2.6324 -556.61 -542.53)" fill="#fff" stroke="#000" stroke-width=".54415">
    <path d="m282.31 533.82v31.285h19.03v-31.422z"/>
    <path d="m258.27 561.86h67.216v15.493h-67.216z"/>
   </g>
  </g>
  <g fill="none" stroke="#000" stroke-width=".58576">
   <path d="m123.07 1020.6v42.218"/>
   <path d="m61.137 1062v-41.586"/>
   <path d="m211.26 1020.5v42.336"/>
   <path d="m149.34 1062v-41.701"/>
  </g>
  <g stroke="#000" stroke-linecap="round" stroke-linejoin="round">
   <path d="m61.753 1058 10.885-3.6281v7.5862z" stroke-width=".92281"/>
   <path d="m69.992 1058.2h52.354" stroke-width=".58576"/>
   <path d="m122.56 1058-10.885-3.6281v7.5862z" stroke-width=".92281"/>
   <path d="m149.92 1058 10.885-3.6281v7.5862z" stroke-width=".92281"/>
   <path d="m158.16 1058.2h52.354" stroke-width=".58576"/>
   <path d="m210.73 1058-10.885-3.6281v7.5862z" stroke-width=".92281"/>
  </g>
  <g fill="#d4aa00" stroke="#d4aa00" stroke-linecap="round" stroke-linejoin="round" stroke-width="1.9062">
   <ellipse transform="matrix(.9993 -.037301 .032652 .99947 0 0)" cx="118.01" cy="963.16" rx="1.9691" ry="1.9685"/>
   <ellipse transform="matrix(.9993 -.037301 .032652 .99947 0 0)" cx="138.55" cy="963.79" rx="1.9691" ry="1.9685"/>
   <ellipse transform="matrix(.9993 -.037301 .032652 .99947 0 0)" cx="158.54" cy="964.54" rx="1.9691" ry="1.9685"/>
   <ellipse transform="matrix(.9993 -.037301 .032652 .99947 0 0)" cx="179.86" cy="965.33" rx="1.9691" ry="1.9685"/>
  </g>
  <g transform="translate(-393.85 -3.2549)" fill="#d4aa00" stroke="#d4aa00" stroke-linecap="round" stroke-linejoin="round" stroke-width="1.9062">
   <ellipse transform="matrix(.9993 -.037301 .032652 .99947 0 0)" cx="511.05" cy="1000.8" rx="1.9691" ry="1.9685"/>
   <ellipse transform="matrix(.9993 -.037301 .032652 .99947 0 0)" cx="531.58" cy="1001.4" rx="1.9691" ry="1.9685"/>
   <ellipse transform="matrix(.9993 -.037301 .032652 .99947 0 0)" cx="551.57" cy="1002.1" rx="1.9691" ry="1.9685"/>
   <ellipse transform="matrix(.9993 -.037301 .032652 .99947 0 0)" cx="572.89" cy="1002.9" rx="1.9691" ry="1.9685"/>
  </g>
  <g transform="translate(-394.12 17.756)" fill="#d4aa00" stroke="#d4aa00" stroke-linecap="round" stroke-linejoin="round" stroke-width="1.9062">
   <ellipse transform="matrix(.9993 -.037301 .032652 .99947 0 0)" cx="511.05" cy="1000.8" rx="1.9691" ry="1.9685"/>
   <ellipse transform="matrix(.9993 -.037301 .032652 .99947 0 0)" cx="531.58" cy="1001.4" rx="1.9691" ry="1.9685"/>
   <ellipse transform="matrix(.9993 -.037301 .032652 .99947 0 0)" cx="551.57" cy="1002.1" rx="1.9691" ry="1.9685"/>
   <ellipse transform="matrix(.9993 -.037301 .032652 .99947 0 0)" cx="572.89" cy="1002.9" rx="1.9691" ry="1.9685"/>
  </g>
  <g transform="translate(-394.07 38.531)" fill="#d4aa00" stroke="#d4aa00" stroke-linecap="round" stroke-linejoin="round" stroke-width="1.9062">
   <ellipse transform="matrix(.9993 -.037301 .032652 .99947 0 0)" cx="511.05" cy="1000.8" rx="1.9691" ry="1.9685"/>
   <ellipse transform="matrix(.9993 -.037301 .032652 .99947 0 0)" cx="531.58" cy="1001.4" rx="1.9691" ry="1.9685"/>
   <ellipse transform="matrix(.9993 -.037301 .032652 .99947 0 0)" cx="551.57" cy="1002.1" rx="1.9691" ry="1.9685"/>
   <ellipse transform="matrix(.9993 -.037301 .032652 .99947 0 0)" cx="572.89" cy="1002.9" rx="1.9691" ry="1.9685"/>
  </g>
  <g transform="translate(-322.1 45.524)" stroke="#000">
   <path d="m471.2 908.94v-25.25" fill="none" stroke-width=".58576"/>
   <path d="m492.05 908.77v-25.25" fill="none" stroke-width=".58576"/>
   <g transform="translate(-1.7143 11.714)" stroke-linecap="round" stroke-linejoin="round">
    <path d="m458.5 891.4h49.292" stroke-width=".58576"/>
    <path d="m494.42 891.5 10.885-3.6283v7.5862z" stroke-width=".92281"/>
    <path d="m472.43 891.5-10.885-3.6282v7.5862z" stroke-width=".92281"/>
   </g>
  </g>
  <g transform="translate(139.24 1177.1)">
   <ellipse cx="-44.92" cy="-98.798" rx="13.199" ry="13.469" fill="#1f638a" stroke-linecap="round" stroke-linejoin="round" stroke-width="1.0658"/>
   <text x="-50.761276" y="-91.125885" fill="#000000" font-family="'Arial Nova', 'Arial Unicode MS', 'Yu Gothic UI', sans-serif" font-size="12.8px" letter-spacing="0px" stroke-width="1.0667" word-spacing="0px" style="line-height:0%" xml:space="preserve"><tspan x="-50.761276" y="-91.125885" fill="#ffffff" font-family="'Arial Nova', 'Arial Unicode MS', 'Yu Gothic UI', sans-serif" font-size="21.333px" stroke="#ffffff" stroke-width="1.0667" style="line-height:1.25">1</tspan></text>
  </g>
  <g transform="translate(173.72 1010)">
   <ellipse cx="-13.718" cy="-98.798" rx="13.199" ry="13.469" fill="#1f638a" stroke-linecap="round" stroke-linejoin="round" stroke-width="1.0658"/>
   <text x="-19.559933" y="-91.125885" fill="#000000" font-family="'Arial Nova', 'Arial Unicode MS', 'Yu Gothic UI', sans-serif" font-size="12.8px" letter-spacing="0px" stroke-width="1.0667" word-spacing="0px" style="line-height:0%" xml:space="preserve"><tspan x="-19.559933" y="-91.125885" fill="#ffffff" font-family="'Arial Nova', 'Arial Unicode MS', 'Yu Gothic UI', sans-serif" font-size="21.333px" stroke="#ffffff" stroke-width="1.0667" style="line-height:1.25">2</tspan></text>
  </g>
  <g transform="translate(226.35 1177.1)">
   <ellipse cx="-44.92" cy="-98.798" rx="13.199" ry="13.469" fill="#1f638a" stroke-linecap="round" stroke-linejoin="round" stroke-width="1.0658"/>
   <text x="-50.761276" y="-91.125885" fill="#000000" font-family="'Arial Nova', 'Arial Unicode MS', 'Yu Gothic UI', sans-serif" font-size="12.8px" letter-spacing="0px" stroke-width="1.0667" word-spacing="0px" style="line-height:0%" xml:space="preserve"><tspan x="-50.761276" y="-91.125885" fill="#ffffff" font-family="'Arial Nova', 'Arial Unicode MS', 'Yu Gothic UI', sans-serif" font-size="21.333px" stroke="#ffffff" stroke-width="1.0667" style="line-height:1.25">1</tspan></text>
  </g>
 </g>
</svg>
