<svg width="169mm" height="73mm" version="1.1" viewBox="0 0 169 73" xmlns="http://www.w3.org/2000/svg" xmlns:xlink="http://www.w3.org/1999/xlink">
 <defs>
  <linearGradient id="linearGradient24492" x1="265.36" x2="1877.5" y1="202.69" y2="208.75" gradientTransform="matrix(.24015 0 0 .28901 8.7433 -22.564)" gradientUnits="userSpaceOnUse" xlink:href="#linearGradient17780-7-5-9-5-3-1-8"/>
  <linearGradient id="linearGradient17780-7-5-9-5-3-1-8">
   <stop stop-color="#ffffff" offset="0"/>
   <stop stop-color="#00385e" offset="1"/>
  </linearGradient>
  <linearGradient id="linearGradient23856-4" x1="265.36" x2="1877.5" y1="202.69" y2="208.75" gradientTransform="matrix(.24015 0 0 .28901 -73.624 -22.475)" gradientUnits="userSpaceOnUse" xlink:href="#linearGradient17780-7-5-9-5-3-1-8"/>
 </defs>
 <rect x="96.227" y="6.8444" width="53.863" height="53.674" fill="url(#linearGradient24492)" fill-rule="evenodd" stroke="#4d4d4d" stroke-width=".26345"/>
 <g transform="matrix(.26458 0 0 .26458 117.42 -14.401)">
  <g stroke="#000000">
   <g stroke-linecap="round" stroke-linejoin="round" stroke-width=".70866">
    <path d="m21.117 152.54 0.11958 27.151" fill="#800080"/>
    <path d="m21.149 146.01 3.4666 14.35h-6.9332c1.228-7.2721 3.4666-14.35 3.4666-14.35z" fill="#ffffff"/>
    <path d="m43.911 179.63-22.523-0.0967" fill="#800080"/>
    <path d="m51.965 179.65-14.355 3.4439 0.011-6.9332z" fill="#ffffff"/>
   </g>
   <text x="45.019936" y="175.30176" fill="#000000" font-family="'Arial Nova', 'Arial Unicode MS', 'Yu Gothic UI', sans-serif" letter-spacing="0px" word-spacing="0px" style="line-height:0%" xml:space="preserve"><tspan x="45.019936" y="175.30176" fill="#ff0000" font-family="'Arial Nova', 'Arial Unicode MS', 'Yu Gothic UI', sans-serif" font-size="10px" stroke="#000000" style="line-height:1.25">X</tspan></text>
   <text x="24.983866" y="153.24313" fill="#000000" font-family="'Arial Nova', 'Arial Unicode MS', 'Yu Gothic UI', sans-serif" letter-spacing="0px" word-spacing="0px" style="line-height:0%" xml:space="preserve"><tspan x="24.983866" y="153.24313" fill="#ff0000" font-family="'Arial Nova', 'Arial Unicode MS', 'Yu Gothic UI', sans-serif" font-size="10px" stroke="#000000" style="line-height:1.25">Y</tspan></text>
  </g>
  <g transform="translate(-243.07 368.71)">
   <ellipse transform="matrix(.9071 0 0 .90186 24.872 -1.1139)" cx="263.88" cy="-208.61" rx="3.8007" ry="3.8228" color="#000000" fill="#ffffff" stroke="#000000" stroke-linecap="round" stroke-linejoin="round" stroke-width=".7835"/>
   <ellipse transform="matrix(.81605 0 0 .73445 48.612 -50.299)" cx="264.23" cy="-189.2" rx=".4342" ry=".48244" color="#000000" fill="#000000"/>
  </g>
 </g>
 <g fill="#739ba5" stroke-linecap="round" stroke-linejoin="round">
  <circle cx="107.22" cy="49.693" r="5.4137" fill-rule="evenodd" stroke="#7ab51d" stroke-width=".25912"/>
  <path d="m107.22 52.885v-6.385" stroke="#ffcc00" stroke-width=".46875"/>
  <path d="m104.03 49.693h6.385" stroke="#ffcc00" stroke-width=".46875"/>
  <circle cx="139.49" cy="49.71" r="5.4137" fill-rule="evenodd" stroke="#7ab51d" stroke-width=".25912"/>
  <path d="m139.49 52.903v-6.385" stroke="#ffcc00" stroke-width=".46875"/>
  <path d="m136.3 49.71h6.385" stroke="#ffcc00" stroke-width=".46875"/>
 </g>
 <g transform="matrix(.18847 -.1857 .1857 .18847 -32.832 41.964)" fill="#000000" stroke="#000000" stroke-linecap="round" stroke-linejoin="round">
  <path d="m286.93 392.47h67.164" stroke-width=".63425"/>
  <path d="m354.32 392.29-11.786-3.9286v8.2143z" stroke-width=".99921"/>
 </g>
 <g transform="matrix(-.1849 -.18926 .18926 -.1849 131.17 189.7)" fill="#000000" stroke="#000000" stroke-linecap="round" stroke-linejoin="round">
  <path d="m286.93 392.47h67.164" stroke-width=".63425"/>
  <path d="m354.32 392.29-11.786-3.9286v8.2143z" stroke-width=".99921"/>
 </g>
 <path d="m139.49 49.707-32.114-0.02233" fill="#ff0000" stroke="#800080" stroke-linecap="round" stroke-width=".28125"/>
 <g transform="matrix(.26458 0 0 .26458 -5.4004 -11.8)" fill="#000000" font-family="'Arial Nova', 'Arial Unicode MS', 'Yu Gothic UI', sans-serif" letter-spacing="0px" word-spacing="0px">
  <text x="409.39279" y="182.35605" style="line-height:0%" xml:space="preserve"><tspan x="409.39279" y="182.35605" font-size="12px" style="line-height:1.25">X= -15</tspan></text>
  <text x="409.36365" y="194.28119" style="line-height:0%" xml:space="preserve"><tspan x="409.36365" y="194.28119" font-size="12px" style="line-height:1.25">Y= -15</tspan></text>
  <text x="409.49734" y="206.20631" style="line-height:0%" xml:space="preserve"><tspan x="409.49734" y="206.20631" font-size="12px" style="line-height:1.25">Z= -  8</tspan></text>
 </g>
 <g transform="matrix(.26458 0 0 .26458 -5.4004 -11.8)" fill="#000000" font-family="'Arial Nova', 'Arial Unicode MS', 'Yu Gothic UI', sans-serif" letter-spacing="0px" word-spacing="0px">
  <text x="529.86908" y="182.44" style="line-height:0%" xml:space="preserve"><tspan x="529.86908" y="182.44" font-size="12px" style="line-height:1.25">X=  15</tspan></text>
  <text x="529.8399" y="194.4221" style="line-height:0%" xml:space="preserve"><tspan x="529.8399" y="194.4221" font-size="12px" style="line-height:1.25">Y= -15</tspan></text>
  <text x="529.83154" y="206.40421" style="line-height:0%" xml:space="preserve"><tspan x="529.83154" y="206.40421" font-size="12px" style="line-height:1.25">Z= -  8</tspan></text>
 </g>
 <g>
  <circle cx="122.89" cy="49.479" r="3.251" fill="#c8c8c8" opacity=".58064" stroke="#000000" stroke-linecap="round" stroke-linejoin="round" stroke-width=".16781"/>
  <path d="m123.12 53.986-0.0313 2.004-6.5183-0.10934-0.0268 1.7371 6.5699 0.0195 8e-3 1.8547 5.4493-2.6695z" fill="#ffffff" stroke="#000000" stroke-linecap="round" stroke-linejoin="round" stroke-width=".16781"/>
  <rect x="13.86" y="6.9336" width="53.863" height="53.674" fill="url(#linearGradient23856-4)" fill-rule="evenodd" stroke="#4d4d4d" stroke-width=".26345"/>
 </g>
 <g transform="matrix(.26458 0 0 .26458 35.055 -14.312)">
  <g stroke="#000000">
   <g stroke-linecap="round" stroke-linejoin="round" stroke-width=".70866">
    <path d="m21.117 152.54 0.11958 27.151" fill="#800080"/>
    <path d="m21.149 146.01 3.4666 14.35h-6.9332c1.228-7.2721 3.4666-14.35 3.4666-14.35z" fill="#ffffff"/>
    <path d="m43.911 179.63-22.523-0.0967" fill="#800080"/>
    <path d="m51.965 179.65-14.355 3.4439 0.011-6.9332z" fill="#ffffff"/>
   </g>
   <text x="45.019936" y="175.30176" fill="#000000" font-family="'Arial Nova', 'Arial Unicode MS', 'Yu Gothic UI', sans-serif" letter-spacing="0px" word-spacing="0px" style="line-height:0%" xml:space="preserve"><tspan x="45.019936" y="175.30176" fill="#ff0000" font-family="'Arial Nova', 'Arial Unicode MS', 'Yu Gothic UI', sans-serif" font-size="10px" stroke="#000000" style="line-height:1.25">X</tspan></text>
   <text x="24.983866" y="153.24313" fill="#000000" font-family="'Arial Nova', 'Arial Unicode MS', 'Yu Gothic UI', sans-serif" letter-spacing="0px" word-spacing="0px" style="line-height:0%" xml:space="preserve"><tspan x="24.983866" y="153.24313" fill="#ff0000" font-family="'Arial Nova', 'Arial Unicode MS', 'Yu Gothic UI', sans-serif" font-size="10px" stroke="#000000" style="line-height:1.25">Y</tspan></text>
  </g>
  <g transform="translate(-243.07 368.71)">
   <ellipse transform="matrix(.9071 0 0 .90186 24.872 -1.1139)" cx="263.88" cy="-208.61" rx="3.8007" ry="3.8228" color="#000000" fill="#ffffff" stroke="#000000" stroke-linecap="round" stroke-linejoin="round" stroke-width=".7835"/>
   <ellipse transform="matrix(.81605 0 0 .73445 48.612 -50.299)" cx="264.23" cy="-189.2" rx=".4342" ry=".48244" color="#000000" fill="#000000"/>
  </g>
 </g>
 <g fill="#739ba5" stroke-linecap="round" stroke-linejoin="round">
  <circle cx="24.855" cy="49.782" r="5.4137" fill-rule="evenodd" stroke="#7ab51d" stroke-width=".25912"/>
  <path d="m24.855 52.975v-6.385" stroke="#ffcc00" stroke-width=".46875"/>
  <path d="m21.662 49.782h6.385" stroke="#ffcc00" stroke-width=".46875"/>
  <circle cx="57.121" cy="49.8" r="5.4137" fill-rule="evenodd" stroke="#7ab51d" stroke-width=".25912"/>
  <path d="m57.121 52.992v-6.385" stroke="#ffcc00" stroke-width=".46875"/>
  <path d="m53.929 49.8h6.385" stroke="#ffcc00" stroke-width=".46875"/>
 </g>
 <g transform="matrix(.18847 -.1857 .1857 .18847 -115.2 42.053)" fill="#000000" stroke="#000000" stroke-linecap="round" stroke-linejoin="round">
  <path d="m286.93 392.47h67.164" stroke-width=".63425"/>
  <path d="m354.32 392.29-11.786-3.9286v8.2143z" stroke-width=".99921"/>
 </g>
 <g transform="matrix(-.1849 -.18926 .18926 -.1849 48.798 189.79)" fill="#000000" stroke="#000000" stroke-linecap="round" stroke-linejoin="round">
  <path d="m286.93 392.47h67.164" stroke-width=".63425"/>
  <path d="m354.32 392.29-11.786-3.9286v8.2143z" stroke-width=".99921"/>
 </g>
 <path d="m57.121 49.796-32.114-0.0223" fill="#ff0000" stroke="#800080" stroke-linecap="round" stroke-width=".28125"/>
 <g transform="matrix(.26458 0 0 .26458 -87.768 -11.711)" fill="#000000" font-family="'Arial Nova', 'Arial Unicode MS', 'Yu Gothic UI', sans-serif" letter-spacing="0px" word-spacing="0px">
  <text x="409.39279" y="182.35605" style="line-height:0%" xml:space="preserve"><tspan x="409.39279" y="182.35605" font-size="12px" style="line-height:1.25">X= -15</tspan></text>
  <text x="409.36365" y="194.28119" style="line-height:0%" xml:space="preserve"><tspan x="409.36365" y="194.28119" font-size="12px" style="line-height:1.25">Y= -15</tspan></text>
  <text x="409.49734" y="206.20631" style="line-height:0%" xml:space="preserve"><tspan x="409.49734" y="206.20631" font-size="12px" style="line-height:1.25">Z= -  8</tspan></text>
 </g>
 <g transform="matrix(.26458 0 0 .26458 -87.768 -11.711)" fill="#000000" font-family="'Arial Nova', 'Arial Unicode MS', 'Yu Gothic UI', sans-serif" letter-spacing="0px" word-spacing="0px">
  <text x="529.86908" y="182.44" style="line-height:0%" xml:space="preserve"><tspan x="529.86908" y="182.44" font-size="12px" style="line-height:1.25">X=  15</tspan></text>
  <text x="529.8399" y="194.4221" style="line-height:0%" xml:space="preserve"><tspan x="529.8399" y="194.4221" font-size="12px" style="line-height:1.25">Y= -15</tspan></text>
  <text x="529.83154" y="206.40421" style="line-height:0%" xml:space="preserve"><tspan x="529.83154" y="206.40421" font-size="12px" style="line-height:1.25">Z= -  8</tspan></text>
 </g>
 <circle cx="40.524" cy="49.568" r="3.251" fill="#c8c8c8" opacity=".58064" stroke="#000000" stroke-linecap="round" stroke-linejoin="round" stroke-width=".16781"/>
 <path d="m40.751 54.076-0.03135 2.004-6.5183-0.10934-0.02682 1.7371 6.5699 0.0195 0.0079 1.8547 5.4493-2.6695z" fill="#ffffff" stroke="#000000" stroke-linecap="round" stroke-linejoin="round" stroke-width=".16781"/>
 <g transform="matrix(.26458 0 0 .26458 20.935 91.789)">
  <ellipse cx="-44.92" cy="-98.798" rx="13.199" ry="13.469" fill="#1f638a" stroke-linecap="round" stroke-linejoin="round" stroke-width="1.0658"/>
  <text x="-50.761276" y="-91.125885" fill="#000000" letter-spacing="0px" word-spacing="0px" style="line-height:0%" xml:space="preserve"><tspan x="-50.761276" y="-91.125885" fill="#ffffff" font-family="'Arial Nova', 'Arial Unicode MS', 'Yu Gothic UI', sans-serif" font-size="20px" stroke="#ffffff" stroke-width="1.0667" style="line-height:1.25">1</tspan></text>
 </g>
 <g transform="matrix(.26458 0 0 .26458 76.713 91.748)">
  <ellipse cx="-13.718" cy="-98.798" rx="13.199" ry="13.469" fill="#1f638a" stroke-linecap="round" stroke-linejoin="round" stroke-width="1.0658"/>
  <text x="-19.559933" y="-91.125885" fill="#000000" letter-spacing="0px" word-spacing="0px" style="line-height:0%" xml:space="preserve"><tspan x="-19.559933" y="-91.125885" fill="#ffffff" font-family="'Arial Nova', 'Arial Unicode MS', 'Yu Gothic UI', sans-serif" font-size="20px" stroke="#ffffff" stroke-width="1.0667" style="line-height:1.25">2</tspan></text>
 </g>
 <g transform="matrix(.26458 0 0 .26458 95.018 91.862)">
  <ellipse cx="-13.718" cy="-98.798" rx="13.199" ry="13.469" fill="#1f638a" stroke-linecap="round" stroke-linejoin="round" stroke-width="1.0658"/>
  <text x="-19.559933" y="-91.125885" fill="#000000" letter-spacing="0px" word-spacing="0px" style="line-height:0%" xml:space="preserve"><tspan x="-19.559933" y="-91.125885" fill="#ffffff" font-family="'Arial Nova', 'Arial Unicode MS', 'Yu Gothic UI', sans-serif" font-size="20px" stroke="#ffffff" stroke-width="1.0667" style="line-height:1.25">2</tspan></text>
 </g>
 <g transform="matrix(.26458 0 0 .26458 167.46 91.712)">
  <ellipse cx="-44.92" cy="-98.798" rx="13.199" ry="13.469" fill="#1f638a" stroke-linecap="round" stroke-linejoin="round" stroke-width="1.0658"/>
  <text x="-50.761276" y="-91.125885" fill="#000000" letter-spacing="0px" word-spacing="0px" style="line-height:0%" xml:space="preserve"><tspan x="-50.761276" y="-91.125885" fill="#ffffff" font-family="'Arial Nova', 'Arial Unicode MS', 'Yu Gothic UI', sans-serif" font-size="20px" stroke="#ffffff" stroke-width="1.0667" style="line-height:1.25">1</tspan></text>
 </g>
</svg>
