<?xml version="1.0" encoding="UTF-8"?>
<svg width="13cm" height="6cm" version="1.1" xmlns="http://www.w3.org/2000/svg" xmlns:cc="http://creativecommons.org/ns#" xmlns:dc="http://purl.org/dc/elements/1.1/" xmlns:rdf="http://www.w3.org/1999/02/22-rdf-syntax-ns#" xmlns:xlink="http://www.w3.org/1999/xlink">
 <title>Abbildung für OPEN MIND Softwaredokumentation</title>
 <defs>
  <linearGradient id="linearGradient17780-7-4">
   <stop stop-color="#fff" offset="0"/>
   <stop stop-color="#00385e" offset="1"/>
  </linearGradient>
  <linearGradient id="linearGradient17174" x1="21.528" x2="293.06" y1="164.07" y2="164.07" gradientTransform="scale(1.0667)" gradientUnits="userSpaceOnUse" xlink:href="#linearGradient17780-7-4"/>
  <linearGradient id="linearGradient17182" x1="21.453" x2="150.99" y1="230.73" y2="230.73" gradientTransform="scale(1.0667)" gradientUnits="userSpaceOnUse" xlink:href="#linearGradient17780-7-4"/>
  <linearGradient id="linearGradient17190" x1="103.41" x2="378.88" y1="232.55" y2="236.12" gradientTransform="scale(1.0667)" gradientUnits="userSpaceOnUse" xlink:href="#linearGradient17780-7-4"/>
 </defs>
 <metadata>
  <rdf:RDF>
   <cc:Work rdf:about="">
    <dc:format>image/svg+xml</dc:format>
    <dc:type rdf:resource="http://purl.org/dc/dcmitype/StillImage"/>
    <dc:title>Abbildung für OPEN MIND Softwaredokumentation</dc:title>
    <dc:creator>
     <cc:Agent>
      <dc:title>OPEN MIND Technologies AG</dc:title>
     </cc:Agent>
    </dc:creator>
    <dc:rights>
     <cc:Agent>
      <dc:title>Alle Rechte vorbehalten.</dc:title>
     </cc:Agent>
    </dc:rights>
    <dc:publisher>
     <cc:Agent>
      <dc:title>Technische Redaktion</dc:title>
     </cc:Agent>
    </dc:publisher>
   </cc:Work>
  </rdf:RDF>
 </metadata>
 <g transform="translate(0 -113.39)">
  <g>
   <path d="m23.417 175.4 0.4407 95.595 136.47 45.826 0.20202-94.281z" fill="url(#linearGradient17182)" stroke="#4d4d4d" stroke-width="1.0667px"/>
   <path d="m311.41 174.59-0.12512 96.516-150.78 45.847-0.14624-94.934z" fill="url(#linearGradient17190)" stroke="#4d4d4d" stroke-width="1.0667px"/>
   <path d="m23.68 175.26 152.2-47.103 136 46.476-151.24 47.238z" fill="url(#linearGradient17174)" stroke="#800080" stroke-linecap="round" stroke-linejoin="round" stroke-width="1.4324"/>
  </g>
  <g fill="none" stroke-width="2.6457">
   <g stroke="#d4aa00">
    <g stroke-linecap="round">
     <path d="m312.85 205.28 9.6948 4.6364c2.8748 1.7531 2.96 3.0284-0.89837 5.0881l-150.72 53.618s-9.2861 4.6617-17.429 2.2857c-45.898-13.393-137.96-37.776-138.95-38.286-2.3669-1.2166-2.6992-2.2907-1.2381-3.7796 2.9783-2.0034 5.6184-2.6079 9-3.6966" opacity=".99663"/>
     <path d="m312.84 243.64 9.8629 5.1084c3.6389 2.3573 1.8404 4.1084-1.2869 5.5754l-150.72 49.577s-9.2861 4.6616-17.429 2.2856c-45.898-13.393-137.96-37.776-138.95-38.286-2.3669-1.2166-2.6992-2.2907-1.2381-3.7796 1.4611-1.4891 9.619-3.4585 9.619-3.4585"/>
     <path d="m328.73 176.87c-6.6002-0.57389-12.407 0.79931-16.868 2.7208l-141.7 51.463s-9.2861 4.6616-17.429 2.2857c-45.898-13.393-137.96-37.776-138.95-38.286-2.3669-1.2166-2.6992-2.2906-1.2381-3.7796 1.4611-1.489 9.5911-3.5142 9.5911-3.5142"/>
    </g>
    <path d="m311.42 264.66 10.873 3.4992c3.1628 1.5986 3.3724 3.2956-1.075 5.1478l-148.59 46.075s-9.2861 4.6617-17.429 2.2857c-45.898-13.393-137.42-44.241-138.41-44.751-2.3669-1.2166-2.6992-2.2907-1.2381-3.7796 1.4611-1.4891 7.2381-3.268 7.2381-3.268"/>
    <path d="m322.21 268.38 9.0268-0.94282"/>
   </g>
   <path d="m330.54 162.67-0.19048 105.52" stroke="#f00"/>
  </g>
 </g>
</svg>
