<?xml version="1.0" encoding="UTF-8"?>
<svg version="1.1" viewBox="0 0 680.31 264.57" xmlns="http://www.w3.org/2000/svg">
 <defs>
  <linearGradient id="p" x1="198.64" x2="-218.09" y1="69.281" y2="57.385" gradientTransform="matrix(1.1498 0 0 -1.1498 14.806 165.39)" gradientUnits="userSpaceOnUse">
   <stop stop-color="#ffffff" offset="0"/>
   <stop stop-color="#00385e" offset="1"/>
  </linearGradient>
  <linearGradient id="o" x1="-33.621" x2="198.83" y1="41.585" y2="62.522" gradientTransform="matrix(1.1498 0 0 -1.1498 14.775 165.45)" gradientUnits="userSpaceOnUse">
   <stop stop-color="#ffffff" offset="0"/>
   <stop stop-color="#00385e" offset="1"/>
  </linearGradient>
  <linearGradient id="n" x1="-21.958" x2="220.42" y1="42.565" y2="54.891" gradientTransform="matrix(1.1498 0 0 -1.1498 21.157 161.22)" gradientUnits="userSpaceOnUse">
   <stop stop-color="#ffffff" offset="0"/>
   <stop stop-color="#00385e" offset="1"/>
  </linearGradient>
  <clipPath id="z">
   <path d="m0 0h511v199h-511z"/>
  </clipPath>
  <linearGradient id="m" x1="178.28" x2="-90.371" y1="54.794" y2="46.728" gradientTransform="matrix(1.1498 0 0 -1.1498 21.428 161.22)" gradientUnits="userSpaceOnUse">
   <stop stop-color="#ffffff" offset="0"/>
   <stop stop-color="#00385e" offset="1"/>
  </linearGradient>
  <clipPath id="y">
   <path d="m0 0h511v199h-511z"/>
  </clipPath>
  <linearGradient id="l" x1="94.499" x2="279.57" y1="69.029" y2="70.435" gradientTransform="matrix(1.1498 0 0 1.1498 21.332 37.425)" gradientUnits="userSpaceOnUse">
   <stop stop-color="#ffffff" offset="0"/>
   <stop stop-color="#00385e" offset="1"/>
  </linearGradient>
  <clipPath id="x">
   <path d="m0 0h511v199h-511z"/>
  </clipPath>
  <linearGradient id="k" x1="33.183" x2="201.45" y1="61.102" y2="66.321" gradientTransform="matrix(1.1498 0 0 1.1498 21.254 37.5)" gradientUnits="userSpaceOnUse">
   <stop stop-color="#ffffff" offset="0"/>
   <stop stop-color="#00385e" offset="1"/>
  </linearGradient>
  <clipPath id="w">
   <path d="m0 0h511v199h-511z"/>
  </clipPath>
  <linearGradient id="j" x2="209.79" y1="78.132" y2="118.89" gradientTransform="matrix(1.1498 0 0 1.1498 14.903 32.79)" gradientUnits="userSpaceOnUse">
   <stop stop-color="#ffffff" offset="0"/>
   <stop stop-color="#00385e" offset="1"/>
  </linearGradient>
  <clipPath id="v">
   <path d="m0 0h511v199h-511z"/>
  </clipPath>
  <linearGradient id="i" x1="38.358" x2="287.85" y1="94.459" y2="136.07" gradientTransform="matrix(1.1498 0 0 1.1498 14.782 32.865)" gradientUnits="userSpaceOnUse">
   <stop stop-color="#ffffff" offset="0"/>
   <stop stop-color="#00385e" offset="1"/>
  </linearGradient>
  <linearGradient id="h" x1="198.64" x2="-218.09" y1="69.281" y2="57.385" gradientTransform="matrix(1.1498 0 0 -1.1498 260.39 165.38)" gradientUnits="userSpaceOnUse">
   <stop stop-color="#ffffff" offset="0"/>
   <stop stop-color="#00385e" offset="1"/>
  </linearGradient>
  <linearGradient id="g" x1="-33.621" x2="198.83" y1="41.585" y2="62.522" gradientTransform="matrix(1.1498 0 0 -1.1498 260.36 165.43)" gradientUnits="userSpaceOnUse">
   <stop stop-color="#ffffff" offset="0"/>
   <stop stop-color="#00385e" offset="1"/>
  </linearGradient>
  <linearGradient id="f" x1="-21.958" x2="220.42" y1="42.565" y2="54.891" gradientTransform="matrix(1.1498 0 0 -1.1498 266.74 161.21)" gradientUnits="userSpaceOnUse">
   <stop stop-color="#ffffff" offset="0"/>
   <stop stop-color="#00385e" offset="1"/>
  </linearGradient>
  <clipPath id="u">
   <path d="m0 0h511v199h-511z"/>
  </clipPath>
  <linearGradient id="e" x1="178.28" x2="-90.371" y1="54.794" y2="46.728" gradientTransform="matrix(1.1498 0 0 -1.1498 267.02 161.21)" gradientUnits="userSpaceOnUse">
   <stop stop-color="#ffffff" offset="0"/>
   <stop stop-color="#00385e" offset="1"/>
  </linearGradient>
  <clipPath id="t">
   <path d="m0 0h511v199h-511z"/>
  </clipPath>
  <linearGradient id="d" x1="94.499" x2="279.57" y1="69.029" y2="70.435" gradientTransform="matrix(1.1498 0 0 1.1498 266.92 37.432)" gradientUnits="userSpaceOnUse">
   <stop stop-color="#ffffff" offset="0"/>
   <stop stop-color="#00385e" offset="1"/>
  </linearGradient>
  <clipPath id="s">
   <path d="m0 0h511v199h-511z"/>
  </clipPath>
  <linearGradient id="c" x1="33.183" x2="201.45" y1="61.102" y2="66.321" gradientTransform="matrix(1.1498 0 0 1.1498 266.84 37.508)" gradientUnits="userSpaceOnUse">
   <stop stop-color="#ffffff" offset="0"/>
   <stop stop-color="#00385e" offset="1"/>
  </linearGradient>
  <clipPath id="r">
   <path d="m0 0h511v199h-511z"/>
  </clipPath>
  <linearGradient id="b" x2="209.79" y1="78.132" y2="118.89" gradientTransform="matrix(1.1498 0 0 1.1498 260.49 32.805)" gradientUnits="userSpaceOnUse">
   <stop stop-color="#ffffff" offset="0"/>
   <stop stop-color="#00385e" offset="1"/>
  </linearGradient>
  <clipPath id="q">
   <path d="m0 0h511v199h-511z"/>
  </clipPath>
  <linearGradient id="a" x1="44.9" x2="287.85" y1="88.789" y2="136.07" gradientTransform="matrix(1.1498 0 0 1.1498 260.37 32.88)" gradientUnits="userSpaceOnUse">
   <stop stop-color="#ffffff" offset="0"/>
   <stop stop-color="#00385e" offset="1"/>
  </linearGradient>
 </defs>
 <g transform="matrix(1.3333 0 0 1.3333 0 7.2808e-6)">
  <g>
   <g>
    <g>
     <path d="m127.44 33.273 102.32 52.629-0.024 68.434-102.3-53.981z" fill="url(#p)" fill-rule="evenodd" stroke="#4d4d00" stroke-linecap="round" stroke-linejoin="round" stroke-width=".50741"/>
    </g>
   </g>
   <g>
    <g>
     <path d="m15.23 62.102 112.18-28.887v67.078l-112.18 30.359z" fill="url(#o)" fill-rule="evenodd" stroke="#4d4d4d" stroke-linecap="round" stroke-linejoin="round" stroke-width=".50741"/>
    </g>
   </g>
   <g>
    <g>
     <path d="m59.469 111.94-0.035-43.122 70.703-18.445 0.039 41.82-70.637 19.934" fill="url(#n)" stroke="#4d4d4d" stroke-linecap="round" stroke-linejoin="round" stroke-width=".5074"/>
    </g>
   </g>
   <g>
    <g>
     <g clip-path="url(#z)" opacity=".89226">
      <g>
       <g>
        <path d="m130.41 92.176-70.355 19.793 70.054 34.41 70.469-18.215z" fill="#ee7f00" stroke="#4d4d4d" stroke-linecap="round" stroke-linejoin="round" stroke-width=".50741"/>
       </g>
      </g>
     </g>
    </g>
   </g>
   <g>
    <g>
     <path d="m130.34 50.492 70.312 36.242-0.16 41.504-70.113-35.925z" fill="url(#m)" stroke="#4d4d4d" stroke-linecap="round" stroke-linejoin="round" stroke-width=".50741"/>
    </g>
   </g>
   <g>
    <g>
     <g clip-path="url(#y)" opacity=".55">
      <g>
       <g>
        <g>
         <path d="m200.51 99.414-0.055 29.102-70.469 18.218 0.102-41.625 70.445-18.261-0.023 12.566" fill="url(#l)" stroke="#4d4d4d" stroke-linecap="round" stroke-linejoin="round" stroke-width=".50741"/>
        </g>
       </g>
      </g>
     </g>
    </g>
   </g>
   <g>
    <g>
     <g clip-path="url(#x)" opacity=".55">
      <g>
       <g>
        <g>
         <path d="m59.406 112.27v-43.578l70.602 36.489-0.106 41.625z" fill="url(#k)" stroke="#4d4d4d" stroke-linecap="round" stroke-linejoin="round" stroke-width=".50741"/>
        </g>
       </g>
      </g>
     </g>
    </g>
   </g>
   <g>
    <g>
     <g clip-path="url(#w)" opacity=".55">
      <g>
       <g>
        <g>
         <path d="m117.68 183.1-102.63-52.641v-68.305l102.63 52.391z" fill="url(#j)" fill-rule="evenodd" stroke="#4d4d4d" stroke-linecap="round" stroke-linejoin="round" stroke-width=".50741"/>
        </g>
       </g>
      </g>
     </g>
    </g>
   </g>
   <g>
    <g>
     <g clip-path="url(#v)" opacity=".55">
      <g>
       <g>
        <g>
         <path d="m117.56 183.17v-68.555l112.18-28.887-0.023 68.434z" fill="url(#i)" fill-rule="evenodd" stroke="#4d4d4d" stroke-linecap="round" stroke-linejoin="round" stroke-width=".50741"/>
        </g>
       </g>
      </g>
     </g>
    </g>
   </g>
   <g>
    <path d="m186.69 90.871 3.141 9.43h-6.57z" fill="#000000" stroke="#000000" stroke-linecap="round" stroke-linejoin="round" stroke-width=".79935"/>
   </g>
   <g>
    <path d="m186.55 90.949v77.727" fill="none" stroke="#000000" stroke-linecap="round" stroke-linejoin="round" stroke-width=".70866"/>
   </g>
   <g>
    <path d="m186.69 168.89 3.141-9.426h-6.57z" fill="#000000" stroke="#000000" stroke-linecap="round" stroke-linejoin="round" stroke-width=".79935"/>
   </g>
   <g>
    <g>
     <path d="m373.03 33.281 102.32 52.629-0.024 68.434-102.3-53.981z" fill="url(#h)" fill-rule="evenodd" stroke="#4d4d00" stroke-linecap="round" stroke-linejoin="round" stroke-width=".50741"/>
    </g>
   </g>
   <g>
    <g>
     <path d="m373 100.31-112.18 30.359v-68.551l112.18-28.89z" fill="url(#g)" fill-rule="evenodd" stroke="#4d4d4d" stroke-linecap="round" stroke-linejoin="round" stroke-width=".50741"/>
    </g>
   </g>
   <g>
    <g>
     <path d="m305.06 111.94-0.035-43.122 70.703-18.445 0.043 41.82-70.641 19.934" fill="url(#f)" stroke="#4d4d4d" stroke-linecap="round" stroke-linejoin="round" stroke-width=".5074"/>
    </g>
   </g>
   <g>
    <g>
     <g clip-path="url(#u)" opacity=".89226">
      <g>
       <g>
        <path d="m376 92.184-70.356 19.793 70.055 34.41 70.469-18.215z" fill="#ee7f00" stroke="#4d4d4d" stroke-linecap="round" stroke-linejoin="round" stroke-width=".50741"/>
       </g>
      </g>
     </g>
    </g>
   </g>
   <g>
    <g>
     <path d="m375.93 50.5 70.312 36.242-0.16 41.504-70.113-35.926z" fill="url(#e)" stroke="#4d4d4d" stroke-linecap="round" stroke-linejoin="round" stroke-width=".50741"/>
    </g>
   </g>
   <g>
    <g>
     <g clip-path="url(#t)" opacity=".55">
      <g>
       <g>
        <g>
         <path d="m446.09 99.422-0.059 29.101-70.469 18.219 0.106-41.625 70.445-18.262-0.023 12.567" fill="url(#d)" stroke="#4d4d4d" stroke-linecap="round" stroke-linejoin="round" stroke-width=".50741"/>
        </g>
       </g>
      </g>
     </g>
    </g>
   </g>
   <g>
    <g>
     <g clip-path="url(#s)" opacity=".55">
      <g>
       <g>
        <g>
         <path d="m305 112.28v-43.578l70.602 36.488-0.106 41.625z" fill="url(#c)" stroke="#4d4d4d" stroke-linecap="round" stroke-linejoin="round" stroke-width=".50741"/>
        </g>
       </g>
      </g>
     </g>
    </g>
   </g>
   <g>
    <g>
     <g clip-path="url(#r)" opacity=".55">
      <g>
       <g>
        <g>
         <path d="m260.63 62.168 102.63 52.391v68.554l-102.63-52.64z" fill="url(#b)" fill-rule="evenodd" stroke="#4d4d4d" stroke-linecap="round" stroke-linejoin="round" stroke-width=".50741"/>
        </g>
       </g>
      </g>
     </g>
    </g>
   </g>
   <g>
    <g>
     <g clip-path="url(#q)" opacity=".55">
      <g>
       <g>
        <g>
         <path d="m363.14 183.19v-68.555l112.19-28.887-0.023 68.434z" fill="url(#a)" fill-rule="evenodd" stroke="#4d4d4d" stroke-linecap="round" stroke-linejoin="round" stroke-width=".50741"/>
        </g>
       </g>
      </g>
     </g>
    </g>
   </g>
   <g>
    <path d="m383.64 79.988 31.484-9.25 31.293 16.09-33.473 8.777z" fill="#ee7f00" fill-rule="evenodd" stroke="#4d4d4d" stroke-miterlimit="10" stroke-width=".31044"/>
   </g>
   <g>
    <path d="m432.14 90.961v40.93" fill="none" stroke="#000000" stroke-linecap="round" stroke-linejoin="round" stroke-width=".70866"/>
   </g>
   <g>
    <path d="m432.28 90.887 3.145 9.426h-6.574z" fill="#000000" stroke="#000000" stroke-linecap="round" stroke-linejoin="round" stroke-width=".79935"/>
   </g>
   <path d="m195.27 25.18c0 5.578-4.434 10.101-9.899 10.101-5.469 0-9.898-4.523-9.898-10.101s4.429-10.102 9.898-10.102c5.465 0 9.899 4.524 9.899 10.102z" fill="#1f638a"/>
   <text transform="translate(180.99 30.933)" fill="#ffffff" font-family="'Arial Nova', 'Arial Unicode MS', 'Yu Gothic UI', sans-serif" font-size="16px" xml:space="preserve"><tspan x="0" y="0">1</tspan></text>
   <g>
    <path d="m186.99 30.934h-1.406v-8.969c-0.699 0.668-1.637 1.234-2.812 1.703v-1.359c1.613-0.782 2.718-1.743 3.312-2.891h0.906z" fill="none" stroke="#ffffff" stroke-width=".80002"/>
   </g>
   <path d="m448.31 25.18c0 5.578-4.43 10.101-9.899 10.101s-9.898-4.523-9.898-10.101 4.429-10.102 9.898-10.102 9.899 4.524 9.899 10.102z" fill="#1f638a"/>
   <text transform="translate(434.03 30.933)" fill="#ffffff" font-family="'Arial Nova', 'Arial Unicode MS', 'Yu Gothic UI', sans-serif" font-size="16px" xml:space="preserve"><tspan x="0" y="0">2</tspan></text>
   <g>
    <path d="m442.11 30.934h-7.578c0-0.645 0.223-1.297 0.672-1.954 0.445-0.664 1.289-1.5 2.531-2.5 0.75-0.601 1.422-1.234 2.016-1.89 0.594-0.664 0.891-1.336 0.891-2.016 0-0.57-0.203-1.047-0.61-1.422-0.406-0.382-0.922-0.578-1.547-0.578-0.636 0-1.168 0.199-1.593 0.594-0.43 0.387-0.641 0.965-0.641 1.734l-1.453-0.172c0.094-1.07 0.473-1.89 1.141-2.453 0.675-0.57 1.535-0.859 2.578-0.859 1.125 0 2 0.312 2.625 0.937s0.937 1.375 0.937 2.25c0 0.743-0.265 1.485-0.797 2.235-0.523 0.75-1.574 1.758-3.156 3.015-0.824 0.668-1.371 1.243-1.641 1.719h5.625z" fill="none" stroke="#ffffff" stroke-width=".80002"/>
   </g>
  </g>
 </g>
</svg>
