<?xml version="1.0" encoding="UTF-8"?>
<svg width="529.13" height="151.18" version="1.1" xmlns="http://www.w3.org/2000/svg" xmlns:cc="http://creativecommons.org/ns#" xmlns:dc="http://purl.org/dc/elements/1.1/" xmlns:rdf="http://www.w3.org/1999/02/22-rdf-syntax-ns#" xmlns:xlink="http://www.w3.org/1999/xlink">
 <title>Abbildung für OPEN MIND Softwaredokumentation</title>
 <defs>
  <linearGradient id="linearGradient4750" x1="-16.847" x2="526.94" y1="1004.3" y2="1001.4" gradientTransform="matrix(1.5724 0 0 1.5563 43.991 -449.01)" gradientUnits="userSpaceOnUse">
   <stop stop-color="#fff" offset="0"/>
   <stop stop-color="#00385e" offset="1"/>
  </linearGradient>
 </defs>
 <metadata>
  <rdf:RDF>
   <cc:Work rdf:about="">
    <dc:format>image/svg+xml</dc:format>
    <dc:type rdf:resource="http://purl.org/dc/dcmitype/StillImage"/>
    <dc:title>Abbildung für OPEN MIND Softwaredokumentation</dc:title>
    <dc:creator>
     <cc:Agent>
      <dc:title>OPEN MIND Technologies AG</dc:title>
     </cc:Agent>
    </dc:creator>
    <dc:rights>
     <cc:Agent>
      <dc:title>Alle Rechte vorbehalten.</dc:title>
     </cc:Agent>
    </dc:rights>
    <dc:publisher>
     <cc:Agent>
      <dc:title>Technische Redaktion</dc:title>
     </cc:Agent>
    </dc:publisher>
   </cc:Work>
  </rdf:RDF>
 </metadata>
 <g transform="translate(0 -971.34)">
  <path d="m509.11 1071.7v48.425h-431.56v-69.846l160.03 0.1346 0.0462 51.192 78.74-0.2558 0.35784-51.192 110.09 0.2001 0.53874 21.88z" fill="url(#linearGradient4750)" fill-rule="evenodd"/>
  <g transform="translate(-15.926 -86.243)" stroke="#333" stroke-linecap="round" stroke-linejoin="round" stroke-width=".53669">
   <ellipse cx="94.631" cy="1115.5" rx="17.172" ry="17.17" color="#000000" fill="#b3b3b3" fill-rule="evenodd"/>
   <path d="m94.631 1098.3v34.028" fill="none"/>
   <path d="m77.582 1115.5h34.206" fill="none"/>
  </g>
  <path d="m80.11 1049.2h159.12v52.16h75.83v-52.16h113.07v21.676h79.893" fill="none" stroke="#800080" stroke-linecap="round" stroke-linejoin="round" stroke-width="3.7795"/>
  <g>
   <text x="68.353302" y="1005.6113" fill="#000000" font-family="'Arial Nova', 'Arial Unicode MS', 'Yu Gothic UI', sans-serif" font-size="12.8px" letter-spacing="0px" stroke-width="1.0667" word-spacing="0px" style="line-height:0%" xml:space="preserve"><tspan x="68.353302" y="1005.6113" font-family="'Arial Nova', 'Arial Unicode MS', 'Yu Gothic UI', sans-serif" font-size="14.933px" stroke-width="1.0667" style="line-height:1.25">D8</tspan></text>
   <path d="m342.98 1047.9 4.1905 12.571h-8.7619z" stroke="#000" stroke-linecap="round" stroke-linejoin="round" stroke-width="1.0658"/>
   <text x="347.79315" y="1046.0724" fill="#000000" font-family="'Arial Nova', 'Arial Unicode MS', 'Yu Gothic UI', sans-serif" font-size="12.8px" letter-spacing="0px" stroke-width="1.0667" word-spacing="0px" style="line-height:0%" xml:space="preserve"><tspan x="347.79315" y="1046.0724" font-family="'Arial Nova', 'Arial Unicode MS', 'Yu Gothic UI', sans-serif" font-size="14.933px" stroke-width="1.0667" style="line-height:1.25">R3.75</tspan></text>
  </g>
  <g transform="translate(-4.2816 893.7)">
   <g stroke="#000" stroke-linecap="round" stroke-linejoin="round" stroke-width=".7559">
    <path d="m22.525 162.71 0.12755 28.961" fill="#800080"/>
    <path d="m22.559 155.75 3.6977 15.307h-7.3955c1.3098-7.7569 3.6977-15.307 3.6977-15.307z" fill="#fff"/>
    <path d="m46.839 191.61-24.024-0.10314" fill="#800080"/>
    <path d="m55.429 191.63-15.312 3.6735 0.01173-7.3955z" fill="#fff"/>
   </g>
   <text x="48.021263" y="186.98854" fill="#000000" font-family="'Arial Nova', 'Arial Unicode MS', 'Yu Gothic UI', sans-serif" font-size="12.8px" letter-spacing="0px" stroke="#000000" stroke-width="1.0667" word-spacing="0px" style="line-height:0%" xml:space="preserve"><tspan x="48.021263" y="186.98854" fill="#ff0000" font-family="'Arial Nova', 'Arial Unicode MS', 'Yu Gothic UI', sans-serif" font-size="10.667px" stroke="#000000" stroke-width="1.0667" style="line-height:1.25">X</tspan></text>
   <text x="26.649456" y="163.45934" fill="#000000" font-family="'Arial Nova', 'Arial Unicode MS', 'Yu Gothic UI', sans-serif" font-size="12.8px" letter-spacing="0px" stroke="#000000" stroke-width="1.0667" word-spacing="0px" style="line-height:0%" xml:space="preserve"><tspan x="26.649456" y="163.45934" fill="#ff0000" font-family="'Arial Nova', 'Arial Unicode MS', 'Yu Gothic UI', sans-serif" font-size="10.667px" stroke="#000000" stroke-width="1.0667" style="line-height:1.25">Y</tspan></text>
   <g transform="translate(-259.28 393.29)">
    <circle cx="281.86" cy="-201.87" r="3.6775" color="#000000" fill="#fff" stroke="#000" stroke-linecap="round" stroke-linejoin="round" stroke-width=".75591"/>
    <circle cx="281.86" cy="-201.87" r=".37795" color="#000000"/>
   </g>
  </g>
  <g stroke-linecap="round" stroke-linejoin="round">
   <g>
    <path d="m159.43 1051.4v21.575" color="#000000" fill="#1f638a" fill-rule="evenodd" stroke="#1f638a" stroke-width="1.8898"/>
    <path d="m97.83 1029.4h135.26c18.942 0.2324 23.424 4.9792 23.229 25.527v28.107s39.401-0.011 39.396 0l-0.11835-28.012c0.0289-16.174-2.2284-25.806 18.103-26.08h116.62c10.108 1.0502 20.232 4.7987 19.424 22.76l56.799-0.088" fill="none" stroke="#d4aa00" stroke-width="3.0236"/>
    <path d="m213.94 1010.5v22.631" color="#000000" fill="#1f638a" fill-rule="evenodd" stroke="#1f638a" stroke-width="1.8898"/>
    <path d="m162.54 1005.2v22.631" color="#000000" fill="#1f638a" fill-rule="evenodd" stroke="#1f638a" stroke-width="1.8898"/>
    <path d="m97.61 1033.4h135.26c18.942 0.2324 19.787 4.7098 19.593 25.258v28.108l47.149 0.2693v-28.416c0.29829-18.733-3.2957-26.377 18.178-26.079l112.67 0.2693c8.8287 0.7808 15.821 3.4403 15.283 22.883l60.961-0.044" fill="none" stroke="#d46d00" stroke-width="1.1339"/>
   </g>
   <path d="m342.78 1016.1v48.175" stroke="#000" stroke-width=".67654"/>
   <path d="m342.8 1032.6 4.1905-12.571h-8.7619z" stroke="#000" stroke-width="1.0658"/>
  </g>
  <g transform="translate(204.44 1177.2)">
   <ellipse cx="-44.92" cy="-98.798" rx="13.199" ry="13.469" fill="#1f638a" stroke-linecap="round" stroke-linejoin="round" stroke-width="1.0658"/>
   <text x="-50.761276" y="-91.125885" fill="#000000" font-family="'Arial Nova', 'Arial Unicode MS', 'Yu Gothic UI', sans-serif" font-size="12.8px" letter-spacing="0px" stroke-width="1.0667" word-spacing="0px" style="line-height:0%" xml:space="preserve"><tspan x="-50.761276" y="-91.125885" fill="#ffffff" font-family="'Arial Nova', 'Arial Unicode MS', 'Yu Gothic UI', sans-serif" font-size="21.333px" stroke="#ffffff" stroke-width="1.0667" style="line-height:1.25">1</tspan></text>
  </g>
  <g transform="translate(175.85 1101.5)">
   <ellipse cx="-13.718" cy="-98.798" rx="13.199" ry="13.469" fill="#1f638a" stroke-linecap="round" stroke-linejoin="round" stroke-width="1.0658"/>
   <text x="-19.559933" y="-91.125885" fill="#000000" font-family="'Arial Nova', 'Arial Unicode MS', 'Yu Gothic UI', sans-serif" font-size="12.8px" letter-spacing="0px" stroke-width="1.0667" word-spacing="0px" style="line-height:0%" xml:space="preserve"><tspan x="-19.559933" y="-91.125885" fill="#ffffff" font-family="'Arial Nova', 'Arial Unicode MS', 'Yu Gothic UI', sans-serif" font-size="21.333px" stroke="#ffffff" stroke-width="1.0667" style="line-height:1.25">2</tspan></text>
  </g>
  <g transform="translate(196.25 1107)">
   <ellipse cx="17.483" cy="-98.798" rx="13.199" ry="13.469" fill="#1f638a" stroke-linecap="round" stroke-linejoin="round" stroke-width="1.0658"/>
   <text x="11.641406" y="-91.256096" fill="#000000" font-family="'Arial Nova', 'Arial Unicode MS', 'Yu Gothic UI', sans-serif" font-size="12.8px" letter-spacing="0px" stroke-width="1.0667" word-spacing="0px" style="line-height:0%" xml:space="preserve"><tspan x="11.641406" y="-91.256096" fill="#ffffff" font-family="'Arial Nova', 'Arial Unicode MS', 'Yu Gothic UI', sans-serif" font-size="21.333px" stroke="#ffffff" stroke-width="1.0667" style="line-height:1.25">3</tspan></text>
  </g>
 </g>
</svg>
