<?xml version="1.0" encoding="UTF-8"?>
<svg width="680.32" height="340.16" version="1.1" xmlns="http://www.w3.org/2000/svg" xmlns:cc="http://creativecommons.org/ns#" xmlns:dc="http://purl.org/dc/elements/1.1/" xmlns:rdf="http://www.w3.org/1999/02/22-rdf-syntax-ns#" xmlns:xlink="http://www.w3.org/1999/xlink">
 <title>Abbildung fuer OPEN MIND Softwaredokumentation</title>
 <defs>
  <linearGradient id="linearGradient4787" x1="207.46" x2="1172.7" y1="927.15" y2="1886.4" gradientTransform="matrix(.4311 -.42977 0 .60757 -12.371 461.44)" gradientUnits="userSpaceOnUse" xlink:href="#linearGradient17780-7"/>
  <linearGradient id="linearGradient4790" x1="-1168.5" x2="-1178.3" y1="-718.95" y2="-2093.9" gradientTransform="matrix(.43217 -.42706 -.60757 0 31.436 367.59)" gradientUnits="userSpaceOnUse">
   <stop stop-color="#fff" offset="0"/>
   <stop stop-color="#00385e" offset="1"/>
  </linearGradient>
  <linearGradient id="linearGradient4795" x1="-15.218" x2="625.33" y1="824.25" y2="836.43" gradientTransform="matrix(.60982 0 0 .60872 -11.838 460.81)" gradientUnits="userSpaceOnUse" xlink:href="#linearGradient17780-7"/>
  <linearGradient id="linearGradient17780-7">
   <stop stop-color="#fff" offset="0"/>
   <stop stop-color="#00385e" offset="1"/>
  </linearGradient>
 </defs>
 <metadata>
  <rdf:RDF>
   <cc:Work rdf:about="">
    <dc:format>image/svg+xml</dc:format>
    <dc:type rdf:resource="http://purl.org/dc/dcmitype/StillImage"/>
    <dc:title>Abbildung fuer OPEN MIND Softwaredokumentation</dc:title>
    <dc:creator>
     <cc:Agent>
      <dc:title>OPEN MIND Technologies AG</dc:title>
     </cc:Agent>
    </dc:creator>
    <dc:rights>
     <cc:Agent>
      <dc:title>Alle Rechte vorbehalten.</dc:title>
     </cc:Agent>
    </dc:rights>
    <dc:publisher>
     <cc:Agent>
      <dc:title>Technische Redaktion</dc:title>
     </cc:Agent>
    </dc:publisher>
   </cc:Work>
  </rdf:RDF>
 </metadata>
 <g transform="translate(0 -782.36)">
  <text x="428.79999" y="900.65302" fill="#000000" font-family="'Century Gothic'" font-size="12.8px" font-weight="bold" letter-spacing="0px" stroke-width="1.0667" word-spacing="0px" style="line-height:0%" xml:space="preserve"><tspan x="428.79999" y="900.65302" font-size="9.6px" stroke-width="1.0667" style="line-height:1.25"> </tspan></text>
  <g stroke-linecap="round" stroke-linejoin="round">
   <path d="m33.52 966.71 68.417-22.125" color="#000000" fill="none" stroke="#808080" stroke-dasharray="1.13386, 1.13386" stroke-width=".37795"/>
   <path d="m32.056 846.56 69.875 97.82 1.1783 121.24-69.534-98.553z" color="#000000" fill="url(#linearGradient4795)" fill-rule="evenodd" stroke="#7d7d7d" stroke-miterlimit="10" stroke-width=".67654"/>
   <path d="m178.83 798.09 1.6165 121.36" color="#000000" fill="none" stroke="#808080" stroke-dasharray="1.13386, 1.13386" stroke-width=".37795"/>
   <path d="m250.68 1017.3-70.344-98.447" color="#000000" fill="none" stroke="#808080" stroke-dasharray="1.13386, 1.13386" stroke-width=".37795"/>
   <path d="m101.94 944.59 147.62-48.12-70.689-98.536-146.73 48.593z" color="#000000" fill="url(#linearGradient4790)" fill-rule="evenodd" stroke="#7d7d7d" stroke-miterlimit="10" stroke-width=".67654"/>
   <path d="m101.86 944.53 147.68-47.979 1.1278 120.84-147.57 48.303z" color="#000000" fill="url(#linearGradient4787)" fill-rule="evenodd" stroke="#7d7d7d" stroke-miterlimit="10" stroke-width=".67654"/>
  </g>
  <g transform="matrix(.5696 0 0 .5696 23.299 893.03)" stroke="#16434a" stroke-linecap="round" stroke-linejoin="round" stroke-width=".66354">
   <path d="m331.56 174.09c0.96404 0.99782 1.5092 2.3611 1.4947 4.0267-0.0437 5.0329-5.1806 10.92-11.473 13.15-4.9088 1.7393-9.071 0.73901-10.644-2.1741 0 0-13.637-18.619-13.193-17.797 1.5726 2.9131 5.7348 3.9134 10.644 2.1741 6.2928-2.2297 11.43-8.1172 11.473-13.15 0.0145-1.6656-0.53065-3.0289-1.4947-4.0267-1.949-2.0172 13.193 17.797 13.193 17.797z" color="#000000" fill="#739ba5"/>
   <path d="m318.41 156.33c-1.949-2.0172-5.61-2.5408-9.8202-1.049-6.2928 2.2297-11.43 8.1172-11.473 13.15-0.01 1.1069 0.2279 2.0803 0.67129 2.9016 0 0 14.772 20.646 13.2 17.733-0.44338-0.82133-0.68092-1.7947-0.6713-2.9016 0.0437-5.033 5.1806-10.92 11.473-13.15 4.2102-1.4918 7.8712-0.96823 9.8202 1.049 0.96404 0.99782-13.2-17.733-13.2-17.733z" color="#000000" fill="#739ba5"/>
   <path d="m318.92 156.99c0.65646 0.92203 1.017 2.0795 1.0052 3.4381-0.0437 5.0329-5.1806 10.92-11.473 13.15-4.7118 1.6695-8.7357 0.81489-10.442-1.8326" color="#000000" fill="none" stroke-dasharray="1.32708, 1.32708" stroke-dashoffset=".53083"/>
   <path d="m333.06 178.12c-0.0437 5.033-5.1806 10.92-11.473 13.15-4.9088 1.7393-9.071 0.73901-10.644-2.1741-0.44339-0.82133-0.68092-1.7947-0.6713-2.9016 0.0437-5.033 5.1806-10.92 11.473-13.15 4.2102-1.4918 7.8712-0.96822 9.8202 1.049 0.96404 0.99782 1.5092 2.3611 1.4947 4.0267z" color="#000000" fill="#739ba5"/>
  </g>
  <g transform="matrix(.5696 0 0 .5696 35.379 865.04)" stroke="#16434a" stroke-linecap="round" stroke-linejoin="round" stroke-width=".66354">
   <path d="m331.56 174.09c0.96404 0.99782 1.5092 2.3611 1.4947 4.0267-0.0437 5.0329-5.1806 10.92-11.473 13.15-4.9088 1.7393-9.071 0.73901-10.644-2.1741 0 0-13.637-18.619-13.193-17.797 1.5726 2.9131 5.7348 3.9134 10.644 2.1741 6.2928-2.2297 11.43-8.1172 11.473-13.15 0.0145-1.6656-0.53065-3.0289-1.4947-4.0267-1.949-2.0172 13.193 17.797 13.193 17.797z" color="#000000" fill="#739ba5"/>
   <path d="m318.41 156.33c-1.949-2.0172-5.61-2.5408-9.8202-1.049-6.2928 2.2297-11.43 8.1172-11.473 13.15-0.01 1.1069 0.2279 2.0803 0.67129 2.9016 0 0 14.772 20.646 13.2 17.733-0.44338-0.82133-0.68092-1.7947-0.6713-2.9016 0.0437-5.033 5.1806-10.92 11.473-13.15 4.2102-1.4918 7.8712-0.96823 9.8202 1.049 0.96404 0.99782-13.2-17.733-13.2-17.733z" color="#000000" fill="#739ba5"/>
   <path d="m318.92 156.99c0.65646 0.92203 1.017 2.0795 1.0052 3.4381-0.0437 5.0329-5.1806 10.92-11.473 13.15-4.7118 1.6695-8.7357 0.81489-10.442-1.8326" color="#000000" fill="none" stroke-dasharray="1.32708, 1.32708" stroke-dashoffset=".53083"/>
   <path d="m333.06 178.12c-0.0437 5.033-5.1806 10.92-11.473 13.15-4.9088 1.7393-9.071 0.73901-10.644-2.1741-0.44339-0.82133-0.68092-1.7947-0.6713-2.9016 0.0437-5.033 5.1806-10.92 11.473-13.15 4.2102-1.4918 7.8712-0.96822 9.8202 1.049 0.96404 0.99782 1.5092 2.3611 1.4947 4.0267z" color="#000000" fill="#739ba5"/>
  </g>
  <g transform="matrix(.5696 0 0 .5696 -6.3865 913.3)" stroke="#16434a" stroke-linecap="round" stroke-linejoin="round" stroke-width=".66354">
   <path d="m331.56 174.09c0.96404 0.99782 1.5092 2.3611 1.4947 4.0267-0.0437 5.0329-5.1806 10.92-11.473 13.15-4.9088 1.7393-9.071 0.73901-10.644-2.1741 0 0-13.637-18.619-13.193-17.797 1.5726 2.9131 5.7348 3.9134 10.644 2.1741 6.2928-2.2297 11.43-8.1172 11.473-13.15 0.0145-1.6656-0.53065-3.0289-1.4947-4.0267-1.949-2.0172 13.193 17.797 13.193 17.797z" color="#000000" fill="#739ba5"/>
   <path d="m318.41 156.33c-1.949-2.0172-5.61-2.5408-9.8202-1.049-6.2928 2.2297-11.43 8.1172-11.473 13.15-0.01 1.1069 0.2279 2.0803 0.67129 2.9016 0 0 14.772 20.646 13.2 17.733-0.44338-0.82133-0.68092-1.7947-0.6713-2.9016 0.0437-5.033 5.1806-10.92 11.473-13.15 4.2102-1.4918 7.8712-0.96823 9.8202 1.049 0.96404 0.99782-13.2-17.733-13.2-17.733z" color="#000000" fill="#739ba5"/>
   <path d="m318.92 156.99c0.65646 0.92203 1.017 2.0795 1.0052 3.4381-0.0437 5.0329-5.1806 10.92-11.473 13.15-4.7118 1.6695-8.7357 0.81489-10.442-1.8326" color="#000000" fill="none" stroke-dasharray="1.32708, 1.32708" stroke-dashoffset=".53083"/>
   <path d="m333.06 178.12c-0.0437 5.033-5.1806 10.92-11.473 13.15-4.9088 1.7393-9.071 0.73901-10.644-2.1741-0.44339-0.82133-0.68092-1.7947-0.6713-2.9016 0.0437-5.033 5.1806-10.92 11.473-13.15 4.2102-1.4918 7.8712-0.96822 9.8202 1.049 0.96404 0.99782 1.5092 2.3611 1.4947 4.0267z" color="#000000" fill="#739ba5"/>
  </g>
  <g transform="matrix(.5696 0 0 .5696 -54.415 903.53)" stroke="#16434a" stroke-linecap="round" stroke-linejoin="round" stroke-width=".66354">
   <g>
    <path d="m431.64 96.509c-0.17521 20.145-20.736 43.71-45.924 52.635-17.378 6.1574-32.418 3.7368-40.017-4.9723-3.4148-3.9139-5.3267-9.0978-5.2724-15.344 0.17521-20.145 20.736-43.71 45.924-52.635 18.488-6.5507 34.33-3.3925 41.38 6.7175 2.555 3.6637 3.9554 8.2404 3.9088 13.599z" color="#000000" fill="#739ba5"/>
    <path d="m345.58 144.25c7.5986 8.709 22.639 11.13 40.017 4.9723 25.188-8.9245 45.748-32.49 45.924-52.635 0.0466-5.3584-1.3538-9.9351-3.9088-13.599l16.165 22.649c4.2092 5.9562 8.6719 11.865 7.3543 18.857-0.17521 20.145-20.736 43.71-45.924 52.635-17.378 6.1574-32.418 3.7368-40.017-4.9723z" color="#000000" fill="#739ba5"/>
    <path d="m451.36 124.43c-0.17521 20.145-20.736 43.71-45.924 52.635-17.378 6.1574-32.418 3.7368-40.017-4.9723-3.4148-3.9139-5.3267-9.0978-5.2724-15.344 0.17521-20.145 20.736-43.71 45.924-52.635 18.488-6.5507 34.33-3.3925 41.38 6.7175 2.555 3.6637 3.9554 8.2404 3.9088 13.599z" color="#000000" fill="none"/>
    <path d="m451.32 124.22c0.51802-4.4156-1.3538-9.9351-3.9088-13.599-7.0504-10.11-22.892-13.268-41.38-6.7175-25.188 8.9245-45.748 32.49-45.924 52.635-0.0543 6.2462 1.8576 11.43 5.2724 15.344l-19.799-27.719c-3.4148-3.9139-5.3267-9.0978-5.2724-15.344 0.17521-20.145 20.736-43.71 45.924-52.635 18.488-6.5507 34.33-3.3925 41.38 6.7175l19.827 27.68c4.0247 7.0741 3.7725 7.6161 3.8811 13.638z" color="#000000" fill="#739ba5"/>
   </g>
   <path d="m431.55 96.558c-0.17521 20.145-20.736 43.71-45.924 52.635-17.378 6.1574-32.418 3.7368-40.017-4.9723-3.4148-3.9139-5.3267-9.0978-5.2724-15.344 0.17521-20.145 20.736-43.71 45.924-52.635 18.488-6.5507 34.33-3.3925 41.38 6.7175 2.555 3.6637 3.9554 8.2404 3.9088 13.599z" color="#000000" fill="none" stroke-dasharray="1.99061, 1.99061"/>
  </g>
  <g transform="matrix(.5696 0 0 .5696 -6.7394 844.81)" stroke="#16434a" stroke-linecap="round" stroke-linejoin="round" stroke-width=".66354">
   <path d="m331.56 174.09c0.96404 0.99782 1.5092 2.3611 1.4947 4.0267-0.0437 5.0329-5.1806 10.92-11.473 13.15-4.9088 1.7393-9.071 0.73901-10.644-2.1741 0 0-13.637-18.619-13.193-17.797 1.5726 2.9131 5.7348 3.9134 10.644 2.1741 6.2928-2.2297 11.43-8.1172 11.473-13.15 0.0145-1.6656-0.53065-3.0289-1.4947-4.0267-1.949-2.0172 13.193 17.797 13.193 17.797z" color="#000000" fill="#739ba5"/>
   <path d="m318.41 156.33c-1.949-2.0172-5.61-2.5408-9.8202-1.049-6.2928 2.2297-11.43 8.1172-11.473 13.15-0.01 1.1069 0.2279 2.0803 0.67129 2.9016 0 0 14.772 20.646 13.2 17.733-0.44338-0.82133-0.68092-1.7947-0.6713-2.9016 0.0437-5.033 5.1806-10.92 11.473-13.15 4.2102-1.4918 7.8712-0.96823 9.8202 1.049 0.96404 0.99782-13.2-17.733-13.2-17.733z" color="#000000" fill="#739ba5"/>
   <path d="m318.92 156.99c0.65646 0.92203 1.017 2.0795 1.0052 3.4381-0.0437 5.0329-5.1806 10.92-11.473 13.15-4.7118 1.6695-8.7357 0.81489-10.442-1.8326" color="#000000" fill="none" stroke-dasharray="1.32708, 1.32708" stroke-dashoffset=".53083"/>
   <path d="m333.06 178.12c-0.0437 5.033-5.1806 10.92-11.473 13.15-4.9088 1.7393-9.071 0.73901-10.644-2.1741-0.44339-0.82133-0.68092-1.7947-0.6713-2.9016 0.0437-5.033 5.1806-10.92 11.473-13.15 4.2102-1.4918 7.8712-0.96822 9.8202 1.049 0.96404 0.99782 1.5092 2.3611 1.4947 4.0267z" color="#000000" fill="#739ba5"/>
  </g>
  <g transform="matrix(.5696 0 0 .5696 -47.321 892.14)" stroke="#16434a" stroke-linecap="round" stroke-linejoin="round" stroke-width=".66354">
   <path d="m331.56 174.09c0.96404 0.99782 1.5092 2.3611 1.4947 4.0267-0.0437 5.0329-5.1806 10.92-11.473 13.15-4.9088 1.7393-9.071 0.73901-10.644-2.1741 0 0-13.637-18.619-13.193-17.797 1.5726 2.9131 5.7348 3.9134 10.644 2.1741 6.2928-2.2297 11.43-8.1172 11.473-13.15 0.0145-1.6656-0.53065-3.0289-1.4947-4.0267-1.949-2.0172 13.193 17.797 13.193 17.797z" color="#000000" fill="#739ba5"/>
   <path d="m318.41 156.33c-1.949-2.0172-5.61-2.5408-9.8202-1.049-6.2928 2.2297-11.43 8.1172-11.473 13.15-0.01 1.1069 0.2279 2.0803 0.67129 2.9016 0 0 14.772 20.646 13.2 17.733-0.44338-0.82133-0.68092-1.7947-0.6713-2.9016 0.0437-5.033 5.1806-10.92 11.473-13.15 4.2102-1.4918 7.8712-0.96823 9.8202 1.049 0.96404 0.99782-13.2-17.733-13.2-17.733z" color="#000000" fill="#739ba5"/>
   <path d="m318.92 156.99c0.65646 0.92203 1.017 2.0795 1.0052 3.4381-0.0437 5.0329-5.1806 10.92-11.473 13.15-4.7118 1.6695-8.7357 0.81489-10.442-1.8326" color="#000000" fill="none" stroke-dasharray="1.32708, 1.32708" stroke-dashoffset=".53083"/>
   <path d="m333.06 178.12c-0.0437 5.033-5.1806 10.92-11.473 13.15-4.9088 1.7393-9.071 0.73901-10.644-2.1741-0.44339-0.82133-0.68092-1.7947-0.6713-2.9016 0.0437-5.033 5.1806-10.92 11.473-13.15 4.2102-1.4918 7.8712-0.96822 9.8202 1.049 0.96404 0.99782 1.5092 2.3611 1.4947 4.0267z" color="#000000" fill="#739ba5"/>
  </g>
  <g transform="matrix(.5696 0 0 .5696 -35.414 912.53)" stroke="#16434a" stroke-linecap="round" stroke-linejoin="round" stroke-width=".66354">
   <path d="m331.56 174.09c0.96404 0.99782 1.5092 2.3611 1.4947 4.0267-0.0437 5.0329-5.1806 10.92-11.473 13.15-4.9088 1.7393-9.071 0.73901-10.644-2.1741 0 0-13.637-18.619-13.193-17.797 1.5726 2.9131 5.7348 3.9134 10.644 2.1741 6.2928-2.2297 11.43-8.1172 11.473-13.15 0.0145-1.6656-0.53065-3.0289-1.4947-4.0267-1.949-2.0172 13.193 17.797 13.193 17.797z" color="#000000" fill="#739ba5"/>
   <path d="m318.41 156.33c-1.949-2.0172-5.61-2.5408-9.8202-1.049-6.2928 2.2297-11.43 8.1172-11.473 13.15-0.01 1.1069 0.2279 2.0803 0.67129 2.9016 0 0 14.772 20.646 13.2 17.733-0.44338-0.82133-0.68092-1.7947-0.6713-2.9016 0.0437-5.033 5.1806-10.92 11.473-13.15 4.2102-1.4918 7.8712-0.96823 9.8202 1.049 0.96404 0.99782-13.2-17.733-13.2-17.733z" color="#000000" fill="#739ba5"/>
   <path d="m318.92 156.99c0.65646 0.92203 1.017 2.0795 1.0052 3.4381-0.0437 5.0329-5.1806 10.92-11.473 13.15-4.7118 1.6695-8.7357 0.81489-10.442-1.8326" color="#000000" fill="none" stroke-dasharray="1.32708, 1.32708" stroke-dashoffset=".53083"/>
   <path d="m333.06 178.12c-0.0437 5.033-5.1806 10.92-11.473 13.15-4.9088 1.7393-9.071 0.73901-10.644-2.1741-0.44339-0.82133-0.68092-1.7947-0.6713-2.9016 0.0437-5.033 5.1806-10.92 11.473-13.15 4.2102-1.4918 7.8712-0.96822 9.8202 1.049 0.96404 0.99782 1.5092 2.3611 1.4947 4.0267z" color="#000000" fill="#739ba5"/>
  </g>
  <g transform="matrix(.5696 0 0 .5696 22.5 845.52)" stroke="#16434a" stroke-linecap="round" stroke-linejoin="round" stroke-width=".66354">
   <path d="m331.56 174.09c0.96404 0.99782 1.5092 2.3611 1.4947 4.0267-0.0437 5.0329-5.1806 10.92-11.473 13.15-4.9088 1.7393-9.071 0.73901-10.644-2.1741 0 0-13.637-18.619-13.193-17.797 1.5726 2.9131 5.7348 3.9134 10.644 2.1741 6.2928-2.2297 11.43-8.1172 11.473-13.15 0.0145-1.6656-0.53065-3.0289-1.4947-4.0267-1.949-2.0172 13.193 17.797 13.193 17.797z" color="#000000" fill="#739ba5"/>
   <path d="m318.41 156.33c-1.949-2.0172-5.61-2.5408-9.8202-1.049-6.2928 2.2297-11.43 8.1172-11.473 13.15-0.01 1.1069 0.2279 2.0803 0.67129 2.9016 0 0 14.772 20.646 13.2 17.733-0.44338-0.82133-0.68092-1.7947-0.6713-2.9016 0.0437-5.033 5.1806-10.92 11.473-13.15 4.2102-1.4918 7.8712-0.96823 9.8202 1.049 0.96404 0.99782-13.2-17.733-13.2-17.733z" color="#000000" fill="#739ba5"/>
   <path d="m318.92 156.99c0.65646 0.92203 1.017 2.0795 1.0052 3.4381-0.0437 5.0329-5.1806 10.92-11.473 13.15-4.7118 1.6695-8.7357 0.81489-10.442-1.8326" color="#000000" fill="none" stroke-dasharray="1.32708, 1.32708" stroke-dashoffset=".53083"/>
   <path d="m333.06 178.12c-0.0437 5.033-5.1806 10.92-11.473 13.15-4.9088 1.7393-9.071 0.73901-10.644-2.1741-0.44339-0.82133-0.68092-1.7947-0.6713-2.9016 0.0437-5.033 5.1806-10.92 11.473-13.15 4.2102-1.4918 7.8712-0.96822 9.8202 1.049 0.96404 0.99782 1.5092 2.3611 1.4947 4.0267z" color="#000000" fill="#739ba5"/>
  </g>
  <g transform="matrix(.5696 0 0 .5696 -36.044 864.18)" stroke="#16434a" stroke-linecap="round" stroke-linejoin="round" stroke-width=".66354">
   <path d="m331.56 174.09c0.96404 0.99782 1.5092 2.3611 1.4947 4.0267-0.0437 5.0329-5.1806 10.92-11.473 13.15-4.9088 1.7393-9.071 0.73901-10.644-2.1741 0 0-13.637-18.619-13.193-17.797 1.5726 2.9131 5.7348 3.9134 10.644 2.1741 6.2928-2.2297 11.43-8.1172 11.473-13.15 0.0145-1.6656-0.53065-3.0289-1.4947-4.0267-1.949-2.0172 13.193 17.797 13.193 17.797z" color="#000000" fill="#739ba5"/>
   <path d="m318.41 156.33c-1.949-2.0172-5.61-2.5408-9.8202-1.049-6.2928 2.2297-11.43 8.1172-11.473 13.15-0.01 1.1069 0.2279 2.0803 0.67129 2.9016 0 0 14.772 20.646 13.2 17.733-0.44338-0.82133-0.68092-1.7947-0.6713-2.9016 0.0437-5.033 5.1806-10.92 11.473-13.15 4.2102-1.4918 7.8712-0.96823 9.8202 1.049 0.96404 0.99782-13.2-17.733-13.2-17.733z" color="#000000" fill="#739ba5"/>
   <path d="m318.92 156.99c0.65646 0.92203 1.017 2.0795 1.0052 3.4381-0.0437 5.0329-5.1806 10.92-11.473 13.15-4.7118 1.6695-8.7357 0.81489-10.442-1.8326" color="#000000" fill="none" stroke-dasharray="1.32708, 1.32708" stroke-dashoffset=".53083"/>
   <path d="m333.06 178.12c-0.0437 5.033-5.1806 10.92-11.473 13.15-4.9088 1.7393-9.071 0.73901-10.644-2.1741-0.44339-0.82133-0.68092-1.7947-0.6713-2.9016 0.0437-5.033 5.1806-10.92 11.473-13.15 4.2102-1.4918 7.8712-0.96822 9.8202 1.049 0.96404 0.99782 1.5092 2.3611 1.4947 4.0267z" color="#000000" fill="#739ba5"/>
  </g>
  <g transform="matrix(-.48417 -.30004 .30004 -.48417 222.25 1028.1)" stroke="#16434a" stroke-linecap="round" stroke-linejoin="round" stroke-width=".66354">
   <path d="m331.56 174.09c0.96404 0.99782 1.5092 2.3611 1.4947 4.0267-0.0437 5.0329-5.1806 10.92-11.473 13.15-4.9088 1.7393-9.071 0.73901-10.644-2.1741 0 0-13.637-18.619-13.193-17.797 1.5726 2.9131 5.7348 3.9134 10.644 2.1741 6.2928-2.2297 11.43-8.1172 11.473-13.15 0.0145-1.6656-0.53065-3.0289-1.4947-4.0267-1.949-2.0172 13.193 17.797 13.193 17.797z" color="#000000" fill="#739ba5"/>
   <path d="m318.41 156.33c-1.949-2.0172-5.61-2.5408-9.8202-1.049-6.2928 2.2297-11.43 8.1172-11.473 13.15-0.01 1.1069 0.2279 2.0803 0.67129 2.9016 0 0 14.772 20.646 13.2 17.733-0.44338-0.82133-0.68092-1.7947-0.6713-2.9016 0.0437-5.033 5.1806-10.92 11.473-13.15 4.2102-1.4918 7.8712-0.96823 9.8202 1.049 0.96404 0.99782-13.2-17.733-13.2-17.733z" color="#000000" fill="#739ba5"/>
   <path d="m318.92 156.99c0.65646 0.92203 1.017 2.0795 1.0052 3.4381-0.0437 5.0329-5.1806 10.92-11.473 13.15-4.7118 1.6695-8.7357 0.81489-10.442-1.8326" color="#000000" fill="none" stroke-dasharray="1.32708, 1.32708" stroke-dashoffset=".53083"/>
   <path d="m333.06 178.12c-0.0437 5.033-5.1806 10.92-11.473 13.15-4.9088 1.7393-9.071 0.73901-10.644-2.1741-0.44339-0.82133-0.68092-1.7947-0.6713-2.9016 0.0437-5.033 5.1806-10.92 11.473-13.15 4.2102-1.4918 7.8712-0.96822 9.8202 1.049 0.96404 0.99782 1.5092 2.3611 1.4947 4.0267z" color="#000000" fill="#739ba5"/>
  </g>
  <g transform="matrix(-.48417 -.30004 .30004 -.48417 197.23 1045.5)" stroke="#16434a" stroke-linecap="round" stroke-linejoin="round" stroke-width=".66354">
   <path d="m331.56 174.09c0.96404 0.99782 1.5092 2.3611 1.4947 4.0267-0.0437 5.0329-5.1806 10.92-11.473 13.15-4.9088 1.7393-9.071 0.73901-10.644-2.1741 0 0-13.637-18.619-13.193-17.797 1.5726 2.9131 5.7348 3.9134 10.644 2.1741 6.2928-2.2297 11.43-8.1172 11.473-13.15 0.0145-1.6656-0.53065-3.0289-1.4947-4.0267-1.949-2.0172 13.193 17.797 13.193 17.797z" color="#000000" fill="#739ba5"/>
   <path d="m318.41 156.33c-1.949-2.0172-5.61-2.5408-9.8202-1.049-6.2928 2.2297-11.43 8.1172-11.473 13.15-0.01 1.1069 0.2279 2.0803 0.67129 2.9016 0 0 14.772 20.646 13.2 17.733-0.44338-0.82133-0.68092-1.7947-0.6713-2.9016 0.0437-5.033 5.1806-10.92 11.473-13.15 4.2102-1.4918 7.8712-0.96823 9.8202 1.049 0.96404 0.99782-13.2-17.733-13.2-17.733z" color="#000000" fill="#739ba5"/>
   <path d="m318.92 156.99c0.65646 0.92203 1.017 2.0795 1.0052 3.4381-0.0437 5.0329-5.1806 10.92-11.473 13.15-4.7118 1.6695-8.7357 0.81489-10.442-1.8326" color="#000000" fill="none" stroke-dasharray="1.32708, 1.32708" stroke-dashoffset=".53083"/>
   <path d="m333.06 178.12c-0.0437 5.033-5.1806 10.92-11.473 13.15-4.9088 1.7393-9.071 0.73901-10.644-2.1741-0.44339-0.82133-0.68092-1.7947-0.6713-2.9016 0.0437-5.033 5.1806-10.92 11.473-13.15 4.2102-1.4918 7.8712-0.96822 9.8202 1.049 0.96404 0.99782 1.5092 2.3611 1.4947 4.0267z" color="#000000" fill="#739ba5"/>
  </g>
  <g transform="matrix(-.48417 -.30004 .30004 -.48417 258.16 1026.5)" stroke="#16434a" stroke-linecap="round" stroke-linejoin="round" stroke-width=".66354">
   <path d="m331.56 174.09c0.96404 0.99782 1.5092 2.3611 1.4947 4.0267-0.0437 5.0329-5.1806 10.92-11.473 13.15-4.9088 1.7393-9.071 0.73901-10.644-2.1741 0 0-13.637-18.619-13.193-17.797 1.5726 2.9131 5.7348 3.9134 10.644 2.1741 6.2928-2.2297 11.43-8.1172 11.473-13.15 0.0145-1.6656-0.53065-3.0289-1.4947-4.0267-1.949-2.0172 13.193 17.797 13.193 17.797z" color="#000000" fill="#739ba5"/>
   <path d="m318.41 156.33c-1.949-2.0172-5.61-2.5408-9.8202-1.049-6.2928 2.2297-11.43 8.1172-11.473 13.15-0.01 1.1069 0.2279 2.0803 0.67129 2.9016 0 0 14.772 20.646 13.2 17.733-0.44338-0.82133-0.68092-1.7947-0.6713-2.9016 0.0437-5.033 5.1806-10.92 11.473-13.15 4.2102-1.4918 7.8712-0.96823 9.8202 1.049 0.96404 0.99782-13.2-17.733-13.2-17.733z" color="#000000" fill="#739ba5"/>
   <path d="m318.92 156.99c0.65646 0.92203 1.017 2.0795 1.0052 3.4381-0.0437 5.0329-5.1806 10.92-11.473 13.15-4.7118 1.6695-8.7357 0.81489-10.442-1.8326" color="#000000" fill="none" stroke-dasharray="1.32708, 1.32708" stroke-dashoffset=".53083"/>
   <path d="m333.06 178.12c-0.0437 5.033-5.1806 10.92-11.473 13.15-4.9088 1.7393-9.071 0.73901-10.644-2.1741-0.44339-0.82133-0.68092-1.7947-0.6713-2.9016 0.0437-5.033 5.1806-10.92 11.473-13.15 4.2102-1.4918 7.8712-0.96822 9.8202 1.049 0.96404 0.99782 1.5092 2.3611 1.4947 4.0267z" color="#000000" fill="#739ba5"/>
  </g>
  <g transform="matrix(-.48417 -.30004 .30004 -.48417 293.84 1060.1)" stroke="#16434a" stroke-linecap="round" stroke-linejoin="round" stroke-width=".66354">
   <g>
    <path d="m431.64 96.509c-0.17521 20.145-20.736 43.71-45.924 52.635-17.378 6.1574-32.418 3.7368-40.017-4.9723-3.4148-3.9139-5.3267-9.0978-5.2724-15.344 0.17521-20.145 20.736-43.71 45.924-52.635 18.488-6.5507 34.33-3.3925 41.38 6.7175 2.555 3.6637 3.9554 8.2404 3.9088 13.599z" color="#000000" fill="#739ba5"/>
    <path d="m345.58 144.25c7.5986 8.709 22.639 11.13 40.017 4.9723 25.188-8.9245 45.748-32.49 45.924-52.635 0.0466-5.3584-1.3538-9.9351-3.9088-13.599l16.165 22.649c4.2092 5.9562 8.6719 11.865 7.3543 18.857-0.17521 20.145-20.736 43.71-45.924 52.635-17.378 6.1574-32.418 3.7368-40.017-4.9723z" color="#000000" fill="#739ba5"/>
    <path d="m451.36 124.43c-0.17521 20.145-20.736 43.71-45.924 52.635-17.378 6.1574-32.418 3.7368-40.017-4.9723-3.4148-3.9139-5.3267-9.0978-5.2724-15.344 0.17521-20.145 20.736-43.71 45.924-52.635 18.488-6.5507 34.33-3.3925 41.38 6.7175 2.555 3.6637 3.9554 8.2404 3.9088 13.599z" color="#000000" fill="none"/>
    <path d="m451.32 124.22c0.51802-4.4156-1.3538-9.9351-3.9088-13.599-7.0504-10.11-22.892-13.268-41.38-6.7175-25.188 8.9245-45.748 32.49-45.924 52.635-0.0543 6.2462 1.8576 11.43 5.2724 15.344l-19.799-27.719c-3.4148-3.9139-5.3267-9.0978-5.2724-15.344 0.17521-20.145 20.736-43.71 45.924-52.635 18.488-6.5507 34.33-3.3925 41.38 6.7175l19.827 27.68c4.0247 7.0741 3.7725 7.6161 3.8811 13.638z" color="#000000" fill="#739ba5"/>
   </g>
   <path d="m431.55 96.558c-0.17521 20.145-20.736 43.71-45.924 52.635-17.378 6.1574-32.418 3.7368-40.017-4.9723-3.4148-3.9139-5.3267-9.0978-5.2724-15.344 0.17521-20.145 20.736-43.71 45.924-52.635 18.488-6.5507 34.33-3.3925 41.38 6.7175 2.555 3.6637 3.9554 8.2404 3.9088 13.599z" color="#000000" fill="none" stroke-dasharray="1.99061, 1.99061"/>
  </g>
  <g transform="matrix(-.48417 -.30004 .30004 -.48417 222.38 1084.9)" stroke="#16434a" stroke-linecap="round" stroke-linejoin="round" stroke-width=".66354">
   <path d="m331.56 174.09c0.96404 0.99782 1.5092 2.3611 1.4947 4.0267-0.0437 5.0329-5.1806 10.92-11.473 13.15-4.9088 1.7393-9.071 0.73901-10.644-2.1741 0 0-13.637-18.619-13.193-17.797 1.5726 2.9131 5.7348 3.9134 10.644 2.1741 6.2928-2.2297 11.43-8.1172 11.473-13.15 0.0145-1.6656-0.53065-3.0289-1.4947-4.0267-1.949-2.0172 13.193 17.797 13.193 17.797z" color="#000000" fill="#739ba5"/>
   <path d="m318.41 156.33c-1.949-2.0172-5.61-2.5408-9.8202-1.049-6.2928 2.2297-11.43 8.1172-11.473 13.15-0.01 1.1069 0.2279 2.0803 0.67129 2.9016 0 0 14.772 20.646 13.2 17.733-0.44338-0.82133-0.68092-1.7947-0.6713-2.9016 0.0437-5.033 5.1806-10.92 11.473-13.15 4.2102-1.4918 7.8712-0.96823 9.8202 1.049 0.96404 0.99782-13.2-17.733-13.2-17.733z" color="#000000" fill="#739ba5"/>
   <path d="m318.92 156.99c0.65646 0.92203 1.017 2.0795 1.0052 3.4381-0.0437 5.0329-5.1806 10.92-11.473 13.15-4.7118 1.6695-8.7357 0.81489-10.442-1.8326" color="#000000" fill="none" stroke-dasharray="1.32708, 1.32708" stroke-dashoffset=".53083"/>
   <path d="m333.06 178.12c-0.0437 5.033-5.1806 10.92-11.473 13.15-4.9088 1.7393-9.071 0.73901-10.644-2.1741-0.44339-0.82133-0.68092-1.7947-0.6713-2.9016 0.0437-5.033 5.1806-10.92 11.473-13.15 4.2102-1.4918 7.8712-0.96822 9.8202 1.049 0.96404 0.99782 1.5092 2.3611 1.4947 4.0267z" color="#000000" fill="#739ba5"/>
  </g>
  <g transform="matrix(-.48417 -.30004 .30004 -.48417 281.81 1066)" stroke="#16434a" stroke-linecap="round" stroke-linejoin="round" stroke-width=".66354">
   <path d="m331.56 174.09c0.96404 0.99782 1.5092 2.3611 1.4947 4.0267-0.0437 5.0329-5.1806 10.92-11.473 13.15-4.9088 1.7393-9.071 0.73901-10.644-2.1741 0 0-13.637-18.619-13.193-17.797 1.5726 2.9131 5.7348 3.9134 10.644 2.1741 6.2928-2.2297 11.43-8.1172 11.473-13.15 0.0145-1.6656-0.53065-3.0289-1.4947-4.0267-1.949-2.0172 13.193 17.797 13.193 17.797z" color="#000000" fill="#739ba5"/>
   <path d="m318.41 156.33c-1.949-2.0172-5.61-2.5408-9.8202-1.049-6.2928 2.2297-11.43 8.1172-11.473 13.15-0.01 1.1069 0.2279 2.0803 0.67129 2.9016 0 0 14.772 20.646 13.2 17.733-0.44338-0.82133-0.68092-1.7947-0.6713-2.9016 0.0437-5.033 5.1806-10.92 11.473-13.15 4.2102-1.4918 7.8712-0.96823 9.8202 1.049 0.96404 0.99782-13.2-17.733-13.2-17.733z" color="#000000" fill="#739ba5"/>
   <path d="m318.92 156.99c0.65646 0.92203 1.017 2.0795 1.0052 3.4381-0.0437 5.0329-5.1806 10.92-11.473 13.15-4.7118 1.6695-8.7357 0.81489-10.442-1.8326" color="#000000" fill="none" stroke-dasharray="1.32708, 1.32708" stroke-dashoffset=".53083"/>
   <path d="m333.06 178.12c-0.0437 5.033-5.1806 10.92-11.473 13.15-4.9088 1.7393-9.071 0.73901-10.644-2.1741-0.44339-0.82133-0.68092-1.7947-0.6713-2.9016 0.0437-5.033 5.1806-10.92 11.473-13.15 4.2102-1.4918 7.8712-0.96822 9.8202 1.049 0.96404 0.99782 1.5092 2.3611 1.4947 4.0267z" color="#000000" fill="#739ba5"/>
  </g>
  <g transform="matrix(-.48417 -.30004 .30004 -.48417 282.43 1042.4)" stroke="#16434a" stroke-linecap="round" stroke-linejoin="round" stroke-width=".66354">
   <path d="m331.56 174.09c0.96404 0.99782 1.5092 2.3611 1.4947 4.0267-0.0437 5.0329-5.1806 10.92-11.473 13.15-4.9088 1.7393-9.071 0.73901-10.644-2.1741 0 0-13.637-18.619-13.193-17.797 1.5726 2.9131 5.7348 3.9134 10.644 2.1741 6.2928-2.2297 11.43-8.1172 11.473-13.15 0.0145-1.6656-0.53065-3.0289-1.4947-4.0267-1.949-2.0172 13.193 17.797 13.193 17.797z" color="#000000" fill="#739ba5"/>
   <path d="m318.41 156.33c-1.949-2.0172-5.61-2.5408-9.8202-1.049-6.2928 2.2297-11.43 8.1172-11.473 13.15-0.01 1.1069 0.2279 2.0803 0.67129 2.9016 0 0 14.772 20.646 13.2 17.733-0.44338-0.82133-0.68092-1.7947-0.6713-2.9016 0.0437-5.033 5.1806-10.92 11.473-13.15 4.2102-1.4918 7.8712-0.96823 9.8202 1.049 0.96404 0.99782-13.2-17.733-13.2-17.733z" color="#000000" fill="#739ba5"/>
   <path d="m318.92 156.99c0.65646 0.92203 1.017 2.0795 1.0052 3.4381-0.0437 5.0329-5.1806 10.92-11.473 13.15-4.7118 1.6695-8.7357 0.81489-10.442-1.8326" color="#000000" fill="none" stroke-dasharray="1.32708, 1.32708" stroke-dashoffset=".53083"/>
   <path d="m333.06 178.12c-0.0437 5.033-5.1806 10.92-11.473 13.15-4.9088 1.7393-9.071 0.73901-10.644-2.1741-0.44339-0.82133-0.68092-1.7947-0.6713-2.9016 0.0437-5.033 5.1806-10.92 11.473-13.15 4.2102-1.4918 7.8712-0.96822 9.8202 1.049 0.96404 0.99782 1.5092 2.3611 1.4947 4.0267z" color="#000000" fill="#739ba5"/>
  </g>
  <g transform="matrix(-.48417 -.30004 .30004 -.48417 197.9 1068.9)" stroke="#16434a" stroke-linecap="round" stroke-linejoin="round" stroke-width=".66354">
   <path d="m331.56 174.09c0.96404 0.99782 1.5092 2.3611 1.4947 4.0267-0.0437 5.0329-5.1806 10.92-11.473 13.15-4.9088 1.7393-9.071 0.73901-10.644-2.1741 0 0-13.637-18.619-13.193-17.797 1.5726 2.9131 5.7348 3.9134 10.644 2.1741 6.2928-2.2297 11.43-8.1172 11.473-13.15 0.0145-1.6656-0.53065-3.0289-1.4947-4.0267-1.949-2.0172 13.193 17.797 13.193 17.797z" color="#000000" fill="#739ba5"/>
   <path d="m318.41 156.33c-1.949-2.0172-5.61-2.5408-9.8202-1.049-6.2928 2.2297-11.43 8.1172-11.473 13.15-0.01 1.1069 0.2279 2.0803 0.67129 2.9016 0 0 14.772 20.646 13.2 17.733-0.44338-0.82133-0.68092-1.7947-0.6713-2.9016 0.0437-5.033 5.1806-10.92 11.473-13.15 4.2102-1.4918 7.8712-0.96823 9.8202 1.049 0.96404 0.99782-13.2-17.733-13.2-17.733z" color="#000000" fill="#739ba5"/>
   <path d="m318.92 156.99c0.65646 0.92203 1.017 2.0795 1.0052 3.4381-0.0437 5.0329-5.1806 10.92-11.473 13.15-4.7118 1.6695-8.7357 0.81489-10.442-1.8326" color="#000000" fill="none" stroke-dasharray="1.32708, 1.32708" stroke-dashoffset=".53083"/>
   <path d="m333.06 178.12c-0.0437 5.033-5.1806 10.92-11.473 13.15-4.9088 1.7393-9.071 0.73901-10.644-2.1741-0.44339-0.82133-0.68092-1.7947-0.6713-2.9016 0.0437-5.033 5.1806-10.92 11.473-13.15 4.2102-1.4918 7.8712-0.96822 9.8202 1.049 0.96404 0.99782 1.5092 2.3611 1.4947 4.0267z" color="#000000" fill="#739ba5"/>
  </g>
  <g transform="matrix(-.48417 -.30004 .30004 -.48417 257.49 1083.8)" stroke="#16434a" stroke-linecap="round" stroke-linejoin="round" stroke-width=".66354">
   <path d="m331.56 174.09c0.96404 0.99782 1.5092 2.3611 1.4947 4.0267-0.0437 5.0329-5.1806 10.92-11.473 13.15-4.9088 1.7393-9.071 0.73901-10.644-2.1741 0 0-13.637-18.619-13.193-17.797 1.5726 2.9131 5.7348 3.9134 10.644 2.1741 6.2928-2.2297 11.43-8.1172 11.473-13.15 0.0145-1.6656-0.53065-3.0289-1.4947-4.0267-1.949-2.0172 13.193 17.797 13.193 17.797z" color="#000000" fill="#739ba5"/>
   <path d="m318.41 156.33c-1.949-2.0172-5.61-2.5408-9.8202-1.049-6.2928 2.2297-11.43 8.1172-11.473 13.15-0.01 1.1069 0.2279 2.0803 0.67129 2.9016 0 0 14.772 20.646 13.2 17.733-0.44338-0.82133-0.68092-1.7947-0.6713-2.9016 0.0437-5.033 5.1806-10.92 11.473-13.15 4.2102-1.4918 7.8712-0.96823 9.8202 1.049 0.96404 0.99782-13.2-17.733-13.2-17.733z" color="#000000" fill="#739ba5"/>
   <path d="m318.92 156.99c0.65646 0.92203 1.017 2.0795 1.0052 3.4381-0.0437 5.0329-5.1806 10.92-11.473 13.15-4.7118 1.6695-8.7357 0.81489-10.442-1.8326" color="#000000" fill="none" stroke-dasharray="1.32708, 1.32708" stroke-dashoffset=".53083"/>
   <path d="m333.06 178.12c-0.0437 5.033-5.1806 10.92-11.473 13.15-4.9088 1.7393-9.071 0.73901-10.644-2.1741-0.44339-0.82133-0.68092-1.7947-0.6713-2.9016 0.0437-5.033 5.1806-10.92 11.473-13.15 4.2102-1.4918 7.8712-0.96822 9.8202 1.049 0.96404 0.99782 1.5092 2.3611 1.4947 4.0267z" color="#000000" fill="#739ba5"/>
  </g>
  <circle transform="rotate(210.83)" cx="-634.65" cy="-862.21" r=".95094" color="#000000" fill-rule="evenodd" stroke="#000" stroke-linecap="round" stroke-linejoin="round" stroke-miterlimit="10" stroke-width=".7559"/>
  <circle transform="rotate(210.83)" cx="-571.28" cy="-759" r=".95094" color="#000000" fill-rule="evenodd" stroke="#000" stroke-linecap="round" stroke-linejoin="round" stroke-miterlimit="10" stroke-width=".7559"/>
  <g fill="#739ba5">
   <g fill-rule="evenodd">
    <circle cx="375.54" cy="949.44" r="36.296" color="#000000"/>
    <ellipse cx="376.13" cy="883.6" rx="12.329" ry="12.329" color="#000000"/>
    <ellipse cx="423.35" cy="902.16" rx="12.329" ry="12.329" color="#000000"/>
    <ellipse cx="441.91" cy="950.24" rx="12.329" ry="12.329" color="#000000"/>
    <ellipse cx="421.03" cy="997.26" rx="12.329" ry="12.329" color="#000000"/>
   </g>
   <g font-family="'Century Gothic'" font-size="12.8px" font-weight="bold" letter-spacing="0px" stroke-width="1.0667" word-spacing="0px">
    <text x="439.49045" y="903.88599" style="line-height:0%" xml:space="preserve"><tspan x="439.49045" y="903.88599" fill="#739ba5" font-family="Arial" font-size="10.667px" font-weight="bold" stroke-width="1.0667" style="line-height:1.25">2</tspan></text>
    <text x="391.10123" y="883.70569" style="line-height:0%" xml:space="preserve"><tspan x="391.10123" y="883.70569" fill="#739ba5" font-family="Arial" font-size="10.667px" font-weight="bold" stroke-width="1.0667" style="line-height:1.25">1</tspan></text>
    <text x="388.91373" y="1018.6094" style="line-height:0%" xml:space="preserve"><tspan x="388.91373" y="1018.6094" fill="#739ba5" font-family="Arial" font-size="10.667px" font-weight="bold" stroke-width="1.0667" style="line-height:1.25">6</tspan></text>
    <text x="412.83487" y="952.18042" style="line-height:0%" xml:space="preserve"><tspan x="412.83487" y="952.18042" fill="#739ba5" font-family="Arial" font-size="10.667px" font-weight="bold" stroke-width="1.0667" style="line-height:1.25">3</tspan></text>
    <text x="456.80185" y="954.64026" style="line-height:0%" xml:space="preserve"><tspan x="456.80185" y="954.64026" fill="#739ba5" font-family="Arial" font-size="10.667px" font-weight="bold" stroke-width="1.0667" style="line-height:1.25">4</tspan></text>
    <text x="436.18491" y="1002.1448" style="line-height:0%" xml:space="preserve"><tspan x="436.18491" y="1002.1448" fill="#739ba5" font-family="Arial" font-size="10.667px" font-weight="bold" stroke-width="1.0667" style="line-height:1.25">5</tspan></text>
   </g>
   <g fill-rule="evenodd">
    <ellipse cx="373.87" cy="1015.3" rx="12.329" ry="12.329" color="#000000"/>
    <ellipse cx="328.53" cy="996.65" rx="12.329" ry="12.329" color="#000000"/>
    <ellipse cx="308.27" cy="949.72" rx="12.329" ry="12.329" color="#000000"/>
    <ellipse cx="328" cy="902.25" rx="12.329" ry="12.329" color="#000000"/>
   </g>
   <g font-family="'Century Gothic'" font-size="12.8px" font-weight="bold" letter-spacing="0px" stroke-width="1.0667" word-spacing="0px">
    <text x="342.89764" y="999.51105" style="line-height:0%" xml:space="preserve"><tspan x="342.89764" y="999.51105" fill="#739ba5" font-family="Arial" font-size="10.667px" font-weight="bold" stroke-width="1.0667" style="line-height:1.25">7</tspan></text>
    <text x="322.09766" y="953.11108" style="line-height:0%" xml:space="preserve"><tspan x="322.09766" y="953.11108" fill="#739ba5" font-family="Arial" font-size="10.667px" font-weight="bold" stroke-width="1.0667" style="line-height:1.25">8</tspan></text>
    <text x="342.36432" y="906.17773" style="line-height:0%" xml:space="preserve"><tspan x="342.36432" y="906.17773" fill="#739ba5" font-family="Arial" font-size="10.667px" font-weight="bold" stroke-width="1.0667" style="line-height:1.25">9</tspan></text>
   </g>
  </g>
  <text transform="scale(1.0094 .99072)" x="599.7041" y="888.07916" fill="#a8e3f1" font-family="'Century Gothic'" font-size="12.8px" font-weight="bold" letter-spacing="0px" stroke="#000000" stroke-width=".26457" word-spacing="0px" style="line-height:0%" xml:space="preserve"><tspan x="599.7041" y="888.07916" fill="#a8e3f1" font-family="Arial" font-size="11.733px" font-weight="bold" stroke="#000000" stroke-width=".26457" style="line-height:1.25">1</tspan></text>
  <circle cx="566.47" cy="947.84" r="36.296" color="#000000" fill="#475f65" fill-rule="evenodd"/>
  <g fill="#a8e3f1" fill-rule="evenodd">
   <ellipse cx="567.06" cy="882" rx="12.329" ry="12.329" color="#000000"/>
   <ellipse cx="614.28" cy="900.56" rx="12.329" ry="12.329" color="#000000"/>
   <ellipse cx="632.84" cy="948.64" rx="12.329" ry="12.329" color="#000000"/>
   <ellipse cx="611.96" cy="995.66" rx="12.329" ry="12.329" color="#000000"/>
   <ellipse cx="564.8" cy="1013.7" rx="12.329" ry="12.329" color="#000000"/>
   <ellipse cx="519.47" cy="995.05" rx="12.329" ry="12.329" color="#000000"/>
   <ellipse cx="499.2" cy="948.12" rx="12.329" ry="12.329" color="#000000"/>
   <ellipse cx="518.93" cy="900.65" rx="12.329" ry="12.329" color="#000000"/>
  </g>
  <path transform="matrix(2.7314 0 0 2.7314 -252.98 620.35)" d="m317.19 137.58-17.53 6.9652-17.321-7.4703-6.9652-17.53 7.4703-17.321 17.53-6.9652 17.321 7.4703 6.9652 17.53z" color="#000000" fill="none" stroke="#4d4d4d" stroke-dasharray="0.276747, 1.66048" stroke-linecap="round" stroke-linejoin="round" stroke-miterlimit="10" stroke-width=".27675"/>
  <g font-family="'Arial Nova', 'Arial Unicode MS', 'Yu Gothic UI', sans-serif" font-size="15.523px" stroke-width="1.0667">
   <text id="SVGID_5_" x="127.79349" y="928.87439" fill="#e2001a" style="line-height:0%"><tspan font-family="'Arial Nova', 'Arial Unicode MS', 'Yu Gothic UI', sans-serif" font-size="12.8px" font-weight="bold" stroke-width="1.0667" style="line-height:125%">X</tspan></text>
   <text id="SVGID_6_" x="106.40134" y="907.10651" fill="#34679b" font-weight="bold" style="line-height:0%"><tspan font-family="'Arial Nova', 'Arial Unicode MS', 'Yu Gothic UI', sans-serif" font-size="12.8px" font-weight="bold" stroke-width="1.0667" style="line-height:125%">Z</tspan></text>
   <text x="80.431419" y="909.58344" fill="#7ab51d" style="line-height:0%"><tspan font-family="'Arial Nova', 'Arial Unicode MS', 'Yu Gothic UI', sans-serif" font-size="12.8px" font-weight="bold" stroke-width="1.0667" style="line-height:125%">Y</tspan></text>
  </g>
  <g transform="matrix(0 -1 -1 0 1010.9 859.85)" stroke="#34679b">
   <path d="m-52.465 912.62v0l13.446-3.727-13.446-3.5165z" fill="#34679b" fill-rule="evenodd" stroke-linecap="round" stroke-linejoin="round" stroke-width="1.0658"/>
   <line x1="-84.354" x2="-48.983" y1="909.03" y2="909.1" fill="none" stroke-linecap="square" stroke-miterlimit="10" stroke-width="1.4324"/>
  </g>
  <g transform="matrix(-.96326 -.26858 -.26858 .96326 264.39 46.548)" stroke="#7ab51d" stroke-linecap="round" stroke-linejoin="round">
   <path d="m-84.1 908.55 29.535-23.693" fill="none" stroke-width="1.4324"/>
   <path d="m-56.595 891.15 8.1727-11.309-12.697 5.6563z" fill="#7ab51d" fill-rule="evenodd" stroke-width="1.0658"/>
  </g>
  <g transform="matrix(.37125 .73309 -.95039 .28637 996.57 745.89)" stroke="#e2001a">
   <line x1="-84.36" x2="-84.284" y1="908.37" y2="877.02" fill="none" stroke-linecap="square" stroke-miterlimit="10" stroke-width="1.5985"/>
   <path d="m-80.772 880.86v0l-3.7227-13.447-3.5179 13.447z" fill="#e2001a" fill-rule="evenodd" stroke-linecap="round" stroke-linejoin="round" stroke-width="1.1894"/>
  </g>
  <g transform="rotate(55.527 -139.46 1165.8)" stroke="#34679b">
   <path d="m-52.465 912.62v0l13.446-3.727-13.446-3.5165z" fill="#34679b" fill-rule="evenodd" stroke-linecap="round" stroke-linejoin="round" stroke-width="1.0658"/>
   <line x1="-84.354" x2="-48.983" y1="909.03" y2="909.1" fill="none" stroke-linecap="square" stroke-miterlimit="10" stroke-width="1.4324"/>
  </g>
  <g transform="matrix(-.62419 -.78127 -.78127 .62419 759.86 432.31)" stroke="#7ab51d" stroke-linecap="round" stroke-linejoin="round">
   <path d="m-84.1 908.55 29.535-23.693" fill="none" stroke-width="1.4324"/>
   <path d="m-56.595 891.15 8.1727-11.309-12.697 5.6563z" fill="#7ab51d" fill-rule="evenodd" stroke-width="1.0658"/>
  </g>
  <g transform="matrix(.37125 .73309 -.95039 .28637 997.94 866.45)" stroke="#e2001a">
   <line x1="-84.36" x2="-84.284" y1="908.37" y2="877.02" fill="none" stroke-linecap="square" stroke-miterlimit="10" stroke-width="1.5985"/>
   <path d="m-80.772 880.86v0l-3.7227-13.447-3.5179 13.447z" fill="#e2001a" fill-rule="evenodd" stroke-linecap="round" stroke-linejoin="round" stroke-width="1.1894"/>
  </g>
  <g font-family="'Arial Nova', 'Arial Unicode MS', 'Yu Gothic UI', sans-serif" font-size="15.523px" stroke-width="1.0667">
   <text x="134.265" y="1048.3201" fill="#e2001a" style="line-height:0%"><tspan font-family="'Arial Nova', 'Arial Unicode MS', 'Yu Gothic UI', sans-serif" font-size="12.8px" font-weight="bold" stroke-width="1.0667" style="line-height:125%">X</tspan></text>
   <text x="132.02155" y="1103.5962" fill="#34679b" font-weight="bold" style="line-height:0%"><tspan font-family="'Arial Nova', 'Arial Unicode MS', 'Yu Gothic UI', sans-serif" font-size="12.8px" font-weight="bold" stroke-width="1.0667" style="line-height:125%">Z</tspan></text>
   <text x="107.9183" y="1028.2885" fill="#7ab51d" style="line-height:0%"><tspan font-family="'Arial Nova', 'Arial Unicode MS', 'Yu Gothic UI', sans-serif" font-size="12.8px" font-weight="bold" stroke-width="1.0667" style="line-height:125%">Y</tspan></text>
  </g>
  <text x="604.81781" y="937.23254" fill="#475f65" font-family="'Century Gothic'" font-size="12.8px" font-weight="bold" letter-spacing="0px" stroke-width="1.0667" word-spacing="0px" style="line-height:0%" xml:space="preserve"><tspan x="604.81781" y="937.23254" fill="#475f65" font-family="Arial" font-size="11.733px" font-weight="bold" stroke-width="1.0667" style="line-height:1.25">2</tspan></text>
  <g transform="translate(418.71 1168.2)">
   <ellipse cx="-44.92" cy="-98.798" rx="13.199" ry="13.469" fill="#1f638a" stroke-linecap="round" stroke-linejoin="round" stroke-width="1.0658"/>
   <text x="-50.761276" y="-91.125885" fill="#000000" font-family="'Arial Nova', 'Arial Unicode MS', 'Yu Gothic UI', sans-serif" font-size="12.8px" letter-spacing="0px" stroke-width="1.0667" word-spacing="0px" style="line-height:0%" xml:space="preserve"><tspan x="-50.761276" y="-91.125885" fill="#ffffff" font-family="'Arial Nova', 'Arial Unicode MS', 'Yu Gothic UI', sans-serif" font-size="21.333px" stroke="#ffffff" stroke-width="1.0667" style="line-height:1.25">1</tspan></text>
  </g>
  <g transform="translate(579.67 1168.2)">
   <ellipse cx="-13.718" cy="-98.798" rx="13.199" ry="13.469" fill="#1f638a" stroke-linecap="round" stroke-linejoin="round" stroke-width="1.0658"/>
   <text x="-19.559933" y="-91.125885" fill="#000000" font-family="'Arial Nova', 'Arial Unicode MS', 'Yu Gothic UI', sans-serif" font-size="12.8px" letter-spacing="0px" stroke-width="1.0667" word-spacing="0px" style="line-height:0%" xml:space="preserve"><tspan x="-19.559933" y="-91.125885" fill="#ffffff" font-family="'Arial Nova', 'Arial Unicode MS', 'Yu Gothic UI', sans-serif" font-size="21.333px" stroke="#ffffff" stroke-width="1.0667" style="line-height:1.25">2</tspan></text>
  </g>
 </g>
</svg>
