<svg version="1.1" viewBox="0 0 637.8 159.45" xmlns="http://www.w3.org/2000/svg" xmlns:xlink="http://www.w3.org/1999/xlink">
 <defs>
  <linearGradient id="linearGradient26420" x1="230.64" x2="245.04" y1="958.6" y2="958.64" gradientTransform="matrix(.79334 -.017163 .017163 .79334 -189.6 198.57)" gradientUnits="userSpaceOnUse">
   <stop stop-color="#FFFFFF" offset="0"/>
   <stop stop-color="#FCFCFC" offset=".2264"/>
   <stop stop-color="#F4F4F4" offset=".3626"/>
   <stop stop-color="#E6E6E6" offset=".475"/>
   <stop stop-color="#D1D1D1" offset=".5744"/>
   <stop stop-color="#B7B7B7" offset=".6652"/>
   <stop stop-color="#979797" offset=".7498"/>
   <stop stop-color="#707070" offset=".8297"/>
   <stop stop-color="#444444" offset=".9057"/>
   <stop stop-color="#121212" offset=".9761"/>
   <stop stop-color="#000000" offset="1"/>
  </linearGradient>
 </defs>
 <g transform="translate(0 -892.91)">
  <g transform="matrix(.95649 .016212 -.016212 .95649 578 45.454)" stroke="#000000" stroke-linecap="round" stroke-linejoin="round">
   <path d="m20.471 932.57c0.13396 6.1922-2.8048 9.8748-8.997 10.009-6.1922 0.13396-13.282-3.3317-13.416-9.5238l-0.23885-11.041c1.6423 1.116 4.5086 4.3101 11.213-0.24258 5.0976-3.4617 8.2714-1.2711 11.2-0.2423z" color="#000000" fill="none" stroke-width=".78411"/>
   <path d="m-0.98364 981.98c0.13397 6.1922 5.2631 11.103 11.455 10.969 6.1922-0.13396 11.091-5.2621 10.957-11.454l-1.1942-59.838c-1.5925 1.186-4.318 4.501-11.213 0.24257-5.2425-3.238-8.3187-0.91222-11.2 0.24231z" color="#000000" fill="url(#linearGradient26420)" stroke-width=".66301"/>
  </g>
  <g transform="matrix(.95649 .016212 -.016212 .95649 499.29 52.2)" stroke="#000000" stroke-linecap="round" stroke-linejoin="round">
   <path d="m20.471 932.57c0.13396 6.1922-2.8048 9.8748-8.997 10.009-6.1922 0.13396-13.282-3.3317-13.416-9.5238l-0.23885-11.041c1.6423 1.116 4.5086 4.3101 11.213-0.24258 5.0976-3.4617 8.2714-1.2711 11.2-0.2423z" color="#000000" fill="none" stroke-width=".78411"/>
   <path d="m-0.98364 981.98c0.13397 6.1922 5.2631 11.103 11.455 10.969 6.1922-0.13396 11.091-5.2621 10.957-11.454l-1.1942-59.838c-1.5925 1.186-4.318 4.501-11.213 0.24257-5.2425-3.238-8.3187-0.91222-11.2 0.24231z" color="#000000" fill="url(#linearGradient26420)" stroke-width=".66301"/>
  </g>
  <g transform="matrix(.95649 .016212 -.016212 .95649 289.48 46.107)" stroke="#000000" stroke-linecap="round" stroke-linejoin="round">
   <path d="m20.471 932.57c0.13396 6.1922-2.8048 9.8748-8.997 10.009-6.1922 0.13396-13.282-3.3317-13.416-9.5238l-0.23885-11.041c1.6423 1.116 4.5086 4.3101 11.213-0.24258 5.0976-3.4617 8.2714-1.2711 11.2-0.2423z" color="#000000" fill="none" stroke-width=".78411"/>
   <path d="m-0.98364 981.98c0.13397 6.1922 5.2631 11.103 11.455 10.969 6.1922-0.13396 11.091-5.2621 10.957-11.454l-1.1942-59.838c-1.5925 1.186-4.318 4.501-11.213 0.24257-5.2425-3.238-8.3187-0.91222-11.2 0.24231z" color="#000000" fill="url(#linearGradient26420)" stroke-width=".66301"/>
  </g>
  <g transform="matrix(.95649 .016212 -.016212 .95649 211.31 52.273)" stroke="#000000" stroke-linecap="round" stroke-linejoin="round">
   <path d="m20.471 932.57c0.13396 6.1922-2.8048 9.8748-8.997 10.009-6.1922 0.13396-13.282-3.3317-13.416-9.5238l-0.23885-11.041c1.6423 1.116 4.5086 4.3101 11.213-0.24258 5.0976-3.4617 8.2714-1.2711 11.2-0.2423z" color="#000000" fill="none" stroke-width=".78411"/>
   <path d="m-0.98364 981.98c0.13397 6.1922 5.2631 11.103 11.455 10.969 6.1922-0.13396 11.091-5.2621 10.957-11.454l-1.1942-59.838c-1.5925 1.186-4.318 4.501-11.213 0.24257-5.2425-3.238-8.3187-0.91222-11.2 0.24231z" color="#000000" fill="url(#linearGradient26420)" stroke-width=".66301"/>
  </g>
  <g transform="matrix(.95649 .016212 -.016212 .95649 126.67 52.778)" stroke="#000000" stroke-linecap="round" stroke-linejoin="round">
   <path d="m20.471 932.57c0.13396 6.1922-2.8048 9.8748-8.997 10.009-6.1922 0.13396-13.282-3.3317-13.416-9.5238l-0.23885-11.041c1.6423 1.116 4.5086 4.3101 11.213-0.24258 5.0976-3.4617 8.2714-1.2711 11.2-0.2423z" color="#000000" fill="none" stroke-width=".78411"/>
   <path d="m-0.98364 981.98c0.13397 6.1922 5.2631 11.103 11.455 10.969 6.1922-0.13396 11.091-5.2621 10.957-11.454l-1.1942-59.838c-1.5925 1.186-4.318 4.501-11.213 0.24257-5.2425-3.238-8.3187-0.91222-11.2 0.24231z" color="#000000" fill="url(#linearGradient26420)" stroke-width=".66301"/>
  </g>
  <g transform="matrix(.95649 .016212 -.016212 .95649 48.282 45.493)" stroke="#000000" stroke-linecap="round" stroke-linejoin="round">
   <path d="m20.471 932.57c0.13396 6.1922-2.8048 9.8748-8.997 10.009-6.1922 0.13396-13.282-3.3317-13.416-9.5238l-0.23885-11.041c1.6423 1.116 4.5086 4.3101 11.213-0.24258 5.0976-3.4617 8.2714-1.2711 11.2-0.2423z" color="#000000" fill="none" stroke-width=".78411"/>
   <path d="m-0.98364 981.98c0.13397 6.1922 5.2631 11.103 11.455 10.969 6.1922-0.13396 11.091-5.2621 10.957-11.454l-1.1942-59.838c-1.5925 1.186-4.318 4.501-11.213 0.24257-5.2425-3.238-8.3187-0.91222-11.2 0.24231z" color="#000000" fill="url(#linearGradient26420)" stroke-width=".66301"/>
  </g>
  <g clip-rule="evenodd">
   <path transform="matrix(1.1979 0 0 1.1979 328.97 770.24)" d="m77.304 201.24v-13.309h-77.179v13.309z" fill="#5d8199" fill-rule="evenodd" stroke="#4d4d4d" stroke-width=".52947"/>
   <path transform="matrix(1.1979 0 0 1.1979 306.97 770.24)" d="m164.06 201.24v-13.309h77.183v13.309z" fill="#5d8199" fill-rule="evenodd" stroke="#4d4d4d" stroke-width=".52947"/>
   <path d="m494.77 993.17c6.4782-8.6656 20.889-6.5621 30.33-6.5621h47.157" fill="none" stroke="#d4aa00" stroke-linecap="round" stroke-linejoin="round" stroke-width="1.7717"/>
   <line x1="494.51" x2="494.51" y1="986.61" y2="1000.4" fill="none" stroke="#000000" stroke-width=".63425"/>
  </g>
  <line x1="503.75" x2="503.75" y1="1011.4" y2="1035" fill="none" stroke="#000000" stroke-width=".62184"/>
  <g transform="matrix(.95649 .016212 -.016212 .95649 438.04 52.021)" stroke="#000000" stroke-linecap="round" stroke-linejoin="round">
   <path d="m20.471 932.57c0.13396 6.1922-2.8048 9.8748-8.997 10.009-6.1922 0.13396-13.282-3.3317-13.416-9.5238l-0.23885-11.041c1.6423 1.116 4.5086 4.3101 11.213-0.24258 5.0976-3.4617 8.2714-1.2711 11.2-0.2423z" color="#000000" fill="none" stroke-width=".78411"/>
   <path d="m-0.98364 981.98c0.13397 6.1922 5.2631 11.103 11.455 10.969 6.1922-0.13396 11.091-5.2621 10.957-11.454l-1.1942-59.838c-1.5925 1.186-4.318 4.501-11.213 0.24257-5.2425-3.238-8.3187-0.91222-11.2 0.24231z" color="#000000" fill="url(#linearGradient26420)" stroke-width=".66301"/>
  </g>
  <line x1="431.26" x2="431.26" y1="986.69" y2="1000.5" clip-rule="evenodd" fill="none" stroke="#000000" stroke-width=".63425"/>
  <g transform="matrix(.95649 .016212 -.016212 .95649 358.04 45.057)" stroke="#000000" stroke-linecap="round" stroke-linejoin="round">
   <path d="m20.471 932.57c0.13396 6.1922-2.8048 9.8748-8.997 10.009-6.1922 0.13396-13.282-3.3317-13.416-9.5238l-0.23885-11.041c1.6423 1.116 4.5086 4.3101 11.213-0.24258 5.0976-3.4617 8.2714-1.2711 11.2-0.2423z" color="#000000" fill="none" stroke-width=".78411"/>
   <path d="m-0.98364 981.98c0.13397 6.1922 5.2631 11.103 11.455 10.969 6.1922-0.13396 11.091-5.2621 10.957-11.454l-1.1942-59.838c-1.5925 1.186-4.318 4.501-11.213 0.24257-5.2425-3.238-8.3187-0.91222-11.2 0.24231z" color="#000000" fill="url(#linearGradient26420)" stroke-width=".66301"/>
  </g>
  <g clip-rule="evenodd">
   <path d="m430.4 993.7c-6.4782-8.6656-20.888-6.5621-30.33-6.5621h-47.158" fill="none" stroke="#d4aa00" stroke-linecap="round" stroke-linejoin="round" stroke-width="1.7717"/>
   <g fill-rule="evenodd">
    <polygon transform="matrix(1.1979 0 0 1.1979 328.97 770.24)" points="84.019 187.02 85.545 187.02 85.457 186.41 85.265 186.02 84.261 185.53" fill="#d4aa00"/>
    <path transform="matrix(1.1864 0 0 1.198 15.751 909.24)" d="m1.775 72.466v13.307h77.449v-13.307z" fill="#5d8199" stroke="#4d4d4d" stroke-width=".53201"/>
    <path transform="matrix(1.1979 0 0 1.1979 16.741 909.25)" d="m242.9 72.466v13.307h-77.179v-13.307z" fill="#5d8199" stroke="#4d4d4d" stroke-width=".52947"/>
   </g>
  </g>
  <line x1="118.54" x2="205.53" y1="1032" y2="1032" fill="#000000" stroke="#000000" stroke-linecap="square" stroke-miterlimit="10" stroke-width=".63425"/>
  <g clip-rule="evenodd">
   <g fill="none">
    <path d="m205.71 992.83c6.4782-8.6656 20.352-6.1656 29.795-6.1656h47.157" stroke="#d4aa00" stroke-linecap="round" stroke-linejoin="round" stroke-width="1.7717"/>
    <polyline transform="matrix(1.1979 0 0 1.1979 15.731 909.25)" points="86.55 72.174 86.325 4.755 158.6 4.652 158.5 72.285" stroke="#e2001a" stroke-linecap="round" stroke-linejoin="round" stroke-width="1.479"/>
    <path d="m118.81 993.76c-6.4782-8.6656-20.889-6.5621-30.33-6.5621h-47.158" stroke="#d4aa00" stroke-width="1.7717"/>
   </g>
   <path d="m118.43 995.79c0.0251-0.40369-0.30547-1.2362-0.35698-1.5177-0.12817-0.69119 0.0635-0.58697 1.4578-1.1296 0.69358 0.94035 0.73192 1.5213 0.80259 2.6761-0.63369-0.01-1.2686-0.0204-1.9035-0.0288" fill="#d4aa00" fill-rule="evenodd"/>
  </g>
  <g transform="matrix(.75522 0 0 .75522 150.88 232.4)"></g>
  <g fill="none" stroke="#000000">
   <line x1="421.57" x2="421.57" y1="1011.3" y2="1035" stroke-width=".62251"/>
   <line x1="109.65" x2="109.65" y1="1011.7" y2="1035" stroke-width=".61764"/>
   <line x1="215.23" x2="215.23" y1="1011.9" y2="1035.1" stroke-width=".61573"/>
   <path d="m432.69 1031.3 58.156 0.032" stroke-width=".63328"/>
  </g>
  <polyline transform="matrix(-1.9181 0 0 -1.9137 343.57 995.15)" points="87.23 41.839 91.62 46.442 91.62 43.445 100.64 43.445 100.64 40.234 91.62 40.234 91.62 37.344 87.23 41.839" fill="#e2001a" stroke="#000000" stroke-linecap="square" stroke-miterlimit="10" stroke-width=".33104"/>
  <g fill="#d4aa00" stroke="#000000" stroke-linecap="square" stroke-miterlimit="10" stroke-width=".33104">
   <polyline transform="matrix(-1.9181 0 0 -1.9137 257.96 1031.8)" points="87.23 41.839 91.62 46.442 91.62 43.445 100.64 43.445 100.64 40.234 91.62 40.234 91.62 37.344 87.23 41.839"/>
   <polyline transform="matrix(-1.9181 0 0 -1.9137 427.17 1067.1)" points="87.23 41.839 91.62 46.442 91.62 43.445 100.64 43.445 100.64 40.234 91.62 40.234 91.62 37.344 87.23 41.839"/>
   <polyline transform="matrix(-1.9181 0 0 -1.9137 571.11 1067.6)" points="87.23 41.839 91.62 46.442 91.62 43.445 100.64 43.445 100.64 40.234 91.62 40.234 91.62 37.344 87.23 41.839"/>
   <polyline transform="matrix(-1.9181 0 0 -1.9137 717.33 1066.9)" points="87.23 41.839 91.62 46.442 91.62 43.445 100.64 43.445 100.64 40.234 91.62 40.234 91.62 37.344 87.23 41.839"/>
  </g>
  <g fill="#000000" stroke="#000000" stroke-linecap="round" stroke-linejoin="round" stroke-width=".99921">
   <path d="m214.14 1031.9-11.786-3.9285v8.2143z"/>
   <path d="m110.35 1031.8 11.786 3.9285v-8.2143z"/>
   <path d="m502.99 1031-11.786-3.9285v8.2143z"/>
   <path d="m422.24 1031 11.786 3.9285v-8.2143z"/>
   <path d="m432.32 994.33 11.786 3.9285v-8.2143z"/>
   <path d="m493.39 994.51-11.786-3.9285v8.2143z"/>
  </g>
  <path d="m434.14 994.31 58.156 0.032" fill="none" stroke="#000000" stroke-width=".63328"/>
  <g transform="translate(507.06 1113.3)">
   <ellipse cx="-44.92" cy="-98.798" rx="13.199" ry="13.469" d="m -31.720282,-98.79776 c 0,7.438558 -5.90954,13.4687 -13.199327,13.4687 -7.289787,0 -13.199328,-6.030142 -13.199328,-13.4687 0,-7.43856 5.909541,-13.4687 13.199328,-13.4687 7.289787,0 13.199327,6.03014 13.199327,13.4687 z" fill="#1f638a" stroke-linecap="round" stroke-linejoin="round" stroke-width="1.0658"/>
   <text x="-50.761276" y="-91.125885" fill="#000000" letter-spacing="0px" word-spacing="0px" style="line-height:0%" xml:space="preserve"><tspan x="-50.761276" y="-91.125885" fill="#ffffff" font-family="'Arial Nova', 'Arial Unicode MS', 'Yu Gothic UI', sans-serif" font-size="20px" stroke="#ffffff" stroke-width="1.0667" style="line-height:1.25">1</tspan></text>
  </g>
 </g>
</svg>
