<?xml version="1.0" encoding="UTF-8" standalone="no"?>
<!-- Created with Inkscape (http://www.inkscape.org/) -->

<svg
   xmlns:dc="http://purl.org/dc/elements/1.1/"
   xmlns:cc="http://creativecommons.org/ns#"
   xmlns:rdf="http://www.w3.org/1999/02/22-rdf-syntax-ns#"
   xmlns:svg="http://www.w3.org/2000/svg"
   xmlns="http://www.w3.org/2000/svg"
   version="1.1"
   width="637.79529"
   height="265.74802"
   id="svg3382"
   xml:space="preserve"><metadata
     id="metadata3388"><rdf:RDF><cc:Work
         rdf:about=""><dc:format>image/svg+xml</dc:format><dc:type
           rdf:resource="http://purl.org/dc/dcmitype/StillImage" /><dc:title></dc:title></cc:Work></rdf:RDF></metadata><defs
     id="defs3386"><linearGradient
       x1="16.274"
       y1="57.821999"
       x2="239.67"
       y2="52.696999"
       id="linearGradient3396"
       gradientUnits="userSpaceOnUse"
       gradientTransform="matrix(1.59776,0,0,-1.59776,259.33769,206.89585)"
       spreadMethod="pad"><stop
         id="stop3398"
         style="stop-color:#ffffff;stop-opacity:1"
         offset="0" /><stop
         id="stop3400"
         style="stop-color:#00385e;stop-opacity:1"
         offset="1" /></linearGradient><linearGradient
       x1="162.58"
       y1="40.868999"
       x2="-17.763"
       y2="42.585999"
       id="linearGradient3408"
       gradientUnits="userSpaceOnUse"
       gradientTransform="matrix(1.59776,0,0,-1.59776,260.85769,205.85585)"
       spreadMethod="pad"><stop
         id="stop3410"
         style="stop-color:#ffffff;stop-opacity:1"
         offset="0" /><stop
         id="stop3412"
         style="stop-color:#00385e;stop-opacity:1"
         offset="1" /></linearGradient><linearGradient
       x1="-26.658001"
       y1="886.25"
       x2="473.92001"
       y2="884.72998"
       id="linearGradient3420"
       gradientUnits="userSpaceOnUse"
       gradientTransform="matrix(0.85336,0,0,-0.85336,249.93769,887.75185)"
       spreadMethod="pad"><stop
         id="stop3422"
         style="stop-color:#ffffff;stop-opacity:1"
         offset="0" /><stop
         id="stop3424"
         style="stop-color:#00385e;stop-opacity:1"
         offset="1" /></linearGradient><linearGradient
       x1="3.582"
       y1="81.947998"
       x2="196.81"
       y2="82.758003"
       id="linearGradient3432"
       gradientUnits="userSpaceOnUse"
       gradientTransform="matrix(1.59776,0,0,-1.59776,259.33769,206.89585)"
       spreadMethod="pad"><stop
         id="stop3434"
         style="stop-color:#ffffff;stop-opacity:1"
         offset="0" /><stop
         id="stop3436"
         style="stop-color:#00385e;stop-opacity:1"
         offset="1" /></linearGradient><linearGradient
       x1="-18.461"
       y1="62.159"
       x2="98.876999"
       y2="113.95"
       id="linearGradient3444"
       gradientUnits="userSpaceOnUse"
       gradientTransform="matrix(1.59776,0,0,-1.59776,259.33769,206.89585)"
       spreadMethod="pad"><stop
         id="stop3446"
         style="stop-color:#ffffff;stop-opacity:1"
         offset="0" /><stop
         id="stop3448"
         style="stop-color:#00385e;stop-opacity:1"
         offset="1" /></linearGradient><linearGradient
       x1="16.274"
       y1="57.821999"
       x2="239.67"
       y2="52.696999"
       id="linearGradient3514"
       gradientUnits="userSpaceOnUse"
       gradientTransform="matrix(1.59776,0,0,-1.59776,-5.126306,208.63985)"
       spreadMethod="pad"><stop
         id="stop3516"
         style="stop-color:#ffffff;stop-opacity:1"
         offset="0" /><stop
         id="stop3518"
         style="stop-color:#00385e;stop-opacity:1"
         offset="1" /></linearGradient><linearGradient
       x1="162.58"
       y1="40.868999"
       x2="-17.763"
       y2="42.585999"
       id="linearGradient3526"
       gradientUnits="userSpaceOnUse"
       gradientTransform="matrix(1.59776,0,0,-1.59776,-5.126306,208.63985)"
       spreadMethod="pad"><stop
         id="stop3528"
         style="stop-color:#ffffff;stop-opacity:1"
         offset="0" /><stop
         id="stop3530"
         style="stop-color:#00385e;stop-opacity:1"
         offset="1" /></linearGradient><linearGradient
       x1="-26.658001"
       y1="886.25"
       x2="473.92001"
       y2="884.72998"
       id="linearGradient3538"
       gradientUnits="userSpaceOnUse"
       gradientTransform="matrix(0.85336,0,0,-0.85336,-14.527106,889.49585)"
       spreadMethod="pad"><stop
         id="stop3540"
         style="stop-color:#ffffff;stop-opacity:1"
         offset="0" /><stop
         id="stop3542"
         style="stop-color:#00385e;stop-opacity:1"
         offset="1" /></linearGradient><linearGradient
       x1="3.582"
       y1="81.947998"
       x2="196.81"
       y2="82.758003"
       id="linearGradient3550"
       gradientUnits="userSpaceOnUse"
       gradientTransform="matrix(1.59776,0,0,-1.59776,-5.126306,208.63985)"
       spreadMethod="pad"><stop
         id="stop3552"
         style="stop-color:#ffffff;stop-opacity:1"
         offset="0" /><stop
         id="stop3554"
         style="stop-color:#00385e;stop-opacity:1"
         offset="1" /></linearGradient><linearGradient
       x1="-18.461"
       y1="62.159"
       x2="98.876999"
       y2="113.95"
       id="linearGradient3562"
       gradientUnits="userSpaceOnUse"
       gradientTransform="matrix(1.59776,0,0,-1.59776,-5.126306,208.63985)"
       spreadMethod="pad"><stop
         id="stop3564"
         style="stop-color:#ffffff;stop-opacity:1"
         offset="0" /><stop
         id="stop3566"
         style="stop-color:#00385e;stop-opacity:1"
         offset="1" /></linearGradient></defs><g
     transform="matrix(1.25,0,0,-1.25,0,265.74802)"
     id="g3390"><g
       id="g3392"><g
         id="g3394"><path
           d="m 312.504,151.813 -27.164,-6.504 21.808,-92.593 192.461,35.968 -28.695,84.172 -25.262,3.449 -133.148,-24.492 z"
           id="path3402"
           style="fill:url(#linearGradient3396);fill-opacity:1;fill-rule:nonzero;stroke:none" /></g><g
         id="g3404"><g
           transform="matrix(1,0,0,-1,0,212.59842)"
           id="g3406"><path
             d="m 496.531,121.512 -23.34,-64.66 C 469.23,46.391 462.488,41.297 451.383,42.695 L 304.48,71.934 c -7.527,1.179 -11.253,5.671 -10.714,13.39 l -5.371,-10.492 0.765,-14.922 180.59,-36.73 32.141,81.113 -5.356,17.215"
             id="path3414"
             style="fill:url(#linearGradient3408);fill-opacity:1;fill-rule:nonzero;stroke:#4d4d4d;stroke-width:0.54123199;stroke-linecap:round;stroke-linejoin:round;stroke-miterlimit:4;stroke-opacity:1;stroke-dasharray:none" /></g></g><g
         id="g3416"><g
           transform="matrix(1,0,0,-1,0,212.59842)"
           id="g3418"><path
             d="m 272.715,52.75 31.371,92.594 9.652,-1.442 -22.277,-66.281 -1.625,-4.937 C 286.348,61.516 303.445,58.898 303.445,58.898 L 453.813,29.699 c 11.105,-1.398 17.847,3.696 21.808,14.156 0,0 -4.016,-10.187 1.024,2.774 l 21.425,62.75 10.332,-1.152 L 477.027,16.02 272.715,52.75"
             id="path3426"
             style="fill:url(#linearGradient3420);fill-opacity:1;fill-rule:nonzero;stroke:#4d4d4d;stroke-width:0.54123199;stroke-linecap:round;stroke-linejoin:round;stroke-miterlimit:4;stroke-opacity:1;stroke-dasharray:none" /></g></g><g
         id="g3428"><g
           transform="matrix(1,0,0,-1,0,212.59842)"
           id="g3430"><path
             d="m 310.297,155.59 3.437,-11.777 -9.644,1.523 -6.887,21.43 204.313,-36.731 6.886,-21.808 -10.328,1.148 -3.062,11.859 -184.715,34.356 z"
             id="path3438"
             style="fill:url(#linearGradient3432);fill-opacity:1;fill-rule:nonzero;stroke:#4d4d4d;stroke-width:0.54123199;stroke-linecap:round;stroke-linejoin:round;stroke-miterlimit:4;stroke-opacity:1;stroke-dasharray:none" /></g></g><g
         id="g3440"><g
           transform="matrix(1,0,0,-1,0,212.59842)"
           id="g3442"><path
             d="m 265.063,74.941 32.136,91.832 6.887,-21.433 -31.371,-92.59 -7.652,22.191 z"
             id="path3450"
             style="fill:url(#linearGradient3444);fill-opacity:1;fill-rule:nonzero;stroke:#4d4d4d;stroke-width:0.54124099;stroke-linecap:round;stroke-linejoin:round;stroke-miterlimit:4;stroke-opacity:1;stroke-dasharray:none" /></g></g><g
         transform="matrix(1,0,0,-1,0,212.59842)"
         id="g3452"><path
           d="m 402.578,119.113 15.11,1.848 11.402,37.621"
           id="path3454"
           style="fill:none;stroke:#ffdd00;stroke-width:1.51183701;stroke-linecap:round;stroke-linejoin:round;stroke-miterlimit:4;stroke-opacity:1;stroke-dasharray:none" /></g><g
         transform="matrix(1,0,0,-1,0,212.59842)"
         id="g3456"><path
           d="M 428.809,158.543 402.906,119.238"
           id="path3458"
           style="fill:none;stroke:#e2001a;stroke-width:1.51183999;stroke-linecap:round;stroke-linejoin:round;stroke-miterlimit:4;stroke-opacity:1;stroke-dasharray:none" /></g><g
         transform="matrix(1,0,0,-1,0,212.59842)"
         id="g3460"><path
           d="m 399.805,127.746 15.418,-2.773 13.918,33.324"
           id="path3462"
           style="fill:none;stroke:#ffdd00;stroke-width:1.51183701;stroke-linecap:round;stroke-linejoin:round;stroke-miterlimit:4;stroke-opacity:1;stroke-dasharray:none" /></g><g
         transform="matrix(1,0,0,-1,0,212.59842)"
         id="g3464"><path
           d="m 428.176,159.816 -27.141,-37.003 -1.305,5.41"
           id="path3466"
           style="fill:none;stroke:#e2001a;stroke-width:1.51183701;stroke-linecap:round;stroke-linejoin:round;stroke-miterlimit:4;stroke-opacity:1;stroke-dasharray:none" /></g><g
         transform="matrix(1,0,0,-1,0,212.59842)"
         id="g3468"><path
           d="m 402.27,139.156 -3.391,-9.25 15.418,-1.234 12.031,37.008 1.942,-6.078"
           id="path3470"
           style="fill:none;stroke:#ffdd00;stroke-width:1.51183701;stroke-linecap:round;stroke-linejoin:round;stroke-miterlimit:4;stroke-opacity:1;stroke-dasharray:none" /></g><g
         transform="matrix(1,0,0,-1,0,212.59842)"
         id="g3472"><path
           d="m 443.902,156.117 -40.089,-21.894 -1.649,5.078"
           id="path3474"
           style="fill:none;stroke:#e2001a;stroke-width:1.24077797;stroke-linecap:butt;stroke-linejoin:miter;stroke-miterlimit:4;stroke-opacity:1;stroke-dasharray:none" /></g><g
         transform="matrix(1,0,0,-1,0,212.59842)"
         id="g3476"><path
           d="m 385.621,143.164 -8.328,-23.434 47.492,-9.253 17.27,52.421 1.961,-7.043"
           id="path3478"
           style="fill:none;stroke:#ffdd00;stroke-width:1.51183701;stroke-linecap:round;stroke-linejoin:round;stroke-miterlimit:4;stroke-opacity:1;stroke-dasharray:none" /></g><g
         transform="matrix(1,0,0,-1,0,212.59842)"
         id="g3480"><path
           d="m 459.004,153.957 -71.535,-16.961 -1.926,6.356"
           id="path3482"
           style="fill:none;stroke:#e2001a;stroke-width:1.51183701;stroke-linecap:round;stroke-linejoin:round;stroke-miterlimit:4;stroke-opacity:1;stroke-dasharray:none" /></g><g
         transform="matrix(1,0,0,-1,0,212.59842)"
         id="g3484"><path
           d="m 369.895,145.941 -12.954,-37.621 78.641,-14.492 21.879,64.754 1.641,-4.953"
           id="path3486"
           style="fill:none;stroke:#ffdd00;stroke-width:1.51183701;stroke-linecap:round;stroke-linejoin:round;stroke-miterlimit:4;stroke-opacity:1;stroke-dasharray:none" /></g><g
         transform="matrix(1,0,0,-1,0,212.59842)"
         id="g3488"><path
           d="m 474.734,150.258 -103.296,-9.559 -1.567,5.422"
           id="path3490"
           style="fill:none;stroke:#e2001a;stroke-width:1.51183701;stroke-linecap:round;stroke-linejoin:round;stroke-miterlimit:4;stroke-opacity:1;stroke-dasharray:none" /></g><g
         transform="matrix(1,0,0,-1,0,212.59842)"
         id="g3492"><path
           d="M 355.402,149.023 337.207,97.836 445.75,77.484 l 27.137,78.325 1.976,-5.848"
           id="path3494"
           style="fill:none;stroke:#ffdd00;stroke-width:1.51183701;stroke-linecap:round;stroke-linejoin:round;stroke-miterlimit:4;stroke-opacity:1;stroke-dasharray:none" /></g><g
         transform="matrix(1,0,0,-1,0,212.59842)"
         id="g3496"><path
           d="m 490.461,148.406 -133.828,-5.551 -1.231,6.168"
           id="path3498"
           style="fill:none;stroke:#e2001a;stroke-width:1.51183701;stroke-linecap:round;stroke-linejoin:round;stroke-miterlimit:4;stroke-opacity:1;stroke-dasharray:none" /></g><g
         transform="matrix(1,0,0,-1,0,212.59842)"
         id="g3500"><path
           d="M 339.676,151.184 316.859,86.43 456.852,60.832 l 31.457,92.199 2.343,-4.879"
           id="path3502"
           style="fill:none;stroke:#ffdd00;stroke-width:1.51183701;stroke-linecap:round;stroke-linejoin:round;stroke-miterlimit:4;stroke-opacity:1;stroke-dasharray:none" /></g><g
         transform="matrix(1,0,0,-1,0,212.59842)"
         id="g3504"><path
           d="m 361.258,87.047 -21.586,64.137"
           id="path3506"
           style="fill:none;stroke:#e2001a;stroke-width:1.51183999;stroke-linecap:round;stroke-linejoin:round;stroke-miterlimit:4;stroke-opacity:1;stroke-dasharray:none" /></g><g
         transform="matrix(1,0,0,-1,0,212.59842)"
         id="g3508"><path
           d="M 429.098,158.543 448.52,99.375"
           id="path3510"
           style="fill:none;stroke:#e2001a;stroke-width:1.51183999;stroke-linecap:round;stroke-linejoin:round;stroke-miterlimit:4;stroke-opacity:1;stroke-dasharray:none" /></g><g
         id="g3512"><path
           d="m 48.039,153.555 -27.164,-6.5 21.809,-92.593 192.461,35.965 -28.696,84.175 -25.261,3.446 -133.149,-24.493 z"
           id="path3520"
           style="fill:url(#linearGradient3514);fill-opacity:1;fill-rule:nonzero;stroke:none" /></g><g
         id="g3522"><g
           transform="matrix(1,0,0,-1,0,212.59842)"
           id="g3524"><path
             d="M 230.543,118.727 207.207,54.066 C 203.246,43.605 196.504,38.512 185.398,39.91 L 38.496,69.148 c -7.531,1.184 -11.254,5.676 -10.715,13.391 l -5.371,-10.488 0.766,-14.926 180.59,-36.73 32.14,81.113 -5.355,17.215"
             id="path3532"
             style="fill:url(#linearGradient3526);fill-opacity:1;fill-rule:nonzero;stroke:#4d4d4d;stroke-width:0.54123199;stroke-linecap:round;stroke-linejoin:round;stroke-miterlimit:4;stroke-opacity:1;stroke-dasharray:none" /></g></g><g
         id="g3534"><g
           transform="matrix(1,0,0,-1,0,212.59842)"
           id="g3536"><path
             d="m 8.25,51.008 31.375,92.59 9.652,-1.438 L 26.996,75.879 25.371,70.938 C 21.883,59.773 38.98,57.156 38.98,57.156 L 189.348,27.957 c 11.105,-1.398 17.847,3.695 21.808,14.156 0,0 -4.015,-10.187 1.028,2.774 l 21.421,62.746 10.333,-1.149 L 212.563,14.277 8.25,51.008"
             id="path3544"
             style="fill:url(#linearGradient3538);fill-opacity:1;fill-rule:nonzero;stroke:#4d4d4d;stroke-width:0.54123199;stroke-linecap:round;stroke-linejoin:round;stroke-miterlimit:4;stroke-opacity:1;stroke-dasharray:none" /></g></g><g
         id="g3546"><g
           transform="matrix(1,0,0,-1,0,212.59842)"
           id="g3548"><path
             d="m 45.828,153.824 3.438,-11.781 -9.641,1.527 -6.891,21.426 204.313,-36.73 6.891,-21.809 -10.333,1.148 -3.062,11.864 -184.715,34.355 z"
             id="path3556"
             style="fill:url(#linearGradient3550);fill-opacity:1;fill-rule:nonzero;stroke:#4d4d4d;stroke-width:0.54123199;stroke-linecap:round;stroke-linejoin:round;stroke-miterlimit:4;stroke-opacity:1;stroke-dasharray:none" /></g></g><g
         id="g3558"><g
           transform="matrix(1,0,0,-1,0,212.59842)"
           id="g3560"><path
             d="M 32.734,165.027 39.625,143.598 8.25,51.004 0.598,73.199 32.734,165.027 z"
             id="path3568"
             style="fill:url(#linearGradient3562);fill-opacity:1;fill-rule:nonzero;stroke:#4d4d4d;stroke-width:0.54124099;stroke-linecap:round;stroke-linejoin:round;stroke-miterlimit:4;stroke-opacity:1;stroke-dasharray:none" /></g></g><g
         transform="matrix(1,0,0,-1,0,212.59842)"
         id="g3570"><path
           d="M 230.543,118.727 207.207,54.07"
           id="path3572"
           style="fill:none;stroke:#4d4d4d;stroke-width:0.61698401;stroke-linecap:butt;stroke-linejoin:miter;stroke-miterlimit:4;stroke-opacity:1;stroke-dasharray:none" /></g><g
         transform="matrix(1,0,0,-1,0,212.59842)"
         id="g3574"><path
           d="m 217.121,135.102 1.617,-1.84"
           id="path3576"
           style="fill:none;stroke:#ffdd00;stroke-width:1.23391998;stroke-linecap:butt;stroke-linejoin:miter;stroke-miterlimit:4;stroke-opacity:1;stroke-dasharray:none" /></g><g
         transform="matrix(1,0,0,-1,0,212.59842)"
         id="g3578"><path
           d="M 215.633,137.742 186.754,57.414 53.551,81.547 c -2.485,0.289 -3.508,2.133 -2.321,5.105 l 24.598,71.938 1.61,-4.899"
           id="path3580"
           style="fill:none;stroke:#ffdd00;stroke-width:1.51183999;stroke-linecap:round;stroke-linejoin:round;stroke-miterlimit:4;stroke-opacity:1;stroke-dasharray:none" /></g><g
         transform="matrix(1,0,0,-1,0,212.59842)"
         id="g3582"><path
           d="m 216.625,133.707 0.496,1.406 -0.672,4.891 -0.812,-2.285"
           id="path3584"
           style="fill:none;stroke:#e2001a;stroke-width:1.511832;stroke-linecap:round;stroke-linejoin:round;stroke-miterlimit:4;stroke-opacity:1;stroke-dasharray:none" /></g><g
         transform="matrix(1,0,0,-1,0,212.59842)"
         id="g3586"><path
           d="M 218.137,131.664 191.855,54.633 c -1.179,-3.34 -1.382,-5.188 -5.57,-4.641 L 48.445,75.52 c -3.117,0.988 -4.347,3.652 -3.25,7.425 l 27.383,82.614 1.395,-5.102 L 47.98,82.484 C 47.348,80.16 48.121,78.613 50.301,77.84 L 186.285,52.777 c 2.203,0.575 2.137,1.387 3.363,4.668 l 26.977,76.293"
           id="path3588"
           style="fill:none;stroke:#ffdd00;stroke-width:1.51183999;stroke-linecap:round;stroke-linejoin:round;stroke-miterlimit:4;stroke-opacity:1;stroke-dasharray:none" /></g><g
         transform="matrix(1,0,0,-1,0,212.59842)"
         id="g3590"><path
           d="m 228.066,132.578 -9.281,0.93 -0.64,-1.875"
           id="path3592"
           style="fill:none;stroke:#e2001a;stroke-width:1.511832;stroke-linecap:round;stroke-linejoin:round;stroke-miterlimit:4;stroke-opacity:1;stroke-dasharray:none" /></g><g
         transform="matrix(1,0,0,-1,0,212.59842)"
         id="g3594"><path
           d="M 56.797,150.703 33.59,85.262 C 32.203,80.605 34.047,74.66 38.23,73.191 L 186.75,46.738 c 7.004,-1.398 8.848,1.063 12.07,9.746 l 26.453,82.153 2.786,-6.035"
           id="path3596"
           style="fill:none;stroke:#ffdd00;stroke-width:1.51183999;stroke-linecap:round;stroke-linejoin:round;stroke-miterlimit:4;stroke-opacity:1;stroke-dasharray:none" /></g><g
         transform="matrix(1,0,0,-1,0,212.59842)"
         id="g3598"><path
           d="M 83.254,159.496 58.191,145.574 56.797,150.68"
           id="path3600"
           style="fill:none;stroke:#e2001a;stroke-width:1.511832;stroke-linecap:round;stroke-linejoin:round;stroke-miterlimit:4;stroke-opacity:1;stroke-dasharray:none" /></g><g
         transform="matrix(1,0,0,-1,0,212.59842)"
         id="g3602"><path
           d="m 163.438,94.371 -0.352,1.078 -71.016,11.602 5.106,19.496 80.289,-16.246 -8.82,-24.137 -73.5,13.473 -15.141,2.773 10.676,32.953 98.386,-17.172 L 174.688,75.957 67.473,95.449 84.18,145.574 201.609,124.223 181.188,66.207 55.867,89.879 l 25.067,74.719 2.472,-5.325"
           id="path3604"
           style="fill:none;stroke:#ffdd00;stroke-width:1.511832;stroke-linecap:round;stroke-linejoin:round;stroke-miterlimit:4;stroke-opacity:1;stroke-dasharray:none" /></g><g
         transform="matrix(1,0,0,-1,0,212.59842)"
         id="g3606"><path
           d="M 184.434,31.863 163.441,94.367"
           id="path3608"
           style="fill:none;stroke:#e2001a;stroke-width:1.51183999;stroke-linecap:round;stroke-linejoin:round;stroke-miterlimit:4;stroke-opacity:1;stroke-dasharray:none" /></g><g
         transform="matrix(1,0,0,-1,0,212.59842)"
         id="g3610"><path
           d="M 77.434,153.664 94.395,101.941"
           id="path3612"
           style="fill:none;stroke:#e2001a;stroke-width:1.51183999;stroke-linecap:round;stroke-linejoin:round;stroke-miterlimit:4;stroke-opacity:1;stroke-dasharray:none" /></g><g
         transform="matrix(1,0,0,-1,0,212.59842)"
         id="g3614"><path
           d="m 187.02,57.641 7.46,-17.055 -6.867,18.871"
           id="path3616"
           style="fill:none;stroke:#ffdd00;stroke-width:1.511832;stroke-linecap:butt;stroke-linejoin:miter;stroke-miterlimit:4;stroke-opacity:1;stroke-dasharray:none" /></g><g
         transform="matrix(1,0,0,-1,0,212.59842)"
         id="g3618"><path
           d="m 186.445,57.512 5.575,-11.157 -4.743,12.454"
           id="path3620"
           style="fill:none;stroke:#ffdd00;stroke-width:0.61699098;stroke-linecap:butt;stroke-linejoin:miter;stroke-miterlimit:4;stroke-opacity:1;stroke-dasharray:none" /></g><g
         transform="matrix(1,0,0,-1,0,212.59842)"
         id="g3622"><path
           d="m 187.281,58.293 1.688,-4.414"
           id="path3624"
           style="fill:none;stroke:#ffdd00;stroke-width:0.61698401;stroke-linecap:butt;stroke-linejoin:miter;stroke-miterlimit:4;stroke-opacity:1;stroke-dasharray:none" /></g><g
         transform="matrix(1,0,0,-1,0,212.59842)"
         id="g3626"><path
           d="M 36.484,74.051 36.836,71.613 46.93,76"
           id="path3628"
           style="fill:none;stroke:#ffdd00;stroke-width:1.23398197;stroke-linecap:butt;stroke-linejoin:miter;stroke-miterlimit:4;stroke-opacity:1;stroke-dasharray:none" /></g><g
         transform="matrix(1,0,0,-1,0,212.59842)"
         id="g3630"><path
           d="m 36.07,76.977 0.071,-2.368 8.632,5.43"
           id="path3632"
           style="fill:none;stroke:#ffdd00;stroke-width:1.23398197;stroke-linecap:butt;stroke-linejoin:miter;stroke-miterlimit:4;stroke-opacity:1;stroke-dasharray:none" /></g><g
         transform="matrix(1,0,0,-1,0,212.59842)"
         id="g3634"><path
           d="m 34.398,76.766 1.184,2.437 10.094,5.711"
           id="path3636"
           style="fill:none;stroke:#ffdd00;stroke-width:1.23398197;stroke-linecap:butt;stroke-linejoin:miter;stroke-miterlimit:4;stroke-opacity:1;stroke-dasharray:none" /></g><g
         transform="matrix(1,0,0,-1,0,212.59842)"
         id="g3638"><path
           d="m 73.969,160.461 1.902,-1.598"
           id="path3640"
           style="fill:none;stroke:#ffdd00;stroke-width:1.23391998;stroke-linecap:butt;stroke-linejoin:miter;stroke-miterlimit:4;stroke-opacity:1;stroke-dasharray:none" /></g><path
         d="m 147.816,16.536 c 0,-5.953 -4.726,-10.777 -10.558,-10.777 -5.832,0 -10.559,4.824 -10.559,10.777 0,5.949 4.727,10.773 10.559,10.773 5.832,0 10.558,-4.824 10.558,-10.773 z"
         id="path3642"
         style="fill:#1f638a;fill-opacity:1;fill-rule:nonzero;stroke:none" /><text
         transform="matrix(1,0,0,-1,132.58387,10.396559)"
         id="text3644"><tspan
           x="0"
           y="0"
           id="tspan3646"
           style="font-size:17.06640053px;font-variant:normal;font-weight:normal;writing-mode:lr-tb;fill:#ffffff;fill-opacity:1;fill-rule:nonzero;stroke:none;font-family:Arial;-inkscape-font-specification:ArialMT">1</tspan></text>
<g
         transform="matrix(1,0,0,-1,0,212.59842)"
         id="g3648"><path
           d="m 138.941,202.203 -1.5,0 0,-9.558 c -0.367,0.347 -0.839,0.691 -1.421,1.035 -0.59,0.347 -1.118,0.605 -1.579,0.773 l 0,-1.449 c 0.836,-0.395 1.571,-0.871 2.2,-1.434 0.625,-0.558 1.07,-1.101 1.332,-1.632 l 0.968,0 0,12.265 z"
           id="path3650"
           style="fill:none;stroke:#ffffff;stroke-width:0.85336;stroke-linecap:butt;stroke-linejoin:miter;stroke-miterlimit:4;stroke-opacity:1;stroke-dasharray:none" /></g><path
         d="m 417.738,16.536 c 0,-5.953 -4.726,-10.777 -10.558,-10.777 -5.832,0 -10.559,4.824 -10.559,10.777 0,5.949 4.727,10.773 10.559,10.773 5.832,0 10.558,-4.824 10.558,-10.773 z"
         id="path3652"
         style="fill:#1f638a;fill-opacity:1;fill-rule:nonzero;stroke:none" /><text
         transform="matrix(1,0,0,-1,402.50495,10.396559)"
         id="text3654"><tspan
           x="0"
           y="0"
           id="tspan3656"
           style="font-size:17.06640053px;font-variant:normal;font-weight:normal;writing-mode:lr-tb;fill:#ffffff;fill-opacity:1;fill-rule:nonzero;stroke:none;font-family:Arial;-inkscape-font-specification:ArialMT">2</tspan></text>
<g
         transform="matrix(1,0,0,-1,0,212.59842)"
         id="g3658"><path
           d="m 411.094,200.762 0,1.441 -8.074,0 c -0.012,-0.359 0.046,-0.707 0.175,-1.043 0.203,-0.547 0.532,-1.086 0.989,-1.621 0.449,-0.531 1.101,-1.148 1.961,-1.851 1.324,-1.086 2.222,-1.95 2.691,-2.586 0.465,-0.637 0.699,-1.239 0.703,-1.805 -0.004,-0.594 -0.219,-1.094 -0.641,-1.504 -0.429,-0.406 -0.98,-0.609 -1.66,-0.613 -0.726,0.004 -1.304,0.218 -1.734,0.648 -0.434,0.434 -0.656,1.035 -0.66,1.801 l -1.539,-0.16 c 0.101,-1.145 0.496,-2.02 1.187,-2.625 0.688,-0.602 1.613,-0.903 2.778,-0.906 1.168,0.003 2.097,0.328 2.781,0.976 0.683,0.652 1.023,1.457 1.027,2.414 -0.004,0.492 -0.101,0.973 -0.301,1.442 -0.199,0.472 -0.531,0.968 -0.996,1.492 -0.465,0.523 -1.238,1.242 -2.312,2.148 -0.903,0.758 -1.477,1.27 -1.731,1.539 -0.258,0.27 -0.468,0.539 -0.633,0.813 l 5.989,0 z"
           id="path3660"
           style="fill:none;stroke:#ffffff;stroke-width:0.85336;stroke-linecap:butt;stroke-linejoin:miter;stroke-miterlimit:4;stroke-opacity:1;stroke-dasharray:none" /></g></g></g></svg>