<svg version="1.1" viewBox="0 0 460.63 283.46" xmlns="http://www.w3.org/2000/svg" xmlns:xlink="http://www.w3.org/1999/xlink">
 <title>Abbildung für OPEN MIND Softwaredokumentation</title>
 <defs>
  <linearGradient id="SVGID_15_" x1="136.48" x2="136.48" y1="133.18" y2="107.29" gradientTransform="matrix(1.0303 .3038 -.2692 .9126 29.476 -43.304)" gradientUnits="userSpaceOnUse">
   <stop stop-color="#802625" offset="0"/>
   <stop stop-color="#912224" offset=".1924"/>
   <stop stop-color="#bb1320" offset=".5963"/>
   <stop stop-color="#e2001a" offset="1"/>
   <stop stop-color="#ffffff" offset="1"/>
  </linearGradient>
  <linearGradient id="SVGID_16_" x1="154.88" x2="154.88" y1="154.32" y2="128.43" gradientTransform="matrix(.8722 .627 -.5554 .7726 99.656 -88.509)" gradientUnits="userSpaceOnUse">
   <stop stop-color="#802625" offset="0"/>
   <stop stop-color="#912224" offset=".1924"/>
   <stop stop-color="#bb1320" offset=".5963"/>
   <stop stop-color="#e2001a" offset="1"/>
   <stop stop-color="#ffffff" offset="1"/>
  </linearGradient>
  <linearGradient id="SVGID_17_" x1="177.23" x2="177.23" y1="184.72" y2="158.83" gradientTransform="matrix(.6373 .8647 -.7659 .5645 190.49 -116.69)" gradientUnits="userSpaceOnUse">
   <stop stop-color="#802625" offset="0"/>
   <stop stop-color="#912224" offset=".1924"/>
   <stop stop-color="#bb1320" offset=".5963"/>
   <stop stop-color="#e2001a" offset="1"/>
   <stop stop-color="#ffffff" offset="1"/>
  </linearGradient>
  <linearGradient id="SVGID_18_" x1="200.58" x2="200.58" y1="219.49" y2="193.6" gradientTransform="matrix(.3348 1.0206 -.9041 .2965 301.08 -113.78)" gradientUnits="userSpaceOnUse">
   <stop stop-color="#802625" offset="0"/>
   <stop stop-color="#912224" offset=".1924"/>
   <stop stop-color="#bb1320" offset=".5963"/>
   <stop stop-color="#e2001a" offset="1"/>
   <stop stop-color="#ffffff" offset="1"/>
  </linearGradient>
  <linearGradient id="SVGID_28_" x1="123.22" x2="115.59" y1="154.04" y2="154.04" gradientTransform="matrix(.90713 0 0 .90713 3.1025 25.963)" gradientUnits="userSpaceOnUse">
   <stop stop-color="#802625" offset="0"/>
   <stop stop-color="#912224" offset=".1924"/>
   <stop stop-color="#bb1320" offset=".5963"/>
   <stop stop-color="#e2001a" offset="1"/>
   <stop stop-color="#ffffff" offset="1"/>
  </linearGradient>
  <radialGradient id="SVGID_29_" cx="101.31" cy="47.276" r="53.629" gradientTransform="matrix(.90713 0 0 .90713 3.1025 25.963)" gradientUnits="userSpaceOnUse">
   <stop stop-color="#dae6b0" offset="0"/>
   <stop stop-color="#dae6af" offset=".0011"/>
   <stop stop-color="#bcd47e" offset=".0823"/>
   <stop stop-color="#a1c658" offset=".1579"/>
   <stop stop-color="#8dbd3b" offset=".2258"/>
   <stop stop-color="#7fb727" offset=".2835"/>
   <stop stop-color="#7ab51d" offset=".3242"/>
   <stop stop-color="#76b01d" offset=".3458"/>
   <stop stop-color="#60921c" offset=".4761"/>
   <stop stop-color="#4c7819" offset=".602"/>
   <stop stop-color="#3c6115" offset=".7204"/>
   <stop stop-color="#2e5011" offset=".8296"/>
   <stop stop-color="#26460e" offset=".9261"/>
   <stop stop-color="#23420d" offset="1"/>
  </radialGradient>
  <radialGradient id="radialGradient37021" cx="111.19" cy="40.784" r="27.322" gradientTransform="matrix(.90713 0 0 .90713 3.1025 25.963)" gradientUnits="userSpaceOnUse">
   <stop stop-color="#ffffff" offset="0"/>
   <stop stop-color="#fffdfb" offset=".0082"/>
   <stop stop-color="#feedd7" offset=".1014"/>
   <stop stop-color="#fde1bb" offset=".1856"/>
   <stop stop-color="#fcd8aa" offset=".2572"/>
   <stop stop-color="#fcd6a4" offset=".3077"/>
   <stop stop-color="#fcd19a" offset=".3805"/>
   <stop stop-color="#fac57f" offset=".5075"/>
   <stop stop-color="#f7b151" offset=".6725"/>
   <stop stop-color="#f6aa42" offset=".7253"/>
   <stop stop-color="#e2781b" offset=".905"/>
   <stop stop-color="#da620d" offset="1"/>
  </radialGradient>
  <linearGradient id="linearGradient37087" x1="118.78" x2="118.78" y1="163.6" y2="154.04" gradientTransform="matrix(.90713 0 0 .90713 3.1025 25.963)" gradientUnits="userSpaceOnUse">
   <stop stop-color="#802625" offset="0"/>
   <stop stop-color="#912224" offset=".1924"/>
   <stop stop-color="#bb1320" offset=".5963"/>
   <stop stop-color="#e2001a" offset="1"/>
   <stop stop-color="#ffffff" offset="1"/>
  </linearGradient>
  <linearGradient id="linearGradient37230" x1="193.54" x2="186.42" y1="181.14" y2="181.14" gradientTransform="matrix(.32185 .84816 -.84816 .32185 252.87 -55.077)" gradientUnits="userSpaceOnUse">
   <stop stop-color="#802625" offset="0"/>
   <stop stop-color="#912224" offset=".1924"/>
   <stop stop-color="#bb1320" offset=".5963"/>
   <stop stop-color="#e2001a" offset="1"/>
   <stop stop-color="#ffffff" offset="1"/>
  </linearGradient>
  <linearGradient id="linearGradient37233" x1="189.87" x2="189.87" y1="203.16" y2="181.14" gradientTransform="matrix(.32185 .84816 -.84816 .32185 252.87 -55.077)" gradientUnits="userSpaceOnUse">
   <stop stop-color="#802625" offset="0"/>
   <stop stop-color="#912224" offset=".1924"/>
   <stop stop-color="#bb1320" offset=".5963"/>
   <stop stop-color="#e2001a" offset="1"/>
   <stop stop-color="#ffffff" offset="1"/>
  </linearGradient>
  <linearGradient id="linearGradient37252" x1="165.04" x2="157.91" y1="154.5" y2="154.5" gradientTransform="matrix(.61186 .66973 -.66973 .61186 157.74 -59.381)" gradientUnits="userSpaceOnUse">
   <stop stop-color="#802625" offset="0"/>
   <stop stop-color="#912224" offset=".1924"/>
   <stop stop-color="#bb1320" offset=".5963"/>
   <stop stop-color="#e2001a" offset="1"/>
   <stop stop-color="#ffffff" offset="1"/>
  </linearGradient>
  <linearGradient id="linearGradient37255" x1="161.37" x2="161.37" y1="176.52" y2="154.5" gradientTransform="matrix(.61186 .66973 -.66973 .61186 157.74 -59.381)" gradientUnits="userSpaceOnUse">
   <stop stop-color="#802625" offset="0"/>
   <stop stop-color="#912224" offset=".1924"/>
   <stop stop-color="#bb1320" offset=".5963"/>
   <stop stop-color="#e2001a" offset="1"/>
   <stop stop-color="#ffffff" offset="1"/>
  </linearGradient>
  <linearGradient id="linearGradient37274" x1="144.94" x2="137.82" y1="127.83" y2="127.83" gradientTransform="matrix(.79963 .42826 -.42826 .79963 81.728 -37.141)" gradientUnits="userSpaceOnUse">
   <stop stop-color="#802625" offset="0"/>
   <stop stop-color="#912224" offset=".1924"/>
   <stop stop-color="#bb1320" offset=".5963"/>
   <stop stop-color="#e2001a" offset="1"/>
   <stop stop-color="#ffffff" offset="1"/>
  </linearGradient>
  <linearGradient id="linearGradient37277" x1="141.38" x2="141.38" y1="152.41" y2="127.83" gradientTransform="matrix(.79963 .42826 -.42826 .79963 81.728 -37.141)" gradientUnits="userSpaceOnUse">
   <stop stop-color="#802625" offset="0"/>
   <stop stop-color="#912224" offset=".1924"/>
   <stop stop-color="#bb1320" offset=".5963"/>
   <stop stop-color="#e2001a" offset="1"/>
   <stop stop-color="#ffffff" offset="1"/>
  </linearGradient>
  <linearGradient id="linearGradient37296" x1="130.91" x2="123.78" y1="106.48" y2="106.48" gradientTransform="matrix(.88699 .19004 -.19004 .88699 32.122 -4.1216)" gradientUnits="userSpaceOnUse">
   <stop stop-color="#802625" offset="0"/>
   <stop stop-color="#912224" offset=".1924"/>
   <stop stop-color="#bb1320" offset=".5963"/>
   <stop stop-color="#e2001a" offset="1"/>
   <stop stop-color="#ffffff" offset="1"/>
  </linearGradient>
  <linearGradient id="linearGradient37299" x1="127.34" x2="127.34" y1="131.05" y2="106.47" gradientTransform="matrix(.88699 .19004 -.19004 .88699 32.122 -4.1216)" gradientUnits="userSpaceOnUse">
   <stop stop-color="#802625" offset="0"/>
   <stop stop-color="#912224" offset=".1924"/>
   <stop stop-color="#bb1320" offset=".5963"/>
   <stop stop-color="#e2001a" offset="1"/>
   <stop stop-color="#ffffff" offset="1"/>
  </linearGradient>
  <linearGradient id="linearGradient37303" x1="122.36" x2="114.97" y1="131.39" y2="131.39" gradientTransform="matrix(.90713 0 0 .90713 3.1025 25.963)" gradientUnits="userSpaceOnUse">
   <stop stop-color="#802625" offset="0"/>
   <stop stop-color="#912224" offset=".1924"/>
   <stop stop-color="#bb1320" offset=".5963"/>
   <stop stop-color="#e2001a" offset="1"/>
   <stop stop-color="#ffffff" offset="1"/>
  </linearGradient>
  <linearGradient id="linearGradient37319" x1="118.66" x2="118.66" y1="147.22" y2="131.39" gradientTransform="matrix(.90713 0 0 .90713 3.1025 25.963)" gradientUnits="userSpaceOnUse">
   <stop stop-color="#802625" offset="0"/>
   <stop stop-color="#912224" offset=".1924"/>
   <stop stop-color="#bb1320" offset=".5963"/>
   <stop stop-color="#e2001a" offset="1"/>
   <stop stop-color="#ffffff" offset="1"/>
  </linearGradient>
  <linearGradient id="linearGradient37338" x1="101.18" x2="94.053" y1="108.73" y2="108.73" gradientTransform="matrix(.33745 -.842 .842 .33745 -64.053 209.78)" gradientUnits="userSpaceOnUse">
   <stop stop-color="#802625" offset="0"/>
   <stop stop-color="#912224" offset=".1924"/>
   <stop stop-color="#bb1320" offset=".5963"/>
   <stop stop-color="#e2001a" offset="1"/>
   <stop stop-color="#ffffff" offset="1"/>
  </linearGradient>
  <linearGradient id="linearGradient37341" x1="97.445" x2="97.445" y1="128.6" y2="108.73" gradientTransform="matrix(.33745 -.842 .842 .33745 -64.053 209.78)" gradientUnits="userSpaceOnUse">
   <stop stop-color="#802625" offset="0"/>
   <stop stop-color="#912224" offset=".1924"/>
   <stop stop-color="#bb1320" offset=".5963"/>
   <stop stop-color="#e2001a" offset="1"/>
   <stop stop-color="#ffffff" offset="1"/>
  </linearGradient>
  <linearGradient id="linearGradient37360" x1="101.59" x2="94.461" y1="96.46" y2="96.46" gradientTransform="matrix(.64016 -.6427 .6427 .64016 -57.428 144.96)" gradientUnits="userSpaceOnUse">
   <stop stop-color="#802625" offset="0"/>
   <stop stop-color="#912224" offset=".1924"/>
   <stop stop-color="#bb1320" offset=".5963"/>
   <stop stop-color="#e2001a" offset="1"/>
   <stop stop-color="#ffffff" offset="1"/>
  </linearGradient>
  <linearGradient id="linearGradient37363" x1="97.976" x2="97.976" y1="118.07" y2="96.46" gradientTransform="matrix(.64016 -.6427 .6427 .64016 -57.428 144.96)" gradientUnits="userSpaceOnUse">
   <stop stop-color="#802625" offset="0"/>
   <stop stop-color="#912224" offset=".1924"/>
   <stop stop-color="#bb1320" offset=".5963"/>
   <stop stop-color="#e2001a" offset="1"/>
   <stop stop-color="#ffffff" offset="1"/>
  </linearGradient>
  <linearGradient id="linearGradient37382" x1="106.98" x2="99.849" y1="89.877" y2="89.877" gradientTransform="matrix(.80054 -.42662 .42662 .80054 -41.945 98.214)" gradientUnits="userSpaceOnUse">
   <stop stop-color="#802625" offset="0"/>
   <stop stop-color="#912224" offset=".1924"/>
   <stop stop-color="#bb1320" offset=".5963"/>
   <stop stop-color="#e2001a" offset="1"/>
   <stop stop-color="#ffffff" offset="1"/>
  </linearGradient>
  <linearGradient id="linearGradient37385" x1="103.41" x2="103.41" y1="114.46" y2="89.876" gradientTransform="matrix(.80054 -.42662 .42662 .80054 -41.945 98.214)" gradientUnits="userSpaceOnUse">
   <stop stop-color="#802625" offset="0"/>
   <stop stop-color="#912224" offset=".1924"/>
   <stop stop-color="#bb1320" offset=".5963"/>
   <stop stop-color="#e2001a" offset="1"/>
   <stop stop-color="#ffffff" offset="1"/>
  </linearGradient>
  <linearGradient id="linearGradient37389" x1="121.75" x2="114.36" y1="111.25" y2="111.25" gradientTransform="matrix(.90713 0 0 .90713 3.1025 25.963)" gradientUnits="userSpaceOnUse">
   <stop stop-color="#802625" offset="0"/>
   <stop stop-color="#912224" offset=".1924"/>
   <stop stop-color="#bb1320" offset=".5963"/>
   <stop stop-color="#e2001a" offset="1"/>
   <stop stop-color="#ffffff" offset="1"/>
  </linearGradient>
  <linearGradient id="linearGradient37405" x1="118.06" x2="118.06" y1="132.86" y2="111.25" gradientTransform="matrix(.90713 0 0 .90713 3.1025 25.963)" gradientUnits="userSpaceOnUse">
   <stop stop-color="#802625" offset="0"/>
   <stop stop-color="#912224" offset=".1924"/>
   <stop stop-color="#bb1320" offset=".5963"/>
   <stop stop-color="#e2001a" offset="1"/>
   <stop stop-color="#ffffff" offset="1"/>
  </linearGradient>
  <linearGradient id="linearGradient37424" x1="112.13" x2="105" y1="89.831" y2="89.831" gradientTransform="matrix(.88808 -.18505 .18505 .88808 -18.517 55.437)" gradientUnits="userSpaceOnUse">
   <stop stop-color="#802625" offset="0"/>
   <stop stop-color="#912224" offset=".1924"/>
   <stop stop-color="#bb1320" offset=".5963"/>
   <stop stop-color="#e2001a" offset="1"/>
   <stop stop-color="#ffffff" offset="1"/>
  </linearGradient>
  <linearGradient id="linearGradient37427" x1="108.57" x2="108.57" y1="114.41" y2="89.83" gradientTransform="matrix(.88808 -.18505 .18505 .88808 -18.517 55.437)" gradientUnits="userSpaceOnUse">
   <stop stop-color="#802625" offset="0"/>
   <stop stop-color="#912224" offset=".1924"/>
   <stop stop-color="#bb1320" offset=".5963"/>
   <stop stop-color="#e2001a" offset="1"/>
   <stop stop-color="#ffffff" offset="1"/>
  </linearGradient>
  <linearGradient id="linearGradient37431" x1="120.49" x2="113.37" y1="98.265" y2="98.265" gradientTransform="matrix(.90713 0 0 .90713 3.1025 25.963)" gradientUnits="userSpaceOnUse">
   <stop stop-color="#802625" offset="0"/>
   <stop stop-color="#912224" offset=".1924"/>
   <stop stop-color="#bb1320" offset=".5963"/>
   <stop stop-color="#e2001a" offset="1"/>
   <stop stop-color="#ffffff" offset="1"/>
  </linearGradient>
  <linearGradient id="linearGradient37447" x1="116.93" x2="116.93" y1="122.84" y2="98.265" gradientTransform="matrix(.90713 0 0 .90713 3.1025 25.963)" gradientUnits="userSpaceOnUse">
   <stop stop-color="#802625" offset="0"/>
   <stop stop-color="#912224" offset=".1924"/>
   <stop stop-color="#bb1320" offset=".5963"/>
   <stop stop-color="#e2001a" offset="1"/>
   <stop stop-color="#ffffff" offset="1"/>
  </linearGradient>
  <linearGradient id="linearGradient17780-7">
   <stop stop-color="#ffffff" offset="0"/>
   <stop stop-color="#00385e" offset="1"/>
  </linearGradient>
  <linearGradient id="linearGradient38009" x1=".077407" x2="227.47" y1="219.89" y2="234.92" gradientUnits="userSpaceOnUse" xlink:href="#linearGradient17780-7"/>
  <linearGradient id="linearGradient38017" x1="100.38" x2="245.48" y1="224.02" y2="267.74" gradientTransform="matrix(.90713 0 0 .90713 3.1025 25.963)" gradientUnits="userSpaceOnUse">
   <stop stop-color="#ffffff" offset="0"/>
   <stop stop-color="#00385e" offset="1"/>
  </linearGradient>
  <linearGradient id="linearGradient38025" x1="47.815" x2="220.23" y1="917.62" y2="916.1" gradientTransform="translate(-14 -768.9)" gradientUnits="userSpaceOnUse" xlink:href="#linearGradient17780-7"/>
  <linearGradient id="linearGradient12393" x1="134.01" x2="181.56" y1="994.18" y2="994.18" gradientTransform="translate(0 -768.9)" gradientUnits="userSpaceOnUse" xlink:href="#linearGradient17780-7"/>
  <linearGradient id="linearGradient12401" x1="147.52" x2="203.68" y1="994.18" y2="995.19" gradientTransform="translate(0 -768.9)" gradientUnits="userSpaceOnUse" xlink:href="#linearGradient17780-7"/>
  <linearGradient id="linearGradient12417" x1="58.406" x2="115.55" y1="994.18" y2="993.68" gradientTransform="translate(0 -768.9)" gradientUnits="userSpaceOnUse" xlink:href="#linearGradient17780-7"/>
  <linearGradient id="linearGradient12425" x1="45.379" x2="93.45" y1="994.18" y2="994.18" gradientTransform="translate(0 -768.9)" gradientUnits="userSpaceOnUse" xlink:href="#linearGradient17780-7"/>
 </defs>
 <g fill-rule="evenodd" stroke="#4d4d4d" stroke-miterlimit="10" stroke-width=".29582">
  <polygon transform="matrix(.90713 0 0 .90713 3.1025 25.963)" points="110.67 247.9 110.67 167.09 231 175.36 231 257.07" fill="#b3b3b3" opacity=".5"/>
  <polygon transform="matrix(.90713 0 0 .90713 3.1025 25.963)" points="120.77 264.89 0.427 255.7 110.67 247.9 231 257.07" fill="#999999" opacity=".5"/>
  <polygon transform="matrix(.90713 0 0 .90713 3.1025 25.963)" points="110.67 167.09 110.67 247.9 0.427 255.7 0.427 174.89" fill="#cccccc" opacity=".5"/>
 </g>
 <path d="m112.66 266.25v0l99.988-7.0892v-74.128l-99.988 7.0729z" fill="url(#linearGradient38017)" opacity=".5" stroke="#4d4d4d" stroke-linecap="square" stroke-miterlimit="10" stroke-width=".67654"/>
 <polygon transform="matrix(.90713 0 0 .90713 3.1025 25.963)" points="231 175.36 110.67 167.09 0.427 174.89 120.77 183.15" fill="none" opacity=".5" stroke="#000000" stroke-linecap="square" stroke-miterlimit="10" stroke-width=".69919"/>
 <g stroke-linecap="square" stroke-miterlimit="10">
  <polygon transform="matrix(.90713 0 0 .90713 3.1025 25.963)" points="0.427 255.7 120.77 264.89 120.77 183.15 0.427 174.89" fill="url(#linearGradient38009)" opacity=".5" stroke="#000000" stroke-width=".69919"/>
  <path d="m147.66 243.67c7.1944 0 13.026-8.2304 13.026-18.385 0-10.152-5.8328-18.383-13.026-18.383h15.584c7.1944 0 13.026 8.2304 13.026 18.383 0 10.153-5.8328 18.385-13.026 18.385z" fill="url(#linearGradient12401)" stroke="#000000" stroke-width=".26835"/>
  <g stroke="#4d4d4d" stroke-width=".26835">
   <path d="m147.17 243.67c-7.1944 0-13.026-8.2304-13.026-18.385 0-10.152 5.8328-18.383 13.026-18.383h16.07c-7.1944 0-13.026 8.2304-13.026 18.383 0 10.153 5.8328 18.385 13.026 18.385z" fill="url(#linearGradient12393)"/>
   <path d="m74.123 243.67c-7.1944 0-13.026-8.2304-13.026-18.385 0-10.152 5.8328-18.383 13.026-18.383h-15.584c-7.1944 0-13.026 8.2304-13.026 18.383 0 10.153 5.8328 18.385 13.026 18.385z" fill="url(#linearGradient12425)"/>
   <path d="m74.61 243.67c7.1944 0 13.026-8.2304 13.026-18.385 0-10.152-5.8328-18.383-13.026-18.383h-16.07c7.1944 0 13.026 8.2304 13.026 18.383 0 10.153-5.8328 18.385-13.026 18.385z" fill="url(#linearGradient12417)"/>
  </g>
 </g>
 <ellipse cx="108.96" cy="184.67" rx="74.734" ry="4.7243" fill="#999999" opacity=".5" stroke="#28282a" stroke-linecap="square" stroke-miterlimit="10" stroke-width=".26835"/>
 <g stroke="#4d4d4d" stroke-linecap="square" stroke-miterlimit="10">
  <path d="m183.57 184.39 0.11792 0.28211c0 2.6098-33.46 4.7243-74.735 4.7243-41.274 0-74.734-2.1145-74.734-4.7243l-0.09253-0.38825 0.6876-4.1991 0.78013-4.0912 0.84363-3.9496 0.95248-3.8408 1.0314-3.7156 1.1248-3.5913 1.2019-3.4816 1.3117-3.3573 1.4206-3.2321 1.5149-3.1214 1.6083-2.9981 1.719-2.8729 1.827-2.7631 1.9521-2.6543 2.0465-2.53 2.1862-2.4039 2.2805-2.3105 2.4202-2.1862 2.53-2.0764 2.6715-1.9503 2.7958-1.8424 2.92-1.749 3.0616-1.6238 3.1858-1.514 3.3428-1.3897 3.467-1.2963 3.6231-1.1865 3.7637-1.0777 3.9197-0.96791 4.0612-0.85814 4.2327-0.76562 4.3733-0.64043 4.513 0.56242 4.3424 0.71845 4.2163 0.88898 4.0449 1.0459 3.9206 1.202 3.7628 1.3426 3.6076 1.4832 3.4834 1.6238 3.3274 1.7635 3.1858 1.8895 3.0452 1.9984 2.9055 2.139 2.7794 2.2324 2.6243 2.3576 2.4819 2.4511 2.3585 2.5445 2.2179 2.6543 2.0928 2.7332 1.9521 2.8248 1.8124 2.9046 1.6864 2.9672 1.5612 3.0434 1.4206 3.1078 1.2972 3.1677 1.1711 3.2321 1.0468 3.2793 0.92164 3.3092 0.78104 3.3736 0.67127 3.3872 0.5461 3.4335 0.42181 3.4516 0.38644 3.2303" fill="url(#linearGradient38025)" stroke-width=".67654"/>
  <g stroke-width=".26835">
   <path d="m112.4 135.56c0 1.016-1.4478 1.8406-3.2321 1.8406-1.7861 0-3.2321-0.82458-3.2321-1.8406v-20.456c0 1.0169 1.4469 1.8406 3.2321 1.8406 1.7843 0 3.2321-0.82458 3.2321-1.8406z" fill="url(#linearGradient37447)"/>
   <ellipse cx="109.17" cy="115.1" rx="3.2321" ry="1.8406" fill="url(#linearGradient37431)"/>
   <path d="m101.86 134.49c0.20773 0.99512-1.0414 2.0982-2.7876 2.4619-1.749 0.36376-3.3337-0.14786-3.5396-1.143l-4.1737-20.026c0.20773 0.99512 1.7916 1.5076 3.5396 1.143 1.7471-0.36376 2.9962-1.4659 2.7876-2.461z" fill="url(#linearGradient37427)"/>
   <path d="m97.685 114.46c0.20774 0.99512-1.0405 2.0973-2.7876 2.461-1.7489 0.36466-3.3328-0.14787-3.5396-1.143-0.20774-0.99602 1.0405-2.0982 2.7885-2.4619 1.7471-0.36376 3.3319 0.14786 3.5387 1.1439z" fill="url(#linearGradient37424)"/>
   <path d="m113.55 144.31c0 1.1965-1.5013 2.168-3.3536 2.168-1.8542 0-3.3555-0.97063-3.3555-2.168v-17.429c0 1.1965 1.5013 2.168 3.3555 2.168 1.8524 0 3.3536-0.97063 3.3536-2.168z" fill="url(#linearGradient37405)"/>
   <ellipse cx="110.19" cy="126.89" rx="3.3546" ry="2.168" fill="url(#linearGradient37389)"/>
   <path d="m91.657 142.58c0.47805 0.89624-0.41093 2.305-1.9848 3.145-1.5757 0.84001-3.2412 0.79283-3.7183-0.10432l-9.6219-18.052c0.47806 0.89624 2.1417 0.94432 3.7192 0.10431 1.5748-0.84 2.4647-2.2479 1.9857-3.145z" fill="url(#linearGradient37385)"/>
   <path d="m82.036 124.52c0.47806 0.89715-0.41093 2.305-1.9857 3.145-1.5766 0.84-3.2403 0.79192-3.7192-0.10432-0.47806-0.89715 0.41093-2.305 1.9866-3.145 1.5748-0.84 3.2403-0.79373 3.7183 0.10432z" fill="url(#linearGradient37382)"/>
   <path d="m82.123 154.02c0.72026 0.71663 0.28393 2.325-0.97607 3.5886-1.26 1.2664-2.8647 1.709-3.5841 0.99149l-12.525-12.599c0.71935 0.71663 2.325 0.27486 3.5859-0.99149 1.2582-1.2645 1.6963-2.8711 0.97516-3.5886z" fill="url(#linearGradient37363)"/>
   <path d="m69.6 141.42c0.72117 0.71754 0.28302 2.325-0.97516 3.5886-1.2618 1.2664-2.8665 1.7081-3.5859 0.99149-0.72117-0.71754-0.28393-2.325 0.97607-3.5895 1.26-1.2645 2.8638-1.709 3.585-0.99058z" fill="url(#linearGradient37360)"/>
   <path d="m76.549 167.59c0.94251 0.37737 1.1702 2.0274 0.50708 3.6848-0.66402 1.6582-1.9685 2.6942-2.911 2.315l-14.908-6.3082c0.94251 0.37736 2.247-0.65767 2.911-2.3159 0.66402-1.6564 0.43724-3.3065-0.50708-3.6848z" fill="url(#linearGradient37341)"/>
   <path d="m61.642 161.28c0.94432 0.37827 1.1711 2.0274 0.50708 3.6848-0.66402 1.6582-1.9685 2.6933-2.911 2.3159-0.94432-0.37827-1.1711-2.0274-0.50708-3.6857 0.6622-1.6582 1.9667-2.6942 2.911-2.315z" fill="url(#linearGradient37338)"/>
   <path d="m114.1 157.35c0 1.1965-1.5013 2.168-3.3537 2.168-1.8542 0-3.3555-0.97062-3.3555-2.168v-12.197c0 1.1965 1.5013 2.168 3.3555 2.168 1.8524 0 3.3537-0.97063 3.3537-2.168z" fill="url(#linearGradient37319)"/>
   <ellipse cx="110.75" cy="145.15" rx="3.3546" ry="2.168" fill="url(#linearGradient37303)"/>
  </g>
 </g>
 <g fill-rule="evenodd" stroke="#4d4d4d" stroke-miterlimit="10">
  <g stroke-width=".29582">
   <polygon transform="matrix(.90713 0 0 .90713 3.1025 25.963)" points="144.37 97.002 137.4 120.63 131.08 118.77 138.05 95.141" fill="url(#SVGID_15_)"/>
   <polygon transform="matrix(.90713 0 0 .90713 3.1025 25.963)" points="166.08 109.74 151.71 129.74 146.36 125.9 160.74 105.9" fill="url(#SVGID_16_)"/>
   <polygon transform="matrix(.90713 0 0 .90713 3.1025 25.963)" points="183.74 128.87 163.91 143.48 160.01 138.18 179.83 123.57" fill="url(#SVGID_17_)"/>
   <polygon transform="matrix(.90713 0 0 .90713 3.1025 25.963)" points="194.22 151.46 170.82 159.14 168.76 152.88 192.17 145.2" fill="url(#SVGID_18_)"/>
  </g>
  <path d="m113.75 171.14c0 1.7861-1.5485 3.233-3.4589 3.233-1.9122 0-3.4607-1.4478-3.4607-3.233l1.1339-5.4446c0 1.7861 1.5485 3.233 3.4607 3.233 1.9104 0 3.4589-1.4478 3.4589-3.233z" fill="url(#linearGradient37087)" stroke-width=".26835"/>
 </g>
 <g stroke="#4d4d4d" stroke-miterlimit="10" stroke-width=".26835">
  <g stroke-linecap="square">
   <path d="m123.71 135.2c-0.21317 0.9933-1.8006 1.4958-3.546 1.1221-1.7462-0.37373-2.9881-1.4841-2.7749-2.4765l4.2871-20.002c-0.21317 0.99421 1.0287 2.1027 2.7749 2.4774 1.7444 0.37374 3.3328-0.12881 3.546-1.123z" fill="url(#linearGradient37299)"/>
   <path d="m128 115.2c-0.21318 0.99421-1.8016 1.4968-3.546 1.123-1.7462-0.37464-2.9881-1.4832-2.7749-2.4774 0.21227-0.99421 1.7997-1.4977 3.546-1.123 1.7444 0.37374 2.9872 1.4832 2.7749 2.4774z" fill="url(#linearGradient37296)"/>
   <path d="m133.23 145.18c-0.47987 0.89443-2.1444 0.93888-3.7183 0.0962-1.5739-0.84272-2.461-2.2533-1.9812-3.1486l9.6582-18.033c-0.47988 0.89533 0.40548 2.3059 1.9803 3.1496 1.572 0.84272 3.2375 0.79918 3.7192-0.0971l-9.6582 18.033z" fill="url(#linearGradient37277)"/>
   <path d="m142.89 127.15c-0.48078 0.89625-2.1463 0.93979-3.7192 0.0971-1.5739-0.84363-2.4601-2.2533-1.9803-3.1496 0.47987-0.89715 2.1444-0.94069 3.7192-0.0971 1.573 0.84273 2.4601 2.2542 1.9803 3.1496z" fill="url(#linearGradient37274)"/>
   <path d="m141.73 157.78c-0.7502 0.68397-2.334 0.17235-3.5378-1.1457-1.2047-1.3172-1.572-2.9427-0.82186-3.6276l13.517-12.09c-0.7502 0.68489-0.38372 2.3096 0.82004 3.6285 1.2028 1.3172 2.7876 1.8297 3.5396 1.1448z" fill="url(#linearGradient37255)"/>
   <path d="m155.25 145.69c-0.75201 0.68488-2.3368 0.17236-3.5396-1.1448-1.2038-1.319-1.5702-2.9436-0.82004-3.6285 0.7511-0.68669 2.335-0.17416 3.5396 1.1448 1.2028 1.3172 1.5693 2.9427 0.82005 3.6285z" fill="url(#linearGradient37252)"/>
   <path d="m144.5 173.63c-0.94886 0.35922-2.2334-0.6994-2.8665-2.3685-0.63408-1.6691-0.37645-3.3156 0.57331-3.6757l17.023-6.2556c-0.94976 0.35922-1.2074 2.0057-0.57511 3.6757 0.63226 1.6682 1.9168 2.7277 2.8683 2.3685z" fill="url(#linearGradient37233)"/>
   <path d="m161.53 167.38c-0.95157 0.35922-2.2361-0.7003-2.8683-2.3685-0.63227-1.67-0.37465-3.3156 0.57511-3.6757 0.95158-0.36104 2.2352 0.69849 2.8683 2.3685 0.63318 1.6682 0.37465 3.3137-0.57512 3.6757z" fill="url(#linearGradient37230)"/>
  </g>
  <ellipse cx="111.42" cy="165.69" rx="3.4598" ry="3.233" fill="url(#SVGID_28_)" fill-rule="evenodd"/>
  <g stroke-linecap="square">
   <path d="m58.699 186.52 0.18778-3.917 0.2803-3.8889 0.3438-3.8399 0.45266-3.7791 0.56242-3.7147 0.67128-3.6693 0.78104-3.6076 0.87538-3.5432 1.0305-3.4353 1.1394-3.3881 1.2809-3.2929 1.4215-3.1858 1.5621-3.106 1.6873-2.9981 1.8587-2.9037 2.0138-2.7949 2.1708-2.6542 2.3576-2.5762 2.5155-2.4202 2.6869-2.295 2.8738-2.1544 3.0752-2.0138 3.2648-1.8732 3.4362-1.7326 3.6548-1.5612 3.8734-1.406 4.0612-1.2482 5.3874 1.9984 4.982 2.1227 4.6227 2.217 4.2644 2.3259 3.9188 2.4366 3.6095 2.4982 3.2956 2.6071 2.9972 2.6688 2.7187 2.7804 2.452 2.8257 2.1862 2.92 1.9685 2.9654 1.7326 3.0443 1.5149 3.0752 1.3426 3.1541 1.1575 3.1849 0.98333 3.2475 0.85905 3.2784 0.6876 3.3092 0.59326 3.3573 0.46808 3.3582 0.40549 3.4036 0.29753 3.4172 0.24946 3.4199 0.20229 3.4353 0.17236 3.4489" fill="none"/>
   <ellipse cx="109.12" cy="83.021" rx="29.288" ry="28.643" fill="url(#SVGID_29_)"/>
   <path d="m110.53 54.451c-11.943 1.6827-18.543 13.297-20.318 24.308 15.767 1.3634 31.972 1.0632 47.635-1.28-3.0625-13.673-13.778-22.128-27.317-23.028" fill="url(#radialGradient37021)"/>
  </g>
 </g>
 <g fill="none" stroke-linecap="square" stroke-miterlimit="10">
  <g stroke="#ee7f00">
   <g stroke-width=".24012">
    <path d="m110.33 54.747c-10.723 2.4756-16.196 14.143-18.072 24.151"/>
    <path d="m110.38 54.778c-10.093 2.7949-11.802 15.57-13.25 24.543"/>
    <path d="m110.47 54.763c-7.1409 5.4373-7.2008 16.392-7.9147 24.7"/>
    <path d="m110.72 54.763c-2.6334 7.189-1.4587 16.829-1.3226 24.7"/>
    <path d="m111.03 54.763c2.8058 7.6262 4.6454 16.524 4.4313 24.7"/>
    <path d="m111.1 54.81c6.7799 5.0545 9.8115 15.727 10.198 24.121"/>
    <path d="m111.33 54.763c8.888 3.4199 14.451 14.571 15.102 23.808"/>
    <path d="m111.79 54.763c10.001 2.4193 17.77 13.299 18.492 23.372"/>
    <path d="m112.22 54.763c10.802 1.5784 20.149 12.441 21.07 23.169"/>
    <path d="m112.1 54.637c11.126 1.6791 22.105 11.451 23.506 22.856"/>
   </g>
   <g stroke-width=".2647">
    <polyline transform="matrix(.90713 0 0 .90713 3.1025 25.963)" points="103.04 40.87 105.23 40.938 107.43 41.007 109.63 41.042 111.84 41.076 114.06 41.094 116.28 41.094 118.5 41.076 120.74 41.042 122.98 40.956 125.22 40.87 127.45 40.732 129.69 40.56 130.81 40.474 131.93 40.354 133.07 40.25 134.18 40.113 135.3 39.992 136.42 39.837 137.56 39.682 138.68 39.51"/>
    <polyline transform="matrix(.90713 0 0 .90713 3.1025 25.963)" points="106.71 36.877 108.74 36.911 110.62 36.929 112.37 36.946 114.02 36.963 115.59 36.963 117.09 36.963 118.55 36.946 120.02 36.911 121.46 36.86 122.94 36.791 124.46 36.688 126.04 36.567 127.73 36.429 129.52 36.24 131.45 36.034 133.51 35.792"/>
    <polyline transform="matrix(.90713 0 0 .90713 3.1025 25.963)" points="111.36 33.659 112.42 33.693 113.4 33.728 114.3 33.762 115.14 33.796 115.95 33.831 116.76 33.848 117.57 33.848 118.4 33.848 119.28 33.848 120.22 33.813 121.24 33.779 122.36 33.71 123.62 33.641 124.99 33.538 126.54 33.417 128.26 33.28"/>
    <polyline transform="matrix(.90713 0 0 .90713 3.1025 25.963)" points="100.15 45.517 102.42 45.585 104.81 45.637 107.34 45.689 109.96 45.706 112.66 45.706 115.44 45.689 118.24 45.637 121.08 45.568 123.92 45.482 126.75 45.362 128.14 45.293 129.54 45.207 130.9 45.121 132.26 45.018 133.6 44.915 134.92 44.811 136.22 44.691 137.49 44.553 138.73 44.416 139.94 44.26 141.12 44.105 142.26 43.934"/>
    <polyline transform="matrix(.90713 0 0 .90713 3.1025 25.963)" points="97.96 50.525 99.08 50.629 100.28 50.715 101.54 50.783 102.85 50.852 104.21 50.904 105.64 50.955 107.1 50.99 108.6 51.007 110.13 51.024 111.7 51.041 113.3 51.041 114.92 51.024 116.56 51.007 118.21 50.973 119.88 50.938 121.55 50.887 123.22 50.835 124.87 50.766 126.54 50.697 128.18 50.629 129.81 50.525 131.41 50.439 133 50.336 134.56 50.215 136.08 50.095 137.56 49.975 138.99 49.837 140.38 49.699 141.73 49.544 143 49.389 144.22 49.217 145.39 49.045"/>
    <polyline transform="matrix(.90713 0 0 .90713 3.1025 25.963)" points="96.566 55.758 97.703 55.878 98.925 55.998 100.23 56.102 101.63 56.205 103.07 56.273 104.59 56.342 106.16 56.395 107.79 56.445 109.46 56.48 111.18 56.498 112.92 56.515 114.71 56.515 116.5 56.515 118.33 56.498 120.17 56.463 122.01 56.429 123.86 56.377 125.68 56.325 127.52 56.256 129.33 56.188 131.12 56.102 132.88 55.998 134.6 55.912 136.29 55.791 137.94 55.672 139.52 55.551 141.07 55.413 142.54 55.275 143.95 55.121 145.27 54.965 146.53 54.811 147.7 54.639"/>
   </g>
  </g>
  <g stroke="#4d4d4d">
   <path d="m110.53 54.451c-11.943 1.6827-18.543 13.297-20.318 24.308 15.767 1.3634 31.972 1.0632 47.635-1.28-3.0625-13.673-13.778-22.128-27.317-23.028" stroke-width=".26835"/>
   <path d="m79.69 83.412c17.049 4.3397 40.726 4.2381 58.256 0.32748" stroke-width=".5367"/>
   <path d="m109.79 54.513c-22.134 3.9832-29.667 50.442-6.1004 56.392" stroke-width=".5367"/>
  </g>
 </g>
 <g fill-rule="evenodd" stroke="#4d4d4d">
  <g stroke-miterlimit="10">
   <path d="m100.6 56.2c2.9064-1.3226 6.0215-0.92436 8.7964 0.59962l-0.45719-30.06-8.3392 29.461" fill="#34679b" stroke-width=".26835"/>
   <g stroke-width=".29582">
    <polygon transform="matrix(.90713 0 0 .90713 3.1025 25.963)" points="113.04 93.793 113.56 93.896 114.06 93.965 114.08 97.441 97.651 100.49 97.84 94.086 97.84 94.086 110.39 92.141 110.55 92.365 110.72 92.588 110.91 92.777 111.12 92.95 111.32 93.105 111.54 93.242 111.79 93.363 112.03 93.483 112.27 93.57 112.53 93.656 112.78 93.725" fill="#b51621"/>
    <polygon transform="matrix(.90713 0 0 .90713 3.1025 25.963)" points="105.81 90.816 106.09 90.953 106.38 91.092 106.67 91.212 106.98 91.314 107.29 91.418 107.62 91.521 108.29 91.693 108.96 91.832 109.65 91.951 110.34 92.055 97.703 94.104 97.685 91.711 97.685 91.711 105.3 90.488 105.55 90.661" fill="#802625"/>
    <polygon transform="matrix(.90713 0 0 .90713 3.1025 25.963)" points="99.183 87.494 99.183 87.494 99.424 106.06 59.842 99.061" fill="#e2001a"/>
    <polygon transform="matrix(.90713 0 0 .90713 3.1025 25.963)" points="84.704 86.307 84.704 86.307 99.08 87.322 60.255 99.008" fill="#802625"/>
    <polygon transform="matrix(.90713 0 0 .90713 3.1025 25.963)" points="59.791 98.888 59.791 98.888 99.51 106.08 83.671 104.91" fill="#b51621"/>
   </g>
  </g>
  <g stroke-width=".29582">
   <polygon transform="matrix(.90713 0 0 .90713 3.1025 25.963)" points="121.15 93.793 120.64 93.896 120.14 93.965 120.12 97.441 136.54 100.49 136.36 94.086 136.36 94.086 123.8 92.141 123.65 92.365 123.48 92.588 123.29 92.777 123.08 92.95 122.88 93.105 122.65 93.242 122.41 93.363 122.17 93.483 121.93 93.57 121.67 93.656 121.41 93.725" fill="#7ab51d"/>
   <polygon transform="matrix(.90713 0 0 .90713 3.1025 25.963)" points="128.38 90.816 128.11 90.953 127.82 91.092 127.52 91.212 127.21 91.314 126.9 91.418 126.58 91.521 125.9 91.693 125.23 91.832 124.54 91.951 123.86 92.055 136.49 94.104 136.51 91.711 136.51 91.711 128.9 90.488 128.64 90.661" fill="#52801a"/>
   <polygon transform="matrix(.90713 0 0 .90713 3.1025 25.963)" points="134.74 86.875 134.74 86.875 134.5 105.43 174.1 98.424" fill="#7ab51d"/>
   <polygon transform="matrix(.90713 0 0 .90713 3.1025 25.963)" points="149.22 85.688 149.22 85.688 134.84 86.703 173.66 98.371" fill="#52801a"/>
  </g>
 </g>
 <polygon transform="matrix(.90713 0 0 .90713 3.1025 25.963)" points="174.13 98.251 174.13 98.251 134.41 105.44 150.26 104.29" fill="#087323" stroke="#4d4d4d" stroke-linecap="square" stroke-miterlimit="10" stroke-width=".29582"/>
 <path d="m117.3 55.2-8.293-28.329 0.36557 29.954c2.3567-1.4968 5.1806-2.1463 7.9274-1.6256" fill="#13385e" fill-rule="evenodd" stroke="#4d4d4d" stroke-miterlimit="10" stroke-width=".26835"/>
 <path d="m157.84 69.563-24.464 0.0381" color="#000000" fill="#1f638a" fill-rule="evenodd" stroke="#1f638a" stroke-linecap="round" stroke-linejoin="round" stroke-width="1.7716"/>
 <text x="160.95201" y="76.792534" fill="#000000" font-size="12.8px" letter-spacing="0px" word-spacing="0px" style="line-height:0%" xml:space="preserve"><tspan x="160.95201" y="76.792534" fill="#ffffff" font-family="'Arial Nova', 'Arial Unicode MS', 'Yu Gothic UI', sans-serif" font-size="20px" stroke="#ffffff" stroke-width="1.0667" style="line-height:1.25">1</tspan></text>
 <g transform="translate(214.49 167.53)">
  <ellipse cx="-44.92" cy="-98.798" rx="13.199" ry="13.469" fill="#1f638a" stroke-linecap="round" stroke-linejoin="round" stroke-width="1.0658"/>
  <text x="-51.39423" y="-91.055557" fill="#000000" font-family="'Arial Nova', 'Arial Unicode MS', 'Yu Gothic UI', sans-serif" font-size="12.8px" letter-spacing="0px" stroke-width="1.0667" word-spacing="0px" style="line-height:0%" xml:space="preserve"><tspan x="-51.39423" y="-91.055557" fill="#ffffff" font-family="'Arial Nova', 'Arial Unicode MS', 'Yu Gothic UI', sans-serif" font-size="21.333px" stroke="#ffffff" stroke-width="1.0667" style="line-height:1.25">1</tspan></text>
 </g>
</svg>
