<?xml version="1.0" encoding="UTF-8"?>
<svg xmlns="http://www.w3.org/2000/svg" xmlns:xlink="http://www.w3.org/1999/xlink" version="1.1" viewBox="0 0 637.8 230.31">
 <title>Abbildung für OPEN MIND Softwaredokumentation</title>
 <g transform="translate(0 -822.05)">
  <path d="m78.912 882.68c-28.34 5.801-49.661 30.877-49.661 60.933 0 32.003 24.168 58.361 55.249 61.814l-5.5877-122.75z" fill="#cccccc" stroke="#4d4d4d" stroke-width=".94355"/>
  <path d="m396.71 1002c-45.256-4.329-77.983-30.167-77.983-61.438 0-29.537 31.033-54.262 72.618-60.557l5.365 122z" fill="#cccccc" stroke="#4d4d4d" stroke-linecap="square" stroke-miterlimit="10" stroke-width=".94355"/>
  <g fill="none">
   <g stroke="#4d4d4d" stroke-dasharray="5.6613015" stroke-linecap="square" stroke-miterlimit="10" stroke-width=".47178">
    <path d="m78.98 881.38c4.3139-0.91147 8.8052-2.4778 13.391-2.4778 35.527 0 64.326 28.801 64.326 64.326 0 35.528-28.799 64.327-64.326 64.327-2.6193 0-5.2027-0.1547-7.7409-0.4586"/>
    <path d="m112 872.34 7.4836 136.64"/>
    <path d="m83.127 882.5 6.5907 123.81"/>
    <line x1="54.246" x2="60.122" y1="894" y2="996.92"/>
    <path d="m139.57 864.2 7.6207 147.01"/>
    <path d="m166.85 857.68 8.4126 158.04"/>
    <path d="m194.4 852.91 9.2173 166"/>
    <path d="m430.76 870.65 5.8783 134.12"/>
    <line x1="402.84" x2="408.72" y1="876.62" y2="1002.9"/>
    <line x1="371.77" x2="377.08" y1="884.62" y2="998.99"/>
    <line x1="341.86" x2="345.72" y1="900.06" y2="984.99"/>
    <path d="m461.05 865.8 6.176 142.35"/>
    <path d="m489.76 861.22 7.0652 148.63"/>
    <path d="m518.23 858.8 7.6123 153.17"/>
    <path d="m547.67 856.87 7.8796 156.81"/>
    <path d="m395.2 1001.3c4.3403 0.6039 8.8052 0.9171 13.361 0.9171 42.579 0 77.09-27.425 77.09-61.263 0-33.836-34.511-61.265-77.09-61.265-5.8859 0-11.617 0.52462-17.127 1.5191"/>
   </g>
   <path d="m84.489 1006c65.386 5.6085 130.79 14.066 196.03 21.396" stroke="#7d7d7d" stroke-linecap="round" stroke-linejoin="round" stroke-width="2.8346"/>
   <path d="m78.963 882.3c-0.35289 0.117-0.70389 0.23211-1.0568 0.34911-27.148 8.9656-48.655 31.337-48.655 61.142 0 31.769 23.615 58.021 54.248 62.159 0.32836 0.028 0.6586 0.055 0.98695 0.083" stroke="#ff991f" stroke-width="2.8307"/>
   <g stroke-linecap="round" stroke-linejoin="round">
    <path d="m228.77 848.81c-49.265 4.9253-100.28 17.19-149.81 33.485" stroke="#7d7d7d" stroke-width="2.8346"/>
    <g stroke-miterlimit="10">
     <line x1="398.49" x2="612.63" y1="1002" y2="1018.5" stroke="#7d7d7d" stroke-width="2.8346"/>
     <path d="m391.59 879.06c-41.178 6.4916-72.857 32.179-72.857 61.527 0 31.207 34.636 57.038 79.762 61.444" stroke="#ff991f" stroke-width="2.8311"/>
     <path d="m568.35 856.01c-59.831 0.83976-118.82 8.1145-176.76 23.057" stroke="#7d7d7d" stroke-width="2.8346"/>
    </g>
   </g>
   <g stroke="#000000" stroke-width=".63425">
    <g>
     <line x1="77.472" x2="86.287" y1="843.69" y2="1050.5"/>
     <line x1="389.87" x2="398.69" y1="843.69" y2="1050.5"/>
     <line x1="11.722" x2="226.97" y1="945.8" y2="938.82" stroke-linecap="round" stroke-linejoin="round"/>
    </g>
    <path d="m308 946.16 258.56-7.5213"/>
   </g>
  </g>
  <rect x="82.245" y="901.64" width="14.436" height="16.795" fill="#ffffff"/>
  <rect x="401.05" y="902.24" width="7.956" height="13.257" fill="#ffffff"/>
  <g fill="#000000" stroke="#000000" stroke-linecap="round" stroke-linejoin="round" stroke-width=".99921">
   <path d="m84.628 1003.7 3.0213-12.05-8.1905 0.62445z"/>
   <path d="m78.889 883.99-3.0213 12.05 8.1905-0.62445z"/>
   <path d="m31.112 945.19 11.942 3.4251-0.34849-8.2069z"/>
   <path d="m81.465 943.47-11.942-3.4251 0.34849 8.2069z"/>
   <path d="m396.89 1000.4 3.0213-12.05-8.1905 0.62445z"/>
   <path d="m391.15 880.72-3.0213 12.05 8.1905-0.62445z"/>
   <path d="m319.85 945.98 11.942 3.4251-0.34849-8.2069z"/>
   <path d="m393.44 943.76-11.942-3.4251 0.34849 8.2069z"/>
  </g>
  <g fill="#1f638a" fill-rule="evenodd" stroke="#1f638a" stroke-linecap="round" stroke-linejoin="round" stroke-width="1.7717">
   <path d="m41.653 879.79 12.374 12.378" color="#000000"/>
   <path d="m92.027 856.89-12.983 9.8778" color="#000000"/>
   <path d="m206.31 940.46 12.374 12.378" color="#000000"/>
   <path d="m333.99 880.59 12.374 12.378" color="#000000"/>
   <path d="m503.1 941.53 12.374 12.378" color="#000000"/>
   <path d="m405.24 851.53-12.983 9.8778" color="#000000"/>
  </g>
  <g transform="translate(77.976 968.82)">
   <ellipse cx="-44.92" cy="-98.798" rx="13.199" ry="13.469" fill="#1f638a" stroke-linecap="round" stroke-linejoin="round" stroke-width="1.0658"/>
   <text x="-51.39423" y="-91.055557" fill="#000000" font-family="'Arial Nova', 'Arial Unicode MS', 'Yu Gothic UI', sans-serif" font-size="12.8px" letter-spacing="0px" stroke-width="1.0667" word-spacing="0px" style="line-height:0%" xml:space="preserve"><tspan x="-51.39423" y="-91.055557" fill="#ffffff" font-family="'Arial Nova', 'Arial Unicode MS', 'Yu Gothic UI', sans-serif" font-size="21.333px" stroke="#ffffff" stroke-width="1.0667" style="line-height:1.25">1</tspan></text>
  </g>
  <g transform="translate(242.5 1058.7)">
   <ellipse cx="-13.718" cy="-98.798" rx="13.199" ry="13.469" fill="#1f638a" stroke-linecap="round" stroke-linejoin="round" stroke-width="1.0658"/>
   <text x="-19.559933" y="-91.125885" fill="#000000" font-family="'Arial Nova', 'Arial Unicode MS', 'Yu Gothic UI', sans-serif" font-size="12.8px" letter-spacing="0px" stroke-width="1.0667" word-spacing="0px" style="line-height:0%" xml:space="preserve"><tspan x="-19.559933" y="-91.125885" fill="#ffffff" font-family="'Arial Nova', 'Arial Unicode MS', 'Yu Gothic UI', sans-serif" font-size="21.333px" stroke="#ffffff" stroke-width="1.0667" style="line-height:1.25">2</tspan></text>
  </g>
  <g transform="translate(538.35 1060)">
   <ellipse cx="-13.718" cy="-98.798" rx="13.199" ry="13.469" fill="#1f638a" stroke-linecap="round" stroke-linejoin="round" stroke-width="1.0658"/>
   <text x="-19.559933" y="-91.125885" fill="#000000" font-family="'Arial Nova', 'Arial Unicode MS', 'Yu Gothic UI', sans-serif" font-size="12.8px" letter-spacing="0px" stroke-width="1.0667" word-spacing="0px" style="line-height:0%" xml:space="preserve"><tspan x="-19.559933" y="-91.125885" fill="#ffffff" font-family="'Arial Nova', 'Arial Unicode MS', 'Yu Gothic UI', sans-serif" font-size="21.333px" stroke="#ffffff" stroke-width="1.0667" style="line-height:1.25">2</tspan></text>
  </g>
  <g transform="translate(84.759 946.36)">
   <ellipse cx="17.483" cy="-98.798" rx="13.199" ry="13.469" fill="#1f638a" stroke-linecap="round" stroke-linejoin="round" stroke-width="1.0658"/>
   <text x="11.641406" y="-91.256096" fill="#000000" font-family="'Arial Nova', 'Arial Unicode MS', 'Yu Gothic UI', sans-serif" font-size="12.8px" letter-spacing="0px" stroke-width="1.0667" word-spacing="0px" style="line-height:0%" xml:space="preserve"><tspan x="11.641406" y="-91.256096" fill="#ffffff" font-family="'Arial Nova', 'Arial Unicode MS', 'Yu Gothic UI', sans-serif" font-size="21.333px" stroke="#ffffff" stroke-width="1.0667" style="line-height:1.25">3</tspan></text>
  </g>
  <g transform="translate(370.98 968.2)">
   <ellipse cx="-44.92" cy="-98.798" rx="13.199" ry="13.469" fill="#1f638a" stroke-linecap="round" stroke-linejoin="round" stroke-width="1.0658"/>
   <text x="-51.39423" y="-91.055557" fill="#000000" font-family="'Arial Nova', 'Arial Unicode MS', 'Yu Gothic UI', sans-serif" font-size="12.8px" letter-spacing="0px" stroke-width="1.0667" word-spacing="0px" style="line-height:0%" xml:space="preserve"><tspan x="-51.39423" y="-91.055557" fill="#ffffff" font-family="'Arial Nova', 'Arial Unicode MS', 'Yu Gothic UI', sans-serif" font-size="21.333px" stroke="#ffffff" stroke-width="1.0667" style="line-height:1.25">1</tspan></text>
  </g>
  <g transform="translate(400.62 942.89)">
   <ellipse cx="17.483" cy="-98.798" rx="13.199" ry="13.469" fill="#1f638a" stroke-linecap="round" stroke-linejoin="round" stroke-width="1.0658"/>
   <text x="11.641406" y="-91.256096" fill="#000000" font-family="'Arial Nova', 'Arial Unicode MS', 'Yu Gothic UI', sans-serif" font-size="12.8px" letter-spacing="0px" stroke-width="1.0667" word-spacing="0px" style="line-height:0%" xml:space="preserve"><tspan x="11.641406" y="-91.256096" fill="#ffffff" font-family="'Arial Nova', 'Arial Unicode MS', 'Yu Gothic UI', sans-serif" font-size="21.333px" stroke="#ffffff" stroke-width="1.0667" style="line-height:1.25">3</tspan></text>
  </g>
  <g transform="translate(100.22 1021.1)">
   <ellipse cx="-44.92" cy="-98.798" rx="13.199" ry="13.469" fill="#1f638a" stroke-linecap="round" stroke-linejoin="round" stroke-width="1.0658"/>
   <text x="-50.564796" y="-93.478348" fill="#000000" font-family="'Arial Nova', 'Arial Unicode MS', 'Yu Gothic UI', sans-serif" font-size="12.8px" letter-spacing="0px" stroke-width="1.0667" word-spacing="0px" style="line-height:0%" xml:space="preserve"><tspan x="-50.564796" y="-93.478348" fill="#ffffff" font-family="'Arial Nova', 'Arial Unicode MS', 'Yu Gothic UI', sans-serif" font-size="21.333px" stroke="#ffffff" stroke-width="1.0667" style="line-height:1.25">a</tspan></text>
  </g>
  <g transform="translate(139.48 1011.6)">
   <ellipse cx="-44.92" cy="-98.798" rx="13.199" ry="13.469" fill="#1f638a" stroke-linecap="round" stroke-linejoin="round" stroke-width="1.0658"/>
   <text x="-51.566948" y="-91.358932" fill="#000000" font-family="'Arial Nova', 'Arial Unicode MS', 'Yu Gothic UI', sans-serif" font-size="12.8px" letter-spacing="0px" stroke-width="1.0667" word-spacing="0px" style="line-height:0%" xml:space="preserve"><tspan x="-51.566948" y="-91.358932" fill="#ffffff" font-family="'Arial Nova', 'Arial Unicode MS', 'Yu Gothic UI', sans-serif" font-size="21.333px" stroke="#ffffff" stroke-width="1.0667" style="line-height:1.25">b</tspan></text>
  </g>
  <g transform="translate(403.83 1027.8)">
   <ellipse cx="-44.92" cy="-98.798" rx="13.199" ry="13.469" fill="#1f638a" stroke-linecap="round" stroke-linejoin="round" stroke-width="1.0658"/>
   <text x="-50.564796" y="-93.478348" fill="#000000" font-family="'Arial Nova', 'Arial Unicode MS', 'Yu Gothic UI', sans-serif" font-size="12.8px" letter-spacing="0px" stroke-width="1.0667" word-spacing="0px" style="line-height:0%" xml:space="preserve"><tspan x="-50.564796" y="-93.478348" fill="#ffffff" font-family="'Arial Nova', 'Arial Unicode MS', 'Yu Gothic UI', sans-serif" font-size="21.333px" stroke="#ffffff" stroke-width="1.0667" style="line-height:1.25">a</tspan></text>
  </g>
  <g transform="translate(454.52 1012.6)">
   <ellipse cx="-44.92" cy="-98.798" rx="13.199" ry="13.469" fill="#1f638a" stroke-linecap="round" stroke-linejoin="round" stroke-width="1.0658"/>
   <text x="-51.566948" y="-91.358932" fill="#000000" font-family="'Arial Nova', 'Arial Unicode MS', 'Yu Gothic UI', sans-serif" font-size="12.8px" letter-spacing="0px" stroke-width="1.0667" word-spacing="0px" style="line-height:0%" xml:space="preserve"><tspan x="-51.566948" y="-91.358932" fill="#ffffff" font-family="'Arial Nova', 'Arial Unicode MS', 'Yu Gothic UI', sans-serif" font-size="21.333px" stroke="#ffffff" stroke-width="1.0667" style="line-height:1.25">b</tspan></text>
  </g>
 </g>
</svg>
