<?xml version="1.0" encoding="UTF-8"?>
<svg width="48" height="48" version="1.1" viewBox="0 0 12.7 12.7" xml:space="preserve" xmlns="http://www.w3.org/2000/svg"><g transform="translate(103.85 48.756)"><g transform="matrix(.33321 0 0 .33321 -101.09 -46.599)" display="none"><path d="m2.0169 5.7965 30.788-0.05289-0.0034 7.4058 20.137 0.87018 0.16238 39.678h-51.084z" fill="#e1e1e1" fill-rule="evenodd"/><path d="m53.325 14.598v38.833h-50.997" fill="none" stroke="#000000" stroke-width="3.175"/><path d="m2.1573 55.026v-49.588h30.56v10.509" fill="none" stroke="#7d7d7d" stroke-width="3.175"/><rect x="6.3885" y="19.563" width="15.522" height="12.061" fill="#808080" fill-rule="evenodd"/><path d="m29.933 22.803h17.907" fill="none" stroke="#0000fb" stroke-width="3.175"/><path d="m25.206 21.2h4.807v3.1735h-4.807z" fill="#ffffff"/><path d="m29.935 29.933h17.907" fill="none" stroke="#0000fb" stroke-width="3.175"/><path d="m25.208 28.354h4.807v3.1969h-4.807z" fill="#ffffff"/><path d="m35.21 46.28h12.615" fill="none" stroke="#0000fb" stroke-width="3.175"/><path d="m30.388 40.042h4.8071v7.8336h-4.8071z" fill="#ffffff"/><path d="m11.746 46.265h12.615" fill="none" stroke="#0000fb" stroke-width="3.175"/><path d="m6.9234 40.036h4.8071v7.8144h-4.8071z" fill="#ffffff"/><path d="m55.029 14.646-40.923-0.0085v-9.003" fill="none" stroke="#7d7d7d" stroke-width="3.175"/><path d="m23.152 5.438v9.1623" fill="#7d7d7d" stroke="#7d7d7d" stroke-width="3.175"/></g></g><g transform="matrix(.75291 0 0 .75291 76.149 33.568)"><g transform="matrix(.93931 0 0 .93931 -36.602 53.846)"><g transform="matrix(1.1634 0 0 1.1634 -631.58 -1451.2)" stroke-width="1.005"><path d="m485.48 1156.3-0.0183 16.005" opacity="0"/><path d="m501.03 1171.8-16.005-0.018" opacity="0"/></g><g stroke="#000000"><path d="m-65.548-103.21 0.06519 13.615" fill="none" stroke-width=".62703px"/><path d="m-52.825-89.713-13-0.013752" fill="none" stroke-width=".62703px"/><path d="m-63.243-100.79-2.2416-2.4121-2.3969 2.4121m0 0h4.6385" fill="#000000" fill-rule="evenodd" stroke-dashoffset="22.677" stroke-linecap="round" stroke-linejoin="round" stroke-width=".50605" style="paint-order:markers fill stroke"/></g><g fill="none" stroke-dashoffset="22.677" stroke-linecap="round" stroke-linejoin="round" stroke-width="1.0113"><path d="m-53.074-101.9v7.779l-3.7626 3.5933v-7.8244z" stroke="#878787" style="paint-order:markers fill stroke"/><path d="m-60.796-101.91h7.7229l-3.7835 3.5738h-7.8338z" stroke="#0302fd" style="paint-order:markers fill stroke"/><path d="m-64.684-98.313h7.8244v7.8362h-7.8244z" stroke="#ff0000" style="paint-order:markers fill stroke"/></g><path d="m-53.977-87.423 2.4121-2.2416-2.4121-2.3969m0 0v4.6385" fill="#000000" fill-rule="evenodd" stroke="#000000" stroke-dashoffset="22.677" stroke-linecap="round" stroke-linejoin="round" stroke-width=".50605" style="paint-order:markers fill stroke"/></g></g></svg>
