<svg version="1.1" viewBox="0 0 460.63 248.03" xmlns="http://www.w3.org/2000/svg" xmlns:xlink="http://www.w3.org/1999/xlink">
 <title>Abbildung für OPEN MIND Softwaredokumentation</title>
 <defs>
  <linearGradient id="linearGradient38245" x1="260.26" x2="272.44" y1="835.21" y2="835.21" gradientTransform="matrix(3.1357 0 0 3.1357 -636.05 -1662.1)" gradientUnits="userSpaceOnUse">
   <stop stop-color="#FFFFFF" offset="0"/>
   <stop stop-color="#FCFCFC" offset=".2264"/>
   <stop stop-color="#F4F4F4" offset=".3626"/>
   <stop stop-color="#E6E6E6" offset=".475"/>
   <stop stop-color="#D1D1D1" offset=".5744"/>
   <stop stop-color="#B7B7B7" offset=".6652"/>
   <stop stop-color="#979797" offset=".7498"/>
   <stop stop-color="#707070" offset=".8297"/>
   <stop stop-color="#444444" offset=".9057"/>
   <stop stop-color="#121212" offset=".9761"/>
   <stop stop-color="#000000" offset="1"/>
  </linearGradient>
  <linearGradient id="linearGradient38250" x1="-92.535" x2="982.53" y1="857.28" y2="1284.8" gradientTransform="matrix(.71057 0 0 .71057 -62.496 298.33)" gradientUnits="userSpaceOnUse">
   <stop stop-color="#ffffff" offset="0"/>
   <stop stop-color="#00385e" offset="1"/>
  </linearGradient>
 </defs>
 <g transform="translate(0 -804.33)">
  <g transform="translate(-20)">
   <path d="m169.83 962.22c-17.847-3.2453-35.462-15.509-38.837-37.12l-0.82041-3.9797-2.3437 0.90161-2.1631 7.2104-1.0822 17.485 7.9314 20.01 21.091 4.6862 13.519-6.8493 1.4409-1.2615 1.2639-1.0834z" clip-rule="evenodd" fill="#274376" fill-rule="evenodd" stroke="#4d4d4d" stroke-miterlimit="10" stroke-width=".17764"/>
   <path d="m297.94 1034.5-0.16718-23.257-112.78-47.857c-51.542-2.437-56.735-1.8117-56.617-56.145v-30.433l-21.006-32.146-79.169 1.0102-0.03771 188.81z" clip-rule="evenodd" fill="url(#linearGradient38250)" fill-rule="evenodd" stroke="#4d4d4d" stroke-linecap="round" stroke-linejoin="round" stroke-miterlimit="10" stroke-width=".63425"/>
   <g transform="translate(-67.175 -.50508)">
    <path d="m284.67 863.36c0 24.474-11.357 38.645-35.831 38.645-24.474 0-52.186-14.297-52.186-38.772v-43.637c6.3926 4.5492 17.444 17.413 44.317 0 20.434-13.24 32.407-3.684 43.889 0.63135z" color="#000000" fill="none" stroke="#000000" stroke-linecap="round" stroke-linejoin="round" stroke-width=".63425"/>
   </g>
   <path d="m128.76 918.57c0 24.475 19.844 44.315 44.318 44.315 24.475 0 44.267-19.84 44.267-44.315l0.3962-98.499c-6.3926 4.5489-17.444 17.413-44.317 0-20.434-13.24-32.518-5.2975-44-0.98214z" color="#000000" fill="url(#linearGradient38245)" stroke="#333333" stroke-linecap="round" stroke-linejoin="round" stroke-width=".63425"/>
   <g transform="translate(-67.175 -.50508)" fill="#000000" stroke="#000000" stroke-linecap="round" stroke-linejoin="round">
    <line x1="230.24" x2="210.16" y1="931.02" y2="947.25" stroke-miterlimit="10" stroke-width=".63425"/>
    <path d="m209.18 947.76 11.515-4.6629-5.3326-6.2481z" stroke-width=".99921"/>
   </g>
   <g fill="#000000">
    <line x1="115.33" x2="135.7" y1="970.55" y2="954.69" stroke="#000000" stroke-linecap="round" stroke-linejoin="round" stroke-miterlimit="10" stroke-width=".63425"/>
    <path d="m135.51 954.6-11.709 4.1504 5.0518 6.4772z" stroke="#000000" stroke-linecap="round" stroke-linejoin="round" stroke-width=".99921"/>
    <circle transform="matrix(.7208 0 0 .7208 25.766 871.01)" cx="143.04" cy="72.825" r="3.273" d="m 146.31299,72.824997 c 0,1.807628 -1.46537,3.273 -3.273,3.273 -1.80762,0 -3.273,-1.465372 -3.273,-3.273 0,-1.807628 1.46538,-3.273 3.273,-3.273 1.80763,0 3.273,1.465372 3.273,3.273 z" clip-rule="evenodd" fill-rule="evenodd"/>
    <circle transform="matrix(.7208 0 0 .7208 68.472 909.9)" cx="143.04" cy="72.825" r="3.273" d="m 146.31299,72.824997 c 0,1.807628 -1.46537,3.273 -3.273,3.273 -1.80762,0 -3.273,-1.465372 -3.273,-3.273 0,-1.807628 1.46538,-3.273 3.273,-3.273 1.80763,0 3.273,1.465372 3.273,3.273 z" clip-rule="evenodd" fill-rule="evenodd"/>
   </g>
   <g transform="translate(147.42 1040.3)">
    <ellipse cx="-44.92" cy="-98.798" rx="13.199" ry="13.469" fill="#1f638a" stroke-linecap="round" stroke-linejoin="round" stroke-width="1.0658"/>
    <text x="-51.39423" y="-91.055557" fill="#000000" font-family="'Arial Nova', 'Arial Unicode MS', 'Yu Gothic UI', sans-serif" font-size="12.8px" letter-spacing="0px" stroke-width="1.0667" word-spacing="0px" style="line-height:0%" xml:space="preserve"><tspan x="-51.39423" y="-91.055557" fill="#ffffff" font-family="'Arial Nova', 'Arial Unicode MS', 'Yu Gothic UI', sans-serif" font-size="21.333px" stroke="#ffffff" stroke-width="1.0667" style="line-height:1.25">1</tspan></text>
   </g>
  </g>
 </g>
</svg>
