<?xml version="1.0" encoding="UTF-8"?>
<svg width="48" height="48" version="1.1" viewBox="0 0 12.7 12.7" xml:space="preserve" xmlns="http://www.w3.org/2000/svg" xmlns:xlink="http://www.w3.org/1999/xlink"><g stroke="#000000"><g transform="matrix(1.604 0 0 1.604 -66.148 97.745)"><path d="m44.508-59.353h3.0547l-1.5875 1.7178h-3.0547z" fill="#c0c0c0" fill-rule="evenodd" stroke-linecap="round" stroke-linejoin="round" stroke-width=".2"/><path d="m46.839-58.499 0.73942-0.83685v2.4922l-1.5285 1.7239-0.09508-1.2974" fill="#808080" fill-rule="evenodd" stroke-linecap="round" stroke-linejoin="round" stroke-width=".2"/><g transform="matrix(.49998 0 0 .49998 54.399 -62.188)" fill-rule="evenodd" stroke-linecap="round" stroke-linejoin="round"><path d="m-16.6 11.607h-3.1134v-2.5337" fill="#808080" stroke-width=".2"/><path d="m-19.714 9.0414 1.5913-1.6988h2.9621l0.04845 2.5051-1.6868 1.8522-2.894-0.06615z" fill="#ffff00" stroke-width=".32001"/><path d="m-15.149 7.8246v2.0291l-1.4524 1.7517 1.4325-1.717" fill="#808080" stroke-width=".2"/></g><path d="m44.574-57.634h-1.6469v2.5337h3.1134v-1.2789l-1.4707 4e-3z" fill="#ffffff" fill-rule="evenodd" stroke-linecap="round" stroke-linejoin="round" stroke-width=".2"/><path d="m44.627-56.407 0.81284-0.88625 1.327-8e-3" fill="none" stroke-width=".165"/></g><rect x=".58861" y=".64839" width="11.554" height="11.421" fill="none" stroke-linecap="square" stroke-width=".001"/></g></svg>
