<svg width="180mm" height="107mm" version="1.1" viewBox="0 0 180 107" xmlns="http://www.w3.org/2000/svg" xmlns:xlink="http://www.w3.org/1999/xlink">
 <defs>
  <linearGradient id="linearGradient10551">
   <stop stop-color="#043b61" offset="0"/>
   <stop stop-color="#9fbdd5" offset=".5"/>
   <stop stop-color="#00385e" offset="1"/>
  </linearGradient>
  <linearGradient id="linearGradient1703">
   <stop stop-color="#35617f" offset="0"/>
   <stop stop-color="#5b7f97" offset=".53304"/>
   <stop stop-color="#3c6684" offset="1"/>
  </linearGradient>
  <linearGradient id="linearGradient1666">
   <stop stop-color="#2c5a79" stop-opacity=".98824" offset="0"/>
   <stop stop-color="#416b87" offset=".2168"/>
   <stop stop-color="#809caf" offset=".53304"/>
   <stop stop-color="#476f8b" offset=".80516"/>
   <stop stop-color="#2c5a79" stop-opacity=".98824" offset="1"/>
  </linearGradient>
  <linearGradient id="linearGradient31635" x1="606.37" x2="-164.71" y1="413.07" y2="2.6216" gradientTransform="matrix(.2141 0 0 .2141 -3.6971 42.214)" gradientUnits="userSpaceOnUse" xlink:href="#linearGradient17780-7"/>
  <linearGradient id="linearGradient17780-7">
   <stop stop-color="#fff" offset="0"/>
   <stop stop-color="#00385e" offset="1"/>
  </linearGradient>
  <linearGradient id="linearGradient31635-1" x1="-265.01" x2="421.29" y1="-28.784" y2="308.7" gradientTransform="matrix(.2141 0 0 -.2141 40.054 115.79)" gradientUnits="userSpaceOnUse" xlink:href="#linearGradient17780-7"/>
  <linearGradient id="linearGradient1444" x1="267.12" x2="315.65" y1="-15.53" y2="-15.53" gradientTransform="matrix(.43061 0 0 .43061 -77.36 50.904)" gradientUnits="userSpaceOnUse" xlink:href="#linearGradient1703"/>
  <linearGradient id="linearGradient1458" x1="274.14" x2="290.25" y1="-29.194" y2="-29.194" gradientTransform="matrix(.43061 0 0 .43061 -77.401 51.149)" gradientUnits="userSpaceOnUse" xlink:href="#linearGradient1666"/>
  <linearGradient id="linearGradient1466" x1="261.73" x2="320.98" y1="-30.229" y2="-30.229" gradientTransform="matrix(.43061 0 0 .43061 -77.401 51.149)" gradientUnits="userSpaceOnUse" xlink:href="#linearGradient1703"/>
  <linearGradient id="linearGradient1474" x1="215.16" x2="274" y1="-4.0716" y2="-4.0716" gradientTransform="matrix(.43061 0 0 .43061 -77.411 51.149)" gradientUnits="userSpaceOnUse" xlink:href="#linearGradient1703"/>
  <linearGradient id="linearGradient1458-0" x1="274.14" x2="290.25" y1="-29.194" y2="-29.194" gradientTransform="matrix(.52151 0 0 .52336 -78.762 67.525)" gradientUnits="userSpaceOnUse" xlink:href="#linearGradient1666"/>
  <linearGradient id="linearGradient1466-9" x1="261.73" x2="320.98" y1="-30.229" y2="-30.229" gradientTransform="matrix(.43061 0 0 .43061 -56.954 62.663)" gradientUnits="userSpaceOnUse" xlink:href="#linearGradient1703"/>
  <linearGradient id="linearGradient1444-1" x1="267.12" x2="315.65" y1="-15.53" y2="-15.53" gradientTransform="matrix(.43061 0 0 .43061 -56.941 62.727)" gradientUnits="userSpaceOnUse" xlink:href="#linearGradient1703"/>
  <linearGradient id="linearGradient1466-9-4" x1="261.73" x2="320.98" y1="-30.229" y2="-30.229" gradientTransform="matrix(.43061 0 0 .43061 -76.956 74.625)" gradientUnits="userSpaceOnUse" xlink:href="#linearGradient1703"/>
  <linearGradient id="linearGradient1444-1-1" x1="267.12" x2="315.65" y1="-15.53" y2="-15.53" gradientTransform="matrix(.43061 0 0 .43061 -76.971 74.459)" gradientUnits="userSpaceOnUse" xlink:href="#linearGradient1703"/>
  <linearGradient id="linearGradient1719" x1="220.31" x2="268.77" y1="11.373" y2="11.373" gradientTransform="matrix(.43061 0 0 .43061 -77.401 51.149)" gradientUnits="userSpaceOnUse" xlink:href="#linearGradient1703"/>
  <linearGradient id="linearGradient1973" x1="222.56" x2="250.06" y1="4.5108" y2="4.3926" gradientTransform="matrix(.43061 0 0 .43061 -77.401 51.149)" gradientUnits="userSpaceOnUse" xlink:href="#linearGradient1666"/>
  <linearGradient id="linearGradient2024" x1="252.83" x2="250.17" y1="510.8" y2="-448.97" gradientTransform="matrix(.2141 0 0 .2141 -3.7259 42.386)" gradientUnits="userSpaceOnUse" xlink:href="#linearGradient17780-7"/>
  <linearGradient id="linearGradient10545" x1="88.421" x2="219.46" y1="-31.036" y2="-31.989" gradientTransform="matrix(.3762 0 0 .29761 78.829 89.043)" gradientUnits="userSpaceOnUse" xlink:href="#linearGradient10551"/>
  <linearGradient id="linearGradient11626" x1="218.52" x2="-203.15" y1="53.681" y2="52.313" gradientUnits="userSpaceOnUse" xlink:href="#linearGradient17780-7"/>
  <linearGradient id="linearGradient11792" x1="233.02" x2="-57.777" y1="40.263" y2="39.129" gradientUnits="userSpaceOnUse" xlink:href="#linearGradient17780-7"/>
  <linearGradient id="linearGradient11794" x1="199.54" x2="76.156" y1="39.696" y2="39.811" gradientUnits="userSpaceOnUse" xlink:href="#linearGradient17780-7"/>
  <linearGradient id="linearGradient10545-3" x1="73.235" x2="247.77" y1="-31.972" y2="-33.669" gradientTransform="matrix(.37609 0 0 .44523 82.946 40.532)" gradientUnits="userSpaceOnUse" xlink:href="#linearGradient10551"/>
  <linearGradient id="linearGradient11860" x1="269.95" x2="-87.708" y1="37.051" y2="38.895" gradientUnits="userSpaceOnUse" xlink:href="#linearGradient17780-7"/>
  <linearGradient id="linearGradient10545-3-6" x1="102.99" x2="209.41" y1="-31.671" y2="-31.671" gradientTransform="matrix(.10164 0 0 1.2147 121.54 78.553)" gradientUnits="userSpaceOnUse" xlink:href="#linearGradient10551"/>
 </defs>
 <g>
  <g transform="matrix(1.1297 0 0 .82505 -13.809 -3.2113)" fill="url(#linearGradient11794)">
   <rect x="96.808" y="33.938" width="74.123" height="37.647" fill="url(#linearGradient11792)" fill-rule="evenodd" style="paint-order:markers stroke fill"/>
  </g>
  <g fill-rule="evenodd" stroke="#4d4d4d" stroke-linecap="round" stroke-linejoin="round" stroke-miterlimit="4.6" stroke-width=".07708">
   <ellipse cx="68.601" cy="52.374" rx="12.609" ry="7.2577" fill="#95acbd" fill-opacity=".65098" opacity=".80545" style="paint-order:markers stroke fill"/>
   <path d="m61.196 64.007c0 4.0083-5.6864 7.6252-12.701 7.6252s-12.701-3.6169-12.701-7.6252c-1e-6 -4.0083 5.6864-7.2577 12.701-7.2577s12.701 3.2494 12.701 7.2577z" fill="#95acbd" fill-opacity=".65098" opacity=".80545" style="paint-order:markers stroke fill"/>
   <ellipse cx="48.013" cy="40.52" rx="12.609" ry="7.2577" fill="#95acbc" fill-opacity=".80784" opacity=".80545" style="paint-order:markers stroke fill"/>
  </g>
  <g fill-rule="evenodd">
   <ellipse cx="27.872" cy="52.223" rx="12.609" ry="7.2577" fill="#95acbc" opacity=".80545" stroke="#4d4d4d" stroke-linecap="round" stroke-linejoin="round" stroke-miterlimit="4.6" stroke-width=".07708" style="paint-order:markers stroke fill"/>
   <path d="m15.527 53.631c-0.8227-2.3301 0.20295-4.6132 3.3848-6.5915 8.2081-4.7442 23.498-1.1667 21.42 6.485-0.53398-1.1925-1.2994-2.3103-3.165-3.5408-3.5756-4.6946-13.78-4.9999-18.26-0.74562-1.0478 0.70262-2.9948 2.6799-3.3806 4.3929z" fill="url(#linearGradient1474)" opacity=".67121"/>
   <path d="m17.71 52.48-0.18425 2.8857c-3e-3 0.62747 0.06045 0.88374 0.46123 1.3158 5.1107 3.4545 13.825 4.0214 19.938-0.10739 0.52843-1.4959 0.03738-2.6794-0.12948-4.0569-1.6647 6.8007-18.141 7.1648-20.086-0.0372z" fill="url(#linearGradient1719)"/>
   <path d="m37.813 52.003a10.07 5.7399 0 0 1-10.07 5.7399 10.07 5.7399 0 0 1-10.07-5.7399 10.07 5.7399 0 0 1 10.07-5.7399 10.07 5.7399 0 0 1 10.07 5.7399z" fill="#849fb1" stroke="#4d4d4d" stroke-linecap="round" stroke-linejoin="round" stroke-miterlimit="4.6" stroke-width=".177" style="paint-order:markers stroke fill"/>
  </g>
  <path d="m48.13 105.6-43.751-25.287v-27.992l43.751 25.37" fill="url(#linearGradient31635)" stroke="#4d4d4d" stroke-linecap="round" stroke-linejoin="round" stroke-miterlimit="4.6" stroke-width=".07708"/>
  <g fill-rule="evenodd">
   <path d="m35.995 42.755c-1.4606-2.6178-0.32528-5.2343 2.8159-7.3194 7.7794-4.6733 25.04-1.9334 21.468 7.4345-0.39011-1.0486-0.98289-2.4236-2.3306-3.4815-2.7124-5.529-14.38-6.0736-18.572-1.6179-0.3791 0.25422-0.83924 0.89104-1.1506 1.5382-0.86929 0.71985-1.9847 2.3529-2.2309 3.4461z" fill="url(#linearGradient1466)" opacity=".6751"/>
   <path d="m38.06 40.397-0.33211 3.2558c-3e-3 0.62747 0.18062 0.8022 0.42562 1.3334 4.5496 3.2099 13.651 4.1104 20.038-0.17664 0.54281-1.5031 0.08298-2.7545-0.04069-4.0169-1.7128 6.8568-18.472 7.1298-20.09-0.39562z" fill="url(#linearGradient1444)" opacity=".99416"/>
   <path d="m56.442 54.27c-1.542-2.6178-0.16252-5.2343 2.9787-7.3194 7.7794-4.6733 24.999-1.201 21.305 7.4345-0.39011-1.0486-1.0032-2.3829-2.3509-3.4408-2.8563-5.1549-14.676-5.6971-18.494-1.6442-0.3791 0.25422-0.84622 0.98259-1.1575 1.6298-0.86929 0.71985-2.0353 2.247-2.2815 3.3402z" fill="url(#linearGradient1466-9)" opacity=".67121"/>
   <path d="m58.515 52.357-0.40034 2.9452c-3e-3 0.62747 0.20097 0.96497 0.44597 1.4962 5.1395 3.5176 14.276 4.2578 19.982 7e-3 0.60755-1.575 0.15244-2.8302 0.02876-4.0927-1.7128 6.8568-18.77 7.0835-20.057-0.35565z" fill="url(#linearGradient1444-1)" opacity=".99416"/>
   <path d="m36.44 66.232c-1.542-2.6178-0.30493-5.397 2.9787-7.3194 7.7794-4.6733 24.877-1.4858 21.305 7.4345-0.39011-1.0486-1.0948-2.4847-2.4425-3.5425-2.7124-5.529-14.268-6.0126-18.46-1.5569-0.3791 0.25422-0.8189 0.89104-1.1302 1.5382-0.86929 0.71985-2.0051 2.3529-2.2513 3.4461z" fill="url(#linearGradient1466-9-4)" opacity=".677"/>
   <path d="m38.427 64.189-0.3165 2.906c-3e-3 0.62747 0.17735 1.024 0.42234 1.5552 4.4045 3.654 14.438 4.8615 20.006-0.17415 0.55599-1.2099 0.09866-2.8448-0.01912-4.0778-1.6891 6.7859-18.475 7.3161-20.093-0.20932z" fill="url(#linearGradient1444-1-1)" opacity=".99416"/>
  </g>
  <path d="m48.09 27.052-43.71 25.27 43.751 25.37 43.751-25.287zm-0.15577 6.1194c0.02433-4.1e-5 0.04866-4.1e-5 0.07299 0 6.9737 5.2e-5 12.627 3.2574 12.627 7.2755-1.1e-5 4.0181-5.6533 7.2754-12.627 7.2755-6.9738 1.5e-5 -12.627-3.2573-12.627-7.2755-1.06e-4 -4.0017 5.6088-7.2523 12.554-7.2755zm-20.056 11.708c6.9738-1.7e-5 12.627 3.2573 12.627 7.2755 2.02e-4 4.0182-5.6533 7.2757-12.627 7.2757-6.9739 1.7e-5 -12.627-3.2575-12.627-7.2757 1.2e-5 -4.0181 5.6534-7.2755 12.627-7.2755zm40.64 0.20161c0.02433-4.1e-5 0.04866-4.1e-5 0.07299 0 6.9739-9e-5 12.627 3.2573 12.627 7.2755-1.2e-5 4.0181-5.6534 7.2755-12.627 7.2755-6.9738 1.7e-5 -12.627-3.2573-12.627-7.2755-1.06e-4 -4.0017 5.6088-7.2523 12.554-7.2755zm-20.136 11.65c0.02426-4e-5 0.04851-4e-5 0.07277 0 6.9738-1.7e-5 12.627 3.2573 12.627 7.2755-1.2e-5 4.0181-5.6534 7.6764-12.627 7.6764-6.9738 1.7e-5 -12.627-3.6582-12.627-7.6764-1.03e-4 -4.0018 5.6091-7.2524 12.554-7.2755z" clip-rule="evenodd" fill="url(#linearGradient2024)" fill-rule="evenodd" stroke="#4d4d4d" stroke-linecap="round" stroke-linejoin="round" stroke-miterlimit="4.6" stroke-width=".07708"/>
  <path d="m91.881 52.405-43.751 25.287v27.993l43.751-25.37" fill="url(#linearGradient31635-1)" stroke="#4d4d4d" stroke-linecap="round" stroke-linejoin="round" stroke-miterlimit="4.6" stroke-width=".07708"/>
  <path d="m20.519 52.18 1.2948-0.71931c0.79328-0.37532 1.7506-0.20393 2.1579 0.05754l1.2084 0.74808c1.584-0.98684 3.7814 0.29365 2.532 1.3811l1.2948 0.86317c0.36238 0.23901 0.53515 0.64433-0.01438 0.96388l-1.453 0.9351c-0.3627 0.25161-1.1046 0.23476-1.6113-0.02877l-5.2941-3.0211c-0.47124-0.33322-0.62578-0.86345-0.11509-1.1797z" fill="url(#linearGradient1973)" fill-rule="evenodd"/>
  <path d="m25.99 56.273c0.55138 0.29813 1.2778 0.23301 1.696-0.11537l-0.0182-1.1257c-1.2286-0.52021-1.8403-0.27007-2.4284 0.03705l-1.3631-0.83415c-0.82998-0.35977-1.1365-0.28779-1.5098-0.08432z" fill="#1d4f71" fill-rule="evenodd" stroke="#e3b705" stroke-linecap="round" stroke-linejoin="round" stroke-miterlimit="4.6" stroke-width=".12"/>
  <path d="m41.624 37.457v2.7669" fill="none" opacity=".23234" stroke="#4d4d4d" stroke-linecap="round" stroke-linejoin="round" stroke-miterlimit="4.6" stroke-width=".07708"/>
  <g fill-rule="evenodd" stroke-linecap="round" stroke-linejoin="round" stroke-miterlimit="4.6">
   <ellipse cx="48.123" cy="40.329" rx="10.016" ry="5.7865" fill="#849fb1" stroke="#4d4d4d" stroke-width=".177" style="paint-order:markers stroke fill"/>
   <ellipse cx="44.117" cy="38.577" rx="3.401" ry="2.0108" fill="url(#linearGradient1458)" stroke="#e3b705" stroke-width=".4" style="paint-order:markers stroke fill"/>
   <g stroke="#4d4d4d">
    <ellipse cx="68.551" cy="52.168" rx="10.016" ry="5.7865" fill="#849fb1" stroke-width=".177" style="paint-order:markers stroke fill"/>
    <ellipse cx="68.492" cy="52.187" rx="4.0393" ry="2.3846" fill="#597e96" stroke-width=".07708" style="paint-order:markers stroke fill"/>
    <ellipse cx="48.481" cy="64.074" rx="10.016" ry="5.7865" fill="#849fb1" stroke-width=".177" style="paint-order:markers stroke fill"/>
   </g>
   <ellipse cx="68.407" cy="52.246" rx="4.1189" ry="2.4439" fill="url(#linearGradient1458-0)" stroke="#e3b705" stroke-width=".4" style="paint-order:markers stroke fill"/>
  </g>
  <g fill="none" stroke="#4d4d4d">
   <path d="m18.922 47.04-0.0017 2.1477" stroke-linecap="round" stroke-linejoin="round" stroke-miterlimit="4.6" stroke-width=".1"/>
   <path d="m15.516 53.618c0.62425-1.8866 1.959-3.2259 3.418-4.4124" stroke-width=".051674"/>
   <g stroke-linecap="round" stroke-linejoin="round" stroke-miterlimit="4.6" stroke-width=".043061">
    <path d="m17.713 52.686-0.19863 2.6339c-0.0174 0.63466 0.12742 1.0219 0.56417 1.4253m19.763-0.12434c0.62913-0.92045 0.12625-2.7448-0.0406-4.1223"/>
    <path d="m38.079 40.383-0.34969 3.2453c-0.0174 0.63466 0.24251 1.1802 0.67926 1.5835m19.705-0.40487c0.60755-0.67588 0.22863-2.6057 0.01137-3.9976"/>
    <path d="m38.435 64.222-0.32579 2.8018c-0.0174 0.63466 0.26589 1.3688 0.45458 1.6658m19.928-0.15668c0.62913-0.92045 0.18634-2.8976 0.01947-4.2751"/>
   </g>
   <g>
    <path d="m36.409 66.199c0.46779-1.4137 1.3117-2.5202 2.3193-3.4852" stroke-width=".051674"/>
    <path d="m60.586 66.079c-0.46779-1.4137-1.3081-2.4087-2.3409-3.3378" stroke-width=".051674"/>
    <path d="m58.521 52.453-0.397 2.8526c-0.0174 0.63466 0.20372 1.2254 0.64046 1.6287m19.665 0.0032c0.78172-1.1748 0.25359-2.9483 0.12628-4.3114" stroke-linecap="round" stroke-linejoin="round" stroke-miterlimit="4.6" stroke-width=".043061"/>
   </g>
   <g stroke-width=".051674">
    <path d="m56.409 54.299c0.46779-1.4137 1.3371-2.4591 2.3447-3.4242"/>
    <path d="m80.723 54.373c-0.46779-1.4137-1.3386-2.5816-2.3612-3.4395"/>
    <path d="m35.972 42.697c0.46779-1.4137 1.2689-2.4417 2.2765-3.4068"/>
    <path d="m60.129 42.459c-0.47653-1.1922-1.1857-2.213-2.0817-2.9647"/>
    <path d="m40.265 53.435c-0.48164-1.4449-2.0802-2.7864-2.9798-3.3676"/>
   </g>
  </g>
  <g transform="matrix(.26458 0 0 .26458 44.53 71.876)">
   <ellipse cx="-44.92" cy="-98.798" rx="13.199" ry="13.469" fill="#1f638a" stroke-linecap="round" stroke-linejoin="round" stroke-width="1.0658"/>
   <text x="-50.761276" y="-91.125885" fill="#000000" letter-spacing="0px" word-spacing="0px" style="line-height:0%" xml:space="preserve"><tspan x="-50.761276" y="-91.125885" fill="#ffffff" font-family="'Arial Nova', 'Arial Unicode MS', 'Yu Gothic UI', sans-serif" font-size="20px" stroke="#ffffff" stroke-width="1.0667" style="line-height:1.25">1</tspan></text>
  </g>
  <g transform="matrix(.26458 0 0 .26458 68.871 71.064)">
   <ellipse cx="17.483" cy="-98.798" rx="13.199" ry="13.469" fill="#1f638a" stroke-linecap="round" stroke-linejoin="round" stroke-width="1.0658"/>
   <text x="11.641406" y="-91.256096" fill="#000000" font-family="'Arial Nova', 'Arial Unicode MS', 'Yu Gothic UI', sans-serif" letter-spacing="0px" word-spacing="0px" style="line-height:0%" xml:space="preserve"><tspan x="11.641406" y="-91.256096" fill="#ffffff" font-family="'Arial Nova', 'Arial Unicode MS', 'Yu Gothic UI', sans-serif" font-size="20px" stroke="#ffffff" stroke-width="1.0667" style="line-height:1.25">3</tspan></text>
  </g>
  <g transform="matrix(.26458 0 0 .26458 57.808 59.845)">
   <ellipse cx="-13.718" cy="-98.798" rx="13.199" ry="13.469" fill="#1f638a" stroke-linecap="round" stroke-linejoin="round" stroke-width="1.0658"/>
   <text x="-19.559933" y="-91.125885" fill="#000000" letter-spacing="0px" word-spacing="0px" style="line-height:0%" xml:space="preserve"><tspan x="-19.559933" y="-91.125885" fill="#ffffff" font-family="'Arial Nova', 'Arial Unicode MS', 'Yu Gothic UI', sans-serif" font-size="20px" stroke="#ffffff" stroke-width="1.0667" style="line-height:1.25">2</tspan></text>
  </g>
  <g transform="matrix(1.1284 0 0 1.5105 -13.667 24.1)" fill="url(#linearGradient11626)">
   <rect x="96.808" y="33.938" width="74.102" height="19.697" fill="url(#linearGradient11860)" fill-rule="evenodd" style="paint-order:markers stroke fill"/>
  </g>
  <g stroke-linecap="round" stroke-linejoin="round">
   <g transform="matrix(.60143 0 0 .60143 .83991 80.274)" fill="none" stroke="#f000f0" stroke-width=".66508">
    <path d="m77.414-27.592 3.5908 2.1261"/>
    <path d="m80.911-27.569-3.449 2.0552"/>
    <path d="m79.174-28.514v4.0632"/>
   </g>
   <g transform="matrix(.60143 0 0 .60143 20.73 68.159)" fill="none" stroke="#f000f0" stroke-width=".66508">
    <path d="m77.414-27.592 3.5908 2.1261"/>
    <path d="m80.911-27.569-3.449 2.0552"/>
    <path d="m79.174-28.514v4.0632"/>
   </g>
   <path d="m112.81 75.464h50.032l-1.6074 6.7346h-47.219z" fill="#557a92" fill-rule="evenodd" stroke="#4d4d4d" stroke-miterlimit="4.6" stroke-width=".16778" style="paint-order:markers stroke fill"/>
   <path d="m118.62 75.499h37.947l1.0399 6.7027h-40.035z" fill="url(#linearGradient10545)" fill-rule="evenodd" stroke="#4d4d4d" stroke-miterlimit="4.6" stroke-width=".153" style="paint-order:markers stroke fill"/>
   <g transform="matrix(.60143 0 0 .60143 89.926 91.474)" fill="none" stroke="#f000f0" stroke-width=".66508">
    <path d="m77.414-27.592 3.5908 2.1261"/>
    <path d="m80.911-27.569-3.449 2.0552"/>
    <path d="m79.174-28.514v4.0632"/>
   </g>
  </g>
  <g fill="none" stroke-linecap="round" stroke-linejoin="round" stroke-miterlimit="4.6">
   <path d="m38.611 35.675-0.0017 2.6769" stroke="#4d4d4d" stroke-width=".18"/>
   <path d="m41.72 37.241-0.0017 2.6769" stroke="#e3b705" stroke-width=".28"/>
   <path d="m65.014 50.763-0.0017 2.9943" stroke="#e3b705" stroke-width=".28"/>
   <path d="m59.001 47.673-0.0017 2.6769" stroke="#4d4d4d" stroke-width=".1"/>
   <path d="m39.219 59.126-0.0017 2.6769" stroke="#4d4d4d" stroke-width=".1"/>
  </g>
  <g transform="translate(118.1 2.5396)" fill="none" stroke="#e3b705" stroke-linecap="round" stroke-linejoin="round" stroke-miterlimit="4.6">
   <path d="m-97.703 49.501 1.2948-0.71931c0.79328-0.37532 1.7506-0.20393 2.1579 0.05754l1.2911 0.74808c1.584-0.98684 3.6987 0.29365 2.4493 1.3811l1.2948 0.86317c0.36238 0.23901 0.53515 0.64433-0.01438 0.96388l-1.453 0.9351c-0.3627 0.25161-1.1046 0.23476-1.6113-0.02877l-5.2941-3.0211c-0.47124-0.33322-0.62578-0.86345-0.11509-1.1797z" stroke-width=".3"/>
   <path d="m-90.346 53.83 1.2948 0.86317c0.36238 0.23901 0.53515 0.64433-0.01438 0.96388l-1.453 0.9351c-0.3627 0.25161-1.1046 0.23476-1.6113-0.02877l-5.2941-3.0211c-0.47124-0.33322-0.62578-0.86345-0.11509-1.1797l-3e-6 1e-6 1.2948-0.71931" stroke-dasharray="0.28, 0.56" stroke-width=".28"/>
   <g>
    <g stroke-width=".16">
     <path d="m-94.114 48.861-0.0017 2.6769"/>
     <path d="m-96.035 48.767-0.0017 2.6769"/>
     <path d="m-90.558 50.979-0.0059 2.6184"/>
     <path d="m-92.881 49.611-0.0047 2.7182"/>
     <path d="m-97.445 49.539-0.0017 1.0894"/>
    </g>
    <path d="m-96.19 51.511c0.79328-0.37532 1.7506-0.20393 2.1579 0.05754l1.2084 0.74808c0.79893-0.49773 1.7539-0.41868 2.3439-0.07854" stroke-width=".28"/>
   </g>
   <path d="m-97.981 50.188-2e-3 2.6769" stroke-dasharray="0.28, 0.56" stroke-width=".28"/>
   <path d="m-90.374 52.354c0.63224 0.32602 0.88102 0.91457 0.23666 1.4754" stroke-dasharray="0.28, 0.56" stroke-width=".28"/>
   <g stroke-dasharray="0.280001, 0.560001" stroke-width=".28">
    <path d="m-92.539 53.676-2e-3 2.6769"/>
    <path d="m-90.298 53.736-2e-3 2.6769"/>
    <path d="m-88.747 52.488-2e-3 2.6769"/>
    <path d="m-90.005 50.681-2e-3 2.6769"/>
   </g>
  </g>
  <g transform="matrix(.60143 0 0 .60143 -19.943 67.945)" fill="none" stroke="#f000f0" stroke-linecap="round" stroke-linejoin="round" stroke-width=".66508">
   <path d="m77.414-27.592 3.5908 2.1261"/>
   <path d="m80.911-27.569-3.449 2.0552"/>
   <path d="m79.174-28.514v4.0632"/>
  </g>
  <g transform="translate(0 16.404)" fill="none" stroke="#e3b705" stroke-linecap="round" stroke-linejoin="round" stroke-miterlimit="4.6">
   <ellipse cx="68.36" cy="61.561" rx="4.1189" ry="2.4439" stroke-dasharray="0.28, 0.56" stroke-width=".28" style="paint-order:markers stroke fill"/>
   <g stroke-dasharray="0.280001, 0.560001" stroke-width=".28">
    <path d="m65.013 37.593-0.0017 25.431"/>
    <path d="m72.631 36.128-0.0017 25.431"/>
    <path d="m64.212 36.328-0.0017 25.431"/>
   </g>
  </g>
  <g transform="matrix(.83023 0 0 .83023 -12.718 8.5646)" fill="none" stroke="#e3b705" stroke-linecap="round" stroke-linejoin="round" stroke-miterlimit="4.6">
   <ellipse cx="68.443" cy="52.269" rx="4.1189" ry="2.4439" stroke-dasharray="0.28, 0.56" stroke-width=".28" style="paint-order:markers stroke fill"/>
   <g stroke-dasharray="0.280001, 0.560001" stroke-width=".28">
    <path d="m65.525 37.65-0.0017 16.213"/>
    <path d="m72.692 36.148-0.06206 15.556"/>
    <path d="m64.212 36.328-0.0017 15.576"/>
   </g>
  </g>
  <g transform="matrix(.26458 0 0 .26458 -53.992 18.094)">
   <g transform="translate(354.56 247.34)">
    <ellipse cx="48.684" cy="-98.798" rx="13.199" ry="13.469" fill="#1f638a" stroke-linecap="round" stroke-linejoin="round" stroke-width="1.0658"/>
    <text x="42.842751" y="-91.162346" fill="#000000" letter-spacing="0px" word-spacing="0px" style="line-height:0%" xml:space="preserve"><tspan x="42.842751" y="-91.162346" fill="#ffffff" font-family="'Arial Nova', 'Arial Unicode MS', 'Yu Gothic UI', sans-serif" font-size="20px" stroke="#ffffff" stroke-width="1.0667" style="line-height:1.25">4</tspan></text>
   </g>
  </g>
  <g transform="matrix(.60143 0 0 .60143 .53965 56.304)" fill="none" stroke="#f000f0" stroke-linecap="round" stroke-linejoin="round" stroke-width=".66508">
   <path d="m77.414-27.592 3.5908 2.1261"/>
   <path d="m80.911-27.569-3.449 2.0552"/>
   <path d="m79.174-28.514v4.0632"/>
  </g>
  <g stroke="#000000" stroke-linecap="round">
   <g>
    <path d="m114.07 65.815-0.0334 16.364" fill="#000000" stroke-linejoin="round" stroke-width=".1875"/>
    <path d="m111.07 65.712 2.928 16.462" fill="#000000" stroke-linejoin="round" stroke-width=".1875"/>
    <path d="m120.92 69.619c-5.2445-0.53013-10.634 0.20557-14.858 2.0088" fill="none" stroke-width=".2"/>
   </g>
   <g stroke-linejoin="round">
    <path d="m111.57 70.008-2.8637 2.0231-0.6702-2.2193z" stroke-width=".28199"/>
    <path d="m114.34 69.617 3.3466 1.0458-0.0437-2.3179z" stroke-width=".28199"/>
    <path d="m157.61 65.978-0.0118 16.068" fill="#000000" stroke-width=".1875"/>
    <path d="m155.63 65.778 1.9497 16.346" fill="#000000" stroke-width=".1875"/>
   </g>
  </g>
  <g transform="translate(-3.7042)" stroke="#000000" stroke-linecap="round">
   <path d="m167.72 69.789c-5.1433-0.5199-10.426 0.17765-14.612 1.9056" fill="none" stroke-width=".2"/>
   <path d="m159.34 69.991-2.9946 1.8237-0.51776-2.2597z" stroke-linejoin="round" stroke-width=".28199"/>
   <path d="m161.59 69.737 3.3466 1.0458-0.0437-2.3179z" stroke-linejoin="round" stroke-width=".28199"/>
  </g>
  <g transform="translate(-3.7042 -1.0583)">
   <path d="m141.25 72.435v2.5223" fill="#000000" stroke="#000000" stroke-linecap="round" stroke-linejoin="round" stroke-width=".179"/>
   <g transform="matrix(.26458 0 0 .26458 34.598 29.481)">
    <g transform="translate(354.56 247.34)">
     <ellipse cx="48.684" cy="-98.798" rx="13.199" ry="13.469" fill="#1f638a" stroke-linecap="round" stroke-linejoin="round" stroke-width="1.0658"/>
     <text x="42.842751" y="-91.162346" fill="#000000" letter-spacing="0px" word-spacing="0px" style="line-height:0%" xml:space="preserve"><tspan x="42.842751" y="-91.162346" fill="#ffffff" font-family="'Arial Nova', 'Arial Unicode MS', 'Yu Gothic UI', sans-serif" font-size="20px" stroke="#ffffff" stroke-width="1.0667" style="line-height:1.25">5</tspan></text>
    </g>
   </g>
  </g>
  <g fill="#000000" stroke="#000000" stroke-linecap="round" stroke-linejoin="round" stroke-width=".179">
   <path d="m118.64 75.538v25.277"/>
   <path d="m156.72 75.419v25.277"/>
   <path d="m112.76 75.481v13.106"/>
   <path d="m162.89 75.479v13.106"/>
  </g>
  <path d="m156.4 95.253-3.321-1.1243-0.0108 2.3182z" stroke="#000000" stroke-linecap="round" stroke-linejoin="round" stroke-width=".28199"/>
  <g transform="translate(-3.7042 16.404)" stroke="#000000" stroke-linecap="round" stroke-linejoin="round">
   <path d="m122.58 78.864 3.321 1.1243 0.0108-2.3182z" stroke-width=".28199"/>
   <path d="m160.19 78.795-37.658 0.0709" fill="#000000" stroke-width=".179"/>
  </g>
  <g transform="translate(-3.7042 12.7)" stroke="#000000" stroke-linecap="round" stroke-linejoin="round">
   <path d="m116.69 73.277 3.321 1.1243 0.0108-2.3182z" stroke-width=".28199"/>
   <path d="m166.27 73.227-3.321-1.1243-0.0108 2.3182z" stroke-width=".28199"/>
   <path d="m163.71 73.173-44.008 0.0709" fill="#000000" stroke-width=".179"/>
  </g>
  <g transform="translate(-10.094 21.436)">
   <g transform="matrix(.26458 0 0 .26458 34.598 29.481)">
    <g transform="translate(354.56 247.34)">
     <ellipse cx="48.684" cy="-98.798" rx="13.199" ry="13.469" fill="#1f638a" stroke-linecap="round" stroke-linejoin="round" stroke-width="1.0658"/>
     <text x="42.842751" y="-91.162346" fill="#000000" letter-spacing="0px" word-spacing="0px" style="line-height:0%" xml:space="preserve"><tspan x="42.842751" y="-91.162346" fill="#ffffff" font-family="'Arial Nova', 'Arial Unicode MS', 'Yu Gothic UI', sans-serif" font-size="20px" stroke="#ffffff" stroke-width="1.0667" style="line-height:1.25">6</tspan></text>
    </g>
   </g>
  </g>
  <g transform="translate(2.321 30.871)">
   <g transform="matrix(.26458 0 0 .26458 34.598 29.481)">
    <g transform="translate(354.56 247.34)">
     <ellipse cx="48.684" cy="-98.798" rx="13.199" ry="13.469" fill="#1f638a" stroke-linecap="round" stroke-linejoin="round" stroke-width="1.0658"/>
     <text x="42.842751" y="-91.162346" fill="#000000" letter-spacing="0px" word-spacing="0px" style="line-height:0%" xml:space="preserve"><tspan x="42.842751" y="-91.162346" fill="#ffffff" font-family="'Arial Nova', 'Arial Unicode MS', 'Yu Gothic UI', sans-serif" font-size="20px" stroke="#ffffff" stroke-width="1.0667" style="line-height:1.25">7</tspan></text>
    </g>
   </g>
  </g>
  <g transform="translate(-28.599 -7.21)">
   <g transform="matrix(.26458 0 0 .26458 34.598 29.481)">
    <g transform="translate(354.56 247.34)">
     <ellipse cx="48.684" cy="-98.798" rx="13.199" ry="13.469" fill="#1f638a" stroke-linecap="round" stroke-linejoin="round" stroke-width="1.0658"/>
     <text x="38.842751" y="-91.162346" fill="#000000" letter-spacing="0px" word-spacing="0px" style="line-height:0%" xml:space="preserve"><tspan x="38.842751" y="-91.162346" fill="#ffffff" font-family="'Arial Nova', 'Arial Unicode MS', 'Yu Gothic UI', sans-serif" font-size="20px" stroke="#ffffff" stroke-width="1.0667" style="line-height:1.25">1</tspan></text>
    </g>
   </g>
  </g>
  <text x="112.3083" y="63.575943" fill="#000000" font-size="3.175px" letter-spacing="0px" stroke-width=".26458" word-spacing="0px" style="line-height:0%" xml:space="preserve"><tspan x="112.3083" y="63.575943" fill="#ffffff" font-family="'Arial Nova', 'Arial Unicode MS', 'Yu Gothic UI', sans-serif" font-size="5.2917px" stroke="#ffffff" stroke-width=".28222" style="line-height:1.25">0</tspan></text>
  <g transform="translate(15.433 -7.4773)">
   <g transform="matrix(.26458 0 0 .26458 34.598 29.481)">
    <g transform="translate(354.56 247.34)">
     <ellipse cx="48.684" cy="-98.798" rx="13.199" ry="13.469" fill="#1f638a" stroke-linecap="round" stroke-linejoin="round" stroke-width="1.0658"/>
     <text x="38.842751" y="-91.162346" fill="#000000" letter-spacing="0px" word-spacing="0px" style="line-height:0%" xml:space="preserve"><tspan x="38.842751" y="-91.162346" fill="#ffffff" font-family="'Arial Nova', 'Arial Unicode MS', 'Yu Gothic UI', sans-serif" font-size="20px" stroke="#ffffff" stroke-width="1.0667" style="line-height:1.25">1</tspan></text>
    </g>
   </g>
  </g>
  <text x="156.11681" y="63.305725" fill="#000000" font-size="3.175px" letter-spacing="0px" stroke-width=".26458" word-spacing="0px" style="line-height:0%" xml:space="preserve"><tspan x="156.11681" y="63.305725" fill="#ffffff" font-family="'Arial Nova', 'Arial Unicode MS', 'Yu Gothic UI', sans-serif" font-size="5.2917px" stroke="#ffffff" stroke-width=".28222" style="line-height:1.25">1</tspan></text>
  <g transform="translate(-4.2711 3.175)" fill-rule="evenodd" stroke="#4d4d4d" stroke-linecap="round" stroke-linejoin="round" stroke-miterlimit="4.6">
   <path d="m116.91 21.672h49.552l-1.592 8.5976h-46.766z" fill="#557a92" stroke-width=".076061" style="paint-order:markers stroke fill"/>
   <path d="m122.73 20.271h37.936l1.0396 10.027h-40.023z" fill="url(#linearGradient10545-3)" stroke-width=".064391" style="paint-order:markers stroke fill"/>
  </g>
  <path d="m132.01 23.277h10.824l-5e-3 27.356h-10.816z" fill="url(#linearGradient10545-3-6)" fill-rule="evenodd" stroke="#4d4d4d" stroke-linecap="round" stroke-linejoin="round" stroke-miterlimit="4.6" stroke-width=".05529" style="paint-order:markers stroke fill"/>
  <path d="m169.07 50.623-26.122-0.01181" fill="#000000" stroke="#000000" stroke-linecap="round" stroke-linejoin="round" stroke-width=".179"/>
  <g transform="translate(-5.4366 3.3587)" stroke="#000000" stroke-linecap="round" stroke-linejoin="round">
   <path d="m172.39 47.18-1.1243-3.321 2.3182-0.01083z" stroke-width=".28199"/>
   <path d="m172.48 20.381 1.1243 3.321-2.3182 0.0108z" stroke-width=".28199"/>
   <path d="m172.49 23.566-0.0591 21.043" fill="#000000" stroke-width=".1875"/>
  </g>
  <path d="m132.05 7.0154v16.281" fill="#000000" stroke="#000000" stroke-linecap="round" stroke-linejoin="round" stroke-width=".179"/>
  <g transform="translate(-3.7042 -1.0583)" stroke="#000000" stroke-linecap="round" stroke-linejoin="round">
   <path d="m135.48 9.8892-3.3258 1.11-8.8e-4 -2.3183z" stroke-width=".28199"/>
   <path d="m135.54 9.8652h-5.6973" fill="#000000" stroke-width=".1875"/>
  </g>
  <path d="m142.84 7.0071v16.281" fill="#000000" stroke="#000000" stroke-linecap="round" stroke-linejoin="round" stroke-width=".179"/>
  <g transform="translate(-3.7042 -1.0583)" stroke="#000000" stroke-linecap="round" stroke-linejoin="round">
   <path d="m146.76 9.9288 3.3466 1.0458-0.0437-2.3179z" stroke-width=".28199"/>
   <path d="m152.4 9.9466h-5.6973" fill="#000000" stroke-width=".1875"/>
  </g>
  <path d="m169.18 23.491s-26.453-0.111-26.335 0" fill="#000000" stroke="#000000" stroke-linecap="round" stroke-linejoin="round" stroke-width=".179"/>
  <g transform="translate(2.1167 3.175)" stroke="#000000" stroke-linecap="round" stroke-linejoin="round">
   <path d="m126.04 20.195-1.1243-3.321 2.3182-0.0108z" stroke-width=".28199"/>
   <g transform="translate(3.7042)">
    <path d="m122.34 30.364 1.1243 3.321-2.3182 0.0108z" stroke-width=".28199"/>
    <path d="m122.35 14.775-0.0591 21.043" fill="#000000" stroke-width=".179"/>
   </g>
  </g>
  <g transform="translate(-2.6458 3.175)" stroke="#000000" stroke-linecap="round" stroke-linejoin="round">
   <path d="m116.41 30.525 1.1243 3.321-2.3182 0.0108z" stroke-width=".28199"/>
   <path d="m116.41 21.626-1.1243-3.321 2.3182-0.0108z" stroke-width=".28199"/>
   <path d="m116.43 16.205-0.0709 19.666" fill="#000000" stroke-width=".179"/>
  </g>
  <g transform="matrix(.60143 0 0 .60143 89.78 39.247)" fill="none" stroke="#f000f0" stroke-linecap="round" stroke-linejoin="round" stroke-width=".66508">
   <path d="m77.414-27.592 3.5908 2.1261"/>
   <path d="m80.911-27.569-3.449 2.0552"/>
   <path d="m79.174-28.514v4.0632"/>
  </g>
  <g transform="translate(-32.169 -39.716)">
   <g transform="matrix(.26458 0 0 .26458 34.598 29.481)">
    <g transform="translate(354.56 247.34)">
     <ellipse cx="48.684" cy="-98.798" rx="13.199" ry="13.469" fill="#1f638a" stroke-linecap="round" stroke-linejoin="round" stroke-width="1.0658"/>
     <text x="42.842751" y="-91.162346" fill="#000000" letter-spacing="0px" word-spacing="0px" style="line-height:0%" xml:space="preserve"><tspan x="42.842751" y="-91.162346" fill="#ffffff" font-family="'Arial Nova', 'Arial Unicode MS', 'Yu Gothic UI', sans-serif" font-size="20px" stroke="#ffffff" stroke-width="1.0667" style="line-height:1.25">8</tspan></text>
    </g>
   </g>
  </g>
  <g transform="translate(-17.617 -39.811)">
   <g transform="matrix(.26458 0 0 .26458 34.598 29.481)">
    <g transform="translate(354.56 247.34)">
     <ellipse cx="48.684" cy="-98.798" rx="13.199" ry="13.469" fill="#1f638a" stroke-linecap="round" stroke-linejoin="round" stroke-width="1.0658"/>
     <text x="42.842751" y="-91.162346" fill="#000000" letter-spacing="0px" word-spacing="0px" style="line-height:0%" xml:space="preserve"><tspan x="42.842751" y="-91.162346" fill="#ffffff" font-family="'Arial Nova', 'Arial Unicode MS', 'Yu Gothic UI', sans-serif" font-size="20px" stroke="#ffffff" stroke-width="1.0667" style="line-height:1.25">9</tspan></text>
    </g>
   </g>
  </g>
  <path d="m137.43 19.651v1.9932" fill="#000000" stroke="#000000" stroke-linecap="round" stroke-linejoin="round" stroke-width=".179"/>
  <g transform="translate(-20.743 26.488)">
   <g transform="translate(17.2 -79.474)">
    <g transform="matrix(.26458 0 0 .26458 34.598 29.481)">
     <g transform="translate(354.56 247.34)">
      <ellipse cx="48.684" cy="-98.798" rx="13.199" ry="13.469" fill="#1f638a" stroke-linecap="round" stroke-linejoin="round" stroke-width="1.0658"/>
      <text x="37.414181" y="-91.162346" fill="#000000" letter-spacing="0px" word-spacing="0px" style="line-height:0%" xml:space="preserve"><tspan x="37.414181" y="-91.162346" fill="#ffffff" font-family="'Arial Nova', 'Arial Unicode MS', 'Yu Gothic UI', sans-serif" font-size="20px" stroke="#ffffff" stroke-width="1.0667" style="line-height:1.25">1</tspan></text>
     </g>
    </g>
   </g>
   <text x="158.01079" y="-8.7613859" fill="#000000" font-size="3.175px" letter-spacing="0px" stroke-width=".26458" word-spacing="0px" style="line-height:0%" xml:space="preserve"><tspan x="158.01079" y="-8.7613859" fill="#ffffff" font-family="'Arial Nova', 'Arial Unicode MS', 'Yu Gothic UI', sans-serif" font-size="5.2917px" stroke="#ffffff" stroke-width=".28222" style="line-height:1.25">2</tspan></text>
  </g>
  <g transform="translate(-20.876 17.273)">
   <g transform="translate(17.2 -79.474)">
    <g transform="matrix(.26458 0 0 .26458 34.598 29.481)">
     <g transform="translate(354.56 247.34)">
      <ellipse cx="48.684" cy="-98.798" rx="13.199" ry="13.469" fill="#1f638a" stroke-linecap="round" stroke-linejoin="round" stroke-width="1.0658"/>
      <text x="37.414181" y="-91.162346" fill="#000000" letter-spacing="0px" word-spacing="0px" style="line-height:0%" xml:space="preserve"><tspan x="37.414181" y="-91.162346" fill="#ffffff" font-family="'Arial Nova', 'Arial Unicode MS', 'Yu Gothic UI', sans-serif" font-size="20px" stroke="#ffffff" stroke-width="1.0667" style="line-height:1.25">1</tspan></text>
     </g>
    </g>
   </g>
   <text x="158.01079" y="-8.7613859" fill="#000000" font-size="3.175px" letter-spacing="0px" stroke-width=".26458" word-spacing="0px" style="line-height:0%" xml:space="preserve"><tspan x="158.01079" y="-8.7613859" fill="#ffffff" font-family="'Arial Nova', 'Arial Unicode MS', 'Yu Gothic UI', sans-serif" font-size="5.2917px" stroke="#ffffff" stroke-width=".28222" style="line-height:1.25">3</tspan></text>
  </g>
  <g transform="translate(12.885 48.343)">
   <g transform="translate(17.2 -79.474)">
    <g transform="matrix(.26458 0 0 .26458 34.598 29.481)">
     <g transform="translate(354.56 247.34)">
      <ellipse cx="48.684" cy="-98.798" rx="13.199" ry="13.469" fill="#1f638a" stroke-linecap="round" stroke-linejoin="round" stroke-width="1.0658"/>
      <text x="37.414181" y="-91.162346" fill="#000000" letter-spacing="0px" word-spacing="0px" style="line-height:0%" xml:space="preserve"><tspan x="37.414181" y="-91.162346" fill="#ffffff" font-family="'Arial Nova', 'Arial Unicode MS', 'Yu Gothic UI', sans-serif" font-size="20px" stroke="#ffffff" stroke-width="1.0667" style="line-height:1.25">1</tspan></text>
     </g>
    </g>
   </g>
   <text x="158.01079" y="-8.7613859" fill="#000000" font-size="3.175px" letter-spacing="0px" stroke-width=".26458" word-spacing="0px" style="line-height:0%" xml:space="preserve"><tspan x="158.01079" y="-8.7613859" fill="#ffffff" font-family="'Arial Nova', 'Arial Unicode MS', 'Yu Gothic UI', sans-serif" font-size="5.2917px" stroke="#ffffff" stroke-width=".28222" style="line-height:1.25">4</tspan></text>
  </g>
  <g transform="matrix(.26458 0 0 .26458 89.854 -22.702)">
   <g stroke="#000000">
    <g stroke-linecap="round" stroke-linejoin="round" stroke-width=".70866">
     <path d="m21.117 152.54 0.11958 27.151" fill="#800080"/>
     <path d="m21.149 146.01 3.4666 14.35h-6.9332c1.228-7.2721 3.4666-14.35 3.4666-14.35z" fill="#ffffff"/>
     <path d="m43.911 179.63-22.523-0.0967" fill="#800080"/>
     <path d="m51.965 179.65-14.355 3.4439 0.011-6.9332z" fill="#ffffff"/>
    </g>
    <text x="45.019936" y="175.30176" fill="#000000" font-family="'Arial Nova', 'Arial Unicode MS', 'Yu Gothic UI', sans-serif" letter-spacing="0px" word-spacing="0px" style="line-height:0%" xml:space="preserve"><tspan x="45.019936" y="175.30176" fill="#ff0000" font-family="'Arial Nova', 'Arial Unicode MS', 'Yu Gothic UI', sans-serif" font-size="10px" stroke="#000000" style="line-height:1.25">X</tspan></text>
    <text x="24.983866" y="153.24313" fill="#000000" font-family="'Arial Nova', 'Arial Unicode MS', 'Yu Gothic UI', sans-serif" letter-spacing="0px" word-spacing="0px" style="line-height:0%" xml:space="preserve"><tspan x="24.983866" y="153.24313" fill="#ff0000" font-family="'Arial Nova', 'Arial Unicode MS', 'Yu Gothic UI', sans-serif" font-size="10px" stroke="#000000" style="line-height:1.25">Z</tspan></text>
   </g>
   <g transform="translate(-243.07 368.71)">
    <ellipse transform="matrix(.9071 0 0 .90186 24.872 -1.1139)" cx="263.88" cy="-208.61" rx="3.8007" ry="3.8228" color="#000000" fill="#ffffff" stroke="#000000" stroke-linecap="round" stroke-linejoin="round" stroke-width=".7835"/>
    <ellipse transform="matrix(.81605 0 0 .73445 48.612 -50.299)" cx="264.23" cy="-189.2" rx=".4342" ry=".48244" color="#000000" fill="#000000"/>
   </g>
  </g>
  <g transform="matrix(.26458 0 0 .26458 89.928 27.871)">
   <g stroke="#000000">
    <g stroke-linecap="round" stroke-linejoin="round" stroke-width=".70866">
     <path d="m21.117 152.54 0.11958 27.151" fill="#800080"/>
     <path d="m21.149 146.01 3.4666 14.35h-6.9332c1.228-7.2721 3.4666-14.35 3.4666-14.35z" fill="#ffffff"/>
     <path d="m43.911 179.63-22.523-0.0967" fill="#800080"/>
     <path d="m51.965 179.65-14.355 3.4439 0.011-6.9332z" fill="#ffffff"/>
    </g>
    <text x="45.019936" y="175.30176" fill="#000000" font-family="'Arial Nova', 'Arial Unicode MS', 'Yu Gothic UI', sans-serif" letter-spacing="0px" word-spacing="0px" style="line-height:0%" xml:space="preserve"><tspan x="45.019936" y="175.30176" fill="#ff0000" font-family="'Arial Nova', 'Arial Unicode MS', 'Yu Gothic UI', sans-serif" font-size="10px" stroke="#000000" style="line-height:1.25">X</tspan></text>
    <text x="24.983866" y="153.24313" fill="#000000" font-family="'Arial Nova', 'Arial Unicode MS', 'Yu Gothic UI', sans-serif" letter-spacing="0px" word-spacing="0px" style="line-height:0%" xml:space="preserve"><tspan x="24.983866" y="153.24313" fill="#ff0000" font-family="'Arial Nova', 'Arial Unicode MS', 'Yu Gothic UI', sans-serif" font-size="10px" stroke="#000000" style="line-height:1.25">Z</tspan></text>
   </g>
   <g transform="translate(-243.07 368.71)">
    <ellipse transform="matrix(.9071 0 0 .90186 24.872 -1.1139)" cx="263.88" cy="-208.61" rx="3.8007" ry="3.8228" color="#000000" fill="#ffffff" stroke="#000000" stroke-linecap="round" stroke-linejoin="round" stroke-width=".7835"/>
    <ellipse transform="matrix(.81605 0 0 .73445 48.612 -50.299)" cx="264.23" cy="-189.2" rx=".4342" ry=".48244" color="#000000" fill="#000000"/>
   </g>
  </g>
  <path d="m4.4717 45.256 0.031639 7.1838" fill="#800080" stroke="#000000" stroke-linecap="round" stroke-linejoin="round" stroke-width=".1875"/>
  <path d="m4.4802 43.529 0.91721 3.7967h-1.8344c0.3249-1.9241 0.91721-3.7967 0.91721-3.7967z" fill="#ffffff" stroke="#000000" stroke-linecap="round" stroke-linejoin="round" stroke-width=".1875"/>
  <g transform="rotate(29.834 4.478 52.423)" stroke="#000000" stroke-linecap="round" stroke-linejoin="round" stroke-width=".1875">
   <path d="m10.503 52.424-5.9591-0.025586" fill="#800080"/>
   <path d="m12.634 52.429-3.7982 0.9112 0.00291-1.8344z" fill="#ffffff"/>
  </g>
  <text x="10.504454" y="54.613441" fill="#000000" font-family="'Arial Nova', 'Arial Unicode MS', 'Yu Gothic UI', sans-serif" font-size="3.175px" letter-spacing="0px" stroke="#000000" stroke-width=".26458" word-spacing="0px" style="line-height:0%" xml:space="preserve"><tspan x="10.504454" y="54.613441" fill="#ff0000" font-family="'Arial Nova', 'Arial Unicode MS', 'Yu Gothic UI', sans-serif" font-size="2.6458px" stroke="#000000" stroke-width=".26458" style="line-height:1.25">X</tspan></text>
  <text x="5.5966287" y="45.476868" fill="#000000" font-family="'Arial Nova', 'Arial Unicode MS', 'Yu Gothic UI', sans-serif" font-size="3.175px" letter-spacing="0px" stroke="#000000" stroke-width=".26458" word-spacing="0px" style="line-height:0%" xml:space="preserve"><tspan x="5.5966287" y="45.476868" fill="#ff0000" font-family="'Arial Nova', 'Arial Unicode MS', 'Yu Gothic UI', sans-serif" font-size="2.6458px" stroke="#000000" stroke-width=".26458" style="line-height:1.25">Z</tspan></text>
  <g transform="matrix(.26458 0 0 .26458 -65.428 102.45)">
   <ellipse transform="matrix(.9071 0 0 .90186 24.872 -1.1139)" cx="263.88" cy="-208.61" rx="3.8007" ry="3.8228" color="#000000" fill="#ffffff" stroke="#000000" stroke-linecap="round" stroke-linejoin="round" stroke-width=".7835"/>
   <ellipse transform="matrix(.81605 0 0 .73445 48.612 -50.299)" cx="264.23" cy="-189.2" rx=".4342" ry=".48244" color="#000000" fill="#000000"/>
  </g>
  <g transform="rotate(-30.146 3.7824 50.675)" stroke="#000000" stroke-linecap="round" stroke-linejoin="round" stroke-width=".1875">
   <path d="m10.503 52.424-5.9591-0.025586" fill="#800080"/>
   <path d="m12.634 52.429-3.7982 0.9112 0.00291-1.8344z" fill="#ffffff"/>
  </g>
  <text x="10.051131" y="47.132637" fill="#000000" font-family="'Arial Nova', 'Arial Unicode MS', 'Yu Gothic UI', sans-serif" font-size="3.175px" letter-spacing="0px" stroke="#000000" stroke-width=".26458" word-spacing="0px" style="line-height:0%" xml:space="preserve"><tspan x="10.051131" y="47.132637" fill="#ff0000" font-family="'Arial Nova', 'Arial Unicode MS', 'Yu Gothic UI', sans-serif" font-size="2.6458px" stroke="#000000" stroke-width=".26458" style="line-height:1.25">Y</tspan></text>
 </g>
</svg>
