<?xml version="1.0" encoding="UTF-8" standalone="no"?>
<!-- Created with Inkscape (http://www.inkscape.org/) -->

<svg
   width="90.594315"
   height="90.298256"
   viewBox="0 0 23.969746 23.891414"
   version="1.1"
   id="svg307"
   inkscape:version="1.3.2 (091e20e, 2023-11-25, custom)"
   sodipodi:docname="icons_brows_bot_sh_rem_mat.svg"
   xml:space="preserve"
   xmlns:inkscape="http://www.inkscape.org/namespaces/inkscape"
   xmlns:sodipodi="http://sodipodi.sourceforge.net/DTD/sodipodi-0.dtd"
   xmlns="http://www.w3.org/2000/svg"
   xmlns:svg="http://www.w3.org/2000/svg"><sodipodi:namedview
     id="namedview309"
     pagecolor="#ffffff"
     bordercolor="#666666"
     borderopacity="1.0"
     inkscape:showpageshadow="2"
     inkscape:pageopacity="0.0"
     inkscape:pagecheckerboard="0"
     inkscape:deskcolor="#d1d1d1"
     inkscape:document-units="mm"
     showgrid="false"
     inkscape:zoom="1.6819304"
     inkscape:cx="92.45329"
     inkscape:cy="4.7564394"
     inkscape:window-width="1920"
     inkscape:window-height="1010"
     inkscape:window-x="953"
     inkscape:window-y="-6"
     inkscape:window-maximized="1"
     inkscape:current-layer="svg307"
     showguides="true" /><defs
     id="defs304"><filter
       color-interpolation-filters="sRGB"
       id="filter7923-3"
       x="-0.084495624"
       y="-0.085117969"
       width="1.1689912"
       height="1.1702359"><feGaussianBlur
         id="feGaussianBlur7925-4"
         stdDeviation="0.18187912" /></filter><filter
       color-interpolation-filters="sRGB"
       id="filter7923-1-8"
       x="-0.084495624"
       y="-0.085117969"
       width="1.1689912"
       height="1.1702359"><feGaussianBlur
         id="feGaussianBlur7925-1-9"
         stdDeviation="0.18187912" /></filter><filter
       x="-0.14986934"
       y="-0.08535605"
       width="1.2997387"
       height="1.1707121"
       color-interpolation-filters="sRGB"
       id="filter7621-1"><feGaussianBlur
         stdDeviation="1.7089176"
         id="feGaussianBlur7623-7" /></filter></defs><g
     inkscape:groupmode="layer"
     id="layer2"
     inkscape:label="base"
     style="display:inline"
     transform="translate(103.85351,48.756087)"><g
       id="layer8"
       style="display:inline"
       transform="matrix(0.35041794,0,0,0.35041794,-101.52022,-47.079786)"
       inkscape:label="show removed material"><path
         d="m 49.680822,18.316022 v 22.028662 c -7.544956,18.949854 -36.464848,16.522713 -43.5571309,0 V 17.966417 C 11.243906,1.124339 46.463997,1.6089921 49.680822,18.316022 Z"
         id="path7848"
         style="fill:#e1e1e1;fill-opacity:1;stroke:none" /><path
         d="m 28.002201,35.011021 c -8.276827,0 -14.986521,-3.650392 -14.986521,-8.153379 0,-4.502988 6.709694,-8.15338 14.986521,-8.15338 8.276827,0 14.822818,3.650392 14.822818,8.15338 0,4.502987 -6.545991,8.153379 -14.822818,8.153379"
         id="path8875-0"
         style="fill:none;stroke:#008080;stroke-width:2.11667;stroke-miterlimit:4;stroke-dasharray:none;stroke-opacity:1" /><path
         d="m 42.900357,27.361584 v 11.864632 c 0.01254,4.524414 -6.685497,8.174805 -14.962325,8.174805 -8.276828,0 -15.033675,-3.650391 -15.034126,-8.164541 V 26.748667"
         id="path8902"
         style="fill:none;stroke:#008080;stroke-width:2.11667;stroke-linecap:round;stroke-linejoin:round;stroke-miterlimit:4;stroke-dasharray:none;stroke-opacity:1" /><g
         transform="matrix(1.0455069,0,0,1.0455069,-1.7341201,4.7126457)"
         id="g7853"><path
           d="M 9.1471143,17.673678 C 5.0305784,11.827982 10.355314,5.2633866 21.040244,3.0112425 31.725174,0.75909831 44.3128,3.3348204 47.902653,9.5179403 51.25078,15.284715 46.850809,21.76879 36.045022,24.122115 25.325307,26.395948 13.26365,23.519374 9.1471143,17.673678 Z"
           transform="translate(0,-1.5875001)"
           id="path7759"
           style="fill:none;stroke:#000000;stroke-width:2.02454;stroke-miterlimit:4;stroke-dasharray:none;stroke-opacity:1" /><path
           d="m 7.7338187,14.144902 v 22.44774 C 11.575633,51.618849 46.235081,52.110773 48.989235,36.592219 V 12.722373"
           transform="translate(0,-1.5875001)"
           id="path7701"
           style="fill:none;stroke:#000000;stroke-width:2.02454;stroke-linecap:round;stroke-linejoin:round;stroke-miterlimit:4;stroke-dasharray:none;stroke-opacity:1" /><path
           d="M 29.008302,47.977203 C 80.365312,34.417609 133.21334,32.174381 185.672,48.007093"
           transform="matrix(0.26458334,0,0,0.26458334,-1.49633e-6,0)"
           id="path7837"
           style="fill:none;stroke:#000000;stroke-width:7.65179;stroke-linecap:butt;stroke-linejoin:miter;stroke-miterlimit:4;stroke-dasharray:none;stroke-opacity:1" /><path
           d="M 28.411278,-0.1087449 V 22.864534"
           id="path7839"
           style="fill:none;stroke:#000000;stroke-width:2.02454;stroke-linecap:butt;stroke-linejoin:miter;stroke-miterlimit:4;stroke-dasharray:none;stroke-opacity:1" /></g></g></g><g
     id="g1"
     style="display:inline"
     inkscape:label="frame"><rect
       style="display:inline;fill:none;fill-opacity:1;stroke:#b0afb0;stroke-width:0.656022;stroke-linecap:square;stroke-opacity:1"
       id="rect5323"
       width="23.313725"
       height="23.235392"
       x="0.32168365"
       y="0.31913781"
       rx="1.2552016"
       ry="1.2552016"
       inkscape:label="frame" /></g></svg>
