<?xml version="1.0" encoding="UTF-8"?>
<svg version="1.1" viewBox="0 0 637.8 301.18" xmlns="http://www.w3.org/2000/svg" xmlns:xlink="http://www.w3.org/1999/xlink">
 <title>Abbildung für OPEN MIND Softwaredokumentation</title>
 <defs>
  <linearGradient id="linearGradient20539-5" x1="54.983" x2="54.983" y1="34.986" y2="34.986" gradientUnits="userSpaceOnUse">
   <stop stop-color="#ffffff" offset="0"/>
   <stop stop-color="#fcfcfc" offset=".2264"/>
   <stop stop-color="#f4f4f4" offset=".3626"/>
   <stop stop-color="#e6e6e6" offset=".475"/>
   <stop stop-color="#d1d1d1" offset=".5744"/>
   <stop stop-color="#b7b7b7" offset=".6652"/>
   <stop stop-color="#979797" offset=".7498"/>
   <stop stop-color="#707070" offset=".8297"/>
   <stop stop-color="#444444" offset=".9057"/>
   <stop stop-color="#121212" offset=".9761"/>
   <stop stop-color="#000000" offset="1"/>
  </linearGradient>
  <linearGradient id="linearGradient9981-6-2-9" x1="512.27" x2="513.21" y1="839.68" y2="948.92" gradientTransform="matrix(.79462 0 0 .79462 91.424 213.11)" gradientUnits="userSpaceOnUse" xlink:href="#linearGradient17780-7-01-0-9-1"/>
  <linearGradient id="linearGradient9984-2-1-1" x1="472.94" x2="473.9" y1="824.4" y2="965.65" gradientTransform="matrix(.79462 0 0 .79462 91.424 213.11)" gradientUnits="userSpaceOnUse" xlink:href="#linearGradient17780-7-01-0-9-1"/>
  <linearGradient id="linearGradient9987-0-5-7" x1="512.04" x2="512.37" y1="820.58" y2="964.86" gradientTransform="matrix(.79462 0 0 .79462 91.424 213.11)" gradientUnits="userSpaceOnUse" xlink:href="#linearGradient17780-7-01-0-9-1"/>
  <linearGradient id="linearGradient9990-0-5-5" x1="444.17" x2="446.48" y1="803.72" y2="981.94" gradientTransform="matrix(.79462 0 0 .79462 91.424 213.11)" gradientUnits="userSpaceOnUse" xlink:href="#linearGradient17780-7-01-0-9-1"/>
  <linearGradient id="linearGradient9993-3-4-3" x1="444.17" x2="444.48" y1="803.72" y2="982.99" gradientTransform="matrix(.79462 0 0 .79462 91.424 213.11)" gradientUnits="userSpaceOnUse" xlink:href="#linearGradient17780-7-01-0-9-1"/>
  <linearGradient id="linearGradient9996-9-0-3" x1="444.17" x2="517.63" y1="803.72" y2="971.94" gradientTransform="matrix(.79462 0 0 .79462 91.424 213.11)" gradientUnits="userSpaceOnUse" xlink:href="#linearGradient17780-7-01-0-9-1"/>
  <linearGradient id="linearGradient8200" x1="576.18" x2="575.69" y1="941.86" y2="845.59" gradientTransform="matrix(.79462 0 0 .79462 91.424 213.11)" gradientUnits="userSpaceOnUse">
   <stop stop-color="#ffffff" offset="0"/>
   <stop stop-color="#fcfcfc" offset=".2264"/>
   <stop stop-color="#f4f4f4" offset=".3626"/>
   <stop stop-color="#e6e6e6" offset=".475"/>
   <stop stop-color="#d1d1d1" offset=".5744"/>
   <stop stop-color="#b7b7b7" offset=".6652"/>
   <stop stop-color="#979797" offset=".7498"/>
   <stop stop-color="#707070" offset=".8297"/>
   <stop stop-color="#444444" offset=".9057"/>
   <stop stop-color="#121212" offset=".9761"/>
   <stop stop-color="#000000" offset="1"/>
  </linearGradient>
  <linearGradient id="linearGradient17780-7-01-0-9-1">
   <stop stop-color="#c8c8c8" offset="0"/>
   <stop stop-color="#ffffff" offset=".5"/>
   <stop stop-color="#c8c8c8" offset="1"/>
  </linearGradient>
  <linearGradient id="linearGradient15851" x1="-10.79" x2="239.55" y1="156.54" y2="15.327" gradientTransform="matrix(1.014 0 0 1.014 131.04 846.78)" gradientUnits="userSpaceOnUse">
   <stop stop-color="#ffffff" offset="0"/>
   <stop stop-color="#fcfcfc" offset=".2264"/>
   <stop stop-color="#f4f4f4" offset=".3626"/>
   <stop stop-color="#e6e6e6" offset=".475"/>
   <stop stop-color="#d1d1d1" offset=".5744"/>
   <stop stop-color="#b7b7b7" offset=".6652"/>
   <stop stop-color="#979797" offset=".7498"/>
   <stop stop-color="#707070" offset=".8297"/>
   <stop stop-color="#444444" offset=".9057"/>
   <stop stop-color="#121212" offset=".9761"/>
   <stop stop-color="#000000" offset="1"/>
  </linearGradient>
  <linearGradient id="linearGradient15854" x1="-13.4" x2="313.52" y1="177.84" y2="-18.618" gradientTransform="matrix(1.014 0 0 1.014 20.612 816.06)" gradientUnits="userSpaceOnUse" xlink:href="#linearGradient20539-5"/>
  <linearGradient id="linearGradient15869" x1="-3.1396" x2="221.82" y1="123.85" y2="209.65" gradientTransform="matrix(1.014 0 0 1.014 4.2094 829.22)" gradientUnits="userSpaceOnUse" xlink:href="#linearGradient20539-5"/>
 </defs>
 <g transform="translate(0 -751.18)">
  <g fill="#ae0000">
   <path d="m531.88 961.05v-71.393l-34.887 0.32563v70.144z" stroke="#4d4d4d" stroke-linecap="round" stroke-linejoin="round" stroke-miterlimit="9.4286" stroke-width=".55064"/>
   <path d="m111.14 1028.9 46.173-25.828 30.356 13.855-44.9 25.472z"/>
   <path d="m235.91 839.74 52.429 21.511 0.26473 33.854-53.037-22.525z"/>
  </g>
  <g fill="#000000" stroke="#000000" stroke-linecap="round" stroke-linejoin="round">
   <path d="m256.79 807.63v39.754" stroke-width=".63425"/>
   <path d="m238.65 815.14v66.154" stroke-width=".63425"/>
   <g transform="translate(316.08 30.201)">
    <path d="m-78.488 785.27-12.152 2.5798 4.1592 7.0835z" stroke-width=".99921"/>
    <path d="m-78.367 785.31-15.714 9.3066" stroke-width=".63425"/>
   </g>
   <g transform="translate(324.37 27.585)">
    <path d="m-51.394 769.93-15.714 9.3066" stroke-width=".63425"/>
    <path d="m-66.864 779.09 12.181-2.4405-4.0778-7.1306z" stroke-width=".99921"/>
   </g>
  </g>
  <g stroke-linecap="round" stroke-linejoin="round">
   <path d="m526.76 960.91c4.9822 0 9.021-17.104 9.021-38.202 0-21.099-4.0388-38.203-9.021-38.203h22.249c4.9821 0 9.021 17.104 9.021 38.203s-4.0388 38.202-9.021 38.202h-22.249z" color="#000000" fill="url(#linearGradient8200)" stroke="#a1ff00" stroke-width=".50399"/>
   <path d="m378.14 840.3c10.533 0 19.071 36.16 19.071 80.764 0 44.605-8.5832 81.121-19.116 81.121" color="#000000" fill="none" stroke="#4d4d4d" stroke-dashoffset="2.1565" stroke-width=".63425"/>
   <g stroke="#4d4d4d" stroke-width=".35079">
    <path d="m549 878.15c-5.811 0-10.504 19.94-10.504 44.548s4.6929 44.573 10.504 44.573c5.8109 0 10.529-19.965 10.529-44.573s-4.7177-44.548-10.529-44.548zm0 6.3569c4.9821 0 9.0388 17.093 9.0388 38.191 0 21.099-4.0566 38.216-9.0388 38.216s-9.0139-17.118-9.0139-38.216 4.0317-38.191 9.0139-38.191z" color="#000000" fill="url(#linearGradient9996-9-0-3)"/>
    <path d="m421.87 993.41c-9.22 0-16.694-31.653-16.694-70.698s7.4744-70.698 16.694-70.698h14.303c-9.22 0-16.694 31.653-16.694 70.698 0 39.046 7.4743 70.698 16.694 70.698h-14.303z" color="#000000" fill="url(#linearGradient9993-3-4-3)"/>
    <path d="m451.41 977.61c-1.298 1.7432-2.6804 2.6835-4.1147 2.6835-7.5098 0-13.598-25.781-13.598-57.584s6.0879-57.584 13.598-57.584c1.3623 0 2.6778 0.84844 3.9187 2.4273l-9.9388-12.176c-1.6089-2.1858-3.3242-3.3659-5.1046-3.3659-9.22 0-16.694 31.653-16.694 70.698 0 39.046 7.4743 70.698 16.694 70.698 1.7469 0 3.431-1.1361 5.0136-3.2436z" color="#000000" fill="url(#linearGradient9990-0-5-5)"/>
    <path d="m498.14 865.14c-7.5098 0-13.583 25.757-13.583 57.56s6.0732 57.585 13.583 57.585 13.608-25.782 13.608-57.585-6.098-57.56-13.608-57.56zm0 13.012c5.811 0 10.529 19.94 10.529 44.548s-4.7177 44.573-10.529 44.573c-5.8109 0-10.504-19.965-10.504-44.573s4.6929-44.548 10.504-44.548z" color="#000000" fill="url(#linearGradient9987-0-5-7)"/>
    <path d="m498.15 980.29c-7.5098 0-13.598-25.781-13.598-57.584s6.0879-57.584 13.598-57.584h-50.855c-7.5098 0-13.598 25.782-13.598 57.584 0 31.803 6.0879 57.584 13.598 57.584h50.855z" color="#000000" fill="url(#linearGradient9984-2-1-1)"/>
   </g>
   <g fill="none">
    <path d="m557.88 1002.2c-10.556 0-19.113-36.239-19.113-80.941 0-44.703 8.5573-80.941 19.113-80.941h-179.87c-10.556 0-19.113 36.239-19.113 80.941 0 44.703 8.5572 80.941 19.113 80.941z" color="#000000" stroke="#4d4d4d" stroke-width=".63425"/>
    <path d="m548.2 926.18h-8.2117" stroke="#000000" stroke-width="1.0671"/>
    <path d="m576.98 921.43c0 44.744-8.5021 80.764-19.068 80.764s-19.194-36.02-19.194-80.764 8.5652-81.017 19.131-81.017 19.131 36.272 19.131 81.017z" color="#000000" stroke="#4d4d4d" stroke-dashoffset="2.1565" stroke-width=".63425"/>
   </g>
  </g>
  <g fill="#000000" stroke="#000000" stroke-linecap="round" stroke-linejoin="round">
   <path d="m419.62 851.54-65.04-0.0631" stroke-width=".63425"/>
   <path d="m443.02 804.73h-88.154" stroke-width=".63425"/>
   <g transform="translate(-.063135 .25254)">
    <path d="m354.52 870.5v-18.259" stroke-width=".63425"/>
    <path d="m354.52 852.46-3.8501 11.812 8.2141-0.0546z" stroke-width=".99921"/>
   </g>
   <path d="m354.59 783.73v20.259" stroke-width=".63425"/>
   <path d="m354.58 803.86 4.051-11.968-8.2141 0.0546z" stroke-width=".99921"/>
  </g>
  <g stroke-linecap="round" stroke-linejoin="round">
   <g transform="translate(3.5355 -6.1263)" fill="#ff0000" stroke-width=".99921">
    <path transform="translate(0 751.18)" d="m440.43 294.36h32.388" stroke="#ff0000"/>
    <path d="m473.31 1045.5h32.388" stroke="#790000"/>
   </g>
   <g transform="matrix(-1 0 0 1 966.79 -41.143)" fill="#ff0000" stroke-width=".99921">
    <path d="m457.36 845.97h32.388" stroke="#ff0000"/>
    <path d="m490.25 845.9h32.388" stroke="#790000"/>
   </g>
   <g stroke="#4d4d4d">
    <path d="m335.08 908.91h23.343l-0.10647 35.122h-22.935z" fill="#ae0000" stroke-miterlimit="9.4286" stroke-width=".31592"/>
    <path d="m457.11 960.92v-70.768h-34.887v70.768z" fill="#ae0000" stroke-miterlimit="9.4286" stroke-width=".55064"/>
    <path d="m549.01 878.15c-5.8109 0-10.522 19.949-10.522 44.557s4.7107 44.558 10.522 44.558h-50.855c-5.8109 0-10.522-19.949-10.522-44.558 0-24.608 4.7107-44.557 10.522-44.557z" color="#000000" fill="url(#linearGradient9981-6-2-9)" stroke-width=".35079"/>
   </g>
  </g>
  <g transform="matrix(1.1079 0 0 1.1079 254.25 -349.1)">
   <g transform="translate(94.136 -17.232)" stroke="#4d4d4d" stroke-linecap="round" stroke-linejoin="round">
    <path d="m195.94 1168.1 0.0626-1.7459-21.026 0.2013c-0.0132-0.014-1.5372 1.4189-1.5372 1.4189z" fill="#000057" stroke-width=".20849"/>
    <path d="m173.41 1168 22.707 0.011v3.8074l-22.734 0.027z" fill="#000060" stroke-dashoffset="2.1565" stroke-width=".35699"/>
    <g>
     <g>
      <path d="m183.84 1142.5-3.8076 0.5176-8.4032-39.047z" fill="#2b0000" fill-rule="evenodd" stroke-width=".324"/>
      <path d="m236.64 1169.5-40.475 10.854v-20.674z" fill="#000060" stroke-width=".32203"/>
      <path d="m168.94 1143.1h4.5042v24.791h-4.5042z" fill="#570000" stroke-dashoffset="2.1565" stroke-width=".49504"/>
     </g>
     <g fill-rule="evenodd">
      <path d="m174.82 1166.7-1.0804 1.0791-0.26328-24.7 1.088-0.011z" fill="#2b0000" stroke-width=".324"/>
      <g stroke-width=".32203">
       <path d="m164.61 1161.1v17.639l-22.804-9.1241" fill="#004500"/>
       <path d="m164.61 1161.3-12.016 0.2245-10.892 7.9702 23.051-8.3023" fill="#005500"/>
       <path d="m141.68 1169.6 10.786 9.1851 12.165-0.01" fill="#001900"/>
      </g>
     </g>
     <g>
      <path d="m164.71 1168 8.7801 0.027v3.8352l-8.7801 0.072z" fill="#004500" stroke-dashoffset="2.1565" stroke-width=".32203"/>
      <path d="m236.68 1169.4 1.3576-1.1984-39.625-10.65c-0.0132-0.014-2.2515 2.0439-2.2515 2.0439z" fill="#000057" stroke-width=".32203"/>
      <path d="m179.92 1143h-19.642l11.375-39.051z" fill="#570000" stroke-width=".31398"/>
     </g>
    </g>
   </g>
  </g>
  <path d="m603.23 906.97 24.075-0.53571v12.742c0.0579 0.23243-0.10299 0.84874-0.0274 21.471l-24.047 0.40179-0.071-8.8472s-0.14119-11.239-0.0683-11.223z" fill="#ae0000" stroke="#000000" stroke-width=".285px"/>
  <g stroke-linecap="round" stroke-linejoin="round">
   <g fill="none">
    <path d="m190.25 934.04-40.097-17.494" stroke="#000000" stroke-dasharray="1.26850394, 3.80551181" stroke-width=".63425"/>
    <path d="m173.14 914.02 106.31 46.303" stroke="#4d4d4d" stroke-miterlimit="10" stroke-width=".35079"/>
    <path d="m172.72 838.18 0.016 75.369" stroke="#4d4d4d" stroke-miterlimit="10" stroke-width=".35079"/>
   </g>
   <path d="m29.929 991.08 142.74-79.737" fill="#e53fed" stroke="#4d4d4d" stroke-miterlimit="9.4286" stroke-width=".35079"/>
   <path d="m24.347 997.86 148.38-84.153" fill="none" stroke="#4d4d4d" stroke-miterlimit="8.2857" stroke-width=".35079"/>
  </g>
  <path d="m30.119 990.97 94.454 39.993-0.0549-56.644-94.705-41.692z" fill="url(#linearGradient15869)" fill-rule="evenodd" opacity=".663"/>
  <g stroke="#4d4d4d" stroke-linecap="round" stroke-linejoin="round" stroke-miterlimit="9.4286" stroke-width=".35079">
   <path d="m29.942 933.25 142.58-79.442" fill="#e53fed"/>
   <g fill="none">
    <path d="m266.75 893.75-94.127-40.012"/>
    <path d="m266.75 893.8-4e-5 57.523"/>
    <path d="m124.74 974.24 0.0499 57.006"/>
    <path d="m29.968 933.22-0.02368 57.888"/>
    <path d="m124.68 974.15-94.719-40.895"/>
    <path d="m124.77 1031.6-94.793-40.459"/>
   </g>
   <g>
    <path d="m124.69 974.16 142.03-80.372" fill="#e53fed"/>
    <path d="m266.74 951.33-93.835-40.073" fill="none"/>
    <path d="m124.92 1031.5 141.76-80.136" fill="#e53fed"/>
   </g>
  </g>
  <path d="m221.86 875.67-140.46 80.45" fill="none" stroke="#000000" stroke-dasharray="1.26850394, 3.80551181" stroke-linecap="round" stroke-linejoin="round" stroke-width=".63425"/>
  <path d="m172.66 853.75 0.27982 57.439" fill="none" stroke="#4d4d4d" stroke-linecap="round" stroke-linejoin="round" stroke-miterlimit="9.4286" stroke-width=".35079"/>
  <path d="m172.65 853.95-141.78 79.291 93.819 40.667 141.65-80.119z" fill="url(#linearGradient15854)" fill-rule="evenodd" opacity=".58923"/>
  <path d="m125.07 1031.1 141.45-79.926 0.0118-57.086-141.38 80.323z" fill="url(#linearGradient15851)" fill-rule="evenodd" opacity=".663"/>
  <g fill="none" stroke="#4d4d4d" stroke-linecap="round" stroke-linejoin="round">
   <g stroke-width=".63425">
    <path d="m279.41 883.47-106.27-45.457" stroke-miterlimit="9.4286"/>
    <path d="m24.351 921.7 0.016 76.122" stroke-miterlimit="9.2381"/>
    <path d="m279.46 883.5 0.0272 76.836" stroke-miterlimit="9.4286"/>
    <path d="m24.369 921.72 148.63-83.688" stroke-miterlimit="9.2381"/>
   </g>
   <g stroke-miterlimit="10">
    <path d="m131.19 967.53-106.86-45.82" stroke-width=".35079"/>
    <path d="m131.18 1043.6-106.83-45.76" stroke-width=".63425"/>
    <path d="m131.23 967.48-0.0313 76.146" stroke-width=".35079"/>
   </g>
   <path d="m131.21 967.52 148.23-83.991" stroke-miterlimit="8.2857" stroke-width=".35079"/>
   <path d="m131.17 1043.6 148.3-83.234" stroke-miterlimit="9.2381" stroke-width=".63425"/>
  </g>
  <g fill="#ae0000">
   <path d="m14.249 982.05 51.923 22.065 0.06211 34.057-52.125-22.369z"/>
   <path d="m226.6 983 45.571-25.554v33.449l-45.306 25.959z"/>
   <path d="m38.284 874.85 46.578-25.849-0.23441 34.326-46.004 25.276z"/>
  </g>
  <g stroke-linecap="round" stroke-linejoin="round">
   <path d="m132.06 907.69-12.41 6.1596 0.0224-16.762 7.1741-4.3905 5.3499-3.492z" fill="#52801a" fill-rule="evenodd" opacity=".99283" stroke="#4d4d4d" stroke-width=".26095"/>
   <g>
    <g stroke="#4d4d4d">
     <path d="m146.97 909.91-22.826-9.1525 3.3446-2.0128 19.874 7.7304" fill="#004b00" fill-rule="evenodd" opacity=".99283" stroke-width=".26095"/>
     <path d="m150.86 916.27-3.9772-6.2905-22.737-9.1649-0.0995 4.7502z" fill="#005500" fill-rule="evenodd" opacity=".99283" stroke-width=".26095"/>
     <path d="m164.17 888.84 15.127 5.8879-0.032 17.21-15.053-5.7058z" fill="#570000" opacity=".99283" stroke-width=".25419"/>
     <path d="m153.55 910.28c0.0148 0.26717 19.45-10.189 19.45-10.189l-3.9254-1.8688-15.679 8.5337z" fill="#520000" fill-rule="evenodd" opacity=".99283" stroke-width=".26095"/>
     <path d="m164.3 888.79 15.064 5.7885 24.283-12.136z" fill="#450000" fill-rule="evenodd" opacity=".99283" stroke-width=".26095"/>
     <path d="m89.496 885.9 42.917 3.0853-12.676 8.1369z" fill="#004b00" opacity=".99283" stroke-width=".26181"/>
     <path d="m179.48 894.57-0.15363 17.309 24.403-29.48z" fill="#2b0000" fill-rule="evenodd" opacity=".99283" stroke-width=".26095"/>
     <path d="m150.94 916.29c0.0149 0.26718 22.094-12.8 22.094-12.8l0.0282-3.3446-19.558 10.266z" fill="#380000" fill-rule="evenodd" opacity=".99283" stroke-width=".26095"/>
     <path d="m151.33 889.51 0.0831-0.0704 2.3767-1.2494-0.0843 22.214-1.1486 2.4915-1.5138 3.3688z" fill="#000038" opacity=".99283" stroke-width=".16792"/>
     <path d="m151.35 889.5-4.7712-1.9505-0.10367 21.791c-0.0113 0.0103 4.5082 7.0039 4.5082 7.0039z" fill="#000057" opacity=".99283" stroke-width=".16792"/>
     <path d="m119.56 896.84-30.079-10.917 30.187 27.919" fill="#005500" fill-rule="evenodd" opacity=".99283" stroke-width=".26095"/>
     <path d="m150.15 840.63 0.97377 48.773-14.72-5.6249z" fill="#000060" opacity=".99283" stroke-width=".25419"/>
     <path d="m150.15 840.64 13.763 41.409-12.79 7.3484-0.97344-48.747z" fill="#000042" opacity=".99283" stroke-width=".25419"/>
    </g>
    <path d="m138.93 865.23-29.836-12.285 46.701-26.208 28.517 13.214zm15.287-12.097-4.0953-12.439-4.2058 13.34 4.4152 1.212z" fill="#ae0000" stroke="#000000" stroke-width=".35433"/>
   </g>
   <g stroke="#4d4d4d" stroke-width=".35433">
    <path transform="translate(0 751.18)" d="m613.23 174.47 1.168-1.5941 7.8602 2.115-1.5784 1.3732z" fill="#000057"/>
    <path transform="translate(0 751.18)" d="m613.18 174.53 0.0474 3.8354 7.5761-2.0834z" fill="#000060"/>
   </g>
  </g>
 </g>
 <g fill="none" stroke-linecap="round" stroke-linejoin="round" stroke-width=".5085px">
  <g>
   <path d="m180.34 225.27-27.995 13.098" stroke="#f60000"/>
   <path d="m151.83 239.14-0.51367 39.039" stroke="#0000f9"/>
   <path d="m174.17 225.14 6.164 0.25684-5.1367 5.0082" stroke="#fe0000"/>
   <path d="m178.15 246.85 5.1367 5.4577-5.7788-0.0642" stroke="#00fc00"/>
   <path d="m148.81 269.38c0.25684 1.4126 2.5683 8.9892 2.5683 8.9892l1.7336-8.2829" stroke="#0000f9"/>
  </g>
  <g transform="translate(0 2.4447e-5)" stroke="#fb0000">
   <path d="m235.86 155.78-30.836-12.813"/>
   <path d="m210.46 142.4h-6.7195l5.8115 5.3574"/>
  </g>
  <g transform="translate(0 2.4447e-5)" stroke="#00f700">
   <path d="m236.33 118.69-0.25684 36.984"/>
   <path d="m234.02 125.75 2.3115-7.1913"/>
   <path d="m239.15 125.49-2.8252-6.8061"/>
  </g>
  <g>
   <path d="m98.074 172.45-0.15045-31.875" stroke="#00fc00"/>
   <path d="m66.992 160.2 30.51 12.531" stroke="#0000fd"/>
   <path d="m72.622 159.56-5.8115 0.36322 5.6299 5.4483" stroke="#0000f4"/>
   <path d="m76.512 181.8-4.9942 5.2666" stroke="#f80000"/>
   <path d="m71.771 187.05 4.8126 0.18161" stroke="#f90000"/>
   <path d="m70.01 197.48-0.36322 37.23" stroke="#00fa00"/>
   <path d="m69.479 234.98-18.931 10.716" stroke="#0000ff"/>
   <path d="m72.483 204.61-2.5425-8.1724-2.7241 7.6276" stroke="#00fa00"/>
   <path d="m206.79 217.05 24.974 10.849" stroke="#0000e5"/>
   <path d="m209 187.27-2.0885-7.9908" stroke="#00f900"/>
   <path d="m203.88 186.36 2.9966-6.9919" stroke="#00f900"/>
   <path d="m227.5 202.74h5.3575l-5.085 4.9034" stroke="#fc0000"/>
  </g>
  <g transform="translate(0 2.4447e-5)">
   <path d="m258.7 145.96 4.9934-5.4381-5.8923 0.30143" stroke="#0000fb"/>
   <path d="m236.08 155.77 27.422-15.159" stroke="#0000fa"/>
  </g>
  <g>
   <path d="m206.88 216.9 25.235-13.926" stroke="#fb0000"/>
   <path d="m206.92 179.81-0.25684 36.984" stroke="#00f700"/>
   <path d="m152.34 238.76 30.05 13.227" stroke="#00fe00"/>
   <path d="m69.748 234.85 33.388 13.869-4.0936-4.8154" stroke="#f80000"/>
   <path d="m102.86 248.64-5.085 0.72644" stroke="#f90000"/>
   <path d="m97.866 172.73-26.162 14.232" stroke="#f50000"/>
   <path d="m95.978 146.16 1.9977-5.7207 1.8161 5.7207" stroke="#00f600"/>
  </g>
 </g>
 <g transform="matrix(.74123 -.38649 .31061 .92229 -131.28 271.1)">
  <g transform="translate(1.4521 14.837)">
   <g transform="translate(-5.4296 1.5784)">
    <path d="m705.06 245.78 30.573 12.886" fill="none" stroke="#fb0000" stroke-linecap="round" stroke-linejoin="round" stroke-width=".63425"/>
   </g>
   <path d="m724.2 260.5h6.7195l-5.8115-5.3574" fill="none" stroke="#fb0000" stroke-linecap="round" stroke-linejoin="round" stroke-width=".63425"/>
  </g>
 </g>
 <g fill="none" stroke="#00f700" stroke-linecap="round" stroke-linejoin="round" stroke-width=".67085">
  <path d="m511.21 241.97-41.351-0.0559"/>
  <path d="m504.13 239.07 7.0707 2.8919"/>
  <path d="m504.35 244.84 6.7108-2.7359"/>
 </g>
 <g transform="rotate(-61.301 583.83 441.93)">
  <g>
   <path d="m681.96 255.67-4.9934 5.4381 7.4785-0.95388" fill="none" stroke="#0000fb" stroke-linecap="round" stroke-linejoin="round" stroke-width=".63425"/>
  </g>
  <path d="m704.58 245.87-27.422 15.159" fill="none" stroke="#0000fa" stroke-linecap="round" stroke-linejoin="round" stroke-width=".63425"/>
 </g>
 <g transform="rotate(-90 514.75 290.46)" fill="none" stroke="#00f700" stroke-linecap="round" stroke-linejoin="round" stroke-width=".63425">
  <path d="m704.33 282.95 0.25684-36.984"/>
  <path d="m706.64 275.88-2.3115 7.1913"/>
  <path d="m701.5 276.14 2.8252 6.8061"/>
 </g>
 <g transform="rotate(118.7 630.56 103.75)">
  <g>
   <path d="m681.96 255.67-4.9934 5.4381 7.4785-0.95388" fill="none" stroke="#0000fb" stroke-linecap="round" stroke-linejoin="round" stroke-width=".63425"/>
  </g>
  <path d="m704.58 245.87-27.422 15.159" fill="none" stroke="#0000fa" stroke-linecap="round" stroke-linejoin="round" stroke-width=".63425"/>
 </g>
 <g transform="matrix(-.71373 .3894 -.30174 -.92107 1047.7 52.566)">
  <path d="m704.84 245.76 23.624 9.9872" fill="none" stroke="#fb0000" stroke-linecap="round" stroke-linejoin="round" stroke-width=".63425"/>
 </g>
 <g fill="none" stroke-linecap="round" stroke-linejoin="round">
  <path d="m454.65 98.006-4.7959 2.6166 5.7644 2.6716" stroke="#fb0000" stroke-width=".55832"/>
  <path d="m491.92 175.01-25.351-0.0559" stroke="#00f700" stroke-width=".67085"/>
  <g transform="translate(-15.684 -.25251)" stroke="#00f700" stroke-width=".67085">
   <path d="m500.97 172.37 7.0707 2.8919"/>
   <path d="m501.18 178.13 6.7108-2.7359"/>
  </g>
 </g>
 <g transform="matrix(.87324 .48021 -.47807 .87715 -8.2404 -379.12)">
  <g>
   <path d="m681.96 255.67-4.9934 5.4381 7.4785-0.95388" fill="none" stroke="#0000fb" stroke-linecap="round" stroke-linejoin="round" stroke-width=".63425"/>
  </g>
  <path d="m688.82 254.57-11.694 6.4024" fill="none" stroke="#0000fa" stroke-linecap="round" stroke-linejoin="round" stroke-width=".63425"/>
 </g>
 <g transform="rotate(-90 489.17 167.78)">
  <g transform="matrix(-.71373 .3894 -.30174 -.92107 1059.3 102.33)">
   <path d="m704.84 245.76 23.624 9.9872" fill="none" stroke="#fb0000" stroke-linecap="round" stroke-linejoin="round" stroke-width=".63425"/>
  </g>
  <path d="m466.25 147.77-4.7959 2.6166 5.7644 2.6716" fill="none" stroke="#fb0000" stroke-linecap="round" stroke-linejoin="round" stroke-width=".55832"/>
 </g>
 <path d="m-31.412 130.3c-1.2389 0.72556-5.9023 4.3178-5.9023 4.3178l7.3688-0.84378" fill="none" stroke="#0000f9" stroke-linecap="round" stroke-linejoin="round" stroke-width=".5085px"/>
 <g transform="translate(287.44 135.55)">
  <ellipse cx="-44.92" cy="-98.798" rx="13.199" ry="13.469" fill="#1f638a" stroke-linecap="round" stroke-linejoin="round" stroke-width="1.0658"/>
  <text x="-51.39423" y="-91.055557" fill="#000000" font-family="'Arial Nova', 'Arial Unicode MS', 'Yu Gothic UI', sans-serif" font-size="12.8px" letter-spacing="0px" stroke-width="1.0667" word-spacing="0px" style="line-height:0%" xml:space="preserve"><tspan x="-51.39423" y="-91.055557" fill="#ffffff" font-family="'Arial Nova', 'Arial Unicode MS', 'Yu Gothic UI', sans-serif" font-size="21.333px" stroke="#ffffff" stroke-width="1.0667" style="line-height:1.25">1</tspan></text>
 </g>
 <g transform="translate(394.95 175.56)">
  <ellipse cx="-44.92" cy="-98.798" rx="13.199" ry="13.469" fill="#1f638a" stroke-linecap="round" stroke-linejoin="round" stroke-width="1.0658"/>
  <text x="-51.39423" y="-91.055557" fill="#000000" font-family="'Arial Nova', 'Arial Unicode MS', 'Yu Gothic UI', sans-serif" font-size="12.8px" letter-spacing="0px" stroke-width="1.0667" word-spacing="0px" style="line-height:0%" xml:space="preserve"><tspan x="-51.39423" y="-91.055557" fill="#ffffff" font-family="'Arial Nova', 'Arial Unicode MS', 'Yu Gothic UI', sans-serif" font-size="21.333px" stroke="#ffffff" stroke-width="1.0667" style="line-height:1.25">1</tspan></text>
 </g>
</svg>
