<svg version="1.1" viewBox="0 0 460.63 212.6" xmlns="http://www.w3.org/2000/svg" xmlns:xlink="http://www.w3.org/1999/xlink">
 <title>Abbildung für OPEN MIND Softwaredokumentation</title>
 <defs>
  <linearGradient id="linearGradient17780-7-4">
   <stop stop-color="#ffffff" offset="0"/>
   <stop stop-color="#00385e" offset="1"/>
  </linearGradient>
  <linearGradient id="linearGradient61898" x1="1.2041" x2="502.34" y1="108.28" y2="266.86" gradientUnits="userSpaceOnUse" xlink:href="#linearGradient17780-7-4"/>
  <linearGradient id="linearGradient61906" x1="218.65" x2="647.44" y1="106.69" y2="221.14" gradientUnits="userSpaceOnUse" xlink:href="#linearGradient17780-7-4"/>
 </defs>
 <g transform="translate(0 -839.76)" display="none">
  <g transform="translate(231.02 .30553)">
   <g fill="#e2001a" stroke="#13385e" stroke-linecap="square" stroke-miterlimit="10" stroke-width=".5608">
    <polyline transform="matrix(.5717 0 0 .5717 17.048 921.5)" points="324.74 127.82 328.87 123.88 326.18 123.88 326.26 99.235 323.3 99.236 323.3 123.88 320.7 123.88 324.74 127.82"/>
    <polyline transform="matrix(.5717 0 0 .5717 17.048 921.5)" points="324.74 167.38 328.87 163.44 326.18 163.44 326.26 138.79 323.3 138.79 323.3 163.44 320.7 163.44 324.74 167.38"/>
    <polyline transform="matrix(.5717 0 0 .5717 17.048 921.5)" points="324.74 198.01 328.87 194.07 326.18 194.07 326.26 169.42 323.3 169.42 323.3 194.07 320.7 194.07 324.74 198.01"/>
   </g>
   <g clip-rule="evenodd" fill="none" stroke="#ffdd00" stroke-width="2.4803">
    <line x1="18.065" x2="210.19" y1="973.79" y2="973.79"/>
    <line x1="18.065" x2="210.19" y1="996.98" y2="996.98"/>
    <line x1="18.597" x2="210.72" y1="978.27" y2="978.27"/>
    <line x1="18.065" x2="210.19" y1="1001.7" y2="1001.7"/>
    <line x1="18.065" x2="210.19" y1="1018.4" y2="1018.4"/>
   </g>
   <g fill="#e2001a" stroke="#13385e" stroke-linecap="square" stroke-miterlimit="10" stroke-width=".5608">
    <polyline transform="matrix(.5717 0 0 .5717 17.048 921.5)" points="324.74 29.652 328.87 25.713 326.18 25.713 326.26 1.066 323.3 1.067 323.3 25.713 320.7 25.713 324.74 29.652"/>
    <polyline transform="matrix(.5717 0 0 .5717 17.048 921.5)" points="324.74 59.32 328.87 55.381 326.18 55.381 326.26 30.734 323.3 30.735 323.3 55.381 320.7 55.381 324.74 59.32"/>
    <polyline transform="matrix(.5717 0 0 .5717 17.048 921.5)" points="324.74 89.229 328.87 85.29 326.18 85.29 326.26 60.643 323.3 60.644 323.3 85.29 320.7 85.29 324.74 89.229"/>
   </g>
   <line x1="18.065" x2="210.19" y1="938.27" y2="938.27" clip-rule="evenodd" fill="none" stroke="#ffdd00" stroke-width="2.4803"/>
   <line x1="18.065" x2="210.19" y1="956.51" y2="956.51" clip-rule="evenodd" fill="none" stroke="#ffdd00" stroke-width="2.4803"/>
   <g id="Fläche" transform="matrix(.5717 0 0 .5717 17.048 921.5)">
    <path d="m12.991 197.36 0.5-165.88h152.4v65.952c-0.463 2.284 0.857 3.292 3.497 2.997h47.966c2.418 0.077 3.926 1.237 3.998 3.5v33.475c0.438 2.362 2.022 3.505 4.498 3.496h63.955c1.794 0.604 3.115 1.842 3.498 3.497v53.961l-280.31-1" clip-rule="evenodd" fill="#99b2cc" fill-rule="evenodd" stroke="#4d4d4d" stroke-width=".5608"/>
   </g>
  </g>
  <g transform="translate(-232)">
   <g clip-rule="evenodd" fill="none" stroke="#ffdd00" stroke-width="2.4803">
    <line x1="236.44" x2="441.21" y1="973.7" y2="973.7"/>
    <line x1="237.19" x2="441.21" y1="991.84" y2="991.84"/>
    <line x1="237.19" x2="441.21" y1="1009.7" y2="1009.7"/>
    <line x1="237.19" x2="441.21" y1="1027.4" y2="1027.4"/>
    <line x1="237.19" x2="441.21" y1="937.31" y2="937.31"/>
    <line x1="237.19" x2="441.21" y1="954.72" y2="954.72"/>
   </g>
   <g fill="#e2001a" stroke="#13385e" stroke-linecap="square" stroke-miterlimit="10" stroke-width=".52988">
    <polyline transform="matrix(.60129 0 0 .60129 236.44 919.38)" points="325.89 192.95 329.93 189.09 327.3 189.09 327.38 180.82 324.48 180.82 324.48 189.09 321.94 189.09 325.89 192.95"/>
    <polyline transform="matrix(.60129 0 0 .60129 236.44 919.38)" points="325.89 180.61 329.93 176.75 327.3 176.75 327.38 151.13 324.48 151.08 324.48 176.75 321.94 176.75 325.89 180.61"/>
    <polyline transform="matrix(.60129 0 0 .60129 236.44 919.38)" points="325.89 150.61 329.93 146.75 327.3 146.75 327.38 121.2 324.48 121.2 324.48 146.75 321.94 146.75 325.89 150.61"/>
    <polyline transform="matrix(.60129 0 0 .60129 236.44 919.38)" points="325.89 120.73 329.93 116.87 327.3 116.87 327.41 90.373 324.36 90.373 324.48 116.87 321.94 116.87 325.89 120.73"/>
    <polyline transform="matrix(.60129 0 0 .60129 236.44 919.38)" points="325.89 90.065 329.93 86.207 327.3 86.207 327.41 58.795 324.36 58.871 324.48 86.207 321.94 86.207 325.89 90.065"/>
    <polyline transform="matrix(.60129 0 0 .60129 236.44 919.38)" points="325.89 58.671 329.93 54.813 327.3 54.813 327.41 29.956 324.36 29.956 324.48 54.813 321.94 54.813 325.89 58.671"/>
    <polyline transform="matrix(.60129 0 0 .60129 236.44 919.38)" points="325.66 29.758 329.71 25.901 327.08 25.901 327.12 0.125 324.25 0.125 324.25 25.901 321.71 25.901 325.66 29.758"/>
   </g>
   <path d="m244.43 1034.9v-97.69h94.408v38.841c-0.27239 1.3457 0.50508 1.9386 2.0594 1.7654h28.248c1.4244 0.0451 2.3132 0.72816 2.3552 2.0612v19.714c0.25675 1.3908 1.19 2.0642 2.6481 2.0594h37.665c1.0559 0.3554 1.8345 1.0847 2.0606 2.0594v31.779l-169.44-0.5904h4.3648" clip-rule="evenodd" fill="#99b2cc" fill-rule="evenodd" stroke="#4d4d4d" stroke-width=".31861"/>
  </g>
  <g transform="translate(-206.02 708.57)" display="inline">
   <path transform="translate(269.1 6.667)" d="m53.538 184.28c0 6.9736-5.5402 12.627-12.374 12.627s-12.374-5.6533-12.374-12.627 5.5402-12.627 12.374-12.627 12.374 5.6532 12.374 12.627z" fill="#1f638a" stroke-linecap="round" stroke-linejoin="round" stroke-width=".99921"/>
   <text x="304.79178" y="198.12996" fill="#000000" font-family="sans-serif" letter-spacing="0px" word-spacing="0px" style="line-height:0%" xml:space="preserve"><tspan x="304.79178" y="198.12996" fill="#ffffff" font-family="sans-serif" font-size="20px" font-weight="bold" style="line-height:1.25">1</tspan></text>
  </g>
  <g transform="translate(128.78 607.82)" display="inline">
   <path transform="translate(174.86 107.48)" d="m53.538 184.28c0 6.9736-5.5402 12.627-12.374 12.627s-12.374-5.6533-12.374-12.627 5.5402-12.627 12.374-12.627 12.374 5.6532 12.374 12.627z" fill="#1f638a" stroke-linecap="round" stroke-linejoin="round" stroke-width=".99921"/>
   <text x="210.79456" y="298.94318" fill="#000000" font-family="sans-serif" letter-spacing="0px" word-spacing="0px" style="line-height:0%" xml:space="preserve"><tspan x="210.79456" y="298.94318" fill="#ffffff" font-family="sans-serif" font-size="20px" font-weight="bold" style="line-height:1.25">2</tspan></text>
  </g>
 </g>
 <g transform="translate(0 17.717)">
  <g clip-rule="evenodd" stroke-linecap="round" stroke-linejoin="round">
   <g fill="none" stroke="#d4aa00">
    <line x1="14.364" x2="218.61" y1="89.98" y2="89.98" stroke-width="3.5433"/>
    <line x1="15.181" x2="219.43" y1="120.66" y2="120.66" stroke-width="3.5433"/>
    <line x1="15.181" x2="219.43" y1="59.752" y2="59.752" stroke-width="3.5433"/>
    <line x1="15.358" x2="219.61" y1="151.13" y2="151.13" stroke-width="3.5433"/>
   </g>
   <path d="m21.958 177.49 0.30221-117.89h92.111v46.87c-0.27985 1.6232 0.518 2.3395 2.1137 2.1299h28.992c1.4615 0.0547 2.373 0.87911 2.4165 2.4874v23.79c0.26474 1.6786 1.2222 2.4909 2.7187 2.4845h38.656c1.0843 0.42924 1.8828 1.3091 2.1143 2.4852v38.349l-169.42-0.71067" fill="url(#linearGradient61898)" fill-rule="evenodd" stroke="#4d4d4d" stroke-width=".63425"/>
  </g>
  <path d="m236.57 133.92c-0.6545 2.3e-4 -1.25 0.59551-1.25 1.25 0 0.6545 0.5955 1.2502 1.25 1.25l205.74-0.0722c0.6545-2.3e-4 1.25-0.5955 1.25-1.25s-0.5955-1.2502-1.25-1.25z" color="#000000" fill="#ffcc00" style="block-progression:tb;text-indent:0;text-transform:none"/>
  <g fill="none" stroke-linecap="round" stroke-linejoin="round">
   <path d="m236.5 106.34h205.48" stroke="#ffcc00" stroke-width="2.4803"/>
   <line x1="237.24" x2="441.49" y1="121.08" y2="121.08" clip-rule="evenodd" stroke="#d4aa00" stroke-width="3.5433"/>
   <path d="m237.03 150.9 203.6-0.0722" stroke="#d4aa00" stroke-width="3.5433"/>
  </g>
  <g clip-rule="evenodd" stroke-linecap="round" stroke-linejoin="round">
   <line x1="237.12" x2="441.37" y1="59.957" y2="59.957" fill="none" stroke="#d4aa00" stroke-width="3.5433"/>
   <line x1="237.24" x2="441.49" y1="90.219" y2="90.219" fill="none" stroke="#d4aa00" stroke-width="3.5433"/>
   <path d="m244.31 176.72 0.30222-117.89h92.111v46.87c-0.27985 1.6232 0.51799 2.3396 2.1137 2.1299h28.992c1.4615 0.0547 2.373 0.8791 2.4165 2.4874v23.79c0.26473 1.6786 1.2221 2.4909 2.7187 2.4845h38.656c1.0843 0.42924 1.8828 1.3091 2.1143 2.4852v38.349l-169.42-0.71068" fill="url(#linearGradient61906)" fill-rule="evenodd" stroke="#4d4d4d" stroke-width=".63425"/>
  </g>
  <g fill="#d4aa00" stroke="#000000" stroke-linecap="square" stroke-miterlimit="10" stroke-width=".63425">
   <path d="m210.19 87.987 8.809-8.4206h-5.7355v-17.307h-6.145v17.307h-5.5307l8.6023 8.4206"/>
   <path d="m209.99 118.23 8.809-8.4206h-5.7355v-17.307h-6.145v17.307h-5.5307l8.6023 8.4206"/>
   <path d="m210.19 149.3 8.809-8.4206h-5.7355v-17.307h-6.145v17.307h-5.5307l8.6023 8.4206"/>
   <path d="m430.06 88.074 8.809-8.4206h-5.7355v-17.307h-6.145v17.307h-5.5307l8.6023 8.4206"/>
   <path d="m430.14 105.31 8.809-8.4206h-5.7355v-5.3073h-6.145v5.3073h-5.5307l8.6023 8.4206"/>
   <path d="m429.95 119.66 8.809-8.4206h-5.7355l0.14451-3.1397h-6.145l-0.14451 3.1397h-5.5307l8.6023 8.4206"/>
   <path d="m430.1 148.86 8.809-8.4206h-5.7355l-0.14451-3.8622h-6.0005v3.8622h-5.5307l8.6023 8.4206"/>
   <path d="m429.81 134.33 8.809-8.4206h-5.7355l0.14451-3.1397h-6.145l-0.14451 3.1397h-5.5307l8.6023 8.4206"/>
  </g>
  <g transform="translate(153.98 119.63)">
   <ellipse cx="-44.92" cy="-98.798" rx="13.199" ry="13.469" fill="#1f638a" stroke-linecap="round" stroke-linejoin="round" stroke-width="1.0658"/>
   <text x="-51.39423" y="-91.055557" fill="#000000" font-family="'Arial Nova', 'Arial Unicode MS', 'Yu Gothic UI', sans-serif" font-size="12.8px" letter-spacing="0px" stroke-width="1.0667" word-spacing="0px" style="line-height:0%" xml:space="preserve"><tspan x="-51.39423" y="-91.055557" fill="#ffffff" font-family="'Arial Nova', 'Arial Unicode MS', 'Yu Gothic UI', sans-serif" font-size="21.333px" stroke="#ffffff" stroke-width="1.0667" style="line-height:1.25">1</tspan></text>
  </g>
  <g transform="translate(337.32 119.41)">
   <ellipse cx="-13.718" cy="-98.798" rx="13.199" ry="13.469" fill="#1f638a" stroke-linecap="round" stroke-linejoin="round" stroke-width="1.0658"/>
   <text x="-19.559933" y="-91.125885" fill="#000000" font-family="'Arial Nova', 'Arial Unicode MS', 'Yu Gothic UI', sans-serif" font-size="12.8px" letter-spacing="0px" stroke-width="1.0667" word-spacing="0px" style="line-height:0%" xml:space="preserve"><tspan x="-19.559933" y="-91.125885" fill="#ffffff" font-family="'Arial Nova', 'Arial Unicode MS', 'Yu Gothic UI', sans-serif" font-size="21.333px" stroke="#ffffff" stroke-width="1.0667" style="line-height:1.25">2</tspan></text>
  </g>
 </g>
</svg>
