<svg version="1.1" viewBox="0 0 460.63 248.03" xmlns="http://www.w3.org/2000/svg" xmlns:xlink="http://www.w3.org/1999/xlink">
 <defs>
  <linearGradient id="linearGradient12887" x1="396.17" x2="792.82" y1="969.53" y2="969.72" gradientTransform="matrix(1.6322 0 0 1.419 -375.7 -371.79)" gradientUnits="userSpaceOnUse">
   <stop stop-color="#ffffff" offset="0"/>
   <stop stop-color="#00385e" offset="1"/>
  </linearGradient>
  <linearGradient id="linearGradient4098-5-6-2-9" x1="1563.5" x2="1060.2" y1="798.92" y2="1153.5" gradientTransform="matrix(.43495 0 0 .43479 -479.51 562.01)" gradientUnits="userSpaceOnUse" xlink:href="#linearGradient3203-88-2-2-8-4"/>
  <linearGradient id="linearGradient3203-88-2-2-8-4">
   <stop stop-color="#ffffff" offset="0"/>
   <stop stop-color="#00385e" offset="1"/>
  </linearGradient>
  <linearGradient id="linearGradient4095-8-1-2-3" x1="1847.5" x2="-2459.1" y1="1127.5" y2="982.58" gradientTransform="matrix(.43495 0 0 .43479 -479.71 561.76)" gradientUnits="userSpaceOnUse" xlink:href="#linearGradient3203-88-2-2-8-4"/>
  <linearGradient id="linearGradient8517-0-2-3-9-2-8-2" x1="54.983" x2="54.983" y1="34.986" y2="34.986" gradientUnits="userSpaceOnUse">
   <stop stop-color="#FFFFFF" offset="0"/>
   <stop stop-color="#FCFCFC" offset=".2264"/>
   <stop stop-color="#F4F4F4" offset=".3626"/>
   <stop stop-color="#E6E6E6" offset=".475"/>
   <stop stop-color="#D1D1D1" offset=".5744"/>
   <stop stop-color="#B7B7B7" offset=".6652"/>
   <stop stop-color="#979797" offset=".7498"/>
   <stop stop-color="#707070" offset=".8297"/>
   <stop stop-color="#444444" offset=".9057"/>
   <stop stop-color="#121212" offset=".9761"/>
   <stop stop-color="#000000" offset="1"/>
  </linearGradient>
  <linearGradient id="linearGradient7448" x1="1361.6" x2="1046.3" y1="862.76" y2="1077.2" gradientTransform="matrix(.43495 0 0 .43479 -411.2 566.46)" gradientUnits="userSpaceOnUse">
   <stop stop-color="#ffffff" offset="0"/>
   <stop stop-color="#00385e" offset="1"/>
  </linearGradient>
  <linearGradient id="linearGradient7414" x1="514.17" x2="752.71" y1="702.31" y2="546.48" gradientTransform="matrix(-.51436 0 0 -.51418 419.57 1276.8)" gradientUnits="userSpaceOnUse">
   <stop stop-color="#ffffff" offset="0"/>
   <stop stop-color="#00385e" offset="1"/>
  </linearGradient>
  <linearGradient id="linearGradient6862" x1="1326.2" x2="644.16" y1="791.23" y2="1162.7" gradientTransform="matrix(.43495 0 0 .43479 -411.62 565.94)" gradientUnits="userSpaceOnUse">
   <stop stop-color="#ffffff" offset="0"/>
   <stop stop-color="#00385e" offset="1"/>
  </linearGradient>
  <linearGradient id="linearGradient4089-1-0-0-6" x1="1343.1" x2="1092.8" y1="877.86" y2="1049.3" gradientTransform="matrix(.43495 0 0 .43479 -479.51 562.01)" gradientUnits="userSpaceOnUse" xlink:href="#linearGradient3203-88-2-2-8-4"/>
  <linearGradient id="linearGradient4092-2-7-9-8" x1="1550" x2="1214.1" y1="942.21" y2="1118.8" gradientTransform="matrix(.43495 0 0 .43479 -420.55 565.9)" gradientUnits="userSpaceOnUse" xlink:href="#linearGradient3203-88-2-2-8-4"/>
  <linearGradient id="linearGradient4101-7-5-8-8" x1="1291.7" x2="685.93" y1="808.52" y2="1192.2" gradientTransform="matrix(.43495 0 0 .43479 -479.51 562.01)" gradientUnits="userSpaceOnUse" xlink:href="#linearGradient3203-88-2-2-8-4"/>
  <linearGradient id="linearGradient4585" x1="534.67" x2="791.98" y1="703.91" y2="511.51" gradientTransform="matrix(-.51436 0 0 -.51418 351.56 1272.8)" gradientUnits="userSpaceOnUse">
   <stop stop-color="#ffffff" offset="0"/>
   <stop stop-color="#00385e" offset="1"/>
  </linearGradient>
  <radialGradient id="radialGradient7189" cx="413.94" cy="230.95" r="6.0405" gradientTransform="matrix(3.6396 0 0 3.2851 -1159 185.71)" gradientUnits="userSpaceOnUse">
   <stop stop-color="#f8f8f8" offset="0"/>
   <stop stop-color="#F4F4F4" offset=".3626"/>
   <stop stop-color="#E6E6E6" offset=".475"/>
   <stop stop-color="#D1D1D1" offset=".5744"/>
   <stop stop-color="#B7B7B7" offset=".6652"/>
   <stop stop-color="#979797" offset=".7498"/>
   <stop stop-color="#707070" offset=".8297"/>
   <stop stop-color="#444444" offset=".9057"/>
   <stop stop-color="#121212" offset=".9761"/>
   <stop stop-color="#000000" offset="1"/>
  </radialGradient>
  <linearGradient id="linearGradient7191" x1="103.96" x2="122.68" y1="339.4" y2="339.61" gradientTransform="matrix(.70801 .0011016 -.0023888 .20554 274.64 825.3)" gradientUnits="userSpaceOnUse">
   <stop stop-color="#FFFFFF" offset="0"/>
   <stop stop-color="#FCFCFC" offset=".2264"/>
   <stop stop-color="#F4F4F4" offset=".3626"/>
   <stop stop-color="#E6E6E6" offset=".475"/>
   <stop stop-color="#D1D1D1" offset=".5744"/>
   <stop stop-color="#B7B7B7" offset=".6652"/>
   <stop stop-color="#979797" offset=".7498"/>
   <stop stop-color="#707070" offset=".81114"/>
   <stop stop-color="#444444" offset=".86548"/>
   <stop stop-color="#121212" offset=".9761"/>
   <stop stop-color="#000000" offset="1"/>
  </linearGradient>
  <radialGradient id="radialGradient7311" cx="413.94" cy="230.95" r="6.0405" gradientTransform="matrix(1.3394 0 0 1.2089 -488.13 684.27)" gradientUnits="userSpaceOnUse">
   <stop stop-color="#f8f8f8" offset="0"/>
   <stop stop-color="#F4F4F4" offset=".3626"/>
   <stop stop-color="#E6E6E6" offset=".475"/>
   <stop stop-color="#D1D1D1" offset=".5744"/>
   <stop stop-color="#B7B7B7" offset=".6652"/>
   <stop stop-color="#979797" offset=".7498"/>
   <stop stop-color="#707070" offset=".8297"/>
   <stop stop-color="#444444" offset=".9057"/>
   <stop stop-color="#121212" offset=".9761"/>
   <stop stop-color="#000000" offset="1"/>
  </radialGradient>
  <linearGradient id="linearGradient7314" x1="103.96" x2="120.63" y1="339.4" y2="339.31" gradientTransform="matrix(.24629 .001257 -.00083094 .23453 40.663 900.51)" gradientUnits="userSpaceOnUse">
   <stop stop-color="#FFFFFF" offset="0"/>
   <stop stop-color="#FCFCFC" offset=".2264"/>
   <stop stop-color="#F4F4F4" offset=".3626"/>
   <stop stop-color="#E6E6E6" offset=".475"/>
   <stop stop-color="#D1D1D1" offset=".5744"/>
   <stop stop-color="#B7B7B7" offset=".6652"/>
   <stop stop-color="#979797" offset=".7498"/>
   <stop stop-color="#707070" offset=".81114"/>
   <stop stop-color="#444444" offset=".86548"/>
   <stop stop-color="#121212" offset=".9761"/>
   <stop stop-color="#000000" offset="1"/>
  </linearGradient>
  <linearGradient id="linearGradient7317" x1="559.15" x2="573.22" y1="-40.896" y2="-40.539" gradientTransform="matrix(.98632 0 0 .98632 -485.86 855.67)" gradientUnits="userSpaceOnUse" xlink:href="#linearGradient8517-0-2-3-9-2-8-2"/>
  <linearGradient id="linearGradient7320" x1="559.24" x2="567.73" y1="32.557" y2="34.578" gradientTransform="matrix(.98632 0 0 .98632 -485.84 855.68)" gradientUnits="userSpaceOnUse" xlink:href="#linearGradient8517-0-2-3-9-2-8-2"/>
 </defs>
 <g transform="translate(0 -804.33)">
  <g stroke-linecap="round" stroke-linejoin="round">
   <g>
    <path d="m434.21 1047.7h-162.76v-135.85h54.41v78.124h108.35" fill="url(#linearGradient12887)" fill-rule="evenodd" stroke="#4d4d4d" stroke-width=".63425"/>
    <path d="m346.54 965.46h19.269" fill="#f38100" stroke="#ffcc00" stroke-width="2.8346"/>
    <path d="m327.7 913.2h98.037" fill="#f38100" stroke="#10eb00" stroke-width="2.8346"/>
   </g>
   <g stroke-width=".63425">
    <path d="m345.16 1001.6 0.0288-53.136" fill="none" stroke="#000000"/>
    <g stroke="#4d4d4d">
     <path d="m81.448 966.37 0.0102-34.943-38.879 24.735 0.31017 35.45z" fill="url(#linearGradient4585)"/>
     <path d="m8.3823 954.09 38.32-24.536 34.743 1.8634-38.852 24.797z" fill="url(#linearGradient4101-7-5-8-8)"/>
     <path d="m181.89 964.92 39.088-25.952-0.0316 83.143-38.093 24.358z" fill="url(#linearGradient4092-2-7-9-8)"/>
     <path d="m81.449 966.36 11.712 0.53133-0.13901 27.87-50.062-3.133z" fill="url(#linearGradient4089-1-0-0-6)"/>
     <path d="m93.193 959.84 38.625-24.911 17.515 0.5552-38.108 25.097z" fill="url(#linearGradient6862)"/>
    </g>
    <path d="m111.21 995.92-0.0893-35.296-17.942-0.72921-0.17856 34.861" fill="none" stroke="#4d4d4d"/>
   </g>
   <g>
    <path d="m149.34 970.42v-34.936l-38.241 25.184-7e-3 35.267z" fill="url(#linearGradient7414)" stroke="#4d4d4d" stroke-width=".63425"/>
    <path d="m149.29 970.59 5.8068 0.32603 0.25727 27.853-44.259-2.8173z" fill="url(#linearGradient7448)" stroke="#4d4d4d" stroke-width=".63425"/>
    <path d="m60.19 946.83 109.57 6.2838" fill="#02fc00" stroke="#04d400" stroke-width="1.063"/>
    <path d="m56.983 967.97 9.0002 0.57846" fill="#f38100" stroke="#ffcc00" stroke-width="1.3429"/>
    <path d="m93.181 959.87 17.943 0.71672-0.0315 35.386 44.3 2.8021-0.31681-35.107 26.854 1.0837 0.97495 81.731-174.23-11.016-0.23425-81.361 34.288 2.0109 0.2841 35.352 50.023 3.2372z" fill="url(#linearGradient4095-8-1-2-3)" stroke="#4d4d4d" stroke-width=".634"/>
    <path d="m155.04 963.68 37.678-25.59 28.223 0.87151-39.112 25.989z" fill="url(#linearGradient4098-5-6-2-9)" stroke="#4d4d4d" stroke-width=".63425"/>
   </g>
  </g>
  <g transform="translate(18.257 22.236)">
   <g>
    <path d="m91.122 923.98c0.20785 0.12471 11.473 7.7734 11.473 7.7734" fill="none" stroke="#ff00ff" stroke-linecap="round" stroke-linejoin="round" stroke-width=".99213"/>
   </g>
   <g transform="matrix(.67699 0 0 .67699 51.211 337.18)" fill="none" stroke="#ff00ff" stroke-linecap="round" stroke-linejoin="round" stroke-width="1.4655">
    <path d="m64.515 864.73c0 0.49122 5.9051 15.631 5.9051 15.631"/>
    <path d="m69.051 866.81-3.0752 11.465"/>
    <path d="m59.752 879.6 15.78-14.245"/>
   </g>
  </g>
  <g transform="translate(109.16 15.496)">
   <g stroke="#000000">
    <text x="116.60601" y="897.67432" fill="#000000" font-family="'Arial Nova', 'Arial Unicode MS', 'Yu Gothic UI', sans-serif" letter-spacing="0px" word-spacing="0px" style="line-height:0%" xml:space="preserve"><tspan x="116.60601" y="897.67432" fill="#ff0000" font-family="'Arial Nova', 'Arial Unicode MS', 'Yu Gothic UI', sans-serif" font-size="10px" stroke="#000000" style="line-height:1.25">Z</tspan></text>
    <text x="136.24078" y="919.89984" fill="#000000" font-family="'Arial Nova', 'Arial Unicode MS', 'Yu Gothic UI', sans-serif" letter-spacing="0px" word-spacing="0px" style="line-height:0%" xml:space="preserve"><tspan x="136.24078" y="919.89984" fill="#ff0000" font-family="'Arial Nova', 'Arial Unicode MS', 'Yu Gothic UI', sans-serif" font-size="10px" stroke="#000000" style="line-height:1.25">X</tspan></text>
    <g transform="translate(-410.7 -8.8514)" stroke-linecap="round" stroke-linejoin="round" stroke-width=".70866">
     <path d="m522.28 905.38 0.11958 27.151" fill="#800080"/>
     <path d="m522.31 898.85 3.4666 14.35h-6.9332c1.228-7.2721 3.4666-14.35 3.4666-14.35z" fill="#ffffff"/>
    </g>
    <g transform="matrix(.99921 .03964 -.03964 .99921 -168.17 19.28)" stroke-linecap="round" stroke-linejoin="round" stroke-width=".70866">
     <path d="m338.15 892.54-22.523-0.0967" fill="#800080"/>
     <path d="m346.21 892.56-14.355 3.4439 0.011-6.9332z" fill="#ffffff"/>
    </g>
   </g>
   <g transform="translate(-152.61 1112.7)">
    <path transform="matrix(.9071 0 0 .90186 24.872 -1.1139)" d="m267.68-208.61c0 2.1113-1.7016 3.8228-3.8007 3.8228s-3.8007-1.7115-3.8007-3.8228 1.7016-3.8228 3.8007-3.8228 3.8007 1.7115 3.8007 3.8228z" color="#000000" fill="#ffffff" stroke="#000000" stroke-linecap="round" stroke-linejoin="round" stroke-width=".7835"/>
    <path transform="matrix(.81605 0 0 .73445 48.612 -50.299)" d="m264.67-189.2c0 0.26645-0.1944 0.48245-0.4342 0.48245-0.23981 0-0.4342-0.216-0.4342-0.48245s0.19439-0.48244 0.4342-0.48244c0.2398 0 0.4342 0.21599 0.4342 0.48244z" color="#000000" fill="#000000"/>
   </g>
  </g>
  <g transform="matrix(-1.1187 -.062754 .062754 -1.1187 477.08 2100.5)" fill="none" stroke-linecap="round" stroke-linejoin="round" stroke-width=".89251px">
   <path d="m431.39 994.98 6.3848 0.0561" stroke="#0000f3"/>
   <path d="m437.79 995.11-2.568 2.5796" stroke="#0000f8"/>
   <path d="m437.72 994.96-2.5796-2.568" stroke="#0000f8"/>
  </g>
  <g transform="matrix(1.1187 .062754 -.062754 1.1187 -266.66 -173.15)">
   <path d="m428.71 994.99 3.617 0.0138" fill="none" stroke="#0000f3" stroke-linecap="round" stroke-linejoin="round" stroke-width=".89251px"/>
  </g>
  <path d="m137.77 974.55 9.0002 0.57846" fill="#f38100" stroke="#ffcc00" stroke-linecap="round" stroke-linejoin="round" stroke-width="1.3429"/>
  <g fill="none" stroke-linecap="round" stroke-linejoin="round">
   <g stroke-width="2.8346">
    <path d="m344.42 947.12h-16.988" stroke="#0000f3"/>
    <path d="m327.36 947.38 4.4293 5.055" stroke="#0000f8"/>
    <path d="m331.71 942.06-4.4293 5.055" stroke="#0000f8"/>
   </g>
   <path d="m325.87 1001.6-0.0381-11.234" stroke="#000000" stroke-width=".63425"/>
  </g>
  <g transform="translate(0,108)">
   <g transform="translate(24.028 27.528)" fill="#000000" stroke="#000000" stroke-linecap="round" stroke-linejoin="round">
    <path d="m300.91 866.73-11.786-3.9286v8.2143z" stroke-width=".99921"/>
    <path d="m300.14 866.7h-16.248" stroke-width=".63425"/>
   </g>
   <g>
    <g transform="matrix(-1 0 0 -1 647.05 1760.9)">
     <path d="m300.91 866.73-11.786-3.9286v8.2143z" fill="#000000" stroke="#000000" stroke-linecap="round" stroke-linejoin="round" stroke-width=".99921"/>
    </g>
    <path d="m362.32 894.16h-16.248" fill="#000000" stroke="#000000" stroke-linecap="round" stroke-linejoin="round" stroke-width=".63425"/>
   </g>
  </g>
  <g stroke-linecap="round" stroke-linejoin="round">
   <path d="m366.22 846.06v119.2" fill="#f38100" stroke="#fc0200" stroke-width="2.8346"/>
   <path d="m137.85 974.6 0.26159-57.519-71.83-4.7278-0.1449 56.323" fill="none" stroke="#fc0200" stroke-width="1.3429"/>
   <path d="m179.31 892.1-38.422 25.101-85.774-5.5376 38.767-25.075 85.429 5.2036z" color="#000000" fill="#c37575" fill-opacity=".73967" stroke="#ff2628" stroke-width=".70866"/>
  </g>
  <g opacity=".75986">
   <path d="m53.374 821.96c9.3647-4.3079 16.894-3.1701 23.739 0v0" fill="none" stroke="#464646" stroke-linecap="round" stroke-linejoin="round" stroke-width=".63425"/>
   <g>
    <g stroke-linecap="round" stroke-linejoin="round" stroke-width=".63425">
     <g>
      <path d="m62.472 904.42-8.3625-33.223c4.4909 4.6645 18.379 4.9135 23.129 0l-7.622 33.066" fill="url(#linearGradient7320)" stroke="#464646"/>
      <path d="m53.448 822.57c3.4631 3.8572 19.704 4.0155 23.997 0l-0.2575 48.614c-2.9571 4.5153-19.128 4.908-23.095 0z" fill="url(#linearGradient7317)" stroke="#464646"/>
      <path d="m62.376 904.2c2.1608 0.94474 4.7589 1.0557 7.1874 0l0.17816 52.427-7.2185-0.0363z" fill="url(#linearGradient7314)" stroke="#000000" stroke-miterlimit="10"/>
     </g>
     <path d="m73.957 963.09c-0.01429 4.0316-3.4579 7.2823-7.6916 7.2607-4.2336-0.0216-7.6541-3.3074-7.6398-7.3388 0.0091-2.7854 1.6566-5.1981 4.0698-6.4163l7.2096 0.0227c2.4197 1.2384 4.0619 3.6757 4.052 6.4718z" color="#000000" fill="url(#radialGradient7311)" fill-rule="evenodd" stroke="#000000" stroke-miterlimit="10"/>
    </g>
    <path d="m77.064 822.43c-3.2588 1.9092-5.5615 2.4896-11.735 2.6862-6.3721-0.254-8.5632-0.72444-11.493-2.7235 2.5263-1.1171 5.4498-2.4099 11.583-2.679 5.9313 0.12195 9.5229 1.7936 11.646 2.7163z" fill="#fdfdfd"/>
   </g>
   <path d="m58.678 963.22c5.8174 1.8727 9.2365 1.7814 15.3-0.0477" fill="none" stroke="#000000" stroke-dasharray="1.41732297000000010, 0.70866149000000001, 0.35433072999999998, 0.70866149000000001" stroke-linecap="round" stroke-linejoin="round" stroke-width=".35433"/>
   <path d="m66.18 813.19-0.0211 157.32" fill="none" stroke="#000000" stroke-dasharray="1.41732291999999990, 0.70866147000000002, 0.35433072999999998, 0.70866147000000002" stroke-linecap="round" stroke-linejoin="round" stroke-width=".35433"/>
  </g>
  <g transform="translate(19.464 2.1429)" opacity=".63799" stroke="#000000" stroke-linecap="round" stroke-linejoin="round">
   <path d="m357.72 864.53 0.51218 61.068-20.751-0.0305-0.42266-61.037" fill="url(#linearGradient7191)" stroke-miterlimit="10" stroke-width=".63425"/>
   <path d="m368.39 943.35c-0.0389 10.955-9.3965 19.789-20.901 19.73-11.504-0.0586-20.799-8.9875-20.76-19.943 0.0255-7.5688 4.5016-14.125 11.059-17.436l19.591 0.0615c6.5753 3.3655 11.038 9.9887 11.011 17.587z" color="#000000" fill="url(#radialGradient7189)" fill-rule="evenodd" opacity=".764" stroke-miterlimit="10" stroke-width=".63425"/>
   <g transform="matrix(3.6396 0 0 3.6396 -98.988 83.097)" fill="none" stroke-dasharray="0.69705466, 0.34852733, 0.17426367, 0.34852733" stroke-width=".17426">
    <path d="m117.05 236.69c4.3433 1.3982 6.6754 1.3545 11.202-0.0111" opacity=".764"/>
    <path d="m122.51 213.94v27.859" opacity=".764"/>
   </g>
  </g>
  <g transform="translate(380.8 1120.8)">
   <ellipse cx="-44.92" cy="-98.798" rx="13.199" ry="13.469" fill="#1f638a" stroke-linecap="round" stroke-linejoin="round" stroke-width="1.0658"/>
   <text x="-50.761276" y="-91.125885" fill="#000000" letter-spacing="0px" word-spacing="0px" style="line-height:0%" xml:space="preserve"><tspan x="-50.761276" y="-91.125885" fill="#ffffff" font-family="'Arial Nova', 'Arial Unicode MS', 'Yu Gothic UI', sans-serif" font-size="20px" stroke="#ffffff" stroke-width="1.0667" style="line-height:1.25">1</tspan></text>
  </g>
 </g>
</svg>
