<?xml version="1.0" encoding="UTF-8"?>
<svg version="1.1" viewBox="0 0 680.31 188.98" xmlns="http://www.w3.org/2000/svg">
 <defs>
  <linearGradient id="g" x1="289.14" x2="488.4" y1="198.91" y2="301.84" gradientTransform="matrix(.94012 0 0 -.94012 -129.79 251.21)" gradientUnits="userSpaceOnUse">
   <stop stop-color="#ffffff" offset="0"/>
   <stop stop-color="#00385e" offset="1"/>
  </linearGradient>
  <linearGradient id="f" x1="309.56" x2="517.28" y1="209.61" y2="252.14" gradientTransform="matrix(.94012 0 0 -.94012 -129.79 251.21)" gradientUnits="userSpaceOnUse">
   <stop stop-color="#ffffff" offset="0"/>
   <stop stop-color="#00385e" offset="1"/>
  </linearGradient>
  <linearGradient id="e" x1="343.17" x2="597.89" y1="162.95" y2="299.63" gradientTransform="matrix(.94012 0 0 -.94012 -129.79 251.21)" gradientUnits="userSpaceOnUse">
   <stop stop-color="#ffffff" offset="0"/>
   <stop stop-color="#00385e" offset="1"/>
  </linearGradient>
  <linearGradient id="d" x1="324.38" x2="574.95" y1="190.73" y2="259.22" gradientTransform="matrix(.94012 0 0 -.94012 -129.79 251.21)" gradientUnits="userSpaceOnUse">
   <stop stop-color="#ffffff" offset="0"/>
   <stop stop-color="#00385e" offset="1"/>
  </linearGradient>
  <linearGradient id="c" x1="300.91" x2="444.91" y1="162.8" y2="196.14" gradientTransform="matrix(.94012 0 0 -.94012 -129.81 251.12)" gradientUnits="userSpaceOnUse">
   <stop stop-color="#ffffff" offset="0"/>
   <stop stop-color="#00385e" offset="1"/>
  </linearGradient>
  <linearGradient id="b" x1="-55.491" x2="329.63" y1="37.855" y2="40.39" gradientTransform="matrix(1.0922 0 0 -1.1399 23.359 101.93)" gradientUnits="userSpaceOnUse">
   <stop stop-color="#ffffff" offset="0"/>
   <stop stop-color="#00385e" offset="1"/>
  </linearGradient>
  <linearGradient id="a" x1="-15.555" x2="359.51" y1="3.7389" y2="113.02" gradientTransform="matrix(1.0324 0 0 -1.0934 322.85 101.97)" gradientUnits="userSpaceOnUse">
   <stop stop-color="#ffffff" offset="0"/>
   <stop stop-color="#00385e" offset="1"/>
  </linearGradient>
 </defs>
 <g transform="matrix(1.3333 0 0 1.3333 0 7.3911e-6)">
  <g>
   <g>
    <g>
     <path d="m161.49 104.28v-51.734l52.063 32.133-0.082 50.617z" fill="url(#g)" stroke="#4d4d4d" stroke-linecap="round" stroke-linejoin="round" stroke-width=".5074"/>
    </g>
   </g>
   <g>
    <g>
     <path d="m301.88 60.215v50.137l-88.391 25.07 0.063-50.746-52.063-32.133 0.16-12.684 106.13-0.121z" fill="url(#f)" stroke="#4d4d4d" stroke-linecap="round" stroke-linejoin="round" stroke-width=".50775"/>
    </g>
   </g>
   <g>
    <path d="m290.7 63.531v23.512" fill="none" stroke="#4d4d4d" stroke-width=".2"/>
   </g>
   <g>
    <path d="m213.55 84.645 12.445-3.977" fill="none" stroke="#4d4d4d" stroke-width=".5074"/>
   </g>
   <g>
    <path d="m290.7 63.531 11.168-3.316" fill="none" stroke="#4d4d4d" stroke-width=".5074"/>
   </g>
   <g>
    <g>
     <path d="m290.68 87.008v-23.477l-40.426-23.726-31.926-0.086-0.121 4.777z" fill="url(#e)" stroke="#4d4d4d" stroke-width=".2"/>
    </g>
   </g>
   <g>
    <g>
     <path d="m290.68 86.969-64.68 19.375v-25.656l-64.324-39.012-0.028-1.817 56.68-0.14-0.055 4.672z" fill="url(#d)" stroke="#4d4d4d" stroke-width=".5074"/>
    </g>
   </g>
   <g>
    <g>
     <path d="m218.31 44.574-36.211 9.422-20.442-12.23-0.027-1.817 56.68-0.14z" fill="url(#c)" stroke="#4d4d4d" stroke-width=".5074"/>
    </g>
   </g>
   <g>
    <path d="m182.11 53.895 36.164-9.407" fill="none" stroke="#4d4d4d" stroke-width=".2"/>
   </g>
   <g>
    <path d="m226.66 106.17 63.184-18.344" fill="#ff0000" stroke="#800080" stroke-linecap="round" stroke-width="1.7008"/>
   </g>
   <g>
    <g>
     <path d="m23.496 121.62 107.29-0.152v-81.438l-12.965-0.015-0.246 59.48-64.469 0.012 4e-3 -59.613-29.617 0.031z" fill="url(#b)" stroke="#4d4d4d" stroke-linecap="round" stroke-linejoin="round" stroke-width=".5074"/>
    </g>
   </g>
   <g>
    <path d="m53.113 39.891h7.863v59.543h-7.863z" fill="#fcd6a4" stroke="#4d4d4d" stroke-linecap="round" stroke-linejoin="round" stroke-width=".5074"/>
   </g>
   <g>
    <path d="m53.113 39.891h4.133v59.586h-4.133z" fill="#fcd6a4" stroke="#4d4d4d" stroke-width=".5074"/>
   </g>
   <g>
    <path d="m80.711 33.746h-20.02" fill="none" stroke="#000000" stroke-linecap="square" stroke-miterlimit="10" stroke-width=".5074"/>
   </g>
   <g>
    <path d="m57.855 33.82 12.208 4.133-0.106-8.75z" fill="#000000" stroke="#000000" stroke-linecap="round" stroke-linejoin="round" stroke-width=".79935"/>
   </g>
   <g>
    <path d="m52.477 33.746-12.207-4.133 0.109 8.754z" fill="#000000" stroke="#000000" stroke-linecap="round" stroke-linejoin="round" stroke-width=".79935"/>
   </g>
   <g>
    <path d="m29.926 33.973 10.301-0.075" fill="#34679b" stroke="#000000" stroke-miterlimit="10" stroke-width=".5074"/>
   </g>
   <g>
    <path d="m265.9 92.27-3.418-12.422-7.187 4.992z" fill="#000000" stroke="#000000" stroke-linecap="round" stroke-linejoin="round" stroke-width=".79935"/>
   </g>
   <g>
    <path d="m255.88 77.496 10.015 14.774" fill="none" stroke="#000000" stroke-linecap="square" stroke-miterlimit="10" stroke-width=".5074"/>
   </g>
   <g>
    <path d="m456.91 115.84 12.164 4.254-0.023-8.754z" fill="#000000" stroke="#000000" stroke-linecap="round" stroke-linejoin="round" stroke-width=".79935"/>
   </g>
   <g>
    <path d="m479.2 115.84-17.976 0.09" fill="none" stroke="#000000" stroke-linecap="square" stroke-miterlimit="10" stroke-width=".5074"/>
   </g>
   <path d="m65.535 17.996c0 5.578-4.433 10.102-9.898 10.102-5.469 0-9.899-4.524-9.899-10.102s4.43-10.101 9.899-10.101c5.465 0 9.898 4.523 9.898 10.101z" fill="#1f638a"/>
   <text transform="translate(47.188 23.752)" fill="#ffffff" font-family="'Arial Nova', 'Arial Unicode MS', 'Yu Gothic UI', sans-serif" font-size="16px" xml:space="preserve"><tspan x="0" y="0">3</tspan></text>
   <g>
    <path d="m53.25 17.551c0.707 0.137 1.242 0.48 1.609 1.031 0.364 0.555 0.547 1.152 0.547 1.797 0 1.043-0.383 1.902-1.14 2.578-0.762 0.668-1.668 1-2.719 1-1.012 0-1.844-0.297-2.5-0.891-0.656-0.593-1.043-1.375-1.156-2.343l1.406-0.188c0.144 0.75 0.398 1.313 0.766 1.688 0.375 0.375 0.867 0.562 1.484 0.562 0.656 0 1.207-0.226 1.656-0.687 0.457-0.457 0.688-1.02 0.688-1.688 0-0.644-0.211-1.176-0.625-1.594-0.407-0.425-0.946-0.64-1.61-0.64-0.273 0-0.605 0.054-1 0.156l0.172-1.234c0.375 0 0.672-0.016 0.891-0.047 0.219-0.039 0.461-0.129 0.734-0.266 0.27-0.144 0.492-0.347 0.672-0.609 0.176-0.27 0.266-0.598 0.266-0.985 0-0.57-0.196-1.015-0.578-1.328-0.375-0.312-0.809-0.468-1.297-0.468-0.575 0-1.039 0.183-1.391 0.546-0.355 0.356-0.578 0.868-0.672 1.532l-1.406-0.25c0.176-1 0.578-1.743 1.203-2.235 0.625-0.5 1.367-0.75 2.234-0.75 0.946 0 1.739 0.293 2.375 0.875 0.645 0.575 0.969 1.278 0.969 2.11 0 1.062-0.527 1.828-1.578 2.297z" fill="none" stroke="#ffffff" stroke-width=".80002"/>
   </g>
   <text transform="translate(55.848 23.652)" fill="#ffffff" font-family="'Arial Nova', 'Arial Unicode MS', 'Yu Gothic UI', sans-serif" font-size="16px" xml:space="preserve"><tspan x="0" y="0">0</tspan></text>
   <g>
    <path d="m60.301 12.137c2.488 0 3.734 1.953 3.734 5.859 0 1.981-0.324 3.453-0.969 4.422-0.648 0.961-1.57 1.437-2.765 1.437-2.492 0-3.735-1.953-3.735-5.859 0-1.969 0.321-3.437 0.969-4.406 0.645-0.969 1.567-1.453 2.766-1.453zm0 10.547c0.75 0 1.316-0.364 1.703-1.094 0.383-0.727 0.578-1.926 0.578-3.594 0-1.156-0.086-2.062-0.25-2.719-0.168-0.664-0.422-1.16-0.766-1.484-0.343-0.332-0.773-0.5-1.281-0.5-0.762 0-1.336 0.375-1.719 1.125-0.375 0.742-0.562 1.934-0.562 3.578 0 1.149 0.082 2.055 0.25 2.719 0.176 0.668 0.43 1.164 0.766 1.484 0.343 0.324 0.769 0.485 1.281 0.485z" fill="none" stroke="#ffffff" stroke-width=".80002"/>
   </g>
   <path d="m259.77 67.688c0 5.578-4.434 10.101-9.903 10.101-5.465 0-9.898-4.523-9.898-10.101 0-5.579 4.433-10.102 9.898-10.102 5.469 0 9.903 4.523 9.903 10.102z" fill="#1f638a"/>
   <text transform="translate(240.7 73.437)" fill="#ffffff" font-family="'Arial Nova', 'Arial Unicode MS', 'Yu Gothic UI', sans-serif" font-size="16px" xml:space="preserve"><tspan x="0" y="0">3</tspan></text>
   <g>
    <path d="m246.77 67.234c0.707 0.137 1.242 0.481 1.609 1.032 0.363 0.554 0.547 1.152 0.547 1.797 0 1.042-0.383 1.902-1.141 2.578-0.761 0.668-1.668 1-2.718 1-1.012 0-1.844-0.297-2.5-0.891-0.657-0.594-1.043-1.375-1.157-2.344l1.407-0.187c0.144 0.75 0.398 1.312 0.765 1.687 0.375 0.375 0.867 0.563 1.485 0.563 0.656 0 1.207-0.227 1.656-0.688 0.457-0.457 0.687-1.019 0.687-1.687 0-0.645-0.211-1.176-0.625-1.594-0.406-0.426-0.945-0.641-1.609-0.641-0.274 0-0.606 0.055-1 0.157l0.172-1.235c0.375 0 0.672-0.015 0.89-0.047 0.219-0.039 0.461-0.129 0.735-0.265 0.269-0.145 0.492-0.348 0.672-0.61 0.175-0.269 0.265-0.597 0.265-0.984 0-0.57-0.195-1.016-0.578-1.328-0.375-0.313-0.808-0.469-1.297-0.469-0.574 0-1.039 0.184-1.39 0.547-0.356 0.355-0.578 0.867-0.672 1.531l-1.406-0.25c0.175-1 0.578-1.742 1.203-2.234 0.625-0.5 1.367-0.75 2.234-0.75 0.945 0 1.738 0.293 2.375 0.875 0.645 0.574 0.969 1.277 0.969 2.109 0 1.063-0.528 1.828-1.578 2.297z" fill="none" stroke="#ffffff" stroke-width=".80002"/>
   </g>
   <text transform="translate(248.96 73.437)" fill="#ffffff" font-family="'Arial Nova', 'Arial Unicode MS', 'Yu Gothic UI', sans-serif" font-size="16px" xml:space="preserve"><tspan x="0" y="0">2</tspan></text>
   <g>
    <path d="m257.04 73.438h-7.578c0-0.645 0.223-1.297 0.672-1.954 0.445-0.664 1.289-1.5 2.531-2.5 0.75-0.601 1.422-1.234 2.016-1.89 0.593-0.664 0.89-1.336 0.89-2.016 0-0.57-0.203-1.047-0.609-1.422-0.406-0.383-0.922-0.578-1.547-0.578-0.637 0-1.168 0.199-1.594 0.594-0.429 0.387-0.64 0.965-0.64 1.734l-1.453-0.172c0.093-1.07 0.472-1.89 1.14-2.453 0.676-0.57 1.535-0.859 2.578-0.859 1.125 0 2 0.312 2.625 0.937s0.938 1.375 0.938 2.25c0 0.743-0.266 1.485-0.797 2.235-0.523 0.75-1.574 1.758-3.156 3.015-0.825 0.668-1.371 1.243-1.641 1.719h5.625z" fill="none" stroke="#ffffff" stroke-width=".80002"/>
   </g>
   <g>
    <g>
     <path d="m345.75 120.94c-12.578 0-22.777-10.8-22.777-24.121l0.293-44.519c0.25-6.899 5.609-12.41 12.183-12.41h55.008c6.731 0 12.191 5.781 12.191 12.914l0.133 1.597c0 4.258 3.258 7.707 7.278 7.707l36.726-0.234c5.375 0 9.735 4.617 9.735 10.309l-0.071 41.277c0 4.258-3.254 7.711-7.277 7.711l-103.42-0.227z" fill="url(#a)" stroke="#4d4d4d" stroke-width=".5074"/>
    </g>
   </g>
   <g>
    <path d="m349.1 52.813c0 7.132-5.782 12.914-12.914 12.914-7.133 0-12.915-5.782-12.915-12.914 0-7.133 5.782-12.915 12.915-12.915 7.132 0 12.914 5.782 12.914 12.915z" fill="#cccccc" stroke="#000000" stroke-width=".5074"/>
   </g>
   <g>
    <path d="m371.23 97.395c0 13.32-10.801 24.121-24.125 24.121-13.325 0-24.125-10.801-24.125-24.121 0-13.325 10.8-24.125 24.125-24.125 13.324 0 24.125 10.8 24.125 24.125z" fill="#cccccc" stroke="#000000" stroke-width=".5074"/>
   </g>
   <g>
    <path d="m402.56 52.559c0 7.132-5.782 12.914-12.915 12.914-7.132 0-12.914-5.782-12.914-12.914 0-7.133 5.782-12.914 12.914-12.914 7.133 0 12.915 5.781 12.915 12.914z" fill="#cccccc" stroke="#000000" stroke-width=".5074"/>
   </g>
   <g>
    <path d="m456.35 72.191c0 5.696-4.618 10.313-10.313 10.313-5.691 0-10.309-4.617-10.309-10.313 0-5.691 4.618-10.308 10.309-10.308 5.695 0 10.313 4.617 10.313 10.308z" fill="#cccccc" stroke="#000000" stroke-width=".5074"/>
   </g>
   <g>
    <path d="m456.28 114.87c0 3.481-2.82 6.301-6.3 6.301-3.477 0-6.297-2.82-6.297-6.301 0-3.476 2.82-6.297 6.297-6.297 3.48 0 6.3 2.821 6.3 6.297z" fill="#cccccc" stroke="#000000" stroke-width=".5074"/>
   </g>
   <path d="m499.62 116.44c0 5.582-4.433 10.102-9.902 10.102-5.465 0-9.899-4.52-9.899-10.102 0-5.578 4.434-10.101 9.899-10.101 5.469 0 9.902 4.523 9.902 10.101z" fill="#1f638a"/>
   <text transform="translate(480.49 122.19)" fill="#ffffff" font-family="'Arial Nova', 'Arial Unicode MS', 'Yu Gothic UI', sans-serif" font-size="16px" xml:space="preserve"><tspan x="0" y="0">3</tspan></text>
   <g>
    <path d="m486.55 115.99c0.707 0.137 1.242 0.481 1.609 1.031 0.363 0.555 0.547 1.153 0.547 1.797 0 1.043-0.383 1.903-1.141 2.578-0.761 0.668-1.668 1-2.718 1-1.012 0-1.844-0.296-2.5-0.89-0.657-0.594-1.043-1.375-1.157-2.344l1.407-0.187c0.144 0.75 0.398 1.312 0.765 1.687 0.375 0.375 0.867 0.563 1.485 0.563 0.656 0 1.207-0.227 1.656-0.688 0.457-0.457 0.687-1.019 0.687-1.687 0-0.645-0.211-1.176-0.625-1.594-0.406-0.426-0.945-0.641-1.609-0.641-0.273 0-0.605 0.055-1 0.156l0.172-1.234c0.375 0 0.672-0.016 0.891-0.047 0.218-0.039 0.46-0.129 0.734-0.265 0.269-0.145 0.492-0.348 0.672-0.61 0.176-0.269 0.265-0.597 0.265-0.984 0-0.57-0.195-1.016-0.578-1.328-0.375-0.313-0.808-0.469-1.297-0.469-0.574 0-1.039 0.184-1.39 0.547-0.356 0.355-0.578 0.867-0.672 1.531l-1.406-0.25c0.175-1 0.578-1.742 1.203-2.234 0.625-0.5 1.367-0.75 2.234-0.75 0.945 0 1.738 0.293 2.375 0.875 0.645 0.574 0.969 1.277 0.969 2.109 0 1.063-0.527 1.828-1.578 2.297z" fill="none" stroke="#ffffff" stroke-width=".80002"/>
   </g>
   <text transform="translate(488.89 122.34)" fill="#ffffff" font-family="'Arial Nova', 'Arial Unicode MS', 'Yu Gothic UI', sans-serif" font-size="16px" xml:space="preserve"><tspan x="0" y="0">3</tspan></text>
   <g>
    <path d="m494.95 116.13c0.707 0.137 1.242 0.48 1.61 1.031 0.363 0.555 0.546 1.152 0.546 1.797 0 1.043-0.382 1.902-1.14 2.578-0.762 0.668-1.668 1-2.719 1-1.012 0-1.844-0.297-2.5-0.891-0.656-0.593-1.043-1.375-1.156-2.343l1.406-0.188c0.145 0.75 0.398 1.313 0.766 1.688 0.375 0.375 0.867 0.562 1.484 0.562 0.656 0 1.207-0.226 1.656-0.687 0.457-0.457 0.688-1.02 0.688-1.688 0-0.644-0.211-1.176-0.625-1.594-0.406-0.425-0.946-0.64-1.61-0.64-0.273 0-0.605 0.055-1 0.156l0.172-1.234c0.375 0 0.672-0.016 0.891-0.047 0.219-0.039 0.461-0.129 0.734-0.266 0.27-0.144 0.492-0.347 0.672-0.609 0.176-0.27 0.266-0.598 0.266-0.985 0-0.57-0.196-1.015-0.578-1.328-0.375-0.312-0.809-0.468-1.297-0.468-0.574 0-1.039 0.183-1.391 0.546-0.355 0.356-0.578 0.868-0.672 1.532l-1.406-0.25c0.176-1 0.578-1.742 1.203-2.235 0.625-0.5 1.367-0.75 2.235-0.75 0.945 0 1.738 0.293 2.375 0.875 0.644 0.575 0.968 1.278 0.968 2.11 0 1.062-0.527 1.828-1.578 2.297z" fill="none" stroke="#ffffff" stroke-width=".80002"/>
   </g>
   <g>
    <path d="m109.72 39.949h7.863v59.539h-7.863z" fill="#fcd6a4" stroke="#4d4d4d" stroke-linecap="round" stroke-linejoin="round" stroke-width=".5074"/>
   </g>
   <g>
    <path d="m109.72 39.949h4.137v59.586h-4.137z" fill="#fcd6a4" stroke="#4d4d4d" stroke-width=".5074"/>
   </g>
   <path d="m122.06 18.184c0 5.578-4.434 10.101-9.903 10.101-5.465 0-9.898-4.523-9.898-10.101 0-5.582 4.433-10.102 9.898-10.102 5.469 0 9.903 4.52 9.903 10.102z" fill="#1f638a"/>
   <text transform="translate(104.85 23.934)" fill="#ffffff" font-family="'Arial Nova', 'Arial Unicode MS', 'Yu Gothic UI', sans-serif" font-size="16px" xml:space="preserve"><tspan x="0" y="0">3</tspan></text>
   <g>
    <path d="m110.92 17.73c0.707 0.137 1.242 0.481 1.609 1.032 0.364 0.554 0.547 1.152 0.547 1.797 0 1.043-0.383 1.902-1.14 2.578-0.762 0.668-1.668 1-2.719 1-1.012 0-1.844-0.297-2.5-0.891s-1.043-1.375-1.156-2.344l1.406-0.187c0.144 0.75 0.398 1.312 0.765 1.687 0.375 0.375 0.868 0.563 1.485 0.563 0.656 0 1.207-0.227 1.656-0.688 0.457-0.457 0.688-1.019 0.688-1.687 0-0.645-0.211-1.176-0.625-1.594-0.407-0.426-0.946-0.641-1.61-0.641-0.273 0-0.605 0.055-1 0.157l0.172-1.235c0.375 0 0.672-0.015 0.891-0.047 0.218-0.039 0.461-0.128 0.734-0.265 0.27-0.145 0.492-0.348 0.672-0.61 0.176-0.269 0.266-0.597 0.266-0.984 0-0.57-0.196-1.016-0.579-1.328-0.375-0.313-0.808-0.469-1.296-0.469-0.575 0-1.039 0.184-1.391 0.547-0.355 0.356-0.578 0.867-0.672 1.531l-1.406-0.25c0.176-1 0.578-1.742 1.203-2.234 0.625-0.5 1.367-0.75 2.234-0.75 0.946 0 1.739 0.293 2.375 0.875 0.645 0.574 0.969 1.277 0.969 2.109 0 1.063-0.527 1.828-1.578 2.297z" fill="none" stroke="#ffffff" stroke-width=".80002"/>
   </g>
   <text transform="translate(112.17 24.234)" fill="#ffffff" font-family="'Arial Nova', 'Arial Unicode MS', 'Yu Gothic UI', sans-serif" font-size="16px" xml:space="preserve"><tspan x="0" y="0">1</tspan></text>
   <g>
    <path d="m118.17 24.234h-1.406v-8.968c-0.7 0.668-1.637 1.234-2.813 1.703v-1.36c1.613-0.781 2.719-1.742 3.313-2.89h0.906z" fill="none" stroke="#ffffff" stroke-width=".80002"/>
   </g>
   <g>
    <path d="m109.73 39.785v-9.75" fill="none" stroke="#000000" stroke-linecap="round" stroke-linejoin="round" stroke-miterlimit="10" stroke-width=".5074"/>
   </g>
   <g>
    <path d="m117.82 40.012v-9.75" fill="none" stroke="#000000" stroke-linecap="round" stroke-linejoin="round" stroke-miterlimit="10" stroke-width=".5074"/>
   </g>
   <g>
    <path d="m53.113 39.891v-9.75" fill="none" stroke="#000000" stroke-linecap="round" stroke-linejoin="round" stroke-miterlimit="10" stroke-width=".5074"/>
   </g>
   <g>
    <path d="m57.246 39.891v-9.75" fill="none" stroke="#000000" stroke-linecap="round" stroke-linejoin="round" stroke-miterlimit="10" stroke-width=".5074"/>
   </g>
   <g>
    <path d="m141.25 33.809h-20.02" fill="none" stroke="#000000" stroke-linecap="square" stroke-miterlimit="10" stroke-width=".5074"/>
   </g>
   <g>
    <path d="m118.4 33.883 12.207 4.133-0.109-8.75z" fill="#000000" stroke="#000000" stroke-linecap="round" stroke-linejoin="round" stroke-width=".79935"/>
   </g>
   <g>
    <path d="m109.04 33.746-12.207-4.133 0.109 8.754z" fill="#000000" stroke="#000000" stroke-linecap="round" stroke-linejoin="round" stroke-width=".79935"/>
   </g>
   <g>
    <path d="m86.488 33.973 10.301-0.075" fill="#34679b" stroke="#000000" stroke-miterlimit="10" stroke-width=".5074"/>
   </g>
  </g>
 </g>
</svg>
