<?xml version="1.0" encoding="UTF-8"?>
<svg width="18cm" height="12cm" version="1.1" xmlns="http://www.w3.org/2000/svg" xmlns:cc="http://creativecommons.org/ns#" xmlns:dc="http://purl.org/dc/elements/1.1/" xmlns:rdf="http://www.w3.org/1999/02/22-rdf-syntax-ns#" xmlns:xlink="http://www.w3.org/1999/xlink">
 <title>Abbildung für OPEN MIND Softwaredokumentation</title>
 <defs>
  <linearGradient id="linearGradient17780-7-5-5-8-3-3">
   <stop stop-color="#fff" offset="0"/>
   <stop stop-color="#00385e" offset="1"/>
  </linearGradient>
  <linearGradient id="linearGradient7708" x1="900.36" x2="-300.4" y1="1015.5" y2="922.91" gradientTransform="matrix(.38127 0 0 .381 36.429 -168.27)" gradientUnits="userSpaceOnUse">
   <stop stop-color="#fff" offset="0"/>
   <stop stop-color="#00385e" offset="1"/>
  </linearGradient>
  <linearGradient id="linearGradient4877" x1="64.997" x2="-1283.7" y1="196.12" y2="49.943" gradientTransform="matrix(.48333 0 0 .48228 397.48 210.13)" gradientUnits="userSpaceOnUse" xlink:href="#linearGradient17780-7-5-5-8-3-3"/>
  <linearGradient id="linearGradient4888" x1="-506.22" x2="-701.37" y1="10.916" y2="-40.19" gradientTransform="matrix(.59165 0 0 .41223 456.14 185.36)" gradientUnits="userSpaceOnUse" xlink:href="#linearGradient17780-7-5-5-8-3-3"/>
  <linearGradient id="linearGradient4905" x1="-505.64" x2="-706.47" y1="5.0515" y2="-38.195" gradientTransform="matrix(.59165 0 0 .41223 555.54 177.16)" gradientUnits="userSpaceOnUse">
   <stop stop-color="#fff" offset="0"/>
   <stop stop-color="#00385e" offset="1"/>
  </linearGradient>
  <linearGradient id="linearGradient4976" x1="-827.15" x2="-1100.8" y1="452.78" y2="450.29" gradientTransform="matrix(.48386 0 0 .48352 542.63 20.028)" gradientUnits="userSpaceOnUse" xlink:href="#linearGradient17780-7-5-5-8-3-3"/>
  <linearGradient id="linearGradient4999" x1="-827.15" x2="-1100.8" y1="452.78" y2="450.29" gradientTransform="matrix(.48386 0 0 .48352 641.51 11.653)" gradientUnits="userSpaceOnUse">
   <stop stop-color="#fff" offset="0"/>
   <stop stop-color="#00385e" offset="1"/>
  </linearGradient>
  <linearGradient id="linearGradient5033" x1="-294.38" x2="886.18" y1="830.54" y2="27.344" gradientTransform="matrix(.38127 0 0 .381 246.63 83.954)" gradientUnits="userSpaceOnUse">
   <stop stop-color="#fff" offset="0"/>
   <stop stop-color="#00385e" offset="1"/>
  </linearGradient>
  <linearGradient id="linearGradient5101" x1="-57.788" x2="210.09" y1="818.75" y2="1047.3" gradientTransform="matrix(.38127 0 0 .381 254.03 -127.15)" gradientUnits="userSpaceOnUse">
   <stop stop-color="#fff" offset="0"/>
   <stop stop-color="#00385e" offset="1"/>
  </linearGradient>
  <linearGradient id="linearGradient5169" x1="728.13" x2="-226.98" y1="1042.7" y2="910.26" gradientTransform="matrix(.38127 0 0 .381 32.866 -157.38)" gradientUnits="userSpaceOnUse">
   <stop stop-color="#fff" offset="0"/>
   <stop stop-color="#00385e" offset="1"/>
  </linearGradient>
  <filter id="filter12295" color-interpolation-filters="sRGB">
   <feBlend in2="BackgroundImage" mode="screen"/>
  </filter>
  <filter id="filter12295-37" color-interpolation-filters="sRGB">
   <feBlend in2="BackgroundImage" mode="screen"/>
  </filter>
  <filter id="filter12295-0" color-interpolation-filters="sRGB">
   <feBlend in2="BackgroundImage" mode="screen"/>
  </filter>
  <linearGradient id="linearGradient32055" x1="-505.64" x2="-706.47" y1="5.0515" y2="-38.195" gradientTransform="matrix(.71811 0 0 .50046 655.03 691.86)" gradientUnits="userSpaceOnUse">
   <stop stop-color="#fff" offset="0"/>
   <stop stop-color="#00385e" offset="1"/>
  </linearGradient>
  <linearGradient id="linearGradient32057" x1="-827.15" x2="-1100.8" y1="452.78" y2="450.29" gradientTransform="matrix(.58728 0 0 .58701 759.37 490.93)" gradientUnits="userSpaceOnUse">
   <stop stop-color="#fff" offset="0"/>
   <stop stop-color="#00385e" offset="1"/>
  </linearGradient>
  <linearGradient id="linearGradient32059" x1="-506.22" x2="-701.37" y1="10.916" y2="-40.19" gradientTransform="matrix(.71811 0 0 .50046 534.38 701.82)" gradientUnits="userSpaceOnUse" xlink:href="#linearGradient17780-7-5-5-8-3-3"/>
  <linearGradient id="linearGradient32061" x1="-294.38" x2="886.18" y1="830.54" y2="27.344" gradientTransform="matrix(.46276 0 0 .46255 280.09 578.7)" gradientUnits="userSpaceOnUse">
   <stop stop-color="#fff" offset="0"/>
   <stop stop-color="#00385e" offset="1"/>
  </linearGradient>
  <linearGradient id="linearGradient32063" x1="-57.788" x2="210.09" y1="818.75" y2="1047.3" gradientTransform="matrix(.46276 0 0 .46255 289.15 322.42)" gradientUnits="userSpaceOnUse">
   <stop stop-color="#fff" offset="0"/>
   <stop stop-color="#00385e" offset="1"/>
  </linearGradient>
  <linearGradient id="linearGradient32065" x1="-827.15" x2="-1100.8" y1="452.78" y2="450.29" gradientTransform="matrix(.58728 0 0 .58701 639.35 501.09)" gradientUnits="userSpaceOnUse" xlink:href="#linearGradient17780-7-5-5-8-3-3"/>
  <linearGradient id="linearGradient32067" x1="64.997" x2="-1283.7" y1="196.12" y2="49.943" gradientTransform="matrix(.58663 0 0 .58551 462.98 732.15)" gradientUnits="userSpaceOnUse">
   <stop stop-color="#fff" offset="0"/>
   <stop stop-color="#00385e" offset="1"/>
  </linearGradient>
  <linearGradient id="linearGradient32069" x1="728.13" x2="-226.98" y1="1042.7" y2="910.26" gradientTransform="matrix(.46276 0 0 .46255 20.41 285.39)" gradientUnits="userSpaceOnUse">
   <stop stop-color="#fff" offset="0"/>
   <stop stop-color="#00385e" offset="1"/>
  </linearGradient>
  <linearGradient id="linearGradient32071" x1="900.36" x2="-300.4" y1="1015.5" y2="922.91" gradientTransform="matrix(.46276 0 0 .46255 25.577 272.82)" gradientUnits="userSpaceOnUse">
   <stop stop-color="#fff" offset="0"/>
   <stop stop-color="#00385e" offset="1"/>
  </linearGradient>
  <linearGradient id="linearGradient32540" x1="730.09" x2="-2811.3" y1="-977.62" y2="-1002.7" gradientTransform="matrix(.49587 0 0 1.5556 354.36 1753)" gradientUnits="userSpaceOnUse">
   <stop stop-color="#fff" offset="0"/>
   <stop stop-color="#00385e" offset="1"/>
  </linearGradient>
  <linearGradient id="linearGradient32542" x1="730.09" x2="-2194.2" y1="-977.62" y2="-1029.2" gradientTransform="matrix(.49778 0 0 .2444 354.37 515.1)" gradientUnits="userSpaceOnUse">
   <stop stop-color="#fff" offset="0"/>
   <stop stop-color="#00385e" offset="1"/>
  </linearGradient>
  <linearGradient id="linearGradient32577" x1="730.09" x2="-2811.3" y1="-977.62" y2="-1002.7" gradientTransform="matrix(.49587 0 0 1.5556 354.53 1636.6)" gradientUnits="userSpaceOnUse" xlink:href="#linearGradient17780-7-5-5-8-3-3"/>
  <linearGradient id="linearGradient32579" x1="730.09" x2="-2194.2" y1="-977.62" y2="-1029.2" gradientTransform="matrix(.49778 0 0 .49778 354.16 624.43)" gradientUnits="userSpaceOnUse">
   <stop stop-color="#fff" offset="0"/>
   <stop stop-color="#00385e" offset="1"/>
  </linearGradient>
 </defs>
 <metadata>
  <rdf:RDF>
   <cc:Work rdf:about="">
    <dc:format>image/svg+xml</dc:format>
    <dc:type rdf:resource="http://purl.org/dc/dcmitype/StillImage"/>
    <dc:title>Abbildung für OPEN MIND Softwaredokumentation</dc:title>
    <dc:creator>
     <cc:Agent>
      <dc:title>OPEN MIND Technologies AG</dc:title>
     </cc:Agent>
    </dc:creator>
    <dc:rights>
     <cc:Agent>
      <dc:title>Alle Rechte vorbehalten.</dc:title>
     </cc:Agent>
    </dc:rights>
    <dc:publisher>
     <cc:Agent>
      <dc:title>Technische Redaktion</dc:title>
     </cc:Agent>
    </dc:publisher>
   </cc:Work>
  </rdf:RDF>
 </metadata>
 <g transform="translate(0 113.39)">
  <g fill="none" stroke="#fc0" stroke-linecap="round" stroke-linejoin="round" stroke-width="1.5118">
   <path d="m107.41 133.08 0.0756-34.462"/>
   <path d="m108.16 133.1 228.11 31.837"/>
   <path d="m108.44 131.09 223.49 30.814"/>
   <path d="m107.95 129.2 218.38 29.954"/>
  </g>
  <g>
   <path d="m136.74 280.9c7.3e-4 4.2482-10.845 7.7223-24.098 7.7223-13.253 0-24.003-3.4149-24.002-7.62v-86.295c-7.21e-4 -4.2314 10.761-7.6463 24.044-7.6463 13.283 0 24.051 3.4149 24.056 7.5984z" fill="url(#linearGradient4976)" opacity=".4"/>
   <path d="m235.62 272.52c7.2e-4 4.2482-10.845 7.7223-24.098 7.7223-13.253 0-24.003-3.4149-24.002-7.62v-86.295c-7.3e-4 -4.2314 10.761-7.6463 24.044-7.6463 13.283 0 24.051 3.4149 24.056 7.5984z" fill="url(#linearGradient4999)" opacity=".4"/>
   <path d="m189.55 183.1c-0.69571 0.40902-2.8251 2.038-1.9062 4.3235l-9.7923-8.5904c-3.2139-2.1269-5.1101-3.7728-5.1101-6.035 0-6.8419 17.356-12.327 38.729-12.327s38.393 5.4854 38.332 12.51c0 2.3624-3.8681 5.2725-6.5363 6.8763l-7.7835 7.4292c0.84179-1.0819-0.0717-3.588-2.6921-4.5014-6.3571 1.2167-13.058 1.8564-21.32 2.0958-7.8937 0.0545-15.165-0.68175-21.3-1.9896" fill="url(#linearGradient4905)" fill-rule="evenodd" opacity=".50896"/>
  </g>
  <g transform="matrix(.82391 0 0 .8237 14.721 87.834)" fill="none" stroke="#4d4d4d" stroke-linecap="round" stroke-linejoin="round" stroke-width=".82123">
   <path d="m118.34 50.495 4.0868 9.1765v107.05"/>
   <path d="m10.06 255.2 112.3-88.387 269.07 37.98"/>
  </g>
  <path d="m26.64 196.77-3.6577 10.913 221.39 30.273" fill="none" stroke="#4d4d4d" stroke-linecap="round" stroke-linejoin="round" stroke-width=".67654"/>
  <path d="m23.149 207.7 0.01912 90.176 221.18 28.958-0.0889-88.897" fill="url(#linearGradient4877)" opacity=".4"/>
  <path d="m244.41 327.13 92.83-70.575v-90.58" fill="none" stroke="#4d4d4d" stroke-linecap="round" stroke-linejoin="round" stroke-width=".67654"/>
  <g transform="matrix(.82391 0 0 .8237 -77.796 326.64)">
   <g fill="none" stroke="#fc0" stroke-linecap="round" stroke-width="1.8352">
    <path d="m98.324-178.38 6.9023 30.458 284.43 38.566c5.7704 0.27433 7.6854-0.18286 10.839-2.0016l111.13-87.396c3.4744-3.0707-0.31025-4.6704-1.995-4.7862l-283.84-38.396"/>
    <path d="m98.289-175.08 6.9023 29.649 284.43 38.566c5.7704 0.27434 7.6854-0.18286 10.839-2.0016l111.13-87.396c3.4744-3.0707-0.31024-4.6704-1.995-4.7862l-19.469-2.394"/>
    <path d="m99.026-170 6.0942 27.225 284.43 38.566c5.7704 0.27433 7.6854-0.18286 10.839-2.0016l111.13-87.396c3.4744-3.0707-0.31024-4.6704-1.995-4.7862l-12.832-1.6777"/>
    <path d="m99.153-166.29 5.8248 26.484 284.43 38.566c5.7704 0.27434 7.6854-0.18286 10.839-2.0016l111.13-87.396c3.4744-3.0707-0.31025-4.6704-1.995-4.7862l-6.7211-0.87871"/>
   </g>
  </g>
  <path d="m26.732 196.8-3.5877 10.71 220.94 30.208-5.3488-12.966z" fill="url(#linearGradient5169)" opacity=".4"/>
  <ellipse cx="112.59" cy="280.84" rx="23.997" ry="7.6274" fill="none" stroke="#4d4d4d" stroke-width=".67654"/>
  <path d="m111.74 129.63-85.209 67.171 212.2 27.988 85.029-66.025z" fill="url(#linearGradient7708)" opacity=".4"/>
  <g fill="none">
   <g stroke="#4d4d4d">
    <path d="m78.549 187.23 11.962 10.582" stroke-linecap="round" stroke-linejoin="round" stroke-width=".67654"/>
    <path d="m145.44 187.41-9.7436 9.1501" stroke-linecap="round" stroke-linejoin="round" stroke-width=".67654"/>
    <ellipse cx="211.66" cy="272.44" rx="23.997" ry="7.6274" stroke-width=".67654"/>
    <path d="m193.85 181.05c11.55-3.6979 27.905-2.6074 34.86-0.1093" stroke-linecap="round" stroke-linejoin="round" stroke-width=".67654"/>
   </g>
   <path d="m227.17 191.57" stroke="#000" stroke-width="1.8898"/>
  </g>
  <g transform="matrix(.82391 0 0 .8237 -133.9 165.56)" fill="none" stroke-width="1.8352">
   <g stroke="#fc0" stroke-linecap="round" stroke-linejoin="round">
    <g>
     <path d="m398.75 16.611c-2.443-5.2442 8.7178-8.5245 19.965-8.7734 11.208-0.24799 20.417 2.3734 20.5 5.6784 0.0429 1.6985-2.0528 3.5373-5.9072 4.211l-7.7162 0.09056-1.4353-3.4091v-10.824"/>
     <path d="m433.19 20.657c-3.6191 1.136-8.5477 2.0293-13.997 2.0396-11.287 0.02133-18.028-3.4491-20.142-5.7738m-0.0859-0.06912c0.39876-2.6864 8.7181-6.0033 19.925-6.2858 11.207-0.28252 20.36 2.2036 20.443 5.5529 0.0429 1.7212-2.3175 3.3354-6.1435 4.5363"/>
     <path d="m398.53 21.915c-1.5427-4.9787 9.0174-8.6071 20.254-8.8044 11.209-0.19689 20.417 2.3734 20.5 5.6784 0.0429 1.6985-1.996 3.4521-5.822 4.6372"/>
     <path d="m433.18 26.251c-3.619 1.136-8.5477 2.0293-13.997 2.0396-11.287 0.02133-18.029-3.449-20.142-5.7738m-0.0859-0.06923c0.39871-2.6864 8.7181-6.0033 19.925-6.2858 11.207-0.28252 20.36 2.2036 20.443 5.5529 0.0429 1.7212-2.3175 3.3354-6.1435 4.5363"/>
     <path d="m398.62 27.633c-1.9742-5.6252 8.7786-8.323 19.999-8.5772 11.208-0.25393 20.417 2.3734 20.5 5.6784 0.0429 1.6985-1.9959 3.4521-5.8219 4.6372"/>
     <path d="m433.02 31.795c-3.619 1.136-8.5477 2.0293-13.997 2.0396-11.287 0.02133-18.029-3.4491-20.142-5.7738m-0.0859-0.06912c0.39877-2.6864 8.7181-6.0033 19.925-6.2858 11.207-0.28251 20.36 2.2036 20.443 5.5529 0.0429 1.7212-2.3175 3.3354-6.1435 4.5363"/>
     <path d="m432.8 34.521c-3.6191 1.2299-8.5477 2.1841-13.997 2.2082-11.338 0.05024-20.267-2.6591-20.243-6.3114m0.0147-0.01461c-0.44533-3.732 8.7181-6.4995 19.925-6.8054 11.207-0.30587 20.521 2.621 20.604 6.2472 0.0136 0.59488-0.23391 1.154-0.70186 1.6818-0.99791 1.1256-2.9978 2.109-5.6024 2.9942"/>
     <path d="m398.47 17.245c-1.3342 4.413 9.2043 7.6308 20.411 7.9096 3.943 0.09813 7.6388-0.16664 10.777-0.69496 1.5566-0.26207 2.976-0.58901 4.2203-0.9687m5.5032-4.0148c0.0429-1.6985-1.9959-3.4521-5.8219-4.6372"/>
    </g>
    <path d="m433.18 29.508c-22.027 4.6942-35.727-3.3785-34.675-5.1136-0.32325-0.71969-0.1453-1.4394 0.057-2.1591"/>
   </g>
   <path d="m438.38 31.538" stroke="#000"/>
   <path d="m438.34 31.578c-0.66311-1.3976-1.9739-2.466-4.8636-2.732-0.51505-0.08032-0.6537-0.1607-0.88433-0.24106l-2.9342-18.441h-0.0399v0" stroke="#fc0" stroke-linecap="round" stroke-linejoin="round"/>
   <path d="m398.56 27.86c-2.5194 4.925 10.621 8.7899 26.792 8.5545 5.5047-0.6428 12.603-2.8263 13.116-4.9228" stroke="#fc0" stroke-linecap="round" stroke-linejoin="round"/>
  </g>
  <g fill="none" stroke="#4d4d4d">
   <path d="m228.47 180.86c4.3731 1.3816 7.0805 3.2952 7.0805 5.4098 0 4.2125-10.744 7.6274-23.997 7.6274-13.253 0-23.997-3.4149-23.997-7.6274 0-1.9884 2.3939-3.7992 6.3157-5.1569" stroke-width=".67654"/>
   <g>
    <ellipse cx="211.29" cy="172.68" rx="38.686" ry="12.399" stroke-width=".67653"/>
    <path d="m177.66 178.89 11.881 10.469" stroke-linecap="round" stroke-linejoin="round" stroke-width=".67654"/>
    <path d="m244.52 179.02-9.7436 9.1501" stroke-linecap="round" stroke-linejoin="round" stroke-width=".67654"/>
   </g>
  </g>
  <path d="m90.325 191.71c-3.1946 2.2287-1.6078 4.4875-1.6078 4.4875l-10.245-9.0936c-3.5386-2.0336-4.8256-3.8696-4.8256-6.1318 0.70262-6.6587 17.082-11.991 38.454-11.991 21.373 0 37.568 5.3327 38.637 12.022 0 2.3624-2.1726 4.5551-5.5893 6.6321l-8.6755 8.1682c0.72875-2.6483-1.4832-3.8161-2.8369-4.7413-2.9233-1.7252-9.486-3.962-21.078-4.0296-12.649-0.0737-19.902 2.9942-21.69 4.3193" fill="url(#linearGradient4888)" fill-rule="evenodd" opacity=".4"/>
  <path d="m244.63 238.01 0.0108 88.732 92.386-70.339-0.0806-89.919z" fill="url(#linearGradient5033)" opacity=".4"/>
  <path d="m238.94 224.78 5.4692 13.252 92.828-72.054-12.541-7.5035" fill="none" stroke="#4d4d4d" stroke-linecap="round" stroke-linejoin="round" stroke-width=".67654"/>
  <path d="m238.96 224.46 5.3823 13.093 92.287-71.541-11.97-7.2381z" fill="url(#linearGradient5101)" opacity=".4"/>
  <g fill="none">
   <g stroke="#4d4d4d" stroke-linecap="round" stroke-linejoin="round" stroke-width=".67654">
    <path d="m112.21 129.25-85.545 67.434 212.2 27.988 85.786-66.223z"/>
    <path d="m134.59 197.62v86.233"/>
    <path d="m22.98 207.72v90.384l221.42 29.032v-89.128"/>
    <path d="m233.67 189.22v86.239"/>
    <path d="m95.019 189.4c11.514-3.7979 27.818-2.678 34.752-0.11227"/>
   </g>
   <path d="m128.41 200.14" stroke="#000" stroke-width="1.8898"/>
  </g>
  <g transform="matrix(.82391 0 0 .8237 -233.08 174.13)" fill="none" stroke-width="1.8352">
   <g stroke="#fc0" stroke-linecap="round" stroke-linejoin="round">
    <g>
     <path d="m398.75 16.611c-2.443-5.2442 8.7178-8.5245 19.965-8.7734 11.208-0.24799 20.417 2.3734 20.5 5.6784 0.0429 1.6985-2.0528 3.5373-5.9072 4.211l-7.7162 0.09056-1.4353-3.4091"/>
     <path d="m433.19 20.657c-3.6191 1.136-8.5477 2.0293-13.997 2.0396-11.287 0.02133-18.028-3.4491-20.142-5.7738m-0.0859-0.06912c0.39876-2.6864 8.7181-6.0033 19.925-6.2858 11.207-0.28252 20.36 2.2036 20.443 5.5529 0.0429 1.7212-2.3175 3.3354-6.1435 4.5363"/>
     <path d="m398.53 21.915c-1.5427-4.9787 9.0174-8.6071 20.254-8.8044 11.209-0.19689 20.417 2.3734 20.5 5.6784 0.0429 1.6985-1.996 3.4521-5.822 4.6372"/>
     <path d="m433.18 26.251c-3.619 1.136-8.5477 2.0293-13.997 2.0396-11.287 0.02133-18.029-3.449-20.142-5.7738m-0.0859-0.06923c0.39871-2.6864 8.7181-6.0033 19.925-6.2858 11.207-0.28252 20.36 2.2036 20.443 5.5529 0.0429 1.7212-2.3175 3.3354-6.1435 4.5363"/>
     <path d="m398.62 27.633c-1.9742-5.6252 8.7786-8.323 19.999-8.5772 11.208-0.25393 20.417 2.3734 20.5 5.6784 0.0429 1.6985-1.9959 3.4521-5.8219 4.6372"/>
     <path d="m433.02 31.795c-3.619 1.136-8.5477 2.0293-13.997 2.0396-11.287 0.02133-18.029-3.4491-20.142-5.7738m-0.0859-0.06912c0.39877-2.6864 8.7181-6.0033 19.925-6.2858 11.207-0.28251 20.36 2.2036 20.443 5.5529 0.0429 1.7212-2.3175 3.3354-6.1435 4.5363"/>
     <path d="m432.8 34.521c-3.6191 1.2299-8.5477 2.1841-13.997 2.2082-11.338 0.05024-20.267-2.6591-20.243-6.3114m0.0147-0.01461c-0.44533-3.732 8.7181-6.4995 19.925-6.8054 11.207-0.30587 20.521 2.621 20.604 6.2472 0.0136 0.59488-0.23391 1.154-0.70186 1.6818-0.99791 1.1256-2.9978 2.109-5.6024 2.9942"/>
     <path d="m398.47 17.245c-1.3342 4.413 9.2043 7.6308 20.411 7.9096 3.943 0.09813 7.6388-0.16664 10.777-0.69496 1.5566-0.26207 2.976-0.58901 4.2203-0.9687m5.5032-4.0148c0.0429-1.6985-1.9959-3.4521-5.8219-4.6372"/>
    </g>
    <path d="m433.18 29.508c-22.027 4.6942-35.727-3.3785-34.675-5.1136-0.32325-0.71969-0.1453-1.4394 0.057-2.1591"/>
   </g>
   <path d="m438.38 31.538" stroke="#000"/>
   <path d="m438.34 31.578c-0.66311-1.3976-1.9739-2.466-4.8636-2.732-0.51505-0.08032-0.6537-0.1607-0.88433-0.24106l-2.9342-18.441h-0.0399v0" stroke="#fc0" stroke-linecap="round" stroke-linejoin="round"/>
   <path d="m398.56 27.86c-2.5194 4.925 10.621 8.7899 26.792 8.5545 5.5047-0.6428 12.603-2.8263 13.116-4.9228" stroke="#fc0" stroke-linecap="round" stroke-linejoin="round"/>
  </g>
  <path d="m129.63 189.33c4.2405 1.3757 6.855 3.2596 6.855 5.3376 0 4.2125-10.744 7.6274-23.997 7.6274-13.253 0-23.997-3.4149-23.997-7.6274 0-2.0071 2.439-3.8331 6.4263-5.195" fill="none" stroke="#4d4d4d" stroke-width=".67654"/>
  <ellipse cx="112.21" cy="181.07" rx="38.686" ry="12.399" fill="none" stroke="#4d4d4d" stroke-width=".67653"/>
  <path d="m656.46 226.87-279.64 0.78568 0.0337-45.545 280.48-0.22824" fill="url(#linearGradient32577)"/>
  <path d="m657.25 181.51-280.72 0.25142v-22.756h281.47" fill="url(#linearGradient32579)" opacity=".4" stroke="#4d4d4d" stroke-linecap="round" stroke-linejoin="round" stroke-width=".67654"/>
  <g transform="translate(26.184 337.47)">
   <g fill="none" opacity=".5233" stroke="#4d4d4d" stroke-linecap="round" stroke-linejoin="round" stroke-width=".67654">
    <path d="m437.67-109.92v-33.778l-34.133-34.844 184.31 0.26667"/>
    <path d="m437.65-143.83h114.51"/>
    <path d="m587.98-178.34-35.79 34.123v33.608"/>
   </g>
  </g>
  <path d="m657.26 226.82-280.72 0.78569v-45.511" fill="none" opacity=".4" stroke="#4d4d4d" stroke-linecap="round" stroke-linejoin="round" stroke-width=".67654"/>
  <g transform="translate(66.717 337.47)" stroke="#000" stroke-linecap="round" stroke-linejoin="round">
   <g transform="translate(111.34 -148.6)">
    <path d="m432.28 8.8764-4.1905-12.571h8.7619z" stroke-width="1.0658"/>
    <path d="m432.48-10.122v11.035" stroke-width=".7559"/>
   </g>
   <g transform="rotate(180 487.94 -61.282)">
    <path d="m432.28 8.8764-4.1905-12.571h8.7619z" stroke-width="1.0658"/>
    <path d="m432.48-10.122v11.035" stroke-width=".7559"/>
   </g>
  </g>
  <g transform="matrix(.19123 0 0 .19123 320.76 224.23)" fill="none" stroke="#fc0" stroke-linecap="round" stroke-linejoin="round" stroke-width="7.9056">
   <path d="m1134.6-570.33 3.6974 264.26 30.825 25.247 87.145 6.0608-414.75 9.3624 414.3 19.033-414.69 9.521 413.89 18.817-414.65 9.783 414.48 14.476-415.94 13.477 416 14.476-413.59 13.714 414.32 18.629-415.24 9.8406 415.47 21.089-415.49 5.4848"/>
   <path d="m1138-305.42 22.011 202.34"/>
  </g>
  <g transform="translate(-8.5333 162.13)" stroke="#000" stroke-linecap="round" stroke-linejoin="round" stroke-width=".67654">
   <path d="m570.69 36.765h48.358"/>
   <path d="m570.94 42.446h48.358"/>
  </g>
  <g transform="matrix(1.3226 0 0 1.323 160.01 -1.3695)">
   <g transform="matrix(.62256 0 0 .62256 18.106 -467.13)">
    <path d="m120.55 641.07 268.57 37.321" fill="none" stroke="#800080" stroke-linecap="round" stroke-linejoin="round" stroke-width="1.8357"/>
    <path d="m210.81 699.07c-0.8444 0.49657-3.4289 2.4742-2.3136 5.2489l-11.885-10.429c-3.9008-2.5822-6.2023-4.5803-6.2023-7.3267 0-8.3063 21.066-14.966 47.006-14.966s46.599 6.6594 46.524 15.188c0 2.8681-4.6948 6.401-7.9333 8.3481l-9.447 9.0193c1.0217-1.3135-0.087-4.3559-3.2675-5.4649-7.7158 1.4771-15.849 2.2537-25.877 2.5444-9.5808 0.0662-18.407-0.82766-25.852-2.4154" fill="url(#linearGradient32055)" fill-rule="evenodd" opacity=".50896"/>
    <g transform="translate(-1.3796 583.41)" fill="none" stroke="#4d4d4d" stroke-linecap="round" stroke-linejoin="round" stroke-width=".82149">
     <path d="m118.34 50.495 4.0868 9.1765v107.05"/>
     <path d="m10.06 255.2 112.3-88.387 269.07 37.98"/>
    </g>
    <g fill="none">
     <g stroke="#4d4d4d" stroke-width=".82149">
      <path d="m13.371 714.29-4.7236 14.623 268.71 36.753" stroke-linecap="round" stroke-linejoin="round"/>
      <path d="m277.4 873.93 112.67-85.681v-109.97" stroke-linecap="round" stroke-linejoin="round"/>
      <ellipse cx="117.4" cy="817.72" rx="29.126" ry="9.2599"/>
      <path d="m76.09 704.09 14.518 12.847" stroke-linecap="round" stroke-linejoin="round"/>
      <path d="m157.28 704.31-11.826 11.109" stroke-linecap="round" stroke-linejoin="round"/>
      <ellipse cx="237.65" cy="807.54" rx="29.126" ry="9.2599"/>
      <path d="m216.03 696.58c14.018-4.4893 33.869-3.1655 42.31-0.13269" stroke-linecap="round" stroke-linejoin="round"/>
     </g>
     <path d="m256.48 709.35" stroke="#000" stroke-width="2.2947"/>
     <path d="m258.06 696.36c5.3078 1.6772 8.5938 4.0005 8.5938 6.5677 0 5.1141-13.04 9.2599-29.126 9.2599-16.086 0-29.126-4.1458-29.126-9.2599 0-2.414 2.9056-4.6123 7.6655-6.2607" stroke="#4d4d4d" stroke-width=".82149"/>
    </g>
    <path d="m266.73 807.63c8.7e-4 5.1575-13.163 9.3751-29.248 9.3751-16.086 0-29.133-4.1458-29.132-9.251v-104.77c-8.8e-4 -5.1371 13.061-9.2829 29.183-9.2829 16.122 0 29.191 4.1458 29.198 9.2247z" fill="url(#linearGradient32057)" opacity=".4"/>
    <path d="m196.38 693.96 14.42 12.71" fill="none" stroke="#4d4d4d" stroke-linecap="round" stroke-linejoin="round" stroke-width=".82149"/>
    <path d="m277.53 694.12-11.826 11.109" fill="none" stroke="#4d4d4d" stroke-linecap="round" stroke-linejoin="round" stroke-width=".82149"/>
    <path d="m90.382 709.52c-3.8774 2.7058-1.9515 5.448-1.9515 5.448l-12.435-11.04c-4.2949-2.4689-5.857-4.6978-5.857-7.4442 0.85278-8.0839 20.732-14.558 46.673-14.558 25.94 0 45.598 6.4741 46.895 14.595 0 2.8681-2.637 5.5301-6.7839 8.0516l-10.53 9.9165c0.8845-3.2152-1.8002-4.6329-3.4432-5.7561-3.5481-2.0944-11.513-4.81-25.583-4.8921-15.352-0.0895-24.155 3.6351-26.326 5.2438" fill="url(#linearGradient32059)" fill-rule="evenodd" opacity=".4"/>
    <path d="m277.66 765.73 0.0131 107.72 112.13-85.394-0.0978-109.16z" fill="url(#linearGradient32061)" opacity=".4"/>
    <path d="m270.76 749.67 6.6381 16.088 112.87-87.678-16.092-9.5113" fill="none" stroke="#4d4d4d" stroke-linecap="round" stroke-linejoin="round" stroke-width=".82149"/>
    <path d="m270.86 749.28 6.5327 15.896 112.28-86.854-15.287-8.9376z" fill="url(#linearGradient32063)" opacity=".4"/>
    <g fill="none">
     <g stroke="#4d4d4d" stroke-linecap="round" stroke-linejoin="round" stroke-width=".82149">
      <path d="m116.94 633.7-103.53 80.575 257.26 35.271 103.46-80.949z"/>
      <path d="m144.11 716.69v104.69"/>
      <path d="m8.6443 728.96v109.73l268.74 35.246v-108.2"/>
      <path d="m264.37 706.5v104.7"/>
      <path d="m96.081 706.72c13.975-4.6108 33.764-3.2512 42.179-0.1363"/>
     </g>
     <path d="m136.61 719.76" stroke="#000" stroke-width="2.2947"/>
    </g>
    <path d="m146.71 817.8c8.8e-4 5.1575-13.163 9.3751-29.248 9.3751-16.086 0-29.133-4.1458-29.132-9.251v-104.77c-8.75e-4 -5.1371 13.061-9.2829 29.183-9.2829 16.122 0 29.191 4.1458 29.198 9.2247z" fill="url(#linearGradient32065)" opacity=".4"/>
    <g fill="none" stroke="#4d4d4d">
     <path d="m138.08 706.63c5.1468 1.6701 8.3201 3.9573 8.3201 6.4801 0 5.1141-13.04 9.2599-29.126 9.2599-16.086 0-29.126-4.1458-29.126-9.2599 0-2.4367 2.9603-4.6535 7.7998-6.3069" stroke-width=".82149"/>
     <ellipse cx="116.95" cy="696.61" rx="46.954" ry="15.053" stroke-width=".82149"/>
     <ellipse cx="237.2" cy="686.42" rx="46.954" ry="15.053" stroke-width=".82149"/>
    </g>
    <g>
     <path d="m8.6459 729.2 0.0232 109.48 268.45 35.156-0.10786-107.92" fill="url(#linearGradient32067)" opacity=".4"/>
     <path d="m13.983 715.08-4.188 12.45 266.97 37.526-6.492-15.741z" fill="url(#linearGradient32069)" opacity=".4"/>
     <path d="m117.44 634.33-101.97 79.244 255.64 36.435 100.52-79.621z" fill="url(#linearGradient32071)" opacity=".4"/>
    </g>
    <g fill="none" stroke="#800080">
     <ellipse cx="117.25" cy="712.84" rx="28.621" ry="9.4281" stroke-width="1.8357"/>
     <ellipse cx="237.68" cy="702.99" rx="28.621" ry="9.4281" stroke-width="1.8357"/>
     <path d="m9.7899 728.26 267.58 37.312 112.08-86.966" stroke-linecap="round" stroke-linejoin="round" stroke-width="1.8357"/>
    </g>
   </g>
  </g>
  <g fill="#1f638a" fill-rule="evenodd" stroke="#1f638a" stroke-linecap="round" stroke-linejoin="round" stroke-width="1.3393">
   <path transform="matrix(1.4108 0 0 1.4112 168.56 -32.732)" d="m68.718-15.96 5.614 10.347" color="#000000" filter="url(#filter12295)"/>
   <path transform="matrix(-1.4108 0 0 1.4112 790.63 -23.109)" d="m234.41-0.61712-9.5645 10.347" color="#000000" filter="url(#filter12295-37)"/>
   <path transform="matrix(1.4108 0 0 1.4112 264.86 -41.765)" d="m68.718-15.96 5.614 10.347" color="#000000" filter="url(#filter12295-0)"/>
  </g>
  <path d="m651.83 319.37-274.99 0.0672-0.0715-20.868 275.02 0.0633" fill="url(#linearGradient32540)"/>
  <path d="m657.46 297.63-280.72 0.79008v-11.839h281.47" fill="url(#linearGradient32542)" opacity=".4"/>
  <g transform="matrix(.4635 0 0 .4635 213.94 368.91)">
   <g fill="none" opacity=".5233" stroke="#4d4d4d" stroke-linecap="round" stroke-linejoin="round" stroke-width="1.4596">
    <path d="m437.67-109.92v-33.778l-34.133-34.844"/>
    <path d="m437.65-143.83h114.51"/>
    <path d="m587.98-178.34-35.79 34.123v33.608"/>
   </g>
  </g>
  <path d="m376.43 319.18v-32.906h263.29l12.446 12.55v20.356" fill="none" opacity=".4" stroke="#4d4d4d" stroke-linecap="round" stroke-linejoin="round" stroke-width=".67654"/>
  <g transform="matrix(.4635 0 0 .4635 307.48 369.02)">
   <g fill="none" opacity=".5233" stroke="#4d4d4d" stroke-linecap="round" stroke-linejoin="round" stroke-width="1.4596">
    <path d="m437.67-109.92v-33.778l-34.133-34.844"/>
    <path d="m437.65-143.83h114.51"/>
    <path d="m587.98-178.34-35.79 34.123v33.608"/>
   </g>
  </g>
  <g fill="none" stroke-linecap="round" stroke-linejoin="round">
   <path d="m376.53 298.8 275.62-0.0228" opacity=".4" stroke="#4d4d4d" stroke-width=".67654"/>
   <g stroke="#fc0" stroke-width="1.5118">
    <path d="m661.07 305.99-294.33 0.0238"/>
    <path d="m660.96 302.24h-294.08"/>
    <path d="m660.77 298.47h-294.03"/>
    <path d="m660.76 294.7h-294.02"/>
   </g>
  </g>
  <g transform="translate(-14.933 125.87)" stroke="#000" stroke-linecap="round" stroke-linejoin="round">
   <path d="m593.24 176.53h31.292" stroke-width=".67654"/>
   <path d="m593.32 172.37h31.292" stroke-width=".67654"/>
   <g transform="matrix(1 0 0 .95695 192.43 162.85)">
    <path d="m432.28 8.8764-4.1905-12.571h8.7619z" stroke-width="1.0895"/>
    <path d="m432.48-10.122v11.035" stroke-width=".77272"/>
   </g>
   <g transform="rotate(180 528.52 93.248)">
    <path d="m432.28 8.8764-4.1905-12.571h8.7619z" stroke-width="1.0658"/>
    <path d="m432.48-10.122v11.035" stroke-width=".7559"/>
   </g>
  </g>
  <path d="m116.38 184.73-0.19047-21.714" fill="none" stroke="#fc0" stroke-linecap="round" stroke-linejoin="round" stroke-width="1.5118"/>
  <path d="m215.73 175.11-0.19047-21.714" fill="none" stroke="#fc0" stroke-linecap="round" stroke-linejoin="round" stroke-width="1.5118"/>
  <g fill="#0000f6" fill-rule="evenodd">
   <circle cx="537.78" cy="114.97" r="1.5258"/>
   <circle cx="538.52" cy="165.86" r="1.5258"/>
   <circle cx="544.51" cy="170.29" r="1.5258"/>
   <circle cx="561.04" cy="171.69" r="1.5258"/>
   <circle cx="560.99" cy="177.05" r="1.5258"/>
   <circle cx="560.99" cy="182.42" r="1.5258"/>
   <circle cx="560.96" cy="187.79" r="1.5258"/>
   <circle cx="560.98" cy="193.16" r="1.5258"/>
   <circle cx="561.06" cy="198.52" r="1.5258"/>
   <circle cx="561.13" cy="204.48" r="1.5258"/>
   <circle cx="481.06" cy="173.24" r="1.5258"/>
   <circle cx="481" cy="178.7" r="1.5258"/>
   <circle cx="481" cy="184.17" r="1.5258"/>
   <circle cx="480.97" cy="189.63" r="1.5258"/>
   <circle cx="480.99" cy="195.1" r="1.5258"/>
   <circle cx="481.07" cy="200.57" r="1.5258"/>
   <circle cx="481.14" cy="206.03" r="1.5258"/>
   <circle cx="652.22" cy="294.72" r="1.5258"/>
   <circle cx="652.16" cy="298.48" r="1.5258"/>
   <circle cx="652.1" cy="302.25" r="1.5258"/>
   <circle cx="652.1" cy="306.01" r="1.5258"/>
   <circle cx="376.61" cy="294.95" r="1.5258"/>
   <circle cx="376.56" cy="298.71" r="1.5258"/>
   <circle cx="376.49" cy="302.48" r="1.5258"/>
   <circle cx="376.49" cy="306.24" r="1.5258"/>
  </g>
  <g transform="translate(677.99 299.23)">
   <ellipse cx="-44.92" cy="-98.798" rx="13.199" ry="13.469" fill="#1f638a" stroke-linecap="round" stroke-linejoin="round" stroke-width="1.0658"/>
   <text x="-50.761276" y="-91.125885" fill="#000000" font-family="'Arial Nova', 'Arial Unicode MS', 'Yu Gothic UI', sans-serif" font-size="12.8px" letter-spacing="0px" stroke-width="1.0667" word-spacing="0px" style="line-height:0%" xml:space="preserve"><tspan x="-50.761276" y="-91.125885" fill="#ffffff" font-family="'Arial Nova', 'Arial Unicode MS', 'Yu Gothic UI', sans-serif" font-size="21.333px" stroke="#ffffff" stroke-width="1.0667" style="line-height:1.25">1</tspan></text>
  </g>
  <g transform="translate(297.74 -19.527)">
   <ellipse cx="-36.9" cy="-49.598" rx="13.199" ry="13.469" fill="#1f638a" stroke-linecap="round" stroke-linejoin="round" stroke-width="1.0658"/>
   <text x="-44.014687" y="-41.962215" fill="#000000" font-family="'Arial Nova', 'Arial Unicode MS', 'Yu Gothic UI', sans-serif" font-size="12.8px" letter-spacing="0px" stroke-width="1.0667" word-spacing="0px" style="line-height:0%" xml:space="preserve"><tspan x="-44.014687" y="-41.962215" fill="#ffffff" font-family="'Arial Nova', 'Arial Unicode MS', 'Yu Gothic UI', sans-serif" font-size="21.333px" stroke="#ffffff" stroke-width="1.0667" style="line-height:1.25">A</tspan></text>
  </g>
  <g transform="translate(515.88 19.225)">
   <ellipse cx="-36.668" cy="-19.66" rx="13.199" ry="13.469" fill="#1f638a" stroke-linecap="round" stroke-linejoin="round" stroke-width="1.0658"/>
   <text x="-43.09388" y="-12.024389" fill="#000000" font-family="'Arial Nova', 'Arial Unicode MS', 'Yu Gothic UI', sans-serif" font-size="12.8px" letter-spacing="0px" stroke-width="1.0667" word-spacing="0px" style="line-height:0%" xml:space="preserve"><tspan x="-43.09388" y="-12.024389" fill="#ffffff" font-family="'Arial Nova', 'Arial Unicode MS', 'Yu Gothic UI', sans-serif" font-size="21.333px" stroke="#ffffff" stroke-width="1.0667" style="line-height:1.25">B</tspan></text>
  </g>
  <g transform="translate(393.48 -25.402)">
   <ellipse cx="-36.9" cy="-49.598" rx="13.199" ry="13.469" fill="#1f638a" stroke-linecap="round" stroke-linejoin="round" stroke-width="1.0658"/>
   <text x="-44.014687" y="-41.962215" fill="#000000" font-family="'Arial Nova', 'Arial Unicode MS', 'Yu Gothic UI', sans-serif" font-size="12.8px" letter-spacing="0px" stroke-width="1.0667" word-spacing="0px" style="line-height:0%" xml:space="preserve"><tspan x="-44.014687" y="-41.962215" fill="#ffffff" font-family="'Arial Nova', 'Arial Unicode MS', 'Yu Gothic UI', sans-serif" font-size="21.333px" stroke="#ffffff" stroke-width="1.0667" style="line-height:1.25">A</tspan></text>
  </g>
  <g transform="translate(423.33 184.07)">
   <ellipse cx="-36.9" cy="-49.598" rx="13.199" ry="13.469" fill="#1f638a" stroke-linecap="round" stroke-linejoin="round" stroke-width="1.0658"/>
   <text x="-44.014687" y="-41.962215" fill="#000000" font-family="'Arial Nova', 'Arial Unicode MS', 'Yu Gothic UI', sans-serif" font-size="12.8px" letter-spacing="0px" stroke-width="1.0667" word-spacing="0px" style="line-height:0%" xml:space="preserve"><tspan x="-44.014687" y="-41.962215" fill="#ffffff" font-family="'Arial Nova', 'Arial Unicode MS', 'Yu Gothic UI', sans-serif" font-size="21.333px" stroke="#ffffff" stroke-width="1.0667" style="line-height:1.25">A</tspan></text>
  </g>
  <g transform="translate(420.95 284.13)">
   <ellipse cx="-36.668" cy="-19.66" rx="13.199" ry="13.469" fill="#1f638a" stroke-linecap="round" stroke-linejoin="round" stroke-width="1.0658"/>
   <text x="-43.09388" y="-12.024389" fill="#000000" font-family="'Arial Nova', 'Arial Unicode MS', 'Yu Gothic UI', sans-serif" font-size="12.8px" letter-spacing="0px" stroke-width="1.0667" word-spacing="0px" style="line-height:0%" xml:space="preserve"><tspan x="-43.09388" y="-12.024389" fill="#ffffff" font-family="'Arial Nova', 'Arial Unicode MS', 'Yu Gothic UI', sans-serif" font-size="21.333px" stroke="#ffffff" stroke-width="1.0667" style="line-height:1.25">B</tspan></text>
  </g>
  <g transform="translate(677.35 399.7)">
   <ellipse cx="-44.92" cy="-98.798" rx="13.199" ry="13.469" fill="#1f638a" stroke-linecap="round" stroke-linejoin="round" stroke-width="1.0658"/>
   <text x="-50.761276" y="-91.125885" fill="#000000" font-family="'Arial Nova', 'Arial Unicode MS', 'Yu Gothic UI', sans-serif" font-size="12.8px" letter-spacing="0px" stroke-width="1.0667" word-spacing="0px" style="line-height:0%" xml:space="preserve"><tspan x="-50.761276" y="-91.125885" fill="#ffffff" font-family="'Arial Nova', 'Arial Unicode MS', 'Yu Gothic UI', sans-serif" font-size="21.333px" stroke="#ffffff" stroke-width="1.0667" style="line-height:1.25">1</tspan></text>
  </g>
 </g>
</svg>
