<?xml version="1.0" encoding="UTF-8"?>
<svg width="48" height="48" version="1.1" viewBox="0 0 12.7 12.7" xml:space="preserve" xmlns="http://www.w3.org/2000/svg"><defs><linearGradient id="linearGradient5725" x1="916.03" x2="1203" y1="105.67" y2="106.12" gradientTransform="matrix(.97921 0 0 .98144 22.884 5.1097)" gradientUnits="userSpaceOnUse"><stop stop-color="#ffffff" offset="0"/><stop stop-color="#444444" offset=".024702"/><stop stop-color="#979797" offset=".2172"/><stop stop-color="#d1d1d1" offset=".31073"/><stop stop-color="#e6e6e6" offset=".39165"/><stop stop-color="#f4f4f4" offset=".45311"/><stop stop-color="#ffffff" offset=".49245"/><stop stop-color="#f4f4f4" offset=".53204"/><stop stop-color="#e6e6e6" offset=".59705"/><stop stop-color="#d1d1d1" offset=".67757"/><stop stop-color="#979797" offset=".75803"/><stop stop-color="#444444" offset=".92484"/><stop stop-color="#000000" offset="1"/></linearGradient><linearGradient id="linearGradient54" x1="18.724" x2="19.372" y1="-12.657" y2="-12.687" gradientTransform="matrix(1.8779 0 0 .94204 -13.072 -1.5062)" gradientUnits="userSpaceOnUse"><stop stop-color="#feffff" offset="0"/><stop stop-color="#000000" stop-opacity="0" offset="1"/></linearGradient></defs><path d="m-29.755 23.317" fill="none" stroke="#000000" stroke-width=".29377px"/><g transform="matrix(.85837 0 0 .85837 -17.249 17.719)"><rect x="23.581" y="-8.6065" width=".68404" height=".63727" fill="#ffff33" fill-rule="evenodd" stroke="#ffff00" stroke-linecap="square" stroke-width=".565"/><g stroke="#000000"><g><g transform="matrix(.015733 0 0 .01502 5.5566 -11.509)" fill="#ffffff" stroke-width="23.468"><path d="m958.98 210.27 2e-5 -233.21 207.5 0.33579v232.88z" color="#000000" fill="url(#linearGradient5725)" stroke="#000000" stroke-linecap="square" stroke-width="30.338"/></g><g fill="none" stroke-linecap="round" stroke-width=".46638"><path d="m23.901-9.9524-1.4906 1.5952" stroke-linejoin="round"/><path d="m22.054-11.822-1.4022 1.601"/><path d="m23.612-11.634-2.6856 2.9457"/></g></g><rect x="21.219" y="-13.353" width="2.1159" height="1.4266" rx="0" ry="0" fill="url(#linearGradient54)" fill-rule="evenodd" stroke-linecap="square" stroke-opacity=".96078" stroke-width=".39901"/></g><g transform="translate(15.081 -.74414)" fill="none" stroke="#ff0000" stroke-linecap="round" stroke-linejoin="round" stroke-width=".565"><path d="m9.8111-8.1495 0.011522 1.5514h-1.3064"/><path d="m10.297-8.4175-0.01169-0.97516 0.57878-0.24805"/><path d="m10.451-8.3178c-1.1181 0.088483 0.59531 0 0.89297 0l0.34727-0.51263"/><path d="m10.246-7.5065 1.0984-0.01754"/><path d="m10.082-6.744 1.2292 0.046772 0.44648 0.64492"/><path d="m9.7796-6.4631 1.1014 0.82416"/><path d="m8.8545-6.1514v0.67799"/><path d="m8.4501-6.1369h-0.91618l-0.38034 0.71107"/><path d="m9.8222-7.887 0.64896 0.029236"/><path d="m9.8572-7.0626 0.73666 0.01754"/><path d="m9.4403-6.3302v0.45018"/></g></g><g transform="matrix(.57917 0 0 .53035 31.371 -52.157)"><g transform="matrix(.33977 0 0 .30844 -51.553 96.96)"><g transform="matrix(9.81 0 0 9.81 -908.65 309.85)"><path d="m97.385-28.314c-0.16433 0.35973-0.44617 0.48531-0.8765 0.59238-0.01666 0.75329-1.4771 1.6423-1.9184 1.6806 0.44452-0.57931 0.65608-0.99627 0.41855-1.427-0.67802-0.05252-1.551-0.51055-1.6382-0.91314" fill="none" stroke="#000000" stroke-linecap="round" stroke-linejoin="round" stroke-width=".32386"/><path d="m93.168-30.012c0.58881-0.82074 2.0577-1.1182 3.2629-0.70784 1.1917 0.41039 1.6523 1.3409 1.0527 2.194-0.2325 0.33082-0.63651 0.57592-1.0834 0.68936-0.0173 0.79812-1.1566 1.3463-1.8895 1.7312 0.46159-0.61379 0.67929-1.1501 0.43264-1.6065-1.352-0.10686-2.4454-1.3511-1.7753-2.3002z" fill="#ffffff" fill-rule="evenodd" stroke="#464646" stroke-linecap="round" stroke-linejoin="round" stroke-width=".33969"/><g fill="none" stroke="#0000fb" stroke-width=".33969"><path d="m93.959-29.927h2.3198"/><path d="m93.967-29.271h2.3198"/><path d="m93.962-28.614h1.3376"/></g></g></g></g></svg>
