<svg width="180mm" height="65mm" enable-background="new" version="1.1" xmlns="http://www.w3.org/2000/svg" xmlns:xlink="http://www.w3.org/1999/xlink">
 <title>Abbildung fuer OPEN MIND Softwaredokumentation</title>
 <defs>
  <linearGradient id="linearGradient17780-7">
   <stop stop-color="#ffffff" offset="0"/>
   <stop stop-color="#00385e" offset="1"/>
  </linearGradient>
  <linearGradient id="linearGradient11296" x1="-235.31" x2="184.76" y1="-57.714" y2="221.76" gradientTransform="translate(-9.6741 -45.047)" gradientUnits="userSpaceOnUse" xlink:href="#linearGradient17780-7"/>
  <linearGradient id="linearGradient11299" x1="79.748" x2="398.69" y1="126.12" y2="215.41" gradientTransform="translate(-9.4715 -45.041)" gradientUnits="userSpaceOnUse" xlink:href="#linearGradient17780-7"/>
  <linearGradient id="linearGradient11302" x1="27.452" x2="360.44" y1="943.3" y2="1121.4" gradientTransform="translate(-9.3452 -779.01)" gradientUnits="userSpaceOnUse" xlink:href="#linearGradient17780-7"/>
  <linearGradient id="linearGradient11305" x1="-133.57" x2="367.03" y1="-15.518" y2="256.26" gradientTransform="translate(-9.3452 -45.546)" gradientUnits="userSpaceOnUse" xlink:href="#linearGradient17780-7"/>
  <linearGradient id="linearGradient11308" x1="194.01" x2="372.68" y1="226.5" y2="327.22" gradientTransform="translate(-9.3452 -45.546)" gradientUnits="userSpaceOnUse" xlink:href="#linearGradient17780-7"/>
  <filter id="filter12295" x="-.17131" y="-.070369" width="1.3426" height="1.1407" color-interpolation-filters="sRGB">
   <feBlend in2="BackgroundImage" mode="screen"/>
  </filter>
  <linearGradient id="linearGradient14447" x1="359.82" x2="869.37" y1="892.63" y2="1074.2" gradientTransform="translate(38.992 11.598)" gradientUnits="userSpaceOnUse" xlink:href="#linearGradient17780-7"/>
  <linearGradient id="linearGradient8371" x1="331.18" x2="840.73" y1="900.15" y2="1081.7" gradientTransform="translate(67.632 4.0759)" gradientUnits="userSpaceOnUse">
   <stop stop-color="#4d4d4d" offset="0"/>
   <stop stop-color="#4d4d4d" offset="1"/>
  </linearGradient>
  <filter id="filter12295-5" x="-.0018385" y="-.0040103" width="1.0038" height="1.008" color-interpolation-filters="sRGB">
   <feBlend in2="BackgroundImage" mode="screen"/>
  </filter>
  <filter id="filter12295-6" x="0" y="0" width="1" height="1" color-interpolation-filters="sRGB">
   <feBlend in2="BackgroundImage" mode="screen"/>
  </filter>
  <filter id="filter12295-6-2" x="0" y="0" width="1" height="1" color-interpolation-filters="sRGB">
   <feBlend in2="BackgroundImage" mode="screen"/>
  </filter>
 </defs>
 <g transform="matrix(1.565 0 0 1.565 -309.05 -1293.5)" filter="url(#filter12295)">
  <g transform="rotate(180 422.42 897.58)" enable-background="new" fill="#000000" filter="url(#filter12295)" stroke="#000000" stroke-linecap="round" stroke-linejoin="round">
   <path d="m413.42 844.77-9.3542 21.875" stroke-width=".88583"/>
   <path d="m403.4 870.45 7.7709-9.6928-7.7049-2.8478z" stroke-width=".99921"/>
  </g>
  <g fill="none" stroke="#d4aa00" stroke-linecap="round" stroke-linejoin="round" stroke-width="1.3429">
   <path d="m492.08 895.09 3.9196-9.542" enable-background="new" filter="url(#filter12295)"/>
   <path d="m476.51 919.18 3.9196-9.542" enable-background="new" filter="url(#filter12295)"/>
   <path d="m510.07 915.22 3.9196-9.542" enable-background="new" filter="url(#filter12295)"/>
   <path d="m533.88 941.02 3.9196-9.542" enable-background="new" filter="url(#filter12295)"/>
   <path d="m498.22 944.45 3.9196-9.542" enable-background="new" filter="url(#filter12295)"/>
   <path d="m456.62 952.13 3.9196-9.542" enable-background="new"/>
   <path d="m433.04 926.78 3.9196-9.542" enable-background="new" filter="url(#filter12295)"/>
   <path d="m456.61 897.67 3.9196-9.542" enable-background="new" filter="url(#filter12295)"/>
  </g>
  <path d="m459.35 947.81s-56.865-62.453-56.626-62.512l104.39-16.566 57.164 63.168z" enable-background="new" fill="url(#linearGradient14447)" filter="url(#filter12295-5)" opacity=".481" stroke="url(#linearGradient8371)" stroke-linecap="round" stroke-linejoin="round" stroke-width=".63425"/>
  <g transform="translate(35.357 29.643)" fill="#000000" stroke="#000000" stroke-linecap="round" stroke-linejoin="round">
   <path d="m413.42 844.77-9.3542 21.875" stroke-width=".88583"/>
   <path d="m403.4 870.45 7.7709-9.6928-7.7049-2.8478z" stroke-width=".99921"/>
  </g>
  <g fill="#000000">
   <circle transform="matrix(.16515 0 0 .16515 395.44 884.96)" cx="272.23" cy="153.45" r="11.875" enable-background="new" filter="url(#filter12295-6-2)"/>
   <circle transform="matrix(.16515 0 0 .16515 418.32 910.52)" cx="272.23" cy="153.45" r="11.875" enable-background="new" filter="url(#filter12295-6-2)"/>
   <circle transform="matrix(.16515 0 0 .16515 437.08 878.44)" cx="272.23" cy="153.45" r="11.875" enable-background="new" filter="url(#filter12295-6-2)"/>
   <circle transform="matrix(.16515 0 0 .16515 454.28 851.72)" cx="272.23" cy="153.45" r="11.875" enable-background="new" filter="url(#filter12295-6-2)"/>
   <circle transform="matrix(.16515 0 0 .16515 472.71 872.89)" cx="272.23" cy="153.45" r="11.875" enable-background="new" filter="url(#filter12295-6-2)"/>
   <circle transform="matrix(.16515 0 0 .16515 495.91 898.52)" cx="272.23" cy="153.45" r="11.875" enable-background="new" filter="url(#filter12295-6-2)"/>
   <circle transform="matrix(.16515 0 0 .16515 417.96 857.2)" cx="272.23" cy="153.45" r="11.875" enable-background="new" filter="url(#filter12295-6-2)"/>
   <circle transform="matrix(.16515 0 0 .16515 459.51 903.27)" cx="272.23" cy="153.45" r="11.875" enable-background="new" filter="url(#filter12295-6)"/>
  </g>
  <g fill="none" stroke="#d4aa00" stroke-linecap="round" stroke-linejoin="round" stroke-width="1.3429">
   <path d="m519.79 893.17 3.9196-9.542" enable-background="new"/>
   <path d="m543.06 918.08 3.9196-9.542" enable-background="new"/>
   <path d="m465.64 877.21 3.9196-9.542" enable-background="new"/>
   <path d="m484.59 898.39 3.9196-9.542" enable-background="new"/>
   <path d="m506.45 923.72 3.9196-9.542" enable-background="new"/>
   <path d="m442.88 905.29 3.9196-9.542" enable-background="new"/>
   <path d="m465.09 931.33 3.9196-9.542" enable-background="new"/>
   <path d="m501.26 871.79 3.9196-9.542" enable-background="new"/>
  </g>
 </g>
 <g stroke="#4d4d4d" stroke-width=".63425">
  <path d="m185.61 212.18 104.55-15.91-0.25254-46.539-104.93 15.91z" enable-background="new" fill="url(#linearGradient11308)" filter="url(#filter12295)" stroke-linecap="round" stroke-linejoin="round"/>
  <path d="m184.98 165.64c-16.826-19.762-39.216-35.588-37.376-58.715 0.40284-5.0622 6.0395-9.8263 10.11-11.396l73.516-10.608 58.679 64.809z" enable-background="new" fill="url(#linearGradient11305)" filter="url(#filter12295)" stroke-linecap="round" stroke-linejoin="round"/>
  <path d="m19.374 176.45-0.95019-59.929 152.05 32.141 14.631 17.109 0.37881 46.287z" enable-background="new" fill="url(#linearGradient11302)" filter="url(#filter12295)"/>
  <path d="m157.38 95.891-86.789-17.961 73.313-11.663 87.496 18.555z" enable-background="new" fill="url(#linearGradient11299)" filter="url(#filter12295)"/>
 </g>
 <path d="m70.676 77.967c-7.0327 0.54317-13.734 1.6388-20.052 3.3723-19.202 5.3751-30.812 18.49-32.396 35.77l152.42 31.694c-0.0147 0.0632-24.622-25.437-23.247-41.123 0.44541-5.0829 6.5347-10.356 9.7356-11.812z" enable-background="new" fill="url(#linearGradient11296)" filter="url(#filter12295)" stroke="#4d4d4d" stroke-linecap="round" stroke-linejoin="round" stroke-width=".63425"/>
 <g fill="#000000">
  <circle transform="matrix(.16515 0 0 .16515 121.87 105.38)" cx="272.23" cy="153.45" r="11.875" enable-background="new" filter="url(#filter12295)"/>
  <circle transform="matrix(.16515 0 0 .16515 142.42 132.73)" cx="272.23" cy="153.45" r="11.875" enable-background="new" filter="url(#filter12295)"/>
  <circle transform="matrix(.16515 0 0 .16515 184.58 126.51)" cx="272.23" cy="153.45" r="11.875" enable-background="new" filter="url(#filter12295)"/>
  <circle transform="matrix(.16515 0 0 .16515 161.36 99.39)" cx="272.23" cy="153.45" r="11.875" enable-background="new" filter="url(#filter12295)"/>
  <circle transform="matrix(.16515 0 0 .16515 140.28 73.505)" cx="272.23" cy="153.45" r="11.875" enable-background="new" filter="url(#filter12295)"/>
  <circle transform="matrix(.16515 0 0 .16515 183.58 68.254)" cx="272.23" cy="153.45" r="11.875" enable-background="new" filter="url(#filter12295)"/>
  <circle transform="matrix(.16515 0 0 .16515 205.56 92.95)" cx="272.23" cy="153.45" r="11.875" enable-background="new" filter="url(#filter12295)"/>
  <circle transform="matrix(.16515 0 0 .16515 110.35 114.67)" cx="272.23" cy="153.45" r="11.875" enable-background="new" filter="url(#filter12295)"/>
  <circle transform="matrix(.16515 0 0 .16515 80.677 101.92)" cx="272.23" cy="153.45" r="11.875" enable-background="new" filter="url(#filter12295)"/>
  <circle transform="matrix(.16515 0 0 .16515 86.359 87.647)" cx="272.23" cy="153.45" r="11.875" enable-background="new" filter="url(#filter12295)"/>
  <circle transform="matrix(.16515 0 0 .16515 94.314 77.672)" cx="272.23" cy="153.45" r="11.875" enable-background="new" filter="url(#filter12295)"/>
  <circle transform="matrix(.16515 0 0 .16515 50.498 95.097)" cx="272.23" cy="153.45" r="11.875" enable-background="new" filter="url(#filter12295)"/>
  <circle transform="matrix(.16515 0 0 .16515 55.802 81.207)" cx="272.23" cy="153.45" r="11.875" enable-background="new" filter="url(#filter12295)"/>
  <circle transform="matrix(.16515 0 0 .16515 63.757 71.232)" cx="272.23" cy="153.45" r="11.875" enable-background="new" filter="url(#filter12295)"/>
  <circle transform="matrix(.16515 0 0 .16515 20.068 88.405)" cx="272.23" cy="153.45" r="11.875" enable-background="new" filter="url(#filter12295)"/>
  <circle transform="matrix(.16515 0 0 .16515 25.75 74.515)" cx="272.23" cy="153.45" r="11.875" enable-background="new" filter="url(#filter12295)"/>
  <circle transform="matrix(.16515 0 0 .16515 33.705 64.54)" cx="272.23" cy="153.45" r="11.875" enable-background="new" filter="url(#filter12295)"/>
  <circle transform="matrix(.16515 0 0 .16515 -10.49 81.712)" cx="272.23" cy="153.45" r="11.875" enable-background="new" filter="url(#filter12295)"/>
  <circle transform="matrix(.16515 0 0 .16515 -4.6811 67.949)" cx="272.23" cy="153.45" r="11.875" enable-background="new" filter="url(#filter12295)"/>
  <circle transform="matrix(.16515 0 0 .16515 6.9356 58.1)" cx="272.23" cy="153.45" r="11.875" enable-background="new" filter="url(#filter12295)"/>
  <circle transform="matrix(.16515 0 0 .16515 225.37 120.73)" cx="272.23" cy="153.45" r="11.875" enable-background="new" filter="url(#filter12295)"/>
 </g>
 <g fill="none" stroke="#d4aa00" stroke-linecap="round" stroke-linejoin="round" stroke-width="1.3429">
  <path d="m272.87 139.98 3.0357-7.1429"/>
  <path d="m149.92 137.92-6.4286-0.17857"/>
  <path d="m136.33 99.383-4.1071-7.5"/>
  <path d="m90.258 119.75-6.4069-3.5102"/>
  <path d="m60.001 112.64-6.5657-3.2793"/>
  <path d="m30.149 105.56-7.0982-3.3482"/>
  <path d="m66.307 98.281-4.5982-4.0625"/>
  <path d="m96.976 104.98-5.0446-4.0625"/>
  <path d="m120.46 125.94-6.7857-2.5"/>
  <path d="m127.24 111.3-5.7143-5.3572"/>
  <path d="m106.4 93.072-3.5714-6.5179"/>
  <path d="m76.973 86.652-3.75-6.3393"/>
 </g>
 <path d="m49.187 80.23-3.6607-6.0714" fill="#ff0000" stroke="#d4aa00" stroke-linecap="round" stroke-linejoin="round" stroke-width="1.3429"/>
 <g fill="none" stroke-linecap="round" stroke-linejoin="round" stroke-width="1.3429">
  <g stroke="#d4aa00">
   <path d="m23.081 101.83-0.04464-5.7589"/>
   <path d="m45.143 73.249-0.14159-6.2717"/>
   <path d="m230.71 146.38 3.0357-7.1429"/>
  </g>
  <g stroke="#ff0000">
   <path d="m53.647 108.2v-4.1669"/>
   <path d="m83.51 115.65-0.0631-5.3664"/>
   <path d="m61.738 93.342v-4.589"/>
   <path d="m91.907 101.2v-5.3033"/>
  </g>
  <path d="m36.485 91.718-5.5357-4.8214" stroke="#d4aa00"/>
  <path d="m30.991 86.742-0.01083-5.3571" stroke="#d4aa00"/>
  <g stroke="#ff0000">
   <path d="m113.06 122.35-0.0631-5.1139"/>
   <path d="m23.195 95.868 89.781 21.055-0.19126-11.003-81.712-18.721"/>
   <path d="m142.64 129.98-119.64-27.857"/>
   <path d="m31.116 80.441 89.793 21.004 0.11099-11.335-75.907-15.992"/>
   <path d="m120.92 101.77 0.0631 3.5355"/>
   <path d="m131.95 86.458 0.037 4.6962"/>
   <path d="m44.95 67.146 86.893 18.341-0.26786-41.294"/>
  </g>
  <g stroke="#d4aa00">
   <path d="m190.39 152.12 3.0357-7.1429"/>
   <path d="m189.51 92.393 3.0357-7.1429"/>
   <path d="m169.05 125.6 3.0357-7.1429"/>
  </g>
  <g>
   <path d="m235.09 111.06-21.339 0.63134-0.25254-27.148-20.582 0.12627 0.63135 59.094" stroke="#ff0000"/>
   <path d="m210.22 120.17 3.0357-7.1429" stroke="#d4aa00"/>
   <path d="m251.95 113.61 3.0357-7.1429" stroke="#d4aa00"/>
   <path d="m276.13 109.29-132.95 5.3361 0.12667 11.709 0.1175 10.861" stroke="#ff0000"/>
   <path d="m230.61 87.721 2.72-6.9535" stroke="#d4aa00"/>
   <path d="m275.92 132.02 0.18755-24.621-21.342-0.81889 0.18755-26.097-21.315 0.0127 0.32649 57.735" opacity=".92593" stroke="#ff0000"/>
   <path d="m192.66 121.67-20.574-4.1395-1.6499-61.899" stroke="#ff0000"/>
  </g>
 </g>
 <g transform="translate(201.71 121.33)">
  <ellipse cx="-44.92" cy="-98.798" rx="13.199" ry="13.469" fill="#1f638a" stroke-linecap="round" stroke-linejoin="round" stroke-width="1.0658"/>
  <text x="-50.761276" y="-91.125885" fill="#000000" letter-spacing="0px" word-spacing="0px" style="line-height:0%" xml:space="preserve"><tspan x="-50.761276" y="-91.125885" fill="#ffffff" font-family="'Arial Nova', 'Arial Unicode MS', 'Yu Gothic UI', sans-serif" font-size="20px" stroke="#ffffff" stroke-width="1.0667" style="line-height:1.25">1</tspan></text>
 </g>
 <g transform="translate(438.53 121.33)">
  <ellipse cx="-13.718" cy="-98.798" rx="13.199" ry="13.469" fill="#1f638a" stroke-linecap="round" stroke-linejoin="round" stroke-width="1.0658"/>
  <text x="-19.559933" y="-91.125885" fill="#000000" letter-spacing="0px" word-spacing="0px" style="line-height:0%" xml:space="preserve"><tspan x="-19.559933" y="-91.125885" fill="#ffffff" font-family="'Arial Nova', 'Arial Unicode MS', 'Yu Gothic UI', sans-serif" font-size="20px" stroke="#ffffff" stroke-width="1.0667" style="line-height:1.25">2</tspan></text>
 </g>
</svg>
