<?xml version="1.0" encoding="UTF-8"?>
<svg width="13cm" height="8.5cm" version="1.1" xmlns="http://www.w3.org/2000/svg" xmlns:cc="http://creativecommons.org/ns#" xmlns:dc="http://purl.org/dc/elements/1.1/" xmlns:rdf="http://www.w3.org/1999/02/22-rdf-syntax-ns#">
 <title>Abbildung für OPEN MIND Softwaredokumentation</title>
 <metadata>
  <rdf:RDF>
   <cc:Work rdf:about="">
    <dc:format>image/svg+xml</dc:format>
    <dc:type rdf:resource="http://purl.org/dc/dcmitype/StillImage"/>
    <dc:title>Abbildung für OPEN MIND Softwaredokumentation</dc:title>
    <dc:creator>
     <cc:Agent>
      <dc:title>OPEN MIND Technologies AG</dc:title>
     </cc:Agent>
    </dc:creator>
    <dc:rights>
     <cc:Agent>
      <dc:title>Alle Rechte vorbehalten.</dc:title>
     </cc:Agent>
    </dc:rights>
    <dc:publisher>
     <cc:Agent>
      <dc:title>Technische Redaktion</dc:title>
     </cc:Agent>
    </dc:publisher>
   </cc:Work>
  </rdf:RDF>
 </metadata>
 <g transform="translate(0 -801.26)">
  <g transform="matrix(.70305 0 0 .70305 176.21 161.69)">
   <line x1="51.154" x2="93.499" y1="1079.2" y2="1079.2" fill="none" stroke="#e2001a" stroke-linecap="round" stroke-linejoin="round" stroke-miterlimit="10" stroke-width="2.0375"/>
   <line x1="51.036" x2="51.036" y1="1079" y2="1036.7" fill="none" stroke="#7ab51d" stroke-linecap="round" stroke-linejoin="round" stroke-miterlimit="10" stroke-width="2.0375"/>
   <text x="92.356812" y="1103.933" fill="#e2001a" font-family="'Arial Nova', 'Arial Unicode MS', 'Yu Gothic UI', sans-serif" font-size="21.884px" stroke-width="1.0667" style="line-height:0%">X</text>
   <text x="30.229645" y="1047.4303" fill="#7ab51d" font-family="'Arial Nova', 'Arial Unicode MS', 'Yu Gothic UI', sans-serif" font-size="21.884px" stroke-width="1.0667" style="line-height:0%">Y</text>
   <path d="m55.719 1047.7v0l-4.457-15.818-4.1456 15.836z" fill="#7ab51d" fill-rule="evenodd" stroke="#7ab51d" stroke-linecap="round" stroke-linejoin="round" stroke-width="1.516"/>
   <path d="m90.796 1083.6v0l15.939-4.4558-15.939-4.2107z" fill="#e2001a" fill-rule="evenodd" stroke="#e2001a" stroke-linecap="round" stroke-linejoin="round" stroke-width="1.516"/>
  </g>
  <path d="m-9.789 955.17" fill="#1f8ac7" stroke="#1f8ac7" stroke-linecap="square" stroke-miterlimit="10" stroke-width=".50938"/>
  <g>
   <path d="m159.91 852.61h-130.33c-15.165-0.09-15.347 19.832 2.632 18.82 25.412 0.8986 25.495 31.547-3.687 32.262-15.324 2.3779-9.3915 16.914 4.2121 16.801h127.16" fill="none" stroke="#d4aa00" stroke-width="3.0236"/>
   <g>
    <polyline transform="matrix(2.0375 0 0 2.0375 -123.55 777.5)" points="135.15 92.236 139.81 87.799 136.78 87.799 136.78 77.834 133.53 77.834 133.53 87.799 130.61 87.799 135.15 92.236" fill="#e2001a" stroke="#000" stroke-linecap="square" stroke-miterlimit="10" stroke-width=".33204"/>
    <polyline transform="matrix(2.0375 0 0 2.0375 -122.98 750.81)" points="135.15 43.112 139.81 38.676 136.78 38.676 136.78 28.71 133.53 28.71 133.53 38.676 130.61 38.676 135.15 43.112" fill="#e2001a" stroke="#000" stroke-linecap="square" stroke-miterlimit="10" stroke-width=".33204"/>
    <ellipse cx="151.79" cy="854.13" rx="15.167" ry="15.165" color="#000000" fill="#b3b3b3" fill-rule="evenodd" stroke="#333" stroke-linecap="round" stroke-linejoin="round" stroke-width=".67654"/>
    <ellipse cx="151.86" cy="920.74" rx="15.167" ry="15.165" color="#000000" fill="#b3b3b3" fill-rule="evenodd" stroke="#333" stroke-linecap="round" stroke-linejoin="round" stroke-width=".67654"/>
    <polyline transform="matrix(2.0375 0 0 2.0375 -215.42 748.71)" points="331.92 85.688 327.49 81.034 327.49 84.065 317.52 84.065 317.52 87.312 327.49 87.312 327.49 90.231 331.92 85.688" fill="#e2001a" stroke="#000" stroke-linecap="square" stroke-miterlimit="10" stroke-width=".33204"/>
    <polyline transform="matrix(2.0375 0 0 2.0375 -153.61 784.23)" points="287.09 35.137 291.53 39.791 291.53 36.76 301.49 36.76 301.49 33.514 291.53 33.514 291.53 30.594 287.09 35.137" fill="#e2001a" stroke="#000" stroke-linecap="round" stroke-linejoin="round" stroke-miterlimit="10" stroke-width=".33204"/>
   </g>
   <path d="m411.82 855.15h-130.33c-15.165-0.09-15.347 19.832 2.632 18.82 25.412 0.8985 25.494 31.547-3.687 32.262-15.324 2.3778-9.3915 16.913 4.2121 16.801h127.16" fill="none" stroke="#d4aa00" stroke-width="3.0236"/>
   <g stroke-linecap="round" stroke-linejoin="round" stroke-width=".67654">
    <ellipse cx="416.05" cy="854.99" rx="15.167" ry="15.165" color="#000000" fill="#b3b3b3" fill-rule="evenodd" stroke="#333"/>
    <ellipse cx="415.86" cy="923.58" rx="15.167" ry="15.165" color="#000000" fill="#b3b3b3" fill-rule="evenodd" stroke="#333"/>
    <path d="m165.17 1000.5 7.1689 7.262-0.0823-4.8069c12.007 0.3847 20.074-7.8019 23.008-18.639l-3.5818-2.4108c-4.0443 6.6124-6.9907 15.416-19.513 15.9l-0.0794-4.6363-6.9203 7.3309" fill="#e2001a" stroke="#000" stroke-miterlimit="10"/>
   </g>
   <path d="m431.38 1074.5c22.304-0.4601 22.156 33.443 0 34.266v-3.9676l-6.8375 7.2152 6.8375 6.8513v-4.3285c4.4188 1.8523 12.367-3.0115 15.459-6.1176 4.3843-4.4007 7.3057-10.299 7.2126-16.604-0.19956-13.181-9.9675-22.233-22.67-23.445v6.1312" fill="#e2001a" stroke="#000" stroke-linecap="square" stroke-linejoin="round" stroke-miterlimit="10" stroke-width=".67654"/>
   <g>
    <path d="m410.23 1001.3h-130.33c-15.165-0.09-15.347 19.832 2.632 18.82 25.412 0.8985 25.495 31.547-3.687 32.262-15.324 2.3779-9.3915 16.913 4.2121 16.801h127.16" fill="none" stroke="#d4aa00" stroke-width="3.0236"/>
    <ellipse cx="414.16" cy="1001.3" rx="15.167" ry="15.165" color="#000000" fill="#b3b3b3" fill-rule="evenodd" stroke="#333" stroke-linecap="round" stroke-linejoin="round" stroke-width=".67654"/>
    <ellipse cx="414.08" cy="1069.2" rx="15.167" ry="15.165" color="#000000" fill="#b3b3b3" fill-rule="evenodd" stroke="#333" stroke-linecap="round" stroke-linejoin="round" stroke-width=".67654"/>
    <path d="m160.48 1001.1h-130.33c-15.165-0.09-15.347 19.832 2.632 18.821 25.412 0.8985 25.495 31.547-3.687 32.262-15.324 2.3778-9.3915 16.913 4.2121 16.801h127.16" fill="none" stroke="#d4aa00" stroke-width="3.0236"/>
    <ellipse cx="149.76" cy="1001.2" rx="15.167" ry="15.165" color="#000000" fill="#b3b3b3" fill-rule="evenodd" stroke="#333" stroke-linecap="round" stroke-linejoin="round" stroke-width=".67654"/>
   </g>
   <path d="m436.95 966.43c22.304-0.46007 22.156 33.443 0 34.266v-3.9676l-6.8376 7.2151 6.8376 6.8513v-4.3285c4.4188 1.8523 12.367-3.0114 15.459-6.1176 4.3843-4.4006 7.3057-10.299 7.2127-16.604-0.19957-13.181-9.9675-22.233-22.67-23.445v6.1312" fill="#e2001a" stroke="#000" stroke-linecap="round" stroke-linejoin="round" stroke-miterlimit="10" stroke-width=".67654"/>
  </g>
  <g transform="translate(-79.869 165.8)">
   <line x1="235.9" x2="244.64" y1="931.71" y2="922.74" fill="none" stroke="#000" stroke-linecap="round" stroke-linejoin="round" stroke-miterlimit="10" stroke-width="1.4324"/>
   <circle cx="235.9" cy="931.72" r="1.7214" stroke-width="2.0815"/>
   <path d="m250.14 916.83-11.712 6.1997 6.3377 6.0502z" stroke="#000" stroke-linecap="round" stroke-linejoin="round" stroke-width="1.0658"/>
  </g>
  <path d="m180.18 1097.4 7.2621-7.169-4.8069 0.082c0.38473-12.007-7.802-20.074-18.639-23.008l-2.4108 3.5819c6.6124 4.0443 15.416 6.9906 15.9 19.513l-4.6363 0.079 7.3309 6.9203" fill="#e2001a" stroke="#000" stroke-linecap="round" stroke-linejoin="round" stroke-miterlimit="10" stroke-width=".67654"/>
  <ellipse cx="149.52" cy="1069.5" rx="15.167" ry="15.165" color="#000000" fill="#b3b3b3" fill-rule="evenodd" stroke="#333" stroke-linecap="round" stroke-linejoin="round" stroke-width=".67654"/>
  <g transform="rotate(90 178.49 919.18)">
   <line x1="235.9" x2="244.64" y1="931.71" y2="922.74" fill="none" stroke="#000" stroke-linecap="round" stroke-linejoin="round" stroke-miterlimit="10" stroke-width="1.4324"/>
   <circle cx="235.9" cy="931.72" r="1.7214" stroke-width="2.0815"/>
   <path d="m250.14 916.83-11.712 6.1997 6.3377 6.0502z" stroke="#000" stroke-linecap="round" stroke-linejoin="round" stroke-width="1.0658"/>
  </g>
  <g transform="rotate(45.703 271.18 1189.3)">
   <line x1="235.9" x2="244.64" y1="931.71" y2="922.74" fill="none" stroke="#000" stroke-linecap="round" stroke-linejoin="round" stroke-miterlimit="10" stroke-width="1.4324"/>
   <circle cx="235.9" cy="931.72" r="1.7214" stroke-width="2.0815"/>
   <path d="m250.14 916.83-11.712 6.1997 6.3377 6.0502z" stroke="#000" stroke-linecap="round" stroke-linejoin="round" stroke-width="1.0658"/>
  </g>
  <g transform="rotate(45.703 138.96 1235.2)">
   <line x1="235.9" x2="244.64" y1="931.71" y2="922.74" fill="none" stroke="#000" stroke-linecap="round" stroke-linejoin="round" stroke-miterlimit="10" stroke-width="1.4324"/>
   <circle cx="235.9" cy="931.72" r="1.7214" stroke-width="2.0815"/>
   <path d="m250.14 916.83-11.712 6.1997 6.3377 6.0502z" stroke="#000" stroke-linecap="round" stroke-linejoin="round" stroke-width="1.0658"/>
  </g>
  <g transform="translate(168.86 986.13)">
   <ellipse cx="-44.92" cy="-98.798" rx="13.199" ry="13.469" fill="#1f638a" stroke-linecap="round" stroke-linejoin="round" stroke-width="1.0658"/>
   <text x="-50.761276" y="-91.125885" fill="#000000" font-family="'Arial Nova', 'Arial Unicode MS', 'Yu Gothic UI', sans-serif" font-size="12.8px" letter-spacing="0px" stroke-width="1.0667" word-spacing="0px" style="line-height:0%" xml:space="preserve"><tspan x="-50.761276" y="-91.125885" fill="#ffffff" font-family="'Arial Nova', 'Arial Unicode MS', 'Yu Gothic UI', sans-serif" font-size="21.333px" stroke="#ffffff" stroke-width="1.0667" style="line-height:1.25">1</tspan></text>
  </g>
  <g transform="translate(403.7 986.13)">
   <ellipse cx="-13.718" cy="-98.798" rx="13.199" ry="13.469" fill="#1f638a" stroke-linecap="round" stroke-linejoin="round" stroke-width="1.0658"/>
   <text x="-19.559933" y="-91.125885" fill="#000000" font-family="'Arial Nova', 'Arial Unicode MS', 'Yu Gothic UI', sans-serif" font-size="12.8px" letter-spacing="0px" stroke-width="1.0667" word-spacing="0px" style="line-height:0%" xml:space="preserve"><tspan x="-19.559933" y="-91.125885" fill="#ffffff" font-family="'Arial Nova', 'Arial Unicode MS', 'Yu Gothic UI', sans-serif" font-size="21.333px" stroke="#ffffff" stroke-width="1.0667" style="line-height:1.25">2</tspan></text>
  </g>
  <g transform="translate(106.46 1135.1)">
   <ellipse cx="17.483" cy="-98.798" rx="13.199" ry="13.469" fill="#1f638a" stroke-linecap="round" stroke-linejoin="round" stroke-width="1.0658"/>
   <text x="11.641406" y="-91.256096" fill="#000000" font-family="'Arial Nova', 'Arial Unicode MS', 'Yu Gothic UI', sans-serif" font-size="12.8px" letter-spacing="0px" stroke-width="1.0667" word-spacing="0px" style="line-height:0%" xml:space="preserve"><tspan x="11.641406" y="-91.256096" fill="#ffffff" font-family="'Arial Nova', 'Arial Unicode MS', 'Yu Gothic UI', sans-serif" font-size="21.333px" stroke="#ffffff" stroke-width="1.0667" style="line-height:1.25">3</tspan></text>
  </g>
  <g transform="translate(-13.263 887.72)">
   <g transform="translate(354.56 247.34)">
    <ellipse cx="48.684" cy="-98.798" rx="13.199" ry="13.469" fill="#1f638a" stroke-linecap="round" stroke-linejoin="round" stroke-width="1.0658"/>
    <text x="42.842751" y="-91.162346" fill="#000000" font-family="'Arial Nova', 'Arial Unicode MS', 'Yu Gothic UI', sans-serif" font-size="12.8px" letter-spacing="0px" stroke-width="1.0667" word-spacing="0px" style="line-height:0%" xml:space="preserve"><tspan x="42.842751" y="-91.162346" fill="#ffffff" font-family="'Arial Nova', 'Arial Unicode MS', 'Yu Gothic UI', sans-serif" font-size="21.333px" stroke="#ffffff" stroke-width="1.0667" style="line-height:1.25">4</tspan></text>
   </g>
  </g>
 </g>
</svg>
