<?xml version="1.0" encoding="UTF-8" standalone="no"?>
<svg
   width="18cm"
   height="5.5cm"
   overflow="visible"
   version="1.0"
   viewBox="5.7235 -83.927 680.31 207.87"
   id="svg19912"
   sodipodi:docname="Flaeche_verlaengern_E2.svg"
   inkscape:version="1.2.2 (732a01da63, 2022-12-09)"
   xmlns:inkscape="http://www.inkscape.org/namespaces/inkscape"
   xmlns:sodipodi="http://sodipodi.sourceforge.net/DTD/sodipodi-0.dtd"
   xmlns:xlink="http://www.w3.org/1999/xlink"
   xmlns="http://www.w3.org/2000/svg"
   xmlns:svg="http://www.w3.org/2000/svg">
  <sodipodi:namedview
     id="namedview19914"
     pagecolor="#ffffff"
     bordercolor="#666666"
     borderopacity="1.0"
     inkscape:showpageshadow="2"
     inkscape:pageopacity="0.0"
     inkscape:pagecheckerboard="0"
     inkscape:deskcolor="#d1d1d1"
     inkscape:document-units="cm"
     showgrid="false"
     showguides="true"
     inkscape:zoom="1.6055609"
     inkscape:cx="426.01933"
     inkscape:cy="16.816553"
     inkscape:window-width="1920"
     inkscape:window-height="1017"
     inkscape:window-x="1912"
     inkscape:window-y="-8"
     inkscape:window-maximized="1"
     inkscape:current-layer="svg19912">
    <sodipodi:guide
       position="151.34787,172.9919"
       orientation="0,-1"
       id="guide20183"
       inkscape:locked="false" />
    <sodipodi:guide
       position="134.53144,6.698091"
       orientation="0,-1"
       id="guide20305"
       inkscape:locked="false" />
  </sodipodi:namedview>
  <defs
     id="defs19744">
    <linearGradient
       id="linearGradient6218-7-4-0-5-2-09">
      <stop
         stop-color="#ff8500"
         offset="0"
         id="stop19698" />
      <stop
         stop-color="#fff"
         offset="1"
         id="stop19700" />
    </linearGradient>
    <linearGradient
       id="linearGradient17780">
      <stop
         stop-color="#fff"
         offset="0"
         id="stop19703" />
      <stop
         stop-color="#00385e"
         offset="1"
         id="stop19705" />
    </linearGradient>
    <linearGradient
       id="linearGradient7747-2-1">
      <stop
         stop-color="#fff"
         offset="0"
         id="stop19708" />
      <stop
         stop-color="#808080"
         offset="1"
         id="stop19710" />
    </linearGradient>
    <linearGradient
       id="linearGradient22624-8"
       x1="873.4"
       x2="509.17"
       y1="-.34545"
       y2="-4.1669"
       gradientUnits="userSpaceOnUse"
       xlink:href="#linearGradient17780" />
    <linearGradient
       id="linearGradient22606-1"
       x1="339.49"
       x2="965.64"
       y1="4.012"
       y2="-.64624"
       gradientUnits="userSpaceOnUse"
       xlink:href="#linearGradient17780" />
    <linearGradient
       id="linearGradient36310-1"
       x1="920.28"
       x2="453.12"
       y1="197.24"
       y2="214.43"
       gradientUnits="userSpaceOnUse"
       xlink:href="#linearGradient17780" />
    <linearGradient
       id="linearGradient35655-6"
       x1="725.57"
       x2="124.17"
       y1="499.3"
       y2="129.99"
       gradientTransform="translate(139.49,-9.2122)"
       gradientUnits="userSpaceOnUse"
       xlink:href="#linearGradient17780" />
    <linearGradient
       id="linearGradient35673-1"
       x1="222.79"
       x2="78.136"
       y1="208.01"
       y2="102.92"
       gradientTransform="translate(139.49,-9.2122)"
       gradientUnits="userSpaceOnUse"
       xlink:href="#linearGradient17780" />
    <linearGradient
       id="linearGradient38082"
       x1="211.95"
       x2="191.74"
       y1="69.615"
       y2="-28.88"
       gradientTransform="translate(275.99,-12.154)"
       gradientUnits="userSpaceOnUse"
       xlink:href="#linearGradient6218-7-4-0-5-2-09" />
    <linearGradient
       id="linearGradient38084"
       x1="143.08"
       x2="168.92"
       y1="-31.615"
       y2="2.1624"
       gradientTransform="translate(275.99,-12.154)"
       gradientUnits="userSpaceOnUse"
       xlink:href="#linearGradient7747-2-1" />
    <linearGradient
       id="linearGradient38118"
       x1="211.95"
       x2="191.74"
       y1="69.615"
       y2="-28.88"
       gradientTransform="translate(373.88,179.56)"
       gradientUnits="userSpaceOnUse"
       xlink:href="#linearGradient6218-7-4-0-5-2-09" />
    <linearGradient
       id="linearGradient38120"
       x1="143.08"
       x2="168.92"
       y1="-31.615"
       y2="2.1624"
       gradientTransform="translate(373.88,179.56)"
       gradientUnits="userSpaceOnUse"
       xlink:href="#linearGradient7747-2-1" />
    <linearGradient
       id="linearGradient38136"
       x1="503.39"
       x2="795.44"
       y1="127.46"
       y2="303.77"
       gradientUnits="userSpaceOnUse"
       xlink:href="#linearGradient17780" />
    <linearGradient
       id="linearGradient38150"
       x1="267.98"
       x2="283.03"
       y1="17.332"
       y2="36.247"
       gradientTransform="translate(145.51,178.23)"
       gradientUnits="userSpaceOnUse"
       xlink:href="#linearGradient7747-2-1" />
    <linearGradient
       id="linearGradient38152"
       x1="211.95"
       x2="191.74"
       y1="69.615"
       y2="-28.88"
       gradientTransform="translate(145.51,178.23)"
       gradientUnits="userSpaceOnUse"
       xlink:href="#linearGradient6218-7-4-0-5-2-09" />
    <linearGradient
       id="linearGradient38154"
       x1="143.08"
       x2="168.92"
       y1="-31.615"
       y2="2.1624"
       gradientTransform="translate(145.51,178.23)"
       gradientUnits="userSpaceOnUse"
       xlink:href="#linearGradient7747-2-1" />
    <linearGradient
       id="linearGradient2302"
       x1="267.98"
       x2="283.03"
       y1="17.332"
       y2="36.247"
       gradientTransform="translate(373.88,179.56)"
       gradientUnits="userSpaceOnUse"
       xlink:href="#linearGradient7747-2-1" />
    <linearGradient
       id="linearGradient2304"
       x1="249.97"
       x2="283.03"
       y1="2.4698"
       y2="36.247"
       gradientTransform="translate(373.88,207.39)"
       gradientUnits="userSpaceOnUse"
       xlink:href="#linearGradient7747-2-1" />
    <linearGradient
       id="linearGradient2421"
       x1="249.97"
       x2="283.03"
       y1="2.4698"
       y2="36.247"
       gradientTransform="translate(145.51,206.06)"
       gradientUnits="userSpaceOnUse"
       xlink:href="#linearGradient7747-2-1" />
    <linearGradient
       id="linearGradient2476"
       x1="267.98"
       x2="283.03"
       y1="17.332"
       y2="36.247"
       gradientTransform="translate(-83.144,6.8724)"
       gradientUnits="userSpaceOnUse"
       xlink:href="#linearGradient7747-2-1" />
    <linearGradient
       id="linearGradient2478"
       x1="249.97"
       x2="283.03"
       y1="2.4698"
       y2="36.247"
       gradientTransform="translate(-83.144,34.702)"
       gradientUnits="userSpaceOnUse"
       xlink:href="#linearGradient7747-2-1" />
    <linearGradient
       id="linearGradient2515"
       x1="249.97"
       x2="283.03"
       y1="2.4698"
       y2="36.247"
       gradientTransform="translate(-191.18,-73.623)"
       gradientUnits="userSpaceOnUse"
       xlink:href="#linearGradient7747-2-1" />
    <linearGradient
       id="linearGradient2561"
       x1="249.97"
       x2="283.03"
       y1="2.4698"
       y2="36.247"
       gradientTransform="translate(37.475,97.737)"
       gradientUnits="userSpaceOnUse"
       xlink:href="#linearGradient7747-2-1" />
    <linearGradient
       id="linearGradient2584"
       x1="249.97"
       x2="283.03"
       y1="2.4698"
       y2="36.247"
       gradientTransform="translate(265.85,99.07)"
       gradientUnits="userSpaceOnUse"
       xlink:href="#linearGradient7747-2-1" />
    <linearGradient
       id="linearGradient3492"
       x1="289.08"
       x2="352.88"
       y1="-10.227"
       y2="48.096"
       gradientTransform="translate(229.75,60.544)"
       gradientUnits="userSpaceOnUse"
       xlink:href="#linearGradient7747-2-1" />
    <linearGradient
       id="linearGradient3494"
       x1="276.3"
       x2="352.88"
       y1="4.8703"
       y2="48.096"
       gradientTransform="translate(229.75,60.544)"
       gradientUnits="userSpaceOnUse"
       xlink:href="#linearGradient7747-2-1" />
    <linearGradient
       id="linearGradient3525"
       x1="289.08"
       x2="352.88"
       y1="-10.227"
       y2="48.096"
       gradientTransform="translate(0.9685,60.544)"
       gradientUnits="userSpaceOnUse"
       xlink:href="#linearGradient7747-2-1" />
    <linearGradient
       id="linearGradient3527"
       x1="276.3"
       x2="352.88"
       y1="4.8703"
       y2="48.096"
       gradientTransform="translate(0.9685,60.544)"
       gradientUnits="userSpaceOnUse"
       xlink:href="#linearGradient7747-2-1" />
    <linearGradient
       id="linearGradient3558"
       x1="289.08"
       x2="352.88"
       y1="-10.227"
       y2="48.096"
       gradientTransform="translate(-227.54,61.203)"
       gradientUnits="userSpaceOnUse"
       xlink:href="#linearGradient7747-2-1" />
    <linearGradient
       id="linearGradient3560"
       x1="276.3"
       x2="352.88"
       y1="4.8703"
       y2="48.096"
       gradientTransform="translate(-227.54,61.203)"
       gradientUnits="userSpaceOnUse"
       xlink:href="#linearGradient7747-2-1" />
    <clipPath
       id="clipPath19742">
      <use
         width="100%"
         height="100%"
         xlink:href="#g3866"
         id="use19740" />
    </clipPath>
    <linearGradient
       inkscape:collect="always"
       xlink:href="#linearGradient17780"
       id="linearGradient20033"
       gradientUnits="userSpaceOnUse"
       x1="873.4"
       y1="-.34545"
       x2="509.17"
       y2="-4.1669" />
    <linearGradient
       inkscape:collect="always"
       xlink:href="#linearGradient17780"
       id="linearGradient20035"
       gradientUnits="userSpaceOnUse"
       x1="873.4"
       y1="-.34545"
       x2="509.17"
       y2="-4.1669" />
    <linearGradient
       inkscape:collect="always"
       xlink:href="#linearGradient17780"
       id="linearGradient20037"
       gradientUnits="userSpaceOnUse"
       x1="873.4"
       y1="-.34545"
       x2="509.17"
       y2="-4.1669" />
    <linearGradient
       inkscape:collect="always"
       xlink:href="#linearGradient17780"
       id="linearGradient20039"
       gradientUnits="userSpaceOnUse"
       x1="873.4"
       y1="-.34545"
       x2="509.17"
       y2="-4.1669" />
    <linearGradient
       inkscape:collect="always"
       xlink:href="#linearGradient17780"
       id="linearGradient20041"
       gradientUnits="userSpaceOnUse"
       x1="873.4"
       y1="-.34545"
       x2="509.17"
       y2="-4.1669" />
    <linearGradient
       inkscape:collect="always"
       xlink:href="#linearGradient17780"
       id="linearGradient20043"
       gradientUnits="userSpaceOnUse"
       x1="873.4"
       y1="-.34545"
       x2="509.17"
       y2="-4.1669" />
    <linearGradient
       inkscape:collect="always"
       xlink:href="#linearGradient17780"
       id="linearGradient20045"
       gradientUnits="userSpaceOnUse"
       x1="873.4"
       y1="-.34545"
       x2="509.17"
       y2="-4.1669" />
    <linearGradient
       inkscape:collect="always"
       xlink:href="#linearGradient17780"
       id="linearGradient20047"
       gradientUnits="userSpaceOnUse"
       x1="873.4"
       y1="-.34545"
       x2="509.17"
       y2="-4.1669" />
    <linearGradient
       inkscape:collect="always"
       xlink:href="#linearGradient17780"
       id="linearGradient20049"
       gradientUnits="userSpaceOnUse"
       x1="339.49"
       y1="4.012"
       x2="965.64"
       y2="-.64624" />
    <linearGradient
       inkscape:collect="always"
       xlink:href="#linearGradient17780"
       id="linearGradient20051"
       gradientUnits="userSpaceOnUse"
       x1="339.49"
       y1="4.012"
       x2="965.64"
       y2="-.64624" />
    <linearGradient
       inkscape:collect="always"
       xlink:href="#linearGradient17780"
       id="linearGradient20053"
       gradientUnits="userSpaceOnUse"
       x1="339.49"
       y1="4.012"
       x2="965.64"
       y2="-.64624" />
    <linearGradient
       inkscape:collect="always"
       xlink:href="#linearGradient17780"
       id="linearGradient20055"
       gradientUnits="userSpaceOnUse"
       x1="339.49"
       y1="4.012"
       x2="965.64"
       y2="-.64624" />
    <linearGradient
       inkscape:collect="always"
       xlink:href="#linearGradient17780"
       id="linearGradient20057"
       gradientUnits="userSpaceOnUse"
       x1="339.49"
       y1="4.012"
       x2="965.64"
       y2="-.64624" />
    <linearGradient
       inkscape:collect="always"
       xlink:href="#linearGradient17780"
       id="linearGradient20059"
       gradientUnits="userSpaceOnUse"
       x1="339.49"
       y1="4.012"
       x2="965.64"
       y2="-.64624" />
    <linearGradient
       inkscape:collect="always"
       xlink:href="#linearGradient17780"
       id="linearGradient20061"
       gradientUnits="userSpaceOnUse"
       x1="339.49"
       y1="4.012"
       x2="965.64"
       y2="-.64624" />
    <linearGradient
       inkscape:collect="always"
       xlink:href="#linearGradient17780"
       id="linearGradient20063"
       gradientUnits="userSpaceOnUse"
       x1="339.49"
       y1="4.012"
       x2="965.64"
       y2="-.64624" />
    <linearGradient
       inkscape:collect="always"
       xlink:href="#linearGradient17780"
       id="linearGradient20065"
       gradientUnits="userSpaceOnUse"
       gradientTransform="translate(139.49,-9.2122)"
       x1="725.57"
       y1="499.3"
       x2="124.17"
       y2="129.99" />
    <linearGradient
       inkscape:collect="always"
       xlink:href="#linearGradient17780"
       id="linearGradient20067"
       gradientUnits="userSpaceOnUse"
       gradientTransform="translate(139.49,-9.2122)"
       x1="725.57"
       y1="499.3"
       x2="124.17"
       y2="129.99" />
    <linearGradient
       inkscape:collect="always"
       xlink:href="#linearGradient17780"
       id="linearGradient20069"
       gradientUnits="userSpaceOnUse"
       gradientTransform="translate(139.49,-9.2122)"
       x1="725.57"
       y1="499.3"
       x2="124.17"
       y2="129.99" />
    <linearGradient
       inkscape:collect="always"
       xlink:href="#linearGradient17780"
       id="linearGradient20071"
       gradientUnits="userSpaceOnUse"
       gradientTransform="translate(139.49,-9.2122)"
       x1="725.57"
       y1="499.3"
       x2="124.17"
       y2="129.99" />
    <linearGradient
       inkscape:collect="always"
       xlink:href="#linearGradient17780"
       id="linearGradient20073"
       gradientUnits="userSpaceOnUse"
       gradientTransform="translate(139.49,-9.2122)"
       x1="725.57"
       y1="499.3"
       x2="124.17"
       y2="129.99" />
    <linearGradient
       inkscape:collect="always"
       xlink:href="#linearGradient17780"
       id="linearGradient20075"
       gradientUnits="userSpaceOnUse"
       gradientTransform="translate(139.49,-9.2122)"
       x1="725.57"
       y1="499.3"
       x2="124.17"
       y2="129.99" />
    <linearGradient
       inkscape:collect="always"
       xlink:href="#linearGradient17780"
       id="linearGradient20077"
       gradientUnits="userSpaceOnUse"
       gradientTransform="translate(139.49,-9.2122)"
       x1="222.79"
       y1="208.01"
       x2="78.136"
       y2="102.92" />
    <linearGradient
       inkscape:collect="always"
       xlink:href="#linearGradient17780"
       id="linearGradient20079"
       gradientUnits="userSpaceOnUse"
       gradientTransform="translate(139.49,-9.2122)"
       x1="222.79"
       y1="208.01"
       x2="78.136"
       y2="102.92" />
    <linearGradient
       inkscape:collect="always"
       xlink:href="#linearGradient17780"
       id="linearGradient20081"
       gradientUnits="userSpaceOnUse"
       gradientTransform="translate(139.49,-9.2122)"
       x1="222.79"
       y1="208.01"
       x2="78.136"
       y2="102.92" />
    <linearGradient
       inkscape:collect="always"
       xlink:href="#linearGradient17780"
       id="linearGradient20083"
       gradientUnits="userSpaceOnUse"
       gradientTransform="translate(139.49,-9.2122)"
       x1="222.79"
       y1="208.01"
       x2="78.136"
       y2="102.92" />
    <linearGradient
       inkscape:collect="always"
       xlink:href="#linearGradient17780"
       id="linearGradient20085"
       gradientUnits="userSpaceOnUse"
       gradientTransform="translate(139.49,-9.2122)"
       x1="222.79"
       y1="208.01"
       x2="78.136"
       y2="102.92" />
    <linearGradient
       inkscape:collect="always"
       xlink:href="#linearGradient17780"
       id="linearGradient20087"
       gradientUnits="userSpaceOnUse"
       gradientTransform="translate(139.49,-9.2122)"
       x1="222.79"
       y1="208.01"
       x2="78.136"
       y2="102.92" />
    <linearGradient
       inkscape:collect="always"
       xlink:href="#linearGradient17780"
       id="linearGradient20089"
       gradientUnits="userSpaceOnUse"
       x1="920.28"
       y1="197.24"
       x2="453.12"
       y2="214.43" />
    <linearGradient
       inkscape:collect="always"
       xlink:href="#linearGradient17780"
       id="linearGradient20091"
       gradientUnits="userSpaceOnUse"
       x1="920.28"
       y1="197.24"
       x2="453.12"
       y2="214.43" />
    <linearGradient
       inkscape:collect="always"
       xlink:href="#linearGradient17780"
       id="linearGradient20093"
       gradientUnits="userSpaceOnUse"
       x1="920.28"
       y1="197.24"
       x2="453.12"
       y2="214.43" />
    <linearGradient
       inkscape:collect="always"
       xlink:href="#linearGradient17780"
       id="linearGradient20095"
       gradientUnits="userSpaceOnUse"
       x1="920.28"
       y1="197.24"
       x2="453.12"
       y2="214.43" />
    <linearGradient
       inkscape:collect="always"
       xlink:href="#linearGradient17780"
       id="linearGradient20097"
       gradientUnits="userSpaceOnUse"
       x1="920.28"
       y1="197.24"
       x2="453.12"
       y2="214.43" />
    <linearGradient
       inkscape:collect="always"
       xlink:href="#linearGradient17780"
       id="linearGradient20099"
       gradientUnits="userSpaceOnUse"
       x1="920.28"
       y1="197.24"
       x2="453.12"
       y2="214.43" />
    <linearGradient
       inkscape:collect="always"
       xlink:href="#linearGradient17780"
       id="linearGradient20101"
       gradientUnits="userSpaceOnUse"
       x1="920.28"
       y1="197.24"
       x2="453.12"
       y2="214.43" />
    <linearGradient
       inkscape:collect="always"
       xlink:href="#linearGradient17780"
       id="linearGradient20103"
       gradientUnits="userSpaceOnUse"
       x1="503.39"
       y1="127.46"
       x2="795.44"
       y2="303.77" />
    <linearGradient
       inkscape:collect="always"
       xlink:href="#linearGradient17780"
       id="linearGradient20105"
       gradientUnits="userSpaceOnUse"
       x1="503.39"
       y1="127.46"
       x2="795.44"
       y2="303.77" />
    <linearGradient
       inkscape:collect="always"
       xlink:href="#linearGradient17780"
       id="linearGradient20107"
       gradientUnits="userSpaceOnUse"
       x1="503.39"
       y1="127.46"
       x2="795.44"
       y2="303.77" />
    <linearGradient
       inkscape:collect="always"
       xlink:href="#linearGradient17780"
       id="linearGradient20109"
       gradientUnits="userSpaceOnUse"
       x1="503.39"
       y1="127.46"
       x2="795.44"
       y2="303.77" />
    <linearGradient
       inkscape:collect="always"
       xlink:href="#linearGradient17780"
       id="linearGradient20111"
       gradientUnits="userSpaceOnUse"
       x1="503.39"
       y1="127.46"
       x2="795.44"
       y2="303.77" />
    <linearGradient
       inkscape:collect="always"
       xlink:href="#linearGradient17780"
       id="linearGradient20113"
       gradientUnits="userSpaceOnUse"
       x1="503.39"
       y1="127.46"
       x2="795.44"
       y2="303.77" />
    <linearGradient
       inkscape:collect="always"
       xlink:href="#linearGradient17780"
       id="linearGradient20115"
       gradientUnits="userSpaceOnUse"
       x1="503.39"
       y1="127.46"
       x2="795.44"
       y2="303.77" />
  </defs>
  <path
     d="m 37.532,22.158 91.275,54.329 c 5.1889,3.3108 7.4211,7.4665 8.4234,11.973 v 27.829 l -98.73,-59.283"
     fill="url(#linearGradient3558)"
     stroke="url(#linearGradient3560)"
     id="path19750"
     style="fill:url(#linearGradient3558);fill-rule:evenodd;stroke:url(#linearGradient3560);stroke-width:1.4324;stroke-linecap:round;stroke-linejoin:round" />
  <path
     d="m 137.23,88.461 c -0.86734,-4.8952 -4.2878,-9.3238 -8.4234,-11.973 l 71.852,-56.191 c 4.1356,2.6497 7.5559,7.0783 8.4234,11.973 z"
     color="#260000"
     fill="url(#linearGradient2476)"
     id="path19754"
     style="fill:url(#linearGradient2476);stroke:#7d7d7d;stroke-width:1.4324;stroke-linecap:round;stroke-linejoin:round" />
  <path
     d="m 209.08,60.1 -71.852,56.191 V 88.462 L 209.08,32.271 Z"
     color="#260000"
     fill="url(#linearGradient2478)"
     id="path19756"
     style="fill:url(#linearGradient2478);stroke:#7d7d7d;stroke-width:1.4324;stroke-linecap:round;stroke-linejoin:round" />
  <g
     transform="translate(-359.14,19.027)"
     id="g19798"
     style="stroke:#7d7d7d;stroke-width:1.4324;stroke-linecap:round;stroke-linejoin:round">
    <path
       d="m 559.8,1.2701 -91.275,-54.329 -71.852,56.191 91.275,54.329 z"
       color="#260000"
       fill="url(#linearGradient38082)"
       id="path19758"
       style="fill:url(#linearGradient38082)" />
    <path
       d="M 468.52,-53.059 396.668,3.132 c -4.4657,-2.963 -9.0332,-8.5186 -8.333,-14.193 l 71.852,-56.191 c -0.70019,5.674 3.8673,11.23 8.333,14.193 z"
       color="#260000"
       fill="url(#linearGradient38084)"
       id="path19760"
       style="fill:url(#linearGradient38084)" />
    <g
       fill="url(#linearGradient22624-8)"
       id="g19778"
       style="fill:url(#linearGradient22624-8)">
      <path
         d="m 453.48,-62.004 -2.8361,-1.6968 -71.852,56.191 7.4496,4.4342 3.0241,-2.3649 c -0.75383,-1.74 -1.3697,-3.717 -0.92788,-5.6198 z"
         color="#260000"
         id="path19762"
         style="fill:url(#linearGradient20033)" />
      <path
         d="m 577.04,-12.216 c 9.7344,5.2244 9.261,18.13 0.63454,24.128 l -7.4495,-4.4342 c 4.888,-3.4588 5.1393,-11.055 -0.36934,-14.075 z"
         color="#260000"
         id="path19764"
         style="fill:url(#linearGradient20035)" />
      <path
         d="m 386.61,10.998 91.275,54.329 -7.1852,5.6191 -91.275,-54.329 z"
         color="#260000"
         id="path19766"
         style="fill:url(#linearGradient20037)" />
      <path
         d="m 470.7,70.947 7.1852,-5.6191 c 6.2336,3.2576 14.807,2.3732 20.489,-1.6588 l 7.4496,4.4342 c -9.7402,7.0822 -24.412,8.6148 -35.124,2.8437 z"
         color="#260000"
         id="path19768"
         style="fill:url(#linearGradient20039)" />
      <path
         d="m 498.37,63.669 71.852,-56.191 7.4495,4.4342 -71.852,56.191 z"
         color="#260000"
         id="path19770"
         style="fill:url(#linearGradient20041)" />
      <path
         d="m 478.58,-60.926 91.275,54.329 7.1852,-5.6191 -91.275,-54.329 z"
         color="#260000"
         id="path19772"
         style="fill:url(#linearGradient20043)" />
      <path
         d="m 460.19,-67.254 -6.71,5.2474 -2.8424,-1.6919 c 9.7402,-7.0821 24.412,-8.6147 35.124,-2.8435 l -7.1852,5.6191 c -5.2027,-2.8234 -11.882,-2.3671 -17.236,-0.22491 -0.86767,-1.8722 -1.6327,-4.0258 -1.1501,-6.1062 z"
         color="#260000"
         id="path19774"
         style="fill:url(#linearGradient20045)" />
      <path
         d="m 386.24,-3.0761 c -4.8879,3.4588 -5.1397,11.055 0.36936,14.075 l -7.1843,5.6191 c -9.7346,-5.2246 -9.2613,-18.129 -0.63467,-24.128 z"
         color="#260000"
         id="path19776"
         style="fill:url(#linearGradient20047)" />
    </g>
    <g
       fill="url(#linearGradient22606-1)"
       id="g19796"
       style="fill:url(#linearGradient22606-1)">
      <path
         d="m 487.94,57.461 -91.275,-54.329 -10.059,7.8667 91.275,54.329 z"
         color="#260000"
         id="path19780"
         style="fill:url(#linearGradient20049)" />
      <path
         d="m 396.67,3.1317 -10.06,7.8667 c -5.509,-3.0194 -5.2573,-10.616 -0.36936,-14.075 z"
         color="#260000"
         id="path19782"
         style="fill:url(#linearGradient20051)" />
      <path
         d="m 487.94,57.461 -10.059,7.8667 c 6.2336,3.2576 14.807,2.3732 20.489,-1.6588 z"
         color="#260000"
         id="path19784"
         style="fill:url(#linearGradient20053)" />
      <path
         d="M 487.94,57.461 559.792,1.27 570.221,7.4778 498.369,63.6688 Z"
         color="#260000"
         id="path19786"
         style="fill:url(#linearGradient20055)" />
      <path
         d="m 559.8,1.2701 10.429,6.2078 c 4.888,-3.4588 5.1393,-11.055 -0.36934,-14.075 z"
         color="#260000"
         id="path19788"
         style="fill:url(#linearGradient20057)" />
      <path
         d="m 386.24,-3.0761 10.429,6.2078 c -3.249,-2.0095 -5.8083,-5.1237 -7.4053,-8.5728 z"
         color="#260000"
         id="path19790"
         style="fill:url(#linearGradient20059)" />
      <path
         d="m 478.58,-60.926 -10.059,7.8667 c -3.1047,-1.9124 -5.5601,-4.845 -7.1798,-8.089 5.3572,-2.1447 12.036,-2.6011 17.239,0.22232 z"
         color="#260000"
         id="path19792"
         style="fill:url(#linearGradient20061)" />
      <path
         d="m 569.86,-6.5966 -91.275,-54.329 -10.059,7.8667 91.275,54.329 z"
         color="#260000"
         id="path19794"
         style="fill:url(#linearGradient20063)" />
    </g>
  </g>
  <path
     d="M 101.05,-48.225 29.198,7.966 v -27.829 l 71.852,-56.191 z"
     color="#260000"
     fill="url(#linearGradient2515)"
     id="path19800"
     style="fill:url(#linearGradient2515);stroke:#7d7d7d;stroke-width:1.4324;stroke-linecap:round;stroke-linejoin:round" />
  <g
     id="g20278"
     transform="translate(-235.43003,-0.40911181)">
    <path
       d="m 494.82,21.499 91.275,54.329 c 5.1889,3.3108 7.4211,7.4665 8.4234,11.973 v 27.829 l -98.73,-59.283"
       fill="url(#linearGradient3492)"
       stroke="url(#linearGradient3494)"
       id="path19746"
       style="fill:url(#linearGradient3492);fill-rule:evenodd;stroke:url(#linearGradient3494);stroke-width:1.4324;stroke-linecap:round;stroke-linejoin:round" />
    <g
       id="g20205">
      <g
         transform="translate(228.64,-172.02)"
         id="g19840"
         style="stroke:#7d7d7d;stroke-width:1.4324;stroke-linecap:round;stroke-linejoin:round">
        <path
           d="m 437.73,231.46 -71.852,56.191 v -27.829 l 71.852,-56.191 z"
           color="#260000"
           fill="url(#linearGradient2421)"
           id="path19802"
           style="fill:url(#linearGradient2421)" />
        <path
           d="m 365.88,259.82 c -0.86734,-4.8952 -4.2878,-9.3238 -8.4234,-11.973 l 71.852,-56.191 c 4.1356,2.6497 7.5559,7.0783 8.4234,11.973 z"
           color="#260000"
           fill="url(#linearGradient38150)"
           id="path19804"
           style="fill:url(#linearGradient38150)" />
        <path
           d="m 429.31,191.66 -91.275,-54.329 -71.852,56.191 91.275,54.329 z"
           color="#260000"
           fill="url(#linearGradient38152)"
           id="path19806"
           style="fill:url(#linearGradient38152)" />
        <path
           d="m 338.03,137.33 -71.852,56.191 c -4.4657,-2.963 -9.0332,-8.5186 -8.333,-14.193 l 71.852,-56.191 c -0.70019,5.674 3.8673,11.23 8.333,14.193 z"
           color="#260000"
           fill="url(#linearGradient38154)"
           id="path19808"
           style="fill:url(#linearGradient38154)" />
        <g
           fill="url(#linearGradient35655-6)"
           id="g19822"
           style="fill:url(#linearGradient35655-6)">
          <path
             d="m 240.6,192.81 7.1852,-5.6191 c -0.72103,5.6397 3.9115,11.283 8.3333,14.193 l -7.1852,5.6191 c -4.4218,-2.9098 -9.0541,-8.5529 -8.3333,-14.193 z"
             color="#260000"
             id="path19810"
             style="fill:url(#linearGradient20065)" />
          <path
             d="m 340.21,261.33 7.1852,-5.6191 c 4.1384,2.6534 7.5535,7.0739 8.4233,11.973 l -7.1852,5.6191 c -0.86991,-4.8996 -4.285,-9.32 -8.4234,-11.973 z"
             color="#260000"
             id="path19812"
             style="fill:url(#linearGradient20067)" />
          <path
             d="m 446.55,178.17 c 4.1292,2.6435 7.5572,7.0785 8.4234,11.973 l -7.1852,5.6191 c -0.86676,-4.895 -4.2942,-9.3299 -8.4235,-11.973 z"
             color="#260000"
             id="path19814"
             style="fill:url(#linearGradient20069)" />
          <path
             d="m 346.95,109.65 c -0.69295,5.6884 3.8596,11.218 8.3333,14.193 l -7.1852,5.6191 c -4.4736,-2.9751 -9.0262,-8.5043 -8.3333,-14.193 z"
             color="#260000"
             id="path19816"
             style="fill:url(#linearGradient20071)" />
          <path
             d="m 256.12,201.38 91.275,54.329 -7.1852,5.6191 -91.275,-54.329 z"
             color="#260000"
             id="path19818"
             style="fill:url(#linearGradient20073)" />
          <path
             d="m 348.09,129.46 91.275,54.329 7.1852,-5.6191 -91.275,-54.329 z"
             color="#260000"
             id="path19820"
             style="fill:url(#linearGradient20075)" />
        </g>
        <g
           fill="url(#linearGradient35673-1)"
           id="g19836"
           style="fill:url(#linearGradient35673-1)">
          <path
             d="m 429.31,191.66 c 4.1356,2.6497 7.556,7.0782 8.4233,11.973 l 10.059,-7.8667 c -0.86676,-4.895 -4.2942,-9.3299 -8.4235,-11.973 z"
             color="#260000"
             id="path19824"
             style="fill:url(#linearGradient20077)" />
          <path
             d="m 348.09,129.46 -10.059,7.8667 c -4.4736,-2.9751 -9.0262,-8.5042 -8.3332,-14.193 l 10.059,-7.8667 c -0.69298,5.6884 3.8597,11.218 8.3333,14.193 z"
             color="#260000"
             id="path19826"
             style="fill:url(#linearGradient20079)" />
          <path
             d="m 357.46,247.85 -91.275,-54.329 -10.059,7.8667 91.275,54.329 z"
             color="#260000"
             id="path19828"
             style="fill:url(#linearGradient20081)" />
          <path
             d="m 439.37,183.79 -91.275,-54.329 -10.059,7.8667 91.275,54.329 z"
             color="#260000"
             id="path19830"
             style="fill:url(#linearGradient20083)" />
          <path
             d="m 247.79,187.19 10.059,-7.8667 c -0.72103,5.6397 3.9114,11.283 8.3332,14.193 l -10.059,7.8667 c -4.4217,-2.9098 -9.0543,-8.553 -8.3333,-14.193 z"
             color="#260000"
             id="path19832"
             style="fill:url(#linearGradient20085)" />
          <path
             d="m 347.4,255.71 10.059,-7.8667 c 4.1354,2.6497 7.5561,7.0783 8.4233,11.973 l -10.059,7.8667 c -0.86981,-4.8996 -4.2849,-9.32 -8.4233,-11.973 z"
             color="#260000"
             id="path19834"
             style="fill:url(#linearGradient20087)" />
        </g>
        <path
           d="m 329.7,123.13 -71.852,56.191 V 151.492 L 329.7,95.301 Z"
           color="#260000"
           fill="url(#linearGradient2561)"
           id="path19838"
           style="fill:url(#linearGradient2561)" />
      </g>
    </g>
  </g>
  <g
     id="g20303"
     transform="translate(219.60127,1.1700994)">
    <path
       d="m 266.04,21.499 91.275,54.329 c 5.1889,3.3108 7.4211,7.4665 8.4234,11.973 v 27.829 l -98.73,-59.283"
       fill="url(#linearGradient3525)"
       stroke="url(#linearGradient3527)"
       id="path19748"
       style="fill:url(#linearGradient3525);fill-rule:evenodd;stroke:url(#linearGradient3527);stroke-width:1.4324;stroke-linecap:round;stroke-linejoin:round" />
    <g
       transform="translate(-228.52,-173.35)"
       id="g19884"
       style="stroke:#7d7d7d;stroke-width:1.4324;stroke-linecap:round;stroke-linejoin:round">
      <path
         d="m 594.25,261.15 c -0.86734,-4.8952 -4.2878,-9.3238 -8.4234,-11.973 l 71.852,-56.191 c 4.1356,2.6497 7.5559,7.0783 8.4234,11.973 z"
         color="#260000"
         fill="url(#linearGradient2302)"
         id="path19842"
         style="fill:url(#linearGradient2302)" />
      <path
         d="m 666.11,232.79 -71.852,56.191 v -27.829 l 71.852,-56.191 z"
         color="#260000"
         fill="url(#linearGradient2304)"
         id="path19844"
         style="fill:url(#linearGradient2304)" />
      <path
         d="m 657.68,192.99 -91.275,-54.329 -71.852,56.191 91.275,54.329 z"
         color="#260000"
         fill="url(#linearGradient38118)"
         id="path19846"
         style="fill:url(#linearGradient38118)" />
      <path
         d="m 566.41,138.66 -71.852,56.191 c -4.4657,-2.963 -9.0332,-8.5186 -8.333,-14.193 l 71.852,-56.191 c -0.70019,5.674 3.8673,11.23 8.333,14.193 z"
         color="#260000"
         fill="url(#linearGradient38120)"
         id="path19848"
         style="fill:url(#linearGradient38120)" />
      <g
         transform="translate(97.886,-16.281)"
         fill="url(#linearGradient36310-1)"
         id="g19864"
         style="fill:url(#linearGradient36310-1)">
        <path
           d="m 478.58,147.07 91.275,54.329 7.1852,-5.6191 -91.275,-54.329 z"
           color="#260000"
           id="path19850"
           style="fill:url(#linearGradient20089)" />
        <path
           d="m 577.04,195.78 c 9.7344,5.2244 9.261,18.13 0.63454,24.128 l -7.4495,-4.4342 c 4.888,-3.4588 5.1393,-11.055 -0.36934,-14.075 z"
           color="#260000"
           id="path19852"
           style="fill:url(#linearGradient20091)" />
        <path
           d="m 386.61,219 91.275,54.329 -7.1852,5.6191 -91.275,-54.329 z"
           color="#260000"
           id="path19854"
           style="fill:url(#linearGradient20093)" />
        <path
           d="m 470.7,278.95 7.1852,-5.6191 c 6.2336,3.2576 14.807,2.3732 20.489,-1.6588 l 7.4496,4.4342 c -9.7402,7.0822 -24.412,8.6148 -35.124,2.8437 z"
           color="#260000"
           id="path19856"
           style="fill:url(#linearGradient20095)" />
        <path
           d="m 498.37,271.67 71.852,-56.191 7.4495,4.4342 -71.852,56.191 z"
           color="#260000"
           id="path19858"
           style="fill:url(#linearGradient20097)" />
        <path
           d="m 371.09,210.42 7.1852,-5.6191 c -0.72103,5.6397 3.9115,11.283 8.3333,14.193 l -7.1852,5.6191 c -4.4218,-2.9098 -9.0541,-8.5529 -8.3333,-14.193 z"
           color="#260000"
           id="path19860"
           style="fill:url(#linearGradient20099)" />
        <path
           d="m 477.43,127.26 c -0.69295,5.6884 3.8596,11.218 8.3333,14.193 l -7.1852,5.6191 c -4.4736,-2.9751 -9.0262,-8.5043 -8.3333,-14.193 z"
           color="#260000"
           id="path19862"
           style="fill:url(#linearGradient20101)" />
      </g>
      <g
         transform="translate(8.8342,11.2)"
         fill="url(#linearGradient38136)"
         id="g19880"
         style="fill:url(#linearGradient38136)">
        <path
           d="m 577,237.98 -91.275,-54.329 -10.059,7.8667 91.275,54.329 z"
           color="#260000"
           id="path19866"
           style="fill:url(#linearGradient20103)" />
        <path
           d="m 577,237.98 -10.059,7.8667 c 6.2336,3.2576 14.807,2.3732 20.489,-1.6588 z"
           color="#260000"
           id="path19868"
           style="fill:url(#linearGradient20105)" />
        <path
           d="m 577,237.98 71.852,-56.191 10.429,6.2078 -71.852,56.191 z"
           color="#260000"
           id="path19870"
           style="fill:url(#linearGradient20107)" />
        <path
           d="m 648.85,181.79 10.429,6.2078 c 4.888,-3.4588 5.1393,-11.055 -0.36934,-14.075 z"
           color="#260000"
           id="path19872"
           style="fill:url(#linearGradient20109)" />
        <path
           d="m 658.91,173.92 -91.275,-54.329 -10.059,7.8667 91.275,54.329 z"
           color="#260000"
           id="path19874"
           style="fill:url(#linearGradient20111)" />
        <path
           d="m 567.63,119.59 -10.059,7.8667 c -4.4736,-2.9751 -9.0262,-8.5042 -8.3332,-14.193 l 10.059,-7.8667 c -0.69298,5.6884 3.8597,11.218 8.3333,14.193 z"
           color="#260000"
           id="path19876"
           style="fill:url(#linearGradient20113)" />
        <path
           d="m 467.33,177.33 10.059,-7.8667 c -0.72103,5.6397 3.9114,11.283 8.3332,14.193 l -10.059,7.8667 c -4.4217,-2.9098 -9.0543,-8.553 -8.3333,-14.193 z"
           color="#260000"
           id="path19878"
           style="fill:url(#linearGradient20115)" />
      </g>
      <path
         d="m 558.07,124.47 -71.852,56.191 V 152.832 L 558.07,96.641 Z"
         color="#260000"
         fill="url(#linearGradient2584)"
         id="path19882"
         style="fill:url(#linearGradient2584)" />
    </g>
  </g>
  <g
     transform="matrix(0.99999,0,0,0.99999,390.02981,37.317169)"
     id="g19894">
    <ellipse
       cx="-13.718"
       cy="-98.797997"
       rx="13.199"
       ry="13.469"
       fill="#1f638a"
       stroke-linecap="round"
       stroke-linejoin="round"
       stroke-width="1.0658"
       id="ellipse19888" />
    <text
       x="-19.559933"
       y="-91.125885"
       fill="#000000"
       font-family="'Arial Nova', 'Arial Unicode MS', 'Yu Gothic UI', sans-serif"
       font-size="12.8px"
       letter-spacing="0px"
       stroke-width="1.0667"
       word-spacing="0px"
       style="line-height:0%"
       xml:space="preserve"
       id="text19892"><tspan
         x="-19.559933"
         y="-91.125885"
         fill="#ffffff"
         font-family="'Arial Nova', 'Arial Unicode MS', 'Yu Gothic UI', sans-serif"
         font-size="21.333px"
         stroke="#ffffff"
         stroke-width="1.0667"
         style="line-height:1.25"
         id="tspan19890">2</tspan></text>
  </g>
  <g
     transform="matrix(0.99999,0,0,0.99999,591.09274,170.99009)"
     id="g19902">
    <ellipse
       cx="17.483"
       cy="-98.797997"
       rx="13.199"
       ry="13.469"
       fill="#1f638a"
       stroke-linecap="round"
       stroke-linejoin="round"
       stroke-width="1.0658"
       id="ellipse19896" />
    <text
       x="11.641406"
       y="-91.256096"
       fill="#000000"
       font-family="'Arial Nova', 'Arial Unicode MS', 'Yu Gothic UI', sans-serif"
       font-size="12.8px"
       letter-spacing="0px"
       stroke-width="1.0667"
       word-spacing="0px"
       style="line-height:0%"
       xml:space="preserve"
       id="text19900"><tspan
         x="11.641406"
         y="-91.256096"
         fill="#ffffff"
         font-family="'Arial Nova', 'Arial Unicode MS', 'Yu Gothic UI', sans-serif"
         font-size="21.333px"
         stroke="#ffffff"
         stroke-width="1.0667"
         style="line-height:1.25"
         id="tspan19898">3</tspan></text>
  </g>
  <g
     transform="matrix(.99999 0 0 .99999 182.33 35.574)"
     id="g19910">
    <ellipse
       cx="-44.92"
       cy="-98.798"
       rx="13.199"
       ry="13.469"
       fill="#1f638a"
       stroke-linecap="round"
       stroke-linejoin="round"
       stroke-width="1.0658"
       id="ellipse19904" />
    <text
       x="-51.39423"
       y="-91.055557"
       fill="#000000"
       font-family="'Arial Nova', 'Arial Unicode MS', 'Yu Gothic UI', sans-serif"
       font-size="12.8px"
       letter-spacing="0px"
       stroke-width="1.0667"
       word-spacing="0px"
       style="line-height:0%"
       xml:space="preserve"
       id="text19908"><tspan
         x="-51.39423"
         y="-91.055557"
         fill="#ffffff"
         font-family="'Arial Nova', 'Arial Unicode MS', 'Yu Gothic UI', sans-serif"
         font-size="21.333px"
         stroke="#ffffff"
         stroke-width="1.0667"
         style="line-height:1.25"
         id="tspan19906">1</tspan></text>
  </g>
</svg>
