<?xml version="1.0" encoding="UTF-8"?>
<svg xmlns="http://www.w3.org/2000/svg" xmlns:xlink="http://www.w3.org/1999/xlink" width="60mm" height="48mm" version="1.1" viewBox="0 0 60 48" xml:space="preserve"><defs><filter id="filter26016" x="-.22762" y="-.32144" width="1.4552" height="1.6429" color-interpolation-filters="sRGB"><feGaussianBlur stdDeviation="2.5015369"/></filter></defs><rect x="2.279" y="1.4056" width="55.373" height="44.99" fill="#cad6de" stroke="#000000" stroke-width=".065"/><g transform="translate(139.7 1.2618)"><g><g transform="translate(-210.61 -2.8451)" stroke="#7ab51d"><rect x="75.43" y="4.7979" width="50.89" height="41.372" ry="17.54" fill="#00385e" fill-opacity=".58824" stroke-width=".6"/><rect x="91.102" y="20.804" width="19.546" height="9.3599" ry="1.4944" fill="#cad6de" stroke-width=".6"/></g><g transform="matrix(1.1042 0 0 1.1042 -27.171 117.09)"><g transform="translate(.18973 -.057053)"/></g><rect transform="translate(1.1042e-6)" x="-127.31" y="10.189" width="35.163" height="24.899" rx="9.2881" ry="9.2881" fill="none" filter="url(#filter26016)" stroke="#dcdbda" stroke-width="4" style="mix-blend-mode:normal"/></g></g><rect x="12.384" y="11.451" width="35.163" height="24.899" rx="9.2881" ry="9.2881" fill="none" stroke="#f900b0" stroke-width=".6"/><g><path d="m25.291 42.526h14.355c6.6835 0 13.264-7.264 13.264-12.76v-11.135c0-5.4959-6.781-12.524-12.127-12.524h-21.42c-6.1329 0-12.285 7.5786-12.285 12.524v9.4045c0.55139 5.629 3.0072 10.594 12.507 13.101h19.664c8.1447-1.0887 11.173-6.6338 12.349-11.877v-10.146c-0.078446-5.1086-6.0857-11.356-11.09-11.405h-20.765c-4.8854 0.16007-10.986 5.5994-11.169 11.09l0.078655 8.1801c0.00734 4.2695 3.0848 11.002 11.169 12.978l14.079 0.07865" fill="none" stroke="#ffc90e" stroke-width=".654"/><g transform="translate(.44494 .44494)"><circle cx="25.139" cy="44.271" r="1.0845" fill="#22b14c"/></g><g transform="matrix(.91549 0 0 -.91549 -2.2912 78.776)" stroke-linecap="square"><g transform="translate(57.116 -6.1527)" fill="#2b339f" stroke="#2b339f"><path d="m-26.628 52.373 0.01527-3.7451" stroke-miterlimit="10" stroke-width=".48373"/><path d="m-25.503 48.266-1.1652-4.209-1.1011 4.209z" fill-rule="evenodd" stroke-width=".3336"/></g><g><path d="m30.494 46.222 3.8075-0.01799" fill="none" stroke="#fc001a" stroke-miterlimit="10" stroke-width=".48373"/><path d="m34.694 47.282 4.209-1.1652-4.209-1.1011z" fill="#ff001a" fill-rule="evenodd" stroke="#ff0703" stroke-width=".3336"/></g></g><g transform="translate(.49457 -7.7163)"><circle cx="25.139" cy="44.271" r="1.0845" fill="#22b14c"/></g></g></svg>
