<?xml version="1.0" encoding="UTF-8"?>
<svg width="13cm" height="6.5cm" version="1.1" xmlns="http://www.w3.org/2000/svg" xmlns:cc="http://creativecommons.org/ns#" xmlns:dc="http://purl.org/dc/elements/1.1/" xmlns:rdf="http://www.w3.org/1999/02/22-rdf-syntax-ns#" xmlns:xlink="http://www.w3.org/1999/xlink">
 <title>Abbildung für OPEN MIND Softwaredokumentation</title>
 <defs>
  <pattern id="pattern33260" patternTransform="matrix(.056544 .059221 -10.637 10.156 245.12 818.1)" xlink:href="#pattern26018-2"/>
  <pattern id="pattern27829" patternTransform="matrix(.056544 .059221 -10.637 10.156 31.874 817.32)" xlink:href="#pattern26018"/>
  <pattern id="pattern27439" patternTransform="matrix(-.10463 -.039007 -17.902 7.4395 345.63 877.17)" xlink:href="#pattern12226"/>
  <pattern id="pattern26018" patternTransform="matrix(.05301 .055519 -9.9723 9.5215 25.21 766.36)" xlink:href="#pattern8287"/>
  <linearGradient id="linearGradient17780-7-9-9-6-98">
   <stop stop-color="#fff" offset="0"/>
   <stop stop-color="#00385e" offset="1"/>
  </linearGradient>
  <pattern id="pattern8287" patternTransform="matrix(.05301 .055519 -9.9723 9.5215 25.21 766.36)" xlink:href="#pattern5756"/>
  <pattern id="pattern5756" patternTransform="matrix(.052017 .05448 -9.7855 9.3432 10.418 990.52)" xlink:href="#pattern5686-4"/>
  <pattern id="pattern5686-4" patternTransform="matrix(.052017 .05448 -9.7855 9.3432 27.433 771.9)" xlink:href="#pattern4864-3"/>
  <pattern id="pattern4864-3" patternTransform="matrix(.063417 .06642 -11.93 11.391 27.06 765.72)" xlink:href="#pattern35902-9"/>
  <pattern id="pattern35902-9" patternTransform="matrix(.06642 -.063417 11.391 11.93 -85.065 1053.7)" xlink:href="#pattern28286-8-5"/>
  <pattern id="pattern28286-8-5" patternTransform="matrix(.06642 -.063417 11.391 11.93 -85.317 1053.7)" xlink:href="#pattern6666-8-3"/>
  <pattern id="pattern6666-8-3" patternTransform="matrix(.047422 -.045278 8.1327 8.5178 -49.563 1006.3)" xlink:href="#pattern9529-08"/>
  <pattern id="pattern9529-08" patternTransform="matrix(.047422 -.045278 8.1327 8.5178 -49.563 1006.3)" xlink:href="#pattern9496-7-5"/>
  <pattern id="pattern9496-7-5" patternTransform="matrix(.047355 -.045348 8.1452 8.5058 396.14 -51.594)" xlink:href="#pattern9487-78"/>
  <pattern id="pattern9487-78" patternTransform="matrix(.056516 -.039102 6.9938 10.109 354.71 164.31)" xlink:href="#Strips1_64-3"/>
  <pattern id="Strips1_64-3" width="65" height="1" patternTransform="translate(0) scale(10)" patternUnits="userSpaceOnUse">
   <rect y="-.5" width="1" height="2"/>
  </pattern>
  <pattern id="pattern12226" patternTransform="matrix(-.098088 -.036569 -16.784 6.9746 775.56 795.33)" xlink:href="#pattern39779"/>
  <pattern id="pattern39779" patternTransform="matrix(.094734 -.036834 16.247 6.9292 685.93 4.2645)" xlink:href="#pattern15014"/>
  <pattern id="pattern15014" patternTransform="matrix(.094734 -.036834 16.247 6.9292 705.67 -38.214)" xlink:href="#pattern14992"/>
  <pattern id="pattern14992" patternTransform="matrix(.094601 -.045348 16.272 8.5058 705.5 -57.205)" xlink:href="#pattern9529-8"/>
  <pattern id="pattern9529-8" patternTransform="matrix(.047355 -.045348 8.1452 8.5058 491.2 -118.79)" xlink:href="#pattern9496-5"/>
  <pattern id="pattern9496-5" patternTransform="matrix(.047355 -.045348 8.1452 8.5058 396.14 -51.594)" xlink:href="#pattern9487-8"/>
  <pattern id="pattern9487-8" patternTransform="matrix(.056516 -.039102 6.9938 10.109 354.71 164.31)" xlink:href="#Strips1_64-5"/>
  <pattern id="Strips1_64-5" width="65" height="1" patternTransform="translate(0) scale(10)" patternUnits="userSpaceOnUse">
   <rect y="-.5" width="1" height="2"/>
  </pattern>
  <pattern id="pattern26018-2" patternTransform="matrix(.05301 .055519 -9.9723 9.5215 25.21 766.36)" xlink:href="#pattern8287-3"/>
  <pattern id="pattern8287-3" patternTransform="matrix(.05301 .055519 -9.9723 9.5215 25.21 766.36)" xlink:href="#pattern5756-3"/>
  <pattern id="pattern5756-3" patternTransform="matrix(.052017 .05448 -9.7855 9.3432 10.418 990.52)" xlink:href="#pattern5686-4-9"/>
  <pattern id="pattern5686-4-9" patternTransform="matrix(.052017 .05448 -9.7855 9.3432 27.433 771.9)" xlink:href="#pattern4864-3-7"/>
  <pattern id="pattern4864-3-7" patternTransform="matrix(.063417 .06642 -11.93 11.391 27.06 765.72)" xlink:href="#pattern35902-9-2"/>
  <pattern id="pattern35902-9-2" patternTransform="matrix(.06642 -.063417 11.391 11.93 -85.065 1053.7)" xlink:href="#pattern28286-8-5-3"/>
  <pattern id="pattern28286-8-5-3" patternTransform="matrix(.06642 -.063417 11.391 11.93 -85.317 1053.7)" xlink:href="#pattern6666-8-3-3"/>
  <pattern id="pattern6666-8-3-3" patternTransform="matrix(.047422 -.045278 8.1327 8.5178 -49.563 1006.3)" xlink:href="#pattern9529-08-0"/>
  <pattern id="pattern9529-08-0" patternTransform="matrix(.047422 -.045278 8.1327 8.5178 -49.563 1006.3)" xlink:href="#pattern9496-7-5-4"/>
  <pattern id="pattern9496-7-5-4" patternTransform="matrix(.047355 -.045348 8.1452 8.5058 396.14 -51.594)" xlink:href="#pattern9487-78-8"/>
  <pattern id="pattern9487-78-8" patternTransform="matrix(.056516 -.039102 6.9938 10.109 354.71 164.31)" xlink:href="#Strips1_64-3-4"/>
  <pattern id="Strips1_64-3-4" width="65" height="1" patternTransform="translate(0) scale(10)" patternUnits="userSpaceOnUse">
   <rect y="-.5" width="1" height="2"/>
  </pattern>
  <linearGradient id="linearGradient27863" x1="11.722" x2="321.81" y1="919.33" y2="917.1" gradientTransform="matrix(0 1.2488 -1.2488 0 1338.5 885.77)" gradientUnits="userSpaceOnUse" xlink:href="#linearGradient17780-7-9-9-6-98"/>
  <linearGradient id="linearGradient27865" x1="103.67" x2="105.19" y1="1006.7" y2="830.98" gradientTransform="matrix(1.2488 0 0 1.2488 -68.892 -124.16)" gradientUnits="userSpaceOnUse" xlink:href="#linearGradient17780-7-9-9-6-98"/>
  <linearGradient id="linearGradient33257" x1="103.67" x2="105.19" y1="1006.7" y2="830.98" gradientTransform="matrix(1.2488 0 0 1.2488 143.81 -123.92)" gradientUnits="userSpaceOnUse" xlink:href="#linearGradient17780-7-9-9-6-98"/>
  <linearGradient id="linearGradient33263" x1="11.722" x2="321.81" y1="919.33" y2="917.1" gradientTransform="matrix(0 1.2488 -1.2488 0 1551.2 886.01)" gradientUnits="userSpaceOnUse" xlink:href="#linearGradient17780-7-9-9-6-98"/>
 </defs>
 <metadata>
  <rdf:RDF>
   <cc:Work rdf:about="">
    <dc:format>image/svg+xml</dc:format>
    <dc:type rdf:resource="http://purl.org/dc/dcmitype/StillImage"/>
    <dc:title>Abbildung für OPEN MIND Softwaredokumentation</dc:title>
    <dc:creator>
     <cc:Agent>
      <dc:title>OPEN MIND Technologies AG</dc:title>
     </cc:Agent>
    </dc:creator>
    <dc:rights>
     <cc:Agent>
      <dc:title>Alle Rechte vorbehalten.</dc:title>
     </cc:Agent>
    </dc:rights>
    <dc:publisher>
     <cc:Agent>
      <dc:title>Technische Redaktion</dc:title>
     </cc:Agent>
    </dc:publisher>
   </cc:Work>
  </rdf:RDF>
 </metadata>
 <g transform="translate(0 -876.85)">
  <path d="m394.67 927.01 9.2449-9.1958-42.848 5.672-25.207 36.253 0.12314 78.884 23.762-0.088 44.204 12.607-9.5514-9.6156" fill="none" stroke="#d4aa00" stroke-linecap="round" stroke-linejoin="round" stroke-width="3.0236"/>
  <g>
   <path d="m404.49 1067.5-0.0236-12.849-45.097-12.628-26.651-0.097-0.0146-83.075 26.692-38.106 45.081-6.1295 0.0181-14.937-172.09-0.0351s-0.80282 116.04 7e-3 167.86z" fill="url(#linearGradient33263)" fill-rule="evenodd" stroke="#4d4d4d" stroke-linecap="round" stroke-linejoin="round" stroke-miterlimit="5" stroke-width=".67654"/>
   <path d="m404.46 899.69 0.0132 14.829-45.116 6.321-26.63 37.955-0.17544 83.136 26.624 0.1185 45.332 12.659 0.01 12.597-172.09 0.2296-0.0304-167.72z" fill="url(#pattern33260)" opacity=".5"/>
   <path d="m232.42 1104.6-7.8e-4 -37.165 172.08 0.038 0.01 37.53" fill="url(#linearGradient33257)" fill-rule="evenodd" stroke="#4d4d4d" stroke-linecap="round" stroke-linejoin="round" stroke-miterlimit="5" stroke-width=".67654"/>
  </g>
  <path d="m232.98 1104.4 170.9 0.1307" fill="#34679b" stroke="#4d4d4d" stroke-dasharray="6.70818, 3.35409, 1.67705, 3.35409" stroke-linecap="round" stroke-linejoin="round" stroke-width="1.677"/>
  <g fill="#000000" font-family="'Arial Nova', 'Arial Unicode MS', 'Yu Gothic UI', sans-serif" font-size="13.724px" stroke-width="1.0667">
   <text x="371.1582" y="949.86584" style="line-height:0%"><tspan fill="#7d7d7d" font-size="22.855px" stroke-width="1.0667">1</tspan></text>
   <text x="368.63571" y="1027.7283" style="line-height:0%"><tspan fill="#7d7d7d" font-size="22.855px" stroke-width="1.0667">3</tspan></text>
   <text x="355.0213" y="966.71198" style="line-height:0%"><tspan fill="#7d7d7d" font-size="22.855px" stroke-width="1.0667">4</tspan></text>
  </g>
  <g stroke="#000" stroke-linecap="round" stroke-linejoin="round">
   <path d="m314.45 979.16-4.1905-12.571h8.7619z" stroke-width="1.0658"/>
   <path d="m314.51 962.31-0.0557 10.13" stroke-width=".67654"/>
   <path d="m314.32 988.97-4.1904 12.571h8.7618z" stroke-width="1.0658"/>
   <path d="m314.47 992.88-0.0557 13.228" stroke-width=".67654"/>
  </g>
  <path d="m394.11 1041.4 30.93-0.06m0.0266-70.843-80.977 0.43137" fill="none" stroke="#e2001a" stroke-linecap="round" stroke-linejoin="round" stroke-miterlimit="10" stroke-width="2.4918"/>
  <path d="m425.11 996.56-81.241-0.0115" fill="none" stroke="#e2001a" stroke-linecap="round" stroke-linejoin="round" stroke-miterlimit="10" stroke-width="2.4918"/>
  <g stroke="#000" stroke-linecap="square" stroke-miterlimit="10" stroke-width=".33104">
   <polyline transform="matrix(-1.6861 0 0 -1.6823 542.84 1034)" points="87.23 41.839 91.62 46.442 91.62 43.445 100.64 43.445 100.64 40.234 91.62 40.234 91.62 37.344 87.23 41.839" fill="#e2001a"/>
   <polyline transform="matrix(-1.6861 0 0 -1.6823 542.83 1059.8)" points="87.23 41.839 91.62 46.442 91.62 43.445 100.64 43.445 100.64 40.234 91.62 40.234 91.62 37.344 87.23 41.839" fill="#e2001a"/>
   <polyline transform="matrix(1.669 -.2399 .23935 1.6652 205.88 881.76)" points="87.23 41.839 91.62 46.442 91.62 43.445 100.64 43.445 100.64 40.234 91.62 40.234 91.62 37.344 87.23 41.839" fill="#d4aa00"/>
  </g>
  <g fill="none" stroke-linecap="round" stroke-linejoin="round">
   <path d="m336.54 978.62 7.5738-7.6431" stroke="#d4aa00" stroke-width="3.0236"/>
   <path d="m336.3 988.87 7.6432 7.5738" stroke="#d4aa00" stroke-width="3.0236"/>
   <path d="m425.33 927.26h-31.088" stroke="#e2001a" stroke-miterlimit="10" stroke-width="2.4918"/>
  </g>
  <text x="354.78964" y="992.19574" fill="#000000" font-family="'Arial Nova', 'Arial Unicode MS', 'Yu Gothic UI', sans-serif" font-size="13.724px" stroke-width="1.0667" style="line-height:0%"><tspan fill="#7d7d7d" font-size="22.855px" stroke-width="1.0667">2</tspan></text>
  <g stroke="#000">
   <polyline transform="matrix(1.6106 .49902 -.49788 1.6069 237.69 919.59)" points="87.23 41.839 91.62 46.442 91.62 43.445 100.64 43.445 100.64 40.234 91.62 40.234 91.62 37.344 87.23 41.839" fill="#d4aa00" stroke-linecap="square" stroke-miterlimit="10" stroke-width=".33104"/>
   <path d="m337.18 987.93h-22.679" stroke-linecap="round" stroke-linejoin="round" stroke-width=".67654"/>
   <path d="m337.08 980.1h-22.56" stroke-linecap="round" stroke-linejoin="round" stroke-width=".67654"/>
  </g>
  <g>
   <path d="m128.76 1041.9-8.7701-0.1873-0.1763-82.723 8.9096-0.0337z" fill="#fcd6a4" stroke="#4d4d4d" stroke-linecap="round" stroke-linejoin="round" stroke-width=".67654"/>
   <path d="m128.38 959.42-8.6769-0.15243 0.60134 81.918 8.413 0.2369z" fill="url(#pattern27439)" opacity=".5"/>
   <path d="m191.78 1067.3-0.0236-12.849-45.097-12.628-26.651-0.097-0.0146-83.075 26.692-38.106 45.081-6.1295 0.0181-14.937-172.09-0.0351s-0.80281 116.04 0.0074 167.86z" fill="url(#linearGradient27863)" fill-rule="evenodd" stroke="#4d4d4d" stroke-linecap="round" stroke-linejoin="round" stroke-miterlimit="5" stroke-width=".67654"/>
   <path d="m191.22 898.91 0.0132 14.829-45.116 6.321-26.63 37.955-0.17544 83.136 26.624 0.1185 45.332 12.659 0.01 12.597-172.09 0.2296-0.0304-167.72z" fill="url(#pattern27829)" opacity=".5"/>
  </g>
  <g transform="translate(169.65 1036.3)">
   <ellipse cx="-44.92" cy="-98.798" rx="13.199" ry="13.469" fill="#1f638a" stroke-linecap="round" stroke-linejoin="round" stroke-width="1.0658"/>
   <text x="-50.761276" y="-91.125885" fill="#000000" font-family="'Arial Nova', 'Arial Unicode MS', 'Yu Gothic UI', sans-serif" font-size="12.8px" letter-spacing="0px" stroke-width="1.0667" word-spacing="0px" style="line-height:0%" xml:space="preserve"><tspan x="-50.761276" y="-91.125885" fill="#ffffff" font-family="'Arial Nova', 'Arial Unicode MS', 'Yu Gothic UI', sans-serif" font-size="21.333px" stroke="#ffffff" stroke-width="1.0667" style="line-height:1.25">1</tspan></text>
  </g>
  <path d="m19.717 1104.4-7.74e-4 -37.165 172.08 0.038 0.01 37.529" fill="url(#linearGradient27865)" fill-rule="evenodd" stroke="#4d4d4d" stroke-linecap="round" stroke-linejoin="round" stroke-miterlimit="5" stroke-width=".67654"/>
  <path d="m20.275 1104.2 170.9 0.1308" fill="#34679b" stroke="#4d4d4d" stroke-dasharray="6.70818, 3.35409, 1.67705, 3.35409" stroke-linecap="round" stroke-linejoin="round" stroke-width="1.677"/>
  <g transform="translate(-449.67 75.099)" stroke="#000" stroke-linecap="round" stroke-linejoin="round">
   <path d="m568.58 884.07-12.571 4.1905v-8.7619z" stroke-width="1.0658"/>
   <path d="m550.93 884.15 10.939-0.0789" stroke-width=".67654"/>
  </g>
  <g transform="translate(-476.89 75.592)" stroke="#000" stroke-linecap="round" stroke-linejoin="round">
   <path d="m606.54 883.53 12.571 4.1905v-8.7619z" stroke-width="1.0658"/>
   <path d="m610.45 883.38 15.114 0.19048" stroke-width=".67654"/>
  </g>
  <g transform="translate(307.71 1082.2)">
   <ellipse cx="-13.718" cy="-98.798" rx="13.199" ry="13.469" fill="#1f638a" stroke-linecap="round" stroke-linejoin="round" stroke-width="1.0658"/>
   <text x="-19.559933" y="-91.125885" fill="#000000" font-family="'Arial Nova', 'Arial Unicode MS', 'Yu Gothic UI', sans-serif" font-size="12.8px" letter-spacing="0px" stroke-width="1.0667" word-spacing="0px" style="line-height:0%" xml:space="preserve"><tspan x="-19.559933" y="-91.125885" fill="#ffffff" font-family="'Arial Nova', 'Arial Unicode MS', 'Yu Gothic UI', sans-serif" font-size="21.333px" stroke="#ffffff" stroke-width="1.0667" style="line-height:1.25">2</tspan></text>
  </g>
 </g>
</svg>
