<svg version="1.1" viewBox="0 0 637.8 230.31" xmlns="http://www.w3.org/2000/svg" xmlns:xlink="http://www.w3.org/1999/xlink">
 <title>Abbildung für OPEN MIND Softwaredokumentation</title>
 <defs>
  <linearGradient id="linearGradient17780-7-7">
   <stop stop-color="#ffffff" offset="0"/>
   <stop stop-color="#00385e" offset="1"/>
  </linearGradient>
  <linearGradient id="linearGradient12526" x1="-1195.6" x2="420.49" y1="-54.19" y2="1307.5" gradientTransform="matrix(.35849 0 0 .35809 416.3 172.63)" gradientUnits="userSpaceOnUse" xlink:href="#linearGradient17780-7-7"/>
  <linearGradient id="linearGradient12534" x1="-1092.9" x2="540.95" y1="278.98" y2="-524.91" gradientTransform="matrix(.35849 0 0 .35809 416.3 172.63)" gradientUnits="userSpaceOnUse" xlink:href="#linearGradient17780-7-7"/>
  <linearGradient id="linearGradient12542" x1="-2230.3" x2="1495.2" y1="-143.47" y2="-106.45" gradientTransform="matrix(.35849 0 0 .35809 416.3 172.63)" gradientUnits="userSpaceOnUse" xlink:href="#linearGradient17780-7-7"/>
  <linearGradient id="linearGradient12586" x1="-1098.1" x2="394.14" y1="73.997" y2="-658.46" gradientTransform="matrix(.35849 0 0 .35809 416.3 172.63)" gradientUnits="userSpaceOnUse" xlink:href="#linearGradient17780-7-7"/>
  <linearGradient id="linearGradient12594" x1="-450.32" x2="-473.91" y1="-269.1" y2="-265" gradientTransform="matrix(.35849 0 0 .35809 416.3 172.57)" gradientUnits="userSpaceOnUse">
   <stop stop-color="#ffffff" offset="0"/>
   <stop stop-color="#5d8099" offset="1"/>
  </linearGradient>
  <linearGradient id="linearGradient12608" x1="-1434.7" x2="145.69" y1="-185.07" y2="-939.28" gradientTransform="matrix(.35849 0 0 .35809 447.93 281.08)" gradientUnits="userSpaceOnUse" xlink:href="#linearGradient17780-7-7"/>
  <linearGradient id="linearGradient12610" x1="-881.8" x2="-800.46" y1="-93.718" y2="-92.646" gradientTransform="matrix(.35849 0 0 .35809 420.27 172.06)" gradientUnits="userSpaceOnUse">
   <stop stop-color="#3f6986" offset="0"/>
   <stop stop-color="#d9e1e7" offset=".27302"/>
   <stop stop-color="#ffffff" offset=".5"/>
   <stop stop-color="#cbd7de" offset=".75581"/>
   <stop stop-color="#00385e" offset="1"/>
  </linearGradient>
  <linearGradient id="linearGradient12638" x1="-1003.3" x2="-34.342" y1="-174.8" y2="342.39" gradientTransform="matrix(.35849 0 0 .35809 420.53 165.73)" gradientUnits="userSpaceOnUse" xlink:href="#linearGradient17780-7-7"/>
  <linearGradient id="linearGradient12638-0" x1="-1197.7" x2="-34.342" y1="-275.64" y2="342.39" gradientTransform="matrix(.35849 0 0 .35809 729.21 160.43)" gradientUnits="userSpaceOnUse" xlink:href="#linearGradient17780-7-7"/>
  <linearGradient id="linearGradient12534-9" x1="-1260.5" x2="540.95" y1="410.15" y2="-524.91" gradientTransform="matrix(.35849 0 0 .35809 724.99 167.34)" gradientUnits="userSpaceOnUse" xlink:href="#linearGradient17780-7-7"/>
  <linearGradient id="linearGradient12610-0" x1="-895.89" x2="-782.14" y1="-93.013" y2="-91.236" gradientTransform="matrix(.35849 0 0 .35809 728.96 166.76)" gradientUnits="userSpaceOnUse">
   <stop stop-color="#3f6986" offset="0"/>
   <stop stop-color="#b6c6d1" offset=".31036"/>
   <stop stop-color="#dce0e0" offset=".5"/>
   <stop stop-color="#b2c3cf" offset=".66913"/>
   <stop stop-color="#00385e" offset="1"/>
  </linearGradient>
  <linearGradient id="linearGradient12594-2" x1="-450.32" x2="-473.91" y1="-269.1" y2="-265" gradientTransform="matrix(.35849 0 0 .35809 724.99 167.27)" gradientUnits="userSpaceOnUse">
   <stop stop-color="#ffffff" offset="0"/>
   <stop stop-color="#5d8099" offset="1"/>
  </linearGradient>
  <linearGradient id="linearGradient12586-6" x1="-1304.3" x2="394.14" y1="138.82" y2="-658.46" gradientTransform="matrix(.35849 0 0 .35809 724.99 167.34)" gradientUnits="userSpaceOnUse" xlink:href="#linearGradient17780-7-7"/>
  <linearGradient id="linearGradient12608-4" x1="-1434.7" x2="-162.15" y1="-185.07" y2="-803.64" gradientTransform="matrix(.35849 0 0 .35809 756.61 275.79)" gradientUnits="userSpaceOnUse" xlink:href="#linearGradient17780-7-7"/>
  <linearGradient id="linearGradient12542-8" x1="-2230.3" x2="767.53" y1="-143.47" y2="-129.91" gradientTransform="matrix(.35849 0 0 .35809 724.99 167.34)" gradientUnits="userSpaceOnUse" xlink:href="#linearGradient17780-7-7"/>
  <linearGradient id="linearGradient12842" x1="-1195.6" x2="-320.71" y1="-54.19" y2="665.21" gradientTransform="matrix(.35849 0 0 .35809 724.99 167.34)" gradientUnits="userSpaceOnUse" xlink:href="#linearGradient17780-7-7"/>
  <filter id="filter12295-5" x="-.073077" y="-.058939" width="1.1462" height="1.1179" color-interpolation-filters="sRGB">
   <feBlend in2="BackgroundImage" mode="screen"/>
  </filter>
  <filter id="filter12295-5-7" x="-.073077" y="-.058939" width="1.1462" height="1.1179" color-interpolation-filters="sRGB">
   <feBlend in2="BackgroundImage" mode="screen"/>
  </filter>
  <filter id="filter12295-5-7-5" x="-.073077" y="-.058939" width="1.1462" height="1.1179" color-interpolation-filters="sRGB">
   <feBlend in2="BackgroundImage" mode="screen"/>
  </filter>
 </defs>
 <g>
  <g stroke="#4d4d4d" stroke-linecap="round" stroke-linejoin="round" stroke-width=".63425">
   <path d="m3.0107 134.98c32.13 10.539 67.996 24.382 106.91 60.876l-4.2251 29.159c-29.382-22.844-54.953-42.892-90.775-50.261z" fill="url(#linearGradient12526)"/>
   <path d="m3.0107 134.89c57.911-35.623 112.07-71.849 206.9-101.55 45.173 13.129 79.336 34.294 106.78 60.364-65.396 26.13-130.75 52.722-206.81 102.16-36.873-35.121-72.014-49.361-106.87-60.982z" fill="url(#linearGradient12542)"/>
   <path d="m209.47 40.37 36.361 20.207c6.0774 3.2649 2.2536 7.2382-5.8895 9.9755-36.405 16.458-72.292 32.182-114.97 57.551-4.2265 2.39-9.4994 2.1012-13.315-0.25578-12.047-8.932-25.272-15.804-38.666-22.381-2.8534-1.5286-3.688-5.0152-0.5121-6.7782 37.639-20.772 74.933-41.843 117.53-58.318 7.0432-3.5185 13.44-2.9508 19.461 0z" fill="url(#linearGradient12608)"/>
   <path d="m250.08 87.626-3.2592-20.438c-44.076 19.17-84.747 38.166-121.13 60.244l0.6336 20.436c47.213-28.838 85.032-44.095 123.75-60.243z" fill="url(#linearGradient12586)"/>
   <path d="m248.8 63.367c0 0.51156 3.6169 21.582 3.6169 21.582-0.39194 1.0301-1.0923 1.8099-2.3366 2.6697l-3.2968-20.447c1.7681-1.5379 2.1813-2.7946 2.0165-3.8047z" fill="url(#linearGradient12594)"/>
   <path d="m112.44 127.94c3.521 1.9691 9.3917 1.6881 13.249-0.49142l0.561 20.426c-2.1049 1.3814-9.2772 2.9955-14.36 0.61586z" fill="url(#linearGradient12610)"/>
   <path d="m109.91 195.87c63.996-41.761 136.03-75.003 206.84-102.03l-13.828 33.763c-67.097 28.197-133.4 56.638-197.23 97.422z" fill="url(#linearGradient12534)"/>
   <path d="m112.46 127.94c-14.416-9.8502-27.348-16.31-40.644-23.602-0.6987-0.3666-1.5531-1.5601-1.3232-3.0933l-3.7978 19.851c-0.2851 1.6585-0.025 2.5504 1.668 3.5054 15.872 7.3803 30.046 15.154 43.539 23.893z" fill="url(#linearGradient12638)"/>
  </g>
  <path d="m72.917 104.96-3.3289 20.271" fill="none" stroke="#4d4d4d" stroke-linecap="round" stroke-linejoin="round" stroke-width=".63425"/>
  <g transform="matrix(.35849 0 0 .35809 622.95 183.38)" fill="none">
   <path d="m-1579.1-205.12 180.44-90.924 152.68 85.253-182.43 90.018z" stroke="#f400fa" stroke-linecap="round" stroke-linejoin="round" stroke-width="3.9558"/>
   <path d="m-1581.8-89.48c53.978 31.019 103.54 66.61 151.91 106.04 60.748-38.922 119.59-75.859 181.7-109.45-19.721-16.633-37.52-33.025-60.696-50.089-0.9015-19.194-2.2604-37.932-3.6275-56.66-28.846-18.789-57.788-37.864-85.715-53.895-32.444 18.729-66.044 37.457-96.322 56.186l-4.0714 56.002c-30.569 17.576-57.334 34.771-83.184 51.875z" stroke="#00f700" stroke-dasharray="11.8673, 11.8673" stroke-linecap="round" stroke-linejoin="round" stroke-width="3.9558"/>
   <path d="m-1398-294.5v35.191" stroke="#d50000" stroke-dasharray="2.96682, 2.96682" stroke-width="2.9668"/>
  </g>
  <g transform="translate(89.235 183.4)">
   <ellipse cx="-44.92" cy="-98.798" rx="13.199" ry="13.469" fill="#1f638a" stroke-linecap="round" stroke-linejoin="round" stroke-width="1.0658"/>
   <text x="-50.761276" y="-91.125885" fill="#000000" letter-spacing="0px" word-spacing="0px" style="line-height:0%" xml:space="preserve"><tspan x="-50.761276" y="-91.125885" fill="#ffffff" font-family="'Arial Nova', 'Arial Unicode MS', 'Yu Gothic UI', sans-serif" font-size="20px" stroke="#ffffff" stroke-width="1.0667" style="line-height:1.25">1</tspan></text>
  </g>
  <g transform="translate(228.72 257.68)">
   <ellipse cx="-13.718" cy="-98.798" rx="13.199" ry="13.469" fill="#1f638a" stroke-linecap="round" stroke-linejoin="round" stroke-width="1.0658"/>
   <text x="-19.559933" y="-91.125885" fill="#000000" letter-spacing="0px" word-spacing="0px" style="line-height:0%" xml:space="preserve"><tspan x="-19.559933" y="-91.125885" fill="#ffffff" font-family="'Arial Nova', 'Arial Unicode MS', 'Yu Gothic UI', sans-serif" font-size="20px" stroke="#ffffff" stroke-width="1.0667" style="line-height:1.25">2</tspan></text>
  </g>
  <g transform="translate(129.99 299.83)">
   <ellipse cx="17.483" cy="-98.798" rx="13.199" ry="13.469" fill="#1f638a" stroke-linecap="round" stroke-linejoin="round" stroke-width="1.0658"/>
   <text x="11.641406" y="-91.256096" fill="#000000" font-family="'Arial Nova', 'Arial Unicode MS', 'Yu Gothic UI', sans-serif" letter-spacing="0px" word-spacing="0px" style="line-height:0%" xml:space="preserve"><tspan x="11.641406" y="-91.256096" fill="#ffffff" font-family="'Arial Nova', 'Arial Unicode MS', 'Yu Gothic UI', sans-serif" font-size="20px" stroke="#ffffff" stroke-width="1.0667" style="line-height:1.25">3</tspan></text>
  </g>
 </g>
 <g>
  <g stroke="#4d4d4d" stroke-linecap="round" stroke-linejoin="round" stroke-width=".63425">
   <path d="m311.7 129.68c32.13 10.539 67.996 24.382 106.91 60.876l-4.2251 29.159c-29.382-22.844-54.953-42.892-90.775-50.261z" fill="url(#linearGradient12842)"/>
   <path d="m311.7 129.59c57.911-35.623 112.07-71.849 206.9-101.55 45.173 13.129 79.336 34.294 106.78 60.364-65.396 26.13-130.75 52.722-206.81 102.16-36.873-35.121-72.014-49.361-106.87-60.982z" fill="url(#linearGradient12542-8)"/>
   <path d="m518.16 35.073 36.361 20.207c6.0774 3.2649 2.2536 7.2382-5.8895 9.9755-36.405 16.458-72.292 32.182-114.97 57.551-4.2265 2.39-9.4994 2.1012-13.315-0.25578-12.047-8.932-25.272-15.804-38.666-22.381-2.8534-1.5286-3.688-5.0152-0.5121-6.7782 37.639-20.772 74.933-41.843 117.53-58.318 7.0432-3.5185 13.44-2.9508 19.461 0z" fill="url(#linearGradient12608-4)"/>
   <path d="m558.77 82.329-3.2592-20.438c-44.076 19.17-84.747 38.166-121.13 60.244l0.6336 20.436c47.213-28.838 85.032-44.095 123.75-60.243z" fill="url(#linearGradient12586-6)"/>
   <path d="m557.49 58.07c0 0.51156 3.6169 21.582 3.6169 21.582-0.39194 1.0301-1.0923 1.8099-2.3366 2.6697l-3.2968-20.447c1.7681-1.5379 2.1813-2.7946 2.0165-3.8048z" fill="url(#linearGradient12594-2)"/>
   <path d="m421.13 122.64c3.521 1.9691 9.3917 1.6881 13.249-0.49142l0.561 20.426c-2.1049 1.3814-9.2772 2.9955-14.36 0.61586z" fill="url(#linearGradient12610-0)"/>
   <path d="m418.6 190.57c63.996-41.761 136.03-75.003 206.84-102.03l-13.828 33.763c-67.097 28.197-133.4 56.638-197.23 97.422z" fill="url(#linearGradient12534-9)"/>
   <path d="m421.15 122.64c-14.416-9.8502-27.348-16.31-40.644-23.602-0.6987-0.3666-1.5531-1.5601-1.3232-3.0933l-3.7978 19.851c-0.2851 1.6585-0.025 2.5504 1.668 3.5054 15.872 7.3803 30.046 15.154 43.539 23.893z" fill="url(#linearGradient12638-0)"/>
  </g>
  <g fill="none" stroke-linecap="round" stroke-linejoin="round">
   <path d="m381.6 99.666-3.3289 20.271" stroke="#4d4d4d" stroke-width=".63425"/>
   <g stroke="#ffcc00">
    <g stroke-width="1px">
     <path d="m419.35 184.34c21.161-13.86 43.127-27.097 65.908-39.429l-19.555-15.735-32.092 18.289c-4.898 1.8926-10.527 0.83001-17.339-3.2775l-24.444-14.921-26.436 16.82c20.784 11.568 38.811 25.461 53.958 38.253z"/>
     <path d="m419.51 181.52c21.161-13.86 39.438-24.915 62.219-37.247l-16.115-13.022-31.548 17.842c-4.9036 2.306-11.521 1.0375-17.499-2.5421l-24.828-15.209-23.187 14.597c20.784 11.568 35.087 22.338 50.958 35.582z"/>
     <path d="m419.64 179.15c17.637-11.543 39.525-24.783 58.513-35.054l-12.695-10.525-30.833 16.971c-5.7077 2.2783-10.177 1.8921-18.426-2.4274l-24.511-14.799-19.865 12.37c17.323 9.6344 34.589 22.435 47.817 33.464z"/>
     <path d="m419.7 177.01c17.637-11.543 36.464-23.094 55.452-33.365l-9.768-7.8984-30.242 15.987c-5.1764 2.2895-10.854 2.5846-19.812-2.2156l-23.693-14.835-16.543 10.795c17.323 9.6344 31.377 20.501 44.605 31.531z"/>
     <path d="m419.85 174.72c17.637-11.543 33.461-21.44 52.448-31.71l-6.9825-5.2274-29.569 15.444c-5.1444 2.3854-11.366 3.1921-21.572-2.3434l-22.629-14.291-13.404 8.7464c17.323 9.6344 28.48 18.352 41.708 29.382z"/>
     <path d="m419.92 172.55c17.637-11.543 30.271-19.312 49.259-29.582l-3.9254-3.2489-28.281 14.822c-5.0804 2.6412-13.125 3.5748-24.035-2.4403l-21.49-13.516-10.434 6.5782c17.323 9.6344 25.679 16.358 38.907 27.387z"/>
     <path d="m420.04 170.08c17.637-11.543 27.201-17.394 46.189-27.664l-1.1189-0.98807-26.145 14.137c-9.8175 3.4724-16.603 4.2837-28.537-3.1062l-19.058-12.218-7.2699 4.7664c17.323 9.951 22.577 14.088 35.941 25.072z"/>
    </g>
    <path d="m424.49 143.84-0.9234 16.852c-1.9844 0.011-5.0624-0.81853-6.6866-1.2988-0.586-0.20267-1.2801 0.42047-0.6368 0.88696l3.9264 2.9559 3.3333-2.0056c-5.6889-1.7052-11.358-3.524-17.046-7.2328l-14.374-9.2638c-0.8058-0.50641-1.7489 0.24665-0.7718 0.88052 9.4661 5.9914 19.486 12.74 29.009 19.941l7.8171-5.1739c0.5658-0.30203 0.5161-1.099-0.8915-0.96185-7.5096 0.13306-13.789-3.0687-19.917-6.6785l-16.048-10.106-3.2582 2.097c8.1531 4.4968 32.071 23.077 32.182 23.006l19.868-12.817" stroke-width=".99921"/>
    <g stroke-width="1px">
     <path d="m388.79 112.39 3.5106 0.31973c9.2371 5.2359 18.976 10.89 28.551 17.137 3.2787 1.8148 8.8312 2.5513 13.444 0.31973l31.304-17.009 2.5794-0.10141 0.10929-3.7353"/>
     <path d="m388.82 116.54 3.5049 0.51156c9.2372 5.2359 18.976 10.89 28.551 17.137 3.0975 1.7244 8.2879 2.5513 13.443 0.31972l31.56-17.297 2.7207-0.25579 0.21857-3.4343"/>
     <path d="m388.85 120.94 3.3289 0.57551c9.2371 5.2359 18.976 10.89 28.551 17.137 3.4597 1.8148 8.5596 2.4609 13.444 0.31972l31.56-17.297 3.0408-0.31974 0.21079-3.4983"/>
     <path d="m388.7 125.07 3.1336 0.66092c9.2371 5.2359 19.04 10.762 28.615 17.009 3.1881 1.9381 9.2638 2.6902 14.148 0.25578l31.56-17.297 3.0408-0.31973 0.12026-3.6565"/>
     <path d="m414.87 143.42-2.1275-0.13565 0.7243-17.725"/>
    </g>
   </g>
  </g>
  <g transform="matrix(.35849 0 0 .35809 237.57 310.25)" fill="none" stroke="#fa0000" stroke-linecap="round" stroke-linejoin="round" stroke-width="2.769">
   <path d="m421.54-517.08v-76.18l224.97 4.2857v62.321"/>
   <path d="m490.65-516.61 0.1046-32.208-66.472-44.077"/>
   <path d="m521.43-465.04 0.35714-44.286"/>
   <path d="m645.09-549.33-0.17857-39.107"/>
   <path d="m643.62-561.76 0.0631-26.984"/>
  </g>
  <path d="m468.96 117.73-0.064-18.322" fill="none" stroke="#fa0000" stroke-linecap="round" stroke-linejoin="round" stroke-width=".99213"/>
  <path d="m276.08 176.05-0.14348 9.1993-29.837-0.50193-0.12275 7.9741 30.073 0.0895 0.0362 8.5139 24.944-12.254z" fill="#ffffff" stroke="#000000" stroke-linecap="round" stroke-linejoin="round" stroke-width=".63425"/>
  <g fill="#1f638a" fill-rule="evenodd" stroke="#1f638a" stroke-linecap="round" stroke-linejoin="round" stroke-width="1.7716">
   <path d="m48.659 91.653 12.122 15.03" color="#000000" filter="url(#filter12295-5)"/>
   <path d="m198.1 135.52 12.122 15.03" color="#000000" filter="url(#filter12295-5-7)"/>
   <path d="m129.23 178.54 12.122 15.03" color="#000000" filter="url(#filter12295-5-7-5)"/>
  </g>
  <g stroke="#d50000">
   <path transform="matrix(.35849 0 0 .35809 622.95 183.38)" d="m-1247.3-210.17 0.5283 103.01" fill="none" stroke-dasharray="2.96682, 2.96682" stroke-width="2.9668"/>
   <path d="m176.1 149.35-2.5492-7.4182 5.0933-0.0805z" fill="#d50000" stroke-linecap="round" stroke-linejoin="round" stroke-width=".99921"/>
  </g>
  <g fill="#d50000" stroke="#d50000">
   <g>
    <path transform="matrix(.35849 0 0 .35809 622.95 183.38)" d="m-1428.8-120.47v108.27" stroke-dasharray="2.96682, 2.96682" stroke-width="2.9668"/>
    <path d="m110.72 187.18-2.5492-7.4182 5.0933-0.0805z" stroke-linecap="round" stroke-linejoin="round" stroke-width=".99921"/>
   </g>
   <g stroke-linejoin="round">
    <path transform="matrix(.35849 0 0 .35809 622.95 183.38)" d="m-1581-204.82v104.74" stroke-dasharray="2.47235, 2.47235" stroke-width="2.4724"/>
    <path d="m56.229 151.08-2.5492-7.4182 5.0933-0.0805z" stroke-linecap="round" stroke-width=".99921"/>
   </g>
   <path d="m121.75 92.301-1.7908-5.3274 3.578-0.05781z" stroke-linecap="round" stroke-linejoin="round" stroke-width=".99921"/>
  </g>
 </g>
 <g>
  <g transform="translate(-2.5 -.71429)">
   <path d="m178.99 39.104 0.11958 27.151" fill="#800080" stroke="#000000" stroke-linecap="round" stroke-linejoin="round" stroke-width=".70866"/>
   <g transform="translate(20.804 -9.4643)">
    <g stroke="#000000">
     <path d="m158.3 42.218 3.4666 14.35h-6.9332c1.228-7.2721 3.4666-14.35 3.4666-14.35z" fill="#ffffff" stroke-linecap="round" stroke-linejoin="round" stroke-width=".70866"/>
     <g transform="rotate(28.557 158.19 75.677)" stroke-linecap="round" stroke-linejoin="round" stroke-width=".70866">
      <path d="m181.07 75.84-22.523-0.0967" fill="#800080"/>
      <path d="m189.12 75.856-14.355 3.4439 0.011-6.9332z" fill="#ffffff"/>
     </g>
     <text x="182.9252" y="84.591331" fill="#000000" font-family="'Arial Nova', 'Arial Unicode MS', 'Yu Gothic UI', sans-serif" letter-spacing="0px" word-spacing="0px" style="line-height:0%" xml:space="preserve"><tspan x="182.9252" y="84.591331" fill="#ff0000" font-family="'Arial Nova', 'Arial Unicode MS', 'Yu Gothic UI', sans-serif" font-size="10px" stroke="#000000" style="line-height:1.25">X</tspan></text>
     <text x="162.13786" y="49.450394" fill="#000000" font-family="'Arial Nova', 'Arial Unicode MS', 'Yu Gothic UI', sans-serif" letter-spacing="0px" word-spacing="0px" style="line-height:0%" xml:space="preserve"><tspan x="162.13786" y="49.450394" fill="#ff0000" font-family="'Arial Nova', 'Arial Unicode MS', 'Yu Gothic UI', sans-serif" font-size="10px" stroke="#000000" style="line-height:1.25">Z</tspan></text>
     <g transform="matrix(-.90813 .41869 .41869 .90813 270.32 -59.522)" stroke-linecap="round" stroke-linejoin="round" stroke-width=".70866">
      <path d="m181.07 75.84-22.523-0.0967" fill="#800080"/>
      <path d="m189.12 75.856-14.355 3.4439 0.011-6.9332z" fill="#ffffff"/>
     </g>
     <text x="132.56766" y="77.286919" fill="#000000" font-family="'Arial Nova', 'Arial Unicode MS', 'Yu Gothic UI', sans-serif" letter-spacing="0px" word-spacing="0px" style="line-height:0%" xml:space="preserve"><tspan x="132.56766" y="77.286919" fill="#ff0000" font-family="'Arial Nova', 'Arial Unicode MS', 'Yu Gothic UI', sans-serif" font-size="10px" stroke="#000000" style="line-height:1.25">Y</tspan></text>
    </g>
    <g transform="translate(-105.92 264.92)">
     <ellipse transform="matrix(.9071 0 0 .90186 24.872 -1.1139)" cx="263.88" cy="-208.61" rx="3.8007" ry="3.8228" color="#000000" fill="#ffffff" stroke="#000000" stroke-linecap="round" stroke-linejoin="round" stroke-width=".7835"/>
     <ellipse transform="matrix(.81605 0 0 .73445 48.612 -50.299)" cx="264.23" cy="-189.2" rx=".4342" ry=".48244" color="#000000" fill="#000000"/>
    </g>
   </g>
  </g>
 </g>
</svg>
