<?xml version="1.0" encoding="UTF-8"?>
<svg width="18cm" height="7cm" version="1.1" xmlns="http://www.w3.org/2000/svg" xmlns:cc="http://creativecommons.org/ns#" xmlns:dc="http://purl.org/dc/elements/1.1/" xmlns:rdf="http://www.w3.org/1999/02/22-rdf-syntax-ns#" xmlns:xlink="http://www.w3.org/1999/xlink">
 <title>Abbildung für OPEN MIND Softwaredokumentation</title>
 <defs>
  <linearGradient id="linearGradient7747-2-1">
   <stop stop-color="#fff" offset="0"/>
   <stop stop-color="#808080" offset="1"/>
  </linearGradient>
  <linearGradient id="linearGradient17039" x1="79.444" x2="121.93" y1="69.634" y2="70.119" gradientUnits="userSpaceOnUse" xlink:href="#linearGradient7747-2-1"/>
  <linearGradient id="linearGradient17041" x1="169.72" x2="210.81" y1="122.7" y2="122.2" gradientUnits="userSpaceOnUse" xlink:href="#linearGradient7747-2-1"/>
  <linearGradient id="linearGradient17047" x1="79.444" x2="121.93" y1="69.634" y2="70.119" gradientUnits="userSpaceOnUse">
   <stop stop-color="#fff" offset="0"/>
   <stop stop-color="#808080" offset="1"/>
  </linearGradient>
 </defs>
 <metadata>
  <rdf:RDF>
   <cc:Work rdf:about="">
    <dc:format>image/svg+xml</dc:format>
    <dc:type rdf:resource="http://purl.org/dc/dcmitype/StillImage"/>
    <dc:title>Abbildung für OPEN MIND Softwaredokumentation</dc:title>
    <dc:creator>
     <cc:Agent>
      <dc:title>OPEN MIND Technologies AG</dc:title>
     </cc:Agent>
    </dc:creator>
    <dc:rights>
     <cc:Agent>
      <dc:title>Alle Rechte vorbehalten.</dc:title>
     </cc:Agent>
    </dc:rights>
    <dc:publisher>
     <cc:Agent>
      <dc:title>Technische Redaktion</dc:title>
     </cc:Agent>
    </dc:publisher>
   </cc:Work>
  </rdf:RDF>
 </metadata>
 <g transform="translate(0 -857.95)">
  <g fill="#000000" font-family="'Arial Nova', 'Arial Unicode MS', 'Yu Gothic UI', sans-serif" font-size="12.8px" letter-spacing="0px" stroke-width="1.0667" word-spacing="0px">
   <text x="158.47583" y="904.43219" style="line-height:0%" xml:space="preserve"><tspan x="158.47583" y="904.43219" fill="#ffffff" font-family="'Arial Nova', 'Arial Unicode MS', 'Yu Gothic UI', sans-serif" font-size="21.333px" font-weight="bold" stroke-width="1.0667" style="line-height:1.25">A</tspan></text>
   <text x="371.99677" y="904.43219" style="line-height:0%" xml:space="preserve"><tspan x="371.99677" y="904.43219" fill="#ffffff" font-family="'Arial Nova', 'Arial Unicode MS', 'Yu Gothic UI', sans-serif" font-size="21.333px" font-weight="bold" stroke-width="1.0667" style="line-height:1.25">B</tspan></text>
   <text x="492.29291" y="970.02087" style="line-height:0%" xml:space="preserve"><tspan x="492.29291" y="970.02087" fill="#ffffff" font-family="'Arial Nova', 'Arial Unicode MS', 'Yu Gothic UI', sans-serif" font-size="21.333px" font-weight="bold" stroke-width="1.0667" style="line-height:1.25">1</tspan></text>
  </g>
  <g clip-rule="evenodd">
   <polygon transform="matrix(1.0372 0 0 1.146 33.965 923.76)" points="79.444 28.75 121.02 28.75 121.02 110.52 79.444 110.52" fill="url(#linearGradient17039)" fill-rule="evenodd"/>
   <polygon transform="matrix(1.0372 0 0 .74011 -4.4348 953.15)" points="169.72 186.94 169.72 58.464 211.3 58.464 211.3 186.94" fill="url(#linearGradient17041)" fill-rule="evenodd"/>
   <polygon transform="matrix(1.0372 0 0 1.1503 33.965 923.27)" points="79.444 28.75 121.02 28.75 121.02 110.52 79.444 110.52" fill="none" stroke="#4d4d4d" stroke-linecap="round" stroke-linejoin="round" stroke-width=".61936"/>
   <polygon transform="matrix(1.0372 0 0 .7416 -4.4348 953.06)" points="169.72 58.464 211.3 58.464 211.3 186.94 169.72 186.94" fill="none" stroke="#4d4d4d" stroke-linecap="round" stroke-linejoin="round" stroke-width=".77139"/>
  </g>
  <g stroke="#000" stroke-linecap="round" stroke-linejoin="round">
   <path d="m137.25 984.23v44.096" stroke-width=".94488"/>
   <path d="m137.19 1029.2 4.1905-12.571h-8.7619z" stroke-width="1.0658"/>
   <path d="m192.42 1029 4.1905-12.571h-8.7619z" stroke-width="1.0658"/>
  </g>
  <path d="m117.48 957.36h40.815" fill="#800080" stroke="#800080" stroke-linecap="square" stroke-width="2.6457"/>
  <path d="m192.46 985.3v43.234" stroke="#000" stroke-linecap="round" stroke-linejoin="round" stroke-width=".94488"/>
  <g fill="#34679b" stroke-linecap="square">
   <path d="m172.98 1032.1h40.564" stroke="#7ab51d" stroke-width="2.6457"/>
   <path d="m117.47 983.96h40.898" stroke="#34679b" stroke-width="2.6457"/>
   <path d="m117.48 1031.5h40.875" stroke="#7ab51d" stroke-width="2.6457"/>
   <path d="m172.25 983.71h42.198" stroke="#34679b" stroke-width="2.6457"/>
  </g>
  <g clip-rule="evenodd">
   <polygon transform="matrix(1.0372 0 0 1.146 247.01 924.2)" points="79.444 110.52 79.444 28.75 121.02 28.75 121.02 110.52" fill="url(#linearGradient17039)" fill-rule="evenodd"/>
   <polygon transform="matrix(1.0372 0 0 .74011 208.61 953.59)" points="211.3 58.464 211.3 186.94 169.72 186.94 169.72 58.464" fill="url(#linearGradient17041)" fill-rule="evenodd"/>
   <polygon transform="matrix(1.0372 0 0 1.1503 247.01 923.72)" points="121.02 110.52 79.444 110.52 79.444 28.75 121.02 28.75" fill="none" stroke="#4d4d4d" stroke-linecap="round" stroke-linejoin="round" stroke-width=".61936"/>
   <polygon transform="matrix(1.0372 0 0 .7416 208.61 953.51)" points="169.72 186.94 169.72 58.464 211.3 58.464 211.3 186.94" fill="none" stroke="#4d4d4d" stroke-linecap="round" stroke-linejoin="round" stroke-width=".77139"/>
  </g>
  <g>
   <g>
    <path d="m405.47 1029.5 4.1905-12.571h-8.7619z" stroke="#000" stroke-linecap="round" stroke-linejoin="round" stroke-width="1.0658"/>
    <g stroke-linecap="square">
     <path d="m330.53 957.81h40.815" fill="#800080" stroke="#800080" stroke-width="2.6457"/>
     <path d="m386.03 1032.6h40.564" fill="#34679b" stroke="#7ab51d" stroke-width="2.6457"/>
     <path d="m385.3 984.16h42.198" fill="#34679b" stroke="#34679b" stroke-width="2.6457"/>
    </g>
    <path d="m349.85 987.72 4.1905-12.571h-8.7619z" stroke="#000" stroke-linecap="round" stroke-linejoin="round" stroke-width="1.0658"/>
    <path d="m330.41 990.81h40.564" fill="#34679b" stroke="#7ab51d" stroke-linecap="square" stroke-width="2.6457"/>
    <path d="m329.67 942.4h42.198" fill="#34679b" stroke="#34679b" stroke-linecap="square" stroke-width="2.6457"/>
   </g>
   <polygon transform="matrix(1.0372 0 0 1.146 448.36 923.86)" points="79.444 28.75 121.02 28.75 121.02 110.52 79.444 110.52" clip-rule="evenodd" fill="url(#linearGradient17047)" fill-rule="evenodd"/>
  </g>
  <g>
   <g>
    <polygon transform="matrix(1.0372 0 0 1.1503 448.36 923.38)" points="79.444 28.75 121.02 28.75 121.02 110.52 79.444 110.52" clip-rule="evenodd" fill="none" stroke="#4d4d4d" stroke-linecap="round" stroke-linejoin="round" stroke-width=".61936"/>
    <g>
     <path d="m531.88 957.47h40.815" fill="#800080" stroke="#800080" stroke-linecap="square" stroke-width="2.6457"/>
     <path d="m551.19 1026.9 4.1905-12.571h-8.7619z" stroke="#000" stroke-linecap="round" stroke-linejoin="round" stroke-width="1.0658"/>
     <path d="m551.23 982.05v43.234" stroke="#000" stroke-linecap="round" stroke-linejoin="round" stroke-width=".94488"/>
    </g>
   </g>
   <g stroke-linecap="square">
    <path d="m531.75 1028.9h40.564" fill="#34679b" stroke="#7ab51d" stroke-width="2.6457"/>
    <path d="m531.98 980.46h40.837" fill="#34679b" stroke="#34679b" stroke-width="2.6457"/>
    <line x1="25.328" x2="45.239" y1="1091.7" y2="1091.6" fill="none" stroke="#e2001a" stroke-miterlimit="10" stroke-width="1.4324"/>
   </g>
  </g>
  <text x="33.550934" y="1065.0302" fill="#34679b" font-family="'Arial Nova', 'Arial Unicode MS', 'Yu Gothic UI', sans-serif" font-size="19.569px" stroke-width="1.0667" style="line-height:0%">Z</text>
  <text x="60.186218" y="1097.4402" fill="#e2001a" font-family="'Arial Nova', 'Arial Unicode MS', 'Yu Gothic UI', sans-serif" font-size="19.569px" stroke-width="1.0667" style="line-height:0%">X</text>
  <g>
   <line x1="25.114" x2="25.146" y1="1091.4" y2="1064.6" fill="#34679b" stroke="#34679b" stroke-linecap="square" stroke-miterlimit="10" stroke-width="1.4324"/>
   <path d="m41.83 1096.7v0l19.162-5.4042-19.162-5.1068z" fill="#e2001a" fill-rule="evenodd" stroke="#e2001a" stroke-linecap="round" stroke-linejoin="round" stroke-width="1.0658"/>
   <path d="m30.916 1070.7v0l-5.4041-19.162-5.1069 19.162z" fill="#34679b" fill-rule="evenodd" stroke="#34679b" stroke-linecap="round" stroke-linejoin="round" stroke-width="1.0658"/>
  </g>
  <g fill="#1f638a" fill-rule="evenodd" stroke="#1f638a" stroke-linecap="round" stroke-linejoin="round" stroke-width="1.4324">
   <path d="m242.19 984.04h-22.631" color="#000000"/>
   <path d="m240.75 1031.5h-22.631" color="#000000"/>
   <path d="m453.69 999.76h-18.136" color="#000000"/>
   <path d="m594.9 980.69h-16.716" color="#000000"/>
  </g>
  <g>
   <path d="m349.88 943.99v43.234" stroke="#000" stroke-linecap="round" stroke-linejoin="round" stroke-width=".94488"/>
   <path d="m172.96 996.57h40.815" fill="#800080" stroke="#800080" stroke-linecap="square" stroke-width="2.6457"/>
   <path d="m385.71 998h40.815" fill="#800080" stroke="#800080" stroke-linecap="square" stroke-width="2.6457"/>
   <path d="m405.51 985.74v43.234" stroke="#000" stroke-linecap="round" stroke-linejoin="round" stroke-width=".94488"/>
  </g>
  <g transform="translate(291.64 1082.5)">
   <ellipse cx="-44.92" cy="-98.798" rx="13.199" ry="13.469" fill="#1f638a" stroke-linecap="round" stroke-linejoin="round" stroke-width="1.0658"/>
   <text x="-50.761276" y="-91.125885" fill="#000000" font-family="'Arial Nova', 'Arial Unicode MS', 'Yu Gothic UI', sans-serif" font-size="12.8px" letter-spacing="0px" stroke-width="1.0667" word-spacing="0px" style="line-height:0%" xml:space="preserve"><tspan x="-50.761276" y="-91.125885" fill="#ffffff" font-family="'Arial Nova', 'Arial Unicode MS', 'Yu Gothic UI', sans-serif" font-size="21.333px" stroke="#ffffff" stroke-width="1.0667" style="line-height:1.25">1</tspan></text>
  </g>
  <g transform="translate(260.44 1130.5)">
   <ellipse cx="-13.718" cy="-98.798" rx="13.199" ry="13.469" fill="#1f638a" stroke-linecap="round" stroke-linejoin="round" stroke-width="1.0658"/>
   <text x="-19.559933" y="-91.125885" fill="#000000" font-family="'Arial Nova', 'Arial Unicode MS', 'Yu Gothic UI', sans-serif" font-size="12.8px" letter-spacing="0px" stroke-width="1.0667" word-spacing="0px" style="line-height:0%" xml:space="preserve"><tspan x="-19.559933" y="-91.125885" fill="#ffffff" font-family="'Arial Nova', 'Arial Unicode MS', 'Yu Gothic UI', sans-serif" font-size="21.333px" stroke="#ffffff" stroke-width="1.0667" style="line-height:1.25">2</tspan></text>
  </g>
  <g transform="translate(71.206 1189.9)">
   <ellipse cx="17.483" cy="-98.798" rx="13.199" ry="13.469" fill="#1f638a" stroke-linecap="round" stroke-linejoin="round" stroke-width="1.0658"/>
   <text x="11.641406" y="-91.256096" fill="#000000" font-family="'Arial Nova', 'Arial Unicode MS', 'Yu Gothic UI', sans-serif" font-size="12.8px" letter-spacing="0px" stroke-width="1.0667" word-spacing="0px" style="line-height:0%" xml:space="preserve"><tspan x="11.641406" y="-91.256096" fill="#ffffff" font-family="'Arial Nova', 'Arial Unicode MS', 'Yu Gothic UI', sans-serif" font-size="21.333px" stroke="#ffffff" stroke-width="1.0667" style="line-height:1.25">3</tspan></text>
  </g>
  <g transform="translate(62.389 849.8)">
   <g transform="translate(354.56 247.34)">
    <ellipse cx="48.684" cy="-98.798" rx="13.199" ry="13.469" fill="#1f638a" stroke-linecap="round" stroke-linejoin="round" stroke-width="1.0658"/>
    <text x="42.842751" y="-91.162346" fill="#000000" font-family="'Arial Nova', 'Arial Unicode MS', 'Yu Gothic UI', sans-serif" font-size="12.8px" letter-spacing="0px" stroke-width="1.0667" word-spacing="0px" style="line-height:0%" xml:space="preserve"><tspan x="42.842751" y="-91.162346" fill="#ffffff" font-family="'Arial Nova', 'Arial Unicode MS', 'Yu Gothic UI', sans-serif" font-size="21.333px" stroke="#ffffff" stroke-width="1.0667" style="line-height:1.25">4</tspan></text>
   </g>
  </g>
  <g transform="translate(330.56 797.76)">
   <g transform="translate(197.02 281.84)">
    <ellipse cx="79.886" cy="-98.798" rx="13.199" ry="13.469" fill="#1f638a" stroke-linecap="round" stroke-linejoin="round" stroke-width="1.0658"/>
    <text x="74.04409" y="-91.396721" fill="#000000" font-family="'Arial Nova', 'Arial Unicode MS', 'Yu Gothic UI', sans-serif" font-size="12.8px" letter-spacing="0px" stroke-width="1.0667" word-spacing="0px" style="line-height:0%" xml:space="preserve"><tspan x="74.04409" y="-91.396721" fill="#ffffff" font-family="'Arial Nova', 'Arial Unicode MS', 'Yu Gothic UI', sans-serif" font-size="21.333px" stroke="#ffffff" stroke-width="1.0667" style="line-height:1.25">5</tspan></text>
   </g>
  </g>
  <g transform="translate(204.32 946.27)">
   <ellipse cx="-36.9" cy="-49.598" rx="13.199" ry="13.469" fill="#1f638a" stroke-linecap="round" stroke-linejoin="round" stroke-width="1.0658"/>
   <text x="-44.014687" y="-41.962215" fill="#000000" font-family="'Arial Nova', 'Arial Unicode MS', 'Yu Gothic UI', sans-serif" font-size="12.8px" letter-spacing="0px" stroke-width="1.0667" word-spacing="0px" style="line-height:0%" xml:space="preserve"><tspan x="-44.014687" y="-41.962215" fill="#ffffff" font-family="'Arial Nova', 'Arial Unicode MS', 'Yu Gothic UI', sans-serif" font-size="21.333px" stroke="#ffffff" stroke-width="1.0667" style="line-height:1.25">A</tspan></text>
  </g>
  <g transform="translate(415.36 916.34)">
   <ellipse cx="-36.668" cy="-19.66" rx="13.199" ry="13.469" fill="#1f638a" stroke-linecap="round" stroke-linejoin="round" stroke-width="1.0658"/>
   <text x="-43.09388" y="-12.024389" fill="#000000" font-family="'Arial Nova', 'Arial Unicode MS', 'Yu Gothic UI', sans-serif" font-size="12.8px" letter-spacing="0px" stroke-width="1.0667" word-spacing="0px" style="line-height:0%" xml:space="preserve"><tspan x="-43.09388" y="-12.024389" fill="#ffffff" font-family="'Arial Nova', 'Arial Unicode MS', 'Yu Gothic UI', sans-serif" font-size="21.333px" stroke="#ffffff" stroke-width="1.0667" style="line-height:1.25">B</tspan></text>
  </g>
  <g transform="translate(566.85 964.38)">
   <ellipse cx="-16.245" cy="-67.7" rx="13.199" ry="13.469" fill="#1f638a" stroke-linecap="round" stroke-linejoin="round" stroke-width="1.0658"/>
   <text x="-24.07345" y="-60.064144" fill="#000000" font-family="'Arial Nova', 'Arial Unicode MS', 'Yu Gothic UI', sans-serif" font-size="12.8px" letter-spacing="0px" stroke-width="1.0667" word-spacing="0px" style="line-height:0%" xml:space="preserve"><tspan x="-24.07345" y="-60.064144" fill="#ffffff" font-family="'Arial Nova', 'Arial Unicode MS', 'Yu Gothic UI', sans-serif" font-size="21.333px" stroke="#ffffff" stroke-linecap="round" stroke-linejoin="round" stroke-width="1.0658" style="line-height:1.25">C</tspan></text>
  </g>
 </g>
</svg>
