<svg width="180mm" height="65mm" version="1.1" viewBox="0 0 180 65" xmlns="http://www.w3.org/2000/svg" xmlns:xlink="http://www.w3.org/1999/xlink">
 <defs>
  <linearGradient id="linearGradient17780-7-9-9-6-9-2-96-7">
   <stop stop-color="#fff" offset="0"/>
   <stop stop-color="#00385e" offset="1"/>
  </linearGradient>
  <linearGradient id="linearGradient13623-2" x1="23.331" x2="21.541" y1="8.7803" y2="148.54" gradientTransform="matrix(1.0966 0 0 1.0966 -10.272 -31.276)" gradientUnits="userSpaceOnUse" xlink:href="#linearGradient17780-7-9-9-6-9-2-96-7"/>
  <linearGradient id="linearGradient13623-2-6" x1="23.331" x2="21.541" y1="8.7803" y2="148.54" gradientTransform="matrix(1.0966 0 0 1.0966 79.516 -31.514)" gradientUnits="userSpaceOnUse" xlink:href="#linearGradient17780-7-9-9-6-9-2-96-7"/>
 </defs>
 <g>
  <path d="m1.297 62.079v-56.336h86.006l-0.14174 56.288" fill="none" stroke="#5a5a5a" stroke-linecap="round" stroke-linejoin="round" stroke-width=".179" style="paint-order:markers fill stroke"/>
  <g fill-rule="evenodd">
   <rect x="1.2831" y="5.7145" width="86.029" height="56.321" fill="#000000" opacity=".076037" style="paint-order:markers fill stroke"/>
   <rect x="13.97" y="48.271" width="73.113" height="13.955" fill="#264276" fill-opacity=".66274" opacity=".83209" style="paint-order:markers fill stroke"/>
   <path d="m1.3447 62.143 0.047739-56.31 9.9417-0.18085-0.082477 7.0869h17.336l0.01536-7.0055h8.5992l1.1599 1.132 0.05181 10.183 9.7688-0.05745c-1.0159 6.6016-1.5936 10.095 2.175 10.521l4.321-0.01009 15.733-10.451 13.501 0.07078-0.0071 11.98h-2.6556v1.6108l-2.1784 0.017v3.3544h2.4983v6.2845l-2.5275-4e-3 0.02918 3.1344 4.834-4e-5 -0.02645 3.0318-1.7588 1.1996-40.898 0.24614c0.04438-2.9551-1.8743-7.1107-7.1301-7.1261-4.8532 0.06061-6.9036 4.2219-6.9579 7.1178l-13.642-8.16e-4 0.09449 14.268" fill="url(#linearGradient13623-2)" opacity=".63825" stroke="#000000" stroke-linecap="round" stroke-linejoin="round" stroke-width=".179" style="paint-order:markers fill stroke"/>
  </g>
  <g transform="matrix(.26458 0 0 .26458 31.761 46.807)">
   <ellipse cx="-44.92" cy="-98.798" rx="13.199" ry="13.469" fill="#1f638a" stroke-linecap="round" stroke-linejoin="round" stroke-width="1.0658"/>
   <text x="-50.761276" y="-91.125885" fill="#000000" letter-spacing="0px" word-spacing="0px" style="line-height:0%" xml:space="preserve"><tspan x="-50.761276" y="-91.125885" fill="#ffffff" font-family="'Arial Nova', 'Arial Unicode MS', 'Yu Gothic UI', sans-serif" font-size="20px" stroke="#ffffff" stroke-width="1.0667" style="line-height:1.25">1</tspan></text>
  </g>
  <path d="m19.998 17.239v-4.37" fill="none" stroke="#000000" stroke-width=".26458px"/>
  <g transform="matrix(.26458 0 0 .26458 19.121 81.285)">
   <ellipse cx="-44.92" cy="-98.798" rx="13.199" ry="13.469" fill="#1f638a" stroke-linecap="round" stroke-linejoin="round" stroke-width="1.0658"/>
   <text x="-50.798264" y="-91.276443" fill="#000000" letter-spacing="0px" word-spacing="0px" style="line-height:0%" xml:space="preserve"><tspan x="-50.798264" y="-91.276443" fill="#ffffff" font-family="'Arial Nova', 'Arial Unicode MS', 'Yu Gothic UI', sans-serif" font-size="20px" stroke="#ffffff" stroke-width="1.0667" style="line-height:1.25">A</tspan></text>
  </g>
  <path d="m1.4643 5.7846 9.9354 0.033409-0.05904 6.8058 17.302 0.06682-0.01801-6.9386h8.9333l1.1599 1.0652 0.0518 10.183 9.4558 0.02051c-0.0819 3.3408-2.1661 7.0042 0.24375 9.7494 0.3705 0.30175 0.73548 0.61709 1.849 0.72986h4.2804l16.119-10.477 12.984-0.06361" fill="none" stroke="#9c0080" stroke-linecap="round" stroke-linejoin="round" stroke-width=".579" style="paint-order:markers fill stroke"/>
  <g fill-rule="evenodd">
   <rect x="91.169" y="5.51" width="86.029" height="56.321" fill="#000000" opacity=".076037" style="paint-order:markers fill stroke"/>
   <path d="m91.132 61.905 0.04774-56.31 9.8748-0.08173-0.0157 6.9878h17.336l0.0154-6.9878h8.5992l1.1599 1.1143 0.0518 10.183 9.2137 0.07247c-0.15959 3.9667-2.7119 8.4831 1.2065 10.468l4.6399-0.016 16.04-10.428 14.399-0.02371-7e-3 11.98h-2.6556v1.6108l-2.1784 0.017v3.3544h2.4983v6.2845l-2.5275-4e-3 0.0292 3.1344 4.834-4e-5 -0.0974 2.6538-1.688 1.5776-40.898 0.24613c0.0444-2.9551-1.8743-7.1107-7.1301-7.1261-4.8532 0.06061-6.4902 4.1983-6.5445 7.0942l-13.642-7.94e-4 -0.31891 14.291" fill="url(#linearGradient13623-2-6)" opacity=".63825" stroke="#000000" stroke-linecap="round" stroke-linejoin="round" stroke-width=".179" style="paint-order:markers fill stroke"/>
   <rect x="104.15" y="48.08" width="72.748" height="13.989" fill="#243e6f" fill-opacity=".58431" opacity=".83" style="paint-order:markers fill stroke"/>
  </g>
  <path d="m173.68 16.802-0.0907 28.905" fill="none" stroke="#ff00ff" stroke-linecap="round" stroke-linejoin="round" stroke-width=".579" style="paint-order:markers fill stroke"/>
  <path d="m173.56 45.846-1.6543 1.805h-68.226v14.374" fill="none" stroke="#2c0094" stroke-linecap="round" stroke-linejoin="round" stroke-width=".579" style="paint-order:markers fill stroke"/>
  <g transform="translate(.37798 -14.363)">
   <g transform="matrix(.26458 0 0 .26458 82.448 72.709)">
    <ellipse cx="-44.92" cy="-98.798" rx="13.199" ry="13.469" fill="#1f638a" stroke-linecap="round" stroke-linejoin="round" stroke-width="1.0658"/>
    <text x="-50.003662" y="-91.252151" fill="#000000" letter-spacing="0px" word-spacing="0px" style="line-height:0%" xml:space="preserve"><tspan x="-50.003662" y="-91.252151" fill="#ffffff" font-family="'Arial Nova', 'Arial Unicode MS', 'Yu Gothic UI', sans-serif" font-size="20px" stroke="#ffffff" stroke-width="1.0667" style="line-height:1.25">2</tspan></text>
   </g>
   <path d="m73.846 46.703h4.37" fill="none" stroke="#000000" stroke-width=".26458px"/>
  </g>
  <g transform="matrix(.26458 0 0 .26458 59.838 65.852)">
   <ellipse cx="-44.92" cy="-98.798" rx="13.199" ry="13.469" fill="#1f638a" stroke-linecap="round" stroke-linejoin="round" stroke-width="1.0658"/>
   <text x="-50.003662" y="-91.252151" fill="#000000" letter-spacing="0px" word-spacing="0px" style="line-height:0%" xml:space="preserve"><tspan x="-50.003662" y="-91.252151" fill="#ffffff" font-family="'Arial Nova', 'Arial Unicode MS', 'Yu Gothic UI', sans-serif" font-size="20px" stroke="#ffffff" stroke-width="1.0667" style="line-height:1.25">3</tspan></text>
  </g>
  <path d="m47.86 47.653v-4.37" fill="none" stroke="#000000" stroke-width=".26458px"/>
  <g transform="matrix(.26458 0 0 .26458 122.35 46.324)">
   <ellipse cx="-44.92" cy="-98.798" rx="13.199" ry="13.469" fill="#1f638a" stroke-linecap="round" stroke-linejoin="round" stroke-width="1.0658"/>
   <text x="-50.761276" y="-91.125885" fill="#000000" letter-spacing="0px" word-spacing="0px" style="line-height:0%" xml:space="preserve"><tspan x="-50.761276" y="-91.125885" fill="#ffffff" font-family="'Arial Nova', 'Arial Unicode MS', 'Yu Gothic UI', sans-serif" font-size="20px" stroke="#ffffff" stroke-width="1.0667" style="line-height:1.25">4</tspan></text>
  </g>
  <g transform="matrix(.26458 0 0 .26458 172.73 58.132)">
   <ellipse cx="-44.92" cy="-98.798" rx="13.199" ry="13.469" fill="#1f638a" stroke-linecap="round" stroke-linejoin="round" stroke-width="1.0658"/>
   <text x="-50.761276" y="-91.125885" fill="#000000" letter-spacing="0px" word-spacing="0px" style="line-height:0%" xml:space="preserve"><tspan x="-50.761276" y="-91.125885" fill="#ffffff" font-family="'Arial Nova', 'Arial Unicode MS', 'Yu Gothic UI', sans-serif" font-size="20px" stroke="#ffffff" stroke-width="1.0667" style="line-height:1.25">5</tspan></text>
  </g>
  <g transform="matrix(.26458 0 0 .26458 151.38 65.83)">
   <ellipse cx="-44.92" cy="-98.798" rx="13.199" ry="13.469" fill="#1f638a" stroke-linecap="round" stroke-linejoin="round" stroke-width="1.0658"/>
   <text x="-50.003662" y="-91.252151" fill="#000000" letter-spacing="0px" word-spacing="0px" style="line-height:0%" xml:space="preserve"><tspan x="-50.003662" y="-91.252151" fill="#ffffff" font-family="'Arial Nova', 'Arial Unicode MS', 'Yu Gothic UI', sans-serif" font-size="20px" stroke="#ffffff" stroke-width="1.0667" style="line-height:1.25">6</tspan></text>
  </g>
  <g fill="none" stroke="#000000" stroke-width=".26458px">
   <path d="m110.37 16.605v-10.72"/>
   <path d="m164.31 31.941h9.1325"/>
   <path d="m139.56 47.569v-4.37"/>
  </g>
  <g stroke-linecap="round" stroke-linejoin="round">
   <path d="m87.001 62.083-85.657 0.015145" fill="#34679b" stroke="#4d4d4d" stroke-dasharray="2.112, 1.056, 0.528, 1.056" stroke-width=".528"/>
   <path d="m91.166 61.946v-56.336h86.006l-0.14174 56.288" fill="none" stroke="#5a5a5a" stroke-width=".179" style="paint-order:markers fill stroke"/>
   <path d="m176.87 62.176-85.657 0.01514" fill="#34679b" stroke="#4d4d4d" stroke-dasharray="2.112, 1.056, 0.528, 1.056" stroke-width=".528"/>
  </g>
  <g fill="none" stroke-linecap="round" stroke-linejoin="round">
   <path d="m83.898 17.284v11.583h-2.6828v1.6108l-2.1784 0.017v3.3544h2.4983v6.2845l-2.5275-4e-3 0.02918 3.1344 4.8612-4e-5v2.9566" stroke="#ff00ff" stroke-width=".64603" style="paint-order:markers fill stroke"/>
   <path d="m91.132 5.6665 36.094-0.02362 1.1599 1.1034 0.0518 10.183 45.262-0.11132" stroke="#9c0080" stroke-width=".579" style="paint-order:markers fill stroke"/>
   <path d="m83.831 46.31-1.6495 1.5379h-40.898c0.0444-2.9551-1.8743-7.0349-7.1301-7.0502-4.8531 0.0606-6.9036 4.1544-6.9579 7.0502h-13.642v14.287" stroke="#2c0094" stroke-width=".579" style="paint-order:markers fill stroke"/>
  </g>
  <g transform="matrix(.26458 0 0 .26458 60.349 81.836)">
   <ellipse cx="-44.92" cy="-98.798" rx="13.199" ry="13.469" fill="#1f638a" stroke-linecap="round" stroke-linejoin="round" stroke-width="1.0658"/>
   <text x="-51.423264" y="-91.72287" fill="#000000" letter-spacing="0px" word-spacing="0px" style="line-height:0%" xml:space="preserve"><tspan x="-51.423264" y="-91.72287" fill="#ffffff" font-family="'Arial Nova', 'Arial Unicode MS', 'Yu Gothic UI', sans-serif" font-size="20px" stroke="#ffffff" stroke-width="1.0667" style="line-height:1.25">B</tspan></text>
  </g>
  <g transform="matrix(.26458 0 0 .26458 151.59 81.869)">
   <ellipse cx="-44.92" cy="-98.798" rx="13.199" ry="13.469" fill="#1f638a" stroke-linecap="round" stroke-linejoin="round" stroke-width="1.0658"/>
   <text x="-50.88755" y="-91.72287" fill="#000000" letter-spacing="0px" word-spacing="0px" style="line-height:0%" xml:space="preserve"><tspan x="-50.88755" y="-91.72287" fill="#ffffff" font-family="'Arial Nova', 'Arial Unicode MS', 'Yu Gothic UI', sans-serif" font-size="20px" stroke="#ffffff" stroke-width="1.0667" style="line-height:1.25">B</tspan></text>
  </g>
  <g transform="matrix(.26458 0 0 .26458 109.31 81.109)">
   <ellipse cx="-44.92" cy="-98.798" rx="13.199" ry="13.469" fill="#1f638a" stroke-linecap="round" stroke-linejoin="round" stroke-width="1.0658"/>
   <text x="-51.172581" y="-91.490143" fill="#000000" letter-spacing="0px" word-spacing="0px" style="line-height:0%" xml:space="preserve"><tspan x="-51.172581" y="-91.490143" fill="#ffffff" font-family="'Arial Nova', 'Arial Unicode MS', 'Yu Gothic UI', sans-serif" font-size="20px" stroke="#ffffff" stroke-width="1.0667" style="line-height:1.25">A</tspan></text>
  </g>
 </g>
</svg>
