<svg version="1.1" viewBox="0 0 637.8 354.33" xmlns="http://www.w3.org/2000/svg" xmlns:xlink="http://www.w3.org/1999/xlink">
 <title>Programmeferenz-Grafik</title>
 <defs>
  <linearGradient id="linearGradient12022" x1="260.26" x2="272.44" y1="835.21" y2="835.21" gradientTransform="matrix(-1.2715 1.1485 -1.1485 -1.2715 1794.5 1770.5)" gradientUnits="userSpaceOnUse">
   <stop stop-color="#FFFFFF" offset="0"/>
   <stop stop-color="#FCFCFC" offset=".2264"/>
   <stop stop-color="#F4F4F4" offset=".3626"/>
   <stop stop-color="#E6E6E6" offset=".475"/>
   <stop stop-color="#D1D1D1" offset=".5744"/>
   <stop stop-color="#B7B7B7" offset=".6652"/>
   <stop stop-color="#979797" offset=".7498"/>
   <stop stop-color="#707070" offset=".8297"/>
   <stop stop-color="#444444" offset=".9057"/>
   <stop stop-color="#121212" offset=".9761"/>
   <stop stop-color="#000000" offset="1"/>
  </linearGradient>
  <linearGradient id="linearGradient12034" x1="-462.33" x2="1804.1" y1="1857.4" y2="2588.6" gradientTransform="matrix(.27143 0 0 .27569 353.21 394.23)" gradientUnits="userSpaceOnUse">
   <stop stop-color="#ffffff" offset="0"/>
   <stop stop-color="#00385e" offset="1"/>
  </linearGradient>
  <linearGradient id="linearGradient12073" x1="-462.33" x2="1804.1" y1="1857.4" y2="2588.6" gradientTransform="matrix(.27143 0 0 .27569 86.069 395.15)" gradientUnits="userSpaceOnUse">
   <stop stop-color="#ffffff" offset="0"/>
   <stop stop-color="#00385e" offset="1"/>
  </linearGradient>
  <linearGradient id="linearGradient12876" x1="260.26" x2="272.44" y1="835.21" y2="835.21" gradientTransform="matrix(-1.2715 1.1485 -1.1485 -1.2715 1525.6 1772.7)" gradientUnits="userSpaceOnUse">
   <stop stop-color="#FFFFFF" offset="0"/>
   <stop stop-color="#FCFCFC" offset=".2264"/>
   <stop stop-color="#F4F4F4" offset=".3626"/>
   <stop stop-color="#E6E6E6" offset=".475"/>
   <stop stop-color="#D1D1D1" offset=".5744"/>
   <stop stop-color="#B7B7B7" offset=".6652"/>
   <stop stop-color="#979797" offset=".7498"/>
   <stop stop-color="#707070" offset=".8297"/>
   <stop stop-color="#444444" offset=".9057"/>
   <stop stop-color="#121212" offset=".9761"/>
   <stop stop-color="#000000" offset="1"/>
  </linearGradient>
  <linearGradient id="linearGradient13632" x1="260.26" x2="272.44" y1="835.21" y2="835.21" gradientTransform="matrix(.53105 0 0 .53105 29.358 460.07)" gradientUnits="userSpaceOnUse">
   <stop stop-color="#FFFFFF" offset="0"/>
   <stop stop-color="#FCFCFC" offset=".2264"/>
   <stop stop-color="#F4F4F4" offset=".3626"/>
   <stop stop-color="#E6E6E6" offset=".475"/>
   <stop stop-color="#D1D1D1" offset=".5744"/>
   <stop stop-color="#B7B7B7" offset=".6652"/>
   <stop stop-color="#979797" offset=".7498"/>
   <stop stop-color="#707070" offset=".8297"/>
   <stop stop-color="#444444" offset=".9057"/>
   <stop stop-color="#121212" offset=".9761"/>
   <stop stop-color="#000000" offset="1"/>
  </linearGradient>
  <linearGradient id="linearGradient13634" x1="260.26" x2="272.44" y1="835.21" y2="835.21" gradientTransform="matrix(.35411 0 0 .35411 408.64 546.35)" gradientUnits="userSpaceOnUse">
   <stop stop-color="#FFFFFF" offset="0"/>
   <stop stop-color="#FCFCFC" offset=".2264"/>
   <stop stop-color="#F4F4F4" offset=".3626"/>
   <stop stop-color="#E6E6E6" offset=".475"/>
   <stop stop-color="#D1D1D1" offset=".5744"/>
   <stop stop-color="#B7B7B7" offset=".6652"/>
   <stop stop-color="#979797" offset=".7498"/>
   <stop stop-color="#707070" offset=".8297"/>
   <stop stop-color="#444444" offset=".9057"/>
   <stop stop-color="#121212" offset=".9761"/>
   <stop stop-color="#000000" offset="1"/>
  </linearGradient>
  <linearGradient id="linearGradient13636" x1="260.26" x2="272.44" y1="835.21" y2="835.21" gradientTransform="matrix(.9567 .95244 -.95244 .9567 771.67 -254.98)" gradientUnits="userSpaceOnUse">
   <stop stop-color="#FFFFFF" offset="0"/>
   <stop stop-color="#FCFCFC" offset=".2264"/>
   <stop stop-color="#F4F4F4" offset=".3626"/>
   <stop stop-color="#E6E6E6" offset=".475"/>
   <stop stop-color="#D1D1D1" offset=".5744"/>
   <stop stop-color="#B7B7B7" offset=".6652"/>
   <stop stop-color="#979797" offset=".7498"/>
   <stop stop-color="#707070" offset=".8297"/>
   <stop stop-color="#444444" offset=".9057"/>
   <stop stop-color="#121212" offset=".9761"/>
   <stop stop-color="#000000" offset="1"/>
  </linearGradient>
  <linearGradient id="linearGradient13700" x1="-277.65" x2="2400.6" y1="1495.5" y2="1509.5" gradientTransform="matrix(.31386 0 0 .27566 355.84 380.46)" gradientUnits="userSpaceOnUse">
   <stop stop-color="#fefefe" offset="0"/>
   <stop stop-color="#fefefe" offset=".00097656"/>
   <stop stop-color="#fefefe" offset=".0019531"/>
   <stop stop-color="#fefefe" offset=".0039062"/>
   <stop stop-color="#fdfdfd" offset=".0078125"/>
   <stop stop-color="#fbfbfc" offset=".015625"/>
   <stop stop-color="#f7f8f9" offset=".03125"/>
   <stop stop-color="#eff2f4" offset=".095866"/>
   <stop stop-color="#dfe6ea" offset=".2121"/>
   <stop stop-color="#bfcdd6" offset=".22705"/>
   <stop stop-color="#7f9bae" offset=".5"/>
   <stop stop-color="#00385e" offset="1"/>
  </linearGradient>
  <linearGradient id="linearGradient13706" x1="260.26" x2="272.44" y1="835.21" y2="835.21" gradientTransform="matrix(.35411 0 0 .35411 95.677 502.28)" gradientUnits="userSpaceOnUse">
   <stop stop-color="#FFFFFF" offset="0"/>
   <stop stop-color="#FCFCFC" offset=".2264"/>
   <stop stop-color="#F4F4F4" offset=".3626"/>
   <stop stop-color="#E6E6E6" offset=".475"/>
   <stop stop-color="#D1D1D1" offset=".5744"/>
   <stop stop-color="#B7B7B7" offset=".6652"/>
   <stop stop-color="#979797" offset=".7498"/>
   <stop stop-color="#707070" offset=".8297"/>
   <stop stop-color="#444444" offset=".9057"/>
   <stop stop-color="#121212" offset=".9761"/>
   <stop stop-color="#000000" offset="1"/>
  </linearGradient>
  <linearGradient id="linearGradient13712" x1="-277.65" x2="2400.6" y1="1495.5" y2="1509.5" gradientTransform="matrix(.31386 0 0 .27566 90.132 381.08)" gradientUnits="userSpaceOnUse">
   <stop stop-color="#fefefe" offset="0"/>
   <stop stop-color="#fefefe" offset=".00097656"/>
   <stop stop-color="#fefefe" offset=".0019531"/>
   <stop stop-color="#fefefe" offset=".0039062"/>
   <stop stop-color="#fdfdfd" offset=".0078125"/>
   <stop stop-color="#fbfbfc" offset=".015625"/>
   <stop stop-color="#f7f8f9" offset=".03125"/>
   <stop stop-color="#eff2f4" offset=".095866"/>
   <stop stop-color="#dfe6ea" offset=".2121"/>
   <stop stop-color="#bfcdd6" offset=".22705"/>
   <stop stop-color="#7f9bae" offset=".5"/>
   <stop stop-color="#00385e" offset="1"/>
  </linearGradient>
 </defs>
 <g transform="translate(0 -698.03)">
  <g stroke-linecap="round">
   <path d="m497.92 1031.4c10.549-1.8734 16.834-7.6546 19.13-16.131" fill="none" opacity=".71" stroke="#000000" stroke-linejoin="round" stroke-width="1.1409"/>
   <path d="m228.94 1033.5c10.549-1.8734 16.834-7.6546 19.13-16.131" fill="none" opacity=".71" stroke="#000000" stroke-linejoin="round" stroke-width="1.1409"/>
   <path d="m-590.68 361.48h120.38" fill="#ff0000" stroke="#800080" stroke-width="3.5433"/>
   <path d="m47.038 885.13h159.24c0.43637 39.636-31.011 95.54-79.622 95.791-48.611 0.25079-79.622 0-79.622 0z" color="#000000" fill="url(#linearGradient12073)" stroke="#4d4d4d" stroke-linejoin="round" stroke-width=".80038"/>
   <path d="m134.44 885.84 133.37-0.47253" color="#000000" fill="#aa8800" stroke="#4d4d4d" stroke-linejoin="round" stroke-width=".079132"/>
  </g>
  <g fill="#008000" stroke="#4d4d4d" stroke-linecap="round" stroke-linejoin="round" stroke-width=".3189">
   <path d="m123.44 886.46v141.94" color="#000000"/>
   <path d="m102.51 886.82v141.94" color="#000000"/>
   <path d="m81.586 886.7v141.94" color="#000000"/>
   <path d="m131.4 887.61 47.087 141.58" color="#000000"/>
   <path d="m131.07 887.29 136.74 62.567" color="#000000"/>
  </g>
  <g transform="translate(1.9792 -10.34)">
   <g stroke="#000000">
    <g stroke-linecap="round" stroke-linejoin="round" stroke-width=".54112">
     <path d="m10.215 843.03 0.09131 20.732" fill="#800080"/>
     <path d="m10.239 838.04 2.6471 10.957h-5.2941c0.93766-5.5529 2.6471-10.957 2.6471-10.957z" fill="#ffffff"/>
     <path d="m27.62 863.72-17.198-0.07384" fill="#800080"/>
     <path d="m33.769 863.73-10.962 2.6297 0.0084-5.2941z" fill="#ffffff"/>
    </g>
    <text x="13.167276" y="843.56451" fill="#000000" font-family="sans-serif" letter-spacing="0px" stroke-width=".76359" word-spacing="0px" style="line-height:0%" xml:space="preserve"><tspan x="13.167276" y="843.56451" fill="#ff0000" font-family="sans-serif" font-size="7.6359px" stroke="#000000" stroke-width=".76359" style="line-height:1.25">Z</tspan></text>
   </g>
   <g transform="matrix(.76359 0 0 .76359 -191.52 1008.1)">
    <path transform="matrix(.9071 0 0 .90186 24.872 -1.1139)" d="m267.68-208.61c0 2.1113-1.7016 3.8228-3.8007 3.8228s-3.8007-1.7115-3.8007-3.8228c0-2.1113 1.7016-3.8228 3.8007-3.8228s3.8007 1.7115 3.8007 3.8228z" color="#000000" fill="#ffffff" stroke="#000000" stroke-linecap="round" stroke-linejoin="round" stroke-width=".7835"/>
    <path transform="matrix(.81605 0 0 .73445 48.612 -50.299)" d="m264.67-189.2c0 0.26645-0.1944 0.48245-0.4342 0.48245-0.23981 0-0.4342-0.216-0.4342-0.48245s0.19439-0.48244 0.4342-0.48244c0.2398 0 0.4342 0.21599 0.4342 0.48244z" color="#000000" fill="#000000"/>
   </g>
  </g>
  <g transform="matrix(.76359 0 0 .76359 -3.9581 843.84)">
   <g stroke="#000000">
    <g stroke-linecap="round" stroke-linejoin="round" stroke-width=".70866">
     <path d="m21.117 152.54 0.11958 27.151" fill="#800080"/>
     <path d="m21.149 146.01 3.4666 14.35h-6.9332c1.228-7.2721 3.4666-14.35 3.4666-14.35z" fill="#ffffff"/>
     <path d="m43.911 179.63-22.523-0.0967" fill="#800080"/>
     <path d="m51.965 179.65-14.355 3.4439 0.011-6.9332z" fill="#ffffff"/>
    </g>
    <text x="45.019936" y="175.30176" fill="#000000" font-family="sans-serif" letter-spacing="0px" word-spacing="0px" style="line-height:0%" xml:space="preserve"><tspan x="45.019936" y="175.30176" fill="#ff0000" font-family="sans-serif" font-size="10px" stroke="#000000" style="line-height:1.25">X</tspan></text>
    <text x="24.983866" y="153.24313" fill="#000000" font-family="sans-serif" letter-spacing="0px" word-spacing="0px" style="line-height:0%" xml:space="preserve"><tspan x="24.983866" y="153.24313" fill="#ff0000" font-family="sans-serif" font-size="10px" stroke="#000000" style="line-height:1.25">Y</tspan></text>
   </g>
   <g transform="translate(-243.07 368.71)">
    <path transform="matrix(.9071 0 0 .90186 24.872 -1.1139)" d="m267.68-208.61c0 2.1113-1.7016 3.8228-3.8007 3.8228s-3.8007-1.7115-3.8007-3.8228c0-2.1113 1.7016-3.8228 3.8007-3.8228s3.8007 1.7115 3.8007 3.8228z" color="#000000" fill="#ffffff" stroke="#000000" stroke-linecap="round" stroke-linejoin="round" stroke-width=".7835"/>
    <path transform="matrix(.81605 0 0 .73445 48.612 -50.299)" d="m264.67-189.2c0 0.26645-0.1944 0.48245-0.4342 0.48245-0.23981 0-0.4342-0.216-0.4342-0.48245s0.19439-0.48244 0.4342-0.48244c0.2398 0 0.4342 0.21599 0.4342 0.48244z" color="#000000" fill="#000000"/>
   </g>
  </g>
  <g stroke-linecap="round">
   <path d="m212.56 885.9c-4.2935 52.514-35.803 91.23-80.608 100.86h-85.307" fill="none" stroke="#d4aa00" stroke-linejoin="round" stroke-width=".97999"/>
   <path d="m48.362 886.27h84.632" fill="#ff0000" stroke="#800080" stroke-width="3.3471"/>
   <path d="m60.661 886.58v141.94" color="#000000" fill="#008000" stroke="#4d4d4d" stroke-linejoin="round" stroke-width=".3189"/>
  </g>
  <path d="m47.301 885.59 220.67 102.75" color="#000000" fill="#aa8800" stroke="#008000" stroke-dasharray="1.34915566, 1.34915566" stroke-linecap="round" stroke-linejoin="round" stroke-width=".44972"/>
  <path d="m233.72 886.63c-0.70973 46.41-30.861 100.84-100.88 121.91l-85.143-0.6451" color="#000000" fill="none" opacity=".72446" stroke="#d4aa00" stroke-linecap="round" stroke-linejoin="round" stroke-width="2.6983"/>
  <g stroke-linecap="round" stroke-linejoin="round">
   <g>
    <path d="m219.75 950.49c-8.9644-9.924-24.278-10.701-34.202-1.7364-9.924 8.9644-10.683 24.259-1.7182 34.183l45.065 50.631c0.92596-4.1859 0.69524-13.45 17.97-16.232 13.135-2.1158 14.875-10.259 17.95-16.214z" color="#000000" fill="url(#linearGradient12876)" opacity=".71517" stroke="#333333" stroke-width="1.1392"/>
    <path transform="matrix(-.74663 -.6833 .6833 -.74663 396.3 1433.1)" d="m454.32 210.18c0 0.48815-0.39572 0.88388-0.88388 0.88388-0.48815 0-0.88388-0.39573-0.88388-0.88388 0-0.48816 0.39573-0.88389 0.88388-0.88389 0.48816 0 0.88388 0.39573 0.88388 0.88389z" color="#000000" fill="#000000" fill-rule="evenodd" stroke="#000000" stroke-width=".69998"/>
    <path transform="matrix(-.66417 -.61588 .61588 -.66417 373.04 1385.2)" d="m454.32 210.18c0 0.48815-0.39572 0.88388-0.88388 0.88388-0.48815 0-0.88388-0.39573-0.88388-0.88388 0-0.48816 0.39573-0.88389 0.88388-0.88389 0.48816 0 0.88388 0.39573 0.88388 0.88389z" color="#000000" fill="#4d4d4d" fill-rule="evenodd" stroke="#4d4d4d" stroke-width=".69998"/>
   </g>
   <g>
    <g transform="matrix(.28529 0 0 .28529 121.53 696.79)" fill="#b3b3b3" stroke="#000000">
     <path transform="matrix(.86111 0 0 .5322 98.591 804.69)" d="m177.17 166.85c0 18.201-9.1192 32.957-20.368 32.957-11.249 0-20.368-14.755-20.368-32.957s9.1192-32.957 20.368-32.957c11.249 0 20.368 14.755 20.368 32.957z" color="#000000" stroke-dasharray="1.46953497, 2.93906994" stroke-width="1.4695"/>
     <path transform="matrix(.24803 0 0 .28346 181.7 843.29)" d="m212.14 177.11c0 1.3807-1.2792 2.5-2.8571 2.5s-2.8571-1.1193-2.8571-2.5c0-1.3807 1.2792-2.5 2.8571-2.5s2.8571 1.1193 2.8571 2.5z" color="#000000" stroke-dasharray="3.75182367, 7.50364735" stroke-width="3.7518"/>
    </g>
    <path transform="matrix(-.40637 -.37682 .37682 -.40637 293.28 1208)" d="m454.32 210.18c0 0.48815-0.39572 0.88388-0.88388 0.88388-0.48815 0-0.88388-0.39573-0.88388-0.88388 0-0.48816 0.39573-0.88389 0.88388-0.88389 0.48816 0 0.88388 0.39573 0.88388 0.88389z" color="#000000" fill="#4d4d4d" fill-rule="evenodd" stroke="#4d4d4d" stroke-width=".69998"/>
    <path d="m314.18 884.21h159.24c1.4863 38.586-31.011 95.54-79.622 95.791-48.611 0.25071-79.622 0-79.622 0z" color="#000000" fill="url(#linearGradient12034)" stroke="#4d4d4d" stroke-width=".80038"/>
   </g>
   <g stroke="#000000" stroke-width=".3189">
    <path d="m315.25 886.39 220.12 0.10064" color="#000000" fill="#aa8800"/>
    <path d="m399.44 886.32 47.087 141.58" color="#000000" fill="#008000"/>
    <path d="m399.12 886 136.74 62.567" color="#000000" fill="#008000"/>
   </g>
  </g>
  <path d="m315.69 886.13h84.632" fill="#ff0000" stroke="#800080" stroke-linecap="round" stroke-width="3.3471"/>
  <g fill="#008000" stroke="#4d4d4d" stroke-linecap="round" stroke-linejoin="round" stroke-width=".3189">
   <path d="m390.68 885.69v141.94" color="#000000"/>
   <path d="m369.75 886.05v141.94" color="#000000"/>
   <path d="m348.83 885.93v141.94" color="#000000"/>
   <path d="m327.9 885.81v141.94" color="#000000"/>
  </g>
  <g stroke-linecap="round" stroke-linejoin="round">
   <path d="m479.62 886.21c-4.2935 52.514-35.803 91.23-80.608 100.86h-85.307" fill="none" opacity=".54" stroke="#d4aa00" stroke-width=".97999"/>
   <path transform="matrix(.070761 0 0 .08087 442 935.88)" d="m212.14 177.11c0 1.3807-1.2792 2.5-2.8571 2.5s-2.8571-1.1193-2.8571-2.5c0-1.3807 1.2792-2.5 2.8571-2.5s2.8571 1.1193 2.8571 2.5z" color="#000000" fill="#b3b3b3" opacity=".56902" stroke="#000000" stroke-dasharray="3.75182367, 7.50364735" stroke-width="3.7518"/>
   <path d="m501.12 883.29c2.1494 48.359-25.329 104.61-100.88 121.91l-85.143-0.6452" color="#000000" fill="none" opacity=".72" stroke="#d4aa00" stroke-width="2.9304"/>
  </g>
  <g stroke-linecap="round" stroke-linejoin="round">
   <g>
    <path d="m488.56 948.3c-8.9644-9.924-24.278-10.701-34.202-1.7364-9.924 8.9644-10.683 24.259-1.7182 34.183l45.065 50.631c0.92596-4.186 0.69524-13.45 17.97-16.232 13.135-2.1158 14.875-10.259 17.95-16.214z" color="#000000" fill="url(#linearGradient12022)" opacity=".71" stroke="#333333" stroke-width="1.1392"/>
    <path transform="matrix(.24567 0 0 .15183 418.29 924.87)" d="m177.17 166.85c0 18.201-9.1192 32.957-20.368 32.957-11.249 0-20.368-14.755-20.368-32.957s9.1192-32.957 20.368-32.957c11.249 0 20.368 14.755 20.368 32.957z" color="#000000" fill="#b3b3b3" stroke="#000000" stroke-dasharray="1.46953497, 2.93906994" stroke-width="1.4695"/>
    <path transform="matrix(-.40637 -.37682 .37682 -.40637 561.91 1206.5)" d="m454.32 210.18c0 0.48815-0.39572 0.88388-0.88388 0.88388-0.48815 0-0.88388-0.39573-0.88388-0.88388 0-0.48816 0.39573-0.88389 0.88388-0.88389 0.48816 0 0.88388 0.39573 0.88388 0.88389z" color="#000000" fill="#4d4d4d" fill-rule="evenodd" stroke="#4d4d4d" stroke-width=".69998"/>
   </g>
   <g>
    <path d="m399.12 886 104.72 115.26" color="#000000" fill="#008000" stroke="#000000" stroke-width=".3189"/>
    <path d="m313.53 884.39 222.06 101.16" color="#000000" fill="#aa8800" stroke="#008000" stroke-dasharray="1.34915566, 1.34915566" stroke-width=".44972"/>
    <path d="m131.07 887.29 102.88 115.78" color="#000000" fill="#008000" stroke="#4d4d4d" stroke-width=".3189"/>
   </g>
  </g>
  <g fill="#1f638a" fill-rule="evenodd" stroke="#1f638a" stroke-linecap="round" stroke-linejoin="round">
   <path d="m101.34 871.45 17.372 13.358" color="#000000" stroke-width="1.7717"/>
   <path d="m167.19 875.78-0.0761 50.84" color="#000000" stroke-width="1.8719"/>
   <path d="m432.44 874.1-0.082 46.85" color="#000000" stroke-width="1.866"/>
  </g>
  <path d="m200.02 964.76-7.636-4.1788 4.337-3.5828z" fill="#ff0000" stroke="#ff0000" stroke-linecap="round" stroke-linejoin="round" stroke-width=".68488"/>
  <path d="m189.48 953.16 9.788 10.814" fill="#ff0000" stroke="#ff0000" stroke-linecap="round" stroke-linejoin="round" stroke-width=".805"/>
  <g fill="#000000" stroke="#000000" stroke-linecap="round" stroke-linejoin="round">
   <path transform="matrix(.67273 0 0 .67273 61.198 780.54)" d="m190.31 254.39c0 0.82807-0.67128 1.4994-1.4994 1.4994-0.82808 0-1.4994-0.67128-1.4994-1.4994s0.67128-1.4994 1.4994-1.4994c0.82807 0 1.4994 0.67129 1.4994 1.4994z" stroke-width=".3189"/>
   <g stroke-width=".3189">
    <path transform="matrix(1.0156 0 0 1.0156 9.7245 708.08)" d="m190.31 254.39c0 0.82807-0.67128 1.4994-1.4994 1.4994-0.82808 0-1.4994-0.67128-1.4994-1.4994s0.67128-1.4994 1.4994-1.4994c0.82807 0 1.4994 0.67129 1.4994 1.4994z"/>
    <path transform="matrix(.67273 0 0 .67273 330.01 778.77)" d="m190.31 254.39c0 0.82807-0.67128 1.4994-1.4994 1.4994-0.82808 0-1.4994-0.67128-1.4994-1.4994s0.67128-1.4994 1.4994-1.4994c0.82807 0 1.4994 0.67129 1.4994 1.4994z"/>
    <path transform="matrix(1.0156 0 0 1.0156 279.99 707.34)" d="m190.31 254.39c0 0.82807-0.67128 1.4994-1.4994 1.4994-0.82808 0-1.4994-0.67128-1.4994-1.4994s0.67128-1.4994 1.4994-1.4994c0.82807 0 1.4994 0.67129 1.4994 1.4994z"/>
   </g>
  </g>
  <g stroke-linecap="round" stroke-linejoin="round">
   <path d="m470.38 964.41-7.7994-3.8652 4.1879-3.756z" fill="#ff0000" stroke="#ff0000" stroke-width=".68488"/>
   <path d="m457.88 951.07 10.253 10.711" fill="#ff0000" stroke="#ff0000" stroke-width=".805"/>
   <rect x="47.84" y="741.57" width="159.01" height="95.779" color="#000000" fill="url(#linearGradient13712)" stroke="#4d4d4d" stroke-width=".805"/>
   <path d="m211.67 811.04h-165.15" fill="none" stroke="#ffcc00" stroke-width=".98375"/>
   <path d="m229.94 789.85h-182.9" fill="none" stroke="#d4aa00" stroke-width="2.6247"/>
  </g>
  <path d="m187.12 752.06s1.1509-0.8707 2.4372-0.81993c1.2863 0.0508 2.3861 0.87385 2.3861 0.87385-0.0574 4e-3 -0.51477 1.0854-2.2007 0.98861-1.686-0.0968-2.6226-1.0425-2.6226-1.0425z" fill="#ffffff"/>
  <g>
   <path d="m182.04 809.29c0 2.7639 2.2409 5.0044 5.0048 5.0044 2.7639 0 4.999-2.2405 4.999-5.0044l0.0448-57.168c-0.72189 0.51371-1.9698 1.9664-5.0047 0-2.3076-1.4952-3.7025-0.48731-4.9991 0z" color="#000000" fill="url(#linearGradient13706)" stroke="#333333" stroke-dasharray="0.33412843, 0.66825684" stroke-linecap="round" stroke-linejoin="round" stroke-width=".33413"/>
   <path d="m186.94 752.03c2.3076-1.4952 3.7025-0.48733 4.9991 0-1.7799-0.96494-3.4696-1.1635-4.9991 0z" color="#000000" fill="none" stroke="#000000" stroke-dasharray="0.33412843, 0.66825684" stroke-linecap="round" stroke-linejoin="round" stroke-width=".33413"/>
   <path d="m187.04 752.07 5e-3 61.951" fill="none" stroke="#000000" stroke-dasharray="2.17251313, 0.5431283, 0.27156414, 0.5431283" stroke-width=".27156"/>
  </g>
  <g stroke-linecap="round" stroke-linejoin="round">
   <path transform="matrix(-.40637 -.37682 .37682 -.40637 292.44 1067.3)" d="m454.32 210.18c0 0.48815-0.39572 0.88388-0.88388 0.88388-0.48815 0-0.88388-0.39573-0.88388-0.88388 0-0.48816 0.39573-0.88389 0.88388-0.88389 0.48816 0 0.88388 0.39573 0.88388 0.88389z" color="#000000" fill="#4d4d4d" fill-rule="evenodd" stroke="#4d4d4d" stroke-width=".69998"/>
   <rect x="313.55" y="740.95" width="159.01" height="95.779" color="#000000" fill="url(#linearGradient13700)" stroke="#4d4d4d" stroke-width=".805"/>
   <path d="m474.95 813.19-188.52-0.31979" fill="none" opacity=".70898" stroke="#d4aa00" stroke-width="3.6492"/>
   <path d="m475.83 813.21-166.21 0.0662" fill="none" stroke="#ffcc00" stroke-width=".99463"/>
  </g>
  <g transform="matrix(.70132 .71285 -.71285 .70132 683 -147.47)" opacity=".71" stroke-linecap="round" stroke-linejoin="round">
   <g transform="matrix(3.2262 -.033367 .033367 3.2262 -21.24 -2153.3)" stroke-width=".35308">
    <path d="m174.04 907.03c0 4.1449-2.0196 6.5663-6.1646 6.5663s-8.8381-2.4214-8.8381-6.5663v-7.3904c1.0826 0.77045 2.9542 2.949 7.5055 0 3.4608-2.2424 5.5526-0.73084 7.4972 0z" color="#000000" fill="none" stroke="#000000"/>
    <path d="m158.89 920.5c0 4.145 3.3607 7.5051 7.5057 7.5051 4.145 0 7.497-3.3601 7.497-7.5051l0.15426-21.008c-1.0826 0.7704-2.9542 2.949-7.5055 0-3.4607-2.2424-5.5526-0.73084-7.4972 0z" color="#000000" fill="url(#linearGradient13632)" stroke="#333333"/>
   </g>
   <path transform="matrix(1.0156 0 0 1.0156 355.32 555.13)" d="m190.31 254.39c0 0.82807-0.67128 1.4994-1.4994 1.4994-0.82808 0-1.4994-0.67128-1.4994-1.4994s0.67128-1.4994 1.4994-1.4994c0.82807 0 1.4994 0.67129 1.4994 1.4994z" fill="#000000" stroke="#000000" stroke-width=".3189"/>
  </g>
  <g transform="translate(-41.568 -41.732)">
   <path d="m495.01 853.36c0 2.7639 2.2409 5.0044 5.0048 5.0044 2.7639 0 4.999-2.2405 4.999-5.0044l0.0448-57.168c-0.72189 0.51371-1.9698 1.9664-5.0047 0-2.3076-1.4952-3.7025-0.48731-4.9991 0z" color="#000000" fill="url(#linearGradient13634)" stroke="#333333" stroke-dasharray="0.33412843, 0.66825684" stroke-linecap="round" stroke-linejoin="round" stroke-width=".33413"/>
   <path d="m499.91 796.09c2.3076-1.4952 3.7025-0.48733 4.9991 0-1.7799-0.96494-3.4696-1.1635-4.9991 0z" color="#000000" fill="none" stroke="#000000" stroke-dasharray="0.33412843, 0.66825684" stroke-linecap="round" stroke-linejoin="round" stroke-width=".33413"/>
   <path d="m500 796.14 5e-3 61.951" fill="none" stroke="#000000" stroke-dasharray="2.17251313, 0.5431283, 0.27156414, 0.5431283" stroke-width=".27156"/>
   <path transform="matrix(-.40637 -.37682 .37682 -.40637 604.96 1111.2)" d="m454.32 210.18c0 0.48815-0.39572 0.88388-0.88388 0.88388-0.48815 0-0.88388-0.39573-0.88388-0.88388 0-0.48816 0.39573-0.88389 0.88388-0.88389 0.48816 0 0.88388 0.39573 0.88388 0.88389z" color="#000000" fill="#4d4d4d" fill-rule="evenodd" stroke="#4d4d4d" stroke-linecap="round" stroke-linejoin="round" stroke-width=".69998"/>
  </g>
  <g stroke-linecap="round" stroke-linejoin="round">
   <path d="m484.54 812.96-8.0341 3.3501-0.0869-5.6248z" fill="#ff0000" stroke="#ff0000" stroke-width=".68488"/>
   <path d="m459.27 813.24 16.789-0.0656" color="#000000" fill="#ff00ff" stroke="#ff0000" stroke-width=".805"/>
   <path transform="matrix(.67273 0 0 .67273 60.435 639.88)" d="m190.31 254.39c0 0.82807-0.67128 1.4994-1.4994 1.4994-0.82808 0-1.4994-0.67128-1.4994-1.4994s0.67128-1.4994 1.4994-1.4994c0.82807 0 1.4994 0.67129 1.4994 1.4994z" fill="#000000" stroke="#000000" stroke-width=".3189"/>
  </g>
  <g transform="matrix(1.2692 .0062289 -.0062289 1.2692 -31.17 -252.83)" opacity=".70279" stroke-linecap="round" stroke-linejoin="round" stroke-width=".89755">
   <path d="m230.83 809.25c-7.4339 7.4672-15.415 8.2072-22.882 0.77326-7.4672-7.434-11.579-20.213-4.1454-27.68l13.255-13.314c0.56861 3.3297 0.0331 10.611 13.521 13.461 10.256 2.1672 11.314 8.642 13.506 13.446z" color="#000000" fill="none" stroke="#000000"/>
   <path d="m179.24 806.8c-7.434 7.4672-7.406 19.548 0.0612 26.982 7.4672 7.434 19.532 7.3925 26.966-0.0747l37.955-37.569c-3.3321-0.55384-10.611 0.0143-13.521-13.461-2.2129-10.246-8.6923-11.275-13.506-13.446z" color="#000000" fill="url(#linearGradient13636)" stroke="#333333"/>
  </g>
  <g stroke-linecap="round" stroke-linejoin="round">
   <path transform="matrix(.71048 .72569 -.72569 .71048 258.67 472.16)" d="m190.31 254.39c0 0.82807-0.67128 1.4994-1.4994 1.4994-0.82808 0-1.4994-0.67128-1.4994-1.4994s0.67128-1.4994 1.4994-1.4994c0.82807 0 1.4994 0.67129 1.4994 1.4994z" fill="#000000" opacity=".70279" stroke="#000000" stroke-width=".3189"/>
   <path d="m188.51 810.01 17.418-17.953" fill="#ff0000" stroke="#ff0000" stroke-width=".805"/>
   <path d="m206.92 791.23-3.7622 7.8496-3.8108-4.1381z" fill="#ff0000" stroke="#ff0000" stroke-width=".68488"/>
   <path d="m362.96 870.84 17.372 13.358" color="#000000" fill="#1f638a" fill-rule="evenodd" stroke="#1f638a" stroke-width="1.7717"/>
  </g>
  <g transform="translate(158.05 813.45)">
   <ellipse cx="-44.92" cy="-98.798" rx="13.199" ry="13.469" fill="#1f638a" stroke-linecap="round" stroke-linejoin="round" stroke-width="1.0658"/>
   <text x="-51.39423" y="-91.055557" fill="#000000" font-family="'Arial Nova', 'Arial Unicode MS', 'Yu Gothic UI', sans-serif" font-size="12.8px" letter-spacing="0px" stroke-width="1.0667" word-spacing="0px" style="line-height:0%" xml:space="preserve"><tspan x="-51.39423" y="-91.055557" fill="#ffffff" font-family="'Arial Nova', 'Arial Unicode MS', 'Yu Gothic UI', sans-serif" font-size="21.333px" stroke="#ffffff" stroke-width="1.0667" style="line-height:1.25">1</tspan></text>
  </g>
  <g transform="translate(414.37 813.01)">
   <ellipse cx="-13.718" cy="-98.798" rx="13.199" ry="13.469" fill="#1f638a" stroke-linecap="round" stroke-linejoin="round" stroke-width="1.0658"/>
   <text x="-19.559933" y="-91.125885" fill="#000000" font-family="'Arial Nova', 'Arial Unicode MS', 'Yu Gothic UI', sans-serif" font-size="12.8px" letter-spacing="0px" stroke-width="1.0667" word-spacing="0px" style="line-height:0%" xml:space="preserve"><tspan x="-19.559933" y="-91.125885" fill="#ffffff" font-family="'Arial Nova', 'Arial Unicode MS', 'Yu Gothic UI', sans-serif" font-size="21.333px" stroke="#ffffff" stroke-width="1.0667" style="line-height:1.25">2</tspan></text>
  </g>
  <g transform="translate(138.91 961.21)">
   <ellipse cx="-44.92" cy="-98.798" rx="13.199" ry="13.469" fill="#1f638a" stroke-linecap="round" stroke-linejoin="round" stroke-width="1.0658"/>
   <text x="-51.953754" y="-91.710579" fill="#000000" font-family="'Arial Nova', 'Arial Unicode MS', 'Yu Gothic UI', sans-serif" font-size="12.8px" letter-spacing="0px" stroke-width="1.0667" word-spacing="0px" style="line-height:0%" xml:space="preserve"><tspan x="-51.953754" y="-91.710579" fill="#ffffff" font-family="'Arial Nova', 'Arial Unicode MS', 'Yu Gothic UI', sans-serif" font-size="21.333px" stroke="#ffffff" stroke-width="1.0667" style="line-height:1.25">A</tspan></text>
  </g>
  <g transform="translate(211.85 961.09)">
   <ellipse cx="-44.92" cy="-98.798" rx="13.199" ry="13.469" fill="#1f638a" stroke-linecap="round" stroke-linejoin="round" stroke-width="1.0658"/>
   <text x="-51.566948" y="-91.358932" fill="#000000" font-family="'Arial Nova', 'Arial Unicode MS', 'Yu Gothic UI', sans-serif" font-size="12.8px" letter-spacing="0px" stroke-width="1.0667" word-spacing="0px" style="line-height:0%" xml:space="preserve"><tspan x="-51.566948" y="-91.358932" fill="#ffffff" font-family="'Arial Nova', 'Arial Unicode MS', 'Yu Gothic UI', sans-serif" font-size="21.333px" stroke="#ffffff" stroke-width="1.0667" style="line-height:1.25">B</tspan></text>
  </g>
  <g transform="translate(408.52 961.71)">
   <ellipse cx="-44.92" cy="-98.798" rx="13.199" ry="13.469" fill="#1f638a" stroke-linecap="round" stroke-linejoin="round" stroke-width="1.0658"/>
   <text x="-51.953754" y="-91.710579" fill="#000000" font-family="'Arial Nova', 'Arial Unicode MS', 'Yu Gothic UI', sans-serif" font-size="12.8px" letter-spacing="0px" stroke-width="1.0667" word-spacing="0px" style="line-height:0%" xml:space="preserve"><tspan x="-51.953754" y="-91.710579" fill="#ffffff" font-family="'Arial Nova', 'Arial Unicode MS', 'Yu Gothic UI', sans-serif" font-size="21.333px" stroke="#ffffff" stroke-width="1.0667" style="line-height:1.25">A</tspan></text>
  </g>
  <g transform="translate(477.53 961.39)">
   <ellipse cx="-44.92" cy="-98.798" rx="13.199" ry="13.469" fill="#1f638a" stroke-linecap="round" stroke-linejoin="round" stroke-width="1.0658"/>
   <text x="-51.566948" y="-91.358932" fill="#000000" font-family="'Arial Nova', 'Arial Unicode MS', 'Yu Gothic UI', sans-serif" font-size="12.8px" letter-spacing="0px" stroke-width="1.0667" word-spacing="0px" style="line-height:0%" xml:space="preserve"><tspan x="-51.566948" y="-91.358932" fill="#ffffff" font-family="'Arial Nova', 'Arial Unicode MS', 'Yu Gothic UI', sans-serif" font-size="21.333px" stroke="#ffffff" stroke-width="1.0667" style="line-height:1.25">B</tspan></text>
  </g>
 </g>
</svg>
