<?xml version="1.0" encoding="UTF-8"?>
<svg width="13cm" height="6.5cm" version="1.1" xmlns="http://www.w3.org/2000/svg" xmlns:cc="http://creativecommons.org/ns#" xmlns:dc="http://purl.org/dc/elements/1.1/" xmlns:rdf="http://www.w3.org/1999/02/22-rdf-syntax-ns#" xmlns:xlink="http://www.w3.org/1999/xlink">
 <title>Abbildung für OPEN MIND Softwaredokumentation</title>
 <defs>
  <pattern id="pattern5551" patternTransform="matrix(.054726 .051636 -5.0537 5.3562 0 0)" xlink:href="#Strips1_64"/>
  <pattern id="Strips1_64" width="65" height="1" patternTransform="translate(0) scale(10)" patternUnits="userSpaceOnUse">
   <rect y="-.5" width="1" height="2"/>
  </pattern>
  <linearGradient id="linearGradient26975" x1="-39.446" x2="936.51" y1="127.11" y2="127.11" gradientUnits="userSpaceOnUse">
   <stop stop-color="#fff" offset="0"/>
   <stop stop-color="#00385e" offset="1"/>
  </linearGradient>
 </defs>
 <metadata>
  <rdf:RDF>
   <cc:Work rdf:about="">
    <dc:format>image/svg+xml</dc:format>
    <dc:type rdf:resource="http://purl.org/dc/dcmitype/StillImage"/>
    <dc:title>Abbildung für OPEN MIND Softwaredokumentation</dc:title>
    <dc:creator>
     <cc:Agent>
      <dc:title>OPEN MIND Technologies AG</dc:title>
     </cc:Agent>
    </dc:creator>
    <dc:rights>
     <cc:Agent>
      <dc:title>Alle Rechte vorbehalten.</dc:title>
     </cc:Agent>
    </dc:rights>
    <dc:publisher>
     <cc:Agent>
      <dc:title>Technische Redaktion</dc:title>
     </cc:Agent>
    </dc:publisher>
   </cc:Work>
  </rdf:RDF>
 </metadata>
 <g transform="translate(0 -876.85)">
  <g stroke-miterlimit="10">
   <polygon transform="matrix(1.548 0 0 1.548 -26.87 807.3)" points="17.757 60.634 273.72 60.634 273.72 190.79 17.757 190.79" clip-rule="evenodd" fill="url(#linearGradient26975)" fill-rule="evenodd" stroke="#4d4d4d" stroke-width=".43705"/>
   <polygon transform="matrix(1.548 0 0 1.548 -27.439 807.27)" points="273.72 60.634 273.72 190.79 17.757 190.79 17.757 60.634" clip-rule="evenodd" fill="url(#pattern5551)" fill-rule="evenodd" opacity=".5233"/>
   <path d="m270.52 951.49-26.312 22.108v88.749h-87.704l-0.30129-88.749-26.252-22.108v-31.666l-14.207-18.227 169.52 0.39197-14.743 17.854z" fill="#739ba5" stroke="#16434a" stroke-linecap="round" stroke-linejoin="round" stroke-width="1.4324"/>
  </g>
  <path d="m200.51 893.41v173.85" fill="none" stroke="#16434a" stroke-dasharray="6.04724, 1.51181, 0.755905, 1.51181" stroke-linejoin="round" stroke-width=".7559"/>
  <g stroke-linecap="round" stroke-linejoin="round">
   <path d="m130.63 919.94h139.38" fill="#800080" stroke="#16434a" stroke-width=".7559"/>
   <path d="m155.47 973.11h88.133" fill="#800080" stroke="#16434a" stroke-width=".7559"/>
   <path d="m149.99 967.92 6.2796-11.669 6.0067 6.379z" stroke="#000" stroke-width="1.0658"/>
  </g>
  <g stroke="#000" stroke-linecap="round" stroke-linejoin="round">
   <line x1="132.57" x2="259.51" y1="934.3" y2="934.3" fill="none" stroke-miterlimit="9" stroke-width=".7559"/>
   <path d="m131.14 934.11 12.571-4.1905v8.7619z" stroke-width="1.0658"/>
   <path d="m269.39 934.11-12.571-4.1905v8.7619z" stroke-width="1.0658"/>
   <line x1="343.42" x2="343.42" y1="906.72" y2="947.73" fill="none" stroke-miterlimit="9" stroke-width=".7559"/>
  </g>
  <g stroke-linecap="round" stroke-linejoin="round">
   <path d="m343.62 950.56 4.1905-12.571h-8.7619z" stroke="#000" stroke-width="1.0658"/>
   <path d="m343.48 901.89 4.1905 12.571h-8.7619z" stroke="#000" stroke-width="1.0658"/>
   <path d="m130.15 951.65h139.41" fill="#800080" stroke="#16434a" stroke-width=".7559"/>
   <path d="m199.51 948.3-12.571-4.1905v8.7619z" stroke="#000" stroke-width="1.0658"/>
  </g>
  <g stroke="#000">
   <path d="m150.08 968.32c9.4593-12.526 23.975-20.548 40.25-20.548 3.2191 0 6.3707 0.31139 9.4232 0.91048" fill="none" stroke-linecap="square" stroke-miterlimit="10" stroke-width=".73128"/>
   <g stroke-linecap="round" stroke-linejoin="round">
    <line x1="303.16" x2="303.16" y1="880.38" y2="935.11" fill="none" stroke-miterlimit="9" stroke-width=".7559"/>
    <path d="m303.08 920.54 4.1905 12.571h-8.7619z" stroke-width="1.0658"/>
    <path d="m303.08 900.42 4.1905-12.571h-8.7619z" stroke-width="1.0658"/>
   </g>
  </g>
  <g fill="none" stroke="#000" stroke-linecap="round" stroke-linejoin="round" stroke-width=".7559">
   <line x1="271.3" x2="307.7" y1="920.27" y2="920.27"/>
   <line x1="271.54" x2="348.12" y1="951.52" y2="951.52"/>
   <path d="m147.26 965.92 52.741 43.987"/>
  </g>
  <g transform="translate(220.96 1025.2)">
   <ellipse cx="142.29" cy="-98.798" rx="13.199" ry="13.469" fill="#1f638a" stroke-linecap="round" stroke-linejoin="round" stroke-width="1.0658"/>
   <text x="136.44678" y="-91.26651" fill="#000000" font-family="'Arial Nova', 'Arial Unicode MS', 'Yu Gothic UI', sans-serif" font-size="12.8px" letter-spacing="0px" stroke-width="1.0667" word-spacing="0px" style="line-height:0%" xml:space="preserve"><tspan x="136.44678" y="-91.26651" fill="#ffffff" font-family="'Arial Nova', 'Arial Unicode MS', 'Yu Gothic UI', sans-serif" font-size="21.333px" stroke="#ffffff" stroke-width="1.0667" style="line-height:1.25">7</tspan></text>
  </g>
  <g transform="translate(90.174 1013.5)">
   <ellipse cx="111.09" cy="-98.798" rx="13.199" ry="13.469" fill="#1f638a" stroke-linecap="round" stroke-linejoin="round" stroke-width="1.0658"/>
   <text x="105.24544" y="-91.256096" fill="#000000" font-family="'Arial Nova', 'Arial Unicode MS', 'Yu Gothic UI', sans-serif" font-size="12.8px" letter-spacing="0px" stroke-width="1.0667" word-spacing="0px" style="line-height:0%" xml:space="preserve"><tspan x="105.24544" y="-91.256096" fill="#ffffff" font-family="'Arial Nova', 'Arial Unicode MS', 'Yu Gothic UI', sans-serif" font-size="21.333px" stroke="#ffffff" stroke-width="1.0667" style="line-height:1.25">6</tspan></text>
  </g>
  <g transform="translate(9.0217 1067.6)">
   <ellipse cx="173.49" cy="-98.798" rx="13.199" ry="13.469" fill="#1f638a" stroke-linecap="round" stroke-linejoin="round" stroke-width="1.0658"/>
   <text x="167.64812" y="-91.256096" fill="#000000" font-family="'Arial Nova', 'Arial Unicode MS', 'Yu Gothic UI', sans-serif" font-size="12.8px" letter-spacing="0px" stroke-width="1.0667" word-spacing="0px" style="line-height:0%" xml:space="preserve"><tspan x="167.64812" y="-91.256096" fill="#ffffff" font-family="'Arial Nova', 'Arial Unicode MS', 'Yu Gothic UI', sans-serif" font-size="21.333px" stroke="#ffffff" stroke-width="1.0667" style="line-height:1.25">8</tspan></text>
  </g>
  <g transform="translate(396.24 1047.1)">
   <ellipse cx="-75.193" cy="-138.95" rx="13.199" ry="13.469" fill="#1f638a" stroke-linecap="round" stroke-linejoin="round" stroke-width="1.0658"/>
   <g transform="translate(-1.2434)" fill="#000000" font-family="'Arial Nova', 'Arial Unicode MS', 'Yu Gothic UI', sans-serif" font-size="12.8px" letter-spacing="0px" stroke-width="1.0667" word-spacing="0px">
    <text x="-85.114067" y="-131.27504" style="line-height:0%" xml:space="preserve"><tspan x="-85.114067" y="-131.27504" fill="#ffffff" font-family="'Arial Nova', 'Arial Unicode MS', 'Yu Gothic UI', sans-serif" font-size="21.333px" stroke="#ffffff" stroke-width="1.0667" style="line-height:1.25">1</tspan></text>
    <text x="-76.055321" y="-131.27504" style="line-height:0%" xml:space="preserve"><tspan x="-76.055321" y="-131.27504" fill="#ffffff" font-family="'Arial Nova', 'Arial Unicode MS', 'Yu Gothic UI', sans-serif" font-size="21.333px" stroke="#ffffff" stroke-width="1.0667" style="line-height:1.25">0</tspan></text>
   </g>
  </g>
 </g>
</svg>
