<?xml version="1.0" encoding="UTF-8" standalone="no"?>
<!-- Created with Inkscape (http://www.inkscape.org/) -->

<svg
   xmlns:dc="http://purl.org/dc/elements/1.1/"
   xmlns:cc="http://creativecommons.org/ns#"
   xmlns:rdf="http://www.w3.org/1999/02/22-rdf-syntax-ns#"
   xmlns:svg="http://www.w3.org/2000/svg"
   xmlns="http://www.w3.org/2000/svg"
   version="1.1"
   width="637.79535"
   height="230.31494"
   id="svg7254"
   xml:space="preserve"><metadata
     id="metadata7260"><rdf:RDF><cc:Work
         rdf:about=""><dc:format>image/svg+xml</dc:format><dc:type
           rdf:resource="http://purl.org/dc/dcmitype/StillImage" /><dc:title></dc:title></cc:Work></rdf:RDF></metadata><defs
     id="defs7258"><linearGradient
       x1="-24.416853"
       y1="102.08228"
       x2="428.21982"
       y2="346.46185"
       id="linearGradient7270"
       gradientUnits="userSpaceOnUse"
       gradientTransform="matrix(0.743715,0,0,-0.743715,2.089062,140.45101)"
       spreadMethod="pad"><stop
         id="stop7272"
         style="stop-color:#ffffff;stop-opacity:1"
         offset="0" /><stop
         id="stop7274"
         style="stop-color:#00385e;stop-opacity:1"
         offset="1" /></linearGradient><linearGradient
       x1="123.1424"
       y1="60.400166"
       x2="399.21506"
       y2="178.83975"
       id="linearGradient7296"
       gradientUnits="userSpaceOnUse"
       gradientTransform="matrix(0.743715,0,0,-0.743715,2.089062,140.45101)"
       spreadMethod="pad"><stop
         id="stop7298"
         style="stop-color:#d2dadd;stop-opacity:1"
         offset="0" /><stop
         id="stop7300"
         style="stop-color:#165489;stop-opacity:1"
         offset="1" /></linearGradient><linearGradient
       x1="126.6831"
       y1="68.143997"
       x2="126.478"
       y2="68.143997"
       id="linearGradient7308"
       gradientUnits="userSpaceOnUse"
       gradientTransform="matrix(0.8,0,0,-0.8,0,885.73227)"
       spreadMethod="pad"><stop
         id="stop7310"
         style="stop-color:#d2dadd;stop-opacity:1"
         offset="0" /><stop
         id="stop7312"
         style="stop-color:#165489;stop-opacity:1"
         offset="1" /></linearGradient><linearGradient
       x1="206.09462"
       y1="32.945389"
       x2="540.3692"
       y2="193.52917"
       id="linearGradient7332"
       gradientUnits="userSpaceOnUse"
       gradientTransform="matrix(0.743715,0,0,-0.743715,2.089062,140.45101)"
       spreadMethod="pad"><stop
         id="stop7334"
         style="stop-color:#d2dadd;stop-opacity:1"
         offset="0" /><stop
         id="stop7336"
         style="stop-color:#165489;stop-opacity:1"
         offset="1" /></linearGradient><linearGradient
       x1="196.76567"
       y1="45.215778"
       x2="360.49677"
       y2="137.99326"
       id="linearGradient7348"
       gradientUnits="userSpaceOnUse"
       gradientTransform="matrix(0.743715,0,0,-0.743715,2.089062,140.45101)"
       spreadMethod="pad"><stop
         id="stop7350"
         style="stop-color:#d2dadd;stop-opacity:1"
         offset="0" /><stop
         id="stop7352"
         style="stop-color:#165489;stop-opacity:1"
         offset="1" /></linearGradient><linearGradient
       x1="-53.7551"
       y1="58.729473"
       x2="1014.0763"
       y2="20.661489"
       id="linearGradient7400"
       gradientUnits="userSpaceOnUse"
       gradientTransform="matrix(0.743715,0,0,-0.743715,2.089062,140.45101)"
       spreadMethod="pad"><stop
         id="stop7402"
         style="stop-color:#ffffff;stop-opacity:1"
         offset="0" /><stop
         id="stop7404"
         style="stop-color:#00385e;stop-opacity:1"
         offset="1" /></linearGradient><linearGradient
       x1="21.972225"
       y1="143.56804"
       x2="814.96667"
       y2="-39.285011"
       id="linearGradient7412"
       gradientUnits="userSpaceOnUse"
       gradientTransform="matrix(0.743715,0,0,-0.743715,2.089062,140.45101)"
       spreadMethod="pad"><stop
         id="stop7414"
         style="stop-color:#ffffff;stop-opacity:1"
         offset="0" /><stop
         id="stop7416"
         style="stop-color:#00385e;stop-opacity:1"
         offset="1" /></linearGradient><linearGradient
       x1="38.305878"
       y1="92.637077"
       x2="443.0116"
       y2="336.49109"
       id="linearGradient7452"
       gradientUnits="userSpaceOnUse"
       gradientTransform="matrix(0.745865,0,0,-0.739013,214.56578,144.77354)"
       spreadMethod="pad"><stop
         id="stop7454"
         style="stop-color:#ffffff;stop-opacity:1"
         offset="0" /><stop
         id="stop7456"
         style="stop-color:#00385e;stop-opacity:1"
         offset="1" /></linearGradient><linearGradient
       x1="21.478043"
       y1="65.480972"
       x2="997.39069"
       y2="55.995991"
       id="linearGradient7464"
       gradientUnits="userSpaceOnUse"
       gradientTransform="matrix(0.745865,0,0,-0.739013,214.56578,144.77354)"
       spreadMethod="pad"><stop
         id="stop7466"
         style="stop-color:#ffffff;stop-opacity:1"
         offset="0" /><stop
         id="stop7468"
         style="stop-color:#00385e;stop-opacity:1"
         offset="1" /></linearGradient><linearGradient
       x1="182.80948"
       y1="68.789635"
       x2="391.48047"
       y2="185.24905"
       id="linearGradient7484"
       gradientUnits="userSpaceOnUse"
       gradientTransform="matrix(0.745865,0,0,-0.739013,214.56578,144.77354)"
       spreadMethod="pad"><stop
         id="stop7486"
         style="stop-color:#d2dadd;stop-opacity:1"
         offset="0" /><stop
         id="stop7488"
         style="stop-color:#165489;stop-opacity:1"
         offset="1" /></linearGradient><linearGradient
       x1="296.26791"
       y1="28.492596"
       x2="463.65033"
       y2="123.62846"
       id="linearGradient7526"
       gradientUnits="userSpaceOnUse"
       gradientTransform="matrix(0.745865,0,0,-0.739013,214.56578,144.77354)"
       spreadMethod="pad"><stop
         id="stop7528"
         style="stop-color:#d2dadd;stop-opacity:1"
         offset="0" /><stop
         id="stop7530"
         style="stop-color:#165489;stop-opacity:1"
         offset="1" /></linearGradient><linearGradient
       x1="89.022911"
       y1="157.09573"
       x2="802.02802"
       y2="34.334671"
       id="linearGradient7566"
       gradientUnits="userSpaceOnUse"
       gradientTransform="matrix(0.745865,0,0,-0.739013,214.56578,144.77354)"
       spreadMethod="pad"><stop
         id="stop7568"
         style="stop-color:#ffffff;stop-opacity:1"
         offset="0" /><stop
         id="stop7570"
         style="stop-color:#00385e;stop-opacity:1"
         offset="1" /></linearGradient><linearGradient
       x1="290.68304"
       y1="118.88487"
       x2="876.38458"
       y2="-1.7298959"
       id="linearGradient7578"
       gradientUnits="userSpaceOnUse"
       gradientTransform="matrix(0.745865,0,0,-0.739013,214.56578,144.77354)"
       spreadMethod="pad"><stop
         id="stop7580"
         style="stop-color:#b6c6d1;stop-opacity:1"
         offset="0" /><stop
         id="stop7582"
         style="stop-color:#00385e;stop-opacity:1"
         offset="1" /></linearGradient></defs><g
     transform="matrix(1.25,0,0,-1.25,0,230.31494)"
     id="g7262"><g
       id="g7264"><g
         id="g7266"><g
           transform="matrix(1,0,0,-1,0,184.25195)"
           id="g7268"><path
             d="m 58.367,123.293 0,45.195 -55.98,-34.047 0,-43.668 55.98,32.52"
             id="path7276"
             style="fill:url(#linearGradient7270);fill-opacity:1;fill-rule:nonzero;stroke:#4d4d4d;stroke-width:0.541228;stroke-linecap:round;stroke-linejoin:round;stroke-miterlimit:10;stroke-opacity:1;stroke-dasharray:none" /></g></g><path
         d="M 2.387,93.479 189.395,140.354 248.977,109.486 129.203,78.318 74.051,64.666 58.367,60.959 2.387,93.479"
         id="path7278"
         style="fill:#99b2cc;fill-opacity:1;fill-rule:nonzero;stroke:none" /><g
         transform="matrix(1,0,0,-1,0,184.25195)"
         id="g7280"><path
           d="M 91.594,115.375 52.977,93.457 96.219,82.063 l 39.879,22.367 0,25.277 -44.258,12.356 -0.246,-26.688 z"
           id="path7282"
           style="fill:#99b2cc;fill-opacity:1;fill-rule:evenodd;stroke:#4d4d4d;stroke-width:0.34421101;stroke-linecap:butt;stroke-linejoin:miter;stroke-miterlimit:10;stroke-opacity:1;stroke-dasharray:none" /></g><g
         transform="matrix(1,0,0,-1,0,184.25195)"
         id="g7284"><path
           d="m 219.219,82.828 -0.481,25.133 -47.183,12.777 0.847,-25.484 0.981,-0.891 -38.113,-22.656 42.496,-11.121 41.453,22.242 z"
           id="path7286"
           style="fill:#afc1cd;fill-opacity:1;fill-rule:evenodd;stroke:#4d4d4d;stroke-width:0.34421101;stroke-linecap:butt;stroke-linejoin:miter;stroke-miterlimit:10;stroke-opacity:1;stroke-dasharray:none" /></g><g
         transform="matrix(1,0,0,-1,0,184.25195)"
         id="g7288"><path
           d="m 52.977,93.457 43.246,-11.402 0,24.984 -13.575,3.277 -29.671,-16.859"
           id="path7290"
           style="fill:#c1cfd8;fill-opacity:1;fill-rule:nonzero;stroke:#4d4d4d;stroke-width:0.34421101;stroke-linecap:square;stroke-linejoin:miter;stroke-miterlimit:10;stroke-opacity:1;stroke-dasharray:none" /></g><g
         id="g7292"><g
           transform="matrix(1,0,0,-1,0,184.25195)"
           id="g7294"><path
             d="m 96.152,106.957 39.946,22.422 0,-24.949 -39.793,-22.426"
             id="path7302"
             style="fill:url(#linearGradient7296);fill-opacity:1;fill-rule:nonzero;stroke:#4d4d4d;stroke-width:0.34421101;stroke-linecap:square;stroke-linejoin:miter;stroke-miterlimit:10;stroke-opacity:1;stroke-dasharray:none" /></g></g><g
         id="g7304"><g
           transform="matrix(1,0,0,-1,0,184.25195)"
           id="g7306"><path
             d="m 96.305,82.004 -0.153,24.953"
             id="path7314"
             style="fill:url(#linearGradient7308);fill-opacity:1;fill-rule:nonzero;stroke:#808080;stroke-width:0.68842202;stroke-linecap:square;stroke-linejoin:miter;stroke-miterlimit:10;stroke-opacity:1;stroke-dasharray:none" /></g></g><g
         transform="matrix(1,0,0,-1,0,184.25195)"
         id="g7316"><path
           d="m 135.094,71.707 27.238,-7.012 -0.043,9.493 -11.836,3.082 0.024,3.468 -4.258,-2.617 -11.125,-6.414"
           id="path7318"
           style="fill:#c1cfd8;fill-opacity:1;fill-rule:nonzero;stroke:#4d4d4d;stroke-width:0.34421101;stroke-linecap:square;stroke-linejoin:miter;stroke-miterlimit:10;stroke-opacity:1;stroke-dasharray:none" /></g><g
         transform="matrix(1,0,0,-1,0,184.25195)"
         id="g7320"><path
           d="m 91.77,116.555 30.402,16.961"
           id="path7322"
           style="fill:none;stroke:#808080;stroke-width:0.68842202;stroke-linecap:square;stroke-linejoin:miter;stroke-miterlimit:10;stroke-opacity:1;stroke-dasharray:none" /></g><g
         transform="matrix(1,0,0,-1,0,184.25195)"
         id="g7324"><path
           d="m 91.77,127.352 17.136,9.48"
           id="path7326"
           style="fill:none;stroke:#808080;stroke-width:0.68842202;stroke-linecap:square;stroke-linejoin:miter;stroke-miterlimit:10;stroke-opacity:1;stroke-dasharray:none" /></g><g
         id="g7328"><g
           transform="matrix(1,0,0,-1,0,184.25195)"
           id="g7330"><path
             d="m 162.254,74.238 41.648,21.746 0.036,-9.234 -41.684,-22.129"
             id="path7338"
             style="fill:url(#linearGradient7332);fill-opacity:1;fill-rule:nonzero;stroke:#4d4d4d;stroke-width:0.34421101;stroke-linecap:square;stroke-linejoin:miter;stroke-miterlimit:10;stroke-opacity:1;stroke-dasharray:none" /></g></g><g
         transform="matrix(1,0,0,-1,0,184.25195)"
         id="g7340"><path
           d="m 162.254,64.621 0,9.617"
           id="path7342"
           style="fill:#7497b3;fill-opacity:1;fill-rule:nonzero;stroke:#808080;stroke-width:0.68842202;stroke-linecap:square;stroke-linejoin:miter;stroke-miterlimit:10;stroke-opacity:1;stroke-dasharray:none" /></g><g
         id="g7344"><g
           transform="matrix(1,0,0,-1,0,184.25195)"
           id="g7346"><path
             d="m 150.48,77.305 0.02,3.433 22.883,13.625 0,11.809 16.187,9.379 0,-15.856 -39.09,-22.39 z"
             id="path7354"
             style="fill:url(#linearGradient7348);fill-opacity:1;fill-rule:nonzero;stroke:#4d4d4d;stroke-width:0.34421101;stroke-linecap:square;stroke-linejoin:miter;stroke-miterlimit:10;stroke-opacity:1;stroke-dasharray:none" /></g></g><g
         transform="matrix(1,0,0,-1,0,184.25195)"
         id="g7356"><path
           d="m 68.316,89.422 0,12.301"
           id="path7358"
           style="fill:none;stroke:#808080;stroke-width:0.68842202;stroke-linecap:square;stroke-linejoin:miter;stroke-miterlimit:10;stroke-opacity:1;stroke-dasharray:none" /></g><g
         transform="matrix(1,0,0,-1,0,184.25195)"
         id="g7360"><path
           d="m 82.145,85.84 0,23.976"
           id="path7362"
           style="fill:none;stroke:#808080;stroke-width:0.68842202;stroke-linecap:square;stroke-linejoin:miter;stroke-miterlimit:10;stroke-opacity:1;stroke-dasharray:none" /></g><g
         transform="matrix(1,0,0,-1,0,184.25195)"
         id="g7364"><path
           d="m 150.414,80.684 0.008,-12.899"
           id="path7366"
           style="fill:none;stroke:#808080;stroke-width:0.68842202;stroke-linecap:square;stroke-linejoin:miter;stroke-miterlimit:10;stroke-opacity:1;stroke-dasharray:none" /></g><g
         transform="matrix(1,0,0,-1,0,184.25195)"
         id="g7368"><path
           d="m 87.227,109.77 39.449,21.488"
           id="path7370"
           style="fill:none;stroke:#ffdd00;stroke-width:2.41890407;stroke-linecap:round;stroke-linejoin:round;stroke-miterlimit:10;stroke-opacity:1;stroke-dasharray:none" /></g><g
         transform="matrix(1,0,0,-1,0,184.25195)"
         id="g7372"><path
           d="m 90.043,121.039 23.426,13.387"
           id="path7374"
           style="fill:none;stroke:#ffdd00;stroke-width:2.41890407;stroke-linecap:round;stroke-linejoin:round;stroke-miterlimit:10;stroke-opacity:1;stroke-dasharray:none" /></g><g
         transform="matrix(1,0,0,-1,0,184.25195)"
         id="g7376"><path
           d="m 87.578,130.73 12.328,7.043"
           id="path7378"
           style="fill:none;stroke:#ffdd00;stroke-width:2.41890407;stroke-linecap:round;stroke-linejoin:round;stroke-miterlimit:10;stroke-opacity:1;stroke-dasharray:none" /></g><g
         transform="matrix(1,0,0,-1,0,184.25195)"
         id="g7380"><path
           d="m 156.969,74.898 38.574,21.661"
           id="path7382"
           style="fill:none;stroke:#ffdd00;stroke-width:2.41890407;stroke-linecap:round;stroke-linejoin:round;stroke-miterlimit:10;stroke-opacity:1;stroke-dasharray:none" /></g><g
         transform="matrix(1,0,0,-1,0,184.25195)"
         id="g7384"><path
           d="m 145.523,78.242 37.864,21.313"
           id="path7386"
           style="fill:none;stroke:#ffdd00;stroke-width:2.41890407;stroke-linecap:round;stroke-linejoin:round;stroke-miterlimit:10;stroke-opacity:1;stroke-dasharray:none" /></g><g
         transform="matrix(1,0,0,-1,0,184.25195)"
         id="g7388"><path
           d="m 172.293,101.668 11.449,6.516"
           id="path7390"
           style="fill:none;stroke:#ffdd00;stroke-width:2.41890407;stroke-linecap:round;stroke-linejoin:round;stroke-miterlimit:10;stroke-opacity:1;stroke-dasharray:none" /></g><g
         transform="matrix(1,0,0,-1,0,184.25195)"
         id="g7392"><path
           d="m 172.117,109.945 11.801,6.34"
           id="path7394"
           style="fill:none;stroke:#ffdd00;stroke-width:2.41890407;stroke-linecap:round;stroke-linejoin:round;stroke-miterlimit:10;stroke-opacity:1;stroke-dasharray:none" /></g><g
         id="g7396"><g
           transform="matrix(1,0,0,-1,0,184.25195)"
           id="g7398"><path
             d="M 2.332,90.746 58.453,123.375 92.297,115.496 53.199,93.48 96.262,82.105 136.176,104.43 173.348,94.27 135.395,71.762 177.754,60.453 218.262,82.691 248.914,74.754 189.199,43.898 2.332,90.746 z"
             id="path7406"
             style="fill:url(#linearGradient7400);fill-opacity:1;fill-rule:nonzero;stroke:#4d4d4d;stroke-width:0.541228;stroke-linecap:square;stroke-linejoin:miter;stroke-miterlimit:10;stroke-opacity:1;stroke-dasharray:none" /></g></g><g
         id="g7408"><g
           transform="matrix(1,0,0,-1,0,184.25195)"
           id="g7410"><path
             d="m 58.453,123.422 33.785,-7.914 0.032,25.672 43.835,-11.789 -0.011,-24.879 37.289,-10.207 -0.047,25.679 16.328,-4.308 -0.07,-16.051 13.992,-3.879 -0.008,-9.129 45.356,-11.875 0,44.344 -190.391,49.055 0,-44.848"
             id="path7418"
             style="fill:url(#linearGradient7412);fill-opacity:1;fill-rule:nonzero;stroke:#4d4d4d;stroke-width:0.541228;stroke-linecap:round;stroke-linejoin:round;stroke-miterlimit:10;stroke-opacity:1;stroke-dasharray:none" /></g></g><g
         transform="matrix(1,0,0,-1,0,184.25195)"
         id="g7420"><path
           d="m 62.313,41.5 -0.18,55.414"
           id="path7422"
           style="fill:none;stroke:#e2001a;stroke-width:2.41890407;stroke-linecap:round;stroke-linejoin:round;stroke-miterlimit:10;stroke-opacity:1;stroke-dasharray:none" /></g><g
         transform="matrix(1,0,0,-1,0,184.25195)"
         id="g7424"><path
           d="m 74.469,104.406 0.265,-35.468 25.586,18.656 -0.043,50.09"
           id="path7426"
           style="fill:none;stroke:#e2001a;stroke-width:2.41890407;stroke-linecap:round;stroke-linejoin:round;stroke-miterlimit:10;stroke-opacity:1;stroke-dasharray:none" /></g><g
         transform="matrix(1,0,0,-1,0,184.25195)"
         id="g7428"><path
           d="m 86.969,109.633 0.238,-41.871 0.297,-0.008 26.473,17.937 -0.457,48.684"
           id="path7430"
           style="fill:none;stroke:#e2001a;stroke-width:2.41890407;stroke-linecap:round;stroke-linejoin:round;stroke-miterlimit:10;stroke-opacity:1;stroke-dasharray:none" /></g><g
         transform="matrix(1,0,0,-1,0,184.25195)"
         id="g7432"><path
           d="m 127.293,130.969 0.457,-59.418 17.984,-18.582 0.188,24.101"
           id="path7434"
           style="fill:none;stroke:#e2001a;stroke-width:2.41890407;stroke-linecap:round;stroke-linejoin:round;stroke-miterlimit:10;stroke-opacity:1;stroke-dasharray:none" /></g><g
         transform="matrix(1,0,0,-1,0,184.25195)"
         id="g7436"><path
           d="m 156.57,74.324 0,-22.734 28.739,17.101 -0.973,47.575"
           id="path7438"
           style="fill:none;stroke:#e2001a;stroke-width:2.41890407;stroke-linecap:round;stroke-linejoin:round;stroke-miterlimit:10;stroke-opacity:1;stroke-dasharray:none" /></g><g
         transform="matrix(1,0,0,-0.957068,0,184.25195)"
         id="g7440"><path
           d="m 62.438,74.981 8.597,-8.196 -5.597,0 0,-15.546 -6,0 0,15.546 -5.399,0 8.399,8.196"
           id="path7442"
           style="fill:#e2001a;fill-opacity:1;fill-rule:nonzero;stroke:#000000;stroke-width:0.55323499;stroke-linecap:round;stroke-linejoin:round;stroke-miterlimit:10;stroke-opacity:1;stroke-dasharray:none" /></g><g
         transform="matrix(-1,0.818897,0.78374,0.957068,0,184.25195)"
         id="g7444"><path
           d="m -112.693,36.895 6.654,-6.342 -4.334,-0.002 0.002,-12.025 -4.641,-0.001 -0.001,12.025 -4.175,10e-4 6.495,6.344"
           id="path7446"
           style="fill:#e2001a;fill-opacity:1;fill-rule:nonzero;stroke:#000000;stroke-width:0.42803001;stroke-linecap:round;stroke-linejoin:round;stroke-miterlimit:10;stroke-opacity:1;stroke-dasharray:none" /></g><g
         id="g7448"><g
           transform="matrix(1,0,0,-0.990814,0,184.25195)"
           id="g7450"><path
             d="m 315.863,122.575 0,45.323 -56.14,-34.146 0,-43.793 56.14,32.616"
             id="path7458"
             style="fill:url(#linearGradient7452);fill-opacity:1;fill-rule:nonzero;stroke:#4d4d4d;stroke-width:0.54373199;stroke-linecap:square;stroke-linejoin:miter;stroke-miterlimit:10;stroke-opacity:1;stroke-dasharray:none" /></g></g><g
         id="g7460"><g
           transform="matrix(1,0,0,-0.990814,0,184.25195)"
           id="g7462"><path
             d="m 310.684,92.672 43.183,-11.406 40.031,22.385 38.34,-10.211 -38.574,-22.353 43.109,-10.925 39.446,21.692 30.742,-7.96 -59.883,-30.945 -187.41,46.987 56.285,32.718 33.942,-7.901 -39.211,-22.081 z"
             id="path7470"
             style="fill:url(#linearGradient7464);fill-opacity:1;fill-rule:nonzero;stroke:#4d4d4d;stroke-width:0.54373199;stroke-linecap:round;stroke-linejoin:round;stroke-miterlimit:10;stroke-opacity:1;stroke-dasharray:none" /></g></g><g
         transform="matrix(1,0,0,-0.990814,0,184.25195)"
         id="g7472"><path
           d="m 349.434,141.397 -0.246,-26.766 -38.727,-21.983 43.324,-11.07 40.035,22.073 0,25.354 -44.386,12.392 z"
           id="path7474"
           style="fill:#99b2cc;fill-opacity:1;fill-rule:evenodd;stroke:#4d4d4d;stroke-width:0.33836299;stroke-linecap:butt;stroke-linejoin:miter;stroke-miterlimit:10;stroke-opacity:1;stroke-dasharray:none" /></g><g
         transform="matrix(1,0,0,-0.990814,0,184.25195)"
         id="g7476"><path
           d="m 310.461,92.648 43.473,-11.327 -0.106,24.952 -13.613,3.284 -29.754,-16.909"
           id="path7478"
           style="fill:#c1cfd8;fill-opacity:1;fill-rule:nonzero;stroke:#4d4d4d;stroke-width:0.33836299;stroke-linecap:square;stroke-linejoin:miter;stroke-miterlimit:10;stroke-opacity:1;stroke-dasharray:none" /></g><g
         id="g7480"><g
           transform="matrix(1,0,0,-0.990814,0,184.25195)"
           id="g7482"><path
             d="m 353.859,81.321 39.887,22.366 0,25.027 -39.922,-22.461 0.035,-24.932"
             id="path7490"
             style="fill:url(#linearGradient7484);fill-opacity:1;fill-rule:nonzero;stroke:#4d4d4d;stroke-width:0.33836299;stroke-linecap:butt;stroke-linejoin:miter;stroke-miterlimit:10;stroke-opacity:1;stroke-dasharray:none" /></g></g><g
         transform="matrix(1,0,0,-0.990814,0,184.25195)"
         id="g7492"><path
           d="m 392.813,70.838 27.32,-7.033 -0.047,9.521 -11.871,3.091 0.027,3.481 -4.269,-2.626 -11.16,-6.434"
           id="path7494"
           style="fill:#165489;fill-opacity:1;fill-rule:nonzero;stroke:#4d4d4d;stroke-width:0.33836299;stroke-linecap:square;stroke-linejoin:miter;stroke-miterlimit:10;stroke-opacity:1;stroke-dasharray:none" /></g><g
         transform="matrix(1,0,0,-1,0,184.25195)"
         id="g7496"><path
           d="m 420.055,63.145 0,9.558"
           id="path7498"
           style="fill:#7497b3;fill-opacity:1;fill-rule:nonzero;stroke:#4d4d4d;stroke-width:0.33680499;stroke-linecap:square;stroke-linejoin:miter;stroke-miterlimit:10;stroke-opacity:1;stroke-dasharray:none" /></g><g
         transform="matrix(1,0,0,-1,0,184.25195)"
         id="g7500"><path
           d="m 408.176,79.105 0.012,-12.816"
           id="path7502"
           style="fill:none;stroke:#4d4d4d;stroke-width:0.33680499;stroke-linecap:square;stroke-linejoin:miter;stroke-miterlimit:10;stroke-opacity:1;stroke-dasharray:none" /></g><g
         transform="matrix(1,0,0,-1,0,184.25195)"
         id="g7504"><path
           d="m 414.754,73.355 38.68,21.528"
           id="path7506"
           style="fill:none;stroke:#ffdd00;stroke-width:2.69443989;stroke-linecap:square;stroke-linejoin:miter;stroke-miterlimit:10;stroke-opacity:1;stroke-dasharray:none" /></g><path
         d="m 461.363,81.154 c 0,-2.793 -2.285,-5.058 -5.105,-5.058 -2.82,0 -5.106,2.265 -5.106,5.058 0,2.797 2.286,5.059 5.106,5.059 2.82,0 5.105,-2.262 5.105,-5.059 z"
         id="path7508"
         style="fill:#34679b;fill-opacity:1;fill-rule:nonzero;stroke:none" /><text
         transform="matrix(1,0,0,-0.99081356,453.81467,78.047197)"
         id="text7510"><tspan
           x="0"
           y="0"
           id="tspan7512"
           style="font-size:8.90660381px;font-variant:normal;font-weight:normal;writing-mode:lr-tb;fill:#ffffff;fill-opacity:1;fill-rule:nonzero;stroke:none;font-family:Arial;-inkscape-font-specification:ArialMT">2</tspan></text>
<g
         transform="matrix(1,0,0,-0.990814,0,184.25195)"
         id="g7514"><path
           d="m 432.324,119.662 0.031,-26.135 -39,-22.295 43.727,-11.314 39.504,22.125 0,26.947 -44.262,10.672 z"
           id="path7516"
           style="fill:#99b2cc;fill-opacity:1;fill-rule:evenodd;stroke:#4d4d4d;stroke-width:0.33836299;stroke-linecap:butt;stroke-linejoin:miter;stroke-miterlimit:4;stroke-opacity:1;stroke-dasharray:none" /></g><g
         transform="matrix(1,0,0,-0.990814,0,184.25195)"
         id="g7518"><path
           d="m 393.355,71.232 43.387,-11.484 0,17.398 -23.129,6.079 -20.258,-11.993"
           id="path7520"
           style="fill:#c5d0d7;fill-opacity:1;fill-rule:nonzero;stroke:#4d4d4d;stroke-width:0.33836299;stroke-linecap:square;stroke-linejoin:miter;stroke-miterlimit:10;stroke-opacity:1;stroke-dasharray:none" /></g><g
         id="g7522"><g
           transform="matrix(1,0,0,-0.990814,0,184.25195)"
           id="g7524"><path
             d="m 436.742,59.918 0,17.394 39.762,21.668 0.25,-17.107 -40.012,-21.955"
             id="path7532"
             style="fill:url(#linearGradient7526);fill-opacity:1;fill-rule:nonzero;stroke:#4d4d4d;stroke-width:0.33836299;stroke-linecap:square;stroke-linejoin:miter;stroke-miterlimit:10;stroke-opacity:1;stroke-dasharray:none" /></g></g><g
         transform="matrix(1,0,0,-1,0,184.25195)"
         id="g7534"><path
           d="m 345.508,107.969 39.738,21.398"
           id="path7536"
           style="fill:none;stroke:#ffdd00;stroke-width:2.69443989;stroke-linecap:square;stroke-linejoin:miter;stroke-miterlimit:10;stroke-opacity:1;stroke-dasharray:none" /></g><g
         transform="matrix(1,0,0,-1,0,184.25195)"
         id="g7538"><path
           d="m 338.926,114.488 32.648,17.535"
           id="path7540"
           style="fill:none;stroke:#ffdd00;stroke-width:2.69443989;stroke-linecap:square;stroke-linejoin:miter;stroke-miterlimit:10;stroke-opacity:1;stroke-dasharray:none" /></g><g
         transform="matrix(1,0,0,-1,0,184.25195)"
         id="g7542"><path
           d="m 332.219,121.137 25.937,13.926"
           id="path7544"
           style="fill:none;stroke:#ffdd00;stroke-width:2.41890407;stroke-linecap:round;stroke-linejoin:round;stroke-miterlimit:10;stroke-opacity:1;stroke-dasharray:none" /></g><g
         transform="matrix(1,0,0,-1,0,184.25195)"
         id="g7546"><path
           d="M 430.684,78.125 469.43,98.918"
           id="path7548"
           style="fill:none;stroke:#ffdd00;stroke-width:2.41890407;stroke-linecap:round;stroke-linejoin:round;stroke-miterlimit:10;stroke-opacity:1;stroke-dasharray:none" /></g><g
         transform="matrix(1,0,0,-1,0,184.25195)"
         id="g7550"><path
           d="m 419.727,81.684 33.871,20.664"
           id="path7552"
           style="fill:none;stroke:#ffdd00;stroke-width:2.41890407;stroke-linecap:round;stroke-linejoin:round;stroke-miterlimit:10;stroke-opacity:1;stroke-dasharray:none" /></g><g
         transform="matrix(1,0,0,-1,0,184.25195)"
         id="g7554"><path
           d="m 428.609,98.805 12.914,7.082"
           id="path7556"
           style="fill:none;stroke:#ffdd00;stroke-width:2.41890407;stroke-linecap:round;stroke-linejoin:round;stroke-miterlimit:10;stroke-opacity:1;stroke-dasharray:none" /></g><g
         transform="matrix(1,0,0,-0.990814,0,184.25195)"
         id="g7558"><path
           d="m 435.012,122.098 -5.633,-1.683 2.691,-9.833 44.543,-11.764 0.672,9.919 -42.273,13.361 z"
           id="path7560"
           style="fill:#5d7d9c;fill-opacity:1;fill-rule:evenodd;stroke:#4d4d4d;stroke-width:0.33836299;stroke-linecap:butt;stroke-linejoin:miter;stroke-miterlimit:4;stroke-opacity:1;stroke-dasharray:none" /></g><g
         id="g7562"><g
           transform="matrix(1,0,0,-0.990814,0,184.25195)"
           id="g7564"><path
             d="m 315.953,122.701 33.879,-7.936 0.031,25.748 43.965,-11.827 -0.012,-24.948 38.524,-10.305 0.152,25.704 44.024,-11.862 -0.063,-25.287 30.527,-8.11 0,44.475 -190.941,49.198 0,-44.976"
             id="path7572"
             style="fill:url(#linearGradient7566);fill-opacity:1;fill-rule:nonzero;stroke:#4d4d4d;stroke-width:0.54373199;stroke-linecap:round;stroke-linejoin:round;stroke-miterlimit:10;stroke-opacity:1;stroke-dasharray:none" /></g></g><g
         id="g7574"><g
           transform="matrix(1,0,0,-0.990814,0,184.25195)"
           id="g7576"><path
             d="m 432.457,119.082 44.02,-11.815 -0.055,-8.465 -43.965,11.587 0,8.693 z"
             id="path7584"
             style="fill:url(#linearGradient7578);fill-opacity:1;fill-rule:nonzero;stroke:#808080;stroke-width:0.54373199;stroke-linecap:round;stroke-linejoin:round;stroke-miterlimit:10;stroke-opacity:1;stroke-dasharray:none" /></g></g><g
         transform="matrix(1,0,0,-0.990814,0,184.25195)"
         id="g7586"><path
           d="M 393.859,111.745 353.895,90.424 321.711,98.849"
           id="path7588"
           style="fill:none;stroke:#808080;stroke-width:0.67672598;stroke-linecap:square;stroke-linejoin:miter;stroke-miterlimit:10;stroke-opacity:1;stroke-dasharray:none" /></g><g
         transform="matrix(1,0,0,-0.990814,0,184.25195)"
         id="g7590"><path
           d="m 393.859,120.178 -40,-21.64 -21.957,5.969"
           id="path7592"
           style="fill:none;stroke:#808080;stroke-width:0.67672598;stroke-linecap:square;stroke-linejoin:miter;stroke-miterlimit:10;stroke-opacity:1;stroke-dasharray:none" /></g><g
         transform="matrix(1,0,0,-0.990814,0,184.25195)"
         id="g7594"><path
           d="m 462.551,111.099 0.054,-8.5 -37.73,-22.342"
           id="path7596"
           style="fill:none;stroke:#808080;stroke-width:0.54373199;stroke-linecap:round;stroke-linejoin:round;stroke-miterlimit:10;stroke-opacity:1;stroke-dasharray:none" /></g><g
         transform="matrix(1,0,0,-1,0,184.25195)"
         id="g7598"><path
           d="m 432.684,96.434 15.679,8.863"
           id="path7600"
           style="fill:none;stroke:#808080;stroke-width:0.67360997;stroke-linecap:square;stroke-linejoin:miter;stroke-miterlimit:10;stroke-opacity:1;stroke-dasharray:none" /></g><g
         transform="matrix(1,0,0,-1,0,184.25195)"
         id="g7602"><path
           d="m 448.395,105.555 0,8.199"
           id="path7604"
           style="fill:none;stroke:#808080;stroke-width:0.541228;stroke-linecap:round;stroke-linejoin:round;stroke-miterlimit:10;stroke-opacity:1;stroke-dasharray:none" /></g><g
         transform="matrix(1,0,0,-1,0,184.25195)"
         id="g7606"><path
           d="m 436.762,67.797 -33.594,8.137"
           id="path7608"
           style="fill:none;stroke:#808080;stroke-width:0.67360997;stroke-linecap:square;stroke-linejoin:miter;stroke-miterlimit:10;stroke-opacity:1;stroke-dasharray:none" /></g><g
         transform="matrix(1,0,0,-1,0,184.25195)"
         id="g7610"><path
           d="m 345.508,107.969 32.902,17.648"
           id="path7612"
           style="fill:none;stroke:#ffdd00;stroke-width:2.41890407;stroke-linecap:round;stroke-linejoin:round;stroke-miterlimit:10;stroke-opacity:1;stroke-dasharray:none" /></g><g
         transform="matrix(1,0,0,-1,0,184.25195)"
         id="g7614"><path
           d="m 352.73,121.902 18.844,10.121"
           id="path7616"
           style="fill:none;stroke:#ffdd00;stroke-width:2.41890407;stroke-linecap:round;stroke-linejoin:round;stroke-miterlimit:10;stroke-opacity:1;stroke-dasharray:none" /></g><g
         transform="matrix(1,0,0,-0.990814,0,184.25195)"
         id="g7618"><path
           d="m 332.945,103.521 0,-35.048 24.465,18.411 0,48.816"
           id="path7620"
           style="fill:none;stroke:#e2001a;stroke-width:2.43008709;stroke-linecap:round;stroke-linejoin:round;stroke-miterlimit:10;stroke-opacity:1;stroke-dasharray:none" /></g><g
         transform="matrix(1,0,0,-1,0,184.25195)"
         id="g7622"><path
           d="m 345.574,107.813 0.039,-42.266 25.766,17.848 0,48.226"
           id="path7624"
           style="fill:none;stroke:#e2001a;stroke-width:2.41890407;stroke-linecap:round;stroke-linejoin:round;stroke-miterlimit:10;stroke-opacity:1;stroke-dasharray:none" /></g><g
         transform="matrix(1,0,0,-1,0,184.25195)"
         id="g7626"><path
           d="m 385.5,129.086 0.359,-55.414 17.254,-27.957 0.239,29.461"
           id="path7628"
           style="fill:none;stroke:#e2001a;stroke-width:2.41890407;stroke-linecap:round;stroke-linejoin:round;stroke-miterlimit:10;stroke-opacity:1;stroke-dasharray:none" /></g><g
         transform="matrix(1,0,0,-1,0,184.25195)"
         id="g7630"><path
           d="m 418.965,81.18 0,-33.903 22.762,15 0.121,43.903"
           id="path7632"
           style="fill:none;stroke:#e2001a;stroke-width:2.41890407;stroke-linecap:round;stroke-linejoin:round;stroke-miterlimit:10;stroke-opacity:1;stroke-dasharray:none" /></g><g
         transform="matrix(1,0,0,-1,0,184.25195)"
         id="g7634"><path
           d="m 430.625,77.641 -0.121,-35.633 22.992,16.668 0,43.828"
           id="path7636"
           style="fill:none;stroke:#e2001a;stroke-width:2.41890407;stroke-linecap:round;stroke-linejoin:round;stroke-miterlimit:10;stroke-opacity:1;stroke-dasharray:none" /></g><g
         transform="matrix(1,0,0,-1,0,184.25195)"
         id="g7638"><path
           d="m 417.887,46.676 51.562,9.347 0,42.469"
           id="path7640"
           style="fill:none;stroke:#e2001a;stroke-width:2.41890407;stroke-linecap:round;stroke-linejoin:round;stroke-miterlimit:10;stroke-opacity:1;stroke-dasharray:none" /></g><g
         transform="matrix(-1,0.616589,0.590117,0.957068,0,184.25195)"
         id="g7642"><path
           d="m -311.839,145.928 7.323,-6.979 -4.765,10e-4 0,-13.233 -5.108,0.002 0,13.232 -4.596,-0.003 7.146,6.98"
           id="path7644"
           style="fill:#e2001a;fill-opacity:1;fill-rule:nonzero;stroke:#000000;stroke-width:0.47091401;stroke-linecap:round;stroke-linejoin:round;stroke-miterlimit:10;stroke-opacity:1;stroke-dasharray:none" /></g><g
         transform="matrix(-0.107156,-1,-0.957067,0.102556,0,184.25195)"
         id="g7646"><path
           d="m 2.498,-434.961 8.55,-8.153 -5.566,0.003 10e-4,-15.457 -5.969,-0.001 0.003,15.456 -5.371,0.002 8.352,8.15"
           id="path7648"
           style="fill:#e2001a;fill-opacity:1;fill-rule:nonzero;stroke:#000000;stroke-width:0.55008501;stroke-linecap:round;stroke-linejoin:round;stroke-miterlimit:10;stroke-opacity:1;stroke-dasharray:none" /></g><g
         transform="matrix(1,0,0,-1,0,184.25195)"
         id="g7650"><path
           d="m 321.418,41.133 0.125,55.648"
           id="path7652"
           style="fill:none;stroke:#e2001a;stroke-width:2.41890407;stroke-linecap:round;stroke-linejoin:round;stroke-miterlimit:10;stroke-opacity:1;stroke-dasharray:none" /></g><g
         transform="matrix(1,0,0,-0.957068,0,184.25195)"
         id="g7654"><path
           d="m 321.727,74.328 8.601,-8.2 -5.601,0 0,-15.546 -6,0 0,15.546 -5.399,0 8.399,8.2"
           id="path7656"
           style="fill:#e2001a;fill-opacity:1;fill-rule:nonzero;stroke:#000000;stroke-width:0.55323499;stroke-linecap:round;stroke-linejoin:round;stroke-miterlimit:10;stroke-opacity:1;stroke-dasharray:none" /></g><path
         d="m 130.879,28.174 c 0,-5.953 -4.727,-10.778 -10.559,-10.778 -5.832,0 -10.562,4.825 -10.562,10.778 0,5.949 4.73,10.773 10.562,10.773 5.832,0 10.559,-4.824 10.559,-10.773 z"
         id="path7658"
         style="fill:#1f638a;fill-opacity:1;fill-rule:nonzero;stroke:none" /><text
         transform="matrix(1,0,0,-1,115.64569,22.035461)"
         id="text7660"><tspan
           x="0"
           y="0"
           id="tspan7662"
           style="font-size:17.06664085px;font-variant:normal;font-weight:normal;writing-mode:lr-tb;fill:#ffffff;fill-opacity:1;fill-rule:nonzero;stroke:none;font-family:Arial;-inkscape-font-specification:ArialMT">1</tspan></text>
<g
         transform="matrix(1,0,0,-1,0,184.25195)"
         id="g7664"><path
           d="m 122.004,162.215 -1.5,0 0,-9.559 c -0.367,0.348 -0.84,0.692 -1.422,1.035 -0.59,0.348 -1.117,0.606 -1.578,0.774 l 0,-1.449 c 0.836,-0.395 1.57,-0.871 2.199,-1.434 0.625,-0.559 1.07,-1.102 1.332,-1.633 l 0.969,0 0,12.266 z"
           id="path7666"
           style="fill:none;stroke:#ffffff;stroke-width:0.85333598;stroke-linecap:butt;stroke-linejoin:miter;stroke-miterlimit:4;stroke-opacity:1;stroke-dasharray:none" /></g><path
         d="m 217.711,51.604 c 0,-5.954 -4.727,-10.778 -10.559,-10.778 -5.832,0 -10.558,4.824 -10.558,10.778 0,5.949 4.726,10.773 10.558,10.773 5.832,0 10.559,-4.824 10.559,-10.773 z"
         id="path7668"
         style="fill:#1f638a;fill-opacity:1;fill-rule:nonzero;stroke:none" /><text
         transform="matrix(1,0,0,-1,202.47889,45.464101)"
         id="text7670"><tspan
           x="0"
           y="0"
           id="tspan7672"
           style="font-size:17.06664085px;font-variant:normal;font-weight:normal;writing-mode:lr-tb;fill:#ffffff;fill-opacity:1;fill-rule:nonzero;stroke:none;font-family:Arial;-inkscape-font-specification:ArialMT">2</tspan></text>
<g
         transform="matrix(1,0,0,-1,0,184.25195)"
         id="g7674"><path
           d="m 211.07,137.348 0,1.441 -8.074,0 c -0.012,-0.359 0.047,-0.707 0.176,-1.043 0.203,-0.547 0.531,-1.086 0.988,-1.621 0.449,-0.531 1.102,-1.148 1.961,-1.852 1.324,-1.085 2.223,-1.949 2.692,-2.585 0.464,-0.637 0.699,-1.239 0.703,-1.809 -0.004,-0.59 -0.219,-1.09 -0.641,-1.5 -0.43,-0.406 -0.98,-0.609 -1.66,-0.613 -0.727,0.004 -1.305,0.218 -1.735,0.648 -0.433,0.434 -0.656,1.035 -0.66,1.801 l -1.539,-0.16 c 0.102,-1.145 0.496,-2.02 1.188,-2.625 0.687,-0.602 1.613,-0.903 2.777,-0.907 1.168,0.004 2.098,0.329 2.781,0.977 0.684,0.652 1.024,1.457 1.028,2.414 -0.004,0.492 -0.102,0.973 -0.301,1.441 -0.199,0.473 -0.531,0.969 -0.996,1.493 -0.465,0.523 -1.238,1.242 -2.313,2.148 -0.902,0.758 -1.476,1.27 -1.73,1.539 -0.258,0.27 -0.469,0.539 -0.633,0.813 l 5.988,0 z"
           id="path7676"
           style="fill:none;stroke:#ffffff;stroke-width:0.85333598;stroke-linecap:butt;stroke-linejoin:miter;stroke-miterlimit:4;stroke-opacity:1;stroke-dasharray:none" /></g><path
         d="m 119.75,159.072 c 0,-5.949 -4.727,-10.773 -10.559,-10.773 -5.832,0 -10.558,4.824 -10.558,10.773 0,5.953 4.726,10.778 10.558,10.778 5.832,0 10.559,-4.825 10.559,-10.778 z"
         id="path7678"
         style="fill:#1f638a;fill-opacity:1;fill-rule:nonzero;stroke:none" /><text
         transform="matrix(1,0,0,-1,103.49895,152.96544)"
         id="text7680"><tspan
           x="0"
           y="0"
           id="tspan7682"
           style="font-size:17.06664085px;font-variant:normal;font-weight:normal;writing-mode:lr-tb;fill:#ffffff;fill-opacity:1;fill-rule:nonzero;stroke:none;font-family:Arial;-inkscape-font-specification:ArialMT">A</tspan></text>
<g
         transform="matrix(1,0,0,-1,0,184.25195)"
         id="g7684"><path
           d="m 103.477,31.285 4.691,-12.215 1.742,0 5,12.215 -1.844,0 -1.425,-3.699 -5.106,0 -1.344,3.699 -1.714,0 z M 107,26.27 l 4.141,0 -1.274,-3.383 c -0.39,-1.024 -0.679,-1.871 -0.867,-2.535 -0.16,0.785 -0.379,1.562 -0.66,2.332 L 107,26.27 z"
           id="path7686"
           style="fill:none;stroke:#ffffff;stroke-width:0.85333598;stroke-linecap:butt;stroke-linejoin:miter;stroke-miterlimit:4;stroke-opacity:1;stroke-dasharray:none" /></g><path
         d="m 368.484,159.072 c 0,-5.949 -4.726,-10.773 -10.558,-10.773 -5.832,0 -10.563,4.824 -10.563,10.773 0,5.953 4.731,10.778 10.563,10.778 5.832,0 10.558,-4.825 10.558,-10.778 z"
         id="path7688"
         style="fill:#1f638a;fill-opacity:1;fill-rule:nonzero;stroke:none" /><text
         transform="matrix(1,0,0,-1,352.78397,152.96544)"
         id="text7690"><tspan
           x="0"
           y="0"
           id="tspan7692"
           style="font-size:17.06664085px;font-variant:normal;font-weight:normal;writing-mode:lr-tb;fill:#ffffff;fill-opacity:1;fill-rule:nonzero;stroke:none;font-family:Arial;-inkscape-font-specification:ArialMT">B</tspan></text>
<g
         transform="matrix(1,0,0,-1,0,184.25195)"
         id="g7694"><path
           d="m 354.035,31.285 0,-12.215 4.582,0 c 0.93,0.004 1.68,0.129 2.246,0.371 0.563,0.25 1.004,0.629 1.325,1.141 0.316,0.516 0.476,1.055 0.48,1.613 -0.004,0.524 -0.145,1.012 -0.426,1.473 -0.281,0.461 -0.711,0.836 -1.281,1.117 0.734,0.219 1.305,0.586 1.703,1.11 0.399,0.523 0.598,1.14 0.598,1.847 0,0.574 -0.121,1.106 -0.364,1.598 -0.242,0.492 -0.543,0.871 -0.898,1.137 -0.355,0.265 -0.801,0.468 -1.336,0.605 -0.539,0.137 -1.195,0.203 -1.969,0.203 l -4.66,0 z m 1.617,-7.082 2.641,0 c 0.715,0.004 1.227,-0.043 1.543,-0.144 0.406,-0.118 0.719,-0.321 0.93,-0.606 0.207,-0.281 0.308,-0.637 0.312,-1.066 -0.004,-0.403 -0.101,-0.758 -0.293,-1.071 -0.199,-0.304 -0.476,-0.515 -0.836,-0.632 -0.363,-0.11 -0.98,-0.168 -1.855,-0.172 l -2.442,0 0,3.691 z m 0,5.641 3.043,0 c 0.52,0 0.887,-0.02 1.098,-0.059 0.371,-0.066 0.68,-0.176 0.934,-0.332 0.246,-0.152 0.453,-0.379 0.617,-0.68 0.16,-0.293 0.242,-0.636 0.242,-1.031 0,-0.453 -0.117,-0.847 -0.352,-1.187 -0.234,-0.332 -0.558,-0.571 -0.968,-0.707 -0.418,-0.133 -1.016,-0.2 -1.789,-0.203 l -2.825,0 0,4.199 z"
           id="path7696"
           style="fill:none;stroke:#ffffff;stroke-width:0.85333598;stroke-linecap:butt;stroke-linejoin:miter;stroke-miterlimit:4;stroke-opacity:1;stroke-dasharray:none" /></g><path
         d="m 390.23,29.225 c 0,-5.954 -4.73,-10.778 -10.562,-10.778 -5.832,0 -10.559,4.824 -10.559,10.778 0,5.949 4.727,10.773 10.559,10.773 5.832,0 10.562,-4.824 10.562,-10.773 z"
         id="path7698"
         style="fill:#1f638a;fill-opacity:1;fill-rule:nonzero;stroke:none" /><text
         transform="matrix(1,0,0,-1,374.99578,23.085781)"
         id="text7700"><tspan
           x="0"
           y="0"
           id="tspan7702"
           style="font-size:17.06664085px;font-variant:normal;font-weight:normal;writing-mode:lr-tb;fill:#ffffff;fill-opacity:1;fill-rule:nonzero;stroke:none;font-family:Arial;-inkscape-font-specification:ArialMT">1</tspan></text>
<g
         transform="matrix(1,0,0,-1,0,184.25195)"
         id="g7704"><path
           d="m 381.355,161.168 -1.5,0 0,-9.559 c -0.367,0.348 -0.839,0.692 -1.421,1.036 -0.59,0.347 -1.118,0.605 -1.579,0.773 l 0,-1.449 c 0.836,-0.395 1.571,-0.871 2.2,-1.434 0.625,-0.558 1.07,-1.101 1.332,-1.633 l 0.968,0 0,12.266 z"
           id="path7706"
           style="fill:none;stroke:#ffffff;stroke-width:0.85333598;stroke-linecap:butt;stroke-linejoin:miter;stroke-miterlimit:4;stroke-opacity:1;stroke-dasharray:none" /></g><path
         d="m 477.063,52.65 c 0,-5.949 -4.727,-10.773 -10.559,-10.773 -5.832,0 -10.563,4.824 -10.563,10.773 0,5.954 4.731,10.778 10.563,10.778 5.832,0 10.559,-4.824 10.559,-10.778 z"
         id="path7708"
         style="fill:#1f638a;fill-opacity:1;fill-rule:nonzero;stroke:none" /><text
         transform="matrix(1,0,0,-1,461.82898,46.514501)"
         id="text7710"><tspan
           x="0"
           y="0"
           id="tspan7712"
           style="font-size:17.06664085px;font-variant:normal;font-weight:normal;writing-mode:lr-tb;fill:#ffffff;fill-opacity:1;fill-rule:nonzero;stroke:none;font-family:Arial;-inkscape-font-specification:ArialMT">2</tspan></text>
<g
         transform="matrix(1,0,0,-1,0,184.25195)"
         id="g7714"><path
           d="m 470.418,136.297 0,1.441 -8.074,0 c -0.012,-0.359 0.047,-0.707 0.176,-1.043 0.203,-0.547 0.531,-1.086 0.988,-1.621 0.449,-0.531 1.101,-1.148 1.961,-1.851 1.324,-1.086 2.222,-1.95 2.691,-2.586 0.465,-0.637 0.699,-1.239 0.703,-1.809 -0.004,-0.59 -0.218,-1.09 -0.64,-1.5 -0.43,-0.406 -0.981,-0.609 -1.66,-0.613 -0.727,0.004 -1.305,0.219 -1.735,0.648 -0.433,0.434 -0.656,1.035 -0.66,1.801 l -1.539,-0.16 c 0.101,-1.145 0.496,-2.02 1.187,-2.625 0.688,-0.602 1.614,-0.902 2.778,-0.906 1.168,0.004 2.097,0.328 2.781,0.976 0.684,0.653 1.023,1.457 1.027,2.414 -0.004,0.492 -0.101,0.973 -0.3,1.442 -0.2,0.472 -0.532,0.968 -0.997,1.492 -0.464,0.523 -1.238,1.242 -2.312,2.148 -0.902,0.758 -1.477,1.27 -1.73,1.539 -0.258,0.27 -0.469,0.539 -0.633,0.813 l 5.988,0 z"
           id="path7716"
           style="fill:none;stroke:#ffffff;stroke-width:0.85333598;stroke-linecap:butt;stroke-linejoin:miter;stroke-miterlimit:4;stroke-opacity:1;stroke-dasharray:none" /></g></g></g></svg>