<svg version="1.1" viewBox="0 0 637.8 301.18" xmlns="http://www.w3.org/2000/svg" xmlns:xlink="http://www.w3.org/1999/xlink">
 <title>Abbildung für OPEN MIND Softwaredokumentation</title>
 <defs>
  <linearGradient id="linearGradient17780-7-22">
   <stop stop-color="#ffffff" offset="0"/>
   <stop stop-color="#00385e" offset="1"/>
  </linearGradient>
  <linearGradient id="linearGradient3900" x1="17.377" x2="296.95" y1="943.22" y2="943.22" gradientUnits="userSpaceOnUse" xlink:href="#linearGradient17780-7-22"/>
 </defs>
 <g transform="translate(0 -751.18)">
  <g fill="#376381" stroke="#4d4d4d" stroke-linecap="round" stroke-linejoin="round" stroke-width=".63425">
   <rect x="448.94" y="805.13" width="158.57" height="99.109" color="#000000"/>
   <rect x="230.9" y="805.66" width="158.57" height="99.109" color="#000000"/>
   <rect transform="translate(0 733.46)" x="31.608" y="74.072" width="158.57" height="99.109" color="#000000"/>
  </g>
  <g stroke-linecap="round" stroke-linejoin="round">
   <g transform="translate(0,38)" fill="url(#linearGradient3900)">
    <g transform="matrix(.43352 0 0 .46318 -58.758 522.61)" fill="url(#linearGradient3900)" stroke="#800080" stroke-width="2.9969">
     <polygon transform="matrix(1.6326 0 0 1.6326 176.97 792.43)" points="0.125 0.125 0.125 0.125 257.29 0.125 257.29 141.58 0.125 141.58" clip-rule="evenodd" fill="#376381" stroke="#800080" stroke-linecap="round" stroke-linejoin="round" stroke-width="1.8356"/>
    </g>
    <g fill="#376381" stroke="#ffcc00" stroke-miterlimit="10" stroke-width="1.3429">
     <rect x="37.836" y="903.79" width="143.57" height="78.866"/>
     <rect x="57.084" y="920.98" width="105.08" height="44.469"/>
     <rect x="75.211" y="938.95" width="68.824" height="8.5428"/>
    </g>
    <path d="m37.741 937.97c1.7134-10.192 9.57-8.756 10.411 2.831l0.5726 3.1843c0.78798 4.564 7.1849 4.056 7.8793-1.711l0.8563-5.5895c0.73645-4.8071 3.9497-7.0239 8.0781-4.1101l9.5654 6.2318" fill-opacity="0" stroke="#ffcc00" stroke-miterlimit="10" stroke-width="1.3429"/>
   </g>
   <g transform="translate(-.41732 28.614)" fill="#376381">
    <polygon transform="matrix(.70224 0 0 .70631 227.02 899.15)" points="0.792 0.125 0.792 0.125 258.19 0.125 258.19 151.4 0.792 151.4" clip-rule="evenodd" stroke="#800080" stroke-width="1.9068"/>
    <path d="m247.67 913.96h142.1v76.392h-142.1z" stroke="#ffcc00" stroke-width="1.3429"/>
    <g stroke="#d4aa00" stroke-width="1.9068">
     <g transform="matrix(.70224 0 0 .70631 227.3 899.13)">
      <path d="m219.13 109.86c0 3.85-3.15 7-7 7h-163.9c-3.85 0-7-3.15-7-7v-69.559c0-3.85 3.15-7 7-7h163.9c3.85 0 7 3.15 7 7z" fill="#376381" stroke="#ffcc00" stroke-linecap="round" stroke-linejoin="round" stroke-width="1.9068"/>
     </g>
     <g transform="matrix(.70224 0 0 .70631 227.16 899.29)">
      <path d="m206.49 97.595c0 3.85-3.15 7-7 7h-138.21c-3.85 0-7-3.15-7-7v-45.505c0-3.85 3.15-7 7-7h138.22c3.85 0 7 3.15 7 7v45.505z" fill="#376381" stroke="#ffcc00" stroke-linecap="round" stroke-linejoin="round" stroke-width="1.9068"/>
     </g>
     <g transform="matrix(.70224 0 0 .70631 227.32 899.09)">
      <path d="m194.33 85.853c0 3.85-3.15 7-7 7h-114.36c-3.85 0-7-3.15-7-7v-21.45c0-3.85 3.15-7 7-7h114.36c3.85 0 7.5068 3.1831 7 7v21.45z" fill="#376381" stroke="#ffcc00" stroke-linecap="round" stroke-linejoin="round" stroke-width="1.9068"/>
     </g>
     <g transform="matrix(.70224 0 0 .70631 227.02 899.03)">
      <path d="m182.09 76.845c0 2.2-1.8 4-4 4h-95.012c-2.2 0-4-1.8-4-4v-3.25c0-2.2 1.8-4 4-4h95.012c2.2 0 4 1.8 4 4z" fill="#376381" stroke="#ffcc00" stroke-linecap="round" stroke-linejoin="round" stroke-width="1.9068"/>
     </g>
    </g>
    <line x1="247.74" x2="282.55" y1="952.16" y2="952.16" stroke="#ffcc00" stroke-width="1.3429"/>
   </g>
   <path d="m36.792 903.44v-93.035" fill="#ffffff" stroke="#ffcc00" stroke-miterlimit="10" stroke-width="1.3429"/>
  </g>
  <g fill="none" stroke="#ffcc00" stroke-linecap="round" stroke-linejoin="round" stroke-miterlimit="10" stroke-width="1.3429">
   <path d="m109.88 903.44v-93.035"/>
   <path d="m189.01 884.25h-8.4439v-33.758h8.4439"/>
   <path d="m36.925 849.05c6.7517-36.744 36.393-31.324 39.706 10.447l2.2564 11.48c3.1052 16.453 26.202 14.864 28.938-5.9268l3.3744-20.15c5.1232-19.664 16.218-25.298 31.833-14.817l37.231 20.397"/>
  </g>
  <g fill="#000000" stroke="#000000" stroke-linecap="round" stroke-linejoin="round">
   <line x1="28.747" x2="152.83" y1="853.89" y2="853.89" stroke-miterlimit="10" stroke-width=".63425"/>
   <g>
    <path d="m91.372 880.39 3.9286-11.786h-8.2143z" stroke-width=".99921"/>
    <path d="m55.028 826.56-3.9286 11.786h8.2143z" stroke-width=".99921"/>
    <path d="m91.41 854.08v14.699" color="#000000" fill-rule="evenodd" stroke-miterlimit="10" stroke-width=".63425"/>
    <path d="m54.981 838.76v14.699" color="#000000" fill-rule="evenodd" stroke-miterlimit="10" stroke-width=".63425"/>
   </g>
   <path d="m265.92 832.95 29.685 25.73" stroke-width=".35433"/>
   <path d="m281.65 846.36-11.485-4.7361 5.3723-6.214z" stroke-width=".99921"/>
  </g>
  <g transform="translate(-1.4753 32.94)" stroke-linecap="round" stroke-linejoin="round">
   <path d="m249.06 870.24v-92.774h140.74" fill="none" stroke="#ffcc00" stroke-width="1.3429"/>
   <g transform="matrix(2.4993 0 0 2.5138 176.57 724.68)" stroke="#d4aa00" stroke-width=".53576">
    <path d="m41.234 57.905v-17.607c0-3.85 3.15-7 7-7h37.079" fill="none" stroke="#ffcc00" stroke-linecap="round" stroke-linejoin="round" stroke-width=".53576"/>
   </g>
   <g transform="matrix(2.4993 0 0 2.5138 176.06 725.27)" stroke="#d4aa00" stroke-width=".53576">
    <path d="m54.28 57.67v-5.58c0-3.85 3.15-7 7-7h24.239" fill="none" stroke="#ffcc00" stroke-linecap="round" stroke-linejoin="round" stroke-width=".53576"/>
   </g>
  </g>
  <path d="m456.06 803.71 29.685 25.73" fill="#000000" stroke="#000000" stroke-linecap="round" stroke-linejoin="round" stroke-width=".35433"/>
  <path d="m471.79 817.12-11.485-4.7361 5.3723-6.214z" fill="#000000" stroke="#000000" stroke-linecap="round" stroke-linejoin="round" stroke-width=".99921"/>
  <g stroke="#d4aa00" stroke-linecap="round" stroke-linejoin="round">
   <g transform="matrix(2.4993 0 0 2.5138 394.17 757.57)" stroke-width=".53576">
    <path d="m41.234 57.905v-17.607c0-3.85 3.15-7 7-7h37.079" fill="none" stroke="#ffcc00" stroke-linecap="round" stroke-linejoin="round" stroke-width=".53576"/>
   </g>
   <g transform="matrix(2.4993 0 0 2.5138 393.65 758.16)" stroke-width=".53576">
    <path d="m54.28 57.67v-5.58c0-3.85 3.15-7 7-7h24.239" fill="none" stroke="#ffcc00" stroke-linecap="round" stroke-linejoin="round" stroke-width=".53576"/>
   </g>
   <g transform="matrix(3.1782 0 0 3.7608 335.68 685.18)" stroke-width=".38843">
    <path d="m41.234 57.905v-17.607c0-3.85 3.15-7 7-7h37.079" fill="none" stroke="#ffcc00" stroke-linecap="round" stroke-linejoin="round" stroke-width=".38843"/>
   </g>
  </g>
  <g transform="translate(-.40011 38.772)" fill="#376381" stroke-linecap="round" stroke-linejoin="round">
   <g transform="matrix(.70224 0 0 .70631 426.42 880.2)" stroke="#d4aa00" stroke-width="1.9068">
    <path d="m243.8 134.53c0 3.85-3.15 7-7 7h-188.57c-3.85 0-7-3.15-7-7v-94.23c0-3.85 3.15-7 7-7h188.57c3.85 0 7 3.15 7 7z" fill="#376381" stroke="#d4aa00" stroke-linecap="round" stroke-linejoin="round" stroke-width="1.9068"/>
   </g>
   <polygon transform="matrix(.70224 0 0 .70631 434.86 889)" points="0.792 151.4 0.792 0.125 0.792 0.125 258.19 0.125 258.19 151.4" clip-rule="evenodd" stroke="#800080" stroke-width="1.9068"/>
   <g stroke="#d4aa00" stroke-width="1.9068">
    <g transform="matrix(.70224 0 0 .70631 435.14 888.97)">
     <path d="m219.13 109.86c0 3.85-3.15 7-7 7h-163.9c-3.85 0-7-3.15-7-7v-69.559c0-3.85 3.15-7 7-7h163.9c3.85 0 7 3.15 7 7z" fill="#376381" stroke="#ffcc00" stroke-linecap="round" stroke-linejoin="round" stroke-width="1.9068"/>
    </g>
    <g transform="matrix(.70224 0 0 .70631 435 889.14)">
     <path d="m206.49 97.595c0 3.85-3.15 7-7 7h-138.21c-3.85 0-7-3.15-7-7v-45.505c0-3.85 3.15-7 7-7h138.22c3.85 0 7 3.15 7 7v45.505z" fill="#376381" stroke="#ffcc00" stroke-linecap="round" stroke-linejoin="round" stroke-width="1.9068"/>
    </g>
    <g transform="matrix(.70224 0 0 .70631 435.16 888.93)">
     <path d="m194.33 85.853c0 3.85-3.15 7-7 7h-114.36c-3.85 0-7-3.15-7-7v-21.45c0-3.85 3.15-7 7-7h114.36c3.85 0 7.5068 3.1831 7 7v21.45z" fill="#376381" stroke="#ffcc00" stroke-linecap="round" stroke-linejoin="round" stroke-width="1.9068"/>
    </g>
    <g transform="matrix(.70224 0 0 .70631 434.86 888.87)">
     <path d="m182.09 76.845c0 2.2-1.8 4-4 4h-95.012c-2.2 0-4-1.8-4-4v-3.25c0-2.2 1.8-4 4-4h95.012c2.2 0 4 1.8 4 4z" fill="#376381" stroke="#ffcc00" stroke-linecap="round" stroke-linejoin="round" stroke-width="1.9068"/>
    </g>
   </g>
   <line x1="455.58" x2="490.39" y1="942" y2="942" stroke="#ffcc00" stroke-width="1.3429"/>
  </g>
  <g fill="none">
   <g stroke-linecap="round" stroke-linejoin="round">
    <rect x="33.722" y="964.69" width="43.987" height="27.492" color="#000000" stroke="#ffffff" stroke-width="1.3819"/>
    <rect x="240.51" y="937.9" width="43.987" height="27.492" color="#000000" stroke="#4d4d4d" stroke-width=".63425"/>
    <rect x="449.44" y="938.44" width="43.987" height="27.492" color="#000000" stroke="#4d4d4d" stroke-width=".63425"/>
   </g>
   <g>
    <path transform="translate(0 786.61)" d="m47.864 178.31-0.13393-58.023" stroke="#b8b9b6" stroke-width="1px"/>
    <rect x="240.6" y="938.01" width="43.987" height="27.492" color="#000000" stroke="#ffffff" stroke-linecap="round" stroke-linejoin="round" stroke-width="1.3819"/>
    <path d="m254.67 938.25-0.067-34.023" stroke="#b8b9b6" stroke-width="1px"/>
    <rect x="449.44" y="938.05" width="43.987" height="27.492" color="#000000" stroke="#ffffff" stroke-linecap="round" stroke-linejoin="round" stroke-width="1.3819"/>
    <path d="m463.45 937.36v-33.095" stroke="#b8b9b6" stroke-width="1px"/>
   </g>
  </g>
  <g transform="translate(151.74 877.67)">
   <ellipse cx="-44.92" cy="-98.798" rx="13.199" ry="13.469" d="m -31.720282,-98.79776 c 0,7.438558 -5.90954,13.4687 -13.199327,13.4687 -7.289787,0 -13.199328,-6.030142 -13.199328,-13.4687 0,-7.43856 5.909541,-13.4687 13.199328,-13.4687 7.289787,0 13.199327,6.03014 13.199327,13.4687 z" fill="#1f638a" stroke-linecap="round" stroke-linejoin="round" stroke-width="1.0658"/>
   <text x="-50.761276" y="-91.125885" fill="#000000" letter-spacing="0px" word-spacing="0px" style="line-height:0%" xml:space="preserve"><tspan x="-50.761276" y="-91.125885" fill="#ffffff" font-family="'Arial Nova', 'Arial Unicode MS', 'Yu Gothic UI', sans-serif" font-size="20px" stroke="#ffffff" stroke-width="1.0667" style="line-height:1.25">1</tspan></text>
  </g>
  <g transform="translate(317.47 877.67)">
   <ellipse cx="-13.718" cy="-98.798" rx="13.199" ry="13.469" d="m -0.51893806,-98.79776 c 0,7.438558 -5.90954024,13.4687 -13.19932794,13.4687 -7.289787,0 -13.199327,-6.030142 -13.199327,-13.4687 0,-7.43856 5.90954,-13.4687 13.199327,-13.4687 7.2897877,0 13.19932794,6.03014 13.19932794,13.4687 z" fill="#1f638a" stroke-linecap="round" stroke-linejoin="round" stroke-width="1.0658"/>
   <text x="-19.559933" y="-91.125885" fill="#000000" letter-spacing="0px" word-spacing="0px" style="line-height:0%" xml:space="preserve"><tspan x="-19.559933" y="-91.125885" fill="#ffffff" font-family="'Arial Nova', 'Arial Unicode MS', 'Yu Gothic UI', sans-serif" font-size="20px" stroke="#ffffff" stroke-width="1.0667" style="line-height:1.25">2</tspan></text>
  </g>
  <g transform="translate(503.25 877.63)">
   <ellipse cx="17.483" cy="-98.798" rx="13.199" ry="13.469" d="m 30.682402,-98.79776 c 0,7.438558 -5.909541,13.4687 -13.199328,13.4687 -7.289787,0 -13.1993273,-6.030142 -13.1993273,-13.4687 0,-7.43856 5.9095403,-13.4687 13.1993273,-13.4687 7.289787,0 13.199328,6.03014 13.199328,13.4687 z" fill="#1f638a" stroke-linecap="round" stroke-linejoin="round" stroke-width="1.0658"/>
   <text x="11.641406" y="-91.256096" fill="#000000" font-family="'Arial Nova', 'Arial Unicode MS', 'Yu Gothic UI', sans-serif" letter-spacing="0px" word-spacing="0px" style="line-height:0%" xml:space="preserve"><tspan x="11.641406" y="-91.256096" fill="#ffffff" font-family="'Arial Nova', 'Arial Unicode MS', 'Yu Gothic UI', sans-serif" font-size="20px" stroke="#ffffff" stroke-width="1.0667" style="line-height:1.25">3</tspan></text>
  </g>
 </g>
</svg>
