<?xml version="1.0" encoding="UTF-8" standalone="no"?>
<svg xmlns:inkscape="http://www.inkscape.org/namespaces/inkscape" xmlns:sodipodi="http://sodipodi.sourceforge.net/DTD/sodipodi-0.dtd" xmlns:xlink="http://www.w3.org/1999/xlink" xmlns="http://www.w3.org/2000/svg" xmlns:svg="http://www.w3.org/2000/svg" xmlns:rdf="http://www.w3.org/1999/02/22-rdf-syntax-ns#" xmlns:cc="http://creativecommons.org/ns#" xmlns:dc="http://purl.org/dc/elements/1.1/" width="13cm" height="7cm" version="1.1" id="svg11095" sodipodi:docname="2D_fasenfraesen_3DModell_beispiel2.svg" inkscape:version="1.2.2 (732a01da63, 2022-12-09)">
  <sodipodi:namedview id="namedview11097" pagecolor="#ffffff" bordercolor="#666666" borderopacity="1.0" inkscape:showpageshadow="2" inkscape:pageopacity="0.0" inkscape:pagecheckerboard="0" inkscape:deskcolor="#d1d1d1" inkscape:document-units="cm" showgrid="false" inkscape:zoom="1.2615122" inkscape:cx="398.72782" inkscape:cy="139.11875" inkscape:window-width="1920" inkscape:window-height="1010" inkscape:window-x="953" inkscape:window-y="-6" inkscape:window-maximized="1" inkscape:current-layer="svg11095"/>
  <title id="title10882">Abbildung fuer OPEN MIND Softwaredokumentation</title>
  <defs id="defs10955">
    <linearGradient id="linearGradient16653" x1="237.04" x2="385.35" y1="481.71" y2="483.5" gradientTransform="matrix(1.0667,0,0,1.0667,-198.13,450.01)" gradientUnits="userSpaceOnUse">
      <stop stop-color="#fff" offset="0" id="stop10884"/>
      <stop stop-color="#00385e" offset="1" id="stop10886"/>
    </linearGradient>
    <linearGradient id="linearGradient16655" x1="237.04" x2="385.03" y1="481.71" y2="483.5" gradientTransform="matrix(1.0667,0,0,1.0667,-198.13,450.01)" gradientUnits="userSpaceOnUse">
      <stop offset="0" id="stop10889"/>
      <stop stop-opacity="0" offset="1" id="stop10891"/>
    </linearGradient>
    <linearGradient id="linearGradient16659" x1="94.103" x2="139.94" y1="918.76" y2="918.76" gradientTransform="matrix(1.6361,0,0,1.6352,6.4864,-567.7)" gradientUnits="userSpaceOnUse">
      <stop stop-color="#fff" offset="0" id="stop10894"/>
      <stop stop-color="#FCFCFC" offset=".2264" id="stop10896"/>
      <stop stop-color="#F4F4F4" offset=".3626" id="stop10898"/>
      <stop stop-color="#E6E6E6" offset=".475" id="stop10900"/>
      <stop stop-color="#D1D1D1" offset=".5744" id="stop10902"/>
      <stop stop-color="#B7B7B7" offset=".6652" id="stop10904"/>
      <stop stop-color="#979797" offset=".7498" id="stop10906"/>
      <stop stop-color="#707070" offset=".8297" id="stop10908"/>
      <stop stop-color="#444" offset=".9057" id="stop10910"/>
      <stop stop-color="#121212" offset=".9761" id="stop10912"/>
      <stop offset="1" id="stop10914"/>
    </linearGradient>
    <linearGradient id="linearGradient20539-7-7" x1="54.983" x2="54.983" y1="34.986" y2="34.986" gradientUnits="userSpaceOnUse">
      <stop stop-color="#fff" offset="0" id="stop10917"/>
      <stop stop-color="#FCFCFC" offset=".2264" id="stop10919"/>
      <stop stop-color="#F4F4F4" offset=".3626" id="stop10921"/>
      <stop stop-color="#E6E6E6" offset=".475" id="stop10923"/>
      <stop stop-color="#D1D1D1" offset=".5744" id="stop10925"/>
      <stop stop-color="#B7B7B7" offset=".6652" id="stop10927"/>
      <stop stop-color="#979797" offset=".7498" id="stop10929"/>
      <stop stop-color="#707070" offset=".8297" id="stop10931"/>
      <stop stop-color="#444" offset=".9057" id="stop10933"/>
      <stop stop-color="#121212" offset=".9761" id="stop10935"/>
      <stop offset="1" id="stop10937"/>
    </linearGradient>
    <linearGradient id="linearGradient17780-7-1">
      <stop stop-color="#fff" offset="0" id="stop10940"/>
      <stop stop-color="#00385e" offset="1" id="stop10942"/>
    </linearGradient>
    <linearGradient id="linearGradient5320" x1="9.693" x2="364.43" y1="75.925" y2="81.503" gradientTransform="matrix(1.3387,0,0,1.3658,-21.362,904.24)" gradientUnits="userSpaceOnUse">
      <stop stop-color="#fff" offset="0" id="stop10945"/>
      <stop stop-color="#00385e" offset="1" id="stop10947"/>
    </linearGradient>
    <linearGradient id="linearGradient5323" x1="130.75" x2="248.95" y1="533.18" y2="532" gradientTransform="matrix(1.5961,0,0,1.6764,-207.2,175.15)" gradientUnits="userSpaceOnUse" xlink:href="#linearGradient17780-7-1"/>
    <linearGradient id="linearGradient5326" x1="9.693" x2="419.66" y1="75.925" y2="80.627" gradientTransform="matrix(1.364,0,0,1.2348,-25.168,920.94)" gradientUnits="userSpaceOnUse" xlink:href="#linearGradient17780-7-1"/>
    <linearGradient id="linearGradient5329" x1="9.615" x2="223.77" y1="81.878" y2="84.202" gradientTransform="matrix(1.301,0,0,1.3659,-10.05,904.04)" gradientUnits="userSpaceOnUse" xlink:href="#linearGradient17780-7-1"/>
    <linearGradient id="linearGradient5331" x1="94.103" x2="139.94" y1="918.76" y2="918.76" gradientTransform="matrix(1.2836,0,0,1.2829,266.05,68.147)" gradientUnits="userSpaceOnUse" xlink:href="#linearGradient20539-7-7"/>
    <linearGradient id="linearGradient5333" x1="60.022" x2="80.232" y1="151.61" y2="151.34" gradientTransform="matrix(2.2451,0,0,0.64223,263.33,1063.3)" gradientUnits="userSpaceOnUse" xlink:href="#linearGradient20539-7-7"/>
  </defs>
  <metadata id="metadata10957">
    <rdf:RDF>
      <cc:Work rdf:about="">
        <dc:format>image/svg+xml</dc:format>
        <dc:type rdf:resource="http://purl.org/dc/dcmitype/StillImage"/>
        <dc:title>Abbildung fuer OPEN MIND Softwaredokumentation</dc:title>
        <dc:creator>
          <cc:Agent>
            <dc:title>OPEN MIND Technologies AG</dc:title>
          </cc:Agent>
        </dc:creator>
        <dc:rights>
          <cc:Agent>
            <dc:title>Alle Rechte vorbehalten.</dc:title>
          </cc:Agent>
        </dc:rights>
        <dc:publisher>
          <cc:Agent>
            <dc:title>Technische Redaktion</dc:title>
          </cc:Agent>
        </dc:publisher>
      </cc:Work>
    </rdf:RDF>
  </metadata>
  <g stroke="#4d4d4d" stroke-linecap="round" stroke-linejoin="round" id="g10967" transform="translate(0,-857.95)">
    <path d="m 189.68,980.05 0.0944,32.654 0.1799,29.419 38.614,44.616 c -88.633,-14.935 -224.73,-31.718 -225.8,-158.88 l 48.509,1.2453 z" fill="url(#linearGradient5329)" stroke-width="0.66142" id="path10959" style="fill:url(#linearGradient5329)"/>
    <path d="m 94.607,1042.6 -0.07381,44.19 134.03,-0.1279 -38.539,-44.642 z" fill="url(#linearGradient5326)" stroke-width="0.67654" id="path10961" style="fill:url(#linearGradient5326)"/>
    <path d="m 1.4017,1031.7 93.389,-0.6985 0.03381,55.708 133.87,0.161 -0.0257,16.837 -227.21,0.2044 z" fill="url(#linearGradient5323)" stroke-width="0.6602" id="path10963" style="fill:url(#linearGradient5323)"/>
    <path d="m 1.2269,927.91 0.11945,104.34 93.364,-0.031 -40.536,-51.621 135.46,0.0416 -55.218,-52.529 z" fill="url(#linearGradient5320)" stroke-width="0.67024" id="path10965" style="fill:url(#linearGradient5320)"/>
  </g>
  <path d="m 184.28168,130.95497 148.00312,11.04578 c -2.2022,4.92809 -19.32213,32.03306 -15.04137,37.03438 z" fill="#4d4d4d" stroke="#4d4d4d" stroke-width="1.4394" id="path110-1" style="opacity:0.47766323;stroke:none" sodipodi:nodetypes="cccc"/>
  <path d="m 187.78,122 -134,0.50784 41.294,49.45696" fill="none" stroke="#a5027d" stroke-linecap="round" stroke-linejoin="round" stroke-miterlimit="10" stroke-width="3.0236" id="path10969"/>
  <g transform="matrix(0.73998,0,0,0.73998,-119.07,-798.265)" stroke="#000000" stroke-linecap="round" stroke-linejoin="round" stroke-width="0.91426" id="g10977">
    <path d="m 329.86,1226 100.75,-0.072 -44.813,41.802 -11.793,0.076 z" fill="url(#linearGradient5331)" id="path10971" style="fill:url(#linearGradient5331)"/>
    <path d="m 374.47,1098.7 c -18.432,5.2588 -29.284,1.9362 -45.598,-1.7957 l 0.89578,129.23 100.98,-0.054 -0.35156,-129.18 c -19.205,-7.9201 -37.498,-3.463 -55.93,1.7958 z" color="#000000" fill="url(#linearGradient5333)" id="path10973" style="fill:url(#linearGradient5333)"/>
    <path d="m 378.53,1097 c -16.925,-8.7887 -33.046,-6.4126 -49.271,0" color="#000000" fill="none" id="path10975"/>
  </g>
  <path d="m 299.16,194.02 h 32.833" stroke="#000000" stroke-linecap="round" stroke-linejoin="round" stroke-width="0.67654" id="path10979"/>
  <g fill="none" stroke-linecap="round" stroke-linejoin="round" stroke-width="1.4324" id="g10989" transform="translate(0,-857.95)">
    <path d="m 137.5,1020.8 0.1463,23.066 -31.047,-38.639 120.98,-0.369 -0.0927,-32.253" stroke="#d4aa00" id="path10981"/>
    <path d="m 137.71,1024.3 0.1463,23.066 -31.047,-38.639 120.98,-0.3691 -0.0927,-32.253" stroke="#d4aa00" id="path10983"/>
    <line x1="227.92" x2="227.99001" y1="975.82001" y2="944.46002" stroke="#e2001a" stroke-miterlimit="10" id="line10985"/>
    <line x1="60.736" x2="74.611" y1="1009.4" y2="1009.4" stroke="#1f638a" stroke-miterlimit="10" id="line10987"/>
  </g>
  <g stroke="#000000" stroke-linecap="round" stroke-linejoin="round" stroke-width="0.67654" id="g10997" transform="translate(14,-789.95)">
    <path d="m 284.62,995.9 h 35.446" id="path10991"/>
    <path d="m 406.28,1016.4 h 27.203" id="path10993"/>
    <path d="m 423.2,983.18 h 10.324" id="path10995"/>
  </g>
  <g transform="translate(225.78,-769.216)" id="g11021">
    <g id="g11005">
      <path d="m 93.302,965.02 c 1.5238,0 117.33,0.76189 117.33,0.76189" fill="none" stroke="#d4aa00" stroke-width="1.4324" id="path11001"/>
      <path d="M 100.29548,919.79411 144.174,961.16 l 15.034,0.30205 44.19,-41.58 c 1.6345,3.5177 4.0141,6.1007 5.4251,9.9929 6.6605,18.372 5.9729,42.364 -14.663,64.674 -10.446,9.70495 -20.677,17.34295 -44.095,17.04795 -14.339,0.012 -28.777,-3.0121 -47.912,-24.94595 -15.719,-24.812 -13.473981,-47.57335 -1.80898,-66.80735 z" fill="url(#linearGradient16653)" stroke="url(#linearGradient16655)" stroke-width="0.67654" id="path11003" style="fill:url(#linearGradient16653);stroke:url(#linearGradient16655)" sodipodi:nodetypes="cccccccccc"/>
      <path d="m 104.78,912.89 4.5209,-4.7771 c 12.67517,-10.66542 26.50679,-16.93145 40.71258,-17.58699 13.69321,-0.63189 27.69435,3.90942 43.42788,16.83368 l 5.08514,5.82031 5.04235,6.84923 -44.44835,41.29017 -15.032,0.0971 -43.799,-41.484 z" fill="url(#linearGradient16659)" stroke="#000000" stroke-linecap="round" stroke-linejoin="round" stroke-width="0.67654" id="path10999" style="fill:url(#linearGradient16659)" sodipodi:nodetypes="ccsccccccc"/>
    </g>
    <g fill="none" id="g11019">
      <g stroke="#d4aa00" stroke-linecap="round" stroke-linejoin="round" stroke-width="2.2677" id="g11015">
        <path d="m 93.685,963.04 c 1.5238,0 117.33,-0.0459 117.33,-0.0459" id="path11007"/>
        <path d="m 97.564,975.04 c 1.4176,0 109.28,-0.0459 109.28,-0.0459" id="path11009"/>
        <path d="m 103.06,984.81 c 1.2764,0 98.286,-0.0459 98.286,-0.0459" id="path11011"/>
        <path d="m 113.38,996.32 c 1.0192,0 78.476,-0.0459 78.476,-0.0459" id="path11013"/>
      </g>
      <path d="m 212.47,951.38 c 0,33.523 -27.176,60.695 -60.698,60.695 -33.519,0 -60.695,-27.172 -60.695,-60.695 0,-22.91542 12.76638,-42.79225 31.50642,-53.12285 8.67725,-4.78341 18.58021,-7.57515 29.18858,-7.57515 33.523,0 60.698,27.172 60.698,60.698 z" stroke="#165489" stroke-miterlimit="10" stroke-width="1.8898" id="path11017" style="stroke:#4d4d4d;stroke-width:1.51181;stroke-dasharray:none;stroke-opacity:1" sodipodi:nodetypes="ssssss"/>
    </g>
  </g>
  <path d="m 299.32,193.31 4.0218,-12.626 -8.7611,0.11733 z" stroke="#000000" stroke-linecap="round" stroke-linejoin="round" stroke-width="1.0658" id="path11023"/>
  <path d="m 299.15,176.81 v 10.073" stroke="#000000" stroke-linecap="round" stroke-linejoin="round" stroke-width="0.67654" id="path11025"/>
  <g transform="translate(252.96,-768.859)" stroke="#000000" stroke-linecap="round" stroke-linejoin="round" id="g11031">
    <path d="m 45.652,975.51 -4.0218,12.626 8.7611,-0.11734 z" stroke-width="1.0658" id="path11027"/>
    <path d="m 45.714,983.01 v 10.073" stroke-width="0.67654" id="path11029"/>
  </g>
  <g transform="translate(379.77,-769.737)" stroke="#000000" stroke-linecap="round" stroke-linejoin="round" id="g11037">
    <path d="m 67.702,962.09 4.0218,-12.626 -8.7611,0.11734 z" stroke-width="1.0658" id="path11033"/>
    <path d="m 67.629,943.88 v 10.073" stroke-width="0.67654" id="path11035"/>
  </g>
  <g transform="translate(401.83,-748.119)" stroke="#000000" stroke-linecap="round" stroke-linejoin="round" id="g11043">
    <path d="m 45.652,975.51 -4.0218,12.626 8.7611,-0.11734 z" stroke-width="1.0658" id="path11039"/>
    <path d="m 45.714,983.01 v 10.073" stroke-width="0.67654" id="path11041"/>
  </g>
  <g fill="none" id="g11065" transform="translate(0,-857.95)">
    <g stroke-linecap="round" stroke-linejoin="round" stroke-width="1.4324" id="g11053">
      <line x1="226.67999" x2="226.75" y1="968.19" y2="936.83002" stroke="#e2001a" stroke-miterlimit="10" id="line11045"/>
      <line x1="227.63" x2="227.71001" y1="972.28998" y2="940.92999" stroke="#e2001a" stroke-miterlimit="10" id="line11047"/>
      <path d="m 137.35,1017.7 0.1463,23.066 -31.047,-38.639 120.98,-0.3691 -0.0927,-32.253" stroke="#d4aa00" id="path11049"/>
      <path d="m 136.79,1014.1 0.1463,23.066 -31.047,-38.639 120.98,-0.36907 -0.0927,-32.253" stroke="#d4aa00" id="path11051"/>
    </g>
    <g stroke="#e2001a" stroke-linecap="round" stroke-linejoin="round" stroke-miterlimit="10" stroke-width="1.4324" id="g11063">
      <line x1="136.78" x2="136.85001" y1="1015.7" y2="984.35999" id="line11057"/>
      <line x1="137.53999" x2="137.61" y1="1019.3" y2="987.97998" id="line11059"/>
      <line x1="138.00999" x2="138.09" y1="1024.6" y2="993.21997" id="line11061"/>
    </g>
  </g>
  <g transform="translate(93.521,248.85)" id="g11075">
    <ellipse cx="-44.919998" cy="-98.797997" rx="13.199" ry="13.469" fill="#1f638a" stroke-linecap="round" stroke-linejoin="round" stroke-width="1.0658" id="ellipse11069"/>
    <text x="-50.761276" y="-91.125885" fill="#000000" font-family="'Arial Nova', 'Arial Unicode MS', 'Yu Gothic UI', sans-serif" font-size="12.8px" letter-spacing="0px" stroke-width="1.0667" word-spacing="0px" style="line-height:0%" xml:space="preserve" id="text11073"><tspan x="-50.761276" y="-91.125885" fill="#ffffff" font-family="'Arial Nova', 'Arial Unicode MS', 'Yu Gothic UI', sans-serif" font-size="21.333px" stroke="#ffffff" stroke-width="1.0667" style="line-height:1.25" id="tspan11071">1</tspan></text>
  </g>
  <g transform="translate(292,297.55)" id="g11083">
    <ellipse cx="-13.718" cy="-98.797997" rx="13.199" ry="13.469" fill="#1f638a" stroke-linecap="round" stroke-linejoin="round" stroke-width="1.0658" id="ellipse11077"/>
    <text x="-19.559933" y="-91.125885" fill="#000000" font-family="'Arial Nova', 'Arial Unicode MS', 'Yu Gothic UI', sans-serif" font-size="12.8px" letter-spacing="0px" stroke-width="1.0667" word-spacing="0px" style="line-height:0%" xml:space="preserve" id="text11081"><tspan x="-19.559933" y="-91.125885" fill="#ffffff" font-family="'Arial Nova', 'Arial Unicode MS', 'Yu Gothic UI', sans-serif" font-size="21.333px" stroke="#ffffff" stroke-width="1.0667" style="line-height:1.25" id="tspan11079">2</tspan></text>
  </g>
  <g transform="translate(447.92,308.25)" id="g11091">
    <ellipse cx="17.483" cy="-98.797997" rx="13.199" ry="13.469" fill="#1f638a" stroke-linecap="round" stroke-linejoin="round" stroke-width="1.0658" id="ellipse11085"/>
    <text x="11.641406" y="-91.256096" fill="#000000" font-family="'Arial Nova', 'Arial Unicode MS', 'Yu Gothic UI', sans-serif" font-size="12.8px" letter-spacing="0px" stroke-width="1.0667" word-spacing="0px" style="line-height:0%" xml:space="preserve" id="text11089"><tspan x="11.641406" y="-91.256096" fill="#ffffff" font-family="'Arial Nova', 'Arial Unicode MS', 'Yu Gothic UI', sans-serif" font-size="21.333px" stroke="#ffffff" stroke-width="1.0667" style="line-height:1.25" id="tspan11087">3</tspan></text>
  </g>
  <path d="m 175.65704,152.28745 c -9.30121,6.58873 -22.21356,4.34967 -28.83842,-5.00253 -6.62386,-9.3508 -4.45256,-22.27472 4.84865,-28.86346 9.30262,-6.58974 22.20932,-4.34666 28.83317,5.00414 6.62486,9.3522 4.45923,22.27211 -4.8434,28.86185 z" id="path8822-4" style="fill:none;stroke:#4d4d4d;stroke-width:1.04979;stroke-linecap:round;stroke-linejoin:round;stroke-miterlimit:10;stroke-dasharray:none;stroke-opacity:1"/>
</svg>
