<?xml version="1.0" encoding="UTF-8"?>
<svg xmlns="http://www.w3.org/2000/svg" xmlns:xlink="http://www.w3.org/1999/xlink" width="107.95mm" height="110mm" version="1.1" viewBox="0 0 107.95 110" xml:space="preserve"><defs><linearGradient id="linearGradient15"><stop stop-color="#a8a906" offset="0"/><stop stop-color="#fbfb00" offset=".34212"/><stop stop-color="#fbfb00" offset=".51665"/><stop stop-color="#fbfb00" offset=".70287"/><stop stop-color="#a8a906" offset="1"/></linearGradient><linearGradient id="linearGradient47" x1="3.5519" x2="3.9844" y1="22.217" y2="22.399" gradientTransform="matrix(3.9094 0 0 3.9094 -9.2726 .29024)" gradientUnits="userSpaceOnUse" xlink:href="#linearGradient85"/><linearGradient id="linearGradient85"><stop stop-color="#178916" offset="0"/><stop stop-color="#00fa00" stop-opacity=".99538" offset=".5"/><stop stop-color="#179416" offset="1"/></linearGradient><linearGradient id="linearGradient86" x1="208.14" x2="211.78" y1="-557.11" y2="-555.59" gradientTransform="translate(-6.7404,-4.1163)" gradientUnits="userSpaceOnUse" xlink:href="#linearGradient85"/><linearGradient id="linearGradient89" x1="201.51" x2="205.3" y1="-561.62" y2="-560.11" gradientTransform="matrix(.9782 -.0090406 .0090406 .9782 9.48 -10.445)" gradientUnits="userSpaceOnUse" xlink:href="#linearGradient85"/><linearGradient id="linearGradient93" x1="133.64" x2="137.64" y1="-553.6" y2="-553.6" gradientTransform="translate(15.081,-10.451)" gradientUnits="userSpaceOnUse" xlink:href="#linearGradient92"/><linearGradient id="linearGradient92"><stop stop-color="#00009d" offset="0"/><stop stop-color="#0000ff" offset=".5"/><stop stop-color="#00009d" offset="1"/></linearGradient><linearGradient id="linearGradient97" x1="133.81" x2="137.48" y1="-572.73" y2="-572.73" gradientTransform="matrix(1.0906,0,0,1.0906,2.7855,41.373)" gradientUnits="userSpaceOnUse" xlink:href="#linearGradient92"/><linearGradient id="linearGradient99" x1="191.59" x2="191.59" y1="-553.74" y2="-549.73" gradientUnits="userSpaceOnUse" xlink:href="#linearGradient98"/><linearGradient id="linearGradient98"><stop stop-color="#9e0000" offset="0"/><stop stop-color="#ff0000" offset=".5"/><stop stop-color="#6a0000" offset="1"/></linearGradient><linearGradient id="linearGradient100" x1="133.81" x2="137.48" y1="-572.73" y2="-572.73" gradientTransform="matrix(0,1.0906,-1.0906,0,-403.45,-699.76)" gradientUnits="userSpaceOnUse" xlink:href="#linearGradient98"/><radialGradient id="radialGradient102" cx="142.14" cy="-544.85" r="1.1693" gradientTransform="matrix(1.1456,0,0,1.1456,-157.01,711.31)" gradientUnits="userSpaceOnUse"><stop stop-color="#ffffff" offset="0"/><stop stop-color="#aeaead" offset="1"/></radialGradient><linearGradient id="linearGradient34" x1="23.266" x2="49.171" y1="30.09" y2="29.996" gradientUnits="userSpaceOnUse" xlink:href="#linearGradient15"/><linearGradient id="linearGradient9" x1="23.266" x2="49.171" y1="30.09" y2="29.996" gradientTransform="rotate(89.832,39.824,69.126)" gradientUnits="userSpaceOnUse" xlink:href="#linearGradient15"/><linearGradient id="linearGradient14" x1="23.266" x2="49.171" y1="30.09" y2="29.996" gradientTransform="translate(33.355,126.3)" gradientUnits="userSpaceOnUse" xlink:href="#linearGradient15"/><linearGradient id="linearGradient37" x1="23.266" x2="49.171" y1="30.09" y2="29.996" gradientTransform="rotate(89.832,67.79,72.436)" gradientUnits="userSpaceOnUse" xlink:href="#linearGradient15"/><linearGradient id="linearGradient44" x1="23.266" x2="49.171" y1="30.09" y2="29.996" gradientTransform="translate(0,6.8792)" gradientUnits="userSpaceOnUse" xlink:href="#linearGradient15"/></defs><g transform="rotate(-.014229 103454 582899)"><g transform="translate(118.7,-127.51)"><path d="m29.576 136.11v72.74h71.19v-13.249l-6.1786-13.002-17.21 9.8179c-10.041 5.3438-22.521 1.729-28.173-8.141-5.6195-9.8891-2.3949-22.499 7.3153-28.422l17.342-9.1564-5.7921-10.588z" fill="#9bd9ff" fill-rule="evenodd" stroke="#343434" stroke-linecap="round" stroke-linejoin="round" stroke-width=".15"/></g></g><g transform="rotate(71.832 33.987 55.122)" stroke="#000000" stroke-linecap="round" stroke-linejoin="round"><path d="m28.302 15.296v21.496h1e-3a8.473 8.473 0 0 0 8.4724 8.4651 8.473 8.473 0 0 0 8.4724-8.4651h0.0098v-21.496z" fill="url(#linearGradient34)" fill-rule="evenodd" stroke-width=".157"/><path d="m36.779-7.4983 5.87e-4 56.909" fill="none" stroke-dasharray="1.2, 0.6, 0.3, 0.6" stroke-miterlimit="6.8028" stroke-width=".3"/></g><path d="m67.631 74.656-2.9667 0.12786-16.739 9.9055c-6.3358 3.7492-14.511 1.6523-18.261-4.6835-3.7492-6.3358-2.0492-14.908 4.2866-18.657l18.333-10.849 2.1477-2.5149" fill="none" stroke="#ffc90e" stroke-linecap="round" stroke-linejoin="round" stroke-width="1.2"/><g display="none"><path d="m14.683 30.082v58.216h69.641v-58.216l-13.785 0.0031v19.814c-0.33345 11.369-9.6573 20.418-21.031 20.438-11.374-0.01899-20.729-9.0682-21.063-20.438v-19.814z" display="inline" fill="#9bd9ff" fill-rule="evenodd" stroke="#343434" stroke-linecap="round" stroke-linejoin="round" stroke-width=".15"/><g stroke="#000000" stroke-linecap="round" stroke-linejoin="round"><g transform="translate(.37417 -5.9868)" display="inline"><path d="m28.302 15.296v21.496h1e-3a8.473 8.473 0 0 0 8.4724 8.4651 8.473 8.473 0 0 0 8.4724-8.4651h0.0098v-21.496z" fill="url(#linearGradient34)" fill-rule="evenodd" stroke-width=".157"/><path d="m36.78 11.338v38.073" fill="none" stroke-dasharray="1.2, 0.6, 0.3, 0.6" stroke-miterlimit="6.8028" stroke-width=".3"/></g><g display="inline" fill="#b000b0" fill-rule="evenodd" stroke-width=".1"><circle cx="49.506" cy="70.466" r="2.6321"/><circle cx="49.529" cy="11.75" r="2.6321"/></g><g display="inline" fill="#afffaf" fill-rule="evenodd" stroke-width=".1"><circle cx="28.495" cy="30.138" r="2.6321"/><circle cx="70.535" cy="30.101" r="2.6321"/></g></g><path d="m49.503 13.203v56.897" display="inline" fill="none" stroke="#b000b0" stroke-dasharray="2.4, 1.2, 0.6, 1.2" stroke-linecap="round" stroke-linejoin="round" stroke-width=".6"/><g transform="translate(25.168,-5.88)" display="inline" opacity=".50462" stroke="#000000" stroke-linecap="round" stroke-linejoin="round"><path d="m28.302 15.296v21.496h1e-3a8.473 8.473 0 0 0 8.4724 8.4651 8.473 8.473 0 0 0 8.4724-8.4651h0.0098v-21.496z" fill="url(#linearGradient34)" fill-rule="evenodd" opacity="1" stroke-width=".157"/><path d="m36.78 11.338v38.073" fill="none" stroke-dasharray="1.2, 0.6, 0.3, 0.6" stroke-miterlimit="6.8028" stroke-width=".3"/></g><g transform="translate(13.018,18.383)" display="inline" opacity=".50462"><path d="m28.302 22.175v21.496h1e-3a8.473 8.473 0 0 0 8.4724 8.4651 8.473 8.473 0 0 0 8.4724-8.4651h0.0098v-21.496z" fill="url(#linearGradient44)" fill-rule="evenodd" opacity="1" stroke="#000000" stroke-linecap="round" stroke-linejoin="round" stroke-width=".157"/></g><path d="m37.165 28.623v21.328c0 7.3706 5.5549 13.346 12.407 13.346 6.8523 1e-6 12.407-5.9751 12.407-13.346v-19.473l1.3038-2.6214" display="inline" fill="none" stroke="#ffc90e" stroke-linecap="round" stroke-linejoin="round" stroke-width="1.1584"/></g><g display="none"><g stroke-linecap="round" stroke-linejoin="round"><g><path d="m72.85 18.662-58.215 0.17102 0.20458 69.64 58.215-0.17102-0.0435-13.785-19.814 0.05821c-11.37-0.30005-20.447-9.5973-20.499-20.971-0.01441-11.374 9.0072-20.756 20.376-21.123l19.814-0.05821z" fill="#9bd9ff" fill-rule="evenodd" stroke="#343434" stroke-width=".15"/><path d="m93.62 57.447-21.496 0.06315 3e-6 1e-3a8.473 8.473 0 0 0-8.4402 8.4972 8.473 8.473 0 0 0 8.49 8.4474l2.9e-5 0.0098 21.496-0.06315z" fill="url(#linearGradient9)" fill-rule="evenodd" opacity=".5" stroke="#000000" stroke-width=".157"/><path d="m97.743 66.306-38.073 0.11184" fill="none" opacity=".49908" stroke="#000000" stroke-dasharray="1.2, 0.6, 0.3, 0.6" stroke-miterlimit="6.8028" stroke-width=".3"/></g><g transform="rotate(89.832,49.493,53.541)" display="inline" fill="#b000b0" fill-rule="evenodd" stroke="#000000" stroke-width=".1"><circle cx="49.506" cy="70.466" r="2.6321"/><circle cx="49.529" cy="11.75" r="2.6321"/></g><path d="m90.571 53.758-57.104-1e-6" display="inline" fill="none" stroke="#b000b0" stroke-dasharray="2.4, 1.2, 0.6, 1.2" stroke-width=".6"/><g transform="translate(-31.029 -.18141)" stroke="#000000"><path d="m124.81 32.781-21.496 0.06315 1e-5 1e-3a8.473 8.473 0 0 0-8.4402 8.4972 8.473 8.473 0 0 0 8.49 8.4474l2e-5 0.0098 21.496-0.06315z" fill="url(#linearGradient37)" fill-rule="evenodd" stroke-width=".157"/><path d="m128.8 41.247-38.073 0.11184" display="inline" fill="none" stroke-dasharray="1.2, 0.6, 0.3, 0.6" stroke-miterlimit="6.8028" stroke-width=".3"/></g></g><g transform="rotate(89.832,113.54,97.219)"><path d="m61.658 141.6v21.496h1e-3a8.473 8.473 0 0 0 8.4724 8.4651 8.473 8.473 0 0 0 8.4724-8.4651h0.0098v-21.496z" fill="url(#linearGradient14)" fill-rule="evenodd" opacity=".5" stroke="#000000" stroke-linecap="round" stroke-linejoin="round" stroke-width=".157"/></g><path d="m74.185 41.143-21.324 0.05894c-7.3693 0.02035-13.326 5.6543-13.304 12.584 0.02121 6.9294 6.0132 12.53 13.382 12.51l19.47-0.0538 2.625 1.3112" display="inline" fill="none" stroke="#ffc90e" stroke-linecap="round" stroke-linejoin="round" stroke-width="1.1648"/><g transform="rotate(89.832,49.493,53.541)" display="inline" fill="#afffaf" fill-rule="evenodd" stroke="#000000" stroke-linecap="round" stroke-linejoin="round" stroke-width=".1"><circle cx="28.495" cy="30.138" r="2.6321"/><circle cx="70.535" cy="30.101" r="2.6321"/></g></g><g transform="matrix(.59491 0 0 .59491 11.211 36.472)" display="none"><circle transform="rotate(-.074104)" cx="5.7447" cy="87.181" r="1.0287" display="inline" fill="url(#linearGradient47)" fill-rule="evenodd"/><g opacity=".3549"><g transform="matrix(3.9094,0,0,3.9094,-9.3636,-1.8005)" display="inline"><text x="4.2237744" y="20.398605" fill="#00ff00" font-family="'Arial Nova'" font-size="2.6069px" letter-spacing="0px" stroke="#00ff00" stroke-width=".144" word-spacing="0px" style="line-height:125%" xml:space="preserve"><tspan x="4.2237744" y="20.398605" fill="#00ff00" font-size="2.6069px" stroke="#00ff00" stroke-width=".144">Y</tspan></text></g><g transform="matrix(.51168 -.00066179 .00066179 .51168 -94.147 364.85)" fill-rule="evenodd"><path d="m196.85-544.24 5.8782-15.085" fill="#03fe00" stroke="url(#linearGradient86)" stroke-linecap="square" stroke-width="4"/><path d="m201.59-561.91 3.7309 1.4458-0.3577-4.5576z" fill="url(#linearGradient89)"/></g></g><g transform="matrix(.51168 -.00066179 .00066179 .51168 -70.892 365.73)" display="inline"><path d="m150.72-548.89v-30.308" fill="none" stroke="url(#linearGradient93)" stroke-linecap="square" stroke-width="4"/><path d="m148.72-581.2h4.0056l-1.9635-4.1234z" fill="url(#linearGradient97)" fill-rule="evenodd"/><ellipse cx="150.72" cy="-546.87" rx="2.0054" ry=".66845" fill="#0000fb" fill-rule="evenodd"/></g><g transform="matrix(.51168 -.00066179 .00066179 .51168 -70.962 365.7)" opacity=".355"><g transform="translate(-37.306,7.6729)"><path d="m190.83-551.72 28.299-0.10834" fill="none" stroke="url(#linearGradient99)" stroke-width="4"/><path d="m219.12-553.83v4.0056l4.1234-1.9635z" display="inline" fill="url(#linearGradient100)" fill-rule="evenodd"/></g><ellipse transform="rotate(90)" cx="-544.06" cy="-153.52" rx="2.0054" ry=".66845" display="inline" fill="#fb0000" fill-rule="evenodd"/></g><g><circle transform="rotate(-.074104)" cx="5.825" cy="87.12" r="1.3396" display="inline" fill="url(#radialGradient102)" fill-rule="evenodd" opacity=".91312" stroke="#636563" stroke-linecap="square" stroke-width=".01535"/><text x="25.947704" y="87.704735" display="inline" fill="#fd0101" font-family="'Arial Nova'" font-size="10.191px" letter-spacing="0px" opacity=".355" stroke="#ff0000" stroke-width=".56295" word-spacing="0px" style="line-height:125%" xml:space="preserve"><tspan x="25.947704" y="87.704735" fill="#fd0101" font-size="10.191px" stroke="#ff0000" stroke-width=".56295">X</tspan></text><text x="3.2509489" y="63.493774" display="inline" fill="none" font-family="'Arial Nova'" font-size="10.191px" letter-spacing="0px" stroke="#000000" stroke-width=".56295" word-spacing="0px" style="line-height:125%" xml:space="preserve"><tspan x="3.2509489" y="63.493774" fill="#0000ff" font-size="10.191px" stroke="#0000ff" stroke-width=".56295">Z</tspan></text></g></g><g stroke="#000000" stroke-linecap="round" stroke-linejoin="round" stroke-width=".26458"><path d="m48.234 22.301 0.0718 30.59" fill="#800080"/><path d="m48.254 13.619 2.0815 8.6162h-4.163c2.0646-8.5852 2.0815-8.6162 2.0815-8.6162z" fill="#ffffff"/><path d="m61.921 52.857-13.524-0.058057" fill="#800080"/><path d="m66.757 52.866-8.6195 2.0678 0.0067-4.163z" fill="#ffffff"/></g><g transform="matrix(.60044 0 0 .60044 -110.39 166.39)"><ellipse transform="matrix(.9071 0 0 .90186 24.872 -1.1139)" cx="263.88" cy="-208.61" rx="3.8007" ry="3.8228" color="#000000" fill="#ffffff" stroke="#000000" stroke-linecap="round" stroke-linejoin="round" stroke-width=".48719"/><ellipse transform="matrix(.81605 0 0 .73445 48.612 -50.299)" cx="264.23" cy="-189.2" rx=".4342" ry=".48244" color="#000000" fill="#000000"/></g><g stroke="#000000"><path d="m50.103 7.416-2.6957 3.4963h2.7739v0.54415h-3.4963v-0.56917l2.6832-3.4713h-2.4862v-0.54415h3.2211z" stroke-width=".64049" aria-label="Z"/><path d="m70.047 49.257q0.24393 0.36277 0.39091 0.63484 0.14073-0.25957 0.39404-0.6192l0.79746-1.129h0.67237l-1.5386 2.1516 1.6669 2.433h-0.73179l-1.0445-1.548q-0.08444-0.11884-0.16262-0.24706-0.07506-0.13135-0.09695-0.17826-0.16887 0.30022-0.25018 0.40968l-1.1164 1.5636h-0.67237l1.7044-2.3893-1.498-2.1954h0.72866z" stroke-width=".64049" aria-label="X"/><g stroke-linecap="round" stroke-linejoin="round"><path d="m40.598 29.533c4.3103-2.6661 9.3916-4.205 14.832-4.205 14.726 1e-6 26.819 11.274 28.119 25.662" fill="none" stroke-width=".19949"/><path d="m47.991 26.331-3.5726 0.05028 0.77853 2.2305z" fill="#000000" stroke-width=".28737"/><path d="m81.529 42.786-2e-3 3.5729 2.2416-0.74582z" fill="#000000" stroke-width=".28737"/></g></g></svg>
