<?xml version="1.0" encoding="UTF-8" standalone="no"?>
<!-- Created with Inkscape (http://www.inkscape.org/) -->

<svg
   xmlns:dc="http://purl.org/dc/elements/1.1/"
   xmlns:cc="http://creativecommons.org/ns#"
   xmlns:rdf="http://www.w3.org/1999/02/22-rdf-syntax-ns#"
   xmlns:svg="http://www.w3.org/2000/svg"
   xmlns="http://www.w3.org/2000/svg"
   xmlns:sodipodi="http://sodipodi.sourceforge.net/DTD/sodipodi-0.dtd"
   xmlns:inkscape="http://www.inkscape.org/namespaces/inkscape"
   id="svg2"
   version="1.1"
   inkscape:version="0.48.5 r10040"
   width="491.33999"
   height="245.66999"
   xml:space="preserve"
   sodipodi:docname="2D_konturfraesen_3DModell_auto_makro.svg"><metadata
     id="metadata8"><rdf:RDF><cc:Work
         rdf:about=""><dc:format>image/svg+xml</dc:format><dc:type
           rdf:resource="http://purl.org/dc/dcmitype/StillImage" /><dc:title></dc:title></cc:Work></rdf:RDF></metadata><defs
     id="defs6"><linearGradient
       x1="157.60001"
       y1="96.252998"
       x2="415.67001"
       y2="96.698997"
       gradientUnits="userSpaceOnUse"
       gradientTransform="matrix(1.024615,0,0,-1.024615,37.998525,191.88903)"
       spreadMethod="pad"
       id="linearGradient18"><stop
         style="stop-opacity:1;stop-color:#ffffff"
         offset="0"
         id="stop20" /><stop
         style="stop-opacity:1;stop-color:#00385e"
         offset="1"
         id="stop22" /></linearGradient><linearGradient
       x1="298.85001"
       y1="100.56"
       x2="200.71001"
       y2="101.01"
       gradientUnits="userSpaceOnUse"
       gradientTransform="matrix(1.024615,0,0,-1.024615,37.998525,191.88903)"
       spreadMethod="pad"
       id="linearGradient30"><stop
         style="stop-opacity:1;stop-color:#ffffff"
         offset="0"
         id="stop32" /><stop
         style="stop-opacity:1;stop-color:#00385e"
         offset="1"
         id="stop34" /></linearGradient><linearGradient
       x1="203.49"
       y1="86.864998"
       x2="290.70999"
       y2="86.864998"
       gradientUnits="userSpaceOnUse"
       gradientTransform="matrix(1.024615,0,0,-1.024615,37.998525,191.88903)"
       spreadMethod="pad"
       id="linearGradient42"><stop
         style="stop-opacity:1;stop-color:#13385e"
         offset="0"
         id="stop44" /><stop
         style="stop-opacity:1;stop-color:#d2dadd"
         offset="1"
         id="stop46" /></linearGradient><linearGradient
       x1="10.594"
       y1="55.446999"
       x2="263.31"
       y2="57.231998"
       gradientUnits="userSpaceOnUse"
       gradientTransform="matrix(1.024615,0,0,-1.024615,-7.376315,150.0788)"
       spreadMethod="pad"
       id="linearGradient70"><stop
         style="stop-opacity:1;stop-color:#ffffff"
         offset="0"
         id="stop72" /><stop
         style="stop-opacity:1;stop-color:#00385e"
         offset="1"
         id="stop74" /></linearGradient><linearGradient
       x1="56.889488"
       y1="93.843819"
       x2="281.71991"
       y2="95.972557"
       gradientUnits="userSpaceOnUse"
       gradientTransform="matrix(1.024615,0,0,-1.024615,-7.376315,150.0788)"
       spreadMethod="pad"
       id="linearGradient82"><stop
         style="stop-opacity:1;stop-color:#ffffff"
         offset="0"
         id="stop84" /><stop
         style="stop-opacity:1;stop-color:#00385e"
         offset="1"
         id="stop86" /></linearGradient><linearGradient
       x1="10.594"
       y1="91.811996"
       x2="165"
       y2="91.811996"
       gradientUnits="userSpaceOnUse"
       gradientTransform="matrix(1.024615,0,0,-1.024615,-7.376315,150.0788)"
       spreadMethod="pad"
       id="linearGradient94"><stop
         style="stop-opacity:1;stop-color:#ffffff"
         offset="0"
         id="stop96" /><stop
         style="stop-opacity:1;stop-color:#00385e"
         offset="1"
         id="stop98" /></linearGradient><linearGradient
       x1="221.95"
       y1="922.16998"
       x2="58.155998"
       y2="920.03003"
       gradientUnits="userSpaceOnUse"
       gradientTransform="matrix(0.640054,0,0,-0.640054,-12.821186,674.66278)"
       spreadMethod="pad"
       id="linearGradient106"><stop
         style="stop-opacity:1;stop-color:#ffffff"
         offset="0"
         id="stop108" /><stop
         style="stop-opacity:1;stop-color:#00385e"
         offset="1"
         id="stop110" /></linearGradient><linearGradient
       x1="32.615002"
       y1="53.945"
       x2="133.07001"
       y2="53.945"
       gradientUnits="userSpaceOnUse"
       gradientTransform="matrix(1.024615,0,0,-1.024615,-7.376316,150.0788)"
       spreadMethod="pad"
       id="linearGradient118"><stop
         style="stop-opacity:1;stop-color:#13385e"
         offset="0"
         id="stop120" /><stop
         style="stop-opacity:1;stop-color:#d2dadd"
         offset="1"
         id="stop122" /></linearGradient><linearGradient
       x1="28.728861"
       y1="1104.0596"
       x2="41.885342"
       y2="669.46735"
       gradientUnits="userSpaceOnUse"
       gradientTransform="matrix(0,-0.618048,-0.303995,0,514.24655,102.66888)"
       spreadMethod="pad"
       id="linearGradient162"><stop
         style="stop-opacity:1;stop-color:#ffffff"
         offset="0"
         id="stop164" /><stop
         style="stop-opacity:1;stop-color:#00385e"
         offset="1"
         id="stop166" /></linearGradient><linearGradient
       x1="141.29646"
       y1="672.51306"
       x2="33.298843"
       y2="1167.7406"
       gradientUnits="userSpaceOnUse"
       gradientTransform="matrix(0,-0.618048,0.303995,0,71.589979,102.26145)"
       spreadMethod="pad"
       id="linearGradient174"><stop
         style="stop-opacity:1;stop-color:#ffffff"
         offset="0"
         id="stop176" /><stop
         style="stop-opacity:1;stop-color:#00385e"
         offset="1"
         id="stop178" /></linearGradient></defs><sodipodi:namedview
     pagecolor="#ffffff"
     bordercolor="#666666"
     borderopacity="1"
     objecttolerance="10"
     gridtolerance="10"
     guidetolerance="10"
     inkscape:pageopacity="0"
     inkscape:pageshadow="2"
     inkscape:window-width="1920"
     inkscape:window-height="1027"
     id="namedview4"
     showgrid="false"
     inkscape:zoom="1.6548496"
     inkscape:cx="341.78274"
     inkscape:cy="48.148208"
     inkscape:window-x="1912"
     inkscape:window-y="-8"
     inkscape:window-maximized="1"
     inkscape:current-layer="g10" /><g
     id="g10"
     inkscape:groupmode="layer"
     inkscape:label="2D_konturfraesen_3DModell_auto_makro"
     transform="matrix(1.25,0,0,-1.25,0,245.66999)"><g
       id="g12"><g
         id="g14"><g
           id="g16"
           transform="matrix(1,0,0,-1,0,196.53599)"><path
             d="m 199.684,96.875 93.125,52.633 87.226,-49.68 -89.437,-42.797 -90.914,39.844 z"
             style="fill:url(#linearGradient18);fill-opacity:1;fill-rule:evenodd;stroke:#4d4d4d;stroke-opacity:1;stroke-width:0.541242;stroke-linecap:round;stroke-linejoin:round;stroke-miterlimit:4;stroke-dasharray:none"
             id="path24" /></g></g><g
         id="g26"><g
           id="g28"
           transform="matrix(1,0,0,-1,0,196.53599)"><path
             d="m 335.859,104.023 c 0,14.356 -20.007,25.993 -44.687,25.993 -24.68,0 -44.684,-11.637 -44.684,-25.993 0,-14.351 20.004,-25.988 44.684,-25.988 24.68,0 44.687,11.637 44.687,25.988 z"
             style="fill:url(#linearGradient30);fill-opacity:1;fill-rule:evenodd;stroke:#4d4d4d;stroke-opacity:1;stroke-width:0.341514;stroke-linecap:butt;stroke-linejoin:miter;stroke-miterlimit:4;stroke-dasharray:none"
             id="path36" /></g></g><g
         id="g38"><g
           id="g40"
           transform="matrix(1,0,0,-1,0,196.53599)"><path
             d="m 334.953,109.262 c 0.594,-1.692 0.906,-3.442 0.906,-5.239 0,-14.351 -20.004,-25.988 -44.683,-25.988 -24.68,0 -44.688,11.637 -44.688,25.988 0,1.457 0.207,2.883 0.602,4.278 l 0.289,0.531 c 4.594,-11.512 22.609,-20.766 43.797,-20.766 21.383,0 39.258,8.739 43.648,20.407 l 0.129,0.789 z"
             style="fill:url(#linearGradient42);fill-opacity:1;fill-rule:evenodd;stroke:#4d4d4d;stroke-opacity:1;stroke-width:0.341514;stroke-linecap:butt;stroke-linejoin:miter;stroke-miterlimit:4;stroke-dasharray:none"
             id="path48" /></g></g><g
         id="g50"
         transform="matrix(1,0,0,-1,0,196.53599)"><path
           d="m 307.285,63.926 0,49.496"
           style="fill:none;stroke:#e2001a;stroke-opacity:1;stroke-width:2.721265;stroke-linecap:round;stroke-linejoin:round;stroke-miterlimit:4;stroke-dasharray:none"
           id="path52" /></g><g
         id="g54"
         transform="matrix(1,0,0,-1,0,196.53599)"><path
           d="m 327.691,111.25 c 0,-8.516 -15.699,-15.414 -35.062,-15.414 -19.363,0 -35.063,6.898 -35.063,15.414 0,8.512 15.7,15.414 35.063,15.414 19.363,0 35.062,-6.902 35.062,-15.414"
           style="fill:none;stroke:#ffdd00;stroke-opacity:1;stroke-width:2.721265;stroke-linecap:butt;stroke-linejoin:miter;stroke-miterlimit:4;stroke-dasharray:none"
           id="path56" /></g><g
         id="g58"
         transform="matrix(1,0,0,-1,0,196.53599)"><path
           d="m 307.285,113.422 c 2.317,13.762 19.078,7.848 14.762,-5.211"
           style="fill:none;stroke:#ffdd00;stroke-opacity:1;stroke-width:2.732126;stroke-linecap:butt;stroke-linejoin:miter;stroke-miterlimit:4;stroke-dasharray:none"
           id="path60" /></g><g
         id="g62"
         transform="matrix(1,0,0,-1,0,196.53599)"><path
           d="m 322.051,108.211 0,-49.063"
           style="fill:none;stroke:#e2001a;stroke-opacity:1;stroke-width:2.732126;stroke-linecap:butt;stroke-linejoin:miter;stroke-miterlimit:4;stroke-dasharray:none"
           id="path64" /></g><g
         id="g66"><g
           id="g68"
           transform="matrix(1,0,0,-1,0,196.53599)"><path
             d="M 96.563,149.504 184.043,99.828 94.598,57.031 3.68,96.875 96.563,149.504 z"
             style="fill:url(#linearGradient70);fill-opacity:1;fill-rule:nonzero;stroke:#4d4d4d;stroke-opacity:1;stroke-width:0.541242;stroke-linecap:round;stroke-linejoin:round;stroke-miterlimit:4;stroke-dasharray:none"
             id="path76" /></g></g><g
         id="g78"><g
           id="g80"
           transform="matrix(1,0,0,-1,0,196.53599)"><path
             d="m 96.563,149.504 0,34.93 87.48,-50.914 0,-33.692 -87.48,49.676 z"
             style="fill:url(#linearGradient82);fill-opacity:1;fill-rule:nonzero;stroke:#4d4d4d;stroke-opacity:1;stroke-width:0.54124200000000000;stroke-linecap:round;stroke-linejoin:round;stroke-miterlimit:4;stroke-dasharray:none"
             id="path88" /></g></g><g
         id="g90"><g
           id="g92"
           transform="matrix(1,0,0,-1,0,196.53599)"><path
             d="m 3.68,96.875 0,34.43 92.883,52.883 0,-34.684 L 3.68,96.875 z"
             style="fill:url(#linearGradient94);fill-opacity:1;fill-rule:nonzero;stroke:#4d4d4d;stroke-opacity:1;stroke-width:0.541242;stroke-linecap:round;stroke-linejoin:round;stroke-miterlimit:4;stroke-dasharray:none"
             id="path100" /></g></g><g
         id="g102"><g
           id="g104"
           transform="matrix(1,0,0,-1,0,196.53599)"><path
             d="m 26.039,109.91 0.027,13.887 40.442,23.207 0.074,-14.223 60.203,-30.004 c 6.418,-7.39 -2.762,-15.297 -9.09,-18.445 -9.593,-4.766 -22.382,-6.25 -32.191,-1.473 L 26.043,109.91"
             style="fill:url(#linearGradient106);fill-opacity:1;fill-rule:evenodd;stroke:#4d4d4d;stroke-opacity:1;stroke-width:0.341514;stroke-linecap:butt;stroke-linejoin:miter;stroke-miterlimit:4;stroke-dasharray:none"
             id="path112" /></g></g><g
         id="g114"><g
           id="g116"
           transform="matrix(1,0,0,-1,0,196.53599)"><path
             d="M 26.039,109.91 85.504,82.859 c 9.805,-4.777 22.594,-3.293 32.187,1.473 6.329,3.148 15.508,11.055 9.09,18.445 l -1.383,0.692 -0.289,-0.168 c -2.222,-2.301 -5.062,-4.203 -7.484,-5.406 -9.59,-4.766 -22.379,-6.25 -32.187,-1.473 L 26.07,123.531 26.066,122.93 26.039,109.91"
             style="fill:url(#linearGradient118);fill-opacity:1;fill-rule:evenodd;stroke:#4d4d4d;stroke-opacity:1;stroke-width:0.341514;stroke-linecap:butt;stroke-linejoin:miter;stroke-miterlimit:4;stroke-dasharray:none"
             id="path124" /></g></g><g
         id="g126"
         transform="matrix(1,0,0,-1,0,196.53599)"><path
           d="m 25.734,120.484 c 0.653,6.532 -2.613,11.973 7.403,6.965 L 95.625,98.711 c 6.09,-3.578 24.797,4.016 15.676,9.797 l -63.36,32.66 c -2.613,0.652 -3.793,-4.922 -3.265,-8.492"
           style="fill:none;stroke:#ffdd00;stroke-opacity:1;stroke-width:2.721265;stroke-linecap:butt;stroke-linejoin:miter;stroke-miterlimit:4;stroke-dasharray:none"
           id="path128" /></g><g
         id="g130"
         transform="matrix(1,0,0,-1,0,196.53599)"><path
           d="m 44.676,132.645 0,-56.36"
           style="fill:none;stroke:#e2001a;stroke-opacity:1;stroke-width:2.721265;stroke-linecap:round;stroke-linejoin:round;stroke-miterlimit:4;stroke-dasharray:none"
           id="path132" /></g><g
         id="g134"
         transform="matrix(1,0,0,-1,0,196.53599)"><path
           d="m 25.734,63.223 0,57.261"
           style="fill:none;stroke:#e2001a;stroke-opacity:1;stroke-width:2.721265;stroke-linecap:round;stroke-linejoin:round;stroke-miterlimit:4;stroke-dasharray:none"
           id="path136" /></g><path
         d="m 104.434,174.067 c 0,-5.949 -4.731,-10.773 -10.559,-10.773 -5.832,0 -10.562,4.824 -10.562,10.773 0,5.953 4.73,10.778 10.562,10.778 5.828,0 10.559,-4.825 10.559,-10.778 z"
         style="fill:#1f638a;fill-opacity:1;fill-rule:nonzero;stroke:none"
         id="path138" /><text
         transform="matrix(1,0,0,-1,89.200189,167.93149)"
         id="text140"><tspan
           style="fill:#ffffff;fill-opacity:1;fill-rule:nonzero;stroke:none;font-family:Arial;font-variant:normal;font-weight:normal;font-size:17.0664;writing-mode:lr;-inkscape-font-specification:ArialMT"
           x="0"
           y="0"
           id="tspan142">1</tspan></text>
<g
         id="g144"
         transform="matrix(1,0,0,-1,0,196.53599)"><path
           d="m 95.559,28.605 -1.5,0 0,-9.558 c -0.368,0.348 -0.84,0.691 -1.422,1.035 -0.59,0.348 -1.117,0.606 -1.578,0.773 l 0,-1.449 c 0.836,-0.394 1.57,-0.871 2.199,-1.433 0.625,-0.559 1.07,-1.102 1.332,-1.633 l 0.969,0 0,12.265 z"
           style="fill:none;stroke:#ffffff;stroke-opacity:1;stroke-width:0.85336;stroke-linecap:butt;stroke-linejoin:miter;stroke-miterlimit:4;stroke-dasharray:none"
           id="path146" /></g><path
         d="m 301.555,174.067 c 0,-5.949 -4.727,-10.773 -10.559,-10.773 -5.832,0 -10.558,4.824 -10.558,10.773 0,5.953 4.726,10.778 10.558,10.778 5.832,0 10.559,-4.825 10.559,-10.778 z"
         style="fill:#1f638a;fill-opacity:1;fill-rule:nonzero;stroke:none"
         id="path148" /><text
         transform="matrix(1,0,0,-1,286.32126,167.93149)"
         id="text150"><tspan
           style="fill:#ffffff;fill-opacity:1;fill-rule:nonzero;stroke:none;font-family:Arial;font-variant:normal;font-weight:normal;font-size:17.0664;writing-mode:lr;-inkscape-font-specification:ArialMT"
           x="0"
           y="0"
           id="tspan152">2</tspan></text>
<g
         id="g154"
         transform="matrix(1,0,0,-1,0,196.53599)"><path
           d="m 294.91,27.164 0,1.441 -8.074,0 c -0.012,-0.359 0.047,-0.707 0.176,-1.042 0.203,-0.547 0.531,-1.086 0.988,-1.622 0.449,-0.531 1.102,-1.148 1.961,-1.851 1.324,-1.086 2.223,-1.949 2.691,-2.586 0.465,-0.637 0.7,-1.238 0.703,-1.805 -0.003,-0.594 -0.218,-1.094 -0.64,-1.504 -0.43,-0.406 -0.981,-0.609 -1.66,-0.613 -0.727,0.004 -1.305,0.219 -1.735,0.648 -0.433,0.434 -0.656,1.036 -0.66,1.801 l -1.539,-0.16 c 0.102,-1.144 0.496,-2.019 1.188,-2.625 0.687,-0.601 1.613,-0.902 2.777,-0.906 1.168,0.004 2.098,0.328 2.781,0.976 0.684,0.653 1.024,1.457 1.028,2.414 -0.004,0.493 -0.102,0.973 -0.301,1.442 -0.199,0.473 -0.531,0.969 -0.996,1.492 -0.465,0.524 -1.239,1.242 -2.313,2.149 -0.902,0.757 -1.476,1.269 -1.73,1.539 -0.258,0.269 -0.469,0.539 -0.633,0.812 l 5.988,0 z"
           style="fill:none;stroke:#ffffff;stroke-opacity:1;stroke-width:0.85336;stroke-linecap:butt;stroke-linejoin:miter;stroke-miterlimit:4;stroke-dasharray:none"
           id="path156" /></g><g
         id="g158"><g
           id="g160"
           transform="matrix(1,0,0,-1,0,196.53599)"><path
             d="m 293.246,148.809 -0.426,35.265 -93.332,-53.031 0.082,-34.152 93.676,51.918 z"
             style="fill:url(#linearGradient162);fill-opacity:1;fill-rule:nonzero;stroke:#4d4d4d;stroke-opacity:1;stroke-width:0.541417;stroke-linecap:round;stroke-linejoin:round;stroke-miterlimit:4;stroke-dasharray:none"
             id="path168" /></g></g><g
         id="g170"><g
           id="g172"
           transform="matrix(1,0,0,-1,0,196.53599)"><path
             d="m 292.59,149.215 0.426,35.265 87.07,-50.39 L 380,99.938 292.59,149.215 z"
             style="fill:url(#linearGradient174);fill-opacity:1;fill-rule:nonzero;stroke:#4d4d4d;stroke-opacity:1;stroke-width:0.541417;stroke-linecap:round;stroke-linejoin:round;stroke-miterlimit:4;stroke-dasharray:none"
             id="path180" /></g></g></g></g></svg>