<?xml version="1.0" encoding="UTF-8"?>
<svg width="18cm" height="7cm" version="1.1" xmlns="http://www.w3.org/2000/svg" xmlns:cc="http://creativecommons.org/ns#" xmlns:dc="http://purl.org/dc/elements/1.1/" xmlns:rdf="http://www.w3.org/1999/02/22-rdf-syntax-ns#" xmlns:xlink="http://www.w3.org/1999/xlink">
 <title>Abbildung für OPEN MIND Softwaredokumentation</title>
 <defs>
  <pattern id="pattern35902" patternTransform="matrix(.070848 -.067645 12.15 12.725 -91.005 1123.9)" xlink:href="#pattern28286"/>
  <pattern id="pattern34791" patternTransform="matrix(.070848 -.067645 12.15 12.725 137.81 1124)" xlink:href="#pattern28286-8"/>
  <pattern id="pattern28286" patternTransform="matrix(.06642 -.063417 11.391 11.93 -85.317 1053.7)" xlink:href="#pattern6666"/>
  <pattern id="pattern6666" patternTransform="matrix(.047422 -.045278 8.1327 8.5178 -49.563 1006.3)" xlink:href="#pattern9529"/>
  <pattern id="pattern9529" patternTransform="matrix(.047422 -.045278 8.1327 8.5178 -49.563 1006.3)" xlink:href="#pattern9496"/>
  <pattern id="pattern9496" patternTransform="matrix(.047355 -.045348 8.1452 8.5058 396.14 -51.594)" xlink:href="#pattern9487"/>
  <pattern id="pattern9487" patternTransform="matrix(.056516 -.039102 6.9938 10.109 354.71 164.31)" xlink:href="#Strips1_64"/>
  <pattern id="Strips1_64" width="65" height="1" patternTransform="translate(0) scale(10)" patternUnits="userSpaceOnUse">
   <rect y="-.5" width="1" height="2"/>
  </pattern>
  <linearGradient id="linearGradient17780-7-9-9-6">
   <stop stop-color="#fff" offset="0"/>
   <stop stop-color="#00385e" offset="1"/>
  </linearGradient>
  <pattern id="pattern28286-8" patternTransform="matrix(.06642 -.063417 11.391 11.93 -85.317 1053.7)" xlink:href="#pattern6666-8"/>
  <pattern id="pattern6666-8" patternTransform="matrix(.047422 -.045278 8.1327 8.5178 -49.563 1006.3)" xlink:href="#pattern9529-84"/>
  <pattern id="pattern9529-84" patternTransform="matrix(.047422 -.045278 8.1327 8.5178 -49.563 1006.3)" xlink:href="#pattern9496-7"/>
  <pattern id="pattern9496-7" patternTransform="matrix(.047355 -.045348 8.1452 8.5058 396.14 -51.594)" xlink:href="#pattern9487-2"/>
  <pattern id="pattern9487-2" patternTransform="matrix(.056516 -.039102 6.9938 10.109 354.71 164.31)" xlink:href="#Strips1_64-1"/>
  <pattern id="Strips1_64-1" width="65" height="1" patternTransform="translate(0) scale(10)" patternUnits="userSpaceOnUse">
   <rect y="-.5" width="1" height="2"/>
  </pattern>
  <linearGradient id="linearGradient34776" x1="33.666" x2="33.943" y1="73.428" y2="-18.843" gradientTransform="matrix(2.7886 0 0 2.7886 200.24 900.91)" gradientUnits="userSpaceOnUse" xlink:href="#linearGradient17780-7-9-9-6"/>
  <linearGradient id="linearGradient34779" x1="140.33" x2="140.12" y1="1008" y2="830.71" gradientTransform="matrix(1.5174 0 0 .9874 208.92 110.01)" gradientUnits="userSpaceOnUse" xlink:href="#linearGradient17780-7-9-9-6"/>
  <linearGradient id="linearGradient34782" x1="73.108" x2="73.471" y1="73.128" y2="-20.227" gradientTransform="matrix(2.8212 0 0 1.8292 197.84 971.37)" gradientUnits="userSpaceOnUse" xlink:href="#linearGradient17780-7-9-9-6"/>
  <linearGradient id="linearGradient34785" x1="103.67" x2="105.19" y1="1006.7" y2="830.98" gradientTransform="matrix(1.494 0 0 1.494 212.16 -400.84)" gradientUnits="userSpaceOnUse" xlink:href="#linearGradient17780-7-9-9-6"/>
  <linearGradient id="linearGradient34788" x1="27.086" x2="26.953" y1="1006.2" y2="829.15" gradientTransform="matrix(1.4636 0 0 1.494 213.26 -400.84)" gradientUnits="userSpaceOnUse" xlink:href="#linearGradient17780-7-9-9-6"/>
  <linearGradient id="linearGradient34794" x1="24.288" x2="22.322" y1="918.57" y2="1189.3" gradientTransform="matrix(1.494 0 0 1.494 224.85 -442.93)" gradientUnits="userSpaceOnUse" xlink:href="#linearGradient17780-7-9-9-6"/>
  <linearGradient id="linearGradient35887" x1="33.666" x2="33.943" y1="73.428" y2="-18.843" gradientTransform="matrix(2.7886 0 0 2.7886 -28.583 900.83)" gradientUnits="userSpaceOnUse" xlink:href="#linearGradient17780-7-9-9-6"/>
  <linearGradient id="linearGradient35890" x1="140.33" x2="140.12" y1="1008" y2="830.71" gradientTransform="matrix(1.5174 0 0 .9874 -19.895 109.93)" gradientUnits="userSpaceOnUse" xlink:href="#linearGradient17780-7-9-9-6"/>
  <linearGradient id="linearGradient35893" x1="73.108" x2="73.471" y1="73.128" y2="-20.227" gradientTransform="matrix(2.8212 0 0 1.8292 -30.983 971.29)" gradientUnits="userSpaceOnUse" xlink:href="#linearGradient17780-7-9-9-6"/>
  <linearGradient id="linearGradient35896" x1="103.67" x2="105.19" y1="1006.7" y2="830.98" gradientTransform="matrix(1.494 0 0 1.494 -16.662 -400.92)" gradientUnits="userSpaceOnUse" xlink:href="#linearGradient17780-7-9-9-6"/>
  <linearGradient id="linearGradient35899" x1="27.086" x2="26.953" y1="1006.2" y2="829.15" gradientTransform="matrix(1.4636 0 0 1.494 -15.557 -400.92)" gradientUnits="userSpaceOnUse" xlink:href="#linearGradient17780-7-9-9-6"/>
  <linearGradient id="linearGradient35905" x1="24.288" x2="22.322" y1="918.57" y2="1189.3" gradientTransform="matrix(1.494 0 0 1.494 -3.9639 -443.01)" gradientUnits="userSpaceOnUse" xlink:href="#linearGradient17780-7-9-9-6"/>
  <linearGradient id="linearGradient34776-2" x1="33.666" x2="33.943" y1="73.428" y2="-18.843" gradientTransform="matrix(2.7886 0 0 2.7886 430.27 901.25)" gradientUnits="userSpaceOnUse" xlink:href="#linearGradient17780-7-9-9-6"/>
  <linearGradient id="linearGradient34779-7" x1="140.33" x2="140.12" y1="1008" y2="830.71" gradientTransform="matrix(1.5174 0 0 .9874 438.96 110.35)" gradientUnits="userSpaceOnUse" xlink:href="#linearGradient17780-7-9-9-6"/>
  <linearGradient id="linearGradient34782-9" x1="73.108" x2="73.471" y1="73.128" y2="-20.227" gradientTransform="matrix(2.8212 0 0 1.8292 427.87 971.71)" gradientUnits="userSpaceOnUse" xlink:href="#linearGradient17780-7-9-9-6"/>
  <linearGradient id="linearGradient34785-4" x1="103.67" x2="105.19" y1="1006.7" y2="830.98" gradientTransform="matrix(1.494 0 0 1.494 442.19 -400.5)" gradientUnits="userSpaceOnUse" xlink:href="#linearGradient17780-7-9-9-6"/>
  <linearGradient id="linearGradient34788-7" x1="27.086" x2="26.953" y1="1006.2" y2="829.15" gradientTransform="matrix(1.4636 0 0 1.494 443.29 -400.5)" gradientUnits="userSpaceOnUse" xlink:href="#linearGradient17780-7-9-9-6"/>
  <pattern id="pattern34791-2" patternTransform="matrix(.070848 -.067645 12.15 12.725 367.85 1124.3)" xlink:href="#pattern28286-8-4"/>
  <pattern id="pattern28286-8-4" patternTransform="matrix(.06642 -.063417 11.391 11.93 -85.317 1053.7)" xlink:href="#pattern6666-8-9"/>
  <pattern id="pattern6666-8-9" patternTransform="matrix(.047422 -.045278 8.1327 8.5178 -49.563 1006.3)" xlink:href="#pattern9529-84-3"/>
  <pattern id="pattern9529-84-3" patternTransform="matrix(.047422 -.045278 8.1327 8.5178 -49.563 1006.3)" xlink:href="#pattern9496-7-7"/>
  <pattern id="pattern9496-7-7" patternTransform="matrix(.047355 -.045348 8.1452 8.5058 396.14 -51.594)" xlink:href="#pattern9487-2-4"/>
  <pattern id="pattern9487-2-4" patternTransform="matrix(.056516 -.039102 6.9938 10.109 354.71 164.31)" xlink:href="#Strips1_64-1-2"/>
  <pattern id="Strips1_64-1-2" width="65" height="1" patternTransform="translate(0) scale(10)" patternUnits="userSpaceOnUse">
   <rect y="-.5" width="1" height="2"/>
  </pattern>
  <linearGradient id="linearGradient34794-9" x1="24.288" x2="22.322" y1="918.57" y2="1189.3" gradientTransform="matrix(1.494 0 0 1.494 454.89 -442.59)" gradientUnits="userSpaceOnUse" xlink:href="#linearGradient17780-7-9-9-6"/>
 </defs>
 <metadata>
  <rdf:RDF>
   <cc:Work rdf:about="">
    <dc:format>image/svg+xml</dc:format>
    <dc:type rdf:resource="http://purl.org/dc/dcmitype/StillImage"/>
    <dc:title>Abbildung für OPEN MIND Softwaredokumentation</dc:title>
    <dc:creator>
     <cc:Agent>
      <dc:title>OPEN MIND Technologies AG</dc:title>
     </cc:Agent>
    </dc:creator>
    <dc:rights>
     <cc:Agent>
      <dc:title>Alle Rechte vorbehalten.</dc:title>
     </cc:Agent>
    </dc:rights>
    <dc:publisher>
     <cc:Agent>
      <dc:title>Technische Redaktion</dc:title>
     </cc:Agent>
    </dc:publisher>
   </cc:Work>
  </rdf:RDF>
 </metadata>
 <g transform="translate(0 -857.95)">
  <g>
   <path d="m168.92 1061.5 15.228 9.0265 17.22-0.2692v-142.25h-18.026l-14.423 13.66v0l-0.39877 54.437h-79.323l-58.921-68.254-20 0.20635v143.7h26.439l52.881-54.838h79.323z" fill="url(#linearGradient35905)" fill-rule="evenodd" stroke="#4d4d4d" stroke-linecap="round" stroke-linejoin="round" stroke-miterlimit="5" stroke-width=".94757"/>
   <path d="m10.171 928.23 19.685-0.44317 58.998 68.308 79.437-0.0134 0.56614-54.324 14.243-13.648 18.002-0.0559 0.13266 141.77-17.15 0.4707-15.037-9.0652-0.28509-44.356-79.325 0.2199-53.034 54.652-26.384 0.068z" fill="url(#pattern35902)" opacity=".5" stroke="#000" stroke-width=".37795"/>
   <g fill-rule="evenodd" stroke="#4d4d4d" stroke-linecap="round" stroke-linejoin="round" stroke-miterlimit="5">
    <path d="m10.382 1105.4v-34.024h27.212v34.024" fill="url(#linearGradient35899)" stroke-width=".94757"/>
    <path d="m89.518 1105.4v-88.932h79.68v88.932" fill="url(#linearGradient35896)" stroke-width=".94757"/>
    <path d="m169.13 1105.4v-44.345l15.206 9.2977v35.047" fill="url(#linearGradient35893)" stroke-width=".77191"/>
    <path d="m184.19 1105.4v-35.364h17.365v35.364" fill="url(#linearGradient35890)" stroke-width=".77421"/>
    <path d="m36.974 1105.4v-34.024l52.518-54.54v88.564" fill="url(#linearGradient35887)" stroke-width=".94757"/>
   </g>
  </g>
  <line x1="200.73" x2="10.575" y1="1105.4" y2="1105.4" fill="#34679b" stroke="#4d4d4d" stroke-dasharray="8.02521, 4.01261, 2.0063, 4.01261" stroke-linecap="round" stroke-linejoin="round" stroke-width="2.0063"/>
  <g>
   <polyline transform="matrix(2.8657 0 0 2.8591 -213.41 877.76)" points="87.23 41.839 91.62 46.442 91.62 43.445 100.64 43.445 100.64 40.234 91.62 40.234 91.62 37.344 87.23 41.839" fill="#d4aa00" stroke="#000" stroke-linecap="square" stroke-miterlimit="10" stroke-width=".33104"/>
   <path d="m397.74 1066.1 13.713 6.004 18.735-1.8181v-142.25h-18.026l-14.423 13.66v0l-0.39878 54.437h-79.323l-58.921-68.254-20 0.20635v143.7h26.439l52.881-54.838h79.323z" fill="url(#linearGradient34794)" fill-rule="evenodd" stroke="#4d4d4d" stroke-linecap="round" stroke-linejoin="round" stroke-miterlimit="5" stroke-width=".94757"/>
   <path d="m238.99 928.31 19.685-0.44317 58.998 68.308 79.437-0.0134 0.56613-54.324 14.243-13.648 18.002-0.0559 0.30101 142.21-17.286 0.3215-14.488-4.8902-0.86623-48.819-79.325 0.2198-53.034 54.652-26.384 0.068z" fill="url(#pattern34791)" opacity=".5"/>
   <g fill-rule="evenodd" stroke="#4d4d4d" stroke-linecap="round" stroke-linejoin="round" stroke-miterlimit="5">
    <path d="m239.2 1105.4v-34.024h27.212v34.024" fill="url(#linearGradient34788)" stroke-width=".94757"/>
    <path d="m318.34 1105.4v-88.932h79.68v88.932" fill="url(#linearGradient34785)" stroke-width=".94757"/>
    <path d="m397.95 1105.5 0.26938-39.496 14.937 4.449v35.047" fill="url(#linearGradient34782)" stroke-width=".77191"/>
    <path d="m413.01 1105.5v-35.196l17.264-0.1013 0.10102 35.297" fill="url(#linearGradient34779)" stroke-width=".77421"/>
    <path d="m265.79 1105.4v-34.024l52.518-54.54v88.564" fill="url(#linearGradient34776)" stroke-width=".94757"/>
   </g>
  </g>
  <line x1="429.54" x2="239.39" y1="1105.5" y2="1105.5" fill="#34679b" stroke="#4d4d4d" stroke-dasharray="8.02521, 4.01261, 2.0063, 4.01261" stroke-linecap="round" stroke-linejoin="round" stroke-width="2.0063"/>
  <polyline transform="matrix(-2.8657 0 0 2.8591 553.79 877.84)" points="87.23 41.839 91.62 46.442 91.62 43.445 100.64 43.445 100.64 40.234 91.62 40.234 91.62 37.344 87.23 41.839" fill="#d4aa00" stroke="#000" stroke-linecap="square" stroke-miterlimit="10" stroke-width=".33104"/>
  <g transform="matrix(1.3301 0 0 1.3301 -137.62 -633.74)" fill="none" stroke="#d4aa00" stroke-linecap="round" stroke-linejoin="round" stroke-width="2.2677">
   <path d="m195.54 1175.6v48.16"/>
   <path d="m135.3 1175.5v5.4333"/>
   <path d="m143.91 1175.6v16.091"/>
   <path d="m152.51 1175.5v26.062"/>
   <path d="m161.12 1175.4v35.674"/>
   <path d="m169.73 1175.5v45.848"/>
   <path d="m178.33 1175.6v48.16"/>
   <path d="m186.94 1175.6v48.16"/>
   <path d="m204.15 1175.6v48.16"/>
   <path d="m212.76 1175.6v48.16"/>
   <path d="m221.36 1175.6v48.16"/>
   <path d="m229.97 1175.5v3.1047"/>
  </g>
  <g transform="matrix(1.3301 0 0 1.3301 91.162 -633.59)" fill="none" stroke="#d4aa00" stroke-linecap="round" stroke-linejoin="round" stroke-width="2.2677">
   <path d="m195.54 1175.6v48.16"/>
   <path d="m135.3 1175.5v5.4333"/>
   <path d="m143.91 1175.6v16.091"/>
   <path d="m152.51 1175.5v26.062"/>
   <path d="m161.12 1175.4v35.674"/>
   <path d="m169.73 1175.5v45.848"/>
   <path d="m178.33 1175.6v48.16"/>
   <path d="m186.94 1175.6v48.16"/>
   <path d="m204.15 1175.6v48.16"/>
   <path d="m212.76 1175.6v48.16"/>
   <path d="m221.36 1175.6v48.16"/>
   <path d="m229.97 1175.5v3.1047"/>
  </g>
  <g>
   <path d="m627.77 1066.4 13.713 6.004 18.735-1.8181v-142.25h-18.026l-14.423 13.66v0l-0.39878 54.437h-79.323l-58.921-68.254-20 0.20634v143.7h26.439l52.881-54.838h79.323z" fill="url(#linearGradient34794-9)" fill-rule="evenodd" stroke="#4d4d4d" stroke-linecap="round" stroke-linejoin="round" stroke-miterlimit="5" stroke-width=".94757"/>
   <path d="m469.02 928.65 19.685-0.44316 58.998 68.308 79.437-0.0134 0.56613-54.324 14.243-13.648 18.002-0.0559 0.30101 142.21-17.286 0.3215-14.488-4.8903-0.86623-48.819-79.325 0.2199-53.034 54.652-26.384 0.068z" fill="url(#pattern34791-2)" opacity=".5"/>
   <g fill-rule="evenodd" stroke="#4d4d4d" stroke-linecap="round" stroke-linejoin="round" stroke-miterlimit="5">
    <path d="m469.23 1105.8v-34.024h27.212v34.024" fill="url(#linearGradient34788-7)" stroke-width=".94757"/>
    <path d="m548.37 1105.8v-88.932h79.68v88.932" fill="url(#linearGradient34785-4)" stroke-width=".94757"/>
    <path d="m627.99 1105.9 0.26938-39.496 14.937 4.4491v35.047" fill="url(#linearGradient34782-9)" stroke-width=".77191"/>
    <path d="m643.04 1105.9v-35.196l17.264-0.1013 0.10102 35.297" fill="url(#linearGradient34779-7)" stroke-width=".77421"/>
    <path d="m495.82 1105.8v-34.024l52.518-54.54v88.564" fill="url(#linearGradient34776-2)" stroke-width=".94757"/>
   </g>
  </g>
  <line x1="659.58" x2="469.43" y1="1105.9" y2="1105.9" fill="#34679b" stroke="#4d4d4d" stroke-dasharray="8.02521, 4.01261, 2.0063, 4.01261" stroke-linecap="round" stroke-linejoin="round" stroke-width="2.0063"/>
  <g transform="matrix(1.3301 0 0 1.3301 321.19 -633.25)" fill="none" stroke="#d4aa00" stroke-linecap="round" stroke-linejoin="round" stroke-width="2.2677">
   <path d="m195.54 1175.6v48.16"/>
   <path d="m135.3 1175.5v5.4333"/>
   <path d="m143.91 1175.6v16.091"/>
   <path d="m152.51 1175.5v26.062"/>
   <path d="m161.12 1175.4v35.674"/>
   <path d="m169.73 1175.5v45.848"/>
   <path d="m178.33 1175.6v48.16"/>
   <path d="m186.94 1175.6v48.16"/>
   <path d="m204.15 1175.6v48.16"/>
   <path d="m212.76 1175.6v48.16"/>
   <path d="m221.36 1175.6v48.16"/>
   <path d="m229.97 1175.5v3.1047"/>
  </g>
  <polyline transform="matrix(0 2.046 -2.0413 0 666.85 818.32)" points="87.23 41.839 91.62 46.442 91.62 43.445 100.64 43.445 100.64 40.234 91.62 40.234 91.62 37.344 87.23 41.839" fill="#f00" stroke="#000" stroke-linecap="square" stroke-miterlimit="10" stroke-width=".33104"/>
  <g transform="translate(156.38 1003.5)">
   <ellipse cx="-44.92" cy="-98.798" rx="13.199" ry="13.469" fill="#1f638a" stroke-linecap="round" stroke-linejoin="round" stroke-width="1.0658"/>
   <text x="-50.761276" y="-91.125885" fill="#000000" font-family="'Arial Nova', 'Arial Unicode MS', 'Yu Gothic UI', sans-serif" font-size="12.8px" letter-spacing="0px" stroke-width="1.0667" word-spacing="0px" style="line-height:0%" xml:space="preserve"><tspan x="-50.761276" y="-91.125885" fill="#ffffff" font-family="'Arial Nova', 'Arial Unicode MS', 'Yu Gothic UI', sans-serif" font-size="21.333px" stroke="#ffffff" stroke-width="1.0667" style="line-height:1.25">1</tspan></text>
  </g>
  <g transform="translate(362.29 1003.5)">
   <ellipse cx="-13.718" cy="-98.798" rx="13.199" ry="13.469" fill="#1f638a" stroke-linecap="round" stroke-linejoin="round" stroke-width="1.0658"/>
   <text x="-19.559933" y="-91.125885" fill="#000000" font-family="'Arial Nova', 'Arial Unicode MS', 'Yu Gothic UI', sans-serif" font-size="12.8px" letter-spacing="0px" stroke-width="1.0667" word-spacing="0px" style="line-height:0%" xml:space="preserve"><tspan x="-19.559933" y="-91.125885" fill="#ffffff" font-family="'Arial Nova', 'Arial Unicode MS', 'Yu Gothic UI', sans-serif" font-size="21.333px" stroke="#ffffff" stroke-width="1.0667" style="line-height:1.25">2</tspan></text>
  </g>
  <g transform="translate(560.34 1003.5)">
   <ellipse cx="17.483" cy="-98.798" rx="13.199" ry="13.469" fill="#1f638a" stroke-linecap="round" stroke-linejoin="round" stroke-width="1.0658"/>
   <text x="11.641406" y="-91.256096" fill="#000000" font-family="'Arial Nova', 'Arial Unicode MS', 'Yu Gothic UI', sans-serif" font-size="12.8px" letter-spacing="0px" stroke-width="1.0667" word-spacing="0px" style="line-height:0%" xml:space="preserve"><tspan x="11.641406" y="-91.256096" fill="#ffffff" font-family="'Arial Nova', 'Arial Unicode MS', 'Yu Gothic UI', sans-serif" font-size="21.333px" stroke="#ffffff" stroke-width="1.0667" style="line-height:1.25">3</tspan></text>
  </g>
  <g transform="translate(178.75 893.69)">
   <g transform="translate(354.56 247.34)">
    <ellipse cx="48.684" cy="-98.798" rx="13.199" ry="13.469" fill="#1f638a" stroke-linecap="round" stroke-linejoin="round" stroke-width="1.0658"/>
    <text x="42.842751" y="-91.162346" fill="#000000" font-family="'Arial Nova', 'Arial Unicode MS', 'Yu Gothic UI', sans-serif" font-size="12.8px" letter-spacing="0px" stroke-width="1.0667" word-spacing="0px" style="line-height:0%" xml:space="preserve"><tspan x="42.842751" y="-91.162346" fill="#ffffff" font-family="'Arial Nova', 'Arial Unicode MS', 'Yu Gothic UI', sans-serif" font-size="21.333px" stroke="#ffffff" stroke-width="1.0667" style="line-height:1.25">4</tspan></text>
   </g>
  </g>
 </g>
</svg>
