<?xml version="1.0" encoding="UTF-8"?>
<svg version="1.1" viewBox="0 0 491.34 283.46" xmlns="http://www.w3.org/2000/svg">
 <defs>
  <linearGradient id="b" x1="-56.175" x2="929.83" y1="125.71" y2="123.88" gradientTransform="matrix(1.161 0 0 -1.161 -19.436 236.24)" gradientUnits="userSpaceOnUse">
   <stop stop-color="#ffffff" offset="0"/>
   <stop stop-color="#00385e" offset="1"/>
  </linearGradient>
  <clipPath id="d">
   <path d="m0 0h369v213h-369z"/>
  </clipPath>
  <clipPath id="c">
   <path d="m0 0h6500v100h-6500z"/>
  </clipPath>
  <pattern id="a" width="6500" height="100" patternTransform="matrix(.00063537 .00059949 -.058674 .062186 -19.436 -23.64)" patternUnits="userSpaceOnUse">
   <g>
    <g clip-path="url(#c)">
     <g>
      <path d="m0-50h100v200h-100v-200z" fill="#000000"/>
     </g>
    </g>
   </g>
  </pattern>
 </defs>
 <g transform="matrix(1.3333 0 0 1.3333 0 1.042e-5)">
  <g>
   <g>
    <g>
     <path d="m1.18 46.758h297.17v151.11h-297.17z" fill="url(#b)" fill-rule="evenodd" stroke="#4d4d4d" stroke-miterlimit="10" stroke-width=".50742"/>
    </g>
   </g>
   <g>
    <g>
     <g clip-path="url(#d)" opacity=".53763">
      <g>
       <g>
        <path d="m1.18 46.758h297.17v151.11h-297.17z" fill="url(#a)" fill-rule="evenodd"/>
       </g>
      </g>
     </g>
    </g>
   </g>
   <g>
    <path d="m180.4 46.703-19.946 40.227h-32.324l-19.945-40.227z" fill="#739ba5" fill-rule="evenodd" stroke="#16434a" stroke-linecap="round" stroke-linejoin="round" stroke-miterlimit="10" stroke-width="1.0744"/>
   </g>
   <g>
    <path d="m33.422 46.703h53.395v63.855h-53.395z" fill="#739ba5" fill-rule="evenodd" stroke="#16434a" stroke-linecap="round" stroke-linejoin="round" stroke-miterlimit="10" stroke-width="1.0744"/>
   </g>
   <g>
    <path d="m202.04 46.703h64.07v45.008h-64.07z" fill="#739ba5" fill-rule="evenodd" stroke="#16434a" stroke-linecap="round" stroke-linejoin="round" stroke-miterlimit="10" stroke-width="1.0744"/>
   </g>
   <g>
    <path d="m76.418 110.56 0.27 72.007-32.59 0.012v-72.019z" fill="#bed1d6" fill-rule="evenodd" stroke="#16434a" stroke-linecap="round" stroke-linejoin="round" stroke-miterlimit="10" stroke-width="1.0744"/>
   </g>
   <g>
    <path d="m128.12 86.648h32.324v71.449h-32.324z" fill="#bed1d6" fill-rule="evenodd" stroke="#16434a" stroke-linecap="round" stroke-linejoin="round" stroke-miterlimit="10" stroke-width="1.0744"/>
   </g>
   <g>
    <path d="m265.84 91.711-7.59 9.004h-47.781l-8.426-9.004z" fill="#739ba5" fill-rule="evenodd" stroke="#16434a" stroke-linecap="round" stroke-linejoin="round" stroke-miterlimit="10" stroke-width="1.0744"/>
   </g>
   <g>
    <path d="m257.96 100.72v69.726l-47.492 0.036v-69.762z" fill="#bed1d6" fill-rule="evenodd" stroke="#16434a" stroke-linecap="round" stroke-linejoin="round" stroke-miterlimit="10" stroke-width="1.0744"/>
   </g>
   <g>
    <path d="m60.117 39.586v144.84" fill="none" stroke="#16434a" stroke-dasharray="4.53543, 1.13386, 0.566929, 1.13386" stroke-linejoin="round" stroke-width=".56692"/>
   </g>
   <g>
    <path d="m144.28 39.863v119.55" fill="none" stroke="#16434a" stroke-dasharray="4.53543, 1.13386, 0.566929, 1.13386" stroke-linejoin="round" stroke-width=".56692"/>
   </g>
   <g>
    <path d="m234.07 40.582v133.37" fill="none" stroke="#16434a" stroke-dasharray="4.53543, 1.13386, 0.566929, 1.13386" stroke-linejoin="round" stroke-width=".56692"/>
   </g>
   <path d="m69.578 19c0 5.578-4.433 10.102-9.902 10.102-5.465 0-9.899-4.524-9.899-10.102s4.434-10.102 9.899-10.102c5.469 0 9.902 4.524 9.902 10.102z" fill="#1f638a"/>
   <text transform="translate(55.297 24.753)" fill="#ffffff" font-family="'Arial Nova', 'Arial Unicode MS', 'Yu Gothic UI', sans-serif" font-size="16px" xml:space="preserve"><tspan x="0" y="0">1</tspan></text>
   <g>
    <path d="m61.297 24.754h-1.406v-8.969c-0.7 0.668-1.637 1.235-2.813 1.703v-1.359c1.613-0.781 2.719-1.742 3.313-2.891h0.906z" fill="none" stroke="#ffffff" stroke-width=".80002"/>
   </g>
   <path d="m153.13 19c0 5.578-4.434 10.102-9.899 10.102-5.468 0-9.902-4.524-9.902-10.102s4.434-10.102 9.902-10.102c5.465 0 9.899 4.524 9.899 10.102z" fill="#1f638a"/>
   <text transform="translate(138.85 24.753)" fill="#ffffff" font-family="'Arial Nova', 'Arial Unicode MS', 'Yu Gothic UI', sans-serif" font-size="16px" xml:space="preserve"><tspan x="0" y="0">2</tspan></text>
   <g>
    <path d="m146.93 24.754h-7.578c0-0.645 0.222-1.297 0.672-1.953 0.445-0.664 1.289-1.5 2.531-2.5 0.75-0.602 1.422-1.235 2.015-1.891 0.594-0.664 0.891-1.336 0.891-2.015 0-0.571-0.203-1.047-0.609-1.422-0.407-0.383-0.922-0.578-1.547-0.578-0.637 0-1.168 0.199-1.594 0.593-0.43 0.387-0.641 0.965-0.641 1.735l-1.453-0.172c0.094-1.071 0.473-1.891 1.141-2.453 0.676-0.571 1.535-0.86 2.578-0.86 1.125 0 2 0.313 2.625 0.938s0.938 1.375 0.938 2.25c0 0.742-0.266 1.484-0.797 2.234-0.524 0.75-1.575 1.758-3.157 3.016-0.824 0.668-1.371 1.242-1.64 1.719h5.625z" fill="none" stroke="#ffffff" stroke-width=".80002"/>
   </g>
   <path d="m242.67 19c0 5.578-4.434 10.102-9.899 10.102-5.468 0-9.902-4.524-9.902-10.102s4.434-10.102 9.902-10.102c5.465 0 9.899 4.524 9.899 10.102z" fill="#1f638a"/>
   <text transform="translate(228.39 24.655)" fill="#ffffff" font-family="'Arial Nova', 'Arial Unicode MS', 'Yu Gothic UI', sans-serif" font-size="16px" xml:space="preserve"><tspan x="0" y="0">3</tspan></text>
   <g>
    <path d="m234.45 18.453c0.707 0.137 1.242 0.481 1.61 1.031 0.363 0.555 0.546 1.153 0.546 1.797 0 1.043-0.382 1.903-1.14 2.578-0.762 0.668-1.668 1-2.719 1-1.012 0-1.844-0.296-2.5-0.89s-1.043-1.375-1.156-2.344l1.406-0.187c0.145 0.75 0.398 1.312 0.766 1.687 0.375 0.375 0.867 0.563 1.484 0.563 0.656 0 1.207-0.227 1.656-0.688 0.457-0.457 0.688-1.02 0.688-1.687 0-0.645-0.211-1.176-0.625-1.594-0.406-0.426-0.946-0.641-1.61-0.641-0.273 0-0.605 0.055-1 0.156l0.172-1.234c0.375 0 0.672-0.016 0.891-0.047 0.219-0.039 0.461-0.129 0.734-0.265 0.27-0.145 0.492-0.348 0.672-0.61 0.176-0.269 0.266-0.598 0.266-0.984 0-0.571-0.196-1.016-0.578-1.328-0.375-0.313-0.809-0.469-1.297-0.469-0.574 0-1.039 0.183-1.391 0.547-0.355 0.355-0.578 0.867-0.672 1.531l-1.406-0.25c0.176-1 0.578-1.742 1.203-2.234 0.625-0.5 1.367-0.75 2.235-0.75 0.945 0 1.738 0.293 2.375 0.875 0.644 0.574 0.968 1.277 0.968 2.109 0 1.063-0.527 1.828-1.578 2.297z" fill="none" stroke="#ffffff" stroke-width=".80002"/>
   </g>
   <path d="m70.219 165.99c0 5.578-4.434 10.102-9.903 10.102-5.464 0-9.898-4.524-9.898-10.102s4.434-10.101 9.898-10.101c5.469 0 9.903 4.523 9.903 10.101z" fill="#1f638a"/>
   <text transform="translate(55.937 171.72)" fill="#ffffff" font-family="'Arial Nova', 'Arial Unicode MS', 'Yu Gothic UI', sans-serif" font-size="16px" xml:space="preserve"><tspan x="0" y="0">4</tspan></text>
   <g>
    <path d="m64.094 168.98h-1.547v2.735h-1.406v-2.735h-4.953v-1.296l5.203-7.422h1.156v7.422h1.547zm-2.953-1.296v-5.172h-0.032l-3.546 5.172z" fill="none" stroke="#ffffff" stroke-width=".80002"/>
   </g>
   <path d="m152.9 142.49c0 5.582-4.433 10.106-9.902 10.106-5.465 0-9.898-4.524-9.898-10.106 0-5.578 4.433-10.101 9.898-10.101 5.469 0 9.902 4.523 9.902 10.101z" fill="#1f638a"/>
   <text transform="translate(138.62 148.22)" fill="#ffffff" font-family="'Arial Nova', 'Arial Unicode MS', 'Yu Gothic UI', sans-serif" font-size="16px" xml:space="preserve"><tspan x="0" y="0">4</tspan></text>
   <g>
    <path d="m146.77 145.49h-1.546v2.735h-1.407v-2.735h-4.953v-1.297l5.203-7.421h1.157v7.421h1.546zm-2.953-1.297v-5.171h-0.031l-3.547 5.171z" fill="none" stroke="#ffffff" stroke-width=".80002"/>
   </g>
   <path d="m243.9 153.99c0 5.578-4.43 10.102-9.899 10.102-5.465 0-9.898-4.524-9.898-10.102s4.433-10.101 9.898-10.101c5.469 0 9.899 4.523 9.899 10.101z" fill="#1f638a"/>
   <text transform="translate(229.62 159.72)" fill="#ffffff" font-family="'Arial Nova', 'Arial Unicode MS', 'Yu Gothic UI', sans-serif" font-size="16px" xml:space="preserve"><tspan x="0" y="0">4</tspan></text>
   <g>
    <path d="m237.77 156.98h-1.546v2.735h-1.407v-2.735h-4.953v-1.296l5.203-7.422h1.157v7.422h1.546zm-2.953-1.296v-5.172h-0.031l-3.547 5.172z" fill="none" stroke="#ffffff" stroke-width=".80002"/>
   </g>
  </g>
 </g>
</svg>
