<?xml version="1.0" encoding="UTF-8"?>
<svg version="1.1" viewBox="0 0 637.8 318.9" xmlns="http://www.w3.org/2000/svg" xmlns:cc="http://creativecommons.org/ns#" xmlns:dc="http://purl.org/dc/elements/1.1/" xmlns:rdf="http://www.w3.org/1999/02/22-rdf-syntax-ns#" xmlns:xlink="http://www.w3.org/1999/xlink">
 <title>Abbildung fuer OPEN MIND Softwaredokumentation</title>
 <defs>
  <linearGradient id="linearGradient6289" x1="1167" x2="1370" y1="-252.37" y2="-358.14" gradientTransform="matrix(.40335 .10884 -.10872 .4038 96.502 81.079)" gradientUnits="userSpaceOnUse">
   <stop stop-color="#d3dde3" offset="0"/>
   <stop stop-color="#a8bbc8" offset="1"/>
  </linearGradient>
  <linearGradient id="linearGradient6283" x1="286.46" x2="3449.3" y1="4.0972" y2="3614.1" gradientTransform="matrix(.039374 0 0 .039364 323.15 170.55)" gradientUnits="userSpaceOnUse">
   <stop stop-color="#d5dee4" offset="0"/>
   <stop stop-color="#a8bbc8" offset="1"/>
  </linearGradient>
  <linearGradient id="linearGradient6286" x1="286.46" x2="2964.5" y1="4.0972" y2="-954.82" gradientTransform="matrix(-.084774 0 0 -.084712 500.11 280.87)" gradientUnits="userSpaceOnUse">
   <stop stop-color="#d5dee4" offset="0"/>
   <stop stop-color="#a8bbc8" offset="1"/>
  </linearGradient>
 </defs>
 <metadata>
  <rdf:RDF>
   <cc:Work rdf:about="">
    <dc:format>image/svg+xml</dc:format>
    <dc:type rdf:resource="http://purl.org/dc/dcmitype/StillImage"/>
    <dc:title>Abbildung fuer OPEN MIND Softwaredokumentation</dc:title>
    <dc:creator>
     <cc:Agent>
      <dc:title>OPEN MIND Technologies AG</dc:title>
     </cc:Agent>
    </dc:creator>
    <dc:rights>
     <cc:Agent>
      <dc:title>Alle Rechte vorbehalten.</dc:title>
     </cc:Agent>
    </dc:rights>
    <dc:publisher>
     <cc:Agent>
      <dc:title>Technische Redaktion</dc:title>
     </cc:Agent>
    </dc:publisher>
   </cc:Work>
  </rdf:RDF>
 </metadata>
 <g transform="translate(0 3.5234e-6)">
  <g transform="matrix(.33546 0 0 .33537 106.71 175.29)">
   <path transform="translate(0 152.36)" d="m658.23-13.177 5.7881-261.94c0.67688-3.5046 1.3731-7.0043 9.8603-8.5564l595.03-193.28 163.96 239.89-11.579 270.82c-0.3443 2.7848-1.7583 6.685-7.4246 8.1317l-587.59 191.82c-2.2092 0.0139-4.2099-0.8057-5.7546-3.4497z" fill="#d5dfe4" fill-opacity=".78099"/>
   <path d="m1148.5-189.76c24.798-6.7994 54.587-10.611 80.964 17.678l-43.5 203.48c-2.4952 9.539-8.8742 15.994-19.383 19.169-18.342-15.31-21.66-18.03-50.486-13.173-4.6165-8.7968-7.9971-17.984-8.1562-28.188z" fill="#a8bcc7"/>
   <path d="m896.21-107.72 21.584 182.98c0.9087 8.6093 2.8737 17.453 8 27-19.694 7.5814-23.133 21.354-17.03 38.055-5.1566 2.254-10.085 1.3804-15.241 0.85171l-0.32202-1.7814-26.053-193.86c-12.031-28.352 6.6042-45.151 29.063-53.249z" fill="#a8bcc7"/>
   <path transform="translate(0 152.36)" d="m1116.8-114.52c19.473-5.8961 36.24-2.4266 49.586 12.884l73.146 123.78-259 82.437c-10.434 0.18986-13.753-0.85846-18.188-10l-52.484-105.86c-8.8633-19.445-0.96075-30.964 16.05-38.177z" fill="#cbd7df" fill-opacity=".61961"/>
  </g>
  <path d="m407.42 139.24 84.528-27.277-13.615 66.321-63.541 22.253z" fill="#b6c7d0" fill-opacity=".61961"/>
  <path d="m581.53 240.52-196.94 63.971c-1.1892 0.33303-2.3549 0.61649-2.5596-1.1283l2.4085-89.697 37.019-12.46 8.253 58.254c0.73853 4.4982 1.5294 12.127 8.1082 10.699l86.729-27.768c4.7866-1.696 12.118-4.0696 14.184-12.689l14.442-71.025 34.247-11.639-3.8546 90.535c-4e-3 1.3498-0.59167 2.2098-2.0353 2.9459z" fill="url(#linearGradient6286)" opacity=".52688"/>
  <path d="m329.41 134.29 54.875 79.224-2.3897 90.183-54.412-81.65z" fill="url(#linearGradient6283)" opacity=".58065"/>
  <g fill="none" stroke-width=".63425">
   <g stroke="#4d4d4d">
    <g stroke-linecap="round" stroke-linejoin="round">
     <path d="m490.15 104.89c1.3199 1.8182 1.853 4.3366 1.9879 6.8572l-13.628 66.306c0.33342 3.8146 1.2594 7.2842 2.7075 9.9844"/>
     <path d="m523.42 113.13c-1.3238 0.45731-3.9155 2.6111-4.2613 4.8833l-14.471 68.157c-1.0748 3.7334-3.3763 5.0951-6.613 6.2992"/>
     <path d="m405.94 134.05c0.87005 1.6193 1.274 2.943 1.4485 4.9974l7.4069 61.285c0.0115 3.2697 0.96009 6.5876 2.742 9.6948"/>
     <path d="m421.58 201.18c3.9877-1.6707 3.0287-4.3378 1.255-6.8415l-25.24-37.411c-4.0599-10.535 2.8515-14.922 10.263-17.91l84.417-27.257c10.558-2.7711 19.275-1.9053 26.894 5.9773l27.508 39.236c1.3252 1.6905 3.7652 2.5275 6.5998 1.6472"/>
     <path d="m530.91 228.8-26.116-42.562c-9.0009-10.213-17.941-9.4719-26.501-7.7973l-66.509 23.386c-8.6701 2.9414-10.502 10.745-5.2936 20.894l20.758 43.892c2.5589 4.9908 5.1996 5.0773 9.9107 3.6947"/>
     <path d="m522.44 233.87-24.279-41.249c-4.4313-4.856-9.4777-6.6271-16.813-4.5607l-63.945 21.904c-7.7436 2.7874-7.8252 9.0086-5.0741 13.735l17.712 35.522c1.1381 2.1614 3.454 3.1451 8.0627 1.8367"/>
     <path d="m550.8 151.92c-1.4387 0.73335-3.2556 1.6801-4.2571 4.5991l-15.6 72.261m-8.5872 5.2164-84.49 27.125"/>
     <path d="m530.9 228.78c-1.9876 2.9632-4.8486 4.2417-8.4771 5.223"/>
     <path d="m530.9 228.67c1.8284 1.984 5.3303 2.5999 7.7652 1.0391"/>
    </g>
    <path d="m522.36 233.85c1.5828 2.4673 2.3028 5.3276 2.0966 8.2979"/>
    <g stroke-linecap="round" stroke-linejoin="round">
     <path d="m437.74 269.91c0.31658-2.7945-0.46081-6.6581-2.1445-8.3123l-18.259-51.772"/>
     <path d="m393.6 155.77c1.6111-0.43442 2.5817-0.1113 3.8234 0.8633"/>
     <path d="m397.52 156.79 7.0709 51.27 2.0562 14.952c1.4498 0.41621 3.6597 0.32337 5.0676-0.25819"/>
    </g>
   </g>
   <path d="m419.48 194.54" stroke="#000000"/>
   <g stroke="#4d4d4d" stroke-linecap="round">
    <path d="m335.97 131.82c-3.5713-0.94619-6.1844-0.11535-6.4995 2.4733"/>
    <g stroke-linejoin="round">
     <path d="m331.36 131.78 201.01-65.198 54.988 80.373"/>
     <path d="m531.29 68.687c0.0605-0.74004 0.24333-1.3416 1.0902-2.0541"/>
     <path d="m550.89 151.94c1.4477 1.3443 2.2484 3.6562 2.3127 6.6992"/>
     <path d="m580.8 142.23c1.2104 0.0252 4.1904 0.60301 6.5676 4.7428"/>
     <path d="m386.6 205.85c-1.5193 1.4548-2.3127 5.1573-2.148 7.6736"/>
     <path d="m419.39 194.55c1.5612 1.9998 2.0192 2.9774 2.2319 6.5836"/>
     <path d="m424.36 197.43 7.8499 59.642c0.38018 2.297 1.4281 3.7813 3.3486 4.4917"/>
     <path d="m423.51 195.35c-1.2036-1.9381-2.2654-1.5785-4.1114-1.0784"/>
    </g>
   </g>
  </g>
  <path d="m519.29 118.24 27.101 38.535-15.418 71.735-26.211-42.27z" fill="#b6c7d0" fill-opacity=".61961"/>
  <g fill="none" stroke="#4d4d4d" stroke-linecap="round" stroke-linejoin="round" stroke-width=".63425">
   <path d="m581.53 240.5-196.89 64.141c-1.8933 0.52894-2.9486-0.0312-2.6088-2.4045l2.4017-88.59 37.138-12.46 8.1344 58.254c0.73853 4.4982 1.5294 12.127 8.1082 10.699l86.729-27.768c4.7866-1.696 12.118-4.0696 14.184-12.689l14.442-71.025 34.247-11.639-3.8545 90.535c-4e-3 1.3498-0.69548 2.447-2.0353 2.9459z"/>
   <path d="m531.33 68.723 49.491 73.542-29.896 9.7157-26.973-38.273c-7.8499-10.54-23.766-12.192-34.069-8.7185l-85.991 29.806c-7.9132 2.9432-17.414 6.9662-11.419 19.373l26.981 40.35-32.78 11.255-50.633-73.872z"/>
   <path d="m329.5 134.4 54.875 79.224-2.4074 90.11-53.906-80.846c-0.45292-0.71775-0.48033-1.2228-0.46654-1.7072z"/>
  </g>
  <g>
   <path d="m531.33 68.682 49.491 73.542-29.896 9.7157-26.973-38.273c-7.8499-10.54-23.766-12.192-34.069-8.7185l-85.991 29.806c-7.9132 2.9432-17.414 6.9662-11.419 19.373l26.981 40.35-32.78 11.255-50.633-73.872z" fill="url(#linearGradient6289)" opacity=".62007"/>
   <path d="m211.51 168.73-0.65313 9.0367c-0.25237 3.9614 0.28516 4.7821-3.9608 7.01l-58.838 20.386c-0.84278 0.18867-4.6588 0.71802-4.8292-3.0812-0.28878-2.0938-0.33367-11.87-0.33367-11.87l-11.962-18.408c-0.54458-0.19444-2.9641-5.5075 0.85865-6.7l57.404-18.896c6.0075-1.7034 8.4412 0.9562 11.138 5.5803z" fill="#e9eef1"/>
   <path d="m26.159 140.24 29.388-9.0206c6.7611-1.9926 13.372-3.3879 16.539-0.8884l38.068 55.354c0.58433 2.6096 0.69005 5.2826-10.867 9.499l-30.072 9.5673 0.54676 13.804-3.1439 1.3668-37.931-55.695c-2.182-3.0684-3.126-6.6129-2.9388-10.592z" fill="#e9eef1"/>
   <path d="m95.707 123.61 56.349-18.362c3.2049-1.5343 4.6641-3.3023 4.8674-5.1451l0.0619-12.058 67.658-22.808 4.9225 8.3446-0.57993 25.856c0.12979 1.7623 0.82865 5.4667 2.31 7.3235l25.774 37.402-24.308 9.9867-16.624-23.968-98.007 33.439z" fill="#a8bcc7"/>
   <path d="m75.442 212.62-2.0463 92.862 202.9-66.854 3.1172-92.312-67.941 21.845-0.65117 12.277c-3e-3 2.5946-1.8028 3.615-4.6113 4.6344l-58.473 20.107c-2.6505 0.51077-4.3531-1.2248-4.491-3.366v-11.71z" fill="#cfd9e1" stroke="#000000" stroke-linecap="round" stroke-linejoin="round" stroke-width=".63425"/>
   <path d="m25.886 154.32c0.68345-0.68338 29.662-23.303 29.662-23.303 11.495-3.099 14.921-2.5014 16.266-0.88838l-43.194 34.169c-2.2073-3.2261-2.8911-6.5694-2.7338-9.9773z" fill="#faffff"/>
   <path d="m21.155 132.22 4.9079 7.808-0.23334 13.723c0.0042 4.8446 1.1265 8.3814 3.1976 11.151l37.137 54.482c3.7342 3.9512 3.454 0.0654 3.4856-3.2119v-11.617l5.7669 8.2062-2.0188 92.721-55.361-80.02z" fill="#ccd9df" stroke="#000000" stroke-linecap="round" stroke-linejoin="round" stroke-width=".63425"/>
   <path d="m196.9 95.679 31.799 4.349c0.17188 2.3195 0.56153 4.6389 2.513 6.9584l-28.416-3.2859z" fill="#bcd0db"/>
   <path d="m21.213 132.26 68.039-21.98 11.915 18.248c2.1466 2.6452 5.1199 5.8044 9.8279 4.3902l57.65-19.071c2.9642-1.8186 2.3512-4.7276 1.2039-6.8973l-12.606-18.925 67.524-22.688 4.6474 7.9272-34.719 12.301c-2.1825 1.392-1.9867 3.0002-1.3669 4.647l39.143 56.841c1.721 2.837 4.2888 3.3028 7.2954 2.5402l34.482-11.544 5.0978 8.1774-67.782 21.94-12.978-18.927c-2.4789-3.2942-5.2682-4.1054-8.262-3.2802l-59.326 19.151c-2.003 1.258-1.8423 3.8956-0.4501 6.1738l12.775 18.841-67.962 22.652-5.7932-8.2739 29.042-9.1318c10.02-3.2756 12.881-6.5513 11.579-9.8269l-36.906-54.14c-1.5325-1.296-2.3845-4.5043-18.443-0.15727l-28.784 8.839z" fill="#cfdae0" stroke="#000000" stroke-linecap="round" stroke-linejoin="round" stroke-width=".63425"/>
  </g>
  <g fill="none" stroke="#000000" stroke-linecap="round" stroke-linejoin="round" stroke-width=".63425">
   <path d="m156.99 100.19 12.438 6.1746"/>
   <path d="m152.46 105.52 16.266 7.9272"/>
   <path d="m197.43 95.545 31.414 4.4786"/>
   <path d="m202.49 103.47 28.978 3.2802"/>
   <path d="m196.47 84.956-2.8705 5.3953"/>
   <path d="m26.309 153.96c0.77323-0.57987 29.189-22.808 29.189-22.808"/>
   <path d="m28.629 164.01 43.108-33.826"/>
   <path d="m109.82 186.04-11.212 9.2779"/>
   <path d="m66.904 219.67 2.7063-2.1262"/>
   <path d="m131.43 165.08 8.3527 19.737"/>
   <path d="m143.25 193.69 5.0401 11.105"/>
   <path d="m190.43 146.03 16.167 38.832"/>
   <path d="m199.9 151.44 10.898 26.522"/>
   <path d="m97.734 123.23 54.612-17.98c2.7352-1.1697 4.552-3.0981 4.6394-5.0255l0.19331-12.177"/>
   <path d="m229.36 73.262-0.49455 26.793c-0.0745 2.134 1.1427 4.5909 2.5971 7.1072l25.287 36.629"/>
  </g>
  <path d="m210.51 178.07c-0.28695-0.92292-10.751-26.482-10.751-26.482-3.8999-6.0613-7.0179-6.1601-8.9587-5.3578l16.003 38.193c3.165-0.81392 3.8549-2.7325 3.7066-6.3539z" fill="#faffff"/>
  <path d="m168.94 113.37-16.378-8.0002c1.3455-0.69292 4.3884-2.1304 4.4899-4.9597l12.4 6.1232c1.4369 2.5897 1.8909 4.8868-0.51177 6.8367z" fill="#bcd0db"/>
  <g transform="translate(-80.415 135.18)">
   <ellipse cx="204.69" cy="-98.798" rx="13.199" ry="13.469" d="m 217.89044,-98.79776 c 0,7.438558 -5.90954,13.4687 -13.19932,13.4687 -7.28979,0 -13.19933,-6.030142 -13.19933,-13.4687 0,-7.43856 5.90954,-13.4687 13.19933,-13.4687 7.28978,0 13.19932,6.03014 13.19932,13.4687 z" fill="#1f638a" stroke-linecap="round" stroke-linejoin="round" stroke-width="1.0658"/>
   <text x="198.84944" y="-91.256096" fill="#000000" letter-spacing="0px" word-spacing="0px" style="line-height:0%" xml:space="preserve"><tspan x="198.84944" y="-91.256096" fill="#ffffff" font-family="'Arial Nova', 'Arial Unicode MS', 'Yu Gothic UI', sans-serif" font-size="20px" stroke="#ffffff" stroke-width="1.0667" style="line-height:1.25">9</tspan></text>
  </g>
  <g transform="translate(522.05 175.26)">
   <ellipse cx="-75.193" cy="-138.95" rx="13.199" ry="13.469" d="m -61.993315,-138.94691 c 0,7.43855 -5.90954,13.4687 -13.199327,13.4687 -7.289787,0 -13.199328,-6.03015 -13.199328,-13.4687 0,-7.43856 5.909541,-13.46871 13.199328,-13.46871 7.289787,0 13.199327,6.03015 13.199327,13.46871 z" fill="#1f638a" stroke-linecap="round" stroke-linejoin="round" stroke-width="1.0658"/>
   <g transform="translate(-1.2434)" fill="#000000" letter-spacing="0px" word-spacing="0px">
    <text x="-85.114067" y="-131.27504" style="line-height:0%" xml:space="preserve"><tspan x="-85.114067" y="-131.27504" fill="#ffffff" font-family="'Arial Nova', 'Arial Unicode MS', 'Yu Gothic UI', sans-serif" font-size="20px" stroke="#ffffff" stroke-width="1.0667" style="line-height:1.25">1</tspan></text>
    <text x="-76.055321" y="-131.27504" style="line-height:0%" xml:space="preserve"><tspan x="-76.055321" y="-131.27504" fill="#ffffff" font-family="'Arial Nova', 'Arial Unicode MS', 'Yu Gothic UI', sans-serif" font-size="20px" stroke="#ffffff" stroke-width="1.0667" style="line-height:1.25">0</tspan></text>
   </g>
  </g>
 </g>
 <g fill="none">
  <g transform="matrix(1.1186 0 0 1.1186 -38.861 -36.156)" stroke="#ffcc00" stroke-width="1.172">
   <path d="m496.81 135.19-11.821 55.102c-0.52905 2.3234-2.6995 5.6643-6.0326 4.749l-10.484-4.0759c-5.0853-2.6329-4.2186-6.3099-3.859-7.7995l10.924-50.92c0.31099-2.0239 2.1877-2.9288 3.8664-3.1418 5.0583-0.16573 9.9705 0.36494 14.39 3.2471"/>
   <path d="m487.55 131.52-11.167 52.908c-0.69176 1.3231-1.3354 2.5522-2.2811 4.3715-0.4664 1.3687-0.40038 2.524 0.61514 3.2987 3.1305 1.8583 6.2986 1.8596 8.8031 1.3775" stroke-linecap="round" stroke-linejoin="round"/>
   <g>
    <path d="m495.15 136.06-11.397 52.128c-1.0381 3.7145-1.8272 4.8736-5.3417 4.1356l-7.4337-2.2862c-5.6129-2.6112-4.8409-4.6519-4.3243-6.8905l11.227-51.864c0.51034-2.4134 1.8852-1.9857 3.564-2.1986 5.0235 0.0623 8.2713 0.64276 12.69 3.5249 0.741 0.53904 1.492 1.0628 1.0159 3.4501z"/>
    <path d="m493.64 132.25c0.28453 0.97861 0.25305 1.9543 0.10921 2.9289l-11.111 51.303s-0.52213 4.8857-4.9112 3.4546c-2.2389-0.71915-3.5349-1.2416-5.4457-2.0395-3.3409-1.318-3.4881-2.7476-3.1661-5.1184l11.154-52.067c0.28875-1.623 1.1502-1.5915 2.031-1.5721"/>
    <path d="m491.83 131.19c0.28619 0.69487 0.31992 2.0031-0.0625 3.5826l-11.251 51.869s-0.78529 2.0995-5.0406 0.3573c-3.3409-1.318-4.3328-1.2331-4.0107-3.604l11.227-51.864c0.51035-2.4134 1.496-2.2339 3.3184-2.103"/>
    <path d="m489.92 130.48c0.3425 1.4312-0.0734 2.5509-0.30613 3.7458l-10.806 49.886c-0.48837 1.2268-0.89415 1.8382-2.903 1.2305-1.3868-0.56184-2.1038-0.26682-1.7817-2.6377l11.227-51.864c0.046-0.38481 0.26073-0.5978 0.73296-0.54855l1.0715 0.2012c0.45678 0.0964 0.50633 0.51231 0.40626 0.97246"/>
    <path d="m471.94 192.95c-3.1728-1.2521-8.0501-3.5266-8.9922-6.6371-0.29858-0.70248-0.32886-2.458 0.98292-3.0156 13.155-4.5263 17.388 1.0268 20.976 7.3271 1.413 1.9819-0.15708 4.4802-2.1708 4.7553-3.2599 0.0578-6.3893-0.66752-10.796-2.4297z"/>
    <path d="m469.18 193.79c-2.5712-1.4367-5.146-3.2124-6.5551-5.727-0.29829-0.72913-0.56409-1.9667 0.74787-2.5461 13.157-4.7032 17.622 0.64677 21.208 7.1857 1.4123 2.0569-1.037 4.8276-3.0016 4.7792-4.5304-0.20596-7.5707-1.354-12.399-3.6918z"/>
    <path d="m468.65 195.85c-2.5712-1.4367-5.146-3.2125-6.5551-5.7271-0.2983-0.72911-0.56409-1.9667 0.74786-2.5461 13.157-4.7032 17.622 0.64678 21.208 7.1857 1.4124 2.0569-1.037 4.8276-3.0016 4.7792-4.5304-0.20596-7.5707-1.354-12.399-3.6918z"/>
    <path d="m468.17 197.73c-2.5712-1.4367-5.146-3.2124-6.5551-5.7271-0.29833-0.72911-0.56412-1.9667 0.74784-2.5461 13.157-4.7032 17.622 0.64679 21.208 7.1857 1.4124 2.0568-1.037 4.8276-3.0016 4.7792-4.5303-0.20596-7.5707-1.354-12.399-3.6918z"/>
    <path d="m467.83 199.99c-2.5712-1.4367-5.146-3.2125-6.5551-5.7271-0.2983-0.7291-0.56409-1.9667 0.74786-2.546 13.157-4.7032 17.622 0.64676 21.208 7.1857 1.4124 2.0568-1.037 4.8276-3.0016 4.7792-4.5304-0.20596-7.5707-1.354-12.399-3.6918z"/>
    <path d="m467.3 202.02c-2.5712-1.4367-5.146-3.2124-6.5551-5.7271-0.2983-0.72912-0.5641-1.9667 0.74785-2.5461 13.157-4.7032 17.622 0.64679 21.208 7.1857 1.4123 2.0569-1.0371 4.8276-3.0016 4.7792-4.5304-0.20597-7.5707-1.354-12.399-3.6918z"/>
    <path d="m482.41 202.86c-3.5856-6.5389-8.424-11.477-21.347-7.0486-0.39795 0.17574-0.65075 0.41207-0.80151 0.67639l0.0837 0.39894 11.814 14.463"/>
    <path d="m461.33 199.93c-0.70648-0.44334-1.9536-0.63481-0.45508-1.3448 11.629-4.1653 16.91-0.22107 20.727 6.1234 0.19349 0.32161-1.0924 0.1379-1.3044 0.0835l-18.493-4.7747c0.57591 0.19305 0.62284 0.43402 0.3289 0.70589-0.83645 0.35891-1.1363 0.14474-1.4198 0.052-0.65718-0.37098-0.26492-1.0455 1.0676-0.77294"/>
    <path d="m473.23 204.6c-0.70647-0.44333-11.813-3.4987-10.315-4.2087 8.6417-2.7904 13.523-0.0893 16.911 5.9576"/>
    <path d="m477.44 207.11c-2.669-4.8914-6.4743-6.9375-13.637-5.0383-0.50879 0.26999-0.8817 0.52099-1.6261 0.47074-0.69721-0.46199-0.0789-0.74751 0.28562-0.89435 0.59207-0.32723 1.2748 0.248 1.8243 0.31047"/>
    <path d="m475.14 207.81c-3.2907-4.7014-4.7929-5.291-10.909-3.643l-0.49059 0.12593c-0.90682-0.0297-0.64853-0.77431-0.0524-0.70669l13.625 3.2576"/>
    <path d="m468.5 207.33-1.9837 0.59685c-1.9718-6e-3 -0.8487-0.45449-0.1446-0.50931l6.4796 1.0861c-2.0042-2.6998-3.1569-4.0201-7.8383-2.3262-0.67545 0.12229-1.0296-0.52459-0.0511-0.83733l10.109 2.3933"/>
   </g>
  </g>
  <g stroke="#ffcc00" stroke-linecap="round" stroke-linejoin="round" stroke-width="1.3429">
   <path d="m408.36 135.79-1.0269 4.3855 4.3539 36.32m-10.938-17.453-0.5741-6.224 1.0042-5.3135 2.9679-8.334c0.43829-0.64691 0.58069-0.18441 0.78562 0.0436"/>
   <path d="m405.06 139.16 3.9587 33.024m-9.3227-14.675-0.65639-5.8505 0.0408-4.9871c0.48987-2.5895 1.0968-3.3069 1.6612-4.705 0.60274-0.66725 0.7091 0.40451 0.78033 1.0023l2.5709 21.983"/>
   <path d="m403.11 140.51 3.3626 28.001m-5.8681-9.8728-1.0786-9.5745c0.57177-3.7154 1.4718-6.1396 2.7014-8.4574 0.17891-0.3568 0.38052-0.63805 0.80241-0.18511"/>
   <path d="m401.98 161.15-2.1287-16.849-1.5092 3.8566 0.76083 8.3753"/>
   <path d="m410.95 213.98c-0.7967 0.8765-1.5678 0.43557-2.6819-2.6781l-7.4044-50.91" opacity=".27599"/>
  </g>
  <g transform="matrix(1.1186 0 0 1.1186 -38.861 -36.156)" opacity=".45161" stroke="#ffcc00" stroke-linecap="round" stroke-linejoin="round" stroke-width="1.2005">
   <path d="m402.6 189.44 1.8836 17.072s-0.30031 5.6411-0.54698 6.601c-1.1046 3.4077-1.8728 5.3972-4.039 8.7884-0.72507 0.78357-2.0198 1.1822-2.4295-1.6034l-5.9315-47.349m6.2831 9.122 3.0876 26.321c0.12079 1.5676 0.91834 4.3053-1.6204 7.6911" opacity=".56206"/>
   <path d="m400.4 186.57 2.3631 21.113-0.054 3.0595c0.20115 1.3051 0.054 2.1989-0.19267 3.1588-1.1046 3.4076-0.70381 2.886-2.5662 6.3864-0.71224 0.78355-1.1834-1.2591-1.3247-4.2111-1.4943-13.094-2.7948-27.215-4.4234-39.503" opacity=".6595"/>
   <path d="m399.13 215.57c0.34717-0.91355 0.63815-1.92 0.5471-3.5577l-3.7091-32.194m-4.4879-7.7865 7.9159 55.76" opacity=".56206"/>
  </g>
  <g transform="matrix(1.1186 0 0 1.1186 -38.861 -36.156)" opacity=".54839" stroke-width="1.2005">
   <path d="m410.08 206.07" stroke="#000000"/>
   <g stroke="#ffcc00" stroke-linecap="round" stroke-linejoin="round">
    <path d="m415.47 226.25-11.849 6.1861c-3.543 0.28092-3.7447-4.0854-4.1184-4.5784l-0.73083-7.306" opacity=".56206"/>
    <path d="m398.85 212.98c0.45525-2.2877 5.5174-5.1416 8.5659-4.9848 2.9802 0.3873 3.2576 5.1374 1.2747 7.2116-0.9951 0.86672-2.5999 1.2265-3.6244 1.1833-2.9192-0.22761-4.4016-1.1724-5.8983-1.812" opacity=".56206"/>
    <path d="m398.84 215.19c0.45406-2.6169 5.5148-5.879 8.5633-5.6981 2.9804 0.44461 2.5951 5.3741 1.2784 8.2506-0.72097 1.146-2.4726 4.0537-4.8986 4.867-2.02 0.28093-3.772 0.29241-4.6244-5.5911" opacity=".56206"/>
    <path d="m398.88 216.85c0.45407-2.6168 5.5147-5.879 8.5633-5.6981 2.9804 0.4446 2.5951 5.3741 1.2784 8.2506-0.72097 1.146-2.4726 4.0537-4.8986 4.867-2.02 0.28093-3.772 0.29241-4.6244-5.5911" opacity=".56206"/>
    <path d="m399.27 218.28c0.45407-2.6169 5.5148-5.879 8.5633-5.6981 2.9804 0.44461 2.5951 5.3741 1.2784 8.2506-0.72097 1.146-2.706 4.2496-5.132 5.0628-2.02 0.28093-3.8502 0.25369-4.7025-5.6298" opacity=".56206"/>
    <path d="m399 219.95c0.45408-2.6168 5.5148-5.879 8.5633-5.6981 2.9804 0.44459 2.5951 5.3741 1.2784 8.2506-0.72097 1.146-2.706 4.2496-5.132 5.0629-2.02 0.28093-3.8502 0.25369-4.7025-5.6298" opacity=".56206"/>
    <path d="m399.51 221.47c0.45407-2.6168 5.5148-5.879 8.5633-5.6981 2.9804 0.4446 2.5951 5.3741 1.2784 8.2506-0.72096 1.146-2.706 4.2496-5.132 5.0628-2.02 0.28093-3.8502 0.25369-4.7025-5.6298" opacity=".56206"/>
    <path d="m399.67 222.99c0.45408-2.6169 5.5148-5.879 8.5633-5.6981 2.9804 0.4446 2.5951 5.3741 1.2784 8.2506-0.72095 1.146-2.706 4.2496-5.132 5.0628-2.0199 0.28093-3.8502 0.25368-4.7025-5.6298" opacity=".56206"/>
    <path d="m399.76 224.51c0.45407-2.6169 5.5147-5.879 8.5633-5.6981 2.9804 0.4446 2.5951 5.3741 1.2785 8.2506-0.72098 1.146-2.706 4.2496-5.1321 5.0628-2.02 0.28093-3.8502 0.25368-4.7025-5.6298" opacity=".56206"/>
    <path d="m400.11 225.76c0.45407-2.6168 5.2411-6.034 8.2896-5.8531" opacity=".56206"/>
    <path d="m409.85 221.89c-6.3013-0.25285-11.476 6.3006-5.6177 11.031-0.64826 0.56794-1.921 1.0854-2.5747 0.13617l-1.1789-2.2971" opacity=".56206"/>
    <path d="m410.6 223.14c-5.8832 0.93164-8.944 5.039-4.8819 9.386l3.0156-8.9397" opacity=".56206"/>
    <path d="m412.19 225.64-0.62387 4.9936c-0.8641-1.2416-1.8527-2.7266 0.56879-4.9658" opacity=".56206"/>
    <path d="m411.27 224.06-1.6095 7.0933c-1.3043-1.24-1.4524-4.7966 1.5545-7.038" opacity=".56206"/>
    <path d="m409.18 224.73-1.6095 7.0933c-1.3043-1.24-1.9204-4.5191 1.0865-6.7604" opacity=".56206"/>
    <path d="m404.25 232.93 4.3114-13.2" opacity=".56206"/>
   </g>
  </g>
  <g stroke="#ffcc00" stroke-width="1.311">
   <path d="m2746.9 823.92-52.863 246.42c-2.3659 10.39-12.072 25.33-26.978 21.237l-46.885-18.227c-22.741-11.774-18.865-28.218-17.257-34.879l48.853-227.72c1.3908-9.0507 9.7833-13.098 17.291-14.05 22.62-0.74115 44.588 1.632 64.35 14.521"/>
   <path d="m2705.5 807.5-49.938 236.6c-3.0935 5.9169-5.9719 11.413-10.201 19.549-2.0857 6.1208-1.7904 11.287 2.7509 14.752 14 8.3102 28.167 8.3161 39.367 6.1603" stroke-linecap="round" stroke-linejoin="round"/>
   <g>
    <path d="m2739.5 827.82-50.969 233.12c-4.6423 16.611-8.171 21.795-23.888 18.494l-33.243-10.224c-25.101-11.677-21.648-20.803-19.338-30.814l50.206-231.93c2.2822-10.793 8.4308-8.88 15.938-9.8322 22.465 0.2786 36.989 2.8744 56.751 15.763 3.3137 2.4106 6.6723 4.753 4.5429 15.429z"/>
    <path d="m2732.8 810.79c1.2724 4.3763 1.1316 8.7395 0.4884 13.098l-49.69 229.43s-2.3349 21.849-21.963 15.449c-10.012-3.216-15.808-5.5523-24.353-9.1206-14.94-5.8942-15.599-12.287-14.159-22.89l49.878-232.84c1.2913-7.2579 5.1438-7.117 9.0826-7.0304"/>
    <path d="m2724.7 806.03c1.2798 3.1074 1.4307 8.9579-0.2795 16.021l-50.314 231.96s-3.5118 9.3891-22.542 1.5979c-14.94-5.8942-19.376-5.5145-17.936-16.117l50.206-231.93c2.2823-10.793 6.6902-9.9902 14.84-9.4048"/>
    <path d="m3087.5 762.87c1.5317 6.4002-0.3282 11.408-1.369 16.751l-48.324 223.09c-2.1839 5.4864-3.9986 8.2207-12.982 5.5028-6.202-2.5125-9.408-1.1932-7.9678-11.796l50.206-231.93c0.2057-1.7209 1.166-2.6734 3.2778-2.4531l4.7919 0.89977c2.0427 0.4311 2.2643 2.291 1.8168 4.3488"/>
    <path d="m2635.7 1082.2c-14.188-5.5992-36-15.771-40.213-29.681-1.3352-3.1415-1.4706-10.992 4.3956-13.486 58.829-20.241 77.759 4.5919 93.803 32.767 6.3191 8.8629-0.7025 20.035-9.7079 21.266-14.578 0.2585-28.573-2.9852-48.278-10.866z"/>
    <path d="m2623.3 1086c-11.498-6.4249-23.013-14.366-29.314-25.611-1.3339-3.2607-2.5226-8.7951 3.3445-11.386 58.836-21.033 78.806 2.8923 94.841 32.134 6.3158 9.1983-4.6377 21.589-13.423 21.373-20.26-0.9211-33.856-6.0553-55.448-16.51z"/>
    <path d="m2621 1095.2c-11.498-6.425-23.013-14.366-29.314-25.611-1.334-3.2606-2.5226-8.795 3.3444-11.386 58.836-21.033 78.806 2.8924 94.841 32.134 6.316 9.1983-4.6377 21.589-13.423 21.372-20.26-0.921-33.856-6.0552-55.448-16.509z"/>
    <path d="m2618.9 1103.6c-11.498-6.4249-23.013-14.366-29.314-25.611-1.3341-3.2606-2.5228-8.795 3.3443-11.386 58.836-21.033 78.806 2.8924 94.841 32.134 6.3161 9.1982-4.6377 21.589-13.423 21.372-20.26-0.921-33.856-6.0553-55.448-16.51z"/>
    <path d="m2617.3 1113.7c-11.498-6.4249-23.013-14.366-29.314-25.611-1.3339-3.2605-2.5226-8.7949 3.3445-11.386 58.836-21.033 78.806 2.8923 94.841 32.134 6.3161 9.1982-4.6376 21.589-13.423 21.372-20.26-0.9211-33.856-6.0553-55.448-16.51z"/>
    <path d="m2615 1122.8c-11.498-6.4249-23.013-14.366-29.314-25.611-1.334-3.2606-2.5226-8.7949 3.3444-11.386 58.836-21.033 78.806 2.8924 94.841 32.134 6.3159 9.1982-4.6378 21.589-13.423 21.372-20.26-0.9211-33.856-6.0553-55.448-16.51z"/>
    <path d="m2682.5 1126.6c-16.034-29.242-37.672-51.326-95.466-31.521-1.7797 0.7859-2.9102 1.8427-3.5844 3.0248l0.3743 1.784 52.833 64.678"/>
    <path d="m2588.3 1113.4c-3.1594-1.9826-8.7366-2.8389-2.0351-6.014 52.004-18.627 75.622-0.9886 92.69 27.384 0.8653 1.4383-4.8851 0.6167-5.8334 0.3734l-82.7-21.352c2.5754 0.8633 2.7853 1.9409 1.4708 3.1567-3.7406 1.6051-5.0817 0.6473-6.3495 0.2326-2.9389-1.6591-1.1847-4.6756 4.7742-3.4566"/>
    <path d="m2641.5 1134.3c-3.1593-1.9826-52.829-15.646-46.128-18.821 38.646-12.478 60.475-0.3993 75.625 26.642"/>
    <path d="m2660.3 1145.6c-11.936-21.874-28.953-31.024-60.986-22.531-2.2753 1.2074-3.9429 2.3299-7.272 2.1052-3.1179-2.066-0.3528-3.3429 1.2773-3.9996 2.6477-1.4633 5.701 1.1091 8.1582 1.3885"/>
    <path d="m2650 1148.7c-14.716-21.025-21.434-23.661-48.787-16.292l-2.1939 0.5631c-4.0553-0.1328-2.9003-3.4627-0.2344-3.1603l60.929 14.568"/>
    <path d="m2620.3 1146.5-8.8709 2.6691c-8.818-0.027-3.7954-2.0325-0.6467-2.2776l28.977 4.8568c-8.9626-12.074-14.118-17.978-35.053-10.402-3.0206 0.5469-4.6041-2.346-0.2285-3.7445l45.207 10.703"/>
   </g>
  </g>
  <g transform="matrix(.22201 0 0 .22198 -244.41 -76.823)" stroke="#ffcc00" stroke-linecap="round" stroke-linejoin="round">
   <g>
    <g>
     <g stroke-width="6.0493">
      <path d="m1247.9 1085.3 150.71-115c16.644-13.709 27.513-29.151 34.643-45.714l143.21 205.36-197.5 150.36-3.9286-3.5714"/>
      <path d="m1401.4 933.18 5 7.1429c-49.044 48.107-101.9 84.766-152.86 127.14-6.1223 4.8891-11.839 8.7644-16.071 8.9285"/>
      <path d="m1271.3 1115.4 191.42-147.48"/>
      <path d="m1327.8 1063.9 61.114 79.802"/>
      <path d="m1325.8 1066.4 76.266 102.03"/>
      <path d="m1328.1 1066.9 64.397 85.358"/>
      <path d="m1342.5 1071 25.254-19.193c5.3747-3.9163 8.6864-4.7236 14.647 3.5356l46.467 63.134-35.103 28.032-17.93-24.496c-0.059-3.0305 1.5769-6.0609 5.5558-9.0914l98.995-74.751c18.434-7.7198 30.022 1.9048 38.386 19.698"/>
      <path d="m1354.1 1084.6 46.972-36.871c7.0762-5.7546 13.295-5.6095 20.203 2.0203l48.992 73.741c5.654 7.0085 3.852 11.821-9.5964 21.718l-50.508 36.871c-59.108 33.057-87.483-33.07-53.791-64.902 8.6439-9.1046 20.572-16.567 34.598-22.981"/>
     </g>
     <ellipse transform="matrix(1.1945 .73832 -.7274 1.0886 567.7 -1130.4)" cx="1383.7" cy="1147.5" rx="32.577" ry="38.891" stroke-width="4.4627"/>
     <g stroke-width="6.0493">
      <path d="m1361.1 1107.1 108.93-83.571-3.9286-6.4286"/>
      <path d="m1453.6 1209.6c-45.649-39.84 8.3965-216.71 104.29-352.14 34.685-37.315 62.244-48.696 72.782 1.8602"/>
      <path d="m1361.4 1118.9 28.928 37.857"/>
      <path d="m1380.8 1144.7c-1.4285 2.8571-0.8189 33.831-0.8189 33.831 43.399-12.114 43.308-33.149 51.429-52.5"/>
      <path d="m1526.1 1132.1-52.143 1.4286 109.64 14.286"/>
      <path d="m1537.5 1125.3 7.5 5.7143 38.571 16.071"/>
      <path d="m1556.4 1114.6 28.214 32.143c-13.22 0.1418-27.738 5.4777-42.857 13.214l-161.07 121.79 4.2857 5.7143 1.4286-5.7143 155-117.86z"/>
      <path d="m1393 1145.8 18.406 25.592"/>
      <path d="m1396.2 1149.6-15.148 86.75c-3.4706 20.4 7.9319 23.302 20.357 25"/>
      <path d="m1372.1 1263.5c3.6102-8.8489 9.0913-18.446 22.143-31.071l60.714-45c14.703-5.5971 28.629-8.0875 41.429-6.0715l43.928-29.286"/>
      <path d="m1524.6 1166.4c-14.194 1.293-27.354 7.7563-39.643 18.572l-93.214 71.428-16.071 17.5"/>
      <path d="m1452.5 1211.8-36.786 41.429"/>
      <path d="m1360.2 1184.3c28.567 6.223 57.38-9.5908 72.984-40.406"/>
      <path d="m1471 1126.3-46.972 43.942 7.8286-10.354c11.948-29.324 4.9168-51.215-14.9-65.66-10.354-4.9583-22.728-8.173-33.082-5.0507"/>
      <path d="m1637.1 895.33c-87.539-245.45 840.12-186.58 702.14 22.857l-68.463-75.017-251.53-31.315 134.86 196.47 28.796 6.7696m71.293-23.889-29.379-41.974"/>
      <path d="m1797.9 803.9 1.6378 8.1889 22.98-6.6378c4.6451-1.409 10.136-10.441-0.3317-11.551l-42.518 0.12255-34.625-14.408c-3.7623-2.8571-4.0146-6.2194-3.7373-9.0765l-193.41 63.362c13.156-0.92894 28.382 6.0049 44.901 17.855 1.1902 6.3795-0.4493 12.052-7.3236 16.415l28.284 15.91c5.1044 3.5355 5.7038 8.0812 1.5152 12.122l4.7982 3.283"/>
      <path d="m1559.7 858.82 181.32-62.882c-0.8571 1.7415-0.5459 3.65 3.283 6.0609l51.265 24.244 39.143 2.7779-214.66 70.206c-4.3343 1.7024-7.3318 0.0628-10.354-1.5152"/>
      <path d="m1712.2 808.57-9.849-6.8185-69.196 23.234 27.022 18.94 2.0203 5.0508 77.277-23.991 71.973 38.386-156.07 55.306-74.246-39.901 150.51-49.497 71.468 39.396-149 52.78-82.58-42.174 90.661-30.305"/>
      <path d="m1632.7 861.6c16.156-28.743 77.749-34.477 95.964-33.588"/>
      <path d="m1683.4 830.54 2.2729 11.112"/>
      <path d="m1646.3 834.83 1.5152 11.869"/>
      <path d="m1712 808.32-66.165 22.223 0.5051 5.3033"/>
      <path d="m1559.2 858.32 23.486 9.5964 3.5355 6.3135"/>
      <path d="m1645.3 858.57c19.776 7.4178 81.686-4.9438 88.388-16.415l-32.072-2.7779"/>
      <path d="m1669.3 849.99c0.5643 2.5842 5.0763 2.9714 10.354 3.5355l32.072-11.112 12.627-0.50508"/>
      <path d="m1705.6 840.14 1.2627 21.213"/>
      <path d="m1703.9 839.38 1.5152 23.486"/>
      <path d="m1596.3 873.72c3.621 2.594 13.725 3.5829 23.739-1.0102 9.9266-6.0836 17.356-12.034 32.072-16.92"/>
      <path d="m1806.4 815.89 3.7881 21.466"/>
      <path d="m1787.5 828.27 43.184 0.25254"/>
      <path d="m1703.4 839.25c12.839-1.9798 24.914-2.0591 33.082 0.63134l93.439-11.112"/>
      <path d="m1778.1 835.09 2.7779 11.617"/>
      <path d="m1736.3 840.14c13.141 7.8499-11.254 20.906-35.229 27.779-51.666 10.961-68.987 0.78059-68.185-5.8084"/>
      <path d="m1599.3 887.87c14.71-13.447 32.876-16.53 52.275-15.91"/>
      <path d="m1605.6 892.16 32.577 3.0305"/>
      <path d="m1672.6 882.31-18.435-0.75763c-14.365-1.8222-17.529-6.8046-17.425-12.374 0.8147-6.2293 7.4597-8.6705 15.152-13.132"/>
      <path d="m1651.9 871.96c26.18-2.8514 52.36-12.488 78.539-18.94 32.888-5.565 36.023 10.559 22.476 16.668l-79.297 28.789c-20.305 6.8109-35.304 6.8674-48.235 4.2932"/>
      <path d="m1659.4 872.46 27.022 15.657 36.87-13.132-22.981-13.763"/>
      <path d="m1683.5 870.95c-0.3018 1.7-0.3831 5.894 10.733 4.2932 6.6163-2.0203 6.6318-4.7982 6.6922-6.8185"/>
      <path d="m1675.1 881.93c15.085-0.5404 30.38-4.1841 50.508-11.112 20.375-8.3156 20.646-18.34 13.384-18.435"/>
      <path d="m1664.4 870.44c11.741 1.9159 57.429-8.1014 62.124-16.289"/>
      <path d="m1869.1 1097.6-18.054-50.342c-2.073-7.4732-1.2046-18.682 13.232-29.033 17.751-10.038 15.378-21.463 29.878-25.801 163.31-68.975 295.59-61.408 419.79-22.792m23.073-6.7154-7.7393-10.406"/>
      <path d="m1923.6 990.33c34.162-16.172 60.59 17.728 45 42.857-6.3032 14.95-8.6712 29.572-3.5714 43.571l25.714 62.143c5.2107 9.2077 12.208 15.735 19.286 22.143l-195 64.286-63.571-167.86 155.71-50 72.5 176.43-158.21 51.429-76.429-172.86"/>
      <path d="m1942.9 994.61-63.571 103.21 16.071-51.786"/>
      <path d="m1901.1 1011.4 69.286 173.57-156.07 50.714-64.51-154.55-26.704-20.023 219.61-70.624 2.4608 3.5603c-5.3403 16.829-7.5884 33.143-1.5562 48.076l49.988 123.92"/>
      <path d="m1767.5 1114.3c5.2737-29.929 28.988-35.834 48.929-23.571 12.622 11.626 28.929 19.194 43.214 12.143l9.6428-5.7143"/>
      <path d="m1756.8 1041.4-1.0714 5.3572c-33.349 4.2255-33.019 33.72-22.143 44.643 6.6898 6.9406 15.103 12.939 27.5 18.929"/>
      <path d="m1750 1080.7 22.143 12.5"/>
      <path d="m1753.6 1090.3-30.357-25 178.21-53.929"/>
     </g>
    </g>
    <g>
     <circle transform="matrix(1.0571 0 0 1.0571 -109.17 -93.845)" cx="1866.8" cy="1136" r="50" stroke-width="5.7223"/>
     <circle transform="matrix(1.0571 0 0 1.0571 -112.39 -95.274)" cx="1866.8" cy="1136" r="50" stroke-width="5.7223"/>
     <circle transform="matrix(1.0321 0 0 1.0321 -62.683 -70.266)" cx="1866.8" cy="1136" r="50" stroke-width="5.8609"/>
    </g>
    <g stroke-width="6.0493">
     <path d="m1813.2 1094.3-35.357 31.786 36.072 55.714"/>
     <path d="m1886.4 1102.4c46.89 21.024 36.882 76.046 2.565 85.736 0 0-83.726 30.866-98.572-28.214l-11.428-40c1.5672-21.447 18.552-30.486 33.214-28.214l36.071 20"/>
     <path d="m1761.1 1110 16.414 11.586 25.729 60.556 14.286 41.786"/>
     <path d="m1848.1 1111.8-26.696 14.196c15.41 17.153 33.641 29.793 63.214 24.286"/>
     <path d="m1900 1057.8-6.7857 36.071c-3.0952 7.1671-6.1905 8.7052-9.2857 9.2858l-34.643 11.428 10 24.643c5.0585 7.9806 15.656 0.4711 13.929-5.7143l-13.214-30.714"/>
     <path d="m1857.1 1131.4 27.5-7.5001c2.4095-2.56 5.3901-4.8915 3.2142-9.2857l-7.1428-17.143c-5.1472-3.7686-9.733-3.6074-13.929-0.7143l-17.679 17.5"/>
     <path d="m1847.9 1117.5-7.5 2.8571 11.072 27.857 71.428-21.429-8.9285-20c-0.5426-7.1604-1.6262-15.926-5-22.143"/>
     <path d="m1846.1 1118.2 63.572-20.357c5.3566 16.546 2.2646 16.196 2.5 22.5"/>
     <path d="m1812.9 1230.7 182.14-61.429-2.5-6.0714"/>
     <path d="m2243 767.24-8.6931 11.246-46.281-53.511c-3.8368 7.4255-6.3486 13.746-20.203 16.162-25.931 1.3673-55.11-6.7875-75.761-14.142l-36.366-18.183c-19.046-11.921-30.457 4.1964-23.234 11.617l8.5863 8.5863"/>
     <path d="m2336.6 961.19-144.04-211.96-6.566-2.0203-2.0203 6.0609c-3.6022 6.3604-8.0302 11.998-22.223 9.0914l-106.07-13.637c-24.567-7.0711-29.13-14.142-42.932-21.213l159.35 236.63c4.7221 6.4658 10.853 10.113 18.94 9.849 5.4813-0.50711 7.986-3.6189 8.0812-8.8388l-4.2932-7.0711"/>
     <path d="m2340.5 932.57 10.102 32.83c-3.099-6.9584-67.963-34.253-109.1-32.83-17.757 1.6429-19.187 8.184-24.244 13.637"/>
     <path d="m2291.8 978.11-127.03-191.52-154.55-21.213 157.58 226.27 66.248 6.9297"/>
     <path d="m2033.9 790.64 126.77 17.678 15.657-2.5254"/>
     <path d="m2161.9 787.05 23.099-9.0363 129.83 192.11 0.2967-0.16415 0.2844 0.19761m-33.314 11.525-94.569-12.246-42.426-7.5761-111.12-171.73"/>
     <path d="m2292 935.6-43.942-23.739 75.168 55.016"/>
     <path d="m2315.3 948.22-3.5355 4.5457 14.202 12.681"/>
     <path d="m2229.9 923.47 41.573 61.553m-96.121 36.432c-27.77-3.7664-34.307-17.263-36.366-22.223l17.309-48.466c1.5369-3.0205 1.4589-7.1124-0.05-10.669"/>
     <path d="m2210.2 953.27c22.9 7.512 21.15 31.255 10.077 49.394"/>
     <path d="m2171.3 859.83-142.94-17.678 119.76 171.08"/>
     <path d="m2167.3 789.12 13.132 2.0203 66.67 94.954"/>
     <path d="m2133.9 804.53-9.0914 3.283 88.641 133.85"/>
     <path transform="translate(0 -733.46)" d="m2166.8 1643-52.528-79.55 53.917 2.2728 53.482 85.185"/>
     <path d="m2173.1 805.54-20.401 9.9807"/>
     <path d="m2188 781.04 5.3033 91.419"/>
     <path d="m2174.6 802.26c1.6935 4.0534 5.6598 8.6962 5.4427 13.387l1.8809 78.285"/>
     <path d="m2195.1 958.83-57.074-85.358-15.657 2.5254s53.209 82.353 55.798 85.266c3.7344 5.117 14.354 4.8513 19.963 2.8698 6.333-2.2329 11.58-7.037 11.561-14.431"/>
     <path d="m2209.2 950.62-72.226-96.596c19.361-0.50507 39.15-5.0219 71.721 4.5457"/>
    </g>
   </g>
   <g transform="translate(-235 -559.89)" stroke-width="5.1323">
    <ellipse transform="matrix(1.0699 .49416 -.49396 1.0703 497.99 -585.32)" cx="2207.4" cy="865.9" rx="44.699" ry="27.274"/>
    <ellipse transform="matrix(1.0699 .49416 -.49396 1.0703 489.71 -573.04)" cx="2207.4" cy="865.9" rx="44.699" ry="27.274"/>
    <ellipse transform="matrix(1.0699 .49416 -.49396 1.0703 474.08 -547.33)" cx="2207.4" cy="865.9" rx="44.699" ry="27.274"/>
    <ellipse transform="matrix(1.0699 .49416 -.49396 1.0703 466.43 -534.86)" cx="2207.4" cy="865.9" rx="44.699" ry="27.274"/>
    <ellipse transform="matrix(1.0699 .49416 -.49396 1.0703 482.03 -559.2)" cx="2207.4" cy="865.9" rx="44.699" ry="27.274"/>
   </g>
   <g stroke-width="6.0493">
    <path transform="translate(0 -733.46)" d="m2138.3 1610.3-52.528-79.55 53.917 2.2728 52.411 84.113"/>
    <path d="m1375 906.04 3.5714 3.9286-37.857 27.5c-5.333 18.333-13.488 36.667-26.429 55l-64.286 49.286c-13.231 4.456-25.812 6.9594-37.143 5.7143l160 232.86"/>
    <path d="m1245 1084.3 128.57 187.5"/>
    <path d="m1232.9 1071.8 141.43 206.43"/>
    <path d="m1229.6 1066.4c10.876 2.0817 20.691-4.6874 30.357-9.6428l102.14-82.143c13.089-13.095 17.802-26.19 23.571-39.286l49.286 2.8571"/>
    <path d="m1269.6 1115.7 103.93 150.71"/>
   </g>
  </g>
 </g>
</svg>
