<svg version="1.1" viewBox="0 0 460.63 230.31" xmlns="http://www.w3.org/2000/svg" xmlns:xlink="http://www.w3.org/1999/xlink">
 <title>Abbildung für OPEN MIND Softwaredokumentation</title>
 <defs>
  <linearGradient id="linearGradient17780-7">
   <stop stop-color="#ffffff" offset="0"/>
   <stop stop-color="#00385e" offset="1"/>
  </linearGradient>
  <linearGradient id="linearGradient5616" x1="55.441" x2="74.887" y1="151.42" y2="151.64" gradientTransform="matrix(.48471 0 0 .31711 129.18 792.37)" gradientUnits="userSpaceOnUse">
   <stop stop-color="#FFFFFF" offset="0"/>
   <stop stop-color="#FCFCFC" offset=".2264"/>
   <stop stop-color="#F4F4F4" offset=".3626"/>
   <stop stop-color="#E6E6E6" offset=".475"/>
   <stop stop-color="#D1D1D1" offset=".5744"/>
   <stop stop-color="#B7B7B7" offset=".6652"/>
   <stop stop-color="#979797" offset=".7498"/>
   <stop stop-color="#707070" offset=".8297"/>
   <stop stop-color="#444444" offset=".9057"/>
   <stop stop-color="#121212" offset=".9761"/>
   <stop stop-color="#000000" offset="1"/>
  </linearGradient>
  <linearGradient id="linearGradient17101" x1="8.6557" x2="219.51" y1="976.8" y2="1080.3" gradientUnits="userSpaceOnUse" xlink:href="#linearGradient17780-7"/>
  <linearGradient id="linearGradient17117" x1="192.84" x2="381.47" y1="978.18" y2="1065.1" gradientUnits="userSpaceOnUse" xlink:href="#linearGradient17780-7"/>
  <pattern id="pattern12314" patternTransform="matrix(.047355 -.045348 8.1452 8.5058 -4.8556 857.54)" xlink:href="#pattern9529"/>
  <pattern id="pattern9529" patternTransform="matrix(.047355 -.045348 8.1452 8.5058 330.84 89.752)" xlink:href="#pattern9496"/>
  <pattern id="pattern9496" patternTransform="matrix(.047355 -.045348 8.1452 8.5058 396.14 -51.594)" xlink:href="#pattern9487"/>
  <pattern id="pattern9487" patternTransform="matrix(.056516 -.039102 6.9938 10.109 354.71 164.31)" xlink:href="#Strips1_64"/>
  <pattern id="Strips1_64" width="65" height="1" patternTransform="translate(0) scale(10)" patternUnits="userSpaceOnUse">
   <rect y="-.5" width="1" height="2" fill="black"/>
  </pattern>
  <pattern id="pattern13837" patternTransform="matrix(.047422 -.044729 8.1327 8.4145 177.99 859.9)" xlink:href="#pattern12314-1"/>
  <pattern id="pattern12314-1" patternTransform="matrix(.047355 -.045348 8.1452 8.5058 -4.8556 857.54)" xlink:href="#pattern9529-7"/>
  <pattern id="pattern9529-7" patternTransform="matrix(.047355 -.045348 8.1452 8.5058 330.84 89.752)" xlink:href="#pattern9496-4"/>
  <pattern id="pattern9496-4" patternTransform="matrix(.047355 -.045348 8.1452 8.5058 396.14 -51.594)" xlink:href="#pattern9487-0"/>
  <pattern id="pattern9487-0" patternTransform="matrix(.056516 -.039102 6.9938 10.109 354.71 164.31)" xlink:href="#Strips1_64-9"/>
  <pattern id="Strips1_64-9" width="65" height="1" patternTransform="translate(0) scale(10)" patternUnits="userSpaceOnUse">
   <rect y="-.5" width="1" height="2" fill="black"/>
  </pattern>
 </defs>
 <g transform="translate(0 -822.05)">
  <g fill="none" stroke="#d4aa00" stroke-linecap="round" stroke-linejoin="round">
   <line x1="46.544" x2="46.544" y1="897.42" y2="920.22" stroke-width="1.7717"/>
   <line x1="34.552" x2="119.74" y1="920.95" y2="920.95" stroke-width="2.2181"/>
   <g stroke-width="2.2181">
    <line x1="33.2" x2="122.9" y1="930.66" y2="930.66"/>
    <line x1="31.79" x2="125.72" y1="940.81" y2="940.81"/>
    <line x1="30.662" x2="91.873" y1="951.81" y2="951.81"/>
    <line x1="31.225" x2="69.307" y1="961.41" y2="961.41"/>
   </g>
  </g>
  <path d="m63.628 1033.4h80.309v-113.26h-25.095v21.2c-33.445-0.15761-53.599 23.647-83.099 26.783h-1.6726v-47.984h-25.097v113.26h54.655" clip-rule="evenodd" fill="url(#linearGradient17101)" fill-rule="evenodd" stroke="#4d4d4d" stroke-width=".63425"/>
  <g fill="none" stroke="#d4aa00" stroke-linecap="round" stroke-linejoin="round">
   <line x1="219.42" x2="304.33" y1="922.61" y2="922.61" stroke-width="2.2198"/>
   <line x1="219.42" x2="304.61" y1="931.47" y2="931.47" stroke-width="2.2198"/>
   <line x1="219.43" x2="308.42" y1="942.88" y2="942.88" stroke-width="2.2322"/>
  </g>
  <path d="m247.81 1034.8h80.309v-113.26h-25.095v21.2c-33.445-0.15761-53.599 23.647-83.099 26.783h-1.6726v-47.984h-25.096v113.26h54.654" clip-rule="evenodd" fill="url(#linearGradient17117)" fill-rule="evenodd" stroke="#4d4d4d" stroke-width=".63425"/>
  <g transform="matrix(1.0512 0 0 1.0512 -115.21 -15.29)" stroke="#000000" stroke-linecap="round" stroke-linejoin="round">
   <path d="m153.76 809.61c-2.9628 0.56473-6.9132 1.1822-10.435-0.66047l0.19339 63.809 21.802-0.0266-0.0759-63.783c-5.1492-1.7709-7.9146-0.1937-11.484 0.66034z" color="#000000" fill="url(#linearGradient5616)" stroke-width=".47675"/>
   <path d="m155.46 808.83c-4.1193-1.9796-8.0427-1.4444-11.992 0" color="#000000" fill="none" stroke-width=".47675"/>
  </g>
  <line x1="290.94" x2="290.94" y1="897.95" y2="920.75" fill="none" stroke="#d4aa00" stroke-linecap="round" stroke-linejoin="round" stroke-width="1.7717"/>
  <g transform="matrix(1.0512 0 0 1.0512 129.46 -15.373)" stroke="#000000" stroke-linecap="round" stroke-linejoin="round">
   <path d="m153.76 809.61c-2.9628 0.56473-6.9132 1.1822-10.435-0.66047l0.19339 63.809 21.802-0.0266-0.0759-63.783c-5.1492-1.7709-7.9146-0.1937-11.484 0.66034z" color="#000000" fill="url(#linearGradient5616)" stroke-width=".47675"/>
   <path d="m155.46 808.83c-4.1193-1.9796-8.0427-1.4444-11.992 0" color="#000000" fill="none" stroke-width=".47675"/>
  </g>
  <g>
   <circle transform="matrix(2.0105 0 0 2.0105 236.57 778.35)" cx="27.036" cy="65.457" r="2.033" d="m 29.068999,65.457001 c 0,1.122795 -0.910205,2.033 -2.033,2.033 -1.122795,0 -2.033,-0.910205 -2.033,-2.033 0,-1.122795 0.910205,-2.033 2.033,-2.033 1.122795,0 2.033,0.910205 2.033,2.033 z" fill="#000000"/>
   <circle transform="matrix(2.0105 0 0 2.0105 -7.6364 777.82)" cx="27.036" cy="65.457" r="2.033" d="m 29.068999,65.457001 c 0,1.122795 -0.910205,2.033 -2.033,2.033 -1.122795,0 -2.033,-0.910205 -2.033,-2.033 0,-1.122795 0.910205,-2.033 2.033,-2.033 1.122795,0 2.033,0.910205 2.033,2.033 z" fill="#000000"/>
   <path transform="matrix(1 .0014705 -.0014705 1 0 0)" d="m10.299 920.45 25.245-0.27624-0.07818 48.391c7.5791-1.163 14.863-1.7747 24.703-7.153 22.662-10.633 42.03-20.551 60.212-20.059l-0.0291-21.149 24.911-0.32746-0.91232 114.53-133.2 0.1958z" fill="url(#pattern12314)" opacity=".5"/>
   <path d="m193.05 922.07 25.245-0.23622-0.14934 47.804c7.5808-1.1378 14.865-1.7316 24.714-7.0303 22.677-10.471 42.06-20.241 60.241-19.728l2e-3 -20.892 24.912-0.2873-1.0807 113.14-133.2-1e-4z" fill="url(#pattern13837)" opacity=".5"/>
  </g>
  <g transform="translate(133.85 961.56)">
   <ellipse cx="-44.92" cy="-98.798" rx="13.199" ry="13.469" fill="#1f638a" stroke-linecap="round" stroke-linejoin="round" stroke-width="1.0658"/>
   <text x="-51.39423" y="-91.055557" fill="#000000" font-family="'Arial Nova', 'Arial Unicode MS', 'Yu Gothic UI', sans-serif" font-size="12.8px" letter-spacing="0px" stroke-width="1.0667" word-spacing="0px" style="line-height:0%" xml:space="preserve"><tspan x="-51.39423" y="-91.055557" fill="#ffffff" font-family="'Arial Nova', 'Arial Unicode MS', 'Yu Gothic UI', sans-serif" font-size="21.333px" stroke="#ffffff" stroke-width="1.0667" style="line-height:1.25">1</tspan></text>
  </g>
 </g>
</svg>
