<svg width="168mm" height="73mm" version="1.1" viewBox="0 0 168 73" xmlns="http://www.w3.org/2000/svg" xmlns:xlink="http://www.w3.org/1999/xlink">
 <defs>
  <linearGradient id="linearGradient29079-6" x1="1029.7" x2="1553.2" y1="1216.7" y2="943.94" gradientTransform="translate(-630.5 -1646.6)" gradientUnits="userSpaceOnUse" xlink:href="#linearGradient8517-1"/>
  <linearGradient id="linearGradient8517-1" x1="54.983" x2="54.983" y1="34.986" y2="34.986" gradientUnits="userSpaceOnUse">
   <stop stop-color="#FFFFFF" offset="0"/>
   <stop stop-color="#FCFCFC" offset=".2264"/>
   <stop stop-color="#F4F4F4" offset=".3626"/>
   <stop stop-color="#E6E6E6" offset=".475"/>
   <stop stop-color="#D1D1D1" offset=".5744"/>
   <stop stop-color="#B7B7B7" offset=".6652"/>
   <stop stop-color="#979797" offset=".7498"/>
   <stop stop-color="#707070" offset=".8297"/>
   <stop stop-color="#444444" offset=".9057"/>
   <stop stop-color="#121212" offset=".9761"/>
   <stop stop-color="#000000" offset="1"/>
  </linearGradient>
  <linearGradient id="linearGradient29081-2" x1="597.68" x2="1159.7" y1="918.07" y2="1191" gradientTransform="translate(-522.38 -1665.2)" gradientUnits="userSpaceOnUse" xlink:href="#linearGradient8517-1"/>
  <linearGradient id="linearGradient29083-1" x1="775.76" x2="823.23" y1="735.08" y2="794.99" gradientTransform="translate(-522.38 -1665.2)" gradientUnits="userSpaceOnUse" xlink:href="#linearGradient8517-1"/>
  <linearGradient id="linearGradient29085-4" x1="728.76" x2="785.73" y1="793.39" y2="858.54" gradientTransform="translate(-526.69 -1665.5)" gradientUnits="userSpaceOnUse" xlink:href="#linearGradient8517-1"/>
  <linearGradient id="linearGradient29087-6" x1="782.43" x2="844.94" y1="761.41" y2="838.55" gradientTransform="translate(-522.38 -1665.2)" gradientUnits="userSpaceOnUse" xlink:href="#linearGradient8517-1"/>
  <linearGradient id="linearGradient29089-2" x1="769.67" x2="879.58" y1="761.99" y2="880.21" gradientTransform="translate(-522.38 -1665.2)" gradientUnits="userSpaceOnUse" xlink:href="#linearGradient8517-1"/>
  <linearGradient id="linearGradient29091-9" x1="788.91" x2="894.69" y1="802.05" y2="937.83" gradientTransform="translate(-539.87 -1662.5)" gradientUnits="userSpaceOnUse" xlink:href="#linearGradient8517-1"/>
  <linearGradient id="linearGradient29093-1" x1="828.49" x2="856.11" y1="844.54" y2="877.89" gradientTransform="translate(-522.38 -1665.2)" gradientUnits="userSpaceOnUse" xlink:href="#linearGradient8517-1"/>
  <linearGradient id="linearGradient29095-5" x1="756.34" x2="831.49" y1="895.69" y2="978.82" gradientTransform="translate(-522.38 -1665.2)" gradientUnits="userSpaceOnUse" xlink:href="#linearGradient8517-1"/>
  <linearGradient id="linearGradient29097-0" x1="882.23" x2="949.5" y1="821.57" y2="897.33" gradientTransform="translate(-532.61 -1663.7)" gradientUnits="userSpaceOnUse" xlink:href="#linearGradient8517-1"/>
  <linearGradient id="linearGradient29099-3" x1="902.29" x2="940.51" y1="857.3" y2="904.39" gradientTransform="translate(-533.96 -1637.1)" gradientUnits="userSpaceOnUse" xlink:href="#linearGradient8517-1"/>
  <linearGradient id="linearGradient29101-6" x1="839.48" x2="940.12" y1="864.97" y2="978.62" gradientTransform="translate(-525.01 -1644.6)" gradientUnits="userSpaceOnUse" xlink:href="#linearGradient8517-1"/>
  <linearGradient id="linearGradient29103-4" x1="926.82" x2="974.88" y1="874.8" y2="932.12" gradientTransform="translate(-530.14 -1639.2)" gradientUnits="userSpaceOnUse" xlink:href="#linearGradient8517-1"/>
  <linearGradient id="linearGradient29105-9" x1="961.34" x2="1024.7" y1="856.46" y2="936.47" gradientTransform="translate(-525.59 -1647)" gradientUnits="userSpaceOnUse" xlink:href="#linearGradient8517-1"/>
  <linearGradient id="linearGradient29107-2" x1="990.72" x2="1037.8" y1="880.35" y2="938.69" gradientTransform="translate(-532.23 -1641.8)" gradientUnits="userSpaceOnUse" xlink:href="#linearGradient8517-1"/>
  <linearGradient id="linearGradient29109-9" x1="954.13" x2="1068.9" y1="858.91" y2="989.22" gradientTransform="translate(-520.06 -1651.3)" gradientUnits="userSpaceOnUse" xlink:href="#linearGradient8517-1"/>
  <linearGradient id="linearGradient29111-3" x1="1048.2" x2="1089.9" y1="894.24" y2="944.57" gradientTransform="translate(-525 -1641.1)" gradientUnits="userSpaceOnUse" xlink:href="#linearGradient8517-1"/>
  <linearGradient id="linearGradient29113-4" x1="1039.5" x2="1107" y1="895.78" y2="973.43" gradientTransform="translate(-510.13 -1651.5)" gradientUnits="userSpaceOnUse" xlink:href="#linearGradient8517-1"/>
  <linearGradient id="linearGradient29115-4" x1="1039.9" x2="1091.4" y1="884.9" y2="949.11" gradientTransform="translate(-463.56 -1636.7)" gradientUnits="userSpaceOnUse" xlink:href="#linearGradient8517-1"/>
  <linearGradient id="linearGradient29117-0" x1="1039.5" x2="1099.9" y1="895.78" y2="973.78" gradientTransform="translate(-443.64 -1650.2)" gradientUnits="userSpaceOnUse" xlink:href="#linearGradient8517-1"/>
  <linearGradient id="linearGradient29119-5" x1="31.756" x2="1438" y1="506.53" y2="934.53" gradientTransform="translate(-523.49 -1665.3)" gradientUnits="userSpaceOnUse">
   <stop stop-color="#000000" offset="0"/>
   <stop stop-color="#000000" stop-opacity="0" offset="1"/>
  </linearGradient>
  <linearGradient id="linearGradient28865-5" x1="6.061" x2="638.42" y1="97.905" y2="519.52" gradientTransform="matrix(.24019 0 0 .24019 -7.6767 -11.262)" gradientUnits="userSpaceOnUse" xlink:href="#linearGradient17780-7-5-9-4"/>
  <linearGradient id="linearGradient17780-7-5-9-4">
   <stop stop-color="#ffffff" offset="0"/>
   <stop stop-color="#00385e" offset="1"/>
  </linearGradient>
  <linearGradient id="linearGradient28831-6" x1="-9.8107" x2="606.7" y1="848.02" y2="1222.3" gradientTransform="matrix(.24019 0 0 .24019 46.558 -192.28)" gradientUnits="userSpaceOnUse" xlink:href="#linearGradient17780-7-5-9-4"/>
  <linearGradient id="linearGradient28746-6" x1="97.401" x2="132.71" y1="927.36" y2="927.36" gradientUnits="userSpaceOnUse" xlink:href="#linearGradient28651-7"/>
  <linearGradient id="linearGradient28651-7">
   <stop stop-color="#ffffff" offset="0"/>
   <stop stop-color="#ffffff" stop-opacity="0" offset="1"/>
  </linearGradient>
  <linearGradient id="linearGradient28748-6" x1="74.009" x2="132.71" y1="927.63" y2="927.36" gradientTransform="translate(117.09 81.071)" gradientUnits="userSpaceOnUse" xlink:href="#linearGradient28651-7"/>
  <linearGradient id="linearGradient12590-1" x1="20.845" x2="342.99" y1="98.13" y2="260.92" gradientTransform="matrix(.24019 0 0 .24019 15.466 -10.687)" gradientUnits="userSpaceOnUse" xlink:href="#linearGradient17780-7-5-9-4"/>
  <linearGradient id="linearGradient12587-6" x1="-46.004" x2="173.17" y1="837.79" y2="949.3" gradientTransform="matrix(.24019 0 0 .24019 15.793 -173.74)" gradientUnits="userSpaceOnUse" xlink:href="#linearGradient17780-7-5-9-4"/>
  <linearGradient id="linearGradient12584-2" x1="6.061" x2="389.78" y1="97.905" y2="286.62" gradientTransform="matrix(.24019 0 0 .24019 16.115 2.5976)" gradientUnits="userSpaceOnUse" xlink:href="#linearGradient17780-7-5-9-4"/>
  <radialGradient id="radialGradient34080-3-8-1" cx="426.93" cy="139.14" r="7.6407" gradientTransform="matrix(1.0603 -.16907 .18359 1.1513 -51.348 51.159)" gradientUnits="userSpaceOnUse" xlink:href="#linearGradient8517-1"/>
  <filter id="filter17167-9-9-8-0-6-7" x="-.024" y="-.024" width="1.048" height="1.048" color-interpolation-filters="sRGB">
   <feGaussianBlur stdDeviation="0.14647215"/>
  </filter>
  <filter id="filter12295-6" x="-.038159" y="-.03735" width="1.0763" height="1.0747" color-interpolation-filters="sRGB">
   <feBlend in2="BackgroundImage" mode="screen"/>
  </filter>
 </defs>
 <g>
  <g transform="matrix(.26458 0 0 .26458 -75.414 -212.05)" opacity=".79125">
   <g transform="matrix(.45657 .07317 -.07317 .45657 188.8 1269.8)" opacity=".38159" stroke="#000000">
    <path d="m568.65-595.81-2.8571 59.09 18.995-0.884 182.71-151.96 23.836-37.657 2.2549-55.007z" fill="url(#linearGradient29079-6)" stroke-width="1px"/>
    <g stroke-linecap="round" stroke-linejoin="round" stroke-width="1px">
     <path d="m138.05-795.93-2.6576 63.466c7.6255 40.38 22.909 105.65 162.14 170.43 72.524 25.518 164.3 44.211 268.26 25.646l2.984-58.864c-15.127 3.8983-63.858 5.625-63.858 5.625v7.4787c-7.321-0.1465-21.791-0.364-21.448-0.089l0.1785-7.6172c-16.42 0.2636-41.586-1.5655-41.586-1.5655l0.0683 7.2317-20.283-1.1514-0.10488-8.088c-18.88-2.3005-37.023-5.5953-37.023-5.5953l-0.0893 5.538c-8.4041-1.0154-18.571-3.7347-18.571-3.7347l0.14589-5.6603c-10.963-2.4716-22.097-5.1471-34.236-9.03l-8e-3 4.8848c-8.3107-1.3804-14.237-4.169-14.237-4.169l3e-4 -5.2715s-16.698-6.1101-31.186-12.604l-0.0657 0.1039-14.074-1.7531 6e-4 -4.8456-27.721-15.435-3e-4 4.7199c-1.8758-1.3547-10.225-6.9871-10.225-6.9871l-2e-5 -4.4018c-8.0557-5.0745-20.353-15.085-25.357-19.836l0.10017 5.3046-9.7431-7.033 0.12189-6.4139c-7.4656-7.0544-14.186-15.756-20.988-23.032l0.17857 5.4034c-3.1643-3.5155-8.0024-8.0692-9.062-10.054l0.33482-6.9741s-11.284-17.006-15.769-25.461c-0.52309-0.98618 0 5.6411 0 5.6411l-5.4296-10.376-2.5e-4 -7.8822c-4.8388-10.741-7.6444-25.341-10.792-37.548z" fill="url(#linearGradient29081-2)"/>
     <path d="m430.04-995.08v7.8918s-187.79 157.75-281.1 236.22l-0.0992-7.1996z" fill="url(#linearGradient29083-1)"/>
     <path d="m430.04-986.32 9.5013-0.24289-285.27 240.61v5.9061l-5.4611-10.799 5e-3 -0.0183z" fill="url(#linearGradient29085-4)"/>
     <path d="m495.67-990.83-0.1769 7.164s-232.52 191.65-325.84 270.11l0.26791-7.028z" fill="url(#linearGradient29087-6)"/>
     <path d="m495.71-983.54 7.3199 0.12627-324.26 274.3v5.8366c-4.366-3.067-8.1045-8.3346-9.0174-10.367z" fill="url(#linearGradient29089-2)"/>
     <path d="m552.78-974.69 6.6231 0.36611-350.2 296.54v6.0332l-9.654-7.157v-3.9516z" fill="url(#linearGradient29091-9)"/>
     <path d="m552.78-983.66v9.0637s-260.02 216.95-353.33 295.42l0.0983-5.9343z" fill="url(#linearGradient29093-1)"/>
     <path d="m597.49-973.31-0.07 7.1577s-269.66 234.56-362.97 313.02v-4.3213z" fill="url(#linearGradient29095-5)"/>
     <path d="m597.49-966.44 9.2657 3.5411-362.08 311.9v4.6093l-10.225-6.8664c94.27-79.673 269.14-233.05 363.04-313.18z" fill="url(#linearGradient29097-0)"/>
     <path d="m649.46-951.7 0.1694 6.81s-283.92 237.76-377.23 316.23l0.0983-6.4254z" fill="url(#linearGradient29099-3)"/>
     <path d="m649.73-945.25 5.3732 2.509-368.63 313.78v5.7437l-14.074-5.4431s377.28-316.72 377.33-316.59z" fill="url(#linearGradient29101-6)"/>
     <path d="m690.13-930.35-0.098 8.06s-279 232.67-372.31 311.14v-5.3093z" fill="url(#linearGradient29103-4)"/>
     <path d="m690.48-922.41 3.8554 3.134-362.37 307.29v4.8023c-5.6522-1.3433-14.237-3.7355-14.237-3.7355 95.158-80.245 277.44-231.43 372.75-311.49z" fill="url(#linearGradient29105-9)"/>
     <path d="m726.51-904.16-0.3662 7.3457-360.08 299.89 0.0893-6.0288z" fill="url(#linearGradient29107-2)"/>
     <path d="m726.73-896.43 4.8375 3.759-346.84 293.65-0.0708 5.6182c-8.2725-0.9886-13.139-2.1982-18.501-3.5102 97.268-78.749 263.92-219.99 360.57-299.51z" fill="url(#linearGradient29109-9)"/>
     <path d="m757.53-872.95 0.026 7.635s-242.38 201.45-335.69 279.91v-8.1664z" fill="url(#linearGradient29111-3)"/>
     <path d="m757.53-865.2 2.8732 2.8661-318.27 270.99v7.1927l-20.268-0.999c96.98-81.789 238.31-198.7 335.66-280.05z" fill="url(#linearGradient29113-4)"/>
     <path d="m780.93-836.24-0.022 6.3647s-204.12 169.31-297.43 247.78v-7.4094z" fill="url(#linearGradient29115-4)"/>
     <path d="m780.77-829.6 2.0879 5.765-277.94 234.31v7.3812l-21.448-0.1785v-0.06z" fill="url(#linearGradient29117-0)"/>
     <path d="m565.26-535.99 19.554-1.5178c-77.706 21.903-163.93 12.12-217.41-4.1964 66.802 13.795 132.96 18.523 197.86 5.7143z" fill="#000000"/>
    </g>
    <path d="m137.02-796.46 228.03-191.81c9.1258-3.0142 63.891-6.566 63.891-6.566l5e-5 7.5287 9.5878-0.016s6.9619-7.0669 8.6835-7.0555c16.088 0.1064 47.78 2.0845 47.78 2.0845l-0.1645 8.4969h6.9372l8.245-6.9739s28.307 4.6102 41.664 7.0984c-0.153 0.1061 0 8.8895 0 8.8895s3.9417 0.296 6.5576 0.1851c0 0 6.3174-6.7771 7.2555-6.5739 11.631 2.1431 30.901 7.732 30.901 7.732v7.1298s9.4276 3.7002 9.2657 3.295c0 0.091 0.023-7.5293 0.023-7.5293l42.82 18.354-0.1444 7.164s2.0129 0.9781 5.3824 2.4923c0.8045 0.3712 4.9959-4.8597 5.7955-4.4852 10.794 5.0549 20.09 10.302 29.745 16.19l-0.1195 8.1997 4.6897 3.2423s5.3596-5.0083 5.9715-4.6035c9.3489 6.1845 17.322 11.917 25.471 18.933 0.028 0.3675 0.028 8.4757 0.028 8.4757l4.5384 3.3207 4.4697-4.229c8.4264 7.8485 22.221 24.391 22.221 24.391l5e-4 7.8218 2.7621 2.9207 3.4734-3.5553c5.8685 8.416 17.187 29.333 17.187 29.333v7.8502l1.8523 4.8376s2.4303-3.726 2.5898-3.3496c5.582 13.169 8.0622 27.892 8.6829 41.927l-225.75 189.87c-201.5 26.405-368.23-46.601-417.79-159.42-5.8616-13.343-10.084-27.243-12.532-41.601z" fill="url(#linearGradient29119-5)" stroke-width=".5"/>
   </g>
   <ellipse transform="matrix(.66667 0 0 .66667 144.79 832.27)" cx="448" cy="279.63" rx="1.894" ry="2.0203" fill="#7d7d7d" opacity=".68687"/>
  </g>
  <path d="m18.054 23.836 30.777-17.999 0.0067 19.396-30.8 18.433z" fill="url(#linearGradient28865-5)" opacity=".66667" stroke="#4d4d4d" stroke-linecap="round" stroke-linejoin="round" stroke-width=".15234"/>
  <path d="m48.833 5.8465 0.07256 19.409 23.689 13.708 0.0324-19.229z" fill="url(#linearGradient28831-6)" stroke="#4d4d4d" stroke-linecap="round" stroke-linejoin="round" stroke-width=".15234"/>
  <g transform="matrix(.21122 0 0 .23916 -6.2557 -190.47)" stroke="#7d7d7d" stroke-linejoin="round" stroke-miterlimit="10">
   <g transform="translate(117.14 -.71429)">
    <path d="m97.779 927.61-0.01893 82.406c0.97804 4.1245 31.979 5.2861 34.707 0.1231v-82.345c-0.65141 4.8245-34.372 5.0442-34.707-0.18324z" fill="#739ba5" stroke-linecap="round" stroke-width=".57966"/>
    <path d="m132.39 927.33c0.0332 2.1621-5.9596 4.5889-17.512 4.4607-9.5917-0.10648-17.16-2.0009-17.16-4.4423s7.4621-4.4206 17.055-4.4206c9.5929 0 17.579 1.9609 17.617 4.4021z" fill="url(#linearGradient28746-6)" stroke-linecap="square" stroke-width=".63779"/>
   </g>
   <path d="m249.48 1008.4c0.0332 2.1621-5.9596 4.5889-17.512 4.4607-9.5917-0.1065-17.16-2.0009-17.16-4.4423s7.462-4.4206 17.055-4.4206c9.5929 0 17.579 1.9609 17.617 4.4022z" fill="url(#linearGradient28748-6)" stroke-linecap="square" stroke-width=".63779"/>
  </g>
  <path d="m52.59 6.1949-0.02193 20.03 22.248 14.098 9e-3 -19.676z" fill="none" opacity=".7" stroke="#4d4d4d" stroke-linecap="round" stroke-linejoin="round" stroke-width=".16781"/>
  <g transform="matrix(.18989 0 0 .21502 19.298 -178.19)" stroke="#7d7d7d" stroke-linejoin="round" stroke-miterlimit="10">
   <g transform="translate(117.14 -.71429)">
    <path d="m97.779 927.61-0.01893 82.406c0.97804 4.1245 31.979 5.2861 34.707 0.1231v-82.345c-0.65141 4.8245-34.372 5.0442-34.707-0.18324z" fill="#739ba5" stroke-linecap="round" stroke-width=".57966"/>
    <path d="m132.39 927.33c0.0332 2.1621-5.9596 4.5889-17.512 4.4607-9.5917-0.10648-17.16-2.0009-17.16-4.4423s7.4621-4.4206 17.055-4.4206c9.5929 0 17.579 1.9609 17.617 4.4021z" fill="url(#linearGradient28746-6)" stroke-linecap="square" stroke-width=".63779"/>
   </g>
   <path d="m249.48 1008.4c0.0332 2.1621-5.9596 4.5889-17.512 4.4607-9.5917-0.1065-17.16-2.0009-17.16-4.4423s7.462-4.4206 17.055-4.4206c9.5929 0 17.579 1.9609 17.617 4.4022z" fill="url(#linearGradient28748-6)" stroke-linecap="square" stroke-width=".63779"/>
  </g>
  <path d="m18.072 23.673 34.527-17.539-0.023865 20.119-34.495 17.449z" fill="none" opacity=".7" stroke="#4d4d4d" stroke-linecap="round" stroke-linejoin="round" stroke-width=".16781"/>
  <g stroke="#4d4d4d" stroke-linecap="round" stroke-linejoin="round">
   <path d="m18.136 23.697 30.78-17.876 23.75 13.838-30.827 17.427z" fill="url(#linearGradient12590-1)" opacity=".58586" stroke-width=".19123"/>
   <path d="m18.046 23.708 0.09619 20.089 23.689 13.708 0.03241-20.288z" fill="url(#linearGradient12587-6)" opacity=".53872" stroke-width=".15234"/>
   <path d="m41.845 37.167 30.777-17.47 7e-3 19.396-30.8 18.433z" fill="url(#linearGradient12584-2)" opacity=".66667" stroke-width=".15234"/>
  </g>
  <path d="m66.785 21.052c0 0.52434-1.4721 0.9494-3.2881 0.9494-1.816 0-3.2881-0.42506-3.2881-0.9494s1.4721-0.9494 3.2881-0.9494c1.816 0 3.2881 0.42506 3.2881 0.9494z" fill="none" opacity=".8" stroke="#4d4d4d" stroke-linecap="round" stroke-linejoin="round" stroke-miterlimit="10" stroke-width=".15889"/>
  <path d="m46.452 31.104c0 0.58319-1.6374 1.056-3.6572 1.056-2.0198 0-3.6572-0.47277-3.6572-1.056 0-0.5832 1.6374-1.056 3.6572-1.056 2.0198 0 3.6572 0.47276 3.6572 1.056z" fill="none" opacity=".8" stroke="#4d4d4d" stroke-linecap="round" stroke-linejoin="round" stroke-miterlimit="10" stroke-width=".17672"/>
  <g transform="matrix(.15924 0 0 .15924 -7.632 14.161)">
   <path transform="matrix(.54631 0 0 .54631 -71.401 110.28)" d="m433.36 137.91c0 4.0447-3.2789 7.3236-7.3236 7.3236s-7.3236-3.2789-7.3236-7.3236c0-4.0447 3.2789-7.3236 7.3236-7.3236s7.3236 3.2789 7.3236 7.3236z" fill="url(#radialGradient34080-3-8-1)" filter="url(#filter17167-9-9-8-0-6-7)"/>
   <circle transform="matrix(.54631 0 0 .54631 -59.752 106.92)" cx="404.76" cy="144.16" r="7.513" fill="none" stroke="#000000" stroke-linecap="round" stroke-linejoin="round" stroke-miterlimit="10" stroke-width=".64859"/>
  </g>
  <path transform="matrix(-.26458 0 0 -.26458 30.961 92.878)" d="m74.163 159.38-23.214 23.717" color="#000000" fill="#1f638a" fill-rule="evenodd" filter="url(#filter12295-6)" stroke="#1f638a" stroke-linecap="round" stroke-linejoin="round" stroke-width="1.7716"/>
  <path d="m41.826 37.117 33.015-16.405-0.0239 19.599-33.007 17.165z" fill="none" opacity=".7" stroke="#4d4d4d" stroke-linecap="round" stroke-linejoin="round" stroke-width=".16781"/>
  <g transform="matrix(.26458 0 0 .26458 16.569 -197.58)">
   <g stroke="#000000">
    <g>
     <g transform="rotate(209.8 144.2 902.12)" stroke-linecap="round" stroke-linejoin="round" stroke-width=".70866">
      <path d="m256.8 891.39-22.523-0.0967" fill="#800080"/>
      <path d="m264.86 891.4-14.355 3.4439 0.011-6.9332z" fill="#ffffff"/>
     </g>
     <text x="32.577194" y="847.78369" fill="#000000" font-family="'Arial Nova', 'Arial Unicode MS', 'Yu Gothic UI', sans-serif" letter-spacing="0px" word-spacing="0px" style="line-height:0%" xml:space="preserve"><tspan x="32.577194" y="847.78369" fill="#ff0000" font-family="'Arial Nova', 'Arial Unicode MS', 'Yu Gothic UI', sans-serif" font-size="10px" stroke="#000000" style="line-height:1.25">Y</tspan></text>
    </g>
    <g>
     <g transform="rotate(-30.831 103.15 1193)" stroke-linecap="round" stroke-linejoin="round" stroke-width=".70866">
      <path d="m256.8 891.39-22.523-0.0967" fill="#800080"/>
      <path d="m264.86 891.4-14.355 3.4439 0.011-6.9332z" fill="#ffffff"/>
     </g>
     <text x="80.219353" y="846.76166" fill="#000000" font-family="'Arial Nova', 'Arial Unicode MS', 'Yu Gothic UI', sans-serif" letter-spacing="0px" word-spacing="0px" style="line-height:0%" xml:space="preserve"><tspan x="80.219353" y="846.76166" fill="#ff0000" font-family="'Arial Nova', 'Arial Unicode MS', 'Yu Gothic UI', sans-serif" font-size="10px" stroke="#000000" style="line-height:1.25">X</tspan></text>
    </g>
    <g>
     <g stroke-linecap="round" stroke-linejoin="round" stroke-width=".70866">
      <path d="m60.835 839.55 0.11958 27.151" fill="#800080"/>
      <path d="m60.867 833.02 3.4666 14.35h-6.9332c1.228-7.2721 3.4666-14.35 3.4666-14.35z" fill="#ffffff"/>
     </g>
     <text x="60.862762" y="830.25275" fill="#000000" font-family="'Arial Nova', 'Arial Unicode MS', 'Yu Gothic UI', sans-serif" letter-spacing="0px" word-spacing="0px" style="line-height:0%" xml:space="preserve"><tspan x="60.862762" y="830.25275" fill="#ff0000" font-family="'Arial Nova', 'Arial Unicode MS', 'Yu Gothic UI', sans-serif" font-size="10px" stroke="#000000" style="line-height:1.25">Z</tspan></text>
    </g>
   </g>
   <g transform="translate(-203.35 1055.9)">
    <ellipse transform="matrix(.9071 0 0 .90186 24.872 -1.1139)" cx="263.88" cy="-208.61" rx="3.8007" ry="3.8228" color="#000000" fill="#ffffff" stroke="#000000" stroke-linecap="round" stroke-linejoin="round" stroke-width=".7835"/>
    <ellipse transform="matrix(.81605 0 0 .73445 48.612 -50.299)" cx="264.23" cy="-189.2" rx=".4342" ry=".48244" color="#000000" fill="#000000"/>
   </g>
  </g>
  <g transform="matrix(.26458 0 0 .26458 21.429 78.49)">
   <ellipse cx="-44.92" cy="-98.798" rx="13.199" ry="13.469" fill="#1f638a" stroke-linecap="round" stroke-linejoin="round" stroke-width="1.0658"/>
   <text x="-50.761276" y="-91.125885" fill="#000000" letter-spacing="0px" word-spacing="0px" style="line-height:0%" xml:space="preserve"><tspan x="-50.761276" y="-91.125885" fill="#ffffff" font-family="'Arial Nova', 'Arial Unicode MS', 'Yu Gothic UI', sans-serif" font-size="20px" stroke="#ffffff" stroke-width="1.0667" style="line-height:1.25">1</tspan></text>
  </g>
 </g>
</svg>
