<svg version="1.1" viewBox="0 0 637.8 248.03" xmlns="http://www.w3.org/2000/svg" xmlns:xlink="http://www.w3.org/1999/xlink">
 <title>Abbildung für OPEN MIND Softwaredokumentation</title>
 <g transform="translate(0 -804.33)">
  <path transform="matrix(1.7531 .066031 -.066031 1.7531 329.92 836.85)" d="m0.476 67.819 76.089 43.293 89.531-51.039-76.318-43.064z" clip-rule="evenodd" fill="#6e8ea3" fill-rule="evenodd" stroke="#000000" stroke-width=".25"/>
  <g fill="none">
   <g stroke="#ffcc00" stroke-width="3.5088">
    <path d="m343.92 948.32c0.35614 6.7439 3.7298 10.293 10.116 7.2737l130.79-74.886c6.3877-4.0807 7.4193-10.781 7.4193-17.523"/>
    <path d="m354.82 955.46c0.35438 6.7439 4.007 10.612 10.395 7.593l130.79-74.886c6.3895-4.0807 7.6491-10.912 7.6491-17.656"/>
    <path d="m366.1 962.26c0.35438 6.7439 3.3754 10.558 9.7632 7.5386l130.78-74.886c6.6825-3.9719 6.2246-11.102 6.2246-17.846"/>
    <path d="m375.53 968.28c0.35614 6.7438 4.2368 10.914 10.628 7.8982l130.78-74.886c6.3895-4.0824 7.4509-10.825 7.4509-17.57"/>
    <path d="m386.9 975.4c0.35614 6.7439 4.7614 10.365 11.147 7.3491l130.79-74.886c7.9018-4.1982 6.1474-10.793 6.1474-17.537"/>
    <path d="m397.52 982.21c0.35438 6.7439 4.0702 10.832 10.456 7.8123l130.79-74.884c6.3912-4.0842 7.4526-10.826 7.4526-17.57"/>
    <path d="m408.7 989.54c0.35614 6.7439 4.0579 10.951 10.446 7.9351l130.79-74.888c6.3895-4.0807 7.3176-10.825 7.3176-17.567"/>
    <path d="m420.05 996.41c0.35614 6.7438 3.7281 10.293 10.114 7.2736l130.79-74.884c6.3877-4.0807 7.7965-10.465 7.7965-17.209"/>
    <path d="m431.38 1003.6c-0.0263 7.0176 2.8667 9.8211 9.2544 6.8018l130.79-74.884c6.3895-4.0807 7.4509-10.825 7.4509-17.568"/>
    <path d="m441.7 1009.7c0.0193 6.8018 3.7281 10.293 10.116 7.2737l130.79-74.884c6.3895-4.0807 7.7175-10.358 7.7175-17.102"/>
    <path d="m453.01 1016.7c0 6.6509 3.4193 10.433 9.807 7.4193l130.79-74.888c6.3895-4.0807 7.6175-10.749 7.6175-17.493"/>
   </g>
   <g stroke="#e2001a" stroke-linecap="round" stroke-linejoin="round" stroke-width="3.5079">
    <line x1="601.23" x2="601.23" y1="896.33" y2="932.35"/>
    <line x1="343.96" x2="343.96" y1="912.58" y2="948.61"/>
    <path d="m590.32 925.01 0.0912-18.032c-0.17719-14.019-11.712-15.972-11.533-3.3737v14.47"/>
    <path d="m568.74 912.13 0.093-18.032c-0.17894-14.019-11.712-15.97-11.535-3.3719v14.468"/>
    <path d="m546.34 897.64 0.0895-18.032c-0.1772-14.019-11.711-15.97-11.535-3.3719v14.468"/>
    <path d="m524.36 884.23 0.093-18.032c-0.17719-14.019-11.714-15.972-11.535-3.3719v14.468"/>
    <path d="m503.63 870.89 0.0912-18.03c-0.17895-14.019-11.712-15.972-11.533-3.3719v14.468"/>
    <path d="m452.95 1016.5 0.0912-18.03c-0.17719-14.018-11.711-15.972-11.535-3.3719v14.467"/>
    <path d="m431.38 1003.6 0.0912-18.026c-0.1772-14.018-11.714-15.972-11.537-3.3754v14.47"/>
    <path d="m408.97 989.15 0.093-18.026c-0.17719-14.021-11.711-15.974-11.533-3.3754v14.467"/>
    <path d="m387 975.73 0.0912-18.03c-0.17719-14.018-11.712-15.972-11.533-3.3719v14.467"/>
    <path d="m366.26 962.39 0.093-18.03c-0.1772-14.021-11.711-15.972-11.533-3.3719v14.467"/>
   </g>
  </g>
  <path transform="matrix(1.7544 0 0 1.7544 21.164 839.33)" d="m0.476 67.819 76.089 43.293 89.531-51.039-76.318-43.064z" clip-rule="evenodd" fill="#6e8ea3" fill-rule="evenodd" stroke="#000000" stroke-width=".25"/>
  <g fill="none">
   <g stroke="#ffcc00" stroke-width="3.5088">
    <path d="m38.574 947.75c0.35614 6.7439 3.7298 10.293 10.116 7.2737l130.79-74.886c6.3877-4.0807 7.4193-10.781 7.4193-17.523"/>
    <path d="m49.476 954.88c0.35439 6.7439 4.007 10.612 10.395 7.593l130.78-74.886c6.3895-4.0807 7.6491-10.912 7.6491-17.656"/>
    <path d="m60.753 961.68c0.35439 6.7439 3.3754 10.558 9.7632 7.5386l130.78-74.886c6.6824-3.9719 6.2246-11.102 6.2246-17.846"/>
    <path d="m70.183 967.71c0.35614 6.7439 4.2368 10.914 10.628 7.8982l130.78-74.886c6.3895-4.0824 7.4509-10.825 7.4509-17.57"/>
   </g>
   <path d="m81.55 974.82c0.35614 6.7439 4.7614 10.365 11.147 7.3491l130.79-74.886c7.9018-4.1982 6.1474-10.793 6.1474-17.537" stroke="#ffdd00" stroke-width="3.5088"/>
   <g stroke="#ffcc00" stroke-width="3.5088">
    <path d="m92.18 981.64c0.35439 6.7439 4.0702 10.832 10.456 7.8123l130.79-74.884c6.3912-4.0842 7.4526-10.826 7.4526-17.57"/>
    <path d="m103.36 988.97c0.35614 6.7439 4.0579 10.951 10.446 7.9351l130.79-74.888c6.3895-4.0807 7.3176-10.825 7.3176-17.567"/>
    <path d="m114.7 995.84c0.35614 6.7439 3.7281 10.293 10.114 7.2737l130.79-74.884c6.3877-4.0807 7.7965-10.465 7.7965-17.209"/>
    <path d="m126.03 1003.1c-0.0263 7.0176 2.8667 9.8211 9.2544 6.8018l130.79-74.884c6.3895-4.0807 7.4509-10.825 7.4509-17.568"/>
    <path d="m136.35 1009.1c0.0193 6.8017 3.7281 10.293 10.116 7.2737l130.79-74.884c6.3895-4.0807 7.7175-10.358 7.7175-17.102"/>
    <path d="m147.66 1016.1c0 6.6509 3.4193 10.433 9.807 7.4193l130.79-74.888c6.3895-4.0807 7.6176-10.749 7.6176-17.493"/>
   </g>
   <g stroke="#e2001a" stroke-linecap="round" stroke-linejoin="round">
    <line x1="295.89" x2="295.89" y1="895.75" y2="931.78" stroke-width="3.5079"/>
    <line x1="38.615" x2="38.615" y1="912.01" y2="948.03" stroke-width="3.5088"/>
    <g stroke-width="1.9995">
     <polyline transform="matrix(1.7544 0 0 1.7544 21.164 839.33)" points="94.495 13.985 94.495 3.081 100.85 6.802 100.97 17.646"/>
     <polyline transform="matrix(1.7544 0 0 1.7544 21.164 839.33)" points="106.22 21.586 106.19 9.954 112.78 13.527 112.78 25.154"/>
     <polyline transform="matrix(1.7544 0 0 1.7544 21.164 839.33)" points="118.84 29.3 118.84 17.043 125.25 21.561 125.25 33.127"/>
     <polyline transform="matrix(1.7544 0 0 1.7544 21.164 839.33)" points="131.57 37.225 131.57 24.815 138.02 28.73 138.02 41.14"/>
     <polyline transform="matrix(1.7544 0 0 1.7544 21.164 839.33)" points="143.8 44.696 143.8 32.105 150.43 35.84 150.43 48.671"/>
    </g>
    <g stroke-width="2">
     <polyline transform="matrix(1.7544 0 0 1.7544 21.164 839.33)" points="16.069 65.809 16.069 56.367 22.653 60.554 22.653 69.667"/>
     <polyline transform="matrix(1.7544 0 0 1.7544 21.164 839.33)" points="27.892 73.363 27.892 63.51 34.625 67.533 34.625 77.303"/>
     <polyline transform="matrix(1.7544 0 0 1.7544 21.164 839.33)" points="40.372 81.08 40.372 70.817 46.94 74.758 46.94 84.939"/>
     <polyline transform="matrix(1.7544 0 0 1.7544 21.164 839.33)" points="53.184 89.375 53.184 78.537 59.834 82.478 59.834 93.233"/>
     <polyline transform="matrix(1.7544 0 0 1.7544 21.164 839.33)" points="65.499 96.599 65.499 85.762 72.115 89.735 72.115 100.57"/>
    </g>
   </g>
  </g>
  <g>
   <ellipse cx="113.59" cy="824.51" rx="13.199" ry="13.469" fill="#1f638a" stroke-linecap="round" stroke-linejoin="round" stroke-width="1.0658"/>
   <text x="107.74472" y="832.17694" fill="#000000" letter-spacing="0px" word-spacing="0px" style="line-height:0%" xml:space="preserve"><tspan x="107.74472" y="832.17694" fill="#ffffff" font-family="'Arial Nova', 'Arial Unicode MS', 'Yu Gothic UI', sans-serif" font-size="20px" stroke="#ffffff" stroke-width="1.0667" style="line-height:1.25">1</tspan></text>
   <ellipse cx="420.7" cy="823.79" rx="13.199" ry="13.469" fill="#1f638a" stroke-linecap="round" stroke-linejoin="round" stroke-width="1.0658"/>
   <text x="414.85767" y="831.46265" fill="#000000" letter-spacing="0px" word-spacing="0px" style="line-height:0%" xml:space="preserve"><tspan x="414.85767" y="831.46265" fill="#ffffff" font-family="'Arial Nova', 'Arial Unicode MS', 'Yu Gothic UI', sans-serif" font-size="20px" stroke="#ffffff" stroke-width="1.0667" style="line-height:1.25">2</tspan></text>
  </g>
 </g>
</svg>
