<?xml version="1.0" encoding="UTF-8"?>
<svg width="122mm" height="70mm" version="1.1" viewBox="0 0 122 70" xml:space="preserve" xmlns="http://www.w3.org/2000/svg" xmlns:xlink="http://www.w3.org/1999/xlink"><defs><linearGradient id="linearGradient19659" x1="261.94" x2="295.58" y1="59.336" y2="64.028" gradientTransform="matrix(.22167 0 0 .22167 3.5873 14.406)" gradientUnits="userSpaceOnUse" xlink:href="#linearGradient17780-7"/><linearGradient id="linearGradient17780-7"><stop stop-color="#ffffff" offset="0"/><stop stop-color="#00385e" offset="1"/></linearGradient><linearGradient id="linearGradient19661" x1="146.06" x2="295.55" y1="35.669" y2="52.856" gradientUnits="userSpaceOnUse" xlink:href="#linearGradient17780-7"/><linearGradient id="linearGradient19117" x1="90.175" x2="395.39" y1="846.49" y2="879.59" gradientTransform="matrix(.25139 0 0 .25139 -3.0763 -192.33)" gradientUnits="userSpaceOnUse" xlink:href="#linearGradient17780-7"/><linearGradient id="linearGradient19114" x1="113.75" x2="125.23" y1="9.2666" y2="16.72" gradientTransform="matrix(.22167 0 0 .22167 3.5492 14.356)" gradientUnits="userSpaceOnUse" xlink:href="#linearGradient17780-7"/><linearGradient id="linearGradient19111" x1="158.2" x2="274.37" y1="7.3257" y2="46.981" gradientTransform="matrix(.22167 0 0 .22167 3.5492 14.356)" gradientUnits="userSpaceOnUse" xlink:href="#linearGradient17780-7"/><linearGradient id="linearGradient19108" x1="236.11" x2="253.28" y1="38.949" y2="49.744" gradientTransform="matrix(.22167 0 0 .22167 3.5492 14.356)" gradientUnits="userSpaceOnUse" xlink:href="#linearGradient17780-7"/><linearGradient id="linearGradient19641" x1="57.892" x2="470.22" y1="60.835" y2="120.87" gradientUnits="userSpaceOnUse" xlink:href="#linearGradient17780-7"/><linearGradient id="linearGradient19643" x1="43.177" x2="347.67" y1="118.1" y2="164.85" gradientUnits="userSpaceOnUse" xlink:href="#linearGradient17780-7"/><linearGradient id="linearGradient19062" x1="184.71" x2="248.92" y1="940.2" y2="940.2" gradientTransform="matrix(.25139 0 0 .25139 -3.0763 -192.33)" gradientUnits="userSpaceOnUse" xlink:href="#linearGradient17780-7"/><linearGradient id="linearGradient19656" x1="309.34" x2="244.38" y1="96.707" y2="76.291" gradientTransform="matrix(.22167 0 0 .22167 3.5873 14.432)" gradientUnits="userSpaceOnUse"><stop stop-color="#00385e" offset="0"/><stop stop-color="#00385e" stop-opacity="0" offset="1"/></linearGradient><linearGradient id="linearGradient19058" x1="60.409" x2="410.68" y1="931.75" y2="974.23" gradientTransform="matrix(.25139 0 0 .25139 -3.0763 -192.33)" gradientUnits="userSpaceOnUse" xlink:href="#linearGradient17780-7"/><linearGradient id="linearGradient19054" x1="60.408" x2="372.26" y1="917.36" y2="966.29" gradientTransform="matrix(.25139 0 0 .25139 -3.0764 -192.33)" gradientUnits="userSpaceOnUse" xlink:href="#linearGradient17780-7"/><linearGradient id="linearGradient19050" x1="65.846" x2="93.822" y1="81.714" y2="97.416" gradientTransform="matrix(.22167 0 0 .22167 3.5492 14.356)" gradientUnits="userSpaceOnUse" xlink:href="#linearGradient17780-7"/><linearGradient id="linearGradient19047" x1="112.13" x2="211.45" y1="81.147" y2="128.42" gradientTransform="matrix(.22167 0 0 .22167 3.5492 14.356)" gradientUnits="userSpaceOnUse" xlink:href="#linearGradient17780-7"/><linearGradient id="linearGradient19044" x1="191.15" x2="207.25" y1="113.14" y2="123.6" gradientTransform="matrix(.22167 0 0 .22167 3.5492 14.356)" gradientUnits="userSpaceOnUse" xlink:href="#linearGradient17780-7"/><linearGradient id="linearGradient18996" x1="82.048" x2="91.485" y1="67.087" y2="67.087" gradientTransform="matrix(.22167 0 0 .22167 3.5492 14.356)" gradientUnits="userSpaceOnUse"><stop stop-color="#165489" offset="0"/><stop stop-color="#396192" offset=".091"/><stop stop-color="#7287ab" offset=".3207"/><stop stop-color="#9ba9c0" offset=".5345"/><stop stop-color="#b9c3cf" offset=".7256"/><stop stop-color="#cbd3d9" offset=".8873"/><stop stop-color="#d2dadd" offset="1"/><stop stop-color="#d5dcde" offset="1"/><stop stop-color="#dfe4e6" offset="1"/><stop stop-color="#f0f2f2" offset="1"/><stop stop-color="#ffffff" offset="1"/></linearGradient><linearGradient id="linearGradient18998" x1="191.6" x2="201.04" y1="92.255" y2="92.255" gradientTransform="matrix(.22167 0 0 .22167 3.5492 14.356)" gradientUnits="userSpaceOnUse"><stop stop-color="#165489" offset="0"/><stop stop-color="#396192" offset=".091"/><stop stop-color="#7287ab" offset=".3207"/><stop stop-color="#9ba9c0" offset=".5345"/><stop stop-color="#b9c3cf" offset=".7256"/><stop stop-color="#cbd3d9" offset=".8873"/><stop stop-color="#d2dadd" offset="1"/><stop stop-color="#d5dcde" offset="1"/><stop stop-color="#dfe4e6" offset="1"/><stop stop-color="#f0f2f2" offset="1"/><stop stop-color="#ffffff" offset="1"/></linearGradient><linearGradient id="linearGradient19019" x1="229.59" x2="204.44" y1="272.32" y2="-212.84" gradientTransform="matrix(.25139 0 0 .25139 106.69 -4.6246)" gradientUnits="userSpaceOnUse"><stop stop-color="#ff0000" stop-opacity=".2" offset="0"/><stop stop-color="#ffffff" stop-opacity="0" offset="1"/></linearGradient></defs><path d="m63.394 26.579 0.97667-1.0591-0.33782 4.9913-0.29556-2.0343z" fill="url(#linearGradient19659)" fill-rule="evenodd" stroke="#4d4d4d" stroke-linecap="round" stroke-linejoin="round" stroke-width=".16781"/><path transform="matrix(.22167 0 0 .22167 3.5492 14.356)" d="m148.2 22.832 8.2819-1.7094 46.579 13.217-6.5678 17.823-50.26-17.802z" fill="url(#linearGradient19661)" stroke="#4d4d4d" stroke-linecap="round" stroke-linejoin="round" stroke-miterlimit="10" stroke-width=".35338"/><g fill-rule="evenodd" stroke="#4d4d4d" stroke-linecap="round" stroke-linejoin="round" stroke-width=".16781"><path d="m22.36 19.468 4.3055 0.95847c0.15251-0.0013 0.23009-0.06029 0.26422-0.16071l0.4247-1.7511c0.05941-0.39102 1.2322-0.61092 1.5386 0.264l0.48191 1.1711c0.05586 0.13677 0.17578 0.22521 0.37327 0.264l6.3208 1.3832c0.1647-0.0026 0.2578-0.0736 0.26422-0.21236v-1.8081c-0.0031-0.12878 0.06872-0.20437 0.21236-0.21236l0.37306 0.05165c3.5827 0.44243 7.159 1.3109 10.574 2.4973l0.37327 0.10884c0.16824 0.08689 0.25514 0.20903 0.26932 0.36774v1.86c0.01662 0.11859 0.08113 0.19728 0.21258 0.21768l5.6316 1.4867c0.1893-0.0089 0.31078-0.0798 0.37306-0.21214l0.63706-0.90661c0.52048-0.53244 1.0134-0.37549 1.3785 0.3212l0.84941 2.124c0.0962 0.40034 0.35001 0.59097 0.798 0.63729 1.0709 0.24583 2.1963 0.52268 3.2438 0.798 0.1361 0.06029 0.24694-0.51715 0.27929-0.36951l2.7953-2.8776c-0.03236-0.14763-0.1279-0.26068-0.264-0.3212-1.0474-0.27508-2.1728-0.55194-3.2438-0.79776-0.44799-0.04633-0.7018-0.23696-0.798-0.63729l-0.84941-2.124c-0.36486-0.6969-0.85806-0.85385-1.3785-0.3212l-0.63706 0.90661c-0.06206 0.13234-0.19617 0.46172-0.38526 0.47058l-6.0205-1.5465c-0.13167-0.02043-0.19617-0.09931-0.21257-0.21768v-1.86c-0.01397-0.15871-0.64171 0.27707-0.54329-0.10396l-0.09908-0.37261c-3.4152-1.1864-6.5904-1.7534-10.173-2.1958l-0.3733-0.05165c-0.14364 8e-3 -0.21524 0.08357-0.21236 0.21235v1.3083c-0.0064 0.13876-0.31853 0.51694-0.48323 0.51958l-6.5177-1.3255c-0.1975-0.03902-0.31742-0.12746-0.37327-0.26401l-0.48191-1.1715c-0.30657-0.87491-1.3577-0.92346-1.4169-0.53244l-0.64991 1.3366c-0.03391 0.10019-0.59983 0.64727-0.75233 0.6488l-3.5972-0.83568z" fill="url(#linearGradient19117)"/><path d="m27.354 18.514c0.05941-0.39102 1.2322-0.61092 1.5386 0.264l0.48191 1.1711c0.05586 0.13677 0.17578 0.22521 0.37327 0.264l2.431-3.2882c-0.1975-0.039018-0.31742-0.12746-0.37327-0.264l-0.61512-1.6711c-0.30657-0.87491-1.4798-0.65502-1.5386-0.264z" fill="url(#linearGradient19114)"/><path d="m50.702 18.943c-0.01421-0.15871-0.10108-0.28085-0.26932-0.36774l-0.37327-0.10884c-3.4155-1.1864-6.9921-2.0548-10.574-2.4973l-0.37306-0.05165c-0.14364 8e-3 -0.34692 0.03244-0.34404 0.16123l-2.4345 3.497c-0.0031-0.12879 0.06872-0.20438 0.21236-0.21236l0.37306 0.05165c3.5827 0.44243 7.159 1.3109 10.574 2.4973l0.37327 0.10884c0.16824 0.08689 0.25514 0.20903 0.26932 0.36774l-0.02283 1.8678c7.94e-4 0.08357 0.14608 0.22566 0.1709 0.19551l2.4438-3.2993-0.02572-2.21" fill="url(#linearGradient19111)"/><path d="m54.988 24.835c0.52048-0.53244 1.0134-0.37549 1.3785 0.3212l0.84941 2.124c0.07204 0.30014 0.23297 0.48257 0.49786 0.57456l2.7167-3.6128c-0.2649-0.091992-0.37285-0.33139-0.44489-0.63153l-0.84941-2.124c-0.36486-0.6969-0.85806-0.85385-1.3785-0.3212z" fill="url(#linearGradient19108)" stroke-miterlimit="10"/></g><g stroke="#4d4d4d" stroke-linecap="round" stroke-linejoin="round"><g stroke-miterlimit="10"><path transform="matrix(.22167 0 0 .22167 3.5492 14.356)" d="m0.175 147.95 308.8 72.65 56.09-76.25-309.27-72.148-55.644 75.287" fill="none" stroke-width=".35338"/><path transform="matrix(.22167 0 0 .22167 3.5492 14.356)" d="m309.21 220.36 56.1-76.01v20.39l-56.1 74.55v-18.93" fill="#666666" stroke-width=".35338"/><path transform="matrix(.22167 0 0 .22167 3.5492 14.356)" d="m0.175 167.61 309.04 71.45v-18.93l-309.04-72.65v20.13" fill="#e6e6e6" stroke-width=".40602"/><path transform="matrix(.22167 0 0 .22167 3.5492 14.356)" d="m36.87 71.477 308.55 71.683 20.12-24.7-312.38-68.323-16.291 21.34" fill="#b3b3b3" stroke-width=".35338"/><path transform="matrix(.22167 0 0 .22167 3.5492 14.356)" d="m36.637 98.799 309.01 72.181v-27.82l-309.01-72.151v27.79" fill="#cccccc" stroke-width=".35338"/></g><g stroke-width=".35338"><path transform="matrix(.22167 0 0 .22167 3.5492 14.356)" d="m333.19 162.35-0.16474 25.78-19.515 26.72 0.26-27.58z" fill="#666666" fill-rule="evenodd"/><path transform="matrix(.22167 0 0 .22167 3.5492 14.356)" d="m313.51 187.03 20.15-24.68-312.38-68.342-16.291 21.342z" fill="#cccccb" fill-rule="evenodd"/><path transform="matrix(.22167 0 0 .22167 3.5492 14.356)" d="m4.7649 141.4 308.75 73.445v-27.82l-308.78-72.15 0.065898 26.591" fill="#e6e6e6" stroke-miterlimit="10"/></g></g><g stroke-linecap="round" stroke-linejoin="round"><path transform="matrix(.22167 0 0 .22167 3.5492 14.356)" d="m33.505 105.04 45.32-66.403-29.006-7.198-45.554 66.659 29.24 6.942" fill="#b3b3b3" stroke="#000000" stroke-miterlimit="10" stroke-width=".70677"/><path transform="matrix(.22167 0 0 .22167 3.5492 14.356)" d="m50.286 125.42 0.018-0.03 45.537-66.628-0.725-41.23-45.297 66.66z" fill="#cccccc" fill-rule="evenodd" stroke="#000000" stroke-width=".70677"/><g stroke-miterlimit="10"><path transform="matrix(.22167 0 0 .22167 3.5492 14.356)" d="m101.12 171.21-40.994-9.82v-25.43l40.994 8.88v26.37" fill="#e6e6e6" stroke="#4d4d4d" stroke-width=".35338"/><path transform="matrix(.22167 0 0 .22167 3.5492 14.356)" d="m106.15 166.18-5.03 5.03-0.25-24.68 1.68-1.69 3.6 0.73v20.61" fill="#999999" stroke="#4d4d4d" stroke-width=".35338"/><path transform="matrix(.22167 0 0 .22167 3.5492 14.356)" d="m31.821 129.49-16.781-3.6v-8.39l16.549 3.85 0.232 8.14" fill="none" stroke="#000000" stroke-width=".70677"/><path transform="matrix(.22167 0 0 .22167 3.5492 14.356)" d="m100.63 146.04-40.504-9.82v-16.32l40.744 10.08-0.24 16.06" fill="#e6e6e6" stroke="#4d4d4d" stroke-width=".35338"/><path transform="matrix(.22167 0 0 .22167 3.5492 14.356)" d="m106.87 144.84-5.75 3.11v-17.97l8.39 2.15-2.64 12.71" fill="#b3b3b3" stroke="#4d4d4d" stroke-width=".35338"/></g></g><g stroke="#000000" stroke-linecap="round" stroke-linejoin="round" stroke-miterlimit="10" stroke-width=".70677"><path transform="matrix(.22167 0 0 .22167 3.5492 14.356)" d="m245.68 155.62 54.42-67.362 27.58 5.75-54.44 67.612-27.56-6" fill="#b3b3b3"/><path transform="matrix(.22167 0 0 .22167 3.5492 14.356)" d="m273.24 161.62 54.44-67.612v16.552l-54.44 67.61v-16.55" fill="#666666"/><path transform="matrix(.22167 0 0 .22167 3.5492 14.356)" d="m228.41 127.57 54.44-67.359 17.01 4.325-54.67 67.364-16.78-4.33" fill="#b3b3b3"/><path transform="matrix(.22167 0 0 .22167 3.5492 14.356)" d="m245.19 131.9 0.49 23.72 27.56 6v16.55l-12.29-2.69-0.17 7.95-16.78-3.6v-8.13l-0.02-0.29-15.33-3.54-0.24-40.3 16.78 4.33" fill="#e6e6e6"/><path transform="matrix(.22167 0 0 .22167 3.5492 14.356)" d="m245.19 131.9 54.67-67.364 0.24 23.722-54.42 67.362-0.49-23.72" fill="#666666"/></g><g fill="#999999" stroke-linecap="round" stroke-linejoin="round" stroke-miterlimit="10"><g stroke="#000000" stroke-width=".15667"><path d="m11.12 34.391a2.1284 1.3205 0 0 1-2.1284 1.3205 2.1284 1.3205 0 0 1-2.1284-1.3205 2.1284 1.3205 0 0 1 2.1284-1.3205 2.1284 1.3205 0 0 1 2.1284 1.3205z"/><path d="m17.837 24.332a2.1284 1.3202 0 0 1-2.1284 1.3202 2.1284 1.3202 0 0 1-2.1284-1.3202 2.1284 1.3202 0 0 1 2.1284-1.3202 2.1284 1.3202 0 0 1 2.1284 1.3202z"/><path d="m67.729 30.428a1.4009 0.87182 0 0 1-1.4009 0.87182 1.4009 0.87182 0 0 1-1.4009-0.87182 1.4009 0.87182 0 0 1 1.4009-0.87182 1.4009 0.87182 0 0 1 1.4009 0.87182z"/><path d="m59.553 40.421a1.4009 0.87203 0 0 1-1.4009 0.87203 1.4009 0.87203 0 0 1-1.4009-0.87203 1.4009 0.87203 0 0 1 1.4009-0.87203 1.4009 0.87203 0 0 1 1.4009 0.87203z"/><path d="m73.284 37.42a2.1085 1.3302 0 0 1-2.1085 1.3302 2.1085 1.3302 0 0 1-2.1085-1.3302 2.1085 1.3302 0 0 1 2.1085-1.3302 2.1085 1.3302 0 0 1 2.1085 1.3302z"/><path d="m65.232 47.181a2.1085 1.33 0 0 1-2.1085 1.33 2.1085 1.33 0 0 1-2.1085-1.33 2.1085 1.33 0 0 1 2.1085-1.33 2.1085 1.33 0 0 1 2.1085 1.33z"/></g><g stroke="#4d4d4d"><path d="m72.09 51.814a1.2506 0.75212 0 0 1-1.2506 0.75212 1.2506 0.75212 0 0 1-1.2506-0.75212 1.2506 0.75212 0 0 1 1.2506-0.75212 1.2506 0.75212 0 0 1 1.2506 0.75212z" stroke-width=".078332"/><path d="m79.286 41.969a1.2506 0.79467 0 0 1-1.2506 0.79467 1.2506 0.79467 0 0 1-1.2506-0.79467 1.2506 0.79467 0 0 1 1.2506-0.79467 1.2506 0.79467 0 0 1 1.2506 0.79467z" stroke-width=".078332"/><g stroke-width=".078337"><path transform="rotate(-44.097)" d="m8.6035 88.383a0.62533 0.88846 0 0 1-0.62533 0.88846 0.62533 0.88846 0 0 1-0.62533-0.88846 0.62533 0.88846 0 0 1 0.62533-0.88846 0.62533 0.88846 0 0 1 0.62533 0.88846z"/><path transform="rotate(-44.097)" d="m6.5101 85.028a0.62533 0.88846 0 0 1-0.62533 0.88846 0.62533 0.88846 0 0 1-0.62533-0.88846 0.62533 0.88846 0 0 1 0.62533-0.88846 0.62533 0.88846 0 0 1 0.62533 0.88846z"/><path transform="rotate(-44.097)" d="m4.5123 81.895a0.62533 0.88846 0 0 1-0.62533 0.88846 0.62533 0.88846 0 0 1-0.62533-0.88846 0.62533 0.88846 0 0 1 0.62533-0.88846 0.62533 0.88846 0 0 1 0.62533 0.88846z"/><path transform="rotate(-44.097)" d="m2.3081 78.276a0.62533 0.88846 0 0 1-0.62533 0.88846 0.62533 0.88846 0 0 1-0.62533-0.88846 0.62533 0.88846 0 0 1 0.62533-0.88846 0.62533 0.88846 0 0 1 0.62533 0.88846z"/><path transform="rotate(-44.097)" d="m0.17409 75.098a0.62533 0.88846 0 0 1-0.62533 0.88846 0.62533 0.88846 0 0 1-0.62533-0.88846 0.62533 0.88846 0 0 1 0.62533-0.88846 0.62533 0.88846 0 0 1 0.62533 0.88846z"/></g></g></g><g stroke-linecap="round" stroke-linejoin="round" stroke-miterlimit="10"><path transform="matrix(.22167 0 0 .22167 3.5492 14.356)" d="m33.505 80.592v24.448l-29.24-6.942 0.234 17.012 45.787 10.31-0.467-41.228-16.314-3.6" fill="#e6e6e6" stroke="#000000" stroke-width=".70677"/><path transform="matrix(.22167 0 0 .22167 3.5492 14.356)" d="m49.819 84.192 45.297-66.66-16.057-3.342-45.554 66.402 16.314 3.6" fill="#b3b3b3" stroke="#000000" stroke-width=".70677"/><path d="m15.592 30.475a1.4009 0.87182 0 0 1-1.4009 0.87182 1.4009 0.87182 0 0 1-1.4009-0.87182 1.4009 0.87182 0 0 1 1.4009-0.87182 1.4009 0.87182 0 0 1 1.4009 0.87182z" fill="#999999" stroke="#1a1a1a" stroke-width=".15667"/><path d="m22.671 20.03a1.4009 0.87182 0 0 1-1.4009 0.87182 1.4009 0.87182 0 0 1-1.4009-0.87182 1.4009 0.87182 0 0 1 1.4009-0.87182 1.4009 0.87182 0 0 1 1.4009 0.87182z" fill="#999999" stroke="#000000" stroke-width=".15667"/><path transform="matrix(.22167 0 0 .22167 3.5492 14.356)" d="m345.42 170.98 0.23-27.91 19.81-24.59-0.07 25.8z" fill="#666666" fill-rule="evenodd" stroke="#4d4d4d" stroke-width=".35338"/><path d="m83.58 47.619c0.12656-0.63042-0.0931-1.2094-0.52092-1.3267-0.4573-0.12546-0.97845 0.32298-1.1646 1.0013-0.1862 0.67874 0.033 1.3309 0.49033 1.4561 0.13034 0.03569 0.26577 0.02461 0.39745-0.02503l0.79778-1.1057z" fill="#4d4d4d" stroke="#333333" stroke-width=".078332"/></g><g stroke="#4d4d4d" stroke-linecap="round" stroke-linejoin="round" stroke-miterlimit="10"><path transform="matrix(.22167 0 0 .22167 3.5492 14.356)" d="m259.69 122.77-0.2-57.625-178.97-40.584v64.934l179.17 33.275" fill="url(#linearGradient19641)" stroke-width=".35338"/><g stroke-width=".75704"><path transform="matrix(.22167 0 0 .22167 3.5492 14.356)" d="m43.345 130.45 179.08 41.72 9.58-66.41-179.08-41.717-9.583 66.407" fill="url(#linearGradient19643)"/><path transform="matrix(.22167 0 0 .22167 3.5492 14.356)" d="m232.01 105.76-179.08-41.717 7.958-9.921 179.03 42.107z" fill="#a8bbc8"/><path transform="matrix(.22167 0 0 .22167 3.5492 14.356)" d="m89.683 12.237 180.22 42.2-10.41 10.708-178.97-40.584z" fill="#a8bbc8"/></g><path d="m52.811 52.531s0.64707 0.21048 0.84566-0.04444l4.7202-6.1837-1.062-10.098c-0.06096-0.28284-0.24849-0.47569-0.52868-0.52845l-1.8084 2.124-0.54086 3.6456-3.1268 3.9549v3.875l2.0963-0.56038z" fill="url(#linearGradient19062)" stroke-width=".078332"/><path d="m61.108 28.872 0.045 12.774 3.5986-4.228-0.045-3.0588-1.2914-7.8612z" fill="url(#linearGradient19656)" stroke-width=".16781"/></g><g fill-rule="evenodd" stroke="#4d4d4d" stroke-linecap="round" stroke-linejoin="round"><path d="m51.31 49.276-39.11-9.6678-0.05165-3.7769 4.3055 0.95847c0.15251-0.0013 0.23031-0.06029 0.264-0.16071l0.42515-1.7511c0.05896-0.39102 1.2322-0.61092 1.5386 0.264l0.48191 1.1711c0.05564 0.13677 0.17556 0.22521 0.37306 0.264l6.3208 1.3832c0.1647-0.0026 0.2578-0.07359 0.26422-0.21236v-1.8081c-0.0029-0.12857 0.06872-0.20437 0.21236-0.21235l0.3733 0.05165c3.5824 0.44243 7.159 1.3109 10.574 2.4973l0.37327 0.10884c0.16847 0.08689 0.25514 0.20881 0.26932 0.36774v1.86c0.01638 0.11859 0.0809 0.1975 0.21258 0.21768l5.6316 1.4867c0.1893-0.0089 0.31078-0.0798 0.37306-0.21214l0.63706-0.90661c0.52048-0.53244 1.0134-0.37549 1.3785 0.3212l0.84941 2.124c0.0962 0.40034 0.35001 0.59097 0.798 0.63729 1.0709 0.24582 2.1963 0.52268 3.2438 0.798 0.08822 0.03923 0.1596 0.10041 0.2077 0.17911 0.02593 0.04256 0.04522 0.09022 0.05653 0.14231v3.8756" fill="url(#linearGradient19058)" stroke-width=".16781"/><path d="m51.311 49.277" fill="#5d7d9c" stroke-width=".078332"/><g stroke-width=".16781"><path d="m12.147 35.831 4.3056 0.95848c0.15251-0.0013 0.23031-0.06029 0.26401-0.16071l0.42516-1.7512c0.05897-0.39103 1.2322-0.61092 1.5386 0.26401l0.48191 1.1711c0.05564 0.13677 0.17556 0.22521 0.37306 0.264l6.3209 1.3832c0.1647-0.0026 0.2578-0.07359 0.26423-0.21236v-1.8081c-0.0029-0.12857 0.06872-0.20437 0.21236-0.21235l0.37327 0.05165c3.5825 0.44244 7.1591 1.3109 10.574 2.4973l0.3733 0.10884c0.16846 0.08689 0.25514 0.20881 0.26932 0.36774v1.86c0.01638 0.1186 0.08091 0.19751 0.21258 0.21768l5.6317 1.4867c0.1893-0.0089 0.31078-0.0798 0.37306-0.21214l0.63706-0.90662c0.52049-0.53245 1.0135-0.3755 1.3786 0.3212l0.84942 2.124c0.0962 0.40034 0.35002 0.59097 0.79801 0.6373 1.0709 0.24583 2.1963 0.52268 3.2438 0.79801 0.1361 0.0603 0.23186 0.17357 0.26401 0.3212l2.8104-3.5684c-0.03237-0.14763-0.1279-0.26068-0.26401-0.3212-1.0474-0.27488-2.1728-0.55195-3.2438-0.79801-0.44799-0.04633-0.70181-0.23674-0.79801-0.6373l-0.84942-2.124c-0.36486-0.6967-0.85807-0.85386-1.3786-0.3212l-0.63706 0.90662c-0.06207 0.13256-0.19618 0.46175-0.38526 0.47061l-6.0206-1.5466c-0.13145-0.02061-0.19596-0.09931-0.21258-0.21768v-1.86c-0.01397-0.15894-0.64151 0.27707-0.54353-0.10418l-0.09887-0.37264c-3.4152-1.1864-6.5905-1.7534-10.173-2.1958l-0.37306-0.05165c-0.14364 8e-3 -0.21546 0.08357-0.21235 0.21236v1.3083c-0.0064 0.13876-0.31853 0.51694-0.48324 0.51959l-6.518-1.3256c-0.19751-0.03901-0.31742-0.12746-0.37306-0.26401l-0.48191-1.1711c-0.30657-0.87492-1.3577-0.92348-1.4169-0.53245l-0.64992 1.3366c-0.03392 0.10019-0.5996 0.64728-0.75256 0.64881l-3.5975-0.83569z" fill="url(#linearGradient19054)"/><path d="m17.142 34.878c0.05896-0.39102 1.2322-0.61092 1.5386 0.26401l0.48191 1.1711c0.05564 0.13677 0.17556 0.22521 0.37306 0.264l2.4052-3.2298c-0.1975-0.03901-0.29185-0.18588-0.3475-0.32243l-0.61533-1.6711c-0.30657-0.87491-1.4794-0.65502-1.5386-0.264z" fill="url(#linearGradient19050)"/><path d="m40.489 35.306c-0.01397-0.15871-0.10086-0.28085-0.26932-0.36774l-0.37327-0.10884c-3.4149-1.1864-6.9915-2.0548-10.574-2.4973l-0.29064-0.03616c-0.16946-0.0204-0.25397 0.05775-0.35416 0.18911l-2.4758 3.3323s0.03772-0.08301 0.18137-0.09099l0.37327 0.05165c3.5824 0.44246 7.159 1.3109 10.574 2.4973l0.3733 0.10884c0.16846 0.08689 0.25514 0.20881 0.26932 0.36774l-0.02283 1.8678c7.94e-4 0.08357 0.14608 0.22566 0.17112 0.19573l2.4439-3.2996-0.02617-2.21" fill="url(#linearGradient19047)"/><path d="m44.775 41.199c0.52046-0.53244 1.0134-0.37549 1.3785 0.3212l0.84941 2.124c0.07204 0.30014 0.23297 0.48257 0.49786 0.57456l2.7699-3.67c-0.2649-0.09199-0.42582-0.27421-0.49786-0.57456l-0.84941-2.124c-0.36486-0.6969-0.85806-0.85385-1.3785-0.3212z" fill="url(#linearGradient19044)" stroke-miterlimit="10"/></g></g><g stroke="#4d4d4d" stroke-linecap="round" stroke-linejoin="round" stroke-miterlimit="10"><path d="m23.829 29.227a1.0461 0.71797 0 0 1-1.0461 0.71797 1.0461 0.71797 0 0 1-1.0461-0.71797 1.0461 0.71797 0 0 1 1.0461-0.71797 1.0461 0.71797 0 0 1 1.0461 0.71797z" fill="url(#linearGradient18996)" stroke-width=".078332"/><path d="m48.113 34.807a1.0461 0.71797 0 0 1-1.0461 0.71797 1.0461 0.71797 0 0 1-1.0461-0.71797 1.0461 0.71797 0 0 1 1.0461-0.71797 1.0461 0.71797 0 0 1 1.0461 0.71797z" fill="url(#linearGradient18998)" stroke-width=".078332"/><g stroke-width=".35338"><path transform="matrix(.22167 0 0 .22167 3.5492 14.356)" d="m101.12 171.21-40.994-9.82v-25.43l40.994 8.88v26.37" fill="#e6e6e6"/><path transform="matrix(.22167 0 0 .22167 3.5492 14.356)" d="m106.15 166.18-5.03 5.03-0.25-24.68 1.68-1.69 3.6 0.73v20.61" fill="#999999"/><path transform="matrix(.22167 0 0 .22167 3.5492 14.356)" d="m100.63 146.04-40.504-9.82v-16.32l40.744 10.08-0.24 16.06" fill="#e6e6e6"/><path transform="matrix(.22167 0 0 .22167 3.5492 14.356)" d="m106.87 144.84-5.8665 1.4558 0.11649-16.316 8.39 2.15-2.4769 12.687" fill="#b3b3b3"/></g></g><g stroke="#000000" stroke-linecap="round" stroke-linejoin="round" stroke-miterlimit="10" stroke-width=".70677"><path transform="matrix(.22167 0 0 .22167 3.5492 14.356)" d="m273.24 161.62v16.55-16.55" fill="#666666"/><path transform="matrix(.22167 0 0 .22167 3.5492 14.356)" d="m228.41 127.57 54.44-67.359 17.01 4.325-54.67 67.364-16.78-4.33" fill="#b3b3b3"/><path transform="matrix(.22167 0 0 .22167 3.5492 14.356)" d="m245.19 131.9 0.49 23.72 27.56 6v16.55l-12.29-2.69-0.17 7.95-16.78-3.6v-8.13l-0.02-0.29-15.33-3.54-0.24-40.3 16.78 4.33" fill="#e6e6e6"/><path transform="matrix(.22167 0 0 .22167 3.5492 14.356)" d="m245.19 131.9 54.67-67.364 0.24 23.722-54.42 67.362-0.49-23.72" fill="#666666"/></g><g fill="#999999" stroke="#000000" stroke-linecap="round" stroke-linejoin="round" stroke-miterlimit="10" stroke-width=".15667"><path d="m67.729 30.428a1.4009 0.87182 0 0 1-1.4009 0.87182 1.4009 0.87182 0 0 1-1.4009-0.87182 1.4009 0.87182 0 0 1 1.4009-0.87182 1.4009 0.87182 0 0 1 1.4009 0.87182z"/><path d="m59.553 40.421a1.4009 0.87203 0 0 1-1.4009 0.87203 1.4009 0.87203 0 0 1-1.4009-0.87203 1.4009 0.87203 0 0 1 1.4009-0.87203 1.4009 0.87203 0 0 1 1.4009 0.87203z"/><path d="m73.284 37.42a2.1085 1.3302 0 0 1-2.1085 1.3302 2.1085 1.3302 0 0 1-2.1085-1.3302 2.1085 1.3302 0 0 1 2.1085-1.3302 2.1085 1.3302 0 0 1 2.1085 1.3302z"/><path d="m65.232 47.181a2.1085 1.33 0 0 1-2.1085 1.33 2.1085 1.33 0 0 1-2.1085-1.33 2.1085 1.33 0 0 1 2.1085-1.33 2.1085 1.33 0 0 1 2.1085 1.33z"/></g><path d="m22.473 18.598-0.05788-12.942 40.103 9.1776 0.02774 12.632z" fill="url(#linearGradient19019)" stroke="#ff0000" stroke-dasharray="2.65748, 2.65748" stroke-linecap="round" stroke-linejoin="round" stroke-width=".23438"/><ellipse cx="30.622" cy="49.257" rx="3.4922" ry="3.5636" fill="#1f638a" stroke-linecap="round" stroke-linejoin="round" stroke-width=".28199"/><text x="28.908747" y="51.305908" fill="#000000" font-family="'Arial Nova', 'Arial Unicode MS', 'Yu Gothic UI', sans-serif" font-size="3.3866px" letter-spacing="0px" stroke-width=".28223" word-spacing="0px" style="line-height:0%" xml:space="preserve"><tspan x="28.908747" y="51.305908" fill="#ffffff" font-family="'Arial Nova', 'Arial Unicode MS', 'Yu Gothic UI', sans-serif" font-size="5.6443px" stroke="#ffffff" stroke-width=".28223" style="line-height:1.25">1</tspan></text><g transform="translate(-.409 .11686)"><ellipse cx="71.374" cy="27.045" rx="3.4922" ry="3.5636" fill="#1f638a" stroke-linecap="round" stroke-linejoin="round" stroke-width=".28199"/><text x="69.828835" y="29.074913" fill="#000000" font-family="'Arial Nova', 'Arial Unicode MS', 'Yu Gothic UI', sans-serif" font-size="3.3866px" letter-spacing="0px" stroke-width=".28223" word-spacing="0px" style="line-height:0%" xml:space="preserve"><tspan x="69.828835" y="29.074913" fill="#ffffff" font-family="'Arial Nova', 'Arial Unicode MS', 'Yu Gothic UI', sans-serif" font-size="5.6443px" stroke="#ffffff" stroke-width=".28223" style="line-height:1.25">2</tspan></text></g><g transform="translate(.11686 -.81801)"><ellipse cx="17.23" cy="8.635" rx="3.4922" ry="3.5636" fill="#1f638a" stroke-linecap="round" stroke-linejoin="round" stroke-width=".28199"/><text x="15.684083" y="10.630462" fill="#000000" font-family="'Arial Nova', 'Arial Unicode MS', 'Yu Gothic UI', sans-serif" font-size="3.3866px" letter-spacing="0px" stroke-width=".28223" word-spacing="0px" style="line-height:0%" xml:space="preserve"><tspan x="15.684083" y="10.630462" fill="#ffffff" font-family="'Arial Nova', 'Arial Unicode MS', 'Yu Gothic UI', sans-serif" font-size="5.6443px" stroke="#ffffff" stroke-width=".28223" style="line-height:1.25">3</tspan></text></g><g transform="translate(-.60333 .13654)"><ellipse cx="81.884" cy="37.178" rx="3.4922" ry="3.5636" fill="#1f638a" stroke-linecap="round" stroke-linejoin="round" stroke-width=".28199"/><text x="80.115295" y="39.310253" fill="#000000" font-family="'Arial Nova', 'Arial Unicode MS', 'Yu Gothic UI', sans-serif" font-size="3.3866px" letter-spacing="0px" stroke-width=".28223" word-spacing="0px" style="line-height:0%" xml:space="preserve"><tspan x="80.115295" y="39.310253" fill="#ffffff" font-family="'Arial Nova', 'Arial Unicode MS', 'Yu Gothic UI', sans-serif" font-size="5.6443px" stroke="#ffffff" stroke-width=".28223" style="line-height:1.25">4</tspan></text></g><g fill="#1f638a" fill-rule="evenodd" stroke="#1f638a" stroke-linecap="round" stroke-linejoin="round" stroke-width=".46"><path d="m31.23 45.692 0.70115-3.0383"/><path d="m78.85 36.664-4.1485-1.0517"/><path d="m63.6 25.65 4.3822 1.0809"/><path d="m20.655 8.5014 2.7754 0.75958"/></g></svg>
