<?xml version="1.0" encoding="UTF-8" standalone="no"?>
<svg
   version="1.1"
   viewBox="0 0 680.31 188.98"
   id="svg16491"
   xmlns="http://www.w3.org/2000/svg"
   xmlns:svg="http://www.w3.org/2000/svg">
  <defs
     id="defs16111">
    <clipPath
       id="o">
      <path
         d="m8.172 33.887-6.57-4e-3v85.414l153.6-0.164v-85.137l-5.711-4e-3"
         id="path16042" />
    </clipPath>
    <linearGradient
       id="f"
       x1="-9.501"
       x2="556.7"
       y1="25.614"
       y2="155.13"
       gradientTransform="matrix(.9783 0 0 1.1898 1.4689 26.115)"
       gradientUnits="userSpaceOnUse">
      <stop
         stop-color="#ffffff"
         offset="0"
         id="stop16045" />
      <stop
         stop-color="#00385e"
         offset="1"
         id="stop16047" />
    </linearGradient>
    <clipPath
       id="n">
      <path
         d="m173.67 34.426h153.66v84.727h-153.66z"
         id="path16050" />
    </clipPath>
    <linearGradient
       id="e"
       x1="234.09"
       x2="760.26"
       y1="954.78"
       y2="1044.6"
       gradientTransform="matrix(.80002 0 0 .80002 -19.892 -707.33)"
       gradientUnits="userSpaceOnUse">
      <stop
         stop-color="#ffffff"
         offset="0"
         id="stop16053" />
      <stop
         stop-color="#00385e"
         offset="1"
         id="stop16055" />
    </linearGradient>
    <clipPath
       id="m">
      <path
         d="m341.54 34.078h116.27v85.785h-116.27z"
         id="path16058" />
    </clipPath>
    <linearGradient
       id="d"
       x1="461.18"
       x2="845.08"
       y1="973.32"
       y2="985.46"
       gradientTransform="matrix(.80002 0 0 .80572 -35.967 -713.27)"
       gradientUnits="userSpaceOnUse">
      <stop
         stop-color="#ffffff"
         offset="0"
         id="stop16061" />
      <stop
         stop-color="#00385e"
         offset="1"
         id="stop16063" />
    </linearGradient>
    <clipPath
       id="l">
      <path
         d="m0 0h511v142h-511z"
         id="path16066" />
    </clipPath>
    <clipPath
       id="k">
      <path
         d="m0 0h6500v100h-6500z"
         id="path16069" />
    </clipPath>
    <pattern
       id="c"
       width="6500"
       height="100"
       patternTransform="matrix(.00056549 .00041938 -.096389 .087872 58.417 -180.17)"
       patternUnits="userSpaceOnUse">
      <g
         id="g16078">
        <g
           clip-path="url(#k)"
           id="g16076">
          <g
             id="g16074">
            <path
               d="m0-50h100v200h-100v-200z"
               fill="#000000"
               id="path16072" />
          </g>
        </g>
      </g>
    </pattern>
    <clipPath
       id="j">
      <path
         d="m0 0h511v142h-511z"
         id="path16081" />
    </clipPath>
    <clipPath
       id="i">
      <path
         d="m0 0h6500v100h-6500z"
         id="path16084" />
    </clipPath>
    <pattern
       id="b"
       width="6500"
       height="100"
       patternTransform="matrix(.00056549 .00041938 -.096389 .087872 234.74 -179.73)"
       patternUnits="userSpaceOnUse">
      <g
         id="g16093">
        <g
           clip-path="url(#i)"
           id="g16091">
          <g
             id="g16089">
            <path
               d="m0-50h100v200h-100v-200z"
               fill="#000000"
               id="path16087" />
          </g>
        </g>
      </g>
    </pattern>
    <clipPath
       id="h">
      <path
         d="m0 0h511v142h-511z"
         id="path16096" />
    </clipPath>
    <clipPath
       id="g">
      <path
         d="m0 0h6500v100h-6500z"
         id="path16099" />
    </clipPath>
    <pattern
       id="a"
       width="6500"
       height="100"
       patternTransform="matrix(.00056549 .00041938 -.096389 .087872 408.69 -176.94)"
       patternUnits="userSpaceOnUse">
      <g
         id="g16108">
        <g
           clip-path="url(#g)"
           id="g16106">
          <g
             id="g16104">
            <path
               d="m0-50h100v200h-100v-200z"
               fill="#000000"
               id="path16102" />
          </g>
        </g>
      </g>
    </pattern>
  </defs>
  <g
     transform="matrix(1.3333 0 0 1.3333 0 7.3911e-6)"
     id="g16489">
    <g
       id="g16487">
      <g
         id="g16119">
        <g
           clip-path="url(#o)"
           id="g16117">
          <g
             id="g16115">
            <path
               d="m8.172 33.887-6.57-4e-3v85.414l153.6-0.164v-85.137l-5.711-4e-3"
               fill="url(#f)"
               id="path16113" />
          </g>
        </g>
      </g>
      <g
         transform="scale(.82224 1)"
         id="g16123">
        <path
           d="m57.888 33.789v65.871h-47.911v-65.941"
           fill="#ffffff"
           stroke="#4d4d4d"
           stroke-linecap="round"
           stroke-linejoin="round"
           stroke-width=".55958"
           id="path16121" />
      </g>
      <g
         id="g16127">
        <path
           d="m98.902 33.789v52.379c0 7.418-4.992 13.488-11.093 13.488h-17.207c-6.102 0-11.094-6.07-11.094-13.488v-52.453"
           fill="#ffffff"
           stroke="#4d4d4d"
           stroke-linecap="round"
           stroke-linejoin="round"
           stroke-width=".5074"
           id="path16125" />
      </g>
      <g
         transform="scale(.82224 1)"
         id="g16131">
        <path
           d="m182.59 33.848 0.105 49.574-9.673 16.117-28.077 0.098-10.485-16.215-0.175-49.504"
           fill="#ffffff"
           stroke="#4d4d4d"
           stroke-width=".55958"
           id="path16129" />
      </g>
      <text
         transform="matrix(.82223 0 0 1 73.733 75.401)"
         fill="#ffffff"
         font-family="'Arial Nova', 'Arial Unicode MS', 'Yu Gothic UI', sans-serif"
         font-size="11.684px"
         xml:space="preserve"
         id="text16135"><tspan
           x="0"
           y="0"
           id="tspan16133">2</tspan></text>
      <g
         transform="scale(.82224 1)"
         id="g16139">
        <path
           d="m188.76 119.16-186.81 0.164v-85.515l186.81 0.113z"
           fill="none"
           stroke="#4d4d4d"
           stroke-linecap="round"
           stroke-linejoin="round"
           stroke-width=".55958"
           id="path16137" />
      </g>
      <g
         id="g16147">
        <g
           clip-path="url(#n)"
           id="g16145">
          <g
             id="g16143">
            <path
               d="m173.67 34.426h153.66v84.727h-153.66z"
               fill="url(#e)"
               id="path16141" />
          </g>
        </g>
      </g>
      <g
         transform="scale(.82724 1)"
         id="g16151">
        <path
           d="m377.85 34.195 0.142 44.149-13.009 21.679-37.771 0.129-14.114-21.808-0.265-44.11"
           fill="#ffffff"
           stroke="#4d4d4d"
           stroke-width=".55789"
           id="path16149" />
      </g>
      <g
         id="g16155">
        <path
           d="m242.53 34.273v52.387c0 7.375-4.992 13.406-11.089 13.406h-32.313c-6.102 0-11.094-6.031-11.094-13.406v-52.484"
           fill="#ffffff"
           stroke="#4d4d4d"
           stroke-linecap="round"
           stroke-linejoin="round"
           stroke-width=".5074"
           id="path16153" />
      </g>
      <path
         d="m206.27 80.895c0 0.949-0.797 1.718-1.778 1.718-0.984 0-1.781-0.769-1.781-1.718 0-0.95 0.797-1.719 1.781-1.719 0.981 0 1.778 0.769 1.778 1.719z"
         fill="#000000"
         id="path16157" />
      <g
         id="g16161">
        <path
           d="m261.95 85.395 7.973 14.871-13.453-0.055"
           fill="none"
           stroke="#000000"
           stroke-linecap="round"
           stroke-linejoin="round"
           stroke-miterlimit="10"
           stroke-width=".5074"
           id="path16159" />
      </g>
      <g
         id="g16165">
        <path
           d="m172.91 34.141h154.25v84.93h-154.25z"
           fill="none"
           stroke="#4d4d4d"
           stroke-linecap="round"
           stroke-linejoin="round"
           stroke-width=".5074"
           id="path16163" />
      </g>
      <g
         id="g16169">
        <path
           d="m312.62 78.496v21.75"
           fill="none"
           stroke="#000000"
           stroke-linecap="round"
           stroke-linejoin="round"
           stroke-miterlimit="10"
           stroke-width=".5074"
           id="path16167" />
      </g>
      <path
         d="m270.44 92.477-0.32-2.082-3.039 1.789z"
         fill="#34679b"
         fill-rule="evenodd"
         id="path16171" />
      <path
         d="m263.58 104.46 1.641-0.75-1.993-3.301z"
         fill="#34679b"
         fill-rule="evenodd"
         id="path16173" />
      <g
         id="g16177">
        <path
           d="m262.96 99.797c-8e-3 -0.141-0.012-0.281-0.012-0.426 0-2.586 1.18-4.836 2.914-5.984"
           fill="none"
           stroke="#000000"
           stroke-linecap="round"
           stroke-linejoin="round"
           stroke-miterlimit="10"
           stroke-width=".5074"
           id="path16175" />
      </g>
      <g
         id="g16181">
        <path
           d="m267.25 108.34c-0.848-0.656-1.566-1.535-2.101-2.571"
           fill="none"
           stroke="#000000"
           stroke-linecap="round"
           stroke-linejoin="round"
           stroke-miterlimit="10"
           stroke-width=".39968"
           id="path16179" />
      </g>
      <g
         id="g16185">
        <path
           d="m192.98 96.195 3.067-9.453 5.289 3.903z"
           fill="#000000"
           stroke="#000000"
           stroke-linecap="round"
           stroke-linejoin="round"
           stroke-width=".79935"
           id="path16183" />
      </g>
      <g
         id="g16189">
        <path
           d="m193.13 96.047 12.035-16.117"
           fill="#000000"
           stroke="#000000"
           stroke-linecap="round"
           stroke-linejoin="round"
           stroke-width=".5074"
           id="path16187" />
      </g>
      <g
         id="g16193">
        <path
           d="m266.94 92.746 3.637-3.848 1.625 3.082z"
           fill="#000000"
           stroke="#000000"
           stroke-linecap="round"
           stroke-linejoin="round"
           stroke-width=".79935"
           id="path16191" />
      </g>
      <g
         id="g16197">
        <path
           d="m271.4 90.422c1.304-0.75 2.804-0.926 4.277-0.613"
           fill="none"
           stroke="#000000"
           stroke-linecap="round"
           stroke-linejoin="round"
           stroke-miterlimit="10"
           stroke-width=".5074"
           id="path16195" />
      </g>
      <g
         id="g16201">
        <path
           d="m263.19 100.92 3.547 3.93-3.199 1.375z"
           fill="#000000"
           stroke="#000000"
           stroke-linecap="round"
           stroke-linejoin="round"
           stroke-width=".79935"
           id="path16199" />
      </g>
      <g
         id="g16205">
        <path
           d="m313.45 99.945 5.035-1.644-0.043 3.484z"
           fill="#000000"
           stroke="#000000"
           stroke-linecap="round"
           stroke-linejoin="round"
           stroke-width=".79935"
           id="path16203" />
      </g>
      <g
         id="g16209">
        <path
           d="m301.4 100.09-5-1.742-0.023 3.484z"
           fill="#000000"
           stroke="#000000"
           stroke-linecap="round"
           stroke-linejoin="round"
           stroke-width=".79935"
           id="path16207" />
      </g>
      <g
         id="g16213">
        <path
           d="m288.38 100.02 13.121 0.074"
           fill="none"
           stroke="#000000"
           stroke-linecap="round"
           stroke-linejoin="round"
           stroke-miterlimit="10"
           stroke-width=".5074"
           id="path16211" />
      </g>
      <g
         id="g16217">
        <path
           d="m313.22 99.871 13.121 0.07"
           fill="none"
           stroke="#000000"
           stroke-linecap="round"
           stroke-linejoin="round"
           stroke-miterlimit="10"
           stroke-width=".5074"
           id="path16215" />
      </g>
      <g
         id="g16221">
        <path
           d="m301.99 78.422v21.75"
           fill="none"
           stroke="#000000"
           stroke-linecap="round"
           stroke-linejoin="round"
           stroke-miterlimit="10"
           stroke-width=".5074"
           id="path16219" />
      </g>
      <g
         id="g16229">
        <g
           clip-path="url(#m)"
           id="g16227">
          <g
             id="g16225">
            <path
               d="m341.54 34.078h116.27v85.785h-116.27z"
               fill="url(#d)"
               id="path16223" />
          </g>
        </g>
      </g>
      <g
         transform="scale(1 .89873)"
         id="g16233">
        <path
           d="m433.97 37.766v78.005h-69.567v-78.088"
           fill="#ffffff"
           stroke="#4d4d4d"
           stroke-width=".53524"
           id="path16231" />
      </g>
      <path
         d="m364.6 95.297h69.102v8.559h-69.102z"
         fill="#fcd6a4"
         id="path16235" />
      <g
         id="g16239">
        <path
           d="m341.45 33.801h116.27v85.18h-116.27z"
           fill="none"
           stroke="#4d4d4d"
           stroke-width=".5074"
           id="path16237" />
      </g>
      <g
         id="g16243">
        <path
           d="m341.45 119h116.27"
           fill="none"
           stroke="#4d4d4d"
           stroke-width=".2"
           id="path16241" />
      </g>
      <g
         id="g16247">
        <path
           d="m434.48 104.07h34.176"
           fill="none"
           stroke="#000000"
           stroke-linecap="round"
           stroke-linejoin="round"
           stroke-width=".5074"
           id="path16245" />
      </g>
      <g
         id="g16251">
        <path
           d="m434.34 95.297 34.754 0.098"
           fill="none"
           stroke="#000000"
           stroke-linecap="round"
           stroke-linejoin="round"
           stroke-width=".5074"
           id="path16249" />
      </g>
      <g
         id="g16255">
        <path
           d="m364.91 95.219h68.684"
           fill="none"
           stroke="#800080"
           stroke-linecap="round"
           stroke-linejoin="round"
           stroke-width="1.4174"
           id="path16253" />
      </g>
      <g
         id="g16259">
        <path
           d="m372.05 94.094-0.074-49.844"
           fill="#34679b"
           stroke="#000000"
           stroke-linecap="round"
           stroke-linejoin="round"
           stroke-miterlimit="10"
           stroke-width=".5074"
           id="path16257" />
      </g>
      <g
         id="g16263">
        <path
           d="m372.01 42.742-4.133 12.207 8.754-0.109z"
           fill="#000000"
           stroke="#000000"
           stroke-linecap="round"
           stroke-linejoin="round"
           stroke-width=".79935"
           id="path16261" />
      </g>
      <g
         id="g16267">
        <path
           d="m469.23 104.59-4.132 12.207 8.754-0.11z"
           fill="#000000"
           stroke="#000000"
           stroke-linecap="round"
           stroke-linejoin="round"
           stroke-width=".79935"
           id="path16265" />
      </g>
      <g
         id="g16271">
        <path
           d="m469.07 126.42 0.121-18.402"
           fill="#34679b"
           stroke="#000000"
           stroke-miterlimit="10"
           stroke-width=".5074"
           id="path16269" />
      </g>
      <g
         id="g16275">
        <path
           d="m416.26 94.32 4.133-12.207-8.754 0.11z"
           fill="#000000"
           stroke="#000000"
           stroke-linecap="round"
           stroke-linejoin="round"
           stroke-width=".79935"
           id="path16273" />
      </g>
      <g
         id="g16279">
        <path
           d="m415.94 85.32-0.066-11.023"
           fill="#34679b"
           stroke="#000000"
           stroke-miterlimit="10"
           stroke-width=".5074"
           id="path16277" />
      </g>
      <g
         id="g16283">
        <path
           d="m469.16 94.621 4.129-12.207-8.75 0.109z"
           fill="#000000"
           stroke="#000000"
           stroke-linecap="round"
           stroke-linejoin="round"
           stroke-width=".79935"
           id="path16281" />
      </g>
      <g
         id="g16287">
        <path
           d="m468.86 85.844-0.074-7.055"
           fill="#34679b"
           stroke="#000000"
           stroke-miterlimit="10"
           stroke-width=".5074"
           id="path16285" />
      </g>
      <g
         id="g16299">
        <g
           id="g16297">
          <g
             clip-path="url(#l)"
             opacity=".5"
             id="g16295">
            <g
               id="g16293">
              <g
                 id="g16291" />
            </g>
          </g>
        </g>
      </g>
      <path
         d="m140.22 65.895c0 5.578-4.43 10.101-9.899 10.101-5.468 0-9.898-4.523-9.898-10.101 0-5.579 4.43-10.102 9.898-10.102 5.469 0 9.899 4.523 9.899 10.102z"
         fill="#1f638a"
         id="path16301" />
      <text
         transform="translate(122.59 71.643)"
         fill="#ffffff"
         font-family="'Arial Nova', 'Arial Unicode MS', 'Yu Gothic UI', sans-serif"
         font-size="16px"
         xml:space="preserve"
         id="text16305"><tspan
           x="0"
           y="0"
           id="tspan16303">2</tspan></text>
      <g
         id="g16309">
        <path
           d="m130.67 71.645h-7.578c0-0.645 0.223-1.297 0.672-1.954 0.445-0.664 1.289-1.5 2.531-2.5 0.75-0.601 1.422-1.234 2.016-1.89 0.593-0.664 0.89-1.336 0.89-2.016 0-0.57-0.203-1.047-0.609-1.422-0.406-0.383-0.922-0.578-1.547-0.578-0.637 0-1.168 0.199-1.594 0.594-0.429 0.387-0.64 0.965-0.64 1.734l-1.454-0.172c0.094-1.07 0.473-1.89 1.141-2.453 0.676-0.57 1.535-0.859 2.578-0.859 1.125 0 2 0.312 2.625 0.937s0.938 1.375 0.938 2.25c0 0.743-0.266 1.485-0.797 2.235-0.524 0.75-1.574 1.758-3.156 3.015-0.825 0.668-1.371 1.243-1.641 1.719h5.625z"
           fill="none"
           stroke="#ffffff"
           stroke-width=".80002"
           id="path16307" />
      </g>
      <text
         transform="translate(129.35 71.643)"
         fill="#ffffff"
         font-family="'Arial Nova', 'Arial Unicode MS', 'Yu Gothic UI', sans-serif"
         font-size="16px"
         xml:space="preserve"
         id="text16313"><tspan
           x="0"
           y="0"
           id="tspan16311">3</tspan></text>
      <g
         id="g16317">
        <path
           d="m135.41 65.441c0.707 0.137 1.242 0.481 1.609 1.032 0.364 0.554 0.547 1.152 0.547 1.797 0 1.043-0.382 1.902-1.14 2.578-0.762 0.668-1.668 1-2.719 1-1.012 0-1.844-0.297-2.5-0.891s-1.043-1.375-1.156-2.344l1.406-0.187c0.144 0.75 0.398 1.312 0.766 1.687 0.375 0.375 0.867 0.563 1.484 0.563 0.656 0 1.207-0.227 1.656-0.688 0.457-0.457 0.688-1.019 0.688-1.687 0-0.645-0.211-1.176-0.625-1.594-0.407-0.426-0.946-0.641-1.61-0.641-0.273 0-0.605 0.055-1 0.157l0.172-1.235c0.375 0 0.672-0.015 0.891-0.047 0.219-0.039 0.461-0.128 0.734-0.265 0.27-0.145 0.492-0.348 0.672-0.61 0.176-0.269 0.266-0.597 0.266-0.984 0-0.57-0.196-1.016-0.578-1.328-0.375-0.313-0.809-0.469-1.297-0.469-0.575 0-1.039 0.184-1.391 0.547-0.355 0.356-0.578 0.867-0.672 1.531l-1.406-0.25c0.176-1 0.578-1.742 1.203-2.234 0.625-0.5 1.367-0.75 2.234-0.75 0.946 0 1.739 0.293 2.375 0.875 0.645 0.574 0.969 1.277 0.969 2.109 0 1.063-0.527 1.828-1.578 2.297z"
           fill="none"
           stroke="#ffffff"
           stroke-width=".80002"
           id="path16315" />
      </g>
      <path
         d="m89.887 65.895c0 5.578-4.434 10.101-9.899 10.101-5.468 0-9.898-4.523-9.898-10.101 0-5.579 4.43-10.102 9.898-10.102 5.465 0 9.899 4.523 9.899 10.102z"
         fill="#1f638a"
         id="path16319" />
      <text
         transform="translate(72.324 71.644)"
         fill="#ffffff"
         font-family="'Arial Nova', 'Arial Unicode MS', 'Yu Gothic UI', sans-serif"
         font-size="16px"
         xml:space="preserve"
         id="text16323"><tspan
           x="0"
           y="0"
           id="tspan16321">2</tspan></text>
      <g
         id="g16327">
        <path
           d="m80.402 71.645h-7.578c0-0.645 0.223-1.297 0.672-1.954 0.445-0.664 1.289-1.5 2.531-2.5 0.75-0.601 1.422-1.234 2.016-1.89 0.594-0.664 0.891-1.336 0.891-2.016 0-0.57-0.204-1.047-0.61-1.422-0.406-0.383-0.922-0.578-1.547-0.578-0.636 0-1.168 0.199-1.593 0.594-0.43 0.387-0.641 0.965-0.641 1.734l-1.453-0.172c0.094-1.07 0.473-1.89 1.14-2.453 0.676-0.57 1.536-0.859 2.579-0.859 1.125 0 2 0.312 2.625 0.937s0.937 1.375 0.937 2.25c0 0.743-0.266 1.485-0.797 2.235-0.523 0.75-1.574 1.758-3.156 3.015-0.824 0.668-1.371 1.243-1.641 1.719h5.625z"
           fill="none"
           stroke="#ffffff"
           stroke-width=".80002"
           id="path16325" />
      </g>
      <text
         transform="translate(79.085 71.644)"
         fill="#ffffff"
         font-family="'Arial Nova', 'Arial Unicode MS', 'Yu Gothic UI', sans-serif"
         font-size="16px"
         xml:space="preserve"
         id="text16331"><tspan
           x="0"
           y="0"
           id="tspan16329">2</tspan></text>
      <g
         id="g16335">
        <path
           d="m87.164 71.645h-7.578c0-0.645 0.223-1.297 0.672-1.954 0.445-0.664 1.289-1.5 2.531-2.5 0.75-0.601 1.422-1.234 2.016-1.89 0.593-0.664 0.89-1.336 0.89-2.016 0-0.57-0.203-1.047-0.609-1.422-0.406-0.383-0.922-0.578-1.547-0.578-0.637 0-1.168 0.199-1.594 0.594-0.429 0.387-0.64 0.965-0.64 1.734l-1.453-0.172c0.093-1.07 0.472-1.89 1.14-2.453 0.676-0.57 1.535-0.859 2.578-0.859 1.125 0 2 0.312 2.625 0.937s0.938 1.375 0.938 2.25c0 0.743-0.266 1.485-0.797 2.235-0.523 0.75-1.574 1.758-3.156 3.015-0.825 0.668-1.371 1.243-1.641 1.719h5.625z"
           fill="none"
           stroke="#ffffff"
           stroke-width=".80002"
           id="path16333" />
      </g>
      <path
         d="m37.867 65.895c0 5.578-4.433 10.101-9.898 10.101-5.469 0-9.903-4.523-9.903-10.101 0-5.579 4.434-10.102 9.903-10.102 5.465 0 9.898 4.523 9.898 10.102z"
         fill="#1f638a"
         id="path16337" />
      <text
         transform="translate(21.86 71.647)"
         fill="#ffffff"
         font-family="'Arial Nova', 'Arial Unicode MS', 'Yu Gothic UI', sans-serif"
         font-size="16px"
         xml:space="preserve"
         id="text16341"><tspan
           x="0"
           y="0"
           id="tspan16339">2</tspan></text>
      <g
         id="g16345">
        <path
           d="m29.938 71.648h-7.579c0-0.644 0.223-1.296 0.672-1.953 0.446-0.664 1.289-1.5 2.532-2.5 0.75-0.601 1.421-1.234 2.015-1.89 0.594-0.664 0.891-1.336 0.891-2.016 0-0.57-0.203-1.047-0.61-1.422-0.406-0.383-0.921-0.578-1.546-0.578-0.637 0-1.168 0.199-1.594 0.594-0.43 0.387-0.641 0.965-0.641 1.734l-1.453-0.172c0.094-1.07 0.473-1.89 1.141-2.453 0.675-0.57 1.535-0.859 2.578-0.859 1.125 0 2 0.312 2.625 0.937s0.937 1.375 0.937 2.25c0 0.743-0.265 1.485-0.797 2.235-0.523 0.75-1.574 1.758-3.156 3.015-0.824 0.668-1.371 1.243-1.64 1.719h5.625z"
           fill="none"
           stroke="#ffffff"
           stroke-width=".80002"
           id="path16343" />
      </g>
      <text
         transform="translate(27.576 71.647)"
         fill="#ffffff"
         font-family="'Arial Nova', 'Arial Unicode MS', 'Yu Gothic UI', sans-serif"
         font-size="16px"
         xml:space="preserve"
         id="text16349"><tspan
           x="0"
           y="0"
           id="tspan16347">1</tspan></text>
      <g
         id="g16353">
        <path
           d="m33.574 71.648h-1.406v-8.968c-0.699 0.668-1.637 1.234-2.813 1.703v-1.36c1.614-0.781 2.719-1.742 3.313-2.89h0.906z"
           fill="none"
           stroke="#ffffff"
           stroke-width=".80002"
           id="path16351" />
      </g>
      <g
         id="g16365">
        <g
           id="g16363">
          <g
             clip-path="url(#j)"
             opacity=".5"
             id="g16361">
            <g
               id="g16359">
              <g
                 id="g16357" />
            </g>
          </g>
        </g>
      </g>
      <path
         d="m316.07 65.895c0 5.578-4.433 10.101-9.898 10.101-5.469 0-9.902-4.523-9.902-10.101 0-5.579 4.433-10.102 9.902-10.102 5.465 0 9.898 4.523 9.898 10.102z"
         fill="#1f638a"
         id="path16367" />
      <text
         transform="translate(298.42 71.649)"
         fill="#ffffff"
         font-family="'Arial Nova', 'Arial Unicode MS', 'Yu Gothic UI', sans-serif"
         font-size="16px"
         xml:space="preserve"
         id="text16371"><tspan
           x="0"
           y="0"
           id="tspan16369">2</tspan></text>
      <g
         id="g16375">
        <path
           d="m306.5 71.648h-7.578c0-0.644 0.223-1.296 0.672-1.953 0.445-0.664 1.289-1.5 2.531-2.5 0.75-0.601 1.422-1.234 2.016-1.89 0.593-0.664 0.89-1.336 0.89-2.016 0-0.57-0.203-1.047-0.609-1.422-0.406-0.383-0.922-0.578-1.547-0.578-0.637 0-1.168 0.199-1.594 0.594-0.429 0.387-0.64 0.965-0.64 1.734l-1.453-0.172c0.093-1.07 0.472-1.89 1.14-2.453 0.676-0.57 1.535-0.859 2.578-0.859 1.125 0 2 0.312 2.625 0.937s0.938 1.375 0.938 2.25c0 0.743-0.266 1.485-0.797 2.235-0.524 0.75-1.574 1.758-3.156 3.015-0.825 0.668-1.371 1.243-1.641 1.719h5.625z"
           fill="none"
           stroke="#ffffff"
           stroke-width=".80002"
           id="path16373" />
      </g>
      <text
         transform="translate(305.18 71.649)"
         fill="#ffffff"
         font-family="'Arial Nova', 'Arial Unicode MS', 'Yu Gothic UI', sans-serif"
         font-size="16px"
         xml:space="preserve"
         id="text16379"><tspan
           x="0"
           y="0"
           id="tspan16377">6</tspan></text>
      <g
         id="g16383">
        <path
           d="m307.28 65.742c0.645-1.008 1.567-1.515 2.766-1.515 0.937 0 1.734 0.351 2.391 1.046 0.656 0.688 0.984 1.571 0.984 2.641 0 1.094-0.328 2.027-0.984 2.797-0.657 0.762-1.528 1.141-2.61 1.141-1.094 0-2.031-0.407-2.812-1.219-0.774-0.82-1.157-2.27-1.157-4.344 0-2.039 0.348-3.578 1.047-4.609 0.707-1.032 1.723-1.547 3.047-1.547 0.864 0 1.594 0.242 2.188 0.719 0.593 0.48 0.953 1.195 1.078 2.14l-1.406 0.125c-0.25-1.219-0.899-1.828-1.938-1.828-0.719 0-1.34 0.359-1.859 1.078-0.512 0.711-0.766 1.836-0.766 3.375zm2.516 4.938c0.645 0 1.164-0.258 1.562-0.782 0.407-0.519 0.61-1.148 0.61-1.89 0-0.738-0.203-1.348-0.61-1.828-0.398-0.489-0.933-0.735-1.609-0.735-0.617 0-1.148 0.231-1.594 0.688-0.449 0.461-0.672 1.058-0.672 1.797 0 0.761 0.219 1.414 0.657 1.953 0.437 0.531 0.988 0.797 1.656 0.797z"
           fill="none"
           stroke="#ffffff"
           stroke-width=".80002"
           id="path16381" />
      </g>
      <path
         d="m281.27 65.895c0 5.578-4.434 10.101-9.899 10.101-5.469 0-9.898-4.523-9.898-10.101 0-5.579 4.429-10.102 9.898-10.102 5.465 0 9.899 4.523 9.899 10.102z"
         fill="#1f638a"
         id="path16385" />
      <text
         transform="translate(263.61 71.646)"
         fill="#ffffff"
         font-family="'Arial Nova', 'Arial Unicode MS', 'Yu Gothic UI', sans-serif"
         font-size="16px"
         xml:space="preserve"
         id="text16389"><tspan
           x="0"
           y="0"
           id="tspan16387">2</tspan></text>
      <g
         id="g16393">
        <path
           d="m271.69 71.645h-7.579c0-0.645 0.223-1.297 0.672-1.954 0.446-0.664 1.289-1.5 2.532-2.5 0.75-0.601 1.421-1.234 2.015-1.89 0.594-0.664 0.891-1.336 0.891-2.016 0-0.57-0.203-1.047-0.61-1.422-0.406-0.383-0.921-0.578-1.546-0.578-0.637 0-1.168 0.199-1.594 0.594-0.43 0.387-0.641 0.965-0.641 1.734l-1.453-0.172c0.094-1.07 0.473-1.89 1.141-2.453 0.675-0.57 1.535-0.859 2.578-0.859 1.125 0 2 0.312 2.625 0.937s0.937 1.375 0.937 2.25c0 0.743-0.265 1.485-0.797 2.235-0.523 0.75-1.574 1.758-3.156 3.015-0.824 0.668-1.371 1.243-1.64 1.719h5.625z"
           fill="none"
           stroke="#ffffff"
           stroke-width=".80002"
           id="path16391" />
      </g>
      <text
         transform="translate(270.37 71.646)"
         fill="#ffffff"
         font-family="'Arial Nova', 'Arial Unicode MS', 'Yu Gothic UI', sans-serif"
         font-size="16px"
         xml:space="preserve"
         id="text16397"><tspan
           x="0"
           y="0"
           id="tspan16395">5</tspan></text>
      <g
         id="g16401">
        <path
           d="m272.9 64.754c0.696-0.477 1.422-0.719 2.172-0.719 0.957 0 1.789 0.34 2.5 1.016 0.707 0.679 1.063 1.578 1.063 2.703 0 1.137-0.36 2.105-1.078 2.906-0.719 0.793-1.664 1.188-2.829 1.188-0.96 0-1.789-0.27-2.484-0.813-0.699-0.539-1.101-1.344-1.203-2.406l1.469-0.109c0.125 0.73 0.379 1.273 0.765 1.625 0.395 0.355 0.879 0.531 1.453 0.531 0.708 0 1.282-0.266 1.719-0.797 0.446-0.539 0.672-1.207 0.672-2 0-0.801-0.23-1.43-0.687-1.891-0.45-0.468-1.028-0.703-1.735-0.703-0.906 0-1.601 0.371-2.078 1.11l-1.328-0.157 1.109-5.89h5.688v1.359h-4.563z"
           fill="none"
           stroke="#ffffff"
           stroke-width=".80002"
           id="path16399" />
      </g>
      <path
         d="m223.77 65.895c0 5.578-4.434 10.101-9.899 10.101-5.469 0-9.898-4.523-9.898-10.101 0-5.579 4.429-10.102 9.898-10.102 5.465 0 9.899 4.523 9.899 10.102z"
         fill="#1f638a"
         id="path16403" />
      <text
         transform="translate(205.99 71.646)"
         fill="#ffffff"
         font-family="'Arial Nova', 'Arial Unicode MS', 'Yu Gothic UI', sans-serif"
         font-size="16px"
         xml:space="preserve"
         id="text16407"><tspan
           x="0"
           y="0"
           id="tspan16405">2</tspan></text>
      <g
         id="g16411">
        <path
           d="m214.07 71.645h-7.578c0-0.645 0.223-1.297 0.672-1.954 0.445-0.664 1.289-1.5 2.531-2.5 0.75-0.601 1.422-1.234 2.016-1.89 0.594-0.664 0.891-1.336 0.891-2.016 0-0.57-0.203-1.047-0.61-1.422-0.406-0.383-0.922-0.578-1.547-0.578-0.636 0-1.168 0.199-1.593 0.594-0.43 0.387-0.641 0.965-0.641 1.734l-1.453-0.172c0.094-1.07 0.473-1.89 1.141-2.453 0.675-0.57 1.535-0.859 2.578-0.859 1.125 0 2 0.312 2.625 0.937s0.937 1.375 0.937 2.25c0 0.743-0.265 1.485-0.797 2.235-0.523 0.75-1.574 1.758-3.156 3.015-0.824 0.668-1.371 1.243-1.641 1.719h5.625z"
           fill="none"
           stroke="#ffffff"
           stroke-width=".80002"
           id="path16409" />
      </g>
      <text
         transform="translate(213.1 71.65)"
         fill="#ffffff"
         font-family="'Arial Nova', 'Arial Unicode MS', 'Yu Gothic UI', sans-serif"
         font-size="16px"
         xml:space="preserve"
         id="text16415"><tspan
           x="0"
           y="0"
           id="tspan16413">4</tspan></text>
      <g
         id="g16419">
        <path
           d="m221.25 68.914h-1.547v2.734h-1.406v-2.734h-4.953v-1.297l5.203-7.422h1.156v7.422h1.547zm-2.953-1.297v-5.172h-0.031l-3.547 5.172z"
           fill="none"
           stroke="#ffffff"
           stroke-width=".80002"
           id="path16417" />
      </g>
      <g
         id="g16431">
        <g
           id="g16429">
          <g
             clip-path="url(#h)"
             opacity=".5"
             id="g16427">
            <g
               id="g16425">
              <g
                 id="g16423" />
            </g>
          </g>
        </g>
      </g>
      <path
         d="m425.46 65.895c0 5.578-4.434 10.101-9.902 10.101-5.465 0-9.899-4.523-9.899-10.101 0-5.579 4.434-10.102 9.899-10.102 5.468 0 9.902 4.523 9.902 10.102z"
         fill="#1f638a"
         id="path16433" />
      <text
         transform="translate(407.83 71.643)"
         fill="#ffffff"
         font-family="'Arial Nova', 'Arial Unicode MS', 'Yu Gothic UI', sans-serif"
         font-size="16px"
         xml:space="preserve"
         id="text16437"><tspan
           x="0"
           y="0"
           id="tspan16435">2</tspan></text>
      <g
         id="g16441">
        <path
           d="m415.91 71.645h-7.578c0-0.645 0.223-1.297 0.672-1.954 0.445-0.664 1.289-1.5 2.531-2.5 0.75-0.601 1.422-1.234 2.016-1.89 0.594-0.664 0.89-1.336 0.89-2.016 0-0.57-0.203-1.047-0.609-1.422-0.406-0.383-0.922-0.578-1.547-0.578-0.637 0-1.168 0.199-1.594 0.594-0.429 0.387-0.64 0.965-0.64 1.734l-1.453-0.172c0.093-1.07 0.472-1.89 1.14-2.453 0.676-0.57 1.535-0.859 2.578-0.859 1.125 0 2 0.312 2.625 0.937s0.938 1.375 0.938 2.25c0 0.743-0.266 1.485-0.797 2.235-0.523 0.75-1.574 1.758-3.156 3.015-0.824 0.668-1.371 1.243-1.641 1.719h5.625z"
           fill="none"
           stroke="#ffffff"
           stroke-width=".80002"
           id="path16439" />
      </g>
      <text
         transform="translate(414.59 71.643)"
         fill="#ffffff"
         font-family="'Arial Nova', 'Arial Unicode MS', 'Yu Gothic UI', sans-serif"
         font-size="16px"
         xml:space="preserve"
         id="text16445"><tspan
           x="0"
           y="0"
           id="tspan16443">8</tspan></text>
      <g
         id="g16449">
        <path
           d="m420.65 65.441c1.438 0.461 2.157 1.438 2.157 2.938 0 0.98-0.356 1.805-1.063 2.469-0.699 0.668-1.601 1-2.703 1-1.117 0-2.027-0.332-2.734-1-0.7-0.676-1.047-1.516-1.047-2.516 0-0.727 0.195-1.363 0.593-1.906 0.395-0.539 0.926-0.867 1.594-0.985v-0.031c-1.148-0.351-1.719-1.125-1.719-2.312 0-0.844 0.301-1.547 0.907-2.11 0.601-0.57 1.394-0.859 2.375-0.859 0.988 0 1.789 0.293 2.406 0.875 0.613 0.586 0.922 1.293 0.922 2.125 0 1.125-0.563 1.887-1.688 2.281zm-1.609-0.546c0.52 0 0.957-0.165 1.312-0.5 0.364-0.344 0.547-0.766 0.547-1.266 0-0.52-0.183-0.957-0.547-1.313-0.367-0.351-0.808-0.531-1.328-0.531-0.543 0-0.992 0.18-1.343 0.531-0.344 0.344-0.516 0.758-0.516 1.235 0 0.562 0.176 1.012 0.531 1.344 0.364 0.335 0.813 0.5 1.344 0.5zm0 5.781c0.656 0 1.203-0.211 1.641-0.641 0.445-0.426 0.671-0.976 0.671-1.656 0-0.688-0.23-1.25-0.687-1.688-0.449-0.437-1-0.656-1.656-0.656-0.688 0-1.246 0.231-1.672 0.688-0.43 0.449-0.641 0.992-0.641 1.625 0 0.656 0.219 1.211 0.656 1.656 0.446 0.449 1.008 0.672 1.688 0.672z"
           fill="none"
           stroke="#ffffff"
           stroke-width=".80002"
           id="path16447" />
      </g>
      <path
         d="m394.05 65.895c0 5.578-4.434 10.101-9.903 10.101-5.464 0-9.898-4.523-9.898-10.101 0-5.579 4.434-10.102 9.898-10.102 5.469 0 9.903 4.523 9.903 10.102z"
         fill="#1f638a"
         id="path16451" />
      <text
         transform="translate(376.43 71.649)"
         fill="#ffffff"
         font-family="'Arial Nova', 'Arial Unicode MS', 'Yu Gothic UI', sans-serif"
         font-size="16px"
         xml:space="preserve"
         id="text16455"><tspan
           x="0"
           y="0"
           id="tspan16453">2</tspan></text>
      <g
         id="g16459">
        <path
           d="m384.51 71.648h-7.578c0-0.644 0.222-1.296 0.672-1.953 0.445-0.664 1.289-1.5 2.531-2.5 0.75-0.601 1.422-1.234 2.015-1.89 0.594-0.664 0.891-1.336 0.891-2.016 0-0.57-0.203-1.047-0.609-1.422-0.407-0.383-0.922-0.578-1.547-0.578-0.637 0-1.168 0.199-1.594 0.594-0.43 0.387-0.641 0.965-0.641 1.734l-1.453-0.172c0.094-1.07 0.473-1.89 1.141-2.453 0.676-0.57 1.535-0.859 2.578-0.859 1.125 0 2 0.312 2.625 0.937s0.938 1.375 0.938 2.25c0 0.743-0.266 1.485-0.797 2.235-0.524 0.75-1.575 1.758-3.157 3.015-0.824 0.668-1.371 1.243-1.64 1.719h5.625z"
           fill="none"
           stroke="#ffffff"
           stroke-width=".80002"
           id="path16457" />
      </g>
      <text
         transform="translate(383.19 71.649)"
         fill="#ffffff"
         font-family="'Arial Nova', 'Arial Unicode MS', 'Yu Gothic UI', sans-serif"
         font-size="16px"
         xml:space="preserve"
         id="text16463"><tspan
           x="0"
           y="0"
           id="tspan16461">7</tspan></text>
      <g
         id="g16467">
        <path
           d="m391.38 61.43c-1.125 1.242-2.102 2.773-2.922 4.593-0.824 1.813-1.309 3.688-1.453 5.625h-1.438c0.032-1.562 0.411-3.269 1.141-5.125 0.738-1.863 1.691-3.468 2.859-4.812h-5.609v-1.359h7.422z"
           fill="none"
           stroke="#ffffff"
           stroke-width=".80002"
           id="path16465" />
      </g>
      <path
         d="m477.82 65.895c0 5.578-4.433 10.101-9.898 10.101-5.469 0-9.899-4.523-9.899-10.101 0-5.579 4.43-10.102 9.899-10.102 5.465 0 9.898 4.523 9.898 10.102z"
         fill="#1f638a"
         id="path16469" />
      <text
         transform="translate(460.18 71.651)"
         fill="#ffffff"
         font-family="'Arial Nova', 'Arial Unicode MS', 'Yu Gothic UI', sans-serif"
         font-size="16px"
         xml:space="preserve"
         id="text16473"><tspan
           x="0"
           y="0"
           id="tspan16471">2</tspan></text>
      <g
         id="g16477">
        <path
           d="m468.26 71.652h-7.578c0-0.644 0.222-1.297 0.672-1.953 0.445-0.664 1.289-1.5 2.531-2.5 0.75-0.601 1.422-1.234 2.015-1.89 0.594-0.664 0.891-1.336 0.891-2.016 0-0.57-0.203-1.047-0.609-1.422-0.407-0.383-0.922-0.578-1.547-0.578-0.637 0-1.168 0.199-1.594 0.594-0.43 0.386-0.641 0.965-0.641 1.734l-1.453-0.172c0.094-1.07 0.473-1.89 1.141-2.453 0.676-0.57 1.535-0.859 2.578-0.859 1.125 0 2 0.312 2.625 0.937s0.938 1.375 0.938 2.25c0 0.742-0.266 1.485-0.797 2.235-0.524 0.75-1.575 1.757-3.157 3.015-0.824 0.668-1.371 1.242-1.64 1.719h5.625z"
           fill="none"
           stroke="#ffffff"
           stroke-width=".80002"
           id="path16475" />
      </g>
      <text
         transform="translate(466.94 71.651)"
         fill="#ffffff"
         font-family="'Arial Nova', 'Arial Unicode MS', 'Yu Gothic UI', sans-serif"
         font-size="16px"
         xml:space="preserve"
         id="text16481"><tspan
           x="0"
           y="0"
           id="tspan16479">9</tspan></text>
      <g
         id="g16485">
        <path
           d="m473.72 66.262c-0.274 0.449-0.653 0.812-1.141 1.093-0.48 0.274-1 0.407-1.562 0.407-0.938 0-1.743-0.344-2.407-1.032-0.656-0.695-0.984-1.601-0.984-2.718 0-1.133 0.332-2.063 1-2.782 0.676-0.726 1.547-1.093 2.609-1.093 1.063 0 1.977 0.418 2.75 1.25 0.782 0.824 1.172 2.258 1.172 4.297 0 2.062-0.355 3.609-1.062 4.64-0.711 1.024-1.727 1.531-3.047 1.531-0.856 0-1.574-0.234-2.156-0.703-0.575-0.476-0.922-1.195-1.047-2.156l1.343-0.109c0.207 1.199 0.836 1.797 1.891 1.797 0.863 0 1.523-0.391 1.984-1.172 0.457-0.789 0.688-1.875 0.688-3.25zm-2.36 0.265c0.688 0 1.227-0.238 1.625-0.718 0.407-0.489 0.61-1.11 0.61-1.86s-0.211-1.379-0.625-1.89c-0.407-0.508-0.934-0.766-1.578-0.766-0.657 0-1.211 0.273-1.657 0.812-0.449 0.543-0.672 1.196-0.672 1.954 0 0.73 0.219 1.324 0.657 1.781 0.445 0.461 0.992 0.687 1.64 0.687z"
           fill="none"
           stroke="#ffffff"
           stroke-width=".80002"
           id="path16483" />
      </g>
    </g>
  </g>
</svg>
