<?xml version="1.0" encoding="UTF-8"?>
<svg width="13cm" height="7.5cm" version="1.1" xmlns="http://www.w3.org/2000/svg" xmlns:cc="http://creativecommons.org/ns#" xmlns:dc="http://purl.org/dc/elements/1.1/" xmlns:rdf="http://www.w3.org/1999/02/22-rdf-syntax-ns#" xmlns:xlink="http://www.w3.org/1999/xlink">
 <title>Abbildung für OPEN MIND Softwaredokumentation</title>
 <defs>
  <linearGradient id="linearGradient17780-7-9">
   <stop stop-color="#fff" offset="0"/>
   <stop stop-color="#dfe6ea" offset=".125"/>
   <stop stop-color="#bfcdd6" offset=".25"/>
   <stop stop-color="#7f9bae" offset=".5"/>
   <stop stop-color="#00385e" offset="1"/>
  </linearGradient>
  <linearGradient id="linearGradient12267-8" x1="-214.86" x2="5.197" y1="929.35" y2="926.57" gradientTransform="matrix(1.1877 0 0 1.1877 561.31 -105.83)" gradientUnits="userSpaceOnUse" xlink:href="#linearGradient17780-7-9"/>
  <linearGradient id="linearGradient12259-6" x1="-123.44" x2="-239" y1="1082.8" y2="963.46" gradientTransform="scale(1.0667)" gradientUnits="userSpaceOnUse" xlink:href="#linearGradient17780-7-9"/>
  <linearGradient id="linearGradient12275-0" x1="-162.01" x2="99.99" y1="159.92" y2="215.98" gradientTransform="matrix(1.1877 0 0 1.1877 561.31 870.51)" gradientUnits="userSpaceOnUse" xlink:href="#linearGradient17780-7-9"/>
  <linearGradient id="linearGradient12251-0" x1="-242.56" x2="-28.189" y1="136.34" y2="282.05" gradientTransform="matrix(1.1877 0 0 1.1877 561.31 870.51)" gradientUnits="userSpaceOnUse" xlink:href="#linearGradient17780-7-9"/>
  <linearGradient id="linearGradient12511-8" x1="-242.53" x2="59.965" y1="889.4" y2="1100.1" gradientTransform="matrix(1.1877 0 0 1.1877 561.31 -105.83)" gradientUnits="userSpaceOnUse" xlink:href="#linearGradient17780-7-9"/>
  <linearGradient id="linearGradient3192" x1="-242.53" x2="59.965" y1="889.4" y2="1100.1" gradientTransform="matrix(1.1877 0 0 1.1877 307.43 -104.97)" gradientUnits="userSpaceOnUse" xlink:href="#linearGradient17780-7-9"/>
  <linearGradient id="linearGradient3194" x1="-242.56" x2="-28.189" y1="136.34" y2="282.05" gradientTransform="matrix(1.1877 0 0 1.1877 307.43 871.37)" gradientUnits="userSpaceOnUse" xlink:href="#linearGradient17780-7-9"/>
  <linearGradient id="linearGradient3196" x1="-162.01" x2="99.99" y1="159.92" y2="215.98" gradientTransform="matrix(1.1877 0 0 1.1877 307.43 871.37)" gradientUnits="userSpaceOnUse" xlink:href="#linearGradient17780-7-9"/>
  <linearGradient id="linearGradient3200" x1="-214.86" x2="196.98" y1="929.35" y2="912.64" gradientTransform="matrix(1.1877 0 0 1.1877 307.43 -104.97)" gradientUnits="userSpaceOnUse" xlink:href="#linearGradient17780-7-9"/>
 </defs>
 <metadata>
  <rdf:RDF>
   <cc:Work rdf:about="">
    <dc:format>image/svg+xml</dc:format>
    <dc:type rdf:resource="http://purl.org/dc/dcmitype/StillImage"/>
    <dc:title>Abbildung für OPEN MIND Softwaredokumentation</dc:title>
    <dc:creator>
     <cc:Agent>
      <dc:title>OPEN MIND Technologies AG</dc:title>
     </cc:Agent>
    </dc:creator>
    <dc:rights>
     <cc:Agent>
      <dc:title>Alle Rechte vorbehalten.</dc:title>
     </cc:Agent>
    </dc:rights>
    <dc:publisher>
     <cc:Agent>
      <dc:title>Technische Redaktion</dc:title>
     </cc:Agent>
    </dc:publisher>
   </cc:Work>
  </rdf:RDF>
 </metadata>
 <g transform="translate(0 -839.06)">
  <g transform="translate(235.43)">
   <g stroke="#4d4d4d" stroke-linecap="round" stroke-linejoin="round" stroke-width=".67654">
    <path d="m19.751 962.56 116.23-50.32 70.873 43.981c0.01 0-39.791-5.5588-69.862 21.726-30.708 23.149-78.668 6.9921-78.512 7.9732z" fill="url(#linearGradient3192)"/>
    <path d="m19.754 962.58 38.878 23.419-0.13598 47.415 56.832 34.396 0.0241 36.212-95.641-64.779z" fill="url(#linearGradient3194)"/>
    <path d="m115.41 1067.8 114.84-49.255-0.0467 35.983-114.81 49.63z" fill="url(#linearGradient3196)"/>
   </g>
   <g transform="matrix(1.1135 0 0 1.1135 332.32 -233.94)" stroke="#4d4d4d" stroke-linecap="round" stroke-linejoin="round" stroke-width=".6076">
    <path d="m-126.18 1103.6 34.335 21.093-103.1 44.338-51.051-30.814" fill="url(#linearGradient12259-6)"/>
    <path d="m-246.02 1138.2s43.093 13.636 70-6.4761c15.676-13.993 32.789-21.095 63.316-19.992" fill="none"/>
   </g>
   <path d="m136.89 1025.9c-28.272 22.083-78.234 7.3708-78.234 7.3708l-0.04312-47.348s50.04 14.101 78.312-7.9821c28.696-27.173 69.999-21.591 69.922-21.675-7e-3 -7e-3 0.12897 47.602 0.12897 47.602 0.0861 0.4938-41.389-5.1411-70.085 22.032z" fill="url(#linearGradient3200)" stroke="#4d4d4d" stroke-linecap="round" stroke-linejoin="round" stroke-width=".7533"/>
   <g fill="none" stroke-linecap="round" stroke-linejoin="round" stroke-width="2.1042">
    <g stroke="#d4aa00">
     <path d="m52.752 999.23s51.132 15.933 81.092-6.4612c17.455-15.581 38.524-23.435 72.515-22.207"/>
     <path d="m52.718 1006.4s51.132 15.933 81.092-6.4612c17.455-15.581 38.524-23.435 72.515-22.207"/>
     <path d="m52.817 1013.6s51.132 15.933 81.092-6.4612c17.455-15.581 38.524-23.435 72.515-22.207"/>
     <path d="m52.926 1020.8s51.132 15.933 81.092-6.461c17.455-15.581 38.524-23.435 72.515-22.207"/>
     <path d="m52.74 1028s51.132 15.933 81.092-6.461c17.455-15.581 38.524-23.435 72.515-22.207"/>
     <path d="m52.761 992.05s51.132 15.933 81.092-6.4611c17.455-15.581 38.524-23.435 72.515-22.207"/>
    </g>
    <path d="m52.467 943.29 0.02684 76.911" stroke="#f00"/>
    <path d="m206.11 901.05-152.2 41.718" stroke="#f00"/>
    <path d="m206.81 978.55 0.0177 20.62" stroke="#d4aa00"/>
    <path d="m52.472 1021 0.0177 7.0464" stroke="#d4aa00"/>
    <path d="m206.84 900.99 0.0269 76.911" stroke="#f00"/>
   </g>
   <g transform="matrix(1.1135 0 0 1.1135 -2.1938 -127.69)" fill="none" stroke="#800080" stroke-linecap="round" stroke-linejoin="round">
    <path d="m54.89 1001c12.599 3.0179 46.322 8.9754 67.861-7.1244 15.676-13.993 34.598-21.047 65.126-19.944" stroke-width="1.8898"/>
    <g transform="matrix(.47476 .40446 -.40446 .47476 461.14 516.27)" stroke-width="1.5118">
     <path d="m133.47 842.5 17.331 0.0462"/>
     <path d="m142.12 833.84-0.0462 17.331"/>
    </g>
    <g transform="matrix(.47476 .40446 -.40446 .47476 328.51 543.3)" stroke-width="1.5118">
     <path d="m133.47 842.5 17.331 0.0462"/>
     <path d="m142.12 833.84-0.0462 17.331"/>
    </g>
   </g>
   <g transform="rotate(8.9328 -6286.5 910.69)">
    <path d="m27.78 9.7512-8.9953-9.3732v6.1228h-18.444v6.5386h18.444v5.8961z" fill="#d4aa00" stroke="#000" stroke-linecap="square" stroke-width=".64252px"/>
   </g>
   <g transform="rotate(8.9328 -6436.9 903.15)">
    <path d="m27.78 9.7512-8.9953-9.3732v6.1228h-18.444v6.5386h18.444v5.8961z" fill="#d4aa00" stroke="#000" stroke-linecap="square" stroke-width=".64252px"/>
   </g>
  </g>
  <g transform="translate(-245.33)">
   <g stroke="#4d4d4d" stroke-linecap="round" stroke-linejoin="round" stroke-width=".67654">
    <path d="m273.63 961.69 116.23-50.32 70.873 43.981c0.01 0-39.791-5.5588-69.862 21.725-30.708 23.149-78.668 6.9921-78.512 7.9732z" fill="url(#linearGradient12511-8)"/>
    <path d="m273.63 961.71 38.878 23.419-0.13598 47.415 56.832 34.396 0.0241 36.212-95.641-64.779z" fill="url(#linearGradient12251-0)"/>
    <path d="m369.29 1066.9 114.84-49.255-0.0467 35.983-114.81 49.63z" fill="url(#linearGradient12275-0)"/>
   </g>
   <g transform="matrix(1.1135 0 0 1.1135 586.2 -234.81)" stroke="#4d4d4d" stroke-linecap="round" stroke-linejoin="round" stroke-width=".6076">
    <path d="m-126.18 1103.6 34.335 21.093-103.1 44.338-51.051-30.814" fill="url(#linearGradient12259-6)"/>
    <path d="m-246.02 1138.2s43.093 13.636 70-6.4761c15.676-13.993 32.789-21.095 63.316-19.992" fill="none"/>
   </g>
   <path d="m390.77 1025c-28.272 22.083-78.234 7.3708-78.234 7.3708l-0.0431-47.348s50.04 14.101 78.312-7.9821c28.696-27.173 69.999-21.591 69.922-21.675-7e-3 -7e-3 0.12898 47.602 0.12898 47.602 0.0861 0.4939-41.389-5.141-70.085 22.032z" fill="url(#linearGradient12267-8)" stroke="#4d4d4d" stroke-linecap="round" stroke-linejoin="round" stroke-width=".7533"/>
   <g fill="none" stroke-linecap="round" stroke-linejoin="round" stroke-width="2.1042">
    <g stroke="#d4aa00">
     <path d="m306.63 998.36s51.132 15.933 81.092-6.4611c17.455-15.581 38.524-23.435 72.515-22.207"/>
     <path d="m306.6 1005.5s51.132 15.933 81.092-6.4611c17.455-15.581 38.524-23.435 72.515-22.207"/>
     <path d="m306.7 1012.7s51.132 15.933 81.092-6.4611c17.455-15.581 38.524-23.435 72.515-22.207"/>
     <path d="m306.8 1019.9s51.132 15.933 81.092-6.4611c17.455-15.581 38.524-23.435 72.515-22.207"/>
     <path d="m306.62 1027.1s51.132 15.933 81.092-6.4611c17.455-15.581 38.524-23.435 72.515-22.207"/>
     <path d="m306.64 991.18s51.132 15.933 81.092-6.4611c17.455-15.581 38.524-23.435 72.515-22.207"/>
    </g>
    <path d="m460.72 900.13 0.0269 76.911" stroke="#f00"/>
    <path d="m460.69 977.68 0.0177 20.62" stroke="#d4aa00"/>
    <path d="m306.77 991.06 0.0177 7.0465" stroke="#d4aa00"/>
   </g>
   <g transform="matrix(1.1135 0 0 1.1135 251.84 -128.5)" fill="none" stroke="#800080" stroke-linecap="round" stroke-linejoin="round">
    <path d="m54.89 1001c12.599 3.0179 46.322 8.9754 67.861-7.1244 15.676-13.993 34.598-21.047 65.126-19.944" stroke-width="1.8898"/>
    <g transform="matrix(.47476 .40446 -.40446 .47476 461.14 516.27)" stroke-width="1.5118">
     <path d="m133.47 842.5 17.331 0.0462"/>
     <path d="m142.12 833.84-0.0462 17.331"/>
    </g>
    <g transform="matrix(.47476 .40446 -.40446 .47476 328.51 543.3)" stroke-width="1.5118">
     <path d="m133.47 842.5 17.331 0.0462"/>
     <path d="m142.12 833.84-0.0462 17.331"/>
    </g>
   </g>
   <path d="m306.75 1005.6 0.0177 7.0464" fill="none" stroke="#d4aa00" stroke-linecap="round" stroke-linejoin="round" stroke-width="2.1042"/>
   <path d="m306.75 1020.5 0.0177 7.0465" fill="none" stroke="#d4aa00" stroke-linecap="round" stroke-linejoin="round" stroke-width="2.1042"/>
   <g transform="rotate(8.9328 -6159.2 2557.1)">
    <path d="m27.78 9.7512-8.9953-9.3732v6.1228h-18.444v6.5386h18.444v5.8961z" fill="#d4aa00" stroke="#000" stroke-linecap="square" stroke-width=".64252px"/>
   </g>
   <g transform="rotate(188.93 210.16 502.6)">
    <path d="m27.78 9.7512-8.9953-9.3732v6.1228h-18.444v6.5386h18.444v5.8961z" fill="#d4aa00" stroke="#000" stroke-linecap="square" stroke-width=".64252px"/>
   </g>
  </g>
  <g transform="translate(187.79 975)">
   <ellipse cx="-44.92" cy="-98.798" rx="13.199" ry="13.469" fill="#1f638a" stroke-linecap="round" stroke-linejoin="round" stroke-width="1.0658"/>
   <text x="-50.761276" y="-91.125885" fill="#000000" font-family="'Arial Nova', 'Arial Unicode MS', 'Yu Gothic UI', sans-serif" font-size="12.8px" letter-spacing="0px" stroke-width="1.0667" word-spacing="0px" style="line-height:0%" xml:space="preserve"><tspan x="-50.761276" y="-91.125885" fill="#ffffff" font-family="'Arial Nova', 'Arial Unicode MS', 'Yu Gothic UI', sans-serif" font-size="21.333px" stroke="#ffffff" stroke-width="1.0667" style="line-height:1.25">1</tspan></text>
  </g>
  <g transform="translate(394.42 975)">
   <ellipse cx="-13.718" cy="-98.798" rx="13.199" ry="13.469" fill="#1f638a" stroke-linecap="round" stroke-linejoin="round" stroke-width="1.0658"/>
   <text x="-19.559933" y="-91.125885" fill="#000000" font-family="'Arial Nova', 'Arial Unicode MS', 'Yu Gothic UI', sans-serif" font-size="12.8px" letter-spacing="0px" stroke-width="1.0667" word-spacing="0px" style="line-height:0%" xml:space="preserve"><tspan x="-19.559933" y="-91.125885" fill="#ffffff" font-family="'Arial Nova', 'Arial Unicode MS', 'Yu Gothic UI', sans-serif" font-size="21.333px" stroke="#ffffff" stroke-width="1.0667" style="line-height:1.25">2</tspan></text>
  </g>
 </g>
</svg>
