<svg width="130mm" height="40mm" version="1.1" xmlns="http://www.w3.org/2000/svg" xmlns:xlink="http://www.w3.org/1999/xlink">
 <title>Abbildung für OPEN MIND Softwaredokumentation</title>
 <defs>
  <linearGradient id="linearGradient1762" x1="238.27" x2="665.75" y1="108.18" y2="106.34" gradientTransform="translate(-230.56 -32.937)" gradientUnits="userSpaceOnUse">
   <stop stop-color="#fff" offset="0"/>
   <stop stop-color="#00385e" offset="1"/>
  </linearGradient>
 </defs>
 <g stroke="#000000">
  <g stroke-width=".67654">
   <rect x="8.4697" y="9.3527" width="251.72" height="134.84" ry="2.6997" fill="url(#linearGradient1762)" fill-rule="evenodd" stroke-linecap="square" style="paint-order:markers fill stroke"/>
   <path d="m67.491 33.256c-10.324 0-18.635 8.311-18.635 18.635v52.213c0 10.324 8.311 18.635 18.635 18.635h40.568c10.324 0 18.635-8.311 18.635-18.635v-9.8652h36.467v9.8652c0 10.324 8.3129 18.635 18.637 18.635h40.566c10.324 0 18.635-8.311 18.635-18.635v-52.213c0-10.324-8.311-18.635-18.635-18.635h-40.566c-10.324 0-18.637 8.311-18.637 18.635v12.93h-36.467v-12.93c0-10.324-8.311-18.635-18.635-18.635z" fill="#d5dee4" fill-rule="evenodd" stroke-linecap="square" style="paint-order:markers fill stroke"/>
   <circle cx="87.603" cy="72.324" r="38.269" fill="#cccccc"/>
  </g>
  <circle cx="145.56" cy="79.616" r="13.973" fill="#cccccc" stroke-width=".68386"/>
 </g>
 <g transform="translate(74.031 170.64)">
  <ellipse cx="-44.92" cy="-98.798" rx="13.199" ry="13.469" fill="#1f638a" stroke-linecap="round" stroke-linejoin="round" stroke-width="1.0658"/>
  <text x="-50.761276" y="-91.125885" fill="#000000" letter-spacing="0px" word-spacing="0px" style="line-height:0%" xml:space="preserve"><tspan x="-50.761276" y="-91.125885" fill="#ffffff" font-family="'Arial Nova', 'Arial Unicode MS', 'Yu Gothic UI', sans-serif" font-size="20px" stroke="#ffffff" stroke-width="1.0667" style="line-height:1.25">1</tspan></text>
 </g>
 <g transform="translate(193.3 178.15)">
  <ellipse cx="-13.718" cy="-98.798" rx="13.199" ry="13.469" fill="#1f638a" stroke-linecap="round" stroke-linejoin="round" stroke-width="1.0658"/>
  <text x="-19.559933" y="-91.125885" fill="#000000" letter-spacing="0px" word-spacing="0px" style="line-height:0%" xml:space="preserve"><tspan x="-19.559933" y="-91.125885" fill="#ffffff" font-family="'Arial Nova', 'Arial Unicode MS', 'Yu Gothic UI', sans-serif" font-size="20px" stroke="#ffffff" stroke-width="1.0667" style="line-height:1.25">2</tspan></text>
 </g>
 <path d="m42.111 72.491h6.7174" fill="none" stroke="#000000" stroke-width="1px"/>
 <path d="m159.67 80.136h6.7174" fill="none" stroke="#000000" stroke-width="1px"/>
</svg>
