<?xml version="1.0" encoding="UTF-8"?>
<svg width="48" height="48" version="1.1" viewBox="0 0 12.7 12.7" xml:space="preserve" xmlns="http://www.w3.org/2000/svg"><g><path d="m5.5751 6.6373 1.001-0.76701 0.99525 2.2443 0.9991-0.44439-0.99525-2.2444 1.1678-0.19468-3.2162-2.9801z" fill="#ffffff" stroke="#000000" stroke-linecap="round" stroke-linejoin="round" stroke-width=".3878"/><g transform="matrix(1.185 0 0 1.185 -91.653 37.757)" fill="#a52a2a"><path d="m81.533-28.757c2.135 1.3148 3.1694 3.0034 3.8895 4.474l0.0093 0.58357c-1.3383-1.6705-2.4365-3.3921-4.6767-4.4351z"/><path d="m81.066-24.763c1.3641-2.1467 2.5397-3.1656 4.3827-4.0343l0.47164-0.02995c-1.6019 1.3827-3.1372 2.4216-4.2113 4.8104z"/></g><g transform="matrix(1.6342 0 0 1.6342 1.041 1.0445)" stroke="#000000"><path d="m1.2699 1.7962v3.2349h3.9872" fill="none" stroke-width=".27053"/><path d="m1.2799 0.74112 0.95187 0.95187h-1.9037z" fill="#000000" stroke-linecap="square" stroke-width=".20599"/><path d="m6.1397 5.0366-0.95187 0.95187v-1.9037z" fill="#000000" stroke-linecap="square" stroke-width=".20599"/></g></g></svg>
