<svg width="180mm" height="73.125mm" version="1.1" xmlns="http://www.w3.org/2000/svg" xmlns:xlink="http://www.w3.org/1999/xlink">
 <title>Abbildung fuer OPEN MIND Softwaredokumentation</title>
 <defs>
  <linearGradient id="linearGradient8230" x1="-406.95" x2="-248.67" y1="-26.415" y2="135.44" gradientTransform="matrix(1.0021 0 0 .51427 -161.58 601)" gradientUnits="userSpaceOnUse">
   <stop stop-color="#cccccc" offset="0"/>
   <stop stop-color="#cccccc" stop-opacity="0" offset="1"/>
  </linearGradient>
  <linearGradient id="linearGradient17780-7">
   <stop stop-color="#ffffff" offset="0"/>
   <stop stop-color="#00385e" offset="1"/>
  </linearGradient>
  <linearGradient id="linearGradient12939" x1="246.16" x2="2026.7" y1="96.59" y2="121.66" gradientTransform="translate(3.5215 789.38)" gradientUnits="userSpaceOnUse" xlink:href="#linearGradient17780-7"/>
  <linearGradient id="linearGradient12949" x1="481.34" x2="1071.2" y1="29.427" y2="24.427" gradientTransform="translate(2.8571 788.04)" gradientUnits="userSpaceOnUse" xlink:href="#linearGradient17780-7"/>
  <linearGradient id="linearGradient3999" x1="779.5" x2="1970.3" y1="-33.603" y2="82.112" gradientTransform="translate(-7.7655 790.34)" gradientUnits="userSpaceOnUse" xlink:href="#linearGradient17780-7"/>
  <linearGradient id="linearGradient4110" x1="485.13" x2="1104" y1="735.68" y2="734.26" gradientUnits="userSpaceOnUse" xlink:href="#linearGradient17780-7"/>
  <linearGradient id="linearGradient4128" x1="921.64" x2="2025.5" y1="-103.78" y2="-103.78" gradientTransform="translate(.45739 785.03)" gradientUnits="userSpaceOnUse" xlink:href="#linearGradient17780-7"/>
  <linearGradient id="linearGradient4136" x1="902.58" x2="1674.4" y1="-74.19" y2="-64.904" gradientTransform="translate(-2.3954 55.752)" gradientUnits="userSpaceOnUse" xlink:href="#linearGradient17780-7"/>
  <linearGradient id="linearGradient4153" x1="483.36" x2="1145.9" y1="-228.73" y2="-228.73" gradientTransform="translate(-1.7663 53.34)" gradientUnits="userSpaceOnUse">
   <stop stop-color="#ffffff" offset="0"/>
   <stop stop-color="#00385e" offset="1"/>
  </linearGradient>
  <linearGradient id="linearGradient4275" x1="890.45" x2="1008.6" y1="50.601" y2="50.601" gradientTransform="matrix(.33536 0 0 .33536 -100.34 912.17)" gradientUnits="userSpaceOnUse">
   <stop stop-color="#ffffff" offset="0"/>
   <stop stop-color="#00385e" offset="1"/>
  </linearGradient>
  <linearGradient id="linearGradient4343" x1="851.56" x2="940.1" y1="-187.34" y2="-188.41" gradientTransform="matrix(.33536 0 0 .33536 -99.991 912.31)" gradientUnits="userSpaceOnUse">
   <stop stop-color="#ffffff" offset="0"/>
   <stop stop-color="#00385e" offset="1"/>
  </linearGradient>
  <linearGradient id="linearGradient12960-6">
   <stop stop-color="#ffffff" stop-opacity=".8432" offset="0"/>
   <stop stop-color="#00385e" offset="1"/>
  </linearGradient>
  <linearGradient id="linearGradient13013" x1="-52.578" x2="575.21" y1="294.69" y2="306.25" gradientTransform="matrix(.99898 .028521 -.04643 .61367 73.97 41.349)" gradientUnits="userSpaceOnUse" xlink:href="#linearGradient12960-6"/>
  <linearGradient id="linearGradient13348" x1="171.92" x2="310.73" y1="125.63" y2="126.66" gradientTransform="matrix(1.603,0,0,1.603,199.39,-60.918)" gradientUnits="userSpaceOnUse">
   <stop stop-color="#ffffff" offset="0"/>
   <stop stop-color="#00385e" offset="1"/>
  </linearGradient>
  <linearGradient id="linearGradient13375" x1="242.95" x2="571.24" y1="-24.166" y2="-21.135" gradientTransform="matrix(.99575 0 0 2.6113 198.5 208.93)" gradientUnits="userSpaceOnUse" xlink:href="#linearGradient12960-6"/>
  <linearGradient id="linearGradient13821" x1="144.51" x2="224.64" y1="939.66" y2="945.02" gradientUnits="userSpaceOnUse" xlink:href="#linearGradient12960-6"/>
 </defs>
 <path d="m429.94 232.6 88.147-72.622c7.1246 27.499 28.12 42.904 34.953 46.327z" fill="#4d4d4d" opacity=".6" stroke="#000000" stroke-width=".35433"/>
 <g transform="translate(0 -775.98)">
  <path d="m-568.71 757.58v-169.34h388.72" color="#000000" fill="none" stroke="url(#linearGradient8230)" stroke-linecap="round" stroke-linejoin="round" stroke-miterlimit="7" stroke-width=".96726"/>
  <g transform="matrix(.33536 0 0 .33536 -100.04 648.59)">
   <g stroke="#000000">
    <g stroke-width="1px">
     <path transform="translate(0 733.46)" d="m899.42-67.408c3.4736-11.38 15.065-21.421 29.312-17.313 172.5 58.668 369.36 94.735 611.87 122.28l0.06 11.221c-236.39-24.618-436.43-63.931-641.25-116.19z" fill="url(#linearGradient4136)"/>
     <path transform="translate(0 733.46)" d="m481.46-283.88 197.69 108.16c18.927 7.9809 27.148 12.329 69.991 30.075 7.05 4.2057 13.671 6.2121 15.989 16.096l4.8774 113.25 105.1-48.538-4.1037-108.02c0.46793-10.438 1.077-20.308-19.003-30.747-82.723-32.628-165.85-75.407-246.67-130.88l-124 0.3788z" fill="url(#linearGradient4153)" opacity=".75148"/>
     <path d="m482.33 594.49 132.33 57.579c11.236 4.9393 11.364 20.203 11.364 20.203l18.94 411.13c12.891 54.138 87.037 55.365 93.995 1.847l19.868-356.12c4.0892-7.6578 8.4169-16.777 30.467-21.031 172.24 69.51 624.78 133.79 751.32 133.72l0.1402 8.084-0.296 307.37-1058.4-1.1326z" fill="url(#linearGradient12939)" opacity=".68343" stroke-linecap="round" stroke-linejoin="round"/>
     <path d="m482.3 594.48c0-5.0508-0.68365-126.21-0.68365-126.21 69.803 37.24 160.65 83.739 234.91 124.07 11.368 7.105 18.958 9.2312 22.53 30.382l3.244 410.3-3.5259 51.688c-6.6198 54.437-82.509 53.391-94.168-2.3774l-18.736-410.89c-0.92509-9.8073-1.665-14.972-15.152-21.213z" fill="url(#linearGradient12949)" opacity=".61538" stroke-linecap="round" stroke-linejoin="round"/>
     <path d="m707.27 569.77 41.106 18.181c12.287 6.2228 17.968 7.2927 17.997 33.396l2.9392 93.748c-5.1981 3.5057-8.9149 7.1093-10.609 15.562l-17.493 289.67-2.0984-391.54c-0.68944-23.983-6.6021-25.62-22.06-36.456l-235.47-123.9-0.21028-18.94 63.773 34.825c54.576 28.619 101.98 59.646 162.12 85.45z" fill="url(#linearGradient4110)" opacity=".72781"/>
     <path d="m772.23 714.66 100.71-45.233c10.827-4.6389 16.012-8.5039 27.143-2.6244 247.87 60.453 476.1 96.277 640.98 115.25l-0.4557 67.658c-278.98-15.503-560.12-68.813-768.38-135.05z" fill="url(#linearGradient3999)" opacity=".73077"/>
    </g>
    <path d="m915.15 648.67 106.02-53.599c4.3105-1.4727 7.2154-1.6279 15.288-0.20921 159.09 54.351 330.92 85.246 503.28 107.35l1.2519 69.118c-261.76-28.95-468.78-70.235-611.59-122.32-3.8144-0.94838-9.2188-1.5255-14.256-0.34253z" fill="url(#linearGradient4128)" stroke-linecap="round" stroke-linejoin="round" stroke-width=".99921"/>
   </g>
   <path transform="translate(0 786.61)" d="m644.3 296.16 247.38-118.95 96.199-0.30637-247.83 121.45z" fill="none" stroke="#4d4d4d" stroke-width="1px"/>
  </g>
  <g stroke="#000000" stroke-linecap="round" stroke-linejoin="round">
   <path d="m239.45 849.73-8.4718 122.34c-4.4689 20.016-31.195 16.832-31.929-0.4235l2.4523-99.483c1.1786-6.954 19.994-11.978 37.948-22.432z" fill="url(#linearGradient4275)" opacity=".54142" stroke-width=".33661"/>
   <path d="m196.97 871.27c-1.0175 1.2373-1.8268 2.3759-2.4137 5.3355l-8.4692 116.88c-3.2918 21.494-31.665 19.095-33.199 0.3389l6.2037-105.46c12.721-6.0867 35.778-16.886 37.879-17.087z" fill="url(#linearGradient13821)" stroke-width=".3351"/>
   <path d="m185.79 826.32c0.66169 0.32304 8.6593 2.4294 9.5702 8.6387l1.0692 36.386-3.078 1.5039-1.326-36.736c-0.42074-5.0356-3.1911-7.2701-6.2354-9.7926z" fill="url(#linearGradient4343)" stroke-width=".3351"/>
  </g>
  <g transform="translate(693.97 1017.2)">
   <ellipse cx="-44.92" cy="-98.798" rx="13.199" ry="13.469" fill="#1f638a" stroke-linecap="round" stroke-linejoin="round" stroke-width="1.0658"/>
   <text x="-51.39423" y="-91.055557" fill="#000000" font-family="'Arial Nova', 'Arial Unicode MS', 'Yu Gothic UI', sans-serif" font-size="12.8px" letter-spacing="0px" stroke-width="1.0667" word-spacing="0px" style="line-height:0%" xml:space="preserve"><tspan x="-51.39423" y="-91.055557" fill="#ffffff" font-family="'Arial Nova', 'Arial Unicode MS', 'Yu Gothic UI', sans-serif" font-size="21.333px" stroke="#ffffff" stroke-width="1.0667" style="line-height:1.25">1</tspan></text>
  </g>
  <g transform="translate(619.67 1019.8)">
   <ellipse cx="-13.718" cy="-98.798" rx="13.199" ry="13.469" fill="#1f638a" stroke-linecap="round" stroke-linejoin="round" stroke-width="1.0658"/>
   <text x="-19.559933" y="-91.125885" fill="#000000" font-family="'Arial Nova', 'Arial Unicode MS', 'Yu Gothic UI', sans-serif" font-size="12.8px" letter-spacing="0px" stroke-width="1.0667" word-spacing="0px" style="line-height:0%" xml:space="preserve"><tspan x="-19.559933" y="-91.125885" fill="#ffffff" font-family="'Arial Nova', 'Arial Unicode MS', 'Yu Gothic UI', sans-serif" font-size="21.333px" stroke="#ffffff" stroke-width="1.0667" style="line-height:1.25">2</tspan></text>
  </g>
  <g transform="translate(78.76 1093)">
   <ellipse cx="-44.92" cy="-98.798" rx="13.199" ry="13.469" fill="#1f638a" stroke-linecap="round" stroke-linejoin="round" stroke-width="1.0658"/>
   <text x="-51.39423" y="-91.055557" fill="#000000" font-family="'Arial Nova', 'Arial Unicode MS', 'Yu Gothic UI', sans-serif" font-size="12.8px" letter-spacing="0px" stroke-width="1.0667" word-spacing="0px" style="line-height:0%" xml:space="preserve"><tspan x="-51.39423" y="-91.055557" fill="#ffffff" font-family="'Arial Nova', 'Arial Unicode MS', 'Yu Gothic UI', sans-serif" font-size="21.333px" stroke="#ffffff" stroke-width="1.0667" style="line-height:1.25">1</tspan></text>
  </g>
  <g transform="translate(135.58 1117.5)">
   <ellipse cx="-44.92" cy="-98.798" rx="13.199" ry="13.469" fill="#1f638a" stroke-linecap="round" stroke-linejoin="round" stroke-width="1.0658"/>
   <text x="-51.39423" y="-91.055557" fill="#000000" font-family="'Arial Nova', 'Arial Unicode MS', 'Yu Gothic UI', sans-serif" font-size="12.8px" letter-spacing="0px" stroke-width="1.0667" word-spacing="0px" style="line-height:0%" xml:space="preserve"><tspan x="-51.39423" y="-91.055557" fill="#ffffff" font-family="'Arial Nova', 'Arial Unicode MS', 'Yu Gothic UI', sans-serif" font-size="21.333px" stroke="#ffffff" stroke-width="1.0667" style="line-height:1.25">1</tspan></text>
  </g>
 </g>
 <path d="m61.846 212.59 354.75 14.612 0.0145 11.794-354.8-13.694z" fill="url(#linearGradient13013)" opacity=".64793" stroke="#000000" stroke-linecap="round" stroke-linejoin="round" stroke-width=".35433"/>
 <g transform="matrix(.33365 .0040362 -.0040158 .33534 -79.54 117.89)" stroke="#d4aa00" stroke-linecap="round" stroke-linejoin="round">
  <g fill="none">
   <g stroke-width="4.0145">
    <path d="m642.46 381.21h-12.953l107.33-52.796 11.617 0.5051z"/>
    <path d="m820.42 287.83 51.265-24.749 10.102 1.0102-49.245 24.244z"/>
    <path d="m801.98 286.06 69.448-34.093 11.617 0.75761-72.226 34.598z"/>
    <path d="m639.86 369.94 87.883-42.426-9.178-1.7677-90.575 44.194z"/>
    <path d="m627.48 358.92h11.956l72.078-35.229-5.4512-3.6528z"/>
    <path d="m639.35 347.17h-12.374l72.387-35.355 4.0839 4.4411z"/>
    <path d="m794.16 284.29 88.136-42.174-13.132-0.50508-86.368 42.679z"/>
    <path d="m773.95 284.54 108.84-53.538-12.627-0.50507-108.09 53.286z"/>
    <path d="m1489.9 340.23-587.92-13.856"/>
    <path d="m1489.8 329.51-586.83-14.653"/>
    <path d="m1489.8 320.28-595.86-16.491"/>
    <path d="m1489.8 310.26-600.51-17.188"/>
    <path d="m427.83 280.2 208.84 6.0682"/>
    <path d="m427.74 291.97 214.43 5.2684"/>
    <path d="m428.03 302.96 217.71 5.6235"/>
    <path d="m428.04 312.99 233.07 6.0065"/>
   </g>
   <path d="m742.34 164.59-1.4286 118.57" stroke-width="2.8346"/>
  </g>
  <g fill="#d4aa00" stroke-width="2.8346">
   <path d="m636.07 286.57 114.65-4.0406 140.92 10.607-138.9 1.5152z"/>
   <path d="m642.63 297.17 106.57-2.5254 146.47 9.0914-152.03 2.5254z"/>
   <path d="m647.18 308.79 96.47-2.0203 161.62 8.0812-153.04 4.0406z"/>
   <path d="m903.25 326.47-154.55-7.071-135.87-1.5153 130.81 12.122z"/>
  </g>
 </g>
 <path d="m573.43 67.25 0.50507 147.09c-9.011-1.4901-55.86-17.129-58.762-72.1-0.27959-56.742 49.69-73.425 58.257-74.987z" fill="url(#linearGradient13348)" stroke="#4c4d4d" stroke-width="1.0167"/>
 <path d="m532.47 93.56 41.118 3.0305 0.44643 97.529-40.518-3.7574c-13.661-14.934-31.83-59.649-1.046-96.802z" fill="url(#linearGradient13375)" stroke="#4d4d4d" stroke-linejoin="round" stroke-width="1.0227"/>
 <g fill="none">
  <circle cx="419.24" cy="233.4" r="9.8145" stroke="#4d4d4d" stroke-width=".78876"/>
  <g transform="translate(64.555,-63.53)" stroke="#d4aa00" stroke-linecap="round" stroke-linejoin="round" stroke-width="3.5433">
   <path d="m507.55 164.22-42.111-3.2703"/>
   <path d="m507.7 193.76-54.605-3.3009"/>
   <path d="m507.37 223.35-53.694-3.2397"/>
   <path d="m505.96 253.22-38.034-3.3876"/>
  </g>
  <circle cx="591.01" cy="141.03" r="75.692" stroke="#7d7d7e" stroke-width="1.9677"/>
  <path d="m61.779 6.6592h41.162c26.154 18.17 54.252 31.723 83.086 43.526 5.5681 2.1435 7.9356 5.1819 9.4702 8.3338l0.95786 36.827c3.6525-0.31836 5.1094 0.72566 5.1094 0.72566 0.90189-2.1186 1.5492-3.8099 5.2127-5.7292l35.313-17.934c1.523-0.70534 3.0936-0.86923 5.5532-0.14793 56.199 19.545 112.52 28.431 168.94 35.757v152.53h-354.8z" stroke="#000000" stroke-linecap="round" stroke-linejoin="round" stroke-width=".63425"/>
 </g>
 <g fill="#000000" stroke="#000000" stroke-linecap="round" stroke-linejoin="round">
  <g transform="translate(0,10.63)">
   <path d="m572.79 86.103h58.642" stroke-width=".96573"/>
   <path d="m574.13 183.99h57.884" stroke-width=".96573"/>
   <path d="m632.01 87.807-3.9286 11.786h8.2143z" stroke-width=".99921"/>
   <g stroke-width=".63425">
    <path d="m631.95 91.045v91.164"/>
    <path d="m108.42 225.88h19.164"/>
    <path d="m108.52 238.1h19.164"/>
   </g>
  </g>
  <g transform="translate(-274.7 11.797)">
   <path d="m402.5 223.86 3.9286-11.786h-8.2143z" stroke-width=".99921"/>
   <path d="m402.59 203.76v19.164" stroke-width=".63425"/>
  </g>
  <g transform="translate(-274.57 13.06)">
   <path d="m402.62 236.62-3.9286 11.786h8.2143z" stroke-width=".99921"/>
   <path d="m402.68 238.49v19.164" stroke-width=".63425"/>
  </g>
  <g transform="translate(187.61,-74.709)">
   <path d="m402.62 236.62-3.9286 11.786h8.2143z" stroke-width=".99921"/>
   <path d="m402.68 238.49v19.164" stroke-width=".63425"/>
  </g>
  <g transform="translate(83.643,-15.799)">
   <path d="m490.67 147.55h16.606" stroke-width=".96573"/>
   <g transform="translate(104.55,-77.458)">
    <path d="m402.5 223.86 3.9286-11.786h-8.2143z" stroke-width=".99921"/>
    <path d="m402.59 203.76v19.164" stroke-width=".63425"/>
   </g>
  </g>
  <g transform="translate(0,10.63)">
   <path d="m573.94 150.06h15.892" stroke-width=".96573"/>
   <path d="m631.93 182.45 3.9286-11.786h-8.2143z" stroke-width=".99921"/>
   <path d="m53.82 202.13h7.1637" stroke-width=".63425"/>
   <path d="m53.647 214.73h7.1637" stroke-width=".63425"/>
  </g>
  <g transform="translate(-349.61,-11.886)">
   <path d="m402.5 223.86 3.9286-11.786h-8.2143z" stroke-width=".99921"/>
   <path d="m402.59 203.76v19.164" stroke-width=".63425"/>
  </g>
  <g transform="translate(-349.8,-10.434)">
   <path d="m402.62 236.62-3.9286 11.786h8.2143z" stroke-width=".99921"/>
   <path d="m402.68 238.49v19.164" stroke-width=".63425"/>
  </g>
 </g>
</svg>
