<svg version="1.1" viewBox="0 0 637.8 318.9" xmlns="http://www.w3.org/2000/svg" xmlns:xlink="http://www.w3.org/1999/xlink">
 <title>Abbildung fuer OPEN MIND Softwaredokumentation</title>
 <defs>
  <linearGradient id="linearGradient8230" x1="-406.95" x2="-248.67" y1="-26.415" y2="135.44" gradientTransform="matrix(1.0021 0 0 .51427 -161.58 601)" gradientUnits="userSpaceOnUse">
   <stop stop-color="#cccccc" offset="0"/>
   <stop stop-color="#cccccc" stop-opacity="0" offset="1"/>
  </linearGradient>
  <linearGradient id="linearGradient17780-7">
   <stop stop-color="#ffffff" offset="0"/>
   <stop stop-color="#00385e" offset="1"/>
  </linearGradient>
  <linearGradient id="linearGradient12939" x1="246.16" x2="2026.7" y1="96.59" y2="121.66" gradientTransform="translate(3.5215 789.38)" gradientUnits="userSpaceOnUse" xlink:href="#linearGradient17780-7"/>
  <linearGradient id="linearGradient12949" x1="481.34" x2="1071.2" y1="29.427" y2="24.427" gradientTransform="translate(2.8571 788.04)" gradientUnits="userSpaceOnUse" xlink:href="#linearGradient17780-7"/>
  <linearGradient id="linearGradient3999" x1="779.5" x2="1970.3" y1="-33.603" y2="82.112" gradientTransform="translate(-7.7655 790.34)" gradientUnits="userSpaceOnUse" xlink:href="#linearGradient17780-7"/>
  <linearGradient id="linearGradient4110" x1="485.13" x2="1104" y1="735.68" y2="734.26" gradientUnits="userSpaceOnUse" xlink:href="#linearGradient17780-7"/>
  <linearGradient id="linearGradient4128" x1="921.64" x2="2025.5" y1="-103.78" y2="-103.78" gradientTransform="translate(.45739 785.03)" gradientUnits="userSpaceOnUse" xlink:href="#linearGradient17780-7"/>
  <linearGradient id="linearGradient4136" x1="902.58" x2="1674.4" y1="-74.19" y2="-64.904" gradientTransform="translate(-2.3954 55.752)" gradientUnits="userSpaceOnUse" xlink:href="#linearGradient17780-7"/>
  <linearGradient id="linearGradient4153" x1="483.36" x2="1145.9" y1="-228.73" y2="-228.73" gradientTransform="translate(-1.7663 53.34)" gradientUnits="userSpaceOnUse">
   <stop stop-color="#ffffff" offset="0"/>
   <stop stop-color="#00385e" offset="1"/>
  </linearGradient>
  <linearGradient id="linearGradient4275" x1="890.45" x2="1008.6" y1="50.601" y2="50.601" gradientTransform="matrix(.33536 0 0 .33536 -142.34 912.17)" gradientUnits="userSpaceOnUse">
   <stop stop-color="#ffffff" offset="0"/>
   <stop stop-color="#00385e" offset="1"/>
  </linearGradient>
  <linearGradient id="linearGradient4343" x1="851.56" x2="940.1" y1="-187.34" y2="-188.41" gradientTransform="matrix(.33536 0 0 .33536 -141.99 912.31)" gradientUnits="userSpaceOnUse">
   <stop stop-color="#ffffff" offset="0"/>
   <stop stop-color="#00385e" offset="1"/>
  </linearGradient>
  <linearGradient id="linearGradient13821" x1="144.51" x2="224.64" y1="939.66" y2="945.02" gradientTransform="translate(-42)" gradientUnits="userSpaceOnUse">
   <stop stop-color="#ffffff" stop-opacity=".8432" offset="0"/>
   <stop stop-color="#00385e" offset="1"/>
  </linearGradient>
  <linearGradient id="linearGradient20539-5-9-6-3-6" x1="54.983" x2="54.983" y1="34.986" y2="34.986" gradientUnits="userSpaceOnUse">
   <stop stop-color="#FFFFFF" offset="0"/>
   <stop stop-color="#FCFCFC" offset=".2264"/>
   <stop stop-color="#F4F4F4" offset=".3626"/>
   <stop stop-color="#E6E6E6" offset=".475"/>
   <stop stop-color="#D1D1D1" offset=".5744"/>
   <stop stop-color="#B7B7B7" offset=".6652"/>
   <stop stop-color="#979797" offset=".7498"/>
   <stop stop-color="#707070" offset=".8297"/>
   <stop stop-color="#444444" offset=".9057"/>
   <stop stop-color="#121212" offset=".9761"/>
   <stop stop-color="#000000" offset="1"/>
  </linearGradient>
  <linearGradient id="linearGradient20304" x1="54.2" x2="72.979" y1="109.07" y2="110.25" gradientUnits="userSpaceOnUse" xlink:href="#linearGradient20539-5-9-6-3-6"/>
  <linearGradient id="linearGradient20306" x1="53.679" x2="68.128" y1="142.04" y2="141.77" gradientUnits="userSpaceOnUse" xlink:href="#linearGradient20539-5-9-6-3-6"/>
  <linearGradient id="linearGradient20308" x1="54.777" x2="68.617" y1="143.99" y2="144.08" gradientUnits="userSpaceOnUse" xlink:href="#linearGradient20539-5-9-6-3-6"/>
  <linearGradient id="linearGradient20310" x1="53.502" x2="67.741" y1="146.23" y2="146.43" gradientUnits="userSpaceOnUse" xlink:href="#linearGradient20539-5-9-6-3-6"/>
  <linearGradient id="linearGradient20312" x1="53.461" x2="68.128" y1="148.61" y2="148.75" gradientUnits="userSpaceOnUse" xlink:href="#linearGradient20539-5-9-6-3-6"/>
  <linearGradient id="linearGradient20314" x1="53.206" x2="67.368" y1="151.03" y2="151.1" gradientUnits="userSpaceOnUse" xlink:href="#linearGradient20539-5-9-6-3-6"/>
  <linearGradient id="linearGradient20316" x1="54.579" x2="67.626" y1="153.36" y2="153.17" gradientUnits="userSpaceOnUse" xlink:href="#linearGradient20539-5-9-6-3-6"/>
  <linearGradient id="linearGradient20318" x1="54.667" x2="66.995" y1="155.38" y2="155.38" gradientUnits="userSpaceOnUse" xlink:href="#linearGradient20539-5-9-6-3-6"/>
  <linearGradient id="linearGradient20320" x1="53.468" x2="67.368" y1="157.19" y2="157.46" gradientUnits="userSpaceOnUse" xlink:href="#linearGradient20539-5-9-6-3-6"/>
  <linearGradient id="linearGradient20322" x1="53.57" x2="66.751" y1="163.69" y2="163.64" gradientUnits="userSpaceOnUse" xlink:href="#linearGradient20539-5-9-6-3-6"/>
  <linearGradient id="linearGradient20324" x1="53.812" x2="66.751" y1="160.64" y2="160.71" gradientUnits="userSpaceOnUse" xlink:href="#linearGradient20539-5-9-6-3-6"/>
  <linearGradient id="linearGradient20326" x1="260.26" x2="278.42" y1="835.21" y2="835.21" gradientTransform="matrix(.71083 0 0 .71083 -81.266 -424.35)" gradientUnits="userSpaceOnUse" xlink:href="#linearGradient20539-5-9-6-3-6"/>
  <linearGradient id="linearGradient20328" x1="53.575" x2="66.004" y1="166.56" y2="166.66" gradientUnits="userSpaceOnUse" xlink:href="#linearGradient20539-5-9-6-3-6"/>
  <linearGradient id="linearGradient21342" x1="144.51" x2="224.64" y1="939.66" y2="945.02" gradientTransform="translate(280.78 -787.76)" gradientUnits="userSpaceOnUse">
   <stop stop-color="#ffffff" stop-opacity=".8432" offset="0"/>
   <stop stop-color="#00385e" offset="1"/>
  </linearGradient>
  <linearGradient id="linearGradient21345" x1="890.45" x2="1008.6" y1="50.601" y2="50.601" gradientTransform="matrix(.33536 0 0 .33536 180.45 124.41)" gradientUnits="userSpaceOnUse">
   <stop stop-color="#ffffff" offset="0"/>
   <stop stop-color="#00385e" offset="1"/>
  </linearGradient>
  <linearGradient id="linearGradient21349" x1="851.56" x2="940.1" y1="-187.34" y2="-188.41" gradientTransform="matrix(.33536 0 0 .33536 180.79 124.55)" gradientUnits="userSpaceOnUse">
   <stop stop-color="#ffffff" offset="0"/>
   <stop stop-color="#00385e" offset="1"/>
  </linearGradient>
 </defs>
 <g transform="translate(0 -733.46)">
  <path d="m-568.71 757.58v-169.34h388.72" color="#000000" fill="none" stroke="url(#linearGradient8230)" stroke-linecap="round" stroke-linejoin="round" stroke-miterlimit="7" stroke-width=".96726"/>
  <g transform="matrix(.33536 0 0 .33536 -142.04 648.59)">
   <g stroke="#000000">
    <g stroke-width="1px">
     <path transform="translate(0 733.46)" d="m899.42-67.408c3.4736-11.38 15.065-21.421 29.312-17.313 98.211 33.403 202.82 58.962 320.75 80.31l0.1565 10.603c-130.26-21.973-278.22-55.392-350.22-73.6z" fill="url(#linearGradient4136)"/>
     <path transform="translate(0 733.46)" d="m481.46-283.88 197.69 108.16c18.927 7.9809 27.148 12.329 69.991 30.075 7.05 4.2057 13.671 6.2121 15.989 16.096l4.8774 113.25 105.1-48.538-4.1037-108.02c0.46793-10.438 1.077-20.308-19.003-30.747-82.723-32.628-165.85-75.407-246.67-130.88l-124 0.3788z" fill="url(#linearGradient4153)" opacity=".75148"/>
     <path d="m482.33 594.49 132.33 57.579c11.236 4.9393 11.364 20.203 11.364 20.203l18.94 411.13c12.891 54.138 87.037 55.365 93.995 1.847l19.868-356.12c4.0892-7.6578 8.4169-16.777 30.467-21.031 162.52 69.497 461.06 129.53 461.06 129.53l-1.2661 319s-470.51-0.052-767.03-0.49z" fill="url(#linearGradient12939)" opacity=".68343" stroke-linecap="round" stroke-linejoin="round"/>
     <path d="m482.3 594.48c0-5.0508-0.68365-126.21-0.68365-126.21 69.803 37.24 160.65 83.739 234.91 124.07 11.368 7.105 18.958 9.2312 22.53 30.382l3.244 410.3-3.5259 51.688c-6.6198 54.437-82.509 53.391-94.168-2.3774l-18.736-410.89c-0.92509-9.8073-1.665-14.972-15.152-21.213z" fill="url(#linearGradient12949)" opacity=".61538" stroke-linecap="round" stroke-linejoin="round"/>
     <path d="m707.27 569.77 41.106 18.181c12.287 6.2228 17.968 7.2927 17.997 33.396l2.9392 93.748c-5.1981 3.5057-8.9149 7.1093-10.609 15.562l-17.493 289.67-2.0984-391.54c-0.68944-23.983-6.6021-25.62-22.06-36.456l-235.47-123.9-0.21028-18.94 63.773 34.825c54.576 28.619 101.98 59.646 162.12 85.45z" fill="url(#linearGradient4110)" opacity=".72781"/>
     <path d="m772.23 714.66 100.71-45.233c10.827-4.6389 16.012-8.5039 27.143-2.6244 123.77 30.187 242.65 54.233 351.19 73.105 0 0 0.4285 106.94-0.3697 106.52-268.76-53.4-342.11-88.332-478.67-131.76z" fill="url(#linearGradient3999)" opacity=".73077"/>
    </g>
    <path d="m915.15 648.67 106.02-53.599c4.3105-1.4727 7.2154-1.6279 15.288-0.20921 71.033 24.267 213.6 59.326 213.6 59.326-0.1907-0.14989-0.3545 74.832-0.3545 74.832-129.43-21.163-233.43-48.324-320.3-80.008-3.8144-0.94838-9.2188-1.5255-14.256-0.34253z" fill="url(#linearGradient4128)" stroke-linecap="round" stroke-linejoin="round" stroke-width=".99921"/>
   </g>
   <path transform="translate(0 786.61)" d="m644.3 296.16 247.38-118.95 96.199-0.30637-247.83 121.45z" fill="none" stroke="#4d4d4d" stroke-width="1px"/>
  </g>
  <g transform="translate(-1.0839 788.78)">
   <circle transform="translate(-443.57 -102.14)" cx="547.06" cy="102.61" r="3.0107" d="m 550.07409,102.61078 c 0,1.66278 -1.34795,3.01074 -3.01074,3.01074 -1.66278,0 -3.01073,-1.34796 -3.01073,-3.01074 0,-1.66279 1.34795,-3.01074 3.01073,-3.01074 1.66279,0 3.01074,1.34795 3.01074,3.01074 z" fill="#ffffff" fill-rule="evenodd" stroke="#34679b" stroke-miterlimit="10" stroke-width=".8607"/>
   <g stroke="#000000">
    <path transform="matrix(1.7214 0 0 1.7214 9.4269 -276.17)" d="m34.581 133.59 38.864 0.20747-4.8283 7.1675h-29.217z" fill="url(#linearGradient20304)" stroke-linecap="square" stroke-miterlimit="10" stroke-width=".47343"/>
    <g>
     <g stroke-linecap="round" stroke-linejoin="round" stroke-miterlimit="10" stroke-width=".47278">
      <polygon transform="matrix(1.7214 0 0 1.7214 9.4269 -276.17)" points="39.902 140.96 39.902 140.96 68.128 140.96 68.128 142.58 39.902 142.58" fill="url(#linearGradient20306)"/>
      <polygon transform="matrix(1.7214 0 0 1.7214 9.4269 -276.17)" points="39.529 142.58 39.529 142.58 68.617 142.58 68.373 145.58 39.902 145.58" fill="url(#linearGradient20308)"/>
      <polygon transform="matrix(1.7214 0 0 1.7214 9.4269 -276.17)" points="40.391 145.62 40.391 145.62 67.741 145.62 67.741 147.24 40.391 147.24" fill="url(#linearGradient20310)"/>
      <polygon transform="matrix(1.7214 0 0 1.7214 9.4269 -276.17)" points="40.017 147.24 40.017 147.24 68.128 147.24 67.884 150.24 40.391 150.24" fill="url(#linearGradient20312)"/>
      <polygon transform="matrix(1.7214 0 0 1.7214 9.4269 -276.17)" points="40.893 150.29 40.893 150.29 67.368 150.29 67.368 151.91 40.893 151.91" fill="url(#linearGradient20314)"/>
      <polygon transform="matrix(1.7214 0 0 1.7214 9.4269 -276.17)" points="40.649 151.91 40.649 151.91 67.625 151.91 67.397 154.44 40.994 154.44" fill="url(#linearGradient20316)"/>
      <polygon transform="matrix(1.7214 0 0 1.7214 9.4269 -276.17)" points="41.396 154.56 41.396 154.56 66.995 154.56 66.995 156.19 41.396 156.19" fill="url(#linearGradient20318)"/>
      <polygon transform="matrix(1.7214 0 0 1.7214 9.4269 -276.17)" points="41.022 156.19 41.022 156.19 67.368 156.19 67.153 158.73 41.367 158.73" fill="url(#linearGradient20320)"/>
     </g>
     <polygon transform="matrix(1.7214 0 0 1.7214 9.4269 -276.17)" points="41.898 162.6 41.898 162.6 66.75 162.6 66.535 164.68 42.214 164.68" fill="url(#linearGradient20322)" stroke-linecap="square" stroke-miterlimit="10" stroke-width=".47278"/>
     <g stroke-linecap="round" stroke-linejoin="round">
      <polygon transform="matrix(1.7214 0 0 1.7214 9.4269 -276.17)" points="41.898 158.86 41.898 158.86 66.75 158.86 66.535 162.56 42.214 162.56" fill="url(#linearGradient20324)" stroke-miterlimit="10" stroke-width=".47278"/>
      <path d="m96.109 217.61c0 5.5481 1.8044 9.7019 7.3525 9.7019 5.5481 0 7.2952-4.1538 7.2952-9.7019l4.0336-76.083 0.0562-127.19h-22.648l-0.0562 127.19z" color="#000000" fill="url(#linearGradient20326)" stroke-width=".81496"/>
      <polygon transform="matrix(1.7214 0 0 1.7214 9.4269 -276.17)" points="42.516 164.64 42.516 164.64 66.004 164.64 65.803 168.67 42.817 168.67" fill="url(#linearGradient20328)" stroke-miterlimit="10" stroke-width=".47278"/>
     </g>
    </g>
   </g>
  </g>
  <g stroke-linecap="round" stroke-linejoin="round">
   <g transform="translate(-1663.3 924.32)" fill="none" stroke="#d4aa00" stroke-width="1.4173">
    <path d="m1777.2-53.828 69.228-33.643 19.295 0.33294-106.34 50.815-22.752-0.58383 24.47-11.269"/>
    <g>
     <path transform="translate(0 -10.63)" d="m1822.1-44.336-80.714 2.1429 11.912-9.6192m24.424-22.122 46.521-40.402-1.0714-45"/>
     <path d="m1777.2-64.621 59.933-27.491 54.786 1.2704-124.69 58.449-57.931-1.1195 51.81-23.75"/>
    </g>
   </g>
   <path d="m154.97 871.27c-1.0175 1.2373-1.8268 2.3759-2.4137 5.3355l-8.4692 116.88c-3.2918 21.494-31.665 19.095-33.199 0.3389l6.2037-105.46c12.721-6.0867 35.778-16.886 37.879-17.087z" fill="url(#linearGradient13821)" stroke="#000000" stroke-width=".3351"/>
   <g transform="translate(-1674.9 908.45)" fill="none" stroke="#d4aa00" stroke-width="1.4173">
    <path transform="translate(0 -10.63)" d="m1746.6 46.821 25.664-12.037m16.641-8.344 71.842-33.157"/>
    <path transform="translate(0 -10.63)" d="m1825.3 17.779-78.287 4.0406 18.494-15.65m23.12-21.891 40.714-36.199-0.1479-42.931"/>
    <path d="m1784.4 8.894 68.106-31.22 31.958 0.84064-125.59 58.662-34.206-0.9029 47.908-21.953"/>
   </g>
   <path d="m143.79 826.32c0.66169 0.32304 8.6593 2.4294 9.5702 8.6387l1.0692 36.386-3.078 1.5039-1.326-36.736c-0.42074-5.0356-3.1911-7.2701-6.2354-9.7926z" fill="url(#linearGradient4343)" stroke="#000000" stroke-width=".3351"/>
   <path d="m111.89 970.42 34.485-17.032 16.721 0.1057-93.293 44.336-16.614-0.49983 39.947-18.516" fill="none" stroke="#d4aa00" stroke-width="1.4173"/>
   <path d="m197.45 849.73-8.4718 122.34c-4.4689 20.016-31.195 16.832-31.929-0.4235l2.4523-99.483c1.1786-6.954 19.994-11.978 37.948-22.432z" fill="url(#linearGradient4275)" opacity=".54142" stroke="#000000" stroke-width=".33661"/>
  </g>
 </g>
 <g transform="translate(0 53.15)">
  <path d="m60.942-3.9708c5.3493 3.7163 14.173 9.0252 19.674 12.38m33.483 18.184c10.749 5.189 18.896 8.446 29.929 12.962 5.5681 2.1435 7.9356 5.1819 9.4702 8.3338l0.95786 36.827c3.6525-0.31836 5.1094 0.72566 5.1094 0.72566 0.90189-2.1186 1.5492-3.8099 5.2127-5.7292l35.313-17.934c1.523-0.70534 3.0936-0.86923 5.5532-0.14793 23.694 8.2403 71.393 19.652 71.393 19.652l0.0315-0.02583 0.17649 62.349-0.6652 106.31h-256.8v-253.89h41.162" fill="none" stroke="#000000" stroke-linecap="round" stroke-linejoin="round" stroke-width=".63425"/>
  <path d="m114.52 27.556 42.02-18.971 70.282 0.083257-129.18 59.329-68.178-0.30745 60.751-28.403" fill="none" stroke="#800080" stroke-linecap="round" stroke-linejoin="round" stroke-width="1.3429"/>
  <g transform="matrix(.33536 0 0 .33536 180.74 -139.16)">
   <g stroke="#000000">
    <g stroke-width="1px">
     <path transform="translate(0 733.46)" d="m899.42-67.408c3.4736-11.38 15.065-21.421 29.312-17.313 98.211 33.403 202.82 58.962 320.75 80.31l0.1565 10.603c-130.26-21.973-278.22-55.392-350.22-73.6z" fill="url(#linearGradient4136)"/>
     <path transform="translate(0 733.46)" d="m481.46-283.88 197.69 108.16c18.927 7.9809 27.148 12.329 69.991 30.075 7.05 4.2057 13.671 6.2121 15.989 16.096l4.8774 113.25 105.1-48.538-4.1037-108.02c0.46793-10.438 1.077-20.308-19.003-30.747-82.723-32.628-165.85-75.407-246.67-130.88l-124 0.3788z" fill="url(#linearGradient4153)" opacity=".75148"/>
     <path d="m482.33 594.49 132.33 57.579c11.236 4.9393 11.364 20.203 11.364 20.203l18.94 411.13c12.891 54.138 87.037 55.365 93.995 1.847l19.868-356.12c4.0892-7.6578 8.4169-16.777 30.467-21.031 162.52 69.497 461.06 129.53 461.06 129.53l-1.2661 319s-470.51-0.052-767.03-0.49z" fill="url(#linearGradient12939)" opacity=".68343" stroke-linecap="round" stroke-linejoin="round"/>
     <path d="m482.3 594.48c0-5.0508-0.68365-126.21-0.68365-126.21 69.803 37.24 160.65 83.739 234.91 124.07 11.368 7.105 18.958 9.2312 22.53 30.382l3.244 410.3-3.5259 51.688c-6.6198 54.437-82.509 53.391-94.168-2.3774l-18.736-410.89c-0.92509-9.8073-1.665-14.972-15.152-21.213z" fill="url(#linearGradient12949)" opacity=".61538" stroke-linecap="round" stroke-linejoin="round"/>
     <path d="m707.27 569.77 41.106 18.181c12.287 6.2228 17.968 7.2927 17.997 33.396l2.9392 93.748c-5.1981 3.5057-8.9149 7.1093-10.609 15.562l-17.493 289.67-2.0984-391.54c-0.68944-23.983-6.6021-25.62-22.06-36.456l-235.47-123.9-0.21028-18.94 63.773 34.825c54.576 28.619 101.98 59.646 162.12 85.45z" fill="url(#linearGradient4110)" opacity=".72781"/>
     <path d="m772.23 714.66 100.71-45.233c10.827-4.6389 16.012-8.5039 27.143-2.6244 123.77 30.187 242.65 54.233 351.19 73.105 0 0 0.4285 106.94-0.3697 106.52-268.76-53.4-342.11-88.332-478.67-131.76z" fill="url(#linearGradient3999)" opacity=".73077"/>
    </g>
    <path d="m915.15 648.67 106.02-53.599c4.3105-1.4727 7.2154-1.6279 15.288-0.20921 71.033 24.267 213.6 59.326 213.6 59.326-0.1907-0.14989-0.3545 74.832-0.3545 74.832-129.43-21.163-233.43-48.324-320.3-80.008-3.8144-0.94838-9.2188-1.5255-14.256-0.34253z" fill="url(#linearGradient4128)" stroke-linecap="round" stroke-linejoin="round" stroke-width=".99921"/>
   </g>
   <path transform="translate(0 786.61)" d="m644.3 296.16 247.38-118.95 96.199-0.30637-247.83 121.45z" fill="none" stroke="#4d4d4d" stroke-width="1px"/>
  </g>
  <g transform="translate(322.77 1.027)">
   <circle transform="translate(-443.57 -102.14)" cx="547.06" cy="102.61" r="3.0107" d="m 550.07409,102.61078 c 0,1.66278 -1.34795,3.01074 -3.01074,3.01074 -1.66278,0 -3.01073,-1.34796 -3.01073,-3.01074 0,-1.66279 1.34795,-3.01074 3.01073,-3.01074 1.66279,0 3.01074,1.34795 3.01074,3.01074 z" fill="#ffffff" fill-rule="evenodd" stroke="#34679b" stroke-miterlimit="10" stroke-width=".8607"/>
   <g stroke="#000000">
    <path transform="matrix(1.7214 0 0 1.7214 9.4269 -276.17)" d="m34.581 133.59 38.864 0.20747-4.8283 7.1675h-29.217z" fill="url(#linearGradient20304)" stroke-linecap="square" stroke-miterlimit="10" stroke-width=".47343"/>
    <g>
     <g stroke-linecap="round" stroke-linejoin="round" stroke-miterlimit="10" stroke-width=".47278">
      <polygon transform="matrix(1.7214 0 0 1.7214 9.4269 -276.17)" points="39.902 142.58 39.902 140.96 39.902 140.96 68.128 140.96 68.128 142.58" fill="url(#linearGradient20306)"/>
      <polygon transform="matrix(1.7214 0 0 1.7214 9.4269 -276.17)" points="39.902 145.58 39.529 142.58 39.529 142.58 68.617 142.58 68.373 145.58" fill="url(#linearGradient20308)"/>
      <polygon transform="matrix(1.7214 0 0 1.7214 9.4269 -276.17)" points="40.391 147.24 40.391 145.62 40.391 145.62 67.741 145.62 67.741 147.24" fill="url(#linearGradient20310)"/>
      <polygon transform="matrix(1.7214 0 0 1.7214 9.4269 -276.17)" points="40.391 150.24 40.017 147.24 40.017 147.24 68.128 147.24 67.884 150.24" fill="url(#linearGradient20312)"/>
      <polygon transform="matrix(1.7214 0 0 1.7214 9.4269 -276.17)" points="40.893 151.91 40.893 150.29 40.893 150.29 67.368 150.29 67.368 151.91" fill="url(#linearGradient20314)"/>
      <polygon transform="matrix(1.7214 0 0 1.7214 9.4269 -276.17)" points="40.994 154.44 40.649 151.91 40.649 151.91 67.625 151.91 67.397 154.44" fill="url(#linearGradient20316)"/>
      <polygon transform="matrix(1.7214 0 0 1.7214 9.4269 -276.17)" points="41.396 156.19 41.396 154.56 41.396 154.56 66.995 154.56 66.995 156.19" fill="url(#linearGradient20318)"/>
      <polygon transform="matrix(1.7214 0 0 1.7214 9.4269 -276.17)" points="41.367 158.73 41.022 156.19 41.022 156.19 67.368 156.19 67.153 158.73" fill="url(#linearGradient20320)"/>
     </g>
     <polygon transform="matrix(1.7214 0 0 1.7214 9.4269 -276.17)" points="42.214 164.68 41.898 162.6 41.898 162.6 66.75 162.6 66.535 164.68" fill="url(#linearGradient20322)" stroke-linecap="square" stroke-miterlimit="10" stroke-width=".47278"/>
     <g stroke-linecap="round" stroke-linejoin="round">
      <polygon transform="matrix(1.7214 0 0 1.7214 9.4269 -276.17)" points="42.214 162.56 41.898 158.86 41.898 158.86 66.75 158.86 66.535 162.56" fill="url(#linearGradient20324)" stroke-miterlimit="10" stroke-width=".47278"/>
      <path d="m96.109 217.61c0 5.5481 1.8044 9.7019 7.3525 9.7019 5.5481 0 7.2952-4.1538 7.2952-9.7019l4.0336-76.083 0.0562-127.19h-22.648l-0.0562 127.19z" color="#000000" fill="url(#linearGradient20326)" stroke-width=".81496"/>
      <polygon transform="matrix(1.7214 0 0 1.7214 9.4269 -276.17)" points="42.817 168.67 42.516 164.64 42.516 164.64 66.004 164.64 65.803 168.67" fill="url(#linearGradient20328)" stroke-miterlimit="10" stroke-width=".47278"/>
     </g>
    </g>
   </g>
  </g>
  <g stroke-linecap="round" stroke-linejoin="round">
   <g transform="translate(-1340.5 136.56)" fill="none" stroke="#d4aa00" stroke-width="1.4173">
    <path d="m1777.2-53.828 69.228-33.643 19.295 0.33294-106.34 50.815-22.752-0.58383 24.47-11.269"/>
    <g>
     <path transform="translate(0 -10.63)" d="m1822.1-44.336-80.714 2.1429 13.162-10.869m24.067-21.944 45.628-39.33-1.0714-45"/>
     <path d="m1778.5-65.514 58.683-26.598 54.786 1.2704-124.69 58.449-57.931-1.1195 51.81-23.75"/>
    </g>
   </g>
   <path d="m477.75 83.517c-1.0175 1.2373-1.8268 2.3759-2.4137 5.3355l-8.4692 116.88c-3.2918 21.494-31.665 19.095-33.199 0.3389l6.2037-105.46c12.721-6.0867 35.778-16.886 37.879-17.087z" fill="url(#linearGradient21342)" stroke="#000000" stroke-width=".3351"/>
   <g transform="translate(-1352.1 120.69)" fill="none" stroke="#d4aa00" stroke-width="1.4173">
    <path transform="translate(0 -10.63)" d="m1746.6 46.821 26.169-12.542m16.136-7.8389 71.842-33.157"/>
    <path transform="translate(0 -10.63)" d="m1825.3 17.779-78.287 4.0406 18.494-15.65m23.12-21.891 40.714-36.199-0.1479-42.931"/>
    <path d="m1784.4 8.894 68.106-31.22 31.958 0.84064-125.59 58.662-34.206-0.9029 47.908-21.953"/>
   </g>
   <path d="m466.57 38.565c0.66169 0.32304 8.6593 2.4294 9.5702 8.6387l1.0692 36.386-3.078 1.5039-1.326-36.736c-0.42074-5.0356-3.1911-7.2701-6.2354-9.7926z" fill="url(#linearGradient21349)" stroke="#000000" stroke-width=".3351"/>
   <path d="m434.67 182.66 34.485-17.032 16.721 0.1057-93.293 44.336-16.614-0.49983 39.947-18.516" fill="none" stroke="#d4aa00" stroke-width="1.4173"/>
   <path d="m520.23 61.976-8.4718 122.34c-4.4689 20.016-31.195 16.832-31.929-0.4235l2.4523-99.483c1.1786-6.954 19.994-11.978 37.948-22.432z" fill="url(#linearGradient21345)" opacity=".54142" stroke="#000000" stroke-width=".33661"/>
   <path d="m383.72-5.1139c5.3493 3.7163 14.173 9.0252 19.674 12.38m33.483 18.184c10.749 5.189 18.896 8.446 29.929 12.962 5.5681 2.1435 7.9356 5.1819 9.4702 8.3338l0.95786 36.827c3.6525-0.31836 5.1094 0.72566 5.1094 0.72566 0.90189-2.1186 1.5492-3.8099 5.2127-5.7292l35.313-17.934c1.523-0.70535 3.0936-0.86924 5.5532-0.14794 23.694 8.2404 71.393 19.652 71.393 19.652l0.0315-0.0258 0.17649 62.349-0.6652 106.31h-256.8v-253.89h41.162" fill="none" stroke="#000000" stroke-width=".63425"/>
   <path d="m436.58 25.341 39.877-17.9 70.282 0.08326-110.03 50.879m-14.487 6.427-4.6681 2.0231-68.178-0.30745 64.988-30.842" fill="none" stroke="#800080" stroke-width="1.3429"/>
  </g>
  <g transform="matrix(.59856 .80108 -.80108 .59856 610.97 -230.28)" stroke="#ee7f00" stroke-linecap="round" stroke-linejoin="round">
   <path d="m123.25 321.2-19.774-5.0476-4e-3 9.3998c-0.21802 0.15145 19.777-4.3522 19.777-4.3522z" fill="#ee7f00" stroke-width="1.7717"/>
   <path d="m110.23 320.42-26.099-0.0648" fill="none" stroke-width="1.3429"/>
  </g>
  <g>
   <path transform="translate(0 -786.61)" d="m221.96 814.84-11.115-10.859" color="#000000" fill="#1f638a" fill-rule="evenodd" stroke="#1f638a" stroke-linecap="round" stroke-linejoin="round" stroke-width="1.7716"/>
   <g transform="translate(272.46 134.14)">
    <ellipse cx="-44.92" cy="-98.798" rx="13.199" ry="13.469" fill="#1f638a" stroke-linecap="round" stroke-linejoin="round" stroke-width="1.0658"/>
    <text x="-51.39423" y="-91.055557" fill="#000000" font-family="'Arial Nova', 'Arial Unicode MS', 'Yu Gothic UI', sans-serif" font-size="12.8px" letter-spacing="0px" stroke-width="1.0667" word-spacing="0px" style="line-height:0%" xml:space="preserve"><tspan x="-51.39423" y="-91.055557" fill="#ffffff" font-family="'Arial Nova', 'Arial Unicode MS', 'Yu Gothic UI', sans-serif" font-size="21.333px" stroke="#ffffff" stroke-width="1.0667" style="line-height:1.25">1</tspan></text>
   </g>
  </g>
  <g transform="translate(320.64 -2.4621)">
   <path transform="translate(0 -786.61)" d="m221.96 814.84-11.115-10.859" color="#000000" fill="#1f638a" fill-rule="evenodd" stroke="#1f638a" stroke-linecap="round" stroke-linejoin="round" stroke-width="1.7716"/>
   <g transform="translate(272.46 134.14)">
    <ellipse cx="-44.92" cy="-98.798" rx="13.199" ry="13.469" fill="#1f638a" stroke-linecap="round" stroke-linejoin="round" stroke-width="1.0658"/>
    <text x="-51.39423" y="-91.055557" fill="#000000" font-family="'Arial Nova', 'Arial Unicode MS', 'Yu Gothic UI', sans-serif" font-size="12.8px" letter-spacing="0px" stroke-width="1.0667" word-spacing="0px" style="line-height:0%" xml:space="preserve"><tspan x="-51.39423" y="-91.055557" fill="#ffffff" font-family="'Arial Nova', 'Arial Unicode MS', 'Yu Gothic UI', sans-serif" font-size="21.333px" stroke="#ffffff" stroke-width="1.0667" style="line-height:1.25">1</tspan></text>
   </g>
  </g>
  <g transform="translate(232.59 64.949)">
   <ellipse cx="-44.92" cy="-98.798" rx="13.199" ry="13.469" fill="#1f638a" stroke-linecap="round" stroke-linejoin="round" stroke-width="1.0658"/>
   <text x="-51.953754" y="-91.710579" fill="#000000" font-family="'Arial Nova', 'Arial Unicode MS', 'Yu Gothic UI', sans-serif" font-size="12.8px" letter-spacing="0px" stroke-width="1.0667" word-spacing="0px" style="line-height:0%" xml:space="preserve"><tspan x="-51.953754" y="-91.710579" fill="#ffffff" font-family="'Arial Nova', 'Arial Unicode MS', 'Yu Gothic UI', sans-serif" font-size="21.333px" stroke="#ffffff" stroke-width="1.0667" style="line-height:1.25">A</tspan></text>
  </g>
  <g transform="translate(552.78 65.842)">
   <ellipse cx="-44.92" cy="-98.798" rx="13.199" ry="13.469" fill="#1f638a" stroke-linecap="round" stroke-linejoin="round" stroke-width="1.0658"/>
   <text x="-51.566948" y="-91.358932" fill="#000000" font-family="'Arial Nova', 'Arial Unicode MS', 'Yu Gothic UI', sans-serif" font-size="12.8px" letter-spacing="0px" stroke-width="1.0667" word-spacing="0px" style="line-height:0%" xml:space="preserve"><tspan x="-51.566948" y="-91.358932" fill="#ffffff" font-family="'Arial Nova', 'Arial Unicode MS', 'Yu Gothic UI', sans-serif" font-size="21.333px" stroke="#ffffff" stroke-width="1.0667" style="line-height:1.25">B</tspan></text>
  </g>
 </g>
</svg>
