<svg width="168.75mm" height="65mm" version="1.1" viewBox="0 0 168.75 65" xmlns="http://www.w3.org/2000/svg" xmlns:xlink="http://www.w3.org/1999/xlink">
 <defs>
  <linearGradient id="linearGradient9635" x1="-1807.7" x2="454.6" y1="438.6" y2="489.21" gradientTransform="translate(-982.86 248.57)" gradientUnits="userSpaceOnUse" xlink:href="#linearGradient20539-7"/>
  <linearGradient id="linearGradient20539-7" x1="54.983" x2="54.983" y1="34.986" y2="34.986" gradientUnits="userSpaceOnUse">
   <stop stop-color="#FFFFFF" offset="0"/>
   <stop stop-color="#FCFCFC" offset=".2264"/>
   <stop stop-color="#F4F4F4" offset=".3626"/>
   <stop stop-color="#E6E6E6" offset=".475"/>
   <stop stop-color="#D1D1D1" offset=".5744"/>
   <stop stop-color="#B7B7B7" offset=".6652"/>
   <stop stop-color="#979797" offset=".7498"/>
   <stop stop-color="#707070" offset=".8297"/>
   <stop stop-color="#444444" offset=".9057"/>
   <stop stop-color="#121212" offset=".9761"/>
   <stop stop-color="#000000" offset="1"/>
  </linearGradient>
  <linearGradient id="linearGradient9595" x1="-935.08" x2="-140.21" y1="364.72" y2="437.53" gradientTransform="translate(-982.86 248.57)" gradientUnits="userSpaceOnUse" xlink:href="#linearGradient4459"/>
  <linearGradient id="linearGradient4459">
   <stop stop-color="#ffffff" offset="0"/>
   <stop stop-color="#7f9bae" offset=".5"/>
   <stop stop-color="#00385e" offset="1"/>
  </linearGradient>
  <linearGradient id="linearGradient9587" x1="-69.618" x2="-853.64" y1="475.14" y2="424.28" gradientTransform="translate(-982.86 248.57)" gradientUnits="userSpaceOnUse" xlink:href="#linearGradient4473"/>
  <linearGradient id="linearGradient4473">
   <stop stop-color="#ffffff" offset="0"/>
   <stop stop-color="#00385e" offset="1"/>
  </linearGradient>
  <linearGradient id="linearGradient9603" x1="-176.78" x2="-745.97" y1="333.37" y2="313.93" gradientTransform="translate(-982.86 248.57)" gradientUnits="userSpaceOnUse" xlink:href="#linearGradient4459"/>
  <linearGradient id="linearGradient9611" x1="-103.72" x2="-759.42" y1="590.76" y2="-107.86" gradientTransform="translate(-982.86 248.57)" gradientUnits="userSpaceOnUse" xlink:href="#linearGradient4473"/>
  <linearGradient id="linearGradient9619" x1="-73.373" x2="-733.36" y1="478.02" y2="119.34" gradientTransform="translate(-982.86 248.57)" gradientUnits="userSpaceOnUse" xlink:href="#linearGradient4459"/>
  <linearGradient id="linearGradient9627" x1="-543.75" x2="174.82" y1="-351.14" y2="1049.3" gradientTransform="translate(-982.86 248.57)" gradientUnits="userSpaceOnUse" xlink:href="#linearGradient4473"/>
  <linearGradient id="linearGradient9635-0" x1="-1657.8" x2="454.6" y1="457.04" y2="489.21" gradientTransform="translate(-982.86 248.57)" gradientUnits="userSpaceOnUse" xlink:href="#linearGradient20539-7"/>
 </defs>
 <g>
  <g transform="translate(-36.616 -93.544)">
   <g transform="matrix(.081166 0 0 .081166 190.6 87.776)">
    <g>
     <path d="m-1869.8 697.06 435.56 136.3 458.72-82.506-393.54-131.51z" fill="url(#linearGradient9635)" stroke="#000000" stroke-width="2.106px"/>
     <path d="m-1376.5 797.92c3.1655-20.937-10.943-265.62-148.51-299.73-138.84-20.809-145.98 231.89-145.98 231.89 96.876 36.302 194.03 50.752 294.49 67.841z" fill="url(#linearGradient9595)" stroke="#4d4d4d" stroke-width="2.0675"/>
     <path d="m-1375.7 797.82c-1.4061-58.734-11.753-127.98-41.429-196.43-25.724-50.287-50.909-87.383-110.36-103.75-40.194-4.3271-67.392 12.318-87.983 38.82-39.976 51.453-50.96 141.05-56.174 193.38l-4.1363-0.80094c16.168-143.75 27.148-170.22 52.023-208.09 24.875-37.874 75.406-68.656 124.53-48.876 93.968 25.269 229.57 289.95 154.92 329.77z" fill="url(#linearGradient9587)" stroke="#4d4d4d" stroke-width="2.0675"/>
    </g>
    <g stroke="#646464" stroke-width=".57752">
     <path d="m-1508.6 468.79c55.538 14.126 88.178 64.452 115 113.57 30.1 64.158 47.268 137.3 49.109 217.9l29.294 0.75762c-1.4726-77.5-12.576-154.48-49.118-230.08-34.926-70.617-76.766-103.53-122.14-117.14-43.27-4.4516-79.173 16.676-101.43 30.714 20.924-10.743 38.314-25.019 79.286-15.714" fill="url(#linearGradient9603)"/>
     <path d="m-1315.4 800.93 41.429-4.2857c-3.9889-137.91-53.602-312.71-168.69-345.29-6.1893-2.2647-11.95-3.2443-17.467-3.4922-16.633 0.36237-36.172 4.009-54.008 6.176 10.092-1.0154 17.457-2.5782 32.186 1.1327 60.394 23.475 92.629 66.782 118.88 117.72 33.24 69.569 47.76 146.09 47.678 228.04z" fill="url(#linearGradient9611)"/>
     <path d="m-1273.8 796.55 40.179-5c-13.934-138.4-65.509-369.87-226.35-343.78 6.5509 0.0673 13.812 2.139 21.014 4.2857 126.05 45.974 159.37 227.27 165.16 344.49z" fill="url(#linearGradient9619)"/>
     <path d="m-1404.3 449.57c152.17 45.635 184.95 212.77 192.5 336.61-0.9318 0.52261-1.9842 1.097-4.5536 2.3214l-19.911 3.0357c-8.3693-112.36-45.282-311.65-168.04-341.96z" fill="url(#linearGradient9627)"/>
    </g>
   </g>
   <g transform="matrix(.081166 0 0 .081166 263.16 86.447)">
    <path d="m-1869.8 697.06 435.56 136.3 458.72-82.506-393.54-131.51z" fill="url(#linearGradient9635-0)" stroke="#000000" stroke-width="2.106px"/>
    <path d="m-1376.5 797.92c3.1655-20.937-10.943-265.62-148.51-299.73-138.84-20.809-145.98 231.89-145.98 231.89 96.876 36.302 194.03 50.752 294.49 67.841z" fill="url(#linearGradient9595)" stroke="#000000" stroke-width="1px"/>
    <g stroke="#4d4d4d">
     <path d="m-1375.7 797.82c-1.4061-58.734-11.753-127.98-41.429-196.43-25.724-50.287-50.909-87.383-110.36-103.75-40.194-4.3271-67.392 12.318-87.983 38.82-39.976 51.453-50.96 141.05-56.174 193.38l-4.1363-0.80094c16.168-143.75 27.148-170.22 52.023-208.09 24.875-37.874 75.406-68.656 124.53-48.876 93.968 25.269 229.42 288.36 154.78 328.18z" fill="url(#linearGradient9587)" stroke-width="2.0675"/>
     <g stroke-width="1px">
      <path d="m-1508.6 468.79c55.538 14.126 88.178 64.452 115 113.57 30.1 64.158 47.268 137.3 49.109 217.9l29.294 0.75762c-1.4726-77.5-12.576-154.48-49.118-230.08-34.926-70.617-76.766-103.53-122.14-117.14-43.27-4.4516-79.173 16.676-101.43 30.714 20.924-10.743 38.314-25.019 79.286-15.714" fill="url(#linearGradient9603)"/>
      <path d="m-1315.4 800.93 41.429-4.2857c-3.9889-137.91-53.602-312.71-168.69-345.29-6.1893-2.2647-11.95-3.2443-17.467-3.4922-16.633 0.36237-36.172 4.009-54.008 6.176 10.092-1.0154 17.457-2.5782 32.186 1.1327 60.394 23.475 92.629 66.782 118.88 117.72 33.24 69.569 47.76 146.09 47.678 228.04z" fill="url(#linearGradient9611)"/>
      <path d="m-1273.8 796.55 40.179-5c-13.934-138.4-65.509-369.87-226.35-343.78 6.5509 0.0673 13.812 2.139 21.014 4.2857 126.05 45.974 159.37 227.27 165.16 344.49z" fill="url(#linearGradient9619)"/>
     </g>
     <path d="m-1404.3 449.57c152.17 45.635 186.03 214.47 193.58 338.3-0.5717 0.63065-2.4884 0.91688-5.454 1.0969l-20.091 2.5675c-8.3693-112.36-45.282-311.65-168.04-341.96z" fill="url(#linearGradient9627)" stroke-width=".57752"/>
    </g>
   </g>
   <g fill="none">
    <path d="m81.484 152.84c4.2428-0.12166 7.4373-0.60465 10.781-1.1459-0.37124-9.0292-2.6837-18.889-9.7392-24.473-2.7237-2.0433-5.3534-2.8642-7.9531-3.2963-2.7146-0.10771-4.5068 0.35631-7.7248 0.94131l-2.576 0.89326" stroke="#4d4d4d" stroke-width=".16781"/>
    <g stroke="#d4aa00" stroke-linecap="round" stroke-linejoin="round" stroke-width=".23438">
     <path d="m79.543 121.6-0.12228 3.6853"/>
     <path d="m87.412 128.76-0.17882 3.0447"/>
     <path d="m67.929 123.68c0.0456 1.1524 0.08103 2.3352 0.09298 3.5885-0.78788-0.4378-2.3747-0.62589-2.8343-0.56984l-0.16679-3.0391"/>
     <path d="m63.016 123.41 0.50257 3.0528c0.04271 0.1597 0.53945 0.18518 0.80502 0.1686 1.7977 0.61647 3.6358 1.1348 5.5997 1.3479 0.39492 0.11162 0.72907 0.34476 1.0576 0.58921m-8.5155-1.8064c2.8505 1.3229 6.2909 1.9922 9.5184 2.3258 0.35785 0.12257 0.49736 0.31064 0.69842 0.48026m-10.998-2.1815c0.01032 0.14325 0.07195 0.23936 0.21613 0.3153 2.7029 1.4236 6.9919 1.9679 11.606 2.353l0.60888 0.48351m-12.983-2.919c-0.32143 0.0815-0.39473 0.45658-0.12559 0.654 2.7036 1.457 10.29 2.8004 13.879 2.7664"/>
     <path d="m60.254 125.79 0.10745 2.543"/>
    </g>
    <g stroke-linecap="round" stroke-linejoin="round" stroke-width=".23438">
     <path d="m60.234 125.64 0.02532-3.2164 3.2544-0.45587 0.06332 3.2164" stroke="#ff0000"/>
     <path d="m63.039 123.36 0.05065-4.0115 1.956 0.74426-0.05065 3.5203" stroke="#ff0000"/>
     <path d="m67.933 123.69c-0.02532-0.1013 0.05065-1.2663 0.05065-1.2663l19.45-0.65848-0.0031 6.9795" stroke="#d4aa00"/>
     <path d="m79.608 112.32-0.05066 9.3706" stroke="#ff0000"/>
     <path d="m63.564 125.18 0.01267 1.3043" stroke="#d4aa00"/>
    </g>
    <g stroke="#ffcc00" stroke-linecap="round" stroke-linejoin="round" stroke-width=".16781">
     <path d="m75.019 131.04 0.47456 0.48353"/>
     <path d="m77.29 133.22-0.23732-0.45795c-6.7135 0.14803-14.799-2.044-17.237-3.121-0.49194-0.23281-0.40648-0.55075-0.11493-0.78356"/>
     <path d="m60.288 128.36c-0.29155 0.2328-0.20324 0.41497 0.2887 0.64777 2.9043 1.2561 8.5505 2.6915 15.523 2.8883 0.09676 0.0291 0.57592 0.48268 0.57592 0.48268"/>
     <path d="m78.787 134.11-0.28456-0.45795c-6.7819 0.28481-16.777-2.2383-19.187-3.3743-0.49194-0.23281-0.47895-0.47827-0.1874-0.71108"/>
     <path d="m88.602 133.17c0.03669 0.28004-0.30233 0.46614-1.0297 0.55516-2.7097 0.28397-5.2274 0.49116-7.7005 0.68051-5.834 0.80215-15.473-1.4508-21.242-3.4749-0.38633-0.15449-0.18345-0.56605-0.04515-0.64125"/>
     <path d="m89.068 134.03c0.03669 0.28004-0.26651 0.46614-0.9939 0.55515-2.5557 0.21398-4.9989 0.40195-7.8259 0.75214-5.1535 0.60518-16.44-1.7552-22.209-3.7793-0.38633-0.1545-0.18345-0.56605-0.04515-0.64125"/>
     <path d="m89.551 134.82c0.03669 0.28003-0.26651 0.46613-0.9939 0.55515-2.5557 0.21398-4.9989 0.40195-7.8259 0.75215-5.7012 0.71469-17.383-1.9019-23.1-3.9365-0.38633-0.15449-0.18344-0.56606-0.04514-0.64126"/>
     <path d="m89.927 135.65c0.03669 0.28004-0.26651 0.46613-0.9939 0.55515-2.5557 0.21398-4.9989 0.40195-7.8259 0.75215-5.695 0.65931-18.229-2.0721-23.938-4.1022-0.38633-0.15449-0.18345-0.56605-0.04515-0.64125"/>
     <path d="m90.327 136.37c0.13691 0.28003-0.18299 0.53295-0.91038 0.62197-2.5698 0.23086-5.0924 0.51412-7.8259 0.75214-5.8792 0.87392-19.092-2.1958-24.772-4.2531-0.38633-0.15449-0.18345-0.56604-0.04515-0.64124"/>
     <path d="m90.792 137.19c0.03669 0.28004-0.26651 0.46614-0.9939 0.55516-2.5728 0.2996-5.172 0.60504-7.9691 0.80587-6.1062 0.87736-19.669-2.3496-25.339-4.4022-0.38633-0.15449-0.18344-0.56605-0.04514-0.64125"/>
     <path d="m91.061 137.91c0.0367 0.28004-0.20383 0.50195-0.93122 0.63127-2.6169 0.35688-5.5667 0.69555-8.3911 0.88785-6.5406 0.65546-20.102-2.702-25.642-4.5916-0.38633-0.15449-0.18345-0.56605-0.04515-0.64125"/>
     <path d="m91.326 138.6c0.1128 0.48598-0.25756 0.65418-0.98495 0.74319-2.8371 0.40743-5.5486 0.60227-8.3012 0.90129-7.2157 0.4683-20.535-2.6963-26.23-4.7246-0.38633-0.15449-0.18345-0.56605-0.04515-0.64125"/>
     <path d="m91.657 139.48c0.08147 0.41882-0.2486 0.5691-0.976 0.65812-2.6441 0.36136-5.6596 0.63771-8.4337 0.89975-6.7907 0.73112-20.61-2.8831-26.728-4.7967-0.38633-0.15449-0.18345-0.56604-0.04515-0.64125"/>
     <path d="m91.88 140.25c0.06804 0.34719-0.24412 0.56016-0.97151 0.64917-2.5557 0.37643-5.5031 0.6882-8.357 0.95936-7.6109 0.59623-22.503-3.253-27.267-4.9806-0.38633-0.1545-0.18345-0.56606-0.04515-0.64126"/>
     <path d="m92.168 141.03c0.06355 0.36509-0.25756 0.54672-0.98494 0.63574-2.5557 0.37643-5.5031 0.68819-8.357 0.95935-7.6109 0.59624-23.103-3.3247-27.867-5.0522-0.38633-0.15449-0.18344-0.56604-0.04515-0.64125"/>
     <path d="m92.395 141.85c0.0367 0.28004-0.3068 0.51091-1.0342 0.59993-2.5557 0.37643-5.5031 0.6882-8.357 0.95936-7.6109 0.59623-23.47-3.4411-28.234-5.1686-0.38633-0.1545-0.18345-0.56606-0.04514-0.64126"/>
     <path d="m92.622 142.55c0.04564 0.40988-0.30233 0.5736-1.0297 0.6626-2.5557 0.37644-5.7692 0.67785-8.623 0.94901-7.6109 0.59623-23.661-3.4576-28.425-5.1851-0.38633-0.1545-0.18344-0.56605-0.04514-0.64125"/>
     <path d="m92.774 143.4c0.11728 0.38301-0.22622 0.47957-0.95361 0.56859-2.5557 0.37643-5.8434 0.77774-8.6972 1.0489-7.6109 0.59624-24.007-3.656-28.772-5.3835-0.38633-0.15449-0.18345-0.56605-0.04515-0.64125"/>
     <path d="m92.938 144.19c0.03669 0.28004-0.26651 0.46615-0.9939 0.55516-2.5557 0.37643-5.8255 0.77774-8.6793 1.0489-7.6109 0.59623-24.392-3.6828-29.157-5.4104-0.38634-0.15449-0.18345-0.56606-0.04515-0.64126"/>
     <path d="m93.102 145c0.03669 0.28003-0.26651 0.46614-0.9939 0.55515-2.5557 0.37644-5.9329 0.72402-8.7868 0.99518-7.6109 0.59623-24.535-3.7903-29.3-5.5178-0.38633-0.15449-0.18344-0.56604-0.04515-0.64124"/>
     <path d="m93.323 145.72c0.03669 0.28003-0.26652 0.46614-0.9939 0.55515-2.5557 0.37643-6.0583 0.74193-8.9121 1.0131-7.6109 0.59623-24.804-3.844-29.568-5.5715-0.38633-0.15449-0.18344-0.56605-0.04514-0.64126"/>
     <path d="m93.374 146.51c0.0367 0.28004-0.26651 0.46614-0.9939 0.55516-2.5557 0.37642-5.9329 0.72401-8.7868 0.99517-7.6109 0.59623-25.109-3.8709-29.873-5.5984-0.38633-0.15449-0.18345-0.56605-0.04515-0.64125"/>
     <path d="m93.587 147.27c0.03669 0.28003-0.26651 0.46614-0.9939 0.55515-2.5557 0.37643-6.0583 0.74193-8.9121 1.0131-7.6109 0.59624-25.315-3.9156-30.079-5.6432-0.38633-0.1545-0.18345-0.56606-0.04514-0.64126"/>
     <path d="m93.659 148c0.03669 0.28003-0.26652 0.46614-0.9939 0.55515-2.5557 0.37643-6.0216 0.79999-8.8754 1.0712-7.6109 0.59623-25.529-3.9873-30.294-5.7148-0.38633-0.15449-0.18344-0.56605-0.04514-0.64125"/>
     <path d="m93.758 148.68c0.03669 0.28004-0.24119 0.54212-0.96857 0.63114-2.5557 0.37642-6.0583 0.8179-8.9121 1.0891-7.6109 0.59623-25.7-4.0858-30.464-5.8133-0.38633-0.1545-0.18344-0.56605-0.04514-0.64125"/>
     <path d="m93.818 149.45c0.03669 0.28003-0.26651 0.46614-0.9939 0.55515-2.5557 0.37643-6.0216 0.79999-8.8754 1.0712-7.6109 0.59623-25.861-4.041-30.625-5.7685-0.38633-0.15449-0.18344-0.56604-0.04514-0.64124"/>
     <path d="m93.868 150.1c0.09489 0.36063-0.19194 0.57346-0.91932 0.66247-2.5557 0.37644-6.0583 0.81791-8.9121 1.0891-7.6109 0.59622-25.986-4.1037-30.75-5.8312-0.38633-0.15449-0.18344-0.56605-0.04514-0.64125"/>
     <path d="m93.878 150.85c0.12623 0.35615-0.21279 0.61381-0.94018 0.70282-2.5557 0.37643-6.0784 0.80524-8.9322 1.0764-7.6109 0.59623-26.022-4.1216-30.786-5.8491-0.38633-0.1545-0.18344-0.56606-0.04514-0.64126"/>
     <path d="m90.087 135.92c0.04622-0.17463-0.08781-0.35514-0.20048-0.42101-0.16626-0.15692-0.33641-0.192-0.53742-0.21721 0 0 0.15944 0.29543 0.24071 0.41168 0.19483 0.0756 0.32446 0.11759 0.48214 0.23114l0.20464 0.36283"/>
     <path d="m90.875 137.37c0.04709-0.17453-0.08947-0.35492-0.2043-0.42075-0.16942-0.15682-0.34279-0.19187-0.54761-0.21708 0 0 0.16247 0.29526 0.24528 0.41143 0.19852 0.0756 0.33062 0.11751 0.4913 0.231l0.19026 0.40734"/>
     <path d="m91.477 138.93c0.0711-0.16533-0.01072-0.36468-0.09505-0.44742-0.11362-0.18108-0.25262-0.24237-0.41978-0.29876 0 0 0.08272 0.3169 0.1311 0.4445 0.15275 0.1052 0.25589 0.16698 0.37004 0.30388l0.15088 0.49915"/>
     <path d="m92.036 140.68c0.06593-0.16698-0.03668-0.36436-0.13403-0.44508-0.13594-0.17836-0.29125-0.23634-0.47681-0.28876 0 0 0.11167 0.31489 0.17301 0.44131 0.17326 0.10157 0.28962 0.16089 0.4231 0.29505l0.14542 0.38791"/>
     <path d="m92.587 142.27c0.05663-0.16772-0.03149-0.36596-0.1151-0.44703-0.11675-0.17913-0.20836-0.35431-0.36772-0.40695 0 0 0.05414 0.43319 0.10682 0.56016 0.1488 0.10202 0.24873 0.1616 0.36336 0.29636l0.12489 0.3896"/>
     <path d="m92.885 143.71c0.07432-0.15625 0.01013-0.36772-0.06277-0.46241-0.0944-0.1975-0.21865-0.27819-0.36901-0.35782 0 0 0.0586 0.32965 0.09603 0.46444 0.13447 0.12669 0.22576 0.20292 0.32307 0.35612l0.0788 0.40725"/>
     <path d="m93.2 145.28c0.10318-0.12446 0.06365-0.32201-0.0021-0.41829-0.07439-0.1906-0.19796-0.28361-0.35008-0.38032 0 0 0.01654 0.30064 0.03793 0.42596 0.1281 0.13532 0.21648 0.2186 0.30036 0.3707l0.11054 0.30526"/>
     <path d="m93.45 146.76c0.09545-0.10141 0.05993-0.26895-7.4e-5 -0.35209-0.0676-0.1628-0.18087-0.24506-0.32038-0.33136 0 0 0.01392 0.25354 0.03307 0.3597 0.11725 0.11801 0.19818 0.19095 0.27469 0.32165l0.0057 0.18906"/>
     <path d="m93.618 147.74c0.09544-0.10141 0.05993-0.26894-7.4e-5 -0.35209-0.0676-0.16279-0.18087-0.24506-0.32038-0.33135 0 0 0.01392 0.25354 0.03307 0.35969 0.11725 0.11802 0.19819 0.19095 0.27469 0.32166l0.0236 0.31441"/>
     <path d="m93.765 149.06c0.09545-0.10141 0.05993-0.26895-7.1e-5 -0.35208-0.0676-0.16281-0.18087-0.24508-0.32038-0.33137 0 0 0.01392 0.25354 0.03307 0.3597 0.11725 0.11801 0.20714 0.19989 0.28365 0.33061l0.01463 0.30546"/>
     <path d="m93.877 150.49c0.09544-0.10141 0.05992-0.26894-7.4e-5 -0.35208-0.0676-0.1628-0.18087-0.24507-0.32038-0.33136 0 0 0.01392 0.25354 0.03307 0.3597 0.11725 0.11801 0.19818 0.19095 0.27469 0.32166l0.0236 0.3144"/>
     <path d="m81.457 126.4c0.92817 0.11212 1.4164 0.44064 2.0057 0.8954l-1.3252-0.37606"/>
     <path d="m82.567 127.21c1.2106 0.33217 1.6474 0.55564 2.3281 1.2267-0.70028-0.39274-1.3871-0.76115-1.8804-0.82377"/>
     <path d="m83.552 128.14c1.0288 0.22167 1.6036 0.55039 2.3281 1.3073-0.70004-0.42824-1.3066-0.88784-1.943-0.83273"/>
     <path d="m85.074 129.79c1.187 0.28495 1.345 0.49707 2.0684 1.2536-0.96251-0.64538-1.3449-0.70941-1.8804-0.8775"/>
     <path d="m85.555 130.54c0.50531 0.16877 0.92098 0.24789 1.5771 0.56748 0.20595 0.12513 0.32485 0.21919 0.35296 0.37168 0.01606 0.1301-0.09051 0.22388-0.19387 0.26111-0.24415-3e-3 -0.24004-0.26492-0.34958-0.42667 0.1121-0.0464 0.18646-0.10129 0.17516-0.17516"/>
     <path d="m85.947 130.95c0.67913 0.27 2.8485 0.7894 1.3314 1.3727"/>
     <path d="m86.433 131.44c0.66906 0.266 2.7055 0.88376 1.0404 1.239-0.13672-0.23801-0.04151-0.26296-0.06612-0.25615"/>
     <path d="m86.589 131.57 0.42694 0.44153-0.0037-0.0146"/>
     <path d="m87.058 132.04c0.6054 0.24944 2.0406 0.63177 0.8436 1.1438-0.0289 0.0124-0.66849 0.0344-0.66849 0.0344-0.01656-0.0914-0.01185-0.36769-0.01061-0.46528 7.93e-4 -0.0462 0.24448-0.0305 0.3607-0.0204 0.01984 2e-3 0.53744 0.14808 0.89447 0.37859 0.29745 0.19205 0.38967 0.4881 0.38967 0.4881"/>
     <path d="m87.421 132.41c0.66514 0.24539 2.2282 0.97442 0.10239 1.3019"/>
     <path d="m86.034 130.98 0.42693 0.44153-0.0037-0.0146"/>
     <path d="m87.005 132.04 0.22433 0.28957 0.07233 4e-3"/>
     <path d="m84.396 129c1.0288 0.22168 1.3504 0.47441 2.0748 1.2313-0.63039-0.42191-0.93309-0.66624-1.6898-0.75676"/>
    </g>
    <g stroke-linecap="round" stroke-linejoin="round">
     <path d="m93.867 150.72 0.68051-0.0537-0.1005-3.4259" stroke="#d4aa00" stroke-width=".16781"/>
     <path d="m94.602 112.57-0.14327 34.67" stroke="#ff0000" stroke-width=".23438"/>
     <path d="m89.329 134.42c0.04622-0.17463-0.08781-0.35514-0.20048-0.42101-0.16626-0.15691-0.33641-0.19199-0.53742-0.21721 0 0 0.15944 0.29544 0.24071 0.41168 0.19483 0.0756 0.32446 0.11759 0.48214 0.23115l0.20464 0.36282" stroke="#ffcc00" stroke-width=".16781"/>
    </g>
    <g stroke="#00ff00" stroke-linecap="round">
     <g stroke-linejoin="round">
      <path d="m75.304 117.85 0.02767 4.1231c0.12229 1.0084 0.52131 1.6899 1.2176 2.02" stroke-width=".23438"/>
      <path d="m88.808 128.78c0.18407 1.9109-1.2178 2.0882-1.5349 1.819 0 0-2.9531-3.2083-4.7188-4.3924-1.5023-0.95649-2.9365-2.022-5.9737-2.2171" stroke-width=".23438"/>
      <g stroke-width=".16781">
       <path d="m84.42 127.72c1.4379 1.5447 2.8888 3.1399 4.075 4.8859 0.18898 0.44014 0.22061 0.77538 0.30328 1.1447-1.2209-2.3162-2.803-4.1951-4.3782-6.0306z"/>
       <path d="m88.78 134.33-0.16603 0.5396c-2.826-5.1089-4.5362-7.0791-7.25-9.1455 3.4139 1.8846 5.6473 5.5075 7.416 8.6059z"/>
       <path d="m77.877 124.41c5.2722 1.7958 8.0032 5.6046 10.688 10.786l-0.70282 0.17801"/>
       <path d="m75.658 123.97c0.28015-0.0667 0.84358 0.12018 1.1073 0.20878 5.4722 1.855 8.7756 7.1666 10.754 11.253-0.20723 0.0438-0.45615 0.077-0.67493 0.0881"/>
       <path d="m74.616 124.06c0.28015-0.0667 0.84359 0.12017 1.1073 0.20878 5.4722 1.855 8.6859 7.3901 10.766 11.288-0.20722 0.0438-0.36402 0.0391-0.5828 0.0502"/>
       <path d="m73.435 124.04c0.28015-0.0667 1.0281 0.26365 1.2918 0.35226 5.4722 1.855 8.6631 7.3652 10.743 11.263-0.20722 0.0438-0.36036 0.0626-0.57914 0.0737"/>
       <path d="m72.403 124.17c0.28015-0.0667 1.0076 0.22266 1.2713 0.31127 5.4722 1.855 8.6449 7.358 10.725 11.256-0.20722 0.0438-0.353 0.0565-0.57179 0.0676"/>
       <path d="m71.345 124.23c0.28015-0.0667 1.0281 0.28415 1.2918 0.37276 5.4722 1.855 8.7326 7.3784 10.813 11.276-0.20722 0.0438-0.35008 0.0205-0.56886 0.0316"/>
       <path d="m70.223 124.35c0.28015-0.0667 1.192 0.24316 1.4558 0.33177 5.4722 1.855 8.6157 7.3434 10.696 11.241-0.20723 0.0438-0.43276 0.0419-0.65155 0.053"/>
       <path d="m69.276 124.37c5.4911 0.33913 9.8467 7.4696 12.061 11.591-0.20722 0.0438-0.54384-0.0399-0.76262-0.0288"/>
       <path d="m67.349 124.67c6.628 0.18747 10.587 7.2177 12.693 11.229 0 6e-3 -0.59908-0.0769-0.81786-0.19945"/>
       <path d="m64.34 125.33c7.2569-1.2805 11.85 5.7724 13.986 9.8246 0.03454 0.0655-0.07468 0.40157-0.93859-0.16838"/>
       <path d="m58.251 130.84c-0.11161 0.079-0.39867 0.20732-0.24245-0.0903 1.6228-2.1375 3.0014-5.0219 7.6155-5.7622"/>
       <path d="m63.668 125.48c-1.7192 0.85495-4.0901 2.7702-5.8249 5.2299-0.17542 0.13013-0.24817-0.0659-0.21282-0.21478 2.0809-2.5937 3.8294-4.1015 6.0377-5.0152z"/>
      </g>
      <path d="m63.571 125.49c-3.6932 1.7819-4.2937 2.8585-6.0601 4.8425-0.33414-0.21737 0.75975-1.0586 1.4983-1.6725-0.97771 0.30308-1.7581-1.2436-1.7905-1.9787-0.0018-0.15363 0-4.1937 0-4.1937" stroke-width=".23438"/>
     </g>
     <path d="m65.433 125c3.0602-0.55205 6.3716-0.97008 10.249-1.0864" stroke-width=".16781"/>
    </g>
    <g stroke="#f90000" stroke-linecap="round" stroke-linejoin="round" stroke-width=".23438">
     <path d="m57.22 122.4v-11.52"/>
     <path d="m68.2 124.49v-8.117l7.0688 1.4949"/>
     <path d="m88.798 128.74c-0.04099-0.20498 0-18.407 0-18.407"/>
    </g>
    <g stroke="#00ff00" stroke-linecap="round" stroke-linejoin="round" stroke-width=".16781">
     <path d="m60.932 127.12c7.38-4.0937 13.307 3.1863 15.413 7.1979-10.267-13.378-16.465-5.6318-16.425-5.6398"/>
     <path d="m63.723 125.62c8.0438-1.3033 12.16 6.4774 13.671 9.3646"/>
     <path d="m66.587 124.81c6.628 0.18747 10.521 6.8704 12.627 10.882"/>
     <path d="m68.126 124.57c6.628 0.18747 10.302 7.3089 12.408 11.321"/>
     <path d="m69.14 124.35c6.628 0.18747 11.177 8.473 12.488 11.526"/>
     <path d="m69.944 124.31c6.628 0.18747 10.782 7.573 12.888 11.585"/>
     <path d="m71.002 124.28c6.628 0.18747 10.738 7.5223 12.844 11.534"/>
     <path d="m72.027 124.08c6.628 0.18747 10.764 7.6363 12.87 11.648"/>
     <path d="m72.92 123.92c6.628 0.18747 10.846 7.7064 12.952 11.718"/>
     <path d="m74.111 123.88c6.628 0.18747 10.614 7.6109 12.72 11.623"/>
     <path d="m75.13 123.81c6.628 0.18747 10.597 7.0894 12.736 11.514"/>
    </g>
   </g>
   <g transform="matrix(.26458 0 0 .22729 31.339 110.29)" fill="none" stroke-linecap="round">
    <g stroke="#00ff00">
     <g stroke-linejoin="round">
      <path d="m438.2 30.783 0.10458 15.583c0.46221 3.8115 1.9703 6.3869 4.6018 7.6347" stroke-width=".95573"/>
      <g stroke-width=".63425">
       <path d="m485.63 75.188c0.69569 7.2225-5.292 6.4092-6.4907 5.3918 0 0-8.9111-11.98-15.585-16.456-5.678-3.6151-9.8484-8.3697-21.328-9.1071"/>
       <path d="m447.92 55.569c19.926 6.7872 30.248 21.183 40.396 40.767l-2.6563 0.6728"/>
       <path d="m439.53 53.923c1.0588-0.25205 3.1883 0.45419 4.1852 0.78909 20.682 7.0111 33.168 27.086 40.647 42.531-0.78322 0.16561-1.724 0.29094-2.5509 0.33296"/>
       <path d="m435.6 54.258c1.0588-0.25204 3.1884 0.4542 4.1852 0.7891 20.682 7.0111 32.828 27.931 40.691 42.663-0.78319 0.1656-1.3758 0.14764-2.2027 0.18964"/>
       <path d="m431.13 54.187c1.0588-0.25205 3.8856 0.99649 4.8824 1.3314 20.682 7.0111 32.742 27.837 40.605 42.569-0.78321 0.16561-1.362 0.23648-2.1889 0.2785"/>
       <path d="m427.23 54.661c1.0588-0.25205 3.8081 0.84155 4.805 1.1764 20.682 7.0111 32.674 27.81 40.536 42.542-0.78318 0.1656-1.3342 0.2136-2.1611 0.25561"/>
       <path d="m423.23 54.872c1.0588-0.25205 3.8856 1.074 4.8824 1.4089 20.682 7.0111 33.005 27.887 40.868 42.619-0.78319 0.16559-1.3231 0.0776-2.15 0.11956"/>
       <path d="m418.99 55.323c1.0588-0.25205 4.5053 0.91902 5.5022 1.2539 20.682 7.0111 32.563 27.754 40.426 42.486-0.78322 0.16561-1.6356 0.15835-2.4625 0.20037"/>
       <path d="m415.41 55.432c20.754 1.2818 37.216 28.232 45.584 43.809-0.78319 0.16561-2.0555-0.15097-2.8824-0.109"/>
       <path d="m408.13 56.541c25.051 0.70855 40.014 27.279 47.974 42.442 0 0.0214-2.2642-0.29055-3.0911-0.75381"/>
       <path d="m397.82 59.703c27.428-4.8395 43.725 21.162 51.797 36.478 0.13055 0.2477-0.28226 1.5178-3.5474-0.63637"/>
      </g>
      <path d="m395.27 62.118c-25.213 11.585-20.618 29.737-22.594 4.7084v-11.735" stroke-width=".95573"/>
     </g>
     <path d="m401.82 58.758c11.566-2.0865 23.144-4.6123 37.798-5.0518" stroke-width=".63425"/>
    </g>
    <g stroke="#f90000" stroke-linejoin="round" stroke-width=".95573">
     <path d="m372.63 54.935 0.0411-30.848"/>
     <path d="m411.35 55.876v-30.679l26.717 5.6499"/>
     <path d="m485.59 74.914c-0.15494-0.77471-0.18045-73.908-0.18045-73.908"/>
    </g>
    <g stroke="#00ff00" stroke-linejoin="round" stroke-width=".63425">
     <path d="m384.23 66.444c27.893-15.472 49.939 11.425 57.899 26.587-38.804-50.564-62.228-21.285-62.078-21.316"/>
     <path d="m395.68 60.805c30.402-4.9259 44.711 23.827 50.42 34.739"/>
     <path d="m405.25 57.082c25.051 0.70855 39.764 25.967 47.724 41.129"/>
     <path d="m411.06 56.16c25.051 0.70855 38.938 27.624 46.898 42.786"/>
     <path d="m414.9 55.337c25.051 0.70855 42.245 32.024 47.2 43.562"/>
     <path d="m417.94 55.208c25.051 0.70855 40.75 28.622 48.71 43.784"/>
     <path d="m421.94 55.083c25.051 0.70855 40.585 28.431 48.544 43.593"/>
     <path d="m425.81 54.333c25.051 0.70855 40.684 28.861 48.644 44.024"/>
     <path d="m429.19 53.708c25.051 0.70855 40.993 29.127 48.953 44.289"/>
     <path d="m433.69 53.583c25.051 0.70855 40.118 28.766 48.077 43.928"/>
     <path d="m437.54 53.319c25.051 0.70855 40.051 26.795 48.135 43.519"/>
    </g>
   </g>
   <g>
    <path d="m175.46 115.21h11.787" fill="none" stroke="#00f900" stroke-linecap="round" stroke-linejoin="round" stroke-width=".75"/>
    <path d="m175.4 123.28h11.787" fill="none" stroke="#d4aa00" stroke-linecap="round" stroke-linejoin="round" stroke-width=".75"/>
    <path d="m88.68 133.34c0.47351 1.0562 0.74698 2.292-0.63368 2.4082l-7.8355 0.74654c-2.4041-0.10434-3.1136-0.57154-5.2646-2.6811-2.1934-2.5264-4.2039-5.2513-8.2466-6.7499-3.5291-1.2158-4.5172-0.28413-8.8547 3.1078 4.7602-4.7796 6.7697-4.4889 9.3547-3.6034 3.0701 1.0889 5.9953 3.163 9.3571 6.0795 1.1874 1.0301 2.8105 1.693 3.33 1.754 1.5293 0.067 5.9615-0.27782 7.8819-0.55143 1.2395-2.0636-3.6074-5.7817-4.6355-6.7091 2.0881 1.352 3.755 3.0924 5.5469 6.1987z" fill="#000000" opacity=".54209" stroke="#000000" stroke-width=".083411px"/>
   </g>
   <g transform="matrix(.26458 0 0 .26458 107.16 156.17)">
    <ellipse cx="-44.92" cy="-98.798" rx="13.199" ry="13.469" fill="#1f638a" stroke-linecap="round" stroke-linejoin="round" stroke-width="1.0658"/>
    <text x="-50.761276" y="-91.125885" fill="#000000" letter-spacing="0px" word-spacing="0px" style="line-height:0%" xml:space="preserve"><tspan x="-50.761276" y="-91.125885" fill="#ffffff" font-family="'Arial Nova', 'Arial Unicode MS', 'Yu Gothic UI', sans-serif" font-size="20px" stroke="#ffffff" stroke-width="1.0667" style="line-height:1.25">1</tspan></text>
   </g>
   <g transform="matrix(.26458 0 0 .26458 79.339 128.2)">
    <ellipse cx="-13.718" cy="-98.798" rx="13.199" ry="13.469" fill="#1f638a" stroke-linecap="round" stroke-linejoin="round" stroke-width="1.0658"/>
    <text x="-19.559933" y="-91.125885" fill="#000000" letter-spacing="0px" word-spacing="0px" style="line-height:0%" xml:space="preserve"><tspan x="-19.559933" y="-91.125885" fill="#ffffff" font-family="'Arial Nova', 'Arial Unicode MS', 'Yu Gothic UI', sans-serif" font-size="20px" stroke="#ffffff" stroke-width="1.0667" style="line-height:1.25">2</tspan></text>
   </g>
   <g transform="matrix(.26458 0 0 .26458 139.82 128.29)">
    <ellipse cx="17.483" cy="-98.798" rx="13.199" ry="13.469" fill="#1f638a" stroke-linecap="round" stroke-linejoin="round" stroke-width="1.0658"/>
    <text x="11.641406" y="-91.256096" fill="#000000" font-family="'Arial Nova', 'Arial Unicode MS', 'Yu Gothic UI', sans-serif" letter-spacing="0px" word-spacing="0px" style="line-height:0%" xml:space="preserve"><tspan x="11.641406" y="-91.256096" fill="#ffffff" font-family="'Arial Nova', 'Arial Unicode MS', 'Yu Gothic UI', sans-serif" font-size="20px" stroke="#ffffff" stroke-width="1.0667" style="line-height:1.25">3</tspan></text>
   </g>
   <g transform="matrix(.26458 0 0 .26458 85.35 76.133)">
    <g transform="translate(354.56 247.34)">
     <ellipse cx="48.684" cy="-98.798" rx="13.199" ry="13.469" fill="#1f638a" stroke-linecap="round" stroke-linejoin="round" stroke-width="1.0658"/>
     <text x="42.842751" y="-91.162346" fill="#000000" letter-spacing="0px" word-spacing="0px" style="line-height:0%" xml:space="preserve"><tspan x="42.842751" y="-91.162346" fill="#ffffff" font-family="'Arial Nova', 'Arial Unicode MS', 'Yu Gothic UI', sans-serif" font-size="20px" stroke="#ffffff" stroke-width="1.0667" style="line-height:1.25">4</tspan></text>
    </g>
   </g>
   <g transform="matrix(.26458 0 0 .26458 162.6 149.21)">
    <ellipse cx="111.09" cy="-98.798" rx="13.199" ry="13.469" fill="#1f638a" stroke-linecap="round" stroke-linejoin="round" stroke-width="1.0658"/>
    <text x="105.24544" y="-91.256096" fill="#000000" letter-spacing="0px" word-spacing="0px" style="line-height:0%" xml:space="preserve"><tspan x="105.24544" y="-91.256096" fill="#ffffff" font-family="'Arial Nova', 'Arial Unicode MS', 'Yu Gothic UI', sans-serif" font-size="20px" stroke="#ffffff" stroke-width="1.0667" style="line-height:1.25">5</tspan></text>
   </g>
   <g fill="none" stroke-linecap="round">
    <g>
     <path d="m149.89 122.65c5.2142 1.7958 8.2547 3.5813 11.692 9.4178l-0.65888 0.26187" stroke="#d4aa00" stroke-linejoin="round" stroke-width=".23438"/>
     <path d="m131.48 129.59c-0.11161 0.079-0.39867 0.20732-0.24245-0.0903 1.6228-2.1375 3.0014-5.0219 7.6155-5.7622" stroke="#ffcc00" stroke-linejoin="round" stroke-width=".16781"/>
     <path d="m138.66 123.76c3.0817-0.56821 6.793-1.2861 10.249-1.0864" stroke="#ffcc00" stroke-width=".16781"/>
    </g>
    <g stroke="#d4aa00" stroke-linejoin="round" stroke-width=".23438">
     <path d="m152.77 120.35 0.0181 3.428"/>
     <path d="m143.44 126.7c-1.5627-1.2078-4.7029-1.9631-5.1179-1.5951l-0.0733-2.6883"/>
     <path d="m136.36 122.59 0.38481 2.627c0.0427 0.1597 0.53945 0.18518 0.80502 0.1686 1.7977 0.61647 3.7645 1.0062 5.7283 1.2193 0.39492 0.11162 1.9192 1.0924 2.2477 1.3369m-9.9161-2.4489c2.8505 1.3229 6.3728 2.0156 9.6002 2.3492 0.35784 0.12257 0.5139 0.21969 0.71495 0.38931m-10.886-2.418c-0.22354 0.21341-0.0567 0.56677 0.0875 0.64271 2.7029 1.4236 6.9919 1.9679 11.606 2.353l0.65565 0.40166m-13.03-2.9307c-0.32143 0.0815-0.39472 0.55013-0.12558 0.74755 2.7036 1.457 10.29 2.8004 13.879 2.7664"/>
     <path d="m133.48 124.54 0.10745 2.543"/>
    </g>
    <g stroke="#ff0000" stroke-linejoin="round" stroke-width=".23438">
     <path d="m133.46 124.39 0.0253-3.2164 3.2544-0.45587 0.0633 3.2164"/>
     <path d="m136.34 122.5-0.0409-3.9457 1.9774 0.29259 8e-3 3.4034"/>
     <path d="m152.84 111.07-0.0507 9.3706"/>
    </g>
    <path d="m136.79 123.94 0.0127 1.3043" stroke="#ffcc00" stroke-linejoin="round" stroke-width=".23438"/>
    <path d="m148.25 129.79 0.37535 0.56621" stroke="#d4aa00" stroke-linejoin="round" stroke-width=".16781"/>
    <g stroke="#ffcc00" stroke-linejoin="round" stroke-width=".16781">
     <path d="m151.1 132.37-0.60229-0.88388c-6.7136 0.14802-15.014-2.0109-17.452-3.0879-0.49194-0.23281-0.40648-0.55075-0.11493-0.78356"/>
     <path d="m133.52 127.12c-0.29155 0.23281-0.20325 0.41497 0.2887 0.64777 2.9043 1.2561 8.7826 2.6641 15.756 2.8609 0.0968 0.0291 0.35576 0.52945 0.35576 0.52945"/>
     <path d="m152.21 133.16-0.44993-0.80521c-6.7819 0.2848-16.81-2.1887-19.22-3.3247-0.49194-0.23281-0.47895-0.47827-0.1874-0.71108"/>
    </g>
    <path d="m160.53 132.59c3.1889 5.6814 3.8316 11.717 4.3656 17.892" stroke="#4d4d4d" stroke-linejoin="round" stroke-width=".16781"/>
    <g stroke="#ffcc00" stroke-linejoin="round" stroke-width=".16781">
     <path d="m161.83 131.92c0.0367 0.28004-0.30234 0.46614-1.0297 0.55516-2.7097 0.28398-5.2274 0.49116-7.7005 0.68051-5.834 0.80216-15.473-1.4508-21.242-3.4749-0.38633-0.15449-0.18345-0.56605-0.0452-0.64125"/>
     <path d="m162.3 132.78c0.0367 0.28004-0.26651 0.46614-0.9939 0.55515-2.5557 0.21398-4.9989 0.40195-7.8259 0.75215-5.1535 0.60517-16.44-1.7552-22.209-3.7793-0.38633-0.1545-0.18345-0.56605-0.0452-0.64125"/>
     <path d="m162.78 133.58c0.0367 0.28003-0.26651 0.46614-0.99389 0.55515-2.5557 0.21398-4.9989 0.40195-7.8259 0.75215-5.7012 0.71469-17.383-1.9019-23.1-3.9365-0.38632-0.15449-0.18344-0.56606-0.0451-0.64126"/>
     <path d="m163.16 134.4c0.0367 0.28004-0.26651 0.46614-0.9939 0.55515-2.5557 0.21398-4.9989 0.40195-7.8259 0.75215-5.695 0.65931-18.229-2.0721-23.938-4.1022-0.38633-0.15449-0.18344-0.56605-0.0452-0.64125"/>
     <path d="m163.56 135.13c0.13691 0.28003-0.18299 0.53296-0.91038 0.62197-2.5698 0.23086-5.0924 0.51413-7.8259 0.75214-5.8792 0.87392-19.092-2.1958-24.772-4.2531-0.38633-0.15449-0.18345-0.56605-0.0452-0.64125"/>
     <path d="m164.02 135.95c0.0367 0.28003-0.26651 0.46613-0.9939 0.55515-2.5728 0.2996-5.172 0.60504-7.9691 0.80587-6.1062 0.87736-19.669-2.3496-25.339-4.4022-0.38632-0.15449-0.18344-0.56605-0.0451-0.64125"/>
     <path d="m164.29 136.66c0.0367 0.28004-0.20383 0.50195-0.93122 0.63127-2.6169 0.35688-5.5667 0.69555-8.3911 0.88785-6.5406 0.65546-20.102-2.702-25.642-4.5916-0.38633-0.15449-0.18345-0.56606-0.0452-0.64126"/>
     <path d="m164.55 137.36c0.11279 0.48598-0.25756 0.65418-0.98495 0.74319-2.8371 0.40743-5.5486 0.60227-8.3012 0.90129-7.2157 0.4683-20.535-2.6963-26.23-4.7246-0.38633-0.15449-0.18344-0.56605-0.0452-0.64125"/>
     <path d="m164.89 138.23c0.0815 0.41882-0.24861 0.56911-0.976 0.65812-2.6441 0.36136-5.6596 0.63771-8.4337 0.89975-6.7907 0.73112-20.61-2.8831-26.728-4.7967-0.38633-0.15449-0.18345-0.56604-0.0452-0.64125"/>
     <path d="m165.11 139.01c0.068 0.34719-0.24412 0.56016-0.97151 0.64918-2.5557 0.37642-5.5031 0.68819-8.357 0.95935-7.6109 0.59623-22.503-3.253-27.267-4.9806-0.38633-0.1545-0.18345-0.56606-0.0452-0.64126"/>
     <path d="m165.4 139.79c0.0636 0.36509-0.25756 0.54672-0.98494 0.63574-2.5557 0.37643-5.5031 0.68819-8.357 0.95935-7.6109 0.59624-23.103-3.3247-27.867-5.0522-0.38632-0.15449-0.18344-0.56604-0.0452-0.64125"/>
     <path d="m165.62 140.61c0.0367 0.28004-0.3068 0.51091-1.0342 0.59993-2.5557 0.37643-5.5031 0.6882-8.357 0.95936-7.6109 0.59623-23.47-3.4411-28.234-5.1686-0.38633-0.15449-0.18345-0.56606-0.0452-0.64126"/>
     <path d="m165.85 141.3c0.0456 0.40988-0.30233 0.5736-1.0297 0.6626-2.5557 0.37644-5.7692 0.67785-8.623 0.94901-7.6109 0.59623-23.661-3.4576-28.425-5.1851-0.38633-0.15449-0.18344-0.56605-0.0452-0.64125"/>
     <path d="m166 142.16c0.11727 0.38301-0.22622 0.47957-0.95361 0.56859-2.5557 0.37643-5.8434 0.77774-8.6972 1.0489-7.6109 0.59624-24.007-3.656-28.772-5.3835-0.38633-0.1545-0.18345-0.56606-0.0451-0.64126"/>
     <path d="m166.17 142.94c0.0367 0.28004-0.26651 0.46615-0.9939 0.55517-2.5557 0.37642-5.8255 0.77773-8.6793 1.0489-7.6109 0.59623-24.392-3.6828-29.157-5.4104-0.38634-0.15449-0.18346-0.56606-0.0451-0.64126"/>
     <path d="m166.33 143.76c0.0367 0.28003-0.26651 0.46614-0.9939 0.55515-2.5557 0.37644-5.9329 0.72403-8.7868 0.99518-7.6109 0.59623-24.535-3.7903-29.3-5.5178-0.38633-0.15449-0.18345-0.56604-0.0452-0.64124"/>
     <path d="m166.55 144.48c0.0367 0.28003-0.26652 0.46614-0.99389 0.55515-2.5557 0.37643-6.0583 0.74193-8.9121 1.0131-7.6109 0.59623-24.804-3.844-29.568-5.5715-0.38633-0.15449-0.18345-0.56605-0.0451-0.64125"/>
     <path d="m166.6 145.27c0.0367 0.28004-0.26651 0.46615-0.9939 0.55516-2.5557 0.37642-5.9329 0.72401-8.7868 0.99517-7.6109 0.59623-25.109-3.8709-29.873-5.5984-0.38633-0.15449-0.18345-0.56605-0.0451-0.64125"/>
     <path d="m166.81 146.03c0.0367 0.28003-0.26651 0.46614-0.9939 0.55515-2.5557 0.37643-6.0583 0.74193-8.9121 1.0131-7.6109 0.59624-25.314-3.9156-30.079-5.6432-0.38632-0.15449-0.18345-0.56606-0.0452-0.64126"/>
     <path d="m166.89 146.75c0.0367 0.28003-0.26652 0.46614-0.9939 0.55515-2.5557 0.37643-6.0216 0.79999-8.8754 1.0712-7.6109 0.59622-25.529-3.9873-30.294-5.7148-0.38633-0.15449-0.18344-0.56605-0.0451-0.64125"/>
     <path d="m166.99 147.43c0.0367 0.28004-0.24119 0.54212-0.96857 0.63114-2.5557 0.37642-6.0583 0.81791-8.9121 1.0891-7.6109 0.59623-25.7-4.0858-30.464-5.8133-0.38633-0.1545-0.18345-0.56605-0.0452-0.64125"/>
     <path d="m167.05 148.21c0.0367 0.28003-0.26651 0.46614-0.9939 0.55515-2.5557 0.37643-6.0216 0.79999-8.8754 1.0712-7.6109 0.59624-25.861-4.041-30.625-5.7685-0.38633-0.15449-0.18344-0.56604-0.0451-0.64124"/>
     <path d="m167.1 148.86c0.0949 0.36063-0.19194 0.57346-0.91932 0.66248-2.5557 0.37643-6.0583 0.8179-8.9121 1.0891-7.6109 0.59623-25.986-4.1037-30.75-5.8312-0.38633-0.15449-0.18345-0.56605-0.0451-0.64125"/>
     <path d="m167.11 149.61c0.12623 0.35615-0.21279 0.61381-0.94018 0.70282-2.5557 0.37643-6.0784 0.80524-8.9322 1.0764-7.6109 0.59622-26.022-4.1216-30.786-5.8491-0.38633-0.15449-0.18345-0.56606-0.0452-0.64126"/>
     <path d="m163.36 134.69c0.0462-0.17463-0.0878-0.35513-0.20048-0.42101-0.16626-0.15691-0.33641-0.19199-0.53742-0.21721 0 0 0.15944 0.29544 0.24071 0.41169 0.19483 0.0756 0.32446 0.11758 0.48214 0.23114l0.20464 0.36283"/>
     <path d="m164.1 136.12c0.0471-0.17452-0.0895-0.35492-0.20429-0.42075-0.16942-0.15681-0.34279-0.19187-0.54762-0.21708 0 0 0.16247 0.29526 0.24528 0.41143 0.19852 0.0756 0.33062 0.11751 0.4913 0.231l0.19026 0.40734"/>
     <path d="m164.71 137.68c0.0711-0.16533-0.0107-0.36468-0.095-0.44742-0.11361-0.18108-0.25262-0.24237-0.41977-0.29876 0 0 0.0827 0.3169 0.13109 0.4445 0.15275 0.1052 0.25589 0.16699 0.37004 0.30388l0.15088 0.49915"/>
     <path d="m165.26 139.43c0.0659-0.16698-0.0367-0.36436-0.13403-0.44508-0.13593-0.17836-0.29125-0.23634-0.47681-0.28876 0 0 0.11167 0.31489 0.17302 0.44131 0.17326 0.10157 0.28961 0.16089 0.42309 0.29505l0.14543 0.38792"/>
     <path d="m165.82 141.03c0.0566-0.16772-0.0315-0.36596-0.11511-0.44703-0.11675-0.17913-0.20836-0.3543-0.36772-0.40695 0 0 0.0541 0.4332 0.10682 0.56016 0.1488 0.10202 0.24873 0.16161 0.36336 0.29636l0.12489 0.38961"/>
     <path d="m166.11 142.47c0.0743-0.15625 0.0101-0.36772-0.0628-0.46241-0.0944-0.1975-0.21865-0.27819-0.36901-0.35782 0 0 0.0586 0.32965 0.096 0.46444 0.13447 0.12669 0.22576 0.20292 0.32307 0.35612l0.0788 0.40725"/>
     <path d="m166.43 144.04c0.10318-0.12446 0.0636-0.32201-2e-3 -0.41828-0.0744-0.1906-0.19796-0.28362-0.35008-0.38033 0 0 0.0165 0.30064 0.0379 0.42596 0.1281 0.13533 0.21648 0.2186 0.30036 0.3707l0.11054 0.30526"/>
     <path d="m166.68 145.52c0.0954-0.10141 0.0599-0.26895-8e-5 -0.35209-0.0676-0.1628-0.18086-0.24506-0.32037-0.33136 0 0 0.0139 0.25354 0.0331 0.3597 0.11726 0.11802 0.19819 0.19095 0.27469 0.32165l6e-3 0.18907"/>
     <path d="m166.85 146.49c0.0954-0.1014 0.0599-0.26894-8e-5 -0.35209-0.0676-0.16279-0.18087-0.24506-0.32038-0.33135 0 0 0.0139 0.25354 0.0331 0.35969 0.11725 0.11802 0.19818 0.19095 0.27469 0.32166l0.0236 0.31441"/>
     <path d="m166.99 147.81c0.0954-0.10141 0.0599-0.26895-7e-5 -0.35208-0.0676-0.16281-0.18088-0.24508-0.32038-0.33137 0 0 0.0139 0.25354 0.0331 0.3597 0.11726 0.11802 0.20715 0.1999 0.28365 0.33061l0.0146 0.30546"/>
     <path d="m167.11 149.25c0.0954-0.10141 0.0599-0.26894-8e-5 -0.35208-0.0676-0.1628-0.18086-0.24506-0.32037-0.33136 0 0 0.0139 0.25354 0.0331 0.3597 0.11726 0.11801 0.19819 0.19095 0.27469 0.32166l0.0236 0.3144"/>
     <path d="m167.1 149.47 0.68051-0.0537-0.1005-3.4259"/>
    </g>
    <g stroke-linejoin="round">
     <path d="m167.83 111.33-0.14327 34.67" stroke="#ff0000" stroke-width=".23438"/>
     <path d="m162.52 133.09c0.0462-0.17463-0.0878-0.35514-0.20048-0.42101-0.16626-0.15691-0.33641-0.19199-0.53742-0.21721 0 0 0.15945 0.29543 0.24071 0.41168 0.19483 0.0756 0.32446 0.11759 0.48215 0.23115l0.20463 0.36282" stroke="#ffcc00" stroke-width=".16781"/>
     <path d="m161.59 131.67c0.0462-0.17463-0.0878-0.35514-0.20048-0.42101-0.16627-0.15692-0.33641-0.192-0.53742-0.21721 0 0 0.15944 0.29543 0.2407 0.41168 0.19484 0.0756 0.32446 0.11759 0.48215 0.23114l0.20464 0.36283" stroke="#ffcc00" stroke-width=".16781"/>
    </g>
   </g>
   <path d="m92.86 131.34-3.9026 2.3724" color="#000000" fill="#1f638a" fill-rule="evenodd" stroke="#1f638a" stroke-linecap="round" stroke-linejoin="round" stroke-width=".46875"/>
  </g>
 </g>
</svg>
