<?xml version="1.0" encoding="UTF-8"?>
<!-- Created with Inkscape (http://www.inkscape.org/) -->
<svg width="18cm" height="6cm" version="1.1" viewBox="0 0 180 60" xmlns="http://www.w3.org/2000/svg" xmlns:cc="http://creativecommons.org/ns#" xmlns:dc="http://purl.org/dc/elements/1.1/" xmlns:rdf="http://www.w3.org/1999/02/22-rdf-syntax-ns#">
 <metadata>
  <rdf:RDF>
   <cc:Work rdf:about="">
    <dc:format>image/svg+xml</dc:format>
    <dc:type rdf:resource="http://purl.org/dc/dcmitype/StillImage"/>
    <dc:title/>
   </cc:Work>
  </rdf:RDF>
 </metadata>
 <g transform="translate(0 -237)">
  <g transform="translate(0 154.35)" stroke="#7d7d7d" stroke-linecap="round" stroke-linejoin="round" stroke-width=".379">
   <path d="m9.7336 111.06 41.54-24.011 25.788 14.889-7.8948 4.5818c-9.1431-4.8873-22.364-5.769-33.894 0.15318l-13.46 7.7823c-2.029 1.0365-4.3682 0.96754-6.1722 0.0204z" fill="#dac8cd"/>
   <path d="m9.7336 111.06 5.8806 3.4083-0.18787 5.9873-6.0842-3.4853z" fill="#dac8cd"/>
   <path d="m13.75 123.31c0.84482-0.52855 1.4846-1.4889 1.6764-2.849l-6.0842-3.4853c-0.21581 1.237-0.74319 2.195-1.6909 2.7767z" fill="#4f4f4f"/>
   <path d="m22.031 120.41-0.20233-5.9583c-2.4584 1.2122-4.4059 0.83036-6.2142 0.0144l-0.18787 5.9873c1.881 0.9308 3.9935 1.1787 6.6044-0.0434z" fill="#dac8cd"/>
   <path d="m13.75 123.31c2.9121 1.7111 7.5877 1.4099 9.9717 0.0289-1.1769-0.67826-1.5466-1.7455-1.6908-2.9213-2.2206 1.1051-4.4224 1.1365-6.6044 0.0434-0.19512 1.3338-0.78795 2.2476-1.6764 2.849z" fill="#4f4f4f"/>
   <path d="m22.031 120.41 13.455-7.7262-0.20438-6.0334-13.452 7.8013z" fill="#dac8cd"/>
   <path d="m23.722 123.34 13.399-7.7638c-0.99963-0.66689-1.5619-1.617-1.635-2.8838l-13.455 7.7262c0.1693 1.223 0.49777 2.3454 1.6908 2.9213z" fill="#4f4f4f"/>
   <path d="m69.187 112.69-0.0204-6.1664c-12.065-6.1578-24.751-4.4163-33.886 0.13294l0.20438 6.0334c10.764-5.8824 24.843-4.9131 33.702 0z" fill="#008000"/>
   <path d="m37.12 115.57c9.3111-5.3103 23.635-4.7541 31.965 0.92325l0.10166-3.807c-10.88-5.7979-24.101-5.1458-33.702 0 0.0928 1.3351 0.65593 2.2814 1.635 2.8838z" fill="#4f4f4f"/>
   <path d="m69.187 112.69 8.2659-4.8123-0.39155-5.9359-7.8948 4.5818z" fill="#dac8cd"/>
   <path d="m69.086 116.49 10.145-5.8426c-1.058-0.60799-1.5656-1.5915-1.7776-2.7767l-8.2659 4.8123z" fill="#4f4f4f"/>
   <path d="m81.63 112.03-2.399-1.3739-10.145 5.8426c-9.3746-5.986-23.448-5.9605-31.965-0.92325l-13.399 7.7638c-3.3497 1.745-7.4364 1.2999-9.9717-0.0289l-6.0986-3.5576-1.7487 1.0123 30.291 17.557z" fill="#dac8cd"/>
  </g>
  <g stroke-linejoin="round">
   <g stroke="#7d7d7d" stroke-linecap="round" stroke-width=".379">
    <path d="m101.89 265.41 41.54-24.011 25.788 14.889-7.8948 4.5818c-9.1431-4.8873-22.364-5.769-33.894 0.15318l-13.46 7.7823c-2.029 1.0365-4.3682 0.96754-6.1722 0.0204z" fill="#dac8cd"/>
    <path d="m101.89 265.41 5.8806 3.4083-0.18787 5.9873-6.0842-3.4853z" fill="#dac8cd"/>
    <path d="m105.91 277.66c0.84482-0.52855 1.4846-1.4889 1.6764-2.849l-6.0842-3.4853c-0.21581 1.237-0.74319 2.195-1.6909 2.7767z" fill="#af0000"/>
    <path d="m114.19 274.76-0.20233-5.9583c-2.4584 1.2122-4.4059 0.83036-6.2142 0.0144l-0.18787 5.9873c1.881 0.9308 3.9935 1.1787 6.6044-0.0434z" fill="#dac8cd"/>
    <path d="m105.91 277.66c2.9121 1.7111 7.5876 1.4099 9.9717 0.0289-1.1769-0.67826-1.5466-1.7455-1.6908-2.9213-2.2206 1.1051-4.4224 1.1365-6.6044 0.0434-0.19512 1.3338-0.78795 2.2476-1.6764 2.849z" fill="#af0000"/>
    <path d="m114.19 274.76 13.455-7.7262-0.20438-6.0334-13.452 7.8013z" fill="#dac8cd"/>
    <path d="m115.88 277.69 13.399-7.7638c-0.99963-0.66689-1.5618-1.617-1.635-2.8838l-13.455 7.7262c0.1693 1.223 0.49777 2.3454 1.6908 2.9213z" fill="#af0000"/>
    <path d="m161.34 267.04-0.0204-6.1664c-12.065-6.1578-24.751-4.4163-33.886 0.13294l0.20438 6.0334c10.764-5.8824 24.843-4.9131 33.702 0z" fill="#b7b7b7"/>
    <path d="m129.28 269.92c9.3111-5.3103 23.635-4.7541 31.965 0.92325l0.10167-3.807c-10.88-5.7979-24.101-5.1458-33.702 0 0.0928 1.3351 0.65594 2.2814 1.635 2.8838z" fill="#af0000"/>
    <path d="m161.34 267.04 8.2659-4.8123-0.39155-5.9359-7.8948 4.5818z" fill="#dac8cd"/>
    <path d="m161.24 270.84 10.145-5.8426c-1.058-0.60799-1.5656-1.5915-1.7776-2.7767l-8.2659 4.8123z" fill="#af0000"/>
    <path d="m173.79 266.38-2.399-1.3739-10.145 5.8426c-9.3746-5.986-23.448-5.9605-31.965-0.92325l-13.399 7.7638c-3.3497 1.745-7.4364 1.2999-9.9717-0.0289l-6.0986-3.5576-1.7487 1.0123 30.291 17.557z" fill="#dac8cd"/>
   </g>
   <path d="m76.655 264.93 9.028-6.2558" color="#000000" fill="#1f638a" fill-rule="evenodd" stroke="#1f638a" stroke-width=".5"/>
  </g>
  <g transform="matrix(.26458 0 0 .26458 73.049 284.89)">
   <ellipse cx="48.684" cy="-98.798" rx="13.199" ry="13.469" fill="#1f638a" stroke-linecap="round" stroke-linejoin="round" stroke-width="1.0658"/>
   <text x="42.842751" y="-91.162346" fill="#000000" font-family="'Arial Nova', 'Arial Unicode MS', 'Yu Gothic UI', sans-serif" font-size="12.8px" letter-spacing="0px" stroke-width="1.0667" word-spacing="0px" style="line-height:0%" xml:space="preserve"><tspan x="42.842751" y="-91.162346" fill="#ffffff" font-family="'Arial Nova', 'Arial Unicode MS', 'Yu Gothic UI', sans-serif" font-size="21.333px" stroke="#ffffff" stroke-width="1.0667" style="line-height:1.25">4</tspan></text>
  </g>
  <g transform="matrix(.26458 0 0 .26458 21.733 258.27)">
   <ellipse cx="-36.9" cy="-49.598" rx="13.199" ry="13.469" fill="#1f638a" stroke-linecap="round" stroke-linejoin="round" stroke-width="1.0658"/>
   <text x="-44.014687" y="-41.962215" fill="#000000" font-family="'Arial Nova', 'Arial Unicode MS', 'Yu Gothic UI', sans-serif" font-size="12.8px" letter-spacing="0px" stroke-width="1.0667" word-spacing="0px" style="line-height:0%" xml:space="preserve"><tspan x="-44.014687" y="-41.962215" fill="#ffffff" font-family="'Arial Nova', 'Arial Unicode MS', 'Yu Gothic UI', sans-serif" font-size="21.333px" stroke="#ffffff" stroke-width="1.0667" style="line-height:1.25">A</tspan></text>
  </g>
  <path d="m145.59 260.86 10.247-13.449" color="#000000" fill="#1f638a" fill-rule="evenodd" stroke="#1f638a" stroke-linejoin="round" stroke-width=".5"/>
  <g transform="matrix(.26458 0 0 .26458 134.93 273.04)">
   <ellipse cx="79.886" cy="-98.798" rx="13.199" ry="13.469" fill="#1f638a" stroke-linecap="round" stroke-linejoin="round" stroke-width="1.0658"/>
   <text x="74.04409" y="-91.396721" fill="#000000" font-family="'Arial Nova', 'Arial Unicode MS', 'Yu Gothic UI', sans-serif" font-size="12.8px" letter-spacing="0px" stroke-width="1.0667" word-spacing="0px" style="line-height:0%" xml:space="preserve"><tspan x="74.04409" y="-91.396721" fill="#ffffff" font-family="'Arial Nova', 'Arial Unicode MS', 'Yu Gothic UI', sans-serif" font-size="21.333px" stroke="#ffffff" stroke-width="1.0667" style="line-height:1.25">5</tspan></text>
  </g>
 </g>
</svg>
