<?xml version="1.0" encoding="UTF-8"?>
<svg width="18cm" height="5cm" version="1.1" xmlns="http://www.w3.org/2000/svg" xmlns:osb="http://www.openswatchbook.org/uri/2009/osb" xmlns:xlink="http://www.w3.org/1999/xlink">
 <defs>
  <linearGradient id="linearGradient7747-2">
   <stop style="stop-color:#fff" offset="0"/>
   <stop style="stop-color:#808080" offset="1"/>
  </linearGradient>
  <linearGradient id="linearGradient19309" x1="930.25" x2="649.69" y1="164.04" y2="-262.12" gradientTransform="matrix(.26424 0 0 .26424 -60.272 120.12)" gradientUnits="userSpaceOnUse">
   <stop style="stop-color:#ff8500" offset="0"/>
   <stop style="stop-color:#fff" offset="1"/>
  </linearGradient>
  <linearGradient id="linearGradient19311" x1="456.5" x2="1084.9" y1="124.57" y2="124.57" gradientTransform="matrix(.26424 0 0 .26424 -60.272 120.12)" gradientUnits="userSpaceOnUse" xlink:href="#linearGradient7747-2"/>
  <linearGradient id="linearGradient19313" x1="456" x2="1086" y1="232.45" y2="232.45" gradientTransform="matrix(.26424 0 0 .26424 -60.272 120.12)" gradientUnits="userSpaceOnUse" xlink:href="#linearGradient7747-2"/>
  <linearGradient id="linearGradient19315" x1="456" x2="772.5" y1="305.45" y2="305.45" gradientTransform="matrix(.26424 0 0 .26424 -60.272 120.12)" gradientUnits="userSpaceOnUse" xlink:href="#linearGradient7747-2"/>
  <linearGradient id="linearGradient19317" x1="771.31" x2="1085" y1="305.84" y2="305.84" gradientTransform="matrix(.26424 0 0 .26424 -60.272 120.12)" gradientUnits="userSpaceOnUse" xlink:href="#linearGradient7747-2"/>
 </defs>
 <g transform="translate(0 -264.57)">
  <g transform="translate(-538.16 161.11)">
   <ellipse cx="775.16" cy="269.59" rx="13.199" ry="13.469" style="fill:#1f638a;stroke-linecap:round;stroke-linejoin:round;stroke-width:1.0658"/>
   <text x="769.24432" y="277.12357" style="fill:#000000;font-family:'Arial Nova', 'Arial Unicode MS', 'Yu Gothic UI', sans-serif;font-size:12.8px;letter-spacing:0px;line-height:0%;stroke-width:1.0667;word-spacing:0px" xml:space="preserve"><tspan x="769.24432" y="277.12357" style="fill:#ffffff;font-family:'Arial Nova', 'Arial Unicode MS', 'Yu Gothic UI', sans-serif;font-size:21.333px;font-weight:bold;stroke-width:1.0667">1</tspan></text>
  </g>
  <g transform="translate(14.943 199.87)">
   <path d="m60.485 128.89 82.706-47.827 82.971 47.563c-54.269 29.784-119.58 23.458-165.68 0.26424z" style="fill:url(#linearGradient19309);stroke-linecap:round;stroke-linejoin:round;stroke-width:.94488;stroke:#7d7d7d"/>
   <path d="m60.517 128.98c54.388 25.807 113.54 26.906 165.75-0.23218l-0.0481 29.314c-53.448 27.068-119.99 24.342-165.74-0.37369z" style="fill:url(#linearGradient19311);stroke-linecap:round;stroke-linejoin:round;stroke-width:.94488;stroke:#7d7d7d"/>
   <path d="m60.353 157.69c45.077 23.255 106.76 28.734 166.21 0.39637l-82.971 47.299z" style="fill:url(#linearGradient19313);stroke-linecap:round;stroke-linejoin:round;stroke-width:.94488;stroke:#7d7d7d"/>
   <path d="m60.353 157.82 83.367 47.431v38.579l-83.235-48.091z" style="fill:url(#linearGradient19315);stroke-linecap:round;stroke-linejoin:round;stroke-width:.94488;stroke:#7d7d7d"/>
   <path d="m143.67 205.19v38.583l82.625-48.033v-37.654z" style="fill:url(#linearGradient19317);stroke-linecap:round;stroke-linejoin:round;stroke-width:.94488;stroke:#7d7d7d"/>
   <path d="m80.307 86.84c142.35-34.315 272.85 38.726 140 70.803-141.95 34.274-272.61-38.836-140-70.803z" style="fill:#ffe6e6;opacity:.5448;stroke-dasharray:0.75590555, 2.26771663;stroke-linecap:round;stroke-linejoin:round;stroke-width:.75591;stroke:#f00"/>
   <path d="m192.54 143.81 6.2253-5.1469 6.9023 14.13 6.2932-3.0742-6.9023-14.13 7.4287-1.523-19.542-14.716z" style="fill:#fff;stroke-linecap:round;stroke-linejoin:round;stroke-width:.75591;stroke:#000"/>
  </g>
  <g transform="translate(-778.96 270.55)">
   <ellipse cx="1175.2" cy="160.16" rx="13.199" ry="13.469" style="fill:#1f638a;stroke-linecap:round;stroke-linejoin:round;stroke-width:1.0658"/>
   <text x="1169.625" y="167.8232" style="fill:#000000;font-family:'Arial Nova', 'Arial Unicode MS', 'Yu Gothic UI', sans-serif;font-size:12.8px;letter-spacing:0px;line-height:0%;stroke-width:1.0667;word-spacing:0px" xml:space="preserve"><tspan x="1169.625" y="167.8232" style="fill:#ffffff;font-family:'Arial Nova', 'Arial Unicode MS', 'Yu Gothic UI', sans-serif;font-size:21.333px;font-weight:bold;stroke-width:1.0667">2</tspan></text>
  </g>
  <g transform="translate(14.943 199.87)">
   <path d="m556.48 112.67-4.1905 12.571h8.7619z" style="fill:#f00;stroke-linecap:round;stroke-linejoin:round;stroke-width:1.0658;stroke:#f00"/>
   <path d="m515.56 140.13c79.941-16.71 153.22 18.858 78.618 34.478-79.715 16.69-153.09-18.912-78.618-34.478z" style="fill:#ffe6e6;opacity:.5448;stroke-dasharray:0.75590553, 2.26771659;stroke-linecap:round;stroke-linejoin:round;stroke-width:.75591;stroke:#f00"/>
   <ellipse transform="rotate(-2)" cx="550.78" cy="174.41" rx="4.0406" ry="3.7795" style="fill:#f00;stroke-linecap:round;stroke-linejoin:round;stroke-width:3.7837;stroke:#f00"/>
   <path d="m556.66 154.9v-33.174" style="fill:none;stroke-linecap:round;stroke-linejoin:round;stroke-width:.94488;stroke:#f00"/>
   <path d="m560.58 183.6 6.2254-5.147 6.9023 14.13 6.2932-3.0742-6.9023-14.13 7.4287-1.523-19.542-14.716z" style="fill:#fff;stroke-linecap:round;stroke-linejoin:round;stroke-width:.75591;stroke:#000"/>
  </g>
  <g transform="translate(-412.15 31.017)">
   <ellipse cx="982.02" cy="399.69" rx="13.199" ry="13.469" style="fill:#1f638a;stroke-linecap:round;stroke-linejoin:round;stroke-width:1.0658"/>
   <text x="976.14124" y="407.22528" style="fill:#000000;font-family:'Arial Nova', 'Arial Unicode MS', 'Yu Gothic UI', sans-serif;font-size:12.8px;letter-spacing:0px;line-height:0%;stroke-width:1.0667;word-spacing:0px" xml:space="preserve"><tspan x="976.14124" y="407.22528" style="fill:#ffffff;font-family:'Arial Nova', 'Arial Unicode MS', 'Yu Gothic UI', sans-serif;font-size:21.333px;font-weight:bold;stroke-width:1.0667">3</tspan></text>
  </g>
  <g transform="translate(14.943 199.87)">
   <ellipse transform="rotate(-2)" cx="369.08" cy="198.57" rx="4.0406" ry="3.7795" style="fill:#f00;stroke-linecap:round;stroke-linejoin:round;stroke-width:3.7837;stroke:#f00"/>
   <ellipse transform="rotate(-2)" cx="319.89" cy="129.73" rx="4.0406" ry="3.7795" style="fill:#f00;stroke-linecap:round;stroke-linejoin:round;stroke-width:3.7837;stroke:#f00"/>
   <ellipse transform="rotate(-2)" cx="420.4" cy="140.44" rx="4.0406" ry="3.7795" style="fill:#f00;stroke-linecap:round;stroke-linejoin:round;stroke-width:3.7837;stroke:#f00"/>
   <path d="m423.98 149.94 6.2254-5.1469 6.9023 14.13 6.2932-3.0742-6.9023-14.13 7.4287-1.523-19.542-14.716z" style="fill:#fff;stroke-linecap:round;stroke-linejoin:round;stroke-width:.75591;stroke:#000"/>
   <ellipse transform="matrix(.85189 -.52372 .49471 .86906 0 0)" cx="256.09" cy="313.13" rx="41.627" ry="29.138" style="color:#000000;fill-opacity:.099174;fill:#f00;stroke-dasharray:0.75612045, 2.26836133;stroke-linecap:round;stroke-linejoin:round;stroke-width:.75612;stroke:#f00"/>
  </g>
 </g>
</svg>
