<?xml version="1.0" encoding="UTF-8"?>
<svg width="18cm" height="6.5cm" version="1.1" viewBox="0 0 180 65" xmlns="http://www.w3.org/2000/svg" xmlns:xlink="http://www.w3.org/1999/xlink"><defs><linearGradient id="Sockel"><stop style="stop-color:#c87137" offset="0"/><stop style="stop-color:#fff" offset="1"/></linearGradient><linearGradient id="Messrahmen"><stop style="stop-color:#deaa87" offset="0"/><stop style="stop-color:#fff" offset="1"/></linearGradient><linearGradient id="Lineare"><stop style="stop-color:#ffd94a" offset="0"/><stop style="stop-color:#fff" offset="1"/></linearGradient><linearGradient id="Elektrode"><stop style="stop-color:#ff8f40" offset="0"/><stop style="stop-color:#fff" offset="1"/></linearGradient><linearGradient id="linearGradient3831-8-8"><stop style="stop-color:#716e6e" offset="0"/><stop style="stop-color:#f6f6f6" offset=".5"/><stop style="stop-color:#848484" offset="1"/></linearGradient><linearGradient id="linearGradient7747-2-1"><stop style="stop-color:#fff" offset="0"/><stop style="stop-color:#808080" offset="1"/></linearGradient><linearGradient id="linearGradient9532" x1="152.04" x2="240.74" y1="48.55" y2="96.283" gradientTransform="matrix(1.0014 .0010846 -.0014725 .73757 -119.65 155.4)" gradientUnits="userSpaceOnUse" xlink:href="#linearGradient17780-7-4"/><linearGradient id="linearGradient17780-7-4"><stop style="stop-color:#fff" offset="0"/><stop style="stop-color:#00385e" offset="1"/></linearGradient><linearGradient id="linearGradient6218-7-4-0-5-2-09"><stop style="stop-color:#ff8500" offset="0"/><stop style="stop-color:#fff" offset="1"/></linearGradient><linearGradient id="linearGradient18019-1" x1="37.013" x2="69.026" y1="109.14" y2="109.14" gradientTransform="matrix(.19909 0 0 .19935 1.0378 9.551)" gradientUnits="userSpaceOnUse" xlink:href="#linearGradient7747-2-1"/><linearGradient id="linearGradient18017-6" x1="14.267" x2="91.773" y1="48.359" y2="48.359" gradientTransform="matrix(.19909 0 0 .19935 1.0378 9.551)" gradientUnits="userSpaceOnUse" xlink:href="#linearGradient3831-8-8"/><linearGradient id="linearGradient18015-6" x1="26.394" x2="79.645" y1="66.146" y2="66.146" gradientTransform="matrix(.19909 0 0 .19935 1.0378 9.551)" gradientUnits="userSpaceOnUse" xlink:href="#linearGradient7747-2-1"/><linearGradient id="linearGradient18013-3" x1="26.394" x2="79.645" y1="66.28" y2="66.28" gradientTransform="matrix(.19909 0 0 .19935 1.0378 9.551)" gradientUnits="userSpaceOnUse" xlink:href="#linearGradient7747-2-1"/><linearGradient id="linearGradient18011-0" x1="13.693" x2="92.343" y1="95.748" y2="95.748" gradientTransform="matrix(.19909 0 0 .19935 1.0378 9.551)" gradientUnits="userSpaceOnUse" xlink:href="#linearGradient3831-8-8"/><linearGradient id="linearGradient18009-5" x1="13.724" x2="91.977" y1="142.81" y2="142.81" gradientTransform="matrix(.19909 0 0 .19935 1.0378 9.551)" gradientUnits="userSpaceOnUse" xlink:href="#linearGradient3831-8-8"/><pattern id="pattern9529-8-8" patternTransform="matrix(.013358 -.012793 2.3 2.4014 34.87 186.63)" xlink:href="#pattern9496-1-7"/><pattern id="pattern9496-1-7" patternTransform="matrix(.047355 -.045348 8.1452 8.5058 396.14 -51.594)" xlink:href="#pattern9487-1-32"/><pattern id="pattern9487-1-32" patternTransform="matrix(.056516 -.039102 6.9938 10.109 354.71 164.31)" xlink:href="#Strips1_64-5-8"/><pattern id="Strips1_64-5-8" width="65" height="1" patternTransform="translate(0) scale(10)" patternUnits="userSpaceOnUse"><rect y="-.5" width="1" height="2"/></pattern><linearGradient id="linearGradient17865" x1="43.258" x2="60.645" y1="191.52" y2="215.5" gradientTransform="matrix(.36157 0 0 .36136 100.16 -22.601)" gradientUnits="userSpaceOnUse" xlink:href="#linearGradient17780-7-4"/><linearGradient id="linearGradient17867" x1="63.17" x2="43.258" y1="221.05" y2="191.52" gradientTransform="matrix(.36157 0 0 .36136 81.788 -22.601)" gradientUnits="userSpaceOnUse" xlink:href="#linearGradient6218-7-4-0-5-2-09"/><linearGradient id="linearGradient17869" x1="13.724" x2="91.977" y1="142.81" y2="142.81" gradientTransform="matrix(.19909 0 0 .19935 19.406 9.5514)" gradientUnits="userSpaceOnUse" xlink:href="#linearGradient3831-8-8"/><linearGradient id="linearGradient17871" x1="13.693" x2="92.343" y1="95.748" y2="95.748" gradientTransform="matrix(.19909 0 0 .19935 19.406 9.5514)" gradientUnits="userSpaceOnUse" xlink:href="#linearGradient3831-8-8"/><linearGradient id="linearGradient17873" x1="26.394" x2="79.645" y1="66.28" y2="66.28" gradientTransform="matrix(.19909 0 0 .19935 19.406 9.5514)" gradientUnits="userSpaceOnUse" xlink:href="#linearGradient7747-2-1"/><linearGradient id="linearGradient17875" x1="26.394" x2="79.645" y1="66.146" y2="66.146" gradientTransform="matrix(.19909 0 0 .19935 19.406 9.5514)" gradientUnits="userSpaceOnUse" xlink:href="#linearGradient7747-2-1"/><linearGradient id="linearGradient17877" x1="14.267" x2="91.773" y1="48.359" y2="48.359" gradientTransform="matrix(.19909 0 0 .19935 19.406 9.5514)" gradientUnits="userSpaceOnUse" xlink:href="#linearGradient3831-8-8"/><linearGradient id="linearGradient17879" x1="37.013" x2="69.026" y1="109.14" y2="109.14" gradientTransform="matrix(.19909 0 0 .19935 19.406 9.5514)" gradientUnits="userSpaceOnUse" xlink:href="#linearGradient7747-2-1"/><linearGradient id="linearGradient18019-1-4" x1="37.013" x2="69.026" y1="109.14" y2="109.14" gradientTransform="matrix(.19909 0 0 .19935 47.641 9.321)" gradientUnits="userSpaceOnUse" xlink:href="#linearGradient7747-2-1"/><linearGradient id="linearGradient18017-6-0" x1="14.267" x2="91.773" y1="48.359" y2="48.359" gradientTransform="matrix(.19909 0 0 .19935 47.641 9.321)" gradientUnits="userSpaceOnUse" xlink:href="#linearGradient3831-8-8"/><linearGradient id="linearGradient18015-6-0" x1="26.394" x2="79.645" y1="66.146" y2="66.146" gradientTransform="matrix(.19909 0 0 .19935 47.641 9.321)" gradientUnits="userSpaceOnUse" xlink:href="#linearGradient7747-2-1"/><linearGradient id="linearGradient18013-3-6" x1="26.394" x2="79.645" y1="66.28" y2="66.28" gradientTransform="matrix(.19909 0 0 .19935 47.641 9.321)" gradientUnits="userSpaceOnUse" xlink:href="#linearGradient7747-2-1"/><linearGradient id="linearGradient18011-0-0" x1="13.693" x2="92.343" y1="95.748" y2="95.748" gradientTransform="matrix(.19909 0 0 .19935 47.641 9.321)" gradientUnits="userSpaceOnUse" xlink:href="#linearGradient3831-8-8"/><linearGradient id="linearGradient18009-5-4" x1="13.724" x2="91.977" y1="142.81" y2="142.81" gradientTransform="matrix(.19909 0 0 .19935 47.641 9.321)" gradientUnits="userSpaceOnUse" xlink:href="#linearGradient3831-8-8"/><pattern id="pattern9529-8-8-0" patternTransform="matrix(.013358 -.012793 2.3 2.4014 34.87 186.63)" xlink:href="#pattern9496-1-7-4"/><pattern id="pattern9496-1-7-4" patternTransform="matrix(.047355 -.045348 8.1452 8.5058 396.14 -51.594)" xlink:href="#pattern9487-1-32-9"/><pattern id="pattern9487-1-32-9" patternTransform="matrix(.056516 -.039102 6.9938 10.109 354.71 164.31)" xlink:href="#Strips1_64-5-8-0"/><pattern id="Strips1_64-5-8-0" width="65" height="1" patternTransform="translate(0) scale(10)" patternUnits="userSpaceOnUse"><rect y="-.5" width="1" height="2"/></pattern><linearGradient id="linearGradient18019-1-2" x1="37.013" x2="69.026" y1="109.14" y2="109.14" gradientTransform="matrix(.19909 0 0 .19935 138.95 9.328)" gradientUnits="userSpaceOnUse" xlink:href="#linearGradient7747-2-1"/><linearGradient id="linearGradient18017-6-8" x1="14.267" x2="91.773" y1="48.359" y2="48.359" gradientTransform="matrix(.19909 0 0 .19935 138.95 9.328)" gradientUnits="userSpaceOnUse" xlink:href="#linearGradient3831-8-8"/><linearGradient id="linearGradient18015-6-6" x1="26.394" x2="79.645" y1="66.146" y2="66.146" gradientTransform="matrix(.19909 0 0 .19935 138.95 9.328)" gradientUnits="userSpaceOnUse" xlink:href="#linearGradient7747-2-1"/><linearGradient id="linearGradient18013-3-7" x1="26.394" x2="79.645" y1="66.28" y2="66.28" gradientTransform="matrix(.19909 0 0 .19935 138.95 9.328)" gradientUnits="userSpaceOnUse" xlink:href="#linearGradient7747-2-1"/><linearGradient id="linearGradient18011-0-4" x1="13.693" x2="92.343" y1="95.748" y2="95.748" gradientTransform="matrix(.19909 0 0 .19935 138.95 9.328)" gradientUnits="userSpaceOnUse" xlink:href="#linearGradient3831-8-8"/><linearGradient id="linearGradient18009-5-0" x1="13.724" x2="91.977" y1="142.81" y2="142.81" gradientTransform="matrix(.19909 0 0 .19935 138.95 9.328)" gradientUnits="userSpaceOnUse" xlink:href="#linearGradient3831-8-8"/><pattern id="pattern9529-8-8-6" patternTransform="matrix(.013358 -.012793 2.3 2.4014 34.87 186.63)" xlink:href="#pattern9496-1-7-9"/><pattern id="pattern9496-1-7-9" patternTransform="matrix(.047355 -.045348 8.1452 8.5058 396.14 -51.594)" xlink:href="#pattern9487-1-32-5"/><pattern id="pattern9487-1-32-5" patternTransform="matrix(.056516 -.039102 6.9938 10.109 354.71 164.31)" xlink:href="#Strips1_64-5-8-02"/><pattern id="Strips1_64-5-8-02" width="65" height="1" patternTransform="translate(0) scale(10)" patternUnits="userSpaceOnUse"><rect y="-.5" width="1" height="2"/></pattern><linearGradient id="linearGradient18019-1-4-2" x1="37.013" x2="69.026" y1="109.14" y2="109.14" gradientTransform="matrix(.19909 0 0 .19935 89.445 9.321)" gradientUnits="userSpaceOnUse" xlink:href="#linearGradient7747-2-1"/><linearGradient id="linearGradient18017-6-0-4" x1="14.267" x2="91.773" y1="48.359" y2="48.359" gradientTransform="matrix(.19909 0 0 .19935 89.445 9.321)" gradientUnits="userSpaceOnUse" xlink:href="#linearGradient3831-8-8"/><linearGradient id="linearGradient18015-6-0-1" x1="26.394" x2="79.645" y1="66.146" y2="66.146" gradientTransform="matrix(.19909 0 0 .19935 89.445 9.321)" gradientUnits="userSpaceOnUse" xlink:href="#linearGradient7747-2-1"/><linearGradient id="linearGradient18013-3-6-6" x1="26.394" x2="79.645" y1="66.28" y2="66.28" gradientTransform="matrix(.19909 0 0 .19935 89.445 9.321)" gradientUnits="userSpaceOnUse" xlink:href="#linearGradient7747-2-1"/><linearGradient id="linearGradient18011-0-0-29" x1="13.693" x2="92.343" y1="95.748" y2="95.748" gradientTransform="matrix(.19909 0 0 .19935 89.445 9.321)" gradientUnits="userSpaceOnUse" xlink:href="#linearGradient3831-8-8"/><linearGradient id="linearGradient18009-5-4-5" x1="13.724" x2="91.977" y1="142.81" y2="142.81" gradientTransform="matrix(.19909 0 0 .19935 89.445 9.321)" gradientUnits="userSpaceOnUse" xlink:href="#linearGradient3831-8-8"/><pattern id="pattern9529-8-8-0-2" patternTransform="matrix(.013358 -.012793 2.3 2.4014 34.87 186.63)" xlink:href="#pattern9496-1-7-4-2"/><pattern id="pattern9496-1-7-4-2" patternTransform="matrix(.047355 -.045348 8.1452 8.5058 396.14 -51.594)" xlink:href="#pattern9487-1-32-9-9"/><pattern id="pattern9487-1-32-9-9" patternTransform="matrix(.056516 -.039102 6.9938 10.109 354.71 164.31)" xlink:href="#Strips1_64-5-8-0-1"/><pattern id="Strips1_64-5-8-0-1" width="65" height="1" patternTransform="translate(0) scale(10)" patternUnits="userSpaceOnUse"><rect y="-.5" width="1" height="2"/></pattern><linearGradient id="linearGradient1262" x1="43.258" x2="60.645" y1="191.52" y2="215.5" gradientTransform="matrix(.36157 0 0 .36136 149.66 -22.595)" gradientUnits="userSpaceOnUse" xlink:href="#linearGradient17780-7-4"/><linearGradient id="linearGradient1266" x1="63.17" x2="43.258" y1="221.05" y2="191.52" gradientTransform="matrix(.36157 0 0 .36136 131.29 -22.595)" gradientUnits="userSpaceOnUse" xlink:href="#linearGradient6218-7-4-0-5-2-09"/><linearGradient id="linearGradient1268" x1="43.258" x2="60.645" y1="191.52" y2="215.5" gradientTransform="matrix(.36157 0 0 .36136 58.351 -22.601)" gradientUnits="userSpaceOnUse" xlink:href="#linearGradient17780-7-4"/><linearGradient id="linearGradient1272" x1="63.17" x2="43.258" y1="221.05" y2="191.52" gradientTransform="matrix(.36157 0 0 .36136 39.983 -22.601)" gradientUnits="userSpaceOnUse" xlink:href="#linearGradient6218-7-4-0-5-2-09"/><linearGradient id="linearGradient1274" x1="43.258" x2="60.645" y1="191.52" y2="215.5" gradientTransform="matrix(.36157 0 0 .36136 11.748 -22.371)" gradientUnits="userSpaceOnUse" xlink:href="#linearGradient17780-7-4"/><linearGradient id="linearGradient1278" x1="63.17" x2="43.258" y1="221.05" y2="191.52" gradientTransform="matrix(.36157 0 0 .36136 -6.6199 -22.371)" gradientUnits="userSpaceOnUse" xlink:href="#linearGradient6218-7-4-0-5-2-09"/><linearGradient id="linearGradient1734" x1="8.9314" x2="14.251" y1="50.688" y2="50.688" gradientUnits="userSpaceOnUse" xlink:href="#Elektrode"/><linearGradient id="linearGradient1744" x1="8.9314" x2="14.256" y1="45.391" y2="45.391" gradientUnits="userSpaceOnUse" xlink:href="#Lineare"/><linearGradient id="linearGradient1754" x1="7.9107" x2="15.276" y1="42.62" y2="42.62" gradientUnits="userSpaceOnUse" xlink:href="#Messrahmen"/><linearGradient id="linearGradient1764" x1="7.638" x2="15.549" y1="40.078" y2="40.078" gradientUnits="userSpaceOnUse" xlink:href="#Sockel"/><linearGradient id="linearGradient1772" x1="146.84" x2="152.16" y1="50.465" y2="50.465" gradientUnits="userSpaceOnUse" xlink:href="#Elektrode"/><linearGradient id="linearGradient1774" x1="97.339" x2="102.66" y1="50.458" y2="50.458" gradientUnits="userSpaceOnUse" xlink:href="#Elektrode"/><linearGradient id="linearGradient1776" x1="55.534" x2="60.854" y1="50.458" y2="50.458" gradientUnits="userSpaceOnUse" xlink:href="#Elektrode"/><linearGradient id="linearGradient1778" x1="27.299" x2="32.619" y1="50.689" y2="50.689" gradientUnits="userSpaceOnUse" xlink:href="#Elektrode"/><linearGradient id="linearGradient1786" x1="146.84" x2="152.16" y1="45.168" y2="45.168" gradientUnits="userSpaceOnUse" xlink:href="#Lineare"/><linearGradient id="linearGradient1788" x1="97.339" x2="102.66" y1="45.161" y2="45.161" gradientUnits="userSpaceOnUse" xlink:href="#Lineare"/><linearGradient id="linearGradient1790" x1="55.534" x2="60.859" y1="45.161" y2="45.161" gradientUnits="userSpaceOnUse" xlink:href="#Lineare"/><linearGradient id="linearGradient1792" x1="27.299" x2="32.624" y1="45.392" y2="45.392" gradientUnits="userSpaceOnUse" xlink:href="#Lineare"/><linearGradient id="linearGradient1800" x1="145.82" x2="153.18" y1="42.397" y2="42.397" gradientUnits="userSpaceOnUse" xlink:href="#Messrahmen"/><linearGradient id="linearGradient1802" x1="96.318" x2="103.68" y1="42.39" y2="42.39" gradientUnits="userSpaceOnUse" xlink:href="#Messrahmen"/><linearGradient id="linearGradient1804" x1="54.514" x2="61.88" y1="42.39" y2="42.39" gradientUnits="userSpaceOnUse" xlink:href="#Messrahmen"/><linearGradient id="linearGradient1806" x1="26.278" x2="33.644" y1="42.622" y2="42.622" gradientUnits="userSpaceOnUse" xlink:href="#Messrahmen"/><linearGradient id="linearGradient1814" x1="145.55" x2="153.46" y1="39.854" y2="39.854" gradientUnits="userSpaceOnUse" xlink:href="#Sockel"/><linearGradient id="linearGradient1816" x1="96.045" x2="103.96" y1="39.848" y2="39.848" gradientUnits="userSpaceOnUse" xlink:href="#Sockel"/><linearGradient id="linearGradient1818" x1="54.241" x2="62.152" y1="39.848" y2="39.848" gradientUnits="userSpaceOnUse" xlink:href="#Sockel"/><linearGradient id="linearGradient1820" x1="26.006" x2="33.917" y1="40.078" y2="40.078" gradientUnits="userSpaceOnUse" xlink:href="#Sockel"/></defs><path d="m165.3 46.609v7.6055l2.5705-1.2659 2.5705 1.2659 4e-3 -7.6055z" style="fill:url(#linearGradient1262);stroke-width:.26459px;stroke:#7d7d7d"/><g transform="matrix(.36157 0 0 .36136 131.29 -22.544)" style="stroke-width:2.7665"><path d="m32.492 191.48 10.766 0.0369v21.047l7.1093-3.5031 7.1093 3.5031 0.01187-21.047 36.57 1e-5v21.047l7.1093-3.5031 7.1093 3.5031 0.0118-21.047 13.077 0.0595-0.0707 35.403-88.874-0.0962z" style="fill:url(#linearGradient9532);stroke-linecap:round;stroke-linejoin:round;stroke-width:1.3833;stroke:#7d7d7d"/><path transform="matrix(1 .0010829 -.0019967 1 0 0)" d="m32.863 191.44 10.778 0.0258 0.04203 21.047 7.1023-3.5108 7.1163 3.4954-0.03016-21.047 36.569-0.0396 0.04203 21.047 7.1023-3.5108 7.1163 3.4954-0.0302-21.047 13.078 0.0446v35.404h-88.886z" style="fill:url(#pattern9529-8-8-6);opacity:.5"/></g><path d="m146.93 46.609v7.6055l2.5705-1.2659 2.5705 1.2659 4e-3 -7.6055z" style="fill:url(#linearGradient1266);stroke-width:.179;stroke:#7d7d7d"/><path d="m145.66 41.126h7.7132v-2.543h-7.7321z" style="fill:url(#linearGradient1814);stroke-linecap:round;stroke-linejoin:round;stroke-width:.179;stroke:#502d16"/><path d="m141.78 37.02h15.38l-1.552 1.5541h-12.304z" style="fill:url(#linearGradient18009-5-0);stroke-linecap:round;stroke-linejoin:round;stroke-width:.179;stroke:#502d16"/><path d="m145.92 43.669h7.1771v-2.543h-7.1865z" style="fill:url(#linearGradient1800);stroke-linecap:round;stroke-linejoin:round;stroke-width:.179;stroke:#502d16"/><path d="m146.93 46.662h5.1453v-2.9886h-5.1265z" style="fill:url(#linearGradient1786);stroke-linecap:round;stroke-linejoin:round;stroke-width:.179;stroke:#502d16"/><path d="m143.85 20.995v3.0236l-2.0779 1.2013v11.786h15.394v-11.708l-2.0764-1.2004v-3.0354l2.1417-1.2381h-15.457z" style="fill:url(#linearGradient18011-0-4);stroke-linecap:round;stroke-linejoin:round;stroke-width:.179;stroke:#502d16"/><path d="m144.3 20.995c3.3232-1.5543 6.7958-1.5002 10.403 0v3.0369c-4.0282 1.8043-7.364 1.3805-10.403 0z" style="fill:url(#linearGradient18013-3-7);stroke-linecap:round;stroke-linejoin:round;stroke-width:.179;stroke:#502d16"/><path d="m144.3 20.995h10.403v3.0369h-10.403z" style="fill:url(#linearGradient18015-6-6);stroke-linecap:round;stroke-linejoin:round;stroke-width:.179;stroke:#502d16"/><path d="m141.89 19.064v-0.97235h15.232v0.98567l-0.44229 0.76708h-14.284z" style="fill:url(#linearGradient18017-6-8);stroke-linecap:round;stroke-linejoin:round;stroke-width:.179;stroke:#502d16"/><path d="m141.89 19.064h15.225" style="fill:none;stroke-linecap:round;stroke-linejoin:round;stroke-width:.179;stroke:#502d16"/><ellipse cx="149.51" cy="31.087" rx="3.0872" ry="3.0913" style="fill:url(#linearGradient18019-1-2);opacity:.97;paint-order:normal;stroke-linecap:round;stroke-linejoin:round;stroke-width:.179;stroke:#502d16"/><path d="m146.93 46.662h5.141v7.6056l-2.5705-1.2659-2.5705 1.2659z" style="fill:url(#linearGradient1772);opacity:.97;paint-order:normal;stroke-linecap:round;stroke-linejoin:round;stroke-width:.179;stroke:#502d16"/><path d="m164.01 41.076h7.7134v-2.5431h-7.7322z" style="fill:none;stroke-dasharray:0.10000068, 0.10000068;stroke-linecap:round;stroke-linejoin:round;stroke-width:.099999;stroke:#4d4d4d"/><path d="m160.14 36.971h15.38l-1.5521 1.5541h-12.304z" style="fill:none;stroke-dasharray:0.10000068, 0.10000068;stroke-linecap:round;stroke-linejoin:round;stroke-width:.099999;stroke:#4d4d4d"/><path d="m164.28 43.62h7.1772v-2.5431h-7.1866z" style="fill:none;stroke-dasharray:0.10000068, 0.10000068;stroke-linecap:round;stroke-linejoin:round;stroke-width:.099999;stroke:#4d4d4d"/><path d="m165.29 46.612h5.1455v-2.9886h-5.1263z" style="fill:none;stroke-dasharray:0.10000068, 0.10000068;stroke-linecap:round;stroke-linejoin:round;stroke-width:.099999;stroke:#4d4d4d"/><path d="m162.21 20.945v3.0237l-2.0779 1.2013v11.786h15.394v-11.708l-2.0764-1.2004v-3.0354l2.1418-1.2382h-15.457z" style="fill:none;stroke-dasharray:0.10000068, 0.10000068;stroke-linecap:round;stroke-linejoin:round;stroke-width:.099999;stroke:#4d4d4d"/><path d="m162.66 20.945c3.3232-1.5544 6.7957-1.5002 10.403 0v3.037c-4.0282 1.8043-7.3641 1.3805-10.403 0z" style="fill:none;stroke-dasharray:0.10000068, 0.10000068;stroke-linecap:round;stroke-linejoin:round;stroke-width:.099999;stroke:#4d4d4d"/><path d="m162.66 20.945h10.403v3.037h-10.403z" style="fill:none;stroke-dasharray:0.10000068, 0.10000068;stroke-linecap:round;stroke-linejoin:round;stroke-width:.099999;stroke:#4d4d4d"/><path d="m160.25 19.014v-0.97238h15.231v0.98568l-0.4423 0.7671h-14.284z" style="fill:none;stroke-dasharray:0.10000068, 0.10000068;stroke-linecap:round;stroke-linejoin:round;stroke-width:.099999;stroke:#4d4d4d"/><path d="m160.25 19.014h15.226" style="fill:none;stroke-dasharray:0.10000068, 0.10000068;stroke-linecap:round;stroke-linejoin:round;stroke-width:.099999;stroke:#4d4d4d"/><ellipse cx="167.86" cy="31.034" rx="3.0872" ry="3.0913" style="fill:none;opacity:.97;paint-order:normal;stroke-dasharray:0.10000068, 0.10000068;stroke-linecap:round;stroke-linejoin:round;stroke-width:.099999;stroke:#4d4d4d"/><path d="m165.29 46.612h5.1412v7.6055l-2.5705-1.2659-2.5705 1.2659z" style="fill:none;opacity:.97;paint-order:normal;stroke-dasharray:0.10000068, 0.10000068;stroke-linecap:round;stroke-linejoin:round;stroke-width:.099999;stroke:#4d4d4d"/><rect x="155.83" y="14.076" width="3.175" height="1.5875" style="fill:none;paint-order:normal;stroke-linecap:square;stroke-linejoin:round;stroke-width:.52917;stroke:#000"/><rect x="160.06" y="14.076" width="3.175" height="1.5875" style="fill:none;paint-order:normal;stroke-linecap:square;stroke-linejoin:round;stroke-width:.52917;stroke:#000"/><path d="m157.95 14.878h3.175" style="fill:none;paint-order:normal;stroke-linecap:round;stroke-linejoin:round;stroke-width:.52917;stroke:#000"/><path d="m44.191 28.995 2.6372 1.6512-2.6372 1.6512z" style="fill:#1f638a;stroke-linecap:round;stroke-linejoin:round;stroke-width:.1;stroke:#1f638a"/><rect x="41.467" y="29.892" width="3.0265" height="1.5097" style="fill:#1f638a;stroke-linecap:round;stroke-linejoin:round;stroke-width:.1;stroke:#1f638a"/><path d="m88.755 28.995 2.6372 1.6512-2.6372 1.6512z" style="fill:#1f638a;stroke-linecap:round;stroke-linejoin:round;stroke-width:.1;stroke:#1f638a"/><rect x="86.031" y="29.892" width="3.0265" height="1.5097" style="fill:#1f638a;stroke-linecap:round;stroke-linejoin:round;stroke-width:.1;stroke:#1f638a"/><path d="m135.41 28.995 2.6372 1.6512-2.6372 1.6512z" style="fill:#1f638a;stroke-linecap:round;stroke-linejoin:round;stroke-width:.1;stroke:#1f638a"/><rect x="132.69" y="29.892" width="3.0265" height="1.5097" style="fill:#1f638a;stroke-linecap:round;stroke-linejoin:round;stroke-width:.1;stroke:#1f638a"/><ellipse cx="9.4984" cy="6.5284" rx="3.4922" ry="3.5636" style="fill:#1f638a;stroke-linecap:round;stroke-linejoin:round;stroke-width:.28199"/><text x="7.7982211" y="8.5485868" style="fill:#000000;font-family:'Arial Nova', 'Arial Unicode MS', 'Yu Gothic UI', sans-serif;font-size:3.3866px;letter-spacing:0px;line-height:0%;stroke-width:.28223;word-spacing:0px" xml:space="preserve"><tspan x="7.7982211" y="8.5485868" style="fill:#ffffff;font-family:'Arial Nova', 'Arial Unicode MS', 'Yu Gothic UI', sans-serif;font-size:5.6443px;line-height:1.25;stroke-width:.28223;stroke:#ffffff">B</tspan></text><ellipse cx="118.26" cy="11.859" rx="3.4922" ry="3.5636" style="fill:#1f638a;stroke-linecap:round;stroke-linejoin:round;stroke-width:.28199"/><text x="117.46872" y="13.879536" style="fill:#000000;font-family:'Arial Nova', 'Arial Unicode MS', 'Yu Gothic UI', sans-serif;font-size:3.3866px;letter-spacing:0px;line-height:0%;stroke-width:.28223;word-spacing:0px" xml:space="preserve"><tspan x="117.46872" y="13.879536" style="fill:#ffffff;font-family:'Arial Nova', 'Arial Unicode MS', 'Yu Gothic UI', sans-serif;font-size:5.6443px;line-height:1.25;stroke-width:.28223;stroke:#ffffff">I</tspan></text><path d="m73.992 46.603 2e-6 7.6055 2.5705-1.2659 2.5705 1.2659 0.0043-7.6055z" style="fill:url(#linearGradient1268);stroke-width:.179;stroke:#7d7d7d"/><g transform="matrix(.36157 0 0 .36136 39.983 -22.55)" style="stroke-width:2.7665"><path d="m32.492 191.48 10.766 0.0369v21.047l7.1093-3.5031 7.1093 3.5031 0.01187-21.047 36.57 1e-5v21.047l7.1093-3.5031 7.1093 3.5031 0.0118-21.047 13.077 0.0595-0.0707 35.403-88.874-0.0962z" style="fill:url(#linearGradient9532);stroke-linecap:round;stroke-linejoin:round;stroke-width:1.3833;stroke:#7d7d7d"/><path transform="matrix(1 .0010829 -.0019967 1 0 0)" d="m32.863 191.44 10.778 0.0258 0.04203 21.047 7.1023-3.5108 7.1163 3.4954-0.03016-21.047 36.569-0.0396 0.04203 21.047 7.1023-3.5108 7.1163 3.4954-0.0302-21.047 13.078 0.0446v35.404h-88.886z" style="fill:url(#pattern9529-8-8-0);opacity:.5"/></g><path d="m55.624 46.603 2e-6 7.6055 2.5705-1.2659 2.5705 1.2659 0.0043-7.6055z" style="fill:url(#linearGradient1272);stroke-width:.179;stroke:#7d7d7d"/><path d="m54.349 41.119h7.7132v-2.543h-7.732z" style="fill:url(#linearGradient1818);stroke-linecap:round;stroke-linejoin:round;stroke-width:.179;stroke:#502d16"/><path d="m50.473 37.013h15.38l-1.552 1.5541h-12.304z" style="fill:url(#linearGradient18009-5-4);stroke-linecap:round;stroke-linejoin:round;stroke-width:.179;stroke:#502d16"/><path d="m54.613 43.662h7.1771v-2.543h-7.1865z" style="fill:url(#linearGradient1804);stroke-linecap:round;stroke-linejoin:round;stroke-width:.179;stroke:#502d16"/><path d="m55.624 46.655h5.1453v-2.9886h-5.1265z" style="fill:url(#linearGradient1790);stroke-linecap:round;stroke-linejoin:round;stroke-width:.179;stroke:#502d16"/><path d="m52.544 20.989v3.0236l-2.0779 1.2012v11.786h15.394v-11.708l-2.0764-1.2004v-3.0354l2.1417-1.2381h-15.457z" style="fill:url(#linearGradient18011-0-0);stroke-linecap:round;stroke-linejoin:round;stroke-width:.179;stroke:#502d16"/><path d="m52.995 20.989c3.3231-1.5543 6.7957-1.5002 10.403 0v3.0369c-4.0282 1.8043-7.364 1.3805-10.403 0z" style="fill:url(#linearGradient18013-3-6);stroke-linecap:round;stroke-linejoin:round;stroke-width:.179;stroke:#502d16"/><path d="m52.995 20.989h10.403v3.0369h-10.403z" style="fill:url(#linearGradient18015-6-0);stroke-linecap:round;stroke-linejoin:round;stroke-width:.179;stroke:#502d16"/><path d="m50.581 19.057v-0.97236h15.232v0.98568l-0.44229 0.76708h-14.284z" style="fill:url(#linearGradient18017-6-0);stroke-linecap:round;stroke-linejoin:round;stroke-width:.179;stroke:#502d16"/><path d="m50.584 19.057h15.225" style="fill:none;stroke-linecap:round;stroke-linejoin:round;stroke-width:.179;stroke:#502d16"/><ellipse cx="58.196" cy="31.08" rx="3.0872" ry="3.0913" style="fill:url(#linearGradient18019-1-4);opacity:.97;paint-order:normal;stroke-linecap:round;stroke-linejoin:round;stroke-width:.179;stroke:#502d16"/><path d="m55.624 46.655h5.141v7.6056l-2.5705-1.2659-2.5705 1.2659z" style="fill:url(#linearGradient1776);opacity:.97;paint-order:normal;stroke-linecap:round;stroke-linejoin:round;stroke-width:.179;stroke:#502d16"/><path d="m72.729 41.17h7.7134v-2.5431h-7.7322z" style="fill:#b3b3b3;stroke-linecap:round;stroke-linejoin:round;stroke-width:.179;stroke:#4d4d4d"/><path d="m68.853 37.065h15.38l-1.5521 1.5541h-12.304z" style="fill:#b3b3b3;stroke-linecap:round;stroke-linejoin:round;stroke-width:.179;stroke:#4d4d4d"/><path d="m72.992 43.714h7.1772v-2.5431h-7.1866z" style="fill:#b3b3b3;stroke-linecap:round;stroke-linejoin:round;stroke-width:.179;stroke:#4d4d4d"/><path d="m74.004 46.706h5.1455v-2.9886h-5.1263z" style="fill:#b3b3b3;stroke-linecap:round;stroke-linejoin:round;stroke-width:.179;stroke:#4d4d4d"/><path d="m70.924 21.039v3.0237l-2.0779 1.2013v11.786h15.394v-11.708l-2.0764-1.2004v-3.0354l2.1418-1.2382h-15.457z" style="fill:#b3b3b3;stroke-linecap:round;stroke-linejoin:round;stroke-width:.179;stroke:#4d4d4d"/><path d="m71.375 21.039c3.3232-1.5544 6.7957-1.5002 10.403 0v3.037c-4.0283 1.8043-7.3641 1.3805-10.403 0z" style="fill:#b3b3b3;stroke-linecap:round;stroke-linejoin:round;stroke-width:.179;stroke:#4d4d4d"/><path d="m71.375 21.039h10.403v3.037h-10.403z" style="fill:#b3b3b3;stroke-linecap:round;stroke-linejoin:round;stroke-width:.179;stroke:#4d4d4d"/><path d="m68.961 19.108v-0.97238h15.231v0.98568l-0.44231 0.7671h-14.284z" style="fill:#b3b3b3;stroke-linecap:round;stroke-linejoin:round;stroke-width:.179;stroke:#4d4d4d"/><path d="m68.964 19.108h15.226" style="fill:#b3b3b3;stroke-linecap:round;stroke-linejoin:round;stroke-width:.179;stroke:#4d4d4d"/><ellipse cx="76.576" cy="31.128" rx="3.0872" ry="3.0913" style="fill:#b3b3b3;opacity:.97;paint-order:normal;stroke-linecap:round;stroke-linejoin:round;stroke-width:.179;stroke:#4d4d4d"/><path d="m74.004 46.706h5.1412v7.6055l-2.5705-1.2659-2.5705 1.2659z" style="fill:#b3b3b3;opacity:.97;paint-order:normal;stroke-linecap:round;stroke-linejoin:round;stroke-width:.179;stroke:#4d4d4d"/><g transform="matrix(.13591 -.227 .227 .13591 -9.1216 67.396)"><path d="m185 157.64-20.624 6.4215 5.206 8.707c8.2105-7.0026 15.418-15.128 15.418-15.128z" style="fill:#0f0;stroke-linecap:round;stroke-linejoin:round;stroke-width:1.8898;stroke:#0f0"/><path d="m174.2 164.03-29.443 17.393" style="fill:#0f0;stroke-linecap:round;stroke-linejoin:round;stroke-width:1.8898;stroke:#0f0"/></g><g transform="matrix(.23336 -.12468 .12468 .23336 -4.566 35.122)"><path d="m183.63 203.52-20.719-6.1073 5.0731-8.7851c8.316 6.877 15.646 14.892 15.646 14.892z" style="fill:#f00;stroke-linecap:round;stroke-linejoin:round;stroke-width:1.8898;stroke:#f00"/><path d="m173.54 197.43-28.882-15.871" style="fill:#f00;stroke-linecap:round;stroke-linejoin:round;stroke-width:1.8898;stroke:#f00"/></g><path d="m27.389 46.833 2e-6 7.6055 2.5705-1.2659 2.5705 1.2659 0.0043-7.6055z" style="fill:url(#linearGradient1274);stroke-width:.179;stroke:#7d7d7d"/><g transform="matrix(.36157 0 0 .36136 -6.6199 -22.32)" style="stroke-width:2.7665"><path d="m32.492 191.48 10.766 0.0369v21.047l7.1093-3.5031 7.1093 3.5031 0.01187-21.047 36.57 1e-5v21.047l7.1093-3.5031 7.1093 3.5031 0.0118-21.047 13.077 0.0595-0.0707 35.403-88.874-0.0962z" style="fill:url(#linearGradient9532);stroke-linecap:round;stroke-linejoin:round;stroke-width:1.3833;stroke:#7d7d7d"/><path transform="matrix(1 .0010829 -.0019967 1 0 0)" d="m32.863 191.44 10.778 0.0258 0.04203 21.047 7.1023-3.5108 7.1163 3.4954-0.03016-21.047 36.569-0.0396 0.04203 21.047 7.1023-3.5108 7.1163 3.4954-0.0302-21.047 13.078 0.0446v35.404h-88.886z" style="fill:url(#pattern9529-8-8);opacity:.5"/></g><path d="m9.0209 46.833 1.8e-6 7.6055 2.5705-1.2659 2.5705 1.2659 0.0043-7.6055z" style="fill:url(#linearGradient1278);stroke-width:.179;stroke:#7d7d7d"/><path d="m26.114 41.35h7.7134v-2.5431h-7.7322z" style="fill:url(#linearGradient1820);stroke-linecap:round;stroke-linejoin:round;stroke-width:.179;stroke:#502d16"/><path d="m22.237 37.245h15.38l-1.5521 1.5541h-12.304z" style="fill:url(#linearGradient17869);stroke-linecap:round;stroke-linejoin:round;stroke-width:.179;stroke:#502d16"/><path d="m26.377 43.894h7.1772v-2.5431h-7.1866z" style="fill:url(#linearGradient1806);stroke-linecap:round;stroke-linejoin:round;stroke-width:.179;stroke:#502d16"/><path d="m27.389 46.886h5.1455v-2.9886h-5.1263z" style="fill:url(#linearGradient1792);stroke-linecap:round;stroke-linejoin:round;stroke-width:.179;stroke:#502d16"/><path d="m24.309 21.219v3.0237l-2.0779 1.2013v11.786h15.394v-11.708l-2.0764-1.2004v-3.0354l2.1418-1.2382h-15.457z" style="fill:url(#linearGradient17871);stroke-linecap:round;stroke-linejoin:round;stroke-width:.179;stroke:#502d16"/><path d="m24.76 21.219c3.3232-1.5544 6.7957-1.5002 10.403 0v3.037c-4.0283 1.8043-7.3641 1.3805-10.403 0z" style="fill:url(#linearGradient17873);stroke-linecap:round;stroke-linejoin:round;stroke-width:.179;stroke:#502d16"/><path d="m24.76 21.219h10.403v3.037h-10.403z" style="fill:url(#linearGradient17875);stroke-linecap:round;stroke-linejoin:round;stroke-width:.179;stroke:#502d16"/><path d="m22.345 19.288v-0.97238h15.231v0.98568l-0.44231 0.7671h-14.284z" style="fill:url(#linearGradient17877);stroke-linecap:round;stroke-linejoin:round;stroke-width:.179;stroke:#502d16"/><path d="m22.348 19.288h15.226" style="fill:none;stroke-linecap:round;stroke-linejoin:round;stroke-width:.179;stroke:#502d16"/><ellipse cx="29.96" cy="31.308" rx="3.0872" ry="3.0913" style="fill:url(#linearGradient17879);opacity:.97;paint-order:normal;stroke-linecap:round;stroke-linejoin:round;stroke-width:.179;stroke:#502d16"/><path d="m27.389 46.886h5.1412v7.6055l-2.5705-1.2659-2.5705 1.2659z" style="fill:url(#linearGradient1778);opacity:.97;paint-order:normal;stroke-linecap:round;stroke-linejoin:round;stroke-width:.179;stroke:#502d16"/><path d="m7.7463 41.349h7.7132v-2.543h-7.732z" style="fill:url(#linearGradient1764);stroke-linecap:round;stroke-linejoin:round;stroke-width:.179;stroke:#502d16"/><path d="m3.8697 37.243h15.38l-1.552 1.5541h-12.304z" style="fill:url(#linearGradient18009-5);stroke-linecap:round;stroke-linejoin:round;stroke-width:.179;stroke:#502d16"/><path d="m8.0096 43.892h7.1771v-2.543h-7.1865z" style="fill:url(#linearGradient1754);stroke-linecap:round;stroke-linejoin:round;stroke-width:.179;stroke:#502d16"/><path d="m9.0209 46.885h5.1453v-2.9886h-5.1265z" style="fill:url(#linearGradient1744);stroke-linecap:round;stroke-linejoin:round;stroke-width:.179;stroke:#502d16"/><path d="m5.9414 21.219v3.0236l-2.0779 1.2012v11.786h15.394v-11.708l-2.0764-1.2004v-3.0354l2.1417-1.2381h-15.457z" style="fill:url(#linearGradient18011-0);stroke-linecap:round;stroke-linejoin:round;stroke-width:.179;stroke:#502d16"/><path d="m6.3921 21.219c3.3231-1.5543 6.7957-1.5002 10.403 0v3.0369c-4.0282 1.8043-7.364 1.3805-10.403 0z" style="fill:url(#linearGradient18013-3);stroke-linecap:round;stroke-linejoin:round;stroke-width:.179;stroke:#502d16"/><path d="m6.3921 21.219h10.403v3.0369h-10.403z" style="fill:url(#linearGradient18015-6);stroke-linecap:round;stroke-linejoin:round;stroke-width:.179;stroke:#502d16"/><path d="m3.9776 19.287v-0.97236h15.231v0.98568l-0.44229 0.76708h-14.284z" style="fill:url(#linearGradient18017-6);stroke-linecap:round;stroke-linejoin:round;stroke-width:.179;stroke:#502d16"/><path d="m3.9807 19.287h15.225" style="fill:none;stroke-linecap:round;stroke-linejoin:round;stroke-width:.179;stroke:#502d16"/><ellipse cx="11.593" cy="31.31" rx="3.0872" ry="3.0913" style="fill:url(#linearGradient18019-1);opacity:.97;paint-order:normal;stroke-linecap:round;stroke-linejoin:round;stroke-width:.179;stroke:#502d16"/><path d="m9.0209 46.885h5.141v7.6056l-2.5705-1.2659-2.5705 1.2659z" style="fill:url(#linearGradient1734);opacity:.97;paint-order:normal;stroke-linecap:round;stroke-linejoin:round;stroke-width:.179;stroke:#502d16"/><path d="m5.4756 38.861 2.3055 0.0097 0.018441 2.5392h0.25087l0.00922 2.5392 1.0175 0.0036-0.018441 2.9842v7.5946l2.5389-1.2641 2.5392 1.2641v-7.5946h0.0042v-2.9842l1.0079-0.0036v-2.5392h0.26931v-2.5392l2.2111-0.0097 1.5365-1.5584 0.0036-11.698-2.0508-1.1986v-3.0308l2.1154-1.2365h-0.53705l0.42511-0.74532v-0.98435h-15.045v0.97117l0.48616 0.75849h-0.59649l2.0499 1.17v3.0192l-2.0524 1.1993 0.00305 11.775z" style="fill:none;stroke-linecap:round;stroke-linejoin:round;stroke:#ffa442"/><path d="m13.856 52.983 1.6471-1.3618 1.8262 3.7385 1.6651-0.81338-1.8262-3.7385 1.9655-0.40295-5.1705-3.8935z" style="fill:#fff;stroke-linecap:round;stroke-linejoin:round;stroke-width:.2;stroke:#000"/><g transform="matrix(.13591 -.227 .227 .13591 -55.772 67.586)"><path d="m185 157.64-20.627 6.4231 5.2112 8.7039z" style="fill:#0f0;stroke-linecap:round;stroke-linejoin:round;stroke-width:1.8898;stroke:#0f0"/><path d="m174.2 164.03-29.443 17.393" style="fill:#0f0;stroke-linecap:round;stroke-linejoin:round;stroke-width:1.8898;stroke:#0f0"/></g><g transform="matrix(.23336 -.12468 .12468 .23336 -51.216 35.312)"><path d="m183.63 203.52-20.572-6.0284 4.778-8.9428z" style="fill:#f00;stroke-linecap:round;stroke-linejoin:round;stroke-width:1.8898;stroke:#f00"/><path d="m173.54 197.43-28.882-15.871" style="fill:#f00;stroke-linecap:round;stroke-linejoin:round;stroke-width:1.8898;stroke:#f00"/></g><ellipse cx="22.508" cy="52.67" rx="3.4922" ry="3.5636" style="fill:#1f638a;stroke-linecap:round;stroke-linejoin:round;stroke-width:.28199"/><text x="20.962084" y="54.665462" style="fill:#000000;font-family:'Arial Nova', 'Arial Unicode MS', 'Yu Gothic UI', sans-serif;font-size:3.3866px;letter-spacing:0px;line-height:0%;stroke-width:.28223;word-spacing:0px" xml:space="preserve"><tspan x="20.962084" y="54.665462" style="fill:#ffffff;font-family:'Arial Nova', 'Arial Unicode MS', 'Yu Gothic UI', sans-serif;font-size:5.6443px;line-height:1.25;stroke-width:.28223;stroke:#ffffff">3</tspan></text><path d="m115.8 46.603v7.6055l2.5705-1.2659 2.5705 1.2659 4e-3 -7.6055z" style="fill:url(#linearGradient17865);stroke-width:.179;stroke:#7d7d7d"/><g transform="matrix(.36157 0 0 .36136 81.788 -22.55)" style="stroke-width:2.7665"><path d="m32.492 191.48 10.766 0.0369v21.047l7.1093-3.5031 7.1093 3.5031 0.01187-21.047 36.57 1e-5v21.047l7.1093-3.5031 7.1093 3.5031 0.0118-21.047 13.077 0.0595-0.0707 35.403-88.874-0.0962z" style="fill:url(#linearGradient9532);stroke-linecap:round;stroke-linejoin:round;stroke-width:1.3833;stroke:#7d7d7d"/><path transform="matrix(1 .0010829 -.0019967 1 0 0)" d="m32.863 191.44 10.778 0.0258 0.04203 21.047 7.1023-3.5108 7.1163 3.4954-0.03016-21.047 36.569-0.0396 0.04203 21.047 7.1023-3.5108 7.1163 3.4954-0.0302-21.047 13.078 0.0446v35.404h-88.886z" style="fill:url(#pattern9529-8-8-0-2);opacity:.5"/></g><path d="m97.428 46.603 2e-6 7.6055 2.5705-1.2659 2.5705 1.2659 4e-3 -7.6055z" style="fill:url(#linearGradient17867);stroke-width:.179;stroke:#7d7d7d"/><path d="m96.154 41.119h7.7132v-2.543h-7.7321z" style="fill:url(#linearGradient1816);stroke-linecap:round;stroke-linejoin:round;stroke-width:.179;stroke:#502d16"/><path d="m92.277 37.013h15.38l-1.5521 1.5541h-12.304z" style="fill:url(#linearGradient18009-5-4-5);stroke-linecap:round;stroke-linejoin:round;stroke-width:.179;stroke:#502d16"/><path d="m96.417 43.662h7.1771v-2.543h-7.1865z" style="fill:url(#linearGradient1802);stroke-linecap:round;stroke-linejoin:round;stroke-width:.179;stroke:#502d16"/><path d="m97.429 46.655h5.1453v-2.9886h-5.1265z" style="fill:url(#linearGradient1788);stroke-linecap:round;stroke-linejoin:round;stroke-width:.179;stroke:#502d16"/><path d="m94.349 20.989v3.0236l-2.0779 1.2012v11.786h15.394v-11.708l-2.0764-1.2004v-3.0354l2.1418-1.2381h-15.457z" style="fill:url(#linearGradient18011-0-0-29);stroke-linecap:round;stroke-linejoin:round;stroke-width:.179;stroke:#502d16"/><path d="m94.8 20.989c3.3231-1.5543 6.7957-1.5002 10.403 0v3.0369c-4.0282 1.8043-7.3641 1.3805-10.403 0z" style="fill:url(#linearGradient18013-3-6-6);stroke-linecap:round;stroke-linejoin:round;stroke-width:.179;stroke:#502d16"/><path d="m94.8 20.989h10.403v3.0369h-10.403z" style="fill:url(#linearGradient18015-6-0-1);stroke-linecap:round;stroke-linejoin:round;stroke-width:.179;stroke:#502d16"/><path d="m92.385 19.057v-0.97236h15.232v0.98568l-0.44229 0.76708h-14.284z" style="fill:url(#linearGradient18017-6-0-4);stroke-linecap:round;stroke-linejoin:round;stroke-width:.179;stroke:#502d16"/><path d="m92.388 19.057h15.225" style="fill:none;stroke-linecap:round;stroke-linejoin:round;stroke-width:.179;stroke:#502d16"/><ellipse cx="100" cy="31.08" rx="3.0872" ry="3.0913" style="fill:url(#linearGradient18019-1-4-2);opacity:.97;paint-order:normal;stroke-linecap:round;stroke-linejoin:round;stroke-width:.179;stroke:#502d16"/><path d="m97.429 46.655h5.141v7.6056l-2.5705-1.2659-2.5705 1.2659z" style="fill:url(#linearGradient1774);opacity:.97;paint-order:normal;stroke-linecap:round;stroke-linejoin:round;stroke-width:.179;stroke:#502d16"/><path d="m114.53 41.163h7.7134v-2.5431h-7.7322z" style="fill:#00d455;stroke-linecap:round;stroke-linejoin:round;stroke-width:.179;stroke:#052"/><path d="m110.65 37.058h15.38l-1.5521 1.5541h-12.304z" style="fill:#00d455;stroke-linecap:round;stroke-linejoin:round;stroke-width:.179;stroke:#052"/><path d="m114.79 43.707h7.1772v-2.5431h-7.1866z" style="fill:#00d455;stroke-linecap:round;stroke-linejoin:round;stroke-width:.179;stroke:#052"/><path d="m115.8 46.699h5.1455v-2.9886h-5.1263z" style="fill:#00d455;stroke-linecap:round;stroke-linejoin:round;stroke-width:.179;stroke:#052"/><path d="m112.72 21.032v3.0237l-2.0779 1.2013v11.786h15.394v-11.708l-2.0764-1.2004v-3.0354l2.1418-1.2382h-15.457z" style="fill:#00d455;stroke-linecap:round;stroke-linejoin:round;stroke-width:.179;stroke:#052"/><path d="m113.17 21.032c3.3232-1.5544 6.7957-1.5002 10.403 0v3.037c-4.0282 1.8043-7.3641 1.3805-10.403 0z" style="fill:#00d455;stroke-linecap:round;stroke-linejoin:round;stroke-width:.179;stroke:#052"/><path d="m113.17 21.032h10.403v3.037h-10.403z" style="fill:#00d455;stroke-linecap:round;stroke-linejoin:round;stroke-width:.179;stroke:#052"/><path d="m110.76 19.101v-0.97238h15.231v0.98568l-0.4423 0.7671h-14.284z" style="fill:#00d455;stroke-linecap:round;stroke-linejoin:round;stroke-width:.179;stroke:#052"/><path d="m110.76 19.101h15.226" style="fill:#00d455;stroke-linecap:round;stroke-linejoin:round;stroke-width:.179;stroke:#052"/><ellipse cx="118.38" cy="31.121" rx="3.0872" ry="3.0913" style="fill:#00d455;opacity:.97;paint-order:normal;stroke-linecap:round;stroke-linejoin:round;stroke-width:.179;stroke:#052"/><path d="m115.8 46.699h5.1412v7.6055l-2.5705-1.2659-2.5705 1.2659z" style="fill:#00d455;opacity:.97;paint-order:normal;stroke-linecap:round;stroke-linejoin:round;stroke-width:.179;stroke:#052"/><g transform="matrix(.13591 -.227 .227 .13591 64.923 67.451)"><path d="m185 157.64-20.624 6.4215 5.206 8.707c8.2105-7.0026 15.418-15.128 15.418-15.128z" style="fill:#0f0;stroke-linecap:round;stroke-linejoin:round;stroke-width:1.8898;stroke:#0f0"/><path d="m174.2 164.03-29.443 17.393" style="fill:#0f0;stroke-linecap:round;stroke-linejoin:round;stroke-width:1.8898;stroke:#0f0"/></g><g transform="matrix(.23336 -.12468 .12468 .23336 69.479 35.177)"><path d="m183.63 203.52-20.719-6.1073 5.0731-8.7851c8.316 6.877 15.646 14.892 15.646 14.892z" style="fill:#f00;stroke-linecap:round;stroke-linejoin:round;stroke-width:1.8898;stroke:#f00"/><path d="m173.54 197.43-28.882-15.871" style="fill:#f00;stroke-linecap:round;stroke-linejoin:round;stroke-width:1.8898;stroke:#f00"/></g><ellipse cx="132.08" cy="52.29" rx="3.4922" ry="3.5636" style="fill:#1f638a;stroke-linecap:round;stroke-linejoin:round;stroke-width:.28199"/><text x="130.53703" y="54.310268" style="fill:#000000;font-family:'Arial Nova', 'Arial Unicode MS', 'Yu Gothic UI', sans-serif;font-size:3.3866px;letter-spacing:0px;line-height:0%;stroke-width:.28223;word-spacing:0px" xml:space="preserve"><tspan x="130.53703" y="54.310268" style="fill:#ffffff;font-family:'Arial Nova', 'Arial Unicode MS', 'Yu Gothic UI', sans-serif;font-size:5.6443px;line-height:1.25;stroke-width:.28223;stroke:#ffffff">4</tspan></text><ellipse cx="168.33" cy="30.76" rx="3.4922" ry="3.5636" style="fill:#1f638a;stroke-linecap:round;stroke-linejoin:round;stroke-width:.28199"/><text x="166.78058" y="32.718254" style="fill:#000000;font-family:'Arial Nova', 'Arial Unicode MS', 'Yu Gothic UI', sans-serif;font-size:3.3866px;letter-spacing:0px;line-height:0%;stroke-width:.28223;word-spacing:0px" xml:space="preserve"><tspan x="166.78058" y="32.718254" style="fill:#ffffff;font-family:'Arial Nova', 'Arial Unicode MS', 'Yu Gothic UI', sans-serif;font-size:5.6443px;line-height:1.25;stroke-width:.28223;stroke:#ffffff">5</tspan></text><ellipse cx="76.578" cy="11.858" rx="3.4922" ry="3.5636" style="fill:#1f638a;stroke-linecap:round;stroke-linejoin:round;stroke-width:.28199"/><text x="74.943085" y="13.877868" style="fill:#000000;font-family:'Arial Nova', 'Arial Unicode MS', 'Yu Gothic UI', sans-serif;font-size:3.3866px;letter-spacing:0px;line-height:0%;stroke-width:.28223;word-spacing:0px" xml:space="preserve"><tspan x="74.943085" y="13.877868" style="fill:#ffffff;font-family:'Arial Nova', 'Arial Unicode MS', 'Yu Gothic UI', sans-serif;font-size:5.6443px;line-height:1.25;stroke-width:.28223;stroke:#ffffff">I</tspan></text><text x="76.638733" y="13.877868" style="fill:#000000;font-family:'Arial Nova', 'Arial Unicode MS', 'Yu Gothic UI', sans-serif;font-size:3.3866px;letter-spacing:0px;line-height:0%;stroke-width:.28223;word-spacing:0px" xml:space="preserve"><tspan x="76.638733" y="13.877868" style="fill:#ffffff;font-family:'Arial Nova', 'Arial Unicode MS', 'Yu Gothic UI', sans-serif;font-size:5.6443px;line-height:1.25;stroke-width:.28223;stroke:#ffffff">I</tspan></text></svg>
