<?xml version="1.0" encoding="UTF-8"?>
<!-- Created with Inkscape (http://www.inkscape.org/) -->
<svg width="18cm" height="4.5cm" version="1.1" viewBox="0 0 180 45" xmlns="http://www.w3.org/2000/svg" xmlns:xlink="http://www.w3.org/1999/xlink">
 <g transform="matrix(.07718 0 0 .076397 48.928 10.676)" fill="#1f638a" stroke="#1f638a" stroke-linecap="round" stroke-linejoin="round" stroke-width="1.3023">
  <path d="m207.49 126.25 34.17 21.614-34.17 21.614z"/>
  <rect x="172.19" y="137.99" width="39.213" height="19.761"/>
 </g>
 <path d="m54.111 31.834v-7.226h-5.3333v-10.297h-9.5874v4.7199h-15.318v-4.7199h-4.4163v-7.7415h-10.917v7.7415h-4.6271" fill="none" stroke="#000" stroke-linecap="round" stroke-linejoin="round"/>
 <path d="m53.965 32.115h-39.996" stroke="#000" stroke-dasharray="3.032, 0.758, 0.379, 0.758" stroke-linecap="round" stroke-linejoin="round" stroke-width=".379"/>
 <path d="m3.9997 18.992 1.3421 5.5554h-2.6841z" fill="#0f0" stroke="#0f0" stroke-linecap="round" stroke-linejoin="round" stroke-width=".5"/>
 <path d="m3.9872 21.519 0.04629 10.511" fill="#0f0" stroke="#0f0" stroke-linecap="round" stroke-linejoin="round" stroke-width=".5"/>
 <g transform="matrix(.23216 -.12692 .12692 .23216 -167.16 56.635)" fill="#f00" stroke="#f00" stroke-linecap="round" stroke-linejoin="round" stroke-width="1.8898">
  <path d="m651.42 250.5-20.955-5.6764 5.0731-8.7851z"/>
  <path d="m641.09 244.84-28.882-15.871"/>
 </g>
 <text x="15.117064" y="30.694201" fill="#000000" font-family="'Arial Nova', 'Arial Unicode MS', 'Yu Gothic UI', sans-serif" font-size="3.3867px" letter-spacing="0px" stroke-width=".28222" word-spacing="0px" style="line-height:0%" xml:space="preserve"><tspan x="15.117064" y="30.694201" fill="#ff0000" font-family="'Arial Nova', 'Arial Unicode MS', 'Yu Gothic UI', sans-serif" font-size="2.8222px" stroke="#ff0000" stroke-width=".28222" style="line-height:1.25">X</tspan></text>
 <path d="m117.97 31.975v-7.226h-5.3333v-10.297h-9.5874v4.7199h-15.318v-4.7199h-4.4163v-7.7415h-10.917v7.7415h-4.6271" fill="none" stroke="#f00" stroke-linecap="round" stroke-linejoin="round"/>
 <path d="m117.63 32.256h-49.96" stroke="#000" stroke-dasharray="3.032, 0.758, 0.379, 0.758" stroke-linecap="round" stroke-linejoin="round" stroke-width=".379"/>
 <g transform="translate(-113.38 -93.152)" fill="#999" stroke="#000" stroke-linecap="round" stroke-linejoin="round" stroke-width=".1">
  <path d="m121.96 101.41 1.6403-1.6403" color="#000000"/>
  <path d="m123.24 99.414-1.6406 1.6387a0.5 0.5 0 0 0 0 0.70704 0.5 0.5 0 0 0 0.70703 0l1.6406-1.6387a0.5 0.5 0 0 0 0-0.70703 0.5 0.5 0 0 0-0.70703 0z" color="#000000"/>
 </g>
 <g transform="matrix(-1 0 0 1 176.12 -75.202)" fill="#999" stroke="#000" stroke-linecap="round" stroke-linejoin="round" stroke-width=".1">
  <path d="m121.96 101.41 1.6403-1.6403" color="#000000"/>
  <path d="m123.24 99.414-1.6406 1.6387a0.5 0.5 0 0 0 0 0.70704 0.5 0.5 0 0 0 0.70703 0l1.6406-1.6387a0.5 0.5 0 0 0 0-0.70703 0.5 0.5 0 0 0-0.70703 0z" color="#000000"/>
 </g>
 <g transform="matrix(-1 0 0 1 170.8 -85.513)" fill="#999" stroke="#000" stroke-linecap="round" stroke-linejoin="round" stroke-width=".1">
  <path d="m121.96 101.41 1.6403-1.6403" color="#000000"/>
  <path d="m123.24 99.414-1.6406 1.6387a0.5 0.5 0 0 0 0 0.70704 0.5 0.5 0 0 0 0.70703 0l1.6406-1.6387a0.5 0.5 0 0 0 0-0.70703 0.5 0.5 0 0 0-0.70703 0z" color="#000000"/>
 </g>
 <g transform="matrix(-1 0 0 1 141.42 -93.18)" fill="#999" stroke="#000" stroke-linecap="round" stroke-linejoin="round" stroke-width=".1">
  <path d="m121.96 101.41 1.6403-1.6403" color="#000000"/>
  <path d="m123.24 99.414-1.6406 1.6387a0.5 0.5 0 0 0 0 0.70704 0.5 0.5 0 0 0 0.70703 0l1.6406-1.6387a0.5 0.5 0 0 0 0-0.70703 0.5 0.5 0 0 0-0.70703 0z" color="#000000"/>
 </g>
 <g transform="translate(-82.825 -85.506)" fill="#999" stroke="#000" stroke-linecap="round" stroke-linejoin="round" stroke-width=".1">
  <path d="m121.96 101.41 1.6403-1.6403" color="#000000"/>
  <path d="m123.24 99.414-1.6406 1.6387a0.5 0.5 0 0 0 0 0.70704 0.5 0.5 0 0 0 0.70703 0l1.6406-1.6387a0.5 0.5 0 0 0 0-0.70703 0.5 0.5 0 0 0-0.70703 0z" color="#000000"/>
 </g>
 <path d="m23.845 16.408a0.5 0.5 0 0 0-0.5 0.5c0 0.70263 0.27856 1.3782 0.77539 1.875 0.49684 0.49684 1.1724 0.77539 1.875 0.77539a0.5 0.5 0 0 0 0.5-0.5 0.5 0.5 0 0 0-0.5-0.5c-0.43779 0-0.85839-0.17285-1.168-0.48242s-0.48243-0.73017-0.48243-1.168a0.5 0.5 0 0 0-0.5-0.5z" color="#000000" fill="#999" stroke="#000" stroke-linecap="round" stroke-linejoin="round" stroke-width=".1"/>
 <path d="m19.505 11.609a0.5 0.5 0 0 0-0.5 0.5c0 0.70263 0.27856 1.3782 0.77539 1.875 0.49684 0.49683 1.1724 0.77539 1.875 0.77539a0.5 0.5 0 0 0 0.5-0.5 0.5 0.5 0 0 0-0.5-0.5c-0.43779 0-0.85839-0.17285-1.168-0.48243-0.30957-0.30957-0.48243-0.73016-0.48243-1.168a0.5 0.5 0 0 0-0.5-0.5z" color="#000000" fill="#999" stroke="#000" stroke-linecap="round" stroke-linejoin="round" stroke-width=".1"/>
 <path d="m8.5448 11.678a0.5 0.5 0 0 1 0.5 0.5c0 0.70263-0.27856 1.3782-0.77539 1.875-0.49684 0.49684-1.1724 0.77539-1.875 0.77539a0.5 0.5 0 0 1-0.5-0.5 0.5 0.5 0 0 1 0.5-0.5c0.43779 0 0.85839-0.17285 1.168-0.48242 0.30961-0.30957 0.48243-0.73017 0.48243-1.168a0.5 0.5 0 0 1 0.5-0.5z" color="#000000" fill="#999" stroke="#000" stroke-linecap="round" stroke-linejoin="round" stroke-width=".1"/>
 <path d="m39.205 16.378a0.5 0.5 0 0 1 0.5 0.5c0 0.70263-0.27856 1.3782-0.77539 1.875-0.49684 0.49683-1.1724 0.77539-1.875 0.77539a0.5 0.5 0 0 1-0.5-0.5 0.5 0.5 0 0 1 0.5-0.5c0.43779 0 0.85839-0.17285 1.168-0.48243 0.30957-0.30957 0.48243-0.73016 0.48243-1.168a0.5 0.5 0 0 1 0.5-0.5z" color="#000000" fill="#999" stroke="#000" stroke-linecap="round" stroke-linejoin="round" stroke-width=".1"/>
 <path d="m48.766 21.978a0.5 0.5 0 0 0-0.5 0.5c0 0.70263 0.27856 1.3782 0.77539 1.875 0.49684 0.49684 1.1724 0.77539 1.875 0.77539a0.5 0.5 0 0 0 0.5-0.5 0.5 0.5 0 0 0-0.5-0.5c-0.43779 0-0.85839-0.17285-1.168-0.48242s-0.48243-0.73017-0.48243-1.168a0.5 0.5 0 0 0-0.5-0.5z" color="#000000" fill="#999" stroke="#000" stroke-linecap="round" stroke-linejoin="round" stroke-width=".1"/>
 <g transform="translate(-49.499 -92.915)" fill="#ffd5d5" stroke="#f00" stroke-linecap="round" stroke-linejoin="round" stroke-width=".1">
  <path d="m121.96 101.41 1.6403-1.6403" color="#000000"/>
  <path d="m123.24 99.414-1.6406 1.6387a0.5 0.5 0 0 0 0 0.70704 0.5 0.5 0 0 0 0.70703 0l1.6406-1.6387a0.5 0.5 0 0 0 0-0.70703 0.5 0.5 0 0 0-0.70703 0z" color="#000000"/>
 </g>
 <g transform="matrix(-1 0 0 1 240 -74.966)" fill="#ffd5d5" stroke="#f00" stroke-linecap="round" stroke-linejoin="round" stroke-width=".1">
  <path d="m121.96 101.41 1.6403-1.6403" color="#000000"/>
  <path d="m123.24 99.414-1.6406 1.6387a0.5 0.5 0 0 0 0 0.70704 0.5 0.5 0 0 0 0.70703 0l1.6406-1.6387a0.5 0.5 0 0 0 0-0.70703 0.5 0.5 0 0 0-0.70703 0z" color="#000000"/>
 </g>
 <g transform="matrix(-1 0 0 1 234.68 -85.277)" fill="#ffd5d5" stroke="#f00" stroke-linecap="round" stroke-linejoin="round" stroke-width=".1">
  <path d="m121.96 101.41 1.6403-1.6403" color="#000000"/>
  <path d="m123.24 99.414-1.6406 1.6387a0.5 0.5 0 0 0 0 0.70704 0.5 0.5 0 0 0 0.70703 0l1.6406-1.6387a0.5 0.5 0 0 0 0-0.70703 0.5 0.5 0 0 0-0.70703 0z" color="#000000"/>
 </g>
 <g transform="matrix(-1 0 0 1 205.3 -92.943)" fill="#ffd5d5" stroke="#f00" stroke-linecap="round" stroke-linejoin="round" stroke-width=".1">
  <path d="m121.96 101.41 1.6403-1.6403" color="#000000"/>
  <path d="m123.24 99.414-1.6406 1.6387a0.5 0.5 0 0 0 0 0.70704 0.5 0.5 0 0 0 0.70703 0l1.6406-1.6387a0.5 0.5 0 0 0 0-0.70703 0.5 0.5 0 0 0-0.70703 0z" color="#000000"/>
 </g>
 <g transform="translate(-18.941 -85.27)" fill="#ffd5d5" stroke="#f00" stroke-linecap="round" stroke-linejoin="round" stroke-width=".1">
  <path d="m121.96 101.41 1.6403-1.6403" color="#000000"/>
  <path d="m123.24 99.414-1.6406 1.6387a0.5 0.5 0 0 0 0 0.70704 0.5 0.5 0 0 0 0.70703 0l1.6406-1.6387a0.5 0.5 0 0 0 0-0.70703 0.5 0.5 0 0 0-0.70703 0z" color="#000000"/>
 </g>
 <path d="m87.729 16.644a0.5 0.5 0 0 0-0.5 0.5c0 0.70263 0.27856 1.3782 0.77538 1.875 0.49684 0.49684 1.1724 0.77539 1.875 0.77539a0.5 0.5 0 0 0 0.5-0.5 0.5 0.5 0 0 0-0.5-0.5c-0.43779 0-0.85839-0.17285-1.168-0.48242-0.30961-0.30957-0.48243-0.73017-0.48243-1.168a0.5 0.5 0 0 0-0.5-0.5z" color="#000000" fill="#ffd5d5" stroke="#f00" stroke-linecap="round" stroke-linejoin="round" stroke-width=".1"/>
 <path d="m83.389 11.845a0.5 0.5 0 0 0-0.5 0.5c0 0.70263 0.27856 1.3782 0.77538 1.875 0.49684 0.49683 1.1724 0.77539 1.875 0.77539a0.5 0.5 0 0 0 0.5-0.5 0.5 0.5 0 0 0-0.5-0.5c-0.43779 0-0.85839-0.17285-1.168-0.48243-0.30957-0.30957-0.48243-0.73016-0.48243-1.168a0.5 0.5 0 0 0-0.5-0.5z" color="#000000" fill="#ffd5d5" stroke="#f00" stroke-linecap="round" stroke-linejoin="round" stroke-width=".1"/>
 <path d="m72.429 11.914a0.5 0.5 0 0 1 0.5 0.5c0 0.70263-0.27856 1.3782-0.77539 1.875-0.49684 0.49684-1.1724 0.77539-1.875 0.77539a0.5 0.5 0 0 1-0.5-0.5 0.5 0.5 0 0 1 0.5-0.5c0.43779 0 0.85838-0.17285 1.168-0.48242 0.30961-0.30957 0.48243-0.73017 0.48243-1.168a0.5 0.5 0 0 1 0.5-0.5z" color="#000000" fill="#ffd5d5" stroke="#f00" stroke-linecap="round" stroke-linejoin="round" stroke-width=".1"/>
 <path d="m103.09 16.615a0.5 0.5 0 0 1 0.5 0.5c0 0.70263-0.27856 1.3782-0.77539 1.875-0.49684 0.49683-1.1724 0.77539-1.875 0.77539a0.5 0.5 0 0 1-0.5-0.5 0.5 0.5 0 0 1 0.5-0.5c0.43779 0 0.85839-0.17285 1.168-0.48243 0.30957-0.30957 0.48243-0.73016 0.48243-1.168a0.5 0.5 0 0 1 0.5-0.5z" color="#000000" fill="#ffd5d5" stroke="#f00" stroke-linecap="round" stroke-linejoin="round" stroke-width=".1"/>
 <path d="m112.65 22.215a0.5 0.5 0 0 0-0.5 0.5c0 0.70263 0.27856 1.3782 0.77539 1.875 0.49684 0.49684 1.1724 0.77539 1.875 0.77539a0.5 0.5 0 0 0 0.5-0.5 0.5 0.5 0 0 0-0.5-0.5c-0.43779 0-0.85839-0.17285-1.168-0.48242s-0.48243-0.73017-0.48243-1.168a0.5 0.5 0 0 0-0.5-0.5z" color="#000000" fill="#ffd5d5" stroke="#f00" stroke-linecap="round" stroke-linejoin="round" stroke-width=".1"/>
 <g transform="matrix(.07718 0 0 .076397 107.67 10.676)" fill="#1f638a" stroke="#1f638a" stroke-linecap="round" stroke-linejoin="round" stroke-width="1.3023">
  <path d="m207.49 126.25 34.17 21.614-34.17 21.614z"/>
  <rect x="172.19" y="137.99" width="39.213" height="19.761"/>
 </g>
 <path d="m177.24 31.975v-5.5414m-1.6951-1.6846h-1.5565m-2.0817-1.9717v-6.75m-1.5464-1.5753h-6.5812m-1.4597 1.5613v1.2656m-2.0278 1.893h-11.278m-2.0121-2.0055v-2.7144h-2.2488m-2.1675-2.109v-3.9375m-1.6709-1.695h-7.4161m-1.83 1.9354v3.8707m-2.0046 1.9354h-2.6225" fill="none" stroke="#000" stroke-linecap="round" stroke-linejoin="round"/>
 <path d="m177.21 32.256h-50.276" stroke="#000" stroke-dasharray="3.032, 0.758, 0.379, 0.758" stroke-linecap="round" stroke-linejoin="round" stroke-width=".379"/>
 <g transform="translate(9.7677 -92.995)" fill="#fff" stroke="#000" stroke-linecap="round" stroke-linejoin="round" stroke-width=".1">
  <path d="m121.96 101.41 1.6403-1.6403" color="#000000"/>
  <path d="m123.24 99.414-1.6406 1.6387a0.5 0.5 0 0 0 0 0.70704 0.5 0.5 0 0 0 0.70703 0l1.6406-1.6387a0.5 0.5 0 0 0 0-0.70703 0.5 0.5 0 0 0-0.70703 0z" color="#000000"/>
 </g>
 <g transform="matrix(-1 0 0 1 299.13 -74.966)" fill="#fff" stroke="#000" stroke-linecap="round" stroke-linejoin="round" stroke-width=".1">
  <path d="m121.96 101.41 1.6403-1.6403" color="#000000"/>
  <path d="m123.24 99.414-1.6406 1.6387a0.5 0.5 0 0 0 0 0.70704 0.5 0.5 0 0 0 0.70703 0l1.6406-1.6387a0.5 0.5 0 0 0 0-0.70703 0.5 0.5 0 0 0-0.70703 0z" color="#000000"/>
 </g>
 <g transform="matrix(-1 0 0 1 293.85 -85.333)" fill="#fff" stroke="#000" stroke-linecap="round" stroke-linejoin="round" stroke-width=".1">
  <path d="m121.96 101.41 1.6403-1.6403" color="#000000"/>
  <path d="m123.24 99.414-1.6406 1.6387a0.5 0.5 0 0 0 0 0.70704 0.5 0.5 0 0 0 0.70703 0l1.6406-1.6387a0.5 0.5 0 0 0 0-0.70703 0.5 0.5 0 0 0-0.70703 0z" color="#000000"/>
 </g>
 <g transform="matrix(-1 0 0 1 264.57 -93.003)" fill="#fff" stroke="#000" stroke-linecap="round" stroke-linejoin="round" stroke-width=".1">
  <path d="m121.96 101.41 1.6403-1.6403" color="#000000"/>
  <path d="m123.24 99.414-1.6406 1.6387a0.5 0.5 0 0 0 0 0.70704 0.5 0.5 0 0 0 0.70703 0l1.6406-1.6387a0.5 0.5 0 0 0 0-0.70703 0.5 0.5 0 0 0-0.70703 0z" color="#000000"/>
 </g>
 <g transform="translate(40.311 -85.284)" fill="#fff" stroke="#000" stroke-linecap="round" stroke-linejoin="round" stroke-width=".1">
  <path d="m121.96 101.41 1.6403-1.6403" color="#000000"/>
  <path d="m123.24 99.414-1.6406 1.6387a0.5 0.5 0 0 0 0 0.70704 0.5 0.5 0 0 0 0.70703 0l1.6406-1.6387a0.5 0.5 0 0 0 0-0.70703 0.5 0.5 0 0 0-0.70703 0z" color="#000000"/>
 </g>
 <path d="m147 16.574a0.5 0.5 0 0 0-0.5 0.5c0 0.70263 0.27856 1.3782 0.77539 1.875 0.49684 0.49684 1.1724 0.77539 1.875 0.77539a0.5 0.5 0 0 0 0.5-0.5 0.5 0.5 0 0 0-0.5-0.5c-0.43779 0-0.85839-0.17285-1.168-0.48242s-0.48243-0.73017-0.48243-1.168a0.5 0.5 0 0 0-0.5-0.5z" color="#000000" fill="#fff" stroke="#000" stroke-linecap="round" stroke-linejoin="round" stroke-width=".1"/>
 <path d="m142.66 11.845a0.5 0.5 0 0 0-0.5 0.5c0 0.70263 0.27856 1.3782 0.77539 1.875 0.49684 0.49683 1.1724 0.77539 1.875 0.77539a0.5 0.5 0 0 0 0.5-0.5 0.5 0.5 0 0 0-0.5-0.5c-0.43779 0-0.85839-0.17285-1.168-0.48243-0.30957-0.30957-0.48243-0.73016-0.48243-1.168a0.5 0.5 0 0 0-0.5-0.5z" color="#000000" fill="#fff" stroke="#000" stroke-linecap="round" stroke-linejoin="round" stroke-width=".1"/>
 <path d="m131.7 11.834a0.5 0.5 0 0 1 0.5 0.5c0 0.70263-0.27856 1.3782-0.77539 1.875-0.49684 0.49684-1.1724 0.77539-1.875 0.77539a0.5 0.5 0 0 1-0.5-0.5 0.5 0.5 0 0 1 0.5-0.5c0.43779 0 0.85839-0.17285 1.168-0.48242s0.48243-0.73017 0.48243-1.168a0.5 0.5 0 0 1 0.5-0.5z" color="#000000" fill="#fff" stroke="#000" stroke-linecap="round" stroke-linejoin="round" stroke-width=".1"/>
 <path d="m162.36 16.615a0.5 0.5 0 0 1 0.5 0.5c0 0.70263-0.27856 1.3782-0.77539 1.875-0.49684 0.49683-1.1724 0.77539-1.875 0.77539a0.5 0.5 0 0 1-0.5-0.5 0.5 0.5 0 0 1 0.5-0.5c0.43779 0 0.85839-0.17285 1.168-0.48243 0.30957-0.30957 0.48243-0.73016 0.48243-1.168a0.5 0.5 0 0 1 0.5-0.5z" color="#000000" fill="#fff" stroke="#000" stroke-linecap="round" stroke-linejoin="round" stroke-width=".1"/>
 <path d="m171.92 22.13a0.5 0.5 0 0 0-0.5 0.5c0 0.70263 0.27856 1.3782 0.77539 1.875 0.49684 0.49684 1.1724 0.77539 1.875 0.77539a0.5 0.5 0 0 0 0.5-0.5 0.5 0.5 0 0 0-0.5-0.5c-0.43779 0-0.85839-0.17285-1.168-0.48242s-0.48243-0.73017-0.48243-1.168a0.5 0.5 0 0 0-0.5-0.5z" color="#000000" fill="#fff" stroke="#000" stroke-linecap="round" stroke-linejoin="round" stroke-width=".1"/>
 <path d="m1.7323 3.9399v31.598h55.099v-31.598z" fill="none" stroke="#000" stroke-linecap="round" stroke-linejoin="round" stroke-width=".2"/>
 <path d="m2.3122 3.5782c5.3555-6.9647 69.203 0.097659 56.085 27.768" fill="none" stroke="#000" stroke-dasharray="0.282, 0.564" stroke-width=".282"/>
 <path d="m56.719 35.545 2.9308-3.8234-2.8025-0.8049z" fill="none" stroke="#000" stroke-dasharray="0.282, 0.282" stroke-width=".282"/>
 <path d="m56.612 42.015 1.6471-1.3618 1.8262 3.7385 1.6651-0.8134-1.8262-3.7385 1.9655-0.40296-5.1705-3.8935z" fill="#fff" stroke="#000" stroke-linecap="round" stroke-linejoin="round" stroke-width=".2"/>
 <ellipse cx="66.313" cy="40.24" rx="3.4922" ry="3.5636" fill="#1f638a" stroke-linecap="round" stroke-linejoin="round" stroke-width=".28199"/>
 <text x="64.76754" y="42.269764" fill="#000000" font-family="'Arial Nova', 'Arial Unicode MS', 'Yu Gothic UI', sans-serif" font-size="3.3866px" letter-spacing="0px" stroke-width=".28223" word-spacing="0px" style="line-height:0%" xml:space="preserve"><tspan x="64.76754" y="42.269764" fill="#ffffff" font-family="'Arial Nova', 'Arial Unicode MS', 'Yu Gothic UI', sans-serif" font-size="5.6443px" stroke="#ffffff" stroke-width=".28223" style="line-height:1.25">1</tspan></text>
</svg>
