<?xml version="1.0" encoding="UTF-8"?>
<svg width="18cm" height="6cm" version="1.1" xmlns="http://www.w3.org/2000/svg" xmlns:xlink="http://www.w3.org/1999/xlink">
 <defs>
  <linearGradient id="linearGradient10628">
   <stop style="stop-color:#fff" offset="0"/>
   <stop style="stop-color:#4fa68a" offset="1"/>
  </linearGradient>
  <linearGradient id="linearGradient12605" x1="362.98" x2="619.67" y1="939.88" y2="939.88" gradientUnits="userSpaceOnUse" xlink:href="#linearGradient10628"/>
  <linearGradient id="linearGradient12619" x1="18.011" x2="274.7" y1="964.61" y2="964.61" gradientUnits="userSpaceOnUse" xlink:href="#linearGradient10628"/>
  <linearGradient id="linearGradient592" x1="362.98" x2="619.67" y1="939.88" y2="939.88" gradientTransform="matrix(1.0667 0 0 1.0667 0 782.36)" gradientUnits="userSpaceOnUse" xlink:href="#linearGradient10628"/>
  <linearGradient id="linearGradient594" x1="362.98" x2="619.67" y1="939.88" y2="939.88" gradientTransform="scale(1.0667)" gradientUnits="userSpaceOnUse" xlink:href="#linearGradient10628"/>
  <linearGradient id="linearGradient598" x1="18.011" x2="274.7" y1="964.61" y2="964.61" gradientTransform="scale(1.0667)" gradientUnits="userSpaceOnUse" xlink:href="#linearGradient10628"/>
 </defs>
 <g transform="translate(0 -895.75)">
  <path d="m624.33 1003.3-54.483-31.401-145.73 84.005 54.751 31.67z" style="color:#000000;fill:#739ba5;stroke-linecap:round;stroke-linejoin:round;stroke-miterlimit:10;stroke-width:1.4324;stroke:#16434a"/>
  <g transform="translate(0,8)" style="fill:url(#linearGradient12605)">
   <path d="m569.4 902.56-181.7 105.17 90.967 52.7 181.83-105.1zm0.46667 20.1 54.467 31.4-145.47 84.267-54.767-31.667z" style="color:#000000;fill-rule:evenodd;fill:url(#linearGradient592);stroke-linecap:round;stroke-linejoin:round;stroke-miterlimit:10;stroke-width:.94488;stroke:#67977f"/>
   <path d="m387.65 1049.3 90.937 52.69 9e-3 -41.656-90.937-52.69z" style="color:#000000;fill-rule:evenodd;fill:url(#linearGradient594);stroke-linecap:round;stroke-linejoin:round;stroke-miterlimit:10;stroke-width:.94488;stroke:#67977f"/>
   <path d="m478.65 1102.5 181.85-105.11v-42.083l-181.85 105.11z" style="color:#000000;fill-rule:evenodd;fill:url(#linearGradient594);stroke-linecap:round;stroke-linejoin:round;stroke-miterlimit:10;stroke-width:.94488;stroke:#67977f"/>
  </g>
  <path d="m459.94 1035.3 110.05-63.308v-42.036l-145.47 84.487" style="color:#000000;fill:#739ba5;stroke-linecap:round;stroke-linejoin:round;stroke-miterlimit:10;stroke-width:1.4324;stroke:#16434a"/>
  <path d="m588.91 982.85-18.922-10.838v-42.036l54.479 31.344" style="color:#000000;fill:#739ba5;stroke-linecap:round;stroke-linejoin:round;stroke-miterlimit:10;stroke-width:1.4324;stroke:#16434a"/>
  <g transform="translate(-775.4 -136.79)">
   <path d="m794.67 1194.3 182.48-104.76 90.286 52.952" style="color:#000000;fill:none;opacity:.75;stroke-dasharray:0.75590554, 0.75590554;stroke-linecap:round;stroke-linejoin:round;stroke-miterlimit:10;stroke-width:.37795;stroke:#5eab9d"/>
   <path d="m977.16 1089.8v-42.022" style="color:#000000;fill:none;opacity:.75;stroke-dasharray:0.75590554, 0.75590554;stroke-linecap:round;stroke-linejoin:round;stroke-miterlimit:10;stroke-width:.37795;stroke:#5eab9d"/>
  </g>
  <path d="m55.902 1058 54.483 31.401 145.73-84.005-54.751-31.67z" style="color:#000000;fill-opacity:.4876;fill:#ffe6e6;stroke-dasharray:1.35307081, 1.35307081;stroke-linecap:round;stroke-linejoin:round;stroke-miterlimit:10;stroke-width:.67654;stroke:#f00"/>
  <path d="m110.76 1046.9v42.137" style="color:#000000;fill:none;stroke-dasharray:1.35307081, 1.35307081;stroke-linecap:round;stroke-linejoin:round;stroke-miterlimit:10;stroke-width:.67654;stroke:#f00"/>
  <path d="m55.613 1015.6v42.036l145.87-83.814v-42.137" style="color:#000000;fill-opacity:.4876;fill:#fff3f3;stroke-dasharray:1.35307087, 1.35307087;stroke-linecap:round;stroke-linejoin:round;stroke-miterlimit:10;stroke-width:.67654;stroke:#f00"/>
  <path d="m255.99 963.44v42.036l-54.479-31.344v-42.003" style="color:#000000;fill-opacity:.4876;fill:#fff3f3;stroke-dasharray:1.35307087, 1.35307087;stroke-linecap:round;stroke-linejoin:round;stroke-miterlimit:10;stroke-width:.67654;stroke:#f00"/>
  <g transform="translate(0,8)" style="fill:url(#linearGradient12619)">
   <path d="m19.684 1049.3 90.937 52.69 9e-3 -41.656-90.937-52.69z" style="color:#000000;fill-rule:evenodd;fill:url(#linearGradient598);opacity:.75627;stroke-linecap:round;stroke-linejoin:round;stroke-miterlimit:10;stroke-width:.94488;stroke:#67977f"/>
   <path d="m110.68 1102.5 181.85-105.11v-42.083l-181.85 105.11z" style="color:#000000;fill-rule:evenodd;fill:url(#linearGradient598);opacity:.75627;stroke-linecap:round;stroke-linejoin:round;stroke-miterlimit:10;stroke-width:.94488;stroke:#67977f"/>
  </g>
  <path d="m19.746 1015.6 90.937 52.69 181.85-105.11-91.117-52.759z" style="color:#000000;fill-opacity:.3278;fill-rule:evenodd;fill:#b2d8cc;stroke-linecap:round;stroke-linejoin:round;stroke-miterlimit:10;stroke-width:.94488;stroke:#67977f"/>
  <path d="m154.97 991.05v41.216" style="color:#000000;fill-rule:evenodd;fill:#008000;stroke-dasharray:1.51181099, 0.7559055;stroke-linecap:round;stroke-linejoin:round;stroke-miterlimit:10;stroke-width:.37795;stroke:#008000"/>
  <path d="m280.96 1006.1 4.1905 12.571h-8.7619z" style="stroke-linecap:round;stroke-linejoin:round;stroke-width:1.0658;stroke:#000"/>
  <path d="m280.96 947.73v73.222" style="stroke-linecap:round;stroke-linejoin:round;stroke-width:.94488;stroke:#000"/>
  <path d="m281.15 962.08 4.1905-12.572h-8.7619z" style="stroke-linecap:round;stroke-linejoin:round;stroke-width:1.0658;stroke:#000"/>
  <path d="m285.6 962.82h-27.997" style="stroke-linecap:round;stroke-linejoin:round;stroke-width:.75591;stroke:#000"/>
  <path d="m286.54 1005.7h-29.833" style="stroke-linecap:round;stroke-linejoin:round;stroke-width:.75591;stroke:#000"/>
  <g transform="translate(74.477 672.02)">
   <ellipse cx="230.42" cy="311.21" rx="13.199" ry="13.469" style="fill:#1f638a;stroke-linecap:round;stroke-linejoin:round;stroke-width:1.0658"/>
   <text x="224.84752" y="318.87271" style="fill:#000000;font-family:'Arial Nova', 'Arial Unicode MS', 'Yu Gothic UI', sans-serif;font-size:12.8px;letter-spacing:0px;line-height:0%;stroke-width:1.0667;word-spacing:0px" xml:space="preserve"><tspan x="224.84752" y="318.87271" style="fill:#ffffff;font-family:'Arial Nova', 'Arial Unicode MS', 'Yu Gothic UI', sans-serif;font-size:21.333px;font-weight:bold;stroke-width:1.0667">3</tspan></text>
  </g>
  <g transform="matrix(.29168 -.0036683 .0036311 .28872 292.54 945.28)" style="fill:#1f638a;stroke-linecap:round;stroke-linejoin:round;stroke-width:1.2209;stroke:#1f638a">
   <path d="m207.49 126.25 34.17 21.614-34.17 21.614z" style="fill:#1f638a;stroke-linecap:round;stroke-linejoin:round;stroke-width:1.3023;stroke:#1f638a"/>
   <rect x="172.19" y="137.99" width="39.213" height="19.761" style="fill:#1f638a;stroke-linecap:round;stroke-linejoin:round;stroke-width:1.3023;stroke:#1f638a"/>
  </g>
  <path d="m56.282 1015.8 54.483 31.401 145.73-84.005" style="color:#000000;fill:none;stroke-linecap:round;stroke-linejoin:round;stroke-miterlimit:10;stroke-width:1.8898;stroke:#f00"/>
  <rect x="149.9" y="1024.9" width="10.319" height="10.319" style="fill:#008000;stroke-linecap:round;stroke-linejoin:round;stroke-width:.75591;stroke:#008000"/>
  <path d="m56.282 1015.8 54.483 31.401 145.73-84.005-54.751-31.67z" style="color:#000000;fill:none;stroke-linecap:round;stroke-linejoin:round;stroke-miterlimit:10;stroke-width:1.8898;stroke:#f00"/>
 </g>
</svg>
