<?xml version="1.0" encoding="UTF-8"?>
<!-- Created with Inkscape (http://www.inkscape.org/) -->
<svg width="18cm" height="6cm" version="1.1" viewBox="0 0 180 60" xmlns="http://www.w3.org/2000/svg" xmlns:cc="http://creativecommons.org/ns#" xmlns:dc="http://purl.org/dc/elements/1.1/" xmlns:rdf="http://www.w3.org/1999/02/22-rdf-syntax-ns#" xmlns:xlink="http://www.w3.org/1999/xlink">
 <defs>
  <linearGradient id="linearGradient8702">
   <stop stop-color="#0505ff" offset="0"/>
   <stop stop-color="#fff" offset="1"/>
  </linearGradient>
  <linearGradient id="linearGradient8877" x1="1.5529" x2="10.19" y1="73.302" y2="134.72" gradientUnits="userSpaceOnUse" xlink:href="#linearGradient7747-2-1"/>
  <linearGradient id="linearGradient7747-2-1">
   <stop stop-color="#fff" offset="0"/>
   <stop stop-color="#808080" offset="1"/>
  </linearGradient>
  <linearGradient id="linearGradient9043" x1="38.382" x2="37.014" y1="118.25" y2="73.356" gradientUnits="userSpaceOnUse" xlink:href="#linearGradient8702"/>
  <linearGradient id="linearGradient9058" x1="44.781" x2="63.934" y1="77.95" y2="132.42" gradientUnits="userSpaceOnUse" xlink:href="#linearGradient8702"/>
  <linearGradient id="linearGradient9097" x1="-3.1846" x2="72.921" y1="97.169" y2="97.169" gradientUnits="userSpaceOnUse" xlink:href="#linearGradient8702"/>
 </defs>
 <metadata>
  <rdf:RDF>
   <cc:Work rdf:about="">
    <dc:format>image/svg+xml</dc:format>
    <dc:type rdf:resource="http://purl.org/dc/dcmitype/StillImage"/>
    <dc:title/>
   </cc:Work>
  </rdf:RDF>
 </metadata>
 <g transform="translate(0 -237)">
  <g fill="#af0000" stroke="#7d7d7d" stroke-linecap="round" stroke-linejoin="round" stroke-width=".379">
   <path d="m13.75 277.94c0.84482-0.52855 1.4846-1.4889 1.6764-2.849l-6.0842-3.4853c-0.21581 1.237-0.74319 2.195-1.6908 2.7767z"/>
   <path d="m13.75 277.94c2.9121 1.7111 7.5876 1.4099 9.9717 0.0289-1.1769-0.67826-1.5466-1.7455-1.6908-2.9213-2.2206 1.1051-4.4224 1.1365-6.6044 0.0434-0.19512 1.3338-0.78795 2.2476-1.6764 2.849z"/>
   <path d="m23.722 277.97 13.399-7.7638c-0.99963-0.6669-1.5618-1.617-1.635-2.8838l-13.455 7.7262c0.1693 1.223 0.49777 2.3454 1.6908 2.9213z"/>
   <path d="m37.12 270.21c9.3111-5.3103 23.635-4.7542 31.965 0.92325l0.10167-3.807c-10.88-5.798-24.101-5.1459-33.702 0 0.0928 1.3351 0.65594 2.2814 1.635 2.8838z"/>
   <path d="m69.086 271.13 10.145-5.8427c-1.058-0.60799-1.5656-1.5915-1.7776-2.7767l-8.2659 4.8123z"/>
  </g>
  <g transform="translate(8.8978 170.15)" fill="url(#linearGradient9058)" stroke="#7d7d7d" stroke-linecap="round" stroke-linejoin="round" stroke-width=".379">
   <path d="m0.83585 95.546 5.8806 3.4083-0.18787 5.9873-6.0842-3.4853z"/>
   <path d="m13.133 104.9-0.20233-5.9583c-2.4584 1.2122-4.4059 0.83036-6.2142 0.0144l-0.18787 5.9873c1.881 0.9308 3.9935 1.1787 6.6044-0.0434z"/>
   <path d="m13.133 104.9 13.455-7.7262-0.20438-6.0334-13.452 7.8013z"/>
   <path d="m60.29 97.172-0.0204-6.1664c-12.065-6.1578-24.751-4.4163-33.886 0.13294l0.20438 6.0334c10.764-5.8824 24.843-4.9131 33.702 0z"/>
   <path d="m60.29 97.172 8.2659-4.8123-0.39155-5.9359-7.8948 4.5818z"/>
  </g>
  <g transform="translate(8.8978 170.15)" fill="url(#linearGradient9097)" stroke="#7d7d7d" stroke-linecap="round" stroke-linejoin="round" stroke-width=".379">
   <path d="m0.83585 95.546 41.54-24.011 25.788 14.889-7.8948 4.5818c-9.1431-4.8873-22.364-5.769-33.894 0.15318l-13.46 7.7823c-2.029 1.0365-4.3682 0.96754-6.1722 0.0204z"/>
   <path d="m72.732 96.51-2.399-1.3739-10.145 5.8426c-9.3746-5.986-23.448-5.9605-31.965-0.92325l-13.399 7.7638c-3.3497 1.745-7.4364 1.2999-9.9717-0.0289l-6.0986-3.5576-1.7487 1.0123 30.291 17.557z"/>
  </g>
  <g transform="translate(92.574 171.53)" stroke-linecap="round" stroke-linejoin="round">
   <g transform="translate(32.657 -.75595)" fill="url(#linearGradient8877)" stroke="#7d7d7d" stroke-width=".379">
    <path d="m-23.342 94.925 41.54-24.011 25.788 14.889-7.8948 4.5818c-9.1431-4.8873-22.364-5.769-33.894 0.15318l-13.46 7.7823c-2.029 1.0365-4.3682 0.96754-6.1722 0.0204z"/>
    <path d="m-23.342 94.925 5.8806 3.4083-0.18787 5.9873-6.0842-3.4853z"/>
    <path d="m-19.325 107.17c0.84482-0.52855 1.4846-1.4889 1.6764-2.849l-6.0842-3.4853c-0.21581 1.237-0.74319 2.195-1.6908 2.7767z"/>
    <path d="m-11.045 104.28-0.20233-5.9583c-2.4584 1.2122-4.4059 0.83036-6.2142 0.0144l-0.18787 5.9873c1.881 0.9308 3.9935 1.1787 6.6044-0.0434z"/>
    <path d="m-19.325 107.17c2.9121 1.7111 7.5876 1.4099 9.9717 0.0289-1.1769-0.67826-1.5466-1.7455-1.6908-2.9213-2.2206 1.1051-4.4224 1.1365-6.6044 0.0434-0.19512 1.3338-0.78795 2.2476-1.6764 2.849z"/>
    <path d="m-11.045 104.28 13.455-7.7262-0.20438-6.0334-13.452 7.8013z"/>
    <path d="m-9.3538 107.2 13.399-7.7638c-0.99963-0.66689-1.5618-1.617-1.635-2.8838l-13.455 7.7262c0.1693 1.223 0.49777 2.3454 1.6908 2.9213z"/>
    <path d="m36.112 96.551-0.0204-6.1664c-12.065-6.1578-24.751-4.4163-33.886 0.13294l0.20438 6.0334c10.764-5.8824 24.843-4.9131 33.702 0z"/>
    <path d="m4.0449 99.435c9.3111-5.3103 23.635-4.7541 31.965 0.92325l0.10167-3.807c-10.88-5.7979-24.101-5.1458-33.702 0 0.0928 1.3351 0.65594 2.2814 1.635 2.8838z"/>
    <path d="m36.112 96.551 8.2659-4.8123-0.39155-5.9359-7.8948 4.5818z"/>
    <path d="m36.01 100.36 10.145-5.8426c-1.058-0.60799-1.5656-1.5915-1.7776-2.7767l-8.2659 4.8123z"/>
    <path d="m48.554 95.89-2.399-1.3739-10.145 5.8426c-9.3746-5.986-23.448-5.9605-31.965-0.92325l-13.399 7.7638c-3.3497 1.745-7.4364 1.2999-9.9717-0.0289l-6.0986-3.5576-1.7487 1.0123 30.291 17.557z"/>
   </g>
   <path d="m77.005 90.48a0.50005 0.50005 0 0 0-0.2207 0.07031l-8.0645 4.6934c-10.908-5.2417-22.202-6.1783-33.889 0.11133a0.50005 0.50005 0 0 0-0.01367 0.0059l-13.428 7.7129c-2.2281 1.0896-4.2084 1.3456-6.1035 0.0762a0.50005 0.50005 0 0 0-0.0293-0.0195l-6.084-3.4844a0.50005 0.50005 0 1 0-0.49805 0.86719l6.0547 3.4668c2.2275 1.4921 4.7069 1.1632 7.1035-0.01a0.50005 0.50005 0 0 0 0.0293-0.0156l13.441-7.7186c11.509-6.194 22.455-5.25 33.246 0.0078a0.50005 0.50005 0 0 0 0.4707-0.01758l8.2656-4.8105a0.50005 0.50005 0 0 0-0.28125-0.93555z" color="#000000" color-rendering="auto" dominant-baseline="auto" fill="#fff" image-rendering="auto" shape-rendering="auto" solid-color="#000000" stroke="#000" stroke-width=".1" style="font-feature-settings:normal;font-variant-alternates:normal;font-variant-caps:normal;font-variant-ligatures:normal;font-variant-numeric:normal;font-variant-position:normal;isolation:auto;mix-blend-mode:normal;shape-padding:0;text-decoration-color:#000000;text-decoration-line:none;text-decoration-style:solid;text-indent:0;text-orientation:mixed;text-transform:none;white-space:normal"/>
   <path d="m78.835 93.256a0.50005 0.50005 0 0 0-0.27148 0.07031l-9.9082 5.707c-9.0896-5.3677-21.333-6.4861-32.186-0.79687a0.50005 0.50005 0 0 0-0.01758 0.0098l-13.389 7.7578c-1.9194 1.0554-6.1382 1.6767-9.502-0.0332-0.0013-6.6e-4 -0.0026-1e-3 -0.0039-2e-3l-6.0723-3.5449a0.50064 0.50064 0 1 0-0.50391 0.86523l6.0977 3.5566a0.50005 0.50005 0 0 0 0.02539 0.0137c3.7385 1.9028 8.1464 1.2824 10.439 0.0215a0.50005 0.50005 0 0 0 0.0098-6e-3l13.381-7.7538 0.0039-2e-3c10.632-5.5714 22.646-4.4145 31.471 0.91211a0.50005 0.50005 0 0 0 0.50781 4e-3l10.145-5.8418a0.50005 0.50005 0 0 0-0.22656-0.9375z" color="#000000" color-rendering="auto" dominant-baseline="auto" fill="#fff" image-rendering="auto" shape-rendering="auto" solid-color="#000000" stroke="#000" stroke-width=".1" style="font-feature-settings:normal;font-variant-alternates:normal;font-variant-caps:normal;font-variant-ligatures:normal;font-variant-numeric:normal;font-variant-position:normal;isolation:auto;mix-blend-mode:normal;shape-padding:0;text-decoration-color:#000000;text-decoration-line:none;text-decoration-style:solid;text-indent:0;text-orientation:mixed;text-transform:none;white-space:normal"/>
  </g>
  <g transform="matrix(.26458 0 0 .26458 41.231 295.57)">
   <ellipse cx="204.69" cy="-98.798" rx="13.199" ry="13.469" fill="#1f638a" stroke-linecap="round" stroke-linejoin="round" stroke-width="1.0658"/>
   <text x="198.84944" y="-91.256096" fill="#000000" font-family="'Arial Nova', 'Arial Unicode MS', 'Yu Gothic UI', sans-serif" font-size="12.8px" letter-spacing="0px" stroke-width="1.0667" word-spacing="0px" style="line-height:0%" xml:space="preserve"><tspan x="198.84944" y="-91.256096" fill="#ffffff" font-family="'Arial Nova', 'Arial Unicode MS', 'Yu Gothic UI', sans-serif" font-size="21.333px" stroke="#ffffff" stroke-width="1.0667" style="line-height:1.25">9</tspan></text>
  </g>
  <g transform="matrix(.26458 0 0 .26458 21.671 250.1)">
   <ellipse cx="-36.668" cy="-19.66" rx="13.199" ry="13.469" fill="#1f638a" stroke-linecap="round" stroke-linejoin="round" stroke-width="1.0658"/>
   <text x="-43.09388" y="-12.024389" fill="#000000" font-family="'Arial Nova', 'Arial Unicode MS', 'Yu Gothic UI', sans-serif" font-size="12.8px" letter-spacing="0px" stroke-width="1.0667" word-spacing="0px" style="line-height:0%" xml:space="preserve"><tspan x="-43.09388" y="-12.024389" fill="#ffffff" font-family="'Arial Nova', 'Arial Unicode MS', 'Yu Gothic UI', sans-serif" font-size="21.333px" stroke="#ffffff" stroke-width="1.0667" style="line-height:1.25">B</tspan></text>
  </g>
  <path d="m75.29 265.64 10.316-6.4942" color="#000000" fill="#1f638a" fill-rule="evenodd" stroke="#1f638a" stroke-linejoin="round" stroke-width=".5"/>
  <g transform="matrix(.26458 0 0 .26458 39.314 285.64)">
   <ellipse cx="173.49" cy="-98.798" rx="13.199" ry="13.469" fill="#1f638a" stroke-linecap="round" stroke-linejoin="round" stroke-width="1.0658"/>
   <text x="167.64812" y="-91.256096" fill="#000000" font-family="'Arial Nova', 'Arial Unicode MS', 'Yu Gothic UI', sans-serif" font-size="12.8px" letter-spacing="0px" stroke-width="1.0667" word-spacing="0px" style="line-height:0%" xml:space="preserve"><tspan x="167.64812" y="-91.256096" fill="#ffffff" font-family="'Arial Nova', 'Arial Unicode MS', 'Yu Gothic UI', sans-serif" font-size="21.333px" stroke="#ffffff" stroke-width="1.0667" style="line-height:1.25">8</tspan></text>
  </g>
  <g transform="matrix(.26458 0 0 .26458 20.304 274.54)">
   <ellipse cx="142.29" cy="-98.798" rx="13.199" ry="13.469" fill="#1f638a" stroke-linecap="round" stroke-linejoin="round" stroke-width="1.0658"/>
   <text x="136.44678" y="-91.26651" fill="#000000" font-family="'Arial Nova', 'Arial Unicode MS', 'Yu Gothic UI', sans-serif" font-size="12.8px" letter-spacing="0px" stroke-width="1.0667" word-spacing="0px" style="line-height:0%" xml:space="preserve"><tspan x="136.44678" y="-91.26651" fill="#ffffff" font-family="'Arial Nova', 'Arial Unicode MS', 'Yu Gothic UI', sans-serif" font-size="21.333px" stroke="#ffffff" stroke-width="1.0667" style="line-height:1.25">7</tspan></text>
  </g>
 </g>
</svg>
