<?xml version="1.0" encoding="UTF-8"?>
<svg width="18cm" height="6.5cm" version="1.1" viewBox="0 0 180 65" xmlns="http://www.w3.org/2000/svg" xmlns:xlink="http://www.w3.org/1999/xlink"><defs><linearGradient id="linearGradient8332" x1=".72164" x2=".57846" y1="176.85" y2="126.86" gradientTransform="matrix(.10972 0 0 .10972 22.163 242.86)" gradientUnits="userSpaceOnUse" xlink:href="#linearGradient6218-6-2"/><linearGradient id="linearGradient6218-6-2"><stop style="stop-color:#ff8500" offset="0"/><stop style="stop-color:#fff" offset="1"/></linearGradient><linearGradient id="linearGradient8337" x1="351.14" x2="345.62" y1="160.65" y2="17.205" gradientTransform="matrix(.10972 0 0 .10972 22.163 242.86)" gradientUnits="userSpaceOnUse" xlink:href="#linearGradient6218-6-2"/><linearGradient id="linearGradient8340" x1="468.67" x2="393.16" y1="240.86" y2="108.91" gradientTransform="matrix(.10972 0 0 .10972 22.163 242.86)" gradientUnits="userSpaceOnUse" xlink:href="#linearGradient6218-6-2"/><linearGradient id="linearGradient8343" x1="153.89" x2="153.83" y1="333.02" y2="252.3" gradientTransform="matrix(.10972 0 0 .10972 22.163 242.86)" gradientUnits="userSpaceOnUse" xlink:href="#linearGradient6218-6-2"/><linearGradient id="linearGradient8347" x1="23.687" x2="59.033" y1="309.26" y2="214.8" gradientTransform="matrix(.10972 0 0 .10972 22.163 242.86)" gradientUnits="userSpaceOnUse" xlink:href="#linearGradient6218-6-2"/><linearGradient id="linearGradient8350" x1="-111.08" x2="34.257" y1="206.06" y2="158.07" gradientTransform="matrix(.10972 0 0 .10972 22.163 242.86)" gradientUnits="userSpaceOnUse" xlink:href="#linearGradient6218-6-2"/><linearGradient id="linearGradient8354" x1="201.95" x2="96.612" y1="184.94" y2="16.501" gradientTransform="matrix(.10972 0 0 .10972 22.163 242.86)" gradientUnits="userSpaceOnUse" xlink:href="#linearGradient6218-6-2"/><linearGradient id="linearGradient8358" x1="248.14" x2="249.48" y1="160.12" y2="-16.816" gradientTransform="matrix(.10972 0 0 .10972 22.163 242.86)" gradientUnits="userSpaceOnUse" xlink:href="#linearGradient6218-6-2"/><linearGradient id="linearGradient8362" x1="404.38" x2="410.15" y1="126.97" y2="54.493" gradientTransform="matrix(.10972 0 0 .10972 22.163 242.86)" gradientUnits="userSpaceOnUse" xlink:href="#linearGradient6218-6-2"/><linearGradient id="linearGradient8367" x1="314.41" x2="266.25" y1="310.48" y2="208.02" gradientTransform="matrix(.10972 0 0 .10972 22.163 242.86)" gradientUnits="userSpaceOnUse" xlink:href="#linearGradient6218-6-2"/><linearGradient id="linearGradient8370" x1="366.27" x2="-144.71" y1="403.62" y2="-230.22" gradientTransform="matrix(.12112 0 0 .12112 19.021 240.72)" gradientUnits="userSpaceOnUse" xlink:href="#linearGradient6218-6-2"/><linearGradient id="linearGradient8373" x1="366.27" x2="135.97" y1="403.62" y2="120.33" gradientTransform="matrix(.12112 0 0 .12112 12.109 232.11)" gradientUnits="userSpaceOnUse" xlink:href="#linearGradient6218-6-2"/><linearGradient id="linearGradient8376" x1="366.27" x2="-144.71" y1="403.62" y2="-230.22" gradientTransform="matrix(.12112 0 0 .12112 12.109 232.11)" gradientUnits="userSpaceOnUse"><stop style="stop-color:#ff8500;stop-opacity:.48889" offset="0"/><stop style="stop-color:#fff;stop-opacity:.48889" offset="1"/></linearGradient><linearGradient id="linearGradient8434" x1="138.47" x2="152.16" y1="296.01" y2="329.93" gradientTransform="matrix(.28222 0 0 .28222 79.916 177.18)" gradientUnits="userSpaceOnUse" xlink:href="#linearGradient7747-2"/><linearGradient id="linearGradient7747-2"><stop style="stop-color:#fff" offset="0"/><stop style="stop-color:#808080" offset="1"/></linearGradient><linearGradient id="linearGradient8432" x1="234.27" x2="281.38" y1="287" y2="349.91" gradientTransform="matrix(.28222 0 0 .28222 79.916 177.18)" gradientUnits="userSpaceOnUse" xlink:href="#linearGradient7747-2"/><linearGradient id="linearGradient8430" x1="127.27" x2="136.38" y1="289.21" y2="289.21" gradientTransform="matrix(.28222 0 0 .28222 79.916 177.18)" gradientUnits="userSpaceOnUse" xlink:href="#linearGradient7747-2"/><linearGradient id="linearGradient8428" x1="269.45" x2="283.4" y1="231.9" y2="298.7" gradientTransform="matrix(.28222 0 0 .28222 79.916 177.18)" gradientUnits="userSpaceOnUse" xlink:href="#linearGradient7747-2"/><linearGradient id="linearGradient8426" x1="280.83" x2="307.77" y1="271.57" y2="338.36" gradientTransform="matrix(.28222 0 0 .28222 79.916 177.18)" gradientUnits="userSpaceOnUse" xlink:href="#linearGradient7747-2"/><linearGradient id="linearGradient8424" x1="193.84" x2="197.14" y1="324.51" y2="388.48" gradientTransform="matrix(.28222 0 0 .28222 79.916 177.18)" gradientUnits="userSpaceOnUse" xlink:href="#linearGradient7747-2"/><linearGradient id="linearGradient8422" x1="165.98" x2="164.65" y1="310.47" y2="373.74" gradientTransform="matrix(.28222 0 0 .28222 79.916 177.18)" gradientUnits="userSpaceOnUse" xlink:href="#linearGradient7747-2"/><linearGradient id="linearGradient8420" x1="135.36" x2="210.83" y1="262.62" y2="262.62" gradientTransform="matrix(.28222 0 0 .28222 79.916 177.18)" gradientUnits="userSpaceOnUse" xlink:href="#linearGradient7747-2"/><linearGradient id="linearGradient8418" x1="237.43" x2="208.18" y1="216.93" y2="271.71" gradientTransform="matrix(.28222 0 0 .28222 79.916 177.18)" gradientUnits="userSpaceOnUse" xlink:href="#linearGradient7747-2"/><linearGradient id="linearGradient8416" x1="277.53" x2="296.11" y1="248.43" y2="289.78" gradientTransform="matrix(.28222 0 0 .28222 79.916 177.18)" gradientUnits="userSpaceOnUse" xlink:href="#linearGradient7747-2"/><linearGradient id="linearGradient8414" x1="366.27" x2="-144.71" y1="403.62" y2="-230.22" gradientTransform="matrix(.12112 0 0 .12112 114.07 240.72)" gradientUnits="userSpaceOnUse" xlink:href="#linearGradient6218-6-2"/><linearGradient id="linearGradient8412" x1="366.27" x2="135.97" y1="403.62" y2="120.33" gradientTransform="matrix(.12112 0 0 .12112 107.16 232.11)" gradientUnits="userSpaceOnUse" xlink:href="#linearGradient6218-6-2"/><linearGradient id="linearGradient8410" x1="78.602" x2="336.44" y1="311.4" y2="311.4" gradientTransform="matrix(.28222 0 0 .28222 79.916 177.18)" gradientUnits="userSpaceOnUse"><stop style="stop-color:#fff;stop-opacity:.56667" offset="0"/><stop style="stop-color:#808080" offset="1"/></linearGradient></defs><g transform="translate(0 -232)"><g transform="matrix(.10287 0 0 .10287 170.08 239.13)"><path d="m-73.925 273.63v44.55c-3.0402 22.705-12.799 24.137-20.75 31.29v-31.111c10.382-9.0617 20.128-19.198 20.75-44.729z" style="fill:none;stroke-dasharray:8.22431236, 8.22431236;stroke-linecap:round;stroke-linejoin:round;stroke-width:2.7414;stroke:#7d7d7d"/><path d="m-504.4 181.61v50.039c-8.4677-4.9805-15.621-10.866-19.722-22.247 3.7654-14.881 11.006-22.812 19.722-27.791z" style="fill:none;stroke-dasharray:8.22431236, 8.22431236;stroke-linecap:round;stroke-linejoin:round;stroke-width:2.7414;stroke:#7d7d7d"/><path d="m-299.89 435.54v31.689c-34.158 15.671-68.316 15.066-102.47 0.93158l0.1752-67.099c27.929 26.622 55.599 53.877 102.3 34.478z" style="fill:none;stroke-dasharray:8.22431236, 8.22431236;stroke-linecap:round;stroke-linejoin:round;stroke-width:2.7414;stroke:#7d7d7d"/><path d="m-350.83 438.66 0.054 40.27" style="fill:none;stroke-dasharray:7.29105693, 7.29105693;stroke-linecap:round;stroke-linejoin:round;stroke-width:2.4304;stroke:#7d7d7d"/><path d="m-300 435.54v31.223l205.07-117.38v-30.325z" style="fill:none;stroke-dasharray:8.22431236, 8.22431236;stroke-linecap:round;stroke-linejoin:round;stroke-width:2.7414;stroke:#7d7d7d"/><path d="m-197.28 376.65v31.473" style="fill:none;stroke-dasharray:7.29105693, 7.29105693;stroke-linecap:round;stroke-linejoin:round;stroke-width:2.4304;stroke:#7d7d7d"/><path d="m-197.64 231.77 73.42-42.333-73.42-89.831z" style="fill:none;stroke-dasharray:8.22431236, 8.22431236;stroke-linecap:round;stroke-linejoin:round;stroke-width:2.7414;stroke:#7d7d7d"/><path d="m-197.35 143.3 66.478 38.155" style="fill:none;stroke-dasharray:8.23079309, 8.23079309;stroke-linecap:round;stroke-linejoin:round;stroke-width:2.7436;stroke:#7d7d7d"/><path d="m-146.35 162.38v39.378" style="fill:none;stroke-dasharray:8.23079309, 8.23079309;stroke-linecap:round;stroke-linejoin:round;stroke-width:2.7436;stroke:#7d7d7d"/><path d="m-197.85 98.386v132.3c-33.977-17.153-67.954-15.294-101.93 1.0702l-0.25196-167.3c35.206-13.49 69.604-9.4831 102.18 33.934z" style="fill:none;stroke-dasharray:8.22431236, 8.22431236;stroke-linecap:round;stroke-linejoin:round;stroke-width:2.7414;stroke:#7d7d7d"/><path d="m-248.59 60.495v158.44" style="fill:none;stroke-dasharray:7.29105694, 7.29105694;stroke-linecap:round;stroke-linejoin:round;stroke-width:2.4304;stroke:#7d7d7d"/><path d="m-299.96 143.23c32.428-14.872 65.949-19.253 101.93 0" style="fill:none;stroke-dasharray:7.29105694, 7.29105694;stroke-linecap:round;stroke-linejoin:round;stroke-width:2.4304;stroke:#7d7d7d"/><path d="m-300.14 64.2v168.28l-101.47 57.655-103.12-58.973 0.27784-50.012z" style="fill:none;stroke-dasharray:8.22431236, 8.22431236;stroke-linecap:round;stroke-linejoin:round;stroke-width:2.7414;stroke:#7d7d7d"/><path d="m-478.22 246.01 178.57-102.46" style="fill:none;stroke-dasharray:7.29105693, 7.29105693;stroke-linecap:round;stroke-linejoin:round;stroke-width:2.4304;stroke:#7d7d7d"/><path d="m-402.12 122.92v166.91" style="fill:none;stroke-dasharray:7.29105693, 7.29105693;stroke-linecap:round;stroke-linejoin:round;stroke-width:2.4304;stroke:#7d7d7d"/><path d="m-504.73 408.74v-136.23c-8.3075-11.188-17.606-17.121-21.744-50.407v159.62c3.5778 13.2 12.072 20.781 21.744 27.016z" style="fill:none;stroke-dasharray:8.22431236, 8.22431236;stroke-linecap:round;stroke-linejoin:round;stroke-width:2.7414;stroke:#7d7d7d"/><path d="m-505.24 319.48c-8.3228-5.4146-16.832-10.128-21.744-28.334" style="fill:none;stroke-dasharray:7.29105693, 7.29105693;stroke-linecap:round;stroke-linejoin:round;stroke-width:2.4304;stroke:#7d7d7d"/><path d="m-505.06 408.41 102.46 59.303v-67.111l-102.21-127.2z" style="fill:none;stroke-dasharray:8.22431236, 8.22431236;stroke-linecap:round;stroke-linejoin:round;stroke-width:2.7414;stroke:#7d7d7d"/><path d="m-504.91 319.81 69.336 40.095" style="fill:none;stroke-dasharray:7.29105693, 7.29105693;stroke-linecap:round;stroke-linejoin:round;stroke-width:2.4304;stroke:#7d7d7d"/></g><path d="m148.64 235.39 26.107 32.595-46.267 26.767-26.252-32.755z" style="fill:url(#linearGradient8410);stroke-linecap:round;stroke-linejoin:round;stroke-width:.25;stroke:#7d7d7d"/><path d="m125.4 248.72 26.19 32.612" style="fill:url(#linearGradient8412);stroke-linecap:round;stroke-linejoin:round;stroke-width:.25;stroke:#7d7d7d"/><path d="m115.34 278.29 46.301-26.699" style="fill:url(#linearGradient8414);stroke-linecap:round;stroke-linejoin:round;stroke-width:.25;stroke:#7d7d7d"/><path d="m162.55 253.5c-0.0482-1.1679-1.0838-1.9591-2.1683-2.6257l8e-3 6.0222c0.89306-0.48605 2.0839-1.282 2.1599-3.3965z" style="fill:url(#linearGradient8416);stroke-linecap:round;stroke-linejoin:round;stroke-width:.282;stroke:#7d7d7d"/><path d="m156.78 257.92 0.989 0.56942" style="fill:none;stroke-linecap:round;stroke-linejoin:round;stroke-width:.282;stroke:#000"/><path d="m139.28 244.76c3.5737-1.6406 7.0858-1.834 10.513-0.0275v4.5819c-3.5037-4.5449-7.0074-4.7891-10.511-3.4906z" style="fill:url(#linearGradient8418);stroke-width:.28222px;stroke:#7d7d7d"/><path d="m144.6 243.44v1.941" style="fill:none;stroke-linecap:round;stroke-linejoin:round;stroke-width:.25;stroke:#7d7d7d"/><path d="m118.26 256.87 21.012-12.099v1.0247l-21.017 12.03z" style="fill:url(#linearGradient8420);stroke-width:.28222px;stroke:#7d7d7d"/><path d="m128.8 250.77v0.89658" style="fill:none;stroke-linecap:round;stroke-linejoin:round;stroke-width:.25;stroke:#7d7d7d"/><path d="m128.74 280.4v-11.463l-10.506-5.8918-8e-3 4.2705z" style="fill:url(#linearGradient8422);stroke-linecap:round;stroke-linejoin:round;stroke-width:.282;stroke:#7d7d7d"/><path d="m123.52 265.99v7.9404" style="fill:none;stroke-linecap:round;stroke-linejoin:round;stroke-width:.25;stroke:#7d7d7d"/><path d="m128.81 269c3.2462 1.8232 6.7359 2.0736 10.493 0.19166v14.804c-2.6859 0.81369-5.2319 1.9669-10.523-3.5466z" style="fill:url(#linearGradient8424);stroke-width:.28222px;stroke:#7d7d7d"/><path d="m160.41 256.92c1.0214-0.70111 2.0794-1.3491 2.1345-3.4558v13.882c-0.11952 3.1274-1.2286 3.5906-2.1345 4.6011v-15.027z" style="fill:url(#linearGradient8426);stroke-width:.28222px;stroke:#7d7d7d"/><path d="m157.37 258.68 3.0845-1.7784v-6.0132l-10.637-6.157v4.7081z" style="fill:url(#linearGradient8428);stroke-width:.28222px;stroke:#7d7d7d"/><path d="m160.38 266.07c0.91489-0.636 1.8176-1.2923 2.2022-2.8121" style="fill:none;stroke-width:.25;stroke:#7d7d7d"/><path d="m155.11 247.78v8.1316" style="fill:none;stroke-linecap:round;stroke-linejoin:round;stroke-width:.25;stroke:#7d7d7d"/><path d="m115.98 259.72c0.10832-1.7058 1.3266-2.2097 2.2876-2.8468v1.0038c-1.2731 0.67439-1.6998 1.7438-2.0287 2.8588-0.10777-0.29908-0.19504-0.63505-0.25884-1.0158z" style="fill:url(#linearGradient8430);stroke-width:.28222px;stroke:#7d7d7d"/><path d="m141.71 244.64c-1.1434 0.10515-2.3633 0.46035-3.6336 1.1465-6e-3 -1e-4 -0.0118-1e-4 -0.0176 0l-19.456 11.245-0.0176 9e-3c-1.3606 0.7231-2.1955 1.7612-2.6194 2.884-0.10546 0.24732 0.1974 2.3059 0.44551 2.4095 0.22741 0.0949 0.32051-1.6144 0.48935-2.0567 0.34613-0.91693 0.9941-1.7435 2.1696-2.3636 6e-3 -3e-3 0.0118-6e-3 0.0177-9e-3l19.465-11.245 9e-3 -9e-3c2.3171-1.2482 4.3412-1.2431 6.0149-0.73201 1.6763 0.51187 2.9948 1.5623 3.7571 2.4165l8.449 10.416c0.16624 0.20319 0.50237 0.2368 0.70556 0.0706 0.20318-0.16624 0.23679-0.50237 0.0705-0.70556l-8.4578-10.425c-6e-3 -6e-3 -0.0116-0.0119-0.0176-0.0177-0.87021-0.97513-2.3174-2.1279-4.2157-2.7076-0.94914-0.28983-2.0139-0.43147-3.1574-0.32632z" style="color:#000000;fill:#fff;stroke-linecap:round;stroke-linejoin:round;stroke-width:.2;stroke:#000;text-decoration-line:none;text-indent:0;text-transform:none"/><path d="m128.76 278.2c3.5738 1.7088 7.095 1.5149 10.541 0.0479" style="fill:none;stroke-linecap:round;stroke-linejoin:round;stroke-width:.25;stroke:#7d7d7d"/><path d="m125.39 276.23 3.3181 1.9324" style="fill:none;stroke-linecap:round;stroke-linejoin:round;stroke-width:.25;stroke:#7d7d7d"/><path d="m134.11 270.5 3e-3 13.867" style="fill:none;stroke-linecap:round;stroke-linejoin:round;stroke-width:.25;stroke:#7d7d7d"/><path d="m139.29 269.18v14.816l21.094-11.982v-15.112z" style="fill:url(#linearGradient8432);stroke-width:.28222px;stroke:#7d7d7d"/><path d="m139.3 278.19 21.074-12.129" style="fill:none;stroke-width:.25;stroke:#7d7d7d"/><path d="m149.87 263.02v14.992" style="fill:none;stroke-linecap:round;stroke-linejoin:round;stroke-width:.25;stroke:#7d7d7d"/><path d="m118.23 267.23v-4.1854c-1.1688-0.71108-2.0826-1.6267-2.2617-3.2375l0.025 2.2377c0.38849 2.6976 1.218 4.1982 2.2368 5.1852z" style="fill:url(#linearGradient8434);stroke-linejoin:round;stroke-width:.28222px;stroke:#7d7d7d"/><path d="m115.85 260.88c-0.11225 0.023-0.19609 1.0666-0.17392 2.2984 0.21027 1.3845 0.75321 2.6048 1.3494 3.3778l9e-3 9e-3 11.421 14.332c8e-3 9e-3 0.0173 0.0179 0.0264 0.0264 2.5099 2.6546 4.6904 3.8912 6.6851 4.198 1.9948 0.30691 3.7456-0.33436 5.3358-1.2347l19.553-11.095c6e-3 -3e-3 0.0118-6e-3 0.0176-9e-3 1.903-1.1989 3.1186-3.2978 3.0162-5.6444-0.0115-0.26322-0.37706-1.6215-0.52475-1.4033-0.11092 0.16385-0.37982 1.2966-0.48066 1.4474 0.0863 1.9791-0.92608 3.7313-2.5488 4.7537v9e-3l-19.526 11.077c-1.4958 0.84692-2.9876 1.3735-4.692 1.1112-1.6976-0.2612-3.6712-1.3269-6.0766-3.8629v-9e-3c-8e-3 -8e-3 -0.0185-9e-3 -0.0264-0.0177l-11.395-14.296c-1e-3 -2e-3 1e-3 -7e-3 0-9e-3 -0.45503-0.59251-0.96307-1.7024-1.1465-2.9104-0.4852-0.44191-0.61123-1.4153-0.82268-2.1485z" style="color:#000000;fill:#fff;stroke-linecap:round;stroke-linejoin:round;stroke-width:.2;stroke:#000;text-decoration-line:none;text-indent:0;text-transform:none"/><path d="m92.285 261.28 2.6578 1.6179-2.6163 1.6843z" style="fill:#1f638a;stroke-linecap:round;stroke-linejoin:round;stroke-width:.1;stroke:#1f638a"/><rect transform="rotate(-.72054)" x="86.268" y="263.31" width="3.0265" height="1.5097" style="fill:#1f638a;stroke-linecap:round;stroke-linejoin:round;stroke-width:.1;stroke:#1f638a"/><path d="m67.426 267.28v4.5827c-0.31273 2.3356-1.3165 2.4828-2.1345 3.2186v-3.2003c1.068-0.93214 2.0704-1.9748 2.1345-4.6011z" style="fill:none;stroke-dasharray:0.84600002, 0.84600002;stroke-linecap:round;stroke-linejoin:round;stroke-width:.282;stroke:#7d7d7d"/><path d="m23.144 257.81v5.1473c-0.87103-0.51233-1.6069-1.1177-2.0287-2.2885 0.38733-1.5308 1.1321-2.3466 2.0287-2.8588z" style="fill:none;stroke-dasharray:0.84600002, 0.84600002;stroke-linecap:round;stroke-linejoin:round;stroke-width:.282;stroke:#7d7d7d"/><g transform="matrix(.10287 0 0 .10287 75.03 239.13)"><path d="m-299.89 435.54v31.689c-34.158 15.671-68.316 15.066-102.47 0.93158l0.1752-67.099c27.929 26.622 55.599 53.877 102.3 34.478z" style="fill:none;stroke-dasharray:8.22431236, 8.22431236;stroke-linecap:round;stroke-linejoin:round;stroke-width:2.7414;stroke:#7d7d7d"/><path d="m-350.83 438.66 0.054 40.27" style="fill:none;stroke-dasharray:7.29105693, 7.29105693;stroke-linecap:round;stroke-linejoin:round;stroke-width:2.4304;stroke:#7d7d7d"/></g><g transform="matrix(.10287 0 0 .10287 75.03 239.13)"><path d="m-300 435.54v31.223l205.07-117.38v-30.325z" style="fill:none;stroke-dasharray:8.22431236, 8.22431236;stroke-linecap:round;stroke-linejoin:round;stroke-width:2.7414;stroke:#7d7d7d"/><path d="m-197.28 376.65v31.473" style="fill:none;stroke-dasharray:7.29105693, 7.29105693;stroke-linecap:round;stroke-linejoin:round;stroke-width:2.4304;stroke:#7d7d7d"/></g><g transform="matrix(.10287 0 0 .10287 75.03 239.13)"><path d="m-197.64 231.77 73.42-42.333-73.42-89.831z" style="fill:none;stroke-dasharray:8.22431236, 8.22431236;stroke-linecap:round;stroke-linejoin:round;stroke-width:2.7414;stroke:#7d7d7d"/><path d="m-197.35 143.3 66.478 38.155" style="fill:none;stroke-dasharray:8.23079309, 8.23079309;stroke-linecap:round;stroke-linejoin:round;stroke-width:2.7436;stroke:#7d7d7d"/><path d="m-146.35 162.38v39.378" style="fill:none;stroke-dasharray:8.23079309, 8.23079309;stroke-linecap:round;stroke-linejoin:round;stroke-width:2.7436;stroke:#7d7d7d"/></g><g transform="matrix(.10287 0 0 .10287 75.03 239.13)"><path d="m-197.85 98.386v132.3c-33.977-17.153-67.954-15.294-101.93 1.0702l-0.25196-167.3c35.206-13.49 69.604-9.4831 102.18 33.934z" style="fill:none;stroke-dasharray:8.22431236, 8.22431236;stroke-linecap:round;stroke-linejoin:round;stroke-width:2.7414;stroke:#7d7d7d"/><path d="m-248.59 60.495v158.44" style="fill:none;stroke-dasharray:7.29105694, 7.29105694;stroke-linecap:round;stroke-linejoin:round;stroke-width:2.4304;stroke:#7d7d7d"/><path d="m-299.96 143.23c32.428-14.872 65.949-19.253 101.93 0" style="fill:none;stroke-dasharray:7.29105694, 7.29105694;stroke-linecap:round;stroke-linejoin:round;stroke-width:2.4304;stroke:#7d7d7d"/></g><g transform="matrix(.10287 0 0 .10287 75.03 239.13)"><path d="m-300.14 64.2v168.28l-101.47 57.655-103.12-58.973 0.27784-50.012z" style="fill:none;stroke-dasharray:8.22431236, 8.22431236;stroke-linecap:round;stroke-linejoin:round;stroke-width:2.7414;stroke:#7d7d7d"/><path d="m-478.22 246.01 178.57-102.46" style="fill:none;stroke-dasharray:7.29105693, 7.29105693;stroke-linecap:round;stroke-linejoin:round;stroke-width:2.4304;stroke:#7d7d7d"/><path d="m-402.12 122.92v166.91" style="fill:none;stroke-dasharray:7.29105693, 7.29105693;stroke-linecap:round;stroke-linejoin:round;stroke-width:2.4304;stroke:#7d7d7d"/></g><g transform="matrix(.10287 0 0 .10287 75.03 239.13)"><path d="m-504.73 408.74v-136.23c-8.3075-11.188-17.606-17.121-21.744-50.407v159.62c3.5778 13.2 12.072 20.781 21.744 27.016z" style="fill:none;stroke-dasharray:8.22431236, 8.22431236;stroke-linecap:round;stroke-linejoin:round;stroke-width:2.7414;stroke:#7d7d7d"/><path d="m-505.24 319.48c-8.3228-5.4146-16.832-10.128-21.744-28.334" style="fill:none;stroke-dasharray:7.29105693, 7.29105693;stroke-linecap:round;stroke-linejoin:round;stroke-width:2.4304;stroke:#7d7d7d"/></g><g transform="matrix(.10287 0 0 .10287 75.03 239.13)"><path d="m-505.06 408.41 102.46 59.303v-67.111l-102.21-127.2z" style="fill:none;stroke-dasharray:8.22431236, 8.22431236;stroke-linecap:round;stroke-linejoin:round;stroke-width:2.7414;stroke:#7d7d7d"/><path d="m-504.91 319.81 69.336 40.095" style="fill:none;stroke-dasharray:7.29105693, 7.29105693;stroke-linecap:round;stroke-linejoin:round;stroke-width:2.4304;stroke:#7d7d7d"/></g><path d="m53.586 235.39 26.107 32.595-46.267 26.767-26.252-32.755z" style="fill:url(#linearGradient8376);stroke-linecap:round;stroke-linejoin:round;stroke-width:.25;stroke:#7d7d7d"/><path d="m30.347 248.72 26.19 32.612" style="fill:url(#linearGradient8373);stroke-linecap:round;stroke-linejoin:round;stroke-width:.25;stroke:#7d7d7d"/><path d="m20.285 278.29 46.301-26.699" style="fill:url(#linearGradient8370);stroke-linecap:round;stroke-linejoin:round;stroke-width:.25;stroke:#7d7d7d"/><path d="m44.24 269.18v14.816l21.094-11.982v-15.112z" style="fill:url(#linearGradient8367);stroke-width:.28222px;stroke:#7d7d7d"/><path d="m44.253 278.19 21.074-12.129" style="fill:none;stroke-width:.25;stroke:#7d7d7d"/><path d="m54.824 263.02v14.992" style="fill:none;stroke-linecap:round;stroke-linejoin:round;stroke-width:.25;stroke:#7d7d7d"/><path d="m67.495 253.5c-0.04823-1.1679-1.0838-1.9591-2.1683-2.6257l0.0085 6.0222c0.89306-0.48604 2.0839-1.282 2.1599-3.3965z" style="fill:url(#linearGradient8362);stroke-linecap:round;stroke-linejoin:round;stroke-width:.282;stroke:#7d7d7d"/><path d="m61.733 257.92 0.98899 0.56942" style="fill:none;stroke-linecap:round;stroke-linejoin:round;stroke-width:.282;stroke:#000"/><path d="m44.234 244.76c3.5737-1.6406 7.0858-1.834 10.513-0.0275v4.5819c-3.5037-4.5449-7.0074-4.7891-10.511-3.4906z" style="fill:url(#linearGradient8358);stroke-width:.28222px;stroke:#7d7d7d"/><path d="m49.546 243.44v1.941" style="fill:none;stroke-linecap:round;stroke-linejoin:round;stroke-width:.25;stroke:#7d7d7d"/><path d="m23.214 256.87 21.012-12.099v1.0247l-21.017 12.03z" style="fill:url(#linearGradient8354);stroke-width:.28222px;stroke:#7d7d7d"/><path d="m33.754 250.77v0.89657" style="fill:none;stroke-linecap:round;stroke-linejoin:round;stroke-width:.25;stroke:#7d7d7d"/><path d="m23.18 267.23v-4.1854c-1.1687-0.71109-2.0577-1.6765-2.2367-3.2873v2.2876c0.38849 2.6976 1.218 4.1982 2.2367 5.1852z" style="fill:url(#linearGradient8350);stroke-linejoin:round;stroke-width:.28222px;stroke:#7d7d7d"/><path d="m33.686 280.4v-11.363l-10.506-6.0663-0.0081 4.3453z" style="fill:url(#linearGradient8347);stroke-width:.28222px;stroke:#7d7d7d"/><path d="m28.467 265.99v7.9404" style="fill:none;stroke-linecap:round;stroke-linejoin:round;stroke-width:.25;stroke:#7d7d7d"/><path d="m33.758 269c3.2463 1.8232 6.7359 2.0736 10.493 0.19166v14.804c-2.6859 0.8137-5.2319 1.9669-10.523-3.5466z" style="fill:url(#linearGradient8343);stroke-width:.28222px;stroke:#7d7d7d"/><path d="m65.361 256.92c1.0214-0.70111 2.0794-1.3491 2.1345-3.4558v13.882c-0.11953 3.1274-1.2286 3.5906-2.1345 4.6011v-15.027z" style="fill:url(#linearGradient8340);stroke-width:.28222px;stroke:#7d7d7d"/><path d="m62.321 258.68 3.0845-1.7784v-6.0132l-10.637-6.157v4.7081z" style="fill:url(#linearGradient8337);stroke-width:.28222px;stroke:#7d7d7d"/><path d="m65.327 266.07c0.91489-0.63599 1.8176-1.2923 2.2022-2.8121" style="fill:none;stroke-width:.25;stroke:#7d7d7d"/><path d="m60.063 247.78v8.1316" style="fill:none;stroke-linecap:round;stroke-linejoin:round;stroke-width:.25;stroke:#7d7d7d"/><path d="m20.926 259.72c0.10832-1.7058 1.3266-2.2097 2.2876-2.8468v1.0038c-1.2731 0.67439-1.6998 1.7438-2.0287 2.8588-0.10776-0.29908-0.19504-0.63505-0.25884-1.0158z" style="fill:url(#linearGradient8332);stroke-width:.28222px;stroke:#7d7d7d"/><path d="m33.71 278.2c3.5738 1.7088 7.095 1.5149 10.541 0.0479" style="fill:none;stroke-linecap:round;stroke-linejoin:round;stroke-width:.25;stroke:#7d7d7d"/><path d="m30.339 276.23 3.3181 1.9324" style="fill:none;stroke-linecap:round;stroke-linejoin:round;stroke-width:.25;stroke:#7d7d7d"/><path d="m39.063 270.5 0.0026 13.867" style="fill:none;stroke-linecap:round;stroke-linejoin:round;stroke-width:.25;stroke:#7d7d7d"/><path d="m21.199 263.51c0.2348 1.135 0.70617 2.136 1.1775 2.7471l11.425 14.334c4.9281 5.2122 8.3193 4.618 11.405 2.8707l19.552-11.095c1.7977-1.1326 2.9185-3.1111 2.7735-5.3262m-5.5552-8.7883-8.3131-10.248c-1.6325-1.8293-5.5342-4.4109-10.397-1.7845l-19.474 11.25c-1.3316 0.70248-2.0886 1.6932-2.458 2.7701" style="fill:none;stroke-dashoffset:5;stroke-linecap:round;stroke-linejoin:round;stroke-width:.5;stroke:#f00"/><text x="29.618767" y="273.48651" style="fill:#000000;font-family:'Arial Nova', 'Arial Unicode MS', 'Yu Gothic UI', sans-serif;font-size:3.3867px;letter-spacing:0px;line-height:0%;stroke-width:.28222;stroke:#000000;word-spacing:0px" xml:space="preserve"><tspan x="29.618767" y="273.48651" style="fill:#000000;font-family:'Arial Nova', 'Arial Unicode MS', 'Yu Gothic UI', sans-serif;stroke-width:.28222;stroke:#000000">A1</tspan></text><text x="56.003601" y="265.03415" style="fill:#000000;font-family:'Arial Nova', 'Arial Unicode MS', 'Yu Gothic UI', sans-serif;font-size:3.3867px;letter-spacing:0px;line-height:0%;stroke-width:.28222;stroke:#000000;word-spacing:0px" xml:space="preserve"><tspan x="56.003601" y="265.03415" style="fill:#000000;font-family:'Arial Nova', 'Arial Unicode MS', 'Yu Gothic UI', sans-serif;stroke-width:.28222;stroke:#000000">A3</tspan></text><text x="39.717678" y="273.37778" style="fill:#000000;font-family:'Arial Nova', 'Arial Unicode MS', 'Yu Gothic UI', sans-serif;font-size:3.3867px;letter-spacing:0px;line-height:0%;stroke-width:.28222;stroke:#000000;word-spacing:0px" xml:space="preserve"><tspan x="39.717678" y="273.37778" style="fill:#000000;font-family:'Arial Nova', 'Arial Unicode MS', 'Yu Gothic UI', sans-serif;stroke-width:.28222;stroke:#000000">A2</tspan></text><path d="m61.018 273.18 1.6471-1.3618 1.8262 3.7385 1.6651-0.81339-1.8262-3.7385 1.9655-0.40296-5.1705-3.8935z" style="fill:#fff;stroke-linecap:round;stroke-linejoin:round;stroke-width:.2;stroke:#000"/><text x="66.146759" y="258.9158" style="fill:#000000;font-family:'Arial Nova', 'Arial Unicode MS', 'Yu Gothic UI', sans-serif;font-size:3.3867px;letter-spacing:0px;line-height:0%;stroke-width:.28222;stroke:#000000;word-spacing:0px" xml:space="preserve"><tspan x="66.146759" y="258.9158" style="fill:#000000;font-family:'Arial Nova', 'Arial Unicode MS', 'Yu Gothic UI', sans-serif;stroke-width:.28222;stroke:#000000">A4</tspan></text><text x="60.786541" y="252.92075" style="fill:#000000;font-family:'Arial Nova', 'Arial Unicode MS', 'Yu Gothic UI', sans-serif;font-size:3.3867px;letter-spacing:0px;line-height:0%;stroke-width:.28222;stroke:#000000;word-spacing:0px" xml:space="preserve"><tspan x="60.786541" y="252.92075" style="fill:#000000;font-family:'Arial Nova', 'Arial Unicode MS', 'Yu Gothic UI', sans-serif;stroke-width:.28222;stroke:#000000">A5</tspan></text><text x="49.925034" y="250.52275" style="fill:#000000;font-family:'Arial Nova', 'Arial Unicode MS', 'Yu Gothic UI', sans-serif;font-size:3.3867px;letter-spacing:0px;line-height:0%;stroke-width:.28222;stroke:#000000;word-spacing:0px" xml:space="preserve"><tspan x="49.925034" y="250.52275" style="fill:#000000;font-family:'Arial Nova', 'Arial Unicode MS', 'Yu Gothic UI', sans-serif;stroke-width:.28222;stroke:#000000">A6</tspan></text><text x="38.71088" y="251.86281" style="fill:#000000;font-family:'Arial Nova', 'Arial Unicode MS', 'Yu Gothic UI', sans-serif;font-size:3.3867px;letter-spacing:0px;line-height:0%;stroke-width:.28222;stroke:#000000;word-spacing:0px" xml:space="preserve"><tspan x="38.71088" y="251.86281" style="fill:#000000;font-family:'Arial Nova', 'Arial Unicode MS', 'Yu Gothic UI', sans-serif;stroke-width:.28222;stroke:#000000">A7</tspan></text><text x="18.610046" y="269.63626" style="fill:#000000;font-family:'Arial Nova', 'Arial Unicode MS', 'Yu Gothic UI', sans-serif;font-size:3.3867px;letter-spacing:0px;line-height:0%;stroke-width:.28222;stroke:#000000;word-spacing:0px" xml:space="preserve"><tspan x="18.610046" y="269.63626" style="fill:#000000;font-family:'Arial Nova', 'Arial Unicode MS', 'Yu Gothic UI', sans-serif;stroke-width:.28222;stroke:#000000">A8</tspan></text><text x="31.153625" y="290.48349" style="fill:#000000;font-family:'Arial Nova', 'Arial Unicode MS', 'Yu Gothic UI', sans-serif;font-size:3.3867px;letter-spacing:0px;line-height:0%;stroke-width:.28222;stroke:#000000;word-spacing:0px" xml:space="preserve"><tspan x="31.153625" y="290.48349" style="fill:#000000;font-family:'Arial Nova', 'Arial Unicode MS', 'Yu Gothic UI', sans-serif;stroke-width:.28222;stroke:#000000">B</tspan></text><path d="m33.879 292.65 1.6471-1.3618 1.8262 3.7385 1.6651-0.81338-1.8262-3.7385 1.9655-0.40296-5.1705-3.8935z" style="fill:#fff;stroke-linecap:round;stroke-linejoin:round;stroke-width:.2;stroke:#000"/><ellipse cx="70.272" cy="271.13" rx="3.4923" ry="3.5636" style="fill:#1f638a;stroke-linecap:round;stroke-linejoin:round;stroke-width:.282"/><text x="68.726433" y="273.15738" style="fill:#000000;font-family:'Arial Nova', 'Arial Unicode MS', 'Yu Gothic UI', sans-serif;font-size:3.3867px;letter-spacing:0px;line-height:0%;stroke-width:.28222;word-spacing:0px" xml:space="preserve"><tspan x="68.726433" y="273.15738" style="fill:#ffffff;font-family:'Arial Nova', 'Arial Unicode MS', 'Yu Gothic UI', sans-serif;font-size:5.6444px;stroke-width:.28222;stroke:#ffffff">1</tspan></text><ellipse cx="43.095" cy="290.89" rx="3.4923" ry="3.5636" style="fill:#1f638a;stroke-linecap:round;stroke-linejoin:round;stroke-width:.282"/><text x="41.549431" y="292.91772" style="fill:#000000;font-family:'Arial Nova', 'Arial Unicode MS', 'Yu Gothic UI', sans-serif;font-size:3.3867px;letter-spacing:0px;line-height:0%;stroke-width:.28222;word-spacing:0px" xml:space="preserve"><tspan x="41.549431" y="292.91772" style="fill:#ffffff;font-family:'Arial Nova', 'Arial Unicode MS', 'Yu Gothic UI', sans-serif;font-size:5.6444px;stroke-width:.28222;stroke:#ffffff">2</tspan></text></g></svg>
