<?xml version="1.0" encoding="UTF-8"?>
<svg width="18cm" height="4.5cm" version="1.1" xmlns="http://www.w3.org/2000/svg" xmlns:xlink="http://www.w3.org/1999/xlink">
 <defs>
  <linearGradient id="linearGradient6218-7-4-0-5-2-09">
   <stop style="stop-color:#ff8500" offset="0"/>
   <stop style="stop-color:#fff" offset="1"/>
  </linearGradient>
  <linearGradient id="linearGradient10193" x1="19.413" x2="64.481" y1="809.31" y2="809.31" gradientTransform="matrix(1.0667 0 0 1.0667 49.708 798.87)" gradientUnits="userSpaceOnUse" xlink:href="#linearGradient6218-7-4-0-5-2-09"/>
  <linearGradient id="linearGradient10195" x1="54.319" x2="90.964" y1="1166.8" y2="1166.8" gradientTransform="matrix(1.0667 0 0 1.0667 162.96 413)" gradientUnits="userSpaceOnUse" xlink:href="#linearGradient6218-7-4-0-5-2-09"/>
  <linearGradient id="linearGradient10197" x1="19.413" x2="64.481" y1="809.31" y2="809.31" gradientTransform="matrix(1.0667 0 0 1.0667 477.18 782.31)" gradientUnits="userSpaceOnUse" xlink:href="#linearGradient6218-7-4-0-5-2-09"/>
  <linearGradient id="linearGradient10199" x1="54.319" x2="90.964" y1="1166.8" y2="1166.8" gradientTransform="matrix(1.0667 0 0 1.0667 449.25 427.3)" gradientUnits="userSpaceOnUse" xlink:href="#linearGradient6218-7-4-0-5-2-09"/>
 </defs>
 <g transform="translate(0 -952.44)">
  <g transform="translate(40.533 -617.91)">
   <path d="m71.537 1619.5c2.1407 5.1927 10.489 5.7818 16.442 4.711 5.953-1.0708 12.999-6.2726 11.997-10.96-1.0022-4.6873-9.254-6.8956-16.584-5.7484-7.3298 1.1471-13.997 6.8045-11.856 11.997z" style="fill:#fff;stroke-linecap:round;stroke-linejoin:round;stroke-width:1.4324;stroke:#67977f"/>
   <path d="m107.11 1729-25.143-136.38" style="fill:none;stroke-dasharray:2.70614166, 1.35307083, 0.67653541, 1.35307083;stroke-linecap:round;stroke-linejoin:round;stroke-width:.67654;stroke:#000"/>
   <path d="m99.938 1612.8c-0.32043 12.289-24.994 15.699-28.667 5.7803l17.605 92.559 0.10272-0.015c0.06496 0.2718 0.13808 0.5367 0.2494 0.8068 2.1407 5.1928 10.493 5.7949 16.446 4.7241 5.953-1.0709 13.003-6.2866 12.001-10.974-0.0492-0.2297-0.12243-0.4425-0.20537-0.6602l-17.532-92.221z" style="fill:url(#linearGradient10193);stroke-linecap:round;stroke-linejoin:round;stroke-width:1.4324;stroke:#67977f"/>
   <path d="m252.48 1718-25.143-136.38" style="fill:none;stroke-dasharray:2.70614166, 1.35307083, 0.67653541, 1.35307083;stroke-linecap:round;stroke-linejoin:round;stroke-width:.67654;stroke:#000"/>
   <path d="m221.62 1634.6s3.7156 7.7539 16.961 5.1551c13.246-2.5988 11.497-11.542 11.497-11.542l9.1964 47.039s-0.59196 7.9299-11.472 10.863c-10.88 2.9329-16.912-4.0958-16.912-4.0958z" style="fill:url(#linearGradient10195);stroke-width:1.4324;stroke:#67977f"/>
   <path d="m228.61 1702.4 53.707-19.325-9.0104-46.594-53.233 19.918z" style="fill:none;stroke-width:1.4324;stroke:#67977f"/>
   <path d="m207.87 1673.2 20.748 29.284-8.5362-46.119-21.696-30.351z" style="fill:none;stroke-width:1.4324;stroke:#67977f"/>
   <path d="m251.78 1606.5-53.475 19.277 21.375 30.266 53.563-19.703zm-14.025 16.021c6.003 0.065 11.597 2.2359 12.412 6.0443 1.0022 4.6873-6.0478 9.9031-12.001 10.974-5.953 1.0708-14.291 0.4687-16.431-4.7241-2.1406-5.1927 4.5243-10.839 11.854-11.986 1.3743-0.215 2.7812-0.3232 4.1665-0.308z" style="fill:none;stroke-width:1.4324;stroke:#67977f"/>
   <path d="m499.01 1602.9c2.1407 5.1928 10.489 5.7819 16.442 4.7111 5.953-1.0708 12.999-6.2727 11.997-10.96-1.0022-4.6873-9.254-6.8956-16.584-5.7484-7.3298 1.1471-13.997 6.8045-11.856 11.997z" style="fill:#fff;stroke-linecap:round;stroke-linejoin:round;stroke-width:1.4324;stroke:#67977f"/>
   <path d="m536.06 1718.8-25.143-136.38" style="fill:none;stroke-dasharray:2.70614166, 1.35307083, 0.67653541, 1.35307083;stroke-linecap:round;stroke-linejoin:round;stroke-width:.67654;stroke:#000"/>
   <path d="m527.41 1596.2c-0.32043 12.289-24.994 15.699-28.667 5.7803l17.605 92.559 0.10272-0.015c0.065 0.2718 0.13808 0.5367 0.2494 0.8068 2.1407 5.1928 10.493 5.7949 16.446 4.7241 5.953-1.0709 13.003-6.2867 12.001-10.974-0.0492-0.2297-0.12244-0.4425-0.20537-0.6602l-17.532-92.221z" style="fill:url(#linearGradient10197);stroke-linecap:round;stroke-linejoin:round;stroke-width:1.4324;stroke:#67977f"/>
   <path d="m507.91 1648.9s3.7156 7.7539 16.961 5.1551c13.246-2.5989 11.497-11.542 11.497-11.542l9.1964 47.039s-0.59197 7.93-11.472 10.863c-10.88 2.9329-16.912-4.0958-16.912-4.0958z" style="fill:url(#linearGradient10199);stroke-width:1.4324;stroke:#67977f"/>
   <path d="m514.91 1716.7 53.707-19.325-9.0104-46.594-53.233 19.918z" style="fill:none;stroke-width:1.4324;stroke:#67977f"/>
   <path d="m494.16 1687.5 20.748 29.284-8.5362-46.119-21.696-30.351z" style="fill:none;stroke-width:1.4324;stroke:#67977f"/>
   <path d="m538.07 1620.8-53.475 19.278 21.375 30.266 53.563-19.703zm-14.025 16.021c6.003 0.065 11.597 2.236 12.412 6.0444 1.0022 4.6872-6.0478 9.903-12.001 10.974-5.953 1.0708-14.291 0.4686-16.431-4.7241-2.1406-5.1927 4.5243-10.839 11.854-11.986 1.3743-0.2151 2.7812-0.3232 4.1665-0.3081z" style="fill:none;stroke-width:1.4324;stroke:#67977f"/>
   <g transform="matrix(.2917 0 0 .28875 301.35 1626.2)" style="fill:#1f638a;stroke-linecap:round;stroke-linejoin:round;stroke-width:1.2209;stroke:#1f638a">
    <path d="m207.49 126.25 34.17 21.614-34.17 21.614z" style="fill:#1f638a;stroke-linecap:round;stroke-linejoin:round;stroke-width:1.3023;stroke:#1f638a"/>
    <rect x="172.19" y="137.99" width="39.213" height="19.761" style="fill:#1f638a;stroke-linecap:round;stroke-linejoin:round;stroke-width:1.3023;stroke:#1f638a"/>
   </g>
   <path d="m106.51 1714.9 6.2254-5.1469 6.9023 14.13 6.2932-3.0743-6.9023-14.13 7.4286-1.523-19.542-14.716z" style="fill:#fff;stroke-linecap:round;stroke-linejoin:round;stroke-width:.75591;stroke:#000"/>
   <path d="m248.04 1692.3 6.2254-5.147 6.9023 14.13 6.2932-3.0742-6.9023-14.13 7.4286-1.523-19.542-14.716z" style="fill:#fff;stroke-linecap:round;stroke-linejoin:round;stroke-width:.75591;stroke:#000"/>
   <text x="127.78586" y="1715.2437" style="fill:#000000;font-family:'Arial Nova', 'Arial Unicode MS', 'Yu Gothic UI', sans-serif;font-size:12.8px;letter-spacing:0px;line-height:0%;stroke-width:1.0667;stroke:#000000;word-spacing:0px" xml:space="preserve"><tspan x="127.78586" y="1715.2437" style="font-family:'Arial Nova', 'Arial Unicode MS', 'Yu Gothic UI', sans-serif;font-size:10.667px;line-height:1.25;stroke-width:1.0667;stroke:#000000">1</tspan></text>
   <text x="268.39914" y="1692.0775" style="fill:#000000;font-family:'Arial Nova', 'Arial Unicode MS', 'Yu Gothic UI', sans-serif;font-size:12.8px;letter-spacing:0px;line-height:0%;stroke-width:1.0667;stroke:#000000;word-spacing:0px" xml:space="preserve"><tspan x="268.39914" y="1692.0775" style="font-family:'Arial Nova', 'Arial Unicode MS', 'Yu Gothic UI', sans-serif;font-size:10.667px;line-height:1.25;stroke-width:1.0667;stroke:#000000">2</tspan></text>
  </g>
  <g transform="translate(22.456 1113.8)">
   <ellipse cx="22.743" cy="-63.522" rx="13.199" ry="13.469" style="fill:#1f638a;stroke-linecap:round;stroke-linejoin:round;stroke-width:1.0658"/>
   <text x="15.727596" y="-55.886776" style="fill:#000000;font-family:'Arial Nova', 'Arial Unicode MS', 'Yu Gothic UI', sans-serif;font-size:12.8px;letter-spacing:0px;line-height:0%;stroke-width:1.0667;word-spacing:0px" xml:space="preserve"><tspan x="15.727596" y="-55.886776" style="fill:#ffffff;font-family:'Arial Nova', 'Arial Unicode MS', 'Yu Gothic UI', sans-serif;font-size:21.333px;line-height:1.25;stroke-linecap:round;stroke-linejoin:round;stroke-width:1.0658;stroke:#ffffff">D</tspan></text>
  </g>
 </g>
</svg>
