<?xml version="1.0" encoding="UTF-8"?>
<svg width="18cm" height="9cm" version="1.1" xmlns="http://www.w3.org/2000/svg" xmlns:osb="http://www.openswatchbook.org/uri/2009/osb" xmlns:xlink="http://www.w3.org/1999/xlink">
 <defs>
  <linearGradient id="linearGradient8884" x1="281.38" x2="281.2" y1="319.6" y2="387.42" gradientTransform="scale(1.0667)" gradientUnits="userSpaceOnUse">
   <stop offset="0"/>
   <stop style="stop-opacity:0" offset="1"/>
  </linearGradient>
  <linearGradient id="linearGradient8886" x1="281.32" x2="281.08" y1="378.46" y2="339.84" gradientTransform="scale(1.0667)" gradientUnits="userSpaceOnUse">
   <stop offset="0"/>
   <stop style="stop-opacity:0" offset="1"/>
  </linearGradient>
 </defs>
 <g transform="translate(0 -113.39)">
  <path d="m471.8 156.72h172.72" style="fill:#f00;stroke-dasharray:2.83464565, 2.83464565;stroke-linecap:round;stroke-linejoin:round;stroke-width:.94488;stroke:#7d7d7d"/>
  <path d="m532.14 138.89v132.37" style="fill:none;stroke-dasharray:2.83464565, 2.83464565;stroke-linecap:round;stroke-linejoin:round;stroke-width:.94488;stroke:#7d7d7d"/>
  <path d="m532.14 191v80.364" style="fill:none;stroke-linecap:round;stroke-linejoin:round;stroke-width:3.7795;stroke:#000"/>
  <path d="m565.67 156.72h78.856" style="fill:#f00;stroke-linecap:round;stroke-linejoin:round;stroke-width:3.7795;stroke:#2b0000"/>
  <path d="m566.66 154.84c-20.079 0-36.4 16.321-36.4 36.4a1.89 1.89 0 1 0 3.7667 0c0-18.036 14.597-32.633 32.633-32.633a1.89 1.89 0 1 0 0-3.7667z" style="color:#000000;fill:#fff;stroke-linecap:round;stroke-linejoin:round;stroke-width:.75591;stroke:#000;text-decoration-line:none;text-indent:0;text-transform:none"/>
  <path d="m567.61 299.89c-20.079 0-36.4 16.321-36.4 36.4a1.89 1.89 0 1 0 3.7667 0c0-18.036 14.597-32.633 32.633-32.633a1.89 1.89 0 1 0 0-3.7667z" style="color:#000000;fill:#fff;stroke-linecap:round;stroke-linejoin:round;stroke-width:.75591;stroke:#000;text-decoration-line:none;text-indent:0;text-transform:none"/>
  <g transform="translate(233.14 -2.5514)">
   <path d="m299.73 340.97a1.89 1.89 0 0 0-1.6667 1.9v54.767a1.89 1.89 0 1 0 3.7667 0v-54.767a1.89 1.89 0 0 0-2.1-1.9z" style="color:#000000;fill:#fff;stroke-linecap:round;stroke-linejoin:round;stroke-width:.75591;stroke:url(#linearGradient8884);text-decoration-line:none;text-indent:0;text-transform:none"/>
   <path d="m299.95 364.2v54.764" style="fill:none;stroke-linecap:round;stroke-linejoin:round;stroke-width:3.7795;stroke:url(#linearGradient8886)"/>
  </g>
  <g transform="matrix(0 1 1 0 229.18 1.854)">
   <path d="m299.73 340.97a1.89 1.89 0 0 0-1.6667 1.9v54.767a1.89 1.89 0 1 0 3.7667 0v-54.767a1.89 1.89 0 0 0-2.1-1.9z" style="color:#000000;fill:#fff;stroke-linecap:round;stroke-linejoin:round;stroke-width:.75591;stroke:url(#linearGradient8884);text-decoration-line:none;text-indent:0;text-transform:none"/>
   <path d="m299.95 364.2v54.764" style="fill:none;stroke-linecap:round;stroke-linejoin:round;stroke-width:3.7795;stroke:url(#linearGradient8886)"/>
  </g>
  <path d="m373.94 301.87h51.123" style="fill:#f00;stroke-linecap:round;stroke-linejoin:round;stroke-width:3.7795;stroke:#f00"/>
  <path d="m312.68 361.75v54.764" style="fill:none;stroke-linecap:round;stroke-linejoin:round;stroke-width:3.7795;stroke:#f00"/>
  <path d="m347.2 299.99c-20.079 0-36.4 16.321-36.4 36.4a1.89 1.89 0 1 0 3.7667 0c0-18.036 14.597-32.633 32.633-32.633a1.89 1.89 0 1 0 0-3.7667z" style="color:#000000;fill:#fff;stroke-linecap:round;stroke-linejoin:round;stroke-width:.75591;stroke:#000;text-decoration-line:none;text-indent:0;text-transform:none"/>
  <path d="m373.94 301.87h51.123" style="fill:#f00;stroke-linecap:round;stroke-linejoin:round;stroke-width:3.7795;stroke:#000"/>
  <path d="m312.68 361.75v54.764" style="fill:none;stroke-linecap:round;stroke-linejoin:round;stroke-width:3.7795;stroke:#000"/>
  <path d="m347.2 299.99c-20.079 0-36.4 16.321-36.4 36.4a1.89 1.89 0 1 0 3.7667 0c0-18.036 14.597-32.633 32.633-32.633a1.89 1.89 0 1 0 0-3.7667z" style="color:#000000;fill:#fff;stroke-linecap:round;stroke-linejoin:round;stroke-width:.75591;stroke:#000;text-decoration-line:none;text-indent:0;text-transform:none"/>
  <path d="m251.82 155.83h172.72" style="fill:#f00;stroke-dasharray:2.83464565, 2.83464565;stroke-linecap:round;stroke-linejoin:round;stroke-width:.94488;stroke:#7d7d7d"/>
  <path d="m312.16 139.35v131.24" style="fill:none;stroke-linecap:round;stroke-linejoin:round;stroke-width:3.7795;stroke:#000"/>
  <path d="m253.11 155.83h171.43" style="fill:#f00;stroke-linecap:round;stroke-linejoin:round;stroke-width:3.7795;stroke:#000"/>
  <path d="m346.67 153.95c-20.079 0-36.4 16.321-36.4 36.4a1.89 1.89 0 1 0 3.7667 0c0-18.036 14.597-32.633 32.633-32.633a1.89 1.89 0 1 0 0-3.7667z" style="color:#000000;fill:#fff;stroke-linecap:round;stroke-linejoin:round;stroke-width:.75591;stroke:#000;text-decoration-line:none;text-indent:0;text-transform:none"/>
  <path d="m32.173 154.14h172.72" style="fill:#f00;stroke-linecap:round;stroke-linejoin:round;stroke-width:3.7795;stroke:#f00"/>
  <path d="m92.512 136.93v132.37" style="fill:none;stroke-linecap:round;stroke-linejoin:round;stroke-width:3.7795;stroke:#f00"/>
  <path d="m103.16 167.99 24.425 21.657" style="stroke-linecap:round;stroke-linejoin:round;stroke-width:.67654;stroke:#000"/>
  <path d="m103.08 168.13 6.554 11.517 5.854-6.5193z" style="stroke-linecap:round;stroke-linejoin:round;stroke-width:1.0658;stroke:#000"/>
  <ellipse transform="matrix(.9993 -.037301 .032652 .99947 0 0)" cx="121.35" cy="194.29" rx="1.2735" ry="1.2731" style="stroke-linecap:round;stroke-linejoin:round;stroke-width:1.2329;stroke:#000"/>
  <path d="m169.22 179.09 6.2253-5.147 6.9023 14.13 6.2932-3.0742-6.9023-14.13 7.4287-1.523-19.542-14.716z" style="fill:#fff;stroke-linecap:round;stroke-linejoin:round;stroke-width:.75591;stroke:#000"/>
  <path d="m91.955 243.11 6.2253-5.147 6.9023 14.13 6.2932-3.0742-6.9023-14.13 7.4287-1.523-19.542-14.716z" style="fill:#fff;stroke-linecap:round;stroke-linejoin:round;stroke-width:.75591;stroke:#000"/>
  <path d="m94.47 190.57a34.507 34.507 0 0 1 34.507-34.507" style="fill:none;stroke-dasharray:2.26771653, 2.26771653;stroke-linecap:round;stroke-linejoin:round;stroke-width:.75591;stroke:#000"/>
  <path d="m153.83 301.94h51.123" style="fill:#f00;stroke-linecap:round;stroke-linejoin:round;stroke-width:3.7795;stroke:#f00"/>
  <path d="m92.565 361.82v54.764" style="fill:none;stroke-linecap:round;stroke-linejoin:round;stroke-width:3.7795;stroke:#f00"/>
  <path d="m153.83 301.94h51.123" style="fill:#f00;stroke-linecap:round;stroke-linejoin:round;stroke-width:3.7795;stroke:#f00"/>
  <path d="m92.565 361.82v54.764" style="fill:none;stroke-linecap:round;stroke-linejoin:round;stroke-width:3.7795;stroke:#f00"/>
  <path d="m103.18 315.43 24.425 21.657" style="stroke-linecap:round;stroke-linejoin:round;stroke-width:.67654;stroke:#000"/>
  <path d="m103.1 315.57 6.554 11.517 5.854-6.5193z" style="stroke-linecap:round;stroke-linejoin:round;stroke-width:1.0658;stroke:#000"/>
  <ellipse transform="matrix(.9993 -.037301 .032652 .99947 0 0)" cx="116.56" cy="341.62" rx="1.2735" ry="1.2731" style="stroke-linecap:round;stroke-linejoin:round;stroke-width:1.2329;stroke:#000"/>
  <path d="m92.342 335.85a34.507 34.507 0 0 1 34.507-34.507" style="fill:none;stroke-dasharray:2.26771653, 2.26771653;stroke-linecap:round;stroke-linejoin:round;stroke-width:.75591;stroke:#000"/>
  <path d="m92.993 401.49 6.2253-5.147 6.9023 14.13 6.2932-3.0742-6.9023-14.13 7.4287-1.523-19.542-14.716z" style="fill:#fff;stroke-linecap:round;stroke-linejoin:round;stroke-width:.75591;stroke:#000"/>
  <path d="m174.71 326.39 6.2254-5.1469 6.9023 14.13 6.2932-3.0742-6.9023-14.13 7.4287-1.523-19.542-14.716z" style="fill:#fff;stroke-linecap:round;stroke-linejoin:round;stroke-width:.75591;stroke:#000"/>
  <g transform="translate(172.75 340.48)">
   <ellipse cx="-44.92" cy="-98.798" rx="13.199" ry="13.469" style="fill:#1f638a;stroke-linecap:round;stroke-linejoin:round;stroke-width:1.0658"/>
   <text x="-50.761276" y="-91.125885" style="fill:#000000;font-family:'Arial Nova', 'Arial Unicode MS', 'Yu Gothic UI', sans-serif;font-size:12.8px;letter-spacing:0px;line-height:0%;stroke-width:1.0667;word-spacing:0px" xml:space="preserve"><tspan x="-50.761276" y="-91.125885" style="fill:#ffffff;font-family:'Arial Nova', 'Arial Unicode MS', 'Yu Gothic UI', sans-serif;font-size:21.333px;line-height:1.25;stroke-width:1.0667;stroke:#ffffff">1</tspan></text>
  </g>
  <g transform="translate(162.5 291.82)">
   <ellipse cx="-13.718" cy="-98.798" rx="13.199" ry="13.469" style="fill:#1f638a;stroke-linecap:round;stroke-linejoin:round;stroke-width:1.0658"/>
   <text x="-19.559933" y="-91.125885" style="fill:#000000;font-family:'Arial Nova', 'Arial Unicode MS', 'Yu Gothic UI', sans-serif;font-size:12.8px;letter-spacing:0px;line-height:0%;stroke-width:1.0667;word-spacing:0px" xml:space="preserve"><tspan x="-19.559933" y="-91.125885" style="fill:#ffffff;font-family:'Arial Nova', 'Arial Unicode MS', 'Yu Gothic UI', sans-serif;font-size:21.333px;line-height:1.25;stroke-width:1.0667;stroke:#ffffff">2</tspan></text>
  </g>
  <g transform="translate(407.54 471.37)">
   <ellipse cx="-36.9" cy="-49.598" rx="13.199" ry="13.469" style="fill:#1f638a;stroke-linecap:round;stroke-linejoin:round;stroke-width:1.0658"/>
   <text x="-44.014687" y="-41.962215" style="fill:#000000;font-family:'Arial Nova', 'Arial Unicode MS', 'Yu Gothic UI', sans-serif;font-size:12.8px;letter-spacing:0px;line-height:0%;stroke-width:1.0667;word-spacing:0px" xml:space="preserve"><tspan x="-44.014687" y="-41.962215" style="fill:#ffffff;font-family:'Arial Nova', 'Arial Unicode MS', 'Yu Gothic UI', sans-serif;font-size:21.333px;line-height:1.25;stroke-width:1.0667;stroke:#ffffff">A</tspan></text>
  </g>
  <g transform="translate(632.02 441.74)">
   <ellipse cx="-36.668" cy="-19.66" rx="13.199" ry="13.469" style="fill:#1f638a;stroke-linecap:round;stroke-linejoin:round;stroke-width:1.0658"/>
   <text x="-43.09388" y="-12.024389" style="fill:#000000;font-family:'Arial Nova', 'Arial Unicode MS', 'Yu Gothic UI', sans-serif;font-size:12.8px;letter-spacing:0px;line-height:0%;stroke-width:1.0667;word-spacing:0px" xml:space="preserve"><tspan x="-43.09388" y="-12.024389" style="fill:#ffffff;font-family:'Arial Nova', 'Arial Unicode MS', 'Yu Gothic UI', sans-serif;font-size:21.333px;line-height:1.25;stroke-width:1.0667;stroke:#ffffff">B</tspan></text>
  </g>
  <g transform="translate(175.29 498.14)">
   <ellipse cx="-44.92" cy="-98.798" rx="13.199" ry="13.469" style="fill:#1f638a;stroke-linecap:round;stroke-linejoin:round;stroke-width:1.0658"/>
   <text x="-50.761276" y="-91.125885" style="fill:#000000;font-family:'Arial Nova', 'Arial Unicode MS', 'Yu Gothic UI', sans-serif;font-size:12.8px;letter-spacing:0px;line-height:0%;stroke-width:1.0667;word-spacing:0px" xml:space="preserve"><tspan x="-50.761276" y="-91.125885" style="fill:#ffffff;font-family:'Arial Nova', 'Arial Unicode MS', 'Yu Gothic UI', sans-serif;font-size:21.333px;line-height:1.25;stroke-width:1.0667;stroke:#ffffff">1</tspan></text>
  </g>
  <g transform="translate(158.21 440.94)">
   <ellipse cx="-13.718" cy="-98.798" rx="13.199" ry="13.469" style="fill:#1f638a;stroke-linecap:round;stroke-linejoin:round;stroke-width:1.0658"/>
   <text x="-19.559933" y="-91.125885" style="fill:#000000;font-family:'Arial Nova', 'Arial Unicode MS', 'Yu Gothic UI', sans-serif;font-size:12.8px;letter-spacing:0px;line-height:0%;stroke-width:1.0667;word-spacing:0px" xml:space="preserve"><tspan x="-19.559933" y="-91.125885" style="fill:#ffffff;font-family:'Arial Nova', 'Arial Unicode MS', 'Yu Gothic UI', sans-serif;font-size:21.333px;line-height:1.25;stroke-width:1.0667;stroke:#ffffff">2</tspan></text>
  </g>
 </g>
</svg>
