<?xml version="1.0" encoding="UTF-8"?>
<svg width="18cm" height="3.5cm" version="1.1" xmlns="http://www.w3.org/2000/svg" xmlns:osb="http://www.openswatchbook.org/uri/2009/osb">
 <g transform="translate(0 -321.26)">
  <g transform="translate(-.44433 307.23)">
   <path d="m31.488 97.131 99.832-59.868" style="fill:none;stroke-linecap:round;stroke-linejoin:round;stroke-width:3.7795;stroke:#000"/>
   <path d="m59.646 34.058 55.78 93.014" style="fill:none;stroke-linecap:round;stroke-linejoin:round;stroke-width:3.7795;stroke:#000"/>
  </g>
  <g transform="translate(-12.55 306.11)">
   <path d="m237.49 69.151 51.302-30.766" style="fill:#f00;stroke-linecap:round;stroke-linejoin:round;stroke-width:3.7795;stroke:#f00"/>
   <path d="m237.59 69.324 35.304 58.87" style="fill:none;stroke-linecap:round;stroke-linejoin:round;stroke-width:3.7795;stroke:#000"/>
   <path d="m188.96 98.254 48.529-29.103" style="fill:none;stroke-linecap:round;stroke-linejoin:round;stroke-width:3.7795;stroke:#000"/>
   <path d="m217.12 35.18 20.476 34.144" style="fill:none;stroke-linecap:round;stroke-linejoin:round;stroke-width:3.7795;stroke:#000"/>
  </g>
  <g transform="translate(10.416 308.37)">
   <path d="m370.55 67.06 35.304 58.87" style="fill:none;stroke-linecap:round;stroke-linejoin:round;stroke-width:3.7795;stroke:#000"/>
   <path d="m350.08 32.916 20.476 34.144" style="fill:none;stroke-linecap:round;stroke-linejoin:round;stroke-width:3.7795;stroke:#000"/>
   <path d="m370.5 64.967a1.89 1.89 0 0 0-1.0333 0.3l-48.533 29.1a1.8922 1.8922 0 1 0 1.9667 3.2333l48.533-29.1a1.89 1.89 0 0 0-0.93333-3.5333z" style="color:#000000;fill:#fff;stroke-linecap:round;stroke-linejoin:round;stroke-width:.75591;stroke:#000;text-decoration-line:none;text-indent:0;text-transform:none"/>
  </g>
  <g transform="translate(-502.71 141.39)">
   <ellipse cx="775.16" cy="269.59" rx="13.199" ry="13.469" style="fill:#1f638a;stroke-linecap:round;stroke-linejoin:round;stroke-width:1.0658"/>
   <text x="769.24432" y="277.12357" style="fill:#000000;font-family:'Arial Nova', 'Arial Unicode MS', 'Yu Gothic UI', sans-serif;font-size:12.8px;letter-spacing:0px;line-height:0%;stroke-width:1.0667;word-spacing:0px" xml:space="preserve"><tspan x="769.24432" y="277.12357" style="fill:#ffffff;font-family:'Arial Nova', 'Arial Unicode MS', 'Yu Gothic UI', sans-serif;font-size:21.333px;font-weight:bold;stroke-width:1.0667">1</tspan></text>
  </g>
  <path d="m246.86 386.33 6.2253-5.147 6.9023 14.13 6.2932-3.0742-6.9023-14.13 7.4287-1.523-19.542-14.716z" style="fill:#fff;stroke-linecap:round;stroke-linejoin:round;stroke-width:.75591;stroke:#000"/>
  <g transform="matrix(.2917 0 0 .28875 93.283 345.1)" style="fill:#1f638a;stroke-linecap:round;stroke-linejoin:round;stroke-width:1.2209;stroke:#1f638a">
   <path d="m207.49 126.25 34.17 21.614-34.17 21.614z" style="fill:#1f638a;stroke-linecap:round;stroke-linejoin:round;stroke-width:1.3023;stroke:#1f638a"/>
   <rect x="172.19" y="137.99" width="39.213" height="19.761" style="fill:#1f638a;stroke-linecap:round;stroke-linejoin:round;stroke-width:1.3023;stroke:#1f638a"/>
  </g>
  <g transform="matrix(.2917 0 0 .28875 239.86 345.1)" style="fill:#1f638a;stroke-linecap:round;stroke-linejoin:round;stroke-width:1.2209;stroke:#1f638a">
   <path d="m207.49 126.25 34.17 21.614-34.17 21.614z" style="fill:#1f638a;stroke-linecap:round;stroke-linejoin:round;stroke-width:1.3023;stroke:#1f638a"/>
   <rect x="172.19" y="137.99" width="39.213" height="19.761" style="fill:#1f638a;stroke-linecap:round;stroke-linejoin:round;stroke-width:1.3023;stroke:#1f638a"/>
  </g>
 </g>
</svg>
