<?xml version="1.0" encoding="UTF-8"?>
<svg width="637.8" height="194.88" version="1.1" xmlns="http://www.w3.org/2000/svg" xmlns:xlink="http://www.w3.org/1999/xlink">
 <title>Programmeferenz-Grafik</title>
 <defs>
  <linearGradient id="linearGradient10628">
   <stop style="stop-color:#fff" offset="0"/>
   <stop style="stop-color:#4fa68a" offset="1"/>
  </linearGradient>
  <linearGradient id="linearGradient6218-7-4-0-5-2-09">
   <stop style="stop-color:#ff8500" offset="0"/>
   <stop style="stop-color:#fff" offset="1"/>
  </linearGradient>
  <linearGradient id="linearGradient11054-2-6">
   <stop style="stop-color:#ff4d00" offset="0"/>
   <stop style="stop-color:#fff" offset="1"/>
  </linearGradient>
  <linearGradient id="linearGradient9864" x1="264.15" x2="603.48" y1="215.01" y2="215.01" gradientUnits="userSpaceOnUse" xlink:href="#linearGradient10628"/>
  <linearGradient id="linearGradient3197" x1="264.15" x2="603.48" y1="215.01" y2="215.01" gradientTransform="matrix(.25034 0 0 .25034 199.19 39.887)" gradientUnits="userSpaceOnUse" xlink:href="#linearGradient10628"/>
  <linearGradient id="linearGradient3203" x1="377.13" x2="373.48" y1="505.54" y2="-10.949" gradientTransform="matrix(.25034 0 0 .25034 199.19 39.887)" gradientUnits="userSpaceOnUse" xlink:href="#linearGradient11054-2-6"/>
  <linearGradient id="linearGradient3212" x1="264.15" x2="603.48" y1="215.01" y2="215.01" gradientTransform="matrix(.25034 0 0 .25034 165.85 20.285)" gradientUnits="userSpaceOnUse" xlink:href="#linearGradient10628"/>
  <linearGradient id="linearGradient3218" x1="332.75" x2="349.27" y1="465.19" y2="17.296" gradientTransform="matrix(.25034 0 0 .25034 165.85 20.285)" gradientUnits="userSpaceOnUse" xlink:href="#linearGradient11054-2-6"/>
  <linearGradient id="linearGradient3227" x1="264.15" x2="603.48" y1="215.01" y2="215.01" gradientTransform="matrix(.25034 0 0 .25034 255.86 72.601)" gradientUnits="userSpaceOnUse" xlink:href="#linearGradient10628"/>
  <linearGradient id="linearGradient3233" x1="377.13" x2="389.62" y1="461.15" y2="-2.8793" gradientTransform="matrix(.25034 0 0 .25034 255.86 72.601)" gradientUnits="userSpaceOnUse" xlink:href="#linearGradient11054-2-6"/>
  <linearGradient id="linearGradient3261" x1="264.15" x2="603.48" y1="215.01" y2="215.01" gradientTransform="matrix(.25034 0 0 .25034 412 40.453)" gradientUnits="userSpaceOnUse" xlink:href="#linearGradient10628"/>
  <linearGradient id="linearGradient3267" x1="360.99" x2="353.31" y1="364.31" y2="-152.18" gradientTransform="matrix(.25034 0 0 .25034 412 40.453)" gradientUnits="userSpaceOnUse" xlink:href="#linearGradient6218-7-4-0-5-2-09"/>
  <linearGradient id="linearGradient3276" x1="264.15" x2="603.48" y1="215.01" y2="215.01" gradientTransform="matrix(.25034 0 0 .25034 378.67 20.851)" gradientUnits="userSpaceOnUse" xlink:href="#linearGradient10628"/>
  <linearGradient id="linearGradient3282" x1="340.82" x2="349.27" y1="364.31" y2="-176.39" gradientTransform="matrix(.25034 0 0 .25034 378.67 20.851)" gradientUnits="userSpaceOnUse" xlink:href="#linearGradient6218-7-4-0-5-2-09"/>
  <linearGradient id="linearGradient3291" x1="264.15" x2="603.48" y1="215.01" y2="215.01" gradientTransform="matrix(.25034 0 0 .25034 468.67 73.166)" gradientUnits="userSpaceOnUse" xlink:href="#linearGradient10628"/>
  <linearGradient id="linearGradient3297" x1="356.96" x2="353.31" y1="344.14" y2="-164.28" gradientTransform="matrix(.25034 0 0 .25034 468.67 73.166)" gradientUnits="userSpaceOnUse" xlink:href="#linearGradient6218-7-4-0-5-2-09"/>
 </defs>
 <path d="m587.65 108.75c-3.0959 25.481-13.552 43.768-31.484 54.75v12.644l63.216-36.897 5e-3 -48.705z" style="color:#000000;fill:url(#linearGradient3291);stroke-linecap:round;stroke-linejoin:round;stroke-width:1.3429;stroke:#67977f"/>
 <path d="m587.65 108.75c-3.0959 25.481-13.552 43.768-31.484 54.75v12.644l63.216-36.897 5e-3 -48.705z" style="color:#000000;fill:url(#linearGradient3291);stroke-linecap:round;stroke-linejoin:round;stroke-width:1.3429;stroke:#67977f"/>
 <path d="m534.99 150.98c17.932-10.982 28.388-29.269 31.484-54.75l21.215 12.494c-3.0959 25.481-13.552 43.768-31.484 54.75z" style="color:#000000;fill:url(#linearGradient3297);stroke-linecap:round;stroke-linejoin:round;stroke-width:1.3429;stroke:#67977f"/>
 <path d="m534.97 150.9 21.235 12.562v12.696l-21.235-12.472z" style="color:#000000;fill:url(#linearGradient3291);stroke-linecap:round;stroke-linejoin:round;stroke-width:1.3429;stroke:#67977f"/>
 <path d="m598.15 77.83 21.432 12.644-31.864 18.145-21.306-12.455z" style="color:#000000;fill:url(#linearGradient3291);stroke-linecap:round;stroke-linejoin:round;stroke-width:1.3429;stroke:#67977f"/>
 <path d="m497.65 56.43c-3.0959 25.481-13.552 43.768-31.484 54.75v12.644l63.216-36.897 5e-3 -48.705z" style="color:#000000;fill:url(#linearGradient3276);stroke-linecap:round;stroke-linejoin:round;stroke-width:1.3429;stroke:#67977f"/>
 <path d="m497.65 56.43c-3.0959 25.481-13.552 43.768-31.484 54.75v12.644l63.216-36.897 5e-3 -48.705z" style="color:#000000;fill:url(#linearGradient3276);stroke-linecap:round;stroke-linejoin:round;stroke-width:1.3429;stroke:#67977f"/>
 <path d="m444.98 98.662c17.932-10.982 28.388-29.269 31.484-54.75l21.215 12.494c-3.0959 25.481-13.552 43.768-31.484 54.75z" style="color:#000000;fill:url(#linearGradient3282);stroke-linecap:round;stroke-linejoin:round;stroke-width:1.3429;stroke:#67977f"/>
 <path d="m444.96 98.584 21.235 12.562v12.696l-21.235-12.472z" style="color:#000000;fill:url(#linearGradient3276);stroke-linecap:round;stroke-linejoin:round;stroke-width:1.3429;stroke:#67977f"/>
 <path d="m508.14 25.515 21.432 12.644-31.864 18.145-21.306-12.455z" style="color:#000000;fill:url(#linearGradient3276);stroke-linecap:round;stroke-linejoin:round;stroke-width:1.3429;stroke:#67977f"/>
 <path d="m530.98 76.032c-3.0959 25.481-13.552 43.768-31.484 54.75v12.644l63.216-36.897 5e-3 -48.705z" style="color:#000000;fill:url(#linearGradient3261);stroke-linecap:round;stroke-linejoin:round;stroke-width:1.3429;stroke:#67977f"/>
 <path d="m530.98 76.032c-3.0959 25.481-13.552 43.768-31.484 54.75v12.644l63.216-36.897 5e-3 -48.705z" style="color:#000000;fill:url(#linearGradient3261);stroke-linecap:round;stroke-linejoin:round;stroke-width:1.3429;stroke:#67977f"/>
 <path d="m478.32 118.26c17.932-10.982 28.388-29.269 31.484-54.75l21.215 12.494c-3.0959 25.481-13.552 43.768-31.484 54.75z" style="color:#000000;fill:url(#linearGradient3267);stroke-linecap:round;stroke-linejoin:round;stroke-width:1.3429;stroke:#67977f"/>
 <path d="m478.3 118.19 21.235 12.562v12.696l-21.235-12.472z" style="color:#000000;fill:url(#linearGradient3261);stroke-linecap:round;stroke-linejoin:round;stroke-width:1.3429;stroke:#67977f"/>
 <path d="m541.48 45.117 21.432 12.644-31.864 18.145-21.306-12.455z" style="color:#000000;fill:url(#linearGradient3261);stroke-linecap:round;stroke-linejoin:round;stroke-width:1.3429;stroke:#67977f"/>
 <g transform="matrix(.25034 0 0 .25034 43.047 72.925)">
  <g style="fill:url(#linearGradient9864);stroke-width:3.9945;stroke:#67977f">
   <path d="m475.28 142.12c-12.367 101.78-54.135 174.83-125.76 218.7v50.508l252.52-147.38 0.0214-194.55z" style="color:#000000;fill:url(#linearGradient9864);stroke-linecap:round;stroke-linejoin:round;stroke-width:5.3643;stroke:#67977f"/>
   <path d="m475.28 142.12c-12.367 101.78-54.135 174.83-125.76 218.7v50.508l252.52-147.38 0.0214-194.55z" style="color:#000000;fill:url(#linearGradient9864);stroke-linecap:round;stroke-linejoin:round;stroke-width:5.3643;stroke:#67977f"/>
   <path d="m264.91 310.82c71.629-43.867 113.4-116.92 125.76-218.7l84.745 49.906c-12.367 101.78-54.135 174.83-125.76 218.7z" style="color:#000000;fill:url(#linearGradient9864);stroke-linecap:round;stroke-linejoin:round;stroke-width:5.3643;stroke:#67977f"/>
   <path d="m264.82 310.5 84.821 50.179v50.714l-84.821-49.821z" style="color:#000000;fill:url(#linearGradient9864);stroke-linecap:round;stroke-linejoin:round;stroke-width:5.3643;stroke:#67977f"/>
   <path d="m517.2 18.63 85.61 50.508-127.28 72.478-85.105-49.75z" style="color:#000000;fill:url(#linearGradient9864);stroke-linecap:round;stroke-linejoin:round;stroke-width:5.3643;stroke:#67977f"/>
  </g>
  <g transform="translate(-359.53 -208.97)" style="fill:url(#linearGradient9864);stroke-width:3.9945;stroke:#67977f">
   <path d="m475.28 142.12c-12.367 101.78-54.135 174.83-125.76 218.7v50.508l252.52-147.38 0.0214-194.55z" style="color:#000000;fill:url(#linearGradient9864);stroke-linecap:round;stroke-linejoin:round;stroke-width:5.3643;stroke:#67977f"/>
   <path d="m475.28 142.12c-12.367 101.78-54.135 174.83-125.76 218.7v50.508l252.52-147.38 0.0214-194.55z" style="color:#000000;fill:url(#linearGradient9864);stroke-linecap:round;stroke-linejoin:round;stroke-width:5.3643;stroke:#67977f"/>
   <path d="m264.91 310.82c71.629-43.867 113.4-116.92 125.76-218.7l84.745 49.906c-12.367 101.78-54.135 174.83-125.76 218.7z" style="color:#000000;fill:url(#linearGradient9864);stroke-linecap:round;stroke-linejoin:round;stroke-width:5.3643;stroke:#67977f"/>
   <path d="m264.82 310.5 84.821 50.179v50.714l-84.821-49.821z" style="color:#000000;fill:url(#linearGradient9864);stroke-linecap:round;stroke-linejoin:round;stroke-width:5.3643;stroke:#67977f"/>
   <path d="m517.2 18.63 85.61 50.508-127.28 72.478-85.105-49.75z" style="color:#000000;fill:url(#linearGradient9864);stroke-linecap:round;stroke-linejoin:round;stroke-width:5.3643;stroke:#67977f"/>
  </g>
  <g transform="translate(-226.37 -130.67)" style="fill:url(#linearGradient9864);stroke-width:3.9945;stroke:#67977f">
   <path d="m475.28 142.12c-12.367 101.78-54.135 174.83-125.76 218.7v50.508l252.52-147.38 0.0214-194.55z" style="color:#000000;fill:url(#linearGradient9864);stroke-linecap:round;stroke-linejoin:round;stroke-width:5.3643;stroke:#67977f"/>
   <path d="m475.28 142.12c-12.367 101.78-54.135 174.83-125.76 218.7v50.508l252.52-147.38 0.0214-194.55z" style="color:#000000;fill:url(#linearGradient9864);stroke-linecap:round;stroke-linejoin:round;stroke-width:5.3643;stroke:#67977f"/>
   <path d="m264.91 310.82c71.629-43.867 113.4-116.92 125.76-218.7l84.745 49.906c-12.367 101.78-54.135 174.83-125.76 218.7z" style="color:#000000;fill:url(#linearGradient9864);stroke-linecap:round;stroke-linejoin:round;stroke-width:5.3643;stroke:#67977f"/>
   <path d="m264.82 310.5 84.821 50.179v50.714l-84.821-49.821z" style="color:#000000;fill:url(#linearGradient9864);stroke-linecap:round;stroke-linejoin:round;stroke-width:5.3643;stroke:#67977f"/>
   <path d="m517.2 18.63 85.61 50.508-127.28 72.478-85.105-49.75z" style="color:#000000;fill:url(#linearGradient9864);stroke-linecap:round;stroke-linejoin:round;stroke-width:5.3643;stroke:#67977f"/>
  </g>
 </g>
 <path d="m374.84 108.18c-3.0959 25.481-13.552 43.768-31.484 54.75v12.644l63.216-36.897 5e-3 -48.705z" style="color:#000000;fill:url(#linearGradient3227);stroke-linecap:round;stroke-linejoin:round;stroke-width:1.3429;stroke:#67977f"/>
 <path d="m374.84 108.18c-3.0959 25.481-13.552 43.768-31.484 54.75v12.644l63.216-36.897 5e-3 -48.705z" style="color:#000000;fill:url(#linearGradient3227);stroke-linecap:round;stroke-linejoin:round;stroke-width:1.3429;stroke:#67977f"/>
 <path d="m322.18 150.41c17.932-10.982 28.388-29.269 31.484-54.75l21.215 12.494c-3.0959 25.481-13.552 43.768-31.484 54.75z" style="color:#000000;fill:url(#linearGradient3233);stroke-linecap:round;stroke-linejoin:round;stroke-width:1.3429;stroke:#67977f"/>
 <path d="m322.16 150.33 21.235 12.562v12.696l-21.235-12.472z" style="color:#000000;fill:url(#linearGradient3227);stroke-linecap:round;stroke-linejoin:round;stroke-width:1.3429;stroke:#67977f"/>
 <path d="m385.34 77.264 21.432 12.644-31.864 18.145-21.306-12.455z" style="color:#000000;fill:url(#linearGradient3227);stroke-linecap:round;stroke-linejoin:round;stroke-width:1.3429;stroke:#67977f"/>
 <path d="m284.84 55.864c-3.0959 25.481-13.552 43.768-31.484 54.75v12.644l63.216-36.897 5e-3 -48.705z" style="color:#000000;fill:url(#linearGradient3212);stroke-linecap:round;stroke-linejoin:round;stroke-width:1.3429;stroke:#67977f"/>
 <path d="m284.84 55.864c-3.0959 25.481-13.552 43.768-31.484 54.75v12.644l63.216-36.897 5e-3 -48.705z" style="color:#000000;fill:url(#linearGradient3212);stroke-linecap:round;stroke-linejoin:round;stroke-width:1.3429;stroke:#67977f"/>
 <path d="m232.17 98.096c17.932-10.982 28.388-29.269 31.484-54.75l21.215 12.494c-3.0959 25.481-13.552 43.768-31.484 54.75z" style="color:#000000;fill:url(#linearGradient3218);stroke-linecap:round;stroke-linejoin:round;stroke-width:1.3429;stroke:#67977f"/>
 <path d="m232.15 98.018 21.235 12.562v12.696l-21.235-12.472z" style="color:#000000;fill:url(#linearGradient3212);stroke-linecap:round;stroke-linejoin:round;stroke-width:1.3429;stroke:#67977f"/>
 <path d="m295.33 24.949 21.432 12.644-31.864 18.145-21.306-12.455z" style="color:#000000;fill:url(#linearGradient3212);stroke-linecap:round;stroke-linejoin:round;stroke-width:1.3429;stroke:#67977f"/>
 <path d="m318.17 75.466c-3.0959 25.481-13.552 43.768-31.484 54.75v12.644l63.216-36.897 5e-3 -48.705z" style="color:#000000;fill:url(#linearGradient3197);stroke-linecap:round;stroke-linejoin:round;stroke-width:1.3429;stroke:#67977f"/>
 <path d="m318.17 75.466c-3.0959 25.481-13.552 43.768-31.484 54.75v12.644l63.216-36.897 5e-3 -48.705z" style="color:#000000;fill:url(#linearGradient3197);stroke-linecap:round;stroke-linejoin:round;stroke-width:1.3429;stroke:#67977f"/>
 <path d="m265.51 117.7c17.932-10.982 28.388-29.269 31.484-54.75l21.215 12.494c-3.0959 25.481-13.552 43.768-31.484 54.75z" style="color:#000000;fill:url(#linearGradient3203);stroke-linecap:round;stroke-linejoin:round;stroke-width:1.3429;stroke:#67977f"/>
 <path d="m265.49 117.62 21.235 12.562v12.696l-21.235-12.472z" style="color:#000000;fill:url(#linearGradient3197);stroke-linecap:round;stroke-linejoin:round;stroke-width:1.3429;stroke:#67977f"/>
 <path d="m328.67 44.551 21.432 12.644-31.864 18.145-21.306-12.455z" style="color:#000000;fill:url(#linearGradient3197);stroke-linecap:round;stroke-linejoin:round;stroke-width:1.3429;stroke:#67977f"/>
 <path d="m78.967 131.93 5.8363-4.8253 6.4709 13.247 5.8999-2.8821-6.4709-13.247 6.9643-1.4278-18.321-13.796z" style="fill:#fff;stroke-linecap:round;stroke-linejoin:round;stroke-width:.70866;stroke:#000"/>
 <path d="m126.12 127.37a12.374 12.627 0 1 1-24.749 0 12.374 12.627 0 1 1 24.749 0z" style="fill:#1f638a;stroke-linecap:round;stroke-linejoin:round;stroke-width:.99921"/>
 <text x="108.26919" y="134.55769" style="fill:#000000;font-family:Sans;font-size:12px;letter-spacing:0px;line-height:125%;word-spacing:0px" xml:space="preserve"><tspan x="108.26919" y="134.55769" style="fill:#ffffff;font-family:'Arial Nova', 'Arial Unicode MS', 'Yu Gothic UI', sans-serif;font-size:20px;font-weight:bold">1</tspan></text>
 <g transform="matrix(.2917 0 0 .28875 158.27 48.324)" style="fill:#1f638a;stroke-linecap:round;stroke-linejoin:round;stroke-width:1.2209;stroke:#1f638a">
  <path d="m194.52 118.36 32.034 20.263-32.034 20.263z" style="fill:#1f638a;stroke-linecap:round;stroke-linejoin:round;stroke-width:1.2209;stroke:#1f638a"/>
  <rect x="161.43" y="127.47" width="36.762" height="18.526" style="fill:#1f638a;stroke-linecap:round;stroke-linejoin:round;stroke-width:1.2209;stroke:#1f638a"/>
 </g>
 <g transform="matrix(.2917 0 0 .28875 371.72 47.778)" style="fill:#1f638a;stroke-linecap:round;stroke-linejoin:round;stroke-width:1.2209;stroke:#1f638a">
  <path d="m194.52 118.36 32.034 20.263-32.034 20.263z" style="fill:#1f638a;stroke-linecap:round;stroke-linejoin:round;stroke-width:1.2209;stroke:#1f638a"/>
  <rect x="161.43" y="129.36" width="36.762" height="18.526" style="fill:#1f638a;stroke-linecap:round;stroke-linejoin:round;stroke-width:1.2209;stroke:#1f638a"/>
 </g>
 <path d="m297.74 134.46 5.8363-4.8253 6.4709 13.247 5.8999-2.8821-6.4709-13.247 6.9643-1.4278-18.321-13.796z" style="fill:#fff;stroke-linecap:round;stroke-linejoin:round;stroke-width:.70866;stroke:#000"/>
</svg>
