<?xml version="1.0" encoding="UTF-8"?>
<svg width="18cm" height="4.5cm" version="1.1" xmlns="http://www.w3.org/2000/svg" xmlns:xlink="http://www.w3.org/1999/xlink">
 <defs>
  <linearGradient id="linearGradient6218-7-4-0-5-2-09">
   <stop style="stop-color:#ff8500" offset="0"/>
   <stop style="stop-color:#fff" offset="1"/>
  </linearGradient>
  <linearGradient id="linearGradient11054-2-6">
   <stop style="stop-color:#ff4d00" offset="0"/>
   <stop style="stop-color:#fff" offset="1"/>
  </linearGradient>
  <linearGradient id="linearGradient7871-0-9">
   <stop style="stop-color:#fff" offset="0"/>
   <stop style="stop-color:#4fa68a" offset="1"/>
  </linearGradient>
  <linearGradient id="linearGradient10371" x1="33.067" x2="74.912" y1="959.53" y2="984.03" gradientTransform="matrix(1.0667 0 0 1.0667 213.43 20.762)" gradientUnits="userSpaceOnUse" xlink:href="#linearGradient7871-0-9"/>
  <linearGradient id="linearGradient10380" x1="97.472" x2="139.55" y1="957.49" y2="982.49" gradientTransform="matrix(1.0667 0 0 1.0667 213.43 20.762)" gradientUnits="userSpaceOnUse" xlink:href="#linearGradient7871-0-9"/>
  <linearGradient id="linearGradient10383" x1="136.33" x2="136.77" y1="936.93" y2="995.52" gradientTransform="matrix(1.0667 0 0 1.0667 213.43 20.762)" gradientUnits="userSpaceOnUse" xlink:href="#linearGradient7871-0-9"/>
  <linearGradient id="linearGradient10386" x1="120.96" x2="120.88" y1="941.91" y2="995.7" gradientTransform="matrix(1.0667 0 0 1.0667 213.43 20.762)" gradientUnits="userSpaceOnUse" xlink:href="#linearGradient7871-0-9"/>
  <linearGradient id="linearGradient10389" x1="65.539" x2="64.639" y1="945.6" y2="994.34" gradientTransform="matrix(1.0667 0 0 1.0667 213.43 20.762)" gradientUnits="userSpaceOnUse" xlink:href="#linearGradient7871-0-9"/>
  <linearGradient id="linearGradient10392" x1="40.895" x2="40.934" y1="965.66" y2="997.73" gradientTransform="matrix(1.0667 0 0 1.0667 213.43 20.762)" gradientUnits="userSpaceOnUse" xlink:href="#linearGradient7871-0-9"/>
  <linearGradient id="linearGradient10412" x1="160.85" x2="160.85" y1="183.56" y2="233.56" gradientTransform="matrix(1.0667 0 0 1.0667 -13.282 804.61)" gradientUnits="userSpaceOnUse" xlink:href="#linearGradient7871-0-9"/>
  <linearGradient id="linearGradient10415" x1="180.58" x2="180.22" y1="189.48" y2="239.92" gradientTransform="matrix(1.0667 0 0 1.0667 -13.282 804.61)" gradientUnits="userSpaceOnUse" xlink:href="#linearGradient7871-0-9"/>
  <linearGradient id="linearGradient10421" x1="161.02" x2="161.08" y1="955.7" y2="967.67" gradientTransform="matrix(1.0667 0 0 1.0667 -13.282 22.248)" gradientUnits="userSpaceOnUse" xlink:href="#linearGradient7871-0-9"/>
  <linearGradient id="linearGradient10427" x1="168.03" x2="167.73" y1="921.96" y2="969.01" gradientTransform="matrix(1.0667 0 0 1.0667 -13.282 22.248)" gradientUnits="userSpaceOnUse" xlink:href="#linearGradient7871-0-9"/>
  <linearGradient id="linearGradient10430" x1="198.99" x2="150.87" y1="926.77" y2="955.08" gradientTransform="matrix(1.0667 0 0 1.0667 -13.282 22.248)" gradientUnits="userSpaceOnUse" xlink:href="#linearGradient7871-0-9"/>
  <linearGradient id="linearGradient10433" x1="170.63" x2="170.8" y1="916.5" y2="949.18" gradientTransform="matrix(1.0667 0 0 1.0667 -13.282 22.248)" gradientUnits="userSpaceOnUse" xlink:href="#linearGradient7871-0-9"/>
  <linearGradient id="linearGradient10436" x1="136.85" x2="174.88" y1="924.37" y2="949.2" gradientTransform="matrix(1.0667 0 0 1.0667 -13.282 22.248)" gradientUnits="userSpaceOnUse" xlink:href="#linearGradient7871-0-9"/>
  <linearGradient id="linearGradient10439" x1="133.52" x2="146.69" y1="944.47" y2="944.65" gradientTransform="matrix(1.0667 0 0 1.0667 -13.282 22.248)" gradientUnits="userSpaceOnUse" xlink:href="#linearGradient7871-0-9"/>
  <linearGradient id="linearGradient10442" x1="130.88" x2="157.33" y1="955.54" y2="941.7" gradientTransform="matrix(1.0667 0 0 1.0667 -13.282 22.248)" gradientUnits="userSpaceOnUse" xlink:href="#linearGradient7871-0-9"/>
  <linearGradient id="linearGradient10445" x1="109.92" x2="109.18" y1="972.77" y2="1006.6" gradientTransform="matrix(1.0667 0 0 1.0667 -13.282 22.248)" gradientUnits="userSpaceOnUse" xlink:href="#linearGradient7871-0-9"/>
  <linearGradient id="linearGradient10448" x1="33.067" x2="74.912" y1="959.53" y2="984.03" gradientTransform="matrix(1.0667 0 0 1.0667 -13.282 22.248)" gradientUnits="userSpaceOnUse" xlink:href="#linearGradient7871-0-9"/>
  <linearGradient id="linearGradient10451" x1="89.257" x2="87.753" y1="968.92" y2="1008.8" gradientTransform="matrix(1.0667 0 0 1.0667 -13.282 22.248)" gradientUnits="userSpaceOnUse" xlink:href="#linearGradient7871-0-9"/>
  <linearGradient id="linearGradient10454" x1="105.93" x2="105.93" y1="945.99" y2="1001.3" gradientTransform="matrix(1.0667 0 0 1.0667 -13.282 22.248)" gradientUnits="userSpaceOnUse" xlink:href="#linearGradient7871-0-9"/>
  <linearGradient id="linearGradient10457" x1="97.472" x2="139.55" y1="957.49" y2="982.49" gradientTransform="matrix(1.0667 0 0 1.0667 -13.282 22.248)" gradientUnits="userSpaceOnUse" xlink:href="#linearGradient7871-0-9"/>
  <linearGradient id="linearGradient10460" x1="136.33" x2="136.77" y1="936.93" y2="995.52" gradientTransform="matrix(1.0667 0 0 1.0667 -13.282 22.248)" gradientUnits="userSpaceOnUse" xlink:href="#linearGradient7871-0-9"/>
  <linearGradient id="linearGradient10463" x1="120.96" x2="120.88" y1="941.91" y2="995.7" gradientTransform="matrix(1.0667 0 0 1.0667 -13.282 22.248)" gradientUnits="userSpaceOnUse" xlink:href="#linearGradient7871-0-9"/>
  <linearGradient id="linearGradient10466" x1="65.539" x2="64.639" y1="945.6" y2="994.34" gradientTransform="matrix(1.0667 0 0 1.0667 -13.282 22.248)" gradientUnits="userSpaceOnUse" xlink:href="#linearGradient7871-0-9"/>
  <linearGradient id="linearGradient10469" x1="40.895" x2="40.934" y1="965.66" y2="997.73" gradientTransform="matrix(1.0667 0 0 1.0667 -13.282 22.248)" gradientUnits="userSpaceOnUse" xlink:href="#linearGradient7871-0-9"/>
  <linearGradient id="linearGradient10472" x1="132.54" x2="145.1" y1="955.07" y2="989.92" gradientTransform="matrix(1.0667 0 0 1.0667 -13.282 22.248)" gradientUnits="userSpaceOnUse" xlink:href="#linearGradient7871-0-9"/>
  <linearGradient id="linearGradient10475" x1="193.37" x2="203.28" y1="922.2" y2="958.31" gradientTransform="matrix(1.0667 0 0 1.0667 -13.282 22.248)" gradientUnits="userSpaceOnUse" xlink:href="#linearGradient7871-0-9"/>
  <linearGradient id="linearGradient10478" x1="75.045" x2="255.77" y1="913.81" y2="1034.6" gradientTransform="matrix(1.0667 0 0 1.0667 -13.282 22.248)" gradientUnits="userSpaceOnUse" xlink:href="#linearGradient7871-0-9"/>
  <linearGradient id="linearGradient10517" x1="33.067" x2="74.912" y1="959.53" y2="984.03" gradientTransform="matrix(1.0667 0 0 1.0667 438.53 20.762)" gradientUnits="userSpaceOnUse" xlink:href="#linearGradient7871-0-9"/>
  <linearGradient id="linearGradient10526" x1="97.472" x2="139.55" y1="957.49" y2="982.49" gradientTransform="matrix(1.0667 0 0 1.0667 438.53 20.762)" gradientUnits="userSpaceOnUse" xlink:href="#linearGradient7871-0-9"/>
  <linearGradient id="linearGradient10529" x1="136.33" x2="136.77" y1="936.93" y2="995.52" gradientTransform="matrix(1.0667 0 0 1.0667 438.53 20.762)" gradientUnits="userSpaceOnUse" xlink:href="#linearGradient7871-0-9"/>
  <linearGradient id="linearGradient10532" x1="120.96" x2="120.88" y1="941.91" y2="995.7" gradientTransform="matrix(1.0667 0 0 1.0667 438.53 20.762)" gradientUnits="userSpaceOnUse" xlink:href="#linearGradient7871-0-9"/>
  <linearGradient id="linearGradient10535" x1="65.539" x2="64.639" y1="945.6" y2="994.34" gradientTransform="matrix(1.0667 0 0 1.0667 438.53 20.762)" gradientUnits="userSpaceOnUse" xlink:href="#linearGradient7871-0-9"/>
  <linearGradient id="linearGradient10538" x1="40.895" x2="40.934" y1="965.66" y2="997.73" gradientTransform="matrix(1.0667 0 0 1.0667 438.53 20.762)" gradientUnits="userSpaceOnUse" xlink:href="#linearGradient7871-0-9"/>
  <linearGradient id="linearGradient10549" x1="75.045" x2="255.77" y1="913.81" y2="1034.6" gradientTransform="matrix(1.0667 0 0 1.0667 213.38 20.762)" gradientUnits="userSpaceOnUse" xlink:href="#linearGradient7871-0-9"/>
  <linearGradient id="linearGradient10566" x1="75.045" x2="255.77" y1="913.81" y2="1034.6" gradientTransform="matrix(1.0667 0 0 1.0667 438.37 20.754)" gradientUnits="userSpaceOnUse">
   <stop style="stop-color:#fff" offset="0"/>
   <stop style="stop-color:#4fa68a" offset="1"/>
  </linearGradient>
  <linearGradient id="linearGradient10651-4" x1="168.03" x2="167.73" y1="921.96" y2="969.01" gradientTransform="matrix(1.0667 0 0 1.0667 701.38 -25.486)" gradientUnits="userSpaceOnUse" xlink:href="#linearGradient7871-0-9"/>
  <linearGradient id="linearGradient10645-4" x1="181.58" x2="181.33" y1="953.7" y2="969.86" gradientTransform="matrix(1.0667 0 0 1.0667 701.38 -25.486)" gradientUnits="userSpaceOnUse" xlink:href="#linearGradient7871-0-9"/>
  <linearGradient id="linearGradient10642-5" x1="161.02" x2="161.08" y1="955.7" y2="967.67" gradientTransform="matrix(1.0667 0 0 1.0667 701.38 -25.486)" gradientUnits="userSpaceOnUse" xlink:href="#linearGradient7871-0-9"/>
  <linearGradient id="linearGradient10639-5" x1="169.28" x2="169.19" y1="952.74" y2="965.95" gradientTransform="matrix(1.0667 0 0 1.0667 701.38 -25.486)" gradientUnits="userSpaceOnUse" xlink:href="#linearGradient7871-0-9"/>
  <linearGradient id="linearGradient10635-1" x1="180.58" x2="180.22" y1="189.48" y2="239.92" gradientTransform="matrix(1.0667 0 0 1.0667 701.38 756.88)" gradientUnits="userSpaceOnUse" xlink:href="#linearGradient7871-0-9"/>
  <linearGradient id="linearGradient10768" x1="160.85" x2="160.85" y1="183.56" y2="233.56" gradientTransform="matrix(1.0667 0 0 1.0667 701.38 756.88)" gradientUnits="userSpaceOnUse" xlink:href="#linearGradient7871-0-9"/>
  <linearGradient id="linearGradient10666-2" x1="130.88" x2="157.33" y1="955.54" y2="941.7" gradientTransform="matrix(1.0667 0 0 1.0667 701.38 -25.486)" gradientUnits="userSpaceOnUse" xlink:href="#linearGradient7871-0-9"/>
  <linearGradient id="linearGradient10663-4" x1="133.52" x2="146.69" y1="944.47" y2="944.65" gradientTransform="matrix(1.0667 0 0 1.0667 701.38 -25.486)" gradientUnits="userSpaceOnUse" xlink:href="#linearGradient7871-0-9"/>
  <linearGradient id="linearGradient10660-7" x1="136.85" x2="174.88" y1="924.37" y2="949.2" gradientTransform="matrix(1.0667 0 0 1.0667 701.38 -25.486)" gradientUnits="userSpaceOnUse" xlink:href="#linearGradient7871-0-9"/>
  <linearGradient id="linearGradient10657-8" x1="170.63" x2="170.8" y1="916.5" y2="949.18" gradientTransform="matrix(1.0667 0 0 1.0667 701.38 -25.486)" gradientUnits="userSpaceOnUse" xlink:href="#linearGradient7871-0-9"/>
  <linearGradient id="linearGradient11360" x1="198.99" x2="150.87" y1="926.77" y2="955.08" gradientTransform="matrix(1.0667 0 0 1.0667 701.38 -25.486)" gradientUnits="userSpaceOnUse" xlink:href="#linearGradient7871-0-9"/>
  <linearGradient id="linearGradient12661" x1="169.28" x2="169.19" y1="952.74" y2="965.95" gradientTransform="matrix(1.0667 0 0 1.0667 -13.241 22.232)" gradientUnits="userSpaceOnUse" xlink:href="#linearGradient7871-0-9"/>
  <linearGradient id="linearGradient12663" x1="181.58" x2="181.33" y1="953.7" y2="969.86" gradientTransform="matrix(1.0667 0 0 1.0667 -13.471 22.078)" gradientUnits="userSpaceOnUse" xlink:href="#linearGradient7871-0-9"/>
  <linearGradient id="linearGradient10699-9" x1="193.37" x2="203.28" y1="922.2" y2="958.31" gradientTransform="matrix(1.0667 0 0 1.0667 701.38 -25.486)" gradientUnits="userSpaceOnUse" xlink:href="#linearGradient7871-0-9"/>
  <linearGradient id="linearGradient12699" x1="132.54" x2="145.1" y1="955.07" y2="989.92" gradientTransform="matrix(1.0667 0 0 1.0667 701.38 -25.486)" gradientUnits="userSpaceOnUse" xlink:href="#linearGradient7871-0-9"/>
  <linearGradient id="linearGradient12759" x1="106.46" x2="106.65" y1="1034.4" y2="929.15" gradientTransform="matrix(1.0667 0 0 1.0667 213.43 20.762)" gradientUnits="userSpaceOnUse" xlink:href="#linearGradient11054-2-6"/>
  <linearGradient id="linearGradient12761" x1="87.828" x2="88.824" y1="1031.2" y2="946.5" gradientTransform="matrix(1.0667 0 0 1.0667 213.43 20.762)" gradientUnits="userSpaceOnUse" xlink:href="#linearGradient11054-2-6"/>
  <linearGradient id="linearGradient12763" x1="108.31" x2="110.25" y1="1034.2" y2="918.75" gradientTransform="matrix(1.0667 0 0 1.0667 213.43 20.762)" gradientUnits="userSpaceOnUse" xlink:href="#linearGradient11054-2-6"/>
  <linearGradient id="linearGradient12765" x1="108.49" x2="108.83" y1="1018.9" y2="938.04" gradientTransform="matrix(1.0667 0 0 1.0667 438.53 20.762)" gradientUnits="userSpaceOnUse" xlink:href="#linearGradient6218-7-4-0-5-2-09"/>
  <linearGradient id="linearGradient12767" x1="88.543" x2="88.824" y1="1013" y2="947.75" gradientTransform="matrix(1.0667 0 0 1.0667 438.53 20.762)" gradientUnits="userSpaceOnUse" xlink:href="#linearGradient6218-7-4-0-5-2-09"/>
  <linearGradient id="linearGradient12769" x1="80.926" x2="80.399" y1="1006.5" y2="951.65" gradientTransform="matrix(1.0667 0 0 1.0667 438.53 20.762)" gradientUnits="userSpaceOnUse" xlink:href="#linearGradient6218-7-4-0-5-2-09"/>
 </defs>
 <g transform="translate(0 -952.44)">
  <path d="m284.29 1048.1-20.958-12.222 113.27-65.439 59.429 34.357-27.167 15.736-13.549-7.929c-4.8607-2.3265-9.4582-2.1962-13.832 0.021l-20.434 11.624c-3.2493 2.0241-3.8814 5.6914-0.3043 7.8577l14.065 8.141-15.443 8.7786-17.171-9.8766-15.428 9.0374c-14.097-3.2841-28.264-2.8778-42.476-0.086z" style="color:#000000;fill:url(#linearGradient10549);stroke-linecap:round;stroke-linejoin:round;stroke-width:.67654;stroke:#67977f"/>
  <path d="m509.28 1048.1-20.958-12.222 113.27-65.439 59.429 34.357-27.167 15.736-13.549-7.929c-4.8607-2.3264-9.4582-2.1962-13.832 0.021l-20.434 11.624c-3.2493 2.0241-3.8814 5.6914-0.3043 7.8577l14.065 8.141-15.443 8.7786-17.171-9.8766-15.428 9.0374c-14.097-3.2841-28.264-2.8778-42.476-0.086z" style="color:#000000;fill:url(#linearGradient10566);stroke-linecap:round;stroke-linejoin:round;stroke-width:.67654;stroke:#67977f"/>
  <path d="m471.17 1085.5 0.0861-22.809 17.644 10.07 17.731 21.776v11.189z" style="color:#000000;fill:url(#linearGradient10538);stroke-linecap:round;stroke-linejoin:round;stroke-width:.67654;stroke:#67977f"/>
  <path d="m488.39 1052.6 21.173 12.308-0.0861-16.698-21.173-12.308z" style="color:#000000;fill:url(#linearGradient10535);stroke-linecap:round;stroke-linejoin:round;stroke-width:.67654;stroke:#67977f"/>
  <path d="m551.99 1065 15.407-8.8653v-16.87l-15.404 9.0425z" style="color:#000000;fill:url(#linearGradient10532);stroke-linecap:round;stroke-linejoin:round;stroke-width:.67654;stroke:#67977f"/>
  <path d="m584.62 1065.8v-16.784l-17.3-9.812v16.784z" style="color:#000000;fill:url(#linearGradient10529);stroke-linecap:round;stroke-linejoin:round;stroke-width:.67654;stroke:#67977f"/>
  <path d="m572.57 1072.7c-5.3552-3.0279-11.145-5.9351-20.571-7.8324l15.407-8.7792 17.214 9.6399z" style="color:#000000;fill:url(#linearGradient10526);stroke-linecap:round;stroke-linejoin:round;stroke-width:.67654;stroke:#67977f"/>
  <path d="m509.56 1064.9c14.637-3.0804 28.713-2.6509 42.433 0v-16.526c-14.675-3.7139-29.985-2.9349-42.433 0z" style="color:#000000;fill:url(#linearGradient12769);stroke-linecap:round;stroke-linejoin:round;stroke-width:.67654;stroke:#67977f"/>
  <path d="m506.55 1094.4c12.968-7.2763 34.715-7.9004 48.2 0l17.989-21.604c-25.212-13.928-59.682-12.917-83.919 0z" style="color:#000000;fill:url(#linearGradient12767);stroke-linecap:round;stroke-linejoin:round;stroke-width:.67654;stroke:#67977f"/>
  <path d="m471.17 1062.6 17.128-9.8121 21.173 12.222c-8.2351 1.6547-14.516 4.6772-20.485 7.9185z" style="color:#000000;fill:url(#linearGradient10517);stroke-linecap:round;stroke-linejoin:round;stroke-width:.67654;stroke:#67977f"/>
  <path d="m506.55 1105.5c13.628-7.2442 35.002-7.3 48.372 0.4303l-0.0861-11.706c-15.667-8.0533-36.69-6.2556-48.2 0.2582z" style="color:#000000;fill:url(#linearGradient12765);stroke-linecap:round;stroke-linejoin:round;stroke-width:.67654;stroke:#67977f"/>
  <path d="m57.623 1049.6-20.958-12.222 113.27-65.439 59.429 34.357-27.167 15.736-13.549-7.9289c-4.8607-2.3265-9.4582-2.1963-13.832 0.021l-20.434 11.624c-3.2493 2.024-3.8814 5.6913-0.3043 7.8576l14.065 8.1411-15.443 8.7786-17.171-9.8767-15.428 9.0375c-14.097-3.2841-28.264-2.8779-42.476-0.086z" style="color:#000000;fill:url(#linearGradient10478);stroke-linecap:round;stroke-linejoin:round;stroke-width:.67654;stroke:#67977f"/>
  <path d="m178.94 1059.7-0.17215-31.588c0.38796-2.0461 0.53079-4.1144 3.3568-5.9389l27.284-15.837v39.679l-27.026 15.665c-1.919 0.7865-3.3506 0.659-3.4428-1.9797z" style="color:#000000;fill:url(#linearGradient10475);stroke-linecap:round;stroke-linejoin:round;stroke-width:.67654;stroke:#67977f"/>
  <path d="m103.11 1107.4v-11.447l17.644-21.604 11.964-6.8856-0.0861-16.784 15.493-8.9513c1.9003-0.6387 3.2321-0.3027 3.5289 1.8074l-0.0861 32.19c-0.42467 2.846-1.844 4.6974-3.8732 5.9389z" style="color:#000000;fill:url(#linearGradient10472);stroke-linecap:round;stroke-linejoin:round;stroke-width:.67654;stroke:#67977f"/>
  <path d="m19.364 1087 0.08607-22.809 17.644 10.07 17.731 21.776v11.189z" style="color:#000000;fill:url(#linearGradient10469);stroke-linecap:round;stroke-linejoin:round;stroke-width:.67654;stroke:#67977f"/>
  <path d="m36.578 1054.1 21.173 12.308-0.08607-16.698-21.173-12.308z" style="color:#000000;fill:url(#linearGradient10466);stroke-linecap:round;stroke-linejoin:round;stroke-width:.67654;stroke:#67977f"/>
  <path d="m100.18 1066.5 15.407-8.8653v-16.87l-15.404 9.0424z" style="color:#000000;fill:url(#linearGradient10463);stroke-linecap:round;stroke-linejoin:round;stroke-width:.67654;stroke:#67977f"/>
  <path d="m132.81 1067.3v-16.784l-17.3-9.8121v16.784z" style="color:#000000;fill:url(#linearGradient10460);stroke-linecap:round;stroke-linejoin:round;stroke-width:.67654;stroke:#67977f"/>
  <path d="m120.76 1074.2c-5.3552-3.0278-11.145-5.935-20.571-7.8323l15.407-8.7793 17.214 9.64z" style="color:#000000;fill:url(#linearGradient10457);stroke-linecap:round;stroke-linejoin:round;stroke-width:.67654;stroke:#67977f"/>
  <path d="m57.752 1066.4c14.637-3.0804 28.713-2.651 42.433 0v-16.526c-14.675-3.7139-29.985-2.9349-42.433 0z" style="color:#000000;fill:url(#linearGradient10454);stroke-linecap:round;stroke-linejoin:round;stroke-width:.67654;stroke:#67977f"/>
  <path d="m54.739 1095.8c12.968-7.2763 34.715-7.9004 48.2 0l17.989-21.604c-25.212-13.928-59.682-12.917-83.919 0z" style="color:#000000;fill:url(#linearGradient10451);stroke-linecap:round;stroke-linejoin:round;stroke-width:.67654;stroke:#67977f"/>
  <path d="m19.364 1064.1 17.128-9.812 21.173 12.222c-8.2351 1.6548-14.516 4.6773-20.485 7.9185z" style="color:#000000;fill:url(#linearGradient10448);stroke-linecap:round;stroke-linejoin:round;stroke-width:.67654;stroke:#67977f"/>
  <path d="m54.739 1107c13.628-7.2442 35.002-7.3 48.372 0.4303l-0.0861-11.706c-15.667-8.0534-36.69-6.2556-48.2 0.2582z" style="color:#000000;fill:url(#linearGradient10445);stroke-linecap:round;stroke-linejoin:round;stroke-width:.67654;stroke:#67977f"/>
  <path d="m150.87 1041.8-14.391-8.4153c-0.82717-0.1002-1.6543-0.014-2.4815 0.1429l14.133 8.2116c0.75942-0.4845 1.9529-0.4128 2.7388 0.061z" style="color:#000000;fill:url(#linearGradient10442);stroke-linecap:round;stroke-linejoin:round;stroke-width:.67654;stroke:#67977f"/>
  <path d="m137.99 1031.7c0.0994-1.2711-1.6322-5.5389-3.6212-5.9948-3.4463 2.2408-3.642 6.1274-0.27387 7.8815l2.3431-0.2739c-0.43856-0.5376 0.37966-1.0752 1.552-1.6128z" style="color:#000000;fill:url(#linearGradient10439);stroke-linecap:round;stroke-linejoin:round;stroke-width:.67654;stroke:#67977f"/>
  <path d="m158.25 1020c-0.18602-3.0366-1.8814-5.0542-3.3169-5.9644l-20.388 11.594c1.852 1.2041 3.34 3.832 3.4386 6.1165z" style="color:#000000;fill:url(#linearGradient10436);stroke-linecap:round;stroke-linejoin:round;stroke-width:.67654;stroke:#67977f"/>
  <path d="m165.07 1019.9c0.4998-2.0384 0.66119-4.1332 3.4995-5.7818-4.336-2.2091-8.8608-2.3043-13.602 0.03 2.4378 1.6497 3.2249 4.3257 3.2865 5.9413 2.4241-1.0327 4.6026-1.2123 6.8164-0.19z" style="color:#000000;fill:url(#linearGradient10433);stroke-linecap:round;stroke-linejoin:round;stroke-width:.67654;stroke:#67977f"/>
  <path d="m178.79 1027.9-13.672-7.9765c0.29143-2.503 1.1392-4.5431 3.4365-5.8426l13.701 8.0121c-1.9342 0.9979-2.9647 3.0889-3.4654 5.807z" style="color:#000000;fill:url(#linearGradient10430);stroke-linecap:round;stroke-linejoin:round;stroke-width:.67654;stroke:#67977f"/>
  <path d="m158.19 1051.8c2.6374-1.196 4.929-1.0331 6.999 0l-0.0456-31.861c-1.8489-0.9291-4.2238-0.9883-6.8621 0.091z" style="color:#000000;fill:url(#linearGradient10427);stroke-linecap:round;stroke-linejoin:round;stroke-width:.67654;stroke:#67977f"/>
  <path d="m178.69 1059.4-13.75-7.8539c-0.01 1.0929 0.64131 2.0271 2.0657 2.7757l12.609 7.3376c-0.97561-0.7114-0.81057-1.4942-0.92526-2.2594z" style="color:#000000;fill:url(#linearGradient12663);stroke-linecap:round;stroke-linejoin:round;stroke-width:.67654;stroke:#67977f"/>
  <path d="m151.57 1055.6 0.0215 1.5277 5.1642-3.077c0.84087-0.5825 1.4569-1.2848 1.4417-2.3239z" style="color:#000000;fill:url(#linearGradient10421);stroke-linecap:round;stroke-linejoin:round;stroke-width:.67654;stroke:#67977f"/>
  <path d="m165.27 1051.7c-2.2665-1.0903-4.6191-1.0903-7.0578 0-0.12888 0.9264-0.27632 1.8497-1.6951 2.5518 3.3407-2.0261 6.9113-1.9475 10.367 0.043-1.5477-0.7207-1.6459-1.6485-1.6138-2.5949z" style="color:#000000;fill:url(#linearGradient12661);stroke-linecap:round;stroke-linejoin:round;stroke-width:.67654;stroke:#67977f"/>
  <path d="m165.19 1051.7v-31.714l13.709 7.9146v31.419z" style="color:#000000;fill-rule:evenodd;fill:url(#linearGradient10415);stroke-linecap:round;stroke-linejoin:round;stroke-width:.67654;stroke:#67977f"/>
  <path d="m158.24 1020v31.714l-6.4957 3.7503-0.0673-11.845c-0.0769-0.934-0.51076-1.6895-1.4847-2.175l-13.813-8.1153c-0.22554-0.6797 0.77475-1.1142 1.6286-1.578z" style="color:#000000;fill:url(#linearGradient10412);stroke-linecap:round;stroke-linejoin:round;stroke-width:.67654;stroke:#67977f"/>
  <path d="m78.672 1098.3 6.2254-5.147 6.9023 14.13 6.2932-3.0742-6.9023-14.13 7.4286-1.5229-19.542-14.716z" style="fill:#fff;stroke-linecap:round;stroke-linejoin:round;stroke-width:.75591;stroke:#000"/>
  <g transform="translate(-116.63 778.86)">
   <ellipse cx="230.42" cy="311.21" rx="13.199" ry="13.469" style="fill:#1f638a;stroke-linecap:round;stroke-linejoin:round;stroke-width:1.0658"/>
   <text x="224.84752" y="318.87271" style="fill:#000000;font-family:'Arial Nova', 'Arial Unicode MS', 'Yu Gothic UI', sans-serif;font-size:12.8px;letter-spacing:0px;line-height:0%;stroke-width:1.0667;word-spacing:0px" xml:space="preserve"><tspan x="224.84752" y="318.87271" style="fill:#ffffff;font-family:'Arial Nova', 'Arial Unicode MS', 'Yu Gothic UI', sans-serif;font-size:21.333px;font-weight:bold;stroke-width:1.0667">1</tspan></text>
  </g>
  <g transform="matrix(.2917 0 0 .28875 410.73 971.82)" style="fill:#1f638a;stroke-linecap:round;stroke-linejoin:round;stroke-width:1.2209;stroke:#1f638a">
   <path d="m207.49 126.25 34.17 21.614-34.17 21.614z" style="fill:#1f638a;stroke-linecap:round;stroke-linejoin:round;stroke-width:1.3023;stroke:#1f638a"/>
   <rect x="172.19" y="137.99" width="39.213" height="19.761" style="fill:#1f638a;stroke-linecap:round;stroke-linejoin:round;stroke-width:1.3023;stroke:#1f638a"/>
  </g>
  <path d="m246.07 1085.5 0.0861-22.809 17.644 10.07 17.731 21.776v11.189z" style="color:#000000;fill:url(#linearGradient10392);stroke-linecap:round;stroke-linejoin:round;stroke-width:.67654;stroke:#67977f"/>
  <path d="m263.29 1052.6 21.173 12.308-0.0861-16.698-21.173-12.308z" style="color:#000000;fill:url(#linearGradient10389);stroke-linecap:round;stroke-linejoin:round;stroke-width:.67654;stroke:#67977f"/>
  <path d="m326.9 1065 15.407-8.8653v-16.87l-15.404 9.0425z" style="color:#000000;fill:url(#linearGradient10386);stroke-linecap:round;stroke-linejoin:round;stroke-width:.67654;stroke:#67977f"/>
  <path d="m359.52 1065.8v-16.784l-17.3-9.812v16.784z" style="color:#000000;fill:url(#linearGradient10383);stroke-linecap:round;stroke-linejoin:round;stroke-width:.67654;stroke:#67977f"/>
  <path d="m347.47 1072.7c-5.3552-3.0279-11.145-5.9351-20.571-7.8324l15.407-8.7792 17.214 9.6399z" style="color:#000000;fill:url(#linearGradient10380);stroke-linecap:round;stroke-linejoin:round;stroke-width:.67654;stroke:#67977f"/>
  <path d="m284.46 1064.9c14.637-3.0804 28.713-2.6509 42.433 0v-16.526c-14.675-3.7139-29.985-2.9349-42.433 0z" style="color:#000000;fill:url(#linearGradient12759);stroke-linecap:round;stroke-linejoin:round;stroke-width:.67654;stroke:#67977f"/>
  <path d="m281.45 1094.4c12.968-7.2763 34.715-7.9004 48.2 0l17.989-21.604c-25.212-13.928-59.682-12.917-83.919 0z" style="color:#000000;fill:url(#linearGradient12761);stroke-linecap:round;stroke-linejoin:round;stroke-width:.67654;stroke:#67977f"/>
  <path d="m246.07 1062.6 17.128-9.8121 21.173 12.222c-8.2351 1.6547-14.516 4.6772-20.485 7.9185z" style="color:#000000;fill:url(#linearGradient10371);stroke-linecap:round;stroke-linejoin:round;stroke-width:.67654;stroke:#67977f"/>
  <path d="m281.45 1105.5c13.628-7.2442 35.002-7.3 48.372 0.4303l-0.0861-11.706c-15.667-8.0533-36.69-6.2556-48.2 0.2582z" style="color:#000000;fill:url(#linearGradient12763);stroke-linecap:round;stroke-linejoin:round;stroke-width:.67654;stroke:#67977f"/>
  <g transform="matrix(.2917 0 0 .28875 185.63 971.82)" style="fill:#1f638a;stroke-linecap:round;stroke-linejoin:round;stroke-width:1.2209;stroke:#1f638a">
   <path d="m207.49 126.25 34.17 21.614-34.17 21.614z" style="fill:#1f638a;stroke-linecap:round;stroke-linejoin:round;stroke-width:1.3023;stroke:#1f638a"/>
   <rect x="172.19" y="137.99" width="39.213" height="19.761" style="fill:#1f638a;stroke-linecap:round;stroke-linejoin:round;stroke-width:1.3023;stroke:#1f638a"/>
  </g>
  <g transform="translate(-263.03 46.318)">
   <path d="m872.86 1004c2.6374-1.196 4.929-1.0331 6.999 0l-0.0457-31.861c-1.8489-0.92909-4.2238-0.98834-6.8621 0.0913z" style="color:#000000;fill:url(#linearGradient10651-4);stroke-linecap:round;stroke-linejoin:round;stroke-width:.67654;stroke:#67977f"/>
   <path d="m893.54 1011.8-13.75-7.8539c-0.01 1.0929 0.64131 2.0271 2.0657 2.7757l12.609 7.3376c-0.97561-0.7115-0.81057-1.4942-0.92526-2.2594z" style="color:#000000;fill:url(#linearGradient10645-4);stroke-linecap:round;stroke-linejoin:round;stroke-width:.67654;stroke:#67977f"/>
   <path d="m866.24 1007.9 0.0216 1.5277 5.1642-3.077c0.84088-0.5825 1.4569-1.2849 1.4417-2.3239z" style="color:#000000;fill:url(#linearGradient10642-5);stroke-linecap:round;stroke-linejoin:round;stroke-width:.67654;stroke:#67977f"/>
   <path d="m879.9 1004c-2.2665-1.0903-4.6191-1.0903-7.0578 0-0.12888 0.9264-0.27632 1.8496-1.6951 2.5518 3.3407-2.0261 6.9113-1.9475 10.367 0.043-1.5477-0.7207-1.6459-1.6485-1.6138-2.5949z" style="color:#000000;fill:url(#linearGradient10639-5);stroke-linecap:round;stroke-linejoin:round;stroke-width:.67654;stroke:#67977f"/>
   <path d="m879.86 1004v-31.714l13.709 7.9146v31.419z" style="color:#000000;fill-rule:evenodd;fill:url(#linearGradient10635-1);stroke-linecap:round;stroke-linejoin:round;stroke-width:.67654;stroke:#67977f"/>
   <path d="m872.91 972.27v31.714l-6.4957 3.7503-0.0673-11.845c-0.0769-0.93399-0.51076-1.6895-1.4847-2.175l-13.813-8.1153c-0.22555-0.67969 0.77474-1.1142 1.6285-1.578z" style="color:#000000;fill:url(#linearGradient10768);stroke-linecap:round;stroke-linejoin:round;stroke-width:.67654;stroke:#67977f"/>
  </g>
  <g transform="translate(-488.07 46.223)">
   <path d="m872.86 1004c2.6374-1.196 4.929-1.0331 6.999 0l-0.0457-31.861c-1.8489-0.92909-4.2238-0.98834-6.8621 0.0913z" style="color:#000000;fill:url(#linearGradient10651-4);stroke-linecap:round;stroke-linejoin:round;stroke-width:.67654;stroke:#67977f"/>
   <path d="m893.54 1011.8-13.75-7.8539c-0.01 1.0929 0.64131 2.0271 2.0657 2.7757l12.609 7.3376c-0.97561-0.7115-0.81057-1.4942-0.92526-2.2594z" style="color:#000000;fill:url(#linearGradient10645-4);stroke-linecap:round;stroke-linejoin:round;stroke-width:.67654;stroke:#67977f"/>
   <path d="m866.24 1007.9 0.0216 1.5277 5.1642-3.077c0.84088-0.5825 1.4569-1.2849 1.4417-2.3239z" style="color:#000000;fill:url(#linearGradient10642-5);stroke-linecap:round;stroke-linejoin:round;stroke-width:.67654;stroke:#67977f"/>
   <path d="m879.9 1004c-2.2665-1.0903-4.6191-1.0903-7.0578 0-0.12888 0.9264-0.27632 1.8496-1.6951 2.5518 3.3407-2.0261 6.9113-1.9475 10.367 0.043-1.5477-0.7207-1.6459-1.6485-1.6138-2.5949z" style="color:#000000;fill:url(#linearGradient10639-5);stroke-linecap:round;stroke-linejoin:round;stroke-width:.67654;stroke:#67977f"/>
   <path d="m879.86 1004v-31.714l13.709 7.9146v31.419z" style="color:#000000;fill-rule:evenodd;fill:url(#linearGradient10635-1);stroke-linecap:round;stroke-linejoin:round;stroke-width:.67654;stroke:#67977f"/>
   <path d="m872.91 972.27v31.714l-6.4957 3.7503-0.0673-11.845c-0.0769-0.93399-0.51076-1.6895-1.4847-2.175l-13.813-8.1153c-0.22555-0.67969 0.77474-1.1142 1.6285-1.578z" style="color:#000000;fill:url(#linearGradient10768);stroke-linecap:round;stroke-linejoin:round;stroke-width:.67654;stroke:#67977f"/>
  </g>
  <path d="m305.48 1098.2 6.2254-5.1469 6.9023 14.13 6.2932-3.0741-6.9023-14.13 7.4286-1.5229-19.542-14.716z" style="fill:#fff;stroke-linecap:round;stroke-linejoin:round;stroke-width:.75591;stroke:#000"/>
  <g transform="translate(-262.96 46.287)">
   <path d="m865.53 994.08-14.391-8.4154c-0.82717-0.10016-1.6543-0.0139-2.4815 0.14292l14.133 8.2116c0.75941-0.4845 1.9529-0.41278 2.7388 0.0609z" style="color:#000000;fill:url(#linearGradient10666-2);stroke-linecap:round;stroke-linejoin:round;stroke-width:.67654;stroke:#67977f"/>
   <path d="m852.65 984c0.0994-1.2711-1.6322-5.5389-3.6212-5.9948-3.4463 2.2408-3.642 6.1274-0.27388 7.8815l2.3432-0.27388c-0.43856-0.53761 0.37966-1.0752 1.552-1.6128z" style="color:#000000;fill:url(#linearGradient10663-4);stroke-linecap:round;stroke-linejoin:round;stroke-width:.67654;stroke:#67977f"/>
   <path d="m872.92 972.29c-0.18603-3.0366-1.8814-5.0542-3.3169-5.9644l-20.388 11.594c1.852 1.2041 3.3401 3.832 3.4387 6.1165z" style="color:#000000;fill:url(#linearGradient10660-7);stroke-linecap:round;stroke-linejoin:round;stroke-width:.67654;stroke:#67977f"/>
   <path d="m879.74 972.14c0.4998-2.0384 0.66118-4.1332 3.4995-5.7818-4.336-2.2091-8.8608-2.3043-13.602 0.0304 2.4378 1.6498 3.2249 4.3258 3.2865 5.9413 2.4241-1.0327 4.6026-1.2123 6.8164-0.18996z" style="color:#000000;fill:url(#linearGradient10657-8);stroke-linecap:round;stroke-linejoin:round;stroke-width:.67654;stroke:#67977f"/>
   <path d="m893.46 980.17-13.672-7.9765c0.29142-2.503 1.1392-4.5431 3.4365-5.8427l13.701 8.0122c-1.9342 0.99786-2.9647 3.0889-3.4654 5.807z" style="color:#000000;fill:url(#linearGradient11360);stroke-linecap:round;stroke-linejoin:round;stroke-width:.67654;stroke:#67977f"/>
  </g>
  <g transform="translate(-488.01 46.192)">
   <path d="m865.53 994.08-14.391-8.4154c-0.82717-0.10016-1.6543-0.0139-2.4815 0.14292l14.133 8.2116c0.75941-0.4845 1.9529-0.41278 2.7388 0.0609z" style="color:#000000;fill:url(#linearGradient10666-2);stroke-linecap:round;stroke-linejoin:round;stroke-width:.67654;stroke:#67977f"/>
   <path d="m852.65 984c0.0994-1.2711-1.6322-5.5389-3.6212-5.9948-3.4463 2.2408-3.642 6.1274-0.27388 7.8815l2.3432-0.27388c-0.43856-0.53761 0.37966-1.0752 1.552-1.6128z" style="color:#000000;fill:url(#linearGradient10663-4);stroke-linecap:round;stroke-linejoin:round;stroke-width:.67654;stroke:#67977f"/>
   <path d="m872.92 972.29c-0.18603-3.0366-1.8814-5.0542-3.3169-5.9644l-20.388 11.594c1.852 1.2041 3.3401 3.832 3.4387 6.1165z" style="color:#000000;fill:url(#linearGradient10660-7);stroke-linecap:round;stroke-linejoin:round;stroke-width:.67654;stroke:#67977f"/>
   <path d="m879.74 972.14c0.4998-2.0384 0.66118-4.1332 3.4995-5.7818-4.336-2.2091-8.8608-2.3043-13.602 0.0304 2.4378 1.6498 3.2249 4.3258 3.2865 5.9413 2.4241-1.0327 4.6026-1.2123 6.8164-0.18996z" style="color:#000000;fill:url(#linearGradient10657-8);stroke-linecap:round;stroke-linejoin:round;stroke-width:.67654;stroke:#67977f"/>
   <path d="m893.46 980.17-13.672-7.9765c0.29142-2.503 1.1392-4.5431 3.4365-5.8427l13.701 8.0122c-1.9342 0.99786-2.9647 3.0889-3.4654 5.807z" style="color:#000000;fill:url(#linearGradient11360);stroke-linecap:round;stroke-linejoin:round;stroke-width:.67654;stroke:#67977f"/>
  </g>
  <g transform="translate(-488.01 46.289)">
   <path d="m893.61 1012-0.17215-31.588c0.38796-2.0461 0.53078-4.1144 3.3568-5.9389l27.284-15.837v39.679l-27.026 15.665c-1.919 0.7865-3.3506 0.659-3.4428-1.9796z" style="color:#000000;fill:url(#linearGradient10699-9);stroke-linecap:round;stroke-linejoin:round;stroke-width:.67654;stroke:#67977f"/>
   <path d="m817.78 1059.6v-11.447l17.644-21.604 11.964-6.8856-0.0861-16.784 15.493-8.9514c1.9003-0.63868 3.2321-0.30266 3.5289 1.8075l-0.0861 32.19c-0.42466 2.846-1.844 4.6973-3.8732 5.9388z" style="color:#000000;fill:url(#linearGradient12699);stroke-linecap:round;stroke-linejoin:round;stroke-width:.67654;stroke:#67977f"/>
  </g>
  <g transform="translate(-262.81 46.289)">
   <path d="m893.61 1012-0.17215-31.588c0.38796-2.0461 0.53078-4.1144 3.3568-5.9389l27.284-15.837v39.679l-27.026 15.665c-1.919 0.7865-3.3506 0.659-3.4428-1.9796z" style="color:#000000;fill:url(#linearGradient10699-9);stroke-linecap:round;stroke-linejoin:round;stroke-width:.67654;stroke:#67977f"/>
   <path d="m817.78 1059.6v-11.447l17.644-21.604 11.964-6.8856-0.0861-16.784 15.493-8.9514c1.9003-0.63868 3.2321-0.30266 3.5289 1.8075l-0.0861 32.19c-0.42466 2.846-1.844 4.6973-3.8732 5.9388z" style="color:#000000;fill:url(#linearGradient12699);stroke-linecap:round;stroke-linejoin:round;stroke-width:.67654;stroke:#67977f"/>
  </g>
 </g>
</svg>
