<?xml version="1.0" encoding="UTF-8"?>
<svg width="18cm" height="6cm" version="1.1" xmlns="http://www.w3.org/2000/svg" xmlns:xlink="http://www.w3.org/1999/xlink">
 <defs>
  <linearGradient id="linearGradient7747-2-1-0-3-1">
   <stop style="stop-color:#fff" offset="0"/>
   <stop style="stop-color:#808080" offset="1"/>
  </linearGradient>
  <linearGradient id="linearGradient14428" x1="194.61" x2="151.51" y1="166.59" y2="165.52" gradientTransform="matrix(.75034 0 0 .75034 -2.9913 97.313)" gradientUnits="userSpaceOnUse" xlink:href="#linearGradient7747-2-1-0-3-1"/>
  <linearGradient id="linearGradient14430" x1="129.91" x2="245.52" y1="123.02" y2="123.02" gradientTransform="matrix(.75034 0 0 .75034 -2.9913 97.313)" gradientUnits="userSpaceOnUse" xlink:href="#linearGradient7747-2-1-0-3-1"/>
  <linearGradient id="linearGradient14432" x1="93.11" x2="239.11" y1="119.38" y2="232.6" gradientTransform="matrix(.75034 0 0 .75034 -2.9913 97.313)" gradientUnits="userSpaceOnUse" xlink:href="#linearGradient7747-2-1-0-3-1"/>
 </defs>
 <path d="m520.34 114.49-65.867 37.796v-52.029l65.867-37.796" style="color:#000000;fill:none;stroke-dasharray:0.67653545, 1.35307088;stroke-linecap:round;stroke-linejoin:round;stroke-width:.67654;stroke:#f00"/>
 <path d="m362.25 67.69-102.69-59.154v84.029l102.69 59.154" style="color:#000000;fill:none;stroke-dasharray:0.67653545, 1.35307088;stroke-linecap:round;stroke-linejoin:round;stroke-width:.67654;stroke:#f00"/>
 <path d="m259.56 92.54-114.64 66.202v-84.029l114.64-66.202" style="color:#000000;fill:none;stroke-dasharray:0.67653545, 1.35307088;stroke-linecap:round;stroke-linejoin:round;stroke-width:.67654;stroke:#f00"/>
 <g transform="matrix(.54036 0 0 .54036 181.18 -29.91)">
  <path d="m127.26 220.84c-33.701 0-61.012 15.786-61.012 35.266 0 19.481 27.311 35.266 61.012 35.266s61.036-15.786 61.036-35.266c0-19.481-27.334-35.266-61.036-35.266zm0 26.028c8.9506 0 16.203 4.1388 16.203 9.2386s-7.2521 9.2386-16.203 9.2386c-8.9506 0-16.203-4.1388-16.203-9.2386s7.2521-9.2386 16.203-9.2386z" style="color:#000000;fill:#800000;stroke-linecap:round;stroke-linejoin:round;stroke-width:.95824;stroke:#7d7d7d"/>
  <path d="m127.26 180.58c-8.9108 0-16.138 4.0998-16.203 9.1683-2.9e-4 0.0227 0 0.0477 0 0.0703v66.194c0.0897-5.0559 7.3079-9.1448 16.203-9.1448 8.6709 0 15.769 3.8907 16.203 8.7696v-65.35c0.0141-0.15739 0-0.3096 0-0.46897 0-0.038 7.6e-4 -0.0794 0-0.11724-0.10685-5.0474-7.3187-9.1214-16.203-9.1214z" style="color:#000000;fill:#2b1100;stroke-linecap:round;stroke-linejoin:round;stroke-width:.95824;stroke:#7d7d7d"/>
  <path d="m127.26 170.78c-18.005 0-32.593 8.4447-32.593 18.852 0 10.408 14.588 18.829 32.593 18.829s32.617-8.4212 32.617-18.829c0-10.408-14.611-18.852-32.617-18.852zm0 9.8014c8.9506 0 16.203 4.1388 16.203 9.2386s-7.2521 9.2152-16.203 9.2152c-8.9506 0-16.203-4.1154-16.203-9.2152s7.2521-9.2386 16.203-9.2386z" style="color:#000000;fill:#800000;stroke-linecap:round;stroke-linejoin:round;stroke-width:.95824;stroke:#7d7d7d"/>
  <path d="m159.22 185.85c0.42985 1.2204 0.65656 2.4817 0.65656 3.7752 0 10.408-14.611 18.829-32.617 18.829-18.005 0-32.593-8.4212-32.593-18.829 0-1.1779 0.18182-2.3287 0.53931-3.4469l-26.145 59.301c-0.66701 1.2222-1.2054 2.476-1.6414 3.7517-0.76008 2.2239-1.1724 4.5173-1.1724 6.8703 0 19.481 27.311 35.266 61.012 35.266s61.036-15.786 61.036-35.266c0-2.3531-0.41173-4.6464-1.1724-6.8703h0.0469l-0.11724-0.23449c-0.036-0.10176-0.0797-0.20337-0.11725-0.30482-0.32389-0.8748-0.71506-1.7299-1.149-2.5793z" style="color:#000000;fill:#800080;stroke-linecap:round;stroke-linejoin:round;stroke-width:.95824;stroke:#7d7d7d"/>
  <ellipse cx="127.27" cy="189.62" rx="32.602" ry="18.845" style="color:#000000;fill:none;stroke-linecap:round;stroke-linejoin:round;stroke-width:.95824;stroke:#7d7d7d"/>
  <ellipse cx="127.27" cy="189.81" rx="16.207" ry="9.234" style="color:#000000;fill:none;stroke-linecap:round;stroke-linejoin:round;stroke-width:.95824;stroke:#7d7d7d"/>
  <path d="m127.26 220.84c-33.701 0-61.012 15.786-61.012 35.266 0 19.481 27.311 35.266 61.012 35.266s61.036-15.786 61.036-35.266c0-19.481-27.334-35.266-61.036-35.266zm0 26.028c8.9506 0 16.203 4.1388 16.203 9.2386s-7.2521 9.2386-16.203 9.2386c-8.9506 0-16.203-4.1388-16.203-9.2386s7.2521-9.2386 16.203-9.2386z" style="color:#000000;fill:#800000;stroke-linecap:round;stroke-linejoin:round;stroke-width:.95824;stroke:#7d7d7d"/>
  <path d="m127.26 180.58c-8.9108 0-16.138 4.0998-16.203 9.1683-2.9e-4 0.0227 0 0.0477 0 0.0703v66.194c0.0897-5.0559 7.3079-9.1448 16.203-9.1448 8.6709 0 15.769 3.8907 16.203 8.7696v-65.35c0.0141-0.15739 0-0.3096 0-0.46897 0-0.038 7.6e-4 -0.0794 0-0.11724-0.10685-5.0474-7.3187-9.1214-16.203-9.1214z" style="color:#000000;fill:url(#linearGradient14428);stroke-linecap:round;stroke-linejoin:round;stroke-width:.95824;stroke:#7d7d7d"/>
  <path d="m127.26 170.78c-18.005 0-32.593 8.4447-32.593 18.852 0 10.408 14.588 18.829 32.593 18.829s32.617-8.4212 32.617-18.829c0-10.408-14.611-18.852-32.617-18.852zm0 9.8014c8.9506 0 16.203 4.1388 16.203 9.2386s-7.2521 9.2152-16.203 9.2152c-8.9506 0-16.203-4.1154-16.203-9.2152s7.2521-9.2386 16.203-9.2386z" style="color:#000000;fill:url(#linearGradient14430);stroke-linecap:round;stroke-linejoin:round;stroke-width:2.6509;stroke:#7d7d7d"/>
  <path d="m159.22 185.85c0.42985 1.2204 0.65656 2.4817 0.65656 3.7752 0 10.408-14.611 18.829-32.617 18.829-18.005 0-32.593-8.4212-32.593-18.829 0-1.1779 0.18182-2.3287 0.53931-3.4469l-26.145 59.301c-0.66701 1.2222-1.2054 2.476-1.6414 3.7517-0.76007 2.2239-1.1724 4.5173-1.1724 6.8703 0 19.481 27.311 35.266 61.012 35.266s61.036-15.786 61.036-35.266c0-2.3531-0.41173-4.6464-1.1724-6.8703h0.0469l-0.11724-0.23449c-0.036-0.10176-0.0797-0.20337-0.11725-0.30482-0.32389-0.8748-0.71506-1.7299-1.149-2.5793z" style="color:#000000;fill:url(#linearGradient14432);stroke-linecap:round;stroke-linejoin:round;stroke-width:2.6509;stroke:#7d7d7d"/>
  <path d="m127.28 180.39c-8.9108 0-16.138 4.0998-16.203 9.1683-2.9e-4 0.0227 0 0.0477 0 0.0703v66.194c0.0897-5.0559 7.3079-9.1448 16.203-9.1448 8.6709 0 15.769 3.8907 16.203 8.7696v-65.35c0.0141-0.15739 0-0.3096 0-0.46897 0-0.038 7.6e-4 -0.0794 0-0.11724-0.10686-5.0474-7.3187-9.1214-16.203-9.1214z" style="color:#000000;fill:none;stroke-dasharray:3.83296474, 1.9164824;stroke-linecap:round;stroke-linejoin:round;stroke-width:.95824;stroke:#7d7d7d"/>
  <ellipse cx="127.27" cy="189.62" rx="32.602" ry="18.845" style="color:#000000;fill:none;stroke-linecap:round;stroke-linejoin:round;stroke-width:.95824;stroke:#7d7d7d"/>
  <ellipse cx="127.27" cy="256.1" rx="61.022" ry="35.273" style="color:#000000;fill:none;stroke-dasharray:3.83296472, 1.91648237;stroke-linecap:round;stroke-linejoin:round;stroke-width:.95824;stroke:#7d7d7d"/>
  <ellipse cx="127.36" cy="255.88" rx="16.207" ry="9.234" style="color:#000000;fill:none;stroke-dasharray:3.8329644, 1.91648219;stroke-dashoffset:37.67;stroke-linecap:round;stroke-linejoin:round;stroke-width:.95824;stroke:#7d7d7d"/>
  <ellipse cx="127.27" cy="189.81" rx="16.207" ry="9.234" style="color:#000000;fill:none;stroke-linecap:round;stroke-linejoin:round;stroke-width:.95824;stroke:#7d7d7d"/>
 </g>
 <g transform="matrix(.54036 0 0 .54036 231.76 -1.1)">
  <path d="m127.26 220.84c-33.701 0-61.012 15.786-61.012 35.266 0 19.481 27.311 35.266 61.012 35.266s61.036-15.786 61.036-35.266c0-19.481-27.334-35.266-61.036-35.266zm0 26.028c8.9506 0 16.203 4.1388 16.203 9.2386s-7.2521 9.2386-16.203 9.2386c-8.9506 0-16.203-4.1388-16.203-9.2386s7.2521-9.2386 16.203-9.2386z" style="color:#000000;fill:#800000;stroke-linecap:round;stroke-linejoin:round;stroke-width:.95824;stroke:#7d7d7d"/>
  <path d="m127.26 180.58c-8.9108 0-16.138 4.0998-16.203 9.1683-2.9e-4 0.0227 0 0.0477 0 0.0703v66.194c0.0897-5.0559 7.3079-9.1448 16.203-9.1448 8.6709 0 15.769 3.8907 16.203 8.7696v-65.35c0.0141-0.15739 0-0.3096 0-0.46897 0-0.038 7.6e-4 -0.0794 0-0.11724-0.10685-5.0474-7.3187-9.1214-16.203-9.1214z" style="color:#000000;fill:#2b1100;stroke-linecap:round;stroke-linejoin:round;stroke-width:.95824;stroke:#7d7d7d"/>
  <path d="m127.26 170.78c-18.005 0-32.593 8.4447-32.593 18.852 0 10.408 14.588 18.829 32.593 18.829s32.617-8.4212 32.617-18.829c0-10.408-14.611-18.852-32.617-18.852zm0 9.8014c8.9506 0 16.203 4.1388 16.203 9.2386s-7.2521 9.2152-16.203 9.2152c-8.9506 0-16.203-4.1154-16.203-9.2152s7.2521-9.2386 16.203-9.2386z" style="color:#000000;fill:#800000;stroke-linecap:round;stroke-linejoin:round;stroke-width:.95824;stroke:#7d7d7d"/>
  <path d="m159.22 185.85c0.42985 1.2204 0.65656 2.4817 0.65656 3.7752 0 10.408-14.611 18.829-32.617 18.829-18.005 0-32.593-8.4212-32.593-18.829 0-1.1779 0.18182-2.3287 0.53931-3.4469l-26.145 59.301c-0.66701 1.2222-1.2054 2.476-1.6414 3.7517-0.76008 2.2239-1.1724 4.5173-1.1724 6.8703 0 19.481 27.311 35.266 61.012 35.266s61.036-15.786 61.036-35.266c0-2.3531-0.41173-4.6464-1.1724-6.8703h0.0469l-0.11724-0.23449c-0.036-0.10176-0.0797-0.20337-0.11725-0.30482-0.32389-0.8748-0.71506-1.7299-1.149-2.5793z" style="color:#000000;fill:#800080;stroke-linecap:round;stroke-linejoin:round;stroke-width:.95824;stroke:#7d7d7d"/>
  <ellipse cx="127.27" cy="189.62" rx="32.602" ry="18.845" style="color:#000000;fill:none;stroke-linecap:round;stroke-linejoin:round;stroke-width:.95824;stroke:#7d7d7d"/>
  <ellipse cx="127.27" cy="189.81" rx="16.207" ry="9.234" style="color:#000000;fill:none;stroke-linecap:round;stroke-linejoin:round;stroke-width:.95824;stroke:#7d7d7d"/>
  <path d="m127.26 220.84c-33.701 0-61.012 15.786-61.012 35.266 0 19.481 27.311 35.266 61.012 35.266s61.036-15.786 61.036-35.266c0-19.481-27.334-35.266-61.036-35.266zm0 26.028c8.9506 0 16.203 4.1388 16.203 9.2386s-7.2521 9.2386-16.203 9.2386c-8.9506 0-16.203-4.1388-16.203-9.2386s7.2521-9.2386 16.203-9.2386z" style="color:#000000;fill:#800000;stroke-linecap:round;stroke-linejoin:round;stroke-width:.95824;stroke:#7d7d7d"/>
  <path d="m127.26 180.58c-8.9108 0-16.138 4.0998-16.203 9.1683-2.9e-4 0.0227 0 0.0477 0 0.0703v66.194c0.0897-5.0559 7.3079-9.1448 16.203-9.1448 8.6709 0 15.769 3.8907 16.203 8.7696v-65.35c0.0141-0.15739 0-0.3096 0-0.46897 0-0.038 7.6e-4 -0.0794 0-0.11724-0.10685-5.0474-7.3187-9.1214-16.203-9.1214z" style="color:#000000;fill:url(#linearGradient14428);stroke-linecap:round;stroke-linejoin:round;stroke-width:.95824;stroke:#7d7d7d"/>
  <path d="m127.26 170.78c-18.005 0-32.593 8.4447-32.593 18.852 0 10.408 14.588 18.829 32.593 18.829s32.617-8.4212 32.617-18.829c0-10.408-14.611-18.852-32.617-18.852zm0 9.8014c8.9506 0 16.203 4.1388 16.203 9.2386s-7.2521 9.2152-16.203 9.2152c-8.9506 0-16.203-4.1154-16.203-9.2152s7.2521-9.2386 16.203-9.2386z" style="color:#000000;fill:url(#linearGradient14430);stroke-linecap:round;stroke-linejoin:round;stroke-width:2.6509;stroke:#7d7d7d"/>
  <path d="m159.22 185.85c0.42985 1.2204 0.65656 2.4817 0.65656 3.7752 0 10.408-14.611 18.829-32.617 18.829-18.005 0-32.593-8.4212-32.593-18.829 0-1.1779 0.18182-2.3287 0.53931-3.4469l-26.145 59.301c-0.66701 1.2222-1.2054 2.476-1.6414 3.7517-0.76007 2.2239-1.1724 4.5173-1.1724 6.8703 0 19.481 27.311 35.266 61.012 35.266s61.036-15.786 61.036-35.266c0-2.3531-0.41173-4.6464-1.1724-6.8703h0.0469l-0.11724-0.23449c-0.036-0.10176-0.0797-0.20337-0.11725-0.30482-0.32389-0.8748-0.71506-1.7299-1.149-2.5793z" style="color:#000000;fill:url(#linearGradient14432);stroke-linecap:round;stroke-linejoin:round;stroke-width:2.6509;stroke:#7d7d7d"/>
  <path d="m127.28 180.39c-8.9108 0-16.138 4.0998-16.203 9.1683-2.9e-4 0.0227 0 0.0477 0 0.0703v66.194c0.0897-5.0559 7.3079-9.1448 16.203-9.1448 8.6709 0 15.769 3.8907 16.203 8.7696v-65.35c0.0141-0.15739 0-0.3096 0-0.46897 0-0.038 7.6e-4 -0.0794 0-0.11724-0.10686-5.0474-7.3187-9.1214-16.203-9.1214z" style="color:#000000;fill:none;stroke-dasharray:3.83296474, 1.9164824;stroke-linecap:round;stroke-linejoin:round;stroke-width:.95824;stroke:#7d7d7d"/>
  <ellipse cx="127.27" cy="189.62" rx="32.602" ry="18.845" style="color:#000000;fill:none;stroke-linecap:round;stroke-linejoin:round;stroke-width:.95824;stroke:#7d7d7d"/>
  <ellipse cx="127.27" cy="256.1" rx="61.022" ry="35.273" style="color:#000000;fill:none;stroke-dasharray:3.83296472, 1.91648237;stroke-linecap:round;stroke-linejoin:round;stroke-width:.95824;stroke:#7d7d7d"/>
  <ellipse cx="127.36" cy="255.88" rx="16.207" ry="9.234" style="color:#000000;fill:none;stroke-dasharray:3.8329644, 1.91648219;stroke-dashoffset:37.67;stroke-linecap:round;stroke-linejoin:round;stroke-width:.95824;stroke:#7d7d7d"/>
  <ellipse cx="127.27" cy="189.81" rx="16.207" ry="9.234" style="color:#000000;fill:none;stroke-linecap:round;stroke-linejoin:round;stroke-width:.95824;stroke:#7d7d7d"/>
 </g>
 <ellipse transform="rotate(-2)" cx="195.87" cy="95.899" rx="4.0406" ry="3.7795" style="fill:#008000;stroke-linecap:round;stroke-linejoin:round;stroke-width:3.7837;stroke:#008000"/>
 <g transform="matrix(.54036 0 0 .54036 135.86 -5.41)">
  <path d="m127.26 220.84c-33.701 0-61.012 15.786-61.012 35.266 0 19.481 27.311 35.266 61.012 35.266s61.036-15.786 61.036-35.266c0-19.481-27.334-35.266-61.036-35.266zm0 26.028c8.9506 0 16.203 4.1388 16.203 9.2386s-7.2521 9.2386-16.203 9.2386c-8.9506 0-16.203-4.1388-16.203-9.2386s7.2521-9.2386 16.203-9.2386z" style="color:#000000;fill:#800000;stroke-linecap:round;stroke-linejoin:round;stroke-width:.95824;stroke:#7d7d7d"/>
  <path d="m127.26 180.58c-8.9108 0-16.138 4.0998-16.203 9.1683-2.9e-4 0.0227 0 0.0477 0 0.0703v66.194c0.0897-5.0559 7.3079-9.1448 16.203-9.1448 8.6709 0 15.769 3.8907 16.203 8.7696v-65.35c0.0141-0.15739 0-0.3096 0-0.46897 0-0.038 7.6e-4 -0.0794 0-0.11724-0.10685-5.0474-7.3187-9.1214-16.203-9.1214z" style="color:#000000;fill:#2b1100;stroke-linecap:round;stroke-linejoin:round;stroke-width:.95824;stroke:#7d7d7d"/>
  <path d="m127.26 170.78c-18.005 0-32.593 8.4447-32.593 18.852 0 10.408 14.588 18.829 32.593 18.829s32.617-8.4212 32.617-18.829c0-10.408-14.611-18.852-32.617-18.852zm0 9.8014c8.9506 0 16.203 4.1388 16.203 9.2386s-7.2521 9.2152-16.203 9.2152c-8.9506 0-16.203-4.1154-16.203-9.2152s7.2521-9.2386 16.203-9.2386z" style="color:#000000;fill:#800000;stroke-linecap:round;stroke-linejoin:round;stroke-width:.95824;stroke:#7d7d7d"/>
  <path d="m159.22 185.85c0.42985 1.2204 0.65656 2.4817 0.65656 3.7752 0 10.408-14.611 18.829-32.617 18.829-18.005 0-32.593-8.4212-32.593-18.829 0-1.1779 0.18182-2.3287 0.53931-3.4469l-26.145 59.301c-0.66701 1.2222-1.2054 2.476-1.6414 3.7517-0.76008 2.2239-1.1724 4.5173-1.1724 6.8703 0 19.481 27.311 35.266 61.012 35.266s61.036-15.786 61.036-35.266c0-2.3531-0.41173-4.6464-1.1724-6.8703h0.0469l-0.11724-0.23449c-0.036-0.10176-0.0797-0.20337-0.11725-0.30482-0.32389-0.8748-0.71506-1.7299-1.149-2.5793z" style="color:#000000;fill:#800080;stroke-linecap:round;stroke-linejoin:round;stroke-width:.95824;stroke:#7d7d7d"/>
  <ellipse cx="127.27" cy="189.62" rx="32.602" ry="18.845" style="color:#000000;fill:none;stroke-linecap:round;stroke-linejoin:round;stroke-width:.95824;stroke:#7d7d7d"/>
  <ellipse cx="127.27" cy="189.81" rx="16.207" ry="9.234" style="color:#000000;fill:none;stroke-linecap:round;stroke-linejoin:round;stroke-width:.95824;stroke:#7d7d7d"/>
  <path d="m127.26 220.84c-33.701 0-61.012 15.786-61.012 35.266 0 19.481 27.311 35.266 61.012 35.266s61.036-15.786 61.036-35.266c0-19.481-27.334-35.266-61.036-35.266zm0 26.028c8.9506 0 16.203 4.1388 16.203 9.2386s-7.2521 9.2386-16.203 9.2386c-8.9506 0-16.203-4.1388-16.203-9.2386s7.2521-9.2386 16.203-9.2386z" style="color:#000000;fill:#800000;stroke-linecap:round;stroke-linejoin:round;stroke-width:.95824;stroke:#7d7d7d"/>
  <path d="m127.26 180.58c-8.9108 0-16.138 4.0998-16.203 9.1683-2.9e-4 0.0227 0 0.0477 0 0.0703v66.194c0.0897-5.0559 7.3079-9.1448 16.203-9.1448 8.6709 0 15.769 3.8907 16.203 8.7696v-65.35c0.0141-0.15739 0-0.3096 0-0.46897 0-0.038 7.6e-4 -0.0794 0-0.11724-0.10685-5.0474-7.3187-9.1214-16.203-9.1214z" style="color:#000000;fill:url(#linearGradient14428);stroke-linecap:round;stroke-linejoin:round;stroke-width:.95824;stroke:#7d7d7d"/>
  <path d="m127.26 170.78c-18.005 0-32.593 8.4447-32.593 18.852 0 10.408 14.588 18.829 32.593 18.829s32.617-8.4212 32.617-18.829c0-10.408-14.611-18.852-32.617-18.852zm0 9.8014c8.9506 0 16.203 4.1388 16.203 9.2386s-7.2521 9.2152-16.203 9.2152c-8.9506 0-16.203-4.1154-16.203-9.2152s7.2521-9.2386 16.203-9.2386z" style="color:#000000;fill:url(#linearGradient14430);stroke-linecap:round;stroke-linejoin:round;stroke-width:2.6509;stroke:#7d7d7d"/>
  <path d="m159.22 185.85c0.42985 1.2204 0.65656 2.4817 0.65656 3.7752 0 10.408-14.611 18.829-32.617 18.829-18.005 0-32.593-8.4212-32.593-18.829 0-1.1779 0.18182-2.3287 0.53931-3.4469l-26.145 59.301c-0.66701 1.2222-1.2054 2.476-1.6414 3.7517-0.76007 2.2239-1.1724 4.5173-1.1724 6.8703 0 19.481 27.311 35.266 61.012 35.266s61.036-15.786 61.036-35.266c0-2.3531-0.41173-4.6464-1.1724-6.8703h0.0469l-0.11724-0.23449c-0.036-0.10176-0.0797-0.20337-0.11725-0.30482-0.32389-0.8748-0.71506-1.7299-1.149-2.5793z" style="color:#000000;fill:url(#linearGradient14432);stroke-linecap:round;stroke-linejoin:round;stroke-width:2.6509;stroke:#7d7d7d"/>
  <path d="m127.28 180.39c-8.9108 0-16.138 4.0998-16.203 9.1683-2.9e-4 0.0227 0 0.0477 0 0.0703v66.194c0.0897-5.0559 7.3079-9.1448 16.203-9.1448 8.6709 0 15.769 3.8907 16.203 8.7696v-65.35c0.0141-0.15739 0-0.3096 0-0.46897 0-0.038 7.6e-4 -0.0794 0-0.11724-0.10686-5.0474-7.3187-9.1214-16.203-9.1214z" style="color:#000000;fill:none;stroke-dasharray:3.83296474, 1.9164824;stroke-linecap:round;stroke-linejoin:round;stroke-width:.95824;stroke:#7d7d7d"/>
  <ellipse cx="127.27" cy="189.62" rx="32.602" ry="18.845" style="color:#000000;fill:none;stroke-linecap:round;stroke-linejoin:round;stroke-width:.95824;stroke:#7d7d7d"/>
  <ellipse cx="127.27" cy="256.1" rx="61.022" ry="35.273" style="color:#000000;fill:none;stroke-dasharray:3.83296472, 1.91648237;stroke-linecap:round;stroke-linejoin:round;stroke-width:.95824;stroke:#7d7d7d"/>
  <ellipse cx="127.36" cy="255.88" rx="16.207" ry="9.234" style="color:#000000;fill:none;stroke-dasharray:3.8329644, 1.91648219;stroke-dashoffset:37.67;stroke-linecap:round;stroke-linejoin:round;stroke-width:.95824;stroke:#7d7d7d"/>
  <ellipse cx="127.27" cy="189.81" rx="16.207" ry="9.234" style="color:#000000;fill:none;stroke-linecap:round;stroke-linejoin:round;stroke-width:.95824;stroke:#7d7d7d"/>
 </g>
 <g transform="matrix(.54036 0 0 .54036 187.65 24.22)">
  <path d="m127.26 220.84c-33.701 0-61.012 15.786-61.012 35.266 0 19.481 27.311 35.266 61.012 35.266s61.036-15.786 61.036-35.266c0-19.481-27.334-35.266-61.036-35.266zm0 26.028c8.9506 0 16.203 4.1388 16.203 9.2386s-7.2521 9.2386-16.203 9.2386c-8.9506 0-16.203-4.1388-16.203-9.2386s7.2521-9.2386 16.203-9.2386z" style="color:#000000;fill:#800000;stroke-linecap:round;stroke-linejoin:round;stroke-width:.95824;stroke:#7d7d7d"/>
  <path d="m127.26 180.58c-8.9108 0-16.138 4.0998-16.203 9.1683-2.9e-4 0.0227 0 0.0477 0 0.0703v66.194c0.0897-5.0559 7.3079-9.1448 16.203-9.1448 8.6709 0 15.769 3.8907 16.203 8.7696v-65.35c0.0141-0.15739 0-0.3096 0-0.46897 0-0.038 7.6e-4 -0.0794 0-0.11724-0.10685-5.0474-7.3187-9.1214-16.203-9.1214z" style="color:#000000;fill:#2b1100;stroke-linecap:round;stroke-linejoin:round;stroke-width:.95824;stroke:#7d7d7d"/>
  <path d="m127.26 170.78c-18.005 0-32.593 8.4447-32.593 18.852 0 10.408 14.588 18.829 32.593 18.829s32.617-8.4212 32.617-18.829c0-10.408-14.611-18.852-32.617-18.852zm0 9.8014c8.9506 0 16.203 4.1388 16.203 9.2386s-7.2521 9.2152-16.203 9.2152c-8.9506 0-16.203-4.1154-16.203-9.2152s7.2521-9.2386 16.203-9.2386z" style="color:#000000;fill:#800000;stroke-linecap:round;stroke-linejoin:round;stroke-width:.95824;stroke:#7d7d7d"/>
  <path d="m159.22 185.85c0.42985 1.2204 0.65656 2.4817 0.65656 3.7752 0 10.408-14.611 18.829-32.617 18.829-18.005 0-32.593-8.4212-32.593-18.829 0-1.1779 0.18182-2.3287 0.53931-3.4469l-26.145 59.301c-0.66701 1.2222-1.2054 2.476-1.6414 3.7517-0.76008 2.2239-1.1724 4.5173-1.1724 6.8703 0 19.481 27.311 35.266 61.012 35.266s61.036-15.786 61.036-35.266c0-2.3531-0.41173-4.6464-1.1724-6.8703h0.0469l-0.11724-0.23449c-0.036-0.10176-0.0797-0.20337-0.11725-0.30482-0.32389-0.8748-0.71506-1.7299-1.149-2.5793z" style="color:#000000;fill:#800080;stroke-linecap:round;stroke-linejoin:round;stroke-width:.95824;stroke:#7d7d7d"/>
  <ellipse cx="127.27" cy="189.62" rx="32.602" ry="18.845" style="color:#000000;fill:none;stroke-linecap:round;stroke-linejoin:round;stroke-width:.95824;stroke:#7d7d7d"/>
  <ellipse cx="127.27" cy="189.81" rx="16.207" ry="9.234" style="color:#000000;fill:none;stroke-linecap:round;stroke-linejoin:round;stroke-width:.95824;stroke:#7d7d7d"/>
  <path d="m127.26 220.84c-33.701 0-61.012 15.786-61.012 35.266 0 19.481 27.311 35.266 61.012 35.266s61.036-15.786 61.036-35.266c0-19.481-27.334-35.266-61.036-35.266zm0 26.028c8.9506 0 16.203 4.1388 16.203 9.2386s-7.2521 9.2386-16.203 9.2386c-8.9506 0-16.203-4.1388-16.203-9.2386s7.2521-9.2386 16.203-9.2386z" style="color:#000000;fill:#800000;stroke-linecap:round;stroke-linejoin:round;stroke-width:.95824;stroke:#7d7d7d"/>
  <path d="m127.26 180.58c-8.9108 0-16.138 4.0998-16.203 9.1683-2.9e-4 0.0227 0 0.0477 0 0.0703v66.194c0.0897-5.0559 7.3079-9.1448 16.203-9.1448 8.6709 0 15.769 3.8907 16.203 8.7696v-65.35c0.0141-0.15739 0-0.3096 0-0.46897 0-0.038 7.6e-4 -0.0794 0-0.11724-0.10685-5.0474-7.3187-9.1214-16.203-9.1214z" style="color:#000000;fill:url(#linearGradient14428);stroke-linecap:round;stroke-linejoin:round;stroke-width:.95824;stroke:#7d7d7d"/>
  <path d="m127.26 170.78c-18.005 0-32.593 8.4447-32.593 18.852 0 10.408 14.588 18.829 32.593 18.829s32.617-8.4212 32.617-18.829c0-10.408-14.611-18.852-32.617-18.852zm0 9.8014c8.9506 0 16.203 4.1388 16.203 9.2386s-7.2521 9.2152-16.203 9.2152c-8.9506 0-16.203-4.1154-16.203-9.2152s7.2521-9.2386 16.203-9.2386z" style="color:#000000;fill:url(#linearGradient14430);stroke-linecap:round;stroke-linejoin:round;stroke-width:2.6509;stroke:#7d7d7d"/>
  <path d="m159.22 185.85c0.42985 1.2204 0.65656 2.4817 0.65656 3.7752 0 10.408-14.611 18.829-32.617 18.829-18.005 0-32.593-8.4212-32.593-18.829 0-1.1779 0.18182-2.3287 0.53931-3.4469l-26.145 59.301c-0.66701 1.2222-1.2054 2.476-1.6414 3.7517-0.76007 2.2239-1.1724 4.5173-1.1724 6.8703 0 19.481 27.311 35.266 61.012 35.266s61.036-15.786 61.036-35.266c0-2.3531-0.41173-4.6464-1.1724-6.8703h0.0469l-0.11724-0.23449c-0.036-0.10176-0.0797-0.20337-0.11725-0.30482-0.32389-0.8748-0.71506-1.7299-1.149-2.5793z" style="color:#000000;fill:url(#linearGradient14432);stroke-linecap:round;stroke-linejoin:round;stroke-width:2.6509;stroke:#7d7d7d"/>
  <path d="m127.28 180.39c-8.9108 0-16.138 4.0998-16.203 9.1683-2.9e-4 0.0227 0 0.0477 0 0.0703v66.194c0.0897-5.0559 7.3079-9.1448 16.203-9.1448 8.6709 0 15.769 3.8907 16.203 8.7696v-65.35c0.0141-0.15739 0-0.3096 0-0.46897 0-0.038 7.6e-4 -0.0794 0-0.11724-0.10686-5.0474-7.3187-9.1214-16.203-9.1214z" style="color:#000000;fill:none;stroke-dasharray:3.83296474, 1.9164824;stroke-linecap:round;stroke-linejoin:round;stroke-width:.95824;stroke:#7d7d7d"/>
  <ellipse cx="127.27" cy="189.62" rx="32.602" ry="18.845" style="color:#000000;fill:none;stroke-linecap:round;stroke-linejoin:round;stroke-width:.95824;stroke:#7d7d7d"/>
  <ellipse cx="127.27" cy="256.1" rx="61.022" ry="35.273" style="color:#000000;fill:none;stroke-dasharray:3.83296472, 1.91648237;stroke-linecap:round;stroke-linejoin:round;stroke-width:.95824;stroke:#7d7d7d"/>
  <ellipse cx="127.36" cy="255.88" rx="16.207" ry="9.234" style="color:#000000;fill:none;stroke-dasharray:3.8329644, 1.91648219;stroke-dashoffset:37.67;stroke-linecap:round;stroke-linejoin:round;stroke-width:.95824;stroke:#7d7d7d"/>
  <ellipse cx="127.27" cy="189.81" rx="16.207" ry="9.234" style="color:#000000;fill:none;stroke-linecap:round;stroke-linejoin:round;stroke-width:.95824;stroke:#7d7d7d"/>
 </g>
 <path d="m247.57 133.88 114.64-66.202v84.029l-114.64 66.202" style="color:#000000;fill:none;stroke-dasharray:0.67653545, 1.35307088;stroke-linecap:round;stroke-linejoin:round;stroke-width:.67654;stroke:#f00"/>
 <path d="m145.16 158.78 102.69 59.154v-84.029l-102.69-59.154" style="color:#000000;fill:none;stroke-dasharray:0.67653545, 1.35307088;stroke-linecap:round;stroke-linejoin:round;stroke-width:.67654;stroke:#f00"/>
 <ellipse transform="rotate(-2)" cx="250.86" cy="80.569" rx="4.0406" ry="3.7795" style="fill:#008000;stroke-linecap:round;stroke-linejoin:round;stroke-width:3.7837;stroke:#008000"/>
 <ellipse transform="rotate(-2)" cx="300.06" cy="153.45" rx="4.0406" ry="3.7795" style="fill:#008000;stroke-linecap:round;stroke-linejoin:round;stroke-width:3.7837;stroke:#008000"/>
 <ellipse transform="rotate(-2)" cx="192.27" cy="152.92" rx="4.0406" ry="3.7795" style="fill:#008000;stroke-linecap:round;stroke-linejoin:round;stroke-width:3.7837;stroke:#008000"/>
 <ellipse transform="rotate(-2)" cx="309.65" cy="95.019" rx="4.0406" ry="3.7795" style="fill:#008000;stroke-linecap:round;stroke-linejoin:round;stroke-width:3.7837;stroke:#008000"/>
 <g transform="matrix(.54036 0 0 .54036 498.29 -30.483)">
  <path d="m127.26 220.84c-33.701 0-61.012 15.786-61.012 35.266 0 19.481 27.311 35.266 61.012 35.266s61.036-15.786 61.036-35.266c0-19.481-27.334-35.266-61.036-35.266zm0 26.028c8.9506 0 16.203 4.1388 16.203 9.2386s-7.2521 9.2386-16.203 9.2386c-8.9506 0-16.203-4.1388-16.203-9.2386s7.2521-9.2386 16.203-9.2386z" style="color:#000000;fill:#800000;stroke-linecap:round;stroke-linejoin:round;stroke-width:.95824;stroke:#7d7d7d"/>
  <path d="m127.26 180.58c-8.9108 0-16.138 4.0998-16.203 9.1683-2.9e-4 0.0227 0 0.0477 0 0.0703v66.194c0.0897-5.0559 7.3079-9.1448 16.203-9.1448 8.6709 0 15.769 3.8907 16.203 8.7696v-65.35c0.0141-0.15739 0-0.3096 0-0.46897 0-0.038 7.6e-4 -0.0794 0-0.11724-0.10685-5.0474-7.3187-9.1214-16.203-9.1214z" style="color:#000000;fill:#2b1100;stroke-linecap:round;stroke-linejoin:round;stroke-width:.95824;stroke:#7d7d7d"/>
  <path d="m127.26 170.78c-18.005 0-32.593 8.4447-32.593 18.852 0 10.408 14.588 18.829 32.593 18.829s32.617-8.4212 32.617-18.829c0-10.408-14.611-18.852-32.617-18.852zm0 9.8014c8.9506 0 16.203 4.1388 16.203 9.2386s-7.2521 9.2152-16.203 9.2152c-8.9506 0-16.203-4.1154-16.203-9.2152s7.2521-9.2386 16.203-9.2386z" style="color:#000000;fill:#800000;stroke-linecap:round;stroke-linejoin:round;stroke-width:.95824;stroke:#7d7d7d"/>
  <path d="m159.22 185.85c0.42985 1.2204 0.65656 2.4817 0.65656 3.7752 0 10.408-14.611 18.829-32.617 18.829-18.005 0-32.593-8.4212-32.593-18.829 0-1.1779 0.18182-2.3287 0.53931-3.4469l-26.145 59.301c-0.66701 1.2222-1.2054 2.476-1.6414 3.7517-0.76008 2.2239-1.1724 4.5173-1.1724 6.8703 0 19.481 27.311 35.266 61.012 35.266s61.036-15.786 61.036-35.266c0-2.3531-0.41173-4.6464-1.1724-6.8703h0.0469l-0.11724-0.23449c-0.036-0.10176-0.0797-0.20337-0.11725-0.30482-0.32389-0.8748-0.71506-1.7299-1.149-2.5793z" style="color:#000000;fill:#800080;stroke-linecap:round;stroke-linejoin:round;stroke-width:.95824;stroke:#7d7d7d"/>
  <ellipse cx="127.27" cy="189.62" rx="32.602" ry="18.845" style="color:#000000;fill:none;stroke-linecap:round;stroke-linejoin:round;stroke-width:.95824;stroke:#7d7d7d"/>
  <ellipse cx="127.27" cy="189.81" rx="16.207" ry="9.234" style="color:#000000;fill:none;stroke-linecap:round;stroke-linejoin:round;stroke-width:.95824;stroke:#7d7d7d"/>
  <path d="m127.26 220.84c-33.701 0-61.012 15.786-61.012 35.266 0 19.481 27.311 35.266 61.012 35.266s61.036-15.786 61.036-35.266c0-19.481-27.334-35.266-61.036-35.266zm0 26.028c8.9506 0 16.203 4.1388 16.203 9.2386s-7.2521 9.2386-16.203 9.2386c-8.9506 0-16.203-4.1388-16.203-9.2386s7.2521-9.2386 16.203-9.2386z" style="color:#000000;fill:#800000;stroke-linecap:round;stroke-linejoin:round;stroke-width:.95824;stroke:#7d7d7d"/>
  <path d="m127.26 180.58c-8.9108 0-16.138 4.0998-16.203 9.1683-2.9e-4 0.0227 0 0.0477 0 0.0703v66.194c0.0897-5.0559 7.3079-9.1448 16.203-9.1448 8.6709 0 15.769 3.8907 16.203 8.7696v-65.35c0.0141-0.15739 0-0.3096 0-0.46897 0-0.038 7.6e-4 -0.0794 0-0.11724-0.10685-5.0474-7.3187-9.1214-16.203-9.1214z" style="color:#000000;fill:url(#linearGradient14428);stroke-linecap:round;stroke-linejoin:round;stroke-width:.95824;stroke:#7d7d7d"/>
  <path d="m127.26 170.78c-18.005 0-32.593 8.4447-32.593 18.852 0 10.408 14.588 18.829 32.593 18.829s32.617-8.4212 32.617-18.829c0-10.408-14.611-18.852-32.617-18.852zm0 9.8014c8.9506 0 16.203 4.1388 16.203 9.2386s-7.2521 9.2152-16.203 9.2152c-8.9506 0-16.203-4.1154-16.203-9.2152s7.2521-9.2386 16.203-9.2386z" style="color:#000000;fill:url(#linearGradient14430);stroke-linecap:round;stroke-linejoin:round;stroke-width:2.6509;stroke:#7d7d7d"/>
  <path d="m159.22 185.85c0.42985 1.2204 0.65656 2.4817 0.65656 3.7752 0 10.408-14.611 18.829-32.617 18.829-18.005 0-32.593-8.4212-32.593-18.829 0-1.1779 0.18182-2.3287 0.53931-3.4469l-26.145 59.301c-0.66701 1.2222-1.2054 2.476-1.6414 3.7517-0.76007 2.2239-1.1724 4.5173-1.1724 6.8703 0 19.481 27.311 35.266 61.012 35.266s61.036-15.786 61.036-35.266c0-2.3531-0.41173-4.6464-1.1724-6.8703h0.0469l-0.11724-0.23449c-0.036-0.10176-0.0797-0.20337-0.11725-0.30482-0.32389-0.8748-0.71506-1.7299-1.149-2.5793z" style="color:#000000;fill:url(#linearGradient14432);stroke-linecap:round;stroke-linejoin:round;stroke-width:2.6509;stroke:#7d7d7d"/>
  <path d="m127.28 180.39c-8.9108 0-16.138 4.0998-16.203 9.1683-2.9e-4 0.0227 0 0.0477 0 0.0703v66.194c0.0897-5.0559 7.3079-9.1448 16.203-9.1448 8.6709 0 15.769 3.8907 16.203 8.7696v-65.35c0.0141-0.15739 0-0.3096 0-0.46897 0-0.038 7.6e-4 -0.0794 0-0.11724-0.10686-5.0474-7.3187-9.1214-16.203-9.1214z" style="color:#000000;fill:none;stroke-dasharray:3.83296474, 1.9164824;stroke-linecap:round;stroke-linejoin:round;stroke-width:.95824;stroke:#7d7d7d"/>
  <ellipse cx="127.27" cy="189.62" rx="32.602" ry="18.845" style="color:#000000;fill:none;stroke-linecap:round;stroke-linejoin:round;stroke-width:.95824;stroke:#7d7d7d"/>
  <ellipse cx="127.27" cy="256.1" rx="61.022" ry="35.273" style="color:#000000;fill:none;stroke-dasharray:3.83296472, 1.91648237;stroke-linecap:round;stroke-linejoin:round;stroke-width:.95824;stroke:#7d7d7d"/>
  <ellipse cx="127.36" cy="255.88" rx="16.207" ry="9.234" style="color:#000000;fill:none;stroke-dasharray:3.8329644, 1.91648219;stroke-dashoffset:37.67;stroke-linecap:round;stroke-linejoin:round;stroke-width:.95824;stroke:#7d7d7d"/>
  <ellipse cx="127.27" cy="189.81" rx="16.207" ry="9.234" style="color:#000000;fill:none;stroke-linecap:round;stroke-linejoin:round;stroke-width:.95824;stroke:#7d7d7d"/>
 </g>
 <g transform="matrix(.54036 0 0 .54036 548.87 -1.67)">
  <path d="m127.26 220.84c-33.701 0-61.012 15.786-61.012 35.266 0 19.481 27.311 35.266 61.012 35.266s61.036-15.786 61.036-35.266c0-19.481-27.334-35.266-61.036-35.266zm0 26.028c8.9506 0 16.203 4.1388 16.203 9.2386s-7.2521 9.2386-16.203 9.2386c-8.9506 0-16.203-4.1388-16.203-9.2386s7.2521-9.2386 16.203-9.2386z" style="color:#000000;fill:#800000;stroke-linecap:round;stroke-linejoin:round;stroke-width:.95824;stroke:#7d7d7d"/>
  <path d="m127.26 180.58c-8.9108 0-16.138 4.0998-16.203 9.1683-2.9e-4 0.0227 0 0.0477 0 0.0703v66.194c0.0897-5.0559 7.3079-9.1448 16.203-9.1448 8.6709 0 15.769 3.8907 16.203 8.7696v-65.35c0.0141-0.15739 0-0.3096 0-0.46897 0-0.038 7.6e-4 -0.0794 0-0.11724-0.10685-5.0474-7.3187-9.1214-16.203-9.1214z" style="color:#000000;fill:#2b1100;stroke-linecap:round;stroke-linejoin:round;stroke-width:.95824;stroke:#7d7d7d"/>
  <path d="m127.26 170.78c-18.005 0-32.593 8.4447-32.593 18.852 0 10.408 14.588 18.829 32.593 18.829s32.617-8.4212 32.617-18.829c0-10.408-14.611-18.852-32.617-18.852zm0 9.8014c8.9506 0 16.203 4.1388 16.203 9.2386s-7.2521 9.2152-16.203 9.2152c-8.9506 0-16.203-4.1154-16.203-9.2152s7.2521-9.2386 16.203-9.2386z" style="color:#000000;fill:#800000;stroke-linecap:round;stroke-linejoin:round;stroke-width:.95824;stroke:#7d7d7d"/>
  <path d="m159.22 185.85c0.42985 1.2204 0.65656 2.4817 0.65656 3.7752 0 10.408-14.611 18.829-32.617 18.829-18.005 0-32.593-8.4212-32.593-18.829 0-1.1779 0.18182-2.3287 0.53931-3.4469l-26.145 59.301c-0.66701 1.2222-1.2054 2.476-1.6414 3.7517-0.76008 2.2239-1.1724 4.5173-1.1724 6.8703 0 19.481 27.311 35.266 61.012 35.266s61.036-15.786 61.036-35.266c0-2.3531-0.41173-4.6464-1.1724-6.8703h0.0469l-0.11724-0.23449c-0.036-0.10176-0.0797-0.20337-0.11725-0.30482-0.32389-0.8748-0.71506-1.7299-1.149-2.5793z" style="color:#000000;fill:#800080;stroke-linecap:round;stroke-linejoin:round;stroke-width:.95824;stroke:#7d7d7d"/>
  <ellipse cx="127.27" cy="189.62" rx="32.602" ry="18.845" style="color:#000000;fill:none;stroke-linecap:round;stroke-linejoin:round;stroke-width:.95824;stroke:#7d7d7d"/>
  <ellipse cx="127.27" cy="189.81" rx="16.207" ry="9.234" style="color:#000000;fill:none;stroke-linecap:round;stroke-linejoin:round;stroke-width:.95824;stroke:#7d7d7d"/>
  <path d="m127.26 220.84c-33.701 0-61.012 15.786-61.012 35.266 0 19.481 27.311 35.266 61.012 35.266s61.036-15.786 61.036-35.266c0-19.481-27.334-35.266-61.036-35.266zm0 26.028c8.9506 0 16.203 4.1388 16.203 9.2386s-7.2521 9.2386-16.203 9.2386c-8.9506 0-16.203-4.1388-16.203-9.2386s7.2521-9.2386 16.203-9.2386z" style="color:#000000;fill:#800000;stroke-linecap:round;stroke-linejoin:round;stroke-width:.95824;stroke:#7d7d7d"/>
  <path d="m127.26 180.58c-8.9108 0-16.138 4.0998-16.203 9.1683-2.9e-4 0.0227 0 0.0477 0 0.0703v66.194c0.0897-5.0559 7.3079-9.1448 16.203-9.1448 8.6709 0 15.769 3.8907 16.203 8.7696v-65.35c0.0141-0.15739 0-0.3096 0-0.46897 0-0.038 7.6e-4 -0.0794 0-0.11724-0.10685-5.0474-7.3187-9.1214-16.203-9.1214z" style="color:#000000;fill:url(#linearGradient14428);stroke-linecap:round;stroke-linejoin:round;stroke-width:.95824;stroke:#7d7d7d"/>
  <path d="m127.26 170.78c-18.005 0-32.593 8.4447-32.593 18.852 0 10.408 14.588 18.829 32.593 18.829s32.617-8.4212 32.617-18.829c0-10.408-14.611-18.852-32.617-18.852zm0 9.8014c8.9506 0 16.203 4.1388 16.203 9.2386s-7.2521 9.2152-16.203 9.2152c-8.9506 0-16.203-4.1154-16.203-9.2152s7.2521-9.2386 16.203-9.2386z" style="color:#000000;fill:url(#linearGradient14430);stroke-linecap:round;stroke-linejoin:round;stroke-width:2.6509;stroke:#7d7d7d"/>
  <path d="m159.22 185.85c0.42985 1.2204 0.65656 2.4817 0.65656 3.7752 0 10.408-14.611 18.829-32.617 18.829-18.005 0-32.593-8.4212-32.593-18.829 0-1.1779 0.18182-2.3287 0.53931-3.4469l-26.145 59.301c-0.66701 1.2222-1.2054 2.476-1.6414 3.7517-0.76007 2.2239-1.1724 4.5173-1.1724 6.8703 0 19.481 27.311 35.266 61.012 35.266s61.036-15.786 61.036-35.266c0-2.3531-0.41173-4.6464-1.1724-6.8703h0.0469l-0.11724-0.23449c-0.036-0.10176-0.0797-0.20337-0.11725-0.30482-0.32389-0.8748-0.71506-1.7299-1.149-2.5793z" style="color:#000000;fill:url(#linearGradient14432);stroke-linecap:round;stroke-linejoin:round;stroke-width:2.6509;stroke:#7d7d7d"/>
  <path d="m127.28 180.39c-8.9108 0-16.138 4.0998-16.203 9.1683-2.9e-4 0.0227 0 0.0477 0 0.0703v66.194c0.0897-5.0559 7.3079-9.1448 16.203-9.1448 8.6709 0 15.769 3.8907 16.203 8.7696v-65.35c0.0141-0.15739 0-0.3096 0-0.46897 0-0.038 7.6e-4 -0.0794 0-0.11724-0.10686-5.0474-7.3187-9.1214-16.203-9.1214z" style="color:#000000;fill:none;stroke-dasharray:3.83296474, 1.9164824;stroke-linecap:round;stroke-linejoin:round;stroke-width:.95824;stroke:#7d7d7d"/>
  <ellipse cx="127.27" cy="189.62" rx="32.602" ry="18.845" style="color:#000000;fill:none;stroke-linecap:round;stroke-linejoin:round;stroke-width:.95824;stroke:#7d7d7d"/>
  <ellipse cx="127.27" cy="256.1" rx="61.022" ry="35.273" style="color:#000000;fill:none;stroke-dasharray:3.83296472, 1.91648237;stroke-linecap:round;stroke-linejoin:round;stroke-width:.95824;stroke:#7d7d7d"/>
  <ellipse cx="127.36" cy="255.88" rx="16.207" ry="9.234" style="color:#000000;fill:none;stroke-dasharray:3.8329644, 1.91648219;stroke-dashoffset:37.67;stroke-linecap:round;stroke-linejoin:round;stroke-width:.95824;stroke:#7d7d7d"/>
  <ellipse cx="127.27" cy="189.81" rx="16.207" ry="9.234" style="color:#000000;fill:none;stroke-linecap:round;stroke-linejoin:round;stroke-width:.95824;stroke:#7d7d7d"/>
 </g>
 <path d="m568.91 90.97-48.406-29.059 0.38095 52.6 48.406 29.059z" style="color:#000000;fill:none;stroke-dasharray:0.67653545, 1.35307088;stroke-linecap:round;stroke-linejoin:round;stroke-width:.67654;stroke:#f00"/>
 <g transform="matrix(.54036 0 0 .54036 452.97 -5.98)">
  <path d="m127.26 220.84c-33.701 0-61.012 15.786-61.012 35.266 0 19.481 27.311 35.266 61.012 35.266s61.036-15.786 61.036-35.266c0-19.481-27.334-35.266-61.036-35.266zm0 26.028c8.9506 0 16.203 4.1388 16.203 9.2386s-7.2521 9.2386-16.203 9.2386c-8.9506 0-16.203-4.1388-16.203-9.2386s7.2521-9.2386 16.203-9.2386z" style="color:#000000;fill:#800000;stroke-linecap:round;stroke-linejoin:round;stroke-width:.95824;stroke:#7d7d7d"/>
  <path d="m127.26 180.58c-8.9108 0-16.138 4.0998-16.203 9.1683-2.9e-4 0.0227 0 0.0477 0 0.0703v66.194c0.0897-5.0559 7.3079-9.1448 16.203-9.1448 8.6709 0 15.769 3.8907 16.203 8.7696v-65.35c0.0141-0.15739 0-0.3096 0-0.46897 0-0.038 7.6e-4 -0.0794 0-0.11724-0.10685-5.0474-7.3187-9.1214-16.203-9.1214z" style="color:#000000;fill:#2b1100;stroke-linecap:round;stroke-linejoin:round;stroke-width:.95824;stroke:#7d7d7d"/>
  <path d="m127.26 170.78c-18.005 0-32.593 8.4447-32.593 18.852 0 10.408 14.588 18.829 32.593 18.829s32.617-8.4212 32.617-18.829c0-10.408-14.611-18.852-32.617-18.852zm0 9.8014c8.9506 0 16.203 4.1388 16.203 9.2386s-7.2521 9.2152-16.203 9.2152c-8.9506 0-16.203-4.1154-16.203-9.2152s7.2521-9.2386 16.203-9.2386z" style="color:#000000;fill:#800000;stroke-linecap:round;stroke-linejoin:round;stroke-width:.95824;stroke:#7d7d7d"/>
  <path d="m159.22 185.85c0.42985 1.2204 0.65656 2.4817 0.65656 3.7752 0 10.408-14.611 18.829-32.617 18.829-18.005 0-32.593-8.4212-32.593-18.829 0-1.1779 0.18182-2.3287 0.53931-3.4469l-26.145 59.301c-0.66701 1.2222-1.2054 2.476-1.6414 3.7517-0.76008 2.2239-1.1724 4.5173-1.1724 6.8703 0 19.481 27.311 35.266 61.012 35.266s61.036-15.786 61.036-35.266c0-2.3531-0.41173-4.6464-1.1724-6.8703h0.0469l-0.11724-0.23449c-0.036-0.10176-0.0797-0.20337-0.11725-0.30482-0.32389-0.8748-0.71506-1.7299-1.149-2.5793z" style="color:#000000;fill:#800080;stroke-linecap:round;stroke-linejoin:round;stroke-width:.95824;stroke:#7d7d7d"/>
  <ellipse cx="127.27" cy="189.62" rx="32.602" ry="18.845" style="color:#000000;fill:none;stroke-linecap:round;stroke-linejoin:round;stroke-width:.95824;stroke:#7d7d7d"/>
  <ellipse cx="127.27" cy="189.81" rx="16.207" ry="9.234" style="color:#000000;fill:none;stroke-linecap:round;stroke-linejoin:round;stroke-width:.95824;stroke:#7d7d7d"/>
  <path d="m127.26 220.84c-33.701 0-61.012 15.786-61.012 35.266 0 19.481 27.311 35.266 61.012 35.266s61.036-15.786 61.036-35.266c0-19.481-27.334-35.266-61.036-35.266zm0 26.028c8.9506 0 16.203 4.1388 16.203 9.2386s-7.2521 9.2386-16.203 9.2386c-8.9506 0-16.203-4.1388-16.203-9.2386s7.2521-9.2386 16.203-9.2386z" style="color:#000000;fill:#800000;stroke-linecap:round;stroke-linejoin:round;stroke-width:.95824;stroke:#7d7d7d"/>
  <path d="m127.26 180.58c-8.9108 0-16.138 4.0998-16.203 9.1683-2.9e-4 0.0227 0 0.0477 0 0.0703v66.194c0.0897-5.0559 7.3079-9.1448 16.203-9.1448 8.6709 0 15.769 3.8907 16.203 8.7696v-65.35c0.0141-0.15739 0-0.3096 0-0.46897 0-0.038 7.6e-4 -0.0794 0-0.11724-0.10685-5.0474-7.3187-9.1214-16.203-9.1214z" style="color:#000000;fill:url(#linearGradient14428);stroke-linecap:round;stroke-linejoin:round;stroke-width:.95824;stroke:#7d7d7d"/>
  <path d="m127.26 170.78c-18.005 0-32.593 8.4447-32.593 18.852 0 10.408 14.588 18.829 32.593 18.829s32.617-8.4212 32.617-18.829c0-10.408-14.611-18.852-32.617-18.852zm0 9.8014c8.9506 0 16.203 4.1388 16.203 9.2386s-7.2521 9.2152-16.203 9.2152c-8.9506 0-16.203-4.1154-16.203-9.2152s7.2521-9.2386 16.203-9.2386z" style="color:#000000;fill:url(#linearGradient14430);stroke-linecap:round;stroke-linejoin:round;stroke-width:2.6509;stroke:#7d7d7d"/>
  <path d="m159.22 185.85c0.42985 1.2204 0.65656 2.4817 0.65656 3.7752 0 10.408-14.611 18.829-32.617 18.829-18.005 0-32.593-8.4212-32.593-18.829 0-1.1779 0.18182-2.3287 0.53931-3.4469l-26.145 59.301c-0.66701 1.2222-1.2054 2.476-1.6414 3.7517-0.76007 2.2239-1.1724 4.5173-1.1724 6.8703 0 19.481 27.311 35.266 61.012 35.266s61.036-15.786 61.036-35.266c0-2.3531-0.41173-4.6464-1.1724-6.8703h0.0469l-0.11724-0.23449c-0.036-0.10176-0.0797-0.20337-0.11725-0.30482-0.32389-0.8748-0.71506-1.7299-1.149-2.5793z" style="color:#000000;fill:url(#linearGradient14432);stroke-linecap:round;stroke-linejoin:round;stroke-width:2.6509;stroke:#7d7d7d"/>
  <path d="m127.28 180.39c-8.9108 0-16.138 4.0998-16.203 9.1683-2.9e-4 0.0227 0 0.0477 0 0.0703v66.194c0.0897-5.0559 7.3079-9.1448 16.203-9.1448 8.6709 0 15.769 3.8907 16.203 8.7696v-65.35c0.0141-0.15739 0-0.3096 0-0.46897 0-0.038 7.6e-4 -0.0794 0-0.11724-0.10686-5.0474-7.3187-9.1214-16.203-9.1214z" style="color:#000000;fill:none;stroke-dasharray:3.83296474, 1.9164824;stroke-linecap:round;stroke-linejoin:round;stroke-width:.95824;stroke:#7d7d7d"/>
  <ellipse cx="127.27" cy="189.62" rx="32.602" ry="18.845" style="color:#000000;fill:none;stroke-linecap:round;stroke-linejoin:round;stroke-width:.95824;stroke:#7d7d7d"/>
  <ellipse cx="127.27" cy="256.1" rx="61.022" ry="35.273" style="color:#000000;fill:none;stroke-dasharray:3.83296472, 1.91648237;stroke-linecap:round;stroke-linejoin:round;stroke-width:.95824;stroke:#7d7d7d"/>
  <ellipse cx="127.36" cy="255.88" rx="16.207" ry="9.234" style="color:#000000;fill:none;stroke-dasharray:3.8329644, 1.91648219;stroke-dashoffset:37.67;stroke-linecap:round;stroke-linejoin:round;stroke-width:.95824;stroke:#7d7d7d"/>
  <ellipse cx="127.27" cy="189.81" rx="16.207" ry="9.234" style="color:#000000;fill:none;stroke-linecap:round;stroke-linejoin:round;stroke-width:.95824;stroke:#7d7d7d"/>
 </g>
 <path d="m569.36 142.77-65.751 37.968v-52.029l65.751-37.968" style="color:#000000;fill:none;stroke-dasharray:0.67653545, 1.35307088;stroke-linecap:round;stroke-linejoin:round;stroke-width:.67654;stroke:#f00"/>
 <g transform="matrix(.54036 0 0 .54036 504.76 23.65)">
  <path d="m127.26 220.84c-33.701 0-61.012 15.786-61.012 35.266 0 19.481 27.311 35.266 61.012 35.266s61.036-15.786 61.036-35.266c0-19.481-27.334-35.266-61.036-35.266zm0 26.028c8.9506 0 16.203 4.1388 16.203 9.2386s-7.2521 9.2386-16.203 9.2386c-8.9506 0-16.203-4.1388-16.203-9.2386s7.2521-9.2386 16.203-9.2386z" style="color:#000000;fill:#800000;stroke-linecap:round;stroke-linejoin:round;stroke-width:.95824;stroke:#7d7d7d"/>
  <path d="m127.26 180.58c-8.9108 0-16.138 4.0998-16.203 9.1683-2.9e-4 0.0227 0 0.0477 0 0.0703v66.194c0.0897-5.0559 7.3079-9.1448 16.203-9.1448 8.6709 0 15.769 3.8907 16.203 8.7696v-65.35c0.0141-0.15739 0-0.3096 0-0.46897 0-0.038 7.6e-4 -0.0794 0-0.11724-0.10685-5.0474-7.3187-9.1214-16.203-9.1214z" style="color:#000000;fill:#2b1100;stroke-linecap:round;stroke-linejoin:round;stroke-width:.95824;stroke:#7d7d7d"/>
  <path d="m127.26 170.78c-18.005 0-32.593 8.4447-32.593 18.852 0 10.408 14.588 18.829 32.593 18.829s32.617-8.4212 32.617-18.829c0-10.408-14.611-18.852-32.617-18.852zm0 9.8014c8.9506 0 16.203 4.1388 16.203 9.2386s-7.2521 9.2152-16.203 9.2152c-8.9506 0-16.203-4.1154-16.203-9.2152s7.2521-9.2386 16.203-9.2386z" style="color:#000000;fill:#800000;stroke-linecap:round;stroke-linejoin:round;stroke-width:.95824;stroke:#7d7d7d"/>
  <path d="m159.22 185.85c0.42985 1.2204 0.65656 2.4817 0.65656 3.7752 0 10.408-14.611 18.829-32.617 18.829-18.005 0-32.593-8.4212-32.593-18.829 0-1.1779 0.18182-2.3287 0.53931-3.4469l-26.145 59.301c-0.66701 1.2222-1.2054 2.476-1.6414 3.7517-0.76008 2.2239-1.1724 4.5173-1.1724 6.8703 0 19.481 27.311 35.266 61.012 35.266s61.036-15.786 61.036-35.266c0-2.3531-0.41173-4.6464-1.1724-6.8703h0.0469l-0.11724-0.23449c-0.036-0.10176-0.0797-0.20337-0.11725-0.30482-0.32389-0.8748-0.71506-1.7299-1.149-2.5793z" style="color:#000000;fill:#800080;stroke-linecap:round;stroke-linejoin:round;stroke-width:.95824;stroke:#7d7d7d"/>
  <ellipse cx="127.27" cy="189.62" rx="32.602" ry="18.845" style="color:#000000;fill:none;stroke-linecap:round;stroke-linejoin:round;stroke-width:.95824;stroke:#7d7d7d"/>
  <ellipse cx="127.27" cy="189.81" rx="16.207" ry="9.234" style="color:#000000;fill:none;stroke-linecap:round;stroke-linejoin:round;stroke-width:.95824;stroke:#7d7d7d"/>
  <path d="m127.26 220.84c-33.701 0-61.012 15.786-61.012 35.266 0 19.481 27.311 35.266 61.012 35.266s61.036-15.786 61.036-35.266c0-19.481-27.334-35.266-61.036-35.266zm0 26.028c8.9506 0 16.203 4.1388 16.203 9.2386s-7.2521 9.2386-16.203 9.2386c-8.9506 0-16.203-4.1388-16.203-9.2386s7.2521-9.2386 16.203-9.2386z" style="color:#000000;fill:#800000;stroke-linecap:round;stroke-linejoin:round;stroke-width:.95824;stroke:#7d7d7d"/>
  <path d="m127.26 180.58c-8.9108 0-16.138 4.0998-16.203 9.1683-2.9e-4 0.0227 0 0.0477 0 0.0703v66.194c0.0897-5.0559 7.3079-9.1448 16.203-9.1448 8.6709 0 15.769 3.8907 16.203 8.7696v-65.35c0.0141-0.15739 0-0.3096 0-0.46897 0-0.038 7.6e-4 -0.0794 0-0.11724-0.10685-5.0474-7.3187-9.1214-16.203-9.1214z" style="color:#000000;fill:url(#linearGradient14428);stroke-linecap:round;stroke-linejoin:round;stroke-width:.95824;stroke:#7d7d7d"/>
  <path d="m127.26 170.78c-18.005 0-32.593 8.4447-32.593 18.852 0 10.408 14.588 18.829 32.593 18.829s32.617-8.4212 32.617-18.829c0-10.408-14.611-18.852-32.617-18.852zm0 9.8014c8.9506 0 16.203 4.1388 16.203 9.2386s-7.2521 9.2152-16.203 9.2152c-8.9506 0-16.203-4.1154-16.203-9.2152s7.2521-9.2386 16.203-9.2386z" style="color:#000000;fill:url(#linearGradient14430);stroke-linecap:round;stroke-linejoin:round;stroke-width:2.6509;stroke:#7d7d7d"/>
  <path d="m159.22 185.85c0.42985 1.2204 0.65656 2.4817 0.65656 3.7752 0 10.408-14.611 18.829-32.617 18.829-18.005 0-32.593-8.4212-32.593-18.829 0-1.1779 0.18182-2.3287 0.53931-3.4469l-26.145 59.301c-0.66701 1.2222-1.2054 2.476-1.6414 3.7517-0.76007 2.2239-1.1724 4.5173-1.1724 6.8703 0 19.481 27.311 35.266 61.012 35.266s61.036-15.786 61.036-35.266c0-2.3531-0.41173-4.6464-1.1724-6.8703h0.0469l-0.11724-0.23449c-0.036-0.10176-0.0797-0.20337-0.11725-0.30482-0.32389-0.8748-0.71506-1.7299-1.149-2.5793z" style="color:#000000;fill:url(#linearGradient14432);stroke-linecap:round;stroke-linejoin:round;stroke-width:2.6509;stroke:#7d7d7d"/>
  <path d="m127.28 180.39c-8.9108 0-16.138 4.0998-16.203 9.1683-2.9e-4 0.0227 0 0.0477 0 0.0703v66.194c0.0897-5.0559 7.3079-9.1448 16.203-9.1448 8.6709 0 15.769 3.8907 16.203 8.7696v-65.35c0.0141-0.15739 0-0.3096 0-0.46897 0-0.038 7.6e-4 -0.0794 0-0.11724-0.10686-5.0474-7.3187-9.1214-16.203-9.1214z" style="color:#000000;fill:none;stroke-dasharray:3.83296474, 1.9164824;stroke-linecap:round;stroke-linejoin:round;stroke-width:.95824;stroke:#7d7d7d"/>
  <ellipse cx="127.27" cy="189.62" rx="32.602" ry="18.845" style="color:#000000;fill:none;stroke-linecap:round;stroke-linejoin:round;stroke-width:.95824;stroke:#7d7d7d"/>
  <ellipse cx="127.27" cy="256.1" rx="61.022" ry="35.273" style="color:#000000;fill:none;stroke-dasharray:3.83296472, 1.91648237;stroke-linecap:round;stroke-linejoin:round;stroke-width:.95824;stroke:#7d7d7d"/>
  <ellipse cx="127.36" cy="255.88" rx="16.207" ry="9.234" style="color:#000000;fill:none;stroke-dasharray:3.8329644, 1.91648219;stroke-dashoffset:37.67;stroke-linecap:round;stroke-linejoin:round;stroke-width:.95824;stroke:#7d7d7d"/>
  <ellipse cx="127.27" cy="189.81" rx="16.207" ry="9.234" style="color:#000000;fill:none;stroke-linecap:round;stroke-linejoin:round;stroke-width:.95824;stroke:#7d7d7d"/>
 </g>
 <path d="m501.07 129.37-12.984 2.6497 4.3769 7.5904z" style="fill:#fff;stroke-dasharray:3.19748038, 3.19748038;stroke-linecap:round;stroke-linejoin:round;stroke-width:1.0658;stroke:#008000"/>
 <path d="m503.33 129.37-49.288-28.898 0.0558 51.414 49.22 29.37z" style="color:#000000;fill-opacity:.37759;fill:#ff8080;stroke-dasharray:1.43244097, 2.86488193;stroke-linecap:round;stroke-linejoin:round;stroke-width:1.4324;stroke:#f00"/>
 <path d="m456.1 144.56 10.456-28.417 23.975 13.888 10.43 40.548z" style="color:#000000;fill:none;stroke-linecap:round;stroke-linejoin:round;stroke-width:1.4324;stroke:#7d7d7d"/>
 <ellipse transform="rotate(-2)" cx="472.82" cy="159.05" rx="4.0406" ry="3.7795" style="fill:#008000;stroke-linecap:round;stroke-linejoin:round;stroke-width:3.7837;stroke:#008000"/>
 <path d="m481.28 140.96 10.122-5.4944" style="fill:none;stroke-dasharray:3.0046793, 3.0046793;stroke-width:1.0016;stroke:#008000"/>
 <g transform="rotate(150.03 681.99 48.505)">
  <path d="m904.77 68.88 81.68 0.63104" style="fill:none;stroke-dasharray:3.0046793, 3.0046793;stroke-width:1.0016;stroke:#008000"/>
  <path d="m990.22 69.373-12.571-4.1905v8.7619z" style="fill:#fff;stroke-dasharray:3.19748039, 3.19748039;stroke-linecap:round;stroke-linejoin:round;stroke-width:1.0658;stroke:#008000"/>
 </g>
 <path d="m477.96 169.53 6.2254-5.1469 6.9023 14.13 6.2932-3.0742-6.9023-14.13 7.4286-1.523-19.542-14.716z" style="fill:#fff;stroke-linecap:round;stroke-linejoin:round;stroke-width:.75591;stroke:#000"/>
 <g transform="matrix(.2917 0 0 -.28875 53.164 167.33)" style="fill:#1f638a;stroke-linecap:round;stroke-linejoin:round;stroke-width:1.2209;stroke:#1f638a">
  <path d="m207.49 126.25 34.17 21.614-34.17 21.614z" style="fill:#1f638a;stroke-linecap:round;stroke-linejoin:round;stroke-width:1.3023;stroke:#1f638a"/>
  <rect x="172.19" y="137.99" width="39.213" height="19.761" style="fill:#1f638a;stroke-linecap:round;stroke-linejoin:round;stroke-width:1.3023;stroke:#1f638a"/>
 </g>
 <g transform="matrix(.2917 0 0 .28875 343.45 81.94)" style="fill:#1f638a;stroke-linecap:round;stroke-linejoin:round;stroke-width:1.2209;stroke:#1f638a">
  <path d="m207.49 126.25 34.17 21.614-34.17 21.614z" style="fill:#1f638a;stroke-linecap:round;stroke-linejoin:round;stroke-width:1.3023;stroke:#1f638a"/>
  <rect x="172.19" y="137.99" width="39.213" height="19.761" style="fill:#1f638a;stroke-linecap:round;stroke-linejoin:round;stroke-width:1.3023;stroke:#1f638a"/>
 </g>
 <g transform="translate(125.31,290.16)">
  <ellipse cx="17.483" cy="-98.798" rx="13.199" ry="13.469" style="fill:#1f638a;stroke-linecap:round;stroke-linejoin:round;stroke-width:1.0658"/>
  <text x="11.641406" y="-91.256096" style="fill:#000000;font-family:'Arial Nova', 'Arial Unicode MS', 'Yu Gothic UI', sans-serif;font-size:12.8px;letter-spacing:0px;line-height:0%;stroke-width:1.0667;word-spacing:0px" xml:space="preserve"><tspan x="11.641406" y="-91.256096" style="fill:#ffffff;font-family:'Arial Nova', 'Arial Unicode MS', 'Yu Gothic UI', sans-serif;font-size:21.333px;stroke-width:1.0667;stroke:#ffffff">3</tspan></text>
 </g>
 <g transform="translate(464.72,262.15)">
  <ellipse cx="48.684" cy="-98.798" rx="13.199" ry="13.469" style="fill:#1f638a;stroke-linecap:round;stroke-linejoin:round;stroke-width:1.0658"/>
  <text x="42.842751" y="-91.162346" style="fill:#000000;font-family:'Arial Nova', 'Arial Unicode MS', 'Yu Gothic UI', sans-serif;font-size:12.8px;letter-spacing:0px;line-height:0%;stroke-width:1.0667;word-spacing:0px" xml:space="preserve"><tspan x="42.842751" y="-91.162346" style="fill:#ffffff;font-family:'Arial Nova', 'Arial Unicode MS', 'Yu Gothic UI', sans-serif;font-size:21.333px;stroke-width:1.0667;stroke:#ffffff">4</tspan></text>
 </g>
 <path d="m25.633 97.998 1.3363 28.306 15.307 15.064v-31.586" style="fill-rule:evenodd;fill:#fff;stroke-linecap:round;stroke-linejoin:round;stroke-width:1.5;stroke:#000"/>
 <path d="m42.277 141.37 27.334-9.5973 1.9438-30.007" style="fill-rule:evenodd;fill:#fff;stroke-linecap:round;stroke-linejoin:round;stroke-width:1.5;stroke:#000"/>
 <path d="m25.633 97.998 16.643 11.784 29.278-8.018-19.438-8.9899z" style="fill-rule:evenodd;fill:#fff;stroke-linecap:round;stroke-linejoin:round;stroke-width:1.5;stroke:#000"/>
 <path d="m48.138 154.37 6.2254-5.147 6.9023 14.13 6.2932-3.0742-6.9023-14.13 7.4286-1.523-19.542-14.716z" style="fill:#fff;stroke-linecap:round;stroke-linejoin:round;stroke-width:.75591;stroke:#000"/>
 <circle cx="46.407" cy="99.82" r="3.0371" style="fill:#5ea226;stroke-linecap:round;stroke-linejoin:round;stroke-width:1.3;stroke:#5ea226"/>
 <circle cx="57.219" cy="121.08" r="3.0371" style="fill:#5ea226;stroke-linecap:round;stroke-linejoin:round;stroke-width:1.3;stroke:#5ea226"/>
 <circle cx="33.773" cy="117.8" r="3.0371" style="fill:#5ea226;stroke-linecap:round;stroke-linejoin:round;stroke-width:1.3;stroke:#5ea226"/>
</svg>
