<?xml version="1.0" encoding="UTF-8"?>
<svg width="18cm" height="12cm" version="1.1" viewBox="0 0 180 120" xmlns="http://www.w3.org/2000/svg" xmlns:xlink="http://www.w3.org/1999/xlink"><defs><linearGradient id="linearGradient5398"><stop style="stop-color:#fff" offset="0"/><stop style="stop-color:#7d7d7d" offset="1"/></linearGradient><linearGradient id="linearGradient3012"><stop style="stop-color:#b3b3b3" offset="0"/><stop style="stop-color:#b3b3b3;stop-opacity:0" offset="1"/></linearGradient><linearGradient id="linearGradient7747-2-1"><stop style="stop-color:#fff" offset="0"/><stop style="stop-color:#808080" offset="1"/></linearGradient><linearGradient id="linearGradient20539-5-7" x1="54.983" x2="54.983" y1="34.986" y2="34.986" gradientUnits="userSpaceOnUse"><stop style="stop-color:#fff" offset="0"/><stop style="stop-color:#FCFCFC" offset=".2264"/><stop style="stop-color:#F4F4F4" offset=".3626"/><stop style="stop-color:#E6E6E6" offset=".475"/><stop style="stop-color:#D1D1D1" offset=".5744"/><stop style="stop-color:#B7B7B7" offset=".6652"/><stop style="stop-color:#979797" offset=".7498"/><stop style="stop-color:#707070" offset=".8297"/><stop style="stop-color:#444" offset=".9057"/><stop style="stop-color:#121212" offset=".9761"/><stop offset="1"/></linearGradient><linearGradient id="linearGradient2869-9-5" x1="4.0929" x2="64.639" y1="254.63" y2="254.63" gradientTransform="translate(98.059 -197)" gradientUnits="userSpaceOnUse" xlink:href="#linearGradient7747-2-1"/><linearGradient id="linearGradient2966-2" x1="152.19" x2="138.28" y1="251.84" y2="251.93" gradientTransform="translate(-18.521 -197)" gradientUnits="userSpaceOnUse" xlink:href="#linearGradient20539-5-7"/><radialGradient id="radialGradient2974-0" cx="160.82" cy="248.16" r="2.9639" gradientTransform="matrix(1 0 0 6.6196 -18.521 -1591.5)" gradientUnits="userSpaceOnUse" xlink:href="#linearGradient3012"/><linearGradient id="linearGradient2990-8" x1="152.16" x2="147.41" y1="220.35" y2="220.35" gradientTransform="translate(-18.521 -197)" gradientUnits="userSpaceOnUse" xlink:href="#linearGradient20539-5-7"/><radialGradient id="radialGradient2982-8" cx="107.08" cy="251.24" r="5.764" gradientTransform="translate(-16.404 -197)" gradientUnits="userSpaceOnUse" xlink:href="#linearGradient3012"/><radialGradient id="radialGradient3026-4" cx="91.722" cy="251.73" r="5.0507" gradientTransform="matrix(.07857 -2.657 1.9456 .057532 -417.79 283.99)" gradientUnits="userSpaceOnUse" xlink:href="#linearGradient20539-5-7"/><linearGradient id="linearGradient2998-7" x1="91.873" x2="87.17" y1="228.9" y2="228.9" gradientTransform="translate(-12.7 -197)" gradientUnits="userSpaceOnUse" xlink:href="#linearGradient20539-5-7"/><linearGradient id="linearGradient3016-0" x1="41.462" x2="44.102" y1="248.04" y2="248.04" gradientTransform="translate(9.7807e-8 -197)" gradientUnits="userSpaceOnUse" spreadMethod="reflect" xlink:href="#linearGradient3012"/><linearGradient id="linearGradient2942-4" x1="21.427" x2="31.509" y1="247.69" y2="247.69" gradientTransform="matrix(-1 0 0 1 52.935 -197)" gradientUnits="userSpaceOnUse" xlink:href="#linearGradient20539-5-7"/><linearGradient id="linearGradient2869-5" x1="4.0929" x2="64.639" y1="254.63" y2="254.63" gradientTransform="translate(9.7807e-8 -197)" gradientUnits="userSpaceOnUse" xlink:href="#linearGradient7747-2-1"/><linearGradient id="linearGradient2940-6" x1="26.773" x2="31.498" y1="223.07" y2="223.07" gradientTransform="matrix(-1 0 0 1 58.271 -197)" gradientUnits="userSpaceOnUse" xlink:href="#linearGradient20539-5-7"/><linearGradient id="linearGradient2869-1-5" x1="4.0929" x2="64.639" y1="254.63" y2="254.63" gradientTransform="translate(47.788 -197)" gradientUnits="userSpaceOnUse" xlink:href="#linearGradient7747-2-1"/><radialGradient id="radialGradient5335" cx="107.08" cy="251.24" r="5.764" gradientTransform="translate(-44.979 -210.26)" gradientUnits="userSpaceOnUse" xlink:href="#linearGradient3012"/><linearGradient id="linearGradient5343" x1="4.0929" x2="64.639" y1="254.63" y2="254.63" gradientTransform="translate(67.368 -206.88)" gradientUnits="userSpaceOnUse" xlink:href="#linearGradient7747-2-1"/><radialGradient id="radialGradient5347" cx="160.82" cy="248.16" r="2.9639" gradientTransform="matrix(1 0 0 6.6196 -58.208 -1601.4)" gradientUnits="userSpaceOnUse" xlink:href="#linearGradient3012"/><linearGradient id="linearGradient5392" x1="65.257" x2="91.147" y1="49.975" y2="49.975" gradientTransform="translate(11.642 -9.8768)" gradientUnits="userSpaceOnUse" xlink:href="#linearGradient5398"/><linearGradient id="linearGradient5392-1" x1="65.257" x2="91.147" y1="49.975" y2="49.975" gradientTransform="translate(-33.161 -9.8768)" gradientUnits="userSpaceOnUse" xlink:href="#linearGradient5398"/><linearGradient id="linearGradient5392-0" x1="65.257" x2="91.147" y1="49.975" y2="49.975" gradientTransform="translate(60.863 -8.9915)" gradientUnits="userSpaceOnUse" xlink:href="#linearGradient5398"/><linearGradient id="linearGradient2990-8-0" x1="152.16" x2="147.41" y1="220.35" y2="220.35" gradientTransform="matrix(.42261 0 0 .42606 -54.133 -65.469)" gradientUnits="userSpaceOnUse" xlink:href="#linearGradient20539-5-7"/><linearGradient id="linearGradient2966-2-7" x1="152.19" x2="138.28" y1="251.84" y2="251.93" gradientTransform="matrix(.42261 0 0 .42606 -54.263 -65.434)" gradientUnits="userSpaceOnUse" xlink:href="#linearGradient20539-5-7"/></defs><g transform="translate(0 -177)" style="display:none"><circle cx="-20.286" cy="377.35" r="9.9" style="fill:none;stroke-linecap:round;stroke-linejoin:round;stroke-width:.2;stroke:#000"/><circle cx="-20.211" cy="365.99" r="9.9" style="fill:none;stroke-linecap:round;stroke-linejoin:round;stroke-width:.2;stroke:#000"/><circle cx="-20.272" cy="388.69" r="9.9" style="fill:none;stroke-linecap:round;stroke-linejoin:round;stroke-width:.2;stroke:#000"/><circle cx="-20.272" cy="399.8" r="9.9" style="fill:none;stroke-linecap:round;stroke-linejoin:round;stroke-width:.2;stroke:#000"/><circle cx="116.68" cy="438.72" r="104.9" style="fill:none;stroke-linecap:round;stroke-linejoin:round;stroke-width:.2;stroke:#000"/><circle cx="539.34" cy="238.24" r="400" style="display:inline;fill:none;stroke-linecap:round;stroke-linejoin:round;stroke-width:.2;stroke:#000"/><circle cx="525.98" cy="616.54" r="300" style="display:inline;fill:none;stroke-linecap:round;stroke-linejoin:round;stroke-width:.5;stroke:#000"/></g><g transform="translate(0,20)" style="display:none"><path d="m60.786 31.46 8.5289 0.0406v39.109l1.7318-0.0406-0.0172 13.227c-13.652 1.563-7.8552-3.0839-9.0188-13.002-0.69757-5.0202-5.6304-9.2638-5.1438-14.309 0.40833-4.2336 5.7835-6.7743 6.5318-10.961 0.83891-4.6938-2.6127-14.064-2.6127-14.064z" style="fill-rule:evenodd;fill:url(#linearGradient2869-1-5)"/><path d="m69.325 31.501v10.18a9.46 9.9 0 0 1 1.6937-4.6121 9.46 9.9 0 0 1-1.6843-5.5676zm0 12.408v9.2377a9.46 9.9 0 0 1 1.6508-4.6643 9.46 9.9 0 0 1-1.6508-4.5734zm0 11.252v15.45h1.7554v-10.667a9.46 9.9 0 0 1-1.7554-4.7832z" style="fill:#b3b3b3;stroke-linecap:round;stroke-linejoin:round;stroke-width:.379;stroke:#b3b3b3"/><path d="m60.786 31.46v0l8.5289 0.0406v39.109l1.7318-0.0406-0.0172 13.227" style="fill:none;stroke-linecap:round;stroke-linejoin:round;stroke-width:.379;stroke:#7d7d7d"/><path d="m119.59 31.495v16.792c0.15046-5.6241 0.75322-11.239 1.8035-16.792zm0 22.463v16.769h1.8025c-1.0486-5.5433-1.6509-11.151-1.8025-16.769z" style="fill:#999;stroke-linecap:round;stroke-linejoin:round;stroke-width:.379;stroke:#999"/><path d="m31.408 21.373h-4.545v9.3929h4.545" style="fill:url(#linearGradient2940-6);stroke-linecap:round;stroke-linejoin:round;stroke-width:.179;stroke:#000"/><path d="m12.998 31.46 8.5289 0.0406v39.109l1.7318-0.0406-0.0172 13.227c-13.652 1.563-7.8552-3.0839-9.0188-13.002-0.69757-5.0202-5.6304-9.2638-5.1438-14.309 0.40833-4.2336 5.7835-6.7743 6.5318-10.961 0.83891-4.6938-2.6127-14.064-2.6127-14.064z" style="fill-rule:evenodd;fill:url(#linearGradient2869-5)"/><path d="m31.409 30.766h-9.8805v39.844h9.8805" style="fill:url(#linearGradient2942-4);stroke-linecap:round;stroke-linejoin:round;stroke-width:.2;stroke:#000"/><path d="m31.352 18.397v54.198" style="fill:none;stroke-dasharray:1.05999997, 0.52999997, 0.26499999, 0.52999997;stroke-linecap:round;stroke-linejoin:round;stroke-width:.265;stroke:#000"/><rect x="38.255" y="31.501" width="5.7461" height="39.069" style="fill:url(#linearGradient3016-0);stroke-linecap:round;stroke-linejoin:round;stroke-width:.5;stroke:#f00"/><path d="m38.035 31.501h-5.6279" style="fill-rule:evenodd;fill:#f00;stroke-dasharray:0.53699999, 0.53699999;stroke-linecap:round;stroke-linejoin:round;stroke-width:.179;stroke:#f00"/><path d="m38.035 70.569h-5.6279" style="fill-rule:evenodd;fill:#f00;stroke-dasharray:0.53699999, 0.53699999;stroke-linecap:round;stroke-linejoin:round;stroke-width:.179;stroke:#f00"/><path d="m79.115 45.445h-4.5883v-24.072h4.5883" style="fill:url(#linearGradient2998-7);stroke-linecap:round;stroke-linejoin:round;stroke-width:.179;stroke:#000"/><path d="m90.703 48.54h-10.429" style="fill:none;stroke-dasharray:0.53699999, 0.53699999;stroke-linecap:round;stroke-linejoin:round;stroke-width:.179;stroke:#f00"/><path d="m79.171 64.097c-5.4676 0-9.9-4.4324-9.9-9.9 0-3.8071 2.149-7.1123 5.3001-8.7687h4.644" style="fill:url(#radialGradient3026-4);stroke-linecap:round;stroke-linejoin:round;stroke-width:.2;stroke:#000"/><path d="m90.703 59.915h-10.299" style="fill:none;stroke-dasharray:0.53699999, 0.53699999;stroke-linecap:round;stroke-linejoin:round;stroke-width:.179;stroke:#f00"/><circle cx="90.677" cy="54.236" r="5.6745" style="fill:url(#radialGradient2982-8);stroke-linecap:round;stroke-linejoin:round;stroke-width:.5;stroke:#f00"/><path d="m133.58 27.133h-4.545v-5.7596h4.545" style="fill:url(#linearGradient2990-8);stroke-linecap:round;stroke-linejoin:round;stroke-width:.179;stroke:#000"/><ellipse cx="142.3" cy="51.157" rx="2.8744" ry="19.531" style="fill:url(#radialGradient2974-0);stroke-linecap:round;stroke-linejoin:round;stroke-width:.5;stroke:#f00"/><path d="m142.12 31.473h-7.3741" style="fill:none;stroke-dasharray:0.53699999, 0.53699999;stroke-linecap:round;stroke-linejoin:round;stroke-width:.179;stroke:#f00"/><path d="m142.01 70.772h-7.2822" style="fill:none;stroke-dasharray:0.53699999, 0.53699999;stroke-linecap:round;stroke-linejoin:round;stroke-width:.179;stroke:#f00"/><path d="m133.64 89.24c-4.35-0.0379-8.1656-2.911-9.3775-6.989-5.5535-17.837-6.2084-36.901-1.9226-55.111l11.316-8e-3" style="fill:url(#linearGradient2966-2);stroke-linecap:round;stroke-linejoin:round;stroke-width:.2;stroke:#000"/><path d="m133.68 20.422v69.973" style="fill:none;stroke-dasharray:1.05999997, 0.52999997, 0.26499999, 0.52999997;stroke-linecap:round;stroke-linejoin:round;stroke-width:.265;stroke:#000"/><path d="m71.272 60.166c-1.256-1.6595-2.001-3.7272-2.001-5.9688 0-2.1188 0.66559-4.0821 1.7991-5.6922" style="fill:none;stroke-linecap:round;stroke-linejoin:round;stroke-width:.5;stroke:#f00"/><path d="m79.22 19.89v46.231" style="fill:none;stroke-dasharray:1.05999994, 0.52999996, 0.26499998, 0.52999996;stroke-linecap:round;stroke-linejoin:round;stroke-width:.265;stroke:#000"/><path d="m12.998 31.46h-1e-6l8.5289 0.0406v39.109l1.7318-0.0406-0.0172 13.227" style="fill:none;stroke-linecap:round;stroke-linejoin:round;stroke-width:.379;stroke:#7d7d7d"/><path d="m21.419 31.527v38.973" style="fill:none;stroke-linecap:round;stroke-linejoin:round;stroke-width:.5;stroke:#f00"/><path d="m71.179 48.418 0.2019 11.748" style="fill:none;stroke-width:.26458px;stroke:#f00"/><g transform="rotate(24.45 540.17 123.39)"><path d="m82.22 251.21 3.3262-1.1087v2.3183z" style="display:inline;stroke-linecap:round;stroke-linejoin:round;stroke-width:.282;stroke:#000"/><path d="m82.165 251.26h9.826" style="display:inline;stroke-linecap:round;stroke-linejoin:round;stroke-width:.25;stroke:#000"/><ellipse transform="matrix(.9993 -.037301 .032652 .99947 0 0)" cx="83.66" cy="254.47" rx=".33696" ry=".33685" style="display:inline;stroke-linecap:round;stroke-linejoin:round;stroke-width:.32619;stroke:#000"/></g><path d="m121.41 31.427-0.0251 39.299" style="fill:none;stroke-width:.26458px;stroke:#f00"/><g transform="translate(-18.521 -197)"><path d="m138.18 247.99 3.3262-1.1087v2.3183z" style="display:inline;stroke-linecap:round;stroke-linejoin:round;stroke-width:.282;stroke:#000"/><path d="m141.19 248.04h10.995" style="display:inline;stroke-linecap:round;stroke-linejoin:round;stroke-width:.25;stroke:#000"/><ellipse transform="matrix(.9993 -.037301 .032652 .99947 0 0)" cx="143.93" cy="253.5" rx=".33696" ry=".33685" style="display:inline;stroke-linecap:round;stroke-linejoin:round;stroke-width:.32619;stroke:#000"/></g><path d="m21.257 31.5h2.0014v39h-1.8248" style="fill:none;stroke-linecap:round;stroke-linejoin:round;stroke-width:.26458px;stroke:#f00"/><g transform="translate(0 -197)"><path d="m21.63 251.21 3.3262-1.1087v2.3183z" style="display:inline;stroke-linecap:round;stroke-linejoin:round;stroke-width:.282;stroke:#000"/><path d="m21.575 251.26h9.826" style="display:inline;stroke-linecap:round;stroke-linejoin:round;stroke-width:.25;stroke:#000"/><ellipse transform="matrix(.9993 -.037301 .032652 .99947 0 0)" cx="23.101" cy="252.21" rx=".33696" ry=".33685" style="display:inline;stroke-linecap:round;stroke-linejoin:round;stroke-width:.32619;stroke:#000"/></g><path d="m123.97 79.447 2.8482-2.0446 0.68697 2.2141z" style="display:inline;stroke-linecap:round;stroke-linejoin:round;stroke-width:.282;stroke:#000"/><path d="m126.86 78.603c11.357-3.5215 34.486-10.676 34.486-10.676l1.338 3.0978 0.18454-6.7741 1.325 2.8316s4.817-1.5029 11.737-3.6607" style="display:inline;fill:none;stroke-linecap:round;stroke-linejoin:round;stroke-width:.25;stroke:#000"/><ellipse transform="matrix(.94337 -.33175 .32736 .9449 0 0)" cx="145.64" cy="118.18" rx=".33696" ry=".33685" style="display:inline;stroke-linecap:round;stroke-linejoin:round;stroke-width:.32619;stroke:#000"/><path d="m111.06 31.46 8.529 0.0406v39.109l1.7318-0.0406-0.0172 13.227c-13.652 1.563-7.8552-3.0839-9.0189-13.002-0.69757-5.0202-5.6304-9.2638-5.1438-14.309 0.40833-4.2336 5.7836-6.7743 6.5319-10.961 0.83892-4.6938-2.6128-14.064-2.6128-14.064z" style="fill-rule:evenodd;fill:url(#linearGradient2869-9-5)"/><path d="m111.06 31.46v0l8.529 0.0406v39.109l1.7318-0.0406-0.0172 13.227" style="fill:none;stroke-linecap:round;stroke-linejoin:round;stroke-width:.379;stroke:#7d7d7d"/><path d="m121.36 70.632c-2.4396-12.912-2.4274-26.213 0.0515-39.17" style="fill:none;stroke-linecap:round;stroke-linejoin:round;stroke-width:.5;stroke:#f00"/></g><g transform="translate(0,20)"><path d="m49.864 88.8c-5.2122-32.249-5.1115-65.132 0.29823-97.349l-1.5875 1.2e-6c-5.4097 32.216-5.5104 65.1-0.29823 97.349z" style="fill:#e6e6e6;stroke-linecap:round;stroke-linejoin:round;stroke-width:.379;stroke:#e6e6e6"/><path d="m62.128 35.277h-10.429" style="fill:none;stroke-dasharray:0.53699999, 0.53699999;stroke-linecap:round;stroke-linejoin:round;stroke-width:.179;stroke:#f00"/><path d="m62.128 46.652h-10.299" style="fill:none;stroke-dasharray:0.53699999, 0.53699999;stroke-linecap:round;stroke-linejoin:round;stroke-width:.179;stroke:#f00"/><circle cx="62.102" cy="40.973" r="5.6745" style="fill:url(#radialGradient5335);stroke-linecap:round;stroke-linejoin:round;stroke-width:.5;stroke:#f00"/><ellipse cx="102.61" cy="41.28" rx="2.8744" ry="19.531" style="fill:url(#radialGradient5347);stroke-linecap:round;stroke-linejoin:round;stroke-width:.5;stroke:#f00"/><path d="m102.43 21.596h-7.3741" style="fill:none;stroke-dasharray:0.53699999, 0.53699999;stroke-linecap:round;stroke-linejoin:round;stroke-width:.179;stroke:#f00"/><path d="m102.52 60.896h-7.2822" style="fill:none;stroke-dasharray:0.53699999, 0.53699999;stroke-linecap:round;stroke-linejoin:round;stroke-width:.179;stroke:#f00"/><path d="m46.401 46.903c-1.256-1.6595-2.001-3.7272-2.001-5.9688 0-2.1188 0.66559-4.0821 1.7991-5.6922" style="fill:none;stroke-linecap:round;stroke-linejoin:round;stroke-width:.5;stroke:#f00"/><path d="m46.308 35.155 0.2019 11.748" style="fill:none;stroke-width:.26458px;stroke:#f00"/><path d="m80.365 21.584 8.5289 0.0406v39.109l1.7318-0.0406-0.0172 13.227c-13.652 1.563-7.8552-3.0839-9.0188-13.002-0.69756-5.0202-5.6304-9.2638-5.1438-14.309 0.40833-4.2336 5.7835-6.7743 6.5318-10.961 0.83891-4.6938-2.6127-14.064-2.6127-14.064z" style="fill-rule:evenodd;fill:url(#linearGradient5343)"/><path d="m92.707 88.822a300 300 0 0 1 0.29823-97.449" style="fill:none;stroke-linecap:round;stroke-linejoin:round;stroke-width:.5;stroke:#000"/><path d="m77.191 88.822h15.516a300 300 0 0 1 0.29823-97.449h-15.914" style="fill:url(#linearGradient5392);stroke-linecap:round;stroke-linejoin:round;stroke-width:.379;stroke:#7a7a7a"/><path d="m32.388 88.822h15.516a300 300 0 0 1 0.29823-97.449h-15.914" style="fill:url(#linearGradient5392-1);stroke-linecap:round;stroke-linejoin:round;stroke-width:.379;stroke:#7a7a7a"/><path d="m54.284 50.756a9.9 9.9 0 0 1-9.8222-9.9144 9.9 9.9 0 0 1 9.8517-9.8851" style="fill:none;stroke-linecap:round;stroke-linejoin:round;stroke:#000"/><path d="m155.22 40.981c0 26.711 1.3589 48.364-0.22862 48.364-1.5875-2.9e-5 -0.2286-21.653-0.2286-48.364s-1.3589-48.364 0.2286-48.364c1.5875-6.41e-5 0.22862 21.653 0.22862 48.364z" style="fill:#800080;stroke-linecap:round;stroke-linejoin:round;stroke-width:.5;stroke:#f00"/><path d="m154.82-7.5081h-7.3741" style="fill:none;stroke-dasharray:0.53699999, 0.53699999;stroke-linecap:round;stroke-linejoin:round;stroke-width:.179;stroke:#f00"/><path d="m154.71 89.471h-7.2822" style="fill:none;stroke-dasharray:0.53699999, 0.53699999;stroke-linecap:round;stroke-linejoin:round;stroke-width:.179;stroke:#f00"/><path d="m142.33 95.982 3.151-1.5375 0.30559 2.298z" style="stroke-linecap:round;stroke-linejoin:round;stroke-width:.282;stroke:#000"/><ellipse transform="matrix(.9993 -.037301 .032652 .99947 0 0)" cx="174.42" cy="97.716" rx=".33696" ry=".33685" style="stroke-linecap:round;stroke-linejoin:round;stroke-width:.32619;stroke:#000"/><path d="m143.89 89.675c-5.2122-32.282-5.1115-65.199 0.29823-97.449l-1.5875 1.2e-6c-5.4097 32.25-5.5105 65.167-0.29823 97.449z" style="fill:#e6e6e6;stroke-linecap:round;stroke-linejoin:round;stroke-width:.379;stroke:#e6e6e6"/><path d="m126.41 89.708h15.516a300 300 0 0 1 0.29823-97.449h-15.914" style="fill:url(#linearGradient5392-0);stroke-linecap:round;stroke-linejoin:round;stroke-width:.379;stroke:#7a7a7a"/><path d="m94.872 75.357 2.8482-2.0446 0.68697 2.2141z" style="stroke-linecap:round;stroke-linejoin:round;stroke-width:.282;stroke:#000"/><path d="m97.761 74.513c11.357-3.5215 16.496-5.103 16.496-5.103l1.338 3.0978 0.18454-6.7741 1.325 2.8316s1.5012-0.37415 8.4208-2.5319" style="fill:none;stroke-linecap:round;stroke-linejoin:round;stroke-width:.25;stroke:#000"/><ellipse transform="matrix(.94337 -.33175 .32736 .9449 0 0)" cx="97.176" cy="103.98" rx=".33696" ry=".33685" style="stroke-linecap:round;stroke-linejoin:round;stroke-width:.32619;stroke:#000"/><path d="m140.95-7.7392-2.5395 41.664c0.6992-13.679 1.6776-23.471 3.7755-41.664zm-2.5395 55.758 2.416 41.678h1.0944c-2.2126-13.16-3.3588-27.715-3.5104-41.678z" style="fill:#800080;stroke-linecap:round;stroke-linejoin:round;stroke-width:.379;stroke:#800080"/><path d="m140.92 89.591c-3.5509-32.041-3.5331-65.102 0.075-97.256" style="fill:none;stroke-linecap:round;stroke-linejoin:round;stroke-width:.5;stroke:#f00"/><path d="m141.06-7.2003-0.0251 96.623" style="fill:none;stroke-width:.26458px;stroke:#f00"/><path d="m142.37 98.302a400 400 0 0 1 0.34509-116.48" style="fill:none;stroke-linecap:round;stroke-linejoin:round;stroke:#000"/><path d="m94.727 88.899c-5.2122-32.305-5.1115-65.246 0.29823-97.519l-1.5875 1.2e-6c-5.4097 32.273-5.5104 65.214-0.29823 97.519z" style="fill:#e6e6e6;stroke-linecap:round;stroke-linejoin:round;stroke-width:.379;stroke:#e6e6e6"/><path d="m90.722 21.55-0.0251 39.299" style="fill:none;stroke-width:.26458px;stroke:#f00"/><path d="m90.671 60.756c-2.4395-12.912-2.4273-26.213 0.0515-39.17" style="fill:none;stroke-linecap:round;stroke-linejoin:round;stroke-width:.5;stroke:#f00"/><path d="m106.16 98.655a104.9 104.9 0 0 1 0.75308-116.37" style="fill:none;stroke-linecap:round;stroke-linejoin:round;stroke:#000"/><path d="m177.48 91.127-11.933 1.6562-0.92567-3.5537-0.5644 7.9366-1.0449-4.031-18.892 2.6215" style="fill:none;stroke-linecap:round;stroke-linejoin:round;stroke-width:.25;stroke:#000"/><g transform="rotate(24.45 557.76 58.936)"><path d="m82.22 251.21 3.3262-1.1087v2.3183z" style="stroke-linecap:round;stroke-linejoin:round;stroke-width:.282;stroke:#000"/><path d="m82.165 251.26h9.826" style="stroke-linecap:round;stroke-linejoin:round;stroke-width:.25;stroke:#000"/><ellipse transform="matrix(.9993 -.037301 .032652 .99947 0 0)" cx="83.66" cy="254.47" rx=".33696" ry=".33685" style="stroke-linecap:round;stroke-linejoin:round;stroke-width:.32619;stroke:#000"/></g><g transform="matrix(.49023 0 0 .50233 16.545 16.488)" style="stroke-width:2.0151"><path d="m8.225 27.57v2.4538h3.6209v-2.4538h-1.9208z" style="fill:url(#linearGradient2990-8-0);stroke-linecap:round;stroke-linejoin:round;stroke-width:1.0076;stroke:#000"/><path d="m10.024 30.059-4.7596 0.0033c-1.8112 7.7586-1.5346 15.881 0.81242 23.48 0.51131 1.7346 2.1194 2.9572 3.954 2.9774v2.26e-4c0.0015-1.4e-5 3e-3 -2.26e-4 0.0046-2.26e-4 0.0015 1.6e-5 3e-3 2.26e-4 0.0046 2.26e-4v-2.26e-4c1.8345-0.02015 3.4427-1.2428 3.954-2.9774 2.347-7.5997 2.6237-15.722 0.81242-23.48l-4.7596-0.0033z" style="fill:url(#linearGradient2966-2-7);stroke-linecap:round;stroke-linejoin:round;stroke-width:1.0076;stroke:#000"/></g><circle cx="55.435" cy="-4.654" r="3.9342" style="fill:none;stroke-linecap:round;stroke-linejoin:round;stroke-width:.5;stroke:#f60"/><path d="m53.967-1.9024a1.628 1.628 0 0 1 1.4714-1.0612 1.628 1.628 0 0 1 1.5398 0.95926" style="fill:none;stroke-linecap:round;stroke-linejoin:round;stroke-width:.5;stroke:#f60"/><circle cx="54.262" cy="-4.9263" r=".54265" style="fill:none;stroke-linecap:round;stroke-linejoin:round;stroke-width:.5;stroke:#f60"/><circle cx="56.617" cy="-4.9805" r=".54265" style="fill:none;stroke-linecap:round;stroke-linejoin:round;stroke-width:.5;stroke:#f60"/><g transform="translate(2.1167)"><circle cx="105.68" cy="-4.5525" r="3.9342" style="fill:none;stroke-linecap:round;stroke-linejoin:round;stroke-width:.5;stroke:#f60"/><path transform="scale(-1)" d="m-107.22 2.8597a1.628 1.628 0 0 1 1.4714-1.0612 1.628 1.628 0 0 1 1.5398 0.95926" style="fill:none;stroke-linecap:round;stroke-linejoin:round;stroke-width:.5;stroke:#f60"/><circle cx="104.51" cy="-4.8248" r=".54265" style="fill:none;stroke-linecap:round;stroke-linejoin:round;stroke-width:.5;stroke:#f60"/><circle cx="106.86" cy="-4.879" r=".54265" style="fill:none;stroke-linecap:round;stroke-linejoin:round;stroke-width:.5;stroke:#f60"/></g><g transform="matrix(1.3454 -1.3454 1.3454 1.3454 -59.217 210.4)" style="stroke-width:.52557"><path d="m160.83 3.6219h4.6892" style="fill:none;stroke-linecap:round;stroke-linejoin:round;stroke-width:.52557;stroke:#800080"/><path d="m163.17 1.2773v4.6892" style="fill:none;stroke-linecap:round;stroke-linejoin:round;stroke-width:.52557;stroke:#800080"/></g><path d="m31.728 37.631c0 5.5327-4.4851 10.018-10.018 10.018-1.3832 0-3.8994-0.78725-3.8994-0.78725l-6.9506 2.9663 1.6194-8.2975s-0.78725-2.5162-0.78725-3.8994c0-5.5327 4.4851-10.018 10.018-10.018s10.018 4.4851 10.018 10.018z" style="fill:none;stroke-linecap:round;stroke-linejoin:round;stroke-width:.5;stroke:#f60"/><circle cx="8.3956" cy="54.461" r="3.9342" style="fill:none;stroke-linecap:round;stroke-linejoin:round;stroke-width:.5;stroke:#f60"/><circle cx="7.2225" cy="54.189" r=".54265" style="fill:none;stroke-linecap:round;stroke-linejoin:round;stroke-width:.5;stroke:#f60"/><circle cx="9.5776" cy="54.135" r=".54265" style="fill:none;stroke-linecap:round;stroke-linejoin:round;stroke-width:.5;stroke:#f60"/><path d="m7.3845 56.644h1.9722" style="fill:none;stroke-linecap:round;stroke-linejoin:round;stroke-width:.5;stroke:#f60"/></g></svg>
