<?xml version="1.0" encoding="UTF-8"?>
<svg width="18cm" height="4.5cm" version="1.1" xmlns="http://www.w3.org/2000/svg" xmlns:xlink="http://www.w3.org/1999/xlink">
 <defs>
  <linearGradient id="linearGradient4725">
   <stop style="stop-color:#fff" offset="0"/>
   <stop style="stop-color:#4fa68a" offset="1"/>
  </linearGradient>
  <linearGradient id="linearGradient25779" x1="-40.013" x2="136.01" y1="851.93" y2="851.93" gradientTransform="scale(1.0667)" gradientUnits="userSpaceOnUse" xlink:href="#linearGradient4725"/>
  <linearGradient id="linearGradient25781" x1="27.08" x2="126.41" y1="858.73" y2="858.73" gradientTransform="scale(1.0667)" gradientUnits="userSpaceOnUse" xlink:href="#linearGradient4725"/>
  <linearGradient id="linearGradient25783" x1="122.01" x2="135.97" y1="863.74" y2="863.74" gradientTransform="scale(1.0667)" gradientUnits="userSpaceOnUse" xlink:href="#linearGradient4725"/>
  <linearGradient id="linearGradient25785" x1="93.211" x2="107.17" y1="910.93" y2="910.93" gradientTransform="scale(1.0667)" gradientUnits="userSpaceOnUse" xlink:href="#linearGradient4725"/>
  <linearGradient id="linearGradient25787" x1="-44.084" x2="97.542" y1="893.49" y2="893.49" gradientTransform="scale(1.0667)" gradientUnits="userSpaceOnUse" xlink:href="#linearGradient4725"/>
  <linearGradient id="linearGradient8542" x1="606.91" x2="620.26" y1="808.51" y2="808.51" gradientTransform="matrix(1.0667 0 0 1.0667 .80817 181.85)" gradientUnits="userSpaceOnUse" xlink:href="#linearGradient4725"/>
  <linearGradient id="linearGradient8545" x1="441.04" x2="581.49" y1="838.39" y2="838.39" gradientTransform="matrix(1.0667 0 0 1.0667 .80817 181.85)" gradientUnits="userSpaceOnUse" xlink:href="#linearGradient4725"/>
  <linearGradient id="linearGradient8548" x1="578.03" x2="591.37" y1="855.97" y2="855.97" gradientTransform="matrix(1.0667 0 0 1.0667 .80817 181.85)" gradientUnits="userSpaceOnUse" xlink:href="#linearGradient4725"/>
  <linearGradient id="linearGradient8551" x1="511.33" x2="610.3" y1="803.54" y2="803.54" gradientTransform="matrix(1.0667 0 0 1.0667 .80817 181.85)" gradientUnits="userSpaceOnUse" xlink:href="#linearGradient4725"/>
  <linearGradient id="linearGradient8554" x1="453.72" x2="612.38" y1="794.43" y2="794.43" gradientTransform="matrix(1.0667 0 0 1.0667 .80817 181.85)" gradientUnits="userSpaceOnUse" xlink:href="#linearGradient4725"/>
 </defs>
 <g transform="translate(0 -952.44)">
  <path d="m485.11 1034.1 36.072-59.008 132.5 49.434-4.8679 8.5687-59.562-22.355c-49.614-14.237-62.616 23.063-32.29 39.173l65.904 25.072-5.0522 8.4239z" style="color:#000000;fill:url(#linearGradient8554);stroke-linecap:round;stroke-linejoin:round;stroke-width:.67654;stroke:#67977f"/>
  <path d="m648.53 1060.7 2.9272-15.934-66-24.568c-20.098-8.8856-45.655 3.6532-37.241 19.884 9.3569-9.251 25.491-7.0589 33.78-3.8449z" style="color:#000000;fill:url(#linearGradient8551);stroke-linecap:round;stroke-linejoin:round;stroke-width:.67654;stroke:#67977f"/>
  <path d="m628.12 1094.6-10.409 16.701 2.9906-16.118 10.564-16.623z" style="color:#000000;fill:url(#linearGradient8548);stroke-linecap:round;stroke-linejoin:round;stroke-width:.67654;stroke:#67977f"/>
  <path d="m471.59 1057 146 54.488 3.1325-16.334-145.82-54.346z" style="color:#000000;fill:url(#linearGradient8545);stroke-linecap:round;stroke-linejoin:round;stroke-width:.67654;stroke:#67977f"/>
  <path d="m658.93 1043.9-10.409 16.701 2.9906-16.118 10.564-16.623z" style="color:#000000;fill:url(#linearGradient8542);stroke-linecap:round;stroke-linejoin:round;stroke-width:.67654;stroke:#67977f"/>
  <path d="m516.06 973.74 5.2181 1.4281-36.099 58.939-10.292 6.758z" style="color:#000000;fill:#739ba5;stroke-linecap:round;stroke-linejoin:round;stroke-width:.67654;stroke:#16434a"/>
  <path d="m653.66 1024.5 8.3893 3.3401-10.603 16.856-2.6022-11.691z" style="color:#000000;fill:#739ba5;stroke-linecap:round;stroke-linejoin:round;stroke-width:.67654;stroke:#16434a"/>
  <path d="m622.92 1075.1 8.3893 3.3403-10.603 16.856-2.8769-11.965z" style="color:#000000;fill:#739ba5;stroke-linecap:round;stroke-linejoin:round;stroke-width:.67654;stroke:#16434a"/>
  <path d="m474.96 1040.8 10.234-6.6998 132.64 49.314 2.8013 11.727z" style="color:#000000;fill:#739ba5;stroke-linecap:round;stroke-linejoin:round;stroke-width:.67654;stroke:#16434a"/>
  <path d="m648.81 1033 2.6411 11.807-66.018-24.728c-18.593-9.7611-57.55 6.4936-28.397 29.88-31.394-17.961-14.545-53.361 32.16-39.3z" style="color:#000000;fill:#739ba5;stroke-linecap:round;stroke-linejoin:round;stroke-width:.67654;stroke:#16434a"/>
  <g transform="translate(13.39 176.06)">
   <path d="m277.44 797.87 5.2181 1.4281-36.099 58.939-10.292 6.758z" style="color:#000000;fill:#faa;stroke-dasharray:1.35307083, 1.35307083;stroke-dashoffset:1.2051;stroke-linecap:round;stroke-linejoin:round;stroke-width:.67654;stroke:#f00"/>
   <path d="m415.04 848.65 8.3893 3.3402-10.603 16.856-2.6022-11.691z" style="color:#000000;fill:#faa;stroke-dasharray:1.35307083, 1.35307083;stroke-dashoffset:.82453;stroke-linecap:round;stroke-linejoin:round;stroke-width:.67654;stroke:#f00"/>
   <path d="m384.3 899.27 8.3893 3.3402-10.603 16.856-2.8769-11.965z" style="color:#000000;fill:#faa;stroke-dasharray:1.35307083, 1.35307083;stroke-dashoffset:3.4884;stroke-linecap:round;stroke-linejoin:round;stroke-width:.67654;stroke:#f00"/>
   <path d="m236.34 864.92 10.234-6.6998 132.64 49.314 2.8013 11.727z" style="color:#000000;fill:#faa;stroke-dasharray:1.35307083, 1.35307083;stroke-linecap:round;stroke-linejoin:round;stroke-width:.67654;stroke:#f00"/>
   <path d="m410.19 857.15 2.6411 11.807-66.018-24.728c-18.593-9.7611-57.55 6.4936-28.397 29.88-31.394-17.961-14.545-53.361 32.16-39.3z" style="color:#000000;fill:#faa;stroke-dasharray:1.35307083, 1.35307083;stroke-linecap:round;stroke-linejoin:round;stroke-width:.67654;stroke:#f00"/>
   <path d="m318.4 874.16 65.727 25.052" style="color:#000000;fill:none;stroke-dasharray:1.35307083, 1.35307083;stroke-linecap:round;stroke-linejoin:round;stroke-width:.67654;stroke:#f00"/>
   <path d="m282.8 799.34 132 49.333" style="color:#000000;fill:none;stroke-dasharray:1.35307083, 1.35307083;stroke-linecap:round;stroke-linejoin:round;stroke-width:.67654;stroke:#f00"/>
   <path d="m237.27 859.68 41.235-67.247 145.84 54.268-10.251 16.918-66.043-24.552c-31.488-11.6-54.377 14.494-27.127 30.495l72.605 27.598-10.215 16.883z" style="color:#000000;fill:none;stroke-linecap:round;stroke-linejoin:round;stroke-width:.67654;stroke:#808080"/>
   <path d="m409.97 884.87 4.1356-21.234-66.329-24.678c-20.098-8.8856-48.621 4.2025-35.703 22.96 10.785-6.5046 21.206-4.6421 31.583-1.7577z" style="color:#000000;fill:none;stroke-linecap:round;stroke-linejoin:round;stroke-width:.67654;stroke:#808080"/>
   <path d="m420.5 868.16-10.409 16.701 4.0393-21.284 10.176-16.779z" style="color:#000000;fill:none;stroke-linecap:round;stroke-linejoin:round;stroke-width:.67654;stroke:#808080"/>
   <path d="m389.78 918.5-10.409 16.701 4.0393-21.284 10.176-16.779z" style="color:#000000;fill:none;stroke-linecap:round;stroke-linejoin:round;stroke-width:.67654;stroke:#808080"/>
   <path d="m232.93 880.92 146.33 54.488 4.0646-21.422-146.11-54.268z" style="color:#000000;fill:none;stroke-linecap:round;stroke-linejoin:round;stroke-width:.67654;stroke:#808080"/>
  </g>
  <g transform="translate(67.344 120.57)">
   <path d="m-42.343 915.17 41.235-67.247 145.84 54.268-10.251 16.918-66.043-24.552c-31.488-11.6-54.377 14.494-27.127 30.495l72.605 27.598-10.215 16.883z" style="color:#000000;fill:url(#linearGradient25779);stroke-linecap:round;stroke-linejoin:round;stroke-width:.67654;stroke:#67977f"/>
   <path d="m130.36 940.36 4.1356-21.234-66.329-24.678c-20.098-8.8856-48.621 4.2025-35.703 22.96 10.785-6.5046 21.206-4.6421 31.583-1.7577z" style="color:#000000;fill:url(#linearGradient25781);stroke-linecap:round;stroke-linejoin:round;stroke-width:.67654;stroke:#67977f"/>
   <path d="m140.89 923.65-10.409 16.701 4.0393-21.284 10.176-16.779z" style="color:#000000;fill:url(#linearGradient25783);stroke-linecap:round;stroke-linejoin:round;stroke-width:.67654;stroke:#67977f"/>
   <path d="m110.17 973.99-10.409 16.701 4.0393-21.284 10.176-16.779z" style="color:#000000;fill:url(#linearGradient25785);stroke-linecap:round;stroke-linejoin:round;stroke-width:.67654;stroke:#67977f"/>
   <path d="m-46.685 936.41 146.33 54.488 4.0646-21.422-146.11-54.268z" style="color:#000000;fill:url(#linearGradient25787);stroke-linecap:round;stroke-linejoin:round;stroke-width:.67654;stroke:#67977f"/>
   <path d="m-42.343 915.17 41.235-67.247 145.84 54.268-10.251 16.918-66.043-24.552c-31.488-11.6-54.377 14.494-27.127 30.495l72.605 27.598-10.215 16.883z" style="color:#000000;fill:none;stroke-linecap:round;stroke-linejoin:round;stroke-width:1.4324;stroke:#f00"/>
  </g>
  <path d="m69.329 1075.8 6.2253-5.1469 6.9023 14.13 6.2932-3.0742-6.9023-14.13 7.4287-1.523-19.542-14.716z" style="fill:#fff;stroke-linecap:round;stroke-linejoin:round;stroke-width:.75591;stroke:#000"/>
  <ellipse cx="107.39" cy="1081.4" rx="13.199" ry="13.469" style="fill:#1f638a;stroke-linecap:round;stroke-linejoin:round;stroke-width:1.0658"/>
  <text x="101.55043" y="1089.0746" style="fill:#000000;font-family:'Arial Nova', 'Arial Unicode MS', 'Yu Gothic UI', sans-serif;font-size:12.8px;letter-spacing:0px;line-height:0%;stroke-width:1.0667;word-spacing:0px" xml:space="preserve"><tspan x="101.55043" y="1089.0746" style="fill:#ffffff;font-family:'Arial Nova', 'Arial Unicode MS', 'Yu Gothic UI', sans-serif;font-size:21.333px;font-weight:bold;stroke-width:1.0667">1</tspan></text>
  <g transform="rotate(-90 655.36 644.45)">
   <path d="m234.83 220.11 6.2408 9.9675 6.2408-9.9675z" style="fill:#1f638a;stroke-linecap:round;stroke-linejoin:round;stroke-width:.37795;stroke:#1f638a"/>
   <rect transform="matrix(0,1,1,0,0,0)" x="209.81" y="238.21" width="11.439" height="5.7059" style="fill:#1f638a;stroke-linecap:round;stroke-linejoin:round;stroke-width:.37795;stroke:#1f638a"/>
  </g>
  <g transform="rotate(-90 766.6 533.21)">
   <path d="m234.83 220.11 6.2408 9.9675 6.2408-9.9675z" style="fill:#1f638a;stroke-linecap:round;stroke-linejoin:round;stroke-width:.37795;stroke:#1f638a"/>
   <rect transform="matrix(0,1,1,0,0,0)" x="209.81" y="238.21" width="11.439" height="5.7059" style="fill:#1f638a;stroke-linecap:round;stroke-linejoin:round;stroke-width:.37795;stroke:#1f638a"/>
  </g>
 </g>
</svg>
