<?xml version="1.0" encoding="UTF-8"?>
<svg width="18cm" height="3.5cm" version="1.1" xmlns="http://www.w3.org/2000/svg" xmlns:xlink="http://www.w3.org/1999/xlink">
 <defs>
  <linearGradient id="linearGradient10628-5-2">
   <stop style="stop-color:#fff" offset="0"/>
   <stop style="stop-color:#4fa68a" offset="1"/>
  </linearGradient>
  <linearGradient id="linearGradient8291" x1="819.82" x2="1326.6" y1="7.1119" y2="7.1119" gradientTransform="scale(1.0667)" gradientUnits="userSpaceOnUse" xlink:href="#linearGradient10628-5-2"/>
  <linearGradient id="linearGradient8293" x1="767.68" x2="910.89" y1="70.683" y2="70.683" gradientTransform="scale(1.0667)" gradientUnits="userSpaceOnUse" xlink:href="#linearGradient10628-5-2"/>
  <linearGradient id="linearGradient8295" x1="858.39" x2="1326.6" y1="157.11" y2="157.11" gradientTransform="scale(1.0667)" gradientUnits="userSpaceOnUse" xlink:href="#linearGradient10628-5-2"/>
 </defs>
 <g transform="translate(0 -207.87)">
  <g transform="matrix(.3405 -.006316 .006316 .3405 -27.955 227.14)">
   <g transform="translate(-681.14 67.048)">
    <path d="m874.67-84.985 96 176.76 444.19 8.381-96.762-176.76z" style="color:#000000;fill-rule:evenodd;fill:url(#linearGradient8291);stroke-linecap:round;stroke-linejoin:round;stroke-width:1.9865;stroke:#67977f"/>
    <path d="m915.81 235.01 55.619-142.48-96-176.76-56.381 144.76z" style="color:#000000;fill-rule:evenodd;fill:url(#linearGradient8293);stroke-linecap:round;stroke-linejoin:round;stroke-width:1.9865;stroke:#67977f"/>
    <path d="m1360.8 243.4 54.095-143.24-442.67-8.381-56.381 142.48z" style="color:#000000;fill-rule:evenodd;fill:url(#linearGradient8295);stroke-linecap:round;stroke-linejoin:round;stroke-width:1.9865;stroke:#67977f"/>
   </g>
   <g transform="translate(-686.36 66.805)">
    <path d="m1108.2 119.81 216.58 3.7712 23.166 39.867-255.37-4.8487z" style="color:#000000;fill-rule:evenodd;fill:#739ba5;stroke-linecap:round;stroke-linejoin:round;stroke-width:4.2061;stroke:#16434a"/>
    <path d="m1095.3 54.082 252.67 4.8487-21.55 65.727-218.73-5.3875 8.62-24.782z" style="color:#000000;fill-rule:evenodd;fill:#739ba5;stroke-linecap:round;stroke-linejoin:round;stroke-width:4.2061;stroke:#16434a"/>
    <path d="m1372.2 99.876-24.244-41.484-21.55 67.344 21.55 38.251z" style="color:#000000;fill-rule:evenodd;fill:#739ba5;stroke-linecap:round;stroke-linejoin:round;stroke-width:4.2061;stroke:#16434a"/>
   </g>
  </g>
  <path d="m193.9 313.73 6.2254-5.1469 6.9023 14.13 6.2932-3.0742-6.9023-14.13 7.4286-1.523-19.542-14.716z" style="fill:#fff;stroke-linecap:round;stroke-linejoin:round;stroke-width:.75591;stroke:#000"/>
  <g transform="matrix(.3405 -.006316 .006316 .3405 178.4 255.87)">
   <path d="m874.67-84.985 96 176.76 444.19 8.381-96.762-176.76z" style="color:#000000;fill-rule:evenodd;fill:url(#linearGradient8291);stroke-linecap:round;stroke-linejoin:round;stroke-width:1.9865;stroke:#67977f"/>
   <path d="m915.81 235.01 55.619-142.48-96-176.76-56.381 144.76z" style="color:#000000;fill-rule:evenodd;fill:url(#linearGradient8293);stroke-linecap:round;stroke-linejoin:round;stroke-width:1.9865;stroke:#67977f"/>
   <path d="m1360.8 243.4 54.095-143.24-442.67-8.381-56.381 142.48z" style="color:#000000;fill-rule:evenodd;fill:url(#linearGradient8295);stroke-linecap:round;stroke-linejoin:round;stroke-width:1.9865;stroke:#67977f"/>
  </g>
  <g transform="matrix(.3405 -.006316 .006316 .3405 99.825 255.82)">
   <path d="m1157.8 120.45 167.03 3.1318 23.166 39.867-170.48-3.2742z" style="color:#000000;fill-rule:evenodd;fill:#739ba5;stroke-linecap:round;stroke-linejoin:round;stroke-width:4.2061;stroke:#16434a"/>
   <path d="m1178.9 55.634 169.02 3.297-21.55 65.727-168.63-4.4581z" style="color:#000000;fill-rule:evenodd;fill:#739ba5;stroke-linecap:round;stroke-linejoin:round;stroke-width:4.2061;stroke:#16434a"/>
   <path d="m1372.2 99.876-24.244-41.484-21.55 67.344 21.55 38.251z" style="color:#000000;fill-rule:evenodd;fill:#739ba5;stroke-linecap:round;stroke-linejoin:round;stroke-width:4.2061;stroke:#16434a"/>
  </g>
  <g transform="matrix(.3405 -.006316 .006316 .3405 -39.777 254.58)">
   <path d="m874.67-84.985 96 176.76 444.19 8.381-96.762-176.76z" style="color:#000000;fill-rule:evenodd;fill:url(#linearGradient8291);stroke-linecap:round;stroke-linejoin:round;stroke-width:1.9865;stroke:#67977f"/>
   <path d="m915.81 235.01 55.619-142.48-96-176.76-56.381 144.76z" style="color:#000000;fill-rule:evenodd;fill:url(#linearGradient8293);stroke-linecap:round;stroke-linejoin:round;stroke-width:1.9865;stroke:#67977f"/>
   <path d="m1360.8 243.4 54.095-143.24-442.67-8.381-56.381 142.48z" style="color:#000000;fill-rule:evenodd;fill:url(#linearGradient8295);stroke-linecap:round;stroke-linejoin:round;stroke-width:1.9865;stroke:#67977f"/>
  </g>
  <g transform="translate(-34.563 16.429)">
   <g transform="matrix(.3405 -.006316 .006316 .3405 -36.708 237.91)" style="fill:#ff8080;stroke-dasharray:5.58711164, 5.58711164;stroke-linecap:round;stroke-linejoin:round;stroke-width:1.8624;stroke:#f00">
    <path d="m1108.2 119.81 216.58 3.7712 23.166 39.867-255.37-4.8487z" style="color:#000000;fill-rule:evenodd;fill:#ff8080;stroke-dasharray:5.95958575, 5.95958575;stroke-linecap:round;stroke-linejoin:round;stroke-width:1.9865;stroke:#f00"/>
    <path d="m1095.3 54.082 252.67 4.8487-21.55 65.727-218.73-5.3875 8.62-24.782z" style="color:#000000;fill-rule:evenodd;fill:#ff8080;stroke-dasharray:5.95958575, 5.95958575;stroke-linecap:round;stroke-linejoin:round;stroke-width:1.9865;stroke:#f00"/>
    <path d="m1372.2 99.876-24.244-41.484-21.55 67.344 21.55 38.251z" style="color:#000000;fill-rule:evenodd;fill:#ff8080;stroke-dasharray:5.95958575, 5.95958575;stroke-linecap:round;stroke-linejoin:round;stroke-width:1.9865;stroke:#f00"/>
   </g>
  </g>
  <g transform="translate(-33.672 -32.406)">
   <path d="m441.59 279.68c13.786 5.2287 21.38 15.713 22.032 32.028" style="fill:none;stroke-linecap:round;stroke-linejoin:round;stroke-width:.94488;stroke:#619696"/>
   <path d="m430.4 312.06 9.392 0.0453" style="fill:none;stroke-linecap:round;stroke-linejoin:round;stroke-width:.94488;stroke:#666"/>
   <path d="m463.91 312.23c-3.2936 10.245-10.19 14.726-18.851 16.515" style="fill:none;stroke-linecap:round;stroke-linejoin:round;stroke-width:.94488;stroke:#619696"/>
   <g transform="matrix(.28371 -.069045 .069045 .28371 365.4 261.31)">
    <path d="m208.8 226.37c-1.3264 0-2.4 1.6054-2.4 3.6 0 1.9223 1.007 3.4552 2.2667 3.5667 22.564 5.6558 45.418 11.182 68.1 16.733l-0.0333-7.1c-23.779-5.3956-47.552-12.213-67.933-16.8z" style="color:#000000;fill:#3dda3d;stroke-linecap:round;stroke-linejoin:round;stroke-width:2.5888;stroke:#178d17"/>
    <ellipse cx="276.72" cy="246.72" rx="2.4016" ry="3.5297" style="color:#000000;fill:#3dda3d;stroke-linecap:round;stroke-linejoin:round;stroke-width:2.5888;stroke:#178d17"/>
   </g>
   <path d="m461.06 312.2 2.9246 0.0141" style="fill:none;stroke-linecap:round;stroke-linejoin:round;stroke-width:.94488;stroke:#666"/>
   <path d="m433.5 317.38c4.4443 5.1364 4.2917 4.9459 8.7818 10.077l2.1207-0.28514c-4.7784-5.2781-4.8173-6.0023-8.9193-10.517-0.73756-0.38342-1.8582-0.11795-1.9832 0.72522z" style="color:#000000;fill:#f04e4e;stroke-linecap:round;stroke-linejoin:round;stroke-width:.75591;stroke:#aa1010"/>
   <path d="m434.15 316.54-3.8714-4.4986" style="fill:none;stroke-linecap:round;stroke-linejoin:round;stroke-width:.94488;stroke:#666"/>
   <ellipse transform="matrix(.97948 -.20154 -.20154 -.97948 0 0)" cx="368.09" cy="-410.03" rx=".70125" ry="1.0306" style="color:#000000;fill:#f04e4e;stroke-linecap:round;stroke-linejoin:round;stroke-width:.75591;stroke:#aa1010"/>
   <path d="m444.79 328.91-1.3446-1.5624" style="fill:none;stroke-linecap:round;stroke-linejoin:round;stroke-width:.94488;stroke:#666"/>
   <g transform="rotate(18.923 430.3 312.67)">
    <path d="m430.3 312.2v-9.901" style="fill:none;stroke-linecap:round;stroke-linejoin:round;stroke-width:.94488;stroke:#666"/>
    <g transform="matrix(.29199 0 0 .29199 375.83 247.3)">
     <rect x="183.16" y="116.37" width="6.7943" height="71.675" rx="8.3952" ry="5.4892" style="color:#000000;fill:#51519c;stroke-linecap:round;stroke-linejoin:round;stroke-width:3.236;stroke:#2b2b97"/>
     <ellipse transform="rotate(269.1)" cx="-121.28" cy="184.71" rx="2.4016" ry="3.5297" style="color:#000000;fill:#51519c;stroke-linecap:round;stroke-linejoin:round;stroke-width:2.5888;stroke:#2b2b97"/>
    </g>
    <path d="m430.3 281.82v-4.0884" style="fill:none;stroke-linecap:round;stroke-linejoin:round;stroke-width:.94488;stroke:#666"/>
   </g>
   <circle cx="430.26" cy="311.99" r="2.759" style="color:#000000;fill:#fd7326;stroke-linecap:round;stroke-linejoin:round;stroke-width:.94488;stroke:#c95b20"/>
   <path d="m444.85 328.33c-0.34648-24.697-1.5612-39.362-3.2151-48.59" style="fill:none;stroke-linecap:round;stroke-linejoin:round;stroke-width:.94488;stroke:#619696"/>
  </g>
  <path d="m415.65 304.45 6.2254-5.1469 6.9023 14.13 6.2932-3.0742-6.9023-14.13 7.4286-1.523-19.542-14.716z" style="fill:#fff;stroke-linecap:round;stroke-linejoin:round;stroke-width:.75591;stroke:#000"/>
  <ellipse cx="449.69" cy="298.93" rx="13.199" ry="13.469" style="fill:#1f638a;stroke-linecap:round;stroke-linejoin:round;stroke-width:1.0658"/>
  <text x="442.59601" y="306.59973" style="fill:#000000;font-family:'Arial Nova', 'Arial Unicode MS', 'Yu Gothic UI', sans-serif;font-size:12.8px;letter-spacing:0px;line-height:0%;stroke-width:1.0667;word-spacing:0px" xml:space="preserve"><tspan x="442.59601" y="306.59973" style="fill:#ffffff;font-family:'Arial Nova', 'Arial Unicode MS', 'Yu Gothic UI', sans-serif;font-size:21.333px;font-weight:bold;stroke-width:1.0667">E</tspan></text>
  <g transform="matrix(.2917 0 0 .28875 168.61 199.33)" style="fill:#1f638a;stroke-linecap:round;stroke-linejoin:round;stroke-width:1.2209;stroke:#1f638a">
   <path d="m207.49 126.25 34.17 21.614-34.17 21.614z" style="fill:#1f638a;stroke-linecap:round;stroke-linejoin:round;stroke-width:1.3023;stroke:#1f638a"/>
   <rect x="172.19" y="137.99" width="39.213" height="19.761" style="fill:#1f638a;stroke-linecap:round;stroke-linejoin:round;stroke-width:1.3023;stroke:#1f638a"/>
  </g>
  <g transform="matrix(.2917 0 0 .28875 387.34 199.33)" style="fill:#1f638a;stroke-linecap:round;stroke-linejoin:round;stroke-width:1.2209;stroke:#1f638a">
   <path d="m207.49 126.25 34.17 21.614-34.17 21.614z" style="fill:#1f638a;stroke-linecap:round;stroke-linejoin:round;stroke-width:1.3023;stroke:#1f638a"/>
   <rect x="172.19" y="137.99" width="39.213" height="19.761" style="fill:#1f638a;stroke-linecap:round;stroke-linejoin:round;stroke-width:1.3023;stroke:#1f638a"/>
  </g>
 </g>
</svg>
