<?xml version="1.0" encoding="UTF-8"?>
<svg width="18cm" height="3.5cm" version="1.1" xmlns="http://www.w3.org/2000/svg" xmlns:osb="http://www.openswatchbook.org/uri/2009/osb" xmlns:xlink="http://www.w3.org/1999/xlink">
 <defs>
  <linearGradient id="linearGradient17162" x1="167.31" x2="17.825" y1="196.18" y2="197.65" gradientTransform="matrix(1.0667 0 0 1.0667 113.97 1.1065)" gradientUnits="userSpaceOnUse">
   <stop style="stop-color:#fff" offset="0"/>
   <stop style="stop-color:#808080" offset="1"/>
  </linearGradient>
  <linearGradient id="linearGradient17189" x1="66.601" x2="74.189" y1="89.457" y2="96.511" gradientTransform="matrix(.90257 0 0 .90257 354.94 267.74)" gradientUnits="userSpaceOnUse">
   <stop style="stop-color:#fff" offset="0"/>
   <stop style="stop-color:#00385e" offset="1"/>
  </linearGradient>
  <linearGradient id="linearGradient17191" x1="66.545" x2="74.134" y1="89.401" y2="96.603" gradientTransform="matrix(.90257 0 0 .90257 355.49 334.52)" gradientUnits="userSpaceOnUse">
   <stop style="stop-color:#fff" offset="0"/>
   <stop style="stop-color:#00385e" offset="1"/>
  </linearGradient>
  <linearGradient id="linearGradient17193" x1="66.379" x2="73.746" y1="89.475" y2="97.083" gradientTransform="matrix(.90257 0 0 .90257 460.43 301.12)" gradientUnits="userSpaceOnUse">
   <stop style="stop-color:#fff" offset="0"/>
   <stop style="stop-color:#00385e" offset="1"/>
  </linearGradient>
  <linearGradient id="linearGradient17195" x1="66.749" x2="73.82" y1="89.992" y2="96.935" gradientTransform="matrix(.90257 0 0 .90257 564.69 268.32)" gradientUnits="userSpaceOnUse">
   <stop style="stop-color:#fff" offset="0"/>
   <stop style="stop-color:#00385e" offset="1"/>
  </linearGradient>
  <linearGradient id="linearGradient17197" x1="66.749" x2="74.115" y1="89.845" y2="96.492" gradientTransform="matrix(.90257 0 0 .90257 564.96 335.26)" gradientUnits="userSpaceOnUse">
   <stop style="stop-color:#fff" offset="0"/>
   <stop style="stop-color:#00385e" offset="1"/>
  </linearGradient>
  <linearGradient id="linearGradient17199" x1="66.729" x2="74.272" y1="89.77" y2="97" gradientTransform="matrix(1.2078 0 0 1.2078 423.96 284.98)" gradientUnits="userSpaceOnUse">
   <stop style="stop-color:#fff" offset="0"/>
   <stop style="stop-color:#00385e" offset="1"/>
  </linearGradient>
  <linearGradient id="linearGradient17201" x1="66.619" x2="73.996" y1="89.659" y2="97.056" gradientTransform="matrix(1.2078 0 0 1.2078 453.28 284.99)" gradientUnits="userSpaceOnUse">
   <stop style="stop-color:#fff" offset="0"/>
   <stop style="stop-color:#00385e" offset="1"/>
  </linearGradient>
 </defs>
 <g transform="translate(0 -321.26)">
  <g transform="translate(-6.3736 -2.7316)">
   <ellipse cx="24.162" cy="388.56" rx="13.199" ry="13.469" style="fill:#1f638a;stroke-linecap:round;stroke-linejoin:round;stroke-width:1.0658"/>
   <text x="16.736977" y="396.19391" style="fill:#000000;font-family:'Arial Nova', 'Arial Unicode MS', 'Yu Gothic UI', sans-serif;font-size:12.8px;letter-spacing:0px;line-height:0%;stroke-width:1.0667;word-spacing:0px" xml:space="preserve"><tspan x="16.736977" y="396.19391" style="fill:#ffffff;font-family:'Arial Nova', 'Arial Unicode MS', 'Yu Gothic UI', sans-serif;font-size:21.333px;font-weight:bold;stroke-width:1.0667">B</tspan></text>
  </g>
  <g transform="rotate(-90 297.05 314.26)">
   <path d="m176.97 58.74v300.47h95.067v-60.267l-13.4-0.0333 0.2-60.733 13.2-0.16667v-59.167h-13.8l0.4-59.933 13.4-0.13333v-60.033h-95.067zm81.133 41.067c2.0874 0 3.7667 1.7126 3.7667 3.8 0 2.0874-1.6793 3.7667-3.7667 3.7667s-3.8-1.6793-3.8-3.7667c0-2.0874 1.7126-3.8 3.8-3.8zm-66.9 0.53333c2.0874 0 3.7667 1.6793 3.7667 3.7667 0 2.0874-1.6793 3.7667-3.7667 3.7667-2.0874 0-3.8-1.6793-3.8-3.7667 0-2.0874 1.7126-3.7667 3.8-3.7667zm20.633 88.9c2.8131 0 5.1 2.3154 5.1 5.1667 0 2.8513-2.2869 5.1667-5.1 5.1667-2.8131 0-5.1-2.3154-5.1-5.1667 0-2.8513 2.2869-5.1667 5.1-5.1667zm12.8 15.967c2.0874 0 3.7667 1.7126 3.7667 3.8s-1.6793 3.7667-3.7667 3.7667-3.8-1.6793-3.8-3.7667 1.7126-3.8 3.8-3.8zm-12.8 13.433c2.8131 0 5.1 2.3154 5.1 5.1667 0 2.8513-2.2869 5.1667-5.1 5.1667-2.8131 0-5.1-2.3154-5.1-5.1667 0-2.8513 2.2869-5.1667 5.1-5.1667zm-21.233 91.133c2.0874 0 3.7667 1.7126 3.7667 3.8 0 2.0874-1.6793 3.7667-3.7667 3.7667-2.0874 0-3.8-1.6793-3.8-3.7667 0-2.0874 1.7126-3.8 3.8-3.8zm66.933 0c2.0874 0 3.8 1.7126 3.8 3.8 0 2.0874-1.7126 3.7667-3.8 3.7667s-3.7667-1.6793-3.7667-3.7667c0-2.0874 1.6793-3.8 3.7667-3.8z" style="fill:url(#linearGradient17162);stroke-linejoin:round;stroke-width:1.8898;stroke:#7d7d7d"/>
   <g transform="translate(113.97 1.1065)" style="stroke:#7d7d7d">
    <path d="m110.86 211.45v146.64" style="fill:none;stroke-width:.75591;stroke:#7d7d7d"/>
    <path d="m110.86 57.235v146.5" style="fill:none;stroke-width:.75591;stroke:#7d7d7d"/>
    <path d="m114.69 207.61h43.271" style="fill:none;stroke-width:1.0667px;stroke:#7d7d7d"/>
    <path d="m62.796 207.61h43.963" style="fill:none;stroke-width:1.0667px;stroke:#7d7d7d"/>
   </g>
  </g>
  <circle transform="rotate(-90)" cx="-420.06" cy="86.837" r="2.8346" style="fill:none;stroke-linecap:round;stroke-linejoin:round;stroke-width:3.7795;stroke:#f00"/>
  <circle transform="rotate(-90)" cx="-353.24" cy="86.397" r="2.8346" style="fill:none;stroke-linecap:round;stroke-linejoin:round;stroke-width:3.7795;stroke:#f00"/>
  <circle transform="rotate(-90)" cx="-386.69" cy="191.74" r="2.8346" style="fill:none;stroke-linecap:round;stroke-linejoin:round;stroke-width:3.7795;stroke:#f00"/>
  <circle transform="rotate(-90)" cx="-420.73" cy="296.33" r="2.8346" style="fill:none;stroke-linecap:round;stroke-linejoin:round;stroke-width:3.7795;stroke:#f00"/>
  <circle transform="rotate(-90)" cx="-353.75" cy="296.36" r="2.8346" style="fill:none;stroke-linecap:round;stroke-linejoin:round;stroke-width:3.7795;stroke:#f00"/>
  <ellipse transform="rotate(-90)" cx="-399.43" cy="177.21" rx="4.1082" ry="4.1082" style="fill:none;stroke-linecap:round;stroke-linejoin:round;stroke-width:3.7795;stroke:#f00"/>
  <ellipse transform="rotate(-90)" cx="-399.39" cy="206.57" rx="4.1082" ry="4.1082" style="fill:none;stroke-linecap:round;stroke-linejoin:round;stroke-width:3.7795;stroke:#f00"/>
  <path d="m210.47 424.34 6.2253-5.1469 6.9023 14.13 6.2932-3.0742-6.9023-14.13 7.4287-1.523-19.542-14.716z" style="fill:#fff;stroke-linecap:round;stroke-linejoin:round;stroke-width:.75591;stroke:#000"/>
  <g transform="rotate(-90 463.62 147.56)">
   <path d="m176.97 58.74v300.47h95.067v-60.267l-13.4-0.0333 0.2-60.733 13.2-0.16667v-59.167h-13.8l0.4-59.933 13.4-0.13333v-60.033h-95.067zm81.133 41.067c2.0874 0 3.7667 1.7126 3.7667 3.8 0 2.0874-1.6793 3.7667-3.7667 3.7667s-3.8-1.6793-3.8-3.7667c0-2.0874 1.7126-3.8 3.8-3.8zm-66.9 0.53333c2.0874 0 3.7667 1.6793 3.7667 3.7667 0 2.0874-1.6793 3.7667-3.7667 3.7667-2.0874 0-3.8-1.6793-3.8-3.7667 0-2.0874 1.7126-3.7667 3.8-3.7667zm20.633 88.9c2.8131 0 5.1 2.3154 5.1 5.1667 0 2.8513-2.2869 5.1667-5.1 5.1667-2.8131 0-5.1-2.3154-5.1-5.1667 0-2.8513 2.2869-5.1667 5.1-5.1667zm12.8 15.967c2.0874 0 3.7667 1.7126 3.7667 3.8s-1.6793 3.7667-3.7667 3.7667-3.8-1.6793-3.8-3.7667 1.7126-3.8 3.8-3.8zm-12.8 13.433c2.8131 0 5.1 2.3154 5.1 5.1667 0 2.8513-2.2869 5.1667-5.1 5.1667-2.8131 0-5.1-2.3154-5.1-5.1667 0-2.8513 2.2869-5.1667 5.1-5.1667zm-21.233 91.133c2.0874 0 3.7667 1.7126 3.7667 3.8 0 2.0874-1.6793 3.7667-3.7667 3.7667-2.0874 0-3.8-1.6793-3.8-3.7667 0-2.0874 1.7126-3.8 3.8-3.8zm66.933 0c2.0874 0 3.8 1.7126 3.8 3.8 0 2.0874-1.7126 3.7667-3.8 3.7667s-3.7667-1.6793-3.7667-3.7667c0-2.0874 1.6793-3.8 3.7667-3.8z" style="fill:url(#linearGradient17162);stroke-linejoin:round;stroke-width:1.8898;stroke:#7d7d7d"/>
   <g transform="translate(113.97 1.1065)" style="stroke:#7d7d7d">
    <path d="m110.86 211.45v146.64" style="fill:none;stroke-width:.75591;stroke:#7d7d7d"/>
    <path d="m110.86 57.235v146.5" style="fill:none;stroke-width:.75591;stroke:#7d7d7d"/>
    <path d="m114.69 207.61h43.271" style="fill:none;stroke-width:1.0667px;stroke:#7d7d7d"/>
    <path d="m62.796 207.61h43.963" style="fill:none;stroke-width:1.0667px;stroke:#7d7d7d"/>
   </g>
  </g>
  <circle cx="419.64" cy="353.1" r="3.7795" style="color:#000000;fill:url(#linearGradient17189);stroke-linecap:round;stroke-linejoin:round;stroke-width:1.8898;stroke:#7d7d7d"/>
  <circle cx="420.2" cy="419.88" r="3.7795" style="color:#000000;fill:url(#linearGradient17191);stroke-linecap:round;stroke-linejoin:round;stroke-width:1.8898;stroke:#7d7d7d"/>
  <circle cx="525.13" cy="386.48" r="3.7795" style="color:#000000;fill:url(#linearGradient17193);stroke-linecap:round;stroke-linejoin:round;stroke-width:1.8898;stroke:#7d7d7d"/>
  <circle cx="629.4" cy="353.68" r="3.7795" style="color:#000000;fill:url(#linearGradient17195);stroke-linecap:round;stroke-linejoin:round;stroke-width:1.8898;stroke:#7d7d7d"/>
  <circle cx="629.66" cy="420.61" r="3.7795" style="color:#000000;fill:url(#linearGradient17197);stroke-linecap:round;stroke-linejoin:round;stroke-width:1.8898;stroke:#7d7d7d"/>
  <circle cx="510.54" cy="399.2" r="5.0577" style="color:#000000;fill:url(#linearGradient17199);stroke-linecap:round;stroke-linejoin:round;stroke-width:1.8898;stroke:#7d7d7d"/>
  <circle cx="539.86" cy="399.21" r="5.0577" style="color:#000000;fill:url(#linearGradient17201);stroke-linecap:round;stroke-linejoin:round;stroke-width:1.8898;stroke:#7d7d7d"/>
  <g transform="translate(342.82 251.64)">
   <g transform="rotate(-90 226.11 252.77)">
    <path d="m306.91 104.07h7.5133" style="fill:none;stroke-linecap:round;stroke-linejoin:round;stroke-width:.75591;stroke:#7d7d7d"/>
    <path d="m310.67 100.32v7.5133" style="fill:none;stroke-linecap:round;stroke-linejoin:round;stroke-width:.75591;stroke:#7d7d7d"/>
   </g>
   <g transform="rotate(-90 192.41 219.54)">
    <path d="m306.91 104.07h7.5133" style="fill:none;stroke-linecap:round;stroke-linejoin:round;stroke-width:.75591;stroke:#7d7d7d"/>
    <path d="m310.67 100.32v7.5133" style="fill:none;stroke-linecap:round;stroke-linejoin:round;stroke-width:.75591;stroke:#7d7d7d"/>
   </g>
   <g transform="rotate(-90 261.67 183.61)">
    <path d="m306.91 104.07h7.5133" style="fill:none;stroke-linecap:round;stroke-linejoin:round;stroke-width:.75591;stroke:#7d7d7d"/>
    <path d="m310.67 100.32v7.5133" style="fill:none;stroke-linecap:round;stroke-linejoin:round;stroke-width:.75591;stroke:#7d7d7d"/>
   </g>
   <g transform="rotate(-90 331.09 148.36)">
    <path d="m306.91 104.07h7.5133" style="fill:none;stroke-linecap:round;stroke-linejoin:round;stroke-width:.75591;stroke:#7d7d7d"/>
    <path d="m310.67 100.32v7.5133" style="fill:none;stroke-linecap:round;stroke-linejoin:round;stroke-width:.75591;stroke:#7d7d7d"/>
   </g>
   <g transform="rotate(-90 297.53 114.81)">
    <path d="m306.91 104.07h7.5133" style="fill:none;stroke-linecap:round;stroke-linejoin:round;stroke-width:.75591;stroke:#7d7d7d"/>
    <path d="m310.67 100.32v7.5133" style="fill:none;stroke-linecap:round;stroke-linejoin:round;stroke-width:.75591;stroke:#7d7d7d"/>
   </g>
   <g transform="matrix(0 -1.0873 1.0873 0 54.614 485.21)">
    <path d="m306.91 104.07h7.5133" style="fill:none;stroke-linecap:round;stroke-linejoin:round;stroke-width:.69522;stroke:#7d7d7d"/>
    <path d="m310.67 100.32v7.5133" style="fill:none;stroke-linecap:round;stroke-linejoin:round;stroke-width:.69522;stroke:#7d7d7d"/>
   </g>
   <g transform="matrix(0 -1.1626 1.1626 0 76.159 508.56)">
    <path d="m306.91 104.07h7.5133" style="fill:none;stroke-linecap:round;stroke-linejoin:round;stroke-width:.65018;stroke:#7d7d7d"/>
    <path d="m310.67 100.32v7.5133" style="fill:none;stroke-linecap:round;stroke-linejoin:round;stroke-width:.65018;stroke:#7d7d7d"/>
   </g>
  </g>
  <g transform="matrix(.2917 0 0 .28875 299.33 343.43)" style="fill:#1f638a;stroke-linecap:round;stroke-linejoin:round;stroke-width:1.2209;stroke:#1f638a">
   <path d="m207.49 126.25 34.17 21.614-34.17 21.614z" style="fill:#1f638a;stroke-linecap:round;stroke-linejoin:round;stroke-width:1.3023;stroke:#1f638a"/>
   <rect x="172.19" y="137.99" width="39.213" height="19.761" style="fill:#1f638a;stroke-linecap:round;stroke-linejoin:round;stroke-width:1.3023;stroke:#1f638a"/>
  </g>
  <g transform="translate(-742.56 136.76)">
   <ellipse cx="988.73" cy="286.32" rx="13.199" ry="13.469" style="fill:#1f638a;stroke-linecap:round;stroke-linejoin:round;stroke-width:1.0658"/>
   <text x="982.88611" y="293.98578" style="fill:#000000;font-family:'Arial Nova', 'Arial Unicode MS', 'Yu Gothic UI', sans-serif;font-size:12.8px;letter-spacing:0px;line-height:0%;stroke-width:1.0667;word-spacing:0px" xml:space="preserve"><tspan x="982.88611" y="293.98578" style="fill:#ffffff;font-family:'Arial Nova', 'Arial Unicode MS', 'Yu Gothic UI', sans-serif;font-size:21.333px;font-weight:bold;stroke-width:1.0667">2</tspan></text>
  </g>
 </g>
</svg>
