<?xml version="1.0" encoding="UTF-8"?>
<svg width="18cm" height="7cm" version="1.1" xmlns="http://www.w3.org/2000/svg"><path d="m297.33 67.652c43.4 44.526 17.103 117.03-118.53 149.6" style="fill:none;stroke-linecap:round;stroke-linejoin:round;stroke-width:3.7795;stroke:#f00"/><path d="m270.54 37.242 27.18 30.832" style="fill:none;stroke-linecap:round;stroke-linejoin:round;stroke-width:3.7795;stroke:#000"/><path d="m122.15 103.42 19.531 21.665" style="fill:#b3b3b3;stroke-linecap:round;stroke-linejoin:round;stroke-width:.94488;stroke:#b3b3b3"/><path d="m141.88 95.012-0.31001 30.284" style="fill:#b3b3b3;stroke-linecap:round;stroke-linejoin:round;stroke-width:.94488;stroke:#b3b3b3"/><path d="m179.86 116.08-38.184 9.1037" style="fill:#b3b3b3;stroke-linecap:round;stroke-linejoin:round;stroke-width:.94488;stroke:#b3b3b3"/><path d="m142.13 76.162 5.1369 20.981-10.145 0.0311c1.764-10.646 5.0077-21.012 5.0077-21.012z" style="fill:#b3b3b3;stroke-linecap:round;stroke-linejoin:round;stroke-width:1.8898;stroke:#b3b3b3"/><path d="m108.28 87.152 9.8873 19.205 7.6769-6.6317c-8.3155-6.8776-17.564-12.573-17.564-12.573z" style="fill:#b3b3b3;stroke-linecap:round;stroke-linejoin:round;stroke-width:1.8898;stroke:#b3b3b3"/><path d="m248.64 200.46-70.208 16.776" style="fill:none;stroke-linecap:round;stroke-linejoin:round;stroke-width:1.8898;stroke:#fff"/><path d="m148.9 183.25 29.878 34.403" style="fill:none;stroke-linecap:round;stroke-linejoin:round;stroke-width:1.8898;stroke:#f00"/><path d="m178.13 151.18 5.0983 20.99-10.145 0.0126c1.7836-10.643 5.0464-21.003 5.0464-21.003z" style="fill:#0f0;stroke-linecap:round;stroke-linejoin:round;stroke-width:1.8898;stroke:#0f0"/><path d="m178.2 173.29 0.39527 43.946" style="fill:#0f0;stroke-linecap:round;stroke-linejoin:round;stroke-width:1.8898;stroke:#0f0"/><path d="m270.3 195.95-20.614 10.742-2.2235-11.447c11.404-0.51581 22.837 0.70498 22.837 0.70498z" style="fill:#f00;stroke-linecap:round;stroke-linejoin:round;stroke-width:1.8898;stroke:#fff"/><path d="m248.55 201.28-70.006 16.322" style="fill:#00f;stroke-linecap:round;stroke-linejoin:round;stroke-width:1.8898;stroke:#00f"/><path d="m269.93 196.51-19.49 9.3133-2.1023-9.9245c10.782-0.44721 21.592 0.61122 21.592 0.61122z" style="fill:#00f;stroke-linecap:round;stroke-linejoin:round;stroke-width:1.8898;stroke:#00f"/><path d="m133.82 167.27 18.166 11.687-7.3388 7.004c-6.0465-8.9381-10.827-18.691-10.827-18.691z" style="fill:#f00;stroke-linecap:round;stroke-linejoin:round;stroke-width:1.8898;stroke:#f00"/><path d="m187.73 114.24-19.387 9.5259-2.2107-9.9009 21.597 0.37502z" style="fill:#b3b3b3;stroke-linecap:round;stroke-linejoin:round;stroke-width:1.8898;stroke:#b3b3b3"/><text x="263.40555" y="214.00362" style="fill:#0000ff;font-family:'Arial Nova', 'Arial Unicode MS', 'Yu Gothic UI', sans-serif;font-size:12.8px;letter-spacing:0px;line-height:0%;stroke-width:1.0667;stroke:#0000ff;word-spacing:0px" xml:space="preserve"><tspan x="263.40555" y="214.00362" style="fill:#0000ff;font-family:'Arial Nova', 'Arial Unicode MS', 'Yu Gothic UI', sans-serif;stroke-width:1.0667;stroke:#0000ff">Z</tspan></text><ellipse transform="rotate(-2)" cx="171.24" cy="223.47" rx="4.0406" ry="3.7795" style="fill:#f00;stroke-linecap:round;stroke-linejoin:round;stroke-width:3.7837;stroke:#f00"/><path d="m30.128 250.78 48.913-10.639" style="fill:none;stroke-linecap:round;stroke-linejoin:round;stroke-width:3.7795;stroke:#000"/><path d="m78.976 240.2 99.91-23.136" style="fill:none;stroke-linecap:round;stroke-linejoin:round;stroke-width:3.7795;stroke:#f00"/><path d="m615.1 71.702c43.4 44.526 17.103 117.03-118.53 149.6" style="fill:none;stroke-linecap:round;stroke-linejoin:round;stroke-width:3.7795;stroke:#f00"/><path d="m588.31 41.292 27.18 30.832" style="fill:none;stroke-linecap:round;stroke-linejoin:round;stroke-width:3.7795;stroke:#000"/><path d="m439.92 107.47 19.531 21.665" style="fill:#b3b3b3;stroke-linecap:round;stroke-linejoin:round;stroke-width:.94488;stroke:#b3b3b3"/><path d="m459.65 99.062-0.31001 30.284" style="fill:#b3b3b3;stroke-linecap:round;stroke-linejoin:round;stroke-width:.94488;stroke:#b3b3b3"/><path d="m497.63 120.13-38.184 9.1037" style="fill:#b3b3b3;stroke-linecap:round;stroke-linejoin:round;stroke-width:.94488;stroke:#b3b3b3"/><path d="m547.58 144.71 69.828 10.064" style="fill:none;stroke-linecap:round;stroke-linejoin:round;stroke-width:1.89;stroke:#f00"/><path d="m620.18 155.18-0.86938-42.339" style="fill:none;stroke-linecap:round;stroke-linejoin:round;stroke-width:1.89;stroke:#0f0"/><path d="m459.9 80.212 5.1369 20.981-10.145 0.0311c1.764-10.646 5.0077-21.012 5.0077-21.012z" style="fill:#b3b3b3;stroke-linecap:round;stroke-linejoin:round;stroke-width:1.8898;stroke:#b3b3b3"/><path d="m426.05 91.202 9.8873 19.205 7.6769-6.6317c-8.3155-6.8776-17.564-12.573-17.564-12.573z" style="fill:#b3b3b3;stroke-linecap:round;stroke-linejoin:round;stroke-width:1.8898;stroke:#b3b3b3"/><path d="m526.03 141.41 21.525-1.8039-1.5503 10.026c-10.241-3.4018-19.975-8.2216-19.975-8.2216z" style="fill:#f00;stroke-linecap:round;stroke-linejoin:round;stroke-width:1.8898;stroke:#f00"/><path d="m619.23 94.283-5.134 20.982 10.145 0.0298c-1.7655-10.646-5.0107-21.011-5.0107-21.011z" style="fill:#0f0;stroke-linecap:round;stroke-linejoin:round;stroke-width:1.8898;stroke:#0f0"/><path d="m505.5 118.29-19.387 9.5259-2.2107-9.9009 21.597 0.37502z" style="fill:#b3b3b3;stroke-linecap:round;stroke-linejoin:round;stroke-width:1.8898;stroke:#b3b3b3"/><g transform="translate(337.81 -32.758)" style="fill:#00f;stroke-width:1.89;stroke:#00f"><path d="m330.21 134.93-10.654 18.79-7.4032-6.936c8.5862-6.5365 18.057-11.854 18.057-11.854z" style="fill:#00f;stroke-linecap:round;stroke-linejoin:round;stroke-width:1.89;stroke:#00f"/><path d="m282.29 188.46 32.476-37.28" style="fill:#00f;stroke-linecap:round;stroke-linejoin:round;stroke-width:1.89;stroke:#00f"/></g><path d="m407.09 225.03c140.41-24.195 239.32-84.73 184.77-141.5" style="fill:none;stroke-dasharray:2.83464565, 2.83464565;stroke-linecap:round;stroke-linejoin:round;stroke-width:.94488;stroke:#f00"/><text x="602.51251" y="88.62915" style="fill:#ff0000;font-family:'Arial Nova', 'Arial Unicode MS', 'Yu Gothic UI', sans-serif;font-size:12.8px;letter-spacing:0px;line-height:0%;stroke-width:1.0667;stroke:#ff0000;word-spacing:0px" xml:space="preserve"><tspan x="602.51251" y="88.62915" style="fill:#ff0000;font-family:'Arial Nova', 'Arial Unicode MS', 'Yu Gothic UI', sans-serif;stroke-width:1.0667">1</tspan></text><text x="400.8768" y="255.4012" style="fill:#fc0000;font-family:'Arial Nova', 'Arial Unicode MS', 'Yu Gothic UI', sans-serif;font-size:12.8px;letter-spacing:0px;line-height:0%;stroke-width:1.0667;stroke:#ff0000;word-spacing:0px" xml:space="preserve"><tspan x="400.8768" y="255.4012" style="fill:#fc0000;font-family:'Arial Nova', 'Arial Unicode MS', 'Yu Gothic UI', sans-serif;stroke-width:1.0667">0 mm</tspan></text><path d="m592.19 83.309 10.815 7.6586-7.065 5.1823z" style="fill:#fff;stroke-dasharray:3.19748032, 3.19748032;stroke-linecap:round;stroke-linejoin:round;stroke-width:1.0658;stroke:#f00"/><text x="387.40063" y="220.88747" style="fill:#fc0000;font-family:'Arial Nova', 'Arial Unicode MS', 'Yu Gothic UI', sans-serif;font-size:12.8px;letter-spacing:0px;line-height:0%;stroke-width:1.0667;stroke:#ff0000;word-spacing:0px" xml:space="preserve"><tspan x="387.40063" y="220.88747" style="fill:#fc0000;font-family:'Arial Nova', 'Arial Unicode MS', 'Yu Gothic UI', sans-serif;stroke-width:1.0667">0</tspan></text><g transform="translate(-336.93 -235.74)"><ellipse cx="982.02" cy="399.69" rx="13.199" ry="13.469" style="fill:#1f638a;stroke-linecap:round;stroke-linejoin:round;stroke-width:1.0658"/><text x="976.14124" y="407.22528" style="fill:#000000;font-family:'Arial Nova', 'Arial Unicode MS', 'Yu Gothic UI', sans-serif;font-size:12.8px;letter-spacing:0px;line-height:0%;stroke-width:1.0667;word-spacing:0px" xml:space="preserve"><tspan x="976.14124" y="407.22528" style="fill:#ffffff;font-family:'Arial Nova', 'Arial Unicode MS', 'Yu Gothic UI', sans-serif;font-size:21.333px;font-weight:bold;stroke-width:1.0667">3</tspan></text></g><ellipse transform="matrix(.9993 -.037301 .032652 .99947 0 0)" cx="584.84" cy="173.21" rx="1.2735" ry="1.2731" style="fill:#f00;stroke-linecap:round;stroke-linejoin:round;stroke-width:1.2329;stroke:#f00"/><text x="667.21704" y="119.26254" style="fill:#0000f0;font-family:'Arial Nova', 'Arial Unicode MS', 'Yu Gothic UI', sans-serif;font-size:12.8px;letter-spacing:0px;line-height:0%;stroke-width:1.0667;stroke:#0000ff;word-spacing:0px" xml:space="preserve"><tspan x="667.21704" y="119.26254" style="fill:#0000f0;font-family:'Arial Nova', 'Arial Unicode MS', 'Yu Gothic UI', sans-serif;stroke-width:1.0667;stroke:#0000ff">Z</tspan></text><path d="m393.49 228.15 10.872-7.5757 2.4787 8.404z" style="fill:#fff;stroke-dasharray:3.1974803, 3.1974803;stroke-linecap:round;stroke-linejoin:round;stroke-width:1.0658;stroke:#f00"/><path d="m347.9 254.83 48.913-10.639" style="fill:none;stroke-linecap:round;stroke-linejoin:round;stroke-width:3.7795;stroke:#000"/><path d="m396.75 244.25 99.91-23.136" style="fill:none;stroke-linecap:round;stroke-linejoin:round;stroke-width:3.7795;stroke:#f00"/><text x="628.32037" y="75.18943" style="fill:#ff0000;font-family:'Arial Nova', 'Arial Unicode MS', 'Yu Gothic UI', sans-serif;font-size:12.8px;letter-spacing:0px;line-height:0%;stroke-width:1.0667;stroke:#ff0000;word-spacing:0px" xml:space="preserve"><tspan x="628.32037" y="75.18943" style="fill:#ff0000;font-family:'Arial Nova', 'Arial Unicode MS', 'Yu Gothic UI', sans-serif;stroke-width:1.0667">80 mm</tspan></text><path d="m615.87 32.365 1.0128 43.768" style="fill:none;stroke-dasharray:2.0296063, 2.0296063;stroke-linecap:round;stroke-linejoin:round;stroke-width:.67654;stroke:#f00"/><path d="m615.61 12.175 5.0552 21.001-10.145-9e-3c1.8054-10.639 5.0895-20.993 5.0895-20.993z" style="fill:#fff;stroke-dasharray:2.02960628, 2.02960628;stroke-linecap:round;stroke-linejoin:round;stroke-width:.67654;stroke:#f00"/><g transform="rotate(-20.033 36.722 -883.64)" style="stroke-dasharray:2.02960628, 2.02960628;stroke-width:.67654"><path d="m180.82 202.14 69.439 12.469" style="fill:none;stroke-dasharray:2.02960628, 2.02960628;stroke-linecap:round;stroke-linejoin:round;stroke-width:.67654;stroke:#f00"/><path d="m161.4 199.12 21.458-2.4762-1.2361 10.069c-10.342-3.0799-20.222-7.5929-20.222-7.5929z" style="fill:#fff;stroke-dasharray:2.02960628, 2.02960628;stroke-linecap:round;stroke-linejoin:round;stroke-width:.67654;stroke:#f00"/></g><path d="m582.2 35.741 33.291 36.383" style="fill:none;stroke-linecap:round;stroke-linejoin:round;stroke-width:1.8898;stroke:#fff"/><g transform="rotate(-82.963 383.2 -57.777)" style="stroke-dasharray:2.02960628, 2.02960628;stroke-width:.67654"><path d="m330.21 134.93-10.654 18.79-7.4032-6.936c8.5862-6.5365 18.057-11.854 18.057-11.854z" style="fill:#fff;stroke-dasharray:2.02960628, 2.02960628;stroke-linecap:round;stroke-linejoin:round;stroke-width:.67654;stroke:#f00"/><path d="m282.29 188.46 32.476-37.28" style="fill:none;stroke-dasharray:2.02960628, 2.02960628;stroke-linecap:round;stroke-linejoin:round;stroke-width:.67654;stroke:#f00"/></g><path d="m468.34 227.16-70.789 16.518" style="fill:none;stroke-linecap:round;stroke-linejoin:round;stroke-width:1.8898;stroke:#fff"/><path d="m367.67 209.28 29.878 34.403" style="fill:none;stroke-dasharray:2.0296063, 2.0296063;stroke-linecap:round;stroke-linejoin:round;stroke-width:.67654;stroke:#f00"/><path d="m396.9 177.21 5.0983 20.99-10.145 0.0126c1.7836-10.643 5.0464-21.003 5.0464-21.003z" style="fill:none;stroke-dasharray:2.0296063, 2.0296063;stroke-linecap:round;stroke-linejoin:round;stroke-width:.67654;stroke:#f00"/><path d="m396.97 199.32 0.39527 43.946" style="fill:none;stroke-dasharray:2.0296063, 2.0296063;stroke-linecap:round;stroke-linejoin:round;stroke-width:.67654;stroke:#f00"/><path d="m489.07 221.98-20.614 10.742-2.2235-11.447c11.404-0.51581 22.837 0.70498 22.837 0.70498z" style="fill:none;stroke-linecap:round;stroke-linejoin:round;stroke-width:1.8898;stroke:#fff"/><path d="m467.32 227.31-70.006 16.322" style="fill:none;stroke-dasharray:2.0296063, 2.0296063;stroke-linecap:round;stroke-linejoin:round;stroke-width:.67654;stroke:#f00"/><path d="m488.7 222.54-19.49 9.3133-2.1023-9.9245c10.782-0.44721 21.592 0.61122 21.592 0.61122z" style="fill:#fff;stroke-dasharray:2.0296063, 2.0296063;stroke-linecap:round;stroke-linejoin:round;stroke-width:.67654;stroke:#f00"/><path d="m352.59 193.3 18.166 11.687-7.3388 7.004c-6.0465-8.9381-10.827-18.691-10.827-18.691z" style="fill:none;stroke-dasharray:2.0296063, 2.0296063;stroke-linecap:round;stroke-linejoin:round;stroke-width:.67654;stroke:#f00"/><path d="m335.78 9.8803v249.54" style="fill:none;stroke-width:1px;stroke:#ccc"/></svg>
