<?xml version="1.0" encoding="UTF-8"?>
<svg width="18cm" height="5.5cm" version="1.1" xmlns="http://www.w3.org/2000/svg" xmlns:osb="http://www.openswatchbook.org/uri/2009/osb">
 <g transform="translate(0 -245.67)">
  <g transform="translate(-716.18 -530.44)">
   <ellipse cx="763.77" cy="879.21" rx="13.199" ry="13.469" style="fill:#1f638a;stroke-linecap:round;stroke-linejoin:round;stroke-width:1.0658"/>
   <text x="756.11017" y="886.8476" style="fill:#000000;font-family:'Arial Nova', 'Arial Unicode MS', 'Yu Gothic UI', sans-serif;font-size:12.8px;letter-spacing:0px;line-height:0%;stroke-width:1.0667;word-spacing:0px" xml:space="preserve"><tspan x="756.11017" y="886.8476" style="fill:#ffffff;font-family:'Arial Nova', 'Arial Unicode MS', 'Yu Gothic UI', sans-serif;font-size:21.333px;font-weight:bold;stroke-width:1.0667">B</tspan></text>
  </g>
  <g transform="translate(288.12 86.37)">
   <ellipse cx="34.637" cy="336.21" rx="13.199" ry="13.469" style="fill:#1f638a;stroke-linecap:round;stroke-linejoin:round;stroke-width:1.0658"/>
   <text x="29.062334" y="343.87265" style="fill:#000000;font-family:'Arial Nova', 'Arial Unicode MS', 'Yu Gothic UI', sans-serif;font-size:12.8px;letter-spacing:0px;line-height:0%;stroke-width:1.0667;word-spacing:0px" xml:space="preserve"><tspan x="29.062334" y="343.87265" style="fill:#ffffff;font-family:'Arial Nova', 'Arial Unicode MS', 'Yu Gothic UI', sans-serif;font-size:21.333px;font-weight:bold;stroke-width:1.0667">2</tspan></text>
  </g>
  <path d="m459.2 412.47h42.244" style="fill:none;stroke-dasharray:2.83464566, 2.83464566;stroke-linecap:round;stroke-linejoin:round;stroke-width:.94488;stroke:#008000"/>
  <g transform="translate(134.63 184.03)">
   <path d="m203.16 211.7c0.65649-14.718 8.8908-20.193 21.234-20.655h12.113c4.1173 1e-5 10.681-1.5188 11.1-11.582-0.2956-1.48-0.64547-2.9366-1.3995-4.4399-0.63818-1.2723-1.9692-3.345-4.2951-4.3916-20.912-10.611-40.082-27.092-49.563-49.273-0.78793-1.6685-1.9792-3.2217-3.6677-4.6329-1.5261-1.1029-3.2382-1.9825-5.4051-2.3165-8.1103-0.52709-11.968 4.302-11.968 8.1076v13.127c-0.66722 16.899-9.1358 22.681-20.703 23.551" style="fill:none;stroke-linecap:round;stroke-linejoin:round;stroke-width:3.7795;stroke:#f00"/>
   <path d="m97.412 211.69c-0.65649-14.718-8.8908-20.193-21.234-20.655h-12.113c-4.1173 1e-5 -10.681-1.5188-11.1-11.582 0.2956-1.48 0.64547-2.9366 1.3995-4.4399 0.63819-1.2723 1.9692-3.345 4.2951-4.3916 20.912-10.611 40.082-27.092 49.563-49.273 0.78794-1.6685 1.9792-3.2217 3.6677-4.6329 1.5261-1.1029 3.2382-1.9825 5.4051-2.3165 8.1103-0.52709 11.968 4.302 11.968 8.1076v13.127c0.66722 16.899 9.1358 22.681 20.703 23.551" style="fill:none;stroke-linecap:round;stroke-linejoin:round;stroke-width:3.7795;stroke:#f00"/>
  </g>
  <ellipse transform="rotate(-2)" cx="272.05" cy="406.83" rx="4.0406" ry="3.7795" style="fill:#f00;stroke-linecap:round;stroke-linejoin:round;stroke-width:3.7837;stroke:#f00"/>
  <g transform="translate(56.911 10.126)">
   <path d="m292.5 286.43c-8.1219-0.27026-14.219 0.8028-18.433 2.5667s-6.9 4.2833-6.9 7.4333v12.967c-0.60573 7.8551-4.5307 12.816-11.233 16.267-6.7026 3.4506-16.247 5.1041-27.4 5.5333a1.89 1.89 0 1 0 0.16667 3.7667c11.44-0.44028 21.425-2.0842 28.967-5.9667 7.5415-3.8825 12.569-10.256 13.267-19.3a1.89 1.89 0 0 0 0-0.16667v-13.1c0-0.65555 1.0869-2.4964 4.6-3.9667 3.4956-1.463 9.0743-2.5091 16.733-2.2667 0.0362 3e-3 0.0639-3e-3 0.0999 0 3.9541 0.32218 7.0615 1.1359 9.8667 2.1667 0.0314 0.0115 0.0687 0.0218 0.1 0.0333 3.0281 1.3079 5.0861 2.7014 6.3667 4.0667 0.0186 0.0198 0.0484 0.0468 0.0667 0.0667 19.043 22.753 56.709 39.184 97.7 49.833a1.89 1.89 0 0 0 0.0667 0c4.1644 0.95944 6.4214 2.7998 7.4667 3.8667 1.1123 1.1354 1.6098 2.2029 2.1 3.4-0.49852 3.9361-3.0527 6.0976-6.8333 7.5333-3.9303 1.4925-8.9649 1.9-12.867 1.9h-23.667a1.89 1.89 0 0 0-0.0333 0c-12.189 0.23385-22.432 1.6824-30.033 5.1333s-12.601 9.214-13.3 17.233a1.8907 1.8907 0 1 0 3.7667 0.33333c0.58357-6.6986 4.279-11.052 11.067-14.133 6.781-3.0785 16.63-4.5691 28.533-4.8h0.0333 23.633c4.1398 1e-5 9.5054-0.35058 14.2-2.1333 4.6946-1.7828 8.8942-5.3813 9.3667-11.2a1.89 1.89 0 0 0-0.13333-0.83334c-0.60826-1.5592-1.438-3.3362-3.1333-5.0667-1.4401-1.4699-4.3924-3.7268-9.2667-4.8667-3e-3 -8.1e-4 3e-3 -0.0325 0-0.0333-0.0208-5e-3 -0.0459 5e-3 -0.0667 0-40.631-10.563-77.767-27.105-95.767-48.667a1.89 1.89 0 0 0-0.0667-0.0667c-1.7862-1.9366-4.3365-3.5846-7.8-5.0667a1.89 1.89 0 0 0-0.0999-0.0333c-3.1054-1.1491-6.6529-2.085-11.067-2.4333a1.89 1.89 0 0 0-0.0667 0z" style="color:#000000;fill:#fff;stroke-linecap:round;stroke-linejoin:round;stroke-width:.75591;stroke:#000;text-decoration-line:none;text-indent:0;text-transform:none"/>
   <path d="m163.5 286.4a1.89 1.89 0 0 0-0.1 0.0333c-4.4137 0.3483-7.9613 1.2509-11.067 2.4a1.89 1.89 0 0 0-0.0667 0.0333c-3.4635 1.482-6.0138 3.1634-7.8 5.1a1.89 1.89 0 0 0-0.0667 0.0667c-18.004 21.567-55.157 38.104-95.8 48.667v-0.0333c-4.9209 1.1337-7.8523 3.4556-9.3 4.9333-1.6953 1.7305-2.5251 3.5075-3.1333 5.0667a1.89 1.89 0 0 0-0.13333 0.83334c0.47248 5.8187 4.6388 9.4172 9.3333 11.2 4.6945 1.7828 10.094 2.1333 14.233 2.1333h23.633 0.03333c11.904 0.23092 21.719 1.7215 28.5 4.8 6.7876 3.0815 10.483 7.4347 11.067 14.133a1.8907 1.8907 0 1 0 3.7667-0.33333c-0.69863-8.0194-5.6654-13.782-13.267-17.233s-17.844-4.9328-30.033-5.1667a1.89 1.89 0 0 0-0.03333 0h-23.667c-3.9018 0-8.9363-0.37413-12.867-1.8667-3.8021-1.4438-6.3559-3.6206-6.8333-7.6 0.48505-1.1763 1.0027-2.2132 2.1-3.3333 1.0452-1.0669 3.3022-2.9072 7.4667-3.8667a1.89 1.89 0 0 0 0.03333 0c40.991-10.649 78.69-27.08 97.733-49.833 0.0195-0.0234 0.0471-0.0433 0.0667-0.0667 1.2848-1.3698 3.3218-2.755 6.3667-4.0667 0.0261-0.0113 0.0404-0.0221 0.0667-0.0333 2.8212-1.0388 5.9154-1.8454 9.9-2.1667 0.0257-8.5e-4 0.0411 8.2e-4 0.0667 0 7.6789-0.2472 13.265 0.80125 16.767 2.2667 3.5131 1.4703 4.5667 3.2778 4.5667 3.9333v13.133a1.89 1.89 0 0 0 0.0333 0.13334c0.69744 9.0443 5.6918 15.451 13.233 19.333s17.56 5.5264 29 5.9667a1.89 1.89 0 1 0 0.1332-3.7667c-11.153-0.42926-20.697-2.1161-27.4-5.5667-6.7026-3.4506-10.594-8.3782-11.2-16.233v-13c0-3.1501-2.6854-5.6361-6.9-7.4s-10.311-2.8703-18.433-2.6z" style="color:#000000;fill:#fff;stroke-linecap:round;stroke-linejoin:round;stroke-width:.75591;stroke:#000;text-decoration-line:none;text-indent:0;text-transform:none"/>
  </g>
  <path d="m286.96 397.69h191.7" style="fill:none;stroke-linecap:round;stroke-linejoin:round;stroke-width:.94488;stroke:#f00"/>
  <path d="m93.578 396.37v-100.4h385v100.83" style="fill:none;stroke-dasharray:1.06582677, 2.13165355;stroke-width:1.0658;stroke:#008000"/>
  <g transform="translate(-538.33 126.2)">
   <ellipse cx="775.16" cy="269.59" rx="13.199" ry="13.469" style="fill:#1f638a;stroke-linecap:round;stroke-linejoin:round;stroke-width:1.0658"/>
   <text x="769.24432" y="277.12357" style="fill:#000000;font-family:'Arial Nova', 'Arial Unicode MS', 'Yu Gothic UI', sans-serif;font-size:12.8px;letter-spacing:0px;line-height:0%;stroke-width:1.0667;word-spacing:0px" xml:space="preserve"><tspan x="769.24432" y="277.12357" style="fill:#ffffff;font-family:'Arial Nova', 'Arial Unicode MS', 'Yu Gothic UI', sans-serif;font-size:21.333px;font-weight:bold;stroke-width:1.0667">1</tspan></text>
  </g>
  <path d="m202.25 399.24 6.2253-5.147 6.9023 14.13 6.2932-3.0742-6.9023-14.13 7.4287-1.523-19.542-14.716z" style="fill:#fff;stroke-linecap:round;stroke-linejoin:round;stroke-width:.75591;stroke:#000"/>
  <path d="m286.1 394.37-0.0485-42.762" style="fill:none;stroke-linecap:round;stroke-linejoin:round;stroke-width:.94488;stroke:#f00"/>
  <path d="m285.78 342.61-4.0784 12.608 8.7616-0.078z" style="fill:#fff;stroke-linecap:round;stroke-linejoin:round;stroke-width:1.0658;stroke:#f00"/>
  <rect x="280.92" y="290.52" width="10.319" height="10.319" style="fill:#008000;stroke-linecap:round;stroke-linejoin:round;stroke-width:.75591;stroke:#008000"/>
  <rect x="474.18" y="392.37" width="10.319" height="10.319" style="fill:#008000;stroke-linecap:round;stroke-linejoin:round;stroke-width:.75591;stroke:#008000"/>
  <path d="m477.4 397.61-12.571-4.1905v8.7619z" style="fill:#fff;stroke-linecap:round;stroke-linejoin:round;stroke-width:1.0658;stroke:#f00"/>
  <path d="m514.78 412.28-12.571-4.1905v8.7619z" style="fill:#fff;stroke-dasharray:3.19748039, 3.19748039;stroke-linecap:round;stroke-linejoin:round;stroke-width:1.0658;stroke:#008000"/>
  <path d="m445.91 412.28 12.571-4.1905v8.7619z" style="fill:#fff;stroke-dasharray:3.19748039, 3.19748039;stroke-linecap:round;stroke-linejoin:round;stroke-width:1.0658;stroke:#008000"/>
  <path d="m286.08 275.32v42.244" style="fill:none;stroke-dasharray:2.83464566, 2.83464566;stroke-linecap:round;stroke-linejoin:round;stroke-width:.94488;stroke:#008000"/>
  <path d="m286.27 330.91 4.1905-12.571h-8.7619z" style="fill:#fff;stroke-dasharray:3.19748039, 3.19748039;stroke-linecap:round;stroke-linejoin:round;stroke-width:1.0658;stroke:#008000"/>
  <path d="m286.27 262.03 4.1905 12.571h-8.7619z" style="fill:#fff;stroke-dasharray:3.19748039, 3.19748039;stroke-linecap:round;stroke-linejoin:round;stroke-width:1.0658;stroke:#008000"/>
  <path d="m287.39 423.96 6.2253-5.1469 6.9023 14.13 6.2932-3.0742-6.9023-14.13 7.4287-1.523-19.542-14.716z" style="fill:#fff;stroke-linecap:round;stroke-linejoin:round;stroke-width:.75591;stroke:#000"/>
 </g>
</svg>
