<?xml version="1.0" encoding="UTF-8"?>
<svg width="18cm" height="10cm" version="1.1" xmlns="http://www.w3.org/2000/svg" xmlns:osb="http://www.openswatchbook.org/uri/2009/osb">
 <g transform="translate(0 -75.591)">
  <path d="m299.08 266.38c2.5386 61.41 8.9243 120.9 25.422 175.33" style="fill:none;stroke-linecap:round;stroke-linejoin:round;stroke-width:3.7795;stroke:#f00"/>
  <path d="m403.9 186.29c0.0976 19.702-1.9679 39.783-6.057 60.218" style="fill:none;stroke-linecap:round;stroke-linejoin:round;stroke-width:.94488;stroke:#f00"/>
  <ellipse transform="rotate(88)" cx="201.44" cy="-396.15" rx="4.0406" ry="3.7795" style="fill:#f00;stroke-linecap:round;stroke-linejoin:round;stroke-width:3.7837;stroke:#f00"/>
  <path d="m399.66 246.3a1.89 1.89 0 0 0-3.7667-0.13334c-0.89461 6.5014-8.7972 15.676-19.5 25.7-10.703 10.024-24.002 21.106-35.167 32.767-24.068 25.137-37.372 54.928-29.6 93a1.89 1.89 0 1 0 3.7-0.76667c-7.5277-36.876 5.106-65.061 28.633-89.633 10.955-11.441 24.206-22.493 35.033-32.633 10.827-10.141 19.429-19.18 20.633-27.933a1.89 1.89 0 0 0 0.0333-0.36666z" style="color:#000000;fill:#fff;stroke-linecap:round;stroke-linejoin:round;stroke-width:.75591;stroke:#000;text-decoration-line:none;text-indent:0;text-transform:none"/>
  <path d="m397.56 246.42-8.4716 35.539-93.394 28.927 17.77 86.782" style="fill:none;stroke-linecap:round;stroke-linejoin:round;stroke-width:.75591;stroke:#000"/>
  <ellipse transform="rotate(88)" cx="404.79" cy="-299.08" rx="4.0406" ry="3.7795" style="fill:#008000;stroke-linecap:round;stroke-linejoin:round;stroke-width:3.7837;stroke:#008000"/>
  <circle transform="rotate(90)" cx="310.58" cy="-295.46" r="2.9316" style="fill:#800000;stroke-linecap:round;stroke-linejoin:round;stroke-width:.75591;stroke:#800000"/>
  <circle transform="rotate(90)" cx="282.09" cy="-387.93" r="2.9316" style="fill:#800000;stroke-linecap:round;stroke-linejoin:round;stroke-width:.75591;stroke:#800000"/>
  <ellipse transform="rotate(88)" cx="260.48" cy="-388.85" rx="4.0406" ry="3.7795" style="fill:#008000;stroke-linecap:round;stroke-linejoin:round;stroke-width:3.7837;stroke:#008000"/>
  <path d="m384.95 91.836c12.632 30.375 18.727 61.893 18.913 94.446" style="fill:none;stroke-linecap:round;stroke-linejoin:round;stroke-width:3.7795;stroke:#f00"/>
  <path d="m397.85 246.51-5.552 22.939" style="fill:#008000;stroke-linecap:round;stroke-linejoin:round;stroke-width:1.8898;stroke:#008000"/>
  <path d="m313.46 397.46-11.571-56.615" style="fill:none;stroke-linecap:round;stroke-linejoin:round;stroke-width:1.8898;stroke:#008000"/>
  <rect transform="rotate(90)" x="335.68" y="-307.71" width="11.339" height="11.339" style="fill:#008000"/>
  <rect transform="rotate(90)" x="264.93" y="-397.95" width="11.339" height="11.339" style="fill:#008000"/>
  <ellipse transform="rotate(88)" cx="208.67" cy="-606.45" rx="4.0406" ry="3.7795" style="fill:#f00;stroke-linecap:round;stroke-linejoin:round;stroke-width:3.7837;stroke:#f00"/>
  <path d="m509.14 266.38c2.5386 61.41 8.9243 120.9 25.422 175.33" style="fill:none;stroke-linecap:round;stroke-linejoin:round;stroke-width:3.7795;stroke:#f00"/>
  <path d="m609.73 246.37a1.89 1.89 0 0 0-3.7667-0.26666c-2.5718 15.013-10.18 24.472-20.633 32.067-10.453 7.5948-23.775 13.157-37.233 19.867-15.632 7.7934-25.502 20.335-29.7 37.067-4.1977 16.732-2.8655 37.59 3.3 62.6a1.89 1.89 0 1 0 3.6667-0.9c-6.0778-24.654-7.2705-44.974-3.3-60.8 3.9705-15.826 12.965-27.204 27.733-34.567 13.31-6.6356 26.762-12.229 37.733-20.2s19.426-18.503 22.167-34.5a1.89 1.89 0 0 0 0.0333-0.36667z" style="color:#000000;fill:#fff;stroke-linecap:round;stroke-linejoin:round;stroke-width:.75591;stroke:#000;text-decoration-line:none;text-indent:0;text-transform:none"/>
  <path d="m613.97 186.29c0.0976 19.702-1.9679 39.783-6.057 60.218" style="fill:none;stroke-linecap:round;stroke-linejoin:round;stroke-width:.94488;stroke:#f00"/>
  <ellipse transform="rotate(88)" cx="268.41" cy="-598.34" rx="4.0406" ry="3.7795" style="fill:#008000;stroke-linecap:round;stroke-linejoin:round;stroke-width:3.7837;stroke:#008000"/>
  <ellipse transform="rotate(88)" cx="414.56" cy="-509.36" rx="4.0406" ry="3.7795" style="fill:#008000;stroke-linecap:round;stroke-linejoin:round;stroke-width:3.7837;stroke:#008000"/>
  <path d="m607.62 246.42-6.8102 28.596-11.579 38.763-86.162-43.598 7.5421 67.035 12.914 60.452" style="fill:none;stroke-linecap:round;stroke-linejoin:round;stroke-width:.75591;stroke:#000"/>
  <circle transform="rotate(90)" cx="270.48" cy="-502.89" r="2.9316" style="fill:#800000;stroke-linecap:round;stroke-linejoin:round;stroke-width:.75591;stroke:#800000"/>
  <circle transform="rotate(90)" cx="279.11" cy="-599.87" r="2.9316" style="fill:#800000;stroke-linecap:round;stroke-linejoin:round;stroke-width:.75591;stroke:#800000"/>
  <path d="m595.02 91.836c12.632 30.375 18.727 61.893 18.913 94.446" style="fill:none;stroke-linecap:round;stroke-linejoin:round;stroke-width:3.7795;stroke:#f00"/>
  <path d="m607.91 246.51-5.552 22.939" style="fill:#008000;stroke-linecap:round;stroke-linejoin:round;stroke-width:1.8898;stroke:#008000"/>
  <path d="m523.52 397.46-11.571-56.615" style="fill:none;stroke-linecap:round;stroke-linejoin:round;stroke-width:1.8898;stroke:#008000"/>
  <rect transform="rotate(90)" x="263.95" y="-607.85" width="11.339" height="11.339" style="fill:#008000"/>
  <rect transform="rotate(90)" x="333.73" y="-517.02" width="11.339" height="11.339" style="fill:#008000"/>
  <circle transform="rotate(90)" cx="313.4" cy="-588.56" r="2.9316" style="fill:#800000;stroke-linecap:round;stroke-linejoin:round;stroke-width:.75591;stroke:#800000"/>
  <circle transform="rotate(90)" cx="329.07" cy="-509.26" r="2.9316" style="fill:#800000;stroke-linecap:round;stroke-linejoin:round;stroke-width:.75591;stroke:#800000"/>
  <ellipse cx="551.03" cy="102.95" rx="13.199" ry="13.469" style="fill:#1f638a;stroke-linecap:round;stroke-linejoin:round;stroke-width:1.0658"/>
  <text x="542.98254" y="110.48256" style="fill:#000000;font-family:'Arial Nova', 'Arial Unicode MS', 'Yu Gothic UI', sans-serif;font-size:12.8px;letter-spacing:0px;line-height:0%;stroke-width:1.0667;word-spacing:0px" xml:space="preserve"><tspan x="542.98254" y="110.48256" style="fill:#ffffff;font-family:'Arial Nova', 'Arial Unicode MS', 'Yu Gothic UI', sans-serif;font-size:21.333px;font-weight:bold;stroke-width:1.0667">C</tspan></text>
  <ellipse cx="341.35" cy="102.95" rx="13.199" ry="13.469" style="fill:#1f638a;stroke-linecap:round;stroke-linejoin:round;stroke-width:1.0658"/>
  <text x="333.74283" y="110.33156" style="fill:#000000;font-family:'Arial Nova', 'Arial Unicode MS', 'Yu Gothic UI', sans-serif;font-size:12.8px;letter-spacing:0px;line-height:0%;stroke-width:1.0667;word-spacing:0px" xml:space="preserve"><tspan x="333.74283" y="110.33156" style="fill:#ffffff;font-family:'Arial Nova', 'Arial Unicode MS', 'Yu Gothic UI', sans-serif;font-size:21.333px;font-weight:bold;stroke-width:1.0667">B</tspan></text>
  <ellipse cx="124.71" cy="102.95" rx="13.199" ry="13.469" style="fill:#1f638a;stroke-linecap:round;stroke-linejoin:round;stroke-width:1.0658"/>
  <text x="117.03065" y="109.81902" style="fill:#000000;font-family:'Arial Nova', 'Arial Unicode MS', 'Yu Gothic UI', sans-serif;font-size:12.8px;letter-spacing:0px;line-height:0%;stroke-width:1.0667;word-spacing:0px" xml:space="preserve"><tspan x="117.03065" y="109.81902" style="fill:#ffffff;font-family:'Arial Nova', 'Arial Unicode MS', 'Yu Gothic UI', sans-serif;font-size:21.333px;font-weight:bold;stroke-width:1.0667">A</tspan></text>
  <g transform="translate(-1100.7 207.3)">
   <ellipse cx="1175.2" cy="160.16" rx="13.199" ry="13.469" style="fill:#1f638a;stroke-linecap:round;stroke-linejoin:round;stroke-width:1.0658"/>
   <text x="1169.625" y="167.8232" style="fill:#000000;font-family:'Arial Nova', 'Arial Unicode MS', 'Yu Gothic UI', sans-serif;font-size:12.8px;letter-spacing:0px;line-height:0%;stroke-width:1.0667;word-spacing:0px" xml:space="preserve"><tspan x="1169.625" y="167.8232" style="fill:#ffffff;font-family:'Arial Nova', 'Arial Unicode MS', 'Yu Gothic UI', sans-serif;font-size:21.333px;font-weight:bold;stroke-width:1.0667">2</tspan></text>
  </g>
  <g transform="translate(-961.98 -17.143)">
   <ellipse cx="1175.2" cy="160.16" rx="13.199" ry="13.469" style="fill:#1f638a;stroke-linecap:round;stroke-linejoin:round;stroke-width:1.0658"/>
   <text x="1169.625" y="167.8232" style="fill:#000000;font-family:'Arial Nova', 'Arial Unicode MS', 'Yu Gothic UI', sans-serif;font-size:12.8px;letter-spacing:0px;line-height:0%;stroke-width:1.0667;word-spacing:0px" xml:space="preserve"><tspan x="1169.625" y="167.8232" style="fill:#ffffff;font-family:'Arial Nova', 'Arial Unicode MS', 'Yu Gothic UI', sans-serif;font-size:21.333px;font-weight:bold;stroke-width:1.0667">1</tspan></text>
  </g>
  <g transform="translate(-824.52 -153.08)">
   <ellipse cx="982.02" cy="399.69" rx="13.199" ry="13.469" style="fill:#1f638a;stroke-linecap:round;stroke-linejoin:round;stroke-width:1.0658"/>
   <text x="976.14124" y="407.22528" style="fill:#000000;font-family:'Arial Nova', 'Arial Unicode MS', 'Yu Gothic UI', sans-serif;font-size:12.8px;letter-spacing:0px;line-height:0%;stroke-width:1.0667;word-spacing:0px" xml:space="preserve"><tspan x="976.14124" y="407.22528" style="fill:#ffffff;font-family:'Arial Nova', 'Arial Unicode MS', 'Yu Gothic UI', sans-serif;font-size:21.333px;font-weight:bold;stroke-width:1.0667">3</tspan></text>
  </g>
  <g transform="translate(-841.43 -2.696)">
   <ellipse cx="982.02" cy="399.69" rx="13.199" ry="13.469" style="fill:#1f638a;stroke-linecap:round;stroke-linejoin:round;stroke-width:1.0658"/>
   <text x="976.14124" y="407.22528" style="fill:#000000;font-family:'Arial Nova', 'Arial Unicode MS', 'Yu Gothic UI', sans-serif;font-size:12.8px;letter-spacing:0px;line-height:0%;stroke-width:1.0667;word-spacing:0px" xml:space="preserve"><tspan x="976.14124" y="407.22528" style="fill:#ffffff;font-family:'Arial Nova', 'Arial Unicode MS', 'Yu Gothic UI', sans-serif;font-size:21.333px;font-weight:bold;stroke-width:1.0667">3</tspan></text>
  </g>
  <path d="m193.47 186.29c0.0976 19.702-1.9679 39.783-6.057 60.218" style="fill:none;stroke-linecap:round;stroke-linejoin:round;stroke-width:.94488;stroke:#f00"/>
  <path d="m88.648 266.38c2.5386 61.41 8.9243 120.9 25.422 175.33" style="fill:none;stroke-linecap:round;stroke-linejoin:round;stroke-width:3.7795;stroke:#f00"/>
  <path d="m189.03 246.47a1.89 1.89 0 0 0-3.5667-0.76666l-84.133 150.97a1.89 1.89 0 1 0 3.3 1.8333l84.133-150.93a1.89 1.89 0 0 0 0.26667-1.1z" style="color:#000000;fill:#fff;stroke-linecap:round;stroke-linejoin:round;stroke-width:.75591;stroke:#000;text-decoration-line:none;text-indent:0;text-transform:none"/>
  <path d="m174.52 91.836c12.632 30.375 18.727 61.893 18.913 94.446" style="fill:none;stroke-linecap:round;stroke-linejoin:round;stroke-width:3.7795;stroke:#f00"/>
  <ellipse transform="rotate(88)" cx="194.1" cy="-185.92" rx="4.0406" ry="3.7795" style="fill:#f00;stroke-linecap:round;stroke-linejoin:round;stroke-width:3.7837;stroke:#f00"/>
  <ellipse transform="rotate(88)" cx="400.67" cy="-89.264" rx="4.0406" ry="3.7795" style="fill:#008000;stroke-linecap:round;stroke-linejoin:round;stroke-width:3.7837;stroke:#008000"/>
  <ellipse transform="rotate(88)" cx="255.82" cy="-176.82" rx="4.0406" ry="3.7795" style="fill:#008000;stroke-linecap:round;stroke-linejoin:round;stroke-width:3.7837;stroke:#008000"/>
  <path d="m75.112 265.94c1.0719 25.931 2.8299 51.52 5.7455 76.529" style="fill:none;stroke-dasharray:2.83464565, 2.83464565;stroke-linecap:round;stroke-linejoin:round;stroke-width:.94488;stroke:#008000"/>
  <g transform="rotate(118.73 77.082 183.76)">
   <path d="m48.244 43.8c30.375-12.632 61.893-18.727 94.446-18.913" style="fill:none;stroke-dasharray:2.83464565, 2.83464565;stroke-linecap:round;stroke-linejoin:round;stroke-width:.94488;stroke:#008000"/>
   <path d="m48.122 43.694 10.32-8.3123 3.0562 8.2116z" style="fill:#fff;stroke-dasharray:3.19748032, 3.19748032;stroke-linecap:round;stroke-linejoin:round;stroke-width:1.0658;stroke:#008000"/>
   <path d="m142.59 24.815-12.693-3.8049 0.26735 8.7578z" style="fill:#fff;stroke-dasharray:3.19748032, 3.19748032;stroke-linecap:round;stroke-linejoin:round;stroke-width:1.0658;stroke:#008000"/>
  </g>
  <path d="m75.228 265.98 4.5307 12.453-8.7587 0.23821z" style="fill:#fff;stroke-dasharray:3.19748039, 3.19748039;stroke-linecap:round;stroke-linejoin:round;stroke-width:1.0658;stroke:#008000"/>
  <path d="m80.765 342.54 3.0419-12.898-8.7263 0.78865z" style="fill:#fff;stroke-dasharray:3.19748039, 3.19748039;stroke-linecap:round;stroke-linejoin:round;stroke-width:1.0658;stroke:#008000"/>
  <path d="m102.89 422.17 6.2254-5.147 6.9023 14.13 6.2932-3.0742-6.9023-14.13 7.4286-1.523-19.542-14.716z" style="fill:#fff;stroke-linecap:round;stroke-linejoin:round;stroke-width:.75591;stroke:#000"/>
  <path d="m193.49 210.68 6.2254-5.147 6.9023 14.13 6.2932-3.0742-6.9023-14.13 7.4286-1.523-19.542-14.716z" style="fill:#fff;stroke-linecap:round;stroke-linejoin:round;stroke-width:.75591;stroke:#000"/>
 </g>
</svg>
