<?xml version="1.0" encoding="UTF-8"?>
<svg width="18cm" height="7cm" version="1.1" xmlns="http://www.w3.org/2000/svg" xmlns:xlink="http://www.w3.org/1999/xlink">
 <title>Abbildung fuer OPEN MIND Softwaredokumentation</title>
 <defs>
  <linearGradient id="linearGradient17780">
   <stop style="stop-color:#fff" offset="0"/>
   <stop style="stop-color:#00385e" offset="1"/>
  </linearGradient>
  <linearGradient id="linearGradient8449">
   <stop style="stop-color:#ff5400" offset="0"/>
   <stop style="stop-color:#fff" offset="1"/>
  </linearGradient>
  <linearGradient id="linearGradient8449-5">
   <stop style="stop-color:#ffce00" offset="0"/>
   <stop style="stop-color:#fff" offset="1"/>
  </linearGradient>
  <linearGradient id="linearGradient7747-2-1-5-0">
   <stop style="stop-color:#fff" offset="0"/>
   <stop style="stop-color:#808080" offset="1"/>
  </linearGradient>
  <linearGradient id="linearGradient6218-7-4-0-5-2-09-5-5">
   <stop style="stop-color:#ff8500" offset="0"/>
   <stop style="stop-color:#fff" offset="1"/>
  </linearGradient>
  <linearGradient id="linearGradient5862" x1="418.98" x2="542.63" y1="1092.2" y2="1092.2" gradientTransform="scale(1.0667)" gradientUnits="userSpaceOnUse" xlink:href="#linearGradient7747-2-1-5-0"/>
  <linearGradient id="linearGradient5864" x1="433.86" x2="509.08" y1="1080.7" y2="1080.7" gradientTransform="scale(1.0667)" gradientUnits="userSpaceOnUse" xlink:href="#linearGradient7747-2-1-5-0"/>
  <linearGradient id="linearGradient5866" x1="439.1" x2="513.3" y1="1064.6" y2="1064.6" gradientTransform="scale(1.0667)" gradientUnits="userSpaceOnUse" xlink:href="#linearGradient7747-2-1-5-0"/>
  <linearGradient id="linearGradient5868" x1="453.47" x2="528.7" y1="1086.2" y2="1086.2" gradientTransform="scale(1.0667)" gradientUnits="userSpaceOnUse" xlink:href="#linearGradient7747-2-1-5-0"/>
  <linearGradient id="linearGradient5870" x1="434.57" x2="450.73" y1="1081.6" y2="1081.6" gradientTransform="scale(1.0667)" gradientUnits="userSpaceOnUse" xlink:href="#linearGradient7747-2-1-5-0"/>
  <linearGradient id="linearGradient5872" x1="439.16" x2="528.69" y1="1069.9" y2="1069.9" gradientTransform="scale(1.0667)" gradientUnits="userSpaceOnUse" xlink:href="#linearGradient7747-2-1-5-0"/>
  <linearGradient id="linearGradient5874" x1="423.04" x2="621.88" y1="967.63" y2="967.63" gradientTransform="matrix(1.0667 0 0 1.0667 -2.1333 -86.842)" gradientUnits="userSpaceOnUse" xlink:href="#linearGradient7747-2-1-5-0"/>
  <linearGradient id="linearGradient5876" x1="580.65" x2="891.22" y1="818.13" y2="821.67" gradientTransform="matrix(1.0667 0 0 1.0667 -760.04 -185.16)" gradientUnits="userSpaceOnUse" xlink:href="#linearGradient17780"/>
  <linearGradient id="linearGradient5878" x1="720.14" x2="771.52" y1="851.91" y2="852.26" gradientTransform="matrix(1.0667 0 0 1.0667 -759.94 -185.25)" gradientUnits="userSpaceOnUse" xlink:href="#linearGradient17780"/>
  <linearGradient id="linearGradient5880" x1="746.21" x2="904.47" y1="813.43" y2="813.43" gradientTransform="matrix(1.0667 0 0 1.0667 -760.04 -185.16)" gradientUnits="userSpaceOnUse" xlink:href="#linearGradient17780"/>
  <linearGradient id="linearGradient5882" x1="760.42" x2="910.83" y1="827.41" y2="827.41" gradientTransform="matrix(1.0667 0 0 1.0667 -760.04 -185.16)" gradientUnits="userSpaceOnUse" xlink:href="#linearGradient17780"/>
  <linearGradient id="linearGradient5938" x1="48.629" x2="292.6" y1="833.99" y2="833.99" gradientTransform="matrix(.86881 0 0 .86881 196.99 224.97)" gradientUnits="userSpaceOnUse" xlink:href="#linearGradient8449"/>
  <linearGradient id="linearGradient5986" x1="48.629" x2="292.6" y1="833.99" y2="833.99" gradientTransform="matrix(.86881 0 0 .86881 -19.162 223.81)" gradientUnits="userSpaceOnUse" xlink:href="#linearGradient8449"/>
  <linearGradient id="linearGradient5989" x1="125.67" x2="110.93" y1="987.6" y2="932.1" gradientTransform="matrix(.86881 0 0 .86881 -17.395 224.52)" gradientUnits="userSpaceOnUse" xlink:href="#linearGradient6218-7-4-0-5-2-09-5-5"/>
  <linearGradient id="linearGradient5992" x1="62.781" x2="262.21" y1="973.9" y2="966.9" gradientTransform="matrix(.86881 0 0 .86881 -17.395 224.52)" gradientUnits="userSpaceOnUse" xlink:href="#linearGradient6218-7-4-0-5-2-09-5-5"/>
  <linearGradient id="linearGradient5995" x1="135.74" x2="135.44" y1="998.54" y2="927.79" gradientTransform="matrix(.86881 0 0 .86881 -17.395 224.52)" gradientUnits="userSpaceOnUse" xlink:href="#linearGradient6218-7-4-0-5-2-09-5-5"/>
  <linearGradient id="linearGradient5998" x1="68.342" x2="159.28" y1="953.08" y2="953.08" gradientTransform="matrix(.86881 0 0 .86881 -17.395 224.52)" gradientUnits="userSpaceOnUse">
   <stop style="stop-color:#fff" offset="0"/>
   <stop style="stop-color:#808080" offset="1"/>
  </linearGradient>
  <linearGradient id="linearGradient6001" x1="61.908" x2="277.1" y1="972.85" y2="970.6" gradientTransform="matrix(.86881 0 0 .86881 -17.395 224.52)" gradientUnits="userSpaceOnUse" xlink:href="#linearGradient6218-7-4-0-5-2-09-5-5"/>
  <linearGradient id="linearGradient6004" x1="43.643" x2="195.29" y1="986.88" y2="986.88" gradientTransform="matrix(.86881 0 0 .86881 -17.395 224.52)" gradientUnits="userSpaceOnUse" xlink:href="#linearGradient8449-5"/>
  <linearGradient id="linearGradient4407" x1="125.67" x2="110.93" y1="987.6" y2="932.1" gradientTransform="matrix(.86881 0 0 .86881 197.63 225.41)" gradientUnits="userSpaceOnUse" xlink:href="#linearGradient6218-7-4-0-5-2-09-5-5"/>
  <linearGradient id="linearGradient4410" x1="62.781" x2="262.21" y1="973.9" y2="966.9" gradientTransform="matrix(.86881 0 0 .86881 197.63 225.41)" gradientUnits="userSpaceOnUse" xlink:href="#linearGradient6218-7-4-0-5-2-09-5-5"/>
  <linearGradient id="linearGradient4413" x1="135.74" x2="135.44" y1="998.54" y2="927.79" gradientTransform="matrix(.86881 0 0 .86881 197.63 225.41)" gradientUnits="userSpaceOnUse" xlink:href="#linearGradient6218-7-4-0-5-2-09-5-5"/>
  <linearGradient id="linearGradient4416" x1="61.908" x2="277.1" y1="972.85" y2="970.6" gradientTransform="matrix(.86881 0 0 .86881 197.63 225.41)" gradientUnits="userSpaceOnUse" xlink:href="#linearGradient6218-7-4-0-5-2-09-5-5"/>
  <linearGradient id="linearGradient4419" x1="43.643" x2="195.29" y1="986.88" y2="986.88" gradientTransform="matrix(.86881 0 0 .86881 197.63 225.41)" gradientUnits="userSpaceOnUse" xlink:href="#linearGradient8449-5"/>
 </defs>
 <g transform="translate(0 -857.95)">
  <g transform="translate(1.0667 4)">
   <g transform="translate(-2.1333 -86.842)">
    <path d="m447.29 1172.7 52.836 15.111 78.303-30.751-52.836-14.9z" style="color:#000000;fill:url(#linearGradient5862);stroke-linecap:round;stroke-linejoin:round;stroke-miterlimit:10;stroke-width:.75591;stroke:#868686"/>
    <path d="m463.16 1177.4 0.791-18.935 78.695-30.319-0.70345 18.531z" style="color:#000000;fill:url(#linearGradient5864);stroke-linecap:round;stroke-linejoin:round;stroke-miterlimit:10;stroke-width:.75591;stroke:#868686"/>
    <path d="m468.75 1149.7c3.4904-1.6486 8.1308-0.7633 11.529 2.4005l62.286-24.035c0.0861-4.7285 1.9714-7.6702 4.5782-9.0262z" style="color:#000000;fill:url(#linearGradient5866);stroke-linecap:round;stroke-linejoin:round;stroke-miterlimit:10;stroke-width:.75591;stroke:#868686"/>
    <path d="m484.08 1183.2 0.79098-18.936 78.695-30.319-0.70344 18.531z" style="color:#000000;fill:url(#linearGradient5868);stroke-linecap:round;stroke-linejoin:round;stroke-miterlimit:10;stroke-width:.75591;stroke:#868686"/>
    <path d="m463.91 1158.5c0.15718-4.5579 2.1912-7.423 4.9371-8.72 3.4954-1.651 8.1442-0.7607 11.543 2.4142z" style="color:#000000;fill:url(#linearGradient5870);stroke-linecap:round;stroke-linejoin:round;stroke-miterlimit:10;stroke-width:.75591;stroke:#868686"/>
    <path d="m468.82 1149.8c6.322-2.9861 16.417 2.341 16.067 14.464l78.671-30.312c0.29068-12.204-10.099-18.06-16.345-14.812z" style="color:#000000;fill:url(#linearGradient5872);stroke-linecap:round;stroke-linejoin:round;stroke-miterlimit:10;stroke-width:.75591;stroke:#868686"/>
   </g>
   <path d="m449.49 986.62 53.047 15.639 75.873-29.8c51.479-19.139 64.907-39.808 82.424-69.11l-52.202-15.005c-25.543 47.209-57.138 59.502-82.858 69.323z" style="color:#000000;fill:url(#linearGradient5874);stroke-linecap:round;stroke-linejoin:round;stroke-miterlimit:10;stroke-width:.75591;stroke:#868686"/>
   <g transform="translate(437.59 245.03)">
    <path d="m31.618 727.53 75.17-28.544c31.44-10.621 58.201-29.324 76.515-62.617l6.5755 11.358c-17.046 32.602-44.129 56.263-83.09 69.342l-75.917 29.141z" style="color:#000000;fill:url(#linearGradient5876);stroke-linecap:round;stroke-linejoin:round;stroke-miterlimit:10;stroke-width:.75591;stroke:#868686"/>
    <path d="m47.212 721.55c-3.1702-2.7037-7.2012-3.7014-10.413-2.2807-2.5356 1.1217-4.5604 3.7508-5.2476 8.2381z" style="color:#000000;fill:url(#linearGradient5878);stroke-linecap:round;stroke-linejoin:round;stroke-miterlimit:10;stroke-width:.75591;stroke:#868686"/>
    <path d="m182.84 632.52c2.5905-3.6431 16.243 0.85261 21.175 10.067-18.314 33.293-45.075 51.996-76.515 62.617l-75.17 28.544c0.18978-10.556-9.3375-17.169-15.674-14.365-1.2546 0.55501 60.381-22.901 60.381-22.901 24.76-9.6371 55.199-15.235 85.803-63.961z" style="color:#000000;fill:url(#linearGradient5880);stroke-linecap:round;stroke-linejoin:round;stroke-miterlimit:10;stroke-width:.75591;stroke:#868686"/>
    <path d="m52.54 733.65 75.17-28.544c31.44-10.621 58.201-29.324 76.515-62.617l6.5755 11.358c-17.046 32.602-44.129 56.263-83.09 69.342l-75.917 29.141z" style="color:#000000;fill:url(#linearGradient5882);stroke-linecap:round;stroke-linejoin:round;stroke-miterlimit:10;stroke-width:.75591;stroke:#868686"/>
   </g>
  </g>
  <path d="m98.393 1058.4 83.735-167.47" style="color:#000000;fill-rule:evenodd;fill:#60f;stroke-dasharray:0.75590551, 1.51181102;stroke-linecap:round;stroke-linejoin:round;stroke-miterlimit:10;stroke-width:.75591;stroke:#f0f"/>
  <path d="m20.83 1089.6 52.836 15.111 78.303-30.751-52.836-14.9z" style="color:#000000;fill:url(#linearGradient6004);stroke-linecap:round;stroke-linejoin:round;stroke-miterlimit:10;stroke-width:.75591;stroke:#868686"/>
  <path d="m36.699 1094.4 0.791-18.935 78.695-30.319-0.70345 18.531z" style="color:#000000;fill:url(#linearGradient6001);stroke-linecap:round;stroke-linejoin:round;stroke-miterlimit:10;stroke-width:.75591;stroke:#868686"/>
  <path d="m42.289 1066.7c3.4903-1.6485 8.1308-0.7632 11.529 2.4007l62.286-24.035c0.0861-4.7283 1.9714-7.6702 4.5782-9.0261z" style="color:#000000;fill:url(#linearGradient5998);stroke-linecap:round;stroke-linejoin:round;stroke-miterlimit:10;stroke-width:.75591;stroke:#868686"/>
  <path d="m57.622 1100.2 0.79099-18.936 78.695-30.319-0.70344 18.531z" style="color:#000000;fill:url(#linearGradient5995);stroke-linecap:round;stroke-linejoin:round;stroke-miterlimit:10;stroke-width:.75591;stroke:#868686"/>
  <path d="m37.458 1075.4c0.15718-4.5578 2.1913-7.423 4.9371-8.72 3.4954-1.651 8.1442-0.7607 11.543 2.4142z" style="color:#000000;fill:url(#linearGradient5992);stroke-linecap:round;stroke-linejoin:round;stroke-miterlimit:10;stroke-width:.75591;stroke:#868686"/>
  <path d="m42.358 1066.8c6.322-2.9861 16.417 2.3411 16.067 14.464l78.671-30.312c0.29067-12.204-10.099-18.06-16.345-14.812z" style="color:#000000;fill:url(#linearGradient5989);stroke-linecap:round;stroke-linejoin:round;stroke-miterlimit:10;stroke-width:.75591;stroke:#868686"/>
  <path d="m23.394 989.7 53.047 15.64 75.873-29.8c51.479-19.139 64.907-39.808 82.424-69.11l-52.202-15.005c-25.543 47.209-57.138 59.502-82.858 69.323z" style="color:#000000;fill:url(#linearGradient5986);stroke-linecap:round;stroke-linejoin:round;stroke-miterlimit:10;stroke-width:.75591;stroke:#868686"/>
  <path d="m151.37 1073.5 84.315-166.59" style="color:#000000;fill-rule:evenodd;fill:#60f;stroke-dasharray:0.75590551, 1.51181102;stroke-linecap:round;stroke-linejoin:round;stroke-miterlimit:10;stroke-width:.75591;stroke:#f0f"/>
  <path d="m76.202 1006.1-3.5506 98.434" style="color:#000000;fill-rule:evenodd;fill:#60f;stroke-dasharray:0.75590551, 1.51181102;stroke-linecap:round;stroke-linejoin:round;stroke-miterlimit:10;stroke-width:.75591;stroke:#f0f"/>
  <path d="m23.239 990.25-3.2547 99.205" style="color:#000000;fill-rule:evenodd;fill:#60f;stroke-dasharray:0.75590551, 1.51181102;stroke-linecap:round;stroke-linejoin:round;stroke-miterlimit:10;stroke-width:.75591;stroke:#f0f"/>
  <path d="m314.55 1059.5 83.735-167.47" style="color:#000000;fill-rule:evenodd;fill:#60f;stroke-dasharray:0.75590551, 1.51181102;stroke-linecap:round;stroke-linejoin:round;stroke-miterlimit:10;stroke-width:.75591;stroke:#f0f"/>
  <path d="m235.86 1090.5 52.836 15.111 78.303-30.751-52.836-14.9z" style="color:#000000;fill:url(#linearGradient4419);stroke-linecap:round;stroke-linejoin:round;stroke-miterlimit:10;stroke-width:.75591;stroke:#868686"/>
  <path d="m330.33 1049.2-15.908-4.5572-78.536 30.358 16.378 4.7501" style="color:#000000;fill-opacity:.20084;fill:#008000;stroke-dasharray:0.75590551, 0.75590551;stroke-linecap:round;stroke-linejoin:round;stroke-width:.37795;stroke:#008000"/>
  <path d="m251.72 1095.3 0.791-18.936 78.695-30.319-0.70346 18.531z" style="color:#000000;fill:url(#linearGradient4416);stroke-linecap:round;stroke-linejoin:round;stroke-miterlimit:10;stroke-width:.75591;stroke:#868686"/>
  <path d="m252.48 1076.3c0.15718-4.5579 2.1912-7.4231 4.9371-8.72 3.4954-1.651 8.1442-0.7608 11.543 2.4141z" style="color:#000000;fill:url(#linearGradient4410);stroke-linecap:round;stroke-linejoin:round;stroke-miterlimit:10;stroke-width:.75591;stroke:#868686"/>
  <path d="m239.55 990.86 53.047 15.64 75.873-29.8c51.479-19.139 64.907-39.808 82.424-69.11l-52.202-15.005c-25.543 47.209-57.138 59.502-82.858 69.323z" style="color:#000000;fill:url(#linearGradient5938);stroke-linecap:round;stroke-linejoin:round;stroke-miterlimit:10;stroke-width:.75591;stroke:#868686"/>
  <path d="m367.52 1074.6 84.315-166.59" style="color:#000000;fill-rule:evenodd;fill:#60f;stroke-dasharray:0.75590551, 1.51181102;stroke-linecap:round;stroke-linejoin:round;stroke-miterlimit:10;stroke-width:.75591;stroke:#f0f"/>
  <path d="m252.03 1084.1-16.192 6.2608 0.59778-30.86 78.097-30.542" style="color:#000000;fill:none;stroke-dasharray:0.75590554, 0.75590554;stroke-linecap:round;stroke-linejoin:round;stroke-miterlimit:10;stroke-width:.37795;stroke:#008000"/>
  <g transform="translate(-181.92 636.29)">
   <ellipse cx="230.42" cy="311.21" rx="13.199" ry="13.469" style="fill:#1f638a;stroke-linecap:round;stroke-linejoin:round;stroke-width:1.0658"/>
   <text x="224.84752" y="318.87271" style="fill:#000000;font-family:'Arial Nova', 'Arial Unicode MS', 'Yu Gothic UI', sans-serif;font-size:12.8px;letter-spacing:0px;line-height:0%;stroke-width:1.0667;word-spacing:0px" xml:space="preserve"><tspan x="224.84752" y="318.87271" style="fill:#ffffff;font-family:'Arial Nova', 'Arial Unicode MS', 'Yu Gothic UI', sans-serif;font-size:21.333px;font-weight:bold;stroke-width:1.0667">4</tspan></text>
  </g>
  <g transform="translate(-64.023 694.78)">
   <ellipse cx="230.42" cy="311.21" rx="13.199" ry="13.469" style="fill:#1f638a;stroke-linecap:round;stroke-linejoin:round;stroke-width:1.0658"/>
   <text x="224.84752" y="318.87271" style="fill:#000000;font-family:'Arial Nova', 'Arial Unicode MS', 'Yu Gothic UI', sans-serif;font-size:12.8px;letter-spacing:0px;line-height:0%;stroke-width:1.0667;word-spacing:0px" xml:space="preserve"><tspan x="224.84752" y="318.87271" style="fill:#ffffff;font-family:'Arial Nova', 'Arial Unicode MS', 'Yu Gothic UI', sans-serif;font-size:21.333px;font-weight:bold;stroke-width:1.0667">5</tspan></text>
  </g>
  <g transform="translate(0,36)">
   <path d="m40.731 940.01 75.17-28.544c31.44-10.621 58.201-29.324 76.515-62.617l6.5755 11.358c-17.046 32.602-44.129 56.263-83.09 69.342l-75.917 29.141z" style="color:#000000;fill-opacity:.50628;fill:#ff8080;stroke-dasharray:0.75590551, 1.51181102;stroke-linecap:round;stroke-linejoin:round;stroke-width:.75591;stroke:#f00"/>
   <path d="m56.064 934.16c0.04027 0.0341 59.538-22.562 59.538-22.562 31.44-10.621 58.201-29.324 76.515-62.617-0.8597-1.7887-0.85948-3.0875-0.25308-3.9403-23.13 36.21-45.477 50.977-85.743 63.895 0 0-61.398 23.391-60.442 22.968" style="color:#000000;fill:#ff8080;opacity:.63082;stroke-dasharray:0.75590554, 1.51181106;stroke-dashoffset:.99213;stroke-linecap:round;stroke-linejoin:round;stroke-width:.75591;stroke:#f00"/>
   <path d="m56.231 934.14c-3.1702-2.7037-7.2012-3.7014-10.413-2.2807-2.5356 1.1217-4.5604 3.7508-5.2476 8.2381z" style="color:#000000;fill-opacity:.50628;fill:#ff8080;stroke-dasharray:0.75590554, 1.51181106;stroke-dashoffset:7.0866;stroke-linecap:round;stroke-linejoin:round;stroke-width:.75591;stroke:#f00"/>
   <path d="m61.653 946.14 75.17-28.544c31.44-10.621 58.201-29.324 76.515-62.617l6.5755 11.358c-17.046 32.602-44.129 56.263-83.09 69.342l-75.917 29.141z" style="color:#000000;fill-opacity:.50628;fill:#ff8080;stroke-dasharray:0.75590551, 1.51181102;stroke-linecap:round;stroke-linejoin:round;stroke-width:.75591;stroke:#f00"/>
   <path d="m191.95 845c2.5904-3.6431 16.243 0.8526 21.175 10.067-18.314 33.293-45.075 51.996-76.515 62.617l-75.17 28.544c0.18978-10.556-9.3375-17.169-15.674-14.365-1.2546 0.55501 60.381-22.901 60.381-22.901 24.76-9.6371 55.199-15.235 85.803-63.961z" style="color:#000000;fill-opacity:.50628;fill:#ff8080;stroke-dasharray:0.75590551, 1.51181102;stroke-linecap:round;stroke-linejoin:round;stroke-width:.75591;stroke:#f00"/>
  </g>
  <g transform="matrix(.2917 0 0 .28875 372.71 947.82)" style="fill:#1f638a;stroke-linecap:round;stroke-linejoin:round;stroke-width:1.2209;stroke:#1f638a">
   <path d="m207.49 126.25 34.17 21.614-34.17 21.614z" style="fill:#1f638a;stroke-linecap:round;stroke-linejoin:round;stroke-width:1.3023;stroke:#1f638a"/>
   <rect x="172.19" y="137.99" width="39.213" height="19.761" style="fill:#1f638a;stroke-linecap:round;stroke-linejoin:round;stroke-width:1.3023;stroke:#1f638a"/>
  </g>
  <path d="m252.27 1079.7 21.195 6.1475 78.434-30.522-21.563-6.1773" style="color:#000000;fill-opacity:.20084;fill:#008000;stroke-dasharray:0.75590551, 0.75590551;stroke-linecap:round;stroke-linejoin:round;stroke-width:.37795;stroke:#008000"/>
  <path d="m272.65 1101.1 0.79099-18.935 78.695-30.319-0.70343 18.531z" style="color:#000000;fill:url(#linearGradient4413);stroke-linecap:round;stroke-linejoin:round;stroke-miterlimit:10;stroke-width:.75591;stroke:#868686"/>
  <path d="m257.38 1067.7c6.322-2.9862 16.417 2.341 16.067 14.464l78.671-30.312c0.29068-12.204-10.099-18.06-16.345-14.812z" style="color:#000000;fill:url(#linearGradient4407);stroke-linecap:round;stroke-linejoin:round;stroke-miterlimit:10;stroke-width:.75591;stroke:#868686"/>
  <g transform="rotate(180 301.33 1067.7)">
   <path d="m301.3 1082.7-0.25222 8.611" style="color:#000000;fill-rule:evenodd;fill:#f0f;stroke-linecap:round;stroke-linejoin:round;stroke-miterlimit:10;stroke-width:.75591;stroke:#008000"/>
   <rect x="296.17" y="1089.4" width="10.319" height="10.319" style="fill:#008000;stroke-linecap:round;stroke-linejoin:round;stroke-width:.75591;stroke:#008000"/>
  </g>
  <path d="m289.44 1074.6-52.983-14.988-0.51774 30.763 52.965 15.225" style="color:#000000;fill:none;stroke-dasharray:0.75590554, 0.75590554;stroke-linecap:round;stroke-linejoin:round;stroke-miterlimit:10;stroke-width:.37795;stroke:#008000"/>
  <path d="m239.4 991.4-3.2547 99.205" style="color:#000000;fill-rule:evenodd;fill:#60f;stroke-dasharray:0.75590551, 1.51181102;stroke-linecap:round;stroke-linejoin:round;stroke-miterlimit:10;stroke-width:.75591;stroke:#f0f"/>
  <path d="m292.36 1007.3-3.5506 98.434" style="color:#000000;fill-rule:evenodd;fill:#60f;stroke-dasharray:0.75590551, 1.51181102;stroke-linecap:round;stroke-linejoin:round;stroke-miterlimit:10;stroke-width:.75591;stroke:#f0f"/>
  <path d="m240.33 991.25 86.275-32.599c20.929-10.694 37.9-13.31 71.841-66.206l-14.014-20.066c-16.563 29.134-26.23 41.413-57.857 54.714l-85.97 32.962" style="color:#000000;fill:none;stroke-dasharray:0.75590554, 0.75590554;stroke-linecap:round;stroke-linejoin:round;stroke-miterlimit:10;stroke-width:.37795;stroke:#008000"/>
  <path d="m291.76 975.34-51.427-14.852-0.42504 31.081 52.276 15.324" style="color:#000000;fill:none;stroke-dasharray:0.75590554, 0.75590554;stroke-linecap:round;stroke-linejoin:round;stroke-miterlimit:10;stroke-width:.37795;stroke:#008000"/>
  <path d="m399.32 892.63 52.494 14.994-14.879-19.884-51.837-15.392" style="color:#000000;fill:none;stroke-dasharray:0.75590554, 0.75590554;stroke-linecap:round;stroke-linejoin:round;stroke-miterlimit:10;stroke-width:.37795;stroke:#008000"/>
  <path d="m288.83 1105.4 0.59777-30.86 78.757-30.636-0.89666 31.158z" style="color:#000000;fill:none;stroke-dasharray:0.75590554, 0.75590554;stroke-linecap:round;stroke-linejoin:round;stroke-miterlimit:10;stroke-width:.37795;stroke:#008000"/>
  <path d="m367.57 1043.8-52.983-14.988-0.27207 16.203m37.136 25.377 15.583 4.4796" style="color:#000000;fill:none;stroke-dasharray:0.75590554, 0.75590554;stroke-linecap:round;stroke-linejoin:round;stroke-miterlimit:10;stroke-width:.37795;stroke:#008000"/>
  <path d="m273.41 1085.8 15.463 4.4848 78.536-30.547-15.166-4.3448" style="color:#000000;fill-opacity:.20084;fill:#008000;stroke-dasharray:0.75590551, 0.75590551;stroke-linecap:round;stroke-linejoin:round;stroke-width:.37795;stroke:#008000"/>
  <path d="m436.24 887.91c-16.563 29.134-26.696 41.012-58.323 54.314l-85.97 32.962 0.57379 31.761 85.427-33.165c20.929-10.694 39.179-13.074 73.119-65.97" style="color:#000000;fill:none;stroke-dasharray:0.75590554, 0.75590554;stroke-linecap:round;stroke-linejoin:round;stroke-miterlimit:10;stroke-width:.37795;stroke:#008000"/>
  <g transform="translate(216.72 36.64)">
   <path d="m40.731 940.01 75.17-28.544c31.44-10.621 58.201-29.324 76.515-62.617l6.5755 11.358c-17.046 32.602-44.129 56.263-83.09 69.342l-75.917 29.141z" style="color:#000000;fill-opacity:.50628;fill:#ff8080;stroke-dasharray:0.75590551, 1.51181102;stroke-linecap:round;stroke-linejoin:round;stroke-width:.75591;stroke:#f00"/>
   <path d="m56.064 934.16c0.04027 0.0341 59.538-22.562 59.538-22.562 31.44-10.621 58.201-29.324 76.515-62.617-0.8597-1.7887-0.85948-3.0875-0.25308-3.9403-23.13 36.21-45.477 50.977-85.743 63.895 0 0-61.398 23.391-60.442 22.968" style="color:#000000;fill:#ff8080;opacity:.63082;stroke-dasharray:0.75590554, 1.51181106;stroke-dashoffset:.99213;stroke-linecap:round;stroke-linejoin:round;stroke-width:.75591;stroke:#f00"/>
   <path d="m56.231 934.14c-3.1702-2.7037-7.2012-3.7014-10.413-2.2807-2.5356 1.1217-4.5604 3.7508-5.2476 8.2381z" style="color:#000000;fill-opacity:.50628;fill:#ff8080;stroke-dasharray:0.75590554, 1.51181106;stroke-dashoffset:7.0866;stroke-linecap:round;stroke-linejoin:round;stroke-width:.75591;stroke:#f00"/>
   <path d="m61.653 946.14 75.17-28.544c31.44-10.621 58.201-29.324 76.515-62.617l6.5755 11.358c-17.046 32.602-44.129 56.263-83.09 69.342l-75.917 29.141z" style="color:#000000;fill-opacity:.50628;fill:#ff8080;stroke-dasharray:0.75590551, 1.51181102;stroke-linecap:round;stroke-linejoin:round;stroke-width:.75591;stroke:#f00"/>
   <path d="m191.95 845c2.5904-3.6431 16.243 0.8526 21.175 10.067-18.314 33.293-45.075 51.996-76.515 62.617l-75.17 28.544c0.18978-10.556-9.3375-17.169-15.674-14.365-1.2546 0.55501 60.381-22.901 60.381-22.901 24.76-9.6371 55.199-15.235 85.803-63.961z" style="color:#000000;fill-opacity:.50628;fill:#ff8080;stroke-dasharray:0.75590551, 1.51181102;stroke-linecap:round;stroke-linejoin:round;stroke-width:.75591;stroke:#f00"/>
  </g>
  <g transform="translate(417.84 1411.9)">
   <path d="m-1.6829-369.12-57.12 17.708" style="fill:#fff;stroke-linecap:round;stroke-linejoin:round;stroke-width:1.8898;stroke:#1f638a"/>
   <g transform="translate(-990.33 -655.68)" style="stroke:#fff">
    <ellipse cx="988.73" cy="286.32" rx="13.199" ry="13.469" style="fill:#1f638a;stroke-linecap:round;stroke-linejoin:round;stroke-width:1.0658;stroke:#fff"/>
    <text x="982.88611" y="293.98578" style="fill:#000000;font-family:'Arial Nova', 'Arial Unicode MS', 'Yu Gothic UI', sans-serif;font-size:12.8px;letter-spacing:0px;line-height:0%;stroke-width:1.0667;stroke:#ffffff;word-spacing:0px" xml:space="preserve"><tspan x="982.88611" y="293.98578" style="fill:#ffffff;font-family:'Arial Nova', 'Arial Unicode MS', 'Yu Gothic UI', sans-serif;font-size:21.333px;stroke-width:1.0667;stroke:#ffffff">7</tspan></text>
   </g>
  </g>
  <g transform="translate(378.19 1191.7)">
   <path d="m-115.75-169.28 37.597 17.399" style="fill:#fff;stroke-linecap:round;stroke-linejoin:round;stroke-width:1.8898;stroke:#1f638a"/>
   <g transform="translate(-1104.7 -454.7)" style="stroke:#fff">
    <ellipse cx="988.73" cy="286.32" rx="13.199" ry="13.469" style="fill:#1f638a;stroke-linecap:round;stroke-linejoin:round;stroke-width:1.0658;stroke:#fff"/>
    <text x="982.88611" y="293.98578" style="fill:#000000;font-family:'Arial Nova', 'Arial Unicode MS', 'Yu Gothic UI', sans-serif;font-size:12.8px;letter-spacing:0px;line-height:0%;stroke-width:1.0667;stroke:#ffffff;word-spacing:0px" xml:space="preserve"><tspan x="982.88611" y="293.98578" style="fill:#ffffff;font-family:'Arial Nova', 'Arial Unicode MS', 'Yu Gothic UI', sans-serif;font-size:21.333px;stroke-width:1.0667;stroke:#ffffff">6</tspan></text>
   </g>
  </g>
 </g>
</svg>
