<?xml version="1.0" encoding="UTF-8"?>
<svg width="18cm" height="5.5cm" version="1.1" xmlns="http://www.w3.org/2000/svg" xmlns:osb="http://www.openswatchbook.org/uri/2009/osb" xmlns:xlink="http://www.w3.org/1999/xlink">
 <defs>
  <linearGradient id="linearGradient44667">
   <stop style="stop-color:#fff" offset="0"/>
   <stop style="stop-color:#808080" offset="1"/>
  </linearGradient>
  <linearGradient id="linearGradient9010">
   <stop style="stop-color:#fff" offset="0"/>
   <stop style="stop-color:#00385e" offset="1"/>
  </linearGradient>
  <linearGradient id="linearGradient15836" x1="46.493" x2="268.54" y1="132.65" y2="316.14" gradientTransform="matrix(.70327 0 0 .70327 4.0463 96.626)" gradientUnits="userSpaceOnUse" xlink:href="#linearGradient44667"/>
  <linearGradient id="linearGradient15969" x1="210.96" x2="33.066" y1="280.73" y2="115.86" gradientTransform="matrix(.70327 0 0 .70327 311.75 100.83)" gradientUnits="userSpaceOnUse">
   <stop style="stop-color:#ff8500" offset="0"/>
   <stop style="stop-color:#fff" offset="1"/>
  </linearGradient>
  <linearGradient id="linearGradient16012" x1="540.55" x2="589.67" y1="199.23" y2="318.74" gradientUnits="userSpaceOnUse" xlink:href="#linearGradient9010"/>
 </defs>
 <g transform="translate(0 -170.08)">
  <g transform="translate(26.536 34.759)">
   <path d="m348.2 300.91 61.612 7.0728 2.1467-75.793c-15.498-16.066-35.571-27.555-61.126-33.564z" style="fill-opacity:.49196;fill:#ffd5d5;stroke-dasharray:1.35307086, 1.35307086;stroke-linecap:round;stroke-linejoin:round;stroke-width:.67654;stroke:#f00"/>
   <path d="m409.81 307.99 16.817-19.001 2.0005-75.463-16.671 18.671z" style="fill-opacity:.49196;fill:#ffd5d5;stroke-dasharray:1.35307086, 1.35307086;stroke-linecap:round;stroke-width:.67654;stroke:#f00"/>
   <path d="m348.44 300.48 61.015 7.224 17.449-19.56-61.126-6.4461z" style="fill:none;stroke-linejoin:round;stroke-width:1.8898;stroke:#f00"/>
   <path d="m365.63 281.77 1.6412-73.035" style="fill:none;stroke-dasharray:1.35307086, 1.35307086;stroke-linecap:round;stroke-linejoin:round;stroke-width:.67654;stroke:#f00"/>
   <path d="m321.34 198.9 24.228-26.451c57.912 0.34212 118.23 43.575 123.81 114.92l-23.117 26.896c-9.1982-80.491-73.076-113.77-124.92-115.36z" style="fill:url(#linearGradient15969);stroke-linejoin:round;stroke-width:1.8898;stroke:#7d7d7d"/>
   <path d="m458.68 300.05c-9.1982-80.491-73.076-113.77-124.92-115.36" style="fill:none;stroke-linejoin:round;stroke-width:.75591;stroke:#7d7d7d"/>
   <path d="m409.45 234.78 23.117-26.896" style="fill:none;stroke-linecap:round;stroke-linejoin:round;stroke-width:.75591;stroke:#7d7d7d"/>
   <path d="m351.03 198.68 17.115-18.894c23.987 5.3089 43.803 17.223 60.682 33.786l-16.671 18.671c-16.564-17.54-37.457-27.866-61.126-33.564z" style="fill:none;stroke-dasharray:1.35307086, 1.35307086;stroke-linecap:round;stroke-linejoin:round;stroke-width:.67654;stroke:#f00"/>
  </g>
  <g transform="translate(5.9753 38.958)">
   <path d="m41.011 296.54 61.015 7.224 17.449-19.56-61.126-6.4461z" style="fill:none;stroke-linejoin:round;stroke-width:1.8898;stroke:#f00"/>
   <path d="m13.636 194.7 24.228-26.451c57.912 0.34212 118.23 43.575 123.81 114.92l-23.117 26.896c-9.1982-80.491-73.076-113.77-124.92-115.36z" style="fill:url(#linearGradient15836);stroke-linejoin:round;stroke-width:1.8898;stroke:#7d7d7d"/>
   <path d="m150.98 295.85c-9.1982-80.491-73.076-113.77-124.92-115.36" style="fill:none;stroke-linejoin:round;stroke-width:.75591;stroke:#7d7d7d"/>
   <path d="m101.75 230.58 23.117-26.896" style="fill:none;stroke-linecap:round;stroke-linejoin:round;stroke-width:.75591;stroke:#7d7d7d"/>
  </g>
  <g transform="translate(8.5058 40.577)">
   <path d="m202.58 295.09 61.612 7.0728 2.1467-75.793c-15.498-16.066-35.571-27.555-61.126-33.564z" style="fill-opacity:.49196;fill:#ffd5d5;stroke-dasharray:1.35307086, 1.35307086;stroke-linecap:round;stroke-linejoin:round;stroke-width:.67654;stroke:#f00"/>
   <path d="m264.2 302.16 16.817-19.001 2.0005-75.463-16.671 18.671z" style="fill-opacity:.49196;fill:#ffd5d5;stroke-dasharray:1.35307086, 1.35307086;stroke-linecap:round;stroke-width:.67654;stroke:#f00"/>
   <g transform="translate(161.6 -1.6182)">
    <path d="m13.636 194.7 24.228-26.451c57.912 0.34212 118.23 43.575 123.81 114.92l-23.117 26.896c-9.1982-80.491-73.076-113.77-124.92-115.36z" style="fill:url(#linearGradient15836);stroke-linejoin:round;stroke-width:1.8898;stroke:#7d7d7d"/>
    <path d="m150.98 295.85c-9.1982-80.491-73.076-113.77-124.92-115.36" style="fill:none;stroke-linejoin:round;stroke-width:.75591;stroke:#7d7d7d"/>
    <path d="m101.75 230.58 23.117-26.896" style="fill:none;stroke-linecap:round;stroke-linejoin:round;stroke-width:.75591;stroke:#7d7d7d"/>
   </g>
   <path d="m202.82 294.65 61.015 7.224 17.449-19.56-61.126-6.4461z" style="fill:none;stroke-linejoin:round;stroke-width:1.8898;stroke:#f00"/>
   <path d="m266.34 226.37c-16.564-17.54-37.457-27.866-61.126-33.564l17.115-18.894c23.987 5.3089 43.803 17.223 60.682 33.786" style="fill:none;stroke-dasharray:1.35307086, 1.35307086;stroke-linecap:round;stroke-width:.67654;stroke:#f00"/>
   <path d="m265.94 167.92 17.449-19.56-0.37206 59.342-16.671 18.671" style="fill-opacity:.51373;fill:#ffd6d6;stroke-dasharray:1.35307086, 1.35307086;stroke-linecap:round;stroke-linejoin:round;stroke-width:.67654;stroke:#f00"/>
   <path d="m266.26 167.7 16.915-19.134-60.7-6.8729-16.804 18.782" style="fill-opacity:.4902;fill:#ffd6d6;stroke-dasharray:1.35307086, 1.35307086;stroke-linecap:round;stroke-linejoin:round;stroke-width:.67654;stroke:#f00"/>
   <path d="m220.01 275.95 1.6412-73.035" style="fill:none;stroke-dasharray:1.35307086, 1.35307086;stroke-linecap:round;stroke-linejoin:round;stroke-width:.67654;stroke:#f00"/>
   <path d="m222.3 174.24 0.73239-32.591" style="fill:none;stroke-dasharray:1.35307086, 1.35307086;stroke-linecap:round;stroke-linejoin:round;stroke-width:.67654;stroke:#f00"/>
   <path d="m205.19 192.56v-32.01l60.857 7.3164 0.40592 58.453c-15.472-15.142-34.558-27.444-61.263-33.759z" style="fill-opacity:.51447;fill:#ffd5d5;stroke-dasharray:1.35307086, 1.35307086;stroke-linecap:round;stroke-linejoin:round;stroke-width:.67654;stroke:#f00"/>
  </g>
  <g transform="translate(11.097 23.291)">
   <g style="fill:url(#linearGradient16012)">
    <path d="m530.55 209.83 17.115-18.894c23.987 5.3089 43.803 17.223 60.682 33.786l-16.671 18.671c-16.564-17.54-37.457-27.866-61.126-33.564z" style="fill:url(#linearGradient16012);stroke-linecap:round;stroke-linejoin:round;stroke-width:1.8898;stroke:#7d7d7d"/>
    <path d="m527.91 312.11 61.612 7.0728 2.1467-75.793c-15.498-16.066-35.571-27.555-61.126-33.564z" style="fill:url(#linearGradient16012);stroke-linecap:round;stroke-linejoin:round;stroke-width:1.8898;stroke:#7d7d7d"/>
    <path d="m589.53 319.18 16.817-19.001 2.0005-75.463-16.671 18.671z" style="fill:url(#linearGradient16012);stroke-linecap:round;stroke-linejoin:round;stroke-width:1.8898;stroke:#7d7d7d"/>
   </g>
   <path d="m558.7 314.13 2.2073-93.54" style="fill:none;stroke-linecap:round;stroke-linejoin:round;stroke-width:.756;stroke:#7d7d7d"/>
   <path d="m529.23 263.89 61.146 6.9413" style="fill:none;stroke-linecap:round;stroke-linejoin:round;stroke-width:.75591;stroke:#7d7d7d"/>
   <path d="m598.43 310.35 2.3474-76.398" style="fill:none;stroke-linecap:round;stroke-linejoin:round;stroke-width:.75591;stroke:#7d7d7d"/>
   <path d="m607.92 262.66-16.645 18.993" style="fill:none;stroke-linecap:round;stroke-linejoin:round;stroke-width:.75591;stroke:#7d7d7d"/>
   <path d="m539.5 199.21c23.423 6.4283 44.224 17.227 61.673 33.611" style="fill:none;stroke-linecap:round;stroke-linejoin:round;stroke-width:.75591;stroke:#7d7d7d"/>
   <path d="m580.79 203.37-16.859 18.566" style="fill:none;stroke-linecap:round;stroke-linejoin:round;stroke-width:.75591;stroke:#7d7d7d"/>
   <g transform="translate(487.27 15.668)" style="opacity:.2">
    <path d="m13.636 194.7 24.228-26.451c57.912 0.34212 118.23 43.575 123.81 114.92l-23.117 26.896c-9.1982-80.491-73.076-113.77-124.92-115.36z" style="fill:url(#linearGradient15836);stroke-linejoin:round;stroke-width:1.8898;stroke:#7d7d7d"/>
    <path d="m150.98 295.85c-9.1982-80.491-73.076-113.77-124.92-115.36" style="fill:none;stroke-linejoin:round;stroke-width:.75591;stroke:#7d7d7d"/>
    <path d="m101.75 230.58 23.117-26.896" style="fill:none;stroke-linecap:round;stroke-linejoin:round;stroke-width:.75591;stroke:#7d7d7d"/>
   </g>
  </g>
  <g transform="matrix(.2917 0 0 .28875 124.02 232.5)" style="fill:#1f638a;stroke-linecap:round;stroke-linejoin:round;stroke-width:1.2209;stroke:#1f638a">
   <path d="m207.49 126.25 34.17 21.614-34.17 21.614z" style="fill:#1f638a;stroke-linecap:round;stroke-linejoin:round;stroke-width:1.3023;stroke:#1f638a"/>
   <rect x="172.19" y="137.99" width="39.213" height="19.761" style="fill:#1f638a;stroke-linecap:round;stroke-linejoin:round;stroke-width:1.3023;stroke:#1f638a"/>
  </g>
  <g transform="matrix(.2917 0 0 -.28875 288.77 317.89)" style="fill:#1f638a;stroke-linecap:round;stroke-linejoin:round;stroke-width:1.2209;stroke:#1f638a">
   <path d="m207.49 126.25 34.17 21.614-34.17 21.614z" style="fill:#1f638a;stroke-linecap:round;stroke-linejoin:round;stroke-width:1.3023;stroke:#1f638a"/>
   <rect x="172.19" y="137.99" width="39.213" height="19.761" style="fill:#1f638a;stroke-linecap:round;stroke-linejoin:round;stroke-width:1.3023;stroke:#1f638a"/>
  </g>
  <g transform="matrix(.2917 0 0 .28875 450.95 232.5)" style="fill:#1f638a;stroke-linecap:round;stroke-linejoin:round;stroke-width:1.2209;stroke:#1f638a">
   <path d="m207.49 126.25 34.17 21.614-34.17 21.614z" style="fill:#1f638a;stroke-linecap:round;stroke-linejoin:round;stroke-width:1.3023;stroke:#1f638a"/>
   <rect x="172.19" y="137.99" width="39.213" height="19.761" style="fill:#1f638a;stroke-linecap:round;stroke-linejoin:round;stroke-width:1.3023;stroke:#1f638a"/>
  </g>
  <path d="m476.16 358.9 6.2254-5.147 6.9023 14.13 6.2932-3.0742-6.9023-14.13 7.4286-1.523-19.542-14.716z" style="fill:#fff;stroke-linecap:round;stroke-linejoin:round;stroke-width:.75591;stroke:#000"/>
  <path d="m64.291 362.74 6.2254-5.147 6.9023 14.13 6.2932-3.0742-6.9023-14.13 7.4286-1.523-19.542-14.716z" style="fill:#fff;stroke-linecap:round;stroke-linejoin:round;stroke-width:.75591;stroke:#000"/>
  <g transform="translate(518.47 491.63)">
   <ellipse cx="-6.7302" cy="-136.63" rx="13.199" ry="13.469" style="fill:#1f638a;stroke-linecap:round;stroke-linejoin:round;stroke-width:1.0658"/>
   <g transform="translate(-.59158)">
    <text x="-17.677544" y="-128.95427" style="fill:#000000;font-family:'Arial Nova', 'Arial Unicode MS', 'Yu Gothic UI', sans-serif;font-size:12.8px;letter-spacing:0px;line-height:0%;stroke-width:1.0667;word-spacing:0px" xml:space="preserve"><tspan x="-17.677544" y="-128.95427" style="fill:#ffffff;font-family:'Arial Nova', 'Arial Unicode MS', 'Yu Gothic UI', sans-serif;font-size:21.333px;line-height:1.25;stroke-width:1.0667;stroke:#ffffff">1</tspan></text>
    <text x="-8.6634274" y="-128.95427" style="fill:#000000;font-family:'Arial Nova', 'Arial Unicode MS', 'Yu Gothic UI', sans-serif;font-size:12.8px;letter-spacing:0px;line-height:0%;stroke-width:1.0667;word-spacing:0px" xml:space="preserve"><tspan x="-8.6634274" y="-128.95427" style="fill:#ffffff;font-family:'Arial Nova', 'Arial Unicode MS', 'Yu Gothic UI', sans-serif;font-size:21.333px;line-height:1.25;stroke-width:1.0667;stroke:#ffffff">2</tspan></text>
   </g>
  </g>
 </g>
</svg>
