<?xml version="1.0" encoding="UTF-8"?>
<svg width="18cm" height="4.5cm" version="1.1" xmlns="http://www.w3.org/2000/svg" xmlns:osb="http://www.openswatchbook.org/uri/2009/osb">
 <g transform="translate(0 -283.46)">
  <path d="m467.44 304.03a1.89 1.89 0 0 0-1.7 1.8667v98.667a1.89 1.89 0 0 0 1.9 1.9h143.47a1.89 1.89 0 0 0 1.9-1.9v-98.667a1.89 1.89 0 0 0-1.9-1.8667h-143.47a1.89 1.89 0 0 0-0.2 0zm2.1 3.7667h139.67v94.9h-139.67z" style="color:#000000;fill:#ffd5d5;stroke-dasharray:0.75590551, 1.51181102;stroke-linecap:round;stroke-linejoin:round;stroke-width:.75591;stroke:#f00;text-decoration-line:none;text-indent:0;text-transform:none"/>
  <ellipse transform="rotate(-2)" cx="526.64" cy="373.85" rx="4.0406" ry="3.7795" style="fill:#f00;stroke-linecap:round;stroke-linejoin:round;stroke-width:3.7837;stroke:#f00"/>
  <path d="m95.801 304.26a1.89 1.89 0 0 0-1.7 1.8667v98.667a1.89 1.89 0 0 0 1.9 1.9h143.47a1.89 1.89 0 0 0 1.9-1.9v-98.667a1.89 1.89 0 0 0-1.9-1.8667h-143.47a1.89 1.89 0 0 0-0.2 0zm2.1 3.7667h139.67v94.9h-139.67z" style="color:#000000;fill:#ffd5d5;stroke-dasharray:0.75590551, 1.51181102;stroke-linecap:round;stroke-linejoin:round;stroke-width:.75591;stroke:#f00;text-decoration-line:none;text-indent:0;text-transform:none"/>
  <ellipse transform="rotate(-2)" cx="85.194" cy="309" rx="4.0406" ry="3.7795" style="fill:#f00;stroke-linecap:round;stroke-linejoin:round;stroke-width:3.7837;stroke:#f00"/>
  <ellipse transform="rotate(-2)" cx="225.17" cy="412.88" rx="4.0406" ry="3.7795" style="fill:#f00;stroke-linecap:round;stroke-linejoin:round;stroke-width:3.7837;stroke:#f00"/>
  <path d="m467.54 431.26 12.571-4.1905v8.7619z" style="stroke-linecap:round;stroke-linejoin:round;stroke-width:1.0658;stroke:#000"/>
  <path d="m467.78 431.45h135.04" style="stroke-linecap:round;stroke-linejoin:round;stroke-width:.94488;stroke:#000"/>
  <path d="m611.52 431.26-12.571-4.1905v8.7619z" style="stroke-linecap:round;stroke-linejoin:round;stroke-width:1.0658;stroke:#000"/>
  <path d="m466.63 408.02v27.997" style="stroke-linecap:round;stroke-linejoin:round;stroke-width:.75591;stroke:#000"/>
  <path d="m612.42 408.01v27.997" style="stroke-linecap:round;stroke-linejoin:round;stroke-width:.75591;stroke:#000"/>
  <path d="m440.45 405.19-4.1905-12.571h8.7619z" style="stroke-linecap:round;stroke-linejoin:round;stroke-width:1.0658;stroke:#000"/>
  <path d="m440.64 405.14v-93.069" style="stroke-linecap:round;stroke-linejoin:round;stroke-width:.94488;stroke:#000"/>
  <path d="m440.45 305.2-4.1905 12.571h8.7619z" style="stroke-linecap:round;stroke-linejoin:round;stroke-width:1.0658;stroke:#000"/>
  <path d="m436.12 406.1h27.997" style="stroke-linecap:round;stroke-linejoin:round;stroke-width:.75591;stroke:#000"/>
  <path d="m436.11 304.31h27.997" style="stroke-linecap:round;stroke-linejoin:round;stroke-width:.75591;stroke:#000"/>
  <g transform="translate(84 450.01)">
   <ellipse cx="-44.92" cy="-98.798" rx="13.199" ry="13.469" style="fill:#1f638a;stroke-linecap:round;stroke-linejoin:round;stroke-width:1.0658"/>
   <text x="-50.761276" y="-91.125885" style="fill:#000000;font-family:'Arial Unicode MS';font-size:12.8px;font-weight:bold;letter-spacing:0px;line-height:0%;stroke-width:1.0667;word-spacing:0px" xml:space="preserve"><tspan x="-50.761276" y="-91.125885" style="fill:#ffffff;font-family:'Arial Nova', 'Arial Unicode MS', 'Yu Gothic UI', sans-serif;font-size:21.333px;font-weight:bold;line-height:1.25;stroke-width:1.0667;stroke:#ffffff">1</tspan></text>
  </g>
  <g transform="translate(401.08 450.01)">
   <ellipse cx="-13.718" cy="-98.798" rx="13.199" ry="13.469" style="fill:#1f638a;stroke-linecap:round;stroke-linejoin:round;stroke-width:1.0658"/>
   <text x="-19.559933" y="-91.125885" style="fill:#000000;font-family:'Arial Unicode MS';font-size:12.8px;font-weight:bold;letter-spacing:0px;line-height:0%;stroke-width:1.0667;word-spacing:0px" xml:space="preserve"><tspan x="-19.559933" y="-91.125885" style="fill:#ffffff;font-family:'Arial Nova', 'Arial Unicode MS', 'Yu Gothic UI', sans-serif;font-size:21.333px;font-weight:bold;line-height:1.25;stroke-width:1.0667;stroke:#ffffff">2</tspan></text>
  </g>
  <text x="427.60461" y="355.79941" style="fill:#000000;font-family:'Arial Nova', 'Arial Unicode MS', 'Yu Gothic UI', sans-serif;font-size:12.8px;font-weight:bold;letter-spacing:0px;line-height:0%;stroke-width:1.0667;stroke:#000000;word-spacing:0px" xml:space="preserve"><tspan x="427.60461" y="355.79941" style="font-family:'Arial Nova', 'Arial Unicode MS', 'Yu Gothic UI', sans-serif;font-size:10.667px;font-weight:bold;line-height:1.25;stroke-width:1.0667;stroke:#000000">Y</tspan></text>
  <text x="540.73291" y="425.79559" style="fill:#000000;font-family:'Arial Nova', 'Arial Unicode MS', 'Yu Gothic UI', sans-serif;font-size:12.8px;font-weight:bold;letter-spacing:0px;line-height:0%;stroke-width:1.0667;stroke:#000000;word-spacing:0px" xml:space="preserve"><tspan x="540.73291" y="425.79559" style="fill:#000000;font-family:'Arial Nova', 'Arial Unicode MS', 'Yu Gothic UI', sans-serif;font-size:10.667px;font-weight:bold;line-height:1.25;stroke-width:1.0667;stroke:#000000">X</tspan></text>
 </g>
</svg>
