<?xml version="1.0" encoding="UTF-8"?>
<svg width="18cm" height="8.5cm" version="1.1" xmlns="http://www.w3.org/2000/svg" xmlns:osb="http://www.openswatchbook.org/uri/2009/osb" xmlns:xlink="http://www.w3.org/1999/xlink">
 <defs>
  <linearGradient id="linearGradient12885-8-3-2-1">
   <stop style="stop-color:#fff" offset="0"/>
   <stop style="stop-color:#4fa68a" offset="1"/>
  </linearGradient>
  <linearGradient id="linearGradient39523" x1="445.88" x2="574.22" y1="196.97" y2="196.97" gradientTransform="matrix(1.0667 0 0 1.0667 17.823 -10.939)" gradientUnits="userSpaceOnUse" xlink:href="#linearGradient12885-8-3-2-1"/>
  <linearGradient id="linearGradient39525" x1="453.71" x2="488.52" y1="192.37" y2="255.36" gradientTransform="matrix(1.0667 0 0 1.0667 17.823 -10.939)" gradientUnits="userSpaceOnUse" xlink:href="#linearGradient12885-8-3-2-1"/>
  <linearGradient id="linearGradient39527" x1="498.96" x2="576.51" y1="170.3" y2="260.85" gradientTransform="matrix(1.0667 0 0 1.0667 17.823 -10.939)" gradientUnits="userSpaceOnUse" xlink:href="#linearGradient12885-8-3-2-1"/>
  <linearGradient id="linearGradient39571" x1="425.7" x2="693.36" y1="248.87" y2="248.87" gradientTransform="matrix(1.0667 0 0 1.0667 291.81 -208.18)" gradientUnits="userSpaceOnUse" xlink:href="#linearGradient12885-8-3-2-1"/>
  <linearGradient id="linearGradient39585" x1="425.7" x2="693.36" y1="248.87" y2="248.87" gradientTransform="matrix(1.8244 0 0 1.8244 -246.36 -478.63)" gradientUnits="userSpaceOnUse" xlink:href="#linearGradient12885-8-3-2-1"/>
  <linearGradient id="linearGradient39587" x1="425.7" x2="693.36" y1="248.87" y2="248.87" gradientTransform="matrix(1.0667 0 0 1.0667 291.81 -208.18)" gradientUnits="userSpaceOnUse">
   <stop style="stop-color:#fff" offset="0"/>
   <stop style="stop-color:#4fa68a" offset="1"/>
  </linearGradient>
  <linearGradient id="linearGradient39589" x1="353.27" x2="620.93" y1="314.37" y2="314.37" gradientTransform="scale(1.0667)" gradientUnits="userSpaceOnUse" xlink:href="#linearGradient12885-8-3-2-1"/>
  <linearGradient id="linearGradient39595" x1="353.27" x2="620.93" y1="314.37" y2="314.37" gradientTransform="matrix(1.0667 0 0 1.0667 0 -1.7292e-6)" gradientUnits="userSpaceOnUse" xlink:href="#linearGradient12885-8-3-2-1"/>
  <linearGradient id="linearGradient39599" x1="353.27" x2="620.93" y1="314.37" y2="314.37" gradientUnits="userSpaceOnUse" xlink:href="#linearGradient12885-8-3-2-1"/>
  <linearGradient id="linearGradient39601" x1="445.88" x2="574.22" y1="196.97" y2="196.97" gradientTransform="matrix(.74489 0 0 .74489 -224.34 -514.75)" gradientUnits="userSpaceOnUse" xlink:href="#linearGradient12885-8-3-2-1"/>
  <linearGradient id="linearGradient39603" x1="453.71" x2="488.52" y1="192.37" y2="255.36" gradientTransform="matrix(.74489 0 0 .74489 -224.34 -514.75)" gradientUnits="userSpaceOnUse" xlink:href="#linearGradient12885-8-3-2-1"/>
  <linearGradient id="linearGradient39605" x1="498.96" x2="576.51" y1="170.3" y2="260.85" gradientTransform="matrix(.74489 0 0 .74489 -174.19 -486.64)" gradientUnits="userSpaceOnUse">
   <stop style="stop-color:#fff" offset="0"/>
   <stop style="stop-color:#4fa68a" offset="1"/>
  </linearGradient>
  <linearGradient id="linearGradient39607" x1="353.27" x2="620.93" y1="314.37" y2="314.37" gradientTransform="matrix(1.0667 0 0 1.0667 -452.13 -741.31)" gradientUnits="userSpaceOnUse" xlink:href="#linearGradient12885-8-3-2-1"/>
  <linearGradient id="linearGradient39617" x1="445.88" x2="574.22" y1="196.97" y2="196.97" gradientTransform="matrix(.74489 0 0 .74489 -402.87 -541.8)" gradientUnits="userSpaceOnUse" xlink:href="#linearGradient12885-8-3-2-1"/>
  <linearGradient id="linearGradient39619" x1="453.71" x2="488.52" y1="192.37" y2="255.36" gradientTransform="matrix(.74489 0 0 .74489 -402.87 -541.8)" gradientUnits="userSpaceOnUse" xlink:href="#linearGradient12885-8-3-2-1"/>
  <linearGradient id="linearGradient39621" x1="498.96" x2="576.51" y1="170.3" y2="260.85" gradientTransform="matrix(.74489 0 0 .74489 -352.71 -513.69)" gradientUnits="userSpaceOnUse">
   <stop style="stop-color:#fff" offset="0"/>
   <stop style="stop-color:#4fa68a" offset="1"/>
  </linearGradient>
  <linearGradient id="linearGradient39629" x1="353.27" x2="620.93" y1="314.37" y2="314.37" gradientTransform="matrix(1.0667 0 0 1.0667 0 -1.7292e-6)" gradientUnits="userSpaceOnUse" xlink:href="#linearGradient12885-8-3-2-1"/>
  <linearGradient id="linearGradient39635" x1="425.7" x2="693.36" y1="248.87" y2="248.87" gradientTransform="matrix(1.0667 0 0 1.0667 -179.88 -645.49)" gradientUnits="userSpaceOnUse" xlink:href="#linearGradient12885-8-3-2-1"/>
  <linearGradient id="linearGradient39651" x1="352.29" x2="554.23" y1="264.04" y2="264.04" gradientTransform="scale(1.0667)" gradientUnits="userSpaceOnUse" xlink:href="#linearGradient12885-8-3-2-1"/>
  <linearGradient id="linearGradient39663" x1="352.29" x2="554.23" y1="264.04" y2="264.04" gradientUnits="userSpaceOnUse" xlink:href="#linearGradient12885-8-3-2-1"/>
  <linearGradient id="linearGradient39665" x1="443.13" x2="619.95" y1="307.9" y2="307.9" gradientTransform="scale(1.0667)" gradientUnits="userSpaceOnUse" xlink:href="#linearGradient12885-8-3-2-1"/>
  <linearGradient id="linearGradient39675" x1="443.13" x2="619.95" y1="307.9" y2="307.9" gradientUnits="userSpaceOnUse" xlink:href="#linearGradient12885-8-3-2-1"/>
  <linearGradient id="linearGradient39679" x1="453.71" x2="488.52" y1="192.37" y2="255.36" gradientTransform="matrix(.74489 0 0 .74489 66.714 189.3)" gradientUnits="userSpaceOnUse" xlink:href="#linearGradient12885-8-3-2-1"/>
  <linearGradient id="linearGradient39681" x1="498.96" x2="576.51" y1="170.3" y2="260.85" gradientTransform="matrix(.74489 0 0 .74489 116.87 217.42)" gradientUnits="userSpaceOnUse">
   <stop style="stop-color:#fff" offset="0"/>
   <stop style="stop-color:#4fa68a" offset="1"/>
  </linearGradient>
  <linearGradient id="linearGradient39683" x1="445.88" x2="574.22" y1="196.97" y2="196.97" gradientTransform="matrix(.74489 0 0 .74489 66.714 189.3)" gradientUnits="userSpaceOnUse" xlink:href="#linearGradient12885-8-3-2-1"/>
 </defs>
 <g transform="translate(0 -132.28)">
  <g transform="matrix(.46329 0 0 .46329 183.12 174.54)">
   <path d="m888.95 11.058 47.419 26.979v38.685l-47.344-27.354z" style="fill:url(#linearGradient39571);stroke-linecap:round;stroke-linejoin:round;stroke-width:4.079;stroke:#67977f"/>
   <path d="m841.58 37.882v38.447l46.997-27.321v-37.918z" style="fill:url(#linearGradient39571);stroke-linecap:round;stroke-linejoin:round;stroke-width:4.079;stroke:#67977f"/>
   <path d="m797.79 41.482 96.012 55.04-0.16096 38.147-96.173-55.04z" style="color:#000000;fill-rule:evenodd;fill:url(#linearGradient39571);stroke-dashoffset:1.5856;stroke-linecap:round;stroke-linejoin:round;stroke-width:4.079;stroke:#67977f"/>
   <path d="m747.17 38.037 28.433 15.928-0.16096 38.147-28.594-15.928z" style="color:#000000;fill-rule:evenodd;fill:url(#linearGradient39571);stroke-dashoffset:1.5856;stroke-linecap:round;stroke-linejoin:round;stroke-width:4.079;stroke:#67977f"/>
   <path d="m888.38-43.38-141.33 81.033 28.384 16.304 22.738-12.72 96.274 55.404-22.351 12.838 17.655 10.141 140.7-81.267zm0.3 54.5 47.2 27.033-46.833 26.967-47.433-27.133z" style="color:#000000;fill:url(#linearGradient39571);stroke-dashoffset:1.5856;stroke-linecap:round;stroke-linejoin:round;stroke-width:4.079;stroke:#67977f"/>
   <path d="m872.16 109.61 17.454 9.875-0.16096 38.147-17.615-9.875z" style="color:#000000;fill-rule:evenodd;fill:url(#linearGradient39571);stroke-dashoffset:1.5856;stroke-linecap:round;stroke-linejoin:round;stroke-width:4.079;stroke:#67977f"/>
   <path d="m775.49 53.827 22.695-12.394-0.48287 37.664-22.373 13.038z" style="color:#000000;fill:url(#linearGradient39571);stroke-dashoffset:1.5856;stroke-linecap:round;stroke-linejoin:round;stroke-width:4.079;stroke:#67977f"/>
   <path d="m1017-56.693-241.98 139.02 0.27528 86.578 89.735-51.569-19.626-12.243-0.33813-37.147 24.621-14.449 19.195 11.647 27.318-16.092-0.93293-23.391 45.122-27.179 56.339 31.675z" style="color:#000000;fill-rule:evenodd;fill:url(#linearGradient39585);stroke-dashoffset:1.5856;stroke-linecap:round;stroke-linejoin:round;stroke-width:4.079;stroke:#67977f"/>
   <path d="m1030.5 38.52-141.48 81.284 0.16096 38.147 141.16-81.123z" style="color:#000000;fill-rule:evenodd;fill:url(#linearGradient39587);stroke-dashoffset:1.5856;stroke-linecap:round;stroke-linejoin:round;stroke-width:4.079;stroke:#67977f"/>
  </g>
  <g transform="matrix(.46329 0 0 .46329 354.15 204.22)">
   <g style="fill:url(#linearGradient39663)">
    <path d="m518.83 261.45 26.007 14.796 0.28205 38.658-26.214-15.146z" style="fill:url(#linearGradient39651);stroke-linecap:round;stroke-linejoin:round;stroke-width:4.079;stroke:#67977f"/>
    <path d="m471.45 288.27v38.447l46.997-27.321v-37.918z" style="fill:url(#linearGradient39651);stroke-linecap:round;stroke-linejoin:round;stroke-width:4.079;stroke:#67977f"/>
    <path d="m377.05 288.43 28.433 15.928-0.16096 38.147-28.594-15.928z" style="color:#000000;fill-rule:evenodd;fill:url(#linearGradient39651);stroke-dashoffset:1.5856;stroke-linecap:round;stroke-linejoin:round;stroke-width:4.079;stroke:#67977f"/>
    <path d="m405.37 304.22 22.695-12.394-0.48287 37.664-22.373 13.038z" style="color:#000000;fill:url(#linearGradient39651);stroke-dashoffset:1.5856;stroke-linecap:round;stroke-linejoin:round;stroke-width:4.079;stroke:#67977f"/>
    <path d="m498.62 303.73-27.268-15.598 47.067-26.867 25.749 14.747 46.074-27.754-72.122-41.493-141.33 81.033 28.384 16.304 22.738-12.72 45.683 26.29z" style="color:#000000;fill:url(#linearGradient39651);stroke-dashoffset:1.5856;stroke-linecap:round;stroke-linejoin:round;stroke-width:4.079;stroke:#67977f"/>
    <path d="m427.67 291.88 45.941 26.336 0.0468 38.314-46.31-26.503z" style="color:#000000;fill-rule:evenodd;fill:url(#linearGradient39651);stroke-dashoffset:1.5856;stroke-linecap:round;stroke-linejoin:round;stroke-width:4.079;stroke:#67977f"/>
   </g>
   <g style="fill:url(#linearGradient39675)">
    <path d="m473.61 318.21 50.071 28.704-0.16096 38.147-49.863-28.537z" style="color:#000000;fill-rule:evenodd;fill:url(#linearGradient39665);stroke-dashoffset:1.5856;stroke-linecap:round;stroke-linejoin:round;stroke-width:4.079;stroke:#67977f"/>
    <g style="fill:url(#linearGradient39675)">
     <path d="m544.83 276.25 21.412 12.182v38.685l-21.13-12.209z" style="fill:url(#linearGradient39665);stroke-linecap:round;stroke-linejoin:round;stroke-width:4.079;stroke:#67977f"/>
     <path d="m473.73 317.92 50.591 29.114-22.351 12.838 17.655 10.141 140.7-81.267-69.944-40.24-46.074 27.754 21.451 12.286-46.833 26.967-20.165-11.535z" style="color:#000000;fill:url(#linearGradient39665);stroke-dashoffset:1.5856;stroke-linecap:round;stroke-linejoin:round;stroke-width:4.079;stroke:#67977f"/>
     <path d="m502.04 360 17.454 9.875-0.16096 38.147-17.615-9.875z" style="color:#000000;fill-rule:evenodd;fill:url(#linearGradient39665);stroke-dashoffset:1.5856;stroke-linecap:round;stroke-linejoin:round;stroke-width:4.079;stroke:#67977f"/>
     <path d="m660.33 288.91-141.48 81.284 0.16096 38.147 141.16-81.123z" style="color:#000000;fill-rule:evenodd;fill:url(#linearGradient39665);stroke-dashoffset:1.5856;stroke-linecap:round;stroke-linejoin:round;stroke-width:4.079;stroke:#67977f"/>
    </g>
   </g>
  </g>
  <g transform="matrix(.46329 0 0 .46329 396.01 388.26)">
   <path d="m67.743-452.21 47.419 26.979v38.685l-47.344-27.354z" style="fill:url(#linearGradient39607);stroke-linecap:round;stroke-linejoin:round;stroke-width:4.079;stroke:#67977f"/>
   <path d="m20.372-425.38v38.447l46.997-27.321v-37.918z" style="fill:url(#linearGradient39607);stroke-linecap:round;stroke-linejoin:round;stroke-width:4.079;stroke:#67977f"/>
   <path d="m67.177-506.64-141.33 81.033 142.7 81.967 140.7-81.267zm0.3 54.5 47.2 27.033-46.833 26.967-47.433-27.133z" style="color:#000000;fill:url(#linearGradient39607);stroke-dashoffset:1.5856;stroke-linecap:round;stroke-linejoin:round;stroke-width:4.079;stroke:#67977f"/>
   <path d="m-74.037-425.23 142.45 81.445-0.16096 38.147-142.61-81.445z" style="color:#000000;fill-rule:evenodd;fill:url(#linearGradient39607);stroke-dashoffset:1.5856;stroke-linecap:round;stroke-linejoin:round;stroke-width:4.079;stroke:#67977f"/>
   <path d="m209.25-424.74-141.48 81.284 0.16096 38.147 141.16-81.123z" style="color:#000000;fill-rule:evenodd;fill:url(#linearGradient39607);stroke-dashoffset:1.5856;stroke-linecap:round;stroke-linejoin:round;stroke-width:4.079;stroke:#67977f"/>
   <path d="m-70.074-395.2 47.084-26.892 96.589 55.507-46.818 26.965z" style="fill:url(#linearGradient39617);stroke-linecap:round;stroke-linejoin:round;stroke-width:4.079;stroke:#67977f"/>
   <path d="m-70.109-395.17 97.042 55.205v38.685l-96.967-55.58z" style="fill:url(#linearGradient39619);stroke-linecap:round;stroke-linejoin:round;stroke-width:4.079;stroke:#67977f"/>
   <path d="m27.434-339.87v38.447l23.499-13.661v-38.183z" style="fill:url(#linearGradient39621);stroke-linecap:round;stroke-linejoin:round;stroke-width:4.079;stroke:#67977f"/>
  </g>
  <g transform="matrix(.46329 0 0 .46329 234.26 522.71)">
   <path d="m417.25-426.26 47.419 26.979v38.685l-47.344-27.354z" style="fill:url(#linearGradient39635);stroke-linecap:round;stroke-linejoin:round;stroke-width:4.079;stroke:#67977f"/>
   <path d="m369.88-399.43v38.447l46.997-27.321v-37.918z" style="fill:url(#linearGradient39635);stroke-linecap:round;stroke-linejoin:round;stroke-width:4.079;stroke:#67977f"/>
   <path d="m326.09-395.83 96.012 55.04-0.16096 38.147-96.173-55.04z" style="color:#000000;fill-rule:evenodd;fill:url(#linearGradient39635);stroke-dashoffset:1.5856;stroke-linecap:round;stroke-linejoin:round;stroke-width:4.079;stroke:#67977f"/>
   <path d="m275.47-399.28 28.433 15.928-0.16096 38.147-28.594-15.928z" style="color:#000000;fill-rule:evenodd;fill:url(#linearGradient39635);stroke-dashoffset:1.5856;stroke-linecap:round;stroke-linejoin:round;stroke-width:4.079;stroke:#67977f"/>
   <path d="m558.76-398.79-141.48 81.284 0.16096 38.147 141.16-81.123z" style="color:#000000;fill-rule:evenodd;fill:url(#linearGradient39635);stroke-dashoffset:1.5856;stroke-linecap:round;stroke-linejoin:round;stroke-width:4.079;stroke:#67977f"/>
   <path d="m416.68-480.69-141.33 81.033 28.384 16.304 22.738-12.72 96.274 55.404-22.351 12.838 17.655 10.141 140.7-81.267zm0.3 54.5 47.2 27.033-46.833 26.967-47.433-27.133z" style="color:#000000;fill:url(#linearGradient39635);stroke-dashoffset:1.5856;stroke-linecap:round;stroke-linejoin:round;stroke-width:4.079;stroke:#67977f"/>
   <path d="m400.46-327.71 17.454 9.875-0.16096 38.147-17.615-9.875z" style="color:#000000;fill-rule:evenodd;fill:url(#linearGradient39635);stroke-dashoffset:1.5856;stroke-linecap:round;stroke-linejoin:round;stroke-width:4.079;stroke:#67977f"/>
   <path d="m303.8-383.49 22.695-12.394-0.48287 37.664-22.373 13.038z" style="color:#000000;fill:url(#linearGradient39635);stroke-dashoffset:1.5856;stroke-linecap:round;stroke-linejoin:round;stroke-width:4.079;stroke:#67977f"/>
   <path d="m302.39-344.87-24.075 14.23 96.966 55.113 23.96-13.712" style="color:#000000;fill:none;stroke-dasharray:0.81579955, 1.63159903;stroke-linecap:round;stroke-linejoin:round;stroke-width:.8158;stroke:#000"/>
   <path d="m278.31-369.02v38.413" style="color:#000000;fill-rule:evenodd;fill:#f00;stroke-dasharray:0.81579955, 1.63159903;stroke-linecap:round;stroke-linejoin:round;stroke-width:.8158;stroke:#000"/>
   <path d="m375.27-313.85v38.413" style="color:#000000;fill-rule:evenodd;fill:#f00;stroke-dasharray:0.81579955, 1.63159903;stroke-linecap:round;stroke-linejoin:round;stroke-width:.8158;stroke:#000"/>
   <path d="m302.39-383.27-24.075 14.23 96.966 55.113 23.96-13.712" style="color:#000000;fill:none;stroke-dasharray:0.81579955, 1.63159903;stroke-linecap:round;stroke-linejoin:round;stroke-width:.8158;stroke:#000"/>
  </g>
  <g transform="matrix(.46329 0 0 .46329 145.74 375.73)">
   <g transform="translate(-273.6 -714.26)" style="fill:url(#linearGradient39599)">
    <path d="m519.87 289.11 47.419 26.979v38.685l-47.344-27.354z" style="fill:url(#linearGradient39589);stroke-linecap:round;stroke-linejoin:round;stroke-width:4.079;stroke:#67977f"/>
    <path d="m472.5 315.93v38.447l46.997-27.321v-37.918z" style="fill:url(#linearGradient39589);stroke-linecap:round;stroke-linejoin:round;stroke-width:4.079;stroke:#67977f"/>
    <path d="m519.31 234.67-141.33 81.033 142.7 81.967 140.7-81.267zm0.3 54.5 47.2 27.033-46.833 26.967-47.433-27.133z" style="color:#000000;fill:url(#linearGradient39589);stroke-dashoffset:1.5856;stroke-linecap:round;stroke-linejoin:round;stroke-width:4.079;stroke:#67977f"/>
    <path d="m378.09 316.08 142.45 81.445-0.16096 38.147-142.61-81.445z" style="color:#000000;fill-rule:evenodd;fill:url(#linearGradient39595);stroke-dashoffset:1.5856;stroke-linecap:round;stroke-linejoin:round;stroke-width:4.079;stroke:#67977f"/>
    <path d="m661.38 316.57-141.48 81.284 0.16096 38.147 141.16-81.123z" style="color:#000000;fill-rule:evenodd;fill:url(#linearGradient39589);stroke-dashoffset:1.5856;stroke-linecap:round;stroke-linejoin:round;stroke-width:4.079;stroke:#67977f"/>
   </g>
   <path d="m108.45-368.15 47.084-26.892 96.589 55.507-46.818 26.965z" style="fill:url(#linearGradient39601);stroke-linecap:round;stroke-linejoin:round;stroke-width:4.079;stroke:#67977f"/>
   <path d="m108.42-368.12 97.042 55.205v38.685l-96.967-55.58z" style="fill:url(#linearGradient39603);stroke-linecap:round;stroke-linejoin:round;stroke-width:4.079;stroke:#67977f"/>
   <path d="m205.96-312.82v38.447l23.499-13.661v-38.183z" style="fill:url(#linearGradient39605);stroke-linecap:round;stroke-linejoin:round;stroke-width:4.079;stroke:#67977f"/>
  </g>
  <g transform="matrix(.46329 0 0 .46329 -16.892 521.4)">
   <g transform="translate(83.319 -679.05)">
    <path d="m514.27 308.32v38.413" style="color:#000000;fill-rule:evenodd;fill:#f00;stroke-dasharray:0.81579955, 1.63159903;stroke-linecap:round;stroke-linejoin:round;stroke-width:.8158;stroke:#000"/>
    <path d="m466.89 281.23v38.413" style="color:#000000;fill-rule:evenodd;fill:#f00;stroke-dasharray:0.81579955, 1.63159903;stroke-linecap:round;stroke-linejoin:round;stroke-width:.8158;stroke:#000"/>
    <path d="m513.51 237.96-141.33 81.033 28.406 16.316-24.075 14.23 96.966 55.113 23.96-13.712 17.443 10.019 140.7-81.267zm0.3 54.5 47.2 27.033-46.833 26.967-47.433-27.133z" style="color:#000000;fill:none;stroke-dasharray:0.81579955, 1.63159903;stroke-linecap:round;stroke-linejoin:round;stroke-width:.8158;stroke:#000"/>
    <g transform="translate(1.3977 -39.126)">
     <path d="m399.47 335.93 97.042 55.205v38.685l-96.967-55.58z" style="fill:url(#linearGradient39679);stroke-linecap:round;stroke-linejoin:round;stroke-width:4.079;stroke:#67977f"/>
     <path d="m497.02 391.23v38.447l23.499-13.661v-38.183z" style="fill:url(#linearGradient39681);stroke-linecap:round;stroke-linejoin:round;stroke-width:4.079;stroke:#67977f"/>
     <path d="m399.51 335.91 24.435-13.69 96.589 55.507-24.055 13.535z" style="fill:url(#linearGradient39683);stroke-linecap:round;stroke-linejoin:round;stroke-width:4.079;stroke:#67977f"/>
    </g>
    <path d="m513.51 199.56-141.33 81.033 28.406 16.316-24.075 14.23 96.966 55.113 23.96-13.712 17.443 10.019 140.7-81.267zm0.3 54.5 47.2 27.033-46.833 26.967-47.433-27.133z" style="color:#000000;fill:none;stroke-dasharray:0.81579955, 1.63159903;stroke-linecap:round;stroke-linejoin:round;stroke-width:.8158;stroke:#000"/>
    <path d="m376.5 311.16v38.413" style="color:#000000;fill-rule:evenodd;fill:#f00;stroke-dasharray:0.81579955, 1.63159903;stroke-linecap:round;stroke-linejoin:round;stroke-width:.8158;stroke:#000"/>
    <path d="m372.22 280.7v38.413" style="color:#000000;fill-rule:evenodd;fill:#f00;stroke-dasharray:0.81579955, 1.63159903;stroke-linecap:round;stroke-linejoin:round;stroke-width:.8158;stroke:#000"/>
    <path d="m513.78 254.45v38.413" style="color:#000000;fill-rule:evenodd;fill:#f00;stroke-dasharray:0.81579955, 1.63159903;stroke-linecap:round;stroke-linejoin:round;stroke-width:.8158;stroke:#000"/>
    <path d="m560.88 281.61v38.413" style="color:#000000;fill-rule:evenodd;fill:#f00;stroke-dasharray:0.81579955, 1.63159903;stroke-linecap:round;stroke-linejoin:round;stroke-width:.8158;stroke:#000"/>
    <path d="m514.91 362.71v38.413" style="color:#000000;fill-rule:evenodd;fill:#f00;stroke-dasharray:0.81579955, 1.63159903;stroke-linecap:round;stroke-linejoin:round;stroke-width:.8158;stroke:#000"/>
    <path d="m473.46 366.33v38.413" style="color:#000000;fill-rule:evenodd;fill:#f00;stroke-dasharray:0.81579955, 1.63159903;stroke-linecap:round;stroke-linejoin:round;stroke-width:.8158;stroke:#000"/>
    <path d="m655.5 281.59v38.413" style="color:#000000;fill-rule:evenodd;fill:#f00;stroke-dasharray:0.81579955, 1.63159903;stroke-linecap:round;stroke-linejoin:round;stroke-width:.8158;stroke:#000"/>
    <path d="m513.51 199.88v38.413" style="color:#000000;fill-rule:evenodd;fill:#f00;stroke-dasharray:0.81579955, 1.63159903;stroke-linecap:round;stroke-linejoin:round;stroke-width:.8158;stroke:#000"/>
   </g>
  </g>
  <g transform="matrix(.46329 0 0 .46329 20.072 360.79)">
   <g transform="matrix(.69834 0 0 .69834 -236.87 -559.42)">
    <path d="m494.37 198.99 67.423-38.509 67.58 38.74-67.041 38.613z" style="fill:url(#linearGradient39523);stroke-linecap:round;stroke-linejoin:round;stroke-width:5.841;stroke:#67977f"/>
    <path d="m494.33 199.03 67.903 38.633v55.396l-67.795-39.171z" style="fill:url(#linearGradient39525);stroke-linecap:round;stroke-linejoin:round;stroke-width:5.841;stroke:#67977f"/>
    <path d="m562.19 237.96v55.055l67.299-39.123v-54.298z" style="fill:url(#linearGradient39527);stroke-linecap:round;stroke-linejoin:round;stroke-width:5.841;stroke:#67977f"/>
   </g>
   <g transform="matrix(.69834 0 0 .69834 -189.4 -532.03)">
    <path d="m494.37 198.99 67.423-38.509 67.58 38.74-67.041 38.613z" style="fill:url(#linearGradient39523);stroke-linecap:round;stroke-linejoin:round;stroke-width:5.841;stroke:#67977f"/>
    <path d="m494.33 199.03 67.903 38.633v55.396l-67.795-39.171z" style="fill:url(#linearGradient39525);stroke-linecap:round;stroke-linejoin:round;stroke-width:5.841;stroke:#67977f"/>
    <path d="m562.19 237.96v55.055l67.299-39.123v-54.298z" style="fill:url(#linearGradient39527);stroke-linecap:round;stroke-linejoin:round;stroke-width:5.841;stroke:#67977f"/>
   </g>
   <g transform="matrix(.69834 0 0 .69834 -142.25 -504.87)">
    <path d="m494.37 198.99 67.423-38.509 67.58 38.74-67.041 38.613z" style="fill:url(#linearGradient39523);stroke-linecap:round;stroke-linejoin:round;stroke-width:5.841;stroke:#67977f"/>
    <path d="m494.33 199.03 67.903 38.633v55.396l-67.795-39.171z" style="fill:url(#linearGradient39525);stroke-linecap:round;stroke-linejoin:round;stroke-width:5.841;stroke:#67977f"/>
    <path d="m562.19 237.96v55.055l67.299-39.123v-54.298z" style="fill:url(#linearGradient39527);stroke-linecap:round;stroke-linejoin:round;stroke-width:5.841;stroke:#67977f"/>
   </g>
   <g transform="matrix(.69834 0 0 .69834 -284.16 -532.39)">
    <path d="m494.37 198.99 67.423-38.509 67.58 38.74-67.041 38.613z" style="fill:url(#linearGradient39523);stroke-linecap:round;stroke-linejoin:round;stroke-width:5.841;stroke:#67977f"/>
    <path d="m494.33 199.03 67.903 38.633v55.396l-67.795-39.171z" style="fill:url(#linearGradient39525);stroke-linecap:round;stroke-linejoin:round;stroke-width:5.841;stroke:#67977f"/>
    <path d="m562.19 237.96v55.055l67.299-39.123v-54.298z" style="fill:url(#linearGradient39527);stroke-linecap:round;stroke-linejoin:round;stroke-width:5.841;stroke:#67977f"/>
   </g>
   <g transform="matrix(.69834 0 0 .69834 -189.1 -478.01)">
    <path d="m494.37 198.99 67.423-38.509 67.58 38.74-67.041 38.613z" style="fill:url(#linearGradient39523);stroke-linecap:round;stroke-linejoin:round;stroke-width:5.841;stroke:#67977f"/>
    <path d="m494.33 199.03 67.903 38.633v55.396l-67.795-39.171z" style="fill:url(#linearGradient39525);stroke-linecap:round;stroke-linejoin:round;stroke-width:5.841;stroke:#67977f"/>
    <path d="m562.19 237.96v55.055l67.299-39.123v-54.298z" style="fill:url(#linearGradient39527);stroke-linecap:round;stroke-linejoin:round;stroke-width:5.841;stroke:#67977f"/>
   </g>
   <g transform="matrix(.69834 0 0 .69834 -331.51 -505.25)">
    <path d="m494.37 198.99 67.423-38.509 67.58 38.74-67.041 38.613z" style="fill:url(#linearGradient39523);stroke-linecap:round;stroke-linejoin:round;stroke-width:5.841;stroke:#67977f"/>
    <path d="m494.33 199.03 67.903 38.633v55.396l-67.795-39.171z" style="fill:url(#linearGradient39525);stroke-linecap:round;stroke-linejoin:round;stroke-width:5.841;stroke:#67977f"/>
    <path d="m562.19 237.96v55.055l67.299-39.123v-54.298z" style="fill:url(#linearGradient39527);stroke-linecap:round;stroke-linejoin:round;stroke-width:5.841;stroke:#67977f"/>
   </g>
   <g transform="matrix(.69834 0 0 .69834 -283.91 -477.86)">
    <path d="m494.37 198.99 67.423-38.509 67.58 38.74-67.041 38.613z" style="fill:url(#linearGradient39523);stroke-linecap:round;stroke-linejoin:round;stroke-width:5.841;stroke:#67977f"/>
    <path d="m494.33 199.03 67.903 38.633v55.396l-67.795-39.171z" style="fill:url(#linearGradient39525);stroke-linecap:round;stroke-linejoin:round;stroke-width:5.841;stroke:#67977f"/>
    <path d="m562.19 237.96v55.055l67.299-39.123v-54.298z" style="fill:url(#linearGradient39527);stroke-linecap:round;stroke-linejoin:round;stroke-width:5.841;stroke:#67977f"/>
   </g>
   <g transform="matrix(.69834 0 0 .69834 -236.15 -450.48)">
    <path d="m494.37 198.99 67.423-38.509 67.58 38.74-67.041 38.613z" style="fill:url(#linearGradient39523);stroke-linecap:round;stroke-linejoin:round;stroke-width:5.841;stroke:#67977f"/>
    <path d="m494.33 199.03 67.903 38.633v55.396l-67.795-39.171z" style="fill:url(#linearGradient39525);stroke-linecap:round;stroke-linejoin:round;stroke-width:5.841;stroke:#67977f"/>
    <path d="m562.19 237.96v55.055l67.299-39.123v-54.298z" style="fill:url(#linearGradient39527);stroke-linecap:round;stroke-linejoin:round;stroke-width:5.841;stroke:#67977f"/>
   </g>
  </g>
  <g transform="matrix(.46329 0 0 .46329 -147.42 191.29)" style="fill:url(#linearGradient39599)">
   <path d="m519.87 289.11 47.419 26.979v38.685l-47.344-27.354z" style="fill:url(#linearGradient39589);stroke-linecap:round;stroke-linejoin:round;stroke-width:4.079;stroke:#67977f"/>
   <path d="m472.5 315.93v38.447l46.997-27.321v-37.918z" style="fill:url(#linearGradient39589);stroke-linecap:round;stroke-linejoin:round;stroke-width:4.079;stroke:#67977f"/>
   <path d="m519.31 234.67-141.33 81.033 142.7 81.967 140.7-81.267zm0.3 54.5 47.2 27.033-46.833 26.967-47.433-27.133z" style="color:#000000;fill:url(#linearGradient39589);stroke-dashoffset:1.5856;stroke-linecap:round;stroke-linejoin:round;stroke-width:4.079;stroke:#67977f"/>
   <path d="m378.09 316.08 142.45 81.445-0.16096 38.147-142.61-81.445z" style="color:#000000;fill-rule:evenodd;fill:url(#linearGradient39629);stroke-dashoffset:1.5856;stroke-linecap:round;stroke-linejoin:round;stroke-width:4.079;stroke:#67977f"/>
   <path d="m661.38 316.57-141.48 81.284 0.16096 38.147 141.16-81.123z" style="color:#000000;fill-rule:evenodd;fill:url(#linearGradient39589);stroke-dashoffset:1.5856;stroke-linecap:round;stroke-linejoin:round;stroke-width:4.079;stroke:#67977f"/>
  </g>
  <g transform="matrix(0 .2917 -.28875 0 135.39 218.85)" style="fill:#1f638a;stroke-linecap:round;stroke-linejoin:round;stroke-width:1.2209;stroke:#1f638a">
   <path d="m207.49 126.25 34.17 21.614-34.17 21.614z" style="fill:#1f638a;stroke-linecap:round;stroke-linejoin:round;stroke-width:1.3023;stroke:#1f638a"/>
   <rect x="172.19" y="137.99" width="39.213" height="19.761" style="fill:#1f638a;stroke-linecap:round;stroke-linejoin:round;stroke-width:1.3023;stroke:#1f638a"/>
  </g>
  <g transform="matrix(0 .2917 -.28875 0 302.89 218.85)" style="fill:#1f638a;stroke-linecap:round;stroke-linejoin:round;stroke-width:1.2209;stroke:#1f638a">
   <path d="m207.49 126.25 34.17 21.614-34.17 21.614z" style="fill:#1f638a;stroke-linecap:round;stroke-linejoin:round;stroke-width:1.3023;stroke:#1f638a"/>
   <rect x="172.19" y="137.99" width="39.213" height="19.761" style="fill:#1f638a;stroke-linecap:round;stroke-linejoin:round;stroke-width:1.3023;stroke:#1f638a"/>
  </g>
  <g transform="matrix(0 .2917 -.28875 0 470.4 218.85)" style="fill:#1f638a;stroke-linecap:round;stroke-linejoin:round;stroke-width:1.2209;stroke:#1f638a">
   <path d="m207.49 126.25 34.17 21.614-34.17 21.614z" style="fill:#1f638a;stroke-linecap:round;stroke-linejoin:round;stroke-width:1.3023;stroke:#1f638a"/>
   <rect x="172.19" y="137.99" width="39.213" height="19.761" style="fill:#1f638a;stroke-linecap:round;stroke-linejoin:round;stroke-width:1.3023;stroke:#1f638a"/>
  </g>
  <g transform="matrix(0 .2917 -.28875 0 637.91 218.85)" style="fill:#1f638a;stroke-linecap:round;stroke-linejoin:round;stroke-width:1.2209;stroke:#1f638a">
   <path d="m207.49 126.25 34.17 21.614-34.17 21.614z" style="fill:#1f638a;stroke-linecap:round;stroke-linejoin:round;stroke-width:1.3023;stroke:#1f638a"/>
   <rect x="172.19" y="137.99" width="39.213" height="19.761" style="fill:#1f638a;stroke-linecap:round;stroke-linejoin:round;stroke-width:1.3023;stroke:#1f638a"/>
  </g>
  <g transform="translate(382.18 431.63)">
   <ellipse cx="-289.85" cy="-8.3397" rx="13.199" ry="13.469" style="fill:#1f638a;stroke-linecap:round;stroke-linejoin:round;stroke-width:1.0658"/>
   <text x="-297.51486" y="-0.70428288" style="fill:#000000;font-family:'Arial Nova', 'Arial Unicode MS', 'Yu Gothic UI', sans-serif;font-size:12.8px;letter-spacing:0px;line-height:0%;stroke-width:1.0667;word-spacing:0px" xml:space="preserve"><tspan x="-297.51486" y="-0.70428288" style="fill:#ffffff;font-family:'Arial Nova', 'Arial Unicode MS', 'Yu Gothic UI', sans-serif;font-size:21.333px;font-weight:bold;stroke-width:1.0667">A</tspan></text>
  </g>
  <g transform="translate(551.93 393.92)">
   <ellipse cx="-291.36" cy="29.373" rx="13.199" ry="13.469" style="fill:#1f638a;stroke-linecap:round;stroke-linejoin:round;stroke-width:1.0658"/>
   <text x="-298.78693" y="37.00808" style="fill:#000000;font-family:'Arial Nova', 'Arial Unicode MS', 'Yu Gothic UI', sans-serif;font-size:12.8px;letter-spacing:0px;line-height:0%;stroke-width:1.0667;word-spacing:0px" xml:space="preserve"><tspan x="-298.78693" y="37.00808" style="fill:#ffffff;font-family:'Arial Nova', 'Arial Unicode MS', 'Yu Gothic UI', sans-serif;font-size:21.333px;font-weight:bold;stroke-width:1.0667">B</tspan></text>
  </g>
  <g transform="translate(716.55 431.63)">
   <ellipse cx="-289.85" cy="-8.3397" rx="13.199" ry="13.469" style="fill:#1f638a;stroke-linecap:round;stroke-linejoin:round;stroke-width:1.0658"/>
   <text x="-297.51486" y="-0.70428288" style="fill:#000000;font-family:'Arial Nova', 'Arial Unicode MS', 'Yu Gothic UI', sans-serif;font-size:12.8px;letter-spacing:0px;line-height:0%;stroke-width:1.0667;word-spacing:0px" xml:space="preserve"><tspan x="-297.51486" y="-0.70428288" style="fill:#ffffff;font-family:'Arial Nova', 'Arial Unicode MS', 'Yu Gothic UI', sans-serif;font-size:21.333px;font-weight:bold;stroke-width:1.0667">C</tspan></text>
  </g>
  <g transform="translate(885.7 393.92)">
   <ellipse cx="-291.36" cy="29.373" rx="13.199" ry="13.469" style="fill:#1f638a;stroke-linecap:round;stroke-linejoin:round;stroke-width:1.0658"/>
   <text x="-298.78693" y="37.00808" style="fill:#000000;font-family:'Arial Nova', 'Arial Unicode MS', 'Yu Gothic UI', sans-serif;font-size:12.8px;letter-spacing:0px;line-height:0%;stroke-width:1.0667;word-spacing:0px" xml:space="preserve"><tspan x="-298.78693" y="37.00808" style="fill:#ffffff;font-family:'Arial Nova', 'Arial Unicode MS', 'Yu Gothic UI', sans-serif;font-size:21.333px;font-weight:bold;stroke-width:1.0667">D</tspan></text>
  </g>
 </g>
</svg>
