<?xml version="1.0" encoding="UTF-8"?>
<svg width="18cm" height="3.5cm" version="1.1" viewBox="0 0 180 35" xmlns="http://www.w3.org/2000/svg">
 <g transform="translate(0 -262)">
  <g transform="matrix(.07718 0 0 .076397 75.959 267.4)" style="fill:#1f638a;stroke-linecap:round;stroke-linejoin:round;stroke-width:1.2209;stroke:#1f638a">
   <path d="m207.49 126.25 34.17 21.614-34.17 21.614z" style="fill:#1f638a;stroke-linecap:round;stroke-linejoin:round;stroke-width:1.3023;stroke:#1f638a"/>
   <rect x="172.19" y="137.99" width="39.213" height="19.761" style="fill:#1f638a;stroke-linecap:round;stroke-linejoin:round;stroke-width:1.3023;stroke:#1f638a"/>
  </g>
  <rect x="19.11" y="270.18" width="59.868" height="17.907" rx="2" ry="2" style="fill:#fff;paint-order:normal;stroke-linecap:round;stroke-linejoin:round;stroke:#800080"/>
  <circle cx="67.705" cy="279.13" r="4.5" style="fill:#fff;paint-order:normal;stroke-linecap:round;stroke-linejoin:round;stroke:#800080"/>
  <path d="m12.059 269.85v19.511" style="fill:none;stroke-dasharray:1.00000001, 2.00000003;stroke-linecap:round;stroke-linejoin:round;stroke:#f00"/>
  <g transform="translate(4.1199 81.718)">
   <rect x="105.36" y="188.41" width="59.868" height="17.907" rx="2" ry="2" style="fill:#fff;paint-order:normal;stroke-linecap:round;stroke-linejoin:round;stroke:#800080"/>
   <circle cx="153.95" cy="197.36" r="4.5" style="fill:#fff;paint-order:normal;stroke-linecap:round;stroke-linejoin:round;stroke:#800080"/>
   <path d="m98.304 188.09v19.511" style="fill:none;stroke-dasharray:4.00000015, 2.00000008, 1.00000004, 2.00000008;stroke-linecap:round;stroke-linejoin:round;stroke:#800080"/>
  </g>
  <path d="m12.288 280.6 1.6471-1.3618 1.8262 3.7385 1.6651-0.81338-1.8262-3.7385 1.9655-0.40296-5.1705-3.8935z" style="fill:#fff;stroke-linecap:round;stroke-linejoin:round;stroke-width:.2;stroke:#000"/>
  <g transform="matrix(.26458 0 0 .26458 -52.099 231.15)">
   <g transform="translate(197.02,281.84)">
    <ellipse cx="79.886" cy="-98.798" rx="13.199" ry="13.469" style="fill:#1f638a;stroke-linecap:round;stroke-linejoin:round;stroke-width:1.0658"/>
    <text x="74.04409" y="-91.396721" style="fill:#000000;font-family:'Arial Nova', 'Arial Unicode MS', 'Yu Gothic UI', sans-serif;font-size:12.8px;letter-spacing:0px;line-height:0%;stroke-width:1.0667;word-spacing:0px" xml:space="preserve"><tspan x="74.04409" y="-91.396721" style="fill:#ffffff;font-family:'Arial Nova', 'Arial Unicode MS', 'Yu Gothic UI', sans-serif;font-size:21.333px;line-height:1.25;stroke-width:1.0667;stroke:#ffffff">5</tspan></text>
   </g>
  </g>
 </g>
</svg>
