<?xml version="1.0" encoding="UTF-8"?>
<svg width="18cm" height="5cm" version="1.1" xmlns="http://www.w3.org/2000/svg" xmlns:xlink="http://www.w3.org/1999/xlink">
 <defs>
  <radialGradient id="radialGradient8868-4-9" cx="783.37" cy="549.94" r="475.5" gradientTransform="matrix(-.48166 .011106 -.010375 -.44997 747.46 1135.4)" gradientUnits="userSpaceOnUse">
   <stop style="stop-color:#ff8500" offset="0"/>
   <stop style="stop-color:#fff" offset=".90136"/>
   <stop style="stop-color:#ff8500" offset="1"/>
  </radialGradient>
 </defs>
 <g transform="translate(0 -933.54)">
  <text x="387.80954" y="655.85297" style="fill:#000000;font-family:'Arial Nova', 'Arial Unicode MS', 'Yu Gothic UI', sans-serif;font-size:12.8px;letter-spacing:0px;line-height:0%;stroke-width:1.0667;word-spacing:0px" xml:space="preserve"><tspan x="387.80954" y="655.85297" style="stroke-width:1.0667"> </tspan></text>
  <text x="400.95236" y="656.80542" style="fill:#000000;font-family:'Arial Nova', 'Arial Unicode MS', 'Yu Gothic UI', sans-serif;font-size:12.8px;letter-spacing:0px;line-height:0%;stroke-width:1.0667;word-spacing:0px" xml:space="preserve"><tspan x="400.95236" y="656.80542" style="stroke-width:1.0667"> </tspan></text>
  <rect x="457.92" y="1087.8" width="110.98" height="14.654" style="color:#000000;fill-opacity:.096154;fill:#f00;stroke-dasharray:2.2677166, 2.2677166;stroke-linecap:round;stroke-linejoin:round;stroke-width:.75591;stroke:#f00"/>
  <g transform="matrix(.66342 0 0 .66342 276.21 508.67)">
   <path d="m357.72 673.87c-123.11 0-222.91 99.81-222.91 222.92h58.023c0-91.067 73.819-164.9 164.89-164.9 91.067 0 164.9 73.834 164.9 164.9h58.023c0-123.11-99.81-222.92-222.92-222.92z" style="color:#000000;fill:url(#radialGradient8868-4-9);stroke-dashoffset:2.1565;stroke-linecap:round;stroke-linejoin:round;stroke-width:2.1592;stroke:#7d7d7d"/>
   <path d="m164.07 896.79a193.66 193.66 0 0 1 193.66-193.66 193.66 193.66 0 0 1 193.66 193.66" style="color:#000000;fill:none;stroke-dashoffset:2.1565;stroke-linecap:round;stroke-linejoin:round;stroke-width:1.1394;stroke:#7d7d7d"/>
   <path d="m475.14 780.8 40.903-40.903" style="fill:none;stroke-linecap:round;stroke-linejoin:round;stroke-width:1.1394;stroke:#7d7d7d"/>
   <path d="m241.17 779.34-40.903-40.903" style="fill:none;stroke-linecap:round;stroke-linejoin:round;stroke-width:1.1394;stroke:#7d7d7d"/>
   <path d="m358.65 732.08v-58.686" style="fill:none;stroke-linecap:round;stroke-linejoin:round;stroke-width:1.1394;stroke:#7d7d7d"/>
  </g>
  <text x="456.86441" y="1102.2787" style="fill:#ff0000;font-family:'Arial Nova', 'Arial Unicode MS', 'Yu Gothic UI', sans-serif;font-size:12.8px;letter-spacing:0px;line-height:0%;stroke-width:1.0667;word-spacing:0px" xml:space="preserve"><tspan x="456.86441" y="1102.2787" style="fill:#ff0000;font-size:19.933px;stroke-width:1.0667">OPEN MIND</tspan></text>
  <g transform="rotate(18.32 -637.72 1982.2)">
   <path d="m125.52 660.31c1.8506-0.75458 3.6207-0.74425 5.3104 0.0311 1.6897 0.77573 2.9535 2.1907 3.7914 4.2455 0.8355 2.0488 0.91562 3.938 0.2404 5.6673-0.67524 1.7295-1.9321 2.969-3.7707 3.7187-1.9046 0.77672-3.7001 0.75555-5.3865-0.063-1.6864-0.81882-2.9093-2.1597-3.6689-4.0222-0.88447-2.169-0.99359-4.1163-0.32739-5.842 0.66623-1.7258 1.9366-2.9708 3.8112-3.7353zm4.9434 12.174c1.3398-0.54639 2.2347-1.4578 2.6847-2.7346 0.44993-1.2765 0.33732-2.7513-0.33778-4.4239-0.70075-1.7184-1.6649-2.8669-2.8923-3.4455-1.2275-0.57856-2.4841-0.60573-3.7699-0.0814-1.3218 0.5391-2.2243 1.4361-2.7075 2.6913-0.48322 1.255-0.34261 2.82 0.42184 4.6945 0.62476 1.5322 1.5477 2.6011 2.7687 3.2069 1.221 0.60568 2.4985 0.63668 3.8323 0.0926z" style="fill:none;stroke-linecap:round;stroke-linejoin:round;stroke-width:1.4324;stroke:#f00"/>
   <path d="m135.28 657.11 5.1778-1.4699c0.81769-0.23206 1.533-0.39119 2.1459-0.47767 0.61292-0.0862 1.2204-0.0304 1.8226 0.16559 0.60217 0.19665 1.1156 0.55005 1.5403 1.0601 0.42472 0.51016 0.72745 1.0836 0.9082 1.72 0.3597 1.2673 0.24081 2.3988-0.35672 3.3946-0.59751 0.99589-1.7951 1.7491-3.5928 2.2594l-3.5111 0.99681 1.5788 5.5615-1.8164 0.51567zm3.6717 6.0198 3.5299-1.0021c2.1597-0.61305 3.0022-1.756 2.5273-3.4288-0.15595-0.54928-0.43417-0.99468-0.83465-1.3365-0.40051-0.34147-0.8198-0.50584-1.2579-0.49268-0.43809 0.0133-1.0598 0.13383-1.865 0.36248l-3.4924 0.9914z" style="fill:none;stroke-linecap:round;stroke-linejoin:round;stroke-width:1.4324;stroke:#f00"/>
   <path d="m161.69 665.91-10.51 1.7702-2.3701-14.07 10.183-1.7153 0.2813 1.6701-8.3213 1.4016 0.72429 4.2998 7.7838-1.3111 0.28131 1.67-7.7838 1.3111 0.80189 4.7606 8.6476-1.4567z" style="fill:none;stroke-linecap:round;stroke-linejoin:round;stroke-width:1.4324;stroke:#f00"/>
   <path d="m174.58 665.06-1.9346 0.0947-8.0223-10.769-0.039 0.0107 0.88166 11.356-1.7887 0.0877-1.0316-14.418 1.9248-0.0942 8.0223 10.769 0.0389-0.0107-0.24208-10.967 1.7985-0.0881z" style="fill:none;stroke-linecap:round;stroke-linejoin:round;stroke-width:1.4324;stroke:#f00"/>
   <path d="m195.56 666.57-1.7854-0.13899 1.7616-11.795-0.039-0.0107-5.5228 11.087-1.6884-0.13141-3.3555-12.307-0.0582-0.01-0.44188 12.212-1.7854-0.13906 0.60737-14.337 2.814 0.21909 2.8052 10.224c0.28801 1.1482 0.45005 1.8669 0.48613 2.1562l0.0388 0.0107c0.21748-0.53624 0.52898-1.2767 0.93448-2.2214l4.6677-9.1326 2.5035 0.19502z" style="fill:none;stroke-linecap:round;stroke-linejoin:round;stroke-width:1.4324;stroke:#f00"/>
   <path d="m200.66 667.73-1.8746-0.29679 2.2308-14.093 1.8746 0.29665z" style="fill:none;stroke-linecap:round;stroke-linejoin:round;stroke-width:1.4324;stroke:#f00"/>
   <path d="m213.67 671-1.8752-0.48481-4.136-12.823-0.0374-0.0107-2.6372 10.957-1.7338-0.44822 3.4046-13.926 1.8658 0.48234 4.136 12.824 0.0376 0.0107 3.4714-10.568 1.7433 0.45078z" style="fill:none;stroke-linecap:round;stroke-linejoin:round;stroke-width:1.4324;stroke:#f00"/>
   <path d="m221.1 658.6 4.6497 1.6232c0.81478 0.2845 1.5018 0.57072 2.061 0.85875 0.55923 0.28808 1.0507 0.68634 1.4745 1.1952 0.42374 0.50866 0.73787 1.1148 0.94241 1.8186 0.20447 0.70361 0.29383 1.4616 0.26799 2.2739-0.026 0.81229-0.22053 1.7392-0.58406 2.7806-0.69293 1.9849-1.734 3.4512-3.1233 4.399-1.3894 0.94817-3.2357 1.02-5.5391 0.21589l-4.8518-1.6939zm-2.3619 12.495 2.8854 1.0073c0.58809 0.20543 1.1262 0.35192 1.6144 0.43974 0.48816 0.0881 1.0263 0.053 1.6144-0.10624 0.58813-0.1591 1.1678-0.55467 1.739-1.1868 0.57121-0.63234 1.0696-1.5578 1.4952-2.7769 0.23524-0.67397 0.39522-1.3243 0.48002-1.9509 0.0848-0.62683 0.0503-1.2368-0.10358-1.8299-0.15377-0.59308-0.3999-1.0743-0.7384-1.4432-0.33851-0.36911-0.69681-0.64707-1.0748-0.83402-0.37804-0.18705-0.8764-0.38838-1.4952-0.60448l-2.8302-0.98789z" style="fill:none;stroke-linecap:round;stroke-linejoin:round;stroke-width:1.4324;stroke:#f00"/>
   <ellipse transform="rotate(-2)" cx="154.62" cy="664.51" rx="4.0406" ry="3.7795" style="fill:#008000;stroke-linecap:round;stroke-linejoin:round;stroke-width:3.7837;stroke:#008000"/>
  </g>
  <g transform="matrix(0 -1 -1 0 541.13 672.36)">
   <path d="m-423.94-49.123 5.0723 20.997h-10.145c1.7968-10.641 5.0723-20.997 5.0723-20.997z" style="fill:#008000;stroke-linecap:round;stroke-linejoin:round;stroke-width:1.8898;stroke:#008100"/>
   <path d="m-423.98-34.35c0 48.464 0.17497 61.061 0.17497 61.061" style="fill:#008000;stroke-linecap:round;stroke-linejoin:round;stroke-width:1.8898;stroke:#008000"/>
  </g>
  <ellipse transform="rotate(-2)" cx="475.54" cy="1112.9" rx="4.0406" ry="3.7795" style="fill:#f00;stroke-linecap:round;stroke-linejoin:round;stroke-width:3.7837;stroke:#f00"/>
  <path d="m553.15 1006.5 6.2254-5.147 6.9023 14.13 6.2932-3.0742-6.9023-14.13 7.4286-1.523-19.542-14.716z" style="fill:#fff;stroke-linecap:round;stroke-linejoin:round;stroke-width:.75591;stroke:#000"/>
  <g transform="rotate(45.707 -355.44 728.7)">
   <path d="m485.72 305.18-18.157-35.212" style="fill:#fff;stroke-dasharray:2.0296063, 2.0296063;stroke-linecap:round;stroke-linejoin:round;stroke-width:.67654;stroke:#008000"/>
   <path d="m518.48 275.42-12.571-4.1905v8.7619z" style="fill:#fff;stroke-dasharray:2.0296063, 2.0296063;stroke-linecap:round;stroke-linejoin:round;stroke-width:.67654;stroke:#008000"/>
   <path d="m449.05 305.17a88.545 88.545 0 0 1 56.624-29.371" style="color:#000000;fill:none;stroke-dasharray:2.02960625, 2.02960625;stroke-linecap:round;stroke-linejoin:round;stroke-width:.67654;stroke:#008000"/>
   <path d="m440.69 314.82 11.204-7.0753-6.7809-5.5489z" style="fill:#fff;stroke-dasharray:2.02960629, 2.02960629;stroke-linecap:round;stroke-linejoin:round;stroke-width:.67654;stroke:#008000"/>
   <path d="m487.74 307.93-2.48-13.017-7.6469 4.2774z" style="fill:#fff;stroke-dasharray:2.0296063, 2.0296063;stroke-linecap:round;stroke-linejoin:round;stroke-width:.67654;stroke:#008000"/>
   <path d="m463.45 263.88 2.48 13.017 7.6469-4.2774z" style="fill:#fff;stroke-dasharray:2.0296063, 2.0296063;stroke-linecap:round;stroke-linejoin:round;stroke-width:.67654;stroke:#008000"/>
  </g>
  <rect x="111.17" y="1087.8" width="110.98" height="14.654" style="color:#000000;fill-opacity:.096154;fill:#f00;stroke-dasharray:2.2677166, 2.2677166;stroke-linecap:round;stroke-linejoin:round;stroke-width:.75591;stroke:#f00"/>
  <g transform="matrix(.66342 0 0 .66342 -70.539 508.67)">
   <path d="m357.72 673.87c-123.11 0-222.91 99.81-222.91 222.92h58.023c0-91.067 73.819-164.9 164.89-164.9 91.067 0 164.9 73.834 164.9 164.9h58.023c0-123.11-99.81-222.92-222.92-222.92z" style="color:#000000;fill:url(#radialGradient8868-4-9);stroke-dashoffset:2.1565;stroke-linecap:round;stroke-linejoin:round;stroke-width:2.1592;stroke:#7d7d7d"/>
   <path d="m164.07 896.79a193.66 193.66 0 0 1 193.66-193.66 193.66 193.66 0 0 1 193.66 193.66" style="color:#000000;fill:none;stroke-dashoffset:2.1565;stroke-linecap:round;stroke-linejoin:round;stroke-width:1.1394;stroke:#7d7d7d"/>
   <path d="m475.14 780.8 40.903-40.903" style="fill:none;stroke-linecap:round;stroke-linejoin:round;stroke-width:1.1394;stroke:#7d7d7d"/>
   <path d="m241.17 779.34-40.903-40.903" style="fill:none;stroke-linecap:round;stroke-linejoin:round;stroke-width:1.1394;stroke:#7d7d7d"/>
   <path d="m358.65 732.08v-58.686" style="fill:none;stroke-linecap:round;stroke-linejoin:round;stroke-width:1.1394;stroke:#7d7d7d"/>
  </g>
  <text x="110.11989" y="1102.2787" style="fill:#ff0000;font-family:'Arial Nova', 'Arial Unicode MS', 'Yu Gothic UI', sans-serif;font-size:12.8px;letter-spacing:0px;line-height:0%;stroke-width:1.0667;word-spacing:0px" xml:space="preserve"><tspan x="110.11989" y="1102.2787" style="fill:#ff0000;font-size:19.933px;stroke-width:1.0667">OPEN MIND</tspan></text>
  <g transform="matrix(0 -1 -1 0 194.39 672.36)">
   <path d="m-423.94-49.123 5.0723 20.997h-10.145c1.7968-10.641 5.0723-20.997 5.0723-20.997z" style="fill:#008000;stroke-linecap:round;stroke-linejoin:round;stroke-width:1.8898;stroke:#008100"/>
   <path d="m-423.98-34.35c0 48.464 0.17497 61.061 0.17497 61.061" style="fill:#008000;stroke-linecap:round;stroke-linejoin:round;stroke-width:1.8898;stroke:#008000"/>
  </g>
  <ellipse transform="rotate(-2)" cx="129" cy="1100.8" rx="4.0406" ry="3.7795" style="fill:#f00;stroke-linecap:round;stroke-linejoin:round;stroke-width:3.7837;stroke:#f00"/>
  <path d="m137.56 1015.7 6.2254-5.147 6.9023 14.13 6.2932-3.0742-6.9023-14.13 7.4286-1.523-19.542-14.716z" style="fill:#fff;stroke-linecap:round;stroke-linejoin:round;stroke-width:.75591;stroke:#000"/>
  <g transform="translate(122.78 1108.2)">
   <ellipse cx="48.684" cy="-98.798" rx="13.199" ry="13.469" style="fill:#1f638a;stroke-linecap:round;stroke-linejoin:round;stroke-width:1.0658"/>
   <text x="42.842751" y="-91.162346" style="fill:#000000;font-family:'Arial Nova', 'Arial Unicode MS', 'Yu Gothic UI', sans-serif;font-size:12.8px;letter-spacing:0px;line-height:0%;stroke-width:1.0667;word-spacing:0px" xml:space="preserve"><tspan x="42.842751" y="-91.162346" style="fill:#ffffff;font-family:'Arial Nova', 'Arial Unicode MS', 'Yu Gothic UI', sans-serif;font-size:21.333px;stroke-width:1.0667;stroke:#ffffff">4</tspan></text>
  </g>
  <g transform="translate(476.57 1139.6)">
   <ellipse cx="79.886" cy="-98.798" rx="13.199" ry="13.469" style="fill:#1f638a;stroke-linecap:round;stroke-linejoin:round;stroke-width:1.0658"/>
   <text x="74.04409" y="-91.396721" style="fill:#000000;font-family:'Arial Nova', 'Arial Unicode MS', 'Yu Gothic UI', sans-serif;font-size:12.8px;letter-spacing:0px;line-height:0%;stroke-width:1.0667;word-spacing:0px" xml:space="preserve"><tspan x="74.04409" y="-91.396721" style="fill:#ffffff;font-family:'Arial Nova', 'Arial Unicode MS', 'Yu Gothic UI', sans-serif;font-size:21.333px;stroke-width:1.0667;stroke:#ffffff">5</tspan></text>
  </g>
  <g transform="matrix(.2917 0 0 .28875 277.36 975.77)" style="fill:#1f638a;stroke-linecap:round;stroke-linejoin:round;stroke-width:1.2209;stroke:#1f638a">
   <path d="m207.49 126.25 34.17 21.614-34.17 21.614z" style="fill:#1f638a;stroke-linecap:round;stroke-linejoin:round;stroke-width:1.3023;stroke:#1f638a"/>
   <rect x="172.19" y="137.99" width="39.213" height="19.761" style="fill:#1f638a;stroke-linecap:round;stroke-linejoin:round;stroke-width:1.3023;stroke:#1f638a"/>
  </g>
 </g>
</svg>
