<?xml version="1.0" encoding="UTF-8"?>
<svg width="18cm" height="7cm" version="1.1" xmlns="http://www.w3.org/2000/svg" xmlns:xlink="http://www.w3.org/1999/xlink">
 <defs>
  <linearGradient id="linearGradient6218-7-4-0-5-2-09">
   <stop style="stop-color:#ff8500" offset="0"/>
   <stop style="stop-color:#fff" offset="1"/>
  </linearGradient>
  <linearGradient id="linearGradient7747-2-1">
   <stop style="stop-color:#fff" offset="0"/>
   <stop style="stop-color:#808080" offset="1"/>
  </linearGradient>
  <linearGradient id="linearGradient8449-5">
   <stop style="stop-color:#ffce00" offset="0"/>
   <stop style="stop-color:#fff" offset="1"/>
  </linearGradient>
  <linearGradient id="linearGradient5319" x1="48.629" x2="292.6" y1="833.99" y2="833.99" gradientTransform="matrix(.86881 0 0 .86881 195.41 212.07)" gradientUnits="userSpaceOnUse" xlink:href="#linearGradient7747-2-1"/>
  <linearGradient id="linearGradient5322" x1="125.67" x2="110.93" y1="987.6" y2="932.1" gradientTransform="matrix(.86881 0 0 .86881 195.41 212.07)" gradientUnits="userSpaceOnUse" xlink:href="#linearGradient6218-7-4-0-5-2-09"/>
  <linearGradient id="linearGradient5325" x1="62.781" x2="262.21" y1="973.9" y2="966.9" gradientTransform="matrix(.86881 0 0 .86881 195.41 212.07)" gradientUnits="userSpaceOnUse" xlink:href="#linearGradient6218-7-4-0-5-2-09"/>
  <linearGradient id="linearGradient5328" x1="135.74" x2="135.44" y1="998.54" y2="927.79" gradientTransform="matrix(.86881 0 0 .86881 195.41 212.07)" gradientUnits="userSpaceOnUse" xlink:href="#linearGradient6218-7-4-0-5-2-09"/>
  <linearGradient id="linearGradient5331" x1="68.342" x2="159.28" y1="953.08" y2="953.08" gradientTransform="matrix(.86881 0 0 .86881 195.41 212.07)" gradientUnits="userSpaceOnUse" xlink:href="#linearGradient7747-2-1"/>
  <linearGradient id="linearGradient5334" x1="61.908" x2="277.1" y1="972.85" y2="970.6" gradientTransform="matrix(.86881 0 0 .86881 195.41 212.07)" gradientUnits="userSpaceOnUse" xlink:href="#linearGradient6218-7-4-0-5-2-09"/>
  <linearGradient id="linearGradient5337" x1="43.643" x2="195.29" y1="986.88" y2="986.88" gradientTransform="matrix(.86881 0 0 .86881 195.41 212.07)" gradientUnits="userSpaceOnUse" xlink:href="#linearGradient8449-5"/>
  <linearGradient id="linearGradient5340" x1="48.629" x2="292.6" y1="833.99" y2="833.99" gradientTransform="matrix(.86881 0 0 .86881 409.01 212.07)" gradientUnits="userSpaceOnUse">
   <stop style="stop-color:#ff5400" offset="0"/>
   <stop style="stop-color:#fff" offset="1"/>
  </linearGradient>
  <linearGradient id="linearGradient5343" x1="125.67" x2="110.93" y1="987.6" y2="932.1" gradientTransform="matrix(.86881 0 0 .86881 409.01 212.07)" gradientUnits="userSpaceOnUse" xlink:href="#linearGradient6218-7-4-0-5-2-09"/>
  <linearGradient id="linearGradient5346" x1="62.781" x2="262.21" y1="973.9" y2="966.9" gradientTransform="matrix(.86881 0 0 .86881 409.01 212.07)" gradientUnits="userSpaceOnUse" xlink:href="#linearGradient6218-7-4-0-5-2-09"/>
  <linearGradient id="linearGradient5349" x1="135.74" x2="135.44" y1="998.54" y2="927.79" gradientTransform="matrix(.86881 0 0 .86881 409.01 212.07)" gradientUnits="userSpaceOnUse" xlink:href="#linearGradient6218-7-4-0-5-2-09"/>
  <linearGradient id="linearGradient5352" x1="68.342" x2="159.28" y1="953.08" y2="953.08" gradientTransform="matrix(.86881 0 0 .86881 409.01 212.07)" gradientUnits="userSpaceOnUse">
   <stop style="stop-color:#fff" offset="0"/>
   <stop style="stop-color:#808080" offset="1"/>
  </linearGradient>
  <linearGradient id="linearGradient5355" x1="61.908" x2="277.1" y1="972.85" y2="970.6" gradientTransform="matrix(.86881 0 0 .86881 409.01 212.07)" gradientUnits="userSpaceOnUse" xlink:href="#linearGradient6218-7-4-0-5-2-09"/>
  <linearGradient id="linearGradient5358" x1="43.643" x2="195.29" y1="986.88" y2="986.88" gradientTransform="matrix(.86881 0 0 .86881 409.01 212.07)" gradientUnits="userSpaceOnUse" xlink:href="#linearGradient8449-5"/>
  <linearGradient id="linearGradient5361" x1="48.629" x2="292.6" y1="833.99" y2="833.99" gradientTransform="matrix(.86881 0 0 .86881 -18.198 212.07)" gradientUnits="userSpaceOnUse" xlink:href="#linearGradient7747-2-1"/>
  <linearGradient id="linearGradient5663" x1="43.643" x2="195.29" y1="986.88" y2="986.88" gradientTransform="matrix(.86881 0 0 .86881 -27.798 -25.107)" gradientUnits="userSpaceOnUse" xlink:href="#linearGradient7747-2-1"/>
  <linearGradient id="linearGradient5665" x1="61.908" x2="277.1" y1="972.85" y2="970.6" gradientTransform="matrix(.86881 0 0 .86881 -27.798 -25.107)" gradientUnits="userSpaceOnUse" xlink:href="#linearGradient6218-7-4-0-5-2-09"/>
  <linearGradient id="linearGradient5667" x1="68.342" x2="159.28" y1="953.08" y2="953.08" gradientTransform="matrix(.86881 0 0 .86881 -27.798 -25.107)" gradientUnits="userSpaceOnUse" xlink:href="#linearGradient7747-2-1"/>
  <linearGradient id="linearGradient5669" x1="135.74" x2="135.44" y1="998.54" y2="927.79" gradientTransform="matrix(.86881 0 0 .86881 -27.798 -25.107)" gradientUnits="userSpaceOnUse" xlink:href="#linearGradient6218-7-4-0-5-2-09"/>
  <linearGradient id="linearGradient5671" x1="62.781" x2="262.21" y1="973.9" y2="966.9" gradientTransform="matrix(.86881 0 0 .86881 -27.798 -25.107)" gradientUnits="userSpaceOnUse" xlink:href="#linearGradient6218-7-4-0-5-2-09"/>
  <linearGradient id="linearGradient5673" x1="125.67" x2="110.93" y1="987.6" y2="932.1" gradientTransform="matrix(.86881 0 0 .86881 -27.798 -25.107)" gradientUnits="userSpaceOnUse" xlink:href="#linearGradient6218-7-4-0-5-2-09"/>
 </defs>
 <g transform="translate(0 -857.95)">
  <g transform="translate(9.6 237.18)">
   <path d="m10.427 840.02 52.836 15.111 78.303-30.751-52.836-14.9z" style="color:#000000;fill:url(#linearGradient5663);stroke-linecap:round;stroke-linejoin:round;stroke-miterlimit:10;stroke-width:.75591;stroke:#868686"/>
   <path d="m26.296 844.74 0.79099-18.936 78.695-30.319-0.70345 18.531z" style="color:#000000;fill:url(#linearGradient5665);stroke-linecap:round;stroke-linejoin:round;stroke-miterlimit:10;stroke-width:.75591;stroke:#868686"/>
   <path d="m31.886 817.07c3.4903-1.6486 8.1308-0.76326 11.529 2.4006l62.286-24.035c0.0861-4.7284 1.9714-7.6702 4.5782-9.0261z" style="color:#000000;fill:url(#linearGradient5667);stroke-linecap:round;stroke-linejoin:round;stroke-miterlimit:10;stroke-width:.75591;stroke:#868686"/>
   <path d="m47.219 850.55 0.79099-18.935 78.695-30.319-0.70345 18.531z" style="color:#000000;fill:url(#linearGradient5669);stroke-linecap:round;stroke-linejoin:round;stroke-miterlimit:10;stroke-width:.75591;stroke:#868686"/>
   <path d="m27.054 825.79c0.15719-4.5578 2.1913-7.423 4.9371-8.72 3.4954-1.651 8.1442-0.76071 11.543 2.4142z" style="color:#000000;fill:url(#linearGradient5671);stroke-linecap:round;stroke-linejoin:round;stroke-miterlimit:10;stroke-width:.75591;stroke:#868686"/>
   <path d="m31.955 817.14c6.322-2.9861 16.417 2.341 16.067 14.464l78.671-30.312c0.29069-12.204-10.099-18.06-16.345-14.812z" style="color:#000000;fill:url(#linearGradient5673);stroke-linecap:round;stroke-linejoin:round;stroke-miterlimit:10;stroke-width:.75591;stroke:#868686"/>
  </g>
  <path d="m24.359 977.96 53.047 15.639 75.873-29.8c51.479-19.139 64.907-39.808 82.424-69.11l-52.202-15.005c-25.543 47.209-57.138 59.502-82.858 69.323z" style="color:#000000;fill:url(#linearGradient5361);stroke-linecap:round;stroke-linejoin:round;stroke-miterlimit:10;stroke-width:.75591;stroke:#868686"/>
  <path d="m447.24 1077.2 52.836 15.111 78.303-30.751-52.836-14.9z" style="color:#000000;fill:url(#linearGradient5358);stroke-linecap:round;stroke-linejoin:round;stroke-miterlimit:10;stroke-width:.75591;stroke:#868686"/>
  <path d="m463.11 1081.9 0.791-18.936 78.695-30.319-0.70345 18.531z" style="color:#000000;fill:url(#linearGradient5355);stroke-linecap:round;stroke-linejoin:round;stroke-miterlimit:10;stroke-width:.75591;stroke:#868686"/>
  <path d="m468.7 1054.2c3.4904-1.6486 8.1308-0.7632 11.529 2.4006l62.286-24.035c0.0861-4.7284 1.9714-7.6702 4.5782-9.0261z" style="color:#000000;fill:url(#linearGradient5352);stroke-linecap:round;stroke-linejoin:round;stroke-miterlimit:10;stroke-width:.75591;stroke:#868686"/>
  <path d="m484.03 1087.7 0.79098-18.936 78.695-30.319-0.70344 18.531z" style="color:#000000;fill:url(#linearGradient5349);stroke-linecap:round;stroke-linejoin:round;stroke-miterlimit:10;stroke-width:.75591;stroke:#868686"/>
  <path d="m463.87 1063c0.15718-4.5578 2.1912-7.423 4.9371-8.72 3.4954-1.6509 8.1442-0.7607 11.543 2.4143z" style="color:#000000;fill:url(#linearGradient5346);stroke-linecap:round;stroke-linejoin:round;stroke-miterlimit:10;stroke-width:.75591;stroke:#868686"/>
  <path d="m468.77 1054.3c6.322-2.9861 16.417 2.341 16.067 14.464l78.671-30.312c0.29068-12.204-10.099-18.06-16.345-14.812z" style="color:#000000;fill:url(#linearGradient5343);stroke-linecap:round;stroke-linejoin:round;stroke-miterlimit:10;stroke-width:.75591;stroke:#868686"/>
  <path d="m451.57 977.96 53.047 15.639 75.873-29.8c51.479-19.139 64.907-39.808 82.424-69.11l-52.202-15.005c-25.543 47.209-57.138 59.502-82.858 69.323z" style="color:#000000;fill:url(#linearGradient5340);stroke-linecap:round;stroke-linejoin:round;stroke-miterlimit:10;stroke-width:.75591;stroke:#868686"/>
  <path d="m233.63 1077.2 52.836 15.111 78.303-30.751-52.836-14.9z" style="color:#000000;fill:url(#linearGradient5337);stroke-linecap:round;stroke-linejoin:round;stroke-miterlimit:10;stroke-width:.75591;stroke:#868686"/>
  <path d="m249.5 1081.9 0.791-18.936 78.695-30.319-0.70345 18.531z" style="color:#000000;fill:url(#linearGradient5334);stroke-linecap:round;stroke-linejoin:round;stroke-miterlimit:10;stroke-width:.75591;stroke:#868686"/>
  <path d="m255.09 1054.2c3.4904-1.6486 8.1308-0.7632 11.529 2.4006l62.286-24.035c0.0861-4.7284 1.9713-7.6702 4.5782-9.0261z" style="color:#000000;fill:url(#linearGradient5331);stroke-linecap:round;stroke-linejoin:round;stroke-miterlimit:10;stroke-width:.75591;stroke:#868686"/>
  <path d="m270.42 1087.7 0.79098-18.936 78.695-30.319-0.70343 18.531z" style="color:#000000;fill:url(#linearGradient5328);stroke-linecap:round;stroke-linejoin:round;stroke-miterlimit:10;stroke-width:.75591;stroke:#868686"/>
  <path d="m250.26 1063c0.15718-4.5578 2.1912-7.423 4.9371-8.72 3.4954-1.6509 8.1442-0.7607 11.543 2.4143z" style="color:#000000;fill:url(#linearGradient5325);stroke-linecap:round;stroke-linejoin:round;stroke-miterlimit:10;stroke-width:.75591;stroke:#868686"/>
  <path d="m255.16 1054.3c6.322-2.9861 16.417 2.341 16.067 14.464l78.671-30.312c0.29068-12.204-10.099-18.06-16.345-14.812z" style="color:#000000;fill:url(#linearGradient5322);stroke-linecap:round;stroke-linejoin:round;stroke-miterlimit:10;stroke-width:.75591;stroke:#868686"/>
  <path d="m237.96 977.96 53.047 15.639 75.873-29.8c51.479-19.139 64.907-39.808 82.424-69.11l-52.202-15.005c-25.543 47.209-57.138 59.502-82.858 69.323z" style="color:#000000;fill:url(#linearGradient5319);stroke-linecap:round;stroke-linejoin:round;stroke-miterlimit:10;stroke-width:.75591;stroke:#868686"/>
  <g transform="translate(29.872 1011.6)">
   <ellipse cx="122.72" cy="48.983" rx="13.199" ry="13.469" style="fill:#1f638a;stroke-linecap:round;stroke-linejoin:round;stroke-width:1.0658"/>
   <text x="116.87816" y="56.649761" style="fill:#000000;font-family:'Arial Nova', 'Arial Unicode MS', 'Yu Gothic UI', sans-serif;font-size:12.8px;letter-spacing:0px;line-height:0%;stroke-width:1.0667;word-spacing:0px" xml:space="preserve"><tspan x="116.87816" y="56.649761" style="fill:#ffffff;font-family:'Arial Nova', 'Arial Unicode MS', 'Yu Gothic UI', sans-serif;font-size:21.333px;font-weight:bold;stroke-width:1.0667">1</tspan></text>
  </g>
  <g transform="translate(131.57 776.01)">
   <ellipse cx="230.42" cy="311.21" rx="13.199" ry="13.469" style="fill:#1f638a;stroke-linecap:round;stroke-linejoin:round;stroke-width:1.0658"/>
   <text x="224.84752" y="318.87271" style="fill:#000000;font-family:'Arial Nova', 'Arial Unicode MS', 'Yu Gothic UI', sans-serif;font-size:12.8px;letter-spacing:0px;line-height:0%;stroke-width:1.0667;word-spacing:0px" xml:space="preserve"><tspan x="224.84752" y="318.87271" style="fill:#ffffff;font-family:'Arial Nova', 'Arial Unicode MS', 'Yu Gothic UI', sans-serif;font-size:21.333px;font-weight:bold;stroke-width:1.0667">2</tspan></text>
  </g>
  <path d="m117.62 1064.6 6.2254-5.147 6.9023 14.13 6.2932-3.0742-6.9023-14.13 7.4286-1.523-19.542-14.716z" style="fill:#fff;stroke-linecap:round;stroke-linejoin:round;stroke-width:.75591;stroke:#000"/>
  <path d="m326.03 1095.4 6.2254-5.147 6.9023 14.13 6.2932-3.0742-6.9023-14.13 7.4286-1.523-19.542-14.716z" style="fill:#fff;stroke-linecap:round;stroke-linejoin:round;stroke-width:.75591;stroke:#000"/>
  <path d="m598.03 954.63 6.2254-5.147 6.9023 14.13 6.2932-3.0742-6.9023-14.13 7.4286-1.523-19.542-14.716z" style="fill:#fff;stroke-linecap:round;stroke-linejoin:round;stroke-width:.75591;stroke:#000"/>
  <g transform="translate(405.31 648.49)">
   <ellipse cx="230.42" cy="311.21" rx="13.199" ry="13.469" style="fill:#1f638a;stroke-linecap:round;stroke-linejoin:round;stroke-width:1.0658"/>
   <text x="224.84752" y="318.87271" style="fill:#000000;font-family:'Arial Nova', 'Arial Unicode MS', 'Yu Gothic UI', sans-serif;font-size:12.8px;letter-spacing:0px;line-height:0%;stroke-width:1.0667;word-spacing:0px" xml:space="preserve"><tspan x="224.84752" y="318.87271" style="fill:#ffffff;font-family:'Arial Nova', 'Arial Unicode MS', 'Yu Gothic UI', sans-serif;font-size:21.333px;font-weight:bold;stroke-width:1.0667">3</tspan></text>
  </g>
  <g transform="matrix(.2917 0 0 .28875 160.44 935.13)" style="fill:#1f638a;stroke-linecap:round;stroke-linejoin:round;stroke-width:1.2209;stroke:#1f638a">
   <path d="m207.49 126.25 34.17 21.614-34.17 21.614z" style="fill:#1f638a;stroke-linecap:round;stroke-linejoin:round;stroke-width:1.3023;stroke:#1f638a"/>
   <rect x="172.19" y="137.99" width="39.213" height="19.761" style="fill:#1f638a;stroke-linecap:round;stroke-linejoin:round;stroke-width:1.3023;stroke:#1f638a"/>
  </g>
  <g transform="matrix(.2917 0 0 .28875 372.71 936.2)" style="fill:#1f638a;stroke-linecap:round;stroke-linejoin:round;stroke-width:1.2209;stroke:#1f638a">
   <path d="m207.49 126.25 34.17 21.614-34.17 21.614z" style="fill:#1f638a;stroke-linecap:round;stroke-linejoin:round;stroke-width:1.3023;stroke:#1f638a"/>
   <rect x="172.19" y="137.99" width="39.213" height="19.761" style="fill:#1f638a;stroke-linecap:round;stroke-linejoin:round;stroke-width:1.3023;stroke:#1f638a"/>
  </g>
 </g>
</svg>
