<?xml version="1.0" encoding="UTF-8"?>
<svg width="18cm" height="9cm" version="1.1" xmlns="http://www.w3.org/2000/svg" xmlns:xlink="http://www.w3.org/1999/xlink">
 <defs>
  <pattern id="pattern4730" patternTransform="matrix(.27167 .11204 34.256 -20.257 282.16 -108.66)" xlink:href="#pattern5808"/>
  <pattern id="pattern5808" patternTransform="matrix(.049345 .029378 -10.311 17.319 14.388 -12.754)" xlink:href="#Strips1_64"/>
  <pattern id="Strips1_64" width="65" height="1" patternTransform="translate(0) scale(10)" patternUnits="userSpaceOnUse">
   <rect y="-.5" width="1" height="2"/>
  </pattern>
  <pattern id="pattern4730-3" patternTransform="matrix(.27167 .11156 34.256 -20.17 651.76 -106.78)" xlink:href="#pattern5808-3"/>
  <pattern id="pattern5808-3" patternTransform="matrix(.049345 .029378 -10.311 17.319 14.388 -12.754)" xlink:href="#Strips1_64-3"/>
  <pattern id="Strips1_64-3" width="65" height="1" patternTransform="translate(0) scale(10)" patternUnits="userSpaceOnUse">
   <rect y="-.5" width="1" height="2"/>
  </pattern>
 </defs>
 <path d="m294.79 326.9v-319.39h-227.64v319.39z" fill="#52a88c" fill-rule="evenodd"/>
 <path d="m294.79 326.9v-319.39h-227.64v319.39z" fill="url(#pattern4730)" fill-rule="evenodd" opacity=".51613" stroke="#67977f" stroke-linecap="round" stroke-linejoin="round" stroke-width=".65448"/>
 <path d="m664.39 326.9v-318.01h-227.64v318.01z" fill="#52a88c" fill-rule="evenodd"/>
 <path d="m664.39 326.9v-318.01h-227.64v318.01z" fill="url(#pattern4730-3)" fill-rule="evenodd" opacity=".51613" stroke="#67977f" stroke-linecap="round" stroke-linejoin="round" stroke-width=".65306"/>
 <g transform="rotate(-45,142.75,99.419)" stroke-linejoin="round">
  <path d="m140.28 46.357v23.578" fill="none" stroke="#4d4d4d" stroke-linecap="round" stroke-width="1.4324"/>
  <path d="m33.142 46.033v23.578" fill="none" stroke="#4d4d4d" stroke-linecap="round" stroke-width="1.4324"/>
  <path d="m33.116 45.528-0.17496 219.91 53.595 40.399 53.595-40.541v-219.77z" fill="#739ba5" fill-rule="evenodd" stroke="#16434a" stroke-linecap="round" stroke-width="1.4324"/>
  <line x1="139.31" x2="32.155" y1="265.51" y2="265.51" fill="#739ba5" stroke="#16434a" stroke-width="1.4324"/>
  <path d="m86.577 1.5613v342.5" fill="none" stroke="#16434a" stroke-dasharray="6.04723, 1.51181, 0.755905, 1.51181" stroke-width=".7559"/>
 </g>
 <g transform="rotate(-45,257.48,-326.17)" stroke-linejoin="round">
  <path d="m140.28 46.357v23.578" fill="none" stroke="#4d4d4d" stroke-linecap="round" stroke-width="1.4324"/>
  <path d="m33.142 46.033v23.578" fill="none" stroke="#4d4d4d" stroke-linecap="round" stroke-width="1.4324"/>
  <path d="m33.116 45.528-0.17496 219.91 53.595 40.399 53.595-40.541v-219.77z" fill="#739ba5" fill-rule="evenodd" stroke="#16434a" stroke-linecap="round" stroke-width="1.4324"/>
  <line x1="139.31" x2="32.155" y1="265.51" y2="265.51" fill="#739ba5" stroke="#16434a" stroke-width="1.4324"/>
  <path d="m86.577 1.5613v342.5" fill="none" stroke="#16434a" stroke-dasharray="6.04723, 1.51181, 0.755905, 1.51181" stroke-width=".7559"/>
 </g>
 <g transform="translate(-71.429,174.21)">
  <ellipse cx="122.72" cy="48.983" rx="13.199" ry="13.469" fill="#1f638a" stroke-linecap="round" stroke-linejoin="round" stroke-width="1.0658"/>
  <text x="116.87816" y="56.649761" fill="#000000" font-family="'Arial Nova', 'Arial Unicode MS', 'Yu Gothic UI', sans-serif" font-size="12.8px" letter-spacing="0px" stroke-width="1.0667" word-spacing="0px" style="line-height:0%" xml:space="preserve"><tspan x="116.87816" y="56.649761" fill="#ffffff" font-family="'Arial Nova', 'Arial Unicode MS', 'Yu Gothic UI', sans-serif" font-size="21.333px" font-weight="bold" stroke-width="1.0667">1</tspan></text>
 </g>
 <g transform="translate(257.48,180.83)">
  <ellipse cx="122.72" cy="48.983" rx="13.199" ry="13.469" fill="#1f638a" stroke-linecap="round" stroke-linejoin="round" stroke-width="1.0658"/>
  <text x="116.87816" y="56.649761" fill="#000000" font-family="'Arial Nova', 'Arial Unicode MS', 'Yu Gothic UI', sans-serif" font-size="12.8px" letter-spacing="0px" stroke-width="1.0667" word-spacing="0px" style="line-height:0%" xml:space="preserve"><tspan x="116.87816" y="56.649761" fill="#ffffff" font-family="'Arial Nova', 'Arial Unicode MS', 'Yu Gothic UI', sans-serif" font-size="21.333px" font-weight="bold" stroke-width="1.0667">1</tspan></text>
 </g>
 <ellipse transform="rotate(-2)" cx="63.76" cy="103.83" rx="4.0406" ry="3.7795" fill="#f00" stroke="#f00" stroke-linecap="round" stroke-linejoin="round" stroke-width="3.7837"/>
 <g transform="translate(125.05,-166.96)">
  <ellipse cx="230.42" cy="311.21" rx="13.199" ry="13.469" fill="#1f638a" stroke-linecap="round" stroke-linejoin="round" stroke-width="1.0658"/>
  <text x="224.84752" y="318.87271" fill="#000000" font-family="'Arial Nova', 'Arial Unicode MS', 'Yu Gothic UI', sans-serif" font-size="12.8px" letter-spacing="0px" stroke-width="1.0667" word-spacing="0px" style="line-height:0%" xml:space="preserve"><tspan x="224.84752" y="318.87271" fill="#ffffff" font-family="'Arial Nova', 'Arial Unicode MS', 'Yu Gothic UI', sans-serif" font-size="21.333px" font-weight="bold" stroke-width="1.0667">2</tspan></text>
 </g>
 <path d="m164.62 311.15-11.852-5.9262 6.1956-6.1956z" stroke="#000" stroke-linecap="round" stroke-linejoin="round" stroke-width="1.0658"/>
 <path d="m164.68 310.95-154.43-154.16" stroke="#000" stroke-linecap="round" stroke-linejoin="round" stroke-width=".94488"/>
 <path d="m10.249 156.78 5.9262 11.852 6.1956-6.1956z" stroke="#000" stroke-linecap="round" stroke-linejoin="round" stroke-width="1.0658"/>
 <path d="m162.19 314.86 19.797-19.797" stroke="#000" stroke-linecap="round" stroke-linejoin="round" stroke-width=".75591"/>
 <path d="m7.7001 158.97 19.797-19.797" stroke="#000" stroke-linecap="round" stroke-linejoin="round" stroke-width=".75591"/>
 <path d="m471.89 297.94-11.852-5.9262 6.1956-6.1956z" stroke="#000" stroke-linecap="round" stroke-linejoin="round" stroke-width="1.0658"/>
 <path d="m471.89 297.94-154.43-154.16" stroke="#000" stroke-linecap="round" stroke-linejoin="round" stroke-width=".94488"/>
 <path d="m315.77 141.92 5.9262 11.852 6.1956-6.1956z" stroke="#000" stroke-linecap="round" stroke-linejoin="round" stroke-width="1.0658"/>
 <path d="m468.46 301.37 48.077-49.83" stroke="#000" stroke-linecap="round" stroke-linejoin="round" stroke-width=".75591"/>
 <path d="m388.24 155.42-11.852-5.9262 6.1956-6.1956z" stroke="#000" stroke-linecap="round" stroke-linejoin="round" stroke-width="1.0658"/>
 <path d="m388.3 155.36-42.112-42.112" stroke="#000" stroke-linecap="round" stroke-linejoin="round" stroke-width=".94488"/>
 <path d="m345.95 113.01 5.9262 11.852 6.1956-6.1956z" stroke="#000" stroke-linecap="round" stroke-linejoin="round" stroke-width="1.0658"/>
 <path d="m385.23 158.43 57.557-57.156" stroke="#000" stroke-linecap="round" stroke-linejoin="round" stroke-width=".75591"/>
 <ellipse transform="rotate(-2)" cx="438.86" cy="117.6" rx="4.0406" ry="3.7795" fill="#f00" stroke="#f00" stroke-linecap="round" stroke-linejoin="round" stroke-width="3.7837"/>
 <path d="m312.7 144.99 49.337-49.337" stroke="#000" stroke-linecap="round" stroke-linejoin="round" stroke-width=".75591"/>
 <path d="m91.361 101.81h326.73" fill="none" stroke="#000" stroke-linecap="round" stroke-linejoin="round" stroke-width=".756"/>
</svg>
