<?xml version="1.0" encoding="UTF-8"?>
<svg width="18cm" height="3cm" version="1.1" xmlns="http://www.w3.org/2000/svg">
 <g transform="translate(0 -340.16)">
  <g transform="translate(-1283.1 93.6)">
   <ellipse cx="1321.6" cy="269.89" rx="13.199" ry="13.469" style="fill:#1f638a;stroke-linecap:round;stroke-linejoin:round;stroke-width:1.0658"/>
   <text x="1315.6411" y="277.42673" style="fill:#000000;font-family:'Arial Nova', 'Arial Unicode MS', 'Yu Gothic UI', sans-serif;font-size:12.8px;letter-spacing:0px;line-height:0%;stroke-width:1.0667;word-spacing:0px" xml:space="preserve"><tspan x="1315.6411" y="277.42673" style="fill:#ffffff;font-family:'Arial Nova', 'Arial Unicode MS', 'Yu Gothic UI', sans-serif;font-size:21.333px;font-weight:bold;line-height:1.25;stroke-width:1.0667">2</tspan></text>
  </g>
  <path d="m71.059 350.44h4.8166v24.516h-2.4333v-22.116h-3.85z" style="fill:#000080;stroke-width:1.0667"/>
  <path d="m100.46 350.44v2.3333h-8.7332l-1.2167 6.6833q1.6-0.46666 2.8833-0.46666 3.35 0 5.5166 2.25 2.1833 2.2333 2.1833 5.7333 0 2.4166-1.1167 4.4333-1.1167 2.0166-3.0333 3.1-1.9 1.0667-4.4 1.0667-2.9833 0-5.0333-1.8166-2.05-1.8333-2.45-4.7333h2.5166q0.28333 1.4166 0.94999 2.3 0.68333 0.88333 1.8 1.4333 1.1333 0.53333 2.3666 0.53333 2.4166 0 4.15-1.8333 1.7333-1.8333 1.7333-4.5833 0-2.4833-1.5667-4.0333-1.5667-1.55-4.1833-1.55-2.1666 0-5.2499 1.3166l2.2666-12.167z" style="fill:#000080;stroke-width:1.0667"/>
  <path d="m103.69 362.7q0-4.85 1.0333-7.4999 1.05-2.65 2.95-4.0166 1.9-1.3667 4.25-1.3667 2.3833 0 4.3166 1.3833 1.9333 1.3667 3.05 4.1166 1.1333 2.75 1.1333 7.3833 0 4.6166-1.1166 7.3499-1.1 2.7333-3.05 4.1333-1.95 1.3833-4.3333 1.3833-2.35 0-4.2333-1.35-1.8833-1.35-2.95-4.0166-1.05-2.6833-1.05-7.4999zm2.3166 0.05q0 4.15 0.73332 6.2833 0.74999 2.1166 2.2 3.2166t3.0666 1.1q1.6333 0 3.05-1.0667 1.4166-1.0833 2.15-3.2333 0.91665-2.6166 0.91665-6.2999 0-3.7-0.81666-6.0499-0.81665-2.3666-2.2666-3.45-1.4333-1.1-3.0333-1.1-1.6333 0-3.0666 1.1-1.4333 1.0833-2.1833 3.2166-0.74999 2.1166-0.74999 6.2833z" style="fill:#000080;stroke-width:1.0667"/>
  <path d="m126.46 370.45 2.25 1.0667-3.3833 6.2999-1.65-0.69999z" style="fill:#000080;stroke-width:1.0667"/>
  <path d="m132.09 362.7q0-4.85 1.0333-7.4999 1.05-2.65 2.95-4.0166 1.9-1.3667 4.25-1.3667 2.3833 0 4.3166 1.3833 1.9333 1.3667 3.05 4.1166 1.1333 2.75 1.1333 7.3833 0 4.6166-1.1167 7.3499-1.1 2.7333-3.05 4.1333-1.95 1.3833-4.3333 1.3833-2.35 0-4.2333-1.35-1.8833-1.35-2.95-4.0166-1.05-2.6833-1.05-7.4999zm2.3166 0.05q0 4.15 0.73333 6.2833 0.74999 2.1166 2.2 3.2166t3.0666 1.1q1.6333 0 3.05-1.0667 1.4166-1.0833 2.15-3.2333 0.91665-2.6166 0.91665-6.2999 0-3.7-0.81666-6.0499-0.81665-2.3666-2.2666-3.45-1.4333-1.1-3.0333-1.1-1.6333 0-3.0666 1.1-1.4333 1.0833-2.1833 3.2166-0.75 2.1166-0.75 6.2833z" style="fill:#000080;stroke-width:1.0667"/>
  <path d="m151.02 362.7q0-4.85 1.0333-7.4999 1.05-2.65 2.95-4.0166 1.9-1.3667 4.25-1.3667 2.3833 0 4.3166 1.3833 1.9333 1.3667 3.05 4.1166 1.1333 2.75 1.1333 7.3833 0 4.6166-1.1166 7.3499-1.1 2.7333-3.05 4.1333-1.95 1.3833-4.3333 1.3833-2.35 0-4.2333-1.35-1.8833-1.35-2.95-4.0166-1.05-2.6833-1.05-7.4999zm2.3166 0.05q0 4.15 0.73332 6.2833 0.74999 2.1166 2.2 3.2166t3.0666 1.1q1.6333 0 3.05-1.0667 1.4166-1.0833 2.15-3.2333 0.91665-2.6166 0.91665-6.2999 0-3.7-0.81665-6.0499-0.81666-2.3666-2.2666-3.45-1.4333-1.1-3.0333-1.1-1.6333 0-3.0666 1.1-1.4333 1.0833-2.1833 3.2166-0.74999 2.1166-0.74999 6.2833z" style="fill:#000080;stroke-width:1.0667"/>
  <path d="m287.72 350.44v2.3333h-8.7332l-1.2167 6.6833q1.6-0.46666 2.8833-0.46666 3.35 0 5.5166 2.25 2.1833 2.2333 2.1833 5.7333 0 2.4166-1.1166 4.4333-1.1167 2.0166-3.0333 3.1-1.9 1.0667-4.4 1.0667-2.9833 0-5.0333-1.8166-2.05-1.8333-2.45-4.7333h2.5166q0.28333 1.4166 0.94999 2.3 0.68332 0.88333 1.8 1.4333 1.1333 0.53333 2.3666 0.53333 2.4166 0 4.15-1.8333 1.7333-1.8333 1.7333-4.5833 0-2.4833-1.5666-4.0333-1.5666-1.55-4.1833-1.55-2.1666 0-5.25 1.3166l2.2666-12.167z" style="fill:#000080;stroke-width:1.0667"/>
  <path d="m294.79 370.45 2.25 1.0667-3.3833 6.2999-1.65-0.69999z" style="fill:#000080;stroke-width:1.0667"/>
  <path d="m305.89 375.57-2.0166-1.3 6.6166-10.033q-1.3333 0.43333-2.5 0.43333-2.9166 0-4.95-2.1-2.0333-2.1166-2.0333-5.2 0-2.1166 0.98332-3.8166t2.7833-2.7166q1.8166-1.0167 3.8833-1.0167 2.0333 0 3.75 0.98333 1.7333 0.98332 2.7166 2.75 0.98333 1.7666 0.98333 3.7666 0 1.5166-0.61666 3.1833-0.6 1.65-2.1666 3.9833zm2.6666-13.05q2.15 0 3.65-1.5 1.5166-1.5166 1.5166-3.65t-1.5166-3.6333q-1.5-1.5166-3.65-1.5166-2.1333 0-3.65 1.5166-1.5 1.5-1.5 3.6333t1.5 3.65q1.5166 1.5 3.65 1.5z" style="fill:#000080;stroke-width:1.0667"/>
  <path d="m324.58 350.44h4.8166v24.516h-2.4333v-22.116h-3.85z" style="fill:#000080;stroke-width:1.0667"/>
  <path d="m430.06 350.44v2.3333h-8.7332l-1.2167 6.6833q1.6-0.46666 2.8833-0.46666 3.35 0 5.5166 2.25 2.1833 2.2333 2.1833 5.7333 0 2.4166-1.1166 4.4333-1.1167 2.0166-3.0333 3.1-1.9 1.0667-4.4 1.0667-2.9833 0-5.0333-1.8166-2.05-1.8333-2.45-4.7333h2.5166q0.28333 1.4166 0.94999 2.3 0.68333 0.88333 1.8 1.4333 1.1333 0.53333 2.3666 0.53333 2.4166 0 4.15-1.8333 1.7333-1.8333 1.7333-4.5833 0-2.4833-1.5666-4.0333-1.5666-1.55-4.1833-1.55-2.1666 0-5.25 1.3166l2.2666-12.167z" style="fill:#000080;stroke-width:1.0667"/>
  <path d="m437.12 370.45 2.25 1.0667-3.3833 6.2999-1.65-0.69999z" style="fill:#000080;stroke-width:1.0667"/>
  <path d="m442.76 362.7q0-4.85 1.0333-7.4999 1.05-2.65 2.95-4.0166 1.9-1.3667 4.25-1.3667 2.3833 0 4.3166 1.3833 1.9333 1.3667 3.05 4.1166 1.1333 2.75 1.1333 7.3833 0 4.6166-1.1166 7.3499-1.1 2.7333-3.05 4.1333-1.95 1.3833-4.3333 1.3833-2.35 0-4.2333-1.35-1.8833-1.35-2.95-4.0166-1.05-2.6833-1.05-7.4999zm2.3166 0.05q0 4.15 0.73332 6.2833 0.74999 2.1166 2.2 3.2166t3.0666 1.1q1.6333 0 3.05-1.0667 1.4166-1.0833 2.15-3.2333 0.91665-2.6166 0.91665-6.2999 0-3.7-0.81665-6.0499-0.81666-2.3666-2.2666-3.45-1.4333-1.1-3.0333-1.1-1.6333 0-3.0666 1.1-1.4333 1.0833-2.1833 3.2166-0.74999 2.1166-0.74999 6.2833z" style="fill:#000080;stroke-width:1.0667"/>
  <path d="m465.12 356.12h-2.5q0.68332-3.0333 2.6166-4.6666 1.9333-1.6333 4.5666-1.6333 1.9166 0 3.5666 0.88333 1.6666 0.86666 2.5666 2.35 0.91666 1.4833 0.91666 3.1 0 3.1666-3.15 5.0166 1.7666 0.71666 2.9 2.1 1.6 1.95 1.6 4.3666 0 2.0833-1.1 3.9833-1.1 1.8833-3 2.9166-1.9 1.0333-4.25 1.0333-3.1666 0-5.2833-1.8166-2.1166-1.8333-2.7666-5.3666h2.4q0.63333 2.3833 1.8166 3.45 1.5166 1.35 3.8666 1.35 2.6666 0 4.2833-1.6 1.6166-1.6 1.6166-3.75 0-1.4333-0.81666-2.6833-0.79999-1.25-2.1666-1.8833-1.35-0.63333-4.2-0.78332v-2.25q1.6833 0 3.0666-0.58333 1.3833-0.59999 2-1.5166 0.63332-0.91666 0.63332-2 0-1.6-1.2833-2.7666-1.2666-1.1667-3.2166-1.1667-1.5833 0-2.7333 0.89999-1.15 0.88333-1.95 3.0166z" style="fill:#000080;stroke-width:1.0667"/>
  <path d="m484.06 356.12h-2.5q0.68333-3.0333 2.6166-4.6666t4.5666-1.6333q1.9166 0 3.5666 0.88333 1.6666 0.86666 2.5666 2.35 0.91665 1.4833 0.91665 3.1 0 3.1666-3.15 5.0166 1.7666 0.71666 2.9 2.1 1.6 1.95 1.6 4.3666 0 2.0833-1.1 3.9833-1.1 1.8833-3 2.9166-1.9 1.0333-4.25 1.0333-3.1666 0-5.2833-1.8166-2.1166-1.8333-2.7666-5.3666h2.4q0.63332 2.3833 1.8166 3.45 1.5166 1.35 3.8666 1.35 2.6666 0 4.2833-1.6 1.6166-1.6 1.6166-3.75 0-1.4333-0.81666-2.6833-0.79999-1.25-2.1666-1.8833-1.35-0.63333-4.2-0.78332v-2.25q1.6833 0 3.0666-0.58333 1.3833-0.59999 2-1.5166 0.63333-0.91666 0.63333-2 0-1.6-1.2833-2.7666-1.2667-1.1667-3.2166-1.1667-1.5833 0-2.7333 0.89999-1.15 0.88333-1.95 3.0166z" style="fill:#000080;stroke-width:1.0667"/>
  <g transform="translate(2e-6 161.87)">
   <path d="m287.72 222.7v2.3333h-8.7332l-1.2167 6.6833q1.6-0.46666 2.8833-0.46666 3.35 0 5.5166 2.25 2.1833 2.2333 2.1833 5.7333 0 2.4166-1.1166 4.4333-1.1167 2.0166-3.0333 3.1-1.9 1.0666-4.4 1.0666-2.9833 0-5.0333-1.8166-2.05-1.8333-2.45-4.7333h2.5166q0.28333 1.4166 0.94999 2.3 0.68332 0.88332 1.8 1.4333 1.1333 0.53333 2.3666 0.53333 2.4166 0 4.15-1.8333 1.7333-1.8333 1.7333-4.5833 0-2.4833-1.5666-4.0333-1.5666-1.55-4.1833-1.55-2.1666 0-5.25 1.3166l2.2666-12.167z" style="fill:#000080;stroke-width:1.0667"/>
   <g transform="translate(-10.913 186.83)">
    <path d="m310.03 56.418q1.2417 0.61668 1.775 1.4084 0.54168 0.79168 0.54168 1.8 0 1.4167-0.92502 2.5-1.1334 1.325-3.2417 1.325-2.0334 0-3.0834-1.1584-1.05-1.1667-1.05-2.5667 0-1.025 0.55001-1.8417 0.55001-0.82502 1.8334-1.4667-0.90002-0.46668-1.35-1.1584t-0.45001-1.4834q0-0.80002 0.47501-1.5584 0.48334-0.76668 1.325-1.2 0.85001-0.44168 1.8334-0.44168 0.95836 0 1.775 0.44168 0.81668 0.44168 1.275 1.2 0.46668 0.75835 0.46668 1.5917 0 0.83335-0.44168 1.4834-0.43334 0.65001-1.3084 1.125zm-1.825-4.6501q-1.0084 0-1.675 0.60001-0.65835 0.59168-0.65835 1.4167 0 0.81668 0.70835 1.4834 0.71668 0.65835 1.6667 0.65835 0.60834 0 1.15-0.30001t0.84168-0.81668q0.30834-0.52501 0.30834-1.05 0-0.74168-0.60001-1.3667t-1.7417-0.62501zm0.0583 5.2668q-1.2667 0-2.125 0.82502-0.85835 0.81668-0.85835 1.9084 0 0.67501 0.36668 1.275 0.36667 0.60001 1.025 0.92502 0.65834 0.32501 1.525 0.32501 1.3417 0 2.1334-0.79168t0.79168-1.85q0-1.025-0.84168-1.8167-0.83335-0.80002-2.0167-0.80002z" style="fill:#000080;stroke-width:1.0667"/>
    <path d="m304.73 33.818h7.7752l-6.5585 12.567-1.0084-0.51668 5.6668-10.892h-5.8751z" style="fill:#000080;stroke-width:1.0667"/>
   </g>
   <path d="m290.67 235.14h14.133" style="color:#000000;fill-rule:evenodd;fill:#000080;stroke-linecap:round;stroke-linejoin:round;stroke-width:.75591;stroke:#000080"/>
  </g>
  <path d="m287.72 416.57v2.3333h-8.7332l-1.2167 6.6833q1.6-0.46666 2.8833-0.46666 3.35 0 5.5166 2.25 2.1833 2.2333 2.1833 5.7333 0 2.4166-1.1166 4.4333-1.1167 2.0166-3.0333 3.1-1.9 1.0666-4.4 1.0666-2.9833 0-5.0333-1.8166-2.05-1.8333-2.45-4.7333h2.5166q0.28333 1.4166 0.94999 2.3 0.68332 0.88333 1.8 1.4333 1.1333 0.53333 2.3666 0.53333 2.4166 0 4.15-1.8333 1.7333-1.8333 1.7333-4.5833 0-2.4833-1.5666-4.0333-1.5666-1.55-4.1833-1.55-2.1666 0-5.25 1.3166l2.2666-12.167z" style="fill:#000080;stroke-width:1.0667"/>
  <path d="m301.79 416.57h15.55l-13.117 25.133-2.0166-1.0333 11.333-21.783h-11.75z" style="fill:#000080;stroke-width:1.0667"/>
  <path d="m332.2 415.95-10.183 28.466h-2.55l10.167-28.466z" style="fill:#000080;stroke-width:1.0667"/>
  <path d="m346.32 427.64q2.4833 1.2333 3.55 2.8166 1.0833 1.5833 1.0833 3.6 0 2.8333-1.85 5-2.2666 2.65-6.4833 2.65-4.0666 0-6.1666-2.3166-2.1-2.3333-2.1-5.1333 0-2.05 1.1-3.6833 1.1-1.65 3.6666-2.9333-1.8-0.93332-2.7-2.3166-0.9-1.3833-0.9-2.9666 0-1.6 0.95-3.1166 0.96665-1.5333 2.65-2.4 1.7-0.88333 3.6666-0.88333 1.9166 0 3.55 0.88333 1.6333 0.88332 2.55 2.4 0.93332 1.5166 0.93332 3.1833t-0.88332 2.9666q-0.86666 1.3-2.6166 2.25zm-3.65-9.2999q-2.0166 0-3.35 1.2-1.3167 1.1833-1.3167 2.8333 0 1.6333 1.4167 2.9666 1.4333 1.3166 3.3333 1.3166 1.2166 0 2.3-0.59999 1.0833-0.6 1.6833-1.6333 0.61666-1.05 0.61666-2.1 0-1.4833-1.2-2.7333-1.2-1.25-3.4833-1.25zm0.11667 10.533q-2.5333 0-4.25 1.65-1.7166 1.6333-1.7166 3.8166 0 1.35 0.73333 2.55 0.73332 1.2 2.05 1.85 1.3166 0.65 3.05 0.65 2.6833 0 4.2666-1.5833 1.5833-1.5833 1.5833-3.7 0-2.05-1.6833-3.6333-1.6666-1.6-4.0333-1.6z" style="fill:#000080;stroke-width:1.0667"/>
 </g>
</svg>
