<?xml version="1.0" encoding="UTF-8"?>
<svg width="18cm" height="7.5cm" version="1.1" xmlns="http://www.w3.org/2000/svg" xmlns:xlink="http://www.w3.org/1999/xlink">
 <defs>
  <linearGradient id="linearGradient3433" x1="553.27" x2="594.19" y1="209.11" y2="209.11" gradientTransform="matrix(1.585 0 0 1.585 -1903.2 272.61)" gradientUnits="userSpaceOnUse">
   <stop style="stop-color:#ff8500" offset="0"/>
   <stop style="stop-color:#fff" offset="1"/>
  </linearGradient>
  <linearGradient id="linearGradient3439" x1="-142.17" x2="723.02" y1="57.999" y2="57.999" gradientTransform="matrix(0 -.21583 .21583 0 -964.74 677.1)" gradientUnits="userSpaceOnUse">
   <stop style="stop-color:#fff" offset="0"/>
   <stop style="stop-color:#808080" offset="1"/>
  </linearGradient>
  <linearGradient id="linearGradient3445" x1="-142.17" x2="723.02" y1="57.999" y2="57.999" gradientTransform="matrix(0 .21583 -.21583 0 -1149.9 541.37)" gradientUnits="userSpaceOnUse">
   <stop style="stop-color:#fff" offset="0"/>
   <stop style="stop-color:#808080" offset="1"/>
  </linearGradient>
  <linearGradient id="linearGradient3451" x1="-142.17" x2="723.02" y1="57.999" y2="57.999" gradientTransform="matrix(0 -.21583 .21583 0 -1133.3 677.1)" gradientUnits="userSpaceOnUse">
   <stop style="stop-color:#fff" offset="0"/>
   <stop style="stop-color:#808080" offset="1"/>
  </linearGradient>
  <linearGradient id="linearGradient5060" x1="-142.17" x2="723.02" y1="57.999" y2="57.999" gradientTransform="matrix(0 -.19479 .19479 0 449.85 -303.06)" gradientUnits="userSpaceOnUse">
   <stop style="stop-color:#fff" offset="0"/>
   <stop style="stop-color:#808080" offset="1"/>
  </linearGradient>
  <linearGradient id="linearGradient5062" x1="-142.17" x2="723.02" y1="57.999" y2="57.999" gradientTransform="matrix(0 .19479 -.19479 0 434.85 -425.55)" gradientUnits="userSpaceOnUse">
   <stop style="stop-color:#fff" offset="0"/>
   <stop style="stop-color:#808080" offset="1"/>
  </linearGradient>
  <linearGradient id="linearGradient5074" x1="-142.17" x2="723.02" y1="57.999" y2="57.999" gradientTransform="matrix(0 -.19479 .19479 0 720.39 -303.06)" gradientUnits="userSpaceOnUse">
   <stop style="stop-color:#ff8500" offset="0"/>
   <stop style="stop-color:#fff" offset="1"/>
  </linearGradient>
  <linearGradient id="linearGradient5076" x1="553.27" x2="594.19" y1="209.11" y2="209.11" gradientTransform="matrix(1.4305 0 0 1.4305 -126.61 -668.11)" gradientUnits="userSpaceOnUse">
   <stop style="stop-color:#ff8500" offset="0"/>
   <stop style="stop-color:#fff" offset="1"/>
  </linearGradient>
 </defs>
 <g transform="translate(0 -56.693)">
  <path d="m-1089.7 707.32c-11.869 1.1681-20.557-10.145-25.944-19.535l-32.049-55.857c-3.1978-5.5734-4.1934-12.779-4.0442-18.848 0.5617-2.8678 3.124-2.3367 4.1206-1.2972l15.948 16.635c2.9277 3.2844 5.2594 0.90902 5.4178-0.91568l6.6388-76.46c1.2072-13.905 10.172-29.304 29.607-29.607z" style="fill:url(#linearGradient3451);stroke-linecap:round;stroke-linejoin:round;stroke-width:1.8898;stroke:#7d7d7d"/>
  <path d="m-1115.8 687.57c9.0804 6.2605 17.34 6.7765 25.576 7.1224" style="fill:none;stroke-linecap:round;stroke-linejoin:round;stroke-width:.94488;stroke:#7d7d7d"/>
  <path d="m-1147.9 631.78c19.507 7.6637 38.723 9.2183 57.95 11.007" style="fill:none;stroke-linecap:round;stroke-linejoin:round;stroke-width:.94488;stroke:#7d7d7d"/>
  <path d="m-1089.7 707.32c-11.869 1.1681-20.557-10.145-25.944-19.535l-32.049-55.857c-3.1978-5.5734-4.1934-12.779-4.0442-18.848 0.5617-2.8678 3.124-2.3367 4.1206-1.2972l15.948 16.635c2.9277 3.2844 5.2594 0.90902 5.4178-0.91568l6.6388-76.46c1.2072-13.905 10.172-29.304 29.607-29.607z" style="fill:none;stroke-linecap:round;stroke-linejoin:round;stroke-width:3.7795;stroke:#000"/>
  <path d="m-1193.5 511.16c11.869-1.1681 20.557 10.145 25.944 19.535l32.049 55.857c3.1979 5.5734 4.1934 12.779 4.0443 18.848-0.5617 2.8678-3.1241 2.3367-4.1206 1.2972l-15.948-16.635c-2.9277-3.2844-5.2594-0.90899-5.4178 0.91569l-6.6388 76.46c-1.2073 13.905-10.172 29.304-29.607 29.607z" style="fill:url(#linearGradient3445);stroke-linecap:round;stroke-linejoin:round;stroke-width:1.8898;stroke:#7d7d7d"/>
  <path d="m-1167.4 530.91c-9.0804-6.2605-17.34-6.7765-25.576-7.1224" style="fill:none;stroke-linecap:round;stroke-linejoin:round;stroke-width:.94488;stroke:#7d7d7d"/>
  <path d="m-1135.3 586.7c-19.507-7.6637-38.723-9.2183-57.95-11.007" style="fill:none;stroke-linecap:round;stroke-linejoin:round;stroke-width:.94488;stroke:#7d7d7d"/>
  <path d="m-1193.5 511.16c11.869-1.1681 20.557 10.145 25.944 19.535l32.049 55.857c3.1979 5.5734 4.1934 12.779 4.0443 18.848-0.5617 2.8678-3.1241 2.3367-4.1206 1.2972l-15.948-16.635c-2.9277-3.2844-5.2594-0.90899-5.4178 0.91569l-6.6388 76.46c-1.2073 13.905-10.172 29.304-29.607 29.607z" style="fill:none;stroke-linecap:round;stroke-linejoin:round;stroke-width:3.7795;stroke:#000"/>
  <path d="m-921.2 707.32c-11.869 1.1681-20.557-10.145-25.944-19.535l-32.049-55.857c-3.1978-5.5734-4.1934-12.779-4.0443-18.848 0.56173-2.8678 3.1241-2.3367 4.1206-1.2972l15.948 16.635c2.9277 3.2844 5.2594 0.90902 5.4178-0.91568l6.6387-76.46c1.2073-13.905 10.173-29.304 29.607-29.607z" style="fill:url(#linearGradient3439);stroke-linecap:round;stroke-linejoin:round;stroke-width:1.8898;stroke:#7d7d7d"/>
  <path d="m-947.22 687.57c9.0805 6.2605 17.34 6.7765 25.576 7.1224" style="fill:none;stroke-linecap:round;stroke-linejoin:round;stroke-width:.94488;stroke:#7d7d7d"/>
  <path d="m-979.38 631.78c19.507 7.6637 38.723 9.2183 57.95 11.007" style="fill:none;stroke-linecap:round;stroke-linejoin:round;stroke-width:.94488;stroke:#7d7d7d"/>
  <path d="m-921.2 707.32c-11.869 1.1681-20.557-10.145-25.944-19.535l-32.049-55.857c-3.1978-5.5734-4.1934-12.779-4.0443-18.848 0.56173-2.8678 3.1241-2.3367 4.1206-1.2972l15.948 16.635c2.9277 3.2844 5.2594 0.90902 5.4178-0.91568l6.6387-76.46c1.2073-13.905 10.173-29.304 29.607-29.607z" style="fill:none;stroke-linecap:round;stroke-linejoin:round;stroke-width:3.7795;stroke:#000"/>
  <path d="m-1024.9 511.16c11.869-1.1681 20.557 10.145 25.944 19.535l32.049 55.857c3.1979 5.5734 4.1934 12.779 4.0443 18.848-0.56173 2.8678-3.124 2.3367-4.1206 1.2972l-15.948-16.635c-2.9277-3.2844-5.2594-0.909-5.4178 0.91568l-6.6387 76.46c-1.2073 13.905-10.173 29.304-29.607 29.607z" style="fill:url(#linearGradient3433);stroke-linecap:round;stroke-linejoin:round;stroke-width:1.8898;stroke:#7d7d7d"/>
  <path d="m-998.89 530.91c-9.0804-6.2605-17.34-6.7765-25.576-7.1224" style="fill:none;stroke-linecap:round;stroke-linejoin:round;stroke-width:.94488;stroke:#7d7d7d"/>
  <path d="m-966.73 586.7c-19.507-7.6637-38.723-9.2183-57.95-11.007" style="fill:none;stroke-linecap:round;stroke-linejoin:round;stroke-width:.94488;stroke:#7d7d7d"/>
  <path d="m-1024.9 511.16c11.869-1.1681 20.557 10.145 25.944 19.535l32.049 55.857c3.1979 5.5734 4.1934 12.779 4.0443 18.848-0.56173 2.8678-3.124 2.3367-4.1206 1.2972l-15.948-16.635c-2.9277-3.2844-5.2594-0.909-5.4178 0.91568l-6.6387 76.46c-1.2073 13.905-10.173 29.304-29.607 29.607z" style="fill:none;stroke-linecap:round;stroke-linejoin:round;stroke-width:3.7795;stroke:#f00"/>
  <path d="m-1209 498.54v210.42h85.128v-210.42z" style="fill:none;stroke-linecap:round;stroke-linejoin:round;stroke-width:.75591;stroke:#000"/>
  <g transform="rotate(-90 -212.91 1064.4)">
   <path d="m234.83 220.11 6.2408 9.9675 6.2408-9.9675z" style="fill:#1f638a;stroke-linecap:round;stroke-linejoin:round;stroke-width:.37795;stroke:#1f638a"/>
   <rect transform="matrix(0,1,1,0,0,0)" x="209.81" y="238.21" width="11.439" height="5.7059" style="fill:#1f638a;stroke-linecap:round;stroke-linejoin:round;stroke-width:.37795;stroke:#1f638a"/>
  </g>
  <path d="m-892.09 481.38v246.8" style="fill:none;stroke-width:1.0667px;stroke:#7d7d7d"/>
  <path d="m-1208.8 523.71 6.2254-5.1469 6.9023 14.13 6.2932-3.0742-6.9023-14.13 7.4286-1.523-19.542-14.716z" style="fill:#fff;stroke-linecap:round;stroke-linejoin:round;stroke-width:.75591;stroke:#000"/>
  <path d="m-1208.5 498.52c10.039-44.495 120.98 9.034 87.825 194.44" style="fill:none;stroke-dasharray:1.06582679, 2.13165355;stroke-width:1.0658;stroke:#000"/>
  <path d="m-1123.4 708.6 8.3093-16.201-10.966-1.0956z" style="fill:none;stroke-dasharray:1.06582679, 1.06582679;stroke-width:1.0658;stroke:#000"/>
  <path d="m-1124.1 733.51 6.2253-5.147 6.9023 14.13 6.2933-3.0742-6.9023-14.13 7.4286-1.523-19.542-14.716z" style="fill:#fff;stroke-linecap:round;stroke-linejoin:round;stroke-width:.75591;stroke:#000"/>
  <path d="m-433.48 456.69 6.2254-5.147 6.9023 14.13 6.2932-3.0742-6.9023-14.13 7.4286-1.523-19.542-14.716z" style="fill:#fff;stroke-linecap:round;stroke-linejoin:round;stroke-width:.75591;stroke:#000"/>
  <path d="m-488.48 484.99 6.2254-5.1469 6.9023 14.13 6.2932-3.0742-6.9023-14.13 7.4286-1.523-19.542-14.716z" style="fill:#fff;stroke-linecap:round;stroke-linejoin:round;stroke-width:.75591;stroke:#000"/>
  <g transform="rotate(-90 574.68 31.246)">
   <path d="m489.14-275.79c-10.711 1.0542-18.553-9.1559-23.415-17.63l-28.924-50.411c-2.8861-5.03-3.7846-11.533-3.65-17.01 0.50696-2.5882 2.8195-2.1088 3.7188-1.1708l14.393 15.013c2.6422 2.9642 4.7466 0.82038 4.8896-0.8264l5.9915-69.005c1.0896-12.549 9.1807-26.447 26.721-26.721z" style="fill:url(#linearGradient5060);stroke-linecap:round;stroke-linejoin:round;stroke-width:1.8898;stroke:#7d7d7d"/>
   <path d="m465.66-293.61c8.1951 5.6501 15.65 6.1158 23.082 6.428" style="fill:none;stroke-linecap:round;stroke-linejoin:round;stroke-width:.94488;stroke:#7d7d7d"/>
   <path d="m436.64-343.96c17.605 6.9165 34.948 8.3195 52.3 9.9341" style="fill:none;stroke-linecap:round;stroke-linejoin:round;stroke-width:.94488;stroke:#7d7d7d"/>
   <path d="m489.14-275.79c-10.711 1.0542-18.553-9.1559-23.415-17.63l-28.924-50.411c-2.8861-5.03-3.7846-11.533-3.65-17.01 0.50696-2.5882 2.8195-2.1088 3.7188-1.1708l14.393 15.013c2.6422 2.9642 4.7466 0.82038 4.8896-0.8264l5.9915-69.005c1.0896-12.549 9.1807-26.447 26.721-26.721z" style="fill:none;stroke-linecap:round;stroke-linejoin:round;stroke-width:3.7795;stroke:#000"/>
   <path d="m395.55-452.82c10.711-1.0542 18.553 9.1559 23.415 17.63l28.924 50.411c2.8861 5.03 3.7846 11.533 3.65 17.01-0.50695 2.5882-2.8195 2.1088-3.7188 1.1707l-14.393-15.013c-2.6422-2.9642-4.7466-0.82038-4.8896 0.82641l-5.9915 69.005c-1.0896 12.549-9.1807 26.447-26.721 26.721z" style="fill:url(#linearGradient5062);stroke-linecap:round;stroke-linejoin:round;stroke-width:1.8898;stroke:#7d7d7d"/>
   <path d="m419.03-435c-8.1951-5.6501-15.65-6.1158-23.082-6.428" style="fill:none;stroke-linecap:round;stroke-linejoin:round;stroke-width:.94488;stroke:#7d7d7d"/>
   <path d="m448.05-384.65c-17.605-6.9165-34.948-8.3195-52.3-9.9341" style="fill:none;stroke-linecap:round;stroke-linejoin:round;stroke-width:.94488;stroke:#7d7d7d"/>
   <path d="m395.55-452.82c10.711-1.0542 18.553 9.1559 23.415 17.63l28.924 50.411c2.8861 5.03 3.7846 11.533 3.65 17.01-0.50695 2.5882-2.8195 2.1088-3.7188 1.1707l-14.393-15.013c-2.6422-2.9642-4.7466-0.82038-4.8896 0.82641l-5.9915 69.005c-1.0896 12.549-9.1807 26.447-26.721 26.721z" style="fill:none;stroke-linecap:round;stroke-linejoin:round;stroke-width:3.7795;stroke:#000"/>
  </g>
  <g transform="rotate(-90 892.22 -6.7027)">
   <path d="m759.68-275.79c-10.711 1.0542-18.553-9.1559-23.415-17.63l-28.924-50.411c-2.8861-5.03-3.7846-11.533-3.65-17.01 0.50697-2.5882 2.8195-2.1089 3.7188-1.1708l14.393 15.013c2.6423 2.9642 4.7466 0.82038 4.8896-0.8264l5.9914-69.005c1.0896-12.549 9.1807-26.447 26.721-26.721z" style="fill:url(#linearGradient5074);stroke-linecap:round;stroke-linejoin:round;stroke-width:1.8898;stroke:#7d7d7d"/>
   <path d="m736.2-293.61c8.1951 5.6501 15.65 6.1158 23.082 6.428" style="fill:none;stroke-linecap:round;stroke-linejoin:round;stroke-width:.94488;stroke:#7d7d7d"/>
   <path d="m707.18-343.96c17.605 6.9165 34.948 8.3195 52.3 9.9341" style="fill:none;stroke-linecap:round;stroke-linejoin:round;stroke-width:.94488;stroke:#7d7d7d"/>
   <path d="m759.68-275.79c-10.711 1.0542-18.553-9.1559-23.415-17.63l-28.924-50.411c-2.8861-5.03-3.7846-11.533-3.65-17.01 0.50697-2.5882 2.8195-2.1089 3.7188-1.1708l14.393 15.013c2.6423 2.9642 4.7466 0.82038 4.8896-0.8264l5.9914-69.005c1.0896-12.549 9.1807-26.447 26.721-26.721z" style="fill:none;stroke-linecap:round;stroke-linejoin:round;stroke-width:3.7795;stroke:#f00"/>
   <path d="m666.09-452.82c10.711-1.0542 18.553 9.1559 23.415 17.63l28.924 50.411c2.8861 5.03 3.7846 11.533 3.65 17.01-0.50696 2.5882-2.8195 2.1089-3.7188 1.1708l-14.393-15.013c-2.6422-2.9642-4.7466-0.82037-4.8896 0.82641l-5.9915 69.005c-1.0896 12.549-9.1807 26.447-26.721 26.721z" style="fill:url(#linearGradient5076);stroke-linecap:round;stroke-linejoin:round;stroke-width:1.8898;stroke:#7d7d7d"/>
   <path d="m689.57-435c-8.1951-5.6501-15.65-6.1158-23.082-6.4279" style="fill:none;stroke-linecap:round;stroke-linejoin:round;stroke-width:.94488;stroke:#7d7d7d"/>
   <path d="m718.59-384.65c-17.605-6.9165-34.948-8.3195-52.3-9.9341" style="fill:none;stroke-linecap:round;stroke-linejoin:round;stroke-width:.94488;stroke:#7d7d7d"/>
   <path d="m666.09-452.82c10.711-1.0542 18.553 9.1559 23.415 17.63l28.924 50.411c2.8861 5.03 3.7846 11.533 3.65 17.01-0.50696 2.5882-2.8195 2.1089-3.7188 1.1708l-14.393-15.013c-2.6422-2.9642-4.7466-0.82037-4.8896 0.82641l-5.9915 69.005c-1.0896 12.549-9.1807 26.447-26.721 26.721z" style="fill:none;stroke-linecap:round;stroke-linejoin:round;stroke-width:3.7795;stroke:#f00"/>
  </g>
  <circle transform="scale(1,-1)" cx="279.02" cy="-89.353" r="13.045" style="color:#000000;fill:#b3b3b3;stroke-linecap:round;stroke-linejoin:round;stroke-width:1.8898;stroke:#666"/>
  <circle cx="115.1" cy="230.04" r="8.5039" style="color:#000000;fill:#ccc;stroke-linecap:round;stroke-linejoin:round;stroke-width:1.8898;stroke:#ccc"/>
  <path d="m113.51 89.381v140.02h165.54v-140.02z" style="fill:none;stroke-linecap:round;stroke-linejoin:round;stroke-width:.75591;stroke:#000"/>
  <path d="m278.46 87.527c-16.53-36.214-221.52-24.785-166.93 126.11" style="fill:none;stroke-dasharray:1.06582676, 2.13165346;stroke-width:1.0658;stroke:#000"/>
  <path d="m113.63 228.61-7.4992-14.622 9.8966-0.98877z" style="fill:none;stroke-dasharray:1.06582679, 1.06582679;stroke-width:1.0658;stroke:#000"/>
  <text x="-1216.3834" y="506.2244" style="fill:#000000;font-family:'Arial Nova', 'Arial Unicode MS', 'Yu Gothic UI', sans-serif;font-size:12.8px;font-weight:bold;letter-spacing:0px;line-height:0%;stroke-width:1.0667;word-spacing:0px" xml:space="preserve"><tspan x="-1216.3834" y="506.2244" style="stroke-width:1.0667">1</tspan></text>
  <text x="-406.08237" y="677.43024" style="fill:#000000;font-family:'Arial Nova', 'Arial Unicode MS', 'Yu Gothic UI', sans-serif;font-size:12.8px;font-weight:bold;letter-spacing:0px;line-height:0%;stroke-width:1.0667;word-spacing:0px" xml:space="preserve"><tspan x="-406.08237" y="677.43024" style="stroke-width:1.0667">1</tspan></text>
  <text x="-1133.8785" y="704.87262" style="fill:#000000;font-family:'Arial Nova', 'Arial Unicode MS', 'Yu Gothic UI', sans-serif;font-size:12.8px;font-weight:bold;letter-spacing:0px;line-height:0%;stroke-width:1.0667;word-spacing:0px" xml:space="preserve"><tspan x="-1133.8785" y="704.87262" style="stroke-width:1.0667">2</tspan></text>
  <text x="-503.38919" y="721.75598" style="fill:#000000;font-family:'Arial Nova', 'Arial Unicode MS', 'Yu Gothic UI', sans-serif;font-size:12.8px;font-weight:bold;letter-spacing:0px;line-height:0%;stroke-width:1.0667;word-spacing:0px" xml:space="preserve"><tspan x="-503.38919" y="721.75598" style="stroke-width:1.0667">2</tspan></text>
  <g transform="translate(-933.68 -460.81)">
   <ellipse cx="316.95" cy="1090.1" rx="13.199" ry="13.469" style="fill:#1f638a;stroke-linecap:round;stroke-linejoin:round;stroke-width:1.0658"/>
   <text x="309.284" y="1096.9897" style="fill:#000000;font-family:'Arial Nova', 'Arial Unicode MS', 'Yu Gothic UI', sans-serif;font-size:12.8px;letter-spacing:0px;line-height:0%;stroke-width:1.0667;word-spacing:0px" xml:space="preserve"><tspan x="309.284" y="1096.9897" style="fill:#ffffff;font-family:'Arial Nova', 'Arial Unicode MS', 'Yu Gothic UI', sans-serif;font-size:21.333px;font-weight:bold;stroke-width:1.0667">A</tspan></text>
  </g>
  <g transform="translate(-841.58 -460.81)">
   <ellipse cx="561.62" cy="1090.1" rx="13.199" ry="13.469" style="fill:#1f638a;stroke-linecap:round;stroke-linejoin:round;stroke-width:1.0658"/>
   <text x="554.74164" y="1097.7629" style="fill:#000000;font-family:'Arial Nova', 'Arial Unicode MS', 'Yu Gothic UI', sans-serif;font-size:12.8px;letter-spacing:0px;line-height:0%;stroke-width:1.0667;word-spacing:0px" xml:space="preserve"><tspan x="554.74164" y="1097.7629" style="fill:#ffffff;font-family:'Arial Nova', 'Arial Unicode MS', 'Yu Gothic UI', sans-serif;font-size:21.333px;font-weight:bold;stroke-width:1.0667">B</tspan></text>
  </g>
  <circle cx="279.02" cy="89.582" r="13.045" style="color:#000000;fill:none;stroke-linecap:round;stroke-linejoin:round;stroke-width:1.8898;stroke:#666"/>
  <path d="m346.96 102.94c3.5971 3.8164 4.643 6.6469 5.3944 11.159 2.4111 14.479 5.9867 21.444 9.4548 34.079l6.4656 12.722c3.0916 25.555-13.298 17.849-34.539 17.936-4.1859-5.1482-9.1789-10.329-13.46-13.347-7.0387-4.9629-12.836-7.6343-19.172-14.07-1.3439-1.3651-13.805-10.463-15.842-12.882-2.0367-2.4183-2.9379-2.734-4.1931-4.6873-1.2552-1.9533-2.6161-5.746-2.6161-5.746l-4.8962-6.1673c-0.36453-1.3997-1.8747-1.4033 1.7337-2.3333 7.148-0.52578 8.6597 3.3926 11.956 7.6522 0.5612 0.3781 1.4961 1.094 2.1772 1.3694 4.3329 1.7521 9.82 2.5456 14.18 4.268 0.94224 0.26996 3.622 0.3068 4.3982-0.14284 4.1268-3.2502 3.1842-7.2136 1.4892-9.969-3.055-4.9661-7.6526-7.8857-9.911-13.278-1.1039-0.7373-12.387-12.314-14.663-14.123-1.0651-0.84673-3.4141-3.0475-5.2732-4.357-0.14777-1.4504 0.26302-3.2569 2.5476-2.596 4.8849-1.0625 13.386 5.5714 16.853 6.6217 2.0577 0.66633 5.6554 2.5004 9.3282 5.3077 17.366 14.33 16.94 15.769 0.63908-0.23658 8.0334-5.9087 8.6102-4.8096 9.9521-4.6374 5.7193 3.2039 11.046 11.031 16.161 16.47l-10.392-12.036c-1.0059-1.4271 7.8368-4.2704 9.3126-2.687l11.606 11.434-5.2904-5.6755c1.7086-0.39983 4.6284-1.565 6.5985-0.0475z" style="color:#000000;fill:#fff;stroke-dasharray:2.13333333, 2.13333333;stroke-linecap:round;stroke-linejoin:round;stroke-width:1.0667;stroke:#000"/>
  <g transform="translate(269.71 622.97)">
   <path d="m-87.867-378.09c3.5971 3.8164 4.643 6.6469 5.3944 11.159 2.4111 14.479 5.9867 21.444 9.4548 34.079l6.4656 12.722c3.0916 25.555-13.298 17.849-34.539 17.936-4.1859-5.1482-9.1789-10.329-13.46-13.347-7.0387-4.963-12.836-7.6343-19.172-14.07-1.3439-1.3651-13.805-10.463-15.842-12.882-2.0367-2.4183-2.9379-2.734-4.1931-4.6873s-2.6161-5.746-2.6161-5.746l-4.8962-6.1673c-0.36453-1.3997-1.8747-1.4033 1.7337-2.3333 7.148-0.52579 8.6597 3.3926 11.956 7.6522 0.5612 0.3781 1.4961 1.094 2.1772 1.3694 4.3329 1.7521 9.82 2.5456 14.18 4.268 0.94224 0.26995 3.622 0.3068 4.3982-0.14285 4.1268-3.2502 3.1842-7.2136 1.4891-9.969-3.055-4.9661-7.6526-7.8857-9.911-13.278-1.1039-0.7373-12.387-12.314-14.663-14.123-1.0651-0.84673-3.4141-3.0475-5.2732-4.357-2.3162-2.3932-0.86835-4.0111 2.5476-2.596 4.8849-1.0625 13.386 5.5714 16.853 6.6217 5.717 1.8513 21.866 16.356 25.116 19.12l-14.3-14.804c8.0334-5.9087 7.7616-4.0554 9.1035-3.8832 5.7193 3.2039 10.386 10.277 15.501 15.716l-8.0349-12.225c-1.0059-1.4271 6.1398-3.3276 7.6156-1.7442l10.569 11.339-3.0276-6.2412c1.7086-0.39983 3.4028-0.905 5.3728 0.61244z" style="color:#000000;fill:#ac9d93;stroke-linecap:round;stroke-linejoin:round;stroke-width:1.8898;stroke:#e9c6af"/>
   <path d="m-124.96-381.54 3.8174-4.7132c2.1325-1.6884 4.1958-2.2855 6.8615-0.50825 1.9082 1.2722 3.5338 2.4572 5.0826 3.939 4.4538 4.891 6.7623 7.2054 10.091 11.509" style="color:#000000;fill:none;stroke-linecap:round;stroke-linejoin:round;stroke-width:1.8898;stroke:#463c37"/>
   <path d="m-108.47-382.54s1.2163-1.7364 2.8594-2.6313c1.4495-0.78943 4.4377-1.622 5.972-0.0953 3.5377 3.8063 7.2511 7.4512 10.724 11.317" style="color:#000000;fill:none;stroke-linecap:round;stroke-linejoin:round;stroke-width:1.8898;stroke:#463c37"/>
   <path d="m-93.285-378.66c0.98756-0.57314 1.758-0.90434 2.7246-1.2322 1.9101-0.64799 3.5181-0.17439 5.5908 2.3825 3.6012 4.4423 3.6993 6.5931 4.5454 11.154 2.6773 14.432 3.939 20.872 7.4071 33.508l6.4656 12.722c3.0916 25.555-13.298 17.849-34.539 17.936-4.1859-5.1482-9.1789-10.329-13.46-13.347-7.0387-4.9629-12.836-7.6343-19.172-14.07-1.3439-1.3651-13.805-10.463-15.842-12.882-2.0367-2.4183-2.9379-2.734-4.1931-4.6873s-2.6161-5.746-2.6161-5.746l-4.8962-6.1673c-1.0406-1.625-2.2699-3.3128 1.3528-4.238 7.148-0.52578 10.374 3.8212 13.67 8.0808l1.5171 1.1205c3.6592 1.3979 14.391 3.6856 17.873 5.7551 4.2068-3.4407 3.2166-7.1183 1.5216-9.8738-3.055-4.9661-7.6526-7.8857-9.911-13.278-1.1039-0.7373-12.387-12.314-14.663-14.123-1.0651-0.84673-3.4141-3.0475-5.2732-4.357-1.1859-0.88945-1.4401-2.033-0.76238-3.4307 0.76238-1.2706 2.0943-0.5824 4.3202-0.91621 4.9438-0.74141 13.487 5.7061 16.954 6.7564 5.8857 2.7368 16.248 11.304 21.025 15.308l4.1723 3.7426" style="color:#000000;fill:none;stroke-linecap:round;stroke-linejoin:round;stroke-width:1.8898;stroke:#463c37"/>
  </g>
  <g transform="translate(-80.053 139.71)">
   <ellipse cx="122.72" cy="48.983" rx="13.199" ry="13.469" style="fill:#1f638a;stroke-linecap:round;stroke-linejoin:round;stroke-width:1.0658"/>
   <text x="116.87816" y="56.649761" style="fill:#000000;font-family:'Arial Nova', 'Arial Unicode MS', 'Yu Gothic UI', sans-serif;font-size:12.8px;letter-spacing:0px;line-height:0%;stroke-width:1.0667;word-spacing:0px" xml:space="preserve"><tspan x="116.87816" y="56.649761" style="fill:#ffffff;font-family:'Arial Nova', 'Arial Unicode MS', 'Yu Gothic UI', sans-serif;font-size:21.333px;font-weight:bold;stroke-width:1.0667">7</tspan></text>
  </g>
  <g transform="rotate(-90 302.51 119.25)">
   <path d="m234.83 220.11 6.2408 9.9675 6.2408-9.9675z" style="fill:#1f638a;stroke-linecap:round;stroke-linejoin:round;stroke-width:.37795;stroke:#1f638a"/>
   <rect transform="matrix(0,1,1,0,0,0)" x="209.81" y="238.21" width="11.439" height="5.7059" style="fill:#1f638a;stroke-linecap:round;stroke-linejoin:round;stroke-width:.37795;stroke:#1f638a"/>
  </g>
 </g>
</svg>
