<?xml version="1.0" encoding="UTF-8" standalone="no"?>
<svg
   width="18cm"
   height="10cm"
   overflow="visible"
   version="1.0"
   viewBox="11.003 -846.06 680.31 377.95"
   id="svg1082"
   sodipodi:docname="Kurve_kompensieren_01.svg"
   inkscape:version="1.1 (c68e22c387, 2021-05-23)"
   xmlns:inkscape="http://www.inkscape.org/namespaces/inkscape"
   xmlns:sodipodi="http://sodipodi.sourceforge.net/DTD/sodipodi-0.dtd"
   xmlns="http://www.w3.org/2000/svg"
   xmlns:svg="http://www.w3.org/2000/svg">
  <sodipodi:namedview
     id="namedview1084"
     pagecolor="#ffffff"
     bordercolor="#666666"
     borderopacity="1.0"
     inkscape:pageshadow="2"
     inkscape:pageopacity="0.0"
     inkscape:pagecheckerboard="0"
     inkscape:document-units="cm"
     showgrid="false"
     inkscape:zoom="1.7242014"
     inkscape:cx="340.15748"
     inkscape:cy="188.78305"
     inkscape:window-width="1920"
     inkscape:window-height="1017"
     inkscape:window-x="1912"
     inkscape:window-y="-1"
     inkscape:window-maximized="1"
     inkscape:current-layer="svg1082" />
  <defs
     id="defs1038">
    <radialGradient
       id="radialGradient3265"
       cx="369.46"
       cy="-668.9"
       r="321.09"
       gradientTransform="matrix(1.2513 .37154 -.15981 .53822 -193.31 -436.74)"
       gradientUnits="userSpaceOnUse">
      <stop
         stop-color="#f00"
         stop-opacity=".13687"
         offset="0"
         id="stop1033" />
      <stop
         stop-color="#f00"
         stop-opacity="0"
         offset="1"
         id="stop1035" />
    </radialGradient>
  </defs>
  <path
     id="ID_8C"
     d="m29.979-833.14 1.7754 12.629 2.0013 12.601 2.2451 12.572 2.5068 12.54 2.7864 12.506 3.0838 12.47 3.3991 12.432 3.7323 12.392 4.0846 12.339 4.463 12.217 4.87 12.007 5.3054 11.708 5.7694 11.32 6.262 10.843 6.783 10.277 7.3326 9.6225 7.9096 8.8929 8.5066 8.1708 9.1211 7.4865 9.7531 6.8401 10.402 6.2315 11.069 5.6609 11.747 5.1275 12.267 4.6141 12.442 4.102 12.373 3.6094 12.291 3.177 12.226 2.81 12.177 2.5084 12.145 2.2721 12.129 2.1012 12.13 1.9958 12.147 1.9518 12.17 1.9292 12.191 1.9043 12.212 1.8768 12.233 1.8467 12.252 1.814 12.271 1.7787 12.29 1.7408 12.307 1.7003 12.324 1.6572 12.34 1.6115 12.356 1.5631 12.371 1.5122 12.385 1.4587 12.398 1.4026 12.411 1.3439 12.423 1.2826 12.435 1.2187 12.445 1.1522 12.455 1.0831 12.465 1.0114 12.474 0.93709 12.482 0.86019 12.489 0.78067 12.496 0.69857 12.502 0.61387 12.507 0.52655 12.511 0.43665 12.515 0.34415 12.518 0.24903 12.521 0.15133 12.523 0.051"
     color="#260000"
     fill="none"
     stroke="#f00"
     stroke-dasharray="3.77953, 3.77953"
     stroke-linecap="round"
     stroke-linejoin="round"
     stroke-width="1.8898" />
  <g
     transform="translate(0,-6)"
     fill="none"
     stroke="#f00"
     stroke-width="3.7795"
     id="g1052">
    <path
       d="m229.76-584.14 2.5983 0.52797 2.5588 0.51669 2.521 0.50579 2.4849 0.4953 2.4503 0.48517 2.4172 0.47542 2.3857 0.46604 2.3557 0.45701 2.3271 0.44832 2.2999 0.43998 2.2741 0.43195 2.2497 0.42425 2.2265 0.41686 2.2046 0.40977 2.184 0.40299 2.1646 0.39647 2.1463 0.39025 2.1291 0.38428 2.1131 0.37858 2.0981 0.37312 2.0841 0.36792 2.0711 0.36295 2.059 0.35818 2.0479 0.35366 2.0376 0.34933 2.0282 0.3452 2.0196 0.34126 2.0117 0.33751 2.0046 0.33394 1.9982 0.33051 1.9925 0.32725 1.9873 0.32414 1.9828 0.32117 1.9788 0.31833 1.9754 0.3156 1.9724 0.31299 1.9699 0.3105 1.9678 0.30808 1.9661 0.30576 1.9647 0.30353 1.9636 0.30136 1.9628 0.29924 1.9622 0.29718 1.9618 0.29517 1.9616 0.2932 1.9616 0.29125 1.9616 0.28932 1.9616 0.28739"
       color="#260000"
       id="path1041" />
    <path
       d="m331.76-566.33 7.0617 1.0192 7.063 0.99556 7.0643 0.97211 7.0655 0.9488 7.0667 0.92561 7.0678 0.90256 7.0689 0.87961 7.0699 0.8568 7.0708 0.83411 7.0718 0.81153 7.0726 0.78906 7.0735 0.76671 7.0742 0.74446 7.075 0.72231 7.0757 0.70026 7.0763 0.67832 7.0769 0.65647 7.0775 0.63472 7.078 0.61305 7.0785 0.59146 7.079 0.56998 7.0794 0.54856 7.0798 0.52723 7.0802 0.50598 7.0805 0.48478 7.0809 0.46368 7.0811 0.44263 7.0814 0.42164 7.0816 0.40073 7.0818 0.37987 7.082 0.35907 7.0822 0.33831 7.0823 0.31763 7.0825 0.29697 7.0826 0.27636 7.0827 0.25579 7.0828 0.23528 7.0828 0.21478 7.0829 0.19434 7.0829 0.17391 7.083 0.15351 7.083 0.13315 7.083 0.1128 7.083 0.0925 7.083 0.0721 7.083 0.0519 7.083 0.0316 7.083 0.0113"
       color="#260000"
       id="path1043" />
    <path
       d="m38.275-790.58 0.42054 1.6576 0.42834 1.6573 0.43563 1.6568 0.44246 1.6562 0.44883 1.6554 0.45479 1.6545 0.46036 1.6535 0.46556 1.6524 0.47042 1.6512 0.47496 1.65 0.47922 1.6487 0.48321 1.6475 0.48696 1.6463 0.4905 1.6451 0.49385 1.6441 0.49702 1.6431 0.50005 1.6422 0.50295 1.6414 0.50574 1.6407 0.50844 1.6401 0.51107 1.6397 0.51363 1.6394 0.51615 1.6392 0.51863 1.6391 0.52108 1.6391 0.52352 1.6391 0.52593 1.6392 0.52834 1.6392 0.53073 1.6392 0.53311 1.6391 0.53547 1.6388 0.5378 1.6383 0.54009 1.6375 0.54234 1.6362 0.54452 1.6345 0.54661 1.6322 0.5486 1.6292 0.55045 1.6254 0.55214 1.6206 0.55363 1.6147 0.55488 1.6076 0.55586 1.599 0.55652 1.5888 0.55682 1.5768 0.55668 1.5628 0.55607 1.5466 0.55492 1.528 0.55316 1.5066"
       color="#260000"
       id="path1045" />
    <path
       d="m107.54-634.22 1.1987 1.2044 1.2143 1.1886 1.2301 1.1731 1.2463 1.1576 1.2629 1.1423 1.2797 1.1271 1.297 1.112 1.3145 1.097 1.3324 1.0821 1.3506 1.0674 1.3692 1.0527 1.3882 1.0381 1.4074 1.0237 1.4271 1.0093 1.4471 0.99497 1.4674 0.98071 1.4881 0.96655 1.5092 0.95243 1.5306 0.93839 1.5524 0.92437 1.5746 0.9104 1.5971 0.89648 1.62 0.88256 1.6433 0.86868 1.667 0.8548 1.691 0.84093 1.7154 0.82705 1.7402 0.81317 1.7654 0.79926 1.7909 0.78531 1.8169 0.77134 1.8432 0.75731 1.8699 0.74323 1.8971 0.72909 1.9246 0.71486 1.9525 0.70055 1.9808 0.68614 2.0096 0.67163 2.0387 0.65701 2.0682 0.64225 2.0982 0.62735 2.1286 0.61232 2.1594 0.59712 2.1906 0.58174 2.2222 0.56618 2.2542 0.55043 2.2867 0.53447 2.3196 0.5183"
       color="#260000"
       id="path1047" />
    <path
       id="ID_8A"
       d="m62.844-712.38 0.78118 2.1002 0.78446 2.0785 0.78789 2.0567 0.79147 2.0351 0.79521 2.0135 0.79912 1.992 0.8032 1.9706 0.80746 1.9492 0.8119 1.928 0.81652 1.9069 0.82133 1.8859 0.82634 1.865 0.83155 1.8442 0.83696 1.8236 0.84258 1.803 0.84842 1.7826 0.85448 1.7623 0.86075 1.7421 0.86726 1.7221 0.87399 1.7022 0.88096 1.6825 0.88817 1.6629 0.89562 1.6434 0.90332 1.6241 0.91127 1.605 0.91947 1.586 0.92793 1.5671 0.93665 1.5484 0.94564 1.5299 0.95489 1.5115 0.96442 1.4932 0.97422 1.4752 0.98429 1.4572 0.99465 1.4395 1.0053 1.4219 1.0162 1.4044 1.0274 1.3872 1.0389 1.37 1.0508 1.353 1.0629 1.3362 1.0753 1.3195 1.088 1.303 1.101 1.2866 1.1143 1.2704 1.1279 1.2543 1.1418 1.2384 1.1561 1.2226 1.1706 1.2069"
       color="#260000" />
    <path
       id="ID_8B"
       d="m188.72-592.85 0.96941 0.21245 0.96379 0.21096 0.95819 0.20946 0.95267 0.20799 0.94718 0.20652 0.94176 0.20507 0.93638 0.20362 0.93105 0.20219 0.92579 0.20079 0.92056 0.19938 0.91539 0.19798 0.91027 0.19661 0.90519 0.19524 0.90017 0.19388 0.8952 0.19254 0.89028 0.19121 0.8854 0.18989 0.88058 0.18859 0.87581 0.18728 0.87107 0.18601 0.8664 0.18473 0.86177 0.18347 0.85718 0.18222 0.85265 0.18098 0.84816 0.17976 0.84371 0.17853 0.83932 0.17734 0.83497 0.17614 0.83066 0.17497 0.82641 0.17378 0.8222 0.17264 0.81803 0.17148 0.8139 0.17035 0.80984 0.16921 0.80579 0.16811 0.80182 0.167 0.79788 0.16591 0.79396 0.16482 0.79012 0.16374 0.7863 0.16269 0.78253 0.16163 0.77882 0.1606 0.77512 0.15956 0.77148 0.15854 0.76788 0.15753 0.76433 0.15653 0.76081 0.15554 0.75734 0.15456"
       color="#260000" />
    <path
       id="ID_8D"
       d="m29.979-827.14 0.13707 0.65538 0.13744 0.65531 0.13781 0.65522 0.13817 0.65515 0.13854 0.65506 0.13891 0.65498 0.13927 0.65491 0.13964 0.65482 0.14001 0.65475 0.14038 0.65466 0.14075 0.65458 0.14112 0.6545 0.14149 0.65441 0.14186 0.65434 0.14223 0.65425 0.1426 0.65416 0.14297 0.65408 0.14335 0.654 0.14372 0.65391 0.14409 0.65383 0.14447 0.65374 0.14484 0.65365 0.14522 0.65357 0.14561 0.65347 0.146 0.65339 0.1464 0.65329 0.1468 0.6532 0.1472 0.6531 0.14762 0.65301 0.14803 0.65291 0.14846 0.65281 0.14889 0.6527 0.14932 0.65261 0.14976 0.6525 0.1502 0.6524 0.15065 0.65228 0.15111 0.65218 0.15157 0.65207 0.15204 0.65196 0.15251 0.65185 0.15299 0.65173 0.15348 0.65161 0.154 0.65148 0.15453 0.65136 0.15508 0.65122 0.15566 0.65107 0.15624 0.65093 0.15685 0.65078 0.15748 0.65061 0.15812 0.65046 0.15879 0.65028 0.15948 0.65011 0.16021 0.64992 0.16099 0.64972 0.1618 0.64951 0.16267 0.64928"
       color="#260000" />
  </g>
  <path
     d="m29.979-833.14 1.7754 12.629 2.0013 12.601 2.2451 12.572 2.5068 12.54 2.7864 12.506 3.0838 12.47 3.3991 12.432 3.7323 12.392 4.0846 12.339 4.463 12.217 4.87 12.007 5.3054 11.708 5.7694 11.32 6.262 10.843 6.783 10.277 7.3326 9.6225 7.9096 8.8929 8.5066 8.1708 9.1211 7.4865 9.7531 6.8401 10.402 6.2315 11.069 5.6609 11.747 5.1275 12.267 4.6141 12.442 4.102 12.373 3.6094 12.291 3.177 12.226 2.81 12.177 2.5084 12.145 2.2721 12.129 2.1012 12.13 1.9958 12.147 1.9518 12.17 1.9292 12.191 1.9043 12.212 1.8768 12.233 1.8467 12.252 1.814 12.271 1.7787 12.29 1.7408 12.307 1.7003 12.324 1.6572 12.34 1.6115 12.356 1.5631 12.371 1.5122 12.385 1.4587 12.398 1.4026 12.411 1.3439 12.423 1.2826 12.435 1.2187 12.445 1.1522 12.455 1.0831 12.465 1.0114 12.474 0.93709 12.482 0.86019 12.489 0.78067 12.496 0.69857 12.502 0.61387 12.507 0.52655 12.511 0.43665 12.515 0.34415 12.518 0.24903 12.521 0.15133 12.523 0.051v43.869l-642.19 1.109z"
     color="#260000"
     fill="url(#radialGradient3265)"
     stroke="currentColor"
     id="path1054"
     style="stroke:none" />
  <g
     transform="matrix(0 .2917 -.28875 0 397.48 -557.86)"
     fill="#1f638a"
     stroke="#1f638a"
     stroke-linecap="round"
     stroke-linejoin="round"
     stroke-width="1.3023"
     id="g1060">
    <path
       d="m207.49 126.25 34.17 21.614-34.17 21.614z"
       id="path1056" />
    <rect
       x="172.19"
       y="137.99"
       width="39.213"
       height="19.761"
       id="rect1058" />
  </g>
  <path
     d="m474.56-513.39 6.2254-5.147 6.9023 14.13 6.2932-3.0742-6.9023-14.13 7.4286-1.523-19.542-14.716z"
     fill="#fff"
     stroke="#000"
     stroke-linecap="round"
     stroke-linejoin="round"
     stroke-width=".7559"
     id="path1062" />
  <path
     d="m567.71-525.59 6.2254-5.147 6.9023 14.13 6.2932-3.0742-6.9023-14.13 7.4286-1.523-19.542-14.716z"
     fill="#fff"
     stroke="#000"
     stroke-linecap="round"
     stroke-linejoin="round"
     stroke-width=".7559"
     id="path1064" />
  <g
     transform="translate(651.27 -434.53)"
     id="g1072">
    <ellipse
       cx="-44.92"
       cy="-98.798"
       rx="13.199"
       ry="13.469"
       fill="#1f638a"
       stroke-linecap="round"
       stroke-linejoin="round"
       stroke-width="1.0658"
       id="ellipse1066" />
    <text
       x="-50.761276"
       y="-91.125885"
       fill="#000000"
       font-family="'Arial Nova', 'Arial Unicode MS', 'Yu Gothic UI', sans-serif"
       font-size="12.8px"
       letter-spacing="0px"
       stroke-width="1.0667"
       word-spacing="0px"
       style="line-height:0%"
       xml:space="preserve"
       id="text1070"><tspan
         x="-50.761276"
         y="-91.125885"
         fill="#ffffff"
         font-family="'Arial Nova', 'Arial Unicode MS', 'Yu Gothic UI', sans-serif"
         font-size="21.333px"
         stroke="#ffffff"
         stroke-width="1.0667"
         style="line-height:1.25"
         id="tspan1068">1</tspan></text>
  </g>
  <g
     transform="translate(523.93 -421.22)"
     id="g1080">
    <ellipse
       cx="-13.718"
       cy="-98.798"
       rx="13.199"
       ry="13.469"
       fill="#1f638a"
       stroke-linecap="round"
       stroke-linejoin="round"
       stroke-width="1.0658"
       id="ellipse1074" />
    <text
       x="-19.559933"
       y="-91.125885"
       fill="#000000"
       font-family="'Arial Nova', 'Arial Unicode MS', 'Yu Gothic UI', sans-serif"
       font-size="12.8px"
       letter-spacing="0px"
       stroke-width="1.0667"
       word-spacing="0px"
       style="line-height:0%"
       xml:space="preserve"
       id="text1078"><tspan
         x="-19.559933"
         y="-91.125885"
         fill="#ffffff"
         font-family="'Arial Nova', 'Arial Unicode MS', 'Yu Gothic UI', sans-serif"
         font-size="21.333px"
         stroke="#ffffff"
         stroke-width="1.0667"
         style="line-height:1.25"
         id="tspan1076">2</tspan></text>
  </g>
</svg>
