<?xml version="1.0" encoding="UTF-8"?>
<svg width="18cm" height="7.5cm" version="1.1" xmlns="http://www.w3.org/2000/svg" xmlns:osb="http://www.openswatchbook.org/uri/2009/osb" xmlns:xlink="http://www.w3.org/1999/xlink">
 <defs>
  <linearGradient id="linearGradient18786" x1="229.59" x2="204.44" y1="272.32" y2="-212.84" gradientTransform="matrix(1.0667 0 0 1.0667 117.34 120.93)" gradientUnits="userSpaceOnUse">
   <stop style="stop-color:#f00;stop-opacity:.2" offset="0"/>
   <stop style="stop-color:#fff;stop-opacity:0" offset="1"/>
  </linearGradient>
 </defs>
 <g transform="translate(0 -170.08)">
  <path d="m458.99 193.27-187.3 16.633a1.89 1.89 0 0 0-1.2333 3.1667l57.233 61.6a1.89 1.89 0 0 0 1.5667 0.6l187.77-18.1a1.89 1.89 0 0 0 1.2-3.1667l-57.7-60.167a1.89 1.89 0 0 0-1.5333-0.56667zm-0.56666 3.8333 54.4 56.7-183 17.6-53.967-58.067 182.57-16.233z" style="color:#000000;fill:#fff;stroke-linecap:round;stroke-linejoin:round;stroke-width:.75591;stroke:#000;text-decoration-line:none;text-indent:0;text-transform:none"/>
  <g transform="translate(-390.21 151.63)">
   <ellipse cx="775.16" cy="269.59" rx="13.199" ry="13.469" style="fill:#1f638a;stroke-linecap:round;stroke-linejoin:round;stroke-width:1.0658"/>
   <text x="769.24432" y="277.12357" style="fill:#000000;font-family:'Arial Nova', 'Arial Unicode MS', 'Yu Gothic UI', sans-serif;font-size:12.8px;letter-spacing:0px;line-height:0%;stroke-width:1.0667;word-spacing:0px" xml:space="preserve"><tspan x="769.24432" y="277.12357" style="fill:#ffffff;font-family:'Arial Nova', 'Arial Unicode MS', 'Yu Gothic UI', sans-serif;font-size:21.333px;font-weight:bold;stroke-width:1.0667">1</tspan></text>
  </g>
  <path d="m156.93 361.43v-143.86l376.27 36.163v144.84z" style="fill:url(#linearGradient18786);stroke-dasharray:2.83464566, 2.83464566;stroke-linecap:round;stroke-linejoin:round;stroke-width:.94488;stroke:#f00"/>
  <ellipse transform="matrix(.8333 .55282 -.49522 .86877 0 0)" cx="245.33" cy="94.821" rx="3.827" ry="3.3313" style="fill:#f00;stroke-linecap:round;stroke-linejoin:round;stroke-width:3.788;stroke:#f00"/>
  <g transform="matrix(1 0 0 .9928 117.34 143.14)" style="stroke-dasharray:2.66710541, 2.66710541;stroke-linecap:round;stroke-linejoin:round;stroke-width:.88904;stroke:#f00">
   <path d="m39.167 147.29 376.25 36.25" style="fill:none;stroke-dasharray:2.84491244, 2.84491244;stroke-linecap:round;stroke-linejoin:round;stroke-width:.9483;stroke:#f00"/>
   <path d="m226.88 93.127 0.83333 144.58" style="fill:none;stroke-dasharray:2.84491244, 2.84491244;stroke-linecap:round;stroke-linejoin:round;stroke-width:.9483;stroke:#f00"/>
  </g>
  <g transform="translate(-598.61 -183.77)">
   <ellipse cx="966.69" cy="491.73" rx="13.199" ry="13.469" style="fill:#1f638a;stroke-linecap:round;stroke-linejoin:round;stroke-width:1.0658"/>
   <text x="960.80878" y="499.3985" style="fill:#000000;font-family:'Arial Nova', 'Arial Unicode MS', 'Yu Gothic UI', sans-serif;font-size:12.8px;letter-spacing:0px;line-height:0%;stroke-width:1.0667;word-spacing:0px" xml:space="preserve"><tspan x="960.80878" y="499.3985" style="fill:#ffffff;font-family:'Arial Nova', 'Arial Unicode MS', 'Yu Gothic UI', sans-serif;font-size:21.333px;font-weight:bold;stroke-width:1.0667">4</tspan></text>
  </g>
  <g transform="translate(192.05 -63.884)">
   <ellipse cx="34.637" cy="336.21" rx="13.199" ry="13.469" style="fill:#1f638a;stroke-linecap:round;stroke-linejoin:round;stroke-width:1.0658"/>
   <text x="29.062334" y="343.87265" style="fill:#000000;font-family:'Arial Nova', 'Arial Unicode MS', 'Yu Gothic UI', sans-serif;font-size:12.8px;letter-spacing:0px;line-height:0%;stroke-width:1.0667;word-spacing:0px" xml:space="preserve"><tspan x="29.062334" y="343.87265" style="fill:#ffffff;font-family:'Arial Nova', 'Arial Unicode MS', 'Yu Gothic UI', sans-serif;font-size:21.333px;font-weight:bold;stroke-width:1.0667">2</tspan></text>
  </g>
  <g transform="translate(317.76 -110.31)">
   <ellipse cx="-141.38" cy="311.07" rx="13.199" ry="13.469" style="fill:#1f638a;stroke-linecap:round;stroke-linejoin:round;stroke-width:1.0658"/>
   <text x="-147.2524" y="318.60193" style="fill:#000000;font-family:'Arial Nova', 'Arial Unicode MS', 'Yu Gothic UI', sans-serif;font-size:12.8px;letter-spacing:0px;line-height:0%;stroke-width:1.0667;word-spacing:0px" xml:space="preserve"><tspan x="-147.2524" y="318.60193" style="fill:#ffffff;font-family:'Arial Nova', 'Arial Unicode MS', 'Yu Gothic UI', sans-serif;font-size:21.333px;font-weight:bold;stroke-width:1.0667">3</tspan></text>
  </g>
  <path d="m137 376.72 147.19-40.589 128.61 49.391-148.17 41.078z" style="fill:none;stroke-linecap:round;stroke-linejoin:round;stroke-width:7.5591;stroke:#fff"/>
  <path d="m137 376.72 147.19-40.589 128.61 49.391-148.17 41.078z" style="fill:none;stroke-linecap:round;stroke-linejoin:round;stroke-width:3.7795;stroke:#f00"/>
  <path d="m349.97 427.6 6.2253-5.1469 6.9023 14.13 6.2932-3.0742-6.9023-14.13 7.4287-1.523-19.542-14.716z" style="fill:#fff;stroke-linecap:round;stroke-linejoin:round;stroke-width:.75591;stroke:#000"/>
  <path d="m318.61 338.9 26.44-32.086" style="fill:none;stroke-linecap:round;stroke-linejoin:round;stroke-width:1.8898;stroke:#f00"/>
  <path d="m318.25 339.33 11.424-6.7157-6.6012-5.7616z" style="fill:#f00;stroke-linecap:round;stroke-linejoin:round;stroke-width:1.0658;stroke:#f00"/>
  <ellipse transform="matrix(.8333 .55282 -.49522 .86877 0 0)" cx="590.78" cy="-82.534" rx="3.827" ry="3.3313" style="fill:#f00;stroke-linecap:round;stroke-linejoin:round;stroke-width:3.788;stroke:#f00"/>
  <ellipse transform="matrix(.8333 .55282 -.49522 .86877 0 0)" cx="660.99" cy="37.293" rx="3.827" ry="3.3313" style="fill:#f00;stroke-linecap:round;stroke-linejoin:round;stroke-width:3.788;stroke:#f00"/>
  <ellipse transform="matrix(.8333 .55282 -.49522 .86877 0 0)" cx="452.74" cy="65.493" rx="3.827" ry="3.3313" style="fill:#f00;stroke-linecap:round;stroke-linejoin:round;stroke-width:3.788;stroke:#f00"/>
  <text x="161.2592" y="230.54391" style="fill:#000000;font-family:'Arial Nova', 'Arial Unicode MS', 'Yu Gothic UI', sans-serif;font-size:12.8px;letter-spacing:0px;line-height:0%;stroke-width:1.0667;word-spacing:0px" xml:space="preserve"><tspan x="161.2592" y="230.54391" style="fill:#ff0000;font-family:'Arial Nova', 'Arial Unicode MS', 'Yu Gothic UI', sans-serif;stroke-width:1.0667;stroke:#ff0000">1</tspan></text>
  <text x="541.64441" y="403.3075" style="fill:#000000;font-family:'Arial Nova', 'Arial Unicode MS', 'Yu Gothic UI', sans-serif;font-size:12.8px;letter-spacing:0px;line-height:0%;stroke-width:1.0667;word-spacing:0px" xml:space="preserve"><tspan x="541.64441" y="403.3075" style="fill:#ff0000;font-family:'Arial Nova', 'Arial Unicode MS', 'Yu Gothic UI', sans-serif;stroke-width:1.0667;stroke:#ff0000">3</tspan></text>
  <text x="540.8111" y="258.72418" style="fill:#000000;font-family:'Arial Nova', 'Arial Unicode MS', 'Yu Gothic UI', sans-serif;font-size:12.8px;letter-spacing:0px;line-height:0%;stroke-width:1.0667;word-spacing:0px" xml:space="preserve"><tspan x="540.8111" y="258.72418" style="fill:#ff0000;font-family:'Arial Nova', 'Arial Unicode MS', 'Yu Gothic UI', sans-serif;stroke-width:1.0667;stroke:#ff0000">2</tspan></text>
 </g>
</svg>
