<?xml version="1.0" encoding="UTF-8"?>
<svg width="18cm" height="4.5cm" version="1.1" viewBox="0 0 180 45" xmlns="http://www.w3.org/2000/svg" xmlns:xlink="http://www.w3.org/1999/xlink">
 <defs>
  <linearGradient id="linearGradient11562" x1="175.54" x2="177.68" y1="33.181" y2="515.67" gradientTransform="matrix(.41197 0 0 .41197 384.13 141.17)" gradientUnits="userSpaceOnUse" xlink:href="#linearGradient7747-2-7-6-7"/>
  <linearGradient id="linearGradient7747-2-7-6-7">
   <stop style="stop-color:#fff" offset="0"/>
   <stop style="stop-color:#808080" offset="1"/>
  </linearGradient>
  <linearGradient id="linearGradient11559" x1="468.18" x2="470.89" y1="41.253" y2="532.26" gradientTransform="matrix(.41197 0 0 .41197 384.13 141.17)" gradientUnits="userSpaceOnUse" xlink:href="#linearGradient7747-2-7-6-7"/>
  <linearGradient id="linearGradient11530" x1="75.502" x2="141.25" y1="64.222" y2="143.18" gradientTransform="scale(1.0667)" gradientUnits="userSpaceOnUse" xlink:href="#linearGradient10341-0-7-0-88"/>
  <linearGradient id="linearGradient10341-0-7-0-88">
   <stop style="stop-color:#fff" offset="0"/>
   <stop style="stop-color:#00385e" offset="1"/>
  </linearGradient>
  <linearGradient id="linearGradient11532" x1="59.029" x2="141.82" y1="52.294" y2="144.31" gradientTransform="scale(1.0667)" gradientUnits="userSpaceOnUse" xlink:href="#linearGradient10341-0-7-0-88"/>
  <linearGradient id="linearGradient11534" x1="521.98" x2="567.05" y1="88.34" y2="133" gradientTransform="matrix(1.7886 0 0 1.7638 -252.69 -82.67)" gradientUnits="userSpaceOnUse" xlink:href="#linearGradient10341-0-7-0-88"/>
  <linearGradient id="linearGradient11536" x1="516.56" x2="567.39" y1="83.187" y2="132.31" gradientTransform="matrix(1.7886 0 0 1.7638 -252.69 -82.67)" gradientUnits="userSpaceOnUse" xlink:href="#linearGradient10341-0-7-0-88"/>
  <linearGradient id="linearGradient11495" x1="185.76" x2="186.57" y1="332.77" y2="-34.168" gradientTransform="matrix(.41197 0 0 .41197 88.379 141.17)" gradientUnits="userSpaceOnUse" xlink:href="#linearGradient11695-4-7-1-1"/>
  <linearGradient id="linearGradient11695-4-7-1-1">
   <stop style="stop-color:#ff8500" offset="0"/>
   <stop style="stop-color:#fff" offset="1"/>
  </linearGradient>
  <linearGradient id="linearGradient11491" x1="472.26" x2="471.36" y1="337.11" y2="-51.411" gradientTransform="matrix(.41197 0 0 .41197 88.379 141.17)" gradientUnits="userSpaceOnUse" xlink:href="#linearGradient11695-4-7-1-1"/>
  <linearGradient id="linearGradient11478" x1="440.8" x2="507.35" y1="245.77" y2="334.69" gradientTransform="matrix(.93602 0 0 .93602 71.945 -65.693)" gradientUnits="userSpaceOnUse" xlink:href="#linearGradient10341-0-7-0-88"/>
 </defs>
 <g transform="translate(0 -252)">
  <g transform="matrix(.26458 0 0 .26458 2.3138e-7 215.36)">
   <path d="m373.73 211.6 9.9675 6.2408-9.9675 6.2408z" style="fill:#1f638a;stroke-linecap:round;stroke-linejoin:round;stroke-width:.37795;stroke:#1f638a"/>
   <rect x="363.43" y="214.99" width="11.439" height="5.7059" style="fill:#1f638a;stroke-linecap:round;stroke-linejoin:round;stroke-width:.37795;stroke:#1f638a"/>
   <path d="m518.48 157.41-121.74 0.16736v121.74h122.07v-17.946c-19.949-0.43369-43.742-15.088-43.012-43.334 0.73039-28.246 23.252-42.019 42.677-42.355zm-100.8 17.934h24.744v24.744h-24.744zm15.655 60.971h24.744v24.744h-24.744z" style="fill:url(#linearGradient11562);stroke-linejoin:round;stroke-width:1.8898;stroke:#7d7d7d"/>
   <path d="m519.14 157.41-0.15451 18.268h42.343v85.689h-41.686v17.779h120.24v-121.74zm89.565 18.68c6.651 0 12.037 5.3862 12.037 12.037 0 6.651-5.3863 12.05-12.037 12.05-6.6511 0-12.037-5.399-12.037-12.05 0-6.651 5.3861-12.037 12.037-12.037zm-0.0516 60.649c6.651 0 12.037 5.3862 12.037 12.037s-5.3862 12.05-12.037 12.05c-6.6511 0-12.037-5.399-12.037-12.05s5.3862-12.037 12.037-12.037z" style="fill:url(#linearGradient11559);stroke-linecap:round;stroke-linejoin:round;stroke-width:1.8898;stroke:#7d7d7d"/>
   <g transform="matrix(.38622 0 0 .38622 384.13 141.17)">
    <rect x="86.933" y="88.477" width="64" height="64.267" style="color:#000000;fill:url(#linearGradient11530);stroke-linecap:round;stroke-linejoin:round;stroke-width:4.893;stroke:#7d7d7d"/>
    <path d="m118.93 88.477v64.267" style="fill:none;stroke-linecap:round;stroke-linejoin:round;stroke-width:1.9572;stroke:#7d7d7d"/>
    <path d="m86.8 120.61h64.267" style="fill:none;stroke-linecap:round;stroke-linejoin:round;stroke-width:1.9572;stroke:#7d7d7d"/>
   </g>
   <g transform="matrix(.38622 0 0 .38622 399.89 202.15)">
    <rect x="86.933" y="88.477" width="64" height="64.267" style="color:#000000;fill:url(#linearGradient11532);stroke-linecap:round;stroke-linejoin:round;stroke-width:4.893;stroke:#7d7d7d"/>
    <path d="m118.93 88.477v64.267" style="fill:none;stroke-linecap:round;stroke-linejoin:round;stroke-width:1.9572;stroke:#7d7d7d"/>
    <path d="m86.8 120.61h64.267" style="fill:none;stroke-linecap:round;stroke-linejoin:round;stroke-width:1.9572;stroke:#7d7d7d"/>
   </g>
   <g transform="matrix(.38622 0 0 .38622 327.18 142)">
    <ellipse cx="728.81" cy="119.19" rx="31.748" ry="31.748" style="color:#000000;fill:url(#linearGradient11534);stroke-linecap:round;stroke-linejoin:round;stroke-width:4.893;stroke:#7d7d7d"/>
    <path d="m728.81 87.056v64.267" style="fill:none;stroke-linecap:round;stroke-linejoin:round;stroke-width:1.9572;stroke:#7d7d7d"/>
    <path d="m697.08 119.19h63.467" style="fill:none;stroke-linecap:round;stroke-linejoin:round;stroke-width:1.9572;stroke:#7d7d7d"/>
   </g>
   <g transform="matrix(.38622 0 0 .38622 327.27 202.69)">
    <ellipse cx="728.81" cy="119.19" rx="31.748" ry="31.748" style="color:#000000;fill:url(#linearGradient11536);stroke-linecap:round;stroke-linejoin:round;stroke-width:4.893;stroke:#7d7d7d"/>
    <path d="m728.81 87.056v64.267" style="fill:none;stroke-linecap:round;stroke-linejoin:round;stroke-width:1.9572;stroke:#7d7d7d"/>
    <path d="m697.08 119.19h63.467" style="fill:none;stroke-linecap:round;stroke-linejoin:round;stroke-width:1.9572;stroke:#7d7d7d"/>
   </g>
   <path d="m475.87 217.8h-79.094" style="fill:none;stroke-linecap:round;stroke-linejoin:round;stroke-width:.75591;stroke:#7d7d7d"/>
   <path d="m455.75 157.9v78.801" style="fill:none;stroke-linecap:round;stroke-linejoin:round;stroke-width:.75591;stroke:#7d7d7d"/>
   <path d="m561.52 217.34h78.626" style="fill:none;stroke-linecap:round;stroke-linejoin:round;stroke-width:.75591;stroke:#7d7d7d"/>
   <path d="m591.01 157.43v121.68" style="fill:none;stroke-linecap:round;stroke-linejoin:round;stroke-width:.75591;stroke:#7d7d7d"/>
   <path d="m222.73 157.41-121.74 0.16736v121.74h122.07v-17.946c-19.949-0.43368-43.742-15.088-43.012-43.334 0.7304-28.246 23.252-42.019 42.677-42.356zm-100.8 17.933h24.744v24.744h-24.744zm15.655 60.971h24.744v24.744h-24.744z" style="fill:url(#linearGradient11495);stroke-linejoin:round;stroke-width:1.8898;stroke:#7d7d7d"/>
   <path d="m178.58 287.42 6.2254-5.1469 6.9023 14.13 6.2932-3.0742-6.9023-14.13 7.4286-1.523-19.542-14.716z" style="fill:#fff;stroke-linecap:round;stroke-linejoin:round;stroke-width:.75591;stroke:#000"/>
   <path d="m223.39 157.41-0.15447 18.268h42.343v85.689h-41.686v17.779h120.24v-121.74zm89.565 18.68c6.651 0 12.037 5.3862 12.037 12.037 0 6.6511-5.3862 12.05-12.037 12.05-6.651 0-12.037-5.399-12.037-12.05 0-6.651 5.3861-12.037 12.037-12.037zm-0.0518 60.65c6.651 0 12.037 5.3862 12.037 12.037 0 6.651-5.3862 12.05-12.037 12.05-6.651 0-12.037-5.399-12.037-12.05 0-6.651 5.3862-12.037 12.037-12.037z" style="fill:url(#linearGradient11491);stroke-linecap:round;stroke-linejoin:round;stroke-width:1.8898;stroke:#7d7d7d"/>
   <ellipse cx="216.55" cy="283.61" rx="13.199" ry="13.469" style="fill:#1f638a;stroke-dasharray:1.06582679, 2.1316536;stroke-dashoffset:3.6971;stroke-linecap:round;stroke-linejoin:round;stroke-width:1.0658"/>
   <text x="210.70901" y="291.27832" style="fill:#000000;font-family:'Arial Nova', 'Arial Unicode MS', 'Yu Gothic UI', sans-serif;font-size:12.8px;letter-spacing:0px;line-height:0%;stroke-width:1.0667;word-spacing:0px" xml:space="preserve"><tspan x="210.70901" y="291.27832" style="fill:#ffffff;font-family:'Arial Nova', 'Arial Unicode MS', 'Yu Gothic UI', sans-serif;font-size:21.333px;font-weight:bold;stroke-width:1.0667">1</tspan></text>
   <path d="m179.86 217.34h-79.094" style="fill:none;stroke-linecap:round;stroke-linejoin:round;stroke-width:.75591;stroke:#7d7d7d"/>
   <path d="m159.73 157.43v78.801" style="fill:none;stroke-linecap:round;stroke-linejoin:round;stroke-width:.75591;stroke:#7d7d7d"/>
   <path d="m265.5 216.87h78.626" style="fill:none;stroke-linecap:round;stroke-linejoin:round;stroke-width:.75591;stroke:#7d7d7d"/>
   <path d="m294.99 156.96v121.68" style="fill:none;stroke-linecap:round;stroke-linejoin:round;stroke-width:.75591;stroke:#7d7d7d"/>
   <path d="m159.73 260.92v18.194" style="fill:none;stroke-linecap:round;stroke-linejoin:round;stroke-width:.75591;stroke:#7d7d7d"/>
   <path d="m285.85 284.02 6.2254-5.1469 6.9023 14.13 6.2932-3.0742-6.9023-14.13 7.4286-1.523-19.542-14.716z" style="fill:#fff;stroke-linecap:round;stroke-linejoin:round;stroke-width:.75591;stroke:#000"/>
   <path d="m559.74 177.26v82.403h-40.705c-57.019-2.991-53.881-81.263 0.82733-82.403z" style="fill:url(#linearGradient11478);stroke-linecap:round;stroke-linejoin:round;stroke-width:1.8898;stroke:#7d7d7d"/>
   <path d="m455.68 260.92v18.194" style="fill:none;stroke-linecap:round;stroke-linejoin:round;stroke-width:.75591;stroke:#7d7d7d"/>
   <path d="m477.5 217.8h82.072" style="fill:none;stroke-linecap:round;stroke-linejoin:round;stroke-width:.75591;stroke:#7d7d7d"/>
   <path d="m518.54 177.26v82.072" style="fill:none;stroke-linecap:round;stroke-linejoin:round;stroke-width:.75591;stroke:#7d7d7d"/>
   <ellipse cx="52.683" cy="216.89" rx="13.199" ry="13.469" style="fill:#1f638a;stroke-dasharray:1.06582679, 2.1316536;stroke-dashoffset:3.6971;stroke-linecap:round;stroke-linejoin:round;stroke-width:1.0658"/>
   <text x="45.791653" y="224.52287" style="fill:#000000;font-family:'Arial Nova', 'Arial Unicode MS', 'Yu Gothic UI', sans-serif;font-size:12.8px;letter-spacing:0px;line-height:0%;stroke-width:1.0667;word-spacing:0px" xml:space="preserve"><tspan x="45.791653" y="224.52287" style="fill:#ffffff;font-family:'Arial Nova', 'Arial Unicode MS', 'Yu Gothic UI', sans-serif;font-size:21.333px;font-weight:bold;stroke-width:1.0667">B</tspan></text>
  </g>
 </g>
</svg>
