<?xml version="1.0" encoding="UTF-8"?>
<svg width="18cm" height="6cm" version="1.1" xmlns="http://www.w3.org/2000/svg" xmlns:osb="http://www.openswatchbook.org/uri/2009/osb" xmlns:xlink="http://www.w3.org/1999/xlink">
 <defs>
  <linearGradient id="linearGradient8060" x1="-142.17" x2="723.02" y1="57.999" y2="57.999" gradientTransform="matrix(0 .11964 -.11964 0 162.92 290.95)" gradientUnits="userSpaceOnUse">
   <stop style="stop-color:#fff" offset="0"/>
   <stop style="stop-color:#808080" offset="1"/>
  </linearGradient>
  <linearGradient id="linearGradient8065" x1="-142.17" x2="723.02" y1="57.999" y2="57.999" gradientTransform="matrix(0 -.11964 .11964 0 172.13 366.18)" gradientUnits="userSpaceOnUse">
   <stop style="stop-color:#fff" offset="0"/>
   <stop style="stop-color:#808080" offset="1"/>
  </linearGradient>
  <linearGradient id="linearGradient8070" x1="-142.17" x2="723.02" y1="57.999" y2="57.999" gradientTransform="matrix(0 .11964 -.11964 0 232.23 290.69)" gradientUnits="userSpaceOnUse">
   <stop style="stop-color:#fff" offset="0"/>
   <stop style="stop-color:#808080" offset="1"/>
  </linearGradient>
  <linearGradient id="linearGradient8080" x1="-142.17" x2="723.02" y1="57.999" y2="57.999" gradientTransform="matrix(0 -.11964 .11964 0 241.45 365.93)" gradientUnits="userSpaceOnUse">
   <stop style="stop-color:#ff8500" offset="0"/>
   <stop style="stop-color:#fff" offset="1"/>
  </linearGradient>
  <linearGradient id="linearGradient8085" x1="-142.17" x2="723.02" y1="57.999" y2="57.999" gradientTransform="matrix(0 .11964 -.11964 0 93.654 291.07)" gradientUnits="userSpaceOnUse">
   <stop style="stop-color:#fff" offset="0"/>
   <stop style="stop-color:#808080" offset="1"/>
  </linearGradient>
  <linearGradient id="linearGradient8090" x1="-142.17" x2="723.02" y1="57.999" y2="57.999" gradientTransform="matrix(0 -.11964 .11964 0 102.87 366.31)" gradientUnits="userSpaceOnUse">
   <stop style="stop-color:#fff" offset="0"/>
   <stop style="stop-color:#808080" offset="1"/>
  </linearGradient>
 </defs>
 <g transform="translate(0 -226.77)">
  <g transform="rotate(90 253.68 340.34)">
   <g transform="rotate(-90 312.55 182.38)">
    <path d="m234.83 220.11 6.2408 9.9675 6.2408-9.9675z" style="fill:#1f638a;stroke-linecap:round;stroke-linejoin:round;stroke-width:.37795;stroke:#1f638a"/>
    <rect transform="matrix(0,1,1,0,0,0)" x="209.81" y="238.21" width="11.439" height="5.7059" style="fill:#1f638a;stroke-linecap:round;stroke-linejoin:round;stroke-width:.37795;stroke:#1f638a"/>
   </g>
  </g>
  <rect x="38.973" y="236.8" width="258.62" height="187.68" rx="18.898" ry="9.4488" style="fill:#fff;stroke-linecap:round;stroke-linejoin:round;stroke-width:3.7795;stroke:#000"/>
  <rect x="54.837" y="256.11" width="226.89" height="142.48" style="fill:#fff;stroke-linecap:round;stroke-width:1.8898;stroke:#000"/>
  <circle cx="251.79" cy="411.61" r="2.6939" style="fill:#fff;stroke-linecap:round;stroke-width:1.8898;stroke:#000"/>
  <circle cx="260.57" cy="411.61" r="2.6939" style="fill:#fff;stroke-linecap:round;stroke-width:1.8898;stroke:#000"/>
  <circle cx="269.34" cy="411.61" r="2.6939" style="fill:#fff;stroke-linecap:round;stroke-width:1.8898;stroke:#000"/>
  <path d="m127 383.06c-6.5793 0.64754-11.396-5.6238-14.382-10.829l-17.766-30.964c-1.7727-3.0896-2.3246-7.084-2.2419-10.448 0.31139-1.5898 1.7318-1.2953 2.2842-0.71911l8.8408 9.2215c1.6229 1.8207 2.9155 0.5039 3.0033-0.5076l3.6801-42.385c0.66925-7.7079 5.6391-16.244 16.413-16.413z" style="fill:url(#linearGradient8090);stroke-linecap:round;stroke-linejoin:round;stroke-width:1.8898;stroke:#7d7d7d"/>
  <path d="m112.58 372.11c5.0337 3.4704 9.6124 3.7565 14.178 3.9482" style="fill:none;stroke-linecap:round;stroke-linejoin:round;stroke-width:.75591;stroke:#7d7d7d"/>
  <path d="m94.754 341.18c10.814 4.2483 21.466 5.1101 32.124 6.1018" style="fill:none;stroke-linecap:round;stroke-linejoin:round;stroke-width:.75591;stroke:#7d7d7d"/>
  <path d="m69.515 274.32c6.5793-0.64754 11.396 5.6238 14.382 10.829l17.766 30.964c1.7727 3.0896 2.3246 7.084 2.2419 10.448-0.31138 1.5898-1.7318 1.2953-2.2842 0.7191l-8.8408-9.2214c-1.6229-1.8207-2.9155-0.5039-3.0033 0.5076l-3.6801 42.385c-0.66925 7.7079-5.6391 16.244-16.413 16.413z" style="fill:url(#linearGradient8085);stroke-linecap:round;stroke-linejoin:round;stroke-width:1.8898;stroke:#7d7d7d"/>
  <path d="m83.939 285.27c-5.0337-3.4704-9.6124-3.7565-14.178-3.9482" style="fill:none;stroke-linecap:round;stroke-linejoin:round;stroke-width:.75591;stroke:#7d7d7d"/>
  <path d="m101.77 316.19c-10.814-4.2483-21.466-5.1101-32.124-6.1018" style="fill:none;stroke-linecap:round;stroke-linejoin:round;stroke-width:.75591;stroke:#7d7d7d"/>
  <path d="m265.59 382.68c-6.5793 0.64754-11.396-5.6238-14.382-10.829l-17.766-30.964c-1.7727-3.0896-2.3246-7.084-2.2419-10.448 0.31139-1.5898 1.7318-1.2953 2.2842-0.71912l8.8408 9.2214c1.623 1.8207 2.9155 0.50391 3.0033-0.50759l3.6801-42.385c0.66925-7.7079 5.6391-16.244 16.413-16.413z" style="fill:url(#linearGradient8080);stroke-linecap:round;stroke-linejoin:round;stroke-width:1.8898;stroke:#7d7d7d"/>
  <path d="m251.16 371.73c5.0337 3.4704 9.6124 3.7565 14.178 3.9482" style="fill:none;stroke-linecap:round;stroke-linejoin:round;stroke-width:.94488;stroke:#7d7d7d"/>
  <path d="m233.33 340.8c10.814 4.2483 21.466 5.1101 32.124 6.1018" style="fill:none;stroke-linecap:round;stroke-linejoin:round;stroke-width:.94488;stroke:#7d7d7d"/>
  <path d="m252.2 367.84 6.2254-5.147 6.9023 14.13 6.2932-3.0742-6.9023-14.13 7.4286-1.523-19.542-14.716z" style="fill:#fff;stroke-linecap:round;stroke-linejoin:round;stroke-width:.75591;stroke:#000"/>
  <path d="m208.1 273.94c6.5793-0.64755 11.396 5.6238 14.382 10.829l17.766 30.964c1.7727 3.0896 2.3246 7.084 2.2419 10.448-0.31138 1.5898-1.7318 1.2953-2.2842 0.71911l-8.8408-9.2215c-1.6229-1.8207-2.9155-0.50389-3.0033 0.5076l-3.6801 42.385c-0.66926 7.7079-5.6391 16.244-16.413 16.412z" style="fill:url(#linearGradient8070);stroke-linecap:round;stroke-linejoin:round;stroke-width:1.8898;stroke:#7d7d7d"/>
  <path d="m222.52 284.89c-5.0337-3.4704-9.6124-3.7565-14.178-3.9482" style="fill:none;stroke-linecap:round;stroke-linejoin:round;stroke-width:.94488;stroke:#7d7d7d"/>
  <path d="m240.35 315.81c-10.814-4.2483-21.466-5.1101-32.124-6.1018" style="fill:none;stroke-linecap:round;stroke-linejoin:round;stroke-width:.94488;stroke:#7d7d7d"/>
  <path d="m196.27 382.94c-6.5793 0.64755-11.396-5.6238-14.382-10.829l-17.766-30.964c-1.7727-3.0896-2.3246-7.084-2.2419-10.448 0.31138-1.5898 1.7318-1.2953 2.2842-0.7191l8.8407 9.2214c1.623 1.8207 2.9155 0.5039 3.0033-0.5076l3.6801-42.385c0.66925-7.7079 5.639-16.244 16.412-16.413z" style="fill:url(#linearGradient8065);stroke-linecap:round;stroke-linejoin:round;stroke-width:1.8898;stroke:#7d7d7d"/>
  <path d="m181.85 371.99c5.0337 3.4704 9.6124 3.7565 14.178 3.9482" style="fill:none;stroke-linecap:round;stroke-linejoin:round;stroke-width:.75591;stroke:#7d7d7d"/>
  <path d="m164.02 341.06c10.814 4.2483 21.466 5.1101 32.124 6.1018" style="fill:none;stroke-linecap:round;stroke-linejoin:round;stroke-width:.75591;stroke:#7d7d7d"/>
  <path d="m138.78 274.2c6.5793-0.64754 11.396 5.6238 14.382 10.829l17.766 30.964c1.7727 3.0896 2.3246 7.084 2.2419 10.448-0.31139 1.5898-1.7318 1.2953-2.2842 0.71911l-8.8408-9.2214c-1.6229-1.8207-2.9155-0.50391-3.0033 0.50759l-3.6801 42.385c-0.66925 7.7079-5.6391 16.244-16.412 16.412z" style="fill:url(#linearGradient8060);stroke-linecap:round;stroke-linejoin:round;stroke-width:1.8898;stroke:#7d7d7d"/>
  <path d="m153.21 285.14c-5.0337-3.4704-9.6124-3.7565-14.178-3.9482" style="fill:none;stroke-linecap:round;stroke-linejoin:round;stroke-width:.75591;stroke:#7d7d7d"/>
  <path d="m171.03 316.07c-10.814-4.2483-21.466-5.1101-32.124-6.1018" style="fill:none;stroke-linecap:round;stroke-linejoin:round;stroke-width:.75591;stroke:#7d7d7d"/>
  <rect x="386.06" y="257.61" width="226.89" height="142.48" style="fill:#bff;opacity:.50896"/>
  <g transform="translate(331.61 462.52)">
   <ellipse cx="-44.92" cy="-98.798" rx="13.199" ry="13.469" style="fill:#1f638a;stroke-linecap:round;stroke-linejoin:round;stroke-width:1.0658"/>
   <text x="-50.761276" y="-91.125885" style="fill:#000000;font-family:'Arial Nova', 'Arial Unicode MS', 'Yu Gothic UI', sans-serif;font-size:12.8px;letter-spacing:0px;line-height:0%;stroke-width:1.0667;word-spacing:0px" xml:space="preserve"><tspan x="-50.761276" y="-91.125885" style="fill:#ffffff;font-family:'Arial Nova', 'Arial Unicode MS', 'Yu Gothic UI', sans-serif;font-size:21.333px;stroke-width:1.0667;stroke:#ffffff">1</tspan></text>
  </g>
 </g>
</svg>
