<?xml version="1.0" encoding="UTF-8"?>
<svg width="18cm" height="1.5cm" version="1.1" xmlns="http://www.w3.org/2000/svg">
 <g transform="translate(0 -396.85)">
  <path d="m98.597 412.34h4.8166v24.516h-2.4333v-22.116h-3.85z" style="fill:#808080;stroke-width:1.0667"/>
  <path d="m128 412.34v2.3333h-8.7332l-1.2167 6.6833q1.6-0.46666 2.8833-0.46666 3.35 0 5.5166 2.25 2.1833 2.2333 2.1833 5.7333 0 2.4166-1.1166 4.4333-1.1167 2.0166-3.0333 3.1-1.9 1.0667-4.4 1.0667-2.9833 0-5.0333-1.8166-2.05-1.8333-2.45-4.7333h2.5166q0.28333 1.4166 0.94999 2.3 0.68333 0.88332 1.8 1.4333 1.1333 0.53333 2.3666 0.53333 2.4166 0 4.15-1.8333 1.7333-1.8333 1.7333-4.5833 0-2.4833-1.5666-4.0333-1.5666-1.55-4.1833-1.55-2.1666 0-5.25 1.3167l2.2666-12.167z" style="fill:#808080;stroke-width:1.0667"/>
  <path d="m131.23 424.61q0-4.85 1.0333-7.4999 1.05-2.65 2.95-4.0166 1.9-1.3666 4.25-1.3666 2.3833 0 4.3166 1.3833 1.9333 1.3666 3.05 4.1166 1.1333 2.75 1.1333 7.3833 0 4.6166-1.1167 7.3499-1.1 2.7333-3.05 4.1333-1.95 1.3833-4.3333 1.3833-2.35 0-4.2333-1.35-1.8833-1.35-2.95-4.0166-1.05-2.6833-1.05-7.4999zm2.3166 0.05q0 4.15 0.73333 6.2833 0.74999 2.1166 2.2 3.2166 1.45 1.1 3.0666 1.1 1.6333 0 3.05-1.0666 1.4167-1.0833 2.15-3.2333 0.91666-2.6166 0.91666-6.2999 0-3.7-0.81666-6.0499-0.81666-2.3666-2.2666-3.45-1.4333-1.1-3.0333-1.1-1.6333 0-3.0666 1.1-1.4333 1.0833-2.1833 3.2166-0.74999 2.1166-0.74999 6.2833z" style="fill:#808080;stroke-width:1.0667"/>
  <path d="m154 432.36 2.25 1.0667-3.3833 6.2999-1.65-0.7z" style="fill:#808080;stroke-width:1.0667"/>
  <path d="m159.63 424.61q0-4.85 1.0333-7.4999 1.05-2.65 2.95-4.0166 1.9-1.3666 4.25-1.3666 2.3833 0 4.3166 1.3833 1.9333 1.3666 3.05 4.1166 1.1333 2.75 1.1333 7.3833 0 4.6166-1.1167 7.3499-1.1 2.7333-3.05 4.1333-1.95 1.3833-4.3333 1.3833-2.35 0-4.2333-1.35-1.8833-1.35-2.95-4.0166-1.05-2.6833-1.05-7.4999zm2.3166 0.05q0 4.15 0.73333 6.2833 0.74999 2.1166 2.2 3.2166 1.45 1.1 3.0666 1.1 1.6333 0 3.05-1.0666 1.4167-1.0833 2.15-3.2333 0.91666-2.6166 0.91666-6.2999 0-3.7-0.81666-6.0499-0.81666-2.3666-2.2666-3.45-1.4333-1.1-3.0333-1.1-1.6333 0-3.0666 1.1-1.4333 1.0833-2.1833 3.2166-0.74999 2.1166-0.74999 6.2833z" style="fill:#808080;stroke-width:1.0667"/>
  <path d="m178.56 424.61q0-4.85 1.0333-7.4999 1.05-2.65 2.95-4.0166 1.9-1.3666 4.25-1.3666 2.3833 0 4.3166 1.3833 1.9333 1.3666 3.05 4.1166 1.1333 2.75 1.1333 7.3833 0 4.6166-1.1167 7.3499-1.1 2.7333-3.05 4.1333-1.95 1.3833-4.3333 1.3833-2.35 0-4.2333-1.35-1.8833-1.35-2.95-4.0166-1.05-2.6833-1.05-7.4999zm2.3166 0.05q0 4.15 0.73333 6.2833 0.74999 2.1166 2.2 3.2166 1.45 1.1 3.0666 1.1 1.6333 0 3.05-1.0666 1.4167-1.0833 2.15-3.2333 0.91666-2.6166 0.91666-6.2999 0-3.7-0.81666-6.0499-0.81666-2.3666-2.2666-3.45-1.4333-1.1-3.0333-1.1-1.6333 0-3.0666 1.1-1.4333 1.0833-2.1833 3.2166-0.75 2.1166-0.75 6.2833z" style="fill:#808080;stroke-width:1.0667"/>
  <path d="m444.71 419.93v18.133h-2.3v-3.1166q-1.4666 1.7833-3.3 2.6833-1.8166 0.89999-3.9833 0.89999-3.85 0-6.5833-2.7833-2.7166-2.8-2.7166-6.7999 0-3.9166 2.75-6.6999 2.75-2.7833 6.6166-2.7833 2.2333 0 4.0333 0.94999 1.8166 0.94999 3.1833 2.85v-3.3333zm-9.3332 1.7833q-1.95 0-3.6 0.96666-1.65 0.94999-2.6333 2.6833-0.96666 1.7333-0.96666 3.6666 0 1.9166 0.98333 3.6666 0.98332 1.75 2.6333 2.7333 1.6666 0.96666 3.5666 0.96666 1.9166 0 3.6333-0.96666t2.6333-2.6166q0.93333-1.65 0.93333-3.7166 0-3.15-2.0833-5.2666-2.0666-2.1166-5.1-2.1166z" style="fill:#808080;stroke-width:1.0667"/>
  <path d="m466.05 424.66v-7.2333h2.2833v7.2333h7.2999v2.2833h-7.2999v7.2333h-2.2833v-7.2333h-7.2833v-2.2833z" style="fill:#808080;stroke-width:1.0667"/>
  <path d="m489.73 438.06v-25.133h2.3166v10.117q1.4667-1.8 3.2833-2.6833 1.8166-0.89999 3.9833-0.89999 3.85 0 6.5666 2.8 2.7333 2.7833 2.7333 6.7666 0 3.9333-2.75 6.7166-2.75 2.7833-6.6166 2.7833-2.2166 0-4.0166-0.94999-1.8-0.94999-3.1833-2.85v3.3333zm9.3332-1.7833q1.95 0 3.6-0.94999 1.65-0.96665 2.6166-2.7 0.98332-1.7333 0.98332-3.6666 0-1.9333-0.98332-3.6833-0.98333-1.75-2.65-2.7166-1.65-0.98332-3.5333-0.98332-1.9166 0-3.65 0.98332-1.7166 0.96666-2.65 2.6166-0.91666 1.65-0.91666 3.7166 0 3.15 2.0666 5.2666 2.0833 2.1166 5.1166 2.1166z" style="fill:#808080;stroke-width:1.0667"/>
  <g transform="translate(103.26 564.8)">
   <ellipse cx="-75.193" cy="-138.95" rx="13.199" ry="13.469" style="fill:#1f638a;stroke-linecap:round;stroke-linejoin:round;stroke-width:1.0658"/>
   <g transform="translate(-1.2434)">
    <text x="-85.114067" y="-131.27504" style="fill:#000000;font-family:'Arial Nova', 'Arial Unicode MS', 'Yu Gothic UI', sans-serif;font-size:12.8px;letter-spacing:0px;line-height:0%;stroke-width:1.0667;word-spacing:0px" xml:space="preserve"><tspan x="-85.114067" y="-131.27504" style="fill:#ffffff;font-family:'Arial Nova', 'Arial Unicode MS', 'Yu Gothic UI', sans-serif;font-size:21.333px;line-height:1.25;stroke-width:1.0667;stroke:#ffffff">1</tspan></text>
    <text x="-76.055321" y="-131.27504" style="fill:#000000;font-family:'Arial Nova', 'Arial Unicode MS', 'Yu Gothic UI', sans-serif;font-size:12.8px;letter-spacing:0px;line-height:0%;stroke-width:1.0667;word-spacing:0px" xml:space="preserve"><tspan x="-76.055321" y="-131.27504" style="fill:#ffffff;font-family:'Arial Nova', 'Arial Unicode MS', 'Yu Gothic UI', sans-serif;font-size:21.333px;line-height:1.25;stroke-width:1.0667;stroke:#ffffff">0</tspan></text>
   </g>
  </g>
  <g transform="translate(-14 5.6237)">
   <ellipse transform="matrix(.99389 .1104 -.10854 .99409 0 0)" cx="138.88" cy="406.8" rx="7.5828" ry="7.6468" style="color:#000000;fill-rule:evenodd;fill:#fff;stroke-linecap:round;stroke-linejoin:round;stroke-width:1.8898;stroke:#000080"/>
   <path d="m83.899 428.12 19.386-15.999" style="color:#000000;fill-rule:evenodd;fill:#fff;stroke-linecap:round;stroke-linejoin:round;stroke-width:1.8898;stroke:#000080"/>
  </g>
  <path d="m256.6 412.34h4.8166v24.516h-2.4333v-22.116h-3.85z" style="fill:#808080;stroke-width:1.0667"/>
  <path d="m286 412.34v2.3333h-8.7332l-1.2167 6.6833q1.6-0.46666 2.8833-0.46666 3.35 0 5.5166 2.25 2.1833 2.2333 2.1833 5.7333 0 2.4166-1.1166 4.4333-1.1167 2.0166-3.0333 3.1-1.9 1.0667-4.4 1.0667-2.9833 0-5.0333-1.8166-2.05-1.8333-2.45-4.7333h2.5166q0.28333 1.4166 0.94999 2.3 0.68333 0.88332 1.8 1.4333 1.1333 0.53333 2.3666 0.53333 2.4166 0 4.15-1.8333 1.7333-1.8333 1.7333-4.5833 0-2.4833-1.5666-4.0333-1.5666-1.55-4.1833-1.55-2.1666 0-5.25 1.3167l2.2666-12.167z" style="fill:#808080;stroke-width:1.0667"/>
  <path d="m289.23 424.61q0-4.85 1.0333-7.4999 1.05-2.65 2.95-4.0166 1.9-1.3666 4.25-1.3666 2.3833 0 4.3166 1.3833 1.9333 1.3666 3.05 4.1166 1.1333 2.75 1.1333 7.3833 0 4.6166-1.1167 7.3499-1.1 2.7333-3.05 4.1333-1.95 1.3833-4.3333 1.3833-2.35 0-4.2333-1.35-1.8833-1.35-2.95-4.0166-1.05-2.6833-1.05-7.4999zm2.3166 0.05q0 4.15 0.73333 6.2833 0.74999 2.1166 2.2 3.2166 1.45 1.1 3.0666 1.1 1.6333 0 3.05-1.0666 1.4167-1.0833 2.15-3.2333 0.91666-2.6166 0.91666-6.2999 0-3.7-0.81666-6.0499-0.81666-2.3666-2.2666-3.45-1.4333-1.1-3.0333-1.1-1.6333 0-3.0666 1.1-1.4333 1.0833-2.1833 3.2166-0.74999 2.1166-0.74999 6.2833z" style="fill:#808080;stroke-width:1.0667"/>
  <path d="m312 432.36 2.25 1.0667-3.3833 6.2999-1.65-0.7z" style="fill:#808080;stroke-width:1.0667"/>
  <path d="m317.63 424.61q0-4.85 1.0333-7.4999 1.05-2.65 2.95-4.0166 1.9-1.3666 4.25-1.3666 2.3833 0 4.3166 1.3833 1.9333 1.3666 3.05 4.1166 1.1333 2.75 1.1333 7.3833 0 4.6166-1.1167 7.3499-1.1 2.7333-3.05 4.1333-1.95 1.3833-4.3333 1.3833-2.35 0-4.2333-1.35-1.8833-1.35-2.95-4.0166-1.05-2.6833-1.05-7.4999zm2.3166 0.05q0 4.15 0.73333 6.2833 0.74999 2.1166 2.2 3.2166 1.45 1.1 3.0666 1.1 1.6333 0 3.05-1.0666 1.4167-1.0833 2.15-3.2333 0.91666-2.6166 0.91666-6.2999 0-3.7-0.81666-6.0499-0.81666-2.3666-2.2666-3.45-1.4333-1.1-3.0333-1.1-1.6333 0-3.0666 1.1-1.4333 1.0833-2.1833 3.2166-0.74999 2.1166-0.74999 6.2833z" style="fill:#808080;stroke-width:1.0667"/>
  <path d="m336.56 424.61q0-4.85 1.0333-7.4999 1.05-2.65 2.95-4.0166 1.9-1.3666 4.25-1.3666 2.3833 0 4.3166 1.3833 1.9333 1.3666 3.05 4.1166 1.1333 2.75 1.1333 7.3833 0 4.6166-1.1167 7.3499-1.1 2.7333-3.05 4.1333-1.95 1.3833-4.3333 1.3833-2.35 0-4.2333-1.35-1.8833-1.35-2.95-4.0166-1.05-2.6833-1.05-7.4999zm2.3166 0.05q0 4.15 0.73333 6.2833 0.74999 2.1166 2.2 3.2166 1.45 1.1 3.0666 1.1 1.6333 0 3.05-1.0666 1.4167-1.0833 2.15-3.2333 0.91666-2.6166 0.91666-6.2999 0-3.7-0.81666-6.0499-0.81666-2.3666-2.2666-3.45-1.4333-1.1-3.0333-1.1-1.6333 0-3.0666 1.1-1.4333 1.0833-2.1833 3.2166-0.75 2.1166-0.75 6.2833z" style="fill:#808080;stroke-width:1.0667"/>
  <g transform="translate(-37.279 2.9135)">
   <ellipse transform="matrix(.99389 .1104 -.10854 .99409 0 0)" cx="488.24" cy="370.73" rx="7.5828" ry="7.6468" style="color:#000000;fill-rule:evenodd;fill:#fff;stroke-linecap:round;stroke-linejoin:round;stroke-width:1.8898;stroke:#000080"/>
   <path d="m435.04 430.83 19.386-15.999" style="color:#000000;fill-rule:evenodd;fill:#fff;stroke-linecap:round;stroke-linejoin:round;stroke-width:1.8898;stroke:#000080"/>
  </g>
  <path d="m602.58 419.93v18.133h-2.3v-3.1166q-1.4666 1.7833-3.3 2.6833-1.8166 0.89999-3.9833 0.89999-3.85 0-6.5833-2.7833-2.7166-2.8-2.7166-6.7999 0-3.9166 2.75-6.6999 2.75-2.7833 6.6166-2.7833 2.2333 0 4.0333 0.94999 1.8166 0.94999 3.1833 2.85v-3.3333zm-9.3332 1.7833q-1.95 0-3.6 0.96666-1.65 0.94999-2.6333 2.6833-0.96665 1.7333-0.96665 3.6666 0 1.9166 0.98332 3.6666 0.98332 1.75 2.6333 2.7333 1.6666 0.96666 3.5666 0.96666 1.9166 0 3.6333-0.96666t2.6333-2.6166q0.93333-1.65 0.93333-3.7166 0-3.15-2.0833-5.2666-2.0666-2.1166-5.1-2.1166z" style="fill:#808080;stroke-width:1.0667"/>
  <path d="m623.91 424.66v-7.2333h2.2833v7.2333h7.2999v2.2833h-7.2999v7.2333h-2.2833v-7.2333h-7.2833v-2.2833z" style="fill:#808080;stroke-width:1.0667"/>
  <path d="m647.59 438.06v-25.133h2.3166v10.117q1.4666-1.8 3.2833-2.6833 1.8166-0.89999 3.9833-0.89999 3.85 0 6.5666 2.8 2.7333 2.7833 2.7333 6.7666 0 3.9333-2.75 6.7166-2.75 2.7833-6.6166 2.7833-2.2166 0-4.0166-0.94999t-3.1833-2.85v3.3333zm9.3332-1.7833q1.95 0 3.6-0.94999 1.65-0.96665 2.6166-2.7 0.98332-1.7333 0.98332-3.6666 0-1.9333-0.98332-3.6833t-2.65-2.7166q-1.65-0.98332-3.5333-0.98332-1.9166 0-3.65 0.98332-1.7166 0.96666-2.65 2.6166-0.91666 1.65-0.91666 3.7166 0 3.15 2.0666 5.2666 2.0833 2.1166 5.1166 2.1166z" style="fill:#808080;stroke-width:1.0667"/>
  <g transform="matrix(.2917 0 0 .28875 160.04 383.03)" style="fill:#1f638a;stroke-linecap:round;stroke-linejoin:round;stroke-width:1.2209;stroke:#1f638a">
   <path d="m207.49 126.25 34.17 21.614-34.17 21.614z" style="fill:#1f638a;stroke-linecap:round;stroke-linejoin:round;stroke-width:1.3023;stroke:#1f638a"/>
   <rect x="172.19" y="137.99" width="39.213" height="19.761" style="fill:#1f638a;stroke-linecap:round;stroke-linejoin:round;stroke-width:1.3023;stroke:#1f638a"/>
  </g>
  <g transform="matrix(.2917 0 0 .28875 487.43 383.03)" style="fill:#1f638a;stroke-linecap:round;stroke-linejoin:round;stroke-width:1.2209;stroke:#1f638a">
   <path d="m207.49 126.25 34.17 21.614-34.17 21.614z" style="fill:#1f638a;stroke-linecap:round;stroke-linejoin:round;stroke-width:1.3023;stroke:#1f638a"/>
   <rect x="172.19" y="137.99" width="39.213" height="19.761" style="fill:#1f638a;stroke-linecap:round;stroke-linejoin:round;stroke-width:1.3023;stroke:#1f638a"/>
  </g>
  <path d="m370.95 409.51v32.437" style="stroke-width:1px;stroke:#000"/>
 </g>
</svg>
