<?xml version="1.0" encoding="UTF-8"?>
<svg width="18cm" height="6cm" version="1.1" xmlns="http://www.w3.org/2000/svg">
 <g transform="translate(0 -895.75)">
  <circle cx="472.37" cy="1011.3" r="56.355" style="color:#000000;fill:none;stroke-dasharray:2.70614166, 1.35307083;stroke-linecap:round;stroke-linejoin:round;stroke-width:.67654;stroke:#f00"/>
  <path d="m442.77 906.11a1.8243 1.9579 74.281 0 0-1.169 1.3002l-26.786 92.443-26.748 92.565a1.8243 1.9579 74.281 0 0 2.416 2.1883l97.652-27.361 97.652-27.361a1.8243 1.9579 74.281 0 0 0.8916-3.0855l-70.904-65.204-70.866-65.082a1.8243 1.9579 74.281 0 0-2.1387-0.403zm1.786 5.1922 68.488 63.016 68.45 62.894-94.345 26.463-94.475 26.504 25.987-89.52z" style="color:#000000;fill:#fff;stroke-linecap:round;stroke-linejoin:round;stroke-width:.94488;stroke:#000;text-decoration-line:none;text-indent:0;text-transform:none"/>
  <path d="m412.89 1105.8 153.16-42.732" style="fill:none;stroke-linecap:round;stroke-linejoin:round;stroke-width:3.7795;stroke:#f00"/>
  <g transform="translate(397.77 1195.3)">
   <ellipse cx="142.29" cy="-98.798" rx="13.199" ry="13.469" style="fill:#1f638a;stroke-linecap:round;stroke-linejoin:round;stroke-width:1.0658"/>
   <text x="136.44678" y="-91.26651" style="fill:#000000;font-family:'Arial Nova', 'Arial Unicode MS', 'Yu Gothic UI', sans-serif;font-size:12.8px;letter-spacing:0px;line-height:0%;stroke-width:1.0667;word-spacing:0px" xml:space="preserve"><tspan x="136.44678" y="-91.26651" style="fill:#ffffff;font-family:'Arial Nova', 'Arial Unicode MS', 'Yu Gothic UI', sans-serif;font-size:21.333px;line-height:1.25;stroke-width:1.0667;stroke:#ffffff">7</tspan></text>
  </g>
  <path d="m505.07 1104.6 6.2254-5.1469 6.9023 14.13 6.2932-3.0741-6.9023-14.13 7.4286-1.523-19.542-14.716z" style="fill:#fff;stroke-linecap:round;stroke-linejoin:round;stroke-width:.75591;stroke:#000"/>
  <circle cx="162.37" cy="1011.3" r="56.355" style="color:#000000;fill:none;stroke-dasharray:2.70614166, 1.35307083;stroke-linecap:round;stroke-linejoin:round;stroke-width:.67654;stroke:#f00"/>
  <path d="m132.77 906.11a1.8243 1.9579 74.281 0 0-1.169 1.3002l-26.786 92.443-26.748 92.565a1.8243 1.9579 74.281 0 0 2.416 2.1883l97.652-27.361 97.652-27.361a1.8243 1.9579 74.281 0 0 0.8916-3.0855l-70.904-65.204-70.866-65.082a1.8243 1.9579 74.281 0 0-2.1387-0.403zm1.786 5.1922 68.488 63.016 68.45 62.894-94.345 26.463-94.475 26.504 25.987-89.52z" style="color:#000000;fill:#fff;stroke-linecap:round;stroke-linejoin:round;stroke-width:.94488;stroke:#000;text-decoration-line:none;text-indent:0;text-transform:none"/>
  <ellipse transform="matrix(.9993 -.037301 .032652 .99947 0 0)" cx="129.27" cy="1017" rx="1.2735" ry="1.2731" style="stroke-linecap:round;stroke-linejoin:round;stroke-width:1.2329;stroke:#000"/>
  <path d="m270.99 1011.4h-108.56l105.95-29.219" style="fill:none;stroke-linecap:round;stroke-linejoin:round;stroke-width:1.0667px;stroke:#000"/>
  <path d="m261.81 982.72-8.3979-10.251 8.1859-3.1245z" style="stroke-linecap:round;stroke-linejoin:round;stroke-width:1.0658;stroke:#000"/>
  <path d="m265.89 1012.3-5.0697 12.243 8.74 0.6201z" style="stroke-linecap:round;stroke-linejoin:round;stroke-width:1.0658;stroke:#000"/>
  <path d="m257.11 969.62a103.46 103.46 0 0 1 7.5796 57.496" style="color:#000000;fill:none;stroke-linecap:round;stroke-linejoin:round;stroke-width:.94488;stroke:#000"/>
  <g transform="translate(171.54 1093.6)">
   <ellipse cx="111.09" cy="-98.798" rx="13.199" ry="13.469" style="fill:#1f638a;stroke-linecap:round;stroke-linejoin:round;stroke-width:1.0658"/>
   <text x="105.24544" y="-91.256096" style="fill:#000000;font-family:'Arial Nova', 'Arial Unicode MS', 'Yu Gothic UI', sans-serif;font-size:12.8px;letter-spacing:0px;line-height:0%;stroke-width:1.0667;word-spacing:0px" xml:space="preserve"><tspan x="105.24544" y="-91.256096" style="fill:#ffffff;font-family:'Arial Nova', 'Arial Unicode MS', 'Yu Gothic UI', sans-serif;font-size:21.333px;line-height:1.25;stroke-width:1.0667;stroke:#ffffff">6</tspan></text>
  </g>
 </g>
</svg>
