<?xml version="1.0" encoding="UTF-8"?>
<svg width="18cm" height="4.5cm" version="1.1" xmlns="http://www.w3.org/2000/svg" xmlns:osb="http://www.openswatchbook.org/uri/2009/osb" xmlns:xlink="http://www.w3.org/1999/xlink">
 <defs>
  <linearGradient id="linearGradient11695-4-7-1-1-9-4">
   <stop style="stop-color:#ff8500" offset="0"/>
   <stop style="stop-color:#fff" offset="1"/>
  </linearGradient>
  <linearGradient id="linearGradient11054-2-6">
   <stop style="stop-color:#ff4d00" offset="0"/>
   <stop style="stop-color:#fff" offset="1"/>
  </linearGradient>
  <linearGradient id="linearGradient26329" x1="698.82" x2="317.65" y1="308.91" y2="310.42" gradientTransform="matrix(1.0667 0 0 1.0667 -325.65 74.085)" gradientUnits="userSpaceOnUse" xlink:href="#linearGradient11695-4-7-1-1-9-4"/>
  <linearGradient id="linearGradient26338" x1="474.77" x2="466.73" y1="323.8" y2="193.68" gradientTransform="matrix(1.0667 0 0 1.0667 13.167 71.796)" gradientUnits="userSpaceOnUse" xlink:href="#linearGradient11054-2-6"/>
  <linearGradient id="linearGradient26352" x1="698.82" x2="317.65" y1="308.91" y2="310.42" gradientTransform="matrix(1.0667 0 0 1.0667 13.334 72.778)" gradientUnits="userSpaceOnUse">
   <stop style="stop-color:#ff8500" offset="0"/>
   <stop style="stop-color:#fff" offset="1"/>
  </linearGradient>
  <linearGradient id="linearGradient26354" x1="470.15" x2="453.93" y1="365.76" y2="205.77" gradientTransform="scale(1.0667)" gradientUnits="userSpaceOnUse" xlink:href="#linearGradient11695-4-7-1-1-9-4"/>
 </defs>
 <g transform="translate(0 -283.46)">
  <path d="m366.03 400.88 131.83-48.482 139.21 42.48-130.67 48.713z" style="fill:url(#linearGradient26352);stroke-linecap:round;stroke-linejoin:round;stroke-width:1.8898;stroke:#7d7d7d"/>
  <path d="m431.83 376.87 139.68 42.48" style="fill:none;stroke-linecap:round;stroke-linejoin:round;stroke-width:.75591;stroke:#7d7d7d"/>
  <path d="m435.98 422.12 131.59-48.713" style="fill:none;stroke-linecap:round;stroke-linejoin:round;stroke-width:.75591;stroke:#7d7d7d"/>
  <path d="m455.39 373.34 96.443-35.413 6.3971 13.54-159.26 59.529z" style="fill:none;stroke-dasharray:3.77952754, 3.77952754;stroke-dashoffset:3.0118;stroke-linecap:round;stroke-linejoin:round;stroke-width:1.8898;stroke:#f00"/>
  <path d="m503.66 352.75-56.175-17.498" style="fill:#f00;stroke-linecap:round;stroke-linejoin:round;stroke-width:1.8898;stroke:#f00"/>
  <path d="m445.84 334.61 13.247-0.32643-2.5652 8.378z" style="fill:#f00;stroke-linecap:round;stroke-linejoin:round;stroke-width:1.0658;stroke:#f00"/>
  <path d="m435.59 421.37 45.481-102.97 52.176-19.162 33.707 73.185z" style="fill:url(#linearGradient26338);stroke-linecap:round;stroke-linejoin:round;stroke-width:1.8898;stroke:#7d7d7d"/>
  <path d="m507.16 308.47-5.7717 88.653" style="fill:url(#linearGradient26338);stroke-linecap:round;stroke-linejoin:round;stroke-width:.75591;stroke:#7d7d7d"/>
  <path d="m458.33 369.77 91.886-33.938" style="fill:url(#linearGradient26338);stroke-linecap:round;stroke-linejoin:round;stroke-width:.75591;stroke:#7d7d7d"/>
  <path d="m519.61 343.92 6.2254-5.1469 6.9023 14.13 6.2932-3.0742-6.9023-14.13 7.4287-1.523-19.542-14.716z" style="fill:#fff;stroke-linecap:round;stroke-linejoin:round;stroke-width:.75591;stroke:#000"/>
  <path d="m537.43 408.21 2.337-35.771" style="fill:#f00;stroke-linecap:round;stroke-linejoin:round;stroke-width:1.8898;stroke:#f00"/>
  <path d="m540.01 370.69 3.424 12.801-8.746-0.52885z" style="fill:#f00;stroke-linecap:round;stroke-linejoin:round;stroke-width:1.0658;stroke:#f00"/>
  <ellipse cx="556.86" cy="347.81" rx="13.199" ry="13.469" style="fill:#1f638a;stroke-linecap:round;stroke-linejoin:round;stroke-width:1.0658"/>
  <text x="550.9516" y="355.3364" style="fill:#000000;font-family:'Arial Nova', 'Arial Unicode MS', 'Yu Gothic UI', sans-serif;font-size:12.8px;letter-spacing:0px;line-height:0%;stroke-width:1.0667;word-spacing:0px" xml:space="preserve"><tspan x="550.9516" y="355.3364" style="fill:#ffffff;font-family:'Arial Nova', 'Arial Unicode MS', 'Yu Gothic UI', sans-serif;font-size:21.333px;font-weight:bold;stroke-width:1.0667">7</tspan></text>
  <path d="m27.052 402.18 131.83-48.482 139.21 42.48-130.67 48.713z" style="fill:url(#linearGradient26329);stroke-linecap:round;stroke-linejoin:round;stroke-width:1.8898;stroke:#7d7d7d"/>
  <path d="m92.849 378.17 139.68 42.48" style="fill:none;stroke-linecap:round;stroke-linejoin:round;stroke-width:.75591;stroke:#7d7d7d"/>
  <path d="m97.005 423.42 131.59-48.713" style="fill:none;stroke-linecap:round;stroke-linejoin:round;stroke-width:.75591;stroke:#7d7d7d"/>
  <g transform="translate(-325.81 73.103)">
   <path d="m422.42 349.57 45.481-102.97 52.176-19.162 33.707 73.185z" style="fill:url(#linearGradient26354);stroke-linecap:round;stroke-linejoin:round;stroke-width:1.8898;stroke:#7d7d7d"/>
   <path d="m493.99 236.68-5.7717 88.653" style="fill:none;stroke-linecap:round;stroke-linejoin:round;stroke-width:.75591;stroke:#7d7d7d"/>
   <path d="m445.16 297.97 91.886-33.938" style="fill:none;stroke-linecap:round;stroke-linejoin:round;stroke-width:.75591;stroke:#7d7d7d"/>
  </g>
  <path d="m118.74 374.64 94.194-34.63 50.791 45.019-131.13 48.713z" style="fill:none;stroke-dasharray:3.77952754, 3.77952754;stroke-linecap:round;stroke-linejoin:round;stroke-width:1.8898;stroke:#f00"/>
  <path d="m165.02 357.21 32.668 52.176" style="fill:none;stroke-dasharray:1.51181106, 1.51181106;stroke-linecap:round;stroke-linejoin:round;stroke-width:.75591;stroke:#f00"/>
  <path d="m125.85 403.68 112.45-41.302" style="fill:none;stroke-dasharray:1.51181106, 1.51181106;stroke-linecap:round;stroke-linejoin:round;stroke-width:.75591;stroke:#f00"/>
  <path d="m198.64 409.5 2.337-35.771" style="fill:#f00;stroke-linecap:round;stroke-linejoin:round;stroke-width:1.8898;stroke:#f00"/>
  <path d="m201.22 371.97 3.424 12.801-8.746-0.52885z" style="fill:#f00;stroke-linecap:round;stroke-linejoin:round;stroke-width:1.0658;stroke:#f00"/>
  <path d="m165.68 354.34 34.258 10.552" style="fill:#f00;stroke-linecap:round;stroke-linejoin:round;stroke-width:1.8898;stroke:#f00"/>
  <path d="m201.58 365.53-13.246 0.36821 2.5387-8.3861z" style="fill:#f00;stroke-linecap:round;stroke-linejoin:round;stroke-width:1.0658;stroke:#f00"/>
  <ellipse cx="263.62" cy="348.92" rx="13.199" ry="13.469" style="fill:#1f638a;stroke-linecap:round;stroke-linejoin:round;stroke-width:1.0658"/>
  <text x="257.73779" y="356.58725" style="fill:#000000;font-family:'Arial Nova', 'Arial Unicode MS', 'Yu Gothic UI', sans-serif;font-size:12.8px;letter-spacing:0px;line-height:0%;stroke-width:1.0667;word-spacing:0px" xml:space="preserve"><tspan x="257.73779" y="356.58725" style="fill:#ffffff;font-family:'Arial Nova', 'Arial Unicode MS', 'Yu Gothic UI', sans-serif;font-size:21.333px;font-weight:bold;stroke-width:1.0667">6</tspan></text>
 </g>
</svg>
