<?xml version="1.0" encoding="UTF-8"?>
<!-- Created with Inkscape (http://www.inkscape.org/) -->
<svg xmlns="http://www.w3.org/2000/svg" width="18cm" height="3cm" version="1.1" viewBox="0 0 180 30">
 <g transform="translate(-.034872 -104.46)" stroke="#000" stroke-linecap="round" stroke-linejoin="round">
  <path d="m50.559 130.7h-44.266" stroke-dasharray="3.032, 0.758, 0.379, 0.758" stroke-width=".379"/>
  <path d="m10.645 109.13v15.862h13.05" fill="none" style="paint-order:stroke fill markers"/>
  <path d="m32.986 107.58c-0.18521-1e-3 -0.35581 0.10045-0.44336 0.26367l-9.0417 16.85c-0.1296 0.24328-0.03787 0.54556 0.20508 0.67578 0.24374 0.13093 0.54748 0.039 0.67773-0.20508l8.8992-16.582 16.686 0.12109v21.805c0 0.27614 0.22386 0.5 0.5 0.5s0.5-0.22386 0.5-0.5v-22.301c-1.9e-5 -0.27461-0.22149-0.49783-0.49609-0.5z" color="#000000" fill="#fff" stroke-width=".1" style="paint-order:stroke fill markers"/>
 </g>
 <g transform="translate(2.6062 -104.46)" stroke="#000" stroke-linecap="round" stroke-linejoin="round">
  <path d="m109.3 130.7h-44.266" stroke-dasharray="3.032, 0.758, 0.379, 0.758" stroke-width=".379"/>
  <path d="m69.382 109.13v15.862h13.05" fill="none" style="paint-order:stroke fill markers"/>
  <path d="m91.842 107.59c-0.27689-1e-3 -0.50193 0.2231-0.50195 0.5l0.01563 7.1836-9.127 9.2574c-0.19359 0.19688-0.19095 0.51341 0.0059 0.70703 0.19691 0.19357 0.51344 0.19088 0.70703-6e-3l9.2715-9.4039c0.09186-0.0939 0.14308-0.22019 0.14258-0.35156l-0.01367-6.8867 16.285 0.0312 0.0801 21.887c1e-3 0.27614 0.2258 0.49913 0.50195 0.49805 0.27615-1e-3 0.49913-0.22581 0.49805-0.50196l-0.082-22.385c-1e-3 -0.27461-0.22344-0.49695-0.49805-0.49805z" color="#000000" fill="#fff" stroke-width=".1" style="paint-order:stroke fill markers"/>
 </g>
 <g transform="translate(9.2613 -104.46)" stroke="#000" stroke-linecap="round" stroke-linejoin="round">
  <path d="m163.8 130.7h-44.266" stroke-dasharray="3.032, 0.758, 0.379, 0.758" stroke-width=".379"/>
  <path d="m123.89 109.13v15.862h13.05" fill="none" style="paint-order:stroke fill markers"/>
  <path d="m154.15 107.55a0.50005 0.50005 0 0 0-0.35157 0.14453l-17.008 16.854a0.5 0.5 0 0 0-4e-3 0.70703 0.5 0.5 0 0 0 0.70703 2e-3l16.861-16.707h8.8574v21.955a0.5 0.5 0 0 0 0.5 0.5 0.5 0.5 0 0 0 0.5-0.5v-22.455a0.50005 0.50005 0 0 0-0.5-0.5z" color="#000000" fill="#fff" stroke-width=".1" style="paint-order:stroke fill markers"/>
 </g>
 <g transform="matrix(.26458 0 0 .26458 32.071 23.023)">
  <ellipse cx="-36.9" cy="-49.598" rx="13.199" ry="13.469" fill="#1f638a" stroke-linecap="round" stroke-linejoin="round" stroke-width="1.0658"/>
  <text x="-44.014687" y="-41.962215" fill="#000000" font-family="'Arial Nova', 'Arial Unicode MS', 'Yu Gothic UI', sans-serif" font-size="12.8px" letter-spacing="0px" stroke-width="1.0667" word-spacing="0px" style="line-height:0%" xml:space="preserve"><tspan x="-44.014687" y="-41.962215" fill="#ffffff" font-family="'Arial Nova', 'Arial Unicode MS', 'Yu Gothic UI', sans-serif" font-size="21.333px" stroke="#ffffff" stroke-width="1.0667" style="line-height:1.25">A</tspan></text>
 </g>
 <g transform="matrix(.26458 0 0 .26458 98.239 11.839)">
  <ellipse cx="-36.668" cy="-19.66" rx="13.199" ry="13.469" fill="#1f638a" stroke-linecap="round" stroke-linejoin="round" stroke-width="1.0658"/>
  <text x="-43.09388" y="-12.024389" fill="#000000" font-family="'Arial Nova', 'Arial Unicode MS', 'Yu Gothic UI', sans-serif" font-size="12.8px" letter-spacing="0px" stroke-width="1.0667" word-spacing="0px" style="line-height:0%" xml:space="preserve"><tspan x="-43.09388" y="-12.024389" fill="#ffffff" font-family="'Arial Nova', 'Arial Unicode MS', 'Yu Gothic UI', sans-serif" font-size="21.333px" stroke="#ffffff" stroke-width="1.0667" style="line-height:1.25">B</tspan></text>
 </g>
 <g transform="matrix(.26458 0 0 .26458 152.99 26.8)">
  <ellipse cx="-16.245" cy="-67.7" rx="13.199" ry="13.469" fill="#1f638a" stroke-linecap="round" stroke-linejoin="round" stroke-width="1.0658"/>
  <text x="-24.07345" y="-60.064144" fill="#000000" font-family="'Arial Nova', 'Arial Unicode MS', 'Yu Gothic UI', sans-serif" font-size="12.8px" letter-spacing="0px" stroke-width="1.0667" word-spacing="0px" style="line-height:0%" xml:space="preserve"><tspan x="-24.07345" y="-60.064144" fill="#ffffff" font-family="'Arial Nova', 'Arial Unicode MS', 'Yu Gothic UI', sans-serif" font-size="21.333px" stroke="#ffffff" stroke-linecap="round" stroke-linejoin="round" stroke-width="1.0658" style="line-height:1.25">C</tspan></text>
 </g>
</svg>
