<?xml version="1.0" encoding="UTF-8"?>
<svg width="18cm" height="3.5cm" version="1.1" xmlns="http://www.w3.org/2000/svg" xmlns:xlink="http://www.w3.org/1999/xlink"><defs><linearGradient id="linearGradient10628-5-2"><stop style="stop-color:#fff" offset="0"/><stop style="stop-color:#4fa68a" offset="1"/></linearGradient><linearGradient id="linearGradient8291-8" x1="819.82" x2="1326.6" y1="7.1119" y2="7.1119" gradientTransform="scale(1.0667)" gradientUnits="userSpaceOnUse" xlink:href="#linearGradient10628-5-2"/><linearGradient id="linearGradient8293-3" x1="767.68" x2="910.89" y1="70.683" y2="70.683" gradientTransform="scale(1.0667)" gradientUnits="userSpaceOnUse" xlink:href="#linearGradient10628-5-2"/><linearGradient id="linearGradient8295-8" x1="858.39" x2="1326.6" y1="157.11" y2="157.11" gradientTransform="scale(1.0667)" gradientUnits="userSpaceOnUse" xlink:href="#linearGradient10628-5-2"/><linearGradient id="linearGradient867" x1="819.82" x2="1326.6" y1="7.1119" y2="7.1119" gradientTransform="matrix(.36321 -.0067373 .0067373 .36321 -259.46 48.402)" gradientUnits="userSpaceOnUse" xlink:href="#linearGradient10628-5-2"/><linearGradient id="linearGradient869" x1="767.68" x2="910.89" y1="70.683" y2="70.683" gradientTransform="matrix(.36321 -.0067373 .0067373 .36321 -259.46 48.402)" gradientUnits="userSpaceOnUse" xlink:href="#linearGradient10628-5-2"/><linearGradient id="linearGradient871" x1="858.39" x2="1326.6" y1="157.11" y2="157.11" gradientTransform="matrix(.36321 -.0067373 .0067373 .36321 -259.46 48.402)" gradientUnits="userSpaceOnUse" xlink:href="#linearGradient10628-5-2"/><linearGradient id="linearGradient871-5" x1="705.41" x2="1326.6" y1="113.05" y2="157.11" gradientTransform="matrix(.36417 -.00077306 .0067551 .041676 -260.51 67.978)" gradientUnits="userSpaceOnUse" xlink:href="#linearGradient10628-5-2"/><linearGradient id="linearGradient869-3" x1="767.68" x2="1014.1" y1="70.683" y2="63.138" gradientTransform="matrix(.36321 -.0067373 .0067373 .36321 -259.85 45.488)" gradientUnits="userSpaceOnUse" xlink:href="#linearGradient10628-5-2"/><linearGradient id="linearGradient869-3-0" x1="767.68" x2="1014.1" y1="70.683" y2="63.138" gradientTransform="matrix(.36321 -.0067373 .0067373 .36321 -37.854 45.488)" gradientUnits="userSpaceOnUse" xlink:href="#linearGradient10628-5-2"/><linearGradient id="linearGradient871-5-4" x1="705.41" x2="1326.6" y1="113.05" y2="157.11" gradientTransform="matrix(.36417 -.00077306 .0067551 .041676 -38.512 67.978)" gradientUnits="userSpaceOnUse" xlink:href="#linearGradient10628-5-2"/><linearGradient id="linearGradient871-59" x1="858.39" x2="1326.6" y1="157.11" y2="157.11" gradientTransform="matrix(.36321 -.0067373 .0067373 .36321 -37.46 48.402)" gradientUnits="userSpaceOnUse" xlink:href="#linearGradient10628-5-2"/><linearGradient id="linearGradient869-38" x1="767.68" x2="910.89" y1="70.683" y2="70.683" gradientTransform="matrix(.36321 -.0067373 .0067373 .36321 -37.46 48.402)" gradientUnits="userSpaceOnUse" xlink:href="#linearGradient10628-5-2"/><linearGradient id="linearGradient867-4" x1="819.82" x2="1326.6" y1="7.1119" y2="7.1119" gradientTransform="matrix(.36321 -.0067373 .0067373 .36321 -37.46 48.402)" gradientUnits="userSpaceOnUse" xlink:href="#linearGradient10628-5-2"/></defs><path d="m40.776 13.836 32.272 57.023 148.66 0.0066-32.842-56.872z" style="color:#000000;fill-rule:evenodd;fill:url(#linearGradient867);stroke-linecap:round;stroke-linejoin:round;stroke-width:.677;stroke:#67977f"/><path d="m53.858 122.64 17.102-46.172-33.989-60.057-17.162 47.43z" style="color:#000000;fill-rule:evenodd;fill:url(#linearGradient869);stroke-linecap:round;stroke-linejoin:round;stroke-width:.67652;stroke:#67977f"/><path d="m205.43 122.68 16.719-46.184-151.19-0.038234-17.093 45.92z" style="color:#000000;fill-rule:evenodd;fill:url(#linearGradient871);stroke-linecap:round;stroke-linejoin:round;stroke-width:.67652;stroke:#67977f"/><g transform="matrix(.3405 -.006316 .006316 .3405 180 48.4)"><path d="m874.67-84.985 96 176.76 444.19 8.381-96.762-176.76z" style="color:#000000;fill-rule:evenodd;fill:url(#linearGradient8291-8);stroke-linecap:round;stroke-linejoin:round;stroke-width:1.9865;stroke:#67977f"/><path d="m915.81 235.01 55.619-142.48-96-176.76-56.381 144.76z" style="color:#000000;fill-rule:evenodd;fill:url(#linearGradient8293-3);stroke-linecap:round;stroke-linejoin:round;stroke-width:1.9865;stroke:#67977f"/><path d="m1360.8 243.4 54.095-143.24-442.67-8.381-56.381 142.48z" style="color:#000000;fill-rule:evenodd;fill:url(#linearGradient8295-8);stroke-linecap:round;stroke-linejoin:round;stroke-width:1.9865;stroke:#67977f"/></g><path d="m222.15 76.501-0.43904-5.6356-148.66-0.0066-2.0879 5.6076z" style="color:#000000;fill-rule:evenodd;fill:url(#linearGradient871-5);stroke-linecap:round;stroke-linejoin:round;stroke-width:.67654;stroke:#67977f"/><g transform="matrix(.3405 -.006316 .006316 .3405 -261.24 48.352)"><path d="m1108.2 119.81 216.58 3.7712 23.166 39.867-255.37-4.8487z" style="color:#000000;fill-rule:evenodd;fill:#739ba5;stroke-linecap:round;stroke-linejoin:round;stroke-width:4.2061;stroke:#16434a"/><path d="m1095.3 54.082 252.67 4.8487-21.55 65.727-218.73-5.3875 5.5777-16.036-1.0577-16.631z" style="color:#000000;fill-rule:evenodd;fill:#739ba5;stroke-linecap:round;stroke-linejoin:round;stroke-width:4.2061;stroke:#16434a"/><path d="m1367.4 91.592-19.403-33.2-21.55 67.344 21.55 38.251 21.255-56.207z" style="color:#000000;fill-rule:evenodd;fill:#739ba5;stroke-linecap:round;stroke-linejoin:round;stroke-width:4.2061;stroke:#16434a"/></g><path d="m193.9 107.86 6.2254-5.1469 6.9023 14.13 6.2932-3.0742-6.9023-14.13 7.4286-1.523-19.542-14.716z" style="fill:#fff;stroke-linecap:round;stroke-linejoin:round;stroke-width:.75591;stroke:#000"/><path d="m70.958 76.463 2.0777-5.6256-32.26-57.002-3.8051 2.5734z" style="color:#000000;fill-rule:evenodd;fill:url(#linearGradient869-3);stroke-linecap:round;stroke-linejoin:round;stroke-width:.67652;stroke:#67977f"/><path d="m262.78 13.836 32.272 57.023 148.66 0.0066-32.842-56.872z" style="color:#000000;fill-rule:evenodd;fill:url(#linearGradient867-4);stroke-linecap:round;stroke-linejoin:round;stroke-width:.677;stroke:#67977f"/><path d="m275.86 122.64 17.102-46.172-33.989-60.057-17.162 47.43z" style="color:#000000;fill-rule:evenodd;fill:url(#linearGradient869-38);stroke-linecap:round;stroke-linejoin:round;stroke-width:.67652;stroke:#67977f"/><g transform="matrix(.2917 0 0 .28875 184.75 31.17)" style="fill:#1f638a;stroke-linecap:round;stroke-linejoin:round;stroke-width:1.2209;stroke:#1f638a"><path d="m207.49 126.25 34.17 21.614-34.17 21.614z" style="fill:#1f638a;stroke-linecap:round;stroke-linejoin:round;stroke-width:1.3023;stroke:#1f638a"/><rect x="172.19" y="137.99" width="39.213" height="19.761" style="fill:#1f638a;stroke-linecap:round;stroke-linejoin:round;stroke-width:1.3023;stroke:#1f638a"/></g><path d="m427.43 122.68 16.719-46.184-151.19-0.038234-17.093 45.92z" style="color:#000000;fill-rule:evenodd;fill:url(#linearGradient871-59);stroke-linecap:round;stroke-linejoin:round;stroke-width:.67652;stroke:#67977f"/><g transform="matrix(.2917 0 0 .28875 404.75 31.17)" style="fill:#1f638a;stroke-linecap:round;stroke-linejoin:round;stroke-width:1.2209;stroke:#1f638a"><path d="m207.49 126.25 34.17 21.614-34.17 21.614z" style="fill:#1f638a;stroke-linecap:round;stroke-linejoin:round;stroke-width:1.3023;stroke:#1f638a"/><rect x="172.19" y="137.99" width="39.213" height="19.761" style="fill:#1f638a;stroke-linecap:round;stroke-linejoin:round;stroke-width:1.3023;stroke:#1f638a"/></g><path d="m444.15 76.501-0.43904-5.6356-148.66-0.0066-2.0879 5.6076z" style="color:#000000;fill-rule:evenodd;fill:url(#linearGradient871-5-4);stroke-linecap:round;stroke-linejoin:round;stroke-width:.67654;stroke:#67977f"/><path d="m379.48 98.239 6.2254-5.1469 6.9023 14.13 6.2932-3.0742-6.9023-14.13 7.4286-1.523-19.542-14.716z" style="fill:#fff;stroke-linecap:round;stroke-linejoin:round;stroke-width:.75591;stroke:#000"/><path d="m292.96 76.463 2.0777-5.6256-32.26-57.002-3.8051 2.5734z" style="color:#000000;fill-rule:evenodd;fill:url(#linearGradient869-3-0);stroke-linecap:round;stroke-linejoin:round;stroke-width:.67652;stroke:#67977f"/></svg>
