<?xml version="1.0" encoding="UTF-8"?>
<svg width="18cm" height="6cm" version="1.1" viewBox="0 0 180 60" xmlns="http://www.w3.org/2000/svg">
 <g transform="translate(0 -237)">
  <g transform="matrix(.26458 0 0 .26458 60.526 295.89)">
   <ellipse cx="-44.92" cy="-98.798" rx="13.199" ry="13.469" style="fill:#1f638a;stroke-linecap:round;stroke-linejoin:round;stroke-width:1.0658"/>
   <text x="-50.761276" y="-91.125885" style="fill:#000000;font-family:'Arial Nova', 'Arial Unicode MS', 'Yu Gothic UI', sans-serif;font-size:12.8px;letter-spacing:0px;line-height:0%;stroke-width:1.0667;word-spacing:0px" xml:space="preserve"><tspan x="-50.761276" y="-91.125885" style="fill:#ffffff;font-family:'Arial Nova', 'Arial Unicode MS', 'Yu Gothic UI', sans-serif;font-size:21.333px;line-height:1.25;stroke-width:1.0667;stroke:#ffffff">1</tspan></text>
  </g>
  <g transform="matrix(.26458 0 0 .26458 149.27 313.59)">
   <ellipse cx="-13.718" cy="-98.798" rx="13.199" ry="13.469" style="fill:#1f638a;stroke-linecap:round;stroke-linejoin:round;stroke-width:1.0658"/>
   <text x="-19.559933" y="-91.125885" style="fill:#000000;font-family:'Arial Nova', 'Arial Unicode MS', 'Yu Gothic UI', sans-serif;font-size:12.8px;letter-spacing:0px;line-height:0%;stroke-width:1.0667;word-spacing:0px" xml:space="preserve"><tspan x="-19.559933" y="-91.125885" style="fill:#ffffff;font-family:'Arial Nova', 'Arial Unicode MS', 'Yu Gothic UI', sans-serif;font-size:21.333px;line-height:1.25;stroke-width:1.0667;stroke:#ffffff">2</tspan></text>
  </g>
  <g transform="matrix(-1 0 0 1 262.16 39.554)">
   <path d="m166.5 204.55h-35.184" style="stroke-linecap:round;stroke-linejoin:round;stroke-width:.2;stroke:#000"/>
   <path d="m165.73 204.79 1.1087 3.3262h-2.3183z" style="stroke-linecap:round;stroke-linejoin:round;stroke-width:.282;stroke:#000"/>
   <path d="m165.68 207.42v17.217" style="stroke-linecap:round;stroke-linejoin:round;stroke-width:.25;stroke:#000"/>
   <path d="m165.73 224.7 1.1087-3.3262h-2.3183z" style="stroke-linecap:round;stroke-linejoin:round;stroke-width:.282;stroke:#000"/>
  </g>
  <g transform="matrix(.26458 0 0 .26458 86.886 280.01)">
   <ellipse cx="17.483" cy="-98.798" rx="13.199" ry="13.469" style="fill:#1f638a;stroke-linecap:round;stroke-linejoin:round;stroke-width:1.0658"/>
   <text x="11.641406" y="-91.256096" style="fill:#000000;font-family:'Arial Nova', 'Arial Unicode MS', 'Yu Gothic UI', sans-serif;font-size:12.8px;letter-spacing:0px;line-height:0%;stroke-width:1.0667;word-spacing:0px" xml:space="preserve"><tspan x="11.641406" y="-91.256096" style="fill:#ffffff;font-family:'Arial Nova', 'Arial Unicode MS', 'Yu Gothic UI', sans-serif;font-size:21.333px;line-height:1.25;stroke-width:1.0667;stroke:#ffffff">3</tspan></text>
  </g>
  <path d="m130.97 292.17 3.3262 1.1087v-2.3183z" style="stroke-linecap:round;stroke-linejoin:round;stroke-width:.282;stroke:#000"/>
  <path d="m131 292.12h27.422" style="stroke-linecap:round;stroke-linejoin:round;stroke-width:.25;stroke:#000"/>
  <path d="m161.5 292.17-3.3262 1.1087v-2.3183z" style="stroke-linecap:round;stroke-linejoin:round;stroke-width:.282;stroke:#000"/>
  <path d="m161.73 293.24v-28.589" style="stroke-linecap:round;stroke-linejoin:round;stroke-width:.2;stroke:#000"/>
  <g transform="matrix(.26458 0 0 .26458 57.635 245.05)">
   <g transform="rotate(-59.09 134.78 172.55)">
    <path d="m185 157.64-20.624 6.4215 5.206 8.707c8.2105-7.0026 15.418-15.128 15.418-15.128z" style="fill:#0f0;stroke-linecap:round;stroke-linejoin:round;stroke-width:1.8898;stroke:#0f0"/>
    <path d="m174.2 164.03-29.443 17.393" style="fill:#0f0;stroke-linecap:round;stroke-linejoin:round;stroke-width:1.8898;stroke:#0f0"/>
   </g>
   <g transform="rotate(-28.115 122.25 169.14)">
    <path d="m183.63 203.52-20.719-6.1073 5.0731-8.7851c8.316 6.877 15.646 14.892 15.646 14.892z" style="fill:#f00;stroke-linecap:round;stroke-linejoin:round;stroke-width:1.8898;stroke:#f00"/>
    <path d="m173.54 197.43-28.882-15.871" style="fill:#f00;stroke-linecap:round;stroke-linejoin:round;stroke-width:1.8898;stroke:#f00"/>
   </g>
  </g>
  <path d="m130.99 239.94v53.855" style="fill:none;stroke-dasharray:2.11666654, 0.52916663, 0.26458332, 0.52916663;stroke-width:.26458;stroke:#000"/>
  <path d="m95.443 264.39h69.223" style="fill:none;stroke-dasharray:2.11666637, 0.52916659, 0.26458331, 0.52916659;stroke-width:.26458;stroke:#000"/>
  <ellipse transform="rotate(-2)" cx="121.62" cy="268.79" rx="1.0691" ry="1" style="fill:#f00;stroke-linecap:round;stroke-linejoin:round;stroke-width:1.0011;stroke:#f00"/>
  <ellipse cx="130.99" cy="264.39" rx="30.736" ry="20.175" style="fill:none;paint-order:normal;stroke-linecap:round;stroke-linejoin:round;stroke:#f00"/>
  <g transform="matrix(.07718 0 0 .076397 65.716 253.28)" style="fill:#1f638a;stroke-linecap:round;stroke-linejoin:round;stroke-width:1.2209;stroke:#1f638a">
   <path d="m207.49 126.25 34.17 21.614-34.17 21.614z" style="fill:#1f638a;stroke-linecap:round;stroke-linejoin:round;stroke-width:1.3023;stroke:#1f638a"/>
   <rect x="172.19" y="137.99" width="39.213" height="19.761" style="fill:#1f638a;stroke-linecap:round;stroke-linejoin:round;stroke-width:1.3023;stroke:#1f638a"/>
  </g>
  <ellipse transform="rotate(-2)" cx="28.75" cy="265.56" rx="1.0691" ry="1" style="fill:#f00;stroke-linecap:round;stroke-linejoin:round;stroke-width:1.0011;stroke:#f00"/>
  <path d="m38.48 270.87 1.6471-1.3618 1.8262 3.7385 1.6651-0.81338-1.8262-3.7385 1.9655-0.40296-5.1705-3.8935z" style="fill:#fff;stroke-linecap:round;stroke-linejoin:round;stroke-width:.2;stroke:#000"/>
  <g transform="matrix(.07718 0 0 .076397 158.6 253.09)" style="fill:#1f638a;stroke-linecap:round;stroke-linejoin:round;stroke-width:1.2209;stroke:#1f638a">
   <path d="m207.49 126.25 34.17 21.614-34.17 21.614z" style="fill:#1f638a;stroke-linecap:round;stroke-linejoin:round;stroke-width:1.3023;stroke:#1f638a"/>
   <rect x="172.19" y="137.99" width="39.213" height="19.761" style="fill:#1f638a;stroke-linecap:round;stroke-linejoin:round;stroke-width:1.3023;stroke:#1f638a"/>
  </g>
 </g>
</svg>
