<?xml version="1.0" encoding="UTF-8"?>
<svg width="18cm" height="3cm" overflow="visible" version="1.0" viewBox="11.001 -110.36 680.31 113.39" xmlns="http://www.w3.org/2000/svg" xmlns:cc="http://creativecommons.org/ns#" xmlns:dc="http://purl.org/dc/elements/1.1/" xmlns:rdf="http://www.w3.org/1999/02/22-rdf-syntax-ns#">
 <metadata>
  <rdf:RDF>
   <cc:Work rdf:about="">
    <dc:format>image/svg+xml</dc:format>
    <dc:type rdf:resource="http://purl.org/dc/dcmitype/StillImage"/>
    <dc:title/>
   </cc:Work>
  </rdf:RDF>
 </metadata>
 <path d="m354.66-5.0282 0.20203-0.086 0.2735-0.086 0.34465-0.086 0.41542-0.086 0.48576-0.086 0.55562-0.086 0.62496-0.086 0.69371-0.086 0.76183-0.086 0.82928-0.086 0.89599-0.086 0.96194-0.086 1.0271-0.086 1.0913-0.086 1.1547-0.086 1.217-0.086 1.2784-0.086 1.3388-0.086 1.398-0.086 1.4561-0.086 1.5131-0.086 1.5688-0.086 1.6233-0.086 1.6765-0.086 1.7284-0.086 1.7789-0.086 1.828-0.086 1.8757-0.086 1.922-0.086 1.9667-0.086 2.0099-0.086 2.0516-0.086 2.0917-0.086 2.1302-0.086 2.167-0.086 2.2022-0.086 2.2357-0.086 2.2676-0.086 2.2977-0.086 2.326-0.086 2.3526-0.086 2.3775-0.086 2.4005-0.086 2.4218-0.086 2.4412-0.086 2.4588-0.086 2.4746-0.086 2.4885-0.086 2.5006-0.086 2.5108-0.086 2.5191-0.086 2.5256-0.086 2.5303-0.086 2.533-0.086 7.5971-0.258 2.5255-0.086 2.519-0.086 2.5107-0.086 2.5005-0.086 2.4885-0.086 2.4748-0.086 2.4592-0.086 2.4418-0.086 2.4227-0.086 2.4019-0.086 2.3793-0.086 2.355-0.086 2.3291-0.086 2.3015-0.086 2.2722-0.086 2.2414-0.086 2.2089-0.086 2.1749-0.086 2.1394-0.086 2.1023-0.086 2.0638-0.086 2.0238-0.086 1.9825-0.086 1.9397-0.086 1.8956-0.086 1.8502-0.086 1.8036-0.086 1.7557-0.086 1.7066-0.086 1.6563-0.086 1.6049-0.086 1.5525-0.086 1.499-0.086 1.4445-0.086 1.389-0.086 1.3326-0.086 1.2754-0.086 1.2173-0.086 1.1585-0.086 1.0989-0.086 1.0386-0.086 0.9777-0.086 0.91618-0.086 0.8541-0.086 0.79151-0.086 0.72845-0.086 0.66499-0.086 0.60116-0.086 0.53701-0.086 0.47258-0.086 0.40794-0.086 0.34312-0.086 0.27817-0.086 0.21315-0.086 0.14809-0.086 0.0831-0.086 0.0181-0.086-0.0468-0.086-0.11148-0.086-0.17598-0.086-0.24022-0.086-0.30415-0.086-0.36775-0.086-0.43094-0.086-0.49371-0.086-0.55598-0.086-0.61773-0.086-0.6789-0.086-0.73945-0.086-0.79935-0.086-0.85854-0.086-0.91698-0.086-0.97464-0.086-1.0315-0.086-1.0874-0.086-1.1425-0.086-1.1966-0.086-1.2497-0.086-1.3018-0.086-1.3528-0.086-1.4028-0.086-1.4516-0.086-1.4992-0.086-1.5457-0.086-1.5909-0.086-1.6349-0.086-1.6776-0.086-1.719-0.086-1.759-0.086-1.7977-0.086-1.8349-0.086-1.8708-0.086-1.9052-0.086-1.9381-0.086-1.9695-0.086-1.9994-0.086-2.0279-0.086-2.0547-0.086-2.08-0.086-2.1037-0.086-2.1259-0.086-2.1464-0.086-2.1653-0.086-2.1826-0.086-2.1982-0.086-2.2122-0.086-2.2245-0.086-2.2352-0.086-2.2442-0.086-2.2516-0.086-2.2573-0.086-9.0526-0.344-2.2607-0.086-2.2564-0.086-2.2505-0.086-2.2429-0.086-2.2337-0.086-2.2228-0.086-2.2104-0.086-2.1964-0.086-2.1808-0.086-2.1636-0.086-2.1448-0.086-2.1245-0.086-2.1027-0.086-2.0794-0.086-2.0547-0.086-2.0284-0.086-2.0008-0.086-1.9717-0.086-1.9412-0.086-1.9094-0.086-1.8762-0.086-1.8418-0.086-1.806-0.086-1.769-0.086-1.7308-0.086-1.6914-0.086-1.6508-0.086-1.6091-0.086-1.5663-0.086-1.5225-0.086-1.4776-0.086-1.4317-0.086-1.3849-0.086-1.3372-0.086-1.2885-0.086-1.2391-0.086-1.1888-0.086-1.1378-0.086-1.086-0.086-1.0336-0.086-0.98046-0.086-0.92676-0.086-0.8725-0.086-0.8177-0.086-0.76242-0.086-0.7067-0.086-0.65059-0.086-0.59412-0.086-0.53732-0.086-0.48027-0.086-0.42298-0.086-0.3655-0.086-0.30789-0.086-0.25016-0.086-0.19239-0.086-0.13458-0.086-0.0768-0.086-0.0191-0.086 0.0385-0.086 0.0959-0.086 0.15315-0.086 0.21015-0.086 0.26688-0.086 0.32328-0.086 0.37933-0.086 0.43497-0.086 0.49016-0.086 0.54488-0.086 0.59907-0.086 0.65271-0.086 0.70575-0.086 0.75814-0.086 0.80988-0.086 0.8609-0.086 0.91117-0.086 0.96067-0.086 1.0093-0.086 1.0572-0.086 1.1041-0.086 1.1502-0.086 1.1952-0.086 1.2393-0.086 1.2824-0.086 1.3245-0.086 1.3655-0.086 1.4054-0.086 1.4441-0.086 1.4817-0.086 1.5182-0.086 1.5534-0.086 1.5875-0.086 1.6202-0.086 1.6518-0.086 1.682-0.086 1.7109-0.086 1.7385-0.086 1.7648-0.086 1.7897-0.086 1.8132-0.086 1.8354-0.086 1.8562-0.086 1.8755-0.086 1.8934-0.086 1.9099-0.086 1.9249-0.086 1.9385-0.086 1.9506-0.086 1.9613-0.086 1.9705-0.086 1.9783-0.086 1.9845-0.086 1.9893-0.086 1.9926-0.086 1.9945-0.086 3.9886-0.172 1.9912-0.086 1.9872-0.086 1.9817-0.086 1.9748-0.086 1.9665-0.086 1.9567-0.086 1.9455-0.086 1.9329-0.086 1.919-0.086 1.9036-0.086 1.8869-0.086 1.8688-0.086 1.8494-0.086 1.8287-0.086 1.8066-0.086 1.7834-0.086 1.7588-0.086 1.733-0.086 1.706-0.086 1.6778-0.086 1.6485-0.086 1.618-0.086 1.5864-0.086 1.5537-0.086 1.5199-0.086 1.4851-0.086 1.4493-0.086 1.4125-0.086 1.3747-0.086 1.3361-0.086 1.2965-0.086 1.2561-0.086 1.2148-0.086 1.1728-0.086 1.13-0.086 1.0865-0.086 1.0423-0.086 0.99739-0.086 0.9519-0.086 0.9058-0.086 0.85916-0.086 0.81199-0.086 0.76435-0.086 0.71626-0.086 0.66776-0.086 0.61888-0.086 0.56968-0.086 0.52016-0.086 0.4704-0.086 0.42041-0.086 0.37022-0.086 0.3199-0.086 0.26946-0.086 0.21894-0.086 0.1684-0.086 0.11785-0.086 0.0674-0.086 0.0169-0.086-0.0334-0.086-0.0836-0.086-0.13355-0.086-0.18331-0.086-0.2328-0.086-0.282-0.086-0.33088-0.086-0.37938-0.086-0.42749-0.086-0.47515-0.086-0.52235-0.086-0.56905-0.086-0.61521-0.086-0.66079-0.086-0.70579-0.086-0.75013-0.086-0.79382-0.086-0.83681-0.086-0.87908-0.086-0.92059-0.086-0.96131-0.086-1.0012-0.086-1.0403-0.086-1.0785-0.086-1.1158-0.086-1.1522-0.086-1.1877-0.086-1.2222-0.086-1.2557-0.086-1.2882-0.086-1.3196-0.086-1.35-0.086-1.3794-0.086-1.4076-0.086-1.4347-0.086-1.4608-0.086-1.4856-0.086-1.5093-0.086-1.5318-0.086-1.5532-0.086-1.5733-0.086-1.5922-0.086-1.6099-0.086-1.6264-0.086-1.6416-0.086-1.6556-0.086-1.6684-0.086-1.6798-0.086-1.69-0.086-1.6989-0.086-1.7066-0.086-1.7129-0.086-1.718-0.086-1.7218-0.086-5.1756-0.258-1.7243-0.086-1.7218-0.086-1.7179-0.086-1.7128-0.086-1.7065-0.086-1.699-0.086-1.6902-0.086-1.6801-0.086-1.6689-0.086-1.6565-0.086-1.6429-0.086-1.6281-0.086-1.6121-0.086-1.595-0.086-1.5768-0.086-1.5575-0.086-1.537-0.086-1.5155-0.086-1.4929-0.086-1.4693-0.086-1.4447-0.086-1.4191-0.086-1.3925-0.086-1.3649-0.086-1.3365-0.086-1.3071-0.086-1.2768-0.086-1.2457-0.086-1.2137-0.086-1.181-0.086-1.1474-0.086-1.1131-0.086-1.0781-0.086-1.0424-0.086-1.006-0.086-0.96895-0.086-0.93131-0.086-0.8931-0.086-0.85432-0.086-0.81504-0.086-0.77526-0.086-0.73502-0.086-0.69435-0.086-0.65328-0.086-0.61186-0.086-0.57009-0.086-0.52803-0.086-0.4857-0.086-0.44312-0.086-0.40035-0.086-0.35741-0.086-0.31432-0.086-0.27112-0.086-0.22786-0.086-0.18454-0.086-0.14122-0.086-0.0979-0.086-0.0547-0.086-0.0115-0.086 0.0316-0.086 0.0745-0.086 0.11717-0.086 0.15968-0.086 0.20195-0.086 0.24393-0.086 0.28563-0.086 0.32699-0.086 0.36797-0.086 0.40858-0.086 0.44875-0.086 0.48848-0.086 0.52774-0.086 0.56647-0.086 0.60469-0.086 0.64233-0.086 0.6794-0.086 0.71585-0.086 0.75167-0.086 0.78682-0.086 0.82129-0.086 0.85504-0.086 0.88807-0.086 0.92033-0.086 0.95183-0.086 0.98252-0.086 1.0124-0.086 1.0414-0.086 1.0696-0.086 1.0969-0.086 1.1233-0.086 1.1488-0.086 1.1734-0.086 1.197-0.086 1.2197-0.086 1.2414-0.086 1.2621-0.086 1.2818-0.086 1.3005-0.086 1.3182-0.086 1.3349-0.086 1.3505-0.086 1.3651-0.086 1.3786-0.086 1.3911-0.086 1.4025-0.086 1.4128-0.086 1.4221-0.086 1.4302-0.086 1.4373-0.086 1.4433-0.086 1.4482-0.086 1.4521-0.086 1.4548-0.086 1.4565-0.086 2.9136-0.172 1.455-0.086 1.4523-0.086 1.4486-0.086 1.4438-0.086 1.438-0.086 1.4311-0.086 1.4232-0.086 1.4143-0.086 1.4043-0.086 1.3933-0.086 1.3814-0.086 1.3684-0.086 1.3545-0.086 1.3397-0.086 1.3238-0.086 1.3071-0.086 1.2894-0.086 1.2709-0.086 1.2515-0.086 1.2312-0.086 1.21-0.086 1.188-0.086 1.1652-0.086 1.1417-0.086 1.1173-0.086 1.0922-0.086 1.0664-0.086 1.0399-0.086 1.0127-0.086 0.9849-0.086 0.95642-0.086 0.92733-0.086 0.89765-0.086 0.86742-0.086 0.83664-0.086 0.80534-0.086 0.77356-0.086 0.7413-0.086 0.7086-0.086 0.6755-0.086 0.64199-0.086 0.60812-0.086 0.57392-0.086 0.5394-0.086 0.5046-0.086 0.46953-0.086 0.43424-0.086 0.39874-0.086 0.36307-0.086 0.32725-0.086 0.29131-0.086 0.25528-0.086 0.21919-0.086 0.18308-0.086 0.14693-0.086 0.11081-0.086 0.0747-0.086 0.0387-0.086 3e-3 -0.086-0.033-0.086-0.0686-0.086-0.10408-0.086-0.13934-0.086-0.17437-0.086-0.20913-0.086-0.24363-0.086-0.2778-0.086-0.31167-0.086-0.34517-0.086-0.37829-0.086-0.41102-0.086-0.44332-0.086-0.47519-0.086-0.50657-0.086-0.53749-0.086-0.56789-0.086-0.59775-0.086-0.62708-0.086-0.65582-0.086-0.68399-0.086-0.71155-0.086-0.73847-0.086-0.76476-0.086-0.79038-0.086-0.81533-0.086-0.83957-0.086-0.8631-0.086-0.8859-0.086-0.90797-0.086-0.92926-0.086-0.94978-0.086-0.96954-0.086-0.98848-0.086-1.0066-0.086-1.024-0.086-1.0405-0.086-1.0562-0.086-1.071-0.086-1.085-0.086-1.098-0.086-1.1103-0.086-1.1217-0.086-1.1322-0.086-1.1418-0.086-1.1505-0.086-1.1584-0.086-1.1654-0.086-1.1714-0.086-1.1766-0.086-1.1808-0.086-1.1842-0.086-1.1867-0.086-3.5661-0.258-1.1877-0.086-1.1858-0.086-1.1829-0.086-1.1792-0.086-1.1747-0.086-1.1693-0.086-1.163-0.086-1.1559-0.086-1.1479-0.086-1.1392-0.086-1.1296-0.086-1.1192-0.086-1.108-0.086-1.096-0.086-1.0833-0.086-1.0698-0.086-1.0556-0.086-1.0406-0.086-1.0249-0.086-1.0086-0.086-0.99148-0.086-0.97376-0.086-0.95538-0.086-0.93636-0.086-0.91672-0.086-0.89649-0.086-0.87566-0.086-0.85427-0.086-0.83233-0.086-0.80986-0.086-0.78687-0.086-0.76339-0.086-0.73944-0.086-0.71503-0.086-0.69018-0.086-0.66492-0.086-0.63927-0.086-0.61324-0.086-0.58686-0.086-0.56016-0.086-0.53314-0.086-0.50583-0.086-0.47828-0.086-0.45046-0.086-0.42245-0.086-0.39424-0.086-0.36584-0.086-0.3373-0.086-0.30862-0.086-0.27983-0.086-0.25095-0.086-0.22202-0.086-0.19304-0.086-0.16405-0.086-0.13506-0.086-0.10609-0.086-0.0772-0.086-0.0483-0.086-0.0196-0.086 9e-3 -0.086 0.0376-0.086 0.0659-0.086 0.0941-0.086 0.12208-0.086 0.14984-0.086 0.17739-0.086 0.20466-0.086 0.23167-0.086 0.25838-0.086 0.2848-0.086 0.31086-0.086 0.3366-0.086 0.36196-0.086 0.38694-0.086 0.41153-0.086 0.43568-0.086 0.45941-0.086 0.48269-0.086 0.50549-0.086 0.52781-0.086 0.54964-0.086 0.57094-0.086 0.59172-0.086 0.61196-0.086 0.63164-0.086 0.65077-0.086 0.66932-0.086 0.68727-0.086 0.70462-0.086 0.72138-0.086 0.73749-0.086 0.753-0.086 0.76784-0.086 0.78206-0.086 0.79561-0.086 0.80851-0.086 0.82073-0.086 0.83227-0.086 0.84315-0.086 0.85332-0.086 0.86282-0.086 0.87161-0.086 0.87972-0.086 0.88711-0.086 0.8938-0.086 0.8998-0.086 0.90508-0.086 0.90965-0.086 0.91353-0.086 0.91669-0.086 0.91915-0.086 0.92089-0.086 0.92195-0.086 1.8442-0.172 0.9209-0.086 0.91918-0.086 0.91676-0.086 0.91366-0.086 0.90989-0.086 0.90545-0.086 0.90034-0.086 0.89458-0.086 0.88818-0.086 0.88113-0.086 0.87347-0.086 0.86519-0.086 0.85628-0.086 0.8468-0.086 0.8367-0.086 0.82604-0.086 0.81481-0.086 0.80302-0.086 0.79069-0.086 0.77782-0.086 0.76443-0.086 0.75053-0.086 0.73614-0.086 0.72126-0.086 0.70592-0.086 0.69012-0.086 0.67388-0.086 0.65721-0.086 0.64014-0.086 0.62266-0.086 0.6048-0.086 0.58659-0.086 0.56803-0.086 0.54912-0.086 0.52992-0.086 0.5104-0.086 0.49062-0.086 0.47056-0.086 0.45027-0.086 0.42973-0.086 0.40899-0.086 0.38804-0.086 0.36691-0.086 0.34563-0.086 0.3242-0.086 0.30265-0.086 0.28098-0.086 0.25923-0.086 0.23741-0.086 0.21552-0.086 0.1936-0.086 0.17166-0.086 0.14971-0.086 0.12777-0.086 0.10587-0.086 0.084-0.086 0.0622-0.086 0.0405-0.086 0.0189-0.086-3e-3 -0.086-0.0241-0.086-0.0453-0.086-0.0664-0.086-0.0873-0.086-0.10807-0.086-0.1286-0.086-0.14892-0.086-0.16901-0.086-0.18884-0.086-0.20841-0.086-0.22771-0.086-0.24672-0.086-0.26542-0.086-0.2838-0.086-0.30185-0.086-0.31957-0.086-0.33693-0.086-0.35393-0.086-0.37054-0.086-0.38678-0.086-0.40262-0.086-0.41805-0.086-0.43307-0.086-0.44765-0.086-0.4618-0.086-0.47552-0.086-0.48876-0.086-0.50157-0.086-0.5139-0.086-0.52575-0.086-0.53713-0.086-0.54802-0.086-0.55843-0.086-0.56832-0.086-0.57773-0.086-0.58662-0.086-0.59501-0.086-0.60288-0.086-0.61024-0.086-0.61708-0.086-0.62339-0.086-0.62919-0.086-0.63446-0.086-0.6392-0.086-0.64343-0.086-0.64711-0.086-0.65028-0.086-0.65292-0.086-0.65504-0.086-0.65664-0.086-0.6577-0.086-1.3166-0.172-0.65783-0.086-0.65684-0.086-0.65535-0.086-0.65338-0.086-0.65089-0.086-0.64794-0.086-0.64448-0.086-0.64056-0.086-0.63617-0.086-0.63131-0.086-0.62599-0.086-0.62024-0.086-0.61402-0.086-0.60738-0.086-0.60032-0.086-0.59283-0.086-0.58493-0.086-0.57663-0.086-0.56794-0.086-0.55887-0.086-0.54943-0.086-0.53961-0.086-0.52946-0.086-0.51895-0.086-0.50812-0.086-0.49697-0.086-0.48549-0.086-0.47374-0.086-0.4617-0.086-0.44938-0.086-0.43681-0.086-0.42398-0.086-0.41093-0.086-0.39764-0.086-0.38414-0.086-0.37044-0.086-0.35655-0.086-0.34249-0.086-0.32827-0.086-0.31391-0.086-0.29939-0.086-0.28478-0.086-0.27004-0.086-0.25521-0.086-0.2403-0.086-0.22531-0.086-0.21028-0.086-0.19519-0.086-0.18007-0.086-0.16493-0.086-0.14978-0.086-0.13465-0.086-0.11951-0.086-0.10442-0.086-0.0894-0.086-0.0743-0.086-0.0594-0.086-0.0445-0.086-0.0298-0.086-0.0151-0.086-5.3e-4 -0.086 0.0139-0.086 0.0282-0.086 0.0424-0.086 0.0564-0.086 0.0702-0.086 0.0839-0.086 0.0974-0.086 0.11066-0.086 0.12374-0.086 0.13658-0.086 0.14922-0.086 0.16161-0.086 0.17377-0.086 0.18567-0.086 0.19732-0.086 0.20869-0.086 0.2198-0.086 0.23061-0.086 0.24115-0.086 0.25139-0.086 0.26133-0.086 0.27096-0.086 0.28028-0.086 0.28928-0.086 0.29796-0.086 0.30631-0.086 0.31433-0.086 0.32201-0.086 0.32935-0.086 0.33636-0.086 0.34301-0.086 0.34932-0.086 0.35528-0.086 0.36087-0.086 0.36613-0.086 0.37101-0.086 0.37555-0.086 0.37971-0.086 0.38354-0.086 0.38699-0.086 0.39008-0.086 0.39282-0.086 0.3952-0.086 0.39721-0.086 0.39888-0.086 0.40018-0.086 0.40113-0.086 0.40174-0.086 0.8039-0.172 0.40149-0.086 0.40072-0.086 0.39962-0.086 0.3982-0.086 0.39646-0.086 0.39438-0.086 0.392-0.086 0.38931-0.086 0.38631-0.086 0.38301-0.086 0.37942-0.086 0.37553-0.086 0.37138-0.086 0.36693-0.086 0.36223-0.086 0.35726-0.086 0.35202-0.086 0.34656-0.086 0.34083-0.086 0.33488-0.086 0.3287-0.086 0.3223-0.086 0.3157-0.086 0.30888-0.086 0.30189-0.086 0.2947-0.086 0.28733-0.086 0.27981-0.086 0.27212-0.086 0.26428-0.086 0.2563-0.086 0.24819-0.086 0.23995-0.086 0.2316-0.086 0.22314-0.086 0.21459-0.086 0.20596-0.086 0.19724-0.086 0.18845-0.086 0.17962-0.086 0.17073-0.086 0.1618-0.086 0.15284-0.086 0.14385-0.086 0.13485-0.086 0.12586-0.086 0.11684-0.086 0.10787-0.086 0.0989-0.086 0.0899-0.086 0.0811-0.086 0.0722-0.086 0.0634-0.0861 0.0546-0.086 0.046-0.086 0.0374-0.086 0.0289-0.0861 0.0204-0.086 0.0121-0.086 4e-3 -0.0861-4e-3 -0.086-0.0122-0.086-0.02-0.086-0.0277-0.0861-0.0352-0.086-0.0427-0.086-0.0499-0.086-0.057-0.0861-0.0639-0.086-0.0707-0.086-0.0773-0.086-0.0837-0.0861-0.0899-0.086-0.0959-0.086-0.10171-0.086-0.10734-0.0861-0.11276-0.086-0.11796-0.086-0.12297-0.0861-0.12775-0.086-0.13232-0.086-0.13667-0.086-0.1408-0.0861-0.1447-0.086-0.14839-0.086-0.15184-0.086-0.15507-0.0861-0.15806-0.086-0.16084-0.086-0.16336-0.086-0.16568-0.0861-0.16774-0.086-0.16959-0.086-0.17121-0.086-0.17258-0.0861-0.17374-0.086-0.17467-0.086-0.17536-0.0861-0.17584-0.086-0.17609-0.086-0.17612-0.086-0.17593-0.0861-0.17551-0.086-0.1749-0.086-0.17407-0.086-0.17302-0.0861-0.17178-0.086-0.17034-0.086-0.16871-0.086-0.16687-0.0861-0.16486-0.086-0.16266-0.086-0.16029-0.086-0.15774-0.0861-0.15501-0.086-0.15214-0.086-0.14909-0.0861-0.1459-0.086-0.14256-0.086-0.13907-0.086-0.13545-0.0861-0.1317-0.086-0.12782-0.086-0.12381-0.086-0.11971-0.0861-0.11548-0.086-0.11117-0.086-0.10675-0.086-0.10225-0.0861-0.0977-0.086-0.093-0.086-0.0883-0.086-0.0835-0.0861-0.0787-0.086-0.0738-0.086-0.0689-0.086-0.0639-0.086-0.059-0.086-0.054-0.086-0.049-0.0861-0.0439-0.086-0.039-0.086-0.034-0.086-0.029-0.0861-0.024-0.086-0.0191-0.086-0.0142-0.086-9e-3 -0.0861-5e-3 -0.086 1.1e-4 -0.086 5e-3 -0.086 9e-3 -0.0861 0.0139-0.086 0.0183-0.086 0.0227-0.086 0.0269-0.0861 0.0311-0.086 0.0351-0.086 0.0391-0.0861 0.0429-0.086 0.0466-0.086 0.0502-0.086 0.0536-0.0861 0.0569-0.086 0.0601-0.086 0.0631-0.086 0.066-0.0861 0.0687-0.086 0.0713-0.086 0.0737-0.086 0.0759-0.0861" color="#260000" fill="none" stroke="currentColor" stroke-width="3.7795"/>
 <g transform="translate(12.523 -240)">
  <path d="m249.87 183.46 5.0723 20.997h-10.145z" fill="#00f" stroke="#00f" stroke-linecap="round" stroke-linejoin="round" stroke-width="1.8898"/>
  <path d="m249.82 193.02 0.17496 39.728" fill="#00f" stroke="#00f" stroke-linecap="round" stroke-linejoin="round" stroke-width="1.8898"/>
  <path d="m282.96 233.05-32.955-0.0721" fill="#f00" stroke="#f00" stroke-linecap="round" stroke-linejoin="round" stroke-width="1.8898"/>
  <path d="m294.74 233.06-21.11 5.071v-10.142z" fill="#fff" stroke="#f00" stroke-linecap="round" stroke-linejoin="round" stroke-width="1.8898"/>
  <circle cx="249.85" cy="232.5" r="5.0646" fill="#fff" fill-rule="evenodd" stroke="#0f0" stroke-dashoffset="1.2178" stroke-linecap="round" stroke-linejoin="round" stroke-width="1.8898" style="paint-order:markers fill stroke"/>
  <g stroke="#00f" stroke-width="1.0667" aria-label="Z">
   <path d="m239.73 185.78-4.4896 5.8229h4.6198v0.90625h-5.8229v-0.94792l4.4688-5.7813h-4.1406v-0.90626h5.3646z" fill="#f00" stroke="#00f" stroke-width="1.0667"/>
  </g>
  <path d="m249.42 217.48 6.2254-5.147 6.9023 14.13 6.2932-3.0742-6.9023-14.13 7.4286-1.523-19.542-14.716z" fill="#fff" stroke="#000" stroke-linecap="round" stroke-linejoin="round" stroke-width=".7559"/>
 </g>
 <g transform="matrix(.2917 0 0 .28875 271.8 -69.013)" fill="#1f638a" stroke="#1f638a" stroke-linecap="round" stroke-linejoin="round" stroke-width="1.3023">
  <path d="m207.49 126.25 34.17 21.614-34.17 21.614z"/>
  <rect x="172.19" y="137.99" width="39.213" height="19.761"/>
 </g>
 <g transform="matrix(.2917 0 0 .28875 161.8 -69.013)" fill="#1f638a" stroke="#1f638a" stroke-linecap="round" stroke-linejoin="round" stroke-width="1.3023">
  <path d="m207.49 126.25 34.17 21.614-34.17 21.614z"/>
  <rect x="172.19" y="137.99" width="39.213" height="19.761"/>
 </g>
</svg>
