<?xml version="1.0" encoding="UTF-8"?>
<svg width="18cm" height="4.5cm" version="1.1" xmlns="http://www.w3.org/2000/svg">
 <defs>
  <linearGradient id="linearGradient7569" x1="150.23" x2="290.52" y1="72.697" y2="73.197" gradientTransform="scale(1.0667)" gradientUnits="userSpaceOnUse">
   <stop style="stop-color:#fff" offset="0"/>
   <stop style="stop-color:#808080" offset="1"/>
  </linearGradient>
  <radialGradient id="radialGradient7598" cx="495.75" cy="193.45" r="51.25" gradientTransform="matrix(1.6641 -.58697 .42425 .92974 -496.96 474.57)" gradientUnits="userSpaceOnUse">
   <stop style="stop-color:#f4f6f6;stop-opacity:.25556" offset="0"/>
   <stop style="stop-opacity:0" offset="1"/>
  </radialGradient>
 </defs>
 <g transform="translate(0 -283.46)">
  <rect x="5.4962" y="7.3885" width="443.5" height="307.29" rx="7.5591" ry="7.5591" style="fill-opacity:0"/>
  <g transform="rotate(-35.114 571.3 415.37)">
   <g transform="rotate(35.114 292.59 427.14)">
    <ellipse cx="93.241" cy="158.06" rx="13.199" ry="13.469" style="fill:#1f638a;stroke-linecap:round;stroke-linejoin:round;stroke-width:1.0658"/>
    <text x="90.065536" y="165.72356" style="fill:#000000;font-family:'Arial Nova', 'Arial Unicode MS', 'Yu Gothic UI', sans-serif;font-size:12.8px;letter-spacing:0px;line-height:0%;stroke-width:1.0667;word-spacing:0px" xml:space="preserve"><tspan x="90.065536" y="165.72356" style="fill:#ffffff;font-family:'Arial Nova', 'Arial Unicode MS', 'Yu Gothic UI', sans-serif;font-size:21.333px;font-weight:bold;line-height:1.25;stroke-width:1.0667">I</tspan></text>
   </g>
   <path d="m235.8 120.98 109.83-0.1538" style="fill:#f00;stroke-linecap:round;stroke-linejoin:round;stroke-width:3.7795;stroke:#f00"/>
   <rect x="162.13" y="51.943" width="94.667" height="51.2" style="fill:url(#linearGradient7569);stroke-linecap:round;stroke-linejoin:round;stroke-width:3.7795;stroke:#7d7d7d"/>
   <path d="m161.87 77.543h94.933" style="fill:none;stroke-linecap:round;stroke-linejoin:round;stroke-width:.75591;stroke:#7d7d7d"/>
   <path d="m209.47 51.41v52" style="fill:none;stroke-linecap:round;stroke-linejoin:round;stroke-width:.75591;stroke:#7d7d7d"/>
   <path d="m162.13 103.14h94.667" style="fill:none;stroke-linecap:round;stroke-linejoin:round;stroke-width:3.7795;stroke:#f00"/>
  </g>
  <g transform="translate(542.33 254.1)">
   <g transform="translate(22.297 60.859)">
    <path d="m49.669 39.103 0.12755 28.961" style="fill:#00f;stroke-linecap:round;stroke-linejoin:round;stroke-width:.75591;stroke:#00f"/>
    <path d="m71.362 55.347-21.464 12.68" style="fill:#0f0;stroke-linecap:round;stroke-linejoin:round;stroke-width:.75591;stroke:#0f0"/>
    <path d="m94.926 93.579-45.133-24.802" style="fill:#f00;stroke-linecap:round;stroke-linejoin:round;stroke-width:1.8898;stroke:#f00"/>
    <path d="m95.892 94.129-13.098-2.0135 4.0016-7.7948z" style="fill:#f00;stroke-linecap:round;stroke-linejoin:round;stroke-width:1.0658;stroke:#f00"/>
    <path d="m49.703 32.139 3.6977 15.307h-7.3955c1.3098-7.7569 3.6977-15.307 3.6977-15.307z" style="fill:#fff;stroke-linecap:round;stroke-linejoin:round;stroke-width:.75591;stroke:#00f"/>
    <path d="m79.238 50.691-15.035 4.6813 3.7952 6.3474c5.9855-5.1049 11.24-11.029 11.24-11.029z" style="fill:#fff;stroke-linecap:round;stroke-linejoin:round;stroke-width:.75591;stroke:#0f0"/>
   </g>
   <path d="m24.178 50.335 0.12755 28.961" style="fill:#800080;stroke-linecap:round;stroke-linejoin:round;stroke-width:.75591;stroke:#00f"/>
   <path d="m70.811 51.595-46.01 27.18" style="fill:#0f0;stroke-linecap:round;stroke-linejoin:round;stroke-width:1.8898;stroke:#f00"/>
   <path d="m45.387 90.928-21.055-11.57" style="fill:#800080;stroke-linecap:round;stroke-linejoin:round;stroke-width:.75591;stroke:#f00"/>
   <path d="m71.817 51.252-8.8897 9.8272-4.3056-7.6311z" style="fill:#f00;stroke-linecap:round;stroke-linejoin:round;stroke-width:1.0658;stroke:#f00"/>
   <path d="m24.212 43.371 3.6977 15.307h-7.3955c1.3098-7.7569 3.6977-15.307 3.6977-15.307z" style="fill:#fff;stroke-linecap:round;stroke-linejoin:round;stroke-width:.75591;stroke:#00f"/>
   <path d="m52.746 95.368-15.104-4.4522 3.6983-6.4044c6.0624 5.0133 11.406 10.857 11.406 10.857z" style="fill:#fff;stroke-linecap:round;stroke-linejoin:round;stroke-width:.75591;stroke:#f00"/>
   <g transform="translate(-118.71 -5.1661)">
    <path d="m162.64 161.15-21.464 12.68" style="fill:#0f0;stroke-linecap:round;stroke-linejoin:round;stroke-width:.75591;stroke:#0f0"/>
    <path d="m162.16 185.5-21.055-11.57" style="fill:#f00;stroke-linecap:round;stroke-linejoin:round;stroke-width:.75591;stroke:#f00"/>
    <path d="m141.15 109.47 4.1531 12.584-8.7619-0.026z" style="fill:#f00;stroke-linecap:round;stroke-linejoin:round;stroke-width:1.0658;stroke:#f00"/>
    <path d="m170.52 156.49-15.035 4.6813 3.7952 6.3474c5.9855-5.1049 11.24-11.029 11.24-11.029z" style="fill:#fff;stroke-linecap:round;stroke-linejoin:round;stroke-width:.75591;stroke:#0f0"/>
    <path d="m169.52 189.94-15.104-4.4522 3.6983-6.4044c6.0624 5.0133 11.406 10.857 11.406 10.857z" style="fill:#fff;stroke-linecap:round;stroke-linejoin:round;stroke-width:.75591;stroke:#f00"/>
    <path d="m141.14 110.74 0.27339 62.082" style="fill:#00f;stroke-linecap:round;stroke-linejoin:round;stroke-width:1.8898;stroke:#f00"/>
   </g>
   <g transform="translate(-67.271 -35.964)">
    <ellipse cx="142.93" cy="201.25" rx="13.199" ry="13.469" style="fill:#1f638a;stroke-linecap:round;stroke-linejoin:round;stroke-width:1.0658"/>
    <text x="134.15483" y="208.91426" style="fill:#000000;font-family:'Arial Nova', 'Arial Unicode MS', 'Yu Gothic UI', sans-serif;font-size:12.8px;letter-spacing:0px;line-height:0%;stroke-width:1.0667;word-spacing:0px" xml:space="preserve"><tspan x="134.15483" y="208.91426" style="fill:#ffffff;font-family:'Arial Nova', 'Arial Unicode MS', 'Yu Gothic UI', sans-serif;font-size:21.333px;font-weight:bold;line-height:1.25;stroke-width:1.0667">III</tspan></text>
   </g>
  </g>
  <g transform="translate(-117.09 130.51)">
   <g transform="translate(117.57 70.185)">
    <ellipse transform="rotate(-2)" cx="231.28" cy="169.98" rx="4.0406" ry="3.7795" style="fill:#f00;stroke-linecap:round;stroke-linejoin:round;stroke-width:3.7837;stroke:#f00"/>
    <ellipse transform="rotate(-2)" cx="316.78" cy="113.2" rx="4.0406" ry="3.7795" style="fill:#f00;stroke-linecap:round;stroke-linejoin:round;stroke-width:3.7837;stroke:#f00"/>
   </g>
   <path d="m350.29 234.85 89.754-63.301" style="fill:#f00;stroke-dasharray:0.75590554, 1.51181106;stroke-linecap:round;stroke-linejoin:round;stroke-width:.75591;stroke:#f00"/>
   <ellipse cx="370.1" cy="192.66" rx="13.199" ry="13.469" style="fill:#1f638a;stroke-linecap:round;stroke-linejoin:round;stroke-width:1.0658"/>
   <text x="364.26276" y="200.33023" style="fill:#000000;font-family:'Arial Nova', 'Arial Unicode MS', 'Yu Gothic UI', sans-serif;font-size:12.8px;letter-spacing:0px;line-height:0%;stroke-width:1.0667;word-spacing:0px" xml:space="preserve"><tspan x="364.26276" y="200.33023" style="fill:#ffffff;font-family:'Arial Nova', 'Arial Unicode MS', 'Yu Gothic UI', sans-serif;font-size:21.333px;font-weight:bold;line-height:1.25;stroke-width:1.0667">II</tspan></text>
   <path d="m437.91 197.32 6.2254-5.147 6.9023 14.13 6.2932-3.0742-6.9023-14.13 7.4286-1.523-19.542-14.716z" style="fill:#fff;stroke-linecap:round;stroke-linejoin:round;stroke-width:.75591;stroke:#000"/>
  </g>
  <g transform="translate(6.4,8)">
   <path d="m314.99 341.67 146.75-51.763c6.5977-2.3271 14.04 0.46926 16.687 6.2699l33.93 74.358c2.6469 5.8006-0.5337 12.344-7.1314 14.671l-146.75 51.763c-6.5977 2.3271-14.04-0.46926-16.687-6.2699l-33.93-74.358c-2.6469-5.8006 0.53375-12.344 7.1314-14.671z" style="fill:url(#radialGradient7598)"/>
   <text x="432.70914" y="391.09818" style="fill:#000000;font-family:'Arial Nova', 'Arial Unicode MS', 'Yu Gothic UI', sans-serif;font-size:12.8px;letter-spacing:0px;line-height:0%;stroke-width:1.0667;word-spacing:0px" xml:space="preserve"><tspan x="432.70914" y="391.09818" style="fill:#ff0000;font-family:'Arial Nova', 'Arial Unicode MS', 'Yu Gothic UI', sans-serif;font-size:10.667px;line-height:1.25;stroke-width:1.0667;stroke:#ff0000">X</tspan></text>
   <g transform="matrix(.66342 0 0 .66342 183.2 212.02)">
    <path d="m345.05 227.33-152 107.2" style="fill:#f00;stroke-linecap:round;stroke-linejoin:round;stroke-width:2.8485;stroke:#f00"/>
    <g transform="matrix(2.5937 0 0 2.5937 -28.208 -182.86)" style="stroke-dasharray:1.54438065, 1.54438065;stroke-linecap:round;stroke-linejoin:round;stroke-width:.51479;stroke:#f00">
     <path d="m203.39 116.37 0.17496 39.728" style="fill:#00f;stroke-dasharray:1.64733936, 1.64733936;stroke-linecap:round;stroke-linejoin:round;stroke-width:.54911;stroke:#f00"/>
     <path d="m203.68 156.38-29.443 17.394" style="fill:#0f0;stroke-dasharray:1.64733936, 1.64733936;stroke-linecap:round;stroke-linejoin:round;stroke-width:.54911;stroke:#f00"/>
     <path d="m173.75 173.85-28.882-15.871" style="fill:#f00;stroke-dasharray:1.64733936, 1.64733936;stroke-linecap:round;stroke-linejoin:round;stroke-width:.54911;stroke:#f00"/>
    </g>
    <path d="m345.54 226.22 152-107.2" style="fill:#f00;stroke-linecap:round;stroke-linejoin:round;stroke-width:2.8485;stroke:#f00"/>
   </g>
   <ellipse transform="rotate(-2)" cx="400.68" cy="375.22" rx="4.0406" ry="3.7795" style="fill:#f00;stroke-linecap:round;stroke-linejoin:round;stroke-width:3.7837;stroke:#f00"/>
   <path d="m512.91 291.16-7.8896 10.647-5.0288-7.1751z" style="fill:#f00;stroke-linecap:round;stroke-linejoin:round;stroke-width:1.0658;stroke:#f00"/>
   <text x="492.93881" y="385.32306" style="fill:#000000;font-family:'Arial Nova', 'Arial Unicode MS', 'Yu Gothic UI', sans-serif;font-size:12.8px;letter-spacing:0px;line-height:0%;stroke-width:1.0667;word-spacing:0px" xml:space="preserve"><tspan x="492.93881" y="385.32306" style="fill:#ff0000;font-family:'Arial Nova', 'Arial Unicode MS', 'Yu Gothic UI', sans-serif;font-size:10.667px;line-height:1.25;stroke-width:1.0667;stroke:#ff0000">Y</tspan></text>
   <text x="520.39386" y="336.936" style="fill:#000000;font-family:'Arial Nova', 'Arial Unicode MS', 'Yu Gothic UI', sans-serif;font-size:12.8px;letter-spacing:0px;line-height:0%;stroke-width:1.0667;word-spacing:0px" xml:space="preserve"><tspan x="520.39386" y="336.936" style="fill:#ff0000;font-family:'Arial Nova', 'Arial Unicode MS', 'Yu Gothic UI', sans-serif;font-size:10.667px;line-height:1.25;stroke-width:1.0667;stroke:#ff0000">Z</tspan></text>
   <g transform="translate(292.41 163.24)">
    <ellipse cx="175.74" cy="198.23" rx="13.199" ry="13.469" style="fill:#1f638a;stroke-linecap:round;stroke-linejoin:round;stroke-width:1.0658"/>
    <text x="165.63126" y="205.89726" style="fill:#000000;font-family:'Arial Nova', 'Arial Unicode MS', 'Yu Gothic UI', sans-serif;font-size:12.8px;letter-spacing:0px;line-height:0%;stroke-width:1.0667;word-spacing:0px" xml:space="preserve"><tspan x="165.63126" y="205.89726" style="fill:#ffffff;font-family:'Arial Nova', 'Arial Unicode MS', 'Yu Gothic UI', sans-serif;font-size:21.333px;font-weight:bold;line-height:1.25;stroke-width:1.0667">IV</tspan></text>
   </g>
   <path d="m309.03 435.07 7.8896-10.647 5.0288 7.1751z" style="fill:#f00;stroke-linecap:round;stroke-linejoin:round;stroke-width:1.0658;stroke:#f00"/>
   <g transform="translate(95.614 117.67)">
    <ellipse cx="250.95" cy="266.21" rx="13.199" ry="13.469" style="fill:#1f638a;stroke-linecap:round;stroke-linejoin:round;stroke-width:1.0658"/>
    <text x="243.85342" y="274.32074" style="fill:#000000;font-family:'Arial Nova', 'Arial Unicode MS', 'Yu Gothic UI', sans-serif;font-size:12.8px;letter-spacing:0px;line-height:0%;stroke-width:1.0667;word-spacing:0px" xml:space="preserve"><tspan x="243.85342" y="274.32074" style="fill:#ffffff;font-family:'Arial Nova', 'Arial Unicode MS', 'Yu Gothic UI', sans-serif;font-size:21.333px;font-weight:bold;line-height:1.25;stroke-width:1.0667">V</tspan></text>
   </g>
  </g>
 </g>
</svg>
