<?xml version="1.0" encoding="UTF-8"?>
<svg width="13cm" height="3cm" version="1.1" viewBox="0 0 130 30" xmlns="http://www.w3.org/2000/svg">
  <g transform="translate(0 -267)">
    <text x="5.2885795" y="275.69574" style="fill:#000000;font-family:sans-serif;font-feature-settings:normal;font-size:5.6444px;font-variant-caps:normal;font-variant-ligatures:normal;font-variant-numeric:normal;letter-spacing:0px;line-height:125%;stroke-width:.26458px;word-spacing:0px" xml:space="preserve">
      <tspan x="5.2885795" y="275.69574" style="stroke-width:.26458px">Command name</tspan>
    </text>
    <path d="m5.8328 291.71h120.5" style="fill-rule:evenodd;fill:#999;stroke-width:.179;stroke:#999"/>
    <path d="m7.1872 279.59v4.2101l2.2076 2.4536c0.5494 0.60334 1.315 1.4343 2.2577 2.452h4.6498v-5.6705c-0.91498-0.17842-1.7533-0.648-2.513-1.4154-0.65284-0.65944-1.0593-1.3363-1.2252-2.0298h-1.5291l2.1162 1.9306c-0.1669 0.0814-0.35068 0.2155-0.5519 0.40308-0.37437 0.34898-0.58425 0.72805-0.62942 1.1369-0.05311 0.4599 0.11943 0.89107 0.51728 1.293 0.31019 0.31332 0.66916 0.47367 1.0775 0.48162 0.40839 4e-3 0.7821-0.15296 1.1214-0.46922 0.23164-0.21593 0.39696-0.47649 0.49506-0.78187 0.06876 0.11491 0.19854 0.32319 0.38964 0.62529 0.13133 0.19628 0.27039 0.39844 0.41754 0.60616-0.16541 0.34192-0.45249 0.70403-0.86196 1.0857-0.74172 0.69142-1.6153 1.0403-2.6205 1.0475-1.0924 5e-3 -2.0567-0.41422-2.8928-1.2588-0.77323-0.78105-1.1528-1.6408-1.1379-2.5802 0.016129-1.0017 0.48654-1.9336 1.4108-2.7952 0.35728-0.33305 0.64796-0.57164 0.8785-0.72451zm8.3819 0c-0.0035 0.29649 0.1801 0.63465 0.55811 1.0165 0.05632 0.0569 0.11493 0.10922 0.17518 0.15916v-1.1756zm-8.3819 8.6553v0.46044h0.49764z" style="fill:#808080;paint-order:markers fill stroke;stroke-linecap:round;stroke-linejoin:round;stroke-width:.265;stroke:#808080"/>
    <g transform="translate(-.28922 .57844)">
      <rect x="107.48" y="280.99" width="19.026" height="5.3757" rx="1.1884" ry="1" style="fill:#808080;paint-order:markers fill stroke;stroke-linecap:round;stroke-linejoin:round;stroke-width:.265;stroke:#808080"/>
      <text x="116.91715" y="284.81876" style="fill:#000000;font-family:sans-serif;font-feature-settings:normal;font-size:3.175px;font-variant-caps:normal;font-variant-ligatures:normal;font-variant-numeric:normal;letter-spacing:0px;line-height:125%;stroke-width:.26458px;text-align:center;text-anchor:middle;word-spacing:0px" xml:space="preserve">
        <tspan x="116.91715" y="284.81876" style="fill:#ffffff;stroke-width:.26458px;text-align:center;text-anchor:middle">Licence</tspan>
      </text>
    </g>
    <text x="23.269627" y="281.90387" style="fill:#000000;font-family:sans-serif;font-feature-settings:normal;font-size:3.175px;font-variant-caps:normal;font-variant-ligatures:normal;font-variant-numeric:normal;letter-spacing:0px;line-height:125%;stroke-width:.26458px;word-spacing:0px" xml:space="preserve">
      <tspan x="23.269627" y="281.90387" style="stroke-width:.26458px">Short description of the command</tspan>
    </text>
    <text x="56.323761" y="288.95383" style="fill:#000000;font-family:sans-serif;font-feature-settings:normal;font-size:3.175px;font-variant-caps:normal;font-variant-ligatures:normal;font-variant-numeric:normal;letter-spacing:0px;line-height:125%;stroke-width:.26458px;text-align:center;text-anchor:middle;word-spacing:0px" xml:space="preserve">
      <tspan x="56.323761" y="288.95383" style="stroke-width:.26458px;text-align:center;text-anchor:middle">Submenu</tspan>
    </text>
    <text x="87.507553" y="288.95383" style="fill:#000000;font-family:sans-serif;font-feature-settings:normal;font-size:3.175px;font-variant-caps:normal;font-variant-ligatures:normal;font-variant-numeric:normal;letter-spacing:0px;line-height:125%;stroke-width:.26458px;text-align:center;text-anchor:middle;word-spacing:0px" xml:space="preserve">
      <tspan x="87.507553" y="288.95383" style="stroke-width:.26458px;text-align:center;text-anchor:middle">Command</tspan>
    </text>
    <path d="m42.775 286.71v0.92863h-4.9263v0.26355h4.9263v0.9281l1.834-1.0599z" style="color-rendering:auto;color:#000000;dominant-baseline:auto;fill-rule:evenodd;font-feature-settings:normal;font-variant-alternates:normal;font-variant-caps:normal;font-variant-ligatures:normal;font-variant-numeric:normal;font-variant-position:normal;image-rendering:auto;isolation:auto;mix-blend-mode:normal;shape-padding:0;shape-rendering:auto;solid-color:#000000;text-decoration-color:#000000;text-decoration-line:none;text-decoration-style:solid;text-indent:0;text-orientation:mixed;text-transform:none;white-space:normal"/>
    <path d="m73.381 286.71v0.92863h-4.9263v0.26355h4.9263v0.9281l1.834-1.0599z" style="color-rendering:auto;color:#000000;dominant-baseline:auto;fill-rule:evenodd;font-feature-settings:normal;font-variant-alternates:normal;font-variant-caps:normal;font-variant-ligatures:normal;font-variant-numeric:normal;font-variant-position:normal;image-rendering:auto;isolation:auto;mix-blend-mode:normal;shape-padding:0;shape-rendering:auto;solid-color:#000000;text-decoration-color:#000000;text-decoration-line:none;text-decoration-style:solid;text-indent:0;text-orientation:mixed;text-transform:none;white-space:normal"/>
    <g transform="matrix(.26458 0 0 .26458 22.073 310.48)">
      <ellipse cx="-13.718" cy="-98.798" rx="13.199" ry="13.469" style="fill:#1f638a;stroke-linecap:round;stroke-linejoin:round;stroke-width:1.0658"/>
      <text x="-19.559933" y="-91.125885" style="fill:#000000;font-family:'Arial Nova', 'Arial Unicode MS', 'Yu Gothic UI', sans-serif;font-size:12.8px;letter-spacing:0px;line-height:0%;stroke-width:1.0667;word-spacing:0px" xml:space="preserve">
        <tspan x="-19.559933" y="-91.125885" style="fill:#ffffff;font-family:'Arial Nova', 'Arial Unicode MS', 'Yu Gothic UI', sans-serif;font-size:21.333px;line-height:1.25;stroke-width:1.0667;stroke:#ffffff">2</tspan>
      </text>
    </g>
    <g transform="matrix(.26458 0 0 .26458 84.997 306.68)">
      <ellipse cx="17.483" cy="-98.798" rx="13.199" ry="13.469" style="fill:#1f638a;stroke-linecap:round;stroke-linejoin:round;stroke-width:1.0658"/>
      <text x="11.641406" y="-91.256096" style="fill:#000000;font-family:'Arial Nova', 'Arial Unicode MS', 'Yu Gothic UI', sans-serif;font-size:12.8px;letter-spacing:0px;line-height:0%;stroke-width:1.0667;word-spacing:0px" xml:space="preserve">
        <tspan x="11.641406" y="-91.256096" style="fill:#ffffff;font-family:'Arial Nova', 'Arial Unicode MS', 'Yu Gothic UI', sans-serif;font-size:21.333px;line-height:1.25;stroke-width:1.0667;stroke:#ffffff">3</tspan>
      </text>
    </g>
    <g transform="matrix(.26458 0 0 .26458 -60.805 252.68)">
      <g transform="translate(354.56 247.34)">
        <ellipse cx="48.684" cy="-98.798" rx="13.199" ry="13.469" style="fill:#1f638a;stroke-linecap:round;stroke-linejoin:round;stroke-width:1.0658"/>
        <text x="42.842751" y="-91.162346" style="fill:#000000;font-family:'Arial Nova', 'Arial Unicode MS', 'Yu Gothic UI', sans-serif;font-size:12.8px;letter-spacing:0px;line-height:0%;stroke-width:1.0667;word-spacing:0px" xml:space="preserve">
          <tspan x="42.842751" y="-91.162346" style="fill:#ffffff;font-family:'Arial Nova', 'Arial Unicode MS', 'Yu Gothic UI', sans-serif;font-size:21.333px;line-height:1.25;stroke-width:1.0667;stroke:#ffffff">4</tspan>
        </text>
      </g>
    </g>
    <g transform="matrix(.26458 0 0 .26458 47.028 230.16)">
      <g transform="translate(197.02 281.84)">
        <ellipse cx="79.886" cy="-98.798" rx="13.199" ry="13.469" style="fill:#1f638a;stroke-linecap:round;stroke-linejoin:round;stroke-width:1.0658"/>
        <text x="74.04409" y="-91.396721" style="fill:#000000;font-family:'Arial Nova', 'Arial Unicode MS', 'Yu Gothic UI', sans-serif;font-size:12.8px;letter-spacing:0px;line-height:0%;stroke-width:1.0667;word-spacing:0px" xml:space="preserve">
          <tspan x="74.04409" y="-91.396721" style="fill:#ffffff;font-family:'Arial Nova', 'Arial Unicode MS', 'Yu Gothic UI', sans-serif;font-size:21.333px;line-height:1.25;stroke-width:1.0667;stroke:#ffffff">5</tspan>
        </text>
      </g>
    </g>
    <g transform="matrix(.26458 0 0 .26458 74.261 299.85)">
      <ellipse cx="-44.92" cy="-98.798" rx="13.199" ry="13.469" style="fill:#1f638a;stroke-linecap:round;stroke-linejoin:round;stroke-width:1.0658"/>
      <text x="-50.761276" y="-91.125885" style="fill:#000000;font-family:'Arial Nova', 'Arial Unicode MS', 'Yu Gothic UI', sans-serif;font-size:12.8px;letter-spacing:0px;line-height:0%;stroke-width:1.0667;word-spacing:0px" xml:space="preserve">
        <tspan x="-50.761276" y="-91.125885" style="fill:#ffffff;font-family:'Arial Nova', 'Arial Unicode MS', 'Yu Gothic UI', sans-serif;font-size:21.333px;line-height:1.25;stroke-width:1.0667;stroke:#ffffff">1</tspan>
      </text>
    </g>
    <text x="23.12886" y="288.81967" style="fill:#000000;font-family:sans-serif;font-feature-settings:normal;font-size:3.175px;font-variant-caps:normal;font-variant-ligatures:normal;font-variant-numeric:normal;letter-spacing:0px;line-height:125%;stroke-width:.26458px;word-spacing:0px" xml:space="preserve">
      <tspan x="23.12886" y="288.81967" style="stroke-width:.26458px">Menu</tspan>
    </text>
  </g>
</svg>
