<?xml version="1.0" encoding="UTF-8"?>
<svg width="18cm" height="6.5cm" version="1.1" xmlns="http://www.w3.org/2000/svg" xmlns:xlink="http://www.w3.org/1999/xlink">
 <defs>
  <linearGradient id="linearGradient10628">
   <stop style="stop-color:#fff" offset="0"/>
   <stop style="stop-color:#4fa68a" offset="1"/>
  </linearGradient>
  <linearGradient id="linearGradient8614" x1="362.98" x2="619.67" y1="939.88" y2="939.88" gradientUnits="userSpaceOnUse" xlink:href="#linearGradient10628"/>
  <linearGradient id="linearGradient8646" x1="18.069" x2="274.7" y1="920.15" y2="920.15" gradientTransform="matrix(1.0667 0 0 1.0667 0 10)" gradientUnits="userSpaceOnUse">
   <stop style="stop-color:#ff8500" offset="0"/>
   <stop style="stop-color:#fff" offset="1"/>
  </linearGradient>
  <linearGradient id="linearGradient8658" x1="18.011" x2="274.7" y1="964.61" y2="964.61" gradientUnits="userSpaceOnUse" xlink:href="#linearGradient10628"/>
  <linearGradient id="linearGradient351" x1="362.98" x2="619.67" y1="939.88" y2="939.88" gradientTransform="scale(1.0667)" gradientUnits="userSpaceOnUse" xlink:href="#linearGradient10628"/>
  <linearGradient id="linearGradient357" x1="18.011" x2="274.7" y1="964.61" y2="964.61" gradientTransform="scale(1.0667)" gradientUnits="userSpaceOnUse" xlink:href="#linearGradient10628"/>
 </defs>
 <g transform="translate(0 -876.85)">
  <g transform="translate(0,10)" style="fill:url(#linearGradient8614)">
   <path d="m387.71 1007.7 90.937 52.69 181.85-105.11-91.117-52.759z" style="color:#000000;fill-rule:evenodd;fill:url(#linearGradient351);stroke-linecap:round;stroke-linejoin:round;stroke-miterlimit:10;stroke-width:.94488;stroke:#67977f"/>
   <path d="m478.65 1102.5 181.85-105.11v-42.083l-181.85 105.11z" style="color:#000000;fill-rule:evenodd;fill:url(#linearGradient351);stroke-linecap:round;stroke-linejoin:round;stroke-miterlimit:10;stroke-width:.94488;stroke:#67977f"/>
   <path d="m387.65 1049.3 90.937 52.69 9e-3 -41.656-90.937-52.69z" style="color:#000000;fill-rule:evenodd;fill:url(#linearGradient351);stroke-linecap:round;stroke-linejoin:round;stroke-miterlimit:10;stroke-width:.94488;stroke:#67977f"/>
  </g>
  <path d="m424.25 975.72 54.483 31.401 145.73-84.005-54.751-31.67z" style="color:#000000;fill:#739ba5;stroke-linecap:round;stroke-linejoin:round;stroke-miterlimit:10;stroke-width:1.4324;stroke:#16434a"/>
  <path d="m624.47 965.2v-42.137l-145.87 83.915v42.036z" style="color:#000000;fill:#739ba5;stroke-linecap:round;stroke-linejoin:round;stroke-miterlimit:10;stroke-width:1.4324;stroke:#16434a"/>
  <path d="m424.12 1017.7v-42.003l54.479 31.311v42.036z" style="color:#000000;fill:#739ba5;stroke-linecap:round;stroke-linejoin:round;stroke-miterlimit:10;stroke-width:1.4324;stroke:#16434a"/>
  <path d="m19.746 1017.7 90.937 52.69 181.85-105.11-91.117-52.759z" style="color:#000000;fill-rule:evenodd;fill:url(#linearGradient8646);stroke-linecap:round;stroke-linejoin:round;stroke-miterlimit:10;stroke-width:.94488;stroke:#67977f"/>
  <g transform="translate(0,10)" style="fill:url(#linearGradient8658)">
   <path d="m110.68 1102.5 181.85-105.11v-42.083l-181.85 105.11z" style="color:#000000;fill-rule:evenodd;fill:url(#linearGradient357);stroke-linecap:round;stroke-linejoin:round;stroke-miterlimit:10;stroke-width:.94488;stroke:#67977f"/>
   <path d="m19.684 1049.3 90.937 52.69 9e-3 -41.656-90.937-52.69z" style="color:#000000;fill-rule:evenodd;fill:url(#linearGradient357);stroke-linecap:round;stroke-linejoin:round;stroke-miterlimit:10;stroke-width:.94488;stroke:#67977f"/>
  </g>
  <path d="m279.59 966.31 4.1905 12.571h-8.7619z" style="stroke-linecap:round;stroke-linejoin:round;stroke-width:1.0658;stroke:#000"/>
  <path d="m279.59 907.93v73.222" style="stroke-linecap:round;stroke-linejoin:round;stroke-width:.94488;stroke:#000"/>
  <path d="m279.78 922.28 4.1905-12.572h-8.7619z" style="stroke-linecap:round;stroke-linejoin:round;stroke-width:1.0658;stroke:#000"/>
  <path d="m284.23 923.02h-27.997" style="stroke-linecap:round;stroke-linejoin:round;stroke-width:.75591;stroke:#000"/>
  <path d="m285.18 965.94h-29.833" style="stroke-linecap:round;stroke-linejoin:round;stroke-width:.75591;stroke:#000"/>
  <path d="m56.282 1017.8 54.483 31.401 145.73-84.005-54.751-31.67z" style="color:#000000;fill:none;stroke-linecap:round;stroke-linejoin:round;stroke-miterlimit:10;stroke-width:1.8898;stroke:#f00"/>
  <path d="m56.282 975.72 54.483 31.401 145.73-84.005-54.751-31.67z" style="color:#000000;fill-opacity:.4876;fill:#ffe6e6;stroke-dasharray:1.35307081, 1.35307081;stroke-linecap:round;stroke-linejoin:round;stroke-miterlimit:10;stroke-width:.67654;stroke:#f00"/>
  <path d="m201.61 891.52v42.137" style="color:#000000;fill:none;stroke-dasharray:1.35307081, 1.35307081;stroke-linecap:round;stroke-linejoin:round;stroke-miterlimit:10;stroke-width:.67654;stroke:#f00"/>
  <path d="m154.97 950.39v41.216" style="color:#000000;fill-rule:evenodd;fill:#008000;stroke-dasharray:1.51181099, 0.7559055;stroke-linecap:round;stroke-linejoin:round;stroke-miterlimit:10;stroke-width:.37795;stroke:#008000"/>
  <rect x="149.9" y="943.66" width="10.319" height="10.319" style="fill:#008000;stroke-linecap:round;stroke-linejoin:round;stroke-width:.75591;stroke:#008000"/>
  <g transform="translate(73.111 632.22)">
   <ellipse cx="230.42" cy="311.21" rx="13.199" ry="13.469" style="fill:#1f638a;stroke-linecap:round;stroke-linejoin:round;stroke-width:1.0658"/>
   <text x="224.84752" y="318.87271" style="fill:#000000;font-family:'Arial Nova', 'Arial Unicode MS', 'Yu Gothic UI', sans-serif;font-size:12.8px;letter-spacing:0px;line-height:0%;stroke-width:1.0667;word-spacing:0px" xml:space="preserve"><tspan x="224.84752" y="318.87271" style="fill:#ffffff;font-family:'Arial Nova', 'Arial Unicode MS', 'Yu Gothic UI', sans-serif;font-size:21.333px;font-weight:bold;stroke-width:1.0667">3</tspan></text>
  </g>
  <path d="m110.85 1007.3v42.036l145.87-83.814v-42.137" style="color:#000000;fill-opacity:.4876;fill:#fff3f3;stroke-dasharray:1.35307087, 1.35307087;stroke-linecap:round;stroke-linejoin:round;stroke-miterlimit:10;stroke-width:.67654;stroke:#f00"/>
  <path d="m110.85 1007.3v42.036l-54.479-31.344v-42.003" style="color:#000000;fill-opacity:.4876;fill:#fff3f3;stroke-dasharray:1.35307087, 1.35307087;stroke-linecap:round;stroke-linejoin:round;stroke-miterlimit:10;stroke-width:.67654;stroke:#f00"/>
  <path d="m56.282 1017.8 54.483 31.401 145.73-84.005" style="color:#000000;fill:none;stroke-linecap:round;stroke-linejoin:round;stroke-miterlimit:10;stroke-width:1.8898;stroke:#f00"/>
  <g transform="matrix(.29168 -.0036683 .0036311 .28872 292.54 947.28)" style="fill:#1f638a;stroke-linecap:round;stroke-linejoin:round;stroke-width:1.2209;stroke:#1f638a">
   <path d="m207.49 126.25 34.17 21.614-34.17 21.614z" style="fill:#1f638a;stroke-linecap:round;stroke-linejoin:round;stroke-width:1.3023;stroke:#1f638a"/>
   <rect x="172.19" y="137.99" width="39.213" height="19.761" style="fill:#1f638a;stroke-linecap:round;stroke-linejoin:round;stroke-width:1.3023;stroke:#1f638a"/>
  </g>
 </g>
</svg>
