<?xml version="1.0" encoding="UTF-8"?>
<svg width="18cm" height="8cm" version="1.1" viewBox="0 0 180 80" xmlns="http://www.w3.org/2000/svg" xmlns:xlink="http://www.w3.org/1999/xlink">
 <defs>
  <linearGradient id="4690_-_keine_Wiederholung">
   <stop stop-color="#ff3000" offset="0"/>
   <stop stop-color="#ff6800" offset=".13013"/>
   <stop stop-color="#ff9100" offset=".21055"/>
   <stop stop-color="#ffc400" offset=".26422"/>
   <stop stop-color="#fff200" offset=".32674"/>
   <stop stop-color="#b9ff00" offset=".38549"/>
   <stop stop-color="#82ff00" offset=".43536"/>
   <stop stop-color="#5fff00" offset=".49343"/>
   <stop stop-color="#00ff93" offset=".54309"/>
   <stop stop-color="#00f0ff" offset=".59099"/>
   <stop stop-color="#00abff" offset=".64815"/>
   <stop stop-color="#0073ff" offset=".70291"/>
   <stop stop-color="#0058ff" offset=".76009"/>
   <stop stop-color="#1234cf" offset=".81418"/>
   <stop stop-color="#1700ff" offset=".86923"/>
   <stop stop-color="#2400ff" offset=".9113"/>
   <stop stop-color="#5601ff" offset="1"/>
  </linearGradient>
  <linearGradient id="linearGradient11684" x1="26.074" x2="29.731" y1="309.64" y2="303.36" gradientTransform="translate(60.937,-58.652)" gradientUnits="userSpaceOnUse" spreadMethod="reflect" xlink:href="#4690_-_keine_Wiederholung"/>
  <linearGradient id="linearGradient11095-2" x1="143.73" x2="176.42" y1="198.25" y2="198.25" gradientTransform="matrix(1 0 0 .51079 -6.6228 -68.61)" gradientUnits="userSpaceOnUse" xlink:href="#4690_-_keine_Wiederholung"/>
  <linearGradient id="linearGradient12001" x1="39.017" x2="43.277" y1="316.91" y2="309.87" gradientTransform="translate(0 -297.43)" gradientUnits="userSpaceOnUse" spreadMethod="reflect" xlink:href="#4690_-_keine_Wiederholung"/>
  <linearGradient id="linearGradient11095-2-4" x1="143.73" x2="176.42" y1="198.25" y2="198.25" gradientTransform="matrix(1 0 0 .51079 -6.459 172.91)" gradientUnits="userSpaceOnUse" xlink:href="#4690_-_keine_Wiederholung"/>
 </defs>
 <path d="m79.459 14.11c2.2603-0.4872 4.7325-0.392 6.781-1.4616 2.742-1.4317 6.781-6.3236 6.781-6.3236l35.482 20.623s-3.9702 4.9462-6.6899 6.42c-2.0118 1.0902-4.4599 1.0387-6.6899 1.558" style="fill:#1a1a1a;opacity:.97;paint-order:normal"/>
 <g transform="translate(-56.358 -168.95)" style="fill:none;stroke:#7d7d7d">
  <path d="m171.83 203.95-13.38 7.978-35.846-21.009 13.562-7.7852" style="opacity:.97;paint-order:normal;stroke-linecap:round;stroke-linejoin:round;stroke-width:.379"/>
  <path d="m153.91 193.64-13.38 7.978" style="stroke-opacity:.97255;stroke-width:.179"/>
 </g>
 <g transform="translate(-56.358 -168.95)" style="fill:none;stroke:#7d7d7d">
  <path d="m136.17 183.14 13.562-7.7852 35.482 20.623-13.38 7.978" style="opacity:.97;paint-order:normal;stroke-linecap:round;stroke-linejoin:round;stroke-width:.379"/>
  <path d="m167.29 185.66-13.38 7.978" style="stroke-opacity:.97255;stroke-width:.179"/>
 </g>
 <g transform="translate(0,-217)">
  <path d="m115.52 252.06c-2.23 0.51935-4.678 0.4678-6.6899 1.558-2.7197 1.4738-6.6899 6.42-6.6899 6.42l-35.846-21.009s4.039-4.8918 6.781-6.3236c2.0485-1.0696 4.5207-0.97439 6.781-1.4616" style="fill:url(#linearGradient11684);opacity:.97;paint-order:normal"/>
  <path d="m98.579 255.99 1.6471-1.3618 1.8262 3.7385 1.6651-0.81338-1.8262-3.7385 1.9655-0.40296-5.1705-3.8935z" style="fill:#fff;stroke-linecap:round;stroke-linejoin:round;stroke-width:.2;stroke:#000"/>
  <ellipse cx="98.612" cy="249.26" rx=".59336" ry=".6003" style="opacity:.97;paint-order:normal"/>
 </g>
 <path d="m98.724 42.57v3.0617h70.857v-2.6624" style="fill:none;stroke-width:.26458px;stroke:#000"/>
 <rect x="137.2" y="25.95" width="32.506" height="13.418" style="fill:url(#linearGradient11095-2);opacity:.97;paint-order:normal"/>
 <text x="136.28952" y="42.078156" font-size="3.3867px" letter-spacing="0px" word-spacing="0px" style="fill-opacity:.97255;fill:#ff560d;font-family:'Arial Nova', 'Arial Unicode MS', 'Yu Gothic UI', sans-serif;font-size:3.3867px;letter-spacing:0px;line-height:0%;stroke-opacity:.97255;stroke-width:.28222;stroke:#000000;word-spacing:0px" xml:space="preserve"><tspan x="136.28952" y="42.078156" font-size="2.8222px" style="fill-opacity:.97255;fill:#ff560d;font-family:'Arial Nova', 'Arial Unicode MS', 'Yu Gothic UI', sans-serif;font-size:2.8222px;line-height:1.25;stroke-opacity:.97255;stroke-width:.28222;stroke:#000000">0</tspan></text>
 <text x="167.52815" y="42.349243" font-size="3.3867px" letter-spacing="0px" word-spacing="0px" style="fill-opacity:.97255;fill:#ff560d;font-family:'Arial Nova', 'Arial Unicode MS', 'Yu Gothic UI', sans-serif;font-size:3.3867px;letter-spacing:0px;line-height:0%;stroke-opacity:.97255;stroke-width:.28222;stroke:#000000;word-spacing:0px" xml:space="preserve"><tspan x="167.52815" y="42.349243" font-size="2.8222px" style="fill-opacity:.97255;fill:#ff560d;font-family:'Arial Nova', 'Arial Unicode MS', 'Yu Gothic UI', sans-serif;font-size:2.8222px;line-height:1.25;stroke-opacity:.97255;stroke-width:.28222;stroke:#000000">+</tspan></text>
 <path d="m169.59 24.89v15.687" style="fill:none;stroke-width:.26458px;stroke:#f00"/>
 <rect x="131.67" y="25.95" width="5.4334" height="13.418" style="fill-opacity:.97255;fill:#1a1a1a;opacity:.97;paint-order:normal"/>
 <path d="m15.959 14.11c2.2603-0.4872 4.7325-0.392 6.781-1.4616 2.742-1.4317 6.781-6.3236 6.781-6.3236l35.482 20.623s-3.9702 4.9462-6.6898 6.42c-2.0118 1.0902-4.4599 1.0387-6.6898 1.558" style="fill:url(#linearGradient12001);opacity:.97;paint-order:normal"/>
 <g transform="translate(-119.86 -168.95)" style="fill:none;stroke:#7d7d7d">
  <path d="m171.83 203.95-13.38 7.978-35.846-21.009 13.562-7.7852" style="opacity:.97;paint-order:normal;stroke-linecap:round;stroke-linejoin:round;stroke-width:.379"/>
  <path d="m153.91 193.64-13.38 7.978" style="stroke-opacity:.97255;stroke-width:.179"/>
 </g>
 <g transform="translate(-119.86 -168.95)" style="fill:none;stroke:#7d7d7d">
  <path d="m136.17 183.14 13.562-7.7852 35.482 20.623-13.38 7.978" style="opacity:.97;paint-order:normal;stroke-linecap:round;stroke-linejoin:round;stroke-width:.379"/>
  <path d="m167.29 185.66-13.38 7.978" style="stroke-opacity:.97255;stroke-width:.179"/>
 </g>
 <g transform="translate(0,-217)">
  <path d="m52.024 252.06c-2.2299 0.51935-4.678 0.4678-6.6898 1.558-2.7197 1.4738-6.6898 6.42-6.6898 6.42l-35.846-21.009s4.039-4.8918 6.781-6.3236c2.0485-1.0696 4.5207-0.97439 6.781-1.4616" style="fill:#4d4d4d;opacity:.97;paint-order:normal"/>
  <path d="m58.465 255.99 1.6471-1.3618 1.8262 3.7385 1.6651-0.81338-1.8262-3.7385 1.9655-0.40296-5.1705-3.8935z" style="fill:#fff;stroke-linecap:round;stroke-linejoin:round;stroke-width:.2;stroke:#000"/>
  <ellipse cx="58.498" cy="249.26" rx=".59336" ry=".6003" style="opacity:.97;paint-order:normal"/>
  <rect x="137.36" y="267.47" width="32.506" height="13.418" style="fill:url(#linearGradient11095-2-4);opacity:.97;paint-order:normal"/>
 </g>
 <text x="169.06146" y="66.678925" font-size="3.3867px" letter-spacing="0px" word-spacing="0px" style="fill-opacity:.97255;fill:#ff560d;font-family:'Arial Nova', 'Arial Unicode MS', 'Yu Gothic UI', sans-serif;font-size:3.3867px;letter-spacing:0px;line-height:0%;stroke-opacity:.97255;stroke-width:.28222;stroke:#000000;word-spacing:0px" xml:space="preserve"><tspan x="169.06146" y="66.678925" font-size="2.8222px" style="fill-opacity:.97255;fill:#ff560d;font-family:'Arial Nova', 'Arial Unicode MS', 'Yu Gothic UI', sans-serif;font-size:2.8222px;line-height:1.25;stroke-opacity:.97255;stroke-width:.28222;stroke:#000000">0</tspan></text>
 <text x="137.81436" y="66.45871" font-size="3.3867px" letter-spacing="0px" word-spacing="0px" style="fill-opacity:.97255;fill:#ff560d;font-family:'Arial Nova', 'Arial Unicode MS', 'Yu Gothic UI', sans-serif;font-size:3.3867px;letter-spacing:0px;line-height:0%;stroke-opacity:.97255;stroke-width:.28222;stroke:#000000;word-spacing:0px" xml:space="preserve"><tspan x="137.81436" y="66.45871" font-size="2.8222px" style="fill-opacity:.97255;fill:#ff560d;font-family:'Arial Nova', 'Arial Unicode MS', 'Yu Gothic UI', sans-serif;font-size:2.8222px;line-height:1.25;stroke-opacity:.97255;stroke-width:.28222;stroke:#000000">-</tspan></text>
 <path d="m137.41 49.24v15.444" style="fill:none;stroke-width:.26458px;stroke:#f00"/>
 <rect x="169.93" y="50.47" width="5.4334" height="13.418" style="fill-opacity:.97255;fill:#4d4d4d;opacity:.97;paint-order:normal"/>
 <path d="m59.99 43.92v26.564h77.531v-2.9444" style="fill:none;stroke-width:.26458px;stroke:#000"/>
 <g transform="matrix(.26458 0 0 .26458 -.029895 32.96)">
  <ellipse cx="48.684" cy="-98.798" rx="13.199" ry="13.469" style="fill:#1f638a;stroke-linecap:round;stroke-linejoin:round;stroke-width:1.0658"/>
  <text x="42.842751" y="-91.162346" font-size="12.8px" letter-spacing="0px" word-spacing="0px" style="fill:#000000;font-family:'Arial Nova', 'Arial Unicode MS', 'Yu Gothic UI', sans-serif;font-size:12.8px;letter-spacing:0px;line-height:0%;stroke-width:1.0667;word-spacing:0px" xml:space="preserve"><tspan x="42.842751" y="-91.162346" font-size="21.333px" style="fill:#ffffff;font-family:'Arial Nova', 'Arial Unicode MS', 'Yu Gothic UI', sans-serif;font-size:21.333px;line-height:1.25;stroke-width:1.0667;stroke:#ffffff">4</tspan></text>
 </g>
 <g transform="matrix(.26458 0 0 .26458 116.19 45.44)">
  <ellipse cx="79.886" cy="-98.798" rx="13.199" ry="13.469" style="fill:#1f638a;stroke-linecap:round;stroke-linejoin:round;stroke-width:1.0658"/>
  <text x="74.04409" y="-91.396721" font-size="12.8px" letter-spacing="0px" word-spacing="0px" style="fill:#000000;font-family:'Arial Nova', 'Arial Unicode MS', 'Yu Gothic UI', sans-serif;font-size:12.8px;letter-spacing:0px;line-height:0%;stroke-width:1.0667;word-spacing:0px" xml:space="preserve"><tspan x="74.04409" y="-91.396721" font-size="21.333px" style="fill:#ffffff;font-family:'Arial Nova', 'Arial Unicode MS', 'Yu Gothic UI', sans-serif;font-size:21.333px;line-height:1.25;stroke-width:1.0667;stroke:#ffffff">5</tspan></text>
 </g>
 <g transform="matrix(.26458 0 0 .26458 140 98.73)">
  <ellipse cx="111.09" cy="-98.798" rx="13.199" ry="13.469" style="fill:#1f638a;stroke-linecap:round;stroke-linejoin:round;stroke-width:1.0658"/>
  <text x="105.24544" y="-91.256096" font-size="12.8px" letter-spacing="0px" word-spacing="0px" style="fill:#000000;font-family:'Arial Nova', 'Arial Unicode MS', 'Yu Gothic UI', sans-serif;font-size:12.8px;letter-spacing:0px;line-height:0%;stroke-width:1.0667;word-spacing:0px" xml:space="preserve"><tspan x="105.24544" y="-91.256096" font-size="21.333px" style="fill:#ffffff;font-family:'Arial Nova', 'Arial Unicode MS', 'Yu Gothic UI', sans-serif;font-size:21.333px;line-height:1.25;stroke-width:1.0667;stroke:#ffffff">6</tspan></text>
 </g>
</svg>
