<?xml version="1.0" encoding="UTF-8" standalone="no"?>
<svg
   width="637.8"
   height="194.88"
   version="1.1"
   id="svg19847"
   sodipodi:docname="Directmodelling_sideface.svg"
   inkscape:version="1.2.2 (732a01da63, 2022-12-09)"
   xmlns:inkscape="http://www.inkscape.org/namespaces/inkscape"
   xmlns:sodipodi="http://sodipodi.sourceforge.net/DTD/sodipodi-0.dtd"
   xmlns:xlink="http://www.w3.org/1999/xlink"
   xmlns="http://www.w3.org/2000/svg"
   xmlns:svg="http://www.w3.org/2000/svg">
  <sodipodi:namedview
     id="namedview19849"
     pagecolor="#ffffff"
     bordercolor="#000000"
     borderopacity="0.25"
     inkscape:showpageshadow="2"
     inkscape:pageopacity="0.0"
     inkscape:pagecheckerboard="0"
     inkscape:deskcolor="#d1d1d1"
     showgrid="false"
     inkscape:zoom="3.5477293"
     inkscape:cx="219.57707"
     inkscape:cy="18.603449"
     inkscape:window-width="3840"
     inkscape:window-height="2054"
     inkscape:window-x="2869"
     inkscape:window-y="-11"
     inkscape:window-maximized="1"
     inkscape:current-layer="svg19847" />
  <defs
     id="defs19753">
    <linearGradient
       id="linearGradient20531">
      <stop
         style="stop-color:#ffffff;stop-opacity:1;"
         offset="0"
         id="stop20527" />
      <stop
         style="stop-color:#4fa68a"
         offset="1"
         id="stop20529" />
    </linearGradient>
    <linearGradient
       id="linearGradient10628">
      <stop
         style="stop-color:#fff"
         offset="0"
         id="stop19737" />
      <stop
         style="stop-color:#4fa68a"
         offset="1"
         id="stop19739" />
    </linearGradient>
    <linearGradient
       id="linearGradient9400"
       x1="158.32"
       x2="405.36"
       y1="179.08"
       y2="179.08"
       gradientTransform="translate(-56.429 2.8571)"
       gradientUnits="userSpaceOnUse"
       xlink:href="#linearGradient10628" />
    <linearGradient
       id="linearGradient9402"
       x1="158.32"
       x2="511.07"
       y1="179.08"
       y2="177.65"
       gradientTransform="translate(-55.714 3.5714)"
       gradientUnits="userSpaceOnUse"
       xlink:href="#linearGradient10628" />
    <linearGradient
       id="linearGradient9404"
       x1="158.32"
       x2="405.36"
       y1="179.08"
       y2="179.08"
       gradientTransform="translate(-55.714 3.5714)"
       gradientUnits="userSpaceOnUse"
       xlink:href="#linearGradient10628" />
    <linearGradient
       id="linearGradient14040"
       x1="799.35"
       x2="597.4"
       y1="373.92"
       y2="224.72"
       gradientUnits="userSpaceOnUse"
       xlink:href="#linearGradient10628" />
    <linearGradient
       id="linearGradient14065"
       x1="158.32"
       x2="405.36"
       y1="179.08"
       y2="179.08"
       gradientTransform="matrix(.73509 0 0 .73509 322.78 -28.752)"
       gradientUnits="userSpaceOnUse"
       xlink:href="#linearGradient10628" />
    <linearGradient
       id="linearGradient14077"
       x1="236.11"
       x2="444.75"
       y1="181.61"
       y2="180.09"
       gradientTransform="matrix(.73509 0 0 .73509 322.78 -28.752)"
       gradientUnits="userSpaceOnUse"
       xlink:href="#linearGradient10628" />
    <linearGradient
       id="linearGradient14080"
       x1="158.32"
       x2="405.36"
       y1="179.08"
       y2="179.08"
       gradientTransform="matrix(.73509 0 0 .73509 322.43 -29.109)"
       gradientUnits="userSpaceOnUse"
       xlink:href="#linearGradient10628" />
    <linearGradient
       id="linearGradient4900"
       x1="158.32"
       x2="405.36"
       y1="179.08"
       y2="179.08"
       gradientTransform="matrix(.73509 0 0 .73509 -98.79 -29.447)"
       gradientUnits="userSpaceOnUse"
       xlink:href="#linearGradient10628" />
    <linearGradient
       id="linearGradient4904"
       x1="158.32"
       x2="405.36"
       y1="179.08"
       y2="179.08"
       gradientTransform="matrix(.73509 0 0 .73509 -98.799 -29.262)"
       gradientUnits="userSpaceOnUse"
       xlink:href="#linearGradient10628" />
    <linearGradient
       id="linearGradient4913"
       x1="158.32"
       x2="405.36"
       y1="179.08"
       y2="179.08"
       gradientTransform="matrix(0.73509,0,0,0.73509,-102.92725,-30.394969)"
       gradientUnits="userSpaceOnUse"
       xlink:href="#linearGradient20531" />
    <linearGradient
       id="linearGradient4916"
       x1="158.32"
       x2="405.36"
       y1="179.08"
       y2="179.08"
       gradientTransform="matrix(0.73509,0,0,0.73509,-96.721658,125.15175)"
       gradientUnits="userSpaceOnUse"
       xlink:href="#linearGradient10628" />
    <linearGradient
       inkscape:collect="always"
       xlink:href="#linearGradient10628"
       id="linearGradient20138"
       gradientUnits="userSpaceOnUse"
       gradientTransform="matrix(0.73509,0,0,0.73509,-103.33879,-31.307459)"
       x1="158.32"
       y1="179.08"
       x2="405.36"
       y2="179.08" />
    <linearGradient
       id="linearGradient6218-7-4-0-5-2-09">
      <stop
         style="stop-color:#ff8500;stop-opacity:1;"
         offset="0"
         id="stop6220-89-4-6-6-2-30" />
      <stop
         style="stop-color:#ffffff;stop-opacity:1;"
         offset="1"
         id="stop6222-7-90-1-8-6-08" />
    </linearGradient>
    <linearGradient
       inkscape:collect="always"
       xlink:href="#linearGradient6218-7-4-0-5-2-09"
       id="linearGradient21518"
       x1="70.799408"
       y1="109.95596"
       x2="264.55814"
       y2="53.74984"
       gradientUnits="userSpaceOnUse" />
  </defs>
  <g
     transform="matrix(.73509 0 0 .73509 194.54 -30.566)"
     id="g19767">
    <path
       d="m283.52 81.409-60.969 4.125c-38.34 4.7859-58.622 34.06-68.125 48.844l-41.281 66.531c-17.487 24.035-12.445 75.307 21.312 72.344l16.094-1.1875c5.1288 7.126 12.84 11.453 23.344 10.531l56.438-4.1875c21.06-3.127 43.604-13.558 65.875-47 0.79459-1.1932 40.719-65.219 40.719-65.219 20.236-28.937 12.009-75.12-13.969-75.437l-21.281 1.4375c-4.3039-6.5352-10.441-10.687-18.156-10.781zm-79.688 48.219c-4.1641 5.2218-7.4528 10.18-9.9688 14.094l-21.562 34.781c0.19858-2.4856 0.52247-5.0186 1-7.5625 3.9495-21.04 16.501-37.176 30.531-41.312zm29.938 14.094c5.671 10.196 7.8168 24.494 5 39.5-3.0245 16.112-11.086 29.351-21 36.531-5.671-10.194-7.8481-24.463-5.0312-39.469 3.0267-16.124 11.107-29.383 21.031-36.562z"
       style="color:#000000;fill:url(#linearGradient9400);stroke-linecap:round;stroke-linejoin:round;stroke-width:1.8269;stroke:#67977f"
       id="path19755" />
    <path
       d="m323.32 90.339-60.955 4.1257c-38.34 4.7859-58.642 34.058-68.145 48.842l-41.266 66.547c-17.487 24.035-12.453 75.308 21.304 72.344l56.426-4.1916c21.06-3.127 43.617-13.547 65.888-46.989 0.79459-1.1932 40.722-65.213 40.722-65.213 20.236-28.937 12.003-75.148-13.975-75.466zm-5.4845 30.33c0.52066-0.0186 1.0437 0.0177 1.5646 0.11529 5.5567 1.0408 8.8127 8.5014 7.2797 16.668s-7.2734 13.945-12.83 12.904c-5.5567-1.0408-8.8209-8.5014-7.288-16.668 1.3892-7.4007 6.2406-12.84 11.274-13.02zm-67.198 16.841c1.4132 8e-4 2.8286 0.13074 4.241 0.39529 18.079 3.3862 28.696 27.675 23.709 54.244-4.9875 26.569-23.689 45.36-41.768 41.974-18.079-3.3862-28.696-27.666-23.709-54.236 4.5979-24.494 20.852-42.385 37.527-42.377zm-74.724 84.236c0.52066-0.0186 1.0355 0.0177 1.5564 0.11529 5.5567 1.0408 8.8209 8.5096 7.288 16.676-1.533 8.1662-7.2816 13.937-12.838 12.896-5.5567-1.0408-8.8127-8.5014-7.2797-16.668 1.3892-7.4007 6.2406-12.84 11.274-13.02z"
       style="color:#000000;fill:url(#linearGradient9402);stroke-linecap:round;stroke-linejoin:round;stroke-width:1.8269;stroke:#67977f"
       id="path19757" />
    <path
       d="m113.38 201.28 41.26-66.549 39.367 8.3269-41.26 66.549z"
       style="color:#000000;fill:url(#linearGradient9404);stroke-linecap:round;stroke-linejoin:round;stroke-width:1.8269;stroke:#67977f"
       id="path19759" />
    <path
       d="m152.83 209.55c-16.151 22.198-12.717 68.764 14.437 73.245l-38.435-8.6639c-26.815-6.0446-33.421-48.685-15.369-72.908z"
       style="color:#000000;fill:url(#linearGradient9404);stroke-linecap:round;stroke-linejoin:round;stroke-width:1.8269;stroke:#67977f"
       id="path19761" />
    <path
       d="m154.55 134.81c9.5029-14.784 29.806-44.061 68.146-48.847l39.367 8.3269c-38.34 4.7859-58.643 34.063-68.146 48.847z"
       style="color:#000000;fill:url(#linearGradient9404);stroke-linecap:round;stroke-linejoin:round;stroke-width:1.8269;stroke:#67977f"
       id="path19763" />
    <path
       d="m326.2 90.33c-31.621-5.7852-39.065-8.2387-42.362-8.4617l-60.959 4.126 39.367 8.3269 60.959-4.126c2.1726 0.02652 4.221 0.37404 6.1391 1.0056z"
       style="color:#000000;fill:url(#linearGradient9404);stroke-linecap:round;stroke-linejoin:round;stroke-width:1.8269;stroke:#67977f"
       id="path19765" />
  </g>
  <path
     d="m572.32 28.634-44.818 3.0322c-28.183 3.5181-43.093 25.037-50.078 35.905l-30.346 48.907c-12.855 17.668-9.148 55.358 15.667 53.179l11.83-0.87292c3.7701 5.2383 9.4383 8.4193 17.16 7.7414l41.487-3.0782c15.481-2.2986 32.053-9.9664 48.424-34.549 0.5841-0.87707 29.932-47.942 29.932-47.942 14.875-21.272 8.8279-55.22-10.268-55.454l-15.644 1.0567c-3.1638-4.804-7.6753-7.856-13.347-7.9252zm-58.578 35.445c-3.061 3.8385-5.4785 7.483-7.328 10.36l-15.85 25.567c0.14598-1.8271 0.38407-3.6892 0.7351-5.5591 2.9033-15.466 12.13-27.328 22.443-30.368zm22.007 10.36c4.1687 7.495 5.7461 18.006 3.6755 29.036-2.2233 11.844-8.1494 21.576-15.437 26.854-4.1687-7.4934-5.769-17.983-3.6984-29.013 2.2249-11.852 8.165-21.599 15.46-26.877z"
     style="color:#000000;fill:url(#linearGradient14080);stroke-linecap:round;stroke-linejoin:round;stroke-width:1.3429;stroke:#67977f"
     id="path19769" />
  <path
     d="m601.41 35.031-44.808 3.0328c-28.183 3.5181-43.107 25.036-50.093 35.903l-30.334 48.918c-12.855 17.668-9.1542 55.358 15.66 53.18l41.478-3.0812c15.481-2.2986 32.063-9.9582 48.434-34.541 0.5841-0.87707 29.934-47.938 29.934-47.938 14.875-21.272 8.8234-55.241-10.273-55.474zm-4.0316 22.295c0.38273-0.0137 0.76723 0.013 1.1502 0.0848 4.0847 0.76505 6.4781 6.2493 5.3513 12.252-1.1269 6.003-5.3466 10.251-9.4313 9.4858-4.0847-0.76505-6.4842-6.2493-5.3573-12.252 1.0212-5.4402 4.5874-9.4383 8.2872-9.5706zm-49.396 12.379c1.0388 5.9e-4 2.0793 0.0961 3.1176 0.29058 13.29 2.4891 21.094 20.343 17.428 39.874-3.6663 19.531-17.414 33.344-30.703 30.855-13.29-2.4891-21.094-20.337-17.428-39.868 3.3798-18.005 15.328-31.157 27.586-31.151zm-54.929 61.921c0.38273-0.0137 0.76117 0.013 1.1441 0.0848 4.0847 0.76506 6.4842 6.2554 5.3573 12.258s-5.3527 10.245-9.4374 9.4798c-4.0847-0.76506-6.4781-6.2493-5.3513-12.252 1.0212-5.4402 4.5874-9.4383 8.2872-9.5706z"
     style="color:#000000;fill:url(#linearGradient14077);stroke-linecap:round;stroke-linejoin:round;stroke-width:1.3429;stroke:#67977f"
     id="path19771" />
  <path
     d="m447.08 116.59 30.33-48.92 25.783 5.5641-30.33 48.92z"
     style="color:#000000;fill:url(#linearGradient14065);stroke-linecap:round;stroke-linejoin:round;stroke-width:1.3429;stroke:#67977f"
     id="path19773" />
  <path
     d="m472.92 122.1c-11.872 16.317-8.364 50.723 11.597 54.017l-26.082-5.9866c-19.694-4.5205-24.568-35.788-11.298-53.594z"
     style="color:#000000;fill:url(#linearGradient14065);stroke-linecap:round;stroke-linejoin:round;stroke-width:1.3429;stroke:#67977f"
     id="path19775" />
  <path
     d="m477.34 67.719c6.9855-10.867 21.91-32.389 50.094-35.907l25.783 5.5641c-28.183 3.5181-43.108 25.04-50.094 35.907z"
     style="color:#000000;fill:url(#linearGradient14065);stroke-linecap:round;stroke-linejoin:round;stroke-width:1.3429;stroke:#67977f"
     id="path19777" />
  <path
     d="m600.37 34.467c-23.244-4.2526-25.561-5.4993-27.984-5.6632l-44.81 3.033 25.783 5.5641 44.81-3.033c1.597 0.0195 3.1028 0.27495 4.5128 0.73921z"
     style="color:#000000;fill:url(#linearGradient14065);stroke-linecap:round;stroke-linejoin:round;stroke-width:1.3429;stroke:#67977f"
     id="path19779" />
  <g
     transform="matrix(.73509 0 0 .73509 160.58 -36.231)"
     style="fill:url(#linearGradient14040)"
     id="g19795">
    <path
       d="m424.96 215.46 41.26-66.549 4.2005 0.99952-41.26 66.549z"
       style="color:#000000;fill:url(#linearGradient14040);stroke-linecap:round;stroke-linejoin:round;stroke-width:1.8269;stroke:#67977f"
       id="path19781" />
    <path
       d="m438.97 287.57c-27.154-4.4811-30.209-49.911-14.058-72.109l4.2005 0.99951c-15.331 21.072-13.356 63.079 10.111 71.119z"
       style="color:#000000;fill:url(#linearGradient14040);stroke-linecap:round;stroke-linejoin:round;stroke-width:1.8269;stroke:#67977f"
       id="path19783" />
    <path
       d="m456.89 245.12c2.214-10.642-2.8122-17.019-5.5901-16.77 7.1094-0.31647 11.826 5.4994 9.9823 17.303-2.0308 10.002-9.4168 14.71-15.007 11.979 7.6387-2.1071 9.4211-8.2582 10.615-12.511z"
       style="color:#000000;fill:url(#linearGradient14040);stroke-linecap:round;stroke-linejoin:round;stroke-width:1.8269;stroke:#67977f"
       id="path19785" />
    <path
       d="m598.5 144.12c2.214-10.642-2.8122-17.019-5.5901-16.77 7.1094-0.31646 11.826 5.4994 9.9823 17.303-2.0308 10.002-9.4168 14.71-15.007 11.979 7.6387-2.1071 9.4211-8.2582 10.615-12.511z"
       style="color:#000000;fill:url(#linearGradient14040);stroke-linecap:round;stroke-linejoin:round;stroke-width:1.8269;stroke:#67977f"
       id="path19787" />
    <path
       d="m551.65 189.03c-0.74489 17.857-13.742 51.944-40.938 51.22 26.103 5.4776 44.078-25.816 45.236-50.108 1.5163-31.806-12.845-44.236-25.821-46.052 19.063 8.5674 22.318 25.889 21.523 44.94z"
       style="color:#000000;fill:url(#linearGradient14040);stroke-linecap:round;stroke-linejoin:round;stroke-width:1.8269;stroke:#67977f"
       id="path19789" />
    <path
       d="m470.26 149.98c9.5029-14.784 29.806-44.061 68.146-48.847l-4.2005-0.99952c-38.34 4.7859-58.643 34.063-68.146 48.847z"
       style="color:#000000;fill:url(#linearGradient14040);stroke-linecap:round;stroke-linejoin:round;stroke-width:1.8269;stroke:#67977f"
       id="path19791" />
    <path
       d="m601.23 96.974c-1.9181-0.63157-3.9666-0.97909-6.1391-1.0056l-60.959 4.126 4.2005 0.99952 60.959-4.126c0.76421 0.0093 1.5131 0.05837 2.2463 0.14553z"
       style="color:#000000;fill:url(#linearGradient14040);stroke-linecap:round;stroke-linejoin:round;stroke-width:1.8269;stroke:#67977f"
       id="path19793" />
  </g>
  <path
     d="m 175.69275,33.388031 -44.808,3.0328 c -28.183,3.5181 -43.107003,25.036 -50.093003,35.903 l -30.334,48.917999 c -12.855,17.668 -9.1542,55.358 15.66,53.18 l 41.478003,-3.0812 c 15.481,-2.2986 32.063,-9.9582 48.434,-34.541 0.5841,-0.87707 29.934,-47.938002 29.934,-47.938002 14.875,-21.271997 8.8234,-55.240997 -10.273,-55.473997 z m -4.0316,22.295 c 0.38273,-0.0137 0.76723,0.013 1.1502,0.0848 4.0847,0.76506 6.4781,6.2493 5.3513,12.252 -1.1269,6.003 -5.3466,10.250997 -9.4313,9.485797 -4.0847,-0.76505 -6.4842,-6.249297 -5.3573,-12.251997 1.0212,-5.4402 4.5874,-9.4383 8.2872,-9.5706 z m -49.396,12.379 c 1.0388,5.9e-4 2.0793,0.0961 3.1176,0.29058 13.29,2.4891 21.094,20.342997 17.428,39.873999 -3.6663,19.531 -17.414,33.344 -30.703,30.855 -13.290003,-2.4892 -21.094003,-20.337 -17.428003,-39.868002 3.3799,-18.005 15.328003,-31.156997 27.586003,-31.150997 z M 67.336147,129.98303 c 0.38273,-0.0137 0.76116,0.013 1.1441,0.0847 4.0847,0.76506 6.4842,6.2554 5.3573,12.258 -1.1269,6.0026 -5.3527,10.245 -9.4374,9.4798 -4.0847,-0.76505 -6.4781,-6.2493 -5.3513,-12.252 1.0212,-5.4402 4.5874,-9.4383 8.2872,-9.5706 z"
     style="color:#000000;fill:#ffffff;stroke:#67977f;stroke-width:1.3429;stroke-linecap:round;stroke-linejoin:round;fill-opacity:1"
     id="path19799" />
  <path
     d="m25.499 116.08 30.33-48.92 25.783 5.5641-30.33 48.92z"
     style="color:#000000;fill:url(#linearGradient4904);stroke-linecap:round;stroke-linejoin:round;stroke-width:1.3429;stroke:#67977f"
     id="path19801" />
  <path
     d="m51.342 121.59c-11.872 16.317-9.6267 49.712 10.334 53.006l-24.819-4.9765c-19.812-3.9725-24.568-35.788-11.298-53.594z"
     style="color:#000000;fill:url(#linearGradient4904);stroke-linecap:round;stroke-linejoin:round;stroke-width:1.3429;stroke:#67977f"
     id="path19803" />
  <path
     d="m55.761 67.209c6.9855-10.867 21.91-32.389 50.094-35.907l25.783 5.5641c-28.183 3.5181-43.108 25.04-50.094 35.907z"
     style="color:#000000;fill:url(#linearGradient4904);stroke-linecap:round;stroke-linejoin:round;stroke-width:1.3429;stroke:#67977f"
     id="path19805" />
  <path
     d="m100 97.886 51.97 11.696"
     style="fill:none;stroke-dasharray:2.81688685, 2.81688685;stroke-width:.93896;stroke:#008000"
     id="path19807" />
  <path
     style="fill:#ff0000;fill-opacity:0.0980392;stroke:none;stroke-width:1.39843;stroke-linecap:round;stroke-linejoin:round;stroke-dasharray:4.19528, 4.19528;stroke-dashoffset:4.33512;stroke-opacity:0.0980392"
     d="m 204.99901,39.686504 -24.68329,-5.931295 -49.01797,3.454627 C 102.59806,39.689397 87.97593,64.302202 82.093384,72.820089 L 50.852957,121.7176 c -11.317547,19.56572 -9.132423,49.99799 12.831434,52.97981 l 21.603294,4.88158 64.306655,-14.14468 59.59233,-86.592089 z"
     id="path3256"
     sodipodi:nodetypes="cccccccccc" />
  <path
     id="path19755-6"
     style="color:#000000;fill:url(#linearGradient20138);stroke:#67977f;stroke-width:1.34294;stroke-linecap:round;stroke-linejoin:round"
     d="m 171.77963,55.295281 c -3.7,0.13232 -7.26592,4.13013 -8.28711,9.57032 -1.12682,6.00317 1.27275,11.48686 5.35742,12.25195 4.0846,0.76522 8.30475,-3.48314 9.43164,-9.48633 1.12689,-6.00317 -1.26689,-11.48686 -5.35156,-12.25195 -0.38291,-0.0717 -0.76765,-0.0977 -1.15039,-0.084 z M 122.436,67.656571 c -6.52994,-0.43739 -10.57539,3.39137 -12.45324,4.58403 4.16868,7.49497 5.74637,18.00636 3.67578,29.037109 -2.19249,11.67974 -7.99152,21.28527 -15.140633,26.61132 3.212083,5.74645 7.940393,9.7246 13.707033,10.80469 13.28968,2.48901 27.03687,-11.32292 30.70313,-30.85351 3.66589,-19.530579 -4.13805,-37.385849 -17.42774,-39.874999 -1.03824,-0.19447 -2.02551,-0.30806 -3.06433,-0.30864 z M 67.453457,129.59411 c -3.70001,0.13231 -7.26592,4.13209 -8.28711,9.57227 -1.12689,6.00317 1.26689,11.48687 5.35156,12.25195 4.08445,0.76523 8.31061,-3.47758 9.4375,-9.48047 1.12682,-6.00303 -1.27275,-11.49273 -5.35742,-12.25781 -0.38291,-0.0717 -0.7618,-0.0977 -1.14453,-0.084 z"
     sodipodi:nodetypes="cscsscccccccsccsccsccs" />
  <path
     d="m203.59 39.394-44.808 3.0328c-28.183 3.5181-43.107 25.036-50.093 35.903l-30.334 48.918c-12.855 17.668-9.1542 55.358 15.66 53.18l41.478-3.0812c15.481-2.2986 32.063-9.9582 48.434-34.541 0.5841-0.87706 29.934-47.938 29.934-47.938 14.875-21.272 8.8234-55.241-10.273-55.474zm-4.0316 22.295c0.38273-0.0137 0.76723 0.013 1.1502 0.0848 4.0847 0.76506 6.4781 6.2493 5.3513 12.252s-5.3466 10.251-9.4313 9.4858c-4.0847-0.76506-6.4842-6.2493-5.3573-12.252 1.0212-5.4402 4.5874-9.4383 8.2872-9.5706zm-49.396 12.379c1.0388 3.9e-4 2.0793 0.0961 3.1176 0.29057 13.29 2.4892 21.094 20.343 17.428 39.874-3.6663 19.531-17.414 33.344-30.703 30.855s-21.094-20.337-17.428-39.868c3.3799-18.005 15.328-31.157 27.586-31.151zm-54.929 61.921c0.38273-0.0137 0.76116 0.013 1.1441 0.0847 4.0847 0.76506 6.4842 6.2554 5.3573 12.258-1.1269 6.0029-5.3527 10.245-9.4374 9.4798-4.0847-0.76506-6.4781-6.2493-5.3513-12.252 1.0212-5.4402 4.5874-9.4383 8.2872-9.5706z"
     style="color:#000000;fill:url(#linearGradient21518);stroke-dasharray:0.63425195, 1.2685039;stroke-linecap:round;stroke-linejoin:round;stroke-width:0.63425;stroke:#f00;fill-opacity:1"
     id="path19809" />
  <path
     d="m178.8 33.771c-23.244-4.2526-25.561-5.4993-27.984-5.6632l-44.81 3.033 25.783 5.5641 44.81-3.033c1.597 0.0195 3.1029 0.27495 4.5128 0.73921z"
     style="color:#000000;fill:url(#linearGradient4900);stroke-linecap:round;stroke-linejoin:round;stroke-width:1.3429;stroke:#67977f"
     id="path19811" />
  <path
     d="m51.804 122.02 25.845 5.8858"
     style="color:#000000;fill:#faa;stroke-dasharray:0.63425195, 1.2685039;stroke-linecap:round;stroke-linejoin:round;stroke-width:.63425;stroke:#f00"
     id="path19813" />
  <path
     d="m82.388 73.125 25.719 5.6333"
     style="color:#000000;fill:#faa;stroke-dasharray:0.63425195, 1.2685039;stroke-linecap:round;stroke-linejoin:round;stroke-width:.63425;stroke:#f00"
     id="path19815" />
  <rect
     x="144.68"
     y="104.46"
     width="9.674"
     height="9.674"
     style="fill:#008000;stroke-linecap:round;stroke-linejoin:round;stroke-width:.70866;stroke:#008000"
     id="rect19817" />
  <path
     d="m 150.39862,136.74862 5.8363,-4.8253 6.4709,13.247 5.8999,-2.8821 -6.4709,-13.247 6.9643,-1.4278 -18.321,-13.796 z"
     style="fill:#ffffff;stroke:#000000;stroke-width:0.70866;stroke-linecap:round;stroke-linejoin:round"
     id="path19819" />
  <g
     transform="translate(-11.071 -125.09)"
     id="g19825">
    <rect
       x="479.89"
       y="153.76"
       width="11.518"
       height="11.518"
       style="color:#000000;fill:#f3f3f3;stroke-linecap:round;stroke-linejoin:round;stroke-width:1.3429;stroke:#000"
       id="rect19821" />
    <path
       d="m488.51 155.74-3.988 5.5045-1.3438-1.567c-0.19635-0.29452-0.64298-0.38385-0.9375-0.1875s-0.38385 0.64298-0.1875 0.9375l1.9688 2.875c0.2468 0.39357 0.93103 0.37511 1.1562-0.0312l4.3302-6.8276c0.25904-0.39048-0.74237-1.0226-0.99841-0.70365z"
       style="color:#000000;stroke-linecap:round;stroke-linejoin:round;stroke-width:.63425;stroke:#000;text-decoration-line:none;text-indent:0;text-transform:none"
       id="path19823" />
  </g>
  <rect
     x="295.16"
     y="29.014"
     width="11.518"
     height="11.518"
     style="color:#000000;fill:#f3f3f3;stroke-linecap:round;stroke-linejoin:round;stroke-width:1.3429;stroke:#000"
     id="rect19827" />
  <g
     transform="matrix(.2917 0 0 .28875 187.48 64.14)"
     style="fill:#1f638a;stroke-linecap:round;stroke-linejoin:round;stroke-width:1.2209;stroke:#1f638a"
     id="g19833">
    <path
       d="m194.52 118.36 32.034 20.263-32.034 20.263z"
       style="fill:#1f638a;stroke-linecap:round;stroke-linejoin:round;stroke-width:1.2209;stroke:#1f638a"
       id="path19829" />
    <rect
       x="161.43"
       y="129.36"
       width="36.762"
       height="18.526"
       style="fill:#1f638a;stroke-linecap:round;stroke-linejoin:round;stroke-width:1.2209;stroke:#1f638a"
       id="rect19831" />
  </g>
  <g
     transform="translate(-83.907 -4.3255)"
     id="g19841">
    <path
       transform="translate(73.886 -138.35)"
       d="m53.538 184.28a12.374 12.627 0 1 1-24.749 0 12.374 12.627 0 1 1 24.749 0z"
       style="fill:#1f638a;stroke-linecap:round;stroke-linejoin:round;stroke-width:.99921"
       id="path19835" />
    <text
       x="109.57327"
       y="53.10915"
       style="fill:#000000;font-family:Sans;font-size:12px;letter-spacing:0px;line-height:125%;word-spacing:0px"
       xml:space="preserve"
       id="text19839"><tspan
         x="109.57327"
         y="53.10915"
         style="fill:#ffffff;font-family:'Arial Nova', 'Arial Unicode MS', 'Yu Gothic UI', sans-serif;font-size:20px;stroke:#ffffff"
         id="tspan19837">6</tspan></text>
  </g>
  <path
     d="m59.739 173.88 25.845 5.8858"
     style="color:#000000;fill:#faa;stroke-dasharray:0.63425195, 1.2685039;stroke-linecap:round;stroke-linejoin:round;stroke-width:.63425;stroke:#f00"
     id="path19843" />
  <path
     d="m180.2 33.724 25.845 5.8858"
     style="color:#000000;fill:#faa;stroke-dasharray:0.63425195, 1.2685039;stroke-linecap:round;stroke-linejoin:round;stroke-width:.63425;stroke:#f00"
     id="path19845" />
</svg>
