<?xml version="1.0" encoding="UTF-8"?>
<!-- Created with Inkscape (http://www.inkscape.org/) -->
<svg width="18cm" height="7.5cm" version="1.1" viewBox="0 0 180 75" xmlns="http://www.w3.org/2000/svg" xmlns:cc="http://creativecommons.org/ns#" xmlns:dc="http://purl.org/dc/elements/1.1/" xmlns:rdf="http://www.w3.org/1999/02/22-rdf-syntax-ns#" xmlns:xlink="http://www.w3.org/1999/xlink">
 <defs>
  <linearGradient id="linearGradient6218-7-4-0-5-2-09">
   <stop stop-color="#ff8500" offset="0"/>
   <stop stop-color="#fff" offset="1"/>
  </linearGradient>
  <linearGradient id="linearGradient7511" x1="21.525" x2=".051117" y1="267.1" y2="216.54" gradientTransform="matrix(.30588 0 0 .30609 21.672 151.53)" gradientUnits="userSpaceOnUse" xlink:href="#linearGradient6218-7-4-0-5-2-09"/>
  <linearGradient id="linearGradient7515" x1="30.175" x2=".051117" y1="298.59" y2="216.54" gradientTransform="matrix(.30588 0 0 .30609 21.672 151.53)" gradientUnits="userSpaceOnUse" xlink:href="#linearGradient6218-7-4-0-5-2-09"/>
  <linearGradient id="linearGradient7523" x1="23.378" x2=".051117" y1="281.92" y2="216.54" gradientTransform="matrix(.30588 0 0 .30609 21.672 151.53)" gradientUnits="userSpaceOnUse" xlink:href="#linearGradient6218-7-4-0-5-2-09"/>
  <linearGradient id="linearGradient8783" x1="38.264" x2="26.839" y1="254.23" y2="218.95" gradientUnits="userSpaceOnUse" xlink:href="#linearGradient6218-7-4-0-5-2-09"/>
  <linearGradient id="linearGradient8798" x1="48.165" x2="48.875" y1="218.29" y2="247.49" gradientUnits="userSpaceOnUse" xlink:href="#linearGradient6218-7-4-0-5-2-09"/>
 </defs>
 <metadata>
  <rdf:RDF>
   <cc:Work rdf:about="">
    <dc:format>image/svg+xml</dc:format>
    <dc:type rdf:resource="http://purl.org/dc/dcmitype/StillImage"/>
    <dc:title/>
   </cc:Work>
  </rdf:RDF>
 </metadata>
 <g transform="translate(0,-222)">
  <g transform="translate(.53454 26.636)" style="stroke-linecap:round;stroke-linejoin:round;stroke-width:.379;stroke:#7d7d7d">
   <path d="m9.1431 228.95 5.8806 3.4083-0.18787 5.9873-6.0842-3.4853z" style="fill:url(#linearGradient7511)"/>
   <path d="m21.44 238.3-0.20232-5.9583c-2.4584 1.2122-4.4059 0.83036-6.2142 0.0144l-0.18787 5.9873c1.881 0.9308 3.9935 1.1787 6.6044-0.0434z" style="fill:url(#linearGradient7515)"/>
   <path d="m21.44 238.3 13.455-7.7262-0.20438-6.0334-13.452 7.8013z" style="fill:url(#linearGradient7515)"/>
   <path d="m68.597 230.58-0.02043-6.1664c-12.065-6.1578-24.751-4.4163-33.886 0.13294l0.20438 6.0334c10.764-5.8824 24.843-4.9131 33.702 0z" style="fill:url(#linearGradient7523)"/>
   <path d="m68.597 230.58 8.2659-4.8123-0.39156-5.9359-7.8948 4.5818z" style="fill:url(#linearGradient7515)"/>
   <g style="fill:url(#linearGradient8798)">
    <path d="m13.159 241.19c0.84482-0.52855 1.4846-1.4889 1.6764-2.849l-6.0842-3.4853c-0.21581 1.237-0.74319 2.195-1.6909 2.7767z" style="fill:url(#linearGradient8798)"/>
    <path d="m13.159 241.19c2.9121 1.7111 7.5876 1.4099 9.9717 0.0289-1.1769-0.67826-1.5466-1.7455-1.6909-2.9213-2.2206 1.1051-4.4224 1.1365-6.6044 0.0434-0.19512 1.3338-0.78795 2.2476-1.6764 2.849z" style="fill:url(#linearGradient8798)"/>
    <path d="m23.131 241.22 13.399-7.7638c-0.99962-0.66689-1.5619-1.617-1.635-2.8838l-13.455 7.7262c0.1693 1.223 0.49777 2.3454 1.6909 2.9213z" style="fill:url(#linearGradient8798)"/>
    <path d="m36.53 233.46c9.3111-5.3103 23.635-4.7541 31.965 0.92325l0.10166-3.807c-10.879-5.7979-24.101-5.1458-33.702 0 0.0928 1.3351 0.65593 2.2814 1.635 2.8838z" style="fill:url(#linearGradient8798)"/>
    <path d="m68.495 234.38 10.145-5.8426c-1.058-0.60799-1.5656-1.5915-1.7776-2.7767l-8.2659 4.8123z" style="fill:url(#linearGradient8798)"/>
   </g>
   <g style="fill:url(#linearGradient8783)">
    <path d="m9.1431 228.95 41.54-24.011 25.788 14.889-7.8948 4.5818c-9.1431-4.8873-22.364-5.769-33.894 0.15318l-13.46 7.7823c-2.0291 1.0365-4.3682 0.96754-6.1722 0.0204z" style="fill:url(#linearGradient8783)"/>
    <path d="m81.039 229.91-2.399-1.3739-10.145 5.8426c-9.3746-5.986-23.448-5.9605-31.965-0.92325l-13.399 7.7638c-3.3497 1.745-7.4364 1.2999-9.9717-0.0289l-6.0986-3.5576-1.7487 1.0123 30.291 17.557z" style="fill:url(#linearGradient8783)"/>
   </g>
  </g>
  <g style="fill:none;stroke:#000">
   <path d="m4.8868 229.18v55.673h78.162v-55.673z" style="stroke-linecap:round;stroke-linejoin:round;stroke-width:.2"/>
   <path d="m5.0239 229.18c7.5925-12.924 98.11 0.18122 79.512 51.528" style="stroke-dasharray:0.282, 0.564;stroke-width:.282"/>
   <path d="m83.049 284.86 2.9308-3.8234-2.8025-0.8049z" style="stroke-dasharray:0.282, 0.282;stroke-width:.282"/>
  </g>
  <path d="m82.942 291.33 1.6471-1.3618 1.8262 3.7385 1.6651-0.8134-1.8262-3.7385 1.9655-0.40296-5.1705-3.8935z" style="fill:#fff;stroke-linecap:round;stroke-linejoin:round;stroke-width:.2;stroke:#000"/>
  <g transform="matrix(.07718 0 0 .076397 79.936 245.75)" style="fill:#1f638a;stroke-linecap:round;stroke-linejoin:round;stroke-width:1.3023;stroke:#1f638a">
   <path d="m207.49 126.25 34.17 21.614-34.17 21.614z"/>
   <rect x="172.19" y="137.99" width="39.213" height="19.761"/>
  </g>
  <g transform="matrix(.26458 0 0 .26458 104.64 315.47)">
   <ellipse cx="-44.92" cy="-98.798" rx="13.199" ry="13.469" style="fill:#1f638a;stroke-linecap:round;stroke-linejoin:round;stroke-width:1.0658"/>
   <text x="-50.761276" y="-91.125885" font-size="12.8px" letter-spacing="0px" word-spacing="0px" style="fill:#000000;font-family:'Arial Nova', 'Arial Unicode MS', 'Yu Gothic UI', sans-serif;font-size:12.8px;letter-spacing:0px;line-height:0%;stroke-width:1.0667;word-spacing:0px" xml:space="preserve"><tspan x="-50.761276" y="-91.125885" font-size="21.333px" style="fill:#ffffff;font-family:'Arial Nova', 'Arial Unicode MS', 'Yu Gothic UI', sans-serif;font-size:21.333px;line-height:1.25;stroke-width:1.0667;stroke:#ffffff">1</tspan></text>
  </g>
 </g>
</svg>
