<?xml version="1.0" encoding="UTF-8"?>
<svg width="18cm" height="5cm" version="1.1" xmlns="http://www.w3.org/2000/svg" xmlns:osb="http://www.openswatchbook.org/uri/2009/osb" xmlns:xlink="http://www.w3.org/1999/xlink">
 <defs>
  <linearGradient id="linearGradient7747-2-3-5-7-48">
   <stop style="stop-color:#fff" offset="0"/>
   <stop style="stop-color:#808080" offset="1"/>
  </linearGradient>
  <linearGradient id="linearGradient46078" x1="688.14" x2="1128.1" y1="16.555" y2="295.56" gradientTransform="matrix(1.0667 0 0 1.0667 -75.425 215.71)" gradientUnits="userSpaceOnUse">
   <stop style="stop-color:#fff" offset="0"/>
   <stop style="stop-color:#00385e" offset="1"/>
  </linearGradient>
  <linearGradient id="linearGradient46080" x1="-523.97" x2="-.19643" y1="174.59" y2="174.59" gradientTransform="matrix(.241 0 0 .241 160.29 105.96)" gradientUnits="userSpaceOnUse" xlink:href="#linearGradient7747-2-3-5-7-48"/>
  <linearGradient id="linearGradient46082" x1="145.83" x2="667.42" y1="172.85" y2="172.85" gradientTransform="matrix(.241 0 0 .241 160.29 105.96)" gradientUnits="userSpaceOnUse" xlink:href="#linearGradient7747-2-3-5-7-48"/>
  <linearGradient id="linearGradient46086" x1="-523.97" x2="-.19643" y1="174.59" y2="174.59" gradientTransform="matrix(.241 0 0 .241 482.78 105.93)" gradientUnits="userSpaceOnUse" xlink:href="#linearGradient7747-2-3-5-7-48"/>
  <linearGradient id="linearGradient46088" x1="145.83" x2="667.42" y1="172.85" y2="172.85" gradientTransform="matrix(.241 0 0 .241 482.78 105.93)" gradientUnits="userSpaceOnUse" xlink:href="#linearGradient7747-2-3-5-7-48"/>
  <linearGradient id="linearGradient46090" x1="27.968" x2="248.36" y1="-212.24" y2="456.93" gradientTransform="matrix(.241 0 0 .241 482.78 105.93)" gradientUnits="userSpaceOnUse">
   <stop style="stop-color:#fff" offset="0"/>
   <stop style="stop-color:#00385e" offset="1"/>
  </linearGradient>
 </defs>
 <g transform="translate(0 -264.57)">
  <g transform="translate(1.3363 230.41)">
   <text x="139.66678" y="92.471581" style="fill:#000000;font-family:'Arial Nova', 'Arial Unicode MS', 'Yu Gothic UI', sans-serif;font-size:12.8px;letter-spacing:0px;line-height:0%;stroke-width:1.0667;stroke:#ff0000;word-spacing:0px" xml:space="preserve"><tspan x="139.66678" y="92.471581" style="font-family:'Arial Nova', 'Arial Unicode MS', 'Yu Gothic UI', sans-serif;stroke-width:1.0667">1</tspan></text>
   <text x="165.4525" y="135.56879" style="fill:#000000;font-family:'Arial Nova', 'Arial Unicode MS', 'Yu Gothic UI', sans-serif;font-size:12.8px;letter-spacing:0px;line-height:0%;stroke-width:1.0667;stroke:#ff0000;word-spacing:0px" xml:space="preserve"><tspan x="165.4525" y="135.56879" style="font-family:'Arial Nova', 'Arial Unicode MS', 'Yu Gothic UI', sans-serif;stroke-width:1.0667">2</tspan></text>
   <text x="181.97966" y="122.37548" style="fill:#000000;font-family:'Arial Nova', 'Arial Unicode MS', 'Yu Gothic UI', sans-serif;font-size:12.8px;letter-spacing:0px;line-height:0%;stroke-width:1.0667;stroke:#800000;word-spacing:0px" xml:space="preserve"><tspan x="181.97966" y="122.37548" style="font-family:'Arial Nova', 'Arial Unicode MS', 'Yu Gothic UI', sans-serif;stroke-width:1.0667">B</tspan></text>
   <text x="164.8757" y="77.558113" style="fill:#000000;font-family:'Arial Nova', 'Arial Unicode MS', 'Yu Gothic UI', sans-serif;font-size:12.8px;letter-spacing:0px;line-height:0%;stroke-width:1.0667;stroke:#800000;word-spacing:0px" xml:space="preserve"><tspan x="164.8757" y="77.558113" style="font-family:'Arial Nova', 'Arial Unicode MS', 'Yu Gothic UI', sans-serif;stroke-width:1.0667">A</tspan></text>
   <text x="210.83711" y="87.962967" style="fill:#000000;font-family:'Arial Nova', 'Arial Unicode MS', 'Yu Gothic UI', sans-serif;font-size:12.8px;letter-spacing:0px;line-height:0%;stroke-width:1.0667;stroke:#ff0000;word-spacing:0px" xml:space="preserve"><tspan x="210.83711" y="87.962967" style="font-family:'Arial Nova', 'Arial Unicode MS', 'Yu Gothic UI', sans-serif;stroke-width:1.0667">3</tspan></text>
   <text x="199.79608" y="52.561966" style="fill:#000000;font-family:'Arial Nova', 'Arial Unicode MS', 'Yu Gothic UI', sans-serif;font-size:12.8px;letter-spacing:0px;line-height:0%;stroke-width:1.0667;stroke:#ff0000;word-spacing:0px" xml:space="preserve"><tspan x="199.79608" y="52.561966" style="font-family:'Arial Nova', 'Arial Unicode MS', 'Yu Gothic UI', sans-serif;stroke-width:1.0667">4</tspan></text>
   <path d="m132.58 87.153-0.63232-1.1005" style="fill:#fff;stroke-linecap:round;stroke-linejoin:round;stroke-width:4.1575;stroke:#fff"/>
   <path d="m150.98 87.219 1.6417-0.93298" style="fill:#fff;stroke-linecap:round;stroke-linejoin:round;stroke-width:4.1575;stroke:#fff"/>
   <g transform="matrix(.22594 0 0 .22594 -124.53 174.53)">
    <path d="m1016.5-6.9244c42.078-37.902 112.29-89.909 190.26-101.58m1.3333-3.3333c-23.926-32.198-53.842-67.293-105.29-69.751m-3.4666 0c-80.494 9.2115-156 67.856-195.27 102.02m0.16961 3.6095c62.082 0.52558 93.294 49.2 108.76 68.705" style="fill:none;stroke-linecap:round;stroke-linejoin:round;stroke-width:16.728;stroke:#f00"/>
    <path d="m963.95-62.092c30.494-26.767 57.492-47.991 90.707-66.001m4.6666-3.8667c27.994-15.18 56.55-24.828 91.863-31.253" style="fill:none;stroke-linecap:round;stroke-linejoin:round;stroke-width:16.728;stroke:#800000"/>
    <path d="m1004.5-145.36c22.481 0.87237 36.17 4.1423 50.351 13.347m4 4c19.634 12.744 32.887 30.021 48.572 50.529" style="fill:none;stroke-linecap:round;stroke-linejoin:round;stroke-width:16.728;stroke:#800000"/>
   </g>
   <g transform="matrix(.12007 0 0 .12007 13.095 88.438)">
    <path d="m522.88 378.12c116.82 0.98898 179.07 97.553 208.17 134.26 79.176-71.32 219.47-174.14 366.19-196.1-45.021-60.587-102.32-131.14-199.12-135.76-151.46 17.333-301.34 133.33-375.24 197.61z" style="fill:url(#linearGradient46078);stroke-linecap:round;stroke-linejoin:round;stroke-width:15.739;stroke:#7d7d7d"/>
    <path d="m668.8 439.14c105.74-92.817 220.58-170.36 365.87-196.8" style="fill:none;stroke-linecap:round;stroke-linejoin:round;stroke-width:6.2955;stroke:#7d7d7d"/>
    <path d="m762.13 219.94c100.87 3.9142 152.37 69.538 203.2 136" style="fill:none;stroke-linecap:round;stroke-linejoin:round;stroke-width:6.2955;stroke:#7d7d7d"/>
    <path d="m589.87 389.81c105.74-92.817 220.58-170.36 365.87-196.8" style="fill:none;stroke-linecap:round;stroke-linejoin:round;stroke-width:6.2955;stroke:#7d7d7d"/>
    <path d="m633.87 291.14c100.87 3.9142 152.37 69.538 203.2 136" style="fill:none;stroke-linecap:round;stroke-linejoin:round;stroke-width:6.2955;stroke:#7d7d7d"/>
   </g>
   <path d="m34.442 150.46 89.801-65.77c17.851 16.649 33.778 33.542 35.573 60.711l-89.116 65.981c-2.1821-28.089-18.602-44.991-36.258-60.922z" style="fill:url(#linearGradient46080);stroke-linecap:round;stroke-linejoin:round;stroke-width:1.8898;stroke:#7d7d7d"/>
   <path d="m79.343 118c15.264 11.36 34.333 34.246 36.258 61.343" style="fill:none;stroke-linecap:round;stroke-linejoin:round;stroke-width:.94488;stroke:#7d7d7d"/>
   <path d="m59.949 179.13 89.591-65.77" style="fill:none;stroke-linecap:round;stroke-linejoin:round;stroke-width:.94488;stroke:#7d7d7d"/>
   <path d="m320.71 150.04-89.801-65.77c-17.851 16.649-33.251 34.122-35.046 61.291l88.589 65.401c2.1821-28.089 18.602-44.991 36.258-60.922z" style="fill:url(#linearGradient46082);stroke-linecap:round;stroke-linejoin:round;stroke-width:1.8898;stroke:#7d7d7d"/>
   <path d="m275.81 117.58c-15.264 11.36-34.333 34.246-36.258 61.343" style="fill:none;stroke-linecap:round;stroke-linejoin:round;stroke-width:.94488;stroke:#7d7d7d"/>
   <path d="m295.2 178.71-89.591-65.77" style="fill:none;stroke-linecap:round;stroke-linejoin:round;stroke-width:.94488;stroke:#7d7d7d"/>
   <g transform="translate(586.54 53.069)">
    <ellipse cx="-353.73" cy="74.783" rx="13.199" ry="13.469" style="fill:#1f638a;stroke-linecap:round;stroke-linejoin:round;stroke-width:1.0658"/>
    <text x="-359.30856" y="82.449615" style="fill:#000000;font-family:'Arial Nova', 'Arial Unicode MS', 'Yu Gothic UI', sans-serif;font-size:12.8px;letter-spacing:0px;line-height:0%;stroke-width:1.0667;word-spacing:0px" xml:space="preserve"><tspan x="-359.30856" y="82.449615" style="fill:#ffffff;font-family:'Arial Nova', 'Arial Unicode MS', 'Yu Gothic UI', sans-serif;font-size:21.333px;font-weight:bold;stroke-width:1.0667">2</tspan></text>
   </g>
   <g transform="matrix(.22594 0 0 .22594 160.6 105.36)">
    <path d="m-159.78-93.904c71.525 63.807 149.63 148.08 158.15 268.01" style="fill:none;stroke-linecap:round;stroke-linejoin:round;stroke-width:16.728;stroke:#f00"/>
    <path d="m312.79-95.304c-64.761 55.41-149.63 148.78-155.58 270.57" style="fill:none;stroke-linecap:round;stroke-linejoin:round;stroke-width:16.728;stroke:#f00"/>
    <path d="m-157.68-95.07 183.94-135.57" style="fill:none;stroke-linecap:round;stroke-linejoin:round;stroke-width:16.728;stroke:#f00"/>
    <path d="m311.16-96.936-183.49-134.15" style="fill:none;stroke-linecap:round;stroke-linejoin:round;stroke-width:16.728;stroke:#f00"/>
    <path d="m76.507 151.25v-381.6" style="fill:none;stroke-linecap:round;stroke-linejoin:round;stroke-width:16.728;stroke:#800000"/>
    <path d="m-46.651 32.286c80.088-51.021 170.27-49.432 246.78 0" style="fill:none;stroke-linecap:round;stroke-linejoin:round;stroke-width:16.728;stroke:#800000"/>
    <path d="m-1.866 174.57c48.079-26.985 99.999-36.175 156.75 0" style="fill:none;stroke-linecap:round;stroke-linejoin:round;stroke-width:16.728;stroke:#f00"/>
   </g>
   <path d="m198.36 132.9 6.2253-5.1469 6.9023 14.13 6.2932-3.0742-6.9023-14.13 7.4287-1.523-19.542-14.716z" style="fill:#fff;stroke-linecap:round;stroke-linejoin:round;stroke-width:.75591;stroke:#000"/>
   <g transform="translate(622.01 119.45)">
    <ellipse cx="-417.96" cy="45.184" rx="13.199" ry="13.469" style="fill:#1f638a;stroke-linecap:round;stroke-linejoin:round;stroke-width:1.0658"/>
    <text x="-423.7988" y="52.85017" style="fill:#000000;font-family:'Arial Nova', 'Arial Unicode MS', 'Yu Gothic UI', sans-serif;font-size:12.8px;letter-spacing:0px;line-height:0%;stroke-width:1.0667;word-spacing:0px" xml:space="preserve"><tspan x="-423.7988" y="52.85017" style="fill:#ffffff;font-family:'Arial Nova', 'Arial Unicode MS', 'Yu Gothic UI', sans-serif;font-size:21.333px;font-weight:bold;stroke-width:1.0667">1</tspan></text>
   </g>
   <path d="m167.64 165.98 6.2254-5.1469 6.9023 14.13 6.2932-3.0742-6.9023-14.13 7.4287-1.523-19.542-14.716z" style="fill:#fff;stroke-linecap:round;stroke-linejoin:round;stroke-width:.75591;stroke:#000"/>
   <path d="m455.07 87.119-0.63232-1.1005" style="fill:#fff;stroke-linecap:round;stroke-linejoin:round;stroke-width:4.1575;stroke:#fff"/>
   <path d="m473.47 87.186 1.6417-0.93298" style="fill:#fff;stroke-linecap:round;stroke-linejoin:round;stroke-width:4.1575;stroke:#fff"/>
   <g transform="matrix(.22594 0 0 .22594 197.96 174.5)">
    <path d="m1016.5-6.9244c42.078-37.902 112.29-89.909 190.26-101.58m1.3333-3.3333c-23.926-32.198-53.842-67.293-105.29-69.751m-3.4666 0c-80.494 9.2115-156 67.856-195.27 102.02m0.16961 3.6095c62.082 0.52558 93.294 49.2 108.76 68.705" style="fill:none;stroke-linecap:round;stroke-linejoin:round;stroke-width:16.728;stroke:#f00"/>
    <path d="m963.95-62.092c30.494-26.767 57.492-47.991 90.707-66.001m4.6666-3.8667c27.994-15.18 56.55-24.828 91.863-31.253" style="fill:none;stroke-linecap:round;stroke-linejoin:round;stroke-width:16.728;stroke:#800000"/>
    <path d="m1004.5-145.36c22.481 0.87237 36.17 4.1423 50.351 13.347m4 4c19.634 12.744 32.887 30.021 48.572 50.529" style="fill:none;stroke-linecap:round;stroke-linejoin:round;stroke-width:16.728;stroke:#800000"/>
   </g>
   <g transform="matrix(.12007 0 0 .12007 335.58 88.405)">
    <path d="m522.88 378.12c116.82 0.98898 179.07 97.553 208.17 134.26 79.176-71.32 219.47-174.14 366.19-196.1-45.021-60.587-102.32-131.14-199.12-135.76-151.46 17.333-301.34 133.33-375.24 197.61z" style="fill:url(#linearGradient46078);stroke-linecap:round;stroke-linejoin:round;stroke-width:15.739;stroke:#7d7d7d"/>
    <path d="m668.8 439.14c105.74-92.817 220.58-170.36 365.87-196.8" style="fill:none;stroke-linecap:round;stroke-linejoin:round;stroke-width:6.2955;stroke:#7d7d7d"/>
    <path d="m762.13 219.94c100.87 3.9142 152.37 69.538 203.2 136" style="fill:none;stroke-linecap:round;stroke-linejoin:round;stroke-width:6.2955;stroke:#7d7d7d"/>
    <path d="m589.87 389.81c105.74-92.817 220.58-170.36 365.87-196.8" style="fill:none;stroke-linecap:round;stroke-linejoin:round;stroke-width:6.2955;stroke:#7d7d7d"/>
    <path d="m633.87 291.14c100.87 3.9142 152.37 69.538 203.2 136" style="fill:none;stroke-linecap:round;stroke-linejoin:round;stroke-width:6.2955;stroke:#7d7d7d"/>
   </g>
   <path d="m356.93 150.43 89.801-65.77c17.851 16.649 33.778 33.542 35.573 60.711l-89.116 65.981c-2.1821-28.089-18.602-44.991-36.258-60.922z" style="fill:url(#linearGradient46086);stroke-linecap:round;stroke-linejoin:round;stroke-width:1.8898;stroke:#7d7d7d"/>
   <path d="m401.83 117.97c15.264 11.36 34.333 34.246 36.258 61.343" style="fill:none;stroke-linecap:round;stroke-linejoin:round;stroke-width:.94488;stroke:#7d7d7d"/>
   <path d="m382.44 179.1 89.591-65.77" style="fill:none;stroke-linecap:round;stroke-linejoin:round;stroke-width:.94488;stroke:#7d7d7d"/>
   <path d="m643.2 150.01-89.801-65.77c-17.851 16.649-33.251 34.122-35.046 61.291l88.589 65.401c2.1821-28.089 18.602-44.991 36.258-60.922z" style="fill:url(#linearGradient46088);stroke-linecap:round;stroke-linejoin:round;stroke-width:1.8898;stroke:#7d7d7d"/>
   <path d="m598.3 117.54c-15.264 11.36-34.333 34.246-36.258 61.343" style="fill:none;stroke-linecap:round;stroke-linejoin:round;stroke-width:.94488;stroke:#7d7d7d"/>
   <path d="m617.69 178.68-89.591-65.77" style="fill:none;stroke-linecap:round;stroke-linejoin:round;stroke-width:.94488;stroke:#7d7d7d"/>
   <path d="m488.79 53.672h22.556l41.423 30.461c-17.795 16.267-32.944 34.298-34.888 61.132-11.629-6.8025-23.364-7.2432-34.993 0-2.3306-25.923-17.216-44.486-35.731-60.922z" style="fill:url(#linearGradient46090);stroke-linecap:round;stroke-linejoin:round;stroke-width:1.8898;stroke:#7d7d7d"/>
   <path d="m500.07 139.89v-86.218" style="fill:none;stroke-linecap:round;stroke-linejoin:round;stroke-width:.94488;stroke:#7d7d7d"/>
   <path d="m454.53 91.195c29.864 2.7876 61.097 2.8337 90.961 0" style="fill:none;stroke-linecap:round;stroke-linejoin:round;stroke-width:.94488;stroke:#7d7d7d"/>
   <g transform="rotate(-90 274.29 153.31)">
    <path d="m234.83 220.11 6.2408 9.9675 6.2408-9.9675z" style="fill:#1f638a;stroke-linecap:round;stroke-linejoin:round;stroke-width:.37795;stroke:#1f638a"/>
    <rect transform="matrix(0,1,1,0,0,0)" x="209.81" y="238.21" width="11.439" height="5.7059" style="fill:#1f638a;stroke-linecap:round;stroke-linejoin:round;stroke-width:.37795;stroke:#1f638a"/>
   </g>
  </g>
 </g>
</svg>
