<?xml version="1.0" encoding="UTF-8"?>
<!-- Created with Inkscape (http://www.inkscape.org/) -->
<svg width="18cm" height="7.5cm" version="1.1" viewBox="0 0 180 75" xmlns="http://www.w3.org/2000/svg" xmlns:cc="http://creativecommons.org/ns#" xmlns:dc="http://purl.org/dc/elements/1.1/" xmlns:rdf="http://www.w3.org/1999/02/22-rdf-syntax-ns#" xmlns:xlink="http://www.w3.org/1999/xlink">
 <defs>
  <linearGradient id="linearGradient6218-7-4-0-5-2-09">
   <stop stop-color="#ff8500" offset="0"/>
   <stop stop-color="#fff" offset="1"/>
  </linearGradient>
  <linearGradient id="linearGradient7511" x1="21.525" x2=".051117" y1="267.1" y2="216.54" gradientTransform="matrix(.30588 0 0 .30609 22.207 -43.834)" gradientUnits="userSpaceOnUse" xlink:href="#linearGradient6218-7-4-0-5-2-09"/>
  <linearGradient id="linearGradient7515" x1="30.175" x2=".051117" y1="298.59" y2="216.54" gradientTransform="matrix(.30588 0 0 .30609 22.207 -43.834)" gradientUnits="userSpaceOnUse" xlink:href="#linearGradient6218-7-4-0-5-2-09"/>
  <linearGradient id="linearGradient7523" x1="23.378" x2=".051117" y1="281.92" y2="216.54" gradientTransform="matrix(.30588 0 0 .30609 22.207 -43.834)" gradientUnits="userSpaceOnUse" xlink:href="#linearGradient6218-7-4-0-5-2-09"/>
  <linearGradient id="linearGradient8783" x1="38.264" x2="26.839" y1="254.23" y2="218.95" gradientUnits="userSpaceOnUse" xlink:href="#linearGradient6218-7-4-0-5-2-09"/>
  <linearGradient id="linearGradient405" x1="48.165" x2="48.875" y1="218.29" y2="247.49" gradientTransform="translate(.53454 -195.36)" gradientUnits="userSpaceOnUse" xlink:href="#linearGradient6218-7-4-0-5-2-09"/>
 </defs>
 <metadata>
  <rdf:RDF>
   <cc:Work rdf:about="">
    <dc:format>image/svg+xml</dc:format>
    <dc:type rdf:resource="http://purl.org/dc/dcmitype/StillImage"/>
   </cc:Work>
  </rdf:RDF>
 </metadata>
 <path d="m9.6776 33.586 9.0322 5.205-0.18787 5.9873 1.691 2.9214-11.05-6.3415z" fill="url(#linearGradient7511)" stroke="#7d7d7d" stroke-linecap="round" stroke-linejoin="round" stroke-width=".38"/>
 <path d="m18.522 44.778 15.835-9.0099-0.20438-6.0334-15.443 9.056z" fill="url(#linearGradient7515)" stroke="#7d7d7d" stroke-linecap="round" stroke-linejoin="round" stroke-width=".379"/>
 <path d="m69.132 35.216-0.02043-6.1664c-12.065-6.1578-24.751-4.4163-33.886 0.13294l0.20438 6.0334c10.764-5.8824 24.843-4.9131 33.702 0z" fill="url(#linearGradient7523)" stroke="#7d7d7d" stroke-linecap="round" stroke-linejoin="round" stroke-width=".379"/>
 <path d="m69.132 35.216 8.2659-4.8123-0.39156-5.9359-7.8948 4.5818z" fill="url(#linearGradient7515)" stroke="#7d7d7d" stroke-linecap="round" stroke-linejoin="round" stroke-width=".379"/>
 <path d="m20.213 47.7 15.779-9.0489c-0.99962-0.66689-1.5619-1.617-1.635-2.8838l-15.835 9.0113c0.1693 1.223 0.49777 2.3454 1.6909 2.9213z" fill="url(#linearGradient405)" stroke="#7d7d7d" stroke-linecap="round" stroke-linejoin="round" stroke-width=".379"/>
 <path d="m37.065 38.096c9.3111-5.3103 23.635-4.7541 31.965 0.92325l0.10166-3.807c-10.879-5.7979-24.101-5.1458-33.702 0 0.0928 1.3351 0.65593 2.2814 1.635 2.8838z" fill="url(#linearGradient405)" stroke="#7d7d7d" stroke-linecap="round" stroke-linejoin="round" stroke-width=".379"/>
 <path d="m69.03 39.016 10.145-5.8426c-1.058-0.60799-1.5656-1.5915-1.7776-2.7767l-8.2659 4.8123z" fill="url(#linearGradient405)" stroke="#7d7d7d" stroke-linecap="round" stroke-linejoin="round" stroke-width=".379"/>
 <g transform="translate(.53454 -195.36)" fill="url(#linearGradient8783)" stroke="#7d7d7d" stroke-linecap="round" stroke-linejoin="round" stroke-width=".379">
  <path d="m9.1431 228.95 41.54-24.011 25.788 14.889-7.8948 4.5818c-9.1431-4.8873-22.364-5.769-33.894 0.15318l-13.46 7.7823-3.047 1.8097-3.1252-1.7893z"/>
  <path d="m81.039 229.91-2.399-1.3739-10.145 5.8426c-9.3746-5.986-23.448-5.9605-31.965-0.92325l-13.38 7.629-3.4717 1.9793-11.05-6.3415-3.3163 1.9228 30.291 17.557z"/>
 </g>
 <path d="m4.8868 7.18v55.673h78.162v-55.673z" fill="none" stroke="#000" stroke-linecap="round" stroke-linejoin="round" stroke-width=".2"/>
 <path d="m5.0239 7.18c7.5925-12.924 98.11 0.18122 79.512 51.528" fill="none" stroke="#000" stroke-dasharray="0.282, 0.564" stroke-width=".282"/>
 <path d="m83.049 62.86 2.9308-3.8234-2.8025-0.8049z" fill="none" stroke="#000" stroke-dasharray="0.282, 0.282" stroke-width=".282"/>
 <path d="m82.942 69.33 1.6471-1.3618 1.8262 3.7385 1.6651-0.8134-1.8262-3.7385 1.9655-0.40296-5.1705-3.8935z" fill="#fff" stroke="#000" stroke-linecap="round" stroke-linejoin="round" stroke-width=".2"/>
 <path d="m92.246 33.395 2.6372 1.6512-2.6372 1.6512z" fill="#1f638a" stroke="#1f638a" stroke-linecap="round" stroke-linejoin="round" stroke-width=".1"/>
 <rect x="89.521" y="34.292" width="3.0265" height="1.5097" fill="#1f638a" stroke="#1f638a" stroke-linecap="round" stroke-linejoin="round" stroke-width=".1"/>
 <ellipse cx="92.755" cy="67.33" rx="3.4922" ry="3.5636" fill="#1f638a" stroke-linecap="round" stroke-linejoin="round" stroke-width=".28199"/>
 <text x="91.209579" y="69.359917" fill="#000000" font-family="'Arial Nova', 'Arial Unicode MS', 'Yu Gothic UI', sans-serif" font-size="3.3866px" letter-spacing="0px" stroke-width=".28223" word-spacing="0px" style="line-height:0%" xml:space="preserve"><tspan x="91.209579" y="69.359917" fill="#ffffff" font-family="'Arial Nova', 'Arial Unicode MS', 'Yu Gothic UI', sans-serif" font-size="5.6443px" stroke="#ffffff" stroke-width=".28223" style="line-height:1.25">1</tspan></text>
 <path d="m51.245 25.071v9.3285" fill="none" stroke="#808080" stroke-linecap="round" stroke-linejoin="round" stroke-width=".379"/>
 <path d="m102.81 33.586 9.0322 5.205-0.18787 5.9873c0.0888 1.2649 0.56698 2.2912 1.691 2.9214l-11.05-6.3415z" fill="none" stroke="#7d7d7d" stroke-linecap="round" stroke-linejoin="round" stroke-width=".38"/>
 <path d="m111.66 44.778 15.835-9.0099-0.20438-6.0334-15.443 9.056z" fill="none" stroke="#7d7d7d" stroke-linecap="round" stroke-linejoin="round" stroke-width=".379"/>
 <path d="m162.27 35.216-0.0204-6.1664c-12.065-6.1578-24.751-4.4163-33.886 0.13294l0.20438 6.0334c10.764-5.8824 24.843-4.9131 33.702 0z" fill="none" stroke="#7d7d7d" stroke-linecap="round" stroke-linejoin="round" stroke-width=".379"/>
 <path d="m162.27 35.216 8.266-4.8123-0.39156-5.9359-7.8948 4.5818z" fill="none" stroke="#7d7d7d" stroke-linecap="round" stroke-linejoin="round" stroke-width=".379"/>
 <path d="m113.35 47.7 15.779-9.0489c-0.99962-0.66689-1.5619-1.617-1.635-2.8838l-15.835 9.0113c0.1693 1.223 0.49777 2.3454 1.6909 2.9213z" fill="none" stroke="#7d7d7d" stroke-linecap="round" stroke-linejoin="round" stroke-width=".379"/>
 <path d="m130.2 38.096c9.3112-5.3103 23.635-4.7541 31.965 0.92325l0.10166-3.807c-10.879-5.7979-24.101-5.1458-33.702 0 0.0928 1.3351 0.65594 2.2814 1.635 2.8838z" fill="none" stroke="#7d7d7d" stroke-linecap="round" stroke-linejoin="round" stroke-width=".379"/>
 <path d="m162.16 39.016 10.145-5.8426c-1.058-0.60799-1.5656-1.5915-1.7776-2.7767l-8.266 4.8123z" fill="none" stroke="#7d7d7d" stroke-linecap="round" stroke-linejoin="round" stroke-width=".379"/>
 <g transform="translate(93.668 -195.36)" fill="none" stroke="#7d7d7d" stroke-linecap="round" stroke-linejoin="round" stroke-width=".379">
  <path d="m9.1431 228.95 41.54-24.011 25.788 14.889-7.8948 4.5818c-9.1431-4.8873-22.364-5.769-33.894 0.15318l-13.46 7.7823-3.047 1.8097-3.1252-1.7893z"/>
  <path d="m81.039 229.91-2.399-1.3739-10.145 5.8426c-9.3746-5.986-23.448-5.9605-31.965-0.92325l-13.38 7.629-3.4717 1.9793-11.05-6.3415-3.3163 1.9228 30.291 17.557z"/>
 </g>
 <path d="m144.38 25.071v9.3285" fill="none" stroke="#808080" stroke-linecap="round" stroke-linejoin="round" stroke-width=".379"/>
 <path d="m98.98 43.281 3.3163-1.9228 0.51478-7.7722 41.54-24.011 25.788 14.889 0.3917 5.9327c0.15778 1.202 0.75655 2.1231 1.7772 2.7754l2.399 1.3739-45.436 26.292z" fill="none" stroke="#f00" stroke-linecap="round" stroke-linejoin="round" stroke-width=".379"/>
 <path d="m102.3 41.358 11.05 6.3415c-0.84518-0.49031-1.5476-1.2217-1.6693-2.9338l0.16606-5.9749-9.0322-5.205" fill="none" stroke="#ff0" stroke-linecap="round" stroke-linejoin="round" stroke-width=".379"/>
 <path d="m111.84 38.791 15.443-9.056 1.0641-0.53596c12.585-6.2698 25.028-4.6625 33.895-0.11246l7.8947-4.6187" fill="none" stroke="#ff0" stroke-linecap="round" stroke-linejoin="round" stroke-width=".379"/>
 <path d="m162.24 29.087-0.082 9.9282" fill="none" stroke="#ff0" stroke-linecap="round" stroke-linejoin="round" stroke-width=".379"/>
 <path d="m111.68 44.766 15.809-8.9964" fill="none" stroke="#0ff" stroke-linecap="round" stroke-linejoin="round" stroke-width=".379"/>
 <path d="m113.35 47.7 15.779-9.0489" fill="none" stroke="#0ff" stroke-linecap="round" stroke-linejoin="round" stroke-width=".379"/>
 <path d="m128.56 35.216c11.404-5.8173 23.948-5.0726 33.702 6.1e-5l8.266-4.8123" fill="none" stroke="#0ff" stroke-linecap="round" stroke-linejoin="round" stroke-width=".379"/>
 <path d="m130.2 38.093c11.216-6.1317 24.829-3.7665 31.959 0.92674l10.145-5.8458" fill="none" stroke="#0ff" stroke-linecap="round" stroke-linejoin="round" stroke-width=".379"/>
 <path d="m144.38 25.071v9.3285" fill="none" stroke="#f0f" stroke-linecap="round" stroke-linejoin="round" stroke-width=".379"/>
 <path d="m127.29 29.735 1.0641-0.53596 0.21252 6.0133c0.0738 1.3756 0.69235 2.273 1.6415 2.8803l-1.0787 0.55823c-0.72565-0.60248-1.4854-1.1368-1.6396-2.8812z" fill="none" stroke="#f00" stroke-linecap="round" stroke-linejoin="round" stroke-width=".379"/>
 <g transform="matrix(.26458 0 0 .26458 139.88 66.96)">
  <ellipse cx="-13.718" cy="-98.798" rx="13.199" ry="13.469" fill="#1f638a" stroke-linecap="round" stroke-linejoin="round" stroke-width="1.0658"/>
  <text x="-19.559933" y="-91.125885" fill="#000000" font-family="'Arial Nova', 'Arial Unicode MS', 'Yu Gothic UI', sans-serif" font-size="12.8px" letter-spacing="0px" stroke-width="1.0667" word-spacing="0px" style="line-height:0%" xml:space="preserve"><tspan x="-19.559933" y="-91.125885" fill="#ffffff" font-family="'Arial Nova', 'Arial Unicode MS', 'Yu Gothic UI', sans-serif" font-size="21.333px" stroke="#ffffff" stroke-width="1.0667" style="line-height:1.25">2</tspan></text>
 </g>
 <g transform="matrix(.26458 0 0 .26458 109.21 58.713)">
  <ellipse cx="17.483" cy="-98.798" rx="13.199" ry="13.469" fill="#1f638a" stroke-linecap="round" stroke-linejoin="round" stroke-width="1.0658"/>
  <text x="11.641406" y="-91.256096" fill="#000000" font-family="'Arial Nova', 'Arial Unicode MS', 'Yu Gothic UI', sans-serif" font-size="12.8px" letter-spacing="0px" stroke-width="1.0667" word-spacing="0px" style="line-height:0%" xml:space="preserve"><tspan x="11.641406" y="-91.256096" fill="#ffffff" font-family="'Arial Nova', 'Arial Unicode MS', 'Yu Gothic UI', sans-serif" font-size="21.333px" stroke="#ffffff" stroke-width="1.0667" style="line-height:1.25">3</tspan></text>
 </g>
 <g transform="matrix(.26458 0 0 .26458 44.166 .96558)">
  <g transform="translate(354.56 247.34)">
   <ellipse cx="48.684" cy="-98.798" rx="13.199" ry="13.469" fill="#1f638a" stroke-linecap="round" stroke-linejoin="round" stroke-width="1.0658"/>
   <text x="42.842751" y="-91.162346" fill="#000000" font-family="'Arial Nova', 'Arial Unicode MS', 'Yu Gothic UI', sans-serif" font-size="12.8px" letter-spacing="0px" stroke-width="1.0667" word-spacing="0px" style="line-height:0%" xml:space="preserve"><tspan x="42.842751" y="-91.162346" fill="#ffffff" font-family="'Arial Nova', 'Arial Unicode MS', 'Yu Gothic UI', sans-serif" font-size="21.333px" stroke="#ffffff" stroke-width="1.0667" style="line-height:1.25">4</tspan></text>
  </g>
 </g>
 <g transform="matrix(.26458 0 0 .26458 76.281 -29.03)">
  <g transform="translate(197.02 281.84)">
   <ellipse cx="79.886" cy="-98.798" rx="13.199" ry="13.469" fill="#1f638a" stroke-linecap="round" stroke-linejoin="round" stroke-width="1.0658"/>
   <text x="74.04409" y="-91.396721" fill="#000000" font-family="'Arial Nova', 'Arial Unicode MS', 'Yu Gothic UI', sans-serif" font-size="12.8px" letter-spacing="0px" stroke-width="1.0667" word-spacing="0px" style="line-height:0%" xml:space="preserve"><tspan x="74.04409" y="-91.396721" fill="#ffffff" font-family="'Arial Nova', 'Arial Unicode MS', 'Yu Gothic UI', sans-serif" font-size="21.333px" stroke="#ffffff" stroke-width="1.0667" style="line-height:1.25">5</tspan></text>
  </g>
 </g>
 <path d="m148 21.357-3.6232 7.0315" color="#000000" fill="#1f638a" fill-rule="evenodd" stroke="#1f638a" stroke-linejoin="round" stroke-width=".5"/>
 <path d="m134.16 40.518-4.493-2.1461" color="#000000" fill="#1f638a" fill-rule="evenodd" stroke="#1f638a" stroke-linejoin="round" stroke-width=".5"/>
 <path d="m156.01 36.121-3.2758 2.8714" color="#000000" fill="#1f638a" fill-rule="evenodd" stroke="#1f638a" stroke-linejoin="round" stroke-width=".5"/>
 <path d="m111.75 33.913-3.9004 2.5782" color="#000000" fill="#1f638a" fill-rule="evenodd" stroke="#1f638a" stroke-linejoin="round" stroke-width=".5"/>
</svg>
