<?xml version="1.0" encoding="UTF-8"?>
<svg width="18cm" height="4cm" version="1.1" xmlns="http://www.w3.org/2000/svg" xmlns:osb="http://www.openswatchbook.org/uri/2009/osb" xmlns:xlink="http://www.w3.org/1999/xlink">
 <defs>
  <linearGradient id="linearGradient22799" x1="93.44" x2="192.63" y1="75.631" y2="75.631" gradientTransform="matrix(1.0667 0 0 1.0667 1.1926 302.05)" gradientUnits="userSpaceOnUse">
   <stop style="stop-color:#fff" offset="0"/>
   <stop style="stop-color:#808080" offset="1"/>
  </linearGradient>
  <linearGradient id="linearGradient22799-2" x1="93.44" x2="192.63" y1="75.631" y2="75.631" gradientTransform="matrix(1.0667 0 0 1.0667 217.96 302.05)" gradientUnits="userSpaceOnUse">
   <stop style="stop-color:#fff" offset="0"/>
   <stop style="stop-color:#808080" offset="1"/>
  </linearGradient>
 </defs>
 <g transform="translate(0 -302.36)">
  <path d="m101.81 330.59h97.94l6.2009 5.7903v13.913l-6.3188 6.2466h-21.111c-30.345 0.29624-33.588 50.993 0 51.444h20.875l6.5546 6.4497v13.441l-6.6725 6.9694h-97.468z" style="color:#000000;fill:url(#linearGradient22799);stroke-linecap:round;stroke-linejoin:round;stroke-width:1.4324;stroke:#7c7c7c"/>
  <path d="m318.58 330.59h97.94l6.2009 5.7903v13.913l-6.3188 6.2466h-21.111c-30.345 0.29624-33.588 50.993 0 51.444h20.875l6.5546 6.4497v13.441l-6.6725 6.9694h-97.468z" style="color:#000000;fill:url(#linearGradient22799-2);stroke-linecap:round;stroke-linejoin:round;stroke-width:1.4324;stroke:#7c7c7c"/>
  <g transform="translate(16.108 85.979)">
   <path d="m137.73 245.26v104.3" style="fill:none;stroke-linecap:round;stroke-linejoin:round;stroke-width:.67654;stroke:#7d7d7d"/>
   <path d="m85.63 297.22h53.116" style="fill:none;stroke-linecap:round;stroke-linejoin:round;stroke-width:.67654;stroke:#7d7d7d"/>
  </g>
  <path d="m197.76 408.61h-19.723c-30.576 0-33.524-51.364 0-51.364h19.723" style="fill:none;stroke-linecap:round;stroke-linejoin:round;stroke-width:3.7417px;stroke:#f00"/>
  <g transform="translate(0 197.49)">
   <ellipse cx="41.884" cy="186.76" rx="13.199" ry="13.469" style="fill:#1f638a;stroke-linecap:round;stroke-linejoin:round;stroke-width:1.0658"/>
   <text x="34.866245" y="194.3965" style="fill:#000000;font-family:'Arial Nova', 'Arial Unicode MS', 'Yu Gothic UI', sans-serif;font-size:12.8px;letter-spacing:0px;line-height:0%;stroke-width:1.0667;word-spacing:0px" xml:space="preserve"><tspan x="34.866245" y="194.3965" style="fill:#ffffff;font-family:'Arial Nova', 'Arial Unicode MS', 'Yu Gothic UI', sans-serif;font-size:21.333px;font-weight:bold;stroke-width:1.0667">D</tspan></text>
  </g>
  <g transform="translate(-789.38 94.118)" style="stroke-dasharray:0.99921262, 1.99842525;stroke-dashoffset:3.6971;stroke-width:.99921">
   <ellipse cx="988.73" cy="286.32" rx="13.199" ry="13.469" style="fill:#1f638a;stroke-dasharray:1.06582679, 2.1316536;stroke-dashoffset:3.6971;stroke-linecap:round;stroke-linejoin:round;stroke-width:1.0658"/>
   <text x="982.88611" y="293.98578" style="fill:#000000;font-family:'Arial Nova', 'Arial Unicode MS', 'Yu Gothic UI', sans-serif;font-size:12.8px;font-weight:bold;letter-spacing:0px;line-height:0%;stroke-width:1.0658;word-spacing:0px" xml:space="preserve"><tspan x="982.88611" y="293.98578" style="fill:#ffffff;font-family:'Arial Nova', 'Arial Unicode MS', 'Yu Gothic UI', sans-serif;font-size:21.333px;font-weight:bold;stroke-width:1.0658">1</tspan></text>
  </g>
  <path d="m164.02 387.49 6.2254-5.1469 6.9023 14.13 6.2932-3.0742-6.9023-14.13 7.4286-1.523-19.542-14.716z" style="fill:#fff;stroke-linecap:round;stroke-linejoin:round;stroke-width:.75591;stroke:#000"/>
  <g transform="translate(234.84 86.083)">
   <path d="m137.73 245.26v104.3" style="fill:none;stroke-linecap:round;stroke-linejoin:round;stroke-width:.67654;stroke:#7d7d7d"/>
   <path d="m85.63 297.22h53.116" style="fill:none;stroke-linecap:round;stroke-linejoin:round;stroke-width:.67654;stroke:#7d7d7d"/>
  </g>
  <path d="m319.37 330.81h97.38l6.7603 7.0822v12.394l-7.0219 7.0635h-19.723c-33.524 0-30.576 51.364 0 51.364h19.723l6.4085 6.4085v12.102l-6.856 6.856h-96.671" style="fill:none;stroke-linecap:round;stroke-linejoin:round;stroke-width:3.7417px;stroke:#f00"/>
  <g transform="translate(-518.78 53.077)" style="stroke-dasharray:0.99921262, 1.99842525;stroke-dashoffset:3.6971;stroke-width:.99921">
   <ellipse cx="988.73" cy="286.32" rx="13.199" ry="13.469" style="fill:#1f638a;stroke-dasharray:1.06582679, 2.1316536;stroke-dashoffset:3.6971;stroke-linecap:round;stroke-linejoin:round;stroke-width:1.0658"/>
   <text x="982.88611" y="293.98578" style="fill:#000000;font-family:'Arial Nova', 'Arial Unicode MS', 'Yu Gothic UI', sans-serif;font-size:12.8px;letter-spacing:0px;line-height:0%;stroke-width:1.0658;word-spacing:0px" xml:space="preserve"><tspan x="982.88611" y="293.98578" style="fill:#ffffff;font-family:'Arial Nova', 'Arial Unicode MS', 'Yu Gothic UI', sans-serif;font-size:21.333px;font-weight:bold;stroke-width:1.0658">2</tspan></text>
  </g>
  <path d="m443.19 329.98-8.3075-10.324-4.739 7.3698z" style="stroke-linecap:round;stroke-linejoin:round;stroke-width:1.0658;stroke:#000"/>
  <path d="m455.27 358.63-6.9008 11.313 8.5391 1.9633z" style="stroke-linecap:round;stroke-linejoin:round;stroke-width:1.0658;stroke:#000"/>
  <path d="m445.63 328.78-19.828 19.766" style="stroke-linecap:round;stroke-linejoin:round;stroke-width:.75591;stroke:#000"/>
  <path d="m419.67 357.8h38.664" style="stroke-linecap:round;stroke-linejoin:round;stroke-width:.75591;stroke:#000"/>
  <path d="m430.67 322.24a37.9 37.9 0 0 1 21.692 20.757 37.9 37.9 0 0 1-0.21159 30.022" style="color:#000000;fill:none;stroke-linecap:round;stroke-linejoin:round;stroke-width:.67654;stroke:#000"/>
 </g>
</svg>
