<?xml version="1.0" encoding="UTF-8"?>
<svg width="13cm" height="2.5cm" overflow="visible" version="1.0" viewBox="11.001 -92.651 491.34 94.488" xmlns="http://www.w3.org/2000/svg"><defs></defs><g transform="translate(-24)"><g transform="translate(67.361 9.8769)"><line x1="56.963" x2="81.712" y1="-57.95" y2="-72.239" style="color:#260000;fill:none;stroke-linecap:round;stroke-linejoin:round;stroke-width:1.4324;stroke:currentColor"/><line x1="56.963" x2="81.712" y1="-17.125" y2="-31.414" style="color:#260000;fill:none;stroke-linecap:round;stroke-linejoin:round;stroke-width:1.4324;stroke:currentColor"/><line x1="81.712" x2="81.712" y1="-72.239" y2="-31.414" style="color:#260000;fill:none;stroke-linecap:round;stroke-linejoin:round;stroke-width:1.4324;stroke:currentColor"/><line x1="11.001" x2="35.75" y1="-31.414" y2="-17.125" style="color:#260000;fill:none;stroke-linecap:round;stroke-linejoin:round;stroke-width:1.4324;stroke:currentColor"/><line x1="11.001" x2="35.75" y1="-72.239" y2="-57.95" style="color:#260000;fill:none;stroke-linecap:round;stroke-linejoin:round;stroke-width:1.4324;stroke:currentColor"/><line id="ID_9A" x1="11.001" x2="11.001" y1="-31.414" y2="-72.239" style="color:#260000;fill:none;stroke-linecap:round;stroke-linejoin:round;stroke-width:1.4324;stroke:currentColor"/><line id="ID_9B" x1="11.001" x2="46.357" y1="-72.239" y2="-92.651" style="color:#260000;fill:none;stroke-linecap:round;stroke-linejoin:round;stroke-width:1.4324;stroke:currentColor"/><line id="ID_9D" x1="46.357" x2="81.712" y1="-92.651" y2="-72.239" style="color:#260000;fill:none;stroke-linecap:round;stroke-linejoin:round;stroke-width:1.4324;stroke:currentColor"/><path id="ID_9C" d="m56.963-57.95-0.56964 0.3121-0.59715 0.29446-0.62303 0.27601-0.64719 0.25681-0.66959 0.2369-0.69014 0.21634-0.70881 0.19519-0.72553 0.17351-0.74026 0.15135-0.75297 0.12877-0.76361 0.10584-0.77216 0.08263-0.77859 0.05918-0.78289 0.03557-0.78504 0.01187-0.78504-0.01187-0.78289-0.03557-0.77859-0.05918-0.77216-0.08263-0.76361-0.10584-0.75297-0.12877-0.74026-0.15135-0.72553-0.17351-0.70881-0.19519-0.69014-0.21634-0.66958-0.2369-0.64719-0.25681-0.62303-0.27601-0.59715-0.29446" style="color:#000000;fill:none;stroke-linecap:round;stroke-linejoin:round;stroke-width:1.4324;stroke:#000"/><path id="ID_9E" d="m56.963-17.125-0.56964 0.3121-0.59715 0.29446-0.62303 0.27601-0.64719 0.25681-0.66959 0.2369-0.69014 0.21634-0.70881 0.19519-0.72553 0.17351-0.74026 0.15135-0.75297 0.12877-0.76361 0.10584-0.77216 0.08263-0.77859 0.05918-0.78289 0.03557-0.78504 0.01187-0.78504-0.01187-0.78289-0.03557-0.77859-0.05918-0.77216-0.08263-0.76361-0.10584-0.75297-0.12877-0.74026-0.15135-0.72553-0.17351-0.70881-0.19519-0.69014-0.21634-0.66958-0.2369-0.64719-0.25681-0.62303-0.27601-0.59715-0.29446" style="color:#000000;fill:none;stroke-linecap:round;stroke-linejoin:round;stroke-width:1.4324;stroke:#000"/></g><g transform="translate(97.431 5.8518)"><ellipse cx="-36.9" cy="-49.598" rx="13.199" ry="13.469" style="fill:#1f638a;stroke-linecap:round;stroke-linejoin:round;stroke-width:1.0658"/><text x="-44.014687" y="-41.962215" style="fill:#000000;font-family:'Arial Nova', 'Arial Unicode MS', 'Yu Gothic UI', sans-serif;font-size:12.8px;letter-spacing:0px;line-height:0%;stroke-width:1.0667;word-spacing:0px" xml:space="preserve"><tspan x="-44.014687" y="-41.962215" style="fill:#ffffff;font-family:'Arial Nova', 'Arial Unicode MS', 'Yu Gothic UI', sans-serif;font-size:21.333px;line-height:1.25;stroke-width:1.0667;stroke:#ffffff">A</tspan></text></g></g><g transform="translate(-10.57)"><g transform="translate(84.201 9.8769)"><line x1="148.96" x2="173.71" y1="-57.95" y2="-72.239" style="color:#260000;fill:none;stroke-linecap:round;stroke-linejoin:round;stroke-width:1.4324;stroke:currentColor"/><line x1="148.96" x2="173.71" y1="-17.125" y2="-31.414" style="color:#260000;fill:none;stroke-linecap:round;stroke-linejoin:round;stroke-width:1.4324;stroke:currentColor"/><line x1="173.71" x2="173.71" y1="-72.239" y2="-31.414" style="color:#260000;fill:none;stroke-linecap:round;stroke-linejoin:round;stroke-width:1.4324;stroke:currentColor"/><line x1="103" x2="127.75" y1="-31.414" y2="-17.125" style="color:#260000;fill:none;stroke-linecap:round;stroke-linejoin:round;stroke-width:1.4324;stroke:currentColor"/><line x1="103" x2="127.75" y1="-72.239" y2="-57.95" style="color:#260000;fill:none;stroke-linecap:round;stroke-linejoin:round;stroke-width:1.4324;stroke:currentColor"/><line x1="103" x2="103" y1="-31.414" y2="-72.239" style="color:#260000;fill:none;stroke-linecap:round;stroke-linejoin:round;stroke-width:1.4324;stroke:currentColor"/><line x1="103" x2="138.36" y1="-72.239" y2="-92.651" style="color:#260000;fill:none;stroke-linecap:round;stroke-linejoin:round;stroke-width:1.4324;stroke:currentColor"/><line x1="138.36" x2="173.71" y1="-92.651" y2="-72.239" style="color:#260000;fill:none;stroke-linecap:round;stroke-linejoin:round;stroke-width:1.4324;stroke:currentColor"/><line x1="138.36" x2="138.36" y1="-92.651" y2="-55.414" style="color:#000000;fill:none;stroke-dasharray:1.35307088, 1.35307088;stroke-linecap:round;stroke-linejoin:round;stroke-width:.67654;stroke:currentColor"/><line x1="138.36" x2="138.36" y1="-55.414" y2="-51.827" style="color:#000000;fill:none;stroke-linecap:round;stroke-linejoin:round;stroke-width:.67654;stroke:currentColor"/><path d="m148.96-57.95-0.56965 0.3121-0.59715 0.29446-0.62303 0.27601-0.64719 0.25681-0.66959 0.2369-0.69014 0.21634-0.70881 0.19519-0.72553 0.17351-0.74026 0.15135-0.75297 0.12877-0.76361 0.10584-0.77216 0.08263-0.77859 0.05918-0.78289 0.03557-0.78504 0.01187-0.78504-0.01187-0.78288-0.03557-0.77859-0.05918-0.77216-0.08263-0.76361-0.10584-0.75297-0.12877-0.74027-0.15135-0.72553-0.17351-0.7088-0.19519-0.69015-0.21634-0.66958-0.2369-0.64719-0.25681-0.62303-0.27601-0.59716-0.29446" style="color:#000000;fill:none;stroke-linecap:round;stroke-linejoin:round;stroke-width:1.4324;stroke:#000"/><path d="m148.96-17.125-0.56965 0.3121-0.59715 0.29446-0.62303 0.27601-0.64719 0.25681-0.66959 0.2369-0.69014 0.21634-0.70881 0.19519-0.72553 0.17351-0.74026 0.15135-0.75297 0.12877-0.76361 0.10584-0.77216 0.08263-0.77859 0.05918-0.78289 0.03557-0.78504 0.01187-0.78504-0.01187-0.78288-0.03557-0.77859-0.05918-0.77216-0.08263-0.76361-0.10584-0.75297-0.12877-0.74027-0.15135-0.72553-0.17351-0.7088-0.19519-0.69015-0.21634-0.66958-0.2369-0.64719-0.25681-0.62303-0.27601-0.59716-0.29446" style="color:#000000;fill:none;stroke-linecap:round;stroke-linejoin:round;stroke-width:1.4324;stroke:#000"/><path d="m103-31.414 35.355-20.412" style="fill:none;stroke-dasharray:1.35307088, 1.35307088;stroke-linecap:round;stroke-linejoin:round;stroke-width:.67654;stroke:#000"/><path d="m138.36-51.827 35.355 20.412" style="fill:none;stroke-dasharray:1.35307088, 1.35307088;stroke-linecap:round;stroke-linejoin:round;stroke-width:.67654;stroke:#000"/></g><g transform="translate(206.08 -24.086)"><ellipse cx="-36.668" cy="-19.66" rx="13.199" ry="13.469" style="fill:#1f638a;stroke-linecap:round;stroke-linejoin:round;stroke-width:1.0658"/><text x="-43.09388" y="-12.024389" style="fill:#000000;font-family:'Arial Nova', 'Arial Unicode MS', 'Yu Gothic UI', sans-serif;font-size:12.8px;letter-spacing:0px;line-height:0%;stroke-width:1.0667;word-spacing:0px" xml:space="preserve"><tspan x="-43.09388" y="-12.024389" style="fill:#ffffff;font-family:'Arial Nova', 'Arial Unicode MS', 'Yu Gothic UI', sans-serif;font-size:21.333px;line-height:1.25;stroke-width:1.0667;stroke:#ffffff">B</tspan></text></g></g><g transform="translate(-.81949)"><g transform="translate(104.78 9.8769)"><line x1="240.96" x2="265.71" y1="-57.95" y2="-72.239" style="color:#260000;fill:none;stroke-linecap:round;stroke-linejoin:round;stroke-width:1.4324;stroke:currentColor"/><line x1="240.96" x2="265.71" y1="-17.125" y2="-31.414" style="color:#260000;fill:none;stroke-linecap:round;stroke-linejoin:round;stroke-width:1.4324;stroke:currentColor"/><line x1="265.71" x2="265.71" y1="-72.239" y2="-31.414" style="color:#260000;fill:none;stroke-linecap:round;stroke-linejoin:round;stroke-width:1.4324;stroke:currentColor"/><line x1="195" x2="219.75" y1="-31.414" y2="-17.125" style="color:#260000;fill:none;stroke-linecap:round;stroke-linejoin:round;stroke-width:1.4324;stroke:currentColor"/><line x1="195" x2="219.75" y1="-72.239" y2="-57.95" style="color:#260000;fill:none;stroke-linecap:round;stroke-linejoin:round;stroke-width:1.4324;stroke:currentColor"/><line x1="195" x2="195" y1="-31.414" y2="-72.239" style="color:#260000;fill:none;stroke-linecap:round;stroke-linejoin:round;stroke-width:1.4324;stroke:currentColor"/><line x1="195" x2="230.36" y1="-72.239" y2="-92.651" style="color:#260000;fill:none;stroke-linecap:round;stroke-linejoin:round;stroke-width:1.4324;stroke:currentColor"/><line x1="230.36" x2="265.71" y1="-92.651" y2="-72.239" style="color:#260000;fill:none;stroke-linecap:round;stroke-linejoin:round;stroke-width:1.4324;stroke:currentColor"/><path d="m240.96-57.95-0.56965 0.3121-0.59715 0.29446-0.62303 0.27601-0.64719 0.25681-0.66959 0.2369-0.69014 0.21634-0.70881 0.19519-0.72553 0.17351-0.74026 0.15135-0.75297 0.12877-0.76361 0.10584-0.77216 0.08263-0.77859 0.05918-0.78289 0.03557-0.78504 0.01187-0.78504-0.01187-0.78288-0.03557-0.77859-0.05918-0.77216-0.08263-0.76361-0.10584-0.75297-0.12877-0.74027-0.15135-0.72553-0.17351-0.7088-0.19519-0.69015-0.21634-0.66958-0.2369-0.64719-0.25681-0.62303-0.27601-0.59716-0.29446" style="color:#000000;fill:none;stroke-linecap:round;stroke-linejoin:round;stroke-width:1.4324;stroke:#000"/><path d="m240.96-17.125-0.56965 0.3121-0.59715 0.29446-0.62303 0.27601-0.64719 0.25681-0.66959 0.2369-0.69014 0.21634-0.70881 0.19519-0.72553 0.17351-0.74026 0.15135-0.75297 0.12877-0.76361 0.10584-0.77216 0.08263-0.77859 0.05918-0.78289 0.03557-0.78504 0.01187-0.78504-0.01187-0.78288-0.03557-0.77859-0.05918-0.77216-0.08263-0.76361-0.10584-0.75297-0.12877-0.74027-0.15135-0.72553-0.17351-0.7088-0.19519-0.69015-0.21634-0.66958-0.2369-0.64719-0.25681-0.62303-0.27601-0.59716-0.29446" style="color:#000000;fill:none;stroke-linecap:round;stroke-linejoin:round;stroke-width:1.4324;stroke:#000"/><path d="m219.75-17.125v-40.825" style="fill:none;stroke-linecap:round;stroke-linejoin:round;stroke-width:.67654;stroke:#000"/><path d="m240.96-17.125v-40.825" style="fill:none;stroke-linecap:round;stroke-linejoin:round;stroke-width:.67654;stroke:#000"/></g><g transform="translate(298.18 23.954)"><ellipse cx="-16.245" cy="-67.7" rx="13.199" ry="13.469" style="fill:#1f638a;stroke-linecap:round;stroke-linejoin:round;stroke-width:1.0658"/><text x="-24.07345" y="-60.064144" style="fill:#000000;font-family:'Arial Nova', 'Arial Unicode MS', 'Yu Gothic UI', sans-serif;font-size:12.8px;letter-spacing:0px;line-height:0%;stroke-width:1.0667;word-spacing:0px" xml:space="preserve"><tspan x="-24.07345" y="-60.064144" style="fill:#ffffff;font-family:'Arial Nova', 'Arial Unicode MS', 'Yu Gothic UI', sans-serif;font-size:21.333px;line-height:1.25;stroke-linecap:round;stroke-linejoin:round;stroke-width:1.0658;stroke:#ffffff">C</tspan></text></g></g><g transform="translate(-7.5814e-6)"><g transform="translate(134.3 9.8769)"><line x1="332.96" x2="357.71" y1="-57.95" y2="-72.239" style="color:#260000;fill:none;stroke-linecap:round;stroke-linejoin:round;stroke-width:1.4324;stroke:currentColor"/><line x1="332.96" x2="357.71" y1="-17.125" y2="-31.414" style="color:#260000;fill:none;stroke-linecap:round;stroke-linejoin:round;stroke-width:1.4324;stroke:currentColor"/><line x1="357.71" x2="357.71" y1="-72.239" y2="-31.414" style="color:#260000;fill:none;stroke-linecap:round;stroke-linejoin:round;stroke-width:1.4324;stroke:currentColor"/><line x1="287" x2="311.75" y1="-31.414" y2="-17.125" style="color:#260000;fill:none;stroke-linecap:round;stroke-linejoin:round;stroke-width:1.4324;stroke:currentColor"/><line x1="287" x2="311.75" y1="-72.239" y2="-57.95" style="color:#260000;fill:none;stroke-linecap:round;stroke-linejoin:round;stroke-width:1.4324;stroke:currentColor"/><line x1="287" x2="287" y1="-31.414" y2="-72.239" style="color:#260000;fill:none;stroke-linecap:round;stroke-linejoin:round;stroke-width:1.4324;stroke:currentColor"/><line x1="287" x2="322.36" y1="-72.239" y2="-92.651" style="color:#260000;fill:none;stroke-linecap:round;stroke-linejoin:round;stroke-width:1.4324;stroke:currentColor"/><line x1="322.36" x2="357.71" y1="-92.651" y2="-72.239" style="color:#260000;fill:none;stroke-linecap:round;stroke-linejoin:round;stroke-width:1.4324;stroke:currentColor"/><path d="m332.96-57.95-0.56965 0.3121-0.59715 0.29446-0.62303 0.27601-0.64719 0.25681-0.66959 0.2369-0.69014 0.21634-0.70881 0.19519-0.72553 0.17351-0.74026 0.15135-0.75297 0.12877-0.76361 0.10584-0.77216 0.08263-0.77859 0.05918-0.78289 0.03557-0.78504 0.01187-0.78504-0.01187-0.78288-0.03557-0.77859-0.05918-0.77216-0.08263-0.76361-0.10584-0.75297-0.12877-0.74027-0.15135-0.72553-0.17351-0.7088-0.19519-0.69015-0.21634-0.66958-0.2369-0.64719-0.25681-0.62303-0.27601-0.59716-0.29446" style="color:#000000;fill:none;stroke-linecap:round;stroke-linejoin:round;stroke-width:1.4324;stroke:#000"/><path d="m332.96-17.125-0.56965 0.3121-0.59715 0.29446-0.62303 0.27601-0.64719 0.25681-0.66959 0.2369-0.69014 0.21634-0.70881 0.19519-0.72553 0.17351-0.74026 0.15135-0.75297 0.12877-0.76361 0.10584-0.77216 0.08263-0.77859 0.05918-0.78289 0.03557-0.78504 0.01187-0.78504-0.01187-0.78288-0.03557-0.77859-0.05918-0.77216-0.08263-0.76361-0.10584-0.75297-0.12877-0.74027-0.15135-0.72553-0.17351-0.7088-0.19519-0.69015-0.21634-0.66958-0.2369-0.64719-0.25681-0.62303-0.27601-0.59716-0.29446" style="color:#000000;fill:none;stroke-linecap:round;stroke-linejoin:round;stroke-width:1.4324;stroke:#000"/><line x1="322.36" x2="322.36" y1="-92.619" y2="-51.879" style="color:#000000;fill:none;stroke-dasharray:1.35307088, 1.35307088;stroke-linecap:round;stroke-linejoin:round;stroke-width:.67654;stroke:currentColor"/><path d="m287-31.414 35.355-20.412" style="fill:none;stroke-dasharray:1.35307088, 1.35307088;stroke-linecap:round;stroke-linejoin:round;stroke-width:.67654;stroke:#000"/><path d="m322.36-51.827 35.355 20.412" style="fill:none;stroke-dasharray:1.35307088, 1.35307088;stroke-linecap:round;stroke-linejoin:round;stroke-width:.67654;stroke:#000"/><path d="m311.75-17.125v-40.825" style="fill:none;stroke-linecap:round;stroke-linejoin:round;stroke-width:.67654;stroke:#000"/><path d="m332.96-17.125v-40.825" style="fill:none;stroke-linecap:round;stroke-linejoin:round;stroke-width:.67654;stroke:#000"/></g><g transform="translate(380.7 19.776)"><ellipse cx="22.743" cy="-63.522" rx="13.199" ry="13.469" style="fill:#1f638a;stroke-linecap:round;stroke-linejoin:round;stroke-width:1.0658"/><text x="15.727596" y="-55.886776" style="fill:#000000;font-family:'Arial Nova', 'Arial Unicode MS', 'Yu Gothic UI', sans-serif;font-size:12.8px;letter-spacing:0px;line-height:0%;stroke-width:1.0667;word-spacing:0px" xml:space="preserve"><tspan x="15.727596" y="-55.886776" style="fill:#ffffff;font-family:'Arial Nova', 'Arial Unicode MS', 'Yu Gothic UI', sans-serif;font-size:21.333px;line-height:1.25;stroke-linecap:round;stroke-linejoin:round;stroke-width:1.0658;stroke:#ffffff">D</tspan></text></g></g></svg>
