<?xml version="1.0" encoding="UTF-8"?>
<svg width="18cm" height="6cm" version="1.1" xmlns="http://www.w3.org/2000/svg" xmlns:osb="http://www.openswatchbook.org/uri/2009/osb" xmlns:xlink="http://www.w3.org/1999/xlink">
 <defs>
  <pattern id="pattern11834" patternTransform="matrix(.024181 .032378 -.55604 .41528 726.06 54.167)" xlink:href="#Strips1_64"/>
  <pattern id="Strips1_64" width="65" height="1" patternTransform="translate(0) scale(10)" patternUnits="userSpaceOnUse">
   <rect y="-.5" width="1" height="2"/>
  </pattern>
  <linearGradient id="linearGradient10628-5-6-7">
   <stop style="stop-color:#fff" offset="0"/>
   <stop style="stop-color:#67977f" offset="1"/>
  </linearGradient>
  <linearGradient id="linearGradient10297" x1="286.02" x2="381.52" y1="275.23" y2="275.23" gradientTransform="matrix(1.0667 0 0 1.0667 -19.018 -26.97)" gradientUnits="userSpaceOnUse">
   <stop style="stop-color:#fff" offset="0"/>
   <stop style="stop-color:#4fa68a" offset="1"/>
  </linearGradient>
  <linearGradient id="linearGradient10301" x1="286.02" x2="381.52" y1="275.23" y2="275.23" gradientTransform="matrix(1.0667 0 0 1.0667 -19.018 86.601)" gradientUnits="userSpaceOnUse">
   <stop style="stop-color:#fff" offset="0"/>
   <stop style="stop-color:#4fa68a" offset="1"/>
  </linearGradient>
  <linearGradient id="linearGradient10628-7-2-2-8">
   <stop style="stop-color:#fff" offset="0"/>
   <stop style="stop-color:#4fa68a" offset="1"/>
  </linearGradient>
  <linearGradient id="linearGradient10359" x1="674.96" x2="718.56" y1="76.283" y2="76.283" gradientTransform="matrix(1.0936 0 0 1.1077 -19.337 -3.6986)" gradientUnits="userSpaceOnUse" xlink:href="#linearGradient10628-7-2-2-8"/>
  <linearGradient id="linearGradient10359-7" x1="674.96" x2="718.56" y1="76.283" y2="76.283" gradientTransform="matrix(1.0936 0 0 1.1077 -19.337 -3.6986)" gradientUnits="userSpaceOnUse">
   <stop style="stop-color:#fff" offset="0"/>
   <stop style="stop-color:#4fa68a" offset="1"/>
  </linearGradient>
  <pattern id="pattern11834-2" patternTransform="matrix(.024181 .032378 -.55604 .41528 726.06 54.167)" xlink:href="#Strips1_64-2"/>
  <pattern id="Strips1_64-2" width="65" height="1" patternTransform="translate(0) scale(10)" patternUnits="userSpaceOnUse">
   <rect y="-.5" width="1" height="2"/>
  </pattern>
  <pattern id="pattern11834-3" patternTransform="matrix(.024181 .032378 -.55604 .41528 726.06 54.167)" xlink:href="#Strips1_64-7"/>
  <pattern id="Strips1_64-7" width="65" height="1" patternTransform="translate(0) scale(10)" patternUnits="userSpaceOnUse">
   <rect y="-.5" width="1" height="2"/>
  </pattern>
  <pattern id="pattern11834-2-2" patternTransform="matrix(.024181 .032378 -.55604 .41528 726.06 54.167)" xlink:href="#Strips1_64-2-0"/>
  <pattern id="Strips1_64-2-0" width="65" height="1" patternTransform="translate(0) scale(10)" patternUnits="userSpaceOnUse">
   <rect y="-.5" width="1" height="2"/>
  </pattern>
  <linearGradient id="linearGradient16141" x1="286.02" x2="381.52" y1="275.23" y2="275.23" gradientTransform="matrix(1.0667 0 0 1.0667 -225.53 88.02)" gradientUnits="userSpaceOnUse" xlink:href="#linearGradient10628-7-2-2-8"/>
  <linearGradient id="linearGradient16180" x1="286.02" x2="381.52" y1="275.23" y2="275.23" gradientTransform="matrix(1.0667 0 0 1.0667 -226.17 -27.886)" gradientUnits="userSpaceOnUse">
   <stop style="stop-color:#fff" offset="0"/>
   <stop style="stop-color:#4fa68a" offset="1"/>
  </linearGradient>
  <linearGradient id="linearGradient17554" x1="673.9" x2="718.56" y1="73.261" y2="73.261" gradientUnits="userSpaceOnUse" xlink:href="#linearGradient10628-5-6-7"/>
  <linearGradient id="linearGradient17565" x1="674.57" x2="717.89" y1="73.261" y2="73.261" gradientTransform="scale(1.0667)" gradientUnits="userSpaceOnUse" xlink:href="#linearGradient10628-5-6-7"/>
  <linearGradient id="linearGradient5375" x1="673.9" x2="718.56" y1="73.261" y2="73.261" gradientTransform="scale(1.0667)" gradientUnits="userSpaceOnUse" xlink:href="#linearGradient10628-5-6-7"/>
 </defs>
 <g transform="translate(0 -226.77)">
  <path d="m79.632 310.39h9.1795l4.5898-12.8h9.1795l4.5898 12.8h18.359l4.5898-12.8h9.1795l4.5897 12.8h9.1795v-53.744h-9.1795l-9.1795 12.8h-9.1795-9.1795-9.1795-9.1795l-9.1795-12.8h-9.1795z" style="color:#000000;fill-rule:evenodd;fill:url(#linearGradient16180);stroke-linecap:round;stroke-linejoin:round;stroke-width:1.4324;stroke:#67977f"/>
  <path d="m30.327 283.51h47.624" style="color:#000000;fill-rule:evenodd;fill:#f2f2f2;stroke-linecap:round;stroke-linejoin:round;stroke-width:3.7795;stroke:#4c748e"/>
  <rect x="229.8" y="243.16" width="191.21" height="76.839" style="color:#000000;fill:#f2f2f2"/>
  <path d="m286.79 311.3h9.1795l4.5898-12.8h9.1795l4.5898 12.8h18.359l4.5898-12.8h9.1795l4.5898 12.8h9.1795v-53.744h-9.1795l-9.1795 12.8h-9.1795-9.1795-9.1795-9.1795l-9.1795-12.8h-9.1795z" style="color:#000000;fill-rule:evenodd;fill:url(#linearGradient10297);stroke-linecap:round;stroke-linejoin:round;stroke-width:1.4324;stroke:#67977f"/>
  <rect x="229.8" y="362.62" width="191.21" height="76.839" style="color:#000000;fill:#f2f2f2"/>
  <path d="m286.79 424.87h9.1795l4.5898-12.8h9.1795l4.5898 12.8h18.359l4.5898-12.8h9.1795l4.5898 12.8h9.1795v-53.744h-9.1795l-9.1795 12.8h-9.1795-9.1795-9.1795-9.1795l-9.1795-12.8h-9.1795z" style="color:#000000;fill-rule:evenodd;fill:url(#linearGradient10301);stroke-linecap:round;stroke-linejoin:round;stroke-width:1.4324;stroke:#67977f"/>
  <path d="m489.64 285.52h10.583 10.583 10.583 13.482l0.11945-29.536h13.158l9.2267 12.855 33.991 0.0229 9.1482-12.94 13.145 0.19291 0.0797 29.406h13.48 10.583 10.583 10.583" style="color:#000000;fill:none;stroke-linecap:round;stroke-linejoin:round;stroke-width:3.7795;stroke:#67977f"/>
  <path d="m489.64 399.09h10.583 34.734l-0.0478 29.455 13.641 0.0804 4.708-12.877 5.3519 0.0805 4.6276 12.764h22.132l4.5471-12.845h5.5933l4.5471 12.877h13.561l0.0326-29.536h34.734 10.583" style="color:#000000;fill:none;stroke-linecap:round;stroke-linejoin:round;stroke-width:3.7795;stroke:#67977f"/>
  <path d="m80.275 426.29h9.1795l4.5898-12.8h9.1795l4.5898 12.8h18.359l4.5898-12.8h9.1795l4.5898 12.8h9.1795v-53.744h-9.1795l-9.1795 12.8h-9.1795-9.1795-9.1795-9.1795l-9.1795-12.8h-9.1795z" style="color:#000000;fill-rule:evenodd;fill:url(#linearGradient16141);stroke-linecap:round;stroke-linejoin:round;stroke-width:1.4324;stroke:#67977f"/>
  <path d="m30.973 399.42h47.781" style="color:#000000;fill-rule:evenodd;fill:#f2f2f2;stroke-linecap:round;stroke-linejoin:round;stroke-width:3.7795;stroke:#4c748e"/>
  <g transform="translate(-481.85 188.27)">
   <path d="m719.54 65.434c7.7015 5.772 15.223 8.507 23.104 0 9.7834-10.559 15.954-2.5367 23.104 0v30.73h-46.209z" style="color:#000000;fill:url(#linearGradient10359);stroke-linecap:round;stroke-linejoin:round;stroke-width:1.4324;stroke:#67977f"/>
   <path d="m719.54 65.434c7.7015 5.772 15.223 8.507 23.104 0 9.7834-10.559 15.954-2.5367 23.104 0v30.73h-46.209z" style="color:#000000;fill:url(#pattern11834);opacity:.49821;stroke-width:1.4324;stroke:url(#linearGradient17565)"/>
  </g>
  <g transform="translate(-356.76 188.31)">
   <path d="m719.54 65.434c7.7015 5.772 15.223 8.507 23.104 0 9.7834-10.559 15.954-2.5367 23.104 0v30.73h-46.209z" style="color:#000000;fill:url(#linearGradient10359-7);stroke-linecap:round;stroke-linejoin:round;stroke-width:1.4324;stroke:#67977f"/>
   <path d="m719.54 65.434c7.7015 5.772 15.223 8.507 23.104 0 9.7834-10.559 15.954-2.5367 23.104 0v30.73h-46.209z" style="color:#000000;fill:url(#pattern11834-2);opacity:.49821;stroke-width:1.4324;stroke:url(#linearGradient17565)"/>
  </g>
  <path d="m238.84 284.43h10.583 10.583 10.583 13.482l0.11946-29.536h13.158l9.2267 12.855 33.991 0.0228 9.1482-12.94 13.145 0.19291 0.0797 29.406h13.48 10.583 10.583 10.583" style="color:#000000;fill:none;stroke-linecap:round;stroke-linejoin:round;stroke-width:3.7795;stroke:#67977f"/>
  <g transform="matrix(1 0 0 -1 -481.85 493.93)" style="stroke:url(#linearGradient17554)">
   <path d="m719.54 65.434c7.7015 5.772 15.223 8.507 23.104 0 9.7834-10.559 15.954-2.5367 23.104 0v30.73h-46.209z" style="color:#000000;fill:url(#linearGradient10359-7);stroke-linecap:round;stroke-linejoin:round;stroke-width:1.4324;stroke:url(#linearGradient5375)"/>
   <path d="m719.54 65.434c7.7015 5.772 15.223 8.507 23.104 0 9.7834-10.559 15.954-2.5367 23.104 0v30.73h-46.209z" style="color:#000000;fill:url(#pattern11834-3);opacity:.49821;stroke-width:1.4324;stroke:url(#linearGradient5375)"/>
  </g>
  <g transform="matrix(1 0 0 -1 -356.76 493.89)" style="stroke:url(#linearGradient17554)">
   <path d="m719.54 65.434c7.7015 5.772 15.223 8.507 23.104 0 9.7834-10.559 15.954-2.5367 23.104 0v30.73h-46.209z" style="color:#000000;fill:url(#linearGradient10359-7);stroke-linecap:round;stroke-linejoin:round;stroke-width:1.4324;stroke:url(#linearGradient5375)"/>
   <path d="m719.54 65.434c7.7015 5.772 15.223 8.507 23.104 0 9.7834-10.559 15.954-2.5367 23.104 0v30.73h-46.209z" style="color:#000000;fill:url(#pattern11834-2-2);opacity:.49821;stroke-width:1.4324;stroke:url(#linearGradient5375)"/>
  </g>
  <path d="m238.84 398h10.583 34.734l-0.0478 29.455 13.641 0.0804 4.708-12.877 5.3519 0.0805 4.6276 12.764h22.132l4.5471-12.845h5.5933l4.5471 12.877h13.561l0.0326-29.536h34.734 10.583" style="color:#000000;fill:none;stroke-linecap:round;stroke-linejoin:round;stroke-width:3.7795;stroke:#67977f"/>
  <path d="m155.39 399.42h47.624" style="color:#000000;fill-rule:evenodd;fill:#f2f2f2;stroke-linecap:round;stroke-linejoin:round;stroke-width:3.7795;stroke:#4c748e"/>
  <g transform="translate(-494.65 239.47)">
   <path d="m548.64 139.67 0.2125 19.01" style="fill:#f00;stroke-linecap:round;stroke-linejoin:round;stroke-width:.94488;stroke:#f00"/>
   <path d="m548.63 134.05 4.3849 12.505-8.7608 0.13587z" style="fill:#f00;stroke-linecap:round;stroke-linejoin:round;stroke-width:1.0658;stroke:#f00"/>
   <ellipse transform="matrix(-.037301 -.9993 .99947 -.032652 0 0)" cx="-177.78" cy="542.46" rx="1.2735" ry="1.2731" style="fill:#f00;stroke-linecap:round;stroke-linejoin:round;stroke-width:1.2329;stroke:#f00"/>
   <g transform="translate(125.87 3.2737e-6)">
    <path d="m548.64 139.67 0.2125 19.01" style="fill:#f00;stroke-linecap:round;stroke-linejoin:round;stroke-width:.94488;stroke:#f00"/>
    <path d="m548.63 134.05 4.3849 12.505-8.7608 0.13587z" style="fill:#f00;stroke-linecap:round;stroke-linejoin:round;stroke-width:1.0658;stroke:#f00"/>
    <ellipse transform="matrix(-.037301 -.9993 .99947 -.032652 0 0)" cx="-177.78" cy="542.46" rx="1.2735" ry="1.2731" style="fill:#f00;stroke-linecap:round;stroke-linejoin:round;stroke-width:1.2329;stroke:#f00"/>
   </g>
  </g>
  <path d="m154.75 283.51h47.624" style="color:#000000;fill-rule:evenodd;fill:#f2f2f2;stroke-linecap:round;stroke-linejoin:round;stroke-width:3.7795;stroke:#4c748e"/>
  <g transform="matrix(1 0 0 -1 -494.65 443.4)">
   <path d="m548.64 139.67 0.2125 19.01" style="fill:#f00;stroke-linecap:round;stroke-linejoin:round;stroke-width:.94488;stroke:#f00"/>
   <path d="m548.63 134.05 4.3849 12.505-8.7608 0.13587z" style="fill:#f00;stroke-linecap:round;stroke-linejoin:round;stroke-width:1.0658;stroke:#f00"/>
   <ellipse transform="matrix(-.037301 -.9993 .99947 -.032652 0 0)" cx="-177.78" cy="542.46" rx="1.2735" ry="1.2731" style="fill:#f00;stroke-linecap:round;stroke-linejoin:round;stroke-width:1.2329;stroke:#f00"/>
   <g transform="translate(125.87 3.2737e-6)">
    <path d="m548.64 139.67 0.2125 19.01" style="fill:#f00;stroke-linecap:round;stroke-linejoin:round;stroke-width:.94488;stroke:#f00"/>
    <path d="m548.63 134.05 4.3849 12.505-8.7608 0.13587z" style="fill:#f00;stroke-linecap:round;stroke-linejoin:round;stroke-width:1.0658;stroke:#f00"/>
    <ellipse transform="matrix(-.037301 -.9993 .99947 -.032652 0 0)" cx="-177.78" cy="542.46" rx="1.2735" ry="1.2731" style="fill:#f00;stroke-linecap:round;stroke-linejoin:round;stroke-width:1.2329;stroke:#f00"/>
   </g>
  </g>
  <path d="m454.71 279.4 9.9675 6.2408-9.9675 6.2408z" style="fill:#1f638a;stroke-linecap:round;stroke-linejoin:round;stroke-width:.37795;stroke:#1f638a"/>
  <rect x="444.41" y="282.79" width="11.439" height="5.7059" style="fill:#1f638a;stroke-linecap:round;stroke-linejoin:round;stroke-width:.37795;stroke:#1f638a"/>
  <path d="m452.78 393.36 9.9675 6.2408-9.9675 6.2408z" style="fill:#1f638a;stroke-linecap:round;stroke-linejoin:round;stroke-width:.37795;stroke:#1f638a"/>
  <rect x="442.48" y="396.75" width="11.439" height="5.7059" style="fill:#1f638a;stroke-linecap:round;stroke-linejoin:round;stroke-width:.37795;stroke:#1f638a"/>
 </g>
</svg>
