<?xml version="1.0" encoding="UTF-8"?>
<svg width="18cm" height="7cm" version="1.1" xmlns="http://www.w3.org/2000/svg" xmlns:osb="http://www.openswatchbook.org/uri/2009/osb">
 <g transform="translate(0 -188.98)">
  <g transform="translate(-.98347 88.051)">
   <g transform="translate(-826.88 42.885)">
    <ellipse cx="988.73" cy="286.32" rx="13.199" ry="13.469" style="fill:#1f638a;stroke-linecap:round;stroke-linejoin:round;stroke-width:1.0658"/>
    <text x="982.88611" y="293.98578" style="fill:#000000;font-family:'Arial Nova', 'Arial Unicode MS', 'Yu Gothic UI', sans-serif;font-size:12.8px;letter-spacing:0px;line-height:0%;stroke-width:1.0667;word-spacing:0px" xml:space="preserve"><tspan x="982.88611" y="293.98578" style="fill:#ffffff;font-family:'Arial Nova', 'Arial Unicode MS', 'Yu Gothic UI', sans-serif;font-size:21.333px;font-weight:bold;stroke-width:1.0667">1</tspan></text>
   </g>
   <text x="95.675034" y="335.38812" style="fill:#000000;font-family:'Arial Nova', 'Arial Unicode MS', 'Yu Gothic UI', sans-serif;font-size:12.8px;letter-spacing:0px;line-height:0%;stroke-width:1.0667;stroke:#ff0000;word-spacing:0px" xml:space="preserve"><tspan x="95.675034" y="335.38812" style="font-family:'Arial Nova', 'Arial Unicode MS', 'Yu Gothic UI', sans-serif;stroke-width:1.0667">1</tspan></text>
   <text x="204.95226" y="235.80515" style="fill:#000000;font-family:'Arial Nova', 'Arial Unicode MS', 'Yu Gothic UI', sans-serif;font-size:12.8px;letter-spacing:0px;line-height:0%;stroke-width:1.0667;stroke:#ff0000;word-spacing:0px" xml:space="preserve"><tspan x="204.95226" y="235.80515" style="font-family:'Arial Nova', 'Arial Unicode MS', 'Yu Gothic UI', sans-serif;stroke-width:1.0667">2</tspan></text>
   <text x="299.8511" y="166.30989" style="fill:#000000;font-family:'Arial Nova', 'Arial Unicode MS', 'Yu Gothic UI', sans-serif;font-size:12.8px;letter-spacing:0px;line-height:0%;stroke-width:1.0667;stroke:#ff0000;word-spacing:0px" xml:space="preserve"><tspan x="299.8511" y="166.30989" style="font-family:'Arial Nova', 'Arial Unicode MS', 'Yu Gothic UI', sans-serif;stroke-width:1.0667">3</tspan></text>
   <text x="208.17874" y="125.78242" style="fill:#000000;font-family:'Arial Nova', 'Arial Unicode MS', 'Yu Gothic UI', sans-serif;font-size:12.8px;letter-spacing:0px;line-height:0%;stroke-width:1.0667;stroke:#ff0000;word-spacing:0px" xml:space="preserve"><tspan x="208.17874" y="125.78242" style="font-family:'Arial Nova', 'Arial Unicode MS', 'Yu Gothic UI', sans-serif;stroke-width:1.0667">4</tspan></text>
   <text x="119.17004" y="152.86327" style="fill:#000000;font-family:'Arial Nova', 'Arial Unicode MS', 'Yu Gothic UI', sans-serif;font-size:12.8px;letter-spacing:0px;line-height:0%;stroke-width:1.0667;stroke:#ff0000;word-spacing:0px" xml:space="preserve"><tspan x="119.17004" y="152.86327" style="font-family:'Arial Nova', 'Arial Unicode MS', 'Yu Gothic UI', sans-serif;stroke-width:1.0667">5</tspan></text>
   <text x="80.774376" y="209.67496" style="fill:#000000;font-family:'Arial Nova', 'Arial Unicode MS', 'Yu Gothic UI', sans-serif;font-size:12.8px;letter-spacing:0px;line-height:0%;stroke-width:1.0667;stroke:#ff0000;word-spacing:0px" xml:space="preserve"><tspan x="80.774376" y="209.67496" style="font-family:'Arial Nova', 'Arial Unicode MS', 'Yu Gothic UI', sans-serif;stroke-width:1.0667">6</tspan></text>
   <text x="30.839479" y="260.90494" style="fill:#000000;font-family:'Arial Nova', 'Arial Unicode MS', 'Yu Gothic UI', sans-serif;font-size:12.8px;letter-spacing:0px;line-height:0%;stroke-width:1.0667;stroke:#ff0000;word-spacing:0px" xml:space="preserve"><tspan x="30.839479" y="260.90494" style="font-family:'Arial Nova', 'Arial Unicode MS', 'Yu Gothic UI', sans-serif;stroke-width:1.0667">7</tspan></text>
   <text x="120.22932" y="261.82437" style="fill:#000000;font-family:'Arial Nova', 'Arial Unicode MS', 'Yu Gothic UI', sans-serif;font-size:12.8px;letter-spacing:0px;line-height:0%;stroke-width:1.0667;stroke:#ff0000;word-spacing:0px" xml:space="preserve"><tspan x="120.22932" y="261.82437" style="font-family:'Arial Nova', 'Arial Unicode MS', 'Yu Gothic UI', sans-serif;stroke-width:1.0667">8</tspan></text>
   <text x="24.325895" y="346.89703" style="fill:#000000;font-family:'Arial Nova', 'Arial Unicode MS', 'Yu Gothic UI', sans-serif;font-size:12.8px;letter-spacing:0px;line-height:0%;stroke-width:1.0667;stroke:#ff0000;word-spacing:0px" xml:space="preserve"><tspan x="24.325895" y="346.89703" style="font-family:'Arial Nova', 'Arial Unicode MS', 'Yu Gothic UI', sans-serif;stroke-width:1.0667">9</tspan></text>
   <path d="m617.06 128.67a1.89 1.89 0 0 0-1.7226-1.0298c-39.804 0.65239-79.182 3.699-117.55 12.204a1.89 1.89 0 0 0-0.63871 0.28837l-64.847 43.211a1.89 1.89 0 0 0 0.75802 3.4674c5.3922 0.87311 8.2853 7.5191 9.1083 9.3492a1.89 1.89 0 0 0 0.0454 0.0891c1.4943 2.9466 0.98994 5.9164-1.5185 9.6424-2.5084 3.726-7.109 7.8647-13.127 12.12-12.035 8.5102-29.802 17.538-48.48 26.22a1.89 1.89 0 0 0-0.87425 2.5412l7.8595 15.412a1.89 1.89 0 0 0 2.3328 0.90573c13.31-4.9375 32.221-12.304 49.133-15.328 8.4557-1.5121 16.389-1.9015 22.76-0.49396 6.3597 1.4049 11.096 4.4552 13.885 10.131 5e-3 0.0107 0.0107 0.019 0.0152 0.0297 1.0333 2.2 1.1162 4.2883 0.32116 6.6462-0.79886 2.3694-2.5721 4.983-5.2012 7.7038-5.2582 5.4416-13.942 11.266-24.565 17.205-21.246 11.878-50.181 24.269-75.515 36.528a1.89 1.89 0 0 0-0.87426 2.5412l11.418 22.39a1.89 1.89 0 0 0 2.511 0.81487c33.061-16.676 78.018-38.467 101.81-44.101a1.89 1.89 0 0 0 1.0495-3.0048c-5.8759-7.552-6.8203-17.604-2.7174-28.661 4.1029-11.057 13.336-22.986 27.655-33.598 28.637-21.224 77.525-37.177 145.52-31.255a1.89 1.89 0 0 0 1.8566-2.7428l-40.403-79.226zm-2.84 2.7954 38.374 75.247c-66.956-5.1629-115.7 10.603-144.77 32.144-14.78 10.954-24.502 23.383-28.938 35.337-4.0648 10.954-3.551 21.609 1.7591 30.01-24.843 6.5401-66.476 26.804-98.362 42.866l-9.6768-18.975c24.81-11.936 52.906-24.039 73.97-35.815 10.772-6.0222 19.699-11.927 25.454-17.883 2.8776-2.978 4.9976-5.977 6.0546-9.1119 1.057-3.1349 0.97257-6.4599-0.47818-9.5222-3.3159-6.7776-9.3583-10.617-16.51-12.197-7.1519-1.5799-15.484-1.0718-24.221 0.49067-16.883 3.0192-35.038 10.024-48.212 14.933l-6.224-12.205c18.077-8.4499 35.306-17.168 47.336-25.674 6.2189-4.3974 11.089-8.7226 14.043-13.111 2.9332-4.357 3.9003-9.1084 1.787-13.371-6e-3 -0.014-0.0385-0.0735-0.0454-0.0891-0.54344-1.2319-2.9291-7.2143-8.1302-10.073l61.422-40.977c37.563-8.2999 76.209-11.334 115.36-12.023z" style="color:#000000;fill:#fff;stroke-width:.75591;stroke:#000;text-decoration-line:none;text-indent:0;text-transform:none"/>
   <text x="553.2984" y="234.42282" style="fill:#000000;font-family:'Arial Nova', 'Arial Unicode MS', 'Yu Gothic UI', sans-serif;font-size:12.8px;letter-spacing:0px;line-height:0%;stroke-width:1.0667;stroke:#000000;word-spacing:0px" xml:space="preserve"><tspan x="553.2984" y="234.42282" style="font-family:'Arial Nova', 'Arial Unicode MS', 'Yu Gothic UI', sans-serif;stroke-width:1.0667">1</tspan></text>
   <g transform="matrix(.2917 0 0 .28875 286.01 196.85)" style="fill:#1f638a;stroke-linecap:round;stroke-linejoin:round;stroke-width:1.2209;stroke:#1f638a">
    <path d="m207.49 126.25 34.17 21.614-34.17 21.614z" style="fill:#1f638a;stroke-linecap:round;stroke-linejoin:round;stroke-width:1.3023;stroke:#1f638a"/>
    <rect x="172.19" y="137.99" width="39.213" height="19.761" style="fill:#1f638a;stroke-linecap:round;stroke-linejoin:round;stroke-width:1.3023;stroke:#1f638a"/>
   </g>
   <g transform="translate(-341.33)">
    <path d="m616.19 130.76 38.605 76.019" style="fill:none;stroke-linecap:round;stroke-linejoin:round;stroke-width:3.7795;stroke:#f00"/>
    <path d="m501.23 141.04c38.347-7.9069 72.209-10.635 111.93-11.675" style="fill:none;stroke-linecap:round;stroke-linejoin:round;stroke-width:3.7795;stroke:#f00"/>
    <path d="m437.75 182.33 59.508-40.13" style="fill:none;stroke-linecap:round;stroke-linejoin:round;stroke-width:3.7795;stroke:#f00"/>
    <path d="m381.16 245.49c37.257-17.764 70.039-36.072 62.563-50.466-0.73408-1.5905-3.9172-9.3333-10.634-10.354" style="fill:none;stroke-linecap:round;stroke-linejoin:round;stroke-width:3.7795;stroke:#f00"/>
    <path d="m387.3 260.35-5.4392-11.126" style="fill:none;stroke-linecap:round;stroke-linejoin:round;stroke-width:3.7795;stroke:#f00"/>
    <path d="m372.57 326.39c50.306-24.953 113.26-49.257 103.06-70.254-12.449-24.827-58.376-5.8988-84.837 4.2134" style="fill:none;stroke-linecap:round;stroke-linejoin:round;stroke-width:3.7795;stroke:#f00"/>
    <path d="m380.93 348.65-9.2942-18.759" style="fill:none;stroke-linecap:round;stroke-linejoin:round;stroke-width:3.7795;stroke:#f00"/>
    <path d="m479.66 306.42c-24.27 5.9985-62.547 24.986-95.464 41.995" style="fill:none;stroke-linecap:round;stroke-linejoin:round;stroke-width:3.7795;stroke:#f00"/>
    <path d="m651.53 208.41c-136.84-10.571-193.03 65.293-167.43 97.536" style="fill:none;stroke-linecap:round;stroke-linejoin:round;stroke-width:3.7795;stroke:#f00"/>
   </g>
   <path d="m125.98 335.21 6.2254-5.147 6.9023 14.13 6.2932-3.0742-6.9023-14.13 7.4287-1.523-19.542-14.716z" style="fill:#fff;stroke-linecap:round;stroke-linejoin:round;stroke-width:.75591;stroke:#000"/>
  </g>
 </g>
</svg>
