<?xml version="1.0" encoding="UTF-8"?>
<svg width="18cm" height="4cm" version="1.1" xmlns="http://www.w3.org/2000/svg" xmlns:xlink="http://www.w3.org/1999/xlink">
 <defs>
  <linearGradient id="linearGradient7513" x1="191.34" x2="188.23" y1="20.682" y2="176.73" gradientTransform="matrix(.34982 -.24593 .24598 .34974 -43.598 944.7)" gradientUnits="userSpaceOnUse">
   <stop style="stop-color:#ff8500" offset="0"/>
   <stop style="stop-color:#fff" offset="1"/>
  </linearGradient>
  <linearGradient id="linearGradient7518" x1="191.34" x2="158.53" y1="20.682" y2="351.55" gradientTransform="matrix(.34996 -.24598 .24608 .34982 46.58 940.62)" gradientUnits="userSpaceOnUse">
   <stop style="stop-color:#fff" offset="0"/>
   <stop style="stop-color:#808080" offset="1"/>
  </linearGradient>
  <linearGradient id="linearGradient7513-8" x1="191.34" x2="188.23" y1="20.682" y2="176.73" gradientTransform="matrix(.34982 -.24593 .24598 .34974 182.21 944.17)" gradientUnits="userSpaceOnUse" xlink:href="#linearGradient6218-7-4-0-5-2-09-8"/>
  <linearGradient id="linearGradient6218-7-4-0-5-2-09-8">
   <stop style="stop-color:#ff8500" offset="0"/>
   <stop style="stop-color:#fff" offset="1"/>
  </linearGradient>
  <linearGradient id="linearGradient8318" x1="137.32" x2="170.46" y1="344.05" y2="33.251" gradientTransform="matrix(.34996 -.24598 .24608 .34982 272.39 940.1)" gradientUnits="userSpaceOnUse" xlink:href="#linearGradient6218-7-4-0-5-2-09-8"/>
  <linearGradient id="linearGradient7513-1" x1="191.34" x2="343.93" y1="20.682" y2="902.4" gradientTransform="matrix(.34964 -.24593 .24585 .34974 395.69 944.46)" gradientUnits="userSpaceOnUse">
   <stop style="stop-color:#fff" offset="0"/>
   <stop style="stop-color:#00385e" offset="1"/>
  </linearGradient>
 </defs>
 <g transform="translate(0 -901.18)">
  <path d="m112.01 919.92h72.083l0.5757 97.672h-72.658z" style="fill:url(#linearGradient7518);stroke-linecap:round;stroke-linejoin:round;stroke-width:1.7717;stroke:#7d7d7d"/>
  <path d="m112.14 968.72h72.284" style="fill:none;stroke-linecap:round;stroke-linejoin:round;stroke-width:.63425;stroke:#7d7d7d"/>
  <path d="m112.1 945.62h72.23" style="fill:none;stroke-linecap:round;stroke-linejoin:round;stroke-width:.63425;stroke:#7d7d7d"/>
  <path d="m19.825 919.29h96.821l1e-5 97.652-65.791 20.391z" style="fill:url(#linearGradient7513);stroke-linecap:round;stroke-linejoin:round;stroke-width:1.7717;stroke:#7d7d7d"/>
  <path d="m27.689 950.69 88.453-5.2194" style="fill:none;stroke-width:.63425;stroke:#7d7d7d"/>
  <path d="m35.004 978.36 80.905-9.9653" style="fill:none;stroke-width:.63425;stroke:#7d7d7d"/>
  <path d="m42.731 1006.5 73.142-15.574" style="fill:none;stroke-width:.63425;stroke:#7d7d7d"/>
  <path d="m52.642 919.54 20.536 111.11" style="fill:none;stroke-width:.63425;stroke:#7d7d7d"/>
  <path d="m83.109 919.54 10.397 104.63" style="fill:none;stroke-width:.63425;stroke:#7d7d7d"/>
  <path d="m136.27 919.55v97.943" style="fill:none;stroke-width:.63425;stroke:#7d7d7d"/>
  <path d="m158.73 919.96v97.727" style="fill:none;stroke-width:.63425;stroke:#7d7d7d"/>
  <path d="m111.79 991.62 71.839-0.25762" style="fill:none;stroke-width:.63425;stroke:#7d7d7d"/>
  <path d="m337.82 919.4h72.083l0.57569 97.672h-72.658z" style="fill:url(#linearGradient8318);stroke-linecap:round;stroke-linejoin:round;stroke-width:1.7717;stroke:#7d7d7d"/>
  <path d="m337.95 968.19h72.284" style="fill:none;stroke-linecap:round;stroke-linejoin:round;stroke-width:.63425;stroke:#7d7d7d"/>
  <path d="m337.91 945.1h72.23" style="fill:none;stroke-linecap:round;stroke-linejoin:round;stroke-width:.63425;stroke:#7d7d7d"/>
  <path d="m245.64 918.77h96.821l1e-5 97.652-65.791 20.391z" style="fill:url(#linearGradient7513-8);stroke-linecap:round;stroke-linejoin:round;stroke-width:1.7717;stroke:#7d7d7d"/>
  <path d="m253.5 950.17 88.453-5.2194" style="fill:none;stroke-width:.63425;stroke:#7d7d7d"/>
  <path d="m260.81 977.84 80.905-9.9653" style="fill:none;stroke-width:.63425;stroke:#7d7d7d"/>
  <path d="m268.54 1005.9 73.142-15.574" style="fill:none;stroke-width:.63425;stroke:#7d7d7d"/>
  <path d="m278.45 919.02 20.536 111.11" style="fill:none;stroke-width:.63425;stroke:#7d7d7d"/>
  <path d="m308.92 919.02 10.397 104.63" style="fill:none;stroke-width:.63425;stroke:#7d7d7d"/>
  <path d="m362.08 919.03v97.943" style="fill:none;stroke-width:.63425;stroke:#7d7d7d"/>
  <path d="m384.55 919.44v97.727" style="fill:none;stroke-width:.63425;stroke:#7d7d7d"/>
  <path d="m337.85 991.07 71.839-0.25758" style="fill:none;stroke-width:.63425;stroke:#7d7d7d"/>
  <path d="m490.09 1037.1-31.014-118.04h169.55l0.57516 97.652h-72.973z" style="fill:url(#linearGradient7513-1);stroke-linecap:round;stroke-linejoin:round;stroke-width:1.772;stroke:#7d7d7d"/>
  <path d="m466.03 947.83h162.62" style="fill:none;stroke-width:.63425;stroke:#7d7d7d"/>
  <path d="m472.96 973.14h155.57" style="fill:none;stroke-width:.63425;stroke:#7d7d7d"/>
  <path d="m479.59 998.44h147.92" style="fill:none;stroke-width:.63425;stroke:#7d7d7d"/>
  <path d="m559.66 919.31v97.943" style="fill:none;stroke-width:.63425;stroke:#7d7d7d"/>
  <path d="m591.61 919.72v97.727" style="fill:none;stroke-width:.63425;stroke:#7d7d7d"/>
  <path d="m94.312 1026.9 6.2361-5.1509 6.9142 14.141 6.304-3.0766-6.9142-14.141 7.4414-1.5242-19.576-14.727z" style="fill:#fff;stroke-linecap:round;stroke-linejoin:round;stroke-width:.70866;stroke:#000"/>
  <g transform="matrix(.31132 0 0 .30838 158.72 933.01)" style="fill:#1f638a;stroke-linecap:round;stroke-linejoin:round;stroke-width:1.1436;stroke:#1f638a">
   <path d="m194.52 118.36 32.034 20.263-32.034 20.263z" style="fill:#1f638a;stroke-linecap:round;stroke-linejoin:round;stroke-width:1.1436;stroke:#1f638a"/>
   <rect x="161.43" y="129.36" width="36.762" height="18.526" style="fill:#1f638a;stroke-linecap:round;stroke-linejoin:round;stroke-width:1.1436;stroke:#1f638a"/>
  </g>
  <g transform="matrix(1.066 0 0 1.066 173.69 1118.8)" style="stroke-width:.93809">
   <ellipse transform="translate(-83.276 -276.9)" cx="41.164" cy="184.28" rx="12.374" ry="12.627" style="fill:#1f638a;stroke-linecap:round;stroke-linejoin:round;stroke-width:.93735"/>
   <text x="-47.588696" y="-85.430519" style="fill:#000000;font-family:'Arial Nova', 'Arial Unicode MS', 'Yu Gothic UI', sans-serif;letter-spacing:0px;line-height:0%;stroke-width:.93809;word-spacing:0px" xml:space="preserve"><tspan x="-47.588696" y="-85.430519" style="fill:#ffffff;font-family:'Arial Nova', 'Arial Unicode MS', 'Yu Gothic UI', sans-serif;font-size:20px;line-height:1.25;stroke-width:.93809;stroke:#ffffff">1</tspan></text>
  </g>
  <path d="m357.47 1026.7 6.2361-5.1509 6.9142 14.141 6.304-3.0766-6.9142-14.141 7.4414-1.5242-19.576-14.727z" style="fill:#fff;stroke-linecap:round;stroke-linejoin:round;stroke-width:.70866;stroke:#000"/>
  <g transform="matrix(1.066 0 0 1.066 436.84 1118.6)" style="stroke-width:.93809">
   <ellipse transform="translate(-83.276 -276.9)" cx="41.164" cy="184.28" rx="12.374" ry="12.627" style="fill:#1f638a;stroke-linecap:round;stroke-linejoin:round;stroke-width:.93735"/>
   <text x="-47.588696" y="-85.430519" style="fill:#000000;font-family:'Arial Nova', 'Arial Unicode MS', 'Yu Gothic UI', sans-serif;letter-spacing:0px;line-height:0%;stroke-width:.93809;word-spacing:0px" xml:space="preserve"><tspan x="-47.588696" y="-85.430519" style="fill:#ffffff;font-family:'Arial Nova', 'Arial Unicode MS', 'Yu Gothic UI', sans-serif;font-size:20px;line-height:1.25;stroke-width:.93809;stroke:#ffffff">1</tspan></text>
  </g>
  <g transform="matrix(.31132 0 0 .30838 378.61 933.01)" style="fill:#1f638a;stroke-linecap:round;stroke-linejoin:round;stroke-width:1.1436;stroke:#1f638a">
   <path d="m194.52 118.36 32.034 20.263-32.034 20.263z" style="fill:#1f638a;stroke-linecap:round;stroke-linejoin:round;stroke-width:1.1436;stroke:#1f638a"/>
   <rect x="161.43" y="129.36" width="36.762" height="18.526" style="fill:#1f638a;stroke-linecap:round;stroke-linejoin:round;stroke-width:1.1436;stroke:#1f638a"/>
  </g>
  <path d="m527.7 919.03v107.12" style="fill:none;stroke-width:.63425;stroke:#7d7d7d"/>
  <path d="m495.75 918.72v117.13" style="fill:none;stroke-width:.63425;stroke:#7d7d7d"/>
 </g>
</svg>
