<?xml version="1.0" encoding="UTF-8"?>
<svg width="18cm" height="9.5cm" version="1.1" xmlns="http://www.w3.org/2000/svg" xmlns:osb="http://www.openswatchbook.org/uri/2009/osb">
 <g transform="translate(0 -94.488)">
  <path d="m151.3 241.58c-54.687-34.277-91.466-0.94661-94.422 40.831-2.9556 41.778 32.741 107.23 76.558 134.4 19.854 12.313 90.851 26.879 92.721-36.578 1.336-45.355-20.17-104.38-74.857-138.66z" style="fill:none;stroke-dasharray:0.75590554, 2.2677166;stroke-linecap:round;stroke-linejoin:round;stroke-width:.75591;stroke:#7d7d7d"/>
  <path d="m138.33 283.36c-29.623-18.567-49.546-0.51275-51.147 22.118-1.601 22.63 17.736 58.084 41.47 72.804 10.755 6.6698 49.213 14.56 50.225-19.814 0.72369-24.568-10.926-56.54-40.549-75.108z" style="fill:none;stroke-dasharray:0.75590554, 2.2677166;stroke-linecap:round;stroke-linejoin:round;stroke-width:.75591;stroke:#7d7d7d"/>
  <path d="m119.58 297.87c-29.623-18.567-49.546-0.51276-51.147 22.118-1.601 22.63 17.736 58.084 41.47 72.804 10.755 6.6698 49.213 14.56 50.225-19.814 0.72371-24.568-10.926-56.54-40.549-75.108z" style="fill:none;stroke-dasharray:0.75590554, 2.2677166;stroke-linecap:round;stroke-linejoin:round;stroke-width:.75591;stroke:#7d7d7d"/>
  <path d="m92.723 329.41c-21.476-13.461-35.92-0.37173-37.081 16.035-1.1607 16.407 12.858 42.11 30.065 52.781 7.797 4.8355 35.678 10.556 36.412-14.364 0.52466-17.811-7.921-40.991-29.397-54.452z" style="fill:none;stroke-dasharray:0.75590554, 2.2677166;stroke-linecap:round;stroke-linejoin:round;stroke-width:.75591;stroke:#7d7d7d"/>
  <path d="m176.37 214.69c-62.949-39.456-105.29-1.0896-108.69 47-3.4021 48.09 37.688 123.43 88.125 154.71 22.854 14.173 104.58 30.94 106.73-42.104 1.5379-52.207-23.217-120.15-86.167-159.6z" style="fill:none;stroke-dasharray:0.75590554, 2.2677166;stroke-linecap:round;stroke-linejoin:round;stroke-width:.75591;stroke:#7d7d7d"/>
  <path d="m320.87 120.37c-62.949-39.456-105.29-1.0896-108.69 47-3.4021 48.09 37.688 123.43 88.125 154.71 22.854 14.173 104.58 30.94 106.73-42.104 1.5379-52.207-23.217-120.15-86.167-159.6z" style="fill:none;stroke-dasharray:0.75590554, 2.2677166;stroke-linecap:round;stroke-linejoin:round;stroke-width:.75591;stroke:#7d7d7d"/>
  <path d="m369.65 116.28c-41.69-26.131-69.729-0.72161-71.982 31.127-2.2532 31.849 24.96 81.745 58.364 102.46 15.136 9.3869 69.26 20.491 70.685-27.885 1.0185-34.576-15.376-79.572-57.067-105.7z" style="fill:none;stroke-dasharray:0.75590554, 2.2677166;stroke-linecap:round;stroke-linejoin:round;stroke-width:.75591;stroke:#7d7d7d"/>
  <path d="m82.208 364.96 39.204 25.362c23.132 10.316 50.339-0.97284 31.638-20.094l23.515-17.101 50.022 29.928c15.961 8.01 23.8 6.0262 35.058 0.42752l144.51-96.196-58.145-34.203 78.025-40.402-60.924-34.844" style="fill:none;stroke-linecap:round;stroke-linejoin:round;stroke-width:3.7795;stroke:#f00"/>
  <path d="m121.73 390.11c2.118-16.265-2.7125-47.657-35.076-63.938" style="fill:none;stroke-dasharray:3.77952754, 3.77952754;stroke-linecap:round;stroke-linejoin:round;stroke-width:.94488;stroke:#f00"/>
  <path d="m178.81 353.34c-2.3661-29.383-13.051-49.734-36.982-67.551" style="fill:none;stroke-dasharray:3.77952754, 3.77952754;stroke-linecap:round;stroke-linejoin:round;stroke-width:.94488;stroke:#f00"/>
  <path d="m225.73 382.62c3.6148-58.633-30.093-115.87-78.774-143.55" style="fill:none;stroke-dasharray:3.77952754, 3.77952754;stroke-linecap:round;stroke-linejoin:round;stroke-width:.94488;stroke:#f00"/>
  <path d="m262.29 383.05c3.3894-73.745-31.196-138.12-98.547-176.14" style="fill:none;stroke-dasharray:3.77952754, 3.77952754;stroke-linecap:round;stroke-linejoin:round;stroke-width:.94488;stroke:#f00"/>
  <path d="m407.22 287.5c1.7673-77.46-34.913-139.7-100.21-175.12" style="fill:none;stroke-dasharray:3.77952754, 3.77952754;stroke-linecap:round;stroke-linejoin:round;stroke-width:.94488;stroke:#f00"/>
  <path d="m426.67 212.89c-3.517-45.863-27.747-78.666-56.862-96.196" style="fill:none;stroke-dasharray:3.77952754, 3.77952754;stroke-linecap:round;stroke-linejoin:round;stroke-width:.94488;stroke:#f00"/>
  <path d="m81.803 363.91 5.1304-40.616c1.5612-12.767 8.4959-20.649 16.246-27.79 6.108-4.0651 12.562-1.9095 19.239 4.2754l19.239-13.681 5.558-49.167c0.80479-12.13 6.891-22.5 17.957-31.21l141.69-93.401" style="fill:none;stroke-dasharray:4.26666641, 4.26666641;stroke-linecap:round;stroke-linejoin:round;stroke-width:1.0667;stroke:#f00"/>
  <path d="m344.04 137.79 25.767-20.99" style="fill:none;stroke-dasharray:4.26666641, 4.26666641;stroke-width:1.0667;stroke:#f00"/>
  <path d="m159.72 364.81c-2.5272-31.154-17.226-51.073-39.064-66.404" style="fill:none;stroke-dasharray:3.77952729, 3.77952729;stroke-linecap:round;stroke-linejoin:round;stroke-width:.94488;stroke:#f00"/>
  <path d="m80.922 365.22-26.632-19.364c-8.1784-5.9465 0.65728-20.53 7.1644-29.729-10.393-39.751-0.4393-80.224 31.983-106.57l142.21-92.607" style="fill:none;stroke-dasharray:0.75590554, 2.2677166;stroke-linecap:round;stroke-linejoin:round;stroke-width:.75591;stroke:#7d7d7d"/>
  <path d="m298.29 220.97 67.424-44.651" style="fill:none;stroke-linecap:round;stroke-linejoin:round;stroke-width:.94488;stroke:#f00"/>
  <path d="m315.53 348.55c1.7673-77.46-34.913-139.7-100.21-175.12" style="fill:none;stroke-linecap:round;stroke-linejoin:round;stroke-width:.94488;stroke:#000"/>
  <path d="m315.52 344.92-4.1905-12.571h8.7619z" style="stroke-linecap:round;stroke-linejoin:round;stroke-width:1.0658;stroke:#000"/>
  <path d="m215.71 174.18 13.004 2.5474-4.317 7.6246z" style="stroke-linecap:round;stroke-linejoin:round;stroke-width:1.0658;stroke:#000"/>
  <path d="m297.37 221.93 12.736-3.6594-4.9585-7.2239z" style="fill:#f00;stroke-linecap:round;stroke-linejoin:round;stroke-width:1.0658;stroke:#f00"/>
  <g transform="translate(-491.78 158.84)">
   <ellipse cx="775.16" cy="269.59" rx="13.199" ry="13.469" style="fill:#1f638a;stroke-linecap:round;stroke-linejoin:round;stroke-width:1.0658"/>
   <text x="769.24432" y="277.12357" style="fill:#000000;font-family:'Arial Nova', 'Arial Unicode MS', 'Yu Gothic UI', sans-serif;font-size:12.8px;letter-spacing:0px;line-height:0%;stroke-width:1.0667;word-spacing:0px" xml:space="preserve"><tspan x="769.24432" y="277.12357" style="fill:#ffffff;font-family:'Arial Nova', 'Arial Unicode MS', 'Yu Gothic UI', sans-serif;font-size:21.333px;font-weight:bold;stroke-width:1.0667">1</tspan></text>
  </g>
  <g transform="translate(-692.22 -238.28)">
   <ellipse cx="966.69" cy="491.73" rx="13.199" ry="13.469" style="fill:#1f638a;stroke-linecap:round;stroke-linejoin:round;stroke-width:1.0658"/>
   <text x="960.80878" y="499.3985" style="fill:#000000;font-family:'Arial Nova', 'Arial Unicode MS', 'Yu Gothic UI', sans-serif;font-size:12.8px;letter-spacing:0px;line-height:0%;stroke-width:1.0667;word-spacing:0px" xml:space="preserve"><tspan x="960.80878" y="499.3985" style="fill:#ffffff;font-family:'Arial Nova', 'Arial Unicode MS', 'Yu Gothic UI', sans-serif;font-size:21.333px;font-weight:bold;stroke-width:1.0667">4</tspan></text>
  </g>
  <ellipse transform="rotate(-2)" cx="358.34" cy="189.81" rx="4.0406" ry="3.7795" style="fill:#f00;stroke-linecap:round;stroke-linejoin:round;stroke-width:3.7837;stroke:#f00"/>
  <text x="271.00146" y="397.71939" style="fill:#000000;font-family:'Arial Nova', 'Arial Unicode MS', 'Yu Gothic UI', sans-serif;font-size:12.8px;letter-spacing:0px;line-height:0%;stroke-width:1.0667;stroke:#000000;word-spacing:0px" xml:space="preserve"><tspan x="271.00146" y="397.71939" style="font-family:'Arial Nova', 'Arial Unicode MS', 'Yu Gothic UI', sans-serif;stroke-width:1.0667">0째</tspan></text>
  <text x="110.15237" y="430.41751" style="fill:#000000;font-family:'Arial Nova', 'Arial Unicode MS', 'Yu Gothic UI', sans-serif;font-size:12.8px;letter-spacing:0px;line-height:0%;stroke-width:1.0667;stroke:#000000;word-spacing:0px" xml:space="preserve"><tspan x="110.15237" y="430.41751" style="font-family:'Arial Nova', 'Arial Unicode MS', 'Yu Gothic UI', sans-serif;stroke-width:1.0667">270째</tspan></text>
  <text x="24.992897" y="282.93842" style="fill:#000000;font-family:'Arial Nova', 'Arial Unicode MS', 'Yu Gothic UI', sans-serif;font-size:12.8px;letter-spacing:0px;line-height:0%;stroke-width:1.0667;stroke:#000000;word-spacing:0px" xml:space="preserve"><tspan x="24.992897" y="282.93842" style="font-family:'Arial Nova', 'Arial Unicode MS', 'Yu Gothic UI', sans-serif;stroke-width:1.0667">180째</tspan></text>
  <text x="157.83994" y="225.65736" style="fill:#000000;font-family:'Arial Nova', 'Arial Unicode MS', 'Yu Gothic UI', sans-serif;font-size:12.8px;letter-spacing:0px;line-height:0%;stroke-width:1.0667;stroke:#000000;word-spacing:0px" xml:space="preserve"><tspan x="157.83994" y="225.65736" style="font-family:'Arial Nova', 'Arial Unicode MS', 'Yu Gothic UI', sans-serif;stroke-width:1.0667">90째</tspan></text>
  <g transform="translate(-617.85 -198.76)">
   <ellipse cx="982.02" cy="399.69" rx="13.199" ry="13.469" style="fill:#1f638a;stroke-linecap:round;stroke-linejoin:round;stroke-width:1.0658"/>
   <text x="976.14124" y="407.22528" style="fill:#000000;font-family:'Arial Nova', 'Arial Unicode MS', 'Yu Gothic UI', sans-serif;font-size:12.8px;letter-spacing:0px;line-height:0%;stroke-width:1.0667;word-spacing:0px" xml:space="preserve"><tspan x="976.14124" y="407.22528" style="fill:#ffffff;font-family:'Arial Nova', 'Arial Unicode MS', 'Yu Gothic UI', sans-serif;font-size:21.333px;font-weight:bold;stroke-width:1.0667">3</tspan></text>
  </g>
  <g transform="translate(-875.17 32.541)">
   <ellipse cx="1175.2" cy="160.16" rx="13.199" ry="13.469" style="fill:#1f638a;stroke-linecap:round;stroke-linejoin:round;stroke-width:1.0658"/>
   <text x="1169.625" y="167.8232" style="fill:#000000;font-family:'Arial Nova', 'Arial Unicode MS', 'Yu Gothic UI', sans-serif;font-size:12.8px;letter-spacing:0px;line-height:0%;stroke-width:1.0667;word-spacing:0px" xml:space="preserve"><tspan x="1169.625" y="167.8232" style="fill:#ffffff;font-family:'Arial Nova', 'Arial Unicode MS', 'Yu Gothic UI', sans-serif;font-size:21.333px;font-weight:bold;stroke-width:1.0667">2</tspan></text>
  </g>
  <text x="92.740578" y="392.5098" style="fill:#ff0000;font-family:'Arial Nova', 'Arial Unicode MS', 'Yu Gothic UI', sans-serif;font-size:12.8px;letter-spacing:0px;line-height:0%;stroke-width:1.0667;stroke:#ff0000;word-spacing:0px" xml:space="preserve"><tspan x="92.740578" y="392.5098" style="font-family:'Arial Nova', 'Arial Unicode MS', 'Yu Gothic UI', sans-serif;stroke-width:1.0667">1</tspan></text>
  <text x="147.80061" y="405.332" style="fill:#ff0000;font-family:'Arial Nova', 'Arial Unicode MS', 'Yu Gothic UI', sans-serif;font-size:12.8px;letter-spacing:0px;line-height:0%;stroke-width:1.0667;stroke:#ff0000;word-spacing:0px" xml:space="preserve"><tspan x="147.80061" y="405.332" style="font-family:'Arial Nova', 'Arial Unicode MS', 'Yu Gothic UI', sans-serif;stroke-width:1.0667">2</tspan></text>
  <text x="167.41107" y="372.89938" style="fill:#ff0000;font-family:'Arial Nova', 'Arial Unicode MS', 'Yu Gothic UI', sans-serif;font-size:12.8px;letter-spacing:0px;line-height:0%;stroke-width:1.0667;stroke:#ff0000;word-spacing:0px" xml:space="preserve"><tspan x="167.41107" y="372.89938" style="font-family:'Arial Nova', 'Arial Unicode MS', 'Yu Gothic UI', sans-serif;stroke-width:1.0667">3</tspan></text>
  <text x="198.33519" y="384.96732" style="fill:#ff0000;font-family:'Arial Nova', 'Arial Unicode MS', 'Yu Gothic UI', sans-serif;font-size:12.8px;letter-spacing:0px;line-height:0%;stroke-width:1.0667;stroke:#ff0000;word-spacing:0px" xml:space="preserve"><tspan x="198.33519" y="384.96732" style="font-family:'Arial Nova', 'Arial Unicode MS', 'Yu Gothic UI', sans-serif;stroke-width:1.0667">4</tspan></text>
  <text x="237.55606" y="404.57776" style="fill:#ff0000;font-family:'Arial Nova', 'Arial Unicode MS', 'Yu Gothic UI', sans-serif;font-size:12.8px;letter-spacing:0px;line-height:0%;stroke-width:1.0667;stroke:#ff0000;word-spacing:0px" xml:space="preserve"><tspan x="237.55606" y="404.57776" style="font-family:'Arial Nova', 'Arial Unicode MS', 'Yu Gothic UI', sans-serif;stroke-width:1.0667">5</tspan></text>
  <text x="343.90491" y="349.5177" style="fill:#ff0000;font-family:'Arial Nova', 'Arial Unicode MS', 'Yu Gothic UI', sans-serif;font-size:12.8px;letter-spacing:0px;line-height:0%;stroke-width:1.0667;stroke:#ff0000;word-spacing:0px" xml:space="preserve"><tspan x="343.90491" y="349.5177" style="font-family:'Arial Nova', 'Arial Unicode MS', 'Yu Gothic UI', sans-serif;stroke-width:1.0667">6</tspan></text>
  <text x="368.04083" y="284.65244" style="fill:#ff0000;font-family:'Arial Nova', 'Arial Unicode MS', 'Yu Gothic UI', sans-serif;font-size:12.8px;letter-spacing:0px;line-height:0%;stroke-width:1.0667;stroke:#ff0000;word-spacing:0px" xml:space="preserve"><tspan x="368.04083" y="284.65244" style="font-family:'Arial Nova', 'Arial Unicode MS', 'Yu Gothic UI', sans-serif;stroke-width:1.0667">7</tspan></text>
  <text x="379.35452" y="249.95706" style="fill:#ff0000;font-family:'Arial Nova', 'Arial Unicode MS', 'Yu Gothic UI', sans-serif;font-size:12.8px;letter-spacing:0px;line-height:0%;stroke-width:1.0667;stroke:#ff0000;word-spacing:0px" xml:space="preserve"><tspan x="379.35452" y="249.95706" style="font-family:'Arial Nova', 'Arial Unicode MS', 'Yu Gothic UI', sans-serif;stroke-width:1.0667">8</tspan></text>
  <text x="400.47348" y="189.61728" style="fill:#ff0000;font-family:'Arial Nova', 'Arial Unicode MS', 'Yu Gothic UI', sans-serif;font-size:12.8px;letter-spacing:0px;line-height:0%;stroke-width:1.0667;stroke:#ff0000;word-spacing:0px" xml:space="preserve"><tspan x="400.47348" y="189.61728" style="font-family:'Arial Nova', 'Arial Unicode MS', 'Yu Gothic UI', sans-serif;stroke-width:1.0667">9</tspan></text>
  <text x="321.38788" y="177.86786" style="fill:#000000;font-family:'Arial Nova', 'Arial Unicode MS', 'Yu Gothic UI', sans-serif;font-size:12.8px;letter-spacing:0px;line-height:0%;stroke-width:1.0667;stroke:#000000;word-spacing:0px" xml:space="preserve"><tspan x="321.38788" y="177.86786" style="fill:#ff0000;font-family:'Arial Nova', 'Arial Unicode MS', 'Yu Gothic UI', sans-serif;stroke-width:1.0667;stroke:#ff0000">(X,Y,Z)</tspan></text>
  <path d="m246.95 412.72 6.2254-5.147 6.9023 14.13 6.2932-3.0742-6.9023-14.13 7.4286-1.523-19.542-14.716z" style="fill:#fff;stroke-linecap:round;stroke-linejoin:round;stroke-width:.75591;stroke:#000"/>
 </g>
</svg>
