<?xml version="1.0" encoding="UTF-8"?>
<svg width="18cm" height="5.5cm" version="1.1" xmlns="http://www.w3.org/2000/svg" xmlns:xlink="http://www.w3.org/1999/xlink">
 <defs>
  <linearGradient id="linearGradient6218-7-4-0-5-2-09-2-5-4">
   <stop style="stop-color:#ff8500" offset="0"/>
   <stop style="stop-color:#fff" offset="1"/>
  </linearGradient>
  <linearGradient id="linearGradient7747-2-1">
   <stop style="stop-color:#fff" offset="0"/>
   <stop style="stop-color:#808080" offset="1"/>
  </linearGradient>
  <linearGradient id="linearGradient38654" x1="481.65" x2="147.49" y1="450.11" y2="445.06" gradientTransform="matrix(1.0667 0 0 1.1541 -21.714 815.66)" gradientUnits="userSpaceOnUse" xlink:href="#linearGradient7747-2-1"/>
  <linearGradient id="linearGradient38656" x1="481.65" x2="147.49" y1="450.11" y2="445.06" gradientTransform="scale(1.0667)" gradientUnits="userSpaceOnUse" xlink:href="#linearGradient7747-2-1"/>
  <linearGradient id="linearGradient38658" x1="481.65" x2="147.49" y1="450.11" y2="445.06" gradientUnits="userSpaceOnUse" xlink:href="#linearGradient7747-2-1"/>
  <linearGradient id="linearGradient38642-5" x1="-7.514" x2="889.07" y1="-297.3" y2="-295.87" gradientTransform="matrix(1.0667 0 0 1.0667 0 782.36)" gradientUnits="userSpaceOnUse" xlink:href="#linearGradient7747-2-1"/>
  <linearGradient id="linearGradient38644-1" x1="471.81" x2="233.79" y1="-278.61" y2="-279.62" gradientTransform="matrix(1.0667 0 0 1.0667 0 782.36)" gradientUnits="userSpaceOnUse" xlink:href="#linearGradient7747-2-1"/>
  <linearGradient id="linearGradient38646-4" x1="370.93" x2="377.64" y1="-383.6" y2="-383.6" gradientTransform="matrix(1.0667 0 0 1.0667 0 782.36)" gradientUnits="userSpaceOnUse">
   <stop offset="0"/>
   <stop style="stop-opacity:0" offset="1"/>
  </linearGradient>
  <linearGradient id="linearGradient38652-3" x1="20.986" x2="545.29" y1="444.61" y2="444.61" gradientUnits="userSpaceOnUse" xlink:href="#linearGradient7747-2-1"/>
  <linearGradient id="linearGradient38648-0" x1="20.986" x2="545.29" y1="444.61" y2="444.61" gradientTransform="matrix(1.0829 0 0 1.0788 -5.7628 782.01)" gradientUnits="userSpaceOnUse" xlink:href="#linearGradient7747-2-1"/>
  <linearGradient id="linearGradient38650-3" x1="20.986" x2="545.29" y1="444.61" y2="444.61" gradientTransform="scale(1.0667)" gradientUnits="userSpaceOnUse" xlink:href="#linearGradient7747-2-1"/>
  <linearGradient id="linearGradient38747" x1="264.91" x2="441.51" y1="451.65" y2="451.65" gradientTransform="scale(1.0667)" gradientUnits="userSpaceOnUse" xlink:href="#linearGradient7747-2-1"/>
  <linearGradient id="linearGradient39077" x1="264.91" x2="441.51" y1="451.65" y2="451.65" gradientTransform="matrix(.21034 0 0 .21034 22.514 911.56)" gradientUnits="userSpaceOnUse" xlink:href="#linearGradient7747-2-1"/>
  <linearGradient id="linearGradient39086" x1="370.93" x2="377.64" y1="-383.6" y2="-383.6" gradientTransform="matrix(.21034 0 0 .21034 22.514 1065.8)" gradientUnits="userSpaceOnUse">
   <stop offset="0"/>
   <stop style="stop-opacity:0" offset="1"/>
  </linearGradient>
  <linearGradient id="linearGradient39089" x1="471.81" x2="233.79" y1="-278.61" y2="-279.62" gradientTransform="matrix(.21034 0 0 .21034 22.514 1065.8)" gradientUnits="userSpaceOnUse" xlink:href="#linearGradient7747-2-1"/>
  <linearGradient id="linearGradient39092" x1="-7.514" x2="889.07" y1="-297.3" y2="-295.87" gradientTransform="matrix(.21034 0 0 .21034 22.514 1065.8)" gradientUnits="userSpaceOnUse" xlink:href="#linearGradient7747-2-1"/>
  <linearGradient id="linearGradient39101" x1="20.986" x2="545.29" y1="444.61" y2="444.61" gradientTransform="matrix(.21034 0 0 .21034 22.514 911.56)" gradientUnits="userSpaceOnUse" xlink:href="#linearGradient6218-7-4-0-5-2-09-2-5-4"/>
  <linearGradient id="linearGradient39104" x1="20.986" x2="545.29" y1="444.61" y2="444.61" gradientTransform="matrix(.21354 0 0 .21273 21.378 1065.8)" gradientUnits="userSpaceOnUse" xlink:href="#linearGradient6218-7-4-0-5-2-09-2-5-4"/>
  <linearGradient id="linearGradient39128" x1="264.91" x2="441.51" y1="451.65" y2="451.65" gradientTransform="matrix(.21034 0 0 .21034 330.13 911.56)" gradientUnits="userSpaceOnUse" xlink:href="#linearGradient7747-2-1"/>
  <linearGradient id="linearGradient39137" x1="370.93" x2="377.64" y1="-383.6" y2="-383.6" gradientTransform="matrix(.21034 0 0 .21034 330.13 1065.8)" gradientUnits="userSpaceOnUse">
   <stop offset="0"/>
   <stop style="stop-opacity:0" offset="1"/>
  </linearGradient>
  <linearGradient id="linearGradient39140" x1="471.81" x2="233.79" y1="-278.61" y2="-279.62" gradientTransform="matrix(.21034 0 0 .21034 330.13 1065.8)" gradientUnits="userSpaceOnUse" xlink:href="#linearGradient7747-2-1"/>
  <linearGradient id="linearGradient39143" x1="-7.514" x2="889.07" y1="-297.3" y2="-295.87" gradientTransform="matrix(.21034 0 0 .21034 330.13 1065.8)" gradientUnits="userSpaceOnUse" xlink:href="#linearGradient7747-2-1"/>
  <linearGradient id="linearGradient39152" x1="20.986" x2="545.29" y1="444.61" y2="444.61" gradientTransform="matrix(.21034 0 0 .21034 330.13 911.56)" gradientUnits="userSpaceOnUse" xlink:href="#linearGradient6218-7-4-0-5-2-09-2-5-4"/>
  <linearGradient id="linearGradient39155" x1="20.986" x2="545.29" y1="444.61" y2="444.61" gradientTransform="matrix(.21354 0 0 .21273 329 1065.8)" gradientUnits="userSpaceOnUse" xlink:href="#linearGradient7747-2-1"/>
  <linearGradient id="linearGradient39549" x1="20.986" x2="545.29" y1="444.61" y2="444.61" gradientTransform="matrix(.21034 0 0 .21034 531.69 911.56)" gradientUnits="userSpaceOnUse" xlink:href="#linearGradient7747-2-1"/>
  <linearGradient id="linearGradient39552" x1="20.986" x2="545.29" y1="444.61" y2="444.61" gradientTransform="matrix(.21354 0 0 .21273 530.55 1065.8)" gradientUnits="userSpaceOnUse" xlink:href="#linearGradient7747-2-1"/>
  <linearGradient id="linearGradient39555" x1="370.93" x2="377.64" y1="-383.6" y2="-383.6" gradientTransform="matrix(.21034 0 0 .21034 531.69 1065.8)" gradientUnits="userSpaceOnUse">
   <stop offset="0"/>
   <stop style="stop-opacity:0" offset="1"/>
  </linearGradient>
  <linearGradient id="linearGradient39561" x1="-7.514" x2="889.07" y1="-297.3" y2="-295.87" gradientTransform="matrix(.21034 0 0 .21034 531.69 1065.8)" gradientUnits="userSpaceOnUse" xlink:href="#linearGradient7747-2-1"/>
  <linearGradient id="linearGradient39577" x1="585.11" x2="551.46" y1="943.65" y2="943.65" gradientTransform="scale(1.0667)" gradientUnits="userSpaceOnUse" xlink:href="#linearGradient6218-7-4-0-5-2-09-2-5-4"/>
  <linearGradient id="linearGradient39579" x1="543.7" x2="592.35" y1="943.69" y2="943.69" gradientTransform="scale(1.0667)" gradientUnits="userSpaceOnUse" xlink:href="#linearGradient6218-7-4-0-5-2-09-2-5-4"/>
  <linearGradient id="linearGradient2281" x1="526.72" x2="594.46" y1="944.15" y2="944.15" gradientTransform="scale(1.0667)" gradientUnits="userSpaceOnUse" xlink:href="#linearGradient6218-7-4-0-5-2-09-2-5-4"/>
 </defs>
 <g transform="translate(0 -914.65)">
  <rect x="21.027" y="943.6" width="131.31" height="119.41" style="color:#000000;fill:url(#linearGradient39092);stroke-linecap:round;stroke-linejoin:round;stroke-width:1.4324;stroke:#7d7d7d"/>
  <path d="m96.718 981.85c-13.935 0-25.227 11.083-25.227 24.754 0 13.671 11.293 24.748 25.227 24.748 13.935 0 25.234-11.077 25.234-24.748 0-13.671-11.299-24.754-25.234-24.754zm0.09202 5.7843c1.3228 0 2.6143 0.14348 3.8584 0.4141 8.3545 1.8173 14.618 9.4164 14.618 18.516 0 10.455-8.2708 18.93-18.477 18.93-10.206 0-18.483-8.4754-18.483-18.93 0-10.455 8.2774-18.93 18.483-18.93z" style="color:#000000;fill:url(#linearGradient39089);stroke-linecap:round;stroke-linejoin:round;stroke-width:1.4324;stroke:#7d7d7d"/>
  <path d="m101.84 982.22-1.2019 5.8594" style="fill:url(#linearGradient39086);stroke-width:1.4324;stroke:#7d7d7d"/>
  <path d="m81.109 1058.5c-29.96-0.5057-54.088-24.255-54.088-53.478 0-29.221 24.124-52.969 54.082-53.477l-0.06617 25.526c-15.799 3.0775-27.604 15.331-27.604 29.98 0 14.66 11.824 26.922 27.642 29.987z" style="color:#000000;fill:url(#linearGradient39104);stroke-linecap:round;stroke-linejoin:round;stroke-width:1.4324;stroke:#7d7d7d"/>
  <path d="m81.077 1058.6 0.97579 0.01c30.41 0.2556 55.063-23.946 55.063-53.486v0c0-29.539-24.653-53.486-55.063-53.486-0.32766 0-0.65465 3e-3 -0.98095 9e-3l-0.06616 25.526c2.5028-0.48751 5.1057-0.74474 7.7779-0.74474 19.541 0 35.382 13.756 35.382 30.724 0 16.968-15.841 30.724-35.382 30.724-2.6587 0-5.249-0.2547-7.7402-0.7375z" style="color:#000000;fill:url(#linearGradient39101);stroke-linecap:round;stroke-linejoin:round;stroke-width:1.4324;stroke:#7d7d7d"/>
  <g transform="matrix(.19719 0 0 .19719 22.514 911.56)" style="fill:url(#linearGradient38658);stroke-width:6.8102;stroke:#7d7d7d">
   <path d="m332.88 599.89c-49.08-17.59-84.121-63.842-84.121-118.13 0-54.098 34.792-100.22 83.599-117.94l-35.872-30.975c-80.121 15.607-139.99 77.749-139.99 152.03 0 74.343 59.96 136.53 140.18 152.07z" style="color:#000000;fill:url(#linearGradient38654);stroke-linecap:round;stroke-linejoin:round;stroke-width:7.2642;stroke:#7d7d7d"/>
   <path d="m296.98 636.49c12.633 2.4482 25.769 3.7397 39.252 3.7397 99.096 0 179.43-69.758 179.43-155.81 0-86.051-80.333-155.81-179.43-155.81-13.551 0-26.751 1.3045-39.443 3.7768l35.576 31.421c13.832-5.0247 28.79-7.7693 44.401-7.7693 8.7964 0 17.386 0.87148 25.683 2.5313 58.384 11.679 102.32 62.392 102.32 123.18 0 69.43-57.308 125.71-128 125.71-15.415 0-30.193-2.6761-43.879-7.5812z" style="color:#000000;fill:url(#linearGradient38656);stroke-linecap:round;stroke-linejoin:round;stroke-width:7.2642;stroke:#7d7d7d"/>
  </g>
  <path d="m115.29 1006.6c0 10.455-8.2736 18.93-18.48 18.93-10.206 0-18.48-8.4754-18.48-18.93 0-10.455 8.2736-18.93 18.48-18.93 1.3228 0 2.6132 0.14238 3.8573 0.41301 8.3545 1.8173 14.622 9.4175 14.622 18.517z" style="color:#000000;fill:url(#linearGradient39077);stroke-linecap:round;stroke-linejoin:round;stroke-width:1.4324;stroke:#7d7d7d"/>
  <rect x="530.2" y="943.6" width="131.31" height="119.41" style="color:#000000;fill:url(#linearGradient39561);stroke-linecap:round;stroke-linejoin:round;stroke-width:1.4324;stroke:#7d7d7d"/>
  <path d="m605.89 981.85c-13.935 0-25.227 11.083-25.227 24.754 0 13.671 11.293 24.748 25.227 24.748 13.935 0 25.234-11.077 25.234-24.748 0-13.671-11.299-24.754-25.234-24.754zm0.092 5.7843c1.3228 0 2.6143 0.14348 3.8584 0.4141 8.3545 1.8173 14.618 9.4164 14.618 18.516 0 10.455-8.2708 18.93-18.477 18.93s-18.483-8.4754-18.483-18.93c0-10.455 8.2774-18.93 18.483-18.93z" style="color:#000000;fill:url(#linearGradient39579);stroke-linecap:round;stroke-linejoin:round;stroke-width:1.4324;stroke:#7d7d7d"/>
  <path d="m611.02 982.22-1.2019 5.8594" style="fill:url(#linearGradient39555);stroke-width:1.4324;stroke:#7d7d7d"/>
  <path d="m590.28 1058.5c-29.96-0.5057-54.088-24.255-54.088-53.478 0-29.221 24.124-52.969 54.082-53.477l-0.0661 25.526c-15.799 3.0775-27.604 15.331-27.604 29.98 0 14.66 11.824 26.922 27.642 29.987z" style="color:#000000;fill:url(#linearGradient39552);stroke-linecap:round;stroke-linejoin:round;stroke-width:1.4324;stroke:#7d7d7d"/>
  <path d="m590.25 1058.6 0.97579 0.01c30.41 0.2556 55.063-23.946 55.063-53.486v0c0-29.539-24.653-53.486-55.063-53.486-0.32766 0-0.65465 3e-3 -0.98094 9e-3l-0.0661 25.526c2.5028-0.48751 5.1057-0.74474 7.7779-0.74474 19.541 0 35.382 13.756 35.382 30.724 0 16.968-15.841 30.724-35.382 30.724-2.6587 0-5.249-0.2547-7.7402-0.7375z" style="color:#000000;fill:url(#linearGradient39549);stroke-linecap:round;stroke-linejoin:round;stroke-width:1.4324;stroke:#7d7d7d"/>
  <path d="m597.33 1029.9c-9.6782-3.4685-16.588-12.589-16.588-23.295 0-10.668 6.8607-19.762 16.485-23.258l-7.0737-6.108c-15.799 3.0775-27.604 15.331-27.604 29.98 0 14.66 11.824 26.922 27.642 29.987z" style="color:#000000;fill:url(#linearGradient2281);stroke-linecap:round;stroke-linejoin:round;stroke-width:1.4324;stroke:#7d7d7d"/>
  <path d="m590.25 1037.1c2.4912 0.4828 5.0814 0.7375 7.7402 0.7375 19.541 0 35.382-13.756 35.382-30.724 0-16.969-15.841-30.724-35.382-30.724-2.6722 0-5.2752 0.25724-7.7779 0.74475l7.0153 6.196c2.7276-0.99082 5.6772-1.532 8.7555-1.532 1.7346 0 3.4283 0.17185 5.0644 0.49915 11.513 2.3031 20.176 12.303 20.176 24.291 0 13.691-11.301 24.79-25.24 24.79-3.0396 0-5.9538-0.5277-8.6526-1.4949z" style="color:#000000;fill:url(#linearGradient2281);stroke-linecap:round;stroke-linejoin:round;stroke-width:1.4324;stroke:#7d7d7d"/>
  <path d="m624.46 1006.6c0 10.455-8.2736 18.93-18.48 18.93-10.206 0-18.48-8.4754-18.48-18.93 0-10.455 8.2736-18.93 18.48-18.93 1.3228 0 2.6132 0.14238 3.8573 0.41301 8.3545 1.8173 14.622 9.4175 14.622 18.517z" style="color:#000000;fill:url(#linearGradient39577);stroke-linecap:round;stroke-linejoin:round;stroke-width:1.4324;stroke:#7d7d7d"/>
  <g transform="matrix(.19719 0 0 .19719 176.32 911.56)">
   <rect x="-7.5425" y="162.47" width="665.89" height="605.55" style="color:#000000;fill:url(#linearGradient38642-5);stroke-linecap:round;stroke-linejoin:round;stroke-width:7.2642;stroke:#7d7d7d"/>
   <path d="m376.3 356.43c-70.666 0-127.93 56.206-127.93 125.53s57.267 125.5 127.93 125.5 127.97-56.173 127.97-125.5-57.3-125.53-127.97-125.53zm0.46667 29.333c6.7084 0 13.258 0.72762 19.567 2.1 42.367 9.2159 74.133 47.753 74.133 93.9 0 53.019-41.943 96-93.7 96s-93.733-42.981-93.733-96 41.976-96 93.733-96z" style="color:#000000;fill:url(#linearGradient38644-1);stroke-linecap:round;stroke-linejoin:round;stroke-width:7.2642;stroke:#7d7d7d"/>
   <path d="m402.29 358.33-6.0952 29.714" style="fill:url(#linearGradient38646-4);stroke-width:7.2642;stroke:#7d7d7d"/>
   <g style="fill:url(#linearGradient38652-3);stroke-width:6.8102;stroke:#7d7d7d">
    <path d="m297.15 745.34c-151.94-2.5646-274.29-123-274.29-271.2 0-148.19 122.34-268.62 274.26-271.2l-0.33554 129.45c-80.121 15.607-139.99 77.749-139.99 152.03 0 74.343 59.96 136.53 140.18 152.07z" style="color:#000000;fill:url(#linearGradient38648-0);stroke-linecap:round;stroke-linejoin:round;stroke-width:7.2642;stroke:#7d7d7d"/>
    <path d="m296.98 745.5 4.9484 0.0416c154.21 1.2964 279.24-121.44 279.24-271.24v5e-5c0-149.8-125.02-271.24-279.24-271.24-1.6616 0-3.3199 0.0141-4.9746 0.0421l-0.33554 129.45c12.692-2.4723 25.892-3.7768 39.443-3.7768 99.096 0 179.43 69.758 179.43 155.81 0 86.051-80.333 155.81-179.43 155.81-13.483 0-26.619-1.2914-39.252-3.7396z" style="color:#000000;fill:url(#linearGradient38650-3);stroke-linecap:round;stroke-linejoin:round;stroke-width:7.2642;stroke:#7d7d7d"/>
   </g>
   <g style="fill:url(#linearGradient38658);stroke-width:6.8102;stroke:#7d7d7d">
    <path d="m332.88 599.89c-49.08-17.59-84.121-63.842-84.121-118.13 0-54.098 34.792-100.22 83.599-117.94l-35.872-30.975c-80.121 15.607-139.99 77.749-139.99 152.03 0 74.343 59.96 136.53 140.18 152.07z" style="color:#000000;fill:url(#linearGradient38654);stroke-linecap:round;stroke-linejoin:round;stroke-width:7.2642;stroke:#7d7d7d"/>
    <path d="m296.98 636.49c12.633 2.4482 25.769 3.7397 39.252 3.7397 99.096 0 179.43-69.758 179.43-155.81 0-86.051-80.333-155.81-179.43-155.81-13.551 0-26.751 1.3045-39.443 3.7768l35.576 31.421c13.832-5.0247 28.79-7.7693 44.401-7.7693 8.7964 0 17.386 0.87148 25.683 2.5313 58.384 11.679 102.32 62.392 102.32 123.18 0 69.43-57.308 125.71-128 125.71-15.415 0-30.193-2.6761-43.879-7.5812z" style="color:#000000;fill:url(#linearGradient38656);stroke-linecap:round;stroke-linejoin:round;stroke-width:7.2642;stroke:#7d7d7d"/>
   </g>
   <path d="m470.48 481.76c0 53.019-41.957 96-93.714 96s-93.714-42.981-93.714-96 41.957-96 93.714-96c6.7084 0 13.252 0.72206 19.561 2.0944 42.367 9.2159 74.153 47.758 74.153 93.906z" style="color:#000000;fill:url(#linearGradient38747);stroke-linecap:round;stroke-linejoin:round;stroke-width:7.2642;stroke:#7d7d7d"/>
  </g>
  <ellipse cx="242.38" cy="1007.2" rx="35.524" ry="30.571" style="color:#000000;fill:none;stroke-linecap:round;stroke-linejoin:round;stroke-width:1.4324;stroke:#f00"/>
  <rect x="328.64" y="943.6" width="131.31" height="119.41" style="color:#000000;fill:url(#linearGradient39143);stroke-linecap:round;stroke-linejoin:round;stroke-width:1.4324;stroke:#7d7d7d"/>
  <path d="m404.33 981.85c-13.935 0-25.227 11.083-25.227 24.754 0 13.671 11.293 24.748 25.227 24.748s25.234-11.077 25.234-24.748c0-13.671-11.299-24.754-25.234-24.754zm0.0921 5.7843c1.3228 0 2.6143 0.14348 3.8584 0.4141 8.3545 1.8173 14.618 9.4164 14.618 18.516 0 10.455-8.2708 18.93-18.477 18.93-10.206 0-18.483-8.4754-18.483-18.93 0-10.455 8.2774-18.93 18.483-18.93z" style="color:#000000;fill:url(#linearGradient39140);stroke-linecap:round;stroke-linejoin:round;stroke-width:1.4324;stroke:#7d7d7d"/>
  <path d="m409.46 982.22-1.2019 5.8594" style="fill:url(#linearGradient39137);stroke-width:1.4324;stroke:#7d7d7d"/>
  <path d="m388.73 1058.5c-29.96-0.5057-54.088-24.255-54.088-53.478 0-29.221 24.124-52.969 54.082-53.477l-0.0661 25.526c-15.799 3.0775-27.604 15.331-27.604 29.98 0 14.66 11.824 26.922 27.642 29.987z" style="color:#000000;fill:url(#linearGradient39155);stroke-linecap:round;stroke-linejoin:round;stroke-width:1.4324;stroke:#7d7d7d"/>
  <path d="m388.69 1058.6 0.97579 0.01c30.41 0.2556 55.063-23.946 55.063-53.486v0c0-29.539-24.653-53.486-55.063-53.486-0.32766 0-0.65464 3e-3 -0.98094 9e-3l-0.0661 25.526c2.5028-0.48751 5.1057-0.74474 7.7779-0.74474 19.541 0 35.382 13.756 35.382 30.724 0 16.968-15.841 30.724-35.382 30.724-2.6587 0-5.249-0.2547-7.7402-0.7375z" style="color:#000000;fill:url(#linearGradient39152);stroke-linecap:round;stroke-linejoin:round;stroke-width:1.4324;stroke:#7d7d7d"/>
  <g transform="matrix(.19719 0 0 .19719 330.13 911.56)" style="fill:url(#linearGradient38658);stroke-width:6.8102;stroke:#7d7d7d">
   <path d="m332.88 599.89c-49.08-17.59-84.121-63.842-84.121-118.13 0-54.098 34.792-100.22 83.599-117.94l-35.872-30.975c-80.121 15.607-139.99 77.749-139.99 152.03 0 74.343 59.96 136.53 140.18 152.07z" style="color:#000000;fill:url(#linearGradient38654);stroke-linecap:round;stroke-linejoin:round;stroke-width:7.2642;stroke:#7d7d7d"/>
   <path d="m296.98 636.49c12.633 2.4482 25.769 3.7397 39.252 3.7397 99.096 0 179.43-69.758 179.43-155.81 0-86.051-80.333-155.81-179.43-155.81-13.551 0-26.751 1.3045-39.443 3.7768l35.576 31.421c13.832-5.0247 28.79-7.7693 44.401-7.7693 8.7964 0 17.386 0.87148 25.683 2.5313 58.384 11.679 102.32 62.392 102.32 123.18 0 69.43-57.308 125.71-128 125.71-15.415 0-30.193-2.6761-43.879-7.5812z" style="color:#000000;fill:url(#linearGradient38656);stroke-linecap:round;stroke-linejoin:round;stroke-width:7.2642;stroke:#7d7d7d"/>
  </g>
  <path d="m422.91 1006.6c0 10.455-8.2736 18.93-18.48 18.93-10.206 0-18.48-8.4754-18.48-18.93 0-10.455 8.2736-18.93 18.48-18.93 1.3228 0 2.6132 0.14238 3.8573 0.41301 8.3545 1.8173 14.622 9.4175 14.622 18.517z" style="color:#000000;fill:url(#linearGradient39128);stroke-linecap:round;stroke-linejoin:round;stroke-width:1.4324;stroke:#7d7d7d"/>
  <path d="m388.95 1036.8c-16.146-2.8784-28.281-15.187-28.281-29.936 0-14.692 12.042-26.963 28.096-29.902" style="color:#000000;fill:none;stroke-linecap:round;stroke-linejoin:round;stroke-width:1.4324;stroke:#f00"/>
  <path d="m499.97 994.37 9.9675 6.2408-9.9675 6.2409z" style="fill:#1f638a;stroke-linecap:round;stroke-linejoin:round;stroke-width:.37795;stroke:#1f638a"/>
  <rect x="489.68" y="997.76" width="11.439" height="5.7059" style="fill:#1f638a;stroke-linecap:round;stroke-linejoin:round;stroke-width:.37795;stroke:#1f638a"/>
  <ellipse cx="86.681" cy="1090.5" rx="13.199" ry="13.469" style="fill:#1f638a;stroke-linecap:round;stroke-linejoin:round;stroke-width:1.0658"/>
  <text x="80.839653" y="1098.0613" style="fill:#000000;font-family:'Arial Nova', 'Arial Unicode MS', 'Yu Gothic UI', sans-serif;font-size:12.8px;letter-spacing:0px;line-height:0%;stroke-width:1.0667;word-spacing:0px" xml:space="preserve"><tspan x="80.839653" y="1098.0613" style="fill:#ffffff;font-family:'Arial Nova', 'Arial Unicode MS', 'Yu Gothic UI', sans-serif;font-size:21.333px;stroke-width:1.0667;stroke:#ffffff">3</tspan></text>
  <ellipse cx="240.49" cy="1090.5" rx="13.199" ry="13.469" style="fill:#1f638a;stroke-linecap:round;stroke-linejoin:round;stroke-width:1.0658"/>
  <text x="234.64828" y="1098.155" style="fill:#000000;font-family:'Arial Nova', 'Arial Unicode MS', 'Yu Gothic UI', sans-serif;font-size:12.8px;letter-spacing:0px;line-height:0%;stroke-width:1.0667;word-spacing:0px" xml:space="preserve"><tspan x="234.64828" y="1098.155" style="fill:#ffffff;font-family:'Arial Nova', 'Arial Unicode MS', 'Yu Gothic UI', sans-serif;font-size:21.333px;stroke-width:1.0667;stroke:#ffffff">4</tspan></text>
  <ellipse cx="394.3" cy="1090.5" rx="13.199" ry="13.469" style="fill:#1f638a;stroke-linecap:round;stroke-linejoin:round;stroke-width:1.0658"/>
  <text x="388.45694" y="1097.9207" style="fill:#000000;font-family:'Arial Nova', 'Arial Unicode MS', 'Yu Gothic UI', sans-serif;font-size:12.8px;letter-spacing:0px;line-height:0%;stroke-width:1.0667;word-spacing:0px" xml:space="preserve"><tspan x="388.45694" y="1097.9207" style="fill:#ffffff;font-family:'Arial Nova', 'Arial Unicode MS', 'Yu Gothic UI', sans-serif;font-size:21.333px;stroke-width:1.0667;stroke:#ffffff">5</tspan></text>
  <text x="352.82477" y="1008.7993" style="fill:#000000;font-family:'Arial Nova', 'Arial Unicode MS', 'Yu Gothic UI', sans-serif;font-size:12.8px;letter-spacing:0px;line-height:0%;stroke-width:1.0667;stroke:#ff0000;word-spacing:0px" xml:space="preserve"><tspan x="352.82477" y="1008.7993" style="font-family:'Arial Nova', 'Arial Unicode MS', 'Yu Gothic UI', sans-serif;stroke-width:1.0667">1</tspan></text>
  <text x="435.06931" y="1009.0168" style="fill:#000000;font-family:'Arial Nova', 'Arial Unicode MS', 'Yu Gothic UI', sans-serif;font-size:12.8px;letter-spacing:0px;line-height:0%;stroke-width:1.0667;stroke:#ff6600;word-spacing:0px" xml:space="preserve"><tspan x="435.06931" y="1009.0168" style="font-family:'Arial Nova', 'Arial Unicode MS', 'Yu Gothic UI', sans-serif;stroke-width:1.0667;stroke:#ff6600">2</tspan></text>
 </g>
</svg>
