<?xml version="1.0" encoding="UTF-8"?>
<svg width="18cm" height="3cm" version="1.1" xmlns="http://www.w3.org/2000/svg" xmlns:xlink="http://www.w3.org/1999/xlink">
 <defs>
  <pattern id="pattern5737" patternTransform="matrix(-.053156 .052378 -38.297 -38.866 40.238 828.19)" xlink:href="#pattern16632"/>
  <pattern id="pattern5734" patternTransform="matrix(-.053156 .052378 -38.297 -38.866 197.96 828.42)" xlink:href="#pattern16648"/>
  <pattern id="pattern5731" patternTransform="matrix(-.053156 .052378 -38.297 -38.866 355.6 828.01)" xlink:href="#pattern16648-1"/>
  <pattern id="pattern16632" patternTransform="matrix(-.049834 .049105 -35.904 -36.437 37.723 638.01)" xlink:href="#Strips1_64"/>
  <pattern id="Strips1_64" width="65" height="1" patternTransform="translate(0) scale(10)" patternUnits="userSpaceOnUse">
   <rect y="-.5" width="1" height="2"/>
  </pattern>
  <linearGradient id="linearGradient10628">
   <stop style="stop-color:#fff" offset="0"/>
   <stop style="stop-color:#4fa68a" offset="1"/>
  </linearGradient>
  <pattern id="pattern16648" patternTransform="matrix(-.049834 .049105 -35.904 -36.437 185.59 638.22)" xlink:href="#pattern16632-5"/>
  <pattern id="pattern16632-5" patternTransform="matrix(-.049834 .049105 -35.904 -36.437 17.723 598.01)" xlink:href="#Strips1_64-2"/>
  <pattern id="Strips1_64-2" width="65" height="1" patternTransform="translate(0) scale(10)" patternUnits="userSpaceOnUse">
   <rect y="-.5" width="1" height="2"/>
  </pattern>
  <pattern id="pattern16648-1" patternTransform="matrix(-.049834 .049105 -35.904 -36.437 333.37 637.84)" xlink:href="#pattern16632-2"/>
  <pattern id="pattern16632-2" patternTransform="matrix(-.049834 .049105 -35.904 -36.437 17.723 598.01)" xlink:href="#Strips1_64-28"/>
  <pattern id="Strips1_64-28" width="65" height="1" patternTransform="translate(0) scale(10)" patternUnits="userSpaceOnUse">
   <rect y="-.5" width="1" height="2"/>
  </pattern>
  <linearGradient id="linearGradient5743" x1="37.563" x2="157.33" y1="822.55" y2="822.55" gradientTransform="matrix(1.0667 0 0 1.0667 21.333 190.31)" gradientUnits="userSpaceOnUse" xlink:href="#linearGradient10628"/>
  <linearGradient id="linearGradient5746" x1="185.39" x2="305.16" y1="822.55" y2="822.55" gradientTransform="matrix(1.0667 0 0 1.0667 21.333 190.31)" gradientUnits="userSpaceOnUse" xlink:href="#linearGradient10628"/>
  <linearGradient id="linearGradient5749" x1="333.23" x2="453" y1="822.55" y2="822.55" gradientTransform="matrix(1.0667 0 0 1.0667 21.333 190.31)" gradientUnits="userSpaceOnUse" xlink:href="#linearGradient10628"/>
 </defs>
 <g transform="translate(0 -1009.1)">
  <path d="m504.19 1108v-80.508l-127.08 34.05v46.457h127.08z" style="color:#000000;fill:url(#linearGradient5749);stroke-dashoffset:1.5856;stroke-linecap:round;stroke-linejoin:round;stroke-width:.67654;stroke:#67977f"/>
  <path d="m346.5 1108v-80.508l-127.08 34.05v46.457h127.08z" style="color:#000000;fill:url(#linearGradient5746);stroke-dashoffset:1.5856;stroke-linecap:round;stroke-linejoin:round;stroke-width:.67654;stroke:#67977f"/>
  <path d="m188.82 1108v-80.508l-127.08 34.05v46.457h127.08z" style="color:#000000;fill:url(#linearGradient5743);stroke-dashoffset:1.5856;stroke-linecap:round;stroke-linejoin:round;stroke-width:.67654;stroke:#67977f"/>
  <path d="m188.82 1108v-80.508l-127.08 34.05v46.457h127.08z" style="color:#000000;fill:url(#pattern5737);opacity:.49104"/>
  <path d="m346.54 1108.2v-80.508l-127.08 34.05v46.457h127.08z" style="color:#000000;fill:url(#pattern5734);opacity:.49104"/>
  <path d="m504.17 1107.8v-80.508l-127.08 34.05v46.457h127.08z" style="color:#000000;fill:url(#pattern5731);opacity:.49104"/>
  <path d="m455.6 1040.5v42.769h24.621v-49.333z" style="color:#000000;fill:#739ba5;stroke-dashoffset:1.5856;stroke-linecap:round;stroke-linejoin:round;stroke-width:.67654;stroke:#16434a"/>
  <path d="m240.31 1055.9v27.074h24.621v-33.638z" style="color:#000000;fill:#739ba5;stroke-dashoffset:1.5856;stroke-linecap:round;stroke-linejoin:round;stroke-width:.67654;stroke:#16434a"/>
  <path d="m76.789 1057.5c4.8402-1.4602 6.0987 0.4621 5.8351 3.8222v21.97h24.621v-28.588c-0.19273-3.4958 0.97534-6.0638 4.9456-6.7213z" style="color:#000000;fill:#739ba5;stroke-dashoffset:1.5856;stroke-linecap:round;stroke-linejoin:round;stroke-width:.67654;stroke:#16434a"/>
  <path d="m82.848 1061.5 24.381-6.5697" style="color:#000000;fill:#739ba5;stroke-dashoffset:1.5856;stroke-linecap:round;stroke-linejoin:round;stroke-width:.67654;stroke:#16434a"/>
  <g transform="translate(-667.3 959.36)">
   <path d="m921.12 69.511h65.333" style="fill:none;stroke-dasharray:3.0046793, 3.0046793;stroke-width:1.0016;stroke:#008000"/>
   <path d="m990.22 69.373-12.571-4.1905v8.7619z" style="fill:#fff;stroke-dasharray:3.19748039, 3.19748039;stroke-linecap:round;stroke-linejoin:round;stroke-width:1.0658;stroke:#008000"/>
  </g>
  <g transform="matrix(.2917 0 0 .28875 144.69 1029.3)" style="fill:#1f638a;stroke-linecap:round;stroke-linejoin:round;stroke-width:1.2209;stroke:#1f638a">
   <path d="m207.49 126.25 34.17 21.614-34.17 21.614z" style="fill:#1f638a;stroke-linecap:round;stroke-linejoin:round;stroke-width:1.3023;stroke:#1f638a"/>
   <rect x="172.19" y="137.99" width="39.213" height="19.761" style="fill:#1f638a;stroke-linecap:round;stroke-linejoin:round;stroke-width:1.3023;stroke:#1f638a"/>
  </g>
  <g transform="matrix(.2917 0 0 .28875 303.08 1029.3)" style="fill:#1f638a;stroke-linecap:round;stroke-linejoin:round;stroke-width:1.2209;stroke:#1f638a">
   <path d="m207.49 126.25 34.17 21.614-34.17 21.614z" style="fill:#1f638a;stroke-linecap:round;stroke-linejoin:round;stroke-width:1.3023;stroke:#1f638a"/>
   <rect x="172.19" y="137.99" width="39.213" height="19.761" style="fill:#1f638a;stroke-linecap:round;stroke-linejoin:round;stroke-width:1.3023;stroke:#1f638a"/>
  </g>
  <g transform="matrix(-.81931 -.57335 -.57335 .81931 77.096 842.47)" style="fill:#f60;stroke:#f60">
   <path d="m-423.94-49.123 5.0723 20.997h-10.145c1.7968-10.641 5.0723-20.997 5.0723-20.997z" style="fill:#f60;stroke-linecap:round;stroke-linejoin:round;stroke-width:1.8898;stroke:#f60"/>
   <path d="m-423.98-34.35c0 48.464 0.17497 61.061 0.17497 61.061" style="fill:#f60;stroke-linecap:round;stroke-linejoin:round;stroke-width:1.8898;stroke:#f60"/>
  </g>
  <g transform="rotate(-34.984 1750.9 -947.08)" style="fill:#f60;stroke:#f60">
   <path d="m-423.94-49.123 5.0723 20.997h-10.145c1.7968-10.641 5.0723-20.997 5.0723-20.997z" style="fill:#f60;stroke-linecap:round;stroke-linejoin:round;stroke-width:1.8898;stroke:#f60"/>
   <path d="m-423.98-34.35c0 48.464 0.17497 61.061 0.17497 61.061" style="fill:#f60;stroke-linecap:round;stroke-linejoin:round;stroke-width:1.8898;stroke:#f60"/>
  </g>
  <path d="m234.5 1057.4c4.8402-1.4603 6.0987 0.4621 5.8351 3.8221l24.621-6.6178c-0.19274-3.4959 0.97533-6.0639 4.9456-6.7213z" style="color:#000000;fill:none;stroke-dashoffset:1.5856;stroke-linecap:round;stroke-linejoin:round;stroke-width:.67654;stroke:#f60"/>
  <path d="m269.94 1046.5c-6.4941 8.2149-8.2156 10.33-8.2156 10.33" style="fill:#f60;stroke-linecap:round;stroke-linejoin:round;stroke-width:1.8898;stroke:#f60"/>
  <path d="m261.72 1046.5c6.4941 8.2149 8.2156 10.33 8.2156 10.33" style="fill:#f60;stroke-linecap:round;stroke-linejoin:round;stroke-width:1.8898;stroke:#f60"/>
  <path d="m243.78 1052.7c-6.4941 8.215-8.2156 10.33-8.2156 10.33" style="fill:#f60;stroke-linecap:round;stroke-linejoin:round;stroke-width:1.8898;stroke:#f60"/>
  <path d="m235.57 1052.7c6.4941 8.215 8.2156 10.33 8.2156 10.33" style="fill:#f60;stroke-linecap:round;stroke-linejoin:round;stroke-width:1.8898;stroke:#f60"/>
  <g transform="translate(321.96 1030.3)">
   <ellipse cx="-291.36" cy="29.373" rx="13.199" ry="13.469" style="fill:#1f638a;stroke-linecap:round;stroke-linejoin:round;stroke-width:1.0658"/>
   <text x="-298.78693" y="37.00808" style="fill:#000000;font-family:'Arial Nova', 'Arial Unicode MS', 'Yu Gothic UI', sans-serif;font-size:12.8px;letter-spacing:0px;line-height:0%;stroke-width:1.0667;word-spacing:0px" xml:space="preserve"><tspan x="-298.78693" y="37.00808" style="fill:#ffffff;font-family:'Arial Nova', 'Arial Unicode MS', 'Yu Gothic UI', sans-serif;font-size:21.333px;font-weight:bold;stroke-width:1.0667">B</tspan></text>
  </g>
  <path d="m100.5 1096.1 6.2254-5.147 6.9023 14.13 6.2932-3.0741-6.9023-14.13 7.4286-1.5229-19.542-14.716z" style="fill:#fff;stroke-linecap:round;stroke-linejoin:round;stroke-width:.75591;stroke:#000"/>
  <path d="m270.22 1082.2 6.2254-5.147 6.9023 14.13 6.2932-3.0742-6.9023-14.13 7.4286-1.523-19.542-14.716z" style="fill:#fff;stroke-linecap:round;stroke-linejoin:round;stroke-width:.75591;stroke:#000"/>
 </g>
</svg>
