<?xml version="1.0" encoding="UTF-8"?>
<svg width="18cm" height="7.5cm" version="1.1" xmlns="http://www.w3.org/2000/svg"><path d="m297.33 50.55c43.4 44.526 17.103 117.03-118.53 149.6" style="fill:none;stroke-linecap:round;stroke-linejoin:round;stroke-width:3.7795;stroke:#f00"/><path d="m270.54 20.14 27.18 30.832" style="fill:none;stroke-linecap:round;stroke-linejoin:round;stroke-width:3.7795;stroke:#000"/><path d="m122.15 86.32 19.531 21.665" style="fill:#b3b3b3;stroke-linecap:round;stroke-linejoin:round;stroke-width:.94488;stroke:#b3b3b3"/><path d="m141.88 77.91-0.31001 30.284" style="fill:#b3b3b3;stroke-linecap:round;stroke-linejoin:round;stroke-width:.94488;stroke:#b3b3b3"/><path d="m179.86 98.98-38.184 9.1037" style="fill:#b3b3b3;stroke-linecap:round;stroke-linejoin:round;stroke-width:.94488;stroke:#b3b3b3"/><path d="m142.13 59.06 5.1369 20.981-10.145 0.031c1.764-10.646 5.0077-21.012 5.0077-21.012z" style="fill:#b3b3b3;stroke-linecap:round;stroke-linejoin:round;stroke-width:1.8898;stroke:#b3b3b3"/><path d="m108.28 70.05 9.8873 19.205 7.6769-6.6317c-8.3155-6.8776-17.564-12.573-17.564-12.573z" style="fill:#b3b3b3;stroke-linecap:round;stroke-linejoin:round;stroke-width:1.8898;stroke:#b3b3b3"/><path d="m351.19 158.32-70.208 16.776" style="fill:none;stroke-linecap:round;stroke-linejoin:round;stroke-width:1.8898;stroke:#fff"/><path d="m251.45 141.11 29.878 34.403" style="fill:none;stroke-linecap:round;stroke-linejoin:round;stroke-width:1.8898;stroke:#f00"/><path d="m280.68 109.04 5.0983 20.99-10.145 0.013c1.7836-10.643 5.0464-21.003 5.0464-21.003z" style="fill:#0f0;stroke-linecap:round;stroke-linejoin:round;stroke-width:1.8898;stroke:#0f0"/><path d="m280.75 131.15 0.39527 43.946" style="fill:#0f0;stroke-linecap:round;stroke-linejoin:round;stroke-width:1.8898;stroke:#0f0"/><path d="m372.85 153.81-20.614 10.742-2.2235-11.447c11.404-0.5158 22.837 0.705 22.837 0.705z" style="fill:#f00;stroke-linecap:round;stroke-linejoin:round;stroke-width:1.8898;stroke:#fff"/><path d="m351.19 158.32-70.006 16.322" style="fill:#00f;stroke-linecap:round;stroke-linejoin:round;stroke-width:1.8898;stroke:#00f"/><path d="m372.48 154.37-19.49 9.3133-2.1023-9.9245c10.782-0.4472 21.592 0.6112 21.592 0.6112z" style="fill:#00f;stroke-linecap:round;stroke-linejoin:round;stroke-width:1.8898;stroke:#00f"/><path d="m236.37 125.13 18.166 11.687-7.3388 7.004c-6.0465-8.9381-10.827-18.691-10.827-18.691z" style="fill:#f00;stroke-linecap:round;stroke-linejoin:round;stroke-width:1.8898;stroke:#f00"/><path d="m187.73 97.14-19.387 9.5259-2.2107-9.9009 21.597 0.375z" style="fill:#b3b3b3;stroke-linecap:round;stroke-linejoin:round;stroke-width:1.8898;stroke:#b3b3b3"/><text x="364.15961" y="171.302" style="fill:#000000;font-family:'Arial Nova', 'Arial Unicode MS', 'Yu Gothic UI', sans-serif;font-size:12.8px;letter-spacing:0px;line-height:0%;stroke-width:1.0667;stroke:#0000ff;word-spacing:0px" xml:space="preserve"><tspan x="364.15961" y="171.302" style="font-family:'Arial Nova', 'Arial Unicode MS', 'Yu Gothic UI', sans-serif;stroke-width:1.0667;stroke:#0000ff">Z</tspan></text><path d="m30.128 233.68 48.913-10.639" style="fill:none;stroke-linecap:round;stroke-linejoin:round;stroke-width:3.7795;stroke:#000"/><path d="m78.976 223.1 99.91-23.136" style="fill:none;stroke-linecap:round;stroke-linejoin:round;stroke-width:3.7795;stroke:#f00"/><path d="m398.66 222.09 99.91-23.136" style="fill:none;stroke-linecap:round;stroke-linejoin:round;stroke-width:3.7795;stroke:#f00"/><path d="m615.33 50.55c43.4 44.526 17.103 117.03-118.53 149.6" style="fill:none;stroke-linecap:round;stroke-linejoin:round;stroke-width:3.7795;stroke:#f00"/><path d="m588.54 20.14 27.18 30.832" style="fill:none;stroke-linecap:round;stroke-linejoin:round;stroke-width:3.7795;stroke:#000"/><path d="m440.15 86.32 19.531 21.665" style="fill:#b3b3b3;stroke-linecap:round;stroke-linejoin:round;stroke-width:.94488;stroke:#b3b3b3"/><path d="m459.88 77.91-0.31001 30.284" style="fill:#b3b3b3;stroke-linecap:round;stroke-linejoin:round;stroke-width:.94488;stroke:#b3b3b3"/><path d="m497.86 98.98-38.184 9.1037" style="fill:#b3b3b3;stroke-linecap:round;stroke-linejoin:round;stroke-width:.94488;stroke:#b3b3b3"/><path d="m460.13 59.06 5.1369 20.981-10.145 0.031c1.764-10.646 5.0077-21.012 5.0077-21.012z" style="fill:#b3b3b3;stroke-linecap:round;stroke-linejoin:round;stroke-width:1.8898;stroke:#b3b3b3"/><path d="m426.28 70.05 9.8873 19.205 7.6769-6.6317c-8.3155-6.8776-17.564-12.573-17.564-12.573z" style="fill:#b3b3b3;stroke-linecap:round;stroke-linejoin:round;stroke-width:1.8898;stroke:#b3b3b3"/><g transform="matrix(1 0 0 -1 -52 1088.2)" style="fill:#0f0;stroke:#0f0"><path d="m548.13 816.08 5.0983 20.99-10.145 0.0126c1.7836-10.643 5.0464-21.003 5.0464-21.003z" style="fill:#0f0;stroke-linecap:round;stroke-linejoin:round;stroke-width:1.8898;stroke:#0f0"/><path d="m548.2 838.19 0.39527 43.946" style="fill:#0f0;stroke-linecap:round;stroke-linejoin:round;stroke-width:1.8898;stroke:#0f0"/></g><g transform="rotate(180 521.27 690.47)" style="fill:#00f;stroke:#00f"><path d="m618.55 1164.2-70.006 16.322" style="fill:#00f;stroke-linecap:round;stroke-linejoin:round;stroke-width:1.8898;stroke:#00f"/><path d="m639.93 1159.4-19.49 9.3133-2.1023-9.9245c10.782-0.4472 21.592 0.6112 21.592 0.6112z" style="fill:#00f;stroke-linecap:round;stroke-linejoin:round;stroke-width:1.8898;stroke:#00f"/></g><g transform="translate(-51.978 -980.45)"><path d="m518.9 1146.2 29.878 34.403" style="fill:none;stroke-linecap:round;stroke-linejoin:round;stroke-width:1.8898;stroke:#f00"/><path d="m503.82 1130.2 18.166 11.687-7.3388 7.004c-6.0465-8.9381-10.827-18.691-10.827-18.691z" style="fill:#f00;stroke-linecap:round;stroke-linejoin:round;stroke-width:1.8898;stroke:#f00"/></g><path d="m505.73 97.14-19.387 9.5259-2.2107-9.9009 21.597 0.375z" style="fill:#b3b3b3;stroke-linecap:round;stroke-linejoin:round;stroke-width:1.8898;stroke:#b3b3b3"/><text x="414.46985" y="236.96582" style="fill:#0000ff;font-family:'Arial Nova', 'Arial Unicode MS', 'Yu Gothic UI', sans-serif;font-size:12.8px;letter-spacing:0px;line-height:0%;stroke-width:1.0667;stroke:#0000ff;word-spacing:0px" xml:space="preserve"><tspan x="414.46985" y="236.96582" style="fill:#0000ff;font-family:'Arial Nova', 'Arial Unicode MS', 'Yu Gothic UI', sans-serif;stroke-width:1.0667;stroke:#0000ff">Z</tspan></text><ellipse transform="rotate(-2)" cx="489.64" cy="217.48" rx="4.0406" ry="3.7795" style="fill:#f00;stroke-linecap:round;stroke-linejoin:round;stroke-width:3.7837;stroke:#f00"/><path d="m348.13 233.68 48.913-10.639" style="fill:none;stroke-linecap:round;stroke-linejoin:round;stroke-width:3.7795;stroke:#000"/><path d="m180.39 223.83 100.54-23.61" style="stroke-linecap:round;stroke-linejoin:round;stroke-width:.94488;stroke:#000"/><path d="m280.8 200.19-13.155-1.5935 1.7511 8.5851z" style="stroke-linecap:round;stroke-linejoin:round;stroke-width:1.0658;stroke:#000"/><path d="m178.43 202.58v26.256" style="stroke-linecap:round;stroke-linejoin:round;stroke-width:.75591;stroke:#000"/><ellipse transform="rotate(-2)" cx="170.42" cy="205.85" rx="4.0406" ry="3.7795" style="fill:#f00;stroke-linecap:round;stroke-linejoin:round;stroke-width:3.7837;stroke:#f00"/><path d="m179.07 223.79 11.514-6.5599 1.7074 8.594z" style="stroke-linecap:round;stroke-linejoin:round;stroke-width:1.0658;stroke:#000"/><path d="m281.6 176.37v27.997" style="stroke-linecap:round;stroke-linejoin:round;stroke-width:.75591;stroke:#000"/><g transform="translate(315.46 333.22)"><ellipse cx="142.29" cy="-98.798" rx="13.199" ry="13.469" style="fill:#1f638a;stroke-linecap:round;stroke-linejoin:round;stroke-width:1.0658"/><text x="136.44678" y="-91.26651" style="fill:#000000;font-family:'Arial Nova', 'Arial Unicode MS', 'Yu Gothic UI', sans-serif;font-size:12.8px;letter-spacing:0px;line-height:0%;stroke-width:1.0667;word-spacing:0px" xml:space="preserve"><tspan x="136.44678" y="-91.26651" style="fill:#ffffff;font-family:'Arial Nova', 'Arial Unicode MS', 'Yu Gothic UI', sans-serif;font-size:21.333px;line-height:1.25;stroke-width:1.0667;stroke:#ffffff">7</tspan></text></g><g transform="translate(127.29 327.03)"><ellipse cx="111.09" cy="-98.798" rx="13.199" ry="13.469" style="fill:#1f638a;stroke-linecap:round;stroke-linejoin:round;stroke-width:1.0658"/><text x="105.24544" y="-91.256096" style="fill:#000000;font-family:'Arial Nova', 'Arial Unicode MS', 'Yu Gothic UI', sans-serif;font-size:12.8px;letter-spacing:0px;line-height:0%;stroke-width:1.0667;word-spacing:0px" xml:space="preserve"><tspan x="105.24544" y="-91.256096" style="fill:#ffffff;font-family:'Arial Nova', 'Arial Unicode MS', 'Yu Gothic UI', sans-serif;font-size:21.333px;line-height:1.25;stroke-width:1.0667;stroke:#ffffff">6</tspan></text></g></svg>
