<?xml version="1.0" encoding="UTF-8"?>
<svg width="15cm" height="4cm" overflow="visible" version="1.0" viewBox="13.053 -3854.9 566.92 151.18" xmlns="http://www.w3.org/2000/svg" xmlns:xlink="http://www.w3.org/1999/xlink">
 <defs>
  <linearGradient id="linearGradient6218-7-4-0-5-2-09">
   <stop stop-color="#ff8500" offset="0"/>
   <stop stop-color="#fff" offset="1"/>
  </linearGradient>
  <linearGradient id="linearGradient1341" x1="350.91" x2="624.17" y1="-3594.9" y2="-3594.9" gradientUnits="userSpaceOnUse" xlink:href="#linearGradient6218-7-4-0-5-2-09"/>
  <linearGradient id="linearGradient7747-2-1">
   <stop stop-color="#fff" offset="0"/>
   <stop stop-color="#808080" offset="1"/>
  </linearGradient>
  <linearGradient id="linearGradient2663" x1="350.91" x2="624.17" y1="-3594.9" y2="-3594.9" gradientUnits="userSpaceOnUse" xlink:href="#linearGradient7747-2-1"/>
 </defs>
 <g transform="translate(0 -5.6923)">
  <g transform="matrix(-1 0 0 1 921.8 -178.91)" fill="url(#linearGradient2663)" stroke="#7c7c7c" stroke-linecap="round" stroke-linejoin="round" stroke-width="1.4324">
   <line x1="460.66" x2="460.62" y1="-3576.1" y2="-3576.1" color="#260000"/>
   <path d="m399.95-3577.9c-15.388-4.4231-30.776-8.846-46.164-13.269l-2.1556-0.619 38.896-18.678c4.6186 1.3274 9.2373 2.6548 13.856 3.9824 21.299 5.2905 41.92 13.71 63.598 16.991 1.1401 2.1161 2.3973 4.288 3.7204 6.4162-3.2901 2.6662-6.88 4.9655-10.882 6.9237-19.409 10.012-41.55 4.8739-60.869-1.7474z" color="#000000"/>
   <path d="m510.25-3601.6c10.016 15.244 23.7 28.323 40.13 36.486 23.542 9.7456 48.807 14.697 73.077 22.403l-38.896 18.677c-24.27-7.7059-49.535-12.657-73.077-22.403-16.43-8.1638-30.114-21.243-40.13-36.483 12.964-6.2274 25.936-12.441 38.896-18.68z" color="#000000"/>
   <path d="m460.66-3576.1c3.8062-1.8633 7.396-4.1626 10.686-6.8289l0.82482 1.3034-11.858 5.6942" color="#000000"/>
   <path d="m495.79-3635.2c-0.99783 19.659-8.7956 39.686-24.44 52.315-11.542-18.564-18.056-40.447-17.347-62.354l0.0865-1.9465c-1.3322 15.887 14.946 35.688 31.84 28.459 6.2424-2.9371 9.5767-9.8358 9.86-16.473z" color="#000000"/>
   <path d="m495.79-3635.2c-0.28327 6.6371-3.6176 13.536-9.86 16.473-16.894 7.2291-33.172-12.572-31.84-28.459l38.896-18.677c-0.48764 10.002 4.4946 20.133 12.692 25.915z" color="#000000"/>
   <path d="m471.35-3582.9c15.644-12.629 23.442-32.655 24.44-52.315l38.896-18.677c-0.99784 19.659-8.7956 39.686-24.44 52.312-12.96 6.2358-25.932 12.45-38.896 18.68z" color="#260000"/>
   <path d="m495.79-3635.2c-0.28328 6.637-3.6176 13.536-9.8539 16.469l8.2722-3.9028c0.83937-4.104 1.3674-8.3434 1.5817-12.566z" color="#000000"/>
  </g>
  <path d="m410.6-3782.1a1.8898 1.8898 0 0 0-1.0781 0.9648 1.8898 1.8898 0 0 0 0.88672 2.5215l38.545 18.504a1.8898 1.8898 0 0 0 2.5215-0.8848 1.8898 1.8898 0 0 0-0.88672-2.5214l-38.545-18.504a1.8898 1.8898 0 0 0-1.4434-0.08z" color="#000000" fill="#fff" fill-rule="evenodd" stroke="#000" stroke-linecap="round" stroke-linejoin="round" stroke-width=".37796"/>
  <g transform="matrix(1 0 0 1 455.8 -3662.6)">
   <ellipse cx="17.483" cy="-98.798" rx="13.199" ry="13.469" fill="#1f638a" stroke-linecap="round" stroke-linejoin="round" stroke-width="1.0658"/>
   <text x="11.641406" y="-91.256096" fill="#000000" font-family="'Arial Nova', 'Arial Unicode MS', 'Yu Gothic UI', sans-serif" font-size="12.8px" letter-spacing="0px" stroke-width="1.0667" word-spacing="0px" style="line-height:0%" xml:space="preserve"><tspan x="11.641406" y="-91.256096" fill="#ffffff" font-family="'Arial Nova', 'Arial Unicode MS', 'Yu Gothic UI', sans-serif" font-size="21.333px" stroke="#ffffff" stroke-width="1.0667" style="line-height:1.25">3</tspan></text>
  </g>
 </g>
 <g transform="translate(0 -2)">
  <g transform="matrix(-1 0 0 1 646.26 -182.6)" fill="url(#linearGradient1341)" stroke="#7c7c7c" stroke-linecap="round" stroke-linejoin="round" stroke-width="1.4324">
   <line x1="460.66" x2="460.62" y1="-3576.1" y2="-3576.1" color="#260000"/>
   <path d="m399.95-3577.9c-15.388-4.4231-30.776-8.846-46.164-13.269l-2.1556-0.619 38.896-18.678c4.6186 1.3274 9.2373 2.6548 13.856 3.9824 21.299 5.2905 41.92 13.71 63.598 16.991 1.1401 2.1161 2.3973 4.288 3.7204 6.4162-3.2901 2.6662-6.88 4.9655-10.882 6.9237-19.409 10.012-41.55 4.8739-60.869-1.7474z" color="#000000"/>
   <path d="m510.25-3601.6c10.016 15.244 23.7 28.323 40.13 36.486 23.542 9.7456 48.807 14.697 73.077 22.403l-38.896 18.677c-24.27-7.7059-49.535-12.657-73.077-22.403-16.43-8.1638-30.114-21.243-40.13-36.483 12.964-6.2274 25.936-12.441 38.896-18.68z" color="#000000"/>
   <path d="m460.66-3576.1c3.8062-1.8633 7.396-4.1626 10.686-6.8289l0.82482 1.3034-11.858 5.6942" color="#000000"/>
   <path d="m495.79-3635.2c-0.99783 19.659-8.7956 39.686-24.44 52.315-11.542-18.564-18.056-40.447-17.347-62.354l0.0865-1.9465c-1.3322 15.887 14.946 35.688 31.84 28.459 6.2424-2.9371 9.5767-9.8358 9.86-16.473z" color="#000000"/>
   <path d="m495.79-3635.2c-0.28327 6.6371-3.6176 13.536-9.86 16.473-16.894 7.2291-33.172-12.572-31.84-28.459l38.896-18.677c-0.48764 10.002 4.4946 20.133 12.692 25.915z" color="#000000"/>
   <path d="m471.35-3582.9c15.644-12.629 23.442-32.655 24.44-52.315l38.896-18.677c-0.99784 19.659-8.7956 39.686-24.44 52.312-12.96 6.2358-25.932 12.45-38.896 18.68z" color="#260000"/>
   <path d="m495.79-3635.2c-0.28328 6.637-3.6176 13.536-9.8539 16.469l8.2722-3.9028c0.83937-4.104 1.3674-8.3434 1.5817-12.566z" color="#000000"/>
  </g>
  <path d="m114.83-3719.3 6.2254-5.1469 6.9023 14.13 6.2932-3.0742-6.9023-14.13 7.4286-1.523-19.542-14.716z" fill="#fff" stroke="#000" stroke-linecap="round" stroke-linejoin="round" stroke-width=".7559"/>
  <g transform="translate(193.93 -3627.4)">
   <ellipse cx="-44.92" cy="-98.798" rx="13.199" ry="13.469" fill="#1f638a" stroke-linecap="round" stroke-linejoin="round" stroke-width="1.0658"/>
   <text x="-50.761276" y="-91.125885" fill="#000000" font-family="'Arial Nova', 'Arial Unicode MS', 'Yu Gothic UI', sans-serif" font-size="12.8px" letter-spacing="0px" stroke-width="1.0667" word-spacing="0px" style="line-height:0%" xml:space="preserve"><tspan x="-50.761276" y="-91.125885" fill="#ffffff" font-family="'Arial Nova', 'Arial Unicode MS', 'Yu Gothic UI', sans-serif" font-size="21.333px" stroke="#ffffff" stroke-width="1.0667" style="line-height:1.25">1</tspan></text>
  </g>
  <text x="82.974167" y="-3756.2041" fill="none" font-family="'Arial Nova', 'Arial Unicode MS', 'Yu Gothic UI', sans-serif" font-size="10.667px" letter-spacing="0px" stroke="#000000" stroke-width="1px" word-spacing="0px" style="line-height:0" xml:space="preserve"><tspan x="82.974167" y="-3756.2041" stroke-width="1px">A1</tspan></text>
 </g>
 <g transform="matrix(.2917 0 0 .28875 274.77 -3818)" fill="#1f638a" stroke="#1f638a" stroke-linecap="round" stroke-linejoin="round" stroke-width="1.3023">
  <path d="m207.49 126.25 34.17 21.614-34.17 21.614z"/>
  <rect x="172.19" y="137.99" width="39.213" height="19.761"/>
 </g>
</svg>
