<?xml version="1.0" encoding="UTF-8"?>
<svg width="13cm" height="6cm" version="1.1" viewBox="0 0 130 60" xmlns="http://www.w3.org/2000/svg" xmlns:cc="http://creativecommons.org/ns#" xmlns:dc="http://purl.org/dc/elements/1.1/" xmlns:rdf="http://www.w3.org/1999/02/22-rdf-syntax-ns#">
 <metadata>
  <rdf:RDF>
   <cc:Work rdf:about="">
    <dc:format>image/svg+xml</dc:format>
    <dc:type rdf:resource="http://purl.org/dc/dcmitype/StillImage"/>
   </cc:Work>
  </rdf:RDF>
 </metadata>
 <path d="m4.1703 6.1499h49.351v50.87h-49.351z" color="#000000" fill="#fff" stroke="#7dc2d3" stroke-linecap="round" stroke-linejoin="round" stroke-width=".84813"/>
 <path d="m7.2977 14.945h43.099v38.31h-43.099z" fill="#bff" opacity=".50896" stroke="#00aad4" stroke-width=".34195"/>
 <text x="8.3983183" y="12.075677" fill="#000000" font-family="'Arial Nova', 'Arial Unicode MS', 'Yu Gothic UI', sans-serif" font-size="3.3867px" letter-spacing="0px" stroke-width=".28223" word-spacing="0px" style="line-height:0%" xml:space="preserve"><tspan x="8.3983183" y="12.075677" font-size="4.5157px" stroke-width=".28223" style="line-height:1.25">*.pt</tspan></text>
 <g transform="matrix(.07718 0 0 .076399 42.153 18.888)" fill="#1f638a" stroke="#1f638a" stroke-linecap="round" stroke-linejoin="round" stroke-width="1.3023">
  <path d="m207.49 126.25 34.17 21.614-34.17 21.614z"/>
  <rect x="172.19" y="137.99" width="39.213" height="19.761"/>
 </g>
 <g fill="none" font-family="'Arial Nova', 'Arial Unicode MS', 'Yu Gothic UI', sans-serif" font-size="2.8222px" letter-spacing="0px" stroke="#000" stroke-width=".26458px" word-spacing="0px">
  <text x="6.1471992" y="-12.962572" style="line-height:0" xml:space="preserve"><tspan x="6.1471992" y="-12.962572" stroke-width=".26458px"/></text>
  <text x="9.1379137" y="19.932106" style="line-height:0" xml:space="preserve"><tspan x="9.1379137" y="19.932106" fill="#000000" stroke="none" stroke-width=".26458px">1 "50.000", "-0.000", "0.000"</tspan></text>
  <text x="9.3639126" y="25.02137" style="line-height:0" xml:space="preserve"><tspan x="9.3639126" y="25.02137" fill="#000000" stroke="none" stroke-width=".26458px">2 "25.000", "-43.301", "0.000"</tspan></text>
  <text x="9.3267059" y="30.110628" style="line-height:0" xml:space="preserve"><tspan x="9.3267059" y="30.110628" fill="#000000" stroke="none" stroke-width=".26458px">3 "-25.000", "-43.301", "0.000"</tspan></text>
  <text x="9.4080105" y="35.199886" style="line-height:0" xml:space="preserve"><tspan x="9.4080105" y="35.199886" fill="#000000" stroke="none" stroke-width=".26458px">4 "-50.000", "0.000", "0.000"</tspan></text>
  <text x="9.3211937" y="40.289143" style="line-height:0" xml:space="preserve"><tspan x="9.3211937" y="40.289143" fill="#000000" stroke="none" stroke-width=".26458px">5 "-25.000", "43.301", "0.000"</tspan></text>
  <text x="9.3322182" y="45.378399" style="line-height:0" xml:space="preserve"><tspan x="9.3322182" y="45.378399" fill="#000000" stroke="none" stroke-width=".26458px">6 "25.000", "43.301", "0.000"</tspan></text>
  <text x="9.3156815" y="50.467659" style="line-height:0" xml:space="preserve"><tspan x="9.3156815" y="50.467659" fill="#000000" stroke="none" stroke-width=".26458px">7 "50.000", "0.000", "0.000"</tspan></text>
 </g>
 <g transform="translate(90.277 -54.724)" stroke="#000" stroke-linecap="round" stroke-linejoin="round" stroke-width=".2">
  <ellipse transform="matrix(.9993 -.037301 .032652 .99947 0 0)" cx="14.877" cy="59.283" rx="1.4002" ry="1.3998"/>
  <ellipse transform="matrix(.9993 -.037301 .032652 .99947 0 0)" cx="27.866" cy="59.768" rx="1.4002" ry="1.3998"/>
  <ellipse transform="matrix(.9993 -.037301 .032652 .99947 0 0)" cx="34.046" cy="71.232" rx="1.4002" ry="1.3998"/>
  <ellipse transform="matrix(.9993 -.037301 .032652 .99947 0 0)" cx="27.131" cy="82.239" rx="1.4002" ry="1.3998"/>
  <ellipse transform="matrix(.9993 -.037301 .032652 .99947 0 0)" cx="14.142" cy="81.754" rx="1.4002" ry="1.3998"/>
  <ellipse transform="matrix(.9993 -.037301 .032652 .99947 0 0)" cx="8.0013" cy="70.26" rx="1.4002" ry="1.3998"/>
 </g>
 <g transform="translate(71.016 -25.945)" stroke="#000" stroke-linecap="round" stroke-linejoin="round" stroke-width=".2">
  <ellipse transform="matrix(.9993 -.037301 .032652 .99947 0 0)" cx="14.877" cy="59.283" rx="1.4002" ry="1.3998"/>
  <ellipse transform="matrix(.9993 -.037301 .032652 .99947 0 0)" cx="27.866" cy="59.768" rx="1.4002" ry="1.3998"/>
  <ellipse transform="matrix(.9993 -.037301 .032652 .99947 0 0)" cx="34.046" cy="71.232" rx="1.4002" ry="1.3998"/>
  <ellipse transform="matrix(.9993 -.037301 .032652 .99947 0 0)" cx="27.131" cy="82.239" rx="1.4002" ry="1.3998"/>
  <ellipse transform="matrix(.9993 -.037301 .032652 .99947 0 0)" cx="14.142" cy="81.754" rx="1.4002" ry="1.3998"/>
  <ellipse transform="matrix(.9993 -.037301 .032652 .99947 0 0)" cx="8.0013" cy="70.26" rx="1.4002" ry="1.3998"/>
 </g>
 <path d="m87.768 32.139a0.50005 0.50005 0 0 0-0.42773 0.24219l-6.791 11.232a0.50005 0.50005 0 0 0-2e-3 0.51172l6.7891 11.486a0.50005 0.50005 0 0 0 0.43164 0.24609h13.029a0.50005 0.50005 0 0 0 0.42773-0.24219l6.8965-11.486a0.50005 0.50005 0 0 0-2e-3 -0.51953l-6.8965-11.232a0.50005 0.50005 0 0 0-0.42578-0.23828zm0.2832 1h12.465l6.5918 10.734-6.5938 10.984h-12.461l-6.4922-10.984z" color="#000000" fill="#fff" stroke="#000" stroke-linecap="round" stroke-linejoin="round" stroke-width=".1"/>
 <g transform="translate(-6.0395 -57.057)" stroke="#000" stroke-linecap="round" stroke-linejoin="round" stroke-width=".2">
  <g transform="translate(60.202 2.223)">
   <ellipse transform="matrix(.9993 -.037301 .032652 .99947 0 0)" cx="14.877" cy="59.283" rx="1.4002" ry="1.3998"/>
   <ellipse transform="matrix(.9993 -.037301 .032652 .99947 0 0)" cx="27.866" cy="59.768" rx="1.4002" ry="1.3998"/>
   <ellipse transform="matrix(.9993 -.037301 .032652 .99947 0 0)" cx="34.046" cy="71.232" rx="1.4002" ry="1.3998"/>
   <ellipse transform="matrix(.9993 -.037301 .032652 .99947 0 0)" cx="27.131" cy="82.239" rx="1.4002" ry="1.3998"/>
   <ellipse transform="matrix(.9993 -.037301 .032652 .99947 0 0)" cx="14.142" cy="81.754" rx="1.4002" ry="1.3998"/>
   <ellipse transform="matrix(.9993 -.037301 .032652 .99947 0 0)" cx="8.0013" cy="70.26" rx="1.4002" ry="1.3998"/>
  </g>
  <path d="m77.276 60.804h13.029l6.8962 11.232-6.8962 11.486h-13.029l-6.7895-11.486z" fill="none" stroke-dasharray="0.6, 0.6"/>
 </g>
 <g transform="matrix(.26458 0 0 .26458 89.286 41.356)">
  <ellipse cx="-44.92" cy="-98.798" rx="13.199" ry="13.469" fill="#1f638a" stroke-linecap="round" stroke-linejoin="round" stroke-width="1.0658"/>
  <text x="-50.761276" y="-91.125885" fill="#000000" font-family="'Arial Nova', 'Arial Unicode MS', 'Yu Gothic UI', sans-serif" font-size="12.8px" letter-spacing="0px" stroke-width="1.0667" word-spacing="0px" style="line-height:0%" xml:space="preserve"><tspan x="-50.761276" y="-91.125885" fill="#ffffff" font-family="'Arial Nova', 'Arial Unicode MS', 'Yu Gothic UI', sans-serif" font-size="21.333px" stroke="#ffffff" stroke-width="1.0667" style="line-height:1.25">1</tspan></text>
 </g>
 <g transform="matrix(.26458 0 0 .26458 117.26 41.246)">
  <ellipse cx="-13.718" cy="-98.798" rx="13.199" ry="13.469" fill="#1f638a" stroke-linecap="round" stroke-linejoin="round" stroke-width="1.0658"/>
  <text x="-19.559933" y="-91.125885" fill="#000000" font-family="'Arial Nova', 'Arial Unicode MS', 'Yu Gothic UI', sans-serif" font-size="12.8px" letter-spacing="0px" stroke-width="1.0667" word-spacing="0px" style="line-height:0%" xml:space="preserve"><tspan x="-19.559933" y="-91.125885" fill="#ffffff" font-family="'Arial Nova', 'Arial Unicode MS', 'Yu Gothic UI', sans-serif" font-size="21.333px" stroke="#ffffff" stroke-width="1.0667" style="line-height:1.25">2</tspan></text>
 </g>
 <g transform="matrix(.26458 0 0 .26458 89.709 70.135)">
  <ellipse cx="17.483" cy="-98.798" rx="13.199" ry="13.469" fill="#1f638a" stroke-linecap="round" stroke-linejoin="round" stroke-width="1.0658"/>
  <text x="11.641406" y="-91.256096" fill="#000000" font-family="'Arial Nova', 'Arial Unicode MS', 'Yu Gothic UI', sans-serif" font-size="12.8px" letter-spacing="0px" stroke-width="1.0667" word-spacing="0px" style="line-height:0%" xml:space="preserve"><tspan x="11.641406" y="-91.256096" fill="#ffffff" font-family="'Arial Nova', 'Arial Unicode MS', 'Yu Gothic UI', sans-serif" font-size="21.333px" stroke="#ffffff" stroke-width="1.0667" style="line-height:1.25">3</tspan></text>
 </g>
</svg>
