<?xml version="1.0" encoding="UTF-8"?>
<svg width="18cm" height="8.5cm" version="1.1" xmlns="http://www.w3.org/2000/svg" xmlns:osb="http://www.openswatchbook.org/uri/2009/osb" xmlns:xlink="http://www.w3.org/1999/xlink">
 <defs>
  <linearGradient id="linearGradient7747">
   <stop style="stop-color:#fff" offset="0"/>
   <stop style="stop-color:#ebedee" offset="1"/>
  </linearGradient>
  <linearGradient id="linearGradient7747-8">
   <stop style="stop-color:#fff" offset="0"/>
   <stop style="stop-color:#808080" offset="1"/>
  </linearGradient>
  <linearGradient id="linearGradient7912" x1="286.83" x2="215.88" y1="-25.488" y2="70.512" gradientTransform="matrix(1.5852 0 0 1.5852 275.35 116.95)" gradientUnits="userSpaceOnUse" xlink:href="#linearGradient7747"/>
  <linearGradient id="linearGradient7916" x1="140.57" x2="227.95" y1="37.144" y2="38.144" gradientTransform="matrix(1.5852 0 0 1.5852 275.35 116.95)" gradientUnits="userSpaceOnUse" xlink:href="#linearGradient7747"/>
  <linearGradient id="linearGradient7919" x1="90.817" x2="164.95" y1="24.984" y2="24.984" gradientTransform="matrix(1.5852 0 0 1.5852 275.35 116.95)" gradientUnits="userSpaceOnUse" xlink:href="#linearGradient7747"/>
  <linearGradient id="linearGradient7940" x1="171.66" x2="170.61" y1="109.89" y2="187.39" gradientTransform="matrix(1.5852 0 0 1.5852 275.35 116.95)" gradientUnits="userSpaceOnUse" xlink:href="#linearGradient7747-8"/>
  <linearGradient id="linearGradient7943" x1="308.23" x2="238.39" y1="141.73" y2="220.35" gradientTransform="matrix(1.5852 0 0 1.5852 275.35 116.95)" gradientUnits="userSpaceOnUse" xlink:href="#linearGradient7747-8"/>
  <linearGradient id="linearGradient7946" x1="178.16" x2="273.13" y1="85.089" y2="85.089" gradientTransform="matrix(1.5852 0 0 1.5852 275.35 116.95)" gradientUnits="userSpaceOnUse" xlink:href="#linearGradient7747-8"/>
  <linearGradient id="linearGradient7949" x1="162.5" x2="203.85" y1="50.789" y2="51.789" gradientTransform="matrix(1.5852 0 0 1.5852 275.35 116.95)" gradientUnits="userSpaceOnUse" xlink:href="#linearGradient7747-8"/>
  <linearGradient id="linearGradient7952" x1="103.11" x2="201.69" y1="36.307" y2="36.307" gradientTransform="matrix(1.5852 0 0 1.5852 275.35 116.95)" gradientUnits="userSpaceOnUse" xlink:href="#linearGradient7747-8"/>
  <linearGradient id="linearGradient7955" x1="62.252" x2="62.001" y1="7.5798" y2="136.83" gradientTransform="matrix(1.5852 0 0 1.5852 275.35 116.95)" gradientUnits="userSpaceOnUse" xlink:href="#linearGradient7747-8"/>
  <linearGradient id="linearGradient7958" x1="108.95" x2="115.11" y1="20.604" y2="179.85" gradientTransform="matrix(1.5852 0 0 1.5852 275.35 116.95)" gradientUnits="userSpaceOnUse" xlink:href="#linearGradient7747-8"/>
  <linearGradient id="linearGradient7961" x1="91.502" x2="93.928" y1="34.714" y2="192.96" gradientTransform="matrix(1.5852 0 0 1.5852 275.35 116.95)" gradientUnits="userSpaceOnUse" xlink:href="#linearGradient7747"/>
  <linearGradient id="linearGradient7964" x1="286.42" x2="230.32" y1="109.36" y2="163.31" gradientTransform="matrix(1.5852 0 0 1.5852 275.35 116.95)" gradientUnits="userSpaceOnUse" xlink:href="#linearGradient7747-8"/>
  <linearGradient id="linearGradient7968" x1="37.99" x2="39.647" y1="32.998" y2="126" gradientTransform="matrix(1.5852 0 0 1.5852 275.35 116.95)" gradientUnits="userSpaceOnUse" xlink:href="#linearGradient7747"/>
  <linearGradient id="linearGradient8085" x1="37.99" x2="39.647" y1="32.998" y2="126" gradientTransform="matrix(1.5852 0 0 1.5852 -68.12 42.283)" gradientUnits="userSpaceOnUse" xlink:href="#linearGradient7747"/>
  <linearGradient id="linearGradient8087" x1="286.42" x2="230.32" y1="109.36" y2="163.31" gradientTransform="matrix(1.5852 0 0 1.5852 -68.12 42.283)" gradientUnits="userSpaceOnUse" xlink:href="#linearGradient7747-8"/>
  <linearGradient id="linearGradient8089" x1="91.502" x2="93.928" y1="34.714" y2="192.96" gradientTransform="matrix(1.5852 0 0 1.5852 -68.12 42.283)" gradientUnits="userSpaceOnUse" xlink:href="#linearGradient7747"/>
  <linearGradient id="linearGradient8091" x1="108.95" x2="115.11" y1="20.604" y2="179.85" gradientTransform="matrix(1.5852 0 0 1.5852 -68.12 42.283)" gradientUnits="userSpaceOnUse" xlink:href="#linearGradient7747-8"/>
  <linearGradient id="linearGradient8093" x1="62.252" x2="62.001" y1="7.5798" y2="136.83" gradientTransform="matrix(1.5852 0 0 1.5852 -68.12 42.283)" gradientUnits="userSpaceOnUse" xlink:href="#linearGradient7747-8"/>
  <linearGradient id="linearGradient8095" x1="103.11" x2="201.69" y1="36.307" y2="36.307" gradientTransform="matrix(1.5852 0 0 1.5852 -68.12 42.283)" gradientUnits="userSpaceOnUse" xlink:href="#linearGradient7747-8"/>
  <linearGradient id="linearGradient8097" x1="162.5" x2="203.85" y1="50.789" y2="51.789" gradientTransform="matrix(1.5852 0 0 1.5852 -68.12 42.283)" gradientUnits="userSpaceOnUse" xlink:href="#linearGradient7747-8"/>
  <linearGradient id="linearGradient8099" x1="178.16" x2="273.13" y1="85.089" y2="85.089" gradientTransform="matrix(1.5852 0 0 1.5852 -68.12 42.283)" gradientUnits="userSpaceOnUse" xlink:href="#linearGradient7747-8"/>
  <linearGradient id="linearGradient8101" x1="308.23" x2="238.39" y1="141.73" y2="220.35" gradientTransform="matrix(1.5852 0 0 1.5852 -68.12 42.283)" gradientUnits="userSpaceOnUse" xlink:href="#linearGradient7747-8"/>
  <linearGradient id="linearGradient8103" x1="171.66" x2="170.61" y1="109.89" y2="187.39" gradientTransform="matrix(1.5852 0 0 1.5852 -68.12 42.283)" gradientUnits="userSpaceOnUse" xlink:href="#linearGradient7747-8"/>
  <linearGradient id="linearGradient8106" x1="90.817" x2="164.95" y1="24.984" y2="24.984" gradientTransform="matrix(1.5852 0 0 1.5852 -68.12 42.283)" gradientUnits="userSpaceOnUse" xlink:href="#linearGradient7747"/>
  <linearGradient id="linearGradient8108" x1="140.57" x2="227.95" y1="37.144" y2="38.144" gradientTransform="matrix(1.5852 0 0 1.5852 -68.12 42.283)" gradientUnits="userSpaceOnUse" xlink:href="#linearGradient7747"/>
  <linearGradient id="linearGradient8110" x1="286.83" x2="215.88" y1="-25.488" y2="70.512" gradientTransform="matrix(1.5852 0 0 1.5852 -68.12 42.283)" gradientUnits="userSpaceOnUse" xlink:href="#linearGradient7747"/>
 </defs>
 <g transform="translate(0 -132.28)">
  <path d="m350.45 171.39 29.143 18.775c-13.9 2.2634-21.868 11.777-29.143 22.137z" style="fill:url(#linearGradient7968);stroke-linecap:round;stroke-linejoin:round;stroke-width:1.8898;stroke:#b6b6b6"/>
  <path d="m706.91 402.99-146.63-88.769c27.459-51.91 64.875-86.539 145.84-53.499z" style="fill:url(#linearGradient7964);stroke-linecap:round;stroke-linejoin:round;stroke-width:1.8898;stroke:#b6b6b6"/>
  <path d="m380.94 190.65c5.9647 5.3651 17.238 8.239 35.175 4.6899 7.3637 21.762 42.883 123.97 58.233 184.47-56.086 14.705-102.44 20.858-124.28 5.4716v-173.14c8.8323-10.39 14.72-19.327 30.875-21.496z" style="fill:url(#linearGradient7961);stroke-linecap:round;stroke-linejoin:round;stroke-width:1.8898;stroke:#b6b6b6"/>
  <path d="m416.17 195.34 20.504-4.9974 45.106 148.95c-4.913 11.111-5.3352 26.713-7.4257 40.646-16.081-61.05-37.836-122.45-58.184-184.6z" style="fill:url(#linearGradient7958);stroke-linecap:round;stroke-linejoin:round;stroke-width:1.8898;stroke:#b6b6b6"/>
  <path d="m350.07 170.72 31.152 20.081c8.6312 7.3635 21.418 6.903 35.289 4.5409l20.323-5.0808c2.799-1.188 5.8021-0.74304 7.8166-8.2074 0.5211-5.9927-1.0422-11.985-4.6899-17.978l-19.409-13.279-70.481-0.19541z" style="fill:url(#linearGradient7955);stroke-linecap:round;stroke-linejoin:round;stroke-width:1.8898;stroke:#b6b6b6"/>
  <path d="m440.2 164.22c27.607-12.339 57.242-21.685 95.118-8.3539 10.012 7.6757 17.473 16.591 22.277 28.433-3.221 2.2347-6.8022 7.8775-9.7707 15.34-23.777-15.179-56.361-22.963-103.03-18.369 0.25193-6.0433-1.5708-11.519-4.5922-17.05z" style="fill:url(#linearGradient7952);stroke-linecap:round;stroke-linejoin:round;stroke-width:1.8898;stroke:#b6b6b6"/>
  <path d="m588.65 215.89c0.1173-11.357-0.87723-24.176 8.4255-25.622-9.0496-11.434-28.719-7.9949-39.864-5.8624-4.4469 4.7275-7.6654 9.8645-8.989 15.633 26.153 16.578 30.978 14.012 40.428 15.851z" style="fill:url(#linearGradient7949);stroke-linecap:round;stroke-linejoin:round;stroke-width:1.8898;stroke:#b6b6b6"/>
  <path d="m559.16 313.37c10.306-33.298 23.925-72.78 29.599-97.741-0.0914-10.312-1.2177-23.214 8.2873-25.346l38.405 15.668 71.442 55.439c-93.754-36.795-118.5 10.315-147.73 51.98z" style="fill:url(#linearGradient7946);stroke-linecap:round;stroke-linejoin:round;stroke-width:1.8898;stroke:#b6b6b6"/>
  <path d="m560.33 406c-10.292-18.532-16.045-42.736-1.5633-92.235l148.51 89.109-0.39082 26.185-123.11 1.5633z" style="fill:url(#linearGradient7943);stroke-linecap:round;stroke-linejoin:round;stroke-width:1.8898;stroke:#b6b6b6"/>
  <path d="m481.78 339.56c24.543 1.0663 47.166 5.548 68.395 12.506-1.9633 28.216 4.1173 43.821 10.852 54.716-32.161-25.891-62.716-30.935-86.666-26.826 2.4524-14.433 3.281-29.671 7.4188-40.396z" style="fill:url(#linearGradient7940);stroke-linecap:round;stroke-linejoin:round;stroke-width:1.8898;stroke:#b6b6b6"/>
  <path d="m405.39 197.07c-14.127 89.252 2.668 137.92 11.92 195.02" style="fill:none;stroke-linecap:round;stroke-linejoin:round;stroke-width:.75591;stroke:#b6b6b6"/>
  <path d="m390.76 195.62c-39.38 59.833-33.029 141.24-32.307 193.85" style="fill:none;stroke-width:.75591;stroke:#b6b6b6"/>
  <path d="m443.87 280.15c-27.705 9.4352-61.843 9.8675-93.71 6.2749" style="fill:none;stroke-linecap:round;stroke-linejoin:round;stroke-width:.75591;stroke:#b6b6b6"/>
  <path d="m372.74 150.79 56.67 41.037" style="fill:none;stroke-linecap:round;stroke-linejoin:round;stroke-width:.75591;stroke:#b6b6b6"/>
  <path d="m366.09 181.27 75.039-15.242" style="fill:none;stroke-linecap:round;stroke-linejoin:round;stroke-width:.75591;stroke:#b6b6b6"/>
  <path d="m350.07 194.56c3.6103-6.7808 9.7049-10.249 16.415-12.897" style="fill:none;stroke-width:1.0667px;stroke:#b6b6b6"/>
  <path d="m429.02 192.22 48.463 165.32" style="fill:none;stroke-linecap:round;stroke-linejoin:round;stroke-width:.75591;stroke:#b6b6b6"/>
  <path d="m443.87 279.76c8.206-4.0371 12.74-4.4024 17.978-5.4716" style="fill:none;stroke-linecap:round;stroke-linejoin:round;stroke-width:.75591;stroke:#b6b6b6"/>
  <path d="m443.48 171.89c37.294-9.7971 73.205-7.9741 107.38-0.0977" style="fill:none;stroke-linecap:round;stroke-linejoin:round;stroke-width:.75591;stroke:#b6b6b6"/>
  <path d="m491.94 149.71c6.559 7.6225 13.672 16.263 17.196 34.002" style="fill:none;stroke-linecap:round;stroke-linejoin:round;stroke-width:.75591;stroke:#b6b6b6"/>
  <path d="m566.2 209.8c3.7721-9.4332 5.4838-19.278 14.07-27.749" style="fill:none;stroke-linecap:round;stroke-linejoin:round;stroke-width:.75591;stroke:#b6b6b6"/>
  <path d="m551.34 191.44c11.68 3.4065 19.622 8.4147 37.91 8.989" style="fill:none;stroke-linecap:round;stroke-linejoin:round;stroke-width:.75591;stroke:#b6b6b6"/>
  <path d="m588.08 219.18c25.271-8.6128 53.335 1.3882 81.683 13.288" style="fill:none;stroke-linecap:round;stroke-linejoin:round;stroke-width:.75591;stroke:#b6b6b6"/>
  <path d="m597.07 190.65 77.384 60.578" style="fill:none;stroke-linecap:round;stroke-linejoin:round;stroke-width:.75591;stroke:#b6b6b6"/>
  <path d="m584.17 233.25 29.312 22.277" style="fill:none;stroke-linecap:round;stroke-linejoin:round;stroke-width:.75591;stroke:#b6b6b6"/>
  <path d="m595.12 430.23c-20.706-86.597 21.509-156.97 111-153.6" style="fill:none;stroke-linecap:round;stroke-linejoin:round;stroke-width:.75591;stroke:#b6b6b6"/>
  <path d="m517.87 383.06c-8.8416-12.599-7.1529-26.666-5.8624-40.279" style="fill:none;stroke-linecap:round;stroke-linejoin:round;stroke-width:1.0431;stroke:#b6b6b6"/>
  <path d="m477.09 355.97c24.121 2.3193 48.115 3.5582 74.257 23.059" style="fill:none;stroke-linecap:round;stroke-linejoin:round;stroke-width:1.0431;stroke:#b6b6b6"/>
  <path d="m420.71 150.79 105.23-1.7587 9.4776 6.8395c-41.068-12.816-69.212-4.183-95.362 8.2074z" style="fill:url(#linearGradient7919);stroke-linecap:round;stroke-linejoin:round;stroke-width:1.8898;stroke:#b6b6b6"/>
  <path d="m526.14 148.93c18.889 12.962 26.744 23.58 31.364 35.37 10.706-1.4932 29.882-6.1748 39.571 6.1555l38.203 15.438-49.733-56.768z" style="fill:url(#linearGradient7916);stroke-linecap:round;stroke-linejoin:round;stroke-width:1.8898;stroke:#b6b6b6"/>
  <path d="m612.81 255.45 94.238 59.969" style="fill:none;stroke-linecap:round;stroke-linejoin:round;stroke-width:.75591;stroke:#b6b6b6"/>
  <path d="m585.59 148.92 120.91-0.13818-0.13823 112.34-71.162-55.41z" style="fill:url(#linearGradient7912);stroke-linecap:round;stroke-linejoin:round;stroke-width:1.8898;stroke:#b6b6b6"/>
  <path d="m706.5 261.25 0.27635 141.77" style="fill:none;stroke-width:1.8898;stroke:#b6b6b6"/>
  <path d="m543.43 163 65.952 13.19" style="fill:none;stroke-linecap:round;stroke-linejoin:round;stroke-width:.75591;stroke:#b6b6b6"/>
  <path d="m605.47 193.88-44.945-44.75" style="fill:none;stroke-linecap:round;stroke-linejoin:round;stroke-width:.75591;stroke:#b6b6b6"/>
  <path d="m609.77 176.19 96.339 2.345" style="fill:none;stroke-linecap:round;stroke-linejoin:round;stroke-width:.75591;stroke:#b6b6b6"/>
  <path d="m630.68 149.03 75.625 65.268" style="fill:none;stroke-linecap:round;stroke-linejoin:round;stroke-width:.75591;stroke:#b6b6b6"/>
  <rect x="368.16" y="148.42" width="280.11" height="281.93" style="fill:none;stroke-linecap:round;stroke-linejoin:round;stroke-width:4.5354;stroke:#fff"/>
  <rect x="646.96" y="145.07" width="62.729" height="289.63" style="fill:#fff"/>
  <rect x="307.58" y="147.02" width="62.729" height="285.96" style="fill:#fff"/>
  <path d="m482.7 337.27a1.89 1.89 0 0 0 0 3.7667c23.436 1.1312 44.178 5.1092 65.967 12.3a1.8974 1.8974 0 1 0 1.2-3.6c-22.075-7.2853-43.212-11.32-66.967-12.467a1.89 1.89 0 0 0-0.2 0z" style="color:#000000;fill:#fff;stroke-linejoin:round;stroke-width:.75591;stroke:#000;text-decoration-line:none;text-indent:0;text-transform:none"/>
  <path d="m548.73 198.77a1.89 1.89 0 0 0-0.96666 3.4333c15.779 11.507 27.177 14.866 39.167 15.467a1.89 1.89 0 1 0 0.2-3.7667c-11.428-0.57279-21.761-3.5233-37.133-14.733a1.89 1.89 0 0 0-1.2667-0.4z" style="color:#000000;fill:#fff;stroke-linejoin:round;stroke-width:.75591;stroke:#000;text-decoration-line:none;text-indent:0;text-transform:none"/>
  <path d="m475.27 177.77c-9.1709-0.16229-18.717 0.27648-28.667 1.2a1.89 1.89 0 1 0 0.33333 3.7333c39.342-3.6516 71.762 0.57572 98.967 18.2a1.9047 1.9047 0 1 0 2.0667-3.2c-21.095-13.666-45.187-19.446-72.7-19.933z" style="color:#000000;fill:#fff;stroke-linejoin:round;stroke-width:.75591;stroke:#000;text-decoration-line:none;text-indent:0;text-transform:none"/>
  <path d="m444.47 179.33a1.89 1.89 0 0 0-1.5667 1.6333c-0.42255 2.89-1.2717 4.3831-2.2667 5.3-0.99494 0.91688-2.3096 1.3695-3.9667 1.6333a1.8906 1.8906 0 1 0 0.6 3.7333c2.016-0.32096 4.1819-0.986 5.9333-2.6 1.7514-1.614 2.9276-4.0745 3.4333-7.5333a1.89 1.89 0 0 0-2.1667-2.1667z" style="color:#000000;fill:#fff;stroke-linejoin:round;stroke-width:.75591;stroke:#000;text-decoration-line:none;text-indent:0;text-transform:none"/>
  <path d="m587.9 215.47a1.89 1.89 0 0 0-1.5333 1.4c-8.7371 32.972-18.496 63.624-28.867 95.567a1.8922 1.8922 0 1 0 3.6 1.1667c10.375-31.955 20.166-62.681 28.933-95.767a1.89 1.89 0 0 0-2.1333-2.3667z" style="color:#000000;fill:#fff;stroke-linejoin:round;stroke-width:.75591;stroke:#000;text-decoration-line:none;text-indent:0;text-transform:none"/>
  <path d="m558.2 313.2a1.89 1.89 0 0 0-1.6333 1.3c-4.2731 12.743-5.636 22.495-7.6667 35.333a1.8906 1.8906 0 1 0 3.7333 0.6c2.0361-12.873 3.3346-22.312 7.5-34.733a1.89 1.89 0 0 0-1.9333-2.5z" style="color:#000000;fill:#fff;stroke-linejoin:round;stroke-width:.75591;stroke:#000;text-decoration-line:none;text-indent:0;text-transform:none"/>
  <path d="m437.1 189.97a1.89 1.89 0 0 0-1.8 2.4667l44.2 145.67a1.8981 1.8981 0 1 0 3.6333-1.1l-44.2-145.67a1.89 1.89 0 0 0-1.8333-1.3667z" style="color:#000000;fill:#fff;stroke-linejoin:round;stroke-width:.75591;stroke:#000;text-decoration-line:none;text-indent:0;text-transform:none"/>
  <g transform="translate(4.2667 74.667)">
   <path d="m6.9791 96.723 29.143 18.775c-13.9 2.2634-21.868 11.777-29.143 22.137z" style="fill:url(#linearGradient8085);stroke-linecap:round;stroke-linejoin:round;stroke-width:1.8898;stroke:#b6b6b6"/>
   <path d="m363.44 328.32-146.63-88.769c27.459-51.91 64.875-86.539 145.84-53.499z" style="fill:url(#linearGradient8087);stroke-linecap:round;stroke-linejoin:round;stroke-width:1.8898;stroke:#b6b6b6"/>
   <path d="m37.477 115.99c5.9647 5.3651 17.238 8.239 35.175 4.6899 7.3637 21.762 42.883 123.97 58.233 184.47-56.086 14.705-102.44 20.858-124.28 5.4716v-173.14c8.8323-10.39 14.72-19.327 30.875-21.496z" style="fill:url(#linearGradient8089);stroke-linecap:round;stroke-linejoin:round;stroke-width:1.8898;stroke:#b6b6b6"/>
   <path d="m72.7 120.68 20.504-4.9974 45.106 148.95c-4.913 11.111-5.3352 26.713-7.4257 40.646-16.081-61.05-37.836-122.45-58.184-184.6z" style="fill:url(#linearGradient8091);stroke-linecap:round;stroke-linejoin:round;stroke-width:1.8898;stroke:#b6b6b6"/>
   <path d="m6.6014 96.055 31.152 20.081c8.6312 7.3635 21.418 6.903 35.289 4.5409l20.323-5.0808c2.799-1.188 5.8021-0.74304 7.8166-8.2074 0.5211-5.9927-1.0422-11.985-4.6899-17.978l-19.409-13.279-70.481-0.19541z" style="fill:url(#linearGradient8093);stroke-linecap:round;stroke-linejoin:round;stroke-width:1.8898;stroke:#b6b6b6"/>
   <path d="m96.736 89.558c27.607-12.339 57.242-21.685 95.118-8.3539 10.012 7.6757 17.473 16.591 22.277 28.433-3.221 2.2347-6.8022 7.8775-9.7707 15.34-23.777-15.179-56.361-22.963-103.03-18.369 0.25193-6.0433-1.5708-11.519-4.5922-17.05z" style="fill:url(#linearGradient8095);stroke-linecap:round;stroke-linejoin:round;stroke-width:1.8898;stroke:#b6b6b6"/>
   <path d="m245.18 141.22c0.11731-11.357-0.87722-24.176 8.4255-25.622-9.0496-11.434-28.719-7.9949-39.864-5.8624-4.4469 4.7275-7.6654 9.8645-8.989 15.633 26.153 16.578 30.978 14.012 40.428 15.851z" style="fill:url(#linearGradient8097);stroke-linecap:round;stroke-linejoin:round;stroke-width:1.8898;stroke:#b6b6b6"/>
   <path d="m215.69 238.71c10.306-33.298 23.925-72.78 29.599-97.741-0.0914-10.312-1.2176-23.214 8.2873-25.346l38.405 15.668 71.442 55.439c-93.754-36.795-118.5 10.315-147.73 51.98z" style="fill:url(#linearGradient8099);stroke-linecap:round;stroke-linejoin:round;stroke-width:1.8898;stroke:#b6b6b6"/>
   <path d="m216.87 331.33c-10.292-18.532-16.045-42.736-1.5633-92.235l148.51 89.109-0.39083 26.185-123.11 1.5633z" style="fill:url(#linearGradient8101);stroke-linecap:round;stroke-linejoin:round;stroke-width:1.8898;stroke:#b6b6b6"/>
   <path d="m138.31 264.89c24.543 1.0663 47.166 5.548 68.395 12.506-1.9633 28.216 4.1173 43.821 10.852 54.716-32.161-25.891-62.716-30.935-86.666-26.826 2.4524-14.433 3.281-29.671 7.4188-40.396z" style="fill:url(#linearGradient8103);stroke-linecap:round;stroke-linejoin:round;stroke-width:1.8898;stroke:#b6b6b6"/>
   <path d="m61.927 122.41c-14.127 89.252 2.668 137.92 11.92 195.02" style="fill:none;stroke-linecap:round;stroke-linejoin:round;stroke-width:.75591;stroke:#b6b6b6"/>
   <path d="m47.29 120.96c-39.38 59.833-33.029 141.24-32.307 193.85" style="fill:none;stroke-width:.75591;stroke:#b6b6b6"/>
   <path d="m100.4 205.49c-27.705 9.4352-61.843 9.8675-93.71 6.2749" style="fill:none;stroke-linecap:round;stroke-linejoin:round;stroke-width:.75591;stroke:#b6b6b6"/>
   <path d="m29.269 76.123 56.67 41.037" style="fill:none;stroke-linecap:round;stroke-linejoin:round;stroke-width:.75591;stroke:#b6b6b6"/>
   <path d="m22.625 106.61 75.039-15.242" style="fill:none;stroke-linecap:round;stroke-linejoin:round;stroke-width:.75591;stroke:#b6b6b6"/>
   <path d="m6.6014 119.9c3.6103-6.7808 9.7049-10.249 16.415-12.897" style="fill:none;stroke-width:1.0667px;stroke:#b6b6b6"/>
   <path d="m85.549 117.55 48.463 165.32" style="fill:none;stroke-linecap:round;stroke-linejoin:round;stroke-width:.75591;stroke:#b6b6b6"/>
   <path d="m100.4 205.1c8.206-4.0371 12.74-4.4024 17.978-5.4716" style="fill:none;stroke-linecap:round;stroke-linejoin:round;stroke-width:.75591;stroke:#b6b6b6"/>
   <path d="m100.01 97.228c37.294-9.7971 73.205-7.9741 107.38-0.09771" style="fill:none;stroke-linecap:round;stroke-linejoin:round;stroke-width:.75591;stroke:#b6b6b6"/>
   <path d="m148.47 75.048c6.559 7.6225 13.672 16.263 17.196 34.002" style="fill:none;stroke-linecap:round;stroke-linejoin:round;stroke-width:.75591;stroke:#b6b6b6"/>
   <path d="m222.73 135.14c3.7721-9.4332 5.4838-19.278 14.07-27.749" style="fill:none;stroke-linecap:round;stroke-linejoin:round;stroke-width:.75591;stroke:#b6b6b6"/>
   <path d="m207.88 116.77c11.68 3.4065 19.622 8.4147 37.91 8.989" style="fill:none;stroke-linecap:round;stroke-linejoin:round;stroke-width:.75591;stroke:#b6b6b6"/>
   <path d="m244.62 144.52c25.271-8.6128 53.335 1.3882 81.683 13.288" style="fill:none;stroke-linecap:round;stroke-linejoin:round;stroke-width:.75591;stroke:#b6b6b6"/>
   <path d="m253.6 115.99 77.384 60.578" style="fill:none;stroke-linecap:round;stroke-linejoin:round;stroke-width:.75591;stroke:#b6b6b6"/>
   <path d="m240.71 158.59 29.312 22.277" style="fill:none;stroke-linecap:round;stroke-linejoin:round;stroke-width:.75591;stroke:#b6b6b6"/>
   <path d="m251.65 355.56c-20.706-86.597 21.509-156.97 111-153.6" style="fill:none;stroke-linecap:round;stroke-linejoin:round;stroke-width:.75591;stroke:#b6b6b6"/>
   <path d="m174.4 308.39c-8.8416-12.599-7.1529-26.666-5.8624-40.279" style="fill:none;stroke-linecap:round;stroke-linejoin:round;stroke-width:1.0431;stroke:#b6b6b6"/>
   <path d="m133.62 281.31c24.121 2.3193 48.115 3.5582 74.257 23.059" style="fill:none;stroke-linecap:round;stroke-linejoin:round;stroke-width:1.0431;stroke:#b6b6b6"/>
   <path d="m77.244 76.123 105.23-1.7587 9.4776 6.8395c-41.068-12.816-69.212-4.183-95.362 8.2074z" style="fill:url(#linearGradient8106);stroke-linecap:round;stroke-linejoin:round;stroke-width:1.8898;stroke:#b6b6b6"/>
   <path d="m182.67 74.266c18.889 12.962 26.744 23.58 31.364 35.37 10.706-1.4932 29.882-6.1748 39.571 6.1556l38.203 15.438-49.733-56.768z" style="fill:url(#linearGradient8108);stroke-linecap:round;stroke-linejoin:round;stroke-width:1.8898;stroke:#b6b6b6"/>
   <path d="m269.35 180.78 94.238 59.969" style="fill:none;stroke-linecap:round;stroke-linejoin:round;stroke-width:.75591;stroke:#b6b6b6"/>
   <path d="m242.12 74.248 120.91-0.13818-0.13823 112.34-71.162-55.41z" style="fill:url(#linearGradient8110);stroke-linecap:round;stroke-linejoin:round;stroke-width:1.8898;stroke:#b6b6b6"/>
   <path d="m363.03 186.59 0.27635 141.77" style="fill:none;stroke-width:1.8898;stroke:#b6b6b6"/>
   <path d="m199.96 88.336 65.952 13.19" style="fill:none;stroke-linecap:round;stroke-linejoin:round;stroke-width:.75591;stroke:#b6b6b6"/>
   <path d="m262.01 119.21-44.945-44.75" style="fill:none;stroke-linecap:round;stroke-linejoin:round;stroke-width:.75591;stroke:#b6b6b6"/>
   <path d="m266.31 101.53 96.339 2.345" style="fill:none;stroke-linecap:round;stroke-linejoin:round;stroke-width:.75591;stroke:#b6b6b6"/>
   <path d="m287.22 74.364 75.625 65.268" style="fill:none;stroke-linecap:round;stroke-linejoin:round;stroke-width:.75591;stroke:#b6b6b6"/>
   <rect x="24.689" y="73.75" width="280.11" height="281.93" style="fill:none;stroke-linecap:round;stroke-linejoin:round;stroke-width:4.5354;stroke:#fff"/>
   <rect x="303.49" y="70.403" width="62.729" height="289.63" style="fill:#fff"/>
   <rect x="-35.891" y="72.35" width="62.729" height="285.96" style="fill:#fff"/>
   <path d="m139.34 264.49c23.595 1.1389 44.529 5.1389 66.461 12.377" style="fill:none;stroke-linecap:round;stroke-linejoin:round;stroke-width:3.7795;stroke:#f00"/>
   <path d="m205.4 126.01c15.576 11.359 26.459 14.523 38.168 15.11" style="fill:none;stroke-linecap:round;stroke-linejoin:round;stroke-width:3.7795;stroke:#f00"/>
   <path d="m103.3 106.17c39.571-3.6729 72.494 0.54395 100.16 18.467" style="fill:none;stroke-linecap:round;stroke-linejoin:round;stroke-width:3.7795;stroke:#f00"/>
   <path d="m93.51 115.09c3.6731-0.58475 6.8651-2.1797 7.7933-8.5286" style="fill:none;stroke-linecap:round;stroke-linejoin:round;stroke-width:3.7795;stroke:#f00"/>
   <path d="m244.73 142.7c-8.7522 33.029-18.532 63.709-28.905 95.658" style="fill:none;stroke-linecap:round;stroke-linejoin:round;stroke-width:3.7795;stroke:#f00"/>
   <path d="m207.3 275.48c2.0334-12.855 3.371-22.458 7.5903-35.04" style="fill:none;stroke-linecap:round;stroke-linejoin:round;stroke-width:3.7795;stroke:#f00"/>
   <path d="m93.654 117.22 44.19 145.67" style="fill:none;stroke-linecap:round;stroke-linejoin:round;stroke-width:3.7795;stroke:#f00"/>
  </g>
  <text x="128.24408" y="268.14859" style="fill:#000000;font-family:'Arial Nova', 'Arial Unicode MS', 'Yu Gothic UI', sans-serif;font-size:12.8px;letter-spacing:0px;line-height:0%;stroke-width:1.0667;stroke:#ff0000;word-spacing:0px" xml:space="preserve"><tspan x="128.24408" y="268.14859" style="font-family:'Arial Nova', 'Arial Unicode MS', 'Yu Gothic UI', sans-serif;stroke-width:1.0667">1</tspan></text>
  <text x="106.96004" y="196.88802" style="fill:#000000;font-family:'Arial Nova', 'Arial Unicode MS', 'Yu Gothic UI', sans-serif;font-size:12.8px;letter-spacing:0px;line-height:0%;stroke-width:1.0667;stroke:#ff0000;word-spacing:0px" xml:space="preserve"><tspan x="106.96004" y="196.88802" style="font-family:'Arial Nova', 'Arial Unicode MS', 'Yu Gothic UI', sans-serif;stroke-width:1.0667">2</tspan></text>
  <text x="164.7415" y="198.34735" style="fill:#000000;font-family:'Arial Nova', 'Arial Unicode MS', 'Yu Gothic UI', sans-serif;font-size:12.8px;letter-spacing:0px;line-height:0%;stroke-width:1.0667;stroke:#ff0000;word-spacing:0px" xml:space="preserve"><tspan x="164.7415" y="198.34735" style="font-family:'Arial Nova', 'Arial Unicode MS', 'Yu Gothic UI', sans-serif;stroke-width:1.0667">3</tspan></text>
  <text x="216.36266" y="224.71539" style="fill:#000000;font-family:'Arial Nova', 'Arial Unicode MS', 'Yu Gothic UI', sans-serif;font-size:12.8px;letter-spacing:0px;line-height:0%;stroke-width:1.0667;stroke:#ff0000;word-spacing:0px" xml:space="preserve"><tspan x="216.36266" y="224.71539" style="font-family:'Arial Nova', 'Arial Unicode MS', 'Yu Gothic UI', sans-serif;stroke-width:1.0667">4</tspan></text>
  <text x="221.92174" y="271.6257" style="fill:#000000;font-family:'Arial Nova', 'Arial Unicode MS', 'Yu Gothic UI', sans-serif;font-size:12.8px;letter-spacing:0px;line-height:0%;stroke-width:1.0667;stroke:#ff0000;word-spacing:0px" xml:space="preserve"><tspan x="221.92174" y="271.6257" style="font-family:'Arial Nova', 'Arial Unicode MS', 'Yu Gothic UI', sans-serif;stroke-width:1.0667">5</tspan></text>
  <text x="202.94196" y="331.10248" style="fill:#000000;font-family:'Arial Nova', 'Arial Unicode MS', 'Yu Gothic UI', sans-serif;font-size:12.8px;letter-spacing:0px;line-height:0%;stroke-width:1.0667;stroke:#ff0000;word-spacing:0px" xml:space="preserve"><tspan x="202.94196" y="331.10248" style="font-family:'Arial Nova', 'Arial Unicode MS', 'Yu Gothic UI', sans-serif;stroke-width:1.0667">6</tspan></text>
  <text x="169.88034" y="332.13" style="fill:#000000;font-family:'Arial Nova', 'Arial Unicode MS', 'Yu Gothic UI', sans-serif;font-size:12.8px;letter-spacing:0px;line-height:0%;stroke-width:1.0667;stroke:#ff0000;word-spacing:0px" xml:space="preserve"><tspan x="169.88034" y="332.13" style="font-family:'Arial Nova', 'Arial Unicode MS', 'Yu Gothic UI', sans-serif;stroke-width:1.0667">7</tspan></text>
  <path d="m106.21 240.92 6.2254-5.1469 6.9023 14.13 6.2932-3.0742-6.9023-14.13 7.4286-1.523-19.542-14.716z" style="fill:#fff;stroke-linecap:round;stroke-linejoin:round;stroke-width:.75591;stroke:#000"/>
  <g transform="matrix(.2917 0 0 .28875 278.24 247.19)" style="fill:#1f638a;stroke-linecap:round;stroke-linejoin:round;stroke-width:1.2209;stroke:#1f638a">
   <path d="m207.49 126.25 34.17 21.614-34.17 21.614z" style="fill:#1f638a;stroke-linecap:round;stroke-linejoin:round;stroke-width:1.3023;stroke:#1f638a"/>
   <rect x="172.19" y="137.99" width="39.213" height="19.761" style="fill:#1f638a;stroke-linecap:round;stroke-linejoin:round;stroke-width:1.3023;stroke:#1f638a"/>
  </g>
  <g transform="translate(180.29 285.09)">
   <ellipse cx="-36.9" cy="-49.598" rx="13.199" ry="13.469" style="fill:#1f638a;stroke-linecap:round;stroke-linejoin:round;stroke-width:1.0658"/>
   <text x="-44.014687" y="-41.962215" style="fill:#000000;font-family:'Arial Nova', 'Arial Unicode MS', 'Yu Gothic UI', sans-serif;font-size:12.8px;letter-spacing:0px;line-height:0%;stroke-width:1.0667;word-spacing:0px" xml:space="preserve"><tspan x="-44.014687" y="-41.962215" style="fill:#ffffff;font-family:'Arial Nova', 'Arial Unicode MS', 'Yu Gothic UI', sans-serif;font-size:21.333px;stroke-width:1.0667;stroke:#ffffff">A</tspan></text>
  </g>
 </g>
</svg>
