<?xml version="1.0" encoding="UTF-8"?>
<svg width="18cm" height="8cm" version="1.1" viewBox="0 0 180 80" xmlns="http://www.w3.org/2000/svg">
 <defs>
  <linearGradient id="linearGradient5068" x1="72.86" x2="135.84" y1="234.39" y2="234.39" gradientTransform="translate(-20.539 -177.49)" gradientUnits="userSpaceOnUse">
   <stop stop-color="#fff" offset="0"/>
   <stop stop-color="#00385e" offset="1"/>
  </linearGradient>
 </defs>
 <g transform="matrix(.9912 0 0 .99117 -118.42 -164.5)" style="fill:none;stroke:#7d7d7d">
  <path d="m171.83 203.95-13.38 7.978-35.846-21.009 13.562-7.7852" style="opacity:.97;paint-order:normal;stroke-linecap:round;stroke-linejoin:round;stroke-width:.38237"/>
  <path d="m153.91 193.64-13.38 7.978" style="stroke-opacity:.97255;stroke-width:.18059"/>
 </g>
 <g transform="matrix(.30606 0 0 .30515 6.5842 -76.74)" style="stroke-width:3.2722">
  <path d="m112.26 392.14c-4.3154 4.6149-7.5298 8.6314-7.5298 8.6314l-116.09-68.241s3.2701-3.9724 7.6503-8.5261z" style="fill:#0ff;opacity:.97;paint-order:normal"/>
  <path d="m136.96 376.69c-10.964 1.5619-17.707 8.0029-24.704 15.448l-115.97-68.136c8.2914-8.3942 14.015-13.434 25.033-15.097z" style="fill:#000080;opacity:.97;paint-order:normal"/>
  <path d="m148.06 374.86c-3.6109 0.84345-7.3984 1.2233-11.098 1.835l-115.64-67.785c3.7459-0.55479 7.5775-0.87312 11.238-1.6644z" style="fill:#0ff;opacity:.97;paint-order:normal"/>
 </g>
 <path d="m55.297 37.09c-1.1322 0.18665-2.2914 0.30256-3.3966 0.55993l-35.35-20.632c1.1202-0.24145 2.2929-0.33858 3.4394-0.50787z" style="fill-opacity:.9451;fill:#ff9400;opacity:.97;paint-order:normal"/>
 <path d="m62.858 32.37c-2.4891 2.5825-4.2143 4.1528-7.5608 4.7138l-35.307-20.58c3.3836-0.42357 5.4742-2.3509 7.6618-4.6068z" style="fill:#f00;opacity:.97;paint-order:normal"/>
 <path d="m29.993 9.3 35.17 20.441s-0.98381 1.2256-2.3046 2.6338l-35.206-20.473c1.3406-1.3895 2.3414-2.6017 2.3414-2.6017z" style="fill-opacity:.9451;fill:#ff9400;opacity:.97;paint-order:normal"/>
 <g transform="matrix(.9912 0 0 .99117 -118.42 -164.5)" style="fill:none;stroke:#7d7d7d">
  <path d="m136.17 183.14 13.562-7.7852 35.482 20.623-13.38 7.978" style="opacity:.97;paint-order:normal;stroke-linecap:round;stroke-linejoin:round;stroke-width:.38237"/>
  <path d="m167.29 185.66-13.38 7.978" style="stroke-opacity:.97255;stroke-width:.18059"/>
 </g>
 <g transform="matrix(.9912 0 0 .99117 -68.703 -134.87)" style="fill:none;stroke:#7d7d7d">
  <path d="m171.83 203.95-13.38 7.978-35.846-21.009 13.562-7.7852" style="opacity:.97;paint-order:normal;stroke-linecap:round;stroke-linejoin:round;stroke-width:.38237"/>
  <path d="m153.91 193.64-13.38 7.978" style="stroke-opacity:.97255;stroke-width:.18059"/>
 </g>
 <path d="m79.634 38.61 35.482 20.623s-3.9702 4.9462-6.6899 6.42c-2.0118 1.0902-4.4599 1.0387-6.6899 1.558-2.23 0.51935-4.678 0.4678-6.6899 1.558-2.7197 1.4738-6.6899 6.42-6.6899 6.42l-35.846-21.009s4.039-4.8918 6.781-6.3236c2.0485-1.0696 4.5207-0.97439 6.781-1.4616s4.7325-0.392 6.781-1.4616c2.742-1.4317 6.781-6.3236 6.781-6.3236z" style="fill:url(#linearGradient5068);opacity:.97;paint-order:normal;stroke-linecap:round;stroke-linejoin:round;stroke-width:.379;stroke:#7d7d7d"/>
 <g transform="translate(0,-217)" style="fill:none">
  <path d="m65.89 263.4 35.846 21.009" style="stroke-opacity:.97255;stroke-width:.179;stroke:#7d7d7d"/>
  <path d="m97.193 265.92s-3.9183 5.1576-6.6899 6.6349c-2.0071 1.0698-4.4599 0.89545-6.6899 1.3432s-4.6827 0.27337-6.6899 1.3432c-2.7716 1.4773-6.6899 6.6349-6.6899 6.6349" style="stroke-opacity:.97255;stroke-width:.179;stroke:#7d7d7d"/>
  <g style="stroke-linecap:round;stroke-linejoin:round;stroke-width:.379;stroke:#000">
   <path d="m54.789 268.51 35.494 20.791"/>
   <path d="m62.451 263.9 35.393 20.684"/>
   <path d="m65.89 263.4 35.35 20.632"/>
   <path d="m69.329 262.89 35.307 20.58"/>
  </g>
 </g>
 <g transform="translate(0,-217)" style="fill-opacity:.97255">
  <rect x="120.16" y="227.04" width="32.464" height="6.615" style="fill:#f00;opacity:.97;paint-order:normal"/>
  <rect x="120.16" y="233.66" width="32.464" height="6.615" style="fill:#ff9400;opacity:.97;paint-order:normal"/>
  <rect x="120.16" y="240.27" width="32.464" height="6.615" style="fill:#0ff;opacity:.97;paint-order:normal"/>
  <rect x="120.16" y="246.89" width="32.464" height="6.615" style="fill:#000080;opacity:.97;paint-order:normal"/>
 </g>
 <g transform="translate(0,-217)" style="fill:none;stroke-width:.26458px;stroke:#000">
  <path d="m111.16 233.66h41.46"/>
  <path d="m111.16 240.27h41.46"/>
  <path d="m111.16 246.89h41.46"/>
 </g>
 <text x="154.08511" y="10.743942" font-size="3.3867px" letter-spacing="0px" word-spacing="0px" style="fill-opacity:.97255;fill:#ff560d;font-family:'Arial Nova', 'Arial Unicode MS', 'Yu Gothic UI', sans-serif;font-size:3.3867px;letter-spacing:0px;line-height:0%;stroke-opacity:.97255;stroke-width:.28222;stroke:#000000;word-spacing:0px" xml:space="preserve"><tspan x="154.08511" y="10.743942" font-size="2.8222px" style="fill-opacity:.97255;fill:#ff560d;font-family:'Arial Nova', 'Arial Unicode MS', 'Yu Gothic UI', sans-serif;font-size:2.8222px;line-height:1.25;stroke-opacity:.97255;stroke-width:.28222;stroke:#000000">- inf</tspan></text>
 <text x="153.70468" y="37.540436" font-size="3.3867px" letter-spacing="0px" word-spacing="0px" style="fill-opacity:.97255;fill:#ff560d;font-family:'Arial Nova', 'Arial Unicode MS', 'Yu Gothic UI', sans-serif;font-size:3.3867px;letter-spacing:0px;line-height:0%;stroke-opacity:.97255;stroke-width:.28222;stroke:#000000;word-spacing:0px" xml:space="preserve"><tspan x="153.70468" y="37.540436" font-size="2.8222px" style="fill-opacity:.97255;fill:#ff560d;font-family:'Arial Nova', 'Arial Unicode MS', 'Yu Gothic UI', sans-serif;font-size:2.8222px;line-height:1.25;stroke-opacity:.97255;stroke-width:.28222;stroke:#000000">+ inf</tspan></text>
 <path d="m160.03 16.7h-5.9878" style="color:#000000;fill-rule:evenodd;fill:#1f638a;stroke-linejoin:round;stroke-width:.5;stroke:#1f638a"/>
 <path d="m160.03 29.89h-5.9878" style="color:#000000;fill-rule:evenodd;fill:#1f638a;stroke-linejoin:round;stroke-width:.5;stroke:#1f638a"/>
 <g transform="matrix(.26458 0 0 .26458 -27.442 32.89)">
  <ellipse cx="142.29" cy="-98.798" rx="13.199" ry="13.469" style="fill:#1f638a;stroke-linecap:round;stroke-linejoin:round;stroke-width:1.0658"/>
  <text x="136.44678" y="-91.26651" font-size="12.8px" letter-spacing="0px" word-spacing="0px" style="fill:#000000;font-family:'Arial Nova', 'Arial Unicode MS', 'Yu Gothic UI', sans-serif;font-size:12.8px;letter-spacing:0px;line-height:0%;stroke-width:1.0667;word-spacing:0px" xml:space="preserve"><tspan x="136.44678" y="-91.26651" font-size="21.333px" style="fill:#ffffff;font-family:'Arial Nova', 'Arial Unicode MS', 'Yu Gothic UI', sans-serif;font-size:21.333px;line-height:1.25;stroke-width:1.0667;stroke:#ffffff">7</tspan></text>
 </g>
 <g transform="matrix(.26458 0 0 .26458 58.208 46.12)">
  <ellipse cx="173.49" cy="-98.798" rx="13.199" ry="13.469" style="fill:#1f638a;stroke-linecap:round;stroke-linejoin:round;stroke-width:1.0658"/>
  <text x="167.64812" y="-91.256096" font-size="12.8px" letter-spacing="0px" word-spacing="0px" style="fill:#000000;font-family:'Arial Nova', 'Arial Unicode MS', 'Yu Gothic UI', sans-serif;font-size:12.8px;letter-spacing:0px;line-height:0%;stroke-width:1.0667;word-spacing:0px" xml:space="preserve"><tspan x="167.64812" y="-91.256096" font-size="21.333px" style="fill:#ffffff;font-family:'Arial Nova', 'Arial Unicode MS', 'Yu Gothic UI', sans-serif;font-size:21.333px;line-height:1.25;stroke-width:1.0667;stroke:#ffffff">8</tspan></text>
 </g>
 <g transform="matrix(.26458 0 0 .26458 108.1 42.72)">
  <ellipse cx="204.69" cy="-98.798" rx="13.199" ry="13.469" style="fill:#1f638a;stroke-linecap:round;stroke-linejoin:round;stroke-width:1.0658"/>
  <text x="198.84944" y="-91.256096" font-size="12.8px" letter-spacing="0px" word-spacing="0px" style="fill:#000000;font-family:'Arial Nova', 'Arial Unicode MS', 'Yu Gothic UI', sans-serif;font-size:12.8px;letter-spacing:0px;line-height:0%;stroke-width:1.0667;word-spacing:0px" xml:space="preserve"><tspan x="198.84944" y="-91.256096" font-size="21.333px" style="fill:#ffffff;font-family:'Arial Nova', 'Arial Unicode MS', 'Yu Gothic UI', sans-serif;font-size:21.333px;line-height:1.25;stroke-width:1.0667;stroke:#ffffff">9</tspan></text>
 </g>
 <g transform="matrix(.26458 0 0 .26458 182.37 66.57)">
  <ellipse cx="-75.193" cy="-138.95" rx="13.199" ry="13.469" style="fill:#1f638a;stroke-linecap:round;stroke-linejoin:round;stroke-width:1.0658"/>
  <g transform="translate(-1.2434)" font-size="12.8px" letter-spacing="0px" word-spacing="0px" style="font-family:'Arial Nova', 'Arial Unicode MS', 'Yu Gothic UI', sans-serif;font-size:12.8px;letter-spacing:0px;stroke-width:1.0667;word-spacing:0px">
   <text x="-85.114067" y="-131.27504" style="line-height:0%" xml:space="preserve"><tspan x="-85.114067" y="-131.27504" font-size="21.333px" style="fill:#ffffff;font-family:'Arial Nova', 'Arial Unicode MS', 'Yu Gothic UI', sans-serif;font-size:21.333px;line-height:1.25;stroke-width:1.0667;stroke:#ffffff">1</tspan></text>
   <text x="-76.055321" y="-131.27504" style="line-height:0%" xml:space="preserve"><tspan x="-76.055321" y="-131.27504" font-size="21.333px" style="fill:#ffffff;font-family:'Arial Nova', 'Arial Unicode MS', 'Yu Gothic UI', sans-serif;font-size:21.333px;line-height:1.25;stroke-width:1.0667;stroke:#ffffff">0</tspan></text>
  </g>
 </g>
 <g transform="matrix(.062571 .045184 -.044726 .061937 55.004 22.59)" style="fill:#1f638a;stroke-linecap:round;stroke-linejoin:round;stroke-width:1.3023;stroke:#1f638a">
  <path d="m207.49 126.25 34.17 21.614-34.17 21.614z"/>
  <rect x="172.19" y="137.99" width="39.213" height="19.761"/>
 </g>
 <g transform="translate(0,-217)" style="fill:none">
  <path d="m77.125 258.28 35.206 20.473" style="stroke-linecap:round;stroke-linejoin:round;stroke-width:.379;stroke:#000"/>
  <g transform="matrix(.9912 0 0 .99117 -68.468 81.991)" style="stroke:#7d7d7d">
   <path d="m135.55 183.02 13.866-7.8545 35.797 20.807-13.38 7.978" style="opacity:.97;paint-order:normal;stroke-linecap:round;stroke-linejoin:round;stroke-width:.38237"/>
   <path d="m167.29 185.66-13.38 7.978" style="stroke-opacity:.97255;stroke-width:.18059"/>
  </g>
  <path d="m79.634 255.61 35.206 20.473" style="stroke-linecap:round;stroke-linejoin:round;stroke-width:.379;stroke:#000"/>
 </g>
</svg>
