<?xml version="1.0" encoding="UTF-8"?>
<svg width="18cm" height="5cm" version="1.1" xmlns="http://www.w3.org/2000/svg" xmlns:xlink="http://www.w3.org/1999/xlink">
 <defs>
  <linearGradient id="linearGradient9119-0-9-9-4-2-1-6">
   <stop style="stop-color:#fff" offset="0"/>
   <stop style="stop-color:#00385e" offset="1"/>
  </linearGradient>
  <linearGradient id="linearGradient12749" x1="456.5" x2="1084.9" y1="124.57" y2="124.57" gradientTransform="matrix(1.0667 0 0 1.0667 199.43 151.61)" gradientUnits="userSpaceOnUse" xlink:href="#linearGradient9119-0-9-9-4-2-1-6"/>
  <linearGradient id="linearGradient12751" x1="456" x2="1086" y1="232.45" y2="232.45" gradientTransform="matrix(1.0667 0 0 1.0667 198.85 74.494)" gradientUnits="userSpaceOnUse" xlink:href="#linearGradient9119-0-9-9-4-2-1-6"/>
  <linearGradient id="linearGradient12753" x1="456" x2="867.36" y1="305.45" y2="474.99" gradientTransform="matrix(1.0667 0 0 1.0667 164.23 132.41)" gradientUnits="userSpaceOnUse" xlink:href="#linearGradient9119-0-9-9-4-2-1-6"/>
  <linearGradient id="linearGradient12755" x1="589.65" x2="1085" y1="338.13" y2="305.84" gradientTransform="matrix(1.0667 0 0 1.0667 233.07 134.46)" gradientUnits="userSpaceOnUse" xlink:href="#linearGradient9119-0-9-9-4-2-1-6"/>
  <linearGradient id="linearGradient7820" x1="771.31" x2="1085" y1="305.84" y2="305.84" gradientTransform="matrix(.21522 0 0 .21522 -81.502 980.98)" gradientUnits="userSpaceOnUse" xlink:href="#linearGradient6218-7"/>
  <linearGradient id="linearGradient6218-7">
   <stop style="stop-color:#ff8500" offset="0"/>
   <stop style="stop-color:#fff" offset="1"/>
  </linearGradient>
  <linearGradient id="linearGradient7823" x1="456" x2="772.5" y1="305.45" y2="305.45" gradientTransform="matrix(.21522 0 0 .21522 -81.502 980.98)" gradientUnits="userSpaceOnUse" xlink:href="#linearGradient6218-7"/>
  <linearGradient id="linearGradient7826" x1="456" x2="1086" y1="232.45" y2="232.45" gradientTransform="matrix(.21522 0 0 .21522 -81.502 980.98)" gradientUnits="userSpaceOnUse" xlink:href="#linearGradient6218-7"/>
  <linearGradient id="linearGradient7829" x1="456.5" x2="1084.9" y1="124.57" y2="124.57" gradientTransform="matrix(.21522 0 0 .21522 -81.502 980.98)" gradientUnits="userSpaceOnUse" xlink:href="#linearGradient6218-7"/>
  <linearGradient id="linearGradient8933" x1="456.5" x2="1084.5" y1="-19.839" y2="-19.839" gradientTransform="matrix(.21522 0 0 .21522 -81.502 980.98)" gradientUnits="userSpaceOnUse">
   <stop style="stop-color:#fff" offset="0"/>
   <stop style="stop-color:#808080" offset="1"/>
  </linearGradient>
  <linearGradient id="linearGradient15452" x1="1006.6" x2="1434.6" y1="151.06" y2="337.76" gradientTransform="matrix(.21522 0 0 .21522 354.51 974.74)" gradientUnits="userSpaceOnUse" xlink:href="#linearGradient9119-0-9-9-4-2-1-6"/>
  <linearGradient id="linearGradient15455" x1="870.14" x2="885.65" y1="212.08" y2="411.9" gradientTransform="matrix(.21522 0 0 .21522 354.51 974.74)" gradientUnits="userSpaceOnUse" xlink:href="#linearGradient9119-0-9-9-4-2-1-6"/>
  <linearGradient id="linearGradient15458" x1="1002" x2="1158.7" y1="421.49" y2="467.16" gradientTransform="matrix(.21522 0 0 .21522 354.51 974.74)" gradientUnits="userSpaceOnUse" xlink:href="#linearGradient9119-0-9-9-4-2-1-6"/>
  <linearGradient id="linearGradient15461" x1="1069.6" x2="1134" y1="293.73" y2="400.7" gradientTransform="matrix(.21522 0 0 .21522 354.51 974.74)" gradientUnits="userSpaceOnUse" xlink:href="#linearGradient9119-0-9-9-4-2-1-6"/>
  <linearGradient id="linearGradient15464" x1="999.01" x2="1436.4" y1="170.48" y2="353.14" gradientTransform="matrix(.21522 0 0 .21522 354.51 974.74)" gradientUnits="userSpaceOnUse" xlink:href="#linearGradient9119-0-9-9-4-2-1-6"/>
  <linearGradient id="linearGradient15467" x1="808.37" x2="1095.5" y1="239.36" y2="554.98" gradientTransform="matrix(.21522 0 0 .21522 354.51 974.74)" gradientUnits="userSpaceOnUse" xlink:href="#linearGradient9119-0-9-9-4-2-1-6"/>
  <linearGradient id="linearGradient15470" x1="920.05" x2="1259.7" y1="266.31" y2="266.31" gradientTransform="matrix(.21522 0 0 .21522 354.51 974.74)" gradientUnits="userSpaceOnUse" xlink:href="#linearGradient9119-0-9-9-4-2-1-6"/>
  <linearGradient id="linearGradient15473" x1="744.79" x2="1436" y1="158.25" y2="158.25" gradientTransform="matrix(.21522 0 0 .21522 354.51 974.74)" gradientUnits="userSpaceOnUse" xlink:href="#linearGradient9119-0-9-9-4-2-1-6"/>
  <linearGradient id="linearGradient15493" x1="689.96" x2="1085" y1="304.41" y2="305.84" gradientTransform="matrix(.21522 0 0 .21522 260.74 984.81)" gradientUnits="userSpaceOnUse" xlink:href="#linearGradient9119-0-9-9-4-2-1-6"/>
  <linearGradient id="linearGradient15496" x1="420.32" x2="878.11" y1="218.39" y2="462.44" gradientTransform="matrix(.21522 0 0 .21522 246.85 984.4)" gradientUnits="userSpaceOnUse" xlink:href="#linearGradient9119-0-9-9-4-2-1-6"/>
  <linearGradient id="linearGradient15499" x1="456" x2="1086" y1="232.45" y2="232.45" gradientTransform="matrix(.21522 0 0 .21522 253.84 972.71)" gradientUnits="userSpaceOnUse" xlink:href="#linearGradient9119-0-9-9-4-2-1-6"/>
  <linearGradient id="linearGradient15502" x1="456.5" x2="1084.9" y1="124.57" y2="124.57" gradientTransform="matrix(.21522 0 0 .21522 253.95 988.27)" gradientUnits="userSpaceOnUse" xlink:href="#linearGradient9119-0-9-9-4-2-1-6"/>
 </defs>
 <g transform="translate(0 -933.54)">
  <path d="m16.855 988.12 67.365-38.955 67.58 38.74c-44.203 24.259-97.397 19.107-134.95 0.21522z" style="fill:url(#linearGradient8933);stroke-linecap:round;stroke-linejoin:round;stroke-width:.94488;stroke:#7d7d7d"/>
  <path d="m16.881 988.2c44.3 21.02 92.477 21.915 135.01-0.18911l-0.0391 23.877c-43.533 22.047-97.737 19.827-134.99-0.3043z" style="fill:url(#linearGradient7829);stroke-linecap:round;stroke-linejoin:round;stroke-width:.94488;stroke:#7d7d7d"/>
  <path d="m16.747 1011.6c36.716 18.941 86.953 23.404 135.38 0.3228l-67.58 38.525z" style="fill:url(#linearGradient7826);stroke-linecap:round;stroke-linejoin:round;stroke-width:.94488;stroke:#7d7d7d"/>
  <path d="m16.747 1011.7 67.903 38.632v31.423l-67.795-39.171z" style="fill:url(#linearGradient7823);stroke-linecap:round;stroke-linejoin:round;stroke-width:.94488;stroke:#7d7d7d"/>
  <path d="m84.609 1050.3v31.426l67.299-39.123v-30.669z" style="fill:url(#linearGradient7820);stroke-linecap:round;stroke-linejoin:round;stroke-width:.94488;stroke:#7d7d7d"/>
  <g transform="matrix(.20177 0 0 .20177 83.843 980.98)" style="fill:none;stroke-dasharray:3.51219169, 3.51219169;stroke-linecap:round;stroke-linejoin:round;stroke-width:1.7561;stroke:#7d7d7d">
   <path d="m487.47 35.41 333.87-193.07 334.93 192c-219.07 120.23-482.71 94.694-668.8 1.0667z" style="fill:none;stroke-dasharray:3.7463378, 3.7463378;stroke-linecap:round;stroke-linejoin:round;stroke-width:1.8732;stroke:#7d7d7d"/>
   <path d="m487.6 35.787c219.55 104.18 458.33 108.61 669.11-0.93726l-0.1942 118.34c-215.76 109.27-484.39 98.264-669.05-1.5085z" style="fill:none;stroke-dasharray:3.7463378, 3.7463378;stroke-linecap:round;stroke-linejoin:round;stroke-width:1.8732;stroke:#7d7d7d"/>
   <path d="m486.93 151.68c181.97 93.875 430.95 115.99 670.93 1.6l-334.93 190.93z" style="fill:none;stroke-dasharray:3.7463378, 3.7463378;stroke-linecap:round;stroke-linejoin:round;stroke-width:1.8732;stroke:#7d7d7d"/>
   <path d="m486.93 152.21 336.53 191.47v155.73l-336-194.13z" style="fill:none;stroke-dasharray:3.7463378, 3.7463378;stroke-linecap:round;stroke-linejoin:round;stroke-width:1.8732;stroke:#7d7d7d"/>
   <path d="m823.26 343.42v155.75l333.54-193.9v-152z" style="fill:none;stroke-dasharray:3.7463378, 3.7463378;stroke-linecap:round;stroke-linejoin:round;stroke-width:1.8732;stroke:#7d7d7d"/>
  </g>
  <g transform="matrix(.20177 0 0 .20177 43.416 958.34)">
   <path d="m654.49 168.73c223.82 119.11 523.93 113.41 734.71 1.7294l-0.1942 118.34c-213.62 118.87-553.73 101.46-735.18-3.6418z" style="fill:url(#linearGradient12749);stroke-linecap:round;stroke-linejoin:round;stroke-width:4.6829;stroke:#7d7d7d"/>
   <path d="m840.78 314.8c126.45 27.176 237.26 24.711 361.31 0.84575l-182.2 103.06z" style="fill:url(#linearGradient12751);stroke-linecap:round;stroke-linejoin:round;stroke-width:4.6829;stroke:#7d7d7d"/>
   <path d="m653.3 285.69 334.4 190.4v155.73l-333.87-193.07z" style="fill:url(#linearGradient12753);stroke-linecap:round;stroke-linejoin:round;stroke-width:4.6829;stroke:#7d7d7d"/>
   <path d="m1056.3 477.88v155.75l333.54-193.9v-152z" style="fill:url(#linearGradient12755);stroke-linecap:round;stroke-linejoin:round;stroke-width:4.6829;stroke:#7d7d7d"/>
  </g>
  <g transform="matrix(.20177 0 0 .20177 423.49 980.98)" style="fill:none;stroke-dasharray:3.51219169, 3.51219169;stroke-linecap:round;stroke-linejoin:round;stroke-width:1.7561;stroke:#7d7d7d">
   <path d="m487.47 35.41 333.87-193.07 334.93 192c-219.07 120.23-482.71 94.694-668.8 1.0667z" style="fill:none;stroke-dasharray:3.7463378, 3.7463378;stroke-linecap:round;stroke-linejoin:round;stroke-width:1.8732;stroke:#7d7d7d"/>
   <path d="m487.6 35.787c219.55 104.18 458.33 108.61 669.11-0.93726l-0.1942 118.34c-215.76 109.27-484.39 98.264-669.05-1.5085z" style="fill:none;stroke-dasharray:3.7463378, 3.7463378;stroke-linecap:round;stroke-linejoin:round;stroke-width:1.8732;stroke:#7d7d7d"/>
   <path d="m486.93 151.68c181.97 93.875 430.95 115.99 670.93 1.6l-334.93 190.93z" style="fill:none;stroke-dasharray:3.7463378, 3.7463378;stroke-linecap:round;stroke-linejoin:round;stroke-width:1.8732;stroke:#7d7d7d"/>
   <path d="m486.93 152.21 336.53 191.47v155.73l-336-194.13z" style="fill:none;stroke-dasharray:3.7463378, 3.7463378;stroke-linecap:round;stroke-linejoin:round;stroke-width:1.8732;stroke:#7d7d7d"/>
   <path d="m823.26 343.42v155.75l333.54-193.9v-152z" style="fill:none;stroke-dasharray:3.7463378, 3.7463378;stroke-linecap:round;stroke-linejoin:round;stroke-width:1.8732;stroke:#7d7d7d"/>
  </g>
  <path d="m515.04 992.1c45.16 24.033 105.71 22.883 148.24 0.34895l0.18913 23.192c-9.6185 0.9617-30.164 4.791-36.969 6.0311-30.022 5.4711-47.953 4.7772-73.829-0.2363-14.493-2.8079-24.799-3.5247-37.769-5.8448z" style="fill:url(#linearGradient15473);stroke-linecap:round;stroke-linejoin:round;stroke-width:.94488;stroke:#7d7d7d"/>
  <path d="m552.62 1021.6c25.514 5.4833 47.873 4.986 72.903 0.1707l-36.762 20.795z" style="fill:url(#linearGradient15470);stroke-linecap:round;stroke-linejoin:round;stroke-width:.94488;stroke:#7d7d7d"/>
  <path d="m515.02 1015.6 67.396 38.57-0.15217 31.346-67.365-38.955z" style="fill:url(#linearGradient15467);stroke-linecap:round;stroke-linejoin:round;stroke-width:.94488;stroke:#7d7d7d"/>
  <path d="m596.12 1054.5v31.426l67.451-39.504-0.076-30.822z" style="fill:url(#linearGradient15464);stroke-linecap:round;stroke-linejoin:round;stroke-width:.94488;stroke:#7d7d7d"/>
  <path d="m582.41 1054.1c-0.0225-4.1425 0.91407-8.1785 6.3157-11.718 5.3294 2.6834 7.3185 6.9084 7.381 12.023-5.0154 2.485-9.4909 1.8655-13.697-0.3044z" style="fill:url(#linearGradient15461);stroke-linecap:round;stroke-linejoin:round;stroke-width:.75591;stroke:#7d7d7d"/>
  <path d="m582.41 1054.1c4.3017 2.0565 7.5985 2.5858 13.697 0.4566v31.274c-5.7299 2.3343-9.71 1.093-13.849-0.1522z" style="fill:url(#linearGradient15458);stroke-width:1.0667px;stroke:#7d7d7d"/>
  <path d="m514.96 1015.6c12.365 1.7832 24.67 3.5067 37.449 5.7034l36.265 21.092c-4.6168 2.9154-6.2049 7.0612-6.2415 11.837z" style="fill:url(#linearGradient15455);stroke-width:1.0667px;stroke:#7d7d7d"/>
  <path d="m588.65 1042.4 36.981-20.621c13.073-2.5747 25.481-4.6032 37.742-6.1635l-67.038 38.807c-0.47208-4.7041-1.7961-9.1243-7.6854-12.023z" style="fill:url(#linearGradient15452);stroke-width:1.0667px;stroke:#7d7d7d"/>
  <path d="m101.64 1060.7v31.426l67.299-39.123v-30.669z" style="fill:none;stroke-dasharray:1.88976378, 1.88976378;stroke-linecap:round;stroke-linejoin:round;stroke-width:.94488;stroke:#f00"/>
  <path d="m69.565 1041.4 46.744 27.82" style="stroke-linecap:round;stroke-linejoin:round;stroke-width:1.0667px;stroke:#000"/>
  <path d="m101.99 1061.2 13.036 2.3784-4.2177 7.6799z" style="stroke-linecap:round;stroke-linejoin:round;stroke-width:1.0658;stroke:#000"/>
  <path d="m84.053 1050.1-8.6778-10.015-4.4676 7.5374z" style="stroke-linecap:round;stroke-linejoin:round;stroke-width:1.0658;stroke:#000"/>
  <text x="27.171268" y="1036.8387" style="fill:#ff6600;font-family:'Arial Nova', 'Arial Unicode MS', 'Yu Gothic UI', sans-serif;font-size:12.8px;letter-spacing:0px;line-height:0%;stroke-width:1.0667;stroke:#ff6600;word-spacing:0px" xml:space="preserve"><tspan x="27.171268" y="1036.8387" style="font-family:'Arial Nova', 'Arial Unicode MS', 'Yu Gothic UI', sans-serif;stroke-width:1.0667">1</tspan></text>
  <text x="128.38895" y="1037.6465" style="fill:#ff6600;font-family:'Arial Nova', 'Arial Unicode MS', 'Yu Gothic UI', sans-serif;font-size:12.8px;letter-spacing:0px;line-height:0%;stroke-width:1.0667;stroke:#ff6600;word-spacing:0px" xml:space="preserve"><tspan x="128.38895" y="1037.6465" style="font-family:'Arial Nova', 'Arial Unicode MS', 'Yu Gothic UI', sans-serif;stroke-width:1.0667">2</tspan></text>
  <text x="84.636673" y="1039.9929" style="fill:#ff6600;font-family:'Arial Nova', 'Arial Unicode MS', 'Yu Gothic UI', sans-serif;font-size:12.8px;letter-spacing:0px;line-height:0%;stroke-width:1.0667;stroke:#ff6600;word-spacing:0px" xml:space="preserve"><tspan x="84.636673" y="1039.9929" style="font-family:'Arial Nova', 'Arial Unicode MS', 'Yu Gothic UI', sans-serif;stroke-width:1.0667">3</tspan></text>
  <text x="84.988335" y="1018.4198" style="fill:#ff6600;font-family:'Arial Nova', 'Arial Unicode MS', 'Yu Gothic UI', sans-serif;font-size:12.8px;letter-spacing:0px;line-height:0%;stroke-width:1.0667;stroke:#ff6600;word-spacing:0px" xml:space="preserve"><tspan x="84.988335" y="1018.4198" style="font-family:'Arial Nova', 'Arial Unicode MS', 'Yu Gothic UI', sans-serif;stroke-width:1.0667">4</tspan></text>
  <g transform="translate(-737.04 815.74)">
   <ellipse cx="775.16" cy="269.59" rx="13.199" ry="13.469" style="fill:#1f638a;stroke-linecap:round;stroke-linejoin:round;stroke-width:1.0658"/>
   <text x="769.24432" y="277.12357" style="fill:#000000;font-family:'Arial Nova', 'Arial Unicode MS', 'Yu Gothic UI', sans-serif;font-size:12.8px;letter-spacing:0px;line-height:0%;stroke-width:1.0667;word-spacing:0px" xml:space="preserve"><tspan x="769.24432" y="277.12357" style="fill:#ffffff;font-family:'Arial Nova', 'Arial Unicode MS', 'Yu Gothic UI', sans-serif;font-size:21.333px;font-weight:bold;stroke-width:1.0667">1</tspan></text>
  </g>
  <g transform="matrix(.20177 0 0 .20177 254.18 980.98)" style="fill:none;stroke-dasharray:3.51219169, 3.51219169;stroke-linecap:round;stroke-linejoin:round;stroke-width:1.7561;stroke:#7d7d7d">
   <path d="m487.47 35.41 333.87-193.07 334.93 192c-219.07 120.23-482.71 94.694-668.8 1.0667z" style="fill:none;stroke-dasharray:3.7463378, 3.7463378;stroke-linecap:round;stroke-linejoin:round;stroke-width:1.8732;stroke:#7d7d7d"/>
   <path d="m487.6 35.787c219.55 104.18 458.33 108.61 669.11-0.93726l-0.1942 118.34c-215.76 109.27-484.39 98.264-669.05-1.5085z" style="fill:none;stroke-dasharray:3.7463378, 3.7463378;stroke-linecap:round;stroke-linejoin:round;stroke-width:1.8732;stroke:#7d7d7d"/>
   <path d="m486.93 151.68c181.97 93.875 430.95 115.99 670.93 1.6l-334.93 190.93z" style="fill:none;stroke-dasharray:3.7463378, 3.7463378;stroke-linecap:round;stroke-linejoin:round;stroke-width:1.8732;stroke:#7d7d7d"/>
   <path d="m486.93 152.21 336.53 191.47v155.73l-336-194.13z" style="fill:none;stroke-dasharray:3.7463378, 3.7463378;stroke-linecap:round;stroke-linejoin:round;stroke-width:1.8732;stroke:#7d7d7d"/>
   <path d="m823.26 343.42v155.75l333.54-193.9v-152z" style="fill:none;stroke-dasharray:3.7463378, 3.7463378;stroke-linecap:round;stroke-linejoin:round;stroke-width:1.8732;stroke:#7d7d7d"/>
  </g>
  <path d="m345.77 991.73c45.16 24.033 105.71 22.883 148.24 0.34895l-0.0394 16.129c-43.103 23.984-111.73 20.473-148.34-0.7348z" style="fill:url(#linearGradient15502);stroke-linecap:round;stroke-linejoin:round;stroke-width:.94488;stroke:#7d7d7d"/>
  <path d="m354.98 1012.2c40.331 16.616 86.433 17.398 129.44 0.8555l-64.46 36.242z" style="fill:url(#linearGradient15499);stroke-linecap:round;stroke-linejoin:round;stroke-width:.94488;stroke:#7d7d7d"/>
  <path d="m345.53 1007.1 74.36 42.291v39.601l-74.252-42.829z" style="fill:url(#linearGradient15496);stroke-linecap:round;stroke-linejoin:round;stroke-width:.94488;stroke:#7d7d7d"/>
  <path d="m419.96 1049.4v39.605l74.186-42.567v-38.848z" style="fill:url(#linearGradient15493);stroke-linecap:round;stroke-linejoin:round;stroke-width:.94488;stroke:#7d7d7d"/>
  <g transform="translate(-492.2 593.6)">
   <ellipse cx="966.69" cy="491.73" rx="13.199" ry="13.469" style="fill:#1f638a;stroke-linecap:round;stroke-linejoin:round;stroke-width:1.0658"/>
   <text x="960.80878" y="499.3985" style="fill:#000000;font-family:'Arial Nova', 'Arial Unicode MS', 'Yu Gothic UI', sans-serif;font-size:12.8px;letter-spacing:0px;line-height:0%;stroke-width:1.0667;word-spacing:0px" xml:space="preserve"><tspan x="960.80878" y="499.3985" style="fill:#ffffff;font-family:'Arial Nova', 'Arial Unicode MS', 'Yu Gothic UI', sans-serif;font-size:21.333px;font-weight:bold;stroke-width:1.0667">4</tspan></text>
  </g>
  <g transform="translate(-674.97 685.64)">
   <ellipse cx="982.02" cy="399.69" rx="13.199" ry="13.469" style="fill:#1f638a;stroke-linecap:round;stroke-linejoin:round;stroke-width:1.0658"/>
   <text x="976.14124" y="407.22528" style="fill:#000000;font-family:'Arial Nova', 'Arial Unicode MS', 'Yu Gothic UI', sans-serif;font-size:12.8px;letter-spacing:0px;line-height:0%;stroke-width:1.0667;word-spacing:0px" xml:space="preserve"><tspan x="976.14124" y="407.22528" style="fill:#ffffff;font-family:'Arial Nova', 'Arial Unicode MS', 'Yu Gothic UI', sans-serif;font-size:21.333px;font-weight:bold;stroke-width:1.0667">3</tspan></text>
  </g>
  <g transform="translate(-1053.4 925.18)">
   <ellipse cx="1175.2" cy="160.16" rx="13.199" ry="13.469" style="fill:#1f638a;stroke-linecap:round;stroke-linejoin:round;stroke-width:1.0658"/>
   <text x="1169.625" y="167.8232" style="fill:#000000;font-family:'Arial Nova', 'Arial Unicode MS', 'Yu Gothic UI', sans-serif;font-size:12.8px;letter-spacing:0px;line-height:0%;stroke-width:1.0667;word-spacing:0px" xml:space="preserve"><tspan x="1169.625" y="167.8232" style="fill:#ffffff;font-family:'Arial Nova', 'Arial Unicode MS', 'Yu Gothic UI', sans-serif;font-size:21.333px;font-weight:bold;stroke-width:1.0667">2</tspan></text>
  </g>
  <g transform="translate(-127.39 753.04)">
   <ellipse cx="770.25" cy="332.29" rx="13.199" ry="13.469" style="fill:#1f638a;stroke-linecap:round;stroke-linejoin:round;stroke-width:1.0658"/>
   <text x="764.16443" y="339.68964" style="fill:#000000;font-family:'Arial Nova', 'Arial Unicode MS', 'Yu Gothic UI', sans-serif;font-size:12.8px;letter-spacing:0px;line-height:0%;stroke-width:1.0667;word-spacing:0px" xml:space="preserve"><tspan x="764.16443" y="339.68964" style="fill:#ffffff;font-family:'Arial Nova', 'Arial Unicode MS', 'Yu Gothic UI', sans-serif;font-size:21.333px;font-weight:bold;stroke-width:1.0667">5</tspan></text>
  </g>
  <path d="m49.503 1070.4 6.2253-5.147 6.9023 14.13 6.2932-3.0742-6.9023-14.13 7.4287-1.523-19.542-14.716z" style="fill:#fff;stroke-linecap:round;stroke-linejoin:round;stroke-width:.75591;stroke:#000"/>
 </g>
</svg>
