<?xml version="1.0" encoding="UTF-8"?>
<svg xmlns:cc="http://creativecommons.org/ns#" xmlns:dc="http://purl.org/dc/elements/1.1/" xmlns:rdf="http://www.w3.org/1999/02/22-rdf-syntax-ns#" width="18cm" height="3cm" version="1.1" viewBox="0 0 180 30" xmlns="http://www.w3.org/2000/svg">
 <metadata>
  <rdf:RDF>
   <cc:Work rdf:about="">
    <dc:format>image/svg+xml</dc:format>
    <dc:type rdf:resource="http://purl.org/dc/dcmitype/StillImage"/>
    <dc:title/>
   </cc:Work>
  </rdf:RDF>
 </metadata>
 <defs>
  <linearGradient id="linearGradient11381-0" x1="52.471" x2="17.134" y1="214.33" y2="214.65" gradientTransform="matrix(.33463 0 0 1.0584 55.644 -259.05)" gradientUnits="userSpaceOnUse">
   <stop stop-color="#fff" offset="0"/>
   <stop stop-color="#fff" stop-opacity="0" offset="1"/>
  </linearGradient>
  <linearGradient id="linearGradient5521" x1="52.056" x2="60.285" y1="-54.336" y2="-54.336" gradientTransform="matrix(.93248 0 0 .73941 -75.031 -3.3072)" gradientUnits="userSpaceOnUse">
   <stop stop-color="#fff" offset="0"/>
   <stop stop-color="#fff" stop-opacity="0" offset="1"/>
  </linearGradient>
  <linearGradient id="linearGradient11381-0-8" x1="52.471" x2="17.134" y1="214.33" y2="214.65" gradientTransform="matrix(.33463 0 0 1.0584 147.72 -259.05)" gradientUnits="userSpaceOnUse">
   <stop stop-color="#fff" offset="0"/>
   <stop stop-color="#fff" stop-opacity="0" offset="1"/>
  </linearGradient>
  <linearGradient id="linearGradient5521-8" x1="51.66" x2="60.285" y1="-54.336" y2="-54.336" gradientTransform="matrix(.96667 0 0 .73941 -77.093 -95.382)" gradientUnits="userSpaceOnUse">
   <stop stop-color="#fff" offset="0"/>
   <stop stop-color="#fff" stop-opacity="0" offset="1"/>
  </linearGradient>
 </defs>
 <text x="92.355995" y="188.39142" fill="#000000" font-family="'Arial Nova', 'Arial Unicode MS', 'Yu Gothic UI', sans-serif" font-size="3.5278px" letter-spacing="0px" stroke-width=".26458" word-spacing="0px" style="line-height:1.25" xml:space="preserve"><tspan x="92.355995" y="191.5705" stroke-width=".26458"/></text>
 <rect x="13.342" y="2.8759" width="60.696" height="7.1829" fill="#f2f2f2" opacity=".97" style="paint-order:normal"/>
 <text x="15.540946" y="7.5964541" fill="#000000" font-family="'Arial Nova', 'Arial Unicode MS', 'Yu Gothic UI', sans-serif" font-size="3.5278px" letter-spacing="0px" stroke-width=".26458" word-spacing="0px" style="line-height:1.25" xml:space="preserve"><tspan x="15.540946" y="7.5964541" stroke-width=".26458">Variable</tspan></text>
 <rect x="39.592" y="2.9" width="34.374" height="7.1829" fill="#f2f2f2" opacity=".97" style="paint-order:normal"/>
 <rect x="39.592" y="3.1551" width="34.518" height="7.1829" fill="#f2f2f2" opacity=".97" style="paint-order:normal"/>
 <text x="40.861855" y="7.8756561" fill="#000000" font-family="'Arial Nova', 'Arial Unicode MS', 'Yu Gothic UI', sans-serif" font-size="3.5278px" letter-spacing="0px" stroke-width=".26458" word-spacing="0px" style="font-feature-settings:normal;font-variant-caps:normal;font-variant-ligatures:normal;font-variant-numeric:normal;line-height:1.25" xml:space="preserve"><tspan x="40.861855" y="7.8756561">Formula / value</tspan></text>
 <path d="m13.201 3.17 60.829 0.098201" fill="none" stroke="#000" stroke-width=".26458px"/>
 <path d="m13.201 10.26 60.901 0.09832" fill="none" stroke="#000" stroke-width=".26458px"/>
 <path d="m13.343 18.15 60.867 0.09956" fill="none" stroke="#000" stroke-width=".26458px"/>
 <path d="m72.609 3.17v23.841" fill="none" stroke="#000" stroke-width=".26458px"/>
 <path d="m39.801 3.17v23.841" fill="none" stroke="#000" stroke-width=".26458px"/>
 <path d="m13.342 3.17v23.841" fill="none" stroke="#000" stroke-width=".26458px"/>
 <rect x="61.726" y="2.1776" width="12.767" height="24.825" fill="url(#linearGradient11381-0)" style="paint-order:normal"/>
 <rect transform="matrix(0,-1,-1,0,0,0)" x="-26.853" y="-74.277" width="8.0428" height="61.586" fill="url(#linearGradient5521)" style="paint-order:normal"/>
 <g stroke-width=".26458" aria-label="L1">
  <path d="m18.055 15.397-0.06374 0.29972h-1.5796l0.53744-2.5253h0.33418l-0.4737 2.2255z"/>
  <path d="m19.111 15.696 0.41686-1.9654q-0.1378 0.11369-0.32384 0.21187-0.18431 0.09646-0.37724 0.16192l0.06374-0.29972q0.28078-0.12058 0.51504-0.29284 0.23427-0.17398 0.34968-0.34107h0.20154l-0.53572 2.5253z"/>
 </g>
 <g stroke-width=".26458" aria-label="50">
  <path d="m44.697 13.035h-1.006l-0.10163 0.67352q0.09474-0.07579 0.2136-0.11713 0.11886-0.04134 0.25494-0.04134 0.21188 0 0.38413 0.10163 0.17398 0.09991 0.27389 0.28594 0.10163 0.18604 0.10163 0.43064 0 0.26183-0.10508 0.46509-0.10508 0.20154-0.29972 0.31523-0.19465 0.11369-0.45648 0.11369-0.33073 0-0.53744-0.1757t-0.26011-0.50643l0.31006-0.04823q0.04134 0.23427 0.16881 0.35485 0.12919 0.12058 0.3204 0.12058 0.15158 0 0.27216-0.07924 0.12058-0.08096 0.18776-0.21876 0.06718-0.13953 0.06718-0.31178 0-0.17398-0.06546-0.30317-0.06374-0.12919-0.17915-0.1981-0.11541-0.07062-0.267-0.07062-0.12919 0-0.25838 0.07062-0.12747 0.07062-0.19637 0.17915l-0.27561-0.04134 0.19465-1.2988h1.2592z"/>
  <path d="m45.119 13.983q0-0.39791 0.0689-0.66663 0.0689-0.27044 0.24805-0.44614 0.17915-0.1757 0.50471-0.1757 0.40997 0 0.61668 0.30662 0.20671 0.30662 0.20671 0.97669 0 0.63735-0.19982 0.96119-0.19809 0.32384-0.62357 0.32384-0.44614 0-0.6339-0.33418t-0.18776-0.94568zm0.81649-1.0335q-0.17053 0-0.27905 0.09991-0.10852 0.09819-0.16364 0.32556-0.05512 0.22566-0.05512 0.60634 0 0.37896 0.0534 0.60462 0.0534 0.22393 0.16192 0.32384 0.11024 0.09819 0.28767 0.09819 0.1757 0 0.28594-0.09819 0.11024-0.09991 0.16364-0.32384 0.05512-0.22566 0.05512-0.60462 0-0.38069-0.05684-0.60634-0.05512-0.22738-0.16709-0.32556-0.11024-0.09991-0.28594-0.09991z"/>
 </g>
 <g stroke-width=".26458" aria-label="L2">
  <path d="m18.055 22.805-0.06374 0.29973h-1.5796l0.53744-2.5253h0.33418l-0.4737 2.2255z"/>
  <path d="m18.709 22.805h1.2334l-0.06373 0.29973h-1.664q0.04651-0.22049 0.23599-0.43581t0.53572-0.45992l0.23771-0.16709q0.26355-0.18431 0.42203-0.32729 0.15848-0.1447 0.23427-0.27044 0.07579-0.12747 0.07579-0.25494 0-0.17398-0.1068-0.26527-0.1068-0.0913-0.28767-0.0913-0.22221 0-0.37896 0.13264-0.15675 0.13091-0.22393 0.37896l-0.31178-0.04996q0.10852-0.34451 0.33762-0.52882 0.23082-0.18604 0.62012-0.18604 0.20671 0 0.35829 0.07924 0.15331 0.07752 0.23427 0.21188 0.08096 0.13436 0.08096 0.29628 0 0.18776-0.09646 0.35657-0.09474 0.16709-0.27561 0.33245-0.18087 0.16364-0.47198 0.36863l-0.27733 0.19465q-0.15159 0.1068-0.26183 0.19809-0.10852 0.0913-0.18604 0.18776z"/>
 </g>
 <g stroke-width=".26458" aria-label="100">
  <path d="m44.319 23.061h-0.31006v-1.9654q-0.11541 0.11541-0.27906 0.21187-0.16192 0.09646-0.34279 0.16192v-0.29972q0.25494-0.12058 0.45303-0.29284t0.27733-0.34107h0.20154z"/>
  <path d="m45.119 21.824q0-0.39791 0.0689-0.66663 0.0689-0.27044 0.24805-0.44614 0.17915-0.1757 0.50471-0.1757 0.40997 0 0.61668 0.30662 0.20671 0.30662 0.20671 0.97669 0 0.63735-0.19982 0.96119-0.19809 0.32384-0.62357 0.32384-0.44614 0-0.6339-0.33418-0.18776-0.33418-0.18776-0.94568zm0.81649-1.0335q-0.17053 0-0.27905 0.09991-0.10852 0.09819-0.16364 0.32556-0.05512 0.22566-0.05512 0.60634 0 0.37896 0.0534 0.60462 0.0534 0.22393 0.16192 0.32384 0.11024 0.09819 0.28767 0.09819 0.1757 0 0.28594-0.09819 0.11024-0.09991 0.16364-0.32384 0.05512-0.22566 0.05512-0.60462 0-0.38068-0.05684-0.60634-0.05512-0.22738-0.16709-0.32556-0.11024-0.09991-0.28594-0.09991z"/>
  <path d="m47.081 21.824q0-0.39791 0.0689-0.66663 0.0689-0.27044 0.24805-0.44614 0.17915-0.1757 0.50471-0.1757 0.40997 0 0.61668 0.30662 0.20671 0.30662 0.20671 0.97669 0 0.63735-0.19982 0.96119-0.19809 0.32384-0.62357 0.32384-0.44614 0-0.6339-0.33418-0.18776-0.33418-0.18776-0.94568zm0.81649-1.0335q-0.17053 0-0.27905 0.09991-0.10852 0.09819-0.16364 0.32556-0.05512 0.22566-0.05512 0.60634 0 0.37896 0.0534 0.60462 0.0534 0.22393 0.16192 0.32384 0.11024 0.09819 0.28767 0.09819 0.1757 0 0.28594-0.09819 0.11024-0.09991 0.16364-0.32384 0.05512-0.22566 0.05512-0.60462 0-0.38068-0.05685-0.60634-0.05512-0.22738-0.16709-0.32556-0.11024-0.09991-0.28594-0.09991z"/>
 </g>
 <rect x="105.42" y="2.8759" width="60.696" height="7.1829" fill="#f2f2f2" opacity=".97" style="paint-order:normal"/>
 <text x="107.61599" y="7.5964522" fill="#000000" font-family="'Arial Nova', 'Arial Unicode MS', 'Yu Gothic UI', sans-serif" font-size="3.5278px" letter-spacing="0px" stroke-width=".26458" word-spacing="0px" style="line-height:1.25" xml:space="preserve"><tspan x="107.61599" y="7.5964522" stroke-width=".26458">Variable</tspan></text>
 <rect x="131.67" y="2.9" width="34.374" height="7.1829" fill="#f2f2f2" opacity=".97" style="paint-order:normal"/>
 <rect x="131.67" y="3.1551" width="34.518" height="7.1829" fill="#f2f2f2" opacity=".97" style="paint-order:normal"/>
 <text x="132.93681" y="7.8756547" fill="#000000" font-family="'Arial Nova', 'Arial Unicode MS', 'Yu Gothic UI', sans-serif" font-size="3.5278px" letter-spacing="0px" stroke-width=".26458" word-spacing="0px" style="font-feature-settings:normal;font-variant-caps:normal;font-variant-ligatures:normal;font-variant-numeric:normal;line-height:1.25" xml:space="preserve"><tspan x="132.93681" y="7.8756547" stroke-width=".26458">Formula / value</tspan></text>
 <path d="m105.28 3.17 60.829 0.098201" fill="none" stroke="#000" stroke-width=".26458px"/>
 <rect x="105.55" y="10.401" width="26.208" height="16.342" fill="#f00" opacity=".97" style="paint-order:normal"/>
 <path d="m105.28 10.26 60.901 0.09832" fill="none" stroke="#000" stroke-width=".26458px"/>
 <path d="m105.42 18.15 60.867 0.09956" fill="none" stroke="#000" stroke-width=".26458px"/>
 <path d="m164.68 3.17v23.841" fill="none" stroke="#000" stroke-width=".26458px"/>
 <path d="m131.88 3.17v23.841" fill="none" stroke="#000" stroke-width=".26458px"/>
 <path d="m105.42 3.17v23.841" fill="none" stroke="#000" stroke-width=".26458px"/>
 <rect x="153.8" y="2.1776" width="12.767" height="24.825" fill="url(#linearGradient11381-0-8)" style="paint-order:normal"/>
 <rect transform="matrix(0,-1,-1,0,0,0)" x="-27.148" y="-166.35" width="8.3377" height="61.586" fill="url(#linearGradient5521-8)" style="paint-order:normal"/>
 <g stroke-width=".26458" aria-label="L1">
  <path d="m110.13 15.397-0.0637 0.29972h-1.5796l0.53744-2.5253h0.33417l-0.4737 2.2255z"/>
  <path d="m111.19 15.696 0.41686-1.9654q-0.13781 0.11369-0.32384 0.21187-0.18432 0.09646-0.37724 0.16192l0.0637-0.29972q0.28078-0.12058 0.51505-0.29284 0.23426-0.17398 0.34968-0.34107h0.20154l-0.53572 2.5253z"/>
 </g>
 <g stroke-width=".26458" aria-label="50">
  <path d="m136.77 13.035h-1.006l-0.10163 0.67352q0.0947-0.07579 0.21359-0.11713 0.11886-0.04134 0.25494-0.04134 0.21188 0 0.38413 0.10163 0.17398 0.09991 0.27389 0.28594 0.10163 0.18604 0.10163 0.43064 0 0.26183-0.10507 0.46509-0.10508 0.20154-0.29973 0.31523-0.19465 0.11369-0.45648 0.11369-0.33073 0-0.53744-0.1757-0.2067-0.1757-0.2601-0.50643l0.31006-0.04823q0.0413 0.23427 0.16881 0.35485 0.12919 0.12058 0.3204 0.12058 0.15158 0 0.27216-0.07924 0.12058-0.08096 0.18776-0.21876 0.0672-0.13953 0.0672-0.31178 0-0.17398-0.0655-0.30317-0.0637-0.12919-0.17915-0.1981-0.11541-0.07062-0.26699-0.07062-0.12919 0-0.25839 0.07062-0.12746 0.07062-0.19637 0.17915l-0.27561-0.04134 0.19465-1.2988h1.2592z"/>
  <path d="m137.19 13.982q0-0.39791 0.0689-0.66663 0.0689-0.27044 0.24805-0.44614t0.50471-0.1757q0.40997 0 0.61668 0.30662 0.2067 0.30662 0.2067 0.97669 0 0.63735-0.19981 0.96119-0.1981 0.32384-0.62357 0.32384-0.44614 0-0.6339-0.33418t-0.18776-0.94568zm0.81649-1.0335q-0.17053 0-0.27905 0.09991-0.10852 0.09819-0.16365 0.32556-0.0551 0.22566-0.0551 0.60634 0 0.37896 0.0534 0.60462 0.0534 0.22393 0.16192 0.32384 0.11025 0.09819 0.28767 0.09819 0.1757 0 0.28594-0.09819 0.11025-0.09991 0.16365-0.32384 0.0551-0.22566 0.0551-0.60462 0-0.38069-0.0568-0.60634-0.0551-0.22738-0.16709-0.32556-0.11025-0.09991-0.28595-0.09991z"/>
 </g>
 <g stroke-width=".26458" aria-label="L2">
  <path d="m110.13 22.805-0.0637 0.29973h-1.5796l0.53744-2.5253h0.33417l-0.4737 2.2255z"/>
  <path d="m110.78 22.805h1.2334l-0.0637 0.29973h-1.664q0.0465-0.22049 0.23599-0.43581 0.18948-0.21532 0.53571-0.45992l0.23772-0.16709q0.26355-0.18431 0.42202-0.32729 0.15848-0.1447 0.23427-0.27044 0.0758-0.12747 0.0758-0.25494 0-0.17398-0.1068-0.26527-0.1068-0.0913-0.28767-0.0913-0.22221 0-0.37896 0.13264-0.15676 0.13091-0.22394 0.37896l-0.31178-0.04996q0.10852-0.34451 0.33762-0.52882 0.23082-0.18604 0.62012-0.18604 0.20671 0 0.3583 0.07924 0.1533 0.07752 0.23426 0.21188 0.081 0.13436 0.081 0.29628 0 0.18776-0.0965 0.35657-0.0947 0.16709-0.27561 0.33245-0.18087 0.16364-0.47198 0.36863l-0.27733 0.19465q-0.15159 0.1068-0.26183 0.19809-0.10852 0.0913-0.18604 0.18776z"/>
 </g>
 <g stroke-width=".26458" aria-label="100">
  <path d="m136.39 23.061h-0.31006v-1.9654q-0.11541 0.11541-0.27905 0.21188-0.16192 0.09646-0.34279 0.16192v-0.29972q0.25494-0.12058 0.45303-0.29284 0.1981-0.17226 0.27733-0.34107h0.20154z"/>
  <path d="m137.19 21.824q0-0.39791 0.0689-0.66663 0.0689-0.27044 0.24805-0.44614t0.50471-0.1757q0.40997 0 0.61668 0.30662 0.2067 0.30662 0.2067 0.97669 0 0.63735-0.19981 0.96119-0.1981 0.32384-0.62357 0.32384-0.44614 0-0.6339-0.33418-0.18776-0.33418-0.18776-0.94568zm0.81649-1.0335q-0.17053 0-0.27905 0.09991-0.10852 0.09819-0.16365 0.32556-0.0551 0.22566-0.0551 0.60634 0 0.37896 0.0534 0.60462 0.0534 0.22393 0.16192 0.32384 0.11025 0.09819 0.28767 0.09819 0.1757 0 0.28594-0.09819 0.11025-0.09991 0.16365-0.32384 0.0551-0.22566 0.0551-0.60462 0-0.38069-0.0568-0.60634-0.0551-0.22738-0.16709-0.32556-0.11025-0.09991-0.28595-0.09991z"/>
  <path d="m139.16 21.824q0-0.39791 0.0689-0.66663 0.0689-0.27044 0.24804-0.44614 0.17915-0.1757 0.50471-0.1757 0.40997 0 0.61668 0.30662 0.20671 0.30662 0.20671 0.97669 0 0.63735-0.19982 0.96119-0.19809 0.32384-0.62357 0.32384-0.44614 0-0.6339-0.33418-0.18776-0.33418-0.18776-0.94568zm0.8165-1.0335q-0.17054 0-0.27906 0.09991-0.10852 0.09819-0.16364 0.32556-0.0551 0.22566-0.0551 0.60634 0 0.37896 0.0534 0.60462 0.0534 0.22393 0.16192 0.32384 0.11024 0.09819 0.28766 0.09819 0.17571 0 0.28595-0.09819 0.11024-0.09991 0.16364-0.32384 0.0551-0.22566 0.0551-0.60462 0-0.38069-0.0568-0.60634-0.0551-0.22738-0.16709-0.32556-0.11024-0.09991-0.28594-0.09991z"/>
 </g>
</svg>
