<?xml version="1.0" encoding="UTF-8"?>
<svg width="18cm" height="4cm" version="1.1" viewBox="0 0 180 40" xmlns="http://www.w3.org/2000/svg">
 <path d="m5.432 35.611v-13.816h18.247l3.8797-6.5532h11.891v10.463h5.409v-10.463h4.5671l4.8225 4.9891h13.294l6.4517 6.4517v8.9281" fill="none" stroke="#000" stroke-linecap="round" stroke-linejoin="round"/>
 <path d="m5.8487 35.676h68.285" fill="none" stroke="#000" stroke-dasharray="2, 1, 0.5, 1" stroke-linecap="round" stroke-linejoin="round" stroke-width=".5"/>
 <path d="m56.424 9.6338h2.7576m9.4205 0h2.987" color="#000000" fill="#f0f" fill-rule="evenodd" stroke="#f0f" stroke-linecap="round" stroke-linejoin="round" stroke-width=".379"/>
 <path d="m54.692 8.7521v10.921" color="#000000" fill="#f0f" fill-rule="evenodd" stroke="#f0f" stroke-linecap="round" stroke-linejoin="round" stroke-width=".379"/>
 <path d="m56.644 9.1338v0.96053l-1.9636-0.44961z" color="#000000" fill="#f0f" fill-rule="evenodd" stroke="#f0f" stroke-linecap="round" stroke-linejoin="round" stroke-width=".379"/>
 <path d="m72.004 9.0938v0.96053l1.9636-0.44961z" color="#000000" fill="#f0f" fill-rule="evenodd" stroke="#f0f" stroke-linecap="round" stroke-linejoin="round" stroke-width=".379"/>
 <text transform="scale(1.0004 .9996)" x="61.909081" y="10.512986" fill="#ff00ff" font-family="'Century Gothic'" font-size="2.44px" letter-spacing="0px" stroke="#ff00ff" stroke-width=".28222" word-spacing="0px" style="line-height:0%" xml:space="preserve"><tspan x="61.909081" y="10.512986" fill="#ff00ff" font-family="'Arial Nova', 'Arial Unicode MS', 'Yu Gothic UI', sans-serif" font-size="3.2533px" stroke="#ff00ff" stroke-width=".28222" style="line-height:1.25">44</tspan></text>
 <path d="m74.314 8.4466v17.362" color="#000000" fill="#f0f" fill-rule="evenodd" stroke="#f0f" stroke-linecap="round" stroke-linejoin="round" stroke-width=".379"/>
 <path d="m5.521 14.917v6.2375" color="#000000" fill="#f0f" fill-rule="evenodd" stroke="#f0f" stroke-linecap="round" stroke-linejoin="round" stroke-width=".379"/>
 <path d="m23.68 14.745v6.0114" color="#000000" fill="#f0f" fill-rule="evenodd" stroke="#f0f" stroke-linecap="round" stroke-linejoin="round" stroke-width=".379"/>
 <path d="m39.555 3.6413v10.868" color="#000000" fill="#000080" fill-rule="evenodd" stroke="#f00" stroke-linecap="round" stroke-linejoin="round" stroke-width=".379"/>
 <path d="m44.846 3.6413v10.868" color="#000000" fill="#000080" fill-rule="evenodd" stroke="#f00" stroke-linecap="round" stroke-linejoin="round" stroke-width=".379"/>
 <path d="m7.736 15.984h2.7576m7.3039 0h5.1037" color="#000000" fill="#f0f" fill-rule="evenodd" stroke="#f0f" stroke-linecap="round" stroke-linejoin="round" stroke-width=".379"/>
 <path d="m7.959 15.484v0.96053l-1.9636-0.44961z" color="#000000" fill="#f0f" fill-rule="evenodd" stroke="#f0f" stroke-linecap="round" stroke-linejoin="round" stroke-width=".379"/>
 <path d="m21.326 15.444v0.96053l1.9636-0.44961z" color="#000000" fill="#f0f" fill-rule="evenodd" stroke="#f0f" stroke-linecap="round" stroke-linejoin="round" stroke-width=".379"/>
 <text transform="scale(1.0004 .9996)" x="13.246563" y="16.865522" fill="#ff00ff" font-family="'Century Gothic'" font-size="2.44px" letter-spacing="0px" stroke="#ff00ff" stroke-width=".28222" word-spacing="0px" style="line-height:0%" xml:space="preserve"><tspan x="13.246563" y="16.865522" fill="#ff00ff" font-family="'Arial Nova', 'Arial Unicode MS', 'Yu Gothic UI', sans-serif" font-size="3.2533px" stroke="#ff00ff" stroke-width=".28222" style="line-height:1.25">40</tspan></text>
 <path d="m36.325 4.8713h3.8726m4.0391 0h3.4925" color="#000000" fill="#000080" fill-rule="evenodd" stroke="#f00" stroke-linecap="round" stroke-linejoin="round" stroke-width=".379"/>
 <path d="m37.188 4.3713v0.96053l1.9636-0.44961z" color="#000000" fill="#f00" fill-rule="evenodd" stroke="#f00" stroke-linecap="round" stroke-linejoin="round" stroke-width=".379"/>
 <path d="m47.163 4.3313v0.96053l-1.9636-0.44961z" color="#000000" fill="#f00" fill-rule="evenodd" stroke="#f00" stroke-linecap="round" stroke-linejoin="round" stroke-width=".379"/>
 <text transform="scale(1.0004 .9996)" x="40.378654" y="6.0085754" fill="#000080" font-family="'Century Gothic'" font-size="2.44px" letter-spacing="0px" stroke="#ff0000" stroke-width=".28222" word-spacing="0px" style="line-height:0%" xml:space="preserve"><tspan x="40.378654" y="6.0085754" font-family="'Arial Nova', 'Arial Unicode MS', 'Yu Gothic UI', sans-serif" font-size="3.2533px" stroke="#ff0000" stroke-width=".28222" style="line-height:1.25">12</tspan></text>
 <path d="m104.39 35.611v-13.816h18.247l3.8797-6.5532h11.891v10.463h5.409v-10.463h4.5673l4.8225 4.9891h13.294l6.4517 6.4517v8.9281" fill="none" stroke="#000" stroke-linecap="round" stroke-linejoin="round"/>
 <path d="m104.28 35.76 68.498-0.08438" fill="none" stroke="#000" stroke-dasharray="2, 1, 0.5, 1" stroke-linecap="round" stroke-linejoin="round" stroke-width=".5"/>
 <path d="m155.38 4.8713h2.7576m9.4206 0h2.987" color="#000000" fill="#000080" fill-rule="evenodd" stroke="#000080" stroke-linecap="round" stroke-linejoin="round" stroke-width=".379"/>
 <path d="m153.33 3.6413v15.972" color="#000000" fill="#000080" fill-rule="evenodd" stroke="#000080" stroke-linecap="round" stroke-linejoin="round" stroke-width=".379"/>
 <path d="m155.6 4.3713v0.96053l-1.9636-0.44961z" color="#000000" fill="#000080" fill-rule="evenodd" stroke="#000080" stroke-linecap="round" stroke-linejoin="round" stroke-width=".379"/>
 <path d="m170.96 4.3313v0.96053l1.9636-0.44961z" color="#000000" fill="#000080" fill-rule="evenodd" stroke="#000080" stroke-linecap="round" stroke-linejoin="round" stroke-width=".379"/>
 <text transform="scale(1.0004 .9996)" x="160.82378" y="5.7485814" fill="#000080" font-family="'Century Gothic'" font-size="2.44px" letter-spacing="0px" stroke-width=".28222" word-spacing="0px" style="line-height:0%" xml:space="preserve"><tspan x="160.82378" y="5.7485814" font-family="'Arial Nova', 'Arial Unicode MS', 'Yu Gothic UI', sans-serif" font-size="3.2533px" stroke-width=".28222" style="line-height:1.25">44</tspan></text>
 <path d="m173.27 3.424v22.316" color="#000000" fill="#000080" fill-rule="evenodd" stroke="#000080" stroke-linecap="round" stroke-linejoin="round" stroke-width=".379"/>
 <path d="m104.48 3.3438v17.64" color="#000000" fill="#000080" fill-rule="evenodd" stroke="#000080" stroke-linecap="round" stroke-linejoin="round" stroke-width=".379"/>
 <path d="m122.63 3.6513v16.983" color="#000000" fill="#000080" fill-rule="evenodd" stroke="#000080" stroke-linecap="round" stroke-linejoin="round" stroke-width=".379"/>
 <path d="m138.51 3.6413v10.868" color="#000000" fill="#000080" fill-rule="evenodd" stroke="#000080" stroke-linecap="round" stroke-linejoin="round" stroke-width=".379"/>
 <path d="m143.8 3.6413v10.868" color="#000000" fill="#000080" fill-rule="evenodd" stroke="#000080" stroke-linecap="round" stroke-linejoin="round" stroke-width=".379"/>
 <path d="m106.69 4.8713h2.7576m7.3039 0h5.1037" color="#000000" fill="#000080" fill-rule="evenodd" stroke="#000080" stroke-linecap="round" stroke-linejoin="round" stroke-width=".379"/>
 <path d="m106.91 4.3713v0.96053l-1.9636-0.44961z" color="#000000" fill="#000080" fill-rule="evenodd" stroke="#000080" stroke-linecap="round" stroke-linejoin="round" stroke-width=".379"/>
 <path d="m120.28 4.3313v0.96053l1.9636-0.44961z" color="#000000" fill="#000080" fill-rule="evenodd" stroke="#000080" stroke-linecap="round" stroke-linejoin="round" stroke-width=".379"/>
 <text transform="scale(1.0004 .9996)" x="112.16093" y="5.7485814" fill="#000080" font-family="'Century Gothic'" font-size="2.44px" letter-spacing="0px" stroke-width=".28222" word-spacing="0px" style="line-height:0%" xml:space="preserve"><tspan x="112.16093" y="5.7485814" font-family="'Arial Nova', 'Arial Unicode MS', 'Yu Gothic UI', sans-serif" font-size="3.2533px" stroke-width=".28222" style="line-height:1.25">40</tspan></text>
 <path d="m135.28 4.8713h3.8726m4.0391 0h3.4925" color="#000000" fill="#000080" fill-rule="evenodd" stroke="#000080" stroke-linecap="round" stroke-linejoin="round" stroke-width=".379"/>
 <path d="m136.14 4.3713v0.96053l1.9636-0.44961z" color="#000000" fill="#000080" fill-rule="evenodd" stroke="#000080" stroke-linecap="round" stroke-linejoin="round" stroke-width=".379"/>
 <path d="m146.12 4.3313v0.96053l-1.9636-0.44961z" color="#000000" fill="#000080" fill-rule="evenodd" stroke="#000080" stroke-linecap="round" stroke-linejoin="round" stroke-width=".379"/>
 <text transform="scale(1.0004 .9996)" x="139.29305" y="6.0085754" fill="#000080" font-family="'Century Gothic'" font-size="2.44px" letter-spacing="0px" stroke-width=".28222" word-spacing="0px" style="line-height:0%" xml:space="preserve"><tspan x="139.29305" y="6.0085754" font-family="'Arial Nova', 'Arial Unicode MS', 'Yu Gothic UI', sans-serif" font-size="3.2533px" stroke-width=".28222" style="line-height:1.25">12</tspan></text>
 <path d="m43.411 12.082 1.6471-1.3618 1.8262 3.7385 1.6651-0.81338-1.8262-3.7385 1.9655-0.40296-5.1705-3.8935z" fill="#fff" stroke="#000" stroke-linecap="round" stroke-linejoin="round" stroke-width=".2"/>
 <path d="m15.586 22.691 1.6471-1.3618 1.8262 3.7385 1.6651-0.81338-1.8262-3.7385 1.9655-0.40296-5.1705-3.8935z" fill="#fff" stroke="#000" stroke-linecap="round" stroke-linejoin="round" stroke-width=".2"/>
 <path d="m64.467 16.335 1.6471-1.3618 1.8262 3.7385 1.6651-0.81338-1.8262-3.7385 1.9655-0.40296-5.1705-3.8935z" fill="#fff" stroke="#000" stroke-linecap="round" stroke-linejoin="round" stroke-width=".2"/>
 <g transform="matrix(.26458 0 0 .26458 65.374 36.722)">
  <ellipse cx="-44.92" cy="-98.798" rx="13.199" ry="13.469" fill="#1f638a" stroke-linecap="round" stroke-linejoin="round" stroke-width="1.0658"/>
  <text x="-50.761276" y="-91.125885" fill="#000000" font-family="'Arial Nova', 'Arial Unicode MS', 'Yu Gothic UI', sans-serif" font-size="12.8px" letter-spacing="0px" stroke-width="1.0667" word-spacing="0px" style="line-height:0%" xml:space="preserve"><tspan x="-50.761276" y="-91.125885" fill="#ffffff" font-family="'Arial Nova', 'Arial Unicode MS', 'Yu Gothic UI', sans-serif" font-size="21.333px" stroke="#ffffff" stroke-width="1.0667" style="line-height:1.25">1</tspan></text>
 </g>
 <g transform="matrix(.07718 0 0 .076397 74.03 13.344)" fill="#1f638a" stroke="#1f638a" stroke-linecap="round" stroke-linejoin="round" stroke-width="1.3023">
  <path d="m207.49 126.25 34.17 21.614-34.17 21.614z"/>
  <rect x="172.19" y="137.99" width="39.213" height="19.761"/>
 </g>
 <g transform="matrix(.26458 0 0 .26458 28.886 47.234)">
  <ellipse cx="-13.718" cy="-98.798" rx="13.199" ry="13.469" fill="#1f638a" stroke-linecap="round" stroke-linejoin="round" stroke-width="1.0658"/>
  <text x="-19.559933" y="-91.125885" fill="#000000" font-family="'Arial Nova', 'Arial Unicode MS', 'Yu Gothic UI', sans-serif" font-size="12.8px" letter-spacing="0px" stroke-width="1.0667" word-spacing="0px" style="line-height:0%" xml:space="preserve"><tspan x="-19.559933" y="-91.125885" fill="#ffffff" font-family="'Arial Nova', 'Arial Unicode MS', 'Yu Gothic UI', sans-serif" font-size="21.333px" stroke="#ffffff" stroke-width="1.0667" style="line-height:1.25">2</tspan></text>
 </g>
 <g transform="matrix(.26458 0 0 .26458 77.43 40.54)">
  <ellipse cx="-13.718" cy="-98.798" rx="13.199" ry="13.469" fill="#1f638a" stroke-linecap="round" stroke-linejoin="round" stroke-width="1.0658"/>
  <text x="-19.559933" y="-91.125885" fill="#000000" font-family="'Arial Nova', 'Arial Unicode MS', 'Yu Gothic UI', sans-serif" font-size="12.8px" letter-spacing="0px" stroke-width="1.0667" word-spacing="0px" style="line-height:0%" xml:space="preserve"><tspan x="-19.559933" y="-91.125885" fill="#ffffff" font-family="'Arial Nova', 'Arial Unicode MS', 'Yu Gothic UI', sans-serif" font-size="21.333px" stroke="#ffffff" stroke-width="1.0667" style="line-height:1.25">2</tspan></text>
 </g>
</svg>
