<?xml version="1.0" encoding="UTF-8"?>
<svg width="13cm" height="6.5cm" version="1.1" xmlns="http://www.w3.org/2000/svg" xmlns:cc="http://creativecommons.org/ns#" xmlns:dc="http://purl.org/dc/elements/1.1/" xmlns:rdf="http://www.w3.org/1999/02/22-rdf-syntax-ns#" xmlns:xlink="http://www.w3.org/1999/xlink">
 <metadata>
  <rdf:RDF>
   <cc:Work rdf:about="">
    <dc:format>image/svg+xml</dc:format>
    <dc:type rdf:resource="http://purl.org/dc/dcmitype/StillImage"/>
    <dc:title/>
   </cc:Work>
  </rdf:RDF>
 </metadata>
 <defs>
  <linearGradient id="linearGradient3831-8-8-4">
   <stop stop-color="#716e6e" offset="0"/>
   <stop stop-color="#f6f6f6" offset=".5"/>
   <stop stop-color="#848484" offset="1"/>
  </linearGradient>
  <linearGradient id="linearGradient3862-5-7">
   <stop stop-color="#817e7e" offset="0"/>
   <stop stop-color="#b5b1b1" offset=".5"/>
   <stop stop-color="#848484" offset="1"/>
  </linearGradient>
  <linearGradient id="linearGradient5402" x1="-578.35" x2="-578.34" y1="551.63" y2="579.16" gradientTransform="matrix(.63716 0 0 .48897 542.85 -15.61)" gradientUnits="userSpaceOnUse" xlink:href="#linearGradient3831-8-8-4"/>
  <linearGradient id="linearGradient5408" x1="-578.35" x2="-578.34" y1="551.63" y2="579.16" gradientTransform="matrix(.63716 0 0 .48897 542.86 -182.57)" gradientUnits="userSpaceOnUse">
   <stop stop-color="#757884" offset="0"/>
   <stop stop-color="#fff" offset=".5"/>
   <stop stop-color="#757884" offset="1"/>
  </linearGradient>
  <linearGradient id="linearGradient5414" x1="-624.43" x2="-624.31" y1="643.21" y2="681.58" gradientTransform="matrix(.48897 0 0 .48897 457.42 -146.24)" gradientUnits="userSpaceOnUse" xlink:href="#linearGradient3862-5-7"/>
  <linearGradient id="linearGradient5417" x1="-620.09" x2="-618.95" y1="619.7" y2="703.45" gradientTransform="matrix(.48897 0 0 .48897 457.42 -146.24)" gradientUnits="userSpaceOnUse" xlink:href="#linearGradient3831-8-8-4"/>
  <linearGradient id="linearGradient5420" x1="-707.14" x2="-707.64" y1="642.39" y2="684.47" gradientTransform="matrix(.48897 0 0 .48897 457.42 -146.24)" gradientUnits="userSpaceOnUse" xlink:href="#linearGradient3862-5-7"/>
 </defs>
 <g stroke-linecap="round" stroke-linejoin="round">
  <g transform="translate(0 20.628)" stroke="#502d16">
   <rect transform="rotate(90)" x="98.524" y="-296.63" width="68.821" height="209.11" color="#000000" fill="#ececec" stroke-width=".67654"/>
   <path d="m114.06 167.15v47.023c46.958-27.036 85.193 21.331 156.85 0v-47.023" color="#000000" fill="none" stroke-width="1.4325"/>
   <g transform="rotate(90,234.54,135.16)" fill="url(#linearGradient5417)" stroke-width=".67654">
    <rect x="107.09" y="159.34" width="21.857" height="36.428" color="#000000"/>
    <rect x="154.35" y="156.81" width="44.063" height="41.491" color="#000000"/>
    <rect x="140.62" y="161.56" width="9.0144" height="31.983" color="#000000"/>
    <rect x="129.13" y="156.87" width="6.7917" height="41.367" color="#000000"/>
   </g>
   <g transform="rotate(90,234.54,135.16)" stroke-width=".67654">
    <path d="m105.52 160.36 1.5993-0.97795v36.341l-1.5993-0.978z" color="#000000" fill="url(#linearGradient5420)"/>
    <path d="m136 156.81 4.5956 4.8897v31.711l-4.5956 4.8898z" color="#000000" fill="url(#linearGradient5417)"/>
    <path d="m154.35 156.81-4.5956 4.8897v31.711l4.5956 4.8898z" color="#000000" fill="url(#linearGradient5414)"/>
    <path d="m175.2 83.29h22.484v4.6278h-22.484z" color="#000000" fill="#828282"/>
    <path d="m175.2 99.42h22.484v4.6278h-22.484z" color="#000000" fill="#b1b1b1"/>
    <path d="m175.2 87.96h22.484v11.482h-22.484z" color="#000000" fill="#ececec"/>
    <rect x="173.6" y="87.17" width="1.5929" height="13.447" color="#000000" fill="url(#linearGradient5408)"/>
    <path d="m175.19 250.24h22.484v4.6278h-22.484z" color="#000000" fill="#828282"/>
    <path d="m175.19 266.34h22.484v4.6278h-22.484z" color="#000000" fill="#b1b1b1"/>
    <path d="m175.19 254.94h22.484v11.482h-22.484z" color="#000000" fill="#ececec"/>
    <rect x="173.58" y="254.14" width="1.5929" height="13.447" color="#000000" fill="url(#linearGradient5402)"/>
   </g>
  </g>
  <g transform="translate(0 20.628)" stroke="#000">
   <path d="m58.843 168.32 4.381 12.571h-8.7619z" stroke-width="1.0658"/>
   <path d="m58.844 122.57v60.438" stroke-width=".94488"/>
   <path d="m58.843 136.99 4.381-12.571h-8.7619z" stroke-width="1.0658"/>
   <path d="m114.09 137.88h-59.901" stroke-width=".75591"/>
   <path d="m114.09 167.43h-59.901" stroke-width=".75591"/>
  </g>
  <path d="m270.94 187.91v-29.402h-156.85v29.402" color="#000000" fill="none" stroke="#502d16" stroke-dasharray="2.86507, 2.86507" stroke-width="1.4325"/>
  <g transform="translate(-419.89 -69.918)" stroke-width="1.8898">
   <path d="m611.72 178.94 5.0723 20.997h-10.145c1.7968-10.641 5.0723-20.997 5.0723-20.997z" fill="#00f" stroke="#00f"/>
   <path d="m611.67 188.5 0.17496 39.728" fill="#00f" stroke="#00f"/>
   <g transform="rotate(-28.665,611.03,229.41)" fill="#f00" stroke="#f00">
    <path d="m651.19 250.93-20.719-6.1073 5.0731-8.7851c8.316 6.877 15.646 14.892 15.646 14.892z"/>
    <path d="m641.09 244.84-28.882-15.871"/>
   </g>
  </g>
  <path d="m326.72 101.92v49.84" stroke="#000" stroke-width=".94488"/>
  <path d="m326.66 94.804 4.1905 12.571h-8.7619z" stroke="#000" stroke-width="1.0658"/>
 </g>
 <g transform="translate(82.781 271.76)">
  <ellipse cx="-44.92" cy="-98.798" rx="13.199" ry="13.469" fill="#1f638a" stroke-linecap="round" stroke-linejoin="round" stroke-width="1.0658"/>
  <text x="-50.761276" y="-91.125885" fill="#000000" font-family="'Arial Nova', 'Arial Unicode MS', 'Yu Gothic UI', sans-serif" font-size="12.8px" letter-spacing="0px" stroke-width="1.0667" word-spacing="0px" style="line-height:0%" xml:space="preserve"><tspan x="-50.761276" y="-91.125885" fill="#ffffff" font-family="'Arial Nova', 'Arial Unicode MS', 'Yu Gothic UI', sans-serif" font-size="21.333px" stroke="#ffffff" stroke-width="1.0667">1</tspan></text>
 </g>
 <g transform="translate(326.43 223.57)">
  <ellipse cx="17.483" cy="-98.798" rx="13.199" ry="13.469" fill="#1f638a" stroke-linecap="round" stroke-linejoin="round" stroke-width="1.0658"/>
  <text x="11.641406" y="-91.256096" fill="#000000" font-family="'Arial Nova', 'Arial Unicode MS', 'Yu Gothic UI', sans-serif" font-size="12.8px" letter-spacing="0px" stroke-width="1.0667" word-spacing="0px" style="line-height:0%" xml:space="preserve"><tspan x="11.641406" y="-91.256096" fill="#ffffff" font-family="'Arial Nova', 'Arial Unicode MS', 'Yu Gothic UI', sans-serif" font-size="21.333px" stroke="#ffffff" stroke-width="1.0667">3</tspan></text>
 </g>
 <g transform="translate(183.82 257.43)">
  <ellipse cx="-13.718" cy="-98.798" rx="13.199" ry="13.469" fill="#1f638a" stroke-linecap="round" stroke-linejoin="round" stroke-width="1.0658"/>
  <text x="-19.559933" y="-91.125885" fill="#000000" font-family="'Arial Nova', 'Arial Unicode MS', 'Yu Gothic UI', sans-serif" font-size="12.8px" letter-spacing="0px" stroke-width="1.0667" word-spacing="0px" style="line-height:0%" xml:space="preserve"><tspan x="-19.559933" y="-91.125885" fill="#ffffff" font-family="'Arial Nova', 'Arial Unicode MS', 'Yu Gothic UI', sans-serif" font-size="21.333px" stroke="#ffffff" stroke-width="1.0667">2</tspan></text>
 </g>
 <text x="199.97006" y="117.00603" fill="#0000ff" font-family="'Arial Nova', 'Arial Unicode MS', 'Yu Gothic UI', sans-serif" font-size="12.8px" letter-spacing="0px" stroke="#0000ff" stroke-width="1.0667" word-spacing="0px" style="line-height:0%" xml:space="preserve"><tspan x="199.97006" y="117.00603" fill="#0000ff" font-family="'Arial Nova', 'Arial Unicode MS', 'Yu Gothic UI', sans-serif" stroke="#0000ff" stroke-width="1.0667">Z</tspan></text>
 <g stroke-linecap="round" stroke-linejoin="round">
  <path d="m330.84 158.51h-59.901" stroke="#000" stroke-width=".75591"/>
  <path d="m326.98 157.67 4.1905-12.571h-8.7619z" stroke="#000" stroke-width="1.0658"/>
  <ellipse transform="rotate(-2)" cx="190.68" cy="100.46" rx="4.0406" ry="3.7795" fill="#f00" opacity=".96" stroke="#f00" stroke-width="3.7837"/>
  <path d="m54.113 19.345c46.152 7.856 92.47 12.072 139.53 0 47.29-14.438 94.059-19.255 139.53 0v74.695h-279.06z" fill="none" stroke="#00f" stroke-dasharray="3.77953, 1.88976" stroke-width=".94488" style="paint-order:markers fill stroke"/>
  <path d="m331.56 93.952h-137.83" stroke="#000" stroke-width=".75591"/>
 </g>
</svg>
