<?xml version="1.0" encoding="UTF-8"?>
<svg width="18cm" height="5cm" version="1.1" xmlns="http://www.w3.org/2000/svg" xmlns:osb="http://www.openswatchbook.org/uri/2009/osb">
 <g transform="translate(0 -264.57)">
  <g transform="matrix(.2917 0 0 .28875 163.1 295.06)" style="fill:#1f638a;stroke-linecap:round;stroke-linejoin:round;stroke-width:1.2209;stroke:#1f638a">
   <path d="m207.49 126.25 34.17 21.614-34.17 21.614z" style="fill:#1f638a;stroke-linecap:round;stroke-linejoin:round;stroke-width:1.3023;stroke:#1f638a"/>
   <rect x="172.19" y="137.99" width="39.213" height="19.761" style="fill:#1f638a;stroke-linecap:round;stroke-linejoin:round;stroke-width:1.3023;stroke:#1f638a"/>
  </g>
  <g transform="matrix(.48767 -.22008 0 .48767 -12.705 302.78)">
   <path d="m85.633 125.83v181.57h293.77v-181.57zm54.3 33.567h185.17v114.43h-185.17z" style="color:#000000;fill-rule:evenodd;fill:#dab4da;stroke-linecap:round;stroke-linejoin:round;stroke-width:1.55;stroke:#7d7d7d"/>
   <path d="m139.76 273.94-54.176 33.462 54.176-147.96-54.176-33.462 239.69 33.234 53.948-33.234-54.176 148.19 54.176 33.234" style="color:#000000;fill:none;stroke-linecap:round;stroke-linejoin:round;stroke-width:1.55;stroke:#7d7d7d"/>
   <path d="m325.06 273.94-239.47 33.462" style="color:#000000;fill:none;stroke-linecap:round;stroke-linejoin:round;stroke-width:1.55;stroke:#7d7d7d"/>
  </g>
  <g transform="matrix(.85738 0 0 .85738 28.139 62.305)">
   <path d="m257.55 330.07v103.28l167.09-75.408v-103.28zm30.886 5.1542 105.32-47.531v65.09l-105.32 47.531z" style="color:#000000;fill-rule:evenodd;fill:#ffc1c1;stroke-dasharray:0.88165094, 1.76330186;stroke-linecap:round;stroke-linejoin:round;stroke-width:.88165;stroke:#f00"/>
   <path d="m288.34 400.42-30.815 32.94 30.815-98.066-30.815-5.1263 136.34-42.625 30.686-32.752-30.815 98.196 30.815 4.9968" style="color:#000000;fill:none;stroke-dasharray:0.88165094, 1.76330186;stroke-linecap:round;stroke-linejoin:round;stroke-width:.88165;stroke:#f00"/>
   <path d="m393.74 352.86-136.21 80.503" style="color:#000000;fill:none;stroke-dasharray:0.88165094, 1.76330186;stroke-linecap:round;stroke-linejoin:round;stroke-width:.88165;stroke:#f00"/>
  </g>
  <g transform="matrix(.85738 0 0 .85738 -121.95 106.75)" style="fill-opacity:.7314;fill:#faa;stroke-dasharray:0.82654782, 1.65309563;stroke-linejoin:round;stroke-width:.82655;stroke:#f00">
   <path d="m605.92 279.63v28.358l-105.32 47.531v-28.023l-30.886 13.942v47.112l167.09-75.408v-47.596z" style="color:#000000;fill-opacity:.7314;fill-rule:evenodd;fill:#faa;stroke-dasharray:0.88165101, 1.76330201;stroke-linecap:round;stroke-linejoin:round;stroke-width:.88165;stroke:#f00"/>
   <path d="m500.5 355.62-30.815 32.94 17.234-54.846zm115.81-80.619-10.414 33.185 30.815 4.9968z" style="color:#000000;fill-opacity:.7314;fill:#faa;stroke-dasharray:0.88165101, 1.76330201;stroke-linecap:round;stroke-linejoin:round;stroke-width:.88165;stroke:#f00"/>
   <path d="m605.89 308.06-136.21 80.503" style="color:#000000;fill-opacity:.7314;fill:#faa;stroke-dasharray:0.88165101, 1.76330201;stroke-linecap:round;stroke-linejoin:round;stroke-width:.88165;stroke:#f00"/>
  </g>
  <g transform="matrix(.85738 0 0 .85738 4.6721 62.305)">
   <g transform="translate(-404.54 51.974)">
    <path d="m605.92 279.63v28.358l-105.32 47.531v-28.023l-30.886 13.942v47.112l167.09-75.408v-47.596z" style="color:#000000;fill-rule:evenodd;fill:#dab4da;stroke-linecap:round;stroke-linejoin:round;stroke-width:.88165;stroke:#7d7d7d"/>
    <path d="m500.5 355.62-30.815 32.94 17.234-54.846zm115.81-80.619-10.414 33.185 30.815 4.9968z" style="color:#000000;fill:none;stroke-linecap:round;stroke-linejoin:round;stroke-width:.88165;stroke:#7d7d7d"/>
    <path d="m605.89 308.06-136.21 80.503" style="color:#000000;fill:none;stroke-linecap:round;stroke-linejoin:round;stroke-width:.88165;stroke:#7d7d7d"/>
   </g>
  </g>
  <g transform="matrix(.2917 0 0 .28875 402.39 277.33)" style="fill:#1f638a;stroke-linecap:round;stroke-linejoin:round;stroke-width:1.2209;stroke:#1f638a">
   <path d="m207.49 126.25 34.17 21.614-34.17 21.614z" style="fill:#1f638a;stroke-linecap:round;stroke-linejoin:round;stroke-width:1.3023;stroke:#1f638a"/>
   <rect x="172.19" y="137.99" width="39.213" height="19.761" style="fill:#1f638a;stroke-linecap:round;stroke-linejoin:round;stroke-width:1.3023;stroke:#1f638a"/>
  </g>
  <path d="m134.96 421.17 6.2254-5.147 6.9023 14.13 6.2932-3.0742-6.9023-14.13 7.4287-1.523-19.542-14.716z" style="fill:#fff;stroke-linecap:round;stroke-linejoin:round;stroke-width:.75591;stroke:#000"/>
  <g transform="matrix(.85738 0 0 .85738 6.1901 95.701)">
   <path d="m230.33 275.84v-28.728l-30.886 14.084v28.358z" style="color:#000000;fill-rule:evenodd;fill:#dab4da;stroke-linecap:round;stroke-linejoin:round;stroke-width:.88165;stroke:#7d7d7d"/>
   <path d="m215.44 253.95-15.991 35.575 30.929-13.84z" style="color:#000000;fill:none;stroke-linecap:round;stroke-linejoin:round;stroke-width:.88165;stroke:#7d7d7d"/>
  </g>
  <g transform="matrix(.85738 0 0 .85738 188.27 78.308)">
   <path d="m274.56 294.78v-28.728l-30.886 14.084v28.358z" style="color:#000000;fill-rule:evenodd;fill:#ffc1c1;stroke-dasharray:0.88165094, 1.76330186;stroke-linecap:round;stroke-linejoin:round;stroke-width:.88165;stroke:#f00"/>
   <path d="m259.67 272.88-15.991 35.575 30.929-13.84z" style="color:#000000;fill:none;stroke-dasharray:0.88165094, 1.76330186;stroke-linecap:round;stroke-linejoin:round;stroke-width:.88165;stroke:#f00"/>
  </g>
  <path d="m411.54 356.69 6.2253-5.1469 6.9023 14.13 6.2932-3.0742-6.9023-14.13 7.4287-1.523-19.542-14.716z" style="fill:#fff;stroke-linecap:round;stroke-linejoin:round;stroke-width:.75591;stroke:#000"/>
  <g transform="matrix(.85738 0 0 .85738 462.62 94.134)">
   <path d="m230.33 275.84v-28.728l-30.886 14.084v28.358z" style="color:#000000;fill-rule:evenodd;fill:#dab4da;stroke-linecap:round;stroke-linejoin:round;stroke-width:.88165;stroke:#7d7d7d"/>
   <path d="m215.44 253.95-15.991 35.575 30.929-13.84z" style="color:#000000;fill:none;stroke-linecap:round;stroke-linejoin:round;stroke-width:.88165;stroke:#7d7d7d"/>
  </g>
  <text x="624.78021" y="333.62759" style="fill:#dab4da;font-family:'Arial Nova', 'Arial Unicode MS', 'Yu Gothic UI', sans-serif;font-size:12.8px;letter-spacing:0px;line-height:0%;stroke-width:1.0667;stroke:#800080;word-spacing:0px" xml:space="preserve"><tspan x="624.78021" y="333.62759" style="fill:#dab4da;font-family:'Arial Nova', 'Arial Unicode MS', 'Yu Gothic UI', sans-serif;stroke-width:1.0667;stroke:#800080">1</tspan></text>
  <text x="356.28497" y="343.47327" style="fill:#dab4da;font-family:'Arial Nova', 'Arial Unicode MS', 'Yu Gothic UI', sans-serif;font-size:12.8px;letter-spacing:0px;line-height:0%;stroke-width:1.0667;stroke:#ff0000;word-spacing:0px" xml:space="preserve"><tspan x="356.28497" y="343.47327" style="fill:#dab4da;font-family:'Arial Nova', 'Arial Unicode MS', 'Yu Gothic UI', sans-serif;stroke-width:1.0667;stroke:#ff0000">1</tspan></text>
  <text x="406.35629" y="307.03641" style="fill:#dab4da;font-family:'Arial Nova', 'Arial Unicode MS', 'Yu Gothic UI', sans-serif;font-size:12.8px;letter-spacing:0px;line-height:0%;stroke-width:1.0667;stroke:#ff0000;word-spacing:0px" xml:space="preserve"><tspan x="406.35629" y="307.03641" style="fill:#dab4da;font-family:'Arial Nova', 'Arial Unicode MS', 'Yu Gothic UI', sans-serif;stroke-width:1.0667;stroke:#ff0000">3</tspan></text>
  <text x="418.6416" y="395.23294" style="fill:#dab4da;font-family:'Arial Nova', 'Arial Unicode MS', 'Yu Gothic UI', sans-serif;font-size:12.8px;letter-spacing:0px;line-height:0%;stroke-width:1.0667;stroke:#ff0000;word-spacing:0px" xml:space="preserve"><tspan x="418.6416" y="395.23294" style="fill:#dab4da;font-family:'Arial Nova', 'Arial Unicode MS', 'Yu Gothic UI', sans-serif;stroke-width:1.0667;stroke:#ff0000">2</tspan></text>
  <g transform="translate(460.54 454.59)">
   <ellipse cx="-13.718" cy="-98.798" rx="13.199" ry="13.469" style="fill:#1f638a;stroke-linecap:round;stroke-linejoin:round;stroke-width:1.0658"/>
   <text x="-19.559933" y="-91.125885" style="fill:#000000;font-family:'Arial Nova', 'Arial Unicode MS', 'Yu Gothic UI', sans-serif;font-size:12.8px;letter-spacing:0px;line-height:0%;stroke-width:1.0667;word-spacing:0px" xml:space="preserve"><tspan x="-19.559933" y="-91.125885" style="fill:#ffffff;font-family:'Arial Nova', 'Arial Unicode MS', 'Yu Gothic UI', sans-serif;font-size:21.333px;stroke-width:1.0667;stroke:#ffffff">2</tspan></text>
  </g>
  <g transform="translate(214.28 511.9)">
   <ellipse cx="-44.92" cy="-98.798" rx="13.199" ry="13.469" style="fill:#1f638a;stroke-linecap:round;stroke-linejoin:round;stroke-width:1.0658"/>
   <text x="-50.761276" y="-91.125885" style="fill:#000000;font-family:'Arial Nova', 'Arial Unicode MS', 'Yu Gothic UI', sans-serif;font-size:12.8px;letter-spacing:0px;line-height:0%;stroke-width:1.0667;word-spacing:0px" xml:space="preserve"><tspan x="-50.761276" y="-91.125885" style="fill:#ffffff;font-family:'Arial Nova', 'Arial Unicode MS', 'Yu Gothic UI', sans-serif;font-size:21.333px;stroke-width:1.0667;stroke:#ffffff">1</tspan></text>
  </g>
  <g transform="translate(612.47 395.84)">
   <ellipse cx="-16.245" cy="-67.7" rx="13.199" ry="13.469" style="fill:#1f638a;stroke-linecap:round;stroke-linejoin:round;stroke-width:1.0658"/>
   <text x="-24.07345" y="-60.064144" style="fill:#000000;font-family:'Arial Nova', 'Arial Unicode MS', 'Yu Gothic UI', sans-serif;font-size:12.8px;letter-spacing:0px;line-height:0%;stroke-width:1.0667;word-spacing:0px" xml:space="preserve"><tspan x="-24.07345" y="-60.064144" style="fill:#ffffff;font-family:'Arial Nova', 'Arial Unicode MS', 'Yu Gothic UI', sans-serif;font-size:21.333px;stroke-linecap:round;stroke-linejoin:round;stroke-width:1.0658;stroke:#ffffff">C</tspan></text>
  </g>
 </g>
</svg>
