<?xml version="1.0" encoding="UTF-8"?>
<svg width="18cm" height="8cm" version="1.1" xmlns="http://www.w3.org/2000/svg">
 <ellipse cx="134.16" cy="81.46" rx="13.199" ry="13.469" style="fill:#1f638a;stroke-linecap:round;stroke-linejoin:round;stroke-width:1.0658"/>
 <text x="128.15382" y="88.998589" style="fill:#000000;font-family:'Arial Nova', 'Arial Unicode MS', 'Yu Gothic UI', sans-serif;font-size:12.8px;letter-spacing:0px;line-height:0%;stroke-width:1.0667;word-spacing:0px" xml:space="preserve"><tspan x="128.15382" y="88.998589" style="fill:#ffffff;font-family:'Arial Nova', 'Arial Unicode MS', 'Yu Gothic UI', sans-serif;font-size:21.333px;font-weight:bold;line-height:1.25;stroke-width:1.0667">1</tspan></text>
 <ellipse cx="297.68" cy="209.64" rx="13.199" ry="13.469" style="fill:#1f638a;stroke-linecap:round;stroke-linejoin:round;stroke-width:1.0658;stroke:#fff"/>
 <text x="291.84042" y="217.30884" style="fill:#000000;font-family:'Arial Nova', 'Arial Unicode MS', 'Yu Gothic UI', sans-serif;font-size:12.8px;letter-spacing:0px;line-height:0%;stroke-width:1.0667;stroke:#ffffff;word-spacing:0px" xml:space="preserve"><tspan x="291.84042" y="217.30884" style="fill:#ffffff;font-family:'Arial Nova', 'Arial Unicode MS', 'Yu Gothic UI', sans-serif;font-size:21.333px;line-height:1.25;stroke-width:1.0667;stroke:#ffffff">3</tspan></text>
 <ellipse cx="288.58" cy="95.51" rx="13.199" ry="13.469" style="fill:#1f638a;stroke-linecap:round;stroke-linejoin:round;stroke-width:1.0658;stroke:#fff"/>
 <text x="282.73526" y="103.17956" style="fill:#000000;font-family:'Arial Nova', 'Arial Unicode MS', 'Yu Gothic UI', sans-serif;font-size:12.8px;letter-spacing:0px;line-height:0%;stroke-width:1.0667;stroke:#ffffff;word-spacing:0px" xml:space="preserve"><tspan x="282.73526" y="103.17956" style="fill:#ffffff;font-family:'Arial Nova', 'Arial Unicode MS', 'Yu Gothic UI', sans-serif;font-size:21.333px;line-height:1.25;stroke-width:1.0667;stroke:#ffffff">2</tspan></text>
 <path d="m280.4 58.58a35.243 35.064 0 0 1-22.211 32.579 35.243 35.064 0 0 1-38.637-8.4859" style="color:#000000;fill:none;stroke-linecap:round;stroke-linejoin:round;stroke-width:1.4324;stroke:#000080"/>
 <path d="m369.72 154.46 26.038-5.92m52.075-11.84 26.038-5.92" style="color:#000000;fill:none;stroke-linecap:round;stroke-linejoin:round;stroke-width:1.4324;stroke:#000080"/>
 <path d="m324.92 231.01a59.787 59.787 0 0 1-38.592 54.387 59.787 59.787 0 0 1-64.938-15.176 59.787 59.787 0 0 1-10.49-65.858" style="color:#000000;fill:none;stroke-linecap:round;stroke-linejoin:round;stroke-width:1.4324;stroke:#000080"/>
 <path d="m244.48 58.14-95.672 95.236v19.737l116.26 58.34h214.49c19.645-1.1046 34.935-18.821 35.19-37.313v-99.104c-0.28406-19.796-17.516-36.683-32.175-36.896zm177.58 26.449c32.057 0 58.056 25.998 58.056 58.056 0 32.057-25.998 58.037-58.056 58.037-32.057 0-58.037-25.979-58.037-58.037 0-32.057 25.98-58.056 58.037-58.056z" style="color:#000000;fill:none;stroke-linecap:round;stroke-linejoin:round;stroke-width:3.7795;stroke:#000"/>
 <path d="m250.76 20.19h109.7m32.436 0h112.67" style="color:#000000;fill-rule:evenodd;fill:#000080;stroke-linecap:round;stroke-linejoin:round;stroke-width:1.4324;stroke:#000080"/>
 <path d="m245.11 17.16v37.01" style="color:#000000;fill-rule:evenodd;fill:#000080;stroke-linecap:round;stroke-linejoin:round;stroke-width:1.4324;stroke:#000080"/>
 <path d="m255.97 17.55v5.0409l-10.296-2.3596z" style="color:#000000;fill-rule:evenodd;fill:#000080;stroke-linecap:round;stroke-linejoin:round;stroke-width:1.4324;stroke:#000080"/>
 <path d="m514.44 17.03v37.01" style="color:#000000;fill-rule:evenodd;fill:#000080;stroke-linecap:round;stroke-linejoin:round;stroke-width:1.4324;stroke:#000080"/>
 <path d="m503.35 17.35v5.0409l10.296-2.3596z" style="color:#000000;fill-rule:evenodd;fill:#000080;stroke-linecap:round;stroke-linejoin:round;stroke-width:1.4324;stroke:#000080"/>
 <path d="m556 57.71h-37.01" style="color:#000000;fill-rule:evenodd;fill:#000080;stroke-linecap:round;stroke-linejoin:round;stroke-width:1.4324;stroke:#000080"/>
 <path d="m555.57 230.6h-37.01" style="color:#000000;fill-rule:evenodd;fill:#000080;stroke-linecap:round;stroke-linejoin:round;stroke-width:1.4324;stroke:#000080"/>
 <path d="m119.48 124.35 26.034 26.306" style="color:#000000;fill-rule:evenodd;fill:#000080;stroke-linecap:round;stroke-linejoin:round;stroke-width:1.4324;stroke:#000080"/>
 <path d="m216.44 28.68 26.034 26.306" style="color:#000000;fill-rule:evenodd;fill:#000080;stroke-linecap:round;stroke-linejoin:round;stroke-width:1.4324;stroke:#000080"/>
 <path d="m499.09 226.52 21.228 30.317" style="color:#000000;fill-rule:evenodd;fill:#000080;stroke-linecap:round;stroke-linejoin:round;stroke-width:1.4324;stroke:#000080"/>
 <path d="m550.34 68.81h5.0409l-2.3596-10.296z" style="color:#000000;fill-rule:evenodd;fill:#000080;stroke-linecap:round;stroke-linejoin:round;stroke-width:1.4324;stroke:#000080"/>
 <path d="m555.71 219.45h-5.0409l2.3596 10.296z" style="color:#000000;fill-rule:evenodd;fill:#000080;stroke-linecap:round;stroke-linejoin:round;stroke-width:1.4324;stroke:#000080"/>
 <path d="m553.02 57.81v65.152m0 34.305v73.152" style="color:#000000;fill-rule:evenodd;fill:#000080;stroke-linecap:round;stroke-linejoin:round;stroke-width:1.4324;stroke:#000080"/>
 <g transform="matrix(.5688 0 0 .5688 -195.36 -11.17)">
  <path d="m563.82 236.41 63.052-62.927m43.75-43.75 53.138-52.763" style="color:#000000;fill-rule:evenodd;fill:#000080;stroke-linecap:round;stroke-linejoin:round;stroke-width:2.5184;stroke:#000080"/>
  <path d="m716.34 90.394-6.1463-6.3848 15.918-9.5654z" style="color:#000000;fill-rule:evenodd;fill:#000080;stroke-linecap:round;stroke-linejoin:round;stroke-width:2.5184;stroke:#000080"/>
  <path d="m568.37 225.71 6.1024 6.4268-15.983 9.4561z" style="color:#000000;fill-rule:evenodd;fill:#000080;stroke-linecap:round;stroke-linejoin:round;stroke-width:2.5184;stroke:#000080"/>
 </g>
 <path d="m280.84 70.07-4.9322-1.0411 4.4352-9.5871z" style="color:#000000;fill-rule:evenodd;fill:#000080;stroke-linecap:round;stroke-linejoin:round;stroke-width:1.4324;stroke:#000080"/>
 <path d="m230.49 87.93-3.1226 3.9573-6.6214-8.2305z" style="color:#000000;fill-rule:evenodd;fill:#000080;stroke-linecap:round;stroke-linejoin:round;stroke-width:1.4324;stroke:#000080"/>
 <path d="m376.44 150.38 1.0328 4.934-10.561-0.19998z" style="color:#000000;fill-rule:evenodd;fill:#000080;stroke-linecap:round;stroke-linejoin:round;stroke-width:1.4324;stroke:#000080"/>
 <path d="m466.42 129.81 1.206 4.8945 9.4328-4.7546z" style="color:#000000;fill-rule:evenodd;fill:#000080;stroke-linecap:round;stroke-linejoin:round;stroke-width:1.4324;stroke:#000080"/>
 <path d="m209.54 216.23-4.7689-1.6335 5.5688-8.9762z" style="color:#000000;fill-rule:evenodd;fill:#000080;stroke-linecap:round;stroke-linejoin:round;stroke-width:1.4324;stroke:#000080"/>
 <path d="m325.83 243.42-4.9771-0.79955 3.9628-9.7918z" style="color:#000000;fill-rule:evenodd;fill:#000080;stroke-linecap:round;stroke-linejoin:round;stroke-width:1.4324;stroke:#000080"/>
 <path d="m506.79 233.17-4.1332 2.8857-3.9595-9.7932z" style="color:#000000;fill-rule:evenodd;fill:#000080;stroke-linecap:round;stroke-linejoin:round;stroke-width:1.4324;stroke:#000080"/>
 <path d="m369.39 12.51v1.1667h-4.3668l-0.60835 3.3417q0.80002-0.23334 1.4417-0.23334 1.675 0 2.7584 1.125 1.0917 1.1167 1.0917 2.8667 0 1.2084-0.55834 2.2167-0.55835 1.0084-1.5167 1.55-0.95002 0.53334-2.2 0.53334-1.4917 0-2.5167-0.90835-1.025-0.91668-1.225-2.3667h1.2584q0.14167 0.70835 0.47501 1.15 0.34167 0.44168 0.90001 0.71668 0.56668 0.26667 1.1834 0.26667 1.2084 0 2.075-0.91668 0.86668-0.91668 0.86668-2.2917 0-1.2417-0.78334-2.0167-0.78335-0.77502-2.0917-0.77502-1.0834 0-2.625 0.65835l1.1334-6.0835z" style="fill:#000080;stroke-width:1.0667"/>
 <path d="m373.05 22.935q0.42501 0 0.72502 0.30001 0.3 0.30001 0.3 0.73335 0 0.42501-0.3 0.73335-0.30001 0.30001-0.72502 0.30001-0.425 0-0.72501-0.30001-0.30001-0.30834-0.30001-0.73335 0-0.43334 0.30001-0.73335t0.72501-0.30001z" style="fill:#000080;stroke-width:1.0667"/>
 <path d="m383.59 12.51v1.1667h-4.3668l-0.60834 3.3417q0.80001-0.23334 1.4417-0.23334 1.675 0 2.7584 1.125 1.0917 1.1167 1.0917 2.8667 0 1.2084-0.55835 2.2167-0.55834 1.0084-1.5167 1.55-0.95002 0.53334-2.2 0.53334-1.4917 0-2.5167-0.90835-1.025-0.91668-1.225-2.3667h1.2584q0.14167 0.70835 0.47501 1.15 0.34168 0.44168 0.90002 0.71668 0.56668 0.26667 1.1834 0.26667 1.2084 0 2.075-0.91668 0.86668-0.91668 0.86668-2.2917 0-1.2417-0.78335-2.0167t-2.0917-0.77502q-1.0834 0-2.6251 0.65835l1.1334-6.0835z" style="fill:#000080;stroke-width:1.0667"/>
 <path d="m387.83 12.51h2.4084v12.259h-1.2167v-11.059h-1.925z" style="fill:#000080;stroke-width:1.0667"/>
 <rect transform="rotate(-25.801)" x="176.29" y="182.22" width="35.169" height="15.479" style="color:#000000;fill:#fff;stroke-linecap:round;stroke-linejoin:round;stroke-width:1.4324;stroke:#fff"/>
 <path d="m240.76 87.903 2.1683-1.0482 5.3355 11.037-1.0954 0.52956-4.8132-9.9561-1.7331 0.83787z" style="fill:#000080;stroke-width:1.0667"/>
 <path d="m249.71 86.732-1.1254 0.54407q-0.35252-1.5142 0.16234-2.6702 0.51485-1.156 1.7003-1.7291 0.86283-0.41712 1.7978-0.37856 0.93889 0.02743 1.6668 0.49931 0.73546 0.46825 1.0873 1.196 0.68916 1.4255-0.32625 2.9438 0.95126-0.06186 1.7625 0.31422 1.1446 0.52962 1.6706 1.6175 0.4534 0.93784 0.3717 2.0325-0.0853 1.0872-0.71574 1.9659-0.63043 0.87866-1.6883 1.3901-1.4255 0.68915-2.7737 0.332-1.3518-0.36465-2.4134-1.8138l1.0804-0.5223q0.80378 0.93506 1.5686 1.1577 0.97655 0.27765 2.0344-0.23377 1.2004-0.58034 1.58-1.6524 0.37956-1.0721-0.0883-2.04-0.31193-0.64524-0.9516-1.0302-0.63217-0.3886-1.3852-0.37628-0.74555 0.0087-2.0612 0.56141l-0.48966-1.0129q0.75778-0.36634 1.2536-0.93 0.49216-0.57114 0.57026-1.118 0.0856-0.55049-0.15015-1.0382-0.3482-0.72027-1.1798-0.96617-0.82411-0.24953-1.7019 0.17484-0.71275 0.34458-1.0346 1-0.32545 0.64792-0.22131 1.7824z" style="fill:#000080;stroke-width:1.0667"/>
 <path d="m262.52 77.384 0.5078 1.0504-3.9314 1.9006 0.90678 3.2734q0.6187-0.55828 1.1964-0.83757 1.5081-0.72906 2.9731-0.1877 1.4689 0.53021 2.2306 2.1058 0.52593 1.0879 0.46212 2.2387-0.0638 1.1508-0.69084 2.0556-0.62318 0.89366-1.7486 1.4377-1.343 0.64925-2.6612 0.27759-1.3218-0.37916-2.133-1.5976l1.1329-0.54769q0.43585 0.57607 0.9282 0.82863 0.49986 0.24893 1.1222 0.2535 0.62625-0.0066 1.1815-0.27497 1.0879-0.52593 1.4692-1.7285 0.38129-1.2025-0.21718-2.4405-0.54044-1.1179-1.583-1.4747-1.0426-0.3568-2.2205 0.21266-0.97535 0.47152-2.0768 1.7353l-1.6274-5.9703z" style="fill:#000080;stroke-width:1.0667"/>
 <path d="m270.26 76.481q0.52594 1.0879 0.13087 2.2045-0.39869 1.1091-1.4791 1.6314-1.0804 0.52231-2.1934 0.13475-1.113-0.38756-1.6462-1.4905-0.51142-1.0579-0.10885-2.1781 0.41007-1.1239 1.4755-1.6389 1.0654-0.51505 2.1784-0.12749 1.1205 0.38393 1.6428 1.4643zm-0.88556 0.44666q-0.36997-0.76528-1.1079-1.0472-0.73794-0.28193-1.4357 0.0554-0.70526 0.34095-0.96155 1.1128-0.25241 0.7607 0.10668 1.5035 0.35183 0.72777 1.1195 1.0138 0.76409 0.27855 1.4543-0.05514 0.69026-0.3337 0.93516-1.0908 0.24491-0.75709-0.11055-1.4924z" style="fill:#000080;stroke-width:1.0667"/>
 <path d="m549.76 154.98v1.25q-1.5167-0.34167-2.3334-1.3084-0.81668-0.96668-0.81668-2.2834 0-0.95836 0.44167-1.7834 0.43334-0.83335 1.175-1.2834 0.74168-0.45834 1.55-0.45834 1.5834 0 2.5084 1.575 0.35834-0.88335 1.05-1.45 0.97502-0.80002 2.1834-0.80002 1.0417 0 1.9917 0.55001 0.94169 0.55001 1.4584 1.5 0.51668 0.95002 0.51668 2.125 0 1.5834-0.90835 2.6417-0.91669 1.0584-2.6834 1.3834v-1.2q1.1917-0.31667 1.725-0.90835 0.67501-0.75835 0.67501-1.9334 0-1.3334-0.80002-2.1417-0.80001-0.80835-1.875-0.80835-0.71668 0-1.3417 0.40834-0.62501 0.40001-0.94168 1.0834-0.31667 0.67501-0.39168 2.1h-1.125q0-0.84169-0.29167-1.5334-0.30001-0.69168-0.75835-1-0.45834-0.31667-1-0.31667-0.80001 0-1.3834 0.64168-0.58334 0.63335-0.58334 1.6084 0 0.79168 0.45001 1.3667 0.44167 0.57501 1.5084 0.97502z" style="fill:#000080;stroke-width:1.0667"/>
 <path d="m557.34 145.19q0-0.42501 0.30001-0.72501 0.3-0.30001 0.73334-0.30001 0.42501 0 0.73335 0.30001 0.30001 0.3 0.30001 0.72501t-0.30001 0.72501q-0.30834 0.30001-0.73335 0.30001-0.43334 0-0.73334-0.30001-0.30001-0.3-0.30001-0.72501z" style="fill:#000080;stroke-width:1.0667"/>
 <path d="m546.92 134.65h1.1667v4.3668l3.3417 0.60834q-0.23334-0.80001-0.23334-1.4417 0-1.675 1.125-2.7584 1.1167-1.0917 2.8667-1.0917 1.2084 0 2.2167 0.55835 1.0084 0.55834 1.55 1.5167 0.53335 0.95002 0.53335 2.2 0 1.4917-0.90835 2.5167-0.91669 1.025-2.3667 1.225v-1.2584q0.70835-0.14167 1.15-0.47501 0.44167-0.34167 0.71668-0.90002 0.26667-0.56667 0.26667-1.1834 0-1.2084-0.91668-2.075-0.91669-0.86669-2.2917-0.86669-1.2417 0-2.0167 0.78335-0.77502 0.78335-0.77502 2.0917 0 1.0834 0.65835 2.625l-6.0834-1.1334z" style="fill:#000080;stroke-width:1.0667"/>
 <path d="m546.61 126.31v-0.25001h8.5418v-1.4834h1.175v1.4834h2.8501v1.225h-2.8501v5.8584zm8.5418 0.97502h-5.1084l5.1084 3.6084z" style="fill:#000080;stroke-width:1.0667"/>
 <path d="m160.59 84.191-0.84254 0.81902q-1.2304-1.3375-1.2131-2.9815 0.0233-1.6498 1.2483-2.8406 1.213-1.1792 2.7209-1.1225 1.5138 0.0509 2.5478 1.1145 0.72608 0.74694 1.0065 1.7528 0.27461 0.99985 0.32708 3.1222l0.1074 4.4863 4.0574-3.9441 0.82483 0.84851-5.9695 5.8029-0.16764-6.8916q-0.0412-2.0868-0.2476-2.9089-0.20624-0.83387-0.77549-1.4195-0.72028-0.74096-1.793-0.73257-1.0725-0.0034-1.8732 0.77496-0.84254 0.81902-0.85822 1.9267-0.01 1.1019 0.90008 2.1932z" style="fill:#000080;stroke-width:1.0667"/>
 <path d="m172.4 81.889q0.30475-0.29624 0.72898-0.29023 0.42423 6e-3 0.72628 0.31673 0.29625 0.30475 0.29605 0.73496-6e-3 0.42423-0.31076 0.72047-0.30475 0.29624-0.72897 0.29024-0.43004-0.01198-0.72629-0.31673-0.30205-0.31072-0.29604-0.73496 6e-3 -0.42423 0.31075-0.72048z" style="fill:#000080;stroke-width:1.0667"/>
 <path d="m167.55 72.061 5.5751-5.4195 4.0568 13.582-1.0832 0.33237-3.5286-11.76-4.2127 4.0951z" style="fill:#000080;stroke-width:1.0667"/>
 <path d="m179.48 60.467 0.81322 0.83657-3.1312 3.0437 1.8931 2.8202q0.411-0.72495 0.87111-1.1722 1.2011-1.1675 2.7621-1.116 1.5611 0.03977 2.781 1.2946 0.84226 0.86645 1.1448 1.9787 0.30249 1.1122-7e-3 2.1686-0.30945 1.0446-1.2058 1.9159-1.0696 1.0398-2.4378 1.1029-1.3739 0.05717-2.528-0.84316l0.90229-0.87711q0.59533 0.40917 1.1422 0.49352 0.55286 0.07855 1.1449-0.11344 0.59221-0.20378 1.0344-0.63362 0.86644-0.84226 0.84894-2.1037-0.0175-1.2614-0.97593-2.2474-0.86549-0.89035-1.9674-0.90006-1.1019-0.0097-2.04 0.90226-0.77681 0.75513-1.4234 2.3018l-3.4277-5.1521z" style="fill:#000080;stroke-width:1.0667"/>
 <rect transform="rotate(-90)" x="-223.63" y="317.22" width="36.421" height="15.479" style="color:#000000;fill:#fff;stroke-linecap:round;stroke-linejoin:round;stroke-width:1.4324;stroke:#fff"/>
 <path d="m322.77 221.47v1.175q-1.8167-0.05-2.9834-1.2084-1.1667-1.1667-1.1667-2.8751 0-1.6917 1.0917-2.7334 1.0917-1.05 2.575-1.05 1.0417 0 1.9584 0.50001 0.90835 0.50001 2.4667 1.9417l3.2917 3.0501v-5.6584h1.1834v8.3252l-5.0584-4.6834q-1.525-1.425-2.2584-1.85-0.74168-0.43334-1.5584-0.43334-1.0334 0-1.775 0.77501-0.75001 0.76668-0.75001 1.8834 0 1.175 0.78335 1.9584 0.78334 0.77502 2.2 0.88335z" style="fill:#000080;stroke-width:1.0667"/>
 <path d="m325.07 213.44q-2.425 0-3.7501-0.51667-1.325-0.52501-2.0084-1.475-0.68334-0.95002-0.68334-2.125 0-1.1917 0.69168-2.1584 0.68334-0.96668 2.0584-1.525 1.375-0.56668 3.6917-0.56668 2.3084 0 3.6751 0.55835 1.3667 0.55001 2.0667 1.525 0.69168 0.97502 0.69168 2.1667 0 1.175-0.67501 2.1167-0.67502 0.94168-2.0084 1.475-1.3417 0.52501-3.7501 0.52501zm0.025-1.1584q2.075 0 3.1417-0.36668 1.0584-0.375 1.6084-1.1 0.55001-0.72501 0.55001-1.5334 0-0.81668-0.53334-1.525-0.54168-0.70835-1.6167-1.075-1.3084-0.45834-3.1501-0.45834-1.85 0-3.0251 0.40834-1.1834 0.40834-1.725 1.1334-0.55001 0.71668-0.55001 1.5167 0 0.81668 0.55001 1.5334 0.54168 0.71668 1.6084 1.0917 1.0584 0.37501 3.1417 0.37501z" style="fill:#000080;stroke-width:1.0667"/>
 <path d="m318.93 196.12h1.1667v4.3668l3.3417 0.60835q-0.23334-0.80002-0.23334-1.4417 0-1.675 1.125-2.7584 1.1167-1.0917 2.8667-1.0917 1.2084 0 2.2167 0.55834 1.0084 0.55835 1.55 1.5167 0.53334 0.95002 0.53334 2.2 0 1.4917-0.90835 2.5167-0.91669 1.025-2.3667 1.225v-1.2584q0.70834-0.14167 1.15-0.47501 0.44167-0.34167 0.71668-0.90001 0.26667-0.56668 0.26667-1.1834 0-1.2084-0.91668-2.075-0.91669-0.86669-2.2917-0.86669-1.2417 0-2.0167 0.78335-0.77502 0.78335-0.77502 2.0917 0 1.0834 0.65835 2.625l-6.0834-1.1334z" style="fill:#000080;stroke-width:1.0667"/>
 <path d="m321.49 188.75q1.2084 0 2.0417 0.84168 0.82501 0.84168 0.82501 2.0417 0 1.2-0.83335 2.0334t-2.0584 0.83335q-1.175 0-2.0084-0.85002-0.83335-0.85835-0.83335-2.0417 0-1.1834 0.83335-2.0167 0.83335-0.84168 2.0334-0.84168zm0.0167 0.99168q-0.85002 0-1.425 0.54168t-0.57501 1.3167q0 0.78335 0.58334 1.35 0.57501 0.55834 1.4 0.55834 0.80835 0 1.4-0.56667 0.58334-0.56668 0.58334-1.3334t-0.57501-1.3167q-0.57501-0.55002-1.3917-0.55002z" style="fill:#000080;stroke-width:1.0667"/>
 <rect transform="rotate(54.292)" x="515.03" y="-281.41" width="18.21" height="15.479" style="color:#000000;fill:#fff;stroke-linecap:round;stroke-linejoin:round;stroke-width:1.4324;stroke:#fff"/>
 <path d="m522.5 258.21q1.9691-1.4154 3.3466-1.7692 1.3823-0.34704 2.4917 0.0255 1.1094 0.37258 1.7952 1.3267 0.69553 0.96765 0.6981 2.1563 9e-3 1.1838-0.78132 2.4397-0.78577 1.2627-2.667 2.6148-1.8744 1.3473-3.31 1.6916-1.4308 0.35106-2.5683-0.0321-1.1307-0.38802-1.8262-1.3557-0.68581-0.95412-0.68732-2.1127-2e-3 -1.1586 0.7699-2.3699 0.78303-1.2094 2.7386-2.6151zm0.65577 0.95518q-1.6849 1.2111-2.3371 2.1314-0.64052 0.92222-0.66396 1.832-0.0235 0.90973 0.44834 1.5661 0.47666 0.66315 1.3232 0.92704 0.85328 0.25903 1.9402-0.0707 1.3299-0.39146 2.8254-1.4664 1.5022-1.0798 2.218-2.0972 0.72256-1.0222 0.73925-1.9271 0.0283-0.90296-0.43862-1.5526-0.47666-0.66315-1.3416-0.92408-0.85814-0.26579-1.9432 0.0523-1.0783 0.3132-2.77 1.5292z" style="fill:#000080;stroke-width:1.0667"/>
 <path d="m525.73 270.06q0.24805 0.34511 0.17956 0.76381-0.0685 0.41871-0.42039 0.67163-0.34511 0.24806-0.77058 0.18442-0.4187-0.0685-0.66676-0.41362-0.24805-0.3451-0.17955-0.76381 0.0753-0.42357 0.42038-0.67163 0.35187-0.25292 0.77058-0.18441 0.4187 0.0685 0.66676 0.41361z" style="fill:#000080;stroke-width:1.0667"/>
 <path d="m536.16 266.72 4.538 6.3134-14.032 2.0092-0.16899-1.1203 12.152-1.7557-3.429-4.7706z" style="fill:#000080;stroke-width:1.0667"/>
 <path d="m540.31 281.96q0.22398 1.3682-0.10758 2.2633-0.3267 0.90192-1.1455 1.4904-1.1504 0.82685-2.5699 0.70804-1.7374-0.14692-2.968-1.8589-1.1868-1.6511-0.85905-3.1798 0.3345-1.5336 1.4713-2.3507 0.83232-0.59825 1.8165-0.6283 0.99093-0.0349 2.261 0.63265-0.14637-1.0032 0.15263-1.7723 0.29899-0.76911 0.94184-1.2312 0.64962-0.46694 1.5426-0.52384 0.90466-0.055 1.7478 0.37553 0.85476 0.43242 1.4287 1.2309 0.55934 0.77818 0.67736 1.6991 0.11802 0.92092-0.23024 1.7357-0.34341 0.82155-1.0201 1.3079t-1.4623 0.50713q-0.78073 0.0275-1.6772-0.40576zm2.7107-4.196q-0.58852-0.81878-1.4648-1.0099-0.8647-0.18924-1.5346 0.29229-0.66314 0.47665-0.79106 1.441-0.11628 0.96619 0.4382 1.7376 0.35507 0.49398 0.91482 0.75872 0.55976 0.26475 1.1544 0.20679 0.60627-0.0561 1.0326-0.36247 0.60224-0.43289 0.75955-1.2849 0.15732-0.852-0.50904-1.7791zm-4.2426 3.1213q-0.73931-1.0286-1.9102-1.244-1.1641-0.22033-2.0506 0.41684-0.54811 0.39398-0.82131 1.0419-0.27321 0.64794-0.15286 1.3722 0.12034 0.72428 0.62618 1.428 0.78308 1.0895 1.888 1.2702 1.1049 0.18078 1.9643-0.43693 0.83232-0.59826 0.98391-1.7438 0.16323-1.1436-0.52744-2.1045z" style="fill:#000080;stroke-width:1.0667"/>
 <path d="m411.43 142.83-1.1474 0.25344q-0.34303-1.7847 0.53642-3.1738 0.88758-1.3909 2.5557-1.7594 1.6519-0.36488 2.9045 0.47642 1.2608 0.83951 1.5807 2.288 0.22468 1.0172-0.0658 2.0201-0.29231 0.99481-1.364 2.8274l-2.2683 3.8721 5.5253-1.2205 0.25524 1.1555-8.1292 1.7957 3.4821-5.9495q1.0626-1.7965 1.3194-2.6043 0.26317-0.81769 0.087-1.6152-0.22288-1.009-1.1396-1.5661-0.9104-0.56699-2.0008-0.32613-1.1474 0.25344-1.7433 1.1873-0.58781 0.93207-0.38803 2.3388z" style="fill:#000080;stroke-width:1.0667"/>
 <path d="m422.68 147.08q0.415-0.0917 0.77265 0.13656 0.35766 0.22824 0.45113 0.65138 0.0917 0.41501-0.13477 0.7808-0.22824 0.35766-0.64324 0.44933-0.41501 0.0917-0.77266-0.13657-0.35945-0.23638-0.45112-0.65138-0.0935-0.42314 0.13476-0.7808 0.22825-0.35765 0.64325-0.44932z" style="fill:#000080;stroke-width:1.0667"/>
 <path d="m425.35 138.73-1.2206 0.26962q7e-3 -1.5547 0.77428-2.5607 0.76778-1.006 2.0535-1.29 0.93579-0.20671 1.8367 0.0466 0.9072 0.2434 1.5066 0.87056 0.60754 0.62537 0.78189 1.4147 0.34151 1.5461-0.99692 2.7891 0.93984 0.15938 1.6424 0.71255 0.99149 0.77951 1.2521 1.9594 0.22468 1.0172-0.10747 2.0635-0.33395 1.0382-1.1502 1.7476-0.81621 0.70942-1.9636 0.96286-1.5461 0.34152-2.7755-0.31717-1.2312-0.66684-1.9296-2.3218l1.1718-0.25884q0.56626 1.0953 1.259 1.4885 0.88609 0.49556 2.0335 0.24212 1.302-0.28759 1.9187-1.2431 0.61677-0.95553 0.3849-2.0052-0.15459-0.69982-0.68812-1.222-0.52541-0.52402-1.261-0.68584-0.72744-0.16363-2.1351 0.0705l-0.24266-1.0985q0.82187-0.18155 1.4344-0.61554 0.61069-0.44214 0.81291-0.95619 0.21036-0.51586 0.0935-1.0448-0.17255-0.78118-0.92495-1.2124-0.74425-0.43301-1.6963-0.2227-0.77305 0.17075-1.2375 0.73418-0.46622 0.55531-0.62673 1.6832z" style="fill:#000080;stroke-width:1.0667"/>
 <path d="m437.82 132.75 1.1266 0.42535-2.1485 5.6123q0.60245-0.36351 1.1721-0.48934 1.424-0.31455 2.6451 0.49961 1.2192 0.80601 1.5518 2.3114 0.22827 1.0334-0.0667 1.9776-0.29675 0.93605-1.0741 1.6284-0.77099 0.68236-1.7882 0.90705-0.98461 0.21749-1.9352-0.0676-0.9442-0.29496-1.6148-1.0515t-0.88813-1.7411q-0.16176-0.73236-0.0468-1.6027 0.12133-0.88024 0.6346-2.1884zm0.0973 6.6609q-1.0416 0.23008-1.6185 1.1341-0.57059 0.89414-0.33872 1.9439 0.23007 1.0416 1.126 1.6203 0.90226 0.5688 1.9438 0.33872 1.0416-0.23007 1.6122-1.1242 0.57693-0.90407 0.34686-1.9456-0.23187-1.0497-1.1341-1.6185-0.89593-0.57873-1.9375-0.34866z" style="fill:#000080;stroke-width:1.0667"/>
 <circle transform="rotate(-12.456)" cx="363.69" cy="230.41" r="3.6421" style="color:#000000;fill-rule:evenodd;fill:#fff;stroke-linecap:round;stroke-linejoin:round;stroke-width:.75591;stroke:#000080"/>
 <path d="m401.56 151.86 6.3706-10.207" style="color:#000000;fill-rule:evenodd;fill:#fff;stroke-linecap:round;stroke-linejoin:round;stroke-width:.75591;stroke:#000080"/>
 <ellipse cx="428.48" cy="164.85" rx="13.199" ry="13.469" style="fill:#1f638a;stroke-linecap:round;stroke-linejoin:round;stroke-width:1.0658;stroke:#fff"/>
 <text x="422.6362" y="172.51863" style="fill:#000000;font-family:'Arial Nova', 'Arial Unicode MS', 'Yu Gothic UI', sans-serif;font-size:12.8px;letter-spacing:0px;line-height:0%;stroke-width:1.0667;stroke:#ffffff;word-spacing:0px" xml:space="preserve"><tspan x="422.6362" y="172.51863" style="fill:#ffffff;font-family:'Arial Nova', 'Arial Unicode MS', 'Yu Gothic UI', sans-serif;font-size:21.333px;line-height:1.25;stroke-width:1.0667;stroke:#ffffff">4</tspan></text>
 <ellipse cx="500" cy="260.28" rx="13.199" ry="13.469" style="fill:#1f638a;stroke-linecap:round;stroke-linejoin:round;stroke-width:1.0658;stroke:#fff"/>
 <text x="494.1543" y="267.95139" style="fill:#000000;font-family:'Arial Nova', 'Arial Unicode MS', 'Yu Gothic UI', sans-serif;font-size:12.8px;letter-spacing:0px;line-height:0%;stroke-width:1.0667;stroke:#ffffff;word-spacing:0px" xml:space="preserve"><tspan x="494.1543" y="267.95139" style="fill:#ffffff;font-family:'Arial Nova', 'Arial Unicode MS', 'Yu Gothic UI', sans-serif;font-size:21.333px;line-height:1.25;stroke-width:1.0667;stroke:#ffffff">5</tspan></text>
 <ellipse cx="539.15" cy="34.48" rx="13.199" ry="13.469" style="fill:#1f638a;stroke-linecap:round;stroke-linejoin:round;stroke-width:1.0658;stroke:#fff"/>
 <text x="533.30664" y="42.14254" style="fill:#000000;font-family:'Arial Nova', 'Arial Unicode MS', 'Yu Gothic UI', sans-serif;font-size:12.8px;letter-spacing:0px;line-height:0%;stroke-width:1.0667;stroke:#ffffff;word-spacing:0px" xml:space="preserve"><tspan x="533.30664" y="42.14254" style="fill:#ffffff;font-family:'Arial Nova', 'Arial Unicode MS', 'Yu Gothic UI', sans-serif;font-size:21.333px;line-height:1.25;stroke-width:1.0667;stroke:#ffffff">6</tspan></text>
</svg>
