<?xml version="1.0" encoding="UTF-8"?>
<svg width="18cm" height="5cm" overflow="visible" version="1.0" viewBox="-49.834 -97.147 680.31 188.98" xmlns="http://www.w3.org/2000/svg" xmlns:xlink="http://www.w3.org/1999/xlink"><defs><linearGradient id="linearGradient6218-7-4-0-5-2-09"><stop style="stop-color:#ff8500" offset="0"/><stop style="stop-color:#fff" offset="1"/></linearGradient><linearGradient id="linearGradient2020" x1="55.489" x2="78.405" y1="35.64" y2="12.795" gradientUnits="userSpaceOnUse" xlink:href="#linearGradient6218-7-4-0-5-2-09"/><linearGradient id="linearGradient2022" x1="154.52" x2="-16.539" y1="-63.584" y2="110.38" gradientUnits="userSpaceOnUse" xlink:href="#linearGradient7747-2-1"/><linearGradient id="linearGradient2159" x1="447.98" x2="445.72" y1="-138.2" y2="282.37" gradientTransform="translate(-44.648,25.513)" gradientUnits="userSpaceOnUse" xlink:href="#linearGradient7747-2-1"/><linearGradient id="linearGradient2165" x1="446.86" x2="445.72" y1="20.032" y2="-43.861" gradientTransform="translate(-44.648,25.513)" gradientUnits="userSpaceOnUse" xlink:href="#linearGradient6218-7-4-0-5-2-09"/><linearGradient id="linearGradient7747-2-1"><stop style="stop-color:#fff" offset="0"/><stop style="stop-color:#808080" offset="1"/></linearGradient></defs><path d="m78.405 45.525v-32.729h-32.618c-0.35542 17.583 15.018 33.08 32.618 32.729z" style="color:#260000;fill:url(#linearGradient2020);stroke-linecap:round;stroke-linejoin:round;stroke-width:1.4324;stroke:#7d7d7d"/><path id="ID_9E" d="m78.405 45.529h76.12v-32.734h-76.12z" style="color:#260000;fill:url(#linearGradient2022);stroke-linecap:round;stroke-linejoin:round;stroke-width:1.4324;stroke:#7d7d7d"/><path id="ID_9F" d="m45.782-63.584v76.379h32.623v-76.379z" style="color:#260000;fill:url(#linearGradient2022);stroke-linecap:round;stroke-linejoin:round;stroke-width:1.4324;stroke:#7d7d7d"/><path d="m78.405-63.584h76.12v76.379h-76.12z" style="color:#000000;fill:url(#linearGradient2022);stroke-linecap:round;stroke-linejoin:round;stroke-width:1.4324;stroke:#7d7d7d"/><path d="m325.12-11.927c17.942 13.555 35.883 27.11 53.825 40.665v50.263c-17.942-13.555-35.883-27.11-53.825-40.665z" style="color:#260000;fill:url(#linearGradient2159);stroke-linecap:round;stroke-linejoin:round;stroke-width:1.4324;stroke:#7d7d7d"/><path d="m425.08 28.739c17.942-13.555 35.883-27.11 53.825-40.665v50.263c-17.942 13.555-35.883 27.11-53.825 40.665z" style="color:#260000;fill:url(#linearGradient2159);stroke-linecap:round;stroke-linejoin:round;stroke-width:1.4324;stroke:#7d7d7d"/><path d="m402.01-9.981 53.825-40.665-53.825-40.665-53.825 40.665z" style="color:#260000;fill:url(#linearGradient2159);stroke-linecap:round;stroke-linejoin:round;stroke-width:1.4324;stroke:#7d7d7d"/><path d="m402.01-9.981c-11.692 9.4029-21.704 23.168-23.065 38.719 13.186 9.9041 32.949 9.8992 46.129 0-1.3607-15.551-11.373-29.316-23.065-38.719z" style="color:#000000;fill:url(#linearGradient2165);stroke-linecap:round;stroke-linejoin:round;stroke-width:1.4324;stroke:#7d7d7d"/><path d="m378.94 28.739c13.19 9.654 32.953 9.6491 46.135 0l-0.61944 50.707c-13.802 9.1608-32.719 8.9329-45.516-0.44412z" style="color:#260000;fill:url(#linearGradient2159);stroke-linecap:round;stroke-linejoin:round;stroke-width:1.4324;stroke:#7d7d7d"/><path d="m478.89-12.252c-1.6866-15.634-11.492-29.103-23.052-38.394l-53.825 40.665c11.692 9.4029 21.704 23.168 23.065 38.719 17.945-13.305 35.886-26.86 53.812-40.991z" style="color:#260000;fill:url(#linearGradient2159);stroke-linecap:round;stroke-linejoin:round;stroke-width:1.4324;stroke:#7d7d7d"/><path d="m378.95 28.739c-17.945-13.305-35.886-26.86-53.812-40.991 1.6866-15.634 11.492-29.103 23.052-38.394 17.942 13.555 35.883 27.11 53.825 40.665-11.692 9.4029-21.704 23.168-23.065 38.719z" style="color:#000000;fill:url(#linearGradient2159);stroke-linecap:round;stroke-linejoin:round;stroke-width:1.4324;stroke:#7d7d7d"/><path d="m65.886 53.75 6.2254-5.147 6.9023 14.13 6.2932-3.0742-6.9023-14.13 7.4286-1.523-19.542-14.716z" style="fill:#fff;stroke-linecap:round;stroke-linejoin:round;stroke-width:.75591;stroke:#000"/><g transform="matrix(.2917 0 0 .28875 174.71 -40.264)" style="fill:#1f638a;stroke-linecap:round;stroke-linejoin:round;stroke-width:1.2209;stroke:#1f638a"><path d="m207.49 126.25 34.17 21.614-34.17 21.614z" style="fill:#1f638a;stroke-linecap:round;stroke-linejoin:round;stroke-width:1.3023;stroke:#1f638a"/><rect x="172.19" y="137.99" width="39.213" height="19.761" style="fill:#1f638a;stroke-linecap:round;stroke-linejoin:round;stroke-width:1.3023;stroke:#1f638a"/></g><g transform="translate(146.04 148.1)"><ellipse cx="-44.92" cy="-98.798" rx="13.199" ry="13.469" style="fill:#1f638a;stroke-linecap:round;stroke-linejoin:round;stroke-width:1.0658"/><text x="-50.761276" y="-91.125885" style="fill:#000000;font-family:'Arial Nova', 'Arial Unicode MS', 'Yu Gothic UI', sans-serif;font-size:12.8px;letter-spacing:0px;line-height:0%;stroke-width:1.0667;word-spacing:0px" xml:space="preserve"><tspan x="-50.761276" y="-91.125885" style="fill:#ffffff;font-family:'Arial Nova', 'Arial Unicode MS', 'Yu Gothic UI', sans-serif;font-size:21.333px;line-height:1.25;stroke-width:1.0667;stroke:#ffffff">1</tspan></text></g></svg>
