<?xml version="1.0" encoding="UTF-8"?>
<svg width="18cm" height="10.5cm" version="1.1" xmlns="http://www.w3.org/2000/svg" xmlns:osb="http://www.openswatchbook.org/uri/2009/osb" xmlns:xlink="http://www.w3.org/1999/xlink">
 <defs>
  <linearGradient id="linearGradient8206" x1="281.32" x2="281.08" y1="378.46" y2="339.84" gradientTransform="matrix(0 1.0667 .90774 0 289.89 11.721)" gradientUnits="userSpaceOnUse">
   <stop offset="0"/>
   <stop style="stop-opacity:0" offset="1"/>
  </linearGradient>
  <linearGradient id="linearGradient8209" x1="281.38" x2="281.2" y1="319.6" y2="387.42" gradientTransform="matrix(0 1.0667 1.0667 0 233.11 11.721)" gradientUnits="userSpaceOnUse">
   <stop offset="0"/>
   <stop style="stop-opacity:0" offset="1"/>
  </linearGradient>
  <linearGradient id="linearGradient8213" x1="281.32" x2="281.08" y1="378.46" y2="339.84" gradientTransform="matrix(1.0667 0 0 1.0667 233.14 7.3153)" gradientUnits="userSpaceOnUse">
   <stop offset="0"/>
   <stop style="stop-opacity:0" offset="1"/>
  </linearGradient>
  <linearGradient id="linearGradient8216" x1="281.38" x2="281.2" y1="319.6" y2="387.42" gradientTransform="matrix(1.0667 0 0 1.0667 231.95 8.7902)" gradientUnits="userSpaceOnUse">
   <stop offset="0"/>
   <stop style="stop-opacity:0" offset="1"/>
  </linearGradient>
 </defs>
 <g transform="translate(0 -56.693)">
  <path d="m471.8 132.45h172.72" style="fill:#f00;stroke-dasharray:2.83464565, 2.83464565;stroke-linecap:round;stroke-linejoin:round;stroke-width:.94488;stroke:#7d7d7d"/>
  <path d="m532.14 93.116v153.93" style="fill:none;stroke-dasharray:2.83464565, 2.83464565;stroke-linecap:round;stroke-linejoin:round;stroke-width:.94488;stroke:#7d7d7d"/>
  <path d="m532.14 168.61v80.364" style="fill:none;stroke-linecap:round;stroke-linejoin:round;stroke-width:3.7795;stroke:#000"/>
  <path d="m592.74 132.45h53.256" style="fill:#f00;stroke-linecap:round;stroke-linejoin:round;stroke-width:3.7795;stroke:#2b0000"/>
  <path d="m531.69 349.76a1.89 1.89 0 0 0-1.6667 1.9v54.767a1.89 1.89 0 1 0 3.7667 0v-54.767a1.89 1.89 0 0 0-2.1-1.9z" style="color:#000000;fill:#fff;stroke-linecap:round;stroke-linejoin:round;stroke-width:.75591;stroke:url(#linearGradient8216);text-decoration-line:none;text-indent:0;text-transform:none"/>
  <path d="m533.09 371.52v54.764" style="fill:none;stroke-linecap:round;stroke-linejoin:round;stroke-width:3.7795;stroke:url(#linearGradient8213)"/>
  <path d="m595.41 311.45c0.10895-0.91632 0.97729-1.678 1.9-1.6667h33.433c1.0387-0.0871 2.048 0.84101 2.048 1.8833 0 1.0423-1.0093 1.9705-2.048 1.8833h-33.433c-1.067 0.0123-2.0187-1.0396-1.9-2.1z" style="color:#000000;fill:#fff;stroke-linecap:round;stroke-linejoin:round;stroke-width:.75591;stroke:url(#linearGradient8209);text-decoration-line:none;text-indent:0;text-transform:none"/>
  <path d="m599.83 311.67h46.605" style="fill:none;stroke-linecap:round;stroke-linejoin:round;stroke-width:3.4866;stroke:url(#linearGradient8206)"/>
  <path d="m342.54 371.61v54.764" style="fill:none;stroke-linecap:round;stroke-linejoin:round;stroke-width:3.7795;stroke:#f00"/>
  <path d="m415.18 311.73h42.589" style="fill:#f00;stroke-linecap:round;stroke-linejoin:round;stroke-width:3.7795;stroke:#000"/>
  <path d="m342.54 371.61v54.764" style="fill:none;stroke-linecap:round;stroke-linejoin:round;stroke-width:3.7795;stroke:#000"/>
  <path d="m281.68 131.56h172.72" style="fill:#f00;stroke-dasharray:2.83464565, 2.83464565;stroke-linecap:round;stroke-linejoin:round;stroke-width:.94488;stroke:#7d7d7d"/>
  <path d="m342.02 93.641v152.62" style="fill:none;stroke-linecap:round;stroke-linejoin:round;stroke-width:3.7795;stroke:#000"/>
  <path d="m282.97 131.56h171.43" style="fill:#f00;stroke-linecap:round;stroke-linejoin:round;stroke-width:3.7795;stroke:#000"/>
  <path d="m66.306 129.87h172.72" style="fill:#f00;stroke-linecap:round;stroke-linejoin:round;stroke-width:3.7795;stroke:#f00"/>
  <path d="m126.65 90.836v153.93" style="fill:none;stroke-linecap:round;stroke-linejoin:round;stroke-width:3.7795;stroke:#f00"/>
  <path d="m203.35 154.82 6.2253-5.1469 6.9023 14.13 6.2932-3.0742-6.9023-14.13 7.4287-1.523-19.542-14.716z" style="fill:#fff;stroke-linecap:round;stroke-linejoin:round;stroke-width:.75591;stroke:#000"/>
  <path d="m126.09 201.77 6.2253-5.1469 6.9023 14.13 6.2932-3.0742-6.9023-14.13 7.4287-1.523-19.542-14.716z" style="fill:#fff;stroke-linecap:round;stroke-linejoin:round;stroke-width:.75591;stroke:#000"/>
  <path d="m126.7 371.69v54.764" style="fill:none;stroke-linecap:round;stroke-linejoin:round;stroke-width:3.7795;stroke:#f00"/>
  <path d="m196.49 311.8h42.589" style="fill:#f00;stroke-linecap:round;stroke-linejoin:round;stroke-width:3.7795;stroke:#f00"/>
  <path d="m126.7 371.69v54.764" style="fill:none;stroke-linecap:round;stroke-linejoin:round;stroke-width:3.7795;stroke:#f00"/>
  <path d="m127.13 411.36 6.2254-5.1469 6.9023 14.13 6.2932-3.0742-6.9023-14.13 7.4287-1.523-19.542-14.716z" style="fill:#fff;stroke-linecap:round;stroke-linejoin:round;stroke-width:.75591;stroke:#000"/>
  <path d="m208.85 336.26 6.2253-5.147 6.9023 14.13 6.2932-3.0742-6.9023-14.13 7.4287-1.523-19.542-14.716z" style="fill:#fff;stroke-linecap:round;stroke-linejoin:round;stroke-width:.75591;stroke:#000"/>
  <path d="m128.59 167.16 60.828-35.063" style="stroke-dasharray:3.06932119, 3.06932119;stroke-linecap:round;stroke-linejoin:round;stroke-width:1.0231;stroke:#000"/>
  <path d="m126.67 167.18h-32.092" style="fill:none;stroke-linecap:round;stroke-linejoin:round;stroke-width:.75591;stroke:#000"/>
  <path d="m99.958 127.46 4.3437-12.519-8.7613-0.10699z" style="stroke-linecap:round;stroke-linejoin:round;stroke-width:1.0658;stroke:#000"/>
  <path d="m99.902 168.08-4.2103 12.565 8.7619 0.0139z" style="stroke-linecap:round;stroke-linejoin:round;stroke-width:1.0658;stroke:#000"/>
  <path d="m99.931 113.33v69.21" style="stroke-linecap:round;stroke-linejoin:round;stroke-width:.75591;stroke:#000"/>
  <path d="m191.4 129.05v-32.092" style="stroke-linecap:round;stroke-linejoin:round;stroke-width:.75591;stroke:#000"/>
  <path d="m192.25 101.22 12.519 4.3437 0.10699-8.7613z" style="stroke-linecap:round;stroke-linejoin:round;stroke-width:1.0658;stroke:#000"/>
  <path d="m124.03 101.17-12.565-4.2104-0.0139 8.7619z" style="stroke-linecap:round;stroke-linejoin:round;stroke-width:1.0658;stroke:#000"/>
  <path d="m206.51 101.2h-96.676" style="stroke-linecap:round;stroke-linejoin:round;stroke-width:.75591;stroke:#000"/>
  <path d="m125.75 347.57 60.828-35.063" style="stroke-dasharray:3.06932119, 3.06932119;stroke-linecap:round;stroke-linejoin:round;stroke-width:1.0231;stroke:#000"/>
  <path d="m123.83 347.59h-32.092" style="stroke-linecap:round;stroke-linejoin:round;stroke-width:.75591;stroke:#000"/>
  <path d="m97.118 309.43 4.3437-12.519-8.7613-0.10699z" style="stroke-linecap:round;stroke-linejoin:round;stroke-width:1.0658;stroke:#000"/>
  <path d="m97.062 350.05-4.2103 12.565 8.7619 0.0139z" style="stroke-linecap:round;stroke-linejoin:round;stroke-width:1.0658;stroke:#000"/>
  <path d="m97.091 295.3v69.21" style="stroke-linecap:round;stroke-linejoin:round;stroke-width:.75591;stroke:#000"/>
  <path d="m188.56 309.6v-32.092" style="stroke-linecap:round;stroke-linejoin:round;stroke-width:.75591;stroke:#000"/>
  <path d="m189.41 279.5 12.519 4.3437 0.10699-8.7613z" style="stroke-linecap:round;stroke-linejoin:round;stroke-width:1.0658;stroke:#000"/>
  <path d="m121.19 279.44-12.565-4.2103-0.0139 8.7619z" style="stroke-linecap:round;stroke-linejoin:round;stroke-width:1.0658;stroke:#000"/>
  <path d="m203.67 279.47h-96.676" style="stroke-linecap:round;stroke-linejoin:round;stroke-width:.75591;stroke:#000"/>
  <path d="m402.53 310.2a1.89 1.89 0 0 0-0.83333 0.26667l-60.833 35.067a1.89 1.89 0 1 0 1.9 3.2667l60.8-35.067a1.89 1.89 0 0 0-1.0333-3.5333z" style="color:#000000;fill:#fff;stroke-linecap:round;stroke-linejoin:round;stroke-width:.75591;stroke:#000;text-decoration-line:none;text-indent:0;text-transform:none"/>
  <path d="m402.35 129.16a1.89 1.89 0 0 0-0.83334 0.26667l-60.833 35.067a1.89 1.89 0 1 0 1.9 3.2667l60.8-35.067a1.89 1.89 0 0 0-1.0333-3.5333z" style="color:#000000;fill:#fff;stroke-linecap:round;stroke-linejoin:round;stroke-width:.75591;stroke:#000;text-decoration-line:none;text-indent:0;text-transform:none"/>
  <path d="m593.08 130.44a1.89 1.89 0 0 0-0.83333 0.26667l-60.833 35.067a1.89 1.89 0 1 0 1.9 3.2667l60.8-35.067a1.89 1.89 0 0 0-1.0333-3.5333z" style="color:#000000;fill:#fff;stroke-linecap:round;stroke-linejoin:round;stroke-width:.75591;stroke:#000;text-decoration-line:none;text-indent:0;text-transform:none"/>
  <path d="m592.65 310.15a1.89 1.89 0 0 0-0.83334 0.26667l-60.833 35.067a1.89 1.89 0 1 0 1.9 3.2667l60.8-35.067a1.89 1.89 0 0 0-1.0333-3.5333z" style="color:#000000;fill:#fff;stroke-linecap:round;stroke-linejoin:round;stroke-width:.75591;stroke:#000;text-decoration-line:none;text-indent:0;text-transform:none"/>
  <path d="m124.62 310.16h-32.092" style="stroke-linecap:round;stroke-linejoin:round;stroke-width:.75591;stroke:#000"/>
  <path d="m125.19 309.54v-32.092" style="stroke-linecap:round;stroke-linejoin:round;stroke-width:.75591;stroke:#000"/>
  <g transform="translate(208 303.15)">
   <ellipse cx="-44.92" cy="-98.798" rx="13.199" ry="13.469" style="fill:#1f638a;stroke-linecap:round;stroke-linejoin:round;stroke-width:1.0658"/>
   <text x="-50.761276" y="-91.125885" style="fill:#000000;font-family:'Arial Nova', 'Arial Unicode MS', 'Yu Gothic UI', sans-serif;font-size:12.8px;letter-spacing:0px;line-height:0%;stroke-width:1.0667;word-spacing:0px" xml:space="preserve"><tspan x="-50.761276" y="-91.125885" style="fill:#ffffff;font-family:'Arial Nova', 'Arial Unicode MS', 'Yu Gothic UI', sans-serif;font-size:21.333px;stroke-width:1.0667;stroke:#ffffff">1</tspan></text>
  </g>
  <g transform="translate(254.35 252.29)">
   <ellipse cx="-13.718" cy="-98.798" rx="13.199" ry="13.469" style="fill:#1f638a;stroke-linecap:round;stroke-linejoin:round;stroke-width:1.0658"/>
   <text x="-19.559933" y="-91.125885" style="fill:#000000;font-family:'Arial Nova', 'Arial Unicode MS', 'Yu Gothic UI', sans-serif;font-size:12.8px;letter-spacing:0px;line-height:0%;stroke-width:1.0667;word-spacing:0px" xml:space="preserve"><tspan x="-19.559933" y="-91.125885" style="fill:#ffffff;font-family:'Arial Nova', 'Arial Unicode MS', 'Yu Gothic UI', sans-serif;font-size:21.333px;stroke-width:1.0667;stroke:#ffffff">2</tspan></text>
  </g>
  <g transform="translate(63.777 248.43)">
   <ellipse cx="17.483" cy="-98.798" rx="13.199" ry="13.469" style="fill:#1f638a;stroke-linecap:round;stroke-linejoin:round;stroke-width:1.0658"/>
   <text x="11.641406" y="-91.256096" style="fill:#000000;font-family:'Arial Nova', 'Arial Unicode MS', 'Yu Gothic UI', sans-serif;font-size:12.8px;letter-spacing:0px;line-height:0%;stroke-width:1.0667;word-spacing:0px" xml:space="preserve"><tspan x="11.641406" y="-91.256096" style="fill:#ffffff;font-family:'Arial Nova', 'Arial Unicode MS', 'Yu Gothic UI', sans-serif;font-size:21.333px;stroke-width:1.0667;stroke:#ffffff">3</tspan></text>
  </g>
  <g transform="translate(112.07 179.54)">
   <ellipse cx="48.684" cy="-98.798" rx="13.199" ry="13.469" style="fill:#1f638a;stroke-linecap:round;stroke-linejoin:round;stroke-width:1.0658"/>
   <text x="42.842751" y="-91.162346" style="fill:#000000;font-family:'Arial Nova', 'Arial Unicode MS', 'Yu Gothic UI', sans-serif;font-size:12.8px;letter-spacing:0px;line-height:0%;stroke-width:1.0667;word-spacing:0px" xml:space="preserve"><tspan x="42.842751" y="-91.162346" style="fill:#ffffff;font-family:'Arial Nova', 'Arial Unicode MS', 'Yu Gothic UI', sans-serif;font-size:21.333px;stroke-width:1.0667;stroke:#ffffff">4</tspan></text>
  </g>
  <g transform="translate(423.11 480.6)">
   <ellipse cx="-36.9" cy="-49.598" rx="13.199" ry="13.469" style="fill:#1f638a;stroke-linecap:round;stroke-linejoin:round;stroke-width:1.0658"/>
   <text x="-44.014687" y="-41.962215" style="fill:#000000;font-family:'Arial Nova', 'Arial Unicode MS', 'Yu Gothic UI', sans-serif;font-size:12.8px;letter-spacing:0px;line-height:0%;stroke-width:1.0667;word-spacing:0px" xml:space="preserve"><tspan x="-44.014687" y="-41.962215" style="fill:#ffffff;font-family:'Arial Nova', 'Arial Unicode MS', 'Yu Gothic UI', sans-serif;font-size:21.333px;stroke-width:1.0667;stroke:#ffffff">A</tspan></text>
  </g>
  <g transform="translate(620.78 450.66)">
   <ellipse cx="-36.668" cy="-19.66" rx="13.199" ry="13.469" style="fill:#1f638a;stroke-linecap:round;stroke-linejoin:round;stroke-width:1.0658"/>
   <text x="-43.09388" y="-12.024389" style="fill:#000000;font-family:'Arial Nova', 'Arial Unicode MS', 'Yu Gothic UI', sans-serif;font-size:12.8px;letter-spacing:0px;line-height:0%;stroke-width:1.0667;word-spacing:0px" xml:space="preserve"><tspan x="-43.09388" y="-12.024389" style="fill:#ffffff;font-family:'Arial Nova', 'Arial Unicode MS', 'Yu Gothic UI', sans-serif;font-size:21.333px;stroke-width:1.0667;stroke:#ffffff">B</tspan></text>
  </g>
  <g transform="translate(37.38 345)">
   <ellipse cx="14.853" cy="-64.45" rx="13.199" ry="13.469" style="fill:#1f638a;stroke-linecap:round;stroke-linejoin:round;stroke-width:1.0658"/>
   <g transform="translate(1.0622)">
    <text x="7.6122456" y="-56.815075" style="fill:#000000;font-family:'Arial Nova', 'Arial Unicode MS', 'Yu Gothic UI', sans-serif;font-size:12.8px;letter-spacing:0px;line-height:0%;stroke-width:1.0667;word-spacing:0px" xml:space="preserve"><tspan x="7.6122456" y="-56.815075" style="fill:#ffffff;font-family:'Arial Nova', 'Arial Unicode MS', 'Yu Gothic UI', sans-serif;font-size:21.333px;stroke-width:1.0667;stroke:#ffffff">I</tspan></text>
    <text x="14.021075" y="-56.815075" style="fill:#000000;font-family:'Arial Nova', 'Arial Unicode MS', 'Yu Gothic UI', sans-serif;font-size:12.8px;letter-spacing:0px;line-height:0%;stroke-width:1.0667;word-spacing:0px" xml:space="preserve"><tspan x="14.021075" y="-56.815075" style="fill:#ffffff;font-family:'Arial Nova', 'Arial Unicode MS', 'Yu Gothic UI', sans-serif;font-size:21.333px;stroke-width:1.0667;stroke:#ffffff">I</tspan></text>
   </g>
  </g>
  <g transform="translate(211.23 502.53)">
   <ellipse cx="-44.92" cy="-98.798" rx="13.199" ry="13.469" style="fill:#1f638a;stroke-linecap:round;stroke-linejoin:round;stroke-width:1.0658"/>
   <text x="-50.761276" y="-91.125885" style="fill:#000000;font-family:'Arial Nova', 'Arial Unicode MS', 'Yu Gothic UI', sans-serif;font-size:12.8px;letter-spacing:0px;line-height:0%;stroke-width:1.0667;word-spacing:0px" xml:space="preserve"><tspan x="-50.761276" y="-91.125885" style="fill:#ffffff;font-family:'Arial Nova', 'Arial Unicode MS', 'Yu Gothic UI', sans-serif;font-size:21.333px;stroke-width:1.0667;stroke:#ffffff">1</tspan></text>
  </g>
  <g transform="translate(261.45 431.71)">
   <ellipse cx="-13.718" cy="-98.798" rx="13.199" ry="13.469" style="fill:#1f638a;stroke-linecap:round;stroke-linejoin:round;stroke-width:1.0658"/>
   <text x="-19.559933" y="-91.125885" style="fill:#000000;font-family:'Arial Nova', 'Arial Unicode MS', 'Yu Gothic UI', sans-serif;font-size:12.8px;letter-spacing:0px;line-height:0%;stroke-width:1.0667;word-spacing:0px" xml:space="preserve"><tspan x="-19.559933" y="-91.125885" style="fill:#ffffff;font-family:'Arial Nova', 'Arial Unicode MS', 'Yu Gothic UI', sans-serif;font-size:21.333px;stroke-width:1.0667;stroke:#ffffff">2</tspan></text>
  </g>
  <g transform="translate(58.638 428.49)">
   <ellipse cx="17.483" cy="-98.798" rx="13.199" ry="13.469" style="fill:#1f638a;stroke-linecap:round;stroke-linejoin:round;stroke-width:1.0658"/>
   <text x="11.641406" y="-91.256096" style="fill:#000000;font-family:'Arial Nova', 'Arial Unicode MS', 'Yu Gothic UI', sans-serif;font-size:12.8px;letter-spacing:0px;line-height:0%;stroke-width:1.0667;word-spacing:0px" xml:space="preserve"><tspan x="11.641406" y="-91.256096" style="fill:#ffffff;font-family:'Arial Nova', 'Arial Unicode MS', 'Yu Gothic UI', sans-serif;font-size:21.333px;stroke-width:1.0667;stroke:#ffffff">3</tspan></text>
  </g>
  <g transform="translate(106.93 359.6)">
   <ellipse cx="48.684" cy="-98.798" rx="13.199" ry="13.469" style="fill:#1f638a;stroke-linecap:round;stroke-linejoin:round;stroke-width:1.0658"/>
   <text x="42.842751" y="-91.162346" style="fill:#000000;font-family:'Arial Nova', 'Arial Unicode MS', 'Yu Gothic UI', sans-serif;font-size:12.8px;letter-spacing:0px;line-height:0%;stroke-width:1.0667;word-spacing:0px" xml:space="preserve"><tspan x="42.842751" y="-91.162346" style="fill:#ffffff;font-family:'Arial Nova', 'Arial Unicode MS', 'Yu Gothic UI', sans-serif;font-size:21.333px;stroke-width:1.0667;stroke:#ffffff">4</tspan></text>
  </g>
 </g>
</svg>
