<?xml version="1.0" encoding="UTF-8"?>
<svg width="18cm" height="11cm" version="1.1" xmlns="http://www.w3.org/2000/svg" xmlns:osb="http://www.openswatchbook.org/uri/2009/osb">
 <g transform="translate(0 -37.795)">
  <g transform="translate(0 22.854)">
   <g transform="translate(0 429.86)">
    <ellipse transform="rotate(-2)" cx="656.56" cy="-21.898" rx="4.0406" ry="3.7795" style="fill:#008000;stroke-linecap:round;stroke-linejoin:round;stroke-width:3.7837;stroke:#008000"/>
    <ellipse transform="rotate(-2)" cx="388.79" cy="-31.09" rx="4.0406" ry="3.7795" style="fill:#008000;stroke-linecap:round;stroke-linejoin:round;stroke-width:3.7837;stroke:#008000"/>
    <g transform="translate(296.64 -173.45)">
     <path d="m91.357 128.95h267.31" style="fill:#f00;stroke-dasharray:1.51181106, 1.51181106;stroke-linecap:round;stroke-linejoin:round;stroke-width:.75591;stroke:#008000"/>
     <g transform="matrix(.66342 0 0 .66342 57.846 71.101)" style="stroke-linecap:round;stroke-linejoin:round;stroke-width:3.0147;stroke:#000080">
      <g style="stroke-linecap:round;stroke-linejoin:round;stroke-width:3.0147;stroke:#000080">
       <path d="m95.204 85.511 14.442-34.232 14.263 34.232" style="fill:none;stroke-linecap:round;stroke-linejoin:round;stroke-width:3.2157;stroke:#000080"/>
       <path d="m100.11 73.744h18.854" style="fill:none;stroke-linecap:round;stroke-linejoin:round;stroke-width:3.2157;stroke:#000080"/>
      </g>
      <path d="m130.73 57.386 11.5-6.3294v34.094" style="fill:none;stroke-linecap:round;stroke-linejoin:round;stroke-width:3.2157;stroke:#000080"/>
      <path d="m177.85 73.489h-29.249l20.172-22.378v33.913" style="fill:none;stroke-linecap:round;stroke-linejoin:round;stroke-width:3.2157;stroke:#000080"/>
      <path d="m237.41 51.111h29.438l-20.865 34.418" style="fill:none;stroke-linecap:round;stroke-linejoin:round;stroke-width:3.2157;stroke:#000080"/>
      <path d="m327.19 70.652h28.744" style="fill:none;stroke-linecap:round;stroke-linejoin:round;stroke-width:3.2157;stroke:#000080"/>
      <g transform="translate(-17.067)" style="stroke-linecap:round;stroke-linejoin:round;stroke-width:3.0147;stroke:#000080">
       <path d="m397.53 51.048v33.976" style="fill:none;stroke-linecap:round;stroke-linejoin:round;stroke-width:3.2157;stroke:#000080"/>
       <path d="m425.77 51.111v33.976" style="fill:none;stroke-linecap:round;stroke-linejoin:round;stroke-width:3.2157;stroke:#000080"/>
       <path d="m397.53 67.437h28.303" style="fill:none;stroke-linecap:round;stroke-linejoin:round;stroke-width:3.2157;stroke:#000080"/>
      </g>
      <path d="m213.82 73.489h-29.249l20.172-22.378v33.913" style="fill:none;stroke-linecap:round;stroke-linejoin:round;stroke-width:3.2157;stroke:#000080"/>
      <path d="m273.36 57.386 11.5-6.3294v34.094" style="fill:none;stroke-linecap:round;stroke-linejoin:round;stroke-width:3.2157;stroke:#000080"/>
      <path d="m291.17 57.386 11.5-6.3294v34.094" style="fill:none;stroke-linecap:round;stroke-linejoin:round;stroke-width:3.2157;stroke:#000080"/>
     </g>
    </g>
   </g>
   <text x="350.61093" y="295.62564" style="fill:#000000;font-family:'Arial Nova', 'Arial Unicode MS', 'Yu Gothic UI', sans-serif;font-size:12.8px;letter-spacing:0px;line-height:0%;stroke-width:1.0667;stroke:#008000;word-spacing:0px" xml:space="preserve"><tspan x="350.61093" y="295.62564" style="font-family:'Arial Nova', 'Arial Unicode MS', 'Yu Gothic UI', sans-serif;font-size:10.667px;line-height:1.25;stroke-width:1.0667">1</tspan></text>
   <path d="m388.84 412.71 6.2254-5.147 6.9023 14.13 6.2932-3.0742-6.9023-14.13 7.4286-1.523-19.542-14.716z" style="fill:#fff;stroke-linecap:round;stroke-linejoin:round;stroke-width:.75591;stroke:#000"/>
   <text x="389.41516" y="375.55316" style="fill:#000000;font-family:'Arial Nova', 'Arial Unicode MS', 'Yu Gothic UI', sans-serif;font-size:12.8px;letter-spacing:0px;line-height:0%;stroke-width:1.0667;stroke:#008000;word-spacing:0px" xml:space="preserve"><tspan x="389.41516" y="375.55316" style="font-family:'Arial Nova', 'Arial Unicode MS', 'Yu Gothic UI', sans-serif;font-size:10.667px;line-height:1.25;stroke-width:1.0667">1</tspan></text>
   <text x="652.44336" y="401.94931" style="fill:#000000;font-family:'Arial Nova', 'Arial Unicode MS', 'Yu Gothic UI', sans-serif;font-size:12.8px;letter-spacing:0px;line-height:0%;stroke-width:1.0667;stroke:#008000;word-spacing:0px" xml:space="preserve"><tspan x="652.44336" y="401.94931" style="font-family:'Arial Nova', 'Arial Unicode MS', 'Yu Gothic UI', sans-serif;font-size:10.667px;line-height:1.25;stroke-width:1.0667">2</tspan></text>
   <g transform="translate(239.69 335.99)">
    <ellipse cx="122.72" cy="48.983" rx="13.199" ry="13.469" style="fill:#1f638a;stroke-linecap:round;stroke-linejoin:round;stroke-width:1.0658"/>
    <text x="116.87816" y="56.649761" style="fill:#000000;font-family:'Arial Nova', 'Arial Unicode MS', 'Yu Gothic UI', sans-serif;font-size:12.8px;letter-spacing:0px;line-height:0%;stroke-width:1.0667;word-spacing:0px" xml:space="preserve"><tspan x="116.87816" y="56.649761" style="fill:#ffffff;font-family:'Arial Nova', 'Arial Unicode MS', 'Yu Gothic UI', sans-serif;font-size:21.333px;font-weight:bold;line-height:1.25;stroke-width:1.0667">1</tspan></text>
   </g>
   <g transform="translate(131.99 -61.852)">
    <ellipse cx="230.42" cy="311.21" rx="13.199" ry="13.469" style="fill:#1f638a;stroke-linecap:round;stroke-linejoin:round;stroke-width:1.0658"/>
    <text x="224.84752" y="318.87271" style="fill:#000000;font-family:'Arial Nova', 'Arial Unicode MS', 'Yu Gothic UI', sans-serif;font-size:12.8px;letter-spacing:0px;line-height:0%;stroke-width:1.0667;word-spacing:0px" xml:space="preserve"><tspan x="224.84752" y="318.87271" style="fill:#ffffff;font-family:'Arial Nova', 'Arial Unicode MS', 'Yu Gothic UI', sans-serif;font-size:21.333px;font-weight:bold;line-height:1.25;stroke-width:1.0667">2</tspan></text>
   </g>
   <ellipse transform="rotate(-2)" cx="345.43" cy="320.09" rx="4.0406" ry="3.7795" style="fill:#008000;stroke-linecap:round;stroke-linejoin:round;stroke-width:3.7837;stroke:#008000"/>
   <path transform="rotate(-14.784)" d="m137.74 139.96a279.85 279.85 0 0 1 353.86 81.882" style="color:#000000;fill:none;stroke-dasharray:1.51181101, 1.51181101;stroke-linecap:round;stroke-linejoin:round;stroke-width:.75591;stroke:#b3b3b3"/>
   <path d="m131.56 122.59 12.414-13.922m-7.9581-7.1045 16.677 14.969m-29.261-1.0824 16.846 15.004" style="fill:none;stroke-linejoin:round;stroke-width:2.1333;stroke:#000080"/>
   <g transform="rotate(-14.784 -5.9411 2222.4)">
    <path d="m572.04 344.13-4.7983 10.99m5.727 6.5009-16.871-17.955 24.611 0.77392" style="fill:none;stroke-linejoin:round;stroke-width:2.1333;stroke:#000080"/>
    <path d="m566.23 332.37-0.46435-8.6679 19.735 10.525" style="fill:none;stroke-linejoin:round;stroke-width:2.1333;stroke:#000080"/>
    <path d="m591 309.61-8.9774 14.859-6.5009-18.342 19.116 11.609" style="fill:none;stroke-linejoin:round;stroke-width:2.1333;stroke:#000080"/>
    <path d="m601.91 293.36-10.525 15.788-5.1852-19.425 18.187 12.847" style="fill:none;stroke-linejoin:round;stroke-width:2.1333;stroke:#000080"/>
    <path d="m599.82 271.85 12.228-13.776 8.0487 24.843" style="fill:none;stroke-linejoin:round;stroke-width:2.1333;stroke:#000080"/>
    <path d="m617.08 259.15 1.7026-8.2035 15.865 15.788" style="fill:none;stroke-linejoin:round;stroke-width:2.1333;stroke:#000080"/>
    <path d="m626.29 249.63 2.167-8.2035 15.014 16.562" style="fill:none;stroke-linejoin:round;stroke-width:2.1333;stroke:#000080"/>
    <path d="m643.32 245.74 13.772-11.939" style="fill:none;stroke-linejoin:round;stroke-width:2.1333;stroke:#000080"/>
    <path d="m568.37 374.43a279.85 279.85 0 0 1 134.94-158.46" style="color:#000000;fill:none;stroke-dasharray:1.51181105, 1.51181105;stroke-linecap:round;stroke-linejoin:round;stroke-width:.75591;stroke:#008000"/>
    <path d="m833.93 464.24-265.3-90.084" style="fill:none;stroke-dasharray:1.51181106, 1.51181106;stroke-linecap:round;stroke-linejoin:round;stroke-width:.75591;stroke:#008000"/>
    <path d="m702.98 215.35 130.95 249.2" style="fill:none;stroke-dasharray:1.51181106, 1.51181106;stroke-linecap:round;stroke-linejoin:round;stroke-width:.75591;stroke:#008000"/>
   </g>
   <rect x="72.821" y="284.09" width="10.319" height="10.319" style="fill:#008000;stroke-linecap:round;stroke-linejoin:round;stroke-width:.75591;stroke:#008000"/>
   <path d="m167.78 97.069 5.16 8.0979h-10.319z" style="fill:#008000;stroke-linecap:round;stroke-linejoin:round;stroke-width:.75591;stroke:#008000"/>
   <text x="165.48448" y="118.33511" style="fill:#000000;font-family:'Arial Nova', 'Arial Unicode MS', 'Yu Gothic UI', sans-serif;font-size:12.8px;letter-spacing:0px;line-height:0%;stroke-width:1.0667;stroke:#008000;word-spacing:0px" xml:space="preserve"><tspan x="165.48448" y="118.33511" style="font-family:'Arial Nova', 'Arial Unicode MS', 'Yu Gothic UI', sans-serif;font-size:10.667px;line-height:1.25;stroke-width:1.0667">3</tspan></text>
   <text x="81.183891" y="304.69229" style="fill:#000000;font-family:'Arial Nova', 'Arial Unicode MS', 'Yu Gothic UI', sans-serif;font-size:12.8px;letter-spacing:0px;line-height:0%;stroke-width:1.0667;stroke:#008000;word-spacing:0px" xml:space="preserve"><tspan x="81.183891" y="304.69229" style="font-family:'Arial Nova', 'Arial Unicode MS', 'Yu Gothic UI', sans-serif;font-size:10.667px;line-height:1.25;stroke-width:1.0667">2</tspan></text>
   <g transform="translate(-106.06 67.281)">
    <ellipse cx="138.08" cy="173.07" rx="13.199" ry="13.469" style="fill:#1f638a;stroke-linecap:round;stroke-linejoin:round;stroke-width:1.0658"/>
    <text x="132.20612" y="180.60753" style="fill:#000000;font-family:'Arial Nova', 'Arial Unicode MS', 'Yu Gothic UI', sans-serif;font-size:12.8px;letter-spacing:0px;line-height:0%;stroke-width:1.0667;word-spacing:0px" xml:space="preserve"><tspan x="132.20612" y="180.60753" style="fill:#ffffff;font-family:'Arial Nova', 'Arial Unicode MS', 'Yu Gothic UI', sans-serif;font-size:21.333px;font-weight:bold;line-height:1.25;stroke-width:1.0667">3</tspan></text>
   </g>
   <g transform="rotate(-73.693 172.29 64.105)">
    <g transform="rotate(4.3284 156.66 101.86)">
     <path d="m134.47 87.734c17.357 6.5343 31.795 16.404 44.372 28.403" style="fill:none;stroke-dasharray:2.26771658, 2.26771658;stroke-linecap:round;stroke-linejoin:round;stroke-width:.75591;stroke:#008000"/>
     <path d="m134.68 87.687 13.165 1.5073-3.6983 7.9432z" style="fill:#fff;stroke-dasharray:2.83464565, 2.83464565;stroke-linecap:round;stroke-linejoin:round;stroke-width:.94488;stroke:#008000"/>
     <path d="m178 115.37-12.401-4.6701 5.5224-6.8025z" style="fill:#fff;stroke-dasharray:2.83464565, 2.83464565;stroke-linecap:round;stroke-linejoin:round;stroke-width:.94488;stroke:#008000"/>
    </g>
   </g>
   <g transform="rotate(42.828 -72.483 42.413)">
    <path d="m274.7 80.463-12.647 3.9579 5.127 7.1053z" style="fill:none;stroke-linecap:round;stroke-linejoin:round;stroke-width:1.0658;stroke:#008000"/>
    <path d="m240.03 108.35 25.525-21.025" style="fill:none;stroke-dasharray:2.83464564, 2.83464564;stroke-linecap:round;stroke-linejoin:round;stroke-width:.94488;stroke:#008000"/>
    <path d="m230.22 116.94 12.266-5.0143-5.7101-6.6458z" style="fill:none;stroke-linecap:round;stroke-linejoin:round;stroke-width:1.0658;stroke:#008000"/>
   </g>
   <path d="m357.09 334.72 6.2254-5.147 6.9023 14.13 6.2932-3.0742-6.9023-14.13 7.4286-1.523-19.542-14.716z" style="fill:#fff;stroke-linecap:round;stroke-linejoin:round;stroke-width:.75591;stroke:#000"/>
   <ellipse transform="rotate(-2)" cx="493.24" cy="266.9" rx="4.0406" ry="3.7795" style="fill:#b3b3b3;stroke-linecap:round;stroke-linejoin:round;stroke-width:3.7837;stroke:#b3b3b3"/>
   <path d="m389.22 249.71h266.35" style="fill:#f00;stroke-dasharray:1.51181106, 1.51181106;stroke-linecap:round;stroke-linejoin:round;stroke-width:.75591;stroke:#b3b3b3"/>
   <g transform="matrix(.66104 0 0 .66342 355.83 191.86)" style="stroke-linecap:round;stroke-linejoin:round;stroke-width:3.0201;stroke:#b3b3b3">
    <g style="stroke-linecap:round;stroke-linejoin:round;stroke-width:3.0201;stroke:#b3b3b3">
     <path d="m95.204 85.511 14.442-34.232 14.263 34.232" style="fill:none;stroke-linecap:round;stroke-linejoin:round;stroke-width:3.2214;stroke:#b3b3b3"/>
     <path d="m100.11 73.744h18.854" style="fill:none;stroke-linecap:round;stroke-linejoin:round;stroke-width:3.2214;stroke:#b3b3b3"/>
    </g>
    <path d="m130.73 57.386 11.5-6.3294v34.094" style="fill:none;stroke-linecap:round;stroke-linejoin:round;stroke-width:3.2214;stroke:#b3b3b3"/>
    <path d="m177.85 73.489h-29.249l20.172-22.378v33.913" style="fill:none;stroke-linecap:round;stroke-linejoin:round;stroke-width:3.2214;stroke:#b3b3b3"/>
    <path d="m237.41 51.111h29.438l-20.865 34.418" style="fill:none;stroke-linecap:round;stroke-linejoin:round;stroke-width:3.2214;stroke:#b3b3b3"/>
    <path d="m327.19 70.652h28.744" style="fill:none;stroke-linecap:round;stroke-linejoin:round;stroke-width:3.2214;stroke:#b3b3b3"/>
    <g transform="translate(-17.067)" style="stroke-linecap:round;stroke-linejoin:round;stroke-width:3.0201;stroke:#b3b3b3">
     <path d="m397.53 51.048v33.976" style="fill:none;stroke-linecap:round;stroke-linejoin:round;stroke-width:3.2214;stroke:#b3b3b3"/>
     <path d="m425.77 51.111v33.976" style="fill:none;stroke-linecap:round;stroke-linejoin:round;stroke-width:3.2214;stroke:#b3b3b3"/>
     <path d="m397.53 67.437h28.303" style="fill:none;stroke-linecap:round;stroke-linejoin:round;stroke-width:3.2214;stroke:#b3b3b3"/>
    </g>
    <path d="m213.82 73.489h-29.249l20.172-22.378v33.913" style="fill:none;stroke-linecap:round;stroke-linejoin:round;stroke-width:3.2214;stroke:#b3b3b3"/>
    <path d="m273.36 57.386 11.5-6.3294v34.094" style="fill:none;stroke-linecap:round;stroke-linejoin:round;stroke-width:3.2214;stroke:#b3b3b3"/>
    <path d="m291.17 57.386 11.5-6.3294v34.094" style="fill:none;stroke-linecap:round;stroke-linejoin:round;stroke-width:3.2214;stroke:#b3b3b3"/>
   </g>
   <path d="m423.23 231.83 12.439-2.6494m-13.96 10.598 4.7876-24.608 13.736 20.836" style="fill:none;stroke-linecap:round;stroke-linejoin:round;stroke-width:2.1333;stroke:#000080"/>
   <path d="m441.58 217.1 6.6668-5.6581 3.5348 22.408" style="fill:none;stroke-linecap:round;stroke-linejoin:round;stroke-width:2.1333;stroke:#000080"/>
   <path d="m475.45 223.43-18.009 2.374 11.422-17.369 2.5311 23.084" style="fill:none;stroke-linecap:round;stroke-linejoin:round;stroke-width:2.1333;stroke:#000080"/>
   <path d="m495.25 221.8-19.236 1.5241 12.213-16.702 1.4554 23.243" style="fill:none;stroke-linecap:round;stroke-linejoin:round;stroke-width:2.1333;stroke:#000080"/>
   <path d="m510.18 205.74h19.173l-13.352 22.926" style="fill:none;stroke-linecap:round;stroke-linejoin:round;stroke-width:2.1333;stroke:#000080"/>
   <path d="m531.25 210.12 7.5933-4.3819-0.37967 22.926" style="fill:none;stroke-linecap:round;stroke-linejoin:round;stroke-width:2.1333;stroke:#000080"/>
   <path d="m544.92 210.25 7.4667-3.6833-1.2023 22.862" style="fill:none;stroke-linecap:round;stroke-linejoin:round;stroke-width:2.1333;stroke:#000080"/>
   <path d="m566.82 220.98 19.3 2.0322" style="fill:none;stroke-linecap:round;stroke-linejoin:round;stroke-width:2.1333;stroke:#000080"/>
   <path d="m598.64 222.82 19.047 3.6833m2.1514-10.796-4.4927 22.417m-14.427-26.037-4.4927 22.417" style="fill:none;stroke-linecap:round;stroke-linejoin:round;stroke-width:2.1333;stroke:#000080"/>
   <path d="m385.78 250c95.635-30.535 186.32-26.3 273.87 0" style="fill:none;stroke-dasharray:1.51181106, 1.51181106;stroke-linecap:round;stroke-linejoin:round;stroke-width:.75591;stroke:#008000"/>
   <path d="m425.83 197.67 10.757-6.8586m-9.6182 15.305-3.5436-25.148 19.996 14.86" style="fill:none;stroke-linecap:round;stroke-linejoin:round;stroke-width:2.1333;stroke:#b3b3b3"/>
   <path d="m439.38 176.65 4.6825-6.9221 9.7447 20.766" style="fill:none;stroke-linecap:round;stroke-linejoin:round;stroke-width:2.1333;stroke:#b3b3b3"/>
   <path d="m475.13 174.17-17.591 6.2871 6.7707-18.988 7.7831 21.909" style="fill:none;stroke-linecap:round;stroke-linejoin:round;stroke-width:2.1333;stroke:#b3b3b3"/>
   <path d="m494.3 169.66-18.54 4.3184 9.0487-18.099 5.1255 22.608" style="fill:none;stroke-linecap:round;stroke-linejoin:round;stroke-width:2.1333;stroke:#b3b3b3"/>
   <path d="m509.74 152.45 19.363-0.25403-13.098 23.18" style="fill:none;stroke-linecap:round;stroke-linejoin:round;stroke-width:2.1333;stroke:#b3b3b3"/>
   <path d="m532.52 156.84 7.4668-3.8103-1.7718 22.862" style="fill:none;stroke-linecap:round;stroke-linejoin:round;stroke-width:2.1333;stroke:#b3b3b3"/>
   <path d="m546.95 158.17 7.9097-3.3658-3.7334 22.735" style="fill:none;stroke-linecap:round;stroke-linejoin:round;stroke-width:2.1333;stroke:#b3b3b3"/>
   <path d="m568.27 171.32 18.54 5.779" style="fill:none;stroke-linecap:round;stroke-linejoin:round;stroke-width:2.1333;stroke:#b3b3b3"/>
   <path d="m600.54 180.91 16.579 9.7799m5.6317-9.4623-11.453 19.433m-5.252-29.213-11.58 19.75" style="fill:none;stroke-linecap:round;stroke-linejoin:round;stroke-width:2.1333;stroke:#b3b3b3"/>
   <path d="m385.78 250c78.851-114.26 225.51-83.425 273.36 0" style="fill:none;stroke-dasharray:1.51181106, 1.51181106;stroke-linecap:round;stroke-linejoin:round;stroke-width:.75591;stroke:#b3b3b3"/>
   <ellipse transform="rotate(-2)" cx="495.84" cy="194.3" rx="4.0406" ry="3.7795" style="fill:#b3b3b3;stroke-linecap:round;stroke-linejoin:round;stroke-width:3.7837;stroke:#b3b3b3"/>
   <ellipse transform="rotate(-2)" cx="647.14" cy="272.34" rx="4.0406" ry="3.7795" style="fill:#008000;stroke-linecap:round;stroke-linejoin:round;stroke-width:3.7837;stroke:#008000"/>
   <ellipse transform="rotate(-2)" cx="378.28" cy="262.62" rx="4.0406" ry="3.7795" style="fill:#008000;stroke-linecap:round;stroke-linejoin:round;stroke-width:3.7837;stroke:#008000"/>
   <ellipse transform="rotate(-2)" cx="493.93" cy="246.86" rx="4.0406" ry="3.7795" style="fill:#008000;stroke-linecap:round;stroke-linejoin:round;stroke-width:3.7837;stroke:#008000"/>
   <path d="m388.52 275.86 6.2254-5.147 6.9023 14.13 6.2932-3.0742-6.9023-14.13 7.4286-1.523-19.542-14.716z" style="fill:#fff;stroke-linecap:round;stroke-linejoin:round;stroke-width:.75591;stroke:#000"/>
   <text x="384.46588" y="240.03908" style="fill:#000000;font-family:'Arial Nova', 'Arial Unicode MS', 'Yu Gothic UI', sans-serif;font-size:12.8px;letter-spacing:0px;line-height:0%;stroke-width:1.0667;stroke:#008000;word-spacing:0px" xml:space="preserve"><tspan x="384.46588" y="240.03908" style="font-family:'Arial Nova', 'Arial Unicode MS', 'Yu Gothic UI', sans-serif;font-size:10.667px;line-height:1.25;stroke-width:1.0667">1</tspan></text>
   <text x="653.10321" y="267.09515" style="fill:#000000;font-family:'Arial Nova', 'Arial Unicode MS', 'Yu Gothic UI', sans-serif;font-size:12.8px;letter-spacing:0px;line-height:0%;stroke-width:1.0667;stroke:#008000;word-spacing:0px" xml:space="preserve"><tspan x="653.10321" y="267.09515" style="font-family:'Arial Nova', 'Arial Unicode MS', 'Yu Gothic UI', sans-serif;font-size:10.667px;line-height:1.25;stroke-width:1.0667">2</tspan></text>
   <text x="509.40353" y="241.09473" style="fill:#000000;font-family:'Arial Nova', 'Arial Unicode MS', 'Yu Gothic UI', sans-serif;font-size:12.8px;letter-spacing:0px;line-height:0%;stroke-width:1.0667;stroke:#008000;word-spacing:0px" xml:space="preserve"><tspan x="509.40353" y="241.09473" style="font-family:'Arial Nova', 'Arial Unicode MS', 'Yu Gothic UI', sans-serif;font-size:10.667px;line-height:1.25;stroke-width:1.0667">3</tspan></text>
   <path d="m502.46 187-4.3981 12.5 8.7607 0.14514z" style="fill:none;stroke-linecap:round;stroke-linejoin:round;stroke-width:1.0658;stroke:#008000"/>
   <path d="m502.12 261.98 0.22654-61.999" style="fill:none;stroke-dasharray:2.83464565, 2.83464565;stroke-linecap:round;stroke-linejoin:round;stroke-width:.94488;stroke:#008000"/>
   <path d="m502.42 274.64 4.015-12.629-8.7611 0.12204z" style="fill:none;stroke-linecap:round;stroke-linejoin:round;stroke-width:1.0658;stroke:#008000"/>
  </g>
 </g>
</svg>
