<?xml version="1.0" encoding="UTF-8"?>
<svg width="18cm" height="4.5cm" version="1.1" xmlns="http://www.w3.org/2000/svg"><text x="27.545322" y="73.364929" style="fill:#000000;font-family:'Arial Nova', 'Arial Unicode MS', 'Yu Gothic UI', sans-serif;font-size:12.8px;letter-spacing:0px;line-height:0%;stroke-width:1.0667;word-spacing:0px" xml:space="preserve"><tspan x="27.545322" y="73.364929" style="fill:#ff0000;font-family:'Arial Nova', 'Arial Unicode MS', 'Yu Gothic UI', sans-serif;stroke-width:1.0667;stroke:#ff0000">1</tspan></text><text x="55.72007" y="99.376373" style="fill:#000000;font-family:'Arial Nova', 'Arial Unicode MS', 'Yu Gothic UI', sans-serif;font-size:12.8px;letter-spacing:0px;line-height:0%;stroke-width:1.0667;word-spacing:0px" xml:space="preserve"><tspan x="55.72007" y="99.376373" style="fill:#ff0000;font-family:'Arial Nova', 'Arial Unicode MS', 'Yu Gothic UI', sans-serif;stroke-width:1.0667;stroke:#ff0000">2</tspan></text><text x="82.627235" y="141.90851" style="fill:#000000;font-family:'Arial Nova', 'Arial Unicode MS', 'Yu Gothic UI', sans-serif;font-size:12.8px;letter-spacing:0px;line-height:0%;stroke-width:1.0667;word-spacing:0px" xml:space="preserve"><tspan x="82.627235" y="141.90851" style="fill:#ff0000;font-family:'Arial Nova', 'Arial Unicode MS', 'Yu Gothic UI', sans-serif;stroke-width:1.0667;stroke:#ff0000">3</tspan></text><path d="m233.34 52.761 28.206-10.386c50.962 17.02 70.957 51.293 78.64 92.425l-28.113 10.378c-3.0165-32.199-26.591-78.351-78.734-92.417z" style="fill-opacity:.098039;fill:#f00;stroke-dasharray:2.0296063, 2.0296063;stroke-linecap:round;stroke-linejoin:round;stroke-width:.67654;stroke:#f00"/><path d="m288.26 32.348c17.023 4.2071 37.654 16.54 52.688 34.969" style="fill:none;stroke-linecap:round;stroke-linejoin:round;stroke-width:3.7795;stroke:#000"/><path d="m343.76 69.829c9.1616 11.23 16.245 24.723 19.168 40.019" style="fill:none;stroke-linecap:round;stroke-linejoin:round;stroke-width:3.7795;stroke:#000"/><path d="m364.13 113.21c0.72011 3.7693 1.1876 7.6481 1.3713 11.63" style="fill:none;stroke-linecap:round;stroke-linejoin:round;stroke-width:3.7795;stroke:#000"/><path d="m248.66 47.621c49.265 14.125 76.47 57.621 77.785 92.257" style="fill:none;stroke-dasharray:2.0296063, 2.0296063;stroke-linecap:round;stroke-linejoin:round;stroke-width:.67654;stroke:#f00"/><path d="m287.87 86.239 26.777-10.4" style="fill:none;stroke-dasharray:2.0296063, 2.0296063;stroke-linecap:round;stroke-linejoin:round;stroke-width:.67654;stroke:#f00"/><path d="m234.49 52.433c12.111 2.8574 24.304 9.2385 35.172 17.938" style="fill:none;stroke-linecap:round;stroke-linejoin:round;stroke-width:3.7795;stroke:#a00"/><path d="m261.48 42.182c16.17 3.815 32.485 13.911 45.599 27.421" style="fill:none;stroke-linecap:round;stroke-linejoin:round;stroke-width:3.7795;stroke:#a00"/><path d="m315.04 22.724c18.664 4.2663 39.195 17.291 53.757 35.577" style="fill:none;stroke-linecap:round;stroke-linejoin:round;stroke-width:3.7795;stroke:#000"/><path d="m341.82 12.263c12.238 2.8872 24.338 9.6654 35.078 18.791" style="fill:none;stroke-linecap:round;stroke-linejoin:round;stroke-width:3.7795;stroke:#000"/><path d="m379.71 33.564c21.157 18.76 37.147 46.814 39.018 72.388" style="fill:none;stroke-linecap:round;stroke-linejoin:round;stroke-width:3.7795;stroke:#000"/><path d="m371.61 60.809c9.6293 12.092 16.649 26.485 18.794 42.169" style="fill:none;stroke-linecap:round;stroke-linejoin:round;stroke-width:3.7795;stroke:#000"/><path d="m391.6 106.34c0.39861 2.9146 0.62885 5.8737 0.6762 8.8709" style="fill:none;stroke-linecap:round;stroke-linejoin:round;stroke-width:3.7795;stroke:#000"/><path d="m309.9 72.109c9.8177 10.114 17.842 22.141 22.669 34.877" style="fill:none;stroke-linecap:round;stroke-linejoin:round;stroke-width:3.7795;stroke:#f00"/><path d="m333.76 110.35c3.0045 7.9279 4.7704 16.131 4.959 24.318" style="fill:none;stroke-linecap:round;stroke-linejoin:round;stroke-width:3.7795;stroke:#800000"/><path d="m272.48 72.879c14.449 11.567 26.558 27.232 33.022 44.165" style="fill:none;stroke-linecap:round;stroke-linejoin:round;stroke-width:3.7795;stroke:#f00"/><path d="m306.7 120.41c3.0498 7.9885 4.8432 16.259 5.0334 24.514" style="fill:none;stroke-linecap:round;stroke-linejoin:round;stroke-width:3.7795;stroke:#800000"/><path d="m448.72 52.797 56.973-21.234c53.872 22.085 70.337 56.354 77.851 93.439l-56.334 21.048c-0.37405-32.491-26.318-79.06-78.491-93.253z" style="fill-opacity:.098039;fill:#f00;stroke-dasharray:2.0296063, 2.0296063;stroke-linecap:round;stroke-linejoin:round;stroke-width:.67654;stroke:#f00"/><path d="m508.56 34.464c46.41 13.306 72.038 54.282 73.277 86.91" style="fill:none;stroke-dasharray:3.19748039, 3.19748039;stroke-linecap:round;stroke-linejoin:round;stroke-width:1.0658;stroke:#f00"/><path d="m504.3 85.929 51.973-20.392" style="fill:none;stroke-dasharray:2.0296063, 2.0296063;stroke-linecap:round;stroke-linejoin:round;stroke-width:.67654;stroke:#f00"/><path d="m451.07 52.587c12.111 2.8574 24.304 9.2386 35.172 17.938" style="fill:none;stroke-linecap:round;stroke-linejoin:round;stroke-width:3.7795;stroke:#a00"/><path d="m478.06 42.335c16.17 3.815 32.485 13.911 45.599 27.421" style="fill:none;stroke-linecap:round;stroke-linejoin:round;stroke-width:3.7795;stroke:#a00"/><path d="m504.84 32.502c17.023 4.2071 37.654 16.54 52.688 34.969" style="fill:none;stroke-linecap:round;stroke-linejoin:round;stroke-width:3.7795;stroke:#a00"/><path d="m531.62 22.878c18.664 4.2663 39.195 17.291 53.757 35.577" style="fill:none;stroke-linecap:round;stroke-linejoin:round;stroke-width:3.7795;stroke:#000"/><path d="m558.4 12.417c12.238 2.8872 24.338 9.6654 35.078 18.791" style="fill:none;stroke-linecap:round;stroke-linejoin:round;stroke-width:3.7795;stroke:#000"/><path d="m596.45 33.564c21.157 19.041 37.147 47.517 39.018 73.474" style="fill:none;stroke-linecap:round;stroke-linejoin:round;stroke-width:3.7795;stroke:#000"/><path d="m588.35 60.809c9.6293 12.092 16.649 26.485 18.794 42.169" style="fill:none;stroke-linecap:round;stroke-linejoin:round;stroke-width:3.7795;stroke:#000"/><path d="m608.34 106.34c0.39861 2.9146 0.62885 5.8737 0.6762 8.8709" style="fill:none;stroke-linecap:round;stroke-linejoin:round;stroke-width:3.7795;stroke:#000"/><path d="m560.5 69.829c9.1616 11.23 16.245 24.723 19.168 40.019" style="fill:none;stroke-linecap:round;stroke-linejoin:round;stroke-width:3.7795;stroke:#f00"/><path d="m580.86 113.21c0.72012 3.7693 1.1876 7.6481 1.3713 11.63" style="fill:none;stroke-linecap:round;stroke-linejoin:round;stroke-width:3.7795;stroke:#800000"/><path d="m526.63 72.109c9.8178 10.114 17.842 22.141 22.669 34.877" style="fill:none;stroke-linecap:round;stroke-linejoin:round;stroke-width:3.7795;stroke:#f00"/><path d="m550.49 110.35c3.0045 7.9279 4.7704 16.131 4.959 24.318" style="fill:none;stroke-linecap:round;stroke-linejoin:round;stroke-width:3.7795;stroke:#800000"/><path d="m489.21 72.879c14.449 11.567 26.558 27.232 33.022 44.165" style="fill:none;stroke-linecap:round;stroke-linejoin:round;stroke-width:3.7795;stroke:#f00"/><path d="m523.43 120.41c3.0498 7.9885 4.8432 16.259 5.0334 24.514" style="fill:none;stroke-linecap:round;stroke-linejoin:round;stroke-width:3.7795;stroke:#800000"/><path d="m18.069 54.573c12.111 2.8574 24.304 9.2385 35.172 17.938" style="fill:none;stroke-linecap:round;stroke-linejoin:round;stroke-width:3.7795;stroke:#a00"/><path d="m45.059 44.321c16.17 3.815 32.485 13.911 45.599 27.421" style="fill:none;stroke-linecap:round;stroke-linejoin:round;stroke-width:3.7795;stroke:#000"/><path d="m71.839 34.488c17.023 4.2071 37.654 16.54 52.688 34.969" style="fill:none;stroke-linecap:round;stroke-linejoin:round;stroke-width:3.7795;stroke:#000"/><path d="m98.62 24.863c18.664 4.2663 39.195 17.291 53.757 35.577" style="fill:none;stroke-linecap:round;stroke-linejoin:round;stroke-width:3.7795;stroke:#000"/><path d="m125.4 14.402c12.238 2.8872 24.338 9.6654 35.078 18.791" style="fill:none;stroke-linecap:round;stroke-linejoin:round;stroke-width:3.7795;stroke:#000"/><path d="m162.98 36.022c21.157 18.76 37.147 46.814 39.018 72.388" style="fill:none;stroke-linecap:round;stroke-linejoin:round;stroke-width:3.7795;stroke:#000"/><path d="m154.88 63.269c9.6293 12.092 16.649 26.485 18.794 42.169" style="fill:none;stroke-linecap:round;stroke-linejoin:round;stroke-width:3.7795;stroke:#000"/><path d="m174.69 108.87c0.39861 2.9146 0.62885 5.8737 0.6762 8.8709" style="fill:none;stroke-linecap:round;stroke-linejoin:round;stroke-width:3.7795;stroke:#000"/><path d="m127.03 72.289c9.1616 11.23 16.245 24.723 19.168 40.019" style="fill:none;stroke-linecap:round;stroke-linejoin:round;stroke-width:3.7795;stroke:#000"/><path d="m147.21 115.74c0.72012 3.7693 1.1876 7.6481 1.3713 11.63" style="fill:none;stroke-linecap:round;stroke-linejoin:round;stroke-width:3.7795;stroke:#000"/><path d="m93.161 74.569c9.8178 10.114 17.842 22.141 22.669 34.877" style="fill:none;stroke-linecap:round;stroke-linejoin:round;stroke-width:3.7795;stroke:#000"/><path d="m116.84 112.88c3.0045 7.9279 4.7704 16.131 4.959 24.318" style="fill:none;stroke-linecap:round;stroke-linejoin:round;stroke-width:3.7795;stroke:#000"/><path d="m55.744 75.339c14.449 11.567 26.558 27.232 33.022 44.165" style="fill:none;stroke-linecap:round;stroke-linejoin:round;stroke-width:3.7795;stroke:#f00"/><path d="m64.154 107.03 6.2254-5.1469 6.9023 14.13 6.2932-3.0742-6.9023-14.13 7.4286-1.523-19.542-14.716z" style="fill:#fff;stroke-linecap:round;stroke-linejoin:round;stroke-width:.75591;stroke:#000"/><g transform="translate(-890.7 -183.26)" style="stroke-dasharray:0.99921262, 1.99842525;stroke-dashoffset:3.6971;stroke-width:.99921"><ellipse cx="988.73" cy="286.32" rx="13.199" ry="13.469" style="fill:#1f638a;stroke-dasharray:1.06582679, 2.1316536;stroke-dashoffset:3.6971;stroke-linecap:round;stroke-linejoin:round;stroke-width:1.0658"/><text x="982.88611" y="293.98578" style="fill:#000000;font-family:'Arial Nova', 'Arial Unicode MS', 'Yu Gothic UI', sans-serif;font-size:12.8px;letter-spacing:0px;line-height:0%;stroke-width:1.0658;word-spacing:0px" xml:space="preserve"><tspan x="982.88611" y="293.98578" style="fill:#ffffff;font-family:'Arial Nova', 'Arial Unicode MS', 'Yu Gothic UI', sans-serif;font-size:21.333px;font-weight:bold;stroke-width:1.0658">1</tspan></text></g><path d="m89.781 122.94c3.0498 7.9886 4.8432 16.259 5.0335 24.514" style="fill:none;stroke-linecap:round;stroke-linejoin:round;stroke-width:3.7795;stroke:#800000"/><path d="m299.15 87.319 6.2254-5.1469 6.9023 14.13 6.2932-3.0742-6.9023-14.13 7.4286-1.523-19.542-14.716z" style="fill:#fff;stroke-linecap:round;stroke-linejoin:round;stroke-width:.75591;stroke:#000"/><g transform="translate(-655.7 -202.97)" style="stroke-dasharray:0.99921262, 1.99842525;stroke-dashoffset:3.6971;stroke-width:.99921"><ellipse cx="988.73" cy="286.32" rx="13.199" ry="13.469" style="fill:#1f638a;stroke-dasharray:1.06582679, 2.1316536;stroke-dashoffset:3.6971;stroke-linecap:round;stroke-linejoin:round;stroke-width:1.0658"/><text x="982.88611" y="293.98578" style="fill:#000000;font-family:'Arial Nova', 'Arial Unicode MS', 'Yu Gothic UI', sans-serif;font-size:12.8px;letter-spacing:0px;line-height:0%;stroke-width:1.0658;word-spacing:0px" xml:space="preserve"><tspan x="982.88611" y="293.98578" style="fill:#ffffff;font-family:'Arial Nova', 'Arial Unicode MS', 'Yu Gothic UI', sans-serif;font-size:21.333px;font-weight:bold;stroke-width:1.0658">1</tspan></text></g><path d="m542.11 77.489 6.2254-5.147 6.9023 14.13 6.2932-3.0742-6.9023-14.13 7.4286-1.523-19.542-14.716z" style="fill:#fff;stroke-linecap:round;stroke-linejoin:round;stroke-width:.75591;stroke:#000"/><g transform="translate(-412.75 -212.8)" style="stroke-dasharray:0.99921262, 1.99842525;stroke-dashoffset:3.6971;stroke-width:.99921"><ellipse cx="988.73" cy="286.32" rx="13.199" ry="13.469" style="fill:#1f638a;stroke-dasharray:1.06582679, 2.1316536;stroke-dashoffset:3.6971;stroke-linecap:round;stroke-linejoin:round;stroke-width:1.0658"/><text x="982.88611" y="293.98578" style="fill:#000000;font-family:'Arial Nova', 'Arial Unicode MS', 'Yu Gothic UI', sans-serif;font-size:12.8px;letter-spacing:0px;line-height:0%;stroke-width:1.0658;word-spacing:0px" xml:space="preserve"><tspan x="982.88611" y="293.98578" style="fill:#ffffff;font-family:'Arial Nova', 'Arial Unicode MS', 'Yu Gothic UI', sans-serif;font-size:21.333px;font-weight:bold;stroke-width:1.0658">1</tspan></text></g><text x="273.76678" y="58.961853" style="fill:#000000;font-family:'Arial Nova', 'Arial Unicode MS', 'Yu Gothic UI', sans-serif;font-size:12.8px;letter-spacing:0px;line-height:0%;stroke-width:1.0667;word-spacing:0px" xml:space="preserve"><tspan x="273.76678" y="58.961853" style="fill:#ff0000;font-family:'Arial Nova', 'Arial Unicode MS', 'Yu Gothic UI', sans-serif;stroke-width:1.0667;stroke:#ff0000">1</tspan></text><text x="320.18658" y="107.56235" style="fill:#000000;font-family:'Arial Nova', 'Arial Unicode MS', 'Yu Gothic UI', sans-serif;font-size:12.8px;letter-spacing:0px;line-height:0%;stroke-width:1.0667;word-spacing:0px" xml:space="preserve"><tspan x="320.18658" y="107.56235" style="fill:#ff0000;font-family:'Arial Nova', 'Arial Unicode MS', 'Yu Gothic UI', sans-serif;stroke-width:1.0667;stroke:#ff0000">2</tspan></text><text x="328.41428" y="128.80859" style="fill:#000000;font-family:'Arial Nova', 'Arial Unicode MS', 'Yu Gothic UI', sans-serif;font-size:12.8px;letter-spacing:0px;line-height:0%;stroke-width:1.0667;word-spacing:0px" xml:space="preserve"><tspan x="328.41428" y="128.80859" style="fill:#ff0000;font-family:'Arial Nova', 'Arial Unicode MS', 'Yu Gothic UI', sans-serif;stroke-width:1.0667;stroke:#ff0000">3</tspan></text><text x="521.97589" y="52.44574" style="fill:#000000;font-family:'Arial Nova', 'Arial Unicode MS', 'Yu Gothic UI', sans-serif;font-size:12.8px;letter-spacing:0px;line-height:0%;stroke-width:1.0667;word-spacing:0px" xml:space="preserve"><tspan x="521.97589" y="52.44574" style="fill:#ff0000;font-family:'Arial Nova', 'Arial Unicode MS', 'Yu Gothic UI', sans-serif;stroke-width:1.0667;stroke:#ff0000">1</tspan></text><text x="564.0517" y="100.61188" style="fill:#000000;font-family:'Arial Nova', 'Arial Unicode MS', 'Yu Gothic UI', sans-serif;font-size:12.8px;letter-spacing:0px;line-height:0%;stroke-width:1.0667;word-spacing:0px" xml:space="preserve"><tspan x="564.0517" y="100.61188" style="fill:#ff0000;font-family:'Arial Nova', 'Arial Unicode MS', 'Yu Gothic UI', sans-serif;stroke-width:1.0667;stroke:#ff0000">2</tspan></text><text x="570.9762" y="123.59573" style="fill:#000000;font-family:'Arial Nova', 'Arial Unicode MS', 'Yu Gothic UI', sans-serif;font-size:12.8px;letter-spacing:0px;line-height:0%;stroke-width:1.0667;word-spacing:0px" xml:space="preserve"><tspan x="570.9762" y="123.59573" style="fill:#ff0000;font-family:'Arial Nova', 'Arial Unicode MS', 'Yu Gothic UI', sans-serif;stroke-width:1.0667;stroke:#ff0000">3</tspan></text><text x="97.679642" y="161.03406" style="fill:#000000;font-family:'Arial Nova', 'Arial Unicode MS', 'Yu Gothic UI', sans-serif;font-size:12.8px;letter-spacing:0px;line-height:0%;stroke-width:1.0667;word-spacing:0px" xml:space="preserve"><tspan x="97.679642" y="161.03406" style="fill:#ff0000;font-family:'Arial Nova', 'Arial Unicode MS', 'Yu Gothic UI', sans-serif;stroke-width:1.0667;stroke:#ff0000">A</tspan></text><text x="313.65961" y="158.02713" style="fill:#000000;font-family:'Arial Nova', 'Arial Unicode MS', 'Yu Gothic UI', sans-serif;font-size:12.8px;letter-spacing:0px;line-height:0%;stroke-width:1.0667;word-spacing:0px" xml:space="preserve"><tspan x="313.65961" y="158.02713" style="fill:#ff0000;font-family:'Arial Nova', 'Arial Unicode MS', 'Yu Gothic UI', sans-serif;stroke-width:1.0667;stroke:#ff0000">A</tspan></text><text x="339.2204" y="149.27173" style="fill:#000000;font-family:'Arial Nova', 'Arial Unicode MS', 'Yu Gothic UI', sans-serif;font-size:12.8px;letter-spacing:0px;line-height:0%;stroke-width:1.0667;word-spacing:0px" xml:space="preserve"><tspan x="339.2204" y="149.27173" style="fill:#ff0000;font-family:'Arial Nova', 'Arial Unicode MS', 'Yu Gothic UI', sans-serif;stroke-width:1.0667;stroke:#ff0000">B</tspan></text><text x="530.27191" y="159.79337" style="fill:#000000;font-family:'Arial Nova', 'Arial Unicode MS', 'Yu Gothic UI', sans-serif;font-size:12.8px;letter-spacing:0px;line-height:0%;stroke-width:1.0667;word-spacing:0px" xml:space="preserve"><tspan x="530.27191" y="159.79337" style="fill:#ff0000;font-family:'Arial Nova', 'Arial Unicode MS', 'Yu Gothic UI', sans-serif;stroke-width:1.0667;stroke:#ff0000">A</tspan></text><text x="557.90613" y="150.03967" style="fill:#000000;font-family:'Arial Nova', 'Arial Unicode MS', 'Yu Gothic UI', sans-serif;font-size:12.8px;letter-spacing:0px;line-height:0%;stroke-width:1.0667;word-spacing:0px" xml:space="preserve"><tspan x="557.90613" y="150.03967" style="fill:#ff0000;font-family:'Arial Nova', 'Arial Unicode MS', 'Yu Gothic UI', sans-serif;stroke-width:1.0667;stroke:#ff0000">B</tspan></text><text x="581.53009" y="140.55823" style="fill:#000000;font-family:'Arial Nova', 'Arial Unicode MS', 'Yu Gothic UI', sans-serif;font-size:12.8px;letter-spacing:0px;line-height:0%;stroke-width:1.0667;word-spacing:0px" xml:space="preserve"><tspan x="581.53009" y="140.55823" style="fill:#ff0000;font-family:'Arial Nova', 'Arial Unicode MS', 'Yu Gothic UI', sans-serif;stroke-width:1.0667;stroke:#ff0000">C</tspan></text><g transform="matrix(.2917 0 0 .28875 168.2 73.069)" style="fill:#1f638a;stroke-linecap:round;stroke-linejoin:round;stroke-width:1.2209;stroke:#1f638a"><path d="m207.49 126.25 34.17 21.614-34.17 21.614z" style="fill:#1f638a;stroke-linecap:round;stroke-linejoin:round;stroke-width:1.3023;stroke:#1f638a"/><rect x="172.19" y="137.99" width="39.213" height="19.761" style="fill:#1f638a;stroke-linecap:round;stroke-linejoin:round;stroke-width:1.3023;stroke:#1f638a"/></g><g transform="matrix(.2917 0 0 .28875 393.4 73.069)" style="fill:#1f638a;stroke-linecap:round;stroke-linejoin:round;stroke-width:1.2209;stroke:#1f638a"><path d="m207.49 126.25 34.17 21.614-34.17 21.614z" style="fill:#1f638a;stroke-linecap:round;stroke-linejoin:round;stroke-width:1.3023;stroke:#1f638a"/><rect x="172.19" y="137.99" width="39.213" height="19.761" style="fill:#1f638a;stroke-linecap:round;stroke-linejoin:round;stroke-width:1.3023;stroke:#1f638a"/></g><g transform="matrix(.2917 0 0 .28875 597.4 73.069)" style="fill:#1f638a;stroke-linecap:round;stroke-linejoin:round;stroke-width:1.2209;stroke:#1f638a"><path d="m207.49 126.25 34.17 21.614-34.17 21.614z" style="fill:#1f638a;stroke-linecap:round;stroke-linejoin:round;stroke-width:1.3023;stroke:#1f638a"/><rect x="172.19" y="137.99" width="39.213" height="19.761" style="fill:#1f638a;stroke-linecap:round;stroke-linejoin:round;stroke-width:1.3023;stroke:#1f638a"/></g></svg>
