<?xml version="1.0" encoding="UTF-8"?>
<svg width="18cm" height="5.5cm" version="1.1" xmlns="http://www.w3.org/2000/svg" xmlns:osb="http://www.openswatchbook.org/uri/2009/osb">
 <g transform="translate(0 -245.67)">
  <ellipse cx="222.37" cy="318.19" rx="13.199" ry="13.469" style="fill:#1f638a;stroke-linecap:round;stroke-linejoin:round;stroke-width:1.0658"/>
  <text x="216.79601" y="325.85834" style="fill:#000000;font-family:'Arial Nova', 'Arial Unicode MS', 'Yu Gothic UI', sans-serif;font-size:12.8px;letter-spacing:0px;line-height:0%;stroke-width:1.0667;word-spacing:0px" xml:space="preserve"><tspan x="216.79601" y="325.85834" style="fill:#ffffff;font-family:'Arial Nova', 'Arial Unicode MS', 'Yu Gothic UI', sans-serif;font-size:21.333px;font-weight:bold;stroke-width:1.0667">2</tspan></text>
  <ellipse cx="340.44" cy="380.98" rx="13.199" ry="13.469" style="fill:#1f638a;stroke-linecap:round;stroke-linejoin:round;stroke-width:1.0658"/>
  <text x="334.86557" y="388.64819" style="fill:#000000;font-family:'Arial Nova', 'Arial Unicode MS', 'Yu Gothic UI', sans-serif;font-size:12.8px;letter-spacing:0px;line-height:0%;stroke-width:1.0667;word-spacing:0px" xml:space="preserve"><tspan x="334.86557" y="388.64819" style="fill:#ffffff;font-family:'Arial Nova', 'Arial Unicode MS', 'Yu Gothic UI', sans-serif;font-size:21.333px;font-weight:bold;stroke-width:1.0667">1</tspan></text>
  <path d="m439.41 329.23c43.008-0.2131 86.841 4.2957 131.45 13.222" style="fill:none;stroke-linecap:round;stroke-linejoin:round;stroke-width:.94488;stroke:#f00"/>
  <path d="m233.22 370.59c66.304-27.575 135.11-40.878 206.16-41.285" style="fill:none;stroke-linecap:round;stroke-linejoin:round;stroke-width:3.7795;stroke:#f00"/>
  <path d="m342.05 363.71 6.2254-5.147 6.9023 14.13 6.2932-3.0742-6.9023-14.13 7.4286-1.523-19.542-14.716z" style="fill:#fff;stroke-linecap:round;stroke-linejoin:round;stroke-width:.75591;stroke:#000"/>
  <ellipse transform="rotate(-2)" cx="557.29" cy="362.64" rx="4.0406" ry="3.7795" style="fill:#008000;stroke-linecap:round;stroke-linejoin:round;stroke-width:3.7837;stroke:#008000"/>
  <path d="m231.11 371.58c-39.732 16.464-78.397 37.6-116.06 63.109" style="fill:none;stroke-linecap:round;stroke-linejoin:round;stroke-width:.94488;stroke:#f00"/>
  <ellipse transform="rotate(-2)" cx="95.382" cy="440.91" rx="4.0406" ry="3.7795" style="fill:#008000;stroke-linecap:round;stroke-linejoin:round;stroke-width:3.7837;stroke:#008000"/>
  <text x="223.86865" y="348.42035" style="fill:#000000;font-family:'Arial Nova', 'Arial Unicode MS', 'Yu Gothic UI', sans-serif;font-size:12.8px;letter-spacing:0px;line-height:0%;stroke-width:1.0667;stroke:#008000;word-spacing:0px" xml:space="preserve"><tspan x="223.86865" y="348.42035" style="font-family:'Arial Nova', 'Arial Unicode MS', 'Yu Gothic UI', sans-serif;stroke-width:1.0667">0</tspan></text>
  <text x="434.90173" y="299.7002" style="fill:#000000;font-family:'Arial Nova', 'Arial Unicode MS', 'Yu Gothic UI', sans-serif;font-size:12.8px;letter-spacing:0px;line-height:0%;stroke-width:1.0667;stroke:#008000;word-spacing:0px" xml:space="preserve"><tspan x="434.90173" y="299.7002" style="font-family:'Arial Nova', 'Arial Unicode MS', 'Yu Gothic UI', sans-serif;stroke-width:1.0667">1</tspan></text>
  <g transform="rotate(-10.694 1899 -509.14)">
   <path d="m48.244 43.8c30.375-12.632 61.893-18.727 94.446-18.913" style="fill:none;stroke-dasharray:2.83464565, 2.83464565;stroke-linecap:round;stroke-linejoin:round;stroke-width:.94488;stroke:#008000"/>
   <path d="m48.122 43.694 10.32-8.3123 3.0562 8.2116z" style="fill:#fff;stroke-dasharray:3.19748032, 3.19748032;stroke-linecap:round;stroke-linejoin:round;stroke-width:1.0658;stroke:#008000"/>
   <path d="m142.59 24.815-12.693-3.8049 0.26735 8.7578z" style="fill:#fff;stroke-dasharray:3.19748032, 3.19748032;stroke-linecap:round;stroke-linejoin:round;stroke-width:1.0658;stroke:#008000"/>
  </g>
  <ellipse transform="matrix(1 -.0019655 -.0026858 1 0 0)" cx="229.73" cy="354.49" rx="1.2735" ry="1.2731" style="fill:#008000;stroke-linecap:round;stroke-linejoin:round;stroke-width:1.2329;stroke:#008000"/>
  <g transform="rotate(12.479 -1001.1 1778.4)">
   <path d="m48.244 43.8c30.375-12.632 61.893-18.727 94.446-18.913" style="fill:none;stroke-dasharray:2.83464565, 2.83464565;stroke-linecap:round;stroke-linejoin:round;stroke-width:.94488;stroke:#008000"/>
   <path d="m48.122 43.694 10.32-8.3123 3.0562 8.2116z" style="fill:#fff;stroke-dasharray:3.19748032, 3.19748032;stroke-linecap:round;stroke-linejoin:round;stroke-width:1.0658;stroke:#008000"/>
   <path d="m142.59 24.815-12.693-3.8049 0.26735 8.7578z" style="fill:#fff;stroke-dasharray:3.19748032, 3.19748032;stroke-linecap:round;stroke-linejoin:round;stroke-width:1.0658;stroke:#008000"/>
  </g>
  <ellipse transform="matrix(.99704 -.076861 .072223 .99739 0 0)" cx="414.14" cy="340.87" rx="1.2735" ry="1.2731" style="fill:#008000;stroke-linecap:round;stroke-linejoin:round;stroke-width:1.2329;stroke:#008000"/>
  <ellipse cx="437.26" cy="272.03" rx="13.199" ry="13.469" style="fill:#1f638a;stroke-linecap:round;stroke-linejoin:round;stroke-width:1.0658"/>
  <text x="431.38516" y="279.56183" style="fill:#000000;font-family:'Arial Nova', 'Arial Unicode MS', 'Yu Gothic UI', sans-serif;font-size:12.8px;letter-spacing:0px;line-height:0%;stroke-width:1.0667;word-spacing:0px" xml:space="preserve"><tspan x="431.38516" y="279.56183" style="fill:#ffffff;font-family:'Arial Nova', 'Arial Unicode MS', 'Yu Gothic UI', sans-serif;font-size:21.333px;font-weight:bold;stroke-width:1.0667">3</tspan></text>
  <ellipse cx="186.44" cy="419.37" rx="13.199" ry="13.469" style="fill:#1f638a;stroke-linecap:round;stroke-linejoin:round;stroke-width:1.0658"/>
  <text x="180.56842" y="426.90408" style="fill:#000000;font-family:'Arial Nova', 'Arial Unicode MS', 'Yu Gothic UI', sans-serif;font-size:12.8px;letter-spacing:0px;line-height:0%;stroke-width:1.0667;word-spacing:0px" xml:space="preserve"><tspan x="180.56842" y="426.90408" style="fill:#ffffff;font-family:'Arial Nova', 'Arial Unicode MS', 'Yu Gothic UI', sans-serif;font-size:21.333px;font-weight:bold;stroke-width:1.0667">4</tspan></text>
  <ellipse cx="545.23" cy="356.73" rx="13.199" ry="13.469" style="fill:#1f638a;stroke-linecap:round;stroke-linejoin:round;stroke-width:1.0658"/>
  <text x="539.35492" y="364.26584" style="fill:#000000;font-family:'Arial Nova', 'Arial Unicode MS', 'Yu Gothic UI', sans-serif;font-size:12.8px;letter-spacing:0px;line-height:0%;stroke-width:1.0667;word-spacing:0px" xml:space="preserve"><tspan x="539.35492" y="364.26584" style="fill:#ffffff;font-family:'Arial Nova', 'Arial Unicode MS', 'Yu Gothic UI', sans-serif;font-size:21.333px;font-weight:bold;stroke-width:1.0667">5</tspan></text>
  <ellipse transform="matrix(.9993 -.037301 .032652 .99947 0 0)" cx="361.12" cy="347.42" rx="5.2921" ry="5.2904" style="fill:#fff;stroke-linecap:round;stroke-linejoin:round;stroke-width:.75591;stroke:#000"/>
  <ellipse transform="matrix(.9993 -.037301 .032652 .99947 0 0)" cx="492.5" cy="351.54" rx="5.2921" ry="5.2904" style="fill:#fff;stroke-linecap:round;stroke-linejoin:round;stroke-width:.75591;stroke:#000"/>
  <ellipse transform="matrix(.9993 -.037301 .032652 .99947 0 0)" cx="426.94" cy="345.55" rx="5.2921" ry="5.2904" style="fill:#fff;stroke-linecap:round;stroke-linejoin:round;stroke-width:.75591;stroke:#000"/>
  <ellipse transform="matrix(.9993 -.037301 .032652 .99947 0 0)" cx="295.06" cy="356.78" rx="5.2921" ry="5.2904" style="fill:#fff;stroke-linecap:round;stroke-linejoin:round;stroke-width:.75591;stroke:#000"/>
  <ellipse transform="matrix(.9993 -.037301 .032652 .99947 0 0)" cx="228.69" cy="375.64" rx="5.2921" ry="5.2904" style="fill:#fff;stroke-linecap:round;stroke-linejoin:round;stroke-width:.75591;stroke:#000"/>
  <ellipse transform="matrix(.9993 -.037301 .032652 .99947 0 0)" cx="163.62" cy="403.51" rx="5.2921" ry="5.2904" style="fill:#fff;stroke-linecap:round;stroke-linejoin:round;stroke-width:.75591;stroke:#000"/>
 </g>
</svg>
