<?xml version="1.0" encoding="UTF-8" standalone="no"?>
<svg
   width="18cm"
   height="4cm"
   version="1.1"
   id="svg6918"
   sodipodi:docname="Directmodelling_sideface_2a.svg"
   inkscape:version="1.2.2 (732a01da63, 2022-12-09)"
   xmlns:inkscape="http://www.inkscape.org/namespaces/inkscape"
   xmlns:sodipodi="http://sodipodi.sourceforge.net/DTD/sodipodi-0.dtd"
   xmlns:xlink="http://www.w3.org/1999/xlink"
   xmlns="http://www.w3.org/2000/svg"
   xmlns:svg="http://www.w3.org/2000/svg"
   xmlns:rdf="http://www.w3.org/1999/02/22-rdf-syntax-ns#"
   xmlns:cc="http://creativecommons.org/ns#"
   xmlns:dc="http://purl.org/dc/elements/1.1/">
  <sodipodi:namedview
     id="namedview6920"
     pagecolor="#ffffff"
     bordercolor="#000000"
     borderopacity="0.25"
     inkscape:showpageshadow="2"
     inkscape:pageopacity="0.0"
     inkscape:pagecheckerboard="0"
     inkscape:deskcolor="#d1d1d1"
     inkscape:document-units="cm"
     showgrid="false"
     inkscape:zoom="3.3260208"
     inkscape:cx="382.43898"
     inkscape:cy="-72.759617"
     inkscape:window-width="3840"
     inkscape:window-height="2054"
     inkscape:window-x="2869"
     inkscape:window-y="-11"
     inkscape:window-maximized="1"
     inkscape:current-layer="svg6918" />
  <title
     id="title6803">Programmeferenz-Grafik</title>
  <defs
     id="defs6814">
    <linearGradient
       id="linearGradient17233"
       x1="57.352"
       x2="114.16"
       y1="62.824"
       y2="62.824"
       gradientTransform="matrix(2.8963748,0,0,2.8942365,-102.52856,-103.64697)"
       gradientUnits="userSpaceOnUse"
       xlink:href="#linearGradient10628-1" />
    <linearGradient
       id="linearGradient10628-1">
      <stop
         style="stop-color:#fff"
         offset="0"
         id="stop6806" />
      <stop
         style="stop-color:#4fa68a"
         offset="1"
         id="stop6808" />
    </linearGradient>
    <linearGradient
       id="linearGradient3451"
       x1="57.352"
       x2="91.462"
       y1="62.824"
       y2="63.056"
       gradientTransform="matrix(2.8954 0 0 2.8937 298.08 -84.74)"
       gradientUnits="userSpaceOnUse"
       xlink:href="#linearGradient10628-1" />
    <linearGradient
       id="linearGradient3445"
       x1="57.352"
       x2="114.16"
       y1="62.824"
       y2="62.824"
       gradientTransform="matrix(2.8954 0 0 2.8937 331.61 -103.6)"
       gradientUnits="userSpaceOnUse"
       xlink:href="#linearGradient10628-1" />
    <linearGradient
       id="linearGradient3727"
       x1="57.352"
       x2="114.16"
       y1="62.824"
       y2="62.824"
       gradientTransform="matrix(2.8954 0 0 2.8937 125.59 -103.84)"
       gradientUnits="userSpaceOnUse"
       xlink:href="#linearGradient10628-1" />
    <linearGradient
       inkscape:collect="always"
       xlink:href="#linearGradient10628-1"
       id="linearGradient8132"
       gradientUnits="userSpaceOnUse"
       gradientTransform="matrix(2.8963748,0,0,2.8942365,-102.52856,-103.64697)"
       x1="57.352"
       y1="62.824"
       x2="114.16"
       y2="62.824" />
    <linearGradient
       inkscape:collect="always"
       xlink:href="#linearGradient10628-1"
       id="linearGradient8134"
       gradientUnits="userSpaceOnUse"
       gradientTransform="matrix(2.8963748,0,0,2.8942365,-102.52856,-103.64697)"
       x1="57.352"
       y1="62.824"
       x2="114.16"
       y2="62.824" />
    <linearGradient
       inkscape:collect="always"
       xlink:href="#linearGradient6218-7-4-0-5-2-09"
       id="linearGradient2387"
       x1="311.8877"
       y1="86.824974"
       x2="394.82843"
       y2="86.612373"
       gradientUnits="userSpaceOnUse"
       gradientTransform="translate(-247.7498,-0.51002118)" />
    <linearGradient
       id="linearGradient6218-7-4-0-5-2-09">
      <stop
         style="stop-color:#ff8500;stop-opacity:1;"
         offset="0"
         id="stop6220-89-4-6-6-2-30" />
      <stop
         style="stop-color:#ffffff;stop-opacity:1;"
         offset="1"
         id="stop6222-7-90-1-8-6-08" />
    </linearGradient>
  </defs>
  <g
     transform="matrix(.2917 0 0 .28875 205.25 34.544)"
     style="fill:#1f638a;stroke-linecap:round;stroke-linejoin:round;stroke-width:1.2209;stroke:#1f638a"
     id="g6820">
    <path
       d="m207.49 126.25 34.17 21.614-34.17 21.614z"
       style="fill:#1f638a;stroke-linecap:round;stroke-linejoin:round;stroke-width:1.3023;stroke:#1f638a"
       id="path6816" />
    <rect
       x="172.19"
       y="137.99"
       width="39.213"
       height="19.761"
       style="fill:#1f638a;stroke-linecap:round;stroke-linejoin:round;stroke-width:1.3023;stroke:#1f638a"
       id="rect6818" />
  </g>
  <g
     transform="translate(-14.163 -145.41)"
     id="g6826">
    <rect
       x="511.88"
       y="164.01"
       width="12.286"
       height="12.286"
       style="color:#000000;fill:#f3f3f3;stroke-linecap:round;stroke-linejoin:round;stroke-width:1.4324;stroke:#000"
       id="rect6822" />
    <path
       d="m521.07 166.12-4.2539 5.8714-1.4333-1.6714c-0.20944-0.31416-0.68585-0.40944-1-0.2-0.31416 0.20944-0.40944 0.68584-0.2 1l2.1 3.0667c0.26325 0.41981 0.9931 0.40012 1.2333-0.0333l4.6189-7.2828c0.27631-0.41652-0.79186-1.0908-1.065-0.75056z"
       style="color:#000000;stroke-linecap:round;stroke-linejoin:round;stroke-width:.67654;stroke:#000;text-decoration-line:none;text-indent:0;text-transform:none"
       id="path6824" />
  </g>
  <path
     d="m 171.36689,141.2385 56.11962,-32.51385 -0.01,-37.404079 -56.10694,32.510679 z"
     style="color:#000000;fill:url(#linearGradient8132);stroke:#67977f;stroke-width:1.43244;stroke-linecap:round;stroke-linejoin:round"
     id="path6828" />
  <path
     d="m 122.54916,112.62289 48.81773,28.61688 8.8e-4,-37.41993 -48.77651,-28.122465 z"
     style="color:#000000;fill:url(#linearGradient8134);stroke:#67977f;stroke-width:1.43244;stroke-linecap:round;stroke-linejoin:round"
     id="path6830" />
  <path
     d="M 107.21931,65.555615 156.00216,93.685688 155.89728,56.680941 107.33954,28.445964 Z"
     style="color:#000000;fill:none;stroke:#67977f;stroke-width:1.43244;stroke-linecap:round;stroke-linejoin:round"
     id="path6832" />
  <path
     d="M 107.2954,28.319509 130.00958,15.115255 227.48334,71.306944 171.37006,103.82079 122.59355,75.698326 155.88168,56.695837 Z"
     style="color:#000000;fill:url(#linearGradient17233);stroke:#67977f;stroke-width:1.43244;stroke-linecap:round;stroke-linejoin:round"
     id="path6836" />
  <path
     d="M 107.0798,29.061125 64.305237,54.803448"
     style="color:#000000;fill:#ffe6e6;stroke:#ff0000;stroke-width:0.676531;stroke-linecap:round;stroke-linejoin:round;stroke-dasharray:0.676537, 1.35307"
     id="path6838" />
  <path
     d="M 106.85469,66.046856 64.080124,91.789179"
     style="color:#000000;fill:#ffe6e6;stroke:#ff0000;stroke-width:0.676531;stroke-linecap:round;stroke-linejoin:round;stroke-dasharray:0.676537, 1.35307"
     id="path6840" />
  <path
     d="m 122.43819,112.99053 -9.51434,5.72566"
     style="color:#000000;fill:#ffe6e6;stroke:#ff0000;stroke-width:0.676531;stroke-linecap:round;stroke-linejoin:round;stroke-dasharray:0.676537, 1.35307"
     id="path6842" />
  <path
     d="m 122.32405,76.160093 -9.99183,6.013429"
     style="color:#000000;fill:#ffe6e6;stroke:#ff0000;stroke-width:0.676531;stroke-linecap:round;stroke-linejoin:round;stroke-dasharray:0.676537, 1.35307"
     id="path6844" />
  <path
     d="m605.41 141.24 56.1-32.508-0.0107-37.397-56.088 32.504z"
     style="color:#000000;fill:url(#linearGradient3445);stroke-linecap:round;stroke-linejoin:round;stroke-width:1.4324;stroke:#67977f"
     id="path6890" />
  <path
     d="m556.58 112.63 48.84 28.611 8.8e-4 -37.412-48.841-28.117z"
     style="color:#000000;fill:url(#linearGradient3445);stroke-linecap:round;stroke-linejoin:round;stroke-width:1.4324;stroke:#67977f"
     id="path6892" />
  <path
     d="m498.31 91.923 48.773 28.125v-36.996l-48.654-28.23z"
     style="color:#000000;fill:url(#linearGradient3445);stroke-linecap:round;stroke-linejoin:round;stroke-width:1.4324;stroke:#67977f"
     id="path6894" />
  <g
     transform="translate(450.54 69.066)"
     id="g6902">
    <ellipse
       cx="122.72"
       cy="48.983"
       rx="13.199"
       ry="13.469"
       style="fill:#1f638a;stroke-linecap:round;stroke-linejoin:round;stroke-width:1.0658"
       id="ellipse6896" />
    <text
       x="116.87816"
       y="56.649761"
       style="fill:#000000;font-family:'Arial Nova', 'Arial Unicode MS', 'Yu Gothic UI', sans-serif;font-size:12.8px;letter-spacing:0px;line-height:0%;stroke-width:1.0667;word-spacing:0px"
       xml:space="preserve"
       id="text6900"><tspan
         x="116.87816"
         y="56.649761"
         style="fill:#ffffff;font-family:'Arial Nova', 'Arial Unicode MS', 'Yu Gothic UI', sans-serif;font-size:21.333px;stroke-width:1.0667;stroke:#ffffff"
         id="tspan6898">7</tspan></text>
  </g>
  <path
     d="m498.7 54.631 65.373-39.487 97.44 56.182-56.094 32.507-48.841-28.117-9.4933 7.0966z"
     style="color:#000000;fill:url(#linearGradient3445);stroke-linecap:round;stroke-linejoin:round;stroke-width:1.4324;stroke:#67977f"
     id="path6904" />
  <path
     d="m547.08 120.14 9.4933-7.5895v-36.659l-9.4933 7.0133z"
     style="color:#000000;fill:url(#linearGradient3451);stroke-linecap:round;stroke-linejoin:round;stroke-width:1.4324;stroke:#67977f"
     id="path6906" />
  <path
     d="m399.39 141 56.1-32.508-0.0107-37.397-56.088 32.504z"
     style="color:#000000;fill:url(#linearGradient3727);stroke-linecap:round;stroke-linejoin:round;stroke-width:1.4324;stroke:#67977f"
     id="path6908" />
  <path
     d="m350.59 112.39 48.802 28.611 8.8e-4 -37.412-48.76-28.117z"
     style="color:#000000;fill:url(#linearGradient3727);stroke-linecap:round;stroke-linejoin:round;stroke-width:1.4324;stroke:#67977f"
     id="path6910" />
  <path
     d="m335.27 65.333 48.767 28.125-0.10485-36.996-48.543-28.23z"
     style="color:#000000;fill:url(#linearGradient3727);stroke-linecap:round;stroke-linejoin:round;stroke-width:1.4324;stroke:#67977f"
     id="path6912" />
  <path
     d="m335.34 28.103 22.707-13.202 97.44 56.182-56.094 32.507-48.76-28.117 33.276-18.999z"
     style="color:#000000;fill:url(#linearGradient3727);stroke-linecap:round;stroke-linejoin:round;stroke-width:1.4324;stroke:#67977f"
     id="path6914" />
  <rect
     x="292.92"
     y="18.599"
     width="12.286"
     height="12.286"
     style="color:#000000;fill:#f3f3f3;stroke-linecap:round;stroke-linejoin:round;stroke-width:1.4324;stroke:#000"
     id="rect6916" />
  <path
     d="M 64.476175,91.401489 113.25902,118.49616 113.15414,81.491409 64.596405,54.292159 Z"
     style="color:#000000;fill:url(#linearGradient2387);fill-opacity:1;stroke:#ff0000;stroke-width:0.676531;stroke-linecap:round;stroke-linejoin:round;stroke-dasharray:0.676537, 1.35307"
     id="path33" />
  <g
     transform="matrix(2.3108284,0,0,2.311941,-177.22156,202.13343)"
     id="g6884">
    <path
       d="m 104.73,-63.62 v -4.667"
       style="fill:none;stroke:#666666;stroke-width:0.40879;stroke-linecap:round;stroke-linejoin:round"
       id="path6846" />
    <path
       d="m 104.74,-79.861 c -4.7239,-3.0351 -14.161,-1.8837 -13.707,8.3097"
       style="fill:none;stroke:#619696;stroke-width:0.40879;stroke-linecap:round;stroke-linejoin:round"
       id="path6848" />
    <path
       d="m 90.995,-71.412 c -10.424,6.1844 -3.3291,13.142 -0.48927,15.544"
       style="fill:none;stroke:#619696;stroke-width:0.40879;stroke-linecap:round;stroke-linejoin:round"
       id="path6850" />
    <g
       transform="rotate(136.13,120.62,-3.7303)"
       id="g6862">
      <path
         d="m 90.844,50.794 4.2964,1.0676"
         style="fill:none;stroke:#666666;stroke-width:0.40879;stroke-linecap:round;stroke-linejoin:round"
         id="path6852" />
      <g
         transform="matrix(0.13763,0,0,0.13763,66.729,20.306)"
         id="g6858">
        <path
           d="m 208.8,226.37 c -1.3264,0 -2.4,1.6054 -2.4,3.6 0,1.9223 1.007,3.4552 2.2667,3.5667 22.564,5.6558 45.418,11.182 68.1,16.733 l -0.0333,-7.1 c -23.779,-5.3956 -47.552,-12.213 -67.933,-16.8 z"
           style="color:#000000;fill:#3dda3d;stroke:#178d17;stroke-width:2.3761;stroke-linecap:round;stroke-linejoin:round"
           id="path6854" />
        <ellipse
           cx="276.72"
           cy="246.72"
           rx="2.4015999"
           ry="3.5297"
           style="color:#000000;fill:#3dda3d;stroke:#178d17;stroke-width:2.3761;stroke-linecap:round;stroke-linejoin:round"
           id="ellipse6856" />
      </g>
      <path
         d="m 104.87,54.279 1.3379,0.33244"
         style="fill:none;stroke:#666666;stroke-width:0.40879;stroke-linecap:round;stroke-linejoin:round"
         id="path6860" />
    </g>
    <path
       d="m 92.119,-70.339 7.7523,4.4809 0.71427,-0.58729 -7.7026,-4.5316 c -0.38831,-0.05242 -0.84303,0.24408 -0.76399,0.63802 z"
       style="color:#000000;fill:#f04e4e;stroke:#aa1010;stroke-width:0.32704;stroke-linecap:round;stroke-linejoin:round"
       id="path6864" />
    <ellipse
       transform="matrix(-0.39395,-0.91913,-0.91913,0.39395,0,0)"
       cx="21.337"
       cy="-118.17"
       rx="0.33054"
       ry="0.4858"
       style="color:#000000;fill:#f04e4e;stroke:#aa1010;stroke-width:0.32704;stroke-linecap:round;stroke-linejoin:round"
       id="ellipse6866" />
    <path
       d="m 100.21,-66.155 4.1545,2.4958"
       style="fill:none;stroke:#666666;stroke-width:0.40879;stroke-linecap:round;stroke-linejoin:round"
       id="path6868" />
    <path
       d="m 91.246,-71.317 0.8456,0.47854"
       style="fill:none;stroke:#666666;stroke-width:0.40879;stroke-linecap:round;stroke-linejoin:round"
       id="path6870" />
    <circle
       cx="104.71"
       cy="-63.716"
       r="1.3005"
       style="color:#000000;fill:#fd7326;stroke:#c95b20;stroke-width:0.40879;stroke-linecap:round;stroke-linejoin:round"
       id="circle6872" />
    <g
       transform="matrix(0.13763,0,0,0.13763,79.053,-93.608)"
       id="g6878">
      <rect
         x="183.16"
         y="116.37"
         width="6.7943001"
         height="71.675003"
         rx="7.7075"
         ry="5.0370002"
         style="color:#000000;fill:#51519c;stroke:#2b2b97;stroke-width:2.9702;stroke-linecap:round;stroke-linejoin:round"
         id="rect6874" />
      <ellipse
         transform="rotate(-90.9)"
         cx="-121.28"
         cy="184.71001"
         rx="2.4015999"
         ry="3.5297"
         style="color:#000000;fill:#51519c;stroke:#2b2b97;stroke-width:2.3761;stroke-linecap:round;stroke-linejoin:round"
         id="ellipse6876" />
    </g>
    <path
       d="m 104.73,-77.94 v -1.9271"
       style="fill:none;stroke:#666666;stroke-width:0.40879;stroke-linecap:round;stroke-linejoin:round"
       id="path6880" />
    <path
       d="m 90.587,-55.816 c -1.1752,-13.977 8.3119,-22.857 14.13,-24.051"
       style="fill:none;stroke:#619696;stroke-width:0.40879;stroke-linecap:round;stroke-linejoin:round"
       id="path6882" />
  </g>
  <path
     d="m43.614 90.523 6.2254-5.1469 6.9023 14.13 6.2932-3.0742-6.9023-14.13 7.4286-1.523-19.542-14.716z"
     style="fill:#fff;stroke-linecap:round;stroke-linejoin:round;stroke-width:.75591;stroke:#000"
     id="path6888" />
  <path
     style="fill:#ff0000;fill-opacity:0.0980392;stroke:none;stroke-width:1.39843;stroke-linecap:round;stroke-linejoin:round;stroke-dasharray:4.19528, 4.19528;stroke-dashoffset:4.33512;stroke-opacity:0.0980392"
     d="M 107.4293,29.196992 64.409259,54.757069 113.14478,81.99546 156.46438,56.883054 Z"
     id="path3256"
     sodipodi:nodetypes="ccccc" />
  <path
     style="fill:#ff0000;fill-opacity:0.0980392;stroke:none;stroke-width:1.39843;stroke-linecap:round;stroke-linejoin:round;stroke-dasharray:4.19528, 4.19528;stroke-dashoffset:4.33512;stroke-opacity:0.0980392"
     d="m 113.0943,119.08855 9.00319,-5.57915 0.2255,-37.241201 -9.44129,5.703681 z"
     id="path3258"
     sodipodi:nodetypes="ccccc" />
  <metadata
     id="metadata12256">
    <rdf:RDF>
      <cc:Work
         rdf:about="">
        <dc:title>Programmeferenz-Grafik</dc:title>
      </cc:Work>
    </rdf:RDF>
  </metadata>
</svg>
