<?xml version="1.0" encoding="UTF-8"?>
<svg width="18cm" height="8.5cm" overflow="visible" version="1.0" viewBox="11 -112.06 680.31 321.26" xmlns="http://www.w3.org/2000/svg" xmlns:cc="http://creativecommons.org/ns#" xmlns:dc="http://purl.org/dc/elements/1.1/" xmlns:osb="http://www.openswatchbook.org/uri/2009/osb" xmlns:rdf="http://www.w3.org/1999/02/22-rdf-syntax-ns#" xmlns:xlink="http://www.w3.org/1999/xlink">
 <g transform="translate(0 4.1326)" fill="url(#linearGradient3028)" stroke="#808080" stroke-linecap="round" stroke-linejoin="round">
  <path d="m81.281 29.26c1.9649 6.5225 3.9298 13.045 5.8946 19.567" color="#808080"/>
  <path d="m209.62 180.69c-54.32-33.442-108.64-66.883-162.96-100.32l-7.0736-23.481c54.32 33.442 108.64 66.883 162.96 100.32 2.3578 7.827 4.7157 15.654 7.0736 23.481z" color="#808080"/>
  <path id="ID_9B" d="m250.63-23.356c-2.6089 3.8482-5.2178 7.6964-7.8267 11.545 7.76 4.7774 2.0017 1.2323 9.7616 6.0097 5.1501-7.5965 2.6766-3.948 7.8267-11.545-3.2539-2.0032-6.5077-4.0065-9.7616-6.0097z" color="#808080"/>
  <path d="m259.09 25.133c7.7599 4.7774 15.52 9.5547 23.28 14.332" color="#808080"/>
  <path d="m243.64 47.922c5.15-7.5965 10.3-15.193 15.45-22.79" color="#808080"/>
  <path d="m266.92 62.254c-7.76-4.7774-15.52-9.5548-23.28-14.332" color="#808080"/>
  <path d="m207.59 101.1c5.1501-7.5965 10.3-15.193 15.45-22.79z" color="#808080"/>
  <path d="m151.18 101.37c-20.952-12.899-41.904-25.798-62.856-38.697" color="#808080"/>
  <path d="m227.76 32.222c-13.905 20.511-27.81 41.021-41.716 61.532" color="#808080"/>
  <path d="m157.85-39.884c20.952 12.899 41.904 25.798 62.856 38.697l5.8946 19.567c-20.952-12.899-41.904-25.798-62.856-38.697z" color="#808080"/>
  <path id="BB" d="m272.81 81.822c5.15-7.5965 10.3-15.193 15.45-22.79-7.76-4.7774-15.52-9.5548-23.28-14.332-2.6089 3.8482-5.2178 7.6964-7.8266 11.545l9.7616 6.0097c1.9648 6.5225 3.9298 13.045 5.8946 19.567" color="#808080"/>
  <path id="BE" d="m236.76 135c-1.9649-6.5225-3.9298-13.045-5.8946-19.567l-9.7616-6.0097c2.6089-3.8482 5.2178-7.6964 7.8266-11.545 7.76 4.7774 15.52 9.5548 23.28 14.332-5.1501 7.5965-10.3 15.193-15.45 22.79z" color="#808080"/>
  <path d="m264.98 44.7c-1.9649-6.5225-3.9297-13.045-5.8946-19.567l23.28 14.332c1.9649 6.5225 3.9297 13.045 5.8947 19.567z" color="#808080"/>
  <path d="m228.93 97.876c-1.9649-6.5225-3.9298-13.045-5.8946-19.567 7.76 4.7774 15.52 9.5548 23.28 14.332 1.9649 6.5225 3.9297 13.045 5.8946 19.567z" color="#808080"/>
  <path d="m87.175 48.827c0.56748-0.83705 1.135-1.6741 1.7024-2.5112" color="#808080"/>
  <path d="m88.878 46.316c0.34956-0.51561 0.69912-1.0312 1.0487-1.5468" color="#808080"/>
  <path d="m128.89-12.705c-12.988 19.158-25.976 38.316-38.965 57.474l-1.0487 1.5468c-0.56748 0.83706-1.135 1.6741-1.7024 2.5112-1.9649-6.5225-3.9298-13.045-5.8946-19.567 13.905-20.511 27.81-41.021 41.716-61.532z" color="#808080"/>
  <path d="m147.74-102.64c-36.051 53.176-72.1 106.35-108.15 159.53 54.32 33.442 108.64 66.885 162.96 100.33 9.4418-13.927 18.882-27.854 28.324-41.781-7.76-4.7774-15.519-9.5547-23.279-14.332 5.1501-7.5965 10.301-15.193 15.451-22.789 7.76 4.7774 15.519 9.5547 23.279 14.332 6.8668-10.129 13.733-20.258 20.6-30.387-7.76-4.7774-15.519-9.5546-23.279-14.332 5.15-7.5965 10.301-15.193 15.451-22.789 7.7599 4.7774 15.519 9.5547 23.279 14.332 9.4418-13.927 18.882-27.854 28.324-41.781-14.227-8.7585-28.453-17.517-42.68-26.275-5.1501 7.5965-10.299 15.193-15.449 22.789-7.7599-4.7774-15.519-9.5546-23.279-14.332 5.1501-7.5965 10.299-15.193 15.449-22.789-10.347-6.3698-20.692-12.74-31.039-19.109-5.1501 7.5965-10.301 15.193-15.451 22.789-7.76-4.7773-15.519-9.5547-23.279-14.332 5.1501-7.5965 10.299-15.192 15.449-22.789-14.227-8.7584-28.453-17.519-42.68-26.277zm-10.832 49.859c6.984 4.2996 13.967 8.5988 20.951 12.898 20.952 12.899 41.904 25.798 62.855 38.697 6.984 4.2997 13.969 8.5988 20.953 12.898-4.6351 6.8369-9.2712 13.675-13.906 20.512-13.905 20.511-27.81 41.021-41.715 61.531l-13.906 20.51c-6.984-4.2996-13.967-8.5988-20.951-12.898-20.952-12.899-62.855-38.697-83.807-51.596l13.904-20.51c13.905-20.511 27.812-41.023 41.717-61.533 4.6351-6.8369 9.2692-13.673 13.904-20.51z" color="#808080"/>
  <path d="m221.11 109.42c2.6089-3.8482 5.2178-7.6964 7.8266-11.545z" color="#808080"/>
  <path d="m288.26 59.032c-5.1501 7.5965-10.3 15.193-15.45 22.79-1.9649-6.5225-3.9298-13.045-5.8946-19.567-6.8668 10.129-13.734 20.257-20.6 30.386 1.9649 6.5225 3.9297 13.045 5.8946 19.567-5.1501 7.5965-10.3 15.193-15.45 22.79-1.9649-6.5225-3.9298-13.045-5.8946-19.567-9.4418 13.927-18.884 27.854-28.325 41.781 2.3578 7.827 4.7157 15.654 7.0736 23.481 36.051-53.176 72.101-106.35 108.15-159.53-2.3579-7.827-4.7157-15.654-7.0735-23.481-9.4418 13.927-18.884 27.854-28.325 41.781 1.9649 6.5225 3.9297 13.045 5.8947 19.567z" color="#808080"/>
  <path d="m87.175 48.827c0.56748-0.83705 1.135-1.6741 1.7024-2.5112l1.0487-1.5468c12.988-19.158 25.976-38.316 38.965-57.474 2.4004-3.5469 5.7192-6.452 9.5259-8.4082 3.0854-1.5904 6.4875-2.5614 9.9479-2.8384 5.3403-0.43873 10.818 0.81396 15.383 3.6349 20.952 12.899 41.904 25.798 62.856 38.697 1.8558 1.1422 3.5582 2.5345 5.0471 4.1287-0.51076 3.4219-1.7936 6.7591-3.895 9.7134-13.905 20.511-27.81 41.021-41.716 61.532-7.3886 11.185-23.492 14.785-34.857 7.612-20.952-12.899-41.904-25.798-62.856-38.697-1.9301-1.1324-3.6274-2.5235-5.059-4.1198 0.58433-3.4838 1.9331-6.8157 3.9069-9.7223z"/>
  <path d="m207.59 101.1 13.519 8.3221 7.8266-11.545-5.8942-19.567z" fill-rule="evenodd" stroke-width="1.0016"/>
  <path d="m243.64 47.923 13.519 8.3221 7.8266-11.545-5.8942-19.567z" fill-rule="evenodd" stroke-width="1.0016"/>
  <path d="m229.28-20.134 13.519 8.3221 7.8266-11.545-5.8942-19.567z" fill-rule="evenodd" stroke-width="1.0016"/>
  <path d="m196.31-56.798c-2.6089 3.8482-5.2178 7.6964-7.8267 11.545 7.76 4.7774 2.0017 1.2323 9.7616 6.0097 5.1501-7.5965 2.6766-3.948 7.8267-11.545-3.2539-2.0032-6.5077-4.0065-9.7616-6.0097z" color="#808080"/>
  <path d="m174.96-53.576 13.519 8.3221 7.8266-11.545-5.8942-19.567z" fill-rule="evenodd" stroke-width="1.0016"/>
 </g>
 <metadata>
  <rdf:RDF>
   <cc:Work rdf:about="">
    <dc:format>image/svg+xml</dc:format>
    <dc:type rdf:resource="http://purl.org/dc/dcmitype/StillImage"/>
    <dc:title/>
   </cc:Work>
  </rdf:RDF>
 </metadata>
 <defs>
  <linearGradient id="linearGradient7747-2-1">
   <stop stop-color="#fff" offset="0"/>
   <stop stop-color="#808080" offset="1"/>
  </linearGradient>
  <linearGradient id="Sockel">
   <stop stop-color="#c07137" offset="0"/>
   <stop stop-color="#fff" offset="1"/>
  </linearGradient>
  <linearGradient id="linearGradient7446" x1="408.45" x2="487.97" y1="-47.612" y2="-47.612" gradientUnits="userSpaceOnUse" xlink:href="#Sockel"/>
  <linearGradient id="linearGradient7454" x1="421.63" x2="485.47" y1="-21.578" y2="-21.578" gradientUnits="userSpaceOnUse" xlink:href="#Sockel"/>
  <linearGradient id="linearGradient7462" x1="421.79" x2="475.12" y1="-3.3735" y2="-3.3735" gradientUnits="userSpaceOnUse">
   <stop stop-color="#ffd94a" offset="0"/>
   <stop stop-color="#fff" offset="1"/>
  </linearGradient>
  <linearGradient id="linearGradient3028" x1="142.82" x2="352.85" y1="15.16" y2="523.13" gradientUnits="userSpaceOnUse" xlink:href="#linearGradient7747-2-1"/>
  <linearGradient id="linearGradient6084" x1="357.09" x2="475.6" y1="66.957" y2="66.957" gradientUnits="userSpaceOnUse">
   <stop stop-color="#ff8f40" offset="0"/>
   <stop stop-color="#fff" offset="1"/>
  </linearGradient>
 </defs>
 <g transform="translate(70.133 6.0807)" stroke="#502d16" stroke-linecap="round">
  <path d="m475.1 132.03 0.35346-0.52211" fill="none"/>
  <path d="m422.13-34.484 0.0968 26.04 62.739-0.22759-0.0968-26.04z" fill="url(#linearGradient7454)"/>
  <path d="m422.33 1.8868 0.48439 130.33 52.283-0.18967-0.48437-130.33z" fill="url(#linearGradient6084)"/>
  <path d="m487.47-34.721-78.424 0.2845-0.0968-26.066 78.424-0.28449z" fill="url(#linearGradient7446)"/>
  <path d="m422.29-8.4441 0.0383 10.331 52.283-0.18966-0.0383-10.331z" fill="url(#linearGradient7462)"/>
  <path d="m411.81-34.447 0.0964 25.936 10.386 0.06649-0.0968-26.04z" fill="#deaa87"/>
 </g>
 <path d="m136.9-48.65c6.984 4.2996 13.968 8.5993 20.952 12.899-11.365-7.1734-27.468-3.5732-34.857 7.612 4.6351-6.8372 9.2702-13.674 13.905-20.511z" color="#808080" fill="#274376" stroke="#000080" stroke-linecap="round" stroke-linejoin="round"/>
 <path d="m172.13 118.4c-6.984-4.2996-13.968-8.5993-20.952-12.899 11.365 7.1733 27.469 3.5732 34.857-7.612z" color="#808080" fill="#274376" stroke="#000080" stroke-linecap="round" stroke-linejoin="round"/>
 <path d="m241.66 15.844c-4.6351 6.8369-9.2702 13.674-13.905 20.511 7.672-10.786 4.4334-26.675-7.0468-33.41 6.984 4.2996 13.968 8.5993 20.952 12.899z" color="#808080" fill="#274376" stroke="#000080" stroke-linecap="round" stroke-linejoin="round"/>
 <path d="m67.376 53.903c4.6351-6.8369 9.2702-13.674 13.905-20.511-7.6721 10.786-4.4334 26.675 7.0467 33.41-6.984-4.2996-13.968-8.5993-20.952-12.899z" color="#808080" fill="#274376" stroke="#000080" stroke-linecap="round" stroke-linejoin="round"/>
 <path d="m220.71 2.9455c1.965 6.5225 3.9298 13.045 5.8947 19.567 1.8558 1.1422 3.5582 2.5345 5.0522 4.0946 1.3594-9.1043-2.6321-18.784-10.947-23.662z" fill="#274376" stroke="#000080" stroke-linecap="round" stroke-linejoin="round"/>
 <path d="m81.281 33.392c-6.395 8.9905-5.2092 21.527 2.0096 29.313 0.56254-3.5075 1.9113-6.8394 3.8851-9.746z" fill="#274376" stroke="#000080" stroke-linecap="round" stroke-linejoin="round"/>
 <path d="m128.89-8.5721c2.4004-3.5469 5.7192-6.4519 9.5259-8.4082 3.0854-1.5904 6.4875-2.5614 9.9479-2.8384 5.3403-0.43873 10.818 0.81396 15.383 3.6349-1.9649-6.5225-3.9298-13.045-5.8946-19.567-11.365-7.1734-27.468-3.5732-34.857 7.612 1.9649 6.5222 3.9298 13.045 5.8946 19.567z" fill="#274376" stroke="#000080" stroke-linecap="round" stroke-linejoin="round"/>
 <g transform="matrix(0 .2917 -.28875 0 393.85 103.48)" fill="#1f638a" stroke="#1f638a" stroke-linecap="round" stroke-linejoin="round" stroke-width="1.3023">
  <path d="m207.49 126.25 34.17 21.614-34.17 21.614z"/>
  <rect x="172.19" y="137.99" width="39.213" height="19.761"/>
 </g>
 <g transform="translate(616.82 166.14)">
  <ellipse cx="-44.92" cy="-98.798" rx="13.199" ry="13.469" fill="#1f638a" stroke-linecap="round" stroke-linejoin="round" stroke-width="1.0658"/>
  <text x="-50.761276" y="-91.125885" fill="#000000" font-family="'Arial Nova', 'Arial Unicode MS', 'Yu Gothic UI', sans-serif" font-size="12.8px" letter-spacing="0px" stroke-width="1.0667" word-spacing="0px" style="line-height:0%" xml:space="preserve"><tspan x="-50.761276" y="-91.125885" fill="#ffffff" font-family="'Arial Nova', 'Arial Unicode MS', 'Yu Gothic UI', sans-serif" font-size="21.333px" stroke="#ffffff" stroke-width="1.0667" style="line-height:1.25">1</tspan></text>
 </g>
</svg>
