<?xml version="1.0" encoding="UTF-8"?>
<svg width="18cm" height="3.5cm" overflow="visible" version="1.0" viewBox="11 -92.651 680.31 132.28" xmlns="http://www.w3.org/2000/svg" xmlns:cc="http://creativecommons.org/ns#" xmlns:dc="http://purl.org/dc/elements/1.1/" xmlns:rdf="http://www.w3.org/1999/02/22-rdf-syntax-ns#" xmlns:xlink="http://www.w3.org/1999/xlink">
 <metadata>
  <rdf:RDF>
   <cc:Work rdf:about="">
    <dc:format>image/svg+xml</dc:format>
    <dc:type rdf:resource="http://purl.org/dc/dcmitype/StillImage"/>
    <dc:title/>
   </cc:Work>
  </rdf:RDF>
 </metadata>
 <defs>
  <linearGradient id="linearGradient10628">
   <stop stop-color="#fff" offset="0"/>
   <stop stop-color="#4fa68a" offset="1"/>
  </linearGradient>
  <linearGradient id="linearGradient2376" x1="486.47" x2="558.9" y1="-32.634" y2="128.33" gradientTransform="translate(66,-15.553)" gradientUnits="userSpaceOnUse" xlink:href="#linearGradient10628"/>
  <linearGradient id="linearGradient2390" x1="351.36" x2="390.34" y1="-44.39" y2="118.38" gradientTransform="translate(36.707,-9.2233)" gradientUnits="userSpaceOnUse" xlink:href="#linearGradient10628"/>
  <linearGradient id="linearGradient129" x1="523.2" x2="649.89" y1="13.463" y2="13.463" gradientTransform="matrix(.77314 0 0 .77055 -352 -15.755)" gradientUnits="userSpaceOnUse" xlink:href="#linearGradient10628"/>
  <linearGradient id="linearGradient143" x1="324.58" x2="451.27" y1="7.1326" y2="7.1326" gradientTransform="matrix(.77314 0 0 .77055 298.5 -11.427)" gradientUnits="userSpaceOnUse" xlink:href="#linearGradient10628"/>
  <linearGradient id="linearGradient1275" x1="523.2" x2="649.89" y1="13.463" y2="13.463" gradientTransform="matrix(.77314 0 0 .77055 -217.47 -15.755)" gradientUnits="userSpaceOnUse" xlink:href="#linearGradient10628"/>
  <linearGradient id="linearGradient143-5" x1="324.58" x2="451.27" y1="7.1326" y2="7.1326" gradientTransform="matrix(.77314 0 0 .77055 160.88 -11.427)" gradientUnits="userSpaceOnUse" xlink:href="#linearGradient10628"/>
  <linearGradient id="linearGradient1275-2" x1="523.2" x2="649.89" y1="13.463" y2="13.463" gradientTransform="matrix(.77314 0 0 .77055 -103.79 -15.755)" gradientUnits="userSpaceOnUse" xlink:href="#linearGradient10628"/>
 </defs>
 <g transform="matrix(.2917 0 0 .28875 79.4 -73.759)" fill="#1f638a" stroke="#1f638a" stroke-linecap="round" stroke-linejoin="round" stroke-width="1.3023">
  <path d="m207.49 126.25 34.17 21.614-34.17 21.614z"/>
  <rect x="172.19" y="137.99" width="39.213" height="19.761"/>
 </g>
 <g transform="matrix(.2917 0 0 .28875 360.48 -73.759)" fill="#1f638a" stroke="#1f638a" stroke-linecap="round" stroke-linejoin="round" stroke-width="1.3023">
  <path d="m207.49 126.25 34.17 21.614-34.17 21.614z"/>
  <rect x="172.19" y="137.99" width="39.213" height="19.761"/>
 </g>
 <g transform="matrix(.2917 0 0 .28875 219.94 -73.759)" fill="#1f638a" stroke="#1f638a" stroke-linecap="round" stroke-linejoin="round" stroke-width="1.3023">
  <path d="m207.49 126.25 34.17 21.614-34.17 21.614z"/>
  <rect x="172.19" y="137.99" width="39.213" height="19.761"/>
 </g>
 <g transform="translate(32 -14)" stroke="#67977f" stroke-linecap="round" stroke-linejoin="round">
  <g transform="matrix(.77314 0 0 .77055 294.86 -4.3201)" fill="url(#linearGradient2390)" stroke-width="2.5784">
   <path id="ID_8E" d="m380.15 52.086-49.921-28.894v-57.788l49.921 28.894z" color="#260000"/>
   <path d="m442.55-56.267-49.921-28.894-49.921 28.894 49.921 28.894z" color="#260000"/>
   <path d="m405.11 52.086 49.921-28.894v-57.788l-49.921 28.894z" color="#260000"/>
  </g>
  <path d="m608.07-8.7141 38.596-22.264-9.6488-16.699-38.596 22.264v11.132l9.6488 5.5661" color="#260000" fill="url(#linearGradient143)" stroke-width="1.8898"/>
  <path id="ID_9F" d="m598.43-25.413-38.596-22.264-9.6488 16.699 38.596 22.264 9.6488-5.5661z" color="#260000" fill="url(#linearGradient143)" stroke-width="1.8898"/>
  <path d="m588.78-8.7141 9.6488-5.5661 9.6488 5.5661v44.529h-19.298z" fill="url(#linearGradient143)" fill-rule="evenodd" stroke-width="1.8898"/>
 </g>
 <g transform="translate(-32 -14.549)" stroke="#67977f" stroke-linecap="round" stroke-linejoin="round">
  <g transform="matrix(.77314 0 0 .77055 -347.36 -3.7711)" fill="url(#linearGradient2376)" stroke-width="2.5784">
   <path d="m568.07 52.086-49.921-28.894v-57.788l49.921 28.894z" color="#260000"/>
   <path id="AC" d="m630.47-56.267-49.921-28.894-49.921 28.894 49.921 28.894z" color="#260000"/>
   <path d="m593.03 52.086 49.921-28.894v-57.788l-49.921 28.894z" color="#260000"/>
  </g>
  <path id="AA" d="m140.08-47.128 9.6488 16.699-38.596 22.264-9.6488-16.699z" color="#260000" fill="url(#linearGradient129)" stroke-width="1.8898"/>
  <path d="m91.84-8.1649-38.596-22.264 9.6488-16.699 38.596 22.264z" color="#260000" fill="url(#linearGradient129)" stroke-width="1.8898"/>
  <path d="m111.14-8.1649v44.529h-19.298v-44.529z" color="#260000" fill="url(#linearGradient129)" stroke-width="1.8898"/>
 </g>
 <path d="m72.913 26.962 6.2254-5.147 6.9023 14.13 6.2932-3.0742-6.9023-14.13 7.4286-1.523-19.542-14.716z" fill="#fff" stroke="#000" stroke-linecap="round" stroke-linejoin="round" stroke-width=".7559"/>
 <g transform="translate(153.69 116.48)">
  <ellipse cx="-44.92" cy="-98.798" rx="13.199" ry="13.469" fill="#1f638a" stroke-linecap="round" stroke-linejoin="round" stroke-width="1.0658"/>
  <text x="-50.761276" y="-91.125885" fill="#000000" font-family="'Arial Nova', 'Arial Unicode MS', 'Yu Gothic UI', sans-serif" font-size="12.8px" letter-spacing="0px" stroke-width="1.0667" word-spacing="0px" style="line-height:0%" xml:space="preserve"><tspan x="-50.761276" y="-91.125885" fill="#ffffff" font-family="'Arial Nova', 'Arial Unicode MS', 'Yu Gothic UI', sans-serif" font-size="21.333px" stroke="#ffffff" stroke-width="1.0667" style="line-height:1.25">1</tspan></text>
 </g>
 <g transform="translate(-25.984 -14.549)" stroke-linecap="round" stroke-linejoin="round">
  <g transform="matrix(.77314 0 0 .77055 -212.83 -3.7711)" fill="url(#linearGradient2376)" stroke="#67977f" stroke-width="2.5784">
   <path d="m568.07 52.086-49.921-28.894v-57.788l49.921 28.894z" color="#260000"/>
   <path d="m630.47-56.267-49.921-28.894-49.921 28.894 49.921 28.894z" color="#260000"/>
   <path d="m593.03 52.086 49.921-28.894v-57.788l-49.921 28.894z" color="#260000"/>
  </g>
  <path d="m274.61-47.128 9.6488 16.699-38.596 22.264-9.6488-16.699z" color="#260000" fill="url(#linearGradient1275)" stroke="#67977f" stroke-width="1.8898"/>
  <path d="m226.37-8.1649-38.596-22.264 9.6488-16.699 38.596 22.264z" color="#260000" fill="url(#linearGradient1275)" stroke="#67977f" stroke-width="1.8898"/>
  <path d="m245.66-8.1649v44.529h-19.298v-44.529z" color="#260000" fill="url(#linearGradient1275)" stroke="#67977f" stroke-width="1.8898"/>
  <path d="m226.37-8.1649 19.298 7.7e-6 -9.6488-16.699z" fill="none" fill-rule="evenodd" stroke="#f0f" stroke-width="1.89"/>
 </g>
 <g transform="translate(29.695 -14)">
  <path d="m451.16-8.7141c0.36018-0.74638 9.6431-16.698 9.6431-16.698s9.6609 16.698 9.6545 16.698c-6e-3 3.082e-4 -19.298 0-19.298 0z" fill="#ffd5d5" fill-rule="evenodd"/>
  <g transform="matrix(.77314 0 0 .77055 157.24 -4.3201)" fill="url(#linearGradient2390)" stroke="#f00" stroke-linecap="round" stroke-linejoin="round" stroke-width=".97934">
   <path d="m380.15 52.086-49.921-28.894v-57.788l49.921 28.894z" color="#260000"/>
   <path d="m442.55-56.267-49.921-28.894-49.921 28.894 49.921 28.894z" color="#260000"/>
   <path d="m405.11 52.086 49.921-28.894v-57.788l-49.921 28.894z" color="#260000"/>
  </g>
  <path d="m470.45-8.7138 38.596-22.264-9.6488-16.699-38.596 22.264" color="#260000" fill="url(#linearGradient143-5)" stroke="#f00" stroke-linecap="round" stroke-linejoin="round" stroke-width=".7559"/>
  <path d="m460.8-25.412-38.596-22.264-9.6488 16.699 38.596 22.264" color="#260000" fill="url(#linearGradient143-5)" stroke="#f00" stroke-linecap="round" stroke-linejoin="round" stroke-width=".7559"/>
  <path d="m470.46-8.7141v44.529h-19.298l7.7e-4 -44.529" fill="url(#linearGradient143-5)" fill-rule="evenodd" stroke="#f00" stroke-linecap="round" stroke-linejoin="round" stroke-width=".7559"/>
  <path d="m460.81-14.281 9.649 5.5664" fill="#ffd5d5" fill-rule="evenodd" stroke="#f00" stroke-dasharray="1.5118, 1.5118" stroke-dashoffset="3.2504" stroke-linecap="round" stroke-linejoin="round" stroke-width=".7559"/>
  <path d="m460.81-14.281-9.6485 5.5664" fill="#ffd5d5" fill-rule="evenodd" stroke="#f00" stroke-dasharray="2.2677, 2.2677" stroke-dashoffset="1.1338" stroke-linecap="round" stroke-linejoin="round" stroke-width=".7559"/>
  <path d="m460.81-14.281s0.32568-11.974 0-11.132" fill="#ffd5d5" fill-rule="evenodd" stroke="#f00" stroke-dasharray="2.2677, 2.2677" stroke-dashoffset="4.0063" stroke-linecap="round" stroke-linejoin="round" stroke-width=".7559"/>
 </g>
 <g transform="translate(.88036 -14.549)" stroke-linecap="round" stroke-linejoin="round">
  <g transform="matrix(.77314 0 0 .77055 -99.154 -3.7711)" fill="url(#linearGradient2376)" stroke="#67977f" stroke-width="2.5784">
   <path d="m568.07 52.086-49.921-28.894v-57.788l49.921 28.894z" color="#260000"/>
   <path d="m630.47-56.267-49.921-28.894-49.921 28.894 49.921 28.894z" color="#260000"/>
   <path d="m593.03 52.086 49.921-28.894v-57.788l-49.921 28.894z" color="#260000"/>
  </g>
  <path d="m388.29-47.128 9.6488 16.699-38.596 22.264-9.6488-16.699z" color="#260000" fill="url(#linearGradient1275-2)" stroke="#67977f" stroke-width="1.8898"/>
  <path d="m340.04-8.1649-38.596-22.264 9.6488-16.699 38.596 22.264z" color="#260000" fill="url(#linearGradient1275-2)" stroke="#67977f" stroke-width="1.8898"/>
  <path d="m359.34-8.1649v44.529h-19.298v-44.529z" color="#260000" fill="url(#linearGradient1275-2)" stroke="#67977f" stroke-width="1.8898"/>
  <path d="m340.04-8.1649 19.298 7.2e-6 -9.6488-16.699z" fill="none" fill-rule="evenodd" stroke="#f00" stroke-width="1.89"/>
 </g>
 <g transform="matrix(.2917 0 0 .28875 499.79 -73.759)" fill="#1f638a" stroke="#1f638a" stroke-linecap="round" stroke-linejoin="round" stroke-width="1.3023">
  <path d="m207.49 126.25 34.17 21.614-34.17 21.614z"/>
  <rect x="172.19" y="137.99" width="39.213" height="19.761"/>
 </g>
 <path d="m348.54 2.4085 6.2254-5.147 6.9023 14.13 6.2932-3.0742-6.9023-14.13 7.4286-1.523-19.542-14.716z" fill="#fff" stroke="#000" stroke-linecap="round" stroke-linejoin="round" stroke-width=".7559"/>
 <g transform="matrix(.99999 0 0 .99999 248.9 67.887)">
  <ellipse cx="-13.718" cy="-98.798" rx="13.199" ry="13.469" fill="#1f638a" stroke-linecap="round" stroke-linejoin="round" stroke-width="1.0658"/>
  <text x="-19.559933" y="-91.125885" fill="#000000" font-family="'Arial Nova', 'Arial Unicode MS', 'Yu Gothic UI', sans-serif" font-size="12.8px" letter-spacing="0px" stroke-width="1.0667" word-spacing="0px" style="line-height:0%" xml:space="preserve"><tspan x="-19.559933" y="-91.125885" fill="#ffffff" font-family="'Arial Nova', 'Arial Unicode MS', 'Yu Gothic UI', sans-serif" font-size="21.333px" stroke="#ffffff" stroke-width="1.0667" style="line-height:1.25">2</tspan></text>
 </g>
 <g transform="matrix(.99999 0 0 .99999 366.77 96.531)">
  <ellipse cx="17.483" cy="-98.798" rx="13.199" ry="13.469" fill="#1f638a" stroke-linecap="round" stroke-linejoin="round" stroke-width="1.0658"/>
  <text x="11.641406" y="-91.256096" fill="#000000" font-family="'Arial Nova', 'Arial Unicode MS', 'Yu Gothic UI', sans-serif" font-size="12.8px" letter-spacing="0px" stroke-width="1.0667" word-spacing="0px" style="line-height:0%" xml:space="preserve"><tspan x="11.641406" y="-91.256096" fill="#ffffff" font-family="'Arial Nova', 'Arial Unicode MS', 'Yu Gothic UI', sans-serif" font-size="21.333px" stroke="#ffffff" stroke-width="1.0667" style="line-height:1.25">3</tspan></text>
 </g>
 <g transform="matrix(.99999 0 0 .99999 112.31 -177.78)">
  <g transform="translate(354.56 247.34)">
   <ellipse cx="48.684" cy="-98.798" rx="13.199" ry="13.469" fill="#1f638a" stroke-linecap="round" stroke-linejoin="round" stroke-width="1.0658"/>
   <text x="42.842751" y="-91.162346" fill="#000000" font-family="'Arial Nova', 'Arial Unicode MS', 'Yu Gothic UI', sans-serif" font-size="12.8px" letter-spacing="0px" stroke-width="1.0667" word-spacing="0px" style="line-height:0%" xml:space="preserve"><tspan x="42.842751" y="-91.162346" fill="#ffffff" font-family="'Arial Nova', 'Arial Unicode MS', 'Yu Gothic UI', sans-serif" font-size="21.333px" stroke="#ffffff" stroke-width="1.0667" style="line-height:1.25">4</tspan></text>
  </g>
 </g>
</svg>
