<?xml version="1.0" encoding="UTF-8"?>
<!-- Created with Inkscape (http://www.inkscape.org/) -->
<svg xmlns="http://www.w3.org/2000/svg" width="18cm" height="3.5cm" version="1.1" viewBox="0 0 180 35">
 <g transform="matrix(.07718 0 0 .076397 45.328 6.0677)" fill="#1f638a" stroke="#1f638a" stroke-linecap="round" stroke-linejoin="round" stroke-width="1.3023">
  <path d="m207.49 126.25 34.17 21.614-34.17 21.614z"/>
  <rect x="172.19" y="137.99" width="39.213" height="19.761"/>
 </g>
 <g transform="matrix(.07718 0 0 .076397 107.22 5.2802)" fill="#1f638a" stroke="#1f638a" stroke-linecap="round" stroke-linejoin="round" stroke-width="1.3023">
  <path d="m207.49 126.25 34.17 21.614-34.17 21.614z"/>
  <rect x="172.19" y="137.99" width="39.213" height="19.761"/>
 </g>
 <g transform="translate(.59722 -10.177)" stroke="#000" stroke-linecap="round" stroke-linejoin="round">
  <path d="m49.927 37.544h-44.266" stroke-dasharray="3.032, 0.758, 0.379, 0.758" stroke-width=".379"/>
  <path d="m10.012 15.975v15.863h13.05l9.3938-9.3938h17.381v14.906" fill="none" style="paint-order:stroke fill markers"/>
 </g>
 <path d="m6.9505 14.307 1.3421 5.5554h-2.6841z" fill="#0f0" stroke="#0f0" stroke-linecap="round" stroke-linejoin="round" stroke-width=".5"/>
 <path d="m6.938 16.834 0.04629 10.511" fill="#0f0" stroke="#0f0" stroke-linecap="round" stroke-linejoin="round" stroke-width=".5"/>
 <g transform="matrix(.23216 -.12692 .12692 .23216 -164.21 51.95)" fill="#f00" stroke="#f00" stroke-linecap="round" stroke-linejoin="round" stroke-width="1.8898">
  <path d="m651.42 250.5-20.955-5.6764 5.0731-8.7851z"/>
  <path d="m641.09 244.84-28.882-15.871"/>
 </g>
 <text x="18.067921" y="26.009953" fill="#000000" font-family="'Arial Nova', 'Arial Unicode MS', 'Yu Gothic UI', sans-serif" font-size="3.3867px" letter-spacing="0px" stroke-width=".28222" word-spacing="0px" style="line-height:0%" xml:space="preserve"><tspan x="18.067921" y="26.009953" fill="#ff0000" font-family="'Arial Nova', 'Arial Unicode MS', 'Yu Gothic UI', sans-serif" font-size="2.8222px" stroke="#ff0000" stroke-width=".28222" style="line-height:1.25">X</tspan></text>
 <g transform="translate(1.9969 -8.9958)" stroke-linecap="round" stroke-linejoin="round">
  <path d="m109.79 36.475h-44.266" stroke="#000" stroke-dasharray="3.032, 0.758, 0.379, 0.758" stroke-width=".379"/>
  <path d="m70.157 14.794v15.863h13.05l9.3938-9.3938m17.381 0v14.906" fill="none" stroke="#000" style="paint-order:stroke fill markers"/>
  <path d="m92.601 21.263h17.381" fill="#f00" stroke="#f00" style="paint-order:stroke fill markers"/>
 </g>
 <path d="m96.437 18.619 1.6471-1.3618 1.8262 3.7385 1.6651-0.8134-1.8262-3.7385 1.9655-0.40296-5.1705-3.8935z" fill="#fff" stroke="#000" stroke-linecap="round" stroke-linejoin="round" stroke-width=".2"/>
 <ellipse cx="106.14" cy="16.844" rx="3.4922" ry="3.5636" fill="#1f638a" stroke-linecap="round" stroke-linejoin="round" stroke-width=".28199"/>
 <text x="104.59254" y="18.873919" fill="#000000" font-family="'Arial Nova', 'Arial Unicode MS', 'Yu Gothic UI', sans-serif" font-size="3.3866px" letter-spacing="0px" stroke-width=".28223" word-spacing="0px" style="line-height:0%" xml:space="preserve"><tspan x="104.59254" y="18.873919" fill="#ffffff" font-family="'Arial Nova', 'Arial Unicode MS', 'Yu Gothic UI', sans-serif" font-size="5.6443px" stroke="#ffffff" stroke-width=".28223" style="line-height:1.25">1</tspan></text>
 <g transform="translate(3.0213 -8.9913)" stroke-linecap="round" stroke-linejoin="round">
  <path d="m170.09 36.475h-44.266" stroke="#000" stroke-dasharray="3.032, 0.758, 0.379, 0.758" stroke-width=".379"/>
  <path d="m130.18 14.906v15.863h13.05" fill="none" stroke="#000" style="paint-order:stroke fill markers"/>
  <path d="m152.62 21.375h17.381" fill="none" stroke="#f00" style="paint-order:stroke fill markers"/>
  <path d="m143.23 30.769 9.3938-9.3938" fill="none" stroke="#f00" stroke-dasharray="0.179, 0.358" stroke-width=".179" style="paint-order:stroke fill markers"/>
  <path d="m170 21.375v14.906" fill="none" stroke="#f00" stroke-dasharray="0.179, 0.358" stroke-width=".179" style="paint-order:stroke fill markers"/>
  <path d="m143.03 30.939v-4.9045" fill="none" stroke="#666" stroke-width=".25"/>
  <path d="m143.03 30.889 4.6796 0.01393" fill="none" stroke="#666" stroke-width=".25"/>
  <circle cx="143.01" cy="30.85" r="1.2192" color="#000000" fill="#fd7326" stroke="#c95b20" stroke-width=".25"/>
  <path d="m147.39 30.466v0.90226c3.0014 0.01621 6.0164 0.0073 9.0295 0.0068v-0.8888c-3.1458 0.05371-6.3344-0.07097-9.0295-0.02023z" color="#000000" fill="#3dda3d" stroke="#178d17" stroke-width=".2"/>
  <path d="m156.58 30.934 1.2924 0.0043" fill="none" stroke="#666" stroke-width=".25"/>
  <path d="m143.47 17.702v8.4002h-0.87667v-8.4002z" fill="#f04e4e" stroke="#aa1010" stroke-width=".25"/>
  <path d="m143.03 17.515v-1.8067" fill="none" stroke="#666" stroke-width=".25"/>
  <ellipse transform="rotate(-2)" cx="142.48" cy="18.737" rx="1.0691" ry="1" fill="#f00" stroke="#f00" stroke-width="1.0011"/>
 </g>
 <path d="m145.94 28.334 1.6471-1.3618 1.8262 3.7385 1.6651-0.8134-1.8262-3.7385 1.9655-0.40296-5.1705-3.8935z" fill="#fff" stroke="#000" stroke-linecap="round" stroke-linejoin="round" stroke-width=".2"/>
 <g transform="matrix(.26458 0 0 .26458 158.88 52.919)">
  <ellipse cx="-13.718" cy="-98.798" rx="13.199" ry="13.469" fill="#1f638a" stroke-linecap="round" stroke-linejoin="round" stroke-width="1.0658"/>
  <text x="-19.559933" y="-91.125885" fill="#000000" font-family="'Arial Nova', 'Arial Unicode MS', 'Yu Gothic UI', sans-serif" font-size="12.8px" letter-spacing="0px" stroke-width="1.0667" word-spacing="0px" style="line-height:0%" xml:space="preserve"><tspan x="-19.559933" y="-91.125885" fill="#ffffff" font-family="'Arial Nova', 'Arial Unicode MS', 'Yu Gothic UI', sans-serif" font-size="21.333px" stroke="#ffffff" stroke-width="1.0667" style="line-height:1.25">2</tspan></text>
 </g>
</svg>
