<?xml version="1.0" encoding="UTF-8"?>
<svg width="18cm" height="7cm" version="1.1" xmlns="http://www.w3.org/2000/svg" xmlns:osb="http://www.openswatchbook.org/uri/2009/osb" xmlns:xlink="http://www.w3.org/1999/xlink">
 <defs>
  <linearGradient id="linearGradient10291" x1="561.32" x2="645.26" y1="55.356" y2="344.19" gradientTransform="matrix(.73353 0 0 .73353 79.686 157.64)" gradientUnits="userSpaceOnUse">
   <stop style="stop-color:#fff" offset="0"/>
   <stop style="stop-color:#00385e" offset="1"/>
  </linearGradient>
  <linearGradient id="linearGradient10316" x1="560.29" x2="561" y1="344.11" y2="46.184" gradientTransform="matrix(.73353 0 0 .73353 -121.67 157.64)" gradientUnits="userSpaceOnUse">
   <stop style="stop-color:#ff8500" offset="0"/>
   <stop style="stop-color:#fff" offset="1"/>
  </linearGradient>
  <linearGradient id="linearGradient10319" x1="304.18" x2="309.67" y1="95.389" y2="279.1" gradientTransform="matrix(.73353 0 0 .73353 128.32 127.94)" gradientUnits="userSpaceOnUse">
   <stop style="stop-color:#fff" offset="0"/>
   <stop style="stop-color:#00385e" offset="1"/>
  </linearGradient>
  <linearGradient id="linearGradient10323" x1="177.58" x2="280.34" y1="198.83" y2="383.31" gradientTransform="matrix(.73353 0 0 .73353 127.28 129.77)" gradientUnits="userSpaceOnUse">
   <stop style="stop-color:#fff" offset="0"/>
   <stop style="stop-color:#00385e" offset="1"/>
  </linearGradient>
  <linearGradient id="linearGradient10330" x1="259.86" x2="262.13" y1="399.05" y2="93.783" gradientTransform="matrix(.73353 0 0 .73353 -78.332 126.5)" gradientUnits="userSpaceOnUse">
   <stop style="stop-color:#ff8500" offset="0"/>
   <stop style="stop-color:#fff" offset="1"/>
  </linearGradient>
 </defs>
 <g transform="translate(0 -160.63)">
  <path d="m37.291 407.3h107.76c0.37737-68.598 7.3271-137.97 45.581-211.02h-107.48c-36.053 69.016-44.811 139.77-45.862 211.02z" style="fill:url(#linearGradient10330);stroke-linecap:round;stroke-linejoin:round;stroke-width:1.8886;stroke:#b6b6b6"/>
  <path d="m136.89 195.99c-30.584 60.735-47.98 129.86-45.581 211.59" style="fill:none;stroke-linecap:round;stroke-linejoin:round;stroke-width:.75543;stroke:#b6b6b6"/>
  <path d="m47.701 295.6h107.48" style="fill:none;stroke-linecap:round;stroke-linejoin:round;stroke-width:.75543;stroke:#b6b6b6"/>
  <path d="m83.125 196.14h61.151c-50.012 79.4-22.424 139.82 5.3791 134.52-4.0713 16.57-4.7001 50.551-4.8128 75.827h-17.27c0.80781-38.299 5.8543-85.754-10.192-86.218-19.096-0.31422-22.369 35.851-24.63 55.045h-11.891c1.0349-28.138 0.18378-54.528-10.97-54.553-1.2032-0.0585-6.9362-0.57933-9.6965 3.1594l-6.2284-52.798c6.7469-25.838 17.147-50.64 29.16-74.984z" style="fill:none;stroke-dasharray:2.2662992, 2.2662992;stroke-linecap:round;stroke-linejoin:round;stroke-width:.75543;stroke:#f00"/>
  <path d="m259.46 274.96c-12.066 44.784-15.902 90.099-16.573 135.61h90.843c0.84111-38.608 5.8604-86.203-10.292-86.671-19.287-0.3173-22.587 36.205-24.871 55.588h-12.011c1.0452-28.415 0.17097-55.08-11.095-55.106-1.2152-0.0591-7.0001-0.56636-9.788 3.2092z" style="fill:url(#linearGradient10323);stroke-linecap:round;stroke-linejoin:round;stroke-width:1.8886;stroke:#7d7d7d"/>
  <path d="m351.03 197.71c-49.005 78.654-22.609 138.58 4.9742 134.99 5.4035-44.016 17.077-88.764 41.284-134.99z" style="fill:url(#linearGradient10319);stroke-linecap:round;stroke-linejoin:round;stroke-width:1.8886;stroke:#7d7d7d"/>
  <path d="m289.22 197.74h61.762c-50.511 80.18-22.647 141.19 5.4327 135.85-4.1119 16.733-4.747 51.048-4.8609 76.573h-17.442c0.81586-38.676 5.9127-86.597-10.294-87.066-19.287-0.31729-22.592 36.203-24.876 55.586h-12.009c1.0452-28.415 0.18563-55.064-11.08-55.09-1.2152-0.0591-7.0054-0.58502-9.7932 3.1905l-6.2906-53.317c6.8142-26.092 17.318-51.138 29.451-75.722z" style="fill:url(#linearGradient10316);stroke-linecap:round;stroke-linejoin:round;stroke-width:1.8886;stroke:#7d7d7d"/>
  <path d="m302.03 356.75h32.727" style="fill:none;stroke-linecap:round;stroke-linejoin:round;stroke-width:.75543;stroke:#7d7d7d"/>
  <path d="m342.88 198.46c-26.664 52.949-43.303 112.28-45.542 180.77" style="fill:none;stroke-linecap:round;stroke-linejoin:round;stroke-width:.75543;stroke:#7d7d7d"/>
  <path d="m262.49 298.07h62.003" style="fill:none;stroke-linecap:round;stroke-linejoin:round;stroke-width:.75543;stroke:#7d7d7d"/>
  <path d="m328.51 248.19h46.732" style="fill:none;stroke-linecap:round;stroke-linejoin:round;stroke-width:.75543;stroke:#7d7d7d"/>
  <path d="m245.49 356.75h40.864" style="fill:none;stroke-linecap:round;stroke-linejoin:round;stroke-width:.75543;stroke:#7d7d7d"/>
  <path d="m372.22 198.46c-18.662 37.059-32.413 77.242-39.754 121.51" style="fill:none;stroke-linecap:round;stroke-linejoin:round;stroke-width:.75543;stroke:#7d7d7d"/>
  <path d="m287.06 379.44c-0.32275 10.006-0.33826 20.207-0.0328 30.613" style="fill:none;stroke-linecap:round;stroke-linejoin:round;stroke-width:.75543;stroke:#7d7d7d"/>
  <g transform="matrix(.73353 0 0 .73353 -82.317 144.64)">
   <path d="m203.5 189.22 20.115 2.3427-3.2878 8.9243c-8.7782-5.0291-16.827-11.267-16.827-11.267z" style="fill:#f00;stroke-linecap:round;stroke-linejoin:round;stroke-width:2.5747;stroke:#f00"/>
   <path d="m216.48 194.05c42.634 15.707 31.12 11.312 31.12 11.312" style="fill:#f00;stroke-linecap:round;stroke-linejoin:round;stroke-width:2.5747;stroke:#f00"/>
  </g>
  <g transform="matrix(.71263 .17383 -.17383 .71263 -5.3223 5.8345)">
   <path d="m203.5 189.22 20.115 2.3427-3.2878 8.9243c-8.7782-5.0291-16.827-11.267-16.827-11.267z" style="fill:#f00;stroke-linecap:round;stroke-linejoin:round;stroke-width:2.5747;stroke:#f00"/>
   <path d="m216.48 194.05c42.634 15.707 31.12 11.312 31.12 11.312" style="fill:#f00;stroke-linecap:round;stroke-linejoin:round;stroke-width:2.5747;stroke:#f00"/>
  </g>
  <g transform="matrix(.73145 .055099 -.055099 .73145 -55.801 79.858)">
   <path d="m203.5 189.22 20.115 2.3427-3.2878 8.9243c-8.7782-5.0291-16.827-11.267-16.827-11.267z" style="fill:#f00;stroke-linecap:round;stroke-linejoin:round;stroke-width:2.5747;stroke:#f00"/>
   <path d="m216.48 194.05c42.634 15.707 31.12 11.312 31.12 11.312" style="fill:#f00;stroke-linecap:round;stroke-linejoin:round;stroke-width:2.5747;stroke:#f00"/>
  </g>
  <g transform="matrix(.72232 -.12771 .12771 .72232 -113.75 233.73)">
   <path d="m203.5 189.22 20.115 2.3427-3.2878 8.9243c-8.7782-5.0291-16.827-11.267-16.827-11.267z" style="fill:#f00;stroke-linecap:round;stroke-linejoin:round;stroke-width:2.5747;stroke:#f00"/>
   <path d="m216.48 194.05c42.634 15.707 31.12 11.312 31.12 11.312" style="fill:#f00;stroke-linecap:round;stroke-linejoin:round;stroke-width:2.5747;stroke:#f00"/>
  </g>
  <g transform="matrix(.69185 -.24372 .24372 .69185 -131.33 325.28)">
   <path d="m203.5 189.22 20.115 2.3427-3.2878 8.9243c-8.7782-5.0291-16.827-11.267-16.827-11.267z" style="fill:#f00;stroke-linecap:round;stroke-linejoin:round;stroke-width:2.5747;stroke:#f00"/>
   <path d="m216.48 194.05c42.634 15.707 31.12 11.312 31.12 11.312" style="fill:#f00;stroke-linecap:round;stroke-linejoin:round;stroke-width:2.5747;stroke:#f00"/>
  </g>
  <path d="m490.57 197.74h61.762c-50.511 80.18-22.647 141.19 5.4327 135.85-4.1119 16.733-4.747 51.048-4.8608 76.573h-17.442c0.81586-38.676 5.9127-86.597-10.294-87.066-19.287-0.31729-22.592 36.203-24.876 55.586h-12.009c1.0452-28.415 0.18562-55.064-11.08-55.09-1.2152-0.0591-7.0054-0.58502-9.7932 3.1905l-6.2906-53.317c6.8142-26.092 17.318-51.137 29.451-75.722z" style="fill:url(#linearGradient10291);stroke-linecap:round;stroke-linejoin:round;stroke-width:1.8886;stroke:#7d7d7d"/>
  <path d="m532.34 198.46c-26.664 52.949-43.303 112.28-45.542 180.77" style="fill:none;stroke-linecap:round;stroke-linejoin:round;stroke-width:.75543;stroke:#7d7d7d"/>
  <path d="m464.16 298.07h61.9" style="fill:none;stroke-linecap:round;stroke-linejoin:round;stroke-width:.75543;stroke:#7d7d7d"/>
  <path d="m26.977 193.69h62.684c-1.1949 84.889 5.4491 139.09 35.59 138.96-0.47964 17.116 0.10705 52.218-9e-3 78.327h-22.627c-1.8396-39.972 4.7697-87.145-17.629-87.625-22.242-0.32459-17.594 35.392-18.065 55.424h-12.188c1.0608-29.066 1.2144-55.095-11.245-56.352-0.05346 0.0934-5.417-1.06-9.9394 3.2636l-6.3845-54.539c0.34941-27.51-0.18707-49.027-0.18538-77.457z" style="fill:none;stroke-linecap:round;stroke-linejoin:round;stroke-width:3.7772;stroke:#f00"/>
  <g transform="matrix(1.066 0 0 1.066 -926.37 -41.687)">
   <ellipse transform="translate(885.77 84.149)" cx="41.164" cy="184.28" rx="12.374" ry="12.627" style="fill:#1f638a;stroke-linecap:round;stroke-linejoin:round;stroke-width:.99921"/>
   <text x="921.45575" y="275.61166" style="fill:#000000;font-family:'Arial Nova', 'Arial Unicode MS', 'Yu Gothic UI', sans-serif;letter-spacing:0px;line-height:0%;word-spacing:0px" xml:space="preserve"><tspan x="921.45575" y="275.61166" style="fill:#ffffff;font-family:'Arial Nova', 'Arial Unicode MS', 'Yu Gothic UI', sans-serif;font-size:20px;font-weight:bold;line-height:1.25">1</tspan></text>
  </g>
  <g transform="matrix(.31096 0 0 .3078 143.48 254.92)" style="fill:#1f638a;stroke-linecap:round;stroke-linejoin:round;stroke-width:1.2209;stroke:#1f638a">
   <path d="m194.52 118.36 32.034 20.263-32.034 20.263z" style="fill:#1f638a;stroke-linecap:round;stroke-linejoin:round;stroke-width:1.2209;stroke:#1f638a"/>
   <rect x="161.43" y="129.36" width="36.762" height="18.526" style="fill:#1f638a;stroke-linecap:round;stroke-linejoin:round;stroke-width:1.2209;stroke:#1f638a"/>
  </g>
  <path d="m283.63 270.29 6.2214-5.1437 6.898 14.121 6.2893-3.0723-6.898-14.121 7.424-1.522-19.53-14.707z" style="fill:#fff;stroke-linecap:round;stroke-linejoin:round;stroke-width:.75543;stroke:#000"/>
  <g transform="matrix(1.066 0 0 1.066 -781.77 -41.687)">
   <ellipse transform="translate(885.77 84.149)" cx="41.164" cy="184.28" rx="12.374" ry="12.627" style="fill:#1f638a;stroke-linecap:round;stroke-linejoin:round;stroke-width:.99921"/>
   <text x="921.45575" y="275.61166" style="fill:#000000;font-family:'Arial Nova', 'Arial Unicode MS', 'Yu Gothic UI', sans-serif;letter-spacing:0px;line-height:0%;word-spacing:0px" xml:space="preserve"><tspan x="921.45575" y="275.61166" style="fill:#ffffff;font-family:'Arial Nova', 'Arial Unicode MS', 'Yu Gothic UI', sans-serif;font-size:20px;font-weight:bold;line-height:1.25">2</tspan></text>
  </g>
  <g transform="matrix(.31096 0 0 .3078 358.23 250.98)" style="fill:#1f638a;stroke-linecap:round;stroke-linejoin:round;stroke-width:1.2209;stroke:#1f638a">
   <path d="m194.52 118.36 32.034 20.263-32.034 20.263z" style="fill:#1f638a;stroke-linecap:round;stroke-linejoin:round;stroke-width:1.2209;stroke:#1f638a"/>
   <rect x="161.43" y="129.36" width="36.762" height="18.526" style="fill:#1f638a;stroke-linecap:round;stroke-linejoin:round;stroke-width:1.2209;stroke:#1f638a"/>
  </g>
  <g transform="matrix(1.066 0 0 1.066 -835.1 -97.467)">
   <ellipse transform="translate(885.77 84.149)" cx="41.164" cy="184.28" rx="12.374" ry="12.627" style="fill:#1f638a;stroke-linecap:round;stroke-linejoin:round;stroke-width:.99921"/>
   <text x="921.45575" y="275.61166" style="fill:#000000;font-family:'Arial Nova', 'Arial Unicode MS', 'Yu Gothic UI', sans-serif;letter-spacing:0px;line-height:0%;word-spacing:0px" xml:space="preserve"><tspan x="921.45575" y="275.61166" style="fill:#ffffff;font-family:'Arial Nova', 'Arial Unicode MS', 'Yu Gothic UI', sans-serif;font-size:20px;font-weight:bold;line-height:1.25">3</tspan></text>
  </g>
  <g transform="matrix(1.066 0 0 1.066 -669.81 -26.112)">
   <ellipse transform="translate(885.77 84.149)" cx="41.164" cy="184.28" rx="12.374" ry="12.627" style="fill:#1f638a;stroke-linecap:round;stroke-linejoin:round;stroke-width:.99921"/>
   <text x="921.45575" y="275.61166" style="fill:#000000;font-family:'Arial Nova', 'Arial Unicode MS', 'Yu Gothic UI', sans-serif;letter-spacing:0px;line-height:0%;word-spacing:0px" xml:space="preserve"><tspan x="921.45575" y="275.61166" style="fill:#ffffff;font-family:'Arial Nova', 'Arial Unicode MS', 'Yu Gothic UI', sans-serif;font-size:20px;font-weight:bold;line-height:1.25">4</tspan></text>
  </g>
  <path d="m27.206 247.72 6.2215-5.1437 6.898 14.121 6.2893-3.0723-6.898-14.121 7.424-1.522-19.53-14.707z" style="fill:#fff;stroke-linecap:round;stroke-linejoin:round;stroke-width:.75543;stroke:#000"/>
  <path d="m169.99 253.36 6.2215-5.1437 6.898 14.121 6.2893-3.0723-6.898-14.121 7.424-1.522-19.53-14.707z" style="fill:#fff;stroke-linecap:round;stroke-linejoin:round;stroke-width:.75543;stroke:#000"/>
 </g>
</svg>
