<?xml version="1.0" encoding="UTF-8"?>
<svg width="18cm" height="6cm" version="1.1" xmlns="http://www.w3.org/2000/svg" xmlns:osb="http://www.openswatchbook.org/uri/2009/osb" xmlns:xlink="http://www.w3.org/1999/xlink">
 <defs>
  <linearGradient id="linearGradient20011" x1="191.34" x2="188.23" y1="20.682" y2="176.73" gradientTransform="matrix(1.0667 0 0 1.0667 13.229 160.81)" gradientUnits="userSpaceOnUse">
   <stop style="stop-color:#fff" offset="0"/>
   <stop style="stop-color:#808080" offset="1"/>
  </linearGradient>
 </defs>
 <g transform="translate(0 -226.77)">
  <g transform="translate(10.016 217.6)">
   <path d="m273.95 154.82c5.5834 19.725 7.7238 35.79 20.677 35.317 12.954-0.47328 15.522-15.056 16.775-34.295m44.652-0.0107c3.148 19.244 2.5819 33.832 16.607 34.306 14.025 0.47327 14.131-16.32 15.455-36.69" style="fill:none;stroke-linecap:round;stroke-linejoin:round;stroke-width:3.7795;stroke:#000"/>
   <path d="m241.76 165.81c5.5834 19.725 7.7238 35.79 20.677 35.317 12.954-0.47328 15.522-15.056 16.775-34.295m44.652-0.0107c3.148 19.244 2.5819 33.832 16.607 34.306 14.025 0.47327 14.131-16.32 15.455-36.69" style="fill:none;stroke-linecap:round;stroke-linejoin:round;stroke-width:3.7795;stroke:#000"/>
   <path d="m303.54 143.89c5.5834 19.725 7.7238 35.79 20.677 35.317 12.954-0.47328 15.522-15.056 16.775-34.295m44.652-0.0107c3.148 19.244 2.5819 33.832 16.607 34.306 14.025 0.47327 14.131-16.32 15.455-36.69" style="fill:none;stroke-linecap:round;stroke-linejoin:round;stroke-width:3.7795;stroke:#000"/>
   <g transform="matrix(.85451 .49339 -1.6823 .70106 173.02 -50.484)">
    <rect transform="rotate(-35.114)" x="175.36" y="212.75" width="94.667" height="51.2" style="fill:url(#linearGradient20011);stroke-linecap:round;stroke-linejoin:round;stroke-width:1.5808;stroke:#7d7d7d"/>
    <path d="m280.33 94.258 77.657-54.606" style="fill:none;stroke-linecap:round;stroke-linejoin:round;stroke-width:.63232;stroke:#7d7d7d"/>
    <path d="m304.23 45.501 29.91 42.537" style="fill:none;stroke-linecap:round;stroke-linejoin:round;stroke-width:.63232;stroke:#7d7d7d"/>
   </g>
   <path d="m231.81 175.48 45.064-43.84 156.89 0.33466-45.426 43.84z" style="fill:none;stroke-linecap:round;stroke-linejoin:round;stroke-width:3.7795;stroke:#f00"/>
   <path d="m281.48 164.48c2.5973-29.285 5.6349-59.951 22.63-59.004 16.995 0.94656 15.995 29.328 17.993 58.425" style="fill:none;stroke-linecap:round;stroke-linejoin:round;stroke-width:3.7795;stroke:#000"/>
   <path d="m313.86 153.01c2.5973-29.285 5.635-59.951 22.63-59.004s15.995 29.328 17.993 58.425" style="fill:none;stroke-linecap:round;stroke-linejoin:round;stroke-width:3.7795;stroke:#000"/>
   <path d="m344.12 143.03c2.5973-29.285 5.6349-59.951 22.63-59.004 16.995 0.94656 15.995 29.328 17.993 58.425" style="fill:none;stroke-linecap:round;stroke-linejoin:round;stroke-width:3.7795;stroke:#000"/>
  </g>
  <path d="m254.66 289.25v111.91h193.42v-111.91z" style="fill-opacity:.68182;fill:#fff;stroke-linecap:round;stroke-linejoin:round;stroke-width:.75591;stroke:#000"/>
  <path d="m254.85 314.42 6.2254-5.147 6.9023 14.13 6.2932-3.0742-6.9023-14.13 7.4286-1.523-19.542-14.716z" style="fill:#fff;stroke-linecap:round;stroke-linejoin:round;stroke-width:.75591;stroke:#000"/>
  <path d="m255.18 289.23c10.039-44.495 229.78-89.473 196.62 95.929" style="fill:none;stroke-dasharray:1.06582679, 2.13165355;stroke-width:1.0658;stroke:#000"/>
  <path d="m448.4 425.71 6.2254-5.147 6.9023 14.13 6.2932-3.0742-6.9023-14.13 7.4286-1.523-19.542-14.716z" style="fill:#fff;stroke-linecap:round;stroke-linejoin:round;stroke-width:.75591;stroke:#000"/>
  <text x="247.27864" y="296.93515" style="fill:#000000;font-family:'Arial Nova', 'Arial Unicode MS', 'Yu Gothic UI', sans-serif;font-size:12.8px;font-weight:bold;letter-spacing:0px;line-height:0%;stroke-width:1.0667;word-spacing:0px" xml:space="preserve"><tspan x="247.27864" y="296.93515" style="stroke-width:1.0667">1</tspan></text>
  <text x="438.58356" y="397.0766" style="fill:#000000;font-family:'Arial Nova', 'Arial Unicode MS', 'Yu Gothic UI', sans-serif;font-size:12.8px;font-weight:bold;letter-spacing:0px;line-height:0%;stroke-width:1.0667;word-spacing:0px" xml:space="preserve"><tspan x="438.58356" y="397.0766" style="stroke-width:1.0667">2</tspan></text>
  <ellipse transform="matrix(.9993 -.037301 .032652 .99947 0 0)" cx="339.74" cy="358.03" rx="5.2921" ry="5.2904" style="fill:#fff;stroke-dasharray:0.75590961, 1.5118192;stroke-linecap:round;stroke-linejoin:round;stroke-width:.75591;stroke:#000"/>
  <path d="m448.39 400.58 8.3094-16.201-10.966-1.0956z" style="fill:none;stroke-dasharray:1.06582679, 1.06582679;stroke-width:1.0658;stroke:#000"/>
  <g transform="translate(14.933 217.6)">
   <g transform="matrix(.85451 .49339 -1.6823 .70106 399.22 -49.713)">
    <rect transform="rotate(-35.114)" x="175.36" y="212.75" width="94.667" height="51.2" style="fill:url(#linearGradient20011);stroke-linecap:round;stroke-linejoin:round;stroke-width:1.5808;stroke:#7d7d7d"/>
    <path d="m280.33 94.258 77.657-54.606" style="fill:none;stroke-linecap:round;stroke-linejoin:round;stroke-width:.63232;stroke:#7d7d7d"/>
    <path d="m304.23 45.501 29.91 42.537" style="fill:none;stroke-linecap:round;stroke-linejoin:round;stroke-width:.63232;stroke:#7d7d7d"/>
   </g>
   <path d="m593.07 82.9c-4.8176-0.26832-8.9032 1.8356-11.9 5.3667-2.9968 3.531-5.1212 8.4184-6.7667 14.167-3.2908 11.496-4.6674 26.551-5.9667 41.2a1.8907 1.8907 0 1 0 3.7667 0.33334c1.298-14.636 2.7072-29.546 5.8333-40.467 1.563-5.4605 3.5662-9.899 6-12.767 2.4338-2.8677 5.1201-4.2383 8.8-4.0333 3.7242 0.20742 6.1969 1.7444 8.2667 4.6333 2.0698 2.889 3.5654 7.2152 4.6 12.5 2.0691 10.57 2.3632 24.922 3.3667 39.533a1.89 1.89 0 1 0 3.7667-0.26667c-0.99471-14.485-1.2207-28.868-3.4-40-1.0896-5.5661-2.6483-10.359-5.2333-13.967-2.585-3.6081-6.36-5.9675-11.133-6.2333z" style="color:#000000;fill:#fff;stroke-linecap:round;stroke-linejoin:round;stroke-width:.37795;stroke:#000;text-decoration-line:none;text-indent:0;text-transform:none"/>
   <path d="m562.8 92.9c-4.8176-0.26832-8.9032 1.8356-11.9 5.3667-2.9968 3.531-5.0879 8.4184-6.7333 14.167-3.2908 11.496-4.7008 26.517-6 41.167a1.8922 1.8922 0 1 0 3.7667 0.36667c1.298-14.636 2.7406-29.579 5.8667-40.5 1.563-5.4605 3.5662-9.899 6-12.767 2.4338-2.8677 5.0867-4.2383 8.7667-4.0333 3.7242 0.20742 6.2302 1.7444 8.3 4.6333 2.0698 2.889 3.5654 7.2152 4.6 12.5 2.0691 10.57 2.3299 24.922 3.3333 39.533a1.89 1.89 0 1 0 3.7667-0.26666c-0.99471-14.485-1.2207-28.868-3.4-40-1.0896-5.5661-2.6483-10.359-5.2333-13.967-2.585-3.6081-6.36-5.9341-11.133-6.2z" style="color:#000000;fill:#fff;stroke-linecap:round;stroke-linejoin:round;stroke-width:.37795;stroke:#000;text-decoration-line:none;text-indent:0;text-transform:none"/>
   <path d="m530.4 104.37c-4.8176-0.26832-8.8699 1.8356-11.867 5.3667-2.9968 3.531-5.1212 8.4184-6.7667 14.167-3.2908 11.496-4.6674 26.517-5.9667 41.167a1.8907 1.8907 0 1 0 3.7667 0.33333c1.298-14.636 2.7072-29.546 5.8333-40.467 1.563-5.4605 3.5662-9.899 6-12.767s5.12-4.2383 8.8-4.0333c3.7242 0.20743 6.1969 1.7444 8.2667 4.6333 2.0698 2.889 3.5654 7.2152 4.6 12.5 2.0691 10.57 2.3632 24.922 3.3667 39.533a1.89 1.89 0 1 0 3.7667-0.26667c-0.99471-14.485-1.2207-28.868-3.4-40-1.0896-5.5661-2.6816-10.359-5.2667-13.967-2.585-3.6081-6.36-5.9342-11.133-6.2z" style="color:#000000;fill:#fff;stroke-linecap:round;stroke-linejoin:round;stroke-width:.37795;stroke:#000;text-decoration-line:none;text-indent:0;text-transform:none"/>
  </g>
  <g transform="translate(0,217.6)">
   <path d="m53.09 155.22c5.5834 19.725 7.7238 35.79 20.677 35.317 12.954-0.47328 15.522-15.056 16.775-34.295m44.652-0.0107c3.148 19.244 2.5819 33.832 16.607 34.306 14.025 0.47327 14.131-16.32 15.455-36.69" style="fill:none;stroke-linecap:round;stroke-linejoin:round;stroke-width:3.7795;stroke:#000"/>
   <path d="m20.901 166.21c5.5834 19.725 7.7238 35.79 20.677 35.317 12.954-0.47328 15.522-15.056 16.775-34.295m44.652-0.0107c3.148 19.244 2.5819 33.832 16.607 34.306 14.025 0.47327 14.131-16.32 15.455-36.69" style="fill:none;stroke-linecap:round;stroke-linejoin:round;stroke-width:3.7795;stroke:#000"/>
   <path d="m82.682 144.29c5.5834 19.725 7.7238 35.79 20.677 35.317 12.954-0.47328 15.522-15.056 16.775-34.295m44.652-0.0107c3.148 19.244 2.5819 33.832 16.607 34.306 14.025 0.47327 14.131-16.32 15.455-36.69" style="fill:none;stroke-linecap:round;stroke-linejoin:round;stroke-width:3.7795;stroke:#000"/>
   <g transform="matrix(.85451 .49339 -1.6823 .70106 -47.837 -50.083)">
    <rect transform="rotate(-35.114)" x="175.36" y="212.75" width="94.667" height="51.2" style="fill:url(#linearGradient20011);stroke-linecap:round;stroke-linejoin:round;stroke-width:1.5808;stroke:#7d7d7d"/>
    <path d="m280.33 94.258 77.657-54.606" style="fill:none;stroke-linecap:round;stroke-linejoin:round;stroke-width:.63232;stroke:#7d7d7d"/>
    <path d="m304.23 45.501 29.91 42.537" style="fill:none;stroke-linecap:round;stroke-linejoin:round;stroke-width:.63232;stroke:#7d7d7d"/>
   </g>
   <path d="m10.952 175.88 45.064-43.84 156.89 0.33466-45.426 43.84z" style="fill:none;stroke-linecap:round;stroke-linejoin:round;stroke-width:3.7795;stroke:#f00"/>
   <path d="m60.627 164.88c2.5973-29.285 5.6349-59.951 22.63-59.004 16.995 0.94656 15.995 29.328 17.993 58.425" style="fill:none;stroke-linecap:round;stroke-linejoin:round;stroke-width:3.7795;stroke:#000"/>
   <path d="m93.003 153.41c2.5973-29.285 5.6349-59.951 22.63-59.004 16.995 0.94656 15.995 29.328 17.993 58.425" style="fill:none;stroke-linecap:round;stroke-linejoin:round;stroke-width:3.7795;stroke:#000"/>
   <path d="m123.26 143.43c2.5973-29.285 5.6349-59.951 22.63-59.004 16.995 0.94656 15.995 29.328 17.993 58.425" style="fill:none;stroke-linecap:round;stroke-linejoin:round;stroke-width:3.7795;stroke:#000"/>
   <path d="m142.99 199.96 6.2254-5.1469 6.9023 14.13 6.2932-3.0742-6.9023-14.13 7.4286-1.523-19.542-14.716z" style="fill:#fff;stroke-linecap:round;stroke-linejoin:round;stroke-width:.75591;stroke:#000"/>
  </g>
  <g transform="matrix(.2917 0 0 .28875 169.19 327.1)" style="fill:#1f638a;stroke-linecap:round;stroke-linejoin:round;stroke-width:1.2209;stroke:#1f638a">
   <path d="m207.49 126.25 34.17 21.614-34.17 21.614z" style="fill:#1f638a;stroke-linecap:round;stroke-linejoin:round;stroke-width:1.3023;stroke:#1f638a"/>
   <rect x="172.19" y="137.99" width="39.213" height="19.761" style="fill:#1f638a;stroke-linecap:round;stroke-linejoin:round;stroke-width:1.3023;stroke:#1f638a"/>
  </g>
  <g transform="matrix(.2917 0 0 .28875 403.9 328.38)" style="fill:#1f638a;stroke-linecap:round;stroke-linejoin:round;stroke-width:1.2209;stroke:#1f638a">
   <path d="m207.49 126.25 34.17 21.614-34.17 21.614z" style="fill:#1f638a;stroke-linecap:round;stroke-linejoin:round;stroke-width:1.3023;stroke:#1f638a"/>
   <rect x="172.19" y="137.99" width="39.213" height="19.761" style="fill:#1f638a;stroke-linecap:round;stroke-linejoin:round;stroke-width:1.3023;stroke:#1f638a"/>
  </g>
  <g transform="translate(372.52 400.28)">
   <ellipse cx="111.09" cy="-98.798" rx="13.199" ry="13.469" style="fill:#1f638a;stroke-linecap:round;stroke-linejoin:round;stroke-width:1.0658"/>
   <text x="105.24544" y="-91.256096" style="fill:#000000;font-family:'Arial Nova', 'Arial Unicode MS', 'Yu Gothic UI', sans-serif;font-size:12.8px;letter-spacing:0px;line-height:0%;stroke-width:1.0667;word-spacing:0px" xml:space="preserve"><tspan x="105.24544" y="-91.256096" style="fill:#ffffff;font-family:'Arial Nova', 'Arial Unicode MS', 'Yu Gothic UI', sans-serif;font-size:21.333px;stroke-width:1.0667;stroke:#ffffff">6</tspan></text>
  </g>
 </g>
</svg>
