<?xml version="1.0" encoding="UTF-8"?>
<svg width="18cm" height="4.5cm" version="1.1" xmlns="http://www.w3.org/2000/svg" xmlns:xlink="http://www.w3.org/1999/xlink">
 <defs>
  <linearGradient id="linearGradient8961-2" x1="226.92" x2="322.12" y1="-283.7" y2="-283.7" gradientTransform="matrix(.53854 0 0 .53854 165.47 215.48)" gradientUnits="userSpaceOnUse" xlink:href="#linearGradient8959-7"/>
  <linearGradient id="linearGradient8959-7">
   <stop stop-color="#fff" offset="0"/>
   <stop stop-color="#00385e" offset="1"/>
  </linearGradient>
  <linearGradient id="linearGradient8965-2" x1="382.51" x2="353.68" y1="-258.97" y2="-258.54" gradientTransform="matrix(.53854 0 0 .53854 165.47 215.48)" gradientUnits="userSpaceOnUse" xlink:href="#linearGradient8959-7"/>
  <linearGradient id="linearGradient8967-0" x1="205.39" x2="174" y1="-221.41" y2="-221.83" gradientTransform="matrix(.53854 0 0 .53854 165.47 215.48)" gradientUnits="userSpaceOnUse" xlink:href="#linearGradient8959-7"/>
  <linearGradient id="linearGradient8969-4" x1="200.81" x2="350.21" y1="-241.89" y2="-241.89" gradientTransform="matrix(.53854 0 0 .53854 165.47 215.48)" gradientUnits="userSpaceOnUse" xlink:href="#linearGradient8959-7"/>
  <linearGradient id="linearGradient9023" x1="381.88" x2="525.74" y1="-241.89" y2="-241.89" gradientTransform="matrix(.53854 0 0 .53854 165.47 215.48)" gradientUnits="userSpaceOnUse" xlink:href="#linearGradient8959-7"/>
  <pattern id="pattern13586" patternTransform="matrix(.050583 -.048297 8.6749 9.0856 678.22 83.03)" xlink:href="#pattern9529"/>
  <pattern id="pattern9529" patternTransform="matrix(.047355 -.045348 8.1452 8.5058 491.3 -47.923)" xlink:href="#pattern9496"/>
  <pattern id="pattern9496" patternTransform="matrix(.047355 -.045348 8.1452 8.5058 396.14 -51.594)" xlink:href="#pattern9487"/>
  <pattern id="pattern9487" patternTransform="matrix(.056516 -.039102 6.9938 10.109 354.71 164.31)" xlink:href="#Strips1_64-4"/>
  <pattern id="Strips1_64-4" width="65" height="1" patternTransform="translate(0) scale(10)" patternUnits="userSpaceOnUse">
   <rect y="-.5" width="1" height="2"/>
  </pattern>
  <pattern id="pattern13586-3" patternTransform="matrix(.050583 -.048297 8.6749 9.0856 474.13 24.04)" xlink:href="#pattern9529-8"/>
  <pattern id="pattern9529-8" patternTransform="matrix(.047355 -.045348 8.1452 8.5058 491.3 -47.923)" xlink:href="#pattern9496-6"/>
  <pattern id="pattern9496-6" patternTransform="matrix(.047355 -.045348 8.1452 8.5058 396.14 -51.594)" xlink:href="#pattern9487-9"/>
  <pattern id="pattern9487-9" patternTransform="matrix(.056516 -.039102 6.9938 10.109 354.71 164.31)" xlink:href="#Strips1_64-8"/>
  <pattern id="Strips1_64-8" width="65" height="1" patternTransform="translate(0) scale(10)" patternUnits="userSpaceOnUse">
   <rect y="-.5" width="1" height="2"/>
  </pattern>
  <pattern id="pattern13586-2" patternTransform="matrix(.050583 -.048297 8.6749 9.0856 494.88 98.78)" xlink:href="#pattern9529-3"/>
  <pattern id="pattern9529-3" patternTransform="matrix(.047355 -.045348 8.1452 8.5058 491.3 -47.923)" xlink:href="#pattern9496-8"/>
  <pattern id="pattern9496-8" patternTransform="matrix(.047355 -.045348 8.1452 8.5058 396.14 -51.594)" xlink:href="#pattern9487-2"/>
  <pattern id="pattern9487-2" patternTransform="matrix(.056516 -.039102 6.9938 10.109 354.71 164.31)" xlink:href="#Strips1_64-6"/>
  <pattern id="Strips1_64-6" width="65" height="1" patternTransform="translate(0) scale(10)" patternUnits="userSpaceOnUse">
   <rect y="-.5" width="1" height="2"/>
  </pattern>
  <pattern id="pattern14414" patternTransform="matrix(-.050583 -.048297 -8.6749 9.0856 532.29 83.5)" xlink:href="#pattern13586-82"/>
  <pattern id="pattern13586-2-5" patternTransform="matrix(.050583 -.048297 8.6749 9.0856 581.92 98.76)" xlink:href="#pattern9529-3-7"/>
  <pattern id="pattern9529-3-7" patternTransform="matrix(.047355 -.045348 8.1452 8.5058 491.3 -47.923)" xlink:href="#pattern9496-8-8"/>
  <pattern id="pattern9496-8-8" patternTransform="matrix(.047355 -.045348 8.1452 8.5058 396.14 -51.594)" xlink:href="#pattern9487-2-2"/>
  <pattern id="pattern9487-2-2" patternTransform="matrix(.056516 -.039102 6.9938 10.109 354.71 164.31)" xlink:href="#Strips1_64-6-7"/>
  <pattern id="Strips1_64-6-7" width="65" height="1" patternTransform="translate(0) scale(10)" patternUnits="userSpaceOnUse">
   <rect y="-.5" width="1" height="2"/>
  </pattern>
  <pattern id="pattern13586-3-0" patternTransform="matrix(.050583 -.048297 8.6749 9.0856 561.65 24.18)" xlink:href="#pattern9529-8-2"/>
  <pattern id="pattern9529-8-2" patternTransform="matrix(.047355 -.045348 8.1452 8.5058 491.3 -47.923)" xlink:href="#pattern9496-6-0"/>
  <pattern id="pattern9496-6-0" patternTransform="matrix(.047355 -.045348 8.1452 8.5058 396.14 -51.594)" xlink:href="#pattern9487-9-8"/>
  <pattern id="pattern9487-9-8" patternTransform="matrix(.056516 -.039102 6.9938 10.109 354.71 164.31)" xlink:href="#Strips1_64-8-9"/>
  <pattern id="Strips1_64-8-9" width="65" height="1" patternTransform="translate(0) scale(10)" patternUnits="userSpaceOnUse">
   <rect y="-.5" width="1" height="2"/>
  </pattern>
  <pattern id="pattern13586-82" patternTransform="matrix(.047355 -.045348 8.1452 8.5058 369.94 292.68)" xlink:href="#pattern9529-0"/>
  <pattern id="pattern9529-0" patternTransform="matrix(.047355 -.045348 8.1452 8.5058 491.3 -47.923)" xlink:href="#pattern9496-5"/>
  <pattern id="pattern9496-5" patternTransform="matrix(.047355 -.045348 8.1452 8.5058 396.14 -51.594)" xlink:href="#pattern9487-52"/>
  <pattern id="pattern9487-52" patternTransform="matrix(.056516 -.039102 6.9938 10.109 354.71 164.31)" xlink:href="#Strips1_64-4-7"/>
  <pattern id="Strips1_64-4-7" width="65" height="1" patternTransform="translate(0) scale(10)" patternUnits="userSpaceOnUse">
   <rect y="-.5" width="1" height="2"/>
  </pattern>
  <linearGradient id="linearGradient14574" x1="533.51" x2="707" y1="259.81" y2="294.81" gradientTransform="matrix(1.0667,0,0,1.0667,0,-283.46)" gradientUnits="userSpaceOnUse" xlink:href="#linearGradient8959-7"/>
  <linearGradient id="linearGradient14576" x1="533.54" x2="698.39" y1="295.69" y2="347.76" gradientTransform="matrix(1.0667,0,0,1.0667,0,-283.46)" gradientUnits="userSpaceOnUse" xlink:href="#linearGradient8959-7"/>
  <linearGradient id="linearGradient14578" x1="527.51" x2="726.63" y1="338.56" y2="393.61" gradientTransform="matrix(1.0667,0,0,1.0667,0,-283.46)" gradientUnits="userSpaceOnUse" xlink:href="#linearGradient8959-7"/>
 </defs>
 <path d="m371.4 140.27v-110.11h75.396v13.079h-61.74v33.851h57.509v12.31h-57.509v38.083h63.279v12.791z" fill="url(#linearGradient9023)" stroke="#7d7d7d" stroke-linecap="round" stroke-linejoin="round" stroke-width="1.8898"/>
 <path d="m273.88 30.16v110.12h13.851v-45.675h31.926c38.49 2.5634 52.051-64.529 0-64.44zm42.545 12.875c36.328 0.30994 23.415 41.708-1.7671 39.246h-26.742l0.20193-39.23h26.54c0.60156-0.0157 1.1904-0.0221 1.7671-0.0163z" fill="url(#linearGradient8969-4)" stroke="#7d7d7d" stroke-linecap="round" stroke-linejoin="round" stroke-width="1.8898"/>
 <path d="m258.88 30.16h15.195v110.11h-15.195z" fill="url(#linearGradient8967-0)" stroke="#7d7d7d" stroke-linecap="round" stroke-linejoin="round" stroke-width="1.8898"/>
 <path d="m356.11 30.16h15.195v110.11h-15.195z" fill="url(#linearGradient8965-2)" stroke="#7d7d7d" stroke-linecap="round" stroke-linejoin="round" stroke-width="1.8898"/>
 <path d="m287.95 82.33c9.7468-0.75742 21.965-1.6948 30.312-7.3438 6.7-4.5348 10.372-26.432-3.2931-31.759 34.151-2.9771 28.808 39.425 0.54401 39.021z" fill="url(#linearGradient8961-2)" stroke="#7d7d7d" stroke-linecap="round" stroke-linejoin="round" stroke-width="1.8898"/>
 <path d="m27.786 29.44v110.12h13.851v-45.675h31.926c38.49 2.5635 52.051-64.529 0-64.44zm42.545 12.875c36.328 0.30996 23.415 41.708-1.7671 39.246h-26.742l0.20193-39.23h26.54c0.60159-0.0161 1.1905-0.0223 1.7671-0.0168z" fill="none" stroke="#f00" stroke-linecap="round" stroke-linejoin="round" stroke-width="3.7795"/>
 <path d="m116.07 141.18v-110.11h75.396v13.079h-61.74v33.851h57.509v12.31h-57.509v38.083h63.279v12.79z" fill="none" stroke="#f00" stroke-linecap="round" stroke-linejoin="round" stroke-width="3.7795"/>
 <path d="m559.81 70.97h20.925l-8.5333 29.375h-20.925z" fill="none" stroke="#7d7d7d" stroke-linecap="round" stroke-linejoin="round" stroke-width="1.8898"/>
 <path d="m550.87 18.22h20.925v29.294h-20.925z" fill="none" stroke="#7d7d7d" stroke-linecap="round" stroke-linejoin="round" stroke-width="1.8898"/>
 <path d="m560.58 122.24h3.858l8.5333 29.294h-20.925z" fill="none" stroke="#7d7d7d" stroke-linecap="round" stroke-linejoin="round" stroke-width="1.8898"/>
 <path d="m650.99 70.97h-20.925l8.5333 29.375h20.925z" fill="none" stroke="#7d7d7d" stroke-linecap="round" stroke-linejoin="round" stroke-width="1.8898"/>
 <path d="m580.41 70.97-8.5308 29.375h66.959l-8.5308-29.375z" fill="url(#linearGradient14576)" stroke="#7d7d7d" stroke-linecap="round" stroke-linejoin="round" stroke-width="1.8898"/>
 <path d="m638.67 18.22h20.925v29.294h-20.925z" fill="none" stroke="#7d7d7d" stroke-linecap="round" stroke-linejoin="round" stroke-width="1.8898"/>
 <path d="m571.84 18.14v29.375h66.623v-29.375z" fill="url(#linearGradient14574)" stroke="#7d7d7d" stroke-linecap="round" stroke-linejoin="round" stroke-width="1.8898"/>
 <path d="m573.06 151.54-8.5308-29.375h83.03l-8.5308 29.375z" fill="url(#linearGradient14578)" stroke="#7d7d7d" stroke-linecap="round" stroke-linejoin="round" stroke-width="1.8898"/>
 <path d="m647.95 122.24h3.858l8.5333 29.294h-20.925z" fill="none" stroke="#7d7d7d" stroke-linecap="round" stroke-linejoin="round" stroke-width="1.8898"/>
 <path d="m558.7 70.98 21.591 0.46113-8.4451 28.344-20.304-0.1392z" fill="url(#pattern13586)" opacity=".5"/>
 <path d="m550.66 19.06 21.25-0.81153-0.30292 29.006-20.443 0.35844z" fill="url(#pattern13586-3)" opacity=".5"/>
 <path d="m560.82 122.22 3.956-0.0883 7.7779 29.12-20.118-0.0253z" fill="url(#pattern13586-2)" opacity=".5"/>
 <path d="m651.81 71.44-21.591 0.46112 8.4451 28.344 20.304-0.1392z" fill="url(#pattern14414)" opacity=".5"/>
 <path d="m638.18 19.21 21.25-0.81153-0.30292 29.006-20.443 0.35845z" fill="url(#pattern13586-3-0)" opacity=".5"/>
 <path d="m647.86 122.2 3.9561-0.0884 7.7779 29.12-20.118-0.0253z" fill="url(#pattern13586-2-5)" opacity=".5"/>
 <g transform="translate(574.93,273.11)">
  <ellipse cx="-45.487" cy="-137.32" rx="13.199" ry="13.469" fill="#1f638a" stroke-linecap="round" stroke-linejoin="round" stroke-width="1.0658"/>
  <g transform="translate(-.13452)" fill="#000000" font-family="'Arial Nova', 'Arial Unicode MS', 'Yu Gothic UI', sans-serif" font-size="12.8px" letter-spacing="0px" stroke-width="1.0667" word-spacing="0px">
   <text x="-55.273815" y="-129.65053" style="line-height:0%" xml:space="preserve"><tspan x="-55.273815" y="-129.65053" fill="#ffffff" font-family="'Arial Nova', 'Arial Unicode MS', 'Yu Gothic UI', sans-serif" font-size="21.333px" stroke="#ffffff" stroke-width="1.0667" style="line-height:1.25">1</tspan></text>
   <text x="-47.652157" y="-129.65053" style="line-height:0%" xml:space="preserve"><tspan x="-47.652157" y="-129.65053" fill="#ffffff" font-family="'Arial Nova', 'Arial Unicode MS', 'Yu Gothic UI', sans-serif" font-size="21.333px" stroke="#ffffff" stroke-width="1.0667" style="line-height:1.25">1</tspan></text>
  </g>
 </g>
 <g transform="translate(143.14,236.65)">
  <ellipse cx="-75.193" cy="-138.95" rx="13.199" ry="13.469" fill="#1f638a" stroke-linecap="round" stroke-linejoin="round" stroke-width="1.0658"/>
  <g transform="translate(-1.2434)" fill="#000000" font-family="'Arial Nova', 'Arial Unicode MS', 'Yu Gothic UI', sans-serif" font-size="12.8px" letter-spacing="0px" stroke-width="1.0667" word-spacing="0px">
   <text x="-85.114067" y="-131.27504" style="line-height:0%" xml:space="preserve"><tspan x="-85.114067" y="-131.27504" fill="#ffffff" font-family="'Arial Nova', 'Arial Unicode MS', 'Yu Gothic UI', sans-serif" font-size="21.333px" stroke="#ffffff" stroke-width="1.0667" style="line-height:1.25">1</tspan></text>
   <text x="-76.055321" y="-131.27504" style="line-height:0%" xml:space="preserve"><tspan x="-76.055321" y="-131.27504" fill="#ffffff" font-family="'Arial Nova', 'Arial Unicode MS', 'Yu Gothic UI', sans-serif" font-size="21.333px" stroke="#ffffff" stroke-width="1.0667" style="line-height:1.25">0</tspan></text>
  </g>
 </g>
 <path d="m85.186 99.58 6.2254-5.147 6.9023 14.13 6.2932-3.0742-6.9023-14.13 7.4286-1.523-19.542-14.716z" fill="#fff" stroke="#000" stroke-linecap="round" stroke-linejoin="round" stroke-width=".75591"/>
 <g transform="matrix(.2917 0 0 .28875 164.98 41.11)" fill="#1f638a" stroke="#1f638a" stroke-linecap="round" stroke-linejoin="round" stroke-width="1.3023">
  <path d="m207.49 126.25 34.17 21.614-34.17 21.614z"/>
  <rect x="172.19" y="137.99" width="39.213" height="19.761"/>
 </g>
</svg>
