<?xml version="1.0" encoding="UTF-8"?>
<svg width="18cm" height="5.5cm" version="1.1" xmlns="http://www.w3.org/2000/svg" xmlns:osb="http://www.openswatchbook.org/uri/2009/osb">
 <g transform="translate(0 -245.67)">
  <g transform="translate(-194.76 65.851)">
   <ellipse cx="230.96" cy="240.41" rx="13.199" ry="13.469" style="fill:#1f638a;stroke-linecap:round;stroke-linejoin:round;stroke-width:1.0658"/>
   <text x="225.07587" y="248.08125" style="fill:#000000;font-family:'Arial Nova', 'Arial Unicode MS', 'Yu Gothic UI', sans-serif;font-size:12.8px;letter-spacing:0px;line-height:0%;stroke-width:1.0667;word-spacing:0px" xml:space="preserve"><tspan x="225.07587" y="248.08125" style="fill:#ffffff;font-family:'Arial Nova', 'Arial Unicode MS', 'Yu Gothic UI', sans-serif;font-size:21.333px;font-weight:bold;line-height:1.25;stroke-width:1.0667">1</tspan></text>
  </g>
  <g transform="matrix(.46329 0 0 .46329 110.07 199.94)">
   <path d="m-81.647 193.33h85.041c40.429 0.0123 39.419 64.931 0 65.242h-85.041c-38.455 0.1546-38.226-65.089 0-65.242z" style="color:#000000;fill:none;stroke-linecap:round;stroke-linejoin:round;stroke-width:3.0919;stroke:#000080"/>
   <circle cx="90.274" cy="226.37" r="46.528" style="color:#000000;fill:none;stroke-linecap:round;stroke-linejoin:round;stroke-width:3.0919;stroke:#000080"/>
   <rect x="151.98" y="195.21" width="78.819" height="65.62" style="color:#000000;fill:none;stroke-linecap:round;stroke-linejoin:round;stroke-width:3.0919;stroke:#000080"/>
   <path d="m277.56 195.97h39.032 39.032l33.333 32.998-33.333 32.998h-39.032-39.032l-32.267-32.998z" style="color:#000000;fill:none;stroke-linecap:round;stroke-linejoin:round;stroke-width:3.0919;stroke:#000080"/>
   <path d="m427.66 196.34h78.442v65.62h-78.442l-32.267-32.81z" style="color:#000000;fill:none;stroke-linecap:round;stroke-linejoin:round;stroke-width:3.0919;stroke:#000080"/>
   <path d="m525.33 195.97h78.819l32.8 32.998-32.8 32.998h-78.819z" style="color:#000000;fill:none;stroke-linecap:round;stroke-linejoin:round;stroke-width:3.0919;stroke:#000080"/>
   <path d="m622.63 273.66 84.099-143.68 82.967 144.44z" style="color:#000000;fill:none;stroke-linecap:round;stroke-linejoin:round;stroke-width:3.0919;stroke:#000080"/>
  </g>
  <rect x="530.25" y="294.08" width="36.516" height="30.401" style="color:#000000;fill:none;stroke-linecap:round;stroke-linejoin:round;stroke-width:1.4324;stroke:#000080"/>
  <rect x="576.73" y="294.08" width="36.516" height="30.401" style="color:#000000;fill:none;stroke-linecap:round;stroke-linejoin:round;stroke-width:1.4324;stroke:#f00"/>
  <rect x="623.21" y="294.08" width="36.516" height="30.401" style="color:#000000;fill:none;stroke-linecap:round;stroke-linejoin:round;stroke-width:1.4324;stroke:#000"/>
  <circle cx="112.73" cy="389.28" r="50.189" style="color:#000000;fill:none;stroke-linecap:round;stroke-linejoin:round;stroke-width:1.4324;stroke:#000080"/>
  <g transform="translate(-604.87 -117.38)" style="opacity:.25448">
   <g transform="matrix(.66342 0 0 .66342 615.1 461.1)" style="stroke-linecap:round;stroke-linejoin:round;stroke-width:3.0147;stroke:#000080">
    <path d="m95.204 85.511 14.442-34.232 14.263 34.232" style="fill:none;stroke-linecap:round;stroke-linejoin:round;stroke-width:3.2157;stroke:#000080"/>
    <path d="m100.11 73.744h18.854" style="fill:none;stroke-linecap:round;stroke-linejoin:round;stroke-width:3.2157;stroke:#000080"/>
   </g>
   <path d="m701.82 499.17 7.6293-4.199v22.619" style="fill:none;stroke-linecap:round;stroke-linejoin:round;stroke-width:2.1333;stroke:#000080"/>
   <path d="m733.08 509.85h-19.404l13.382-14.846v22.499" style="fill:none;stroke-linecap:round;stroke-linejoin:round;stroke-width:2.1333;stroke:#000080"/>
   <path d="m756.95 509.85h-19.404l13.382-14.846v22.499" style="fill:none;stroke-linecap:round;stroke-linejoin:round;stroke-width:2.1333;stroke:#000080"/>
  </g>
  <rect x="536.11" y="357.73" width="121.32" height="60.678" style="color:#000000;fill:none;stroke-linecap:round;stroke-linejoin:round;stroke-width:7.4797;stroke:#000080"/>
  <g transform="translate(-120.84 -118.33)" style="opacity:.25448">
   <g transform="matrix(.66342 0 0 .66342 615.1 461.1)" style="stroke-linecap:round;stroke-linejoin:round;stroke-width:3.0147;stroke:#000080">
    <path d="m95.204 85.511 14.442-34.232 14.263 34.232" style="fill:none;stroke-linecap:round;stroke-linejoin:round;stroke-width:3.2157;stroke:#000080"/>
    <path d="m100.11 73.744h18.854" style="fill:none;stroke-linecap:round;stroke-linejoin:round;stroke-width:3.2157;stroke:#000080"/>
   </g>
   <path d="m701.82 499.17 7.6293-4.199v22.619" style="fill:none;stroke-linecap:round;stroke-linejoin:round;stroke-width:2.1333;stroke:#000080"/>
   <path d="m733.08 509.85h-19.404l13.382-14.846v22.499" style="fill:none;stroke-linecap:round;stroke-linejoin:round;stroke-width:2.1333;stroke:#000080"/>
   <path d="m756.95 509.85h-19.404l13.382-14.846v22.499" style="fill:none;stroke-linecap:round;stroke-linejoin:round;stroke-width:2.1333;stroke:#000080"/>
  </g>
  <g transform="translate(281.17 70.783)">
   <ellipse cx="230.96" cy="240.41" rx="13.199" ry="13.469" style="fill:#1f638a;stroke-linecap:round;stroke-linejoin:round;stroke-width:1.0658"/>
   <text x="225.07587" y="248.08125" style="fill:#000000;font-family:'Arial Nova', 'Arial Unicode MS', 'Yu Gothic UI', sans-serif;font-size:12.8px;letter-spacing:0px;line-height:0%;stroke-width:1.0667;word-spacing:0px" xml:space="preserve"><tspan x="225.07587" y="248.08125" style="fill:#ffffff;font-family:'Arial Nova', 'Arial Unicode MS', 'Yu Gothic UI', sans-serif;font-size:21.333px;font-weight:bold;line-height:1.25;stroke-width:1.0667">2</tspan></text>
  </g>
  <g transform="translate(-194.37 146.58)">
   <ellipse cx="230.96" cy="240.41" rx="13.199" ry="13.469" style="fill:#1f638a;stroke-linecap:round;stroke-linejoin:round;stroke-width:1.0658"/>
   <text x="225.07587" y="248.08125" style="fill:#000000;font-family:'Arial Nova', 'Arial Unicode MS', 'Yu Gothic UI', sans-serif;font-size:12.8px;letter-spacing:0px;line-height:0%;stroke-width:1.0667;word-spacing:0px" xml:space="preserve"><tspan x="225.07587" y="248.08125" style="fill:#ffffff;font-family:'Arial Nova', 'Arial Unicode MS', 'Yu Gothic UI', sans-serif;font-size:21.333px;font-weight:bold;line-height:1.25;stroke-width:1.0667">3</tspan></text>
  </g>
  <g transform="translate(13.977 146.58)">
   <ellipse cx="230.96" cy="240.41" rx="13.199" ry="13.469" style="fill:#1f638a;stroke-linecap:round;stroke-linejoin:round;stroke-width:1.0658"/>
   <text x="225.07587" y="248.08125" style="fill:#000000;font-family:'Arial Nova', 'Arial Unicode MS', 'Yu Gothic UI', sans-serif;font-size:12.8px;letter-spacing:0px;line-height:0%;stroke-width:1.0667;word-spacing:0px" xml:space="preserve"><tspan x="225.07587" y="248.08125" style="fill:#ffffff;font-family:'Arial Nova', 'Arial Unicode MS', 'Yu Gothic UI', sans-serif;font-size:21.333px;font-weight:bold;line-height:1.25;stroke-width:1.0667">4</tspan></text>
  </g>
  <rect x="268.34" y="357.73" width="121.32" height="60.678" style="color:#000000;fill:none;stroke-linecap:round;stroke-linejoin:round;stroke-width:1.4324;stroke:#000080"/>
  <g transform="translate(-388.6 -118.33)" style="opacity:.25448">
   <g transform="matrix(.66342 0 0 .66342 615.1 461.1)" style="stroke-linecap:round;stroke-linejoin:round;stroke-width:3.0147;stroke:#000080">
    <path d="m95.204 85.511 14.442-34.232 14.263 34.232" style="fill:none;stroke-linecap:round;stroke-linejoin:round;stroke-width:3.2157;stroke:#000080"/>
    <path d="m100.11 73.744h18.854" style="fill:none;stroke-linecap:round;stroke-linejoin:round;stroke-width:3.2157;stroke:#000080"/>
   </g>
   <path d="m701.82 499.17 7.6293-4.199v22.619" style="fill:none;stroke-linecap:round;stroke-linejoin:round;stroke-width:2.1333;stroke:#000080"/>
   <path d="m733.08 509.85h-19.404l13.382-14.846v22.499" style="fill:none;stroke-linecap:round;stroke-linejoin:round;stroke-width:2.1333;stroke:#000080"/>
   <path d="m756.95 509.85h-19.404l13.382-14.846v22.499" style="fill:none;stroke-linecap:round;stroke-linejoin:round;stroke-width:2.1333;stroke:#000080"/>
  </g>
  <path d="m390.97 395.29 12.571-4.1905v8.7619z" style="stroke-linecap:round;stroke-linejoin:round;stroke-width:1.0658;stroke:#000"/>
  <path d="m353.84 395.48h52.143" style="stroke-linecap:round;stroke-linejoin:round;stroke-width:.94488;stroke:#000"/>
  <path d="m369 395.29-12.571-4.1905v8.7619z" style="stroke-linecap:round;stroke-linejoin:round;stroke-width:1.0658;stroke:#000"/>
  <g transform="rotate(217.5 236.13 422.06)">
   <path d="m304.84 372.46 12.571-4.1905v8.7619z" style="stroke-linecap:round;stroke-linejoin:round;stroke-width:1.0658;stroke:#000"/>
   <path d="m305.6 372.46h89.252" style="stroke-linecap:round;stroke-linejoin:round;stroke-width:.94488;stroke:#000"/>
   <path d="m402.79 372.65-12.571-4.1905v8.7619z" style="stroke-linecap:round;stroke-linejoin:round;stroke-width:1.0658;stroke:#000"/>
  </g>
  <path d="m482.97 384.34 52.445 12.617" style="fill:#fff;stroke-linecap:round;stroke-linejoin:round;stroke-width:1.8898;stroke:#1f638a"/>
  <g transform="translate(-506.6 97.327)" style="stroke:#fff">
   <ellipse cx="988.73" cy="286.32" rx="13.199" ry="13.469" style="fill:#1f638a;stroke-linecap:round;stroke-linejoin:round;stroke-width:1.0658;stroke:#fff"/>
   <text x="982.88611" y="293.98578" style="fill:#000000;font-family:'Arial Nova', 'Arial Unicode MS', 'Yu Gothic UI', sans-serif;font-size:12.8px;letter-spacing:0px;line-height:0%;stroke-width:1.0667;stroke:#ffffff;word-spacing:0px" xml:space="preserve"><tspan x="982.88611" y="293.98578" style="fill:#ffffff;font-family:'Arial Nova', 'Arial Unicode MS', 'Yu Gothic UI', sans-serif;font-size:21.333px;line-height:1.25;stroke-width:1.0667;stroke:#ffffff">5</tspan></text>
  </g>
 </g>
</svg>
