<?xml version="1.0" encoding="UTF-8"?>
<svg width="18cm" height="4.5cm" version="1.1" xmlns="http://www.w3.org/2000/svg" xmlns:xlink="http://www.w3.org/1999/xlink">
 <defs>
  <linearGradient id="linearGradient4725">
   <stop style="stop-color:#fff" offset="0"/>
   <stop style="stop-color:#4fa68a" offset="1"/>
  </linearGradient>
  <linearGradient id="linearGradient9565" x1="-44.084" x2="97.542" y1="893.49" y2="893.49" gradientTransform="matrix(1.0667 0 0 1.0667 516.47 120.57)" gradientUnits="userSpaceOnUse" xlink:href="#linearGradient4725"/>
  <linearGradient id="linearGradient9568" x1="93.211" x2="107.17" y1="910.93" y2="910.93" gradientTransform="matrix(1.0667 0 0 1.0667 516.47 120.57)" gradientUnits="userSpaceOnUse" xlink:href="#linearGradient4725"/>
  <linearGradient id="linearGradient9571" x1="122.01" x2="135.97" y1="863.74" y2="863.74" gradientTransform="matrix(1.0667 0 0 1.0667 516.47 120.57)" gradientUnits="userSpaceOnUse" xlink:href="#linearGradient4725"/>
  <linearGradient id="linearGradient9577" x1="-40.013" x2="136.01" y1="851.93" y2="851.93" gradientTransform="matrix(1.0667 0 0 1.0667 516.47 120.57)" gradientUnits="userSpaceOnUse" xlink:href="#linearGradient4725"/>
  <linearGradient id="linearGradient9581" x1="-44.084" x2="97.542" y1="893.49" y2="893.49" gradientTransform="matrix(1.0667 0 0 1.0667 291.91 120.57)" gradientUnits="userSpaceOnUse" xlink:href="#linearGradient4725"/>
  <linearGradient id="linearGradient9584" x1="93.211" x2="107.17" y1="910.93" y2="910.93" gradientTransform="matrix(1.0667 0 0 1.0667 291.91 120.57)" gradientUnits="userSpaceOnUse" xlink:href="#linearGradient4725"/>
  <linearGradient id="linearGradient9587" x1="122.01" x2="135.97" y1="863.74" y2="863.74" gradientTransform="matrix(1.0667 0 0 1.0667 291.91 120.57)" gradientUnits="userSpaceOnUse" xlink:href="#linearGradient4725"/>
  <linearGradient id="linearGradient9590" x1="27.08" x2="126.41" y1="858.73" y2="858.73" gradientTransform="matrix(1.0667 0 0 1.0667 291.91 120.57)" gradientUnits="userSpaceOnUse">
   <stop style="stop-color:#ff8500" offset="0"/>
   <stop style="stop-color:#fff" offset="1"/>
  </linearGradient>
  <linearGradient id="linearGradient9593" x1="-40.013" x2="136.01" y1="851.93" y2="851.93" gradientTransform="matrix(1.0667 0 0 1.0667 291.91 120.57)" gradientUnits="userSpaceOnUse" xlink:href="#linearGradient4725"/>
  <linearGradient id="linearGradient9597" x1="-44.084" x2="97.542" y1="893.49" y2="893.49" gradientTransform="matrix(1.0667 0 0 1.0667 67.344 120.57)" gradientUnits="userSpaceOnUse" xlink:href="#linearGradient4725"/>
  <linearGradient id="linearGradient9600" x1="93.211" x2="107.17" y1="910.93" y2="910.93" gradientTransform="matrix(1.0667 0 0 1.0667 67.344 120.57)" gradientUnits="userSpaceOnUse" xlink:href="#linearGradient4725"/>
  <linearGradient id="linearGradient9603" x1="122.01" x2="135.97" y1="863.74" y2="863.74" gradientTransform="matrix(1.0667 0 0 1.0667 67.344 120.57)" gradientUnits="userSpaceOnUse" xlink:href="#linearGradient4725"/>
  <linearGradient id="linearGradient9606" x1="27.08" x2="126.41" y1="858.73" y2="858.73" gradientTransform="matrix(1.0667 0 0 1.0667 67.344 120.57)" gradientUnits="userSpaceOnUse" xlink:href="#linearGradient4725"/>
  <linearGradient id="linearGradient9609" x1="-40.013" x2="136.01" y1="851.93" y2="851.93" gradientTransform="matrix(1.0667 0 0 1.0667 67.344 120.57)" gradientUnits="userSpaceOnUse" xlink:href="#linearGradient4725"/>
 </defs>
 <g transform="translate(0 -952.44)">
  <path d="m25.001 1035.7 41.235-67.247 145.84 54.268-10.251 16.918-66.043-24.552c-31.488-11.6-54.377 14.494-27.127 30.495l72.605 27.598-10.215 16.883z" style="color:#000000;fill:url(#linearGradient9609);stroke-linecap:round;stroke-linejoin:round;stroke-width:.67654;stroke:#67977f"/>
  <path d="m197.71 1060.9 4.1356-21.234-66.329-24.678c-20.098-8.8856-48.621 4.2025-35.703 22.96 10.785-6.5046 21.206-4.6421 31.583-1.7577z" style="color:#000000;fill:url(#linearGradient9606);stroke-linecap:round;stroke-linejoin:round;stroke-width:.67654;stroke:#67977f"/>
  <path d="m208.24 1044.2-10.409 16.701 4.0393-21.284 10.176-16.779z" style="color:#000000;fill:url(#linearGradient9603);stroke-linecap:round;stroke-linejoin:round;stroke-width:.67654;stroke:#67977f"/>
  <path d="m177.52 1094.6-10.409 16.701 4.0393-21.284 10.176-16.779z" style="color:#000000;fill:url(#linearGradient9600);stroke-linecap:round;stroke-linejoin:round;stroke-width:.67654;stroke:#67977f"/>
  <path d="m20.659 1057 146.33 54.488 4.0646-21.422-146.11-54.268z" style="color:#000000;fill:url(#linearGradient9597);stroke-linecap:round;stroke-linejoin:round;stroke-width:.67654;stroke:#67977f"/>
  <g transform="rotate(-90 655.36 644.45)">
   <path d="m234.83 220.11 6.2408 9.9675 6.2408-9.9675z" style="fill:#1f638a;stroke-linecap:round;stroke-linejoin:round;stroke-width:.37795;stroke:#1f638a"/>
   <rect transform="matrix(0,1,1,0,0,0)" x="209.81" y="238.21" width="11.439" height="5.7059" style="fill:#1f638a;stroke-linecap:round;stroke-linejoin:round;stroke-width:.37795;stroke:#1f638a"/>
  </g>
  <g transform="rotate(-90 766.6 533.21)">
   <path d="m234.83 220.11 6.2408 9.9675 6.2408-9.9675z" style="fill:#1f638a;stroke-linecap:round;stroke-linejoin:round;stroke-width:.37795;stroke:#1f638a"/>
   <rect transform="matrix(0,1,1,0,0,0)" x="209.81" y="238.21" width="11.439" height="5.7059" style="fill:#1f638a;stroke-linecap:round;stroke-linejoin:round;stroke-width:.37795;stroke:#1f638a"/>
  </g>
  <path d="m249.56 1035.7 41.235-67.247 145.84 54.268-10.251 16.918-66.043-24.552c-31.488-11.6-54.377 14.494-27.127 30.495l72.605 27.598-10.215 16.883z" style="color:#000000;fill:url(#linearGradient9593);stroke-linecap:round;stroke-linejoin:round;stroke-width:.67654;stroke:#67977f"/>
  <path d="m422.27 1060.9 4.1356-21.234-66.329-24.678c-20.098-8.8856-48.621 4.2025-35.703 22.96 10.785-6.5046 21.206-4.6421 31.583-1.7577z" style="color:#000000;fill:url(#linearGradient9590);stroke-linecap:round;stroke-linejoin:round;stroke-width:.67654;stroke:#67977f"/>
  <path d="m432.8 1044.2-10.409 16.701 4.0393-21.284 10.176-16.779z" style="color:#000000;fill:url(#linearGradient9587);stroke-linecap:round;stroke-linejoin:round;stroke-width:.67654;stroke:#67977f"/>
  <path d="m402.08 1094.6-10.409 16.701 4.0393-21.284 10.176-16.779z" style="color:#000000;fill:url(#linearGradient9584);stroke-linecap:round;stroke-linejoin:round;stroke-width:.67654;stroke:#67977f"/>
  <path d="m354.28 1047.6 6.2253-5.1468 6.9023 14.13 6.2932-3.0742-6.9023-14.13 7.4287-1.5229-19.542-14.716z" style="fill:#fff;stroke-linecap:round;stroke-linejoin:round;stroke-width:.75591;stroke:#000"/>
  <path d="m245.22 1057 146.33 54.488 4.0646-21.422-146.11-54.268z" style="color:#000000;fill:url(#linearGradient9581);stroke-linecap:round;stroke-linejoin:round;stroke-width:.67654;stroke:#67977f"/>
  <ellipse cx="392.34" cy="1053.2" rx="13.199" ry="13.469" style="fill:#1f638a;stroke-linecap:round;stroke-linejoin:round;stroke-width:1.0658"/>
  <text x="386.50284" y="1060.884" style="fill:#000000;font-family:'Arial Nova', 'Arial Unicode MS', 'Yu Gothic UI', sans-serif;font-size:12.8px;letter-spacing:0px;line-height:0%;stroke-width:1.0667;word-spacing:0px" xml:space="preserve"><tspan x="386.50284" y="1060.884" style="fill:#ffffff;font-family:'Arial Nova', 'Arial Unicode MS', 'Yu Gothic UI', sans-serif;font-size:21.333px;font-weight:bold;stroke-width:1.0667">1</tspan></text>
  <path d="m474.13 1035.7 41.235-67.247 145.84 54.268-10.251 16.918-66.043-24.552c-31.488-11.6-54.377 14.494-27.127 30.495l72.605 27.598-10.215 16.883z" style="color:#000000;fill:url(#linearGradient9577);stroke-linecap:round;stroke-linejoin:round;stroke-width:.67654;stroke:#67977f"/>
  <path d="m657.36 1044.2-10.409 16.701 4.0393-21.284 10.176-16.779z" style="color:#000000;fill:url(#linearGradient9571);stroke-linecap:round;stroke-linejoin:round;stroke-width:.67654;stroke:#67977f"/>
  <path d="m646.83 1060.9 4.1356-21.234-66.329-24.678c-20.098-8.8856-48.621 4.2025-35.703 22.96 10.785-6.5046 21.206-4.6421 31.583-1.7577z" style="color:#000000;fill:#739ba5;stroke-linecap:round;stroke-linejoin:round;stroke-width:.67654;stroke:#16434a"/>
  <path d="m626.64 1094.6-10.409 16.701 4.0393-21.284 10.176-16.779z" style="color:#000000;fill:url(#linearGradient9568);stroke-linecap:round;stroke-linejoin:round;stroke-width:.67654;stroke:#67977f"/>
  <path d="m469.79 1057 146.33 54.488 4.0646-21.422-146.11-54.268z" style="color:#000000;fill:url(#linearGradient9565);stroke-linecap:round;stroke-linejoin:round;stroke-width:.67654;stroke:#67977f"/>
 </g>
</svg>
