<?xml version="1.0" encoding="UTF-8"?>
<svg width="18cm" height="4cm" version="1.1" xmlns="http://www.w3.org/2000/svg" xmlns:cc="http://creativecommons.org/ns#" xmlns:dc="http://purl.org/dc/elements/1.1/" xmlns:rdf="http://www.w3.org/1999/02/22-rdf-syntax-ns#">
 <metadata>
  <rdf:RDF>
   <cc:Work rdf:about="">
    <dc:format>image/svg+xml</dc:format>
    <dc:type rdf:resource="http://purl.org/dc/dcmitype/StillImage"/>
    <dc:title/>
   </cc:Work>
  </rdf:RDF>
 </metadata>
 <g transform="translate(49.067,-145.95)" stroke-linecap="round" stroke-linejoin="round">
  <path d="m65.522 255.77 69.436-96.897" fill="#ccc" stroke="#ccc" stroke-width="1.8898"/>
  <path d="m136.04 157.48-3.913 12.661-7.1235-5.1017z" fill="#ccc" stroke="#ccc" stroke-width="1.0658"/>
  <ellipse transform="rotate(-22.97)" cx="-39.42" cy="260.81" rx="4.0406" ry="3.7795" fill="#f00" stroke="#f00" stroke-width="3.7837"/>
 </g>
 <path d="m116.43 135.72 6.2254-5.147 6.9023 14.13 6.2932-3.0742-6.9023-14.13 7.4286-1.523-19.542-14.716z" fill="#fff" stroke="#000" stroke-linecap="round" stroke-linejoin="round" stroke-width=".75591"/>
 <ellipse cx="76.143" cy="68.18" rx="13.199" ry="13.469" fill="#1f638a" stroke-linecap="round" stroke-linejoin="round" stroke-width="1.0658"/>
 <text x="68.481354" y="75.344406" fill="#000000" font-family="'Arial Nova', 'Arial Unicode MS', 'Yu Gothic UI', sans-serif" font-size="12.8px" letter-spacing="0px" stroke-width="1.0667" word-spacing="0px" style="line-height:0%" xml:space="preserve"><tspan x="68.481354" y="75.344406" fill="#ffffff" font-family="'Arial Nova', 'Arial Unicode MS', 'Yu Gothic UI', sans-serif" font-size="21.333px" font-weight="bold" stroke-width="1.0667" style="line-height:1.25">A</tspan></text>
 <text x="533.94318" y="112.937" fill="#000000" font-family="'Arial Nova', 'Arial Unicode MS', 'Yu Gothic UI', sans-serif" font-size="12.8px" letter-spacing="0px" stroke-width="1.0667" word-spacing="0px" style="line-height:0%" xml:space="preserve"><tspan x="533.94318" y="112.937" fill="#ff0000" font-family="'Arial Nova', 'Arial Unicode MS', 'Yu Gothic UI', sans-serif" font-size="10.667px" stroke="#ff0000" stroke-width="1.0667" style="line-height:1.25">(X, Y, Z)</tspan></text>
 <g transform="translate(452.28,-145.66)" stroke-linecap="round" stroke-linejoin="round">
  <path d="m65.522 255.77 69.436-96.897" fill="#ccc" stroke="#ccc" stroke-width="1.8898"/>
  <path d="m136.04 157.48-3.913 12.661-7.1235-5.1017z" fill="#ccc" stroke="#ccc" stroke-width="1.0658"/>
  <ellipse transform="rotate(-22.97)" cx="-39.42" cy="260.81" rx="4.0406" ry="3.7795" fill="#f00" stroke="#f00" stroke-width="3.7837"/>
 </g>
 <g transform="translate(-26.555,-15.52)" stroke-linecap="round" stroke-linejoin="round" stroke-width="1.8898">
  <path d="m353.39 76.694 5.0723 20.997h-10.145c1.7968-10.641 5.0723-20.997 5.0723-20.997z" fill="#00f" stroke="#00f"/>
  <path d="m353.34 86.247 0.17497 39.728" fill="#00f" stroke="#00f"/>
  <path d="m393.91 102.14-20.624 6.4215 5.206 8.707c8.2105-7.0026 15.418-15.128 15.418-15.128z" fill="#0f0" stroke="#0f0"/>
  <path d="m383.1 108.53-29.443 17.394" fill="#0f0" stroke="#0f0"/>
  <path d="m392.53 148.02-20.719-6.1073 5.0731-8.7851c8.316 6.877 15.646 14.892 15.646 14.892z" fill="#f00" stroke="#f00"/>
  <path d="m382.44 141.93-28.882-15.871" fill="#f00" stroke="#f00"/>
 </g>
 <g transform="translate(261.17,-145.66)" stroke-linecap="round" stroke-linejoin="round">
  <path d="m65.522 255.77 69.436-96.897" fill="#ccc" stroke="#ccc" stroke-width="1.8898"/>
  <path d="m136.04 157.48-3.913 12.661-7.1235-5.1017z" fill="#ccc" stroke="#ccc" stroke-width="1.0658"/>
  <ellipse transform="rotate(-22.97)" cx="-39.42" cy="260.81" rx="4.0406" ry="3.7795" fill="#f00" stroke="#f00" stroke-width="3.7837"/>
 </g>
 <text x="277.89557" y="113.69911" fill="#000000" font-family="'Arial Nova', 'Arial Unicode MS', 'Yu Gothic UI', sans-serif" font-size="12.8px" letter-spacing="0px" stroke-width="1.0667" word-spacing="0px" style="line-height:0%" xml:space="preserve"><tspan x="277.89557" y="113.69911" fill="#ff0000" font-family="'Arial Nova', 'Arial Unicode MS', 'Yu Gothic UI', sans-serif" font-size="10.667px" stroke="#ff0000" stroke-width="1.0667" style="line-height:1.25">(0, 0, 0)</tspan></text>
 <ellipse cx="259.32" cy="68.18" rx="13.199" ry="13.469" fill="#1f638a" stroke-linecap="round" stroke-linejoin="round" stroke-width="1.0658"/>
 <text x="252.2924" y="75.81102" fill="#000000" font-family="'Arial Nova', 'Arial Unicode MS', 'Yu Gothic UI', sans-serif" font-size="12.8px" letter-spacing="0px" stroke-width="1.0667" word-spacing="0px" style="line-height:0%" xml:space="preserve"><tspan x="252.2924" y="75.81102" fill="#ffffff" font-family="'Arial Nova', 'Arial Unicode MS', 'Yu Gothic UI', sans-serif" font-size="21.333px" font-weight="bold" stroke-width="1.0667" style="line-height:1.25">B</tspan></text>
 <g transform="translate(217.54,-198.04)">
  <ellipse cx="250.95" cy="266.21" rx="13.199" ry="13.469" fill="#1f638a" stroke-linecap="round" stroke-linejoin="round" stroke-width="1.0658"/>
  <text x="243.29092" y="273.8494" fill="#000000" font-family="'Arial Nova', 'Arial Unicode MS', 'Yu Gothic UI', sans-serif" font-size="12.8px" letter-spacing="0px" stroke-width="1.0667" word-spacing="0px" style="line-height:0%" xml:space="preserve"><tspan x="243.29092" y="273.8494" fill="#ffffff" font-family="'Arial Nova', 'Arial Unicode MS', 'Yu Gothic UI', sans-serif" font-size="21.333px" font-weight="bold" stroke-width="1.0667" style="line-height:1.25">C</tspan></text>
 </g>
</svg>
