<?xml version="1.0" encoding="UTF-8"?>
<svg width="18cm" height="4.5cm" version="1.1" xmlns="http://www.w3.org/2000/svg" xmlns:xlink="http://www.w3.org/1999/xlink">
 <defs>
  <linearGradient id="linearGradient4725">
   <stop style="stop-color:#fff" offset="0"/>
   <stop style="stop-color:#4fa68a" offset="1"/>
  </linearGradient>
  <linearGradient id="linearGradient21585-5" x1="-40.013" x2="136.01" y1="851.93" y2="851.93" gradientTransform="scale(1.0667)" gradientUnits="userSpaceOnUse" xlink:href="#linearGradient4725"/>
  <linearGradient id="linearGradient21587-1" x1="27.08" x2="126.41" y1="858.73" y2="858.73" gradientTransform="scale(1.0667)" gradientUnits="userSpaceOnUse" xlink:href="#linearGradient4725"/>
  <linearGradient id="linearGradient21589-5" x1="122.01" x2="135.97" y1="863.74" y2="863.74" gradientTransform="scale(1.0667)" gradientUnits="userSpaceOnUse" xlink:href="#linearGradient4725"/>
  <linearGradient id="linearGradient21591-6" x1="93.211" x2="107.17" y1="910.93" y2="910.93" gradientTransform="scale(1.0667)" gradientUnits="userSpaceOnUse" xlink:href="#linearGradient4725"/>
  <linearGradient id="linearGradient21593-4" x1="-44.084" x2="97.542" y1="893.49" y2="893.49" gradientTransform="scale(1.0667)" gradientUnits="userSpaceOnUse" xlink:href="#linearGradient4725"/>
  <linearGradient id="linearGradient9360" x1="607.22" x2="620.56" y1="971.46" y2="971.46" gradientTransform="matrix(1.0667 0 0 1.0667 .48062 5.2886)" gradientUnits="userSpaceOnUse" xlink:href="#linearGradient4725"/>
  <linearGradient id="linearGradient9363" x1="441.35" x2="581.79" y1="1001.3" y2="1001.3" gradientTransform="matrix(1.0667 0 0 1.0667 .48062 5.2886)" gradientUnits="userSpaceOnUse" xlink:href="#linearGradient4725"/>
  <linearGradient id="linearGradient9366" x1="578.34" x2="591.68" y1="1018.9" y2="1018.9" gradientTransform="matrix(1.0667 0 0 1.0667 .48062 5.2886)" gradientUnits="userSpaceOnUse" xlink:href="#linearGradient4725"/>
  <linearGradient id="linearGradient9369" x1="512.4" x2="610.61" y1="966.44" y2="966.44" gradientTransform="matrix(1.0667 0 0 1.0667 .48062 5.2886)" gradientUnits="userSpaceOnUse" xlink:href="#linearGradient4725"/>
  <linearGradient id="linearGradient9372" x1="454.02" x2="612.69" y1="957.38" y2="957.38" gradientTransform="matrix(1.0667 0 0 1.0667 .48062 5.2886)" gradientUnits="userSpaceOnUse" xlink:href="#linearGradient4725"/>
 </defs>
 <g transform="translate(0 -952.44)">
  <path d="m485.11 1031.3 36.072-59.008 132.5 49.434-4.8679 8.5686-59.562-22.355c-49.614-14.237-62.616 23.063-32.29 39.173l65.904 25.072-5.0522 8.4237z" style="color:#000000;fill:url(#linearGradient9372);stroke-linecap:round;stroke-linejoin:round;stroke-width:.67654;stroke:#67977f"/>
  <path d="m648.53 1057.9 2.9272-15.934-66-24.569c-20.098-8.8856-44.8 2.9542-36.386 19.185 9.3569-9.251 24.636-6.3598 32.926-3.1458z" style="color:#000000;fill:url(#linearGradient9369);stroke-linecap:round;stroke-linejoin:round;stroke-width:.67654;stroke:#67977f"/>
  <path d="m628.12 1091.8-10.409 16.701 2.9906-16.118 10.564-16.623z" style="color:#000000;fill:url(#linearGradient9366);stroke-linecap:round;stroke-linejoin:round;stroke-width:.67654;stroke:#67977f"/>
  <path d="m471.59 1054.2 146 54.488 3.1325-16.334-145.82-54.346z" style="color:#000000;fill:url(#linearGradient9363);stroke-linecap:round;stroke-linejoin:round;stroke-width:.67654;stroke:#67977f"/>
  <path d="m658.93 1041.2-10.409 16.701 2.9906-16.118 10.564-16.623z" style="color:#000000;fill:url(#linearGradient9360);stroke-linecap:round;stroke-linejoin:round;stroke-width:.67654;stroke:#67977f"/>
  <path d="m516.06 970.99c1.9194-3.2603 3.581-1.9086 5.1357 1.3594l-36.016 59.008c-4.3061 0.6897-8.0281 2.4224-10.292 6.7581z" style="color:#000000;fill:#739ba5;stroke-linecap:round;stroke-linejoin:round;stroke-width:.67654;stroke:#16434a"/>
  <path d="m653.66 1021.8c4.9595-0.7169 8.7738-0.4647 8.3893 3.3402l-10.603 16.856c0.66459-3.9844 0.34072-7.9124-2.6022-11.691z" style="color:#000000;fill:#739ba5;stroke-linecap:round;stroke-linejoin:round;stroke-width:.67654;stroke:#16434a"/>
  <path d="m622.81 1072.2c5.7412-1.1688 8.6169 0.1056 8.4992 3.4774l-10.603 16.856c0.8096-4.0253-0.17115-8.0132-2.8769-11.965z" style="color:#000000;fill:#739ba5;stroke-linecap:round;stroke-linejoin:round;stroke-width:.67654;stroke:#16434a"/>
  <path d="m474.96 1038c2.1595-4.1112 5.7335-6.1004 10.234-6.6998l132.64 49.314c2.0268 3.6175 3.9966 7.2502 2.8013 11.727z" style="color:#000000;fill:#739ba5;stroke-linecap:round;stroke-linejoin:round;stroke-width:.67654;stroke:#16434a"/>
  <path d="m648.8 1030.3c3.1979 3.9358 3.1168 7.8715 2.6411 11.807l-66.018-24.728c-30.093-11.572-57.01 14.711-20.933 30.814l64.001 23.876c-1.7892-0.351-3.668-0.2796-5.6384 0.2239l-65.882-25.185c-23.448-8.9635-26.684-53.869 32.215-39.149z" style="color:#000000;fill:#739ba5;stroke-linecap:round;stroke-linejoin:round;stroke-width:.67654;stroke:#16434a"/>
  <path d="m518.52 969.15 142.16 52.904c-2.4122-0.8982-4.7859-0.7176-7.1466-0.1742l-132.37-49.434c-0.65947-1.2565-1.1086-2.6644-2.6365-3.2956z" style="color:#000000;fill:#739ba5;stroke-linecap:round;stroke-linejoin:round;stroke-width:.67654;stroke:#16434a"/>
  <g transform="translate(7.0274 6.4345)">
   <g transform="translate(76.578 322.52)">
    <path d="m207.25 642.44c1.9194-3.2603 3.581-1.9086 5.1357 1.3594l-36.016 59.008c-4.3061 0.68963-8.0281 2.4224-10.292 6.7581z" style="color:#000000;fill:#faa;stroke-dasharray:1.35307083, 1.35307083;stroke-dashoffset:1.2051;stroke-linecap:round;stroke-linejoin:round;stroke-width:.67654;stroke:#f00"/>
    <path d="m344.86 693.21c4.9595-0.71691 8.7738-0.46473 8.3893 3.3402l-10.603 16.856c0.66459-3.9844 0.34072-7.9124-2.6022-11.691z" style="color:#000000;fill:#faa;stroke-dasharray:1.35307083, 1.35307083;stroke-dashoffset:1.2685;stroke-linecap:round;stroke-linejoin:round;stroke-width:.67654;stroke:#f00"/>
    <path d="m314 743.69c5.7412-1.1688 8.6169 0.1056 8.4992 3.4774l-10.603 16.856c0.8096-4.0253-0.17115-8.0132-2.8769-11.965z" style="color:#000000;fill:#faa;stroke-dasharray:1.35307083, 1.35307083;stroke-dashoffset:1.2051;stroke-linecap:round;stroke-linejoin:round;stroke-width:.67654;stroke:#f00"/>
    <path d="m166.16 709.49c2.1595-4.1112 5.7335-6.1004 10.234-6.6998l132.64 49.314c2.0268 3.6175 3.9966 7.2502 2.8013 11.727z" style="color:#000000;fill:#faa;stroke-dasharray:1.35307083, 1.35307083;stroke-linecap:round;stroke-linejoin:round;stroke-width:.67654;stroke:#f00"/>
    <path d="m340 701.72c3.1979 3.9357 3.1168 7.8715 2.6411 11.807l-66.018-24.728c-30.093-11.572-57.01 14.711-20.933 30.814l64.001 23.876c-1.7892-0.35099-3.6679-0.27965-5.6384 0.22389l-65.882-25.185c-23.448-8.9635-26.684-53.869 32.215-39.149z" style="color:#000000;fill:#faa;stroke-dasharray:1.35307083, 1.35307083;stroke-linecap:round;stroke-linejoin:round;stroke-width:.67654;stroke:#f00"/>
    <path d="m209.72 640.61 142.16 52.904c-2.4122-0.89818-4.7859-0.71758-7.1466-0.17421l-132.37-49.434c-0.65946-1.2565-1.1086-2.6644-2.6365-3.2956z" style="color:#000000;fill:#faa;stroke-dasharray:1.35307083, 1.35307083;stroke-dashoffset:.69768;stroke-linecap:round;stroke-linejoin:round;stroke-width:.67654;stroke:#f00"/>
   </g>
   <path d="m243.63 1026.6 41.235-67.247 145.84 54.268-10.251 16.918-66.043-24.552c-31.488-11.6-54.377 14.494-27.127 30.495l72.605 27.598-10.215 16.883z" style="color:#000000;fill:none;stroke-linecap:round;stroke-linejoin:round;stroke-width:.67654;stroke:#808080"/>
   <path d="m416.33 1051.7 4.1356-21.234-66.329-24.678c-20.098-8.8855-48.621 4.2026-35.703 22.96 10.785-6.5046 21.206-4.6421 31.583-1.7577z" style="color:#000000;fill:none;stroke-linecap:round;stroke-linejoin:round;stroke-width:.67654;stroke:#808080"/>
   <path d="m426.87 1035-10.409 16.701 4.0393-21.284 10.176-16.779z" style="color:#000000;fill:none;stroke-linecap:round;stroke-linejoin:round;stroke-width:.67654;stroke:#808080"/>
   <path d="m396.14 1085.4-10.409 16.701 4.0393-21.284 10.176-16.779z" style="color:#000000;fill:none;stroke-linecap:round;stroke-linejoin:round;stroke-width:.67654;stroke:#808080"/>
   <path d="m239.29 1047.8 146.33 54.488 4.0646-21.422-146.11-54.268z" style="color:#000000;fill:none;stroke-linecap:round;stroke-linejoin:round;stroke-width:.67654;stroke:#808080"/>
  </g>
  <g transform="translate(67.344 117.82)">
   <path d="m-42.343 915.17 41.235-67.247 145.84 54.268-10.251 16.918-66.043-24.552c-31.488-11.6-54.377 14.494-27.127 30.495l72.605 27.598-10.215 16.883z" style="color:#000000;fill:url(#linearGradient21585-5);stroke-linecap:round;stroke-linejoin:round;stroke-width:.67654;stroke:#67977f"/>
   <path d="m130.36 940.36 4.1356-21.234-66.329-24.678c-20.098-8.8856-48.621 4.2025-35.703 22.96 10.785-6.5046 21.206-4.6421 31.583-1.7577z" style="color:#000000;fill:url(#linearGradient21587-1);stroke-linecap:round;stroke-linejoin:round;stroke-width:.67654;stroke:#67977f"/>
   <path d="m140.89 923.65-10.409 16.701 4.0393-21.284 10.176-16.779z" style="color:#000000;fill:url(#linearGradient21589-5);stroke-linecap:round;stroke-linejoin:round;stroke-width:.67654;stroke:#67977f"/>
   <path d="m110.17 973.99-10.409 16.701 4.0393-21.284 10.176-16.779z" style="color:#000000;fill:url(#linearGradient21591-6);stroke-linecap:round;stroke-linejoin:round;stroke-width:.67654;stroke:#67977f"/>
   <path d="m-46.685 936.41 146.33 54.488 4.0646-21.422-146.11-54.268z" style="color:#000000;fill:url(#linearGradient21593-4);stroke-linecap:round;stroke-linejoin:round;stroke-width:.67654;stroke:#67977f"/>
   <path d="m-42.343 915.17 41.235-67.247 145.84 54.268-10.251 16.918-66.043-24.552c-31.488-11.6-54.377 14.494-27.127 30.495l72.605 27.598-10.215 16.883z" style="color:#000000;fill:none;stroke-linecap:round;stroke-linejoin:round;stroke-width:1.4324;stroke:#f00"/>
  </g>
  <path d="m53.017 1068.9 6.2253-5.147 6.9023 14.13 6.2932-3.0742-6.9023-14.13 7.4287-1.523-19.542-14.716z" style="fill:#fff;stroke-linecap:round;stroke-linejoin:round;stroke-width:.75591;stroke:#000"/>
  <ellipse cx="91.08" cy="1074.6" rx="13.199" ry="13.469" style="fill:#1f638a;stroke-linecap:round;stroke-linejoin:round;stroke-width:1.0658"/>
  <text x="85.238266" y="1082.2556" style="fill:#000000;font-family:'Arial Nova', 'Arial Unicode MS', 'Yu Gothic UI', sans-serif;font-size:12.8px;letter-spacing:0px;line-height:0%;stroke-width:1.0667;word-spacing:0px" xml:space="preserve"><tspan x="85.238266" y="1082.2556" style="fill:#ffffff;font-family:'Arial Nova', 'Arial Unicode MS', 'Yu Gothic UI', sans-serif;font-size:21.333px;font-weight:bold;stroke-width:1.0667">1</tspan></text>
  <g transform="rotate(-90 654.06 641.62)">
   <path d="m234.83 220.11 6.2408 9.9675 6.2408-9.9675z" style="fill:#1f638a;stroke-linecap:round;stroke-linejoin:round;stroke-width:.37795;stroke:#1f638a"/>
   <rect transform="matrix(0,1,1,0,0,0)" x="209.81" y="238.21" width="11.439" height="5.7059" style="fill:#1f638a;stroke-linecap:round;stroke-linejoin:round;stroke-width:.37795;stroke:#1f638a"/>
  </g>
  <g transform="rotate(-90 765.3 530.38)">
   <path d="m234.83 220.11 6.2408 9.9675 6.2408-9.9675z" style="fill:#1f638a;stroke-linecap:round;stroke-linejoin:round;stroke-width:.37795;stroke:#1f638a"/>
   <rect transform="matrix(0,1,1,0,0,0)" x="209.81" y="238.21" width="11.439" height="5.7059" style="fill:#1f638a;stroke-linecap:round;stroke-linejoin:round;stroke-width:.37795;stroke:#1f638a"/>
  </g>
 </g>
</svg>
