<?xml version="1.0" encoding="UTF-8"?>
<svg width="18cm" height="6.5cm" version="1.1" xmlns="http://www.w3.org/2000/svg" xmlns:xlink="http://www.w3.org/1999/xlink"><defs><linearGradient id="linearGradient15498"><stop style="stop-color:#fff" offset="0"/><stop style="stop-color:#808080" offset="1"/></linearGradient><linearGradient id="linearGradient18535-0-4" x1="341.74" x2="605.08" y1="365.45" y2="365.45" gradientTransform="matrix(.63776 0 0 .63776 269.44 -49.854)" gradientUnits="userSpaceOnUse" xlink:href="#linearGradient15498"/><linearGradient id="linearGradient18533-9-4" x1="428.98" x2="506.32" y1="226.41" y2="226.41" gradientTransform="matrix(1.0667 0 0 1.0667 2.1591 -100.76)" gradientUnits="userSpaceOnUse"><stop style="stop-color:#fff" offset="0"/><stop style="stop-color:#00385e" offset="1"/></linearGradient><linearGradient id="linearGradient18531-8-6" x1="-83.939" x2="320.82" y1="82.604" y2="82.604" gradientTransform="matrix(.36447 0 0 .36447 374.83 42.85)" gradientUnits="userSpaceOnUse" xlink:href="#linearGradient15498"/><linearGradient id="linearGradient18527-6" x1="341.74" x2="605.08" y1="365.45" y2="365.45" gradientTransform="matrix(.63776 0 0 .63776 -59.419 -49.167)" gradientUnits="userSpaceOnUse" xlink:href="#linearGradient11639-0"/><linearGradient id="linearGradient11639-0"><stop style="stop-color:#ff8500" offset="0"/><stop style="stop-color:#fff" offset="1"/></linearGradient><linearGradient id="linearGradient18529-0" x1="-83.939" x2="320.82" y1="82.604" y2="82.604" gradientTransform="matrix(.36446 0 0 .36446 44.768 43.853)" gradientUnits="userSpaceOnUse" xlink:href="#linearGradient11639-0"/></defs><path d="m344.41 48.35 31.442-25.257 82.47 29.896c21.875 7.3069 31.979 22.853 33.246 44.586l-30.669 25.257c-1.0616-27.287-15.114-38.466-33.246-44.586z" style="fill:url(#linearGradient18531-8-6);stroke-linecap:round;stroke-linejoin:round;stroke-width:1.8898;stroke:#7d7d7d"/><path d="m361.17 34.95 69.069 24.999c23.056 7.7151 47.668 12.337 48.065 48.709" style="fill:none;stroke-linecap:round;stroke-linejoin:round;stroke-width:.75591;stroke:#7d7d7d"/><path d="m409.88 35.46-30.926 25.257" style="fill:none;stroke-linecap:round;stroke-linejoin:round;stroke-width:.75591;stroke:#7d7d7d"/><path d="m479.96 66.49-30.653 24.892" style="fill:none;stroke-linecap:round;stroke-linejoin:round;stroke-width:.75591;stroke:#7d7d7d"/><path d="m460.79 121.65 30.422-25.035c0.51558 19.394 21.712 34.104 51.304 44.649l-55.265 43.606c-16.795-10.502-27.779-28.707-26.461-63.22z" style="fill:url(#linearGradient18533-9-4);stroke-linecap:round;stroke-linejoin:round;stroke-width:1.8898;stroke:#7d7d7d"/><path d="m465.07 158.09 43.097-34.383" style="fill:none;stroke-linecap:round;stroke-linejoin:round;stroke-width:.75591;stroke:#7d7d7d"/><path d="m475.85 109.45c1.5478 25.554 15.416 42.412 38.503 52.763" style="fill:none;stroke-linecap:round;stroke-linejoin:round;stroke-width:.75591;stroke:#7d7d7d"/><path d="m487.71 185.24 54.116-44.195 113.19 41.038-53.665 43.293z" style="fill:url(#linearGradient18535-0-4);stroke-linecap:round;stroke-linejoin:round;stroke-width:1.8898;stroke:#7d7d7d"/><path d="m598.76 161.45-54.116 44.195" style="fill:none;stroke-linecap:round;stroke-linejoin:round;stroke-width:.75591;stroke:#7d7d7d"/><path d="m514.76 163.48 113.87 40.136" style="fill:none;stroke-linecap:round;stroke-linejoin:round;stroke-width:.75591;stroke:#7d7d7d"/><path d="m14.358 49.347 31.442-25.257 82.47 29.896c21.874 7.3068 31.979 22.852 33.245 44.585l-30.668 25.257c-1.0616-27.287-15.114-38.465-33.245-44.585z" style="fill:url(#linearGradient18529-0);stroke-linecap:round;stroke-linejoin:round;stroke-width:1.8897;stroke:#7d7d7d"/><path d="m31.108 35.946 69.068 24.998c23.056 7.715 47.667 12.336 48.065 48.709" style="fill:none;stroke-linecap:round;stroke-linejoin:round;stroke-width:.75589;stroke:#7d7d7d"/><path d="m79.818 36.461-30.926 25.257" style="fill:none;stroke-linecap:round;stroke-linejoin:round;stroke-width:.75589;stroke:#7d7d7d"/><path d="m149.9 67.495-30.653 24.892" style="fill:none;stroke-linecap:round;stroke-linejoin:round;stroke-width:.75589;stroke:#7d7d7d"/><path d="m158.85 185.93 54.116-44.195 113.19 41.038-53.665 43.293z" style="fill:url(#linearGradient18527-6);stroke-linecap:round;stroke-linejoin:round;stroke-width:1.8898;stroke:#7d7d7d"/><path d="m269.9 162.15-54.116 44.195" style="fill:none;stroke-linecap:round;stroke-linejoin:round;stroke-width:.75591;stroke:#7d7d7d"/><path d="m185.91 164.18 113.87 40.136" style="fill:none;stroke-linecap:round;stroke-linejoin:round;stroke-width:.75591;stroke:#7d7d7d"/><path d="m157.59 185.57 55.377-44.345c-15.513-6.1341-41.095-0.32208-62.274-2.168-12.57 0.20367-18.163-4.6802-20.101-16.161l31.728-25.622c-2.6264 18.045-9.6445 29.323-11.43 41.98-8.3213 22.916-10.66 39.794 6.7004 46.316z" style="fill-opacity:.098039;fill-rule:evenodd;fill:#f00;stroke-dasharray:0.75590551, 2.26771653;stroke-linecap:round;stroke-linejoin:round;stroke-width:.75591;stroke:#f00"/><path d="m211.91 142.32-52.709 42.969" style="fill:none;stroke-linecap:round;stroke-linejoin:round;stroke-width:3.7795;stroke:#f00"/><path d="m161.51 98.571-30.333 24.285" style="fill:none;stroke-linecap:round;stroke-linejoin:round;stroke-width:3.7795;stroke:#f00"/><rect x="8.3848" y="12.338" width="325.27" height="221.32" style="fill:none;stroke-linecap:round;stroke-linejoin:round;stroke:#dadada"/><g transform="translate(69.4 253.26)"><ellipse cx="48.684" cy="-98.798" rx="13.199" ry="13.469" style="fill:#1f638a;stroke-linecap:round;stroke-linejoin:round;stroke-width:1.0658"/><text x="42.842751" y="-91.162346" style="fill:#000000;font-family:'Arial Nova', 'Arial Unicode MS', 'Yu Gothic UI', sans-serif;font-size:12.8px;letter-spacing:0px;line-height:0%;stroke-width:1.0667;word-spacing:0px" xml:space="preserve"><tspan x="42.842751" y="-91.162346" style="fill:#ffffff;font-family:'Arial Nova', 'Arial Unicode MS', 'Yu Gothic UI', sans-serif;font-size:21.333px;line-height:1.25;stroke-width:1.0667;stroke:#ffffff">4</tspan></text></g><path d="m143.87 112.74c1.5478 25.554 15.416 42.412 38.503 52.763" style="fill:none;stroke-dasharray:0.75590849, 1.51181698;stroke-linecap:round;stroke-linejoin:round;stroke-width:.75591;stroke:#f00"/></svg>
