<?xml version="1.0" encoding="UTF-8"?>
<svg width="18cm" height="6cm" version="1.1" xmlns="http://www.w3.org/2000/svg" xmlns:xlink="http://www.w3.org/1999/xlink">
 <defs>
  <linearGradient id="linearGradient17295-9-4-8-4-5">
   <stop style="stop-color:#fff" offset="0"/>
   <stop style="stop-color:#808080" offset="1"/>
  </linearGradient>
  <linearGradient id="linearGradient6547" x1="-17.844" x2="395.21" y1="1415.2" y2="1415.2" gradientTransform="scale(1.0667)" gradientUnits="userSpaceOnUse" xlink:href="#linearGradient17295-9-4-8-4-5"/>
  <linearGradient id="linearGradient6549" x1="79.131" x2="298.23" y1="1463.7" y2="1463.7" gradientTransform="scale(1.0667)" gradientUnits="userSpaceOnUse" xlink:href="#linearGradient17295-9-4-8-4-5"/>
  <linearGradient id="linearGradient6551" x1="-15.711" x2="397.34" y1="689.3" y2="689.3" gradientTransform="matrix(.13867 0 0 .13867 413.25 77.992)" gradientUnits="userSpaceOnUse" xlink:href="#linearGradient17295-9-4-8-4-5"/>
  <linearGradient id="linearGradient6553" x1="876.14" x2="1289.1" y1="1113.9" y2="1113.9" gradientTransform="matrix(.25858 0 0 .25858 352.55 491.75)" gradientUnits="userSpaceOnUse" xlink:href="#linearGradient17295-9-4-8-4-5"/>
  <linearGradient id="linearGradient6555" x1="532.44" x2="740.36" y1="1111.9" y2="1111.9" gradientTransform="matrix(.25858 0 0 .25858 166.51 487.8)" gradientUnits="userSpaceOnUse" xlink:href="#linearGradient17295-9-4-8-4-5"/>
  <linearGradient id="linearGradient6559" x1="141.76" x2="253.71" y1="1111.4" y2="1111.4" gradientTransform="matrix(.13867 0 0 .13867 412.14 73.216)" gradientUnits="userSpaceOnUse" xlink:href="#linearGradient17295-9-4-8-4-5"/>
  <linearGradient id="linearGradient6125" x1="-153.1" x2="-195.99" y1="445.65" y2="449.69" gradientTransform="matrix(.57202 0 0 .57202 196.64 -30.583)" gradientUnits="userSpaceOnUse" xlink:href="#linearGradient17295-9-4-8-4-5"/>
  <linearGradient id="linearGradient6127" x1="-169.48" x2="-97.368" y1="458.41" y2="455.89" gradientTransform="matrix(.57202 0 0 .57202 196.64 -30.583)" gradientUnits="userSpaceOnUse" xlink:href="#linearGradient17295-9-4-8-4-5"/>
  <linearGradient id="linearGradient6129" x1="-209.17" x2="-60.998" y1="393.13" y2="394.64" gradientTransform="matrix(.57202 0 0 .57202 196.64 -30.583)" gradientUnits="userSpaceOnUse" xlink:href="#linearGradient17295-9-4-8-4-5"/>
  <linearGradient id="linearGradient7033" x1="-399.68" x2="-191.76" y1="1113.1" y2="1113.1" gradientTransform="matrix(.13867 0 0 .13867 423.39 72.901)" gradientUnits="userSpaceOnUse" xlink:href="#linearGradient17295-9-4-8-4-5"/>
 </defs>
 <g transform="translate(0 -113.39)">
  <path d="m474.45 252.89-7.4596 7.5763m-62.094-66.423 69.623-1e-5 -1e-5 58.977-7.8144 0.0484 0.25009 7.331h-62.058z" style="color:#000000;fill-rule:evenodd;fill:#fff;opacity:.56272;stroke-linecap:round;stroke-linejoin:round;stroke-miterlimit:10;stroke-width:.67654;stroke:#808080"/>
  <path d="m447.23 246.39v-38.275h-15.338v38.275z" style="color:#000000;fill:url(#linearGradient6559);opacity:.56272;stroke-linecap:round;stroke-linejoin:round;stroke-width:.67654;stroke:#7d7d7d"/>
  <path d="m424.26 208.12h7.7041v38.275h-21.011z" style="color:#000000;fill:#ccc;opacity:.56272;stroke-linecap:round;stroke-linejoin:round;stroke-width:.67654;stroke:#7d7d7d"/>
  <path d="m455.01 208.12h-7.7041v38.275h21.011z" style="color:#000000;fill:#ccc;opacity:.56272;stroke-linecap:round;stroke-linejoin:round;stroke-width:.67654;stroke:#7d7d7d"/>
  <path d="m402.82 252.89-7.4596 7.5763m-62.094-66.423 69.623-1e-5 -2e-5 58.977-7.8144 0.0484 0.25009 7.331h-62.058z" style="color:#000000;fill-rule:evenodd;fill:#fff;opacity:.56272;stroke-linecap:round;stroke-linejoin:round;stroke-miterlimit:10;stroke-width:.67654;stroke:#808080"/>
  <path d="m368.06 208.1h15.268l13.377 38.31h-28.645z" style="color:#000000;fill:url(#linearGradient7033);opacity:.56272;stroke-linecap:round;stroke-linejoin:round;stroke-miterlimit:10;stroke-width:.67654;stroke:#7d7d7d"/>
  <g transform="matrix(.53627 0 0 .53627 319.38 -188.51)" style="opacity:.56272;stroke-miterlimit:10;stroke-width:.63425">
   <path d="m422.46 823.1-13.91 14.128m-115.79-123.86 129.83-1e-5 -4e-5 109.98-14.572 0.0902 0.46635 13.67h-115.72z" style="color:#000000;fill-rule:evenodd;fill:#fff;stroke-linecap:round;stroke-linejoin:round;stroke-miterlimit:10;stroke-width:1.2616;stroke:#808080"/>
   <path d="m357.78 739.59h-28.471l-24.945 71.439h53.416z" style="color:#000000;fill:url(#linearGradient6555);stroke-linecap:round;stroke-linejoin:round;stroke-miterlimit:10;stroke-width:1.2616;stroke:#7d7d7d"/>
  </g>
  <g transform="matrix(.53627 0 0 .53627 243.56 -190.91)" style="opacity:.56272;stroke-miterlimit:10;stroke-width:.63425">
   <path d="m697.28 827.58-13.91 14.128m-115.79-123.86 129.83-1e-5 -3e-5 109.98-14.572 0.0902 0.46634 13.67h-115.72z" style="color:#000000;fill-rule:evenodd;fill:#fff;stroke-linecap:round;stroke-linejoin:round;stroke-miterlimit:10;stroke-width:1.2616;stroke:#808080"/>
   <path d="m603.69 744.12h57.073l24.945 71.308h-106.44z" style="color:#000000;fill:url(#linearGradient6553);stroke-linecap:round;stroke-linejoin:round;stroke-miterlimit:10;stroke-width:1.2616;stroke:#7d7d7d"/>
  </g>
  <path d="m474.45 184.95-7.4595 7.5763m-62.094-66.423 69.623-1e-5 -1e-5 58.977-7.8144 0.0484 0.25008 7.331h-62.058z" style="color:#000000;fill-rule:evenodd;fill:#fff;opacity:.56272;stroke-linecap:round;stroke-linejoin:round;stroke-miterlimit:10;stroke-width:.67654;stroke:#808080"/>
  <path d="m468.25 159.3c0 15.765-12.78 28.545-28.545 28.545s-28.545-12.78-28.545-28.545l21.081 1e-5c0 4.1222 3.3417 7.4639 7.464 7.4639s7.464-3.3417 7.464-7.4639z" style="color:#000000;fill:url(#linearGradient6551);opacity:.56272;stroke-linecap:round;stroke-linejoin:round;stroke-width:.67654;stroke:#7d7d7d"/>
  <path d="m474.47 320.83-7.4596 7.5763m-62.094-66.423 69.623-1e-5 -1e-5 58.977-7.8144 0.0484 0.25009 7.331h-62.058z" style="color:#000000;fill-rule:evenodd;fill:#fff;opacity:.56272;stroke-linecap:round;stroke-linejoin:round;stroke-miterlimit:10;stroke-width:.67654;stroke:#808080"/>
  <g transform="matrix(.13 0 0 .13 413.59 84.696)" style="opacity:.56272">
   <path d="m420.84 1619.4c0-121.27-98.308-219.58-219.58-219.58-121.27 0-219.58 98.308-219.58 219.58h103.44c0-64.141 51.997-116.14 116.14-116.14 64.141 0 116.14 51.997 116.14 116.14z" style="color:#000000;fill:url(#linearGradient6547);stroke-linecap:round;stroke-linejoin:round;stroke-width:5.2041;stroke:#7d7d7d"/>
   <path d="m317.4 1619.4c0-64.141-51.997-116.14-116.14-116.14-64.141 0-116.14 51.997-116.14 116.14h58.724c0-31.709 25.706-57.415 57.415-57.415s57.415 25.706 57.415 57.415z" style="color:#000000;fill:url(#linearGradient6549);stroke-linecap:round;stroke-linejoin:round;stroke-width:5.2041;stroke:#7d7d7d"/>
  </g>
  <g transform="matrix(1.5513 0 0 1.5513 -2.4288 -87.446)">
   <path d="m85.801 242.08c2.2133-1.1922 5.1999-1.9232 8.4861-1.9232 6.8234 0 12.355 3.1517 12.355 7.0395 0 1.9138-1.3404 3.6492-3.5153 4.9181l0.34573-50.75c1.9704-1.2472 3.1697-2.8978 3.1697-4.708 0-3.8878-5.5315-7.0394-12.355-7.0394-3.1271 0-5.9827 0.6619-8.159 1.7532z" style="color:#000000;fill:url(#linearGradient6125);stroke-linecap:round;stroke-linejoin:round;stroke-width:.92336;stroke:#7d7d7d"/>
   <path d="m112.26 206.44c4.2626-2.579 6.8805-6.0741 6.8805-9.9226 0-0.77463-0.10603-1.535-0.31026-2.2764l21.247 48.191c0.47935 1.548 0.72961 3.142 0.72961 4.7697 0 7.3938-5.1625 14.09-13.518 18.952z" style="color:#000000;fill:url(#linearGradient6127);stroke-linecap:round;stroke-linejoin:round;stroke-width:.92336;stroke:#7d7d7d"/>
   <path d="m112.26 206.44c4.2626-2.579 6.8805-6.0741 6.8805-9.9226 0-7.9342-11.127-14.366-24.854-14.366-6.6539 0-12.697 1.5114-17.158 3.9728l8.999 5.2509c2.1763-1.0913 5.032-1.7532 8.159-1.7532 6.8234 0 12.355 3.1517 12.355 7.0394 0 1.8102-1.1992 3.4608-3.1697 4.708z" style="color:#000000;fill:url(#linearGradient6129);stroke-linecap:round;stroke-linejoin:round;stroke-width:.92336;stroke:#7d7d7d"/>
   <path d="m77.129 186.12 8.999 5.2509-0.32702 50.71-24.326-13.945z" style="color:#000000;fill:#ccc;stroke-linecap:round;stroke-linejoin:round;stroke-width:.92336;stroke:#7d7d7d"/>
   <path d="m127.29 266.15-24.162-14.034 0.34573-50.75 8.7878 5.0709z" style="color:#000000;fill:#ccc;stroke-linecap:round;stroke-linejoin:round;stroke-width:.92336;stroke:#7d7d7d"/>
  </g>
  <path d="m545.93 320.85-7.4596 7.5763m-62.094-66.423 69.623-2e-5 -1e-5 58.977-7.8144 0.0484 0.25008 7.331h-62.058z" style="color:#000000;fill-rule:evenodd;fill:#fff;stroke-linecap:round;stroke-linejoin:round;stroke-miterlimit:10;stroke-width:.67654;stroke:#f00"/>
  <g transform="matrix(.69329 0 0 .69329 439 139.98)">
   <path d="m85.801 242.08c2.2133-1.1922 5.1999-1.9232 8.4861-1.9232 6.8234 0 12.355 3.1517 12.355 7.0395 0 1.9138-1.3404 3.6492-3.5153 4.9181l0.34573-50.75c1.9704-1.2472 3.1697-2.8978 3.1697-4.708 0-3.8878-5.5315-7.0394-12.355-7.0394-3.1271 0-5.9827 0.6619-8.159 1.7532z" style="color:#000000;fill:url(#linearGradient6125);stroke-linecap:round;stroke-linejoin:round;stroke-width:.97583;stroke:#7d7d7d"/>
   <path d="m112.26 206.44c4.2626-2.579 6.8805-6.0741 6.8805-9.9226 0-0.77463-0.10603-1.535-0.31026-2.2764l21.247 48.191c0.47935 1.548 0.72961 3.142 0.72961 4.7697 0 7.3938-5.1625 14.09-13.518 18.952z" style="color:#000000;fill:url(#linearGradient6127);stroke-linecap:round;stroke-linejoin:round;stroke-width:.97583;stroke:#7d7d7d"/>
   <path d="m112.26 206.44c4.2626-2.579 6.8805-6.0741 6.8805-9.9226 0-7.9342-11.127-14.366-24.854-14.366-6.6539 0-12.697 1.5114-17.158 3.9728l8.999 5.2509c2.1763-1.0913 5.032-1.7532 8.159-1.7532 6.8234 0 12.355 3.1517 12.355 7.0394 0 1.8102-1.1992 3.4608-3.1697 4.708z" style="color:#000000;fill:url(#linearGradient6129);stroke-linecap:round;stroke-linejoin:round;stroke-width:.97583;stroke:#7d7d7d"/>
   <path d="m77.129 186.12 8.999 5.2509-0.32702 50.71-24.326-13.945z" style="color:#000000;fill:#ccc;stroke-linecap:round;stroke-linejoin:round;stroke-width:.97583;stroke:#7d7d7d"/>
   <path d="m127.29 266.15-24.162-14.034 0.34573-50.75 8.7878 5.0709z" style="color:#000000;fill:#ccc;stroke-linecap:round;stroke-linejoin:round;stroke-width:.97583;stroke:#7d7d7d"/>
  </g>
  <g transform="matrix(.2917 0 0 .28875 219.74 247.16)" style="fill:#1f638a;stroke-linecap:round;stroke-linejoin:round;stroke-width:1.2209;stroke:#1f638a">
   <path d="m207.49 126.25 34.17 21.614-34.17 21.614z" style="fill:#1f638a;stroke-linecap:round;stroke-linejoin:round;stroke-width:1.3023;stroke:#1f638a"/>
   <rect x="172.19" y="137.99" width="39.213" height="19.761" style="fill:#1f638a;stroke-linecap:round;stroke-linejoin:round;stroke-width:1.3023;stroke:#1f638a"/>
  </g>
 </g>
 <g transform="translate(361.58 280.9)">
  <ellipse cx="204.69" cy="-98.798" rx="13.199" ry="13.469" style="fill:#1f638a;stroke-linecap:round;stroke-linejoin:round;stroke-width:1.0658"/>
  <text x="198.84944" y="-91.256096" style="fill:#000000;font-family:'Arial Nova', 'Arial Unicode MS', 'Yu Gothic UI', sans-serif;font-size:12.8px;letter-spacing:0px;line-height:0%;stroke-width:1.0667;word-spacing:0px" xml:space="preserve"><tspan x="198.84944" y="-91.256096" style="fill:#ffffff;font-family:'Arial Nova', 'Arial Unicode MS', 'Yu Gothic UI', sans-serif;font-size:21.333px;line-height:1.25;stroke-width:1.0667;stroke:#ffffff">9</tspan></text>
 </g>
</svg>
