<?xml version="1.0" encoding="UTF-8"?>
<svg width="491.34" height="283.46" version="1.1" xmlns="http://www.w3.org/2000/svg" xmlns:xlink="http://www.w3.org/1999/xlink">
 <defs>
  <linearGradient id="linearGradient17780-7">
   <stop style="stop-color:#fff" offset="0"/>
   <stop style="stop-color:#00385e" offset="1"/>
  </linearGradient>
  <linearGradient id="linearGradient5269" x1="352.89" x2="299.24" y1="47.22" y2="47.22" gradientTransform="matrix(.46082 0 0 .46082 -54.638 879.37)" gradientUnits="userSpaceOnUse">
   <stop style="stop-color:#D2DADD" offset="0"/>
   <stop style="stop-color:#165489" offset="1"/>
  </linearGradient>
  <linearGradient id="linearGradient5271" x1="240.95" x2="416.93" y1="66.624" y2="67.512" gradientTransform="matrix(.46082 0 0 .46082 -54.692 885.17)" gradientUnits="userSpaceOnUse">
   <stop style="stop-color:#fff" offset="0"/>
   <stop style="stop-color:#00385e" offset="1"/>
  </linearGradient>
  <linearGradient id="linearGradient5273" x1="61.71" x2="220.82" y1="119.1" y2="126.2" gradientTransform="matrix(.46082 0 0 .46082 -3.6546 866.52)" gradientUnits="userSpaceOnUse" xlink:href="#linearGradient17780-7"/>
  <linearGradient id="linearGradient5277" x1="61.639" x2="518.76" y1="57.258" y2="63.472" gradientTransform="matrix(.46082 0 0 .46082 -3.6152 866.58)" gradientUnits="userSpaceOnUse" xlink:href="#linearGradient17780-7"/>
  <linearGradient id="linearGradient5279" x1="137.1" x2="393.61" y1="108.09" y2="108.09" gradientTransform="matrix(.46082 0 0 .46082 -3.6546 866.52)" gradientUnits="userSpaceOnUse" xlink:href="#linearGradient17780-7"/>
  <linearGradient id="linearGradient5239-9" x1="352.89" x2="299.24" y1="47.22" y2="47.22" gradientTransform="matrix(.46082 0 0 .46082 207.75 878.21)" gradientUnits="userSpaceOnUse">
   <stop style="stop-color:#D2DADD" offset="0"/>
   <stop style="stop-color:#165489" offset="1"/>
  </linearGradient>
  <linearGradient id="linearGradient5236-0" x1="240.95" x2="416.93" y1="66.624" y2="67.512" gradientTransform="matrix(.46082 0 0 .46082 207.7 884.01)" gradientUnits="userSpaceOnUse">
   <stop style="stop-color:#fff" offset="0"/>
   <stop style="stop-color:#00385e" offset="1"/>
  </linearGradient>
  <linearGradient id="linearGradient5233-3" x1="61.71" x2="220.82" y1="119.1" y2="126.2" gradientTransform="matrix(.46082 0 0 .46082 258.74 865.37)" gradientUnits="userSpaceOnUse" xlink:href="#linearGradient17780-7"/>
  <linearGradient id="linearGradient5219-9" x1="352.89" x2="299.24" y1="47.22" y2="47.22" gradientTransform="matrix(.46082 0 0 .46082 258.74 865.37)" gradientUnits="userSpaceOnUse">
   <stop style="stop-color:#D2DADD" offset="0"/>
   <stop style="stop-color:#165489" offset="1"/>
  </linearGradient>
  <linearGradient id="linearGradient5216-6" x1="240.95" x2="416.93" y1="66.624" y2="67.512" gradientTransform="matrix(.46082 0 0 .46082 258.68 871.17)" gradientUnits="userSpaceOnUse" xlink:href="#linearGradient17780-7"/>
  <linearGradient id="linearGradient5202-6" x1="137.1" x2="393.61" y1="108.09" y2="108.09" gradientTransform="matrix(.46082 0 0 .46082 258.74 865.37)" gradientUnits="userSpaceOnUse" xlink:href="#linearGradient17780-7"/>
  <linearGradient id="linearGradient5346" x1="61.639" x2="518.76" y1="57.258" y2="63.472" gradientTransform="matrix(.46082 0 0 .46082 258.68 865.34)" gradientUnits="userSpaceOnUse" xlink:href="#linearGradient17780-7"/>
  <linearGradient id="linearGradient7747-2-1">
   <stop style="stop-color:#fff" offset="0"/>
   <stop style="stop-color:#808080" offset="1"/>
  </linearGradient>
  <linearGradient id="linearGradient10699" x1="268.91" x2="412.85" y1="843.39" y2="843.39" gradientTransform="matrix(1.0667 0 0 1.0667 17.043 -736.67)" gradientUnits="userSpaceOnUse" xlink:href="#linearGradient7747-2-1"/>
  <linearGradient id="linearGradient315" x1="352.89" x2="299.24" y1="47.22" y2="47.22" gradientTransform="matrix(.46082 0 0 .46082 -14.168 33.35)" gradientUnits="userSpaceOnUse" xlink:href="#linearGradient5269"/>
  <linearGradient id="linearGradient317" x1="240.95" x2="416.93" y1="66.624" y2="67.512" gradientTransform="matrix(.46082 0 0 .46082 -14.222 39.15)" gradientUnits="userSpaceOnUse" xlink:href="#linearGradient5271"/>
  <linearGradient id="linearGradient319" x1="61.71" x2="220.82" y1="119.1" y2="126.2" gradientTransform="matrix(.46082 0 0 .46082 36.815 20.5)" gradientUnits="userSpaceOnUse" xlink:href="#linearGradient17780-7"/>
  <linearGradient id="linearGradient323" x1="61.639" x2="518.76" y1="57.258" y2="63.472" gradientTransform="matrix(.46082 0 0 .46082 36.855 20.56)" gradientUnits="userSpaceOnUse" xlink:href="#linearGradient17780-7"/>
  <linearGradient id="linearGradient325" x1="137.1" x2="393.61" y1="108.09" y2="108.09" gradientTransform="matrix(.46082 0 0 .46082 36.815 20.5)" gradientUnits="userSpaceOnUse" xlink:href="#linearGradient17780-7"/>
  <linearGradient id="linearGradient335" x1="268.91" x2="412.85" y1="843.39" y2="843.39" gradientTransform="matrix(1.0667,0,0,1.0667,20.538,102.77)" gradientUnits="userSpaceOnUse" xlink:href="#linearGradient7747-2-1"/>
  <linearGradient id="linearGradient343" x1="352.89" x2="299.24" y1="47.22" y2="47.22" gradientTransform="matrix(.46082 0 0 .46082 -14.11 118.45)" gradientUnits="userSpaceOnUse" xlink:href="#linearGradient5239-9"/>
  <linearGradient id="linearGradient345" x1="240.95" x2="416.93" y1="66.624" y2="67.512" gradientTransform="matrix(.46082 0 0 .46082 -14.16 124.25)" gradientUnits="userSpaceOnUse" xlink:href="#linearGradient5236-0"/>
  <linearGradient id="linearGradient347" x1="61.71" x2="220.82" y1="119.1" y2="126.2" gradientTransform="matrix(.46082 0 0 .46082 36.88 105.61)" gradientUnits="userSpaceOnUse" xlink:href="#linearGradient17780-7"/>
  <linearGradient id="linearGradient349" x1="276.87" x2="276.87" y1="31.688" y2="31.688" gradientTransform="matrix(.46082 0 0 .46082 258.74 865.37)" gradientUnits="userSpaceOnUse">
   <stop style="stop-color:#D2DADD" offset="0"/>
   <stop style="stop-color:#165489" offset="1"/>
  </linearGradient>
  <linearGradient id="linearGradient351" x1="352.89" x2="299.24" y1="47.22" y2="47.22" gradientTransform="matrix(.46082 0 0 .46082 36.88 105.61)" gradientUnits="userSpaceOnUse" xlink:href="#linearGradient5219-9"/>
  <linearGradient id="linearGradient353" x1="240.95" x2="416.93" y1="66.624" y2="67.512" gradientTransform="matrix(.46082 0 0 .46082 36.82 111.41)" gradientUnits="userSpaceOnUse" xlink:href="#linearGradient17780-7"/>
  <linearGradient id="linearGradient355" x1="137.1" x2="393.61" y1="108.09" y2="108.09" gradientTransform="matrix(.46082 0 0 .46082 36.88 105.61)" gradientUnits="userSpaceOnUse" xlink:href="#linearGradient17780-7"/>
  <linearGradient id="linearGradient357" x1="61.639" x2="518.76" y1="57.258" y2="63.472" gradientTransform="matrix(.46082 0 0 .46082 36.82 105.58)" gradientUnits="userSpaceOnUse" xlink:href="#linearGradient17780-7"/>
  <linearGradient id="linearGradient359" x1="352.89" x2="299.24" y1="47.22" y2="47.22" gradientTransform="matrix(.46082 0 0 .46082 -54.638 879.37)" gradientUnits="userSpaceOnUse" xlink:href="#linearGradient5269"/>
  <linearGradient id="linearGradient361" x1="240.95" x2="416.93" y1="66.624" y2="67.512" gradientTransform="matrix(.46082 0 0 .46082 -54.692 885.17)" gradientUnits="userSpaceOnUse" xlink:href="#linearGradient5271"/>
  <linearGradient id="linearGradient365" x1="352.89" x2="299.24" y1="47.22" y2="47.22" gradientTransform="matrix(.46082 0 0 .46082 207.75 878.21)" gradientUnits="userSpaceOnUse" xlink:href="#linearGradient5239-9"/>
  <linearGradient id="linearGradient367" x1="240.95" x2="416.93" y1="66.624" y2="67.512" gradientTransform="matrix(.46082 0 0 .46082 207.7 884.01)" gradientUnits="userSpaceOnUse" xlink:href="#linearGradient5236-0"/>
  <linearGradient id="linearGradient371" x1="352.89" x2="299.24" y1="47.22" y2="47.22" gradientTransform="matrix(.46082 0 0 .46082 258.74 865.37)" gradientUnits="userSpaceOnUse" xlink:href="#linearGradient5219-9"/>
 </defs>
 <path d="m95.843 52.82 27.37-6.8877 0.0251 5.7146-27.395 6.9103z" style="fill:#165489;stroke-linecap:round;stroke-linejoin:round;stroke-miterlimit:9.3333;stroke-width:.67654;stroke:#4d4d4d"/>
 <path d="m123.24 51.63 24.996 13.408-0.0598-5.8679-24.961-13.241z" style="fill:url(#linearGradient315);stroke-linecap:round;stroke-linejoin:round;stroke-miterlimit:9.3333;stroke-width:.67654;stroke:#4d4d4d"/>
 <path d="m121.07 71.74-23.931-13.608 26.081-6.4597 24.995 13.18z" style="fill-rule:evenodd;fill:url(#linearGradient317);stroke-linecap:round;stroke-linejoin:round;stroke-miterlimit:9.3333;stroke-width:.67654;stroke:#4d4d4d"/>
 <path d="m100.14 87.27-34.799-21.069v-14.888l34.796 19.89z" style="fill:url(#linearGradient319);stroke-linecap:round;stroke-linejoin:round;stroke-miterlimit:9.3333;stroke-width:.67654;stroke:#4d4d4d"/>
 <path d="m123.25 45.99 25.03 13.161 69.855-17.709-37-19.118-115.79 29.028 34.773 19.878 20.972-5.241-25.013-13.161z" style="fill:url(#linearGradient323);stroke-linecap:round;stroke-linejoin:round;stroke-miterlimit:9.3333;stroke-width:.67654;stroke:#4d4d4d"/>
 <path d="m121.02 65.94 0.0203 5.9467 27.173-6.9726-0.0197-5.769 69.918-17.768v16.237l-117.97 29.656v-16.069z" style="fill:url(#linearGradient325);stroke-linecap:round;stroke-linejoin:round;stroke-miterlimit:9.3333;stroke-width:.67654;stroke:#4d4d4d"/>
 <path d="m334.81 161.06 27.37-6.8878 0.0252 5.7146-27.395 6.9103z" style="fill:url(#linearGradient10699);stroke-linecap:square;stroke-miterlimit:9;stroke-width:.67654;stroke:#4d4d4d"/>
 <path d="m362.21 159.82 24.996 13.408-0.0598-5.8679-24.961-13.241z" style="fill:url(#linearGradient10699);stroke-linecap:square;stroke-miterlimit:9;stroke-width:.67654;stroke:#4d4d4d"/>
 <path d="m360.04 179.96-23.931-13.608 26.081-6.4597 24.995 13.18z" style="fill-rule:evenodd;fill:url(#linearGradient10699);stroke-linecap:round;stroke-linejoin:round;stroke-miterlimit:9;stroke-width:.67654;stroke:#4d4d4d"/>
 <path d="m339.11 195.46-34.799-21.069v-14.888l34.796 19.89z" style="fill:url(#linearGradient10699);stroke-linecap:round;stroke-linejoin:round;stroke-miterlimit:9;stroke-width:.67654;stroke:#4d4d4d"/>
 <g transform="translate(-3.4946 -839.44)" stroke-miterlimit="10" style="stroke-miterlimit:10">
  <path d="m406.86 982.74" style="fill:url(#linearGradient335);stroke-linecap:square;stroke-miterlimit:9;stroke-width:.67654;stroke:#4d4d4d"/>
  <path d="m419.96 1004.4" style="fill:url(#linearGradient335);stroke-linecap:square;stroke-miterlimit:9;stroke-width:.67654;stroke:#fd0"/>
  <path d="m352.84 1008.4" style="fill:url(#linearGradient335);stroke-linecap:square;stroke-miterlimit:9;stroke-width:.67654;stroke:#e2001a"/>
 </g>
 <path d="m386.79 147.67 25.909-6.4538 0.0251 5.7146-25.934 6.4764z" style="fill:#ffe6e6;stroke-linecap:square;stroke-miterlimit:9;stroke-width:.67654;stroke:#f00"/>
 <path d="m413.01 147.01 25.182 13.38-0.0598-5.8679-25.148-13.213z" style="fill:#ffe6e6;stroke-linecap:square;stroke-miterlimit:9;stroke-width:.67654;stroke:#f00"/>
 <path d="m411.03 167.06-23.931-13.608 25.896-6.4752 25.18 13.196z" style="fill-rule:evenodd;fill:#ffe6e6;stroke-linecap:round;stroke-linejoin:round;stroke-miterlimit:9;stroke-width:.67654;stroke:#f00"/>
 <path d="m359.99 174.16 0.0203 5.9467 27.173-6.9726-0.0197-5.769 23.803-5.996 0.0926 5.7431 27.088-6.8922 0.0167-5.6897 18.917-4.9336v16.237l-117.97 29.656v-16.069z" style="fill:url(#linearGradient10699);stroke-linecap:round;stroke-linejoin:round;stroke-miterlimit:9;stroke-width:.67654;stroke:#4d4d4d"/>
 <path d="m362.13 154.1 25.03 13.161 23.686-5.9403-23.833-13.504 25.952-6.569 25.056 13.221 18.994-4.9165-37-19.118-115.79 29.028 34.773 19.878 20.972-5.241-25.013-13.161z" style="fill:#ffe6e6;stroke-linecap:round;stroke-linejoin:round;stroke-miterlimit:9;stroke-width:.67654;stroke:#f00"/>
 <path d="m95.91 137.92 27.37-6.8877 0.0252 5.7146-27.395 6.9103z" style="fill:#165489;stroke-linecap:square;stroke-miterlimit:9;stroke-width:.67654;stroke:#4d4d4d"/>
 <path d="m123.3 136.74 24.996 13.408-0.0598-5.8679-24.961-13.241z" style="fill:url(#linearGradient343);stroke-linecap:square;stroke-miterlimit:9;stroke-width:.67654;stroke:#4d4d4d"/>
 <path d="m121.14 156.85-23.931-13.608 26.081-6.4597 24.995 13.18z" style="fill-rule:evenodd;fill:url(#linearGradient345);stroke-linecap:round;stroke-linejoin:round;stroke-miterlimit:9;stroke-width:.67654;stroke:#4d4d4d"/>
 <path d="m100.21 172.37-34.799-21.069v-14.888l34.796 19.89z" style="fill:url(#linearGradient347);stroke-linecap:round;stroke-linejoin:round;stroke-miterlimit:9;stroke-width:.67654;stroke:#4d4d4d"/>
 <path d="m147.88 124.58 25.909-6.4538 0.0251 5.7146-25.934 6.4764z" style="fill:#165489;stroke-linecap:square;stroke-miterlimit:9;stroke-width:.67654;stroke:#4d4d4d"/>
 <path d="m174.1 123.92 25.182 13.38-0.0598-5.8679-25.148-13.213z" style="fill:url(#linearGradient351);stroke-linecap:square;stroke-miterlimit:9;stroke-width:.67654;stroke:#4d4d4d"/>
 <path d="m172.12 144-23.931-13.608 25.896-6.4752 25.18 13.196z" style="fill-rule:evenodd;fill:url(#linearGradient353);stroke-linecap:round;stroke-linejoin:round;stroke-miterlimit:9;stroke-width:.67654;stroke:#4d4d4d"/>
 <path d="m121.08 151.04 0.0203 5.9467 27.173-6.9726-0.0197-5.769 23.803-5.996 0.0926 5.7432 27.088-6.8922 0.0167-5.6897 18.917-4.9336v16.237l-117.97 29.656v-16.069z" style="fill:url(#linearGradient355);stroke-linecap:round;stroke-linejoin:round;stroke-miterlimit:9;stroke-width:.67654;stroke:#4d4d4d"/>
 <path d="m123.22 131.01 25.03 13.161 23.686-5.9403-23.833-13.504 25.952-6.569 25.056 13.221 18.994-4.9165-37-19.118-115.79 29.028 34.773 19.878 20.972-5.241-25.013-13.161z" style="fill:url(#linearGradient357);stroke-linecap:round;stroke-linejoin:round;stroke-miterlimit:9;stroke-width:.67654;stroke:#4d4d4d"/>
 <g transform="translate(279.37 -815.22)">
  <path d="m55.373 898.84 27.37-6.8877 0.02512 5.7146-27.395 6.9103z" style="fill:#165489;stroke-linecap:round;stroke-linejoin:round;stroke-miterlimit:9.3333;stroke-width:.67654;stroke:#4d4d4d"/>
  <path d="m82.768 897.65 24.996 13.408-0.0598-5.8679-24.961-13.241z" style="fill:url(#linearGradient359);stroke-linecap:round;stroke-linejoin:round;stroke-miterlimit:9.3333;stroke-width:.67654;stroke:#4d4d4d"/>
  <path d="m80.603 917.76-23.931-13.608 26.081-6.4597 24.995 13.18z" style="fill-rule:evenodd;fill:url(#linearGradient361);stroke-linecap:round;stroke-linejoin:round;stroke-miterlimit:9.3333;stroke-width:.67654;stroke:#4d4d4d"/>
  <path d="m59.673 933.29-34.799-21.069v-14.888l34.796 19.89z" style="fill:url(#linearGradient5273);stroke-linecap:round;stroke-linejoin:round;stroke-miterlimit:9.3333;stroke-width:.67654;stroke:#4d4d4d"/>
  <path d="m82.782 892.01 25.03 13.161 69.855-17.709-37-19.118-115.79 29.028 34.773 19.878 20.972-5.241-25.013-13.161z" style="fill:url(#linearGradient5277);stroke-linecap:round;stroke-linejoin:round;stroke-miterlimit:9.3333;stroke-width:.67654;stroke:#4d4d4d"/>
  <path d="m80.547 911.96 0.02028 5.9467 27.173-6.9726-0.0197-5.769 69.918-17.768v16.237l-117.97 29.656v-16.069z" style="fill:url(#linearGradient5279);stroke-linecap:round;stroke-linejoin:round;stroke-miterlimit:9.3333;stroke-width:.67654;stroke:#4d4d4d"/>
 </g>
 <g transform="matrix(.32353 0 0 .32353 302.96 -229.85)">
  <path d="m119.59 969.55 74.951 43.621" style="fill:none;stroke-linecap:round;stroke-linejoin:round;stroke-miterlimit:10;stroke-width:10.611;stroke:#fd0"/>
  <path d="m143.33 965.32 73.072 42.09" style="fill:none;stroke-linecap:round;stroke-linejoin:round;stroke-miterlimit:10;stroke-width:10.611;stroke:#fd0"/>
  <path d="m168.71 960.05 70.914 41.252" style="fill:none;stroke-linecap:round;stroke-linejoin:round;stroke-miterlimit:10;stroke-width:10.607;stroke:#fd0"/>
  <path d="m118.79 921.42v47.852" style="fill:none;stroke-linecap:round;stroke-linejoin:round;stroke-miterlimit:10;stroke-width:10.607;stroke:#e2001a"/>
  <path d="m142.92 965.25 0.18125-50.108 52.306 35.733-0.17942 61.697" style="fill:none;stroke-linecap:round;stroke-linejoin:round;stroke-miterlimit:10;stroke-width:10.611;stroke:#e2001a"/>
  <path d="m168.53 958.82v-50.035l48.466 36.645v61.824" style="fill:none;stroke-linecap:round;stroke-linejoin:round;stroke-miterlimit:10;stroke-width:10.611;stroke:#e2001a"/>
  <path d="m240.15 1001.2v-61.465" style="fill:none;stroke-linecap:round;stroke-linejoin:round;stroke-miterlimit:10;stroke-width:10.611;stroke:#e2001a"/>
 </g>
 <ellipse cx="32.125" cy="90.595" rx="7.6709" ry="7.8278" style="fill:none;stroke-linecap:round;stroke-linejoin:round;stroke-width:1.0658;stroke:#000"/>
 <path d="m32.043 83.958v6.6137" style="fill:none;stroke-linecap:round;stroke-linejoin:round;stroke-width:1.0658;stroke:#000"/>
 <path d="m32.043 90.595 3.7132 1.9768" style="fill:none;stroke-linecap:round;stroke-linejoin:round;stroke-width:1.8217;stroke:#000"/>
 <text x="125.52829" y="20.0119" style="fill:#000000;font-family:Arial;font-size:12.8px;letter-spacing:0px;line-height:0%;stroke-width:1.0667;word-spacing:0px" xml:space="preserve"><tspan x="125.52829" y="20.0119" style="font-family:'Arial Nova', 'Arial Unicode MS', 'Yu Gothic UI', sans-serif;stroke-width:1.0667">CAD</tspan></text>
 <text x="367.42615" y="18.934385" style="fill:#000000;font-family:Arial;font-size:12.8px;letter-spacing:0px;line-height:0%;stroke-width:1.0667;word-spacing:0px" xml:space="preserve"><tspan x="367.42615" y="18.934385" style="font-family:'Arial Nova', 'Arial Unicode MS', 'Yu Gothic UI', sans-serif;stroke-width:1.0667">CAM</tspan></text>
 <g transform="translate(17.044 -656.59)">
  <path d="m317.77 897.68 27.37-6.8877 0.0252 5.7146-27.395 6.9103z" style="fill:#165489;stroke-linecap:square;stroke-miterlimit:9;stroke-width:.67654;stroke:#4d4d4d"/>
  <path d="m345.16 896.5 24.996 13.408-0.0598-5.8679-24.961-13.241z" style="fill:url(#linearGradient365);stroke-linecap:square;stroke-miterlimit:9;stroke-width:.67654;stroke:#4d4d4d"/>
  <path d="m343 916.61-23.931-13.608 26.081-6.4597 24.995 13.18z" style="fill-rule:evenodd;fill:url(#linearGradient367);stroke-linecap:round;stroke-linejoin:round;stroke-miterlimit:9;stroke-width:.67654;stroke:#4d4d4d"/>
  <path d="m322.07 932.13-34.799-21.069v-14.888l34.796 19.89z" style="fill:url(#linearGradient5233-3);stroke-linecap:round;stroke-linejoin:round;stroke-miterlimit:9;stroke-width:.67654;stroke:#4d4d4d"/>
  <g stroke-miterlimit="10" style="stroke-miterlimit:10">
   <path d="m386.32 879.97" style="fill:url(#linearGradient349);stroke-linecap:square;stroke-miterlimit:9;stroke-width:.67654;stroke:#4d4d4d"/>
   <path d="m399.42 901.61" style="fill:none;stroke-linecap:square;stroke-miterlimit:9;stroke-width:.67654;stroke:#fd0"/>
   <path d="m332.3 905.65" style="fill:none;stroke-linecap:square;stroke-miterlimit:9;stroke-width:.67654;stroke:#e2001a"/>
  </g>
  <text x="407.18387" y="906.81958" font-size="11.941" style="fill:#ffffff;font-family:ArialUnicodeMS;font-size:5.5028px;line-height:0%;stroke-miterlimit:9;stroke-width:.67654">2</text>
  <path d="m369.74 884.34 25.909-6.4538 0.0251 5.7146-25.934 6.4764z" style="fill:#165489;stroke-linecap:square;stroke-miterlimit:9;stroke-width:.67654;stroke:#4d4d4d"/>
  <path d="m395.96 883.68 25.182 13.38-0.0598-5.8679-25.148-13.213z" style="fill:url(#linearGradient371);stroke-linecap:square;stroke-miterlimit:9;stroke-width:.67654;stroke:#4d4d4d"/>
  <path d="m393.98 903.76-23.931-13.608 25.896-6.4752 25.18 13.196z" style="fill-rule:evenodd;fill:url(#linearGradient5216-6);stroke-linecap:round;stroke-linejoin:round;stroke-miterlimit:9;stroke-width:.67654;stroke:#4d4d4d"/>
  <path d="m342.94 910.8 0.0203 5.9467 27.173-6.9726-0.0197-5.769 23.803-5.996 0.0926 5.7432 27.088-6.8922 0.0167-5.6897 18.917-4.9336v16.237l-117.97 29.656v-16.069z" style="fill:url(#linearGradient5202-6);stroke-linecap:round;stroke-linejoin:round;stroke-miterlimit:9;stroke-width:.67654;stroke:#4d4d4d"/>
  <path d="m345.08 890.77 25.03 13.161 23.686-5.9403-23.833-13.504 25.952-6.569 25.056 13.221 18.994-4.9165-37-19.118-115.79 29.028 34.773 19.878 20.972-5.241-25.013-13.161z" style="fill:url(#linearGradient5346);stroke-linecap:round;stroke-linejoin:round;stroke-miterlimit:9;stroke-width:.67654;stroke:#4d4d4d"/>
 </g>
 <g transform="matrix(.32353 0 0 .32353 354.96 -84.82)">
  <path d="m119.59 969.55 74.951 43.621" style="fill:none;stroke-linecap:round;stroke-linejoin:round;stroke-miterlimit:10;stroke-width:10.611;stroke:#fd0"/>
  <path d="m143.33 965.32 73.072 42.09" style="fill:none;stroke-linecap:round;stroke-linejoin:round;stroke-miterlimit:10;stroke-width:10.611;stroke:#fd0"/>
  <path d="m168.71 960.05 70.914 41.252" style="fill:none;stroke-linecap:round;stroke-linejoin:round;stroke-miterlimit:10;stroke-width:10.607;stroke:#fd0"/>
  <path d="m118.79 921.42v47.852" style="fill:none;stroke-linecap:round;stroke-linejoin:round;stroke-miterlimit:10;stroke-width:10.607;stroke:#e2001a"/>
  <path d="m142.92 965.25 0.18125-50.108 52.306 35.733-0.17942 61.697" style="fill:none;stroke-linecap:round;stroke-linejoin:round;stroke-miterlimit:10;stroke-width:10.611;stroke:#e2001a"/>
  <path d="m168.53 958.82v-50.035l48.466 36.645v61.824" style="fill:none;stroke-linecap:round;stroke-linejoin:round;stroke-miterlimit:10;stroke-width:10.611;stroke:#e2001a"/>
  <path d="m240.15 1001.2v-61.465" style="fill:none;stroke-linecap:round;stroke-linejoin:round;stroke-miterlimit:10;stroke-width:10.611;stroke:#e2001a"/>
 </g>
 <g transform="matrix(.32353 0 0 .32353 304.97 -71.35)">
  <path d="m119.59 969.55 74.951 43.621" style="fill:none;stroke-linecap:round;stroke-linejoin:round;stroke-miterlimit:10;stroke-width:10.611;stroke:#fd0"/>
  <path d="m143.33 965.32 73.072 42.09" style="fill:none;stroke-linecap:round;stroke-linejoin:round;stroke-miterlimit:10;stroke-width:10.611;stroke:#fd0"/>
  <path d="m168.71 960.05 70.914 41.252" style="fill:none;stroke-linecap:round;stroke-linejoin:round;stroke-miterlimit:10;stroke-width:10.607;stroke:#fd0"/>
  <path d="m118.79 921.42v47.852" style="fill:none;stroke-linecap:round;stroke-linejoin:round;stroke-miterlimit:10;stroke-width:10.607;stroke:#e2001a"/>
  <path d="m142.92 965.25 0.18125-50.108 52.306 35.733-0.17942 61.697" style="fill:none;stroke-linecap:round;stroke-linejoin:round;stroke-miterlimit:10;stroke-width:10.611;stroke:#e2001a"/>
  <path d="m168.53 958.82v-50.035l48.466 36.645v61.824" style="fill:none;stroke-linecap:round;stroke-linejoin:round;stroke-miterlimit:10;stroke-width:10.611;stroke:#e2001a"/>
  <path d="m240.15 1001.2v-61.465" style="fill:none;stroke-linecap:round;stroke-linejoin:round;stroke-miterlimit:10;stroke-width:10.611;stroke:#e2001a"/>
 </g>
 <path d="m266.62 85.825 9.9674 6.241-9.9674 6.241z" style="fill:#1f638a;stroke-linecap:round;stroke-linejoin:round;stroke-width:.37796;stroke:#1f638a"/>
 <rect x="256.33" y="89.215" width="11.438" height="5.706" style="fill:#1f638a;stroke-linecap:round;stroke-linejoin:round;stroke-width:.37796;stroke:#1f638a"/>
 <path d="m263.61 162.62 9.9674 6.241-9.9674 6.241z" style="fill:#1f638a;stroke-linecap:round;stroke-linejoin:round;stroke-width:.37796;stroke:#1f638a"/>
 <rect x="253.32" y="166.01" width="11.438" height="5.706" style="fill:#1f638a;stroke-linecap:round;stroke-linejoin:round;stroke-width:.37796;stroke:#1f638a"/>
 <path d="m145.78 97.715-6.241 9.9674-6.241-9.9674z" style="fill:#1f638a;stroke-linecap:round;stroke-linejoin:round;stroke-width:.37796;stroke:#1f638a"/>
 <rect transform="rotate(90)" x="87.418" y="-142.39" width="11.438" height="5.706" style="fill:#1f638a;stroke-linecap:round;stroke-linejoin:round;stroke-width:.37796;stroke:#1f638a"/>
 <path d="m383.64 127.38-6.241 9.9674-6.241-9.9674z" style="fill:#1f638a;stroke-linecap:round;stroke-linejoin:round;stroke-width:.37796;stroke:#1f638a"/>
 <rect transform="rotate(90)" x="117.09" y="-380.25" width="11.438" height="5.706" style="fill:#1f638a;stroke-linecap:round;stroke-linejoin:round;stroke-width:.37796;stroke:#1f638a"/>
 <path d="m383.64 201.15-6.241 9.9674-6.241-9.9674z" style="fill:#1f638a;stroke-linecap:round;stroke-linejoin:round;stroke-width:.37796;stroke:#1f638a"/>
 <rect transform="rotate(90)" x="190.86" y="-380.25" width="11.438" height="5.706" style="fill:#1f638a;stroke-linecap:round;stroke-linejoin:round;stroke-width:.37796;stroke:#1f638a"/>
 <ellipse cx="32.125" cy="168.94" rx="7.6709" ry="7.8278" style="fill:none;stroke-linecap:round;stroke-linejoin:round;stroke-width:1.0658;stroke:#000"/>
 <path d="m32.043 162.31v6.6137" style="fill:none;stroke-linecap:round;stroke-linejoin:round;stroke-width:1.0658;stroke:#000"/>
 <path d="m32.043 168.94 3.7132 1.9768" style="fill:none;stroke-linecap:round;stroke-linejoin:round;stroke-width:1.8217;stroke:#000"/>
 <path d="m42.854 168.94a10.786 10.786 0 0 1-3.6297 8.0701 10.786 10.786 0 0 1-8.4461 2.6387" style="color:#000000;fill:none;stroke-linecap:round;stroke-linejoin:round;stroke-width:.67654;stroke:#000"/>
 <path d="m32.933 180.63-2.244-1.0938 2.1886-0.83892" style="fill:none;stroke-linecap:round;stroke-linejoin:round;stroke-width:.67654;stroke:#000"/>
</svg>
