<?xml version="1.0" encoding="UTF-8"?>
<svg width="18cm" height="6cm" version="1.1" xmlns="http://www.w3.org/2000/svg" xmlns:xlink="http://www.w3.org/1999/xlink">
 <defs>
  <linearGradient id="linearGradient20304" x1="466.62" x2="1320" y1="945.23" y2="939.28" gradientTransform="matrix(1.1378 0 0 1.1378 -13.653 -45.511)" gradientUnits="userSpaceOnUse">
   <stop style="stop-color:#fff" offset="0"/>
   <stop style="stop-color:#00385e" offset="1"/>
  </linearGradient>
  <linearGradient id="linearGradient20907" x1="493.67" x2="1288.6" y1="945.77" y2="940.9" gradientTransform="matrix(1.0754 0 0 1.0754 -15.86 101.23)" gradientUnits="userSpaceOnUse">
   <stop style="stop-color:#fff" offset="0"/>
   <stop style="stop-color:#00385e" offset="1"/>
  </linearGradient>
  <linearGradient id="linearGradient5841" x1="134.14" x2="199.99" y1="1009.2" y2="1009.2" gradientTransform="matrix(1.0754 0 0 1.0754 -2.9552 60.365)" gradientUnits="userSpaceOnUse">
   <stop style="stop-color:#fff" offset="0"/>
   <stop style="stop-color:#FCFCFC" offset=".2264"/>
   <stop style="stop-color:#F4F4F4" offset=".3626"/>
   <stop style="stop-color:#E6E6E6" offset=".475"/>
   <stop style="stop-color:#D1D1D1" offset=".5744"/>
   <stop style="stop-color:#B7B7B7" offset=".6652"/>
   <stop style="stop-color:#979797" offset=".7498"/>
   <stop style="stop-color:#707070" offset=".8297"/>
   <stop style="stop-color:#444" offset=".9057"/>
   <stop style="stop-color:#121212" offset=".9761"/>
   <stop offset="1"/>
  </linearGradient>
 </defs>
 <g transform="translate(0 -970.58)">
  <path d="m326.02 1098.5-88.318 52-61.424-35.258-87.886 52.111-56.554-33.212v-34.414l56.554 33.212 64.497-38.243 46.633-0.5259 38.18 21.915 88.318-52z" style="fill:#ffd5d5"/>
  <path d="m45.9 1090.5 42.49 25.162 87.886-52.111 61.424 35.258 88.318-52-102.09-58.618z" style="fill:none;stroke-linejoin:round;stroke-width:1.4442;stroke:#7d7d7d"/>
  <path d="m45.544 1158.9 42.609 24.806-0.11869-68.483s-42.49-25.874-42.49-24.925l-18.054 58.081z" style="fill:none;stroke-linejoin:round;stroke-width:1.4442;stroke:#7d7d7d"/>
  <path d="m176.79 1132.2v-68.364l60.768 35.132v69.076z" style="fill:none;stroke-linecap:round;stroke-linejoin:round;stroke-width:1.4442;stroke:#7d7d7d"/>
  <g transform="matrix(1.6166 0 0 1.6166 -34.321 743.33)" style="fill:none">
   <path d="m222.96 230.33v-42.583l-54.843 32.01v43.023z" style="fill:none;stroke-linejoin:round;stroke-width:.89335;stroke:#7d7d7d"/>
   <path d="m192.61 205.52c8.8282 8.8282 17.622 17.622 26.797 26.797" style="fill:none;stroke-linecap:round;stroke-linejoin:round;stroke-width:.42193;stroke:#7d7d7d"/>
   <path d="m171.78 217.94c8.2264 8.2264 17.969 17.969 26.797 26.797" style="color:#000000;fill:none;stroke-linecap:round;stroke-linejoin:round;stroke-width:.42193;stroke:#7d7d7d"/>
   <path d="m168.27 247.68 9.4687 9.4687" style="fill:none;stroke-linecap:round;stroke-linejoin:round;stroke-width:.42193;stroke:#7d7d7d"/>
   <path d="m213.57 193.22c3.1041 3.1041 6.294 6.294 9.4687 9.4687" style="fill:none;stroke-linecap:round;stroke-linejoin:round;stroke-width:.42193;stroke:#7d7d7d"/>
   <path d="m189.52 249.99 33.357-33.357" style="fill:none;stroke-linecap:round;stroke-linejoin:round;stroke-width:.42193;stroke:#7d7d7d"/>
   <path d="m167.81 238.44 45.239-45.239" style="color:#000000;fill:none;stroke-linecap:round;stroke-linejoin:round;stroke-width:.42193;stroke:#7d7d7d"/>
  </g>
  <g transform="matrix(1.6166 0 0 1.6166 -34.321 743.33)" style="fill:none">
   <path d="m75.76 272.32 54.567-31.881-0.0779-42.358s-54.195 31.216-54.489 31.95c-0.29368 0.73418 0 42.289 0 42.289z" style="fill:none;stroke-linejoin:round;stroke-width:.89335;stroke:#7d7d7d"/>
   <g transform="rotate(-67.975 142.19 159.12)" style="fill:none;stroke-width:.28382;stroke:#7d7d7d">
    <path d="m64.356 134.04v43.72" style="fill:none;stroke-width:.32293;stroke:#7d7d7d"/>
    <path d="m40.842 128.31v33.61" style="color:#000000;fill:none;stroke-width:.32293;stroke:#7d7d7d"/>
    <path d="m17.328 138.28v5.9233" style="fill:none;stroke-width:.32293;stroke:#7d7d7d"/>
    <path d="m87.871 152.15v16.187" style="fill:none;stroke-width:.32293;stroke:#7d7d7d"/>
   </g>
   <g transform="matrix(.92702 .37501 .37501 -.92702 -4.2145 359.64)" style="fill:none;stroke-width:.28382;stroke:#7d7d7d">
    <path d="m64.356 141.3v58.899" style="fill:none;stroke-width:.32293;stroke:#7d7d7d"/>
    <path d="m40.842 111.85v58.574" style="color:#000000;fill:none;stroke-width:.32293;stroke:#7d7d7d"/>
   </g>
  </g>
  <path d="m37.655 1115c8.3881-2.5385 24.983-7.2909 33.266-9.7975" style="fill:none;stroke-linecap:round;stroke-linejoin:round;stroke-width:.68209;stroke:#7d7d7d"/>
  <path d="m39.239 1155.2c13.831-4.1857 34.974-11.26 48.731-15.423" style="color:#000000;fill:none;stroke-linecap:round;stroke-linejoin:round;stroke-width:.68209;stroke:#7d7d7d"/>
  <path d="m82.843 1181c1.5629-0.4729 3.1226-0.945 4.6767-1.4152" style="fill:none;stroke-linecap:round;stroke-linejoin:round;stroke-width:.68209;stroke:#7d7d7d"/>
  <path d="m88.097 1156.4c-0.92734-3.0644-14.963-50.644-14.963-50.644" style="fill:none;stroke-linecap:round;stroke-linejoin:round;stroke-width:.68209;stroke:#7d7d7d"/>
  <path d="m50.837 1161.8c-1.7583-5.8101-11.326-40.683-13.182-46.818" style="color:#000000;fill:none;stroke-linecap:round;stroke-linejoin:round;stroke-width:.68209;stroke:#7d7d7d"/>
  <path d="m176.16 1098.1 62.029 35.617" style="fill:none;stroke-linecap:round;stroke-width:.68209;stroke:#7d7d7d"/>
  <path d="m207.17 1150.5v-69.232" style="fill:none;stroke-linecap:round;stroke-width:.68209;stroke:#7d7d7d"/>
  <path d="m31.824 1117.2 56.566 32.929 87.886-52.111 61.424 35.258 88.318-52" style="fill:none;stroke-dasharray:1.36417496, 0.68208747;stroke-linejoin:round;stroke-width:.68209;stroke:#ff8080"/>
  <path d="m31.836 1134.1v-34.414l56.554 33.212 64.497-38.243 46.633-0.5259 38.18 21.915 88.318-52" style="fill:none;stroke-dasharray:1.36417496, 0.68208747;stroke-linejoin:round;stroke-width:.68209;stroke:#ff8080"/>
  <path d="m31.836 1134.1 56.554 33.212 87.886-52.111 61.424 35.258 88.318-52" style="fill:none;stroke-dasharray:1.36417496, 0.68208747;stroke-linejoin:round;stroke-width:.68209;stroke:#ff8080"/>
  <path d="m211.4 1108.3c0 10.412-15.531 18.853-34.689 18.853-19.158 0-34.689-8.4407-34.689-18.853 0-5.286 4.0031-10.064 10.452-13.487 6.2531-3.3195 14.806-5.3653 24.237-5.3653 8.5098 0 16.304 1.6654 22.339 4.4291 7.552 3.4583 12.35 8.6364 12.35 14.423z" style="color:#000000;fill:#b3b3b3;stroke-linecap:round;stroke-linejoin:round;stroke-width:.63946;stroke:#000"/>
  <path d="m211.4 1108.3c0 10.412-15.531 18.853-34.689 18.853-19.158 0-34.689-8.4407-34.689-18.853v55.922c0 10.412 15.531 18.852 34.689 18.852 19.158 0 34.689-8.4406 34.689-18.852z" style="color:#000000;fill:url(#linearGradient5841);stroke-linecap:round;stroke-linejoin:round;stroke-width:.63946;stroke:#000"/>
  <path d="m152.39 1094.8c6.2531-3.3195 14.806-5.3652 24.237-5.3652 8.5098 0 16.304 1.6653 22.339 4.429" style="color:#000000;fill:none;stroke-dasharray:1.364175, 0.68208749;stroke-linecap:round;stroke-linejoin:round;stroke-width:.68209;stroke:#ff8080"/>
  <path d="m210.27 1108.5-12.675-4.2248v8.8337z" style="stroke-linecap:round;stroke-linejoin:round;stroke-width:1.0746;stroke:#000"/>
  <path d="m148.55 1108.8h56.203" style="stroke-linecap:round;stroke-linejoin:round;stroke-width:.95264;stroke:#000"/>
  <path d="m355.62 1099.4 4.2249 12.674h-8.8338z" style="stroke-linecap:round;stroke-linejoin:round;stroke-width:1.0746;stroke:#000"/>
  <path d="m355.43 1023.3v91.533" style="stroke-linecap:round;stroke-linejoin:round;stroke-width:.95264;stroke:#000"/>
  <path d="m355.62 1063.5 4.2249-12.675h-8.8338z" style="stroke-linecap:round;stroke-linejoin:round;stroke-width:1.0746;stroke:#000"/>
  <path d="m355.33 1064.1h-28.227" style="stroke-linecap:round;stroke-linejoin:round;stroke-width:.76211;stroke:#000"/>
  <path d="m355.07 1098.6h-28.227" style="stroke-linecap:round;stroke-linejoin:round;stroke-width:.76211;stroke:#000"/>
  <path d="m21.064 1125.9 4.2249 12.675h-8.8338z" style="stroke-linecap:round;stroke-linejoin:round;stroke-width:1.0746;stroke:#000"/>
  <path d="m20.872 1045.8v95.482" style="stroke-linecap:round;stroke-linejoin:round;stroke-width:.95264;stroke:#000"/>
  <path d="m21.064 1090 4.2249-12.674h-8.8338z" style="stroke-linecap:round;stroke-linejoin:round;stroke-width:1.0746;stroke:#000"/>
  <path d="m45.878 1090.1h-28.227" style="stroke-linecap:round;stroke-linejoin:round;stroke-width:.76211;stroke:#000"/>
  <path d="m45.62 1124.9h-28.227" style="stroke-linecap:round;stroke-linejoin:round;stroke-width:.76211;stroke:#000"/>
  <path d="m665.36 1105.2-88.318 52-37.892-21.75c-16.263-6.8306-32.008-6.921-47.174 0.5111l-64.243 38.093-47.623-27.136v-34.414l47.623 27.136 64.497-38.243c13.668-6.8074 30.021-7.6711 46.633-0.5259l38.18 21.915 88.318-52z" style="fill:url(#linearGradient20907);stroke-linejoin:round;stroke-width:1.4442;stroke:#7d7d7d"/>
  <path d="m427.69 1139.3v34.562" style="fill:#ff8080;stroke-linecap:round;stroke-linejoin:round;stroke-width:1.4442;stroke:#7d7d7d"/>
  <path d="m380.27 1129.4 47.65 28.021 64.497-38.243c13.668-6.8076 30.021-7.6713 46.633-0.5259l38.18 21.915 88.318-52" style="fill:none;stroke-linecap:round;stroke-linejoin:round;stroke-width:.68209;stroke:#7d7d7d"/>
  <path d="m401.51 1124.8v34.562" style="fill:#ff8080;stroke-linecap:round;stroke-linejoin:round;stroke-width:.68209;stroke:#7d7d7d"/>
  <path d="m577.15 1122.2v34.563" style="fill:#ff8080;stroke-linecap:round;stroke-linejoin:round;stroke-width:1.4442;stroke:#7d7d7d"/>
  <path d="m637.84 1087.2v34.562" style="fill:#ff8080;stroke-linecap:round;stroke-linejoin:round;stroke-width:.68209;stroke:#7d7d7d"/>
  <path d="m517.18 1095.9v34.562" style="fill:#ff8080;stroke-linecap:round;stroke-linejoin:round;stroke-width:.68209;stroke:#7d7d7d"/>
  <path d="m599.99 1109.2v34.562" style="fill:#ff8080;stroke-linecap:round;stroke-linejoin:round;stroke-width:.68209;stroke:#7d7d7d"/>
  <g transform="matrix(.94519 0 0 .94519 -2.9552 60.365)">
   <path d="m707.06 1016.7-93.439 55.015-40.089-23.012c-17.206-7.2268-33.864-7.3223-49.909 0.5407l-67.969 40.302-50.384-28.709v-36.409l50.384 28.709 68.237-40.461c14.461-7.2022 31.762-8.116 49.337-0.5564l40.394 23.186 93.439-55.015z" style="fill:url(#linearGradient20304);stroke-linejoin:round;stroke-width:1.5279;stroke:#7d7d7d"/>
   <path d="m455.62 1052.7v36.566" style="fill:#ff8080;stroke-linecap:round;stroke-linejoin:round;stroke-width:.72164;stroke:#7d7d7d"/>
   <path d="m405.45 1042.2 50.413 29.646 68.237-40.461c14.461-7.2022 31.762-8.116 49.337-0.5564l40.394 23.186 93.439-55.015" style="fill:none;stroke-linecap:round;stroke-linejoin:round;stroke-width:.72164;stroke:#7d7d7d"/>
   <path d="m427.92 1037.4v36.566" style="fill:#ff8080;stroke-linecap:round;stroke-linejoin:round;stroke-width:.72164;stroke:#7d7d7d"/>
   <path d="m489.14 1033.2v36.566" style="fill:#ff8080;stroke-linecap:round;stroke-linejoin:round;stroke-width:.72164;stroke:#7d7d7d"/>
   <path d="m591.98 1023.1v36.566" style="fill:#ff8080;stroke-linecap:round;stroke-linejoin:round;stroke-width:.72164;stroke:#7d7d7d"/>
   <path d="m613.75 1034.6v36.566" style="fill:#ff8080;stroke-linecap:round;stroke-linejoin:round;stroke-width:.72164;stroke:#7d7d7d"/>
   <path d="m677.95 997.63v36.567" style="fill:#ff8080;stroke-linecap:round;stroke-linejoin:round;stroke-width:.72164;stroke:#7d7d7d"/>
   <path d="m550.3 1006.9v36.566" style="fill:#ff8080;stroke-linecap:round;stroke-linejoin:round;stroke-width:.72164;stroke:#7d7d7d"/>
   <path d="m637.91 1020.9v36.566" style="fill:#ff8080;stroke-linecap:round;stroke-linejoin:round;stroke-width:.72164;stroke:#7d7d7d"/>
   <path d="m524.08 1012.7v36.566" style="fill:#ff8080;stroke-linecap:round;stroke-linejoin:round;stroke-width:1.5279;stroke:#7d7d7d"/>
   <path d="m574.1 1012.4v36.566" style="fill:#ff8080;stroke-linecap:round;stroke-linejoin:round;stroke-width:1.5279;stroke:#7d7d7d"/>
  </g>
  <text x="401.52487" y="1088.661" style="fill:#7493a7;font-family:'Arial Nova', 'Arial Unicode MS', 'Yu Gothic UI', sans-serif;font-size:12.098px;letter-spacing:0px;line-height:0%;stroke-width:1.0754;stroke:#7493a7;word-spacing:0px" xml:space="preserve"><tspan x="401.52487" y="1088.661" style="fill:#7493a7;font-family:'Arial Nova', 'Arial Unicode MS', 'Yu Gothic UI', sans-serif;font-size:10.754px;line-height:1.25;stroke-width:1.0754;stroke:#7493a7">1</tspan></text>
  <text x="458.28592" y="1081.2767" style="fill:#7493a7;font-family:'Arial Nova', 'Arial Unicode MS', 'Yu Gothic UI', sans-serif;font-size:12.098px;letter-spacing:0px;line-height:0%;stroke-width:1.0754;stroke:#7493a7;word-spacing:0px" xml:space="preserve"><tspan x="458.28592" y="1081.2767" style="fill:#7493a7;font-family:'Arial Nova', 'Arial Unicode MS', 'Yu Gothic UI', sans-serif;font-size:10.754px;line-height:1.25;stroke-width:1.0754;stroke:#7493a7">2</tspan></text>
  <text x="513.82825" y="1058.1592" style="fill:#7493a7;font-family:'Arial Nova', 'Arial Unicode MS', 'Yu Gothic UI', sans-serif;font-size:12.098px;letter-spacing:0px;line-height:0%;stroke-width:1.0754;stroke:#7493a7;word-spacing:0px" xml:space="preserve"><tspan x="513.82825" y="1058.1592" style="fill:#7493a7;font-family:'Arial Nova', 'Arial Unicode MS', 'Yu Gothic UI', sans-serif;font-size:10.754px;line-height:1.25;stroke-width:1.0754;stroke:#7493a7">3</tspan></text>
  <text x="552.55774" y="1072.8702" style="fill:#7493a7;font-family:'Arial Nova', 'Arial Unicode MS', 'Yu Gothic UI', sans-serif;font-size:12.098px;letter-spacing:0px;line-height:0%;stroke-width:1.0754;stroke:#7493a7;word-spacing:0px" xml:space="preserve"><tspan x="552.55774" y="1072.8702" style="fill:#7493a7;font-family:'Arial Nova', 'Arial Unicode MS', 'Yu Gothic UI', sans-serif;font-size:10.754px;line-height:1.25;stroke-width:1.0754;stroke:#7493a7">4</tspan></text>
  <text x="621.61041" y="1057.5587" style="fill:#7493a7;font-family:'Arial Nova', 'Arial Unicode MS', 'Yu Gothic UI', sans-serif;font-size:12.098px;letter-spacing:0px;line-height:0%;stroke-width:1.0754;stroke:#7493a7;word-spacing:0px" xml:space="preserve"><tspan x="621.61041" y="1057.5587" style="fill:#7493a7;font-family:'Arial Nova', 'Arial Unicode MS', 'Yu Gothic UI', sans-serif;font-size:10.754px;line-height:1.25;stroke-width:1.0754;stroke:#7493a7">5</tspan></text>
  <text x="400.05862" y="1171.5847" style="fill:#7493a7;font-family:'Arial Nova', 'Arial Unicode MS', 'Yu Gothic UI', sans-serif;font-size:12.098px;letter-spacing:0px;line-height:0%;stroke-width:1.0754;stroke:#7493a7;word-spacing:0px" xml:space="preserve"><tspan x="400.05862" y="1171.5847" style="fill:#7493a7;font-family:'Arial Nova', 'Arial Unicode MS', 'Yu Gothic UI', sans-serif;font-size:10.754px;line-height:1.25;stroke-width:1.0754;stroke:#7493a7">1</tspan></text>
  <text x="515.96472" y="1141.9834" style="fill:#7493a7;font-family:'Arial Nova', 'Arial Unicode MS', 'Yu Gothic UI', sans-serif;font-size:12.098px;letter-spacing:0px;line-height:0%;stroke-width:1.0754;stroke:#7493a7;word-spacing:0px" xml:space="preserve"><tspan x="515.96472" y="1141.9834" style="fill:#7493a7;font-family:'Arial Nova', 'Arial Unicode MS', 'Yu Gothic UI', sans-serif;font-size:10.754px;line-height:1.25;stroke-width:1.0754;stroke:#7493a7">2</tspan></text>
  <text x="624.64758" y="1140.4827" style="fill:#7493a7;font-family:'Arial Nova', 'Arial Unicode MS', 'Yu Gothic UI', sans-serif;font-size:12.098px;letter-spacing:0px;line-height:0%;stroke-width:1.0754;stroke:#7493a7;word-spacing:0px" xml:space="preserve"><tspan x="624.64758" y="1140.4827" style="fill:#7493a7;font-family:'Arial Nova', 'Arial Unicode MS', 'Yu Gothic UI', sans-serif;font-size:10.754px;line-height:1.25;stroke-width:1.0754;stroke:#7493a7">3</tspan></text>
  <path d="m427.58 1055.7v34.562" style="fill:#ff8080;stroke-linecap:round;stroke-linejoin:round;stroke-width:1.4442;stroke:#7d7d7d"/>
  <path d="m576.82 1039.2v34.562" style="fill:#ff8080;stroke-linecap:round;stroke-linejoin:round;stroke-width:1.4442;stroke:#7d7d7d"/>
  <g transform="matrix(.27572 0 0 .27292 289.35 1092.2)" style="fill:#1f638a;stroke-linecap:round;stroke-linejoin:round;stroke-width:1.2209;stroke:#1f638a">
   <path d="m221.32 134.67 36.448 23.054-36.448 23.054z" style="fill:#1f638a;stroke-linecap:round;stroke-linejoin:round;stroke-width:1.3891;stroke:#1f638a"/>
   <rect x="183.67" y="147.18" width="41.827" height="21.078" style="fill:#1f638a;stroke-linecap:round;stroke-linejoin:round;stroke-width:1.3891;stroke:#1f638a"/>
  </g>
  <g transform="matrix(.94519 0 0 .94519 19.681 1159)">
   <ellipse cx="18.649" cy="-105.38" rx="14.079" ry="14.367" style="fill:#1f638a;stroke-linecap:round;stroke-linejoin:round;stroke-width:1.1369"/>
   <text x="12.4175" y="-97.339836" style="fill:#000000;font-family:'Arial Nova', 'Arial Unicode MS', 'Yu Gothic UI', sans-serif;font-size:12.8px;letter-spacing:0px;line-height:0%;stroke-width:1.1378;word-spacing:0px" xml:space="preserve"><tspan x="12.4175" y="-97.339836" style="fill:#ffffff;font-family:'Arial Nova', 'Arial Unicode MS', 'Yu Gothic UI', sans-serif;font-size:22.756px;line-height:1.25;stroke-width:1.1378;stroke:#ffffff">3</tspan></text>
  </g>
  <g transform="matrix(.94519 0 0 .94519 289.91 1135.1)">
   <ellipse cx="51.93" cy="-105.38" rx="14.079" ry="14.367" style="fill:#1f638a;stroke-linecap:round;stroke-linejoin:round;stroke-width:1.1369"/>
   <text x="45.698933" y="-97.239838" style="fill:#000000;font-family:'Arial Nova', 'Arial Unicode MS', 'Yu Gothic UI', sans-serif;font-size:12.8px;letter-spacing:0px;line-height:0%;stroke-width:1.1378;word-spacing:0px" xml:space="preserve"><tspan x="45.698933" y="-97.239838" style="fill:#ffffff;font-family:'Arial Nova', 'Arial Unicode MS', 'Yu Gothic UI', sans-serif;font-size:22.756px;line-height:1.25;stroke-width:1.1378;stroke:#ffffff">4</tspan></text>
  </g>
  <g transform="matrix(.94519 0 0 .94519 95.755 1228)">
   <ellipse cx="85.211" cy="-105.38" rx="14.079" ry="14.367" style="fill:#1f638a;stroke-linecap:round;stroke-linejoin:round;stroke-width:1.1369"/>
   <text x="78.980362" y="-97.489838" style="fill:#000000;font-family:'Arial Nova', 'Arial Unicode MS', 'Yu Gothic UI', sans-serif;font-size:12.8px;letter-spacing:0px;line-height:0%;stroke-width:1.1378;word-spacing:0px" xml:space="preserve"><tspan x="78.980362" y="-97.489838" style="fill:#ffffff;font-family:'Arial Nova', 'Arial Unicode MS', 'Yu Gothic UI', sans-serif;font-size:22.756px;line-height:1.25;stroke-width:1.1378;stroke:#ffffff">5</tspan></text>
  </g>
  <ellipse transform="matrix(.9993 -.037301 .032652 .99947 0 0)" cx="140.13" cy="1114.7" rx="1.284" ry="1.2836" style="stroke-linecap:round;stroke-linejoin:round;stroke-width:1.243;stroke:#000"/>
  <g transform="matrix(.94519 0 0 .94519 403.47 1175.8)">
   <ellipse cx="118.49" cy="-105.38" rx="14.079" ry="14.367" style="fill:#1f638a;stroke-linecap:round;stroke-linejoin:round;stroke-width:1.1369"/>
   <text x="112.2618" y="-97.339836" style="fill:#000000;font-family:'Arial Nova', 'Arial Unicode MS', 'Yu Gothic UI', sans-serif;font-size:12.8px;letter-spacing:0px;line-height:0%;stroke-width:1.1378;word-spacing:0px" xml:space="preserve"><tspan x="112.2618" y="-97.339836" style="fill:#ffffff;font-family:'Arial Nova', 'Arial Unicode MS', 'Yu Gothic UI', sans-serif;font-size:22.756px;line-height:1.25;stroke-width:1.1378;stroke:#ffffff">6</tspan></text>
  </g>
  <path d="m143.22 1108.4 12.675-4.2249v8.8338z" style="stroke-linecap:round;stroke-linejoin:round;stroke-width:1.0746;stroke:#000"/>
 </g>
</svg>
