<?xml version="1.0" encoding="UTF-8"?>
<svg width="18cm" height="5.5cm" version="1.1" xmlns="http://www.w3.org/2000/svg" xmlns:xlink="http://www.w3.org/1999/xlink">
 <defs>
  <linearGradient id="linearGradient10628-7">
   <stop style="stop-color:#fff" offset="0"/>
   <stop style="stop-color:#4fa68a" offset="1"/>
  </linearGradient>
  <linearGradient id="linearGradient4748" x1="18.069" x2="274.7" y1="920.13" y2="920.13" gradientTransform="matrix(1.0667 0 0 1.0667 -4.2667 -7.5425)" gradientUnits="userSpaceOnUse">
   <stop style="stop-color:#fff" offset="0"/>
   <stop style="stop-color:#4fa68a" offset="1"/>
  </linearGradient>
  <linearGradient id="linearGradient4786" x1="18.011" x2="274.7" y1="964.58" y2="964.58" gradientTransform="matrix(1.0667 0 0 1.0667 219.85 -5.3875)" gradientUnits="userSpaceOnUse">
   <stop style="stop-color:#ff8500" offset="0"/>
   <stop style="stop-color:#fff" offset="1"/>
  </linearGradient>
  <linearGradient id="linearGradient4789" x1="18.011" x2="274.7" y1="964.58" y2="964.58" gradientTransform="matrix(1.0667 0 0 1.0667 -4.2667 -7.5425)" gradientUnits="userSpaceOnUse">
   <stop style="stop-color:#fff" offset="0"/>
   <stop style="stop-color:#4fa68a" offset="1"/>
  </linearGradient>
  <linearGradient id="linearGradient4810" x1="362.98" x2="619.67" y1="939.88" y2="939.88" gradientTransform="matrix(1.0667 0 0 1.0667 79.316 -4.9602)" gradientUnits="userSpaceOnUse" xlink:href="#linearGradient10628-7"/>
  <linearGradient id="linearGradient4813" x1="362.98" x2="619.67" y1="939.88" y2="939.88" gradientTransform="matrix(1.0667 0 0 1.0667 79.316 -4.9602)" gradientUnits="userSpaceOnUse" xlink:href="#linearGradient10628-7"/>
  <linearGradient id="linearGradient4816" x1="362.98" x2="619.67" y1="939.88" y2="939.88" gradientTransform="matrix(1.0667 0 0 1.0667 79.316 777.4)" gradientUnits="userSpaceOnUse" xlink:href="#linearGradient10628-7"/>
  <linearGradient id="linearGradient4880" x1="18.011" x2="274.7" y1="964.61" y2="964.61" gradientTransform="matrix(1.0667 0 0 1.0667 220.27 -4.9602)" gradientUnits="userSpaceOnUse" xlink:href="#linearGradient10628-7"/>
  <linearGradient id="linearGradient4883" x1="18.011" x2="274.7" y1="964.61" y2="964.61" gradientTransform="matrix(1.0667 0 0 1.0667 -4.3246 -7.4308)" gradientUnits="userSpaceOnUse">
   <stop style="stop-color:#fff" offset="0"/>
   <stop style="stop-color:#4fa68a" offset="1"/>
  </linearGradient>
 </defs>
 <g transform="translate(0 -914.65)">
  <path d="m106.42 1094.9 103.95-60.353v-42.083l-103.95 60.353z" style="color:#000000;fill-rule:evenodd;fill:url(#linearGradient4789);stroke-linecap:round;stroke-linejoin:round;stroke-miterlimit:10;stroke-width:.94488;stroke:#67977f"/>
  <path d="m239.54 1043.9 90.937 52.689 9e-3 -41.656-90.937-52.689z" style="color:#000000;fill-rule:evenodd;fill:url(#linearGradient4786);stroke-linecap:round;stroke-linejoin:round;stroke-miterlimit:10;stroke-width:.94488;stroke:#67977f"/>
  <path d="m15.36 1041.9 90.937 52.69 9e-3 -41.656-90.937-52.689z" style="color:#000000;fill-rule:evenodd;fill:url(#linearGradient4883);opacity:.75627;stroke-linecap:round;stroke-linejoin:round;stroke-miterlimit:10;stroke-width:.94488;stroke:#67977f"/>
  <path d="m15.48 1000.2 90.937 52.69 103.95-60.353-91.117-52.759z" style="color:#000000;fill-rule:evenodd;fill:url(#linearGradient4748);stroke-linecap:round;stroke-linejoin:round;stroke-miterlimit:10;stroke-width:.94488;stroke:#67977f"/>
  <path d="m294.19 1095.8 6.2254-5.1469 6.9023 14.13 6.2932-3.0741-6.9023-14.13 7.4286-1.523-19.542-14.716z" style="fill:#fff;stroke-linecap:round;stroke-linejoin:round;stroke-width:.75591;stroke:#000"/>
  <g transform="rotate(239.66 27.802 1098.7)">
   <path d="m55.7 1119.8 4.3849 12.505-8.7609 0.1359z" style="fill:#f00;stroke-linecap:round;stroke-linejoin:round;stroke-width:1.0658;stroke:#f00"/>
   <path d="m55.692 1126.9v25.636" style="fill:#f00;stroke-linecap:round;stroke-linejoin:round;stroke-width:.94488;stroke:#f00"/>
   <ellipse transform="matrix(-.037301 -.9993 .99947 -.032652 0 0)" cx="-1154.3" cy="12.628" rx="1.792" ry="1.7914" style="fill:#f00;stroke-linecap:round;stroke-linejoin:round;stroke-width:1.2329;stroke:#f00"/>
  </g>
  <g transform="translate(-182.05 770.29)">
   <ellipse cx="230.42" cy="311.21" rx="13.199" ry="13.469" style="fill:#1f638a;stroke-linecap:round;stroke-linejoin:round;stroke-width:1.0658"/>
   <text x="224.84752" y="318.87271" style="fill:#000000;font-family:'Arial Nova', 'Arial Unicode MS', 'Yu Gothic UI', sans-serif;font-size:12.8px;letter-spacing:0px;line-height:0%;stroke-width:1.0667;word-spacing:0px" xml:space="preserve"><tspan x="224.84752" y="318.87271" style="fill:#ffffff;font-family:'Arial Nova', 'Arial Unicode MS', 'Yu Gothic UI', sans-serif;font-size:21.333px;font-weight:bold;stroke-width:1.0667">5</tspan></text>
  </g>
  <g transform="matrix(.29168 -.0036683 .0036311 .28872 164.63 1010.3)" style="fill:#1f638a;stroke-linecap:round;stroke-linejoin:round;stroke-width:1.2209;stroke:#1f638a">
   <path d="m207.49 126.25 34.17 21.614-34.17 21.614z" style="fill:#1f638a;stroke-linecap:round;stroke-linejoin:round;stroke-width:1.3023;stroke:#1f638a"/>
   <rect x="172.19" y="137.99" width="39.213" height="19.761" style="fill:#1f638a;stroke-linecap:round;stroke-linejoin:round;stroke-width:1.3023;stroke:#1f638a"/>
  </g>
  <path d="m557.97 1097.6 107.95-61.305v-42.083l-107.95 61.305z" style="color:#000000;fill-rule:evenodd;fill:url(#linearGradient4810);stroke-linecap:round;stroke-linejoin:round;stroke-miterlimit:10;stroke-width:.94488;stroke:#67977f"/>
  <g transform="translate(-555.13 -149.75)">
   <path d="m794.67 1194.3 107.05-60.584 90.286 52.952" style="color:#000000;fill:none;opacity:.75;stroke-dasharray:0.75590554, 0.75590554;stroke-linecap:round;stroke-linejoin:round;stroke-miterlimit:10;stroke-width:.37795;stroke:#5eab9d"/>
   <path d="m901.73 1133.9v-42.022" style="color:#000000;fill:none;opacity:.75;stroke-dasharray:0.75590554, 0.75590554;stroke-linecap:round;stroke-linejoin:round;stroke-miterlimit:10;stroke-width:.37795;stroke:#5eab9d"/>
  </g>
  <path d="m258.26 1036.5 54.483 31.401 70.116-40.386-54.751-31.67z" style="color:#000000;fill-opacity:.4876;fill:#ffe6e6;stroke-dasharray:1.35307081, 1.35307081;stroke-linecap:round;stroke-linejoin:round;stroke-miterlimit:10;stroke-width:.67654;stroke:#f00"/>
  <path d="m313.12 1044.6v22.937" style="color:#000000;fill:none;stroke-dasharray:1.35307081, 1.35307081;stroke-linecap:round;stroke-linejoin:round;stroke-miterlimit:10;stroke-width:.67654;stroke:#f00"/>
  <path d="m257.98 1013.3v22.836l70.253-40.195v-22.937" style="color:#000000;fill-opacity:.4876;fill:#fff3f3;stroke-dasharray:1.35307087, 1.35307087;stroke-linecap:round;stroke-linejoin:round;stroke-miterlimit:10;stroke-width:.67654;stroke:#f00"/>
  <path d="m382.74 1004.8v22.836l-54.479-31.344v-22.803" style="color:#000000;fill-opacity:.4876;fill:#fff3f3;stroke-dasharray:1.35307087, 1.35307087;stroke-linecap:round;stroke-linejoin:round;stroke-miterlimit:10;stroke-width:.67654;stroke:#f00"/>
  <path d="m330.95 1097.6 106.43-60.937v-42.083l-106.43 60.937z" style="color:#000000;fill-rule:evenodd;fill:url(#linearGradient4880);opacity:.75627;stroke-linecap:round;stroke-linejoin:round;stroke-miterlimit:10;stroke-width:.94488;stroke:#67977f"/>
  <g transform="translate(100.11 776.51)">
   <ellipse cx="230.42" cy="311.21" rx="13.199" ry="13.469" style="fill:#1f638a;stroke-linecap:round;stroke-linejoin:round;stroke-width:1.0658"/>
   <text x="224.84752" y="318.87271" style="fill:#000000;font-family:'Arial Nova', 'Arial Unicode MS', 'Yu Gothic UI', sans-serif;font-size:12.8px;letter-spacing:0px;line-height:0%;stroke-width:1.0667;word-spacing:0px" xml:space="preserve"><tspan x="224.84752" y="318.87271" style="fill:#ffffff;font-family:'Arial Nova', 'Arial Unicode MS', 'Yu Gothic UI', sans-serif;font-size:21.333px;font-weight:bold;stroke-width:1.0667">2</tspan></text>
  </g>
  <path d="m239.9 1002.5 90.937 52.69 106.24-61.496-91.117-52.759z" style="color:#000000;fill-opacity:.3278;fill-rule:evenodd;fill:#b2d8cc;stroke-linecap:round;stroke-linejoin:round;stroke-miterlimit:10;stroke-width:.94488;stroke:#67977f"/>
  <path d="m355.32 1000.5-44.952 26.168" style="color:#000000;fill-rule:evenodd;fill:#008000;stroke-dasharray:1.51181107, 0.75590554;stroke-linecap:round;stroke-linejoin:round;stroke-miterlimit:10;stroke-width:.37795;stroke:#008000"/>
  <path d="m299.84 956.83-8.8287 9.882-4.3527-7.6043z" style="stroke-linecap:round;stroke-linejoin:round;stroke-width:1.0658;stroke:#000"/>
  <path d="m297.44 958.02-66.511 38.53" style="stroke-linecap:round;stroke-linejoin:round;stroke-width:.94488;stroke:#000"/>
  <path d="m231.2 996.27 12.992-2.6084-4.3527-7.6043z" style="stroke-linecap:round;stroke-linejoin:round;stroke-width:1.0658;stroke:#000"/>
  <path d="m256.88 1012.1-29.636-17.272" style="stroke-linecap:round;stroke-linejoin:round;stroke-width:.75591;stroke:#000"/>
  <g transform="translate(25.63 650.38)">
   <ellipse cx="230.42" cy="311.21" rx="13.199" ry="13.469" style="fill:#1f638a;stroke-linecap:round;stroke-linejoin:round;stroke-width:1.0658"/>
   <text x="224.84752" y="318.87271" style="fill:#000000;font-family:'Arial Nova', 'Arial Unicode MS', 'Yu Gothic UI', sans-serif;font-size:12.8px;letter-spacing:0px;line-height:0%;stroke-width:1.0667;word-spacing:0px" xml:space="preserve"><tspan x="224.84752" y="318.87271" style="fill:#ffffff;font-family:'Arial Nova', 'Arial Unicode MS', 'Yu Gothic UI', sans-serif;font-size:21.333px;font-weight:bold;stroke-width:1.0667">3</tspan></text>
  </g>
  <g transform="matrix(.29168 -.0036683 .0036311 .28872 390.67 1010.3)" style="fill:#1f638a;stroke-linecap:round;stroke-linejoin:round;stroke-width:1.2209;stroke:#1f638a">
   <path d="m207.49 126.25 34.17 21.614-34.17 21.614z" style="fill:#1f638a;stroke-linecap:round;stroke-linejoin:round;stroke-width:1.3023;stroke:#1f638a"/>
   <rect x="172.19" y="137.99" width="39.213" height="19.761" style="fill:#1f638a;stroke-linecap:round;stroke-linejoin:round;stroke-width:1.3023;stroke:#1f638a"/>
  </g>
  <path d="m257.88 1012.9 54.483 31.401 70.116-40.386-54.751-31.67z" style="color:#000000;fill:none;stroke-dasharray:2.02960625, 2.02960625;stroke-linecap:round;stroke-linejoin:round;stroke-miterlimit:10;stroke-width:.67654;stroke:#f00"/>
  <rect x="350.23" y="994.82" width="10.319" height="10.319" style="fill:#008000;stroke-linecap:round;stroke-linejoin:round;stroke-width:.75591;stroke:#008000"/>
  <path d="m257.79 1013.3 55.356 31.618v23.301l-55.356-31.618z" style="color:#000000;fill:none;stroke-linecap:round;stroke-linejoin:round;stroke-miterlimit:10;stroke-width:1.8898;stroke:#f00"/>
  <path d="m33.198 1010.9 55.356 31.618v23.301l-55.356-31.618z" style="color:#000000;fill:none;stroke-linecap:round;stroke-linejoin:round;stroke-miterlimit:10;stroke-width:1.8898;stroke:#f00"/>
  <g transform="translate(-3.0231 1035.7)">
   <ellipse cx="122.72" cy="48.983" rx="13.199" ry="13.469" style="fill:#1f638a;stroke-linecap:round;stroke-linejoin:round;stroke-width:1.0658"/>
   <text x="116.87816" y="56.649761" style="fill:#000000;font-family:'Arial Nova', 'Arial Unicode MS', 'Yu Gothic UI', sans-serif;font-size:12.8px;letter-spacing:0px;line-height:0%;stroke-width:1.0667;word-spacing:0px" xml:space="preserve"><tspan x="116.87816" y="56.649761" style="fill:#ffffff;font-family:'Arial Nova', 'Arial Unicode MS', 'Yu Gothic UI', sans-serif;font-size:21.333px;font-weight:bold;stroke-width:1.0667">1</tspan></text>
  </g>
  <path d="m82.386 1087.7 6.2254-5.1469 6.9023 14.13 6.2932-3.0741-6.9023-14.13 7.4286-1.523-19.542-14.716z" style="fill:#fff;stroke-linecap:round;stroke-linejoin:round;stroke-width:.75591;stroke:#000"/>
  <path d="m539.14 1044.8-0.76191 22.443-54-32.076-0.0953-21.871-17.31-10.562v41.633l90.933 52.7v-41.633z" style="color:#000000;fill-rule:evenodd;fill:url(#linearGradient4813);stroke-linecap:round;stroke-linejoin:round;stroke-miterlimit:10;stroke-width:.94488;stroke:#67977f"/>
  <path d="m539.02 1044.9 18.962 10.585 107.93-61.291-91.1-52.767-107.8 61.357 16.815 10.481 71.066-40.881 58.246 33.99z" style="color:#000000;fill-rule:evenodd;fill:url(#linearGradient4816);stroke-linecap:round;stroke-linejoin:round;stroke-miterlimit:10;stroke-width:.94488;stroke:#67977f"/>
  <path d="m483.77 1036.3 71.429-40.779v-22.836l-71.564 40.678z" style="color:#000000;fill:#739ba5;stroke-linecap:round;stroke-linejoin:round;stroke-miterlimit:10;stroke-width:1.4324;stroke:#16434a"/>
  <path d="m591.49 1017.1-36.561-21.844v-22.836l57.644 33.768z" style="color:#000000;fill:#739ba5;stroke-linecap:round;stroke-linejoin:round;stroke-miterlimit:10;stroke-width:1.4324;stroke:#16434a"/>
  <path d="m591.93 1016.7-36.671-21.295-71.695 40.398 54.584 31.194 0.39195-22.543z" style="color:#000000;fill:#739ba5;stroke-linecap:round;stroke-linejoin:round;stroke-miterlimit:10;stroke-width:1.4324;stroke:#16434a"/>
  <path d="m326.75 971.96-29.636-17.272" style="stroke-linecap:round;stroke-linejoin:round;stroke-width:.75591;stroke:#000"/>
 </g>
</svg>
