<?xml version="1.0" encoding="UTF-8"?>
<svg width="18cm" height="5.5cm" version="1.1" xmlns="http://www.w3.org/2000/svg" xmlns:osb="http://www.openswatchbook.org/uri/2009/osb">
 <g transform="translate(0 -245.67)">
  <path d="m4.7487-188.53h142.47" style="fill:none;stroke-linecap:round;stroke-width:3.7795;stroke:#000"/>
  <path d="m344.35 352.31 55.906 43.034" style="stroke-linecap:round;stroke-linejoin:round;stroke-width:.94488;stroke:#000"/>
  <path d="m408.73 352.35a53.679 54.415 0 0 1-16.023 36.923" style="fill:none;stroke-linecap:round;stroke-linejoin:round;stroke-width:.74834;stroke:#000"/>
  <path d="m392.55 389.17 4.7401-12.375 6.7712 5.5608z" style="stroke-linecap:round;stroke-linejoin:round;stroke-width:1.0658;stroke:#000"/>
  <path d="m272.05 302.62h143.47v98.667h-143.47z" style="fill:none;stroke-dasharray:0.75590551, 1.51181102;stroke-linecap:round;stroke-linejoin:round;stroke-width:.75591;stroke:#f00"/>
  <path d="m316.14 268.09a1.89 1.89 0 0 0-2.4752 0.49772l-58.42 79.512a1.89 1.89 0 0 0 0.40617 2.6561l115.61 84.946a1.89 1.89 0 0 0 2.6561-0.40617l58.42-79.512a1.89 1.89 0 0 0-0.4259-2.6293l-115.61-84.946a1.89 1.89 0 0 0-0.16117-0.11842zm-0.53791 4.2788 112.55 82.696-56.19 76.477-112.55-82.696z" style="color:#000000;fill:#ffd5d5;stroke-dasharray:0.75590551, 1.51181102;stroke-linecap:round;stroke-linejoin:round;stroke-width:.75591;stroke:#f00;text-decoration-line:none;text-indent:0;text-transform:none"/>
  <path d="m344.12 351.86h70.551" style="fill:none;stroke-linecap:round;stroke-linejoin:round;stroke-width:.75591;stroke:#000"/>
  <path d="m408.72 351.98-5.3304 12.132 8.7247 0.80693z" style="stroke-linecap:round;stroke-linejoin:round;stroke-width:1.0658;stroke:#000"/>
  <path d="m42.534 296.71a1.89 1.89 0 0 0-1.7 1.8667v98.667a1.89 1.89 0 0 0 1.9 1.9h143.47a1.89 1.89 0 0 0 1.9-1.9v-98.667a1.89 1.89 0 0 0-1.9-1.8667h-143.47a1.89 1.89 0 0 0-0.2 0zm2.1 3.7667h139.67v94.9h-139.67z" style="color:#000000;fill:#ffd5d5;stroke-dasharray:0.75590551, 1.51181102;stroke-linecap:round;stroke-linejoin:round;stroke-width:.75591;stroke:#f00;text-decoration-line:none;text-indent:0;text-transform:none"/>
  <ellipse transform="rotate(-2)" cx="102.26" cy="351.71" rx="4.0406" ry="3.7795" style="fill:#f00;stroke-linecap:round;stroke-linejoin:round;stroke-width:3.7837;stroke:#f00"/>
  <g transform="translate(-115.31 242.65)">
   <g transform="rotate(-59.09 134.78 172.55)">
    <path d="m185 157.64-20.624 6.4215 5.206 8.707z" style="fill:#0f0;stroke-linecap:round;stroke-linejoin:round;stroke-width:1.8898;stroke:#0f0"/>
    <path d="m174.2 164.03-29.443 17.393" style="fill:#0f0;stroke-linecap:round;stroke-linejoin:round;stroke-width:1.8898;stroke:#0f0"/>
   </g>
   <g transform="rotate(-28.115 122.25 169.14)">
    <path d="m183.63 203.52-20.719-6.1073 5.0731-8.7851z" style="fill:#f00;stroke-linecap:round;stroke-linejoin:round;stroke-width:1.8898;stroke:#f00"/>
    <path d="m173.54 197.43-28.882-15.871" style="fill:#f00;stroke-linecap:round;stroke-linejoin:round;stroke-width:1.8898;stroke:#f00"/>
   </g>
  </g>
  <path d="m500.05 302.62h143.47v98.667h-143.47z" style="fill:none;stroke-dasharray:0.75590551, 1.51181102;stroke-linecap:round;stroke-linejoin:round;stroke-width:.75591;stroke:#f00"/>
  <path d="m544.14 435.81a1.89 1.89 0 0 1-2.4752-0.49772l-58.42-79.512a1.89 1.89 0 0 1 0.40617-2.6561l115.61-84.946a1.89 1.89 0 0 1 2.6561 0.40617l58.42 79.512a1.89 1.89 0 0 1-0.4259 2.6293l-115.61 84.946a1.89 1.89 0 0 1-0.16117 0.11842zm-0.53791-4.2788 112.55-82.696-56.19-76.477-112.55 82.696z" style="color:#000000;fill:#ffd5d5;stroke-dasharray:0.75590551, 1.51181102;stroke-linecap:round;stroke-linejoin:round;stroke-width:.75591;stroke:#f00;text-decoration-line:none;text-indent:0;text-transform:none"/>
  <path d="m473.75 313.06 48.29-35.491" style="fill:none;stroke-linecap:round;stroke-linejoin:round;stroke-width:3.7795;stroke:#f00"/>
  <ellipse transform="rotate(-2)" cx="331.29" cy="363.74" rx="4.0406" ry="3.7795" style="fill:#f00;stroke-linecap:round;stroke-linejoin:round;stroke-width:3.7837;stroke:#f00"/>
  <ellipse transform="rotate(-2)" cx="559.15" cy="371.7" rx="4.0406" ry="3.7795" style="fill:#f00;stroke-linecap:round;stroke-linejoin:round;stroke-width:3.7837;stroke:#f00"/>
  <g transform="matrix(.2917 0 0 .28875 166.7 307.37)" style="fill:#1f638a;stroke-linecap:round;stroke-linejoin:round;stroke-width:1.2209;stroke:#1f638a">
   <path d="m207.49 126.25 34.17 21.614-34.17 21.614z" style="fill:#1f638a;stroke-linecap:round;stroke-linejoin:round;stroke-width:1.3023;stroke:#1f638a"/>
   <rect x="172.19" y="137.99" width="39.213" height="19.761" style="fill:#1f638a;stroke-linecap:round;stroke-linejoin:round;stroke-width:1.3023;stroke:#1f638a"/>
  </g>
  <g transform="translate(406.53 476.18)">
   <ellipse cx="17.483" cy="-98.798" rx="13.199" ry="13.469" style="fill:#1f638a;stroke-linecap:round;stroke-linejoin:round;stroke-width:1.0658"/>
   <text x="11.641406" y="-91.256096" style="fill:#000000;font-family:'Arial Unicode MS';font-size:12.8px;font-weight:bold;letter-spacing:0px;line-height:0%;stroke-width:1.0667;word-spacing:0px" xml:space="preserve"><tspan x="11.641406" y="-91.256096" style="fill:#ffffff;font-family:'Arial Nova', 'Arial Unicode MS', 'Yu Gothic UI', sans-serif;font-size:21.333px;font-weight:bold;line-height:1.25;stroke-width:1.0667;stroke:#ffffff">3</tspan></text>
  </g>
  <g transform="translate(496.16 378.86)">
   <ellipse cx="48.684" cy="-98.798" rx="13.199" ry="13.469" style="fill:#1f638a;stroke-linecap:round;stroke-linejoin:round;stroke-width:1.0658"/>
   <text x="42.842751" y="-91.162346" style="fill:#000000;font-family:'Arial Unicode MS';font-size:12.8px;font-weight:bold;letter-spacing:0px;line-height:0%;stroke-width:1.0667;word-spacing:0px" xml:space="preserve"><tspan x="42.842751" y="-91.162346" style="fill:#ffffff;font-family:'Arial Nova', 'Arial Unicode MS', 'Yu Gothic UI', sans-serif;font-size:21.333px;font-weight:bold;line-height:1.25;stroke-width:1.0667;stroke:#ffffff">4</tspan></text>
  </g>
  <path d="m501.34 317.68 6.2254-5.147 6.9023 14.13 6.2932-3.0742-6.9023-14.13 7.4286-1.523-19.542-14.716z" style="fill:#fff;stroke-linecap:round;stroke-linejoin:round;stroke-width:.75591;stroke:#000"/>
 </g>
</svg>
