<?xml version="1.0" encoding="UTF-8"?>
<svg width="18cm" height="4cm" version="1.1" xmlns="http://www.w3.org/2000/svg" xmlns:osb="http://www.openswatchbook.org/uri/2009/osb">
 <g transform="translate(0 -302.36)">
  <g transform="translate(0,152)">
   <ellipse transform="rotate(-2)" cx="310.17" cy="246.24" rx="4.0406" ry="3.7795" style="fill:#008000;stroke-linecap:round;stroke-linejoin:round;stroke-width:3.7837;stroke:#008000"/>
   <ellipse transform="rotate(-2)" cx="40.357" cy="236.62" rx="4.0406" ry="3.7795" style="fill:#008000;stroke-linecap:round;stroke-linejoin:round;stroke-width:3.7837;stroke:#008000"/>
   <path d="m49.758 235.15h267.31" style="fill:#f00;stroke-dasharray:1.51181106, 1.51181106;stroke-linecap:round;stroke-linejoin:round;stroke-width:.75591;stroke:#008000"/>
   <g transform="matrix(.66342 0 0 .66342 16.247 177.3)" style="stroke-linecap:round;stroke-linejoin:round;stroke-width:3.0147;stroke:#b3b3b3">
    <g style="stroke-linecap:round;stroke-linejoin:round;stroke-width:3.0147;stroke:#b3b3b3">
     <path d="m95.204 85.511 14.442-34.232 14.263 34.232" style="fill:none;stroke-linecap:round;stroke-linejoin:round;stroke-width:3.2157;stroke:#b3b3b3"/>
     <path d="m100.11 73.744h18.854" style="fill:none;stroke-linecap:round;stroke-linejoin:round;stroke-width:3.2157;stroke:#b3b3b3"/>
    </g>
    <path d="m130.73 57.386 11.5-6.3294v34.094" style="fill:none;stroke-linecap:round;stroke-linejoin:round;stroke-width:3.2157;stroke:#b3b3b3"/>
    <path d="m177.85 73.489h-29.249l20.172-22.378v33.913" style="fill:none;stroke-linecap:round;stroke-linejoin:round;stroke-width:3.2157;stroke:#b3b3b3"/>
    <path d="m237.41 51.111h29.438l-20.865 34.418" style="fill:none;stroke-linecap:round;stroke-linejoin:round;stroke-width:3.2157;stroke:#b3b3b3"/>
    <path d="m327.19 70.652h28.744" style="fill:none;stroke-linecap:round;stroke-linejoin:round;stroke-width:3.2157;stroke:#b3b3b3"/>
    <g transform="translate(-17.067)" style="stroke-linecap:round;stroke-linejoin:round;stroke-width:3.0147;stroke:#b3b3b3">
     <path d="m397.53 51.048v33.976" style="fill:none;stroke-linecap:round;stroke-linejoin:round;stroke-width:3.2157;stroke:#b3b3b3"/>
     <path d="m425.77 51.111v33.976" style="fill:none;stroke-linecap:round;stroke-linejoin:round;stroke-width:3.2157;stroke:#b3b3b3"/>
     <path d="m397.53 67.437h28.303" style="fill:none;stroke-linecap:round;stroke-linejoin:round;stroke-width:3.2157;stroke:#b3b3b3"/>
    </g>
    <path d="m213.82 73.489h-29.249l20.172-22.378v33.913" style="fill:none;stroke-linecap:round;stroke-linejoin:round;stroke-width:3.2157;stroke:#b3b3b3"/>
    <path d="m273.36 57.386 11.5-6.3294v34.094" style="fill:none;stroke-linecap:round;stroke-linejoin:round;stroke-width:3.2157;stroke:#b3b3b3"/>
    <path d="m291.17 57.386 11.5-6.3294v34.094" style="fill:none;stroke-linecap:round;stroke-linejoin:round;stroke-width:3.2157;stroke:#b3b3b3"/>
   </g>
   <g transform="matrix(1.0076 0 0 1.0076 -70.48 148.11)" style="stroke-linecap:round;stroke-linejoin:round;stroke-width:1.9849;stroke:#000080">
    <g style="stroke-linecap:round;stroke-linejoin:round;stroke-width:1.9849;stroke:#000080">
     <path d="m95.204 85.511 14.442-34.232 14.263 34.232" style="fill:none;stroke-linecap:round;stroke-linejoin:round;stroke-width:2.1172;stroke:#000080"/>
     <path d="m100.11 73.744h18.854" style="fill:none;stroke-linecap:round;stroke-linejoin:round;stroke-width:2.1172;stroke:#000080"/>
    </g>
    <path d="m130.73 57.386 11.5-6.3294v34.094" style="fill:none;stroke-linecap:round;stroke-linejoin:round;stroke-width:2.1172;stroke:#000080"/>
    <path d="m177.85 73.489h-29.249l20.172-22.378v33.913" style="fill:none;stroke-linecap:round;stroke-linejoin:round;stroke-width:2.1172;stroke:#000080"/>
    <path d="m237.41 51.111h29.438l-20.865 34.418" style="fill:none;stroke-linecap:round;stroke-linejoin:round;stroke-width:2.1172;stroke:#000080"/>
    <path d="m327.19 70.652h28.744" style="fill:none;stroke-linecap:round;stroke-linejoin:round;stroke-width:2.1172;stroke:#000080"/>
    <g transform="translate(-17.067)" style="stroke-linecap:round;stroke-linejoin:round;stroke-width:1.9849;stroke:#000080">
     <path d="m397.53 51.048v33.976" style="fill:none;stroke-linecap:round;stroke-linejoin:round;stroke-width:2.1172;stroke:#000080"/>
     <path d="m425.77 51.111v33.976" style="fill:none;stroke-linecap:round;stroke-linejoin:round;stroke-width:2.1172;stroke:#000080"/>
     <path d="m397.53 67.437h28.303" style="fill:none;stroke-linecap:round;stroke-linejoin:round;stroke-width:2.1172;stroke:#000080"/>
    </g>
    <path d="m213.82 73.489h-29.249l20.172-22.378v33.913" style="fill:none;stroke-linecap:round;stroke-linejoin:round;stroke-width:2.1172;stroke:#000080"/>
    <path d="m273.36 57.386 11.5-6.3294v34.094" style="fill:none;stroke-linecap:round;stroke-linejoin:round;stroke-width:2.1172;stroke:#000080"/>
    <path d="m291.17 57.386 11.5-6.3294v34.094" style="fill:none;stroke-linecap:round;stroke-linejoin:round;stroke-width:2.1172;stroke:#000080"/>
   </g>
   <g transform="translate(-80.192 205.51)">
    <ellipse cx="263.61" cy="71.14" rx="13.199" ry="13.469" style="fill:#1f638a;stroke-linecap:round;stroke-linejoin:round;stroke-width:1.0658"/>
    <text x="257.52606" y="78.540977" style="fill:#000000;font-family:'Arial Nova', 'Arial Unicode MS', 'Yu Gothic UI', sans-serif;font-size:12.8px;letter-spacing:0px;line-height:0%;stroke-width:1.0667;word-spacing:0px" xml:space="preserve"><tspan x="257.52606" y="78.540977" style="fill:#ffffff;font-family:'Arial Nova', 'Arial Unicode MS', 'Yu Gothic UI', sans-serif;font-size:21.333px;font-weight:bold;line-height:1.25;stroke-width:1.0667">5</tspan></text>
   </g>
   <g transform="translate(175.22 -12.309)">
    <ellipse cx="347.09" cy="289.28" rx="13.199" ry="13.469" style="fill:#1f638a;stroke-linecap:round;stroke-linejoin:round;stroke-width:1.0658"/>
    <text x="341.08783" y="296.81577" style="fill:#000000;font-family:'Arial Nova', 'Arial Unicode MS', 'Yu Gothic UI', sans-serif;font-size:12.8px;letter-spacing:0px;line-height:0%;stroke-width:1.0667;word-spacing:0px" xml:space="preserve"><tspan x="341.08783" y="296.81577" style="fill:#ffffff;font-family:'Arial Nova', 'Arial Unicode MS', 'Yu Gothic UI', sans-serif;font-size:21.333px;font-weight:bold;line-height:1.25;stroke-width:1.0667">6</tspan></text>
   </g>
   <g transform="translate(6.0661 39.159)">
    <path d="m638.9 149.82 4.1905 12.571h-8.7619z" style="fill:#f00;stroke-linecap:round;stroke-linejoin:round;stroke-width:1.0658;stroke:#f00"/>
    <path d="m638.94 156.08v33.241" style="fill:#f00;stroke-linecap:round;stroke-linejoin:round;stroke-width:.94488;stroke:#f00"/>
    <path d="m638.9 195.71 4.1905-12.571h-8.7619z" style="fill:#f00;stroke-linecap:round;stroke-linejoin:round;stroke-width:1.0658;stroke:#f00"/>
   </g>
   <ellipse transform="rotate(-2)" cx="647.33" cy="258.56" rx="4.0406" ry="3.7795" style="fill:#008000;stroke-linecap:round;stroke-linejoin:round;stroke-width:3.7837;stroke:#008000"/>
   <ellipse transform="rotate(-2)" cx="380.2" cy="249.16" rx="4.0406" ry="3.7795" style="fill:#008000;stroke-linecap:round;stroke-linejoin:round;stroke-width:3.7837;stroke:#008000"/>
   <path d="m389.01 235.73h267.31" style="fill:#f00;stroke-dasharray:1.51181106, 1.51181106;stroke-linecap:round;stroke-linejoin:round;stroke-width:.75591;stroke:#008000"/>
   <g transform="matrix(.66342 0 0 .66342 355.5 177.88)" style="stroke-linecap:round;stroke-linejoin:round;stroke-width:3.0147;stroke:#b3b3b3">
    <g style="stroke-linecap:round;stroke-linejoin:round;stroke-width:3.0147;stroke:#b3b3b3">
     <path d="m95.204 85.511 14.442-34.232 14.263 34.232" style="fill:none;stroke-linecap:round;stroke-linejoin:round;stroke-width:3.2157;stroke:#b3b3b3"/>
     <path d="m100.11 73.744h18.854" style="fill:none;stroke-linecap:round;stroke-linejoin:round;stroke-width:3.2157;stroke:#b3b3b3"/>
    </g>
    <path d="m130.73 57.386 11.5-6.3294v34.094" style="fill:none;stroke-linecap:round;stroke-linejoin:round;stroke-width:3.2157;stroke:#b3b3b3"/>
    <path d="m177.85 73.489h-29.249l20.172-22.378v33.913" style="fill:none;stroke-linecap:round;stroke-linejoin:round;stroke-width:3.2157;stroke:#b3b3b3"/>
    <path d="m237.41 51.111h29.438l-20.865 34.418" style="fill:none;stroke-linecap:round;stroke-linejoin:round;stroke-width:3.2157;stroke:#b3b3b3"/>
    <path d="m327.19 70.652h28.744" style="fill:none;stroke-linecap:round;stroke-linejoin:round;stroke-width:3.2157;stroke:#b3b3b3"/>
    <g transform="translate(-17.067)" style="stroke-linecap:round;stroke-linejoin:round;stroke-width:3.0147;stroke:#b3b3b3">
     <path d="m397.53 51.048v33.976" style="fill:none;stroke-linecap:round;stroke-linejoin:round;stroke-width:3.2157;stroke:#b3b3b3"/>
     <path d="m425.77 51.111v33.976" style="fill:none;stroke-linecap:round;stroke-linejoin:round;stroke-width:3.2157;stroke:#b3b3b3"/>
     <path d="m397.53 67.437h28.303" style="fill:none;stroke-linecap:round;stroke-linejoin:round;stroke-width:3.2157;stroke:#b3b3b3"/>
    </g>
    <path d="m213.82 73.489h-29.249l20.172-22.378v33.913" style="fill:none;stroke-linecap:round;stroke-linejoin:round;stroke-width:3.2157;stroke:#b3b3b3"/>
    <path d="m273.36 57.386 11.5-6.3294v34.094" style="fill:none;stroke-linecap:round;stroke-linejoin:round;stroke-width:3.2157;stroke:#b3b3b3"/>
    <path d="m291.17 57.386 11.5-6.3294v34.094" style="fill:none;stroke-linecap:round;stroke-linejoin:round;stroke-width:3.2157;stroke:#b3b3b3"/>
   </g>
   <g transform="matrix(.66342 0 0 .66342 355.5 130.3)" style="stroke-linecap:round;stroke-linejoin:round;stroke-width:3.0147;stroke:#000080">
    <g style="stroke-linecap:round;stroke-linejoin:round;stroke-width:3.0147;stroke:#000080">
     <path d="m95.204 85.511 14.442-34.232 14.263 34.232" style="fill:none;stroke-linecap:round;stroke-linejoin:round;stroke-width:3.2157;stroke:#000080"/>
     <path d="m100.11 73.744h18.854" style="fill:none;stroke-linecap:round;stroke-linejoin:round;stroke-width:3.2157;stroke:#000080"/>
    </g>
    <path d="m130.73 57.386 11.5-6.3294v34.094" style="fill:none;stroke-linecap:round;stroke-linejoin:round;stroke-width:3.2157;stroke:#000080"/>
    <path d="m177.85 73.489h-29.249l20.172-22.378v33.913" style="fill:none;stroke-linecap:round;stroke-linejoin:round;stroke-width:3.2157;stroke:#000080"/>
    <path d="m237.41 51.111h29.438l-20.865 34.418" style="fill:none;stroke-linecap:round;stroke-linejoin:round;stroke-width:3.2157;stroke:#000080"/>
    <path d="m327.19 70.652h28.744" style="fill:none;stroke-linecap:round;stroke-linejoin:round;stroke-width:3.2157;stroke:#000080"/>
    <g transform="translate(-17.067)" style="stroke-linecap:round;stroke-linejoin:round;stroke-width:3.0147;stroke:#000080">
     <path d="m397.53 51.048v33.976" style="fill:none;stroke-linecap:round;stroke-linejoin:round;stroke-width:3.2157;stroke:#000080"/>
     <path d="m425.77 51.111v33.976" style="fill:none;stroke-linecap:round;stroke-linejoin:round;stroke-width:3.2157;stroke:#000080"/>
     <path d="m397.53 67.437h28.303" style="fill:none;stroke-linecap:round;stroke-linejoin:round;stroke-width:3.2157;stroke:#000080"/>
    </g>
    <path d="m213.82 73.489h-29.249l20.172-22.378v33.913" style="fill:none;stroke-linecap:round;stroke-linejoin:round;stroke-width:3.2157;stroke:#000080"/>
    <path d="m273.36 57.386 11.5-6.3294v34.094" style="fill:none;stroke-linecap:round;stroke-linejoin:round;stroke-width:3.2157;stroke:#000080"/>
    <path d="m291.17 57.386 11.5-6.3294v34.094" style="fill:none;stroke-linecap:round;stroke-linejoin:round;stroke-width:3.2157;stroke:#000080"/>
   </g>
   <path d="m389.01 187.83h267.31" style="fill:#ccc;stroke-dasharray:1.51181106, 1.51181106;stroke-linecap:round;stroke-linejoin:round;stroke-width:.75591;stroke:#b3b3b3"/>
  </g>
 </g>
</svg>
