<?xml version="1.0" encoding="UTF-8"?>
<svg width="18cm" height="4.5cm" version="1.1" xmlns="http://www.w3.org/2000/svg" xmlns:osb="http://www.openswatchbook.org/uri/2009/osb" xmlns:xlink="http://www.w3.org/1999/xlink">
 <defs>
  <linearGradient id="linearGradient11227" x1="-218.89" x2="-30.177" y1="247.53" y2="359.53" gradientTransform="scale(1.0667)" gradientUnits="userSpaceOnUse">
   <stop style="stop-color:#fff" offset="0"/>
   <stop style="stop-color:#00385e" offset="1"/>
  </linearGradient>
 </defs>
 <g transform="translate(0 -283.46)">
  <g transform="translate(-345.08 72.532)">
   <ellipse cx="770.25" cy="332.29" rx="13.199" ry="13.469" style="fill:#1f638a;stroke-linecap:round;stroke-linejoin:round;stroke-width:1.0658"/>
   <text x="764.16443" y="339.68964" style="fill:#000000;font-family:'Arial Nova', 'Arial Unicode MS', 'Yu Gothic UI', sans-serif;font-size:12.8px;letter-spacing:0px;line-height:0%;stroke-width:1.0667;word-spacing:0px" xml:space="preserve"><tspan x="764.16443" y="339.68964" style="fill:#ffffff;font-family:'Arial Nova', 'Arial Unicode MS', 'Yu Gothic UI', sans-serif;font-size:21.333px;font-weight:bold;stroke-width:1.0667">5</tspan></text>
  </g>
  <g transform="translate(-128.59 269.91)">
   <ellipse cx="773.49" cy="141.55" rx="13.199" ry="13.469" style="fill:#1f638a;stroke-linecap:round;stroke-linejoin:round;stroke-width:1.0658"/>
   <text x="767.48633" y="149.08861" style="fill:#000000;font-family:'Arial Nova', 'Arial Unicode MS', 'Yu Gothic UI', sans-serif;font-size:12.8px;letter-spacing:0px;line-height:0%;stroke-width:1.0667;word-spacing:0px" xml:space="preserve"><tspan x="767.48633" y="149.08861" style="fill:#ffffff;font-family:'Arial Nova', 'Arial Unicode MS', 'Yu Gothic UI', sans-serif;font-size:21.333px;font-weight:bold;stroke-width:1.0667">6</tspan></text>
  </g>
  <path d="m609.76 387.57-12.545 4.2695-0.0552-8.7617z" style="stroke-linecap:round;stroke-linejoin:round;stroke-width:1.0658;stroke:#000"/>
  <path d="m498.06 329.34h112.72v77.52h-112.72z" style="fill:none;stroke-dasharray:0.75590551, 1.51181102;stroke-linecap:round;stroke-linejoin:round;stroke-width:.75591;stroke:#808080"/>
  <path d="m554.69 329.72v38.302h55.43" style="fill:none;stroke-dasharray:0.75590554, 1.51181106;stroke-linecap:round;stroke-linejoin:round;stroke-width:.75591;stroke:#808080"/>
  <ellipse transform="matrix(.9993 -.037301 .032652 .99947 0 0)" cx="542.51" cy="389.22" rx="1.2735" ry="1.2731" style="fill:#f00;stroke-linecap:round;stroke-linejoin:round;stroke-width:1.2329;stroke:#f00"/>
  <path d="m627.65 387.76 12.561 4.2221 0.0221-8.7619z" style="stroke-linecap:round;stroke-linejoin:round;stroke-width:1.0658;stroke:#000"/>
  <g transform="matrix(.79194 -.61509 .61509 .79194 60.42 673.22)">
   <path d="m601.6 145.53-112.43-89.119 61.29-77.321 112.43 89.119z" style="fill:none;stroke-dasharray:3.76917539, 3.76917539;stroke-linecap:round;stroke-linejoin:round;stroke-width:.94229;stroke:#f00"/>
   <path d="m519.24 18.388 113.37 87.402" style="fill:none;stroke-dasharray:3.19123519, 3.19123519;stroke-linecap:round;stroke-linejoin:round;stroke-width:1.0637;stroke:#f00"/>
   <path d="m606.11 22.928-60.384 78.322" style="fill:none;stroke-dasharray:3.19123519, 3.19123519;stroke-linecap:round;stroke-linejoin:round;stroke-width:1.0637;stroke:#f00"/>
  </g>
  <path d="m595.54 387.61h46.453" style="stroke-linecap:round;stroke-linejoin:round;stroke-width:.94488;stroke:#000"/>
  <path d="m391.6 410.1 4.7401-12.375 6.7712 5.5608z" style="stroke-linecap:round;stroke-linejoin:round;stroke-width:1.0658;stroke:#000"/>
  <path d="m407.81 371.29a53.679 54.415 0 0 1-16.055 38.811" style="fill:none;stroke-linecap:round;stroke-linejoin:round;stroke-width:.94488;stroke:#000"/>
  <path d="m277.85 331.62h112.72v77.52h-112.72z" style="fill:none;stroke-dasharray:0.75590551, 1.51181102;stroke-linecap:round;stroke-linejoin:round;stroke-width:.75591;stroke:#808080"/>
  <path d="m334.48 332v38.302h55.43" style="fill:none;stroke-dasharray:0.75590554, 1.51181106;stroke-linecap:round;stroke-linejoin:round;stroke-width:.75591;stroke:#808080"/>
  <path d="m389.87 370.35-12.571-4.1905v8.7619z" style="fill:#fff;stroke-dasharray:0.75590554, 1.51181106;stroke-linecap:round;stroke-linejoin:round;stroke-width:.75591;stroke:#808080"/>
  <path d="m334.22 331.99-4.1905 12.571h8.7619z" style="fill:#fff;stroke-dasharray:0.75590554, 1.51181106;stroke-linecap:round;stroke-linejoin:round;stroke-width:.75591;stroke:#808080"/>
  <ellipse transform="matrix(.9993 -.037301 .032652 .99947 0 0)" cx="322.51" cy="382.79" rx="1.2735" ry="1.2731" style="fill:#f00;stroke-linecap:round;stroke-linejoin:round;stroke-width:1.2329;stroke:#f00"/>
  <path d="m407.84 371.43-5.3304 12.132 8.7247 0.80694z" style="stroke-linecap:round;stroke-linejoin:round;stroke-width:1.0658;stroke:#000"/>
  <g transform="matrix(.78568 0 0 .78568 -117.71 321.43)">
   <path d="m601.6 145.53-112.43-89.119 61.29-77.321 112.43 89.119z" style="fill:none;stroke-dasharray:4.8105291, 4.8105291;stroke-linecap:round;stroke-linejoin:round;stroke-width:1.2026;stroke:#f00"/>
   <path d="m519.24 18.388 113.37 87.402" style="fill:none;stroke-dasharray:4.0729146, 4.0729146;stroke-linecap:round;stroke-linejoin:round;stroke-width:1.3576;stroke:#f00"/>
   <path d="m606.11 22.928-60.384 78.322" style="fill:none;stroke-dasharray:4.0729146, 4.0729146;stroke-linecap:round;stroke-linejoin:round;stroke-width:1.3576;stroke:#f00"/>
  </g>
  <path d="m252.2 394.92 55.906 43.034" style="fill:none;stroke-linecap:round;stroke-linejoin:round;stroke-width:3.7795;stroke:#f00"/>
  <g transform="translate(260.63 43.869)">
   <path d="m-234.73 323 100.53-58.134 101.54 58.271-100.92 57.815z" style="fill:url(#linearGradient11227);stroke-linecap:round;stroke-linejoin:round;stroke-width:.94488;stroke:#7d7d7d"/>
   <path d="m-183.86 293.83 100.98 57.912" style="fill:none;stroke-linecap:round;stroke-linejoin:round;stroke-width:.94488;stroke:#7d7d7d"/>
   <path d="m-183.82 351.74 100.11-57.841" style="fill:none;stroke-linecap:round;stroke-linejoin:round;stroke-width:.94488;stroke:#7d7d7d"/>
  </g>
  <g transform="translate(-774.64 4.0594)">
   <ellipse cx="982.02" cy="399.69" rx="13.199" ry="13.469" style="fill:#1f638a;stroke-linecap:round;stroke-linejoin:round;stroke-width:1.0658"/>
   <text x="976.14124" y="407.22528" style="fill:#000000;font-family:'Arial Nova', 'Arial Unicode MS', 'Yu Gothic UI', sans-serif;font-size:12.8px;letter-spacing:0px;line-height:0%;stroke-width:1.0667;word-spacing:0px" xml:space="preserve"><tspan x="976.14124" y="407.22528" style="fill:#ffffff;font-family:'Arial Nova', 'Arial Unicode MS', 'Yu Gothic UI', sans-serif;font-size:21.333px;font-weight:bold;stroke-width:1.0667">7</tspan></text>
  </g>
 </g>
</svg>
