<?xml version="1.0" encoding="UTF-8"?>
<svg width="18cm" height="4cm" version="1.1" xmlns="http://www.w3.org/2000/svg" xmlns:xlink="http://www.w3.org/1999/xlink">
 <defs>
  <pattern id="pattern336" patternTransform="matrix(-.039298 .046531 -1.6204 -1.3686 135.53 1200.7)" xlink:href="#pattern24577"/>
  <pattern id="pattern24577" patternTransform="matrix(-.036842 .043622 -1.5192 -1.283 127.06 392.18)" xlink:href="#Strips1_64"/>
  <pattern id="Strips1_64" width="65" height="1" patternTransform="translate(0) scale(10)" patternUnits="userSpaceOnUse">
   <rect y="-.5" width="1" height="2"/>
  </pattern>
  <pattern id="pattern24593" patternTransform="matrix(-.039298 .046531 -1.6204 -1.3686 395.89 1205.1)" xlink:href="#pattern24577-1"/>
  <pattern id="pattern24577-1" patternTransform="matrix(-.036842 .043622 -1.5192 -1.283 127.06 392.18)" xlink:href="#Strips1_64-8"/>
  <pattern id="Strips1_64-8" width="65" height="1" patternTransform="translate(0) scale(10)" patternUnits="userSpaceOnUse">
   <rect y="-.5" width="1" height="2"/>
  </pattern>
  <pattern id="pattern24593-7" patternTransform="matrix(-.039298 .046531 -1.6204 -1.3686 664.18 1203)" xlink:href="#pattern24577-9"/>
  <pattern id="pattern24577-9" patternTransform="matrix(-.036842 .043622 -1.5192 -1.283 127.06 392.18)" xlink:href="#Strips1_64-7"/>
  <pattern id="Strips1_64-7" width="65" height="1" patternTransform="translate(0) scale(10)" patternUnits="userSpaceOnUse">
   <rect y="-.5" width="1" height="2"/>
  </pattern>
 </defs>
 <g transform="translate(0 -971.34)">
  <g transform="translate(-37.333 -189.92)">
   <path d="m113.01 1231.4h-32.092" style="fill:none;stroke-linecap:round;stroke-linejoin:round;stroke-width:.75591;stroke:#000"/>
   <path d="m112.95 1232.6h113.08" style="fill:#f00;stroke-linecap:round;stroke-linejoin:round;stroke-width:3.7795;stroke:#67977f"/>
   <path d="m114.81 1270 34.906-35.308" style="fill:none;stroke-dasharray:2.33321795, 2.33321795;stroke-linecap:round;stroke-linejoin:round;stroke-width:.77774;stroke:#000"/>
   <path d="m113.01 1269.9h-32.092" style="fill:none;stroke-linecap:round;stroke-linejoin:round;stroke-width:.75591;stroke:#000"/>
   <path d="m112.99 1233.3v62.435" style="fill:none;stroke-linecap:round;stroke-linejoin:round;stroke-width:3.7795;stroke:#67977f"/>
   <g transform="translate(29.008 1136)" style="stroke:#000">
    <path d="m57.292 94.129 4.3437-12.519-8.7613-0.10699z" style="stroke-linecap:round;stroke-linejoin:round;stroke-width:1.0658;stroke:#000"/>
    <path d="m57.236 134.74-4.2103 12.565 8.7619 0.0139z" style="stroke-linecap:round;stroke-linejoin:round;stroke-width:1.0658;stroke:#000"/>
    <path d="m57.265 79.996v69.21" style="stroke-linecap:round;stroke-linejoin:round;stroke-width:.75591;stroke:#000"/>
   </g>
   <g transform="translate(39.816 1140.8)">
    <ellipse cx="29.391" cy="111.47" rx="13.199" ry="13.469" style="fill:#1f638a;stroke-linecap:round;stroke-linejoin:round;stroke-width:1.0658"/>
    <text x="23.815731" y="119.13964" style="fill:#000000;font-family:'Arial Nova', 'Arial Unicode MS', 'Yu Gothic UI', sans-serif;font-size:12.8px;letter-spacing:0px;line-height:0%;stroke-width:1.0667;word-spacing:0px" xml:space="preserve"><tspan x="23.815731" y="119.13964" style="fill:#ffffff;font-family:'Arial Nova', 'Arial Unicode MS', 'Yu Gothic UI', sans-serif;font-size:21.333px;font-weight:bold;stroke-width:1.0667">2</tspan></text>
   </g>
   <g transform="translate(155.02 1071.9)">
    <ellipse cx="58.402" cy="211.59" rx="13.199" ry="13.469" style="fill:#1f638a;stroke-linecap:round;stroke-linejoin:round;stroke-width:1.0658"/>
    <text x="55.402248" y="219.22653" style="fill:#000000;font-family:'Arial Nova', 'Arial Unicode MS', 'Yu Gothic UI', sans-serif;font-size:12.8px;letter-spacing:0px;line-height:0%;stroke-width:1.0667;word-spacing:0px" xml:space="preserve"><tspan x="55.402248" y="219.22653" style="fill:#ffffff;font-family:'Arial Nova', 'Arial Unicode MS', 'Yu Gothic UI', sans-serif;font-size:21.333px;font-weight:bold;stroke-width:1.0667">I</tspan></text>
   </g>
   <text x="133.82527" y="1261.0846" style="fill:#000000;font-family:'Arial Nova', 'Arial Unicode MS', 'Yu Gothic UI', sans-serif;font-size:12.8px;letter-spacing:0px;line-height:0%;stroke-width:1.0667;stroke:#000000;word-spacing:0px" xml:space="preserve"><tspan x="133.82527" y="1261.0846" style="fill:#ff0000;font-family:'Arial Nova', 'Arial Unicode MS', 'Yu Gothic UI', sans-serif;stroke-width:1.0667;stroke:#000000">45°</tspan></text>
   <path d="m112.95 1232.6 0.19048 63.619s21.651 3.3358 28.381-1.7143c6.7298-5.0501 0.18276-15.626 7.4286-20.762 7.2458-5.1362 24.736 5.6241 31.238-0.1905 6.5022-5.8146-4.2546-13.712 2.4762-20.952 6.7308-7.2403 30.785-1.7289 37.524-7.2381 6.7384-5.5092 5.3333-12.952 5.3333-12.952z" style="color:#000000;fill-rule:evenodd;fill:url(#pattern336);opacity:.5"/>
  </g>
  <g transform="translate(-62.055 -194.4)">
   <path d="m375.54 1274.2 60.828-35.063" style="fill:none;stroke-dasharray:3.06932119, 3.06932119;stroke-linecap:round;stroke-linejoin:round;stroke-width:1.0231;stroke:#000"/>
   <path d="m373.61 1274.2h-32.092" style="stroke-linecap:round;stroke-linejoin:round;stroke-width:.75591;stroke:#000"/>
   <path d="m372.21 1236.1v-32.092" style="stroke-linecap:round;stroke-linejoin:round;stroke-width:.75591;stroke:#000"/>
   <path d="m373.61 1235.4h-32.092" style="stroke-linecap:round;stroke-linejoin:round;stroke-width:.75591;stroke:#000"/>
   <path d="m438.34 1236.1v-32.092" style="stroke-linecap:round;stroke-linejoin:round;stroke-width:.75591;stroke:#000"/>
   <path d="m373.55 1236.9h113.08" style="fill:#f00;stroke-linecap:round;stroke-linejoin:round;stroke-width:3.7795;stroke:#67977f"/>
   <g transform="translate(289.61 1140.3)" style="stroke:#000">
    <path d="m57.292 94.129 4.3437-12.519-8.7613-0.10699z" style="stroke-linecap:round;stroke-linejoin:round;stroke-width:1.0658;stroke:#000"/>
    <path d="m57.236 134.74-4.2103 12.565 8.7619 0.0139z" style="stroke-linecap:round;stroke-linejoin:round;stroke-width:1.0658;stroke:#000"/>
    <path d="m57.265 79.996v69.21" style="stroke-linecap:round;stroke-linejoin:round;stroke-width:.75591;stroke:#000"/>
   </g>
   <g transform="translate(300.42 1145.1)">
    <ellipse cx="29.391" cy="111.47" rx="13.199" ry="13.469" style="fill:#1f638a;stroke-linecap:round;stroke-linejoin:round;stroke-width:1.0658"/>
    <text x="23.815731" y="119.13964" style="fill:#000000;font-family:'Arial Nova', 'Arial Unicode MS', 'Yu Gothic UI', sans-serif;font-size:12.8px;letter-spacing:0px;line-height:0%;stroke-width:1.0667;word-spacing:0px" xml:space="preserve"><tspan x="23.815731" y="119.13964" style="fill:#ffffff;font-family:'Arial Nova', 'Arial Unicode MS', 'Yu Gothic UI', sans-serif;font-size:21.333px;font-weight:bold;stroke-width:1.0667">2</tspan></text>
   </g>
   <path d="m373.59 1237.4v62.842" style="fill:none;stroke-linecap:round;stroke-linejoin:round;stroke-width:3.7795;stroke:#67977f"/>
   <path d="m439.2 1208.2 12.519 4.3437 0.10699-8.7612z" style="stroke-linecap:round;stroke-linejoin:round;stroke-width:1.0658;stroke:#000"/>
   <path d="m370.97 1208.2-12.565-4.2104-0.0139 8.7619z" style="stroke-linecap:round;stroke-linejoin:round;stroke-width:1.0658;stroke:#000"/>
   <path d="m453.45 1208.2h-96.676" style="stroke-linecap:round;stroke-linejoin:round;stroke-width:.75591;stroke:#000"/>
   <ellipse cx="406.6" cy="1190.8" rx="13.199" ry="13.469" style="fill:#1f638a;stroke-linecap:round;stroke-linejoin:round;stroke-width:1.0658"/>
   <text x="400.71832" y="1198.4224" style="fill:#000000;font-family:'Arial Nova', 'Arial Unicode MS', 'Yu Gothic UI', sans-serif;font-size:12.8px;letter-spacing:0px;line-height:0%;stroke-width:1.0667;word-spacing:0px" xml:space="preserve"><tspan x="400.71832" y="1198.4224" style="fill:#ffffff;font-family:'Arial Nova', 'Arial Unicode MS', 'Yu Gothic UI', sans-serif;font-size:21.333px;font-weight:bold;stroke-width:1.0667">3</tspan></text>
   <g transform="translate(428.22 1030.4)">
    <ellipse cx="45.602" cy="253.5" rx="13.199" ry="13.469" style="fill:#1f638a;stroke-linecap:round;stroke-linejoin:round;stroke-width:1.0658"/>
    <text x="39.643917" y="261.13474" style="fill:#000000;font-family:'Arial Nova', 'Arial Unicode MS', 'Yu Gothic UI', sans-serif;font-size:12.8px;letter-spacing:0px;line-height:0%;stroke-width:1.0667;word-spacing:0px" xml:space="preserve"><tspan x="39.643917" y="261.13474" style="fill:#ffffff;font-family:'Arial Nova', 'Arial Unicode MS', 'Yu Gothic UI', sans-serif;font-size:21.333px;font-weight:bold;stroke-width:1.0667">II</tspan></text>
   </g>
   <path d="m373.3 1237.1 0.19048 63.619s21.651 3.3358 28.381-1.7142c6.7298-5.0502 0.18276-15.626 7.4286-20.762 7.2458-5.1362 24.736 5.6242 31.238-0.1905 6.5022-5.8145-4.2546-13.712 2.4762-20.952 6.7308-7.2404 30.785-1.7289 37.524-7.2382 6.7384-5.5091 5.3333-12.952 5.3333-12.952z" style="color:#000000;fill-rule:evenodd;fill:url(#pattern24593);opacity:.5"/>
  </g>
  <g transform="translate(-94.476 -191.93)">
   <path d="m643.83 1272 60.828-35.063" style="fill:none;stroke-dasharray:3.06932119, 3.06932119;stroke-linecap:round;stroke-linejoin:round;stroke-width:1.0231;stroke:#000"/>
   <path d="m641.91 1272h-32.092" style="stroke-linecap:round;stroke-linejoin:round;stroke-width:.75591;stroke:#000"/>
   <g transform="translate(557.91 1138.2)" style="stroke:#000">
    <path d="m57.292 94.129 4.3437-12.519-8.7613-0.10699z" style="stroke-linecap:round;stroke-linejoin:round;stroke-width:1.0658;stroke:#000"/>
    <path d="m57.236 134.74-4.2103 12.565 8.7619 0.0139z" style="stroke-linecap:round;stroke-linejoin:round;stroke-width:1.0658;stroke:#000"/>
    <path d="m57.265 79.996v69.21" style="stroke-linecap:round;stroke-linejoin:round;stroke-width:.75591;stroke:#000"/>
   </g>
   <g transform="translate(568.72 1142.9)">
    <ellipse cx="29.391" cy="111.47" rx="13.199" ry="13.469" style="fill:#1f638a;stroke-linecap:round;stroke-linejoin:round;stroke-width:1.0658"/>
    <text x="23.815731" y="119.13964" style="fill:#000000;font-family:'Arial Nova', 'Arial Unicode MS', 'Yu Gothic UI', sans-serif;font-size:12.8px;letter-spacing:0px;line-height:0%;stroke-width:1.0667;word-spacing:0px" xml:space="preserve"><tspan x="23.815731" y="119.13964" style="fill:#ffffff;font-family:'Arial Nova', 'Arial Unicode MS', 'Yu Gothic UI', sans-serif;font-size:21.333px;font-weight:bold;stroke-width:1.0667">2</tspan></text>
   </g>
   <g transform="translate(507.66 1244.4)">
    <g transform="translate(19.308 -103.51)">
     <ellipse cx="159.66" cy="50.416" rx="13.199" ry="13.469" style="fill:#1f638a;stroke-linecap:round;stroke-linejoin:round;stroke-width:1.0658"/>
     <text x="153.77269" y="58.082745" style="fill:#000000;font-family:'Arial Nova', 'Arial Unicode MS', 'Yu Gothic UI', sans-serif;font-size:12.8px;letter-spacing:0px;line-height:0%;stroke-width:1.0667;word-spacing:0px" xml:space="preserve"><tspan x="153.77269" y="58.082745" style="fill:#ffffff;font-family:'Arial Nova', 'Arial Unicode MS', 'Yu Gothic UI', sans-serif;font-size:21.333px;font-weight:bold;stroke-width:1.0667">4</tspan></text>
    </g>
   </g>
   <g transform="translate(200 -3.8095)">
    <ellipse cx="543.6" cy="1287.2" rx="13.199" ry="13.469" style="fill:#1f638a;stroke-linecap:round;stroke-linejoin:round;stroke-width:1.0658"/>
    <text x="534.68781" y="1294.8024" style="fill:#000000;font-family:'Arial Nova', 'Arial Unicode MS', 'Yu Gothic UI', sans-serif;font-size:12.8px;letter-spacing:0px;line-height:0%;stroke-width:1.0667;word-spacing:0px" xml:space="preserve"><tspan x="534.68781" y="1294.8024" style="fill:#ffffff;font-family:'Arial Nova', 'Arial Unicode MS', 'Yu Gothic UI', sans-serif;font-size:21.333px;font-weight:bold;stroke-width:1.0667">III</tspan></text>
   </g>
   <path d="m641.91 1233.3h-32.092" style="stroke-linecap:round;stroke-linejoin:round;stroke-width:.75591;stroke:#000"/>
   <g transform="translate(515.24 1138.2)" style="fill:none;stroke:#000">
    <path d="m190.51 98.771 0.94391 13.218 8.0938-3.3558z" style="fill:#000;stroke-linecap:round;stroke-linejoin:round;stroke-width:1.0658;stroke:#000"/>
    <path d="m124.29 57.916-12.565-4.2103-0.0139 8.7619z" style="fill:#000;stroke-linecap:round;stroke-linejoin:round;stroke-width:1.0658;stroke:#000"/>
    <path d="m108.13 58.709a79.49 74.733 0 0 1 88.531 54.569" style="color:#000000;fill:none;stroke-linecap:round;stroke-linejoin:round;stroke-width:.75591;stroke:#000"/>
   </g>
   <path d="m643.36 1234.7h111.58" style="fill:#f00;stroke-linecap:round;stroke-linejoin:round;stroke-width:3.7795;stroke:#67977f"/>
   <path d="m641.89 1234.6v62.822" style="fill:none;stroke-linecap:round;stroke-linejoin:round;stroke-width:3.7795;stroke:#67977f"/>
   <path d="m640.68 1232.9v-41.829" style="stroke-linecap:round;stroke-linejoin:round;stroke-width:.75591;stroke:#000"/>
   <path d="m641.6 1234.9 0.19048 63.619s21.651 3.3358 28.381-1.7143c6.7298-5.05 0.18276-15.626 7.4286-20.762 7.2458-5.1362 24.736 5.624 31.238-0.1905 6.5022-5.8147-4.2546-13.712 2.4762-20.952 6.7308-7.2403 30.785-1.7288 37.524-7.238 6.7384-5.5092 5.3333-12.952 5.3333-12.952z" style="color:#000000;fill-rule:evenodd;fill:url(#pattern24593-7);opacity:.5"/>
  </g>
 </g>
</svg>
