<?xml version="1.0" encoding="UTF-8"?>
<svg width="18cm" height="5.5cm" version="1.1" viewBox="0 0 180 55" xmlns="http://www.w3.org/2000/svg"><path d="m43.532 43.549v-13.816h18.247l3.8797-6.5532h11.891v10.463h5.409v-10.463h26.263l4.8225 4.9891h13.294l6.4517 6.4517v8.9281" style="fill:none;stroke-linecap:round;stroke-linejoin:round;stroke:#800080"/><path d="m17.005 43.749h143.84" style="fill:none;stroke-dasharray:2.00000004, 1.00000002, 0.5, 1.00000002;stroke-linecap:round;stroke-linejoin:round;stroke-width:.5;stroke:#800080"/><g transform="matrix(.62532 0 0 .62052 129.21 -128.8)" style="stroke-width:1.6054"><path d="m9.5444 271.77c0.12161-0.46967 0.55456-0.92855 1.0292-1.0292 0.18942-0.0402 0.34602-0.0284 0.5 0 0.47714 0.0878 0.90756 0.5595 1.0292 1.0292 0.1502 0.58009-0.36124 1.44-0.61048 2.2029-0.3955 1.2105-0.66869 2.268-0.66869 2.268s-0.22106-1.0629-0.61681-2.268c-0.25192-0.7671-0.81349-1.6192-0.66236-2.2029z" style="fill:#fff;paint-order:normal;stroke-linecap:round;stroke-linejoin:round;stroke-width:.60843;stroke:#800080"/><ellipse cx="10.804" cy="272.03" rx=".64215" ry=".66202" style="fill:none;paint-order:normal;stroke-linecap:round;stroke-linejoin:round;stroke-width:.60843;stroke:#800080"/></g><rect x="69.645" y="21.089" width="3.7519" height=".93078" rx=".5" ry=".5" style="fill:#fff;paint-order:normal;stroke-linecap:round;stroke-linejoin:round;stroke-width:.379;stroke:#800080"/><rect x="120.33" y="26.129" width="3.7519" height=".93078" rx=".5" ry=".5" style="fill:#fff;paint-order:normal;stroke-linecap:round;stroke-linejoin:round;stroke-width:.379;stroke:#800080"/><rect x="95.203" y="21.169" width="3.7519" height=".93078" rx=".5" ry=".5" style="fill:#fff;paint-order:normal;stroke-linecap:round;stroke-linejoin:round;stroke-width:.379;stroke:#800080"/><rect x="51.284" y="27.769" width="3.7519" height=".93078" rx=".5" ry=".5" style="fill:#fff;paint-order:normal;stroke-linecap:round;stroke-linejoin:round;stroke-width:.379;stroke:#800080"/><rect transform="rotate(-90)" x="-37.649" y="41.495" width="3.7231" height=".93798" rx=".5" ry=".5" style="fill:#fff;paint-order:normal;stroke-linecap:round;stroke-linejoin:round;stroke-width:.379;stroke:#800080"/><rect transform="rotate(-90)" x="-30.289" y="83.99" width="3.7231" height=".93798" rx=".5" ry=".5" style="fill:#fff;paint-order:normal;stroke-linecap:round;stroke-linejoin:round;stroke-width:.379;stroke:#800080"/><rect transform="rotate(-90)" x="-41.319" y="131.87" width="3.7231" height=".93798" rx=".5" ry=".5" style="fill:#fff;paint-order:normal;stroke-linecap:round;stroke-linejoin:round;stroke-width:.379;stroke:#800080"/><path d="m116.22 12.809h2.7576m9.4206 0h2.987" style="color:#000000;fill-rule:evenodd;fill:#000080;stroke-linecap:round;stroke-linejoin:round;stroke-width:.379;stroke:#000080"/><path d="m114.17 11.579v15.972" style="color:#000000;fill-rule:evenodd;fill:#000080;stroke-linecap:round;stroke-linejoin:round;stroke-width:.379;stroke:#000080"/><path d="m116.44 12.309v0.96053l-1.9636-0.44961z" style="color:#000000;fill-rule:evenodd;fill:#000080;stroke-linecap:round;stroke-linejoin:round;stroke-width:.379;stroke:#000080"/><path d="m131.8 12.269v0.96053l1.9636-0.44961z" style="color:#000000;fill-rule:evenodd;fill:#000080;stroke-linecap:round;stroke-linejoin:round;stroke-width:.379;stroke:#000080"/><text transform="scale(1.0004 .9996)" x="120.62289" y="13.689251" style="fill:#000080;font-family:'Century Gothic';font-size:2.44px;letter-spacing:0px;line-height:0%;stroke-width:.28222;word-spacing:0px" xml:space="preserve"><tspan x="120.62289" y="13.689251" style="font-family:'Arial Nova', 'Arial Unicode MS', 'Yu Gothic UI', sans-serif;font-size:3.2533px;line-height:1.25;stroke-width:.28222">1.73</tspan></text><path d="m134.11 6.4692v27.208" style="color:#000000;fill-rule:evenodd;fill:#000080;stroke-linecap:round;stroke-linejoin:round;stroke-width:.379;stroke:#000080"/><g transform="matrix(.62532 0 0 .62052 -23.064 -164.1)" style="stroke-width:1.6054"><rect transform="rotate(-90)" x="-326.32" y="163.1" width="6" height="1.5" rx=".80578" ry=".79959" style="fill:#fff;paint-order:normal;stroke-linecap:round;stroke-linejoin:round;stroke-width:.60843;stroke:#800080"/><rect transform="rotate(-90)" x="-326.32" y="165.75" width="6" height="1.5" rx=".80578" ry=".79959" style="fill:#fff;paint-order:normal;stroke-linecap:round;stroke-linejoin:round;stroke-width:.60843;stroke:#800080"/></g><rect transform="rotate(-90)" x="-30.189" y="75.515" width="3.7519" height=".93078" rx=".5" ry=".5" style="fill:#fff;paint-order:normal;stroke-linecap:round;stroke-linejoin:round;stroke-width:.379;stroke:#800080"/><g transform="matrix(.61212 0 0 .622 -60.669 -144.01)" style="stroke-width:1.6206"><g transform="translate(42.626,-47.772)" style="stroke-width:1.6206"><path transform="rotate(-90)" d="m-326.32 164.1v-0.5c0-0.277 0.223-0.5 0.5-0.5h3.6724v1.5h-3.1432v1.1458h3.1432v1.5h-3.6724c-0.277 0-0.5-0.22299-0.5-0.49999v-0.50001z" style="fill:#fff;paint-order:normal;stroke-linecap:round;stroke-linejoin:round;stroke-width:.61422;stroke:#800080"/></g><g transform="translate(42.626,-53.304)" style="stroke-width:1.6206"><path transform="rotate(-90)" d="m-327.14 163.1h0.76667c0.277 0 0.5 0.223 0.5 0.5v0.5c0 0.277-0.223 0.5-0.5 0.5h-0.76667z" style="fill:#fff;paint-order:normal;stroke-linecap:round;stroke-linejoin:round;stroke-width:.61422;stroke:#800080"/><path transform="rotate(-90)" d="m-327.14 165.75h0.76667c0.277 0 0.5 0.223 0.5 0.5v0.50001c0 0.277-0.223 0.49999-0.5 0.49999h-0.76667z" style="fill:#fff;paint-order:normal;stroke-linecap:round;stroke-linejoin:round;stroke-width:.61422;stroke:#800080"/></g></g><g transform="matrix(.62532 0 0 .62052 33.733 -129.28)" style="stroke-width:1.6054"><path d="m9.5444 271.77c0.12161-0.46967 0.55456-0.92855 1.0292-1.0292 0.18942-0.0402 0.34602-0.0284 0.5 0 0.47714 0.0878 0.90756 0.5595 1.0292 1.0292 0.1502 0.58009-0.36124 1.44-0.61048 2.2029-0.3955 1.2105-0.66869 2.268-0.66869 2.268s-0.22106-1.0629-0.61681-2.268c-0.25192-0.7671-0.81349-1.6192-0.66236-2.2029z" style="fill:#fff;paint-order:normal;stroke-linecap:round;stroke-linejoin:round;stroke-width:.60843;stroke:#800080"/><ellipse cx="10.804" cy="272.03" rx=".64215" ry=".66202" style="fill:none;paint-order:normal;stroke-linecap:round;stroke-linejoin:round;stroke-width:.60843;stroke:#800080"/></g><path d="m43.621 6.4392v22.482" style="color:#000000;fill-rule:evenodd;fill:#000080;stroke-linecap:round;stroke-linejoin:round;stroke-width:.379;stroke:#000080"/><path d="m61.78 11.589v16.983" style="color:#000000;fill-rule:evenodd;fill:#000080;stroke-linecap:round;stroke-linejoin:round;stroke-width:.379;stroke:#000080"/><path d="m77.655 11.579v10.868" style="color:#000000;fill-rule:evenodd;fill:#000080;stroke-linecap:round;stroke-linejoin:round;stroke-width:.379;stroke:#000080"/><path d="m82.946 11.579v10.868" style="color:#000000;fill-rule:evenodd;fill:#000080;stroke-linecap:round;stroke-linejoin:round;stroke-width:.379;stroke:#000080"/><path d="m45.836 12.809h2.7576m7.3039 0h5.1037" style="color:#000000;fill-rule:evenodd;fill:#000080;stroke-linecap:round;stroke-linejoin:round;stroke-width:.379;stroke:#000080"/><path d="m46.059 12.309v0.96053l-1.9636-0.44961z" style="color:#000000;fill-rule:evenodd;fill:#000080;stroke-linecap:round;stroke-linejoin:round;stroke-width:.379;stroke:#000080"/><path d="m59.426 12.269v0.96053l1.9636-0.44961z" style="color:#000000;fill-rule:evenodd;fill:#000080;stroke-linecap:round;stroke-linejoin:round;stroke-width:.379;stroke:#000080"/><text transform="scale(1.0004 .9996)" x="49.2155" y="13.689251" style="fill:#000080;font-family:'Century Gothic';font-size:2.44px;letter-spacing:0px;line-height:0%;stroke-width:.28222;word-spacing:0px" xml:space="preserve"><tspan x="49.2155" y="13.689251" style="font-family:'Arial Nova', 'Arial Unicode MS', 'Yu Gothic UI', sans-serif;font-size:3.2533px;line-height:1.25;stroke-width:.28222">1.57</tspan></text><path d="m44.418 7.7392h42.078m7.6846 0h39.046" style="color:#000000;fill-rule:evenodd;fill:#000080;stroke-linecap:round;stroke-linejoin:round;stroke-width:.379;stroke:#000080"/><path d="m45.952 7.2392v0.96053l-1.9636-0.44961z" style="color:#000000;fill-rule:evenodd;fill:#000080;stroke-linecap:round;stroke-linejoin:round;stroke-width:.379;stroke:#000080"/><path d="m131.75 7.1992v0.96053l1.9636-0.44961z" style="color:#000000;fill-rule:evenodd;fill:#000080;stroke-linecap:round;stroke-linejoin:round;stroke-width:.379;stroke:#000080"/><text transform="scale(1.0004 .9996)" x="87.191971" y="8.6171341" style="fill:#000080;font-family:'Century Gothic';font-size:2.44px;letter-spacing:0px;line-height:0%;stroke-width:.28222;word-spacing:0px" xml:space="preserve"><tspan x="87.191971" y="8.6171341" style="font-family:'Arial Nova', 'Arial Unicode MS', 'Yu Gothic UI', sans-serif;font-size:3.2533px;line-height:1.25;stroke-width:.28222">7.87</tspan></text><path d="m74.425 12.809h3.8726m4.0391 0h3.4925" style="color:#000000;fill-rule:evenodd;fill:#000080;stroke-linecap:round;stroke-linejoin:round;stroke-width:.379;stroke:#000080"/><path d="m75.288 12.309v0.96053l1.9636-0.44961z" style="color:#000000;fill-rule:evenodd;fill:#000080;stroke-linecap:round;stroke-linejoin:round;stroke-width:.379;stroke:#000080"/><path d="m85.263 12.269v0.96053l-1.9636-0.44961z" style="color:#000000;fill-rule:evenodd;fill:#000080;stroke-linecap:round;stroke-linejoin:round;stroke-width:.379;stroke:#000080"/><text transform="scale(1.0004 .9996)" x="77.934364" y="13.949245" style="fill:#000080;font-family:'Century Gothic';font-size:2.44px;letter-spacing:0px;line-height:0%;stroke-width:.28222;word-spacing:0px" xml:space="preserve"><tspan x="77.934364" y="13.949245" style="font-family:'Arial Nova', 'Arial Unicode MS', 'Yu Gothic UI', sans-serif;font-size:3.2533px;line-height:1.25;stroke-width:.28222">.47</tspan></text><path d="m150.19 46.739v-5.5728m0-4.4204v-4.8045" style="color:#000000;fill-rule:evenodd;fill:#000080;stroke-linecap:round;stroke-linejoin:round;stroke-width:.379;stroke:#000080"/><path d="m149.69 46.049h0.96053l-0.44961-1.9636z" style="color:#000000;fill-rule:evenodd;fill:#000080;stroke-linecap:round;stroke-linejoin:round;stroke-width:.379;stroke:#000080"/><path d="m149.65 32.569h0.96053l-0.44961 1.9636z" style="color:#000000;fill-rule:evenodd;fill:#000080;stroke-linecap:round;stroke-linejoin:round;stroke-width:.379;stroke:#000080"/><text transform="matrix(0 -1.0004 .9996 0 0 0)" x="-41.518814" y="151.31702" style="fill:#000080;font-family:'Century Gothic';font-size:2.44px;letter-spacing:0px;line-height:0%;stroke-width:.28222;word-spacing:0px" xml:space="preserve"><tspan x="-41.518814" y="151.31702" style="font-family:'Arial Nova', 'Arial Unicode MS', 'Yu Gothic UI', sans-serif;font-size:3.2533px;line-height:1.25;stroke-width:.28222">.79</tspan></text><path d="m160.2 41.699v-1.6754m0-7.6259v-2.8227" style="color:#000000;fill-rule:evenodd;fill:#000080;stroke-linecap:round;stroke-linejoin:round;stroke-width:.379;stroke:#000080"/><path d="m159.7 41.439h0.96053l-0.44961 1.9636z" style="color:#000000;fill-rule:evenodd;fill:#000080;stroke-linecap:round;stroke-linejoin:round;stroke-width:.379;stroke:#000080"/><path d="m159.66 30.739h0.96053l-0.44961-1.9636z" style="color:#000000;fill-rule:evenodd;fill:#000080;stroke-linecap:round;stroke-linejoin:round;stroke-width:.379;stroke:#000080"/><text transform="matrix(0 -1.0004 .9996 0 0 0)" x="-39.412575" y="161.46988" style="fill:#000080;font-family:'Century Gothic';font-size:2.44px;letter-spacing:0px;line-height:0%;stroke-width:.28222;word-spacing:0px" xml:space="preserve"><tspan x="-39.412575" y="161.46988" style="font-family:'Arial Nova', 'Arial Unicode MS', 'Yu Gothic UI', sans-serif;font-size:3.2533px;line-height:1.25;stroke-width:.28222">1.73</tspan></text><path d="m134.66 34.709h17.432" style="color:#000000;fill-rule:evenodd;fill:#000080;stroke-linecap:round;stroke-linejoin:round;stroke-width:.379;stroke:#000080"/><path d="m128.65 28.409h32.403" style="color:#000000;fill-rule:evenodd;fill:#000080;stroke-linecap:round;stroke-linejoin:round;stroke-width:.379;stroke:#000080"/><path d="m43.628 44.189v6.1487" style="color:#000000;fill-rule:evenodd;fill:#000080;stroke-linecap:round;stroke-linejoin:round;stroke-width:.379;stroke:#000080"/><path d="m77.413 34.649v15.689" style="color:#000000;fill-rule:evenodd;fill:#000080;stroke-linecap:round;stroke-linejoin:round;stroke-width:.379;stroke:#000080"/><path d="m45.33 49.449h11.753m8.8914 0h9.337" style="color:#000000;fill-rule:evenodd;fill:#000080;stroke-linecap:round;stroke-linejoin:round;stroke-width:.379;stroke:#000080"/><path d="m45.912 48.949v0.96054l-1.9636-0.44962z" style="color:#000000;fill-rule:evenodd;fill:#000080;stroke-linecap:round;stroke-linejoin:round;stroke-width:.379;stroke:#000080"/><path d="m74.984 48.909v0.96054l1.9636-0.44962z" style="color:#000000;fill-rule:evenodd;fill:#000080;stroke-linecap:round;stroke-linejoin:round;stroke-width:.379;stroke:#000080"/><text transform="scale(1.0004 .9996)" x="58.343861" y="50.343571" style="fill:#000080;font-family:'Century Gothic';font-size:2.44px;letter-spacing:0px;line-height:0%;stroke-width:.28222;word-spacing:0px" xml:space="preserve"><tspan x="58.343861" y="50.343571" style="font-family:'Arial Nova', 'Arial Unicode MS', 'Yu Gothic UI', sans-serif;font-size:3.2533px;line-height:1.25;stroke-width:.28222">2.95</tspan></text><path d="m27.566 41.819v-2.0607m0-5.9594v-3.0723" style="color:#000000;fill-rule:evenodd;fill:#000080;stroke-linecap:round;stroke-linejoin:round;stroke-width:.379;stroke:#000080"/><path d="m27.063 32.049h0.96052l-0.44961-1.9636z" style="color:#000000;fill-rule:evenodd;fill:#000080;stroke-linecap:round;stroke-linejoin:round;stroke-width:.379;stroke:#000080"/><path d="m27.025 41.269h0.96052l-0.44961 1.9636z" style="color:#000000;fill-rule:evenodd;fill:#000080;stroke-linecap:round;stroke-linejoin:round;stroke-width:.379;stroke:#000080"/><text transform="matrix(0 -1.0004 .9996 0 0 0)" x="-38.518799" y="28.639805" style="fill:#000080;font-family:'Century Gothic';font-size:2.44px;letter-spacing:0px;line-height:0%;stroke-width:.28222;word-spacing:0px" xml:space="preserve"><tspan x="-38.518799" y="28.639805" style="font-family:'Arial Nova', 'Arial Unicode MS', 'Yu Gothic UI', sans-serif;font-size:3.2533px;line-height:1.25;stroke-width:.28222">.79</tspan></text><path d="m19.933 41.349v-4.5702m0-7.8216v-4.5895" style="color:#000000;fill-rule:evenodd;fill:#000080;stroke-linecap:round;stroke-linejoin:round;stroke-width:.379;stroke:#000080"/><path d="m19.43 41.419h0.96052l-0.44961 1.9636z" style="color:#000000;fill-rule:evenodd;fill:#000080;stroke-linecap:round;stroke-linejoin:round;stroke-width:.379;stroke:#000080"/><path d="m19.392 25.459h0.96052l-0.44961-1.9636z" style="color:#000000;fill-rule:evenodd;fill:#000080;stroke-linecap:round;stroke-linejoin:round;stroke-width:.379;stroke:#000080"/><text transform="matrix(0 -1.0004 .9996 0 0 0)" x="-36.368355" y="21.145658" style="fill:#000080;font-family:'Century Gothic';font-size:2.44px;letter-spacing:0px;line-height:0%;stroke-width:.28222;word-spacing:0px" xml:space="preserve"><tspan x="-36.368355" y="21.145658" style="font-family:'Arial Nova', 'Arial Unicode MS', 'Yu Gothic UI', sans-serif;font-size:3.2533px;line-height:1.25;stroke-width:.28222">1.73</tspan></text><path d="m25.25 29.699h17.57" style="color:#000000;fill-rule:evenodd;fill:#000080;stroke-linecap:round;stroke-linejoin:round;stroke-width:.379;stroke:#000080"/><path d="m18.691 23.119h45.936" style="color:#000000;fill-rule:evenodd;fill:#000080;stroke-linecap:round;stroke-linejoin:round;stroke-width:.379;stroke:#000080"/><path d="m73.127 46.839v-5.953m0-4.7219v-5.1322" style="color:#000000;fill-rule:evenodd;fill:#000080;stroke-linecap:round;stroke-linejoin:round;stroke-width:.379;stroke:#000080"/><path d="m72.624 46.149h0.96053l-0.44961-1.9636z" style="color:#000000;fill-rule:evenodd;fill:#000080;stroke-linecap:round;stroke-linejoin:round;stroke-width:.379;stroke:#000080"/><path d="m72.586 31.599h0.96053l-0.44961 1.9636z" style="color:#000000;fill-rule:evenodd;fill:#000080;stroke-linecap:round;stroke-linejoin:round;stroke-width:.379;stroke:#000080"/><text transform="matrix(0 -1.0004 .9996 0 0 0)" x="-40.822723" y="74.218666" style="fill:#000080;font-family:'Century Gothic';font-size:2.44px;letter-spacing:0px;line-height:0%;stroke-width:.28222;word-spacing:0px" xml:space="preserve"><tspan x="-40.822723" y="74.218666" style="font-family:'Arial Nova', 'Arial Unicode MS', 'Yu Gothic UI', sans-serif;font-size:3.2533px;line-height:1.25;stroke-width:.28222">.79</tspan></text><path d="m71.841 33.949h4.9417" style="color:#000000;fill-rule:evenodd;fill:#000080;stroke-linecap:round;stroke-linejoin:round;stroke-width:.379;stroke:#000080"/><path d="m110.07 10.649 16.648 16.648" style="color:#000000;fill-rule:evenodd;fill:#000080;stroke-linecap:round;stroke-linejoin:round;stroke-width:.379;stroke:#000080"/><path d="m96.019 10.099 12.321 12.321" style="color:#000000;fill-rule:evenodd;fill:#000080;stroke-linecap:round;stroke-linejoin:round;stroke-width:.379;stroke:#000080"/><path d="m102.52 28.319h10.438" style="color:#000000;fill-rule:evenodd;fill:#000080;stroke-linecap:round;stroke-linejoin:round;stroke-width:.379;stroke:#000080"/><path d="m55.649 40.339 5.8121-10.067" style="color:#000000;fill-rule:evenodd;fill:#000080;stroke-linecap:round;stroke-linejoin:round;stroke-width:.379;stroke:#000080"/><path d="m92.113 21.349c0.11016-1.078 0.32595-2.1365 0.64108-3.1612m1.194-2.8781c0.62469-1.1765 1.3936-2.2795 2.2948-3.2819" style="fill:none;paint-order:normal;stroke-linecap:round;stroke-linejoin:round;stroke-width:.379;stroke:#000080"/><path d="m104.03 26.739c0.20073-3.1518 1.0395-6.2048 2.4401-8.9841m2.0296-3.3076c0.56782-0.77234 1.1854-1.5122 1.8505-2.2145" style="fill:none;paint-order:normal;stroke-linecap:round;stroke-linejoin:round;stroke-width:.379;stroke:#000080"/><path d="m55.715 39.019c-1.2901-0.809-2.463-1.76-3.5033-2.8262m-2.5623-3.279c-1.681-2.7199-2.6732-5.8598-2.8184-9.148" style="fill:none;paint-order:normal;stroke-linecap:round;stroke-linejoin:round;stroke-width:.379;stroke:#000080"/><path d="m95.932 13.229-0.74354-0.60807 1.5911-1.2354z" style="color:#000000;fill-rule:evenodd;fill:#000080;stroke-linecap:round;stroke-linejoin:round;stroke-width:.379;stroke:#000080"/><path d="m109.88 13.679-0.74355-0.60807 1.5911-1.2354z" style="color:#000000;fill-rule:evenodd;fill:#000080;stroke-linecap:round;stroke-linejoin:round;stroke-width:.379;stroke:#000080"/><path d="m103.59 25.939 0.95954 0.0435-0.53717 1.9414z" style="color:#000000;fill-rule:evenodd;fill:#000080;stroke-linecap:round;stroke-linejoin:round;stroke-width:.379;stroke:#000080"/><path d="m91.704 20.429 0.9487 0.1502-0.75022 1.8695z" style="color:#000000;fill-rule:evenodd;fill:#000080;stroke-linecap:round;stroke-linejoin:round;stroke-width:.379;stroke:#000080"/><text transform="scale(1.0004 .9996)" x="90.864822" y="17.88847" style="fill:#000080;font-family:'Century Gothic';font-size:2.44px;letter-spacing:0px;line-height:0%;stroke-width:.28222;word-spacing:0px" xml:space="preserve"><tspan x="90.864822" y="17.88847" style="font-family:'Arial Nova', 'Arial Unicode MS', 'Yu Gothic UI', sans-serif;font-size:3.2533px;line-height:1.25;stroke-width:.28222">45°</tspan></text><text transform="scale(1.0004 .9996)" x="105.31799" y="17.158199" style="fill:#000080;font-family:'Century Gothic';font-size:2.44px;letter-spacing:0px;line-height:0%;stroke-width:.28222;word-spacing:0px" xml:space="preserve"><tspan x="105.31799" y="17.158199" style="font-family:'Arial Nova', 'Arial Unicode MS', 'Yu Gothic UI', sans-serif;font-size:3.2533px;line-height:1.25;stroke-width:.28222">45°</tspan></text><text transform="scale(1.0004 .9996)" x="48.456131" y="36.017399" style="fill:#000080;font-family:'Century Gothic';font-size:2.44px;letter-spacing:0px;line-height:0%;stroke-width:.28222;word-spacing:0px" xml:space="preserve"><tspan x="48.456131" y="36.017399" style="font-family:'Arial Nova', 'Arial Unicode MS', 'Yu Gothic UI', sans-serif;font-size:3.2533px;line-height:1.25;stroke-width:.28222">60°</tspan></text><path d="m47.432 25.419-0.95937 0.0471 0.35278-1.9832z" style="color:#000000;fill-rule:evenodd;fill:#000080;stroke-linecap:round;stroke-linejoin:round;stroke-width:.379;stroke:#000080"/><path d="m54.024 38.409 0.55985-0.78051 1.3335 1.5098z" style="color:#000000;fill-rule:evenodd;fill:#000080;stroke-linecap:round;stroke-linejoin:round;stroke-width:.379;stroke:#000080"/><path d="m83.027 38.579 1.6471-1.3618 1.8262 3.7385 1.6651-0.81338-1.8262-3.7385 1.9655-0.40296-5.1705-3.8935z" style="fill:#fff;stroke-linecap:round;stroke-linejoin:round;stroke-width:.2;stroke:#000"/><g transform="matrix(.26458 0 0 .26458 104.99 63.219)"><ellipse cx="-44.92" cy="-98.798" rx="13.199" ry="13.469" style="fill:#1f638a;stroke-linecap:round;stroke-linejoin:round;stroke-width:1.0658"/><text x="-50.761276" y="-91.125885" style="fill:#000000;font-family:'Arial Nova', 'Arial Unicode MS', 'Yu Gothic UI', sans-serif;font-size:12.8px;letter-spacing:0px;line-height:0%;stroke-width:1.0667;word-spacing:0px" xml:space="preserve"><tspan x="-50.761276" y="-91.125885" style="fill:#ffffff;font-family:'Arial Nova', 'Arial Unicode MS', 'Yu Gothic UI', sans-serif;font-size:21.333px;line-height:1.25;stroke-width:1.0667;stroke:#ffffff">1</tspan></text></g><g transform="matrix(.07718 0 0 .076397 154.28 19.659)" style="fill:#1f638a;stroke-linecap:round;stroke-linejoin:round;stroke-width:1.2209;stroke:#1f638a"><path d="m207.49 126.25 34.17 21.614-34.17 21.614z" style="fill:#1f638a;stroke-linecap:round;stroke-linejoin:round;stroke-width:1.3023;stroke:#1f638a"/><rect x="172.19" y="137.99" width="39.213" height="19.761" style="fill:#1f638a;stroke-linecap:round;stroke-linejoin:round;stroke-width:1.3023;stroke:#1f638a"/></g><g transform="matrix(.26458 0 0 .26458 -87.146 -10.341)"><path d="m353.39 76.694 5.0723 20.997h-10.145c1.7968-10.641 5.0723-20.997 5.0723-20.997z" style="fill:#00f;stroke-linecap:round;stroke-linejoin:round;stroke-width:1.8898;stroke:#00f"/><path d="m353.34 86.247 0.17497 39.728" style="fill:#00f;stroke-linecap:round;stroke-linejoin:round;stroke-width:1.8898;stroke:#00f"/><path d="m393.91 102.14-20.624 6.4215 5.206 8.707c8.2105-7.0026 15.418-15.128 15.418-15.128z" style="fill:#0f0;stroke-linecap:round;stroke-linejoin:round;stroke-width:1.8898;stroke:#0f0"/><path d="m383.1 108.53-29.443 17.394" style="fill:#0f0;stroke-linecap:round;stroke-linejoin:round;stroke-width:1.8898;stroke:#0f0"/><path d="m392.53 148.02-20.719-6.1073 5.0731-8.7851c8.316 6.877 15.646 14.892 15.646 14.892z" style="fill:#f00;stroke-linecap:round;stroke-linejoin:round;stroke-width:1.8898;stroke:#f00"/><path d="m382.44 141.93-28.882-15.871" style="fill:#f00;stroke-linecap:round;stroke-linejoin:round;stroke-width:1.8898;stroke:#f00"/></g><g transform="matrix(0 -.095574 .09527 0 11.845 95.685)" style="stroke-width:.51026"><path d="m606.48 77.553 0.0984-5.3142c3.9441 0.10049 4.7001 1.4832 5.3634 2.9031z" style="fill:none;stroke-linecap:round;stroke-linejoin:round;stroke-width:.73092;stroke:#000080"/><path d="m614.55 62.988c4.5012 0.24219 4.383 1.759 5.511 3.0508m0 0-8.1189 9.103m-5.3634-2.9031 7.9713-9.2507" style="fill:none;stroke-linecap:round;stroke-linejoin:round;stroke-width:.73092;stroke:#000080"/><path d="m614.55 62.988 2.5587-3.0015c2.884-0.78701 4.7599 0.39541 5.8063 3.1984l-2.8539 2.8539" style="fill:none;stroke-linecap:round;stroke-linejoin:round;stroke-width:.73092;stroke:#000080"/></g><g transform="matrix(0 -.095574 .09527 0 19.227 96.822)" style="stroke-width:.51026"><path d="m606.48 77.553 0.0984-5.3142c3.9441 0.10049 4.7001 1.4832 5.3634 2.9031z" style="fill:none;stroke-linecap:round;stroke-linejoin:round;stroke-width:.73092;stroke:#000080"/><path d="m614.55 62.988c4.5012 0.24219 4.383 1.759 5.511 3.0508m0 0-8.1189 9.103m-5.3634-2.9031 7.9713-9.2507" style="fill:none;stroke-linecap:round;stroke-linejoin:round;stroke-width:.73092;stroke:#000080"/><path d="m614.55 62.988 2.5587-3.0015c2.884-0.78701 4.7599 0.39541 5.8063 3.1984l-2.8539 2.8539" style="fill:none;stroke-linecap:round;stroke-linejoin:round;stroke-width:.73092;stroke:#000080"/></g><g transform="matrix(0 -.095574 .09527 0 64.945 99.928)" style="stroke-width:.51026"><path d="m606.48 77.553 0.0984-5.3142c3.9441 0.10049 4.7001 1.4832 5.3634 2.9031z" style="fill:none;stroke-linecap:round;stroke-linejoin:round;stroke-width:.73092;stroke:#000080"/><path d="m614.55 62.988c4.5012 0.24219 4.383 1.759 5.511 3.0508m0 0-8.1189 9.103m-5.3634-2.9031 7.9713-9.2507" style="fill:none;stroke-linecap:round;stroke-linejoin:round;stroke-width:.73092;stroke:#000080"/><path d="m614.55 62.988 2.5587-3.0015c2.884-0.78701 4.7599 0.39541 5.8063 3.1984l-2.8539 2.8539" style="fill:none;stroke-linecap:round;stroke-linejoin:round;stroke-width:.73092;stroke:#000080"/></g><g transform="matrix(.095574 0 0 .09527 -9.6352 4.9382)" style="stroke-width:.51026"><path d="m606.48 77.553 0.0984-5.3142c3.9441 0.10049 4.7001 1.4832 5.3634 2.9031z" style="fill:none;stroke-linecap:round;stroke-linejoin:round;stroke-width:.73092;stroke:#000080"/><path d="m614.55 62.988c4.5012 0.24219 4.383 1.759 5.511 3.0508m0 0-8.1189 9.103m-5.3634-2.9031 7.9713-9.2507" style="fill:none;stroke-linecap:round;stroke-linejoin:round;stroke-width:.73092;stroke:#000080"/><path d="m614.55 62.988 2.5587-3.0015c2.884-0.78701 4.7599 0.39541 5.8063 3.1984l-2.8539 2.8539" style="fill:none;stroke-linecap:round;stroke-linejoin:round;stroke-width:.73092;stroke:#000080"/></g><g transform="matrix(.095574 0 0 .09527 20.579 4.2953)" style="stroke-width:.51026"><path d="m606.48 77.553 0.0984-5.3142c3.9441 0.10049 4.7001 1.4832 5.3634 2.9031z" style="fill:none;stroke-linecap:round;stroke-linejoin:round;stroke-width:.73092;stroke:#000080"/><path d="m614.55 62.988c4.5012 0.24219 4.383 1.759 5.511 3.0508m0 0-8.1189 9.103m-5.3634-2.9031 7.9713-9.2507" style="fill:none;stroke-linecap:round;stroke-linejoin:round;stroke-width:.73092;stroke:#000080"/><path d="m614.55 62.988 2.5587-3.0015c2.884-0.78701 4.7599 0.39541 5.8063 3.1984l-2.8539 2.8539" style="fill:none;stroke-linecap:round;stroke-linejoin:round;stroke-width:.73092;stroke:#000080"/></g><g transform="matrix(.095574 0 0 .09527 -10.664 26.667)" style="stroke-width:.51026"><path d="m606.48 77.553 0.0984-5.3142c3.9441 0.10049 4.7001 1.4832 5.3634 2.9031z" style="fill:none;stroke-linecap:round;stroke-linejoin:round;stroke-width:.73092;stroke:#000080"/><path d="m614.55 62.988c4.5012 0.24219 4.383 1.759 5.511 3.0508m0 0-8.1189 9.103m-5.3634-2.9031 7.9713-9.2507" style="fill:none;stroke-linecap:round;stroke-linejoin:round;stroke-width:.73092;stroke:#000080"/><path d="m614.55 62.988 2.5587-3.0015c2.884-0.78701 4.7599 0.39541 5.8063 3.1984l-2.8539 2.8539" style="fill:none;stroke-linecap:round;stroke-linejoin:round;stroke-width:.73092;stroke:#000080"/></g><g transform="matrix(.095574 0 0 .09527 -1.1494 41.452)" style="stroke-width:.51026"><path d="m606.48 77.553 0.0984-5.3142c3.9441 0.10049 4.7001 1.4832 5.3634 2.9031z" style="fill:none;stroke-linecap:round;stroke-linejoin:round;stroke-width:.73092;stroke:#000080"/><path d="m614.55 62.988c4.5012 0.24219 4.383 1.759 5.511 3.0508m0 0-8.1189 9.103m-5.3634-2.9031 7.9713-9.2507" style="fill:none;stroke-linecap:round;stroke-linejoin:round;stroke-width:.73092;stroke:#000080"/><path d="m614.55 62.988 2.5587-3.0015c2.884-0.78701 4.7599 0.39541 5.8063 3.1984l-2.8539 2.8539" style="fill:none;stroke-linecap:round;stroke-linejoin:round;stroke-width:.73092;stroke:#000080"/></g><g transform="matrix(.095574 0 0 .09527 27.393 -.52611)" style="stroke-width:.51026"><path d="m606.48 77.553 0.0984-5.3142c3.9441 0.10049 4.7001 1.4832 5.3634 2.9031z" style="fill:none;stroke-linecap:round;stroke-linejoin:round;stroke-width:.73092;stroke:#000080"/><path d="m614.55 62.988c4.5012 0.24219 4.383 1.759 5.511 3.0508m0 0-8.1189 9.103m-5.3634-2.9031 7.9713-9.2507" style="fill:none;stroke-linecap:round;stroke-linejoin:round;stroke-width:.73092;stroke:#000080"/><path d="m614.55 62.988 2.5587-3.0015c2.884-0.78701 4.7599 0.39541 5.8063 3.1984l-2.8539 2.8539" style="fill:none;stroke-linecap:round;stroke-linejoin:round;stroke-width:.73092;stroke:#000080"/></g><g transform="matrix(.095574 0 0 .09527 31.893 8.8596)" style="stroke-width:.51026"><path d="m606.48 77.553 0.0984-5.3142c3.9441 0.10049 4.7001 1.4832 5.3634 2.9031z" style="fill:none;stroke-linecap:round;stroke-linejoin:round;stroke-width:.73092;stroke:#000080"/><path d="m614.55 62.988c4.5012 0.24219 4.383 1.759 5.511 3.0508m0 0-8.1189 9.103m-5.3634-2.9031 7.9713-9.2507" style="fill:none;stroke-linecap:round;stroke-linejoin:round;stroke-width:.73092;stroke:#000080"/><path d="m614.55 62.988 2.5587-3.0015c2.884-0.78701 4.7599 0.39541 5.8063 3.1984l-2.8539 2.8539" style="fill:none;stroke-linecap:round;stroke-linejoin:round;stroke-width:.73092;stroke:#000080"/></g><g transform="matrix(.095574 0 0 .09527 46.101 8.7953)" style="stroke-width:.51026"><path d="m606.48 77.553 0.0984-5.3142c3.9441 0.10049 4.7001 1.4832 5.3634 2.9031z" style="fill:none;stroke-linecap:round;stroke-linejoin:round;stroke-width:.73092;stroke:#000080"/><path d="m614.55 62.988c4.5012 0.24219 4.383 1.759 5.511 3.0508m0 0-8.1189 9.103m-5.3634-2.9031 7.9713-9.2507" style="fill:none;stroke-linecap:round;stroke-linejoin:round;stroke-width:.73092;stroke:#000080"/><path d="m614.55 62.988 2.5587-3.0015c2.884-0.78701 4.7599 0.39541 5.8063 3.1984l-2.8539 2.8539" style="fill:none;stroke-linecap:round;stroke-linejoin:round;stroke-width:.73092;stroke:#000080"/></g><g transform="matrix(.095574 0 0 .09527 61.401 4.4882)" style="stroke-width:.51026"><path d="m606.48 77.553 0.0984-5.3142c3.9441 0.10049 4.7001 1.4832 5.3634 2.9031z" style="fill:none;stroke-linecap:round;stroke-linejoin:round;stroke-width:.73092;stroke:#000080"/><path d="m614.55 62.988c4.5012 0.24219 4.383 1.759 5.511 3.0508m0 0-8.1189 9.103m-5.3634-2.9031 7.9713-9.2507" style="fill:none;stroke-linecap:round;stroke-linejoin:round;stroke-width:.73092;stroke:#000080"/><path d="m614.55 62.988 2.5587-3.0015c2.884-0.78701 4.7599 0.39541 5.8063 3.1984l-2.8539 2.8539" style="fill:none;stroke-linecap:round;stroke-linejoin:round;stroke-width:.73092;stroke:#000080"/></g><g transform="matrix(0 -.095574 .09527 0 141.45 99.542)" style="stroke-width:.51026"><path d="m606.48 77.553 0.0984-5.3142c3.9441 0.10049 4.7001 1.4832 5.3634 2.9031z" style="fill:none;stroke-linecap:round;stroke-linejoin:round;stroke-width:.73092;stroke:#000080"/><path d="m614.55 62.988c4.5012 0.24219 4.383 1.759 5.511 3.0508m0 0-8.1189 9.103m-5.3634-2.9031 7.9713-9.2507" style="fill:none;stroke-linecap:round;stroke-linejoin:round;stroke-width:.73092;stroke:#000080"/><path d="m614.55 62.988 2.5587-3.0015c2.884-0.78701 4.7599 0.39541 5.8063 3.1984l-2.8539 2.8539" style="fill:none;stroke-linecap:round;stroke-linejoin:round;stroke-width:.73092;stroke:#000080"/></g><g transform="matrix(0 -.095574 .09527 0 151.99 97.999)" style="stroke-width:.51026"><path d="m606.48 77.553 0.0984-5.3142c3.9441 0.10049 4.7001 1.4832 5.3634 2.9031z" style="fill:none;stroke-linecap:round;stroke-linejoin:round;stroke-width:.73092;stroke:#000080"/><path d="m614.55 62.988c4.5012 0.24219 4.383 1.759 5.511 3.0508m0 0-8.1189 9.103m-5.3634-2.9031 7.9713-9.2507" style="fill:none;stroke-linecap:round;stroke-linejoin:round;stroke-width:.73092;stroke:#000080"/><path d="m614.55 62.988 2.5587-3.0015c2.884-0.78701 4.7599 0.39541 5.8063 3.1984l-2.8539 2.8539" style="fill:none;stroke-linecap:round;stroke-linejoin:round;stroke-width:.73092;stroke:#000080"/></g></svg>
