<?xml version="1.0" encoding="UTF-8"?>
<svg width="680.32" height="377.95" version="1.1" xmlns="http://www.w3.org/2000/svg" xmlns:xlink="http://www.w3.org/1999/xlink">
 <defs>
  <linearGradient id="linearGradient10628">
   <stop style="stop-color:#fff" offset="0"/>
   <stop style="stop-color:#4fa68a" offset="1"/>
  </linearGradient>
  <linearGradient id="linearGradient9247" x1="492.28" x2="620.09" y1="972.85" y2="972.85" gradientTransform="matrix(1.4235 0 0 1.4235 -448.88 -364.56)" gradientUnits="userSpaceOnUse" xlink:href="#linearGradient10628"/>
  <linearGradient id="linearGradient9253" x1="225.72" x2="395.44" y1="1126" y2="1126" gradientTransform="matrix(1.0667 0 0 1.0667 11.262 -232.58)" gradientUnits="userSpaceOnUse">
   <stop style="stop-color:#ff8500" offset="0"/>
   <stop style="stop-color:#fff" offset="1"/>
  </linearGradient>
  <linearGradient id="linearGradient9255" x1="492.28" x2="620.09" y1="972.85" y2="972.85" gradientTransform="matrix(1.4235 0 0 1.4235 -682.95 -364.56)" gradientUnits="userSpaceOnUse" xlink:href="#linearGradient10628"/>
  <linearGradient id="linearGradient9261" x1="225.72" x2="395.44" y1="1126" y2="1126" gradientTransform="matrix(1.0667 0 0 1.0667 -222.84 -201.12)" gradientUnits="userSpaceOnUse">
   <stop style="stop-color:#ff8500" offset="0"/>
   <stop style="stop-color:#fff" offset="1"/>
  </linearGradient>
  <linearGradient id="linearGradient9285" x1="225.72" x2="395.44" y1="1126" y2="1126" gradientTransform="matrix(1.0667 0 0 1.0667 241.07 -232.53)" gradientUnits="userSpaceOnUse" xlink:href="#linearGradient10628"/>
  <linearGradient id="linearGradient9287" x1="492.28" x2="620.09" y1="972.85" y2="972.85" gradientTransform="matrix(1.4235 0 0 1.4235 -219.21 -364.56)" gradientUnits="userSpaceOnUse" xlink:href="#linearGradient10628"/>
  <linearGradient id="linearGradient9291" x1="225.72" x2="395.55" y1="1164.9" y2="1164.9" gradientTransform="matrix(1.0667 0 0 1.0667 241.07 -232.53)" gradientUnits="userSpaceOnUse" xlink:href="#linearGradient10628"/>
  <linearGradient id="linearGradient9326" x1="24.43" x2="152.38" y1="1002.1" y2="1002.1" gradientTransform="matrix(1.4235,0,0,1.4235,-16.03,-369.46)" gradientUnits="userSpaceOnUse" xlink:href="#linearGradient10628"/>
  <linearGradient id="linearGradient9330" x1="24.831" x2="152.1" y1="969.31" y2="969.31" gradientTransform="matrix(1.4235,0,0,1.4235,-16.03,-369.46)" gradientUnits="userSpaceOnUse" xlink:href="#linearGradient10628"/>
  <linearGradient id="linearGradient8621" x1="264.23" x2="392.18" y1="1002.1" y2="1002.1" gradientTransform="matrix(1.4235 0 0 1.4235 -124.97 -559.27)" gradientUnits="userSpaceOnUse" xlink:href="#linearGradient10628"/>
  <linearGradient id="linearGradient8618" x1="264.63" x2="391.9" y1="969.31" y2="969.31" gradientTransform="matrix(1.4235 0 0 1.4235 -124.97 -559.27)" gradientUnits="userSpaceOnUse" xlink:href="#linearGradient10628"/>
  <linearGradient id="linearGradient9318" x1="410.8" x2="201.59" y1="1147.9" y2="1146.8" gradientTransform="matrix(1.0667,0,0,1.0667,216.8,-230.1)" gradientUnits="userSpaceOnUse">
   <stop style="stop-color:#fff" offset="0"/>
   <stop style="stop-color:#4fa68a" offset="1"/>
  </linearGradient>
  <linearGradient id="linearGradient9320" x1="492.28" x2="620.09" y1="972.85" y2="972.85" gradientTransform="matrix(1.4235,0,0,1.4235,-220.63,-369.74)" gradientUnits="userSpaceOnUse" xlink:href="#linearGradient10628"/>
  <linearGradient id="linearGradient9324" x1="534.68" x2="600.44" y1="985.09" y2="980.04" gradientTransform="matrix(1.4235,0,0,1.4235,-220.63,-369.74)" gradientUnits="userSpaceOnUse" xlink:href="#linearGradient10628"/>
 </defs>
 <g transform="translate(0 -744.57)">
  <text x="574.03601" y="1003.9951" style="fill:#000000;font-family:'Arial Nova', 'Arial Unicode MS', 'Yu Gothic UI', sans-serif;font-size:12.8px;letter-spacing:0px;line-height:0%;stroke-width:1.0667;word-spacing:0px" xml:space="preserve"><tspan x="574.03601" y="1003.9951" style="stroke-width:1.0667"> </tspan></text>
  <path d="m482.32 983.8 89.899-51.986 90.186 51.699c-58.989 32.374-129.98 25.498-180.08 0.2873z" style="fill:url(#linearGradient9285);stroke-linecap:round;stroke-linejoin:round;stroke-width:.94488;stroke:#67977f"/>
  <path d="m482.17 1015.1c48.997 25.277 116.04 31.233 180.66 0.4308l-90.186 51.412z" style="fill:url(#linearGradient9287);stroke-linecap:round;stroke-linejoin:round;stroke-width:.94488;stroke:#67977f"/>
  <path d="m482.17 1015.2 90.617 51.555v41.934l-90.473-52.273z" style="fill:url(#linearGradient9287);stroke-linecap:round;stroke-linejoin:round;stroke-width:.94488;stroke:#67977f"/>
  <path d="m482.35 983.9c59.118 28.051 123.41 29.245 180.17-0.2524l-0.0523 31.864c-58.096 29.422-130.43 26.459-180.15-0.4062z" style="fill:url(#linearGradient9291);stroke-linecap:round;stroke-linejoin:round;stroke-width:.94488;stroke:#67977f"/>
  <path d="m572.73 1066.7v41.939l89.81-52.21v-40.928z" style="fill:url(#linearGradient9287);stroke-linecap:round;stroke-linejoin:round;stroke-width:.94488;stroke:#67977f"/>
  <path d="m457.83 1004.2 9.9675 6.2409-9.9675 6.2408z" style="fill:#1f638a;stroke-linecap:round;stroke-linejoin:round;stroke-width:.37795;stroke:#1f638a"/>
  <rect x="447.54" y="1007.6" width="11.439" height="5.7059" style="fill:#1f638a;stroke-linecap:round;stroke-linejoin:round;stroke-width:.37795;stroke:#1f638a"/>
  <path d="m252.5 1015.1c48.997 25.277 116.04 31.233 180.66 0.4309l-90.186 51.412z" style="fill:url(#linearGradient9247);stroke-linecap:round;stroke-linejoin:round;stroke-width:.94488;stroke:#67977f"/>
  <path d="m252.5 1015.2 90.617 51.555v41.934l-90.473-52.273z" style="fill:url(#linearGradient9247);stroke-linecap:round;stroke-linejoin:round;stroke-width:.94488;stroke:#67977f"/>
  <path d="m343.07 1066.7v41.939l89.81-52.21v-40.928z" style="fill:url(#linearGradient9247);stroke-linecap:round;stroke-linejoin:round;stroke-width:.94488;stroke:#67977f"/>
  <path d="m252.5 983.75 89.899-51.986 90.186 51.699c-58.989 32.374-129.98 25.498-180.08 0.2872z" style="fill:url(#linearGradient9253);stroke-linecap:round;stroke-linejoin:round;stroke-width:.94488;stroke:#67977f"/>
  <path d="m252.68 983.9c59.118 28.051 123.41 29.245 180.17-0.2523l-0.0523 31.863c-58.096 29.422-130.43 26.459-180.15-0.4062z" style="fill:#ff8080;stroke-dasharray:0.94488195, 2.83464585;stroke-linecap:round;stroke-linejoin:round;stroke-width:.94488;stroke:#f00"/>
  <path d="m252.45 948.82c14.74 0.3585 23.497 2.4768 29.525 17.651" style="fill:none;stroke-linecap:round;stroke-linejoin:round;stroke-width:.94488;stroke:#619696"/>
  <path d="m282.01 966.6c3.9255 10.985-0.4262 22.921-10.014 27.356" style="fill:none;stroke-linecap:round;stroke-linejoin:round;stroke-width:.94488;stroke:#619696"/>
  <path d="m252.54 982.99 8.1759-4.6224" style="fill:none;stroke-linecap:round;stroke-linejoin:round;stroke-width:.94488;stroke:#666"/>
  <g transform="matrix(.21202 -.20076 .20076 .21202 170.92 971.2)">
   <ellipse cx="276.72" cy="246.72" rx="2.4016" ry="3.5297" style="color:#000000;fill:#3dda3d;stroke-linecap:round;stroke-linejoin:round;stroke-width:2.5888;stroke:#178d17"/>
   <path d="m208.8 226.37c-1.3264 0-2.4 1.6054-2.4 3.6 0 1.9223 1.007 3.4552 2.2667 3.5667 22.564 5.6558 45.418 11.182 68.1 16.733l-0.0333-7.1c-23.779-5.3956-47.552-12.213-67.933-16.8z" style="color:#000000;fill:#3dda3d;stroke-linecap:round;stroke-linejoin:round;stroke-width:2.5888;stroke:#178d17"/>
  </g>
  <path d="m279.77 967.63 2.5459-1.4393" style="fill:none;stroke-linecap:round;stroke-linejoin:round;stroke-width:.94488;stroke:#666"/>
  <path d="m257.32 987.06c5.8967 3.3709 5.6895 3.2418 11.628 6.5927l1.906-0.9726c-6.259-3.3937-6.5359-4.064-11.903-6.9622-0.82299-0.117-1.7921 0.5052-1.6303 1.3421z" style="color:#000000;fill:#f04e4e;stroke-linecap:round;stroke-linejoin:round;stroke-width:.75591;stroke:#aa1010"/>
  <path d="m257.65 986.06-5.1447-2.9594" style="fill:none;stroke-linecap:round;stroke-linejoin:round;stroke-width:.94488;stroke:#666"/>
  <ellipse transform="matrix(.85713 -.5151 -.5151 -.85713 0 0)" cx="-280.43" cy="-990.39" rx=".70125" ry="1.0306" style="color:#000000;fill:#f04e4e;stroke-linecap:round;stroke-linejoin:round;stroke-width:.75591;stroke:#aa1010"/>
  <path d="m271.79 994.2-1.7868-1.0278" style="fill:none;stroke-linecap:round;stroke-linejoin:round;stroke-width:.94488;stroke:#666"/>
  <g transform="rotate(-.45435 84958 23039)">
   <path d="m430.3 312.2v-9.901" style="fill:none;stroke-linecap:round;stroke-linejoin:round;stroke-width:.94488;stroke:#666"/>
   <g transform="matrix(.29199 0 0 .29199 375.83 247.3)">
    <rect x="183.16" y="116.37" width="6.7943" height="71.675" rx="8.3952" ry="5.4892" style="color:#000000;fill:#51519c;stroke-linecap:round;stroke-linejoin:round;stroke-width:3.236;stroke:#2b2b97"/>
    <ellipse transform="rotate(269.1)" cx="-121.28" cy="184.71" rx="2.4016" ry="3.5297" style="color:#000000;fill:#51519c;stroke-linecap:round;stroke-linejoin:round;stroke-width:2.5888;stroke:#2b2b97"/>
   </g>
   <path d="m430.3 281.82v-4.0884" style="fill:none;stroke-linecap:round;stroke-linejoin:round;stroke-width:.94488;stroke:#666"/>
  </g>
  <circle transform="rotate(-19.377)" cx="-87.985" cy="1011.1" r="2.759" style="color:#000000;fill:#fd7326;stroke-linecap:round;stroke-linejoin:round;stroke-width:.94488;stroke:#c95b20"/>
  <path d="m271.66 993.63c2.7905-28.35-10.123-38.629-19.154-44.771" style="fill:none;stroke-linecap:round;stroke-linejoin:round;stroke-width:.94488;stroke:#619696"/>
  <path d="m252.18 1008.9 6.2254-5.147 6.9023 14.13 6.2932-3.0741-6.9023-14.13 7.4286-1.523-19.542-14.716z" style="fill:#fff;stroke-linecap:round;stroke-linejoin:round;stroke-width:.75591;stroke:#000"/>
  <path d="m225.26 1006.7 9.9675 6.2408-9.9675 6.2409z" style="fill:#1f638a;stroke-linecap:round;stroke-linejoin:round;stroke-width:.37795;stroke:#1f638a"/>
  <rect x="214.96" y="1010.1" width="11.439" height="5.7059" style="fill:#1f638a;stroke-linecap:round;stroke-linejoin:round;stroke-width:.37795;stroke:#1f638a"/>
  <path d="m18.432 1015.1c48.997 25.277 116.04 31.233 180.66 0.4308l-90.186 51.412z" style="fill:url(#linearGradient9255);stroke-linecap:round;stroke-linejoin:round;stroke-width:.94488;stroke:#67977f"/>
  <path d="m18.432 1015.2 90.617 51.555v41.934l-90.473-52.273z" style="fill:url(#linearGradient9255);stroke-linecap:round;stroke-linejoin:round;stroke-width:.94488;stroke:#67977f"/>
  <path d="m108.99 1066.7v41.939l89.81-52.21v-40.928z" style="fill:url(#linearGradient9255);stroke-linecap:round;stroke-linejoin:round;stroke-width:.94488;stroke:#67977f"/>
  <path d="m18.403 1015.2 89.899-51.986 90.186 51.699c-58.989 32.374-129.98 25.498-180.08 0.2872z" style="fill:url(#linearGradient9261);stroke-linecap:round;stroke-linejoin:round;stroke-width:.94488;stroke:#67977f"/>
  <path d="m85.379 1018 6.2254-5.147 6.9023 14.13 6.2932-3.0741-6.9023-14.13 7.4286-1.523-19.542-14.716z" style="fill:#fff;stroke-linecap:round;stroke-linejoin:round;stroke-width:.75591;stroke:#000"/>
  <ellipse cx="292.57" cy="1004.1" rx="13.199" ry="13.469" style="fill:#1f638a;stroke-linecap:round;stroke-linejoin:round;stroke-width:1.0658"/>
  <text x="285.45834" y="1011.7916" style="fill:#000000;font-family:'Arial Nova', 'Arial Unicode MS', 'Yu Gothic UI', sans-serif;font-size:12.8px;letter-spacing:0px;line-height:0%;stroke-width:1.0667;word-spacing:0px" xml:space="preserve"><tspan x="285.45834" y="1011.7916" style="fill:#ffffff;font-family:'Arial Nova', 'Arial Unicode MS', 'Yu Gothic UI', sans-serif;font-size:21.333px;stroke-width:1.0667;stroke:#ffffff">K</tspan></text>
  <g transform="translate(-6.8082 -187.5)">
   <path d="m232.23 1028.8 9.9675 6.2408-9.9675 6.2409z" style="fill:#1f638a;stroke-linecap:round;stroke-linejoin:round;stroke-width:.37795;stroke:#1f638a"/>
   <rect x="221.93" y="1032.2" width="11.439" height="5.7059" style="fill:#1f638a;stroke-linecap:round;stroke-linejoin:round;stroke-width:.37795;stroke:#1f638a"/>
  </g>
  <g transform="translate(.55348 -188.19)">
   <path d="m19.412 1051.2 91.075-52.411 90.109 52.948" style="color:#000000;fill:none;opacity:.75;stroke-dasharray:1.51181104, 1.51181104;stroke-linecap:round;stroke-linejoin:round;stroke-width:.75591;stroke:#5eab9d"/>
   <path d="m110.38 998.69v-39.738" style="color:#000000;fill:none;opacity:.75;stroke-dasharray:1.51181104, 1.51181104;stroke-linecap:round;stroke-linejoin:round;stroke-width:.75591;stroke:#5eab9d"/>
   <path d="m18.905 1009.9 91.088 51.841v41.934l-90.944-52.559z" style="fill:url(#linearGradient9326);stroke-linecap:round;stroke-linejoin:round;stroke-width:.94488;stroke:#67977f"/>
   <path d="m110.43 1061.9v41.939l90.668-52.305v-40.928z" style="fill:url(#linearGradient9326);stroke-linecap:round;stroke-linejoin:round;stroke-width:.94488;stroke:#67977f"/>
   <path d="m19.82 1010.1 90.406-51.39 89.756 51.699-89.467 51.529z" style="fill:url(#linearGradient9330);stroke-dashoffset:3.8976;stroke-linecap:round;stroke-linejoin:round;stroke-width:3.7795;stroke:#67977f"/>
   <path d="m147.52 1074.1 6.2254-5.147 6.9023 14.13 6.2932-3.0742-6.9023-14.13 7.4287-1.523-19.542-14.716z" style="fill:#fff;stroke-linecap:round;stroke-linejoin:round;stroke-width:.75591;stroke:#000"/>
   <path d="m199.06 1010.8c-58.096 29.422-130.43 26.459-180.15-0.4062" style="fill:none;stroke-linecap:round;stroke-linejoin:round;stroke-width:1.8898;stroke:#000"/>
   <text x="43.202442" y="1084.8719" style="fill:#000000;font-family:'Arial Nova', 'Arial Unicode MS', 'Yu Gothic UI', sans-serif;font-size:12.8px;letter-spacing:0px;line-height:0%;stroke-width:1.0667;stroke:#67977f;word-spacing:0px" xml:space="preserve"><tspan x="43.202442" y="1084.8719" style="font-family:'Arial Nova', 'Arial Unicode MS', 'Yu Gothic UI', sans-serif;stroke-width:1.0667;stroke:#67977f">1</tspan></text>
  </g>
  <path d="m251.82 861.41 91.075-52.411 90.109 52.948" style="color:#000000;fill:none;opacity:.75;stroke-dasharray:1.51181104, 1.51181104;stroke-linecap:round;stroke-linejoin:round;stroke-width:.75591;stroke:#5eab9d"/>
  <path d="m250.84 820.01 91.56 51.959v41.934l-91.416-52.677z" style="fill:url(#linearGradient8621);stroke-linecap:round;stroke-linejoin:round;stroke-width:.94488;stroke:#67977f"/>
  <path d="m342.84 872.11v41.939l90.753-52.48v-40.928z" style="fill:url(#linearGradient8621);stroke-linecap:round;stroke-linejoin:round;stroke-width:.94488;stroke:#67977f"/>
  <path d="m252.23 820.31 90.406-51.39 89.756 51.699-89.467 51.529z" style="fill:url(#linearGradient8618);stroke-dashoffset:3.8976;stroke-linecap:round;stroke-linejoin:round;stroke-width:3.7795;stroke:#67977f"/>
  <path d="m432.77 820.81c-58.096 29.422-130.43 26.459-180.15-0.4062" style="fill:none;stroke-linecap:round;stroke-linejoin:round;stroke-width:1.8898;stroke:#f00"/>
  <path d="m361.13 864.91 6.2253-5.147 6.9023 14.13 6.2932-3.0742-6.9023-14.13 7.4287-1.523-19.542-14.716z" style="fill:#fff;stroke-linecap:round;stroke-linejoin:round;stroke-width:.75591;stroke:#000"/>
  <text x="279.33945" y="896.68188" style="fill:#000000;font-family:'Arial Nova', 'Arial Unicode MS', 'Yu Gothic UI', sans-serif;font-size:12.8px;letter-spacing:0px;line-height:0%;stroke-width:1.0667;stroke:#67977f;word-spacing:0px" xml:space="preserve"><tspan x="279.33945" y="896.68188" style="font-family:'Arial Nova', 'Arial Unicode MS', 'Yu Gothic UI', sans-serif;stroke-width:1.0667;stroke:#67977f">1</tspan></text>
  <g transform="translate(225.05 -187.5)">
   <path d="m232.23 1028.8 9.9675 6.2408-9.9675 6.2409z" style="fill:#1f638a;stroke-linecap:round;stroke-linejoin:round;stroke-width:.37795;stroke:#1f638a"/>
   <rect x="221.93" y="1032.2" width="11.439" height="5.7059" style="fill:#1f638a;stroke-linecap:round;stroke-linejoin:round;stroke-width:.37795;stroke:#1f638a"/>
  </g>
  <g transform="translate(.55348 -188.19)">
   <path d="m480.9 1009.8 89.899-51.986 90.186 51.699c-58.989 32.374-129.98 25.498-180.08 0.2873z" style="fill:url(#linearGradient9318);stroke-linecap:round;stroke-linejoin:round;stroke-width:3.7795;stroke:#67977f"/>
   <path d="m479.61 1009.3 91.76 52.317v41.934l-91.616-53.035z" style="fill:url(#linearGradient9320);stroke-linecap:round;stroke-linejoin:round;stroke-width:.94488;stroke:#67977f"/>
   <path d="m571.32 1061.6v41.939l91.24-53.163v-40.928z" style="fill:url(#linearGradient9320);stroke-linecap:round;stroke-linejoin:round;stroke-width:.94488;stroke:#67977f"/>
   <path d="m480.76 1009.9c48.997 25.277 116.04 31.233 180.66 0.4308l-90.186 51.412z" style="fill:url(#linearGradient9324);stroke-linecap:round;stroke-linejoin:round;stroke-width:3.7795;stroke:#67977f"/>
   <text x="509.2196" y="1084.8719" style="fill:#000000;font-family:'Arial Nova', 'Arial Unicode MS', 'Yu Gothic UI', sans-serif;font-size:12.8px;letter-spacing:0px;line-height:0%;stroke-width:1.0667;stroke:#67977f;word-spacing:0px" xml:space="preserve"><tspan x="509.2196" y="1084.8719" style="font-family:'Arial Nova', 'Arial Unicode MS', 'Yu Gothic UI', sans-serif;stroke-width:1.0667;stroke:#67977f">1</tspan></text>
   <text x="566.0575" y="1052.0084" style="fill:#67977f;font-family:'Arial Nova', 'Arial Unicode MS', 'Yu Gothic UI', sans-serif;font-size:12.8px;letter-spacing:0px;line-height:0%;stroke-width:1.0667;stroke:#67977f;word-spacing:0px" xml:space="preserve"><tspan x="566.0575" y="1052.0084" style="fill:#67977f;font-family:'Arial Nova', 'Arial Unicode MS', 'Yu Gothic UI', sans-serif;font-size:17.067px;stroke-width:1.0667;stroke:#67977f">B</tspan></text>
   <text x="564.92017" y="1010.3728" style="fill:#67977f;font-family:'Arial Nova', 'Arial Unicode MS', 'Yu Gothic UI', sans-serif;font-size:12.8px;letter-spacing:0px;line-height:0%;stroke-width:1.0667;stroke:#67977f;word-spacing:0px" xml:space="preserve"><tspan x="564.92017" y="1010.3728" style="fill:#67977f;font-family:'Arial Nova', 'Arial Unicode MS', 'Yu Gothic UI', sans-serif;font-size:17.067px;stroke-width:1.0667;stroke:#67977f">A</tspan></text>
  </g>
 </g>
</svg>
