<?xml version="1.0" encoding="UTF-8"?>
<svg width="18cm" height="7cm" overflow="visible" version="1.0" viewBox="13.895 -105.37 680.31 264.57" xmlns="http://www.w3.org/2000/svg" xmlns:cc="http://creativecommons.org/ns#" xmlns:dc="http://purl.org/dc/elements/1.1/" xmlns:rdf="http://www.w3.org/1999/02/22-rdf-syntax-ns#" xmlns:xlink="http://www.w3.org/1999/xlink">
 <metadata>
  <rdf:RDF>
   <cc:Work rdf:about="">
    <dc:format>image/svg+xml</dc:format>
    <dc:type rdf:resource="http://purl.org/dc/dcmitype/StillImage"/>
   </cc:Work>
  </rdf:RDF>
 </metadata>
 <defs>
  <linearGradient id="linearGradient1333">
   <stop stop-color="#7d7d7d" offset="0"/>
   <stop stop-color="#ff7d7d" offset="1"/>
  </linearGradient>
  <linearGradient id="linearGradient3810">
   <stop stop-color="#ff8500" offset="0"/>
   <stop stop-color="#fff" stop-opacity="0" offset="1"/>
  </linearGradient>
  <linearGradient id="linearGradient4052">
   <stop stop-color="#ffd5d5" offset="0"/>
   <stop stop-color="#ffd5d5" stop-opacity="0" offset="1"/>
  </linearGradient>
  <linearGradient id="linearGradient4054-8-0-6" x1="573.13" x2="643.1" y1="324.22" y2="359.84" gradientTransform="translate(-459.01 -274.46)" gradientUnits="userSpaceOnUse" xlink:href="#linearGradient4052"/>
  <linearGradient id="linearGradient1210" x1="130.98" x2="246.62" y1="-48.083" y2="22.675" gradientUnits="userSpaceOnUse" xlink:href="#linearGradient4052"/>
  <linearGradient id="linearGradient1210-3" x1="130.98" x2="246.62" y1="-48.083" y2="22.675" gradientTransform="translate(328.03 -.029681)" gradientUnits="userSpaceOnUse" xlink:href="#linearGradient4052"/>
  <linearGradient id="linearGradient4054-8-0-6-5" x1="573.13" x2="643.1" y1="324.22" y2="359.84" gradientTransform="translate(-130.97 -274.49)" gradientUnits="userSpaceOnUse" xlink:href="#linearGradient4052"/>
  <linearGradient id="linearGradient1298" x1="750.16" x2="439.75" y1="717.84" y2="626.41" gradientTransform="translate(.17639 -631.81)" gradientUnits="userSpaceOnUse">
   <stop stop-color="#ff8500" offset="0"/>
   <stop stop-color="#fff" stop-opacity="0" offset="1"/>
  </linearGradient>
  <linearGradient id="linearGradient1335" x1="564.86" x2="531.74" y1="-14.527" y2="-24.499" gradientUnits="userSpaceOnUse" xlink:href="#linearGradient1333"/>
  <linearGradient id="linearGradient1369" x1="483.14" x2="476.69" y1="66.62" y2="63.934" gradientUnits="userSpaceOnUse" xlink:href="#linearGradient1333"/>
  <linearGradient id="linearGradient1399" x1="160" x2="147.17" y1="68.971" y2="62.927" gradientUnits="userSpaceOnUse" xlink:href="#linearGradient1333"/>
  <linearGradient id="linearGradient1407" x1="219.33" x2="207.96" y1="-28.498" y2="-32.863" gradientUnits="userSpaceOnUse" xlink:href="#linearGradient1333"/>
  <linearGradient id="linearGradient957" x1="750.16" x2="439.75" y1="717.84" y2="626.41" gradientTransform="translate(.17639 -631.81)" gradientUnits="userSpaceOnUse" xlink:href="#linearGradient3810"/>
  <linearGradient id="linearGradient975" x1="750.16" x2="439.75" y1="717.84" y2="626.41" gradientTransform="translate(-327.83,-631.81)" gradientUnits="userSpaceOnUse" xlink:href="#linearGradient3810"/>
 </defs>
 <g fill="none" stroke-linecap="round" stroke-linejoin="round">
  <path d="m357.84 49.122c26.597-36.685 53.193-73.37 79.79-110.05" color="#260000" stroke="#000" stroke-dasharray="7.55908, 3.77954, 1.88977, 3.77954" stroke-width="1.8898"/>
  <g stroke="#f00" stroke-width="3.7795">
   <path d="m527.24-54.76c21.72 9.3701 43.44 18.74 65.16 28.11" color="#ff0000"/>
   <path d="m592.4-26.65c-25.823 35.617-51.645 71.235-77.468 106.85" color="#ff0000"/>
   <path d="m514.94 80.2c-21.72-9.3701-43.44-18.74-65.16-28.11" color="#ff0000"/>
   <path d="m449.77 52.1c25.823-35.617 51.645-71.235 77.468-106.85" color="#ff0000"/>
  </g>
 </g>
 <rect x="404.42" y="-86.851" width="11.518" height="11.518" color="#000000" fill="#f3f3f3" stroke="#000" stroke-linecap="round" stroke-linejoin="round" stroke-width="1.3429"/>
 <path d="m413.05-84.961-3.9881 5.5045-1.3437-1.5669c-0.19654-0.29442-0.64297-0.38385-0.93751-0.18746-0.29442 0.19616-0.38385 0.64297-0.18746 0.93747l1.9687 2.875c0.2468 0.39356 0.931 0.3753 1.1562-0.03024l4.3302-6.8277c0.25889-0.39046-0.74233-1.0225-0.9984-0.70363z" color="#000000" stroke="#000" stroke-linecap="round" stroke-linejoin="round" stroke-width=".63424" style="text-decoration-line:none;text-indent:0;text-transform:none"/>
 <path d="m449.73 36.78c4.3628-7.7454 77.468-106.85 77.468-106.85l32.476 7.0083 19.367-26.713 77.879 17.067-19.303 26.466-32.476-7.0083-77.468 106.85z" fill="url(#linearGradient1298)" fill-rule="evenodd" stroke="url(#linearGradient1335)" stroke-width="1.8898"/>
 <path d="m637.61-46.24-32.476-7.0083c3.4821 20.379 0.59715 44.346-10.026 62.404l31.648 18.065c11.925-21.605 14.948-49.431 10.854-73.46z" color="#260000" fill="url(#linearGradient957)" stroke="#7d7d7d" stroke-linecap="round" stroke-linejoin="round" stroke-width="1.8898"/>
 <path d="m527.67 53.6c25.823-35.617 51.645-71.235 77.468-106.85 4.3804 24.303-4e-3 51.129-16.387 70.241l-70.41 96.928c10.345-18.214 13.16-39.835 9.329-60.318z" color="#260000" fill="url(#linearGradient957)" stroke="#7d7d7d" stroke-linecap="round" stroke-linejoin="round" stroke-width="1.8898"/>
 <path d="m626.34 27.32c12.93-21.984 15.514-48.751 11.269-73.56l19.303-26.466c4.4902 28.24-0.0283 61.391-18.77 83.75-3.9341 5.4255-7.8682 10.851-11.802 16.276z" color="#260000" fill="url(#linearGradient957)" stroke="#7d7d7d" stroke-linecap="round" stroke-linejoin="round" stroke-width="1.8898"/>
 <path d="m518.34 113.92c-6.1389-4.0593-66.902-44.179-73.041-48.239 5.0907-8.6586 6.0854-19.133 4.427-28.899l77.943 16.82c3.831 20.483 1.016 42.104-9.329 60.318z" color="#260000" fill="url(#linearGradient957)" stroke="url(#linearGradient1369)" stroke-linecap="round" stroke-linejoin="round" stroke-width="1.8898"/>
 <g fill="none" stroke-linecap="round" stroke-linejoin="round">
  <path d="m29.837 49.122c26.597-36.685 53.193-73.37 79.79-110.05" color="#260000" stroke="#000" stroke-dasharray="7.55908, 3.77954, 1.88977, 3.77954" stroke-width="1.8898"/>
  <g stroke="#f00" stroke-width="3.7795">
   <path d="m199.24-54.76c21.72 9.3701 43.44 18.74 65.16 28.11" color="#ff0000"/>
   <path d="m264.4-26.65c-25.823 35.617-51.645 71.235-77.468 106.85" color="#ff0000"/>
   <path d="m186.94 80.2c-21.72-9.3701-43.44-18.74-65.16-28.11" color="#ff0000"/>
   <path d="m121.77 52.1c25.823-35.617 51.645-71.235 77.468-106.85" color="#ff0000"/>
  </g>
 </g>
 <rect x="76.414" y="-86.851" width="11.518" height="11.518" color="#000000" fill="#f3f3f3" stroke="#000" stroke-linecap="round" stroke-linejoin="round" stroke-width="1.3429"/>
 <path d="m121.72 36.78c4.3628-7.7454 77.468-106.85 77.468-106.85l32.476 7.0083 19.367-26.713 77.879 17.067-19.303 26.466-32.476-7.0083-77.468 106.85z" fill="url(#linearGradient975)" fill-rule="evenodd" stroke="url(#linearGradient1407)" stroke-width="1.8898"/>
 <path d="m309.6-46.24-32.476-7.0083c3.4821 20.379 0.59715 44.346-10.026 62.404l31.648 18.065c11.925-21.605 14.948-49.431 10.854-73.46z" color="#260000" fill="url(#linearGradient975)" stroke="#7d7d7d" stroke-linecap="round" stroke-linejoin="round" stroke-width="1.8898"/>
 <path d="m199.66 53.6c25.823-35.617 51.645-71.235 77.468-106.85 4.3804 24.303-4e-3 51.129-16.387 70.241l-70.41 96.928c10.345-18.214 13.16-39.835 9.329-60.318z" color="#260000" fill="url(#linearGradient975)" stroke="#7d7d7d" stroke-linecap="round" stroke-linejoin="round" stroke-width="1.8898"/>
 <path d="m298.33 27.32c12.93-21.984 15.514-48.751 11.269-73.56l19.303-26.466c4.4902 28.24-0.0283 61.391-18.77 83.75-3.9341 5.4255-7.8682 10.851-11.802 16.276z" color="#260000" fill="url(#linearGradient975)" stroke="#7d7d7d" stroke-linecap="round" stroke-linejoin="round" stroke-width="1.8898"/>
 <path d="m190.33 113.92c-6.1389-4.0593-66.902-44.179-73.041-48.239 5.0907-8.6586 6.0854-19.133 4.427-28.899l77.943 16.82c3.831 20.483 1.016 42.104-9.329 60.318z" color="#260000" fill="url(#linearGradient975)" stroke="url(#linearGradient1399)" stroke-linecap="round" stroke-linejoin="round" stroke-width="1.8898"/>
 <path d="m264.84 111.43-2.0349-13.094 8.6394 1.4614z" stroke="#000" stroke-linecap="round" stroke-linejoin="round" stroke-width="1.0658"/>
 <path d="m265.83 67.385-3.424 12.801 8.7461-0.52897z" stroke="#000" stroke-linecap="round" stroke-linejoin="round" stroke-width="1.0658"/>
 <path d="m231.04-62.201-31.475-6.7777-76.362 105.08 31.537 6.8322z" color="#260000" fill="url(#linearGradient1210)" stroke="#f00" stroke-dasharray="2.26772, 2.26772" stroke-width=".75591"/>
 <path d="m154.19 44.798-31.637-6.8824c1.6206 10.97 0.35477 19.145-4.0492 27.514l29.54 19.514c5.2527-16.099 7.9089-26.461 6.1462-40.146z" color="#260000" fill="url(#linearGradient4054-8-0-6)" stroke="#f00" stroke-dasharray="2.26772, 2.26772" stroke-width=".75591"/>
 <g stroke="#000">
  <path d="m589.72 71.003c4.2187 27.663 2.275 52.92-11.817 73.437" fill="none" stroke-linecap="round" stroke-linejoin="round" stroke-width=".9449" style="paint-order:markers fill stroke"/>
  <path d="m378.6 23.031 200.72 130.23" fill="none" stroke-width="1px"/>
  <g stroke-linecap="round" stroke-linejoin="round">
   <path d="m575.49 149.52 2.2351-13.061 7.726 4.1332z" stroke-width="1.0658"/>
   <path d="m588.98 66.962-2.8004 12.952 8.7103-0.95167z" stroke-width="1.0658"/>
   <path d="m257.96 112.58c-1.5593 11.82-5.1357 22.704-10.753 32.533" fill="none" stroke-width=".9449" style="paint-order:markers fill stroke"/>
  </g>
  <path d="m268.87 114.14-219.78-92.454 200.72 130.23" fill="none" stroke-width="1px"/>
  <path d="m246.02 148.18 1.5728-13.158 7.9248 3.7379z" stroke-linecap="round" stroke-linejoin="round" stroke-width="1.0658"/>
  <path d="m258.55 110.85-6.6461 11.464 8.5811 1.7718z" stroke-linecap="round" stroke-linejoin="round" stroke-width="1.0658"/>
 </g>
 <path d="m559.08-62.231-31.475-6.7777-76.362 105.08 31.537 6.8322z" color="#260000" fill="url(#linearGradient1210-3)" stroke="#f00" stroke-dasharray="2.26772, 2.26772" stroke-width=".75591"/>
 <path d="m482.23 44.768-31.637-6.8824c1.6206 10.97 0.35477 19.145-4.0492 27.514l29.54 19.514c5.2527-16.099 7.9089-26.461 6.1462-40.146z" color="#260000" fill="url(#linearGradient4054-8-0-6-5)" stroke="#f00" stroke-dasharray="2.26772, 2.26772" stroke-width=".75591"/>
 <g fill="none" stroke="#000">
  <path d="m596.9 67.861-218.35-44.898" stroke-width="1px"/>
  <path d="m265.9 72.535c2.2544 11.263 1.7713 21.918 1.24 32.563" stroke-linecap="round" stroke-linejoin="round" stroke-width=".9449" style="paint-order:markers fill stroke"/>
  <path d="m271.57 68.04-222.48-46.48" stroke-width="1px"/>
 </g>
</svg>
