<?xml version="1.0" encoding="UTF-8"?>
<svg width="18cm" height="8.5cm" version="1.1" xmlns="http://www.w3.org/2000/svg" xmlns:osb="http://www.openswatchbook.org/uri/2009/osb" xmlns:xlink="http://www.w3.org/1999/xlink">
 <defs>
  <linearGradient id="linearGradient7747-2">
   <stop style="stop-color:#fff" offset="0"/>
   <stop style="stop-color:#808080" offset="1"/>
  </linearGradient>
  <linearGradient id="linearGradient9288" x1="561.32" x2="645.26" y1="55.356" y2="344.19" gradientTransform="matrix(.73398 0 0 .73398 -181.71 15.686)" gradientUnits="userSpaceOnUse">
   <stop style="stop-color:#ff8500" offset="0"/>
   <stop style="stop-color:#fff" offset="1"/>
  </linearGradient>
  <linearGradient id="linearGradient9292" x1="561.32" x2="645.26" y1="55.356" y2="344.19" gradientTransform="matrix(.36687 0 0 .36687 -140.12 301.49)" gradientUnits="userSpaceOnUse" xlink:href="#linearGradient7747-2"/>
  <linearGradient id="linearGradient9294" x1="561.32" x2="645.26" y1="55.356" y2="344.19" gradientTransform="matrix(.36687 0 0 .36687 -23.527 301.24)" gradientUnits="userSpaceOnUse" xlink:href="#linearGradient7747-2"/>
  <linearGradient id="linearGradient9296" x1="561.32" x2="645.26" y1="55.356" y2="344.19" gradientTransform="matrix(.36687 0 0 .36687 79.499 301.58)" gradientUnits="userSpaceOnUse" xlink:href="#linearGradient7747-2"/>
  <linearGradient id="linearGradient9298" x1="561.32" x2="645.26" y1="55.356" y2="344.19" gradientTransform="matrix(.36687 0 0 .36687 173.84 301.58)" gradientUnits="userSpaceOnUse" xlink:href="#linearGradient7747-2"/>
  <linearGradient id="linearGradient32402" x1="561.32" x2="645.26" y1="55.356" y2="344.19" gradientTransform="matrix(.73398 0 0 .73398 -120.91 85.501)" gradientUnits="userSpaceOnUse">
   <stop style="stop-color:#fff" offset="0"/>
   <stop style="stop-color:#808080" offset="1"/>
  </linearGradient>
  <linearGradient id="linearGradient32443" x1="220.81" x2="304.27" y1="96.933" y2="382.54" gradientTransform="matrix(.84968 0 0 .84968 -96.149 29.893)" gradientUnits="userSpaceOnUse">
   <stop style="stop-color:#fff" offset="0"/>
   <stop style="stop-color:#ebedee" offset="1"/>
  </linearGradient>
 </defs>
 <g transform="translate(0 -132.28)">
  <g transform="translate(0,68)">
   <g transform="translate(-804.37 41.018)">
    <ellipse cx="988.73" cy="286.32" rx="13.199" ry="13.469" style="fill:#1f638a;stroke-linecap:round;stroke-linejoin:round;stroke-width:1.0658"/>
    <text x="982.88611" y="293.98578" style="fill:#000000;font-family:'Arial Nova', 'Arial Unicode MS', 'Yu Gothic UI', sans-serif;font-size:12.8px;letter-spacing:0px;line-height:0%;stroke-width:1.0667;word-spacing:0px" xml:space="preserve"><tspan x="982.88611" y="293.98578" style="fill:#ffffff;font-family:'Arial Nova', 'Arial Unicode MS', 'Yu Gothic UI', sans-serif;font-size:21.333px;font-weight:bold;stroke-width:1.0667">1</tspan></text>
   </g>
   <g transform="translate(-932.01 -184.11)">
    <ellipse cx="988.73" cy="286.32" rx="13.199" ry="13.469" style="fill:#1f638a;stroke-linecap:round;stroke-linejoin:round;stroke-width:1.0658"/>
    <text x="982.88611" y="293.98578" style="fill:#000000;font-family:'Arial Nova', 'Arial Unicode MS', 'Yu Gothic UI', sans-serif;font-size:12.8px;letter-spacing:0px;line-height:0%;stroke-width:1.0667;word-spacing:0px" xml:space="preserve"><tspan x="982.88611" y="293.98578" style="fill:#ffffff;font-family:'Arial Nova', 'Arial Unicode MS', 'Yu Gothic UI', sans-serif;font-size:21.333px;font-weight:bold;stroke-width:1.0667">2</tspan></text>
   </g>
   <path d="m37.782 355.16h124.83c0.43713-79.461 8.4873-159.82 52.799-244.44h-124.5c-41.762 79.944-51.907 161.91-53.125 244.44z" style="fill:url(#linearGradient32443);stroke-dasharray:7.55905511, 7.55905511;stroke-linecap:round;stroke-linejoin:round;stroke-width:1.8898;stroke:#b6b6b6"/>
   <path d="m153.16 110.39c-35.427 70.352-55.577 150.43-52.799 245.09" style="fill:none;stroke-dasharray:2.26771653, 2.26771653;stroke-linecap:round;stroke-linejoin:round;stroke-width:.75591;stroke:#b6b6b6"/>
   <path d="m49.841 225.77h124.5" style="fill:none;stroke-dasharray:2.26771653, 2.26771653;stroke-linecap:round;stroke-linejoin:round;stroke-width:.75591;stroke:#b6b6b6"/>
   <g transform="translate(-137.6 69.815)">
    <path d="m229.43 55.806h61.8c-50.542 80.231-22.662 141.28 5.4361 135.93-4.1145 16.743-4.7499 51.08-4.8639 76.621h-17.453c0.81637-38.7 5.9164-86.651-10.3-87.12-19.299-0.3175-22.606 36.226-24.892 55.621h-12.017c1.0459-28.432 0.18575-55.098-11.087-55.124-1.216-0.0591-7.0097-0.58538-9.7993 3.1925l-6.2945-53.351c6.8185-26.108 17.329-51.169 29.47-75.769z" style="fill:url(#linearGradient9288);stroke-linecap:round;stroke-linejoin:round;stroke-width:1.8898;stroke:#7d7d7d"/>
    <path d="m283.12 56.532c-26.681 52.983-43.33 112.35-45.57 180.88" style="fill:none;stroke-linecap:round;stroke-linejoin:round;stroke-width:.75591;stroke:#7d7d7d"/>
    <path d="m202.68 156.2h62.042" style="fill:none;stroke-linecap:round;stroke-linejoin:round;stroke-width:.75591;stroke:#7d7d7d"/>
   </g>
   <g transform="matrix(.68811 0 0 .68811 -41.945 73.775)" style="fill:#b3b3b3;stroke:#b3b3b3">
    <path d="m217.07 201.83 21.456 2.4988-3.507 9.5192c-9.3634-5.3644-17.949-12.018-17.949-12.018z" style="fill:#b3b3b3;stroke-linecap:round;stroke-linejoin:round;stroke-width:2.7463;stroke:#b3b3b3"/>
    <path d="m230.91 206.99c45.476 16.754 33.195 12.066 33.195 12.066" style="fill:#b3b3b3;stroke-linecap:round;stroke-linejoin:round;stroke-width:2.7463;stroke:#b3b3b3"/>
   </g>
   <g transform="matrix(.66851 .16307 -.16307 .66851 32.835 -65.868)" style="fill:#b3b3b3;stroke:#b3b3b3">
    <path d="m217.07 201.83 21.456 2.4988-3.507 9.5192c-9.3634-5.3644-17.949-12.018-17.949-12.018z" style="fill:#b3b3b3;stroke-linecap:round;stroke-linejoin:round;stroke-width:2.7463;stroke:#b3b3b3"/>
    <path d="m230.91 206.99c45.476 16.754 33.195 12.066 33.195 12.066" style="fill:#b3b3b3;stroke-linecap:round;stroke-linejoin:round;stroke-width:2.7463;stroke:#b3b3b3"/>
   </g>
   <g transform="matrix(.68617 .051687 -.051687 .68617 -15.789 8.5793)" style="fill:#b3b3b3;stroke:#b3b3b3">
    <path d="m217.07 201.83 21.456 2.4988-3.507 9.5192c-9.3634-5.3644-17.949-12.018-17.949-12.018z" style="fill:#b3b3b3;stroke-linecap:round;stroke-linejoin:round;stroke-width:2.7463;stroke:#b3b3b3"/>
    <path d="m230.91 206.99c45.476 16.754 33.195 12.066 33.195 12.066" style="fill:#b3b3b3;stroke-linecap:round;stroke-linejoin:round;stroke-width:2.7463;stroke:#b3b3b3"/>
   </g>
   <g transform="matrix(.6776 -.1198 .1198 .6776 -74.903 162.17)" style="fill:#b3b3b3;stroke:#b3b3b3">
    <path d="m217.07 201.83 21.456 2.4988-3.507 9.5192c-9.3634-5.3644-17.949-12.018-17.949-12.018z" style="fill:#b3b3b3;stroke-linecap:round;stroke-linejoin:round;stroke-width:2.7463;stroke:#b3b3b3"/>
    <path d="m230.91 206.99c45.476 16.754 33.195 12.066 33.195 12.066" style="fill:#b3b3b3;stroke-linecap:round;stroke-linejoin:round;stroke-width:2.7463;stroke:#b3b3b3"/>
   </g>
   <g transform="matrix(.64902 -.22863 .22863 .64902 -93.247 253.77)" style="fill:#b3b3b3;stroke:#b3b3b3">
    <path d="m217.07 201.83 21.456 2.4988-3.507 9.5192c-9.3634-5.3644-17.949-12.018-17.949-12.018z" style="fill:#b3b3b3;stroke-linecap:round;stroke-linejoin:round;stroke-width:2.7463;stroke:#b3b3b3"/>
    <path d="m230.91 206.99c45.476 16.754 33.195 12.066 33.195 12.066" style="fill:#b3b3b3;stroke-linecap:round;stroke-linejoin:round;stroke-width:2.7463;stroke:#b3b3b3"/>
   </g>
   <path d="m182.26 110.68c-35.427 70.352-55.577 150.43-52.799 245.09" style="fill:none;stroke-dasharray:2.26771653, 2.26771653;stroke-linecap:round;stroke-linejoin:round;stroke-width:.75591;stroke:#f00"/>
   <path d="m73.749 148.96h124.5" style="fill:#808080;stroke-dasharray:2.26771653, 2.26771653;stroke-linecap:round;stroke-linejoin:round;stroke-width:.75591;stroke:#000"/>
   <text x="218.51262" y="113.82801" style="fill:#000000;font-family:'Arial Nova', 'Arial Unicode MS', 'Yu Gothic UI', sans-serif;font-size:12.8px;letter-spacing:0px;line-height:0%;stroke-width:1.0667;word-spacing:0px" xml:space="preserve"><tspan x="218.51262" y="113.82801" style="fill:#999999;font-family:'Arial Nova', 'Arial Unicode MS', 'Yu Gothic UI', sans-serif;stroke-width:1.0667">1,1</tspan></text>
   <path d="m164.82 149-76.085-56.097" style="fill:none;stroke-dasharray:2.13333321, 2.13333321;stroke-linecap:round;stroke-linejoin:round;stroke-width:1.0667;stroke:#f00"/>
   <ellipse transform="matrix(.97244 .23314 -.4752 .87988 0 0)" cx="122.98" cy="71.287" rx="3.34" ry="4.7311" style="fill:#f00;stroke-linecap:round;stroke-linejoin:round;stroke-width:3.8489;stroke:#f00"/>
   <text x="29.692871" y="366.48236" style="fill:#000000;font-family:'Arial Nova', 'Arial Unicode MS', 'Yu Gothic UI', sans-serif;font-size:12.8px;letter-spacing:0px;line-height:0%;stroke-width:1.0667;word-spacing:0px" xml:space="preserve"><tspan x="29.692871" y="366.48236" style="fill:#999999;font-family:'Arial Nova', 'Arial Unicode MS', 'Yu Gothic UI', sans-serif;stroke-width:1.0667">0,0</tspan></text>
   <text x="154.85889" y="366.76474" style="fill:#000000;font-family:'Arial Nova', 'Arial Unicode MS', 'Yu Gothic UI', sans-serif;font-size:12.8px;letter-spacing:0px;line-height:0%;stroke-width:1.0667;word-spacing:0px" xml:space="preserve"><tspan x="154.85889" y="366.76474" style="fill:#999999;font-family:'Arial Nova', 'Arial Unicode MS', 'Yu Gothic UI', sans-serif;stroke-width:1.0667">1,0</tspan></text>
   <text x="73.216393" y="111.06148" style="fill:#000000;font-family:'Arial Nova', 'Arial Unicode MS', 'Yu Gothic UI', sans-serif;font-size:12.8px;letter-spacing:0px;line-height:0%;stroke-width:1.0667;word-spacing:0px" xml:space="preserve"><tspan x="73.216393" y="111.06148" style="fill:#999999;font-family:'Arial Nova', 'Arial Unicode MS', 'Yu Gothic UI', sans-serif;stroke-width:1.0667">0,1</tspan></text>
   <text x="180.14488" y="105.78759" style="fill:#000000;font-family:'Arial Nova', 'Arial Unicode MS', 'Yu Gothic UI', sans-serif;font-size:12.8px;letter-spacing:0px;line-height:0%;stroke-width:1.0667;word-spacing:0px" xml:space="preserve"><tspan x="180.14488" y="105.78759" style="fill:#ff0000;font-family:'Arial Nova', 'Arial Unicode MS', 'Yu Gothic UI', sans-serif;stroke-width:1.0667;stroke:#ff0000">U</tspan></text>
   <text x="204.06117" y="153.2254" style="fill:#808080;font-family:'Arial Nova', 'Arial Unicode MS', 'Yu Gothic UI', sans-serif;font-size:12.8px;letter-spacing:0px;line-height:0%;stroke-width:1.0667;stroke:#000000;word-spacing:0px" xml:space="preserve"><tspan x="204.06117" y="153.2254" style="fill:#808080;font-family:'Arial Nova', 'Arial Unicode MS', 'Yu Gothic UI', sans-serif;stroke-width:1.0667;stroke:#000000">V</tspan></text>
   <path d="m164.47 148.74-12.755-3.594 4.9213-7.2493z" style="fill:#fff;stroke-dasharray:2.1316536, 2.1316536;stroke-linecap:round;stroke-linejoin:round;stroke-width:1.0658;stroke:#f00"/>
   <path d="m290.23 125.62h61.8c-50.542 80.231-22.662 141.28 5.4361 135.93-4.1145 16.743-4.7499 51.08-4.8639 76.621h-17.453c0.81637-38.7 5.9164-86.651-10.3-87.12-19.299-0.3175-22.606 36.226-24.892 55.621h-12.017c1.0459-28.432 0.18575-55.098-11.087-55.124-1.216-0.0591-7.0097-0.58538-9.7993 3.1925l-6.2945-53.351c6.8185-26.108 17.329-51.169 29.47-75.769z" style="fill:url(#linearGradient32402);stroke-linecap:round;stroke-linejoin:round;stroke-width:1.8898;stroke:#7d7d7d"/>
   <path d="m343.92 126.35c-26.681 52.983-43.33 112.35-45.57 180.88" style="fill:none;stroke-linecap:round;stroke-linejoin:round;stroke-width:.75591;stroke:#7d7d7d"/>
   <path d="m263.48 226.01h62.042" style="fill:none;stroke-linecap:round;stroke-linejoin:round;stroke-width:.75591;stroke:#7d7d7d"/>
   <path d="m380.4 108.78a1.89 1.89 0 0 0-1.4333 1.0333c-35.557 70.609-55.787 151.04-53 246a1.89 1.89 0 1 0 3.7667-0.0999c-2.7695-94.366 17.302-174.11 52.6-244.2a1.89 1.89 0 0 0-1.9333-2.7334z" style="color:#000000;fill:#fff;stroke-linecap:round;stroke-linejoin:round;stroke-width:.75591;stroke:#000;text-decoration-line:none;text-indent:0;text-transform:none"/>
   <g transform="translate(406.4 -208.05)">
    <g transform="translate(52.544 55.855)">
     <g transform="translate(375.2 286.31)">
      <ellipse cx="-291.36" cy="29.373" rx="13.199" ry="13.469" style="fill:#1f638a;stroke-linecap:round;stroke-linejoin:round;stroke-width:1.0658"/>
      <text x="-298.78693" y="37.00808" style="fill:#000000;font-family:'Arial Nova', 'Arial Unicode MS', 'Yu Gothic UI', sans-serif;font-size:12.8px;letter-spacing:0px;line-height:0%;stroke-width:1.0667;word-spacing:0px" xml:space="preserve"><tspan x="-298.78693" y="37.00808" style="fill:#ffffff;font-family:'Arial Nova', 'Arial Unicode MS', 'Yu Gothic UI', sans-serif;font-size:21.333px;font-weight:bold;stroke-width:1.0667">A</tspan></text>
     </g>
    </g>
    <path d="m65.381 321.54h30.89c-25.263 40.102-11.327 70.617 2.7172 67.943-2.0566 8.3688-2.3742 25.532-2.4312 38.298h-8.7236c0.40805-19.344 2.9572-43.312-5.1483-43.546-9.6463-0.1587-11.299 18.107-12.442 27.801h-6.0064c0.52277-14.212 0.09284-27.54-5.5416-27.553-0.60779-0.0295-3.5037-0.29259-4.8981 1.5958l-3.1462-26.667c3.4081-13.05 8.6618-25.576 14.73-37.872z" style="fill:url(#linearGradient9292);stroke-linecap:round;stroke-linejoin:round;stroke-width:.94457;stroke:#7d7d7d"/>
    <path d="m92.221 321.9c-13.336 26.483-21.658 56.156-22.778 90.413" style="fill:none;stroke-linecap:round;stroke-linejoin:round;stroke-width:.37783;stroke:#7d7d7d"/>
    <path d="m52.013 371.72h31.011" style="fill:none;stroke-linecap:round;stroke-linejoin:round;stroke-width:.37783;stroke:#7d7d7d"/>
    <path d="m64.928 314.05h62.23" style="fill:#808080;stroke-linecap:round;stroke-linejoin:round;stroke-width:1.8891;stroke:#000"/>
    <path d="m56.823 331.5h62.23" style="fill:#808080;stroke-linecap:round;stroke-linejoin:round;stroke-width:1.8891;stroke:#000"/>
    <path d="m50.414 348.95h62.23" style="fill:#808080;stroke-linecap:round;stroke-linejoin:round;stroke-width:1.8891;stroke:#000"/>
    <path d="m45.513 366.4h62.23" style="fill:#808080;stroke-linecap:round;stroke-linejoin:round;stroke-width:1.8891;stroke:#000"/>
    <path d="m42.12 383.85h62.23" style="fill:#808080;stroke-linecap:round;stroke-linejoin:round;stroke-width:1.8891;stroke:#000"/>
    <path d="m39.858 401.3h62.23" style="fill:#808080;stroke-linecap:round;stroke-linejoin:round;stroke-width:1.8891;stroke:#000"/>
    <path d="m38.35 418.74h62.23" style="fill:#808080;stroke-linecap:round;stroke-linejoin:round;stroke-width:1.8891;stroke:#000"/>
    <path d="m38.915 436.19h62.23" style="fill:#808080;stroke-linecap:round;stroke-linejoin:round;stroke-width:1.8891;stroke:#000"/>
    <path d="m181.98 321.29h30.89c-25.263 40.102-11.327 70.617 2.7172 67.943-2.0566 8.3688-2.3742 25.532-2.4312 38.298h-8.7236c0.40805-19.344 2.9572-43.312-5.1483-43.546-9.6463-0.15868-11.299 18.107-12.442 27.801h-6.0064c0.52276-14.212 0.0928-27.54-5.5416-27.553-0.60778-0.0296-3.5037-0.2926-4.8981 1.5957l-3.1462-26.667c3.4081-13.05 8.6618-25.576 14.73-37.872z" style="fill:url(#linearGradient9294);stroke-linecap:round;stroke-linejoin:round;stroke-width:.94457;stroke:#7d7d7d"/>
    <path d="m208.82 321.65c-13.336 26.483-21.658 56.156-22.778 90.413" style="fill:none;stroke-linecap:round;stroke-linejoin:round;stroke-width:.37783;stroke:#7d7d7d"/>
    <path d="m168.61 371.47h31.011" style="fill:none;stroke-linecap:round;stroke-linejoin:round;stroke-width:.37783;stroke:#7d7d7d"/>
    <g transform="matrix(.49984 0 0 .49984 -197.92 293.32)">
     <path d="m821.31 40.613c-35.427 70.352-55.577 150.43-52.799 245.09" style="fill:none;stroke-linecap:round;stroke-linejoin:round;stroke-width:3.7795;stroke:#000"/>
     <path d="m852.33 40.613c-35.427 70.352-55.577 150.43-52.799 245.09" style="fill:none;stroke-linecap:round;stroke-linejoin:round;stroke-width:3.7795;stroke:#000"/>
     <path d="m790.3 40.613c-35.427 70.352-55.577 150.43-52.799 245.09" style="fill:none;stroke-linecap:round;stroke-linejoin:round;stroke-width:3.7795;stroke:#000"/>
     <path d="m883.35 40.613c-35.427 70.352-55.577 150.43-52.799 245.09" style="fill:none;stroke-linecap:round;stroke-linejoin:round;stroke-width:3.7795;stroke:#000"/>
     <path d="m759.28 40.613c-35.427 70.352-55.577 150.43-52.799 245.09" style="fill:none;stroke-linecap:round;stroke-linejoin:round;stroke-width:3.7795;stroke:#000"/>
    </g>
   </g>
   <g transform="translate(203.37 -71.518)">
    <g transform="translate(110.45 -15.05)">
     <g transform="translate(519.48 357.21)">
      <ellipse cx="-291.36" cy="29.373" rx="13.199" ry="13.469" style="fill:#1f638a;stroke-linecap:round;stroke-linejoin:round;stroke-width:1.0658"/>
      <text x="-298.78693" y="37.00808" style="fill:#000000;font-family:'Arial Nova', 'Arial Unicode MS', 'Yu Gothic UI', sans-serif;font-size:12.8px;letter-spacing:0px;line-height:0%;stroke-width:1.0667;word-spacing:0px" xml:space="preserve"><tspan x="-298.78693" y="37.00808" style="fill:#ffffff;font-family:'Arial Nova', 'Arial Unicode MS', 'Yu Gothic UI', sans-serif;font-size:21.333px;font-weight:bold;stroke-width:1.0667">B</tspan></text>
     </g>
    </g>
    <path d="m285 321.64h30.89c-25.263 40.102-11.327 70.617 2.7172 67.943-2.0566 8.3688-2.3742 25.532-2.4312 38.298h-8.7236c0.40805-19.344 2.9572-43.312-5.1483-43.546-9.6463-0.1587-11.299 18.107-12.442 27.801h-6.0064c0.52276-14.212 0.0928-27.54-5.5416-27.553-0.60779-0.0295-3.5037-0.2926-4.8981 1.5957l-3.1462-26.667c3.4081-13.05 8.6618-25.576 14.73-37.872z" style="fill:url(#linearGradient9296);stroke-linecap:round;stroke-linejoin:round;stroke-width:.94457;stroke:#7d7d7d"/>
    <path d="m311.84 322c-13.336 26.483-21.658 56.156-22.778 90.413" style="fill:none;stroke-linecap:round;stroke-linejoin:round;stroke-width:.37783;stroke:#7d7d7d"/>
    <path d="m271.63 371.82h31.011" style="fill:none;stroke-linecap:round;stroke-linejoin:round;stroke-width:.37783;stroke:#7d7d7d"/>
    <path d="m311.99 321.5c-12.519 27.031-20.545 56.92-22.443 90.71" style="fill:none;stroke-linecap:round;stroke-linejoin:round;stroke-width:1.8891;stroke:#000"/>
    <path d="m308 385.07c-0.3038 1.8673-0.58793 3.7471-0.85205 5.6396" style="fill:none;stroke-linecap:round;stroke-linejoin:round;stroke-width:1.8891;stroke:#000"/>
    <path d="m296.32 321.86c-8.9403 19.386-15.571 40.241-19.29 62.949" style="fill:none;stroke-linecap:round;stroke-linejoin:round;stroke-width:1.8891;stroke:#000"/>
    <path d="m379.34 321.64h30.89c-25.263 40.102-11.327 70.617 2.7172 67.943-2.0566 8.3688-2.3742 25.532-2.4312 38.298h-8.7236c0.40806-19.344 2.9572-43.312-5.1483-43.546-9.6463-0.1587-11.299 18.107-12.442 27.801h-6.0064c0.52276-14.212 0.0928-27.54-5.5416-27.553-0.6078-0.0295-3.5037-0.2926-4.8981 1.5957l-3.1462-26.667c3.4081-13.05 8.6618-25.576 14.73-37.872z" style="fill:url(#linearGradient9298);stroke-linecap:round;stroke-linejoin:round;stroke-width:.94457;stroke:#7d7d7d"/>
    <path d="m406.18 322c-13.336 26.483-21.658 56.156-22.778 90.413" style="fill:none;stroke-linecap:round;stroke-linejoin:round;stroke-width:.37783;stroke:#7d7d7d"/>
    <path d="m365.97 371.82h31.011" style="fill:none;stroke-linecap:round;stroke-linejoin:round;stroke-width:.37783;stroke:#7d7d7d"/>
    <path d="m374.74 331.59h29.714" style="fill:#808080;stroke-linecap:round;stroke-linejoin:round;stroke-width:1.8891;stroke:#000"/>
    <path d="m367.86 349.04h30.279" style="fill:#808080;stroke-linecap:round;stroke-linejoin:round;stroke-width:1.8891;stroke:#000"/>
    <path d="m365.5 366.49h30.562" style="fill:#808080;stroke-linecap:round;stroke-linejoin:round;stroke-width:1.8891;stroke:#000"/>
    <path d="m367.86 383.94h33.201" style="fill:#808080;stroke-linecap:round;stroke-linejoin:round;stroke-width:1.8891;stroke:#000"/>
    <path d="m378.7 401.39h6.9054" style="fill:#808080;stroke-linecap:round;stroke-linejoin:round;stroke-width:1.8891;stroke:#000"/>
    <path d="m402.36 418.84h8.0364" style="fill:#808080;stroke-linecap:round;stroke-linejoin:round;stroke-width:1.8891;stroke:#000"/>
    <path d="m403.02 401.39h7.9421" style="fill:#808080;stroke-linecap:round;stroke-linejoin:round;stroke-width:1.8891;stroke:#000"/>
   </g>
   <path d="m148.81 316.94 6.2254-5.147 6.9023 14.13 6.2932-3.0742-6.9023-14.13 7.4286-1.523-19.542-14.716z" style="fill:#fff;stroke-linecap:round;stroke-linejoin:round;stroke-width:.75591;stroke:#000"/>
   <g transform="translate(-813.49 -121.25)">
    <ellipse cx="988.73" cy="286.32" rx="13.199" ry="13.469" style="fill:#1f638a;stroke-linecap:round;stroke-linejoin:round;stroke-width:1.0658"/>
    <text x="982.88611" y="293.98578" style="fill:#000000;font-family:'Arial Nova', 'Arial Unicode MS', 'Yu Gothic UI', sans-serif;font-size:12.8px;letter-spacing:0px;line-height:0%;stroke-width:1.0667;word-spacing:0px" xml:space="preserve"><tspan x="982.88611" y="293.98578" style="fill:#ffffff;font-family:'Arial Nova', 'Arial Unicode MS', 'Yu Gothic UI', sans-serif;font-size:21.333px;font-weight:bold;stroke-width:1.0667">3</tspan></text>
   </g>
   <g transform="translate(-28.027 19.079)">
    <g transform="translate(375.2 286.31)">
     <ellipse cx="-291.36" cy="29.373" rx="13.199" ry="13.469" style="fill:#1f638a;stroke-linecap:round;stroke-linejoin:round;stroke-width:1.0658"/>
     <text x="-298.78693" y="37.00808" style="fill:#000000;font-family:'Arial Nova', 'Arial Unicode MS', 'Yu Gothic UI', sans-serif;font-size:12.8px;letter-spacing:0px;line-height:0%;stroke-width:1.0667;word-spacing:0px" xml:space="preserve"><tspan x="-298.78693" y="37.00808" style="fill:#ffffff;font-family:'Arial Nova', 'Arial Unicode MS', 'Yu Gothic UI', sans-serif;font-size:21.333px;font-weight:bold;stroke-width:1.0667">A</tspan></text>
    </g>
   </g>
   <path d="m410.1 104.33v260.97" style="fill:none;stroke-linecap:round;stroke-linejoin:round;stroke-width:.75591;stroke:#b3b3b3"/>
   <g transform="rotate(-90 236.57 229.74)">
    <path d="m234.83 220.11 6.2408 9.9675 6.2408-9.9675z" style="fill:#1f638a;stroke-linecap:round;stroke-linejoin:round;stroke-width:.37795;stroke:#1f638a"/>
    <rect transform="matrix(0,1,1,0,0,0)" x="209.81" y="238.21" width="11.439" height="5.7059" style="fill:#1f638a;stroke-linecap:round;stroke-linejoin:round;stroke-width:.37795;stroke:#1f638a"/>
   </g>
  </g>
 </g>
</svg>
