<?xml version="1.0" encoding="UTF-8"?>
<svg width="18cm" height="6cm" version="1.1" xmlns="http://www.w3.org/2000/svg" xmlns:xlink="http://www.w3.org/1999/xlink">
 <defs>
  <linearGradient id="linearGradient446" x1="-142.17" x2="723.02" y1="57.999" y2="57.999" gradientTransform="matrix(0 -.21583 .21583 0 -1133.3 677.1)" gradientUnits="userSpaceOnUse">
   <stop style="stop-color:#fff" offset="0"/>
   <stop style="stop-color:#808080" offset="1"/>
  </linearGradient>
  <linearGradient id="linearGradient448" x1="-142.17" x2="723.02" y1="57.999" y2="57.999" gradientTransform="matrix(0 .21583 -.21583 0 -1149.9 541.37)" gradientUnits="userSpaceOnUse">
   <stop style="stop-color:#fff" offset="0"/>
   <stop style="stop-color:#808080" offset="1"/>
  </linearGradient>
  <linearGradient id="linearGradient450" x1="-142.17" x2="723.02" y1="57.999" y2="57.999" gradientTransform="matrix(0 -.21583 .21583 0 -964.74 677.1)" gradientUnits="userSpaceOnUse">
   <stop style="stop-color:#fff" offset="0"/>
   <stop style="stop-color:#808080" offset="1"/>
  </linearGradient>
  <linearGradient id="linearGradient452" x1="553.27" x2="594.19" y1="209.11" y2="209.11" gradientTransform="matrix(1.585 0 0 1.585 -1903.2 272.61)" gradientUnits="userSpaceOnUse">
   <stop style="stop-color:#ff8500" offset="0"/>
   <stop style="stop-color:#fff" offset="1"/>
  </linearGradient>
 </defs>
 <g transform="translate(0 -113.39)">
  <path d="m-1089.7 707.32c-11.869 1.1681-20.557-10.145-25.944-19.535l-32.049-55.857c-3.1978-5.5734-4.1934-12.779-4.0442-18.848 0.5617-2.8678 3.124-2.3367 4.1206-1.2972l15.948 16.635c2.9277 3.2844 5.2594 0.90902 5.4178-0.91568l6.6388-76.46c1.2072-13.905 10.172-29.304 29.607-29.607z" style="fill:url(#linearGradient446);stroke-linecap:round;stroke-linejoin:round;stroke-width:1.8898;stroke:#7d7d7d"/>
  <path d="m-1115.8 687.57c9.0804 6.2605 17.34 6.7765 25.576 7.1224" style="fill:none;stroke-linecap:round;stroke-linejoin:round;stroke-width:.94488;stroke:#7d7d7d"/>
  <path d="m-1147.9 631.78c19.507 7.6637 38.723 9.2183 57.95 11.007" style="fill:none;stroke-linecap:round;stroke-linejoin:round;stroke-width:.94488;stroke:#7d7d7d"/>
  <path d="m-1089.7 707.32c-11.869 1.1681-20.557-10.145-25.944-19.535l-32.049-55.857c-3.1978-5.5734-4.1934-12.779-4.0442-18.848 0.5617-2.8678 3.124-2.3367 4.1206-1.2972l15.948 16.635c2.9277 3.2844 5.2594 0.90902 5.4178-0.91568l6.6388-76.46c1.2072-13.905 10.172-29.304 29.607-29.607z" style="fill:none;stroke-linecap:round;stroke-linejoin:round;stroke-width:3.7795;stroke:#000"/>
  <path d="m-1193.5 511.16c11.869-1.1681 20.557 10.145 25.944 19.535l32.049 55.857c3.1979 5.5734 4.1934 12.779 4.0443 18.848-0.5617 2.8678-3.1241 2.3367-4.1206 1.2972l-15.948-16.635c-2.9277-3.2844-5.2594-0.90899-5.4178 0.91569l-6.6388 76.46c-1.2073 13.905-10.172 29.304-29.607 29.607z" style="fill:url(#linearGradient448);stroke-linecap:round;stroke-linejoin:round;stroke-width:1.8898;stroke:#7d7d7d"/>
  <path d="m-1167.4 530.91c-9.0804-6.2605-17.34-6.7765-25.576-7.1224" style="fill:none;stroke-linecap:round;stroke-linejoin:round;stroke-width:.94488;stroke:#7d7d7d"/>
  <path d="m-1135.3 586.7c-19.507-7.6637-38.723-9.2183-57.95-11.007" style="fill:none;stroke-linecap:round;stroke-linejoin:round;stroke-width:.94488;stroke:#7d7d7d"/>
  <path d="m-1193.5 511.16c11.869-1.1681 20.557 10.145 25.944 19.535l32.049 55.857c3.1979 5.5734 4.1934 12.779 4.0443 18.848-0.5617 2.8678-3.1241 2.3367-4.1206 1.2972l-15.948-16.635c-2.9277-3.2844-5.2594-0.90899-5.4178 0.91569l-6.6388 76.46c-1.2073 13.905-10.172 29.304-29.607 29.607z" style="fill:none;stroke-linecap:round;stroke-linejoin:round;stroke-width:3.7795;stroke:#000"/>
  <path d="m-921.2 707.32c-11.869 1.1681-20.557-10.145-25.944-19.535l-32.049-55.857c-3.1978-5.5734-4.1934-12.779-4.0443-18.848 0.56173-2.8678 3.1241-2.3367 4.1206-1.2972l15.948 16.635c2.9277 3.2844 5.2594 0.90902 5.4178-0.91568l6.6387-76.46c1.2073-13.905 10.173-29.304 29.607-29.607z" style="fill:url(#linearGradient450);stroke-linecap:round;stroke-linejoin:round;stroke-width:1.8898;stroke:#7d7d7d"/>
  <path d="m-947.22 687.57c9.0805 6.2605 17.34 6.7765 25.576 7.1224" style="fill:none;stroke-linecap:round;stroke-linejoin:round;stroke-width:.94488;stroke:#7d7d7d"/>
  <path d="m-979.38 631.78c19.507 7.6637 38.723 9.2183 57.95 11.007" style="fill:none;stroke-linecap:round;stroke-linejoin:round;stroke-width:.94488;stroke:#7d7d7d"/>
  <path d="m-921.2 707.32c-11.869 1.1681-20.557-10.145-25.944-19.535l-32.049-55.857c-3.1978-5.5734-4.1934-12.779-4.0443-18.848 0.56173-2.8678 3.1241-2.3367 4.1206-1.2972l15.948 16.635c2.9277 3.2844 5.2594 0.90902 5.4178-0.91568l6.6387-76.46c1.2073-13.905 10.173-29.304 29.607-29.607z" style="fill:none;stroke-linecap:round;stroke-linejoin:round;stroke-width:3.7795;stroke:#000"/>
  <path d="m-1024.9 511.16c11.869-1.1681 20.557 10.145 25.944 19.535l32.049 55.857c3.1979 5.5734 4.1934 12.779 4.0443 18.848-0.56173 2.8678-3.124 2.3367-4.1206 1.2972l-15.948-16.635c-2.9277-3.2844-5.2594-0.909-5.4178 0.91568l-6.6387 76.46c-1.2073 13.905-10.173 29.304-29.607 29.607z" style="fill:url(#linearGradient452);stroke-linecap:round;stroke-linejoin:round;stroke-width:1.8898;stroke:#7d7d7d"/>
  <path d="m-998.89 530.91c-9.0804-6.2605-17.34-6.7765-25.576-7.1224" style="fill:none;stroke-linecap:round;stroke-linejoin:round;stroke-width:.94488;stroke:#7d7d7d"/>
  <path d="m-966.73 586.7c-19.507-7.6637-38.723-9.2183-57.95-11.007" style="fill:none;stroke-linecap:round;stroke-linejoin:round;stroke-width:.94488;stroke:#7d7d7d"/>
  <path d="m-1024.9 511.16c11.869-1.1681 20.557 10.145 25.944 19.535l32.049 55.857c3.1979 5.5734 4.1934 12.779 4.0443 18.848-0.56173 2.8678-3.124 2.3367-4.1206 1.2972l-15.948-16.635c-2.9277-3.2844-5.2594-0.909-5.4178 0.91568l-6.6387 76.46c-1.2073 13.905-10.173 29.304-29.607 29.607z" style="fill:none;stroke-linecap:round;stroke-linejoin:round;stroke-width:3.7795;stroke:#f00"/>
  <path d="m-1209 498.54v210.42h85.128v-210.42z" style="fill:none;stroke-linecap:round;stroke-linejoin:round;stroke-width:.75591;stroke:#000"/>
  <g transform="rotate(-90 -212.91 1064.4)">
   <path d="m234.83 220.11 6.2408 9.9675 6.2408-9.9675z" style="fill:#1f638a;stroke-linecap:round;stroke-linejoin:round;stroke-width:.37795;stroke:#1f638a"/>
   <rect transform="matrix(0,1,1,0,0,0)" x="209.81" y="238.21" width="11.439" height="5.7059" style="fill:#1f638a;stroke-linecap:round;stroke-linejoin:round;stroke-width:.37795;stroke:#1f638a"/>
  </g>
  <path d="m-892.09 481.38v246.8" style="fill:none;stroke-width:1.0667px;stroke:#7d7d7d"/>
  <path d="m-1208.8 523.71 6.2254-5.1469 6.9023 14.13 6.2932-3.0742-6.9023-14.13 7.4286-1.523-19.542-14.716z" style="fill:#fff;stroke-linecap:round;stroke-linejoin:round;stroke-width:.75591;stroke:#000"/>
  <path d="m-1208.5 498.52c10.039-44.495 120.98 9.034 87.825 194.44" style="fill:none;stroke-dasharray:1.06582679, 2.13165355;stroke-width:1.0658;stroke:#000"/>
  <path d="m-1123.4 708.6 8.3093-16.201-10.966-1.0956z" style="fill:none;stroke-dasharray:1.06582679, 1.06582679;stroke-width:1.0658;stroke:#000"/>
  <path d="m-1124.1 733.51 6.2253-5.147 6.9023 14.13 6.2933-3.0742-6.9023-14.13 7.4286-1.523-19.542-14.716z" style="fill:#fff;stroke-linecap:round;stroke-linejoin:round;stroke-width:.75591;stroke:#000"/>
  <path d="m-433.48 456.69 6.2254-5.147 6.9023 14.13 6.2932-3.0742-6.9023-14.13 7.4286-1.523-19.542-14.716z" style="fill:#fff;stroke-linecap:round;stroke-linejoin:round;stroke-width:.75591;stroke:#000"/>
  <path d="m-488.48 484.99 6.2254-5.1469 6.9023 14.13 6.2932-3.0742-6.9023-14.13 7.4286-1.523-19.542-14.716z" style="fill:#fff;stroke-linecap:round;stroke-linejoin:round;stroke-width:.75591;stroke:#000"/>
  <text x="-1216.3834" y="506.2244" style="fill:#000000;font-family:'Arial Nova', 'Arial Unicode MS', 'Yu Gothic UI', sans-serif;font-size:12.8px;font-weight:bold;letter-spacing:0px;line-height:0%;stroke-width:1.0667;word-spacing:0px" xml:space="preserve"><tspan x="-1216.3834" y="506.2244" style="stroke-width:1.0667">1</tspan></text>
  <text x="-406.08237" y="677.43024" style="fill:#000000;font-family:'Arial Nova', 'Arial Unicode MS', 'Yu Gothic UI', sans-serif;font-size:12.8px;font-weight:bold;letter-spacing:0px;line-height:0%;stroke-width:1.0667;word-spacing:0px" xml:space="preserve"><tspan x="-406.08237" y="677.43024" style="stroke-width:1.0667">1</tspan></text>
  <text x="-1133.8785" y="704.87262" style="fill:#000000;font-family:'Arial Nova', 'Arial Unicode MS', 'Yu Gothic UI', sans-serif;font-size:12.8px;font-weight:bold;letter-spacing:0px;line-height:0%;stroke-width:1.0667;word-spacing:0px" xml:space="preserve"><tspan x="-1133.8785" y="704.87262" style="stroke-width:1.0667">2</tspan></text>
  <text x="-503.38919" y="721.75598" style="fill:#000000;font-family:'Arial Nova', 'Arial Unicode MS', 'Yu Gothic UI', sans-serif;font-size:12.8px;font-weight:bold;letter-spacing:0px;line-height:0%;stroke-width:1.0667;word-spacing:0px" xml:space="preserve"><tspan x="-503.38919" y="721.75598" style="stroke-width:1.0667">2</tspan></text>
  <g transform="translate(-933.68 -460.81)">
   <ellipse cx="316.95" cy="1090.1" rx="13.199" ry="13.469" style="fill:#1f638a;stroke-linecap:round;stroke-linejoin:round;stroke-width:1.0658"/>
   <text x="309.284" y="1096.9897" style="fill:#000000;font-family:'Arial Nova', 'Arial Unicode MS', 'Yu Gothic UI', sans-serif;font-size:12.8px;letter-spacing:0px;line-height:0%;stroke-width:1.0667;word-spacing:0px" xml:space="preserve"><tspan x="309.284" y="1096.9897" style="fill:#ffffff;font-family:'Arial Nova', 'Arial Unicode MS', 'Yu Gothic UI', sans-serif;font-size:21.333px;font-weight:bold;stroke-width:1.0667">A</tspan></text>
  </g>
  <g transform="translate(-841.58 -460.81)">
   <ellipse cx="561.62" cy="1090.1" rx="13.199" ry="13.469" style="fill:#1f638a;stroke-linecap:round;stroke-linejoin:round;stroke-width:1.0658"/>
   <text x="554.74164" y="1097.7629" style="fill:#000000;font-family:'Arial Nova', 'Arial Unicode MS', 'Yu Gothic UI', sans-serif;font-size:12.8px;letter-spacing:0px;line-height:0%;stroke-width:1.0667;word-spacing:0px" xml:space="preserve"><tspan x="554.74164" y="1097.7629" style="fill:#ffffff;font-family:'Arial Nova', 'Arial Unicode MS', 'Yu Gothic UI', sans-serif;font-size:21.333px;font-weight:bold;stroke-width:1.0667">B</tspan></text>
  </g>
  <g transform="translate(-254.08 -183.06)">
   <circle cx="415.35" cy="402.9" r="8.5039" style="color:#000000;fill:#ccc;stroke-linecap:round;stroke-linejoin:round;stroke-width:1.8898;stroke:#ccc"/>
   <circle cx="409.55" cy="434.48" r="8.5039" style="color:#000000;fill:#ccc;stroke-linecap:round;stroke-linejoin:round;stroke-width:1.8898;stroke:#ccc"/>
   <path d="m474.88 337.15-7.943 11.434c-0.55262-0.21903-0.39909-0.24818-0.67072-0.41741-14.625-9.1118-31.895-14.376-50.395-14.376-26.362 0-50.227 10.689-67.498 27.969l10.702 10.495c14.551-14.507 34.626-23.475 56.797-23.475 15.288 0 29.581 4.2648 41.752 11.67 0.36301 0.22085 0.72412 0.44448 1.0833 0.67088l-9.1028 12.516 29.662-6.4134z" style="color:#000000;fill:#53626c;stroke-linecap:round;stroke-linejoin:round;stroke-width:1.8898;stroke:#163950"/>
   <ellipse cx="413.77" cy="418.82" rx=".94488" ry=".94488" style="color:#000000;fill-rule:evenodd;fill:#53626c;stroke-linecap:round;stroke-linejoin:round;stroke-width:1.8898;stroke:#163950"/>
   <path d="m352.75 500.41 7.943-11.434c0.55264 0.21903 0.39909 0.24817 0.67072 0.4174 14.625 9.1118 31.895 14.376 50.395 14.376 26.362 0 50.227-10.689 67.498-27.969l-10.702-10.495c-14.551 14.507-34.626 23.475-56.797 23.475-15.288 0-29.581-4.2648-41.752-11.67-0.36301-0.22084-0.7241-0.44448-1.0833-0.67088l9.1028-12.516-29.662 6.4133z" style="color:#000000;fill:#53626c;stroke-linecap:round;stroke-linejoin:round;stroke-width:1.8898;stroke:#163950"/>
   <path d="m411.93 418.59c0-1.0437 0.84608-1.8898 1.8898-1.8898 1.0437 0 1.8898 0.84608 1.8898 1.8898s-0.84608 1.8898-1.8898 1.8898c-1.0437 0-1.8898-0.84607-1.8898-1.8898z" style="color:#000000;fill-rule:evenodd;fill:#fff;stroke-linecap:round;stroke-linejoin:round;stroke-width:1.5118;stroke:#163950"/>
   <path d="m481.41 416.99c3.5971 3.8164 4.643 6.6469 5.3944 11.159 2.4111 14.479 5.9867 21.444 9.4548 34.079l6.4656 12.722c3.0916 25.555-13.298 17.849-34.539 17.936-4.1859-5.1482-9.1789-10.329-13.46-13.347-7.0387-4.9629-12.836-7.6343-19.172-14.07-1.3439-1.3651-13.805-10.463-15.842-12.882-2.0367-2.4183-2.9379-2.734-4.1931-4.6873s-2.616-5.746-2.616-5.746l-4.8962-6.1673c-0.36453-1.3997-1.8747-1.4033 1.7337-2.3333 7.148-0.52578 8.6597 3.3926 11.956 7.6522 0.56119 0.3781 1.4961 1.094 2.1772 1.3694 4.3329 1.7521 9.82 2.5456 14.18 4.2681 0.94224 0.26995 3.622 0.30679 4.3982-0.14285 4.1268-3.2502 3.1842-7.2136 1.4891-9.969-3.055-4.9661-7.6525-7.8857-9.911-13.278-1.1039-0.73731-12.387-12.314-14.663-14.123-1.0651-0.84673-3.4141-3.0475-5.2732-4.357-2.3162-2.3932-0.86835-4.0111 2.5476-2.596 4.8849-1.0625 13.386 5.5714 16.853 6.6217 5.717 1.8513 21.866 16.356 25.116 19.12l-14.3-14.804c8.0334-5.9087 7.7616-4.0554 9.1035-3.8832 5.7193 3.2039 10.386 10.277 15.501 15.716l-8.0349-12.225c-1.0059-1.4271 6.1398-3.3276 7.6156-1.7442l10.569 11.339-3.0276-6.2412c1.7086-0.39983 3.4028-0.90499 5.3728 0.61245z" style="color:#000000;fill:#ac9d93;stroke-linecap:round;stroke-linejoin:round;stroke-width:1.8898;stroke:#e9c6af"/>
   <path d="m444.32 413.54 3.8174-4.7132c2.1325-1.6884 4.1958-2.2855 6.8615-0.50826 1.9082 1.2722 3.5338 2.4572 5.0826 3.939 4.4539 4.891 6.7623 7.2054 10.091 11.509" style="color:#000000;fill:none;stroke-linecap:round;stroke-linejoin:round;stroke-width:1.8898;stroke:#463c37"/>
   <path d="m460.81 412.54s1.2163-1.7364 2.8594-2.6313c1.4495-0.78943 4.4377-1.622 5.972-0.0952 3.5378 3.8063 7.2511 7.4512 10.724 11.317" style="color:#000000;fill:none;stroke-linecap:round;stroke-linejoin:round;stroke-width:1.8898;stroke:#463c37"/>
   <path d="m475.99 416.42c0.98757-0.57314 1.758-0.90434 2.7246-1.2322 1.9101-0.64799 3.5181-0.17439 5.5908 2.3824 3.6012 4.4423 3.6993 6.5931 4.5454 11.154 2.6773 14.432 3.939 20.872 7.4071 33.508l6.4656 12.722c3.0916 25.555-13.298 17.849-34.539 17.936-4.1859-5.1482-9.1789-10.329-13.46-13.347-7.0387-4.9629-12.836-7.6343-19.172-14.07-1.3439-1.3651-13.805-10.463-15.842-12.882-2.0367-2.4183-2.9379-2.734-4.1931-4.6873s-2.616-5.746-2.616-5.746l-4.8962-6.1673c-1.0406-1.625-2.2699-3.3128 1.3528-4.238 7.148-0.52578 10.374 3.8212 13.67 8.0808l1.5171 1.1205c3.6592 1.3979 14.391 3.6856 17.873 5.7551 4.2068-3.4407 3.2166-7.1184 1.5216-9.8738-3.055-4.9661-7.6525-7.8857-9.911-13.278-1.1039-0.73731-12.387-12.314-14.663-14.123-1.0651-0.84673-3.4141-3.0475-5.2732-4.357-1.1859-0.88945-1.44-2.033-0.76238-3.4307 0.76238-1.2706 2.0943-0.5824 4.3202-0.91622 4.9438-0.74141 13.487 5.7061 16.954 6.7564 5.8857 2.7368 16.248 11.304 21.025 15.308l4.1723 3.7426" style="color:#000000;fill:none;stroke-linecap:round;stroke-linejoin:round;stroke-width:1.8898;stroke:#463c37"/>
  </g>
  <g transform="translate(338.6 -196.25)">
   <path d="m227.64 375.68c0-12.601-22.472-23.452-54.787-28.343l-0.16015-14.806-20.608 19.51 20.789 25.114-0.0758-14.893c32.344 4.8874 54.842 15.744 54.842 28.352z" style="color:#000000;fill:#687985;stroke-linecap:round;stroke-linejoin:round;stroke-width:1.8898;stroke:#163950"/>
   <path d="m144.93 337.47a1.89 1.89 0 0 0-1.8667 1.9333v140.9a1.9 1.9 0 0 0 3.8 0v-140.9a1.89 1.89 0 0 0-1.9333-1.9333z" style="color:#000000;fill-rule:evenodd;fill:#fff;stroke-linecap:round;stroke-linejoin:round;stroke-width:1.5118;stroke:#163950;text-decoration-line:none;text-indent:0;text-transform:none"/>
   <path d="m227.65 375.77c-0.2993 20.929-73.858 43.494-154.38 23.57v-14.443l-20.633 13.27 20.633 31.091v-15.009c55.516 15.725 150.66 5.9059 154.38-23.005z" style="color:#000000;fill:#53626c;stroke-linecap:round;stroke-linejoin:round;stroke-width:1.8898;stroke:#163950"/>
   <g transform="translate(1000.2 169.6)">
    <circle cx="-793.81" cy="256.4" r="8.5039" style="color:#000000;fill:#ccc;stroke-linecap:round;stroke-linejoin:round;stroke-width:1.8898;stroke:#ccc"/>
    <path d="m-727.74 270.49c3.5971 3.8164 4.643 6.6469 5.3944 11.159 2.4111 14.479 5.9867 21.444 9.4548 34.079l6.4656 12.722c3.0916 25.555-13.298 17.849-34.539 17.936-4.1859-5.1482-9.1789-10.329-13.46-13.347-7.0387-4.963-12.836-7.6343-19.172-14.07-1.3439-1.3651-13.805-10.463-15.842-12.882-2.0367-2.4183-2.9379-2.734-4.1931-4.6873-1.2552-1.9533-2.616-5.746-2.616-5.746l-4.8962-6.1673c-0.36453-1.3997-1.8747-1.4033 1.7337-2.3333 7.148-0.52578 8.6597 3.3926 11.956 7.6522 0.5612 0.3781 1.4961 1.094 2.1772 1.3694 4.3329 1.7521 9.8201 2.5456 14.18 4.268 0.94224 0.26995 3.622 0.3068 4.3982-0.14285 4.1268-3.2502 3.1842-7.2136 1.4891-9.969-3.055-4.9661-7.6525-7.8857-9.911-13.278-1.1039-0.7373-12.387-12.314-14.663-14.123-1.0651-0.84673-3.4141-3.0475-5.2732-4.357-2.3162-2.3932-0.86836-4.0111 2.5476-2.596 4.8849-1.0625 13.386 5.5714 16.853 6.6217 5.717 1.8513 21.866 16.356 25.116 19.12l-14.3-14.804c8.0334-5.9087 7.7616-4.0554 9.1035-3.8832 5.7193 3.2039 10.386 10.277 15.501 15.716l-8.0349-12.225c-1.0059-1.4271 6.1398-3.3276 7.6156-1.7442l10.569 11.339-3.0276-6.2412c1.7086-0.39983 3.4028-0.90499 5.3728 0.61245z" style="color:#000000;fill:#ac9d93;stroke-linecap:round;stroke-linejoin:round;stroke-width:1.8898;stroke:#e9c6af"/>
    <path d="m-764.83 267.04 3.8174-4.7132c2.1325-1.6884 4.1958-2.2855 6.8615-0.50826 1.9082 1.2722 3.5338 2.4572 5.0826 3.939 4.4538 4.891 6.7623 7.2054 10.091 11.509" style="color:#000000;fill:none;stroke-linecap:round;stroke-linejoin:round;stroke-width:1.8898;stroke:#463c37"/>
    <path d="m-748.34 266.04s1.2163-1.7364 2.8594-2.6313c1.4495-0.78943 4.4377-1.622 5.972-0.0953 3.5378 3.8063 7.2511 7.4512 10.724 11.317" style="color:#000000;fill:none;stroke-linecap:round;stroke-linejoin:round;stroke-width:1.8898;stroke:#463c37"/>
    <path d="m-733.16 269.92c0.98756-0.57314 1.758-0.90434 2.7246-1.2322 1.9101-0.64799 3.5181-0.17439 5.5908 2.3825 3.6012 4.4423 3.6993 6.5931 4.5454 11.154 2.6773 14.432 3.939 20.872 7.4071 33.508l6.4656 12.722c3.0916 25.555-13.298 17.849-34.539 17.936-4.1859-5.1482-9.1789-10.329-13.46-13.347-7.0387-4.963-12.836-7.6343-19.172-14.07-1.3439-1.3651-13.805-10.463-15.842-12.882-2.0367-2.4183-2.9379-2.734-4.1931-4.6873s-2.616-5.746-2.616-5.746l-4.8962-6.1673c-1.0406-1.625-2.2699-3.3128 1.3528-4.238 7.148-0.52578 10.374 3.8212 13.67 8.0808l1.5171 1.1205c3.6592 1.3979 14.391 3.6856 17.873 5.7551 4.2068-3.4407 3.2166-7.1184 1.5216-9.8738-3.055-4.9661-7.6525-7.8857-9.911-13.278-1.1039-0.7373-12.387-12.314-14.663-14.123-1.0651-0.84673-3.4141-3.0475-5.2732-4.357-1.1859-0.88945-1.4401-2.033-0.76238-3.4307 0.76238-1.2706 2.0943-0.5824 4.3202-0.91621 4.9438-0.74141 13.487 5.7061 16.954 6.7564 5.8857 2.7368 16.248 11.304 21.025 15.308l4.1723 3.7426" style="color:#000000;fill:none;stroke-linecap:round;stroke-linejoin:round;stroke-width:1.8898;stroke:#463c37"/>
   </g>
  </g>
  <g transform="translate(-76.707 105.6)">
   <ellipse cx="122.72" cy="48.983" rx="13.199" ry="13.469" style="fill:#1f638a;stroke-linecap:round;stroke-linejoin:round;stroke-width:1.0658"/>
   <text x="116.87816" y="56.649761" style="fill:#000000;font-family:'Arial Nova', 'Arial Unicode MS', 'Yu Gothic UI', sans-serif;font-size:12.8px;letter-spacing:0px;line-height:0%;stroke-width:1.0667;word-spacing:0px" xml:space="preserve"><tspan x="116.87816" y="56.649761" style="fill:#ffffff;font-family:'Arial Nova', 'Arial Unicode MS', 'Yu Gothic UI', sans-serif;font-size:21.333px;font-weight:bold;stroke-width:1.0667">4</tspan></text>
  </g>
  <g transform="translate(239.72 105.6)">
   <ellipse cx="122.72" cy="48.983" rx="13.199" ry="13.469" style="fill:#1f638a;stroke-linecap:round;stroke-linejoin:round;stroke-width:1.0658"/>
   <text x="116.87816" y="56.649761" style="fill:#000000;font-family:'Arial Nova', 'Arial Unicode MS', 'Yu Gothic UI', sans-serif;font-size:12.8px;letter-spacing:0px;line-height:0%;stroke-width:1.0667;word-spacing:0px" xml:space="preserve"><tspan x="116.87816" y="56.649761" style="fill:#ffffff;font-family:'Arial Nova', 'Arial Unicode MS', 'Yu Gothic UI', sans-serif;font-size:21.333px;font-weight:bold;stroke-width:1.0667">5</tspan></text>
  </g>
 </g>
</svg>
