<?xml version="1.0" encoding="UTF-8"?>
<svg width="18cm" height="6cm" version="1.1" xmlns="http://www.w3.org/2000/svg" xmlns:osb="http://www.openswatchbook.org/uri/2009/osb" xmlns:xlink="http://www.w3.org/1999/xlink">
 <defs>
  <linearGradient id="linearGradient8023" x1="-142.17" x2="723.02" y1="57.999" y2="57.999" gradientTransform="matrix(0 -.11964 .11964 0 572.67 378.76)" gradientUnits="userSpaceOnUse">
   <stop style="stop-color:#fff" offset="0"/>
   <stop style="stop-color:#808080" offset="1"/>
  </linearGradient>
  <linearGradient id="linearGradient8029" x1="-142.17" x2="723.02" y1="57.999" y2="57.999" gradientTransform="matrix(0 .11964 -.11964 0 162.92 302.28)" gradientUnits="userSpaceOnUse">
   <stop style="stop-color:#fff" offset="0"/>
   <stop style="stop-color:#808080" offset="1"/>
  </linearGradient>
  <linearGradient id="linearGradient8034" x1="-142.17" x2="723.02" y1="57.999" y2="57.999" gradientTransform="matrix(0 -.11964 .11964 0 172.13 377.52)" gradientUnits="userSpaceOnUse">
   <stop style="stop-color:#fff" offset="0"/>
   <stop style="stop-color:#808080" offset="1"/>
  </linearGradient>
  <linearGradient id="linearGradient8039" x1="-142.17" x2="723.02" y1="57.999" y2="57.999" gradientTransform="matrix(0 .11964 -.11964 0 232.23 302.02)" gradientUnits="userSpaceOnUse">
   <stop style="stop-color:#fff" offset="0"/>
   <stop style="stop-color:#808080" offset="1"/>
  </linearGradient>
  <linearGradient id="linearGradient8044" x1="-142.17" x2="723.02" y1="57.999" y2="57.999" gradientTransform="matrix(0 .11964 -.11964 0 93.654 302.4)" gradientUnits="userSpaceOnUse">
   <stop style="stop-color:#fff" offset="0"/>
   <stop style="stop-color:#808080" offset="1"/>
  </linearGradient>
  <linearGradient id="linearGradient8049" x1="-142.17" x2="723.02" y1="57.999" y2="57.999" gradientTransform="matrix(0 -.11964 .11964 0 102.87 377.64)" gradientUnits="userSpaceOnUse">
   <stop style="stop-color:#fff" offset="0"/>
   <stop style="stop-color:#808080" offset="1"/>
  </linearGradient>
 </defs>
 <g transform="translate(0 -226.77)">
  <rect x="38.973" y="248.13" width="258.62" height="187.68" rx="18.898" ry="9.4488" style="fill:#fff;stroke-linecap:round;stroke-linejoin:round;stroke-width:3.7795;stroke:#000"/>
  <rect x="54.837" y="267.44" width="226.89" height="142.48" style="fill:#fff;stroke-linecap:round;stroke-width:1.8898;stroke:#000"/>
  <circle cx="251.79" cy="422.94" r="2.6939" style="fill:#fff;stroke-linecap:round;stroke-width:1.8898;stroke:#000"/>
  <circle cx="260.57" cy="422.94" r="2.6939" style="fill:#fff;stroke-linecap:round;stroke-width:1.8898;stroke:#000"/>
  <circle cx="269.34" cy="422.94" r="2.6939" style="fill:#fff;stroke-linecap:round;stroke-width:1.8898;stroke:#000"/>
  <path d="m127 394.39c-6.5793 0.64755-11.396-5.6238-14.382-10.829l-17.766-30.964c-1.7727-3.0895-2.3246-7.084-2.2419-10.448 0.31139-1.5898 1.7318-1.2953 2.2842-0.71911l8.8408 9.2215c1.6229 1.8207 2.9155 0.5039 3.0033-0.5076l3.6801-42.385c0.66925-7.7079 5.6391-16.244 16.413-16.412z" style="fill:url(#linearGradient8049);stroke-linecap:round;stroke-linejoin:round;stroke-width:1.8898;stroke:#7d7d7d"/>
  <path d="m112.58 383.44c5.0337 3.4704 9.6124 3.7565 14.178 3.9482" style="fill:none;stroke-linecap:round;stroke-linejoin:round;stroke-width:.75591;stroke:#7d7d7d"/>
  <path d="m94.754 352.52c10.814 4.2483 21.466 5.1101 32.124 6.1018" style="fill:none;stroke-linecap:round;stroke-linejoin:round;stroke-width:.75591;stroke:#7d7d7d"/>
  <path d="m69.515 285.65c6.5793-0.64754 11.396 5.6238 14.382 10.829l17.766 30.964c1.7727 3.0896 2.3246 7.084 2.2419 10.448-0.31139 1.5898-1.7318 1.2953-2.2842 0.71911l-8.8408-9.2215c-1.6229-1.8207-2.9155-0.5039-3.0033 0.5076l-3.6801 42.385c-0.66925 7.7079-5.6391 16.244-16.413 16.412z" style="fill:url(#linearGradient8044);stroke-linecap:round;stroke-linejoin:round;stroke-width:1.8898;stroke:#7d7d7d"/>
  <path d="m83.939 296.6c-5.0337-3.4705-9.6124-3.7565-14.178-3.9482" style="fill:none;stroke-linecap:round;stroke-linejoin:round;stroke-width:.75591;stroke:#7d7d7d"/>
  <path d="m101.77 327.53c-10.814-4.2483-21.466-5.1101-32.124-6.1018" style="fill:none;stroke-linecap:round;stroke-linejoin:round;stroke-width:.75591;stroke:#7d7d7d"/>
  <path d="m208.1 285.27c6.5793-0.64755 11.396 5.6238 14.382 10.829l17.766 30.964c1.7727 3.0896 2.3246 7.084 2.2419 10.448-0.31138 1.5898-1.7318 1.2953-2.2842 0.71911l-8.8408-9.2215c-1.6229-1.8207-2.9155-0.5039-3.0033 0.5076l-3.6801 42.385c-0.66926 7.7079-5.6391 16.244-16.413 16.412z" style="fill:url(#linearGradient8039);stroke-linecap:round;stroke-linejoin:round;stroke-width:1.8898;stroke:#7d7d7d"/>
  <path d="m222.52 296.22c-5.0337-3.4705-9.6124-3.7565-14.178-3.9482" style="fill:none;stroke-linecap:round;stroke-linejoin:round;stroke-width:.94488;stroke:#7d7d7d"/>
  <path d="m240.35 327.15c-10.814-4.2483-21.466-5.1101-32.124-6.1018" style="fill:none;stroke-linecap:round;stroke-linejoin:round;stroke-width:.94488;stroke:#7d7d7d"/>
  <path d="m196.27 394.27c-6.5793 0.64755-11.396-5.6238-14.382-10.829l-17.766-30.964c-1.7727-3.0896-2.3246-7.084-2.2419-10.448 0.31138-1.5898 1.7318-1.2953 2.2842-0.71912l8.8407 9.2215c1.623 1.8207 2.9155 0.50391 3.0033-0.5076l3.6801-42.385c0.66925-7.7079 5.6391-16.244 16.412-16.413z" style="fill:url(#linearGradient8034);stroke-linecap:round;stroke-linejoin:round;stroke-width:1.8898;stroke:#7d7d7d"/>
  <path d="m181.85 383.32c5.0337 3.4705 9.6124 3.7565 14.178 3.9482" style="fill:none;stroke-linecap:round;stroke-linejoin:round;stroke-width:.75591;stroke:#7d7d7d"/>
  <path d="m164.02 352.39c10.814 4.2483 21.466 5.1101 32.124 6.1018" style="fill:none;stroke-linecap:round;stroke-linejoin:round;stroke-width:.75591;stroke:#7d7d7d"/>
  <path d="m138.78 285.53c6.5793-0.64756 11.396 5.6238 14.382 10.829l17.766 30.964c1.7727 3.0896 2.3246 7.084 2.2419 10.448-0.31139 1.5898-1.7318 1.2953-2.2842 0.7191l-8.8408-9.2215c-1.6229-1.8207-2.9155-0.50389-3.0033 0.50761l-3.6801 42.385c-0.66925 7.7079-5.6391 16.244-16.412 16.412z" style="fill:url(#linearGradient8029);stroke-linecap:round;stroke-linejoin:round;stroke-width:1.8898;stroke:#7d7d7d"/>
  <path d="m153.21 296.48c-5.0337-3.4704-9.6124-3.7565-14.178-3.9482" style="fill:none;stroke-linecap:round;stroke-linejoin:round;stroke-width:.75591;stroke:#7d7d7d"/>
  <path d="m171.03 327.4c-10.814-4.2483-21.466-5.1101-32.124-6.1018" style="fill:none;stroke-linecap:round;stroke-linejoin:round;stroke-width:.75591;stroke:#7d7d7d"/>
  <rect x="386.06" y="268.94" width="226.89" height="142.48" style="fill:#bff;opacity:.50896"/>
  <path d="m596.81 395.51c-6.5793 0.64754-11.396-5.6238-14.382-10.829l-17.766-30.964c-1.7727-3.0896-2.3246-7.084-2.2419-10.448 0.31139-1.5898 1.7318-1.2953 2.2842-0.71911l8.8408 9.2215c1.6229 1.8207 2.9155 0.50389 3.0033-0.50759l3.6801-42.385c0.66925-7.7079 5.6391-16.244 16.413-16.413z" style="fill:url(#linearGradient8023);stroke-linecap:round;stroke-linejoin:round;stroke-width:1.8898;stroke:#7d7d7d"/>
  <path d="m582.38 384.57c5.0337 3.4705 9.6124 3.7565 14.178 3.9482" style="fill:none;stroke-linecap:round;stroke-linejoin:round;stroke-width:.94488;stroke:#7d7d7d"/>
  <path d="m564.56 353.64c10.814 4.2483 21.466 5.1101 32.124 6.1018" style="fill:none;stroke-linecap:round;stroke-linejoin:round;stroke-width:.94488;stroke:#7d7d7d"/>
  <path d="m257.18 340.37c10.039-44.495 93.195-63.648 310.8-16.166" style="fill:none;stroke-dasharray:1.06582679, 2.13165355;stroke-width:1.0658;stroke:#000"/>
  <path d="m584.51 328.31-15.452-9.6321-2.0067 10.836z" style="fill:none;stroke-dasharray:1.06582679, 1.06582679;stroke-width:1.0658;stroke:#000"/>
 </g>
</svg>
