<?xml version="1.0" encoding="UTF-8"?>
<svg width="18cm" height="5cm" version="1.1" viewBox="0 0 180 50" xmlns="http://www.w3.org/2000/svg" xmlns:cc="http://creativecommons.org/ns#" xmlns:dc="http://purl.org/dc/elements/1.1/" xmlns:rdf="http://www.w3.org/1999/02/22-rdf-syntax-ns#">
 <metadata>
  <rdf:RDF>
   <cc:Work rdf:about="">
    <dc:format>image/svg+xml</dc:format>
    <dc:type rdf:resource="http://purl.org/dc/dcmitype/StillImage"/>
    <dc:title/>
   </cc:Work>
  </rdf:RDF>
 </metadata>
 <path d="m52.779 13.223c-6.7782-2.4842-14.349-1.4252-20.185 2.8235l16.461 6.1276c8.3053-2.9069 17.499-1.6796 24.751 3.3041z" color="#260000" fill="#f9f9f9" stroke="#b3b3b3" stroke-dasharray="0.5, 0.5" stroke-linecap="round" stroke-linejoin="round" stroke-width=".25"/>
 <path d="m76.028 11.961c-7.2493 3.5891-15.654 4.0451-23.249 1.2616l21.026 12.255 9.8274-6.4101z" color="#260000" fill="#f9f9f9" stroke="#b3b3b3" stroke-dasharray="0.5, 0.5" stroke-linecap="round" stroke-linejoin="round" stroke-width=".25"/>
 <path d="m49.054 22.174-27.634 9.6721-4.5056-4.3855 15.68-11.414z" color="#260000" fill="#f9f9f9" stroke="#b3b3b3" stroke-dasharray="0.5, 0.5" stroke-linecap="round" stroke-linejoin="round" stroke-width=".25"/>
 <path d="m19.176 29.683c7.2736-3.5183 14.515-7.1062 21.804-10.592" fill="none" stroke="#000" stroke-linecap="round" stroke-linejoin="round" stroke-width=".2"/>
 <path d="m40.979 19.092c0.46158-0.22072 0.92334-0.44102 1.3853-0.66087m0 0c6.6152-2.8381 14.461-2.478 20.821 0.87483" fill="none" stroke="#000" stroke-linecap="round" stroke-linejoin="round" stroke-width=".2"/>
 <path d="m63.186 19.306c2.4084 0.30582 4.8986 0.0018 7.2933-0.40707 3.2702-0.61822 6.4372-1.7632 9.3595-3.3539" fill="none" stroke="#000" stroke-linecap="round" stroke-linejoin="round" stroke-width=".2"/>
 <path d="m85.426 19.191c0 9.3923-16.12 17.006-36.006 17.006-4.9712 0-14.015-1.3364-14.015-1.3364l-24.981 5.0356 5.8204-14.086s-2.8295-4.2715-2.8295-6.6196c0-9.3923 16.12-17.006 36.006-17.006 19.886 0 36.006 7.6139 36.006 17.006z" fill="none" stroke="#f60" stroke-linecap="round" stroke-linejoin="round" stroke-width=".50001"/>
 <g transform="matrix(.26459 0 0 .26459 -107.79 -2.1429)" fill="none" stroke="#f60" stroke-linecap="round" stroke-linejoin="round" stroke-width="1.8898">
  <circle cx="427.22" cy="173.28" r="14.869"/>
  <circle cx="422.79" cy="172.25" r="2.051"/>
  <circle cx="431.69" cy="172.05" r="2.051"/>
  <path d="m423.4 181.53h7.454"/>
 </g>
 <path d="m85.426 19.191c0 9.3923-16.12 17.006-36.006 17.006-4.9712 0-14.015-1.3364-14.015-1.3364l-24.981 5.0356 5.8204-14.086s-2.8295-4.2715-2.8295-6.6196c0-9.3923 16.12-17.006 36.006-17.006 19.886 0 36.006 7.6139 36.006 17.006z" fill="none" stroke="#f60" stroke-linecap="round" stroke-linejoin="round" stroke-width=".50001"/>
 <g transform="matrix(.26459 0 0 .26459 -107.79 -2.1429)" fill="none" stroke="#f60" stroke-linecap="round" stroke-linejoin="round" stroke-width="1.8898">
  <circle cx="427.22" cy="173.28" r="14.869"/>
  <circle cx="422.79" cy="172.25" r="2.051"/>
  <circle cx="431.69" cy="172.05" r="2.051"/>
  <path d="m423.4 181.53h7.454"/>
 </g>
 <path d="m178.56 19.191c0 9.3923-16.12 17.006-36.006 17.006-4.9713 0-14.015-1.3364-14.015-1.3364l-24.981 5.0356 5.8204-14.086s-2.8295-4.2715-2.8295-6.6196c0-9.3923 16.12-17.006 36.006-17.006 19.886 0 36.006 7.6139 36.006 17.006z" fill="none" stroke="#f60" stroke-linecap="round" stroke-linejoin="round" stroke-width=".50001"/>
 <g transform="matrix(.26459 0 0 .26459 -14.654 -2.1429)" fill="none" stroke="#f60" stroke-linecap="round" stroke-linejoin="round" stroke-width="1.8898">
  <circle cx="427.22" cy="173.28" r="14.869"/>
  <circle cx="422.79" cy="172.25" r="2.051"/>
  <circle cx="431.69" cy="172.05" r="2.051"/>
  <path d="m423.4 181.53h7.454"/>
 </g>
 <path d="m114.69 31.846 27.634-9.6721c8.3053-2.9069 17.499-1.6796 24.751 3.3041l9.8274-6.4101-7.6046-7.1067c-7.2492 3.5891-15.654 4.0451-23.249 1.2616-6.7782-2.4842-14.349-1.4252-20.185 2.8235l-15.68 11.414z" color="#260000" fill="#f9f9f9" stroke="#b3b3b3" stroke-dasharray="0.5, 0.5" stroke-linecap="round" stroke-linejoin="round" stroke-width=".25"/>
 <path d="m112.53 29.602c6.3707-3.2905 12.684-6.695 19.092-9.9109 4.9499-2.2753 10.413-3.9205 15.913-3.228 3.7209 0.50414 7.3244 1.6259 10.969 2.5007 1.4814 0.38573 2.9603 0.7812 4.4363 1.1869 3.5522-1.2424 6.9877-2.8167 10.253-4.6875" fill="none" stroke="#000" stroke-linecap="round" stroke-linejoin="round" stroke-width=".2"/>
 <text fill="none" font-family="'Arial Nova', 'Arial Unicode MS', 'Yu Gothic UI', sans-serif" font-size="2.8222px" letter-spacing="0px" stroke="#000000" stroke-width=".26458px" word-spacing="0px" style="line-height:0;shape-inside:url(#rect2632);white-space:pre" xml:space="preserve"/>
 <g transform="matrix(.26458 0 0 .26458 118.42 36.902)">
  <ellipse cx="17.483" cy="-98.798" rx="13.199" ry="13.469" fill="#1f638a" stroke-linecap="round" stroke-linejoin="round" stroke-width="1.0658"/>
  <text x="11.641406" y="-91.256096" fill="#000000" font-family="'Arial Nova', 'Arial Unicode MS', 'Yu Gothic UI', sans-serif" font-size="12.8px" letter-spacing="0px" stroke-width="1.0667" word-spacing="0px" style="line-height:0%" xml:space="preserve"><tspan x="11.641406" y="-91.256096" fill="#ffffff" font-family="'Arial Nova', 'Arial Unicode MS', 'Yu Gothic UI', sans-serif" font-size="21.333px" stroke="#ffffff" stroke-width="1.0667" style="line-height:1.25">3</tspan></text>
 </g>
 <g transform="matrix(0 .07718 -.076397 0 153.22 29.377)" fill="#1f638a" stroke="#1f638a" stroke-linecap="round" stroke-linejoin="round" stroke-width="1.3023">
  <path d="m207.49 126.25 34.17 21.614-34.17 21.614z"/>
  <rect x="172.19" y="137.99" width="39.213" height="19.761"/>
 </g>
 <g transform="matrix(0 .07718 -.076397 0 55.663 29.377)" fill="#1f638a" stroke="#1f638a" stroke-linecap="round" stroke-linejoin="round" stroke-width="1.3023">
  <path d="m207.49 126.25 34.17 21.614-34.17 21.614z"/>
  <rect x="172.19" y="137.99" width="39.213" height="19.761"/>
 </g>
 <text x="32.996929" y="28.666519" fill="#000000" font-family="'Arial Nova', 'Arial Unicode MS', 'Yu Gothic UI', sans-serif" font-size="3.3867px" letter-spacing="0px" stroke="#000000" stroke-width=".28223" word-spacing="0px" style="line-height:0%" xml:space="preserve"><tspan x="32.996929" y="28.666519" font-family="'Arial Nova', 'Arial Unicode MS', 'Yu Gothic UI', sans-serif" stroke="#000000" stroke-width=".28223">1</tspan></text>
 <text x="55.456749" y="22.023865" fill="#000000" font-family="'Arial Nova', 'Arial Unicode MS', 'Yu Gothic UI', sans-serif" font-size="3.3867px" letter-spacing="0px" stroke="#000000" stroke-width=".28223" word-spacing="0px" style="line-height:0%" xml:space="preserve"><tspan x="55.456749" y="22.023865" font-family="'Arial Nova', 'Arial Unicode MS', 'Yu Gothic UI', sans-serif" stroke="#000000" stroke-width=".28223">2</tspan></text>
 <text x="77.432114" y="24.425365" fill="#000000" font-family="'Arial Nova', 'Arial Unicode MS', 'Yu Gothic UI', sans-serif" font-size="3.3867px" letter-spacing="0px" stroke="#000000" stroke-width=".28223" word-spacing="0px" style="line-height:0%" xml:space="preserve"><tspan x="77.432114" y="24.425365" font-family="'Arial Nova', 'Arial Unicode MS', 'Yu Gothic UI', sans-serif" stroke="#000000" stroke-width=".28223">3</tspan></text>
 <text x="142.83469" y="23.392109" fill="#000000" font-family="'Arial Nova', 'Arial Unicode MS', 'Yu Gothic UI', sans-serif" font-size="3.3867px" letter-spacing="0px" stroke="#000000" stroke-width=".28223" word-spacing="0px" style="line-height:0%" xml:space="preserve"><tspan x="142.83469" y="23.392109" font-family="'Arial Nova', 'Arial Unicode MS', 'Yu Gothic UI', sans-serif" stroke="#000000" stroke-width=".28223">1</tspan></text>
</svg>
