<?xml version="1.0" encoding="UTF-8"?>
<svg width="18cm" height="5cm" version="1.1" xmlns="http://www.w3.org/2000/svg"><g transform="translate(258.56 261.56)"><ellipse cx="-13.718" cy="-98.798" rx="13.199" ry="13.469" style="fill:#1f638a;stroke-linecap:round;stroke-linejoin:round;stroke-width:1.0658"/><text x="-19.559933" y="-91.125885" style="fill:#000000;font-family:'Arial Nova', 'Arial Unicode MS', 'Yu Gothic UI', sans-serif;font-size:12.8px;letter-spacing:0px;line-height:0%;stroke-width:1.0667;word-spacing:0px" xml:space="preserve"><tspan x="-19.559933" y="-91.125885" style="fill:#ffffff;font-family:'Arial Nova', 'Arial Unicode MS', 'Yu Gothic UI', sans-serif;font-size:21.333px;line-height:1.25;stroke-width:1.0667;stroke:#ffffff">2</tspan></text></g><g transform="matrix(.5559 0 0 .5559 -13.473 24.204)" style="stroke-width:1.7989;stroke:#000"><path d="m175.4 35.77h-43.455" style="stroke-linecap:round;stroke-linejoin:round;stroke-width:6.7998;stroke:#000"/><path d="m153.67 57.498v-43.455" style="stroke-linecap:round;stroke-linejoin:round;stroke-width:6.7998;stroke:#000"/></g><g transform="matrix(.5559 0 0 .5559 17.678 57.523)" style="stroke-width:1.7989;stroke:#000"><path d="m175.4 35.77h-43.455" style="stroke-linecap:round;stroke-linejoin:round;stroke-width:6.7998;stroke:#000"/><path d="m153.67 57.498v-43.455" style="stroke-linecap:round;stroke-linejoin:round;stroke-width:6.7998;stroke:#000"/></g><g transform="matrix(.5559 0 0 .5559 -45.264 75.337)" style="stroke-width:1.7989;stroke:#000"><path d="m175.4 35.77h-43.455" style="stroke-linecap:round;stroke-linejoin:round;stroke-width:6.7998;stroke:#000"/><path d="m153.67 57.498v-43.455" style="stroke-linecap:round;stroke-linejoin:round;stroke-width:6.7998;stroke:#000"/></g><g transform="matrix(.5559 0 0 .5559 14.709 104.43)" style="stroke-width:1.7989;stroke:#000"><path d="m175.4 35.77h-43.455" style="stroke-linecap:round;stroke-linejoin:round;stroke-width:6.7998;stroke:#000"/><path d="m153.67 57.498v-43.455" style="stroke-linecap:round;stroke-linejoin:round;stroke-width:6.7998;stroke:#000"/></g><g transform="matrix(.5559 0 0 .5559 50.931 21.301)" style="stroke-width:1.7989;stroke:#000"><path d="m175.4 35.77h-43.455" style="stroke-linecap:round;stroke-linejoin:round;stroke-width:6.7998;stroke:#000"/><path d="m153.67 57.498v-43.455" style="stroke-linecap:round;stroke-linejoin:round;stroke-width:6.7998;stroke:#000"/></g><g transform="matrix(.5559 0 0 .5559 82.402 77.712)" style="stroke-width:1.7989;stroke:#000"><path d="m175.4 35.77h-43.455" style="stroke-linecap:round;stroke-linejoin:round;stroke-width:6.7998;stroke:#000"/><path d="m153.67 57.498v-43.455" style="stroke-linecap:round;stroke-linejoin:round;stroke-width:6.7998;stroke:#000"/></g><g transform="matrix(.5559 0 0 .5559 256.16 24.798)" style="stroke-width:1.7989"><path d="m175.4 35.77h-43.455" style="fill:none;stroke-linecap:round;stroke-linejoin:round;stroke-width:6.7998;stroke:#f00"/><path d="m153.67 57.498v-43.455" style="fill:none;stroke-linecap:round;stroke-linejoin:round;stroke-width:6.7998;stroke:#f00"/></g><g transform="matrix(.5559 0 0 .5559 287.31 58.117)" style="stroke-width:1.7989"><path d="m175.4 35.77h-43.455" style="fill:none;stroke-linecap:round;stroke-linejoin:round;stroke-width:6.7998;stroke:#f00"/><path d="m153.67 57.498v-43.455" style="fill:none;stroke-linecap:round;stroke-linejoin:round;stroke-width:6.7998;stroke:#f00"/></g><g transform="matrix(.5559 0 0 .5559 224.37 75.931)" style="stroke-width:1.7989"><path d="m175.4 35.77h-43.455" style="fill:none;stroke-linecap:round;stroke-linejoin:round;stroke-width:6.7998;stroke:#f00"/><path d="m153.67 57.498v-43.455" style="fill:none;stroke-linecap:round;stroke-linejoin:round;stroke-width:6.7998;stroke:#f00"/></g><g transform="matrix(.5559 0 0 .5559 284.34 105.03)" style="stroke-width:1.7989"><path d="m175.4 35.77h-43.455" style="fill:none;stroke-linecap:round;stroke-linejoin:round;stroke-width:6.7998;stroke:#f00"/><path d="m153.67 57.498v-43.455" style="fill:none;stroke-linecap:round;stroke-linejoin:round;stroke-width:6.7998;stroke:#f00"/></g><g transform="matrix(.5559 0 0 .5559 320.56 21.895)" style="stroke-width:1.7989"><path d="m175.4 35.77h-43.455" style="fill:none;stroke-linecap:round;stroke-linejoin:round;stroke-width:6.7998;stroke:#f00"/><path d="m153.67 57.498v-43.455" style="fill:none;stroke-linecap:round;stroke-linejoin:round;stroke-width:6.7998;stroke:#f00"/></g><g transform="matrix(.5559 0 0 .5559 352.03 78.306)" style="stroke-width:1.7989"><path d="m175.4 35.77h-43.455" style="fill:none;stroke-linecap:round;stroke-linejoin:round;stroke-width:6.7998;stroke:#f00"/><path d="m153.67 57.498v-43.455" style="fill:none;stroke-linecap:round;stroke-linejoin:round;stroke-width:6.7998;stroke:#f00"/></g><g transform="translate(8)"><g transform="matrix(.5559 0 0 .5559 470.95 23.611)" style="stroke-width:1.7989;stroke:#000"><path d="m175.4 35.77h-43.455" style="stroke-linecap:round;stroke-linejoin:round;stroke-width:6.7998;stroke:#000"/><path d="m153.67 57.498v-43.455" style="stroke-linecap:round;stroke-linejoin:round;stroke-width:6.7998;stroke:#000"/></g><ellipse transform="matrix(.9993 -.037301 .032652 .99947 0 0)" cx="554.67" cy="64.219" rx="5.2921" ry="5.2904" style="fill:#fff;stroke-linecap:round;stroke-linejoin:round;stroke-width:.75591;stroke:#000"/></g><g transform="translate(8)"><g transform="matrix(.5559 0 0 .5559 535.36 20.708)" style="stroke-width:1.7989;stroke:#000"><path d="m175.4 35.77h-43.455" style="stroke-linecap:round;stroke-linejoin:round;stroke-width:6.7998;stroke:#000"/><path d="m153.67 57.498v-43.455" style="stroke-linecap:round;stroke-linejoin:round;stroke-width:6.7998;stroke:#000"/></g><ellipse transform="matrix(.9993 -.037301 .032652 .99947 0 0)" cx="619.13" cy="63.721" rx="5.2921" ry="5.2904" style="fill:#fff;stroke-linecap:round;stroke-linejoin:round;stroke-width:.75591;stroke:#000"/></g><g transform="translate(8)"><g transform="matrix(.5559 0 0 .5559 439.16 74.743)" style="stroke-width:1.7989;stroke:#000"><path d="m175.4 35.77h-43.455" style="stroke-linecap:round;stroke-linejoin:round;stroke-width:6.7998;stroke:#000"/><path d="m153.67 57.498v-43.455" style="stroke-linecap:round;stroke-linejoin:round;stroke-width:6.7998;stroke:#000"/></g><ellipse transform="matrix(.9993 -.037301 .032652 .99947 0 0)" cx="521.22" cy="114.13" rx="5.2921" ry="5.2904" style="fill:#fff;stroke-linecap:round;stroke-linejoin:round;stroke-width:.75591;stroke:#000"/></g><g transform="translate(8)"><g transform="matrix(.5559 0 0 .5559 502.11 56.929)" style="stroke-width:1.7989;stroke:#000"><path d="m175.4 35.77h-43.455" style="stroke-linecap:round;stroke-linejoin:round;stroke-width:6.7998;stroke:#000"/><path d="m153.67 57.498v-43.455" style="stroke-linecap:round;stroke-linejoin:round;stroke-width:6.7998;stroke:#000"/></g><ellipse transform="matrix(.9993 -.037301 .032652 .99947 0 0)" cx="584.71" cy="98.677" rx="5.2921" ry="5.2904" style="fill:#fff;stroke-linecap:round;stroke-linejoin:round;stroke-width:.75591;stroke:#000"/></g><g transform="translate(8)"><g transform="matrix(.5559 0 0 .5559 499.14 103.84)" style="stroke-width:1.7989;stroke:#000"><path d="m175.4 35.77h-43.455" style="stroke-linecap:round;stroke-linejoin:round;stroke-width:6.7998;stroke:#000"/><path d="m153.67 57.498v-43.455" style="stroke-linecap:round;stroke-linejoin:round;stroke-width:6.7998;stroke:#000"/></g><ellipse transform="matrix(.9993 -.037301 .032652 .99947 0 0)" cx="580.22" cy="145.44" rx="5.2921" ry="5.2904" style="fill:#fff;stroke-linecap:round;stroke-linejoin:round;stroke-width:.75591;stroke:#000"/></g><g transform="translate(8)"><g transform="matrix(.5559 0 0 .5559 566.83 77.118)" style="stroke-width:1.7989;stroke:#000"><path d="m175.4 35.77h-43.455" style="stroke-linecap:round;stroke-linejoin:round;stroke-width:6.7998;stroke:#000"/><path d="m153.67 57.498v-43.455" style="stroke-linecap:round;stroke-linejoin:round;stroke-width:6.7998;stroke:#000"/></g><ellipse transform="matrix(.9993 -.037301 .032652 .99947 0 0)" cx="648.75" cy="121.27" rx="5.2921" ry="5.2904" style="fill:#fff;stroke-linecap:round;stroke-linejoin:round;stroke-width:.75591;stroke:#000"/></g><path d="m15.985 16.94v133.22h193.42v-133.22z" style="fill:none;stroke-linecap:round;stroke-linejoin:round;stroke-width:.75591;stroke:#000"/><path d="m16.503 16.92c-0.037848-18.882 242.43-46.698 192.9 133.24" style="fill:none;stroke-dasharray:1.06582679, 2.13165355;stroke-width:1.0658;stroke:#000"/><path d="m209.4 150.16 8.3094-16.201-10.966-1.0956z" style="fill:#fff;stroke-dasharray:1.06582679, 1.06582679;stroke-width:1.0658;stroke:#000"/><path d="m209 174.62 6.2254-5.147 6.9023 14.13 6.2932-3.0742-6.9023-14.13 7.4286-1.523-19.542-14.716z" style="fill:#fff;stroke-linecap:round;stroke-linejoin:round;stroke-width:.75591;stroke:#000"/><g transform="matrix(.2917 0 0 .28875 195.2 51.792)" style="fill:#1f638a;stroke-linecap:round;stroke-linejoin:round;stroke-width:1.2209;stroke:#1f638a"><path d="m207.49 126.25 34.17 21.614-34.17 21.614z" style="fill:#1f638a;stroke-linecap:round;stroke-linejoin:round;stroke-width:1.3023;stroke:#1f638a"/><rect x="172.19" y="137.99" width="39.213" height="19.761" style="fill:#1f638a;stroke-linecap:round;stroke-linejoin:round;stroke-width:1.3023;stroke:#1f638a"/></g><g transform="matrix(.2917 0 0 .28875 425.02 51.792)" style="fill:#1f638a;stroke-linecap:round;stroke-linejoin:round;stroke-width:1.2209;stroke:#1f638a"><path d="m207.49 126.25 34.17 21.614-34.17 21.614z" style="fill:#1f638a;stroke-linecap:round;stroke-linejoin:round;stroke-width:1.3023;stroke:#1f638a"/><rect x="172.19" y="137.99" width="39.213" height="19.761" style="fill:#1f638a;stroke-linecap:round;stroke-linejoin:round;stroke-width:1.3023;stroke:#1f638a"/></g><g transform="translate(119.1 -128.36)"><g transform="translate(354.56 247.34)"><ellipse cx="48.684" cy="-98.798" rx="13.199" ry="13.469" style="fill:#1f638a;stroke-linecap:round;stroke-linejoin:round;stroke-width:1.0658"/><text x="42.842751" y="-91.162346" style="fill:#000000;font-family:'Arial Nova', 'Arial Unicode MS', 'Yu Gothic UI', sans-serif;font-size:12.8px;letter-spacing:0px;line-height:0%;stroke-width:1.0667;word-spacing:0px" xml:space="preserve"><tspan x="42.842751" y="-91.162346" style="fill:#ffffff;font-family:'Arial Nova', 'Arial Unicode MS', 'Yu Gothic UI', sans-serif;font-size:21.333px;line-height:1.25;stroke-width:1.0667;stroke:#ffffff">4</tspan></text></g></g></svg>
