<?xml version="1.0" encoding="UTF-8"?>
<svg width="18cm" height="3cm" version="1.1" xmlns="http://www.w3.org/2000/svg" xmlns:xlink="http://www.w3.org/1999/xlink">
 <defs>
  <pattern id="pattern5432" patternTransform="matrix(-.033502 .033012 -24.137 -24.495 210.51 909.43)" xlink:href="#pattern3824"/>
  <pattern id="pattern5429" patternTransform="matrix(-.033502 .033012 -24.137 -24.495 306.29 909.17)" xlink:href="#pattern3822"/>
  <pattern id="pattern5416" patternTransform="matrix(-.033502 .033012 -24.137 -24.495 402.35 909.43)" xlink:href="#pattern3820-1"/>
  <linearGradient id="linearGradient4606">
   <stop style="stop-color:#fff" offset="0"/>
   <stop style="stop-opacity:0" offset="1"/>
  </linearGradient>
  <pattern id="pattern3826" patternTransform="matrix(-.053156 .052378 -38.297 -38.866 40.238 827.48)" xlink:href="#pattern16632"/>
  <pattern id="pattern3824" patternTransform="matrix(-.049834 .049105 -35.904 -36.437 187.61 772.22)" xlink:href="#pattern16648"/>
  <pattern id="pattern3822" patternTransform="matrix(-.049834 .049105 -35.904 -36.437 330.09 771.84)" xlink:href="#pattern16648-1"/>
  <pattern id="pattern3820" patternTransform="matrix(-.053156 .052378 -38.297 -38.866 513.29 826.94)" xlink:href="#pattern16648-9"/>
  <pattern id="pattern16632" patternTransform="matrix(-.049834 .049105 -35.904 -36.437 37.723 638.01)" xlink:href="#Strips1_64"/>
  <pattern id="Strips1_64" width="65" height="1" patternTransform="translate(0) scale(10)" patternUnits="userSpaceOnUse">
   <rect y="-.5" width="1" height="2"/>
  </pattern>
  <linearGradient id="linearGradient10628">
   <stop style="stop-color:#fff" offset="0"/>
   <stop style="stop-color:#4fa68a" offset="1"/>
  </linearGradient>
  <pattern id="pattern16648" patternTransform="matrix(-.049834 .049105 -35.904 -36.437 185.59 638.22)" xlink:href="#pattern16632-5"/>
  <pattern id="pattern16632-5" patternTransform="matrix(-.049834 .049105 -35.904 -36.437 17.723 598.01)" xlink:href="#Strips1_64-2"/>
  <pattern id="Strips1_64-2" width="65" height="1" patternTransform="translate(0) scale(10)" patternUnits="userSpaceOnUse">
   <rect y="-.5" width="1" height="2"/>
  </pattern>
  <pattern id="pattern16648-1" patternTransform="matrix(-.049834 .049105 -35.904 -36.437 333.37 637.84)" xlink:href="#pattern16632-2"/>
  <pattern id="pattern16632-2" patternTransform="matrix(-.049834 .049105 -35.904 -36.437 17.723 598.01)" xlink:href="#Strips1_64-28"/>
  <pattern id="Strips1_64-28" width="65" height="1" patternTransform="translate(0) scale(10)" patternUnits="userSpaceOnUse">
   <rect y="-.5" width="1" height="2"/>
  </pattern>
  <pattern id="pattern16648-9" patternTransform="matrix(-.049834 .049105 -35.904 -36.437 481.21 637.51)" xlink:href="#pattern16632-9"/>
  <pattern id="pattern16632-9" patternTransform="matrix(-.049834 .049105 -35.904 -36.437 17.723 598.01)" xlink:href="#Strips1_64-5"/>
  <pattern id="Strips1_64-5" width="65" height="1" patternTransform="translate(0) scale(10)" patternUnits="userSpaceOnUse">
   <rect y="-.5" width="1" height="2"/>
  </pattern>
  <linearGradient id="linearGradient3828" x1="481.06" x2="600.83" y1="822.55" y2="822.55" gradientTransform="matrix(1.0667 0 0 1.0667 21.333 189.6)" gradientUnits="userSpaceOnUse" xlink:href="#linearGradient10628"/>
  <linearGradient id="linearGradient3830" x1="37.563" x2="157.33" y1="822.55" y2="822.55" gradientTransform="matrix(1.0667 0 0 1.0667 21.333 189.6)" gradientUnits="userSpaceOnUse" xlink:href="#linearGradient10628"/>
  <pattern id="pattern3820-1" patternTransform="matrix(-.049834 .049105 -35.904 -36.437 253.12 875.39)" xlink:href="#pattern16648-9-7"/>
  <pattern id="pattern16648-9-7" patternTransform="matrix(-.049834 .049105 -35.904 -36.437 481.21 637.51)" xlink:href="#pattern16632-9-4"/>
  <pattern id="pattern16632-9-4" patternTransform="matrix(-.049834 .049105 -35.904 -36.437 17.723 598.01)" xlink:href="#Strips1_64-5-0"/>
  <pattern id="Strips1_64-5-0" width="65" height="1" patternTransform="translate(0) scale(10)" patternUnits="userSpaceOnUse">
   <rect y="-.5" width="1" height="2"/>
  </pattern>
  <linearGradient id="linearGradient5572" x1="353.23" x2="473" y1="996.55" y2="996.55" gradientTransform="matrix(.67227 0 0 .67227 82.18 390.29)" gradientUnits="userSpaceOnUse" xlink:href="#linearGradient4606"/>
  <linearGradient id="linearGradient5574" x1="205.39" x2="325.16" y1="996.55" y2="996.55" gradientTransform="matrix(.67227 0 0 .67227 85.745 390.29)" gradientUnits="userSpaceOnUse" xlink:href="#linearGradient4606"/>
  <linearGradient id="linearGradient5576" x1="251.03" x2="326.75" y1="1059.4" y2="1059.4" gradientTransform="matrix(1.0667 0 0 1.0667 147.89 -70.307)" gradientUnits="userSpaceOnUse" xlink:href="#linearGradient4606"/>
 </defs>
 <g transform="translate(0 -1009.1)">
  <path d="m188.82 1107.2v-80.508l-127.08 34.05v46.457h127.08z" style="color:#000000;fill:url(#linearGradient3830);stroke-dashoffset:1.5856;stroke-linecap:round;stroke-linejoin:round;stroke-width:.67654;stroke:#67977f"/>
  <path d="m661.88 1107.2v-80.508l-127.08 34.05v46.457h127.08z" style="color:#000000;fill:url(#linearGradient3828);stroke-dashoffset:1.5856;stroke-linecap:round;stroke-linejoin:round;stroke-width:.67654;stroke:#67977f"/>
  <path d="m188.82 1107.2v-80.508l-127.08 34.05v46.457h127.08z" style="color:#000000;fill:url(#pattern3826);opacity:.49104"/>
  <path d="m661.87 1106.7v-80.508l-127.08 34.05v46.457h127.08z" style="color:#000000;fill:url(#pattern3820);opacity:.49104"/>
  <path d="m76.789 1056.8c4.8402-1.4602 6.0987 0.4621 5.8351 3.8222v21.97h24.621v-28.588c-0.19273-3.4958 0.97534-6.0638 4.9456-6.7213z" style="color:#000000;fill:#739ba5;stroke-dashoffset:1.5856;stroke-linecap:round;stroke-linejoin:round;stroke-width:.67654;stroke:#16434a"/>
  <path d="m607.3 1041.3c4.8402-1.4603 6.0987 0.4621 5.8351 3.8221v37.38h24.621v-43.998c-0.19273-3.4958 0.97534-6.0638 4.9456-6.7213z" style="color:#000000;fill:#739ba5;stroke-dashoffset:1.5856;stroke-linecap:round;stroke-linejoin:round;stroke-width:.67654;stroke:#16434a"/>
  <path d="m613.24 1045.1 24.381-6.5696" style="color:#000000;fill:#739ba5;stroke-dashoffset:1.5856;stroke-linecap:round;stroke-linejoin:round;stroke-width:.67654;stroke:#16434a"/>
  <path d="m82.848 1060.8 24.381-6.5697" style="color:#000000;fill:#739ba5;stroke-dashoffset:1.5856;stroke-linecap:round;stroke-linejoin:round;stroke-width:.67654;stroke:#16434a"/>
  <g transform="matrix(.2917 0 0 .28875 142.55 1028.6)" style="fill:#1f638a;stroke-linecap:round;stroke-linejoin:round;stroke-width:1.2209;stroke:#1f638a">
   <path d="m207.49 126.25 34.17 21.614-34.17 21.614z" style="fill:#1f638a;stroke-linecap:round;stroke-linejoin:round;stroke-width:1.3023;stroke:#1f638a"/>
   <rect x="172.19" y="137.99" width="39.213" height="19.761" style="fill:#1f638a;stroke-linecap:round;stroke-linejoin:round;stroke-width:1.3023;stroke:#1f638a"/>
  </g>
  <g transform="matrix(.2917 0 0 .28875 461.47 1028.6)" style="fill:#1f638a;stroke-linecap:round;stroke-linejoin:round;stroke-width:1.2209;stroke:#1f638a">
   <path d="m207.49 126.25 34.17 21.614-34.17 21.614z" style="fill:#1f638a;stroke-linecap:round;stroke-linejoin:round;stroke-width:1.3023;stroke:#1f638a"/>
   <rect x="172.19" y="137.99" width="39.213" height="19.761" style="fill:#1f638a;stroke-linecap:round;stroke-linejoin:round;stroke-width:1.3023;stroke:#1f638a"/>
  </g>
  <g transform="translate(321.96 1029.6)">
   <ellipse cx="-291.36" cy="29.373" rx="13.199" ry="13.469" style="fill:#1f638a;stroke-linecap:round;stroke-linejoin:round;stroke-width:1.0658"/>
   <text x="-298.78693" y="37.00808" style="fill:#000000;font-family:'Arial Nova', 'Arial Unicode MS', 'Yu Gothic UI', sans-serif;font-size:12.8px;letter-spacing:0px;line-height:0%;stroke-width:1.0667;word-spacing:0px" xml:space="preserve"><tspan x="-298.78693" y="37.00808" style="fill:#ffffff;font-family:'Arial Nova', 'Arial Unicode MS', 'Yu Gothic UI', sans-serif;font-size:21.333px;font-weight:bold;stroke-width:1.0667">C</tspan></text>
  </g>
  <rect x="214.42" y="1020.1" width="294.7" height="89.971" rx="18.898" ry="18.898" style="color:#000000;fill:none;stroke-linecap:round;stroke-linejoin:round;stroke-width:1.8898;stroke:#808080"/>
  <g transform="translate(1.711 5.196)">
   <g transform="translate(.15839 -.1948)">
    <path d="m399.95 1085.6v-50.74l-80.09 21.46v29.28h80.09z" style="color:#000000;fill:url(#linearGradient5572);stroke-dashoffset:1.5856;stroke-linecap:round;stroke-linejoin:round;stroke-width:.67654;stroke:#fff"/>
    <path d="m399.94 1085.5v-50.74l-80.09 21.46v29.28h80.09z" style="color:#000000;fill:url(#pattern5429);opacity:.49104"/>
    <path d="m369.32 1043.1v26.955h15.517v-31.092z" style="color:#000000;fill:#b3b3b3;stroke-dashoffset:1.5856;stroke-linecap:round;stroke-linejoin:round;stroke-width:.67654;stroke:#666"/>
   </g>
   <g transform="translate(2.1417e-6 -.1948)">
    <path d="m304.13 1085.6v-50.74l-80.091 21.46v29.28h80.091z" style="color:#000000;fill:url(#linearGradient5574);stroke-dashoffset:1.5856;stroke-linecap:round;stroke-linejoin:round;stroke-width:.67654;stroke:#fff"/>
    <path d="m304.15 1085.8v-50.74l-80.091 21.46v29.28h80.091z" style="color:#000000;fill:url(#pattern5432);opacity:.49104"/>
    <path d="m237.2 1053v17.063h15.517v-21.2z" style="color:#000000;fill:#b3b3b3;stroke-dashoffset:1.5856;stroke-linecap:round;stroke-linejoin:round;stroke-width:.67654;stroke:#666"/>
    <path d="m233.52 1053.7c3.0505-0.9203 3.8437 0.2912 3.6776 2.4089l15.517-4.1709c-0.12147-2.2032 0.61471-3.8217 3.117-4.2361z" style="color:#000000;fill:#f60;stroke-dashoffset:1.5856;stroke-linecap:round;stroke-linejoin:round;stroke-width:.67654;stroke:#f60"/>
    <g transform="translate(-10.095 -6.8571)">
     <path d="m255.96 1046.9c-4.0929 5.1774-5.1778 6.5101-5.1778 6.5101" style="fill:#f60;stroke-linecap:round;stroke-linejoin:round;stroke-width:1.8898;stroke:#f60"/>
     <path d="m250.78 1046.9c4.0929 5.1774 5.1778 6.5101 5.1778 6.5101" style="fill:#f60;stroke-linecap:round;stroke-linejoin:round;stroke-width:1.8898;stroke:#f60"/>
    </g>
   </g>
   <g transform="translate(3.3449e-6)">
    <path d="m496.08 1085.1v-50.74l-80.091 21.46v29.28h80.091z" style="color:#000000;fill:url(#linearGradient5576);stroke-dashoffset:1.5856;stroke-linecap:round;stroke-linejoin:round;stroke-width:.67654;stroke:#fff"/>
    <path d="m495.99 1085.8v-50.74l-80.091 21.46v29.28h80.091z" style="color:#000000;fill:url(#pattern5416);opacity:.49104"/>
    <path d="m461.68 1043.6c3.0505-0.9203 3.8437 0.2912 3.6775 2.4089v23.559h15.517v-27.73c-0.12148-2.2033 0.61471-3.8218 3.117-4.2362z" style="color:#000000;fill:#b3b3b3;stroke-dashoffset:1.5856;stroke-linecap:round;stroke-linejoin:round;stroke-width:.67654;stroke:#666"/>
    <path d="m465.43 1046 15.366-4.1405" style="color:#000000;fill:#f60;stroke-dashoffset:1.5856;stroke-linecap:round;stroke-linejoin:round;stroke-width:.67654;stroke:#f60"/>
    <path d="m480.88 1041.8c-0.12148-2.2033 0.61471-3.8218 3.117-4.2362l-22.312 5.9981c3.0505-0.9203 3.8437 0.2912 3.6775 2.4089" style="color:#000000;fill:#f60;stroke-dashoffset:1.5856;stroke-linecap:round;stroke-linejoin:round;stroke-width:.67654;stroke:#f60"/>
   </g>
  </g>
  <g transform="rotate(-34.984 1718.2 -790.97)" style="fill:#f60;stroke:#f60">
   <path d="m-423.94-49.123 5.0723 20.997h-10.145c1.7968-10.641 5.0723-20.997 5.0723-20.997z" style="fill:#f60;stroke-linecap:round;stroke-linejoin:round;stroke-width:1.8898;stroke:#f60"/>
   <path d="m-423.98-34.35 0.18925 51.074" style="fill:none;stroke-linecap:round;stroke-linejoin:round;stroke-width:1.8898;stroke:#f60"/>
  </g>
  <g transform="matrix(-.81931 -.57335 -.57335 .81931 -6.5075 846.46)" style="fill:#f60;stroke:#f60">
   <path d="m-423.94-49.123 5.0723 20.997h-10.145c1.7968-10.641 5.0723-20.997 5.0723-20.997z" style="fill:#f60;stroke-linecap:round;stroke-linejoin:round;stroke-width:1.8898;stroke:#f60"/>
   <path d="m-423.98-34.35-0.10797 45.519" style="fill:none;stroke-linecap:round;stroke-linejoin:round;stroke-width:1.8898;stroke:#f60"/>
  </g>
  <g transform="translate(1.7143 3.2381)">
   <path d="m473.35 1034.8c-6.5998 1e-3 -8.3182-0.023-8.3182-0.023" style="fill:#f60;stroke-linecap:round;stroke-linejoin:round;stroke-width:1.8898;stroke:#f60"/>
   <path d="m469.18 1030.6c-5e-3 6.5998 0.0185 8.3182 0.0185 8.3182" style="fill:#f60;stroke-linecap:round;stroke-linejoin:round;stroke-width:1.8898;stroke:#f60"/>
  </g>
  <g transform="translate(-825.85 955.51)">
   <path d="m921.12 69.511h65.333" style="fill:none;stroke-dasharray:3.0046793, 3.0046793;stroke-width:1.0016;stroke:#008000"/>
   <path d="m990.22 69.373-12.571-4.1905v8.7619z" style="fill:#fff;stroke-dasharray:3.19748039, 3.19748039;stroke-linecap:round;stroke-linejoin:round;stroke-width:1.0658;stroke:#008000"/>
  </g>
  <path d="m100.47 1098.7 6.2254-5.147 6.9023 14.13 6.2932-3.0742-6.9023-14.13 7.4286-1.523-19.542-14.716z" style="fill:#fff;stroke-linecap:round;stroke-linejoin:round;stroke-width:.75591;stroke:#000"/>
 </g>
</svg>
