<?xml version="1.0" encoding="UTF-8"?>
<svg width="680.32" height="264.57" version="1.1" xmlns="http://www.w3.org/2000/svg" xmlns:xlink="http://www.w3.org/1999/xlink"><defs><linearGradient id="linearGradient3831-8-8-4"><stop style="stop-color:#716e6e" offset="0"/><stop style="stop-color:#f6f6f6" offset=".5"/><stop style="stop-color:#848484" offset="1"/></linearGradient><linearGradient id="linearGradient3862-5-7"><stop style="stop-color:#817e7e" offset="0"/><stop style="stop-color:#b5b1b1" offset=".5"/><stop style="stop-color:#848484" offset="1"/></linearGradient><linearGradient id="linearGradient5402" x1="-578.35" x2="-578.34" y1="551.63" y2="579.16" gradientTransform="matrix(.63716 0 0 .48897 542.85 -51.54)" gradientUnits="userSpaceOnUse" xlink:href="#linearGradient3831-8-8-4"/><linearGradient id="linearGradient5408" x1="-578.35" x2="-578.34" y1="551.63" y2="579.16" gradientTransform="matrix(.63716 0 0 .48897 542.86 -218.49)" gradientUnits="userSpaceOnUse"><stop style="stop-color:#757884" offset="0"/><stop style="stop-color:#fff" offset=".5"/><stop style="stop-color:#757884" offset="1"/></linearGradient><linearGradient id="linearGradient5414" x1="-624.43" x2="-624.31" y1="643.21" y2="681.58" gradientTransform="matrix(.48897 0 0 .48897 457.42 -182.16)" gradientUnits="userSpaceOnUse" xlink:href="#linearGradient3862-5-7"/><linearGradient id="linearGradient5417" x1="-620.09" x2="-618.95" y1="619.7" y2="703.45" gradientTransform="matrix(.48897 0 0 .48897 457.42 -182.16)" gradientUnits="userSpaceOnUse" xlink:href="#linearGradient3831-8-8-4"/><linearGradient id="linearGradient5420" x1="-707.14" x2="-707.64" y1="642.39" y2="684.47" gradientTransform="matrix(.48897 0 0 .48897 457.42 -182.16)" gradientUnits="userSpaceOnUse" xlink:href="#linearGradient3862-5-7"/><pattern id="pattern9324" patternTransform="matrix(.050583 -.048297 8.6749 9.0856 453.81 16.51)" xlink:href="#pattern9283-1"/><pattern id="pattern9283-1" patternTransform="matrix(.047422 -.045278 8.1327 8.5178 425.45 819.81)" xlink:href="#pattern9210-9-2"/><pattern id="pattern9210-9-2" patternTransform="matrix(.047355 -.045348 8.1452 8.5058 426.65 819.18)" xlink:href="#pattern9529-8-5"/><pattern id="pattern9529-8-5" patternTransform="matrix(.047355 -.045348 8.1452 8.5058 491.3 -47.923)" xlink:href="#pattern9496-2-0"/><pattern id="pattern9496-2-0" patternTransform="matrix(.047355 -.045348 8.1452 8.5058 396.14 -51.594)" xlink:href="#pattern9487-5-8"/><pattern id="pattern9487-5-8" patternTransform="matrix(.056516 -.039102 6.9938 10.109 354.71 164.31)" xlink:href="#Strips1_64-5-3"/><pattern id="Strips1_64-5-3" width="65" height="1" patternTransform="translate(0) scale(10)" patternUnits="userSpaceOnUse"><rect y="-.5" width="1" height="2"/></pattern><linearGradient id="linearGradient956" x1="480.83" x2="482.41" y1="316.07" y2="520.27" gradientTransform="matrix(1.0667,0,0,1.0667,0,-302.36)" gradientUnits="userSpaceOnUse"><stop style="stop-color:#fff;stop-opacity:.38384" offset="0"/><stop style="stop-color:#808080" offset="1"/></linearGradient><linearGradient id="linearGradient1041" x1="477.17" x2="462.25" y1="233.26" y2="115.69" gradientUnits="userSpaceOnUse"><stop style="stop-color:#ff8f40" offset="0"/><stop style="stop-color:#fff" offset="1"/></linearGradient><linearGradient id="linearGradient1051" x1="406.79" x2="401.92" y1="239.81" y2="108.58" gradientUnits="userSpaceOnUse"><stop style="stop-color:#ffb540" offset="0"/><stop style="stop-color:#fff;stop-opacity:.99535" offset="1"/></linearGradient><linearGradient id="linearGradient1061" x1="383.31" x2="381.07" y1="218.47" y2="121.09" gradientUnits="userSpaceOnUse"><stop style="stop-color:#ffd94a" offset="0"/><stop style="stop-color:#fff;stop-opacity:.98605" offset="1"/></linearGradient><linearGradient id="linearGradient1071" x1="243.44" x2="78.648" y1="324.47" y2="326.25" gradientUnits="userSpaceOnUse"><stop style="stop-color:#deaa87" offset="0"/><stop style="stop-color:#fff" offset="1"/></linearGradient><linearGradient id="linearGradient1081" x1="251.91" x2="104.23" y1="288.4" y2="286.03" gradientUnits="userSpaceOnUse"><stop style="stop-color:#c87137" offset="0"/><stop style="stop-color:#fff" offset="1"/></linearGradient></defs><path d="m445.41 35.24-25.826 177.23h-64.856v38.405h253.91v-215.63z" style="fill:url(#linearGradient956);stroke-width:1.0667px;stroke:#7d7d7d"/><rect transform="matrix(0,1,1,0,0,0)" x="62.83" y="266.51" width="156.85" height="43.787" style="color:#000000;fill:url(#linearGradient1081);stroke-linecap:round;stroke-linejoin:round;stroke-width:.67654;stroke:#502d16"/><path d="m342.08 87.36 0.22899 107.84h41.393v-107.84z" style="color:#000000;fill:url(#linearGradient1061);stroke-linecap:round;stroke-linejoin:round;stroke-width:.67654;stroke:#502d16"/><path d="m383.38 87.32 0.64761 107.83 38.902-5.1433 13.093-91.659z" style="color:#000000;fill:url(#linearGradient1051);stroke-linecap:round;stroke-linejoin:round;stroke-width:.67654;stroke:#502d16"/><path d="m436.08 98.36-13.206 91.656 113.26-15.558-0.2161-20.963-25.911-39.646z" style="color:#000000;fill:url(#linearGradient1041);stroke-linecap:round;stroke-linejoin:round;stroke-width:.67654;stroke:#502d16"/><rect transform="matrix(0,1,1,0,0,0)" x="78.11" y="310.3" width="136.18" height="31.901" style="color:#000000;fill:url(#linearGradient1071);stroke-linecap:round;stroke-linejoin:round;stroke-width:.67654;stroke:#502d16"/><rect transform="matrix(0,1,1,0,0,0)" x="68.34" y="310.3" width="9.7427" height="31.901" style="color:#000000;fill:#deaa87;stroke-linecap:round;stroke-linejoin:round;stroke-width:.67654;stroke:#502d16"/><rect x="197.9" y="37.15" width="68.821" height="209.11" style="color:#000000;fill:#ececec;stroke-linecap:round;stroke-linejoin:round;stroke-width:.677;stroke:#502d16"/><rect x="107.09" y="123.42" width="21.857" height="36.428" style="color:#000000;fill:url(#linearGradient5417);stroke-linecap:round;stroke-linejoin:round;stroke-width:.67654;stroke:#502d16"/><rect x="154.35" y="120.89" width="44.063" height="41.491" style="color:#000000;fill:url(#linearGradient5417);stroke-linecap:round;stroke-linejoin:round;stroke-width:.67654;stroke:#502d16"/><rect x="140.62" y="125.64" width="9.0144" height="31.983" style="color:#000000;fill:url(#linearGradient5417);stroke-linecap:round;stroke-linejoin:round;stroke-width:.67654;stroke:#502d16"/><rect x="129.13" y="120.95" width="6.7917" height="41.367" style="color:#000000;fill:url(#linearGradient5417);stroke-linecap:round;stroke-linejoin:round;stroke-width:.67654;stroke:#502d16"/><path d="m105.52 124.44 1.5993-0.97795v36.341l-1.5993-0.9779z" style="color:#000000;fill:url(#linearGradient5420);stroke-linecap:round;stroke-linejoin:round;stroke-width:.67654;stroke:#502d16"/><path d="m136 120.89 4.5956 4.8897v31.711l-4.5956 4.8897z" style="color:#000000;fill:url(#linearGradient5417);stroke-linecap:round;stroke-linejoin:round;stroke-width:.67654;stroke:#502d16"/><path d="m154.35 120.89-4.5956 4.8897v31.711l4.5956 4.8897z" style="color:#000000;fill:url(#linearGradient5414);stroke-linecap:round;stroke-linejoin:round;stroke-width:.67654;stroke:#502d16"/><path d="m175.2 47.37h22.484v4.6278h-22.484z" style="color:#000000;fill:#828282;stroke-linecap:round;stroke-linejoin:round;stroke-width:.67654;stroke:#502d16"/><path d="m175.2 63.5h22.484v4.6278h-22.484z" style="color:#000000;fill:#b1b1b1;stroke-linecap:round;stroke-linejoin:round;stroke-width:.67654;stroke:#502d16"/><path d="m175.2 52.04h22.484v11.482h-22.484z" style="color:#000000;fill:#ececec;stroke-linecap:round;stroke-linejoin:round;stroke-width:.67654;stroke:#502d16"/><rect x="173.6" y="51.25" width="1.5929" height="13.447" style="color:#000000;fill:url(#linearGradient5408);stroke-linecap:round;stroke-linejoin:round;stroke-width:.67654;stroke:#502d16"/><path d="m175.19 214.35h22.484v4.6279h-22.484z" style="color:#000000;fill:#828282;stroke-linecap:round;stroke-linejoin:round;stroke-width:.67654;stroke:#502d16"/><path d="m175.19 230.45h22.484v4.6278h-22.484z" style="color:#000000;fill:#b1b1b1;stroke-linecap:round;stroke-linejoin:round;stroke-width:.67654;stroke:#502d16"/><path d="m175.19 218.95h22.484v11.482h-22.484z" style="color:#000000;fill:#ececec;stroke-linecap:round;stroke-linejoin:round;stroke-width:.67654;stroke:#502d16"/><rect x="173.58" y="218.25" width="1.5929" height="13.447" style="color:#000000;fill:url(#linearGradient5402);stroke-linecap:round;stroke-linejoin:round;stroke-width:.67654;stroke:#502d16"/><path d="m278.57 45.22 12.571-4.1905v8.7619z" style="stroke-linecap:round;stroke-linejoin:round;stroke-width:1.0658;stroke:#000"/><path d="m251.38 45.41h69.705" style="stroke-linecap:round;stroke-linejoin:round;stroke-width:.94488;stroke:#000"/><path d="m266.82 45.22-12.571-4.1905v8.7619z" style="stroke-linecap:round;stroke-linejoin:round;stroke-width:1.0658;stroke:#000"/><path d="m445.41 35.24-7.5844 52.047s17.705 7.9705 27.13 7.9696c7.7442-6.9e-4 14.791-8.4871 22.289-6.552 8.2116 2.1191 10.638 13.692 17.889 18.091 7.6985 4.6698 19.84 1.2289 25.81 7.9696 5.841 6.5956-0.14417 18.645 4.6875 26.012 4.5108 6.8779 19.127 5.5856 20.529 13.69 1.3132 7.5877-11.833 11.084-13.795 18.531-1.3977 5.3051 5.9508 12.476 2.0472 16.33-6.7798 6.6951-18.956-5.6952-28.316-3.9117-8.8268 1.6819-14.597 11.869-23.476 13.25-7.7496 1.206-15.218-5.4158-23.036-4.7918-8.6615 0.6914-15.668 9.4207-24.356 9.2898-8.2681-0.1245-22.902-9.5348-22.902-9.5348l-1.0331 7.0895-1.7124 11.751h-64.856v38.405h253.91v-215.63z" style="fill:url(#linearGradient956);stroke-width:1.0667px;stroke:#7d7d7d"/><path d="m445.56 35.16 162.87 0.57925 0.8048 214.9-253.96-0.5792-0.86625-37.852 64.265 0.4404 2.8818-19.024s15.14 9.4585 23.643 9.5843c8.7667 0.1298 15.921-8.4303 24.658-9.1557 7.7095-0.6402 15.151 5.5956 22.791 4.3797 8.8679-1.4114 14.745-11.382 23.569-13.045 9.2804-1.7489 21.395 10.427 28.081 3.7573 3.8085-3.7994-3.4327-10.789-2.1018-16.001 1.9038-7.4563 14.89-11.058 13.612-18.646-1.3575-8.0609-15.75-7.0891-20.149-13.979-4.6417-7.2694 1.2314-18.99-4.4355-25.492-6.0278-6.9161-18.376-3.6146-26.217-8.3779-7.2196-4.3859-9.7769-15.815-17.971-17.868-7.3795-1.8493-14.253 6.5756-21.861 6.5579-9.5703-0.0223-27.461-8.3779-27.461-8.3779z" style="fill:url(#pattern9324);opacity:.5"/><text x="23.944841" y="238.73372" style="fill:#000000;font-family:'Arial Nova', 'Arial Unicode MS', 'Yu Gothic UI', sans-serif;font-size:12.8px;letter-spacing:0px;line-height:0%;stroke-width:1.0667;stroke:#000000;word-spacing:0px" xml:space="preserve"><tspan x="23.944841" y="238.73372" style="fill:#ff0000;font-family:'Arial Nova', 'Arial Unicode MS', 'Yu Gothic UI', sans-serif;font-size:10.667px;line-height:1.25;stroke-width:1.0667;stroke:#000000">Z</tspan></text><g transform="rotate(-90 -329.4 587.12)"><path d="m12.762 945.45 0.12755 28.961" style="fill:#800080;stroke-linecap:round;stroke-linejoin:round;stroke-width:.75591;stroke:#000"/><path d="m12.796 938.49 3.6977 15.307h-7.3955c1.3098-7.7569 3.6977-15.307 3.6977-15.307z" style="fill:#fff;stroke-linecap:round;stroke-linejoin:round;stroke-width:.75591;stroke:#000"/><path d="m37.076 974.35-24.024-0.10314" style="fill:#800080;stroke-linecap:round;stroke-linejoin:round;stroke-width:.75591;stroke:#000"/><path d="m45.666 974.37-15.312 3.6735 0.01173-7.3955z" style="fill:#fff;stroke-linecap:round;stroke-linejoin:round;stroke-width:.75591;stroke:#000"/><g transform="translate(-269.04,1176)"><circle cx="281.86" cy="-201.87" r="3.6775" style="color:#000000;fill:#fff;stroke-linecap:round;stroke-linejoin:round;stroke-width:.75591;stroke:#000"/><circle cx="281.86" cy="-201.87" r=".37795" style="color:#000000"/></g></g><g transform="translate(350.05 124.9)"><ellipse cx="-44.92" cy="-98.798" rx="13.199" ry="13.469" style="fill:#1f638a;stroke-linecap:round;stroke-linejoin:round;stroke-width:1.0658"/><text x="-50.761276" y="-91.125885" style="fill:#000000;font-family:'Arial Nova', 'Arial Unicode MS', 'Yu Gothic UI', sans-serif;font-size:12.8px;letter-spacing:0px;line-height:0%;stroke-width:1.0667;word-spacing:0px" xml:space="preserve"><tspan x="-50.761276" y="-91.125885" style="fill:#ffffff;font-family:'Arial Nova', 'Arial Unicode MS', 'Yu Gothic UI', sans-serif;font-size:21.333px;line-height:1.25;stroke-width:1.0667;stroke:#ffffff">1</tspan></text></g><path d="m105.58 25.649 0.96662 232.29 170.6-0.1002v-232.22z" style="color:#000000;fill-opacity:.63077;fill:#faa;stroke-linecap:round;stroke-linejoin:round;stroke-width:1.8898;stroke:#f00"/><path d="m277.15 229.78h43.567v-177.77h-43.567z" style="color:#000000;fill-opacity:.63077;fill:#faa;stroke-linecap:round;stroke-linejoin:round;stroke-width:1.8898;stroke:#f00"/><path d="m320.71 224.35h31.9v-166.9h-31.9v83.45z" style="color:#000000;fill-opacity:.63077;fill:#faa;stroke-linecap:round;stroke-linejoin:round;stroke-width:1.8898;stroke:#f00"/></svg>
