<?xml version="1.0" encoding="UTF-8"?>
<svg width="18cm" height="7cm" version="1.1" xmlns="http://www.w3.org/2000/svg" xmlns:osb="http://www.openswatchbook.org/uri/2009/osb" xmlns:xlink="http://www.w3.org/1999/xlink">
 <defs>
  <linearGradient id="linearGradient17800-4">
   <stop style="stop-color:#fff" offset="0"/>
   <stop style="stop-color:#4fa68a" offset="1"/>
  </linearGradient>
  <linearGradient id="linearGradient13961" x1="353.27" x2="620.93" y1="314.37" y2="314.37" gradientUnits="userSpaceOnUse" xlink:href="#linearGradient17800-4"/>
  <linearGradient id="linearGradient14097" x1="353.27" x2="620.93" y1="314.37" y2="314.37" gradientTransform="scale(1.0667)" gradientUnits="userSpaceOnUse" xlink:href="#linearGradient17800-4"/>
  <linearGradient id="linearGradient14103" x1="353.27" x2="620.93" y1="314.37" y2="314.37" gradientTransform="matrix(1.0667 0 0 1.0667 0 -1.7292e-6)" gradientUnits="userSpaceOnUse" xlink:href="#linearGradient17800-4"/>
  <linearGradient id="linearGradient14425" x1="453.71" x2="488.52" y1="192.37" y2="255.36" gradientTransform="matrix(.74489 0 0 .74489 -302.2 172.94)" gradientUnits="userSpaceOnUse" xlink:href="#linearGradient17800-4"/>
  <linearGradient id="linearGradient14429" x1="445.88" x2="574.22" y1="196.97" y2="196.97" gradientTransform="matrix(.74489 0 0 .74489 -302.2 172.94)" gradientUnits="userSpaceOnUse" xlink:href="#linearGradient17800-4"/>
  <linearGradient id="linearGradient14446" x1="498.96" x2="576.51" y1="170.3" y2="260.85" gradientTransform="matrix(.74489 0 0 .74489 -252.05 201.06)" gradientUnits="userSpaceOnUse">
   <stop style="stop-color:#fff" offset="0"/>
   <stop style="stop-color:#4fa68a" offset="1"/>
  </linearGradient>
  <linearGradient id="linearGradient20735" x1="453.71" x2="488.52" y1="192.37" y2="255.36" gradientTransform="matrix(.74489 0 0 .74489 66.714 189.3)" gradientUnits="userSpaceOnUse" xlink:href="#linearGradient17800-4"/>
  <linearGradient id="linearGradient20737" x1="498.96" x2="576.51" y1="170.3" y2="260.85" gradientTransform="matrix(.74489 0 0 .74489 116.87 217.42)" gradientUnits="userSpaceOnUse">
   <stop style="stop-color:#fff" offset="0"/>
   <stop style="stop-color:#4fa68a" offset="1"/>
  </linearGradient>
  <linearGradient id="linearGradient20739" x1="445.88" x2="574.22" y1="196.97" y2="196.97" gradientTransform="matrix(.74489 0 0 .74489 66.714 189.3)" gradientUnits="userSpaceOnUse" xlink:href="#linearGradient17800-4"/>
 </defs>
 <g transform="translate(0 -188.98)">
  <g transform="translate(-351.46 -26.563)" style="fill:url(#linearGradient13961)">
   <path d="m519.87 289.11 47.419 26.979v38.685l-47.344-27.354z" style="fill:url(#linearGradient14097);stroke-linecap:round;stroke-linejoin:round;stroke-width:1.8898;stroke:#67977f"/>
   <path d="m472.5 315.93v38.447l46.997-27.321v-37.918z" style="fill:url(#linearGradient14097);stroke-linecap:round;stroke-linejoin:round;stroke-width:1.8898;stroke:#67977f"/>
   <path d="m519.31 234.67-141.33 81.033 142.7 81.967 140.7-81.267zm0.3 54.5 47.2 27.033-46.833 26.967-47.433-27.133z" style="color:#000000;fill:url(#linearGradient14097);stroke-dashoffset:1.5856;stroke-linecap:round;stroke-linejoin:round;stroke-width:1.8898;stroke:#67977f"/>
   <path d="m378.09 316.08 142.45 81.445-0.16096 38.147-142.61-81.445z" style="color:#000000;fill-rule:evenodd;fill:url(#linearGradient14103);stroke-dashoffset:1.5856;stroke-linecap:round;stroke-linejoin:round;stroke-width:1.8898;stroke:#67977f"/>
   <path d="m661.38 316.57-141.48 81.284 0.16096 38.147 141.16-81.123z" style="color:#000000;fill-rule:evenodd;fill:url(#linearGradient14097);stroke-dashoffset:1.5856;stroke-linecap:round;stroke-linejoin:round;stroke-width:1.8898;stroke:#67977f"/>
  </g>
  <path d="m30.594 319.55 47.084-26.892 96.589 55.507-46.818 26.965z" style="fill:url(#linearGradient14429);stroke-linecap:round;stroke-linejoin:round;stroke-width:1.8898;stroke:#67977f"/>
  <path d="m30.56 319.57 97.042 55.205v38.685l-96.967-55.58z" style="fill:url(#linearGradient14425);stroke-linecap:round;stroke-linejoin:round;stroke-width:1.8898;stroke:#67977f"/>
  <path d="m251.37 362.46 6.2254-5.147 6.9023 14.13 6.2932-3.0742-6.9023-14.13 7.4286-1.523-19.542-14.716z" style="fill:#fff;stroke-linecap:round;stroke-linejoin:round;stroke-width:.75591;stroke:#000"/>
  <text x="244.09401" y="243.58267" style="fill:#000000;font-family:'Arial Nova', 'Arial Unicode MS', 'Yu Gothic UI', sans-serif;font-size:12.8px;letter-spacing:0px;line-height:0%;stroke-width:1.0667;stroke:#67977f;word-spacing:0px" xml:space="preserve"><tspan x="244.09401" y="243.58267" style="font-family:'Arial Nova', 'Arial Unicode MS', 'Yu Gothic UI', sans-serif;stroke-width:1.0667">A</tspan></text>
  <g transform="translate(164.33 303.18)">
   <ellipse cx="122.72" cy="48.983" rx="13.199" ry="13.469" style="fill:#1f638a;stroke-linecap:round;stroke-linejoin:round;stroke-width:1.0658"/>
   <text x="116.87816" y="56.649761" style="fill:#000000;font-family:'Arial Nova', 'Arial Unicode MS', 'Yu Gothic UI', sans-serif;font-size:12.8px;letter-spacing:0px;line-height:0%;stroke-width:1.0667;word-spacing:0px" xml:space="preserve"><tspan x="116.87816" y="56.649761" style="fill:#ffffff;font-family:'Arial Nova', 'Arial Unicode MS', 'Yu Gothic UI', sans-serif;font-size:21.333px;font-weight:bold;stroke-width:1.0667">1</tspan></text>
  </g>
  <path d="m128.1 374.87v38.447l23.499-13.661v-38.183z" style="fill:url(#linearGradient14446);stroke-linecap:round;stroke-linejoin:round;stroke-width:1.8898;stroke:#67977f"/>
  <text x="70.273849" y="405.47702" style="fill:#000000;font-family:'Arial Nova', 'Arial Unicode MS', 'Yu Gothic UI', sans-serif;font-size:12.8px;letter-spacing:0px;line-height:0%;stroke-width:1.0667;stroke:#67977f;word-spacing:0px" xml:space="preserve"><tspan x="70.273849" y="405.47702" style="font-family:'Arial Nova', 'Arial Unicode MS', 'Yu Gothic UI', sans-serif;stroke-width:1.0667">B</tspan></text>
  <g transform="matrix(.2917 0 0 .28875 284.74 314.92)" style="fill:#1f638a;stroke-linecap:round;stroke-linejoin:round;stroke-width:1.2209;stroke:#1f638a">
   <path d="m207.49 126.25 34.17 21.614-34.17 21.614z" style="fill:#1f638a;stroke-linecap:round;stroke-linejoin:round;stroke-width:1.3023;stroke:#1f638a"/>
   <rect x="172.19" y="137.99" width="39.213" height="19.761" style="fill:#1f638a;stroke-linecap:round;stroke-linejoin:round;stroke-width:1.3023;stroke:#1f638a"/>
  </g>
  <path d="m76.833 364.06 6.2254-5.147 6.9023 14.13 6.2932-3.0742-6.9023-14.13 7.4286-1.523-19.542-14.716z" style="fill:#fff;stroke-linecap:round;stroke-linejoin:round;stroke-width:.75591;stroke:#000"/>
  <g transform="translate(-10.21 304.78)">
   <ellipse cx="122.72" cy="48.983" rx="13.199" ry="13.469" style="fill:#1f638a;stroke-linecap:round;stroke-linejoin:round;stroke-width:1.0658"/>
   <text x="116.87816" y="56.649761" style="fill:#000000;font-family:'Arial Nova', 'Arial Unicode MS', 'Yu Gothic UI', sans-serif;font-size:12.8px;letter-spacing:0px;line-height:0%;stroke-width:1.0667;word-spacing:0px" xml:space="preserve"><tspan x="116.87816" y="56.649761" style="fill:#ffffff;font-family:'Arial Nova', 'Arial Unicode MS', 'Yu Gothic UI', sans-serif;font-size:21.333px;font-weight:bold;stroke-width:1.0667">2</tspan></text>
  </g>
  <g transform="translate(289.53 347.35)">
   <ellipse cx="122.72" cy="48.983" rx="13.199" ry="13.469" style="fill:#1f638a;stroke-linecap:round;stroke-linejoin:round;stroke-width:1.0658"/>
   <text x="116.87816" y="56.649761" style="fill:#000000;font-family:'Arial Nova', 'Arial Unicode MS', 'Yu Gothic UI', sans-serif;font-size:12.8px;letter-spacing:0px;line-height:0%;stroke-width:1.0667;word-spacing:0px" xml:space="preserve"><tspan x="116.87816" y="56.649761" style="fill:#ffffff;font-family:'Arial Nova', 'Arial Unicode MS', 'Yu Gothic UI', sans-serif;font-size:21.333px;font-weight:bold;stroke-width:1.0667">4</tspan></text>
  </g>
  <path d="m657.98 161.59v38.413" style="color:#000000;fill-rule:evenodd;fill:#f00;stroke-dasharray:0.37795277, 0.75590554;stroke-linecap:round;stroke-linejoin:round;stroke-width:.37795;stroke:#000"/>
  <g transform="translate(-70.11 -85.589)">
   <path d="m589.5 401.76v38.413" style="color:#000000;fill-rule:evenodd;fill:#f00;stroke-dasharray:0.37795277, 0.75590554;stroke-linecap:round;stroke-linejoin:round;stroke-width:.37795;stroke:#000"/>
   <path d="m542.12 374.67v38.413" style="color:#000000;fill-rule:evenodd;fill:#f00;stroke-dasharray:0.37795277, 0.75590554;stroke-linecap:round;stroke-linejoin:round;stroke-width:.37795;stroke:#000"/>
   <path d="m588.74 331.41-141.33 81.033 28.406 16.316-24.075 14.23 96.966 55.113 23.96-13.712 17.443 10.019 140.7-81.267zm0.3 54.5 47.2 27.033-46.833 26.967-47.433-27.133z" style="color:#000000;fill:none;stroke-dasharray:0.37795277, 0.75590554;stroke-linecap:round;stroke-linejoin:round;stroke-width:.37795;stroke:#000"/>
   <path d="m588.74 293.01-141.33 81.033 28.406 16.316-24.075 14.23 96.966 55.113 23.96-13.712 17.443 10.019 140.7-81.267zm0.3 54.5 47.2 27.033-46.833 26.967-47.433-27.133z" style="color:#000000;fill:none;stroke-dasharray:0.37795277, 0.75590554;stroke-linecap:round;stroke-linejoin:round;stroke-width:.37795;stroke:#000"/>
   <path d="m451.73 404.61v38.413" style="color:#000000;fill-rule:evenodd;fill:#f00;stroke-dasharray:0.37795277, 0.75590554;stroke-linecap:round;stroke-linejoin:round;stroke-width:.37795;stroke:#000"/>
   <path d="m447.45 374.15v38.413" style="color:#000000;fill-rule:evenodd;fill:#f00;stroke-dasharray:0.37795277, 0.75590554;stroke-linecap:round;stroke-linejoin:round;stroke-width:.37795;stroke:#000"/>
   <path d="m589.01 347.9v38.413" style="color:#000000;fill-rule:evenodd;fill:#f00;stroke-dasharray:0.37795277, 0.75590554;stroke-linecap:round;stroke-linejoin:round;stroke-width:.37795;stroke:#000"/>
   <path d="m636.11 375.06v38.413" style="color:#000000;fill-rule:evenodd;fill:#f00;stroke-dasharray:0.37795277, 0.75590554;stroke-linecap:round;stroke-linejoin:round;stroke-width:.37795;stroke:#000"/>
   <path d="m590.14 456.16v38.413" style="color:#000000;fill-rule:evenodd;fill:#f00;stroke-dasharray:0.37795277, 0.75590554;stroke-linecap:round;stroke-linejoin:round;stroke-width:.37795;stroke:#000"/>
   <path d="m548.69 459.78v38.413" style="color:#000000;fill-rule:evenodd;fill:#f00;stroke-dasharray:0.37795277, 0.75590554;stroke-linecap:round;stroke-linejoin:round;stroke-width:.37795;stroke:#000"/>
   <g transform="translate(51.895 68.256)">
    <path d="m399.47 335.93 97.042 55.205v38.685l-96.967-55.58z" style="fill:url(#linearGradient20735);stroke-linecap:round;stroke-linejoin:round;stroke-width:1.8898;stroke:#67977f"/>
    <path d="m497.02 391.23v38.447l23.499-13.661v-38.183z" style="fill:url(#linearGradient20737);stroke-linecap:round;stroke-linejoin:round;stroke-width:1.8898;stroke:#67977f"/>
    <path d="m399.51 335.91 24.435-13.69 96.589 55.507-24.055 13.535z" style="fill:url(#linearGradient20739);stroke-linecap:round;stroke-linejoin:round;stroke-width:1.8898;stroke:#67977f"/>
   </g>
   <path d="m730.73 375.03v38.413" style="color:#000000;fill-rule:evenodd;fill:#f00;stroke-dasharray:0.37795277, 0.75590554;stroke-linecap:round;stroke-linejoin:round;stroke-width:.37795;stroke:#000"/>
   <path d="m588.74 293.33v38.413" style="color:#000000;fill-rule:evenodd;fill:#f00;stroke-dasharray:0.37795277, 0.75590554;stroke-linecap:round;stroke-linejoin:round;stroke-width:.37795;stroke:#000"/>
  </g>
 </g>
</svg>
