<?xml version="1.0" encoding="UTF-8"?>
<svg width="18cm" height="5.5cm" version="1.1" xmlns="http://www.w3.org/2000/svg" xmlns:xlink="http://www.w3.org/1999/xlink">
 <defs>
  <radialGradient id="radialGradient10028" cx="783.37" cy="549.94" r="475.5" gradientTransform="matrix(-.48166 .011106 -.010375 -.44997 742.49 784.67)" gradientUnits="userSpaceOnUse">
   <stop offset="0"/>
   <stop style="stop-color:#fff" offset=".90136"/>
   <stop style="stop-color:#808080" offset="1"/>
  </radialGradient>
  <radialGradient id="radialGradient10239" cx="783.37" cy="549.94" r="475.5" gradientTransform="matrix(-.48166 .011106 -.010375 -.44997 733.33 527.18)" gradientUnits="userSpaceOnUse">
   <stop offset="0"/>
   <stop style="stop-color:#fff" offset=".90136"/>
   <stop style="stop-color:#808080" offset="1"/>
  </radialGradient>
 </defs>
 <g transform="translate(0 -914.64)">
  <text x="387.80954" y="655.85297" style="fill:#000000;font-family:'Arial Nova', 'Arial Unicode MS', 'Yu Gothic UI', sans-serif;font-size:12.8px;letter-spacing:0px;line-height:0%;stroke-width:1.0667;word-spacing:0px" xml:space="preserve"><tspan x="387.80954" y="655.85297" style="stroke-width:1.0667"> </tspan></text>
  <text x="400.95236" y="656.80542" style="fill:#000000;font-family:'Arial Nova', 'Arial Unicode MS', 'Yu Gothic UI', sans-serif;font-size:12.8px;letter-spacing:0px;line-height:0%;stroke-width:1.0667;word-spacing:0px" xml:space="preserve"><tspan x="400.95236" y="656.80542" style="stroke-width:1.0667"> </tspan></text>
  <text x="111.39201" y="1083.688" style="fill:#ff0000;font-family:'Arial Nova', 'Arial Unicode MS', 'Yu Gothic UI', sans-serif;font-size:12.8px;letter-spacing:0px;line-height:0%;stroke-width:1.0667;word-spacing:0px" xml:space="preserve"><tspan x="111.39201" y="1083.688" style="fill:#ff0000;font-size:19.933px;stroke-width:1.0667">OPEN MIND</tspan></text>
  <g transform="matrix(.66342 0 0 .66342 -59.72 892.7)">
   <path d="m343.6 65.634c-123.11 0-222.91 99.81-222.91 222.92h58.023c0-91.067 73.819-164.9 164.89-164.9 91.067 0 164.9 73.834 164.9 164.9h58.023c0-123.11-99.811-222.92-222.92-222.92z" style="color:#000000;fill:url(#radialGradient10239);stroke-dashoffset:2.1565;stroke-linecap:round;stroke-linejoin:round;stroke-width:2.1592;stroke:#7d7d7d"/>
   <path d="m149.94 288.55a193.66 193.66 0 0 1 193.66-193.66 193.66 193.66 0 0 1 193.66 193.66" style="color:#000000;fill:none;stroke-dashoffset:2.1565;stroke-linecap:round;stroke-linejoin:round;stroke-width:1.1394;stroke:#7d7d7d"/>
   <path d="m461.02 172.56 40.903-40.903" style="fill:none;stroke-linecap:round;stroke-linejoin:round;stroke-width:1.1394;stroke:#7d7d7d"/>
   <path d="m227.05 171.11-40.903-40.903" style="fill:none;stroke-linecap:round;stroke-linejoin:round;stroke-width:1.1394;stroke:#7d7d7d"/>
   <path d="m344.52 123.84v-58.687" style="fill:none;stroke-linecap:round;stroke-linejoin:round;stroke-width:1.1394;stroke:#7d7d7d"/>
  </g>
  <ellipse transform="matrix(.9993 -.037301 .032652 .99947 0 0)" cx="133.68" cy="1081.8" rx="5.2921" ry="5.2904" style="stroke-linecap:round;stroke-linejoin:round;stroke-width:.75591;stroke:#000"/>
  <rect x="459.37" y="1068.3" width="110.98" height="14.654" style="color:#000000;fill-opacity:.096154;fill:#f00;stroke-dasharray:2.2677166, 2.2677166;stroke-linecap:round;stroke-linejoin:round;stroke-width:.75591;stroke:#f00"/>
  <text x="458.31528" y="1082.7944" style="fill:#ff0000;font-family:'Arial Nova', 'Arial Unicode MS', 'Yu Gothic UI', sans-serif;font-size:12.8px;letter-spacing:0px;line-height:0%;stroke-width:1.0667;word-spacing:0px" xml:space="preserve"><tspan x="458.31528" y="1082.7944" style="fill:#ff0000;font-size:19.933px;stroke-width:1.0667">OPEN MIND</tspan></text>
  <g transform="matrix(.66342 0 0 .66342 280.95 721.88)">
   <path d="m352.75 323.13c-123.11 0-222.91 99.81-222.91 222.92h58.023c0-91.067 73.819-164.9 164.89-164.9 91.067 0 164.9 73.834 164.9 164.9h58.023c0-123.11-99.811-222.92-222.92-222.92z" style="color:#000000;fill:url(#radialGradient10028);stroke-dashoffset:2.1565;stroke-linecap:round;stroke-linejoin:round;stroke-width:2.1592;stroke:#7d7d7d"/>
   <path d="m159.1 546.05a193.66 193.66 0 0 1 193.66-193.66 193.66 193.66 0 0 1 193.66 193.66" style="color:#000000;fill:none;stroke-dashoffset:2.1565;stroke-linecap:round;stroke-linejoin:round;stroke-width:1.1394;stroke:#7d7d7d"/>
   <path d="m470.17 430.05 40.903-40.903" style="fill:none;stroke-linecap:round;stroke-linejoin:round;stroke-width:1.1394;stroke:#7d7d7d"/>
   <path d="m236.2 428.6-40.903-40.903" style="fill:none;stroke-linecap:round;stroke-linejoin:round;stroke-width:1.1394;stroke:#7d7d7d"/>
   <path d="m353.68 381.34v-58.686" style="fill:none;stroke-linecap:round;stroke-linejoin:round;stroke-width:1.1394;stroke:#7d7d7d"/>
  </g>
  <ellipse transform="matrix(.9993 -.037301 .032652 .99947 0 0)" cx="480.29" cy="1094.2" rx="5.2921" ry="5.2904" style="fill:#f00;stroke-linecap:round;stroke-linejoin:round;stroke-width:.75591;stroke:#f00"/>
  <g transform="matrix(0 -1 -1 0 543.71 651.72)">
   <path d="m-423.94-49.123 5.0723 20.997h-10.145c1.7968-10.641 5.0723-20.997 5.0723-20.997z" style="fill:#008000;stroke-linecap:round;stroke-linejoin:round;stroke-width:1.8898;stroke:#008100"/>
   <path d="m-423.98-34.35c0 48.464 0.17497 61.061 0.17497 61.061" style="fill:#008000;stroke-linecap:round;stroke-linejoin:round;stroke-width:1.8898;stroke:#008000"/>
  </g>
  <path d="m200.42 1098.4 6.2254-5.1469 6.9023 14.13 6.2932-3.0741-6.9023-14.13 7.4286-1.523-19.542-14.716z" style="fill:#fff;stroke-linecap:round;stroke-linejoin:round;stroke-width:.75591;stroke:#000"/>
  <path d="m513.89 1100.7 6.2254-5.1469 6.9023 14.13 6.2932-3.0741-6.9023-14.13 7.4286-1.5229-19.542-14.716z" style="fill:#fff;stroke-linecap:round;stroke-linejoin:round;stroke-width:.75591;stroke:#000"/>
  <g transform="translate(118.14 853.66)">
   <g transform="translate(162.29 336.76)">
    <ellipse cx="-44.92" cy="-98.798" rx="13.199" ry="13.469" style="fill:#1f638a;stroke-linecap:round;stroke-linejoin:round;stroke-width:1.0658"/>
    <text x="-50.761276" y="-91.125885" style="fill:#000000;font-family:'Arial Nova', 'Arial Unicode MS', 'Yu Gothic UI', sans-serif;font-size:12.8px;letter-spacing:0px;line-height:0%;stroke-width:1.0667;word-spacing:0px" xml:space="preserve"><tspan x="-50.761276" y="-91.125885" style="fill:#ffffff;font-family:'Arial Nova', 'Arial Unicode MS', 'Yu Gothic UI', sans-serif;font-size:21.333px;stroke-width:1.0667;stroke:#ffffff">1</tspan></text>
   </g>
  </g>
  <g transform="translate(563.94 1194.3)">
   <ellipse cx="-13.718" cy="-98.798" rx="13.199" ry="13.469" style="fill:#1f638a;stroke-linecap:round;stroke-linejoin:round;stroke-width:1.0658"/>
   <text x="-19.559933" y="-91.125885" style="fill:#000000;font-family:'Arial Nova', 'Arial Unicode MS', 'Yu Gothic UI', sans-serif;font-size:12.8px;letter-spacing:0px;line-height:0%;stroke-width:1.0667;word-spacing:0px" xml:space="preserve"><tspan x="-19.559933" y="-91.125885" style="fill:#ffffff;font-family:'Arial Nova', 'Arial Unicode MS', 'Yu Gothic UI', sans-serif;font-size:21.333px;stroke-width:1.0667;stroke:#ffffff">2</tspan></text>
  </g>
  <g transform="translate(118.14 853.66)">
   <g transform="translate(469.33 333.71)">
    <ellipse cx="17.483" cy="-98.798" rx="13.199" ry="13.469" style="fill:#1f638a;stroke-linecap:round;stroke-linejoin:round;stroke-width:1.0658"/>
    <text x="11.641406" y="-91.256096" style="fill:#000000;font-family:'Arial Nova', 'Arial Unicode MS', 'Yu Gothic UI', sans-serif;font-size:12.8px;letter-spacing:0px;line-height:0%;stroke-width:1.0667;word-spacing:0px" xml:space="preserve"><tspan x="11.641406" y="-91.256096" style="fill:#ffffff;font-family:'Arial Nova', 'Arial Unicode MS', 'Yu Gothic UI', sans-serif;font-size:21.333px;stroke-width:1.0667;stroke:#ffffff">3</tspan></text>
   </g>
  </g>
  <g transform="matrix(.2917 0 0 .28875 278.89 949.05)" style="fill:#1f638a;stroke-linecap:round;stroke-linejoin:round;stroke-width:1.2209;stroke:#1f638a">
   <path d="m207.49 126.25 34.17 21.614-34.17 21.614z" style="fill:#1f638a;stroke-linecap:round;stroke-linejoin:round;stroke-width:1.3023;stroke:#1f638a"/>
   <rect x="172.19" y="137.99" width="39.213" height="19.761" style="fill:#1f638a;stroke-linecap:round;stroke-linejoin:round;stroke-width:1.3023;stroke:#1f638a"/>
  </g>
 </g>
</svg>
