<?xml version="1.0" encoding="UTF-8"?>
<svg width="18cm" height="4.5cm" version="1.1" xmlns="http://www.w3.org/2000/svg"><defs><linearGradient id="linearGradient14317" x1="502.05" x2="610.86" y1="150.71" y2="390.08" gradientTransform="matrix(1.0667 0 0 1.0667 9.877 -130.66)" gradientUnits="userSpaceOnUse"><stop style="stop-color:#fff" offset="0"/><stop style="stop-color:#00385e" offset="1"/></linearGradient></defs><text x="296.53333" y="127.78886" style="fill:#000000;font-family:'Arial Nova', 'Arial Unicode MS', 'Yu Gothic UI', sans-serif;font-size:12.8px;letter-spacing:0px;line-height:0%;stroke-width:1.0667;word-spacing:0px" xml:space="preserve"><tspan x="296.53333" y="127.78886" style="font-family:'Arial Nova', 'Arial Unicode MS', 'Yu Gothic UI', sans-serif;stroke-width:1.0667"> </tspan></text><g transform="translate(-772.13 -9.5014)"><ellipse cx="1175.2" cy="160.16" rx="13.199" ry="13.469" style="fill:#1f638a;stroke-linecap:round;stroke-linejoin:round;stroke-width:1.0658"/><text x="1169.625" y="167.8232" style="fill:#000000;font-family:'Arial Nova', 'Arial Unicode MS', 'Yu Gothic UI', sans-serif;font-size:12.8px;letter-spacing:0px;line-height:0%;stroke-width:1.0667;word-spacing:0px" xml:space="preserve"><tspan x="1169.625" y="167.8232" style="fill:#ffffff;font-family:'Arial Nova', 'Arial Unicode MS', 'Yu Gothic UI', sans-serif;font-size:21.333px;font-weight:bold;stroke-width:1.0667">2</tspan></text></g><path d="m233.45 51.019 110.16-40.973c37.003 11.716 70.789 50.317 74.521 95.2l-106.91 39.656c1.3949-34.802-26.747-79.869-77.769-93.883z" style="fill-opacity:.098039;fill:#f00;stroke-dasharray:2.0296063, 2.0296063;stroke-linecap:round;stroke-linejoin:round;stroke-width:.67654;stroke:#f00"/><path d="m291.83 33.299c46.41 13.306 72.038 54.282 73.277 86.91" style="fill:none;stroke-dasharray:3.19748039, 3.19748039;stroke-linecap:round;stroke-linejoin:round;stroke-width:1.0658;stroke:#f00"/><path d="m287.57 84.759c35.255-14.28 71.202-26.831 107.36-38.854" style="fill:none;stroke-dasharray:2.016, 2.016;stroke-linecap:round;stroke-linejoin:round;stroke-width:.672;stroke:#f00"/><path d="m234.46 51.449c12.111 2.8574 24.304 9.2386 35.172 17.938" style="fill:none;stroke-linecap:round;stroke-linejoin:round;stroke-width:3.7795;stroke:#a00"/><path d="m261.45 41.199c16.17 3.815 32.485 13.911 45.599 27.421" style="fill:none;stroke-linecap:round;stroke-linejoin:round;stroke-width:3.7795;stroke:#a00"/><path d="m288.23 31.359c17.023 4.2071 37.654 16.54 52.688 34.969" style="fill:none;stroke-linecap:round;stroke-linejoin:round;stroke-width:3.7795;stroke:#a00"/><path d="m315.01 21.739c18.664 4.2664 39.195 17.291 53.757 35.578" style="fill:none;stroke-linecap:round;stroke-linejoin:round;stroke-width:3.7795;stroke:#a00"/><path d="m341.79 11.279c12.238 2.8872 24.338 9.6654 35.078 18.791" style="fill:none;stroke-linecap:round;stroke-linejoin:round;stroke-width:3.7795;stroke:#a00"/><path d="m379.71 32.399c21.039 18.478 36.94 46.112 38.801 71.302" style="fill:none;stroke-linecap:round;stroke-linejoin:round;stroke-width:3.7795;stroke:#f00"/><path d="m371.61 59.639c9.6293 12.092 16.649 26.485 18.794 42.169" style="fill:none;stroke-linecap:round;stroke-linejoin:round;stroke-width:3.7795;stroke:#f00"/><path d="m391.37 105.34c0.39861 2.9146 0.62885 5.8737 0.6762 8.8709" style="fill:none;stroke-linecap:round;stroke-linejoin:round;stroke-width:3.7795;stroke:#800000"/><path d="m343.76 68.659c9.1616 11.23 16.245 24.723 19.168 40.019" style="fill:none;stroke-linecap:round;stroke-linejoin:round;stroke-width:3.7795;stroke:#f00"/><path d="m363.89 112.21c0.72011 3.7693 1.1876 7.6481 1.3713 11.63" style="fill:none;stroke-linecap:round;stroke-linejoin:round;stroke-width:3.7795;stroke:#800000"/><path d="m309.9 70.939c9.8177 10.114 17.842 22.141 22.669 34.877" style="fill:none;stroke-linecap:round;stroke-linejoin:round;stroke-width:3.7795;stroke:#f00"/><path d="m333.53 109.35c3.0045 7.9279 4.7704 16.131 4.959 24.318" style="fill:none;stroke-linecap:round;stroke-linejoin:round;stroke-width:3.7795;stroke:#800000"/><path d="m272.48 71.709c14.449 11.567 26.558 27.232 33.022 44.165" style="fill:none;stroke-linecap:round;stroke-linejoin:round;stroke-width:3.7795;stroke:#f00"/><path d="m306.03 118.79c3.0498 7.9886 4.8432 16.259 5.0334 24.514" style="fill:none;stroke-linecap:round;stroke-linejoin:round;stroke-width:3.7795;stroke:#800000"/><path d="m454.99 53.129 107.96-39.752c36.049 10.634 68.964 45.67 72.599 86.408l-107.12 39.543c-2.8135-30.033-24.802-73.079-73.436-86.199z" style="fill:url(#linearGradient14317);stroke-linecap:round;stroke-linejoin:round;stroke-width:1.4324;stroke:#7d7d7d"/><path d="m508.8 33.149c46.41 13.306 72.038 54.282 73.277 86.91" style="fill:none;stroke-linecap:round;stroke-linejoin:round;stroke-width:.67654;stroke:#7d7d7d"/><path d="m504.54 84.609c35.255-14.28 71.202-26.831 107.36-38.854" style="fill:none;stroke-linecap:round;stroke-linejoin:round;stroke-width:.67654;stroke:#7d7d7d"/><path d="m14.202 51.259 82.568-31.716c52.986 19.828 67.908 55.219 76.2 93.198l-82.586 31.803c0.78799-34.355-25.3-79.301-76.182-93.285z" style="fill-opacity:.098039;fill:#f00;stroke-dasharray:2.0296063, 2.0296063;stroke-linecap:round;stroke-linejoin:round;stroke-width:.67654;stroke:#f00"/><path d="m57.636 35.279c48.146 14.4 74.732 58.744 76.017 94.055" style="fill:none;stroke-dasharray:2.0296063, 2.0296063;stroke-linecap:round;stroke-linejoin:round;stroke-width:.67654;stroke:#f00"/><path d="m68.681 84.759c25.975-10.893 52.46-20.467 79.1-29.639" style="fill:none;stroke-dasharray:2.0296063, 2.0296063;stroke-linecap:round;stroke-linejoin:round;stroke-width:.67654;stroke:#f00"/><path d="m69.22 31.029c17.023 4.2071 37.654 16.54 52.688 34.969" style="fill:none;stroke-linecap:round;stroke-linejoin:round;stroke-width:3.7795;stroke:#a00"/><path d="m15.451 51.109c12.111 2.8574 24.304 9.2385 35.172 17.938" style="fill:none;stroke-linecap:round;stroke-linejoin:round;stroke-width:3.7795;stroke:#a00"/><path d="m42.44 40.859c16.17 3.815 32.485 13.911 45.599 27.421" style="fill:none;stroke-linecap:round;stroke-linejoin:round;stroke-width:3.7795;stroke:#a00"/><path d="m96 21.399c18.664 4.2663 39.195 17.291 53.757 35.577" style="fill:none;stroke-linecap:round;stroke-linejoin:round;stroke-width:3.7795;stroke:#a00"/><path d="m122.78 10.939c12.238 2.8872 24.338 9.6654 35.078 18.791" style="fill:none;stroke-linecap:round;stroke-linejoin:round;stroke-width:3.7795;stroke:#000"/><path d="m160.83 32.399c21.275 18.422 37.354 45.971 39.236 71.084" style="fill:none;stroke-linecap:round;stroke-linejoin:round;stroke-width:3.7795;stroke:#000"/><path d="m152.73 59.639c9.6293 12.092 16.649 26.485 18.794 42.169" style="fill:none;stroke-linecap:round;stroke-linejoin:round;stroke-width:3.7795;stroke:#f00"/><path d="m172.1 105.48c0.39861 2.9146 0.62885 5.8737 0.6762 8.8709" style="fill:none;stroke-linecap:round;stroke-linejoin:round;stroke-width:3.7795;stroke:#800000"/><path d="m124.88 68.659c9.1616 11.23 16.245 24.723 19.168 40.019" style="fill:none;stroke-linecap:round;stroke-linejoin:round;stroke-width:3.7795;stroke:#f00"/><path d="m144.63 112.34c0.72012 3.7693 1.1876 7.6481 1.3713 11.63" style="fill:none;stroke-linecap:round;stroke-linejoin:round;stroke-width:3.7795;stroke:#800000"/><path d="m91.01 70.939c9.8177 10.114 17.842 22.141 22.669 34.877" style="fill:none;stroke-linecap:round;stroke-linejoin:round;stroke-width:3.7795;stroke:#f00"/><path d="m114.26 109.49c3.0045 7.9279 4.7704 16.131 4.959 24.318" style="fill:none;stroke-linecap:round;stroke-linejoin:round;stroke-width:3.7795;stroke:#800000"/><path d="m53.593 71.709c14.449 11.567 26.558 27.232 33.022 44.165" style="fill:none;stroke-linecap:round;stroke-linejoin:round;stroke-width:3.7795;stroke:#f00"/><path d="m87.196 119.54c3.0498 7.9885 4.8432 16.259 5.0334 24.514" style="fill:none;stroke-linecap:round;stroke-linejoin:round;stroke-width:3.7795;stroke:#800000"/><path d="m138.52 70.429 6.2254-5.1469 6.9023 14.13 6.2932-3.0742-6.9023-14.13 7.4286-1.523-19.542-14.716z" style="fill:#fff;stroke-linecap:round;stroke-linejoin:round;stroke-width:.75591;stroke:#000"/><g transform="translate(-816.33 -219.85)" style="stroke-dasharray:0.99921262, 1.99842525;stroke-dashoffset:3.6971;stroke-width:.99921"><ellipse cx="988.73" cy="286.32" rx="13.199" ry="13.469" style="fill:#1f638a;stroke-dasharray:1.06582679, 2.1316536;stroke-dashoffset:3.6971;stroke-linecap:round;stroke-linejoin:round;stroke-width:1.0658"/><text x="982.88611" y="293.98578" style="fill:#000000;font-family:'Arial Nova', 'Arial Unicode MS', 'Yu Gothic UI', sans-serif;font-size:12.8px;letter-spacing:0px;line-height:0%;stroke-width:1.0658;word-spacing:0px" xml:space="preserve"><tspan x="982.88611" y="293.98578" style="fill:#ffffff;font-family:'Arial Nova', 'Arial Unicode MS', 'Yu Gothic UI', sans-serif;font-size:21.333px;font-weight:bold;stroke-width:1.0658">1</tspan></text></g><path d="m390.69 68.589 6.2254-5.1469 6.9023 14.13 6.2932-3.0742-6.9023-14.13 7.4286-1.523-19.542-14.716z" style="fill:#fff;stroke-linecap:round;stroke-linejoin:round;stroke-width:.75591;stroke:#000"/><g transform="translate(-564.16 -221.7)" style="stroke-dasharray:0.99921262, 1.99842525;stroke-dashoffset:3.6971;stroke-width:.99921"><ellipse cx="988.73" cy="286.32" rx="13.199" ry="13.469" style="fill:#1f638a;stroke-dasharray:1.06582679, 2.1316536;stroke-dashoffset:3.6971;stroke-linecap:round;stroke-linejoin:round;stroke-width:1.0658"/><text x="982.88611" y="293.98578" style="fill:#000000;font-family:'Arial Nova', 'Arial Unicode MS', 'Yu Gothic UI', sans-serif;font-size:12.8px;letter-spacing:0px;line-height:0%;stroke-width:1.0658;word-spacing:0px" xml:space="preserve"><tspan x="982.88611" y="293.98578" style="fill:#ffffff;font-family:'Arial Nova', 'Arial Unicode MS', 'Yu Gothic UI', sans-serif;font-size:21.333px;font-weight:bold;stroke-width:1.0658">1</tspan></text></g><text x="109.83241" y="41.085606" style="fill:#000000;font-family:'Arial Nova', 'Arial Unicode MS', 'Yu Gothic UI', sans-serif;font-size:12.8px;letter-spacing:0px;line-height:0%;stroke-width:1.0667;word-spacing:0px" xml:space="preserve"><tspan x="109.83241" y="41.085606" style="fill:#ff0000;font-family:'Arial Nova', 'Arial Unicode MS', 'Yu Gothic UI', sans-serif;stroke-width:1.0667;stroke:#ff0000">1</tspan></text><text x="156.25221" y="89.686127" style="fill:#000000;font-family:'Arial Nova', 'Arial Unicode MS', 'Yu Gothic UI', sans-serif;font-size:12.8px;letter-spacing:0px;line-height:0%;stroke-width:1.0667;word-spacing:0px" xml:space="preserve"><tspan x="156.25221" y="89.686127" style="fill:#ff0000;font-family:'Arial Nova', 'Arial Unicode MS', 'Yu Gothic UI', sans-serif;stroke-width:1.0667;stroke:#ff0000">2</tspan></text><text x="161.43907" y="112.66995" style="fill:#000000;font-family:'Arial Nova', 'Arial Unicode MS', 'Yu Gothic UI', sans-serif;font-size:12.8px;letter-spacing:0px;line-height:0%;stroke-width:1.0667;word-spacing:0px" xml:space="preserve"><tspan x="161.43907" y="112.66995" style="fill:#ff0000;font-family:'Arial Nova', 'Arial Unicode MS', 'Yu Gothic UI', sans-serif;stroke-width:1.0667;stroke:#ff0000">3</tspan></text><text x="357.38995" y="31.745882" style="fill:#000000;font-family:'Arial Nova', 'Arial Unicode MS', 'Yu Gothic UI', sans-serif;font-size:12.8px;letter-spacing:0px;line-height:0%;stroke-width:1.0667;word-spacing:0px" xml:space="preserve"><tspan x="357.38995" y="31.745882" style="fill:#ff0000;font-family:'Arial Nova', 'Arial Unicode MS', 'Yu Gothic UI', sans-serif;stroke-width:1.0667;stroke:#ff0000">1</tspan></text><text x="405.33014" y="92.07534" style="fill:#000000;font-family:'Arial Nova', 'Arial Unicode MS', 'Yu Gothic UI', sans-serif;font-size:12.8px;letter-spacing:0px;line-height:0%;stroke-width:1.0667;word-spacing:0px" xml:space="preserve"><tspan x="405.33014" y="92.07534" style="fill:#ff0000;font-family:'Arial Nova', 'Arial Unicode MS', 'Yu Gothic UI', sans-serif;stroke-width:1.0667;stroke:#ff0000">2</tspan></text><text x="93.16098" y="158.06235" style="fill:#000000;font-family:'Arial Nova', 'Arial Unicode MS', 'Yu Gothic UI', sans-serif;font-size:12.8px;letter-spacing:0px;line-height:0%;stroke-width:1.0667;word-spacing:0px" xml:space="preserve"><tspan x="93.16098" y="158.06235" style="fill:#ff0000;font-family:'Arial Nova', 'Arial Unicode MS', 'Yu Gothic UI', sans-serif;stroke-width:1.0667;stroke:#ff0000">A</tspan></text><text x="118.5682" y="149.30695" style="fill:#000000;font-family:'Arial Nova', 'Arial Unicode MS', 'Yu Gothic UI', sans-serif;font-size:12.8px;letter-spacing:0px;line-height:0%;stroke-width:1.0667;word-spacing:0px" xml:space="preserve"><tspan x="118.5682" y="149.30695" style="fill:#ff0000;font-family:'Arial Nova', 'Arial Unicode MS', 'Yu Gothic UI', sans-serif;stroke-width:1.0667;stroke:#ff0000">B</tspan></text><text x="143.95837" y="139.1344" style="fill:#000000;font-family:'Arial Nova', 'Arial Unicode MS', 'Yu Gothic UI', sans-serif;font-size:12.8px;letter-spacing:0px;line-height:0%;stroke-width:1.0667;word-spacing:0px" xml:space="preserve"><tspan x="143.95837" y="139.1344" style="fill:#ff0000;font-family:'Arial Nova', 'Arial Unicode MS', 'Yu Gothic UI', sans-serif;stroke-width:1.0667;stroke:#ff0000">C</tspan></text><text x="172.13344" y="128.82787" style="fill:#000000;font-family:'Arial Nova', 'Arial Unicode MS', 'Yu Gothic UI', sans-serif;font-size:12.8px;letter-spacing:0px;line-height:0%;stroke-width:1.0667;word-spacing:0px" xml:space="preserve"><tspan x="172.13344" y="128.82787" style="fill:#ff0000;font-family:'Arial Nova', 'Arial Unicode MS', 'Yu Gothic UI', sans-serif;stroke-width:1.0667;stroke:#ff0000">D</tspan></text><text x="311.05832" y="157.38858" style="fill:#000000;font-family:'Arial Nova', 'Arial Unicode MS', 'Yu Gothic UI', sans-serif;font-size:12.8px;letter-spacing:0px;line-height:0%;stroke-width:1.0667;word-spacing:0px" xml:space="preserve"><tspan x="311.05832" y="157.38858" style="fill:#ff0000;font-family:'Arial Nova', 'Arial Unicode MS', 'Yu Gothic UI', sans-serif;stroke-width:1.0667;stroke:#ff0000">A</tspan></text><text x="338.46527" y="147.46173" style="fill:#000000;font-family:'Arial Nova', 'Arial Unicode MS', 'Yu Gothic UI', sans-serif;font-size:12.8px;letter-spacing:0px;line-height:0%;stroke-width:1.0667;word-spacing:0px" xml:space="preserve"><tspan x="338.46527" y="147.46173" style="fill:#ff0000;font-family:'Arial Nova', 'Arial Unicode MS', 'Yu Gothic UI', sans-serif;stroke-width:1.0667;stroke:#ff0000">B</tspan></text><text x="364.78445" y="137.07541" style="fill:#000000;font-family:'Arial Nova', 'Arial Unicode MS', 'Yu Gothic UI', sans-serif;font-size:12.8px;letter-spacing:0px;line-height:0%;stroke-width:1.0667;word-spacing:0px" xml:space="preserve"><tspan x="364.78445" y="137.07541" style="fill:#ff0000;font-family:'Arial Nova', 'Arial Unicode MS', 'Yu Gothic UI', sans-serif;stroke-width:1.0667;stroke:#ff0000">C</tspan></text><text x="392.65842" y="127.09631" style="fill:#000000;font-family:'Arial Nova', 'Arial Unicode MS', 'Yu Gothic UI', sans-serif;font-size:12.8px;letter-spacing:0px;line-height:0%;stroke-width:1.0667;word-spacing:0px" xml:space="preserve"><tspan x="392.65842" y="127.09631" style="fill:#ff0000;font-family:'Arial Nova', 'Arial Unicode MS', 'Yu Gothic UI', sans-serif;stroke-width:1.0667;stroke:#ff0000">D</tspan></text><text x="418.21161" y="117.99677" style="fill:#000000;font-family:'Arial Nova', 'Arial Unicode MS', 'Yu Gothic UI', sans-serif;font-size:12.8px;letter-spacing:0px;line-height:0%;stroke-width:1.0667;word-spacing:0px" xml:space="preserve"><tspan x="418.21161" y="117.99677" style="fill:#ff0000;font-family:'Arial Nova', 'Arial Unicode MS', 'Yu Gothic UI', sans-serif;stroke-width:1.0667;stroke:#ff0000">E</tspan></text><g transform="matrix(.2917 0 0 .28875 168.2 71.469)" style="fill:#1f638a;stroke-linecap:round;stroke-linejoin:round;stroke-width:1.2209;stroke:#1f638a"><path d="m207.49 126.25 34.17 21.614-34.17 21.614z" style="fill:#1f638a;stroke-linecap:round;stroke-linejoin:round;stroke-width:1.3023;stroke:#1f638a"/><rect x="172.19" y="137.99" width="39.213" height="19.761" style="fill:#1f638a;stroke-linecap:round;stroke-linejoin:round;stroke-width:1.3023;stroke:#1f638a"/></g><g transform="matrix(.2917 0 0 .28875 393.4 71.469)" style="fill:#1f638a;stroke-linecap:round;stroke-linejoin:round;stroke-width:1.2209;stroke:#1f638a"><path d="m207.49 126.25 34.17 21.614-34.17 21.614z" style="fill:#1f638a;stroke-linecap:round;stroke-linejoin:round;stroke-width:1.3023;stroke:#1f638a"/><rect x="172.19" y="137.99" width="39.213" height="19.761" style="fill:#1f638a;stroke-linecap:round;stroke-linejoin:round;stroke-width:1.3023;stroke:#1f638a"/></g></svg>
