<?xml version="1.0" encoding="UTF-8"?>
<svg width="18cm" height="6.5cm" version="1.1" xmlns="http://www.w3.org/2000/svg" xmlns:xlink="http://www.w3.org/1999/xlink">
 <defs>
  <pattern id="pattern5017" patternTransform="matrix(-.039298 .046531 -1.6204 -1.3686 98.201 1016.8)" xlink:href="#pattern3345"/>
  <linearGradient id="linearGradient11054-2-6">
   <stop style="stop-color:#ff4d00" offset="0"/>
   <stop style="stop-color:#fff" offset="1"/>
  </linearGradient>
  <linearGradient id="linearGradient6218-7-4-0-5-2-09-2-5-4">
   <stop style="stop-color:#ff8500" offset="0"/>
   <stop style="stop-color:#fff" offset="1"/>
  </linearGradient>
  <linearGradient id="linearGradient5199-2">
   <stop style="stop-color:#fff" offset="0"/>
   <stop style="stop-color:#4fa68a" offset="1"/>
  </linearGradient>
  <linearGradient id="linearGradient6244" x1="17.471" x2="196.68" y1="825.58" y2="825.58" gradientTransform="scale(1.0667)" gradientUnits="userSpaceOnUse" xlink:href="#linearGradient5199-2"/>
  <linearGradient id="linearGradient6264" x1="17.471" x2="196.68" y1="825.58" y2="825.58" gradientUnits="userSpaceOnUse" xlink:href="#linearGradient5199-2"/>
  <linearGradient id="linearGradient6576" x1="17.471" x2="196.68" y1="825.58" y2="825.58" gradientTransform="matrix(1.0667 0 0 1.0667 452.27 157.2)" gradientUnits="userSpaceOnUse" xlink:href="#linearGradient5199-2"/>
  <linearGradient id="linearGradient6606" x1="17.471" x2="196.68" y1="825.58" y2="825.58" gradientTransform="matrix(1.0667 0 0 1.0667 226.13 157.2)" gradientUnits="userSpaceOnUse" xlink:href="#linearGradient5199-2"/>
  <linearGradient id="linearGradient6633" x1="232.56" x2="408.66" y1="818.02" y2="818.02" gradientUnits="userSpaceOnUse" xlink:href="#linearGradient11054-2-6"/>
  <linearGradient id="linearGradient6648" x1="444.56" x2="620.66" y1="818.02" y2="818.02" gradientUnits="userSpaceOnUse" xlink:href="#linearGradient6218-7-4-0-5-2-09-2-5-4"/>
  <linearGradient id="linearGradient6650" x1="444.56" x2="620.66" y1="818.02" y2="818.02" gradientTransform="scale(1.0667)" gradientUnits="userSpaceOnUse" xlink:href="#linearGradient6218-7-4-0-5-2-09-2-5-4"/>
  <linearGradient id="linearGradient6660" x1="232.56" x2="408.66" y1="818.02" y2="818.02" gradientTransform="scale(1.0667)" gradientUnits="userSpaceOnUse" xlink:href="#linearGradient11054-2-6"/>
  <pattern id="pattern3345" patternTransform="matrix(-.036842 .043622 -1.5192 -1.283 -161.28 523.25)" xlink:href="#pattern24577"/>
  <pattern id="pattern24577" patternTransform="matrix(-.036842 .043622 -1.5192 -1.283 127.06 392.18)" xlink:href="#Strips1_64"/>
  <pattern id="Strips1_64" width="65" height="1" patternTransform="translate(0) scale(10)" patternUnits="userSpaceOnUse">
   <rect y="-.5" width="1" height="2"/>
  </pattern>
 </defs>
 <g transform="translate(0 -876.85)">
  <path d="m419.43 921.28-38.286 38.037 0.0766 25.582s21.651 3.3358 28.381-1.7143c6.7298-5.0501 0.18277-15.626 7.4286-20.762 7.2458-5.1362 24.736 5.6241 31.238-0.19047 6.5022-5.8146-4.2546-13.712 2.4762-20.952 6.7308-7.2404 30.785-1.7289 37.524-7.2381 6.7384-5.5092 5.3333-12.952 5.3333-12.952z" style="color:#000000;fill-rule:evenodd;fill:url(#pattern5017);opacity:.5"/>
  <path d="m258.62 1029.3 36.072-59.008 132.5 49.434-4.8679 8.5686-59.562-22.355c-49.614-14.237-62.616 23.063-32.29 39.173l65.904 25.072-5.0522 8.4239z" style="color:#000000;fill:url(#linearGradient6606);stroke-linecap:round;stroke-linejoin:round;stroke-width:.67654;stroke:#67977f"/>
  <path d="m422.04 1055.9 2.9272-15.934-66-24.569c-20.098-8.8856-45.655 3.6533-37.241 19.884 9.3569-9.251 25.491-7.0589 33.78-3.8449z" style="color:#000000;fill:url(#linearGradient6606);stroke-linecap:round;stroke-linejoin:round;stroke-width:.67654;stroke:#67977f"/>
  <path d="m401.63 1089.8-10.409 16.701 2.9906-16.118 10.564-16.623z" style="color:#000000;fill:url(#linearGradient6606);stroke-linecap:round;stroke-linejoin:round;stroke-width:.67654;stroke:#67977f"/>
  <path d="m245.11 1052.2 146 54.488 3.1325-16.334-145.82-54.346z" style="color:#000000;fill:url(#linearGradient6606);stroke-linecap:round;stroke-linejoin:round;stroke-width:.67654;stroke:#67977f"/>
  <path d="m432.44 1039.2-10.409 16.701 2.9906-16.118 10.564-16.623z" style="color:#000000;fill:url(#linearGradient6606);stroke-linecap:round;stroke-linejoin:round;stroke-width:.67654;stroke:#67977f"/>
  <g transform="translate(0,157.2)" style="fill:url(#linearGradient6633)">
   <path d="m289.57 811.76 5.2181 1.4281-36.099 58.939-10.292 6.758z" style="color:#000000;fill:url(#linearGradient6660);stroke-linecap:round;stroke-linejoin:round;stroke-width:.67654;stroke:#67977f"/>
   <path d="m427.18 862.53 8.3893 3.3402-10.603 16.856-2.6022-11.691z" style="color:#000000;fill:url(#linearGradient6660);stroke-linecap:round;stroke-linejoin:round;stroke-width:.67654;stroke:#67977f"/>
   <path d="m396.43 913.15 8.3893 3.3403-10.603 16.856-2.8769-11.965z" style="color:#000000;fill:url(#linearGradient6660);stroke-linecap:round;stroke-linejoin:round;stroke-width:.67654;stroke:#67977f"/>
   <path d="m248.48 878.8 10.234-6.6998 132.64 49.314 2.8013 11.727z" style="color:#000000;fill:url(#linearGradient6660);stroke-linecap:round;stroke-linejoin:round;stroke-width:.67654;stroke:#67977f"/>
   <path d="m422.32 871.04 2.6411 11.807-66.018-24.728c-18.593-9.7611-57.55 6.4936-28.397 29.88-31.394-17.961-14.545-53.361 32.16-39.3z" style="color:#000000;fill:url(#linearGradient6660);stroke-linecap:round;stroke-linejoin:round;stroke-width:.67654;stroke:#67977f"/>
  </g>
  <g transform="translate(0,157.2)" style="fill:url(#linearGradient6264);stroke:#67977f">
   <path d="m32.489 872.11 36.072-59.008 132.5 49.434-4.8679 8.5686-59.562-22.355c-49.614-14.237-62.616 23.063-32.29 39.173l65.904 25.072-5.0522 8.4239z" style="color:#000000;fill:url(#linearGradient6244);stroke-linecap:round;stroke-linejoin:round;stroke-width:.67654;stroke:#67977f"/>
   <path d="m195.91 898.7 2.9272-15.934-66-24.569c-20.098-8.8856-45.655 3.6533-37.241 19.884 9.3569-9.251 25.491-7.0589 33.78-3.8449z" style="color:#000000;fill:url(#linearGradient6244);stroke-linecap:round;stroke-linejoin:round;stroke-width:.67654;stroke:#67977f"/>
   <path d="m175.5 932.58-10.409 16.701 2.9906-16.118 10.564-16.623z" style="color:#000000;fill:url(#linearGradient6244);stroke-linecap:round;stroke-linejoin:round;stroke-width:.67654;stroke:#67977f"/>
   <path d="m18.974 895 146 54.488 3.1324-16.334-145.82-54.346z" style="color:#000000;fill:url(#linearGradient6244);stroke-linecap:round;stroke-linejoin:round;stroke-width:.67654;stroke:#67977f"/>
   <path d="m206.31 881.95-10.409 16.701 2.9906-16.118 10.564-16.623z" style="color:#000000;fill:url(#linearGradient6244);stroke-linecap:round;stroke-linejoin:round;stroke-width:.67654;stroke:#67977f"/>
   <path d="m63.437 811.76 5.2181 1.4281-36.099 58.939-10.292 6.758z" style="color:#000000;fill:url(#linearGradient6244);stroke-linecap:round;stroke-linejoin:round;stroke-width:.67654;stroke:#67977f"/>
   <path d="m201.04 862.53 8.3893 3.3402-10.603 16.856-2.6022-11.691z" style="color:#000000;fill:url(#linearGradient6244);stroke-linecap:round;stroke-linejoin:round;stroke-width:.67654;stroke:#67977f"/>
   <path d="m170.3 913.15 8.3893 3.3403-10.603 16.856-2.8769-11.965z" style="color:#000000;fill:url(#linearGradient6244);stroke-linecap:round;stroke-linejoin:round;stroke-width:.67654;stroke:#67977f"/>
   <path d="m22.342 878.8 10.234-6.6998 132.64 49.314 2.8013 11.727z" style="color:#000000;fill:url(#linearGradient6244);stroke-linecap:round;stroke-linejoin:round;stroke-width:.67654;stroke:#67977f"/>
   <path d="m196.19 871.04 2.6411 11.807-66.018-24.728c-18.593-9.7611-57.55 6.4936-28.397 29.88-31.394-17.961-14.545-53.361 32.16-39.3z" style="color:#000000;fill:url(#linearGradient6244);stroke-linecap:round;stroke-linejoin:round;stroke-width:.67654;stroke:#67977f"/>
  </g>
  <path d="m484.76 1029.3 36.072-59.008 132.5 49.434-4.8679 8.5686-59.562-22.355c-49.614-14.237-62.616 23.063-32.29 39.173l65.904 25.072-5.0522 8.4239z" style="color:#000000;fill:url(#linearGradient6576);stroke-linecap:round;stroke-linejoin:round;stroke-width:.67654;stroke:#67977f"/>
  <path d="m648.18 1055.9 2.9272-15.934-66-24.569c-20.098-8.8856-45.655 3.6533-37.241 19.884 9.3569-9.251 25.491-7.0589 33.78-3.8449z" style="color:#000000;fill:url(#linearGradient6576);stroke-linecap:round;stroke-linejoin:round;stroke-width:.67654;stroke:#67977f"/>
  <path d="m627.77 1089.8-10.409 16.701 2.9906-16.118 10.564-16.623z" style="color:#000000;fill:url(#linearGradient6576);stroke-linecap:round;stroke-linejoin:round;stroke-width:.67654;stroke:#67977f"/>
  <path d="m471.24 1052.2 146 54.488 3.1325-16.334-145.82-54.346z" style="color:#000000;fill:url(#linearGradient6576);stroke-linecap:round;stroke-linejoin:round;stroke-width:.67654;stroke:#67977f"/>
  <path d="m658.58 1039.2-10.409 16.701 2.9906-16.118 10.564-16.623z" style="color:#000000;fill:url(#linearGradient6576);stroke-linecap:round;stroke-linejoin:round;stroke-width:.67654;stroke:#67977f"/>
  <g transform="translate(0,157.2)" style="fill:url(#linearGradient6648)">
   <path d="m515.7 811.76 5.2181 1.4281-36.099 58.939-10.292 6.758z" style="color:#000000;fill:url(#linearGradient6650);stroke-linecap:round;stroke-linejoin:round;stroke-width:.67654;stroke:#67977f"/>
   <path d="m653.31 862.53 8.3893 3.3402-10.603 16.856-2.6022-11.691z" style="color:#000000;fill:url(#linearGradient6650);stroke-linecap:round;stroke-linejoin:round;stroke-width:.67654;stroke:#67977f"/>
   <path d="m622.56 913.15 8.3893 3.3403-10.603 16.856-2.8769-11.965z" style="color:#000000;fill:url(#linearGradient6650);stroke-linecap:round;stroke-linejoin:round;stroke-width:.67654;stroke:#67977f"/>
   <path d="m474.61 878.8 10.234-6.6998 132.64 49.314 2.8013 11.727z" style="color:#000000;fill:url(#linearGradient6650);stroke-linecap:round;stroke-linejoin:round;stroke-width:.67654;stroke:#67977f"/>
   <path d="m648.45 871.04 2.6411 11.807-66.018-24.728c-18.593-9.7611-57.55 6.4936-28.397 29.88-31.394-17.961-14.545-53.361 32.16-39.3z" style="color:#000000;fill:url(#linearGradient6650);stroke-linecap:round;stroke-linejoin:round;stroke-width:.67654;stroke:#67977f"/>
  </g>
  <path d="m153.99 1104 6.2254-5.147 6.9023 14.13 6.2932-3.0741-6.9023-14.13 7.4286-1.523-19.542-14.716z" style="fill:#fff;stroke-linecap:round;stroke-linejoin:round;stroke-width:.75591;stroke:#000"/>
  <g transform="translate(-41.311 784.55)">
   <ellipse cx="230.42" cy="311.21" rx="13.199" ry="13.469" style="fill:#1f638a;stroke-linecap:round;stroke-linejoin:round;stroke-width:1.0658"/>
   <text x="224.84752" y="318.87271" style="fill:#000000;font-family:'Arial Nova', 'Arial Unicode MS', 'Yu Gothic UI', sans-serif;font-size:12.8px;letter-spacing:0px;line-height:0%;stroke-width:1.0667;word-spacing:0px" xml:space="preserve"><tspan x="224.84752" y="318.87271" style="fill:#ffffff;font-family:'Arial Nova', 'Arial Unicode MS', 'Yu Gothic UI', sans-serif;font-size:21.333px;font-weight:bold;stroke-width:1.0667">1</tspan></text>
  </g>
  <g transform="matrix(.2917 0 0 .28875 410.73 1033.3)" style="fill:#1f638a;stroke-linecap:round;stroke-linejoin:round;stroke-width:1.2209;stroke:#1f638a">
   <path d="m207.49 126.25 34.17 21.614-34.17 21.614z" style="fill:#1f638a;stroke-linecap:round;stroke-linejoin:round;stroke-width:1.3023;stroke:#1f638a"/>
   <rect x="172.19" y="137.99" width="39.213" height="19.761" style="fill:#1f638a;stroke-linecap:round;stroke-linejoin:round;stroke-width:1.3023;stroke:#1f638a"/>
  </g>
  <g transform="matrix(.2917 0 0 .28875 185.63 1033.3)" style="fill:#1f638a;stroke-linecap:round;stroke-linejoin:round;stroke-width:1.2209;stroke:#1f638a">
   <path d="m207.49 126.25 34.17 21.614-34.17 21.614z" style="fill:#1f638a;stroke-linecap:round;stroke-linejoin:round;stroke-width:1.3023;stroke:#1f638a"/>
   <rect x="172.19" y="137.99" width="39.213" height="19.761" style="fill:#1f638a;stroke-linecap:round;stroke-linejoin:round;stroke-width:1.3023;stroke:#1f638a"/>
  </g>
  <path d="m276.79 1067 6.2254-5.1469 6.9023 14.13 6.2932-3.0742-6.9023-14.13 7.4286-1.523-19.542-14.716z" style="fill:#fff;stroke-linecap:round;stroke-linejoin:round;stroke-width:.75591;stroke:#000"/>
  <path d="m382.89 958.64 34.906-35.308" style="fill:none;stroke-dasharray:2.33321795, 2.33321795;stroke-linecap:round;stroke-linejoin:round;stroke-width:.77774;stroke:#000"/>
  <path d="m381.06 984.39v-24.978l38.36-38.177h74.675" style="fill:none;stroke-linecap:round;stroke-linejoin:round;stroke-width:3.7795;stroke:#67977f"/>
  <path d="m418.66 920.61-22.692-22.692" style="fill:none;stroke-linecap:round;stroke-linejoin:round;stroke-width:.75591;stroke:#000"/>
  <path d="m380.23 958.85-22.692-22.692" style="fill:none;stroke-linecap:round;stroke-linejoin:round;stroke-width:.75591;stroke:#000"/>
  <path d="m400.67 900.83 11.924-5.781-6.1195-6.2708z" style="stroke-linecap:round;stroke-linejoin:round;stroke-width:1.0658;stroke:#000"/>
  <path d="m360.67 940.56-11.862 5.9075 6.1858 6.2054z" style="stroke-linecap:round;stroke-linejoin:round;stroke-width:1.0658;stroke:#000"/>
  <path d="m411.41 890.25-60.939 60.558" style="stroke-linecap:round;stroke-linejoin:round;stroke-width:.75591;stroke:#000"/>
  <g transform="translate(333.03 798.83)">
   <ellipse cx="29.391" cy="111.47" rx="13.199" ry="13.469" style="fill:#1f638a;stroke-linecap:round;stroke-linejoin:round;stroke-width:1.0658"/>
   <text x="23.815731" y="119.13964" style="fill:#000000;font-family:'Arial Nova', 'Arial Unicode MS', 'Yu Gothic UI', sans-serif;font-size:12.8px;letter-spacing:0px;line-height:0%;stroke-width:1.0667;word-spacing:0px" xml:space="preserve"><tspan x="23.815731" y="119.13964" style="fill:#ffffff;font-family:'Arial Nova', 'Arial Unicode MS', 'Yu Gothic UI', sans-serif;font-size:21.333px;font-weight:bold;stroke-width:1.0667">2</tspan></text>
  </g>
 </g>
</svg>
