<?xml version="1.0" encoding="UTF-8"?>
<svg width="18cm" height="5.5cm" version="1.1" xmlns="http://www.w3.org/2000/svg" xmlns:xlink="http://www.w3.org/1999/xlink">
 <defs>
  <linearGradient id="linearGradient10628">
   <stop style="stop-color:#fff" offset="0"/>
   <stop style="stop-color:#4fa68a" offset="1"/>
  </linearGradient>
  <linearGradient id="linearGradient6218-7-4-0-5-2-09">
   <stop style="stop-color:#ff8500" offset="0"/>
   <stop style="stop-color:#fff" offset="1"/>
  </linearGradient>
  <linearGradient id="linearGradient12379" x1="155.43" x2="158.86" y1="238.13" y2="238.13" gradientTransform="matrix(1.0667 0 0 1.0667 0 30)" gradientUnits="userSpaceOnUse" xlink:href="#linearGradient6218-7-4-0-5-2-09"/>
  <linearGradient id="linearGradient12387" x1="118.82" x2="121.24" y1="203.39" y2="203.39" gradientTransform="matrix(1.0667 0 0 1.0667 0 30)" gradientUnits="userSpaceOnUse" xlink:href="#linearGradient6218-7-4-0-5-2-09"/>
  <linearGradient id="linearGradient12395" x1="191.53" x2="194.13" y1="202.72" y2="202.72" gradientTransform="matrix(1.0667 0 0 1.0667 0 30)" gradientUnits="userSpaceOnUse" xlink:href="#linearGradient6218-7-4-0-5-2-09"/>
  <linearGradient id="linearGradient12273" x1="453.88" x2="491.01" y1="266.9" y2="266.9" gradientUnits="userSpaceOnUse" xlink:href="#linearGradient10628"/>
  <linearGradient id="linearGradient12291" x1="453.88" x2="491.01" y1="266.9" y2="266.9" gradientTransform="scale(1.0667)" gradientUnits="userSpaceOnUse" xlink:href="#linearGradient10628"/>
  <linearGradient id="linearGradient12267" x1="470.9" x2="472.24" y1="182.31" y2="182.31" gradientTransform="matrix(1.0667 0 0 1.0667 22.784 30)" gradientUnits="userSpaceOnUse" xlink:href="#linearGradient10628"/>
  <linearGradient id="linearGradient12269" x1="506.73" x2="602.24" y1="187.55" y2="187.55" gradientUnits="userSpaceOnUse" xlink:href="#linearGradient10628"/>
  <linearGradient id="linearGradient12283" x1="506.73" x2="602.24" y1="187.55" y2="187.55" gradientTransform="scale(1.0667)" gradientUnits="userSpaceOnUse" xlink:href="#linearGradient10628"/>
  <linearGradient id="linearGradient12271" x1="340.44" x2="436.45" y1="189.39" y2="189.39" gradientUnits="userSpaceOnUse" xlink:href="#linearGradient10628"/>
  <linearGradient id="linearGradient12275" x1="340.44" x2="436.45" y1="189.39" y2="189.39" gradientTransform="scale(1.0667)" gradientUnits="userSpaceOnUse" xlink:href="#linearGradient10628"/>
 </defs>
 <g transform="translate(0 -170.08)">
  <path d="m149.17 323.92h37.629v36.955h-37.09z" style="fill:none;stroke-linecap:round;stroke-linejoin:round;stroke-width:1.4324;stroke:#67977f"/>
  <path d="m148.64 275.77 17.938-10.385h1.8882l17.371 10.029 0.97203 48.641h-37.764z" style="fill:none;stroke-linecap:round;stroke-linejoin:round;stroke-width:1.4324;stroke:#67977f"/>
  <path d="m166.57 302.61h2.158l-0.20232-37.225h-2.0231z" style="fill:url(#linearGradient12379);stroke-linecap:round;stroke-linejoin:round;stroke-width:1.4324;stroke:#67977f"/>
  <path d="m148.95 312.83 17.834-10.204" style="fill:none;stroke-linecap:round;stroke-linejoin:round;stroke-width:1.4324;stroke:#67977f"/>
  <path d="m186.53 312.64-17.929-10.014" style="fill:none;stroke-linecap:round;stroke-linejoin:round;stroke-width:1.4324;stroke:#67977f"/>
  <path d="m102.79 232.63 24.605-3.8624 0.19074 37.432-24.319 3.8148z" style="fill:none;stroke-linecap:round;stroke-linejoin:round;stroke-width:1.4324;stroke:#67977f"/>
  <path d="m27.64 209.26 75.151 23.461 0.47685 37.194-75.151-23.461z" style="fill:none;stroke-linecap:round;stroke-linejoin:round;stroke-width:1.4324;stroke:#67977f"/>
  <path d="m45.862 191.21 0.53949 37.495-18.208 17.803-0.5395-37.225z" style="fill:none;stroke-linecap:round;stroke-linejoin:round;stroke-width:1.4324;stroke:#67977f"/>
  <path d="m121.66 251.63-0.26973-37.09-75.394-23.603 0.40462 37.764z" style="fill:none;stroke-linecap:round;stroke-linejoin:round;stroke-width:1.4324;stroke:#67977f"/>
  <path d="m121.48 214.41 6.7712 13.542 0.38146 37.48-7.248-14.115z" style="fill:none;stroke-linecap:round;stroke-linejoin:round;stroke-width:1.4324;stroke:#67977f"/>
  <path d="m27.623 209.19 75.02 23.555 24.412-3.7764 1.3425-1.0672-6.8666-13.447-75.628-23.556z" style="fill:none;stroke-linecap:round;stroke-linejoin:round;stroke-width:1.4324;stroke:#67977f"/>
  <path d="m127.46 228.7 0.87668-0.87668 0.26977 37.427-0.87671 0.80923z" style="fill:url(#linearGradient12387)"/>
  <path d="m230.3 231.2 0.47208 37.36-24.547-3.3044-0.33716-37.36z" style="fill:none;stroke-linecap:round;stroke-linejoin:round;stroke-width:1.4324;stroke:#67977f"/>
  <path d="m305.07 206.21 0.38147 37.385-74.483 25.082-0.76295-37.575z" style="fill:none;stroke-linecap:round;stroke-linejoin:round;stroke-width:1.4324;stroke:#67977f"/>
  <path d="m286 188.28 19.169 17.929 0.47684 37.48-19.265-18.12z" style="fill:none;stroke-linecap:round;stroke-linejoin:round;stroke-width:1.4324;stroke:#67977f"/>
  <path d="m211.61 250.46 74.865-24.987-0.38148-37.194-74.674 25.177z" style="fill:none;stroke-linecap:round;stroke-linejoin:round;stroke-width:1.4324;stroke:#67977f"/>
  <path d="m205.12 264.58 6.4851-14.115-0.19073-37.099-6.3897 13.733z" style="fill:none;stroke-linecap:round;stroke-linejoin:round;stroke-width:1.4324;stroke:#67977f"/>
  <path d="m205.89 227.96 24.21 3.1695 74.955-24.951-18.983-17.871-74.652 25.187-6.4149 13.646z" style="fill:none;stroke-linecap:round;stroke-linejoin:round;stroke-width:1.4324;stroke:#67977f"/>
  <path d="m205.01 227.22 0.87668 0.60693 0.47204 37.427-1.0115-0.67434z" style="fill:url(#linearGradient12395)"/>
  <path d="m166.48 201.71 0.2125 38.745" style="fill:#f00;stroke-linecap:round;stroke-linejoin:round;stroke-width:.94488;stroke:#f00"/>
  <path d="m166.47 191.49 4.3849 12.505-8.7609 0.13587z" style="fill:#f00;stroke-linecap:round;stroke-linejoin:round;stroke-width:1.0658;stroke:#f00"/>
  <ellipse transform="matrix(-.037301 -.9993 .99947 -.032652 0 0)" cx="-246.17" cy="157.54" rx="1.2735" ry="1.2731" style="fill:#f00;stroke-linecap:round;stroke-linejoin:round;stroke-width:1.2329;stroke:#f00"/>
  <g transform="translate(157.64 383.78)">
   <ellipse cx="-44.92" cy="-98.798" rx="13.199" ry="13.469" style="fill:#1f638a;stroke-linecap:round;stroke-linejoin:round;stroke-width:1.0658"/>
   <text x="-50.761276" y="-91.125885" style="fill:#000000;font-family:'Arial Nova', 'Arial Unicode MS', 'Yu Gothic UI', sans-serif;font-size:12.8px;letter-spacing:0px;line-height:0%;stroke-width:1.0667;word-spacing:0px" xml:space="preserve"><tspan x="-50.761276" y="-91.125885" style="fill:#ffffff;font-family:'Arial Nova', 'Arial Unicode MS', 'Yu Gothic UI', sans-serif;font-size:21.333px;line-height:1.25;stroke-width:1.0667;stroke:#ffffff">1</tspan></text>
  </g>
  <g transform="translate(204.65 295.01)">
   <ellipse cx="-13.718" cy="-98.798" rx="13.199" ry="13.469" style="fill:#1f638a;stroke-linecap:round;stroke-linejoin:round;stroke-width:1.0658"/>
   <text x="-19.559933" y="-91.125885" style="fill:#000000;font-family:'Arial Nova', 'Arial Unicode MS', 'Yu Gothic UI', sans-serif;font-size:12.8px;letter-spacing:0px;line-height:0%;stroke-width:1.0667;word-spacing:0px" xml:space="preserve"><tspan x="-19.559933" y="-91.125885" style="fill:#ffffff;font-family:'Arial Nova', 'Arial Unicode MS', 'Yu Gothic UI', sans-serif;font-size:21.333px;line-height:1.25;stroke-width:1.0667;stroke:#ffffff">2</tspan></text>
  </g>
  <path d="m128.5 289.41 6.2254-5.147 6.9023 14.13 6.2932-3.0742-6.9023-14.13 7.4286-1.523-19.542-14.716z" style="fill:#fff;stroke-linecap:round;stroke-linejoin:round;stroke-width:.75591;stroke:#000"/>
  <path d="m167.36 322.55 6.2254-5.147 6.9023 14.13 6.2932-3.0742-6.9023-14.13 7.4286-1.523-19.542-14.716z" style="fill:#fff;stroke-linecap:round;stroke-linejoin:round;stroke-width:.75591;stroke:#000"/>
  <path d="m205.45 286.55 6.2254-5.147 6.9023 14.13 6.2932-3.0742-6.9023-14.13 7.4286-1.523-19.542-14.716z" style="fill:#fff;stroke-linecap:round;stroke-linejoin:round;stroke-width:.75591;stroke:#000"/>
  <path d="m168.12 226.55 6.2254-5.147 6.9023 14.13 6.2932-3.0742-6.9023-14.13 7.4286-1.523-19.542-14.716z" style="fill:#fff;stroke-linecap:round;stroke-linejoin:round;stroke-width:.75591;stroke:#000"/>
  <g transform="matrix(.2917 0 0 .28875 293.06 225.72)" style="fill:#1f638a;stroke-linecap:round;stroke-linejoin:round;stroke-width:1.2209;stroke:#1f638a">
   <path d="m207.49 126.25 34.17 21.614-34.17 21.614z" style="fill:#1f638a;stroke-linecap:round;stroke-linejoin:round;stroke-width:1.3023;stroke:#1f638a"/>
   <rect x="172.19" y="137.99" width="39.213" height="19.761" style="fill:#1f638a;stroke-linecap:round;stroke-linejoin:round;stroke-width:1.3023;stroke:#1f638a"/>
  </g>
  <g transform="translate(30.871 32.378)" style="fill:url(#linearGradient12271)">
   <path d="m463.68 200.27 0.87669-0.87667 0.26977 37.427-0.87672 0.80924z" style="fill:url(#linearGradient12275);stroke-linecap:round;stroke-linejoin:round;stroke-width:1.4324;stroke:#67977f"/>
   <path d="m439.02 204.19 24.605-3.8624 0.19074 37.432-24.319 3.8148z" style="fill:url(#linearGradient12275);stroke-linecap:round;stroke-linejoin:round;stroke-width:1.4324;stroke:#67977f"/>
   <path d="m363.87 180.83 75.151 23.461 0.47686 37.194-75.151-23.461z" style="fill:url(#linearGradient12275);stroke-linecap:round;stroke-linejoin:round;stroke-width:1.4324;stroke:#67977f"/>
   <path d="m363.85 180.76 75.02 23.555 24.412-3.7764 1.3425-1.0672-6.8666-13.447-75.628-23.556z" style="fill:url(#linearGradient12275);stroke-linecap:round;stroke-linejoin:round;stroke-width:1.4324;stroke:#67977f"/>
  </g>
  <g transform="translate(14.928 31.667)" style="fill:url(#linearGradient12269)">
   <path d="m541.24 198.78 0.87668 0.60693 0.47204 37.427-1.0115-0.67433z" style="fill:url(#linearGradient12283);stroke-linecap:round;stroke-linejoin:round;stroke-width:1.4324;stroke:#67977f"/>
   <path d="m566.53 202.76 0.47208 37.36-24.547-3.3044-0.33716-37.36z" style="fill:url(#linearGradient12283);stroke-linecap:round;stroke-linejoin:round;stroke-width:1.4324;stroke:#67977f"/>
   <path d="m641.29 177.77 0.38147 37.385-74.483 25.082-0.76296-37.575z" style="fill:url(#linearGradient12283);stroke-linecap:round;stroke-linejoin:round;stroke-width:1.4324;stroke:#67977f"/>
   <path d="m542.11 199.53 24.21 3.1695 74.955-24.951-18.983-17.871-74.652 25.187-6.4149 13.646z" style="fill:url(#linearGradient12283);stroke-linecap:round;stroke-linejoin:round;stroke-width:1.4324;stroke:#67977f"/>
  </g>
  <path d="m525.79 304.26v-97.726" style="fill:url(#linearGradient12267);stroke-dasharray:2.70614166, 1.35307083, 0.67653541, 1.35307083;stroke-linecap:round;stroke-linejoin:round;stroke-width:.67654;stroke:#000"/>
  <g transform="translate(21.721 33.952)" style="fill:url(#linearGradient12273)">
   <path d="m485.4 295.49h37.629v36.955h-37.09z" style="fill:url(#linearGradient12291);stroke-linecap:round;stroke-linejoin:round;stroke-width:1.4324;stroke:#67977f"/>
   <path d="m484.86 247.34 17.938-10.385h1.8882l17.371 10.029 0.97203 48.641h-37.764z" style="fill:url(#linearGradient12291);stroke-linecap:round;stroke-linejoin:round;stroke-width:1.4324;stroke:#67977f"/>
  </g>
  <path d="m491 256.43 12.571-8.9959v8.7619z" style="stroke-linecap:round;stroke-linejoin:round;stroke-width:1.0658;stroke:#000"/>
  <path d="m491 256.43 64.098-24.927" style="stroke-linecap:round;stroke-linejoin:round;stroke-width:.94488;stroke:#000"/>
  <path d="m555.1 231.5-12.571 0.61492v8.7619z" style="stroke-linecap:round;stroke-linejoin:round;stroke-width:1.0658;stroke:#000"/>
  <ellipse cx="525.79" cy="246.49" rx="39.187" ry="22.693" style="fill:none;stroke-width:.61309;stroke:#000"/>
  <g transform="translate(493.63 327.52)">
   <ellipse cx="17.483" cy="-98.798" rx="13.199" ry="13.469" style="fill:#1f638a;stroke-linecap:round;stroke-linejoin:round;stroke-width:1.0658"/>
   <text x="11.641406" y="-91.256096" style="fill:#000000;font-family:'Arial Nova', 'Arial Unicode MS', 'Yu Gothic UI', sans-serif;font-size:12.8px;letter-spacing:0px;line-height:0%;stroke-width:1.0667;word-spacing:0px" xml:space="preserve"><tspan x="11.641406" y="-91.256096" style="fill:#ffffff;font-family:'Arial Nova', 'Arial Unicode MS', 'Yu Gothic UI', sans-serif;font-size:21.333px;line-height:1.25;stroke-width:1.0667;stroke:#ffffff">3</tspan></text>
  </g>
 </g>
</svg>
