<?xml version="1.0" encoding="UTF-8"?>
<svg width="5.5cm" height="1.2cm" version="1.1" viewBox="0 0 194.88 42.52" xmlns="http://www.w3.org/2000/svg" xmlns:xlink="http://www.w3.org/1999/xlink">
 <g transform="translate(-13.818 -1095.6)">
  <path d="m17.343 1122.9 5.8363-4.8253 6.4709 13.247 5.8999-2.8821-6.4709-13.247 6.9643-1.4278-18.321-13.796z" style="fill:#fff;stroke-linecap:round;stroke-linejoin:round;stroke-width:.70866;stroke:#000"/>
  <path d="m49.218 1122.9 5.8363-4.8253 6.4709 13.247 5.8999-2.8821-6.4709-13.247 6.9643-1.4278-18.321-13.796z" style="fill:#fff;stroke-linecap:round;stroke-linejoin:round;stroke-width:.70866;stroke:#000"/>
  <path d="m46.415 1125.7 5.8363-4.8253 6.4709 13.247 5.8999-2.8821-6.4709-13.247 6.9643-1.4278-18.321-13.796z" style="fill:#fff;stroke-linecap:round;stroke-linejoin:round;stroke-width:.70866;stroke:#000"/>
  <g transform="matrix(.27347 0 0 .2707 106.09 1077.2)" style="fill:#1f638a;stroke-linecap:round;stroke-linejoin:round;stroke-width:1.2209;stroke:#1f638a">
   <path d="m207.49 126.25 34.17 21.614-34.17 21.614z" style="fill:#1f638a;stroke-linecap:round;stroke-linejoin:round;stroke-width:1.3023;stroke:#1f638a"/>
   <rect x="172.19" y="137.99" width="39.213" height="19.761" style="fill:#1f638a;stroke-linecap:round;stroke-linejoin:round;stroke-width:1.3023;stroke:#1f638a"/>
  </g>
  <g transform="matrix(0 .27347 -.2707 0 230.09 1060.6)" style="fill:#1f638a;stroke-linecap:round;stroke-linejoin:round;stroke-width:1.2209;stroke:#1f638a">
   <path d="m207.49 126.25 34.17 21.614-34.17 21.614z" style="fill:#1f638a;stroke-linecap:round;stroke-linejoin:round;stroke-width:1.3023;stroke:#1f638a"/>
   <rect x="172.19" y="137.99" width="39.213" height="19.761" style="fill:#1f638a;stroke-linecap:round;stroke-linejoin:round;stroke-width:1.3023;stroke:#1f638a"/>
  </g>
  <g transform="matrix(.9375 0 0 .9375 134.61 1209.8)">
   <ellipse cx="-44.92" cy="-98.798" rx="13.199" ry="13.469" style="fill:#1f638a;stroke-linecap:round;stroke-linejoin:round;stroke-width:1.0658"/>
   <text x="-50.761276" y="-91.125885" style="fill:#000000;font-family:'Arial Nova', 'Arial Unicode MS', 'Yu Gothic UI', sans-serif;font-size:12.8px;letter-spacing:0px;line-height:0%;stroke-width:1.0667;word-spacing:0px" xml:space="preserve"><tspan x="-50.761276" y="-91.125885" style="fill:#ffffff;font-family:'Arial Nova', 'Arial Unicode MS', 'Yu Gothic UI', sans-serif;font-size:21.333px;line-height:1.25;stroke-width:1.0667;stroke:#ffffff">1</tspan></text>
  </g>
  <g transform="matrix(.9375 0 0 .9375 163.53 1163.7)">
   <ellipse cx="-36.9" cy="-49.598" rx="13.199" ry="13.469" style="fill:#1f638a;stroke-linecap:round;stroke-linejoin:round;stroke-width:1.0658"/>
   <text x="-44.014687" y="-41.962215" style="fill:#000000;font-family:'Arial Nova', 'Arial Unicode MS', 'Yu Gothic UI', sans-serif;font-size:12.8px;letter-spacing:0px;line-height:0%;stroke-width:1.0667;word-spacing:0px" xml:space="preserve"><tspan x="-44.014687" y="-41.962215" style="fill:#ffffff;font-family:'Arial Nova', 'Arial Unicode MS', 'Yu Gothic UI', sans-serif;font-size:21.333px;line-height:1.25;stroke-width:1.0667;stroke:#ffffff">A</tspan></text>
  </g>
 </g>
</svg>
