<?xml version="1.0" encoding="UTF-8"?>
<svg width="18cm" height="7.5cm" version="1.1" xmlns="http://www.w3.org/2000/svg" xmlns:osb="http://www.openswatchbook.org/uri/2009/osb" xmlns:xlink="http://www.w3.org/1999/xlink">
 <defs>
  <linearGradient id="linearGradient9157" x1="603.69" x2="379.44" y1="309.49" y2="117.61" gradientTransform="matrix(1.0667 0 0 1.0667 -286.95 106.17)" gradientUnits="userSpaceOnUse">
   <stop style="stop-color:#ff8500" offset="0"/>
   <stop style="stop-color:#fff" offset="1"/>
  </linearGradient>
  <linearGradient id="linearGradient9170" x1="377.14" x2="556.81" y1="118.42" y2="259.51" gradientTransform="matrix(1.0667 0 0 1.0667 47.982 106.17)" gradientUnits="userSpaceOnUse">
   <stop style="stop-color:#fff" offset="0"/>
   <stop style="stop-color:#808080" offset="1"/>
  </linearGradient>
 </defs>
 <g transform="translate(0 -170.08)">
  <path d="m440.25 278.87c54.187-2.6787 126.86 25.887 159.31 102.18l50.874-21.126c-37.085-88.6-122.64-138.33-212.12-136.67z" style="fill:url(#linearGradient9170);stroke-linecap:round;stroke-linejoin:round;stroke-width:1.8898;stroke:#7d7d7d"/>
  <path d="m600.91 285.11a1.89 1.89 0 0 0-1.1 0.56667l-38.7 39.267a1.89 1.89 0 1 0 2.7 2.6333l38.667-39.233a1.89 1.89 0 0 0-1.5667-3.2333z" style="color:#000000;fill:#fff;stroke-linejoin:round;stroke-width:.75591;stroke:#000;text-decoration-line:none;text-indent:0;text-transform:none"/>
  <path d="m628.34 316.88a1.89 1.89 0 0 0-1 0.36667l-45.8 31.767a1.8911 1.8911 0 1 0 2.1667 3.1l45.8-31.767a1.89 1.89 0 0 0-1.1667-3.4667z" style="color:#000000;fill:#fff;stroke-linejoin:round;stroke-width:.75591;stroke:#000;text-decoration-line:none;text-indent:0;text-transform:none"/>
  <path d="m530.51 238.85a1.89 1.89 0 0 0-1.7 1.2l-20.8 50.733a1.89 1.89 0 1 0 3.4667 1.4333l20.8-50.733a1.89 1.89 0 0 0-1.7667-2.6333z" style="color:#000000;fill:#fff;stroke-linejoin:round;stroke-width:.75591;stroke:#000;text-decoration-line:none;text-indent:0;text-transform:none"/>
  <path d="m567.91 258.55a1.89 1.89 0 0 0-1.5333 0.86666l-30.167 45.633a1.89 1.89 0 1 0 3.1333 2.0667l30.2-45.6a1.89 1.89 0 0 0-1.6333-2.9667z" style="color:#000000;fill:#fff;stroke-linejoin:round;stroke-width:.75591;stroke:#000;text-decoration-line:none;text-indent:0;text-transform:none"/>
  <path d="m439.59 252.17c85.533 0.77377 148.21 39.541 186.04 119.64" style="fill:none;stroke-linecap:round;stroke-linejoin:round;stroke-width:.75591;stroke:#7d7d7d"/>
  <path d="m536.38 305.84 29.533-46.563" style="fill:none;stroke-linecap:round;stroke-linejoin:round;stroke-width:.75591;stroke:#7d7d7d"/>
  <path d="m391.7 301.91 9.9675 6.2408-9.9675 6.2408z" style="fill:#1f638a;stroke-linecap:round;stroke-linejoin:round;stroke-width:.37795;stroke:#1f638a"/>
  <rect x="381.41" y="305.3" width="11.439" height="5.7059" style="fill:#1f638a;stroke-linecap:round;stroke-linejoin:round;stroke-width:.37795;stroke:#1f638a"/>
  <path d="m105.32 278.87c54.187-2.6787 126.86 25.887 159.31 102.18l50.874-21.126c-37.085-88.6-122.64-138.33-212.12-136.67z" style="fill:url(#linearGradient9157);stroke-linecap:round;stroke-linejoin:round;stroke-width:1.8898;stroke:#7d7d7d"/>
  <path d="m105.75 306.47c53.871-1.9159 108.04 26.264 133.65 85.581" style="fill:none;stroke-linecap:round;stroke-linejoin:round;stroke-width:3.7795;stroke:#f00"/>
  <path d="m104.24 251.28c85.533 0.77377 148.21 39.541 186.04 119.64" style="fill:none;stroke-linecap:round;stroke-linejoin:round;stroke-width:.75591;stroke:#7d7d7d"/>
  <path d="m201.03 304.96 29.533-46.563" style="fill:none;stroke-linecap:round;stroke-linejoin:round;stroke-width:.75591;stroke:#7d7d7d"/>
  <ellipse transform="matrix(.85189 -.52372 .49471 .86906 0 0)" cx="-3.3557" cy="430" rx="41.627" ry="29.138" style="color:#000000;fill-opacity:.099174;fill:#f00;stroke-dasharray:0.75612045, 2.26836133;stroke-linecap:round;stroke-linejoin:round;stroke-width:.75612;stroke:#f00"/>
  <path d="m195.74 240.48-20.933 51.025" style="fill:none;stroke-dasharray:3.19748039, 3.19748039;stroke-linecap:round;stroke-linejoin:round;stroke-width:1.0658;stroke:#f00"/>
  <path d="m233.31 260.29-30.465 45.791" style="fill:none;stroke-dasharray:3.19748039, 3.19748039;stroke-linecap:round;stroke-linejoin:round;stroke-width:1.0658;stroke:#f00"/>
  <path d="m266.2 287.01-38.689 39.25" style="fill:none;stroke-dasharray:3.19748039, 3.19748039;stroke-linecap:round;stroke-linejoin:round;stroke-width:1.0658;stroke:#f00"/>
  <path d="m293.49 318.79-45.791 31.774" style="fill:none;stroke-dasharray:3.19748039, 3.19748039;stroke-linecap:round;stroke-linejoin:round;stroke-width:1.0658;stroke:#f00"/>
  <ellipse transform="rotate(-2)" cx="197.23" cy="382.88" rx="4.0406" ry="3.7795" style="fill:#f00;stroke-linecap:round;stroke-linejoin:round;stroke-width:3.7837;stroke:#f00"/>
  <path d="m207.38 211.86c14.817 6.2114 29.187 13.712 42.935 22.507" style="fill:none;stroke-dashoffset:2.3467;stroke-linecap:round;stroke-linejoin:round;stroke-width:.67654;stroke:#000"/>
  <path d="m208.82 208.55-13.298 32.436" style="stroke-dashoffset:2.3467;stroke-linecap:round;stroke-linejoin:round;stroke-width:.67654;stroke:#000"/>
  <path d="m252.46 231.1-19.574 29.577" style="stroke-dashoffset:2.3467;stroke-linecap:round;stroke-linejoin:round;stroke-width:.67654;stroke:#000"/>
  <path d="m249.37 233.69-13.011-2.5136 4.2972-7.6358z" style="stroke-linecap:round;stroke-linejoin:round;stroke-width:1.0658;stroke:#000"/>
  <path d="m208.17 212.1 13.151 1.632-3.7734 7.9078z" style="stroke-linecap:round;stroke-linejoin:round;stroke-width:1.0658;stroke:#000"/>
  <g transform="translate(-680.69 112.82)" style="stroke-dasharray:0.99921262, 1.99842525;stroke-dashoffset:3.6971;stroke-width:.99921">
   <ellipse cx="988.73" cy="286.32" rx="13.199" ry="13.469" style="fill:#1f638a;stroke-dasharray:1.06582679, 2.1316536;stroke-dashoffset:3.6971;stroke-linecap:round;stroke-linejoin:round;stroke-width:1.0658"/>
   <text x="982.88611" y="293.98578" style="fill:#000000;font-family:'Arial Nova', 'Arial Unicode MS', 'Yu Gothic UI', sans-serif;font-size:12.8px;letter-spacing:0px;line-height:0%;stroke-width:1.0658;word-spacing:0px" xml:space="preserve"><tspan x="982.88611" y="293.98578" style="fill:#ffffff;font-family:'Arial Nova', 'Arial Unicode MS', 'Yu Gothic UI', sans-serif;font-size:21.333px;font-weight:bold;stroke-width:1.0658">1</tspan></text>
  </g>
  <path d="m271.57 391.11 6.2254-5.1469 6.9023 14.13 6.2932-3.0742-6.9023-14.13 7.4286-1.523-19.542-14.716z" style="fill:#fff;stroke-linecap:round;stroke-linejoin:round;stroke-width:.75591;stroke:#000"/>
  <g transform="translate(-1080.1 175.84)">
   <ellipse cx="1175.2" cy="160.16" rx="13.199" ry="13.469" style="fill:#1f638a;stroke-linecap:round;stroke-linejoin:round;stroke-width:1.0658"/>
   <text x="1169.625" y="167.8232" style="fill:#000000;font-family:'Arial Nova', 'Arial Unicode MS', 'Yu Gothic UI', sans-serif;font-size:12.8px;letter-spacing:0px;line-height:0%;stroke-width:1.0667;word-spacing:0px" xml:space="preserve"><tspan x="1169.625" y="167.8232" style="fill:#ffffff;font-family:'Arial Nova', 'Arial Unicode MS', 'Yu Gothic UI', sans-serif;font-size:21.333px;font-weight:bold;stroke-width:1.0667">2</tspan></text>
  </g>
  <path d="m109.11 330.1 6.2254-5.1469 6.9023 14.13 6.2932-3.0742-6.9023-14.13 7.4286-1.523-19.542-14.716z" style="fill:#fff;stroke-linecap:round;stroke-linejoin:round;stroke-width:.75591;stroke:#000"/>
  <g transform="translate(-746.04 138.64)" style="stroke-dasharray:0.99921262, 1.99842525;stroke-dashoffset:3.6971;stroke-width:.99921">
   <ellipse cx="988.73" cy="286.32" rx="13.199" ry="13.469" style="fill:#1f638a;stroke-dasharray:1.06582679, 2.1316536;stroke-dashoffset:3.6971;stroke-linecap:round;stroke-linejoin:round;stroke-width:1.0658"/>
   <text x="982.88611" y="293.98578" style="fill:#000000;font-family:'Arial Nova', 'Arial Unicode MS', 'Yu Gothic UI', sans-serif;font-size:12.8px;letter-spacing:0px;line-height:0%;stroke-width:1.0658;word-spacing:0px" xml:space="preserve"><tspan x="982.88611" y="293.98578" style="fill:#ffffff;font-family:'Arial Nova', 'Arial Unicode MS', 'Yu Gothic UI', sans-serif;font-size:21.333px;font-weight:bold;stroke-width:1.0658">3</tspan></text>
  </g>
  <path d="m210.44 402.99 6.2254-5.1469 6.9023 14.13 6.2932-3.0742-6.9023-14.13 7.4286-1.523-19.542-14.716z" style="fill:#fff;stroke-linecap:round;stroke-linejoin:round;stroke-width:.75591;stroke:#000"/>
  <g transform="translate(-728.25 -287.15)">
   <ellipse cx="966.69" cy="491.73" rx="13.199" ry="13.469" style="fill:#1f638a;stroke-linecap:round;stroke-linejoin:round;stroke-width:1.0658"/>
   <text x="960.80878" y="499.3985" style="fill:#000000;font-family:'Arial Nova', 'Arial Unicode MS', 'Yu Gothic UI', sans-serif;font-size:12.8px;letter-spacing:0px;line-height:0%;stroke-width:1.0667;word-spacing:0px" xml:space="preserve"><tspan x="960.80878" y="499.3985" style="fill:#ffffff;font-family:'Arial Nova', 'Arial Unicode MS', 'Yu Gothic UI', sans-serif;font-size:21.333px;font-weight:bold;stroke-width:1.0667">4</tspan></text>
  </g>
  <path d="m210.55 376.11 37.378-25.873" style="fill:none;stroke-dasharray:0.75590554, 3.02362213;stroke-linecap:round;stroke-linejoin:round;stroke-width:.75591;stroke:#f00"/>
  <text x="302.17767" y="318.11365" style="fill:#000000;font-family:'Arial Nova', 'Arial Unicode MS', 'Yu Gothic UI', sans-serif;font-size:12.8px;letter-spacing:0px;line-height:0%;stroke-width:1.0667;word-spacing:0px" xml:space="preserve"><tspan x="302.17767" y="318.11365" style="font-family:'Arial Nova', 'Arial Unicode MS', 'Yu Gothic UI', sans-serif;stroke-width:1.0667;stroke:#ff0000">1</tspan></text>
  <text x="269.98441" y="283.98639" style="fill:#000000;font-family:'Arial Nova', 'Arial Unicode MS', 'Yu Gothic UI', sans-serif;font-size:12.8px;letter-spacing:0px;line-height:0%;stroke-width:1.0667;word-spacing:0px" xml:space="preserve"><tspan x="269.98441" y="283.98639" style="font-family:'Arial Nova', 'Arial Unicode MS', 'Yu Gothic UI', sans-serif;stroke-width:1.0667;stroke:#ff0000">2</tspan></text>
  <text x="242.40201" y="258.2067" style="fill:#000000;font-family:'Arial Nova', 'Arial Unicode MS', 'Yu Gothic UI', sans-serif;font-size:12.8px;letter-spacing:0px;line-height:0%;stroke-width:1.0667;word-spacing:0px" xml:space="preserve"><tspan x="242.40201" y="258.2067" style="font-family:'Arial Nova', 'Arial Unicode MS', 'Yu Gothic UI', sans-serif;stroke-width:1.0667;stroke:#ff0000">3</tspan></text>
  <text x="188.59024" y="231.49327" style="fill:#000000;font-family:'Arial Nova', 'Arial Unicode MS', 'Yu Gothic UI', sans-serif;font-size:12.8px;letter-spacing:0px;line-height:0%;stroke-width:1.0667;word-spacing:0px" xml:space="preserve"><tspan x="188.59024" y="231.49327" style="font-family:'Arial Nova', 'Arial Unicode MS', 'Yu Gothic UI', sans-serif;stroke-width:1.0667;stroke:#ff0000">4</tspan></text>
  <g transform="translate(-480.18 -69.004)">
   <ellipse cx="770.25" cy="332.29" rx="13.199" ry="13.469" style="fill:#1f638a;stroke-linecap:round;stroke-linejoin:round;stroke-width:1.0658"/>
   <text x="764.16443" y="339.68964" style="fill:#000000;font-family:'Arial Nova', 'Arial Unicode MS', 'Yu Gothic UI', sans-serif;font-size:12.8px;letter-spacing:0px;line-height:0%;stroke-width:1.0667;word-spacing:0px" xml:space="preserve"><tspan x="764.16443" y="339.68964" style="fill:#ffffff;font-family:'Arial Nova', 'Arial Unicode MS', 'Yu Gothic UI', sans-serif;font-size:21.333px;font-weight:bold;stroke-width:1.0667">5</tspan></text>
  </g>
  <path d="m189.53 344.99-7.6074-10.85-5.2154 7.0406z" style="fill:none;stroke-dasharray:2.26771661, 2.26771661;stroke-linecap:round;stroke-linejoin:round;stroke-width:.75591;stroke:#008000"/>
  <path d="m135.89 320.69 11.711 6.2012 1.4412-8.6426z" style="fill:none;stroke-dasharray:2.26771661, 2.26771661;stroke-linecap:round;stroke-linejoin:round;stroke-width:.75591;stroke:#008000"/>
  <path d="m148.64 323.22c10.951 1.8837 21.466 6.417 30.477 13.638" style="fill:none;stroke-dasharray:2.2677166, 2.2677166;stroke-linecap:round;stroke-linejoin:round;stroke-width:.75591;stroke:#008000"/>
  <ellipse transform="rotate(-2)" cx="195.74" cy="352.42" rx="4.0406" ry="3.7795" style="fill:#008000;stroke-linecap:round;stroke-linejoin:round;stroke-width:3.7837;stroke:#008000"/>
  <text x="227.92407" y="365.76053" style="fill:#000000;font-family:'Arial Nova', 'Arial Unicode MS', 'Yu Gothic UI', sans-serif;font-size:12.8px;letter-spacing:0px;line-height:0%;stroke-width:1.0667;word-spacing:0px" xml:space="preserve"><tspan x="227.92407" y="365.76053" style="font-family:'Arial Nova', 'Arial Unicode MS', 'Yu Gothic UI', sans-serif;stroke-width:1.0667;stroke:#ff0000">0</tspan></text>
  <ellipse cx="42.567" cy="307.94" rx="13.199" ry="13.469" style="fill:#1f638a;stroke-linecap:round;stroke-linejoin:round;stroke-width:1.0658"/>
  <text x="34.905434" y="315.57928" style="fill:#000000;font-family:'Arial Nova', 'Arial Unicode MS', 'Yu Gothic UI', sans-serif;font-size:12.8px;letter-spacing:0px;line-height:0%;stroke-width:1.0667;word-spacing:0px" xml:space="preserve"><tspan x="34.905434" y="315.57928" style="fill:#ffffff;font-family:'Arial Nova', 'Arial Unicode MS', 'Yu Gothic UI', sans-serif;font-size:21.333px;font-weight:bold;stroke-width:1.0667">C</tspan></text>
 </g>
</svg>
