<?xml version="1.0" encoding="UTF-8"?>
<svg width="18cm" height="6.5cm" version="1.1" xmlns="http://www.w3.org/2000/svg"><path d="m297.33 50.755c43.4 44.526 17.103 117.03-118.53 149.6" style="fill:none;stroke-linecap:round;stroke-linejoin:round;stroke-width:3.7795;stroke:#000"/><path d="m270.54 20.345 27.18 30.832" style="fill:none;stroke-linecap:round;stroke-linejoin:round;stroke-width:3.7795;stroke:#000"/><path d="m122.15 86.525 19.531 21.665" style="fill:none;stroke-linecap:round;stroke-linejoin:round;stroke-width:.94488;stroke:#0f0"/><path d="m141.88 78.115-0.31001 30.284" style="fill:none;stroke-linecap:round;stroke-linejoin:round;stroke-width:.94488;stroke:#00f"/><path d="m179.86 99.185-38.184 9.1037" style="fill:none;stroke-linecap:round;stroke-linejoin:round;stroke-width:.94488;stroke:#f00"/><path d="m142.13 59.265 5.1369 20.981-10.145 0.0311c1.764-10.646 5.0077-21.012 5.0077-21.012z" style="fill:#00f;stroke-linecap:round;stroke-linejoin:round;stroke-width:1.8898;stroke:#00f"/><path d="m108.28 70.255 9.8873 19.205 7.6769-6.6317c-8.3155-6.8776-17.564-12.573-17.564-12.573z" style="fill:#0f0;stroke-linecap:round;stroke-linejoin:round;stroke-width:1.8898;stroke:#0f0"/><path d="m187.73 97.345-19.387 9.5259-2.2107-9.9009 21.597 0.37502z" style="fill:#f00;stroke-linecap:round;stroke-linejoin:round;stroke-width:1.8898;stroke:#f00"/><ellipse transform="rotate(-2)" cx="171.83" cy="206.58" rx="4.0406" ry="3.7795" style="stroke-linecap:round;stroke-linejoin:round;stroke-width:3.7837;stroke:#000"/><path d="m30.128 233.88 48.913-10.639" style="fill:none;stroke-linecap:round;stroke-linejoin:round;stroke-width:3.7795;stroke:#000"/><path d="m78.976 223.3 99.91-23.136" style="fill:#800000;stroke-linecap:round;stroke-linejoin:round;stroke-width:3.7795;stroke:#000"/><path d="m615.33 50.755c43.4 44.526 17.103 117.03-118.53 149.6" style="fill:none;stroke-linecap:round;stroke-linejoin:round;stroke-width:3.7795;stroke:#f00"/><path d="m588.54 20.345 27.18 30.832" style="fill:none;stroke-linecap:round;stroke-linejoin:round;stroke-width:3.7795;stroke:#000"/><path d="m440.15 86.525 19.531 21.665" style="fill:none;stroke-linecap:round;stroke-linejoin:round;stroke-width:.94488;stroke:#0f0"/><path d="m459.88 78.115-0.31001 30.284" style="fill:none;stroke-linecap:round;stroke-linejoin:round;stroke-width:.94488;stroke:#00f"/><path d="m497.86 99.185-38.184 9.1037" style="fill:none;stroke-linecap:round;stroke-linejoin:round;stroke-width:.94488;stroke:#f00"/><path d="m460.13 59.265 5.1369 20.981-10.145 0.0311c1.764-10.646 5.0077-21.012 5.0077-21.012z" style="fill:#00f;stroke-linecap:round;stroke-linejoin:round;stroke-width:1.8898;stroke:#00f"/><path d="m426.28 70.255 9.8873 19.205 7.6769-6.6317c-8.3155-6.8776-17.564-12.573-17.564-12.573z" style="fill:#0f0;stroke-linecap:round;stroke-linejoin:round;stroke-width:1.8898;stroke:#0f0"/><path d="m505.73 97.345-19.387 9.5259-2.2107-9.9009 21.597 0.37502z" style="fill:#f00;stroke-linecap:round;stroke-linejoin:round;stroke-width:1.8898;stroke:#f00"/><g transform="translate(-165.99 -73.345)"><ellipse cx="775.16" cy="269.59" rx="13.199" ry="13.469" style="fill:#1f638a;stroke-linecap:round;stroke-linejoin:round;stroke-width:1.0658"/><text x="769.24432" y="277.12357" style="fill:#000000;font-family:'Arial Nova', 'Arial Unicode MS', 'Yu Gothic UI', sans-serif;font-size:12.8px;letter-spacing:0px;line-height:0%;stroke-width:1.0667;word-spacing:0px" xml:space="preserve"><tspan x="769.24432" y="277.12357" style="fill:#ffffff;font-family:'Arial Nova', 'Arial Unicode MS', 'Yu Gothic UI', sans-serif;font-size:21.333px;font-weight:bold;stroke-width:1.0667">1</tspan></text></g><path d="m348.13 233.88 48.913-10.639" style="fill:none;stroke-linecap:round;stroke-linejoin:round;stroke-width:3.7795;stroke:#000"/><path d="m396.98 223.3 99.91-23.136" style="fill:none;stroke-linecap:round;stroke-linejoin:round;stroke-width:3.7795;stroke:#f00"/><ellipse transform="rotate(-2)" cx="490.48" cy="217.56" rx="4.0406" ry="3.7795" style="fill:#f00;stroke-linecap:round;stroke-linejoin:round;stroke-width:3.7837;stroke:#f00"/><path d="m573.51 197.31 6.2253-5.147 6.9023 14.13 6.2932-3.0742-6.9023-14.13 7.4287-1.523-19.542-14.716z" style="fill:#fff;stroke-linecap:round;stroke-linejoin:round;stroke-width:.75591;stroke:#000"/><g transform="matrix(.2917 0 0 .28875 303.08 86.471)" style="fill:#1f638a;stroke-linecap:round;stroke-linejoin:round;stroke-width:1.2209;stroke:#1f638a"><path d="m207.49 126.25 34.17 21.614-34.17 21.614z" style="fill:#1f638a;stroke-linecap:round;stroke-linejoin:round;stroke-width:1.3023;stroke:#1f638a"/><rect x="172.19" y="137.99" width="39.213" height="19.761" style="fill:#1f638a;stroke-linecap:round;stroke-linejoin:round;stroke-width:1.3023;stroke:#1f638a"/></g><g transform="matrix(.2917 0 0 .28875 600.89 86.471)" style="fill:#1f638a;stroke-linecap:round;stroke-linejoin:round;stroke-width:1.2209;stroke:#1f638a"><path d="m207.49 126.25 34.17 21.614-34.17 21.614z" style="fill:#1f638a;stroke-linecap:round;stroke-linejoin:round;stroke-width:1.3023;stroke:#1f638a"/><rect x="172.19" y="137.99" width="39.213" height="19.761" style="fill:#1f638a;stroke-linecap:round;stroke-linejoin:round;stroke-width:1.3023;stroke:#1f638a"/></g><g transform="translate(-640.73 57.037)"><ellipse cx="1175.2" cy="160.16" rx="13.199" ry="13.469" style="fill:#1f638a;stroke-linecap:round;stroke-linejoin:round;stroke-width:1.0658"/><text x="1169.625" y="167.8232" style="fill:#000000;font-family:'Arial Nova', 'Arial Unicode MS', 'Yu Gothic UI', sans-serif;font-size:12.8px;letter-spacing:0px;line-height:0%;stroke-width:1.0667;word-spacing:0px" xml:space="preserve"><tspan x="1169.625" y="167.8232" style="fill:#ffffff;font-family:'Arial Nova', 'Arial Unicode MS', 'Yu Gothic UI', sans-serif;font-size:21.333px;font-weight:bold;stroke-width:1.0667">2</tspan></text></g><path d="m497.73 226.12 6.2253-5.147 6.9023 14.13 6.2932-3.0742-6.9023-14.13 7.4287-1.523-19.542-14.716z" style="fill:#fff;stroke-linecap:round;stroke-linejoin:round;stroke-width:.75591;stroke:#000"/></svg>
