<?xml version="1.0" encoding="UTF-8"?>
<svg width="18cm" height="5.5cm" version="1.1" xmlns="http://www.w3.org/2000/svg" xmlns:osb="http://www.openswatchbook.org/uri/2009/osb">
 <g transform="translate(0 -245.67)">
  <g transform="translate(400.43 196.82)">
   <ellipse cx="59.353" cy="110.1" rx="13.199" ry="13.469" style="fill:#1f638a;stroke-linecap:round;stroke-linejoin:round;stroke-width:1.0658"/>
   <text x="51.670151" y="116.96908" style="fill:#000000;font-family:'Arial Nova', 'Arial Unicode MS', 'Yu Gothic UI', sans-serif;font-size:12.8px;letter-spacing:0px;line-height:0%;stroke-width:1.0667;word-spacing:0px" xml:space="preserve"><tspan x="51.670151" y="116.96908" style="fill:#ffffff;font-family:'Arial Nova', 'Arial Unicode MS', 'Yu Gothic UI', sans-serif;font-size:21.333px;font-weight:bold;stroke-width:1.0667">A</tspan></text>
  </g>
  <g transform="translate(-408.56 -39.953)">
   <ellipse cx="982.02" cy="399.69" rx="13.199" ry="13.469" style="fill:#1f638a;stroke-linecap:round;stroke-linejoin:round;stroke-width:1.0658"/>
   <text x="976.14124" y="407.22528" style="fill:#000000;font-family:'Arial Nova', 'Arial Unicode MS', 'Yu Gothic UI', sans-serif;font-size:12.8px;letter-spacing:0px;line-height:0%;stroke-width:1.0667;word-spacing:0px" xml:space="preserve"><tspan x="976.14124" y="407.22528" style="fill:#ffffff;font-family:'Arial Nova', 'Arial Unicode MS', 'Yu Gothic UI', sans-serif;font-size:21.333px;font-weight:bold;stroke-width:1.0667">3</tspan></text>
  </g>
  <g transform="translate(170.75 240.02)">
   <path d="m390.13 172.82c-15.005-5.9179 1.58-81.077-17.118-102.39" style="fill:none;stroke-dasharray:2.83464565, 2.83464565;stroke-linecap:round;stroke-linejoin:round;stroke-width:.94488;stroke:#008000"/>
   <path d="m364.57 61.939 11.975 5.6742-6.0632 6.3253z" style="fill:#fff;stroke-dasharray:3.19748032, 3.19748032;stroke-linecap:round;stroke-linejoin:round;stroke-width:1.0658;stroke:#008000"/>
   <path d="m401.6 180.67-8.0204-10.549-4.9399 7.2366z" style="fill:#fff;stroke-dasharray:3.19748032, 3.19748032;stroke-linecap:round;stroke-linejoin:round;stroke-width:1.0658;stroke:#008000"/>
   <ellipse transform="matrix(.9993 -.037301 .032652 .99947 0 0)" cx="378.91" cy="132.66" rx="1.2735" ry="1.2731" style="fill:#008000;stroke-linecap:round;stroke-linejoin:round;stroke-width:1.2329;stroke:#008000"/>
  </g>
  <path d="m374.78 287.42c23.227-10.091 47.799-15.268 71.067-15.318" style="fill:none;stroke-linecap:round;stroke-linejoin:round;stroke-width:3.7795;stroke:#800000"/>
  <path d="m474.06 274.46c42.651 17.642 59.892 38.268 60.743 64.27l2.3513 41.932c0.22872 47.891 21.065 57.633 65.054 58.783" style="fill:none;stroke-linecap:round;stroke-linejoin:round;stroke-width:3.7795;stroke:#f00"/>
  <path d="m446.05 270.22a1.89 1.89 0 0 0-0.36667 3.7l33.3 10.2c27.326 8.3929 41.002 20.005 48.033 33.267 7.0316 13.262 7.4494 28.452 7.4667 44.067a1.89 1.89 0 0 0 0 0.1l1.6667 32.1c0.27883 5.4107 1.0973 17.964 9.8667 28.833 8.7694 10.87 25.405 19.79 56.267 18.467a1.9018 1.9018 0 1 0-0.16667-3.8c-30.089 1.2898-45.22-7.1835-53.167-17.033-7.9465-9.8498-8.759-21.344-9.0333-26.667l-1.6667-32c-4e-5 -0.0333 4e-5 -0.0667 0-0.0999-0.0188-15.642-0.35866-31.51-7.9-45.733-7.5574-14.254-22.302-26.554-50.233-35.133l-33.333-10.167a1.89 1.89 0 0 0-0.73333-0.1z" style="color:#000000;fill:#fff;stroke-linecap:round;stroke-linejoin:round;stroke-width:.75591;stroke:#000;text-decoration-line:none;text-indent:0;text-transform:none"/>
  <path d="m446.52 272.19 62.416 16.769 34.486 30.176-12.932 76.81 21.162 43.108h50.946" style="fill:none;stroke-width:1.0667px;stroke:#000"/>
  <ellipse transform="rotate(-2)" cx="523.97" cy="378.09" rx="4.0406" ry="3.7795" style="fill:#008000;stroke-linecap:round;stroke-linejoin:round;stroke-width:3.7837;stroke:#008000"/>
  <ellipse transform="matrix(.9993 -.037301 .032652 .99947 0 0)" cx="587.26" cy="461.19" rx=".66334" ry=".66312" style="stroke-linecap:round;stroke-linejoin:round;stroke-width:1.2329;stroke:#000"/>
  <ellipse transform="matrix(.9993 -.037301 .032652 .99947 0 0)" cx="537.32" cy="459.15" rx=".66334" ry=".66312" style="stroke-linecap:round;stroke-linejoin:round;stroke-width:1.2329;stroke:#000"/>
  <ellipse transform="matrix(.9993 -.037301 .032652 .99947 0 0)" cx="517.41" cy="415.77" rx=".66334" ry=".66312" style="stroke-linecap:round;stroke-linejoin:round;stroke-width:1.2329;stroke:#000"/>
  <ellipse transform="matrix(.9993 -.037301 .032652 .99947 0 0)" cx="532.6" cy="339.52" rx=".66334" ry=".66312" style="stroke-linecap:round;stroke-linejoin:round;stroke-width:1.2329;stroke:#000"/>
  <ellipse transform="matrix(.9993 -.037301 .032652 .99947 0 0)" cx="499.53" cy="307.91" rx=".66334" ry=".66312" style="stroke-linecap:round;stroke-linejoin:round;stroke-width:1.2329;stroke:#000"/>
  <ellipse transform="matrix(.9993 -.037301 .032652 .99947 0 0)" cx="437.29" cy="288.58" rx=".66334" ry=".66312" style="stroke-linecap:round;stroke-linejoin:round;stroke-width:1.2329;stroke:#000"/>
  <text x="471.62225" y="266.18433" style="fill:#000000;font-family:'Arial Nova', 'Arial Unicode MS', 'Yu Gothic UI', sans-serif;font-size:12.8px;letter-spacing:0px;line-height:0%;stroke-width:1.0667;stroke:#008000;word-spacing:0px" xml:space="preserve"><tspan x="471.62225" y="266.18433" style="font-family:'Arial Nova', 'Arial Unicode MS', 'Yu Gothic UI', sans-serif;stroke-width:1.0667">0</tspan></text>
  <text x="598.77338" y="433.28998" style="fill:#000000;font-family:'Arial Nova', 'Arial Unicode MS', 'Yu Gothic UI', sans-serif;font-size:12.8px;letter-spacing:0px;line-height:0%;stroke-width:1.0667;stroke:#008000;word-spacing:0px" xml:space="preserve"><tspan x="598.77338" y="433.28998" style="font-family:'Arial Nova', 'Arial Unicode MS', 'Yu Gothic UI', sans-serif;stroke-width:1.0667">1</tspan></text>
  <g transform="translate(-1073.1 139.12)">
   <ellipse cx="1175.2" cy="160.16" rx="13.199" ry="13.469" style="fill:#1f638a;stroke-linecap:round;stroke-linejoin:round;stroke-width:1.0658"/>
   <text x="1169.625" y="167.8232" style="fill:#000000;font-family:'Arial Nova', 'Arial Unicode MS', 'Yu Gothic UI', sans-serif;font-size:12.8px;letter-spacing:0px;line-height:0%;stroke-width:1.0667;word-spacing:0px" xml:space="preserve"><tspan x="1169.625" y="167.8232" style="fill:#ffffff;font-family:'Arial Nova', 'Arial Unicode MS', 'Yu Gothic UI', sans-serif;font-size:21.333px;font-weight:bold;stroke-width:1.0667">2</tspan></text>
  </g>
  <g transform="translate(-952.69 217.65)">
   <ellipse cx="1175.2" cy="160.16" rx="13.199" ry="13.469" style="fill:#1f638a;stroke-linecap:round;stroke-linejoin:round;stroke-width:1.0658"/>
   <text x="1169.625" y="167.8232" style="fill:#000000;font-family:'Arial Nova', 'Arial Unicode MS', 'Yu Gothic UI', sans-serif;font-size:12.8px;letter-spacing:0px;line-height:0%;stroke-width:1.0667;word-spacing:0px" xml:space="preserve"><tspan x="1169.625" y="167.8232" style="fill:#ffffff;font-family:'Arial Nova', 'Arial Unicode MS', 'Yu Gothic UI', sans-serif;font-size:21.333px;font-weight:bold;stroke-width:1.0667">1</tspan></text>
  </g>
  <path d="m25.365 287.58c23.227-10.091 47.799-15.268 71.067-15.318" style="fill:none;stroke-linecap:round;stroke-linejoin:round;stroke-width:3.7795;stroke:#800000"/>
  <path d="m124.65 274.61c42.651 17.642 59.892 38.268 60.743 64.27l2.3513 41.932c0.22872 47.891 21.065 57.633 65.054 58.783" style="fill:none;stroke-linecap:round;stroke-linejoin:round;stroke-width:3.7795;stroke:#f00"/>
  <path d="m185.45 374.29 6.2254-5.1469 6.9023 14.13 6.2932-3.0742-6.9023-14.13 7.4286-1.523-19.542-14.716z" style="fill:#fff;stroke-linecap:round;stroke-linejoin:round;stroke-width:.75591;stroke:#000"/>
  <path d="m63.513 300.5 6.2254-5.147 6.9023 14.13 6.2932-3.0742-6.9023-14.13 7.4286-1.523-19.542-14.716z" style="fill:#fff;stroke-linecap:round;stroke-linejoin:round;stroke-width:.75591;stroke:#000"/>
 </g>
</svg>
