<?xml version="1.0" encoding="UTF-8"?>
<svg width="18cm" height="5.5cm" version="1.1" xmlns="http://www.w3.org/2000/svg">
 <g transform="translate(0 -914.64)">
  <circle cx="334.37" cy="1045.3" r="56.355" style="color:#000000;fill:none;stroke-dasharray:2.70614166, 1.35307083;stroke-linecap:round;stroke-linejoin:round;stroke-width:.67654;stroke:#f00"/>
  <path d="m334.25 936.2a1.8243 1.9579 89.928 0 0-1.4763 0.93676l-50.725 81.793-50.721 81.921a1.8243 1.9579 89.928 0 0 1.7364 2.7589l101.41-0.01 101.41-0.01a1.8243 1.9579 89.928 0 0 1.6907-2.7307l-50.692-81.911-50.688-81.783a1.8243 1.9579 89.928 0 0-1.9508-0.96486zm0.31949 5.4815 48.955 79.152 48.951 79.024-97.986 0.038-98.123 0.042 49.167-79.194z" style="color:#000000;fill:#fff;stroke-linecap:round;stroke-linejoin:round;stroke-width:.94488;stroke:#000;text-decoration-line:none;text-indent:0;text-transform:none"/>
  <circle cx="576.24" cy="1045.3" r="56.355" style="color:#000000;fill:none;stroke-dasharray:2.70614166, 1.35307083;stroke-linecap:round;stroke-linejoin:round;stroke-width:.67654;stroke:#f00"/>
  <path d="m575.41 987.37a1.889 1.8909 0 0 0-1.1507 0.88533l-24.252 41.964-24.254 41.898a1.889 1.8909 0 0 0 1.5884 2.8328l48.392 0.06 48.458 0.059a1.889 1.8909 0 0 0 1.6168-2.7976l-24.14-42.024-24.138-41.959a1.889 1.8909 0 0 0-2.12-0.91858zm0.4943 5.6147 22.486 39.193 22.549 39.126-45.187-0.025-45.058-0.094 22.572-39.099 22.638-39.101z" style="color:#000000;fill:#fff;stroke-linejoin:round;stroke-width:.94488;stroke:#000;text-decoration-line:none;text-indent:0;text-transform:none"/>
  <g transform="translate(272.73 1048.6)">
   <ellipse cx="-13.718" cy="-98.798" rx="13.199" ry="13.469" style="fill:#1f638a;stroke-linecap:round;stroke-linejoin:round;stroke-width:1.0658"/>
   <text x="-19.559933" y="-91.125885" style="fill:#000000;font-family:'Arial Nova', 'Arial Unicode MS', 'Yu Gothic UI', sans-serif;font-size:12.8px;letter-spacing:0px;line-height:0%;stroke-width:1.0667;word-spacing:0px" xml:space="preserve"><tspan x="-19.559933" y="-91.125885" style="fill:#ffffff;font-family:'Arial Nova', 'Arial Unicode MS', 'Yu Gothic UI', sans-serif;font-size:21.333px;line-height:1.25;stroke-width:1.0667;stroke:#ffffff">2</tspan></text>
  </g>
  <g transform="translate(515.11 1048.6)">
   <ellipse cx="17.483" cy="-98.798" rx="13.199" ry="13.469" style="fill:#1f638a;stroke-linecap:round;stroke-linejoin:round;stroke-width:1.0658"/>
   <text x="11.641406" y="-91.256096" style="fill:#000000;font-family:'Arial Nova', 'Arial Unicode MS', 'Yu Gothic UI', sans-serif;font-size:12.8px;letter-spacing:0px;line-height:0%;stroke-width:1.0667;word-spacing:0px" xml:space="preserve"><tspan x="11.641406" y="-91.256096" style="fill:#ffffff;font-family:'Arial Nova', 'Arial Unicode MS', 'Yu Gothic UI', sans-serif;font-size:21.333px;line-height:1.25;stroke-width:1.0667;stroke:#ffffff">3</tspan></text>
  </g>
  <circle cx="104.37" cy="1045.3" r="56.355" style="color:#000000;fill:none;stroke-dasharray:2.70614166, 1.35307083;stroke-linecap:round;stroke-linejoin:round;stroke-width:.67654;stroke:#f00"/>
  <g transform="rotate(214.59 185.05 1025.7)">
   <path d="m184.29 963.52 12.571-4.1905v8.7619z" style="stroke-linecap:round;stroke-linejoin:round;stroke-width:1.0658;stroke:#000"/>
   <path d="m189.94 963.71h103.64" style="stroke-linecap:round;stroke-linejoin:round;stroke-width:.94488;stroke:#000"/>
   <path d="m295.96 963.52-12.571-4.1905v8.7619z" style="stroke-linecap:round;stroke-linejoin:round;stroke-width:1.0658;stroke:#000"/>
  </g>
  <g transform="translate(82.226 1136.2)">
   <ellipse cx="48.684" cy="-98.798" rx="13.199" ry="13.469" style="fill:#1f638a;stroke-linecap:round;stroke-linejoin:round;stroke-width:1.0658"/>
   <text x="42.842751" y="-91.162346" style="fill:#000000;font-family:'Arial Nova', 'Arial Unicode MS', 'Yu Gothic UI', sans-serif;font-size:12.8px;letter-spacing:0px;line-height:0%;stroke-width:1.0667;word-spacing:0px" xml:space="preserve"><tspan x="42.842751" y="-91.162346" style="fill:#ffffff;font-family:'Arial Nova', 'Arial Unicode MS', 'Yu Gothic UI', sans-serif;font-size:21.333px;line-height:1.25;stroke-width:1.0667;stroke:#ffffff">4</tspan></text>
  </g>
  <g transform="matrix(.2917 0 0 .28875 132.07 996.85)" style="fill:#1f638a;stroke-linecap:round;stroke-linejoin:round;stroke-width:1.2209;stroke:#1f638a">
   <path d="m207.49 126.25 34.17 21.614-34.17 21.614z" style="fill:#1f638a;stroke-linecap:round;stroke-linejoin:round;stroke-width:1.3023;stroke:#1f638a"/>
   <rect x="172.19" y="137.99" width="39.213" height="19.761" style="fill:#1f638a;stroke-linecap:round;stroke-linejoin:round;stroke-width:1.3023;stroke:#1f638a"/>
  </g>
 </g>
</svg>
