<?xml version="1.0" encoding="UTF-8"?>
<svg width="18cm" height="7cm" version="1.1" xmlns="http://www.w3.org/2000/svg">
 <g transform="translate(0 -113.39)">
  <g transform="translate(95.585 128.26)">
   <g transform="matrix(.41812 0 0 .41812 12.714 -4.1339)" style="stroke:#ccc">
    <path d="m653.29 232.69 7.1501 76.016 6.3974-1.5053-1.5053-30.901 17.687-1.8816c3.3526-0.35666 16.58-7.1874 15.429-24.418-0.70793-14.621-6.8011-21.877-19.136-20.409z" style="fill:none;stroke-width:2.5511px;stroke:#ccc"/>
    <path d="m661.95 240.6 1.8816 27.095 20.321-3.0106c5.0682-2.1672 7.2441-8.3247 7.3288-14.479-1.2398-7.5927-4.303-12.39-10.853-11.841z" style="fill:none;stroke-width:2.5511px;stroke:#ccc"/>
    <path d="m705.97 225.17 3.3869 76.016 42.148-4.1395-1.129-8.6554-34.245 3.0106-1.5053-26.342 31.611-1.5053 0.37632-9.7843-31.611 3.0106-1.5053-22.955 33.116-2.6342-0.75264-9.0317z" style="fill:none;stroke-width:2.5511px;stroke:#ccc"/>
    <path d="m757.53 297.42 8.6553-0.75264-1.129-57.577 30.106 57.953 7.9027-0.37632-0.75264-75.64-8.279-0.75263 1.129 60.211-30.858-59.082-7.5264-0.37632z" style="fill:none;stroke-width:2.5511px;stroke:#ccc"/>
    <path d="m807.96 295.92 8.279 0.37632 1.129-62.845 15.053 64.727 6.3974 0.37632 18.44-61.716-1.8816 62.469 7.9027 0.75264 1.8816-76.016-10.537-0.75264-18.816 63.222-13.924-64.727-11.666-0.75264z" style="fill:none;stroke-width:2.5511px;stroke:#ccc"/>
    <path d="m870.05 301.18 7.5264 0.37632 4.5158-74.511-8.6553-1.129z" style="fill:none;stroke-width:2.5511px;stroke:#ccc"/>
    <path d="m883.22 302.69 8.279 1.129 4.1395-58.706 24.837 64.727 8.279 0.75264 6.3974-76.393-7.5264-0.37632-4.8922 58.329-25.213-63.598-7.5264-0.75264z" style="fill:none;stroke-width:2.5511px;stroke:#ccc"/>
    <path d="m934.02 311.34 9.408-74.888 27.095 7.1501c14.592 6.2287 16.311 24.691 14.3 41.771-2.0106 17.08-9.2739 33.267-24.084 32.74z" style="fill:none;stroke-width:2.5511px;stroke:#ccc"/>
    <path d="m950.21 247.37-8.279 57.201 16.182 3.7632c8.4503 3.343 18.626-9.5097 19.192-22.955 0.5662-13.446 3.982-28.899-11.666-33.869z" style="fill:none;stroke-width:2.5511px;stroke:#ccc"/>
    <path d="m621.53 238.8c19.56 0.57046 28.578 23.907 27.578 41.582-1.0005 17.675-5.9048 37.273-26.841 36.605-20.936-0.6678-26.199-22.067-27.395-38.735-1.1955-16.668 7.0979-40.023 26.658-39.452z" style="fill:none;stroke-width:2.5511px;stroke:#ccc"/>
    <path d="m622.24 247.09c11.442 0.71994 20.194 14.327 19.286 32.928-0.30004 20.73-8.3672 26.702-18.628 28.506-14.952 0.081-19.429-14.055-20.415-32.928 2.436-11.66-0.39312-26.058 19.757-28.506z" style="fill:none;stroke-width:2.5511px;stroke:#ccc"/>
   </g>
   <g transform="matrix(.41812 0 0 .41812 12.369 -3.9458)">
    <path d="m322.24 233.33c-7.8286 23.095-12.125 46.543-16.498 69.984 14.298-1.8155 28.498-3.1433 42.443-3.1932l1.3305-8.5151c-11.207 0.14384-22.549 0.62607-34.46 2.5279 1.5685-7.8761 2.5755-15.612 5.455-23.816 10.677-1.2747 20.443-1.6387 30.069-1.8627 0.76181-2.9675 1.3593-6.0172 2.794-8.6482-10.208 0.17414-20.371 0.23492-31.266 2.1288 1.1226-6.9629 3.311-13.926 5.8542-20.889 10.919-1.3036 22.125-1.7464 33.395-1.9957l2.2618-8.6482c-13.907 0.76366-27.461 1.4451-41.378 2.9271z" style="fill:none;stroke-width:2.5511px;stroke:#000"/>
    <path d="m354.44 298.79c5.2421-23.517 11.023-46.855 19.425-69.318l7.8499 0.39915c3.4761 18.006 6.7348 36.134 13.305 52.421 4.7637-17.648 9.1202-35.376 15.567-52.687l7.5838 0.13306c-8.2733 22.253-13.16 45.958-19.159 69.185l-7.5838 0.26611c-5.4378-17.854-11.064-35.425-15.833-54.284-6.0806 17.783-9.7884 36.041-14.236 54.151z" style="fill:none;stroke-width:2.5511px;stroke:#000"/>
    <path d="m404.87 299.32c6.6202-23.442 12.798-47.032 22.485-69.452l10.378 0.53219c-1.2886 19.815-2.8118 39.583-2.3949 59.739 9.9072-20.093 22.569-38.612 34.859-57.344l10.644 0.53221c-8.6159 22.29-15.547 45.302-21.687 68.653l-7.5838-0.13304c5.2854-19.304 10.283-38.648 17.962-57.61-13.199 18.032-23.326 37.381-34.194 56.413l-7.0516-0.53221c0.16247-19.617 0.19572-39.17 1.7296-59.473-7.6544 19.202-12.557 39.191-17.829 59.074z" style="fill:none;stroke-width:2.5511px;stroke:#000"/>
    <path d="m465.8 303.58c7.1845-23.186 14.366-46.373 25.013-68.52l6.6524 0.39914c-9.0664 22.597-16.462 45.751-23.417 69.052z" style="fill:none;stroke-width:2.5511px;stroke:#000"/>
    <path d="m479.51 304.78c7.9501-22.686 15.77-45.356 26.477-68.387l8.116 0.93135c1.8594 19.375 3.5806 38.79 7.8499 57.477 5.889-17.296 12.929-34.593 20.223-51.889l7.9829 0.93133c-10.692 22.2-18.5 45.266-25.678 68.52l-8.5151-0.93134c-3.1552-19.501-6.3653-38.892-9.1804-59.074-8.1372 17.54-13.54 35.471-19.292 53.353z" style="fill:none;stroke-width:2.5511px;stroke:#000"/>
    <path d="m530.07 313.42c8.1382-23.494 17.984-46.135 29.67-67.855l20.09 4.6567c22.04 4.2544 15.803 28.955 6.6524 48.031-3.0743 3.9933-11.161 24.168-33.794 21.022z" style="fill:none;stroke-width:2.5511px;stroke:#000"/>
    <path d="m539.91 307.17c6.9155-17.341 13.645-34.681 22.618-52.022l14.768 3.3262c8.8847 3.2053 12.844 10.976 3.4593 31.932-6.0108 13.422-11.658 22.462-25.545 20.756z" style="fill:none;stroke-width:2.5511px;stroke:#000"/>
    <path d="m220.86 311.03c25.093-4.5194 27.416-32.817 27.408-40.979-7e-3 -7.7398-3.3278-13.945-10.91-14.768-13.297-1.4444-28.778 19.996-28.872 38.983-0.06 12.165 5.3675 17.898 12.374 16.764z" style="fill:none;stroke-width:2.5511px;stroke:#000"/>
    <path d="m217.27 319.68c19.433-2.1369 34.738-11.306 38.318-51.49 0.17391-8.6229-1.2084-20.535-14.635-20.623-22.411-0.14549-37.943 22.616-40.181 48.962-1.1461 13.493 4.8373 22.365 16.498 23.151z" style="fill:none;stroke-width:2.5511px;stroke:#000"/>
    <path d="m256.78 309.7c4.3212-22.707 5.9863-45.414 14.103-68.121l22.618-3.1932c15.787-1.9951 15.801 5.7594 15.7 11.708-1.6203 10.797-8.5001 26.061-22.352 27.94l-17.962 2.2618c-2.8996 11.011-3.3086 19.889-4.9228 29.936z" style="fill:none;stroke-width:2.5511px;stroke:#000"/>
    <path d="m269.96 272.31c1.5036-8.0273 3.0172-16.055 6.2533-24.082l13.438-1.9957c10.57-1.6718 11.893 3.279 11.442 7.8499-1.3179 13.361-8.879 14.562-15.035 16.631z" style="fill:none;stroke-width:2.5511px;stroke:#000"/>
   </g>
   <path d="m78.386 138.07c24.834-7.6176 52.161-12.658 82.53-14.557 110.85-3.283 186.78 42.059 249.05 106.44" style="fill:none;stroke-dasharray:1.88976378, 1.88976378;stroke-linecap:round;stroke-linejoin:round;stroke-width:.94488;stroke:#7d7d7d"/>
   <path d="m169.43 213.46c-7.5253-72.688 10.891-186.32 78.233-198.51" style="fill:none;stroke-linejoin:round;stroke-width:1.8898;stroke:#000"/>
   <ellipse transform="rotate(-2)" cx="166.73" cy="135.2" rx="4.0406" ry="3.7795" style="stroke-linecap:round;stroke-linejoin:round;stroke-width:3.7837;stroke:#000"/>
   <path d="m159.34 58.765c-3.2733 9.6565-7.5975 17.931-9.4261 27.732 5.9782-0.75908 12.98-1.78 18.811-1.8008l0.15715-3.4273c-4.6859 0.06016-9.1623-0.27042-14.142 0.52478 0.65582-3.2932 2.1413-5.4633 3.3452-8.8935 4.4642-0.53296 9.612-0.55213 13.637-0.64578 0.31853-1.2408 0.56834-2.3828 1.1682-3.4829-4.2682 0.07285-9.3156 0.23128-13.871 1.0231 0.46936-2.9113 1.6505-4.8913 2.7138-7.8026 4.5654-0.54507 10.182-1.1293 14.895-1.2336l0.94571-3.616c-5.815 0.31929-12.413 1.0034-18.232 1.623z" style="fill:none;stroke-dasharray:0.51779527, 1.03559055;stroke-linecap:round;stroke-linejoin:round;stroke-width:.5178;stroke:#666"/>
   <path d="m172.2 84.14c2.1918-9.833 7.3364-17.063 10.85-26.456l3.2822 0.16689 2.769 20.056c1.9918-7.3788 6.6073-12.929 9.3028-20.167l3.1709 0.05557c-3.4592 9.3045-8.2963 16.621-10.805 26.333l-3.1709 0.11126-3.826-20.103c-2.5424 7.4355-6.8202 12.542-8.68 20.114z" style="fill:none;stroke-dasharray:0.51779527, 1.03559055;stroke-linecap:round;stroke-linejoin:round;stroke-width:.5178;stroke:#666"/>
   <path d="m194.42 84.096c2.768-9.8016 8.278-17.403 12.329-26.777l4.3392 0.22253c-1.9869 7.4027-3.3601 14.959-3.9284 22.716 4.534-7.6717 10.865-14.744 17.502-21.715l4.4504 0.22253c-4.8353 8.6471-8.9324 17.442-11.995 26.443l-3.1709-0.05557c3.1965-7.4166 5.9165-15.072 10.437-21.826-6.8532 6.219-12.116 13.71-17.224 21.325l-2.9484-0.22253c0.0292-7.7329 1.4986-15.226 3.6503-22.605-4.6293 6.8949-7.8765 14.481-10.382 22.438z" style="fill:none;stroke-dasharray:0.51779527, 1.03559055;stroke-linecap:round;stroke-linejoin:round;stroke-width:.5178;stroke:#666"/>
   <path d="m221.36 86.275c3.8547-9.1364 7.5502-18.336 13.12-26.787l2.7815 0.16689c-5.5467 9.0032-8.979 18.006-12.452 27.01z" style="fill:none;stroke-dasharray:0.51779527, 1.03559055;stroke-linecap:round;stroke-linejoin:round;stroke-width:.5178;stroke:#666"/>
   <path d="m228.24 86.951c3.1556-9.7102 8.1376-18.756 13.799-26.807l3.3935 0.38941c0.0997 7.6732 0.8975 15.114 2.0592 22.433 2.4623-7.232 6.6289-12.865 9.6789-20.097l3.4319 0.38942c-3.9097 8.8746-8.0685 15.106-13.089 26.298l-3.6544-0.38942c-0.98011-5.7761-1.2359-10.47-1.6505-15.614-0.17624-2.1866-0.3812-4.4547-0.68268-6.922-4.0742 5.9903-7.5555 13.207-9.948 20.708z" style="fill:none;stroke-dasharray:0.51779527, 1.03559055;stroke-linecap:round;stroke-linejoin:round;stroke-width:.5178;stroke:#666"/>
   <path d="m249.75 90.473c4.7803-8.9117 9.2003-17.914 15.322-26.49l5.9541 1.4767c9.2156 1.7788 12.629 6.3677 6.921 16.978-1.2854 1.6697-7.3008 11.61-16.764 10.295z" style="fill:none;stroke-dasharray:0.51779527, 1.03559055;stroke-linecap:round;stroke-linejoin:round;stroke-width:.5178;stroke:#666"/>
   <path d="m255 87.764c2.982-6.5204 6.6965-12.858 11.098-19.023l4.2524 0.2618c3.7149 1.3402 8.9453 2.1431 5.0214 10.905-2.5132 5.6121-6.9442 10.333-12.751 9.6192z" style="fill:none;stroke-dasharray:0.51779527, 1.03559055;stroke-linecap:round;stroke-linejoin:round;stroke-width:.5178;stroke:#666"/>
   <path d="m112.75 89.66c8.6464-2.0742 12.664-10.948 13.153-14.312 0.46597-3.2024 0.39611-6.0188-2.7742-6.3631-5.5597-0.60395-15.514 5.7264-15.553 13.666-0.0251 5.0862 2.2442 7.4836 5.1736 7.0094z" style="fill:none;stroke-dasharray:0.51779527, 1.03559055;stroke-linecap:round;stroke-linejoin:round;stroke-width:.5178;stroke:#666"/>
   <path d="m111.25 93.276c7.8359-1.6169 14.679-5.7521 17.715-18.707 0.16683-1.0653 1.2823-8.7744-4.3318-8.8109-9.3705-0.0608-19.346 6.8222-20.281 17.838-0.47921 5.6417 2.0226 9.3514 6.8982 9.6797z" style="fill:none;stroke-dasharray:0.51779527, 1.03559055;stroke-linecap:round;stroke-linejoin:round;stroke-width:.5178;stroke:#666"/>
   <path d="m127.73 89.996c1.8068-9.4943 4.9644-17.725 8.3582-27.219l9.4572-1.3351c6.601-0.83418 7.8705 0.81155 7.8284 3.2989-1.0633 6.7026-4.8103 12.497-10.61 13.279l-8.2419 0.347c-1.8203 4.756-2.8713 6.9915-3.5219 11.186z" style="fill:none;stroke-dasharray:0.51779527, 1.03559055;stroke-linecap:round;stroke-linejoin:round;stroke-width:.5178;stroke:#666"/>
   <path d="m135.5 74.896c0.62866-3.3564 1.7272-5.6484 3.0803-9.0047l6.0844-1.1006c4.4933-0.62518 4.3435 1.4071 4.0525 3.2157-0.892 5.5424-3.3133 5.3569-5.8871 6.222z" style="fill:none;stroke-dasharray:0.51779527, 1.55338582;stroke-linecap:round;stroke-linejoin:round;stroke-width:.5178;stroke:#666"/>
   <ellipse transform="rotate(-2)" cx="197.71" cy="56.656" rx="4.0406" ry="3.7795" style="fill:#fff;stroke-dasharray:0.51779528, 1.03559055;stroke-linecap:round;stroke-linejoin:round;stroke-width:.5178;stroke:#666"/>
   <path d="m78.501 103.58c33.905-10.821 67.011-15.183 99.961-18.281 97.899 0.40777 172.51 36.324 234.3 91.807" style="fill:none;stroke-dasharray:0.51779527, 1.03559055;stroke-linecap:round;stroke-linejoin:round;stroke-width:.5178;stroke:#7d7d7d"/>
  </g>
  <g transform="translate(212.55 279.12)">
   <ellipse cx="111.09" cy="-98.798" rx="13.199" ry="13.469" style="fill:#1f638a;stroke-linecap:round;stroke-linejoin:round;stroke-width:1.0658"/>
   <text x="105.24544" y="-91.256096" style="fill:#000000;font-family:'Arial Nova', 'Arial Unicode MS', 'Yu Gothic UI', sans-serif;font-size:12.8px;letter-spacing:0px;line-height:0%;stroke-width:1.0667;word-spacing:0px" xml:space="preserve"><tspan x="105.24544" y="-91.256096" style="fill:#ffffff;font-family:'Arial Nova', 'Arial Unicode MS', 'Yu Gothic UI', sans-serif;font-size:21.333px;stroke-width:1.0667;stroke:#ffffff">6</tspan></text>
  </g>
  <g transform="matrix(.2917 0 0 .28875 51.03 203.85)" style="fill:#1f638a;stroke-linecap:round;stroke-linejoin:round;stroke-width:1.2209;stroke:#1f638a">
   <path d="m207.49 126.25 34.17 21.614-34.17 21.614z" style="fill:#1f638a;stroke-linecap:round;stroke-linejoin:round;stroke-width:1.3023;stroke:#1f638a"/>
   <rect x="172.19" y="137.99" width="39.213" height="19.761" style="fill:#1f638a;stroke-linecap:round;stroke-linejoin:round;stroke-width:1.3023;stroke:#1f638a"/>
  </g>
 </g>
</svg>
