<?xml version="1.0" encoding="UTF-8"?>
<svg width="18cm" height="5cm" version="1.1" viewBox="0 0 180 50" xmlns="http://www.w3.org/2000/svg" xmlns:cc="http://creativecommons.org/ns#" xmlns:dc="http://purl.org/dc/elements/1.1/" xmlns:rdf="http://www.w3.org/1999/02/22-rdf-syntax-ns#">
 <metadata>
  <rdf:RDF>
   <cc:Work rdf:about="">
    <dc:format>image/svg+xml</dc:format>
    <dc:type rdf:resource="http://purl.org/dc/dcmitype/StillImage"/>
    <dc:title/>
   </cc:Work>
  </rdf:RDF>
 </metadata>
 <path d="m32.594 31.921a21.643 21.643 0 0 1 20.185-2.8235" color="#260000" fill="none" stroke="#000" stroke-linecap="round" stroke-linejoin="round" stroke-width=".5"/>
 <path d="m52.779 29.098a29.511 29.511 0 0 0 23.249-1.2616" color="#260000" fill="none" stroke="#000" stroke-linecap="round" stroke-linejoin="round" stroke-width=".5"/>
 <path d="m49.054 38.049a27.602 27.602 0 0 1 24.751 3.3041" color="#260000" fill="none" stroke="#000" stroke-linecap="round" stroke-linejoin="round" stroke-width=".5"/>
 <path d="m125.86 31.921a21.643 21.643 0 0 1 20.185-2.8235" color="#260000" fill="none" stroke="#f00" stroke-linecap="round" stroke-linejoin="round" stroke-width=".5"/>
 <path d="m146.05 29.098a29.511 29.511 0 0 0 23.249-1.2616" color="#260000" fill="none" stroke="#f00" stroke-linecap="round" stroke-linejoin="round" stroke-width=".5"/>
 <path d="m142.32 38.049a27.602 27.602 0 0 1 24.751 3.3041" color="#260000" fill="none" stroke="#f00" stroke-linecap="round" stroke-linejoin="round" stroke-width=".5"/>
 <line x1="16.914" x2="32.594" y1="43.336" y2="31.921" color="#260000" fill="none" stroke="#000" stroke-linecap="round" stroke-linejoin="round" stroke-width=".5"/>
 <line x1="21.42" x2="49.054" y1="47.721" y2="38.049" color="#260000" fill="none" stroke="#000" stroke-linecap="round" stroke-linejoin="round" stroke-width=".5"/>
 <line x1="73.805" x2="83.632" y1="41.353" y2="34.943" color="#260000" fill="none" stroke="#000" stroke-linecap="round" stroke-linejoin="round" stroke-width=".5"/>
 <line x1="110.18" x2="125.86" y1="43.336" y2="31.921" color="#260000" fill="none" stroke="#f00" stroke-linecap="round" stroke-linejoin="round" stroke-width=".5"/>
 <line x1="114.69" x2="142.32" y1="47.721" y2="38.049" color="#260000" fill="none" stroke="#f00" stroke-linecap="round" stroke-linejoin="round" stroke-width=".5"/>
 <line x1="167.07" x2="176.9" y1="41.353" y2="34.943" color="#260000" fill="none" stroke="#f00" stroke-linecap="round" stroke-linejoin="round" stroke-width=".5"/>
 <path d="m79.834 30.89a0.5 0.5 0 0 0-0.24023 0.0605l-0.31641 0.16993-0.31445 0.16406-0.31836 0.16211-0.31836 0.1582-0.31836 0.15234-0.32226 0.1504-0.32227 0.14648-0.32422 0.14453-0.32617 0.13867-0.32617 0.13477-0.32617 0.13281-0.33008 0.12695-0.33008 0.125-0.33008 0.11915-0.33203 0.11718-0.33203 0.11328-0.33203 0.10938-0.33398 0.10351-0.33398 0.10157-0.33594 0.0977-0.33594 0.0918-0.33594 0.0898-0.33594 0.0859-0.33594 0.0801-0.33789 0.0781-0.33594 0.0742-0.33789 0.0684-0.33789 0.0664-0.33594 0.0625-0.33789 0.0566-0.33594 0.0547-0.33789 0.0488-0.33594 0.0469-0.33594 0.041-0.33594 0.0391-0.33398 0.0332-0.33594 0.0312-0.33398 0.0273-0.33203 0.0215-0.33398 0.0195-0.33203 0.0137-0.33008 0.0117-0.33008 6e-3 -0.32812 4e-3h-0.32812l-0.32812-4e-3 -0.32422-8e-3 -0.32422-0.0117-0.24219-0.0117-0.2168-0.0879-0.29297-0.14844a0.50005 0.50005 0 0 0-0.0059-4e-3l-0.31641-0.1543a0.50005 0.50005 0 0 0-0.0059-4e-3l-0.31836-0.15039a0.50005 0.50005 0 0 0-0.0059-2e-3l-0.31836-0.14648a0.50005 0.50005 0 0 0-0.0078-2e-3l-0.32031-0.14258a0.50005 0.50005 0 0 0-0.0078-2e-3l-0.32412-0.1362a0.50005 0.50005 0 0 0-0.0059-2e-3l-0.32617-0.13281a0.50005 0.50005 0 0 0-0.0059-2e-3l-0.32812-0.12695a0.50005 0.50005 0 0 0-0.0059-4e-3l-0.33008-0.12109a0.50005 0.50005 0 0 0-0.0059-4e-3l-0.33008-0.11718a0.50005 0.50005 0 0 0-0.0078-2e-3l-0.33188-0.11297a0.50005 0.50005 0 0 0-0.0078-2e-3l-0.33398-0.10938a0.50005 0.50005 0 0 0-0.0059-2e-3l-0.33594-0.10351a0.50005 0.50005 0 0 0-0.0059-2e-3l-0.33789-0.0977a0.50005 0.50005 0 0 0-0.0078-2e-3l-0.33789-0.0937a0.50005 0.50005 0 0 0-0.0059-2e-3l-0.33984-0.0879a0.50005 0.50005 0 0 0-0.0078-2e-3l-0.33984-0.084a0.50005 0.50005 0 0 0-0.0078-2e-3l-0.34173-0.077773a0.50005 0.50005 0 0 0-0.0078-2e-3l-0.3418-0.0742a0.50005 0.50005 0 0 0-0.0078-2e-3l-0.34375-0.0684a0.50005 0.50005 0 0 0-0.0078-2e-3l-0.34375-0.0645a0.50005 0.50005 0 0 0-0.0078 0l-0.3457-0.0605a0.50005 0.50005 0 0 0-0.0078 0l-0.3457-0.0547a0.50005 0.50005 0 0 0-0.0078 0l-0.34766-0.0508a0.50005 0.50005 0 0 0-0.0078 0l-0.34766-0.0449a0.50005 0.50005 0 0 0-0.0059 0l-0.34961-0.0391a0.50005 0.50005 0 0 0-0.0078-2e-3l-0.34961-0.0332a0.50005 0.50005 0 0 0-0.0059 0l-0.34961-0.0293a0.50005 0.50005 0 0 0-0.0078 0l-0.34961-0.0254a0.50005 0.50005 0 0 0-0.0078 0l-0.34961-0.0195a0.50005 0.50005 0 0 0-0.0078 0l-0.34961-0.0137a0.50005 0.50005 0 0 0-0.0078 0l-0.35156-0.01a0.50005 0.50005 0 0 0-0.0059 0l-0.35156-4e-3a0.50005 0.50005 0 0 0-0.0059 0l-0.35156 2e-3a0.50005 0.50005 0 0 0-0.0078 0l-0.34961 6e-3a0.50005 0.50005 0 0 0-0.0078 0l-0.35156 0.0117a0.50005 0.50005 0 0 0-0.0059 0l-0.35156 0.0156a0.50005 0.50005 0 0 0-0.0059 0l-0.35156 0.0215a0.50005 0.50005 0 0 0-0.0059 0l-0.34961 0.0273a0.50005 0.50005 0 0 0-0.0078 0l-0.34961 0.0312a0.50005 0.50005 0 0 0-0.0059 2e-3l-0.34961 0.0352a0.50005 0.50005 0 0 0-0.0078 2e-3l-0.34766 0.041a0.50005 0.50005 0 0 0-0.0078 0l-0.34766 0.0469a0.50005 0.50005 0 0 0-0.0059 2e-3l-0.3475 0.051123a0.50005 0.50005 0 0 0-0.0078 2e-3l-0.3457 0.0566a0.50005 0.50005 0 0 0-0.0059 0l-0.3457 0.0625a0.50005 0.50005 0 0 0-0.0078 0l-0.34375 0.0664a0.50005 0.50005 0 0 0-0.0078 2e-3l-0.3418 0.0703a0.50005 0.50005 0 0 0-0.0078 2e-3l-0.3418 0.0762a0.50005 0.50005 0 0 0-0.0078 2e-3l-0.33984 0.082a0.50005 0.50005 0 0 0-0.0078 0l-0.33984 0.0859a0.50005 0.50005 0 0 0-0.0059 2e-3l-0.33984 0.0918a0.50005 0.50005 0 0 0-0.0059 2e-3l-0.33789 0.0957a0.50005 0.50005 0 0 0-0.0078 2e-3l-0.33398 0.10156a0.50005 0.50005 0 0 0-0.0078 2e-3l-0.33398 0.10547a0.50005 0.50005 0 0 0-0.0078 2e-3l-0.33203 0.10938a0.50005 0.50005 0 0 0-0.0059 2e-3l-0.33203 0.11524a0.50005 0.50005 0 0 0-0.0059 2e-3l-0.33008 0.12109a0.50005 0.50005 0 0 0-0.0059 2e-3l-0.32812 0.125a0.50005 0.50005 0 0 0-0.0078 2e-3l-0.32422 0.12891a0.50005 0.50005 0 0 0-0.0078 2e-3l-0.32422 0.13477a0.50005 0.50005 0 0 0-0.0059 2e-3l-0.32226 0.13867a0.50005 0.50005 0 0 0-0.0059 4e-3l-0.32031 0.14258a0.50005 0.50005 0 0 0-0.0059 4e-3l-0.31836 0.14649a0.50005 0.50005 0 0 0-0.0059 4e-3l-0.31641 0.15235a0.50005 0.50005 0 0 0-0.0039 2e-3l-0.3125 0.1543-0.31641 0.15429-0.31836 0.1543-0.31641 0.1543-0.31836 0.15625-0.31836 0.15429-0.31641 0.1543-0.31836 0.1543-0.31836 0.15429-0.31641 0.1543-0.31836 0.15625-0.31836 0.1543-0.31641 0.15429-0.31836 0.1543-0.31641 0.1543-0.31836 0.15429-0.31836 0.15626-0.31641 0.15429-0.63672 0.3086-0.31641 0.15429-0.31836 0.15625-0.31836 0.1543-0.31641 0.1543-0.31836 0.15429-0.31641 0.1543-0.31836 0.1543-0.31836 0.15625-0.31641 0.15429-0.31836 0.1543-0.31836 0.1543-0.31641 0.15429-0.31836 0.1543-0.31641 0.15625-0.63672 0.3086-0.31641 0.15429-0.63672 0.3086-0.31641 0.15625-0.63672 0.30859-0.31641 0.1543-0.31836 0.15429-0.31641 0.15625-0.63672 0.3086-0.31641 0.15429-0.63672 0.3086-0.31641 0.15625-0.63672 0.30859-0.31641 0.1543-0.31836 0.1543-0.31641 0.15429-0.31836 0.15625-0.31836 0.1543-0.31641 0.1543-0.63672 0.30859-0.31641 0.15625-0.31836 0.1543-0.31641 0.15429-0.63672 0.3086-0.31641 0.15429-0.31836 0.15625-0.31836 0.1543a0.5 0.5 0 0 0-0.23047 0.66797 0.5 0.5 0 0 0 0.66797 0.23047l0.63672-0.3086 0.31641-0.15429 0.31836-0.15625 0.31836-0.1543 0.31641-0.1543 0.63672-0.30859 0.31641-0.1543a0.50005 0.50005 0 0 0 0-2e-3l0.31836-0.1543 0.31641-0.15429 0.63672-0.3086 0.31641-0.15429 0.31836-0.15625 0.31836-0.1543 0.31641-0.1543 0.31836-0.1543 0.31641-0.15429 0.31836-0.1543 0.31836-0.15625 0.31641-0.1543 0.63672-0.30859 0.31641-0.1543 0.31836-0.15429 0.31836-0.15625 0.31641-0.1543 0.31836-0.1543 0.31641-0.15429 0.31836-0.1543 0.31836-0.15625 0.31641-0.1543 0.63672-0.30859 0.31641-0.1543 0.31836-0.1543 0.31836-0.15624 0.31641-0.1543 0.31836-0.1543 0.31641-0.1543 0.63672-0.30859 0.31641-0.15625 0.31836-0.1543 0.31836-0.15429 0.31641-0.1543 0.31836-0.1543 0.31836-0.15429 0.31641-0.15625 0.31836-0.1543 0.31641-0.1543 0.63672-0.30859 0.31641-0.15625 0.31836-0.1543 0.31836-0.15429 0.31641-0.1543 0.31836-0.1543 0.31641-0.1543 0.31836-0.15625 0.31836-0.15429 0.31641-0.1543 0.31836-0.1543 0.31836-0.15429 0.31641-0.1543 0.31836-0.15625 0.31836-0.1543a0.50005 0.50005 0 0 0 2e-3 -2e-3l0.3125-0.1543 0.30859-0.14843 0.3125-0.14454 0.3125-0.14062 0.31641-0.13672 0.31641-0.13086 0.31836-0.125 0.32226-0.12305 0.32227-0.11718 0.32422-0.11133 0.32617-0.10938 0.32617-0.10351 0.33008-0.0977 0.33008-0.0937 0.33203-0.0898 0.33203-0.084 0.33398-0.0781 0.33594-0.0762 0.33594-0.0684 0.33594-0.0664 0.33789-0.0586 0.33984-0.0566 0.33984-0.0508 0.33984-0.0449 0.3418-0.041 0.3418-0.0352 0.3418-0.0312 0.3418-0.0254 0.34375-0.0215 0.34375-0.0156 0.3418-0.01 0.34375-6e-3 0.34375-2e-3 0.34375 4e-3 0.34375 0.01 0.34375 0.0137 0.34375 0.0176 0.3418 0.0234 0.34375 0.0293 0.3418 0.0332 0.3418 0.0371 0.33984 0.0449 0.3418 0.0469 0.33789 0.0527 0.33984 0.0586 0.33789 0.0625 0.33789 0.0684 0.33594 0.0723 0.33398 0.0762 0.33398 0.084 0.33203 0.0859 0.33203 0.0918 0.33008 0.0957 0.32812 0.10156 0.32812 0.10547 0.32617 0.11133 0.32422 0.11523 0.32226 0.12109 0.32031 0.12305 0.31836 0.12891 0.31641 0.13476 0.31641 0.13867 0.3125 0.14258 0.31055 0.14649 0.30859 0.15234 0.31055 0.1582a0.50005 0.50005 0 0 0 0.04102 0.0176l0.31445 0.12695a0.50005 0.50005 0 0 0 0.16211 0.0352l0.33008 0.0156a0.50005 0.50005 0 0 0 0.0059 0l0.33008 0.0117a0.50005 0.50005 0 0 0 0.0059 2e-3l0.33008 8e-3a0.50005 0.50005 0 0 0 0.0059 0l0.33398 4e-3a0.50005 0.50005 0 0 0 0.0059 0h0.33203a0.50005 0.50005 0 0 0 0.0059 0l0.33398-4e-3a0.50005 0.50005 0 0 0 0.0059 0l0.33594-6e-3a0.50005 0.50005 0 0 0 0.0078 0l0.33594-0.0117a0.50005 0.50005 0 0 0 0.0059 0l0.33789-0.0156a0.50005 0.50005 0 0 0 0.0059 0l0.33789-0.0195a0.50005 0.50005 0 0 0 0.0059 0l0.33789-0.0234a0.50005 0.50005 0 0 0 0.0059 0l0.33984-0.0273a0.50005 0.50005 0 0 0 0.0059 0l0.33984-0.0313a0.50005 0.50005 0 0 0 0.0059 0l0.3418-0.0352a0.50005 0.50005 0 0 0 0.0059 0l0.33984-0.0391a0.50005 0.50005 0 0 0 0.0059 0l0.3418-0.043a0.50005 0.50005 0 0 0 0.0059-2e-3l0.3418-0.0469a0.50005 0.50005 0 0 0 0.0059 0l0.3418-0.0508a0.50005 0.50005 0 0 0 0.0059-2e-3l0.3418-0.0547a0.50005 0.50005 0 0 0 0.0059 0l0.34375-0.0586a0.50005 0.50005 0 0 0 0.0059-2e-3l0.3418-0.0625a0.50005 0.50005 0 0 0 0.0059 0l0.3418-0.0664a0.50005 0.50005 0 0 0 0.0059-2e-3l0.34375-0.0703a0.50005 0.50005 0 0 0 0.0039-2e-3l0.34375-0.0742a0.50005 0.50005 0 0 0 0.0059-2e-3l0.3418-0.0781a0.50005 0.50005 0 0 0 0.0059-2e-3l0.3418-0.082a0.50005 0.50005 0 0 0 0.0059-2e-3l0.3418-0.0859a0.50005 0.50005 0 0 0 0.0039-2e-3l0.3418-0.0898a0.50005 0.50005 0 0 0 0.005119-0.002634l0.33984-0.0937a0.50005 0.50005 0 0 0 0.0059-2e-3l0.33984-0.0996a0.50005 0.50005 0 0 0 0.0059-2e-3l0.33984-0.10156a0.50005 0.50005 0 0 0 0.0059-2e-3l0.33777-0.10539a0.50005 0.50005 0 0 0 0.0059-2e-3l0.33789-0.11133a0.50005 0.50005 0 0 0 0.0059-2e-3l0.33789-0.11328a0.50005 0.50005 0 0 0 0.0059-2e-3l0.33594-0.11915a0.50005 0.50005 0 0 0 0.0059-2e-3l0.33594-0.12109a0.50005 0.50005 0 0 0 0.0059-2e-3l0.33398-0.12695a0.50005 0.50005 0 0 0 0.0059-2e-3l0.33398-0.13086a0.50005 0.50005 0 0 0 0.0039-2e-3l0.33398-0.13282a0.50005 0.50005 0 0 0 0.0039-2e-3l0.33203-0.13867a0.50005 0.50005 0 0 0 0.0059-2e-3l0.33008-0.14062a0.50005 0.50005 0 0 0 0.0039-2e-3l0.33008-0.14649a0.50005 0.50005 0 0 0 0.0059-2e-3l0.32617-0.14844a0.50005 0.50005 0 0 0 0.0059-2e-3l0.32617-0.1543a0.50005 0.50005 0 0 0 0.0059-2e-3l0.32422-0.15625a0.50005 0.50005 0 0 0 0.0039-2e-3l0.32422-0.16016a0.50005 0.50005 0 0 0 0.0059-2e-3l0.32031-0.16407a0.50005 0.50005 0 0 0 0.0059-4e-3l0.32031-0.16602a0.50005 0.50005 0 0 0 0.0039-4e-3l0.31836-0.16993a0.5 0.5 0 0 0 0.20312-0.67772 0.5 0.5 0 0 0-0.43555-0.26367z" color="#260000" color-rendering="auto" dominant-baseline="auto" fill="#fff" image-rendering="auto" shape-rendering="auto" solid-color="#000000" stop-color="#000000" stroke="#000" stroke-linecap="round" stroke-linejoin="round" stroke-width=".1" style="font-feature-settings:normal;font-variant-alternates:normal;font-variant-caps:normal;font-variant-east-asian:normal;font-variant-ligatures:normal;font-variant-numeric:normal;font-variant-position:normal;font-variation-settings:normal;inline-size:0;isolation:auto;mix-blend-mode:normal;shape-margin:0;shape-padding:0;text-decoration-color:#000000;text-decoration-line:none;text-decoration-style:solid;text-indent:0;text-orientation:mixed;text-transform:none;white-space:normal"/>
 <path d="m125.86 31.921a21.643 21.643 0 0 1 20.185-2.8235" color="#260000" fill="none" stroke="#000" stroke-linecap="round" stroke-linejoin="round" stroke-width=".5"/>
 <path d="m146.05 29.098a29.511 29.511 0 0 0 23.249-1.2616" color="#260000" fill="none" stroke="#000" stroke-linecap="round" stroke-linejoin="round" stroke-width=".5"/>
 <path d="m142.32 38.049a27.602 27.602 0 0 1 24.751 3.3041" color="#260000" fill="none" stroke="#000" stroke-linecap="round" stroke-linejoin="round" stroke-width=".5"/>
 <line x1="110.18" x2="125.86" y1="43.336" y2="31.921" color="#260000" fill="none" stroke="#000" stroke-linecap="round" stroke-linejoin="round" stroke-width=".5"/>
 <line x1="114.69" x2="142.32" y1="47.721" y2="38.049" color="#260000" fill="none" stroke="#000" stroke-linecap="round" stroke-linejoin="round" stroke-width=".5"/>
 <line x1="167.07" x2="176.9" y1="41.353" y2="34.943" color="#260000" fill="none" stroke="#000" stroke-linecap="round" stroke-linejoin="round" stroke-width=".5"/>
 <path d="m173.09 30.89c-0.0837 2e-3 -0.16567 0.0247-0.23828 0.0664-3.2388 1.8557-6.1293 3.3243-9.6521 4.5565-0.26039 0.0913-0.39762 0.37622-0.30664 0.63672 0.0913 0.26143 0.37761 0.39891 0.63868 0.30664 3.5816-1.2528 6.5268-2.7469 9.8181-4.6327 0.23971-0.13789 0.32197-0.44416 0.1836-0.68358-0.0911-0.15795-0.26104-0.25375-0.44336-0.25z" color="#000000" color-rendering="auto" dominant-baseline="auto" fill="#fff" image-rendering="auto" shape-rendering="auto" solid-color="#000000" stop-color="#000000" stroke="#000" stroke-linecap="round" stroke-linejoin="round" stroke-width=".1" style="font-feature-settings:normal;font-variant-alternates:normal;font-variant-caps:normal;font-variant-east-asian:normal;font-variant-ligatures:normal;font-variant-numeric:normal;font-variant-position:normal;font-variation-settings:normal;inline-size:0;isolation:auto;mix-blend-mode:normal;shape-margin:0;shape-padding:0;text-decoration-color:#000000;text-decoration-line:none;text-decoration-style:solid;text-indent:0;text-orientation:mixed;text-transform:none;white-space:normal"/>
 <path d="m32.594 7.0505a21.643 21.643 0 0 1 20.185-2.8235" color="#260000" fill="none" stroke="#000" stroke-linecap="round" stroke-linejoin="round" stroke-width=".5"/>
 <path d="m52.779 4.227a29.511 29.511 0 0 0 23.249-1.2616" color="#260000" fill="none" stroke="#000" stroke-linecap="round" stroke-linejoin="round" stroke-width=".5"/>
 <path d="m49.054 13.178a27.602 27.602 0 0 1 24.751 3.3041" color="#260000" fill="none" stroke="#000" stroke-linecap="round" stroke-linejoin="round" stroke-width=".5"/>
 <line x1="16.914" x2="32.594" y1="18.465" y2="7.0505" color="#260000" fill="none" stroke="#000" stroke-linecap="round" stroke-linejoin="round" stroke-width=".5"/>
 <line x1="21.42" x2="49.054" y1="22.85" y2="13.178" color="#260000" fill="none" stroke="#000" stroke-linecap="round" stroke-linejoin="round" stroke-width=".5"/>
 <line x1="73.805" x2="83.632" y1="16.482" y2="10.072" color="#260000" fill="none" stroke="#000" stroke-linecap="round" stroke-linejoin="round" stroke-width=".5"/>
 <path d="m40.699 9.8085c-0.08354-4e-3 -0.24219 0.0488-0.24219 0.0488-7.293 3.4874-14.229 6.8623-21.5 10.379-0.24868 0.12023-0.35276 0.41934-0.23242 0.66797 0.12023 0.24868 0.41934 0.35275 0.66797 0.23242 7.2764-3.5196 14.211-6.8939 21.496-10.377 0.24831-0.11949 0.35313-0.41736 0.23438-0.66602-0.0784-0.16549-0.24099-0.27489-0.42383-0.28516z" color="#000000" color-rendering="auto" dominant-baseline="auto" fill="#fff" image-rendering="auto" shape-rendering="auto" solid-color="#000000" stop-color="#000000" stroke="#000" stroke-linecap="round" stroke-linejoin="round" stroke-width=".1" style="font-feature-settings:normal;font-variant-alternates:normal;font-variant-caps:normal;font-variant-east-asian:normal;font-variant-ligatures:normal;font-variant-numeric:normal;font-variant-position:normal;font-variation-settings:normal;inline-size:0;isolation:auto;mix-blend-mode:normal;shape-margin:0;shape-padding:0;text-decoration-color:#000000;text-decoration-line:none;text-decoration-style:solid;text-indent:0;text-orientation:mixed;text-transform:none;white-space:normal"/>
 <path d="m52.893 7.049c-3.619-0.15588-7.2665 0.47496-10.619 1.8945-5.78e-4 2.45e-4 -0.0014-2.45e-4 -2e-3 0-0.0314 0.0062-0.06214 0.01531-0.0918 0.02734-0.0038 0.0016-0.0079 0.0023-0.01172 0.0039l-0.0078 0.0039c-0.0033 0.0019-0.0065 0.0039-0.0098 0.0059-0.01194 5e-3 -0.02367 0.0113-0.03516 0.0176-0.45043 0.21439-0.34638 0.1439-0.79641 0.3591-0.24905 0.11877-0.35481 0.41683-0.23633 0.66602 0.11879 0.25017 0.41828 0.35613 0.66797 0.23633 0.45552-0.21783 0.35614-0.15189 0.81204-0.36887 0.0011-5e-4 0.0028 5.1e-4 0.0039 0 6.4688-2.774 13.651-2.6884 19.873 0.59166 0.24431 0.12901 0.54695 0.0354 0.67578-0.20898 0.12901-0.24432 0.03542-0.54695-0.20898-0.67579-3.2485-1.7125-6.3578-2.3951-10.014-2.5526z" color="#000000" color-rendering="auto" dominant-baseline="auto" fill="#fff" fill-opacity=".17053" image-rendering="auto" shape-rendering="auto" solid-color="#000000" stop-color="#000000" stroke="#000" stroke-linecap="round" stroke-linejoin="round" stroke-width=".1" style="font-feature-settings:normal;font-variant-alternates:normal;font-variant-caps:normal;font-variant-east-asian:normal;font-variant-ligatures:normal;font-variant-numeric:normal;font-variant-position:normal;font-variation-settings:normal;inline-size:0;isolation:auto;mix-blend-mode:normal;shape-margin:0;shape-padding:0;text-decoration-color:#000000;text-decoration-line:none;text-decoration-style:solid;text-indent:0;text-orientation:mixed;text-transform:none;white-space:normal"/>
 <path d="m79.84 6.049c-0.08389-2.91e-4 -0.1665 0.02053-0.24024 0.06055-2.8752 1.5651-5.9905 2.6922-9.2051 3.3008-6.36e-4 1.1e-4 -0.0013-1.1e-4 -2e-3 0-2e-3 3.9e-4 -0.0038 2e-3 -0.0059 2e-3 -2.376 0.4056-4.3953 0.78579-6.7174 0.49094-0.27403-0.0358-0.52509 0.15758-0.56055 0.43164-0.0357 0.2747 0.15874 0.52607 0.43359 0.56055 2.4922 0.31646 4.6112-0.0869 7.0221-0.49875 0.0026-6.3e-4 0.0052-1e-3 0.0078-2e-3 3.3231-0.6282 6.5388-1.7911 9.5059-3.4062 0.24193-0.13232 0.33106-0.43554 0.19922-0.67773-0.08706-0.16062-0.2548-0.26096-0.4375-0.26172z" color="#000000" color-rendering="auto" dominant-baseline="auto" fill="#fff" image-rendering="auto" shape-rendering="auto" solid-color="#000000" stop-color="#000000" stroke="#000" stroke-linecap="round" stroke-linejoin="round" stroke-width=".1" style="font-feature-settings:normal;font-variant-alternates:normal;font-variant-caps:normal;font-variant-east-asian:normal;font-variant-ligatures:normal;font-variant-numeric:normal;font-variant-position:normal;font-variation-settings:normal;inline-size:0;isolation:auto;mix-blend-mode:normal;shape-margin:0;shape-padding:0;text-decoration-color:#000000;text-decoration-line:none;text-decoration-style:solid;text-indent:0;text-orientation:mixed;text-transform:none;white-space:normal"/>
 <path d="m143.3 31.783c-4.1743 0.28158-8.2352 1.6594-11.98 3.3808-5e-3 3e-3 -0.0105 5e-3 -0.0156 8e-3 -6.4169 3.2203-12.732 6.6243-19.098 9.9121-0.24544 0.12671-0.34164 0.42843-0.21484 0.67382 0.1267 0.24545 0.42843 0.34166 0.67383 0.21485 6.3713-3.2908 12.68-6.6909 19.074-9.9003 4.9039-2.2538 10.276-3.8591 15.635-3.1855 3.6657 0.49676 7.2539 1.6121 10.92 2.4922l-0.01-4e-3c1.4793 0.38539 2.5132 0.65528 3.987 1.0603 0.26647 0.0736 0.54206-0.083 0.61523-0.34961 0.0736-0.26646-0.083-0.54206-0.34961-0.61523-1.4783-0.40622-2.5173-0.67576-4.0007-1.0622-3e-3 -6.9e-4 -6e-3 -1e-3 -0.01-2e-3 -3.6228-0.86967-7.2415-2-11.018-2.5117-1e-3 -1e-5 -3e-3 -1e-5 -4e-3 0-1.4095-0.17758-2.8136-0.20519-4.2051-0.11132z" color="#000000" color-rendering="auto" dominant-baseline="auto" fill="#fff" image-rendering="auto" shape-rendering="auto" solid-color="#000000" stop-color="#000000" stroke="#000" stroke-linecap="round" stroke-linejoin="round" stroke-width=".1" style="font-feature-settings:normal;font-variant-alternates:normal;font-variant-caps:normal;font-variant-east-asian:normal;font-variant-ligatures:normal;font-variant-numeric:normal;font-variant-position:normal;font-variation-settings:normal;inline-size:0;isolation:auto;mix-blend-mode:normal;shape-margin:0;shape-padding:0;text-decoration-color:#000000;text-decoration-line:none;text-decoration-style:solid;text-indent:0;text-orientation:mixed;text-transform:none;white-space:normal"/>
 <text x="29.990791" y="13.110846" fill="#000000" font-family="'Arial Nova', 'Arial Unicode MS', 'Yu Gothic UI', sans-serif" font-size="3.3867px" letter-spacing="0px" stroke="#000000" stroke-width=".28223" word-spacing="0px" style="line-height:0%" xml:space="preserve"><tspan x="29.990791" y="13.110846" font-family="'Arial Nova', 'Arial Unicode MS', 'Yu Gothic UI', sans-serif" stroke="#000000" stroke-width=".28223">1</tspan></text>
 <text x="50.182755" y="11.287385" fill="#000000" font-family="'Arial Nova', 'Arial Unicode MS', 'Yu Gothic UI', sans-serif" font-size="3.3867px" letter-spacing="0px" stroke="#000000" stroke-width=".28223" word-spacing="0px" style="line-height:0%" xml:space="preserve"><tspan x="50.182755" y="11.287385" font-family="'Arial Nova', 'Arial Unicode MS', 'Yu Gothic UI', sans-serif" stroke="#000000" stroke-width=".28223">2</tspan></text>
 <text x="71.496666" y="7.8302608" fill="#000000" font-family="'Arial Nova', 'Arial Unicode MS', 'Yu Gothic UI', sans-serif" font-size="3.3867px" letter-spacing="0px" stroke="#000000" stroke-width=".28223" word-spacing="0px" style="line-height:0%" xml:space="preserve"><tspan x="71.496666" y="7.8302608" font-family="'Arial Nova', 'Arial Unicode MS', 'Yu Gothic UI', sans-serif" stroke="#000000" stroke-width=".28223">3</tspan></text>
 <text fill="none" font-family="'Arial Nova', 'Arial Unicode MS', 'Yu Gothic UI', sans-serif" font-size="2.8222px" letter-spacing="0px" stroke="#000000" stroke-width=".26458px" word-spacing="0px" style="line-height:0;shape-inside:url(#rect2632);white-space:pre" xml:space="preserve"/>
 <text x="42.341339" y="31.962891" fill="#000000" font-family="'Arial Nova', 'Arial Unicode MS', 'Yu Gothic UI', sans-serif" font-size="3.3867px" letter-spacing="0px" stroke="#000000" stroke-width=".28223" word-spacing="0px" style="line-height:0%" xml:space="preserve"><tspan x="42.341339" y="31.962891" font-family="'Arial Nova', 'Arial Unicode MS', 'Yu Gothic UI', sans-serif" stroke="#000000" stroke-width=".28223">1</tspan></text>
 <text x="133.72108" y="32.491089" fill="#000000" font-family="'Arial Nova', 'Arial Unicode MS', 'Yu Gothic UI', sans-serif" font-size="3.3867px" letter-spacing="0px" stroke="#000000" stroke-width=".28223" word-spacing="0px" style="line-height:0%" xml:space="preserve"><tspan x="133.72108" y="32.491089" font-family="'Arial Nova', 'Arial Unicode MS', 'Yu Gothic UI', sans-serif" stroke="#000000" stroke-width=".28223">1</tspan></text>
 <text x="166.57524" y="32.368484" fill="#000000" font-family="'Arial Nova', 'Arial Unicode MS', 'Yu Gothic UI', sans-serif" font-size="3.3867px" letter-spacing="0px" stroke="#000000" stroke-width=".28223" word-spacing="0px" style="line-height:0%" xml:space="preserve"><tspan x="166.57524" y="32.368484" font-family="'Arial Nova', 'Arial Unicode MS', 'Yu Gothic UI', sans-serif" stroke="#000000" stroke-width=".28223">2</tspan></text>
 <g transform="matrix(.26458 0 0 .26458 -91.333 -2.6556)">
  <g transform="translate(354.56 247.34)">
   <ellipse cx="48.684" cy="-98.798" rx="13.199" ry="13.469" fill="#1f638a" stroke-linecap="round" stroke-linejoin="round" stroke-width="1.0658"/>
   <text x="42.842751" y="-91.162346" fill="#000000" font-family="'Arial Nova', 'Arial Unicode MS', 'Yu Gothic UI', sans-serif" font-size="12.8px" letter-spacing="0px" stroke-width="1.0667" word-spacing="0px" style="line-height:0%" xml:space="preserve"><tspan x="42.842751" y="-91.162346" fill="#ffffff" font-family="'Arial Nova', 'Arial Unicode MS', 'Yu Gothic UI', sans-serif" font-size="21.333px" stroke="#ffffff" stroke-width="1.0667" style="line-height:1.25">4</tspan></text>
  </g>
 </g>
</svg>
