<?xml version="1.0" encoding="UTF-8"?>
<!-- Created with Inkscape (http://www.inkscape.org/) -->
<svg width="18cm" height="3.5cm" version="1.1" viewBox="0 0 180 35" xml:space="preserve" xmlns="http://www.w3.org/2000/svg"><g transform="translate(-.68375 -5.5349)" stroke-linecap="round" stroke-linejoin="round"><path d="m95.747 12.427h11.798m24.383 8.1801v13.214" fill="#f00" stroke="#000"/><path d="m107.55 12.427v2.084" fill="#f00" stroke="#f00"/><path d="m113.09 20.608h18.838" fill="#f00" stroke="#f00"/><path d="m132.14 34.136h-37.125" stroke="#000" stroke-dasharray="3.032, 0.758, 0.379, 0.758" stroke-width=".379"/><path d="m107.51 14.52c-0.79786 2.1968-2.3975 5.9219-0.95946 7.3811 1.438 1.4592 3.7027-0.08358 6.5563-1.131" fill="none" stroke="#f00" stroke-dasharray="1, 1" stroke-width=".5"/></g><g transform="translate(1.5875 -5.5349)" stroke="#000" stroke-linecap="round" stroke-linejoin="round"><path d="m174.61 34.136h-37.125" stroke-dasharray="3.032, 0.758, 0.379, 0.758" stroke-width=".379"/><path d="m138.61 12.427h11.798m24.383 8.1801v13.214" fill="#f00"/><path d="m150.41 12.427v2.084" fill="#f00"/><path d="m156.33 20.608h18.468" fill="#f00"/><path d="m150.54 14.051a0.5 0.5 0 0 0-0.64063 0.29883c-0.39328 1.0828-1.0009 2.5797-1.334 4.0254-0.16656 0.72282-0.2676 1.4347-0.22266 2.0996 0.0449 0.6649 0.24424 1.3038 0.71094 1.7773 0.43649 0.4429 0.98142 0.67874 1.5391 0.73242 0.55765 0.05368 1.1252-0.05293 1.7109-0.23047 1.1714-0.35507 2.4435-1.0026 3.8359-1.5137a0.5 0.5 0 0 0 0.29687-0.64258 0.5 0.5 0 0 0-0.64258-0.29688c-1.4612 0.53631-2.7474 1.1827-3.7812 1.4961-0.5169 0.15668-0.96361 0.22807-1.3242 0.19336-0.3606-0.03471-0.63934-0.15276-0.92188-0.43945-0.25232-0.25603-0.39114-0.62998-0.42578-1.1426-0.0346-0.5126 0.0439-1.1431 0.19727-1.8086 0.30666-1.3309 0.89816-2.7943 1.3027-3.9082a0.5 0.5 0 0 0-0.30078-0.64062z" color="#000000" fill="#fff" stroke-width=".1"/></g><g transform="translate(1.5875 -5.8774)"><path d="m3.9327 11.956h11.798v8.1801h24.383v13.214" fill="none" stroke="#000" stroke-linecap="round" stroke-linejoin="round"/><path d="m40.114 33.822h-37.125" stroke="#000" stroke-dasharray="3.032, 0.758, 0.379, 0.758" stroke-linecap="round" stroke-linejoin="round" stroke-width=".379"/><path d="m2.9154 20.77 1.3421 5.5554h-2.6841z" fill="#0f0" stroke="#0f0" stroke-linecap="round" stroke-linejoin="round" stroke-width=".5"/><path d="m2.9029 23.297 0.046292 10.511" fill="#0f0" stroke="#0f0" stroke-linecap="round" stroke-linejoin="round" stroke-width=".5"/><g transform="matrix(.23216 -.12692 .12692 .23216 -168.24 58.413)" fill="#f00" stroke="#f00" stroke-linecap="round" stroke-linejoin="round" stroke-width="1.8898"><path d="m651.42 250.5-20.955-5.6764 5.0731-8.7851z"/><path d="m641.09 244.84-28.882-15.871"/></g><text x="14.03281" y="32.47197" fill="#000000" font-family="'Arial Nova', 'Arial Unicode MS', 'Yu Gothic UI', sans-serif" font-size="3.3867px" letter-spacing="0px" stroke-width=".28222" word-spacing="0px" style="line-height:0%" xml:space="preserve"><tspan x="14.03281" y="32.47197" fill="#ff0000" font-family="'Arial Nova', 'Arial Unicode MS', 'Yu Gothic UI', sans-serif" font-size="2.8222px" stroke="#ff0000" stroke-width=".28222" style="line-height:1.25">X</tspan></text></g><g transform="translate(.60918 -5.5349)" stroke-linecap="round" stroke-linejoin="round"><path d="m49.71 12.427h11.798m24.383 8.1801v13.214" fill="#f00" stroke="#000"/><path d="m61.508 12.427v8.1801" fill="#f00" stroke="#f00"/><path d="m61.508 20.608h24.383" fill="#f00" stroke="#f00"/><path d="m86.048 34.136h-37.125" stroke="#000" stroke-dasharray="3.032, 0.758, 0.379, 0.758" stroke-width=".379"/><path d="m76.115 26.964 1.6471-1.3618 1.8262 3.7385 1.6651-0.81338-1.8262-3.7385 1.9655-0.40296-5.1705-3.8935z" fill="#fff" stroke="#000" stroke-width=".2"/><path d="m61.543 21.847 1.6471-1.3618 1.8262 3.7385 1.6651-0.81338-1.8262-3.7385 1.9655-0.40296-5.1705-3.8935z" fill="#fff" stroke="#000" stroke-width=".2"/></g><g transform="matrix(.07718 0 0 .076397 31.389 6.2951)" fill="#1f638a" stroke="#1f638a" stroke-linecap="round" stroke-linejoin="round" stroke-width="1.3023"><path d="m207.49 126.25 34.17 21.614-34.17 21.614z"/><rect x="172.19" y="137.99" width="39.213" height="19.761"/></g><g transform="matrix(.07718 0 0 .076397 76.188 6.2951)" fill="#1f638a" stroke="#1f638a" stroke-linecap="round" stroke-linejoin="round" stroke-width="1.3023"><path d="m207.49 126.25 34.17 21.614-34.17 21.614z"/><rect x="172.19" y="137.99" width="39.213" height="19.761"/></g><g transform="matrix(.07718 0 0 .076397 120.93 6.2951)" fill="#1f638a" stroke="#1f638a" stroke-linecap="round" stroke-linejoin="round" stroke-width="1.3023"><path d="m207.49 126.25 34.17 21.614-34.17 21.614z"/><rect x="172.19" y="137.99" width="39.213" height="19.761"/></g><g transform="matrix(.26458 0 0 .26458 83.149 48.465)"><ellipse cx="-44.92" cy="-98.798" rx="13.199" ry="13.469" fill="#1f638a" stroke-linecap="round" stroke-linejoin="round" stroke-width="1.0658"/><text x="-50.761276" y="-91.125885" fill="#000000" font-family="'Arial Nova', 'Arial Unicode MS', 'Yu Gothic UI', sans-serif" font-size="12.8px" letter-spacing="0px" stroke-width="1.0667" word-spacing="0px" style="line-height:0%" xml:space="preserve"><tspan x="-50.761276" y="-91.125885" fill="#ffffff" font-family="'Arial Nova', 'Arial Unicode MS', 'Yu Gothic UI', sans-serif" font-size="21.333px" stroke="#ffffff" stroke-width="1.0667" style="line-height:1.25">1</tspan></text></g><g transform="matrix(.26458 0 0 .26458 115.19 47.152)"><ellipse cx="-13.718" cy="-98.798" rx="13.199" ry="13.469" fill="#1f638a" stroke-linecap="round" stroke-linejoin="round" stroke-width="1.0658"/><text x="-19.559933" y="-91.125885" fill="#000000" font-family="'Arial Nova', 'Arial Unicode MS', 'Yu Gothic UI', sans-serif" font-size="12.8px" letter-spacing="0px" stroke-width="1.0667" word-spacing="0px" style="line-height:0%" xml:space="preserve"><tspan x="-19.559933" y="-91.125885" fill="#ffffff" font-family="'Arial Nova', 'Arial Unicode MS', 'Yu Gothic UI', sans-serif" font-size="21.333px" stroke="#ffffff" stroke-width="1.0667" style="line-height:1.25">2</tspan></text></g><g transform="matrix(.26458 0 0 .26458 153.76 46.458)"><ellipse cx="17.483" cy="-98.798" rx="13.199" ry="13.469" fill="#1f638a" stroke-linecap="round" stroke-linejoin="round" stroke-width="1.0658"/><text x="11.641406" y="-91.256096" fill="#000000" font-family="'Arial Nova', 'Arial Unicode MS', 'Yu Gothic UI', sans-serif" font-size="12.8px" letter-spacing="0px" stroke-width="1.0667" word-spacing="0px" style="line-height:0%" xml:space="preserve"><tspan x="11.641406" y="-91.256096" fill="#ffffff" font-family="'Arial Nova', 'Arial Unicode MS', 'Yu Gothic UI', sans-serif" font-size="21.333px" stroke="#ffffff" stroke-width="1.0667" style="line-height:1.25">3</tspan></text></g></svg>
