<?xml version="1.0" encoding="UTF-8"?>
<svg width="18cm" height="10cm" version="1.1" xmlns="http://www.w3.org/2000/svg" xmlns:osb="http://www.openswatchbook.org/uri/2009/osb">
 <g transform="translate(0 -75.591)">
  <g transform="translate(15.253 52.959)">
   <path d="m354.23 215.75 40.058 2.699" style="fill:none;stroke-linecap:round;stroke-linejoin:round;stroke-width:.94488;stroke:#f00"/>
   <path d="m211.69 154.5 195.59 16.009 15.622 189.79-194.43-15.931z" style="fill:none;stroke-linecap:round;stroke-linejoin:round;stroke-width:1.8898;stroke:#999"/>
   <path d="m301.56 259.19-73.934 85.38-16.086-190.56 73.625-84.762z" style="fill:none;stroke-dasharray:2.83464566, 2.83464566;stroke-linecap:round;stroke-linejoin:round;stroke-width:.94488;stroke:#c7b7b7"/>
   <path d="m285.39 68.379 194.58 16.086-73.006 85.38-195.04-15.931z" style="fill:none;stroke-linecap:round;stroke-linejoin:round;stroke-width:1.8898;stroke:#999"/>
   <path d="m354.18 215.55-147.99 150.72" style="fill:none;stroke-linecap:round;stroke-linejoin:round;stroke-width:.75591;stroke:#008080"/>
   <path d="m353.74 215.98 79.62 165.12" style="fill:none;stroke-linecap:round;stroke-linejoin:round;stroke-width:.75591;stroke:#008080"/>
   <path d="m353.74 215.55 162.67 67.177" style="fill:none;stroke-linecap:round;stroke-linejoin:round;stroke-width:.75591;stroke:#008080"/>
   <path d="m353.96 215.88-79.126 64.409" style="fill:none;stroke-linecap:round;stroke-linejoin:round;stroke-width:.75591;stroke:#008080"/>
   <path d="m354.4 215.77 147.59-153.28" style="fill:none;stroke-linecap:round;stroke-linejoin:round;stroke-width:.75591;stroke:#008080"/>
   <path d="m354.4 215.98 90.353-77.454" style="fill:none;stroke-linecap:round;stroke-linejoin:round;stroke-width:.75591;stroke:#008080"/>
   <path d="m354.07 215.83-76.719-163.59" style="fill:none;stroke-linecap:round;stroke-linejoin:round;stroke-width:.75591;stroke:#008080"/>
   <path d="m354.15 215.75-165.52-72.385" style="fill:none;stroke-linecap:round;stroke-linejoin:round;stroke-width:.75591;stroke:#008080"/>
   <path d="m301.96 258.61 194.58 16.086-73.006 85.38-195.04-15.931z" style="fill:none;stroke-dasharray:2.83464566, 2.83464566;stroke-linecap:round;stroke-linejoin:round;stroke-width:.94488;stroke:#999"/>
   <path d="m497.19 274.39-73.934 85.38-16.086-190.56 73.625-84.762z" style="fill:none;stroke-linecap:round;stroke-linejoin:round;stroke-width:1.8898;stroke:#999"/>
   <path d="m351.29 176.92 2.9388 39.055" style="fill:none;stroke-linecap:round;stroke-linejoin:round;stroke-width:.94488;stroke:#0f0"/>
   <path d="m354.23 215.9-26.649 25.757" style="fill:none;stroke-linecap:round;stroke-linejoin:round;stroke-width:.94488;stroke:#00f"/>
   <text x="505.48633" y="66.509705" style="fill:#000000;font-family:'Arial Nova', 'Arial Unicode MS', 'Yu Gothic UI', sans-serif;font-size:12.8px;font-weight:bold;letter-spacing:0px;line-height:0%;stroke-width:1.0667;word-spacing:0px" xml:space="preserve"><tspan x="505.48633" y="66.509705" style="stroke-width:1.0667">(-1,-1,+1)</tspan></text>
   <text x="518.35968" y="287.03842" style="fill:#000000;font-family:'Arial Nova', 'Arial Unicode MS', 'Yu Gothic UI', sans-serif;font-size:12.8px;font-weight:bold;letter-spacing:0px;line-height:0%;stroke-width:1.0667;word-spacing:0px" xml:space="preserve"><tspan x="518.35968" y="287.03842" style="stroke-width:1.0667">(-1,+1,+1)</tspan></text>
   <text x="436.86154" y="380.74472" style="fill:#000000;font-family:'Arial Nova', 'Arial Unicode MS', 'Yu Gothic UI', sans-serif;font-size:12.8px;font-weight:bold;letter-spacing:0px;line-height:0%;stroke-width:1.0667;word-spacing:0px" xml:space="preserve"><tspan x="436.86154" y="380.74472" style="stroke-width:1.0667">(-1,+1,-1)</tspan></text>
   <text x="156.4024" y="370.18625" style="fill:#000000;font-family:'Arial Nova', 'Arial Unicode MS', 'Yu Gothic UI', sans-serif;font-size:12.8px;font-weight:bold;letter-spacing:0px;line-height:0%;stroke-width:1.0667;word-spacing:0px" xml:space="preserve"><tspan x="156.4024" y="370.18625" style="stroke-width:1.0667">(+1,+1,-1)</tspan></text>
   <text x="226.02228" y="276.14996" style="fill:#000000;font-family:'Arial Nova', 'Arial Unicode MS', 'Yu Gothic UI', sans-serif;font-size:12.8px;font-weight:bold;letter-spacing:0px;line-height:0%;stroke-width:1.0667;word-spacing:0px" xml:space="preserve"><tspan x="226.02228" y="276.14996" style="stroke-width:1.0667">(+1,+1,+1)</tspan></text>
   <text x="84.578773" y="123.99691" style="fill:#000000;font-family:'Arial Nova', 'Arial Unicode MS', 'Yu Gothic UI', sans-serif;font-size:12.8px;font-weight:bold;letter-spacing:0px;line-height:0%;stroke-width:1.0667;word-spacing:0px" xml:space="preserve"><tspan x="84.578773" y="123.99691" style="stroke-width:1.0667">(+1,-1,-1)</tspan></text>
   <text x="441.48087" y="149.77838" style="fill:#000000;font-family:'Arial Nova', 'Arial Unicode MS', 'Yu Gothic UI', sans-serif;font-size:12.8px;font-weight:bold;letter-spacing:0px;line-height:0%;stroke-width:1.0667;word-spacing:0px" xml:space="preserve"><tspan x="441.48087" y="149.77838" style="stroke-width:1.0667">(-1,-1,-1)</tspan></text>
   <text x="227.34209" y="56.401997" style="fill:#000000;font-family:'Arial Nova', 'Arial Unicode MS', 'Yu Gothic UI', sans-serif;font-size:12.8px;font-weight:bold;letter-spacing:0px;line-height:0%;stroke-width:1.0667;word-spacing:0px" xml:space="preserve"><tspan x="227.34209" y="56.401997" style="stroke-width:1.0667">(+1,-1,+1)</tspan></text>
   <g transform="translate(.68854 38.87)">
    <path d="m133.98 112.41 43.128 18.86-11.345-7.6321" style="fill:none;stroke-linecap:round;stroke-linejoin:round;stroke-width:.75591;stroke:#008080"/>
    <path d="m177.2 131.46-13.882-4.083" style="fill:#008080;stroke-linecap:round;stroke-linejoin:round;stroke-width:.75591;stroke:#008080"/>
   </g>
   <g transform="translate(.68854 20.223)">
    <path d="m133.98 112.41 43.128 18.86-11.345-7.6321" style="fill:none;stroke-linecap:round;stroke-linejoin:round;stroke-width:.75591;stroke:#008080"/>
    <path d="m177.2 131.46-13.882-4.083" style="fill:#008080;stroke-linecap:round;stroke-linejoin:round;stroke-width:.75591;stroke:#008080"/>
   </g>
   <g transform="translate(.68854 1.5749)">
    <path d="m133.98 112.41 43.128 18.86-11.345-7.6321" style="fill:none;stroke-linecap:round;stroke-linejoin:round;stroke-width:.75591;stroke:#008080"/>
    <path d="m177.2 131.46-13.882-4.083" style="fill:#008080;stroke-linecap:round;stroke-linejoin:round;stroke-width:.75591;stroke:#008080"/>
   </g>
   <g transform="translate(.68854 -17.073)">
    <path d="m133.98 112.41 43.128 18.86-11.345-7.6321" style="fill:none;stroke-linecap:round;stroke-linejoin:round;stroke-width:.75591;stroke:#008080"/>
    <path d="m177.2 131.46-13.882-4.083" style="fill:#008080;stroke-linecap:round;stroke-linejoin:round;stroke-width:.75591;stroke:#008080"/>
   </g>
   <g transform="translate(.68854 -10.857)">
    <path d="m133.98 112.41 43.128 18.86-11.345-7.6321" style="fill:none;stroke-linecap:round;stroke-linejoin:round;stroke-width:.75591;stroke:#008080"/>
    <path d="m177.2 131.46-13.882-4.083" style="fill:#008080;stroke-linecap:round;stroke-linejoin:round;stroke-width:.75591;stroke:#008080"/>
   </g>
   <g transform="translate(.68854 -4.641)">
    <path d="m133.98 112.41 43.128 18.86-11.345-7.6321" style="fill:none;stroke-linecap:round;stroke-linejoin:round;stroke-width:.75591;stroke:#008080"/>
    <path d="m177.2 131.46-13.882-4.083" style="fill:#008080;stroke-linecap:round;stroke-linejoin:round;stroke-width:.75591;stroke:#008080"/>
   </g>
   <g transform="translate(.68854 -23.289)">
    <path d="m133.98 112.41 43.128 18.86-11.345-7.6321" style="fill:none;stroke-linecap:round;stroke-linejoin:round;stroke-width:.75591;stroke:#008080"/>
    <path d="m177.2 131.46-13.882-4.083" style="fill:#008080;stroke-linecap:round;stroke-linejoin:round;stroke-width:.75591;stroke:#008080"/>
   </g>
   <g transform="translate(.68854 -29.505)">
    <path d="m133.98 112.41 43.128 18.86-11.345-7.6321" style="fill:none;stroke-linecap:round;stroke-linejoin:round;stroke-width:.75591;stroke:#008080"/>
    <path d="m177.2 131.46-13.882-4.083" style="fill:#008080;stroke-linecap:round;stroke-linejoin:round;stroke-width:.75591;stroke:#008080"/>
   </g>
   <g transform="translate(.68854 -35.72)">
    <path d="m133.98 112.41 43.128 18.86-11.345-7.6321" style="fill:none;stroke-linecap:round;stroke-linejoin:round;stroke-width:.75591;stroke:#008080"/>
    <path d="m177.2 131.46-13.882-4.083" style="fill:#008080;stroke-linecap:round;stroke-linejoin:round;stroke-width:.75591;stroke:#008080"/>
   </g>
   <g transform="translate(.68854 7.7908)">
    <path d="m133.98 112.41 43.128 18.86-11.345-7.6321" style="fill:none;stroke-linecap:round;stroke-linejoin:round;stroke-width:.75591;stroke:#008080"/>
    <path d="m177.2 131.46-13.882-4.083" style="fill:#008080;stroke-linecap:round;stroke-linejoin:round;stroke-width:.75591;stroke:#008080"/>
   </g>
   <g transform="translate(.68854 26.439)">
    <path d="m133.98 112.41 43.128 18.86-11.345-7.6321" style="fill:none;stroke-linecap:round;stroke-linejoin:round;stroke-width:.75591;stroke:#008080"/>
    <path d="m177.2 131.46-13.882-4.083" style="fill:#008080;stroke-linecap:round;stroke-linejoin:round;stroke-width:.75591;stroke:#008080"/>
   </g>
   <g transform="translate(.68854 45.086)">
    <path d="m133.98 112.41 43.128 18.86-11.345-7.6321" style="fill:none;stroke-linecap:round;stroke-linejoin:round;stroke-width:.75591;stroke:#008080"/>
    <path d="m177.2 131.46-13.882-4.083" style="fill:#008080;stroke-linecap:round;stroke-linejoin:round;stroke-width:.75591;stroke:#008080"/>
   </g>
   <g transform="translate(.68854 51.302)">
    <path d="m133.98 112.41 43.128 18.86-11.345-7.6321" style="fill:none;stroke-linecap:round;stroke-linejoin:round;stroke-width:.75591;stroke:#008080"/>
    <path d="m177.2 131.46-13.882-4.083" style="fill:#008080;stroke-linecap:round;stroke-linejoin:round;stroke-width:.75591;stroke:#008080"/>
   </g>
   <g transform="translate(.68854 57.518)">
    <path d="m133.98 112.41 43.128 18.86-11.345-7.6321" style="fill:none;stroke-linecap:round;stroke-linejoin:round;stroke-width:.75591;stroke:#008080"/>
    <path d="m177.2 131.46-13.882-4.083" style="fill:#008080;stroke-linecap:round;stroke-linejoin:round;stroke-width:.75591;stroke:#008080"/>
   </g>
   <g transform="translate(.68854 32.654)">
    <path d="m133.98 112.41 43.128 18.86-11.345-7.6321" style="fill:none;stroke-linecap:round;stroke-linejoin:round;stroke-width:.75591;stroke:#008080"/>
    <path d="m177.2 131.46-13.882-4.083" style="fill:#008080;stroke-linecap:round;stroke-linejoin:round;stroke-width:.75591;stroke:#008080"/>
   </g>
   <g transform="translate(.68854 14.007)">
    <path d="m133.98 112.41 43.128 18.86-11.345-7.6321" style="fill:none;stroke-linecap:round;stroke-linejoin:round;stroke-width:.75591;stroke:#008080"/>
    <path d="m177.2 131.46-13.882-4.083" style="fill:#008080;stroke-linecap:round;stroke-linejoin:round;stroke-width:.75591;stroke:#008080"/>
   </g>
   <g transform="translate(.68854 -41.936)">
    <path d="m133.98 112.41 43.128 18.86-11.345-7.6321" style="fill:none;stroke-linecap:round;stroke-linejoin:round;stroke-width:.75591;stroke:#008080"/>
    <path d="m177.2 131.46-13.882-4.083" style="fill:#008080;stroke-linecap:round;stroke-linejoin:round;stroke-width:.75591;stroke:#008080"/>
   </g>
   <path d="m325.2 243.56 8.9095-12.984 4.9448 5.4992z" style="fill:#fff;stroke-linecap:round;stroke-linejoin:round;stroke-width:.75591;stroke:#00f"/>
   <path d="m351.32 170.28-2.9166 15.474 7.3859-0.37514-4.4694-15.099z" style="fill:#fff;stroke-linecap:round;stroke-linejoin:round;stroke-width:.75591;stroke:#0f0"/>
   <path d="m409.32 219.18-15.411 3.237 0.22182-7.3921z" style="fill:#fff;stroke-linecap:round;stroke-linejoin:round;stroke-width:.75591;stroke:#f00"/>
  </g>
  <g transform="translate(-657.31 -69.887)">
   <ellipse cx="775.16" cy="269.59" rx="13.199" ry="13.469" style="fill:#1f638a;stroke-linecap:round;stroke-linejoin:round;stroke-width:1.0658"/>
   <text x="769.24432" y="277.12357" style="fill:#000000;font-family:'Arial Nova', 'Arial Unicode MS', 'Yu Gothic UI', sans-serif;font-size:12.8px;letter-spacing:0px;line-height:0%;stroke-width:1.0667;word-spacing:0px" xml:space="preserve"><tspan x="769.24432" y="277.12357" style="fill:#ffffff;font-family:'Arial Nova', 'Arial Unicode MS', 'Yu Gothic UI', sans-serif;font-size:21.333px;font-weight:bold;stroke-width:1.0667">1</tspan></text>
  </g>
 </g>
</svg>
