<?xml version="1.0" encoding="UTF-8"?>
<svg width="18cm" height="5cm" version="1.1" xmlns="http://www.w3.org/2000/svg" xmlns:xlink="http://www.w3.org/1999/xlink">
 <defs>
  <linearGradient id="linearGradient10628">
   <stop style="stop-color:#fff" offset="0"/>
   <stop style="stop-color:#4fa68a" offset="1"/>
  </linearGradient>
  <linearGradient id="linearGradient4379" x1="410.8" x2="201.59" y1="1147.9" y2="1146.8" gradientTransform="matrix(1.0667 0 0 1.0667 -234.67 -230.94)" gradientUnits="userSpaceOnUse">
   <stop style="stop-color:#fff" offset="0"/>
   <stop style="stop-color:#4fa68a" offset="1"/>
  </linearGradient>
  <linearGradient id="linearGradient4381" x1="492.28" x2="620.09" y1="972.85" y2="972.85" gradientTransform="matrix(1.4235 0 0 1.4235 -672.1 -370.58)" gradientUnits="userSpaceOnUse" xlink:href="#linearGradient10628"/>
  <linearGradient id="linearGradient4385" x1="534.68" x2="600.44" y1="985.09" y2="980.04" gradientTransform="matrix(1.4235 0 0 1.4235 -672.1 -370.58)" gradientUnits="userSpaceOnUse" xlink:href="#linearGradient10628"/>
  <linearGradient id="linearGradient4414" x1="24.43" x2="152.38" y1="1002.1" y2="1002.1" gradientTransform="matrix(1.4235 0 0 1.4235 452.96 -369.96)" gradientUnits="userSpaceOnUse" xlink:href="#linearGradient10628"/>
  <linearGradient id="linearGradient9016" x1="225.72" x2="395.44" y1="1126" y2="1126" gradientTransform="matrix(1.0667 0 0 1.0667 14.198 -207.52)" gradientUnits="userSpaceOnUse">
   <stop style="stop-color:#ff8500" offset="0"/>
   <stop style="stop-color:#fff" offset="1"/>
  </linearGradient>
  <linearGradient id="linearGradient9021" x1="492.28" x2="620.09" y1="972.85" y2="972.85" gradientTransform="matrix(1.4235 0 0 1.4235 -445.91 -370.95)" gradientUnits="userSpaceOnUse">
   <stop style="stop-color:#ff8500" offset="0"/>
   <stop style="stop-color:#fff" offset="1"/>
  </linearGradient>
  <linearGradient id="linearGradient9026" x1="24.831" x2="152.1" y1="969.31" y2="969.31" gradientTransform="matrix(1.4235 0 0 1.4235 452.96 -371.15)" gradientUnits="userSpaceOnUse" xlink:href="#linearGradient10628"/>
 </defs>
 <g transform="translate(0 -933.54)">
  <path d="m488.41 1049.6 91.075-52.411 90.109 52.948" style="color:#000000;fill:none;opacity:.75;stroke-dasharray:1.51181104, 1.51181104;stroke-linecap:round;stroke-linejoin:round;stroke-width:.75591;stroke:#5eab9d"/>
  <g transform="translate(1.0939e-5 -1.1949)">
   <path d="m579.37 998.2v-39.738" style="color:#000000;fill:none;opacity:.75;stroke-dasharray:1.51181104, 1.51181104;stroke-linecap:round;stroke-linejoin:round;stroke-width:.75591;stroke:#5eab9d"/>
   <path d="m487.71 1009.6 91.278 51.65v41.934l-91.135-52.368z" style="fill:url(#linearGradient4414);stroke-linecap:round;stroke-linejoin:round;stroke-width:1.4324;stroke:#67977f"/>
   <path d="m579.43 1061.4v41.938l90.668-52.591v-40.928z" style="fill:url(#linearGradient4414);stroke-linecap:round;stroke-linejoin:round;stroke-width:1.4324;stroke:#67977f"/>
  </g>
  <path d="m488.81 1008.4 90.406-51.39 89.756 51.699-89.467 51.529z" style="fill:url(#linearGradient9026);stroke-dashoffset:3.8976;stroke-linecap:round;stroke-linejoin:round;stroke-width:3.7795;stroke:#67977f"/>
  <g transform="translate(-3.0485 -5.4624)">
   <path d="m232.23 1028.8 9.9675 6.2408-9.9675 6.2409z" style="fill:#1f638a;stroke-linecap:round;stroke-linejoin:round;stroke-width:.37795;stroke:#1f638a"/>
   <rect x="221.93" y="1032.2" width="11.439" height="5.7059" style="fill:#1f638a;stroke-linecap:round;stroke-linejoin:round;stroke-width:.37795;stroke:#1f638a"/>
  </g>
  <text x="574.03601" y="1003.9951" style="fill:#000000;font-family:'Arial Nova', 'Arial Unicode MS', 'Yu Gothic UI', sans-serif;font-size:12.8px;letter-spacing:0px;line-height:0%;stroke-width:1.0667;word-spacing:0px" xml:space="preserve"><tspan x="574.03601" y="1003.9951" style="stroke-width:1.0667"> </tspan></text>
  <g transform="translate(-8.5333 .31211)">
   <path d="m29.428 1009 89.899-51.986 90.186 51.699c-58.989 32.374-129.98 25.498-180.08 0.2873z" style="fill:url(#linearGradient4379);stroke-linecap:round;stroke-linejoin:round;stroke-width:3.7795;stroke:#67977f"/>
   <path d="m28.142 1008.5 91.76 52.317v41.934l-91.616-53.035z" style="fill:url(#linearGradient4381);stroke-linecap:round;stroke-linejoin:round;stroke-width:1.4324;stroke:#67977f"/>
   <path d="m119.85 1060.7v41.939l91.24-53.162v-40.928z" style="fill:url(#linearGradient4381);stroke-linecap:round;stroke-linejoin:round;stroke-width:1.4324;stroke:#67977f"/>
   <path d="m29.284 1009.1c48.997 25.277 116.04 31.233 180.66 0.4308l-90.186 51.412z" style="fill:url(#linearGradient4385);stroke-linecap:round;stroke-linejoin:round;stroke-width:3.7795;stroke:#67977f"/>
   <text x="114.58664" y="1051.1648" style="fill:#67977f;font-family:'Arial Nova', 'Arial Unicode MS', 'Yu Gothic UI', sans-serif;font-size:12.8px;letter-spacing:0px;line-height:0%;stroke-width:1.0667;stroke:#67977f;word-spacing:0px" xml:space="preserve"><tspan x="114.58664" y="1051.1648" style="fill:#67977f;font-family:'Arial Nova', 'Arial Unicode MS', 'Yu Gothic UI', sans-serif;font-size:17.067px;stroke-width:1.0667;stroke:#67977f">B</tspan></text>
   <text x="113.44933" y="1009.5292" style="fill:#67977f;font-family:'Arial Nova', 'Arial Unicode MS', 'Yu Gothic UI', sans-serif;font-size:12.8px;letter-spacing:0px;line-height:0%;stroke-width:1.0667;stroke:#67977f;word-spacing:0px" xml:space="preserve"><tspan x="113.44933" y="1009.5292" style="fill:#67977f;font-family:'Arial Nova', 'Arial Unicode MS', 'Yu Gothic UI', sans-serif;font-size:17.067px;stroke-width:1.0667;stroke:#67977f">A</tspan></text>
  </g>
  <path d="m254.79 1007.8v41.939l90.763-51.544v-40.928z" style="fill:none;stroke-linecap:round;stroke-linejoin:round;stroke-width:1.4324;stroke:#67977f"/>
  <path d="m345.13 956.94 91.95 51.174v41.457l-91.806-51.416z" style="fill:none;stroke-linecap:round;stroke-linejoin:round;stroke-width:1.4324;stroke:#67977f"/>
  <path d="m255.47 1008.7c48.997 25.277 116.04 31.233 180.66 0.4309l-90.186 51.412z" style="fill:url(#linearGradient9021);stroke-linecap:round;stroke-linejoin:round;stroke-width:3.7795;stroke:#67977f"/>
  <path d="m254.42 1008.2 91.664 52.222v41.934l-91.521-52.94z" style="fill:none;stroke-linecap:round;stroke-linejoin:round;stroke-width:1.4324;stroke:#67977f"/>
  <path d="m346.03 1060.3v41.939l91.144-52.782v-40.928z" style="fill:none;stroke-linecap:round;stroke-linejoin:round;stroke-width:1.4324;stroke:#67977f"/>
  <path d="m255.44 1008.8 89.899-51.986 90.186 51.699c-58.989 32.374-129.98 25.498-180.08 0.2872z" style="fill:url(#linearGradient9016);stroke-linecap:round;stroke-linejoin:round;stroke-width:3.7795;stroke:#67977f"/>
  <path d="m367.34 1006.2 6.2254-5.147 6.9023 14.13 6.2932-3.0741-6.9023-14.13 7.4286-1.523-19.542-14.716z" style="fill:#fff;stroke-linecap:round;stroke-linejoin:round;stroke-width:.75591;stroke:#000"/>
  <path d="m357.21 1070.5 6.2253-5.1469 6.9023 14.13 6.2932-3.0743-6.9023-14.13 7.4287-1.523-19.542-14.716z" style="fill:#fff;stroke-linecap:round;stroke-linejoin:round;stroke-width:.75591;stroke:#000"/>
  <g transform="translate(230.25 -5.4624)">
   <path d="m232.23 1028.8 9.9675 6.2408-9.9675 6.2409z" style="fill:#1f638a;stroke-linecap:round;stroke-linejoin:round;stroke-width:.37795;stroke:#1f638a"/>
   <rect x="221.93" y="1032.2" width="11.439" height="5.7059" style="fill:#1f638a;stroke-linecap:round;stroke-linejoin:round;stroke-width:.37795;stroke:#1f638a"/>
  </g>
  <g transform="translate(441.44 1135.1)">
   <ellipse cx="-44.92" cy="-98.798" rx="13.199" ry="13.469" style="fill:#1f638a;stroke-linecap:round;stroke-linejoin:round;stroke-width:1.0658"/>
   <text x="-50.761276" y="-91.125885" style="fill:#000000;font-family:'Arial Nova', 'Arial Unicode MS', 'Yu Gothic UI', sans-serif;font-size:12.8px;letter-spacing:0px;line-height:0%;stroke-width:1.0667;word-spacing:0px" xml:space="preserve"><tspan x="-50.761276" y="-91.125885" style="fill:#ffffff;font-family:'Arial Nova', 'Arial Unicode MS', 'Yu Gothic UI', sans-serif;font-size:21.333px;stroke-width:1.0667;stroke:#ffffff">1</tspan></text>
  </g>
 </g>
</svg>
