<?xml version="1.0" encoding="UTF-8"?>
<svg width="18cm" height="7.5cm" version="1.1" xmlns="http://www.w3.org/2000/svg" xmlns:xlink="http://www.w3.org/1999/xlink"><defs><linearGradient id="Sockel"><stop style="stop-color:#c8733b" offset="0"/><stop style="stop-color:#fff" offset="1"/></linearGradient><linearGradient id="linearGradient3414" x1="715.12" x2="545.29" y1="1114.5" y2="961.02" gradientTransform="matrix(-.88125 0 0 .88125 695.1 145.43)" gradientUnits="userSpaceOnUse"><stop style="stop-color:#deaa87" offset="0"/><stop style="stop-color:#fff" offset="1"/></linearGradient><linearGradient id="linearGradient1162" x1="715.12" x2="545.29" y1="1114.5" y2="961.02" gradientTransform="matrix(-.88125 0 0 .88125 695.1 -693.62)" gradientUnits="userSpaceOnUse" xlink:href="#linearGradient3414"/><linearGradient id="linearGradient1164" x1="715.12" x2="545.29" y1="1114.5" y2="961.02" gradientTransform="matrix(-.88125 0 0 .88125 1060.6 -686.92)" gradientUnits="userSpaceOnUse" xlink:href="#linearGradient3414"/><linearGradient id="linearGradient1342" x1="100.67" x2="251.84" y1="152.83" y2="154.3" gradientUnits="userSpaceOnUse" xlink:href="#Sockel"/><linearGradient id="linearGradient1353" x1="428.8" x2="617.35" y1="162.09" y2="161" gradientUnits="userSpaceOnUse" xlink:href="#Sockel"/></defs><rect x="139.86" y="93.13" width="122.44" height="122.33" style="color:#000000;fill:#b3b3b3;opacity:.9801;stroke-linecap:round;stroke-linejoin:round;stroke-width:.67654;stroke:#53331c"/><path d="m251.5 130.2h-101.16v48.193h101.16z" style="color:#000000;fill:url(#linearGradient1342);opacity:.9801;stroke-linecap:round;stroke-linejoin:round;stroke-width:.67654;stroke:#52311a"/><path d="m153.98 133.61h81.356l12.529 11.702v29.682h-93.885z" style="color:#000000;fill:url(#linearGradient1162);opacity:.9703;stroke-linecap:round;stroke-linejoin:round;stroke-width:.67654;stroke:#502d16"/><g transform="matrix(0 -.82617 .82617 0 -555.43 559.25)" style="fill:none;stroke-width:.81888"><path d="m483.61 871.76 0.054 8.9845 0.42889 71.413 0.0236 3.9183 12.95-7.7e-4 0.0902-4.0208-0.11772-71.669-0.23479-8.5048z" style="color:#000000;fill:none;opacity:.99;stroke-linecap:round;stroke-linejoin:round;stroke-width:.81888;stroke:#502d16"/><path d="m483.74 880.39 0.36744 71.667 12.867 0.0135 4e-3 -12.179v-47.391l0.10389-11.947z" style="color:#000000;fill:none;opacity:.99;stroke-linecap:round;stroke-linejoin:round;stroke-width:.81888;stroke:#502d16"/><path d="m483.89 892.57 0.12863 47.293 12.962 0.0326v-47.391z" style="color:#000000;fill:none;opacity:.99;stroke-linecap:round;stroke-linejoin:round;stroke-width:.81888;stroke:#502d16"/><path d="m483.96 923.69v16.334l13.16-0.12481v-16.391z" style="color:#000000;fill:none;opacity:.99;paint-order:fill markers stroke;stroke-linecap:round;stroke-linejoin:round;stroke-width:.81888;stroke:#502d16"/></g><g transform="translate(-22.432 -845.65)"><path d="m299.2 878.4v9.461" style="fill:none;stroke-width:1.0667px;stroke:#000"/><path d="m85.867 878.4v9.461" style="fill:none;opacity:.99;stroke-width:1.0667px;stroke:#000"/><path d="m109.57 878.4v9.461" style="fill:none;opacity:.99;stroke-width:1.0667px;stroke:#000"/><path d="m133.27 878.4v9.461" style="fill:none;opacity:.99;stroke-width:1.0667px;stroke:#000"/><path d="m156.98 878.4v9.461" style="fill:none;opacity:.99;stroke-width:1.0667px;stroke:#000"/><path d="m180.68 878.4v9.461" style="fill:none;opacity:.99;stroke-width:1.0667px;stroke:#000"/><path d="m204.39 878.4v9.461" style="fill:none;opacity:.99;stroke-width:1.0667px;stroke:#000"/><path d="m228.09 878.4v9.461" style="fill:none;opacity:.99;stroke-width:1.0667px;stroke:#000"/><path d="m251.79 878.4v9.461" style="fill:none;opacity:.99;stroke-width:1.0667px;stroke:#000"/><path d="m275.5 878.4v9.461" style="fill:none;opacity:.99;stroke-width:1.0667px;stroke:#000"/></g><path d="m200.93 46.72v107.37l-132.84-0.05323" style="fill:none;stroke-width:1.0667px;stroke:#000"/><ellipse transform="matrix(.9993 -.037301 .032652 .99947 0 0)" cx="195.73" cy="161.63" rx="1.2735" ry="1.2731" style="fill:#f00;stroke-linecap:round;stroke-linejoin:round;stroke-width:1.2329;stroke:#f00"/><rect x="505.37" y="99.829" width="122.44" height="122.33" style="color:#000000;fill:#b3b3b3;opacity:.9703;stroke-linecap:round;stroke-linejoin:round;stroke-width:.67654;stroke:#53331c"/><path d="m617.01 136.9h-101.16v48.193h101.16z" style="color:#000000;fill:url(#linearGradient1353);opacity:.9703;stroke-linecap:round;stroke-linejoin:round;stroke-width:.67654;stroke:#52311a"/><path d="m519.49 140.31h81.356l12.529 11.702v29.682h-93.885z" style="color:#000000;fill:url(#linearGradient1164);opacity:.9606;stroke-linecap:round;stroke-linejoin:round;stroke-width:.67654;stroke:#502d16"/><path d="m524.03 160.01 69.659-0.41843-6.3e-4 -10.699-3.3219-0.0745-59.211 0.0972-7.0264 0.19398z" style="color:#000000;fill:none;opacity:.9703;stroke-linecap:round;stroke-linejoin:round;stroke-width:.67654;stroke:#502d16"/><path d="m531.16 159.9 59.209-0.38943 0.0111-10.545-10.062-3e-3h-39.153l-9.8702-0.0858z" style="color:#000000;fill:none;opacity:.9703;stroke-linecap:round;stroke-linejoin:round;stroke-width:.67654;stroke:#502d16"/><path d="m541.22 159.77 39.072-0.21761 0.0269-10.598h-39.153z" style="color:#000000;fill:none;opacity:.9703;stroke-linecap:round;stroke-linejoin:round;stroke-width:.67654;stroke:#502d16"/><path d="m566.93 159.65h13.495l-0.10312-10.835h-13.542z" style="color:#000000;fill:none;opacity:.9703;stroke-linecap:round;stroke-linejoin:round;stroke-width:.67654;stroke:#502d16"/><g transform="translate(337.08 -845.35)" style="opacity:.9801"><path d="m299.2 878.4v9.461" style="fill:none;stroke-width:1.0667px;stroke:#000"/><path d="m85.867 878.4v9.461" style="fill:none;opacity:.99;stroke-width:1.0667px;stroke:#000"/><path d="m109.57 878.4v9.461" style="fill:none;opacity:.99;stroke-width:1.0667px;stroke:#000"/><path d="m133.27 878.4v9.461" style="fill:none;opacity:.99;stroke-width:1.0667px;stroke:#000"/><path d="m156.98 878.4v9.461" style="fill:none;opacity:.99;stroke-width:1.0667px;stroke:#000"/><path d="m180.68 878.4v9.461" style="fill:none;opacity:.99;stroke-width:1.0667px;stroke:#000"/><path d="m204.39 878.4v9.461" style="fill:none;opacity:.99;stroke-width:1.0667px;stroke:#000"/><path d="m228.09 878.4v9.461" style="fill:none;opacity:.99;stroke-width:1.0667px;stroke:#000"/><path d="m251.79 878.4v9.461" style="fill:none;opacity:.99;stroke-width:1.0667px;stroke:#000"/><path d="m275.5 878.4v9.461" style="fill:none;opacity:.99;stroke-width:1.0667px;stroke:#000"/></g><path d="m420.81 43.65h-9.461" style="fill:none;opacity:.9703;stroke-width:1.0667px;stroke:#000"/><path d="m420.81 67.36h-9.461" style="fill:none;opacity:.9703;stroke-width:1.0667px;stroke:#000"/><path d="m420.81 91.06h-9.461" style="fill:none;opacity:.9703;stroke-width:1.0667px;stroke:#000"/><path d="m420.81 114.77h-9.461" style="fill:none;opacity:.9703;stroke-width:1.0667px;stroke:#000"/><path d="m420.81 138.47h-9.461" style="fill:none;opacity:.9703;stroke-width:1.0667px;stroke:#000"/><path d="m420.81 162.15h-9.461" style="fill:none;opacity:.9703;stroke-width:1.0667px;stroke:#000"/><path d="m420.81 185.85h-9.461" style="fill:none;opacity:.9703;stroke-width:1.0667px;stroke:#000"/><path d="m420.81 209.55h-9.461" style="fill:none;opacity:.9703;stroke-width:1.0667px;stroke:#000"/><path d="m420.81 233.25h-9.461" style="fill:none;opacity:.9703;stroke-width:1.0667px;stroke:#000"/><path d="m560.17 46.01v108.39l-131.37-0.27322" style="fill:none;opacity:.9801;stroke-dasharray:2.02960625, 2.02960625;stroke-linecap:round;stroke-linejoin:round;stroke-width:.67654;stroke:#000"/><ellipse transform="matrix(.9993 -.037301 .032652 .99947 0 0)" cx="440.99" cy="178.63" rx="1.2735" ry="1.2731" style="fill:#ccc;opacity:.9801;stroke-linecap:round;stroke-linejoin:round;stroke-width:1.2329;stroke:#ccc"/><ellipse transform="matrix(.9993 -.037301 .032652 .99947 0 0)" cx="464.63" cy="179.53" rx="1.2735" ry="1.2731" style="fill:#ccc;opacity:.9801;stroke-linecap:round;stroke-linejoin:round;stroke-width:1.2329;stroke:#ccc"/><ellipse transform="matrix(.9993 -.037301 .032652 .99947 0 0)" cx="488.57" cy="180.43" rx="1.2735" ry="1.2731" style="fill:#ccc;opacity:.9801;stroke-linecap:round;stroke-linejoin:round;stroke-width:1.2329;stroke:#ccc"/><ellipse transform="matrix(.9993 -.037301 .032652 .99947 0 0)" cx="562.57" cy="88.248" rx="1.2735" ry="1.2731" style="fill:#ccc;opacity:.9801;stroke-linecap:round;stroke-linejoin:round;stroke-width:1.2329;stroke:#ccc"/><ellipse transform="matrix(.9993 -.037301 .032652 .99947 0 0)" cx="561.8" cy="111.88" rx="1.2735" ry="1.2731" style="fill:#ccc;opacity:.9801;stroke-linecap:round;stroke-linejoin:round;stroke-width:1.2329;stroke:#ccc"/><path d="m565.23 45.79v116.3h-136.43" style="fill:none;opacity:.9801;stroke-width:1.0667px;stroke:#000"/><rect x="499.09" y="93.42" width="122.44" height="122.33" style="color:#000000;fill:none;opacity:.9801;stroke-dasharray:2.0296063, 2.0296063;stroke-linecap:round;stroke-linejoin:round;stroke-width:.67654;stroke:#000"/><ellipse transform="matrix(.9993 -.037301 .032652 .99947 0 0)" cx="559.4" cy="182.93" rx="1.2735" ry="1.2731" style="fill:#f00;opacity:.9801;stroke-linecap:round;stroke-linejoin:round;stroke-width:1.2329;stroke:#f00"/><g transform="translate(300.11,-555.02)"><path d="m260.18 771.12v6.412" style="fill:#f0f;opacity:.99;stroke-linecap:round;stroke-linejoin:round;stroke-width:.67654;stroke:#000"/><path d="m258.94 774.67 1.2651 2.9566 1.2651-2.9566" style="fill:none;stroke-linecap:round;stroke-linejoin:round;stroke-width:.67654;stroke:#000"/></g><g transform="translate(269.06,-570.87)"><path d="m359.21 725.45h-6.412" style="fill:#f0f;stroke-linecap:round;stroke-linejoin:round;stroke-width:.67654;stroke:#000"/><path d="m356.58 726.73 2.9566-1.2651-2.9566-1.2651" style="fill:none;opacity:.99;stroke-linecap:round;stroke-linejoin:round;stroke-width:.67654;stroke:#000"/></g><text x="561.74585" y="28.97649" style="fill:#000000;font-family:'Arial Nova', 'Arial Unicode MS', 'Yu Gothic UI', sans-serif;font-size:12.8px;letter-spacing:0px;line-height:0%;stroke-width:1.0667;stroke:#000000;word-spacing:0px" xml:space="preserve"><tspan x="561.74585" y="28.97649" style="font-family:'Arial Nova', 'Arial Unicode MS', 'Yu Gothic UI', sans-serif;font-size:10.667px;line-height:1.25;stroke-width:1.0667;stroke:#000000">X</tspan></text><text x="400.43524" y="165.10008" style="fill:#000000;font-family:'Arial Nova', 'Arial Unicode MS', 'Yu Gothic UI', sans-serif;font-size:12.8px;letter-spacing:0px;line-height:0%;opacity:.9801;stroke-width:1.0667;stroke:#000000;word-spacing:0px" xml:space="preserve"><tspan x="400.43524" y="165.10008" style="font-family:'Arial Nova', 'Arial Unicode MS', 'Yu Gothic UI', sans-serif;font-size:10.667px;line-height:1.25;stroke-width:1.0667;stroke:#000000">Y</tspan></text><text x="190.47542" y="28.170826" style="fill:#000000;font-family:'Arial Nova', 'Arial Unicode MS', 'Yu Gothic UI', sans-serif;font-size:12.8px;letter-spacing:0px;line-height:0%;opacity:.9801;stroke-width:1.0667;stroke:#000000;word-spacing:0px" xml:space="preserve"><tspan x="190.47542" y="28.170826" style="font-family:'Arial Nova', 'Arial Unicode MS', 'Yu Gothic UI', sans-serif;font-size:10.667px;line-height:1.25;stroke-width:1.0667;stroke:#000000">X.xx</tspan></text><text transform="rotate(-90)" x="-164.08269" y="44.613205" style="fill:#000000;font-family:'Arial Nova', 'Arial Unicode MS', 'Yu Gothic UI', sans-serif;font-size:12.8px;letter-spacing:0px;line-height:0%;opacity:.9801;stroke-width:1.0667;stroke:#000000;word-spacing:0px" xml:space="preserve"><tspan x="-164.08269" y="44.613205" style="font-family:'Arial Nova', 'Arial Unicode MS', 'Yu Gothic UI', sans-serif;font-size:10.667px;line-height:1.25;stroke-width:1.0667;stroke:#000000">Y.yy</tspan></text><path d="m200.88 42.21v-4.6205" style="fill:none;stroke-width:1.0667px;stroke:#000"/><path d="m196.2 42.21v-4.6205" style="fill:none;opacity:.9801;stroke-width:1.0667px;stroke:#000"/><path d="m191.52 42.21v-4.6205" style="fill:none;opacity:.9801;stroke-width:1.0667px;stroke:#000"/><path d="m186.85 42.21v-4.6205" style="fill:none;opacity:.9801;stroke-width:1.0667px;stroke:#000"/><path d="m61.299 43.35h-9.4611" style="fill:none;opacity:.9703;stroke-width:1.0667px;stroke:#000"/><path d="m61.299 67.06h-9.4611" style="fill:none;opacity:.9703;stroke-width:1.0667px;stroke:#000"/><path d="m61.299 90.76h-9.4611" style="fill:none;opacity:.9703;stroke-width:1.0667px;stroke:#000"/><path d="m61.299 114.47h-9.4611" style="fill:none;opacity:.9703;stroke-width:1.0667px;stroke:#000"/><path d="m61.299 138.17h-9.4611" style="fill:none;opacity:.9703;stroke-width:1.0667px;stroke:#000"/><path d="m61.299 161.85h-9.4611" style="fill:none;opacity:.9703;stroke-width:1.0667px;stroke:#000"/><path d="m61.299 185.55h-9.4611" style="fill:none;opacity:.9703;stroke-width:1.0667px;stroke:#000"/><path d="m61.299 209.25h-9.4611" style="fill:none;opacity:.9703;stroke-width:1.0667px;stroke:#000"/><path d="m61.299 232.95h-9.4611" style="fill:none;opacity:.9703;stroke-width:1.0667px;stroke:#000"/><g transform="rotate(-90 -237.88 582.08)" style="opacity:.9801"><path d="m200.88 881.26v-4.6205" style="fill:none;stroke-width:1.0667px;stroke:#000"/><path d="m196.2 881.26v-4.6205" style="fill:none;opacity:.99;stroke-width:1.0667px;stroke:#000"/><path d="m191.52 881.26v-4.6205" style="fill:none;opacity:.99;stroke-width:1.0667px;stroke:#000"/><path d="m186.85 881.26v-4.6205" style="fill:none;opacity:.99;stroke-width:1.0667px;stroke:#000"/></g><g transform="rotate(30.91 353.19 -34.935)"><path d="m185 157.64-20.624 6.4215 5.206 8.707c8.2105-7.0026 15.418-15.128 15.418-15.128z" style="fill:#0f0;stroke-linecap:round;stroke-linejoin:round;stroke-width:1.8898;stroke:#0f0"/><path d="m174.2 164.03-29.443 17.393" style="fill:#0f0;stroke-linecap:round;stroke-linejoin:round;stroke-width:1.8898;stroke:#0f0"/></g><path d="m61.92 89.92-5.0696-20.985h10.139z" style="fill:#f00;stroke-linecap:round;stroke-linejoin:round;stroke-width:1.8898;stroke:#f00"/><path d="m61.843 76.9 0.38844-32.953" style="fill:#f00;stroke-linecap:round;stroke-linejoin:round;stroke-width:1.8898;stroke:#f00"/><path d="m383.34 234.35-4.1905 12.571h8.7619z" style="stroke-linecap:round;stroke-linejoin:round;stroke-width:1.0658;stroke:#000"/><path d="m383.38 192.65v56.262" style="stroke-linecap:round;stroke-linejoin:round;stroke-width:.94488;stroke:#000"/><path d="m383.34 208.85-4.1905-12.572h8.7619z" style="stroke-linecap:round;stroke-linejoin:round;stroke-width:1.0658;stroke:#000"/><path d="m380.25 209.95h27.997" style="stroke-linecap:round;stroke-linejoin:round;stroke-width:.75591;stroke:#000"/><path d="m380.4 233.45h27.997" style="stroke-linecap:round;stroke-linejoin:round;stroke-width:.75591;stroke:#000"/><g transform="translate(359.99 -838.68)" style="opacity:.9801"><g transform="rotate(30.91,-1164.2,384.59)"><path d="m185 157.64-20.624 6.4215 5.206 8.707c8.2105-7.0026 15.418-15.128 15.418-15.128z" style="fill:#0f0;stroke-linecap:round;stroke-linejoin:round;stroke-width:1.8898;stroke:#0f0"/><path d="m174.2 164.03-29.443 17.393" style="fill:#0f0;stroke-linecap:round;stroke-linejoin:round;stroke-width:1.8898;stroke:#0f0"/></g><path d="m61.92 928.97-5.0696-20.985h10.139z" style="fill:#f00;stroke-linecap:round;stroke-linejoin:round;stroke-width:1.8898;stroke:#f00"/><path d="m61.843 915.95 0.38844-32.953" style="fill:#f00;stroke-linecap:round;stroke-linejoin:round;stroke-width:1.8898;stroke:#f00"/></g><ellipse transform="matrix(.9993 -.037301 .032652 .99947 0 0)" cx="467.73" cy="84.708" rx="1.2735" ry="1.2731" style="fill:#ccc;opacity:.9801;stroke-linecap:round;stroke-linejoin:round;stroke-width:1.2329;stroke:#ccc"/><ellipse transform="matrix(.9993 -.037301 .032652 .99947 0 0)" cx="491.66" cy="85.598" rx="1.2735" ry="1.2731" style="fill:#ccc;opacity:.9801;stroke-linecap:round;stroke-linejoin:round;stroke-width:1.2329;stroke:#ccc"/><ellipse transform="matrix(.9993 -.037301 .032652 .99947 0 0)" cx="514.99" cy="86.468" rx="1.2735" ry="1.2731" style="fill:#ccc;opacity:.9801;stroke-linecap:round;stroke-linejoin:round;stroke-width:1.2329;stroke:#ccc"/><ellipse transform="matrix(.9993 -.037301 .032652 .99947 0 0)" cx="538.94" cy="87.368" rx="1.2735" ry="1.2731" style="fill:#ccc;opacity:.9801;stroke-linecap:round;stroke-linejoin:round;stroke-width:1.2329;stroke:#ccc"/><ellipse transform="matrix(.9993 -.037301 .032652 .99947 0 0)" cx="586.21" cy="89.128" rx="1.2735" ry="1.2731" style="fill:#ccc;opacity:.9801;stroke-linecap:round;stroke-linejoin:round;stroke-width:1.2329;stroke:#ccc"/><ellipse transform="matrix(.9993 -.037301 .032652 .99947 0 0)" cx="609.84" cy="90.008" rx="1.2735" ry="1.2731" style="fill:#ccc;opacity:.9801;stroke-linecap:round;stroke-linejoin:round;stroke-width:1.2329;stroke:#ccc"/><ellipse transform="matrix(.9993 -.037301 .032652 .99947 0 0)" cx="633.48" cy="90.888" rx="1.2735" ry="1.2731" style="fill:#ccc;opacity:.9801;stroke-linecap:round;stroke-linejoin:round;stroke-width:1.2329;stroke:#ccc"/><ellipse transform="matrix(.9993 -.037301 .032652 .99947 0 0)" cx="444.09" cy="83.828" rx="1.2735" ry="1.2731" style="fill:#ccc;opacity:.9801;stroke-linecap:round;stroke-linejoin:round;stroke-width:1.2329;stroke:#ccc"/><ellipse transform="matrix(.9993 -.037301 .032652 .99947 0 0)" cx="443.32" cy="107.46" rx="1.2735" ry="1.2731" style="fill:#ccc;opacity:.9801;stroke-linecap:round;stroke-linejoin:round;stroke-width:1.2329;stroke:#ccc"/><ellipse transform="matrix(.9993 -.037301 .032652 .99947 0 0)" cx="466.96" cy="108.34" rx="1.2735" ry="1.2731" style="fill:#ccc;opacity:.9801;stroke-linecap:round;stroke-linejoin:round;stroke-width:1.2329;stroke:#ccc"/><ellipse transform="matrix(.9993 -.037301 .032652 .99947 0 0)" cx="490.89" cy="109.23" rx="1.2735" ry="1.2731" style="fill:#ccc;opacity:.9801;stroke-linecap:round;stroke-linejoin:round;stroke-width:1.2329;stroke:#ccc"/><ellipse transform="matrix(.9993 -.037301 .032652 .99947 0 0)" cx="514.22" cy="110.1" rx="1.2735" ry="1.2731" style="fill:#ccc;opacity:.9801;stroke-linecap:round;stroke-linejoin:round;stroke-width:1.2329;stroke:#ccc"/><ellipse transform="matrix(.9993 -.037301 .032652 .99947 0 0)" cx="538.16" cy="111" rx="1.2735" ry="1.2731" style="fill:#ccc;opacity:.9801;stroke-linecap:round;stroke-linejoin:round;stroke-width:1.2329;stroke:#ccc"/><ellipse transform="matrix(.9993 -.037301 .032652 .99947 0 0)" cx="585.44" cy="112.76" rx="1.2735" ry="1.2731" style="fill:#ccc;opacity:.9801;stroke-linecap:round;stroke-linejoin:round;stroke-width:1.2329;stroke:#ccc"/><ellipse transform="matrix(.9993 -.037301 .032652 .99947 0 0)" cx="609.07" cy="113.64" rx="1.2735" ry="1.2731" style="fill:#ccc;opacity:.9801;stroke-linecap:round;stroke-linejoin:round;stroke-width:1.2329;stroke:#ccc"/><ellipse transform="matrix(.9993 -.037301 .032652 .99947 0 0)" cx="632.71" cy="114.53" rx="1.2735" ry="1.2731" style="fill:#ccc;opacity:.9801;stroke-linecap:round;stroke-linejoin:round;stroke-width:1.2329;stroke:#ccc"/><ellipse transform="matrix(.9993 -.037301 .032652 .99947 0 0)" cx="631.94" cy="138.16" rx="1.2735" ry="1.2731" style="fill:#ccc;opacity:.9801;stroke-linecap:round;stroke-linejoin:round;stroke-width:1.2329;stroke:#ccc"/><ellipse transform="matrix(.9993 -.037301 .032652 .99947 0 0)" cx="631.16" cy="161.83" rx="1.2735" ry="1.2731" style="fill:#ccc;opacity:.9801;stroke-linecap:round;stroke-linejoin:round;stroke-width:1.2329;stroke:#ccc"/><ellipse transform="matrix(.9993 -.037301 .032652 .99947 0 0)" cx="629.61" cy="209.33" rx="1.2735" ry="1.2731" style="fill:#ccc;opacity:.9801;stroke-linecap:round;stroke-linejoin:round;stroke-width:1.2329;stroke:#ccc"/><ellipse transform="matrix(.9993 -.037301 .032652 .99947 0 0)" cx="630.38" cy="185.73" rx="1.2735" ry="1.2731" style="fill:#ccc;opacity:.9801;stroke-linecap:round;stroke-linejoin:round;stroke-width:1.2329;stroke:#ccc"/><ellipse transform="matrix(.9993 -.037301 .032652 .99947 0 0)" cx="628.84" cy="233.03" rx="1.2735" ry="1.2731" style="fill:#ccc;opacity:.9801;stroke-linecap:round;stroke-linejoin:round;stroke-width:1.2329;stroke:#ccc"/><ellipse transform="matrix(.9993 -.037301 .032652 .99947 0 0)" cx="628.06" cy="256.63" rx="1.2735" ry="1.2731" style="fill:#ccc;opacity:.9801;stroke-linecap:round;stroke-linejoin:round;stroke-width:1.2329;stroke:#ccc"/><ellipse transform="matrix(.9993 -.037301 .032652 .99947 0 0)" cx="604.43" cy="255.73" rx="1.2735" ry="1.2731" style="fill:#ccc;opacity:.9801;stroke-linecap:round;stroke-linejoin:round;stroke-width:1.2329;stroke:#ccc"/><ellipse transform="matrix(.9993 -.037301 .032652 .99947 0 0)" cx="580.79" cy="254.83" rx="1.2735" ry="1.2731" style="fill:#ccc;opacity:.9801;stroke-linecap:round;stroke-linejoin:round;stroke-width:1.2329;stroke:#ccc"/><ellipse transform="matrix(.9993 -.037301 .032652 .99947 0 0)" cx="557.16" cy="254.03" rx="1.2735" ry="1.2731" style="fill:#ccc;opacity:.9801;stroke-linecap:round;stroke-linejoin:round;stroke-width:1.2329;stroke:#ccc"/><ellipse transform="matrix(.9993 -.037301 .032652 .99947 0 0)" cx="533.52" cy="253.13" rx="1.2735" ry="1.2731" style="fill:#ccc;opacity:.9801;stroke-linecap:round;stroke-linejoin:round;stroke-width:1.2329;stroke:#ccc"/><ellipse transform="matrix(.9993 -.037301 .032652 .99947 0 0)" cx="509.57" cy="252.23" rx="1.2735" ry="1.2731" style="fill:#ccc;opacity:.9801;stroke-linecap:round;stroke-linejoin:round;stroke-width:1.2329;stroke:#ccc"/><ellipse transform="matrix(.9993 -.037301 .032652 .99947 0 0)" cx="486.25" cy="251.33" rx="1.2735" ry="1.2731" style="fill:#ccc;opacity:.9801;stroke-linecap:round;stroke-linejoin:round;stroke-width:1.2329;stroke:#ccc"/><ellipse transform="matrix(.9993 -.037301 .032652 .99947 0 0)" cx="462.31" cy="250.43" rx="1.2735" ry="1.2731" style="fill:#ccc;opacity:.9801;stroke-linecap:round;stroke-linejoin:round;stroke-width:1.2329;stroke:#ccc"/><ellipse transform="matrix(.9993 -.037301 .032652 .99947 0 0)" cx="438.68" cy="249.53" rx="1.2735" ry="1.2731" style="fill:#ccc;opacity:.9801;stroke-linecap:round;stroke-linejoin:round;stroke-width:1.2329;stroke:#ccc"/><ellipse transform="matrix(.9993 -.037301 .032652 .99947 0 0)" cx="439.45" cy="225.93" rx="1.2735" ry="1.2731" style="fill:#ccc;opacity:.9801;stroke-linecap:round;stroke-linejoin:round;stroke-width:1.2329;stroke:#ccc"/><ellipse transform="matrix(.9993 -.037301 .032652 .99947 0 0)" cx="463.08" cy="226.83" rx="1.2735" ry="1.2731" style="fill:#ccc;opacity:.9801;stroke-linecap:round;stroke-linejoin:round;stroke-width:1.2329;stroke:#ccc"/><ellipse transform="matrix(.9993 -.037301 .032652 .99947 0 0)" cx="487.02" cy="227.73" rx="1.2735" ry="1.2731" style="fill:#ccc;opacity:.9801;stroke-linecap:round;stroke-linejoin:round;stroke-width:1.2329;stroke:#ccc"/><ellipse transform="matrix(.9993 -.037301 .032652 .99947 0 0)" cx="487.79" cy="204.03" rx="1.2735" ry="1.2731" style="fill:#ccc;opacity:.9801;stroke-linecap:round;stroke-linejoin:round;stroke-width:1.2329;stroke:#ccc"/><ellipse transform="matrix(.9993 -.037301 .032652 .99947 0 0)" cx="463.86" cy="203.13" rx="1.2735" ry="1.2731" style="fill:#ccc;opacity:.9801;stroke-linecap:round;stroke-linejoin:round;stroke-width:1.2329;stroke:#ccc"/><ellipse transform="matrix(.9993 -.037301 .032652 .99947 0 0)" cx="440.22" cy="202.33" rx="1.2735" ry="1.2731" style="fill:#ccc;opacity:.9801;stroke-linecap:round;stroke-linejoin:round;stroke-width:1.2329;stroke:#ccc"/><ellipse transform="matrix(.9993 -.037301 .032652 .99947 0 0)" cx="489.35" cy="156.5" rx="1.2735" ry="1.2731" style="fill:#ccc;opacity:.9801;stroke-linecap:round;stroke-linejoin:round;stroke-width:1.2329;stroke:#ccc"/><ellipse transform="matrix(.9993 -.037301 .032652 .99947 0 0)" cx="465.41" cy="155.6" rx="1.2735" ry="1.2731" style="fill:#ccc;opacity:.9801;stroke-linecap:round;stroke-linejoin:round;stroke-width:1.2329;stroke:#ccc"/><ellipse transform="matrix(.9993 -.037301 .032652 .99947 0 0)" cx="441.78" cy="154.72" rx="1.2735" ry="1.2731" style="fill:#ccc;opacity:.9801;stroke-linecap:round;stroke-linejoin:round;stroke-width:1.2329;stroke:#ccc"/><ellipse transform="matrix(.9993 -.037301 .032652 .99947 0 0)" cx="442.55" cy="131.09" rx="1.2735" ry="1.2731" style="fill:#ccc;opacity:.9801;stroke-linecap:round;stroke-linejoin:round;stroke-width:1.2329;stroke:#ccc"/><ellipse transform="matrix(.9993 -.037301 .032652 .99947 0 0)" cx="466.18" cy="131.97" rx="1.2735" ry="1.2731" style="fill:#ccc;opacity:.9801;stroke-linecap:round;stroke-linejoin:round;stroke-width:1.2329;stroke:#ccc"/><ellipse transform="matrix(.9993 -.037301 .032652 .99947 0 0)" cx="490.12" cy="132.87" rx="1.2735" ry="1.2731" style="fill:#ccc;opacity:.9801;stroke-linecap:round;stroke-linejoin:round;stroke-width:1.2329;stroke:#ccc"/><g transform="translate(242.37 339.65)"><ellipse cx="-44.92" cy="-98.798" rx="13.199" ry="13.469" style="fill:#1f638a;stroke-linecap:round;stroke-linejoin:round;stroke-width:1.0658"/><text x="-50.761276" y="-91.125885" style="fill:#000000;font-family:'Arial Nova', 'Arial Unicode MS', 'Yu Gothic UI', sans-serif;font-size:12.8px;letter-spacing:0px;line-height:0%;stroke-width:1.0667;word-spacing:0px" xml:space="preserve"><tspan x="-50.761276" y="-91.125885" style="fill:#ffffff;font-family:'Arial Nova', 'Arial Unicode MS', 'Yu Gothic UI', sans-serif;font-size:21.333px;line-height:1.25;stroke-width:1.0667;stroke:#ffffff">1</tspan></text></g><g transform="translate(573.12 352.02)"><ellipse cx="-13.718" cy="-98.798" rx="13.199" ry="13.469" style="fill:#1f638a;stroke-linecap:round;stroke-linejoin:round;stroke-width:1.0658"/><text x="-19.559933" y="-91.125885" style="fill:#000000;font-family:'Arial Nova', 'Arial Unicode MS', 'Yu Gothic UI', sans-serif;font-size:12.8px;letter-spacing:0px;line-height:0%;stroke-width:1.0667;word-spacing:0px" xml:space="preserve"><tspan x="-19.559933" y="-91.125885" style="fill:#ffffff;font-family:'Arial Nova', 'Arial Unicode MS', 'Yu Gothic UI', sans-serif;font-size:21.333px;line-height:1.25;stroke-width:1.0667;stroke:#ffffff">2</tspan></text></g><g transform="translate(346.53 320.41)"><ellipse cx="17.483" cy="-98.798" rx="13.199" ry="13.469" style="fill:#1f638a;stroke-linecap:round;stroke-linejoin:round;stroke-width:1.0658"/><text x="11.641406" y="-91.256096" style="fill:#000000;font-family:'Arial Nova', 'Arial Unicode MS', 'Yu Gothic UI', sans-serif;font-size:12.8px;letter-spacing:0px;line-height:0%;stroke-width:1.0667;word-spacing:0px" xml:space="preserve"><tspan x="11.641406" y="-91.256096" style="fill:#ffffff;font-family:'Arial Nova', 'Arial Unicode MS', 'Yu Gothic UI', sans-serif;font-size:21.333px;line-height:1.25;stroke-width:1.0667;stroke:#ffffff">3</tspan></text></g></svg>
