<?xml version="1.0" encoding="UTF-8"?>
<svg width="18cm" height="6cm" version="1.1" xmlns="http://www.w3.org/2000/svg" xmlns:osb="http://www.openswatchbook.org/uri/2009/osb">
 <g transform="translate(0 -226.77)">
  <path d="m38.025 277.18-10.322 129.82h50.129v-48.385l53.095-16.057" style="fill:none;stroke-linecap:round;stroke-linejoin:round;stroke-width:3.7795;stroke:#000"/>
  <path d="m133.25 343.63a1.89 1.89 0 0 1-3.3321-1.7677l35.038-75.462a1.89 1.89 0 1 1 3.4163 1.5864l-35.038 75.462a1.89 1.89 0 0 1-0.0845 0.18128z" style="color:#000000;fill:#ffe8e8;stroke-dasharray:0.75590554, 2.2677166;stroke-linecap:round;stroke-width:.75591;stroke:#f00;text-decoration-line:none;text-indent:0;text-transform:none"/>
  <ellipse transform="matrix(.9993 -.037301 .032652 .99947 0 0)" cx="158.17" cy="273.22" rx="2.2681" ry="2.2673" style="fill:#f00;stroke-linecap:round;stroke-linejoin:round;stroke-width:2.1956"/>
  <path d="m166.67 290.73 6.2254-5.1469 6.9023 14.13 6.2932-3.0742-6.9023-14.13 7.4286-1.523-19.542-14.716z" style="fill:#fff;stroke-linecap:round;stroke-linejoin:round;stroke-width:.75591;stroke:#000"/>
  <path d="m389.53 276.89-120.08-0.0137" style="fill:#f00;stroke-dasharray:3.77952758, 1.88976377;stroke-linecap:round;stroke-width:.94488;stroke:#008000"/>
  <path d="m267.27 278.28-10.322 129.82h50.129v-48.385l53.095-16.057" style="fill:none;stroke-linecap:round;stroke-linejoin:round;stroke-width:3.7795;stroke:#000"/>
  <path d="m361.9 344.6c-0.49797 0.80755-1.6563 1.1222-2.4944 0.67758-0.8381-0.4446-1.2271-1.5801-0.83773-2.4452l30.485-66.471c0.35836-0.97881 1.6253-1.5034 2.5707-1.0644 0.9454 0.43899 1.3622 1.7454 0.84558 2.6508l-30.485 66.471c-0.025 0.0619-0.0531 0.1224-0.0845 0.18128z" style="color:#000000;fill:#ffe8e8;stroke-dasharray:0.75590554, 2.2677166;stroke-linecap:round;stroke-width:.75591;stroke:#f00;text-decoration-line:none;text-indent:0;text-transform:none"/>
  <ellipse transform="matrix(.9993 -.037301 .032652 .99947 0 0)" cx="381.88" cy="291.73" rx="2.2681" ry="2.2673" style="fill:#f00;stroke-linecap:round;stroke-linejoin:round;stroke-width:2.1956"/>
  <path d="m390.83 300.89 6.2254-5.1469 6.9023 14.13 6.2932-3.0742-6.9023-14.13 7.4286-1.523-19.542-14.716z" style="fill:#fff;stroke-linecap:round;stroke-linejoin:round;stroke-width:.75591;stroke:#000"/>
  <path d="m493.31 278.66-10.322 129.82h50.129v-48.385l53.095-16.057" style="fill:none;stroke-linecap:round;stroke-linejoin:round;stroke-width:3.7795;stroke:#000"/>
  <path d="m479.51 454.48 15.83-203.36" style="fill:none;stroke-dasharray:1.03559046, 1.03559046;stroke-linecap:round;stroke-linejoin:round;stroke-width:.5178;stroke:#999"/>
  <path d="m577.41 452.37 15.83-203.36" style="fill:none;stroke-dasharray:1.03559046, 1.03559046;stroke-linecap:round;stroke-linejoin:round;stroke-width:.5178;stroke:#999"/>
  <path d="m483.19 408.09 9.7995-129.6" style="fill:none;stroke-linecap:round;stroke-linejoin:round;stroke-width:3.7795;stroke:#008000"/>
  <path d="m592.4 262.39a1.89 1.89 0 0 0-1.8 1.8l-6.1667 79.967a1.89 1.89 0 1 0 3.7667 0.3l6.1667-80a1.89 1.89 0 0 0-1.9667-2.0667z" style="color:#000000;fill:#ffebeb;stroke-dasharray:0.75590554, 2.2677166;stroke-linecap:round;stroke-linejoin:round;stroke-width:.75591;stroke:#f00;text-decoration-line:none;text-indent:0;text-transform:none"/>
  <ellipse transform="matrix(.9993 -.037301 .032652 .99947 0 0)" cx="583.51" cy="286.78" rx="2.2681" ry="2.2673" style="fill:#f00;stroke-linecap:round;stroke-linejoin:round;stroke-width:2.1956"/>
  <path d="m592.15 288.43 6.2254-5.1469 6.9023 14.13 6.2932-3.0742-6.9023-14.13 7.4286-1.523-19.542-14.716z" style="fill:#fff;stroke-linecap:round;stroke-linejoin:round;stroke-width:.75591;stroke:#000"/>
  <g transform="translate(284.1 390.6)">
   <ellipse cx="142.29" cy="-98.798" rx="13.199" ry="13.469" style="fill:#1f638a;stroke-linecap:round;stroke-linejoin:round;stroke-width:1.0658"/>
   <text x="136.44678" y="-91.26651" style="fill:#000000;font-family:'Arial Nova', 'Arial Unicode MS', 'Yu Gothic UI', sans-serif;font-size:12.8px;letter-spacing:0px;line-height:0%;stroke-width:1.0667;word-spacing:0px" xml:space="preserve"><tspan x="136.44678" y="-91.26651" style="fill:#ffffff;font-family:'Arial Nova', 'Arial Unicode MS', 'Yu Gothic UI', sans-serif;font-size:21.333px;line-height:1.25;stroke-width:1.0667;stroke:#ffffff">7</tspan></text>
  </g>
  <g transform="translate(93.106 380.45)">
   <ellipse cx="111.09" cy="-98.798" rx="13.199" ry="13.469" style="fill:#1f638a;stroke-linecap:round;stroke-linejoin:round;stroke-width:1.0658"/>
   <text x="105.24544" y="-91.256096" style="fill:#000000;font-family:'Arial Nova', 'Arial Unicode MS', 'Yu Gothic UI', sans-serif;font-size:12.8px;letter-spacing:0px;line-height:0%;stroke-width:1.0667;word-spacing:0px" xml:space="preserve"><tspan x="105.24544" y="-91.256096" style="fill:#ffffff;font-family:'Arial Nova', 'Arial Unicode MS', 'Yu Gothic UI', sans-serif;font-size:21.333px;line-height:1.25;stroke-width:1.0667;stroke:#ffffff">6</tspan></text>
  </g>
  <g transform="translate(454.8 380.45)">
   <ellipse cx="173.49" cy="-98.798" rx="13.199" ry="13.469" style="fill:#1f638a;stroke-linecap:round;stroke-linejoin:round;stroke-width:1.0658"/>
   <text x="167.64812" y="-91.256096" style="fill:#000000;font-family:'Arial Nova', 'Arial Unicode MS', 'Yu Gothic UI', sans-serif;font-size:12.8px;letter-spacing:0px;line-height:0%;stroke-width:1.0667;word-spacing:0px" xml:space="preserve"><tspan x="167.64812" y="-91.256096" style="fill:#ffffff;font-family:'Arial Nova', 'Arial Unicode MS', 'Yu Gothic UI', sans-serif;font-size:21.333px;line-height:1.25;stroke-width:1.0667;stroke:#ffffff">8</tspan></text>
  </g>
 </g>
</svg>
